<?xml version="1.0" encoding="utf-8"?>
<!-- Generator: Adobe Illustrator 22.1.0, SVG Export Plug-In . SVG Version: 6.00 Build 0)  -->
<svg version="1.1" id="Layer_1" xmlns="http://www.w3.org/2000/svg" xmlns:xlink="http://www.w3.org/1999/xlink" x="0px" y="0px"
	 viewBox="0 0 24 24" style="enable-background:new 0 0 24 24;" xml:space="preserve">
<g>
	<title>color-tubes</title>
	<path d="M2,24c-0.827,0-1.5-0.673-1.5-1.5v-16c0-0.673,0.444-1.251,1.078-1.436l0.74-3.682c0.137-0.681,0.666-1.21,1.347-1.347
		c0.113-0.023,0.228-0.034,0.343-0.034c0.337,0,0.665,0.1,0.949,0.288c0.382,0.254,0.642,0.641,0.733,1.09
		c0,0.001,0.734,3.685,0.734,3.685C7.057,5.249,7.5,5.828,7.5,6.5v16C7.5,23.327,6.827,24,6,24H2z M1.5,22.5
		C1.5,22.776,1.724,23,2,23h4c0.276,0,0.5-0.224,0.5-0.5V21h-5V22.5z M6.5,20V9h-5v11H6.5z M6.5,8V6.5C6.5,6.224,6.276,6,6,6H2
		C1.724,6,1.5,6.224,1.5,6.5V8H6.5z M5.391,5L4.71,1.579c-0.038-0.188-0.147-0.35-0.307-0.457C4.284,1.043,4.147,1.001,4.006,1.001
		c-0.048,0-0.096,0.005-0.144,0.015C3.577,1.073,3.356,1.294,3.298,1.579L2.611,5H5.391z"/>
	<path d="M10,24c-0.827,0-1.5-0.673-1.5-1.5v-16c0-0.673,0.444-1.251,1.078-1.436l0.74-3.682c0.137-0.681,0.666-1.21,1.347-1.347
		c0.113-0.023,0.228-0.034,0.342-0.034c0.337,0,0.666,0.099,0.949,0.288c0.383,0.254,0.643,0.642,0.734,1.093l0.733,3.682
		C15.056,5.249,15.5,5.827,15.5,6.5v16c0,0.827-0.673,1.5-1.5,1.5H10z M9.5,22.5c0,0.276,0.224,0.5,0.5,0.5h4
		c0.276,0,0.5-0.224,0.5-0.5V21h-5V22.5z M14.5,20V9h-5v11H14.5z M14.5,8V6.5C14.5,6.224,14.276,6,14,6h-4
		C9.724,6,9.5,6.224,9.5,6.5V8H14.5z M13.391,5L12.71,1.579c-0.038-0.188-0.147-0.35-0.307-0.457
		c-0.119-0.079-0.256-0.121-0.396-0.121c-0.048,0-0.097,0.005-0.144,0.015c-0.286,0.057-0.507,0.279-0.564,0.564L10.611,5H13.391z"
		/>
	<path d="M18,24c-0.827,0-1.5-0.673-1.5-1.5v-16c0-0.673,0.444-1.251,1.078-1.436l0.74-3.682c0.137-0.681,0.666-1.21,1.347-1.347
		c0.113-0.023,0.229-0.034,0.343-0.034c0.337,0,0.665,0.1,0.949,0.288c0.382,0.254,0.643,0.642,0.734,1.093l0.733,3.682
		C23.056,5.249,23.5,5.827,23.5,6.5v16c0,0.827-0.673,1.5-1.5,1.5H18z M17.5,22.5c0,0.276,0.224,0.5,0.5,0.5h4
		c0.276,0,0.5-0.224,0.5-0.5V21h-5V22.5z M22.5,20V9h-5v11H22.5z M22.5,8V6.5C22.5,6.224,22.276,6,22,6h-4
		c-0.276,0-0.5,0.224-0.5,0.5V8H22.5z M21.391,5L20.71,1.579c-0.038-0.188-0.147-0.35-0.307-0.457
		c-0.119-0.079-0.256-0.121-0.396-0.121c-0.048,0-0.096,0.005-0.144,0.015c-0.285,0.057-0.506,0.279-0.563,0.563L18.61,5H21.391z"/>
</g>
</svg>
