<?xml version="1.0" encoding="utf-8"?>
<!-- Generator: Adobe Illustrator 22.1.0, SVG Export Plug-In . SVG Version: 6.00 Build 0)  -->
<svg version="1.1" id="Layer_1" xmlns="http://www.w3.org/2000/svg" xmlns:xlink="http://www.w3.org/1999/xlink" x="0px" y="0px"
	 viewBox="0 0 24 24" style="enable-background:new 0 0 24 24;" xml:space="preserve">
<g>
	<title>color-brush-3</title>
	<path d="M4.009,24.031c-1,0-1.988-0.229-2.938-0.681c-0.498-0.237-0.71-0.834-0.474-1.332c0.107-0.226,0.295-0.403,0.527-0.498
		c1.332-0.539,1.477-1.738,1.631-3.007c0.083-0.684,0.161-1.329,0.429-1.878c0.68-1.37,2.114-2.255,3.652-2.255
		c0.608,0,1.193,0.133,1.741,0.396c2.173,1.059,2.861,3.089,1.797,5.297C9.427,22.04,6.936,24.031,4.009,24.031z M6.834,15.38
		c-1.161,0-2.241,0.666-2.753,1.697c-0.192,0.395-0.261,0.959-0.333,1.557c-0.165,1.361-0.371,3.053-2.248,3.813
		c0.815,0.388,1.66,0.584,2.514,0.584c2.512,0,4.648-1.706,5.46-3.391c0.822-1.706,0.336-3.15-1.331-3.963
		C7.731,15.48,7.291,15.38,6.834,15.38z"/>
	<path d="M12.324,16.34c-0.176-0.018-0.323-0.12-0.4-0.274c-0.672-1.346-1.883-2.37-3.321-2.81
		c-0.167-0.051-0.297-0.188-0.339-0.357c-0.042-0.17,0.009-0.352,0.132-0.475L20.287,0.565c0.355-0.353,0.826-0.547,1.328-0.547
		c0.462,0,0.906,0.169,1.251,0.475c0.747,0.662,0.847,1.794,0.227,2.577L12.764,16.152c-0.096,0.121-0.239,0.19-0.393,0.19
		C12.356,16.342,12.34,16.341,12.324,16.34z M9.652,12.584c1.132,0.508,2.101,1.334,2.784,2.37L22.308,2.45
		c0.291-0.368,0.245-0.898-0.106-1.209c-0.162-0.144-0.37-0.223-0.587-0.223c-0.235,0-0.456,0.091-0.622,0.256L9.652,12.584z"/>
</g>
</svg>
