<?xml version="1.0" encoding="utf-8"?>
<!-- Generator: Adobe Illustrator 22.1.0, SVG Export Plug-In . SVG Version: 6.00 Build 0)  -->
<svg version="1.1" id="Layer_1" xmlns="http://www.w3.org/2000/svg" xmlns:xlink="http://www.w3.org/1999/xlink" x="0px" y="0px"
	 viewBox="0 0 24 24" style="enable-background:new 0 0 24 24;" xml:space="preserve">
<g>
	<title>color-picker-take</title>
	<path d="M11.5,19c-0.551,0-1-0.448-1-1v-1.403C9.571,16.062,9,15.081,9,14V7H7.5C7.224,7,7,6.776,7,6.5S7.224,6,7.5,6H9V3
		c0-1.654,1.346-3,3-3c1.654,0,3,1.346,3,3v3h1.5C16.776,6,17,6.224,17,6.5S16.776,7,16.5,7H15v7c0,1.081-0.571,2.062-1.5,2.597V18
		c0,0.552-0.448,1-1,1H11.5z M10,14c0,0.795,0.471,1.514,1.2,1.832c0.182,0.08,0.3,0.26,0.3,0.458V18h1v-1.71
		c0-0.199,0.118-0.379,0.3-0.458C13.529,15.514,14,14.795,14,14V7h-4V14z M14,6V3c0-1.103-0.897-2-2-2s-2,0.897-2,2v3H14z"/>
	<path d="M12,24c-0.827,0-1.5-0.673-1.5-1.5c0-0.049,0.007-0.097,0.021-0.144c0.235-0.776,0.597-1.5,1.076-2.152
		C11.691,20.076,11.841,20,12,20c0.159,0,0.309,0.076,0.403,0.204c0.479,0.652,0.841,1.376,1.075,2.151
		c0.014,0.047,0.021,0.096,0.021,0.145C13.5,23.327,12.827,24,12,24z M11.504,22.563C11.535,22.811,11.746,23,12,23
		s0.465-0.189,0.496-0.437c-0.126-0.397-0.293-0.78-0.496-1.143C11.796,21.783,11.63,22.166,11.504,22.563z"/>
	<path d="M12,14.5c-0.276,0-0.5-0.224-0.5-0.5V9.5C11.5,9.224,11.724,9,12,9c0.276,0,0.5,0.224,0.5,0.5V14
		C12.5,14.276,12.276,14.5,12,14.5z"/>
</g>
</svg>
