<?xml version="1.0" encoding="utf-8"?>
<!-- Generator: Adobe Illustrator 22.1.0, SVG Export Plug-In . SVG Version: 6.00 Build 0)  -->
<svg version="1.1" id="Layer_1" xmlns="http://www.w3.org/2000/svg" xmlns:xlink="http://www.w3.org/1999/xlink" x="0px" y="0px"
	 viewBox="0 0 24 24" style="enable-background:new 0 0 24 24;" xml:space="preserve">
<g>
	<title>color-palette-2</title>
	<path d="M12,24c-1.557,0-3.077-0.298-4.517-0.885c-0.008-0.002-0.017-0.005-0.024-0.007c-0.014-0.005-0.028-0.012-0.042-0.02
		c-2.887-1.19-5.254-3.537-6.477-6.43c-0.004-0.009-0.008-0.017-0.012-0.025c-0.003-0.008-0.006-0.016-0.008-0.024
		C0.312,15.157,0,13.601,0,12c0-1.557,0.298-3.077,0.885-4.518c0.003-0.009,0.005-0.018,0.009-0.026
		c0.004-0.01,0.009-0.021,0.015-0.031c1.196-2.896,3.542-5.261,6.434-6.483c0.007-0.004,0.013-0.007,0.02-0.01
		C7.37,0.929,7.378,0.926,7.386,0.923C8.858,0.309,10.407,0,12,0c1.558,0,3.078,0.298,4.519,0.886
		c0.011,0.003,0.022,0.007,0.031,0.011c0.008,0.003,0.017,0.008,0.025,0.012c2.896,1.196,5.262,3.542,6.484,6.436
		c0.004,0.007,0.007,0.015,0.01,0.022c0.003,0.007,0.005,0.014,0.007,0.021C23.692,8.862,24,10.409,24,12
		c0,1.557-0.298,3.077-0.885,4.517c-0.003,0.01-0.006,0.02-0.009,0.029c-0.004,0.009-0.009,0.02-0.014,0.03
		c-1.199,2.898-3.543,5.261-6.435,6.483c-0.008,0.004-0.015,0.008-0.023,0.011c-0.006,0.002-0.011,0.004-0.018,0.006
		C15.149,23.689,13.597,24,12,24z M8.299,22.356C9.489,22.784,10.733,23,12,23c1.297,0,2.569-0.227,3.784-0.674l-3.497-8.348
		C12.191,13.993,12.094,14,12,14c-0.089,0-0.179-0.007-0.27-0.02L8.299,22.356z M2.062,16.706c1.105,2.327,2.978,4.185,5.312,5.271
		l3.431-8.376c-0.149-0.112-0.282-0.243-0.395-0.392L2.062,16.706z M16.706,21.938c2.327-1.105,4.185-2.978,5.271-5.312L13.6,13.195
		c-0.112,0.149-0.243,0.282-0.391,0.395L16.706,21.938z M1.644,8.299C1.216,9.489,1,10.733,1,12c0,1.297,0.227,2.569,0.674,3.784
		l8.348-3.497C10.007,12.191,10,12.094,10,12c0-0.089,0.006-0.179,0.019-0.27L1.644,8.299z M22.356,15.701
		C22.784,14.511,23,13.267,23,12c0-1.297-0.227-2.569-0.674-3.784l-8.348,3.497C13.993,11.81,14,11.906,14,12
		c0,0.089-0.007,0.179-0.02,0.271L22.356,15.701z M12,11c-0.551,0-1,0.449-1,1c0,0.552,0.449,1,1,1c0.552,0,1-0.448,1-1
		C13,11.449,12.552,11,12,11z M10.4,10.805c0.112-0.149,0.244-0.282,0.392-0.395L7.294,2.062C4.967,3.167,3.109,5.04,2.023,7.374
		L10.4,10.805z M13.195,10.4c0.149,0.111,0.282,0.243,0.395,0.391l8.348-3.497c-1.105-2.327-2.978-4.185-5.312-5.271L13.195,10.4z
		 M11.713,10.022C11.809,10.007,11.905,10,12,10c0.089,0,0.179,0.006,0.271,0.02l3.43-8.376C14.511,1.216,13.267,1,12,1
		c-1.297,0-2.569,0.227-3.784,0.674L11.713,10.022z"/>
</g>
</svg>
