<?xml version="1.0" encoding="utf-8"?>
<!-- Generator: Adobe Illustrator 22.1.0, SVG Export Plug-In . SVG Version: 6.00 Build 0)  -->
<svg version="1.1" id="Layer_1" xmlns="http://www.w3.org/2000/svg" xmlns:xlink="http://www.w3.org/1999/xlink" x="0px" y="0px"
	 viewBox="0 0 24 24" style="enable-background:new 0 0 24 24;" xml:space="preserve">
<g>
	<title>color-picker-5</title>
	<path d="M11.5,20c-0.827,0-1.5-0.673-1.5-1.5v-1.198c-1.235-0.711-1.997-2.019-2-3.451V7H6.5C6.224,7,6,6.776,6,6.5S6.224,6,6.5,6
		H8V4c0-2.206,1.794-4,4-4s4,1.794,4,4v2h1.5C17.776,6,18,6.224,18,6.5S17.776,7,17.5,7H16v6.85c-0.002,1.433-0.765,2.741-2,3.452
		V18.5c0,0.827-0.673,1.5-1.5,1.5H11.5z M9,13.85c0.002,1.148,0.675,2.207,1.714,2.698C10.888,16.63,11,16.807,11,17v1.5
		c0,0.276,0.224,0.5,0.5,0.5h1c0.276,0,0.5-0.224,0.5-0.5V17c0-0.192,0.113-0.37,0.287-0.452c1.039-0.49,1.711-1.55,1.713-2.699V7H9
		V13.85z M15,6V4c0-1.654-1.346-3-3-3c-1.654,0-3,1.346-3,3v2H15z"/>
	<path d="M12,15.5c-1.103,0-2-0.897-2-2v-4C10,8.673,10.673,8,11.5,8h1C13.327,8,14,8.673,14,9.5v4C14,14.603,13.103,15.5,12,15.5z
		 M11.5,9C11.224,9,11,9.224,11,9.5v4c0,0.552,0.449,1,1,1c0.552,0,1-0.448,1-1v-4C13,9.224,12.776,9,12.5,9H11.5z"/>
	<path d="M12,24c-0.827,0-1.5-0.673-1.5-1.5c0-0.049,0.007-0.097,0.021-0.144c0.235-0.776,0.597-1.5,1.076-2.152
		C11.691,20.076,11.841,20,12,20c0.159,0,0.309,0.076,0.403,0.204c0.479,0.652,0.841,1.376,1.075,2.151
		c0.014,0.047,0.021,0.096,0.021,0.145C13.5,23.327,12.827,24,12,24z M11.504,22.563C11.535,22.811,11.746,23,12,23
		s0.465-0.189,0.496-0.437c-0.126-0.397-0.293-0.78-0.496-1.143C11.796,21.783,11.63,22.166,11.504,22.563z"/>
</g>
</svg>
