<?xml version="1.0" encoding="utf-8"?>
<!-- Generator: Adobe Illustrator 22.1.0, SVG Export Plug-In . SVG Version: 6.00 Build 0)  -->
<svg version="1.1" id="Layer_1" xmlns="http://www.w3.org/2000/svg" xmlns:xlink="http://www.w3.org/1999/xlink" x="0px" y="0px"
	 viewBox="0 0 24 24" style="enable-background:new 0 0 24 24;" xml:space="preserve">
<g>
	<title>color-palette-1</title>
	<path d="M12,23.5c-1.379,0-2.5-1.122-2.5-2.5c0-1.199,0.845-2.215,2-2.449V12.5H5.449c-0.234,1.155-1.25,2-2.449,2
		c-1.379,0-2.5-1.122-2.5-2.5c0-1.379,1.121-2.5,2.5-2.5c1.199,0,2.215,0.845,2.449,2H11.5V5.449c-1.155-0.234-2-1.25-2-2.449
		c0-1.379,1.121-2.5,2.5-2.5c1.378,0,2.5,1.121,2.5,2.5c0,1.199-0.845,2.215-2,2.449V11.5h6.051c0.234-1.155,1.25-2,2.449-2
		c1.378,0,2.5,1.121,2.5,2.5c0,1.378-1.122,2.5-2.5,2.5c-1.199,0-2.215-0.845-2.449-2H12.5v6.051c1.155,0.234,2,1.25,2,2.449
		C14.5,22.378,13.378,23.5,12,23.5z M12,19.5c-0.827,0-1.5,0.673-1.5,1.5s0.673,1.5,1.5,1.5s1.5-0.673,1.5-1.5S12.827,19.5,12,19.5z
		 M21,10.5c-0.827,0-1.5,0.673-1.5,1.5s0.673,1.5,1.5,1.5s1.5-0.673,1.5-1.5S21.827,10.5,21,10.5z M3,10.5
		c-0.827,0-1.5,0.673-1.5,1.5s0.673,1.5,1.5,1.5s1.5-0.673,1.5-1.5S3.827,10.5,3,10.5z M12,1.5c-0.827,0-1.5,0.673-1.5,1.5
		s0.673,1.5,1.5,1.5s1.5-0.673,1.5-1.5S12.827,1.5,12,1.5z"/>
	<path d="M18.364,20.864c-1.378,0-2.5-1.122-2.5-2.5c0-0.496,0.143-0.968,0.416-1.377l-2.633-2.633
		c-0.195-0.195-0.195-0.512,0-0.707C13.741,13.552,13.866,13.5,14,13.5s0.259,0.052,0.354,0.146l2.633,2.633
		c0.409-0.272,0.881-0.416,1.377-0.416c1.378,0,2.5,1.122,2.5,2.5S19.742,20.864,18.364,20.864z M18.364,16.864
		c-0.827,0-1.5,0.673-1.5,1.5s0.673,1.5,1.5,1.5s1.5-0.673,1.5-1.5S19.191,16.864,18.364,16.864z"/>
	<path d="M10,10.5c-0.134,0-0.259-0.052-0.354-0.146L7.013,7.72C6.604,7.993,6.132,8.136,5.636,8.136c-1.379,0-2.5-1.121-2.5-2.5
		s1.121-2.5,2.5-2.5s2.5,1.121,2.5,2.5c0,0.496-0.143,0.968-0.416,1.377l2.633,2.633C10.448,9.741,10.5,9.866,10.5,10
		s-0.052,0.259-0.146,0.354S10.134,10.5,10,10.5z M5.636,4.136c-0.827,0-1.5,0.673-1.5,1.5s0.673,1.5,1.5,1.5s1.5-0.673,1.5-1.5
		S6.463,4.136,5.636,4.136z"/>
	<path d="M14,10.5c-0.134,0-0.259-0.052-0.354-0.146c-0.195-0.195-0.195-0.512,0-0.707l2.633-2.633
		c-0.272-0.409-0.416-0.881-0.416-1.377c0-1.379,1.122-2.5,2.5-2.5s2.5,1.121,2.5,2.5s-1.122,2.5-2.5,2.5
		c-0.496,0-0.968-0.143-1.377-0.416l-2.633,2.633C14.259,10.448,14.134,10.5,14,10.5z M18.364,4.136c-0.827,0-1.5,0.673-1.5,1.5
		s0.673,1.5,1.5,1.5s1.5-0.673,1.5-1.5S19.191,4.136,18.364,4.136z"/>
	<path d="M5.636,20.864c-1.379,0-2.5-1.122-2.5-2.5s1.121-2.5,2.5-2.5c0.496,0,0.968,0.143,1.377,0.416l2.633-2.633
		C9.741,13.552,9.866,13.5,10,13.5s0.259,0.052,0.354,0.146S10.5,13.866,10.5,14s-0.052,0.259-0.146,0.354L7.72,16.987
		c0.273,0.409,0.416,0.881,0.416,1.377C8.136,19.742,7.015,20.864,5.636,20.864z M5.636,16.864c-0.827,0-1.5,0.673-1.5,1.5
		s0.673,1.5,1.5,1.5s1.5-0.673,1.5-1.5S6.463,16.864,5.636,16.864z"/>
</g>
</svg>
