<?xml version="1.0" encoding="utf-8"?>
<!-- Generator: Adobe Illustrator 22.1.0, SVG Export Plug-In . SVG Version: 6.00 Build 0)  -->
<svg version="1.1" id="Layer_1" xmlns="http://www.w3.org/2000/svg" xmlns:xlink="http://www.w3.org/1999/xlink" x="0px" y="0px"
	 viewBox="0 0 24 24" style="enable-background:new 0 0 24 24;" xml:space="preserve">
<g>
	<title>color-brush-paint-1</title>
	<path d="M1.501,24.001c-0.827,0-1.5-0.673-1.5-1.5v-8c0-0.827,0.673-1.5,1.5-1.5h6.406c0.537-1.363,1.605-2.467,2.955-3.047
		c0.063-0.027,0.129-0.041,0.197-0.041c0.2,0,0.38,0.119,0.459,0.302c0.109,0.254-0.009,0.548-0.262,0.657
		c-1.205,0.518-2.124,1.531-2.521,2.78c-0.067,0.208-0.258,0.348-0.477,0.348H1.501c-0.276,0-0.5,0.224-0.5,0.5v8
		c0,0.276,0.224,0.5,0.5,0.5H15c0.276,0,0.5-0.224,0.5-0.5v-3.522c0-0.157,0.075-0.307,0.201-0.401
		c0.972-0.728,1.616-1.836,1.767-3.041c0.031-0.25,0.245-0.438,0.498-0.438c0.019,0,0.038,0.001,0.058,0.003
		c0.135,0.017,0.253,0.084,0.335,0.189c0.082,0.105,0.118,0.236,0.102,0.369c-0.173,1.383-0.885,2.674-1.96,3.561v3.279
		c0,0.827-0.673,1.5-1.5,1.5H1.501z"/>
	<path d="M13.035,15.832c-0.593,0-1.2-0.088-1.805-0.262c-0.295-0.084-0.532-0.295-0.651-0.578
		c-0.104-0.248-0.106-0.522-0.004-0.771c0.101-0.249,0.293-0.443,0.541-0.547c0.893-0.379,0.999-0.923,1.191-1.91
		c0.062-0.319,0.132-0.68,0.241-1.069c0.215-0.772,0.719-1.413,1.417-1.807c0.375-0.211,0.781-0.337,1.208-0.374l6.117-7.898
		c0.008-0.012,0.018-0.026,0.028-0.039c0.286-0.379,0.723-0.597,1.199-0.597c0.328,0,0.639,0.104,0.901,0.302
		c0.32,0.241,0.527,0.593,0.583,0.989c0.056,0.397-0.046,0.792-0.288,1.112l-5.411,8.234c0.172,0.551,0.181,1.133,0.024,1.692
		c-0.295,1.048-1.216,2.11-2.404,2.772C15.04,15.572,14.041,15.832,13.035,15.832z M15.434,9.5c-0.34,0-0.678,0.089-0.978,0.258
		c-0.466,0.262-0.801,0.69-0.945,1.205c-0.097,0.35-0.161,0.676-0.223,0.992c-0.206,1.055-0.4,2.052-1.782,2.639
		c0.515,0.162,1.028,0.238,1.528,0.238c0.849,0,1.657-0.21,2.402-0.625c0.949-0.529,1.706-1.38,1.928-2.168
		c0.144-0.514,0.078-1.053-0.184-1.519c-0.262-0.466-0.69-0.801-1.205-0.945C15.798,9.525,15.616,9.5,15.434,9.5z M16.34,8.64
		c0.563,0.177,1.056,0.516,1.425,0.972l5.131-7.805c0.098-0.132,0.134-0.261,0.115-0.397c-0.019-0.133-0.087-0.25-0.194-0.33
		c-0.087-0.065-0.191-0.1-0.3-0.1c-0.159,0-0.305,0.073-0.4,0.199l-0.018,0.026L16.34,8.64z"/>
</g>
</svg>
