<?xml version="1.0" encoding="utf-8"?>
<!-- Generator: Adobe Illustrator 22.1.0, SVG Export Plug-In . SVG Version: 6.00 Build 0)  -->
<svg version="1.1" id="Light" xmlns="http://www.w3.org/2000/svg" xmlns:xlink="http://www.w3.org/1999/xlink" x="0px" y="0px"
	 viewBox="0 0 24 24" style="enable-background:new 0 0 24 24;" xml:space="preserve">
<g>
	<title>olympics-torch</title>
	<path d="M11.504,7.997c-1.654,0-3-1.346-3-3s1.346-3,3-3c1.654,0,3,1.346,3,3S13.158,7.997,11.504,7.997z M11.504,2.997
		c-1.103,0-2,0.897-2,2s0.897,2,2,2s2-0.897,2-2S12.607,2.997,11.504,2.997z"/>
	<path d="M20.002,7c-1.103,0-2-0.897-2-2c0-0.276,0.224-0.5,0.5-0.5s0.5,0.224,0.5,0.5c0,0.551,0.448,1,1,1s1-0.449,1-1
		c0-0.276,0.224-0.5,0.5-0.5s0.5,0.224,0.5,0.5C22.002,6.103,21.105,7,20.002,7z"/>
	<path d="M14.855,24c-0.232,0-0.438-0.165-0.488-0.392l-0.294-1.325c-0.099-0.454-0.506-0.783-0.969-0.783H5.502
		c-1.103,0-2-0.897-2-2s0.897-2,2-2h4V13H7.799c-0.173,0-0.344,0.046-0.494,0.133l-2.811,1.602
		c-0.301,0.171-0.642,0.261-0.987,0.261c-0.72,0-1.388-0.388-1.743-1.011c-0.546-0.959-0.209-2.183,0.75-2.729l2.809-1.6
		c0.754-0.43,1.611-0.658,2.479-0.658h8.58c0.142,0,0.277-0.028,0.404-0.082l2.929-1.256c0.251-0.107,0.515-0.161,0.786-0.161
		c0.804,0,1.527,0.477,1.842,1.214c0.21,0.492,0.217,1.036,0.018,1.532c-0.199,0.496-0.579,0.885-1.071,1.096l-0.786,0.337v3.322
		c0,0.276-0.224,0.5-0.5,0.5s-0.5-0.224-0.5-0.5v-2.893l-1.148,0.492C17.73,12.864,17.068,13,16.388,13h-2.886v4.515
		c2.151,0.17,4.011,1.774,4.476,3.895l0.44,1.981c0.059,0.269-0.111,0.537-0.38,0.596C18.001,23.996,17.966,24,17.931,24
		c-0.237,0-0.438-0.161-0.489-0.392l-0.44-1.983c-0.397-1.811-2.03-3.125-3.884-3.125h-0.116c-0.276,0-0.5-0.224-0.5-0.5v-5.5
		c0-0.276,0.224-0.5,0.5-0.5h3.384c0.546,0,1.075-0.109,1.576-0.323l2.933-1.258c0.508-0.217,0.745-0.807,0.528-1.315
		c-0.158-0.369-0.52-0.608-0.923-0.608c-0.135,0-0.267,0.027-0.392,0.081l-2.929,1.257c-0.253,0.108-0.52,0.162-0.794,0.162H7.802
		c-0.695,0-1.381,0.183-1.984,0.527l-2.809,1.6c-0.48,0.273-0.649,0.886-0.375,1.366c0.178,0.312,0.512,0.506,0.873,0.506
		c0.172,0,0.343-0.045,0.493-0.131l2.809-1.6c0.3-0.173,0.643-0.265,0.99-0.265h2.204c0.276,0,0.5,0.224,0.5,0.5V18
		c0,0.276-0.224,0.5-0.5,0.5h-4.5c-0.551,0-1,0.448-1,1s0.449,1,1,1h7.594c0.938,0,1.756,0.66,1.954,1.569l0.294,1.323
		c0.059,0.269-0.111,0.537-0.38,0.596C14.926,23.996,14.89,24,14.855,24z"/>
	<path d="M21.502,4c-0.275,0-0.499-0.224-0.5-0.498c0-0.06-0.038-1.502-2-1.502c-0.754,0-1.377-0.088-1.859-0.261
		C17.439,2.483,18.168,3,19.002,3c0.276,0,0.5,0.224,0.5,0.5S19.278,4,19.002,4c-1.654,0-3-1.346-3-3V0.5c0-0.276,0.224-0.5,0.5-0.5
		c0.265,0,0.482,0.207,0.499,0.467C17.053,0.617,17.504,1,19.002,1c2.966,0,3,2.475,3,2.5C22.002,3.776,21.778,4,21.502,4z"/>
</g>
</svg>
