<?xml version="1.0" encoding="utf-8"?>
<!-- Generator: Adobe Illustrator 22.1.0, SVG Export Plug-In . SVG Version: 6.00 Build 0)  -->
<svg version="1.1" id="Light" xmlns="http://www.w3.org/2000/svg" xmlns:xlink="http://www.w3.org/1999/xlink" x="0px" y="0px"
	 viewBox="0 0 24 24" style="enable-background:new 0 0 24 24;" xml:space="preserve">
<g>
	<title>paralympics-racing</title>
	<path d="M12,6c-1.654,0-3-1.346-3-3s1.346-3,3-3c1.654,0,3,1.346,3,3S13.655,6,12,6z M12,1c-1.103,0-2,0.897-2,2s0.897,2,2,2
		s2-0.897,2-2S13.103,1,12,1z"/>
	<path d="M9,13.5c-0.276,0-0.5-0.224-0.5-0.5v-2H8.1c-0.565,0-1.116,0.199-1.55,0.562L6.373,11.71
		c-0.089,0.074-0.203,0.115-0.319,0.115c-0.149,0-0.29-0.066-0.385-0.181c-0.176-0.212-0.147-0.528,0.066-0.704l0.177-0.147
		C6.523,10.282,7.301,10,8.1,10h0.4c0.551,0,1,0.449,1,1v2C9.5,13.276,9.276,13.5,9,13.5z"/>
	<path d="M3.002,15.915c-0.056,0-0.112-0.01-0.165-0.028c-0.705-0.249-1.157-0.821-1.307-1.656
		c-0.308-1.709,0.759-4.323,2.282-5.594L3.988,8.49C5.14,7.53,6.601,7.001,8.1,7h7.8c1.5,0.001,2.96,0.53,4.112,1.49l0.177,0.147
		c1.524,1.27,2.59,3.886,2.281,5.597c-0.151,0.833-0.601,1.405-1.303,1.651c-0.053,0.019-0.11,0.029-0.167,0.029
		c-0.211,0-0.401-0.135-0.471-0.334c-0.092-0.26,0.046-0.546,0.305-0.638c0.353-0.124,0.566-0.414,0.651-0.886
		c0.245-1.357-0.697-3.617-1.938-4.652l-0.176-0.147C18.399,8.448,17.166,8.001,15.9,8H8.1C6.834,8.001,5.601,8.448,4.628,9.258
		L4.453,9.405c-1.24,1.035-2.182,3.295-1.938,4.65c0.085,0.473,0.299,0.764,0.654,0.889c0.126,0.044,0.227,0.135,0.285,0.256
		s0.065,0.256,0.02,0.382C3.403,15.781,3.214,15.915,3.002,15.915z"/>
	<path d="M15,13.5c-0.276,0-0.5-0.224-0.5-0.5v-2c0-0.551,0.448-1,1-1h0.4c0.801,0,1.578,0.282,2.191,0.794l0.176,0.146
		c0.212,0.176,0.241,0.492,0.065,0.704c-0.096,0.115-0.236,0.181-0.385,0.181c-0.116,0-0.23-0.041-0.319-0.115l-0.177-0.147
		C17.017,11.2,16.471,11,15.914,11H15.5v2C15.5,13.276,15.276,13.5,15,13.5z"/>
	<path d="M12,24c-1.103,0-2-0.897-2-2v-4.5H7.171l-0.716,2.863c-0.097,0.389-0.34,0.717-0.683,0.923
		c-0.234,0.14-0.5,0.214-0.77,0.214c-0.123,0-0.246-0.015-0.366-0.045c-0.389-0.097-0.716-0.34-0.922-0.683
		s-0.266-0.747-0.169-1.136l1.455-5.821c0.097-0.389,0.34-0.717,0.683-0.923c0.234-0.14,0.5-0.215,0.77-0.215
		c0.123,0,0.246,0.015,0.367,0.046c0.802,0.201,1.292,1.017,1.091,1.819L7.421,16.5H10v-1c0-1.103,0.897-2,2-2s2,0.897,2,2v1h2.578
		l-0.489-1.958c-0.097-0.388-0.037-0.792,0.169-1.135s0.534-0.587,0.923-0.684c0.12-0.03,0.243-0.045,0.366-0.045
		c0.27,0,0.536,0.074,0.77,0.215c0.344,0.206,0.586,0.534,0.683,0.923l1.455,5.821c0.097,0.389,0.037,0.792-0.169,1.136
		s-0.534,0.586-0.923,0.684c-0.121,0.03-0.244,0.045-0.366,0.045c-0.27,0-0.536-0.074-0.77-0.214
		c-0.344-0.206-0.586-0.534-0.684-0.923L16.828,17.5H14V22C14,23.103,13.103,24,12,24z M12,14.5c-0.551,0-1,0.448-1,1V22
		c0,0.552,0.449,1,1,1c0.552,0,1-0.448,1-1v-6.5C13,14.948,12.552,14.5,12,14.5z M17.546,13.678c-0.041,0-0.082,0.005-0.123,0.015
		c-0.129,0.032-0.239,0.114-0.307,0.228c-0.069,0.115-0.089,0.249-0.057,0.379l1.454,5.821c0.032,0.13,0.114,0.239,0.228,0.308
		c0.078,0.047,0.167,0.072,0.256,0.072c0.041,0,0.082-0.005,0.123-0.015c0.13-0.032,0.24-0.114,0.309-0.228s0.089-0.249,0.057-0.379
		l-1.455-5.821c-0.032-0.13-0.113-0.239-0.228-0.308C17.724,13.703,17.636,13.678,17.546,13.678z M6.453,13.678
		c-0.089,0-0.178,0.025-0.256,0.072c-0.115,0.069-0.196,0.178-0.228,0.308l-1.455,5.821c-0.032,0.13-0.012,0.264,0.056,0.379
		s0.178,0.195,0.307,0.228C4.919,20.495,4.96,20.5,5.001,20.5c0.089,0,0.178-0.025,0.256-0.072c0.115-0.069,0.196-0.178,0.228-0.308
		L6.94,14.3c0.067-0.268-0.097-0.54-0.364-0.607C6.535,13.683,6.494,13.678,6.453,13.678z"/>
</g>
</svg>
