<?xml version="1.0" encoding="utf-8"?>
<!-- Generator: Adobe Illustrator 22.1.0, SVG Export Plug-In . SVG Version: 6.00 Build 0)  -->
<svg version="1.1" id="Light" xmlns="http://www.w3.org/2000/svg" xmlns:xlink="http://www.w3.org/1999/xlink" x="0px" y="0px"
	 viewBox="0 0 24 24" style="enable-background:new 0 0 24 24;" xml:space="preserve">
<g>
	<title>paralympics-torch</title>
	<path d="M11.514,24c-1.103,0-2-0.897-2-2v-3H6.561L5.97,21.363c-0.097,0.389-0.34,0.717-0.683,0.923
		c-0.234,0.14-0.5,0.214-0.77,0.214c-0.123,0-0.246-0.015-0.366-0.045c-0.389-0.097-0.716-0.34-0.922-0.683
		s-0.266-0.747-0.169-1.136l1.456-5.821c0.177-0.662,0.771-1.121,1.446-1.121c0.115,0,0.231,0.013,0.344,0.04
		c0.39,0.09,0.722,0.327,0.934,0.667c0.212,0.34,0.279,0.742,0.188,1.132L6.811,18h2.703v-1.5c0-1.103,0.897-2,2-2
		c1.103,0,2,0.897,2,2V18h2.703l-0.614-2.458c-0.097-0.388-0.037-0.792,0.169-1.135s0.534-0.587,0.923-0.684
		c0.12-0.03,0.243-0.045,0.366-0.045c0.27,0,0.536,0.074,0.77,0.215c0.344,0.206,0.586,0.534,0.683,0.923l1.455,5.821
		c0.097,0.388,0.037,0.792-0.17,1.135c-0.206,0.344-0.534,0.587-0.922,0.684c-0.12,0.03-0.242,0.045-0.364,0.045
		c-0.69,0-1.288-0.468-1.456-1.137L16.467,19h-2.953v3C13.514,23.103,12.617,24,11.514,24z M11.514,15.5c-0.551,0-1,0.448-1,1V22
		c0,0.552,0.449,1,1,1c0.552,0,1-0.448,1-1v-5.5C12.514,15.948,12.066,15.5,11.514,15.5z M5.963,14.695
		c-0.224,0-0.421,0.153-0.48,0.371l-1.454,5.813c-0.032,0.13-0.012,0.264,0.056,0.379s0.178,0.195,0.307,0.228
		c0.041,0.01,0.082,0.016,0.123,0.016c0.089,0,0.178-0.025,0.256-0.072C4.887,21.36,4.968,21.25,5,21.121L6.455,15.3
		c0.029-0.123,0.006-0.256-0.065-0.369c-0.071-0.114-0.181-0.192-0.311-0.222C6.04,14.699,6.001,14.695,5.963,14.695z M17.06,14.678
		c-0.041,0-0.082,0.005-0.123,0.015c-0.129,0.032-0.239,0.114-0.307,0.228c-0.069,0.115-0.089,0.249-0.057,0.379l1.455,5.821
		c0.056,0.223,0.256,0.379,0.486,0.379c0.041,0,0.082-0.005,0.122-0.015c0.129-0.032,0.238-0.113,0.307-0.228
		c0.069-0.115,0.089-0.249,0.056-0.379l-1.455-5.821c-0.032-0.13-0.113-0.239-0.228-0.308C17.238,14.703,17.149,14.678,17.06,14.678
		z"/>
	<path d="M21.014,7c-1.103,0-2-0.897-2-2c0-0.276,0.224-0.5,0.5-0.5s0.5,0.224,0.5,0.5c0,0.551,0.448,1,1,1s1-0.449,1-1
		c0-0.276,0.224-0.5,0.5-0.5s0.5,0.224,0.5,0.5C23.014,6.103,22.117,7,21.014,7z"/>
	<path d="M22.514,4c-0.275,0-0.499-0.224-0.5-0.498c0-0.06-0.038-1.502-2-1.502c-0.723,0-1.325-0.081-1.798-0.24
		C18.517,2.564,19.141,3,20.014,3c0.276,0,0.5,0.224,0.5,0.5S20.29,4,20.014,4c-1.45,0-3-0.919-3-3.5c0-0.276,0.224-0.5,0.5-0.5
		c0.265,0,0.482,0.207,0.499,0.467C18.065,0.617,18.516,1,20.014,1c2.966,0,3,2.475,3,2.5C23.014,3.776,22.79,4,22.514,4z"/>
	<path d="M11.514,7c-1.654,0-3-1.346-3-3s1.346-3,3-3s3,1.346,3,3S13.168,7,11.514,7z M11.514,2c-1.103,0-2,0.897-2,2s0.897,2,2,2
		c1.103,0,2-0.897,2-2S12.617,2,11.514,2z"/>
	<path d="M8.514,14.5c-0.276,0-0.5-0.224-0.5-0.5v-2h-0.4c-0.566,0-1.117,0.199-1.551,0.562L5.886,12.71
		c-0.089,0.074-0.203,0.115-0.319,0.115c-0.149,0-0.29-0.066-0.385-0.181c-0.176-0.212-0.147-0.528,0.065-0.704l0.177-0.147
		C6.036,11.282,6.814,11,7.613,11h0.401c0.551,0,1,0.449,1,1v2C9.014,14.276,8.79,14.5,8.514,14.5z"/>
	<path d="M2.514,16.914c-0.13,0-0.252-0.049-0.346-0.139c-0.809-0.774-1.217-1.761-1.179-2.855c0.051-1.483,0.946-3.124,2.337-4.284
		L3.501,9.49C4.655,8.53,6.116,8,7.616,8h6.9c1.433,0,2.859,0.189,4.242,0.562c0.205-0.366,0.521-0.659,0.906-0.836
		c0.266-0.123,0.547-0.185,0.836-0.185c0.236,0,0.469,0.042,0.693,0.125c0.987,0.364,1.525,1.439,1.225,2.447
		c-0.225,0.677-0.521,1.198-0.904,1.592V15c0,0.276-0.224,0.5-0.5,0.5s-0.5-0.224-0.5-0.5v-2.635
		c-0.396,0.152-0.847,0.227-1.368,0.227c-0.74,0-1.524-0.149-2.283-0.292c-0.611-0.116-1.243-0.236-1.846-0.282L15.016,14
		c0,0.276-0.224,0.5-0.5,0.5s-0.5-0.224-0.5-0.5v-1.982c0-0.026,0.001-0.051,0.003-0.077c0.04-0.519,0.48-0.924,1-0.924
		c0.024,0,0.049,0.001,0.073,0.003c0.659,0.051,1.318,0.176,1.956,0.297c0.773,0.147,1.501,0.285,2.125,0.285
		c1.205,0,1.868-0.518,2.29-1.788c0.146-0.492-0.124-1.027-0.617-1.209c-0.113-0.041-0.229-0.062-0.347-0.062
		c-0.144,0-0.284,0.031-0.417,0.093c-0.243,0.112-0.427,0.311-0.52,0.562c-0.093,0.258-0.341,0.432-0.616,0.432
		c-0.053,0-0.106-0.006-0.157-0.019C17.39,9.204,15.956,9,14.516,9h-6.9c-1.267,0-2.501,0.447-3.474,1.258l-0.175,0.147
		c-1.179,0.983-1.937,2.343-1.979,3.55c-0.028,0.812,0.265,1.518,0.871,2.098c0.199,0.191,0.206,0.508,0.016,0.707
		C2.781,16.858,2.65,16.914,2.514,16.914z"/>
</g>
</svg>
