<?xml version="1.0" encoding="utf-8"?>
<!-- Generator: Adobe Illustrator 22.1.0, SVG Export Plug-In . SVG Version: 6.00 Build 0)  -->
<svg version="1.1" id="Light" xmlns="http://www.w3.org/2000/svg" xmlns:xlink="http://www.w3.org/1999/xlink" x="0px" y="0px"
	 viewBox="0 0 24 24" style="enable-background:new 0 0 24 24;" xml:space="preserve">
<g>
	<title>paralympics-race</title>
	<path d="M15,6.25c-1.654,0-3-1.346-3-3s1.346-3,3-3s3,1.346,3,3S16.655,6.25,15,6.25z M15,1.25c-1.103,0-2,0.897-2,2s0.897,2,2,2
		s2-0.897,2-2S16.103,1.25,15,1.25z"/>
	<path d="M20.994,17.751c-0.121,0-0.241-0.011-0.36-0.033c-0.527-0.098-0.983-0.394-1.285-0.835
		c-0.302-0.44-0.415-0.972-0.317-1.497l0.933-4.986c0.009-0.047,0.02-0.092,0.031-0.135l-1.667,0.441l0.089,0.451
		c0.026,0.131,0,0.264-0.074,0.375c-0.074,0.111-0.187,0.187-0.318,0.213c-0.033,0.007-0.066,0.01-0.099,0.01
		c-0.237,0-0.443-0.169-0.489-0.402l-0.09-0.451c-0.103-0.518,0.216-1.028,0.726-1.162l1.774-0.469
		c0.023-0.006,0.047-0.011,0.071-0.013c0.037-0.004,0.071-0.006,0.105-0.006c0.29,0,0.559,0.13,0.739,0.357
		c0.208,0.229,0.289,0.581,0.202,0.904c-0.005,0.019-0.012,0.046-0.017,0.074l-0.932,4.983c-0.049,0.263,0.007,0.529,0.158,0.749
		c0.151,0.22,0.379,0.368,0.642,0.417c0.06,0.011,0.122,0.017,0.182,0.017c0,0,0.004,0,0.005,0c0.482,0,0.896-0.343,0.984-0.816
		l0.924-4.936c0.101-0.41,0.12-0.811,0.059-1.205c-0.223-1.45-1.498-2.543-2.965-2.543c-0.152,0-0.305,0.012-0.457,0.035
		c-0.036,0.005-0.069,0.012-0.102,0.021l-3.701,0.977c-0.512,0.135-0.831,0.647-0.726,1.166l0.541,2.702
		c0.026,0.131,0,0.264-0.074,0.375c-0.074,0.111-0.187,0.187-0.318,0.213c-0.032,0.007-0.066,0.01-0.099,0.01
		c-0.237,0-0.443-0.169-0.489-0.403l-0.541-2.7c-0.211-1.037,0.427-2.061,1.451-2.331l3.7-0.977c0.067-0.018,0.138-0.033,0.21-0.043
		c0.2-0.031,0.405-0.047,0.608-0.047c1.954,0,3.653,1.458,3.95,3.392c0.081,0.526,0.057,1.054-0.071,1.569l-0.918,4.908
		c-0.177,0.946-1.004,1.632-1.966,1.632C21,17.751,20.997,17.751,20.994,17.751z"/>
	<path d="M3.5,23.75c-1.93,0-3.5-1.57-3.5-3.5s1.57-3.5,3.5-3.5c1.261,0,2.401,0.665,3.027,1.751l1.787-0.715
		c0.06-0.024,0.122-0.036,0.186-0.036h4.528c0.219-2.41,1.987-4.403,4.372-4.89c0.034-0.007,0.067-0.01,0.1-0.01
		c0.236,0,0.442,0.168,0.49,0.4c0.055,0.27-0.12,0.535-0.39,0.59c-1.918,0.392-3.353,1.98-3.568,3.91H18.5
		c0.276,0,0.5,0.224,0.5,0.5s-0.224,0.5-0.5,0.5h-4.467c0.112,1.015,0.562,1.958,1.284,2.68c0.85,0.85,1.98,1.318,3.182,1.319
		c2.482,0,4.5-2.018,4.501-4.499c0-0.276,0.224-0.5,0.5-0.5s0.5,0.224,0.5,0.5c-0.001,3.032-2.468,5.499-5.5,5.499
		c-1.47,0-2.851-0.573-3.89-1.612c-0.91-0.91-1.466-2.105-1.581-3.387H8.597l-1.694,0.678C6.968,19.696,7,19.972,7,20.25
		C7,22.18,5.43,23.75,3.5,23.75z M3.5,17.75c-1.379,0-2.5,1.122-2.5,2.5s1.121,2.5,2.5,2.5S6,21.628,6,20.25
		c0-0.149-0.014-0.298-0.041-0.445l-2.274,0.909C3.627,20.738,3.564,20.75,3.5,20.75c-0.206,0-0.388-0.123-0.464-0.314
		c-0.05-0.124-0.048-0.26,0.005-0.383s0.15-0.218,0.274-0.267l2.272-0.909C5.125,18.176,4.349,17.75,3.5,17.75z"/>
</g>
</svg>
