<?xml version="1.0" encoding="utf-8"?>
<!-- Generator: Adobe Illustrator 22.1.0, SVG Export Plug-In . SVG Version: 6.00 Build 0)  -->
<svg version="1.1" id="Light" xmlns="http://www.w3.org/2000/svg" xmlns:xlink="http://www.w3.org/1999/xlink" x="0px" y="0px"
	 viewBox="0 0 24 24" style="enable-background:new 0 0 24 24;" xml:space="preserve">
<g>
	<title>paralympics-swimming</title>
	<path d="M1.186,19.627c-0.263,0-0.527-0.028-0.784-0.082c-0.27-0.058-0.442-0.324-0.385-0.593c0.049-0.229,0.255-0.396,0.489-0.396
		c0.034,0,0.069,0.004,0.103,0.011c0.187,0.04,0.377,0.06,0.568,0.06c0,0,0,0,0,0c1.863,0,3.375-1.881,3.39-1.9
		c0.095-0.12,0.239-0.191,0.387-0.191c0.006,0,0.029,0.001,0.036,0.001c0.151,0.006,0.299,0.089,0.387,0.223
		c0.718,1.085,1.923,1.77,3.222,1.833c1.363-0.07,2.649-0.748,3.505-1.861c0.095-0.123,0.242-0.196,0.395-0.196
		c0.009,0,0.041,0.002,0.049,0.002c0.168,0.015,0.317,0.115,0.396,0.267c0.562,1.08,1.668,1.764,2.885,1.787
		c1.294-0.031,2.49-0.712,3.188-1.822c0.092-0.146,0.25-0.234,0.423-0.234c0.173,0,0.332,0.088,0.424,0.234
		c0.011,0.017,1.178,1.815,2.964,1.815c0.188,0,0.38-0.02,0.57-0.06c0.033-0.007,0.068-0.011,0.104-0.011
		c0.234,0,0.439,0.167,0.488,0.398c0.027,0.13,0.002,0.264-0.071,0.376c-0.073,0.112-0.186,0.188-0.316,0.216
		c-0.266,0.056-0.535,0.084-0.798,0.084c0,0,0,0,0,0c-1.619,0-2.788-1.061-3.356-1.718c-0.904,1.065-2.204,1.688-3.616,1.722
		c-1.354-0.025-2.598-0.663-3.395-1.722c-1.01,1.027-2.391,1.65-3.836,1.722c-1.444-0.067-2.76-0.709-3.674-1.773
		C4.26,18.49,2.882,19.627,1.186,19.627z"/>
	<path d="M1.186,15.627c-0.263,0-0.527-0.028-0.784-0.082c-0.27-0.058-0.442-0.324-0.385-0.593c0.049-0.229,0.255-0.396,0.49-0.396
		c0.034,0,0.068,0.003,0.102,0.01c0.187,0.04,0.378,0.06,0.568,0.06c0,0,0,0,0,0c1.864,0,3.376-1.881,3.391-1.9
		c0.095-0.12,0.239-0.191,0.386-0.191c0.007,0,0.03,0.001,0.037,0.001c0.15,0.006,0.298,0.089,0.387,0.223
		c0.718,1.085,1.923,1.77,3.222,1.833c1.363-0.07,2.649-0.748,3.505-1.861c0.095-0.123,0.242-0.196,0.395-0.196
		c0.008,0,0.04,0.002,0.048,0.002c0.169,0.015,0.318,0.115,0.397,0.267c0.562,1.08,1.668,1.764,2.885,1.787
		c1.294-0.031,2.49-0.712,3.188-1.822c0.092-0.146,0.25-0.234,0.423-0.234c0.173,0,0.332,0.088,0.424,0.234
		c0.011,0.017,1.178,1.815,2.963,1.815c0.189,0,0.381-0.02,0.571-0.06c0.033-0.007,0.068-0.011,0.104-0.011
		c0.235,0,0.44,0.167,0.488,0.398c0.027,0.13,0.002,0.264-0.071,0.376c-0.073,0.112-0.186,0.188-0.316,0.216
		c-0.266,0.056-0.535,0.084-0.798,0.084c-1.619,0-2.788-1.061-3.356-1.718c-0.904,1.065-2.204,1.688-3.616,1.722
		c-1.354-0.025-2.598-0.663-3.395-1.722c-1.01,1.027-2.391,1.65-3.836,1.722c-1.444-0.067-2.76-0.709-3.674-1.773
		C4.26,14.49,2.882,15.627,1.186,15.627z"/>
	<path d="M18.501,10.376c-1.654,0-3-1.346-3-3s1.346-3,3-3s3,1.346,3,3S20.156,10.376,18.501,10.376z M18.501,5.376
		c-1.103,0-2,0.897-2,2s0.897,2,2,2s2-0.897,2-2S19.604,5.376,18.501,5.376z"/>
	<path d="M16.101,11.833c-0.17,0-0.327-0.085-0.42-0.228l-3.7-5.712c-0.178-0.249-0.479-0.403-0.798-0.403
		c-0.177,0-0.352,0.048-0.507,0.138c-0.476,0.277-0.639,0.891-0.361,1.367l0.245,0.382c0.024,0.036,0.046,0.077,0.066,0.12
		c0.113,0.242,0.124,0.514,0.033,0.765s-0.276,0.451-0.518,0.564L4.211,11.58C4.145,11.611,4.074,11.627,4,11.627l0,0
		c-0.194,0-0.372-0.114-0.453-0.289c-0.056-0.121-0.062-0.257-0.016-0.382c0.046-0.125,0.138-0.226,0.259-0.282l5.929-2.755
		L9.461,7.516C9.183,7.04,9.109,6.498,9.245,5.981s0.466-0.949,0.928-1.218c0.308-0.179,0.657-0.274,1.009-0.274
		c0.642,0,1.25,0.315,1.626,0.842l3.712,5.731c0.073,0.112,0.097,0.245,0.07,0.376c-0.028,0.13-0.105,0.242-0.217,0.315
		C16.291,11.806,16.197,11.833,16.101,11.833z"/>
</g>
</svg>
