<?xml version="1.0" encoding="utf-8"?>
<!-- Generator: Adobe Illustrator 22.1.0, SVG Export Plug-In . SVG Version: 6.00 Build 0)  -->
<svg version="1.1" id="Light" xmlns="http://www.w3.org/2000/svg" xmlns:xlink="http://www.w3.org/1999/xlink" x="0px" y="0px"
	 viewBox="0 0 24 24" style="enable-background:new 0 0 24 24;" xml:space="preserve">
<g>
	<title>paralympics-football</title>
	<path d="M18.619,24.004c-0.961,0-1.8-0.649-2.041-1.579l-0.979-3.801c-0.002-0.01-0.005-0.021-0.006-0.032
		c-0.078-0.396-0.362-0.699-0.741-0.795l-0.921-0.229c-0.198-0.05-0.402-0.075-0.606-0.075c-0.244,0-0.486,0.035-0.719,0.106
		l-2.546,0.764c-0.465,0.139-0.947,0.209-1.434,0.209c-0.909,0-1.799-0.246-2.575-0.711l-1.364-0.818
		c-0.458-0.275-0.782-0.711-0.911-1.23c-0.13-0.518-0.05-1.056,0.225-1.514c0.359-0.599,1.018-0.971,1.718-0.971
		c0.361,0,0.716,0.098,1.026,0.285l1.364,0.818c0.154,0.092,0.333,0.14,0.516,0.14c0.097,0,0.193-0.014,0.286-0.041l1.964-0.59
		L10.414,11H8.035c-0.312,0.001-0.612,0.151-0.801,0.401c-0.014,0.018-0.029,0.036-0.045,0.052L6.911,11.73
		c-0.381,0.489-0.956,0.769-1.579,0.769c-0.435,0-0.85-0.138-1.198-0.399c-0.882-0.662-1.062-1.918-0.4-2.8
		C4.715,7.922,6.317,7.061,8.017,7c0,0,7.518,0,7.518,0c0.421,0,0.777-0.246,0.928-0.626c0,0,0.256-0.641,0.257-0.642
		c0.309-0.755,1.037-1.242,1.853-1.242c0.26,0,0.514,0.05,0.756,0.149c0.494,0.202,0.881,0.585,1.087,1.078s0.208,1.036,0.006,1.531
		l-0.245,0.611C19.421,9.766,17.604,11,15.55,11h-1.047l0.412,2.688l0.908,0.228c1.898,0.479,3.352,2.032,3.703,3.958
		c0.212,0.815-0.244,1.662-1.064,1.953l-0.361,0.128c-0.053,0.018-0.102,0.033-0.152,0.046c-0.161,0.042-0.326,0.063-0.49,0.063
		c-0.159,0-0.318-0.02-0.472-0.06l0.56,2.171c0.074,0.286,0.255,0.526,0.51,0.677c0.171,0.1,0.365,0.153,0.56,0.153
		c0.094,0,0.188-0.012,0.28-0.036l0.022-0.006c0.366-0.095,0.656-0.361,0.777-0.712c0.07-0.201,0.26-0.336,0.473-0.336
		c0.055,0,0.11,0.009,0.163,0.027c0.261,0.091,0.4,0.376,0.31,0.636c-0.232,0.668-0.779,1.173-1.463,1.35l-0.019,0.006
		C18.975,23.982,18.797,24.004,18.619,24.004z M13.324,16.493c0.285,0,0.571,0.035,0.849,0.105l0.922,0.229
		c0.76,0.191,1.342,0.812,1.482,1.583c0.1,0.377,0.465,0.653,0.884,0.653c0.079,0,0.158-0.01,0.235-0.031
		c0.025-0.006,0.049-0.014,0.073-0.022l0.358-0.127c0.329-0.116,0.51-0.458,0.423-0.796c-0.288-1.57-1.452-2.82-2.971-3.203
		l-1.229-0.308c-0.196-0.049-0.342-0.21-0.373-0.409l-0.551-3.592c-0.022-0.145,0.02-0.291,0.115-0.402
		C13.636,10.063,13.775,10,13.92,10h1.614c1.657,0,3.109-0.986,3.713-2.512l0.247-0.616c0.102-0.25,0.101-0.522-0.002-0.769
		c-0.103-0.246-0.296-0.438-0.543-0.539c-0.121-0.049-0.248-0.075-0.377-0.075c-0.409,0-0.772,0.244-0.927,0.621l-0.253,0.633
		C17.089,7.506,16.363,8,15.541,8H8.035c-1.376,0.05-2.686,0.756-3.493,1.89c-0.336,0.449-0.248,1.079,0.193,1.41
		c0.174,0.13,0.381,0.199,0.599,0.199c0.319,0,0.611-0.146,0.801-0.4c0.015-0.02,0.031-0.038,0.048-0.055l0.276-0.276
		c0.377-0.48,0.964-0.767,1.575-0.769h2.809c0.248,0,0.456,0.178,0.494,0.423l0.594,3.794c0.039,0.245-0.112,0.485-0.35,0.556
		l-2.384,0.716c-0.186,0.055-0.377,0.083-0.571,0.083c-0.362,0-0.718-0.097-1.028-0.282L6.23,14.47
		c-0.155-0.093-0.332-0.142-0.512-0.142c-0.351,0-0.68,0.186-0.86,0.486c-0.137,0.229-0.177,0.498-0.112,0.757
		c0.065,0.259,0.227,0.477,0.456,0.615l1.363,0.818c0.621,0.372,1.333,0.568,2.06,0.568c0.389,0,0.775-0.056,1.147-0.168
		l2.546-0.764C12.645,16.543,12.983,16.493,13.324,16.493z"/>
	<path d="M12.534,6c-1.654,0-3-1.346-3-3s1.346-3,3-3c1.654,0,3,1.346,3,3S14.189,6,12.534,6z M12.534,1c-1.103,0-2,0.897-2,2
		s0.897,2,2,2s2-0.897,2-2S13.637,1,12.534,1z"/>
	<path d="M11.834,24c-1.379,0-2.5-1.122-2.5-2.5s1.121-2.5,2.5-2.5c1.378,0,2.5,1.122,2.5,2.5S13.213,24,11.834,24z M11.834,20
		c-0.827,0-1.5,0.673-1.5,1.5s0.673,1.5,1.5,1.5s1.5-0.673,1.5-1.5S12.662,20,11.834,20z"/>
</g>
</svg>
