<?xml version="1.0" encoding="utf-8"?>
<!-- Generator: Adobe Illustrator 22.1.0, SVG Export Plug-In . SVG Version: 6.00 Build 0)  -->
<svg version="1.1" id="Light" xmlns="http://www.w3.org/2000/svg" xmlns:xlink="http://www.w3.org/1999/xlink" x="0px" y="0px"
	 viewBox="0 0 24 24" style="enable-background:new 0 0 24 24;" xml:space="preserve">
<g>
	<title>paralympics-ball</title>
	<path d="M6.999,6.998c-1.654,0-3-1.346-3-3s1.346-3,3-3s3,1.346,3,3S8.654,6.998,6.999,6.998z M6.999,1.998c-1.103,0-2,0.897-2,2
		s0.897,2,2,2s2-0.897,2-2S8.102,1.998,6.999,1.998z"/>
	<path d="M15.111,22.997c-0.151,0-0.302-0.017-0.45-0.051c-0.521-0.119-0.964-0.435-1.248-0.887l-1.913-3.061l-4.5,0.001
		c-1.103,0-2-0.897-2-2v-7c0-1.103,0.897-2,2-2h3.52c0.401,0,0.763-0.238,0.92-0.607l0.72-1.682C12.475,4.972,13.198,4.496,14,4.496
		c0.271,0,0.536,0.055,0.787,0.162c1.013,0.435,1.484,1.613,1.05,2.627l-0.721,1.682c-0.787,1.841-2.589,3.031-4.592,3.031H8.999v3
		h2.5c1.397,0,2.659,0.701,3.391,1.874l1.912,3.06c0.284,0.452,0.375,0.989,0.255,1.51c-0.119,0.521-0.435,0.964-0.887,1.248
		C15.852,22.891,15.485,22.997,15.111,22.997z M6.999,8.998c-0.551,0-1,0.449-1,1v7c0,0.552,0.449,1,1,1h4.5
		c0.346,0.002,0.662,0.176,0.846,0.466l1.915,3.064c0.142,0.226,0.364,0.384,0.624,0.443c0.075,0.017,0.151,0.026,0.227,0.026
		c0.186,0,0.369-0.053,0.529-0.153c0.226-0.142,0.384-0.364,0.444-0.625c0.06-0.26,0.014-0.529-0.128-0.755l-1.913-3.062
		c-0.549-0.879-1.495-1.404-2.53-1.404H8.999c-0.551,0-1-0.448-1-1v-3.5c0-0.276,0.224-0.5,0.5-0.5h2.02
		c1.606,0,3.048-0.952,3.677-2.425l0.721-1.682c0.217-0.507-0.018-1.097-0.525-1.314C14.268,5.523,14.136,5.496,14,5.496
		c-0.402,0-0.764,0.238-0.922,0.606l-0.72,1.682c-0.315,0.738-1.037,1.214-1.839,1.214H6.999z"/>
	<path d="M5.493,23.996c-0.758,0-1.496-0.155-2.195-0.46c-1.344-0.587-2.38-1.665-2.917-3.034c-0.536-1.369-0.509-2.864,0.079-4.208
		c0.557-1.274,1.565-2.282,2.839-2.838c0.063-0.028,0.131-0.042,0.2-0.042c0.199,0,0.379,0.118,0.458,0.3
		c0.053,0.122,0.056,0.258,0.007,0.383c-0.049,0.125-0.143,0.222-0.266,0.276c-1.042,0.455-1.867,1.28-2.322,2.322
		c-0.994,2.274,0.048,4.932,2.322,5.926c0.571,0.25,1.175,0.376,1.794,0.376c0,0,0,0,0,0c1.793,0,3.414-1.059,4.13-2.698
		c0.08-0.182,0.26-0.3,0.458-0.3c0.07,0,0.138,0.014,0.202,0.043c0.121,0.053,0.215,0.151,0.264,0.275
		c0.049,0.124,0.046,0.26-0.007,0.383C9.665,22.702,7.684,23.996,5.493,23.996z"/>
	<path d="M20.499,6.998c-1.93,0-3.5-1.57-3.5-3.5s1.57-3.5,3.5-3.5s3.5,1.57,3.5,3.5S22.429,6.998,20.499,6.998z M20.499,0.998
		c-1.378,0-2.5,1.121-2.5,2.5s1.122,2.5,2.5,2.5s2.5-1.121,2.5-2.5S21.878,0.998,20.499,0.998z"/>
</g>
</svg>
