<?xml version="1.0" encoding="utf-8"?>
<!-- Generator: Adobe Illustrator 22.1.0, SVG Export Plug-In . SVG Version: 6.00 Build 0)  -->
<svg version="1.1" id="Light" xmlns="http://www.w3.org/2000/svg" xmlns:xlink="http://www.w3.org/1999/xlink" x="0px" y="0px"
	 viewBox="0 0 24 24" style="enable-background:new 0 0 24 24;" xml:space="preserve">
<g>
	<title>paralympics-fencing</title>
	<path d="M10.499,6.5c-1.654,0-3-1.346-3-3s1.346-3,3-3s3,1.346,3,3S12.154,6.5,10.499,6.5z M10.499,1.5c-1.103,0-2,0.897-2,2
		s0.897,2,2,2s2-0.897,2-2S11.602,1.5,10.499,1.5z"/>
	<path d="M5.493,23.498c-0.758,0-1.496-0.155-2.195-0.46c-1.344-0.587-2.38-1.665-2.917-3.034c-0.536-1.369-0.509-2.864,0.079-4.208
		c0.557-1.274,1.565-2.282,2.839-2.838c0.063-0.028,0.131-0.042,0.2-0.042c0.199,0,0.379,0.118,0.458,0.3
		c0.053,0.122,0.056,0.258,0.007,0.383c-0.049,0.125-0.143,0.222-0.266,0.276c-1.042,0.455-1.867,1.28-2.322,2.322
		c-0.994,2.274,0.048,4.932,2.322,5.926c0.571,0.25,1.175,0.376,1.794,0.376c0,0,0,0,0,0c1.793,0,3.415-1.059,4.131-2.698
		c0.08-0.182,0.26-0.3,0.458-0.3c0.07,0,0.137,0.014,0.201,0.043c0.121,0.053,0.215,0.151,0.264,0.275
		c0.049,0.124,0.046,0.26-0.007,0.383C9.665,22.204,7.684,23.498,5.493,23.498z"/>
	<path d="M13.499,23.5c-1.103,0-2-0.897-2-2v-3h-5.5c-1.104,0-2.001-0.896-2.003-1.996c-0.001-0.289,0.063-0.581,0.185-0.844l3-6.5
		c0.286-0.619,0.859-1.045,1.534-1.142l5.214-0.745c0.023-0.004,0.048-0.005,0.073-0.005c0.246,0,0.458,0.185,0.493,0.429
		c0.019,0.132-0.015,0.264-0.095,0.371c-0.08,0.107-0.197,0.176-0.329,0.195L8.856,9.009C8.519,9.057,8.232,9.271,8.089,9.58l-3,6.5
		c-0.061,0.132-0.093,0.277-0.093,0.422c0.001,0.551,0.45,0.998,1,0.998h5.503c0.551,0,1,0.448,1,1v3c0,0.552,0.448,1,1,1
		s1-0.448,1-1v-3c0-1.654-1.346-3-3-3H9.124c-0.145,0-0.29-0.032-0.421-0.093c-0.242-0.112-0.426-0.312-0.518-0.563
		s-0.081-0.522,0.031-0.765l1.348-2.92c0.072-0.155,0.215-0.261,0.384-0.286l4.481-0.639c0.023-0.004,0.048-0.005,0.072-0.005
		c0.246,0,0.458,0.185,0.494,0.43c0.019,0.132-0.015,0.264-0.095,0.371s-0.197,0.176-0.329,0.195l-4.211,0.601L9.124,14.5l2.375,0
		c2.206,0,4,1.794,4,4v3C15.499,22.603,14.602,23.5,13.499,23.5z"/>
	<path d="M16.72,11.995c-0.244,0-0.451-0.174-0.492-0.415l-0.873-5.049c-0.047-0.27,0.135-0.529,0.405-0.577
		c0.178-0.032,0.36-0.048,0.54-0.048c1.307,0,2.464,0.834,2.888,2.055l4.227-0.731c0.029-0.005,0.057-0.007,0.084-0.007
		c0.244,0,0.452,0.174,0.493,0.415c0.047,0.272-0.136,0.531-0.407,0.578l-4.225,0.73c0.015,1.487-1.035,2.77-2.522,3.036
		l-0.033,0.006C16.775,11.993,16.747,11.995,16.72,11.995z M17.118,10.86c0.828-0.359,1.339-1.235,1.223-2.151
		c-0.01-0.025-0.021-0.055-0.027-0.092c-0.006-0.035-0.006-0.067-0.004-0.091c-0.197-0.898-0.969-1.557-1.875-1.617L17.118,10.86z"
		/>
</g>
</svg>
