<?xml version="1.0" encoding="utf-8"?>
<!-- Generator: Adobe Illustrator 22.1.0, SVG Export Plug-In . SVG Version: 6.00 Build 0)  -->
<svg version="1.1" id="Light" xmlns="http://www.w3.org/2000/svg" xmlns:xlink="http://www.w3.org/1999/xlink" x="0px" y="0px"
	 viewBox="0 0 24 24" style="enable-background:new 0 0 24 24;" xml:space="preserve">
<g>
	<title>paralympics-flag</title>
	<path d="M7.898,6.927c-1.654,0-3-1.346-3-3s1.346-3,3-3s3,1.346,3,3S9.552,6.927,7.898,6.927z M7.898,1.927c-1.103,0-2,0.897-2,2
		s0.897,2,2,2s2-0.897,2-2S9.001,1.927,7.898,1.927z"/>
	<path d="M6.392,23.926c-0.758,0-1.496-0.155-2.195-0.46c-2.779-1.214-4.052-4.463-2.837-7.242c0.557-1.275,1.567-2.283,2.843-2.84
		c0.064-0.028,0.131-0.042,0.199-0.042c0.199,0,0.379,0.118,0.459,0.3c0.053,0.122,0.056,0.258,0.007,0.383
		c-0.049,0.124-0.143,0.222-0.266,0.276c-1.044,0.455-1.87,1.28-2.326,2.323c-0.994,2.274,0.048,4.932,2.321,5.926
		c0.572,0.25,1.175,0.376,1.795,0.376c1.793,0,3.415-1.059,4.131-2.698c0.08-0.182,0.26-0.3,0.458-0.3
		c0.069,0,0.137,0.014,0.201,0.042c0.122,0.053,0.216,0.151,0.265,0.275c0.049,0.125,0.046,0.26-0.007,0.383
		C10.564,22.632,8.582,23.926,6.392,23.926z"/>
	<path d="M15.987,22.919c-0.672,0-1.303-0.349-1.671-0.933l-1.914-3.062l-4.5,0.001c-1.103,0-2-0.897-2-2v-7c0-1.103,0.897-2,2-2
		h3.521c0.401,0,0.762-0.238,0.92-0.606l0.716-1.681c0.315-0.736,1.038-1.212,1.84-1.212c0.033,0,0.065,0.001,0.098,0.002
		l0.255-1.149c0.003-0.024,0.009-0.048,0.016-0.072l0.566-2.551c0.043-0.195,0.16-0.362,0.328-0.47
		c0.121-0.077,0.261-0.118,0.404-0.118c0.054,0,0.108,0.006,0.162,0.017c0.079,0.017,0.154,0.047,0.223,0.089l1.025,0.615
		c0.279,0.167,0.598,0.255,0.922,0.255s0.643-0.088,0.922-0.255c0.436-0.262,0.933-0.4,1.436-0.4c0.532,0,1.053,0.154,1.506,0.444
		c0.252,0.164,0.384,0.459,0.336,0.754l-0.401,2.338c-0.063,0.361-0.374,0.623-0.74,0.623l0,0c-0.042,0-0.084-0.004-0.127-0.011
		c-0.059-0.011-0.115-0.027-0.167-0.05c-0.243-0.105-0.5-0.158-0.765-0.158c-0.351,0-0.694,0.095-0.993,0.275
		c-0.456,0.274-0.977,0.419-1.507,0.419s-1.052-0.145-1.508-0.419l-0.802-0.472l-0.132,0.597c0.83,0.516,1.174,1.568,0.782,2.484
		l-0.721,1.682c-0.787,1.841-2.589,3.031-4.591,3.031H9.902v3h2.5c1.393,0,2.657,0.703,3.389,1.881l1.912,3.06
		c0.583,0.935,0.298,2.171-0.636,2.755c0,0-0.003,0.002-0.004,0.003c-0.312,0.193-0.67,0.295-1.037,0.295l-0.014,0
		C16.007,22.92,15.987,22.919,15.987,22.919z M7.902,8.925c-0.551,0-1,0.449-1,1v7c0,0.552,0.449,1,1,1h4.5
		c0.345,0.002,0.661,0.176,0.846,0.465l1.915,3.064c0.184,0.291,0.5,0.465,0.845,0.465c0.196,0,0.376-0.051,0.53-0.146
		c0.466-0.292,0.609-0.91,0.317-1.377l-1.913-3.061c-0.549-0.883-1.495-1.41-2.533-1.41H9.902c-0.551,0-1-0.448-1-1v-3.5
		c0-0.276,0.224-0.5,0.5-0.5h2.021c1.601,0,3.043-0.952,3.672-2.425l0.722-1.682c0.217-0.507-0.019-1.096-0.526-1.313
		c-0.125-0.053-0.257-0.08-0.392-0.08c-0.402,0-0.764,0.238-0.922,0.606l-0.716,1.681c-0.316,0.737-1.037,1.213-1.839,1.213H7.902z
		 M17.399,3.745c0.304,0.182,0.648,0.278,0.997,0.278c0.349,0,0.692-0.095,0.992-0.276c0.455-0.273,0.976-0.417,1.509-0.417
		c0.296,0,0.585,0.043,0.864,0.13l0.32-1.867c-0.256-0.134-0.539-0.204-0.826-0.204c-0.322,0-0.641,0.089-0.922,0.257
		c-0.435,0.261-0.931,0.398-1.436,0.398s-1.001-0.138-1.436-0.398l-0.727-0.436l-0.42,1.895L17.399,3.745z"/>
</g>
</svg>
