<?xml version="1.0" encoding="utf-8"?>
<!-- Generator: Adobe Illustrator 22.1.0, SVG Export Plug-In . SVG Version: 6.00 Build 0)  -->
<svg version="1.1" id="Light" xmlns="http://www.w3.org/2000/svg" xmlns:xlink="http://www.w3.org/1999/xlink" x="0px" y="0px"
	 viewBox="0 0 24 24" style="enable-background:new 0 0 24 24;" xml:space="preserve">
<g>
	<title>paralympics-archery</title>
	<path d="M9.041,6.002c-1.654,0-3-1.346-3-3s1.346-3,3-3s3,1.346,3,3S10.695,6.002,9.041,6.002z M9.041,1.002c-1.103,0-2,0.897-2,2
		s0.897,2,2,2s2-0.897,2-2S10.144,1.002,9.041,1.002z"/>
	<path d="M4.541,11.002c-1.103,0-2-0.897-2-2s0.897-2,2-2h4.5c1.103,0,2,0.897,2,2s-0.897,2-2,2H4.541z M4.541,8.002
		c-0.551,0-1,0.449-1,1s0.449,1,1,1h4.5c0.551,0,1-0.449,1-1s-0.449-1-1-1H4.541z"/>
	<path d="M19.041,18.049c-0.113,0-0.224-0.039-0.312-0.11c-0.105-0.084-0.17-0.203-0.185-0.336s0.023-0.263,0.107-0.367
		c0.264-0.329,0.522-0.673,0.765-1.021c3.343-4.786,3.343-9.64,0-14.427c-0.221-0.317-0.445-0.618-0.666-0.895l-0.032-0.042
		c-0.082-0.105-0.117-0.237-0.1-0.369c0.017-0.132,0.084-0.25,0.19-0.332c0.086-0.067,0.195-0.104,0.305-0.104
		c0.156,0,0.3,0.071,0.396,0.194l0.028,0.036c0.228,0.287,0.464,0.604,0.698,0.939c3.608,5.167,3.608,10.406,0,15.573
		c-0.256,0.366-0.527,0.727-0.805,1.074C19.336,17.981,19.194,18.049,19.041,18.049z"/>
	<path d="M16.12,23.001c-0.666,0-1.297-0.349-1.665-0.932l-1.915-3.068l-3.5,0.001c-1.103,0-2-0.897-2-2v-4.5
		c0-0.276,0.224-0.5,0.5-0.5s0.5,0.224,0.5,0.5v4.5c0,0.552,0.449,1,1,1h3.5c0.345,0.003,0.661,0.176,0.845,0.464l1.916,3.071
		c0.183,0.291,0.499,0.465,0.844,0.465c0.192,0,0.373-0.052,0.53-0.152c0.468-0.293,0.611-0.911,0.32-1.378l-1.912-3.061
		c-0.548-0.883-1.495-1.41-2.533-1.41c0,0-0.008,0-0.011,0c-0.275,0-0.499-0.224-0.5-0.498c0-0.007,0-0.015,0.001-0.022v-4.979
		c0-0.276,0.224-0.5,0.5-0.5h5.9c0.552,0,1-0.449,1-1s-0.448-1-1-1h-6.4c-0.276,0-0.5-0.224-0.5-0.5s0.224-0.5,0.5-0.5h6.4
		c1.103,0,2,0.897,2,2s-0.897,2-2,2h-5.4v4.03c1.201,0.144,2.245,0.81,2.892,1.852l1.912,3.06c0.583,0.935,0.298,2.17-0.636,2.754
		c-0.315,0.199-0.68,0.305-1.055,0.305l-0.004,0C16.142,23.002,16.121,23.001,16.12,23.001z"/>
	<path d="M6.541,24.002c-0.758,0-1.499-0.156-2.202-0.464c-1.346-0.588-2.382-1.666-2.918-3.034
		c-0.536-1.368-0.506-2.863,0.082-4.208c0.556-1.273,1.564-2.28,2.837-2.836c0.063-0.028,0.131-0.042,0.2-0.042
		c0.198,0,0.378,0.118,0.458,0.3c0.054,0.122,0.056,0.258,0.007,0.383c-0.049,0.124-0.143,0.222-0.266,0.276
		C3.7,14.831,2.875,15.655,2.42,16.696c-0.482,1.101-0.506,2.324-0.068,3.444c0.438,1.119,1.286,2.001,2.387,2.482
		c0.576,0.252,1.182,0.379,1.802,0.379c0.56,0,1.113-0.105,1.642-0.312c1.119-0.438,2.001-1.286,2.482-2.387
		c0.079-0.182,0.259-0.3,0.458-0.3c0.069,0,0.137,0.014,0.201,0.042c0.122,0.053,0.216,0.151,0.265,0.276s0.046,0.26-0.008,0.383
		c-0.589,1.346-1.666,2.382-3.034,2.918C7.902,23.874,7.227,24.002,6.541,24.002z"/>
</g>
</svg>
