<?xml version="1.0" encoding="utf-8"?>
<!-- Generator: Adobe Illustrator 22.1.0, SVG Export Plug-In . SVG Version: 6.00 Build 0)  -->
<svg version="1.1" id="Light" xmlns="http://www.w3.org/2000/svg" xmlns:xlink="http://www.w3.org/1999/xlink" x="0px" y="0px"
	 viewBox="0 0 24 24" style="enable-background:new 0 0 24 24;" xml:space="preserve">
<g>
	<title>coffee-pot-1</title>
	<path d="M1.936,20.5c-0.383,0-0.726-0.213-0.896-0.556c-1.259-2.54-1.381-5.501-0.333-8.126c0.291-0.726,0.651-1.398,1.077-2.011
		L1.374,8.92c-0.231-0.5-0.013-1.096,0.488-1.327C1.993,7.532,2.138,7.5,2.282,7.5h14.301c0.228,0,0.451,0.079,0.628,0.222
		c2.198,1.765,3.536,4.389,3.699,7.234c0.091-0.017,0.18-0.038,0.267-0.064c0.654-0.197,1.192-0.637,1.516-1.24
		c0.324-0.603,0.395-1.295,0.198-1.949c-0.585-1.973-1.674-3.772-3.15-5.204L3.5,6.5C3.224,6.5,3,6.276,3,6s0.224-0.5,0.5-0.5
		h12.293l1.854-1.854C17.741,3.552,17.866,3.5,18,3.5s0.259,0.052,0.354,0.146c0.195,0.195,0.195,0.512,0,0.707L17.207,5.5h2.535
		c0.26,0,0.507,0.099,0.694,0.28c1.6,1.552,2.781,3.501,3.414,5.637c0.565,1.878-0.505,3.867-2.385,4.432
		c-0.178,0.054-0.362,0.093-0.547,0.118c-0.059,1.396-0.402,2.733-1.019,3.977c-0.167,0.337-0.519,0.555-0.896,0.555H1.936z
		 M1.512,12.5c-0.81,2.276-0.659,4.818,0.423,7L19,19.5c1.074-2.157,1.219-4.698,0.407-7H1.512z M18.986,11.5
		c-0.575-1.163-1.4-2.194-2.402-2.999L2.282,8.5l0.532,1.151c0.077,0.166,0.057,0.36-0.052,0.507
		c-0.31,0.419-0.585,0.869-0.821,1.342H18.986z"/>
</g>
</svg>
