<?xml version="1.0" encoding="utf-8"?>
<!-- Generator: Adobe Illustrator 22.1.0, SVG Export Plug-In . SVG Version: 6.00 Build 0)  -->
<svg version="1.1" id="Light" xmlns="http://www.w3.org/2000/svg" xmlns:xlink="http://www.w3.org/1999/xlink" x="0px" y="0px"
	 viewBox="0 0 24 24" style="enable-background:new 0 0 24 24;" xml:space="preserve">
<g>
	<title>coffee-delivery</title>
	<path d="M14.749,7.001c-1.93,0-3.5-1.57-3.5-3.5s1.57-3.5,3.5-3.5s3.5,1.57,3.5,3.5S16.679,7.001,14.749,7.001z M14.749,1.001
		c-1.378,0-2.5,1.121-2.5,2.5s1.122,2.5,2.5,2.5s2.5-1.121,2.5-2.5S16.127,1.001,14.749,1.001z"/>
	<path d="M10.245,24.018c-0.208,0-0.415-0.032-0.614-0.096c-1.05-0.337-1.63-1.466-1.292-2.516c0.067-0.208,0.258-0.347,0.476-0.347
		c0.051,0,0.103,0.008,0.152,0.024c0.128,0.041,0.232,0.129,0.293,0.248s0.072,0.254,0.031,0.381
		c-0.169,0.525,0.121,1.089,0.646,1.258c0.1,0.032,0.203,0.048,0.307,0.048c0.346,0,0.663-0.176,0.847-0.47l3.251-4.698
		c0.091-0.131,0.244-0.209,0.411-0.209s0.321,0.078,0.411,0.209l3.238,4.678c0.192,0.299,0.51,0.473,0.854,0.473
		c0.191,0,0.377-0.055,0.538-0.158c0.225-0.145,0.38-0.368,0.436-0.629s0.008-0.529-0.136-0.754l-4.257-6.141
		c-0.058-0.084-0.089-0.183-0.089-0.285v-1.911c0-0.203,0.121-0.385,0.309-0.462c0.061-0.025,0.125-0.038,0.191-0.038
		c0.134,0,0.259,0.052,0.354,0.147l2.439,2.439c0.188,0.189,0.44,0.292,0.707,0.292s0.519-0.104,0.707-0.292
		c0.189-0.188,0.292-0.44,0.292-0.707c0-0.268-0.104-0.519-0.292-0.707l-4.111-4.028l-3.75,4.499
		c0.405,0.275,0.653,0.732,0.653,1.236v3c0,0.827-0.673,1.5-1.5,1.5h-3c-0.827,0-1.5-0.673-1.5-1.5v-3c0-0.827,0.673-1.5,1.5-1.5
		h2.766l4.008-4.809c-0.279-0.115-0.58-0.175-0.885-0.175c-0.555,0-1.088,0.199-1.5,0.56l-1.908,1.679
		c-0.548,0.48-1.25,0.745-1.978,0.745H7.749c-0.552,0-1.001,0.448-1.001,1c0,0.1,0.015,0.2,0.045,0.296
		c0.039,0.127,0.027,0.263-0.035,0.381c-0.062,0.118-0.167,0.205-0.294,0.244c-0.049,0.015-0.098,0.022-0.148,0.022
		c-0.22,0-0.412-0.141-0.478-0.352C5.778,13.4,5.748,13.2,5.748,12.999c0.001-1.102,0.898-1.999,2-1.999H9.25
		c0.486,0,0.954-0.176,1.319-0.496l1.908-1.679c0.595-0.521,1.362-0.808,2.159-0.808c0.697,0,1.36,0.212,1.92,0.614
		c0.016,0.008,0.034,0.019,0.053,0.035c0.007,0.006,0.014,0.012,0.021,0.019c0.122,0.092,0.222,0.177,0.312,0.265l4.217,4.133
		c0.38,0.38,0.588,0.883,0.588,1.418c0,0.535-0.208,1.037-0.585,1.414s-0.88,0.585-1.414,0.585c-0.535,0-1.037-0.208-1.414-0.585
		l-1.585-1.585v0.548l4.177,6.027c0.297,0.461,0.396,0.999,0.282,1.521c-0.113,0.522-0.423,0.969-0.873,1.258
		c-0.324,0.208-0.697,0.319-1.079,0.319l0,0c-0.143,0-0.286-0.015-0.427-0.046c-0.522-0.113-0.969-0.423-1.258-0.873l-2.818-4.07
		l-2.827,4.084C11.568,23.67,10.938,24.018,10.245,24.018z M8.249,18.501c0,0.276,0.224,0.5,0.5,0.5h3c0.276,0,0.5-0.224,0.5-0.5
		v-1.5h-1.5v0.5c0,0.276-0.224,0.5-0.5,0.5s-0.5-0.224-0.5-0.5v-0.5h-1.5V18.501z M12.249,16.001v-0.5c0-0.276-0.224-0.5-0.5-0.5h-3
		c-0.276,0-0.5,0.224-0.5,0.5v0.5H12.249z"/>
	<path d="M3.249,16.001c-0.26,0-0.474-0.196-0.498-0.455l-0.5-5.5C2.238,9.906,2.285,9.767,2.38,9.663
		C2.474,9.56,2.609,9.501,2.749,9.501h1.5v-0.5c0-0.524,0.28-1.017,0.729-1.286c0.021-0.012,0.041-0.022,0.062-0.031L6.553,7.04
		C6.616,7.014,6.682,7,6.749,7c0.201,0,0.382,0.12,0.46,0.305c0.108,0.254-0.011,0.548-0.265,0.656L5.468,8.588
		C5.332,8.68,5.249,8.837,5.249,9.001v0.5h1.5c0.276,0,0.5,0.224,0.5,0.5s-0.224,0.5-0.5,0.5H3.296l0.409,4.5h2.543
		c0.276,0,0.5,0.224,0.5,0.5s-0.224,0.5-0.5,0.5H3.249z"/>
</g>
</svg>
