<?xml version="1.0" encoding="utf-8"?>
<!-- Generator: Adobe Illustrator 22.1.0, SVG Export Plug-In . SVG Version: 6.00 Build 0)  -->
<svg version="1.1" id="Light" xmlns="http://www.w3.org/2000/svg" xmlns:xlink="http://www.w3.org/1999/xlink" x="0px" y="0px"
	 viewBox="0 0 24 24" style="enable-background:new 0 0 24 24;" xml:space="preserve">
<g>
	<title>coffee-cold</title>
	<path d="M8.429,24c-0.497,0-0.912-0.357-0.988-0.848L5.571,11H3.5C3.224,11,3,10.776,3,10.5S3.224,10,3.5,10h2.02
		C5.777,6.617,8.578,4,12,4c0.379,0,0.76,0.034,1.136,0.101l0.609-2.903c0.142-0.693,0.76-1.197,1.469-1.197
		c0.101,0,0.202,0.01,0.302,0.031c0.128,0.026,0.252,0.069,0.369,0.127l3.84,1.919c0.119,0.06,0.208,0.162,0.251,0.289
		s0.033,0.262-0.027,0.382c-0.085,0.17-0.257,0.276-0.448,0.276c-0.077,0-0.154-0.018-0.223-0.053l-3.84-1.919
		c-0.038-0.019-0.079-0.033-0.122-0.042c-0.033-0.007-0.067-0.01-0.101-0.01c-0.236,0-0.442,0.168-0.49,0.4l-0.618,2.95
		c2.453,0.841,4.176,3.067,4.374,5.649H20.5c0.276,0,0.5,0.224,0.5,0.5S20.776,11,20.5,11h-2.071l-1.87,12.152
		C16.484,23.643,16.068,24,15.571,24H8.429z M8.429,23l7.142,0l1.077-7h-4.984l-1.174,5.603C10.441,21.833,10.235,22,10,22
		c-0.035,0-0.069-0.004-0.103-0.011c-0.13-0.027-0.243-0.104-0.316-0.216c-0.073-0.112-0.098-0.245-0.071-0.376L10.642,16h-3.29
		L8.429,23z M16.802,15l0.615-4h-4.705L16.802,15z M10.852,15l0.838-4H6.583l0.615,4H10.852z M17.477,10
		c-0.192-2.106-1.592-3.929-3.579-4.661L12.921,10H17.477z M11.9,10l1.031-4.92C12.622,5.027,12.31,5,12,5
		c-2.867,0-5.224,2.176-5.478,5H11.9z"/>
</g>
</svg>
