<?xml version="1.0" encoding="utf-8"?>
<!-- Generator: Adobe Illustrator 22.1.0, SVG Export Plug-In . SVG Version: 6.00 Build 0)  -->
<svg version="1.1" id="Light" xmlns="http://www.w3.org/2000/svg" xmlns:xlink="http://www.w3.org/1999/xlink" x="0px" y="0px"
	 viewBox="0 0 24 24" style="enable-background:new 0 0 24 24;" xml:space="preserve">
<g>
	<title>coffee-straw</title>
	<path d="M7.343,24c-0.526,0-0.964-0.41-0.999-0.934L5.407,9H4.625c-0.551,0-1-0.449-1-1V6c0-0.551,0.449-1,1-1h0.79L2.466,0.787
		C2.307,0.561,2.363,0.249,2.588,0.09C2.673,0.031,2.772,0,2.875,0c0.163,0,0.316,0.08,0.41,0.213L6.635,5h13.99
		c0.552,0,1,0.449,1,1v2c0,0.551-0.448,1-1,1h-0.782l-0.938,14.066C18.87,23.59,18.432,24,17.907,24H7.343z M7.342,23l10.564,0
		l0.934-14H6.41l0.202,3.032c1.475,0.205,2.646,1.429,2.762,2.929c0.028,0.796-0.25,1.542-0.782,2.112
		c-0.423,0.453-0.98,0.758-1.586,0.873L7.342,23z M6.938,16.938c0.354-0.089,0.669-0.276,0.923-0.547
		c0.349-0.374,0.532-0.862,0.515-1.374c-0.073-0.939-0.781-1.739-1.695-1.958L6.938,16.938z M4.625,8h16V6h-16h0L4.625,8z"/>
</g>
</svg>
