<?xml version="1.0" encoding="utf-8"?>
<!-- Generator: Adobe Illustrator 22.1.0, SVG Export Plug-In . SVG Version: 6.00 Build 0)  -->
<svg version="1.1" id="Light" xmlns="http://www.w3.org/2000/svg" xmlns:xlink="http://www.w3.org/1999/xlink" x="0px" y="0px"
	 viewBox="0 0 24 24" style="enable-background:new 0 0 24 24;" xml:space="preserve">
<g>
	<title>coffee-cold-press</title>
	<path d="M8.511,24c-0.827,0-1.5-0.673-1.5-1.5v-5.52c-3.384-0.256-6-3.058-6-6.48v-2c0-0.827,0.673-1.5,1.5-1.5h4.52
		c0.118-1.547,0.782-2.994,1.885-4.096c1.103-1.102,2.549-1.765,4.095-1.882V0.5c0-0.276,0.224-0.5,0.5-0.5s0.5,0.224,0.5,0.5v0.522
		C17.182,1.267,19.745,3.829,19.991,7h1.999c0.222,0,0.439,0.075,0.614,0.21c0.211,0.164,0.345,0.4,0.378,0.665
		c0.033,0.265-0.039,0.527-0.203,0.738l-2.768,3.558V22.5c0,0.827-0.673,1.5-1.5,1.5H8.511z M8.011,22.5c0,0.276,0.224,0.5,0.5,0.5
		h10c0.276,0,0.5-0.224,0.5-0.5V14h-5v4h2c0.276,0,0.5,0.224,0.5,0.5s-0.224,0.5-0.5,0.5h-4.5c-0.276,0-0.5-0.224-0.5-0.5
		s0.224-0.5,0.5-0.5h1.5v-4h-5V22.5z M2.511,8c-0.276,0-0.5,0.224-0.5,0.5v2c0,2.866,2.176,5.223,5,5.477V8H2.511z M19.011,13V8h-5
		v5H19.011z M13.011,13V8h-5v5H13.011z M20.011,10.543L21.99,8l-1.979,0V10.543z M18.988,7c-0.254-2.823-2.611-4.997-5.475-4.998
		l-0.002-0.25v0.25c-1.468,0-2.849,0.572-3.888,1.61C8.712,4.522,8.156,5.717,8.041,7H18.988z"/>
</g>
</svg>
