<?xml version="1.0" encoding="utf-8"?>
<!-- Generator: Adobe Illustrator 22.1.0, SVG Export Plug-In . SVG Version: 6.00 Build 0)  -->
<svg version="1.1" id="Light" xmlns="http://www.w3.org/2000/svg" xmlns:xlink="http://www.w3.org/1999/xlink" x="0px" y="0px"
	 viewBox="0 0 24 24" style="enable-background:new 0 0 24 24;" xml:space="preserve">
<g>
	<title>coffee-espresso-machine</title>
	<path d="M1,24c-0.551,0-1-0.448-1-1v-2c0-0.552,0.449-1,1-1h9v-9H8v2c0.551,0,1,0.448,1,1v1c0,0.552-0.449,1-1,1H7v0.5
		C7,16.776,6.776,17,6.5,17S6,16.776,6,16.5V16H5c-0.551,0-1-0.448-1-1H0.5C0.224,15,0,14.776,0,14.5S0.224,14,0.5,14H4
		c0-0.552,0.449-1,1-1v-2H4c-0.551,0-1-0.449-1-1V1c0-0.551,0.449-1,1-1h18c1.103,0,2,0.897,2,2v21c0,0.552-0.448,1-1,1H1z M23,23
		V13h-4l0,10H23z M1,23h17V13c0-0.552,0.448-1,1-1h4v-2h-5.5C17.224,10,17,9.776,17,9.5S17.224,9,17.5,9H23V8h-5.5
		C17.224,8,17,7.776,17,7.5S17.224,7,17.5,7H23V6h-5.5C17.224,6,17,5.776,17,5.5S17.224,5,17.5,5H23V2c0-0.551-0.448-1-1-1H4v9h6
		c0.551,0,1,0.449,1,1v9c0,0.552-0.449,1-1,1H1L1,23z M5,15h3v-1H5L5,15z M7,13v-2H6v2H7z"/>
	<path d="M7,6C5.897,6,5,5.103,5,4s0.897-2,2-2s2,0.897,2,2S8.103,6,7,6z M7,3C6.449,3,6,3.449,6,4s0.449,1,1,1s1-0.449,1-1
		S7.551,3,7,3z"/>
</g>
</svg>
