<?xml version="1.0" encoding="utf-8"?>
<!-- Generator: Adobe Illustrator 22.1.0, SVG Export Plug-In . SVG Version: 6.00 Build 0)  -->
<svg version="1.1" id="Light" xmlns="http://www.w3.org/2000/svg" xmlns:xlink="http://www.w3.org/1999/xlink" x="0px" y="0px"
	 viewBox="0 0 24 24" style="enable-background:new 0 0 24 24;" xml:space="preserve">
<g>
	<title>coffee-machine-1</title>
	<path d="M1.5,24C0.673,24,0,23.327,0,22.5v-21C0,0.673,0.673,0,1.5,0h21C23.327,0,24,0.673,24,1.5v2C24,4.327,23.327,5,22.5,5
		h-0.691l-1.586,3.171C19.985,8.646,19.524,8.955,19,8.995V10c0,0.551-0.448,1-1,1h-4c-0.552,0-1-0.449-1-1V8.995
		c-0.524-0.041-0.985-0.349-1.223-0.825L10.191,5H8v16h4v-2.382l-1.085-2.17c-0.069-0.138-0.106-0.293-0.106-0.448
		c0-0.552,0.449-1,1-1H20c0.552,0,1,0.448,1,1v5h1.5c0.827,0,1.5,0.673,1.5,1.5S23.327,24,22.5,24H1.5z M1,22.5
		C1,22.776,1.224,23,1.5,23h21c0.276,0,0.5-0.224,0.5-0.5S22.776,22,22.5,22H8c-0.551,0-1-0.448-1-1V5c0-0.551,0.449-1,1-1h14.5
		C22.776,4,23,3.776,23,3.5v-2C23,1.224,22.776,1,22.5,1H5v14c0,0.552-0.449,1-1,1H1V22.5z M20,21v-5h-8.191l1.085,2.17
		C12.963,18.308,13,18.463,13,18.618V21H20z M4,15V1H1.5C1.224,1,1,1.224,1,1.5V3h0.5C1.776,3,2,3.224,2,3.5S1.776,4,1.5,4H1v2h0.5
		C1.776,6,2,6.224,2,6.5S1.776,7,1.5,7H1v2h0.5C1.776,9,2,9.224,2,9.5S1.776,10,1.5,10H1v2h0.5C1.776,12,2,12.224,2,12.5
		C2,12.776,1.776,13,1.5,13H1v2H4z M14,10h4V9h-4V10z M12.671,7.723C12.756,7.894,12.928,8,13.118,8h5.764
		c0.19,0,0.361-0.106,0.447-0.276L20.691,5h-9.382L12.671,7.723z"/>
	<path d="M23.5,18c-0.276,0-0.5-0.224-0.5-0.5v-2c0-0.827-0.673-1.5-1.5-1.5h-7c-0.276,0-0.5-0.224-0.5-0.5s0.224-0.5,0.5-0.5h7
		c1.378,0,2.5,1.122,2.5,2.5v2C24,17.776,23.776,18,23.5,18z"/>
</g>
</svg>
