<?xml version="1.0" encoding="utf-8"?>
<!-- Generator: Adobe Illustrator 22.1.0, SVG Export Plug-In . SVG Version: 6.00 Build 0)  -->
<svg version="1.1" id="Light" xmlns="http://www.w3.org/2000/svg" xmlns:xlink="http://www.w3.org/1999/xlink" x="0px" y="0px"
	 viewBox="0 0 24 24" style="enable-background:new 0 0 24 24;" xml:space="preserve">
<g>
	<title>camping-tent-small</title>
	<path d="M3.5,7C3.224,7,3,6.776,3,6.5S3.224,6,3.5,6h13C16.776,6,17,6.224,17,6.5S16.776,7,16.5,7H3.5z"/>
	<path d="M3.5,4C3.224,4,3,3.776,3,3.5S3.224,3,3.5,3h17C20.776,3,21,3.224,21,3.5S20.776,4,20.5,4H3.5z"/>
	<path d="M3.5,1C3.224,1,3,0.776,3,0.5S3.224,0,3.5,0h17C20.776,0,21,0.224,21,0.5S20.776,1,20.5,1H3.5z"/>
	<path d="M0.5,24C0.224,24,0,23.776,0,23.5S0.224,23,0.5,23h3.21l7.422-12.988c0.088-0.155,0.217-0.283,0.372-0.372
		c0.151-0.086,0.322-0.132,0.495-0.132c0.359,0,0.692,0.193,0.87,0.503L20.29,23h3.21c0.276,0,0.5,0.224,0.5,0.5S23.776,24,23.5,24
		H0.5z M19.138,23L12,10.508L4.862,23h3.855l2.426-4.042c0.137-0.229,0.355-0.391,0.614-0.456c0.08-0.02,0.162-0.031,0.245-0.031
		c0.179,0,0.356,0.049,0.512,0.142c0.142,0.085,0.261,0.205,0.345,0.345L15.283,23H19.138z M14.117,23L12,19.472L9.883,23H14.117z"
		/>
</g>
</svg>
