<?xml version="1.0" encoding="utf-8"?>
<!-- Generator: Adobe Illustrator 22.1.0, SVG Export Plug-In . SVG Version: 6.00 Build 0)  -->
<svg version="1.1" id="Light" xmlns="http://www.w3.org/2000/svg" xmlns:xlink="http://www.w3.org/1999/xlink" x="0px" y="0px"
	 viewBox="0 0 24 24" style="enable-background:new 0 0 24 24;" xml:space="preserve">
<g>
	<title>camping-tent-sleep</title>
	<path d="M10,20.485c-0.551,0-1-0.448-1-1v-3c0-0.552,0.449-1,1-1h7.5c1.378,0,2.5,1.122,2.5,2.5v1.5c0,0.552-0.448,1-1,1H10z
		 M10,19.485h9v-1.5c0-0.827-0.673-1.5-1.5-1.5H10L10,19.485z"/>
	<path d="M6.001,20.485c-1.379,0-2.5-1.122-2.5-2.5s1.121-2.5,2.5-2.5s2.5,1.122,2.5,2.5S7.38,20.485,6.001,20.485z M6.001,16.485
		c-0.827,0-1.5,0.673-1.5,1.5s0.673,1.5,1.5,1.5s1.5-0.673,1.5-1.5S6.828,16.485,6.001,16.485z"/>
	<path d="M1.711,22.489c-0.095,0-0.19-0.009-0.284-0.027c-0.813-0.157-1.347-0.945-1.19-1.757L2.425,9.325
		c0.082-0.414,0.334-0.776,0.692-0.996l8.385-5.125V2.015c0-0.276,0.224-0.5,0.5-0.5c0.276,0,0.5,0.224,0.5,0.5v1.19l8.384,5.123
		c0.359,0.22,0.611,0.583,0.69,0.996l2.188,11.381c0.018,0.091,0.027,0.187,0.027,0.283c0,0.827-0.673,1.5-1.5,1.5H1.711z
		 M3.639,9.182c-0.12,0.074-0.205,0.196-0.232,0.335L1.219,20.894c-0.025,0.131,0.002,0.264,0.077,0.375
		c0.075,0.111,0.188,0.186,0.319,0.211c0.031,0.006,0.064,0.009,0.095,0.009H22.29c0.276,0,0.5-0.224,0.5-0.5
		c0-0.031-0.003-0.062-0.009-0.092L20.593,9.514c-0.026-0.138-0.11-0.259-0.229-0.332L12,4.071L3.639,9.182z"/>
</g>
</svg>
