<?xml version="1.0" encoding="utf-8"?>
<!-- Generator: Adobe Illustrator 22.1.0, SVG Export Plug-In . SVG Version: 6.00 Build 0)  -->
<svg version="1.1" id="Light" xmlns="http://www.w3.org/2000/svg" xmlns:xlink="http://www.w3.org/1999/xlink" x="0px" y="0px"
	 viewBox="0 0 24 24" style="enable-background:new 0 0 24 24;" xml:space="preserve">
<g>
	<title>camping-tent-forest</title>
	<path d="M1.419,24c-0.193,0-0.381-0.056-0.544-0.161c-0.224-0.145-0.378-0.369-0.434-0.63c-0.056-0.261-0.006-0.529,0.139-0.753
		l6.323-9.725l-1.096-1.685c-0.073-0.112-0.098-0.245-0.07-0.376c0.028-0.131,0.105-0.243,0.217-0.315
		c0.081-0.053,0.175-0.081,0.272-0.081c0.17,0,0.327,0.085,0.42,0.228L7.5,11.814L8.354,10.5c0.092-0.142,0.249-0.228,0.42-0.228
		c0.097,0,0.191,0.028,0.273,0.081c0.112,0.073,0.188,0.185,0.216,0.315c0.028,0.131,0.003,0.264-0.07,0.376l-1.096,1.685
		l6.323,9.725c0.106,0.163,0.162,0.352,0.161,0.547c-0.002,0.55-0.45,0.997-1,0.997H1.419z M1.419,23l2.306,0l3.353-5.269
		c0.089-0.14,0.247-0.224,0.422-0.224s0.333,0.083,0.422,0.224L11.275,23h2.305L7.5,13.648L1.419,23z M10.089,23L7.5,18.931
		L4.911,23H10.089z"/>
	<path d="M13.034,18c-0.276,0-0.5-0.224-0.5-0.5s0.224-0.5,0.5-0.5H17v-4.02c-3.384-0.256-6-3.058-6-6.48C11,2.916,13.916,0,17.5,0
		S24,2.916,24,6.5c0,3.422-2.616,6.223-6,6.48V17h5.5c0.276,0,0.5,0.224,0.5,0.5S23.776,18,23.5,18H13.034z M20,7
		c0.212,0,0.402,0.134,0.472,0.334c0.091,0.26-0.046,0.546-0.306,0.637C18.88,8.423,18.01,9.641,18,11.004v0.973
		c2.824-0.253,5-2.61,5-5.477C23,3.467,20.533,1,17.5,1S12,3.467,12,6.5c0,2.866,2.176,5.223,5,5.477V8.5c0-1.103-0.897-2-2-2
		c-0.276,0-0.5-0.224-0.5-0.5s0.224-0.5,0.5-0.5c0.744,0,1.455,0.279,2,0.768V4c0-0.276,0.224-0.5,0.5-0.5S18,3.724,18,4v4.299
		c0.485-0.578,1.117-1.019,1.834-1.271C19.889,7.009,19.944,7,20,7z"/>
	<path d="M0.5,18C0.224,18,0,17.776,0,17.5S0.224,17,0.5,17h1.534c0.276,0,0.5,0.224,0.5,0.5S2.31,18,2.034,18H0.5z"/>
</g>
</svg>
