<?xml version="1.0" encoding="utf-8"?>
<!-- Generator: Adobe Illustrator 22.1.0, SVG Export Plug-In . SVG Version: 6.00 Build 0)  -->
<svg version="1.1" id="Light" xmlns="http://www.w3.org/2000/svg" xmlns:xlink="http://www.w3.org/1999/xlink" x="0px" y="0px"
	 viewBox="0 0 24 24" style="enable-background:new 0 0 24 24;" xml:space="preserve">
<g>
	<title>camping-tent</title>
	<path d="M1.922,22.5c-0.196,0-0.384-0.056-0.546-0.162c-0.462-0.299-0.594-0.919-0.294-1.382L11.404,5.076L9.581,2.272
		C9.509,2.16,9.484,2.027,9.511,1.896c0.028-0.131,0.105-0.243,0.217-0.315C9.809,1.528,9.904,1.5,10.001,1.5
		c0.17,0,0.327,0.085,0.419,0.228L12,4.159l1.581-2.432c0.093-0.143,0.25-0.228,0.42-0.228c0.097,0,0.191,0.028,0.272,0.081
		c0.112,0.073,0.189,0.185,0.216,0.315c0.028,0.131,0.003,0.264-0.07,0.376l-1.823,2.804l10.321,15.879
		c0.105,0.162,0.16,0.349,0.161,0.542c0,0.268-0.104,0.519-0.292,0.708c-0.188,0.189-0.439,0.293-0.707,0.294H1.922z M1.92,21.5
		l5.801,0l3.428-5.57c0.082-0.133,0.195-0.246,0.329-0.328c0.157-0.096,0.338-0.147,0.522-0.147c0.351,0,0.67,0.178,0.853,0.476
		l3.427,5.57h5.8L12,5.994L1.92,21.5z M15.106,21.5l-3.105-5.046l0-0.25l0,0.25c0,0-3.105,5.046-3.105,5.046H15.106z"/>
</g>
</svg>
