<?xml version="1.0" encoding="utf-8"?>
<!-- Generator: Adobe Illustrator 22.1.0, SVG Export Plug-In . SVG Version: 6.00 Build 0)  -->
<svg version="1.1" id="Light" xmlns="http://www.w3.org/2000/svg" xmlns:xlink="http://www.w3.org/1999/xlink" x="0px" y="0px"
	 viewBox="0 0 24 24" style="enable-background:new 0 0 24 24;" xml:space="preserve">
<g>
	<title>camping-tent-map</title>
	<path d="M11.499,24c-0.276,0-0.5-0.224-0.5-0.5V16h-9.5c-0.401-0.001-0.777-0.157-1.06-0.442C0.155,15.274,0,14.897,0,14.497
		c0.001-0.296,0.088-0.583,0.252-0.829L3.031,9.5L0.253,5.332C0.03,4.999-0.049,4.599,0.029,4.206
		c0.078-0.393,0.305-0.732,0.638-0.954C0.914,3.088,1.201,3.001,1.498,3h9.501V0.5c0-0.276,0.224-0.5,0.5-0.5s0.5,0.224,0.5,0.5V3
		h5.5c0.401,0,0.777,0.156,1.061,0.439l5,5c0.585,0.585,0.585,1.536,0,2.121l-5,5C18.276,15.844,17.899,16,17.499,16h-5.5v7.5
		C11.999,23.776,11.774,24,11.499,24z M1.499,4C1.4,4,1.305,4.029,1.223,4.084C1.112,4.158,1.037,4.271,1.01,4.402
		c-0.026,0.131,0,0.265,0.074,0.375l2.963,4.445c0.112,0.168,0.112,0.386,0,0.555l-2.963,4.445C1.03,14.305,1,14.401,1,14.499
		C1,14.775,1.224,15,1.499,15h15.999c0.132,0,0.26-0.053,0.354-0.146l5-5c0.195-0.195,0.195-0.512,0-0.707l-5-5
		C17.759,4.053,17.63,4,17.499,4H1.499L1.499,4z"/>
	<path d="M8.603,14c-0.551,0-1-0.448-1-1c0-0.172,0.044-0.341,0.128-0.491l3.193-5.676l-0.612-1.088
		c-0.135-0.24-0.05-0.546,0.191-0.681C10.578,5.022,10.663,5,10.748,5c0.18,0,0.348,0.098,0.436,0.255l0.314,0.559l0.314-0.559
		C11.901,5.098,12.068,5,12.249,5c0.086,0,0.17,0.022,0.245,0.065c0.24,0.135,0.325,0.441,0.19,0.681l-0.612,1.088l3.193,5.676
		c0.131,0.233,0.164,0.503,0.092,0.76c-0.072,0.257-0.24,0.471-0.473,0.602C14.734,13.956,14.565,14,14.394,14H8.603z M8.603,13
		h2.395v-1.5c0-0.276,0.224-0.5,0.5-0.5s0.5,0.224,0.5,0.5V13h2.395l-2.895-5.147L8.603,13z"/>
</g>
</svg>
