<?xml version="1.0" encoding="utf-8"?>
<!-- Generator: Adobe Illustrator 22.1.0, SVG Export Plug-In . SVG Version: 6.00 Build 0)  -->
<svg version="1.1" id="Light" xmlns="http://www.w3.org/2000/svg" xmlns:xlink="http://www.w3.org/1999/xlink" x="0px" y="0px"
	 viewBox="0 0 24 24" style="enable-background:new 0 0 24 24;" xml:space="preserve">
<g>
	<title>camping-tent-person</title>
	<path d="M21.311,24c-0.276,0-0.5-0.224-0.5-0.5V20c0-0.276,0.224-0.5,0.5-0.5h1c0.276,0,0.5-0.224,0.5-0.5v-4.5
		c0-1.378-1.122-2.5-2.5-2.5h-3c-1.378,0-2.5,1.122-2.5,2.5V19c0,0.276,0.224,0.5,0.5,0.5h1c0.276,0,0.5,0.224,0.5,0.5v3.5
		c0,0.276-0.224,0.5-0.5,0.5s-0.5-0.224-0.5-0.5v-3h-0.5c-0.827,0-1.5-0.673-1.5-1.5v-4.5c0-1.93,1.57-3.5,3.5-3.5h3
		c1.93,0,3.5,1.57,3.5,3.5V19c0,0.827-0.673,1.5-1.5,1.5h-0.5v3C21.811,23.776,21.587,24,21.311,24z"/>
	<path d="M18.814,9.999c-0.942,0-1.84-0.448-2.403-1.199C15.81,7.999,15.657,6.937,15.985,6h-1.173c-0.276,0-0.5-0.224-0.5-0.5
		s0.224-0.5,0.5-0.5h0.64l0.701-2.104c0.086-0.254,0.264-0.459,0.504-0.578c0.14-0.069,0.289-0.104,0.443-0.104
		c0.109,0,0.216,0.018,0.32,0.053c0.046,0.016,0.09,0.034,0.132,0.055l1.256,0.647l1.252-0.645c0.142-0.072,0.298-0.109,0.454-0.109
		c0.38,0,0.722,0.21,0.893,0.547c0.021,0.041,0.041,0.088,0.056,0.135L22.171,5h0.641c0.276,0,0.5,0.224,0.5,0.5S23.087,6,22.811,6
		h-1.174c0.163,0.455,0.212,0.94,0.143,1.424c-0.113,0.793-0.529,1.495-1.17,1.976C20.088,9.792,19.467,9.999,18.814,9.999z
		 M17.086,6c-0.401,0.691-0.356,1.56,0.124,2.2c0.381,0.508,0.965,0.799,1.603,0.799c0.435,0,0.849-0.138,1.197-0.399
		c0.427-0.321,0.704-0.788,0.78-1.317C20.854,6.839,20.765,6.388,20.54,6H17.086z M21.116,5l-0.601-1.787l-1.478,0.762
		c-0.071,0.036-0.15,0.055-0.229,0.055s-0.158-0.019-0.229-0.055l-1.478-0.762L16.505,5H21.116z"/>
	<path d="M11.29,18.999H1.188c-0.179-0.001-0.354-0.048-0.506-0.138c-0.476-0.281-0.634-0.895-0.354-1.37L7.811,4.863V0.5
		c0-0.169,0.084-0.325,0.225-0.417C8.118,0.029,8.213,0,8.311,0c0.068,0,0.134,0.014,0.197,0.04L11.213,1.2
		c0.246,0.107,0.436,0.302,0.534,0.55c0.098,0.248,0.094,0.52-0.012,0.765c-0.069,0.16-0.18,0.3-0.32,0.405L10.67,3.48
		c-0.088,0.066-0.192,0.1-0.3,0.1c-0.157,0-0.306-0.075-0.4-0.2c-0.165-0.22-0.121-0.535,0.1-0.7l0.747-0.561L8.811,1.259v3.604
		l3.93,6.632c0.14,0.237,0.062,0.545-0.175,0.685c-0.077,0.046-0.165,0.07-0.255,0.07c-0.176,0-0.341-0.094-0.43-0.245l-3.57-6.024
		L1.189,18l3.84-0.001l2.425-4.041c0.137-0.229,0.355-0.391,0.614-0.456c0.08-0.02,0.163-0.031,0.245-0.031
		c0.18,0,0.357,0.049,0.512,0.142c0.142,0.085,0.261,0.205,0.345,0.345l2.424,4.04h0.716c0.276,0,0.5,0.224,0.5,0.5
		s-0.224,0.5-0.5,0.5h-0.977C11.326,19,11.318,19,11.312,19S11.298,19,11.29,18.999z M10.428,17.999c0,0-2.116-3.527-2.117-3.527
		l-2.116,3.527H10.428z"/>
</g>
</svg>
