<?xml version="1.0" encoding="utf-8"?>
<!-- Generator: Adobe Illustrator 22.1.0, SVG Export Plug-In . SVG Version: 6.00 Build 0)  -->
<svg version="1.1" id="Layer_1" xmlns="http://www.w3.org/2000/svg" xmlns:xlink="http://www.w3.org/1999/xlink" x="0px" y="0px"
	 viewBox="0 0 24 24" style="enable-background:new 0 0 24 24;" xml:space="preserve">
<g>
	<title>science-fiction-ship</title>
	<path d="M7.962,9.992c-0.276,0-0.5-0.224-0.5-0.5s0.224-0.5,0.5-0.5h8c0.276,0,0.5,0.224,0.5,0.5s-0.224,0.5-0.5,0.5H7.962z"/>
	<path d="M7.962,11.992c-0.276,0-0.5-0.224-0.5-0.5s0.224-0.5,0.5-0.5h8c0.276,0,0.5,0.224,0.5,0.5s-0.224,0.5-0.5,0.5H7.962z"/>
	<path d="M9.962,17.992c-0.551,0-1-0.448-1-1v-3c0-0.552,0.449-1,1-1h2c0.552,0,1,0.448,1,1v3c0,0.552-0.448,1-1,1H9.962z
		 M9.962,16.992h2v-3h-2L9.962,16.992z"/>
	<path d="M15.462,15.492c-0.276,0-0.5-0.224-0.5-0.5v-1.5c0-0.276,0.224-0.5,0.5-0.5s0.5,0.224,0.5,0.5v1.5
		C15.962,15.267,15.737,15.492,15.462,15.492z"/>
	<path d="M11.962,5.992c-1.103,0-2-0.897-2-2s0.897-2,2-2s2,0.897,2,2S13.064,5.992,11.962,5.992z M11.962,2.992
		c-0.551,0-1,0.449-1,1s0.449,1,1,1c0.552,0,1-0.449,1-1S12.513,2.992,11.962,2.992z"/>
	<path d="M15.462,6.242c-0.413-0.001-0.749-0.337-0.75-0.748c0-0.415,0.336-0.752,0.75-0.752s0.75,0.336,0.75,0.75
		c-0.001,0.413-0.337,0.749-0.748,0.75C15.463,6.242,15.463,6.242,15.462,6.242L15.462,6.242z"/>
	<path d="M18.969,24.011c-0.454,0-0.832-0.361-0.861-0.821c-0.007-0.107,0.006-0.215,0.039-0.318l0.719-2.88h-4.64l0.729,2.907
		c0.063,0.195,0.041,0.433-0.065,0.638c-0.108,0.208-0.29,0.361-0.513,0.432c-0.085,0.027-0.176,0.041-0.269,0.041l-0.049-0.001
		L10.05,24.01c-0.002,0-0.019,0.001-0.037,0.001c-0.204,0-0.405-0.077-0.565-0.218c-0.176-0.154-0.281-0.367-0.297-0.601
		c-0.007-0.11,0.006-0.219,0.039-0.323l0.717-2.878H5.143l0.729,2.907c0.025,0.074,0.038,0.183,0.031,0.29
		c-0.029,0.46-0.416,0.821-0.88,0.821l-0.046-0.001L0.965,24.01c0.003,0-0.013,0.001-0.03,0.001c-0.083,0-0.171-0.014-0.257-0.041
		c-0.462-0.147-0.718-0.64-0.572-1.101l0.856-3.439v-7.939c0-2.639,1.357-4.223,3.822-4.465c0.059-0.024,0.118-0.035,0.178-0.035
		c0-1.87,0.729-3.628,2.052-4.949c1.322-1.321,3.079-2.049,4.948-2.049c3.86,0.001,6.999,3.14,7,6.998v0
		c0.055,0,0.11,0.01,0.164,0.029c2.545,0.212,3.836,1.716,3.836,4.471v7.932l0.949,3.465c0.141,0.445-0.115,0.934-0.575,1.081
		c-0.088,0.027-0.178,0.041-0.269,0.041c-0.017,0-0.033,0-0.05-0.001l-4.012,0.001C19.003,24.01,18.986,24.011,18.969,24.011z
		 M19.141,23.011l3.766-0.001l-0.828-3.018h-2.184L19.141,23.011z M1.1,23.01l3.77-0.001l-0.758-3.018h-2.26L1.1,23.01z
		 M10.185,23.01l3.768-0.001l-0.758-3.018h-2.257L10.185,23.01z M21.962,18.992v-7.5c0-2.286-0.901-3.34-3-3.48v10.98H21.962z
		 M17.962,18.992v-11h-12v11H17.962z M4.962,18.992V8.014c-2.018,0.158-3,1.298-3,3.477v7.5H4.962z M17.962,6.992
		c-0.001-3.306-2.692-5.997-5.999-5.998l-0.002-0.25v0.25c-3.307,0-5.999,2.691-6,5.998v0H17.962z"/>
</g>
</svg>
