<?xml version="1.0" encoding="utf-8"?>
<!-- Generator: Adobe Illustrator 22.1.0, SVG Export Plug-In . SVG Version: 6.00 Build 0)  -->
<svg version="1.1" id="Layer_1" xmlns="http://www.w3.org/2000/svg" xmlns:xlink="http://www.w3.org/1999/xlink" x="0px" y="0px"
	 viewBox="0 0 24 24" style="enable-background:new 0 0 24 24;" xml:space="preserve">
<g>
	<title>science-fiction-weapon</title>
	<path d="M23.108,22.01c-0.022,0-0.044-0.001-0.067-0.003l-6.969,0.001c-0.314,0-0.574-0.137-0.712-0.377
		c-0.139-0.239-0.129-0.533,0.028-0.806l0.191-0.334c0.512-1.016,0.69-2.211,0.494-3.353l-0.22-0.97h-1.28
		c-1.393-0.065-2.604-0.936-3.099-2.22l-0.375-1.121c-0.017-0.052-0.026-0.105-0.026-0.159v-4.5h-0.999v4c0,0.276-0.224,0.5-0.5,0.5
		s-0.5-0.224-0.5-0.5v-4h-1v3c0,0.276-0.224,0.5-0.5,0.5s-0.5-0.224-0.5-0.5v-3h-1v2c0,0.276-0.224,0.5-0.5,0.5s-0.5-0.224-0.5-0.5
		v-2H4.007c-0.225,0.869-1.021,1.5-1.934,1.5c-1.103,0-2-0.897-2-2s0.897-2,2-2c0.913,0,1.709,0.631,1.934,1.5h1.066v-2
		c0-0.276,0.224-0.5,0.5-0.5s0.5,0.224,0.5,0.5v2h1v-3c0-0.276,0.224-0.5,0.5-0.5s0.5,0.224,0.5,0.5v3h1v-4
		c0-0.276,0.224-0.5,0.5-0.5s0.5,0.224,0.5,0.5v4h0.999v-2c0-0.741,0.683-1.447,1.974-2.041c1.494-0.687,3.577-1.114,5.436-1.114
		c1.336,0,3.187,0.221,4.415,1.275c0.118,0.101,0.183,0.254,0.173,0.409c-0.009,0.155-0.092,0.3-0.222,0.386
		c-2.456,1.638-3.462,4.717-2.446,7.489l3.459,9.281c0.057,0.119,0.082,0.272,0.064,0.424C23.882,21.694,23.529,22.01,23.108,22.01z
		 M22.853,21.008l-2.922-7.84h-3.733l0.855,3.776c0.236,1.374,0.023,2.797-0.594,4.021l-0.024,0.042L22.853,21.008z M12.414,13.609
		c0.345,0.897,1.203,1.513,2.181,1.559l1.03,0l-0.453-2h-2.906L12.414,13.609z M19.558,12.168l-0.093-0.248
		c-1.095-2.988-0.191-6.251,2.247-8.238c-0.791-0.436-1.9-0.664-3.233-0.664c-1.728,0-3.649,0.39-5.015,1.018
		c-0.962,0.442-1.392,0.887-1.392,1.132v2.479c0.001,0.007,0.001,0.015,0.001,0.021s0,0.014-0.001,0.021v4.479H19.558z M2.073,6.668
		c-0.551,0-1,0.449-1,1s0.449,1,1,1s1-0.449,1-1S2.624,6.668,2.073,6.668z"/>
	<path d="M14.072,9.168c-0.552,0-1-0.449-1-1v-1c0-0.551,0.448-1,1-1h3c0.552,0,1,0.449,1,1v1c0,0.551-0.448,1-1,1H14.072z
		 M14.072,8.168h3v-1h-3L14.072,8.168z"/>
</g>
</svg>
