<?xml version="1.0" encoding="utf-8"?>
<!-- Generator: Adobe Illustrator 22.1.0, SVG Export Plug-In . SVG Version: 6.00 Build 0)  -->
<svg version="1.1" id="Layer_1" xmlns="http://www.w3.org/2000/svg" xmlns:xlink="http://www.w3.org/1999/xlink" x="0px" y="0px"
	 viewBox="0 0 24 24" style="enable-background:new 0 0 24 24;" xml:space="preserve">
<g>
	<title>science-fiction-alien</title>
	<path d="M16.037,24.001c-1.179,0-2.196-0.841-2.417-2l-0.372-1.943c-0.096-0.536-0.5-0.948-1.03-1.052
		c-0.083-0.016-0.168-0.025-0.252-0.025c-0.619,0-1.155,0.441-1.274,1.05l-0.428,2.052C10.032,23.194,9.041,24,7.906,24
		c-0.643,0-1.247-0.251-1.702-0.706c-0.455-0.455-0.705-1.06-0.705-1.701V12.5c0-2.1,1.013-4.062,2.72-5.285L7.503,5.113
		C7.388,5.134,7.273,5.145,7.16,5.145c-0.771,0-1.46-0.429-1.799-1.12C4.878,3.037,5.286,1.838,6.272,1.352
		c0.281-0.138,0.578-0.208,0.885-0.208c0.22,0,0.438,0.036,0.648,0.109c0.505,0.173,0.913,0.533,1.148,1.012
		c0.412,0.84,0.179,1.851-0.536,2.431l0.678,1.991c0.747-0.374,1.569-0.602,2.403-0.666V3.934c-0.869-0.225-1.5-1.021-1.5-1.934
		c0-1.103,0.897-2,2-2s2,0.897,2,2c0,0.913-0.631,1.709-1.5,1.934v2.086c0.844,0.065,1.674,0.297,2.428,0.679l0.688-1.973
		c-0.31-0.238-0.538-0.557-0.667-0.934c-0.173-0.505-0.139-1.048,0.096-1.528c0.235-0.48,0.643-0.839,1.148-1.012
		c0.211-0.072,0.429-0.109,0.649-0.109c0.306,0,0.601,0.069,0.879,0.205c0.989,0.488,1.4,1.689,0.916,2.676
		c-0.235,0.48-0.643,0.839-1.148,1.012c-0.211,0.072-0.429,0.109-0.649,0.109c-0.099,0-0.2-0.008-0.302-0.025l-0.737,2.11
		c1.693,1.224,2.698,3.18,2.698,5.269v9.038c0,1.18-0.84,2.197-1.999,2.419C16.347,23.986,16.191,24.001,16.037,24.001z
		 M11.966,17.982c0.149,0,0.298,0.015,0.444,0.043c0.937,0.184,1.652,0.911,1.821,1.851l0.371,1.937
		c0.073,0.384,0.292,0.716,0.615,0.935c0.244,0.165,0.526,0.253,0.817,0.253c0.093,0,0.187-0.009,0.279-0.027
		c0.688-0.132,1.188-0.736,1.187-1.437V12.5c0-3.033-2.467-5.5-5.5-5.5s-5.5,2.467-5.5,5.5v9.093C6.499,22.369,7.13,23,7.906,23
		c0.663,0,1.243-0.471,1.378-1.121l0.427-2.046C9.921,18.762,10.87,17.982,11.966,17.982z M16.842,2.144
		c-0.11,0-0.219,0.018-0.324,0.054c-0.253,0.087-0.457,0.266-0.574,0.506c-0.118,0.24-0.135,0.511-0.048,0.764
		c0.086,0.253,0.266,0.456,0.506,0.574c0.139,0.068,0.286,0.103,0.439,0.103c0.11,0,0.219-0.018,0.325-0.055
		c0.253-0.087,0.457-0.266,0.574-0.506c0.242-0.494,0.038-1.093-0.455-1.337C17.144,2.179,16.995,2.144,16.842,2.144z M7.156,2.144
		c-0.152,0-0.3,0.035-0.439,0.103c-0.494,0.244-0.7,0.844-0.458,1.338c0.118,0.24,0.322,0.42,0.574,0.506
		C6.94,4.127,7.049,4.146,7.159,4.146c0.152,0,0.3-0.035,0.438-0.103C8.093,3.8,8.298,3.2,8.056,2.705
		c-0.118-0.24-0.322-0.42-0.574-0.506C7.376,2.162,7.266,2.144,7.156,2.144z M11.999,1c-0.551,0-1,0.449-1,1s0.449,1,1,1
		c0.552,0,1-0.449,1-1S12.551,1,11.999,1z"/>
	<path d="M11.999,16c-2.206,0-4-1.794-4-4s1.794-4,4-4s4,1.794,4,4S14.205,16,11.999,16z M11.999,9c-1.654,0-3,1.346-3,3
		c0,1.654,1.346,3,3,3c1.654,0,3-1.346,3-3C14.999,10.346,13.654,9,11.999,9z"/>
	<path d="M11.999,13.5c-0.827,0-1.5-0.673-1.5-1.5s0.673-1.5,1.5-1.5s1.5,0.673,1.5,1.5S12.827,13.5,11.999,13.5z M11.999,11.5
		c-0.276,0-0.5,0.224-0.5,0.5c0,0.276,0.224,0.5,0.5,0.5c0.276,0,0.5-0.224,0.5-0.5C12.499,11.724,12.275,11.5,11.999,11.5z"/>
</g>
</svg>
