<?xml version="1.0" encoding="utf-8"?>
<!-- Generator: Adobe Illustrator 22.1.0, SVG Export Plug-In . SVG Version: 6.00 Build 0)  -->
<svg version="1.1" id="Layer_1" xmlns="http://www.w3.org/2000/svg" xmlns:xlink="http://www.w3.org/1999/xlink" x="0px" y="0px"
	 viewBox="0 0 24 24" style="enable-background:new 0 0 24 24;" xml:space="preserve">
<g>
	<title>modern-architecture-cloud</title>
	<path d="M0.503,24c-0.276,0-0.5-0.224-0.5-0.5s0.224-0.5,0.5-0.5h2.499v-2H2.159c-0.088,0-0.177-0.012-0.263-0.035
		c-0.258-0.07-0.473-0.237-0.605-0.469c-0.132-0.232-0.166-0.502-0.096-0.759L6.068,2.013c0.091-0.329,0.34-0.586,0.665-0.688
		c0.097-0.031,0.198-0.046,0.3-0.046c0.16,0,0.32,0.04,0.463,0.114c0.236,0.124,0.411,0.332,0.491,0.587l1.563,5l1.436-3.731
		c0.114-0.296,0.365-0.522,0.671-0.605c0.086-0.024,0.175-0.035,0.263-0.035c0.173,0,0.344,0.046,0.496,0.133
		c0.232,0.133,0.398,0.348,0.468,0.606l4.428,16.392c0.023,0.085,0.034,0.172,0.034,0.26c0,0.267-0.103,0.518-0.292,0.707
		S16.614,21,16.347,21h-0.348v2h7.498c0.276,0,0.5,0.224,0.5,0.5s-0.224,0.5-0.5,0.5H0.503z M14.999,23v-2H13v2H14.999z M12,23v-2
		h-1.999v2H12z M9.001,23v-2h-2v2H9.001z M6.001,23v-2H4.002v2H6.001z M2.159,20l1.289,0c0.015-0.003,0.033-0.005,0.054-0.005
		c0.014,0,0.033,0.002,0.05,0.005h5.448V8.58l-1.969-6.3L5.183,9.003h1.318c0.276,0,0.5,0.224,0.5,0.5s-0.224,0.5-0.5,0.5H4.908
		l-0.275,1h1.868c0.276,0,0.5,0.224,0.5,0.5s-0.224,0.5-0.5,0.5H4.358l-0.275,0.999h2.417c0.276,0,0.5,0.224,0.5,0.5
		s-0.224,0.5-0.5,0.5H3.809L2.159,20z M16.345,20l-0.54-1.999H12.5c-0.276,0-0.5-0.224-0.5-0.5s0.224-0.5,0.5-0.5h3.035l-0.27-0.999
		H12.5c-0.276,0-0.5-0.224-0.5-0.5s0.224-0.5,0.5-0.5h2.495L11.917,3.608L10.001,8.59V20h5.444c0.015-0.003,0.033-0.005,0.053-0.005
		c0.014,0,0.033,0.002,0.051,0.005H16.345z"/>
	<path d="M17.5,6c-0.515,0-0.998-0.189-1.368-0.533c-0.392-0.363-0.619-0.857-0.639-1.391c-0.021-0.534,0.168-1.044,0.532-1.435
		c0.377-0.406,0.912-0.639,1.468-0.639c0.222,0,0.442,0.037,0.651,0.109C18.525,0.871,19.685,0,21.009,0
		c0.812,0.003,1.565,0.318,2.129,0.886c0.564,0.569,0.874,1.323,0.871,2.125c-0.003,0.802-0.318,1.554-0.886,2.118
		C22.557,5.691,21.806,6,21.009,6H17.5z M17.491,3.001c-0.278,0-0.545,0.116-0.734,0.319c-0.182,0.196-0.276,0.451-0.266,0.718
		c0.01,0.267,0.124,0.514,0.32,0.695C17,4.908,17.23,5,17.478,5L21,5c0.541,0,1.041-0.206,1.418-0.581
		c0.379-0.376,0.589-0.878,0.591-1.412c0.002-0.534-0.204-1.037-0.581-1.416C22.052,1.212,21.55,1.002,21.016,1
		c-1.084,0-1.962,0.843-2.005,1.92c-0.008,0.194-0.129,0.368-0.309,0.442C18.641,3.387,18.577,3.4,18.511,3.4
		c-0.127,0-0.248-0.047-0.34-0.133C17.986,3.095,17.745,3.001,17.491,3.001z"/>
</g>
</svg>
