<?xml version="1.0" encoding="utf-8"?>
<!-- Generator: Adobe Illustrator 22.1.0, SVG Export Plug-In . SVG Version: 6.00 Build 0)  -->
<svg version="1.1" id="Layer_1" xmlns="http://www.w3.org/2000/svg" xmlns:xlink="http://www.w3.org/1999/xlink" x="0px" y="0px"
	 viewBox="0 0 24 24" style="enable-background:new 0 0 24 24;" xml:space="preserve">
<g>
	<title>modern-architecture-building-1</title>
	<path d="M0.5,23C0.224,23,0,22.776,0,22.5S0.224,22,0.5,22H2V2c0-0.551,0.449-1,1-1h18c0.552,0,1,0.449,1,1v20h1.5
		c0.276,0,0.5,0.224,0.5,0.5S23.776,23,23.5,23H0.5z M21,22V2H3v5h11.5C15.327,7,16,7.673,16,8.5V22H21z M15,22v-5H9.5
		C8.673,17,8,16.327,8,15.5V8H3v14h2v-2c0-0.552,0.449-1,1-1h3c0.551,0,1,0.448,1,1v2H15z M9,22v-2H6l0,2H9z M9,15.5
		C9,15.776,9.224,16,9.5,16H15V8.5C15,8.224,14.776,8,14.5,8H9V15.5z"/>
	<path d="M17.5,8C17.224,8,17,7.776,17,7.5S17.224,7,17.5,7h2C19.776,7,20,7.224,20,7.5S19.776,8,19.5,8H17.5z"/>
	<path d="M17.5,10C17.224,10,17,9.776,17,9.5S17.224,9,17.5,9h2C19.776,9,20,9.224,20,9.5S19.776,10,19.5,10H17.5z"/>
	<path d="M17.5,12c-0.276,0-0.5-0.224-0.5-0.5s0.224-0.5,0.5-0.5h2c0.276,0,0.5,0.224,0.5,0.5S19.776,12,19.5,12H17.5z"/>
	<path d="M17.5,14c-0.276,0-0.5-0.224-0.5-0.5s0.224-0.5,0.5-0.5h2c0.276,0,0.5,0.224,0.5,0.5S19.776,14,19.5,14H17.5z"/>
	<path d="M4.5,11C4.224,11,4,10.776,4,10.5S4.224,10,4.5,10h2C6.776,10,7,10.224,7,10.5S6.776,11,6.5,11H4.5z"/>
	<path d="M4.5,13C4.224,13,4,12.776,4,12.5C4,12.224,4.224,12,4.5,12h2C6.776,12,7,12.224,7,12.5C7,12.776,6.776,13,6.5,13H4.5z"/>
	<path d="M4.5,15C4.224,15,4,14.776,4,14.5S4.224,14,4.5,14h2C6.776,14,7,14.224,7,14.5S4.5,15,4.5,15z"/>
	<path d="M4.5,17C4.224,17,4,16.776,4,16.5S4.224,16,4.5,16h2C6.776,16,7,16.224,7,16.5S6.776,17,6.5,17H4.5z"/>
	<path d="M17.5,16c-0.276,0-0.5-0.224-0.5-0.5s0.224-0.5,0.5-0.5h2c0.276,0,0.5,0.224,0.5,0.5S19.776,16,19.5,16H17.5z"/>
	<path d="M17.5,18c-0.276,0-0.5-0.224-0.5-0.5s0.224-0.5,0.5-0.5h2c0.276,0,0.5,0.224,0.5,0.5S19.776,18,19.5,18H17.5z"/>
	<path d="M17.5,20c-0.276,0-0.5-0.224-0.5-0.5s0.224-0.5,0.5-0.5h2c0.276,0,0.5,0.224,0.5,0.5S19.776,20,19.5,20H17.5z"/>
</g>
</svg>
