<?xml version="1.0" encoding="utf-8"?>
<!-- Generator: Adobe Illustrator 22.1.0, SVG Export Plug-In . SVG Version: 6.00 Build 0)  -->
<svg version="1.1" id="Layer_1" xmlns="http://www.w3.org/2000/svg" xmlns:xlink="http://www.w3.org/1999/xlink" x="0px" y="0px"
	 viewBox="0 0 24 24" style="enable-background:new 0 0 24 24;" xml:space="preserve">
<g>
	<title>modern-architecture-twin-building</title>
	<path d="M13.508,23.764c-0.276,0-0.5-0.224-0.5-0.5s0.224-0.5,0.5-0.5h0.5v-8h-4v8h0.484c0.276,0,0.5,0.224,0.5,0.5
		s-0.224,0.5-0.5,0.5H0.508c-0.276,0-0.5-0.224-0.5-0.5s0.224-0.5,0.5-0.5h0.5v-14c0-0.551,0.449-1,1-1v-2.5
		c0-0.016,0.002-0.036,0.006-0.055C2.018,5.177,2.025,5.151,2.03,5.133c0.005-0.019,0.013-0.046,0.025-0.075
		C2.062,5.041,2.07,5.023,2.077,5.01l2.544-4.284c0.138-0.23,0.356-0.393,0.615-0.458c0.08-0.02,0.163-0.03,0.245-0.03
		c0.18,0,0.357,0.049,0.512,0.142c0.14,0.084,0.26,0.203,0.344,0.344l2.599,4.285c0.008,0.013,0.015,0.029,0.021,0.045
		c0.015,0.032,0.023,0.06,0.029,0.083C8.993,5.157,9,5.184,9.003,5.215c0.003,0.017,0.005,0.034,0.005,0.049v2.5
		c0.551,0,1,0.449,1,1v2h4v-2c0-0.551,0.448-1,1-1v-2.5c0-0.016,0.002-0.035,0.006-0.053c0.003-0.03,0.011-0.058,0.016-0.077
		c0.006-0.02,0.013-0.047,0.026-0.077c0.006-0.017,0.014-0.036,0.023-0.049l2.542-4.282c0.138-0.23,0.356-0.393,0.615-0.458
		c0.08-0.02,0.163-0.03,0.245-0.03c0.18,0,0.357,0.049,0.512,0.142c0.141,0.084,0.26,0.203,0.344,0.345l2.599,4.284
		c0.008,0.014,0.016,0.031,0.022,0.047c0.015,0.033,0.022,0.06,0.028,0.081c0.005,0.015,0.012,0.043,0.016,0.078
		c0.003,0.017,0.005,0.034,0.005,0.049v2.5c0.552,0,1,0.449,1,1v14h0.484c0.276,0,0.5,0.224,0.5,0.5s-0.224,0.5-0.5,0.5H13.508z
		 M22.008,22.764v-14h-7l0,14H22.008z M9.008,22.764v-14h-7l0,14H9.008z M14.008,13.764v-2h-4v2H14.008z M21.008,7.764v-2h-5v2
		H21.008z M8.008,7.764v-2h-5v2H8.008z M20.618,4.764l-2.138-3.525l-2.094,3.525H20.618z M7.619,4.764L5.48,1.238
		c0,0-2.094,3.526-2.094,3.526H7.619z"/>
	<path d="M16.508,11.764c-0.276,0-0.5-0.224-0.5-0.5s0.224-0.5,0.5-0.5h3.984c0.276,0,0.5,0.224,0.5,0.5s-0.224,0.5-0.5,0.5H16.508z
		"/>
	<path d="M16.508,19.764c-0.276,0-0.5-0.224-0.5-0.5s0.224-0.5,0.5-0.5h3.984c0.276,0,0.5,0.224,0.5,0.5s-0.224,0.5-0.5,0.5H16.508z
		"/>
	<path d="M3.508,11.764c-0.276,0-0.5-0.224-0.5-0.5s0.224-0.5,0.5-0.5h3.984c0.276,0,0.5,0.224,0.5,0.5s-0.224,0.5-0.5,0.5H3.508z"
		/>
	<path d="M3.508,15.764c-0.276,0-0.5-0.224-0.5-0.5s0.224-0.5,0.5-0.5h3.984c0.276,0,0.5,0.224,0.5,0.5s-0.224,0.5-0.5,0.5H3.508z"
		/>
	<path d="M3.508,19.764c-0.276,0-0.5-0.224-0.5-0.5s0.224-0.5,0.5-0.5h3.984c0.276,0,0.5,0.224,0.5,0.5s-0.224,0.5-0.5,0.5H3.508z"
		/>
	<path d="M16.511,15.764c-0.276,0-0.5-0.224-0.5-0.5s0.224-0.5,0.5-0.5h3.984c0.276,0,0.5,0.224,0.5,0.5s-0.224,0.5-0.5,0.5H16.511z
		"/>
</g>
</svg>
