<?xml version="1.0" encoding="utf-8"?>
<!-- Generator: Adobe Illustrator 22.1.0, SVG Export Plug-In . SVG Version: 6.00 Build 0)  -->
<svg version="1.1" id="Layer_1" xmlns="http://www.w3.org/2000/svg" xmlns:xlink="http://www.w3.org/1999/xlink" x="0px" y="0px"
	 viewBox="0 0 24 24" style="enable-background:new 0 0 24 24;" xml:space="preserve">
<g>
	<title>landmark-hagia-sophia</title>
	<path d="M1.5,2C1.224,2,1,1.776,1,1.5v-1C1,0.224,1.224,0,1.5,0S2,0.224,2,0.5v1C2,1.776,1.776,2,1.5,2z"/>
	<path d="M1.5,24C0.673,24,0,23.327,0,22.5v-15c0-0.009,0.001-0.018,0.002-0.028c0-0.011,0.001-0.023,0.002-0.036l0.438-3.497
		c0.033-0.28,0.175-0.533,0.399-0.709c0.19-0.149,0.417-0.228,0.658-0.228c0.042,0,0.084,0.002,0.127,0.007
		C2.117,3.067,2.5,3.451,2.558,3.941l0.438,3.497C2.999,7.458,3,7.479,3,7.5v10.054c0.535-0.545,1.24-0.907,2-1.017V14.5
		C5,13.673,5.673,13,6.5,13S8,13.673,8,14.5v2C8,16.776,7.776,17,7.5,17S7,16.776,7,16.5v-2C7,14.224,6.776,14,6.5,14
		S6,14.224,6,14.5v4C6,18.776,5.776,19,5.5,19S5,18.776,5,18.5v-0.948C3.859,17.787,3,18.813,3,20c0,0.276-0.224,0.5-0.5,0.5
		S2,20.276,2,20V8H1v14.5C1,22.776,1.224,23,1.5,23h21c0.276,0,0.5-0.224,0.5-0.5V8h-1v12c0,0.276-0.224,0.5-0.5,0.5
		S21,20.276,21,20c0-1.187-0.859-2.213-2-2.448V18.5c0,0.276-0.224,0.5-0.5,0.5S18,18.776,18,18.5v-4c0-0.276-0.224-0.5-0.5-0.5
		S17,14.224,17,14.5v2c0,0.276-0.224,0.5-0.5,0.5S16,16.776,16,16.5v-2c0-0.827,0.673-1.5,1.5-1.5s1.5,0.673,1.5,1.5v2.037
		c0.76,0.11,1.465,0.472,2,1.017V7.5c0-0.02,0.001-0.041,0.004-0.061l0.438-3.501c0.058-0.488,0.441-0.871,0.931-0.929
		c0.043-0.005,0.085-0.008,0.127-0.008c0.241,0,0.468,0.079,0.658,0.228c0.224,0.176,0.366,0.429,0.4,0.711l0.438,3.497
		c0.001,0.008,0.002,0.018,0.002,0.028C23.999,7.476,24,7.488,24,7.5v15c0,0.827-0.673,1.5-1.5,1.5H1.5z M22.934,7l-0.368-2.938
		c-0.002-0.021-0.011-0.035-0.025-0.047c-0.012-0.009-0.026-0.014-0.04-0.014l-0.008,0c-0.031,0.004-0.055,0.027-0.058,0.058
		L22.066,7H22.934z M1.934,7L1.566,4.062c-0.004-0.033-0.027-0.057-0.058-0.06L1.499,4.001c-0.014,0-0.027,0.005-0.04,0.014
		C1.445,4.026,1.437,4.041,1.435,4.059L1.066,7H1.934z"/>
	<path d="M14.5,18c-0.276,0-0.5-0.224-0.5-0.5V16h-4v1.5c0,0.276-0.224,0.5-0.5,0.5S9,17.776,9,17.5V15c0-1.654,1.346-3,3-3
		c1.654,0,3,1.346,3,3v2.5C15,17.776,14.776,18,14.5,18z M14,15c0-1.103-0.897-2-2-2s-2,0.897-2,2H14z"/>
	<path d="M16.5,12c-0.276,0-0.5-0.224-0.5-0.5V10H8v1.5C8,11.776,7.776,12,7.5,12S7,11.776,7,11.5v-2c0-2.578,1.958-4.716,4.5-4.969
		V4c0-0.276,0.224-0.5,0.5-0.5c0.276,0,0.5,0.224,0.5,0.5v0.531C15.042,4.784,17,6.922,17,9.5v2C17,11.776,16.776,12,16.5,12z
		 M15.969,9C15.721,7.017,14.027,5.5,12,5.5C9.973,5.5,8.279,7.017,8.031,9H15.969z"/>
	<path d="M22.5,2C22.224,2,22,1.776,22,1.5v-1C22,0.224,22.224,0,22.5,0S23,0.224,23,0.5v1C23,1.776,22.776,2,22.5,2z"/>
	<path d="M14.5,22c-0.252,0-0.466-0.189-0.496-0.439c-0.113-0.911-0.858-1.572-1.773-1.572c-0.06,0-0.121,0.003-0.182,0.009
		C12.041,19.998,12.008,20,12,20c-0.016,0-0.031-0.001-0.047-0.002c-0.063-0.006-0.123-0.009-0.183-0.009
		c-0.915,0-1.661,0.661-1.774,1.573C9.965,21.812,9.752,22,9.5,22h-4C5.224,22,5,21.776,5,21.5S5.224,21,5.5,21h3.593
		c0.341-1.194,1.415-2.011,2.679-2.011c0.075,0,0.152,0.003,0.228,0.009c0.077-0.006,0.153-0.009,0.229-0.009
		c1.263,0,2.337,0.817,2.678,2.011H18.5c0.276,0,0.5,0.224,0.5,0.5S18.776,22,18.5,22H14.5z"/>
</g>
</svg>
