<?xml version="1.0" encoding="utf-8"?>
<!-- Generator: Adobe Illustrator 22.1.0, SVG Export Plug-In . SVG Version: 6.00 Build 0)  -->
<svg version="1.1" id="Layer_1" xmlns="http://www.w3.org/2000/svg" xmlns:xlink="http://www.w3.org/1999/xlink" x="0px" y="0px"
	 viewBox="0 0 24 24" style="enable-background:new 0 0 24 24;" xml:space="preserve">
<g>
	<title>landmark-taj-mahal</title>
	<path d="M1,24c-0.551,0-1-0.448-1-1V13c0-0.552,0.449-1,1-1h2c0.551,0,1,0.448,1,1v2h3.976C6.693,14.219,6,12.987,6,11.443
		c0-2.444,4.328-5.114,5.5-5.791V4.634c-0.571-0.241-1.027-0.68-1.29-1.247c-0.282-0.605-0.311-1.284-0.082-1.912
		c0.233-0.639,0.724-1.161,1.347-1.434C11.539,0.014,11.606,0,11.675,0c0.199,0,0.379,0.118,0.458,0.3
		c0.11,0.253-0.005,0.548-0.258,0.658c-0.374,0.163-0.668,0.477-0.808,0.86c-0.137,0.376-0.12,0.784,0.049,1.147
		c0.169,0.363,0.469,0.639,0.846,0.776c0.166,0.06,0.338,0.091,0.513,0.091c0.629,0,1.196-0.396,1.411-0.986
		c0.072-0.197,0.261-0.328,0.47-0.328c0.058,0,0.116,0.01,0.171,0.03c0.26,0.095,0.393,0.382,0.299,0.641
		c-0.356,0.975-1.288,1.632-2.325,1.643v0.819c1.172,0.678,5.5,3.348,5.5,5.791c0,1.544-0.693,2.776-1.976,3.557H20v-2
		c0-0.552,0.448-1,1-1h2c0.552,0,1,0.448,1,1v10c0,0.552-0.448,1-1,1H1z M23,23V13h-2l0,10H23z M20,23v-7H4v7h1v-4
		c0-1.103,0.897-2,2-2s2,0.897,2,2v4h1v-4c0-1.103,0.897-2,2-2s2,0.897,2,2v4h1v-4c0-1.103,0.897-2,2-2s2,0.897,2,2v4H20z M18,23v-4
		c0-0.552-0.448-1-1-1s-1,0.448-1,1v4H18z M13,23v-4c0-0.552-0.448-1-1-1c-0.551,0-1,0.448-1,1v4H13z M8,23v-4c0-0.552-0.449-1-1-1
		s-1,0.448-1,1v4H8z M1,23h2V13l-2,0L1,23z M12,6.519C11.568,6.77,10.549,7.387,9.551,8.16C7.906,9.434,7,10.6,7,11.443
		c0,2.224,1.822,3.5,5,3.5c3.177,0,5-1.276,5-3.5c0-0.843-0.908-2.01-2.556-3.286C13.446,7.384,12.43,6.769,12,6.519z"/>
	<path d="M22,10.722c-1.103,0-2-0.897-2-2c0-0.042,0.005-0.083,0.015-0.123c0.212-0.839,0.637-1.618,1.228-2.252
		c0.143-0.182,0.382-0.312,0.645-0.341C21.925,6.002,21.964,6,22.001,6c0.224,0,0.445,0.078,0.622,0.218
		c0.057,0.045,0.111,0.098,0.158,0.158c0.57,0.61,0.99,1.384,1.203,2.224C23.995,8.641,24,8.682,24,8.722
		C24,9.825,23.103,10.722,22,10.722z M21.001,8.78c0.03,0.523,0.471,0.942,0.999,0.942s0.968-0.42,0.999-0.942
		c-0.177-0.652-0.513-1.257-0.973-1.751c-0.014-0.017-0.02-0.024-0.025-0.028C21.518,7.519,21.178,8.129,21.001,8.78z"/>
	<path d="M2,10.722c-1.103,0-2-0.897-2-2C0,8.68,0.005,8.639,0.016,8.599C0.228,7.76,0.653,6.981,1.243,6.347
		c0.171-0.216,0.45-0.348,0.754-0.348c0.227,0,0.45,0.078,0.627,0.219c0.059,0.047,0.112,0.1,0.158,0.158
		c0.57,0.609,0.991,1.383,1.203,2.224C3.995,8.639,4,8.68,4,8.722C4,9.825,3.103,10.722,2,10.722z M1.002,8.78
		C1.032,9.302,1.473,9.722,2,9.722s0.968-0.42,0.998-0.942C2.822,8.128,2.486,7.523,2.025,7.029C2.01,7.011,2,7,2,7
		C1.519,7.518,1.178,8.128,1.002,8.78z"/>
</g>
</svg>
