<?xml version="1.0" encoding="utf-8"?>
<!-- Generator: Adobe Illustrator 22.1.0, SVG Export Plug-In . SVG Version: 6.00 Build 0)  -->
<svg version="1.1" id="Layer_1" xmlns="http://www.w3.org/2000/svg" xmlns:xlink="http://www.w3.org/1999/xlink" x="0px" y="0px"
	 viewBox="0 0 24 24" style="enable-background:new 0 0 24 24;" xml:space="preserve">
<g>
	<title>shop-dislike-circle</title>
	<path d="M7.043,24c-3.86,0-7-3.14-7-7c0-2.291,1.119-4.427,3-5.741V8.762C2.176,8.416,1.506,7.726,1.19,6.846
		C0.989,6.285,0.995,5.67,1.207,5.114l1.581-4.148C3.008,0.389,3.571,0,4.189,0h16.622c0.618,0,1.181,0.389,1.401,0.966l1.58,4.148
		c0.213,0.556,0.219,1.171,0.018,1.732c-0.304,0.846-0.943,1.523-1.768,1.881V20.5c0,0.276-0.224,0.5-0.5,0.5h-8.759
		C11.471,22.881,9.334,24,7.043,24z M7.043,11c-3.308,0-6,2.692-6,6s2.692,6,6,6s6-2.692,6-6S10.351,11,7.043,11z M21.043,20V8.984
		c-0.098,0.009-0.194,0.014-0.289,0.014c-0.871,0-1.686-0.337-2.3-0.95C18.281,7.875,18.129,7.685,18,7.481
		C17.41,8.417,16.376,9,15.25,9s-2.16-0.583-2.75-1.519C11.91,8.417,10.876,9,9.75,9C8.622,9,7.588,8.416,6.998,7.478
		c-0.385,0.61-0.967,1.083-1.65,1.328C4.994,8.933,4.626,8.998,4.252,8.998c-0.07,0-0.139-0.002-0.209-0.007v1.686
		C4.977,10.233,6.005,10,7.043,10c3.86,0,7,3.14,7,7c0,1.037-0.233,2.066-0.677,3H21.043z M12.5,5.25c0.276,0,0.5,0.224,0.5,0.5
		C13,6.991,14.009,8,15.25,8s2.25-1.009,2.25-2.25c0-0.276,0.224-0.5,0.5-0.5c0.276,0,0.5,0.224,0.5,0.499
		c0.001,1.24,1.011,2.249,2.251,2.249c0.948-0.001,1.799-0.6,2.118-1.49c0.12-0.335,0.116-0.704-0.011-1.038l-1.58-4.148
		C21.204,1.13,21.017,1,20.811,1H4.189C3.983,1,3.796,1.13,3.722,1.322L2.141,5.47c-0.127,0.334-0.131,0.702-0.01,1.039
		c0.32,0.891,1.172,1.489,2.121,1.489c0.258,0,0.513-0.045,0.759-0.133C5.9,7.546,6.498,6.696,6.5,5.751
		C6.5,5.474,6.725,5.25,7,5.25c0.276,0,0.5,0.224,0.5,0.5C7.5,6.991,8.509,8,9.75,8S12,6.991,12,5.75
		C12,5.474,12.224,5.25,12.5,5.25z"/>
	<path d="M7.627,21.671c-0.344,0-0.679-0.174-0.886-0.464L5.01,18.764c-0.039-0.056-0.104-0.089-0.172-0.089H4.543V19
		c0,0.276-0.224,0.5-0.5,0.5s-0.5-0.224-0.5-0.5v-0.781c-0.002-0.015-0.004-0.031-0.004-0.044c0-0.02,0.002-0.037,0.005-0.052
		L3.543,14c0-0.276,0.224-0.5,0.5-0.5c0.249,0,0.456,0.183,0.494,0.422c1.335-0.64,1.838-0.742,2.694-0.742
		c0.166,0,0.346,0.004,0.549,0.008C8.043,13.194,8.327,13.2,8.666,13.2c1.051,0,1.775,0.62,2.153,1.843l0.676,2.257
		c0.093,0.307,0.06,0.633-0.092,0.917s-0.406,0.492-0.714,0.585c-0.113,0.034-0.231,0.052-0.35,0.052H8.606
		c-0.063,0-0.126,0.031-0.165,0.081c-0.038,0.049-0.052,0.116-0.036,0.174l0.312,1.179c0.076,0.282,0.037,0.578-0.109,0.833
		c-0.147,0.255-0.384,0.437-0.667,0.513c-0.095,0.025-0.19,0.038-0.285,0.038l-0.009,0C7.644,21.671,7.628,21.671,7.627,21.671z
		 M4.839,17.675c0.392,0,0.761,0.191,0.987,0.511l1.73,2.44c0.018,0.025,0.053,0.044,0.083,0.044c0.028,0,0.038-0.002,0.044-0.004
		c0.024-0.007,0.045-0.023,0.059-0.047c0.013-0.023,0.017-0.05,0.01-0.076l-0.313-1.18c-0.095-0.36-0.016-0.75,0.213-1.044
		c0.23-0.297,0.578-0.468,0.954-0.468h1.734c0.021,0,0.041-0.003,0.061-0.009c0.052-0.016,0.096-0.051,0.122-0.1
		s0.032-0.104,0.016-0.157l-0.675-2.254C9.571,14.393,9.174,14.2,8.666,14.2c-0.355,0-0.651-0.006-0.908-0.012
		c-0.183-0.004-0.344-0.007-0.493-0.007c-0.793,0-1.181,0.085-2.722,0.851v2.643H4.839z"/>
</g>
</svg>
