<?xml version="1.0" encoding="utf-8"?>
<!-- Generator: Adobe Illustrator 22.1.0, SVG Export Plug-In . SVG Version: 6.00 Build 0)  -->
<svg version="1.1" id="Layer_1" xmlns="http://www.w3.org/2000/svg" xmlns:xlink="http://www.w3.org/1999/xlink" x="0px" y="0px"
	 viewBox="0 0 24 24" style="enable-background:new 0 0 24 24;" xml:space="preserve">
<g>
	<title>shop-cart</title>
	<path d="M3.5,23.5C2.673,23.5,2,22.827,2,22V9.17C1.68,9.029,1.387,8.841,1.126,8.609C0.377,7.942-0.033,6.985,0,5.983L0,5
		c0-0.013,0.001-0.028,0.004-0.042c0.004-0.045,0.014-0.088,0.029-0.13C0.033,4.827,0.034,4.824,0.036,4.82
		C0.04,4.806,0.045,4.793,0.051,4.78l1.726-3.451C2.032,0.818,2.546,0.5,3.118,0.5h17.764c0.573,0.001,1.087,0.321,1.342,0.833
		l1.724,3.443c0.005,0.011,0.011,0.026,0.015,0.038c0.002,0.006,0.004,0.012,0.006,0.016c0.015,0.041,0.025,0.086,0.029,0.132
		C23.999,4.975,24,4.988,24,5v0.996c0.045,1.364-0.752,2.621-2,3.175V22c0,0.827-0.673,1.5-1.5,1.5H3.5z M3,22
		c0,0.276,0.224,0.5,0.5,0.5h17c0.276,0,0.5-0.224,0.5-0.5V9.441c-0.083,0.01-0.165,0.016-0.243,0.019
		c-0.038,0.001-0.074,0.002-0.111,0.002c-0.753,0-1.475-0.247-2.062-0.701c-0.858,1.086-2.175,1.727-3.575,1.727
		c-0.81,0-1.607-0.218-2.306-0.632C12.453,9.707,12.217,9.536,12,9.344c-0.831,0.738-1.893,1.141-3.018,1.141
		c-1.121,0-2.198-0.411-3.031-1.157C5.757,9.154,5.577,8.963,5.416,8.759C4.832,9.21,4.113,9.456,3.363,9.456
		C3.242,9.456,3.121,9.449,3,9.436V22z M6,7.855c0.174,0.272,0.382,0.517,0.617,0.728c0.652,0.583,1.49,0.905,2.362,0.905
		c0.067,0,0.133-0.002,0.2-0.005c0.88-0.049,1.7-0.419,2.32-1.046V5.5H6V7.855z M12.5,8.438c0.216,0.218,0.455,0.405,0.711,0.557
		c0.545,0.322,1.166,0.492,1.796,0.492c1.223,0,2.337-0.609,2.992-1.633V5.5h-5.5V8.438z M19,7.795
		c0.443,0.431,1.021,0.666,1.638,0.666c0.028,0,0.056,0,0.084-0.001c1.302-0.045,2.324-1.141,2.279-2.443L23,5.5h-4V7.795z M1,6
		c-0.024,0.718,0.264,1.393,0.79,1.862c0.432,0.384,0.988,0.596,1.566,0.596c0.612,0,1.206-0.24,1.643-0.662V5.5H1V6z M22.691,4.5
		c0,0-1.363-2.722-1.363-2.722C21.243,1.607,21.072,1.5,20.881,1.5H18.14l0.75,3H22.691z M17.859,4.5l-0.75-3H12.5v3H17.859z
		 M11.5,4.5v-3H6.891l-0.75,3H11.5z M5.111,4.5l0.75-3H3.118c-0.191,0-0.362,0.106-0.447,0.276L1.309,4.5H5.111z"/>
	<path d="M9.5,20.503c-0.219,0-0.416-0.146-0.479-0.356l-1.5-5c-0.045-0.151-0.016-0.316,0.078-0.442
		C7.693,14.578,7.843,14.503,8,14.503h1.217l1.354-2.257c0.09-0.15,0.254-0.243,0.429-0.243c0.09,0,0.179,0.025,0.257,0.071
		c0.237,0.142,0.313,0.45,0.172,0.686l-1.046,1.743h3.234l-1.045-1.743c-0.142-0.237-0.065-0.544,0.171-0.686
		c0.078-0.047,0.167-0.071,0.257-0.071c0.175,0,0.339,0.093,0.429,0.243l1.354,2.257h1.384c0.16,0,0.312,0.077,0.406,0.207
		c0.094,0.131,0.12,0.3,0.069,0.452l-1.667,4.999c-0.068,0.204-0.259,0.342-0.474,0.342H9.5z M14.14,19.503l1.333-4H8.672l1.2,4
		H14.14z"/>
</g>
</svg>
