<?xml version="1.0" encoding="utf-8"?>
<!-- Generator: Adobe Illustrator 22.1.0, SVG Export Plug-In . SVG Version: 6.00 Build 0)  -->
<svg version="1.1" id="Layer_1" xmlns="http://www.w3.org/2000/svg" xmlns:xlink="http://www.w3.org/1999/xlink" x="0px" y="0px"
	 viewBox="0 0 24 24" style="enable-background:new 0 0 24 24;" xml:space="preserve">
<g>
	<title>shop-open</title>
	<path d="M4,19.5c-1.103,0-2-0.897-2-2v-3c0-1.103,0.897-2,2-2s2,0.897,2,2v3C6,18.603,5.103,19.5,4,19.5z M4,13.5
		c-0.551,0-1,0.448-1,1v3c0,0.552,0.449,1,1,1s1-0.448,1-1v-3C5,13.948,4.552,13.5,4,13.5z"/>
	<path d="M20.495,19.5c-0.191,0-0.362-0.106-0.447-0.277l-2.053-4.105V19c0,0.276-0.224,0.5-0.5,0.5s-0.5-0.224-0.5-0.5v-6
		c0-0.233,0.158-0.433,0.385-0.487c0.038-0.009,0.077-0.013,0.115-0.013c0.191,0,0.363,0.106,0.448,0.277l2.052,4.105V13
		c0-0.276,0.224-0.5,0.5-0.5s0.5,0.224,0.5,0.5v6c0,0.233-0.158,0.433-0.385,0.487C20.571,19.496,20.533,19.5,20.495,19.5z"/>
	<path d="M13.5,19.5c-0.827,0-1.5-0.673-1.5-1.5v-1.947c-0.003-0.015-0.005-0.033-0.005-0.053c0-0.014,0.002-0.033,0.005-0.051V14
		c0-0.827,0.673-1.5,1.5-1.5h2c0.276,0,0.5,0.224,0.5,0.5s-0.224,0.5-0.5,0.5h-2c-0.276,0-0.5,0.224-0.5,0.5v1.5h1.495
		c0.276,0,0.5,0.224,0.5,0.5s-0.224,0.5-0.5,0.5H13V18c0,0.276,0.224,0.5,0.5,0.5h2c0.276,0,0.5,0.224,0.5,0.5s-0.224,0.5-0.5,0.5
		H13.5z"/>
	<path d="M7.495,19.5c-0.276,0-0.5-0.224-0.5-0.5v-3c0-0.016,0.003-0.037,0.006-0.056L7,13c0-0.276,0.224-0.5,0.5-0.5H9
		c1.103,0,2,0.897,2,2s-0.897,2-2,2H7.995V19C7.995,19.276,7.771,19.5,7.495,19.5z M9,15.5c0.551,0,1-0.448,1-1s-0.449-1-1-1H8v2H9z
		"/>
	<path d="M3.5,23.5C2.673,23.5,2,22.827,2,22v-0.5C2,21.224,2.224,21,2.5,21S3,21.224,3,21.5V22c0,0.276,0.224,0.5,0.5,0.5h17
		c0.276,0,0.5-0.224,0.5-0.5v-0.5c0-0.276,0.224-0.5,0.5-0.5s0.5,0.224,0.5,0.5V22c0,0.827-0.673,1.5-1.5,1.5H3.5z"/>
	<path d="M21.495,11.5c-0.276,0-0.5-0.224-0.5-0.5V9.441c-0.082,0.01-0.161,0.016-0.239,0.018c-0.037,0.001-0.074,0.002-0.111,0.002
		c-0.753,0-1.475-0.247-2.062-0.701c-0.858,1.086-2.175,1.727-3.576,1.727c-0.81,0-1.608-0.219-2.308-0.632
		c-0.249-0.147-0.484-0.318-0.7-0.51c-0.831,0.738-1.893,1.141-3.018,1.141c-1.121,0-2.198-0.411-3.032-1.158
		C5.757,9.154,5.577,8.964,5.416,8.759C4.832,9.21,4.113,9.456,3.363,9.456c-0.123,0-0.246-0.007-0.368-0.02V11
		c0,0.276-0.224,0.5-0.5,0.5s-0.5-0.224-0.5-0.5V9.168c-0.318-0.141-0.61-0.328-0.87-0.559C0.377,7.942-0.033,6.985,0,5.983L0,5
		c0-0.013,0.001-0.028,0.004-0.042c0.004-0.045,0.014-0.088,0.029-0.13C0.033,4.827,0.034,4.824,0.036,4.82
		C0.04,4.806,0.045,4.793,0.051,4.78l1.726-3.451C2.032,0.818,2.546,0.5,3.118,0.5h17.764c0.572,0,1.086,0.318,1.341,0.83
		l1.724,3.447c0.006,0.011,0.011,0.026,0.016,0.04c0.002,0.006,0.005,0.012,0.006,0.016c0.015,0.039,0.024,0.083,0.028,0.128
		C23.999,4.974,24,4.988,24,5v0.996c0.045,1.367-0.754,2.625-2.005,3.177V11C21.995,11.276,21.771,11.5,21.495,11.5z M12.5,8.438
		c0.216,0.218,0.454,0.404,0.709,0.555c0.545,0.322,1.167,0.493,1.798,0.493c1.223,0,2.337-0.609,2.993-1.633V5.5h-5.5V8.438z
		 M6,7.855c0.174,0.272,0.382,0.517,0.617,0.728c0.649,0.582,1.488,0.902,2.361,0.902c0.945,0,1.859-0.381,2.521-1.048V5.5H6V7.855z
		 M19,7.795c0.443,0.431,1.021,0.666,1.638,0.666c0.028,0,0.056,0,0.084-0.001c1.302-0.045,2.324-1.141,2.279-2.443L23,5.5h-4V7.795
		z M1,6c-0.024,0.718,0.264,1.393,0.79,1.862c0.432,0.384,0.988,0.596,1.566,0.596c0.612,0,1.206-0.24,1.643-0.662V5.5H1V6z
		 M22.691,4.5l-1.362-2.723C21.244,1.606,21.072,1.5,20.882,1.5h-2.741l0.75,3H22.691z M17.86,4.5l-0.75-3H12.5v3H17.86z M11.5,4.5
		v-3h-4.61l-0.75,3H11.5z M5.11,4.5l0.75-3H3.118c-0.191,0-0.362,0.106-0.447,0.276L1.309,4.5H5.11z"/>
</g>
</svg>
