<?xml version="1.0" encoding="utf-8"?>
<!-- Generator: Adobe Illustrator 22.1.0, SVG Export Plug-In . SVG Version: 6.00 Build 0)  -->
<svg version="1.1" id="Layer_1" xmlns="http://www.w3.org/2000/svg" xmlns:xlink="http://www.w3.org/1999/xlink" x="0px" y="0px"
	 viewBox="0 0 24 24" style="enable-background:new 0 0 24 24;" xml:space="preserve">
<g>
	<title>shop-close</title>
	<path d="M3.5,23.5C2.673,23.5,2,22.827,2,22v-0.5C2,21.224,2.224,21,2.5,21S3,21.224,3,21.5V22c0,0.276,0.224,0.5,0.5,0.5h17
		c0.276,0,0.5-0.224,0.5-0.5v-0.5c0-0.276,0.224-0.5,0.5-0.5s0.5,0.224,0.5,0.5V22c0,0.827-0.673,1.5-1.5,1.5H3.5z"/>
	<path d="M21.495,11.5c-0.276,0-0.5-0.224-0.5-0.5V9.441c-0.082,0.01-0.161,0.016-0.239,0.018c-0.037,0.001-0.074,0.002-0.111,0.002
		c-0.753,0-1.475-0.247-2.062-0.701c-0.858,1.086-2.175,1.727-3.576,1.727c-0.81,0-1.608-0.219-2.308-0.632
		c-0.249-0.147-0.484-0.318-0.7-0.51c-0.831,0.738-1.893,1.141-3.018,1.141c-1.121,0-2.198-0.411-3.032-1.158
		C5.757,9.154,5.577,8.964,5.416,8.759C4.832,9.21,4.113,9.456,3.363,9.456C3.242,9.456,3.121,9.449,3,9.436V11
		c0,0.276-0.224,0.5-0.5,0.5S2,11.276,2,11V9.17C1.68,9.029,1.387,8.841,1.126,8.609C0.377,7.942-0.033,6.985,0,5.983L0,5
		c0-0.013,0.001-0.028,0.004-0.042c0.004-0.045,0.014-0.088,0.029-0.13C0.033,4.827,0.034,4.824,0.036,4.82
		C0.04,4.806,0.045,4.793,0.051,4.78l1.726-3.451C2.032,0.818,2.546,0.5,3.118,0.5h17.764c0.572,0,1.086,0.318,1.341,0.83
		l1.724,3.447c0.006,0.011,0.011,0.026,0.016,0.04c0.002,0.006,0.005,0.012,0.006,0.016c0.015,0.039,0.024,0.083,0.028,0.128
		C23.999,4.974,24,4.988,24,5v0.996c0.045,1.367-0.754,2.625-2.005,3.177V11C21.995,11.276,21.771,11.5,21.495,11.5z M12.5,8.438
		c0.216,0.218,0.454,0.404,0.709,0.555c0.545,0.322,1.167,0.493,1.798,0.493c1.223,0,2.337-0.609,2.993-1.633V5.5h-5.5V8.438z
		 M6,7.855c0.174,0.272,0.382,0.517,0.617,0.728c0.649,0.582,1.488,0.902,2.361,0.902c0.945,0,1.859-0.381,2.521-1.048V5.5H6V7.855z
		 M19,7.795c0.443,0.431,1.021,0.666,1.638,0.666c0.028,0,0.056,0,0.084-0.001c1.302-0.045,2.324-1.141,2.279-2.443L23,5.5h-4V7.795
		z M1,6c-0.024,0.718,0.264,1.393,0.79,1.862c0.432,0.384,0.988,0.596,1.566,0.596c0.612,0,1.206-0.24,1.643-0.662V5.5H1V6z
		 M22.691,4.5l-1.362-2.723C21.244,1.606,21.072,1.5,20.882,1.5h-2.741l0.75,3H22.691z M17.86,4.5l-0.75-3H12.5v3H17.86z M11.5,4.5
		v-3h-4.61l-0.75,3H11.5z M5.11,4.5l0.75-3H3.118c-0.191,0-0.362,0.106-0.447,0.276L1.309,4.5H5.11z"/>
	<path d="M3.5,19.5C1.57,19.5,0,17.93,0,16s1.57-3.5,3.5-3.5C3.776,12.5,4,12.724,4,13s-0.224,0.5-0.5,0.5C2.122,13.5,1,14.622,1,16
		s1.121,2.5,2.5,2.5C3.776,18.5,4,18.724,4,19S3.776,19.5,3.5,19.5z"/>
	<path d="M12,19.5c-1.103,0-2-0.897-2-2v-3c0-1.103,0.897-2,2-2s2,0.897,2,2v3C14,18.603,13.103,19.5,12,19.5z M12,13.5
		c-0.551,0-1,0.448-1,1v3c0,0.552,0.449,1,1,1c0.552,0,1-0.448,1-1v-3C13,13.948,12.552,13.5,12,13.5z"/>
	<path d="M21.5,19.5c-0.827,0-1.5-0.673-1.5-1.5v-4c0-0.827,0.673-1.5,1.5-1.5h2c0.276,0,0.5,0.224,0.5,0.5s-0.224,0.5-0.5,0.5h-2
		c-0.276,0-0.5,0.224-0.5,0.5v1.5h1.5c0.276,0,0.5,0.224,0.5,0.5s-0.224,0.5-0.5,0.5H21V18c0,0.276,0.224,0.5,0.5,0.5h2
		c0.276,0,0.5,0.224,0.5,0.5s-0.224,0.5-0.5,0.5H21.5z"/>
	<path d="M6.5,19.5C5.673,19.5,5,18.827,5,18v-5c0-0.276,0.224-0.5,0.5-0.5S6,12.724,6,13v5c0,0.276,0.224,0.5,0.5,0.5h2
		C8.776,18.5,9,18.724,9,19s-0.224,0.5-0.5,0.5H6.5z"/>
	<path d="M15.5,19.5c-0.276,0-0.5-0.224-0.5-0.5s0.224-0.5,0.5-0.5h1.7l0.027,0.25V18.5c0.256,0,0.498-0.135,0.646-0.362
		c0.117-0.178,0.158-0.392,0.114-0.601c-0.043-0.209-0.166-0.389-0.344-0.507L15.8,15.803c-0.511-0.335-0.814-0.902-0.81-1.517
		c0.008-0.985,0.815-1.786,1.8-1.786h1.71c0.276,0,0.5,0.224,0.5,0.5s-0.224,0.5-0.5,0.5h-1.7c-0.218,0-0.421,0.082-0.572,0.23
		c-0.152,0.15-0.237,0.35-0.239,0.564c-0.002,0.273,0.133,0.525,0.361,0.675l1.843,1.228c0.399,0.262,0.674,0.666,0.772,1.137
		c0.098,0.47,0.006,0.951-0.258,1.354c-0.334,0.509-0.897,0.812-1.505,0.812H15.5z"/>
</g>
</svg>
