<?xml version="1.0" encoding="utf-8"?>
<!-- Generator: Adobe Illustrator 22.1.0, SVG Export Plug-In . SVG Version: 6.00 Build 0)  -->
<svg version="1.1" id="Layer_1" xmlns="http://www.w3.org/2000/svg" xmlns:xlink="http://www.w3.org/1999/xlink" x="0px" y="0px"
	 viewBox="0 0 24 24" style="enable-background:new 0 0 24 24;" xml:space="preserve">
<g>
	<title>shop-sign-close-1</title>
	<path d="M21.5,18.501c-0.827,0-1.5-0.673-1.5-1.5v-4c0-0.827,0.673-1.5,1.5-1.5h2c0.276,0,0.5,0.224,0.5,0.5s-0.224,0.5-0.5,0.5h-2
		c-0.276,0-0.5,0.224-0.5,0.5v1.5h1.5c0.276,0,0.5,0.224,0.5,0.5s-0.224,0.5-0.5,0.5H21v1.5c0,0.276,0.224,0.5,0.5,0.5h2
		c0.276,0,0.5,0.224,0.5,0.5s-0.224,0.5-0.5,0.5H21.5z"/>
	<path d="M12,18.501c-1.103,0-2-0.897-2-2v-3c0-1.103,0.897-2,2-2s2,0.897,2,2v3C14,17.604,13.103,18.501,12,18.501z M12,12.501
		c-0.551,0-1,0.448-1,1v3c0,0.552,0.449,1,1,1c0.552,0,1-0.448,1-1v-3C13,12.949,12.552,12.501,12,12.501z"/>
	<path d="M6.5,18.501c-0.827,0-1.5-0.673-1.5-1.5v-5c0-0.276,0.224-0.5,0.5-0.5s0.5,0.224,0.5,0.5v5c0,0.276,0.224,0.5,0.5,0.5h2
		c0.276,0,0.5,0.224,0.5,0.5s-0.224,0.5-0.5,0.5H6.5z"/>
	<path d="M15.5,18.501c-0.276,0-0.5-0.224-0.5-0.5s0.224-0.5,0.5-0.5h1.7c0.274,0,0.525-0.135,0.673-0.361
		c0.117-0.179,0.158-0.392,0.114-0.601c-0.043-0.209-0.166-0.389-0.344-0.507L15.8,14.804c-0.511-0.336-0.814-0.903-0.81-1.517
		c0.008-1.001,0.801-1.786,1.805-1.786H18.5c0.276,0,0.5,0.224,0.5,0.5c0,0.276-0.224,0.5-0.5,0.5h-1.7
		c-0.447,0-0.807,0.356-0.81,0.794c-0.002,0.273,0.133,0.525,0.361,0.675l1.843,1.228c0.399,0.262,0.674,0.666,0.772,1.137
		c0.098,0.47,0.006,0.951-0.258,1.354c-0.334,0.509-0.896,0.812-1.505,0.812H15.5z"/>
	<path d="M3.5,18.501c-1.93,0-3.5-1.57-3.5-3.5s1.57-3.5,3.5-3.5c0.276,0,0.5,0.224,0.5,0.5s-0.224,0.5-0.5,0.5
		c-1.379,0-2.5,1.121-2.5,2.5s1.121,2.5,2.5,2.5c0.276,0,0.5,0.224,0.5,0.5S3.776,18.501,3.5,18.501z"/>
	<path d="M0.5,11.001c-0.276,0-0.5-0.224-0.5-0.5v-0.5c0-1.379,1.121-2.5,2.5-2.5h4.713l2.847-4.888
		C10.255,2.279,10.534,2,10.867,1.806c0.342-0.199,0.731-0.305,1.125-0.305c0.796,0,1.54,0.426,1.939,1.112l2.855,4.888H21.5
		c1.378,0,2.5,1.121,2.5,2.5c0,0.276-0.224,0.5-0.5,0.5s-0.5-0.224-0.5-0.5c0-0.827-0.673-1.5-1.5-1.5h-19
		c-0.827,0-1.5,0.673-1.5,1.5v0.5C1,10.777,0.776,11.001,0.5,11.001z M15.629,7.501l-2.561-4.384
		c-0.222-0.38-0.634-0.616-1.075-0.616c-0.218,0-0.433,0.058-0.623,0.169c-0.185,0.108-0.339,0.262-0.447,0.447L8.37,7.501H15.629z"
		/>
	<path d="M2.5,22.501c-1.379,0-2.5-1.122-2.5-2.5v-1c0-0.276,0.224-0.5,0.5-0.5s0.5,0.224,0.5,0.5v1c0,0.827,0.673,1.5,1.5,1.5h19
		c0.827,0,1.5-0.673,1.5-1.5c0-0.276,0.224-0.5,0.5-0.5s0.5,0.224,0.5,0.5c0,1.378-1.122,2.5-2.5,2.5H2.5z"/>
</g>
</svg>
