<?xml version="1.0" encoding="utf-8"?>
<!-- Generator: Adobe Illustrator 22.1.0, SVG Export Plug-In . SVG Version: 6.00 Build 0)  -->
<svg version="1.1" id="Layer_1" xmlns="http://www.w3.org/2000/svg" xmlns:xlink="http://www.w3.org/1999/xlink" x="0px" y="0px"
	 viewBox="0 0 24 24" style="enable-background:new 0 0 24 24;" xml:space="preserve">
<g>
	<title>shop-sign-bag</title>
	<path d="M0.5,14C0.224,14,0,13.776,0,13.5v-9C0,3.121,1.121,2,2.5,2h16.551c0.234-1.155,1.25-2,2.449-2C22.878,0,24,1.121,24,2.5
		S22.878,5,21.5,5c-1.199,0-2.215-0.845-2.449-2H17v2.5C17,5.776,16.776,6,16.5,6S16,5.776,16,5.5V3H9v2.5C9,5.776,8.776,6,8.5,6
		S8,5.776,8,5.5V3H2.5C1.673,3,1,3.673,1,4.5v9C1,13.776,0.776,14,0.5,14z M21.5,1C20.673,1,20,1.673,20,2.5S20.673,4,21.5,4
		S23,3.327,23,2.5S22.327,1,21.5,1z"/>
	<path d="M6.5,24C5.121,24,4,22.878,4,21.5v-11C4,9.121,5.121,8,6.5,8H8V7.5C8,7.224,8.224,7,8.5,7S9,7.224,9,7.5V8h7V7.5
		C16,7.224,16.224,7,16.5,7S17,7.224,17,7.5V8h1.5c1.378,0,2.5,1.121,2.5,2.5v11c0,1.378-1.122,2.5-2.5,2.5H6.5z M6.5,9
		C5.673,9,5,9.673,5,10.5v11C5,22.327,5.673,23,6.5,23h12c0.827,0,1.5-0.673,1.5-1.5v-11C20,9.673,19.327,9,18.5,9H6.5z"/>
	<path d="M8.893,22C7.853,22,7.004,21.154,7,20.114c0-0.098,0.007-0.196,0.022-0.291l0.832-5.412C7.98,13.594,8.672,13,9.5,13H10
		v-0.5c0-1.379,1.121-2.5,2.5-2.5c1.378,0,2.5,1.121,2.5,2.5V13h0.5c0.828,0,1.521,0.594,1.646,1.413l0.832,5.406
		C17.993,19.913,18,20.011,18,20.109C18,21.151,17.151,22,16.107,22H8.893z M9.5,14c-0.331,0-0.607,0.238-0.658,0.564L8.01,19.976
		C8.003,20.021,8,20.066,8,20.111C8.002,20.601,8.402,21,8.893,21h7.214C16.599,21,17,20.599,17,20.107
		c0-0.046-0.003-0.09-0.01-0.134l-0.832-5.408C16.108,14.238,15.831,14,15.5,14H15v1.5c0,0.276-0.224,0.5-0.5,0.5S14,15.776,14,15.5
		V14h-3v1.5c0,0.276-0.224,0.5-0.5,0.5S10,15.776,10,15.5V14H9.5z M14,13v-0.5c0-0.827-0.673-1.5-1.5-1.5S11,11.673,11,12.5V13H14z"
		/>
</g>
</svg>
