<?xml version="1.0" encoding="utf-8"?>
<!-- Generator: Adobe Illustrator 22.1.0, SVG Export Plug-In . SVG Version: 6.00 Build 0)  -->
<svg version="1.1" id="Layer_1" xmlns="http://www.w3.org/2000/svg" xmlns:xlink="http://www.w3.org/1999/xlink" x="0px" y="0px"
	 viewBox="0 0 24 24" style="enable-background:new 0 0 24 24;" xml:space="preserve">
<g>
	<title>shop</title>
	<path d="M5,19.5c-0.551,0-1-0.448-1-1v-5c0-0.552,0.449-1,1-1h7c0.552,0,1,0.448,1,1v5c0,0.552-0.448,1-1,1H5z M5,18.5h7v-5h-7
		L5,18.5z"/>
	<path d="M3.5,22.5C2.673,22.5,2,21.827,2,21V10.17c-0.32-0.141-0.614-0.329-0.875-0.562C0.377,8.942-0.033,7.985,0,6.983L0,6
		c0-0.013,0.001-0.028,0.004-0.042c0.004-0.045,0.014-0.088,0.029-0.13C0.033,5.827,0.034,5.824,0.036,5.82
		C0.04,5.806,0.045,5.793,0.051,5.78l1.726-3.451C2.032,1.818,2.546,1.5,3.118,1.5h17.764c0.572,0,1.086,0.318,1.341,0.83
		l1.724,3.447c0.006,0.011,0.011,0.026,0.016,0.04c0.002,0.006,0.005,0.012,0.006,0.016c0.015,0.039,0.024,0.083,0.028,0.128
		C23.999,5.974,24,5.988,24,6v0.996c0.045,1.364-0.752,2.621-2,3.175V21c0,0.827-0.673,1.5-1.5,1.5H3.5z M20.5,21.5
		c0.276,0,0.5-0.224,0.5-0.5V10.441c-0.083,0.01-0.165,0.016-0.243,0.019c-0.038,0.001-0.076,0.002-0.114,0.002
		c-0.751,0-1.473-0.247-2.059-0.701c-0.858,1.086-2.175,1.727-3.576,1.727c-0.81,0-1.608-0.219-2.308-0.632
		c-0.249-0.147-0.484-0.318-0.7-0.51c-0.831,0.738-1.893,1.141-3.018,1.141c-1.121,0-2.198-0.411-3.032-1.158
		c-0.194-0.174-0.373-0.364-0.534-0.568c-0.584,0.451-1.303,0.696-2.053,0.696c-0.121,0-0.242-0.006-0.363-0.019V21
		c0,0.276,0.224,0.5,0.5,0.5H14v-8c0-0.552,0.448-1,1-1h4c0.552,0,1,0.448,1,1v8H20.5z M19,21.5v-8h-4l0,8H19z M12.5,9.438
		c0.216,0.218,0.454,0.404,0.709,0.555c0.545,0.322,1.167,0.493,1.798,0.493c1.223,0,2.337-0.609,2.993-1.633V6.5h-5.5V9.438z
		 M6,8.855c0.174,0.272,0.382,0.517,0.617,0.728c0.649,0.582,1.488,0.902,2.361,0.902c0.945,0,1.859-0.381,2.521-1.048V6.5H6V8.855z
		 M19,8.795c0.443,0.431,1.02,0.667,1.635,0.667c0.029,0,0.057,0,0.086-0.002c1.302-0.045,2.324-1.141,2.279-2.443L23,6.5h-4V8.795z
		 M1,7c-0.024,0.718,0.264,1.393,0.79,1.862c0.432,0.384,0.988,0.596,1.566,0.596c0.612,0,1.206-0.24,1.644-0.662V6.5H1V7z
		 M22.691,5.5l-1.362-2.723C21.244,2.606,21.072,2.5,20.882,2.5h-2.741l0.75,3H22.691z M17.86,5.5l-0.75-3H12.5v3H17.86z M11.5,5.5
		v-3h-4.61l-0.75,3H11.5z M5.11,5.5l0.75-3H3.118c-0.191,0-0.362,0.106-0.447,0.276L1.309,5.5H5.11z"/>
</g>
</svg>
