<?xml version="1.0" encoding="utf-8"?>
<!-- Generator: Adobe Illustrator 22.1.0, SVG Export Plug-In . SVG Version: 6.00 Build 0)  -->
<svg version="1.1" id="Layer_1" xmlns="http://www.w3.org/2000/svg" xmlns:xlink="http://www.w3.org/1999/xlink" x="0px" y="0px"
	 viewBox="0 0 24 24" style="enable-background:new 0 0 24 24;" xml:space="preserve">
<g>
	<title>shop-like-circle</title>
	<path d="M7.189,20.82c-0.858,0-1.361-0.102-2.695-0.742C4.456,20.317,4.249,20.5,4,20.5c-0.276,0-0.5-0.224-0.5-0.5v-5
		c0-0.276,0.224-0.5,0.5-0.5s0.5,0.224,0.5,0.5v0.314h0.3c0.067,0,0.13-0.033,0.169-0.088l1.73-2.442
		c0.058-0.081,0.126-0.154,0.202-0.216c0.197-0.161,0.446-0.25,0.701-0.25c0.037,0,0.074,0.002,0.111,0.006
		c0.295,0.029,0.56,0.172,0.748,0.401c0.222,0.273,0.301,0.638,0.212,0.978L8.36,14.88c-0.016,0.061-0.003,0.126,0.035,0.175
		c0.044,0.058,0.107,0.092,0.172,0.092h1.728c0.119,0,0.237,0.017,0.35,0.052c0.308,0.093,0.561,0.301,0.714,0.585
		c0.152,0.284,0.185,0.61,0.092,0.918l-0.674,2.252C10.398,20.179,9.674,20.8,8.623,20.8c-0.339,0-0.623,0.006-0.87,0.011
		C7.532,20.816,7.353,20.82,7.189,20.82z M4.5,18.968c1.541,0.766,1.929,0.851,2.722,0.851c0.149,0,0.31-0.003,0.493-0.007
		C7.972,19.806,8.268,19.8,8.623,19.8c0.508,0,0.906-0.193,1.197-1.137l0.673-2.249c0.033-0.11-0.029-0.225-0.137-0.258
		c-0.019-0.006-0.04-0.009-0.061-0.009H8.563c-0.38-0.003-0.739-0.186-0.964-0.487c-0.223-0.288-0.301-0.677-0.205-1.037
		l0.312-1.177c0.008-0.031,0.001-0.065-0.019-0.089c-0.018-0.022-0.043-0.035-0.073-0.038c-0.001,0-0.002,0-0.003,0
		c-0.035,0-0.057,0.008-0.076,0.024c-0.008,0.006-0.014,0.013-0.02,0.022l-1.728,2.439c-0.225,0.32-0.594,0.511-0.986,0.511H4.5
		V18.968z"/>
	<path d="M7,24c-3.86,0-7-3.14-7-7c0-2.291,1.119-4.427,3-5.741v-2.53C2.174,8.372,1.534,7.694,1.23,6.846
		C1.03,6.284,1.038,5.668,1.251,5.113l1.58-4.147C3.051,0.389,3.614,0,4.232,0h16.622c0.618,0.001,1.18,0.39,1.399,0.966l1.58,4.148
		c0.212,0.556,0.219,1.171,0.018,1.732C23.535,7.725,22.866,8.415,22,8.762V20.5c0,0.276-0.224,0.5-0.5,0.5h-8.759
		C11.427,22.881,9.291,24,7,24z M7,11c-3.308,0-6,2.692-6,6s2.692,6,6,6c3.308,0,6-2.692,6-6S10.308,11,7,11z M21,20V8.991
		c-0.069,0.005-0.137,0.007-0.205,0.007c-0.871,0-1.686-0.337-2.3-0.95c-0.174-0.174-0.326-0.363-0.455-0.567
		C17.45,8.417,16.416,9,15.29,9s-2.16-0.583-2.75-1.519C11.95,8.417,10.916,9,9.79,9C8.662,9,7.628,8.416,7.038,7.478
		c-0.386,0.61-0.968,1.083-1.65,1.328c-0.35,0.126-0.716,0.19-1.088,0.19c-0.1,0-0.2-0.005-0.3-0.014v1.695
		C4.934,10.233,5.963,10,7,10c3.86,0,7,3.14,7,7c0,1.037-0.233,2.066-0.677,3H21z M12.54,5.25c0.276,0,0.5,0.224,0.5,0.5
		c0,1.241,1.009,2.25,2.25,2.25s2.25-1.009,2.25-2.25c0-0.276,0.224-0.5,0.5-0.5c0.276,0,0.5,0.224,0.5,0.499
		c0.001,0.601,0.236,1.166,0.661,1.591c0.425,0.424,0.99,0.658,1.59,0.658c0.948-0.001,1.799-0.6,2.118-1.49
		c0.121-0.336,0.117-0.704-0.01-1.038l-1.58-4.148C21.246,1.13,21.058,1,20.853,1H4.232C4.026,1,3.839,1.13,3.765,1.322L2.185,5.47
		C2.057,5.804,2.052,6.173,2.171,6.51c0.203,0.564,0.614,1.017,1.158,1.273c0.304,0.143,0.627,0.216,0.958,0.216
		c0.259,0,0.515-0.045,0.763-0.134c0.89-0.32,1.489-1.17,1.49-2.116c0-0.275,0.224-0.5,0.5-0.5c0.276,0,0.5,0.224,0.5,0.5
		C7.54,6.991,8.549,8,9.79,8s2.25-1.009,2.25-2.25C12.04,5.474,12.264,5.25,12.54,5.25z"/>
</g>
</svg>
