<?xml version="1.0" encoding="utf-8"?>
<!-- Generator: Adobe Illustrator 22.1.0, SVG Export Plug-In . SVG Version: 6.00 Build 0)  -->
<svg version="1.1" id="Layer_1" xmlns="http://www.w3.org/2000/svg" xmlns:xlink="http://www.w3.org/1999/xlink" x="0px" y="0px"
	 viewBox="0 0 24 24" style="enable-background:new 0 0 24 24;" xml:space="preserve">
<g>
	<title>shop-sign-open</title>
	<path d="M2.5,21.501c-1.379,0-2.5-1.122-2.5-2.5v-8c0-1.379,1.121-2.5,2.5-2.5h4.713l2.847-4.888
		C10.255,3.279,10.534,3,10.867,2.806c0.342-0.199,0.731-0.304,1.125-0.304c0.796,0,1.54,0.426,1.939,1.112l2.855,4.888H21.5
		c1.378,0,2.5,1.121,2.5,2.5v8c0,1.378-1.122,2.5-2.5,2.5H2.5z M2.5,9.501c-0.827,0-1.5,0.673-1.5,1.5v8c0,0.827,0.673,1.5,1.5,1.5
		h19c0.827,0,1.5-0.673,1.5-1.5v-8c0-0.827-0.673-1.5-1.5-1.5H2.5z M15.629,8.501l-2.561-4.384c-0.222-0.38-0.634-0.616-1.075-0.616
		c-0.218,0-0.433,0.058-0.623,0.169c-0.185,0.108-0.339,0.262-0.447,0.447L8.37,8.501H15.629z"/>
	<path d="M4,18.501c-1.103,0-2-0.897-2-2v-3c0-1.103,0.897-2,2-2s2,0.897,2,2v3C6,17.604,5.103,18.501,4,18.501z M4,12.501
		c-0.551,0-1,0.448-1,1v3c0,0.552,0.449,1,1,1s1-0.448,1-1v-3C5,12.95,4.551,12.501,4,12.501z"/>
	<path d="M20.5,18.501c-0.191,0-0.362-0.106-0.447-0.277L18,14.119v3.882c0,0.276-0.224,0.5-0.5,0.5s-0.5-0.224-0.5-0.5v-6
		c0-0.233,0.158-0.433,0.385-0.487c0.037-0.009,0.076-0.014,0.115-0.014c0.188,0,0.363,0.109,0.447,0.277L20,15.883v-3.882
		c0-0.276,0.224-0.5,0.5-0.5s0.5,0.224,0.5,0.5v6c0,0.233-0.158,0.433-0.385,0.487C20.576,18.497,20.538,18.501,20.5,18.501z"/>
	<path d="M13.5,18.501c-0.827,0-1.5-0.673-1.5-1.5v-4c0-0.827,0.673-1.5,1.5-1.5h2c0.276,0,0.5,0.224,0.5,0.5s-0.224,0.5-0.5,0.5h-2
		c-0.276,0-0.5,0.224-0.5,0.5v1.5h1.5c0.276,0,0.5,0.224,0.5,0.5s-0.224,0.5-0.5,0.5H13v1.5c0,0.276,0.224,0.5,0.5,0.5h2
		c0.276,0,0.5,0.224,0.5,0.5s-0.224,0.5-0.5,0.5H13.5z"/>
	<path d="M7.5,18.501c-0.276,0-0.5-0.224-0.5-0.5v-6c0-0.276,0.224-0.5,0.5-0.5H9c1.103,0,2,0.897,2,2s-0.897,2-2,2H8v2.5
		C8,18.277,7.776,18.501,7.5,18.501z M9,14.501c0.551,0,1-0.448,1-1c0-0.551-0.449-1-1-1H8v2H9z"/>
</g>
</svg>
