<?xml version="1.0" encoding="utf-8"?>
<!-- Generator: Adobe Illustrator 22.1.0, SVG Export Plug-In . SVG Version: 6.00 Build 0)  -->
<svg version="1.1" id="Layer_1" xmlns="http://www.w3.org/2000/svg" xmlns:xlink="http://www.w3.org/1999/xlink" x="0px" y="0px"
	 viewBox="0 0 24 24" style="enable-background:new 0 0 24 24;" xml:space="preserve">
<g>
	<title>supermarket</title>
	<path d="M2,24c-0.276,0-0.5-0.224-0.5-0.5V12.914c-0.59-0.209-1-0.774-1-1.414C0.5,10.673,1.173,10,2,10h4.5V7.914
		c-0.59-0.209-1-0.774-1-1.414C5.5,5.673,6.173,5,7,5h4.5V0.5C11.5,0.224,11.724,0,12,0h3c0.827,0,1.5,0.673,1.5,1.5v1
		C16.5,3.327,15.827,4,15,4h-2.5v1H17c0.827,0,1.5,0.673,1.5,1.5c0,0.64-0.41,1.205-1,1.414V10H22c0.827,0,1.5,0.673,1.5,1.5
		c0,0.64-0.41,1.205-1,1.414V23.5c0,0.276-0.224,0.5-0.5,0.5H2z M21.5,23V13H17c-0.276,0-0.5-0.224-0.5-0.5V8h-9v4.5
		C7.5,12.776,7.276,13,7,13H2.5v10h5v-4.086c-0.59-0.209-1-0.774-1-1.414C6.5,16.673,7.173,16,8,16h8c0.827,0,1.5,0.673,1.5,1.5
		c0,0.64-0.41,1.205-1,1.414V23H21.5z M15.5,23v-4h-3v4H15.5z M11.5,23v-4h-3v4H11.5z M8,17c-0.276,0-0.5,0.224-0.5,0.5
		S7.724,18,8,18h8c0.276,0,0.5-0.224,0.5-0.5S16.276,17,16,17H8z M22,12c0.276,0,0.5-0.224,0.5-0.5S22.276,11,22,11h-4.5v1H22z
		 M2,11c-0.276,0-0.5,0.224-0.5,0.5S1.724,12,2,12h4.5v-1H2z M7,6C6.724,6,6.5,6.224,6.5,6.5S6.724,7,7,7h10
		c0.276,0,0.5-0.224,0.5-0.5S17.276,6,17,6H7z M15,3c0.276,0,0.5-0.224,0.5-0.5v-1C15.5,1.224,15.276,1,15,1h-2.5v2H15z"/>
	<path d="M12,14c-1.379,0-2.5-1.122-2.5-2.5C9.5,10.121,10.621,9,12,9c1.378,0,2.5,1.121,2.5,2.5C14.5,12.878,13.378,14,12,14z
		 M12,10c-0.827,0-1.5,0.673-1.5,1.5S11.173,13,12,13s1.5-0.673,1.5-1.5S12.827,10,12,10z"/>
</g>
</svg>
