<?xml version="1.0" encoding="utf-8"?>
<!-- Generator: Adobe Illustrator 22.1.0, SVG Export Plug-In . SVG Version: 6.00 Build 0)  -->
<svg version="1.1" id="Light" xmlns="http://www.w3.org/2000/svg" xmlns:xlink="http://www.w3.org/1999/xlink" x="0px" y="0px"
	 viewBox="0 0 24 24" style="enable-background:new 0 0 24 24;" xml:space="preserve">
<g>
	<title>medical-personnel-doctor</title>
	<path d="M7.496,9.5c-2.619,0-4.75-2.131-4.75-4.75S4.877,0,7.496,0s4.75,2.131,4.75,4.75S10.115,9.5,7.496,9.5z M3.992,3.426
		C3.829,3.852,3.746,4.296,3.746,4.75c0,2.068,1.682,3.75,3.75,3.75c2.023,0,3.678-1.611,3.748-3.618
		C10.492,5.126,9.711,5.25,8.918,5.25C7.125,5.25,5.352,4.589,3.992,3.426z M4.483,2.524C5.684,3.623,7.286,4.25,8.912,4.25
		c0.764,0,1.51-0.131,2.225-0.389C10.73,2.191,9.231,1,7.496,1C6.302,1,5.191,1.566,4.483,2.524z"/>
	<path d="M12.496,24c-0.827,0-1.5-0.673-1.5-1.5v-7c0-0.827,0.673-1.5,1.5-1.5H15v-0.5c0-0.827,0.673-1.5,1.5-1.5h2
		c0.827,0,1.5,0.673,1.5,1.5V14h2.496c0.827,0,1.5,0.673,1.5,1.5v7c0,0.827-0.673,1.5-1.5,1.5H12.496z M12.496,15
		c-0.276,0-0.5,0.224-0.5,0.5v7c0,0.276,0.224,0.5,0.5,0.5h10c0.276,0,0.5-0.224,0.5-0.5v-7c0-0.276-0.224-0.5-0.5-0.5H12.496z
		 M19,14v-0.5c0-0.276-0.224-0.5-0.5-0.5h-2c-0.276,0-0.5,0.224-0.5,0.5V14H19z"/>
	<path d="M16.75,22C16.336,22,16,21.664,16,21.25V20.5h-0.75c-0.414,0-0.75-0.336-0.75-0.75v-1.5c0-0.414,0.336-0.75,0.75-0.75H16
		v-0.75c0-0.414,0.336-0.75,0.75-0.75h1.5c0.414,0,0.75,0.336,0.75,0.75v0.75h0.75c0.414,0,0.75,0.336,0.75,0.75v1.5
		c0,0.414-0.336,0.75-0.75,0.75H19v0.75c0,0.414-0.336,0.75-0.75,0.75H16.75z M18,21v-1c0-0.276,0.224-0.5,0.5-0.5h1v-1l-1,0
		c-0.276,0-0.5-0.224-0.5-0.5v-1h-1v1c0,0.276-0.224,0.5-0.5,0.5h-1v1h1c0.276,0,0.5,0.224,0.5,0.5v1H18z"/>
	<path d="M0.5,19C0.224,19,0,18.776,0,18.5v-1c0-1.315,0.347-2.612,1.005-3.751c0.766-1.327,1.899-2.373,3.276-3.024
		c0.006-0.003,0.033-0.015,0.04-0.018c0.39-0.184,0.812-0.339,1.238-0.453c0.641-0.172,1.298-0.259,1.953-0.259
		c1.304,0,2.596,0.349,3.738,1.008c0.037,0.022,0.061,0.046,0.073,0.057c0.013,0.01,0.026,0.022,0.039,0.036
		c0.035,0.037,0.063,0.079,0.086,0.127c0.002,0.004,0.009,0.02,0.011,0.024c0.022,0.054,0.035,0.112,0.037,0.171
		c0,0.005,0.001,0.011,0.001,0.017c0.001,0.017,0.001,0.033,0,0.049v1.08c0.06,0.015,0.117,0.031,0.172,0.051
		c0.126,0.045,0.227,0.136,0.284,0.257c0.057,0.121,0.064,0.257,0.019,0.382c-0.071,0.198-0.26,0.332-0.472,0.332l0,0
		c-0.057,0-0.112-0.01-0.166-0.028c-0.108-0.039-0.221-0.058-0.335-0.059c-0.55,0-0.998,0.448-0.998,1v2c0,0.276-0.224,0.5-0.5,0.5
		S9,16.776,9,16.5v-2c0-0.911,0.63-1.707,1.496-1.933v-0.834c-0.789-0.411-1.628-0.653-2.5-0.718V18H9.5c0.276,0,0.5,0.224,0.5,0.5
		S9.776,19,9.5,19H0.5z M6.996,18v-6.981c-0.4,0.031-0.795,0.099-1.178,0.202c-0.277,0.074-0.552,0.168-0.822,0.28v2.585
		c0.59,0.209,1,0.774,1,1.414c0,0.827-0.673,1.5-1.5,1.5s-1.5-0.673-1.5-1.5c0-0.64,0.41-1.205,1-1.414v-2.064
		c-0.871,0.557-1.601,1.32-2.125,2.228C1.301,15.236,1,16.36,1,17.5V18H6.996z M4.496,15c-0.276,0-0.5,0.224-0.5,0.5
		S4.22,16,4.496,16s0.5-0.224,0.5-0.5S4.772,15,4.496,15z"/>
</g>
</svg>
