<?xml version="1.0" encoding="utf-8"?>
<!-- Generator: Adobe Illustrator 22.1.0, SVG Export Plug-In . SVG Version: 6.00 Build 0)  -->
<svg version="1.1" id="Layer_1" xmlns="http://www.w3.org/2000/svg" xmlns:xlink="http://www.w3.org/1999/xlink" x="0px" y="0px"
	 viewBox="0 0 24 24" style="enable-background:new 0 0 24 24;" xml:space="preserve">
<g>
	<title>shopping-basket-check</title>
	<path d="M18.487,24c-3.019-0.016-5.474-2.483-5.474-5.5c0-3.033,2.467-5.5,5.5-5.5c3.032,0,5.5,2.467,5.5,5.5s-2.467,5.5-5.5,5.5
		H18.487z M18.513,14c-2.481,0-4.5,2.019-4.5,4.5c0,2.468,2.008,4.487,4.477,4.5c2.505,0,4.523-2.019,4.523-4.5S20.994,14,18.513,14
		z"/>
	<path d="M17.953,20.729c-0.267,0-0.517-0.104-0.706-0.292l-1.087-1.083c-0.094-0.094-0.147-0.22-0.147-0.353
		c0-0.134,0.052-0.26,0.146-0.354c0.095-0.095,0.221-0.147,0.354-0.147c0.133,0,0.259,0.052,0.353,0.146l1.087,1.083l2.153-3.019
		c0.094-0.131,0.246-0.21,0.407-0.21c0.104,0,0.204,0.032,0.29,0.092c0.109,0.078,0.181,0.193,0.203,0.325
		c0.022,0.132-0.009,0.264-0.086,0.373l-2.153,3.02c-0.034,0.047-0.067,0.086-0.104,0.124
		C18.472,20.624,18.221,20.729,17.953,20.729z"/>
	<path d="M4.961,18c-1.028,0-1.934-0.73-2.156-1.737L1.403,8.997C0.615,8.954-0.013,8.299-0.013,7.5v-1c0-0.827,0.673-1.5,1.5-1.5
		H3.25l2.465-4.731C5.801,0.103,5.971,0,6.158,0c0.08,0,0.16,0.02,0.231,0.057C6.507,0.118,6.595,0.222,6.635,0.35
		s0.028,0.263-0.034,0.381L4.377,5h12.246l-2.224-4.269c-0.062-0.119-0.073-0.254-0.033-0.381c0.04-0.128,0.127-0.232,0.246-0.293
		C14.682,0.019,14.762,0,14.842,0c0.187,0,0.357,0.103,0.444,0.27L17.75,5h1.737c0.827,0,1.5,0.673,1.5,1.5v1
		c0,0.79-0.614,1.439-1.39,1.496l-0.46,2.381c-0.045,0.235-0.251,0.405-0.49,0.405c-0.031,0-0.064-0.003-0.096-0.009
		c-0.13-0.025-0.244-0.1-0.319-0.211c-0.075-0.111-0.102-0.244-0.077-0.375L18.578,9H2.422l1.362,7.061
		C3.903,16.603,4.401,17,4.966,17c0.002,0,5.045,0,5.045,0c0.276,0,0.5,0.224,0.5,0.5s-0.224,0.5-0.5,0.5L4.961,18z M1.487,6
		c-0.276,0-0.5,0.224-0.5,0.5v1c0,0.276,0.224,0.5,0.5,0.5h18c0.276,0,0.5-0.224,0.5-0.5v-1c0-0.276-0.224-0.5-0.5-0.5H1.487z"/>
	<path d="M10.513,14.539c-0.276,0-0.5-0.224-0.5-0.5V11c0-0.276,0.224-0.5,0.5-0.5s0.5,0.224,0.5,0.5v3.039
		C11.013,14.315,10.789,14.539,10.513,14.539z"/>
	<path d="M7.039,14.539c-0.247,0-0.46-0.185-0.495-0.429L6.11,11.071c-0.019-0.132,0.015-0.264,0.095-0.371
		c0.08-0.107,0.197-0.176,0.329-0.195c0.024-0.003,0.047-0.005,0.07-0.005c0.247,0,0.46,0.185,0.495,0.429l0.434,3.039
		c0.039,0.273-0.151,0.527-0.424,0.566C7.085,14.537,7.062,14.539,7.039,14.539z"/>
</g>
</svg>
