<?xml version="1.0" encoding="utf-8"?>
<!-- Generator: Adobe Illustrator 22.1.0, SVG Export Plug-In . SVG Version: 6.00 Build 0)  -->
<svg version="1.1" id="Layer_1" xmlns="http://www.w3.org/2000/svg" xmlns:xlink="http://www.w3.org/1999/xlink" x="0px" y="0px"
	 viewBox="0 0 24 24" style="enable-background:new 0 0 24 24;" xml:space="preserve">
<g>
	<title>shopping-basket-sad-1</title>
	<path d="M5.623,23.006c-1.109,0-2.066-0.76-2.328-1.848L2.07,13.001H2c-1.103,0-2-0.897-2-2s0.897-2,2-2h1.035l1.671-4.677
		C5.201,2.935,6.525,2.001,8,2.001h0.086c0.209-0.59,0.774-1,1.414-1h5c0.64,0,1.205,0.41,1.414,1H16
		c1.476,0,2.801,0.933,3.297,2.323l1.671,4.677H22c1.103,0,2,0.897,2,2s-0.897,2-2,2h-0.069l-1.217,8.114
		c-0.268,1.122-1.233,1.89-2.35,1.89c-0.051,0-0.102-0.002-0.153-0.005l-12.444,0C5.729,23.004,5.676,23.006,5.623,23.006z
		 M18.261,22.001c0.043,0.003,0.078,0.004,0.112,0.004c0.647,0,1.207-0.445,1.36-1.082l1.187-7.923H3.081l1.195,7.966
		c0.147,0.603,0.705,1.039,1.353,1.039c0.034,0,0.068-0.001,0.103-0.004l12.503-0.001C18.234,22.001,18.257,22.001,18.261,22.001z
		 M2,10.001c-0.551,0-1,0.449-1,1s0.449,1,1,1h20c0.552,0,1-0.448,1-1s-0.448-1-1-1H2z M19.906,9.001l-1.55-4.341
		c-0.354-0.992-1.301-1.659-2.354-1.659h-0.087c-0.209,0.59-0.774,1-1.414,1h-5c-0.64,0-1.205-0.41-1.414-1H8
		c-1.053,0-1.999,0.667-2.353,1.659L4.096,9.001H19.906z M9.5,2.001c-0.276,0-0.5,0.224-0.5,0.5s0.224,0.5,0.5,0.5h5
		c0.276,0,0.5-0.224,0.5-0.5s-0.224-0.5-0.5-0.5H9.5z"/>
	<circle cx="7.75" cy="15.251" r="0.75"/>
	<circle cx="16.25" cy="15.251" r="0.75"/>
	<path d="M8.258,20.001c-0.099,0-0.195-0.029-0.278-0.084c-0.229-0.153-0.291-0.464-0.138-0.693c0.367-0.549,0.832-1.014,1.38-1.38
		c0.826-0.552,1.783-0.844,2.767-0.844c0.329,0,0.661,0.033,0.987,0.098c1.31,0.26,2.439,1.016,3.181,2.126
		c0.153,0.229,0.091,0.54-0.138,0.694C15.936,19.972,15.841,20,15.742,20c-0.167,0-0.323-0.083-0.416-0.222
		c-0.593-0.889-1.497-1.493-2.545-1.702c-0.261-0.052-0.527-0.078-0.79-0.078c-0.786,0-1.552,0.234-2.213,0.675
		c-0.439,0.293-0.811,0.665-1.104,1.104C8.581,19.918,8.425,20.001,8.258,20.001z"/>
</g>
</svg>
