<?xml version="1.0" encoding="utf-8"?>
<!-- Generator: Adobe Illustrator 22.1.0, SVG Export Plug-In . SVG Version: 6.00 Build 0)  -->
<svg version="1.1" id="Layer_1" xmlns="http://www.w3.org/2000/svg" xmlns:xlink="http://www.w3.org/1999/xlink" x="0px" y="0px"
	 viewBox="0 0 24 24" style="enable-background:new 0 0 24 24;" xml:space="preserve">
<g>
	<title>shopping-basket-heart</title>
	<path d="M18.644,24c-0.135,0-0.267-0.056-0.361-0.154l-4.143-4.318c-0.894-0.893-1.114-2.26-0.545-3.398
		c0.353-0.705,0.958-1.23,1.705-1.479c0.304-0.101,0.619-0.152,0.935-0.152c0.459,0,0.902,0.105,1.317,0.313
		c0.284,0.142,0.542,0.327,0.766,0.552l0.322,0.323l0.323-0.323c0.556-0.556,1.297-0.863,2.085-0.863s1.529,0.306,2.085,0.862
		c0.225,0.225,0.411,0.482,0.552,0.766c0.569,1.137,0.347,2.506-0.552,3.405l-4.128,4.31C18.911,23.944,18.779,24,18.644,24z
		 M16.234,15.499c-0.208,0-0.417,0.034-0.618,0.101c-0.494,0.165-0.894,0.512-1.127,0.977c-0.376,0.752-0.229,1.656,0.365,2.251
		l3.789,3.949l3.775-3.941c0.6-0.601,0.748-1.507,0.372-2.259c-0.094-0.188-0.217-0.358-0.365-0.506
		c-0.367-0.367-0.857-0.57-1.378-0.57c-0.521,0-1.011,0.202-1.378,0.57l-0.676,0.676c-0.094,0.094-0.22,0.146-0.354,0.146
		s-0.259-0.052-0.354-0.146l-0.676-0.676c-0.148-0.148-0.319-0.271-0.506-0.365C16.829,15.569,16.537,15.499,16.234,15.499z"/>
	<path d="M4.947,18c-1.027,0-1.933-0.73-2.155-1.736L1.387,8.996C0.613,8.937,0.001,8.289,0.001,7.5v-1c0-0.827,0.673-1.5,1.5-1.5
		h1.736l2.466-4.731C5.789,0.103,5.959,0,6.146,0c0.08,0,0.16,0.02,0.231,0.057c0.245,0.127,0.34,0.43,0.212,0.675L4.364,5h12.246
		l-2.224-4.269c-0.062-0.119-0.073-0.254-0.033-0.381c0.04-0.128,0.127-0.232,0.246-0.293C14.67,0.019,14.75,0,14.83,0
		c0.187,0,0.357,0.103,0.444,0.27L17.738,5h1.763c0.827,0,1.5,0.673,1.5,1.5v1c0,0.799-0.628,1.454-1.416,1.498l-0.459,2.379
		c-0.045,0.235-0.251,0.405-0.49,0.405c-0.031,0-0.064-0.003-0.096-0.009c-0.13-0.025-0.244-0.1-0.319-0.211
		c-0.075-0.111-0.102-0.244-0.077-0.375L18.566,9H2.407l1.365,7.062c0.12,0.541,0.613,0.938,1.172,0.938l5.057,0
		c0.276,0,0.5,0.224,0.5,0.5s-0.224,0.5-0.5,0.5L4.947,18z M1.501,6c-0.276,0-0.5,0.224-0.5,0.5v1c0,0.276,0.224,0.5,0.5,0.5h18
		c0.276,0,0.5-0.224,0.5-0.5v-1c0-0.276-0.224-0.5-0.5-0.5H1.501z"/>
	<path d="M10.501,14.54c-0.276,0-0.5-0.224-0.5-0.5V11c0-0.276,0.224-0.5,0.5-0.5s0.5,0.224,0.5,0.5v3.04
		C11.001,14.315,10.777,14.54,10.501,14.54z"/>
	<path d="M7.026,14.54c-0.247,0-0.46-0.185-0.495-0.429l-0.434-3.04c-0.019-0.132,0.015-0.264,0.095-0.371
		c0.08-0.107,0.197-0.176,0.329-0.195C6.546,10.502,6.57,10.5,6.593,10.5c0.247,0,0.46,0.185,0.495,0.429l0.434,3.04
		c0.039,0.273-0.151,0.527-0.424,0.566C7.074,14.538,7.05,14.54,7.026,14.54z"/>
</g>
</svg>
