<?xml version="1.0" encoding="utf-8"?>
<!-- Generator: Adobe Illustrator 22.1.0, SVG Export Plug-In . SVG Version: 6.00 Build 0)  -->
<svg version="1.1" id="Layer_1" xmlns="http://www.w3.org/2000/svg" xmlns:xlink="http://www.w3.org/1999/xlink" x="0px" y="0px"
	 viewBox="0 0 24 24" style="enable-background:new 0 0 24 24;" xml:space="preserve">
<g>
	<title>shopping-basket-handle-1</title>
	<path d="M5.623,23.006c-1.109,0-2.066-0.76-2.328-1.848L2.07,13.001H2c-1.103,0-2-0.897-2-2s0.897-2,2-2h1.035l1.671-4.677
		C5.201,2.935,6.525,2.001,8,2.001h0.086c0.209-0.59,0.774-1,1.414-1h5c0.64,0,1.205,0.41,1.414,1H16
		c1.476,0,2.801,0.933,3.297,2.323l1.671,4.677H22c1.103,0,2,0.897,2,2s-0.897,2-2,2h-0.069l-1.217,8.114
		c-0.268,1.122-1.233,1.89-2.35,1.89c-0.051,0-0.102-0.002-0.153-0.005l-12.444,0C5.729,23.004,5.676,23.006,5.623,23.006z
		 M18.261,22.001c0.043,0.003,0.078,0.004,0.112,0.004c0.647,0,1.207-0.445,1.36-1.082l1.187-7.923H3.081l1.195,7.966
		c0.147,0.603,0.705,1.039,1.353,1.039c0.034,0,0.068-0.001,0.103-0.004l12.503-0.001C18.234,22.001,18.257,22.001,18.261,22.001z
		 M2,10.001c-0.551,0-1,0.449-1,1s0.449,1,1,1h20c0.552,0,1-0.448,1-1s-0.448-1-1-1H2z M19.906,9.001l-1.55-4.341
		c-0.354-0.992-1.301-1.659-2.354-1.659h-0.087c-0.209,0.59-0.774,1-1.414,1h-5c-0.64,0-1.205-0.41-1.414-1H8
		c-1.053,0-1.999,0.667-2.353,1.659L4.096,9.001H19.906z M9.5,2.001c-0.276,0-0.5,0.224-0.5,0.5s0.224,0.5,0.5,0.5h5
		c0.276,0,0.5-0.224,0.5-0.5s-0.224-0.5-0.5-0.5H9.5z"/>
	<path d="M8.501,20.501c-0.276,0-0.5-0.224-0.5-0.5v-5c0-0.276,0.224-0.5,0.5-0.5s0.5,0.224,0.5,0.5v5
		C9.001,20.276,8.777,20.501,8.501,20.501z"/>
	<path d="M15.501,20.501c-0.276,0-0.5-0.224-0.5-0.5v-5c0-0.276,0.224-0.5,0.5-0.5s0.5,0.224,0.5,0.5v5
		C16.001,20.276,15.777,20.501,15.501,20.501z"/>
</g>
</svg>
