<?xml version="1.0" encoding="utf-8"?>
<!-- Generator: Adobe Illustrator 22.1.0, SVG Export Plug-In . SVG Version: 6.00 Build 0)  -->
<svg version="1.1" id="Layer_1" xmlns="http://www.w3.org/2000/svg" xmlns:xlink="http://www.w3.org/1999/xlink" x="0px" y="0px"
	 viewBox="0 0 24 24" style="enable-background:new 0 0 24 24;" xml:space="preserve">
<g>
	<title>shopping-basket-smile-1</title>
	<path d="M5.623,23.006c-1.109,0-2.066-0.76-2.328-1.848L2.07,13.001H2c-1.103,0-2-0.897-2-2s0.897-2,2-2h1.035l1.671-4.677
		C5.201,2.935,6.525,2.001,8,2.001h0.086c0.209-0.59,0.774-1,1.414-1h5c0.64,0,1.205,0.41,1.414,1H16
		c1.476,0,2.801,0.933,3.297,2.323l1.671,4.677H22c1.103,0,2,0.897,2,2s-0.897,2-2,2h-0.069l-1.217,8.114
		c-0.268,1.122-1.233,1.89-2.35,1.89c-0.051,0-0.102-0.002-0.153-0.005l-12.444,0C5.729,23.004,5.676,23.006,5.623,23.006z
		 M18.261,22.001c0.043,0.003,0.078,0.004,0.112,0.004c0.647,0,1.207-0.445,1.36-1.082l1.187-7.923H3.081l1.195,7.966
		c0.147,0.603,0.705,1.039,1.353,1.039c0.034,0,0.068-0.001,0.103-0.004l12.503-0.001C18.234,22.001,18.257,22.001,18.261,22.001z
		 M2,10.001c-0.551,0-1,0.449-1,1s0.449,1,1,1h20c0.552,0,1-0.448,1-1s-0.448-1-1-1H2z M19.906,9.001l-1.55-4.341
		c-0.354-0.992-1.301-1.659-2.354-1.659h-0.087c-0.209,0.59-0.774,1-1.414,1h-5c-0.64,0-1.205-0.41-1.414-1H8
		c-1.053,0-1.999,0.667-2.353,1.659L4.096,9.001H19.906z M9.5,2.001c-0.276,0-0.5,0.224-0.5,0.5s0.224,0.5,0.5,0.5h5
		c0.276,0,0.5-0.224,0.5-0.5s-0.224-0.5-0.5-0.5H9.5z"/>
	<circle cx="7.75" cy="15.251" r="0.75"/>
	<circle cx="16.25" cy="15.251" r="0.75"/>
	<path d="M11.99,20.503c-0.984,0-1.941-0.292-2.767-0.843c-0.55-0.367-1.014-0.832-1.38-1.381c-0.153-0.23-0.091-0.541,0.138-0.694
		c0.083-0.055,0.178-0.084,0.277-0.084c0.167,0,0.323,0.083,0.416,0.222c0.294,0.44,0.665,0.811,1.105,1.105
		c0.661,0.441,1.426,0.675,2.213,0.675c0.263,0,0.529-0.026,0.79-0.078c1.048-0.209,1.952-0.813,2.545-1.701
		c0.093-0.139,0.249-0.222,0.416-0.222c0.099,0,0.194,0.029,0.277,0.084c0.23,0.154,0.292,0.465,0.139,0.694
		c-0.742,1.111-1.872,1.866-3.182,2.127C12.652,20.47,12.32,20.503,11.99,20.503z"/>
</g>
</svg>
