<?xml version="1.0" encoding="utf-8"?>
<!-- Generator: Adobe Illustrator 22.1.0, SVG Export Plug-In . SVG Version: 6.00 Build 0)  -->
<svg version="1.1" id="Layer_1" xmlns="http://www.w3.org/2000/svg" xmlns:xlink="http://www.w3.org/1999/xlink" x="0px" y="0px"
	 viewBox="0 0 24 24" style="enable-background:new 0 0 24 24;" xml:space="preserve">
<g>
	<title>shopping-basket-subtract</title>
	<path d="M18.5,24c-3.033,0-5.5-2.467-5.5-5.5s2.467-5.5,5.5-5.5s5.5,2.467,5.5,5.5S21.533,24,18.5,24z M18.5,14
		c-2.481,0-4.5,2.019-4.5,4.5s2.019,4.5,4.5,4.5s4.5-2.019,4.5-4.5S20.981,14,18.5,14z"/>
	<path d="M16.5,19c-0.276,0-0.5-0.224-0.5-0.5s0.224-0.5,0.5-0.5h4c0.276,0,0.5,0.224,0.5,0.5S20.776,19,20.5,19H16.5z"/>
	<path d="M4.948,18c-1.028,0-1.934-0.73-2.156-1.737L1.387,8.996C0.612,8.937,0,8.289,0,7.5v-1C0,5.673,0.673,5,1.5,5h1.736
		l2.466-4.731C5.788,0.103,5.958,0,6.145,0c0.08,0,0.16,0.02,0.231,0.057c0.245,0.127,0.34,0.43,0.212,0.675L4.363,5H16.61
		l-2.224-4.269c-0.062-0.119-0.073-0.254-0.033-0.381c0.04-0.128,0.127-0.232,0.246-0.293C14.669,0.019,14.749,0,14.829,0
		c0.188,0,0.358,0.103,0.444,0.27L17.737,5h1.737c0.827,0,1.5,0.673,1.5,1.5v1c0,0.79-0.614,1.439-1.39,1.496l-0.459,2.381
		c-0.045,0.235-0.251,0.405-0.49,0.405c-0.031,0-0.063-0.003-0.096-0.009c-0.132-0.025-0.245-0.1-0.32-0.211
		c-0.075-0.111-0.102-0.244-0.076-0.375L18.565,9H2.406l1.365,7.061c0.12,0.542,0.613,0.939,1.171,0.939L10,17
		c0.276,0,0.5,0.224,0.5,0.5S10.276,18,10,18L4.948,18z M1.5,6C1.224,6,1,6.224,1,6.5v1C1,7.776,1.224,8,1.5,8h17.974
		c0.276,0,0.5-0.224,0.5-0.5v-1c0-0.276-0.224-0.5-0.5-0.5H1.5z"/>
	<path d="M10.5,14.539c-0.276,0-0.5-0.224-0.5-0.5V11c0-0.276,0.224-0.5,0.5-0.5S11,10.724,11,11v3.039
		C11,14.315,10.776,14.539,10.5,14.539z"/>
	<path d="M7.026,14.539c-0.247,0-0.46-0.185-0.495-0.429l-0.434-3.039c-0.019-0.132,0.015-0.264,0.095-0.371
		c0.08-0.107,0.197-0.176,0.329-0.195C6.546,10.502,6.569,10.5,6.592,10.5c0.247,0,0.46,0.185,0.495,0.429l0.434,3.039
		c0.039,0.273-0.151,0.527-0.424,0.566C7.073,14.537,7.049,14.539,7.026,14.539z"/>
</g>
</svg>
