<?xml version="1.0" encoding="utf-8"?>
<!-- Generator: Adobe Illustrator 22.1.0, SVG Export Plug-In . SVG Version: 6.00 Build 0)  -->
<svg version="1.1" id="Layer_1" xmlns="http://www.w3.org/2000/svg" xmlns:xlink="http://www.w3.org/1999/xlink" x="0px" y="0px"
	 viewBox="0 0 24 24" style="enable-background:new 0 0 24 24;" xml:space="preserve">
<g>
	<title>shopping-basket-2</title>
	<path d="M5.623,23.005c-1.109,0-2.066-0.76-2.328-1.848L2.07,13H2c-1.103,0-2-0.897-2-2s0.897-2,2-2h20c1.103,0,2,0.897,2,2
		s-0.897,2-2,2h-0.069l-1.217,8.114c-0.268,1.122-1.233,1.89-2.35,1.89c-0.051,0-0.102-0.002-0.153-0.005L5.766,23
		C5.729,23.003,5.676,23.005,5.623,23.005z M18.261,22.001c0.043,0.003,0.078,0.004,0.112,0.004c0.647,0,1.207-0.445,1.36-1.082
		L20.919,13H3.081l1.195,7.966c0.147,0.603,0.705,1.039,1.353,1.039c0.034,0,0.068-0.001,0.103-0.004L18.234,22
		C18.234,22,18.257,22.001,18.261,22.001z M2,10.001c-0.551,0-1,0.449-1,1s0.449,1,1,1h20c0.552,0,1-0.448,1-1s-0.448-1-1-1H2z"/>
	<path d="M4,8.001c-0.088,0-0.175-0.023-0.251-0.068C3.633,7.865,3.55,7.757,3.516,7.628C3.482,7.499,3.501,7.364,3.568,7.249l3.5-6
		C7.157,1.096,7.323,1,7.5,1c0.088,0,0.175,0.024,0.252,0.068c0.238,0.139,0.319,0.446,0.18,0.684l-3.5,6
		C4.342,7.906,4.177,8.001,4,8.001z"/>
	<path d="M20,8.001c-0.177,0-0.343-0.095-0.432-0.248l-3.5-6c-0.138-0.238-0.058-0.545,0.18-0.684
		c0.077-0.045,0.164-0.068,0.252-0.068c0.177,0,0.343,0.095,0.432,0.248l3.5,6c0.138,0.238,0.058,0.545-0.18,0.684
		C20.176,7.977,20.089,8.001,20,8.001z"/>
	<path d="M8.501,20.5c-0.276,0-0.5-0.224-0.5-0.5v-5c0-0.276,0.224-0.5,0.5-0.5s0.5,0.224,0.5,0.5v5
		C9.001,20.276,8.777,20.5,8.501,20.5z"/>
	<path d="M15.501,20.5c-0.276,0-0.5-0.224-0.5-0.5v-5c0-0.276,0.224-0.5,0.5-0.5s0.5,0.224,0.5,0.5v5
		C16.001,20.276,15.777,20.5,15.501,20.5z"/>
</g>
</svg>
