<?xml version="1.0" encoding="utf-8"?>
<!-- Generator: Adobe Illustrator 22.1.0, SVG Export Plug-In . SVG Version: 6.00 Build 0)  -->
<svg version="1.1" id="Layer_1" xmlns="http://www.w3.org/2000/svg" xmlns:xlink="http://www.w3.org/1999/xlink" x="0px" y="0px"
	 viewBox="0 0 24 24" style="enable-background:new 0 0 24 24;" xml:space="preserve">
<g>
	<title>shopping-basket-like</title>
	<path d="M7,24c-3.86,0-7-3.14-7-7c0-1.996,0.853-3.89,2.345-5.222L1.59,8H0.5C0.224,8,0,7.776,0,7.5v-2C0,4.673,0.673,4,1.5,4h2.25
		L6.6,0.2C6.694,0.075,6.844,0,7,0c0.109,0,0.213,0.035,0.3,0.1c0.107,0.08,0.176,0.197,0.195,0.329C7.514,0.562,7.48,0.693,7.4,0.8
		L5,4h13.898l-2.774-3.171c-0.181-0.208-0.16-0.524,0.047-0.706C16.262,0.044,16.379,0,16.5,0c0.144,0,0.281,0.062,0.376,0.17
		L20.227,4H22.5C23.327,4,24,4.673,24,5.5v2C24,7.776,23.776,8,23.5,8h-1.09l-1.62,8.105c-0.272,1.12-1.256,1.896-2.393,1.896
		c-0.028,0-0.056,0-0.085-0.002l-4.385,0C13.436,21.436,10.496,24,7,24z M7,11c-3.308,0-6,2.692-6,6s2.692,6,6,6s6-2.692,6-6
		S10.308,11,7,11z M18.331,17l0.066,0.001c0.675,0,1.257-0.458,1.417-1.113L21.39,8H2.61l0.621,3.106C4.358,10.381,5.653,10,7,10
		c3.86,0,7,3.14,7,7H18.331z M23,7V5.5C23,5.224,22.776,5,22.5,5h-21C1.224,5,1,5.224,1,5.5V7H23z"/>
	<path d="M7.189,20.82c-0.857,0-1.36-0.102-2.695-0.742C4.456,20.317,4.249,20.5,4,20.5c-0.276,0-0.5-0.224-0.5-0.5v-5
		c0-0.276,0.224-0.5,0.5-0.5s0.5,0.224,0.5,0.5v0.314h0.3c0.067,0,0.13-0.033,0.169-0.088l1.73-2.442
		c0.058-0.082,0.126-0.154,0.202-0.216c0.197-0.161,0.446-0.25,0.7-0.25c0.037,0,0.074,0.002,0.111,0.006
		c0.295,0.029,0.56,0.172,0.748,0.401c0.223,0.273,0.302,0.638,0.211,0.978L8.36,14.88c-0.016,0.061-0.003,0.126,0.035,0.175
		c0.044,0.058,0.107,0.092,0.172,0.092h1.728c0.119,0,0.236,0.017,0.349,0.051c0.637,0.193,0.999,0.867,0.807,1.503l-0.674,2.252
		C10.398,20.179,9.674,20.8,8.623,20.8c-0.339,0-0.623,0.006-0.87,0.011C7.532,20.816,7.353,20.82,7.189,20.82z M4.5,18.968
		c1.541,0.766,1.929,0.851,2.72,0.851c0.149,0,0.312-0.003,0.496-0.007C7.972,19.806,8.268,19.8,8.623,19.8
		c0.508,0,0.906-0.193,1.197-1.137l0.673-2.249c0.033-0.11-0.029-0.225-0.137-0.258c-0.019-0.006-0.04-0.009-0.061-0.009H8.563
		c-0.38-0.003-0.739-0.186-0.964-0.487c-0.223-0.288-0.301-0.677-0.205-1.037l0.312-1.177c0.008-0.031,0.001-0.064-0.019-0.089
		c-0.018-0.022-0.044-0.036-0.073-0.039c-0.001,0-0.003,0-0.004,0c-0.035,0-0.057,0.008-0.076,0.024
		c-0.008,0.006-0.014,0.013-0.019,0.021l-1.728,2.44c-0.225,0.32-0.594,0.511-0.986,0.511H4.5V18.968z"/>
</g>
</svg>
