<?xml version="1.0" encoding="utf-8"?>
<!-- Generator: Adobe Illustrator 22.1.0, SVG Export Plug-In . SVG Version: 6.00 Build 0)  -->
<svg version="1.1" id="Layer_1" xmlns="http://www.w3.org/2000/svg" xmlns:xlink="http://www.w3.org/1999/xlink" x="0px" y="0px"
	 viewBox="0 0 24 24" style="enable-background:new 0 0 24 24;" xml:space="preserve">
<g>
	<title>tag-hot-price</title>
	<path d="M7,10.5c-0.276,0-0.5-0.224-0.5-0.5V6.5h-3V10c0,0.276-0.224,0.5-0.5,0.5S2.5,10.276,2.5,10V2c0-0.276,0.224-0.5,0.5-0.5
		S3.5,1.724,3.5,2v3.5h3V2c0-0.276,0.224-0.5,0.5-0.5S7.5,1.724,7.5,2v8C7.5,10.276,7.276,10.5,7,10.5z"/>
	<path d="M11.75,10.5C9.917,10.457,8.459,8.936,8.5,7.11c-0.028-1.315,0.794-2.516,2.045-2.976c0.056-0.02,0.114-0.031,0.173-0.031
		c0.088,0,0.174,0.023,0.25,0.067c0.128,0.074,0.217,0.2,0.243,0.347c0.004,0.021,0.008,0.042,0.013,0.063
		c0.08-0.786-0.221-1.585-0.834-2.119c-0.178-0.155-0.224-0.408-0.111-0.616c0.087-0.161,0.255-0.262,0.439-0.262
		c0.047,0,0.094,0.007,0.139,0.02c2.452,0.7,4.157,2.97,4.144,5.521c0.041,1.816-1.412,3.333-3.238,3.376c-0.002,0-0.004,0-0.006,0
		S11.752,10.5,11.75,10.5z M10.434,5.306C9.845,5.706,9.485,6.388,9.5,7.111C9.471,8.403,10.486,9.47,11.762,9.5
		C13.019,9.47,14.029,8.408,14,7.132c0.008-1.509-0.723-2.935-1.911-3.822c0.262,0.853,0.185,1.781-0.238,2.602
		c-0.066,0.128-0.184,0.222-0.324,0.256c-0.039,0.01-0.08,0.015-0.12,0.015c-0.103,0-0.202-0.031-0.286-0.09
		C10.833,5.893,10.596,5.619,10.434,5.306z"/>
	<path d="M19,10.5c-0.276,0-0.5-0.224-0.5-0.5V2.5h-2C16.224,2.5,16,2.276,16,2s0.224-0.5,0.5-0.5h5C21.776,1.5,22,1.724,22,2
		s-0.224,0.5-0.5,0.5h-2V10C19.5,10.276,19.276,10.5,19,10.5z"/>
	<path d="M11,22.5c-0.276,0-0.5-0.224-0.5-0.5s0.224-0.5,0.5-0.5h0.5v-5H11c-0.276,0-0.5-0.224-0.5-0.5s0.224-0.5,0.5-0.5h2
		c0.276,0,0.5,0.224,0.5,0.5s-0.224,0.5-0.5,0.5h-0.5v5H13c0.276,0,0.5,0.224,0.5,0.5s-0.224,0.5-0.5,0.5H11z"/>
	<path d="M18,22.5c-1.93,0-3.5-1.57-3.5-3.5s1.57-3.5,3.5-3.5c0.276,0,0.5,0.224,0.5,0.5s-0.224,0.5-0.5,0.5
		c-1.378,0-2.5,1.122-2.5,2.5s1.122,2.5,2.5,2.5c0.276,0,0.5,0.224,0.5,0.5S18.276,22.5,18,22.5z"/>
	<path d="M21,22.5c-0.827,0-1.5-0.673-1.5-1.5v-4c0-0.827,0.673-1.5,1.5-1.5h2c0.276,0,0.5,0.224,0.5,0.5s-0.224,0.5-0.5,0.5h-2
		c-0.276,0-0.5,0.224-0.5,0.5v1.5H22c0.276,0,0.5,0.224,0.5,0.5s-0.224,0.5-0.5,0.5h-1.5V21c0,0.276,0.224,0.5,0.5,0.5h2
		c0.276,0,0.5,0.224,0.5,0.5s-0.224,0.5-0.5,0.5H21z"/>
	<path d="M1,22.5c-0.276,0-0.5-0.224-0.5-0.5v-6c0-0.276,0.224-0.5,0.5-0.5h1.5c1.103,0,2,0.897,2,2s-0.897,2-2,2h-1V22
		C1.5,22.276,1.276,22.5,1,22.5z M2.5,18.5c0.551,0,1-0.448,1-1s-0.449-1-1-1h-1v2H2.5z"/>
	<path d="M9,22.5c-0.134,0-0.259-0.052-0.354-0.146L6.5,20.207V22c0,0.276-0.224,0.5-0.5,0.5S5.5,22.276,5.5,22v-6
		c0-0.276,0.224-0.5,0.5-0.5h1.5c1.103,0,2,0.897,2,2s-0.897,2-2,2H7.207l2.146,2.146C9.448,21.741,9.5,21.866,9.5,22
		s-0.052,0.259-0.146,0.354S9.134,22.5,9,22.5z M7.5,18.5c0.551,0,1-0.448,1-1s-0.449-1-1-1h-1v2H7.5z"/>
</g>
</svg>
