<?xml version="1.0" encoding="utf-8"?>
<!-- Generator: Adobe Illustrator 22.1.0, SVG Export Plug-In . SVG Version: 6.00 Build 0)  -->
<svg version="1.1" id="Light" xmlns="http://www.w3.org/2000/svg" xmlns:xlink="http://www.w3.org/1999/xlink" x="0px" y="0px"
	 viewBox="0 0 24 24" style="enable-background:new 0 0 24 24;" xml:space="preserve">
<g>
	<title>martial-arts-sword-fencing-1</title>
	<path d="M0.5,24c-0.134,0-0.259-0.052-0.354-0.146c-0.195-0.195-0.195-0.512,0-0.707l4.596-4.596l-2.439-2.44
		C2.203,16.01,2.15,15.87,2.158,15.727c0.008-0.143,0.078-0.275,0.19-0.363c0.787-0.619,1.77-0.959,2.766-0.959
		c0.996,0,1.978,0.341,2.766,0.959c0.009,0.007,0.018,0.014,0.027,0.022l15.24-15.24C23.241,0.052,23.367,0,23.5,0
		s0.259,0.052,0.354,0.146c0.195,0.195,0.195,0.512,0,0.707l-15.24,15.24c0.521,0.649,0.847,1.425,0.947,2.258
		c0.142,1.184-0.184,2.353-0.918,3.292c0,0-0.011,0.014-0.011,0.014c-0.117,0.153-0.245,0.297-0.379,0.43
		c-0.839,0.844-1.959,1.312-3.153,1.316c-1.031,0-2.015-0.349-2.808-0.987l-1.437,1.437C0.759,23.948,0.634,24,0.5,24z
		 M3.003,21.704c0.607,0.458,1.321,0.699,2.081,0.699c0.938-0.003,1.808-0.366,2.462-1.024c0.004-0.004,0.009-0.009,0.013-0.013
		L5.45,19.257L3.003,21.704z M8.164,20.558c0.347-0.632,0.49-1.363,0.403-2.087c-0.094-0.781-0.438-1.487-0.995-2.042
		c-0.113-0.113-0.212-0.201-0.31-0.278c-0.612-0.48-1.375-0.745-2.148-0.745c-0.588,0-1.16,0.148-1.672,0.429
		c0,0,2.368,2.368,2.37,2.371L8.164,20.558z"/>
</g>
</svg>
