<?xml version="1.0" encoding="utf-8"?>
<!-- Generator: Adobe Illustrator 22.1.0, SVG Export Plug-In . SVG Version: 6.00 Build 0)  -->
<svg version="1.1" id="Light" xmlns="http://www.w3.org/2000/svg" xmlns:xlink="http://www.w3.org/1999/xlink" x="0px" y="0px"
	 viewBox="0 0 24 24" style="enable-background:new 0 0 24 24;" xml:space="preserve">
<g>
	<title>martial-arts-sumo</title>
	<path d="M16.971,24c-0.52,0-0.947-0.388-0.998-0.902c-0.15-1.5-1.155-2.807-2.565-3.341l-2.816-0.001
		c-1.416,0.531-2.425,1.839-2.576,3.344C7.964,23.613,7.536,24,7.021,24H5.67c-0.467,0-0.867-0.317-0.974-0.77
		c-0.132-0.567-0.198-1.15-0.196-1.731c-0.014-1.919,0.664-3.783,1.911-5.25l0.709-1.771c-0.23-0.735-0.421-1.482-0.571-2.228
		c-1.415,0.399-2.785,0.957-4.077,1.658c-0.147,0.08-0.312,0.121-0.478,0.121c-0.354,0-0.674-0.181-0.857-0.486l-0.787-1.31
		c-0.259-0.432-0.155-0.992,0.242-1.303c2.525-1.983,5.521-3.268,8.69-3.733C8.781,6.578,8.5,5.8,8.5,5V2.391
		C8.499,1.932,8.81,1.532,9.256,1.42l1.165-0.291c0.003-0.165,0.04-0.356,0.152-0.538C10.816,0.199,11.296,0,12,0
		c0.704,0,1.184,0.199,1.427,0.591c0.113,0.182,0.15,0.373,0.152,0.538l1.163,0.291c0.447,0.111,0.758,0.511,0.758,0.971V5
		c0,0.8-0.281,1.579-0.783,2.199c3.17,0.467,6.165,1.755,8.69,3.74c0.397,0.312,0.499,0.872,0.238,1.304L22.85,13.55
		c-0.183,0.301-0.503,0.48-0.854,0.48l0,0c-0.165,0-0.33-0.042-0.476-0.121c-1.292-0.702-2.661-1.259-4.075-1.658
		c-0.15,0.747-0.342,1.495-0.572,2.229l0.7,1.763c1.25,1.467,1.932,3.333,1.923,5.26c0,0.58-0.067,1.162-0.202,1.728
		C19.188,23.683,18.788,24,18.322,24H16.971z M7.088,17c-1.036,1.268-1.599,2.86-1.588,4.497c-0.002,0.508,0.056,1.014,0.17,1.505
		L7.019,23c0.181-1.779,1.342-3.362,2.978-4.079V17H7.088z M13.998,18.92c1.634,0.719,2.792,2.302,2.97,4.079L18.321,23
		c0.117-0.491,0.176-0.996,0.175-1.5c0.008-1.64-0.558-3.233-1.594-4.5h-2.906L13.998,18.92z M12.998,18.757L12.996,17h-2v1.756
		L12.998,18.757z M16.401,16l-0.397-1H7.988l-0.4,1H16.401z M15.973,14c0.248-0.815,0.445-1.64,0.587-2.458
		c0.024-0.137,0.104-0.258,0.221-0.334c0.082-0.053,0.176-0.08,0.273-0.08c0.041,0,0.082,0.005,0.122,0.015
		c1.678,0.426,3.3,1.06,4.821,1.886l0.794-1.306c-2.637-2.072-5.793-3.332-9.132-3.645C13.149,8.355,12.577,8.5,12,8.5
		c-0.577,0-1.149-0.146-1.659-0.422c-3.339,0.311-6.495,1.569-9.132,3.64l0.786,1.31c1.521-0.826,3.144-1.461,4.823-1.886
		c0.04-0.01,0.081-0.015,0.123-0.015c0.097,0,0.191,0.028,0.272,0.081c0.116,0.075,0.197,0.197,0.22,0.333
		c0.143,0.817,0.34,1.643,0.588,2.459H15.973z M9.504,5.098C9.556,6.428,10.665,7.5,12,7.5c1.336,0,2.444-1.072,2.496-2.402
		c-0.12-0.251-0.53-1.016-1.173-1.259c-0.13-0.049-0.266-0.074-0.405-0.074c-0.219,0-0.452,0.061-0.694,0.182
		C12.155,3.982,12.078,4,12,4s-0.155-0.018-0.224-0.053c-0.242-0.121-0.476-0.183-0.694-0.183c-0.139,0-0.276,0.025-0.406,0.075
		C10.03,4.085,9.623,4.848,9.504,5.098z M12,1c-0.408,0-0.556,0.087-0.576,0.117c-0.012,0.024,0.002,0.111,0.027,0.168
		c0.064,0.128,0.067,0.286,0.003,0.424c-0.064,0.139-0.185,0.239-0.333,0.276L9.5,2.39l0,1.032c0.255-0.233,0.529-0.406,0.821-0.517
		c0.247-0.094,0.504-0.141,0.764-0.141c0.3,0,0.608,0.063,0.916,0.188c0.308-0.125,0.616-0.188,0.916-0.188
		c0.26,0,0.517,0.047,0.764,0.141c0.291,0.111,0.565,0.284,0.82,0.517V2.391l-1.621-0.406c-0.148-0.037-0.269-0.138-0.333-0.276
		c-0.063-0.137-0.061-0.292,0.004-0.427c0.027-0.062,0.037-0.143,0.026-0.165C12.557,1.087,12.409,1,12,1z"/>
	<path d="M14.283,12.59c-0.838,0-1.657-0.315-2.282-0.872c-0.625,0.557-1.444,0.872-2.282,0.872c-0.284,0-0.567-0.035-0.841-0.105
		c-0.129-0.033-0.238-0.114-0.306-0.229c-0.068-0.115-0.088-0.249-0.055-0.379C8.572,11.655,8.772,11.5,9.001,11.5
		c0.041,0,0.082,0.005,0.121,0.015c0.196,0.05,0.396,0.075,0.597,0.075c0.74,0,1.429-0.329,1.892-0.904
		c0.008-0.01,0.022-0.024,0.035-0.035c0.011-0.013,0.024-0.027,0.042-0.041c0.014-0.011,0.035-0.024,0.054-0.034
		c0.024-0.015,0.048-0.026,0.073-0.037c0.031-0.012,0.06-0.022,0.091-0.028c0.033-0.006,0.063-0.009,0.095-0.009
		c0.033,0,0.064,0.003,0.097,0.009c0.029,0.006,0.058,0.015,0.088,0.027c0.026,0.01,0.051,0.023,0.076,0.038
		c0.019,0.01,0.04,0.023,0.053,0.033c0.016,0.013,0.029,0.026,0.039,0.038c0.011,0.01,0.024,0.022,0.036,0.037
		c0.464,0.575,1.153,0.905,1.893,0.905c0.201,0,0.401-0.025,0.595-0.075C14.918,11.505,14.959,11.5,15,11.5
		c0.229,0,0.428,0.155,0.485,0.377c0.033,0.129,0.014,0.264-0.054,0.379c-0.068,0.115-0.177,0.196-0.306,0.229
		C14.85,12.554,14.567,12.59,14.283,12.59z"/>
</g>
</svg>
