<?xml version="1.0" encoding="utf-8"?>
<!-- Generator: Adobe Illustrator 22.1.0, SVG Export Plug-In . SVG Version: 6.00 Build 0)  -->
<svg version="1.1" id="Light" xmlns="http://www.w3.org/2000/svg" xmlns:xlink="http://www.w3.org/1999/xlink" x="0px" y="0px"
	 viewBox="0 0 24 24" style="enable-background:new 0 0 24 24;" xml:space="preserve">
<g>
	<title>martial-arts-fencing</title>
	<path d="M15.499,7.249c-1.654,0-3-1.346-3-3s1.346-3,3-3s3,1.346,3,3S17.154,7.249,15.499,7.249z M15.499,2.249
		c-1.103,0-2,0.897-2,2s0.897,2,2,2s2-0.897,2-2S16.602,2.249,15.499,2.249z"/>
	<path d="M21.997,22.751c-0.384,0-0.757-0.11-1.08-0.318l-6.506-4.182H14c-0.552,0-1,0.448-1,1v1.5c0,1.103-0.897,2-2,2
		s-2-0.897-2-2v-1.5c0.003-2.398,1.673-4.425,4-4.899v-2.547l-3.571-0.512C9.297,11.275,9.18,11.206,9.1,11.099
		s-0.114-0.239-0.095-0.371c0.035-0.244,0.247-0.429,0.494-0.429c0.024,0,0.048,0.002,0.072,0.005l4,0.573
		C13.816,10.912,14,11.125,14,11.372v3.407c0,0.255-0.191,0.469-0.444,0.497c-2.024,0.229-3.553,1.938-3.556,3.976v1.5
		c0,0.552,0.449,1,1,1s1-0.448,1-1v-1.5c0-1.103,0.897-2,2-2h0.559c0.097,0,0.19,0.028,0.271,0.08l6.628,4.261
		c0.161,0.104,0.348,0.158,0.539,0.158c0.344,0,0.659-0.171,0.844-0.458c0.298-0.464,0.164-1.084-0.3-1.382l-5.852-3.762
		c-0.431-0.277-0.688-0.748-0.688-1.261v-3.183c0-0.142,0.061-0.278,0.167-0.373c0.092-0.082,0.21-0.127,0.332-0.127
		c0.019,0,0.039,0.001,0.058,0.003l1.943,0.216c0.12,0.013,0.244,0.017,0.364,0.021l0.1,0.004c1.973,0,3.667-1.476,3.939-3.433
		l0.089-0.623c0.038-0.264-0.03-0.527-0.19-0.741c-0.16-0.214-0.394-0.353-0.658-0.391c-0.049-0.007-0.097-0.01-0.145-0.01
		c-0.216,0-0.422,0.069-0.597,0.2c-0.214,0.16-0.352,0.394-0.39,0.658L20.925,7.73c-0.138,0.995-0.966,1.717-1.967,1.717
		c-0.077,0-0.155-0.004-0.234-0.013L9.938,8.326C9.664,8.292,9.47,8.041,9.504,7.768C9.536,7.518,9.75,7.33,10.002,7.33
		c0.019,0,0.039,0.001,0.058,0.003l8.783,1.107c0.037,0.004,0.076,0.006,0.115,0.006c0.497,0,0.907-0.36,0.977-0.857l0.089-0.624
		c0.076-0.529,0.353-0.997,0.781-1.317c0.349-0.261,0.762-0.4,1.195-0.4c0.096,0,0.193,0.007,0.288,0.021
		c1.092,0.157,1.853,1.172,1.696,2.264l-0.089,0.621c-0.339,2.447-2.459,4.293-4.931,4.293c-0.198,0-0.386-0.01-0.572-0.031
		l-1.39-0.155v2.625c0,0.171,0.086,0.328,0.229,0.42l5.852,3.763c0.927,0.597,1.196,1.837,0.599,2.764
		C23.312,22.409,22.682,22.751,21.997,22.751z"/>
	<path d="M7.365,11.899c-0.034,0-0.068-0.003-0.1-0.01c-1.405-0.284-2.406-1.569-2.364-2.984L0.4,7.995
		C0.13,7.94-0.045,7.676,0.009,7.406c0.047-0.232,0.252-0.401,0.489-0.401c0.034,0,0.068,0.003,0.101,0.01l4.502,0.91
		c0.437-1.119,1.536-1.882,2.75-1.882c0.195,0,0.392,0.02,0.585,0.059c0.131,0.026,0.244,0.102,0.318,0.214s0.1,0.245,0.073,0.375
		l-0.971,4.807c-0.026,0.129-0.104,0.245-0.213,0.318C7.56,11.87,7.464,11.899,7.365,11.899z M7.734,7.047
		C6.859,7.099,6.113,7.74,5.937,8.609c-0.178,0.88,0.266,1.752,1.05,2.138L7.734,7.047z"/>
</g>
</svg>
