<?xml version="1.0" encoding="utf-8"?>
<!-- Generator: Adobe Illustrator 22.1.0, SVG Export Plug-In . SVG Version: 6.00 Build 0)  -->
<svg version="1.1" id="Light" xmlns="http://www.w3.org/2000/svg" xmlns:xlink="http://www.w3.org/1999/xlink" x="0px" y="0px"
	 viewBox="0 0 24 24" style="enable-background:new 0 0 24 24;" xml:space="preserve">
<g>
	<title>martial-arts-helmet</title>
	<path d="M12,17c-2.498,0-4.805-1.687-5.877-4.298c-0.002-0.004-0.012-0.03-0.013-0.034C5.706,11.677,5.5,10.608,5.5,9.5
		s0.206-2.176,0.613-3.177C6.115,6.316,6.122,6.299,6.13,6.283C7.195,3.687,9.502,2,12,2c2.498,0,4.805,1.687,5.877,4.297
		c0.002,0.004,0.01,0.023,0.016,0.043C18.294,7.324,18.5,8.393,18.5,9.5c0,1.107-0.206,2.176-0.613,3.176
		c-0.001,0.005-0.009,0.024-0.018,0.043C16.805,15.313,14.498,17,12,17z M12.5,15.972c1.678-0.183,3.217-1.292,4.131-2.972H12.5
		V15.972z M7.369,13c0.915,1.68,2.453,2.789,4.131,2.972V13H7.369z M17.075,12c0.226-0.638,0.363-1.309,0.407-2H12.5v2H17.075z
		 M11.5,12v-2H6.518c0.045,0.691,0.181,1.362,0.408,2H11.5z M17.482,9c-0.045-0.691-0.181-1.362-0.407-2H12.5v2H17.482z M11.5,9V7
		H6.925C6.699,7.638,6.562,8.309,6.518,9H11.5z M16.631,6c-0.915-1.68-2.454-2.789-4.131-2.972V6H16.631z M11.5,6V3.028
		C9.823,3.211,8.284,4.32,7.369,6H11.5z"/>
	<path d="M22,24c-0.073,0-0.145-0.005-0.217-0.016c-2.837-0.412-5.398-1.806-7.283-3.95V22.5c0,0.827-0.673,1.5-1.5,1.5h-2
		c-0.827,0-1.5-0.673-1.5-1.5v-2.466c-1.886,2.144-4.448,3.538-7.285,3.95C2.145,23.995,2.075,24,2.004,24
		c-0.407-0.003-0.785-0.159-1.065-0.439C0.656,23.277,0.5,22.901,0.5,22.5v-3c0.002-0.73,0.525-1.351,1.244-1.476
		c1.51-0.274,2.899-1.047,3.933-2.186C4.271,14.091,3.5,11.849,3.5,9.5C3.5,4.262,7.313,0,12,0c4.687,0,8.5,4.262,8.5,9.5
		c0,2.349-0.771,4.591-2.177,6.339c1.035,1.139,2.427,1.912,3.942,2.185c0.714,0.128,1.234,0.748,1.235,1.474V22.5
		c0,0.4-0.156,0.777-0.439,1.06S22.401,24,22,24L22,24z M6.348,16.587c-1.173,1.258-2.736,2.115-4.43,2.422
		c-0.243,0.042-0.418,0.249-0.418,0.492V22.5c0,0.134,0.052,0.26,0.146,0.354c0.067,0.067,0.179,0.147,0.328,0.147
		C1.977,23.001,2,23,2.003,23c0.023,0,0.046-0.002,0.068-0.005c2.938-0.427,5.601-2.044,7.34-4.448
		C8.285,18.143,7.235,17.471,6.348,16.587z M14.588,18.547c1.739,2.405,4.401,4.021,7.339,4.448c0.025,0.004,0.05,0.005,0.073,0.005
		c0.131,0,0.256-0.052,0.351-0.148c0.095-0.095,0.148-0.22,0.147-0.353v-3c0-0.241-0.174-0.448-0.412-0.491
		c-1.697-0.307-3.262-1.163-4.437-2.422C16.764,17.472,15.714,18.143,14.588,18.547z M10.5,22.5c0,0.276,0.224,0.5,0.5,0.5h2
		c0.276,0,0.5-0.224,0.5-0.5v-3.65c-0.497,0.1-1,0.15-1.5,0.15s-1.003-0.05-1.5-0.15V22.5z M12,1C7.865,1,4.5,4.813,4.5,9.5
		S7.865,18,12,18s7.5-3.813,7.5-8.5S16.135,1,12,1z"/>
</g>
</svg>
