<?xml version="1.0" encoding="utf-8"?>
<!-- Generator: Adobe Illustrator 22.1.0, SVG Export Plug-In . SVG Version: 6.00 Build 0)  -->
<svg version="1.1" id="Layer_1" xmlns="http://www.w3.org/2000/svg" xmlns:xlink="http://www.w3.org/1999/xlink" x="0px" y="0px"
	 viewBox="0 0 24 24" style="enable-background:new 0 0 24 24;" xml:space="preserve">
<g>
	<title>old-people-man-2</title>
	<path d="M11.805,14.5c-0.604,0-1.186-0.223-1.638-0.628c-0.205-0.184-0.223-0.5-0.039-0.706C10.222,13.06,10.358,13,10.5,13
		c0.123,0,0.242,0.045,0.333,0.128c0.27,0.241,0.608,0.374,0.954,0.374l0.385-0.001c0.372,0,0.725-0.132,0.994-0.373
		C13.258,13.045,13.376,13,13.5,13c0.142,0,0.278,0.061,0.373,0.167c0.089,0.099,0.134,0.228,0.126,0.361
		c-0.008,0.133-0.066,0.256-0.166,0.345c-0.453,0.405-1.033,0.628-1.635,0.628L11.805,14.5z"/>
	<path d="M9,10c-0.095,0-0.188-0.027-0.269-0.079c-0.113-0.072-0.19-0.183-0.219-0.314c-0.029-0.13-0.005-0.264,0.067-0.377
		c0.293-0.46,0.793-0.734,1.337-0.734c0.028,0,0.056,0.001,0.084,0.002c0.028-0.002,0.057-0.002,0.085-0.002
		c0.543,0,1.043,0.275,1.336,0.734c0.072,0.113,0.096,0.246,0.067,0.377c-0.029,0.13-0.107,0.242-0.219,0.314
		C11.189,9.972,11.096,10,11,10c-0.172,0-0.33-0.086-0.422-0.231c-0.107-0.168-0.297-0.272-0.496-0.272
		C10.067,9.497,10.006,9.5,10,9.5c-0.013,0-0.066-0.003-0.08-0.003c-0.203,0-0.389,0.102-0.498,0.272C9.329,9.913,9.172,10,9,10z"/>
	<path d="M15,10c-0.172,0-0.33-0.086-0.422-0.231c-0.109-0.17-0.294-0.272-0.496-0.272C14.067,9.497,14.006,9.5,14,9.5
		c-0.013,0-0.065-0.003-0.079-0.003c-0.204,0-0.391,0.102-0.5,0.272C13.329,9.913,13.172,10,13,10c-0.095,0-0.188-0.027-0.269-0.079
		c-0.113-0.072-0.19-0.183-0.219-0.314c-0.029-0.13-0.005-0.264,0.067-0.377c0.293-0.46,0.794-0.734,1.34-0.734
		c0.027,0,0.054,0.001,0.082,0.002c0.027-0.001,0.054-0.002,0.081-0.002c0.546,0,1.047,0.274,1.34,0.734
		c0.072,0.113,0.095,0.246,0.067,0.377c-0.029,0.131-0.107,0.242-0.219,0.314C15.188,9.973,15.095,10,15,10z"/>
	<path d="M11,4.5c-0.276,0-0.5-0.224-0.5-0.5s0.224-0.5,0.5-0.5h2c0.276,0,0.5,0.224,0.5,0.5S13.276,4.5,13,4.5H11z"/>
	<path d="M11.5,6.5C11.224,6.5,11,6.275,11,6s0.224-0.5,0.5-0.5h1C12.776,5.5,13,5.724,13,6s-0.224,0.5-0.5,0.5H11.5z"/>
	<path d="M12,17.5c-0.024,0-0.048-0.002-0.071-0.005c-2.145-0.316-4.033-1.706-4.983-3.651C6.639,13.947,6.323,14,6.004,14l-0.038,0
		c-0.108,0-0.225-0.009-0.358-0.026c-0.794-0.105-1.5-0.512-1.988-1.148c-0.411-0.536-0.628-1.191-0.62-1.86
		c-0.943-0.543-1.627-1.452-1.887-2.516C0.608,6.381,1.786,4.31,3.806,3.682c0.502-1.025,1.547-1.681,2.693-1.681
		c0.273,0,0.544,0.038,0.809,0.112c1.193-1.051,2.718-1.628,4.31-1.628c0.14,0,0.281,0.005,0.422,0.014
		c0.142-0.009,0.285-0.014,0.427-0.014c1.578,0,3.091,0.572,4.278,1.613c0.247-0.064,0.5-0.096,0.755-0.096
		c1.147,0,2.192,0.656,2.695,1.681c2.019,0.628,3.198,2.699,2.692,4.768c-0.26,1.064-0.944,1.972-1.887,2.516
		c0.008,0.67-0.209,1.325-0.62,1.86c-0.488,0.636-1.194,1.044-1.988,1.148c-0.113,0.015-0.231,0.02-0.346,0.024
		c0,0-0.042,0.001-0.042,0.001c-0.326,0-0.642-0.052-0.949-0.156c-0.95,1.945-2.839,3.335-4.982,3.65
		C12.048,17.498,12.024,17.5,12,17.5z M7.693,13.073c0.739,1.805,2.384,3.111,4.307,3.42c1.922-0.309,3.567-1.614,4.306-3.417
		c0.002-0.011,0.005-0.026,0.01-0.042c0.05-0.155,0.09-0.318,0.118-0.484c0.082-0.492,0.404-0.911,0.861-1.117
		c0.445-0.201,0.695-0.829,0.705-1.317c0.007-0.329-0.089-0.592-0.243-0.669c-0.197-0.099-0.306-0.311-0.269-0.529
		c0.05-0.303,0.087-0.611,0.109-0.918C17.564,8,17.532,8.001,17.5,8.001c-1.37,0-2.565-0.927-2.906-2.254
		C14.532,5.503,14.5,5.252,14.5,5c0-0.801,0.312-1.555,0.879-2.121c0.112-0.112,0.233-0.215,0.363-0.308
		c-0.945-0.702-2.096-1.085-3.277-1.085c-0.129,0-0.259,0.005-0.388,0.014c-0.006,0-0.064,0-0.064,0
		c-0.137-0.01-0.267-0.014-0.396-0.014c-1.2,0-2.367,0.393-3.323,1.113C8.411,2.684,8.52,2.778,8.621,2.878
		C9.187,3.445,9.5,4.198,9.5,4.999c0,0.252-0.032,0.504-0.094,0.747C9.065,7.074,7.87,8.001,6.5,8.001c0,0-0.064,0-0.096-0.001
		c0.023,0.308,0.059,0.616,0.109,0.919c0.036,0.217-0.072,0.43-0.269,0.529C6.089,9.524,5.994,9.787,6,10.116
		c0.01,0.488,0.26,1.116,0.705,1.317c0.456,0.207,0.778,0.625,0.861,1.119c0.028,0.162,0.067,0.325,0.118,0.483
		C7.687,13.045,7.69,13.059,7.693,13.073z M6.499,3.001c-0.82,0-1.569,0.514-1.865,1.279C4.576,4.432,4.446,4.547,4.287,4.585
		C2.68,4.978,1.692,6.605,2.085,8.212c0.217,0.889,0.818,1.621,1.648,2.007c0.199,0.093,0.313,0.301,0.285,0.519
		c-0.07,0.53,0.071,1.055,0.396,1.479c0.325,0.424,0.796,0.696,1.325,0.766c0.081,0.01,0.17,0.016,0.267,0.017
		c0.205,0,0.413-0.033,0.61-0.097c-0.013-0.061-0.025-0.123-0.035-0.184c-0.028-0.166-0.135-0.306-0.287-0.375
		C5.427,11.953,5.016,10.925,5,10.135C4.99,9.574,5.163,9.088,5.481,8.778c-0.061-0.447-0.096-0.9-0.103-1.349
		c-0.002-0.155,0.069-0.305,0.191-0.4C5.657,6.96,5.767,6.922,5.878,6.922c0.042,0,0.084,0.005,0.124,0.016
		C6.167,6.98,6.336,7.001,6.504,7.001c0.354,0,0.705-0.097,1.014-0.279c0.46-0.272,0.786-0.707,0.919-1.224
		C8.479,5.336,8.5,5.168,8.5,5c0-0.534-0.208-1.036-0.586-1.414C7.536,3.208,7.034,3.001,6.499,3.001l0-0.25L6.499,3.001z
		 M17.385,12.903C17.582,12.966,17.79,13,17.996,13l0.079-0.004c0.063-0.003,0.125-0.005,0.187-0.013
		c0.529-0.07,1-0.342,1.325-0.766c0.325-0.424,0.466-0.949,0.396-1.479c-0.029-0.217,0.085-0.426,0.285-0.519
		c0.83-0.386,1.431-1.118,1.648-2.007c0.393-1.607-0.595-3.234-2.202-3.627c-0.159-0.039-0.289-0.153-0.348-0.305
		c-0.296-0.765-1.045-1.279-1.865-1.279c-0.535,0-1.037,0.208-1.415,0.585C15.708,3.963,15.5,4.466,15.5,5
		c0,0.168,0.021,0.335,0.063,0.498c0.227,0.885,1.023,1.503,1.936,1.503c0.167,0,0.335-0.021,0.498-0.063
		c0.041-0.01,0.083-0.016,0.124-0.016c0.112,0,0.222,0.038,0.31,0.107c0.122,0.096,0.193,0.246,0.191,0.401
		c-0.007,0.449-0.042,0.902-0.103,1.348c0.318,0.31,0.491,0.796,0.48,1.358c-0.015,0.789-0.427,1.817-1.292,2.209
		c-0.152,0.069-0.259,0.208-0.287,0.373C17.41,12.779,17.398,12.841,17.385,12.903z"/>
	<path d="M19.5,23.5c-0.276,0-0.5-0.224-0.5-0.5v-3.871l-2-0.672v2.334c0,0.551-0.448,1-0.998,1.001
		c-0.11,0-0.217-0.017-0.319-0.052L12.5,20.678V23c0,0.276-0.224,0.5-0.5,0.5c-0.276,0-0.5-0.224-0.5-0.5v-2.321L8.316,21.74
		c-0.102,0.034-0.208,0.052-0.317,0.052c-0.552-0.001-1-0.45-0.999-1.001v-2.333l-2,0.672V23c0,0.276-0.224,0.5-0.5,0.5
		S4,23.275,4,23v-3.535l-0.741,0.249C1.912,20.217,1.001,21.533,1,22.985c0,0.275-0.224,0.5-0.5,0.5
		c-0.134,0-0.259-0.052-0.354-0.147C0.052,23.243,0,23.118,0,22.984c0.001-1.866,1.176-3.56,2.925-4.213l5.118-1.72
		C8.145,17.017,8.252,17,8.36,17c0.21,0,0.412,0.064,0.582,0.186L12,19.37l3.057-2.184C15.228,17.064,15.429,17,15.639,17
		c0.109,0,0.217,0.018,0.319,0.052l5.101,1.713c1.761,0.658,2.94,2.352,2.941,4.219c0,0.276-0.224,0.5-0.5,0.5s-0.5-0.224-0.5-0.5
		c-0.001-1.452-0.915-2.769-2.275-3.277L20,19.464V23C20,23.275,19.776,23.5,19.5,23.5z M16,20.792l0-2.671L15.638,18l-2.548,1.821
		L16,20.792z M8,20.791l2.911-0.97l-2.549-1.821L8,18.121V20.791z"/>
</g>
</svg>
