<?xml version="1.0" encoding="utf-8"?>
<!-- Generator: Adobe Illustrator 22.1.0, SVG Export Plug-In . SVG Version: 6.00 Build 0)  -->
<svg version="1.1" id="Layer_1" xmlns="http://www.w3.org/2000/svg" xmlns:xlink="http://www.w3.org/1999/xlink" x="0px" y="0px"
	 viewBox="0 0 24 24" style="enable-background:new 0 0 24 24;" xml:space="preserve">
<g>
	<title>old-people-man-3</title>
	<path d="M11.805,14.002c-0.604,0-1.186-0.223-1.638-0.628c-0.205-0.184-0.223-0.5-0.039-0.706c0.095-0.106,0.231-0.167,0.373-0.167
		c0.123,0,0.242,0.045,0.334,0.128c0.27,0.241,0.609,0.374,0.956,0.374l0.053-0.001l0.337,0c0.367,0,0.718-0.133,0.987-0.373
		c0.092-0.082,0.21-0.127,0.333-0.127c0.142,0,0.278,0.061,0.373,0.167c0.184,0.205,0.166,0.522-0.039,0.706
		c-0.453,0.405-1.034,0.628-1.636,0.628C12.198,14.002,11.805,14.002,11.805,14.002z"/>
	<path d="M9,9.501c-0.095,0-0.188-0.027-0.269-0.078C8.618,9.35,8.541,9.239,8.512,9.109c-0.029-0.13-0.005-0.264,0.067-0.377
		c0.293-0.46,0.793-0.734,1.338-0.734C9.944,7.997,9.972,7.998,10,8c0.028-0.002,0.057-0.002,0.085-0.002
		c0.543,0,1.043,0.275,1.336,0.734c0.072,0.113,0.096,0.246,0.067,0.377c-0.029,0.13-0.107,0.242-0.219,0.314
		C11.189,9.474,11.096,9.501,11,9.501c-0.172,0-0.33-0.086-0.422-0.231c-0.107-0.168-0.297-0.272-0.497-0.272
		c-0.015,0-0.075,0.003-0.082,0.003c-0.013,0-0.067-0.003-0.082-0.003c-0.202,0-0.388,0.102-0.497,0.272
		C9.329,9.414,9.172,9.501,9,9.501z"/>
	<path d="M15,9.501c-0.172,0-0.33-0.086-0.422-0.231c-0.109-0.17-0.294-0.272-0.497-0.272c-0.015,0-0.075,0.003-0.082,0.003
		c-0.013,0-0.064-0.003-0.078-0.003c-0.205,0-0.392,0.102-0.5,0.272C13.329,9.414,13.172,9.501,13,9.501
		c-0.095,0-0.188-0.027-0.269-0.078c-0.113-0.072-0.191-0.183-0.219-0.314c-0.029-0.13-0.005-0.264,0.067-0.377
		c0.293-0.46,0.794-0.734,1.34-0.734C13.946,7.998,13.973,7.998,14,8c0.027-0.001,0.054-0.002,0.081-0.002
		c0.546,0,1.048,0.274,1.341,0.734c0.072,0.113,0.095,0.246,0.067,0.377c-0.029,0.131-0.107,0.242-0.219,0.314
		C15.188,9.474,15.095,9.501,15,9.501z"/>
	<path d="M20.904,19.256c-0.054,0-0.107-0.009-0.159-0.026l-4.905-1.646c-0.126-0.042-0.229-0.132-0.289-0.251
		s-0.069-0.255-0.026-0.382c0.069-0.204,0.26-0.341,0.475-0.341c0.054,0,0.107,0.009,0.158,0.026l4.905,1.646
		c0.261,0.088,0.403,0.372,0.315,0.633C21.31,19.119,21.119,19.256,20.904,19.256z"/>
	<path d="M0.5,24.001c-0.276,0-0.5-0.224-0.5-0.5v-1c0.001-1.867,1.176-3.56,2.925-4.213l4.916-1.652
		C7.892,16.618,7.946,16.61,8,16.61c0.215,0,0.406,0.137,0.474,0.341c0.043,0.126,0.033,0.262-0.026,0.382s-0.162,0.209-0.289,0.251
		l-4.9,1.646C1.912,19.733,1.001,21.049,1,22.501v1C1,23.776,0.776,24.001,0.5,24.001z"/>
	<path d="M13.5,24.001c-0.222,0-0.42-0.149-0.481-0.363l-0.898-3.143c-0.047,0.004-0.094,0.005-0.141,0.005
		c-0.034,0-0.068-0.001-0.103-0.003l-0.897,3.14c-0.061,0.214-0.259,0.363-0.481,0.363c-0.045,0-0.091-0.006-0.135-0.019
		c-0.267-0.077-0.421-0.354-0.345-0.619l0.905-3.167c-0.579-0.363-0.944-1.007-0.944-1.695c0-0.276,0.224-0.5,0.5-0.5
		s0.5,0.224,0.5,0.5c0,0.552,0.449,1,1,1c0.552,0,1-0.448,1-1c0-0.276,0.224-0.5,0.5-0.5s0.5,0.224,0.5,0.5
		c0,0.682-0.344,1.307-0.91,1.675l0.911,3.188c0.075,0.265-0.079,0.542-0.344,0.618C13.591,23.994,13.545,24.001,13.5,24.001z"/>
	<path d="M11.98,17.001c-1.593,0-4.951-1.863-5.44-4.782c-0.027-0.165-0.135-0.304-0.287-0.373
		c-0.866-0.393-1.277-1.422-1.292-2.212c-0.008-0.44,0.097-0.832,0.295-1.131c-0.12-0.02-0.237-0.054-0.35-0.103
		c-0.368-0.159-0.652-0.451-0.8-0.824C4.036,7.399,4,7.214,4,7.024V3.871c0-0.689,0.467-1.287,1.135-1.455l1.476-0.369
		c0.116-0.029,0.236-0.044,0.357-0.044c0.041,0,0.081,0.002,0.122,0.005c1.165-1.283,2.819-2.017,4.56-2.017
		c0.11,0,0.219,0.003,0.329,0.009c0.111-0.006,0.221-0.009,0.332-0.009c1.74,0,3.393,0.735,4.559,2.023
		c0.057-0.006,0.113-0.009,0.169-0.009c0.119,0,0.236,0.014,0.349,0.043l1.476,0.369C19.533,2.583,20,3.181,20,3.871v3.153
		c0,0.19-0.036,0.375-0.106,0.552c-0.148,0.373-0.432,0.665-0.8,0.824c-0.125,0.054-0.254,0.09-0.386,0.109
		c0.196,0.298,0.3,0.688,0.292,1.125c-0.015,0.789-0.425,1.818-1.292,2.211c-0.153,0.069-0.26,0.208-0.288,0.373
		C16.927,15.138,13.57,17.001,11.98,17.001z M6.45,8.258c0.007,0.054,0.014,0.107,0.023,0.161c0.036,0.218-0.072,0.43-0.27,0.529
		C6.05,9.025,5.954,9.287,5.961,9.614c0.009,0.489,0.259,1.118,0.705,1.32c0.456,0.207,0.778,0.625,0.861,1.119
		c0.405,2.415,3.328,3.947,4.454,3.947c1.124,0,4.045-1.532,4.454-3.948c0.083-0.494,0.405-0.912,0.861-1.118
		C17.74,10.732,17.99,10.103,18,9.615c0.006-0.328-0.09-0.59-0.244-0.667c-0.197-0.098-0.306-0.311-0.269-0.529
		c0.01-0.057,0.017-0.116,0.025-0.176l-0.266-0.106c-0.411-0.164-0.727-0.499-0.867-0.918L15.59,3.934
		c-0.079-0.233-0.088-0.523-0.02-0.796c0.062-0.25,0.186-0.474,0.364-0.66c-0.96-0.948-2.265-1.488-3.621-1.488
		c-0.101,0-0.202,0.003-0.303,0.009c-0.005,0-0.025,0.001-0.03,0.001L11.947,1c-0.099-0.006-0.201-0.009-0.302-0.009
		c-1.345,0-2.643,0.531-3.6,1.465c0.188,0.19,0.322,0.425,0.386,0.683C8.5,3.416,8.489,3.705,8.398,3.976L7.633,7.177
		c-0.151,0.46-0.462,0.794-0.879,0.96L6.45,8.258z M6.977,3.002c-0.041,0-0.082,0.005-0.122,0.015L5.378,3.386
		C5.156,3.442,5,3.641,5,3.871v3.153c0,0.062,0.012,0.124,0.035,0.183c0.049,0.124,0.144,0.221,0.266,0.274
		C5.366,7.509,5.432,7.523,5.5,7.523c0.063,0,0.125-0.012,0.185-0.036l0.699-0.279c0.137-0.055,0.242-0.166,0.289-0.306l0.765-3.201
		C7.478,3.574,7.484,3.476,7.46,3.381C7.428,3.251,7.347,3.142,7.233,3.073C7.155,3.027,7.066,3.002,6.977,3.002z M17.024,3.002
		c-0.09,0-0.178,0.025-0.256,0.072c-0.115,0.069-0.195,0.178-0.227,0.307c-0.023,0.093-0.02,0.189,0.01,0.279l0.789,3.284
		c0.035,0.102,0.144,0.211,0.277,0.264l0.7,0.279c0.059,0.024,0.121,0.036,0.184,0.036c0.068,0,0.134-0.014,0.198-0.041
		c0.123-0.053,0.217-0.15,0.267-0.275C18.988,7.148,19,7.086,19,7.023V3.871c0-0.23-0.156-0.429-0.378-0.485l-1.476-0.369
		C17.105,3.007,17.064,3.002,17.024,3.002z"/>
	<path d="M11,4.001c-0.276,0-0.5-0.224-0.5-0.5s0.224-0.5,0.5-0.5h2c0.276,0,0.5,0.224,0.5,0.5s-0.224,0.5-0.5,0.5H11z"/>
	<path d="M11,6.001c-0.276,0-0.5-0.224-0.5-0.5s0.224-0.5,0.5-0.5h2c0.276,0,0.5,0.224,0.5,0.5s-0.224,0.5-0.5,0.5H11z"/>
	<path d="M23.5,24.001c-0.276,0-0.5-0.224-0.5-0.5v-9c0-0.827-0.673-1.5-1.5-1.5s-1.5,0.673-1.5,1.5c0,0.276-0.224,0.5-0.5,0.5
		s-0.5-0.224-0.5-0.5c0-1.378,1.122-2.5,2.5-2.5s2.5,1.122,2.5,2.5v9C24,23.776,23.776,24.001,23.5,24.001z"/>
</g>
</svg>
