<?xml version="1.0" encoding="utf-8"?>
<!-- Generator: Adobe Illustrator 22.1.0, SVG Export Plug-In . SVG Version: 6.00 Build 0)  -->
<svg version="1.1" id="Light" xmlns="http://www.w3.org/2000/svg" xmlns:xlink="http://www.w3.org/1999/xlink" x="0px" y="0px"
	 viewBox="0 0 24 24" style="enable-background:new 0 0 24 24;" xml:space="preserve">
<g>
	<title>rain-umbrella-sun</title>
	<path d="M8.501,23.814c-0.059,0-0.118-0.003-0.178-0.01c-0.4-0.047-0.757-0.248-1.007-0.564C7.074,22.932,6.962,22.55,7,22.161
		v-4.774c-0.177-0.585-0.83-0.848-1.408-0.848c-0.597,0-1.266,0.277-1.419,0.893c-0.055,0.223-0.255,0.379-0.484,0.379
		c-0.02,0-0.04-0.001-0.06-0.004c-0.249-0.03-0.438-0.241-0.44-0.492c-0.005-0.618-0.69-0.783-1.095-0.783
		c-0.384,0.003-1.087,0.168-1.083,0.775c0.002,0.27-0.208,0.491-0.478,0.503c0,0-0.001,0-0.001,0c-0.284,0-0.498-0.198-0.519-0.459
		c-0.015-0.184-0.023-0.369-0.024-0.552C-0.04,12.783,3.021,9.493,7,9.21V8.188c0-0.276,0.224-0.5,0.5-0.5S8,7.912,8,8.188v1.02
		c0.019,0.001,0.038,0.002,0.057,0.004c2.013,0.161,3.842,1.097,5.152,2.634c1.309,1.538,1.941,3.493,1.78,5.506
		c-0.021,0.258-0.237,0.46-0.493,0.46c0,0-0.027-0.001-0.033-0.001c-0.264-0.011-0.475-0.232-0.473-0.503
		c0.004-0.607-0.699-0.773-1.071-0.775c0,0-0.001,0-0.001,0c-0.416,0-1.101,0.165-1.106,0.782c-0.002,0.251-0.192,0.463-0.441,0.493
		c-0.019,0.002-0.039,0.003-0.059,0.003c-0.23,0-0.429-0.156-0.485-0.379c-0.154-0.619-0.825-0.896-1.421-0.896
		c-0.577,0-1.23,0.263-1.406,0.85v4.801c0,0.019-0.001,0.038-0.003,0.057c-0.016,0.136,0.021,0.269,0.105,0.375
		c0.084,0.106,0.204,0.174,0.339,0.19c0.022,0.003,0.043,0.004,0.063,0.004c0.255,0,0.47-0.192,0.5-0.447
		c0.005-0.04,0.005-0.08,0-0.119c-0.033-0.274,0.163-0.523,0.437-0.556c0.02-0.002,0.039-0.003,0.057-0.003
		c0.254,0,0.468,0.189,0.498,0.44c0.014,0.118,0.014,0.238,0,0.355C9.906,23.242,9.263,23.814,8.501,23.814z M5.592,15.539
		c0.605,0,1.384,0.205,1.907,0.761c0.523-0.557,1.302-0.763,1.907-0.763c0.711,0,1.369,0.249,1.821,0.677
		c0.382-0.426,0.996-0.681,1.68-0.681c0.004,0,0.024,0,0.028,0c0.353,0.002,0.701,0.079,1.004,0.217
		c-0.181-1.199-0.692-2.316-1.492-3.255c-1.136-1.334-2.724-2.146-4.47-2.286c-0.158-0.013-0.319-0.02-0.48-0.021
		c-3.214,0.022-5.949,2.426-6.433,5.561c0.304-0.137,0.652-0.213,1.011-0.216c0,0,0,0,0.001,0c0.699,0,1.316,0.255,1.698,0.681
		c0.449-0.425,1.101-0.672,1.808-0.675C5.585,15.539,5.589,15.539,5.592,15.539z"/>
	<path d="M16.5,13.4c-0.205,0-0.387-0.123-0.463-0.312c-0.103-0.256,0.02-0.548,0.276-0.651c1.021-0.414,1.796-1.297,2.073-2.364
		c0.235-0.905,0.104-1.847-0.37-2.653c-0.473-0.806-1.233-1.38-2.138-1.615c-0.291-0.076-0.589-0.114-0.886-0.114
		c-0.617,0-1.228,0.167-1.767,0.484c-0.806,0.474-1.379,1.233-1.615,2.138c-0.057,0.22-0.256,0.375-0.483,0.375
		c-0.043,0-0.086-0.006-0.127-0.016c-0.129-0.033-0.237-0.115-0.305-0.23c-0.068-0.115-0.086-0.25-0.053-0.379
		c0.302-1.163,1.039-2.139,2.076-2.748c0.693-0.407,1.479-0.622,2.272-0.622c0.382,0,0.765,0.049,1.139,0.146
		c1.163,0.302,2.139,1.039,2.748,2.076c0.609,1.036,0.778,2.248,0.475,3.411c-0.356,1.371-1.352,2.507-2.665,3.039
		C16.628,13.388,16.564,13.4,16.5,13.4z"/>
	<path d="M15,3.188c-0.276,0-0.5-0.224-0.5-0.5v-2c0-0.276,0.224-0.5,0.5-0.5s0.5,0.224,0.5,0.5v2C15.5,2.964,15.275,3.188,15,3.188
		z"/>
	<path d="M21.5,9.188c-0.276,0-0.5-0.224-0.5-0.5s0.224-0.5,0.5-0.5h2c0.276,0,0.5,0.224,0.5,0.5s-0.224,0.5-0.5,0.5H21.5z"/>
	<path d="M10.404,5.092c-0.134,0-0.259-0.052-0.354-0.146L8.636,3.531c-0.195-0.195-0.195-0.512,0-0.707
		C8.731,2.73,8.856,2.678,8.99,2.678S9.249,2.73,9.343,2.824l1.414,1.414c0.195,0.195,0.195,0.512,0,0.707
		C10.663,5.04,10.537,5.092,10.404,5.092z"/>
	<path d="M19.242,4.738c-0.134,0-0.259-0.052-0.354-0.146c-0.195-0.195-0.195-0.512,0-0.707l1.414-1.414
		c0.094-0.094,0.22-0.146,0.354-0.146s0.259,0.052,0.354,0.146c0.195,0.195,0.195,0.512,0,0.707l-1.414,1.414
		C19.501,4.686,19.375,4.738,19.242,4.738z"/>
	<path d="M21.011,15.698c-0.134,0-0.259-0.052-0.354-0.146l-1.414-1.414c-0.195-0.195-0.195-0.512,0-0.707
		c0.094-0.094,0.22-0.146,0.354-0.146s0.259,0.052,0.354,0.146l1.414,1.414c0.195,0.195,0.195,0.512,0,0.707
		C21.27,15.646,21.144,15.698,21.011,15.698z"/>
</g>
</svg>
