<?xml version="1.0" encoding="utf-8"?>
<!-- Generator: Adobe Illustrator 22.1.0, SVG Export Plug-In . SVG Version: 6.00 Build 0)  -->
<svg version="1.1" id="Light" xmlns="http://www.w3.org/2000/svg" xmlns:xlink="http://www.w3.org/1999/xlink" x="0px" y="0px"
	 viewBox="0 0 24 24" style="enable-background:new 0 0 24 24;" xml:space="preserve">
<g>
	<title>rain-umbrella-closed</title>
	<path d="M13.251,23.75c-0.062,0-0.125-0.003-0.187-0.01c-0.818-0.087-1.475-0.744-1.561-1.562
		c-0.002-0.019-0.003-0.036-0.003-0.053V18.75H7.194c-0.551,0-1-0.448-1.001-0.999c0-0.108,0.017-0.214,0.051-0.317l4.781-14.342
		C11.094,2.887,11.284,2.75,11.5,2.75v-2c0-0.276,0.224-0.5,0.5-0.5c0.276,0,0.5,0.224,0.5,0.5v2c0.216,0,0.406,0.137,0.474,0.342
		l4.781,14.342c0.174,0.523-0.11,1.091-0.632,1.265c-0.104,0.034-0.211,0.051-0.317,0.051H12.5v3.345
		c0.047,0.341,0.327,0.614,0.67,0.65c0.026,0.002,0.052,0.004,0.078,0.004c0.389,0,0.714-0.291,0.755-0.677
		c0.026-0.255,0.239-0.447,0.495-0.447c0.018,0,0.037,0.001,0.056,0.003c0.132,0.014,0.251,0.079,0.335,0.183
		c0.084,0.104,0.123,0.234,0.108,0.367C14.902,23.074,14.151,23.75,13.251,23.75z M7.193,17.75h9.613l-4.666-14H11.86L7.193,17.75z"
		/>
</g>
</svg>
