<?xml version="1.0" encoding="utf-8"?>
<!-- Generator: Adobe Illustrator 22.1.0, SVG Export Plug-In . SVG Version: 6.00 Build 0)  -->
<svg version="1.1" id="Light" xmlns="http://www.w3.org/2000/svg" xmlns:xlink="http://www.w3.org/1999/xlink" x="0px" y="0px"
	 viewBox="0 0 24 24" style="enable-background:new 0 0 24 24;" xml:space="preserve">
<g>
	<title>rain-umbrella-1</title>
	<path d="M11.998,24c-0.276,0-0.5-0.224-0.5-0.5v-5.437c-0.307-1.081-1.471-1.566-2.498-1.566c-1.05,0-2.235,0.502-2.515,1.624
		C6.429,18.344,6.23,18.5,6,18.5c-0.02,0-0.04-0.001-0.06-0.004c-0.249-0.03-0.438-0.241-0.44-0.493
		c-0.007-1.04-1.046-1.513-2.007-1.513c-0.975,0.007-2,0.481-1.993,1.507c0.002,0.27-0.216,0.496-0.487,0.503
		c-0.279,0-0.501-0.21-0.513-0.478c-0.152-3.408,1.048-6.708,3.291-9.054c2.018-2.11,4.746-3.331,7.706-3.455V4.5
		c0-0.276,0.224-0.5,0.5-0.5c0.276,0,0.5,0.224,0.5,0.5v1.014c2.961,0.123,5.69,1.344,7.708,3.453
		c2.244,2.346,3.445,5.646,3.294,9.055C23.488,18.29,23.268,18.5,23,18.5c-0.283-0.007-0.502-0.233-0.5-0.504
		c0.004-0.468-0.196-0.844-0.594-1.116c-0.355-0.244-0.856-0.386-1.375-0.39c0,0,0,0-0.001,0c-0.984,0-2.022,0.474-2.031,1.514
		c-0.002,0.251-0.191,0.463-0.441,0.493c-0.02,0.002-0.04,0.004-0.06,0.004c-0.229,0-0.428-0.156-0.484-0.379
		c-0.28-1.122-1.465-1.624-2.515-1.624c-1.033,0-2.201,0.488-2.502,1.578V23.5C12.498,23.775,12.274,24,11.998,24z M9,15.497
		c1.001,0,2.262,0.364,3,1.355c0.738-0.991,1.999-1.355,3-1.355c0.935,0,2.133,0.326,2.888,1.215
		c0.512-0.754,1.495-1.223,2.621-1.223l0.034,0c0.704,0.005,1.374,0.199,1.889,0.535c-0.281-2.445-1.294-4.636-2.95-6.367
		C17.535,7.621,14.877,6.5,12,6.5c-2.878,0-5.537,1.122-7.486,3.16c-1.655,1.731-2.668,3.922-2.948,6.366
		c0.517-0.337,1.189-0.531,1.899-0.536l0.027,0c1.126,0,2.108,0.469,2.62,1.223C6.868,15.824,8.065,15.497,9,15.497z"/>
	<path d="M1.498,4C1.421,4,1.343,3.982,1.274,3.947C1.028,3.824,0.927,3.523,1.051,3.276l1.5-3C2.636,0.106,2.808,0,2.998,0
		c0.077,0,0.154,0.018,0.223,0.053c0.247,0.123,0.347,0.424,0.224,0.671l-1.5,3C1.86,3.894,1.689,4,1.498,4z"/>
	<path d="M5.498,4C5.421,4,5.343,3.982,5.274,3.947C5.028,3.824,4.927,3.523,5.051,3.276l1.5-3C6.636,0.106,6.807,0,6.998,0
		c0.077,0,0.154,0.018,0.223,0.053c0.247,0.123,0.347,0.424,0.224,0.671l-1.5,3C5.86,3.894,5.689,4,5.498,4z"/>
	<path d="M9.498,4C9.421,4,9.343,3.982,9.274,3.947C9.028,3.824,8.927,3.523,9.051,3.276l1.5-3C10.636,0.106,10.808,0,10.998,0
		c0.077,0,0.154,0.018,0.223,0.053c0.247,0.123,0.347,0.424,0.224,0.671l-1.5,3C9.86,3.894,9.689,4,9.498,4z"/>
	<path d="M13.498,4c-0.077,0-0.154-0.018-0.223-0.053c-0.247-0.123-0.347-0.424-0.224-0.671l1.5-3C14.636,0.106,14.808,0,14.998,0
		c0.077,0,0.154,0.018,0.223,0.053c0.247,0.123,0.347,0.424,0.224,0.671l-1.5,3C13.86,3.894,13.688,4,13.498,4z"/>
	<path d="M17.498,4c-0.077,0-0.154-0.018-0.223-0.053c-0.247-0.123-0.347-0.424-0.224-0.671l1.5-3C18.636,0.106,18.808,0,18.998,0
		c0.077,0,0.154,0.018,0.224,0.053c0.246,0.123,0.347,0.424,0.223,0.671l-1.5,3C17.86,3.894,17.688,4,17.498,4z"/>
	<path d="M21.498,4c-0.077,0-0.154-0.018-0.223-0.053c-0.247-0.123-0.347-0.424-0.224-0.671l1.5-3C22.636,0.106,22.808,0,22.998,0
		c0.077,0,0.154,0.018,0.223,0.053c0.247,0.123,0.347,0.424,0.224,0.671l-1.5,3C21.86,3.894,21.688,4,21.498,4z"/>
</g>
</svg>
