<?xml version="1.0" encoding="utf-8"?>
<!-- Generator: Adobe Illustrator 22.1.0, SVG Export Plug-In . SVG Version: 6.00 Build 0)  -->
<svg version="1.1" id="Light" xmlns="http://www.w3.org/2000/svg" xmlns:xlink="http://www.w3.org/1999/xlink" x="0px" y="0px"
	 viewBox="0 0 24 24" style="enable-background:new 0 0 24 24;" xml:space="preserve">
<g>
	<title>rain-cloud-umbrella</title>
	<path d="M8.499,23.999c-0.059,0-0.118-0.003-0.178-0.01c-0.4-0.047-0.757-0.248-1.007-0.564c-0.242-0.307-0.354-0.689-0.316-1.078
		v-4.773c-0.177-0.587-0.83-0.851-1.408-0.851c-0.597,0-1.267,0.278-1.421,0.896c-0.056,0.223-0.255,0.379-0.485,0.379
		c-0.02,0-0.04-0.001-0.06-0.004c-0.249-0.03-0.438-0.241-0.44-0.492c-0.005-0.618-0.691-0.782-1.095-0.782
		c-0.384,0.003-1.087,0.168-1.083,0.775c0.002,0.27-0.208,0.491-0.478,0.503c-0.004,0-0.025,0.001-0.029,0.001
		c-0.255,0-0.471-0.202-0.491-0.461c-0.015-0.184-0.023-0.37-0.024-0.554c-0.026-4.018,3.036-7.307,7.014-7.589V8.373
		c0-0.276,0.224-0.5,0.5-0.5s0.5,0.224,0.5,0.5v1.02c0.019,0.001,0.037,0.002,0.056,0.004c2.013,0.161,3.843,1.097,5.152,2.635
		c1.309,1.538,1.942,3.493,1.78,5.506c-0.021,0.258-0.236,0.46-0.49,0.46c0,0-0.032-0.001-0.039-0.001
		c-0.261-0.011-0.471-0.232-0.469-0.502c0.004-0.607-0.699-0.772-1.071-0.775c-0.417,0-1.102,0.165-1.107,0.782
		c-0.002,0.251-0.192,0.463-0.441,0.493c-0.02,0.002-0.04,0.003-0.059,0.003c-0.23,0-0.429-0.156-0.485-0.379
		C10.67,17,10,16.723,9.404,16.723c-0.577,0-1.23,0.263-1.406,0.85v4.8c0,0.019-0.001,0.038-0.003,0.057
		c-0.016,0.136,0.021,0.269,0.105,0.375c0.084,0.106,0.204,0.174,0.339,0.19c0.021,0.002,0.041,0.004,0.061,0.004
		c0.114,0,0.222-0.038,0.312-0.109c0.106-0.084,0.174-0.204,0.19-0.338c0.005-0.04,0.005-0.08,0-0.12
		c-0.032-0.274,0.164-0.523,0.438-0.555c0.02-0.002,0.039-0.003,0.058-0.003c0.254,0,0.467,0.19,0.497,0.441
		c0.014,0.117,0.014,0.236,0,0.354C9.905,23.427,9.262,23.999,8.499,23.999z M5.59,15.723c0.605,0,1.384,0.206,1.907,0.762
		c0.523-0.557,1.301-0.762,1.906-0.762c0.711,0,1.369,0.249,1.821,0.677c0.381-0.426,0.992-0.68,1.672-0.68l0.029,0
		c0.358,0.002,0.706,0.079,1.01,0.216c-0.458-2.957-2.939-5.3-5.961-5.542c-0.157-0.013-0.318-0.02-0.479-0.021
		c-1.747,0.011-3.389,0.705-4.62,1.952c-0.974,0.987-1.608,2.254-1.816,3.611c0.304-0.138,0.653-0.214,1.011-0.216
		c0.696,0.003,1.316,0.257,1.699,0.681c0.451-0.428,1.109-0.677,1.82-0.677H5.59z"/>
	<path d="M12.969,9.582c-0.089,0-0.177-0.024-0.254-0.07c-0.958-0.568-1.593-1.568-1.7-2.677c-0.17-1.776,1.029-3.392,2.755-3.758
		c0.248-1.288,1.117-2.33,2.354-2.81c0.444-0.172,0.907-0.26,1.377-0.26c0.527,0,1.042,0.109,1.531,0.325
		c0.812,0.358,1.469,0.983,1.864,1.771c0.282,0.012,0.555,0.075,0.814,0.186c0.564,0.244,1,0.692,1.226,1.263
		c0.178,0.449,0.211,0.925,0.099,1.386c0.121,0.109,0.234,0.228,0.335,0.356c0.995,1.252,0.785,3.08-0.467,4.075
		c-0.088,0.07-0.198,0.108-0.311,0.108l0,0c-0.154,0-0.296-0.069-0.392-0.189c-0.083-0.105-0.12-0.235-0.105-0.368
		c0.015-0.133,0.081-0.251,0.186-0.334c0.82-0.652,0.958-1.849,0.306-2.67c-0.119-0.15-0.26-0.281-0.418-0.389
		c-0.198-0.135-0.273-0.392-0.178-0.612c0.138-0.318,0.143-0.672,0.015-0.995c-0.128-0.323-0.374-0.576-0.693-0.714
		c-0.163-0.071-0.337-0.106-0.517-0.106c-0.053,0-0.106,0.003-0.159,0.01c-0.019,0.003-0.041,0.004-0.062,0.004
		c-0.204,0-0.391-0.128-0.466-0.319c-0.271-0.698-0.797-1.248-1.481-1.549c-0.36-0.159-0.74-0.239-1.128-0.239
		c-0.346,0-0.687,0.064-1.014,0.192c-1,0.388-1.68,1.292-1.775,2.36c-0.021,0.239-0.211,0.43-0.45,0.453
		c-1.372,0.132-2.381,1.355-2.25,2.727c0.076,0.792,0.53,1.506,1.214,1.912c0.237,0.141,0.316,0.448,0.175,0.685
		C13.31,9.488,13.145,9.582,12.969,9.582z"/>
	<path d="M14.598,11.798c-0.074,0-0.145-0.016-0.211-0.047c-0.25-0.116-0.358-0.415-0.241-0.664l1.4-3
		c0.082-0.175,0.26-0.289,0.454-0.289c0.073,0,0.144,0.016,0.211,0.047c0.25,0.117,0.358,0.415,0.242,0.665l-1.4,3
		C14.969,11.685,14.791,11.798,14.598,11.798z"/>
	<path d="M16.998,11.798c-0.074,0-0.145-0.016-0.211-0.047c-0.25-0.116-0.358-0.415-0.241-0.664l1.4-3
		c0.082-0.175,0.26-0.289,0.454-0.289c0.073,0,0.144,0.016,0.211,0.047c0.25,0.117,0.358,0.415,0.242,0.665l-1.4,3
		C17.369,11.685,17.191,11.798,16.998,11.798z"/>
	<path d="M19.098,11.798c-0.074,0-0.145-0.016-0.211-0.047c-0.25-0.116-0.358-0.415-0.241-0.664l1.4-3
		c0.082-0.175,0.26-0.289,0.454-0.289c0.073,0,0.144,0.016,0.211,0.047c0.25,0.117,0.358,0.415,0.242,0.665l-1.4,3
		C19.469,11.685,19.291,11.798,19.098,11.798z"/>
</g>
</svg>
