<?xml version="1.0" encoding="utf-8"?>
<!-- Generator: Adobe Illustrator 22.1.0, SVG Export Plug-In . SVG Version: 6.00 Build 0)  -->
<svg version="1.1" id="Light" xmlns="http://www.w3.org/2000/svg" xmlns:xlink="http://www.w3.org/1999/xlink" x="0px" y="0px"
	 viewBox="0 0 24 24" style="enable-background:new 0 0 24 24;" xml:space="preserve">
<g>
	<title>rain-umbrella</title>
	<path d="M13.5,24c-1.103,0-2-0.897-2-2v-7.5c0-0.799-1.168-1.5-2.5-1.5c-1.355,0-2.5,0.687-2.5,1.5
		c0,0.264-0.206,0.483-0.469,0.499C6.026,14.999,6.005,15,6,15c-0.252,0-0.465-0.188-0.496-0.438
		c-0.112-0.911-0.859-1.573-1.775-1.573c-0.059,0-0.12,0.003-0.18,0.009C3.541,12.998,3.508,13,3.5,13
		c-0.016,0-0.031-0.001-0.047-0.002c-0.063-0.006-0.124-0.009-0.184-0.009c-0.915,0-1.661,0.661-1.773,1.573
		C1.465,14.812,1.25,15,0.997,15c-0.005,0-0.022,0-0.027-0.001C0.706,14.983,0.5,14.764,0.5,14.5V14c0-6.503,4.812-11.72,11-11.986
		V0.5C11.5,0.224,11.724,0,12,0c0.276,0,0.5,0.224,0.5,0.5v1.514c6.188,0.266,11,5.483,11,11.986v0.5
		c0,0.264-0.206,0.483-0.469,0.499c-0.005,0-0.02,0.001-0.025,0.001c-0.255,0-0.471-0.189-0.501-0.439
		c-0.113-0.911-0.858-1.572-1.773-1.572c-0.06,0-0.121,0.003-0.182,0.009C20.541,12.998,20.508,13,20.5,13
		c-0.015,0-0.031-0.001-0.047-0.002c-0.062-0.006-0.123-0.009-0.182-0.009c-0.901,0-1.665,0.676-1.775,1.573
		C18.466,14.811,18.25,15,17.995,15c-0.005,0-0.02,0-0.025-0.001C17.706,14.983,17.5,14.764,17.5,14.5c0-0.813-1.145-1.5-2.5-1.5
		s-2.5,0.687-2.5,1.5V22c0,0.552,0.448,1,1,1s1-0.448,1-1v-0.5c0-0.276,0.224-0.5,0.5-0.5s0.5,0.224,0.5,0.5V22
		C15.5,23.103,14.603,24,13.5,24z M9,12c1.242,0,2.374,0.465,3,1.208C12.626,12.465,13.759,12,15,12
		c1.228,0,2.349,0.454,2.979,1.183c0.513-0.745,1.358-1.195,2.286-1.195c0.078,0,0.156,0.003,0.235,0.01
		c0.079-0.006,0.157-0.01,0.235-0.01c0.618,0,1.203,0.199,1.68,0.561c-0.289-2.414-1.304-4.644-2.897-6.338
		C17.571,4.14,14.902,3,12,3C9.099,3,6.429,4.14,4.483,6.211c-1.593,1.695-2.608,3.925-2.897,6.338
		c0.477-0.362,1.061-0.561,1.679-0.561c0.078,0,0.156,0.003,0.235,0.01c0.078-0.006,0.157-0.01,0.234-0.01
		c0.929,0,1.774,0.449,2.287,1.194C6.651,12.454,7.772,12,9,12z"/>
</g>
</svg>
