<?xml version="1.0" encoding="utf-8"?>
<!-- Generator: Adobe Illustrator 22.1.0, SVG Export Plug-In . SVG Version: 6.00 Build 0)  -->
<svg version="1.1" id="Layer_1" xmlns="http://www.w3.org/2000/svg" xmlns:xlink="http://www.w3.org/1999/xlink" x="0px" y="0px"
	 viewBox="0 0 24 24" style="enable-background:new 0 0 24 24;" xml:space="preserve">
<g>
	<title>toy</title>
	<circle cx="2.75" cy="5.244" r="0.75"/>
	<circle cx="13.75" cy="4.244" r="0.75"/>
	<path d="M7.879,15.019c-0.132,0-0.264-0.01-0.394-0.031c-1.361-0.225-2.288-1.514-2.068-2.874L5.873,9.32
		c0.029-0.178,0.152-0.328,0.322-0.389C6.25,8.91,6.308,8.9,6.366,8.9c0.12,0,0.235,0.043,0.326,0.121
		C7.416,9.643,8.34,9.985,9.296,9.985c1.171,0,2.277-0.507,3.037-1.391c0.169-0.197,0.321-0.412,0.449-0.64
		C12.87,7.797,13.037,7.7,13.217,7.7c0.086,0,0.17,0.022,0.246,0.064c0.24,0.136,0.325,0.442,0.19,0.682
		c-0.16,0.284-0.349,0.553-0.561,0.8c-0.635,0.739-1.459,1.269-2.391,1.539l-0.349,2.141C10.148,14.139,9.108,15.019,7.879,15.019z
		 M6.405,12.275c-0.132,0.817,0.425,1.591,1.241,1.727c0.076,0.012,0.155,0.018,0.234,0.018c0.727,0,1.365-0.54,1.486-1.257
		l0.292-1.791c-0.113,0.008-0.227,0.012-0.34,0.012c-0.233,0-0.469-0.017-0.704-0.049l-0.152,1.359
		c-0.028,0.253-0.242,0.444-0.496,0.444c-0.018,0-0.036-0.001-0.054-0.003c-0.276-0.031-0.474-0.279-0.443-0.553l0.166-1.484
		c-0.318-0.111-0.62-0.252-0.903-0.421L6.405,12.275z"/>
	<path d="M20.5,23.994c-0.276,0-0.5-0.224-0.5-0.5v-1.5H10v1.5c0,0.276-0.224,0.5-0.5,0.5S9,23.77,9,23.494v-1.732L6.223,19.91
		c-0.229-0.153-0.291-0.464-0.139-0.693c0.093-0.14,0.249-0.223,0.416-0.223c0.099,0,0.195,0.029,0.277,0.084l2.874,1.916h10.697
		l2.874-1.916c0.083-0.055,0.178-0.084,0.277-0.084c0.168,0,0.323,0.083,0.416,0.223c0.074,0.111,0.101,0.244,0.074,0.375
		c-0.026,0.131-0.102,0.244-0.213,0.318L21,21.762v1.732C21,23.77,20.776,23.994,20.5,23.994z"/>
	<path d="M11.227,19.703c-0.168,0-0.336-0.003-0.504-0.01c-0.276-0.011-0.491-0.243-0.48-0.519c0.01-0.27,0.227-0.481,0.494-0.481
		c0.005,0,0.025,0.001,0.03,0.001c0.15,0.006,0.306,0.009,0.461,0.009c2.126,0,4.219-0.568,6.055-1.641
		c0.076-0.045,0.164-0.069,0.252-0.069c0.177,0,0.342,0.095,0.432,0.248c0.139,0.238,0.059,0.545-0.179,0.684
		C15.798,19.089,13.53,19.703,11.227,19.703z"/>
	<path d="M9.979,17.087c-0.27,0-0.495-0.22-0.5-0.49c-0.005-0.276,0.215-0.504,0.49-0.51c2.289-0.045,4.507-0.74,6.412-2.009
		c0.083-0.055,0.179-0.084,0.277-0.084c0.168,0,0.323,0.083,0.416,0.223c0.074,0.111,0.1,0.244,0.074,0.375
		c-0.026,0.131-0.102,0.244-0.213,0.318c-2.065,1.375-4.467,2.128-6.948,2.177c-0.002,0-0.003,0-0.005,0H9.979z"/>
	<path d="M11.659,14.051c-0.206,0-0.393-0.129-0.467-0.321c-0.048-0.125-0.044-0.26,0.01-0.382c0.054-0.122,0.153-0.216,0.278-0.263
		c2.751-1.054,4.387-3.919,3.946-6.794c-0.537,0.452-1.217,0.704-1.926,0.704c-1.654,0-3-1.346-3-3c0-0.983,0.494-1.904,1.291-2.46
		c-0.8-0.357-1.669-0.544-2.54-0.544c-1.026,0-2.035,0.255-2.943,0.742C7.361,2.478,8,3.693,8,4.994c0,2.206-1.794,4-4,4
		c-0.261,0-0.519-0.025-0.773-0.075c0.23,0.828,0.633,1.606,1.176,2.272c0.085,0.103,0.124,0.234,0.11,0.366
		C4.5,11.69,4.436,11.81,4.332,11.895c-0.089,0.073-0.201,0.113-0.316,0.113c-0.151,0-0.292-0.067-0.387-0.184
		C2.852,10.873,2.33,9.732,2.115,8.517C0.807,7.816,0,6.478,0,4.994c0-2.206,1.794-4,4-4c0.422,0,0.843,0.069,1.253,0.206
		c1.195-0.791,2.574-1.209,3.996-1.209c1.314,0,2.606,0.362,3.742,1.047c0.168-0.029,0.339-0.043,0.509-0.043c1.654,0,3,1.346,3,3
		c0,0.436-0.094,0.859-0.279,1.257c1.023,3.591-0.887,7.428-4.383,8.767C11.781,14.04,11.721,14.051,11.659,14.051z M4,1.994
		c-1.654,0-3,1.346-3,3s1.346,3,3,3s3-1.346,3-3S5.654,1.994,4,1.994z M13.5,1.994c-1.103,0-2,0.897-2,2s0.897,2,2,2s2-0.897,2-2
		S14.603,1.994,13.5,1.994z"/>
</g>
</svg>
