<?xml version="1.0" encoding="utf-8"?>
<!-- Generator: Adobe Illustrator 22.1.0, SVG Export Plug-In . SVG Version: 6.00 Build 0)  -->
<svg version="1.1" id="Layer_1" xmlns="http://www.w3.org/2000/svg" xmlns:xlink="http://www.w3.org/1999/xlink" x="0px" y="0px"
	 viewBox="0 0 24 24" style="enable-background:new 0 0 24 24;" xml:space="preserve">
<g>
	<title>toys-fidget-spinner</title>
	<path d="M4.846,23.073c-0.444,0-0.889-0.061-1.321-0.182c-1.256-0.351-2.3-1.17-2.94-2.307c-0.64-1.136-0.799-2.454-0.448-3.71
		c0.351-1.256,1.17-2.301,2.307-2.94l2.186-1.26c1.535-0.886,2.489-2.538,2.489-4.311V5.839c0-2.693,2.19-4.883,4.883-4.883
		s4.883,2.191,4.883,4.883v2.524c0,1.773,0.953,3.425,2.489,4.311l2.186,1.262c2.33,1.348,3.13,4.34,1.783,6.67
		c-0.001,0.002-0.002,0.003-0.003,0.005c-0.652,1.128-1.703,1.935-2.962,2.272c-0.418,0.112-0.846,0.169-1.273,0.169
		c-0.848,0-1.689-0.226-2.432-0.655l-2.186-1.262c-0.753-0.435-1.614-0.664-2.489-0.664c-0.875,0-1.736,0.23-2.489,0.664
		l-2.27,1.307C6.502,22.855,5.676,23.073,4.846,23.073z M11.999,1.956c-2.141,0-3.883,1.742-3.883,3.883v2.524
		c0,2.129-1.145,4.112-2.989,5.177l-2.19,1.262c-0.907,0.511-1.559,1.342-1.839,2.341c-0.279,0.999-0.152,2.047,0.356,2.95
		c0.509,0.904,1.339,1.555,2.338,1.834c0.345,0.096,0.698,0.145,1.052,0.145c0.66,0,1.317-0.173,1.899-0.501l2.263-1.302
		c0.905-0.522,1.938-0.798,2.989-0.798c1.051,0,2.084,0.276,2.989,0.798l2.186,1.262c0.591,0.341,1.259,0.521,1.933,0.521
		c0.34,0,0.681-0.045,1.014-0.134c1.001-0.269,1.839-0.912,2.357-1.811c1.072-1.854,0.436-4.233-1.417-5.305l-2.186-1.261
		c-1.844-1.065-2.989-3.048-2.989-5.177V5.839C15.883,3.698,14.141,1.956,11.999,1.956z"/>
	<path d="M11.996,17.295c-1.786,0-3.239-1.453-3.239-3.239s1.453-3.239,3.239-3.239s3.239,1.453,3.239,3.239
		S13.782,17.295,11.996,17.295z M11.996,11.817c-1.235,0-2.239,1.004-2.239,2.239s1.004,2.239,2.239,2.239
		c1.234,0,2.239-1.004,2.239-2.239S13.23,11.817,11.996,11.817z"/>
	<path d="M11.996,7.435c-1.182,0-2.144-0.962-2.144-2.144c0-1.182,0.962-2.144,2.144-2.144s2.144,0.962,2.144,2.144
		C14.139,6.473,13.178,7.435,11.996,7.435z M11.996,4.147c-0.631,0-1.144,0.513-1.144,1.144c0,0.631,0.513,1.144,1.144,1.144
		c0.631,0,1.144-0.513,1.144-1.144C13.139,4.66,12.626,4.147,11.996,4.147z"/>
	<path d="M4.404,20.583c-1.182,0-2.144-0.962-2.144-2.144s0.962-2.144,2.144-2.144c1.182,0,2.144,0.962,2.144,2.144
		S5.587,20.583,4.404,20.583z M4.404,17.295c-0.631,0-1.144,0.513-1.144,1.144c0,0.631,0.513,1.144,1.144,1.144
		c0.631,0,1.144-0.513,1.144-1.144C5.548,17.808,5.035,17.295,4.404,17.295z"/>
	<path d="M19.586,20.583c-1.182,0-2.144-0.962-2.144-2.144s0.962-2.144,2.144-2.144s2.144,0.962,2.144,2.144
		S20.769,20.583,19.586,20.583z M19.586,17.295c-0.631,0-1.144,0.513-1.144,1.144c0,0.631,0.513,1.144,1.144,1.144
		s1.144-0.513,1.144-1.144C20.73,17.808,20.217,17.295,19.586,17.295z"/>
</g>
</svg>
