<?xml version="1.0" encoding="utf-8"?>
<!-- Generator: Adobe Illustrator 22.1.0, SVG Export Plug-In . SVG Version: 6.00 Build 0)  -->
<svg version="1.1" id="Layer_1" xmlns="http://www.w3.org/2000/svg" xmlns:xlink="http://www.w3.org/1999/xlink" x="0px" y="0px"
	 viewBox="0 0 24 24" style="enable-background:new 0 0 24 24;" xml:space="preserve">
<g>
	<title>toys-balloon</title>
	<path d="M7.002,6C6.74,6,6.493,5.856,6.357,5.624c0,0-0.012-0.02-0.016-0.027c-0.01-0.015-0.026-0.04-0.04-0.074
		C6.152,5.138,6.343,4.703,6.725,4.552C6.728,4.551,6.73,4.55,6.733,4.549c0.086-0.033,0.176-0.05,0.268-0.05
		c0.104,0,0.205,0.021,0.3,0.063c0.184,0.08,0.325,0.227,0.398,0.414c0.149,0.384-0.04,0.818-0.421,0.97
		C7.272,5.949,7.267,5.951,7.261,5.953C7.185,5.983,7.094,6,7.002,6z"/>
	<path d="M12.001,6.001c-0.385,0-0.706-0.288-0.747-0.671c0-0.002,0-0.003,0-0.005c-0.042-0.41,0.257-0.779,0.668-0.823
		c0.004,0,0.007-0.001,0.011-0.001c0.024-0.002,0.047-0.003,0.07-0.003c0.383,0,0.703,0.289,0.744,0.671c0,0.001,0,0.004,0,0.004
		c0.04,0.396-0.243,0.758-0.635,0.818c-0.011,0.003-0.022,0.005-0.032,0.006C12.051,6,12.026,6.001,12.001,6.001z"/>
	<path d="M9.516,12.021c-1.434,0-2.807-0.69-3.672-1.846c-0.165-0.221-0.12-0.535,0.101-0.7c0.087-0.065,0.191-0.1,0.299-0.1
		c0.157,0,0.307,0.075,0.401,0.2c0.677,0.904,1.753,1.444,2.879,1.444c0.176,0,0.354-0.013,0.528-0.039
		c1.354-0.089,2.526-0.889,3.079-2.091c0.082-0.177,0.26-0.291,0.454-0.291c0.073,0,0.143,0.016,0.21,0.046
		c0.121,0.056,0.213,0.155,0.259,0.281c0.046,0.125,0.041,0.261-0.015,0.383c-0.707,1.535-2.195,2.557-3.882,2.666
		C9.959,12.005,9.737,12.021,9.516,12.021z"/>
	<path d="M21.25,24c-0.134,0-0.259-0.052-0.353-0.146l-1.262-1.257c-0.611-0.61-1.421-0.946-2.282-0.946
		c-0.412,0-0.816,0.078-1.2,0.232c-0.504,0.201-1.033,0.303-1.571,0.303c-1.361,0-2.647-0.665-3.439-1.778l-0.661-0.925L8.429,19.7
		c-0.035,0.004-0.071,0.006-0.107,0.006c-0.171,0-0.341-0.045-0.491-0.13C7.6,19.445,7.432,19.231,7.36,18.974
		c-0.072-0.258-0.039-0.527,0.092-0.76l1.305-2.31c-3.384-0.531-6.073-3.465-6.46-7.119c-0.465-4.387,2.503-8.31,6.615-8.746
		C9.164,0.013,9.417,0,9.668,0c1.752,0,3.404,0.63,4.779,1.822c1.56,1.353,2.543,3.264,2.767,5.383
		c0.387,3.653-1.627,7.085-4.825,8.314l1.762,1.985c0.139,0.157,0.224,0.35,0.246,0.558c0.028,0.265-0.048,0.526-0.216,0.734
		c-0.168,0.208-0.406,0.338-0.672,0.366l-1.886,0.2l0.333,0.466c0.605,0.85,1.587,1.358,2.626,1.358c0.411,0,0.815-0.078,1.2-0.232
		c0.502-0.201,1.031-0.303,1.571-0.303c1.128,0,2.19,0.44,2.989,1.239l1.261,1.257c0.094,0.094,0.147,0.22,0.147,0.353
		c0,0.134-0.052,0.26-0.146,0.354C21.509,23.948,21.384,24,21.25,24z M8.323,18.706l5.08-0.538l-2.073-2.336
		c-0.248,0.053-0.493,0.093-0.731,0.118c-0.246,0.026-0.496,0.04-0.741,0.04L8.323,18.706z M9.667,1
		C9.452,1,9.234,1.011,9.018,1.034c-1.72,0.182-3.264,1.077-4.346,2.518C3.585,4.999,3.095,6.82,3.293,8.68
		c0.381,3.597,3.201,6.309,6.56,6.31c0.212,0,0.428-0.011,0.642-0.034c3.564-0.378,6.133-3.808,5.726-7.646
		c-0.198-1.866-1.06-3.547-2.428-4.733C12.602,1.545,11.175,1,9.667,1z"/>
</g>
</svg>
