<?xml version="1.0" encoding="utf-8"?>
<!-- Generator: Adobe Illustrator 22.1.0, SVG Export Plug-In . SVG Version: 6.00 Build 0)  -->
<svg version="1.1" id="Layer_1" xmlns="http://www.w3.org/2000/svg" xmlns:xlink="http://www.w3.org/1999/xlink" x="0px" y="0px"
	 viewBox="0 0 24 24" style="enable-background:new 0 0 24 24;" xml:space="preserve">
<g>
	<title>toys-rocking-horse-1</title>
	<path d="M14.999,24c-0.041,0-0.082-0.005-0.122-0.015l-4-1c-0.13-0.032-0.239-0.113-0.307-0.228s-0.089-0.249-0.056-0.378
		C10.569,22.156,10.769,22,10.999,22c0.041,0,0.082,0.005,0.122,0.015l4,1c0.13,0.032,0.239,0.113,0.308,0.228
		c0.069,0.115,0.089,0.249,0.056,0.378C15.428,23.844,15.229,24,14.999,24z"/>
	<path d="M14.999,22c-0.041,0-0.082-0.005-0.122-0.015l-4-1c-0.13-0.032-0.239-0.113-0.307-0.228s-0.089-0.249-0.056-0.378
		C10.57,20.156,10.769,20,10.999,20c0.04,0,0.081,0.005,0.12,0.015l4,1c0.13,0.032,0.239,0.113,0.308,0.228
		c0.069,0.115,0.089,0.249,0.056,0.378C15.428,21.844,15.229,22,14.999,22z"/>
	<path d="M14.999,19.5c-0.041,0-0.082-0.005-0.122-0.015l-4-1c-0.13-0.032-0.239-0.113-0.307-0.228s-0.089-0.249-0.056-0.378
		c0.056-0.223,0.255-0.379,0.485-0.379c0.041,0,0.082,0.005,0.122,0.015l3.999,1c0.13,0.032,0.239,0.113,0.308,0.228
		c0.069,0.115,0.089,0.249,0.056,0.378C15.428,19.344,15.229,19.5,14.999,19.5z"/>
	<path d="M14.999,17.5c-0.041,0-0.082-0.005-0.122-0.015l-4-1c-0.13-0.032-0.239-0.113-0.307-0.228s-0.089-0.249-0.056-0.378
		c0.056-0.223,0.255-0.379,0.485-0.379c0.041,0,0.082,0.005,0.122,0.015l4,1c0.13,0.032,0.239,0.113,0.308,0.228
		c0.069,0.115,0.089,0.249,0.056,0.378C15.428,17.344,15.229,17.5,14.999,17.5z"/>
	<circle cx="5.249" cy="4.25" r="0.75"/>
	<path d="M20.881,18.493c-0.578,0-1.104-0.34-1.339-0.866c-0.817-1.641-3.872-3.56-6.578-3.56c-2.48,0.124-4.755,1.469-6.075,3.596
		c-0.249,0.476-0.783,0.794-1.349,0.794c-0.148,0-0.295-0.021-0.437-0.063l-0.863-0.291c-0.064-0.021-0.127-0.048-0.189-0.078
		c-0.74-0.37-1.041-1.273-0.672-2.013c0.753-1.467,1.753-2.765,2.974-3.863L5.154,7.712L3.857,8.144
		C3.836,8.151,3.816,8.157,3.794,8.161C3.618,8.195,3.438,8.212,3.26,8.212c-1.147,0-2.184-0.726-2.583-1.807
		C0.423,5.714,0.452,4.965,0.761,4.295c0.309-0.669,0.86-1.178,1.552-1.433l1.235-0.558c0.269-0.121,0.558-0.217,0.861-0.286
		c-0.009-0.33,0.066-0.655,0.219-0.952C4.87,0.596,5.281,0.249,5.784,0.089c0.195-0.062,0.396-0.094,0.6-0.094
		c0.051,0,0.103,0.002,0.154,0.006c1.441,0.114,2.823,0.617,3.999,1.457C11.967,2.539,12.869,4.221,12.985,6h3.696
		c0.276,0.004,0.552,0.033,0.824,0.085c0.036,0,0.064,0.002,0.097,0.011c0.026,0.006,0.047,0.016,0.062,0.023
		c0.365,0.083,0.719,0.211,1.055,0.38h1.28c1.93,0,3.5,1.57,3.5,3.5c0,0.276-0.224,0.5-0.5,0.5s-0.5-0.224-0.5-0.5
		c0-1.363-1.096-2.474-2.453-2.5c0.204,0.221,0.386,0.461,0.545,0.718c0.621,0.989,0.935,2.132,0.908,3.304v1.562
		c0.059,0.104,0.183,0.303,0.286,0.469c0.377,0.606,0.937,1.508,1.397,2.484c0.025,0.053,0.048,0.109,0.066,0.165
		c0.127,0.378,0.098,0.785-0.08,1.144c-0.178,0.357-0.483,0.624-0.86,0.752c-0.002,0.001-0.984,0.327-0.984,0.327
		C21.177,18.471,21.029,18.493,20.881,18.493z M12.952,13.068c2.566,0,6.316,1.767,7.494,4.132c0.082,0.182,0.251,0.294,0.436,0.294
		c0.046,0,0.092-0.007,0.136-0.021l0.966-0.322c0.126-0.042,0.229-0.131,0.288-0.251c0.059-0.119,0.069-0.255,0.026-0.382
		c-0.006-0.018-0.013-0.036-0.022-0.054c-0.434-0.923-0.975-1.793-1.332-2.369c-0.293-0.472-0.387-0.626-0.427-0.764
		c-0.013-0.043-0.02-0.09-0.02-0.138V11.51c0.023-0.984-0.238-1.938-0.756-2.763c-0.447-0.724-1.116-1.263-1.905-1.54l-0.665,2.656
		C17.006,10.532,16.408,11,15.718,11H11.78c-0.69,0-1.288-0.468-1.455-1.137L9.526,6.669L8.747,5.022
		C8.158,3.728,6.861,2.895,5.441,2.895c-0.513,0-1.011,0.108-1.481,0.32L2.691,3.787C2.217,3.963,1.869,4.281,1.669,4.714
		C1.472,5.141,1.453,5.619,1.616,6.06c0.258,0.7,0.904,1.152,1.645,1.152c0.104,0,0.209-0.009,0.312-0.028l1.767-0.589
		C5.392,6.579,5.445,6.57,5.499,6.57c0.082,0,0.164,0.021,0.237,0.06c0.12,0.064,0.21,0.177,0.246,0.31l1.417,5.25
		c0.05,0.185-0.012,0.385-0.157,0.51c-1.231,1.056-2.23,2.322-2.971,3.765c-0.121,0.243-0.02,0.542,0.226,0.666
		c0.02,0.01,0.04,0.019,0.061,0.026l0.846,0.285c0.037,0.01,0.085,0.017,0.135,0.017c0.2,0,0.39-0.115,0.483-0.292
		c1.507-2.431,4.089-3.958,6.918-4.099C12.943,13.068,12.947,13.068,12.952,13.068L12.952,13.068z M11.295,9.621
		C11.35,9.844,11.55,10,11.78,10h3.938c0.23,0,0.429-0.156,0.485-0.379l0.654-2.613C16.795,7.003,16.734,7.001,16.673,7h-6.033
		L11.295,9.621z M11.983,6c-0.114-1.467-0.864-2.848-2.039-3.736C8.926,1.537,7.719,1.098,6.459,0.999
		C6.434,0.997,6.408,0.996,6.383,0.996c-0.099,0-0.199,0.016-0.295,0.046c-0.248,0.079-0.451,0.25-0.57,0.482
		C5.456,1.641,5.421,1.769,5.413,1.9c0.009,0,0.019,0,0.028,0c1.813,0,3.467,1.06,4.213,2.701L10.315,6H11.983z"/>
</g>
</svg>
