<?xml version="1.0" encoding="utf-8"?>
<!-- Generator: Adobe Illustrator 22.1.0, SVG Export Plug-In . SVG Version: 6.00 Build 0)  -->
<svg version="1.1" id="Layer_1" xmlns="http://www.w3.org/2000/svg" xmlns:xlink="http://www.w3.org/1999/xlink" x="0px" y="0px"
	 viewBox="0 0 24 24" style="enable-background:new 0 0 24 24;" xml:space="preserve">
<g>
	<title>toys-rocking-horse</title>
	<path d="M11.965,23.576c-3.564,0-7.053-0.659-10.372-1.96c-1.286-0.503-1.922-1.959-1.418-3.245
		c0.378-0.965,1.294-1.589,2.333-1.589c0.013,0,0.026,0,0.039,0c0.751-1.764,1.89-3.36,3.307-4.633L4.657,7.711L3.36,8.144
		C3.339,8.151,3.318,8.156,3.297,8.16C3.124,8.193,2.951,8.209,2.779,8.209c-0.554,0-1.091-0.167-1.552-0.481
		C0.618,7.312,0.208,6.684,0.071,5.959c-0.249-1.321,0.484-2.623,1.743-3.095l3.164-1.429c0.095-0.043,0.196-0.079,0.319-0.116
		l1.668-0.672C7.32,0.505,7.692,0.433,8.072,0.433c1.223,0,2.314,0.726,2.78,1.85l1.57,3.786h2.08c0.17,0,0.345,0.012,0.551,0.037
		c0.02,0.001,0.044,0.004,0.059,0.007c0.003,0.001,0.006,0.002,0.008,0.002c1.014,0.14,1.958,0.63,2.662,1.382l5.383,3.053
		c0.116,0.066,0.2,0.173,0.235,0.302c0.036,0.129,0.019,0.264-0.047,0.38c-0.089,0.156-0.256,0.253-0.435,0.253
		c-0.086,0-0.171-0.022-0.246-0.065l-3.879-2.2c0.138,0.435,0.208,0.886,0.208,1.348v2.349c0.759,0.584,1.821,2.245,2.468,3.869
		c0.009,0,0.017,0,0.026,0c1.039,0,1.955,0.624,2.333,1.59c0.244,0.623,0.23,1.303-0.038,1.916
		c-0.268,0.612-0.759,1.084-1.382,1.328c-3.314,1.297-6.799,1.954-10.357,1.954H11.965z M2.508,17.78
		c-0.615,0-1.178,0.384-1.402,0.956c-0.302,0.772,0.08,1.647,0.852,1.95c3.202,1.254,6.569,1.89,10.007,1.89
		c0,0,0.057,0,0.064,0.001c0.009,0,0.02-0.001,0.023-0.001c3.433,0,6.795-0.635,9.992-1.886c0.374-0.146,0.669-0.429,0.83-0.797
		c0.161-0.368,0.169-0.777,0.023-1.151c-0.224-0.572-0.787-0.956-1.402-0.956c-0.187,0-0.371,0.035-0.546,0.104
		c-0.772,0.299-1.598,0.569-2.457,0.802c-0.01,0.005-0.021,0.01-0.029,0.013c-0.04,0.014-0.079,0.023-0.121,0.026
		c-2.07,0.549-4.202,0.828-6.338,0.828c-2.195,0-4.383-0.294-6.505-0.874c-0.021-0.004-0.045-0.01-0.062-0.016
		c-0.001,0-0.002-0.001-0.003-0.001C4.61,18.44,3.81,18.177,3.057,17.885C2.88,17.815,2.696,17.78,2.508,17.78z M6.32,17.863
		c1.862,0.46,3.775,0.694,5.689,0.694c1.884,0,3.766-0.226,5.6-0.672c-1-2.209-3.169-3.695-5.605-3.815
		C9.583,14.213,7.384,15.69,6.32,17.863z M12.028,13.07c2.882,0.131,5.434,1.912,6.56,4.559c0.647-0.187,1.281-0.398,1.889-0.63
		c-0.707-1.701-1.778-3.182-2.167-3.343c-0.187-0.078-0.308-0.259-0.308-0.462v-2.625c0-1.61-1.097-3-2.64-3.39l-0.785,3.133
		c-0.111,0.446-0.509,0.757-0.969,0.757h-2.72c-0.46,0-0.859-0.312-0.97-0.758L9.028,6.735L7.372,3.098
		C7.13,2.562,6.593,2.217,6.003,2.217c-0.134,0-0.268,0.018-0.397,0.054c-0.01,0.003-0.021,0.006-0.031,0.009
		c-0.064,0.019-0.125,0.04-0.186,0.067L2.196,3.788c-0.827,0.311-1.3,1.144-1.142,1.986c0.087,0.462,0.349,0.862,0.737,1.128
		C2.085,7.103,2.427,7.209,2.78,7.209c0.099,0,0.2-0.009,0.299-0.025l1.766-0.589c0.051-0.017,0.104-0.026,0.158-0.026
		c0.082,0,0.164,0.021,0.237,0.059c0.121,0.065,0.21,0.178,0.246,0.31l1.417,5.25c0.05,0.185-0.012,0.386-0.158,0.51
		c-1.363,1.165-2.465,2.648-3.199,4.302c0.585,0.223,1.187,0.425,1.792,0.603c1.192-2.604,3.773-4.375,6.637-4.533
		c0.005,0,0.025-0.001,0.029-0.001C12.009,13.069,12.023,13.07,12.028,13.07z M10.887,10.07l2.72,0l0.752-3h-2.216
		c-0.015,0.003-0.033,0.005-0.053,0.005c-0.012,0-0.037-0.003-0.055-0.005h-1.893L10.887,10.07z M11.339,6.069L9.928,2.666
		C9.618,1.917,8.89,1.433,8.074,1.433c-0.253,0-0.5,0.048-0.736,0.142L7.31,1.586c0.425,0.259,0.766,0.64,0.973,1.098l1.541,3.385
		H11.339z"/>
	<path d="M4.502,5.319c-0.414,0-0.75-0.336-0.75-0.75c0-0.011,0.001-0.023,0.003-0.035C3.771,4.146,4.096,3.828,4.488,3.82
		c0.005,0,0.023,0,0.028,0C4.908,3.827,5.232,4.143,5.25,4.534c0.002,0.012,0.003,0.025,0.003,0.036
		C5.253,4.983,4.917,5.319,4.502,5.319L4.502,5.319z"/>
</g>
</svg>
