<?xml version="1.0" encoding="utf-8"?>
<!-- Generator: Adobe Illustrator 22.1.0, SVG Export Plug-In . SVG Version: 6.00 Build 0)  -->
<svg version="1.1" id="Layer_1" xmlns="http://www.w3.org/2000/svg" xmlns:xlink="http://www.w3.org/1999/xlink" x="0px" y="0px"
	 viewBox="0 0 24 24" style="enable-background:new 0 0 24 24;" xml:space="preserve">
<g>
	<title>toys-castle</title>
	<path d="M4.999,12.5c-0.827,0-1.5-0.673-1.5-1.5s0.673-1.5,1.5-1.5s1.5,0.673,1.5,1.5S5.826,12.5,4.999,12.5z M4.999,10.5
		c-0.276,0-0.5,0.224-0.5,0.5s0.224,0.5,0.5,0.5s0.5-0.224,0.5-0.5S5.275,10.5,4.999,10.5z"/>
	<path d="M0.5,24C0.224,24,0,23.776,0,23.5V22c0-0.912,0.631-1.708,1.499-1.934V6C0.672,6,0,5.327,0,4.5v-3C0,0.673,0.673,0,1.5,0
		h1.249c0.689,0,1.25,0.561,1.25,1.25c0,0.138,0.112,0.25,0.25,0.25h1.5c0.138,0,0.25-0.112,0.25-0.25C5.999,0.561,6.56,0,7.249,0
		H8.5C9.327,0,10,0.673,10,1.5v3C10,5.327,9.327,6,8.5,6H8.499v2h7V6C14.672,6,14,5.327,14,4.5v-3C14,0.673,14.673,0,15.5,0h1.249
		c0.689,0,1.25,0.561,1.25,1.25c0,0.138,0.112,0.25,0.25,0.25h1.5c0.138,0,0.25-0.112,0.25-0.25c0-0.689,0.561-1.25,1.25-1.25H22.5
		C23.327,0,24,0.673,24,1.5v3C24,5.327,23.327,6,22.5,6h-0.001v14.065C23.368,20.29,24,21.086,24,22v1.5c0,0.276-0.224,0.5-0.5,0.5
		H0.5z M23,23v-1c0-0.552-0.448-1-1-1H2c-0.551,0-1,0.448-1,1v1H23z M21.499,20V6h-5v14H21.499z M15.499,20V9h-7v11H9.5v-4.5
		c0-1.378,1.121-2.5,2.5-2.5c1.378,0,2.5,1.122,2.5,2.5V20H15.499z M13.5,20v-4.5c0-0.827-0.673-1.5-1.5-1.5s-1.5,0.673-1.5,1.5V20
		H13.5z M7.499,20V6h-5v14H7.499z M15.5,1C15.224,1,15,1.224,15,1.5v3C15,4.776,15.224,5,15.5,5h7C22.776,5,23,4.776,23,4.5v-3
		C23,1.224,22.776,1,22.5,1h-1.251c-0.138,0-0.25,0.112-0.25,0.25c0,0.689-0.561,1.25-1.25,1.25h-1.5c-0.689,0-1.25-0.561-1.25-1.25
		c0-0.138-0.112-0.25-0.25-0.25H15.5z M1.5,1C1.224,1,1,1.224,1,1.5v3C1,4.776,1.224,5,1.5,5h7C8.776,5,9,4.776,9,4.5v-3
		C9,1.224,8.776,1,8.5,1H7.249c-0.138,0-0.25,0.112-0.25,0.25c0,0.689-0.561,1.25-1.25,1.25h-1.5c-0.689,0-1.25-0.561-1.25-1.25
		C2.999,1.112,2.887,1,2.749,1H1.5z"/>
	<path d="M18.999,12.5c-0.827,0-1.5-0.673-1.5-1.5s0.673-1.5,1.5-1.5s1.5,0.673,1.5,1.5S19.826,12.5,18.999,12.5z M18.999,10.5
		c-0.276,0-0.5,0.224-0.5,0.5s0.224,0.5,0.5,0.5s0.5-0.224,0.5-0.5S19.275,10.5,18.999,10.5z"/>
</g>
</svg>
