<?xml version="1.0" encoding="utf-8"?>
<!-- Generator: Adobe Illustrator 22.1.0, SVG Export Plug-In . SVG Version: 6.00 Build 0)  -->
<svg version="1.1" id="Layer_1" xmlns="http://www.w3.org/2000/svg" xmlns:xlink="http://www.w3.org/1999/xlink" x="0px" y="0px"
	 viewBox="0 0 24 24" style="enable-background:new 0 0 24 24;" xml:space="preserve">
<g>
	<title>toys-lego</title>
	<path d="M14,23.5c-0.552,0-1-0.448-1-1V4c0-0.64,0.41-1.205,1-1.414V2c0-0.827,0.673-1.5,1.5-1.5h1C17.327,0.5,18,1.173,18,2v0.5h1
		V2c0-0.827,0.673-1.5,1.5-1.5h1C22.327,0.5,23,1.173,23,2v0.586C23.59,2.795,24,3.36,24,4v18.5c0,0.552-0.448,1-1,1H14z M14,22.5h9
		v-4h-9V22.5z M23,17.5v-4h-9v4H23z M23,12.5v-4h-9v4H23z M23,7.5V4c0-0.276-0.224-0.5-0.5-0.5h-8C14.224,3.5,14,3.724,14,4v3.5H23z
		 M22,2.5V2c0-0.276-0.224-0.5-0.5-0.5h-1C20.224,1.5,20,1.724,20,2v0.5H22z M17,2.5V2c0-0.276-0.224-0.5-0.5-0.5h-1
		C15.224,1.5,15,1.724,15,2v0.5H17z"/>
	<path d="M1,23.5c-0.551,0-1-0.448-1-1V19c0-0.64,0.41-1.205,1-1.414V17c0-0.827,0.673-1.5,1.5-1.5h1C4.327,15.5,5,16.173,5,17v0.5
		h1V17c0-0.827,0.673-1.5,1.5-1.5h1c0.827,0,1.5,0.673,1.5,1.5v0.586c0.59,0.209,1,0.774,1,1.414v3.5c0,0.552-0.449,1-1,1H1z
		 M1.5,18.5C1.224,18.5,1,18.724,1,19v3.5h9V19c0-0.276-0.224-0.5-0.5-0.5H1.5z M9,17.5V17c0-0.276-0.224-0.5-0.5-0.5h-1
		C7.224,16.5,7,16.724,7,17v0.5H9z M4,17.5V17c0-0.276-0.224-0.5-0.5-0.5h-1C2.224,16.5,2,16.724,2,17v0.5H4z"/>
	<path d="M3.11,14.5c-0.204,0-0.386-0.122-0.463-0.311L1.78,12.062c-0.238-0.59-0.073-1.265,0.39-1.681L1.948,9.837
		C1.635,9.071,2.004,8.194,2.769,7.881l0.926-0.378c0.182-0.074,0.373-0.112,0.567-0.112c0.199,0,0.395,0.04,0.581,0.118
		c0.369,0.155,0.656,0.445,0.808,0.816l0.19,0.465l0.927-0.378l-0.19-0.466C6.264,7.18,6.633,6.303,7.398,5.99l0.926-0.378
		C8.506,5.538,8.697,5.5,8.891,5.5c0.199,0,0.395,0.04,0.581,0.118c0.369,0.155,0.656,0.445,0.808,0.816l0.224,0.549
		c0.023-0.001,0.046-0.002,0.068-0.002c0.612,0,1.158,0.365,1.39,0.93c0.051,0.123,0.05,0.259-0.001,0.383
		c-0.052,0.123-0.148,0.219-0.271,0.27C11.63,8.587,11.566,8.6,11.5,8.6l0,0c-0.203,0-0.385-0.122-0.462-0.31s-0.26-0.31-0.464-0.31
		c-0.064,0-0.126,0.012-0.186,0.036l-7.409,3.02c-0.252,0.104-0.374,0.395-0.272,0.649l0.866,2.125
		c0.104,0.256-0.019,0.548-0.274,0.652C3.239,14.488,3.175,14.5,3.11,14.5z M4.261,8.392c-0.065,0-0.128,0.012-0.188,0.037
		L3.147,8.807c-0.124,0.051-0.22,0.146-0.272,0.269C2.824,9.199,2.823,9.335,2.874,9.459l0.189,0.463l1.852-0.756L4.725,8.702
		C4.648,8.514,4.466,8.392,4.261,8.392z M8.891,6.5c-0.065,0-0.128,0.013-0.188,0.037L7.777,6.916
		c-0.124,0.051-0.22,0.146-0.272,0.269C7.453,7.308,7.452,7.444,7.503,7.568l0.189,0.463l1.852-0.756L9.354,6.811
		C9.277,6.622,9.095,6.5,8.891,6.5z"/>
	<path d="M5.909,15.2c-0.204,0-0.386-0.122-0.463-0.311c-0.051-0.123-0.05-0.259,0.002-0.383c0.052-0.123,0.148-0.219,0.272-0.269
		l5.405-2.208c0.061-0.025,0.125-0.037,0.189-0.037c0.204,0,0.386,0.122,0.463,0.311c0.05,0.123,0.05,0.259-0.002,0.382
		c-0.052,0.123-0.148,0.219-0.272,0.269l-5.405,2.208C6.038,15.188,5.974,15.2,5.909,15.2z"/>
</g>
</svg>
