<?xml version="1.0" encoding="utf-8"?>
<!-- Generator: Adobe Illustrator 22.1.0, SVG Export Plug-In . SVG Version: 6.00 Build 0)  -->
<svg version="1.1" id="Layer_1" xmlns="http://www.w3.org/2000/svg" xmlns:xlink="http://www.w3.org/1999/xlink" x="0px" y="0px"
	 viewBox="0 0 24 24" style="enable-background:new 0 0 24 24;" xml:space="preserve">
<g>
	<title>social-media-google</title>
	<path d="M11.999,24c-3.881,0-7.539-1.898-9.793-5.078c-0.01-0.008-0.02-0.017-0.03-0.029c-0.037-0.042-0.067-0.088-0.089-0.139
		C0.722,16.756,0,14.421,0,12c0-2.288,0.644-4.508,1.863-6.424c0.015-0.079,0.047-0.15,0.096-0.21
		C1.987,5.33,2.021,5.298,2.061,5.271c0.426-0.627,0.915-1.217,1.453-1.756C5.781,1.248,8.794,0,11.999,0
		c3.3,0,6.489,1.38,8.748,3.786c0.092,0.097,0.14,0.224,0.135,0.358c-0.004,0.133-0.06,0.257-0.157,0.349L17.811,7.23
		c-0.092,0.086-0.215,0.136-0.338,0.136c-0.005,0-0.022,0-0.027-0.001c-0.126-0.004-0.254-0.062-0.344-0.159
		C15.796,5.804,13.958,5,12.061,5l-0.058,0c-1.869,0.004-3.624,0.737-4.945,2.063c-1.321,1.326-2.046,3.085-2.042,4.952
		c0.003,1.223,0.328,2.428,0.943,3.486c0.037,0.043,0.067,0.093,0.088,0.15C7.333,17.749,9.563,19,12.016,19
		c2.734-0.006,5.172-1.564,6.325-4H13.5c-0.276,0-0.5-0.224-0.5-0.5v-4c0-0.276,0.224-0.5,0.5-0.5h10c0.276,0,0.5,0.224,0.5,0.5v2.1
		c-0.179,3.446-1.82,6.641-4.503,8.783c-0.008,0.009-0.016,0.017-0.023,0.024c-0.02,0.018-0.04,0.031-0.054,0.039
		C17.291,23.116,14.731,24,12.016,24H11.999z M3.225,18.621C5.302,21.367,8.565,23,11.999,23c0.003,0,0.014,0,0.017,0
		c2.312,0,4.514-0.706,6.387-2.044l-2.012-2.265c-1.304,0.854-2.805,1.306-4.358,1.309c-2.631,0-5.056-1.267-6.559-3.404
		L3.225,18.621z M19.191,20.337c2.269-1.954,3.654-4.769,3.81-7.763L23,11h-9v3h5.087c0.162,0,0.315,0.079,0.408,0.211
		c0.094,0.132,0.117,0.302,0.063,0.455c-0.469,1.327-1.284,2.505-2.365,3.422L19.191,20.337z M2.504,6.444
		C1.519,8.121,1,10.036,1,12c0,2.054,0.571,4.049,1.653,5.79l2.289-2.06c-0.604-1.141-0.923-2.42-0.926-3.713
		c-0.003-1.272,0.301-2.532,0.88-3.66L2.504,6.444z M5.414,7.491C6.908,5.305,9.349,4.006,11.999,4c2.037,0,4.017,0.788,5.481,2.169
		l2.188-2.055C17.626,2.132,14.846,1,11.999,1l0,0c-2.938,0-5.7,1.144-7.778,3.222c-0.423,0.423-0.815,0.886-1.17,1.38L5.414,7.491z
		"/>
</g>
</svg>
