<?xml version="1.0" encoding="utf-8"?>
<!-- Generator: Adobe Illustrator 22.1.0, SVG Export Plug-In . SVG Version: 6.00 Build 0)  -->
<svg version="1.1" id="Layer_1" xmlns="http://www.w3.org/2000/svg" xmlns:xlink="http://www.w3.org/1999/xlink" x="0px" y="0px"
	 viewBox="0 0 24 24" style="enable-background:new 0 0 24 24;" xml:space="preserve">
<g>
	<title>social-media-foursquare-1</title>
	<path d="M4.756,23.998c-0.193,0-0.38-0.056-0.542-0.161C3.93,23.651,3.76,23.338,3.76,22.999v-21.5c0-0.827,0.673-1.5,1.5-1.5H18
		c0.827,0,1.5,0.674,1.5,1.501c0,0.112-0.013,0.225-0.038,0.336l-2.535,11.001c-0.158,0.685-0.759,1.163-1.462,1.163h-4.411
		L5.613,23.52C5.416,23.824,5.099,23.998,4.756,23.998z M5.26,0.999c-0.276,0-0.5,0.224-0.5,0.5v21.5l5.57-9.748
		c0.089-0.156,0.255-0.252,0.434-0.252h4.7c0.235,0,0.435-0.159,0.488-0.387l1.063-4.613H12.26c-0.276,0-0.5-0.224-0.5-0.5
		s0.224-0.5,0.5-0.5h4.985l1.242-5.387C18.495,1.574,18.5,1.536,18.5,1.499c0-0.133-0.052-0.259-0.146-0.354
		C18.259,1.051,18.133,0.999,18,0.999H5.26z"/>
</g>
</svg>
