<?xml version="1.0" encoding="utf-8"?>
<!-- Generator: Adobe Illustrator 22.1.0, SVG Export Plug-In . SVG Version: 6.00 Build 0)  -->
<svg version="1.1" id="Layer_1" xmlns="http://www.w3.org/2000/svg" xmlns:xlink="http://www.w3.org/1999/xlink" x="0px" y="0px"
	 viewBox="0 0 24 24" style="enable-background:new 0 0 24 24;" xml:space="preserve">
<g>
	<title>social-media-google-plus</title>
	<path d="M7.213,20.726C4.94,20.725,3.16,19.283,3.16,17.443c0-1.701,2.056-3.193,4.4-3.193h0.056
		c0.495,0.005,0.984,0.079,1.454,0.221c0.052,0.016,0.1,0.039,0.144,0.071c0.125,0.088,0.247,0.171,0.365,0.25l0.037,0.025
		c1.023,0.698,1.761,1.201,1.98,2.076c0.051,0.211,0.077,0.425,0.078,0.637C11.674,20.311,8.879,20.726,7.213,20.726L7.213,20.726z
		 M7.56,15.25c-1.779,0-3.4,1.045-3.4,2.193c0,1.279,1.341,2.282,3.053,2.283c3.102,0,3.461-1.252,3.461-2.193
		c-0.001-0.133-0.017-0.268-0.049-0.401c-0.126-0.502-0.694-0.89-1.554-1.476l-0.042-0.028c-0.106-0.072-0.214-0.144-0.324-0.221
		c-0.356-0.1-0.724-0.153-1.094-0.156H7.56z"/>
	<path d="M7.168,22.662c-0.964,0-1.927-0.118-2.862-0.351c-1.537-0.269-2.942-1.179-3.837-2.493C0.16,19.279,0.001,18.691,0,18.101
		c0.006-0.615,0.15-1.228,0.416-1.776c0.938-1.997,3.233-3.379,5.903-3.577c-0.064-0.241-0.096-0.489-0.096-0.74
		c0-0.055,0.002-0.111,0.005-0.166c-1.26-0.114-2.436-0.664-3.336-1.568C1.875,9.251,1.316,7.893,1.319,6.451
		c0.198-2.398,1.864-4.433,4.148-5.085C6.143,1.129,6.869,1.004,7.611,1h6.103c0.316,0,0.613,0.152,0.796,0.408
		c0.315,0.438,0.215,1.052-0.223,1.366l-1.363,0.987c-0.061,0.044-0.126,0.08-0.193,0.109c0.437,0.808,0.654,1.712,0.629,2.635
		c-0.048,1.569-0.839,3.048-2.116,3.958c-0.679,0.53-0.764,0.681-0.776,0.834c0.286,0.487,0.686,0.904,1.162,1.207
		c1.699,0.992,2.687,2.837,2.569,4.811c0.001,2.261-1.703,4.225-4.341,4.989c-0.841,0.238-1.709,0.359-2.581,0.359H7.168z
		 M6.974,13.723c-2.531,0-4.803,1.219-5.655,3.032C1.114,17.177,1.004,17.642,1,18.105c0.001,0.412,0.11,0.823,0.317,1.184
		c0.727,1.064,1.896,1.815,3.196,2.044c0.879,0.218,1.785,0.327,2.713,0.329c0.816,0,1.61-0.108,2.359-0.32
		c2.197-0.636,3.617-2.229,3.617-4.057c0.096-1.621-0.704-3.12-2.087-3.925c-0.675-0.429-1.218-1.013-1.589-1.7
		c-0.039-0.073-0.06-0.155-0.06-0.237c0-0.677,0.232-1.023,1.181-1.762c1.038-0.74,1.675-1.928,1.714-3.185
		c0.027-0.98-0.291-1.947-0.894-2.721c-0.117-0.15-0.138-0.356-0.055-0.527c0.083-0.17,0.26-0.281,0.449-0.281h0.489L13.651,2
		L7.614,2c-0.628,0.003-1.25,0.111-1.845,0.319C3.861,2.864,2.48,4.54,2.317,6.494C2.316,7.636,2.772,8.735,3.601,9.567
		C4.43,10.4,5.534,10.86,6.709,10.863L6.8,10.862c0.161,0.001,0.305,0.07,0.4,0.191c0.096,0.122,0.13,0.285,0.091,0.435
		c-0.044,0.17-0.067,0.345-0.068,0.521c0,0.337,0.09,0.669,0.261,0.961c0.09,0.155,0.091,0.347,0.002,0.502
		c-0.089,0.155-0.255,0.251-0.434,0.251H6.974z"/>
	<path d="M7.829,10.282C6.277,10.236,4.74,8.48,4.473,6.447C4.283,5.458,4.53,4.411,5.152,3.588
		c0.003-0.004,0.014-0.018,0.017-0.021c0.398-0.472,0.981-0.744,1.6-0.744h0.063c1.595,0.048,3.104,1.746,3.372,3.784
		c0.184,1.008-0.068,2.073-0.696,2.909c-0.412,0.491-0.998,0.766-1.616,0.766C7.892,10.282,7.831,10.282,7.829,10.282z M6.762,3.823
		c-0.321,0-0.614,0.137-0.825,0.385C5.497,4.793,5.32,5.555,5.46,6.288c0.203,1.543,1.345,2.963,2.399,2.994l0.025,0
		c0.337,0,0.628-0.134,0.842-0.388c0.447-0.596,0.629-1.377,0.491-2.132C9.007,5.17,7.931,3.857,6.817,3.823
		C6.817,3.823,6.762,3.823,6.762,3.823z"/>
	<path d="M18.5,15c-0.276,0-0.5-0.224-0.5-0.5V12h-2.5c-0.276,0-0.5-0.224-0.5-0.5v-2C15,9.224,15.224,9,15.5,9H18V6.5
		C18,6.224,18.224,6,18.5,6h2C20.776,6,21,6.224,21,6.5V9h2.5C23.776,9,24,9.224,24,9.5v2c0,0.276-0.224,0.5-0.5,0.5H21v2.5
		c0,0.276-0.224,0.5-0.5,0.5H18.5z M20,14v-2.5c0-0.276,0.224-0.5,0.5-0.5H23v-1h-2.5C20.224,10,20,9.776,20,9.5V7h-1v2.5
		c0,0.276-0.224,0.5-0.5,0.5H16v1h2.5c0.276,0,0.5,0.224,0.5,0.5V14H20z"/>
</g>
</svg>
