<?xml version="1.0" encoding="utf-8"?>
<!-- Generator: Adobe Illustrator 22.1.0, SVG Export Plug-In . SVG Version: 6.00 Build 0)  -->
<svg version="1.1" id="Layer_1" xmlns="http://www.w3.org/2000/svg" xmlns:xlink="http://www.w3.org/1999/xlink" x="0px" y="0px"
	 viewBox="0 0 24 24" style="enable-background:new 0 0 24 24;" xml:space="preserve">
<g>
	<title>social-media-iwiw</title>
	<path d="M12.332,24.002c-0.477,0-0.926-0.208-1.637-0.618l-6.991-4.237c-1.503-0.868-1.694-1.195-1.694-2.917V7.776
		c0-1.722,0.189-2.049,1.684-2.913c0.017-0.01,0.034-0.018,0.052-0.026l6.929-4.211c0.727-0.414,1.181-0.622,1.661-0.622
		c0.486,0,0.947,0.215,1.681,0.638l3.356,1.946c0.477,0.274,0.819,0.717,0.962,1.247c0.144,0.53,0.072,1.084-0.202,1.561
		c-0.374,0.632-1.062,1.023-1.797,1.023l0,0c-0.358,0-0.712-0.094-1.022-0.271l-2.985-1.723L6.011,8.208v7.588l6.317,3.785
		l2.995-1.733c0.314-0.174,0.662-0.264,1.01-0.264c0.68,0,1.316,0.338,1.702,0.905c0.639,0.941,0.395,2.226-0.546,2.866
		l-3.485,2.007C13.274,23.787,12.815,24.002,12.332,24.002z M4.144,5.759C3.011,6.416,3.011,6.473,3.011,7.776v8.454
		c0,1.362,0,1.362,1.203,2.056l6.99,4.237c0.565,0.326,0.863,0.48,1.128,0.48c0.27,0,0.579-0.162,1.172-0.506l3.454-1.988
		c0.206-0.141,0.363-0.385,0.415-0.66c0.053-0.279-0.006-0.562-0.165-0.796c-0.199-0.293-0.526-0.467-0.877-0.467
		c-0.178,0-0.357,0.046-0.516,0.134l-3.241,1.875c-0.076,0.044-0.163,0.067-0.251,0.067c-0.091,0-0.18-0.025-0.257-0.071
		l-6.813-4.082c-0.15-0.09-0.243-0.254-0.243-0.429V7.925c0-0.175,0.093-0.339,0.243-0.429l6.813-4.081
		c0.078-0.047,0.167-0.071,0.257-0.071c0.088,0,0.174,0.023,0.25,0.067l3.238,1.869c0.159,0.091,0.341,0.139,0.526,0.139
		c0.382,0,0.739-0.202,0.931-0.527c0.138-0.24,0.174-0.524,0.101-0.796c-0.073-0.272-0.249-0.5-0.494-0.64l-3.36-1.948
		c-0.596-0.344-0.907-0.506-1.181-0.506c-0.27,0-0.573,0.156-1.153,0.486L4.214,5.723C4.191,5.737,4.168,5.749,4.144,5.759z"/>
	<path d="M20.531,17.93c-0.807,0-1.469-0.623-1.519-1.419c0-0.005-0.001-0.026-0.001-0.031V7.337
		c0.056-0.81,0.691-1.408,1.478-1.408c0.021,0,0.043,0,0.064,0.001l1.005,0c0.406,0.004,0.76,0.144,1.026,0.404
		c0.27,0.265,0.421,0.619,0.425,0.998v9.148c-0.003,0.798-0.654,1.448-1.449,1.45C21.559,17.93,20.531,17.93,20.531,17.93z
		 M20.487,6.929c-0.258,0-0.458,0.187-0.477,0.444l0.001,9.099c0.018,0.249,0.243,0.454,0.522,0.458h1.025
		c0.247-0.001,0.45-0.203,0.451-0.452V7.337c-0.001-0.107-0.045-0.211-0.125-0.289c-0.078-0.077-0.182-0.119-0.292-0.119
		L20.531,6.93L20.487,6.929z"/>
	<path d="M8.466,14.915c-0.052-0.001-0.092-0.004-0.132-0.009c-0.396-0.043-0.751-0.239-1-0.55
		c-0.245-0.306-0.359-0.689-0.321-1.079L7.011,9.315c0-0.177,0.095-0.343,0.248-0.432l3.561-2.074
		c0.025-0.015,0.051-0.026,0.076-0.036c0.182-0.068,0.372-0.102,0.565-0.102c0.568,0,1.099,0.304,1.388,0.795
		c0.219,0.371,0.28,0.805,0.172,1.222c-0.108,0.417-0.371,0.767-0.742,0.985l-2.268,1.214l0.001,2.456
		c0.005,0.413-0.152,0.805-0.442,1.103c-0.291,0.298-0.679,0.464-1.095,0.47C8.473,14.915,8.467,14.915,8.466,14.915z M8.011,13.315
		c0,0.018-0.001,0.036-0.003,0.054c-0.014,0.131,0.023,0.26,0.105,0.362c0.082,0.102,0.199,0.167,0.33,0.181
		c0.013,0.001,0.025,0.002,0.038,0.003c0.131-0.002,0.27-0.063,0.372-0.168c0.104-0.106,0.16-0.247,0.158-0.396l-0.001-2.765
		c0-0.185,0.101-0.354,0.264-0.441L11.789,8.8c0.124-0.073,0.224-0.208,0.264-0.364c0.041-0.158,0.018-0.323-0.065-0.464
		c-0.109-0.186-0.312-0.302-0.527-0.302c-0.061,0-0.121,0.009-0.18,0.027l-3.27,1.905V13.315z"/>
</g>
</svg>
