<?xml version="1.0" encoding="utf-8"?>
<!-- Generator: Adobe Illustrator 22.1.0, SVG Export Plug-In . SVG Version: 6.00 Build 0)  -->
<svg version="1.1" id="Layer_1" xmlns="http://www.w3.org/2000/svg" xmlns:xlink="http://www.w3.org/1999/xlink" x="0px" y="0px"
	 viewBox="0 0 24 24" style="enable-background:new 0 0 24 24;" xml:space="preserve">
<g>
	<title>social-media-students-circle-network</title>
	<path d="M21.31,19.194c-0.074,0-0.145-0.016-0.212-0.047c-0.193-0.09-0.308-0.293-0.285-0.506c0.201-1.892-0.424-3.78-1.713-5.179
		c-0.679-0.671-1.475-1.225-2.359-1.638l-2.069-1.073c-1.198-0.621-2.395-1.242-3.567-1.856l-0.058-0.031
		c-1.74-0.912-3.904-2.047-3.668-4.993c0.114-0.884,0.463-1.704,1.008-2.384c0.017-0.021,0.035-0.04,0.053-0.057
		c0.909-0.825,2.083-1.332,3.306-1.429L12.37,0c6.495,0.522,10.837,4.648,11.637,11.038c0.003,0.021,0.004,0.042,0.004,0.062v1.799
		c0,0.08-0.019,0.157-0.054,0.227c-0.139,1.65-0.609,3.226-1.399,4.684c-0.232,0.448-0.532,0.864-0.888,1.232
		C21.576,19.138,21.445,19.194,21.31,19.194z M9.142,2.144c-0.417,0.53-0.683,1.163-0.77,1.832C8.192,6.239,9.73,7.045,11.511,7.979
		l0.058,0.031c1.19,0.623,2.405,1.253,3.621,1.883c0.666,0.345,1.332,0.69,1.994,1.035c0.972,0.453,1.862,1.074,2.636,1.84
		c1.117,1.212,1.804,2.723,1.983,4.329c0.658-1.289,1.048-2.669,1.162-4.11c-0.002-0.088,0.013-0.173,0.046-0.25v-1.605
		C22.265,5.268,18.278,1.482,12.34,0.999L11.786,1C10.828,1.077,9.883,1.483,9.142,2.144z"/>
	<path d="M11.113,24c-2.957-0.239-5.694-1.536-7.727-3.652c-0.001-0.001-0.002-0.002-0.004-0.004
		c-2.023-2.117-3.22-4.894-3.371-7.818l-0.001-0.969c0.085-1.364,0.385-2.676,0.891-3.917c0.532-1.475,1.43-2.829,2.593-3.907
		C3.588,3.647,3.709,3.6,3.835,3.6c0.071,0,0.14,0.015,0.205,0.044C4.224,3.727,4.34,3.91,4.335,4.111
		C4.322,4.686,4.351,5.268,4.421,5.839c0.23,1.246,0.822,2.409,1.709,3.347c0.747,0.654,1.609,1.211,2.545,1.64
		c1.002,0.531,1.971,1.028,2.907,1.508l0.029,0.015c0.968,0.497,1.968,1.01,2.975,1.545c1.423,0.76,2.796,1.672,3.211,3.184
		c0.368,1.901-0.239,3.809-1.621,5.122c-0.905,0.958-2.138,1.599-3.464,1.794C12.688,23.998,12.664,24,12.64,24H11.113z
		 M4.106,19.654c1.863,1.94,4.366,3.129,7.047,3.347L12.602,23c1.091-0.169,2.109-0.703,2.867-1.506
		c1.148-1.092,1.651-2.654,1.355-4.189c-0.307-1.113-1.484-1.875-2.708-2.529c-1.013-0.538-2.048-1.069-2.961-1.537
		c-0.955-0.49-1.933-0.992-2.923-1.517c-1.004-0.459-1.949-1.072-2.796-1.817C4.389,8.801,3.702,7.452,3.433,5.99
		c-0.028-0.225-0.05-0.448-0.066-0.668C2.709,6.119,2.184,7.034,1.835,7.999c-0.471,1.156-0.747,2.361-0.825,3.59L1.011,12.5
		C1.149,15.164,2.249,17.709,4.106,19.654L4.106,19.654z"/>
</g>
</svg>
