<?xml version="1.0" encoding="utf-8"?>
<!-- Generator: Adobe Illustrator 22.1.0, SVG Export Plug-In . SVG Version: 6.00 Build 0)  -->
<svg version="1.1" id="Layer_1" xmlns="http://www.w3.org/2000/svg" xmlns:xlink="http://www.w3.org/1999/xlink" x="0px" y="0px"
	 viewBox="0 0 24 24" style="enable-background:new 0 0 24 24;" xml:space="preserve">
<g>
	<title>social-media-renren-1</title>
	<path d="M17.007,18c-1.211,0-2.407-0.318-3.46-0.918c-0.026-0.012-0.051-0.027-0.075-0.043c-0.539-0.317-1.031-0.701-1.465-1.144
		c-0.434,0.443-0.926,0.827-1.465,1.144c-0.024,0.016-0.049,0.031-0.074,0.043C9.415,17.682,8.218,18,7.007,18
		c-1.227,0-2.437-0.325-3.499-0.941c-0.014-0.007-0.028-0.015-0.041-0.024c-2.134-1.257-3.46-3.568-3.46-6.035c0-3.86,3.14-7,7-7
		c1.879,0,3.686,0.764,5,2.106C13.321,4.764,15.128,4,17.007,4c3.86,0,7,3.14,7,7c0,2.47-1.329,4.785-3.469,6.041
		c0,0-0.023,0.014-0.031,0.018C19.447,17.674,18.235,18,17.007,18z M14.756,16.561C15.47,16.853,16.226,17,17.007,17
		s1.537-0.147,2.251-0.439c-1.004-0.769-1.782-1.796-2.251-2.969C16.538,14.765,15.76,15.793,14.756,16.561z M4.756,16.561
		C5.47,16.853,6.226,17,7.007,17c0.781,0,1.537-0.147,2.251-0.439c-1.005-0.768-1.782-1.796-2.251-2.968
		C6.538,14.765,5.76,15.793,4.756,16.561z M6.507,5.022c-3.105,0.255-5.5,2.832-5.5,5.978c0,2.054,1.025,3.927,2.749,5.041
		C5.457,14.943,6.507,13.026,6.507,11V5.022z M17.507,11c0,2.026,1.05,3.943,2.75,5.041c1.725-1.114,2.75-2.987,2.75-5.041
		c0-3.146-2.395-5.724-5.5-5.978V11z M7.507,11c0,2.026,1.05,3.943,2.75,5.041c0.4-0.259,0.769-0.566,1.1-0.915
		c-0.884-1.206-1.35-2.628-1.35-4.126c0-1.499,0.466-2.921,1.35-4.126c-1.024-1.081-2.376-1.731-3.85-1.852V11z M12.656,15.126
		c0.331,0.349,0.7,0.656,1.1,0.915c1.701-1.098,2.751-3.015,2.75-5.041V5.022c-1.474,0.121-2.827,0.771-3.851,1.852
		c0.884,1.205,1.351,2.627,1.351,4.126C14.007,12.498,13.541,13.92,12.656,15.126z M12.007,7.687c-0.655,0.984-1,2.122-1,3.313
		c0,1.191,0.345,2.33,1,3.313c0.655-0.984,1-2.122,1-3.313S12.662,8.671,12.007,7.687z"/>
</g>
</svg>
