<?xml version="1.0" encoding="utf-8"?>
<!-- Generator: Adobe Illustrator 22.1.0, SVG Export Plug-In . SVG Version: 6.00 Build 0)  -->
<svg version="1.1" id="Layer_1" xmlns="http://www.w3.org/2000/svg" xmlns:xlink="http://www.w3.org/1999/xlink" x="0px" y="0px"
	 viewBox="0 0 24 24" style="enable-background:new 0 0 24 24;" xml:space="preserve">
<g>
	<title>social-media-reddit</title>
	<path d="M11.897,19.265c-1.286,0-2.562-0.33-3.691-0.954c-0.117-0.064-0.202-0.171-0.239-0.299
		c-0.037-0.128-0.022-0.264,0.043-0.381c0.088-0.159,0.256-0.258,0.438-0.258c0.084,0,0.168,0.022,0.241,0.062
		c0.982,0.542,2.087,0.829,3.197,0.829l0.105-0.001l0.11,0.001c1.112,0,2.216-0.284,3.193-0.821c0.074-0.041,0.157-0.062,0.24-0.062
		c0.183,0,0.351,0.099,0.439,0.259c0.133,0.242,0.044,0.547-0.197,0.679c-1.125,0.618-2.399,0.944-3.685,0.944
		C12.091,19.264,11.897,19.265,11.897,19.265z"/>
	<path d="M15.999,15.5c-1.103,0-2-0.897-2-2s0.897-2,2-2s2,0.897,2,2S17.101,15.5,15.999,15.5z M15.999,12.5c-0.552,0-1,0.448-1,1
		s0.448,1,1,1s1-0.448,1-1S16.55,12.5,15.999,12.5z"/>
	<path d="M7.999,15.5c-1.103,0-2-0.897-2-2s0.897-2,2-2s2,0.897,2,2S9.102,15.5,7.999,15.5z M7.999,12.5c-0.551,0-1,0.448-1,1
		s0.449,1,1,1s1-0.448,1-1S8.55,12.5,7.999,12.5z"/>
	<path d="M11.999,22c-5.514,0-10-3.14-10-7c0-0.213,0.016-0.434,0.046-0.658c-0.769-0.258-1.4-0.811-1.751-1.546
		c-0.714-1.492-0.08-3.287,1.412-4.001C2.113,8.6,2.547,8.501,2.996,8.501c0.958,0,1.865,0.465,2.425,1.228
		c1.696-1.037,3.841-1.643,6.091-1.719c0.057-1.066,0.368-3.602,2.01-4.546c0.412-0.237,0.878-0.358,1.385-0.358
		c0.658,0,1.397,0.204,2.2,0.606C17.459,2.43,18.646,1.5,19.999,1.5c1.654,0,3,1.346,3,3s-1.346,3-3,3
		c-1.547,0-2.831-1.176-2.982-2.702C16.208,4.34,15.5,4.108,14.911,4.108c-0.333,0-0.632,0.075-0.89,0.224
		c-1.187,0.683-1.448,2.752-1.505,3.68c2.239,0.08,4.373,0.685,6.061,1.718c0.355-0.489,0.843-0.852,1.423-1.057
		C20.324,8.558,20.661,8.5,21,8.5c0.448,0,0.883,0.099,1.292,0.295c1.492,0.714,2.126,2.508,1.413,4.001
		c-0.352,0.735-0.983,1.289-1.752,1.546c0.031,0.225,0.046,0.445,0.046,0.658C21.999,18.86,17.513,22,11.999,22z M11.999,9
		c-4.963,0-9,2.692-9,6c0,3.308,4.037,6,9,6c4.963,0,9-2.692,9-6C20.999,11.692,16.961,9,11.999,9z M19.402,10.297
		c1.134,0.874,1.93,1.926,2.321,3.067c0.473-0.183,0.86-0.538,1.08-0.999c0.23-0.481,0.259-1.024,0.081-1.528
		c-0.178-0.504-0.541-0.909-1.022-1.139C21.588,9.566,21.298,9.5,21,9.5c-0.226,0-0.451,0.039-0.667,0.115
		C19.955,9.749,19.637,9.982,19.402,10.297z M2.996,9.502c-0.299,0-0.587,0.066-0.859,0.195c-0.995,0.476-1.417,1.672-0.942,2.667
		c0.22,0.461,0.606,0.816,1.079,0.999c0.391-1.14,1.187-2.193,2.32-3.066C4.221,9.802,3.626,9.502,2.996,9.502z M19.999,2.5
		c-1.103,0-2,0.897-2,2s0.897,2,2,2s2-0.897,2-2S21.101,2.5,19.999,2.5z"/>
</g>
</svg>
