<?xml version="1.0" encoding="utf-8"?>
<!-- Generator: Adobe Illustrator 22.1.0, SVG Export Plug-In . SVG Version: 6.00 Build 0)  -->
<svg version="1.1" id="Layer_1" xmlns="http://www.w3.org/2000/svg" xmlns:xlink="http://www.w3.org/1999/xlink" x="0px" y="0px"
	 viewBox="0 0 24 24" style="enable-background:new 0 0 24 24;" xml:space="preserve">
<g>
	<title>social-media-hyves</title>
	<path d="M6.082,23.994c-0.248,0-0.487-0.013-0.708-0.038c-1.54-0.175-2.386-0.992-2.261-2.187c0.079-0.764,0.891-1.148,1.59-1.396
		c0.079-0.029,0.169-0.049,0.255-0.067c0.017-0.004,0.04-0.009,0.063-0.014c0.012-0.146,0.012-0.503-0.096-1.328
		c-0.207-1.712-0.253-3.776-0.281-5.577c-0.012-0.907-0.041-1.704-0.068-2.475C4.538,9.913,4.502,8.894,4.502,7.67
		c0.047-0.515,0.033-1.008-0.04-1.484c-0.081-0.017-0.179-0.033-0.222-0.04C4.041,6.114,3.837,6.081,3.646,5.999
		C2.522,5.516,1.969,4.924,2.002,4.238c0.05-1.042,1.422-1.699,2.565-2.066c1.07-0.344,2.342-0.549,3.401-0.549
		c1.299,0,2.225,0.303,2.678,0.877c0.307,0.388,0.539,1.074-0.1,2.132c-0.285,0.471-0.875,0.611-1.349,0.724
		C9.059,5.391,8.79,5.455,8.671,5.512c-0.075,0.392-0.095,0.792-0.06,1.19c0.002,0.77-0.034,1.406-0.069,2.021
		C8.49,9.657,8.44,10.538,8.521,11.624c0.019,0.263,0.054,0.51,0.089,0.686l7.398-1.202c0.023-0.123,0.019-0.383-0.067-0.921
		c-0.017-0.103-0.031-0.197-0.041-0.277c-0.156-1.273-0.156-2.563,0-3.836l0.024-0.2c0.093-0.752,0.081-1.033,0.061-1.138
		c-0.061-0.017-0.176-0.041-0.39-0.077c-0.179-0.03-0.332-0.055-0.453-0.104c-1.949-0.815-1.902-1.797-1.701-2.31
		c0.522-1.332,3.291-2.26,5.448-2.26c0.682,0,1.273,0.09,1.757,0.268c1.206,0.442,1.654,1.41,1.229,2.655
		c-0.152,0.466-0.692,0.693-1.167,0.893c-0.144,0.061-0.44,0.185-0.501,0.243c-0.238,0.303-0.204,1.563-0.181,2.397
		c0.008,0.286,0.015,0.562,0.015,0.813v9.512c0,0.018-0.001,0.036-0.003,0.054c-0.046,0.437-0.036,0.877,0.031,1.311
		c0.065,0.002,0.13,0.002,0.169,0.003c0.206,0.002,0.399,0.003,0.569,0.058c1.598,0.514,1.642,1.336,1.526,1.78
		c-0.351,1.34-3.4,2.532-5.557,2.532h0c-0.348,0-0.671-0.03-0.96-0.088c-1.34-0.272-2.001-1.157-1.816-2.429
		c0.089-0.616,0.606-0.906,1.047-1.089c0.174-0.07,0.369-0.09,0.557-0.11c0.084-0.009,0.288-0.031,0.381-0.06
		c0.024-0.111,0.032-0.408-0.039-1.161c-0.022-0.233-0.042-0.453-0.049-0.646l0-0.116c0.008-1.071,0-1.603-0.01-1.866
		c-0.065-0.007-0.153-0.011-0.27-0.011c-1.676,0-6.161,0.964-6.88,1.462c-0.115,1.101-0.102,2.214,0.037,3.312
		c0.071,0.008,0.188,0.016,0.378,0.017c0.192,0.001,0.342,0.001,0.479,0.05c0.825,0.346,1.355,1.129,1.363,2.001
		c0,0.022-0.001,0.044-0.004,0.066C10.825,23.173,8.02,23.994,6.082,23.994z M7.96,2.628c-0.965,0-2.119,0.186-3.087,0.496
		C3.529,3.556,3.012,4.066,3.001,4.285C2.995,4.412,3.207,4.722,4.039,5.08c0.078,0.033,0.228,0.057,0.359,0.079
		C4.716,5.21,5.075,5.268,5.3,5.545c0.051,0.063,0.086,0.138,0.102,0.218c0.126,0.644,0.159,1.301,0.097,1.953
		c0.002,1.163,0.037,2.131,0.074,3.155c0.028,0.776,0.057,1.578,0.069,2.5c0.027,1.775,0.073,3.808,0.273,5.467
		c0.17,1.298,0.141,1.839-0.114,2.143c-0.16,0.199-0.418,0.255-0.626,0.299c-0.064,0.014-0.104,0.021-0.134,0.032
		c-0.901,0.321-0.935,0.55-0.936,0.56c-0.041,0.396,0.057,0.939,1.38,1.09c0.183,0.021,0.38,0.031,0.585,0.031
		c1.924,0,3.798-0.843,3.921-1.26c-0.02-0.438-0.283-0.83-0.68-1.016c-0.043,0-0.11,0-0.163-0.001
		c-0.393-0.002-0.986-0.005-1.262-0.442c-0.038-0.06-0.062-0.126-0.072-0.195c-0.189-1.317-0.207-2.654-0.054-3.975
		c0.009-0.078,0.036-0.153,0.079-0.218c0.66-0.998,5.932-1.866,7.534-1.929c0.102-0.004,0.195-0.006,0.279-0.006
		c0.607,0,0.913,0.089,1.092,0.318c0.124,0.173,0.168,0.234,0.151,2.542l-0.001,0.094c0.005,0.145,0.024,0.35,0.045,0.568
		c0.092,0.986,0.122,1.611-0.239,1.965c-0.263,0.265-0.668,0.308-0.993,0.343c-0.095,0.01-0.245,0.026-0.286,0.042
		c-0.371,0.155-0.426,0.249-0.434,0.306c-0.108,0.738,0.208,1.14,1.025,1.306c0.238,0.048,0.506,0.073,0.797,0.073
		c1.934,0,4.365-1.066,4.554-1.789c0.036-0.136-0.218-0.367-0.865-0.575c-0.038-0.008-0.194-0.01-0.27-0.01
		c-0.329-0.002-0.703-0.005-0.949-0.249c-0.069-0.068-0.116-0.154-0.136-0.249c-0.134-0.624-0.17-1.261-0.105-1.895V7.255
		c0-0.234-0.007-0.492-0.014-0.758l-0.001-0.029c-0.034-1.263-0.066-2.456,0.401-3.049c0.191-0.245,0.517-0.381,0.893-0.54
		c0.132-0.056,0.523-0.22,0.615-0.31c0.24-0.713,0.05-1.126-0.633-1.377c-0.369-0.135-0.832-0.204-1.375-0.204
		c-2.019,0-4.277,0.914-4.555,1.623c-0.168,0.43,0.836,0.889,1.148,1.019c0.026,0.007,0.17,0.031,0.239,0.043
		c0.426,0.071,0.744,0.137,0.95,0.348c0.37,0.384,0.316,1.09,0.208,1.974l-0.023,0.197c-0.147,1.194-0.147,2.404-0.001,3.596
		c0.009,0.067,0.021,0.146,0.035,0.233c0.101,0.628,0.238,1.479-0.301,1.929c-0.069,0.058-0.153,0.096-0.241,0.11l-7.999,1.3
		c-0.028,0.004-0.054,0.006-0.08,0.006c-0.078,0-0.153-0.018-0.223-0.052c-0.24-0.12-0.474-0.398-0.56-1.618
		c-0.086-1.149-0.035-2.062,0.02-3.028c0.034-0.605,0.069-1.227,0.069-1.923C7.566,6.234,7.604,5.69,7.725,5.151
		c0.012-0.055,0.033-0.106,0.062-0.153c0.24-0.39,0.718-0.504,1.18-0.614c0.23-0.055,0.657-0.157,0.725-0.269
		c0.275-0.456,0.333-0.791,0.171-0.995C9.615,2.807,8.922,2.628,7.96,2.628z"/>
</g>
</svg>
