<svg xmlns="http://www.w3.org/2000/svg" viewBox="0 0 24 24"><title>social-media-meetup-alternate</title><path d="M20.642,9.515a2.735,2.735,0,0,0-1.418-1.429,4.485,4.485,0,0,0-.989-2.854A4.637,4.637,0,0,0,13.27,3.72a4.971,4.971,0,0,0-3.412-.638A4.975,4.975,0,0,0,6,6.064a3.279,3.279,0,0,0-.982.354,3.6,3.6,0,0,0-1.494,4.735,3.728,3.728,0,0,0-.726,3.93A3.641,3.641,0,0,0,5.387,17.4a4.831,4.831,0,0,0,.116.624,4.091,4.091,0,0,0,3.943,2.994,4.025,4.025,0,0,0,1.427-.26,3.927,3.927,0,0,0,.791-.4,3.158,3.158,0,0,0,4.771-1.484l.128-.007a4.372,4.372,0,0,0,4.071-3.994,4.427,4.427,0,0,0-.467-2.42,2.854,2.854,0,0,0,.444-.68A2.73,2.73,0,0,0,20.642,9.515ZM6.349,17.027a.588.588,0,0,0-.55-.557,2.646,2.646,0,0,1-2.065-1.732,2.749,2.749,0,0,1,.672-3.073.632.632,0,0,0,.1-.791,2.6,2.6,0,0,1,1-3.583A2.288,2.288,0,0,1,6.28,7.03a.71.71,0,0,0,.577-.442,4.124,4.124,0,0,1,6-1.951.71.71,0,0,0,.627.066,3.615,3.615,0,0,1,3.969,1.151,3.5,3.5,0,0,1,.768,2.432.622.622,0,0,0,.456.661,1.759,1.759,0,0,1,.61,2.971.592.592,0,0,0-.123.786A3.413,3.413,0,0,1,16.5,17.868c-.106.007-.211.01-.32.008a.593.593,0,0,0-.62.458,2.136,2.136,0,0,1-.508.909,2.1,2.1,0,0,1-1.291.664,2.166,2.166,0,0,1-1.685-.487.956.956,0,0,0-.252-.153.5.5,0,0,0-.494.092,2.69,2.69,0,0,1-.811.462A3.089,3.089,0,0,1,6.468,17.76a4.6,4.6,0,0,1-.1-.608Z"/><path d="M18.161,19.53h0a1.5,1.5,0,0,0-1.5,1.5,1.5,1.5,0,0,0,1.5,1.5h.006a1.483,1.483,0,0,0,1.49-1.5A1.5,1.5,0,0,0,18.161,19.53Zm.006,2h0a.5.5,0,0,1-.36-.148.49.49,0,0,1-.145-.351.5.5,0,0,1,.5-.5.5.5,0,0,1,.005,1Z"/><path d="M1.26,9.567h0a1.249,1.249,0,0,0-.008,2.5h.008a1.249,1.249,0,1,0,0-2.5Zm.176,1.424a.253.253,0,0,1-.179.073.226.226,0,0,1-.249-.251.242.242,0,0,1,.25-.246h0a.249.249,0,0,1,.177.424Z"/><path d="M13.456,3.168h.006a1.25,1.25,0,0,0-.01-2.5h-.008a1.25,1.25,0,0,0,.012,2.5Zm-.006-1.5a.31.31,0,0,1,.183.074.249.249,0,0,1-.176.425c-.165.031-.251-.106-.251-.244A.247.247,0,0,1,13.45,1.669Z"/><path d="M20.679,8.077h0a1.25,1.25,0,1,0,0-2.5h0a1.25,1.25,0,0,0,0,2.5ZM20.5,6.648a.248.248,0,0,1,.175-.071h0a.25.25,0,1,1,0,.5h0A.249.249,0,0,1,20.5,7a.247.247,0,0,1-.073-.176A.252.252,0,0,1,20.5,6.648Z"/><path d="M4.975,5.666h.007a1.006,1.006,0,0,0,.7-.294,1,1,0,1,0-1.7-.713A1,1,0,0,0,4.975,5.666Z"/><path d="M12.075,21.419a1,1,0,0,0-.992,1,1,1,0,0,0,1,1.005h0a.988.988,0,0,0,.706-.292,1.006,1.006,0,0,0,0-1.421A1.151,1.151,0,0,0,12.075,21.419Z"/><path d="M22.3,11.915a1.02,1.02,0,0,0-1,.993,1.008,1.008,0,0,0,.3.717.983.983,0,0,0,.7.29h.015a1,1,0,0,0-.011-2Z"/><path d="M7.5,2.075h0a.752.752,0,0,0,.745-.752A.748.748,0,0,0,7.5.58.612.612,0,0,0,6.959.8a.738.738,0,0,0-.215.528A.75.75,0,0,0,7.5,2.075Z"/><path d="M4.042,19.53h0a.75.75,0,0,0,.745-.752.746.746,0,0,0-.749-.743.609.609,0,0,0-.535.222.739.739,0,0,0-.216.528A.751.751,0,0,0,4.042,19.53Z"/><path d="M23.246,10.566h0a.751.751,0,0,0,.745-.752.749.749,0,0,0-.749-.743.612.612,0,0,0-.536.222.742.742,0,0,0-.215.528A.75.75,0,0,0,23.246,10.566Z"/><path d="M16.456,14.519a1.567,1.567,0,0,0-.243-.069l-.292-.051c-.131-.021-.263-.043-.394-.069a.66.66,0,0,1-.172-.054h0a.459.459,0,0,1-.006-.161,2.73,2.73,0,0,1,.138-.69c.144-.4.306-.795.469-1.189l.419-1.023c.169-.409.338-.818.5-1.233a2.1,2.1,0,0,0,.12-1.234,1.667,1.667,0,0,0-1.062-1.331,2.362,2.362,0,0,0-1.941.087l-.041-.038a3.441,3.441,0,0,0-.309-.269,1.394,1.394,0,0,0-.5-.252,1.631,1.631,0,0,0-1.51.337l-.118.1c-.052.048-.1.095-.161.139-.088.07-.177.141-.241.186l-.853-.4a1.778,1.778,0,0,0-1.071-.158A2.353,2.353,0,0,0,7.4,8.4a8.017,8.017,0,0,0-.488,1.187q-.659,2.035-1.283,4.082A1.864,1.864,0,0,0,6.1,15.606a2.078,2.078,0,0,0,1.633.588,1.645,1.645,0,0,0,1.421-.919,2.792,2.792,0,0,0,.148-.307l.072-.181a1.905,1.905,0,0,0,.821.452,1.692,1.692,0,0,0,1.543-.382,2.693,2.693,0,0,0,.588.914,3.645,3.645,0,0,0,2.619,1.057,3.83,3.83,0,0,0,1.626-.358l.014-.008a1.058,1.058,0,0,0-.133-1.943Zm-.317,1.051a2.8,2.8,0,0,1-3.089-.493,1.628,1.628,0,0,1-.2-2.04c.515-1.048,1.14-2.475,1.14-2.475a.5.5,0,0,0-.244-.652.5.5,0,0,0-.659.224c-.458.895-1.689,3.569-1.724,3.649,0,.006-.359.635-.909.488A.88.88,0,0,1,9.9,13.85a.4.4,0,0,1-.048-.24c.078-.189.156-.382.235-.573.043-.1.09-.211.152-.37l.022-.055c.392-.956.729-1.774.73-1.774a.5.5,0,0,0-.924-.384s-.492,1.171-.735,1.786c-.054.134-.11.27-.166.406l-.039.089c-.053.12-.108.243-.186.44-.017.042-.031.085-.044.128-.2.489-.385.949-.524,1.3a1.571,1.571,0,0,1-.094.194.658.658,0,0,1-.589.4,1.073,1.073,0,0,1-.881-.3.862.862,0,0,1-.227-.943q.622-2.038,1.278-4.066a6.986,6.986,0,0,1,.428-1.04,1.352,1.352,0,0,1,1.06-.713.774.774,0,0,1,.476.076l.843.4a.937.937,0,0,0,.91-.026,3.344,3.344,0,0,0,.387-.276c.072-.057.14-.117.208-.178l.1-.09a.635.635,0,0,1,.62-.125A.471.471,0,0,1,13.039,8a2.534,2.534,0,0,1,.22.2l.115.106a.809.809,0,0,0,1.038.113A1.347,1.347,0,0,1,15.6,8.359c.151.052.317.165.415.605a1.122,1.122,0,0,1-.079.661c-.154.4-.32.806-.485,1.207l-.42,1.023c-.168.408-.336.816-.486,1.231a3.682,3.682,0,0,0-.192.943,1.1,1.1,0,0,0,.976,1.281c.143.028.286.052.43.076l.274.047c.032.006.064.019.139.114A.143.143,0,0,1,16.139,15.57Z"/></svg>