<?xml version="1.0" encoding="utf-8"?>
<!-- Generator: Adobe Illustrator 22.1.0, SVG Export Plug-In . SVG Version: 6.00 Build 0)  -->
<svg version="1.1" id="Layer_1" xmlns="http://www.w3.org/2000/svg" xmlns:xlink="http://www.w3.org/1999/xlink" x="0px" y="0px"
	 viewBox="0 0 24 24" style="enable-background:new 0 0 24 24;" xml:space="preserve">
<g>
	<title>social-media-yelp</title>
	<path d="M11.837,12.283c-0.139,0-0.272-0.058-0.367-0.16L3.672,3.716c-0.116-0.124-0.16-0.297-0.118-0.462
		C3.595,3.09,3.715,2.958,3.876,2.903l8.384-2.876C12.312,0.009,12.367,0,12.422,0c0.108,0,0.215,0.036,0.301,0.101
		c0.132,0.1,0.207,0.259,0.198,0.425l-0.585,11.283c-0.01,0.201-0.139,0.375-0.329,0.444C11.953,12.273,11.895,12.283,11.837,12.283
		z M11.399,10.576l0.485-9.362L4.928,3.6L11.399,10.576z"/>
	<path d="M14.326,13.54c-0.173,0-0.331-0.087-0.423-0.234c-0.104-0.165-0.102-0.377,0.005-0.541l4.064-6.195
		c0.094-0.144,0.242-0.226,0.405-0.226c0.006,0,0.031,0.001,0.037,0.001c0.16,0.003,0.317,0.094,0.406,0.244l3.113,5.236
		c0.086,0.145,0.094,0.322,0.02,0.474c-0.073,0.152-0.217,0.256-0.384,0.278l-7.177,0.959C14.37,13.539,14.348,13.54,14.326,13.54z
		 M15.344,12.4l5.342-0.714l-2.317-3.897L15.344,12.4z"/>
	<path d="M16.776,22.778c-0.035,0-0.07-0.004-0.104-0.011c-0.165-0.035-0.3-0.149-0.362-0.306l-2.655-6.736
		c-0.072-0.182-0.03-0.39,0.106-0.53c0.093-0.097,0.224-0.153,0.36-0.153c0.056,0,0.112,0.01,0.165,0.028l6.991,2.458
		c0.164,0.057,0.284,0.193,0.322,0.362c0.038,0.17-0.013,0.344-0.137,0.466l-4.336,4.278C17.033,22.727,16.909,22.778,16.776,22.778
		z M16.964,21.391l3.228-3.184l-5.204-1.83L16.964,21.391z"/>
	<path d="M12.575,23.976c-0.063,0-0.124-0.011-0.182-0.034l-5.675-2.219c-0.157-0.062-0.271-0.197-0.307-0.361
		c-0.035-0.166,0.014-0.335,0.132-0.456l5.071-5.168c0.094-0.095,0.224-0.15,0.357-0.15c0.058,0,0.114,0.01,0.169,0.029
		c0.185,0.066,0.313,0.235,0.329,0.43l0.604,7.387c0.014,0.174-0.061,0.339-0.2,0.442C12.788,23.941,12.682,23.976,12.575,23.976z
		 M12.012,22.719l-0.45-5.499l-3.775,3.847L12.012,22.719z"/>
	<path d="M4.096,18.407c-0.085,0-0.17-0.022-0.245-0.064c-0.152-0.085-0.247-0.24-0.255-0.413l-0.283-6.086
		c-0.008-0.168,0.069-0.328,0.205-0.427c0.086-0.063,0.188-0.096,0.294-0.096c0.06,0,0.119,0.011,0.176,0.032l6.783,2.527
		c0.183,0.068,0.31,0.238,0.324,0.433c0.014,0.195-0.088,0.381-0.259,0.475l-6.501,3.558C4.263,18.386,4.18,18.407,4.096,18.407z
		 M4.558,17.084l4.839-2.649l-5.05-1.882L4.558,17.084z"/>
</g>
</svg>
