<?xml version="1.0" encoding="utf-8"?>
<!-- Generator: Adobe Illustrator 22.1.0, SVG Export Plug-In . SVG Version: 6.00 Build 0)  -->
<svg version="1.1" id="Layer_1" xmlns="http://www.w3.org/2000/svg" xmlns:xlink="http://www.w3.org/1999/xlink" x="0px" y="0px"
	 viewBox="0 0 24 24" style="enable-background:new 0 0 24 24;" xml:space="preserve">
<g>
	<title>social-media-irc-galleria</title>
	<circle cx="6.98" cy="11.725" r="1"/>
	<path d="M17.719,16.238c-0.215,0-0.432-0.022-0.644-0.065l-0.042-0.01c-0.199-0.049-0.797-0.197-0.797-0.78
		c0.014-0.445,0.009-0.888-0.015-1.323c-0.399,0.111-0.775,0.167-1.119,0.167c-1.212,0-1.853-0.679-2.177-1.248
		c-0.017-0.029-0.03-0.059-0.04-0.091c-0.15-0.337-0.058-0.673,0.253-0.925c0.292-0.236,0.614-0.582,0.955-0.949
		c0.31-0.333,0.659-0.709,1.047-1.069c0.586-0.556,1.355-0.906,2.164-0.982c0.119-0.013,0.244-0.02,0.368-0.02
		c1.414,0,2.709,0.887,3.223,2.206c0.482,1.456,0.135,3.037-0.902,4.139C19.378,15.903,18.573,16.238,17.719,16.238z M17.294,15.197
		c0.135,0.028,0.281,0.042,0.427,0.042c0.576,0,1.143-0.236,1.554-0.647c0.776-0.825,1.038-2.017,0.679-3.105
		c-0.358-0.919-1.278-1.544-2.284-1.544c-0.088,0-0.177,0.005-0.265,0.014c-0.593,0.056-1.153,0.31-1.58,0.716
		c-0.364,0.339-0.686,0.684-0.997,1.019c-0.324,0.348-0.631,0.678-0.937,0.944c0.282,0.4,0.677,0.595,1.203,0.595
		c0.317,0,0.688-0.071,1.104-0.21c0.092-0.043,0.194-0.066,0.297-0.066c0.058,0,0.116,0.007,0.172,0.021
		c0.183,0.046,0.335,0.16,0.43,0.321c0.047,0.079,0.078,0.166,0.091,0.259c0.045,0.55,0.063,1.093,0.053,1.627
		C17.249,15.186,17.294,15.197,17.294,15.197z"/>
	<path d="M6.154,16.353c-0.847,0-1.646-0.329-2.252-0.927c-1.043-1.113-1.395-2.692-0.924-4.127
		c0.527-1.348,1.836-2.245,3.263-2.245c0.112,0,0.224,0.005,0.337,0.016c0.807,0.076,1.577,0.427,2.165,0.986
		c0.38,0.355,0.726,0.728,1.031,1.056c0.334,0.36,0.648,0.698,0.935,0.936c0.022,0.014,0.043,0.028,0.063,0.044
		c0.32,0.25,0.386,0.704,0.15,1.033c-0.715,1.245-2.294,1.675-3.668,1.795c0.021,0.018,0.04,0.034,0.055,0.047
		c0.045,0.039,0.084,0.072,0.114,0.1c0.264,0.241,0.279,0.479,0.245,0.635c-0.075,0.345-0.403,0.452-0.527,0.492
		C6.821,16.301,6.489,16.353,6.154,16.353z M6.241,10.055c-1.019,0-1.952,0.636-2.322,1.583c-0.349,1.066-0.083,2.256,0.699,3.091
		c0.406,0.4,0.953,0.624,1.535,0.624c0.034,0,0.068-0.001,0.101-0.002c-0.137-0.148-0.25-0.306-0.307-0.475
		c-0.036-0.12-0.125-0.416,0.065-0.671c0.11-0.148,0.283-0.235,0.486-0.244c1.243-0.025,2.81-0.259,3.485-1.217
		c-0.31-0.27-0.618-0.602-0.941-0.95c-0.31-0.334-0.628-0.677-0.984-1.009c-0.43-0.408-0.989-0.663-1.576-0.718
		C6.402,10.059,6.321,10.055,6.241,10.055z"/>
	<circle cx="16.889" cy="11.608" r="1"/>
	<path d="M17.341,18.461c-2.126,0-4.149-1.075-5.724-3.034c-1.65,1.727-3.939,2.785-6.326,2.914c-0.001,0-0.001,0-0.002,0
		c-1.84,0-3.224-0.498-4.13-1.481c-1.163-1.26-1.213-2.974-1.139-3.883c0.27-3.275,2.481-5.443,6.065-5.948
		c0.204-0.018,0.397-0.026,0.586-0.026c2.156,0,4.125,1.042,5.708,3.018c1.646-1.724,3.929-2.781,6.31-2.913
		c0.001,0,0.001,0,0.002,0c1.847,0,3.235,0.5,4.144,1.487c1.164,1.263,1.213,2.972,1.139,3.878c-0.285,3.286-2.495,5.46-6.064,5.964
		C17.712,18.453,17.525,18.461,17.341,18.461L17.341,18.461z M11.649,14.141c0.161,0,0.313,0.078,0.406,0.209
		c1.434,2.007,3.311,3.112,5.285,3.112c0.152,0,0.306-0.007,0.459-0.019c3.09-0.438,4.934-2.234,5.179-5.055
		c0.061-0.741,0.028-2.133-0.878-3.116c-0.712-0.773-1.85-1.165-3.383-1.165c-2.305,0.128-4.492,1.229-5.985,3.02
		c-0.094,0.114-0.233,0.18-0.38,0.18c-0.004,0-0.022,0-0.026-0.001c-0.15-0.006-0.295-0.084-0.385-0.209
		c-1.426-1.997-3.296-3.096-5.264-3.096c-0.158,0-0.319,0.007-0.478,0.021c-4.195,0.593-5.048,3.41-5.182,5.037
		c-0.06,0.746-0.026,2.144,0.878,3.124c0.709,0.769,1.843,1.159,3.37,1.159c2.308-0.125,4.498-1.224,5.995-3.014
		c0.056-0.073,0.14-0.132,0.237-0.163C11.546,14.149,11.597,14.141,11.649,14.141z"/>
</g>
</svg>
