<?xml version="1.0" encoding="utf-8"?>
<!-- Generator: Adobe Illustrator 22.1.0, SVG Export Plug-In . SVG Version: 6.00 Build 0)  -->
<svg version="1.1" id="Layer_1" xmlns="http://www.w3.org/2000/svg" xmlns:xlink="http://www.w3.org/1999/xlink" x="0px" y="0px"
	 viewBox="0 0 24 24" style="enable-background:new 0 0 24 24;" xml:space="preserve">
<g>
	<title>social-media-plurk</title>
	<path d="M1.5,24C1.224,24,1,23.776,1,23.5v-23C1,0.224,1.224,0,1.5,0h20C21.776,0,22,0.224,22,0.5v17c0,0.276-0.224,0.5-0.5,0.5H8
		v5.5C8,23.776,7.776,24,7.5,24H1.5z M7,23v-5.5C7,17.224,7.224,17,7.5,17H21V1H2v22H7z"/>
	<path d="M7.5,12C7.224,12,7,11.776,7,11.5v-5C7,6.224,7.224,6,7.5,6h8C15.776,6,16,6.224,16,6.5v5c0,0.276-0.224,0.5-0.5,0.5H7.5z
		 M15,11V7H8v4H15z"/>
</g>
</svg>
