<?xml version="1.0" encoding="utf-8"?>
<!-- Generator: Adobe Illustrator 22.1.0, SVG Export Plug-In . SVG Version: 6.00 Build 0)  -->
<svg version="1.1" id="Layer_1" xmlns="http://www.w3.org/2000/svg" xmlns:xlink="http://www.w3.org/1999/xlink" x="0px" y="0px"
	 viewBox="0 0 24 24" style="enable-background:new 0 0 24 24;" xml:space="preserve">
<g>
	<title>social-media-food-spotting</title>
	<path d="M10.5,14C9.121,14,8,12.878,8,11.5v-6C8,4.121,9.121,3,10.5,3h1.691l0.862-1.724C13.138,1.106,13.31,1,13.5,1h3
		c0.19,0,0.362,0.106,0.447,0.276L17.809,3H19.5C20.878,3,22,4.121,22,5.5v6c0,1.378-1.122,2.5-2.5,2.5H10.5z M10.5,4
		C9.673,4,9,4.673,9,5.5v6c0,0.827,0.673,1.5,1.5,1.5h9c0.827,0,1.5-0.673,1.5-1.5v-6C21,4.673,20.327,4,19.5,4h-2
		c-0.19,0-0.362-0.106-0.447-0.276L16.191,2h-2.382l-0.862,1.724C12.862,3.894,12.69,4,12.5,4H10.5z"/>
	<path d="M15,12c-1.93,0-3.5-1.57-3.5-3.5S13.07,5,15,5s3.5,1.57,3.5,3.5S16.93,12,15,12z M15,6c-1.378,0-2.5,1.121-2.5,2.5
		S13.622,11,15,11s2.5-1.121,2.5-2.5S16.378,6,15,6z"/>
	<path d="M15,10c-0.827,0-1.5-0.673-1.5-1.5S14.173,7,15,7s1.5,0.673,1.5,1.5S15.827,10,15,10z M15,8c-0.276,0-0.5,0.224-0.5,0.5
		S14.724,9,15,9s0.5-0.224,0.5-0.5S15.276,8,15,8z"/>
	<path d="M2.5,14C2.224,14,2,13.776,2,13.5v-10C2,3.224,2.224,3,2.5,3h3C5.776,3,6,3.224,6,3.5v10C6,13.776,5.776,14,5.5,14H2.5z
		 M5,13V4H3v9H5z"/>
	<path d="M3.5,23C3.224,23,3,22.776,3,22.5v-6C3,16.224,3.224,16,3.5,16h2.609c0.276,0,0.5,0.224,0.5,0.5S6.385,17,6.109,17H4v2
		h1.398c0.276,0,0.5,0.224,0.5,0.5S5.674,20,5.398,20H4v2.5C4,22.776,3.776,23,3.5,23z"/>
	<path d="M19.5,23c-0.16,0-0.303-0.076-0.395-0.194C18.829,22.961,18.542,23,18.324,23c-0.503,0-1.673-0.222-1.673-2.277
		c0-2.056,1.17-2.278,1.673-2.278c0.191,0,0.433,0.03,0.676,0.141V16.5c0-0.276,0.224-0.5,0.5-0.5s0.5,0.224,0.5,0.5v6
		C20,22.776,19.776,23,19.5,23z M18.324,19.445c-0.184,0-0.673,0-0.673,1.278C17.651,22,18.14,22,18.324,22
		C18.509,22,19,22,19,20.723C19,19.445,18.509,19.445,18.324,19.445z"/>
	<path d="M9.144,23c-0.503,0-1.673-0.222-1.673-2.277c0-1.982,1.048-2.278,1.673-2.278c0.503,0,1.674,0.222,1.674,2.278
		C10.818,22.778,9.647,23,9.144,23z M9.144,19.445c-0.184,0-0.673,0-0.673,1.278C8.471,22,8.96,22,9.144,22
		c0.184,0,0.674,0,0.674-1.277C9.818,19.445,9.328,19.445,9.144,19.445z"/>
	<path d="M13.986,23c-0.504,0-1.676-0.222-1.676-2.277c0-2.056,1.172-2.278,1.676-2.278c0.503,0,1.674,0.222,1.674,2.278
		C15.66,22.778,14.489,23,13.986,23z M13.986,19.445c-0.185,0-0.676,0-0.676,1.278C13.31,22,13.801,22,13.986,22
		c0.184,0,0.674,0,0.674-1.277C14.66,19.445,14.17,19.445,13.986,19.445z"/>
</g>
</svg>
