<?xml version="1.0" encoding="utf-8"?>
<!-- Generator: Adobe Illustrator 22.1.0, SVG Export Plug-In . SVG Version: 6.00 Build 0)  -->
<svg version="1.1" id="Layer_1" xmlns="http://www.w3.org/2000/svg" xmlns:xlink="http://www.w3.org/1999/xlink" x="0px" y="0px"
	 viewBox="0 0 24 24" style="enable-background:new 0 0 24 24;" xml:space="preserve">
<g>
	<title>social-media-retweet</title>
	<path d="M5.078,19c-1.571,0-2.893-1.179-3.074-2.743C2.001,16.239,2,16.219,2,16.2V10H0.5c-0.197,0-0.376-0.116-0.456-0.295
		c-0.08-0.179-0.048-0.39,0.082-0.537l4-4.5C4.219,4.564,4.355,4.504,4.5,4.504s0.281,0.06,0.374,0.164l4,4.5
		c0.131,0.147,0.163,0.358,0.082,0.537C8.876,9.884,8.697,10,8.5,10H7v5h5.5c0.134,0,0.259,0.052,0.354,0.146l3,3
		c0.144,0.144,0.186,0.358,0.108,0.545C15.884,18.879,15.703,19,15.5,19L5.078,19z M3,16.17C3.135,17.215,4.03,18,5.087,18l9.206,0
		l-2-2H6.5C6.224,16,6,15.776,6,15.5v-6C6,9.224,6.224,9,6.5,9h0.886L4.5,5.753L1.613,9H2.5C2.776,9,3,9.224,3,9.5V16.17z"/>
	<path d="M19.5,18.5c-0.143,0-0.279-0.061-0.374-0.168l-4-4.5c-0.131-0.147-0.163-0.357-0.083-0.537
		C15.124,13.116,15.303,13,15.5,13H17V8h-5.506c-0.134,0-0.259-0.052-0.354-0.147l-2.994-3C8.003,4.71,7.96,4.496,8.038,4.309
		C8.116,4.121,8.297,4,8.5,4h10.38c1.652,0.084,2.958,1.325,3.118,2.951L22,13h1.5c0.197,0,0.376,0.116,0.456,0.295
		c0.081,0.179,0.048,0.39-0.083,0.537l-4,4.5C19.779,18.439,19.643,18.5,19.5,18.5z M19.5,17.248L22.387,14H21.5
		c-0.276,0-0.5-0.224-0.5-0.5V7c-0.11-1.091-1.012-1.943-2.146-2.001L9.705,5l1.996,2H17.5C17.776,7,18,7.224,18,7.5v6
		c0,0.276-0.224,0.5-0.5,0.5h-0.887L19.5,17.248z"/>
</g>
</svg>
