<?xml version="1.0" encoding="utf-8"?>
<!-- Generator: Adobe Illustrator 22.1.0, SVG Export Plug-In . SVG Version: 6.00 Build 0)  -->
<svg version="1.1" id="Layer_1" xmlns="http://www.w3.org/2000/svg" xmlns:xlink="http://www.w3.org/1999/xlink" x="0px" y="0px"
	 viewBox="0 0 24 24" style="enable-background:new 0 0 24 24;" xml:space="preserve">
<g>
	<title>social-media-snapchat</title>
	<path d="M11.999,23.5c-0.022,0-0.044-0.001-0.066-0.004c-1.281-0.172-2.446-0.811-3.28-1.799c-0.414-0.414-1.016-0.661-1.636-0.661
		c-0.128,0-0.256,0.01-0.382,0.031l-0.629,0.101c-0.095,0.016-0.193,0.024-0.291,0.024c-0.145,0-0.29-0.018-0.432-0.054
		c-0.461-0.115-0.85-0.403-1.096-0.811c-0.245-0.408-0.317-0.887-0.201-1.349c0.042-0.169-0.055-0.338-0.222-0.386l-1.931-0.391
		c-0.414-0.116-0.722-0.379-0.885-0.744c-0.145-0.323-0.155-0.684-0.029-1.016c0.127-0.331,0.375-0.594,0.698-0.739
		c0.936-0.433,1.832-0.97,2.66-1.596c0.079-0.06,0.146-0.133,0.199-0.217c0.247-0.388,0.131-0.905-0.257-1.152l-1.206-0.765
		c-0.414-0.262-0.7-0.67-0.807-1.148C2.102,10.347,2.188,9.857,2.45,9.443c0.262-0.413,0.67-0.7,1.148-0.807
		c0.132-0.03,0.268-0.045,0.403-0.045c0.346,0,0.684,0.099,0.979,0.286l0.519,0.329V7c0-3.584,2.916-6.5,6.5-6.5
		c3.584,0,6.5,2.916,6.5,6.5v2.207l0.52-0.329c0.294-0.187,0.633-0.286,0.979-0.286c0.135,0,0.27,0.015,0.403,0.045
		c0.478,0.107,0.885,0.393,1.148,0.807c0.542,0.853,0.288,1.988-0.565,2.53l-1.207,0.765c-0.083,0.053-0.156,0.121-0.217,0.2
		c-0.135,0.177-0.192,0.397-0.162,0.617s0.145,0.416,0.322,0.551c0.828,0.625,1.724,1.164,2.665,1.599
		c0.354,0.158,0.621,0.467,0.729,0.845c0.201,0.704-0.208,1.441-0.913,1.642c-0.007,0.002-0.033,0.008-0.04,0.01l-1.966,0.4
		c-0.135,0.04-0.226,0.211-0.185,0.377c0.059,0.237,0.068,0.479,0.028,0.718c-0.143,0.864-0.882,1.491-1.756,1.491c0,0,0,0,0,0
		c-0.098,0-0.197-0.008-0.294-0.024l-0.623-0.099c-0.127-0.021-0.256-0.031-0.383-0.031c-0.622,0-1.229,0.251-1.665,0.69
		c-0.809,0.964-1.969,1.599-3.251,1.773C12.044,23.499,12.022,23.5,11.999,23.5z M7.017,20.036c0.885,0,1.75,0.359,2.373,0.986
		c0.681,0.804,1.602,1.321,2.609,1.473c1.009-0.153,1.925-0.666,2.582-1.447c0.655-0.66,1.503-1.016,2.401-1.016
		c0.182,0,0.365,0.015,0.544,0.045l0.623,0.099c0.045,0.007,0.089,0.011,0.131,0.011c0.384,0,0.708-0.275,0.771-0.654
		c0.017-0.105,0.013-0.211-0.012-0.313c-0.174-0.693,0.229-1.392,0.918-1.589l1.996-0.408c0.148-0.046,0.248-0.227,0.198-0.398
		c-0.027-0.094-0.093-0.17-0.181-0.209c-1.01-0.467-1.969-1.043-2.854-1.712c-0.391-0.297-0.643-0.727-0.709-1.212
		c-0.067-0.485,0.06-0.967,0.356-1.358c0.133-0.175,0.294-0.323,0.478-0.44l1.207-0.765c0.387-0.246,0.502-0.762,0.256-1.15
		c-0.119-0.188-0.304-0.318-0.521-0.367c-0.061-0.013-0.123-0.02-0.184-0.02c-0.156,0-0.31,0.045-0.444,0.13l-1.288,0.816
		c-0.081,0.051-0.173,0.078-0.268,0.078c-0.084,0-0.167-0.021-0.241-0.062c-0.16-0.088-0.259-0.256-0.259-0.438V7
		c0-3.033-2.467-5.5-5.5-5.5s-5.5,2.467-5.5,5.5v3.116c0,0.182-0.099,0.35-0.259,0.438c-0.074,0.041-0.157,0.062-0.241,0.062
		c-0.095,0-0.187-0.027-0.267-0.078L4.444,9.722C4.31,9.637,4.157,9.592,4,9.592c-0.061,0-0.123,0.007-0.184,0.02
		C3.599,9.661,3.414,9.791,3.294,9.979c-0.119,0.188-0.158,0.411-0.11,0.628c0.049,0.217,0.179,0.403,0.367,0.522l1.206,0.765
		c0.854,0.542,1.107,1.678,0.565,2.531c-0.117,0.185-0.265,0.345-0.44,0.478c-0.886,0.67-1.845,1.245-2.849,1.709
		c-0.086,0.039-0.146,0.102-0.178,0.185c-0.031,0.082-0.029,0.171,0.007,0.251c0.04,0.088,0.116,0.155,0.209,0.181l1.932,0.391
		c0.719,0.204,1.13,0.904,0.955,1.6c-0.05,0.202-0.019,0.412,0.089,0.591c0.107,0.179,0.278,0.305,0.481,0.356
		c0.062,0.016,0.126,0.024,0.189,0.024c0.043,0,0.086-0.004,0.13-0.011l0.629-0.101C6.653,20.051,6.836,20.036,7.017,20.036z"/>
</g>
</svg>
