<?xml version="1.0" encoding="utf-8"?>
<!-- Generator: Adobe Illustrator 22.1.0, SVG Export Plug-In . SVG Version: 6.00 Build 0)  -->
<svg version="1.1" id="Layer_1" xmlns="http://www.w3.org/2000/svg" xmlns:xlink="http://www.w3.org/1999/xlink" x="0px" y="0px"
	 viewBox="0 0 24 24" style="enable-background:new 0 0 24 24;" xml:space="preserve">
<g>
	<title>social-media-xing</title>
	<path d="M0.503,17c-0.18,0-0.348-0.098-0.436-0.255c-0.089-0.157-0.085-0.351,0.009-0.505l3.84-6.301L1.062,4.741
		C0.978,4.587,0.981,4.397,1.071,4.245C1.16,4.094,1.325,4,1.501,4h5.066c0.183,0,0.351,0.099,0.438,0.26l2.993,5.452
		c0.086,0.156,0.082,0.348-0.011,0.501L5.996,16.76C5.905,16.908,5.742,17,5.569,17H0.503z M5.288,16l3.694-6.061L6.271,5H2.346
		l2.586,4.711c0.086,0.156,0.082,0.348-0.011,0.501L1.393,16H5.288z"/>
	<path d="M15.29,24c-0.179,0-0.346-0.097-0.434-0.253L9.71,14.73c-0.087-0.153-0.087-0.343,0-0.496l7.984-13.983
		C17.783,0.097,17.949,0,18.129,0h5.374c0.177,0,0.343,0.095,0.432,0.249c0.089,0.154,0.09,0.345,0.002,0.5l-7.842,13.735
		l5.003,8.77c0.088,0.154,0.088,0.345-0.002,0.499C21.007,23.905,20.841,24,20.664,24H15.29z M19.803,23l-4.718-8.27
		c-0.087-0.152-0.088-0.343,0-0.496L22.641,1h-4.223L10.72,14.483L15.58,23H19.803z"/>
</g>
</svg>
