<?xml version="1.0" encoding="utf-8"?>
<!-- Generator: Adobe Illustrator 22.1.0, SVG Export Plug-In . SVG Version: 6.00 Build 0)  -->
<svg version="1.1" id="Layer_1" xmlns="http://www.w3.org/2000/svg" xmlns:xlink="http://www.w3.org/1999/xlink" x="0px" y="0px"
	 viewBox="0 0 24 24" style="enable-background:new 0 0 24 24;" xml:space="preserve">
<g>
	<title>social-media-odnoklassniki</title>
	<path d="M12.181,12.239c-3.375,0-6.12-2.745-6.12-6.12s2.745-6.12,6.12-6.12c3.375,0.003,6.12,2.748,6.12,6.12
		C18.301,9.493,15.556,12.239,12.181,12.239z M12.186,0.999c-2.826,0-5.125,2.297-5.125,5.12s2.297,5.12,5.12,5.12
		c2.823,0,5.12-2.297,5.12-5.12C17.301,3.298,15.006,1.001,12.186,0.999L12.186,0.999z"/>
	<path d="M12.183,9.119c-1.654,0-3-1.346-3-3s1.346-3,3-3s3,1.346,3,3S13.837,9.119,12.183,9.119z M12.183,4.119
		c-1.103,0-2,0.897-2,2s0.897,2,2,2c1.103,0,2-0.897,2-2S13.286,4.119,12.183,4.119z"/>
	<path d="M17.074,23.999c-0.636,0-1.232-0.247-1.681-0.696l-3.179-3.18l-3.18,3.18c-0.448,0.448-1.044,0.694-1.677,0.694
		c-0.635,0-1.231-0.248-1.679-0.696c-0.448-0.449-0.695-1.045-0.694-1.679c0-0.634,0.247-1.23,0.696-1.678l2.718-2.718
		c-1.152-0.413-2.221-1.012-3.182-1.784c-0.051-0.043-0.092-0.08-0.131-0.119c-0.767-0.765-0.769-2.01-0.005-2.776l0.125-0.127
		c0.382-0.375,0.881-0.581,1.409-0.581c0.463,0,0.915,0.163,1.273,0.46c1.217,0.948,2.743,1.473,4.291,1.473
		c1.55,0,3.079-0.526,4.305-1.482c0.351-0.288,0.799-0.449,1.259-0.449c0.531,0,1.032,0.207,1.41,0.583l0.127,0.13
		c0.035,0.035,0.072,0.075,0.106,0.117c0.338,0.403,0.498,0.913,0.452,1.438c-0.046,0.525-0.293,1-0.695,1.337
		c-0.949,0.76-1.997,1.35-3.123,1.761l2.736,2.737c0.926,0.927,0.925,2.434-0.001,3.36C18.305,23.753,17.708,23.999,17.074,23.999z
		 M12.214,18.917c0.133,0,0.259,0.052,0.353,0.146l3.533,3.533c0.26,0.26,0.605,0.403,0.973,0.403c0.368,0,0.713-0.143,0.972-0.402
		c0.537-0.536,0.537-1.409,0.001-1.945l-3.314-3.315c-0.125-0.125-0.175-0.309-0.13-0.48c0.045-0.171,0.178-0.307,0.349-0.355
		c1.302-0.368,2.499-0.983,3.556-1.829c0.403-0.338,0.454-0.949,0.111-1.359c-0.016-0.019-0.034-0.039-0.053-0.059l-0.124-0.127
		c-0.185-0.183-0.433-0.286-0.698-0.286c-0.231,0-0.457,0.081-0.636,0.229c-1.408,1.098-3.158,1.701-4.93,1.701
		c-1.77,0-3.516-0.601-4.916-1.692c-0.188-0.156-0.417-0.239-0.65-0.239c-0.262,0-0.511,0.102-0.699,0.287L5.79,13.252
		c-0.183,0.183-0.283,0.425-0.282,0.683c0,0.257,0.1,0.499,0.282,0.68c0.019,0.019,0.04,0.038,0.061,0.056
		c1.068,0.858,2.286,1.48,3.615,1.846c0.171,0.047,0.305,0.183,0.351,0.354c0.045,0.172-0.005,0.356-0.13,0.481l-3.3,3.3
		c-0.26,0.26-0.403,0.604-0.403,0.971s0.142,0.712,0.402,0.971c0.26,0.26,0.604,0.403,0.971,0.403c0.367,0,0.712-0.143,0.971-0.402
		l3.533-3.533C11.955,18.969,12.08,18.917,12.214,18.917z"/>
</g>
</svg>
