<?xml version="1.0" encoding="utf-8"?>
<!-- Generator: Adobe Illustrator 22.1.0, SVG Export Plug-In . SVG Version: 6.00 Build 0)  -->
<svg version="1.1" id="Layer_1" xmlns="http://www.w3.org/2000/svg" xmlns:xlink="http://www.w3.org/1999/xlink" x="0px" y="0px"
	 viewBox="0 0 24 24" style="enable-background:new 0 0 24 24;" xml:space="preserve">
<g>
	<title>social-media-hi-five</title>
	<path d="M4.584,18c-0.012,0-0.025,0-0.037-0.001C4.535,18,4.523,18,4.51,18h-4c-0.276,0-0.5-0.224-0.5-0.5v-2
		c0-0.276,0.224-0.5,0.5-0.5h0.5v-4h-0.5c-0.276,0-0.5-0.224-0.5-0.5v-2c0-0.276,0.224-0.5,0.5-0.5h4c0.276,0,0.5,0.224,0.5,0.5
		v2.856c0.379-0.24,0.816-0.373,1.272-0.383c0,0,0,0,0,0c0.41,0,1.728,0.167,1.728,2.309V17.5c0,0.276-0.224,0.5-0.5,0.5H4.584z
		 M7.01,17v-3.718c0-0.869-0.241-1.309-0.717-1.309c-0.572,0.013-1.094,0.365-1.324,0.898c-0.079,0.183-0.26,0.302-0.46,0.302
		c-0.033,0-0.065-0.003-0.098-0.01c-0.233-0.048-0.401-0.254-0.401-0.49V9h-3v1h0.5c0.276,0,0.5,0.224,0.5,0.5v5
		c0,0.276-0.224,0.5-0.5,0.5h-0.5v1h3v-2c0-0.276,0.224-0.5,0.5-0.5s0.5,0.224,0.5,0.5v2H7.01z"/>
	<path d="M18.164,18.006c-1.17,0-2.325-0.397-3.253-1.119c-0.738-0.651-1.063-1.631-0.861-2.569c0.067-0.452,0.249-0.8,0.543-1.038
		c-0.047-0.031-0.089-0.071-0.124-0.116c-0.08-0.108-0.114-0.245-0.094-0.377l0.844-5.364C15.259,7.178,15.466,7,15.714,7
		l6.106-0.001c0.137,0,0.27,0.057,0.364,0.157c0.094,0.099,0.143,0.235,0.135,0.373l-0.12,2c-0.016,0.263-0.235,0.47-0.499,0.47
		h-3.593l-0.077,0.805c0.407-0.179,0.848-0.273,1.298-0.273c0.099,0,0.198,0.005,0.297,0.014c0.029-0.001,0.129-0.001,0.129-0.001
		c0.882,0.011,1.706,0.364,2.322,0.995c0.615,0.631,0.949,1.464,0.938,2.345C23.014,16.345,21.16,18,18.4,18
		C18.329,18.004,18.246,18.006,18.164,18.006z M16.079,13.888c-0.866,0.002-0.982,0.187-1.045,0.609
		c-0.131,0.61,0.068,1.225,0.515,1.621c0.733,0.569,1.668,0.888,2.62,0.888c0.069,0,0.138-0.002,0.207-0.005
		c2.215,0,3.638-1.226,3.638-3.122c0.008-0.619-0.225-1.201-0.654-1.641c-0.429-0.44-1.004-0.686-1.618-0.693
		c0,0-0.122,0.001-0.125,0.001c-0.024,0-0.041-0.001-0.058-0.002c-0.077-0.008-0.152-0.011-0.228-0.011
		c-0.582,0-1.133,0.223-1.551,0.627c-0.02,0.02-0.042,0.037-0.065,0.053c0.076-0.01,0.157-0.015,0.244-0.015
		c0.856,0,1.409,0.698,1.409,1.777c0,0.523,0,2.114-1.4,2.114c-0.532,0-0.871-0.104-1.098-0.339
		c-0.297-0.305-0.286-0.704-0.275-1.089c0.002-0.086,0.005-0.168,0.005-0.254c0.006-0.147-0.038-0.27-0.126-0.365
		c-0.087-0.094-0.205-0.149-0.334-0.154l-0.02,0C16.106,13.887,16.092,13.887,16.079,13.888z M17.599,15.054
		c0.034,0.009,0.138,0.034,0.369,0.034c0.15,0,0.4,0,0.4-1.114c0-0.29-0.053-0.777-0.409-0.777c-0.271,0-0.298,0.075-0.316,0.13
		c-0.044,0.127-0.135,0.227-0.25,0.284c0.146,0.244,0.218,0.525,0.206,0.816c0,0.079-0.002,0.173-0.004,0.261
		C17.591,14.814,17.586,14.98,17.599,15.054z M16.907,12.625c0.105-0.125,0.254-0.247,0.467-0.329
		c-0.055-0.007-0.109-0.022-0.159-0.047c-0.187-0.09-0.3-0.29-0.28-0.498l0.22-2.3c0.024-0.258,0.238-0.452,0.498-0.452h3.576
		l0.06-1L16.141,8l-0.698,4.434L16.907,12.625z"/>
	<path d="M8.51,18c-0.276,0-0.5-0.224-0.5-0.5v-2c0-0.276,0.224-0.5,0.5-0.5h0.527v-1H8.51c-0.276,0-0.5-0.224-0.5-0.5v-3
		c0-0.276,0.224-0.5,0.5-0.5h1.5V8.5c0-0.276,0.224-0.5,0.5-0.5h2c0.276,0,0.5,0.224,0.5,0.5V15h0.4c0.276,0,0.5,0.224,0.5,0.5v2
		c0,0.276-0.224,0.5-0.5,0.5H8.51z M12.91,17v-1h-0.4c-0.276,0-0.5-0.224-0.5-0.5V11h-3v2h0.527c0.276,0,0.5,0.224,0.5,0.5v2
		c0,0.276-0.224,0.5-0.5,0.5H9.01v1H12.91z M12.01,10V9h-1v1H12.01z"/>
</g>
</svg>
