<?xml version="1.0" encoding="utf-8"?>
<!-- Generator: Adobe Illustrator 22.1.0, SVG Export Plug-In . SVG Version: 6.00 Build 0)  -->
<svg version="1.1" id="Layer_1" xmlns="http://www.w3.org/2000/svg" xmlns:xlink="http://www.w3.org/1999/xlink" x="0px" y="0px"
	 viewBox="0 0 24 24" style="enable-background:new 0 0 24 24;" xml:space="preserve">
<g>
	<title>social-media-formspring</title>
	<path d="M14.328,13.855c-3.157,0-5.984-1.494-6.872-3.634c-0.051-0.123-0.051-0.259,0-0.383c0.051-0.124,0.147-0.22,0.27-0.271
		c0.062-0.025,0.126-0.038,0.191-0.038c0.203,0,0.385,0.121,0.462,0.308c0.738,1.777,3.186,3.017,5.953,3.017l0.092,0
		c1.218,0,2.445-0.275,3.55-0.796c0.067-0.032,0.139-0.048,0.213-0.048c0.193,0,0.37,0.113,0.452,0.288
		c0.057,0.12,0.063,0.256,0.018,0.382s-0.137,0.226-0.258,0.283c-1.238,0.583-2.615,0.891-3.984,0.891L14.328,13.855z"/>
	<path d="M20.943,9.481c-0.131-0.013-0.251-0.077-0.336-0.18c-0.085-0.103-0.125-0.233-0.112-0.366
		C20.501,8.883,20.5,8.831,20.5,8.78c0-2.266-2.767-4.1-6.167-4.1c-0.062-0.001-0.117-0.002-0.173-0.002
		c-1.6,0-3.196,0.508-4.494,1.43C9.58,6.168,9.48,6.2,9.376,6.2c-0.162,0-0.314-0.079-0.408-0.21
		c-0.16-0.225-0.107-0.538,0.118-0.697c1.467-1.041,3.262-1.615,5.057-1.615c0.067,0,0.134,0.001,0.201,0.002c0,0,0,0,0.001,0
		c1.887,0,3.672,0.52,5.021,1.463c1.376,0.963,2.134,2.25,2.134,3.623c0,0.088-0.001,0.175-0.01,0.264
		c-0.025,0.258-0.239,0.452-0.497,0.452C20.985,9.483,20.952,9.482,20.943,9.481z"/>
	<path d="M11.05,3.526c-0.147,0-0.287-0.065-0.382-0.177c-0.086-0.102-0.128-0.231-0.116-0.365c0.011-0.133,0.074-0.254,0.176-0.34
		c1.257-1.062,2.857-1.647,4.506-1.647c0.071,0,0.143,0.001,0.215,0.003c0.051-0.002,0.116-0.003,0.181-0.003
		c1.599,0,3.168,0.555,4.417,1.562c0.214,0.173,0.248,0.488,0.075,0.703c-0.095,0.118-0.237,0.186-0.389,0.186
		c-0.114,0-0.225-0.039-0.314-0.111c-1.072-0.865-2.423-1.341-3.805-1.341c-0.056,0-0.112,0.001-0.167,0.002
		c-0.078-0.002-0.142-0.003-0.205-0.003c-1.418,0-2.792,0.501-3.869,1.411C11.282,3.484,11.168,3.526,11.05,3.526z"/>
	<path d="M20,23.259c-0.055,0-0.11-0.009-0.162-0.027l-4.957-1.696c-1.166,0.447-2.399,0.674-3.666,0.674
		c-2.008,0-3.999-0.596-5.605-1.679c-2.195-1.479-3.455-3.657-3.455-5.977c0-4.083,4.35-7.533,9.5-7.533
		c3.7,0,8.912,1.7,8.912,5.478c0,2.875-3.409,5.213-7.6,5.213s-7.6-2.339-7.6-5.213c0-0.276,0.224-0.5,0.5-0.5s0.5,0.224,0.5,0.5
		c0,2.323,2.961,4.213,6.6,4.213c3.639,0,6.6-1.89,6.6-4.213c0-1.698-1.471-2.758-2.704-3.348c-1.458-0.697-3.453-1.13-5.208-1.13
		c-4.607,0-8.5,2.992-8.5,6.533c0,1.981,1.098,3.857,3.013,5.147c1.444,0.973,3.236,1.509,5.045,1.509
		c1.203,0,2.37-0.226,3.467-0.67c0.062-0.024,0.125-0.037,0.188-0.037c0.055,0,0.11,0.009,0.162,0.027l3.91,1.337l-1.309-2.387
		c-0.123-0.224-0.058-0.504,0.152-0.65c0.767-0.537,1.405-1.256,1.845-2.082c0.087-0.163,0.256-0.264,0.442-0.264
		c0.081,0,0.162,0.02,0.233,0.058c0.245,0.131,0.337,0.434,0.208,0.677c-0.442,0.828-1.06,1.571-1.794,2.16l1.72,3.138
		c0.098,0.179,0.076,0.406-0.056,0.562C20.287,23.194,20.148,23.259,20,23.259z"/>
</g>
</svg>
