<?xml version="1.0" encoding="utf-8"?>
<!-- Generator: Adobe Illustrator 22.1.0, SVG Export Plug-In . SVG Version: 6.00 Build 0)  -->
<svg version="1.1" id="Layer_1" xmlns="http://www.w3.org/2000/svg" xmlns:xlink="http://www.w3.org/1999/xlink" x="0px" y="0px"
	 viewBox="0 0 24 24" style="enable-background:new 0 0 24 24;" xml:space="preserve">
<g>
	<title>social-media-plurk-1</title>
	<path d="M7,23.5c-1.654,0-3-1.346-3-3v-11c0.006-4.957,4.043-8.994,9-9c4.412,0,8,3.589,8,8c0,4.411-3.589,8-8,8h-3v4
		C10,22.154,8.654,23.5,7,23.5z M13,1.5c-4.406,0.005-7.995,3.594-8,8v11c0,1.103,0.897,2,2,2s2-0.897,2-2V16
		c0-0.276,0.224-0.5,0.5-0.5H13c3.86,0,7-3.14,7-7S16.86,1.5,13,1.5L13,1.5z"/>
	<path d="M9.5,11.5C9.224,11.5,9,11.276,9,11V9.5c0-2.206,1.794-4,4-4c1.654,0,3,1.346,3,3s-1.346,3-3,3H9.5z M13,10.5
		c1.103,0,2-0.897,2-2s-0.897-2-2-2c-1.654,0-3,1.346-3,3v1H13z"/>
</g>
</svg>
