<?xml version="1.0" encoding="utf-8"?>
<!-- Generator: Adobe Illustrator 22.1.0, SVG Export Plug-In . SVG Version: 6.00 Build 0)  -->
<svg version="1.1" id="Layer_1" xmlns="http://www.w3.org/2000/svg" xmlns:xlink="http://www.w3.org/1999/xlink" x="0px" y="0px"
	 viewBox="0 0 24 24" style="enable-background:new 0 0 24 24;" xml:space="preserve">
<g>
	<title>accounting-bill-stack</title>
	<path d="M12.004,16.5c-0.276,0-0.5-0.224-0.5-0.5v-0.5H10.5c-0.276,0-0.5-0.224-0.5-0.5s0.224-0.5,0.5-0.5h2.035
		c0.345,0,0.651-0.208,0.78-0.528c0.084-0.208,0.082-0.438-0.007-0.644c-0.088-0.207-0.251-0.367-0.46-0.451l-2.063-0.826
		c-0.701-0.282-1.155-0.953-1.155-1.708c0-0.492,0.191-0.955,0.539-1.303c0.348-0.348,0.81-0.54,1.302-0.54h0.033V8
		c0-0.276,0.224-0.5,0.5-0.5c0.276,0,0.5,0.224,0.5,0.5v0.5H13.5C13.776,8.5,14,8.724,14,9s-0.224,0.5-0.5,0.5h-2.029
		c-0.224,0-0.436,0.088-0.595,0.247c-0.159,0.159-0.246,0.371-0.246,0.595c0,0.345,0.207,0.652,0.528,0.781l2.063,0.826
		c0.457,0.184,0.815,0.534,1.008,0.987c0.193,0.452,0.198,0.953,0.014,1.409c-0.282,0.701-0.952,1.154-1.708,1.155h-0.031V16
		C12.504,16.276,12.28,16.5,12.004,16.5z"/>
	<path d="M8.504,19.5c-0.64,0-1.205-0.41-1.414-1H1.5C0.673,18.5,0,17.827,0,17V7c0-0.827,0.673-1.5,1.5-1.5h5.59
		c0.209-0.59,0.774-1,1.414-1h7c0.64,0,1.205,0.41,1.414,1H22.5C23.327,5.5,24,6.173,24,7v1.957C24.002,8.972,24.004,8.988,24.004,9
		c0,0.019-0.002,0.036-0.005,0.05L24,11.957c0.002,0.015,0.004,0.031,0.004,0.043c0,0.019-0.002,0.036-0.005,0.05L24,14.957
		c0.002,0.015,0.004,0.031,0.004,0.043c0,0.019-0.002,0.036-0.005,0.05L24,17c0,0.827-0.673,1.5-1.5,1.5h-5.582
		c-0.209,0.59-0.774,1-1.414,1H8.504z M8.504,5.5c-0.276,0-0.5,0.224-0.5,0.5v12c0,0.276,0.224,0.5,0.5,0.5h7
		c0.263,0,0.483-0.209,0.498-0.47C16.001,18.019,16,18.009,16,18c0-0.014,0.002-0.031,0.005-0.047l-0.001-11.91
		C16.001,6.028,16,6.012,16,6c0-0.014,0.001-0.026,0.003-0.037C15.991,5.714,15.77,5.5,15.504,5.5H8.504z M22.5,17.5
		c0.276,0,0.5-0.224,0.5-0.5v-1.5h-4.496c-0.276,0-0.5-0.224-0.5-0.5s0.224-0.5,0.5-0.5H23v-2h-4.496c-0.276,0-0.5-0.224-0.5-0.5
		c0-0.276,0.224-0.5,0.5-0.5H23v-2h-4.496c-0.276,0-0.5-0.224-0.5-0.5s0.224-0.5,0.5-0.5H23V7c0-0.276-0.224-0.5-0.5-0.5h-5.496v11
		H22.5z M1,17c0,0.276,0.224,0.5,0.5,0.5h5.504v-11H1.5C1.224,6.5,1,6.724,1,7v1.5h4.504c0.276,0,0.5,0.224,0.5,0.5
		s-0.224,0.5-0.5,0.5H1v2h4.504c0.276,0,0.5,0.224,0.5,0.5c0,0.276-0.224,0.5-0.5,0.5H1v2h4.504c0.276,0,0.5,0.224,0.5,0.5
		s-0.224,0.5-0.5,0.5H1V17z"/>
</g>
</svg>
