<?xml version="1.0" encoding="utf-8"?>
<!-- Generator: Adobe Illustrator 22.1.0, SVG Export Plug-In . SVG Version: 6.00 Build 0)  -->
<svg version="1.1" id="Layer_1" xmlns="http://www.w3.org/2000/svg" xmlns:xlink="http://www.w3.org/1999/xlink" x="0px" y="0px"
	 viewBox="0 0 24 24" style="enable-background:new 0 0 24 24;" xml:space="preserve">
<g>
	<title>accounting-bills-1</title>
	<path d="M1.504,22.5c-0.827,0-1.5-0.673-1.5-1.5V9c0-0.827,0.673-1.5,1.5-1.5h21c0.827,0,1.5,0.673,1.5,1.5v12
		c0,0.827-0.673,1.5-1.5,1.5H1.504z M22.504,21.5c0.276,0,0.5-0.224,0.5-0.5v-3.293L19.211,21.5H22.504z M17.797,21.5l5.207-5.207
		v-2.586L17.797,8.5H6.211l-5.207,5.207v2.586L6.211,21.5H17.797z M1.004,21c0,0.276,0.224,0.5,0.5,0.5h3.293l-3.793-3.793V21z
		 M23.004,12.293V9c0-0.276-0.224-0.5-0.5-0.5h-3.293L23.004,12.293z M1.504,8.5c-0.276,0-0.5,0.224-0.5,0.5v3.293L4.797,8.5H1.504z
		"/>
	<path d="M21.5,6.5C21.224,6.5,21,6.276,21,6s-0.224-0.5-0.5-0.5h-17C3.224,5.5,3,5.724,3,6S2.776,6.5,2.5,6.5S2,6.276,2,6
		c0-0.827,0.673-1.5,1.5-1.5h17C21.327,4.5,22,5.173,22,6C22,6.276,21.776,6.5,21.5,6.5z"/>
	<path d="M19.5,3.5C19.224,3.5,19,3.276,19,3s-0.224-0.5-0.5-0.5h-13C5.224,2.5,5,2.724,5,3S4.776,3.5,4.5,3.5S4,3.276,4,3
		c0-0.827,0.673-1.5,1.5-1.5h13C19.327,1.5,20,2.173,20,3C20,3.276,19.776,3.5,19.5,3.5z"/>
	<path d="M12.004,19c-2.206,0-4-1.794-4-4s1.794-4,4-4s4,1.794,4,4S14.209,19,12.004,19z M12.004,12c-1.654,0-3,1.346-3,3
		s1.346,3,3,3c1.654,0,3-1.346,3-3S13.658,12,12.004,12z"/>
	<path d="M4.504,15.5c-0.276,0-0.5-0.224-0.5-0.5s0.224-0.5,0.5-0.5h1c0.276,0,0.5,0.224,0.5,0.5s-0.224,0.5-0.5,0.5H4.504z"/>
	<path d="M18.504,15.5c-0.276,0-0.5-0.224-0.5-0.5s0.224-0.5,0.5-0.5h1c0.276,0,0.5,0.224,0.5,0.5s-0.224,0.5-0.5,0.5H18.504z"/>
</g>
</svg>
