<?xml version="1.0" encoding="utf-8"?>
<!-- Generator: Adobe Illustrator 22.1.0, SVG Export Plug-In . SVG Version: 6.00 Build 0)  -->
<svg version="1.1" id="Layer_1" xmlns="http://www.w3.org/2000/svg" xmlns:xlink="http://www.w3.org/1999/xlink" x="0px" y="0px"
	 viewBox="0 0 24 24" style="enable-background:new 0 0 24 24;" xml:space="preserve">
<g>
	<title>accounting-coins-stack</title>
	<path d="M16,24c-2.767,0-8-0.522-8-2.5V20c-2.767,0-8-0.522-8-2.5v-15c0-0.017,0.004-0.046,0.008-0.068
		C0.118,0.761,4.221,0,8.004,0c2.767,0,8,0.522,8,2.5c0,0.019-0.002,0.037-0.004,0.056l0,8.901c0.002,0.015,0.004,0.031,0.004,0.043
		V13c2.767,0,8,0.522,8,2.5c0,0.019-0.002,0.037-0.004,0.056l0,5.944C24,23.478,18.767,24,16,24z M9,21.5c0,0.435,2.453,1.5,7,1.5
		c4.547,0,7-1.065,7-1.5v-1.701C21.424,20.68,18.328,21,16,21s-5.424-0.32-7-1.201V21.5z M9,18.5c0,0.435,2.453,1.5,7,1.5
		c4.547,0,7-1.065,7-1.5v-1.698C21.422,17.68,18.329,18,16.004,18c-2.331,0-5.429-0.321-7.004-1.203V18.5z M1,17.5
		C1,17.935,3.453,19,8,19v-2c-2.328,0-5.424-0.32-7-1.201V17.5z M16.004,14c-4.547,0-7,1.065-7,1.5s2.453,1.5,7,1.5
		c4.69,0,6.915-1.065,6.996-1.484c0,0,0-0.027,0.001-0.033C22.927,15.105,20.785,14,16.004,14z M1,14.5C1,14.935,3.453,16,8,16v-0.5
		c0-0.017,0.004-0.046,0.008-0.068c0.04-0.622,0.618-1.107,1.498-1.474C8.985,13.987,8.476,14,8,14c-2.328,0-5.424-0.32-7-1.201
		V14.5z M15.004,12.797c-0.155,0.087-0.325,0.169-0.508,0.245c0.17-0.009,0.34-0.017,0.508-0.023V12.797z M1,11.5
		C1,11.935,3.453,13,8,13c4.547,0,7-1.065,7-1.5V9.799C13.424,10.68,10.328,11,8,11s-5.424-0.32-7-1.201V11.5z M1,8.5
		C1,8.935,3.453,10,8,10c4.547,0,7-1.065,7-1.5V6.799C13.424,7.68,10.328,8,8,8S2.576,7.68,1,6.799V8.5z M1,5.5C1,5.935,3.453,7,8,7
		c4.547,0,7-1.065,7-1.5V3.802C13.422,4.68,10.328,5,8.004,5C5.673,5,2.575,4.679,1,3.797V5.5z M8.004,1c-4.547,0-7,1.065-7,1.5
		s2.453,1.5,7,1.5c4.69,0,6.915-1.065,6.996-1.484c0,0,0.001-0.037,0.002-0.048C14.961,2.123,12.823,1,8.004,1z"/>
</g>
</svg>
