<?xml version="1.0" encoding="utf-8"?>
<!-- Generator: Adobe Illustrator 22.1.0, SVG Export Plug-In . SVG Version: 6.00 Build 0)  -->
<svg version="1.1" id="Layer_1" xmlns="http://www.w3.org/2000/svg" xmlns:xlink="http://www.w3.org/1999/xlink" x="0px" y="0px"
	 viewBox="0 0 24 24" style="enable-background:new 0 0 24 24;" xml:space="preserve">
<g>
	<title>accounting-withdraw</title>
	<path d="M7.354,15.004c-0.115,0-0.228-0.041-0.318-0.114c-0.213-0.176-0.243-0.492-0.068-0.704l0.099-0.119
		C6.995,13.99,6.949,13.913,6.92,13.85c-0.099-0.214-0.194-0.66,0.289-1.245c0.096-0.115,0.236-0.181,0.386-0.181
		c0.116,0,0.229,0.041,0.318,0.114c0.213,0.175,0.243,0.491,0.068,0.704c-0.045,0.055-0.076,0.1-0.097,0.136
		c0.541-0.044,1.06-0.311,1.438-0.749c0.042-0.051,0.071-0.094,0.09-0.128c-0.63-0.011-0.866-0.372-0.938-0.526
		c-0.171-0.367-0.07-0.809,0.284-1.244c0.507-0.587,1.197-0.965,1.954-1.077l0.391-0.473c0.096-0.115,0.236-0.181,0.386-0.181
		c0.116,0,0.229,0.041,0.318,0.114c0.213,0.176,0.243,0.491,0.067,0.704l-0.097,0.118c0.073,0.077,0.12,0.155,0.15,0.22
		c0.098,0.214,0.191,0.659-0.292,1.243c-0.095,0.115-0.236,0.181-0.385,0.181c-0.116,0-0.229-0.041-0.319-0.115
		c-0.103-0.085-0.166-0.205-0.179-0.338c-0.012-0.133,0.028-0.263,0.113-0.366c0.045-0.055,0.076-0.1,0.097-0.136
		c-0.54,0.045-1.058,0.311-1.437,0.75c-0.041,0.05-0.069,0.093-0.088,0.127c0.632,0.012,0.867,0.374,0.939,0.53
		c0.099,0.214,0.193,0.659-0.289,1.244C9.58,13.86,8.89,14.238,8.131,14.348L7.74,14.822C7.644,14.938,7.504,15.004,7.354,15.004z"
		/>
	<path d="M2.5,19C2.224,19,2,18.776,2,18.5S2.224,18,2.5,18h8.093c0.132,0,0.26-0.053,0.354-0.146l7.558-7.561
		c0.094-0.094,0.22-0.146,0.354-0.146s0.259,0.052,0.354,0.146c0.094,0.094,0.146,0.22,0.146,0.354c0,0.134-0.052,0.259-0.146,0.354
		l-7.558,7.561C11.37,18.844,10.994,19,10.593,19H2.5z"/>
	<path d="M1.711,17c-0.552,0-1-0.448-1.001-0.998c0-0.269,0.104-0.521,0.294-0.71L4.296,12H1.5C0.673,12,0,11.327,0,10.5v-4
		C0,5.673,0.673,5,1.5,5h21C23.327,5,24,5.673,24,6.5v4c0,0.827-0.673,1.5-1.5,1.5h-1c-0.276,0-0.5-0.224-0.5-0.5s0.224-0.5,0.5-0.5
		h1c0.276,0,0.5-0.224,0.5-0.5v-4C23,6.224,22.776,6,22.5,6h-21C1.224,6,1,6.224,1,6.5v4C1,10.776,1.224,11,1.5,11h3.797
		l3.561-3.561C9.137,7.16,9.523,7,9.918,7H18.3c0.267,0,0.519,0.104,0.707,0.293c0.189,0.189,0.293,0.44,0.292,0.708
		c0,0.267-0.104,0.519-0.294,0.707l-7.853,7.852C10.87,16.844,10.494,17,10.093,17H1.711z M9.918,8c-0.131,0-0.26,0.053-0.353,0.146
		L1.711,16l8.382,0c0.132,0,0.26-0.053,0.354-0.146L18.3,8L9.918,8z"/>
</g>
</svg>
