<?xml version="1.0" encoding="utf-8"?>
<!-- Generator: Adobe Illustrator 22.1.0, SVG Export Plug-In . SVG Version: 6.00 Build 0)  -->
<svg version="1.1" id="Layer_1" xmlns="http://www.w3.org/2000/svg" xmlns:xlink="http://www.w3.org/1999/xlink" x="0px" y="0px"
	 viewBox="0 0 24 24" style="enable-background:new 0 0 24 24;" xml:space="preserve">
<g>
	<title>coin-purse</title>
	<path d="M1.356,20.75c-0.032,0-0.065-0.001-0.097-0.004C0.91,20.72,0.591,20.56,0.362,20.294s-0.341-0.605-0.315-0.954
		C0.52,13.121,5.776,8.25,12.012,8.25c6.219,0,11.355,4.667,11.947,10.857c0.005,0.048,0.007,0.095,0.007,0.142
		c0,0.4-0.156,0.777-0.439,1.06s-0.66,0.44-1.06,0.44H1.356z M12.012,9.25c-5.716,0-10.534,4.465-10.968,10.165
		c-0.013,0.171,0.117,0.322,0.289,0.334l21.133,0.001c0.276,0,0.5-0.225,0.5-0.5c0-0.016-0.001-0.032-0.002-0.048
		c-0.542-5.673-5.25-9.952-10.95-9.951H12.012z"/>
	<path d="M21.845,11.75c-0.15,0-0.291-0.067-0.386-0.182c-2.081-2.523-5.019-4.085-8.275-4.398
		c-0.397-0.038-0.799-0.058-1.195-0.058c-2.86,0-5.546,0.968-7.766,2.799c-0.602,0.497-1.16,1.054-1.656,1.656
		c-0.095,0.116-0.236,0.182-0.386,0.182c-0.116,0-0.229-0.041-0.318-0.115c-0.103-0.085-0.167-0.205-0.179-0.338
		c-0.013-0.133,0.027-0.263,0.112-0.366c0.537-0.652,1.14-1.254,1.792-1.791C5.052,7.932,6.71,7.072,8.52,6.579
		C8.197,6.217,8.013,5.746,8.013,5.25c0-1.103,0.897-2,2-2s2,0.897,2,2c0,0.301-0.069,0.596-0.198,0.865
		c0.053-0.001,0.107-0.001,0.16-0.001c0.078,0,0.157,0.001,0.237,0.002c-0.13-0.269-0.199-0.565-0.199-0.866c0-1.103,0.897-2,2-2
		s2,0.897,2,2c0,0.498-0.185,0.97-0.51,1.332c2.646,0.715,4.964,2.212,6.727,4.35c0.085,0.103,0.125,0.233,0.112,0.366
		c-0.013,0.133-0.077,0.253-0.18,0.338C22.074,11.709,21.961,11.75,21.845,11.75z M14.013,4.25c-0.552,0-1,0.449-1,1s0.448,1,1,1
		s1-0.449,1-1S14.565,4.25,14.013,4.25z M10.013,4.25c-0.551,0-1,0.449-1,1s0.449,1,1,1s1-0.449,1-1S10.564,4.25,10.013,4.25z"/>
</g>
</svg>
