<?xml version="1.0" encoding="utf-8"?>
<!-- Generator: Adobe Illustrator 22.1.0, SVG Export Plug-In . SVG Version: 6.00 Build 0)  -->
<svg version="1.1" id="Layer_1" xmlns="http://www.w3.org/2000/svg" xmlns:xlink="http://www.w3.org/1999/xlink" x="0px" y="0px"
	 viewBox="0 0 24 24" style="enable-background:new 0 0 24 24;" xml:space="preserve">
<g>
	<title>money-wallet-open</title>
	<path d="M15.231,23.713c-0.269,0-0.536-0.039-0.795-0.117L3.309,20.98C1.402,20.455,0.076,18.786,0,16.825L0,3.805
		c0.002-0.843,0.309-1.656,0.865-2.293c0.039-0.068,0.093-0.127,0.159-0.17c0.662-0.666,1.54-1.034,2.475-1.036H20.5
		C22.425,0.31,23.995,1.88,24,3.804v11.001c-0.005,1.925-1.574,3.495-3.499,3.5H18v2.5c0.043,0.717-0.203,1.424-0.696,1.977
		c-0.493,0.553-1.17,0.882-1.907,0.926C15.343,23.711,15.287,23.713,15.231,23.713z M1.495,2.322C1.176,2.751,1.002,3.273,1,3.807
		v12.998c0.059,1.509,1.086,2.801,2.557,3.206l11.138,2.619c0.192,0.057,0.363,0.083,0.537,0.083c0.036,0,0.071-0.001,0.107-0.003
		c0.472-0.028,0.905-0.239,1.219-0.594c0.315-0.354,0.472-0.81,0.444-1.281L17,8.805c-0.06-1.509-1.083-2.818-2.547-3.248
		L1.495,2.322z M20.5,17.305c1.375-0.004,2.496-1.126,2.5-2.501V3.805c-0.004-1.375-1.126-2.496-2.501-2.5H3.5
		C3.137,1.306,2.786,1.384,2.464,1.534l7.097,1.772h9.943c0.276,0,0.5,0.224,0.5,0.5s-0.224,0.5-0.5,0.5h-5.938l1.149,0.287
		c1.736,0.51,2.982,1.952,3.237,3.713h1.552c0.276,0,0.5,0.224,0.5,0.5s-0.224,0.5-0.5,0.5H18l0,8H20.5z"/>
	<path d="M13.004,16.305c-1.378,0-2.5-1.122-2.5-2.5s1.121-2.5,2.5-2.5s2.5,1.121,2.5,2.5S14.382,16.305,13.004,16.305z
		 M13.004,12.305c-0.827,0-1.5,0.673-1.5,1.5s0.673,1.5,1.5,1.5c0.827,0,1.5-0.673,1.5-1.5S13.831,12.305,13.004,12.305z"/>
</g>
</svg>
