<?xml version="1.0" encoding="utf-8"?>
<!-- Generator: Adobe Illustrator 22.1.0, SVG Export Plug-In . SVG Version: 6.00 Build 0)  -->
<svg version="1.1" id="Layer_1" xmlns="http://www.w3.org/2000/svg" xmlns:xlink="http://www.w3.org/1999/xlink" x="0px" y="0px"
	 viewBox="0 0 24 24" style="enable-background:new 0 0 24 24;" xml:space="preserve">
<g>
	<title>money-wallet</title>
	<path d="M18.5,14.387c-0.414,0-0.75-0.336-0.75-0.75c-0.001-0.411,0.333-0.748,0.746-0.75c0.418,0,0.754,0.336,0.754,0.75
		S18.914,14.387,18.5,14.387z"/>
	<path d="M3.504,8.637c-0.276,0-0.5-0.224-0.5-0.5s0.224-0.5,0.5-0.5h2c0.276,0,0.5,0.224,0.5,0.5s-0.224,0.5-0.5,0.5H3.504z"/>
	<path d="M7.504,8.637c-0.276,0-0.5-0.224-0.5-0.5s0.224-0.5,0.5-0.5h2c0.276,0,0.5,0.224,0.5,0.5s-0.224,0.5-0.5,0.5H7.504z"/>
	<path d="M11.504,8.637c-0.276,0-0.5-0.224-0.5-0.5s0.224-0.5,0.5-0.5h2c0.276,0,0.5,0.224,0.5,0.5s-0.224,0.5-0.5,0.5H11.504z"/>
	<path d="M15.504,8.637c-0.276,0-0.5-0.224-0.5-0.5s0.224-0.5,0.5-0.5h2c0.276,0,0.5,0.224,0.5,0.5s-0.224,0.5-0.5,0.5H15.504z"/>
	<path d="M3.504,19.637c-0.276,0-0.5-0.224-0.5-0.5s0.224-0.5,0.5-0.5h2c0.276,0,0.5,0.224,0.5,0.5s-0.224,0.5-0.5,0.5H3.504z"/>
	<path d="M7.504,19.637c-0.276,0-0.5-0.224-0.5-0.5s0.224-0.5,0.5-0.5h2c0.276,0,0.5,0.224,0.5,0.5s-0.224,0.5-0.5,0.5H7.504z"/>
	<path d="M11.504,19.637c-0.276,0-0.5-0.224-0.5-0.5s0.224-0.5,0.5-0.5h2c0.276,0,0.5,0.224,0.5,0.5s-0.224,0.5-0.5,0.5H11.504z"/>
	<path d="M15.504,19.637c-0.276,0-0.5-0.224-0.5-0.5s0.224-0.5,0.5-0.5h2c0.276,0,0.5,0.224,0.5,0.5s-0.224,0.5-0.5,0.5H15.504z"/>
	<path d="M2.5,22.637c-1.379,0-2.5-1.122-2.5-2.5v-13c0-1.379,1.121-2.5,2.5-2.5h1.934l11.957-3.218
		c0.134-0.034,0.266-0.05,0.395-0.05c0.273,0,0.531,0.072,0.766,0.213c0.344,0.206,0.586,0.533,0.683,0.922L18.79,4.72
		C20.66,5.094,22,6.715,22,8.637v2.05c1.157,0.232,2.004,1.248,2.004,2.45v1c0,1.202-0.847,2.218-2.004,2.45v2.05
		c0,2.206-1.794,4-4,4H2.5z M2.5,5.637c-0.827,0-1.5,0.673-1.5,1.5v13c0,0.827,0.673,1.5,1.5,1.5H18c1.654,0,3-1.346,3-3v-2h-3.496
		c-1.378,0-2.5-1.122-2.5-2.5v-1c0-1.378,1.122-2.5,2.5-2.5H21v-2c0-1.654-1.346-3-3-3H2.5z M17.504,11.637
		c-0.827,0-1.5,0.673-1.5,1.5v1c0,0.827,0.673,1.5,1.5,1.5h4c0.827,0,1.5-0.673,1.5-1.5v-1c0-0.827-0.673-1.5-1.5-1.5H17.504z
		 M17.739,4.637l-0.472-1.891c-0.033-0.13-0.114-0.239-0.228-0.307c-0.078-0.047-0.167-0.072-0.256-0.072
		c-0.041,0-0.082,0.005-0.122,0.015L8.282,4.637H17.739z"/>
</g>
</svg>
