<?xml version="1.0" encoding="utf-8"?>
<!-- Generator: Adobe Illustrator 22.1.0, SVG Export Plug-In . SVG Version: 6.00 Build 0)  -->
<svg version="1.1" id="Layer_1" xmlns="http://www.w3.org/2000/svg" xmlns:xlink="http://www.w3.org/1999/xlink" x="0px" y="0px"
	 viewBox="0 0 24 24" style="enable-background:new 0 0 24 24;" xml:space="preserve">
<g>
	<title>money-bag-euro</title>
	<path d="M8.504,8.577c-0.276,0-0.5-0.224-0.5-0.5s0.224-0.5,0.5-0.5h7c0.276,0,0.5,0.224,0.5,0.5s-0.224,0.5-0.5,0.5H8.504z"/>
	<path d="M9.976,6.577c-0.508,0-0.934-0.377-0.996-0.876c-0.204-1.07-0.592-2.109-1.15-3.073C7.678,2.351,7.661,2.02,7.783,1.738
		c0.159-0.366,0.52-0.602,0.919-0.602c0.137,0,0.27,0.028,0.397,0.083l1.627,0.697l0.348-0.868c0.101-0.253,0.304-0.457,0.558-0.558
		c0.119-0.047,0.243-0.071,0.37-0.071c0.412,0,0.777,0.247,0.93,0.63l0.345,0.864l1.629-0.698c0.123-0.054,0.257-0.081,0.395-0.081
		c0.17,0,0.337,0.043,0.484,0.124c0.234,0.129,0.404,0.341,0.478,0.598c0.074,0.256,0.044,0.526-0.085,0.76
		c-0.559,0.974-0.942,2.019-1.144,3.115c-0.058,0.477-0.486,0.847-0.992,0.847H9.976z M8.7,2.136
		c0.611,1.054,1.038,2.203,1.267,3.41l0.009,0.033l4.065-0.001c0.23-1.23,0.653-2.386,1.263-3.45l-2.105,0.906
		c-0.061,0.027-0.128,0.041-0.197,0.041c-0.066,0-0.131-0.013-0.192-0.039c-0.123-0.051-0.223-0.152-0.272-0.276l-0.535-1.34
		l-0.539,1.344c-0.05,0.124-0.149,0.225-0.273,0.276C11.13,3.064,11.066,3.077,11,3.077c-0.068,0-0.135-0.014-0.197-0.041L8.7,2.136
		C8.701,2.136,8.701,2.136,8.7,2.136z"/>
	<path d="M12,23.577c-5.533,0-8-1.851-8-6c0-2.69,2.466-6.023,4.786-7.795C8.961,9.652,9.175,9.58,9.39,9.58h5.231
		c0.215,0,0.428,0.071,0.6,0.2C17.539,11.551,20,14.883,20,17.577C20,21.727,17.533,23.577,12,23.577z M9.39,10.581
		C7.233,12.227,5,15.295,5,17.577c0,3.552,2.028,5,7,5s7-1.448,7-5c0-2.286-2.228-5.354-4.382-6.999L9.39,10.581
		C9.39,10.58,9.39,10.58,9.39,10.581z"/>
	<path d="M12.687,20.595c-1.317,0-2.49-0.804-2.974-2.018H9.004c-0.276,0-0.5-0.224-0.5-0.5s0.224-0.5,0.5-0.5h0.484
		c-0.01-0.167-0.007-0.334,0.009-0.5c-0.016-0.164-0.018-0.331-0.008-0.5H9.004c-0.276,0-0.5-0.224-0.5-0.5s0.224-0.5,0.5-0.5h0.708
		c0.116-0.291,0.271-0.561,0.463-0.803c0.532-0.671,1.294-1.095,2.145-1.193c0.121-0.014,0.245-0.021,0.368-0.021
		s0.247,0.007,0.369,0.021c0.132,0.015,0.251,0.082,0.334,0.186c0.083,0.105,0.12,0.235,0.105,0.368
		c-0.029,0.252-0.241,0.443-0.493,0.443c-0.021,0-0.042-0.001-0.064-0.004c-0.081-0.009-0.166-0.014-0.25-0.014
		s-0.169,0.005-0.253,0.014c-0.586,0.068-1.11,0.36-1.476,0.822c-0.046,0.058-0.089,0.119-0.129,0.182h2.174
		c0.276,0,0.5,0.224,0.5,0.5s-0.224,0.5-0.5,0.5H10.49c-0.012,0.146-0.01,0.295,0.007,0.442c0.005,0.038,0.005,0.078,0,0.117
		c-0.017,0.145-0.019,0.294-0.006,0.441h1.514c0.276,0,0.5,0.224,0.5,0.5s-0.224,0.5-0.5,0.5h-1.172
		c0.401,0.629,1.094,1.018,1.857,1.018c0.084,0,0.169-0.005,0.254-0.015c0.018-0.002,0.039-0.004,0.06-0.004
		c0.253,0,0.465,0.19,0.494,0.443c0.032,0.273-0.165,0.522-0.439,0.554C12.936,20.588,12.811,20.595,12.687,20.595z"/>
</g>
</svg>
