<?xml version="1.0" encoding="utf-8"?>
<!-- Generator: Adobe Illustrator 22.1.0, SVG Export Plug-In . SVG Version: 6.00 Build 0)  -->
<svg version="1.1" id="Light" xmlns="http://www.w3.org/2000/svg" xmlns:xlink="http://www.w3.org/1999/xlink" x="0px" y="0px"
	 viewBox="0 0 24 24" style="enable-background:new 0 0 24 24;" xml:space="preserve">
<g>
	<title>yoga-full-body-stretch</title>
	<path d="M12.009,9.5c-1.654,0-3-1.346-3-3s1.346-3,3-3s3,1.346,3,3S13.663,9.5,12.009,9.5z M12.009,4.5c-1.103,0-2,0.897-2,2
		s0.897,2,2,2c1.103,0,2-0.897,2-2S13.112,4.5,12.009,4.5z"/>
	<path d="M12.009,24.001c-0.276,0-0.5-0.224-0.5-0.5v-4.972c0-0.192,0.112-0.37,0.286-0.452c0.065-0.031,0.14-0.048,0.214-0.048
		c0.115,0,0.228,0.04,0.317,0.113l3.219,2.634c0.206,0.167,0.335,0.405,0.364,0.671c0.028,0.266-0.049,0.527-0.217,0.735
		c-0.035,0.043-0.075,0.085-0.118,0.123l-1.801,1.573C13.681,23.957,13.565,24,13.444,24l0,0c-0.144,0-0.281-0.062-0.376-0.171
		c-0.088-0.1-0.131-0.229-0.122-0.362c0.009-0.133,0.069-0.255,0.17-0.343l1.8-1.572l-2.406-1.968v3.917
		C12.509,23.777,12.285,24.001,12.009,24.001z"/>
	<path d="M17.809,24.001c-0.101,0-0.199-0.03-0.282-0.087c-0.227-0.156-0.286-0.468-0.13-0.695c0.868-1.268,0.614-3.019-0.578-3.987
		l-2.125-1.737c-0.117-0.096-0.184-0.237-0.184-0.387V13.37c0-0.199,0.118-0.378,0.3-0.458c1.713-0.749,3.032-2.12,3.715-3.861
		c0.682-1.741,0.646-3.643-0.103-5.357c-0.406-0.928-1.021-1.772-1.779-2.442c-0.189-0.172-0.429-0.266-0.68-0.266
		c-0.281,0-0.55,0.118-0.739,0.325c-0.371,0.407-0.342,1.041,0.065,1.413l0.028,0.025c1.002,0.885,1.6,2.106,1.683,3.439
		c0.083,1.333-0.358,2.619-1.241,3.62c-0.884,1.001-2.105,1.599-3.438,1.682c-0.107,0.007-0.213,0.01-0.319,0.01
		c-1.214,0-2.387-0.445-3.301-1.252c-1-0.882-1.596-2.103-1.679-3.438c-0.083-1.334,0.357-2.62,1.239-3.62
		C8.39,3.045,8.529,2.905,8.676,2.774c0.201-0.178,0.321-0.422,0.337-0.69C9.029,1.817,8.941,1.56,8.765,1.36
		c-0.177-0.2-0.421-0.319-0.688-0.336C8.055,1.023,8.034,1.022,8.012,1.022c-0.242,0-0.476,0.089-0.659,0.251
		c-2.881,2.579-3.132,7.018-0.557,9.894c0.675,0.754,1.487,1.341,2.414,1.746c0.182,0.079,0.3,0.259,0.3,0.458v10.13
		c0,0.276-0.224,0.5-0.5,0.5s-0.5-0.224-0.5-0.5v-9.81c-0.935-0.454-1.762-1.079-2.458-1.857C3.109,8.547,3.389,3.48,6.676,0.538
		C7.05,0.207,7.527,0.025,8.019,0.025c0.572,0,1.117,0.245,1.494,0.673c0.353,0.4,0.53,0.914,0.497,1.447
		C9.978,2.679,9.74,3.168,9.34,3.521C9.225,3.624,9.113,3.737,9.01,3.853c-0.706,0.8-1.058,1.828-0.991,2.896
		c0.067,1.068,0.544,2.044,1.343,2.75c0.732,0.646,1.67,1.001,2.642,1.001c0.084,0,0.169-0.003,0.254-0.008
		c1.066-0.067,2.043-0.544,2.75-1.345c0.707-0.801,1.06-1.83,0.993-2.896c-0.067-1.066-0.544-2.043-1.345-2.75l-0.04-0.036
		c-0.817-0.745-0.875-2.012-0.132-2.827c0.378-0.414,0.917-0.651,1.479-0.651c0.5,0,0.978,0.185,1.347,0.522
		c0.862,0.761,1.563,1.726,2.027,2.786c0.856,1.958,0.897,4.132,0.118,6.122c-0.737,1.882-2.135,3.394-3.946,4.274v3.18l1.94,1.586
		c1.593,1.293,1.932,3.634,0.772,5.328C18.128,23.92,17.974,24.001,17.809,24.001z"/>
</g>
</svg>
