<?xml version="1.0" encoding="utf-8"?>
<!-- Generator: Adobe Illustrator 22.1.0, SVG Export Plug-In . SVG Version: 6.00 Build 0)  -->
<svg version="1.1" id="Light" xmlns="http://www.w3.org/2000/svg" xmlns:xlink="http://www.w3.org/1999/xlink" x="0px" y="0px"
	 viewBox="0 0 24 24" style="enable-background:new 0 0 24 24;" xml:space="preserve">
<g>
	<title>yoga-arm-stretch</title>
	<path d="M3.001,14.998c-1.654,0-3-1.346-3-3s1.346-3,3-3s3,1.346,3,3S4.655,14.998,3.001,14.998z M3.001,9.998
		c-1.103,0-2,0.897-2,2c0,1.103,0.897,2,2,2s2-0.897,2-2C5.001,10.895,4.103,9.998,3.001,9.998z"/>
	<path d="M11.999,24.002c-0.311,0-0.611-0.071-0.893-0.212c-0.232-0.116-0.437-0.275-0.606-0.467
		c-0.377,0.425-0.924,0.678-1.499,0.678c-1.103,0-2-0.897-2-2v-20c0-1.103,0.897-2,2-2s2,0.897,2,2v7h5.5
		c0.964,0,1.851,0.561,2.262,1.43c0.487,1.033,1.213,2.578,1.964,4.178c1.385,2.95,2.817,6.001,3.064,6.495
		c0.239,0.478,0.278,1.021,0.108,1.528c-0.169,0.507-0.525,0.917-1.003,1.156c0,0-0.001,0.001-0.002,0.001
		c-0.277,0.137-0.575,0.207-0.885,0.207l0,0c-0.764,0-1.452-0.42-1.796-1.097l-3.212-6.736l-3.207,6.725
		c-0.242,0.485-0.654,0.843-1.161,1.011C12.427,23.967,12.214,24.002,11.999,24.002z M13.824,14.001
		c0.172,0,0.329,0.086,0.422,0.231c0.092,0.144,0.104,0.323,0.032,0.479l-3.165,6.829c-0.07,0.141-0.107,0.282-0.112,0.427l0,0.073
		c0.003,0.086,0.02,0.183,0.052,0.277c0.084,0.254,0.263,0.459,0.502,0.579c0.141,0.071,0.291,0.106,0.446,0.106
		c0.107,0,0.214-0.018,0.318-0.052c0.253-0.084,0.459-0.263,0.578-0.502l3.654-7.663c0.083-0.173,0.26-0.285,0.451-0.285
		s0.369,0.112,0.451,0.285l3.658,7.671c0.166,0.325,0.518,0.539,0.896,0.539c0.155,0,0.304-0.035,0.444-0.104
		c0.238-0.119,0.416-0.324,0.501-0.577c0.084-0.253,0.065-0.524-0.054-0.763c-0.253-0.506-1.688-3.562-3.075-6.518l-0.153-0.326
		c-0.695-1.481-1.356-2.888-1.81-3.85c-0.247-0.521-0.779-0.857-1.355-0.857h-6.003c-0.276,0-0.5-0.224-0.5-0.5v-7.5
		c0-0.551-0.449-1-1-1s-1,0.449-1,1v20c0,0.552,0.449,1,1,1c0.545,0,0.994-0.443,1-0.988l0-7.512c0-0.276,0.224-0.5,0.5-0.5H13.824z
		 M11.001,19.403l2.04-4.402h-2.04V19.403z"/>
</g>
</svg>
