<?xml version="1.0" encoding="utf-8"?>
<!-- Generator: Adobe Illustrator 22.1.0, SVG Export Plug-In . SVG Version: 6.00 Build 0)  -->
<svg version="1.1" id="Light" xmlns="http://www.w3.org/2000/svg" xmlns:xlink="http://www.w3.org/1999/xlink" x="0px" y="0px"
	 viewBox="0 0 24 24" style="enable-background:new 0 0 24 24;" xml:space="preserve">
<g>
	<title>yoga-stretch-1</title>
	<path d="M3.19,14.499c-1.654,0-3-1.346-3-3c0-1.654,1.346-3,3-3s3,1.346,3,3C6.19,13.154,4.845,14.499,3.19,14.499z M3.19,9.499
		c-1.103,0-2,0.897-2,2s0.897,2,2,2s2-0.897,2-2S4.293,9.499,3.19,9.499z"/>
	<path d="M14.131,19.999c-2.651,0-4.944-1.693-5.722-4.212L7.21,11.967c-0.456-1.46-0.028-3.073,1.091-4.115
		c0.01-0.013,0.021-0.025,0.03-0.034c0.016-0.015,0.032-0.026,0.045-0.034C8.479,7.691,8.578,7.61,8.678,7.538l4.332-3.155
		c0.345-0.252,0.751-0.385,1.175-0.385c0.104,0,0.21,0.008,0.314,0.025c0.528,0.083,0.992,0.366,1.307,0.798
		c0.651,0.891,0.455,2.146-0.437,2.797l-4.345,3.156l1.198,3.823c0.26,0.84,1.015,1.404,1.879,1.404l2.703,0
		c0.862,0,1.625-0.55,1.898-1.367l1.115-3.35l-3.526-2.368c-0.229-0.154-0.29-0.465-0.136-0.694
		c0.094-0.139,0.249-0.221,0.415-0.221c0.1,0,0.196,0.029,0.279,0.085l3.534,2.374c0.365,0.255,0.521,0.723,0.384,1.139
		l-1.116,3.351c-0.369,1.105-1.32,1.879-2.461,2.024v2.009c1.992-0.153,3.723-1.493,4.357-3.401l1.116-3.351
		c0.415-1.266-0.038-2.636-1.127-3.407c-0.002-0.001-0.023-0.016-0.025-0.018l-4.308-2.89c-0.229-0.154-0.29-0.465-0.136-0.694
		c0.093-0.139,0.248-0.222,0.415-0.222c0.099,0,0.195,0.029,0.278,0.085l4.322,2.9c0.003,0.002,0.036,0.026,0.041,0.03
		c1.44,1.019,2.043,2.842,1.49,4.529l-1.116,3.353c-0.816,2.454-3.102,4.103-5.688,4.103H14.131z M8.677,8.914
		c-0.611,0.772-0.808,1.804-0.512,2.754l1.2,3.822c0.648,2.099,2.558,3.509,4.752,3.509h2.073v-2h-2.059
		c-1.327,0-2.474-0.846-2.864-2.106l-1.199-3.821c-0.068-0.217-0.058-0.448,0.023-0.657L8.677,8.914z M10.795,9.704l3.986-2.895
		c0.215-0.157,0.357-0.389,0.398-0.654c0.041-0.264-0.023-0.529-0.18-0.745c-0.158-0.216-0.39-0.358-0.654-0.399
		c-0.052-0.008-0.105-0.012-0.157-0.012c-0.212,0-0.415,0.067-0.587,0.193L9.414,8.239L10.795,9.704z"/>
</g>
</svg>
