<?xml version="1.0" encoding="utf-8"?>
<!-- Generator: Adobe Illustrator 22.1.0, SVG Export Plug-In . SVG Version: 6.00 Build 0)  -->
<svg version="1.1" id="Light" xmlns="http://www.w3.org/2000/svg" xmlns:xlink="http://www.w3.org/1999/xlink" x="0px" y="0px"
	 viewBox="0 0 24 24" style="enable-background:new 0 0 24 24;" xml:space="preserve">
<g>
	<title>yoga-meditate-1</title>
	<path d="M12,7c-1.93,0-3.5-1.57-3.5-3.5S10.07,0,12,0s3.5,1.57,3.5,3.5S13.93,7,12,7z M12,1c-1.379,0-2.5,1.121-2.5,2.5
		S10.621,6,12,6c1.378,0,2.5-1.121,2.5-2.5S13.378,1,12,1z"/>
	<path d="M16.499,24c-0.178,0-0.355-0.024-0.526-0.071l-3.977-1.085l-3.97,1.085C7.855,23.976,7.678,24,7.502,24
		c-0.668,0-1.289-0.332-1.661-0.887c-0.153-0.229-0.092-0.54,0.137-0.694c0.083-0.055,0.179-0.085,0.278-0.085
		c0.167,0,0.323,0.083,0.416,0.222c0.186,0.278,0.497,0.444,0.831,0.444c0.088,0,0.177-0.012,0.262-0.035l2.333-0.637l-5.124-1.397
		c-0.516-0.142-0.946-0.476-1.21-0.94c-0.264-0.465-0.332-1.004-0.19-1.52c0.141-0.515,0.475-0.945,0.94-1.209
		c0.303-0.172,0.644-0.263,0.987-0.263c0.179,0,0.358,0.024,0.533,0.073l5.972,1.629l5.97-1.63C18.144,17.023,18.318,17,18.493,17
		c0.597,0,1.157,0.262,1.538,0.718c0.343,0.41,0.505,0.929,0.457,1.461c-0.048,0.532-0.3,1.013-0.71,1.356
		c-0.089,0.075-0.203,0.116-0.32,0.116c-0.149,0-0.289-0.066-0.384-0.18c-0.085-0.102-0.126-0.232-0.114-0.365
		s0.075-0.254,0.178-0.339c0.205-0.171,0.331-0.412,0.355-0.678c0.024-0.266-0.057-0.525-0.228-0.73
		C19.073,18.131,18.792,18,18.494,18c-0.087,0-0.174,0.011-0.258,0.034l-4.332,1.183l3.127,0.853
		c0.515,0.139,0.946,0.471,1.212,0.934c0.266,0.463,0.336,1.002,0.196,1.518C18.204,23.392,17.41,24,16.509,24H16.499z M5.5,17.998
		c-0.171,0-0.342,0.045-0.493,0.132c-0.232,0.132-0.399,0.347-0.47,0.605s-0.037,0.528,0.095,0.76
		c0.132,0.232,0.347,0.399,0.605,0.47l10.999,3C16.322,22.988,16.411,23,16.5,23c0.003,0,0.007,0,0.01,0
		c0.453-0.003,0.847-0.306,0.964-0.739c0.07-0.258,0.035-0.527-0.098-0.759s-0.348-0.398-0.606-0.467l-11.001-3
		C5.68,18.01,5.59,17.998,5.5,17.998z"/>
	<path d="M8.842,16.528c-1.503,0-2.993-0.5-4.196-1.409c-0.013-0.01-0.026-0.021-0.038-0.032C3.893,14.421,3.489,13.48,3.5,12.504
		c-0.022-1.246,0.557-2.458,1.548-3.232C6.221,8.444,7.583,8.007,8.998,8H15c1.417,0.007,2.776,0.442,3.933,1.256
		c1.007,0.787,1.588,2.004,1.567,3.261c0.01,0.964-0.393,1.902-1.107,2.566c-0.013,0.012-0.027,0.023-0.04,0.033
		c-1.202,0.908-2.693,1.409-4.2,1.409c-0.114,0-0.229-0.003-0.344-0.009l-0.068,0c-0.172,0-0.283-0.002-0.374-0.012
		c-0.513-0.026-1-0.26-1.357-0.657c-0.357-0.398-0.539-0.91-0.512-1.443c0.055-1.065,0.936-1.899,2.005-1.899
		c0.032,0,0.063,0.001,0.095,0.002c0.072,0.003,0.145,0.005,0.22,0.005c0.705,0,1.281-0.153,1.433-0.38
		c0.071-0.107,0.05-0.283-0.064-0.524c-0.117-0.25-0.009-0.548,0.24-0.665c0.066-0.031,0.138-0.047,0.212-0.047
		c0.193,0,0.37,0.113,0.453,0.287c0.34,0.723,0.182,1.217-0.009,1.505c-0.455,0.681-1.484,0.824-2.268,0.824
		c-0.099,0-0.189-0.002-0.264-0.006c-0.023-0.001-0.042-0.002-0.061-0.002c-0.522,0-0.968,0.427-0.994,0.951
		c-0.014,0.267,0.078,0.524,0.257,0.723s0.425,0.316,0.692,0.33c0.086,0.009,0.232,0.009,0.388,0.009
		c0.109,0.005,0.205,0.007,0.301,0.007c1.293,0,2.569-0.423,3.594-1.19c0.497-0.472,0.778-1.135,0.771-1.821
		c0.016-0.957-0.419-1.873-1.163-2.456C17.365,9.375,16.207,9.006,14.998,9H9c-1.207,0.006-2.368,0.377-3.356,1.074
		C4.915,10.644,4.483,11.554,4.5,12.5c-0.007,0.698,0.273,1.364,0.771,1.837c1.027,0.768,2.294,1.191,3.57,1.191
		c0.1,0,0.2-0.003,0.3-0.008c0.124,0,0.211-0.003,0.283-0.006c0.067-0.002,0.117-0.004,0.155-0.004
		c0.246-0.013,0.488-0.13,0.667-0.329c0.179-0.199,0.271-0.455,0.257-0.723c-0.014-0.267-0.131-0.513-0.329-0.692
		c-0.187-0.169-0.418-0.258-0.667-0.258c-0.018,0-0.036,0-0.055,0.001c-0.078,0.003-0.168,0.006-0.269,0.006
		c-0.783,0-1.812-0.143-2.265-0.822c-0.192-0.287-0.35-0.782-0.011-1.506C6.988,11.013,7.165,10.9,7.359,10.9
		c0.074,0,0.145,0.016,0.212,0.047c0.25,0.117,0.358,0.415,0.241,0.665c-0.078,0.167-0.152,0.394-0.063,0.527
		c0.151,0.225,0.73,0.377,1.442,0.377c0.072,0,0.143-0.002,0.212-0.005c0.031-0.001,0.063-0.002,0.095-0.002
		c0.499,0,0.977,0.183,1.345,0.515c0.397,0.358,0.631,0.85,0.658,1.384c0.027,0.534-0.155,1.047-0.513,1.444
		c-0.358,0.397-0.849,0.63-1.384,0.658c-0.053,0-0.091,0.002-0.136,0.003c-0.085,0.003-0.186,0.006-0.303,0.006
		C9.066,16.525,8.954,16.528,8.842,16.528z"/>
</g>
</svg>
