<?xml version="1.0" encoding="utf-8"?>
<!-- Generator: Adobe Illustrator 22.1.0, SVG Export Plug-In . SVG Version: 6.00 Build 0)  -->
<svg version="1.1" id="Light" xmlns="http://www.w3.org/2000/svg" xmlns:xlink="http://www.w3.org/1999/xlink" x="0px" y="0px"
	 viewBox="0 0 24 24" style="enable-background:new 0 0 24 24;" xml:space="preserve">
<g>
	<title>yoga-meditate</title>
	<path d="M12.004,7c-1.93,0-3.5-1.57-3.5-3.5s1.57-3.5,3.5-3.5c1.93,0,3.5,1.57,3.5,3.5S13.934,7,12.004,7z M12.004,1
		c-1.379,0-2.5,1.121-2.5,2.5s1.121,2.5,2.5,2.5s2.5-1.121,2.5-2.5S13.382,1,12.004,1z"/>
	<path d="M7.505,24c-0.668,0-1.289-0.332-1.661-0.887c-0.153-0.229-0.092-0.54,0.137-0.694c0.082-0.055,0.178-0.084,0.278-0.084
		c0.167,0,0.323,0.083,0.416,0.222C6.861,22.834,7.172,23,7.506,23c0.088,0,0.177-0.012,0.262-0.035l2.337-0.639l-5.128-1.398
		c-1.064-0.293-1.692-1.396-1.4-2.459c0.238-0.866,1.031-1.47,1.929-1.47c0.178,0,0.356,0.024,0.529,0.072l1.973,0.538v-2.485
		c-0.812,0.572-1.785,0.882-2.79,0.882c-0.079,0-0.159-0.002-0.239-0.006c-0.043,0.003-0.108,0.004-0.173,0.004
		c-2.134,0-4.078-1.424-4.728-3.462c-0.143-0.531-0.073-1.074,0.193-1.539c0.266-0.464,0.698-0.797,1.214-0.936
		c0.17-0.046,0.344-0.069,0.519-0.069c0.889,0,1.677,0.594,1.923,1.446c0.154,0.346,0.497,0.569,0.878,0.569
		c0.043,0,0.087-0.003,0.13-0.009C4.956,12.002,4.98,12,5.004,12c0.56,0,1.931-1.187,2.679-2.828C8.006,8.461,8.721,8,9.503,8h5
		c0.785,0,1.5,0.461,1.823,1.173C17.075,10.813,18.446,12,19.006,12c0.024,0,0.048,0.002,0.072,0.005
		c0.042,0.006,0.086,0.009,0.13,0.009c0.381,0,0.723-0.223,0.877-0.569c0.246-0.852,1.034-1.446,1.923-1.446
		c0.175,0,0.349,0.023,0.519,0.069c1.066,0.286,1.7,1.386,1.414,2.452c-0.665,2.089-2.568,3.485-4.738,3.485c0,0,0,0,0,0
		c-0.073,0-0.147-0.002-0.22-0.005c-0.055,0.004-0.133,0.006-0.21,0.006c-0.993,0-1.958-0.31-2.768-0.882v2.485l1.973-0.539
		c0.173-0.046,0.35-0.07,0.526-0.07c0.347,0,0.69,0.092,0.994,0.266c0.463,0.266,0.795,0.697,0.934,1.213
		c0.203,0.751-0.052,1.559-0.65,2.057c-0.09,0.075-0.204,0.116-0.32,0.116c-0.149,0-0.289-0.065-0.384-0.18
		c-0.085-0.102-0.126-0.232-0.114-0.365c0.012-0.133,0.075-0.253,0.178-0.339c0.299-0.249,0.427-0.653,0.325-1.029
		c-0.07-0.258-0.236-0.473-0.467-0.606C18.846,18.046,18.675,18,18.502,18c-0.088,0-0.177,0.012-0.263,0.035l-2.604,0.71
		c-0.043,0.012-0.087,0.018-0.132,0.018c-0.109,0-0.217-0.037-0.304-0.103c-0.123-0.094-0.196-0.242-0.196-0.397V12.5
		c0-0.276,0.224-0.5,0.5-0.5s0.5,0.224,0.5,0.5v1.301c0.736,0.777,1.721,1.204,2.785,1.204c0.063,0,0.127-0.001,0.191-0.005
		c0.083,0.003,0.142,0.004,0.202,0.004c1.745,0,3.271-1.112,3.799-2.766c0.138-0.516-0.181-1.061-0.714-1.205
		c-0.085-0.023-0.172-0.034-0.259-0.034c-0.452,0-0.85,0.305-0.968,0.742c-0.006,0.022-0.012,0.04-0.019,0.057
		c-0.305,0.74-1.015,1.216-1.811,1.216c-0.08,0-0.16-0.005-0.24-0.015c-1.117-0.032-2.707-1.557-3.552-3.412
		C15.255,9.231,14.897,9,14.506,9H9.504c-0.391,0-0.749,0.23-0.911,0.587C7.747,11.442,6.157,12.968,5.04,13
		c-0.08,0.01-0.159,0.014-0.238,0.014c-0.795,0-1.504-0.476-1.808-1.212c-0.008-0.019-0.015-0.04-0.021-0.061
		c-0.069-0.259-0.235-0.475-0.467-0.608c-0.153-0.088-0.325-0.134-0.498-0.134c-0.088,0-0.176,0.012-0.262,0.035
		c-0.258,0.069-0.474,0.235-0.608,0.467c-0.134,0.232-0.169,0.502-0.1,0.76c0.514,1.611,2.07,2.744,3.781,2.744
		c0.054,0,0.109-0.001,0.164-0.003c0.084,0.003,0.145,0.004,0.207,0.004c1.083,0,2.078-0.425,2.814-1.198V12.5
		c0-0.276,0.224-0.5,0.5-0.5s0.5,0.224,0.5,0.5v1.445C9.006,13.957,9.009,13.977,9.009,14v4.263c0,0.155-0.073,0.303-0.196,0.397
		c-0.086,0.066-0.194,0.103-0.303,0.103c-0.045,0-0.09-0.006-0.133-0.018l-2.604-0.711c-0.087-0.024-0.176-0.036-0.265-0.036
		c-0.449,0-0.846,0.302-0.965,0.735c-0.146,0.531,0.168,1.083,0.699,1.229l10.999,3c0.086,0.023,0.175,0.035,0.263,0.035
		c0.45,0,0.847-0.303,0.965-0.737c0.07-0.258,0.036-0.528-0.097-0.76c-0.132-0.232-0.347-0.398-0.605-0.469l-4.217-1.15
		c-0.129-0.035-0.236-0.118-0.303-0.234s-0.083-0.251-0.048-0.38c0.059-0.217,0.257-0.369,0.482-0.369
		c0.045,0,0.089,0.006,0.133,0.018l4.216,1.15c0.516,0.14,0.946,0.473,1.211,0.937c0.265,0.464,0.334,1.003,0.193,1.519
		c-0.237,0.868-1.031,1.474-1.93,1.474c-0.177,0-0.353-0.024-0.525-0.071l-3.973-1.084L8.031,23.93C7.858,23.976,7.682,24,7.505,24z
		"/>
</g>
</svg>
