<?xml version="1.0" encoding="utf-8"?>
<!-- Generator: Adobe Illustrator 22.1.0, SVG Export Plug-In . SVG Version: 6.00 Build 0)  -->
<svg version="1.1" id="Light" xmlns="http://www.w3.org/2000/svg" xmlns:xlink="http://www.w3.org/1999/xlink" x="0px" y="0px"
	 viewBox="0 0 24 24" style="enable-background:new 0 0 24 24;" xml:space="preserve">
<g>
	<title>yoga-stretch</title>
	<path d="M15.499,5.5c-1.378,0-2.5-1.121-2.5-2.5s1.122-2.5,2.5-2.5s2.5,1.121,2.5,2.5S16.878,5.5,15.499,5.5z M15.499,1.5
		c-0.827,0-1.5,0.673-1.5,1.5s0.673,1.5,1.5,1.5s1.5-0.673,1.5-1.5S16.327,1.5,15.499,1.5z"/>
	<path d="M5.999,11.5c-1.379,0-2.5-1.121-2.5-2.5s1.121-2.5,2.5-2.5s2.5,1.121,2.5,2.5S7.378,11.5,5.999,11.5z M5.999,7.5
		c-0.827,0-1.5,0.673-1.5,1.5s0.673,1.5,1.5,1.5s1.5-0.673,1.5-1.5S6.827,7.5,5.999,7.5z"/>
	<path d="M8.497,23.5c-0.27,0-0.536-0.074-0.77-0.214c-0.344-0.206-0.586-0.534-0.683-0.922c-0.097-0.389-0.037-0.792,0.169-1.136
		L7.35,21l-2.7,0l0.138,0.227c0.426,0.709,0.195,1.633-0.514,2.058c-0.234,0.14-0.5,0.214-0.77,0.214
		c-0.123,0-0.246-0.015-0.366-0.045c-0.389-0.097-0.716-0.34-0.922-0.683l-0.592-0.984c-0.23-0.383-0.353-0.822-0.357-1.268
		c-0.005-0.668,0.25-1.297,0.719-1.773c0.41-0.416,0.94-0.671,1.514-0.731l0-1.694c0,0-1.097,0.878-1.12,0.895
		c-0.262,0.198-0.573,0.302-0.9,0.302c-0.07,0-0.141-0.005-0.211-0.015c-0.397-0.056-0.748-0.262-0.989-0.582
		c-0.241-0.32-0.344-0.715-0.288-1.112c0.055-0.397,0.262-0.748,0.582-0.99l0.927-0.742C2.773,13.06,4.37,12.5,5.998,12.5
		c1.63,0,3.227,0.56,4.499,1.577l0.939,0.751c0.617,0.523,0.717,1.422,0.238,2.057c-0.241,0.32-0.593,0.526-0.989,0.582
		c-0.071,0.01-0.141,0.015-0.211,0.015l0,0c-0.326,0-0.638-0.105-0.9-0.302l-1.075-0.859v1.702c0.353,0.029,0.702,0.143,1.019,0.333
		c0.572,0.343,0.976,0.889,1.138,1.538c0.162,0.649,0.062,1.321-0.281,1.893l-0.591,0.985c-0.206,0.343-0.534,0.586-0.922,0.683
		C8.743,23.485,8.62,23.5,8.497,23.5z M7.349,20c0.551,0,1,0.448,1,1c0,0.181-0.049,0.359-0.142,0.514L8.07,21.742
		c-0.069,0.115-0.089,0.249-0.056,0.378c0.032,0.129,0.113,0.239,0.228,0.307C8.32,22.475,8.408,22.5,8.498,22.5
		c0.041,0,0.082-0.005,0.123-0.015c0.129-0.032,0.239-0.113,0.307-0.228l0.591-0.985c0.425-0.709,0.195-1.633-0.515-2.058
		C8.775,19.076,8.512,19.002,8.244,19c0,0,0,0,0,0c-0.407,0-0.728-0.312-0.743-0.711l0-1.969c0-0.268,0.105-0.519,0.294-0.707
		c0.189-0.188,0.439-0.292,0.706-0.292c0.226,0,0.447,0.077,0.624,0.218l1.064,0.851c0.077,0.058,0.182,0.092,0.289,0.092
		c0.024,0,0.047-0.002,0.071-0.005c0.131-0.018,0.248-0.087,0.329-0.194c0.159-0.211,0.126-0.51-0.074-0.681l-0.93-0.743
		C8.778,13.982,7.403,13.5,6.001,13.5c-1.405,0-2.78,0.482-3.875,1.359l-0.938,0.75c-0.229,0.173-0.276,0.489-0.11,0.709
		c0.081,0.107,0.198,0.176,0.33,0.194c0.023,0.003,0.047,0.005,0.071,0.005c0.109,0,0.212-0.035,0.3-0.101l1.097-0.877
		c0.177-0.141,0.398-0.219,0.623-0.219c0.038,0,0.075,0.002,0.113,0.007c0.265,0.03,0.503,0.161,0.67,0.37
		c0.141,0.176,0.218,0.397,0.219,0.622v1.947C4.491,18.68,4.166,19,3.758,19c-0.831,0.006-1.498,0.684-1.492,1.511
		c0.002,0.268,0.076,0.531,0.214,0.761l0.592,0.985c0.069,0.115,0.178,0.196,0.308,0.228c0.04,0.01,0.081,0.015,0.122,0.015
		c0.09,0,0.178-0.025,0.256-0.071c0.236-0.142,0.313-0.449,0.172-0.686l-0.137-0.228c-0.283-0.474-0.129-1.089,0.343-1.373
		C4.291,20.05,4.467,20.001,4.648,20c0,0,0.001,0,0.001,0H7.349z"/>
	<path d="M16.999,23.5c-0.575,0-1.123-0.253-1.5-0.679c-0.377,0.426-0.925,0.679-1.5,0.679c-1.103,0-2-0.897-2-2v-3
		c0-0.276,0.224-0.5,0.5-0.5c0.276,0,0.5,0.224,0.5,0.5v3c0,0.552,0.448,1,1,1s1-0.448,1-1v-5c0-0.276,0.224-0.5,0.5-0.5
		s0.5,0.224,0.5,0.5v5c0,0.552,0.448,1,1,1s1-0.448,1-1V9.192c0-0.421,0.178-0.825,0.489-1.108l4.344-4.21
		c0.106-0.098,0.162-0.22,0.167-0.355c0.005-0.134-0.042-0.261-0.134-0.359C22.77,3.056,22.64,3,22.499,3
		c-0.127,0-0.248,0.047-0.341,0.134l-3.6,3.347c-0.831,0.771-1.918,1.195-3.061,1.195s-2.23-0.424-3.06-1.195
		c-2.213-2.051-3.383-3.142-3.578-3.335c-0.097-0.097-0.223-0.15-0.358-0.15c-0.134,0-0.26,0.052-0.355,0.147
		C8.051,3.238,7.999,3.364,7.999,3.498c0,0.134,0.052,0.26,0.147,0.355l0.059,0.059c1.661,1.662,3.152,3.106,4.313,4.174
		c0.308,0.283,0.483,0.686,0.481,1.104V13c0,0.276-0.224,0.5-0.5,0.5c-0.276,0-0.5-0.224-0.5-0.5V9.189
		c0.001-0.14-0.057-0.273-0.159-0.366c-1.173-1.08-2.675-2.534-4.343-4.203L7.439,4.56c-0.284-0.284-0.44-0.661-0.44-1.062
		c0-0.401,0.157-0.778,0.441-1.062c0.284-0.283,0.661-0.44,1.062-0.44c0.402,0,0.779,0.157,1.063,0.441
		c0.127,0.125,0.848,0.803,3.553,3.311c0.646,0.599,1.491,0.928,2.38,0.928s1.735-0.33,2.381-0.928l3.599-3.347
		C21.756,2.142,22.119,2,22.499,2c0.417,0,0.817,0.174,1.1,0.479c0.273,0.293,0.415,0.676,0.4,1.077
		c-0.015,0.4-0.184,0.771-0.478,1.044l-4.347,4.213c-0.114,0.104-0.174,0.237-0.174,0.38V21.5
		C18.999,22.603,18.102,23.5,16.999,23.5z"/>
</g>
</svg>
