<?xml version="1.0" encoding="utf-8"?>
<!-- Generator: Adobe Illustrator 22.1.0, SVG Export Plug-In . SVG Version: 6.00 Build 0)  -->
<svg version="1.1" id="Light" xmlns="http://www.w3.org/2000/svg" xmlns:xlink="http://www.w3.org/1999/xlink" x="0px" y="0px"
	 viewBox="0 0 24 24" style="enable-background:new 0 0 24 24;" xml:space="preserve">
<g>
	<title>yoga-back-stretch</title>
	<path d="M5.811,24c-1.654,0-3-1.346-3-3s1.346-3,3-3s3,1.346,3,3S7.465,24,5.811,24z M5.811,19c-1.103,0-2,0.897-2,2s0.897,2,2,2
		s2-0.897,2-2S6.914,19,5.811,19z"/>
	<path d="M12.311,24c-0.801,0-1.555-0.312-2.121-0.878C9.623,22.555,9.311,21.802,9.311,21c0-0.218,0.024-0.436,0.071-0.649
		l1.849-7.282c0.048-0.189,0.059-0.382,0.031-0.574L9.816,2.069C9.813,2.046,9.811,2.023,9.811,2c0-1.103,0.897-2,2-2
		c1.086,0,1.98,0.879,2,1.964l1.496,10.969c0.003,0.023,0.004,0.046,0.004,0.068c0,0.164-0.021,0.328-0.061,0.489L13.596,20h2.979
		l-1.553-3.105c-0.239-0.478-0.277-1.02-0.109-1.527c0.169-0.507,0.525-0.918,1.003-1.157c0.281-0.141,0.582-0.212,0.893-0.212
		c0.215,0,0.428,0.035,0.634,0.103c0.507,0.169,0.918,0.525,1.157,1.003l2.276,4.553c0.358,0.717,0.416,1.53,0.163,2.29
		c-0.253,0.76-0.787,1.376-1.504,1.735C19.121,23.89,18.657,24,18.193,24H12.311z M18.193,23c0.309,0,0.618-0.073,0.894-0.211
		c0.478-0.239,0.834-0.649,1.003-1.156c0.169-0.507,0.13-1.049-0.109-1.527l-2.276-4.553c-0.119-0.239-0.325-0.417-0.579-0.502
		c-0.103-0.034-0.21-0.052-0.317-0.052c-0.155,0-0.305,0.036-0.446,0.106c-0.239,0.119-0.417,0.325-0.502,0.579
		c-0.084,0.253-0.065,0.524,0.054,0.763l1.915,3.829c0.077,0.154,0.069,0.34-0.022,0.487C17.719,20.909,17.556,21,17.384,21h-2.073
		v2H18.193z M10.355,20.582c-0.028,0.128-0.044,0.275-0.044,0.418c0,0.534,0.208,1.036,0.586,1.414
		C11.274,22.792,11.777,23,12.311,23h2v-2h-1.358c-0.155,0-0.299-0.07-0.395-0.193c-0.095-0.123-0.128-0.28-0.09-0.43l1.393-5.481
		l-1.98-0.328L10.355,20.582z M14.109,13.923l0.172-0.677c0.017-0.07,0.027-0.143,0.03-0.216L12.816,2.068
		C12.813,2.044,12.811,2.022,12.811,2c0-0.551-0.448-1-1-1c-0.538,0-0.983,0.433-1,0.969l1.441,10.387
		C12.298,12.677,12.28,13,12.2,13.315l-0.071,0.279L14.109,13.923z"/>
</g>
</svg>
