<?xml version="1.0" encoding="utf-8"?>
<!-- Generator: Adobe Illustrator 22.1.0, SVG Export Plug-In . SVG Version: 6.00 Build 0)  -->
<svg version="1.1" id="Light" xmlns="http://www.w3.org/2000/svg" xmlns:xlink="http://www.w3.org/1999/xlink" x="0px" y="0px"
	 viewBox="0 0 24 24" style="enable-background:new 0 0 24 24;" xml:space="preserve">
<g>
	<title>real-estate-insurance-dollar-hand</title>
	<path d="M9,13.944c-0.551,0-1-0.448-1-1v-4.5c0-0.276,0.224-0.5,0.5-0.5S9,8.168,9,8.444v4.5h8v-4.5c0-0.276,0.224-0.5,0.5-0.5
		s0.5,0.224,0.5,0.5v4.5c0,0.552-0.448,1-1,1H9z"/>
	<path d="M20.5,7.444c-0.12,0-0.236-0.043-0.327-0.122l-7.174-6.216L5.827,7.322C5.737,7.401,5.62,7.444,5.5,7.444l0,0
		c-0.145,0-0.283-0.063-0.378-0.173c-0.18-0.208-0.158-0.525,0.051-0.705l7.173-6.216C12.527,0.194,12.759,0.108,13,0.108
		c0.241,0,0.473,0.086,0.654,0.242l7.174,6.217c0.208,0.181,0.231,0.497,0.05,0.705C20.783,7.381,20.645,7.444,20.5,7.444z"/>
	<path d="M12.661,23.876c-1.376,0-2.893-0.527-5.405-1.399l-0.034-0.011C6.56,22.236,5.827,21.982,5,21.702v0.242
		c0,0.552-0.449,1-1,1H1c-0.551,0-1-0.448-1-1v-7c0-0.552,0.449-1,1-1h3c0.551,0,1,0.448,1,1h2.5c1.775,0,3.164,1.017,3.993,1.625
		c0.158,0.116,0.445,0.326,0.549,0.375l3.457,0c0.722,0,1.141,0.584,1.231,1.232l3.618-1.146c0.305-0.091,0.617-0.136,0.931-0.136
		c1.03,0,2.01,0.492,2.621,1.315c0.088,0.118,0.119,0.269,0.085,0.414c-0.034,0.144-0.13,0.265-0.262,0.331
		c-2.034,1.017-3.628,1.865-4.909,2.546C15.839,23.083,14.346,23.876,12.661,23.876z M5,20.647c1.007,0.338,1.878,0.64,2.584,0.886
		c2.485,0.863,3.854,1.338,5.063,1.338c1.461,0,2.788-0.706,5.696-2.252c1.148-0.61,2.561-1.362,4.324-2.252
		c-0.394-0.303-0.884-0.472-1.386-0.472c-0.216,0-0.431,0.031-0.638,0.093l-4.093,1.296c-0.222,0.422-0.6,0.662-1.05,0.662H10
		c-0.276,0-0.5-0.224-0.5-0.5s0.224-0.5,0.5-0.5h5.5c0.208,0,0.25-0.394,0.25-0.5s-0.042-0.5-0.25-0.5H12
		c-0.321,0-0.613-0.214-1.097-0.568c-0.779-0.571-1.956-1.432-3.403-1.432H5V20.647z M1,21.944h3v-7l-3,0L1,21.944z"/>
	<path d="M13,11.476c-0.276,0-0.5-0.224-0.5-0.5v-0.35c-0.683-0.215-1.16-0.85-1.159-1.582c0-0.275,0.224-0.5,0.5-0.5
		c0.276,0,0.5,0.225,0.5,0.5c0,0.363,0.295,0.659,0.658,0.66c0.364,0,0.659-0.295,0.659-0.658c0-0.176-0.068-0.342-0.193-0.466
		c-0.124-0.125-0.29-0.193-0.466-0.193c-0.916,0-1.661-0.744-1.661-1.659c-0.001-0.733,0.477-1.369,1.161-1.584v-0.35
		c0-0.276,0.224-0.5,0.5-0.5s0.5,0.224,0.5,0.5v0.35c0.682,0.215,1.158,0.849,1.159,1.58c0,0.138-0.112,0.25-0.249,0.25
		c0,0-0.5,0.001-0.501,0.001c-0.066,0-0.13-0.026-0.177-0.073c-0.047-0.047-0.073-0.11-0.073-0.177c0-0.358-0.288-0.651-0.643-0.66
		c-0.005,0-0.028,0-0.034,0c-0.356,0.009-0.644,0.302-0.643,0.66c0,0.364,0.297,0.659,0.66,0.659c0.445,0,0.862,0.173,1.175,0.487
		c0.313,0.314,0.485,0.731,0.485,1.174c0,0.731-0.477,1.365-1.159,1.579v0.35C13.5,11.252,13.276,11.476,13,11.476z"/>
</g>
</svg>
