<?xml version="1.0" encoding="utf-8"?>
<!-- Generator: Adobe Illustrator 22.1.0, SVG Export Plug-In . SVG Version: 6.00 Build 0)  -->
<svg version="1.1" id="Light" xmlns="http://www.w3.org/2000/svg" xmlns:xlink="http://www.w3.org/1999/xlink" x="0px" y="0px"
	 viewBox="0 0 24 24" style="enable-background:new 0 0 24 24;" xml:space="preserve">
<g>
	<title>real-estate-insurance-house</title>
	<path d="M9,14.023c-0.551,0-1-0.448-1-1v-4.5c0-0.276,0.224-0.5,0.5-0.5S9,8.247,9,8.523v4.5h2v-3c0-0.551,0.449-1,1-1h2
		c0.552,0,1,0.449,1,1v3h2v-4.5c0-0.276,0.224-0.5,0.5-0.5s0.5,0.224,0.5,0.5v4.5c0,0.552-0.448,1-1,1H9z M14,13.023v-3h-2l0,3H14z"
		/>
	<path d="M5.5,7.523c-0.146,0-0.283-0.063-0.378-0.173c-0.18-0.208-0.157-0.524,0.051-0.705l7.173-6.216
		C12.526,0.272,12.759,0.186,13,0.186c0.241,0,0.473,0.086,0.654,0.242l7.174,6.216c0.208,0.181,0.231,0.497,0.05,0.705
		c-0.095,0.11-0.233,0.173-0.378,0.173c-0.12,0-0.237-0.043-0.327-0.122l-7.173-6.216L5.827,7.401C5.736,7.479,5.62,7.523,5.5,7.523
		L5.5,7.523z"/>
	<path d="M18.5,3.523c-0.276,0-0.5-0.224-0.5-0.5v-2h-2c-0.276,0-0.5-0.224-0.5-0.5s0.224-0.5,0.5-0.5h2c0.552,0,1,0.449,1,1v2
		C19,3.298,18.776,3.523,18.5,3.523z"/>
	<path d="M12.661,23.955c-1.376,0-2.893-0.527-5.405-1.399l-0.034-0.011C6.56,22.315,5.827,22.06,5,21.781v0.242
		c0,0.552-0.449,1-1,1H1c-0.551,0-1-0.448-1-1v-7c0-0.552,0.449-1,1-1h3c0.551,0,1,0.448,1,1h2.5c1.775,0,3.164,1.017,3.993,1.625
		c0.158,0.116,0.445,0.326,0.549,0.375l3.457,0c0.722,0,1.141,0.584,1.231,1.232l3.618-1.146c0.305-0.091,0.617-0.136,0.931-0.136
		c1.031,0,2.011,0.491,2.622,1.315c0.088,0.118,0.119,0.269,0.085,0.414c-0.034,0.144-0.13,0.265-0.262,0.331
		c-2.034,1.017-3.628,1.865-4.909,2.546C15.839,23.161,14.346,23.955,12.661,23.955z M5,20.726c1.007,0.338,1.878,0.64,2.584,0.886
		c2.485,0.863,3.854,1.338,5.063,1.338c1.461,0,2.788-0.706,5.696-2.252c1.148-0.61,2.561-1.362,4.324-2.252
		c-0.394-0.303-0.883-0.472-1.386-0.472c-0.216,0-0.431,0.031-0.639,0.093l-4.092,1.296c-0.222,0.422-0.6,0.662-1.05,0.662H10
		c-0.276,0-0.5-0.224-0.5-0.5s0.224-0.5,0.5-0.5h5.5c0.208,0,0.25-0.394,0.25-0.5s-0.042-0.5-0.25-0.5H12
		c-0.321,0-0.613-0.214-1.097-0.568c-0.779-0.571-1.956-1.432-3.403-1.432H5V20.726z M1,22.023h3v-7l-3,0L1,22.023z"/>
</g>
</svg>
