<?xml version="1.0" encoding="utf-8"?>
<!-- Generator: Adobe Illustrator 22.1.0, SVG Export Plug-In . SVG Version: 6.00 Build 0)  -->
<svg version="1.1" id="Light" xmlns="http://www.w3.org/2000/svg" xmlns:xlink="http://www.w3.org/1999/xlink" x="0px" y="0px"
	 viewBox="0 0 24 24" style="enable-background:new 0 0 24 24;" xml:space="preserve">
<g>
	<title>real-estate-insurance-building-1</title>
	<path d="M0.5,24C0.224,24,0,23.776,0,23.5v-10C0,13.224,0.224,13,0.5,13S1,13.224,1,13.5V14h6.5c2.298,0,4.216,1.739,4.467,4H14.5
		c2.481,0,4.5,2.019,4.5,4.5c0,0.276-0.224,0.5-0.5,0.5H1v0.5C1,23.776,0.776,24,0.5,24z M17.964,22c-0.245-1.702-1.718-3-3.464-3H7
		c-0.276,0-0.5-0.224-0.5-0.5S6.724,18,7,18h3.964c-0.245-1.702-1.717-3-3.464-3H1v7H17.964z"/>
	<path d="M12,14c-0.551,0-1-0.448-1-1V7.5C11,6.673,11.673,6,12.5,6H17V3.89c0-0.46,0.312-0.859,0.758-0.97L21,2.109V0.5
		C21,0.224,21.224,0,21.5,0S22,0.224,22,0.5v1.359l0.758-0.189C22.837,1.65,22.919,1.64,23,1.64c0.459,0,0.858,0.312,0.97,0.758
		C23.99,2.476,24,2.558,24,2.64V13c0,0.552-0.448,1-1,1H12z M23,13V2.64l-5,1.25V13H23z M12.5,7C12.224,7,12,7.224,12,7.5V13h5V7
		H12.5z"/>
	<path d="M19.5,6C19.224,6,19,5.776,19,5.5S19.224,5,19.5,5h2C21.776,5,22,5.224,22,5.5S21.776,6,21.5,6H19.5z"/>
	<path d="M19.5,8C19.224,8,19,7.776,19,7.5S19.224,7,19.5,7h2C21.776,7,22,7.224,22,7.5S21.776,8,21.5,8H19.5z"/>
	<path d="M19.5,10C19.224,10,19,9.776,19,9.5S19.224,9,19.5,9h2C21.776,9,22,9.224,22,9.5S21.776,10,21.5,10H19.5z"/>
	<path d="M13.5,9C13.224,9,13,8.776,13,8.5S13.224,8,13.5,8h2C15.776,8,16,8.224,16,8.5S15.776,9,15.5,9H13.5z"/>
	<path d="M13.5,11c-0.276,0-0.5-0.224-0.5-0.5s0.224-0.5,0.5-0.5h2c0.276,0,0.5,0.224,0.5,0.5S15.776,11,15.5,11H13.5z"/>
</g>
</svg>
