<?xml version="1.0" encoding="utf-8"?>
<!-- Generator: Adobe Illustrator 22.1.0, SVG Export Plug-In . SVG Version: 6.00 Build 0)  -->
<svg version="1.1" id="Light" xmlns="http://www.w3.org/2000/svg" xmlns:xlink="http://www.w3.org/1999/xlink" x="0px" y="0px"
	 viewBox="0 0 24 24" style="enable-background:new 0 0 24 24;" xml:space="preserve">
<g>
	<title>real-estate-insurance-dollar-hand-1</title>
	<path d="M0.5,23.919c-0.276,0-0.5-0.224-0.5-0.5v-10c0-0.276,0.224-0.5,0.5-0.5s0.5,0.224,0.5,0.5v0.5h6.5
		c2.298,0,4.216,1.739,4.467,4H14.5c2.481,0,4.5,2.019,4.5,4.5c0,0.276-0.224,0.5-0.5,0.5H1v0.5C1,23.695,0.776,23.919,0.5,23.919z
		 M17.964,21.919c-0.245-1.702-1.718-3-3.464-3H7c-0.276,0-0.5-0.224-0.5-0.5s0.224-0.5,0.5-0.5h3.964c-0.245-1.702-1.717-3-3.464-3
		H1v7H17.964z"/>
	<path d="M16.5,10.919c-0.276,0-0.5-0.224-0.5-0.5v-0.5h-1.5c-0.276,0-0.5-0.224-0.5-0.5s0.224-0.5,0.5-0.5h3
		c0.276,0,0.5-0.224,0.5-0.5s-0.224-0.5-0.5-0.5h-2c-0.827,0-1.5-0.673-1.5-1.5s0.673-1.5,1.5-1.5H16v-0.5
		c0-0.276,0.224-0.5,0.5-0.5s0.5,0.224,0.5,0.5v0.5h1.5c0.276,0,0.5,0.224,0.5,0.5s-0.224,0.5-0.5,0.5h-3
		c-0.276,0-0.5,0.224-0.5,0.5s0.224,0.5,0.5,0.5h2c0.827,0,1.5,0.673,1.5,1.5s-0.673,1.5-1.5,1.5H17v0.5
		C17,10.695,16.776,10.919,16.5,10.919z"/>
	<path d="M12,12.919c-0.551,0-1-0.448-1-1V5.792L9.826,6.799C9.735,6.876,9.619,6.919,9.5,6.919c-0.146,0-0.285-0.064-0.38-0.174
		C9.034,6.643,8.991,6.514,9.002,6.381S9.073,6.126,9.175,6.04l6.675-5.721c0.182-0.156,0.413-0.242,0.65-0.242
		s0.468,0.086,0.65,0.241l6.675,5.721c0.102,0.087,0.163,0.208,0.173,0.341s-0.032,0.262-0.119,0.364
		c-0.096,0.111-0.234,0.175-0.38,0.175c-0.119,0-0.235-0.043-0.325-0.12L22,5.792v6.127c0,0.552-0.448,1-1,1H12z M12,11.919h9V4.935
		l-4.5-3.857L12,4.935V11.919z"/>
</g>
</svg>
