<?xml version="1.0" encoding="utf-8"?>
<!-- Generator: Adobe Illustrator 22.1.0, SVG Export Plug-In . SVG Version: 6.00 Build 0)  -->
<svg version="1.1" id="Light" xmlns="http://www.w3.org/2000/svg" xmlns:xlink="http://www.w3.org/1999/xlink" x="0px" y="0px"
	 viewBox="0 0 24 24" style="enable-background:new 0 0 24 24;" xml:space="preserve">
<g>
	<title>shelf-tv</title>
	<path d="M20.042,24c-0.189,0-0.359-0.104-0.445-0.272l-1.587-3.109c-0.21-0.359-0.601-0.595-1.038-0.62L7.021,20
		c-0.414,0.023-0.8,0.263-1.017,0.642l-1.557,3.083C4.361,23.895,4.19,24,4,24H0.5C0.224,24,0,23.776,0,23.5v-10
		C0,12.673,0.673,12,1.5,12h10v-2h-6C4.673,10,4,9.327,4,8.5v-7C4,0.673,4.673,0,5.5,0h13C19.327,0,20,0.673,20,1.5v7
		c0,0.827-0.673,1.5-1.5,1.5h-6v2h10c0.827,0,1.5,0.673,1.5,1.5v10c0,0.276-0.224,0.5-0.5,0.5H20.042z M23,23v-9.5
		c0-0.276-0.224-0.5-0.5-0.5h-21C1.224,13,1,13.224,1,13.5V23h2.692l1.431-2.833c0.397-0.693,1.094-1.125,1.87-1.167
		c0,0,10.015,0,10.02,0c0.782,0.043,1.483,0.469,1.874,1.139L20.348,23H23z M5.5,1C5.224,1,5,1.224,5,1.5v7C5,8.776,5.224,9,5.5,9
		h13C18.776,9,19,8.776,19,8.5v-7C19,1.224,18.776,1,18.5,1H5.5z"/>
	<path d="M3,18c-0.551,0-1-0.448-1-1v-2c0-0.552,0.449-1,1-1h7c0.551,0,1,0.448,1,1v2c0,0.552-0.449,1-1,1H3z M3,17h7v-2H3L3,17z"/>
	<path d="M14,18c-0.552,0-1-0.448-1-1v-2c0-0.552,0.448-1,1-1h7c0.552,0,1,0.448,1,1v2c0,0.552-0.448,1-1,1H14z M14,17h7v-2h-7
		L14,17z"/>
</g>
</svg>
