<?xml version="1.0" encoding="utf-8"?>
<!-- Generator: Adobe Illustrator 22.1.0, SVG Export Plug-In . SVG Version: 6.00 Build 0)  -->
<svg version="1.1" id="Light" xmlns="http://www.w3.org/2000/svg" xmlns:xlink="http://www.w3.org/1999/xlink" x="0px" y="0px"
	 viewBox="0 0 24 24" style="enable-background:new 0 0 24 24;" xml:space="preserve">
<g>
	<title>shelf-tv-1</title>
	<path d="M1.5,24C0.673,24,0,23.327,0,22.5v-9C0,12.673,0.673,12,1.5,12h10v-2h-8C2.673,10,2,9.327,2,8.5v-7C2,0.673,2.673,0,3.5,0
		h17C21.327,0,22,0.673,22,1.5v7c0,0.827-0.673,1.5-1.5,1.5h-8v2h10c0.827,0,1.5,0.673,1.5,1.5v9c0,0.827-0.673,1.5-1.5,1.5H1.5z
		 M22.5,23c0.276,0,0.5-0.224,0.5-0.5V16H12.5v7H22.5z M1,22.5C1,22.776,1.224,23,1.5,23h10v-7H1V22.5z M23,15v-1.5
		c0-0.276-0.224-0.5-0.5-0.5h-21C1.224,13,1,13.224,1,13.5V15H23z M3.5,1C3.224,1,3,1.224,3,1.5v7C3,8.776,3.224,9,3.5,9h17
		C20.776,9,21,8.776,21,8.5v-7C21,1.224,20.776,1,20.5,1H3.5z"/>
	<circle cx="9.75" cy="17.75" r="0.75"/>
	<circle cx="14.25" cy="17.75" r="0.75"/>
</g>
</svg>
