<?xml version="1.0" encoding="utf-8"?>
<!-- Generator: Adobe Illustrator 22.1.0, SVG Export Plug-In . SVG Version: 6.00 Build 0)  -->
<svg version="1.1" id="Light" xmlns="http://www.w3.org/2000/svg" xmlns:xlink="http://www.w3.org/1999/xlink" x="0px" y="0px"
	 viewBox="0 0 24 24" style="enable-background:new 0 0 24 24;" xml:space="preserve">
<g>
	<title>shelf-books</title>
	<path d="M1.5,23.5C0.673,23.5,0,22.827,0,22V2c0-0.827,0.673-1.5,1.5-1.5h21C23.327,0.5,24,1.173,24,2v20
		c0,0.827-0.673,1.5-1.5,1.5H1.5z M1,22c0,0.276,0.224,0.5,0.5,0.5h21c0.276,0,0.5-0.224,0.5-0.5v-3.5H1V22z M23,17.5v-7H1v7h9.313
		l1.622-4.057c0.229-0.573,0.776-0.943,1.393-0.943h7.585c0.267,0,0.518,0.104,0.707,0.293c0.189,0.189,0.293,0.44,0.293,0.708
		c0,0.128-0.024,0.253-0.072,0.372L20.391,17.5H23z M19.314,17.5l1.6-4l-1.923,0l-1.6,4H19.314z M16.314,17.5l1.6-4H15.99l-1.6,4
		H16.314z M13.314,17.5l1.6-4h-1.584c-0.206,0-0.388,0.124-0.465,0.315L11.391,17.5H13.314z M23,9.5v-4h-2v4H23z M20,9.5v-4h-2v4H20
		z M17,9.5V5c0-0.276,0.224-0.5,0.5-0.5H23V2c0-0.276-0.224-0.5-0.5-0.5h-21C1.224,1.5,1,1.724,1,2v2.5h11.5
		C12.776,4.5,13,4.724,13,5v4.5H17z M12,9.5v-4h-2v4H12z M9,9.5v-4H7v4H9z M6,9.5v-4H4v4H6z M3,9.5v-4H1v4H3z"/>
</g>
</svg>
