<?xml version="1.0" encoding="utf-8"?>
<!-- Generator: Adobe Illustrator 22.1.0, SVG Export Plug-In . SVG Version: 6.00 Build 0)  -->
<svg version="1.1" id="Light" xmlns="http://www.w3.org/2000/svg" xmlns:xlink="http://www.w3.org/1999/xlink" x="0px" y="0px"
	 viewBox="0 0 24 24" style="enable-background:new 0 0 24 24;" xml:space="preserve">
<g>
	<title>concert-dj</title>
	<path d="M7.009,22c-1.682,0-3-0.878-3-2s1.318-2,3-2s3,0.878,3,2S8.692,22,7.009,22z M7.009,19c-1.145,0-2,0.528-2,1s0.855,1,2,1
		s2-0.528,2-1S8.154,19,7.009,19z"/>
	<path d="M16.999,22c-1.682,0-3-0.878-3-2s1.318-2,3-2s3,0.878,3,2S18.681,22,16.999,22z M16.999,19c-1.145,0-2,0.528-2,1
		s0.855,1,2,1s2-0.528,2-1S18.144,19,16.999,19z"/>
	<path d="M11.999,10c-1.654,0-3-1.346-3-3s1.346-3,3-3c1.654,0,3,1.346,3,3S13.654,10,11.999,10z M11.999,5c-1.103,0-2,0.897-2,2
		s0.897,2,2,2s2-0.897,2-2S13.102,5,11.999,5z"/>
	<path d="M16.499,9c-0.276,0-0.5-0.224-0.5-0.5V4.508l-0.003-0.051c-0.067-0.989-0.516-1.895-1.265-2.549
		C14.053,1.316,13.186,0.99,12.29,0.99c-0.085,0-0.171,0.003-0.257,0.009C12.027,0.999,12.004,1,11.998,1l-0.104-0.005
		c-0.06-0.003-0.122-0.005-0.184-0.005c-1.981,0-3.612,1.551-3.712,3.531l0,3.979c0,0.276-0.224,0.5-0.5,0.5H6.458
		c-1.379,0-2.5-1.121-2.5-2.5S5.08,4,6.458,4h0.595C7.4,1.699,9.363-0.01,11.71-0.01c0.079,0,0.158,0.002,0.238,0.006l0.05,0.003
		c0.098-0.006,0.195-0.009,0.291-0.009c1.139,0,2.24,0.414,3.1,1.165C16.232,1.891,16.779,2.894,16.946,4h0.553
		c1.378,0,2.5,1.121,2.5,2.5S18.878,9,17.499,9H16.499z M17.499,8c0.827,0,1.5-0.673,1.5-1.5S18.326,5,17.499,5h-0.5v3H17.499z
		 M6.458,5c-0.827,0-1.5,0.673-1.5,1.5S5.631,8,6.458,8h0.541V5H6.458z"/>
	<path d="M16.496,15.021c-0.248,0-0.455-0.18-0.491-0.427C15.787,13.115,14.496,12,13.002,12h-2.002
		c-1.498,0-2.788,1.115-3.005,2.594c-0.036,0.243-0.248,0.427-0.494,0.427c-0.025,0-0.05-0.002-0.076-0.006
		c-0.27-0.04-0.459-0.294-0.419-0.567C7.293,12.482,9.009,11,10.996,11h2.003c1.99,0,3.706,1.482,3.995,3.448
		c0.04,0.273-0.149,0.527-0.422,0.567C16.548,15.02,16.522,15.021,16.496,15.021z"/>
	<path d="M1.499,24c-0.14,0-0.278-0.02-0.412-0.058c-0.385-0.11-0.704-0.364-0.898-0.714c-0.195-0.35-0.241-0.755-0.131-1.141
		l1.428-5C1.669,16.447,2.262,16,2.928,16H21.07c0.667,0,1.259,0.447,1.443,1.087l1.429,5C23.98,22.222,24,22.361,24,22.5
		c0,0.401-0.156,0.778-0.44,1.061C23.277,23.844,22.9,24,22.5,24H1.499z M2.928,17c-0.222,0-0.42,0.149-0.481,0.363l-1.428,5
		c-0.037,0.129-0.021,0.264,0.044,0.38c0.065,0.117,0.171,0.201,0.3,0.238C1.407,22.993,1.453,23,1.499,23h21
		c0.134,0,0.26-0.052,0.354-0.146C22.948,22.759,23,22.634,23,22.5c0-0.047-0.007-0.093-0.019-0.137l-1.429-5.001
		C21.49,17.149,21.293,17,21.071,17H2.928z"/>
</g>
</svg>
