<?xml version="1.0" encoding="utf-8"?>
<!-- Generator: Adobe Illustrator 22.1.0, SVG Export Plug-In . SVG Version: 6.00 Build 0)  -->
<svg version="1.1" id="Light" xmlns="http://www.w3.org/2000/svg" xmlns:xlink="http://www.w3.org/1999/xlink" x="0px" y="0px"
	 viewBox="0 0 24 24" style="enable-background:new 0 0 24 24;" xml:space="preserve">
<g>
	<title>concert-guitarist</title>
	<path d="M17.079,17.021c-0.814,0-1.56-0.509-1.855-1.266c-0.193-0.495-0.182-1.035,0.031-1.522
		c0.213-0.486,0.604-0.861,1.099-1.054c0.231-0.09,0.473-0.135,0.72-0.135c0.814,0,1.56,0.509,1.856,1.265
		c0.193,0.495,0.182,1.036-0.031,1.522s-0.604,0.861-1.099,1.054C17.569,16.975,17.327,17.021,17.079,17.021z M17.075,14.043
		c-0.122,0-0.242,0.023-0.358,0.067c-0.246,0.096-0.439,0.282-0.546,0.524s-0.112,0.51-0.016,0.757
		c0.147,0.376,0.518,0.63,0.923,0.63c0.123,0,0.243-0.023,0.358-0.068c0.246-0.096,0.44-0.282,0.546-0.524
		c0.106-0.242,0.112-0.511,0.016-0.757C17.851,14.296,17.48,14.043,17.075,14.043z"/>
	<path d="M17.856,21.655c-0.208,0-0.39-0.125-0.466-0.318c-0.049-0.124-0.046-0.26,0.008-0.383s0.152-0.217,0.277-0.265l2.795-1.09
		c0.057-0.023,0.119-0.034,0.182-0.034c0.204,0,0.391,0.128,0.466,0.319c0.049,0.124,0.046,0.26-0.008,0.383
		s-0.152,0.217-0.277,0.265l-2.795,1.09C17.98,21.643,17.919,21.655,17.856,21.655z"/>
	<path d="M18.194,24.002c-1.593,0-3.002-0.641-3.867-1.759c-0.995-1.286-1.012-2.977-0.059-4.562
		c-0.764-0.604-1.218-1.478-1.254-2.431c-0.042-1.089,0.478-2.173,1.397-2.935l-1.28-3.271l0,0c-0.059,0.023-0.12,0.034-0.182,0.034
		c-0.069,0-0.136-0.014-0.2-0.041c-0.124-0.054-0.218-0.152-0.266-0.276l-0.182-0.466l-0.465,0.182
		c-0.058,0.023-0.12,0.035-0.182,0.035c-0.207,0-0.39-0.125-0.466-0.318c-0.049-0.124-0.046-0.26,0.008-0.383
		c0.054-0.122,0.152-0.217,0.276-0.265l0.466-0.182l-0.363-0.931l-0.466,0.182c-0.059,0.023-0.12,0.034-0.182,0.034
		c-0.208,0-0.39-0.125-0.466-0.318c-0.1-0.257,0.027-0.547,0.284-0.648L11.211,5.5l-0.182-0.466c-0.1-0.257,0.027-0.547,0.284-0.648
		l2.795-1.091c0.058-0.023,0.119-0.034,0.182-0.034c0.07,0,0.138,0.014,0.202,0.043c0.12,0.052,0.217,0.153,0.264,0.276l0.181,0.465
		l0.466-0.182c0.058-0.023,0.119-0.034,0.182-0.034c0.204,0,0.392,0.128,0.466,0.318c0.049,0.124,0.046,0.26-0.008,0.383
		c-0.053,0.122-0.152,0.216-0.276,0.265L15.3,4.978l0.363,0.932l0.468-0.183c0.058-0.023,0.119-0.034,0.181-0.034
		c0.208,0,0.391,0.125,0.466,0.318c0.1,0.257-0.027,0.547-0.284,0.648l-0.469,0.183l0.181,0.465c0.1,0.257-0.027,0.547-0.284,0.647
		l1.28,3.271c0.076-0.004,0.153-0.006,0.228-0.006c1.112,0,2.127,0.443,2.786,1.215c0.621,0.728,0.88,1.68,0.726,2.643
		c1.774,0.522,2.906,1.782,3.045,3.406c0.18,2.109-1.289,4.205-3.572,5.096C19.694,23.86,18.947,24.002,18.194,24.002L18.194,24.002
		z M13.415,7.896c0.207,0,0.39,0.125,0.466,0.318l1.6,4.089c0.085,0.219,0.01,0.463-0.184,0.595
		c-0.837,0.573-1.317,1.438-1.284,2.314c0.03,0.787,0.465,1.479,1.193,1.9c0.123,0.071,0.21,0.191,0.239,0.329
		c0.03,0.138-0.001,0.283-0.084,0.397c-0.975,1.35-1.064,2.733-0.244,3.792c0.913,1.18,2.327,1.356,3.089,1.356
		c0.636,0,1.274-0.118,1.846-0.341c1.873-0.731,3.081-2.408,2.939-4.079c-0.114-1.34-1.116-2.301-2.748-2.635
		c-0.138-0.028-0.258-0.114-0.33-0.235c-0.072-0.122-0.089-0.269-0.047-0.403c0.251-0.805,0.101-1.611-0.411-2.211
		c-0.476-0.559-1.19-0.866-2.009-0.866c-0.164,0-0.332,0.012-0.5,0.037c-0.024,0.004-0.048,0.005-0.072,0.005
		c-0.207,0-0.39-0.124-0.466-0.317l-1.6-4.09c-0.048-0.123-0.045-0.262,0.008-0.383c0.054-0.122,0.152-0.217,0.276-0.265
		l-1.087-2.794l-1.863,0.727l1.091,2.794v0C13.292,7.908,13.353,7.896,13.415,7.896z"/>
	<path d="M5.501,14.501c-0.276,0-0.5-0.224-0.5-0.5v-3c0-0.276,0.224-0.5,0.5-0.5s0.5,0.224,0.5,0.5v3
		C6.001,14.277,5.777,14.501,5.501,14.501z"/>
	<path d="M3.501,24.001c-0.258,0-0.477-0.201-0.498-0.458l-0.462-5.542h-2.04c-0.276,0-0.5-0.224-0.5-0.5v-3.5
		c0-3.033,2.467-5.5,5.5-5.5s5.5,2.467,5.5,5.5v3.5c0,0.276-0.224,0.5-0.5,0.5h-2.04l-0.462,5.542
		c-0.022,0.257-0.24,0.458-0.498,0.458H3.501z M7.041,23.001l0.462-5.542c0.022-0.257,0.24-0.458,0.498-0.458h2v-3
		c0-2.481-2.019-4.5-4.5-4.5s-4.5,2.019-4.5,4.5v3h2c0.258,0,0.477,0.201,0.498,0.458l0.462,5.542H7.041z"/>
	<path d="M5.501,8.001c-2.206,0-4-1.794-4-4c0-0.691,0.183-1.375,0.529-1.979C2.045,1.99,2.063,1.965,2.074,1.949
		C2.791,0.75,4.106,0.001,5.501,0.001c2.003,0,3.707,1.499,3.963,3.486c0,0.003,0.001,0.006,0.001,0.01l0,0
		c0.024,0.19,0.035,0.35,0.035,0.505C9.501,6.207,7.707,8.001,5.501,8.001z M2.655,3.06C2.553,3.364,2.501,3.68,2.501,4.001
		c0,1.654,1.346,3,3,3c1.576,0,2.873-1.222,2.991-2.769C7.901,4.411,7.29,4.501,6.669,4.501c-0.002,0-0.004,0-0.005,0
		C5.217,4.5,3.776,3.979,2.655,3.06z M6.676,3.501C7.263,3.501,7.84,3.404,8.395,3.213C8.043,1.919,6.858,1.001,5.501,1.001
		c-0.927,0-1.796,0.428-2.364,1.155C4.102,3.012,5.373,3.5,6.66,3.501c0.003,0,0.005,0,0.008,0S6.673,3.501,6.676,3.501z"/>
</g>
</svg>
