<?xml version="1.0" encoding="utf-8"?>
<!-- Generator: Adobe Illustrator 22.1.0, SVG Export Plug-In . SVG Version: 6.00 Build 0)  -->
<svg version="1.1" id="Light" xmlns="http://www.w3.org/2000/svg" xmlns:xlink="http://www.w3.org/1999/xlink" x="0px" y="0px"
	 viewBox="0 0 24 24" style="enable-background:new 0 0 24 24;" xml:space="preserve">
<g>
	<title>concert-rock-1</title>
	<path d="M9.487,24c-0.827,0-1.5-0.673-1.5-1.5v-2c0-0.632,0.4-1.192,0.979-1.406c-0.03-0.099-0.091-0.188-0.174-0.252
		c-0.508-0.385-0.941-0.854-1.286-1.393c-1.489-2.347-3.572-5.675-4.175-6.64l-0.028-0.044c-0.424-0.614-0.381-1.457,0.11-2.041
		c0.292-0.347,0.702-0.56,1.155-0.599c0.05-0.004,0.098-0.006,0.146-0.006c0.406,0,0.784,0.138,1.094,0.399
		c0.012,0.01,0.025,0.022,0.036,0.034l2.142,2.213V2c0-1.103,0.897-2,2-2s2,0.897,2,2v5.088C12.147,7.03,12.315,7,12.487,7h1
		c0.375,0,0.727,0.138,1,0.387C14.76,7.138,15.112,7,15.487,7h1c0.172,0,0.34,0.03,0.5,0.088V5c0-1.103,0.897-2,2-2s2,0.897,2,2v9.5
		c0.007,1.565-0.66,3.06-1.832,4.101c-0.107,0.094-0.168,0.231-0.168,0.374v0.111c0.59,0.209,1,0.774,1,1.414v2
		c0,0.827-0.673,1.5-1.5,1.5H9.487z M9.487,20c-0.276,0-0.5,0.224-0.5,0.5v2c0,0.276,0.224,0.5,0.5,0.5h9c0.276,0,0.5-0.224,0.5-0.5
		v-2c0-0.276-0.224-0.5-0.5-0.5H9.487z M17.987,19v-0.026c0-0.428,0.184-0.837,0.505-1.121c0.957-0.85,1.502-2.071,1.495-3.351V5
		c0-0.551-0.448-1-1-1s-1,0.449-1,1v7c0,1.103-0.897,2-2,2c-0.575,0-1.123-0.255-1.5-0.682C14.11,13.745,13.562,14,12.987,14
		c-1.103,0-2-0.897-2-2V2c0-0.551-0.449-1-1-1s-1,0.449-1,1v10c0,0.205-0.123,0.387-0.312,0.463C8.614,12.488,8.551,12.5,8.487,12.5
		c-0.135,0-0.266-0.056-0.359-0.152l-2.98-3.079C5.023,9.17,4.875,9.118,4.719,9.118c-0.021,0-0.042,0.001-0.064,0.003
		C4.468,9.137,4.299,9.225,4.179,9.368c-0.202,0.241-0.219,0.589-0.04,0.848l0.099,0.158c1.7,2.716,3.122,4.976,4.112,6.537
		c0.28,0.438,0.634,0.82,1.05,1.136C9.704,18.281,9.907,18.626,9.968,19H17.987z M15.487,8c-0.276,0-0.5,0.224-0.5,0.5V12
		c0,0.552,0.448,1,1,1c0.552,0,1-0.448,1-1V8.5c0-0.276-0.224-0.5-0.5-0.5H15.487z M12.487,8c-0.276,0-0.5,0.224-0.5,0.5V12
		c0,0.552,0.448,1,1,1s1-0.448,1-1V8.5c0-0.276-0.224-0.5-0.5-0.5H12.487z"/>
	<circle cx="10.737" cy="21.5" r="0.75"/>
	<circle cx="13.987" cy="21.5" r="0.75"/>
	<circle cx="17.237" cy="21.5" r="0.75"/>
</g>
</svg>
