<?xml version="1.0" encoding="utf-8"?>
<!-- Generator: Adobe Illustrator 22.1.0, SVG Export Plug-In . SVG Version: 6.00 Build 0)  -->
<svg version="1.1" id="Light" xmlns="http://www.w3.org/2000/svg" xmlns:xlink="http://www.w3.org/1999/xlink" x="0px" y="0px"
	 viewBox="0 0 24 24" style="enable-background:new 0 0 24 24;" xml:space="preserve">
<g>
	<title>concert-speakers</title>
	<path d="M3.5,17C2.673,17,2,16.327,2,15.5S2.673,14,3.5,14S5,14.673,5,15.5S4.327,17,3.5,17z M3.5,15C3.224,15,3,15.224,3,15.5
		S3.224,16,3.5,16S4,15.776,4,15.5S3.776,15,3.5,15z"/>
	<path d="M3.5,22C2.673,22,2,21.327,2,20.5S2.673,19,3.5,19S5,19.673,5,20.5S4.327,22,3.5,22z M3.5,20C3.224,20,3,20.224,3,20.5
		S3.224,21,3.5,21S4,20.776,4,20.5S3.776,20,3.5,20z"/>
	<path d="M1.5,24C0.673,24,0,23.327,0,22.5v-9C0,12.673,0.673,12,1.5,12h4C6.327,12,7,12.673,7,13.5v9c0,0.172-0.03,0.34-0.088,0.5
		h10.176C17.03,22.84,17,22.672,17,22.5v-9c0-0.827,0.673-1.5,1.5-1.5h4c0.827,0,1.5,0.673,1.5,1.5v9c0,0.827-0.673,1.5-1.5,1.5H1.5
		z M18.5,13c-0.276,0-0.5,0.224-0.5,0.5v9c0,0.276,0.224,0.5,0.5,0.5h4c0.276,0,0.5-0.224,0.5-0.5v-9c0-0.276-0.224-0.5-0.5-0.5
		H18.5z M1.5,13C1.224,13,1,13.224,1,13.5v9C1,22.776,1.224,23,1.5,23h4C5.776,23,6,22.776,6,22.5v-9C6,13.224,5.776,13,5.5,13H1.5z
		"/>
	<path d="M20.5,17c-0.827,0-1.5-0.673-1.5-1.5s0.673-1.5,1.5-1.5s1.5,0.673,1.5,1.5S21.327,17,20.5,17z M20.5,15
		c-0.276,0-0.5,0.224-0.5,0.5s0.224,0.5,0.5,0.5s0.5-0.224,0.5-0.5S20.776,15,20.5,15z"/>
	<path d="M20.5,22c-0.827,0-1.5-0.673-1.5-1.5s0.673-1.5,1.5-1.5s1.5,0.673,1.5,1.5S21.327,22,20.5,22z M20.5,20
		c-0.276,0-0.5,0.224-0.5,0.5s0.224,0.5,0.5,0.5s0.5-0.224,0.5-0.5S20.776,20,20.5,20z"/>
	<path d="M8.5,21C8.224,21,8,20.776,8,20.5S8.224,20,8.5,20h7c0.276,0,0.5,0.224,0.5,0.5S15.776,21,15.5,21H8.5z"/>
	<path d="M8.5,10C7.673,10,7,9.327,7,8.5S7.673,7,8.5,7C8.672,7,8.84,7.03,9,7.088V6c0-0.321,0.141-0.581,0.385-0.712
		c0.101-0.054,0.212-0.082,0.329-0.082c0.161,0,0.326,0.053,0.478,0.155l1.085,0.724c0.229,0.153,0.292,0.464,0.139,0.693
		C11.323,6.917,11.167,7,11,7c-0.099,0-0.195-0.029-0.277-0.084L10,6.434L10,8.5C10,9.327,9.327,10,8.5,10z M8.5,8
		C8.224,8,8,8.224,8,8.5S8.224,9,8.5,9S9,8.776,9,8.5S8.776,8,8.5,8z"/>
	<path d="M11.5,14c-0.827,0-1.5-0.673-1.5-1.5s0.673-1.5,1.5-1.5c0.172,0,0.34,0.03,0.5,0.088V8.89c0-0.46,0.312-0.859,0.758-0.97
		l3-0.75C15.837,7.15,15.918,7.14,16,7.14c0.46,0,0.859,0.312,0.97,0.758C16.99,7.976,17,8.058,17,8.14V11
		c0,0.827-0.673,1.5-1.5,1.5S14,11.827,14,11s0.673-1.5,1.5-1.5c0.172,0,0.34,0.03,0.5,0.088V8.14l-3,0.75v3.61
		C13,13.327,12.327,14,11.5,14z M11.5,12c-0.276,0-0.5,0.224-0.5,0.5c0,0.276,0.224,0.5,0.5,0.5s0.5-0.224,0.5-0.5
		C12,12.224,11.776,12,11.5,12z M15.5,10.5c-0.276,0-0.5,0.224-0.5,0.5s0.224,0.5,0.5,0.5S16,11.276,16,11S15.776,10.5,15.5,10.5z"
		/>
	<path d="M22.5,11c-0.276,0-0.5-0.224-0.5-0.5V4H2v6.5C2,10.776,1.776,11,1.5,11S1,10.776,1,10.5V4C0.449,4,0,3.551,0,3V1.5
		c0-0.441,0.198-0.858,0.543-1.147c0.025-0.024,0.05-0.044,0.077-0.061C0.868,0.105,1.178,0,1.5,0h21
		c0.322,0,0.632,0.105,0.896,0.303c0.012,0.007,0.036,0.026,0.061,0.05C23.802,0.642,24,1.059,24,1.5V3c0,0.551-0.448,1-1,1v6.5
		C23,10.776,22.776,11,22.5,11z M23,3V1.5c0-0.053-0.009-0.102-0.022-0.145L19.961,3H23z M15.882,3L12,1.059L8.118,3H15.882z
		 M1.022,1.355C1.009,1.398,1,1.447,1,1.5V3h3.039L1.022,1.355z M17.99,2.936L21.54,1h-7.422L17.99,2.936z M6.01,2.936L9.882,1H2.46
		L6.01,2.936z"/>
</g>
</svg>
