<?xml version="1.0" encoding="utf-8"?>
<!-- Generator: Adobe Illustrator 22.1.0, SVG Export Plug-In . SVG Version: 6.00 Build 0)  -->
<svg version="1.1" id="Light" xmlns="http://www.w3.org/2000/svg" xmlns:xlink="http://www.w3.org/1999/xlink" x="0px" y="0px"
	 viewBox="0 0 24 24" style="enable-background:new 0 0 24 24;" xml:space="preserve">
<g>
	<title>night-club-disco-ball</title>
	<path d="M12,21.994c-0.071,0-0.141-0.005-0.21-0.014c-2.647-0.069-5.084-1.444-6.522-3.681c-0.02-0.025-0.042-0.056-0.061-0.095
		C4.421,16.944,4.004,15.492,4,14.006c0-0.004,0-0.019,0-0.022c0.002-1.498,0.419-2.953,1.207-4.217c0,0,0.013-0.02,0.018-0.027
		c1.373-2.19,3.707-3.576,6.275-3.736V0.994c0-0.276,0.224-0.5,0.5-0.5c0.276,0,0.5,0.224,0.5,0.5v5.009
		c2.566,0.16,4.899,1.545,6.278,3.739c0.002,0.003,0.011,0.015,0.021,0.033C19.585,11.04,20,12.496,20,13.985c0,0,0,0.016,0,0.02
		c-0.004,1.486-0.421,2.938-1.207,4.198c-0.016,0.035-0.038,0.068-0.065,0.101c-1.439,2.234-3.874,3.606-6.518,3.675
		C12.14,21.989,12.07,21.994,12,21.994z M12,20.985c0.027,0,0.12-0.003,0.12-0.003c0.631-0.112,1.305-1.073,1.759-2.488h-3.757
		c0.454,1.416,1.128,2.377,1.759,2.488C11.88,20.982,11.973,20.985,12,20.985z M14.921,18.494c-0.256,0.889-0.585,1.639-0.97,2.213
		c1.324-0.384,2.501-1.149,3.397-2.213H14.921z M6.651,18.494c0.896,1.063,2.073,1.829,3.397,2.213
		c-0.385-0.574-0.714-1.323-0.97-2.213H6.651z M18.055,17.494c0.531-0.913,0.847-1.942,0.924-3h-3.487
		c-0.027,1.061-0.136,2.067-0.326,3H18.055z M14.145,17.494c0.203-0.919,0.319-1.926,0.347-3H9.507c0.028,1.074,0.144,2.081,0.347,3
		H14.145z M8.833,17.494c-0.19-0.932-0.3-1.939-0.326-3H5.02c0.077,1.058,0.394,2.087,0.924,3H8.833z M18.981,13.494
		c-0.074-1.057-0.388-2.086-0.916-3h-2.899c0.19,0.932,0.3,1.938,0.326,3H18.981z M14.492,13.494c-0.028-1.073-0.144-2.081-0.347-3
		H9.854c-0.203,0.919-0.319,1.926-0.347,3H14.492z M8.507,13.494c0.026-1.061,0.136-2.068,0.326-3H5.934
		c-0.527,0.914-0.841,1.943-0.915,3H8.507z M17.363,9.494c-0.901-1.077-2.088-1.85-3.426-2.234c0.391,0.576,0.725,1.333,0.984,2.234
		H17.363z M13.879,9.494c-0.489-1.53-1.211-2.5-1.879-2.5c-0.668,0-1.391,0.97-1.879,2.5H13.879z M9.078,9.494
		c0.259-0.901,0.594-1.658,0.984-2.234C8.724,7.644,7.537,8.417,6.636,9.494H9.078z"/>
	<path d="M17.068,6.599c-0.102,0-0.2-0.031-0.284-0.089c-0.227-0.156-0.284-0.469-0.127-0.695l1.137-1.647
		c0.094-0.135,0.247-0.216,0.412-0.216c0.102,0,0.2,0.031,0.284,0.089c0.227,0.156,0.284,0.468,0.127,0.695L17.48,6.383
		C17.386,6.518,17.232,6.599,17.068,6.599z"/>
	<path d="M21.5,13.128c-0.259,0-0.473-0.194-0.497-0.452c-0.013-0.133,0.027-0.263,0.112-0.366c0.085-0.103,0.205-0.167,0.338-0.18
		l1.991-0.193c0.016-0.002,0.033-0.002,0.05-0.002c0.258,0,0.472,0.194,0.496,0.452c0.013,0.133-0.027,0.263-0.112,0.366
		s-0.205,0.167-0.338,0.18l-1.991,0.193C21.54,13.126,21.508,13.128,21.5,13.128z"/>
	<path d="M4.691,23.506c-0.12,0-0.237-0.043-0.327-0.122c-0.101-0.087-0.162-0.208-0.171-0.342c-0.01-0.133,0.033-0.262,0.121-0.363
		l1.309-1.512c0.095-0.11,0.232-0.173,0.378-0.173c0.12,0,0.237,0.043,0.327,0.122c0.101,0.087,0.162,0.208,0.171,0.342
		c0.01,0.133-0.033,0.262-0.121,0.363l-1.309,1.512C4.974,23.443,4.836,23.506,4.691,23.506z"/>
	<path d="M19.31,23.506c-0.145,0-0.282-0.063-0.377-0.172l-1.311-1.513c-0.087-0.101-0.13-0.23-0.121-0.363
		c0.01-0.133,0.071-0.255,0.172-0.342c0.09-0.078,0.207-0.122,0.327-0.122c0.145,0,0.282,0.063,0.378,0.172l1.311,1.513
		c0.087,0.101,0.13,0.23,0.121,0.363c-0.01,0.133-0.071,0.255-0.172,0.342C19.547,23.463,19.43,23.506,19.31,23.506z"/>
	<path d="M2.446,13.07l-1.985-0.19c-0.275-0.026-0.476-0.271-0.45-0.545c0.025-0.258,0.239-0.452,0.499-0.452
		c0.007,0,0.037,0.001,0.044,0.002l1.993,0.191c0.274,0.026,0.476,0.271,0.45,0.546c-0.025,0.258-0.239,0.452-0.498,0.452
		C2.49,13.073,2.456,13.071,2.446,13.07z"/>
	<path d="M7.111,6.413c-0.171,0-0.328-0.086-0.421-0.229L5.607,4.502C5.458,4.27,5.525,3.96,5.757,3.811
		c0.081-0.052,0.175-0.08,0.271-0.08c0.171,0,0.328,0.086,0.42,0.229l1.083,1.682c0.149,0.232,0.082,0.542-0.15,0.691
		C7.301,6.386,7.207,6.413,7.111,6.413z"/>
</g>
</svg>
