<?xml version="1.0" encoding="utf-8"?>
<!-- Generator: Adobe Illustrator 22.1.0, SVG Export Plug-In . SVG Version: 6.00 Build 0)  -->
<svg version="1.1" id="Layer_1" xmlns="http://www.w3.org/2000/svg" xmlns:xlink="http://www.w3.org/1999/xlink" x="0px" y="0px"
	 viewBox="0 0 24 24" style="enable-background:new 0 0 24 24;" xml:space="preserve">
<g>
	<title>architecture-window-1</title>
	<path d="M4,24c-0.827,0-1.5-0.673-1.5-1.5v-13c0-2.539,0.993-4.926,2.795-6.723C5.306,2.762,5.323,2.741,5.347,2.72
		C5.354,2.714,5.364,2.707,5.374,2.7C7.161,0.959,9.513,0,12,0s4.839,0.959,6.625,2.7c0.011,0.007,0.022,0.015,0.03,0.022
		c0.024,0.02,0.04,0.041,0.05,0.056C20.508,4.575,21.5,6.962,21.5,9.5v13c0,0.827-0.673,1.5-1.5,1.5H4z M20,23
		c0.276,0,0.5-0.224,0.5-0.5V17h-5v6H20z M14.5,23v-6h-5v6H14.5z M3.5,22.5C3.5,22.776,3.724,23,4,23h4.5v-6h-5V22.5z M20.5,16v-5
		h-5v5H20.5z M14.5,16v-5h-5v5H14.5z M8.5,16v-5h-5v5H8.5z M20.5,10V9.5c0-2.092-0.764-4.086-2.156-5.647L13.085,10H20.5z
		 M10.914,10L5.656,3.852C4.264,5.414,3.5,7.408,3.5,9.5V10H10.914z M12.5,9.146l5.134-6.002c-1.428-1.267-3.234-2.015-5.134-2.127
		V9.146z M11.5,9.146V1.017C9.6,1.129,7.794,1.877,6.366,3.144L11.5,9.146z"/>
</g>
</svg>
