<?xml version="1.0" encoding="utf-8"?>
<!-- Generator: Adobe Illustrator 22.1.0, SVG Export Plug-In . SVG Version: 6.00 Build 0)  -->
<svg version="1.1" id="Layer_1" xmlns="http://www.w3.org/2000/svg" xmlns:xlink="http://www.w3.org/1999/xlink" x="0px" y="0px"
	 viewBox="0 0 24 24" style="enable-background:new 0 0 24 24;" xml:space="preserve">
<g>
	<title>architecture-window</title>
	<path d="M6,20.497c-0.276,0-0.5-0.224-0.5-0.5v-10c0-0.328,0.026-0.662,0.076-0.991c0-0.003,0-0.006,0-0.009
		c0-0.058,0.011-0.117,0.032-0.173C5.886,7.306,6.7,5.934,7.905,4.954C7.906,4.952,7.908,4.95,7.911,4.948
		c0.023-0.023,0.046-0.038,0.06-0.047C9.13,3.982,10.523,3.497,12,3.497c1.446,0,2.815,0.468,3.962,1.352
		c0.056,0.025,0.106,0.059,0.147,0.101c0.009,0.009,0.021,0.025,0.032,0.04c1.5,1.243,2.359,3.065,2.359,5.006v10
		c0,0.276-0.224,0.5-0.5,0.5H6z M17.5,19.497v-5h-3v5H17.5z M13.5,19.497v-5h-3v5H13.5z M9.5,19.497v-5h-3v5H9.5z M17.5,13.497v-3.5
		c0-0.162-0.008-0.33-0.024-0.5H14.5v4H17.5z M13.5,13.497v-4h-3v4H13.5z M9.5,13.497v-4H6.524C6.508,9.667,6.5,9.834,6.5,9.997v3.5
		H9.5z M17.29,8.497c-0.271-0.949-0.803-1.823-1.527-2.505L13.22,8.497H17.29z M10.784,8.497L8.245,5.984
		C7.517,6.667,6.982,7.544,6.71,8.497H10.784z M12.5,7.802l2.469-2.432C14.224,4.891,13.38,4.6,12.5,4.52V7.802z M11.5,7.798V4.52
		C10.623,4.6,9.783,4.888,9.041,5.365L11.5,7.798z"/>
	<path d="M4,23.999c-0.827,0-1.5-0.673-1.5-1.5V10.998l-0.501-0.001c-0.826,0-1.499-0.673-1.499-1.5v-2c0-0.827,0.673-1.5,1.5-1.5
		h1.165c0.884-2.239,2.562-4.039,4.742-5.08c1.295-0.618,2.67-0.931,4.086-0.931c1.077,0,2.146,0.185,3.175,0.548
		c2.601,0.92,4.657,2.906,5.667,5.465H22c0.827,0,1.5,0.673,1.5,1.5v2c0,0.827-0.673,1.5-1.5,1.5h-0.5v11.5
		c0,0.827-0.673,1.5-1.5,1.5H4z M2,6.997c-0.276,0-0.5,0.224-0.5,0.5v2c0,0.276,0.224,0.5,0.5,0.5l1.001,0.002
		c0.275,0,0.499,0.225,0.499,0.5v12c0,0.276,0.224,0.5,0.5,0.5h16c0.276,0,0.5-0.224,0.5-0.5v-12c0-0.276,0.224-0.5,0.5-0.5h1
		c0.276,0,0.5-0.224,0.5-0.5v-2c0-0.276-0.224-0.5-0.5-0.5h-1.5c-0.215,0-0.414-0.137-0.483-0.333
		c-0.859-2.436-2.748-4.327-5.182-5.188c-0.921-0.326-1.877-0.491-2.841-0.491c-1.267,0-2.496,0.281-3.655,0.834
		C6.289,2.798,4.744,4.515,3.986,6.656C3.944,6.774,3.86,6.872,3.749,6.931C3.719,6.946,3.615,6.997,3.5,6.997H2z"/>
</g>
</svg>
