<?xml version="1.0" encoding="utf-8"?>
<!-- Generator: Adobe Illustrator 22.1.0, SVG Export Plug-In . SVG Version: 6.00 Build 0)  -->
<svg version="1.1" id="Layer_1" xmlns="http://www.w3.org/2000/svg" xmlns:xlink="http://www.w3.org/1999/xlink" x="0px" y="0px"
	 viewBox="0 0 24 24" style="enable-background:new 0 0 24 24;" xml:space="preserve">
<g>
	<title>architecture-fence-2</title>
	<path d="M2.5,23.278c-0.551,0-1-0.448-1-1v-3H1c-0.276,0-0.5-0.224-0.5-0.5s0.224-0.5,0.5-0.5h0.5v-9H1c-0.276,0-0.5-0.224-0.5-0.5
		s0.224-0.5,0.5-0.5h0.5v-3.5c0-0.094,0.026-0.185,0.076-0.265l2.076-3.321c0.08-0.128,0.19-0.238,0.318-0.318
		c0.159-0.099,0.342-0.152,0.529-0.152c0.348,0,0.665,0.176,0.849,0.47L7,3.835l1.652-2.643c0.08-0.128,0.19-0.238,0.318-0.318
		c0.159-0.099,0.342-0.152,0.529-0.152c0.348,0,0.665,0.176,0.849,0.47L12,3.835l1.652-2.643c0.08-0.128,0.19-0.238,0.318-0.318
		c0.159-0.099,0.342-0.152,0.529-0.152c0.348,0,0.666,0.176,0.849,0.47L17,3.835l1.652-2.643c0.08-0.128,0.19-0.238,0.318-0.318
		c0.159-0.099,0.342-0.152,0.529-0.152c0.348,0,0.666,0.176,0.849,0.47l2.076,3.321c0.05,0.08,0.076,0.171,0.076,0.265v3.5H23
		c0.276,0,0.5,0.224,0.5,0.5s-0.224,0.5-0.5,0.5h-0.5v9H23c0.276,0,0.5,0.224,0.5,0.5s-0.224,0.5-0.5,0.5h-0.5v3
		c0,0.552-0.448,1-1,1H2.5z M21.5,22.278v-3h-4v3H21.5z M16.5,22.278v-3h-4v3H16.5z M11.5,22.278v-3h-4v3H11.5z M2.5,22.278h4v-3h-4
		V22.278z M21.5,18.278v-9h-4v9H21.5z M16.5,18.278v-9h-4v9H16.5z M11.5,18.278v-9h-4v9H11.5z M6.5,18.278v-9h-4v9H6.5z M21.5,8.278
		V4.922l-2-3.199l-2,3.199v3.357H21.5z M16.5,8.278V4.922l-2-3.199l-2,3.199v3.356H16.5z M11.5,8.278V4.922l-2-3.199l-2,3.199v3.356
		H11.5z M6.5,8.278V4.922l-2-3.199l-2,3.199v3.357H6.5z"/>
</g>
</svg>
