<?xml version="1.0" encoding="utf-8"?>
<!-- Generator: Adobe Illustrator 22.1.0, SVG Export Plug-In . SVG Version: 6.00 Build 0)  -->
<svg version="1.1" id="Light" xmlns="http://www.w3.org/2000/svg" xmlns:xlink="http://www.w3.org/1999/xlink" x="0px" y="0px"
	 viewBox="0 0 24 24" style="enable-background:new 0 0 24 24;" xml:space="preserve">
<g>
	<title>rollerblades</title>
	<path d="M5.271,17.997c-0.827,0-1.5-0.673-1.5-1.5c0-0.121,0.015-0.242,0.044-0.359l0.67-3.652L3.123,1.677
		C3.028,0.849,3.62,0.104,4.441,0.01C4.498,0.003,4.555,0,4.612,0h7.77c0.827,0.001,1.5,0.674,1.499,1.501
		c0,0.053-0.003,0.102-0.008,0.151l-0.883,8.613c0.011,0.739,0.57,1.367,1.305,1.464l2.166,0.417
		c0.753,0.096,1.441,0.493,1.921,1.114c0.48,0.622,0.689,1.393,0.589,2.172c-0.189,1.462-1.442,2.564-2.916,2.564H5.271z M4.612,1
		C4.593,1,4.574,1.001,4.555,1.003c-0.273,0.031-0.47,0.279-0.439,0.553l1.37,10.881c0.006,0.051,0.005,0.103-0.004,0.153
		l-0.69,3.758c-0.015,0.065-0.021,0.107-0.021,0.149c0,0.276,0.224,0.5,0.5,0.5h10.778c0.978,0,1.805-0.728,1.929-1.692
		c0.066-0.514-0.072-1.023-0.388-1.433c-0.316-0.41-0.774-0.673-1.288-0.739l-2.167-0.417c-0.936-0.122-1.733-0.802-2.025-1.716
		H7.99c-0.276,0-0.5-0.224-0.5-0.5S7.714,10,7.99,10h4.022l0.102-1H8.99c-0.276,0-0.5-0.224-0.5-0.5S8.714,8,8.99,8h3.227l0.103-1
		H9.99c-0.276,0-0.5-0.224-0.5-0.5S9.714,6,9.99,6h2.432l0.103-1H9.99c-0.276,0-0.5-0.224-0.5-0.5S9.714,4,9.99,4h2.637l0.251-2.451
		c0.002-0.018,0.002-0.035,0.003-0.052c0-0.13-0.052-0.255-0.146-0.35C12.641,1.052,12.515,1,12.382,1H4.612z"/>
	<path d="M17.99,24c-1.199,0-2.215-0.845-2.449-2h-1.102c-0.234,1.155-1.25,2-2.449,2c-1.199,0-2.215-0.845-2.449-2H8.439
		c-0.234,1.155-1.25,2-2.449,2s-2.215-0.845-2.449-2H2.51c-0.276,0-0.5-0.224-0.5-0.5S2.234,21,2.51,21h1.031
		c0.234-1.155,1.25-2,2.449-2s2.215,0.845,2.449,2h1.102c0.234-1.155,1.25-2,2.449-2c1.199,0,2.215,0.845,2.449,2h1.102
		c0.234-1.155,1.25-2,2.449-2s2.215,0.845,2.449,2h1.051c0.276,0,0.5,0.224,0.5,0.5s-0.224,0.5-0.5,0.5h-1.051
		C20.205,23.155,19.189,24,17.99,24z M16.578,22c0.208,0.586,0.772,1,1.412,1s1.203-0.414,1.412-1H16.578z M10.578,22
		c0.209,0.586,0.772,1,1.412,1c0.64,0,1.203-0.414,1.412-1H10.578z M4.578,22c0.209,0.586,0.772,1,1.412,1s1.203-0.414,1.412-1
		H4.578z M19.402,21c-0.208-0.586-0.772-1-1.412-1s-1.203,0.414-1.412,1H19.402z M13.402,21c-0.208-0.586-0.772-1-1.412-1
		c-0.64,0-1.203,0.414-1.412,1H13.402z M7.402,21c-0.209-0.586-0.772-1-1.412-1s-1.203,0.414-1.412,1H7.402z"/>
</g>
</svg>
