<?xml version="1.0" encoding="utf-8"?>
<!-- Generator: Adobe Illustrator 22.1.0, SVG Export Plug-In . SVG Version: 6.00 Build 0)  -->
<svg version="1.1" id="Light" xmlns="http://www.w3.org/2000/svg" xmlns:xlink="http://www.w3.org/1999/xlink" x="0px" y="0px"
	 viewBox="0 0 24 24" style="enable-background:new 0 0 24 24;" xml:space="preserve">
<g>
	<title>skateboard-1</title>
	<path d="M2.912,22.995c-0.399,0-0.775-0.155-1.058-0.437c-0.284-0.283-0.441-0.659-0.442-1.06
		c-0.001-0.401,0.154-0.778,0.437-1.062L17.963,4.331c0.077-0.077,0.146-0.163,0.205-0.256l1.7-2.677
		c0.059-0.092,0.126-0.176,0.201-0.251c0.278-0.279,0.649-0.432,1.043-0.433c0.396,0,0.766,0.153,1.045,0.432
		c0.491,0.491,0.576,1.244,0.205,1.831l-1.82,2.86c-0.176,0.277-0.383,0.536-0.615,0.767L3.975,22.554
		c-0.282,0.283-0.658,0.44-1.059,0.441C2.915,22.995,2.912,22.995,2.912,22.995z M21.112,1.715c-0.127,0-0.247,0.05-0.337,0.14
		c-0.025,0.024-0.046,0.051-0.065,0.081l-1.699,2.676c-0.097,0.154-0.212,0.297-0.341,0.426L2.556,21.143
		c-0.094,0.094-0.145,0.22-0.145,0.353c0,0.134,0.053,0.259,0.147,0.353c0.094,0.094,0.22,0.146,0.353,0.146
		c0.135,0,0.26-0.053,0.354-0.147L19.22,5.897c0.18-0.179,0.341-0.379,0.477-0.595l1.819-2.859c0.119-0.188,0.091-0.43-0.068-0.589
		C21.36,1.764,21.24,1.715,21.112,1.715l0-0.25L21.112,1.715z"/>
	<path d="M9.278,23.289c-1.379,0-2.5-1.122-2.5-2.5s1.121-2.5,2.5-2.5s2.5,1.122,2.5,2.5S10.657,23.289,9.278,23.289z M9.278,19.289
		c-0.827,0-1.5,0.673-1.5,1.5s0.673,1.5,1.5,1.5s1.5-0.673,1.5-1.5S10.105,19.289,9.278,19.289z"/>
	<path d="M19.885,12.682c-1.378,0-2.5-1.121-2.5-2.5c0-1.379,1.122-2.5,2.5-2.5s2.5,1.121,2.5,2.5
		C22.385,11.561,21.263,12.682,19.885,12.682z M19.885,8.682c-0.827,0-1.5,0.673-1.5,1.5s0.673,1.5,1.5,1.5s1.5-0.673,1.5-1.5
		S20.712,8.682,19.885,8.682z"/>
</g>
</svg>
