<?xml version="1.0" encoding="utf-8"?>
<!-- Generator: Adobe Illustrator 22.1.0, SVG Export Plug-In . SVG Version: 6.00 Build 0)  -->
<svg version="1.1" id="Light" xmlns="http://www.w3.org/2000/svg" xmlns:xlink="http://www.w3.org/1999/xlink" x="0px" y="0px"
	 viewBox="0 0 24 24" style="enable-background:new 0 0 24 24;" xml:space="preserve">
<g>
	<title>skateboard-person-1</title>
	<path d="M14,5.992c-1.654,0-3-1.346-3-3s1.346-3,3-3s3,1.346,3,3S15.654,5.992,14,5.992z M14,0.992c-1.103,0-2,0.897-2,2
		s0.897,2,2,2s2-0.897,2-2S15.103,0.992,14,0.992z"/>
	<path d="M17.5,24.008c-0.827,0-1.5-0.673-1.5-1.5c0-0.172,0.03-0.34,0.088-0.5h-4.176c0.058,0.16,0.088,0.328,0.088,0.5
		c0,0.827-0.673,1.5-1.5,1.5S9,23.335,9,22.508c0-0.172,0.03-0.34,0.088-0.5H8.5c-0.276,0-0.5-0.224-0.5-0.5s0.224-0.5,0.5-0.5
		h5.394c0.597-1.011,1.199-2.033,1.24-2.11c0.835-1.856,0.085-4.099-1.714-5.093l-1.666-0.942c-0.23-0.13-0.319-0.418-0.203-0.655
		l0.938-1.92c0.083-0.17,0.26-0.281,0.449-0.281H20c0.552,0,1-0.449,1-1s-0.448-1-1-1H4c-0.551,0-1,0.449-1,1s0.449,1,1,1h5.6
		c0.174,0,0.332,0.088,0.424,0.235c0.092,0.147,0.101,0.328,0.025,0.484l-1.57,3.211c-0.357,0.663-1.033,1.069-1.77,1.069H4
		c-0.551,0-1,0.448-1,1s0.449,1,1,1h2.708c1.477-0.003,2.829-0.815,3.527-2.117c0.063-0.118,0.173-0.207,0.302-0.244
		c0.043-0.013,0.091-0.02,0.139-0.02c0.086,0,0.171,0.022,0.246,0.065l1.521,0.858c0.871,0.479,1.255,1.542,0.891,2.472
		c-0.01,0.025-0.022,0.05-0.037,0.075l-0.832,1.398c-0.09,0.151-0.255,0.244-0.43,0.244c-0.09,0-0.178-0.025-0.256-0.071
		c-0.114-0.068-0.195-0.177-0.228-0.306c-0.033-0.129-0.013-0.264,0.055-0.379l0.81-1.361c0.159-0.454-0.036-0.967-0.459-1.199
		l-1.103-0.622c-0.931,1.383-2.462,2.203-4.144,2.207H4c-1.103,0-2-0.897-2-2s0.897-2,2-2h2.709c0.369,0,0.706-0.202,0.881-0.526
		l1.209-2.474H4c-1.103,0-2-0.897-2-2s0.897-2,2-2h16c1.103,0,2,0.897,2,2s-0.897,2-2,2h-6.75l-0.594,1.217l1.251,0.708
		c2.248,1.241,3.184,4.052,2.128,6.397c-0.01,0.023-0.026,0.063-0.98,1.678H19.5c0.276,0,0.5,0.224,0.5,0.5s-0.224,0.5-0.5,0.5
		h-0.588c0.058,0.16,0.088,0.328,0.088,0.5C19,23.335,18.327,24.008,17.5,24.008z M17.5,22.008c-0.276,0-0.5,0.224-0.5,0.5
		s0.224,0.5,0.5,0.5s0.5-0.224,0.5-0.5S17.776,22.008,17.5,22.008z M10.5,22.008c-0.276,0-0.5,0.224-0.5,0.5s0.224,0.5,0.5,0.5
		s0.5-0.224,0.5-0.5S10.776,22.008,10.5,22.008z"/>
</g>
</svg>
