<?xml version="1.0" encoding="utf-8"?>
<!-- Generator: Adobe Illustrator 22.1.0, SVG Export Plug-In . SVG Version: 6.00 Build 0)  -->
<svg version="1.1" id="Layer_1" xmlns="http://www.w3.org/2000/svg" xmlns:xlink="http://www.w3.org/1999/xlink" x="0px" y="0px"
	 viewBox="0 0 24 24" style="enable-background:new 0 0 24 24;" xml:space="preserve">
<g>
	<title>parking-p</title>
	<path d="M16,24c-0.552,0-1-0.448-1-1v-1H5v1c0,0.552-0.449,1-1,1H2c-0.551,0-1-0.448-1-1v-1c-0.551,0-1-0.448-1-1v-3.293
		c0-0.267,0.104-0.517,0.292-0.706l1.782-1.782l1.836-4.591C4.063,10.247,4.427,10,4.838,10h4.113c0.276,0,0.5,0.224,0.5,0.5
		S9.227,11,8.951,11H4.839l-1.6,4H17.5c0.134,0,0.259,0.052,0.354,0.146L19.708,17C19.896,17.19,20,17.441,20,17.707V21
		c0,0.552-0.448,1-1,1v1c0,0.552-0.448,1-1,1H16z M16,23h2v-1h-2V23z M2,23h2v-1H2V23z M1,21h18v-1h-4c-0.276,0-0.5-0.224-0.5-0.5
		S14.724,19,15,19h4v-1.293L17.293,16H2.707L1,17.708L1,19h4c0.276,0,0.5,0.224,0.5,0.5S5.276,20,5,20H1V21z"/>
	<path d="M17,14c-3.86,0-7-3.14-7-7s3.14-7,7-7s7,3.14,7,7S20.86,14,17,14z M17,1c-3.308,0-6,2.692-6,6s2.692,6,6,6s6-2.692,6-6
		S20.308,1,17,1z"/>
	<path d="M15.5,11c-0.276,0-0.5-0.224-0.5-0.5v-7C15,3.224,15.224,3,15.5,3h2C18.878,3,20,4.121,20,5.5S18.878,8,17.5,8H16v2.5
		C16,10.776,15.776,11,15.5,11z M17.5,7C18.327,7,19,6.327,19,5.5S18.327,4,17.5,4H16v3H17.5z"/>
</g>
</svg>
