<?xml version="1.0" encoding="utf-8"?>
<!-- Generator: Adobe Illustrator 22.1.0, SVG Export Plug-In . SVG Version: 6.00 Build 0)  -->
<svg version="1.1" id="Layer_1" xmlns="http://www.w3.org/2000/svg" xmlns:xlink="http://www.w3.org/1999/xlink" x="0px" y="0px"
	 viewBox="0 0 24 24" style="enable-background:new 0 0 24 24;" xml:space="preserve">
<g>
	<title>parking-p-1</title>
	<path d="M17,14c-3.86,0-7-3.14-7-7s3.14-7,7-7s7,3.14,7,7S20.86,14,17,14z M17,1c-3.308,0-6,2.692-6,6s2.692,6,6,6s6-2.692,6-6
		S20.308,1,17,1z"/>
	<path d="M15.5,11c-0.276,0-0.5-0.224-0.5-0.5v-7C15,3.224,15.224,3,15.5,3h2C18.878,3,20,4.121,20,5.5S18.878,8,17.5,8H16v2.5
		C16,10.776,15.776,11,15.5,11z M17.5,7C18.327,7,19,6.327,19,5.5S18.327,4,17.5,4H16v3H17.5z"/>
	<path d="M16,24c-1.103,0-2-0.897-2-2v-1H6v1c0,1.103-0.897,2-2,2s-2-0.897-2-2v-1H1.5C0.673,21,0,20.327,0,19.5v-3
		c0-1.092,0.725-2.047,1.729-2.376l-1.542-1.233c-0.215-0.173-0.25-0.488-0.078-0.703C0.205,12.068,0.348,12,0.5,12
		c0.113,0,0.224,0.039,0.312,0.109l1.79,1.432L2.85,11.28C2.956,10.004,4.05,9,5.34,9H7.5C7.776,9,8,9.224,8,9.5S7.776,10,7.5,10
		H5.34c-0.774,0-1.43,0.604-1.495,1.375L3.558,14H10.5c0.276,0,0.5,0.224,0.5,0.5S10.776,15,10.5,15h-8C1.673,15,1,15.673,1,16.5v3
		C1,19.776,1.224,20,1.5,20h17c0.276,0,0.5-0.224,0.5-0.5v-3c0-0.125-0.015-0.249-0.045-0.369c-0.033-0.129-0.013-0.263,0.056-0.378
		c0.069-0.115,0.178-0.196,0.308-0.228c0.039-0.01,0.08-0.015,0.122-0.015c0.23,0,0.429,0.156,0.485,0.379
		C19.975,16.088,20,16.293,20,16.5v3c0,0.827-0.673,1.5-1.5,1.5H18v1C18,23.103,17.103,24,16,24z M15,22c0,0.552,0.448,1,1,1
		s1-0.448,1-1v-1h-2V22z M3,22c0,0.552,0.449,1,1,1s1-0.448,1-1v-1H3V22z"/>
	<path d="M3.5,19C2.673,19,2,18.327,2,17.5S2.673,16,3.5,16S5,16.673,5,17.5S4.327,19,3.5,19z M3.5,17C3.224,17,3,17.224,3,17.5
		S3.224,18,3.5,18S4,17.776,4,17.5S3.776,17,3.5,17z"/>
	<path d="M16.5,19c-0.827,0-1.5-0.673-1.5-1.5s0.673-1.5,1.5-1.5s1.5,0.673,1.5,1.5S17.327,19,16.5,19z M16.5,17
		c-0.276,0-0.5,0.224-0.5,0.5s0.224,0.5,0.5,0.5s0.5-0.224,0.5-0.5S16.776,17,16.5,17z"/>
</g>
</svg>
