<?xml version="1.0" encoding="utf-8"?>
<!-- Generator: Adobe Illustrator 22.1.0, SVG Export Plug-In . SVG Version: 6.00 Build 0)  -->
<svg version="1.1" id="Layer_1" xmlns="http://www.w3.org/2000/svg" xmlns:xlink="http://www.w3.org/1999/xlink" x="0px" y="0px"
	 viewBox="0 0 24 24" style="enable-background:new 0 0 24 24;" xml:space="preserve">
<g>
	<title>credit-card-dollar</title>
	<path d="M20.754,20.841c-0.276,0-0.5-0.224-0.5-0.5v-1.682h-2.818c-0.276,0-0.5-0.224-0.5-0.5s0.224-0.5,0.5-0.5h3.115
		c1.23-0.018,2.219-1.038,2.2-2.274c0.005-0.868-0.464-1.652-1.224-2.053l-2.832-1.46c-1.096-0.577-1.77-1.701-1.762-2.936
		c-0.012-0.858,0.313-1.675,0.916-2.296c0.603-0.621,1.412-0.969,2.277-0.982h0.128v-2c0-0.276,0.224-0.5,0.5-0.5s0.5,0.224,0.5,0.5
		v2h2c0.276,0,0.5,0.224,0.5,0.5s-0.224,0.5-0.5,0.5h-3.121c-0.592,0.009-1.15,0.25-1.567,0.679
		c-0.417,0.429-0.642,0.995-0.633,1.593c-0.006,0.869,0.463,1.654,1.224,2.055l2.832,1.46c1.095,0.577,1.769,1.701,1.762,2.935
		c0.023,1.507-1.037,2.844-2.497,3.188v1.772C21.254,20.617,21.03,20.841,20.754,20.841z"/>
	<path d="M2.754,20.659c-1.379,0-2.5-1.122-2.5-2.5v-10c0-1.379,1.121-2.5,2.5-2.5h11c0.276,0,0.5,0.224,0.5,0.5s-0.224,0.5-0.5,0.5
		h-11c-0.827,0-1.5,0.673-1.5,1.5v1.5h12.5c0.276,0,0.5,0.224,0.5,0.5s-0.224,0.5-0.5,0.5h-12.5v7.5c0,0.827,0.673,1.5,1.5,1.5h12
		c0.276,0,0.5,0.224,0.5,0.5s-0.224,0.5-0.5,0.5H2.754z"/>
	<path d="M3.754,13.659c-0.276,0-0.5-0.224-0.5-0.5s0.224-0.5,0.5-0.5h8c0.276,0,0.5,0.224,0.5,0.5s-0.224,0.5-0.5,0.5H3.754z"/>
	<path d="M3.754,15.659c-0.276,0-0.5-0.224-0.5-0.5s0.224-0.5,0.5-0.5h3c0.276,0,0.5,0.224,0.5,0.5s-0.224,0.5-0.5,0.5H3.754z"/>
</g>
</svg>
