<?xml version="1.0" encoding="utf-8"?>
<!-- Generator: Adobe Illustrator 22.1.0, SVG Export Plug-In . SVG Version: 6.00 Build 0)  -->
<svg version="1.1" id="Layer_1" xmlns="http://www.w3.org/2000/svg" xmlns:xlink="http://www.w3.org/1999/xlink" x="0px" y="0px"
	 viewBox="0 0 24 24" style="enable-background:new 0 0 24 24;" xml:space="preserve">
<g>
	<title>credit-card-mastercard</title>
	<path d="M2.504,21c-1.379,0-2.5-1.122-2.5-2.5v-13c0-1.379,1.121-2.5,2.5-2.5h19c1.378,0,2.5,1.121,2.5,2.5v13
		c0,1.378-1.122,2.5-2.5,2.5H2.504z M2.504,4c-0.827,0-1.5,0.673-1.5,1.5v13c0,0.827,0.673,1.5,1.5,1.5h19
		c0.827,0,1.5-0.673,1.5-1.5v-13c0-0.827-0.673-1.5-1.5-1.5H2.504z"/>
	<path d="M15.5,17.5c-1.278-0.003-2.508-0.455-3.487-1.279C11.023,17.048,9.784,17.5,8.5,17.5C5.467,17.5,3,15.033,3,12
		s2.467-5.5,5.5-5.5c1.283,0,2.521,0.452,3.511,1.277C12.991,6.954,14.221,6.502,15.5,6.5c3.033,0,5.5,2.467,5.5,5.5
		S18.533,17.5,15.5,17.5C15.5,17.5,15.5,17.5,15.5,17.5z M12.723,15.511c0.788,0.637,1.766,0.987,2.778,0.989
		C17.981,16.5,20,14.481,20,12s-2.019-4.5-4.5-4.5c-1.013,0.001-1.991,0.35-2.779,0.987C13.548,9.477,14,10.715,14,12
		C14,13.284,13.548,14.521,12.723,15.511z M4.782,14.527C5.617,15.753,7.009,16.5,8.5,16.5c1.491,0,2.882-0.746,3.718-1.971
		C12.028,14.427,11.9,14.228,11.9,14c-0.001-0.159,0.061-0.31,0.175-0.424c0.113-0.113,0.263-0.176,0.423-0.177
		c0.092,0,0.179,0.02,0.258,0.057C12.918,12.987,13,12.499,13,12c0-0.498-0.082-0.987-0.245-1.457
		C12.677,10.58,12.591,10.6,12.5,10.6c-0.331,0-0.6-0.269-0.6-0.6c0-0.228,0.129-0.427,0.317-0.529C11.382,8.246,9.991,7.5,8.5,7.5
		c-1.491,0-2.882,0.746-3.717,1.971C4.971,9.572,5.1,9.771,5.1,10c0,0.331-0.269,0.6-0.6,0.6c-0.091,0-0.177-0.02-0.255-0.057
		C4.082,11.013,4,11.502,4,12c0,0.498,0.082,0.987,0.245,1.457C4.322,13.42,4.409,13.4,4.5,13.4c0.332,0.001,0.6,0.271,0.6,0.6
		C5.099,14.229,4.972,14.426,4.782,14.527z"/>
	<path d="M12.5,12.6c-0.331,0-0.6-0.269-0.6-0.6s0.269-0.6,0.6-0.6c0.331,0,0.6,0.269,0.6,0.6S12.831,12.6,12.5,12.6z"/>
	<path d="M6.5,9.6C6.169,9.6,5.9,9.331,5.9,9s0.269-0.6,0.6-0.6c0.331,0,0.6,0.269,0.6,0.6S6.831,9.6,6.5,9.6z"/>
	<path d="M10.5,9.6c-0.331,0-0.6-0.269-0.6-0.6s0.269-0.6,0.6-0.6c0.331,0,0.6,0.269,0.6,0.6S10.831,9.6,10.5,9.6z"/>
	<path d="M10.5,11.6c-0.331,0-0.6-0.269-0.6-0.6s0.269-0.6,0.6-0.6c0.331,0,0.6,0.269,0.6,0.6S10.831,11.6,10.5,11.6z"/>
	<path d="M10.5,13.6c-0.331,0-0.6-0.269-0.6-0.6s0.269-0.6,0.6-0.6c0.331,0,0.6,0.269,0.6,0.6S10.831,13.6,10.5,13.6z"/>
	<path d="M10.5,15.6c-0.331,0-0.6-0.269-0.6-0.6s0.269-0.6,0.6-0.6c0.331,0,0.6,0.269,0.6,0.6S10.831,15.6,10.5,15.6z"/>
	<path d="M6.5,11.6c-0.331,0-0.6-0.269-0.6-0.6s0.269-0.6,0.6-0.6c0.331,0,0.6,0.269,0.6,0.6S6.831,11.6,6.5,11.6z"/>
	<path d="M6.5,13.6c-0.331,0-0.6-0.269-0.6-0.6s0.269-0.6,0.6-0.6c0.331,0,0.6,0.269,0.6,0.6S6.831,13.6,6.5,13.6z"/>
	<path d="M6.5,15.6c-0.331,0-0.6-0.269-0.6-0.6s0.269-0.6,0.6-0.6c0.331,0,0.6,0.269,0.6,0.6S6.831,15.6,6.5,15.6z"/>
	<path d="M8.5,10.6c-0.331,0-0.6-0.269-0.6-0.6s0.269-0.6,0.6-0.6c0.331,0,0.6,0.269,0.6,0.6S8.831,10.6,8.5,10.6z"/>
	<path d="M8.5,8.6C8.169,8.6,7.9,8.331,7.9,8s0.269-0.6,0.6-0.6c0.331,0,0.6,0.269,0.6,0.6S8.831,8.6,8.5,8.6z"/>
	<path d="M8.5,12.6c-0.331,0-0.6-0.269-0.6-0.6s0.269-0.6,0.6-0.6c0.331,0,0.6,0.269,0.6,0.6S8.831,12.6,8.5,12.6z"/>
	<path d="M8.5,14.6c-0.331,0-0.6-0.269-0.6-0.6s0.269-0.6,0.6-0.6c0.331,0,0.6,0.269,0.6,0.6S8.831,14.6,8.5,14.6z"/>
	<path d="M8.5,16.6c-0.331,0-0.6-0.269-0.6-0.6s0.269-0.6,0.6-0.6c0.331,0,0.6,0.269,0.6,0.6S8.831,16.6,8.5,16.6z"/>
	<path d="M4.5,12.6c-0.331,0-0.6-0.269-0.6-0.6s0.269-0.6,0.6-0.6c0.331,0,0.6,0.269,0.6,0.6S4.831,12.6,4.5,12.6z"/>
</g>
</svg>
