<?xml version="1.0" encoding="utf-8"?>
<!-- Generator: Adobe Illustrator 22.1.0, SVG Export Plug-In . SVG Version: 6.00 Build 0)  -->
<svg version="1.1" id="Layer_1" xmlns="http://www.w3.org/2000/svg" xmlns:xlink="http://www.w3.org/1999/xlink" x="0px" y="0px"
	 viewBox="0 0 24 24" style="enable-background:new 0 0 24 24;" xml:space="preserve">
<g>
	<title>credit-card-scan</title>
	<path d="M2.504,6.5c-0.276,0-0.5-0.224-0.5-0.5s0.224-0.5,0.5-0.5h3c0.276,0,0.5,0.224,0.5,0.5s-0.224,0.5-0.5,0.5H2.504z"/>
	<path d="M23.504,22.5c-0.276,0-0.5-0.224-0.5-0.5V11.043C23.001,11.027,23,11.012,23,11c0-1.166-0.46-2.281-1.259-3.115
		c0.263,1.03,0.331,2.113,0.197,3.177c-0.031,0.249-0.244,0.437-0.496,0.437c-0.021,0-0.042-0.001-0.064-0.004
		c-0.273-0.035-0.467-0.285-0.433-0.559c0.183-1.447-0.054-2.9-0.686-4.202c-0.006-0.011-0.018-0.032-0.029-0.06
		c-0.223-0.449-0.492-0.878-0.8-1.274c-1.228-1.583-2.999-2.593-4.986-2.844c-0.313-0.04-0.631-0.06-0.944-0.06
		c-0.63,0-1.261,0.081-1.876,0.24c-0.507,0.125-0.817,0.634-0.693,1.136c0.008,0.031,0.017,0.062,0.028,0.092
		c0.157,0.426,0.571,0.714,1.029,0.714c0.088,0,0.177-0.011,0.263-0.032c0.381-0.089,0.781-0.136,1.193-0.141
		C13.46,4.503,13.48,4.5,13.504,4.5c0.016,0,0.041,0.003,0.062,0.007c1.008,0.009,1.991,0.294,2.845,0.825
		c1.248,0.776,2.118,1.991,2.451,3.422C18.937,9.076,18.983,9.406,19,9.735c0.039,0.903-0.268,1.772-0.865,2.448l-1.06,1.206
		c-0.438,0.502-1.046,0.804-1.713,0.85c-0.059,0.004-0.119,0.006-0.178,0.006c-0.599,0-1.179-0.219-1.635-0.616
		c-0.043-0.037-0.084-0.076-0.125-0.116l-2.053-2.06c-0.189-0.189-0.44-0.293-0.709-0.293c-0.268,0-0.519,0.104-0.708,0.292
		c-0.391,0.39-0.391,1.026-0.001,1.417l3.749,4.25C14.535,17.95,15,19.075,15,20.278V22c0,0.276-0.224,0.5-0.5,0.5S14,22.275,14,22
		v-1.722c0-0.935-0.365-1.813-1.026-2.474l-3.749-4.251c-0.538-0.538-0.704-1.34-0.451-2.053H1.5C0.673,11.5,0,10.827,0,10V3
		c0-0.827,0.673-1.5,1.5-1.5h7C8.776,1.5,9,1.724,9,2S8.776,2.5,8.5,2.5h-7C1.224,2.5,1,2.724,1,3v0.5h7.504
		c0.276,0,0.5,0.224,0.5,0.5s-0.224,0.5-0.5,0.5H1V10c0,0.276,0.224,0.5,0.5,0.5h8.049c0.33-0.222,0.715-0.339,1.117-0.339
		c0.535,0,1.037,0.208,1.414,0.586l2.053,2.06c0.023,0.023,0.048,0.046,0.073,0.068c0.273,0.239,0.623,0.37,0.986,0.37
		c0.034,0,0.068-0.001,0.103-0.003c0.399-0.027,0.765-0.208,1.028-0.51l1.062-1.208c0.425-0.482,0.644-1.1,0.616-1.741
		c-0.013-0.268-0.051-0.538-0.112-0.8c-0.273-1.171-0.985-2.165-2.006-2.8c-0.57-0.355-1.215-0.578-1.879-0.651V10
		c0,0.276-0.224,0.5-0.5,0.5s-0.5-0.224-0.5-0.5V5.532c-0.181,0.019-0.352,0.048-0.52,0.087c-0.161,0.039-0.329,0.06-0.496,0.06
		c-0.874,0-1.665-0.552-1.968-1.374c-0.024-0.067-0.043-0.13-0.059-0.194c-0.124-0.503-0.044-1.024,0.224-1.467
		s0.693-0.755,1.195-0.878c0.692-0.179,1.406-0.27,2.121-0.27c0.355,0,0.714,0.023,1.069,0.067c2.253,0.284,4.26,1.429,5.651,3.223
		c0.331,0.426,0.621,0.883,0.865,1.36c1.756,0.939,2.894,2.813,2.913,4.803c0.003,0.017,0.005,0.036,0.005,0.049v11
		C24.004,22.275,23.78,22.5,23.504,22.5z"/>
</g>
</svg>
