<?xml version="1.0" encoding="utf-8"?>
<!-- Generator: Adobe Illustrator 22.1.0, SVG Export Plug-In . SVG Version: 6.00 Build 0)  -->
<svg version="1.1" id="Layer_1" xmlns="http://www.w3.org/2000/svg" xmlns:xlink="http://www.w3.org/1999/xlink" x="0px" y="0px"
	 viewBox="0 0 24 24" style="enable-background:new 0 0 24 24;" xml:space="preserve">
<g>
	<title>credit-card-smartphone</title>
	<path d="M2.5,16C1.121,16,0,14.878,0,13.5v-11C0,1.121,1.121,0,2.5,0h16C19.878,0,21,1.121,21,2.5v6C21,8.776,20.776,9,20.5,9
		S20,8.776,20,8.5V5H1v8.5C1,14.327,1.673,15,2.5,15h10c0.276,0,0.5,0.224,0.5,0.5S12.776,16,12.5,16H2.5z M20,4V2.5
		C20,1.673,19.327,1,18.5,1h-16C1.673,1,1,1.673,1,2.5V4H20z"/>
	<path d="M15.5,9C15.224,9,15,8.776,15,8.5S15.224,8,15.5,8h3C18.776,8,19,8.224,19,8.5S18.776,9,18.5,9H15.5z"/>
	<path d="M2.5,9C2.224,9,2,8.776,2,8.5S2.224,8,2.5,8h8C10.776,8,11,8.224,11,8.5S10.776,9,10.5,9H2.5z"/>
	<path d="M2.5,12C2.224,12,2,11.776,2,11.5S2.224,11,2.5,11h3C5.776,11,6,11.224,6,11.5S5.776,12,5.5,12H2.5z"/>
	<circle cx="19" cy="20.5" r="0.75"/>
	<path d="M15.5,24c-0.827,0-1.5-0.673-1.5-1.5v-11c0-0.827,0.673-1.5,1.5-1.5h7c0.827,0,1.5,0.673,1.5,1.5v11
		c0,0.827-0.673,1.5-1.5,1.5H15.5z M15.5,11c-0.276,0-0.5,0.224-0.5,0.5v11c0,0.276,0.224,0.5,0.5,0.5h7c0.276,0,0.5-0.224,0.5-0.5
		v-11c0-0.276-0.224-0.5-0.5-0.5H15.5z"/>
</g>
</svg>
