<?xml version="1.0" encoding="utf-8"?>
<!-- Generator: Adobe Illustrator 22.1.0, SVG Export Plug-In . SVG Version: 6.00 Build 0)  -->
<svg version="1.1" id="Layer_1" xmlns="http://www.w3.org/2000/svg" xmlns:xlink="http://www.w3.org/1999/xlink" x="0px" y="0px"
	 viewBox="0 0 24 24" style="enable-background:new 0 0 24 24;" xml:space="preserve">
<g>
	<title>credit-card-dollar-1</title>
	<path d="M2.5,13C1.121,13,0,11.879,0,10.5v-8C0,1.121,1.121,0,2.5,0h13C16.878,0,18,1.121,18,2.5v0.957
		c0.002,0.015,0.004,0.031,0.004,0.043c0,0.019-0.002,0.036-0.005,0.05L18,9c0,0.276-0.224,0.5-0.5,0.5S17,9.276,17,9V4H1v6.5
		C1,11.327,1.673,12,2.5,12H11c0.276,0,0.5,0.224,0.5,0.5c0,0.276-0.224,0.5-0.5,0.5H2.5z M17,3V2.5C17,1.673,16.327,1,15.5,1h-13
		C1.673,1,1,1.673,1,2.5V3H17z"/>
	<path d="M3.504,6c-0.276,0-0.5-0.224-0.5-0.5S3.228,5,3.504,5h5c0.276,0,0.5,0.224,0.5,0.5S8.78,6,8.504,6H3.504z"/>
	<path d="M13.504,6c-0.276,0-0.5-0.224-0.5-0.5s0.224-0.5,0.5-0.5h2c0.276,0,0.5,0.224,0.5,0.5S15.78,6,15.504,6H13.504z"/>
	<path d="M3.504,8c-0.276,0-0.5-0.224-0.5-0.5S3.228,7,3.504,7h3c0.276,0,0.5,0.224,0.5,0.5S6.78,8,6.504,8H3.504z"/>
	<path d="M18.504,24c-3.033,0-5.5-2.467-5.5-5.5s2.467-5.5,5.5-5.5s5.5,2.467,5.5,5.5S21.537,24,18.504,24z M18.504,14
		c-2.481,0-4.5,2.019-4.5,4.5s2.019,4.5,4.5,4.5s4.5-2.019,4.5-4.5S20.985,14,18.504,14z"/>
	<path d="M18.504,22c-0.276,0-0.5-0.224-0.5-0.5V21H16.5c-0.276,0-0.5-0.224-0.5-0.5s0.224-0.5,0.5-0.5h3c0.276,0,0.5-0.224,0.5-0.5
		S19.776,19,19.5,19h-2c-0.827,0-1.5-0.673-1.5-1.5s0.673-1.5,1.5-1.5h0.504v-0.5c0-0.276,0.224-0.5,0.5-0.5s0.5,0.224,0.5,0.5V16
		H20.5c0.276,0,0.5,0.224,0.5,0.5S20.776,17,20.5,17h-3c-0.276,0-0.5,0.224-0.5,0.5s0.224,0.5,0.5,0.5h2c0.827,0,1.5,0.673,1.5,1.5
		S20.327,21,19.5,21h-0.496v0.5C19.004,21.776,18.78,22,18.504,22z"/>
</g>
</svg>
