<?xml version="1.0" encoding="utf-8"?>
<!-- Generator: Adobe Illustrator 22.1.0, SVG Export Plug-In . SVG Version: 6.00 Build 0)  -->
<svg version="1.1" id="Layer_1" xmlns="http://www.w3.org/2000/svg" xmlns:xlink="http://www.w3.org/1999/xlink" x="0px" y="0px"
	 viewBox="0 0 24 24" style="enable-background:new 0 0 24 24;" xml:space="preserve">
<g>
	<title>primitive-symbols-animal</title>
	<path d="M10.597,24c-0.731,0-1.423-0.319-1.898-0.875l-2.4-2.8c-0.011-0.013-0.023-0.031-0.033-0.049
		c-0.021-0.032-0.037-0.062-0.05-0.094c-0.009-0.022-0.016-0.043-0.021-0.066c-0.007-0.018-0.009-0.028-0.012-0.047l-0.532-3.726
		l-1.557,2.223c-0.241,0.344-0.328,0.776-0.237,1.186l0.484,2.176C4.482,22.559,5.032,23,5.679,23c0.276,0,0.5,0.224,0.5,0.5
		S5.954,24,5.679,24c-1.119,0-2.07-0.763-2.313-1.856l-0.484-2.176c-0.152-0.683-0.008-1.404,0.394-1.977l2.169-3.097l-0.188-1.317
		c-0.018,0-0.036,0.001-0.054,0.001c-0.861,0-1.623-0.548-1.897-1.363c-0.07-0.208-0.105-0.424-0.104-0.643
		c0.001-0.275,0.225-0.498,0.5-0.498c0.277,0.001,0.501,0.226,0.5,0.501c0,0.11,0.017,0.218,0.052,0.321
		c0.136,0.406,0.517,0.678,0.946,0.678c0.075,0,0.15-0.009,0.223-0.025l9.13-9.13l-2.214-0.211c-1.555-0.148-2.9-1.071-3.598-2.467
		C8.616,0.492,8.712,0.189,8.954,0.064c0.073-0.038,0.154-0.058,0.235-0.058c0.181,0,0.346,0.099,0.431,0.259l0.015,0.028
		c0.543,1.086,1.589,1.804,2.798,1.919l0.08,0.008l-0.325-1.622c-0.026-0.131,0-0.264,0.074-0.375
		c0.074-0.111,0.187-0.187,0.318-0.213C12.614,0.003,12.646,0,12.678,0c0.238,0,0.444,0.169,0.49,0.402l0.384,1.917l7.173,0.683
		c0.145,0.014,0.277,0.09,0.361,0.209c0.084,0.12,0.112,0.269,0.077,0.411C20.813,5.022,19.561,6,18.118,6h-4.732l-0.713,0.714
		l6.182,2.318c0.035,0.013,0.06,0.029,0.073,0.038c0.019,0.01,0.037,0.021,0.053,0.033c0.041,0.031,0.076,0.067,0.105,0.107
		c0.007,0.008,0.013,0.017,0.018,0.025c0.026,0.042,0.047,0.092,0.06,0.146c0.004,0.012,0.007,0.023,0.009,0.034l0.331,1.987
		c0.132,0.795-0.129,1.609-0.698,2.179l-0.272,0.272C18.438,13.948,18.312,14,18.179,14s-0.259-0.052-0.354-0.146
		c-0.195-0.195-0.195-0.512,0-0.707l0.272-0.272c0.342-0.342,0.499-0.831,0.419-1.307l-0.247-1.484l-3.713,0.675
		c0.956,0.713,1.285,2.037,0.742,3.123l-0.672,1.343c-0.085,0.171-0.257,0.276-0.448,0.276c-0.077,0-0.154-0.018-0.223-0.052
		c-0.12-0.06-0.209-0.163-0.251-0.289s-0.033-0.262,0.027-0.382l0.672-1.343c0.349-0.697,0.098-1.557-0.57-1.958l-0.558-0.335
		l-4.172,4.635l-1.84,4.139l2.194,2.56C9.744,22.808,10.159,23,10.597,23h0.579c0.276,0,0.5,0.224,0.5,0.5s-0.224,0.5-0.5,0.5
		H10.597z M6.928,18.209l1.294-2.912c0.021-0.048,0.05-0.092,0.085-0.131l4.5-5c0.012-0.013,0.04-0.037,0.054-0.048
		c0.012-0.011,0.029-0.025,0.049-0.037c0.037-0.024,0.073-0.038,0.101-0.048c0.013-0.005,0.026-0.01,0.039-0.014
		c0.014-0.005,0.029-0.009,0.042-0.011l3.714-0.675l-4.912-1.842l-5.687,5.686L6.928,18.209z M18.118,5
		c0.778,0,1.474-0.409,1.852-1.065l-4.125-0.393L14.386,5H18.118z"/>
</g>
</svg>
