<?xml version="1.0" encoding="utf-8"?>
<!-- Generator: Adobe Illustrator 22.1.0, SVG Export Plug-In . SVG Version: 6.00 Build 0)  -->
<svg version="1.1" id="Layer_1" xmlns="http://www.w3.org/2000/svg" xmlns:xlink="http://www.w3.org/1999/xlink" x="0px" y="0px"
	 viewBox="0 0 24 24" style="enable-background:new 0 0 24 24;" xml:space="preserve">
<g>
	<title>primitive-symbols-group</title>
	<path d="M21.5,21c-0.18,0-0.347-0.097-0.436-0.254L18,15.324l-2.921,5.168C14.902,20.805,14.568,21,14.209,21H9.792
		c-0.361,0-0.694-0.195-0.871-0.508L5.5,14.439l-3.565,6.307C1.846,20.903,1.68,21,1.5,21c-0.086,0-0.171-0.022-0.246-0.065
		c-0.116-0.066-0.2-0.173-0.236-0.302c-0.036-0.129-0.019-0.264,0.046-0.38l3.861-6.831L2.951,9.929l-2.044,2.861
		C0.813,12.922,0.661,13,0.5,13c-0.105,0-0.205-0.032-0.29-0.093c-0.108-0.077-0.18-0.192-0.202-0.324s0.009-0.264,0.086-0.373
		l2.044-2.862c0.085-0.118,0.196-0.218,0.322-0.289c0.15-0.085,0.319-0.129,0.491-0.129c0.361,0,0.695,0.195,0.872,0.508l1.679,2.97
		l1.679-2.97C7.355,9.124,7.69,8.929,8.051,8.929c0.171,0,0.341,0.045,0.49,0.129c0.126,0.071,0.237,0.171,0.321,0.288l2.045,2.863
		c0.078,0.109,0.108,0.241,0.086,0.373s-0.094,0.247-0.203,0.324C10.705,12.968,10.605,13,10.5,13c-0.161,0-0.313-0.078-0.407-0.209
		L8.049,9.928l-1.975,3.495L9.791,20h4.417l3.218-5.692l-2.475-4.379l-2.044,2.861C12.813,12.922,12.661,13,12.5,13
		c-0.105,0-0.206-0.032-0.291-0.094c-0.108-0.077-0.18-0.192-0.202-0.324s0.009-0.264,0.086-0.373l2.044-2.862
		c0.084-0.118,0.196-0.218,0.322-0.289c0.15-0.085,0.32-0.13,0.49-0.13c0.09,0,0.181,0.012,0.269,0.037
		c0.257,0.072,0.471,0.239,0.603,0.472L18,13.292l2.179-3.855c0.071-0.126,0.171-0.237,0.289-0.321
		c0.171-0.122,0.371-0.187,0.58-0.187c0.055,0,0.111,0.005,0.167,0.014c0.263,0.043,0.493,0.187,0.649,0.404l2.044,2.863
		c0.078,0.108,0.108,0.241,0.086,0.373s-0.094,0.247-0.203,0.325C23.705,12.968,23.605,13,23.5,13l0,0
		c-0.161,0-0.313-0.078-0.407-0.21l-2.044-2.862l-2.475,4.379l3.361,5.946c0.066,0.116,0.083,0.251,0.047,0.38
		c-0.036,0.129-0.12,0.236-0.236,0.302C21.671,20.978,21.586,21,21.5,21z"/>
	<path d="M5.5,8C4.121,8,3,6.879,3,5.5S4.121,3,5.5,3S8,4.121,8,5.5S6.878,8,5.5,8z M5.5,4C4.673,4,4,4.673,4,5.5S4.673,7,5.5,7
		S7,6.327,7,5.5S6.327,4,5.5,4z"/>
	<path d="M18,8c-1.378,0-2.5-1.121-2.5-2.5S16.621,3,18,3s2.5,1.121,2.5,2.5S19.378,8,18,8z M18,4c-0.827,0-1.5,0.673-1.5,1.5
		S17.173,7,18,7s1.5-0.673,1.5-1.5S18.827,4,18,4z"/>
</g>
</svg>
