<?xml version="1.0" encoding="utf-8"?>
<!-- Generator: Adobe Illustrator 22.1.0, SVG Export Plug-In . SVG Version: 6.00 Build 0)  -->
<svg version="1.1" id="Layer_1" xmlns="http://www.w3.org/2000/svg" xmlns:xlink="http://www.w3.org/1999/xlink" x="0px" y="0px"
	 viewBox="0 0 24 24" style="enable-background:new 0 0 24 24;" xml:space="preserve">
<g>
	<title>primitive-symbols-mother</title>
	<path d="M11.999,8c-1.541,0-2.927-0.884-3.592-2.246c-0.431,0.606-1.06,1.044-1.783,1.23C6.583,6.995,6.541,7,6.499,7
		C6.271,7,6.072,6.846,6.015,6.625C5.982,6.496,6.001,6.361,6.069,6.246c0.068-0.115,0.176-0.197,0.306-0.23
		C7.301,5.777,7.969,4.941,8,3.984C8,3.982,8,3.98,8,3.978C8.012,1.783,9.804,0,11.999,0c2.197,0,3.989,1.785,4,3.98
		c0,0.001,0,0.003,0,0.004c0.03,0.957,0.698,1.792,1.625,2.031c0.267,0.069,0.428,0.342,0.359,0.609C17.926,6.846,17.727,7,17.5,7
		c-0.042,0-0.084-0.005-0.125-0.016c-0.724-0.187-1.353-0.625-1.784-1.231C14.927,7.116,13.541,8,11.999,8z M11.999,1
		c-1.654,0-3,1.346-3,3s1.346,3,3,3c1.654,0,3-1.346,3-3S13.654,1,11.999,1z"/>
	<path d="M11.999,16.5c-1.103,0-2-0.897-2-2s0.897-2,2-2s2,0.897,2,2S13.102,16.5,11.999,16.5z M11.999,13.5c-0.551,0-1,0.448-1,1
		s0.449,1,1,1c0.552,0,1-0.448,1-1S12.551,13.5,11.999,13.5z"/>
	<path d="M5.66,24c-0.849-0.001-1.538-0.692-1.537-1.54c0-0.165,0.027-0.328,0.078-0.483l3.228-9.684C8.087,10.323,9.923,9,11.999,9
		c2.082,0,3.918,1.323,4.574,3.293l3.228,9.684c0.267,0.805-0.17,1.678-0.974,1.945C18.669,23.974,18.507,24,18.343,24H5.66z
		 M11.999,10c-1.645,0-3.1,1.049-3.621,2.609l-3.228,9.684c-0.018,0.054-0.027,0.111-0.027,0.168c0,0.143,0.056,0.278,0.157,0.38
		C5.383,22.944,5.518,23,5.661,23h12.682c0.057,0,0.114-0.009,0.169-0.028c0.281-0.093,0.434-0.398,0.34-0.68l-3.228-9.684
		C15.104,11.049,13.649,10,12.004,10L12,9.75L11.999,10z"/>
	<path d="M13.999,22c-0.134,0-0.259-0.052-0.354-0.146l-1.646-1.646l-1.646,1.646C10.258,21.948,10.133,22,9.999,22
		s-0.259-0.052-0.354-0.146s-0.146-0.22-0.146-0.354s0.052-0.259,0.146-0.354l1.854-1.854v-1.984l-1.276,0.638
		C10.153,17.982,10.076,18,10,18c-0.191,0-0.362-0.106-0.448-0.276c-0.123-0.247-0.023-0.548,0.224-0.671l2-1
		c0.01-0.005,0.022-0.01,0.034-0.014c0.005-0.002,0.013-0.005,0.021-0.008c0.025-0.01,0.055-0.015,0.073-0.018
		c0.019-0.004,0.037-0.008,0.054-0.01C11.971,16.001,11.986,16,11.999,16c0.015,0,0.031,0.002,0.047,0.004
		c0.016,0.002,0.03,0.005,0.045,0.008c0.032,0.005,0.058,0.011,0.084,0.021c0.002,0.001,0.005,0.002,0.009,0.003
		c0.014,0.004,0.027,0.01,0.04,0.016l2,1c0.247,0.123,0.347,0.424,0.224,0.671C14.361,17.894,14.189,18,13.999,18
		c-0.077,0-0.154-0.018-0.223-0.052l-1.277-0.638v1.984l1.854,1.854c0.094,0.094,0.146,0.22,0.146,0.354s-0.052,0.259-0.146,0.354
		S14.133,22,13.999,22z"/>
</g>
</svg>
