<?xml version="1.0" encoding="utf-8"?>
<!-- Generator: Adobe Illustrator 22.1.0, SVG Export Plug-In . SVG Version: 6.00 Build 0)  -->
<svg version="1.1" id="Layer_1" xmlns="http://www.w3.org/2000/svg" xmlns:xlink="http://www.w3.org/1999/xlink" x="0px" y="0px"
	 viewBox="0 0 24 24" style="enable-background:new 0 0 24 24;" xml:space="preserve">
<g>
	<title>primitive-symbols-woman-1</title>
	<path d="M15,24c-0.276,0-0.5-0.224-0.5-0.5V17h-5v6.5C9.5,23.776,9.276,24,9,24s-0.5-0.224-0.5-0.5v-7
		c0-0.011,0.001-0.023,0.003-0.035c0.003-0.047,0.011-0.086,0.023-0.123l0.843-2.529c0.077-0.231,0.096-0.48,0.056-0.72L8.586,8.059
		C7.953,8.24,7.5,8.823,7.5,9.5v6C7.5,15.776,7.276,16,7,16s-0.5-0.224-0.5-0.5v-6C6.5,8.121,7.621,7,9,7h6
		c1.378,0,2.5,1.121,2.5,2.5v6c0,0.276-0.224,0.5-0.5,0.5s-0.5-0.224-0.5-0.5v-6c0-0.677-0.453-1.26-1.086-1.441l-0.839,5.033
		c-0.04,0.241-0.021,0.49,0.056,0.721l0.843,2.529c0.013,0.038,0.021,0.08,0.023,0.125c0.002,0.011,0.002,0.023,0.002,0.033v7
		C15.5,23.776,15.276,24,15,24z M14.306,16l-0.623-1.871c-0.128-0.385-0.161-0.801-0.094-1.202L14.41,8H9.59l0.821,4.928
		c0.067,0.4,0.034,0.815-0.094,1.201L9.694,16H14.306z"/>
	<path d="M11.895,6c-1.079,0-2.054-0.571-2.587-1.484C8.988,4.883,8.561,5.15,8.091,5.27c-0.04,0.01-0.082,0.016-0.124,0.016
		c-0.229,0-0.428-0.155-0.484-0.376C7.45,4.78,7.469,4.646,7.537,4.531c0.068-0.115,0.177-0.196,0.306-0.229
		c0.588-0.15,1.021-0.68,1.053-1.289L8.895,3c0-1.654,1.346-3,3-3c1.622,0,2.96,1.311,2.998,2.93
		c0.004,0.016,0.006,0.035,0.007,0.056c0.019,0.618,0.451,1.16,1.05,1.316c0.129,0.034,0.238,0.116,0.305,0.231
		c0.068,0.115,0.086,0.25,0.052,0.379c-0.057,0.22-0.256,0.374-0.484,0.374c-0.042,0-0.085-0.005-0.126-0.016
		c-0.469-0.123-0.895-0.392-1.213-0.76C13.953,5.427,12.977,6,11.895,6z M9.896,2.965C9.899,2.983,9.9,3.002,9.9,3.015L9.897,3.051
		C9.918,4.12,10.814,5,11.895,5c1.103,0,2-0.897,2-2s-0.897-2-2-2C10.807,1,9.915,1.88,9.896,2.965z"/>
</g>
</svg>
