<?xml version="1.0" encoding="utf-8"?>
<!-- Generator: Adobe Illustrator 22.1.0, SVG Export Plug-In . SVG Version: 6.00 Build 0)  -->
<svg version="1.1" id="Light" xmlns="http://www.w3.org/2000/svg" xmlns:xlink="http://www.w3.org/1999/xlink" x="0px" y="0px"
	 viewBox="0 0 24 24" style="enable-background:new 0 0 24 24;" xml:space="preserve">
<g>
	<title>standing-lamp-double</title>
	<path d="M0.5,24C0.224,24,0,23.776,0,23.5S0.224,23,0.5,23h11V6H9.841C9.687,6,9.54,6.072,9.446,6.193L7.818,8.287l0.765,0.601
		c0.484,0.381,0.686,1.009,0.513,1.6L7.98,14.299c-0.075,0.256-0.245,0.468-0.479,0.596c-0.147,0.081-0.313,0.124-0.479,0.124
		c-0.094,0-0.189-0.014-0.281-0.041c-0.123-0.036-0.237-0.094-0.339-0.174l-5.129-4.028c-0.21-0.165-0.343-0.402-0.375-0.667
		C0.865,9.843,0.938,9.581,1.103,9.371c0.079-0.1,0.175-0.184,0.285-0.248l3.436-1.988c0.229-0.133,0.49-0.203,0.752-0.203
		c0.333,0,0.662,0.114,0.926,0.322l0.529,0.416l1.625-2.09C8.943,5.211,9.374,5,9.84,5h1.66V0.5C11.5,0.224,11.724,0,12,0
		c0.276,0,0.5,0.224,0.5,0.5V2h1.368c0.402,0,0.792,0.164,1.072,0.45l2.565,2.624l0.505-0.504c0.284-0.284,0.66-0.44,1.058-0.44
		c0.204,0,0.403,0.041,0.592,0.122l3.649,1.563c0.246,0.105,0.436,0.3,0.535,0.548c0.099,0.248,0.096,0.52-0.009,0.765
		c-0.05,0.117-0.121,0.222-0.211,0.313l-4.613,4.613c-0.189,0.189-0.44,0.293-0.707,0.293c-0.268,0-0.519-0.104-0.708-0.293
		c-0.09-0.091-0.161-0.196-0.212-0.312l-1.564-3.65c-0.242-0.567-0.118-1.214,0.317-1.65l0.66-0.66L14.226,3.15
		C14.133,3.055,14.002,3,13.869,3H12.5v20h11c0.276,0,0.5,0.224,0.5,0.5S23.776,24,23.5,24H0.5z M5.577,7.933
		c-0.087,0-0.174,0.024-0.251,0.068L1.89,9.989l5.13,4.029l1.116-3.809c0.057-0.197-0.01-0.406-0.171-0.533L5.885,8.04
		C5.796,7.97,5.689,7.933,5.577,7.933z M19.068,5.13c-0.132,0-0.257,0.052-0.352,0.147l-1.871,1.871
		c-0.145,0.145-0.187,0.361-0.106,0.55l1.564,3.649l4.612-4.612l-3.649-1.563C19.203,5.144,19.136,5.13,19.068,5.13z"/>
</g>
</svg>
