<?xml version="1.0" encoding="utf-8"?>
<!-- Generator: Adobe Illustrator 22.1.0, SVG Export Plug-In . SVG Version: 6.00 Build 0)  -->
<svg version="1.1" id="Light" xmlns="http://www.w3.org/2000/svg" xmlns:xlink="http://www.w3.org/1999/xlink" x="0px" y="0px"
	 viewBox="0 0 24 24" style="enable-background:new 0 0 24 24;" xml:space="preserve">
<g>
	<title>standing-lamp-1</title>
	<path d="M10,24c-0.276,0-0.5-0.224-0.5-0.5S9.725,23,10,23h1.5V8.949c-1.053-0.213-1.855-1.081-1.98-2.157
		C8.233,5.966,7.463,4.52,7.501,2.988L7.5,1c0-0.551,0.449-1,1-1h7c0.552,0,1,0.449,1,1v2c0.038,1.523-0.733,2.966-2.02,3.792
		c-0.125,1.076-0.927,1.943-1.98,2.157V23H14c0.276,0,0.5,0.224,0.5,0.5S14.276,24,14,24H10z M10.586,7C10.795,7.586,11.359,8,12,8
		c0.641,0,1.206-0.414,1.414-1H10.586z M13.866,6c1.04-0.63,1.665-1.768,1.634-2.988V1h-7l0,2c-0.03,1.229,0.594,2.37,1.635,3
		H13.866z"/>
</g>
</svg>
