<?xml version="1.0" encoding="utf-8"?>
<!-- Generator: Adobe Illustrator 22.1.0, SVG Export Plug-In . SVG Version: 6.00 Build 0)  -->
<svg version="1.1" id="Layer_1" xmlns="http://www.w3.org/2000/svg" xmlns:xlink="http://www.w3.org/1999/xlink" x="0px" y="0px"
	 viewBox="0 0 24 24" style="enable-background:new 0 0 24 24;" xml:space="preserve">
<g>
	<title>airport-stairs</title>
	<path d="M19,24c-1.199,0-2.215-0.845-2.449-2H7.449C7.215,23.155,6.199,24,5,24s-2.215-0.845-2.449-2H1c-0.551,0-1-0.448-1-1
		v-3.793c0-0.267,0.104-0.517,0.292-0.706l1.825-1.825l2.326-3.257C4.631,11.156,4.935,11,5.257,11H5.5v-1
		c0-0.827,0.673-1.5,1.5-1.5S8.5,9.173,8.5,10v1H9c0.551,0,1,0.449,1,1v7h5.742L10.301,6.303C10.222,6.119,10.041,6,9.841,6H4
		C2.346,6,1,4.654,1,3s1.346-3,3-3h8.871c0.576,0.002,1.106,0.339,1.352,0.858L22.816,19H23c0.552,0,1,0.448,1,1v1
		c0,0.552-0.448,1-1,1h-1.551C21.215,23.155,20.199,24,19,24z M19,20c-0.827,0-1.5,0.673-1.5,1.5S18.173,23,19,23s1.5-0.673,1.5-1.5
		S19.827,20,19,20z M5,20c-0.827,0-1.5,0.673-1.5,1.5S4.173,23,5,23s1.5-0.673,1.5-1.5S5.827,20,5,20z M23,21v-1h-2.001
		c0.222,0.295,0.376,0.635,0.45,1H23z M16.551,21c0.074-0.365,0.228-0.705,0.45-1H6.999c0.222,0.295,0.376,0.635,0.45,1H16.551z
		 M1,21h1.551c0.074-0.365,0.228-0.705,0.45-1H1V21z M21.71,19L13.319,1.286C13.237,1.113,13.061,1.001,12.869,1H4
		C2.897,1,2,1.897,2,3s0.897,2,2,2h5.841c0.601,0,1.142,0.357,1.379,0.909L16.83,19H21.71z M9,19v-3.505H2.712L1,17.208L1,19H9z
		 M9,14.495V12H5.257v-0.25c0,0,0,0.25,0,0.25l-1.781,2.495H9z M7.5,11v-1c0-0.276-0.224-0.5-0.5-0.5S6.5,9.724,6.5,10v1H7.5z"/>
</g>
</svg>
