<?xml version="1.0" encoding="utf-8"?>
<!-- Generator: Adobe Illustrator 22.1.0, SVG Export Plug-In . SVG Version: 6.00 Build 0)  -->
<svg version="1.1" id="Layer_1" xmlns="http://www.w3.org/2000/svg" xmlns:xlink="http://www.w3.org/1999/xlink" x="0px" y="0px"
	 viewBox="0 0 24 24" style="enable-background:new 0 0 24 24;" xml:space="preserve">
<g>
	<title>airport-road</title>
	<path d="M12,12.5c-2.481,0-4.5-2.019-4.5-4.5H1C0.724,8,0.5,7.776,0.5,7.5S0.724,7,1,7h6.616c0.053-0.232,0.123-0.459,0.211-0.675
		C7.828,6.318,7.833,6.304,7.84,6.29c0.619-1.51,2.04-2.575,3.66-2.757V0.5C11.5,0.224,11.724,0,12,0c0.276,0,0.5,0.224,0.5,0.5
		v3.033c1.62,0.182,3.042,1.247,3.664,2.766c0.002,0.006,0.012,0.031,0.014,0.038C16.261,6.544,16.331,6.768,16.384,7H23
		c0.276,0,0.5,0.224,0.5,0.5S23.275,8,23,8h-6.5C16.5,10.481,14.481,12.5,12,12.5z M8.649,7C8.55,7.329,8.5,7.665,8.5,8
		c0,1.93,1.57,3.5,3.5,3.5s3.5-1.57,3.5-3.5c0-0.336-0.05-0.671-0.15-1h-1.064c0.385,0.876,0.239,1.915-0.408,2.652
		c-0.474,0.54-1.159,0.85-1.881,0.85c-0.607,0-1.192-0.22-1.647-0.62C9.522,9.156,9.281,7.98,9.711,7H8.649z M10.871,7.014
		c-0.264,0.301-0.395,0.687-0.368,1.087c0.026,0.4,0.206,0.766,0.507,1.03c0.273,0.24,0.624,0.371,0.988,0.371
		c0.433,0,0.844-0.186,1.128-0.51C13.631,8.417,13.618,7.561,13.111,7h-2.227C10.88,7.005,10.875,7.009,10.871,7.014z M14.869,6
		c-0.554-0.797-1.405-1.323-2.37-1.46V6H14.869z M11.5,6V4.54C10.548,4.679,9.684,5.214,9.132,6H11.5z"/>
	<path d="M4,12.5c-1.379,0-2.5-1.121-2.5-2.5S2.621,7.5,4,7.5S6.5,8.621,6.5,10S5.378,12.5,4,12.5z M4,8.5
		c-0.827,0-1.5,0.673-1.5,1.5s0.673,1.5,1.5,1.5s1.5-0.673,1.5-1.5S4.827,8.5,4,8.5z"/>
	<path d="M20,12.5c-1.378,0-2.5-1.121-2.5-2.5s1.122-2.5,2.5-2.5s2.5,1.121,2.5,2.5S21.378,12.5,20,12.5z M20,8.5
		c-0.827,0-1.5,0.673-1.5,1.5s0.673,1.5,1.5,1.5s1.5-0.673,1.5-1.5S20.827,8.5,20,8.5z"/>
	<path d="M23,24c-0.221,0-0.414-0.142-0.478-0.354l-2.508-8.242c-0.08-0.264,0.069-0.543,0.333-0.624
		c0.048-0.015,0.097-0.022,0.146-0.022c0.221,0,0.413,0.143,0.478,0.354l2.508,8.242c0.08,0.264-0.069,0.543-0.333,0.624
		C23.098,23.993,23.049,24,23,24z"/>
	<path d="M12,24c-0.276,0-0.5-0.224-0.5-0.5v-4c0-0.276,0.224-0.5,0.5-0.5c0.276,0,0.5,0.224,0.5,0.5v4C12.5,23.776,12.275,24,12,24
		z"/>
	<path d="M12,17c-0.276,0-0.5-0.224-0.5-0.5V15c0-0.276,0.224-0.5,0.5-0.5c0.276,0,0.5,0.224,0.5,0.5v1.5
		C12.5,16.776,12.275,17,12,17z"/>
	<path d="M1,24c-0.049,0-0.098-0.007-0.145-0.021c-0.129-0.039-0.233-0.125-0.296-0.243c-0.063-0.118-0.076-0.253-0.037-0.381
		l2.508-8.242c0.064-0.212,0.257-0.354,0.479-0.354c0.049,0,0.098,0.007,0.145,0.021c0.128,0.039,0.233,0.125,0.296,0.243
		c0.063,0.118,0.076,0.253,0.037,0.381l-2.508,8.242C1.414,23.858,1.221,24,1,24z"/>
</g>
</svg>
