<?xml version="1.0" encoding="utf-8"?>
<!-- Generator: Adobe Illustrator 22.1.0, SVG Export Plug-In . SVG Version: 6.00 Build 0)  -->
<svg version="1.1" id="Layer_1" xmlns="http://www.w3.org/2000/svg" xmlns:xlink="http://www.w3.org/1999/xlink" x="0px" y="0px"
	 viewBox="0 0 24 24" style="enable-background:new 0 0 24 24;" xml:space="preserve">
<g>
	<title>travel-user-pin</title>
	<path d="M3.5,24c-0.258,0-0.477-0.201-0.498-0.458L2.54,18H0.5C0.224,18,0,17.776,0,17.5V14c0-3.033,2.467-5.5,5.5-5.5
		S11,10.967,11,14v3.5c0,0.276-0.224,0.5-0.5,0.5H8.46l-0.462,5.542C7.977,23.799,7.758,24,7.5,24H3.5z M7.04,23l0.462-5.542
		C7.523,17.201,7.742,17,8,17h2v-3c0-2.481-2.019-4.5-4.5-4.5S1,11.519,1,14v3h2c0.258,0,0.477,0.201,0.498,0.458L3.96,23H7.04z"/>
	<path d="M5.5,8c-2.206,0-4-1.794-4-4s1.794-4,4-4s4,1.794,4,4S7.706,8,5.5,8z M5.5,1c-1.654,0-3,1.346-3,3s1.346,3,3,3s3-1.346,3-3
		S7.154,1,5.5,1z"/>
	<path d="M19,7.5c-0.066,0-0.13-0.013-0.191-0.038c-0.061-0.025-0.116-0.062-0.162-0.108l-1.5-1.5c-0.195-0.195-0.195-0.512,0-0.707
		C17.241,5.052,17.366,5,17.5,5s0.259,0.052,0.354,0.146L18.5,5.793V5.25c0-0.869-0.338-1.685-0.952-2.299
		C16.934,2.338,16.119,2,15.251,2H13c-0.276,0-0.5-0.224-0.5-0.5S12.724,1,13,1h2.25c1.135,0,2.202,0.442,3.005,1.244
		C19.058,3.046,19.5,4.113,19.5,5.248v0.545l0.646-0.646C20.241,5.052,20.366,5,20.5,5s0.259,0.052,0.354,0.146S21,5.366,21,5.5
		s-0.052,0.259-0.146,0.354l-1.5,1.5c-0.047,0.047-0.101,0.083-0.163,0.109C19.13,7.487,19.066,7.5,19,7.5z"/>
	<path d="M18.408,23.7c-0.228,0-0.443-0.075-0.622-0.218c-0.058-0.047-0.111-0.099-0.158-0.157c-1.447-1.82-4.81-6.314-4.81-8.737
		c0-3.082,2.507-5.589,5.589-5.589c3.051,0,5.554,2.476,5.589,5.524C23.999,14.544,24,14.566,24,14.588
		c0,2.547-3.682,7.331-4.81,8.737c-0.166,0.208-0.404,0.339-0.669,0.369C18.484,23.698,18.446,23.7,18.408,23.7z M18.407,9.999
		c-2.53,0-4.589,2.059-4.589,4.589c0,1.722,2.372,5.32,4.592,8.113c2.188-2.728,4.539-6.271,4.589-8.058
		c-0.002-0.018-0.003-0.037-0.003-0.055C22.996,12.058,20.938,9.999,18.407,9.999z"/>
	<path d="M18.412,16.996c-1.328,0-2.408-1.08-2.408-2.408c0-1.328,1.08-2.408,2.408-2.408c1.327,0.001,2.407,1.081,2.408,2.407
		C20.82,15.916,19.74,16.996,18.412,16.996z M18.412,13.18c-0.776,0-1.408,0.632-1.408,1.408s0.632,1.408,1.408,1.408
		s1.408-0.632,1.408-1.408C19.819,13.812,19.188,13.181,18.412,13.18L18.412,13.18z"/>
</g>
</svg>
