<?xml version="1.0" encoding="utf-8"?>
<!-- Generator: Adobe Illustrator 22.1.0, SVG Export Plug-In . SVG Version: 6.00 Build 0)  -->
<svg version="1.1" id="Layer_1" xmlns="http://www.w3.org/2000/svg" xmlns:xlink="http://www.w3.org/1999/xlink" x="0px" y="0px"
	 viewBox="0 0 24 24" style="enable-background:new 0 0 24 24;" xml:space="preserve">
<g>
	<title>travel-suitcase</title>
	<path d="M4.829,15.205c-0.221,0-0.413-0.142-0.478-0.354c-1.292-4.218,1.087-8.7,5.305-9.993c0.762-0.233,1.549-0.352,2.34-0.352
		c3.486,0,6.633,2.326,7.653,5.657c0.426,1.39,0.465,2.87,0.114,4.28c-0.056,0.223-0.256,0.378-0.487,0.378
		c-0.039,0-0.079-0.005-0.117-0.014c-0.27-0.067-0.433-0.339-0.367-0.606c0.308-1.234,0.273-2.529-0.099-3.745
		c-0.214-0.699-0.535-1.357-0.955-1.956h-2.457c-0.23,0-0.429,0.156-0.485,0.378l-0.5,2c-0.032,0.13-0.012,0.264,0.056,0.379
		c0.069,0.115,0.178,0.196,0.307,0.228c0.04,0.01,0.081,0.015,0.122,0.015h1.052c0.226,0,0.425,0.153,0.483,0.371l0.667,2.5
		c0.035,0.129,0.017,0.264-0.05,0.38c-0.067,0.115-0.175,0.198-0.304,0.232C16.588,14.994,16.544,15,16.5,15
		c-0.226,0-0.425-0.153-0.483-0.371L15.449,12.5h-0.668c-0.123,0-0.246-0.015-0.365-0.045c-0.388-0.097-0.716-0.34-0.921-0.684
		c-0.206-0.344-0.266-0.747-0.168-1.136l0.5-2C13.993,7.967,14.592,7.5,15.281,7.5h1.606c-1.307-1.273-3.06-1.993-4.893-1.993
		c-0.691,0-1.379,0.104-2.045,0.308C7.69,6.507,5.971,8.246,5.296,10.5h2.923c0.689,0,1.287,0.467,1.455,1.135l0.5,2.001
		c0.113,0.451,0.013,0.92-0.273,1.287c-0.095,0.122-0.239,0.192-0.394,0.192c-0.111,0-0.22-0.038-0.307-0.106
		c-0.106-0.083-0.172-0.201-0.189-0.333c-0.016-0.133,0.02-0.264,0.102-0.369c0.095-0.122,0.129-0.278,0.091-0.428l-0.5-2
		C8.648,11.656,8.449,11.5,8.219,11.5H5.075C4.923,12.53,5,13.558,5.307,14.559c0.081,0.263-0.068,0.543-0.331,0.625
		C4.929,15.198,4.879,15.205,4.829,15.205z"/>
	<path d="M1.5,24C0.673,24,0,23.327,0,22.5v-5c0-0.64,0.41-1.205,1-1.414V3.5C1,2.673,1.673,2,2.5,2H5V1c0-0.551,0.449-1,1-1h1
		c0.551,0,1,0.449,1,1v1h8V1c0-0.551,0.448-1,1-1h1c0.552,0,1,0.449,1,1v1h2.5C22.327,2,23,2.673,23,3.5v12.586
		c0.59,0.209,1,0.774,1,1.414v5c0,0.827-0.673,1.5-1.5,1.5H1.5z M22.5,23c0.276,0,0.5-0.224,0.5-0.5v-1.955
		c-1.246,0.212-2.243,1.209-2.455,2.455H22.5z M19.536,23c0.227-1.802,1.662-3.238,3.464-3.464V17.5c0-0.276-0.224-0.5-0.5-0.5H21
		v1.5c0,0.276-0.224,0.5-0.5,0.5h-2c-0.276,0-0.5-0.224-0.5-0.5V17H6v1.5C6,18.776,5.776,19,5.5,19h-2C3.224,19,3,18.776,3,18.5V17
		H1.5C1.224,17,1,17.224,1,17.5v2.036C2.802,19.762,4.238,21.198,4.464,23H19.536z M1,22.5C1,22.776,1.224,23,1.5,23h1.955
		C3.243,21.754,2.246,20.757,1,20.545V22.5z M20,18v-1h-1v1H20z M5,18v-1H4v1H5z M22,16V3.5C22,3.224,21.776,3,21.5,3h-19
		C2.224,3,2,3.224,2,3.5V16H22z M18,2V1h-1l0,1H18z M7,2V1H6l0,1H7z"/>
	<path d="M8.5,21C8.224,21,8,20.776,8,20.5V19c0-0.276,0.224-0.5,0.5-0.5S9,18.724,9,19v1h6v-1c0-0.276,0.224-0.5,0.5-0.5
		S16,18.724,16,19v1.5c0,0.276-0.224,0.5-0.5,0.5H8.5z"/>
</g>
</svg>
