<?xml version="1.0" encoding="utf-8"?>
<!-- Generator: Adobe Illustrator 22.1.0, SVG Export Plug-In . SVG Version: 6.00 Build 0)  -->
<svg version="1.1" id="Layer_1" xmlns="http://www.w3.org/2000/svg" xmlns:xlink="http://www.w3.org/1999/xlink" x="0px" y="0px"
	 viewBox="0 0 24 24" style="enable-background:new 0 0 24 24;" xml:space="preserve">
<g>
	<title>travel-luggage</title>
	<path d="M3.5,21c-1.925-0.006-3.494-1.575-3.5-3.499V7.5C0.006,5.575,1.575,4.006,3.499,4H8V2.5C8.004,1.125,9.125,0.004,10.499,0
		H13.5c1.375,0.004,2.496,1.125,2.5,2.499V4h4.5c1.925,0.006,3.494,1.575,3.5,3.499V10.5c0,0.276-0.224,0.5-0.5,0.5
		S23,10.776,23,10.5v-3c-0.004-1.374-1.126-2.496-2.501-2.5H20v4c0,0.276-0.224,0.5-0.5,0.5S19,9.276,19,9V5h-2v4
		c0,0.276-0.224,0.5-0.5,0.5S16,9.276,16,9V5H8v15h1c0.276,0,0.5,0.224,0.5,0.5S9.276,21,9,21H3.5z M7,20V5H5v15H7z M3.501,5
		C2.126,5.004,1.004,6.126,1,7.501V17.5c0.004,1.374,1.126,2.496,2.501,2.5H4V5H3.501z M15,4V2.5
		c-0.002-0.824-0.676-1.497-1.501-1.5h-2.998C9.676,1.003,9.003,1.676,9,2.501V4H15z"/>
	<path d="M17.5,24c-2.06,0-4.019-0.996-5.243-2.664c-0.016-0.019-0.026-0.035-0.033-0.045C11.424,20.179,11,18.868,11,17.5
		c0-0.933,0.196-1.836,0.583-2.685c0-0.003,0.01-0.024,0.021-0.045C12.661,12.484,14.977,11,17.5,11
		c1.537,0,3.027,0.549,4.201,1.546c0.099,0.043,0.18,0.115,0.232,0.206C23.247,13.98,24,15.708,24,17.5C24,21.084,21.084,24,17.5,24
		z M13.731,21.5c1.017,0.959,2.362,1.5,3.769,1.5c2.285,0,4.302-1.393,5.123-3.5H22.5c-1.103,0-2-0.897-2-2
		c0-0.276-0.224-0.5-0.5-0.5c-0.827,0-1.5-0.673-1.5-1.5c0-1.205,0.712-2.267,1.784-2.74C19.441,12.261,18.488,12,17.5,12
		c-1.866,0-3.595,0.948-4.608,2.5H13c1.103,0,2,0.897,2,2c0,0.276,0.224,0.5,0.5,0.5c0.827,0,1.5,0.673,1.5,1.5c0,1.654-1.346,3-3,3
		H13.731z M14,20.5c1.103,0,2-0.897,2-2c0-0.276-0.224-0.5-0.5-0.5c-0.827,0-1.5-0.673-1.5-1.5c0-0.552-0.448-1-1-1h-0.623
		c-0.25,0.637-0.377,1.309-0.377,2c0,1.071,0.308,2.105,0.893,3H14z M21.286,13.514c-1.01,0.108-1.786,0.961-1.786,1.986
		c0,0.276,0.224,0.5,0.5,0.5c0.827,0,1.5,0.673,1.5,1.5c0,0.552,0.448,1,1,1h0.407c0.062-0.332,0.093-0.667,0.093-1
		C23,15.998,22.376,14.551,21.286,13.514z"/>
</g>
</svg>
