<?xml version="1.0" encoding="utf-8"?>
<!-- Generator: Adobe Illustrator 22.1.0, SVG Export Plug-In . SVG Version: 6.00 Build 0)  -->
<svg version="1.1" id="Layer_1" xmlns="http://www.w3.org/2000/svg" xmlns:xlink="http://www.w3.org/1999/xlink" x="0px" y="0px"
	 viewBox="0 0 24 24" style="enable-background:new 0 0 24 24;" xml:space="preserve">
<g>
	<title>travel-man-luggage</title>
	<path d="M4.5,24.004c-0.258,0-0.477-0.201-0.498-0.458L3.54,18.004H1.5c-0.276,0-0.5-0.224-0.5-0.5v-3.5c0-3.033,2.467-5.5,5.5-5.5
		s5.5,2.467,5.5,5.5v3.5c0,0.276-0.224,0.5-0.5,0.5H9.46l-0.462,5.542c-0.022,0.257-0.24,0.458-0.498,0.458H4.5z M8.04,23.004
		l0.462-5.542c0.022-0.257,0.24-0.458,0.498-0.458h2v-3c0-2.481-2.019-4.5-4.5-4.5S2,11.523,2,14.004v3h2
		c0.258,0,0.477,0.201,0.498,0.458l0.462,5.542H8.04z"/>
	<path d="M6.5,8.004c-2.206,0-4-1.794-4-4c0-1.647,1.038-3.149,2.583-3.736L5.13,0.25c0.124-0.045,0.234-0.079,0.345-0.109
		C5.52,0.13,5.56,0.119,5.601,0.109c0.091-0.021,0.182-0.037,0.273-0.052L5.911,0.05c0.028-0.006,0.056-0.012,0.085-0.015
		c0.016-0.002,0.031-0.003,0.046-0.004c0.046-0.005,0.079-0.007,0.112-0.009l0.042-0.003c0.094-0.007,0.187-0.013,0.28-0.014
		c0.013,0,0.023,0,0.032,0c0.021,0,0.032,0.001,0.044,0.002C6.674,0.009,6.78,0.013,6.885,0.023l0.086,0.011
		c0.103,0.012,0.204,0.027,0.303,0.047c0.025,0.005,0.107,0.024,0.107,0.024c0.09,0.02,0.179,0.042,0.266,0.069
		c0.035,0.011,0.071,0.023,0.106,0.035l0.03,0.01C7.857,0.244,7.931,0.27,8.004,0.299c0.05,0.021,0.099,0.043,0.148,0.066
		C8.228,0.4,8.286,0.427,8.343,0.457C8.406,0.49,8.467,0.525,8.527,0.561c0.056,0.033,0.097,0.057,0.137,0.084
		C8.733,0.689,8.8,0.737,8.866,0.785c0,0,0.074,0.055,0.101,0.075C9.04,0.919,9.111,0.98,9.181,1.043l0.063,0.058
		C9.324,1.177,9.4,1.256,9.473,1.337l0.025,0.028c0.645,0.732,1.001,1.67,1.001,2.639C10.5,6.209,8.706,8.004,6.5,8.004z
		 M3.654,3.062C3.552,3.367,3.5,3.682,3.5,4.004c0,1.654,1.346,3,3,3c1.576,0,2.872-1.222,2.991-2.768
		c-0.589,0.178-1.2,0.268-1.82,0.268c-0.001,0-0.005,0-0.005,0C6.219,4.504,4.776,3.982,3.654,3.062z M7.678,3.504
		c0.58,0,1.155-0.095,1.705-0.284C9.236,2.659,8.93,2.16,8.491,1.766l0.135-0.215L8.462,1.74C8.408,1.693,8.353,1.65,8.296,1.607
		L8.233,1.56c-0.05-0.036-0.101-0.068-0.152-0.101C8.044,1.436,8.016,1.419,7.987,1.402c-0.045-0.026-0.091-0.05-0.138-0.074
		C7.808,1.308,7.766,1.287,7.724,1.268c-0.04-0.018-0.08-0.035-0.121-0.051c-0.051-0.02-0.103-0.04-0.156-0.057
		c-0.035-0.012-0.07-0.023-0.104-0.033C7.28,1.108,7.217,1.092,7.153,1.078L7.069,1.06C6.997,1.046,6.924,1.035,6.85,1.026
		L6.782,1.018C6.704,1.011,6.625,1.008,6.545,1.006L6.481,1.005C6.405,1.006,6.331,1.01,6.258,1.016L6.17,1.023
		C6.131,1.028,6.093,1.034,6.055,1.04l-0.04,0.007c-0.067,0.011-0.119,0.02-0.17,0.031C5.821,1.084,5.744,1.105,5.744,1.105
		C5.67,1.124,5.596,1.145,5.523,1.171L5.491,1.182c-0.54,0.201-1.008,0.544-1.348,0.983C5.106,3.017,6.375,3.502,7.66,3.504
		c0.002,0,0.005,0,0.007,0C7.67,3.504,7.675,3.504,7.678,3.504z"/>
	<path d="M17.5,24.004c-0.827,0-1.5-0.673-1.5-1.5c0-0.64,0.41-1.205,1-1.414V9.004c0-0.276,0.224-0.5,0.5-0.5s0.5,0.224,0.5,0.5v4
		h3.5c0.827,0,1.5,0.673,1.5,1.5v7c0,0.827-0.673,1.5-1.5,1.5h-2.586C18.705,23.594,18.14,24.004,17.5,24.004z M17.5,22.004
		c-0.276,0-0.5,0.224-0.5,0.5s0.224,0.5,0.5,0.5s0.5-0.224,0.5-0.5S17.776,22.004,17.5,22.004z M21.5,22.004
		c0.276,0,0.5-0.224,0.5-0.5v-7c0-0.276-0.224-0.5-0.5-0.5H18v7.085c0.428,0.151,0.764,0.487,0.914,0.915H21.5z"/>
</g>
</svg>
