<?xml version="1.0" encoding="utf-8"?>
<!-- Generator: Adobe Illustrator 22.1.0, SVG Export Plug-In . SVG Version: 6.00 Build 0)  -->
<svg version="1.1" id="Layer_1" xmlns="http://www.w3.org/2000/svg" xmlns:xlink="http://www.w3.org/1999/xlink" x="0px" y="0px"
	 viewBox="0 0 24 24" style="enable-background:new 0 0 24 24;" xml:space="preserve">
<g>
	<title>travel-crossroad-direction-board</title>
	<path d="M23,23.978c-0.275,0-0.499-0.224-0.5-0.498c-0.008-2.395-0.795-4.639-2.278-6.497h-5.868
		c-0.048-0.002-0.082-0.003-0.114-0.003c-0.03,0-0.059,0.001-0.088,0.002c-0.44,0.023-0.845,0.217-1.141,0.545
		c-0.295,0.328-0.445,0.752-0.422,1.193c0.023,0.441,0.217,0.846,0.545,1.142c0.304,0.274,0.693,0.424,1.095,0.424
		c0.032,0,0.064-0.001,0.096-0.003l0.441-0.001c1.129,0,2.177,0.561,2.803,1.5l0.945,1.418c0.153,0.229,0.091,0.541-0.139,0.693
		c-0.083,0.055-0.179,0.084-0.277,0.084c-0.168,0-0.323-0.083-0.416-0.223l-0.945-1.418c-0.44-0.66-1.177-1.054-1.971-1.054h-0.414
		c-0.032,0.002-0.076,0.003-0.12,0.003c-0.652,0-1.28-0.242-1.768-0.681c-0.527-0.474-0.838-1.125-0.875-1.832
		c-0.037-0.708,0.203-1.387,0.677-1.914c0.474-0.527,1.125-0.838,1.832-0.875c0.047-0.002,0.093-0.003,0.14-0.003
		s0.093,0.001,0.14,0.003l4.938,0c-1.97-1.916-4.564-2.969-7.316-2.969h-0.036c-4.783,0.015-9.004,3.346-10.155,7.965H6.99
		c0.9,0,1.746,0.351,2.383,0.988l1.073,1.072c0.03,0.03,0.057,0.063,0.083,0.097c0.189,0.206,0.177,0.523-0.025,0.71
		c-0.093,0.086-0.214,0.133-0.34,0.133c-0.139,0-0.273-0.058-0.367-0.16c-0.023-0.025-0.043-0.051-0.063-0.076l-1.068-1.069
		c-0.448-0.448-1.043-0.694-1.676-0.695H1.617C1.542,22.482,1.502,22.987,1.5,23.48c-0.001,0.274-0.225,0.498-0.5,0.498
		c-0.278-0.001-0.501-0.227-0.5-0.502c0.003-0.688,0.068-1.379,0.193-2.055c0-0.002,0.003-0.024,0.005-0.033
		c0.985-5.23,5.506-9.13,10.802-9.361V9.981H9.211c-0.214,0-0.426-0.07-0.598-0.198L7.251,8.791C7.167,8.73,7.094,8.657,7.035,8.575
		C6.877,8.361,6.812,8.097,6.853,7.833c0.04-0.264,0.181-0.497,0.397-0.655l1.362-1C8.78,6.052,8.992,5.981,9.207,5.981H11.5v-1h-3
		c-0.276,0-0.5-0.224-0.5-0.5v-3c0-0.276,0.224-0.5,0.5-0.5h3V0.522c0-0.276,0.224-0.5,0.5-0.5c0.276,0,0.5,0.224,0.5,0.5v0.459
		h2.793c0.215,0,0.428,0.071,0.6,0.2l1.358,0.997c0.215,0.158,0.356,0.391,0.396,0.655c0.041,0.264-0.024,0.528-0.183,0.743
		c-0.059,0.081-0.131,0.153-0.213,0.214l-1.367,0.995c-0.17,0.126-0.382,0.197-0.596,0.197H12.5v1H16c0.276,0,0.5,0.224,0.5,0.5v3
		c0,0.276-0.224,0.5-0.5,0.5h-3.5v2.047c2.87,0.122,5.562,1.298,7.606,3.328c0.223,0.221,0.44,0.457,0.663,0.72
		c0.073,0.051,0.131,0.119,0.168,0.2c1.668,2.052,2.554,4.541,2.563,7.201c0,0.133-0.051,0.259-0.145,0.354
		s-0.219,0.147-0.353,0.148C23.001,23.978,23.001,23.978,23,23.978L23,23.978z M12,8.978c0.012,0,0.025,0.001,0.039,0.003l3.461,0
		v-2H9.207L7.841,7.984l1.364,0.993l2.758,0.004C11.976,8.979,11.989,8.978,12,8.978z M12,3.978c0.012,0,0.025,0.001,0.039,0.003
		l3.25,0c0.002-0.001,1.372-0.998,1.372-0.998l-1.364-0.999L9,1.981v2h2.963C11.976,3.979,11.989,3.978,12,3.978z"/>
</g>
</svg>
