<?xml version="1.0" encoding="utf-8"?>
<!-- Generator: Adobe Illustrator 22.1.0, SVG Export Plug-In . SVG Version: 6.00 Build 0)  -->
<svg version="1.1" id="Layer_1" xmlns="http://www.w3.org/2000/svg" xmlns:xlink="http://www.w3.org/1999/xlink" x="0px" y="0px"
	 viewBox="0 0 24 24" style="enable-background:new 0 0 24 24;" xml:space="preserve">
<g>
	<title>surveillance-location-1</title>
	<path d="M12,24c-0.276,0-0.5-0.224-0.5-0.5v-0.518c-2.753-0.123-5.33-1.255-7.277-3.202c-1.952-1.952-3.086-4.529-3.208-7.28H0.5
		C0.224,12.5,0,12.276,0,12c0-0.276,0.224-0.5,0.5-0.5h0.514C1.137,8.75,2.27,6.175,4.221,4.224c1.948-1.948,4.524-3.08,7.279-3.203
		V0.5C11.5,0.224,11.724,0,12,0c0.276,0,0.5,0.224,0.5,0.5v0.521c2.754,0.124,5.33,1.255,7.278,3.202
		c0.094,0.094,0.146,0.22,0.146,0.354s-0.052,0.259-0.146,0.354l-6.571,6.57H23.5c0.276,0,0.5,0.224,0.5,0.5
		c0,0.276-0.224,0.5-0.5,0.5h-0.514c-0.122,2.75-1.255,5.327-3.207,7.279c-1.947,1.948-4.524,3.08-7.279,3.203V23.5
		C12.5,23.776,12.276,24,12,24z M12.5,21.981c2.488-0.123,4.812-1.15,6.572-2.91c1.763-1.763,2.791-4.088,2.913-6.572h-3.004
		c-0.119,1.681-0.835,3.253-2.033,4.449c-1.197,1.196-2.769,1.911-4.448,2.03V21.981z M2.015,12.5
		c0.122,2.484,1.151,4.81,2.914,6.573c1.759,1.759,4.084,2.786,6.57,2.908v-3.002c-1.681-0.118-3.254-0.835-4.451-2.032
		c-1.196-1.196-1.911-2.767-2.03-4.447H2.015z M12.5,17.976c1.412-0.116,2.733-0.726,3.741-1.734
		c1.009-1.009,1.62-2.329,1.737-3.742H12.5v0.566C13.369,13.291,14,14.087,14,15s-0.631,1.709-1.5,1.934V17.976z M6.022,12.5
		c0.117,1.412,0.727,2.732,1.734,3.74c1.009,1.01,2.33,1.62,3.744,1.737v-1.042C10.631,16.709,10,15.913,10,15
		s0.631-1.709,1.5-1.934V12.5H6.022z M12,14c-0.551,0-1,0.448-1,1s0.449,1,1,1c0.552,0,1-0.448,1-1S12.552,14,12,14z M11.5,11.5
		V6.014C10.744,6.08,9.994,6.295,9.306,6.643C9.433,6.91,9.5,7.202,9.5,7.5c0,1.103-0.897,2-2,2c-0.299,0-0.591-0.067-0.858-0.194
		C6.299,9.988,6.088,10.738,6.024,11.5H11.5z M5.022,11.5c0.072-0.998,0.359-1.978,0.839-2.856C5.627,8.309,5.5,7.909,5.5,7.5
		c0-1.103,0.897-2,2-2c0.41,0,0.81,0.127,1.144,0.361c0.884-0.485,1.864-0.776,2.856-0.85v-2.99c-2.487,0.123-4.812,1.15-6.572,2.91
		C3.166,6.693,2.137,9.018,2.015,11.5H5.022z M12.5,10.793l3.375-3.375c-0.957-0.811-2.138-1.304-3.375-1.407V10.793z M7.5,6.5
		c-0.551,0-1,0.449-1,1s0.449,1,1,1s1-0.449,1-1S8.051,6.5,7.5,6.5z M12.5,5.008c1.501,0.107,2.935,0.704,4.083,1.702l2.125-2.125
		C17,3.038,14.813,2.135,12.5,2.021V5.008z"/>
</g>
</svg>
