<?xml version="1.0" encoding="utf-8"?>
<!-- Generator: Adobe Illustrator 22.1.0, SVG Export Plug-In . SVG Version: 6.00 Build 0)  -->
<svg version="1.1" id="Layer_1" xmlns="http://www.w3.org/2000/svg" xmlns:xlink="http://www.w3.org/1999/xlink" x="0px" y="0px"
	 viewBox="0 0 24 24" style="enable-background:new 0 0 24 24;" xml:space="preserve">
<g>
	<title>surveillance-cctv-1</title>
	<path d="M7.5,11c-1.199,0-2.215-0.845-2.449-2H5C4.449,9,4,8.551,4,8V3c0-1.654,1.346-3,3-3h16c0.552,0,1,0.449,1,1
		c0,0.08-0.01,0.161-0.03,0.24l-0.775,3.101c-0.086,0.347-0.354,0.623-0.699,0.72L20,5.761V10c0,0.551-0.448,1-1,1H7.5z M6.088,9
		C6.297,9.586,6.86,10,7.5,10H19V6.04l-3,0.839V8c0,0.551-0.448,1-1,1H6.088z M7,1C5.897,1,5,1.897,5,3v5h10V6.5
		c0-0.223,0.15-0.421,0.365-0.481L22.226,4.1L23,1L7,1z"/>
	<path d="M21.5,9.5C21.224,9.5,21,9.276,21,9V7c0-0.276,0.224-0.5,0.5-0.5S22,6.724,22,7v2C22,9.276,21.776,9.5,21.5,9.5z"/>
	<path d="M0.5,24C0.224,24,0,23.776,0,23.5v-6C0,17.224,0.224,17,0.5,17S1,17.224,1,17.5v2.39l8.602-1.719
		C9.833,18.124,10,17.917,10,17.68V13H8.5C8.224,13,8,12.776,8,12.5C8,12.224,8.224,12,8.5,12h4c0.276,0,0.5,0.224,0.5,0.5
		c0,0.276-0.224,0.5-0.5,0.5H11v4.68c0.001,0.71-0.504,1.329-1.2,1.471L1,20.91v2.59C1,23.776,0.776,24,0.5,24z"/>
</g>
</svg>
