<?xml version="1.0" encoding="utf-8"?>
<!-- Generator: Adobe Illustrator 22.1.0, SVG Export Plug-In . SVG Version: 6.00 Build 0)  -->
<svg version="1.1" id="Layer_1" xmlns="http://www.w3.org/2000/svg" xmlns:xlink="http://www.w3.org/1999/xlink" x="0px" y="0px"
	 viewBox="0 0 24 24" style="enable-background:new 0 0 24 24;" xml:space="preserve">
<g>
	<title>surveillance-camera-1</title>
	<path d="M12,20c-4.963,0-9-4.037-9-9v-0.051C1.845,10.715,1,9.699,1,8.5V5.001H0.5c-0.276,0-0.5-0.224-0.5-0.5s0.224-0.5,0.5-0.5
		h0.979C1.486,4,1.493,4,1.5,4h21c0.007,0,0.014,0,0.021,0.001H23.5c0.276,0,0.5,0.224,0.5,0.5s-0.224,0.5-0.5,0.5H23V8.5
		c0,1.199-0.845,2.215-2,2.449V11C21,15.963,16.963,20,12,20z M4,11c0,4.411,3.589,8,8,8c4.411,0,8-3.589,8-8H4z M2,8.5
		C2,9.327,2.673,10,3.5,10h17c0.827,0,1.5-0.673,1.5-1.5V5.001H2V8.5z"/>
	<path d="M11,16.999c-1.103,0-2-0.897-2-2s0.897-2,2-2s2,0.897,2,2S12.103,16.999,11,16.999z M11,13.999c-0.551,0-1,0.448-1,1
		s0.449,1,1,1s1-0.448,1-1S11.551,13.999,11,13.999z"/>
	<path d="M18.5,7.999c-0.276,0-0.5-0.224-0.5-0.5s0.224-0.5,0.5-0.5h2c0.276,0,0.5,0.224,0.5,0.5s-0.224,0.5-0.5,0.5H18.5z"/>
	<path d="M15.5,7.999c-0.276,0-0.5-0.224-0.5-0.5s0.224-0.5,0.5-0.5h1c0.276,0,0.5,0.224,0.5,0.5s-0.224,0.5-0.5,0.5H15.5z"/>
</g>
</svg>
