<?xml version="1.0" encoding="utf-8"?>
<!-- Generator: Adobe Illustrator 22.1.0, SVG Export Plug-In . SVG Version: 6.00 Build 0)  -->
<svg version="1.1" id="Layer_1" xmlns="http://www.w3.org/2000/svg" xmlns:xlink="http://www.w3.org/1999/xlink" x="0px" y="0px"
	 viewBox="0 0 24 24" style="enable-background:new 0 0 24 24;" xml:space="preserve">
<g>
	<title>surveillance-360-camera</title>
	<path d="M12,16c-4.411,0-8-3.589-8-8c0-4.411,3.589-8,8-8c4.411,0,8,3.589,8,8C20,12.411,16.411,16,12,16z M12,1C8.14,1,5,4.14,5,8
		s3.14,7,7,7s7-3.14,7-7S15.86,1,12,1z"/>
	<path d="M12,13c-2.757,0-5-2.243-5-5s2.243-5,5-5c2.757,0,5,2.243,5,5S14.757,13,12,13z M12,4C9.794,4,8,5.794,8,8s1.794,4,4,4
		s4-1.794,4-4S14.206,4,12,4z"/>
	<path d="M14.5,8.5C14.224,8.5,14,8.276,14,8c0-1.103-0.897-2-2-2c-0.276,0-0.5-0.224-0.5-0.5S11.724,5,12,5c1.654,0,3,1.346,3,3
		C15,8.276,14.776,8.5,14.5,8.5z"/>
	<path d="M11.5,24c-0.827,0-1.5-0.673-1.5-1.5V21c0-1.103,0.897-2,2-2c0.276,0,0.5,0.224,0.5,0.5S12.276,20,12,20
		c-0.551,0-1,0.448-1,1v0.088C11.16,21.03,11.328,21,11.5,21c0.827,0,1.5,0.673,1.5,1.5S12.327,24,11.5,24z M11.5,22
		c-0.276,0-0.5,0.224-0.5,0.5s0.224,0.5,0.5,0.5s0.5-0.224,0.5-0.5S11.776,22,11.5,22z"/>
	<path d="M7.498,24c-0.67,0-1.264-0.451-1.444-1.097c-0.036-0.128-0.02-0.263,0.046-0.38c0.066-0.116,0.172-0.2,0.301-0.236
		c0.044-0.012,0.089-0.019,0.135-0.019c0.223,0,0.421,0.15,0.481,0.366C7.078,22.85,7.276,23,7.499,23c0.276,0,0.5-0.224,0.5-0.5
		c0-0.133-0.052-0.259-0.146-0.354C7.758,22.052,7.633,22,7.5,22c-0.133,0-0.259-0.052-0.354-0.147C7.052,21.759,7,21.633,7,21.5
		C7,21.224,7.224,21,7.5,21c0.226,0,0.424-0.152,0.483-0.37C8.017,20.5,8,20.366,7.933,20.25c-0.067-0.116-0.175-0.199-0.304-0.233
		C7.587,20.006,7.543,20,7.499,20c-0.087,0-0.173,0.023-0.249,0.067c-0.115,0.066-0.198,0.174-0.233,0.303
		c-0.058,0.218-0.256,0.371-0.482,0.371c-0.044,0-0.088-0.006-0.131-0.018c-0.128-0.034-0.236-0.117-0.303-0.232
		c-0.067-0.116-0.085-0.251-0.05-0.38c0.104-0.387,0.352-0.71,0.699-0.911C6.978,19.069,7.237,19,7.498,19
		c0.131,0,0.262,0.017,0.39,0.052c0.387,0.104,0.711,0.352,0.911,0.699c0.2,0.347,0.253,0.751,0.15,1.138
		c-0.061,0.227-0.176,0.438-0.332,0.612C8.86,21.774,9,22.131,8.999,22.501c0,0.401-0.157,0.777-0.44,1.06
		C8.276,23.844,7.899,24,7.499,24H7.498z"/>
	<path d="M15.5,24c-0.827,0-1.5-0.673-1.5-1.5v-2c0-0.827,0.673-1.5,1.5-1.5s1.5,0.673,1.5,1.5v2C17,23.327,16.327,24,15.5,24z
		 M15.5,20c-0.276,0-0.5,0.224-0.5,0.5v2c0,0.276,0.224,0.5,0.5,0.5s0.5-0.224,0.5-0.5v-2C16,20.224,15.776,20,15.5,20z"/>
	<path d="M3.282,20c-0.088,0-0.175-0.023-0.251-0.068C1.076,18.797,0,17.312,0,15.75c0-1.478,0.971-2.9,2.735-4.004
		C2.815,11.696,2.906,11.67,3,11.67c0.173,0,0.332,0.088,0.424,0.234c0.146,0.234,0.075,0.543-0.158,0.689
		C1.805,13.509,1,14.629,1,15.75c0,1.191,0.9,2.369,2.533,3.318c0.238,0.138,0.32,0.445,0.181,0.683C3.625,19.905,3.459,20,3.282,20
		z"/>
	<path d="M20.5,20c-0.276,0-0.5-0.224-0.5-0.5V17c0-0.276,0.224-0.5,0.5-0.5S21,16.724,21,17v1.73c1.294-0.885,2-1.931,2-2.98
		c0-1.12-0.807-2.242-2.272-3.16c-0.233-0.147-0.304-0.456-0.158-0.689c0.093-0.147,0.251-0.234,0.424-0.234
		c0.094,0,0.186,0.026,0.265,0.076c1.793,1.124,2.74,2.51,2.74,4.008c0,1.167-0.589,2.28-1.711,3.25H23.5c0.276,0,0.5,0.224,0.5,0.5
		S23.776,20,23.5,20H20.5z"/>
	<circle cx="17.75" cy="18.25" r="0.75"/>
</g>
</svg>
