<?xml version="1.0" encoding="utf-8"?>
<!-- Generator: Adobe Illustrator 22.1.0, SVG Export Plug-In . SVG Version: 6.00 Build 0)  -->
<svg version="1.1" id="Layer_1" xmlns="http://www.w3.org/2000/svg" xmlns:xlink="http://www.w3.org/1999/xlink" x="0px" y="0px"
	 viewBox="0 0 24 24" style="enable-background:new 0 0 24 24;" xml:space="preserve">
<g>
	<title>surveillance-camera-smartphone</title>
	<path d="M7.497,10.993c-2.673,0-5.047-1.795-5.775-4.366C1.481,5.774,1.433,4.87,1.581,3.994c-0.59-0.053-1.097-0.45-1.287-1.02
		C0.288,2.958,0.283,2.94,0.28,2.922L0.063,1.936c-0.244-0.756,0.184-1.6,0.96-1.859C1.175,0.026,1.334,0,1.496,0h12
		c0.401,0,0.777,0.156,1.061,0.439c0.283,0.283,0.439,0.66,0.439,1.061c0,0.156-0.024,0.31-0.072,0.459l-0.211,0.965
		c-0.005,0.02-0.009,0.037-0.015,0.055c-0.189,0.567-0.697,0.963-1.287,1.016c0.509,2.998-1.324,5.934-4.281,6.771
		C8.596,10.916,8.047,10.993,7.497,10.993z M2.598,4C2.439,4.782,2.468,5.592,2.684,6.354C3.291,8.497,5.27,9.993,7.497,9.993
		c0.458,0,0.916-0.064,1.36-0.19C11.392,9.086,12.913,6.561,12.389,4H2.598z M2.187,2.998c0.019,0,0.038,0.001,0.058,0.003L12.766,3
		c0.001-0.001,0.019-0.002,0.037-0.002c0.014,0,0.028,0.001,0.042,0.002h0.43c0.208,0,0.395-0.129,0.468-0.321l0.213-0.97
		c0.004-0.018,0.008-0.034,0.013-0.049c0.018-0.052,0.026-0.106,0.026-0.159c0-0.133-0.052-0.259-0.146-0.353
		C13.755,1.052,13.63,1,13.496,1h-12C1.443,1,1.39,1.009,1.339,1.026C1.213,1.068,1.11,1.157,1.05,1.276
		c-0.06,0.12-0.07,0.255-0.028,0.382c0.005,0.016,0.01,0.034,0.014,0.052L1.25,2.679C1.323,2.871,1.51,3,1.717,3h0.428
		C2.159,2.999,2.173,2.998,2.187,2.998z"/>
	<path d="M16.496,24c-0.827,0-1.5-0.673-1.5-1.5v-11c0-0.827,0.673-1.5,1.5-1.5h6c0.827,0,1.5,0.673,1.5,1.5v11
		c0,0.827-0.673,1.5-1.5,1.5H16.496z M15.996,22.5c0,0.276,0.224,0.5,0.5,0.5h6c0.276,0,0.5-0.224,0.5-0.5V20h-7V22.5z M22.996,19
		v-7.5c0-0.276-0.224-0.5-0.5-0.5h-6c-0.276,0-0.5,0.224-0.5,0.5V19H22.996z"/>
	<path d="M19.497,22.25c-0.414,0-0.75-0.336-0.75-0.75c0-0.394,0.309-0.722,0.704-0.746c0.003,0,0.03-0.003,0.033-0.003
		c0,0-0.011,0-0.019,0.001c0.01-0.001,0.022-0.002,0.032-0.002c0.406,0,0.74,0.327,0.75,0.731c0,0.006,0,0.031,0,0.038
		C20.235,21.924,19.902,22.25,19.497,22.25L19.497,22.25z"/>
	<path d="M7.496,8.5c-1.103,0-2-0.897-2-2s0.897-2,2-2s2,0.897,2,2S8.599,8.5,7.496,8.5z M7.496,5.5c-0.551,0-1,0.449-1,1
		s0.449,1,1,1s1-0.449,1-1S8.048,5.5,7.496,5.5z"/>
	<path d="M6.996,22c-0.276,0-0.5-0.224-0.5-0.5S6.72,21,6.996,21h2c0.276,0,0.5,0.224,0.5,0.5S9.272,22,8.996,22H6.996z"/>
	<path d="M10.996,22c-0.276,0-0.5-0.224-0.5-0.5s0.224-0.5,0.5-0.5h2c0.276,0,0.5,0.224,0.5,0.5s-0.224,0.5-0.5,0.5H10.996z"/>
	<path d="M3.496,18.5c-0.276,0-0.5-0.224-0.5-0.5v-2c0-0.276,0.224-0.5,0.5-0.5s0.5,0.224,0.5,0.5v2
		C3.996,18.276,3.772,18.5,3.496,18.5z"/>
	<path d="M3.496,14.5c-0.276,0-0.5-0.224-0.5-0.5v-2c0-0.276,0.224-0.5,0.5-0.5s0.5,0.224,0.5,0.5v2
		C3.996,14.276,3.772,14.5,3.496,14.5z"/>
	<path d="M4.496,22c-0.827,0-1.5-0.673-1.5-1.5V20c0-0.276,0.224-0.5,0.5-0.5s0.5,0.224,0.5,0.5v0.5c0,0.276,0.224,0.5,0.5,0.5h0.5
		c0.276,0,0.5,0.224,0.5,0.5S5.272,22,4.996,22H4.496z"/>
	<path d="M15.496,7.415c-0.152,0-0.293-0.068-0.389-0.186c-0.084-0.104-0.123-0.234-0.109-0.367
		c0.014-0.133,0.079-0.252,0.183-0.336c1.209-0.978,2.741-1.517,4.314-1.517s3.105,0.539,4.314,1.517
		c0.104,0.084,0.169,0.203,0.183,0.336c0.014,0.133-0.025,0.263-0.109,0.367c-0.095,0.118-0.237,0.185-0.389,0.185
		c-0.114,0-0.225-0.04-0.314-0.111c-1.032-0.835-2.341-1.295-3.686-1.295s-2.653,0.46-3.686,1.295
		C15.722,7.375,15.611,7.415,15.496,7.415C15.496,7.415,15.496,7.415,15.496,7.415z"/>
	<path d="M17.163,8.825c-0.152,0-0.294-0.068-0.389-0.186c-0.083-0.103-0.122-0.234-0.108-0.366
		c0.014-0.133,0.079-0.252,0.183-0.336c0.742-0.6,1.682-0.93,2.647-0.93s1.905,0.33,2.647,0.93c0.104,0.084,0.169,0.203,0.183,0.336
		c0.014,0.133-0.025,0.263-0.109,0.367c-0.095,0.118-0.237,0.186-0.389,0.186c-0.114,0-0.225-0.039-0.314-0.111
		c-0.566-0.457-1.283-0.709-2.019-0.709s-1.453,0.252-2.019,0.709C17.388,8.786,17.277,8.825,17.163,8.825z"/>
</g>
</svg>
