<?xml version="1.0" encoding="utf-8"?>
<!-- Generator: Adobe Illustrator 22.1.0, SVG Export Plug-In . SVG Version: 6.00 Build 0)  -->
<svg version="1.1" id="Layer_1" xmlns="http://www.w3.org/2000/svg" xmlns:xlink="http://www.w3.org/1999/xlink" x="0px" y="0px"
	 viewBox="0 0 24 24" style="enable-background:new 0 0 24 24;" xml:space="preserve">
<g>
	<title>surveillance-cctv-wifi</title>
	<path d="M0.5,16C0.224,16,0,15.776,0,15.5v-4C0,11.224,0.224,11,0.5,11S1,11.224,1,11.5v1.36l6.622-1.656
		C7.844,11.148,8,10.949,8,10.719V9H5.5L5.43,9.001c-0.617,0-1.207-0.235-1.661-0.661C3.356,7.952,3.096,7.445,3.022,6.891
		L2.614,6.987C2.576,6.996,2.538,7,2.5,7C2.387,7,2.277,6.962,2.189,6.892C2.069,6.797,2,6.654,2,6.5V3c0-1.654,1.346-3,3-3h14.969
		c0.026-0.003,0.052-0.004,0.078-0.004c0.385,0,0.71,0.276,0.773,0.656c0.031,0.191-0.008,0.384-0.11,0.546l-0.538,1.078
		c-0.231,0.406-0.59,0.692-1.017,0.818L17,3.602V7.5C17,8.327,16.327,9,15.5,9H9v1.719c0,0.689-0.467,1.287-1.135,1.455L1,13.891
		v1.61C1,15.776,0.775,16,0.5,16z M4.003,6.66c0.023,0.36,0.182,0.699,0.451,0.951c0.268,0.252,0.616,0.39,0.98,0.39L5.483,8L15.5,8
		C15.775,8,16,7.776,16,7.5V3.837L4.003,6.66z M5,1C3.897,1,3,1.897,3,3v2.869l15.898-3.74c0.153-0.046,0.301-0.165,0.392-0.324
		L19.691,1H5z"/>
	<path d="M18.5,7.5C18.224,7.5,18,7.276,18,7V5c0-0.276,0.224-0.5,0.5-0.5S19,4.724,19,5v2C19,7.276,18.775,7.5,18.5,7.5z"/>
	<path d="M17.5,24c-0.965,0-1.75-0.785-1.75-1.75s0.785-1.75,1.75-1.75s1.75,0.785,1.75,1.75S18.464,24,17.5,24z M17.5,21.5
		c-0.414,0-0.75,0.336-0.75,0.75S17.086,23,17.5,23s0.75-0.336,0.75-0.75S17.913,21.5,17.5,21.5z"/>
	<path d="M23.499,16.123c-0.114,0-0.226-0.04-0.314-0.111c-1.593-1.289-3.612-1.999-5.686-1.999s-4.092,0.71-5.686,1.999
		c-0.089,0.072-0.201,0.111-0.315,0.111c-0.152,0-0.293-0.068-0.389-0.185c-0.173-0.214-0.14-0.53,0.074-0.703
		c1.77-1.432,4.012-2.221,6.314-2.221s4.544,0.789,6.314,2.221c0.214,0.173,0.248,0.489,0.074,0.703
		C23.793,16.056,23.651,16.123,23.499,16.123z"/>
	<path d="M20.999,19.238c-0.114,0-0.225-0.039-0.314-0.111c-0.893-0.722-2.024-1.12-3.186-1.12s-2.293,0.397-3.186,1.119
		c-0.089,0.072-0.201,0.111-0.314,0.111c-0.152,0-0.293-0.067-0.389-0.185c-0.084-0.104-0.123-0.235-0.109-0.368
		c0.014-0.133,0.079-0.252,0.183-0.336c1.069-0.865,2.424-1.341,3.814-1.341s2.745,0.476,3.814,1.341
		c0.104,0.083,0.169,0.203,0.183,0.336c0.014,0.133-0.024,0.263-0.109,0.367C21.293,19.171,21.151,19.238,20.999,19.238z"/>
</g>
</svg>
