<?xml version="1.0" encoding="utf-8"?>
<!-- Generator: Adobe Illustrator 22.1.0, SVG Export Plug-In . SVG Version: 6.00 Build 0)  -->
<svg version="1.1" id="Layer_1" xmlns="http://www.w3.org/2000/svg" xmlns:xlink="http://www.w3.org/1999/xlink" x="0px" y="0px"
	 viewBox="0 0 24 24" style="enable-background:new 0 0 24 24;" xml:space="preserve">
<g>
	<title>surveillance-target</title>
	<path d="M12,24C5.383,24,0,18.617,0,12C0,5.383,5.383,0,12,0c6.617,0,12,5.383,12,12C24,18.617,18.617,24,12,24z M12,1
		C5.935,1,1,5.935,1,12s4.935,11,11,11s11-4.935,11-11S18.065,1,12,1z"/>
	<path d="M4.062,13.5c-0.252,0-0.465-0.188-0.496-0.438c-0.582-4.654,2.73-8.914,7.384-9.496C11.307,3.521,11.631,3.5,11.941,3.5
		l0.078,0c1.482,0,2.947,0.393,4.232,1.137c0.116,0.067,0.198,0.175,0.233,0.304c0.034,0.129,0.017,0.264-0.051,0.38
		C16.343,5.474,16.177,5.57,16,5.57c-0.087,0-0.173-0.023-0.249-0.067C14.616,4.847,13.325,4.5,12.015,4.5
		c-0.32,0.001-0.637,0.02-0.941,0.058c-4.107,0.514-7.03,4.273-6.516,8.38c0.017,0.132-0.019,0.263-0.101,0.369
		s-0.2,0.173-0.333,0.189C4.102,13.499,4.082,13.5,4.062,13.5z"/>
	<path d="M11.989,20.501c-1.257,0-2.474-0.274-3.617-0.814c-1.101-0.52-2.097-1.288-2.88-2.221
		c-0.086-0.102-0.127-0.232-0.115-0.365c0.012-0.133,0.074-0.254,0.177-0.34c0.09-0.075,0.204-0.117,0.321-0.117
		c0.148,0,0.288,0.065,0.383,0.178c0.691,0.823,1.57,1.501,2.541,1.959c1.015,0.48,2.091,0.723,3.198,0.723
		c0.861,0,1.714-0.149,2.536-0.444c1.886-0.676,3.396-2.045,4.251-3.857c0.082-0.174,0.26-0.287,0.452-0.287
		c0.074,0,0.146,0.016,0.214,0.048c0.249,0.117,0.356,0.416,0.238,0.665C18.29,18.59,15.268,20.501,11.989,20.501z"/>
	<path d="M19.938,11.5c-0.251,0-0.465-0.188-0.496-0.438c-0.125-0.997-0.443-1.943-0.947-2.812c-0.067-0.115-0.085-0.25-0.051-0.379
		c0.034-0.129,0.117-0.237,0.233-0.304C18.754,7.523,18.84,7.5,18.928,7.5c0.178,0,0.344,0.096,0.433,0.249
		c0.571,0.986,0.932,2.058,1.073,3.188c0.017,0.133-0.02,0.264-0.102,0.369c-0.082,0.105-0.2,0.173-0.333,0.189
		C19.979,11.499,19.958,11.5,19.938,11.5z"/>
	<path d="M9.5,16.242c-0.099,0-0.194-0.029-0.277-0.083c-1.112-0.742-1.867-1.872-2.129-3.181c-0.261-1.31,0.003-2.643,0.744-3.754
		c0.93-1.394,2.484-2.226,4.158-2.226c0.569,0,1.131,0.097,1.671,0.288c0.26,0.092,0.396,0.379,0.304,0.638
		c-0.07,0.199-0.26,0.333-0.471,0.333c-0.057,0-0.114-0.01-0.167-0.029c-0.432-0.153-0.881-0.231-1.337-0.231
		c-1.338,0-2.582,0.666-3.325,1.781c-0.593,0.889-0.805,1.955-0.596,3.003c0.209,1.048,0.814,1.951,1.703,2.544
		c0.229,0.153,0.291,0.464,0.138,0.693C9.823,16.159,9.667,16.242,9.5,16.242z"/>
	<path d="M14,16.532c-0.192,0-0.363-0.106-0.448-0.278c-0.059-0.119-0.069-0.255-0.026-0.382c0.043-0.126,0.132-0.229,0.252-0.288
		c1.662-0.824,2.535-2.664,2.123-4.473c-0.062-0.269,0.107-0.537,0.376-0.599c0.037-0.009,0.074-0.013,0.112-0.013
		c0.234,0,0.434,0.16,0.487,0.389c0.516,2.261-0.575,4.56-2.653,5.591C14.154,16.514,14.077,16.532,14,16.532z"/>
	<path d="M12,12.5c-0.134,0-0.259-0.052-0.354-0.146S11.5,12.134,11.5,12s0.052-0.259,0.146-0.354l6.984-6.984
		c0.094-0.094,0.22-0.146,0.354-0.146s0.259,0.052,0.354,0.146s0.146,0.22,0.146,0.354s-0.052,0.259-0.146,0.354l-6.984,6.984
		C12.259,12.448,12.134,12.5,12,12.5z"/>
	<circle cx="11.75" cy="16.25" r="0.75"/>
	<circle cx="19.75" cy="13.25" r="0.75"/>
	<circle cx="17.156" cy="20.25" r="0.75"/>
	<circle cx="4.75" cy="15.25" r="0.75"/>
	<circle cx="5.156" cy="5.25" r="0.75"/>
</g>
</svg>
