<?xml version="1.0" encoding="utf-8"?>
<!-- Generator: Adobe Illustrator 22.1.0, SVG Export Plug-In . SVG Version: 6.00 Build 0)  -->
<svg version="1.1" id="Light" xmlns="http://www.w3.org/2000/svg" xmlns:xlink="http://www.w3.org/1999/xlink" x="0px" y="0px"
	 viewBox="0 0 24 24" style="enable-background:new 0 0 24 24;" xml:space="preserve">
<g>
	<title>stairs-circular</title>
	<path d="M4,24c-0.827,0-1.5-0.673-1.5-1.5v-9.501c0-0.017,0.003-0.038,0.006-0.057c0.003-0.024,0.009-0.048,0.015-0.073
		c0.008-0.027,0.016-0.055,0.03-0.084c0.006-0.016,0.014-0.032,0.021-0.045c1.051-1.704,2.399-3.184,4.01-4.401
		c0.064-0.098,0.162-0.169,0.276-0.202C7.987,7.32,9.211,6.655,10.5,6.156V0.499c0-0.276,0.224-0.5,0.5-0.5h2
		c0.007,0,0.014,0,0.021,0.001H21c0.276,0,0.5,0.224,0.5,0.5v1C21.5,2.327,20.827,3,20,3v2.5C20,6.327,19.327,7,18.5,7h-1v2.5
		c0,0.827-0.673,1.5-1.5,1.5h-2.5v12.499c0,0.276-0.224,0.5-0.5,0.5h-1.976C11.016,24,11.008,24,11,24H4z M3.5,22.499
		C3.5,22.776,3.724,23,4,23h6.5V7.234c-1.058,0.441-2.065,1.002-3,1.672V13H9c0.276,0,0.5,0.224,0.5,0.5S9.276,14,9,14H7.5v0.499
		C7.5,14.776,7.724,15,8,15h1c0.276,0,0.5,0.224,0.5,0.5S9.276,16,9,16H8c-0.827,0-1.5-0.673-1.5-1.5V9.688
		c-0.349,0.297-0.684,0.608-1,0.93V17H9c0.276,0,0.5,0.224,0.5,0.5S9.276,18,9,18H5.5v0.499C5.5,18.776,5.724,19,6,19h3
		c0.276,0,0.5,0.224,0.5,0.5S9.276,20,9,20H6c-0.827,0-1.5-0.673-1.5-1.5v-6.758c-0.359,0.447-0.694,0.917-1,1.404V21H9
		c0.276,0,0.5,0.224,0.5,0.5S9.276,22,9,22H3.5V22.499z M12.5,22.999v-22h-1v22H12.5z M16,10c0.276,0,0.5-0.224,0.5-0.5V9h-3v1H16z
		 M16.5,8V7h-3v1H16.5z M18.5,6C18.776,6,19,5.776,19,5.5V5h-5.5v1h3.479C16.986,6,16.993,5.999,17,5.999S17.014,6,17.021,6H18.5z
		 M19,4V3h-5.5v1H19z M20,2c0.276,0,0.5-0.224,0.5-0.5V1h-7v1h5.979C19.486,2,19.493,1.999,19.5,1.999S19.514,2,19.521,2H20z"/>
</g>
</svg>
