<?xml version="1.0" encoding="utf-8"?>
<!-- Generator: Adobe Illustrator 22.1.0, SVG Export Plug-In . SVG Version: 6.00 Build 0)  -->
<svg version="1.1" id="Light" xmlns="http://www.w3.org/2000/svg" xmlns:xlink="http://www.w3.org/1999/xlink" x="0px" y="0px"
	 viewBox="0 0 24 24" style="enable-background:new 0 0 24 24;" xml:space="preserve">
<g>
	<title>stairs</title>
	<path d="M14.596,11.601c-0.168,0-0.323-0.083-0.416-0.223c-0.074-0.111-0.101-0.244-0.074-0.375
		c0.026-0.131,0.102-0.244,0.213-0.318L15,10.231V5.432l-2,1.333V9.79c0,0.276-0.224,0.5-0.5,0.5c-0.276,0-0.5-0.224-0.5-0.5V7.432
		l-1.502,1.001c-0.082,0.055-0.178,0.084-0.277,0.084c-0.168,0-0.323-0.083-0.416-0.223c-0.074-0.111-0.1-0.245-0.074-0.375
		c0.026-0.131,0.102-0.244,0.213-0.318l11.024-7.349c0.101-0.067,0.216-0.123,0.342-0.167c0.008-0.003,0.015-0.006,0.019-0.007
		C21.49,0.025,21.646,0,21.8,0h1.7C23.776,0,24,0.224,24,0.5S23.776,1,23.5,1H22v5l1.5-0.001c0.276,0,0.5,0.224,0.5,0.499
		c0,0.134-0.052,0.259-0.146,0.354c-0.094,0.095-0.22,0.147-0.354,0.147L21.649,7l-6.775,4.517
		C14.791,11.572,14.695,11.601,14.596,11.601z M16,9.564l2-1.333V3.432l-2,1.333V9.564z M19,7.564l2-1.333V1.432l-2,1.333V7.564z"/>
	<path d="M6.5,24c-0.011,0-0.023-0.001-0.035-0.003L3.53,23.998C3.52,23.999,3.51,24,3.5,24c-0.011,0-0.023-0.001-0.035-0.003
		L2.5,23.998c-0.276,0-0.5-0.224-0.5-0.5s0.224-0.5,0.5-0.5H3V16H1.5C0.673,16,0,15.327,0,14.5v-4C0,9.673,0.673,9,1.5,9h0.97
		C2.48,8.999,2.491,8.998,2.5,8.998c0.01,0,0.021,0.001,0.031,0.002L5.47,9C5.48,8.999,5.491,8.998,5.5,8.998
		c0.01,0,0.021,0.001,0.031,0.002L8.2,9c0.154,0,0.309,0.025,0.461,0.074c0.005,0.002,0.017,0.006,0.028,0.01
		c0.125,0.043,0.239,0.099,0.339,0.165L20.651,17H23.5c0.276,0,0.5,0.224,0.5,0.5S23.776,18,23.5,18H21v4.997l2.503,0.001
		c0.276,0,0.5,0.224,0.5,0.5s-0.224,0.5-0.5,0.5h-2.7c-0.157,0-0.316-0.026-0.472-0.078c-0.005-0.002-0.02-0.008-0.025-0.009
		c-0.116-0.039-0.233-0.096-0.335-0.165L8.349,16H7v6.998h0.5c0.276,0,0.5,0.224,0.5,0.5s-0.224,0.5-0.5,0.5H6.53
		C6.52,23.999,6.51,24,6.5,24z M6,22.998V16H4v6.998H6z M20,22.564v-4.796l-2-1.333v4.797L20,22.564z M17,20.564v-4.797l-2-1.334
		v4.798L17,20.564z M14,18.565v-4.798l-2-1.334v4.799L14,18.565z M11,16.565v-4.799l-2-1.334v4.8L11,16.565z M6.5,14.998
		c0.011,0,0.023,0.001,0.035,0.003L8,15v-4.999L6,10v5h0.47C6.481,14.999,6.491,14.998,6.5,14.998z M3.5,14.998
		c0.011,0,0.023,0.001,0.035,0.003L5,15v-5H3v5h0.47C3.481,14.999,3.491,14.998,3.5,14.998z M1.5,10C1.224,10,1,10.224,1,10.5v4
		C1,14.776,1.224,15,1.5,15H2v-5H1.5z"/>
</g>
</svg>
