<?xml version="1.0" encoding="utf-8"?>
<!-- Generator: Adobe Illustrator 22.1.0, SVG Export Plug-In . SVG Version: 6.00 Build 0)  -->
<svg version="1.1" id="Layer_1" xmlns="http://www.w3.org/2000/svg" xmlns:xlink="http://www.w3.org/1999/xlink" x="0px" y="0px"
	 viewBox="0 0 24 24" style="enable-background:new 0 0 24 24;" xml:space="preserve">
<g>
	<title>car-repair-lock</title>
	<path d="M2.25,15.75c-0.551,0-1-0.448-1-1v-1c-0.55-0.002-0.996-0.45-0.996-1v-1.456C0.252,11.278,0.25,11.262,0.25,11.25
		c0-0.02,0.002-0.037,0.005-0.052L0.254,9.453c0-0.267,0.104-0.517,0.292-0.706l1.778-1.778L4.16,2.378
		C4.313,1.997,4.677,1.75,5.088,1.75h10.323c0.412,0,0.776,0.246,0.929,0.628l1.873,4.682c0.018,0.045,0.022,0.082,0.024,0.1
		c0.004,0.012,0.013,0.046,0.013,0.09c0,0.009,0,0.017-0.001,0.026c-0.003,0.042-0.011,0.078-0.021,0.111
		c-0.004,0.018-0.01,0.04-0.015,0.054c-0.018,0.043-0.039,0.069-0.048,0.082c-0.011,0.019-0.03,0.051-0.062,0.082
		c-0.012,0.011-0.03,0.026-0.046,0.037c-0.025,0.02-0.058,0.044-0.099,0.063c-0.011,0.006-0.023,0.011-0.035,0.015
		C17.876,7.738,17.814,7.75,17.75,7.75l-14.793,0L1.254,9.453l0,1.297H5.25c0.276,0,0.5,0.224,0.5,0.5s-0.224,0.5-0.5,0.5H1.254v1
		h10.5c0.276,0,0.5,0.224,0.5,0.5s-0.224,0.5-0.5,0.5H5.25v1c0,0.552-0.449,1-1,1H2.25z M2.25,14.75h2v-1h-2V14.75z M17.012,6.75
		l-1.6-4l-10.324,0l-1.599,4H17.012z"/>
	<path d="M15.25,21.75c-0.827,0-1.5-0.673-1.5-1.5v-5.999c0-0.827,0.673-1.5,1.5-1.5h0.5V11.75c0-1.654,1.346-3,3-3s3,1.346,3,3
		v1.001h0.5c0.827,0,1.5,0.673,1.5,1.5v5.999c0,0.827-0.673,1.5-1.5,1.5H15.25z M15.25,13.751c-0.276,0-0.5,0.224-0.5,0.5v5.999
		c0,0.276,0.224,0.5,0.5,0.5h7c0.276,0,0.5-0.224,0.5-0.5v-5.999c0-0.276-0.224-0.5-0.5-0.5H15.25z M20.75,12.75v-1
		c0-1.103-0.897-2-2-2s-2,0.897-2,2v1H20.75z"/>
	<path d="M18.75,19.063c-0.965,0-1.75-0.785-1.75-1.75s0.785-1.75,1.75-1.75s1.75,0.785,1.75,1.75S19.715,19.063,18.75,19.063z
		 M18.75,16.563c-0.414,0-0.75,0.336-0.75,0.75s0.336,0.75,0.75,0.75s0.75-0.336,0.75-0.75S19.164,16.563,18.75,16.563z"/>
</g>
</svg>
