<?xml version="1.0" encoding="utf-8"?>
<!-- Generator: Adobe Illustrator 22.1.0, SVG Export Plug-In . SVG Version: 6.00 Build 0)  -->
<svg version="1.1" id="Layer_1" xmlns="http://www.w3.org/2000/svg" xmlns:xlink="http://www.w3.org/1999/xlink" x="0px" y="0px"
	 viewBox="0 0 24 24" style="enable-background:new 0 0 24 24;" xml:space="preserve">
<g>
	<title>car-repair-bottom</title>
	<path d="M19.5,24c-0.276,0-0.5-0.224-0.5-0.5s0.224-0.5,0.5-0.5H20V12H4v11h0.5C4.776,23,5,23.224,5,23.5S4.776,24,4.5,24h-4
		C0.224,24,0,23.776,0,23.5S0.224,23,0.5,23H1V5.5C1,5.224,1.224,5,1.5,5h2C3.776,5,4,5.224,4,5.5V11h2v-1c-0.551,0-1-0.449-1-1
		V6.707C5,6.44,5.104,6.19,5.292,6.001l1.756-1.756l0.866-3.486C8.025,0.318,8.425,0.006,8.889,0h6.221
		c0.466,0,0.864,0.312,0.975,0.758l0.867,3.487L18.708,6C18.896,6.19,19,6.441,19,6.707V9c0,0.551-0.448,1-1,1v1h2V5.5
		C20,5.224,20.224,5,20.5,5h2C22.776,5,23,5.224,23,5.5V23h0.5c0.276,0,0.5,0.224,0.5,0.5S23.776,24,23.5,24H19.5z M22,23V6h-1v17
		H22z M3,23V6H2v17H3z M17,11v-1h-1v1H17z M15,11v-1H9v1H15z M8,11v-1H7v1H8z M6,9h12V8h-2c-0.276,0-0.5-0.224-0.5-0.5
		S15.724,7,16,7h2V6.707L16.293,5H7.707L6,6.708L6,7h2c0.276,0,0.5,0.224,0.5,0.5S8.276,8,8,8H6V9z M15.86,4l-0.746-3L8.89,1
		L8.887,0.75l0,0.25C8.886,1,8.885,1.001,8.885,1.001L8.14,4H15.86z"/>
	<path d="M12,20c-1.103,0-2-0.897-2-2s0.897-2,2-2s2,0.897,2,2S13.103,20,12,20z M12,17c-0.551,0-1,0.448-1,1s0.449,1,1,1
		c0.552,0,1-0.448,1-1S12.552,17,12,17z"/>
	<path d="M11,23c-0.276,0-0.5-0.224-0.5-0.5v-0.794c-0.355-0.143-0.687-0.332-0.993-0.562l-0.733,0.409
		c-0.075,0.042-0.159,0.063-0.244,0.063c-0.178,0-0.344-0.096-0.433-0.25l-1-1.732c-0.067-0.116-0.084-0.251-0.05-0.38
		c0.035-0.128,0.12-0.239,0.234-0.304l0.691-0.396c-0.053-0.369-0.053-0.741,0-1.109L7.29,17.049
		c-0.114-0.066-0.199-0.177-0.233-0.304c-0.034-0.129-0.016-0.264,0.051-0.379l1.009-1.732c0.089-0.153,0.255-0.249,0.432-0.249
		c0.086,0,0.171,0.022,0.246,0.065l0.716,0.406c0.304-0.229,0.636-0.417,0.989-0.56V13.5c0-0.276,0.224-0.5,0.5-0.5h2
		c0.276,0,0.5,0.224,0.5,0.5v0.801c0.328,0.141,0.635,0.323,0.916,0.544l0.65-0.389c0.075-0.046,0.165-0.071,0.256-0.071
		c0.042,0,0.085,0.005,0.126,0.016c0.129,0.033,0.242,0.119,0.308,0.234l1,1.732c0.138,0.239,0.056,0.545-0.183,0.683l-0.686,0.396
		c0.026,0.183,0.04,0.367,0.042,0.551c0,0.187-0.013,0.373-0.038,0.556l0.693,0.398c0.239,0.137,0.322,0.443,0.185,0.682
		l-0.991,1.732c-0.066,0.115-0.177,0.2-0.305,0.235c-0.043,0.011-0.086,0.017-0.129,0.017c-0.089,0-0.177-0.024-0.254-0.069
		l-0.668-0.393c-0.283,0.222-0.592,0.405-0.922,0.546V22.5c0,0.276-0.224,0.5-0.5,0.5H11z M12.5,22v-0.647
		c0-0.218,0.139-0.409,0.346-0.476c0.438-0.141,0.844-0.382,1.176-0.698c0.094-0.089,0.216-0.138,0.345-0.138
		c0.089,0,0.177,0.024,0.253,0.069l0.541,0.318l0.491-0.859l-0.567-0.325c-0.19-0.109-0.288-0.334-0.238-0.548
		c0.054-0.228,0.081-0.462,0.081-0.695c-0.002-0.232-0.031-0.466-0.086-0.693c-0.052-0.214,0.045-0.441,0.236-0.551l0.561-0.324
		l-0.496-0.859l-0.524,0.314c-0.077,0.046-0.166,0.071-0.257,0.071c-0.129,0-0.251-0.049-0.344-0.137
		c-0.332-0.316-0.738-0.558-1.173-0.7c-0.207-0.068-0.345-0.259-0.345-0.476V14h-1v0.647c0,0.22-0.142,0.413-0.352,0.478
		c-0.46,0.142-0.893,0.386-1.251,0.707c-0.091,0.082-0.21,0.127-0.333,0.127c-0.086,0-0.171-0.022-0.246-0.065l-0.584-0.332
		l-0.508,0.872l0.557,0.323c0.191,0.11,0.287,0.337,0.235,0.551c-0.111,0.453-0.111,0.931,0,1.383
		c0.052,0.215-0.045,0.442-0.237,0.552l-0.565,0.324l0.503,0.871l0.6-0.335c0.074-0.042,0.158-0.063,0.244-0.063
		c0.123,0,0.241,0.045,0.333,0.127c0.359,0.322,0.792,0.566,1.252,0.707c0.211,0.065,0.354,0.257,0.354,0.478V22H12.5z"/>
</g>
</svg>
