<?xml version="1.0" encoding="utf-8"?>
<!-- Generator: Adobe Illustrator 22.1.0, SVG Export Plug-In . SVG Version: 6.00 Build 0)  -->
<svg version="1.1" id="Layer_1" xmlns="http://www.w3.org/2000/svg" xmlns:xlink="http://www.w3.org/1999/xlink" x="0px" y="0px"
	 viewBox="0 0 24 24" style="enable-background:new 0 0 24 24;" xml:space="preserve">
<g>
	<title>car-repair-bottom-1</title>
	<path d="M19.5,24c-0.276,0-0.5-0.224-0.5-0.5s0.224-0.5,0.5-0.5H20V12H4v11h0.5C4.776,23,5,23.224,5,23.5S4.776,24,4.5,24h-4
		C0.224,24,0,23.776,0,23.5S0.224,23,0.5,23H1V5.5C1,5.224,1.224,5,1.5,5h2C3.776,5,4,5.224,4,5.5V11h2V9.914
		C5.41,9.705,5,9.14,5,8.5V6.914c0-0.401,0.156-0.777,0.439-1.061l1.609-1.609l0.777-3.109C7.994,0.467,8.592,0,9.281,0h5.438
		c0.689,0,1.288,0.467,1.455,1.136l0.778,3.109l1.609,1.609C18.844,6.137,19,6.513,19,6.914V8.5c0,0.64-0.41,1.205-1,1.414V11h2V5.5
		C20,5.224,20.224,5,20.5,5h2C22.776,5,23,5.224,23,5.5V23h0.5c0.276,0,0.5,0.224,0.5,0.5S23.776,24,23.5,24H19.5z M22,23V6h-1v17
		H22z M3,23V6H2v17H3z M17,11v-1h-1v1H17z M15,11v-1H9v1H15z M8,11v-1H7v1H8z M6,8.5C6,8.776,6.224,9,6.5,9h11
		C17.776,9,18,8.776,18,8.5V8h-2c-0.276,0-0.5-0.224-0.5-0.5S15.724,7,16,7h2V6.914c0-0.133-0.052-0.259-0.146-0.353L16.293,5H7.707
		L6.146,6.561C6.052,6.655,6,6.781,6,6.914V7h2c0.276,0,0.5,0.224,0.5,0.5S8.276,8,8,8H6V8.5z M15.86,4l-0.656-2.622
		C15.148,1.156,14.949,1,14.719,1H9.281c-0.23,0-0.429,0.156-0.485,0.378L8.141,4H15.86z"/>
	<path d="M12.002,19.5c-0.827,0-1.5-0.673-1.5-1.5s0.673-1.5,1.5-1.5s1.5,0.673,1.5,1.5S12.829,19.5,12.002,19.5z M12.002,17.5
		c-0.276,0-0.5,0.224-0.5,0.5s0.224,0.5,0.5,0.5c0.276,0,0.5-0.224,0.5-0.5S12.278,17.5,12.002,17.5z"/>
	<path d="M12,23.002c-0.134,0-0.267-0.02-0.396-0.058c-0.45-0.135-0.799-0.483-0.933-0.933l-0.293-0.965
		c-0.021-0.069-0.085-0.116-0.156-0.116c-0.012,0-0.024,0.001-0.036,0.004l-0.98,0.228C9.104,21.184,9,21.196,8.897,21.196
		c-0.646,0-1.217-0.458-1.358-1.088c-0.101-0.448,0.026-0.917,0.339-1.253l0.687-0.74c0.058-0.063,0.058-0.166,0-0.229l-0.687-0.74
		c-0.253-0.272-0.385-0.627-0.371-0.999c0.014-0.372,0.172-0.716,0.444-0.969c0.259-0.24,0.595-0.373,0.947-0.373
		c0.103,0,0.206,0.011,0.307,0.034l0.984,0.229c0.01,0.002,0.021,0.003,0.033,0.003c0.072,0,0.137-0.048,0.158-0.116l0.294-0.968
		c0.174-0.582,0.72-0.989,1.329-0.989c0.134,0,0.267,0.02,0.396,0.058c0.449,0.134,0.798,0.482,0.933,0.932l0.295,0.966
		c0.021,0.069,0.085,0.116,0.156,0.116c0.012,0,0.023-0.001,0.035-0.004l0.981-0.228c0.103-0.023,0.206-0.035,0.309-0.035
		c0.646,0,1.218,0.457,1.359,1.087c0.101,0.448-0.026,0.917-0.339,1.253l-0.687,0.74c-0.058,0.063-0.058,0.166,0,0.229l0.687,0.74
		c0.522,0.562,0.49,1.445-0.073,1.968c-0.259,0.24-0.595,0.373-0.948,0.373c0,0,0,0,0,0c-0.103,0-0.206-0.011-0.306-0.034
		l-0.985-0.229c-0.01-0.002-0.021-0.003-0.034-0.003c-0.072,0-0.136,0.047-0.156,0.115l-0.295,0.969
		C13.156,22.595,12.609,23.002,12,23.002z M10.221,19.929c0.509,0,0.967,0.339,1.114,0.825l0.294,0.968
		c0.038,0.128,0.135,0.226,0.261,0.263c0.036,0.011,0.073,0.016,0.11,0.016c0.17,0,0.323-0.114,0.372-0.277l0.295-0.97
		c0.147-0.486,0.605-0.825,1.114-0.825c0.087,0,0.174,0.01,0.259,0.03l0.983,0.229c0.026,0.006,0.054,0.009,0.082,0.009
		c0.1,0,0.195-0.037,0.268-0.105c0.159-0.148,0.168-0.397,0.021-0.555l-0.688-0.741c-0.411-0.445-0.412-1.142,0-1.587l0.688-0.741
		c0.089-0.095,0.124-0.228,0.096-0.354c-0.04-0.178-0.202-0.307-0.384-0.307c-0.029,0-0.058,0.003-0.086,0.01l-0.978,0.227
		c-0.086,0.02-0.174,0.03-0.262,0.03c-0.508,0-0.965-0.34-1.112-0.826c0,0-0.296-0.972-0.297-0.974
		c-0.039-0.123-0.135-0.219-0.259-0.256c-0.036-0.011-0.073-0.016-0.11-0.016c-0.17,0-0.322,0.114-0.371,0.277l-0.295,0.971
		c-0.147,0.486-0.605,0.825-1.114,0.825c-0.087,0-0.175-0.01-0.26-0.03L8.98,15.813c-0.025-0.005-0.053-0.009-0.082-0.009
		c-0.1,0-0.195,0.037-0.268,0.105c-0.077,0.072-0.122,0.169-0.125,0.274c-0.004,0.105,0.033,0.205,0.105,0.282l0.688,0.741
		c0.411,0.445,0.411,1.142,0,1.587L8.61,19.535c-0.089,0.095-0.124,0.228-0.096,0.354c0.04,0.178,0.201,0.307,0.384,0.307
		c0.029,0,0.058-0.003,0.086-0.01l0.977-0.227C10.045,19.939,10.133,19.929,10.221,19.929z"/>
</g>
</svg>
