<?xml version="1.0" encoding="utf-8"?>
<!-- Generator: Adobe Illustrator 22.1.0, SVG Export Plug-In . SVG Version: 6.00 Build 0)  -->
<svg version="1.1" id="Layer_1" xmlns="http://www.w3.org/2000/svg" xmlns:xlink="http://www.w3.org/1999/xlink" x="0px" y="0px"
	 viewBox="0 0 24 24" style="enable-background:new 0 0 24 24;" xml:space="preserve">
<g>
	<title>car-repair-fire</title>
	<path d="M21.15,15.015c-0.136,0-0.268-0.057-0.362-0.156c-0.19-0.2-0.182-0.517,0.018-0.707c2.085-1.979,1.769-4.69,1.391-6.139
		c-0.387,0.451-0.861,0.822-1.393,1.085c-0.069,0.034-0.145,0.052-0.221,0.052c-0.099,0-0.195-0.029-0.278-0.084
		c-0.149-0.099-0.233-0.271-0.222-0.449c0.224-3.389-1.917-5.74-3.245-6.859c0.012,0.944-0.431,1.854-1.216,2.432
		c-0.844,0.615-1.567,1.365-2.149,2.229c-0.093,0.138-0.248,0.221-0.414,0.221c-0.023,0-0.046-0.002-0.069-0.005
		c-0.188-0.026-0.347-0.159-0.407-0.339c-0.246-0.746-0.823-1.337-1.549-1.612c0.07,0.79-0.307,1.577-0.358,1.679
		c-0.394,0.944-0.56,2.003-0.473,3.049c0.011,0.133-0.03,0.263-0.117,0.365S9.88,9.94,9.747,9.951
		C9.74,9.952,9.712,9.953,9.705,9.953c-0.258,0-0.476-0.202-0.498-0.459c-0.1-1.205,0.094-2.432,0.561-3.548
		c0.186-0.377,0.447-1.235,0.108-1.574C9.73,4.225,9.689,4.008,9.772,3.818c0.079-0.182,0.26-0.301,0.46-0.301
		c1.203,0.042,2.285,0.667,2.917,1.657c0.545-0.676,1.177-1.278,1.882-1.792c0.824-0.607,1.049-1.728,0.522-2.608
		c-0.117-0.195-0.088-0.444,0.071-0.607c0.094-0.096,0.224-0.15,0.358-0.15c0.087,0,0.173,0.023,0.248,0.066
		c0.048,0.027,4.617,2.697,4.859,7.63c0.337-0.294,0.614-0.652,0.812-1.054c0.085-0.172,0.255-0.279,0.443-0.279
		c0.21,0.005,0.385,0.121,0.463,0.298c0.022,0.05,2.111,4.947-1.313,8.198C21.401,14.966,21.279,15.015,21.15,15.015z"/>
	<path d="M17.973,23.982c-1.199,0-2.215-0.845-2.449-2H7.422c-0.234,1.155-1.25,2-2.449,2s-2.215-0.845-2.449-2H1.973
		c-0.827,0-1.5-0.673-1.5-1.5v-2c0-1.378,1.121-2.5,2.5-2.5h1.36c0.713,0,1.332-0.507,1.472-1.206l0.356-1.783
		c0.233-1.165,1.264-2.01,2.451-2.01h4.333c1.439,0,2.715,0.864,3.25,2.2l0.743,1.857c0.229,0.572,0.775,0.942,1.39,0.942
		c2.286,0,4.145,1.86,4.145,4.146v0.354c0,0.827-0.673,1.5-1.5,1.5h-0.551C20.188,23.137,19.172,23.982,17.973,23.982z
		 M17.973,19.982c-0.827,0-1.5,0.673-1.5,1.5s0.673,1.5,1.5,1.5s1.5-0.673,1.5-1.5S18.8,19.982,17.973,19.982z M4.973,19.982
		c-0.827,0-1.5,0.673-1.5,1.5s0.673,1.5,1.5,1.5s1.5-0.673,1.5-1.5S5.8,19.982,4.973,19.982z M20.973,20.982
		c0.276,0,0.5-0.224,0.5-0.5v-0.354c0-1.735-1.411-3.146-3.146-3.146h-5.354c-1.379,0-2.5-1.122-2.5-2.5v-2.5h-1.86
		c-0.714,0-1.332,0.507-1.472,1.206l-0.356,1.783c-0.233,1.165-1.264,2.01-2.451,2.01H2.973c-0.827,0-1.5,0.673-1.5,1.5v2
		c0,0.276,0.224,0.5,0.5,0.5h0.551c0.234-1.155,1.25-2,2.449-2s2.215,0.845,2.449,2h8.102c0.234-1.155,1.25-2,2.449-2
		s2.215,0.845,2.449,2H20.973z M11.473,14.482c0,0.827,0.673,1.5,1.5,1.5h3.36c-0.133-0.176-0.242-0.368-0.324-0.571l-0.743-1.858
		c-0.382-0.954-1.293-1.571-2.321-1.571h-1.472V14.482z"/>
</g>
</svg>
