<?xml version="1.0" encoding="utf-8"?>
<!-- Generator: Adobe Illustrator 22.1.0, SVG Export Plug-In . SVG Version: 6.00 Build 0)  -->
<svg version="1.1" id="Layer_1" xmlns="http://www.w3.org/2000/svg" xmlns:xlink="http://www.w3.org/1999/xlink" x="0px" y="0px"
	 viewBox="0 0 24 24" style="enable-background:new 0 0 24 24;" xml:space="preserve">
<g>
	<title>car-repair-lock-1</title>
	<path d="M15.5,23c-0.827,0-1.5-0.673-1.5-1.5v-5.999c0-0.827,0.673-1.5,1.5-1.5H16V13c0-1.654,1.346-3,3-3s3,1.346,3,3v1.001h0.5
		c0.827,0,1.5,0.673,1.5,1.5V21.5c0,0.827-0.673,1.5-1.5,1.5H15.5z M15.5,15.001c-0.276,0-0.5,0.224-0.5,0.5V21.5
		c0,0.276,0.224,0.5,0.5,0.5h7c0.276,0,0.5-0.224,0.5-0.5v-5.999c0-0.276-0.224-0.5-0.5-0.5H15.5z M21,14v-1c0-1.103-0.897-2-2-2
		s-2,0.897-2,2v1H21z"/>
	<path d="M19,20.313c-0.965,0-1.75-0.785-1.75-1.75s0.785-1.75,1.75-1.75s1.75,0.785,1.75,1.75S19.965,20.313,19,20.313z M19,17.813
		c-0.414,0-0.75,0.336-0.75,0.75s0.336,0.75,0.75,0.75s0.75-0.336,0.75-0.75S19.413,17.813,19,17.813z"/>
	<path d="M4,16c-1.103,0-2-0.897-2-2v-1H1.5C0.673,13,0,12.327,0,11.5v-3c0-1.092,0.725-2.047,1.729-2.376L0.188,4.89
		c-0.104-0.083-0.17-0.202-0.185-0.335S0.026,4.292,0.11,4.188C0.205,4.068,0.347,4,0.5,4c0.113,0,0.224,0.039,0.312,0.11
		l1.79,1.432L2.85,3.28C2.956,2.004,4.05,1,5.34,1h9.32c1.29,0,2.384,1.007,2.491,2.292l0.247,2.249l1.79-1.432
		C19.276,4.039,19.387,4,19.5,4c0.153,0,0.295,0.068,0.391,0.187c0.172,0.216,0.137,0.531-0.078,0.703L18.27,6.124
		C19.274,6.453,20,7.408,20,8.5C20,8.776,19.776,9,19.5,9S19,8.776,19,8.5C19,7.673,18.327,7,17.5,7h-15C1.673,7,1,7.673,1,8.5v3
		C1,11.776,1.224,12,1.5,12h12c0.276,0,0.5,0.224,0.5,0.5c0,0.276-0.224,0.5-0.5,0.5H6v1C6,15.103,5.103,16,4,16z M3,14
		c0,0.552,0.449,1,1,1s1-0.448,1-1v-1H3V14z M16.442,6l-0.286-2.612C16.09,2.607,15.434,2,14.66,2H5.34
		c-0.774,0-1.43,0.604-1.495,1.375L3.558,6H16.442z"/>
	<path d="M3.5,11C2.673,11,2,10.327,2,9.5S2.673,8,3.5,8S5,8.673,5,9.5S4.327,11,3.5,11z M3.5,9C3.224,9,3,9.224,3,9.5
		S3.224,10,3.5,10S4,9.776,4,9.5S3.776,9,3.5,9z"/>
	<path d="M15.608,10.47c-0.188,0-0.358-0.104-0.445-0.271c-0.184-0.358-0.218-0.766-0.095-1.15c0.123-0.384,0.387-0.697,0.745-0.881
		C16.024,8.059,16.261,8.001,16.498,8c0.393,0,0.772,0.154,1.05,0.421c0.198,0.192,0.203,0.509,0.012,0.707
		c-0.093,0.097-0.224,0.153-0.359,0.153c-0.13,0-0.254-0.05-0.348-0.14C16.759,9.05,16.635,9,16.505,9
		c-0.083,0-0.163,0.02-0.234,0.057c-0.249,0.128-0.347,0.435-0.219,0.684c0.061,0.119,0.073,0.254,0.032,0.381
		c-0.041,0.127-0.129,0.231-0.247,0.292C15.766,10.451,15.687,10.47,15.608,10.47z"/>
</g>
</svg>
