<?xml version="1.0" encoding="utf-8"?>
<!-- Generator: Adobe Illustrator 22.1.0, SVG Export Plug-In . SVG Version: 6.00 Build 0)  -->
<svg version="1.1" id="Layer_1" xmlns="http://www.w3.org/2000/svg" xmlns:xlink="http://www.w3.org/1999/xlink" x="0px" y="0px"
	 viewBox="0 0 24 24" style="enable-background:new 0 0 24 24;" xml:space="preserve">
<g>
	<title>car-repair-wash-1</title>
	<path d="M18,24c-0.552,0-1-0.448-1-1v-1H7v1c0,0.552-0.449,1-1,1H4c-0.551,0-1-0.448-1-1v-1c-0.551,0-1-0.448-1-1v-3.293
		c0-0.267,0.104-0.517,0.292-0.706l1.782-1.782l1.836-4.591C6.063,10.247,6.427,10,6.838,10h10.323c0.412,0,0.776,0.246,0.929,0.628
		l1.836,4.591L21.708,17C21.896,17.19,22,17.441,22,17.707V21c0,0.552-0.448,1-1,1v1c0,0.552-0.448,1-1,1H18z M18,23h2v-1h-2V23z
		 M4,23h2v-1H4V23z M3,21h18v-1h-4c-0.276,0-0.5-0.224-0.5-0.5S16.724,19,17,19h4v-1.293L19.293,16H4.707L3,17.708L3,19h4
		c0.276,0,0.5,0.224,0.5,0.5S7.276,20,7,20H3V21z M18.762,15l-1.6-4L6.837,11l-1.599,4H18.762z"/>
	<path d="M11.5,3C11.224,3,11,2.776,11,2.5v-2C11,0.224,11.224,0,11.5,0S12,0.224,12,0.5v2C12,2.776,11.776,3,11.5,3z"/>
	<path d="M14.584,3.596c-0.228,0-0.427-0.154-0.484-0.375l-0.498-1.938c-0.033-0.129-0.014-0.264,0.054-0.379
		c0.068-0.115,0.177-0.197,0.306-0.23c0.042-0.01,0.083-0.015,0.124-0.015c0.229,0,0.428,0.154,0.485,0.375l0.498,1.938
		c0.033,0.129,0.014,0.264-0.054,0.379c-0.068,0.115-0.177,0.197-0.306,0.23C14.666,3.591,14.625,3.596,14.584,3.596z"/>
	<path d="M14.79,8.592c-0.228,0-0.427-0.154-0.484-0.375l-0.498-1.938c-0.069-0.267,0.093-0.54,0.36-0.609
		c0.042-0.01,0.083-0.016,0.124-0.016c0.229,0,0.428,0.154,0.485,0.375l0.498,1.938c0.069,0.267-0.093,0.54-0.36,0.609
		C14.872,8.587,14.831,8.592,14.79,8.592z"/>
	<path d="M17.311,6.842c-0.228,0-0.427-0.154-0.484-0.375l-0.499-1.938c-0.069-0.267,0.093-0.54,0.36-0.609
		c0.041-0.01,0.083-0.016,0.124-0.016c0.229,0,0.428,0.154,0.485,0.375l0.499,1.938c0.069,0.267-0.093,0.54-0.36,0.609
		C17.395,6.837,17.353,6.842,17.311,6.842z"/>
	<path d="M5.752,6.842c-0.041,0-0.083-0.005-0.123-0.015c-0.268-0.069-0.43-0.342-0.361-0.609L5.766,4.28
		c0.057-0.221,0.256-0.375,0.485-0.375c0.041,0,0.082,0.005,0.122,0.015c0.269,0.069,0.43,0.342,0.362,0.609L6.236,6.467
		C6.179,6.688,5.98,6.842,5.752,6.842z"/>
	<path d="M8.442,3.598c-0.04,0-0.08-0.005-0.119-0.014c-0.13-0.032-0.24-0.112-0.309-0.227c-0.069-0.114-0.09-0.249-0.058-0.378
		l0.477-1.943c0.055-0.224,0.254-0.381,0.485-0.381c0.04,0,0.08,0.005,0.119,0.014c0.13,0.032,0.24,0.112,0.309,0.227
		c0.069,0.114,0.09,0.249,0.058,0.378L8.928,3.217C8.873,3.441,8.673,3.598,8.442,3.598z"/>
	<path d="M8.289,8.595c-0.04,0-0.08-0.005-0.119-0.014C7.902,8.515,7.738,8.243,7.803,7.975l0.478-1.942
		c0.055-0.224,0.255-0.38,0.486-0.38c0.039,0,0.079,0.005,0.118,0.014c0.269,0.066,0.433,0.338,0.367,0.605L8.775,8.214
		C8.719,8.438,8.52,8.595,8.289,8.595z"/>
	<path d="M11.5,9C11.224,9,11,8.776,11,8.5v-2C11,6.224,11.224,6,11.5,6S12,6.224,12,6.5v2C12,8.776,11.776,9,11.5,9z"/>
</g>
</svg>
