<?xml version="1.0" encoding="utf-8"?>
<!-- Generator: Adobe Illustrator 22.1.0, SVG Export Plug-In . SVG Version: 6.00 Build 0)  -->
<svg version="1.1" id="Layer_1" xmlns="http://www.w3.org/2000/svg" xmlns:xlink="http://www.w3.org/1999/xlink" x="0px" y="0px"
	 viewBox="0 0 24 24" style="enable-background:new 0 0 24 24;" xml:space="preserve">
<g>
	<title>car-repair-tow-truck</title>
	<path d="M19,23.351c-1.199,0-2.215-0.845-2.449-2H7.449c-0.234,1.155-1.25,2-2.449,2s-2.215-0.845-2.449-2H1c-0.551,0-1-0.448-1-1
		v-4c0-0.552,0.449-1,1-1h6.778L2.645,1.66c-0.07-0.191-0.062-0.395,0.023-0.577s0.234-0.32,0.422-0.389
		C3.173,0.663,3.26,0.648,3.349,0.648c0.236,0,0.453,0.108,0.596,0.297L14,14.351v-5c0-0.551,0.448-1,1-1h3.706
		c0.363,0,0.698,0.198,0.875,0.516l2.322,4.18l1.805,1.805C23.896,15.041,24,15.292,24,15.558v4.793c0,0.552-0.448,1-1,1h-1.551
		C21.215,22.506,20.199,23.351,19,23.351z M19,19.351c-0.827,0-1.5,0.673-1.5,1.5s0.673,1.5,1.5,1.5s1.5-0.673,1.5-1.5
		S19.827,19.351,19,19.351z M5,19.351c-0.827,0-1.5,0.673-1.5,1.5s0.673,1.5,1.5,1.5s1.5-0.673,1.5-1.5S5.827,19.351,5,19.351z
		 M23,20.351v-1h-2.001c0.222,0.295,0.376,0.635,0.45,1H23z M16.551,20.351c0.074-0.365,0.228-0.705,0.45-1H6.999
		c0.222,0.295,0.376,0.635,0.45,1H16.551z M1,20.351h1.551c0.074-0.365,0.228-0.705,0.45-1H1V20.351z M23,18.351v-2.793
		l-1.707-1.707H15v4.5H23z M14,18.351v-2H1v2H14z M13.5,15.351L4.193,2.943l4.653,12.409H13.5z M20.65,12.851l-1.944-3.499L15,9.351
		l0,3.5H20.65z"/>
	<path d="M2.298,14.112c-1.24,0-2.271-1.01-2.298-2.25c-0.006-0.276,0.214-0.505,0.489-0.511c0,0,0,0,0,0
		c0.281,0,0.505,0.219,0.511,0.489c0.015,0.702,0.594,1.272,1.29,1.272l0.036-0.001c0.042,0,0.08-0.003,0.118-0.008
		c0.455-0.029,0.858-0.223,1.146-0.549c0.288-0.326,0.432-0.745,0.406-1.179c-0.05-0.82-0.706-1.476-1.526-1.526
		C2.206,9.834,2,9.615,2,9.351v-5c0-0.276,0.224-0.5,0.5-0.5S3,4.076,3,4.351v4.573c1.099,0.273,1.923,1.247,1.994,2.391
		c0.043,0.701-0.189,1.376-0.655,1.902c-0.465,0.526-1.108,0.84-1.808,0.883c-0.041,0.005-0.112,0.01-0.183,0.012L2.298,14.112z"/>
</g>
</svg>
