<?xml version="1.0" encoding="utf-8"?>
<!-- Generator: Adobe Illustrator 22.1.0, SVG Export Plug-In . SVG Version: 6.00 Build 0)  -->
<svg version="1.1" id="Layer_1" xmlns="http://www.w3.org/2000/svg" xmlns:xlink="http://www.w3.org/1999/xlink" x="0px" y="0px"
	 viewBox="0 0 24 24" style="enable-background:new 0 0 24 24;" xml:space="preserve">
<g>
	<title>car-repair-tow-truck-2</title>
	<path d="M17.5,21.5c-1.378,0-2.5-1.122-2.5-2.5c0-0.167,0.017-0.334,0.052-0.5h-4.104C10.983,18.666,11,18.833,11,19
		c0,1.378-1.121,2.5-2.5,2.5c-0.798,0-1.532-0.376-2-1.003c-0.468,0.627-1.202,1.003-2,1.003C3.121,21.5,2,20.378,2,19
		c0-0.167,0.017-0.334,0.052-0.5H1.5C0.673,18.5,0,17.827,0,17v-1.5c0-0.552,0.449-1,1-1h12V9c0-0.827,0.673-1.5,1.5-1.5h2.882
		c0.572,0,1.086,0.318,1.341,0.83l1.639,3.277l1.695,0.678C22.63,12.514,23,13.06,23,13.677V17c0,0.827-0.673,1.5-1.5,1.5h-1.552
		C19.983,18.666,20,18.833,20,19C20,20.378,18.878,21.5,17.5,21.5z M17.5,17.5c-0.827,0-1.5,0.673-1.5,1.5s0.673,1.5,1.5,1.5
		S19,19.827,19,19S18.327,17.5,17.5,17.5z M8.5,17.5C7.673,17.5,7,18.173,7,19s0.673,1.5,1.5,1.5S10,19.827,10,19
		S9.327,17.5,8.5,17.5z M4.5,17.5C3.673,17.5,3,18.173,3,19s0.673,1.5,1.5,1.5S6,19.827,6,19S5.327,17.5,4.5,17.5z M4.5,16.5
		c0.798,0,1.532,0.376,2,1.003c0.468-0.627,1.202-1.003,2-1.003c0.789,0,1.526,0.371,1.999,1H13v-2H1V17c0,0.276,0.224,0.5,0.5,0.5
		h1.001C2.974,16.871,3.711,16.5,4.5,16.5z M21.5,17.5c0.276,0,0.5-0.224,0.5-0.5v-3.323c0-0.205-0.124-0.387-0.314-0.464
		L19.904,12.5H15.5c-0.276,0-0.5-0.224-0.5-0.5V8.5h-0.5C14.224,8.5,14,8.724,14,9v8.5h1.501c0.472-0.629,1.21-1,1.999-1
		s1.526,0.371,1.999,1H21.5z M19.191,11.5l-1.362-2.723C17.743,8.606,17.572,8.5,17.382,8.5H16v3H19.191z"/>
	<path d="M4.5,10.5C4.224,10.5,4,10.276,4,10s0.224-0.5,0.5-0.5h3C7.776,9.5,8,9.724,8,10s-0.224,0.5-0.5,0.5H4.5z"/>
	<path d="M1,13.5c-0.551,0-1-0.448-1-1v-2c0-0.551,0.449-1,1-1h1V4c0-0.827,0.673-1.5,1.5-1.5h17
		c0.468,0.026,0.894,0.236,1.182,0.578L22.9,4.7c0.024,0.031,0.038,0.061,0.046,0.079c0.008,0.012,0.011,0.019,0.016,0.032
		c0.019,0.048,0.031,0.098,0.034,0.151C22.999,4.975,23,4.988,23,5v1.586C23.59,6.795,24,7.36,24,8c0,0.827-0.673,1.5-1.5,1.5
		S21,8.827,21,8c0-0.276,0.224-0.5,0.5-0.5S22,7.724,22,8s0.224,0.5,0.5,0.5S23,8.276,23,8s-0.224-0.5-0.5-0.5S22,7.276,22,7V5.5
		H7.5l2.4,3.2C9.964,8.786,10,8.893,10,9v3.5c0,0.552-0.449,1-1,1H1z M1,12.5h8V9.167L6.25,5.5H3V10c0,0.276-0.224,0.5-0.5,0.5H1
		L1,12.5z M21.5,4.5l-0.6-0.8c-0.094-0.11-0.255-0.189-0.422-0.2L3.5,3.5C3.224,3.5,3,3.724,3,4v0.5H21.5z"/>
</g>
</svg>
