<?xml version="1.0" encoding="utf-8"?>
<!-- Generator: Adobe Illustrator 22.1.0, SVG Export Plug-In . SVG Version: 6.00 Build 0)  -->
<svg version="1.1" id="Layer_1" xmlns="http://www.w3.org/2000/svg" xmlns:xlink="http://www.w3.org/1999/xlink" x="0px" y="0px"
	 viewBox="0 0 24 24" style="enable-background:new 0 0 24 24;" xml:space="preserve">
<g>
	<title>car-repair-fire-1</title>
	<path d="M20.115,14.958c-0.136,0-0.263-0.053-0.358-0.151c-0.193-0.197-0.188-0.515,0.009-0.707
		c1.187-1.158,1.724-2.681,1.596-4.526c-0.041-0.598-0.149-1.136-0.262-1.562c-0.387,0.452-0.862,0.823-1.395,1.087
		C19.636,9.132,19.56,9.15,19.484,9.15c-0.099,0-0.195-0.029-0.277-0.084c-0.148-0.099-0.233-0.271-0.222-0.449
		c0.224-3.387-1.915-5.738-3.242-6.857c0.012,0.943-0.429,1.854-1.214,2.432c-0.844,0.615-1.566,1.365-2.149,2.229
		c-0.093,0.138-0.248,0.221-0.414,0.221c-0.023,0-0.047-0.002-0.07-0.005c-0.187-0.026-0.346-0.159-0.405-0.338
		c-0.246-0.746-0.823-1.337-1.549-1.612c0.07,0.79-0.307,1.577-0.358,1.679c-0.581,1.246-0.665,2.662-0.234,3.979
		c0.086,0.262-0.058,0.545-0.32,0.63C8.979,10.992,8.926,11,8.874,11c-0.217,0-0.408-0.139-0.475-0.345
		c-0.51-1.56-0.409-3.237,0.284-4.725c0.181-0.365,0.439-1.216,0.1-1.556C8.636,4.228,8.595,4.011,8.677,3.821
		c0.079-0.183,0.259-0.301,0.457-0.301c1.206,0.042,2.288,0.667,2.921,1.657C12.6,4.502,13.232,3.9,13.937,3.386
		c0.825-0.608,1.048-1.731,0.518-2.61c-0.118-0.195-0.088-0.445,0.071-0.608c0.094-0.096,0.224-0.15,0.358-0.15
		c0.087,0,0.172,0.023,0.248,0.066c0.048,0.027,4.617,2.697,4.859,7.63c0.337-0.294,0.614-0.653,0.812-1.054
		c0.086-0.174,0.251-0.279,0.442-0.279c0.21,0.004,0.385,0.121,0.464,0.298c0.021,0.048,2.106,4.869-1.245,8.136
		C20.37,14.907,20.246,14.958,20.115,14.958z"/>
	<path d="M15.089,23.982c-0.827,0-1.5-0.673-1.5-1.5v-0.5h-6.5v0.5c0,0.827-0.673,1.5-1.5,1.5s-1.5-0.673-1.5-1.5v-0.5h-0.5
		c-0.827,0-1.5-0.673-1.5-1.5v-2c0-0.907,0.488-1.725,1.253-2.165l-1.51-0.906c-0.236-0.142-0.313-0.449-0.171-0.686
		c0.09-0.15,0.254-0.243,0.429-0.243c0.091,0,0.18,0.025,0.258,0.072l1.843,1.105l0.299-2.363c0.093-0.748,0.733-1.313,1.488-1.313
		h8.234c0.755,0,1.396,0.565,1.489,1.314l0.295,2.36l1.838-1.103c0.078-0.047,0.167-0.071,0.257-0.071
		c0.175,0,0.339,0.093,0.429,0.242c0.142,0.237,0.065,0.544-0.171,0.686l-1.51,0.906c0.765,0.44,1.253,1.259,1.253,2.165v2
		c0,0.827-0.673,1.5-1.5,1.5v0.5C16.589,23.309,15.916,23.982,15.089,23.982z M14.589,22.482c0,0.276,0.224,0.5,0.5,0.5
		s0.5-0.224,0.5-0.5v-0.5h-1V22.482z M5.089,22.482c0,0.276,0.224,0.5,0.5,0.5s0.5-0.224,0.5-0.5v-0.5h-1V22.482z M3.089,20.482
		c0,0.276,0.224,0.5,0.5,0.5h13c0.276,0,0.5-0.224,0.5-0.5v-0.5h-2c-0.276,0-0.5-0.224-0.5-0.5s0.224-0.5,0.5-0.5h2v-0.5
		c0-0.827-0.673-1.5-1.5-1.5h-11c-0.827,0-1.5,0.673-1.5,1.5v0.5h2c0.276,0,0.5,0.224,0.5,0.5s-0.224,0.5-0.5,0.5h-2V20.482z
		 M15.026,15.982l-0.32-2.562c-0.031-0.25-0.245-0.438-0.496-0.438H5.976h0c-0.252,0-0.465,0.188-0.496,0.438l-0.324,2.562H15.026z"
		/>
</g>
</svg>
