<?xml version="1.0" encoding="utf-8"?>
<!-- Generator: Adobe Illustrator 22.1.0, SVG Export Plug-In . SVG Version: 6.00 Build 0)  -->
<svg version="1.1" id="Light" xmlns="http://www.w3.org/2000/svg" xmlns:xlink="http://www.w3.org/1999/xlink" x="0px" y="0px"
	 viewBox="0 0 24 24" style="enable-background:new 0 0 24 24;" xml:space="preserve">
<g>
	<title>disability-sit-pregnancy</title>
	<path d="M9.795,6c-1.654,0-3-1.346-3-3s1.346-3,3-3s3,1.346,3,3S11.449,6,9.795,6z M9.795,1c-1.103,0-2,0.897-2,2s0.897,2,2,2
		s2-0.897,2-2S10.898,1,9.795,1z"/>
	<path d="M8.379,20c-1.166,0-2.167-0.793-2.434-1.928l-1.632-6.958c-0.063-0.269,0.104-0.538,0.373-0.601
		C4.723,10.504,4.762,10.5,4.8,10.5c0.233,0,0.433,0.159,0.487,0.386l1.632,6.958C7.079,18.524,7.679,19,8.379,19H12.8
		c0.276,0,0.5,0.224,0.5,0.5S13.076,20,12.8,20H8.379z"/>
	<path d="M16.292,24c-1.033-0.002-1.908-0.81-1.991-1.84l-0.331-4.183L11.546,18c-1.991-0.006-3.695-1.497-3.964-3.468L6.815,9.289
		C6.738,8.761,6.872,8.234,7.191,7.806c0.32-0.429,0.786-0.708,1.314-0.785C8.601,7.007,8.7,6.999,8.797,6.999
		c0.984,0,1.834,0.736,1.977,1.711l0.095,0.711c0.345-0.046,0.693-0.069,1.038-0.069c2.628,0,5.055,1.328,6.492,3.551
		c0.596,0.945,0.981,1.982,1.146,3.083l0.142,0.848C19.695,16.888,19.7,16.944,19.7,17c0,0.552-0.448,1-1,1h-0.706l0.294,3.842
		c0.088,1.101-0.734,2.069-1.833,2.157C16.455,23.999,16.293,24,16.292,24z M13.986,17c0.503,0,0.925,0.38,0.98,0.884l0.333,4.197
		c0.041,0.515,0.478,0.919,0.995,0.919h0.121c0.519-0.043,0.921-0.526,0.877-1.075l-0.336-4.387
		c-0.011-0.138,0.037-0.276,0.132-0.378c0.094-0.102,0.228-0.16,0.367-0.16H18.7l-0.143-0.857c-0.145-0.97-0.481-1.877-1.001-2.701
		c-1.249-1.933-3.363-3.089-5.651-3.089c-0.455,0-0.913,0.046-1.364,0.137c-0.031,0.007-0.065,0.01-0.099,0.01
		c-0.104,0-0.205-0.032-0.29-0.093c-0.112-0.08-0.187-0.204-0.205-0.341L9.783,8.849C9.746,8.59,9.606,8.358,9.392,8.198
		c-0.174-0.13-0.38-0.198-0.594-0.198c-0.049,0-0.098,0.004-0.148,0.011C8.104,8.09,7.725,8.599,7.805,9.145l0.767,5.247
		c0.203,1.483,1.482,2.604,2.976,2.608L13.986,17z"/>
</g>
</svg>
