<?xml version="1.0" encoding="utf-8"?>
<!-- Generator: Adobe Illustrator 22.1.0, SVG Export Plug-In . SVG Version: 6.00 Build 0)  -->
<svg version="1.1" id="Light" xmlns="http://www.w3.org/2000/svg" xmlns:xlink="http://www.w3.org/1999/xlink" x="0px" y="0px"
	 viewBox="0 0 24 24" style="enable-background:new 0 0 24 24;" xml:space="preserve">
<g>
	<title>disability-braille-1</title>
	<path d="M7,4C5.897,4,5,3.103,5,2s0.897-2,2-2s2,0.897,2,2S8.103,4,7,4z M7,1C6.449,1,6,1.449,6,2s0.449,1,1,1s1-0.449,1-1
		S7.551,1,7,1z"/>
	<path d="M7,10c-1.103,0-2-0.897-2-2s0.897-2,2-2s2,0.897,2,2S8.103,10,7,10z M7,7C6.449,7,6,7.449,6,8s0.449,1,1,1s1-0.449,1-1
		S7.551,7,7,7z"/>
	<path d="M7,16c-1.103,0-2-0.897-2-2s0.897-2,2-2s2,0.897,2,2S8.103,16,7,16z M7,13c-0.551,0-1,0.448-1,1s0.449,1,1,1s1-0.448,1-1
		S7.551,13,7,13z"/>
	<path d="M15.5,4c-1.103,0-2-0.897-2-2s0.897-2,2-2s2,0.897,2,2S16.603,4,15.5,4z M15.5,1c-0.552,0-1,0.449-1,1s0.448,1,1,1
		s1-0.449,1-1S16.052,1,15.5,1z"/>
	<path d="M15.5,10c-1.103,0-2-0.897-2-2s0.897-2,2-2s2,0.897,2,2S16.603,10,15.5,10z M15.5,7c-0.552,0-1,0.449-1,1s0.448,1,1,1
		s1-0.449,1-1S16.052,7,15.5,7z"/>
	<path d="M15.5,16c-1.103,0-2-0.897-2-2s0.897-2,2-2s2,0.897,2,2S16.603,16,15.5,16z M15.5,13c-0.552,0-1,0.448-1,1s0.448,1,1,1
		s1-0.448,1-1S16.052,13,15.5,13z"/>
	<path d="M1,24c-0.276,0-0.5-0.224-0.5-0.5v-5C0.5,18.224,0.724,18,1,18h1c0.827,0,1.5,0.673,1.5,1.5V20
		c0,0.375-0.138,0.727-0.387,1C3.362,21.273,3.5,21.625,3.5,22v0.5C3.5,23.327,2.827,24,2,24H1z M2,23c0.276,0,0.5-0.224,0.5-0.5V22
		c0-0.276-0.224-0.5-0.5-0.5H1.5V23H2z M2,20.5c0.276,0,0.5-0.224,0.5-0.5v-0.5C2.5,19.224,2.276,19,2,19H1.5v1.5H2z"/>
	<path d="M13,24c-0.276,0-0.5-0.224-0.5-0.5v-5c0-0.276,0.224-0.5,0.5-0.5s0.5,0.224,0.5,0.5v5C13.5,23.776,13.276,24,13,24z"/>
	<path d="M7,24c-0.175,0-0.339-0.093-0.429-0.243L5.5,21.972V23.5C5.5,23.776,5.276,24,5,24s-0.5-0.224-0.5-0.5v-5
		C4.5,18.224,4.724,18,5,18h0.75c0.965,0,1.75,0.785,1.75,1.75c0,0.756-0.485,1.412-1.176,1.652l1.104,1.841
		c0.142,0.237,0.065,0.544-0.171,0.686C7.18,23.975,7.091,24,7,24z M5.75,20.5c0.414,0,0.75-0.336,0.75-0.75S6.164,19,5.75,19H5.5
		v1.5H5.75z"/>
	<path d="M16,24c-0.827,0-1.5-0.673-1.5-1.5v-4c0-0.276,0.224-0.5,0.5-0.5s0.5,0.224,0.5,0.5v4c0,0.276,0.224,0.5,0.5,0.5h1
		c0.276,0,0.5,0.224,0.5,0.5S17.276,24,17,24H16z"/>
	<path d="M19,24c-0.827,0-1.5-0.673-1.5-1.5v-4c0-0.276,0.224-0.5,0.5-0.5s0.5,0.224,0.5,0.5v4c0,0.276,0.224,0.5,0.5,0.5h1
		c0.276,0,0.5,0.224,0.5,0.5S20.276,24,20,24H19z"/>
	<path d="M11,24c-0.276,0-0.5-0.224-0.5-0.5V22h-1v1.5C9.5,23.776,9.276,24,9,24s-0.5-0.224-0.5-0.5v-4c0-0.827,0.673-1.5,1.5-1.5
		s1.5,0.673,1.5,1.5v4C11.5,23.776,11.276,24,11,24z M10.5,21v-1.5c0-0.276-0.224-0.5-0.5-0.5s-0.5,0.224-0.5,0.5V21H10.5z"/>
	<path d="M22,24c-0.827,0-1.5-0.673-1.5-1.5v-3c0-0.827,0.673-1.5,1.5-1.5h1c0.276,0,0.5,0.224,0.5,0.5S23.276,19,23,19h-1
		c-0.276,0-0.5,0.224-0.5,0.5V21H23c0.276,0,0.5,0.224,0.5,0.5S23.276,22,23,22h-1.5v0.5c0,0.276,0.224,0.5,0.5,0.5h1
		c0.276,0,0.5,0.224,0.5,0.5S23.276,24,23,24H22z"/>
</g>
</svg>
