<?xml version="1.0" encoding="utf-8"?>
<!-- Generator: Adobe Illustrator 22.1.0, SVG Export Plug-In . SVG Version: 6.00 Build 0)  -->
<svg version="1.1" id="Light" xmlns="http://www.w3.org/2000/svg" xmlns:xlink="http://www.w3.org/1999/xlink" x="0px" y="0px"
	 viewBox="0 0 24 24" style="enable-background:new 0 0 24 24;" xml:space="preserve">
<g>
	<title>disability-walking-aid</title>
	<path d="M13.5,6c-1.654,0-3-1.346-3-3s1.346-3,3-3c1.654,0,3,1.346,3,3S15.154,6,13.5,6z M13.5,1c-1.103,0-2,0.897-2,2s0.897,2,2,2
		s2-0.897,2-2S14.603,1,13.5,1z"/>
	<path d="M15,24c-0.575,0-1.123-0.253-1.5-0.679C13.123,23.747,12.575,24,12,24c-1.103,0-2-0.897-2-2v-4.5
		c0-0.276,0.224-0.5,0.5-0.5s0.5,0.224,0.5,0.5V22c0,0.552,0.449,1,1,1c0.552,0,1-0.448,1-1v-5c0-0.276,0.224-0.5,0.5-0.5
		S14,16.724,14,17v5c0,0.552,0.448,1,1,1s1-0.448,1-1V11c0-0.276,0.224-0.5,0.5-0.5S17,10.724,17,11v5c0,0.552,0.448,1,1,1
		s1-0.448,1-1v-5.5C19,9.121,17.878,8,16.5,8h-6C9.445,8,8.498,8.668,8.144,9.662C8.073,9.86,7.884,9.994,7.673,9.994
		c-0.057,0-0.113-0.01-0.167-0.029C7.38,9.92,7.279,9.829,7.221,9.708C7.164,9.588,7.157,9.452,7.202,9.326
		C7.697,7.935,9.022,7,10.499,7H16.5c1.93,0,3.5,1.57,3.5,3.5V16c0,1.103-0.897,2-2,2c-0.357,0-0.699-0.093-1-0.268V22
		C17,23.103,16.103,24,15,24z"/>
	<path d="M6.5,24C6.224,24,6,23.776,6,23.5S6.224,23,6.5,23H7v-5.293l-0.975-0.976C5.364,16.07,5,15.192,5,14.257V12H4.5
		C4.224,12,4,11.776,4,11.5S4.224,11,4.5,11h6c0.276,0,0.5,0.224,0.5,0.5S10.776,12,10.5,12H10v2.257
		c0,0.935-0.364,1.814-1.026,2.475L8,17.707V23h0.5C8.776,23,9,23.224,9,23.5S8.776,24,8.5,24H6.5z M6,14.257
		c0,0.667,0.26,1.295,0.733,1.767L7.5,16.793l0.767-0.767C8.74,15.553,9,14.925,9,14.257V12H6V14.257z"/>
</g>
</svg>
