<?xml version="1.0" encoding="utf-8"?>
<!-- Generator: Adobe Illustrator 22.1.0, SVG Export Plug-In . SVG Version: 6.00 Build 0)  -->
<svg version="1.1" id="Light" xmlns="http://www.w3.org/2000/svg" xmlns:xlink="http://www.w3.org/1999/xlink" x="0px" y="0px"
	 viewBox="0 0 24 24" style="enable-background:new 0 0 24 24;" xml:space="preserve">
<g>
	<title>disability-blind-disabled</title>
	<path d="M11.894,17.5c-6.248,0-10.115-4.271-11.487-6.107C0.01,10.868,0.01,10.132,0.41,9.604C1.781,7.77,5.646,3.5,11.894,3.5
		c6.248,0,10.114,4.271,11.485,6.107c0.397,0.526,0.396,1.261-0.001,1.789c-0.061,0.081-0.13,0.17-0.205,0.264l-0.116,0.148
		C22.962,11.93,22.818,12,22.663,12c-0.111,0-0.219-0.037-0.307-0.105c-0.217-0.169-0.257-0.484-0.088-0.702l0.118-0.151
		c0.079-0.1,0.139-0.177,0.193-0.249c0.131-0.173,0.131-0.414,0.001-0.586C21.298,8.491,17.69,4.5,11.894,4.5
		c-5.797,0-9.404,3.99-10.685,5.705c-0.132,0.174-0.132,0.415-0.002,0.587C2.49,12.509,6.098,16.5,11.894,16.5
		c0.48,0,0.965-0.028,1.441-0.084c0.019-0.002,0.04-0.004,0.061-0.004c0.252,0,0.465,0.19,0.494,0.442
		c0.032,0.274-0.164,0.523-0.438,0.555C12.939,17.469,12.415,17.5,11.894,17.5z"/>
	<path d="M11.891,15.503c-0.746,0-1.47-0.165-2.153-0.491c-1.205-0.576-2.114-1.587-2.558-2.846S6.808,9.55,7.383,8.345
		C7.959,7.14,8.97,6.231,10.23,5.786c0.541-0.191,1.102-0.288,1.669-0.288c0.746,0,1.471,0.165,2.153,0.491
		c1.205,0.576,2.114,1.587,2.558,2.846c0.315,0.893,0.371,1.852,0.16,2.775C16.718,11.837,16.513,12,16.282,12l0,0
		c-0.037,0-0.074-0.004-0.111-0.012c-0.13-0.03-0.241-0.108-0.312-0.221c-0.071-0.113-0.094-0.247-0.064-0.377
		c0.168-0.738,0.124-1.506-0.129-2.22c-0.355-1.007-1.083-1.816-2.047-2.277c-0.546-0.261-1.125-0.393-1.722-0.393
		c-0.453,0-0.902,0.078-1.335,0.231C9.555,7.085,8.746,7.812,8.286,8.776c-0.461,0.964-0.519,2.05-0.163,3.057
		c0.356,1.007,1.083,1.816,2.047,2.277c0.546,0.261,1.125,0.394,1.721,0.394c0.453,0,0.902-0.078,1.335-0.231
		c0.055-0.019,0.111-0.028,0.167-0.028c0.212,0,0.402,0.134,0.472,0.333c0.092,0.26-0.045,0.546-0.305,0.638
		C13.019,15.406,12.457,15.503,11.891,15.503z"/>
	<path d="M19.394,20.5c-1.188,0-2.307-0.46-3.156-1.295c-0.01-0.008-0.019-0.015-0.027-0.023c-0.009-0.009-0.018-0.02-0.026-0.031
		c-0.829-0.837-1.291-1.96-1.291-3.15c0-2.481,2.019-4.5,4.5-4.5c1.19,0,2.312,0.462,3.161,1.3c0.007,0.006,0.014,0.012,0.021,0.018
		c0.006,0.006,0.011,0.012,0.017,0.02c0.839,0.849,1.301,1.971,1.301,3.162C23.894,18.481,21.876,20.5,19.394,20.5z M17.301,18.799
		c0.604,0.454,1.338,0.701,2.093,0.701c1.93,0,3.5-1.57,3.5-3.5c0-0.755-0.247-1.488-0.7-2.093L17.301,18.799z M19.394,12.5
		c-1.93,0-3.5,1.57-3.5,3.5c0,0.754,0.247,1.487,0.7,2.092l4.893-4.891C20.882,12.747,20.149,12.5,19.394,12.5z"/>
</g>
</svg>
