<?xml version="1.0" encoding="utf-8"?>
<!-- Generator: Adobe Illustrator 22.1.0, SVG Export Plug-In . SVG Version: 6.00 Build 0)  -->
<svg version="1.1" id="Light" xmlns="http://www.w3.org/2000/svg" xmlns:xlink="http://www.w3.org/1999/xlink" x="0px" y="0px"
	 viewBox="0 0 24 24" style="enable-background:new 0 0 24 24;" xml:space="preserve">
<g>
	<title>disability-walking-help</title>
	<path d="M8.752,5.999c-1.654,0-3-1.346-3-3s1.346-3,3-3s3,1.346,3,3S10.406,5.999,8.752,5.999z M8.752,0.999c-1.103,0-2,0.897-2,2
		s0.897,2,2,2s2-0.897,2-2S9.854,0.999,8.752,0.999z"/>
	<path d="M3.244,24.043c-0.182,0-0.365-0.025-0.542-0.075C1.641,23.669,1.02,22.562,1.319,21.5L4.815,7.514
		C4.95,6.984,5.3,6.528,5.776,6.261c0.298-0.167,0.635-0.255,0.976-0.255c0.724,0,1.394,0.391,1.747,1.021l0.265,0.486
		c0.839,1.563,1.392,2.595,4.271,3.006c0.017,0.002,0.035,0.006,0.054,0.011c1.052,0.164,1.801,1.178,1.647,2.255
		c-0.141,0.979-0.992,1.717-1.981,1.717l0,0c-0.094,0-0.19-0.007-0.284-0.02c-1.726-0.148-3.419-0.823-4.798-1.909l-0.229,0.916
		c2.349,3.1,2.72,3.788,3.755,8.041c0.126,0.52,0.042,1.057-0.237,1.513s-0.718,0.776-1.237,0.901
		c-0.155,0.038-0.315,0.057-0.474,0.057c-0.365,0-0.724-0.102-1.038-0.294C7.756,23.429,7.436,22.99,7.31,22.47
		c-0.498-2.057-0.757-2.985-1.163-3.798l-0.953,3.813c-0.004,0.021-0.014,0.06-0.025,0.099C4.928,23.443,4.136,24.043,3.244,24.043z
		 M6.753,7.005c-0.17,0-0.339,0.044-0.488,0.128c-0.238,0.134-0.413,0.362-0.48,0.626l-3.5,13.998
		c-0.152,0.542,0.157,1.099,0.688,1.248c0.089,0.025,0.181,0.038,0.272,0.038c0.445,0,0.84-0.3,0.961-0.73
		c0.005-0.018,1.265-5.06,1.265-5.06c0.048-0.191,0.204-0.337,0.399-0.371c0.028-0.005,0.058-0.008,0.088-0.008
		c0.166,0,0.32,0.083,0.413,0.22c0.938,1.39,1.216,2.27,1.911,5.14c0.063,0.26,0.223,0.48,0.451,0.619
		c0.157,0.096,0.337,0.147,0.519,0.147c0.079,0,0.159-0.01,0.237-0.028c0.26-0.063,0.479-0.223,0.619-0.451s0.181-0.496,0.118-0.756
		c-1.019-4.19-1.36-4.749-3.724-7.864c-0.092-0.121-0.124-0.275-0.087-0.423l0.484-1.937c0.043-0.172,0.176-0.31,0.346-0.359
		c0.046-0.013,0.092-0.02,0.139-0.02c0.129,0,0.252,0.049,0.345,0.138c1.318,1.254,3.042,2.031,4.855,2.188
		c0.064,0.009,0.113,0.012,0.162,0.012c0.499,0,0.928-0.369,0.998-0.857c0.078-0.546-0.302-1.054-0.848-1.133
		c-0.012-0.002-0.025-0.004-0.037-0.007c-3.351-0.488-4.14-1.958-4.975-3.515L7.623,7.51C7.449,7.2,7.115,7.005,6.753,7.005z"/>
	<path d="M21.252,23.999c-0.827,0-1.5-0.673-1.5-1.5c0-0.604,0.362-1.138,0.905-1.373L19.962,18h-2.15
		c-0.689,0-1.288,0.468-1.455,1.136l-0.499,1.996c0.536,0.237,0.893,0.769,0.893,1.367c0,0.827-0.673,1.5-1.5,1.5
		s-1.5-0.673-1.5-1.5c0-0.68,0.451-1.262,1.095-1.44l0.541-2.165C15.666,17.779,16.663,17,17.812,17h1.928l-0.628-2.826
		c-0.154-0.69-0.755-1.173-1.462-1.174h-1.899c-0.276,0-0.5-0.224-0.5-0.5c0-0.276,0.224-0.5,0.5-0.5h1.9
		c1.179,0.002,2.181,0.806,2.437,1.956l1.578,7.105c0.638,0.182,1.085,0.762,1.085,1.438C22.752,23.326,22.079,23.999,21.252,23.999
		z M21.239,21.999c-0.27,0.007-0.487,0.229-0.487,0.499c0,0.276,0.224,0.5,0.5,0.5s0.5-0.224,0.5-0.5
		c0-0.271-0.218-0.493-0.488-0.499C21.26,21.999,21.243,22,21.239,21.999z M15.239,21.999c-0.27,0.006-0.488,0.229-0.488,0.499
		c0,0.276,0.224,0.5,0.5,0.5s0.5-0.224,0.5-0.5c0-0.271-0.218-0.493-0.487-0.499C15.26,22,15.244,22,15.239,21.999z"/>
</g>
</svg>
