<?xml version="1.0" encoding="utf-8"?>
<!-- Generator: Adobe Illustrator 22.1.0, SVG Export Plug-In . SVG Version: 6.00 Build 0)  -->
<svg version="1.1" id="Light" xmlns="http://www.w3.org/2000/svg" xmlns:xlink="http://www.w3.org/1999/xlink" x="0px" y="0px"
	 viewBox="0 0 24 24" style="enable-background:new 0 0 24 24;" xml:space="preserve">
<g>
	<title>disability-sit-walking-aid</title>
	<path d="M5.75,6c-1.654,0-3-1.346-3-3s1.346-3,3-3s3,1.346,3,3S7.404,6,5.75,6z M5.75,1c-1.103,0-2,0.897-2,2s0.897,2,2,2
		s2-0.897,2-2S6.853,1,5.75,1z"/>
	<path d="M3.25,20c-0.276,0-0.5-0.224-0.5-0.5S2.974,19,3.25,19h6.5c0.276,0,0.5,0.224,0.5,0.5S10.026,20,9.75,20H3.25z"/>
	<path d="M13.25,24c-1.034-0.002-1.908-0.81-1.991-1.84l-0.333-4.156L8.5,18c-1.99-0.007-3.693-1.498-3.962-3.468L3.771,9.289
		C3.757,9.194,3.75,9.097,3.75,9c0-1.103,0.897-2,2-2h7c1.103,0,2,0.897,2,2s-0.897,2-2,2H8.063l0.432,2.976L10.924,14
		c2.062,0,3.804,1.596,3.983,3.635c0.001,0.01,0.34,4.21,0.34,4.21c0.088,1.099-0.735,2.065-1.833,2.154
		C13.413,23.999,13.251,24,13.25,24z M10.938,17c0.504,0,0.926,0.38,0.982,0.885l0.336,4.196c0.041,0.515,0.479,0.919,0.996,0.92
		h0.121c0.509-0.042,0.92-0.535,0.876-1.075l-0.339-4.2C13.779,16.198,12.473,15,10.938,15H8.5c-0.514-0.004-0.942-0.39-0.997-0.898
		L6.99,10.572c-0.021-0.144,0.022-0.289,0.117-0.399C7.202,10.063,7.34,10,7.485,10h5.265c0.552,0,1-0.449,1-1s-0.448-1-1-1h-7
		c-0.551,0-1,0.449-1,1c0,0.048,0.004,0.097,0.01,0.145l0.767,5.247C5.73,15.874,7.009,16.995,8.502,17L10.938,17z"/>
	<path d="M17.25,24c-0.276,0-0.5-0.224-0.5-0.5v-8.793l-0.975-0.976c-0.661-0.661-1.025-1.54-1.025-2.474V5h-1
		c-0.276,0-0.5-0.224-0.5-0.5S13.474,4,13.75,4h7c0.276,0,0.5,0.224,0.5,0.5S21.026,5,20.75,5h-1v6.257
		c0,0.935-0.365,1.814-1.025,2.474l-0.975,0.976V23.5C17.75,23.776,17.526,24,17.25,24z M15.75,11.257
		c0,0.668,0.26,1.295,0.732,1.767l0.768,0.768l0.768-0.768c0.472-0.472,0.732-1.1,0.732-1.768V5h-3V11.257z"/>
</g>
</svg>
