<?xml version="1.0" encoding="utf-8"?>
<!-- Generator: Adobe Illustrator 22.1.0, SVG Export Plug-In . SVG Version: 6.00 Build 0)  -->
<svg version="1.1" id="Light" xmlns="http://www.w3.org/2000/svg" xmlns:xlink="http://www.w3.org/1999/xlink" x="0px" y="0px"
	 viewBox="0 0 24 24" style="enable-background:new 0 0 24 24;" xml:space="preserve">
<g>
	<title>disability-walk-blind</title>
	<path d="M7.507,5.25c-1.379,0-2.5-1.121-2.5-2.5s1.121-2.5,2.5-2.5s2.5,1.121,2.5,2.5S8.885,5.25,7.507,5.25z M7.507,1.25
		c-0.827,0-1.5,0.673-1.5,1.5s0.673,1.5,1.5,1.5s1.5-0.673,1.5-1.5S8.334,1.25,7.507,1.25z"/>
	<path d="M3.463,23.82c-0.383,0-0.757-0.111-1.082-0.321c-0.449-0.29-0.758-0.737-0.87-1.259c-0.112-0.522-0.015-1.057,0.275-1.506
		l3.72-6.516v-2.937l-0.515,0.309c-0.298,0.18-0.484,0.51-0.485,0.859v1.299c0,1.103-0.897,2-2,2s-2-0.897-2-2v-1.3
		c0.004-1.744,0.934-3.386,2.427-4.287l2.909-1.744c0.461-0.28,0.994-0.428,1.54-0.428c0.754,0,1.471,0.278,2.021,0.782l4.931,4.482
		c-0.001-0.001-0.001-0.001-0.001-0.001c0.001,0,0.011,0.008,0.02,0.017c0.396,0.36,0.628,0.852,0.653,1.385
		c0.019,0.396-0.081,0.788-0.284,1.125l8.632,9.113c0.092,0.097,0.141,0.224,0.137,0.357s-0.059,0.258-0.156,0.35
		c-0.093,0.088-0.215,0.137-0.344,0.137c-0.137,0-0.269-0.057-0.363-0.156l-8.619-9.099c-0.303,0.176-0.646,0.268-1.003,0.268
		c-0.498,0-0.975-0.184-1.344-0.519l-2.157-1.96v1.948l3.734,6.539c0.022,0.033,0.06,0.097,0.093,0.163
		c0.495,0.985,0.097,2.189-0.888,2.686c-0.281,0.141-0.582,0.213-0.896,0.213c-0.762,0-1.448-0.422-1.79-1.101L7.507,18.78
		l-2.266,3.962c-0.019,0.039-0.055,0.102-0.094,0.163c-0.29,0.449-0.737,0.758-1.259,0.87C3.749,23.805,3.606,23.82,3.463,23.82z
		 M6.007,9.9c0.086,0,0.171,0.022,0.246,0.065c0.157,0.089,0.254,0.256,0.254,0.435v3.952c0,0.087-0.023,0.173-0.066,0.248
		l-3.8,6.654c-0.159,0.247-0.209,0.511-0.152,0.776c0.056,0.261,0.211,0.485,0.435,0.63c0.163,0.105,0.349,0.16,0.54,0.16
		c0.071,0,0.143-0.008,0.213-0.023c0.262-0.056,0.485-0.21,0.63-0.435c0.019-0.03,0.037-0.061,0.053-0.093l2.712-4.744
		c0.086-0.15,0.252-0.243,0.434-0.243s0.348,0.093,0.434,0.243l2.7,4.721c0.181,0.358,0.527,0.573,0.91,0.573
		c0.156,0,0.306-0.036,0.446-0.106c0.492-0.248,0.691-0.85,0.444-1.343c-0.016-0.031-0.033-0.062-0.052-0.091L8.573,14.6
		c-0.043-0.075-0.066-0.161-0.066-0.248v-3.211c0-0.198,0.117-0.377,0.298-0.457c0.064-0.028,0.132-0.043,0.202-0.043
		c0.125,0,0.244,0.046,0.336,0.13l2.993,2.72c0.184,0.167,0.423,0.259,0.672,0.259c0.282,0,0.552-0.119,0.741-0.327
		c0.18-0.198,0.272-0.454,0.259-0.721c-0.012-0.258-0.122-0.497-0.308-0.675c-0.008-0.006-0.016-0.013-0.019-0.016L8.729,7.51
		C8.363,7.174,7.886,6.99,7.384,6.99c-0.363,0-0.718,0.099-1.025,0.285l-2.91,1.745c-1.194,0.72-1.939,2.035-1.942,3.431v1.299
		c0,0.552,0.449,1,1,1s1-0.448,1-1v-1.3c0.002-0.697,0.373-1.354,0.969-1.715L5.75,9.971C5.827,9.925,5.916,9.9,6.007,9.9z"/>
</g>
</svg>
