<?xml version="1.0" encoding="utf-8"?>
<!-- Generator: Adobe Illustrator 22.1.0, SVG Export Plug-In . SVG Version: 6.00 Build 0)  -->
<svg version="1.1" id="Light" xmlns="http://www.w3.org/2000/svg" xmlns:xlink="http://www.w3.org/1999/xlink" x="0px" y="0px"
	 viewBox="0 0 24 24" style="enable-background:new 0 0 24 24;" xml:space="preserve">
<g>
	<title>disability-hearing-aid-t</title>
	<path d="M5.378,23.507c-2.765,0-5.074-2.074-5.372-4.825c-0.03-0.274,0.169-0.521,0.443-0.551c0.018-0.002,0.037-0.003,0.055-0.003
		c0.255,0,0.469,0.192,0.496,0.446c0.243,2.242,2.125,3.933,4.379,3.932c0.159,0,0.319-0.009,0.478-0.026
		c2.14-0.232,3.79-1.959,3.924-4.108l0.005-0.082c0.074-1.741,1.071-3.35,2.603-4.196c2.188-1.224,3.557-3.543,3.571-6.053
		C15.946,4.415,13.212,1.399,9.6,1.029c-0.214-0.02-0.433-0.03-0.65-0.03c-2.534,0-4.875,1.375-6.11,3.59
		C2.752,4.747,2.584,4.845,2.403,4.845c-0.085,0-0.169-0.022-0.243-0.063c-0.117-0.065-0.201-0.172-0.237-0.3
		c-0.036-0.129-0.021-0.264,0.045-0.38c1.411-2.53,4.088-4.102,6.985-4.102c0.248,0,0.499,0.012,0.746,0.035
		c4.125,0.422,7.246,3.865,7.261,8.009c-0.016,2.872-1.581,5.526-4.085,6.926c-1.23,0.679-2.031,1.971-2.091,3.373l-0.005,0.092
		c-0.164,2.637-2.189,4.757-4.814,5.041C5.769,23.496,5.572,23.507,5.378,23.507z"/>
	<path d="M5.63,16.533c-2.206,0-4-1.794-4-4c0-1.649,1.003-3.111,2.522-3.715c-0.13-0.423-0.195-0.854-0.194-1.286
		C3.964,6.334,4.435,5.21,5.285,4.367C6.13,3.53,7.251,3.069,8.441,3.069c1.797,0,3.305,0.976,4.156,2.678
		c1.076,2.151,0.842,4.872-0.582,6.771L11.03,13.83c-0.094,0.125-0.243,0.2-0.4,0.2c-0.109,0-0.213-0.035-0.3-0.1
		c-0.22-0.166-0.265-0.479-0.1-0.7l0.984-1.311c1.202-1.604,1.398-3.904,0.488-5.724c-0.676-1.351-1.858-2.125-3.244-2.125
		c-1.16,0-2.208,0.552-2.856,1.472c0.206-0.03,0.414-0.044,0.621-0.044c0.571,0,1.131,0.111,1.665,0.329
		c1.091,0.447,1.943,1.292,2.398,2.38c0.227,0.542,0.342,1.114,0.343,1.702c0.003,1.037-0.355,2.05-1.01,2.861
		C9.496,14.886,7.76,16.533,5.63,16.533z M5.63,9.533c-1.654,0-3,1.346-3,3c0,1.654,1.346,3,3,3s3-1.346,3-3
		C8.63,10.879,7.284,9.533,5.63,9.533z M5.63,8.533c1.716,0,3.205,1.081,3.763,2.652c0.156-0.406,0.237-0.839,0.236-1.277
		c0-0.455-0.089-0.898-0.265-1.317C8.832,7.32,7.595,6.498,6.213,6.498c-0.391,0-0.776,0.067-1.146,0.199
		c-0.071,0.278-0.108,0.56-0.109,0.838C4.957,7.882,5.012,8.228,5.121,8.568C5.295,8.544,5.463,8.533,5.63,8.533z"/>
	<path d="M19.687,15c-0.09,0-0.179-0.025-0.257-0.071c-0.236-0.142-0.313-0.449-0.171-0.686c0.831-1.383,0.831-3.102,0-4.485
		c-0.142-0.236-0.065-0.544,0.171-0.686C19.507,9.025,19.597,9,19.687,9c0.175,0,0.339,0.093,0.429,0.243
		c1.021,1.701,1.021,3.814,0,5.514C20.026,14.907,19.862,15,19.687,15z"/>
	<path d="M22.395,16.5c-0.09,0-0.179-0.025-0.257-0.071c-0.236-0.142-0.313-0.449-0.171-0.686c1.385-2.309,1.385-5.177,0-7.486
		c-0.069-0.114-0.089-0.249-0.056-0.378c0.032-0.13,0.113-0.239,0.228-0.307C22.216,7.525,22.305,7.5,22.395,7.5
		c0.175,0,0.339,0.093,0.429,0.243c1.575,2.626,1.575,5.889,0,8.515C22.734,16.407,22.57,16.5,22.395,16.5z"/>
	<path d="M22.003,24c-0.276,0-0.5-0.224-0.5-0.5V20h-1c-0.276,0-0.5-0.224-0.5-0.5s0.224-0.5,0.5-0.5h3c0.276,0,0.5,0.224,0.5,0.5
		s-0.224,0.5-0.5,0.5h-1v3.5C22.503,23.776,22.279,24,22.003,24z"/>
</g>
</svg>
