<?xml version="1.0" encoding="utf-8"?>
<!-- Generator: Adobe Illustrator 22.1.0, SVG Export Plug-In . SVG Version: 6.00 Build 0)  -->
<svg version="1.1" id="Light" xmlns="http://www.w3.org/2000/svg" xmlns:xlink="http://www.w3.org/1999/xlink" x="0px" y="0px"
	 viewBox="0 0 24 24" style="enable-background:new 0 0 24 24;" xml:space="preserve">
<g>
	<title>disability-partially-blind</title>
	<path d="M16.501,21c-0.186,0-0.355-0.102-0.442-0.266l-1.095-2.07C13.996,18.887,13.001,19,12.001,19
		c-6.249,0-10.115-4.271-11.487-6.107c-0.396-0.526-0.395-1.262,0.001-1.788c0.808-1.082,2.56-3.107,5.218-4.525
		c0.013-0.01,0.026-0.018,0.038-0.024c0.014-0.007,0.028-0.013,0.041-0.017c0.715-0.377,1.469-0.693,2.237-0.934l-0.99-1.87
		C6.996,3.616,6.983,3.481,7.023,3.353C7.062,3.225,7.148,3.12,7.267,3.058C7.338,3.02,7.419,3,7.5,3
		c0.186,0,0.355,0.102,0.442,0.266l1.096,2.07C10.005,5.113,11,5,12,5c6.249,0,10.115,4.271,11.486,6.107
		c0.396,0.526,0.396,1.261-0.001,1.788c-1.155,1.546-3.65,4.281-7.534,5.501l0.99,1.87c0.062,0.118,0.075,0.253,0.036,0.381
		c-0.039,0.127-0.126,0.232-0.244,0.295C16.663,20.98,16.582,21,16.501,21z M12.3,17.994c0.735-0.018,1.465-0.101,2.176-0.248
		L8.526,6.505c-0.63,0.188-1.25,0.427-1.847,0.715L12.3,17.994z M7.968,17.314c1.03,0.361,2.101,0.581,3.192,0.656L5.795,7.688
		C5.06,8.114,4.347,8.621,3.671,9.198L7.968,17.314z M15.475,17.495c3.857-1.151,6.322-4.01,7.211-5.2
		c0.131-0.174,0.131-0.415,0.001-0.588C21.404,9.99,17.797,6,12,6c-0.832,0-1.663,0.085-2.476,0.254l0.588,1.11
		C10.712,7.136,11.358,7.01,11.992,7c0.001,0,0.003,0,0.004,0C14.756,7,17,9.243,17,12c0.042,1.684-0.806,3.263-2.226,4.171
		L15.475,17.495z M1.315,12.295c0.833,1.114,2.569,3.091,5.195,4.402L2.908,9.895c-0.725,0.708-1.261,1.366-1.593,1.811
		c-0.13,0.173-0.131,0.413-0.003,0.585C1.313,12.292,1.314,12.293,1.315,12.295z M14.305,15.284
		c1.084-0.727,1.729-1.958,1.696-3.271C16,9.798,14.207,8.001,12.002,8c-0.477,0.008-0.962,0.096-1.419,0.255L14.305,15.284z"/>
</g>
</svg>
