<?xml version="1.0" encoding="utf-8"?>
<!-- Generator: Adobe Illustrator 22.1.0, SVG Export Plug-In . SVG Version: 6.00 Build 0)  -->
<svg version="1.1" id="Light" xmlns="http://www.w3.org/2000/svg" xmlns:xlink="http://www.w3.org/1999/xlink" x="0px" y="0px"
	 viewBox="0 0 24 24" style="enable-background:new 0 0 24 24;" xml:space="preserve">
<g>
	<title>disability-q</title>
	<path d="M20.508,23.32c-0.533,0-1.034-0.205-1.411-0.576l-1.565-1.565c-1.656,0.965-3.55,1.474-5.492,1.474
		c-2.658,0-5.21-0.948-7.188-2.67C0.308,16.028-0.17,9.113,3.785,4.57c1.916-2.201,4.575-3.524,7.486-3.725
		c0.255-0.018,0.514-0.027,0.769-0.027c2.627,0,5.169,0.954,7.158,2.685c2.201,1.916,3.524,4.575,3.726,7.486
		c0.19,2.748-0.647,5.426-2.359,7.569l1.357,1.357c0.383,0.387,0.592,0.892,0.589,1.424c-0.003,0.532-0.213,1.031-0.591,1.404
		C21.543,23.115,21.041,23.32,20.508,23.32z M17.608,20.047c0.134,0,0.259,0.052,0.354,0.146l1.84,1.84
		c0.187,0.184,0.438,0.287,0.706,0.287c0.268,0,0.52-0.103,0.709-0.289c0.188-0.186,0.292-0.434,0.293-0.698
		c0.001-0.264-0.1-0.513-0.286-0.701l-1.69-1.69c-0.186-0.185-0.196-0.485-0.023-0.682c1.74-2,2.598-4.557,2.415-7.202
		c-0.183-2.645-1.385-5.06-3.384-6.801c-1.804-1.57-4.116-2.435-6.51-2.435c-2.878,0-5.609,1.241-7.492,3.404
		C0.946,9.354,1.381,15.636,5.508,19.229c1.796,1.563,4.115,2.424,6.531,2.424c1.891,0,3.725-0.528,5.301-1.528
		C17.42,20.074,17.513,20.047,17.608,20.047z"/>
	<path d="M12.008,19.668c-3.521,0-6.591-2.26-7.639-5.624c-0.239-0.767-0.36-1.567-0.36-2.377c0-4.411,3.589-8,8-8s8,3.589,8,8
		c0.002,0.813-0.12,1.62-0.365,2.397c-0.315,1.004-0.818,1.921-1.493,2.725c-0.09,0.107-0.222,0.172-0.362,0.178
		c-0.003,0-0.024,0.001-0.027,0.001c-0.126,0-0.256-0.055-0.348-0.147l-1.86-1.859c-0.189-0.191-0.439-0.295-0.707-0.295
		c-0.263,0-0.51,0.102-0.697,0.286c-0.388,0.394-0.393,1.034-0.007,1.425l1.618,1.618c0.112,0.112,0.165,0.273,0.141,0.43
		c-0.024,0.157-0.123,0.294-0.264,0.367c-1.107,0.573-2.352,0.876-3.599,0.876H12.008z M12.008,4.668c-3.86,0-7,3.14-7,7
		c0,3.86,3.14,7,7,7l0.096-0.002c0.829-0.008,1.666-0.171,2.441-0.475l-1.11-1.11c-0.77-0.78-0.77-2.046-0.002-2.824
		c0.386-0.382,0.888-0.591,1.416-0.591c0.401,0.002,0.777,0.117,1.101,0.332c0.051,0.034,0.096,0.068,0.14,0.104
		c0.009,0.006,0.018,0.013,0.028,0.021c0.05,0.041,0.1,0.086,0.147,0.135l1.457,1.457c0.837-1.175,1.292-2.599,1.288-4.044
		c0-3.31-2.351-6.194-5.591-6.859C12.956,4.716,12.482,4.668,12.008,4.668z"/>
</g>
</svg>
