<?xml version="1.0" encoding="utf-8"?>
<!-- Generator: Adobe Illustrator 22.1.0, SVG Export Plug-In . SVG Version: 6.00 Build 0)  -->
<svg version="1.1" id="Light" xmlns="http://www.w3.org/2000/svg" xmlns:xlink="http://www.w3.org/1999/xlink" x="0px" y="0px"
	 viewBox="0 0 24 24" style="enable-background:new 0 0 24 24;" xml:space="preserve">
<g>
	<title>disability-cc</title>
	<path d="M7.133,18.25c-3.446,0-6.25-2.804-6.25-6.25s2.804-6.25,6.25-6.25c0.972,0,1.939,0.232,2.801,0.671
		c0.986,0.499,1.382,1.708,0.883,2.695c-0.344,0.679-1.031,1.1-1.793,1.1c-0.316,0-0.619-0.073-0.902-0.216
		C7.816,9.844,7.474,9.762,7.133,9.762c-0.598,0-1.16,0.233-1.583,0.656C5.128,10.84,4.895,11.402,4.895,12
		c0,1.234,1.004,2.238,2.238,2.238c0.359,0,0.715-0.091,1.03-0.262c0.293-0.15,0.602-0.225,0.922-0.225
		c0.759,0,1.445,0.419,1.79,1.093c0.49,0.961,0.139,2.129-0.8,2.66C9.169,17.992,8.154,18.249,7.133,18.25
		C7.134,18.25,7.133,18.25,7.133,18.25z M7.133,6.75c-2.895,0-5.25,2.355-5.25,5.25c0,2.895,2.355,5.25,5.25,5.25
		c0.855-0.001,1.706-0.216,2.459-0.621c0.464-0.262,0.638-0.847,0.392-1.33c-0.122-0.239-0.331-0.417-0.586-0.5
		c-0.102-0.033-0.207-0.05-0.312-0.05c-0.159,0-0.312,0.037-0.456,0.111c-0.451,0.246-0.97,0.378-1.495,0.378
		c-1.787,0-3.239-1.453-3.239-3.238c0-0.865,0.337-1.678,0.948-2.29s1.425-0.948,2.29-0.948c0.499,0,0.998,0.12,1.442,0.348
		c0.14,0.071,0.292,0.107,0.449,0.107c0.383,0,0.728-0.212,0.9-0.552c0.25-0.495,0.051-1.102-0.444-1.352
		C8.758,6.945,7.947,6.75,7.137,6.75H7.133z"/>
	<path d="M19.133,18.25c-3.447,0-6.25-2.804-6.25-6.25s2.804-6.25,6.25-6.25c0.972,0,1.939,0.232,2.801,0.671
		c0.986,0.499,1.382,1.708,0.883,2.695c-0.242,0.478-0.656,0.834-1.165,1.001c-0.204,0.067-0.415,0.101-0.627,0.101
		c-0.311,0-0.624-0.075-0.904-0.217c-0.306-0.157-0.647-0.239-0.989-0.239c-1.234,0-2.238,1.004-2.238,2.238
		c0,1.234,1.004,2.238,2.238,2.238c0.358,0,0.714-0.091,1.029-0.262c0.296-0.151,0.605-0.227,0.924-0.227
		c0.209,0,0.418,0.033,0.619,0.099c0.51,0.165,0.925,0.519,1.169,0.996c0.49,0.961,0.139,2.129-0.8,2.66
		C21.168,17.991,20.153,18.249,19.133,18.25C19.134,18.25,19.134,18.25,19.133,18.25z M19.133,6.75c-2.895,0-5.25,2.355-5.25,5.25
		c0,2.895,2.355,5.25,5.25,5.25c0.855-0.001,1.705-0.216,2.458-0.621c0.464-0.262,0.638-0.847,0.392-1.33
		c-0.122-0.239-0.331-0.417-0.586-0.5c-0.102-0.033-0.207-0.05-0.312-0.05c-0.159,0-0.312,0.037-0.456,0.111
		c-0.452,0.246-0.971,0.378-1.496,0.378c-1.785,0-3.238-1.453-3.238-3.238c0-1.785,1.453-3.238,3.238-3.238
		c0.499,0,0.998,0.12,1.442,0.348c0.141,0.071,0.293,0.108,0.45,0.108c0.106,0,0.212-0.017,0.315-0.051
		c0.255-0.084,0.463-0.262,0.584-0.502c0.25-0.495,0.052-1.102-0.444-1.352c-0.723-0.368-1.533-0.563-2.344-0.563H19.133z"/>
</g>
</svg>
