<?xml version="1.0" encoding="utf-8"?>
<!-- Generator: Adobe Illustrator 22.1.0, SVG Export Plug-In . SVG Version: 6.00 Build 0)  -->
<svg version="1.1" id="Light" xmlns="http://www.w3.org/2000/svg" xmlns:xlink="http://www.w3.org/1999/xlink" x="0px" y="0px"
	 viewBox="0 0 24 24" style="enable-background:new 0 0 24 24;" xml:space="preserve">
<g>
	<title>disability-ad</title>
	<path d="M4.494,14.245c-0.188,0-0.358-0.104-0.444-0.27c-0.086-0.167-0.073-0.365,0.036-0.518l2.011-2.846
		c0.094-0.132,0.246-0.211,0.409-0.211c0.104,0,0.203,0.032,0.288,0.091c0.225,0.159,0.279,0.472,0.12,0.697l-1.454,2.058h1.045
		c0.276,0,0.5,0.224,0.5,0.5s-0.224,0.5-0.5,0.5H4.494z"/>
	<path d="M7.505,17.745c-0.827,0-1.5-0.673-1.5-1.5H3.338L2.727,17.11c-0.281,0.397-0.739,0.635-1.227,0.635
		c-0.311,0-0.61-0.095-0.864-0.275c-0.327-0.231-0.545-0.575-0.613-0.971c-0.068-0.395,0.022-0.792,0.253-1.12l6-8.5
		c0.281-0.398,0.738-0.636,1.223-0.636c0.154,0,0.308,0.024,0.456,0.071c0.627,0.197,1.049,0.772,1.049,1.429v8.501
		C9.005,17.072,8.332,17.745,7.505,17.745z M6.505,15.245c0.276,0,0.5,0.224,0.5,0.5v0.5c0,0.276,0.224,0.5,0.5,0.5
		s0.5-0.224,0.5-0.5v-8.5c0-0.219-0.141-0.41-0.35-0.476c-0.001,0-0.002-0.001-0.003-0.001C7.602,7.252,7.551,7.244,7.5,7.244
		c-0.161,0-0.313,0.079-0.407,0.212l-6,8.5c-0.159,0.225-0.105,0.538,0.12,0.697c0.085,0.06,0.184,0.091,0.288,0.091
		c0.163,0,0.316-0.079,0.41-0.211l0.76-1.077c0.093-0.132,0.246-0.212,0.408-0.212H6.505z"/>
	<path d="M12.505,15.745c-0.276,0-0.5-0.224-0.5-0.5v-6.5c0-0.276,0.224-0.5,0.5-0.5h0.293c2.068,0,3.75,1.682,3.75,3.75
		s-1.682,3.75-3.75,3.75H12.505z M13.005,14.737c1.42-0.106,2.543-1.295,2.543-2.742c0-1.447-1.123-2.636-2.543-2.742V14.737z"/>
	<path d="M11.505,17.745c-0.827,0-1.5-0.673-1.5-1.5v-8.5c0-0.827,0.673-1.5,1.5-1.5h1.293c3.171,0,5.75,2.579,5.75,5.75
		s-2.579,5.75-5.75,5.75H11.505z M11.505,7.245c-0.276,0-0.5,0.224-0.5,0.5v8.5c0,0.276,0.224,0.5,0.5,0.5h1.293
		c2.619,0,4.75-2.131,4.75-4.75c0-2.619-2.131-4.75-4.75-4.75H11.505z"/>
	<path d="M19.051,17.745c-0.09,0-0.179-0.025-0.257-0.071c-0.115-0.069-0.195-0.178-0.228-0.308
		c-0.032-0.129-0.012-0.264,0.056-0.378c1.849-3.08,1.849-6.906,0-9.985c-0.142-0.236-0.065-0.544,0.171-0.686
		c0.078-0.047,0.167-0.071,0.257-0.071c0.175,0,0.339,0.093,0.429,0.243c2.04,3.397,2.04,7.618,0,11.015
		C19.39,17.652,19.225,17.745,19.051,17.745z"/>
	<path d="M22.051,17.745c-0.09,0-0.179-0.025-0.257-0.071c-0.115-0.069-0.195-0.178-0.228-0.308
		c-0.032-0.129-0.012-0.264,0.056-0.378c1.849-3.08,1.849-6.906,0-9.985c-0.142-0.236-0.065-0.544,0.171-0.686
		c0.078-0.047,0.167-0.071,0.257-0.071c0.175,0,0.339,0.093,0.429,0.243c2.04,3.397,2.04,7.618,0,11.015
		C22.39,17.652,22.225,17.745,22.051,17.745z"/>
</g>
</svg>
