<?xml version="1.0" encoding="utf-8"?>
<!-- Generator: Adobe Illustrator 22.1.0, SVG Export Plug-In . SVG Version: 6.00 Build 0)  -->
<svg version="1.1" id="Light" xmlns="http://www.w3.org/2000/svg" xmlns:xlink="http://www.w3.org/1999/xlink" x="0px" y="0px"
	 viewBox="0 0 24 24" style="enable-background:new 0 0 24 24;" xml:space="preserve">
<g>
	<title>disability-blind-read</title>
	<path d="M11.555,24.003c-0.174,0-0.333-0.088-0.424-0.235c-0.021-0.032-2.342-3.475-9.613-3.751
		c-0.814-0.019-1.458-0.677-1.463-1.497l0-14.541c0.01-0.406,0.176-0.777,0.465-1.052c0.279-0.265,0.642-0.41,1.024-0.41
		l0.044,0.001c1.659,0.065,7.178,0.524,9.968,3.679c0.211-0.238,0.44-0.457,0.683-0.654c0.088-0.072,0.2-0.111,0.314-0.111
		c0.152,0,0.294,0.068,0.389,0.186c0.084,0.104,0.122,0.234,0.108,0.367c-0.014,0.133-0.079,0.252-0.183,0.336
		c-0.302,0.245-0.576,0.53-0.814,0.847v15.028c2.874-2.641,7.551-3.104,9.499-3.177c0.281-0.007,0.499-0.228,0.501-0.504V8.001
		c0-0.276,0.224-0.5,0.5-0.5s0.5,0.224,0.5,0.5v10.516c-0.006,0.822-0.651,1.48-1.47,1.5c-3.846,0.146-6.266,1.173-7.618,2.008
		c-1.408,0.87-1.967,1.71-1.99,1.746c-0.035,0.058-0.091,0.115-0.157,0.156C11.74,23.977,11.649,24.003,11.555,24.003z M1.546,3.516
		c-0.264,0-0.484,0.216-0.491,0.481v14.519c0.002,0.273,0.219,0.494,0.494,0.5c1.952,0.074,6.632,0.537,9.506,3.178V7.162
		c-0.434-0.559-2.945-3.387-9.5-3.646l-0.01-0.25V3.516z"/>
	<path d="M18.086,7.359c-0.877-0.034-1.737-0.228-2.557-0.575c-0.122-0.006-0.236-0.055-0.324-0.141
		C15.204,6.641,15.202,6.64,15.2,6.638c-1.123-0.543-2.089-1.364-2.794-2.377c-0.254-0.347-0.252-0.819,0.006-1.169
		c1.283-1.845,3.398-3.002,5.655-3.091c0.899,0.034,1.762,0.229,2.584,0.579c0.119,0.007,0.23,0.056,0.315,0.138
		c0.001,0.001,0.002,0.002,0.003,0.003c1.126,0.543,2.093,1.366,2.799,2.382c0.253,0.343,0.251,0.814-0.008,1.166
		c-1.282,1.844-3.398,3.001-5.654,3.09c-0.003,0-0.007,0-0.01,0S18.089,7.359,18.086,7.359z M16.462,6.068
		c0.537,0.172,1.088,0.271,1.644,0.292c1.913-0.077,3.73-1.076,4.841-2.673c-0.57-0.832-1.344-1.512-2.244-1.981L16.462,6.068z
		 M18.076,1.001c-1.929,0.08-3.742,1.078-4.852,2.673c0.572,0.834,1.345,1.512,2.244,1.981l4.241-4.362
		C19.176,1.121,18.628,1.023,18.076,1.001z"/>
	<path d="M3.805,8.501c-0.414,0-0.751-0.336-0.751-0.75c0-0.022,0.001-0.043,0.004-0.064C3.081,7.31,3.41,7.001,3.805,7.001
		c0.414,0,0.75,0.336,0.75,0.75S4.219,8.501,3.805,8.501z"/>
	<path d="M7.805,8.501c-0.414,0-0.751-0.336-0.751-0.75c0-0.022,0.001-0.043,0.004-0.064C7.081,7.31,7.41,7.001,7.805,7.001
		c0.414,0,0.75,0.336,0.75,0.75S8.219,8.501,7.805,8.501z"/>
	<circle cx="3.805" cy="11.251" r="0.75"/>
	<circle cx="7.805" cy="11.251" r="0.75"/>
	<circle cx="14.805" cy="11.251" r="0.75"/>
	<circle cx="18.805" cy="14.751" r="0.75"/>
	<circle cx="14.805" cy="14.751" r="0.75"/>
	<path d="M3.805,15.501c-0.414,0-0.751-0.336-0.751-0.75c0-0.021,0.001-0.043,0.004-0.064c0.023-0.377,0.352-0.686,0.747-0.686
		c0.414,0,0.75,0.336,0.75,0.75S4.219,15.501,3.805,15.501z"/>
</g>
</svg>
