<?xml version="1.0" encoding="utf-8"?>
<!-- Generator: Adobe Illustrator 22.1.0, SVG Export Plug-In . SVG Version: 6.00 Build 0)  -->
<svg version="1.1" id="Layer_1" xmlns="http://www.w3.org/2000/svg" xmlns:xlink="http://www.w3.org/1999/xlink" x="0px" y="0px"
	 viewBox="0 0 24 24" style="enable-background:new 0 0 24 24;" xml:space="preserve">
<g>
	<title>religion-islam-hand</title>
	<path d="M12.869,23.954c-1.402,0-2.939-0.535-5.487-1.422c-0.707-0.246-1.492-0.519-2.383-0.82v0.304c0,0.552-0.449,1-1,1h-3
		c-0.551,0-1-0.448-1-1v-7c0-0.552,0.449-1,1-1h3c0.551,0,1,0.448,1,1h2.5c1.779,0.062,3.444,0.772,4.707,2h2.793
		c0.804,0,1.462,0.635,1.499,1.431l4.234-1.405c0.302-0.101,0.618-0.152,0.939-0.152c0.723,0,1.421,0.26,1.963,0.731
		c0.097,0.077,0.187,0.188,0.252,0.313c0.255,0.496,0.06,1.107-0.435,1.363c-1.715,0.867-3.119,1.612-4.247,2.21
		C16.131,23.138,14.593,23.954,12.869,23.954z M4.999,20.656c1.07,0.36,2.013,0.688,2.712,0.931c2.522,0.878,3.91,1.361,5.144,1.361
		c1.499,0,2.869-0.727,5.872-2.321c1.131-0.6,2.538-1.346,4.27-2.222c-0.003-0.002-0.008-0.021-0.01-0.023
		c-0.366-0.318-0.833-0.493-1.316-0.493c-0.213,0-0.422,0.034-0.623,0.101l-5.127,1.702c-0.269,0.212-0.586,0.324-0.921,0.324h-5.5
		c-0.276,0-0.5-0.224-0.5-0.5s0.224-0.5,0.5-0.5h5.5c0.276,0,0.5-0.224,0.5-0.5s-0.224-0.5-0.5-0.5h-3
		c-0.135,0-0.265-0.055-0.359-0.152c-1.1-1.135-2.575-1.792-4.154-1.848l-2.487,0V20.656z M0.999,22.016h3v-7l-3,0L0.999,22.016z"/>
	<path d="M15.515,9.974c-0.161,0-0.322-0.04-0.465-0.116l-0.901-0.477l-0.901,0.476c-0.144,0.075-0.305,0.115-0.467,0.115l0,0
		c-0.057,0-0.114-0.005-0.17-0.015c-0.263-0.046-0.492-0.191-0.646-0.409c-0.154-0.219-0.214-0.484-0.168-0.747l0.173-1.004
		l-0.731-0.717c-0.156-0.151-0.259-0.355-0.291-0.572c-0.038-0.264,0.028-0.528,0.188-0.742c0.16-0.214,0.393-0.353,0.658-0.391
		L12.8,5.231l0.451-0.912c0.096-0.199,0.261-0.363,0.463-0.461c0.137-0.067,0.283-0.1,0.435-0.1c0.112,0,0.222,0.019,0.329,0.056
		c0.252,0.088,0.455,0.268,0.571,0.508l0.447,0.91l1.009,0.147c0.216,0.031,0.419,0.135,0.572,0.291
		c0.385,0.396,0.377,1.03-0.019,1.415L16.328,7.8l0.173,1.005c0.038,0.216,0.001,0.442-0.101,0.636
		c-0.124,0.235-0.333,0.409-0.588,0.488C15.714,9.959,15.614,9.974,15.515,9.974z M14.148,8.316c0.081,0,0.162,0.02,0.234,0.058
		l1.134,0.6l-0.218-1.263c-0.028-0.162,0.025-0.327,0.143-0.442l0.918-0.9l-1.268-0.186c-0.163-0.024-0.304-0.126-0.376-0.274
		c0,0-0.564-1.148-0.565-1.151L13.581,5.91c-0.073,0.147-0.213,0.25-0.376,0.273l-1.268,0.184l0.919,0.901
		c0.117,0.115,0.17,0.28,0.143,0.442l-0.217,1.263l1.133-0.599C13.987,8.336,14.067,8.316,14.148,8.316z"/>
	<path d="M17.02,13.966c-0.883,0-1.746-0.164-2.565-0.489c-0.027-0.011-0.054-0.024-0.079-0.04
		c-0.373-0.183-0.554-0.656-0.391-1.064c0.129-0.323,0.437-0.532,0.784-0.534c2.674-0.008,4.843-2.189,4.835-4.862
		c-0.008-2.665-2.183-4.834-4.848-4.834c-0.156,0-0.298,0.007-0.439,0.02c-0.023,0.002-0.047,0.003-0.071,0.003
		c-0.174,0-0.338-0.058-0.474-0.169c-0.155-0.127-0.251-0.307-0.271-0.505c-0.031-0.312,0.138-0.613,0.42-0.749
		c0.974-0.484,2.015-0.73,3.093-0.73c0.754,0,1.504,0.123,2.228,0.367c1.766,0.593,3.195,1.839,4.025,3.507
		c1.712,3.444,0.303,7.639-3.141,9.351C19.168,13.714,18.094,13.966,17.02,13.966z M15.558,12.786
		c0.476,0.12,0.966,0.181,1.462,0.181c0.92,0,1.84-0.216,2.66-0.624c1.429-0.71,2.496-1.935,3.004-3.448
		c0.508-1.513,0.397-3.133-0.313-4.562c-0.71-1.429-1.935-2.496-3.448-3.005c-0.62-0.208-1.262-0.314-1.908-0.314
		c-0.499,0-0.988,0.062-1.465,0.184c2.842,0.388,5.045,2.831,5.054,5.777C20.613,9.933,18.412,12.392,15.558,12.786z"/>
</g>
</svg>
