<?xml version="1.0" encoding="utf-8"?>
<!-- Generator: Adobe Illustrator 22.1.0, SVG Export Plug-In . SVG Version: 6.00 Build 0)  -->
<svg version="1.1" id="Layer_1" xmlns="http://www.w3.org/2000/svg" xmlns:xlink="http://www.w3.org/1999/xlink" x="0px" y="0px"
	 viewBox="0 0 24 24" style="enable-background:new 0 0 24 24;" xml:space="preserve">
<g>
	<title>religion-hexagram</title>
	<path d="M12,23.374c-0.174,0-0.338-0.092-0.427-0.241l-3.187-5.259H2.5c-0.317,0-0.577-0.138-0.713-0.38
		c-0.136-0.241-0.12-0.535,0.044-0.806l2.918-4.815L1.832,7.059c-0.164-0.271-0.18-0.565-0.044-0.807
		C1.924,6.01,2.183,5.872,2.5,5.872h5.886l2.911-4.803c0.08-0.17,0.218-0.305,0.391-0.38C11.787,0.645,11.892,0.623,12,0.623
		c0.097,0,0.192,0.018,0.283,0.053c0.184,0.071,0.336,0.214,0.421,0.392l2.911,4.804H21.5c0.316,0,0.576,0.139,0.712,0.38
		c0.136,0.242,0.121,0.536-0.043,0.807l-2.918,4.815l2.918,4.814c0.164,0.272,0.18,0.565,0.044,0.807
		c-0.136,0.241-0.396,0.38-0.712,0.38h-5.885l-3.187,5.259C12.337,23.282,12.174,23.374,12,23.374z M12,21.909l2.445-4.035H9.555
		L12,21.909z M2.887,16.875l4.892-0.001l-2.446-4.036L2.887,16.875z M21.113,16.874l-2.447-4.036l-2.446,4.036H21.113z
		 M15.051,16.874l3.031-5.001l-3.031-5.001H8.949l-3.031,5.001l3.03,5.001H15.051z M5.334,10.909L7.78,6.872H2.886L5.334,10.909z
		 M18.666,10.909l2.447-4.038L16.22,6.872L18.666,10.909z M14.445,5.872L12,1.837L9.555,5.872H14.445z"/>
</g>
</svg>
