<?xml version="1.0" encoding="utf-8"?>
<!-- Generator: Adobe Illustrator 22.1.0, SVG Export Plug-In . SVG Version: 6.00 Build 0)  -->
<svg version="1.1" id="Layer_1" xmlns="http://www.w3.org/2000/svg" xmlns:xlink="http://www.w3.org/1999/xlink" x="0px" y="0px"
	 viewBox="0 0 24 24" style="enable-background:new 0 0 24 24;" xml:space="preserve">
<g>
	<title>religion-hinduism</title>
	<path d="M19.706,8.984c-1.791,0-3.516-0.75-4.736-2.059c-0.295-0.312-0.356-0.777-0.152-1.158c0.127-0.235,0.337-0.407,0.593-0.484
		c0.094-0.028,0.191-0.043,0.289-0.043c0.164,0,0.328,0.042,0.473,0.12c0.774,0.406,1.652,0.621,2.535,0.621
		c0.844,0,1.686-0.197,2.437-0.57c0.138-0.069,0.292-0.105,0.445-0.105c0.267,0,0.518,0.104,0.707,0.293l0.91,0.915
		c0.059,0.059,0.111,0.126,0.154,0.199c0.28,0.475,0.121,1.089-0.354,1.369c-0.994,0.591-2.132,0.903-3.29,0.903h-0.002
		C19.713,8.984,19.708,8.984,19.706,8.984z M19.714,7.984c0.98,0,1.941-0.264,2.782-0.764l-0.907-0.915
		c-0.887,0.442-1.883,0.675-2.88,0.675c-1.045,0-2.084-0.255-3.005-0.738c1.028,1.106,2.488,1.741,4,1.741h0.002
		C19.708,7.984,19.713,7.984,19.714,7.984z"/>
	<path d="M18.101,5c-1.378,0-2.5-1.121-2.5-2.5s1.122-2.5,2.5-2.5s2.5,1.121,2.5,2.5S19.48,5,18.101,5z M18.101,1
		c-0.827,0-1.5,0.673-1.5,1.5s0.673,1.5,1.5,1.5s1.5-0.673,1.5-1.5S18.929,1,18.101,1z"/>
	<path d="M8.267,24.002c-0.139,0-0.278-0.004-0.417-0.012c-2.07-0.113-3.974-1.027-5.362-2.575c-1.388-1.548-2.09-3.541-1.977-5.611
		c0.019-0.27,0.192-0.499,0.441-0.588c0.072-0.026,0.147-0.039,0.223-0.039c0.099,0,0.194,0.021,0.284,0.064
		c0.161,0.077,0.282,0.21,0.342,0.377c1.011,2.916,3.377,4.951,5.754,4.951c0,0,0,0,0,0c0.441,0,0.872-0.072,1.281-0.214
		c1.353-0.469,2.351-1.806,2.426-3.253c0.055-1.054-0.362-3.061-3.765-4.65c-0.368-0.172-0.456-0.442-0.475-0.588
		c-0.067-0.494,0.362-0.86,1.012-1.414c1.169-0.997,2.769-2.362,2.081-4.465C9.514,4.601,8.063,3.656,6.514,3.656
		c-0.158,0-0.317,0.01-0.473,0.029C6.002,3.688,5.976,3.689,5.95,3.689c-0.525,0-0.946-0.374-1.003-0.89L4.833,1.755
		C4.786,1.322,5.021,0.911,5.42,0.733C6.229,0.367,7.094,0.18,7.991,0.18c1.067,0,2.119,0.272,3.043,0.788
		c1.705,0.952,2.854,2.622,3.155,4.584c0.264,1.723-0.171,3.426-1.135,4.444l0.031,0.026c0.663-0.197,1.365-0.298,2.072-0.298
		c1.423,0,2.811,0.406,4.012,1.174c0.004,0.002,0.02,0.013,0.023,0.016c1.663,1.204,2.623,3.147,2.569,5.199
		c0.004,2.202-1.094,4.253-2.937,5.48c-0.119,0.079-0.257,0.121-0.399,0.121l0,0c-0.105,0-0.208-0.023-0.305-0.068
		c-0.175-0.081-0.307-0.226-0.373-0.406c-0.066-0.182-0.058-0.377,0.024-0.552c0.652-1.427,0.995-3.014,0.99-4.587
		c0.044-1.086-0.444-2.105-1.307-2.737c-0.599-0.395-1.307-0.607-2.04-0.607c-0.052,0-0.105,0.001-0.158,0.003
		c0.825,1.724,1.011,3.695,0.507,5.549C14.831,21.661,11.749,24.001,8.267,24.002L8.267,24.002z M1.658,17.695
		c0.643,2.904,3.164,5.128,6.246,5.297c0.121,0.006,0.242,0.01,0.362,0.01c3.034,0,5.721-2.039,6.533-4.958
		c0.44-1.617,0.277-3.339-0.458-4.847c-0.117-0.242-0.133-0.514-0.044-0.766c0.088-0.252,0.269-0.455,0.51-0.571
		c0.134-0.064,0.281-0.098,0.426-0.099c0.056-0.002,0.12-0.004,0.184-0.004c0.927,0,1.829,0.272,2.608,0.787
		c1.149,0.84,1.794,2.174,1.736,3.576c0.005,1.339-0.228,2.7-0.677,3.982c1.066-1.043,1.68-2.482,1.677-4.001
		c0.045-1.73-0.759-3.362-2.15-4.372c-1.025-0.653-2.223-1.003-3.453-1.003c-0.615,0-1.227,0.088-1.818,0.262
		c-0.094,0.023-0.177,0.033-0.26,0.033c-0.227,0-0.442-0.075-0.62-0.216l-0.032-0.026c-0.207-0.164-0.339-0.401-0.37-0.667
		c-0.031-0.265,0.044-0.527,0.21-0.736c0.02-0.024,0.039-0.046,0.059-0.067c0.756-0.799,1.09-2.18,0.872-3.605
		c-0.253-1.655-1.22-3.062-2.653-3.862C9.771,1.409,8.887,1.18,7.991,1.18c-0.743,0-1.491,0.161-2.161,0.465L5.942,2.69
		C6.125,2.667,6.323,2.655,6.52,2.655c1.939,0,3.759,1.196,4.529,2.976c0.913,2.784-1.139,4.534-2.365,5.579
		c-0.141,0.12-0.361,0.308-0.515,0.455c3.707,1.828,4.158,4.212,4.092,5.489c-0.096,1.843-1.369,3.548-3.098,4.146
		c-0.513,0.177-1.051,0.267-1.6,0.267C5.284,21.568,3.039,20.058,1.658,17.695z"/>
</g>
</svg>
