<?xml version="1.0" encoding="utf-8"?>
<!-- Generator: Adobe Illustrator 22.1.0, SVG Export Plug-In . SVG Version: 6.00 Build 0)  -->
<svg version="1.1" id="Layer_1" xmlns="http://www.w3.org/2000/svg" xmlns:xlink="http://www.w3.org/1999/xlink" x="0px" y="0px"
	 viewBox="0 0 24 24" style="enable-background:new 0 0 24 24;" xml:space="preserve">
<g>
	<title>religion-hands-1</title>
	<path d="M11,14c-0.551,0-1-0.448-1-1V7H8C7.449,7,7,6.551,7,6V4c0-0.551,0.449-1,1-1h2V1c0-0.551,0.449-1,1-1h2
		c0.552,0,1,0.449,1,1v2h2c0.552,0,1,0.449,1,1v2c0,0.551-0.448,1-1,1h-2v6c0,0.552-0.448,1-1,1H11z M8,6h2.5
		C10.776,6,11,6.224,11,6.5V13h2V6.5C13,6.224,13.224,6,13.5,6H16V4h-2.5C13.224,4,13,3.776,13,3.5V1h-2v2.5
		C11,3.776,10.776,4,10.5,4H8L8,6z"/>
	<path d="M15,24c-0.552,0-1-0.448-1-1v-2c0-0.552,0.448-1,1-1v-4.008c0-0.047,0.006-0.093,0.019-0.137
		c0.397-1.39,0.923-2.751,1.564-4.045c0.008-0.017,0.018-0.033,0.028-0.049c0.329-0.512,0.805-0.805,1.305-0.805
		c0.171,0,0.34,0.035,0.5,0.103c0.575,0.245,1.042,0.967,0.789,2.027l-0.298,1.301l1.594-1.594c0.023-3.242,0.599-5.281,1.712-6.061
		c0.391-0.274,0.765-0.331,1.01-0.331c0.249,0,0.417,0.057,0.448,0.068C23.868,6.54,24,6.728,24,6.938v7.647
		c0,0.396-0.16,0.783-0.441,1.063c-0.944,0.939-2.992,2.968-3.559,3.53V20c0.552,0,1,0.448,1,1v2c0,0.552-0.448,1-1,1H15z M15,23h5
		v-2h-5L15,23z M19,20v-1.031c0-0.132,0.054-0.262,0.148-0.355c0.035-0.034,2.612-2.587,3.706-3.675
		C22.947,14.846,23,14.718,23,14.585V7.44c-0.077,0.027-0.152,0.066-0.224,0.118C22.392,7.835,21.5,8.919,21.5,13
		c0,0.134-0.052,0.259-0.146,0.354l-2.969,2.969c-0.094,0.094-0.22,0.146-0.354,0.146c-0.084,0-0.168-0.022-0.242-0.062
		c-0.194-0.107-0.295-0.333-0.245-0.549l0.688-3c0.118-0.494-0.025-0.802-0.207-0.879c-0.033-0.014-0.067-0.021-0.103-0.021
		c-0.15,0-0.32,0.12-0.456,0.323c-0.598,1.212-1.091,2.484-1.466,3.782V20H19z"/>
	<path d="M4,24c-0.551,0-1-0.448-1-1v-2c0-0.552,0.449-1,1-1v-0.831c-0.537-0.562-2.492-2.596-3.506-3.514
		C0.18,15.372,0,14.966,0,14.543v-7.6c0-0.209,0.132-0.398,0.329-0.47C0.36,6.462,0.53,6.405,0.779,6.405
		c0.245,0,0.618,0.057,1.008,0.33C2.9,7.513,3.476,9.551,3.499,12.792l1.594,1.594l-0.299-1.305
		c-0.253-1.056,0.214-1.777,0.789-2.022c0.161-0.069,0.33-0.104,0.502-0.104c0.5,0,0.976,0.294,1.305,0.806
		c0.011,0.017,0.02,0.033,0.028,0.049c0.641,1.295,1.167,2.656,1.563,4.045C8.994,15.899,9,15.946,9,15.992V20c0.551,0,1,0.448,1,1
		v2c0,0.552-0.449,1-1,1H4z M4,23h5v-2H4L4,23z M8,20v-3.938c-0.375-1.298-0.868-2.571-1.466-3.782
		c-0.136-0.203-0.306-0.323-0.456-0.323c-0.036,0-0.07,0.007-0.103,0.021c-0.182,0.078-0.325,0.385-0.208,0.875l0.689,3.004
		c0.05,0.216-0.051,0.442-0.245,0.549c-0.074,0.041-0.158,0.062-0.242,0.062c-0.134,0-0.259-0.052-0.354-0.146l-2.969-2.969
		C2.552,13.259,2.5,13.134,2.5,13c0-4.08-0.891-5.162-1.275-5.438C1.146,7.505,1.069,7.467,1,7.443v7.1
		c0,0.141,0.06,0.277,0.165,0.371c1.18,1.067,3.594,3.601,3.696,3.708C4.951,18.718,5,18.84,5,18.969V20H8z"/>
</g>
</svg>
