<?xml version="1.0" encoding="utf-8"?>
<!-- Generator: Adobe Illustrator 22.1.0, SVG Export Plug-In . SVG Version: 6.00 Build 0)  -->
<svg version="1.1" id="Layer_1" xmlns="http://www.w3.org/2000/svg" xmlns:xlink="http://www.w3.org/1999/xlink" x="0px" y="0px"
	 viewBox="0 0 24 24" style="enable-background:new 0 0 24 24;" xml:space="preserve">
<g>
	<title>religion-cross-necklace</title>
	<path d="M10.533,24c-0.021,0-0.042-0.001-0.064-0.002c-0.55-0.034-0.969-0.51-0.935-1.06l0.424-6.787L7.242,16.83
		c-0.079,0.02-0.159,0.03-0.239,0.03C6.46,16.859,6,16.402,6,15.86v-3.22c0-0.081,0.01-0.163,0.03-0.242
		c0.065-0.259,0.226-0.478,0.455-0.615c0.156-0.094,0.333-0.143,0.514-0.143c0.082,0,0.163,0.01,0.243,0.03l2.681,0.67l-0.361-3.23
		c-0.004-0.04-0.006-0.078-0.006-0.116c0.001-0.267,0.107-0.518,0.297-0.706C10.034,8.11,10.257,8.01,10.5,8V7
		c0-0.827,0.673-1.5,1.5-1.5s1.5,0.673,1.5,1.5v1.001c0.019,0.001,0.036,0.003,0.053,0.005c0.546,0.06,0.942,0.556,0.882,1.103
		l-0.359,3.231l2.682-0.67c0.079-0.02,0.161-0.03,0.242-0.03c0.267,0,0.519,0.104,0.707,0.293C17.896,12.122,18,12.373,18,12.64
		v3.22c0,0.082-0.01,0.164-0.03,0.243c-0.112,0.445-0.511,0.757-0.971,0.757c0,0,0,0,0,0c-0.081,0-0.162-0.01-0.241-0.03
		l-2.716-0.679l0.426,6.787c0.001,0.02,0.002,0.041,0.002,0.063c0,0.268-0.105,0.519-0.294,0.707C13.987,23.896,13.736,24,13.47,24
		H10.533z M10.5,15c0.117,0,0.23,0.041,0.32,0.116c0.122,0.102,0.189,0.257,0.179,0.416L10.532,23l2.937,0l-0.468-7.469
		c-0.01-0.159,0.057-0.314,0.179-0.416C13.27,15.041,13.383,15,13.499,15c0.042,0,0.084,0.005,0.125,0.016L17,15.86v-3.22
		l-3.379,0.845c-0.039,0.01-0.08,0.015-0.121,0.015c-0.121,0-0.238-0.044-0.329-0.124c-0.123-0.108-0.186-0.269-0.168-0.432
		L13.441,9l-2.862,0c-0.025,0.005-0.033,0.008-0.035,0.009l0.453,3.935c0.018,0.163-0.044,0.324-0.168,0.432
		c-0.091,0.08-0.208,0.124-0.329,0.124c-0.041,0-0.082-0.005-0.122-0.015L7,12.64l0,3.22l3.379-0.845
		C10.417,15.005,10.459,15,10.5,15z M12.5,8V7c0-0.276-0.224-0.5-0.5-0.5c-0.276,0-0.5,0.224-0.5,0.5v1H12.5z"/>
	<path d="M19.224,4.762c-0.144,0-0.28-0.062-0.375-0.17c-0.182-0.207-0.162-0.523,0.045-0.706c0.655-0.577,1.237-1.235,1.731-1.955
		c0.093-0.136,0.248-0.218,0.413-0.218c0.101,0,0.198,0.03,0.282,0.087c0.227,0.156,0.286,0.468,0.13,0.695
		c-0.541,0.789-1.178,1.51-1.895,2.141C19.463,4.717,19.346,4.762,19.224,4.762z"/>
	<path d="M15.817,6.808c-0.207,0-0.395-0.13-0.468-0.324c-0.097-0.259,0.034-0.547,0.292-0.644c0.559-0.21,1.105-0.471,1.622-0.776
		c0.076-0.045,0.164-0.069,0.254-0.069c0.176,0,0.341,0.094,0.431,0.246c0.14,0.238,0.061,0.545-0.177,0.685
		c-0.566,0.333-1.164,0.62-1.778,0.85C15.936,6.797,15.877,6.808,15.817,6.808z"/>
	<path d="M21.55,1.891c-0.086,0-0.171-0.022-0.246-0.065c-0.116-0.066-0.2-0.173-0.236-0.301c-0.036-0.129-0.019-0.264,0.047-0.38
		c0.155-0.274,0.299-0.56,0.428-0.849C21.625,0.116,21.804,0,22,0c0.071,0,0.139,0.015,0.204,0.044
		c0.122,0.055,0.215,0.153,0.263,0.278c0.048,0.125,0.044,0.261-0.011,0.382c-0.143,0.319-0.302,0.633-0.471,0.933
		C21.897,1.794,21.73,1.891,21.55,1.891z"/>
	<path d="M4.776,4.762c-0.122,0-0.239-0.044-0.33-0.125C3.728,4.005,3.091,3.285,2.55,2.496C2.395,2.269,2.453,1.957,2.68,1.801
		c0.084-0.057,0.182-0.087,0.282-0.087c0.165,0,0.319,0.081,0.413,0.217C3.869,2.652,4.451,3.31,5.107,3.887
		c0.207,0.182,0.227,0.499,0.045,0.706C5.056,4.7,4.92,4.762,4.776,4.762z"/>
	<path d="M8.183,6.808c-0.06,0-0.119-0.011-0.176-0.032c-0.614-0.231-1.212-0.517-1.778-0.85C6.114,5.858,6.032,5.749,5.999,5.62
		S5.985,5.356,6.052,5.241c0.09-0.152,0.255-0.246,0.431-0.246c0.089,0,0.177,0.024,0.254,0.069C7.253,5.368,7.799,5.629,8.359,5.84
		c0.258,0.097,0.389,0.386,0.292,0.644C8.578,6.678,8.39,6.808,8.183,6.808z"/>
	<path d="M2.45,1.891c-0.18,0-0.347-0.098-0.436-0.255c-0.169-0.3-0.327-0.613-0.47-0.931C1.489,0.583,1.485,0.447,1.533,0.322
		C1.58,0.198,1.673,0.099,1.795,0.044C1.86,0.015,1.929,0,2,0c0.196,0,0.375,0.116,0.456,0.295c0.131,0.29,0.275,0.577,0.43,0.851
		c0.066,0.116,0.082,0.251,0.046,0.38c-0.036,0.129-0.12,0.236-0.236,0.301C2.621,1.869,2.536,1.891,2.45,1.891z"/>
</g>
</svg>
