<?xml version="1.0" encoding="utf-8"?>
<!-- Generator: Adobe Illustrator 22.1.0, SVG Export Plug-In . SVG Version: 6.00 Build 0)  -->
<svg version="1.1" id="Layer_1" xmlns="http://www.w3.org/2000/svg" xmlns:xlink="http://www.w3.org/1999/xlink" x="0px" y="0px"
	 viewBox="0 0 24 24" style="enable-background:new 0 0 24 24;" xml:space="preserve">
<g>
	<title>religion-hand</title>
	<path d="M12.71,23.461c-1.293,0-2.719-0.501-5.081-1.332C6.905,21.874,6.021,21.563,5,21.217v0.304c0,0.552-0.449,1-1,1H1
		c-0.551,0-1-0.448-1-1v-7c0-0.552,0.449-1,1-1h3c0.551,0,1,0.448,1,1h2.5c1.779,0.063,3.444,0.772,4.707,2h2.753
		c0.072-0.01,0.146-0.016,0.218-0.016c0.735,0,1.364,0.525,1.494,1.248c0.001,0.004,0.001,0.008,0.002,0.011l3.668-1.218
		c0.309-0.091,0.621-0.136,0.935-0.136c1.031,0,2.012,0.491,2.624,1.313c0.089,0.119,0.12,0.27,0.085,0.414
		c-0.034,0.144-0.13,0.265-0.262,0.332c-2.232,1.116-3.912,2.02-5.261,2.747C15.685,22.71,14.291,23.461,12.71,23.461z M5,20.162
		c1.145,0.385,2.107,0.723,2.961,1.023c2.325,0.818,3.606,1.269,4.734,1.269c1.357,0,2.59-0.664,5.293-2.119
		c1.231-0.662,2.738-1.474,4.678-2.454c-0.394-0.303-0.885-0.472-1.388-0.472c-0.216,0-0.43,0.031-0.637,0.092l-4.238,1.407
		c-0.23,0.318-0.574,0.537-0.956,0.605c-0.087,0.016-0.178,0.024-0.268,0.024c-0.073,0-0.147-0.005-0.22-0.016H9.5
		c-0.276,0-0.5-0.224-0.5-0.5s0.224-0.5,0.5-0.5H15c0.03,0,0.06,0.003,0.09,0.008c0.03,0.006,0.06,0.008,0.09,0.008
		c0.03,0,0.06-0.003,0.09-0.008c0.141-0.025,0.26-0.106,0.34-0.228c0.013-0.031,0.03-0.061,0.049-0.089
		c0.036-0.09,0.046-0.187,0.029-0.282c-0.044-0.246-0.257-0.425-0.506-0.425c-0.031,0-0.062,0.003-0.093,0.008
		c-0.03,0.005-0.059,0.008-0.089,0.008h-3c-0.135,0-0.265-0.055-0.359-0.152c-1.1-1.135-2.575-1.791-4.154-1.848l-2.487,0V20.162z
		 M1,21.521h3v-7l-3,0L1,21.521z"/>
	<path d="M16,14.521c-0.552,0-1-0.448-1-1v-6h-2c-0.552,0-1-0.449-1-1v-2c0-0.551,0.448-1,1-1h2v-2c0-0.551,0.448-1,1-1h2
		c0.552,0,1,0.449,1,1v2h2c0.552,0,1,0.449,1,1v2c0,0.551-0.448,1-1,1h-2v6c0,0.552-0.448,1-1,1H16z M13,6.521h2.5
		c0.276,0,0.5,0.224,0.5,0.5v6.5h2v-6.5c0-0.276,0.224-0.5,0.5-0.5H21v-2h-2.5c-0.276,0-0.5-0.224-0.5-0.5v-2.5h-2v2.5
		c0,0.276-0.224,0.5-0.5,0.5H13L13,6.521z"/>
</g>
</svg>
