<?xml version="1.0" encoding="utf-8"?>
<!-- Generator: Adobe Illustrator 22.1.0, SVG Export Plug-In . SVG Version: 6.00 Build 0)  -->
<svg version="1.1" id="Layer_1" xmlns="http://www.w3.org/2000/svg" xmlns:xlink="http://www.w3.org/1999/xlink" x="0px" y="0px"
	 viewBox="0 0 24 24" style="enable-background:new 0 0 24 24;" xml:space="preserve">
<g>
	<title>religion-ankh</title>
	<path d="M12,9c-0.107,0-0.214-0.036-0.3-0.1c-0.223-0.167-2.174-1.679-2.2-3.367C9.355,4.3,10.235,3.167,11.468,3.004
		c0.098-0.013,0.199-0.02,0.299-0.02c0.078,0,0.156,0.004,0.233,0.012c0.079-0.008,0.158-0.012,0.236-0.012
		c0.504,0,0.984,0.163,1.386,0.471c0.484,0.371,0.794,0.908,0.874,1.512c0.025,0.187,0.026,0.377,0.004,0.565
		c-0.025,1.688-1.977,3.2-2.2,3.367C12.214,8.964,12.107,9,12,9z M11.767,3.985c-0.056,0-0.113,0.004-0.168,0.011
		c-0.339,0.045-0.641,0.219-0.849,0.491c-0.208,0.272-0.298,0.608-0.254,0.948C10.499,5.456,10.5,5.478,10.5,5.5
		c0,0.916,1.003,1.913,1.5,2.351c0.497-0.438,1.5-1.437,1.5-2.351c0-0.022,0.001-0.044,0.004-0.066c0.015-0.111,0.015-0.224,0-0.335
		c-0.045-0.34-0.219-0.641-0.491-0.85c-0.226-0.173-0.495-0.265-0.778-0.265c-0.057,0-0.114,0.004-0.171,0.011
		C12.045,3.998,12.022,4,12,4c-0.022,0-0.044-0.001-0.065-0.004C11.879,3.988,11.823,3.985,11.767,3.985z"/>
	<path d="M9.474,23.999c-0.028-0.001-0.058-0.002-0.088-0.005c-0.523-0.06-0.898-0.531-0.838-1.051L9.452,13H3c-0.551,0-1-0.449-1-1
		v-2c0-0.551,0.449-1,1-1h4.531C6.887,7.947,6.532,6.751,6.5,5.513c-0.003-0.108-0.003-0.22,0-0.331
		c0.091-2.907,2.44-5.184,5.349-5.184c0.055,0,0.111,0.001,0.167,0.003c0.031-0.002,0.083-0.003,0.138-0.003
		c0.054,0,0.11,0.001,0.165,0.003c2.949,0.092,5.273,2.566,5.181,5.515C17.468,6.751,17.113,7.947,16.469,9H21c0.552,0,1,0.449,1,1
		v2c0,0.551-0.448,1-1,1h-6.453l0.906,9.955c0.003,0.031,0.006,0.074,0.005,0.117C15.448,23.583,15.022,24,14.509,24
		C14.509,24,9.477,23.999,9.474,23.999z M3,12l7,0c0.14,0,0.275,0.059,0.369,0.162c0.095,0.104,0.142,0.244,0.129,0.383
		L9.547,23.001l4.906,0l-0.951-10.455c-0.013-0.14,0.034-0.279,0.129-0.383C13.725,12.06,13.86,12,14,12h7v-2h-5.5
		c-0.193,0-0.37-0.113-0.452-0.287c-0.082-0.175-0.055-0.383,0.067-0.532c0.858-1.037,1.35-2.349,1.385-3.694
		c0.075-2.4-1.815-4.412-4.213-4.487c-0.045-0.001-0.09-0.002-0.136-0.002S12.061,0.998,12.016,1
		c-0.067-0.002-0.117-0.003-0.167-0.003c-1.111,0-2.169,0.419-2.979,1.18C8.022,2.973,7.536,4.051,7.5,5.213
		c-0.003,0.091-0.003,0.181,0,0.271c0.035,1.348,0.527,2.66,1.385,3.697C9.008,9.33,9.034,9.538,8.952,9.713
		C8.871,9.887,8.693,10,8.5,10H3L3,12z"/>
</g>
</svg>
