<?xml version="1.0" encoding="utf-8"?>
<!-- Generator: Adobe Illustrator 22.1.0, SVG Export Plug-In . SVG Version: 6.00 Build 0)  -->
<svg version="1.1" id="Layer_1" xmlns="http://www.w3.org/2000/svg" xmlns:xlink="http://www.w3.org/1999/xlink" x="0px" y="0px"
	 viewBox="0 0 24 24" style="enable-background:new 0 0 24 24;" xml:space="preserve">
<g>
	<title>religion-cross</title>
	<path d="M11,19.5c-0.551,0-1-0.448-1-1v-6H8c-0.551,0-1-0.449-1-1v-2c0-0.551,0.449-1,1-1h2v-2c0-0.551,0.449-1,1-1h2
		c0.552,0,1,0.449,1,1v2h2c0.552,0,1,0.449,1,1v2c0,0.551-0.448,1-1,1h-2v6c0,0.552-0.448,1-1,1H11z M8,11.5h2c0.551,0,1,0.449,1,1
		v6h2v-6c0-0.551,0.448-1,1-1h2v-2h-2c-0.552,0-1-0.449-1-1v-2h-2v2c0,0.551-0.449,1-1,1H8L8,11.5z"/>
	<path d="M7.5,5.5c-0.157,0-0.306-0.075-0.4-0.2l-3-4C4.02,1.193,3.986,1.061,4.005,0.929C4.024,0.797,4.093,0.68,4.2,0.6
		c0.087-0.065,0.191-0.1,0.3-0.1c0.157,0,0.306,0.075,0.4,0.2l3,4C7.98,4.807,8.013,4.938,7.995,5.07
		C7.976,5.203,7.907,5.32,7.8,5.4C7.713,5.465,7.609,5.5,7.5,5.5z"/>
	<path d="M5,10c-0.054,0-0.107-0.009-0.158-0.026l-4.5-1.5C0.215,8.432,0.112,8.343,0.052,8.223s-0.069-0.255-0.027-0.382
		C0.093,7.637,0.284,7.5,0.499,7.5c0.054,0,0.107,0.009,0.159,0.026l4.5,1.5c0.262,0.087,0.403,0.371,0.316,0.633
		C5.406,9.862,5.215,10,5,10z"/>
	<path d="M0.5,18c-0.175,0-0.339-0.093-0.429-0.243c-0.069-0.115-0.089-0.249-0.056-0.378c0.032-0.13,0.113-0.239,0.228-0.308l5-3
		C5.32,14.024,5.409,14,5.499,14c0.175,0,0.339,0.093,0.429,0.243c0.142,0.237,0.065,0.544-0.171,0.686l-5,3
		C0.679,17.975,0.59,18,0.5,18z"/>
	<path d="M4.999,23.5c-0.105,0-0.205-0.032-0.291-0.094c-0.108-0.077-0.18-0.192-0.202-0.324s0.009-0.264,0.086-0.373l2.5-3.5
		C7.186,19.078,7.338,19,7.5,19c0.105,0,0.206,0.032,0.291,0.094c0.108,0.077,0.18,0.192,0.202,0.324s-0.009,0.264-0.086,0.373
		l-2.5,3.5C5.313,23.421,5.161,23.5,4.999,23.5z"/>
	<path d="M16.499,5.5c-0.109,0-0.213-0.035-0.3-0.1c-0.106-0.08-0.176-0.197-0.195-0.329C15.986,4.938,16.019,4.806,16.1,4.7l3-4
		c0.094-0.125,0.244-0.2,0.4-0.2c0.109,0,0.213,0.035,0.3,0.1c0.107,0.08,0.176,0.197,0.195,0.329
		C20.014,1.061,19.98,1.193,19.9,1.3l-3,4C16.806,5.425,16.656,5.5,16.499,5.5z"/>
	<path d="M19,10c-0.216,0-0.406-0.137-0.474-0.342c-0.087-0.261,0.054-0.545,0.316-0.633l4.5-1.5C23.393,7.508,23.446,7.5,23.5,7.5
		c0.216,0,0.406,0.138,0.474,0.342c0.087,0.261-0.055,0.545-0.316,0.632l-4.5,1.5C19.107,9.991,19.053,10,19,10z"/>
	<path d="M23.499,18c-0.09,0-0.179-0.025-0.257-0.071l-5-3c-0.115-0.069-0.195-0.178-0.228-0.308
		c-0.032-0.129-0.012-0.264,0.056-0.378C18.161,14.093,18.325,14,18.5,14c0.091,0,0.179,0.025,0.257,0.072l5,3
		c0.236,0.142,0.313,0.449,0.171,0.686C23.839,17.907,23.674,18,23.499,18z"/>
	<path d="M19,23.5c-0.161,0-0.313-0.078-0.407-0.209l-2.5-3.5c-0.078-0.108-0.108-0.241-0.086-0.373
		c0.022-0.132,0.094-0.247,0.203-0.325C16.294,19.032,16.394,19,16.499,19c0.161,0,0.313,0.078,0.407,0.209l2.5,3.5
		c0.078,0.108,0.108,0.241,0.086,0.373s-0.094,0.247-0.203,0.325C19.205,23.468,19.105,23.5,19,23.5z"/>
</g>
</svg>
