<?xml version="1.0" encoding="utf-8"?>
<!-- Generator: Adobe Illustrator 22.1.0, SVG Export Plug-In . SVG Version: 6.00 Build 0)  -->
<svg version="1.1" id="Layer_1" xmlns="http://www.w3.org/2000/svg" xmlns:xlink="http://www.w3.org/1999/xlink" x="0px" y="0px"
	 viewBox="0 0 24 24" style="enable-background:new 0 0 24 24;" xml:space="preserve">
<g>
	<title>religion-angel</title>
	<path d="M12,6.5c-3.819,0-9.5-0.799-9.5-3s5.681-3,9.5-3c3.819,0,9.5,0.799,9.5,3S15.819,6.5,12,6.5z M12,1.5
		c-2.364,0-4.581,0.255-6.242,0.717C4.198,2.651,3.5,3.174,3.5,3.5s0.698,0.849,2.258,1.283C7.419,5.245,9.636,5.5,12,5.5
		c2.365,0,4.581-0.255,6.242-0.717C19.802,4.349,20.5,3.826,20.5,3.5s-0.698-0.849-2.258-1.283C16.581,1.755,14.365,1.5,12,1.5z"/>
	<path d="M12,23.5c-3.59,0-6.651-2.521-7.352-6.021C2.867,17.302,1.5,15.81,1.5,14c0-1.81,1.367-3.301,3.148-3.478
		c0.205-1.034,0.619-1.994,1.231-2.856c0.094-0.132,0.246-0.211,0.408-0.211c0.104,0,0.204,0.032,0.289,0.092
		C6.684,7.625,6.757,7.74,6.779,7.871c0.022,0.132-0.008,0.264-0.085,0.373c-0.662,0.933-1.061,2.019-1.163,3.16
		c1.223-0.315,2.181-1.276,2.483-2.522c0.049-0.203,0.222-0.355,0.43-0.379C8.461,8.501,8.482,8.5,8.502,8.5
		c0.186,0,0.361,0.109,0.445,0.276c0.01,0.018,1.575,2.609,9.528,2.719c-0.094-1.207-0.53-2.387-1.241-3.349
		c-0.164-0.222-0.116-0.536,0.105-0.699c0.086-0.064,0.189-0.098,0.297-0.098c0.158,0,0.308,0.076,0.402,0.203
		c0.642,0.869,1.093,1.892,1.31,2.97C21.132,10.697,22.5,12.189,22.5,14c0,1.81-1.367,3.302-3.149,3.479
		C18.651,20.979,15.59,23.5,12,23.5z M5.5,16c0,3.584,2.916,6.5,6.5,6.5c3.584,0,6.5-2.916,6.5-6.5v-3.505
		c-2.388-0.034-7.48-0.369-9.819-2.516c-0.605,1.275-1.785,2.189-3.181,2.455V16z M19.484,11.55C19.495,11.712,19.5,11.859,19.5,12
		v4c0,0.149-0.004,0.3-0.013,0.45c1.15-0.229,2.013-1.253,2.013-2.45C21.5,12.802,20.636,11.778,19.484,11.55z M4.516,11.55
		C3.364,11.778,2.5,12.802,2.5,14c0,1.197,0.863,2.221,2.013,2.45C4.505,16.3,4.5,16.15,4.5,16v-4
		C4.5,11.858,4.505,11.71,4.516,11.55z"/>
	<path d="M7.439,15.439c-0.134,0-0.259-0.052-0.354-0.146s-0.146-0.22-0.146-0.354s0.052-0.259,0.146-0.354
		C7.463,14.208,7.965,14,8.5,14c0.535,0,1.037,0.208,1.414,0.584c0.098,0.097,0.098,0.255,0,0.353l-0.353,0.354
		c-0.047,0.047-0.11,0.073-0.177,0.073c0,0,0,0,0,0c-0.066,0-0.13-0.026-0.177-0.073C9.019,15.104,8.767,15,8.5,15
		c-0.268,0-0.519,0.104-0.707,0.293C7.698,15.387,7.573,15.439,7.439,15.439z"/>
	<path d="M14.439,15.439c-0.134,0-0.259-0.052-0.354-0.146c-0.195-0.195-0.195-0.512,0-0.707C14.462,14.208,14.965,14,15.5,14
		c0.534,0,1.037,0.208,1.414,0.584c0.097,0.098,0.098,0.256,0,0.354l-0.353,0.354c-0.047,0.047-0.111,0.073-0.177,0.073h0
		c-0.066,0-0.13-0.026-0.177-0.073C16.019,15.104,15.767,15,15.5,15c-0.267,0-0.519,0.104-0.707,0.293
		C14.698,15.387,14.573,15.439,14.439,15.439z"/>
	<path d="M12,19.999c-0.802,0-1.555-0.312-2.121-0.877c-0.015-0.015-0.029-0.031-0.042-0.048c-0.067-0.085-0.104-0.194-0.104-0.306
		c0-0.276,0.224-0.5,0.5-0.5c0.134,0,0.265,0.055,0.358,0.151c0.374,0.373,0.876,0.58,1.41,0.58c0.535,0,1.037-0.208,1.414-0.585
		c0.094-0.094,0.22-0.146,0.354-0.146s0.259,0.052,0.354,0.146c0.195,0.195,0.195,0.512,0,0.707
		C13.556,19.688,12.802,19.999,12,19.999z"/>
</g>
</svg>
