<?xml version="1.0" encoding="utf-8"?>
<!-- Generator: Adobe Illustrator 22.1.0, SVG Export Plug-In . SVG Version: 6.00 Build 0)  -->
<svg version="1.1" id="Layer_1" xmlns="http://www.w3.org/2000/svg" xmlns:xlink="http://www.w3.org/1999/xlink" x="0px" y="0px"
	 viewBox="0 0 24 24" style="enable-background:new 0 0 24 24;" xml:space="preserve">
<g>
	<title>religion-angel-1</title>
	<path d="M12,10c-2.206,0-4-1.794-4-4s1.794-4,4-4s4,1.794,4,4S14.205,10,12,10z M9.154,5.059C9.051,5.363,9,5.679,9,6
		c0,1.654,1.346,3,3,3c1.576,0,2.873-1.222,2.991-2.768c-0.59,0.178-1.2,0.268-1.82,0.268c0,0-0.004,0-0.007,0
		C11.718,6.5,10.276,5.978,9.154,5.059z M9.636,4.155c0.966,0.857,2.24,1.345,3.529,1.345c0.587,0,1.166-0.099,1.728-0.293
		C14.539,3.916,13.355,3,12,3C11.073,3,10.204,3.428,9.636,4.155z"/>
	<path d="M7.5,1C7.224,1,7,0.776,7,0.5S7.224,0,7.5,0h9C16.775,0,17,0.224,17,0.5S16.775,1,16.5,1H7.5z"/>
	<path d="M6,24c-0.175,0-0.334-0.089-0.425-0.237c-0.092-0.148-0.1-0.33-0.022-0.486l0.683-1.367
		C6.409,21.564,6.5,21.178,6.5,20.792v-3.264c-0.075-0.141-0.135-0.287-0.18-0.437c-0.036,0.002-0.073,0.003-0.109,0.003
		c-0.049,0-0.097-0.002-0.146-0.005c-0.881-0.064-1.603-0.697-1.793-1.541c-0.453-0.017-0.886-0.19-1.287-0.515
		c-1.536-1.244-2.392-4.757-2.303-7.3c0.007-0.214,0.106-0.417,0.273-0.554c0.136-0.112,0.3-0.171,0.474-0.171
		c0.025,0,0.05,0.001,0.076,0.004c0.199,0.019,0.379,0.115,0.506,0.27c0.863,1.041,2.809,2.095,5.203,2.818
		c0.264,0.08,0.414,0.36,0.334,0.623C7.484,10.937,7.292,11.08,7.07,11.08c-0.049,0-0.097-0.007-0.144-0.021
		C5.805,10.72,3.214,9.824,1.681,8.385c0.061,2.196,0.804,4.957,1.933,5.871c0.244,0.197,0.483,0.293,0.731,0.293
		c0.084,0,0.172-0.011,0.261-0.033c0.039-0.01,0.08-0.015,0.121-0.015c0.117,0,0.232,0.042,0.322,0.117
		c0.122,0.103,0.188,0.259,0.177,0.418c-0.039,0.542,0.37,1.016,0.912,1.055c0.025,0.002,0.05,0.003,0.074,0.003
		c0.097,0,0.194-0.015,0.288-0.044V16c0-3.033,2.467-5.5,5.5-5.5s5.5,2.467,5.5,5.5v0.049c0.095,0.029,0.192,0.044,0.29,0.044
		c0.024,0,0.048-0.001,0.072-0.002c0.262-0.019,0.502-0.139,0.675-0.339c0.172-0.199,0.257-0.453,0.238-0.716
		c-0.012-0.159,0.054-0.316,0.177-0.419c0.09-0.076,0.204-0.117,0.321-0.117c0.042,0,0.083,0.005,0.124,0.016
		c0.086,0.021,0.174,0.032,0.258,0.032c0.249,0,0.488-0.096,0.732-0.293c1.129-0.914,1.872-3.674,1.934-5.87
		c-1.534,1.439-4.125,2.336-5.245,2.674c-0.048,0.014-0.096,0.021-0.145,0.021c-0.223,0-0.415-0.143-0.479-0.356
		c-0.039-0.127-0.025-0.262,0.038-0.38c0.063-0.118,0.168-0.204,0.296-0.242c2.395-0.723,4.34-1.778,5.204-2.821
		c0.126-0.154,0.306-0.249,0.506-0.269c0.025-0.002,0.049-0.004,0.073-0.004c0.176,0,0.34,0.059,0.476,0.171
		c0.167,0.136,0.266,0.339,0.273,0.555c0.089,2.542-0.766,6.055-2.303,7.299c-0.401,0.325-0.834,0.498-1.287,0.515
		c-0.071,0.316-0.219,0.61-0.436,0.859c-0.347,0.401-0.83,0.643-1.359,0.681c-0.048,0.004-0.097,0.006-0.146,0.006
		c-0.036,0-0.072-0.001-0.108-0.003c-0.044,0.15-0.105,0.297-0.18,0.438v3.263c0,0.386,0.091,0.772,0.264,1.117l0.684,1.367
		c0.077,0.154,0.069,0.341-0.022,0.487C18.333,23.911,18.174,24,18,24H6z M17.191,23l-0.321-0.643
		c-0.242-0.483-0.37-1.024-0.37-1.565V16c0-2.481-2.019-4.5-4.5-4.5c-2.481,0-4.5,2.019-4.5,4.5v4.792
		c0,0.54-0.128,1.082-0.37,1.565L6.809,23H17.191z"/>
</g>
</svg>
