<?xml version="1.0" encoding="utf-8"?>
<!-- Generator: Adobe Illustrator 22.1.0, SVG Export Plug-In . SVG Version: 6.00 Build 0)  -->
<svg version="1.1" id="Layer_1" xmlns="http://www.w3.org/2000/svg" xmlns:xlink="http://www.w3.org/1999/xlink" x="0px" y="0px"
	 viewBox="0 0 24 24" style="enable-background:new 0 0 24 24;" xml:space="preserve">
<g>
	<title>religion-cao-dai</title>
	<path d="M0.952,23.374c-0.161,0-0.315-0.049-0.447-0.142c-0.17-0.12-0.283-0.299-0.318-0.504c-0.033-0.194,0.01-0.397,0.118-0.561
		L11.325,1.081C11.476,0.794,11.722,0.63,12,0.63c0.278,0,0.524,0.164,0.675,0.451l11.021,21.086
		c0.104,0.156,0.147,0.345,0.122,0.532c-0.027,0.206-0.133,0.389-0.298,0.515c-0.135,0.103-0.303,0.16-0.474,0.16l0,0
		c-0.026,0-0.052-0.001-0.078-0.004H1.032C1.005,23.373,0.978,23.374,0.952,23.374z M22.674,22.37L12,1.948L1.326,22.37H22.674z"/>
	<path d="M12,18.37c-1.379,0-2.5-1.122-2.5-2.5s1.121-2.5,2.5-2.5c1.378,0,2.5,1.122,2.5,2.5S13.379,18.37,12,18.37z M12,14.37
		c-0.827,0-1.5,0.673-1.5,1.5s0.673,1.5,1.5,1.5s1.5-0.673,1.5-1.5S12.827,14.37,12,14.37z"/>
	<path d="M12,20.37c-2.833-0.029-5.495-1.555-6.948-3.984c-0.193-0.318-0.193-0.715,0.002-1.035c1.452-2.426,4.112-3.952,6.941-3.98
		c2.838,0.029,5.5,1.555,6.953,3.983c0.193,0.318,0.193,0.716-0.001,1.036c-1.452,2.427-4.112,3.953-6.942,3.982
		c-0.001,0-0.002,0-0.003,0S12.001,20.37,12,20.37z M11.998,12.37c-2.48,0.026-4.812,1.366-6.088,3.497
		c1.275,2.137,3.611,3.478,6.095,3.503c2.476-0.025,4.81-1.365,6.085-3.498C16.815,13.736,14.481,12.396,11.998,12.37z"/>
</g>
</svg>
