<?xml version="1.0" encoding="utf-8"?>
<!-- Generator: Adobe Illustrator 22.1.0, SVG Export Plug-In . SVG Version: 6.00 Build 0)  -->
<svg version="1.1" id="Layer_1" xmlns="http://www.w3.org/2000/svg" xmlns:xlink="http://www.w3.org/1999/xlink" x="0px" y="0px"
	 viewBox="0 0 24 24" style="enable-background:new 0 0 24 24;" xml:space="preserve">
<g>
	<title>religion-wicca</title>
	<path d="M7.651,24.002c-0.401,0-0.777-0.156-1.061-0.439l-6.151-6.151c-0.137-0.137-0.245-0.297-0.321-0.478
		c-0.002-0.004-0.01-0.024-0.012-0.03C0.036,16.726,0,16.54,0,16.351v-8.7C0,7.25,0.156,6.874,0.439,6.59L6.59,0.439
		C6.874,0.156,7.25,0,7.651,0h8.698c0.401,0,0.777,0.156,1.061,0.439l6.153,6.151c0.283,0.283,0.439,0.66,0.439,1.061v8.7
		c0,0.395-0.16,0.781-0.439,1.061l-6.151,6.151c-0.279,0.279-0.666,0.439-1.06,0.439H7.651z M7.984,23.002l8.032,0L14.773,20H9.227
		L7.984,23.002z M16.94,22.62l5.68-5.68l-3.002-1.243l-3.921,3.921L16.94,22.62z M7.06,22.618l1.243-3.001l-3.921-3.921
		l-3.001,1.243L7.06,22.618z M14.358,19l-1.242-3h-2.232l-1.243,3H14.358z M15.282,18.617l3.335-3.335l-3-1.243l-1.577,1.577
		L15.282,18.617z M8.718,18.617l1.243-3L8.383,14.04l-3,1.243L8.718,18.617z M23.002,16.016l0-8.032L20,9.227v5.545L23.002,16.016z
		 M1,16.015l3-1.242V9.227L1,7.985L1,16.015z M13.243,15L15,13.243v-2.486L13.243,9h-2.486L9,10.757v2.486L13.243,15z M19,14.358
		V9.641l-3,1.243v2.232L19,14.358z M5,14.358l3-1.242v-2.232L5,9.641V14.358z M15.617,9.96l3-1.243l-3.335-3.335l-1.243,3
		L15.617,9.96z M8.383,9.96L9.96,8.383l-1.243-3L5.383,8.718L8.383,9.96z M19.617,8.303l3.001-1.243l-5.68-5.677l-1.242,3
		L19.617,8.303z M4.382,8.303l3.921-3.921l-1.242-3L1.383,7.061L4.382,8.303z M13.116,8l1.242-3H9.641l1.243,3H13.116z M14.773,4
		l1.243-3L7.985,1l1.243,3H14.773z"/>
</g>
</svg>
