<?xml version="1.0" encoding="utf-8"?>
<!-- Generator: Adobe Illustrator 22.1.0, SVG Export Plug-In . SVG Version: 6.00 Build 0)  -->
<svg version="1.1" id="Layer_1" xmlns="http://www.w3.org/2000/svg" xmlns:xlink="http://www.w3.org/1999/xlink" x="0px" y="0px"
	 viewBox="0 0 24 24" style="enable-background:new 0 0 24 24;" xml:space="preserve">
<g>
	<title>religion-cao-dai-hands-2</title>
	<path d="M3.5,23.497c-0.153,0-0.295-0.068-0.391-0.188l-2.014-2.517C0.389,19.909,0,18.799,0,17.668v-5.171c0-1.103,0.897-2,2-2
		s2,0.897,2,2v2.2c0.276-0.148,0.584-0.227,0.896-0.227c0.156,0,0.312,0.019,0.464,0.058c0.492,0.123,0.907,0.431,1.168,0.866
		l1.13,1.689C8.21,17.909,8.501,18.87,8.5,19.862v3c0,0.276-0.224,0.5-0.5,0.5s-0.5-0.224-0.5-0.5v-3
		c0.001-0.794-0.232-1.562-0.673-2.222l-1.143-1.71c-0.136-0.226-0.33-0.372-0.567-0.431c-0.072-0.018-0.146-0.027-0.22-0.027
		c-0.161,0-0.321,0.044-0.462,0.128l-0.041,0.026c-0.372,0.248-0.503,0.743-0.3,1.148l1.333,2.216
		c0.142,0.236,0.066,0.544-0.171,0.686C5.18,19.723,5.091,19.747,5,19.747c-0.175,0-0.339-0.093-0.429-0.243l-1.352-2.25
		c-0.154-0.304-0.224-0.626-0.214-0.949C3.003,16.293,3,16.272,3,16.247v-3.75c0-0.551-0.449-1-1-1s-1,0.449-1,1v5.171
		c0,0.905,0.311,1.793,0.876,2.5l2.014,2.517c0.172,0.215,0.137,0.531-0.078,0.703C3.724,23.458,3.613,23.497,3.5,23.497z"/>
	<path d="M20.5,23.497c-0.113,0-0.224-0.039-0.312-0.109c-0.215-0.173-0.25-0.488-0.078-0.703l2.014-2.517
		c0.566-0.707,0.877-1.594,0.877-2.5v-5.171c0-0.551-0.448-1-1-1s-1,0.449-1,1v3.75c0,0.011-0.001,0.026-0.004,0.041
		c0.015,0.323-0.053,0.645-0.197,0.933l-1.371,2.284c-0.09,0.15-0.254,0.243-0.429,0.243c-0.09,0-0.179-0.025-0.257-0.071
		c-0.237-0.142-0.313-0.45-0.172-0.686l1.352-2.25c0.185-0.372,0.047-0.871-0.324-1.118l-0.034-0.021
		c-0.141-0.085-0.301-0.129-0.463-0.129c-0.316,0-0.612,0.167-0.774,0.437l-1.156,1.731c-0.441,0.66-0.673,1.428-0.673,2.222v3
		c0,0.276-0.224,0.5-0.5,0.5s-0.5-0.224-0.5-0.5v-3c-0.001-0.992,0.29-1.953,0.842-2.778l1.143-1.71
		c0.25-0.418,0.662-0.722,1.155-0.845c0.152-0.038,0.309-0.057,0.464-0.057c0.312,0,0.62,0.078,0.897,0.227v-2.2
		c0-1.103,0.897-2,2-2s2,0.897,2,2v5.171c0,1.132-0.389,2.241-1.095,3.125l-2.014,2.517C20.794,23.429,20.652,23.497,20.5,23.497z"
		/>
	<path d="M11.988,9.496c-1.309,0-2.609-0.337-3.759-0.973C6.95,7.814,5.899,6.764,5.191,5.484c-0.169-0.3-0.168-0.675,0.002-0.977
		C6.198,2.691,7.853,1.373,9.852,0.8c0.707-0.203,1.433-0.306,2.159-0.306c1.305,0,2.605,0.338,3.76,0.978
		C17.05,2.18,18.1,3.23,18.809,4.509c0.169,0.301,0.168,0.676-0.001,0.978C17.439,7.959,14.825,9.496,11.988,9.496z M12.01,1.494
		c-0.633,0-1.266,0.09-1.882,0.267c-1.742,0.5-3.184,1.648-4.062,3.234c0.617,1.12,1.533,2.036,2.648,2.653
		c1.002,0.555,2.135,0.848,3.275,0.848c2.474,0,4.752-1.34,5.946-3.496c-0.617-1.12-1.533-2.036-2.648-2.653
		C14.28,1.789,13.147,1.494,12.01,1.494z"/>
	<path d="M12,7.497c-1.379,0-2.5-1.121-2.5-2.5s1.121-2.5,2.5-2.5c1.378,0,2.5,1.121,2.5,2.5S13.378,7.497,12,7.497z M12,3.497
		c-0.827,0-1.5,0.673-1.5,1.5s0.673,1.5,1.5,1.5s1.5-0.673,1.5-1.5S12.827,3.497,12,3.497z"/>
</g>
</svg>
