<?xml version="1.0" encoding="utf-8"?>
<!-- Generator: Adobe Illustrator 22.1.0, SVG Export Plug-In . SVG Version: 6.00 Build 0)  -->
<svg version="1.1" id="Layer_1" xmlns="http://www.w3.org/2000/svg" xmlns:xlink="http://www.w3.org/1999/xlink" x="0px" y="0px"
	 viewBox="0 0 24 24" style="enable-background:new 0 0 24 24;" xml:space="preserve">
<g>
	<title>religion-grave</title>
	<path d="M22.5,24c-0.276,0-0.5-0.224-0.5-0.5V21c0-0.276-0.224-0.5-0.5-0.5h-19C2.224,20.5,2,20.724,2,21v2.5
		C2,23.776,1.776,24,1.5,24S1,23.776,1,23.5V21c0-0.827,0.673-1.5,1.5-1.5h3.631l1.745-5.669C8.048,13.344,8.48,13.023,8.978,13
		L10,13V7H8C7.449,7,7,6.551,7,6V4c0-0.551,0.449-1,1-1h2V1c0-0.551,0.449-1,1-1h2c0.552,0,1,0.449,1,1v2h2c0.552,0,1,0.449,1,1v2
		c0,0.551-0.448,1-1,1h-2v6h1c0.516,0.022,0.95,0.34,1.118,0.81l1.751,5.69H21.5c0.827,0,1.5,0.673,1.5,1.5v2.5
		C23,23.776,22.776,24,22.5,24z M16.823,19.5l-1.654-5.375c-0.024-0.067-0.102-0.122-0.191-0.125l-5.971,0
		c-0.08,0.006-0.154,0.064-0.183,0.146L7.177,19.5H16.823z M13,13V6.5C13,6.224,13.224,6,13.5,6H16V4h-2.5C13.224,4,13,3.776,13,3.5
		V1h-2v2.5C11,3.776,10.776,4,10.5,4H8l0,2h2.5C10.776,6,11,6.224,11,6.5V13H13z"/>
</g>
</svg>
