<?xml version="1.0" encoding="utf-8"?>
<!-- Generator: Adobe Illustrator 22.1.0, SVG Export Plug-In . SVG Version: 6.00 Build 0)  -->
<svg version="1.1" id="Layer_1" xmlns="http://www.w3.org/2000/svg" xmlns:xlink="http://www.w3.org/1999/xlink" x="0px" y="0px"
	 viewBox="0 0 24 24" style="enable-background:new 0 0 24 24;" xml:space="preserve">
<g>
	<title>religion-devil-head</title>
	<path d="M14,5.543c-0.047,0-0.095-0.007-0.141-0.021c-0.604-0.178-1.229-0.269-1.859-0.269c-0.564,0-1.127,0.073-1.672,0.217
		c-0.043,0.011-0.085,0.016-0.128,0.016l0,0c-0.227,0-0.426-0.153-0.484-0.373C9.682,4.986,9.7,4.851,9.767,4.736
		c0.067-0.115,0.175-0.198,0.305-0.232c0.629-0.166,1.277-0.25,1.927-0.25c0.725,0,1.446,0.104,2.142,0.31
		c0.264,0.078,0.416,0.357,0.338,0.621C14.417,5.396,14.219,5.543,14,5.543z"/>
	<path d="M12,23.257c-3.789,0-7.036-2.918-7.453-6.668c-1.078-0.537-2.015-1.335-2.719-2.312c-0.099-0.139-0.185-0.267-0.268-0.399
		c-0.002-0.003-0.013-0.021-0.015-0.025c-0.082-0.132-0.157-0.26-0.227-0.39c-0.01-0.018-0.045-0.089-0.045-0.089
		c-0.059-0.113-0.117-0.226-0.17-0.341c-0.015-0.031-0.028-0.064-0.041-0.096l-0.042-0.099c-0.036-0.083-0.072-0.165-0.104-0.25
		c-0.024-0.062-0.045-0.125-0.066-0.188l-0.047-0.135c-0.016-0.045-0.032-0.089-0.046-0.134c-0.038-0.121-0.07-0.245-0.101-0.369
		c0,0-0.022-0.079-0.027-0.1c-0.036-0.15-0.066-0.302-0.093-0.454c0,0-0.005-0.026-0.005-0.026c-0.027-0.162-0.05-0.325-0.066-0.49
		c-0.036-0.33,0.042-0.67,0.219-0.954C0.898,9.396,1.23,9.16,1.62,9.07c0.112-0.026,0.226-0.039,0.34-0.039
		c0.279,0,0.553,0.079,0.792,0.228l1.866,1.166c0.091-0.507,0.235-1.005,0.43-1.487C2.351,5.526,4.18,2.292,5.101,1.05
		c0.136-0.185,0.347-0.296,0.578-0.303c0,0,0.001,0,0.002,0c0.215,0,0.397,0.072,0.536,0.202c0.146,0.137,0.231,0.322,0.237,0.523
		c0.091,2.37,2.81,4.356,2.838,4.375c0.224,0.16,0.276,0.473,0.115,0.697C9.313,6.675,9.161,6.753,8.999,6.753
		c-0.105,0-0.205-0.032-0.291-0.094C8.591,6.576,6.032,4.723,5.534,2.19C3.376,5.661,5.693,8.349,6.837,9.376
		c0.205,0.184,0.222,0.501,0.038,0.706c-0.095,0.105-0.23,0.166-0.372,0.166c-0.123,0-0.242-0.045-0.334-0.128
		c-0.124-0.112-0.245-0.225-0.363-0.343C5.601,10.416,5.498,11.08,5.5,11.756v4.001c0,3.584,2.916,6.5,6.5,6.5
		c3.584,0,6.5-2.916,6.5-6.5v-4c0.001-0.677-0.102-1.341-0.306-1.98c-0.119,0.118-0.239,0.231-0.363,0.343
		c-0.092,0.082-0.21,0.128-0.334,0.128c-0.142,0-0.278-0.061-0.372-0.166c-0.089-0.099-0.134-0.227-0.127-0.361
		c0.007-0.133,0.066-0.256,0.165-0.345c1.144-1.027,3.46-3.714,1.302-7.187c-0.498,2.535-3.057,4.387-3.175,4.471
		C15.204,6.721,15.104,6.753,15,6.753c-0.161,0-0.313-0.078-0.407-0.21c-0.077-0.108-0.108-0.241-0.086-0.373
		c0.022-0.132,0.094-0.247,0.202-0.325c0.027-0.02,2.746-2.002,2.837-4.377c0.014-0.405,0.345-0.722,0.753-0.722
		c0.252,0.008,0.463,0.119,0.6,0.304c0.921,1.241,2.75,4.475,0.052,7.887c0.195,0.481,0.339,0.979,0.43,1.487l1.866-1.166
		c0.24-0.149,0.514-0.228,0.793-0.228c0.114,0,0.228,0.013,0.34,0.039c0.39,0.09,0.722,0.327,0.935,0.667
		c0.178,0.285,0.256,0.625,0.219,0.959c-0.017,0.162-0.039,0.325-0.066,0.487c-0.001,0.004-0.004,0.022-0.005,0.026
		c-0.028,0.157-0.057,0.307-0.093,0.454c-0.01,0.042-0.022,0.084-0.034,0.126l-0.036,0.13c-0.019,0.071-0.037,0.142-0.059,0.212
		c-0.026,0.085-0.056,0.167-0.086,0.25l-0.037,0.105c-0.011,0.034-0.023,0.069-0.036,0.102c-0.05,0.13-0.105,0.259-0.162,0.386
		l-0.025,0.058c-0.067,0.146-0.138,0.289-0.214,0.43c-0.724,1.341-1.866,2.447-3.228,3.127C19.035,20.339,15.789,23.257,12,23.257z
		 M19.496,11.532c0.002,0.075,0.004,0.15,0.003,0.226v3.663c0.254-0.156,0.497-0.328,0.724-0.515
		c0.005-0.004,0.011-0.009,0.017-0.013c0.216-0.181,0.408-0.363,0.587-0.554c0.003-0.004,0.007-0.008,0.011-0.011
		c0.089-0.095,0.18-0.199,0.267-0.305c0.095-0.117,0.176-0.222,0.254-0.33c0.001-0.001,0.015-0.022,0.016-0.024
		c0.073-0.103,0.146-0.211,0.216-0.322l0.225,0.111l-0.2-0.153c0.064-0.104,0.126-0.209,0.185-0.317l0.042-0.084
		c0.05-0.095,0.099-0.191,0.144-0.288c0.011-0.024,0.022-0.05,0.032-0.076l0.049-0.116c0.028-0.063,0.055-0.127,0.08-0.192
		c0.023-0.06,0.043-0.122,0.064-0.183l0.043-0.126c0.01-0.029,0.021-0.058,0.03-0.087c0.034-0.108,0.062-0.219,0.09-0.329
		l0.021-0.078c0.065-0.274,0.113-0.556,0.142-0.838c0.013-0.114-0.013-0.228-0.073-0.323c-0.071-0.113-0.181-0.192-0.311-0.222
		c-0.038-0.009-0.076-0.013-0.114-0.013c-0.092,0-0.183,0.026-0.263,0.076L19.496,11.532z M1.959,10.031
		c-0.038,0-0.076,0.004-0.114,0.013c-0.13,0.03-0.24,0.109-0.311,0.222c-0.059,0.095-0.085,0.208-0.073,0.319
		c0.015,0.144,0.034,0.286,0.058,0.425l0.017,0.085c0.02,0.111,0.041,0.222,0.068,0.331c0.007,0.03,0.016,0.06,0.024,0.089
		l0.035,0.128c0.016,0.063,0.033,0.127,0.052,0.189c0.02,0.063,0.042,0.125,0.064,0.187l0.045,0.128
		c0.009,0.027,0.018,0.055,0.028,0.081c0.04,0.104,0.084,0.206,0.129,0.307l0.033,0.078c0.055,0.12,0.114,0.236,0.175,0.351
		c0.076,0.142,0.145,0.26,0.217,0.376c0.532,0.85,1.25,1.561,2.094,2.08v-3.664c0-0.075,0.001-0.15,0.003-0.225l-2.28-1.425
		C2.143,10.057,2.052,10.031,1.959,10.031z"/>
	<path d="M15,15.253c-0.276,0-0.5-0.224-0.5-0.5v-0.885l-0.803,0.344c-0.061,0.027-0.128,0.041-0.197,0.041
		c-0.201,0-0.381-0.119-0.46-0.303c-0.052-0.122-0.054-0.258-0.004-0.382c0.05-0.124,0.145-0.221,0.267-0.274l3.5-1.5
		c0.062-0.027,0.128-0.041,0.197-0.041c0.2,0,0.381,0.119,0.46,0.303c0.053,0.123,0.054,0.259,0.005,0.383
		c-0.05,0.124-0.145,0.221-0.267,0.274L15.5,13.44v1.313C15.5,15.029,15.275,15.253,15,15.253z"/>
	<path d="M9,15.253c-0.276,0-0.5-0.224-0.5-0.5V13.44l-1.697-0.727c-0.253-0.109-0.371-0.403-0.262-0.657
		C6.619,11.872,6.799,11.753,7,11.753c0.068,0,0.135,0.014,0.198,0.041l3.5,1.5c0.123,0.053,0.218,0.15,0.267,0.274
		c0.05,0.124,0.048,0.26-0.005,0.383c-0.078,0.184-0.259,0.303-0.46,0.303c-0.069,0-0.135-0.014-0.198-0.041L9.5,13.869v0.885
		C9.5,15.029,9.275,15.253,9,15.253z"/>
	<path d="M12,20.253c-4.448,0-4.5-3.465-4.5-3.5c0-0.203,0.121-0.385,0.309-0.462c0.06-0.025,0.125-0.038,0.191-0.038
		c0.134,0,0.259,0.052,0.354,0.147c0.003,0.002,0.964,0.853,3.646,0.853c2.685,0,3.644-0.852,3.654-0.861
		c0.092-0.088,0.216-0.138,0.347-0.138c0.067,0,0.132,0.013,0.194,0.039c0.186,0.079,0.306,0.26,0.306,0.46
		C16.5,16.788,16.448,20.253,12,20.253z M8.778,17.752c0.373,0.709,1.234,1.501,3.221,1.501c2,0,2.86-0.794,3.229-1.504
		c-0.696,0.266-1.736,0.504-3.229,0.504C10.512,18.253,9.474,18.017,8.778,17.752z"/>
</g>
</svg>
