<?xml version="1.0" encoding="utf-8"?>
<!-- Generator: Adobe Illustrator 22.1.0, SVG Export Plug-In . SVG Version: 6.00 Build 0)  -->
<svg version="1.1" id="Layer_1" xmlns="http://www.w3.org/2000/svg" xmlns:xlink="http://www.w3.org/1999/xlink" x="0px" y="0px"
	 viewBox="0 0 24 24" style="enable-background:new 0 0 24 24;" xml:space="preserve">
<g>
	<title>religion-cao-dai-hand</title>
	<path d="M9.95,13.398c-0.158,0-0.31-0.048-0.439-0.138c-0.169-0.117-0.283-0.294-0.32-0.498c-0.036-0.199,0.009-0.408,0.123-0.575
		l6.008-11.093C15.475,0.813,15.722,0.651,16,0.651c0.279,0,0.526,0.161,0.679,0.442l6.072,11.093
		c0.106,0.153,0.153,0.338,0.133,0.523c-0.022,0.205-0.123,0.389-0.284,0.518c-0.137,0.109-0.308,0.17-0.483,0.17
		c-0.027,0-0.053-0.001-0.08-0.004H10.033C10.006,13.396,9.978,13.398,9.95,13.398z M21.724,12.393L16.002,1.939L10.34,12.393
		H21.724z"/>
	<path d="M12.711,23.332c-1.294,0-2.719-0.501-5.081-1.332C6.905,21.745,6.021,21.434,5,21.089v0.303c0,0.552-0.449,1-1,1H1
		c-0.551,0-1-0.448-1-1v-7c0-0.552,0.449-1,1-1h3c0.551,0,1,0.448,1,1v0.001h2.5c1.779,0.063,3.444,0.772,4.707,2h2.753
		c0.073-0.011,0.147-0.016,0.22-0.016c0.734,0,1.362,0.525,1.492,1.248c0,0.003,0.001,0.007,0.002,0.01l3.669-1.217
		c0.309-0.091,0.62-0.136,0.934-0.136c1.031,0,2.012,0.491,2.624,1.313c0.089,0.119,0.12,0.27,0.085,0.414
		c-0.034,0.144-0.13,0.265-0.262,0.332c-2.224,1.112-3.902,2.015-5.25,2.74C15.686,22.582,14.292,23.332,12.711,23.332z M5,20.034
		c1.142,0.384,2.103,0.721,2.955,1.021c2.331,0.82,3.612,1.271,4.74,1.271c1.357,0,2.59-0.664,5.293-2.119
		c1.226-0.66,2.734-1.472,4.678-2.454c-0.394-0.303-0.885-0.472-1.388-0.472c-0.216,0-0.43,0.031-0.637,0.092l-4.236,1.405
		c-0.23,0.32-0.574,0.539-0.958,0.608c-0.089,0.016-0.179,0.024-0.268,0.024c-0.074,0-0.148-0.005-0.22-0.016H9.5
		c-0.276,0-0.5-0.224-0.5-0.5s0.224-0.5,0.5-0.5H15c0.03,0,0.06,0.003,0.09,0.008c0.029,0.005,0.059,0.008,0.09,0.008
		c0.031,0,0.061-0.003,0.092-0.008c0.138-0.025,0.256-0.104,0.335-0.224c0.015-0.036,0.033-0.07,0.055-0.101
		c0.033-0.087,0.042-0.181,0.025-0.273c-0.044-0.246-0.258-0.425-0.507-0.425c-0.03,0-0.061,0.003-0.092,0.008
		C15.06,17.391,15.03,17.393,15,17.393h-3c-0.135,0-0.265-0.055-0.359-0.152c-1.1-1.135-2.575-1.791-4.154-1.848l-2.487,0V20.034z
		 M1,21.392h3v-7l-3,0L1,21.392z"/>
	<path d="M15.995,11.395c-0.695,0-1.389-0.175-2.009-0.506c-0.751-0.401-1.36-1.009-1.761-1.761c-0.079-0.147-0.079-0.323,0-0.471
		c0.745-1.396,2.194-2.264,3.782-2.264c0.696,0,1.391,0.174,2.008,0.503c0.751,0.401,1.36,1.01,1.76,1.761
		c0.079,0.147,0.079,0.323,0,0.471c-0.538,1.008-1.437,1.747-2.53,2.079C16.836,11.332,16.416,11.395,15.995,11.395z M13.246,8.893
		c0.302,0.468,0.718,0.851,1.211,1.114c0.475,0.254,1.008,0.388,1.539,0.388c0.323,0,0.645-0.048,0.958-0.144
		c0.747-0.227,1.381-0.707,1.801-1.358c-0.302-0.467-0.718-0.851-1.211-1.114c-0.473-0.252-1.005-0.386-1.538-0.386
		C14.889,7.394,13.845,7.965,13.246,8.893z"/>
	<circle cx="16" cy="8.893" r="1"/>
</g>
</svg>
