<?xml version="1.0" encoding="utf-8"?>
<!-- Generator: Adobe Illustrator 22.1.0, SVG Export Plug-In . SVG Version: 6.00 Build 0)  -->
<svg version="1.1" id="Layer_1" xmlns="http://www.w3.org/2000/svg" xmlns:xlink="http://www.w3.org/1999/xlink" x="0px" y="0px"
	 viewBox="0 0 24 24" style="enable-background:new 0 0 24 24;" xml:space="preserve">
<g>
	<title>religion-buddhism</title>
	<path d="M12,23.5c-3.046,0-5.916-1.183-8.086-3.331c-0.009-0.006-0.027-0.019-0.045-0.037c-0.01-0.01-0.023-0.026-0.034-0.042
		C1.684,17.92,0.5,15.048,0.5,12c0-3.047,1.183-5.918,3.333-8.088C3.842,3.899,3.854,3.883,3.87,3.867
		c0.01-0.01,0.027-0.023,0.042-0.034C6.082,1.684,8.953,0.5,12,0.5c3.045,0,5.916,1.182,8.085,3.331
		c0.013,0.009,0.03,0.021,0.047,0.038c0.01,0.01,0.022,0.026,0.033,0.041C22.316,6.08,23.5,8.952,23.5,12
		c0,3.046-1.184,5.918-3.333,8.088c-0.009,0.014-0.021,0.029-0.036,0.044c-0.01,0.01-0.027,0.023-0.042,0.034
		C17.918,22.316,15.047,23.5,12,23.5z M4.944,19.765c1.809,1.646,4.119,2.604,6.556,2.719v-9.277L4.944,19.765z M12.5,22.485
		c2.437-0.115,4.746-1.073,6.556-2.72L12.5,13.207V22.485z M1.515,12.5c0.115,2.438,1.074,4.748,2.722,6.558l6.556-6.558H1.515z
		 M19.763,19.058c1.647-1.81,2.606-4.121,2.721-6.558h-9.278L19.763,19.058z M22.485,11.5c-0.115-2.437-1.074-4.748-2.721-6.558
		L13.207,11.5H22.485z M10.793,11.5L4.237,4.942C2.59,6.752,1.631,9.062,1.515,11.5H10.793z M12.5,10.793l6.556-6.558
		c-1.81-1.646-4.12-2.604-6.556-2.72V10.793z M11.5,10.793V1.515c-2.437,0.115-4.746,1.074-6.556,2.72L11.5,10.793z"/>
</g>
</svg>
