<?xml version="1.0" encoding="utf-8"?>
<!-- Generator: Adobe Illustrator 22.1.0, SVG Export Plug-In . SVG Version: 6.00 Build 0)  -->
<svg version="1.1" id="Layer_1" xmlns="http://www.w3.org/2000/svg" xmlns:xlink="http://www.w3.org/1999/xlink" x="0px" y="0px"
	 viewBox="0 0 24 24" style="enable-background:new 0 0 24 24;" xml:space="preserve">
<g>
	<title>protection-mask-1</title>
	<path d="M12,24c-3.197,0-5.869-2.579-5.994-5.766c-0.235-0.324-0.467-0.639-0.694-0.946C3.535,14.882,2,12.804,2,10
		C2,4.486,6.486,0,12,0c5.514,0,10,4.486,10,10c0,2.806-1.536,4.885-3.315,7.292c-0.226,0.306-0.458,0.619-0.692,0.942
		C17.869,21.421,15.197,24,12,24z M12,13c-2.757,0-5,2.243-5,5s2.243,5,5,5c2.757,0,5-2.243,5-5S14.757,13,12,13z M12,12
		c2.85,0,5.272,1.992,5.862,4.723l0.019-0.025C19.624,14.34,21,12.477,21,10c0-4.963-4.037-9-9-9s-9,4.037-9,9
		c0,2.475,1.375,4.337,3.116,6.694l0.021,0.029C6.728,13.992,9.15,12,12,12z"/>
	<path d="M8,11c-1.654,0-3-1.346-3-3s1.346-3,3-3s3,1.346,3,3S9.654,11,8,11z M8,6C6.897,6,6,6.897,6,8s0.897,2,2,2s2-0.897,2-2
		S9.103,6,8,6z"/>
	<path d="M16,11c-1.654,0-3-1.346-3-3s1.346-3,3-3s3,1.346,3,3S17.654,11,16,11z M16,6c-1.103,0-2,0.897-2,2s0.897,2,2,2
		s2-0.897,2-2S17.103,6,16,6z"/>
	<circle cx="12" cy="14.75" r="0.75"/>
	<circle cx="12" cy="21.25" r="0.75"/>
	<circle cx="8.75" cy="18" r="0.75"/>
	<circle cx="15.25" cy="18" r="0.75"/>
	<circle cx="12" cy="18" r="0.75"/>
</g>
</svg>
