<?xml version="1.0" encoding="utf-8"?>
<!-- Generator: Adobe Illustrator 22.1.0, SVG Export Plug-In . SVG Version: 6.00 Build 0)  -->
<svg version="1.1" id="Layer_1" xmlns="http://www.w3.org/2000/svg" xmlns:xlink="http://www.w3.org/1999/xlink" x="0px" y="0px"
	 viewBox="0 0 24 24" style="enable-background:new 0 0 24 24;" xml:space="preserve">
<g>
	<title>protection-shield-star</title>
	<path d="M8.774,16c-0.411,0-0.795-0.22-1-0.575c-0.18-0.311-0.205-0.695-0.066-1.026l1.07-2.462L6.839,9.914
		C6.644,9.744,6.514,9.469,6.496,9.176C6.479,8.88,6.578,8.594,6.775,8.372C6.986,8.135,7.29,7.999,7.608,7.999L7.652,8l2.167,0
		l1.148-2.36c0.15-0.286,0.394-0.491,0.691-0.583c0.113-0.035,0.229-0.053,0.346-0.053c0.186,0,0.373,0.046,0.54,0.134
		c0.209,0.11,0.378,0.279,0.488,0.488l1.153,2.374h2.182l0.039-0.001c0.579,0,1.073,0.476,1.099,1.062
		c0.015,0.337-0.121,0.658-0.373,0.882l-1.907,1.995l1.068,2.456c0.121,0.289,0.124,0.604,0.007,0.889
		c-0.116,0.285-0.337,0.508-0.621,0.627c-0.142,0.06-0.292,0.09-0.446,0.09l0,0c-0.204,0-0.404-0.054-0.579-0.155L12,14.351
		l-2.655,1.496C9.174,15.946,8.975,16,8.774,16z M7.615,8.999c-0.04,0-0.07,0.012-0.092,0.037C7.482,9.083,7.486,9.153,7.532,9.194
		l2.198,2.291c0.14,0.146,0.178,0.36,0.098,0.545l-1.2,2.761c-0.016,0.038-0.012,0.091,0.011,0.132
		c0.027,0.047,0.079,0.076,0.134,0.076c0.027,0,0.053-0.007,0.077-0.021l2.905-1.637c0.075-0.042,0.16-0.064,0.245-0.064
		s0.171,0.022,0.246,0.065l2.902,1.634c0.028,0.016,0.056,0.023,0.084,0.023c0.021,0,0.04-0.004,0.058-0.012
		c0.078-0.033,0.115-0.123,0.083-0.202l-1.198-2.755c-0.081-0.185-0.042-0.399,0.097-0.545l2.166-2.263
		c0.063-0.058,0.068-0.094,0.067-0.117c-0.003-0.059-0.053-0.107-0.113-0.107l-2.521,0.001c-0.19,0-0.367-0.111-0.45-0.282
		l-1.28-2.637c-0.011-0.019-0.034-0.043-0.063-0.058c-0.024-0.013-0.049-0.019-0.075-0.019c-0.016,0-0.033,0.003-0.049,0.008
		c-0.042,0.013-0.075,0.04-0.095,0.079l-1.278,2.627c-0.083,0.171-0.26,0.281-0.45,0.281L7.615,8.999z"/>
	<path d="M12,23.999c-0.457,0-0.905-0.08-1.332-0.237l-1.122-0.414C4.498,21.57,1.062,16.775,1,11.417V3.774
		c0.003-0.816,0.489-1.548,1.239-1.866c3.038-1.268,6.244-1.91,9.531-1.91l0.235,0.001l0.245-0.001c3.273,0,6.473,0.642,9.508,1.909
		C22.511,2.226,22.998,2.958,23,3.773v7.639c-0.062,5.362-3.5,10.159-8.553,11.94l-1.114,0.411
		C12.905,23.92,12.457,23.999,12,23.999z M11.762,0.998c-3.148,0-6.222,0.616-9.136,1.832C2.248,2.99,2.001,3.362,2,3.776v7.635
		c0.057,4.935,3.226,9.355,7.885,10.996l1.128,0.416c0.316,0.116,0.649,0.176,0.987,0.176s0.671-0.059,0.988-0.176l1.12-0.414
		c4.665-1.643,7.835-6.065,7.892-11.005V3.774c-0.001-0.412-0.249-0.784-0.629-0.946c-2.911-1.214-5.977-1.831-9.109-1.831
		c-0.085,0-0.172,0-0.257,0.001L11.762,0.998z"/>
</g>
</svg>
