<?xml version="1.0" encoding="utf-8"?>
<!-- Generator: Adobe Illustrator 22.1.0, SVG Export Plug-In . SVG Version: 6.00 Build 0)  -->
<svg version="1.1" id="Layer_1" xmlns="http://www.w3.org/2000/svg" xmlns:xlink="http://www.w3.org/1999/xlink" x="0px" y="0px"
	 viewBox="0 0 24 24" style="enable-background:new 0 0 24 24;" xml:space="preserve">
<g>
	<title>protection-mask</title>
	<path d="M13.5,22c-0.054,0-0.107-0.009-0.158-0.026L12,21.527l-1.342,0.447C10.607,21.991,10.554,22,10.5,22
		c-0.216,0-0.406-0.137-0.474-0.342c-0.042-0.127-0.033-0.263,0.027-0.382s0.163-0.208,0.289-0.25L11.5,20.64V20
		c0-0.276,0.224-0.5,0.5-0.5c0.276,0,0.5,0.224,0.5,0.5v0.64l1.158,0.386c0.126,0.042,0.229,0.131,0.289,0.25
		s0.07,0.255,0.027,0.382C13.906,21.863,13.716,22,13.5,22z"/>
	<path d="M9,13c-1.379,0-2.5-1.121-2.5-2.5S7.621,8,9,8s2.5,1.121,2.5,2.5S10.379,13,9,13z M9,9c-0.827,0-1.5,0.673-1.5,1.5
		S8.173,12,9,12s1.5-0.673,1.5-1.5S9.827,9,9,9z"/>
	<path d="M15,13c-1.378,0-2.5-1.121-2.5-2.5S13.622,8,15,8s2.5,1.121,2.5,2.5S16.378,13,15,13z M15,9c-0.827,0-1.5,0.673-1.5,1.5
		S14.173,12,15,12s1.5-0.673,1.5-1.5S15.827,9,15,9z"/>
	<path d="M12,24c-2.481,0-4.5-1.346-4.5-3v-2.504c-1.881-1.409-3-3.641-3-5.996v-5C4.5,3.365,7.865,0,12,0s7.5,3.365,7.5,7.5v5
		c0,2.355-1.118,4.586-3,5.996V21C16.5,22.654,14.481,24,12,24z M12,19c-1.897,0-3.5,0.916-3.5,2s1.603,2,3.5,2s3.5-0.916,3.5-2
		S13.897,19,12,19z M12,18c1.374,0,2.656,0.415,3.5,1.111V19c0-1.084-1.603-2-3.5-2s-3.5,0.916-3.5,2v0.111
		C9.344,18.416,10.626,18,12,18z M15.5,17.111c0.191,0.157,0.357,0.327,0.497,0.508c1.573-1.225,2.504-3.12,2.503-5.119v-5
		C18.5,3.916,15.584,1,12,1C8.416,1,5.5,3.916,5.5,7.5v5c0,1.999,0.931,3.894,2.503,5.119c0.14-0.18,0.306-0.35,0.497-0.508V15.5
		C8.5,15.224,8.724,15,9,15s0.5,0.224,0.5,0.5v1.004C10.237,16.177,11.109,16,12,16s1.763,0.177,2.5,0.504V15.5
		c0-0.276,0.224-0.5,0.5-0.5s0.5,0.224,0.5,0.5V17.111z"/>
</g>
</svg>
