<?xml version="1.0" encoding="utf-8"?>
<!-- Generator: Adobe Illustrator 22.1.0, SVG Export Plug-In . SVG Version: 6.00 Build 0)  -->
<svg version="1.1" id="Layer_1" xmlns="http://www.w3.org/2000/svg" xmlns:xlink="http://www.w3.org/1999/xlink" x="0px" y="0px"
	 viewBox="0 0 24 24" style="enable-background:new 0 0 24 24;" xml:space="preserve">
<g>
	<title>protection-shield-knight</title>
	<path d="M12,23.999c-0.457,0-0.905-0.08-1.332-0.237l-1.122-0.414C4.498,21.57,1.062,16.775,1,11.417V3.774
		c0.003-0.816,0.489-1.548,1.239-1.866c3.038-1.268,6.244-1.91,9.531-1.91l0.235,0.001l0.245-0.001c3.273,0,6.473,0.642,9.508,1.909
		C22.511,2.226,22.998,2.958,23,3.773v7.639c-0.062,5.362-3.5,10.159-8.553,11.94l-1.114,0.411
		C12.905,23.92,12.457,23.999,12,23.999z M11.762,0.998c-3.148,0-6.222,0.616-9.136,1.832C2.248,2.99,2.001,3.362,2,3.776v7.635
		c0.057,4.935,3.226,9.355,7.885,10.996l1.128,0.416c0.316,0.116,0.649,0.176,0.987,0.176s0.671-0.059,0.988-0.176l1.12-0.414
		c4.665-1.643,7.835-6.065,7.892-11.005V3.774c-0.001-0.412-0.249-0.784-0.629-0.946c-2.911-1.214-5.977-1.831-9.109-1.831
		c-0.085,0-0.172,0-0.257,0.001L11.762,0.998z"/>
	<path d="M9.754,16.999c-0.128,0-0.252-0.024-0.37-0.071c-0.512-0.204-0.762-0.787-0.558-1.299c0.373-0.922,0.673-1.877,0.893-2.848
		c-0.971,0.22-1.926,0.519-2.845,0.891c-0.119,0.047-0.243,0.072-0.37,0.072c-0.269,0-0.52-0.104-0.709-0.292
		C5.604,13.264,5.5,13.013,5.5,12.746V8.253c0-0.128,0.024-0.252,0.071-0.37C5.67,7.635,5.859,7.441,6.105,7.335
		C6.231,7.281,6.364,7.253,6.5,7.253c0.127,0,0.251,0.024,0.37,0.072c0.922,0.373,1.878,0.673,2.848,0.893
		c-0.22-0.97-0.519-1.926-0.891-2.845c-0.048-0.12-0.072-0.244-0.072-0.371c0-0.552,0.448-1.001,0.999-1.002h4.493
		c0.128,0,0.252,0.024,0.369,0.071c0.249,0.099,0.443,0.289,0.549,0.534c0.106,0.245,0.109,0.517,0.01,0.765
		c-0.373,0.921-0.673,1.877-0.893,2.848c0.97-0.22,1.926-0.519,2.846-0.891c0.12-0.048,0.244-0.072,0.371-0.072
		c0.553,0,1.001,0.448,1.002,0.999v4.492c0,0.126-0.024,0.25-0.071,0.368c-0.099,0.249-0.289,0.444-0.534,0.55
		c-0.126,0.054-0.259,0.082-0.395,0.082l0,0c-0.127,0-0.252-0.024-0.371-0.072c-0.92-0.373-1.876-0.672-2.848-0.892
		c0.22,0.971,0.52,1.927,0.892,2.845c0.047,0.119,0.072,0.243,0.072,0.37c0,0.269-0.104,0.52-0.292,0.709
		c-0.188,0.189-0.439,0.293-0.707,0.294H9.754z M10.36,11.639c0.132,0,0.261,0.053,0.354,0.147c0.116,0.116,0.168,0.282,0.138,0.444
		c-0.237,1.289-0.606,2.558-1.098,3.772l4.493-0.002c-0.491-1.211-0.861-2.48-1.098-3.769c-0.03-0.162,0.022-0.328,0.138-0.444
		c0.094-0.094,0.219-0.147,0.353-0.147c0.031,0,0.062,0.003,0.093,0.009c1.287,0.237,2.556,0.606,3.771,1.098L17.5,8.253
		c-1.213,0.492-2.482,0.861-3.77,1.098c-0.03,0.006-0.06,0.008-0.091,0.008c-0.132,0-0.26-0.053-0.354-0.147
		c-0.116-0.116-0.168-0.282-0.138-0.444c0.237-1.289,0.607-2.559,1.098-3.772L9.754,4.999c0.491,1.212,0.861,2.481,1.098,3.77
		c0.03,0.161-0.022,0.328-0.138,0.444c-0.093,0.093-0.221,0.147-0.353,0.147c-0.031,0-0.062-0.003-0.093-0.009
		c-1.287-0.237-2.556-0.606-3.77-1.098L6.5,12.745c1.212-0.491,2.481-0.861,3.77-1.098C10.299,11.642,10.33,11.639,10.36,11.639z"/>
</g>
</svg>
