<?xml version="1.0" encoding="utf-8"?>
<!-- Generator: Adobe Illustrator 22.1.0, SVG Export Plug-In . SVG Version: 6.00 Build 0)  -->
<svg version="1.1" id="Layer_1" xmlns="http://www.w3.org/2000/svg" xmlns:xlink="http://www.w3.org/1999/xlink" x="0px" y="0px"
	 viewBox="0 0 24 24" style="enable-background:new 0 0 24 24;" xml:space="preserve">
<g>
	<title>protection-sand-bag-1</title>
	<path d="M21.5,15.25c-0.276,0-0.5-0.224-0.5-0.5v-3c0-1.93-1.57-3.5-3.5-3.5h-11c-1.93,0-3.5,1.57-3.5,3.5v3
		c0,0.276-0.224,0.5-0.5,0.5S2,15.026,2,14.75v-3c0-2.481,2.019-4.5,4.5-4.5h5v-6c0-0.276,0.224-0.5,0.5-0.5h5
		c0.156,0,0.304,0.074,0.398,0.198c0.094,0.123,0.125,0.286,0.084,0.435l-0.825,3c-0.059,0.216-0.258,0.367-0.482,0.367H12.5v2.5h5
		c2.481,0,4.5,2.019,4.5,4.5v3C22,15.026,21.776,15.25,21.5,15.25z M15.794,3.75l0.55-2H12.5v2H15.794z"/>
	<path d="M19,23.25c-0.575,0-1.123-0.255-1.5-0.682c-0.377,0.427-0.925,0.682-1.5,0.682h-2.5c-0.575,0-1.123-0.255-1.5-0.682
		c-0.377,0.427-0.925,0.682-1.5,0.682H8c-0.575,0-1.123-0.255-1.5-0.682C6.123,22.995,5.575,23.25,5,23.25H2c-1.103,0-2-0.897-2-2
		c0-0.575,0.255-1.123,0.682-1.5C0.255,19.373,0,18.825,0,18.25c0-1.103,0.897-2,2-2h3c1.103,0,2,0.897,2,2
		c0,0.575-0.255,1.123-0.682,1.5c0.064,0.057,0.125,0.117,0.182,0.182C6.877,19.505,7.425,19.25,8,19.25h2.5
		c0.575,0,1.123,0.255,1.5,0.682c0.377-0.427,0.925-0.682,1.5-0.682H16c0.575,0,1.123,0.255,1.5,0.682
		c0.057-0.064,0.117-0.125,0.182-0.182C17.255,19.373,17,18.825,17,18.25c0-1.103,0.897-2,2-2h3c1.103,0,2,0.897,2,2
		c0,0.575-0.255,1.123-0.682,1.5C23.745,20.127,24,20.675,24,21.25c0,1.103-0.897,2-2,2H19z M19,20.25c-0.552,0-1,0.448-1,1
		s0.448,1,1,1h3c0.552,0,1-0.448,1-1s-0.448-1-1-1H19z M13.5,20.25c-0.552,0-1,0.448-1,1s0.448,1,1,1H16c0.552,0,1-0.448,1-1
		s-0.448-1-1-1H13.5z M8,20.25c-0.551,0-1,0.448-1,1s0.449,1,1,1h2.5c0.551,0,1-0.448,1-1s-0.449-1-1-1H8z M2,20.25
		c-0.551,0-1,0.448-1,1s0.449,1,1,1h3c0.551,0,1-0.448,1-1s-0.449-1-1-1H2z M19,17.25c-0.552,0-1,0.448-1,1s0.448,1,1,1h3
		c0.552,0,1-0.448,1-1s-0.448-1-1-1H19z M2,17.25c-0.551,0-1,0.448-1,1s0.449,1,1,1h3c0.551,0,1-0.448,1-1s-0.449-1-1-1H2z"/>
	<path d="M5.5,13.25c-0.276,0-0.5-0.224-0.5-0.5s0.224-0.5,0.5-0.5h13c0.276,0,0.5,0.224,0.5,0.5s-0.224,0.5-0.5,0.5H5.5z"/>
</g>
</svg>
