<?xml version="1.0" encoding="utf-8"?>
<!-- Generator: Adobe Illustrator 22.1.0, SVG Export Plug-In . SVG Version: 6.00 Build 0)  -->
<svg version="1.1" id="Layer_1" xmlns="http://www.w3.org/2000/svg" xmlns:xlink="http://www.w3.org/1999/xlink" x="0px" y="0px"
	 viewBox="0 0 24 24" style="enable-background:new 0 0 24 24;" xml:space="preserve">
<g>
	<title>protection-vest</title>
	<path d="M3.7,24.002c-0.459,0-0.858-0.311-0.97-0.756l-0.653-2.584c0,0-0.004-0.016-0.005-0.023L0.03,12.563
		c-0.123-0.485,0.135-0.99,0.6-1.175C4.504,9.8,3.993,6.499,3.066,2.968C2.868,2.205,3.299,1.414,4.047,1.167l3.449-1.139
		C7.51,0.023,7.527,0.019,7.545,0.017C7.562,0.011,7.58,0.007,7.594,0.006c0.01-0.001,0.025-0.002,0.034-0.002
		c0.018,0,0.036,0.002,0.054,0.005c0.002,0,0.004,0,0.006,0c0.013,0,0.038,0.002,0.063,0.007c0.041,0.008,0.074,0.021,0.1,0.033
		c0.018,0.005,0.045,0.015,0.073,0.034C7.937,0.091,7.95,0.101,7.961,0.112c0.036,0.029,0.064,0.063,0.085,0.089
		c0-0.001,0-0.001,0-0.001c0.001,0,0.02,0.02,0.037,0.049c0.035,0.059,0.058,0.125,0.066,0.193c0.158,1.561,2.108,2.266,3.854,2.267
		c1.744,0,3.691-0.705,3.846-2.252c0.01-0.079,0.032-0.144,0.067-0.204c0.008-0.014,0.022-0.033,0.035-0.047
		c0.025-0.034,0.055-0.065,0.088-0.091c0.011-0.01,0.024-0.02,0.036-0.028c0.016-0.01,0.039-0.021,0.06-0.028
		c0.027-0.013,0.066-0.029,0.115-0.039c0.025-0.005,0.052-0.007,0.08-0.008c0.005-0.001,0.023-0.003,0.04-0.003
		c0.01,0,0.027,0.001,0.038,0.002c0.013,0.002,0.031,0.006,0.048,0.011c0.016,0.002,0.033,0.006,0.046,0.01l3.447,1.128
		c0.749,0.246,1.182,1.036,0.985,1.8c-0.928,3.535-1.44,6.839,2.44,8.429c0.463,0.185,0.72,0.69,0.596,1.175l-2.696,10.683
		c-0.112,0.445-0.511,0.755-0.97,0.755H3.7z M3.699,23.002l16.605,0l0.505-2H15.5c-1.378,0-2.5-1.122-2.5-2.5v-2
		c0-1.378,1.122-2.5,2.5-2.5h7.076l0.425-1.685c-4.631-1.898-3.994-5.955-3.034-9.609c0.065-0.253-0.079-0.516-0.329-0.598
		l-2.877-0.942c-0.667,4.465-2.479,7.224-4.762,7.224c-2.283,0-4.094-2.761-4.76-7.228L4.36,2.116
		c-0.249,0.082-0.392,0.346-0.327,0.6c0.958,3.651,1.594,7.705-3.029,9.599l0.421,1.687H8.5c1.379,0,2.5,1.122,2.5,2.5v2
		c0,1.378-1.121,2.5-2.5,2.5H3.194L3.699,23.002z M15.5,15.002c-0.827,0-1.5,0.673-1.5,1.5v2c0,0.827,0.673,1.5,1.5,1.5h5.562
		l0.505-2H18.5c-0.276,0-0.5-0.224-0.5-0.5s0.224-0.5,0.5-0.5h3.319l0.505-2H15.5z M8.5,20.002c0.827,0,1.5-0.673,1.5-1.5v-2
		c0-0.827-0.673-1.5-1.5-1.5H1.678l0.505,2H5.5c0.276,0,0.5,0.224,0.5,0.5s-0.224,0.5-0.5,0.5H2.436l0.505,2H8.5z M8.587,2.784
		c0.608,2.342,1.771,4.609,3.411,4.609c1.641,0,2.804-2.265,3.413-4.606c-0.88,0.585-2.1,0.922-3.408,0.922
		C10.692,3.709,9.47,3.371,8.587,2.784z"/>
	<path d="M6.5,13.002c-0.827,0-1.5-0.673-1.5-1.5v-1c0-0.827,0.673-1.5,1.5-1.5h2c0.827,0,1.5,0.673,1.5,1.5v1
		c0,0.827-0.673,1.5-1.5,1.5H6.5z M6.5,10.002c-0.276,0-0.5,0.224-0.5,0.5v1c0,0.276,0.224,0.5,0.5,0.5h2c0.276,0,0.5-0.224,0.5-0.5
		v-1c0-0.276-0.224-0.5-0.5-0.5H6.5z"/>
	<path d="M15.5,13.002c-0.827,0-1.5-0.673-1.5-1.5v-1c0-0.827,0.673-1.5,1.5-1.5h2c0.827,0,1.5,0.673,1.5,1.5v1
		c0,0.827-0.673,1.5-1.5,1.5H15.5z M15.5,10.002c-0.276,0-0.5,0.224-0.5,0.5v1c0,0.276,0.224,0.5,0.5,0.5h2
		c0.276,0,0.5-0.224,0.5-0.5v-1c0-0.276-0.224-0.5-0.5-0.5H15.5z"/>
</g>
</svg>
