<?xml version="1.0" encoding="utf-8"?>
<!-- Generator: Adobe Illustrator 22.1.0, SVG Export Plug-In . SVG Version: 6.00 Build 0)  -->
<svg version="1.1" id="Layer_1" xmlns="http://www.w3.org/2000/svg" xmlns:xlink="http://www.w3.org/1999/xlink" x="0px" y="0px"
	 viewBox="0 0 24 24" style="enable-background:new 0 0 24 24;" xml:space="preserve">
<g>
	<title>protection-shield-1</title>
	<path d="M12,20c-0.328,0-0.651-0.059-0.958-0.174l-0.794-0.286c-2.485-0.822-4.498-2.688-5.527-5.122
		c-0.083-0.09-0.13-0.208-0.131-0.332C4.223,13.119,4.025,12.115,4,11.104l0-5.326c0.006-0.639,0.391-1.204,0.98-1.442
		c2.207-0.887,4.523-1.337,6.883-1.337l0.209,0c1.323,0,2.656,0.143,3.96,0.425l0.029,0.007c1.038,0.226,2.026,0.529,2.959,0.904
		c0.405,0.163,0.725,0.493,0.878,0.904c0.003,0.006,0.012,0.028,0.019,0.051C19.969,5.442,19.998,5.607,20,5.772v5.319
		c-0.096,3.853-2.612,7.247-6.262,8.454l-0.787,0.284C12.648,19.942,12.328,20,12,20z M11.386,18.888C11.586,18.963,11.791,19,12,19
		c0.208,0,0.411-0.037,0.606-0.11l0.806-0.29c3.195-1.056,5.414-3.98,5.581-7.318l-7.998,7.465L11.386,18.888z M7.784,16.993
		c0.649,0.569,1.376,1.026,2.165,1.362L19,9.907V6.525L7.784,16.993z M5.706,14.183c0.343,0.767,0.802,1.474,1.367,2.106
		L18.793,5.35c-0.044-0.036-0.093-0.066-0.147-0.087c-0.807-0.325-1.657-0.593-2.529-0.797L5.706,14.183z M5,11.091
		c0.017,0.701,0.128,1.399,0.328,2.077l9.584-8.945c-0.922-0.149-1.861-0.224-2.798-0.224h-0.224c-0.107,0-0.214,0.003-0.321,0.007
		L11.52,4.007L5,10.091V11.091z M9.943,4.111c-1.579,0.175-3.12,0.561-4.589,1.152C5.141,5.349,5.002,5.553,5,5.782v2.942
		L9.943,4.111z"/>
	<path d="M12,23.999c-0.457,0-0.905-0.08-1.332-0.237l-1.122-0.414C4.498,21.57,1.062,16.775,1,11.417V3.774
		c0.003-0.816,0.489-1.548,1.239-1.866c3.038-1.268,6.244-1.91,9.531-1.91l0.235,0.001l0.245-0.001c3.273,0,6.473,0.642,9.508,1.909
		C22.511,2.226,22.998,2.958,23,3.773v7.639c-0.062,5.362-3.5,10.159-8.553,11.94l-1.114,0.411
		C12.905,23.92,12.457,23.999,12,23.999z M11.762,0.998c-3.148,0-6.222,0.616-9.136,1.832C2.248,2.99,2.001,3.362,2,3.776v7.635
		c0.057,4.935,3.226,9.355,7.885,10.996l1.128,0.416c0.316,0.116,0.649,0.176,0.987,0.176s0.671-0.059,0.988-0.176l1.12-0.414
		c4.665-1.643,7.835-6.065,7.892-11.005V3.774c-0.001-0.412-0.249-0.784-0.629-0.946c-2.911-1.214-5.977-1.831-9.109-1.831
		c-0.085,0-0.172,0-0.257,0.001L11.762,0.998z"/>
</g>
</svg>
