<?xml version="1.0" encoding="utf-8"?>
<!-- Generator: Adobe Illustrator 22.1.0, SVG Export Plug-In . SVG Version: 6.00 Build 0)  -->
<svg version="1.1" id="Layer_1" xmlns="http://www.w3.org/2000/svg" xmlns:xlink="http://www.w3.org/1999/xlink" x="0px" y="0px"
	 viewBox="0 0 24 24" style="enable-background:new 0 0 24 24;" xml:space="preserve">
<g>
	<title>protection-shield-4</title>
	<path d="M12.002,24.003c-0.424,0-0.841-0.082-1.238-0.242l-1.067-0.411C4.794,21.464,1.5,16.667,1.5,11.414V3.777
		c-0.004-0.799,0.464-1.529,1.193-1.86c2.913-1.271,5.986-1.915,9.139-1.915l0.345,0c3.149,0,6.22,0.644,9.128,1.913
		c0.734,0.336,1.2,1.068,1.195,1.867v7.634c0,5.253-3.293,10.049-8.195,11.936l-1.074,0.414
		C12.84,23.921,12.426,24.003,12.002,24.003z M11.861,1.001C8.828,1.001,5.88,1.617,3.1,2.83C2.735,2.996,2.498,3.367,2.5,3.774
		v7.64c0,4.843,3.036,9.264,7.556,11.002l1.075,0.415c0.283,0.114,0.575,0.171,0.871,0.171c0.295,0,0.585-0.057,0.861-0.168
		l1.082-0.417c4.519-1.739,7.555-6.16,7.555-11.003V3.777c0.003-0.408-0.233-0.78-0.602-0.95c-2.775-1.211-5.707-1.826-8.71-1.826
		L11.861,1.001z"/>
	<path d="M12.001,20.002c-0.315,0-0.624-0.061-0.918-0.18l-0.74-0.285c-3.476-1.328-5.824-4.72-5.843-8.443V5.779
		C4.496,5.166,4.855,4.603,5.415,4.347C6.079,4.06,6.782,3.812,7.509,3.608c0.028-0.01,0.051-0.016,0.067-0.019
		c1.408-0.389,2.86-0.587,4.312-0.587h0.231c2.226,0,4.398,0.451,6.456,1.341c0.569,0.26,0.929,0.824,0.925,1.439v5.31
		c-0.006,1.231-0.267,2.439-0.776,3.592c-0.014,0.093-0.053,0.179-0.113,0.249c-0.536,1.124-1.313,2.149-2.252,2.969
		c-0.008,0.012-0.021,0.029-0.038,0.047c-0.033,0.033-0.071,0.061-0.115,0.084c-0.776,0.648-1.634,1.155-2.551,1.505l-0.746,0.287
		C12.622,19.942,12.315,20.002,12.001,20.002z M5.5,11.092c0.017,3.31,2.107,6.33,5.201,7.512l0.749,0.289
		c0.18,0.073,0.365,0.109,0.551,0.109c0.185,0,0.367-0.036,0.541-0.106l0.755-0.291c0.683-0.261,1.326-0.615,1.917-1.056L5.5,7.834
		V11.092z M15.98,16.899c0.667-0.638,1.216-1.377,1.636-2.201L7.553,4.636C6.948,4.815,6.366,5.025,5.822,5.261
		C5.627,5.35,5.499,5.553,5.5,5.776V6.42L15.98,16.899z M18.042,13.711c0.3-0.847,0.454-1.727,0.458-2.621V5.779
		c0.001-0.224-0.128-0.429-0.33-0.522c-1.926-0.833-3.956-1.256-6.026-1.256l-0.237,0c-1.082,0-2.167,0.116-3.229,0.346
		L18.042,13.711z"/>
</g>
</svg>
