<?xml version="1.0" encoding="utf-8"?>
<!-- Generator: Adobe Illustrator 22.1.0, SVG Export Plug-In . SVG Version: 6.00 Build 0)  -->
<svg version="1.1" id="Layer_1" xmlns="http://www.w3.org/2000/svg" xmlns:xlink="http://www.w3.org/1999/xlink" x="0px" y="0px"
	 viewBox="0 0 24 24" style="enable-background:new 0 0 24 24;" xml:space="preserve">
<g>
	<title>death-rip</title>
	<path d="M20.5,18.484c-0.276,0-0.5-0.224-0.5-0.5V5.479c0-1.684-1.298-2.71-2.386-3.275C16.142,1.441,14.148,1.021,12,1.021
		c-5.497,0-8,2.311-8,4.458v12.505c0,0.276-0.224,0.5-0.5,0.5S3,18.26,3,17.984V5.479c0-1.731,1.012-3.17,2.926-4.163
		C7.537,0.481,9.694,0.021,12,0.021c4.335,0,9,1.708,9,5.458v12.505C21,18.26,20.776,18.484,20.5,18.484z"/>
	<path d="M22.5,23.979c-0.275,0-0.5-0.224-0.5-0.499c-0.002-1.101-0.899-1.997-2-1.997c-0.148,0-0.293,0.016-0.435,0.048
		c-0.035,0.008-0.072,0.012-0.109,0.012c-0.104,0-0.203-0.032-0.288-0.092c-0.115-0.081-0.191-0.208-0.208-0.348
		c-0.095-0.789-0.491-1.494-1.116-1.985c-0.53-0.416-1.162-0.635-1.829-0.635c-0.12,0-0.243,0.007-0.363,0.022
		c-0.114,0.013-0.226,0.033-0.334,0.06c-0.039,0.009-0.078,0.014-0.117,0.014c-0.198,0-0.378-0.118-0.458-0.301
		c-0.476-1.093-1.555-1.799-2.75-1.799c-0.411,0-0.812,0.084-1.192,0.25c-0.696,0.303-1.246,0.853-1.549,1.549
		c-0.08,0.183-0.259,0.3-0.458,0.3c-0.039,0-0.079-0.005-0.117-0.014c-0.224-0.053-0.454-0.08-0.684-0.08
		c-1.386,0-2.577,0.942-2.897,2.29c-0.025,0.107-0.045,0.218-0.059,0.329c-0.017,0.139-0.092,0.266-0.207,0.348
		c-0.086,0.06-0.186,0.092-0.29,0.092c-0.036,0-0.072-0.004-0.107-0.012c-0.143-0.032-0.288-0.048-0.433-0.048
		c-0.93,0-1.751,0.659-1.952,1.568C2.016,23.192,2,23.336,2,23.48c0,0.275-0.225,0.499-0.5,0.499c-0.134,0-0.26-0.052-0.354-0.147
		C1.052,23.737,1,23.611,1,23.478c0-0.215,0.024-0.431,0.071-0.642c0.302-1.363,1.533-2.353,2.928-2.353
		c0.046,0,0.091,0.001,0.137,0.003c0.447-1.771,2.023-3.003,3.854-3.003c0.174,0,0.349,0.011,0.522,0.035
		c0.424-0.756,1.089-1.359,1.888-1.707c0.506-0.22,1.041-0.332,1.59-0.332c1.44,0,2.789,0.794,3.489,2.039
		c0.017-0.002,0.033-0.005,0.05-0.007c0.159-0.019,0.319-0.029,0.478-0.029c1.826,0,3.411,1.25,3.853,3.002
		c0.035-0.002,0.068-0.002,0.1-0.002l0.046,0c1.645,0,2.991,1.344,2.993,2.995c0,0.134-0.052,0.259-0.146,0.354
		C22.76,23.926,22.635,23.979,22.5,23.979C22.501,23.979,22.501,23.979,22.5,23.979z"/>
	<path d="M11.5,11.984c-0.276,0-0.5-0.224-0.5-0.5s0.224-0.5,0.5-0.5H12v-5h-0.5c-0.276,0-0.5-0.224-0.5-0.5s0.224-0.5,0.5-0.5h2
		c0.276,0,0.5,0.224,0.5,0.5s-0.224,0.5-0.5,0.5H13v5h0.5c0.276,0,0.5,0.224,0.5,0.5s-0.224,0.5-0.5,0.5H11.5z"/>
	<path d="M15.5,11.984c-0.276,0-0.5-0.224-0.5-0.5v-6c0-0.276,0.224-0.5,0.5-0.5H17c1.103,0,2,0.897,2,2s-0.897,2-2,2h-1v2.5
		C16,11.76,15.776,11.984,15.5,11.984z M17,7.984c0.552,0,1-0.449,1-1s-0.448-1-1-1h-1v2H17z"/>
	<path d="M9.5,11.984c-0.134,0-0.259-0.052-0.354-0.146L7,9.691v1.793c0,0.276-0.224,0.5-0.5,0.5S6,11.76,6,11.484v-6
		c0-0.276,0.224-0.5,0.5-0.5H8c1.103,0,2,0.897,2,2s-0.897,2-2,2H7.707l2.146,2.146C9.948,11.225,10,11.35,10,11.484
		s-0.052,0.259-0.146,0.354S9.634,11.984,9.5,11.984z M8,7.984c0.551,0,1-0.449,1-1s-0.449-1-1-1H7v2H8z"/>
</g>
</svg>
