<?xml version="1.0" encoding="utf-8"?>
<!-- Generator: Adobe Illustrator 22.1.0, SVG Export Plug-In . SVG Version: 6.00 Build 0)  -->
<svg version="1.1" id="Layer_1" xmlns="http://www.w3.org/2000/svg" xmlns:xlink="http://www.w3.org/1999/xlink" x="0px" y="0px"
	 viewBox="0 0 24 24" style="enable-background:new 0 0 24 24;" xml:space="preserve">
<g>
	<title>death-coffin-1</title>
	<path d="M7.89,24c-0.46,0-0.859-0.312-0.97-0.758l-3.849-15.4C3,7.558,3.057,7.257,3.227,7.018l4.716-6.6
		C8.131,0.156,8.435,0,8.757,0h6.486c0.322,0,0.626,0.156,0.814,0.418l4.716,6.6c0.171,0.239,0.228,0.54,0.156,0.825L17.08,23.242
		C16.969,23.688,16.57,24,16.11,24H7.89z M8.757,1L4.041,7.6L7.89,23h8.22l3.849-15.4L15.243,1L8.757,1l0-0.25
		C8.757,0.75,8.757,1,8.757,1z"/>
	<path d="M12,19c-0.276,0-0.5-0.224-0.5-0.5V9H8C7.724,9,7.5,8.776,7.5,8.5S7.724,8,8,8h3.5V4.5C11.5,4.224,11.724,4,12,4
		c0.276,0,0.5,0.224,0.5,0.5V8H16c0.276,0,0.5,0.224,0.5,0.5S16.276,9,16,9h-3.5v9.5C12.5,18.776,12.276,19,12,19z"/>
</g>
</svg>
