<?xml version="1.0" encoding="utf-8"?>
<!-- Generator: Adobe Illustrator 22.1.0, SVG Export Plug-In . SVG Version: 6.00 Build 0)  -->
<svg version="1.1" id="Layer_1" xmlns="http://www.w3.org/2000/svg" xmlns:xlink="http://www.w3.org/1999/xlink" x="0px" y="0px"
	 viewBox="0 0 24 24" style="enable-background:new 0 0 24 24;" xml:space="preserve">
<g>
	<title>death-noose</title>
	<path d="M11.979,24c-1.544,0-2.988-0.44-4.066-1.238C6.662,21.835,6,20.51,6,18.93c0-2.286,1.936-4.603,3.685-6.23
		C9.496,12.599,9.33,12.457,9.2,12.283c-0.24-0.32-0.342-0.715-0.285-1.112c0.057-0.397,0.264-0.747,0.585-0.988l0.073-0.055
		C9.43,10.035,9.304,9.918,9.2,9.779C8.96,9.459,8.858,9.064,8.915,8.667C8.972,8.27,9.18,7.92,9.5,7.679l0.073-0.055
		c-0.143-0.094-0.269-0.211-0.373-0.35c-0.24-0.321-0.341-0.716-0.284-1.112C8.972,5.766,9.18,5.415,9.5,5.175l2-1.505V0.5
		C11.5,0.225,11.724,0,12,0c0.276,0,0.5,0.224,0.5,0.5v2.417l0.168-0.126c0.01-0.009,0.021-0.018,0.032-0.026
		c0.261-0.196,0.572-0.299,0.898-0.299c0.471,0,0.92,0.224,1.201,0.599c0.24,0.32,0.341,0.715,0.285,1.112
		C15.028,4.574,14.82,4.925,14.5,5.165L14.427,5.22c0.144,0.093,0.27,0.211,0.373,0.349c0.496,0.662,0.361,1.604-0.301,2.1
		l-0.073,0.055c0.143,0.093,0.269,0.211,0.373,0.349c0.241,0.321,0.342,0.716,0.285,1.112s-0.264,0.748-0.585,0.988l-1.669,1.257
		C14.332,12.605,18,15.798,18,18.93C18,22.259,14.971,24,11.979,24z M11.932,12.107C10.777,13.003,7,16.148,7,18.93
		C7,21.727,9.581,23,11.979,23c3.45,0,5.021-2.11,5.021-4.07c0-2.83-3.881-6.016-4.999-6.875L11.932,12.107z M13.302,8.575
		l-3.202,2.408c-0.107,0.08-0.177,0.197-0.196,0.33C9.886,11.445,9.92,11.576,10,11.683c0.095,0.127,0.241,0.2,0.401,0.2
		c0.109,0,0.212-0.034,0.299-0.099l0.503-0.379c0.272-0.213,0.457-0.346,0.502-0.378l2.194-1.653
		c0.108-0.081,0.177-0.198,0.196-0.33C14.114,8.912,14.08,8.78,14,8.673c-0.08-0.107-0.197-0.176-0.329-0.195
		c-0.024-0.003-0.048-0.005-0.072-0.005c-0.097,0-0.19,0.028-0.272,0.081C13.319,8.561,13.311,8.568,13.302,8.575z M13.302,6.071
		l-3.202,2.408c-0.107,0.08-0.176,0.197-0.195,0.33C9.886,8.941,9.92,9.073,10,9.179c0.08,0.107,0.197,0.176,0.329,0.195
		c0.024,0.003,0.048,0.005,0.072,0.005c0.108,0,0.211-0.035,0.299-0.1l3.199-2.41c0.107-0.08,0.177-0.197,0.196-0.33
		C14.114,6.408,14.08,6.276,14,6.169c-0.095-0.127-0.241-0.2-0.401-0.2c-0.097,0-0.191,0.028-0.272,0.081
		C13.319,6.057,13.311,6.064,13.302,6.071z M13.299,3.568l-3.199,2.407c-0.107,0.081-0.177,0.198-0.196,0.33
		C9.886,6.437,9.919,6.568,10,6.675s0.197,0.176,0.329,0.195c0.024,0.003,0.048,0.005,0.072,0.005c0.108,0,0.211-0.035,0.298-0.1
		l3.2-2.41c0.107-0.08,0.176-0.198,0.195-0.33C14.113,3.904,14.08,3.772,14,3.665c-0.095-0.127-0.241-0.2-0.401-0.2
		c-0.1,0-0.196,0.029-0.278,0.085C13.312,3.558,13.303,3.565,13.299,3.568z"/>
</g>
</svg>
