<?xml version="1.0" encoding="utf-8"?>
<!-- Generator: Adobe Illustrator 22.1.0, SVG Export Plug-In . SVG Version: 6.00 Build 0)  -->
<svg version="1.1" id="Layer_1" xmlns="http://www.w3.org/2000/svg" xmlns:xlink="http://www.w3.org/1999/xlink" x="0px" y="0px"
	 viewBox="0 0 24 24" style="enable-background:new 0 0 24 24;" xml:space="preserve">
<g>
	<title>q&amp;amp;a-quora</title>
	<path d="M11.768,19.194c-3.155,0-5.721-3.124-5.721-6.963v-2.67c0-3.838,2.566-6.961,5.72-6.961c3.155,0,5.721,3.123,5.721,6.962
		v2.668c0.022,1.701-0.526,3.392-1.543,4.76c-0.09,0.12-0.226,0.193-0.375,0.201c-0.004,0-0.024,0.001-0.029,0.001
		c-0.137,0-0.27-0.058-0.364-0.16c-1.109-1.193-2.614-1.865-4.253-1.903v1.136c1.091,0.281,1.996,1.011,2.502,2.029
		c0.066,0.133,0.07,0.287,0.01,0.422c-0.059,0.135-0.174,0.237-0.316,0.28c-0.438,0.131-0.893,0.198-1.351,0.198H11.768z
		 M11.767,3.6c-2.603,0-4.72,2.674-4.72,5.961v2.67c0,3.288,2.118,5.963,4.721,5.963c0.132,0,0.263-0.007,0.394-0.021
		c-0.454-0.543-1.094-0.903-1.806-1.003c-0.245-0.034-0.43-0.247-0.43-0.495v-2.037c0-0.264,0.207-0.483,0.471-0.499
		c0.138-0.008,0.275-0.012,0.412-0.012c1.737,0,3.379,0.633,4.66,1.789c0.677-1.096,1.037-2.389,1.021-3.673v-2.68
		C16.488,6.275,14.371,3.6,11.767,3.6z"/>
	<path d="M18.2,24c-2.493,0-3.677-1.382-4.35-2.5c-0.71,0.148-1.435,0.223-2.16,0.224C5.737,21.684,0.927,16.81,0.967,10.86
		c-0.019-2.879,1.085-5.596,3.11-7.648C6.102,1.16,8.804,0.019,11.687,0c3.7,0.06,7.081,1.96,9.048,5.083
		c3.079,4.887,1.739,11.435-2.97,14.729c0.517,0.641,1.232,1.097,2.039,1.295c0.225,0.055,0.381,0.255,0.381,0.486v1.757
		c0,0.24-0.171,0.446-0.406,0.491C19.223,23.946,18.692,24,18.2,24C18.2,24,18.2,24,18.2,24z M14.1,20.431
		c0.183,0,0.35,0.099,0.438,0.259c0.87,1.585,2.02,2.323,3.618,2.323c0.314,0,0.653-0.028,1.03-0.085v-0.96
		c-1.06-0.354-1.961-1.068-2.551-2.026c-0.143-0.233-0.072-0.54,0.159-0.685c4.613-2.907,6.002-9.026,3.095-13.64
		C18.103,2.78,15.034,1.054,11.682,1C9.076,1.018,6.626,2.053,4.789,3.914C2.952,5.776,1.95,8.242,1.967,10.857
		c-0.036,5.406,4.327,9.831,9.726,9.867c0.768,0,1.538-0.094,2.286-0.278C14.02,20.436,14.06,20.431,14.1,20.431z"/>
</g>
</svg>
