<?xml version="1.0" encoding="utf-8"?>
<!-- Generator: Adobe Illustrator 22.1.0, SVG Export Plug-In . SVG Version: 6.00 Build 0)  -->
<svg version="1.1" id="Light" xmlns="http://www.w3.org/2000/svg" xmlns:xlink="http://www.w3.org/1999/xlink" x="0px" y="0px"
	 viewBox="0 0 24 24" style="enable-background:new 0 0 24 24;" xml:space="preserve">
<g>
	<title>swimming-pool-board</title>
	<path d="M15.808,21.5c-1.393-0.068-2.687-0.692-3.599-1.726c-0.609,0.717-1.4,1.241-2.31,1.528C9.805,21.425,9.66,21.5,9.5,21.5h-5
		C4.224,21.5,4,21.276,4,21v-1.5H1V21c0,0.276-0.224,0.5-0.5,0.5S0,21.276,0,21V7.5c0-0.551,0.449-1,1-1h3V4
		c0-0.827,0.673-1.5,1.5-1.5h5C11.327,2.5,12,3.173,12,4v2.5h10.001c0.276,0,0.5,0.224,0.5,0.5s-0.224,0.5-0.5,0.5h-5.939
		C15.551,7.633,10,9.18,10,13.5V18c0,0.276-0.224,0.5-0.5,0.5S9,18.276,9,18v-4.5c0-3.146,2.367-5.004,4.314-6H5v2.479
		C5.001,9.986,5.001,9.993,5.001,10s0,0.014-0.001,0.021v2.957C5.001,12.986,5.001,12.993,5.001,13s0,0.014-0.001,0.021v2.957
		C5.001,15.986,5.001,15.993,5.001,16s0,0.014-0.001,0.021v2.957C5.001,18.986,5.001,18.993,5.001,19s0,0.014-0.001,0.021V20.5
		h4.204c0.052-0.04,0.11-0.069,0.173-0.084c0.997-0.254,1.85-0.871,2.401-1.74c0.091-0.144,0.247-0.23,0.417-0.232
		c0.175,0,0.327,0.082,0.421,0.224c0.719,1.084,1.923,1.769,3.222,1.833c1.284-0.03,2.479-0.711,3.178-1.823
		c0.092-0.146,0.25-0.234,0.423-0.234c0.174,0,0.332,0.088,0.424,0.235c0.01,0.017,1.177,1.814,2.963,1.814c0,0,0,0,0,0
		c0.189,0,0.381-0.02,0.571-0.06c0.033-0.007,0.068-0.011,0.103-0.011c0.235,0,0.44,0.167,0.488,0.398
		c0.027,0.13,0.002,0.264-0.071,0.376c-0.073,0.112-0.186,0.188-0.316,0.216c-0.266,0.055-0.534,0.084-0.797,0.084c0,0,0,0,0,0
		c-1.619,0-2.789-1.061-3.358-1.718c-0.905,1.067-2.207,1.69-3.622,1.722c-0.002,0-0.004,0-0.006,0
		C15.816,21.5,15.812,21.5,15.808,21.5z M4,18.5v-2H1v2H4z M4,15.5v-2H1v2H4z M4,12.5v-2H1v2H4z M4,9.5v-2h-3l0,2H4z M11,6.5V4
		c0-0.276-0.224-0.5-0.5-0.5h-5C5.224,3.5,5,3.724,5,4v2.5H11z"/>
</g>
</svg>
