<?xml version="1.0" encoding="utf-8"?>
<!-- Generator: Adobe Illustrator 22.1.0, SVG Export Plug-In . SVG Version: 6.00 Build 0)  -->
<svg version="1.1" id="Light" xmlns="http://www.w3.org/2000/svg" xmlns:xlink="http://www.w3.org/1999/xlink" x="0px" y="0px"
	 viewBox="0 0 24 24" style="enable-background:new 0 0 24 24;" xml:space="preserve">
<g>
	<title>gymnastics-weightlifting</title>
	<path d="M23.5,24c-0.276,0-0.5-0.224-0.5-0.5V14h-6.389c-0.285,0.319-0.684,0.5-1.111,0.5s-0.826-0.181-1.111-0.5H9.611
		c-0.286,0.319-0.684,0.5-1.111,0.5S7.674,14.319,7.389,14H1v9.5C1,23.776,0.776,24,0.5,24S0,23.776,0,23.5V10
		c0-0.276,0.224-0.5,0.5-0.5S1,9.724,1,10v3h6V9.5C7,7.57,8.57,6,10.5,6h3C15.43,6,17,7.57,17,9.5V13h6v-3
		c0-0.276,0.224-0.5,0.5-0.5S24,9.724,24,10v13.5C24,23.776,23.776,24,23.5,24z M14.5,9C14.776,9,15,9.224,15,9.5V13
		c0,0.276,0.224,0.5,0.5,0.5S16,13.276,16,13V9.5C16,8.121,14.878,7,13.5,7h-3C9.121,7,8,8.121,8,9.5V13c0,0.276,0.224,0.5,0.5,0.5
		S9,13.276,9,13V9.5C9,9.224,9.224,9,9.5,9S10,9.224,10,9.5V13h4V9.5C14,9.224,14.224,9,14.5,9z"/>
	<path d="M12,5c-1.379,0-2.5-1.121-2.5-2.5S10.621,0,12,0c1.378,0,2.5,1.121,2.5,2.5S13.378,5,12,5z M12,1
		c-0.827,0-1.5,0.673-1.5,1.5S11.173,4,12,4s1.5-0.673,1.5-1.5S12.827,1,12,1z"/>
	<path d="M13.25,23c-0.48,0-0.931-0.195-1.258-0.534C11.66,22.804,11.206,23,10.723,23c-0.462,0-0.895-0.18-1.22-0.505
		C9.178,22.169,9,21.737,9,21.277V15.5C9,15.224,9.224,15,9.5,15s0.5,0.224,0.5,0.5v5.777c0,0.193,0.075,0.375,0.211,0.511
		C10.347,21.925,10.529,22,10.721,22c0.429,0,0.779-0.349,0.779-0.778c0-0.276,0.224-0.5,0.5-0.5c0.276,0,0.5,0.224,0.5,0.5v0.028
		c0,0.414,0.336,0.75,0.75,0.75S14,21.664,14,21.25V15.5c0-0.276,0.224-0.5,0.5-0.5s0.5,0.224,0.5,0.5v5.75
		C15,22.215,14.215,23,13.25,23z"/>
	<path d="M12,21c-0.276,0-0.5-0.224-0.5-0.5v-3c0-0.276,0.224-0.5,0.5-0.5c0.276,0,0.5,0.224,0.5,0.5v3C12.5,20.776,12.276,21,12,21
		z"/>
</g>
</svg>
