<?xml version="1.0" encoding="utf-8"?>
<!-- Generator: Adobe Illustrator 22.1.0, SVG Export Plug-In . SVG Version: 6.00 Build 0)  -->
<svg version="1.1" id="Light" xmlns="http://www.w3.org/2000/svg" xmlns:xlink="http://www.w3.org/1999/xlink" x="0px" y="0px"
	 viewBox="0 0 24 24" style="enable-background:new 0 0 24 24;" xml:space="preserve">
<g>
	<title>gymnastics-rhythmic-ribbon</title>
	<path d="M6.466,23.359c-0.541,0-1.042-0.293-1.307-0.765l-4.5-8c-0.373-0.721-0.118-1.595,0.562-1.996
		C1.433,5.99,6.938,0.641,13.565,0.641c5.504,0,9.983,4.478,9.983,9.982c0,2.16-0.841,4.19-2.368,5.718
		c-1.527,1.527-3.558,2.369-5.718,2.369c-3.623,0-6.57-2.947-6.57-6.569c0-2.953,2.402-5.355,5.355-5.355
		c2.417,0,4.383,1.966,4.384,4.382c0,0.138-0.111,0.25-0.249,0.25c0,0-0.5,0.002-0.501,0.002c-0.066,0-0.129-0.026-0.176-0.073
		c-0.047-0.047-0.074-0.111-0.074-0.177c-0.001-1.866-1.518-3.384-3.383-3.384c-2.403,0-4.356,1.954-4.356,4.355
		c0,3.071,2.498,5.569,5.569,5.569c1.894,0,3.673-0.738,5.011-2.076c1.338-1.339,2.075-3.118,2.075-5.011
		c0-4.953-4.029-8.982-8.982-8.982C7.57,1.641,2.535,6.453,2.23,12.417c0.433,0.071,0.806,0.318,1.033,0.691l4.509,8.015
		c0.405,0.721,0.148,1.637-0.572,2.042c-0.222,0.126-0.476,0.193-0.733,0.193H6.466z M1.982,13.39c-0.08,0-0.157,0.019-0.229,0.055
		c-0.245,0.126-0.341,0.429-0.215,0.674l4.492,7.984c0.089,0.157,0.255,0.255,0.436,0.255c0,0,0.005,0,0.007,0
		c0.083-0.001,0.164-0.023,0.235-0.063c0.242-0.136,0.327-0.441,0.193-0.682l-4.5-8C2.318,13.479,2.155,13.39,1.982,13.39z"/>
</g>
</svg>
