<?xml version="1.0" encoding="utf-8"?>
<!-- Generator: Adobe Illustrator 22.1.0, SVG Export Plug-In . SVG Version: 6.00 Build 0)  -->
<svg version="1.1" id="Light" xmlns="http://www.w3.org/2000/svg" xmlns:xlink="http://www.w3.org/1999/xlink" x="0px" y="0px"
	 viewBox="0 0 24 24" style="enable-background:new 0 0 24 24;" xml:space="preserve">
<g>
	<title>gymnastics-acrobatic-1</title>
	<path d="M23.5,24c-0.276,0-0.5-0.224-0.5-0.5V4h-2c-0.276,0-0.5-0.224-0.5-0.5S20.724,3,21,3h2V0.5C23,0.224,23.224,0,23.5,0
		S24,0.224,24,0.5v23C24,23.776,23.776,24,23.5,24z"/>
	<path d="M0.5,24C0.224,24,0,23.776,0,23.5v-23C0,0.224,0.224,0,0.5,0S1,0.224,1,0.5V3h2c0.276,0,0.5,0.224,0.5,0.5S3.276,4,3,4H1
		v19.5C1,23.776,0.776,24,0.5,24z"/>
	<path d="M12,9.498c-1.379,0-2.5-1.121-2.5-2.5s1.121-2.5,2.5-2.5c1.378,0,2.5,1.121,2.5,2.5S13.378,9.498,12,9.498z M12,5.498
		c-0.827,0-1.5,0.673-1.5,1.5s0.673,1.5,1.5,1.5s1.5-0.673,1.5-1.5S12.827,5.498,12,5.498z"/>
	<path d="M12,21.001c-1.066,0-2.099-0.23-3.07-0.683l-5.485-2.56c-0.399-0.198-0.693-0.533-0.833-0.948
		c-0.141-0.415-0.111-0.859,0.083-1.251c0.278-0.561,0.841-0.91,1.468-0.91c0.224,0,0.443,0.045,0.65,0.135l3.479,1.605
		c0.067,0.031,0.137,0.046,0.209,0.046c0.059,0,0.117-0.01,0.173-0.031c0.125-0.046,0.225-0.138,0.281-0.26
		C8.984,16.079,9,16.009,9,15.937v-2.781l-1.282-1.189c-1.711-1.433-2.791-3.461-3.03-5.7L4.509,4.669
		C4.422,3.848,5.016,3.107,5.835,3.016c0.053-0.005,0.102-0.007,0.151-0.007c0.762,0,1.406,0.57,1.5,1.327l0.18,1.606
		c0.163,1.481,0.883,2.82,2.029,3.771c0.552,0.509,1.251,0.785,1.98,0.785h0.636c0.729,0,1.425-0.272,1.961-0.767
		c1.162-0.965,1.886-2.307,2.048-3.787l0.179-1.601c0.095-0.761,0.74-1.333,1.499-1.333c0.048,0,0.096,0.002,0.144,0.007
		c0.825,0.092,1.422,0.832,1.335,1.651l-0.179,1.603c-0.236,2.234-1.314,4.264-3.034,5.714L15,13.153v2.782
		c0,0.276,0.224,0.5,0.5,0.5c0.073,0,0.143-0.015,0.209-0.046l3.468-1.6c0.214-0.093,0.434-0.138,0.66-0.138
		c0.654,0,1.245,0.386,1.504,0.985c0.347,0.8,0.006,1.73-0.775,2.118l-5.496,2.565C14.099,20.771,13.066,21.001,12,21.001z
		 M4.161,15.648c-0.24,0-0.464,0.139-0.571,0.355c-0.075,0.152-0.087,0.325-0.032,0.486c0.054,0.162,0.168,0.292,0.32,0.367
		l5.474,2.555C10.19,19.802,11.08,20,11.999,20c0.919,0,1.81-0.198,2.648-0.589l5.485-2.56c0.296-0.147,0.426-0.508,0.291-0.819
		c-0.101-0.233-0.331-0.384-0.585-0.384c-0.087,0-0.172,0.018-0.252,0.052l-3.458,1.595c-0.198,0.092-0.41,0.138-0.628,0.138
		c-0.827,0-1.5-0.673-1.5-1.5v-3c0-0.139,0.058-0.272,0.16-0.367l1.441-1.335c1.536-1.295,2.493-3.094,2.702-5.073l0.179-1.603
		c0.029-0.271-0.169-0.517-0.442-0.548c-0.011-0.001-0.027-0.002-0.042-0.002c-0.261,0-0.474,0.19-0.506,0.451l-0.178,1.594
		c-0.19,1.738-1.037,3.312-2.384,4.429c-0.704,0.651-1.638,1.015-2.619,1.015h-0.635c-0.982,0-1.919-0.367-2.639-1.033
		c-1.33-1.103-2.173-2.673-2.364-4.413L6.493,4.453C6.461,4.197,6.248,4.009,5.985,4.009c-0.016,0-0.033,0.001-0.049,0.002
		C5.671,4.04,5.474,4.287,5.503,4.56l0.179,1.597c0.212,1.983,1.17,3.78,2.697,5.059L9.84,12.57C9.942,12.665,10,12.798,10,12.937v3
		c0,0.219-0.047,0.429-0.138,0.627c-0.168,0.364-0.467,0.64-0.843,0.779c-0.167,0.062-0.342,0.093-0.519,0.093
		c-0.217,0-0.428-0.047-0.628-0.139l-3.468-1.6C4.33,15.665,4.247,15.648,4.161,15.648z"/>
	<path d="M9,4C8.724,4,8.5,3.776,8.5,3.5S8.724,3,9,3h6c0.276,0,0.5,0.224,0.5,0.5S15.276,4,15,4H9z"/>
</g>
</svg>
