<?xml version="1.0" encoding="utf-8"?>
<!-- Generator: Adobe Illustrator 22.1.0, SVG Export Plug-In . SVG Version: 6.00 Build 0)  -->
<svg version="1.1" id="Light" xmlns="http://www.w3.org/2000/svg" xmlns:xlink="http://www.w3.org/1999/xlink" x="0px" y="0px"
	 viewBox="0 0 24 24" style="enable-background:new 0 0 24 24;" xml:space="preserve">
<g>
	<title>gymnastics-ribbon-person-2</title>
	<path d="M14.496,6.5c-1.654,0-3-1.346-3-3s1.346-3,3-3s3,1.346,3,3S16.15,6.5,14.496,6.5z M14.496,1.5c-1.103,0-2,0.897-2,2
		s0.897,2,2,2s2-0.897,2-2S15.599,1.5,14.496,1.5z"/>
	<path d="M18.495,23.497c-1.396,0-2.726-0.523-3.746-1.472c-1.075-1.001-1.697-2.361-1.749-3.829
		c-0.053-1.468,0.469-2.869,1.47-3.945c0.095-0.101,0.228-0.159,0.366-0.159c0.126,0,0.247,0.047,0.34,0.133
		c0.203,0.189,0.214,0.506,0.026,0.708c-0.819,0.88-1.247,2.026-1.204,3.227c0.043,1.201,0.552,2.314,1.431,3.133
		c0.836,0.778,1.92,1.207,3.054,1.207c0.057,0,0.115-0.001,0.172-0.003c1.202-0.043,2.314-0.551,3.133-1.431
		c0.818-0.878,1.244-2.024,1.201-3.227c-0.043-1.203-0.551-2.315-1.429-3.133c-0.163-0.152-0.34-0.293-0.525-0.42
		c-0.11-0.075-0.185-0.189-0.209-0.321c-0.024-0.131,0.003-0.264,0.079-0.374c0.093-0.136,0.248-0.218,0.413-0.218
		c0.101,0,0.199,0.03,0.282,0.088c0.225,0.154,0.441,0.327,0.641,0.513c2.22,2.067,2.345,5.554,0.279,7.774
		C21.488,22.859,20.02,23.497,18.495,23.497L18.495,23.497z"/>
	<path d="M7.496,23.5c-1.103,0-2-0.897-2-2V14h-0.5c-2.754-0.003-4.997-2.246-5-5V5c0-1.103,0.897-2,2-2s2,0.897,2,2v4
		c0,0.551,0.449,1,1,1h1.726c0.099,0,0.194-0.029,0.276-0.083l3.861-2.562C11.189,7.124,11.583,7,11.994,7
		c0.468,0,0.923,0.164,1.282,0.463l2.166,1.8c0.18,0.15,0.407,0.232,0.641,0.233h2.914c1.103,0,2,0.897,2,2c0,1.103-0.897,2-2,2
		h-2.914c-1.167,0-2.303-0.412-3.2-1.159l-1.002-0.834l-2.156,1.399c-0.143,0.093-0.229,0.25-0.228,0.421V21.5
		C9.496,22.603,8.599,23.5,7.496,23.5z M1.996,4c-0.551,0-1,0.449-1,1v4c0.003,2.203,1.797,3.998,4,4h1c0.276,0,0.5,0.224,0.5,0.5v8
		c0,0.552,0.449,1,1,1s1-0.448,1-1v-8.176c-0.001-0.511,0.254-0.982,0.684-1.261l2.465-1.6c0.081-0.053,0.175-0.08,0.272-0.08
		c0.117,0,0.23,0.041,0.32,0.116l1.285,1.07c0.718,0.598,1.627,0.927,2.56,0.927h2.914c0.552,0,1-0.449,1-1c0-0.551-0.448-1-1-1
		h-2.914c-0.467,0-0.922-0.165-1.28-0.464l-2.165-1.799c-0.179-0.149-0.407-0.231-0.641-0.231c-0.207,0-0.405,0.062-0.573,0.18
		L7.551,10.75C7.305,10.913,7.018,11,6.722,11H4.996c-1.103,0-2-0.897-2-2V5C2.996,4.449,2.547,4,1.996,4z"/>
</g>
</svg>
