<?xml version="1.0" encoding="utf-8"?>
<!-- Generator: Adobe Illustrator 22.1.0, SVG Export Plug-In . SVG Version: 6.00 Build 0)  -->
<svg version="1.1" id="Light" xmlns="http://www.w3.org/2000/svg" xmlns:xlink="http://www.w3.org/1999/xlink" x="0px" y="0px"
	 viewBox="0 0 24 24" style="enable-background:new 0 0 24 24;" xml:space="preserve">
<g>
	<title>gymnastics-acrobatic-hanging</title>
	<path d="M7.997,24c-3.033,0-5.5-2.467-5.5-5.5c0-2.26,1.399-4.294,3.5-5.117V0.5c0-0.276,0.224-0.5,0.5-0.5s0.5,0.224,0.5,0.5
		v12.596C7.335,13.032,7.67,13,7.997,13s0.662,0.032,1,0.096V0.5c0-0.276,0.224-0.5,0.5-0.5s0.5,0.224,0.5,0.5v12.883
		c2.101,0.823,3.5,2.857,3.5,5.117C13.497,21.533,11.03,24,7.997,24z M5.997,14.473c-1.53,0.758-2.5,2.301-2.5,4.027
		c0,2.481,2.019,4.5,4.5,4.5s4.5-2.019,4.5-4.5c0-1.726-0.97-3.269-2.5-4.027v1.159c0.942,0.657,1.5,1.719,1.5,2.867
		c0,1.93-1.57,3.5-3.5,3.5s-3.5-1.57-3.5-3.5c0-1.148,0.558-2.21,1.5-2.867V14.473z M7.997,16c-1.379,0-2.5,1.122-2.5,2.5
		s1.121,2.5,2.5,2.5s2.5-1.122,2.5-2.5S9.376,16,7.997,16z M7.997,15c0.342,0,0.677,0.049,1,0.146v-1.029
		C8.662,14.039,8.326,14,7.997,14s-0.664,0.039-1,0.117v1.029C7.321,15.049,7.656,15,7.997,15z"/>
	<path d="M15.996,23.998c-0.966,0-1.917-0.254-2.749-0.733c-0.239-0.138-0.321-0.444-0.183-0.683c0.089-0.154,0.255-0.25,0.433-0.25
		c0.087,0,0.174,0.023,0.25,0.067c0.68,0.393,1.458,0.6,2.249,0.6c0.791,0,1.568-0.208,2.248-0.6c1.04-0.6,1.784-1.57,2.096-2.732
		c0.312-1.162,0.153-2.375-0.446-3.414c-0.447-0.775-1.098-1.384-1.896-1.777v1.158c0.426,0.296,0.772,0.672,1.03,1.121
		c0.466,0.809,0.588,1.752,0.345,2.656c-0.243,0.904-0.823,1.658-1.632,2.124c-0.529,0.304-1.133,0.465-1.746,0.465
		c-0.614,0-1.217-0.161-1.746-0.465c-0.239-0.138-0.321-0.444-0.184-0.683c0.089-0.155,0.255-0.25,0.434-0.25
		c0.087,0,0.173,0.023,0.249,0.066c0.378,0.218,0.809,0.333,1.248,0.333c0.439,0,0.87-0.115,1.248-0.332
		c1.195-0.688,1.607-2.219,0.92-3.414C17.716,16.48,16.884,16,15.989,16c-0.435,0-0.865,0.115-1.243,0.333
		c-0.013,0.007-0.029,0.014-0.044,0.02c-0.038,0.017-0.071,0.024-0.091,0.029c-0.021,0.005-0.038,0.009-0.055,0.011
		c-0.02,0.004-0.042,0.007-0.059,0.007c-0.043,0-0.075-0.009-0.091-0.013c-0.019-0.002-0.042-0.007-0.065-0.015
		c-0.035-0.011-0.069-0.027-0.105-0.05c-0.02-0.012-0.041-0.026-0.061-0.043c-0.029-0.024-0.051-0.05-0.068-0.073
		c-0.014-0.015-0.03-0.034-0.045-0.06c-0.007-0.012-0.013-0.028-0.019-0.043c-0.013-0.03-0.02-0.056-0.026-0.08
		c-0.005-0.019-0.011-0.043-0.015-0.072c-0.003-0.018-0.005-0.036-0.005-0.052v-1.43c-0.089,0.043-0.171,0.086-0.25,0.132
		c-0.076,0.044-0.162,0.067-0.249,0.067c-0.178,0-0.344-0.095-0.434-0.249c-0.067-0.116-0.085-0.251-0.05-0.38
		c0.034-0.129,0.117-0.237,0.233-0.304c0.235-0.135,0.482-0.253,0.75-0.356V0.5c0-0.276,0.224-0.5,0.5-0.5s0.5,0.224,0.5,0.5v12.595
		c0.326-0.06,0.657-0.09,0.989-0.09c0.338,0,0.677,0.031,1.011,0.094V0.5c0-0.276,0.224-0.5,0.5-0.5s0.5,0.224,0.5,0.5v12.883
		c1.164,0.454,2.14,1.29,2.763,2.368c1.515,2.627,0.611,5.997-2.016,7.513C17.912,23.744,16.962,23.998,15.996,23.998z
		 M15.988,15.004c0.344,0,0.682,0.05,1.01,0.148v-1.036c-0.326-0.074-0.66-0.112-0.996-0.112c-0.337,0-0.674,0.038-1.004,0.113v1.03
		C15.318,15.052,15.65,15.004,15.988,15.004z"/>
</g>
</svg>
