<?xml version="1.0" encoding="utf-8"?>
<!-- Generator: Adobe Illustrator 22.1.0, SVG Export Plug-In . SVG Version: 6.00 Build 0)  -->
<svg version="1.1" id="Light" xmlns="http://www.w3.org/2000/svg" xmlns:xlink="http://www.w3.org/1999/xlink" x="0px" y="0px"
	 viewBox="0 0 24 24" style="enable-background:new 0 0 24 24;" xml:space="preserve">
<g>
	<title>gymnastics-ribbon-person</title>
	<path d="M11,8.005c-1.654,0-3-1.346-3-3s1.346-3,3-3s3,1.346,3,3S12.654,8.005,11,8.005z M11,3.005c-1.103,0-2,0.897-2,2
		s0.897,2,2,2s2-0.897,2-2S12.103,3.005,11,3.005z"/>
	<path d="M9,24.005c-0.276,0-0.5-0.224-0.5-0.5v-3.501c0-0.276,0.224-0.5,0.5-0.5s0.5,0.224,0.5,0.5v3.501
		C9.5,23.781,9.276,24.005,9,24.005z"/>
	<path d="M9,16.505c-0.276,0-0.5-0.224-0.5-0.5v-3.046c-3.444-0.338-6.008-3.159-6-6.655V4.505c0-1.103,0.897-2,2-2s2,0.897,2,2v1.8
		c0,1.489,1.211,2.7,2.7,2.7h1.849c1.726,0.002,3.407,0.612,4.733,1.716c0.608,0.506,1.379,0.784,2.17,0.784
		c0.277,0,0.501,0.224,0.501,0.5c0,0.276-0.224,0.5-0.5,0.5c-1.026,0-2.024-0.361-2.811-1.016c-1.147-0.955-2.601-1.483-4.094-1.484
		H9.2c-2.04,0-3.7-1.66-3.7-3.7v-1.8c0-0.551-0.449-1-1-1s-1,0.449-1,1v1.8c-0.007,3.101,2.415,5.598,5.514,5.685
		c0.272,0.008,0.486,0.227,0.486,0.5v3.515C9.5,16.281,9.276,16.505,9,16.505z"/>
	<path d="M20,15.505c-0.276,0-0.5-0.224-0.5-0.5s0.224-0.5,0.5-0.5h0.5c0.267,0,0.517-0.105,0.706-0.294
		c0.188-0.189,0.292-0.44,0.292-0.708c0-0.283-0.121-0.553-0.332-0.742c-0.099-0.089-0.158-0.212-0.165-0.345
		c-0.007-0.133,0.038-0.261,0.127-0.361c0.094-0.105,0.23-0.166,0.372-0.166c0.123,0,0.242,0.045,0.334,0.128
		c0.422,0.378,0.664,0.92,0.664,1.486c0.001,0.534-0.207,1.036-0.584,1.415c-0.377,0.378-0.879,0.587-1.413,0.588
		C20.501,15.505,20,15.505,20,15.505z"/>
	<path d="M12,16.705c-0.276,0-0.5-0.224-0.5-0.5v-3.567c0-0.155,0.07-0.298,0.192-0.394c0.087-0.068,0.197-0.106,0.309-0.106
		c0.039,0,0.078,0.005,0.116,0.014c0.635,0.155,1.236,0.456,1.739,0.869c0.677,0.564,1.445,0.975,2.286,1.223
		c0.128,0.038,0.234,0.123,0.298,0.241c0.064,0.117,0.078,0.252,0.04,0.38c-0.063,0.211-0.26,0.359-0.479,0.359l0,0
		c-0.048,0-0.097-0.007-0.143-0.021c-0.971-0.287-1.859-0.762-2.638-1.411c-0.216-0.177-0.46-0.33-0.719-0.45v2.864
		C12.5,16.48,12.276,16.705,12,16.705z"/>
	<path d="M12,24.005c-0.276,0-0.5-0.224-0.5-0.5v-3.7c0-0.185,0.101-0.354,0.264-0.441c0.071-0.039,0.153-0.059,0.235-0.059
		c0.099,0,0.195,0.029,0.277,0.084l1.413,0.942c0.658,0.439,1.424,0.671,2.214,0.671H20c0.552,0,1-0.448,1-1s-0.448-1-1-1h-3.5
		c-0.276,0-0.5-0.224-0.5-0.5s0.224-0.5,0.5-0.5H20c1.103,0,2,0.897,2,2s-0.897,2-2,2h-4.092c-0.992,0-1.949-0.29-2.772-0.839
		L12.5,20.739v2.766C12.5,23.781,12.276,24.005,12,24.005z"/>
	<path d="M11.015,18.997c-3.393,0-6.552-1.819-8.243-4.748C1.941,12.808,1.501,11.168,1.5,9.505c0-0.134,0.052-0.259,0.146-0.354
		S1.866,9.005,2,9.005c0.276,0,0.5,0.224,0.5,0.5c0.001,1.488,0.395,2.956,1.139,4.245c1.513,2.621,4.339,4.248,7.376,4.248
		c1.483,0,2.947-0.393,4.235-1.137c4.059-2.344,5.455-7.552,3.111-11.611c-1.513-2.62-4.339-4.248-7.376-4.248
		c-1.482,0-2.947,0.393-4.235,1.137C6.674,2.182,6.588,2.205,6.5,2.205c-0.178,0-0.344-0.096-0.433-0.25
		C5.929,1.716,6.011,1.41,6.25,1.272c1.44-0.832,3.077-1.271,4.734-1.271c3.393,0,6.552,1.819,8.243,4.748
		c2.619,4.536,1.059,10.358-3.478,12.977C14.31,18.558,12.672,18.997,11.015,18.997z"/>
</g>
</svg>
