<?xml version="1.0" encoding="utf-8"?>
<!-- Generator: Adobe Illustrator 22.1.0, SVG Export Plug-In . SVG Version: 6.00 Build 0)  -->
<svg version="1.1" id="Light" xmlns="http://www.w3.org/2000/svg" xmlns:xlink="http://www.w3.org/1999/xlink" x="0px" y="0px"
	 viewBox="0 0 24 24" style="enable-background:new 0 0 24 24;" xml:space="preserve">
<g>
	<title>gymnastics-acrobatic</title>
	<path d="M19.5,24c-0.276,0-0.5-0.224-0.5-0.5s0.224-0.5,0.5-0.5h1.084l-3.857-6H7.273l-3.857,6H4.5C4.776,23,5,23.224,5,23.5
		S4.776,24,4.5,24h-4C0.224,24,0,23.776,0,23.5S0.224,23,0.5,23h1.727l2.163-3.365L1.315,17H1c-0.551,0-1-0.448-1-1v-3
		c0-0.552,0.449-1,1-1h22c0.552,0,1,0.448,1,1v3c0,0.552-0.448,1-1,1h-0.315l-3.075,2.635L21.773,23H23.5c0.276,0,0.5,0.224,0.5,0.5
		S23.776,24,23.5,24H19.5z M19.064,18.787L21.149,17h-3.233L19.064,18.787z M4.936,18.787L6.084,17H2.851L4.936,18.787z M1,16h22v-3
		H1h0L1,16z"/>
	<path d="M6.5,9C5.121,9,4,7.879,4,6.5c0-1.199,0.845-2.215,2-2.449V0.5C6,0.224,6.224,0,6.5,0S7,0.224,7,0.5v3.551
		C8.155,4.285,9,5.301,9,6.5C9,7.879,7.879,9,6.5,9z M6.5,5C5.673,5,5,5.673,5,6.5S5.673,8,6.5,8S8,7.327,8,6.5S7.327,5,6.5,5z"/>
	<path d="M17.5,9C16.122,9,15,7.879,15,6.5c0-1.199,0.845-2.215,2-2.449V0.5C17,0.224,17.224,0,17.5,0S18,0.224,18,0.5v3.551
		c1.155,0.234,2,1.25,2,2.449C20,7.879,18.878,9,17.5,9z M17.5,5C16.673,5,16,5.673,16,6.5S16.673,8,17.5,8S19,7.327,19,6.5
		S18.327,5,17.5,5z"/>
</g>
</svg>
