<?xml version="1.0" encoding="utf-8"?>
<!-- Generator: Adobe Illustrator 22.1.0, SVG Export Plug-In . SVG Version: 6.00 Build 0)  -->
<svg version="1.1" id="Light" xmlns="http://www.w3.org/2000/svg" xmlns:xlink="http://www.w3.org/1999/xlink" x="0px" y="0px"
	 viewBox="0 0 24 24" style="enable-background:new 0 0 24 24;" xml:space="preserve">
<g>
	<title>locker-room-hanger</title>
	<path d="M1.422,19c-0.547,0-1.05-0.317-1.284-0.807c-0.164-0.342-0.184-0.728-0.058-1.085c0.126-0.358,0.384-0.645,0.727-0.808
		l10.729-5.132c0.118-0.587,0.542-1.078,1.11-1.274c0.809-0.277,1.352-1.037,1.353-1.892c0-0.534-0.208-1.036-0.585-1.414
		C13.037,6.209,12.534,6.001,12,6.001c-0.534,0-1.036,0.208-1.414,0.585C10.208,6.964,10,7.466,9.999,8c0,0.276-0.224,0.5-0.5,0.5
		s-0.5-0.224-0.5-0.5c0-0.801,0.313-1.554,0.879-2.121c0.567-0.566,1.32-0.878,2.121-0.878c0.802,0,1.556,0.313,2.122,0.879
		C14.688,6.447,15,7.201,14.999,8.002c0,1.282-0.816,2.422-2.028,2.837c-0.186,0.064-0.333,0.201-0.411,0.375l10.601,5.07
		c0.012,0.004,0.023,0.01,0.035,0.015c0.491,0.235,0.808,0.74,0.806,1.285C24,18.365,23.362,19,22.582,19H1.422z M1.238,17.201
		C1.137,17.25,1.06,17.335,1.023,17.44c-0.037,0.106-0.031,0.22,0.017,0.321C1.11,17.906,1.258,18,1.419,18h21.16
		c0.233,0,0.422-0.188,0.423-0.419c0-0.156-0.089-0.303-0.229-0.375l-10.775-5.152L1.238,17.201z"/>
</g>
</svg>
