<?xml version="1.0" encoding="utf-8"?>
<!-- Generator: Adobe Illustrator 22.1.0, SVG Export Plug-In . SVG Version: 6.00 Build 0)  -->
<svg version="1.1" id="Light" xmlns="http://www.w3.org/2000/svg" xmlns:xlink="http://www.w3.org/1999/xlink" x="0px" y="0px"
	 viewBox="0 0 24 24" style="enable-background:new 0 0 24 24;" xml:space="preserve">
<g>
	<title>locker-room-hanger-woman</title>
	<path d="M18.391,6c-1.654,0-3-1.346-3-3s1.346-3,3-3s3,1.346,3,3S20.046,6,18.391,6z M18.391,1c-1.103,0-2,0.897-2,2s0.897,2,2,2
		s2-0.897,2-2S19.494,1,18.391,1z"/>
	<path d="M1.85,11c-0.184,0-0.364-0.034-0.536-0.1c-0.758-0.295-1.135-1.152-0.84-1.911C0.642,8.573,0.979,8.26,1.401,8.126
		l8.468-3.559V3.933C9.04,3.707,8.44,2.94,8.444,2.067c0.005-1.056,0.868-1.915,1.924-1.915c0.523,0.003,1.005,0.205,1.367,0.57
		s0.559,0.849,0.557,1.363c-0.001,0.274-0.226,0.498-0.5,0.498c-0.278-0.001-0.501-0.227-0.5-0.503
		c0.001-0.247-0.094-0.479-0.267-0.655c-0.174-0.175-0.405-0.273-0.652-0.274c-0.512,0-0.926,0.412-0.929,0.919
		C9.442,2.581,9.854,2.998,10.364,3c0.279,0.001,0.506,0.226,0.506,0.5v1.098l3.21,1.684c0.244,0.128,0.339,0.431,0.21,0.675
		c-0.087,0.165-0.256,0.268-0.443,0.268c-0.08,0-0.16-0.02-0.232-0.057l-3.27-1.716l-8.59,3.609C1.74,9.068,1.724,9.074,1.707,9.079
		C1.569,9.12,1.458,9.222,1.404,9.357c-0.094,0.24,0.029,0.516,0.273,0.611C1.732,9.989,1.791,10,1.85,10h9.487
		c0.276,0,0.5,0.224,0.5,0.5s-0.224,0.5-0.5,0.5H1.85z"/>
	<path d="M17.369,24c-0.827,0-1.5-0.673-1.5-1.5V19h-1.762c-0.128,0-0.254-0.024-0.373-0.072c-0.247-0.099-0.441-0.289-0.547-0.535
		c-0.105-0.246-0.108-0.518-0.009-0.765l1.51-3.776c0.119-0.297,0.179-0.61,0.179-0.929V9.5c0-1.379,1.122-2.5,2.5-2.5h2
		c1.378,0,2.5,1.121,2.5,2.5v3.423c0,0.319,0.06,0.631,0.177,0.927l0.369,0.92c0.378,0.944,0.853,2.129,1.145,2.862
		c0.047,0.12,0.07,0.243,0.07,0.367c0,0.551-0.448,1-0.999,1h-1.761v3.522c0,0.815-0.663,1.478-1.478,1.478H17.369z M17.369,8
		c-0.827,0-1.5,0.673-1.5,1.5v3.422c0,0.448-0.084,0.885-0.251,1.301L14.108,18l2.262,0c0.276,0,0.5,0.224,0.5,0.5v4
		c0,0.276,0.224,0.5,0.5,0.5h2.022c0.264,0,0.478-0.214,0.478-0.478V18.5c0-0.276,0.224-0.5,0.5-0.5h2.261
		c-0.289-0.725-0.758-1.897-1.135-2.837l-0.378-0.942c-0.165-0.416-0.249-0.852-0.249-1.298V9.5c0-0.827-0.673-1.5-1.5-1.5H17.369z"
		/>
</g>
</svg>
