<?xml version="1.0" encoding="utf-8"?>
<!-- Generator: Adobe Illustrator 22.1.0, SVG Export Plug-In . SVG Version: 6.00 Build 0)  -->
<svg version="1.1" id="Light" xmlns="http://www.w3.org/2000/svg" xmlns:xlink="http://www.w3.org/1999/xlink" x="0px" y="0px"
	 viewBox="0 0 24 24" style="enable-background:new 0 0 24 24;" xml:space="preserve">
<g>
	<title>locker-room-hanger-man</title>
	<path d="M1.48,11.008c-0.192,0-0.377-0.036-0.552-0.106c-0.366-0.146-0.653-0.426-0.808-0.788c-0.156-0.362-0.161-0.763-0.014-1.13
		C0.272,8.572,0.609,8.26,1.031,8.126l8.468-3.559V3.767c-0.328-0.088-0.625-0.26-0.868-0.505C8.27,2.896,8.072,2.412,8.075,1.898
		S8.281,0.902,8.646,0.54c0.362-0.359,0.836-0.556,1.334-0.556l0.032,0c1.058,0.006,1.916,0.874,1.91,1.935
		c-0.001,0.274-0.226,0.497-0.5,0.497c-0.136-0.001-0.262-0.053-0.355-0.148c-0.094-0.095-0.145-0.221-0.145-0.354
		c0.001-0.246-0.094-0.479-0.267-0.655s-0.405-0.273-0.652-0.275C9.749,0.991,9.52,1.083,9.35,1.252
		C9.174,1.425,9.076,1.657,9.075,1.903C9.074,2.15,9.169,2.383,9.342,2.558c0.173,0.176,0.405,0.273,0.652,0.274
		c0.279,0.001,0.505,0.226,0.505,0.5v1.259l4.058,2.045c0.119,0.06,0.208,0.163,0.25,0.29c0.042,0.127,0.032,0.262-0.029,0.382
		c-0.086,0.17-0.257,0.275-0.447,0.275l0,0c-0.077,0-0.155-0.018-0.225-0.053L9.98,5.45L1.386,9.06
		C1.372,9.066,1.356,9.072,1.34,9.077C1.199,9.12,1.088,9.222,1.034,9.357C0.987,9.473,0.989,9.602,1.039,9.719
		C1.089,9.836,1.182,9.926,1.3,9.974c0.053,0.021,0.114,0.035,0.157,0.035l12.042-0.001c0.276,0,0.5,0.224,0.5,0.5
		s-0.224,0.5-0.5,0.5H1.48z"/>
	<path d="M19.499,6c-1.654,0-3-1.346-3-3s1.346-3,3-3s3,1.346,3,3S21.153,6,19.499,6z M19.499,1c-1.103,0-2,0.897-2,2s0.897,2,2,2
		s2-0.897,2-2S20.602,1,19.499,1z"/>
	<path d="M18.499,24c-0.827,0-1.5-0.673-1.5-1.5V16h-0.5c-0.827,0-1.5-0.673-1.5-1.5v-5c0-1.379,1.122-2.5,2.5-2.5h4
		c1.378,0,2.5,1.121,2.5,2.5v5c0,0.827-0.673,1.5-1.5,1.5h-0.5v6.5c0,0.827-0.673,1.5-1.5,1.5H18.499z M17.499,8
		c-0.827,0-1.5,0.673-1.5,1.5v5c0,0.276,0.224,0.5,0.5,0.5h1c0.276,0,0.5,0.224,0.5,0.5v7c0,0.276,0.224,0.5,0.5,0.5h2
		c0.276,0,0.5-0.224,0.5-0.5v-7c0-0.276,0.224-0.5,0.5-0.5h1c0.276,0,0.5-0.224,0.5-0.5v-5c0-0.827-0.673-1.5-1.5-1.5H17.499z"/>
</g>
</svg>
