<?xml version="1.0" encoding="utf-8"?>
<!-- Generator: Adobe Illustrator 22.1.0, SVG Export Plug-In . SVG Version: 6.00 Build 0)  -->
<svg version="1.1" id="Light" xmlns="http://www.w3.org/2000/svg" xmlns:xlink="http://www.w3.org/1999/xlink" x="0px" y="0px"
	 viewBox="0 0 24 24" style="enable-background:new 0 0 24 24;" xml:space="preserve">
<g>
	<title>locker-room-wash-hands</title>
	<path d="M8.958,24c-1.767,0-3.435-0.856-4.464-2.291C4.4,21.578,4.248,21.5,4.086,21.5H1.458c-0.276,0-0.5-0.224-0.5-0.5
		s0.224-0.5,0.5-0.5h2.627c0.484,0,0.94,0.234,1.222,0.627C6.148,22.3,7.512,23,8.956,23h9.002c0.552,0,1-0.448,1-1s-0.448-1-1-1h-4
		c-0.276,0-0.5-0.224-0.5-0.5s0.224-0.5,0.5-0.5h6c0.552,0,1-0.448,1-1s-0.448-1-1-1H16.96c-0.276,0-0.5-0.224-0.5-0.5
		s0.224-0.5,0.5-0.5h4c0.552,0,1-0.448,1-1s-0.448-1-1-1h-6.002c-0.276,0-0.5-0.224-0.5-0.5s0.224-0.5,0.5-0.5h5
		c0.552,0,1-0.448,1-1s-0.448-1-1-1h-9c-0.276,0-0.5-0.224-0.5-0.5s0.224-0.5,0.5-0.5h4v-1c0-0.551-0.448-1-1-1h-4
		c-1.256,0-3.731,1.403-4.91,3.687C4.79,13.188,4.279,13.5,3.715,13.5H1.458c-0.276,0-0.5-0.224-0.5-0.5s0.224-0.5,0.5-0.5h2.256
		c0.189,0,0.359-0.104,0.445-0.271C5.445,9.737,8.247,8,9.958,8h4c1.103,0,2,0.897,2,2v1h4c1.103,0,2,0.897,2,2
		c0,0.403-0.118,0.786-0.339,1.112c0.788,0.274,1.341,1.023,1.341,1.888s-0.553,1.614-1.341,1.888
		c0.221,0.326,0.339,0.71,0.339,1.112c0,1.103-0.897,2-2,2H19.69c0.175,0.301,0.268,0.643,0.268,1c0,1.103-0.897,2-2,2H8.958z"/>
	<circle cx="14.708" cy="0.75" r="0.75"/>
	<circle cx="14.708" cy="3.25" r="0.75"/>
	<circle cx="14.708" cy="5.75" r="0.75"/>
	<path d="M18.207,1.5c-0.325-0.002-0.61-0.209-0.711-0.516c-0.127-0.397,0.09-0.819,0.481-0.946C18.045,0.013,18.127,0,18.208,0
		c0.324,0.003,0.607,0.209,0.708,0.512c0.063,0.189,0.05,0.392-0.04,0.572c-0.089,0.179-0.243,0.313-0.433,0.377
		C18.374,1.486,18.291,1.5,18.209,1.5H18.207z"/>
	<path d="M18.976,3.88c-0.326-0.002-0.612-0.211-0.712-0.52c-0.001-0.002-0.001-0.005-0.002-0.007
		c-0.122-0.391,0.094-0.81,0.484-0.937c0.074-0.025,0.144-0.038,0.21-0.038c0.005,0,0.018,0,0.029,0.001
		c0.323,0.003,0.607,0.211,0.707,0.52c0.062,0.191,0.045,0.395-0.047,0.573s-0.247,0.31-0.438,0.371
		c-0.064,0.023-0.146,0.037-0.229,0.037H18.976z"/>
	<path d="M19.746,6.259c-0.328,0-0.615-0.21-0.714-0.522c-0.125-0.392,0.091-0.814,0.483-0.942c0.045-0.015,0.121-0.038,0.217-0.038
		c0.003,0,0.027,0.001,0.027,0.001c0.316,0,0.603,0.209,0.702,0.521c0.061,0.19,0.045,0.394-0.047,0.572
		c-0.092,0.178-0.247,0.31-0.438,0.372C19.91,6.245,19.828,6.259,19.746,6.259L19.746,6.259z"/>
	<path d="M20.515,8.638c-0.328,0-0.615-0.21-0.715-0.522c-0.125-0.393,0.092-0.815,0.483-0.942c0.067-0.024,0.149-0.037,0.231-0.037
		c0.327,0,0.615,0.209,0.715,0.521c0.126,0.394-0.091,0.817-0.485,0.943c-0.067,0.023-0.147,0.037-0.228,0.037
		C20.516,8.638,20.515,8.638,20.515,8.638z"/>
	<path d="M11.203,1.5c-0.076,0-0.152-0.012-0.227-0.037c-0.31-0.1-0.518-0.387-0.518-0.715c0-0.2,0.079-0.388,0.221-0.53
		C10.821,0.078,11.009,0,11.208,0c0.089,0,0.158,0.012,0.24,0.04c0.387,0.126,0.601,0.548,0.474,0.941
		c-0.002,0.005-0.009,0.026-0.011,0.031C11.807,1.301,11.524,1.5,11.209,1.5H11.203z"/>
	<path d="M10.421,3.881c-0.091,0-0.18-0.026-0.225-0.042C9.813,3.715,9.598,3.294,9.724,2.901c0.098-0.307,0.393-0.521,0.718-0.521
		c0.081,0,0.16,0.013,0.236,0.039c0.304,0.098,0.511,0.385,0.51,0.712c-0.001,0.412-0.337,0.748-0.75,0.748L10.421,3.881z"/>
	<path d="M9.666,6.259c-0.09-0.002-0.159-0.014-0.238-0.041C9.044,6.094,8.83,5.672,8.956,5.279C9.055,4.968,9.343,4.758,9.67,4.758
		C9.765,4.76,9.841,4.774,9.915,4.8c0.3,0.096,0.506,0.383,0.506,0.711c0,0.2-0.079,0.388-0.22,0.529
		C10.058,6.181,9.87,6.259,9.671,6.259C9.669,6.259,9.667,6.259,9.666,6.259z"/>
</g>
</svg>
