<?xml version="1.0" encoding="utf-8"?>
<!-- Generator: Adobe Illustrator 22.1.0, SVG Export Plug-In . SVG Version: 6.00 Build 0)  -->
<svg version="1.1" id="Light" xmlns="http://www.w3.org/2000/svg" xmlns:xlink="http://www.w3.org/1999/xlink" x="0px" y="0px"
	 viewBox="0 0 24 24" style="enable-background:new 0 0 24 24;" xml:space="preserve">
<g>
	<title>locker-room-suitcase-key-1</title>
	<path d="M8.716,6.249c-0.965,0-1.75-0.785-1.75-1.75s0.785-1.75,1.75-1.75s1.75,0.785,1.75,1.75S9.681,6.249,8.716,6.249z
		 M8.716,3.749c-0.414,0-0.75,0.336-0.75,0.75s0.336,0.75,0.75,0.75s0.75-0.336,0.75-0.75S9.13,3.749,8.716,3.749z"/>
	<path d="M8.497,8.999c-1.846,0-3.486-1.104-4.177-2.813C3.87,5.072,3.88,3.849,4.349,2.742C4.818,1.635,5.69,0.778,6.804,0.327
		c0.542-0.219,1.11-0.331,1.688-0.331c0.603,0,1.194,0.121,1.756,0.359c0.999,0.424,1.803,1.184,2.279,2.152l5.979,0.17
		c0.128,0.004,0.249,0.056,0.34,0.146l1.411,1.414c0.195,0.195,0.194,0.512,0,0.707l-1.414,1.414
		c-0.094,0.094-0.22,0.146-0.354,0.146l-5.968-0.007c-0.486,0.976-1.332,1.762-2.343,2.171C9.64,8.888,9.074,8.999,8.497,8.999z
		 M8.492,0.997c-0.449,0-0.891,0.087-1.313,0.257c-0.867,0.35-1.545,1.018-1.91,1.878C4.905,3.993,4.897,4.944,5.247,5.811
		C5.785,7.14,7.06,7.999,8.497,7.999c0.449,0,0.889-0.086,1.308-0.256c0.874-0.354,1.578-1.058,1.932-1.932
		c0.077-0.19,0.259-0.312,0.464-0.312l6.083,0.007l0.914-0.914L18.28,3.672l-6.094-0.173c-0.198-0.006-0.375-0.128-0.449-0.312
		c-0.35-0.867-1.017-1.545-1.878-1.91C9.42,1.091,8.961,0.997,8.492,0.997z"/>
	<path d="M4.5,23.999c-0.827,0-1.5-0.673-1.5-1.5v-9c0-0.827,0.673-1.5,1.5-1.5H9v-1c0-0.827,0.673-1.5,1.5-1.5h3
		c0.827,0,1.5,0.673,1.5,1.5v1h4.5c0.827,0,1.5,0.673,1.5,1.5v9c0,0.827-0.673,1.5-1.5,1.5H4.5z M19.5,22.999
		c0.276,0,0.5-0.224,0.5-0.5v-9c0-0.276-0.224-0.5-0.5-0.5H18v10H19.5z M17,22.999v-10h-2v10H17z M14,22.999v-10h-4v10H14z
		 M9,22.999v-10H7v10H9z M4.5,12.999c-0.276,0-0.5,0.224-0.5,0.5v9c0,0.276,0.224,0.5,0.5,0.5H6v-10H4.5z M14,11.999v-1
		c0-0.276-0.224-0.5-0.5-0.5h-3c-0.276,0-0.5,0.224-0.5,0.5v1H14z"/>
</g>
</svg>
