<?xml version="1.0" encoding="utf-8"?>
<!-- Generator: Adobe Illustrator 22.1.0, SVG Export Plug-In . SVG Version: 6.00 Build 0)  -->
<svg version="1.1" id="Light" xmlns="http://www.w3.org/2000/svg" xmlns:xlink="http://www.w3.org/1999/xlink" x="0px" y="0px"
	 viewBox="0 0 24 24" style="enable-background:new 0 0 24 24;" xml:space="preserve">
<g>
	<title>locker-room-wash-hands-1</title>
	<path d="M12.236,24c-0.377,0-0.749-0.061-1.106-0.18l-5.388-1.792c-0.051-0.017-0.104-0.026-0.157-0.026H2.247
		c-0.276,0-0.5-0.224-0.5-0.5s0.224-0.5,0.5-0.5h3.338c0.162,0,0.321,0.026,0.474,0.077l5.387,1.792
		C11.702,22.956,11.967,23,12.236,23H18.5c0.414,0,0.75-0.336,0.75-0.75s-0.336-0.75-0.75-0.75h-4.25c-0.276,0-0.5-0.224-0.5-0.5
		s0.224-0.5,0.5-0.5h5.25c0.414,0,0.75-0.336,0.75-0.75S19.914,19,19.5,19h-4.25c-0.276,0-0.5-0.224-0.5-0.5s0.224-0.5,0.5-0.5h5.25
		c0.414,0,0.75-0.336,0.75-0.75s-0.336-0.75-0.75-0.75h-5.249c-0.276,0-0.5-0.224-0.5-0.5s0.224-0.5,0.5-0.5H19.5
		c0.414,0,0.75-0.336,0.75-0.75S19.914,14,19.5,14h-7.746c-0.203,0-0.384-0.121-0.462-0.309c-0.078-0.188-0.035-0.401,0.108-0.545
		l0.946-0.946c0.471-0.445,0.502-1.161,0.077-1.635c-0.22-0.245-0.536-0.386-0.867-0.386c-0.288,0-0.564,0.106-0.778,0.298
		l-4.925,4.168C5.583,14.873,5.239,15,4.884,15H2.25c-0.276,0-0.5-0.224-0.5-0.5S1.974,14,2.25,14h2.634
		c0.118,0,0.233-0.042,0.323-0.119l4.914-4.158c0.389-0.349,0.9-0.545,1.433-0.545c0.616,0,1.204,0.262,1.614,0.719
		c0.791,0.881,0.737,2.207-0.124,3.02L12.961,13H19.5c0.965,0,1.75,0.785,1.75,1.75c0,0.294-0.074,0.581-0.214,0.836
		c0.706,0.229,1.214,0.895,1.214,1.664s-0.508,1.436-1.214,1.664c0.14,0.255,0.214,0.542,0.214,0.836
		c0,0.77-0.508,1.436-1.214,1.664c0.14,0.255,0.214,0.542,0.214,0.836c0,0.965-0.785,1.75-1.75,1.75H12.236z"/>
	<path d="M15.75,3c-0.276,0-0.5-0.224-0.5-0.5v-2c0-0.276,0.224-0.5,0.5-0.5s0.5,0.224,0.5,0.5v2C16.25,2.775,16.026,3,15.75,3z"/>
	<path d="M15.75,7.5c-0.276,0-0.5-0.224-0.5-0.5V5c0-0.276,0.224-0.5,0.5-0.5s0.5,0.224,0.5,0.5v2C16.25,7.275,16.026,7.5,15.75,7.5
		z"/>
	<path d="M15.75,11.5c-0.276,0-0.5-0.224-0.5-0.5V9.5c0-0.276,0.224-0.5,0.5-0.5s0.5,0.224,0.5,0.5V11
		C16.25,11.275,16.026,11.5,15.75,11.5z"/>
	<path d="M19.637,2.962c-0.238,0-0.444-0.169-0.49-0.403L18.76,0.596c-0.053-0.271,0.124-0.534,0.394-0.587
		c0.032-0.006,0.065-0.01,0.098-0.01c0.238,0,0.443,0.17,0.49,0.403l0.387,1.962c0.053,0.271-0.124,0.534-0.394,0.587
		C19.702,2.959,19.669,2.962,19.637,2.962z"/>
	<path d="M20.508,7.377c-0.238,0-0.444-0.169-0.49-0.403L19.63,5.011c-0.053-0.271,0.124-0.534,0.394-0.587
		c0.032-0.006,0.065-0.01,0.098-0.01c0.238,0,0.443,0.17,0.49,0.403l0.387,1.962c0.053,0.271-0.124,0.534-0.394,0.587
		C20.573,7.374,20.54,7.377,20.508,7.377z"/>
	<path d="M21.379,11.792c-0.238,0-0.444-0.169-0.49-0.403l-0.387-1.962c-0.053-0.271,0.124-0.534,0.394-0.587
		c0.032-0.006,0.065-0.01,0.097-0.01c0.238,0,0.444,0.17,0.49,0.403l0.387,1.962c0.053,0.271-0.124,0.534-0.394,0.587
		C21.444,11.789,21.411,11.792,21.379,11.792z"/>
	<path d="M11.863,2.962c-0.032,0-0.065-0.003-0.098-0.01c-0.13-0.026-0.243-0.101-0.317-0.212c-0.074-0.111-0.101-0.244-0.075-0.375
		l0.387-1.962c0.046-0.234,0.252-0.404,0.49-0.404c0.032,0,0.066,0.003,0.099,0.01c0.269,0.053,0.446,0.317,0.393,0.587
		l-0.387,1.962C12.308,2.792,12.102,2.962,11.863,2.962z"/>
	<path d="M10.992,7.377c-0.032,0-0.065-0.003-0.098-0.01c-0.13-0.026-0.243-0.101-0.318-0.212c-0.074-0.111-0.101-0.244-0.075-0.375
		l0.387-1.962c0.046-0.234,0.252-0.404,0.489-0.404c0.033,0,0.066,0.003,0.099,0.01c0.13,0.026,0.243,0.101,0.318,0.212
		c0.074,0.111,0.101,0.244,0.075,0.375l-0.387,1.962C11.437,7.207,11.231,7.377,10.992,7.377z"/>
</g>
</svg>
