<?xml version="1.0" encoding="utf-8"?>
<!-- Generator: Adobe Illustrator 22.1.0, SVG Export Plug-In . SVG Version: 6.00 Build 0)  -->
<svg version="1.1" id="Layer_1" xmlns="http://www.w3.org/2000/svg" xmlns:xlink="http://www.w3.org/1999/xlink" x="0px" y="0px"
	 viewBox="0 0 24 24" style="enable-background:new 0 0 24 24;" xml:space="preserve">
<g>
	<title>baby-care-pacifier</title>
	<path d="M9.23,24.007c-1.861,0-3.664-0.562-5.213-1.625c-2.038-1.397-3.409-3.505-3.862-5.934c-0.453-2.429,0.068-4.89,1.465-6.927
		c1.215-1.771,2.993-3.055,5.04-3.649L6.395,5.607c-1.128-1.151-1.129-3.02-0.004-4.168C6.955,0.864,7.71,0.547,8.517,0.547
		c0.784,0,1.523,0.302,2.082,0.849l1.247,1.247c0.455-0.331,0.946-0.487,1.527-0.487c0.428,0,0.859,0.085,1.275,0.168
		c0.427,0.084,0.868,0.172,1.333,0.172c0.691,0,1.772-0.172,3.185-1.656c0.025-0.026,0.047-0.048,0.069-0.069
		c0.529-0.512,1.227-0.794,1.965-0.794c0.774,0,1.495,0.305,2.031,0.86c0.525,0.543,0.807,1.257,0.794,2.012
		c-0.013,0.755-0.318,1.459-0.861,1.984c-2.004,1.908-1.741,3.237-1.487,4.522c0.181,0.914,0.367,1.856-0.32,2.802
		c0,0,1.252,1.253,1.257,1.258c1.115,1.137,1.115,3.005-0.01,4.153c-0.556,0.568-1.3,0.885-2.095,0.893H20.48
		c-0.783,0-1.522-0.302-2.082-0.85l-0.273-0.273c-0.974,3.338-3.75,5.872-7.182,6.511C10.376,23.953,9.8,24.007,9.23,24.007z
		 M7.483,6.695c-2.059,0.45-3.845,1.65-5.039,3.391c-1.246,1.818-1.711,4.012-1.307,6.178c0.404,2.167,1.627,4.046,3.445,5.293
		c1.382,0.948,2.989,1.448,4.649,1.448c0.509,0,1.024-0.048,1.53-0.142c3.226-0.601,5.841-3.144,6.545-6.348l-2.335-2.335
		c0.233,2.373-1.048,4.708-3.246,5.755c-0.781,0.372-1.611,0.561-2.467,0.562c-0.653,0-1.301-0.112-1.925-0.333
		c-1.447-0.513-2.607-1.559-3.267-2.945c-1.362-2.86-0.144-6.296,2.716-7.658c0.78-0.371,1.61-0.56,2.467-0.56
		c0.19,0,0.381,0.01,0.57,0.029L7.483,6.695z M9.251,10.002c-0.708,0-1.394,0.156-2.039,0.463c-2.363,1.125-3.369,3.963-2.244,6.326
		c0.545,1.144,1.504,2.008,2.698,2.432c0.516,0.183,1.051,0.275,1.59,0.275c0.706,0,1.391-0.156,2.037-0.464
		c2.33-1.11,3.345-3.908,2.276-6.253l-2.35-2.35C10.594,10.146,9.932,10.002,9.251,10.002z M8.517,1.547
		c-0.536,0-1.037,0.21-1.411,0.592c-0.747,0.762-0.747,2.003,0,2.765L19.102,16.9c0.367,0.359,0.865,0.559,1.402,0.561
		c0.524-0.005,1.018-0.216,1.388-0.593c0.747-0.762,0.747-2.001,0-2.764l-1.491-1.491c-0.026-0.015-0.056-0.036-0.085-0.065
		c-0.03-0.03-0.05-0.06-0.065-0.085L11.538,3.75c-0.026-0.015-0.056-0.036-0.084-0.065c-0.029-0.029-0.049-0.059-0.064-0.083
		L9.895,2.107C9.527,1.746,9.037,1.547,8.517,1.547z M20.635,11.433c0.324-0.558,0.211-1.129,0.062-1.884
		c-0.263-1.331-0.623-3.153,1.776-5.437c0.348-0.337,0.545-0.792,0.554-1.28c0.008-0.488-0.174-0.949-0.513-1.3
		c-0.347-0.358-0.813-0.556-1.313-0.556c-0.477,0-0.927,0.182-1.269,0.512l-0.046,0.046c-1.274,1.338-2.512,1.963-3.894,1.963
		c-0.564,0-1.081-0.103-1.538-0.193c-0.381-0.075-0.741-0.146-1.067-0.146c-0.312,0-0.573,0.065-0.817,0.208L20.635,11.433z"/>
</g>
</svg>
