<?xml version="1.0" encoding="utf-8"?>
<!-- Generator: Adobe Illustrator 22.1.0, SVG Export Plug-In . SVG Version: 6.00 Build 0)  -->
<svg version="1.1" id="Layer_1" xmlns="http://www.w3.org/2000/svg" xmlns:xlink="http://www.w3.org/1999/xlink" x="0px" y="0px"
	 viewBox="0 0 24 24" style="enable-background:new 0 0 24 24;" xml:space="preserve">
<g>
	<title>baby-care-diaper</title>
	<path d="M12,21.5c-4.788,0-9.11-3.197-10.517-7.777c0-0.001-0.001-0.002-0.001-0.003c-0.006-0.014-0.011-0.035-0.015-0.053
		C1.156,12.633,1,11.571,1,10.5V9.795c-0.613-0.314-1-0.94-1-1.637V6.342c0-0.697,0.387-1.323,1-1.637V3.913
		C1,3.134,1.634,2.5,2.413,2.5h19.174C22.366,2.5,23,3.134,23,3.913v0.792c0.613,0.314,1,0.94,1,1.637v1.816
		c0,0.697-0.387,1.323-1,1.637V10.5c0,1.075-0.157,2.141-0.467,3.169c-0.004,0.021-0.011,0.044-0.018,0.06c0,0,0,0.001-0.001,0.001
		C21.118,18.298,16.793,21.5,12,21.5z M10.757,20.423C11.169,20.474,11.586,20.5,12,20.5c0.414,0,0.831-0.026,1.243-0.077
		c-0.16-0.547-0.242-1.104-0.243-1.659c0.084-3.458,2.967-6.265,6.426-6.265c0.043,0,0.086,0,0.128,0.001
		c0.735,0,1.462,0.121,2.162,0.36C21.905,12.086,22,11.293,22,10.5V10h-3.158C17.826,10,17,9.174,17,8.158V6.342
		C17,5.326,17.826,4.5,18.842,4.5H22V3.913C22,3.685,21.815,3.5,21.587,3.5H2.413C2.185,3.5,2,3.685,2,3.913V4.5h3.158
		C6.174,4.5,7,5.326,7,6.342v1.816C7,9.174,6.174,10,5.158,10H2v0.5c0,0.793,0.095,1.586,0.284,2.36c0.7-0.239,1.43-0.36,2.172-0.36
		c0.05-0.001,0.105-0.002,0.161-0.002c3.436,0,6.299,2.805,6.383,6.253C10.999,19.315,10.917,19.875,10.757,20.423z M19.41,13.499
		c-2.913,0-5.34,2.367-5.41,5.277c0.001,0.489,0.08,0.985,0.235,1.473c3.331-0.763,6.057-3.199,7.197-6.428
		c-0.608-0.212-1.242-0.32-1.887-0.32C19.496,13.499,19.453,13.499,19.41,13.499z M2.569,13.82c1.139,3.229,3.866,5.665,7.196,6.428
		C9.92,19.76,9.999,19.261,10,18.762c-0.071-2.899-2.495-5.264-5.405-5.264c-0.042,0-0.084,0-0.127,0.002
		C3.814,13.5,3.178,13.607,2.569,13.82z M18.842,5.5C18.378,5.5,18,5.878,18,6.342v1.816C18,8.622,18.378,9,18.842,9h3.316
		C22.622,9,23,8.622,23,8.158V6.342C23,5.878,22.622,5.5,22.158,5.5H18.842z M1.842,5.5C1.378,5.5,1,5.878,1,6.342v1.816
		C1,8.622,1.378,9,1.842,9h3.316C5.622,9,6,8.622,6,8.158V6.342C6,5.878,5.622,5.5,5.158,5.5H1.842z"/>
	<path d="M12.001,11.873c-0.226,0-0.446-0.077-0.621-0.218C10.295,10.792,9,9.52,9,8.365c0-1.096,0.776-1.763,1.543-1.854
		c0.061-0.007,0.124-0.011,0.188-0.011c0.494,0,0.941,0.213,1.269,0.595C12.328,6.712,12.776,6.5,13.27,6.5
		c0.063,0,0.126,0.004,0.186,0.011C14.224,6.602,15,7.269,15,8.365c0,1.156-1.295,2.428-2.382,3.291
		C12.447,11.795,12.227,11.873,12.001,11.873z M10.735,7.499c-0.025,0-0.049,0.001-0.073,0.004C10.333,7.543,10,7.851,10,8.365
		c0,0.443,0.526,1.334,2.004,2.509c0.001,0.001,0.003,0.003,0.003,0.003C13.473,9.7,14,8.808,14,8.365
		c0-0.514-0.333-0.822-0.662-0.862c-0.024-0.003-0.049-0.004-0.074-0.004c-0.366,0-0.65,0.303-0.778,0.83
		C12.431,8.554,12.231,8.711,12,8.711s-0.431-0.157-0.486-0.382C11.386,7.802,11.102,7.499,10.735,7.499z"/>
</g>
</svg>
