<?xml version="1.0" encoding="utf-8"?>
<!-- Generator: Adobe Illustrator 22.1.0, SVG Export Plug-In . SVG Version: 6.00 Build 0)  -->
<svg version="1.1" id="Light" xmlns="http://www.w3.org/2000/svg" xmlns:xlink="http://www.w3.org/1999/xlink" x="0px" y="0px"
	 viewBox="0 0 24 24" style="enable-background:new 0 0 24 24;" xml:space="preserve">
<g>
	<title>table</title>
	<path d="M8.501,24c-0.276,0-0.5-0.224-0.5-0.5V23c0-0.891,0.479-1.72,1.25-2.166c0.463-0.267,0.75-0.765,0.75-1.3v-6.585
		c-0.985-0.202-1.766-0.991-1.955-1.979c-2.608-0.177-5.197-0.894-7.499-2.078C0.209,8.723-0.001,8.38,0,7.998
		C0,7.731,0.105,7.48,0.294,7.292C0.486,7.101,0.73,7,1.001,7h10.622l1.896-6.637C13.581,0.149,13.779,0,14.001,0h5
		c0.156,0,0.305,0.074,0.399,0.199c0.094,0.125,0.125,0.289,0.082,0.438l-0.573,2.005L20.361,7h2.64
		c0.382,0,0.724,0.212,0.895,0.552c0.12,0.239,0.139,0.51,0.055,0.763c-0.084,0.253-0.261,0.458-0.5,0.578
		c-2.302,1.184-4.89,1.901-7.495,2.077c-0.19,0.988-0.97,1.776-1.955,1.978v6.585c0,0.535,0.287,1.033,0.75,1.3
		c0.771,0.446,1.25,1.275,1.25,2.166v0.5c0,0.276-0.224,0.5-0.5,0.5H8.501z M15.001,23c0-0.535-0.287-1.033-0.75-1.3
		c-0.771-0.445-1.25-1.276-1.25-2.167V13h-2v6.534c0,0.891-0.479,1.721-1.25,2.166C9.288,21.967,9,22.465,9.001,23v0H15.001z
		 M9.089,11c0.209,0.586,0.772,1,1.412,1h3c0.64,0,1.203-0.414,1.412-1L9.089,11z M0.999,8c2.321,1.194,4.921,1.885,7.523,2l6.978,0
		c2.584-0.115,5.18-0.806,7.496-1.998L20.001,8L0.999,8z M19.307,7l-0.885-2.655L17.664,7H19.307z M16.624,7l1.714-6h-3.96l-1.714,6
		H16.624z"/>
</g>
</svg>
