<?xml version="1.0" encoding="utf-8"?>
<!-- Generator: Adobe Illustrator 22.1.0, SVG Export Plug-In . SVG Version: 6.00 Build 0)  -->
<svg version="1.1" id="Light" xmlns="http://www.w3.org/2000/svg" xmlns:xlink="http://www.w3.org/1999/xlink" x="0px" y="0px"
	 viewBox="0 0 24 24" style="enable-background:new 0 0 24 24;" xml:space="preserve">
<g>
	<title>table-restaurant-beach-1</title>
	<path d="M7.5,24C7.224,24,7,23.776,7,23.5v-4C7,19.224,6.776,19,6.5,19H2.453l-0.455,4.55C1.972,23.806,1.758,24,1.5,24
		c-0.015,0-0.031-0.001-0.047-0.002c-0.278-0.028-0.479-0.273-0.451-0.547l0.493-4.926L0.01,11.098
		c-0.054-0.27,0.122-0.534,0.392-0.588C0.435,10.503,0.468,10.5,0.5,10.5c0.237,0,0.443,0.169,0.49,0.402L2.41,18H6.5
		C7.327,18,8,18.673,8,19.5v4C8,23.776,7.776,24,7.5,24z"/>
	<path d="M22.5,24c-0.258,0-0.471-0.194-0.497-0.45L21.547,19H17.5c-0.276,0-0.5,0.224-0.5,0.5v4c0,0.276-0.224,0.5-0.5,0.5
		S16,23.776,16,23.5v-4c0-0.827,0.673-1.5,1.5-1.5h4.09l1.419-7.098c0.047-0.233,0.252-0.402,0.49-0.402
		c0.032,0,0.066,0.003,0.099,0.01c0.27,0.054,0.446,0.318,0.392,0.588l-1.485,7.427l0.493,4.926c0.027,0.275-0.174,0.52-0.448,0.547
		C22.531,23.999,22.515,24,22.5,24z"/>
	<path d="M12,24c-0.276,0-0.5-0.224-0.5-0.5V15h-6C5.224,15,5,14.776,5,14.5S5.224,14,5.5,14h6V7H2C1.59,7,1.216,6.744,1.067,6.363
		C0.97,6.114,0.976,5.842,1.084,5.597c0.108-0.245,0.304-0.433,0.553-0.529C5.093,3.627,8.498,1.943,11.75,0.067
		C11.826,0.023,11.912,0,12,0s0.174,0.023,0.25,0.067c3.25,1.875,6.656,3.559,10.122,5.004c0.381,0.15,0.63,0.516,0.629,0.93
		C23,6.552,22.551,7,22.001,7H12.5v7h6c0.276,0,0.5,0.224,0.5,0.5S18.776,15,18.5,15h-6v8.5C12.5,23.776,12.276,24,12,24z M12,1.077
		c-3.213,1.84-6.573,3.495-9.99,4.919L22,6C18.574,4.571,15.214,2.917,12,1.077z"/>
</g>
</svg>
