<?xml version="1.0" encoding="utf-8"?>
<!-- Generator: Adobe Illustrator 22.1.0, SVG Export Plug-In . SVG Version: 6.00 Build 0)  -->
<svg version="1.1" id="Light" xmlns="http://www.w3.org/2000/svg" xmlns:xlink="http://www.w3.org/1999/xlink" x="0px" y="0px"
	 viewBox="0 0 24 24" style="enable-background:new 0 0 24 24;" xml:space="preserve">
<g>
	<title>armchair</title>
	<path d="M14,10.998c-0.134,0-0.259-0.052-0.354-0.146l-1.001-1.001C12.445,9.948,12.225,9.998,12,9.998
		c-0.225,0-0.444-0.05-0.646-0.147l-1.001,1.001c-0.094,0.094-0.22,0.146-0.354,0.146s-0.259-0.052-0.354-0.146
		S9.5,10.632,9.5,10.498s0.052-0.259,0.146-0.354l1.001-1.001C10.551,8.943,10.5,8.723,10.5,8.498s0.05-0.444,0.147-0.646
		L9.647,6.852C9.552,6.757,9.5,6.632,9.5,6.498s0.052-0.259,0.146-0.354S9.867,5.998,10,5.998s0.259,0.052,0.354,0.146l1.001,1.001
		C11.556,7.049,11.776,6.998,12,6.998c0.225,0,0.445,0.05,0.646,0.147l1.001-1.001C13.741,6.05,13.867,5.998,14,5.998
		s0.259,0.052,0.354,0.146S14.5,6.365,14.5,6.498s-0.052,0.259-0.146,0.354l-1.001,1.001C13.45,8.054,13.5,8.273,13.5,8.498
		s-0.051,0.445-0.147,0.646l1.001,1.001c0.094,0.094,0.146,0.22,0.146,0.354s-0.052,0.259-0.146,0.354S14.134,10.998,14,10.998z
		 M12,7.998c-0.276,0-0.5,0.224-0.5,0.5s0.224,0.5,0.5,0.5c0.276,0,0.5-0.224,0.5-0.5S12.276,7.998,12,7.998z"/>
	<path d="M18.5,23.998c-0.276,0-0.5-0.224-0.5-0.5v-1.5H6v1.5c0,0.276-0.224,0.5-0.5,0.5S5,23.774,5,23.498v-1.5l-0.536,0
		c-0.642,0-1.251-0.247-1.714-0.696c-0.474-0.459-0.74-1.074-0.751-1.734l0-1.592c0-0.09,0.005-0.181,0.016-0.274
		c-1.562-0.725-2.366-2.471-1.877-4.147c0.261-0.898,0.857-1.64,1.676-2.089c0.28-0.154,0.581-0.268,0.897-0.34
		c-0.102-0.555-0.155-1.11-0.157-1.655c0-0.722,0.083-1.443,0.247-2.145c0.574-2.463,2.073-4.555,4.22-5.89
		c1.505-0.937,3.229-1.432,4.983-1.432c0.724,0,1.453,0.084,2.166,0.25c2.463,0.574,4.555,2.073,5.89,4.22
		c1.242,1.998,1.693,4.354,1.279,6.663c0.298,0.073,0.581,0.183,0.846,0.328c0.82,0.45,1.415,1.192,1.676,2.089
		c0.489,1.676-0.315,3.422-1.878,4.147C21.995,17.795,22,17.887,22,17.976v1.559c-0.003,1.359-1.11,2.463-2.468,2.463l-0.532,0v1.5
		C19,23.774,18.776,23.998,18.5,23.998z M6.407,15.868c-0.821,0.202-1.611,0.429-2.349,0.675c-0.635,0.2-1.058,0.775-1.058,1.433
		v1.559c0.006,0.408,0.161,0.772,0.447,1.05c0.276,0.267,0.631,0.414,1.001,0.414l15.08,0c0.395,0,0.762-0.152,1.04-0.427
		c0.278-0.277,0.431-0.645,0.432-1.037v-1.557c0-0.658-0.422-1.233-1.05-1.43c-0.745-0.249-1.538-0.477-2.36-0.679
		c-0.069-0.004-0.129-0.019-0.184-0.044c-1.784-0.427-3.603-0.691-5.406-0.788c-1.804,0.096-3.622,0.361-5.406,0.787
		C6.537,15.85,6.475,15.865,6.407,15.868z M3.495,12.033c-0.415,0-0.83,0.107-1.199,0.31c-0.585,0.321-1.011,0.851-1.197,1.492
		c-0.335,1.151,0.189,2.36,1.227,2.907c0.31-0.546,0.817-0.958,1.424-1.149c0.696-0.232,1.44-0.449,2.211-0.644
		c0.21-1.241-0.541-2.459-1.763-2.815C3.968,12.067,3.731,12.033,3.495,12.033z M18.039,14.949c0.774,0.196,1.52,0.413,2.219,0.646
		c0.602,0.189,1.107,0.601,1.416,1.146c1.039-0.547,1.562-1.756,1.227-2.907c-0.187-0.641-0.612-1.171-1.198-1.492
		c-0.369-0.203-0.784-0.31-1.199-0.31c-0.236,0-0.473,0.034-0.703,0.101c-0.641,0.187-1.171,0.612-1.492,1.198
		C18.039,13.825,17.945,14.394,18.039,14.949z M3.714,11.042c0.26,0.016,0.517,0.06,0.764,0.132c1.561,0.455,2.592,1.934,2.514,3.53
		c1.643-0.357,3.317-0.582,4.982-0.669c0.004,0,0.048,0,0.053,0c1.664,0.087,3.338,0.312,4.98,0.668
		c-0.034-0.646,0.111-1.28,0.426-1.854c0.45-0.819,1.192-1.415,2.09-1.676c0.268-0.078,0.542-0.124,0.819-0.137
		c0.394-2.089-0.004-4.224-1.13-6.034c-1.194-1.921-3.065-3.261-5.268-3.774c-0.638-0.149-1.291-0.224-1.938-0.224
		c-1.568,0-3.109,0.443-4.456,1.281C5.63,3.48,4.29,5.351,3.776,7.553C3.63,8.181,3.556,8.826,3.555,9.469
		C3.557,9.987,3.61,10.515,3.714,11.042z"/>
</g>
</svg>
