<?xml version="1.0" encoding="utf-8"?>
<!-- Generator: Adobe Illustrator 22.1.0, SVG Export Plug-In . SVG Version: 6.00 Build 0)  -->
<svg version="1.1" id="Light" xmlns="http://www.w3.org/2000/svg" xmlns:xlink="http://www.w3.org/1999/xlink" x="0px" y="0px"
	 viewBox="0 0 24 24" style="enable-background:new 0 0 24 24;" xml:space="preserve">
<g>
	<title>armchair-hanging</title>
	<path d="M11.914,20.5c-2.438,0-4.715-1.313-5.944-3.428c-0.006-0.009-0.019-0.034-0.021-0.037c-0.159-0.274-0.3-0.565-0.414-0.85
		c-0.05-0.124-0.048-0.26,0.005-0.383s0.15-0.218,0.274-0.267C5.874,15.512,5.936,15.5,6,15.5c0.206,0,0.388,0.124,0.464,0.315
		c0.044,0.111,0.095,0.224,0.155,0.347c1.643-0.761,3.453-1.162,5.25-1.162L12.006,15l0.152-0.001c1.781,0,3.581,0.401,5.223,1.163
		c0.06-0.123,0.111-0.236,0.155-0.347C17.612,15.624,17.794,15.5,18,15.5c0.064,0,0.126,0.012,0.185,0.036
		c0.124,0.049,0.221,0.144,0.274,0.267c0.053,0.123,0.054,0.259,0.005,0.383c-0.115,0.289-0.258,0.582-0.423,0.869
		c-0.001,0.003-0.003,0.006-0.005,0.008c-1.226,2.121-3.502,3.438-5.941,3.438L11.914,20.5z M12.107,19.501
		c1.872,0,3.672-0.941,4.763-2.474c-1.486-0.673-3.11-1.028-4.714-1.028L12.006,16l-0.14-0.001c-1.617,0-3.248,0.355-4.735,1.028
		c1.093,1.533,2.894,2.474,4.766,2.474c0,0,0.097-0.001,0.099-0.001C11.998,19.5,12.107,19.501,12.107,19.501z"/>
	<path d="M12,24c-4.963,0-9-4.71-9-10.5C3,7.969,6.791,3.325,11.5,3.019V0.5C11.5,0.224,11.724,0,12,0c0.276,0,0.5,0.224,0.5,0.5
		v2.519C17.209,3.325,21,7.969,21,13.5C21,19.29,16.963,24,12,24z M12,4c-4.411,0-8,4.262-8,9.5S7.589,23,12,23
		c4.411,0,8-4.262,8-9.5S16.411,4,12,4z"/>
</g>
</svg>
