<?xml version="1.0" encoding="utf-8"?>
<!-- Generator: Adobe Illustrator 22.1.0, SVG Export Plug-In . SVG Version: 6.00 Build 0)  -->
<svg version="1.1" id="Layer_1" xmlns="http://www.w3.org/2000/svg" xmlns:xlink="http://www.w3.org/1999/xlink" x="0px" y="0px"
	 viewBox="0 0 24 24" style="enable-background:new 0 0 24 24;" xml:space="preserve">
<g>
	<title>armchair-modern-1</title>
	<path d="M5.5,24C5.224,24,5,23.776,5,23.5S5.224,23,5.5,23h6v-4.016c-2.484-0.131-4.851-1.253-6.531-3.103
		c-0.003-0.002-0.005-0.004-0.008-0.006c-0.036-0.032-0.055-0.062-0.065-0.078C3.356,14.071,2.5,11.828,2.5,9.5
		c0-1.781,0.5-3.52,1.446-5.03c0.016-0.032,0.035-0.057,0.053-0.081C5.746,1.648,8.742,0,12,0c3.258,0,6.254,1.648,8.014,4.408
		c0.004,0.004,0.022,0.027,0.039,0.061C21,5.979,21.5,7.719,21.5,9.5c0,2.323-0.852,4.56-2.399,6.302
		c-0.012,0.019-0.031,0.045-0.059,0.07c-0.003,0.003-0.007,0.006-0.01,0.009c-1.68,1.85-4.047,2.972-6.531,3.103V23h6
		c0.276,0,0.5,0.224,0.5,0.5S18.776,24,18.5,24H5.5z M5.986,15.497C7.594,17.113,9.72,18,12,18s4.406-0.887,6.014-2.503
		c-1.481-1.487-3.439-2.367-5.542-2.484C12.311,13.004,12.149,13,11.988,13c-2.086,0-4.094,0.769-5.655,2.165
		C6.222,15.264,6.107,15.374,5.986,15.497z M4.462,5.581C3.832,6.788,3.5,8.136,3.5,9.5c0,1.901,0.645,3.754,1.82,5.249
		c0.121-0.122,0.234-0.229,0.346-0.329C5.776,14.322,5.887,14.228,6,14.136V8.03c0-0.339-0.117-0.672-0.328-0.937L4.462,5.581z
		 M18,14.136c0.235,0.192,0.463,0.397,0.68,0.613c1.176-1.494,1.82-3.347,1.82-5.248c0-1.365-0.332-2.712-0.962-3.919l-1.21,1.513
		C18.117,7.358,18,7.691,18,8.03V14.136z M6.452,6.469C6.806,6.91,7,7.465,7,8.03v5.393C8.498,12.49,10.212,12,11.987,12
		c0.18,0,0.361,0.005,0.542,0.015c1.594,0.089,3.13,0.572,4.471,1.404V8.03c0-0.565,0.194-1.12,0.547-1.561l1.44-1.801
		C17.393,2.368,14.795,1,12,1S6.607,2.368,5.012,4.668L6.452,6.469z"/>
</g>
</svg>
