<?xml version="1.0" encoding="utf-8"?>
<!-- Generator: Adobe Illustrator 22.1.0, SVG Export Plug-In . SVG Version: 6.00 Build 0)  -->
<svg version="1.1" id="Light" xmlns="http://www.w3.org/2000/svg" xmlns:xlink="http://www.w3.org/1999/xlink" x="0px" y="0px"
	 viewBox="0 0 24 24" style="enable-background:new 0 0 24 24;" xml:space="preserve">
<g>
	<title>hair-skin-1</title>
	<path d="M0.75,22.718c-0.412,0-0.748-0.335-0.75-0.747c0-0.001,0-0.003,0-0.004c0.002-0.412,0.338-0.747,0.749-0.747
		c0.413,0,0.749,0.334,0.751,0.746c0,0.001,0,0.003,0,0.004C1.498,22.383,1.162,22.718,0.75,22.718z"/>
	<path d="M3.249,19.242c-0.411,0-0.747-0.334-0.749-0.746c0-0.001,0-0.004,0-0.005c0.002-0.412,0.338-0.747,0.749-0.747
		c0.413,0,0.749,0.334,0.751,0.746c0,0,0,0.002,0,0.002c0,0.413-0.336,0.749-0.749,0.749H3.249z"/>
	<path d="M0.749,16.262c-0.411,0-0.747-0.334-0.749-0.746c0-0.001,0-0.003,0-0.004c0.002-0.412,0.338-0.747,0.749-0.747
		c0.413,0,0.749,0.334,0.751,0.746c0,0.001,0,0.003,0,0.004c-0.002,0.412-0.338,0.747-0.749,0.747H0.749z"/>
	<path d="M6.75,22.718c-0.412,0-0.748-0.335-0.75-0.747c0-0.001,0-0.003,0-0.004c0.002-0.412,0.338-0.747,0.749-0.747
		c0.413,0,0.749,0.334,0.751,0.746c0,0.001,0,0.003,0,0.004C7.498,22.383,7.162,22.718,6.75,22.718z"/>
	<path d="M9.249,19.242c-0.411,0-0.747-0.334-0.749-0.746c0-0.001,0-0.004,0-0.005c0.002-0.412,0.338-0.747,0.749-0.747
		c0.413,0,0.749,0.334,0.751,0.746c0,0,0,0.002,0,0.002c0,0.413-0.336,0.749-0.749,0.749H9.249z"/>
	<path d="M14.75,22.718c-0.412,0-0.749-0.335-0.75-0.747c0-0.001,0-0.002,0-0.003c0.001-0.201,0.079-0.389,0.222-0.53
		c0.141-0.14,0.328-0.217,0.527-0.217c0.009,0,0.018,0,0.027,0.001c0.197,0.011,0.373,0.087,0.502,0.216
		c0.142,0.141,0.221,0.329,0.222,0.529c0,0.001,0,0.003,0,0.003C15.499,22.383,15.162,22.718,14.75,22.718z"/>
	<path d="M17.249,19.242c-0.199,0-0.386-0.077-0.528-0.217c-0.142-0.141-0.221-0.329-0.221-0.529c0-0.001,0-0.003,0-0.004
		c0.001-0.201,0.079-0.388,0.221-0.53c0.126-0.125,0.297-0.199,0.495-0.215c0.011-0.001,0.022-0.002,0.033-0.002
		c0.201,0,0.388,0.077,0.53,0.217c0.142,0.141,0.221,0.329,0.221,0.529c0,0.415-0.336,0.751-0.749,0.751H17.249z"/>
	<path d="M12.249,16.262c-0.411,0-0.747-0.334-0.749-0.746c0-0.001,0-0.003,0-0.004c0.002-0.412,0.338-0.747,0.749-0.747
		c0.201,0,0.388,0.077,0.529,0.217c0.142,0.141,0.221,0.329,0.221,0.529c0,0.001,0,0.003,0,0.003
		c-0.001,0.201-0.079,0.388-0.221,0.53c-0.141,0.14-0.329,0.218-0.528,0.218H12.249z"/>
	<path d="M20.75,22.718c-0.412,0-0.749-0.335-0.75-0.747c0-0.001,0-0.002,0-0.003c0.001-0.201,0.079-0.389,0.222-0.53
		c0.141-0.14,0.328-0.217,0.527-0.217c0.201,0,0.388,0.077,0.529,0.217c0.142,0.141,0.221,0.329,0.222,0.529
		c0,0.001,0,0.003,0,0.003C21.499,22.383,21.162,22.718,20.75,22.718z"/>
	<path d="M23.249,19.242c-0.199,0-0.386-0.077-0.528-0.217c-0.142-0.141-0.221-0.329-0.221-0.529c0-0.001,0-0.003,0-0.004
		c0.001-0.201,0.079-0.388,0.221-0.53c0.126-0.125,0.297-0.2,0.495-0.215c0.011-0.001,0.022-0.002,0.033-0.002
		c0.201,0,0.388,0.077,0.53,0.217c0.142,0.141,0.221,0.329,0.221,0.529c0,0.415-0.336,0.751-0.749,0.751H23.249z"/>
	<path d="M5.882,13.783c-0.446,0-0.881-0.164-1.227-0.462c-0.384-0.331-0.616-0.793-0.654-1.299
		c-0.007-0.088-0.007-0.177-0.001-0.266C4,10.783,5.89,2.005,7.013,0.987C7.158,0.856,7.317,0.79,7.487,0.79
		c0.021,0,0.042,0.001,0.062,0.003C7.806,0.818,8,1.032,8,1.29v10.5c-0.002,0.534-0.211,1.034-0.589,1.41
		c-0.376,0.374-0.875,0.579-1.405,0.579C5.973,13.782,5.928,13.783,5.882,13.783z M7,3.297C6.766,3.992,6.465,4.998,6.097,6.444
		C5.417,9.116,5,11.359,5,11.79c-0.004,0.072-0.004,0.115-0.001,0.159c0.018,0.24,0.128,0.458,0.31,0.615
		c0.164,0.141,0.37,0.219,0.582,0.219c0.023,0,0.047-0.001,0.071-0.003c0.304-0.001,0.554-0.101,0.745-0.29
		C6.895,12.303,6.999,12.054,7,11.788V3.297z"/>
	<path d="M17.883,13.783c-0.446,0-0.881-0.164-1.227-0.462c-0.384-0.331-0.616-0.792-0.654-1.299
		c-0.007-0.087-0.007-0.177-0.001-0.266C16,10.783,17.89,2.004,19.013,0.987c0.145-0.131,0.304-0.198,0.473-0.198
		c0.021,0,0.042,0.001,0.062,0.003C19.806,0.818,20,1.032,20,1.29v10.5c-0.002,0.534-0.211,1.034-0.589,1.41
		c-0.376,0.374-0.875,0.579-1.405,0.579C17.973,13.782,17.928,13.783,17.883,13.783z M19,3.297
		c-0.234,0.695-0.535,1.701-0.903,3.147C17.417,9.116,17,11.359,17,11.79c-0.004,0.072-0.004,0.115-0.001,0.159
		c0.018,0.24,0.128,0.458,0.31,0.615c0.164,0.141,0.37,0.219,0.582,0.219c0.023,0,0.047-0.001,0.071-0.003
		c0.304-0.001,0.554-0.101,0.745-0.29c0.188-0.187,0.292-0.436,0.293-0.702V3.297z"/>
	<path d="M18.004,16.291c-0.167,0-0.337-0.01-0.505-0.031c-1.818-0.227-3.246-1.655-3.473-3.473H9.968
		c-0.131,1.06-0.669,2.005-1.512,2.661c-0.709,0.552-1.556,0.843-2.448,0.843c-0.167,0-0.337-0.01-0.504-0.031
		c-1.818-0.227-3.246-1.655-3.473-3.473H0.5c-0.276,0-0.5-0.224-0.5-0.5c0-0.276,0.224-0.5,0.5-0.5h1.527
		c0.509,0.009,0.935,0.386,0.996,0.876c0.17,1.363,1.242,2.435,2.605,2.605c0.126,0.016,0.254,0.024,0.379,0.024
		c0.668,0,1.303-0.219,1.835-0.633c0.633-0.492,1.036-1.201,1.135-1.996c0.062-0.499,0.488-0.875,0.99-0.876h4.06
		c0.503,0.001,0.929,0.378,0.991,0.876c0.17,1.363,1.242,2.435,2.605,2.605c0.125,0.016,0.251,0.024,0.376,0.024
		c1.508,0,2.786-1.13,2.973-2.629c0.062-0.499,0.489-0.876,0.992-0.876H23.5c0.276,0,0.5,0.224,0.5,0.5c0,0.276-0.224,0.5-0.5,0.5
		h-1.532c-0.136,1.061-0.674,2.006-1.517,2.661C19.742,15.999,18.896,16.291,18.004,16.291z"/>
</g>
</svg>
