<?xml version="1.0" encoding="utf-8"?>
<!-- Generator: Adobe Illustrator 22.1.0, SVG Export Plug-In . SVG Version: 6.00 Build 0)  -->
<svg version="1.1" id="Light" xmlns="http://www.w3.org/2000/svg" xmlns:xlink="http://www.w3.org/1999/xlink" x="0px" y="0px"
	 viewBox="0 0 24 24" style="enable-background:new 0 0 24 24;" xml:space="preserve">
<g>
	<title>hair-under-skin</title>
	<path d="M10.5,9.75c-0.276,0-0.5-0.224-0.5-0.5s0.224-0.5,0.5-0.5H14c0.276,0,0.5,0.224,0.5,0.5s-0.224,0.5-0.5,0.5H10.5z"/>
	<path d="M1.5,20.75c-0.827,0-1.5-0.673-1.5-1.5v-9c0-0.827,0.673-1.5,1.5-1.5H6c0.276,0,0.5,0.224,0.5,0.5S6.276,9.75,6,9.75H1.5
		c-0.276,0-0.5,0.224-0.5,0.5v0.899l1.465,1.219c0.26,0.216,0.587,0.335,0.92,0.335c0.381,0,0.742-0.15,1.015-0.424
		c0.462-0.462,1.072-0.716,1.719-0.716c0.375,0,0.74,0.086,1.072,0.25c0.057-0.406,0.124-0.795,0.202-1.179
		c0.685-3.356,2.182-5.881,4.331-7.302C11.806,3.279,11.901,3.25,12,3.25c0.169,0,0.324,0.084,0.417,0.224
		c0.074,0.111,0.1,0.245,0.073,0.376c-0.027,0.131-0.103,0.244-0.214,0.317C9.438,6.043,8.451,9.66,8.127,12.429
		c0.272,0.134,0.572,0.204,0.877,0.204c0.463,0,0.914-0.163,1.269-0.459c0.453-0.377,1.024-0.585,1.607-0.585
		c0.667,0,1.296,0.262,1.772,0.737c0.282,0.282,0.657,0.438,1.056,0.438c0.126,0,0.251-0.016,0.374-0.047
		c0.069-0.713,0.173-1.413,0.31-2.082c0.685-3.356,2.182-5.881,4.331-7.302C19.806,3.279,19.901,3.25,20,3.25
		c0.168,0,0.324,0.084,0.417,0.224c0.074,0.111,0.1,0.245,0.073,0.376c-0.027,0.131-0.103,0.244-0.214,0.317
		c-2.715,1.795-3.737,5.184-4.104,7.907l0.152-0.109c0.43-0.307,0.935-0.469,1.459-0.469c0.668,0,1.298,0.261,1.773,0.736
		c0.287,0.287,0.666,0.446,1.066,0.446c0.35,0,0.693-0.125,0.966-0.353L23,11.149V10.25c0-0.276-0.224-0.5-0.5-0.5h-4
		c-0.276,0-0.5-0.224-0.5-0.5s0.224-0.5,0.5-0.5h4c0.827,0,1.5,0.673,1.5,1.5v9c0,0.827-0.673,1.5-1.5,1.5H1.5z M1,19.25
		c0,0.276,0.224,0.5,0.5,0.5h21c0.276,0,0.5-0.224,0.5-0.5v-6.799l-0.771,0.643c-0.453,0.377-1.024,0.585-1.607,0.585
		c-0.667,0-1.297-0.262-1.773-0.739c-0.286-0.286-0.665-0.443-1.066-0.443c-0.315,0-0.619,0.098-0.878,0.283l-0.73,0.523
		c-0.046,0.033-0.092,0.062-0.138,0.088c-0.043,0.622-0.05,1.124-0.047,1.443C16.586,15.039,17,15.606,17,16.25
		c0,0.827-0.673,1.5-1.5,1.5s-1.5-0.673-1.5-1.5c0-0.634,0.405-1.196,0.988-1.409c-0.003-0.254-0.001-0.629,0.021-1.091
		c-0.1,0.013-0.196,0.02-0.291,0.02c-0.667,0-1.297-0.261-1.772-0.736c-0.287-0.286-0.665-0.444-1.066-0.444
		c-0.351,0-0.694,0.125-0.967,0.353c-0.535,0.446-1.213,0.691-1.909,0.691c-0.33,0-0.661-0.056-0.973-0.163
		c-0.039,0.585-0.045,1.056-0.043,1.363C8.586,15.039,9,15.606,9,16.25c0,0.827-0.673,1.5-1.5,1.5S6,17.077,6,16.25
		c0-0.633,0.405-1.196,0.988-1.409c-0.005-0.413,0.004-1.087,0.077-1.922l-0.027-0.023c-0.257-0.214-0.583-0.333-0.916-0.333
		c-0.381,0-0.742,0.15-1.015,0.423c-0.463,0.463-1.074,0.717-1.722,0.717c-0.566,0-1.12-0.202-1.56-0.568L1,12.449V19.25z
		 M15.5,15.75c-0.276,0-0.5,0.224-0.5,0.5s0.224,0.5,0.5,0.5s0.5-0.224,0.5-0.5S15.776,15.75,15.5,15.75z M7.5,15.75
		c-0.276,0-0.5,0.224-0.5,0.5s0.224,0.5,0.5,0.5S8,16.525,8,16.25S7.776,15.75,7.5,15.75z"/>
	<circle cx="2.75" cy="16.5" r="0.75"/>
	<circle cx="4.5" cy="18" r="0.75"/>
	<circle cx="10" cy="18.25" r="0.75"/>
	<circle cx="12.5" cy="16.25" r="0.75"/>
	<circle cx="18" cy="18.25" r="0.75"/>
	<circle cx="20.5" cy="16.25" r="0.75"/>
</g>
</svg>
