<?xml version="1.0" encoding="utf-8"?>
<!-- Generator: Adobe Illustrator 22.1.0, SVG Export Plug-In . SVG Version: 6.00 Build 0)  -->
<svg version="1.1" id="Layer_1" xmlns="http://www.w3.org/2000/svg" xmlns:xlink="http://www.w3.org/1999/xlink" x="0px" y="0px"
	 viewBox="0 0 24 24" style="enable-background:new 0 0 24 24;" xml:space="preserve">
<g>
	<title>smart-house-phone-lock-1</title>
	<path d="M16.5,24c-0.827,0-1.5-0.673-1.5-1.5v-12C15,9.673,15.673,9,16.5,9h6c0.827,0,1.5,0.673,1.5,1.5v12
		c0,0.827-0.673,1.5-1.5,1.5H16.5z M16,22.5c0,0.276,0.224,0.5,0.5,0.5h6c0.276,0,0.5-0.224,0.5-0.5V22h-7V22.5z M23,21v-9h-7v9H23z
		 M23,11v-0.5c0-0.276-0.224-0.5-0.5-0.5h-6c-0.276,0-0.5,0.224-0.5,0.5V11H23z"/>
	<path d="M4,18c-0.551,0-1-0.448-1-1V8c0-0.276,0.224-0.5,0.5-0.5S4,7.724,4,8v9h9.5c0.276,0,0.5,0.224,0.5,0.5S13.776,18,13.5,18H4
		z"/>
	<path d="M19.5,8c-0.108,0-0.21-0.034-0.297-0.098l-8.695-6.407c-0.142-0.095-0.32-0.149-0.505-0.149
		c-0.189,0-0.372,0.056-0.53,0.162L0.797,7.902C0.71,7.966,0.607,8,0.5,8l0,0C0.342,8,0.192,7.924,0.098,7.796
		c-0.163-0.222-0.116-0.536,0.106-0.699L8.899,0.69c0.337-0.226,0.716-0.342,1.105-0.342c0.385,0,0.758,0.114,1.08,0.329l8.713,6.42
		c0.108,0.079,0.178,0.196,0.198,0.328s-0.013,0.264-0.092,0.372C19.809,7.924,19.659,8,19.5,8z"/>
	<path d="M7.5,15C6.673,15,6,14.327,6,13.5v-3c0-0.64,0.41-1.205,1-1.414V8.5C7,7.121,8.122,6,9.5,6S12,7.121,12,8.5v0.586
		c0.59,0.209,1,0.774,1,1.414v3c0,0.827-0.673,1.5-1.5,1.5H7.5z M7.5,10C7.225,10,7,10.224,7,10.5v3C7,13.775,7.225,14,7.5,14h4
		c0.276,0,0.5-0.224,0.5-0.5v-3c0-0.276-0.224-0.5-0.5-0.5H7.5z M11,9V8.5C11,7.673,10.327,7,9.5,7S8,7.673,8,8.5V9H11z"/>
	<circle cx="9.5" cy="12.02" r="0.75"/>
</g>
</svg>
