<?xml version="1.0" encoding="utf-8"?>
<!-- Generator: Adobe Illustrator 22.1.0, SVG Export Plug-In . SVG Version: 6.00 Build 0)  -->
<svg version="1.1" id="Layer_1" xmlns="http://www.w3.org/2000/svg" xmlns:xlink="http://www.w3.org/1999/xlink" x="0px" y="0px"
	 viewBox="0 0 24 24" style="enable-background:new 0 0 24 24;" xml:space="preserve">
<g>
	<title>smart-house-light-on</title>
	<path d="M6.5,10C5.122,10,4,8.879,4,7.5c0-0.789,0.371-1.526,1-1.998V4c0-0.551,0.449-1,1-1V0.5C6,0.224,6.224,0,6.5,0h12
		C18.776,0,19,0.224,19,0.5V3h1c0.326,0,0.594,0.149,0.717,0.398c0.122,0.249,0.077,0.551-0.121,0.808l-1.39,1.8
		c-0.044,0.069-0.127,0.151-0.221,0.214c-0.142,0.094-0.308,0.144-0.478,0.144c-0.292,0-0.562-0.145-0.723-0.387l-1.378-1.769
		c-0.201-0.273-0.241-0.569-0.115-0.817C16.414,3.146,16.679,3,17,3h1V1H7v2c0.551,0,1,0.449,1,1v1.502C8.629,5.974,9,6.711,9,7.5
		C9,8.879,7.879,10,6.5,10z M6.5,6C5.673,6,5,6.673,5,7.5S5.673,9,6.5,9S8,8.327,8,7.5S7.327,6,6.5,6z M18.505,5.278L19.492,4h-1.98
		L18.505,5.278z M6,5.052C6.166,5.017,6.333,5,6.5,5S6.835,5.017,7,5.052V4H6V5.052z"/>
	<path d="M18.5,9c-0.667,0-1.295-0.26-1.768-0.732c-0.094-0.094-0.146-0.22-0.146-0.354c0-0.134,0.052-0.259,0.146-0.354
		s0.22-0.146,0.354-0.146s0.259,0.052,0.354,0.146C17.723,7.844,18.099,8,18.5,8s0.777-0.156,1.06-0.439
		c0.094-0.094,0.22-0.146,0.354-0.146s0.259,0.052,0.354,0.146c0.094,0.094,0.146,0.22,0.146,0.354c0,0.134-0.052,0.259-0.146,0.354
		C19.796,8.74,19.168,9,18.5,9z"/>
	<path d="M18.5,10.998c-1.203,0-2.333-0.467-3.181-1.316c-0.094-0.094-0.146-0.22-0.146-0.354c0-0.134,0.052-0.259,0.146-0.354
		s0.22-0.146,0.354-0.146s0.259,0.052,0.354,0.146c0.66,0.66,1.539,1.023,2.474,1.023c0.936,0,1.815-0.363,2.475-1.023
		c0.094-0.094,0.22-0.146,0.354-0.146s0.259,0.052,0.354,0.146s0.146,0.22,0.146,0.354c0,0.134-0.052,0.259-0.146,0.354
		C20.833,10.531,19.703,10.998,18.5,10.998z"/>
	<path d="M18.5,12.998c-1.738,0-3.37-0.675-4.596-1.901c-0.097-0.097-0.098-0.255,0-0.353l0.353-0.354
		c0.047-0.047,0.111-0.073,0.177-0.074h0c0.066,0,0.13,0.026,0.177,0.073c1.037,1.037,2.419,1.608,3.89,1.608
		c1.471,0,2.852-0.571,3.889-1.608c0.094-0.094,0.22-0.146,0.354-0.146s0.259,0.052,0.354,0.146c0.094,0.094,0.146,0.22,0.146,0.354
		c0,0.134-0.052,0.259-0.146,0.354C21.871,12.323,20.238,12.998,18.5,12.998z"/>
	<path d="M6.5,13.5C6.224,13.5,6,13.276,6,13v-1.5C6,11.224,6.224,11,6.5,11S7,11.224,7,11.5V13C7,13.276,6.776,13.5,6.5,13.5z"/>
	<path d="M10.5,12c-0.134,0-0.259-0.052-0.354-0.146l-1-1C9.052,10.759,9,10.634,9,10.5s0.052-0.259,0.146-0.354S9.367,10,9.5,10
		s0.259,0.052,0.354,0.146l1,1C10.948,11.241,11,11.366,11,11.5s-0.052,0.259-0.146,0.354S10.634,12,10.5,12z"/>
	<path d="M10.5,8C10.224,8,10,7.776,10,7.5S10.224,7,10.5,7H12c0.276,0,0.5,0.224,0.5,0.5S12.276,8,12,8H10.5z"/>
	<path d="M2.5,12c-0.134,0-0.259-0.052-0.354-0.146S2,11.634,2,11.5s0.052-0.259,0.146-0.354l1-1C3.241,10.052,3.367,10,3.5,10
		s0.259,0.052,0.354,0.146S4,10.366,4,10.5s-0.052,0.259-0.146,0.354l-1,1C2.759,11.948,2.634,12,2.5,12z"/>
	<path d="M1,8C0.724,8,0.5,7.776,0.5,7.5S0.724,7,1,7h1.5C2.776,7,3,7.224,3,7.5S2.776,8,2.5,8H1z"/>
	<path d="M13,19.5c-1.516,0-2.75-1.234-2.75-2.75S11.484,14,13,14s2.75,1.234,2.75,2.75S14.516,19.5,13,19.5z M13,15
		c-0.965,0-1.75,0.785-1.75,1.75S12.035,18.5,13,18.5c0.965,0,1.75-0.785,1.75-1.75S13.965,15,13,15z"/>
	<path d="M8.5,24c-0.156,0-0.3-0.071-0.395-0.193s-0.128-0.28-0.089-0.431c0.466-1.822,1.887-3.243,3.709-3.709
		c0.418-0.107,0.847-0.161,1.276-0.161c2.352,0,4.401,1.592,4.984,3.87c0.038,0.151,0.006,0.308-0.089,0.431
		C17.801,23.928,17.653,24,17.5,24H8.5z M16.803,23c-0.652-1.505-2.139-2.494-3.803-2.494c-0.345,0-0.69,0.044-1.027,0.13
		C10.72,20.956,9.705,21.828,9.198,23H16.803z"/>
</g>
</svg>
