<?xml version="1.0" encoding="utf-8"?>
<!-- Generator: Adobe Illustrator 22.1.0, SVG Export Plug-In . SVG Version: 6.00 Build 0)  -->
<svg version="1.1" id="Layer_1" xmlns="http://www.w3.org/2000/svg" xmlns:xlink="http://www.w3.org/1999/xlink" x="0px" y="0px"
	 viewBox="0 0 24 24" style="enable-background:new 0 0 24 24;" xml:space="preserve">
<g>
	<title>smart-house-window</title>
	<path d="M17.657,3.584c-0.668,0-1.296-0.26-1.768-0.731c-0.094-0.094-0.146-0.22-0.146-0.354c0-0.134,0.052-0.259,0.146-0.354
		S16.109,2,16.243,2s0.259,0.052,0.354,0.146c0.283,0.283,0.659,0.438,1.061,0.438s0.778-0.156,1.061-0.438
		C18.812,2.052,18.938,2,19.071,2s0.259,0.052,0.354,0.146s0.146,0.22,0.146,0.354c0,0.134-0.052,0.259-0.146,0.354
		C18.953,3.325,18.326,3.584,17.657,3.584z"/>
	<path d="M17.657,6.584c-1.471,0-2.852-0.571-3.889-1.609c-0.094-0.094-0.146-0.22-0.146-0.354s0.052-0.259,0.146-0.354
		s0.22-0.146,0.354-0.146s0.259,0.052,0.354,0.146c0.849,0.849,1.979,1.316,3.182,1.316c1.203,0,2.333-0.467,3.182-1.316
		c0.094-0.094,0.22-0.146,0.354-0.146s0.259,0.052,0.354,0.146c0.195,0.195,0.195,0.512,0,0.707
		C20.508,6.013,19.127,6.584,17.657,6.584z"/>
	<path d="M17.657,9.582c-2.273,0-4.407-0.883-6.01-2.486C11.552,7.002,11.5,6.877,11.5,6.743s0.052-0.259,0.146-0.354
		S11.867,6.243,12,6.243s0.259,0.052,0.354,0.146c1.414,1.414,3.298,2.193,5.303,2.193c2.006,0,3.889-0.779,5.303-2.193
		c0.094-0.094,0.22-0.146,0.354-0.146s0.259,0.052,0.354,0.146s0.146,0.22,0.146,0.354s-0.052,0.259-0.146,0.354
		C22.065,8.7,19.93,9.582,17.657,9.582z"/>
	<path d="M1.5,22.5C0.673,22.5,0,21.827,0,21V9c0-0.827,0.673-1.5,1.5-1.5h8C9.776,7.5,10,7.724,10,8S9.776,8.5,9.5,8.5H8v6h6V12
		c0-0.276,0.224-0.5,0.5-0.5S15,11.724,15,12v9c0,0.827-0.673,1.5-1.5,1.5H1.5z M13.5,21.5c0.276,0,0.5-0.224,0.5-0.5v-5.5H8v6H13.5
		z M1,21c0,0.276,0.224,0.5,0.5,0.5H7v-6H1V21z M7,14.5v-6H1.5C1.224,8.5,1,8.724,1,9v5.5H7z"/>
</g>
</svg>
