<?xml version="1.0" encoding="utf-8"?>
<!-- Generator: Adobe Illustrator 22.1.0, SVG Export Plug-In . SVG Version: 6.00 Build 0)  -->
<svg version="1.1" id="Layer_1" xmlns="http://www.w3.org/2000/svg" xmlns:xlink="http://www.w3.org/1999/xlink" x="0px" y="0px"
	 viewBox="0 0 24 24" style="enable-background:new 0 0 24 24;" xml:space="preserve">
<g>
	<title>smart-house-power</title>
	<path d="M14.5,10C14.224,10,14,9.776,14,9.5v-4C14,5.224,14.224,5,14.5,5S15,5.224,15,5.5v4C15,9.776,14.775,10,14.5,10z"/>
	<path d="M14.504,13.001c-0.066,0-0.132-0.002-0.199-0.006c-0.934-0.052-1.791-0.464-2.414-1.161
		c-1.286-1.438-1.163-3.655,0.276-4.942c0.092-0.082,0.21-0.127,0.333-0.127c0.142,0,0.278,0.061,0.373,0.167
		c0.184,0.205,0.166,0.522-0.039,0.706c-1.027,0.919-1.116,2.503-0.197,3.53c0.445,0.498,1.058,0.792,1.724,0.829
		c0.047,0.003,0.094,0.004,0.141,0.004c0.615,0,1.206-0.226,1.665-0.636c1.028-0.919,1.116-2.503,0.197-3.53
		c-0.062-0.069-0.128-0.135-0.197-0.196c-0.206-0.184-0.223-0.501-0.039-0.706c0.095-0.106,0.231-0.167,0.373-0.167
		c0.123,0,0.241,0.045,0.333,0.127c0.097,0.087,0.189,0.179,0.276,0.276c1.286,1.438,1.163,3.655-0.275,4.942
		C16.191,12.685,15.363,13.001,14.504,13.001z"/>
	<path d="M9.5,16C8.673,16,8,15.327,8,14.5V6.947L5.832,8.874C5.74,8.955,5.622,9,5.5,9C5.357,9,5.221,8.939,5.126,8.833
		C4.943,8.626,4.962,8.309,5.167,8.126l9-8C14.259,0.045,14.377,0,14.5,0s0.24,0.045,0.332,0.126l9,8
		c0.1,0.089,0.159,0.211,0.167,0.344c0.008,0.133-0.037,0.262-0.125,0.362C23.779,8.939,23.643,9,23.5,9
		c-0.123,0-0.241-0.045-0.332-0.126L21,6.947V14.5c0,0.827-0.673,1.5-1.5,1.5H9.5z M9,14.5C9,14.776,9.224,15,9.5,15h10
		c0.276,0,0.5-0.224,0.5-0.5V6.058l-5.5-4.889L9,6.058V14.5z"/>
	<path d="M1.5,24C0.673,24,0,23.327,0,22.5v-6C0,15.673,0.673,15,1.5,15h3C5.327,15,6,15.673,6,16.5v6C6,23.327,5.327,24,4.5,24H1.5
		z M1.5,16C1.224,16,1,16.224,1,16.5v6C1,22.776,1.224,23,1.5,23h3C4.775,23,5,22.776,5,22.5v-6C5,16.224,4.775,16,4.5,16H1.5z"/>
	<path d="M1.662,13.514c-0.142,0-0.277-0.06-0.372-0.166c-0.089-0.099-0.135-0.227-0.127-0.361c0.007-0.133,0.066-0.256,0.165-0.345
		C1.788,12.227,2.382,11.999,3,11.999s1.211,0.229,1.672,0.644c0.099,0.089,0.158,0.212,0.165,0.345
		c0.007,0.134-0.038,0.262-0.128,0.361c-0.094,0.105-0.23,0.165-0.372,0.165c-0.124,0-0.242-0.046-0.334-0.128
		C3.726,13.136,3.37,12.999,3,12.999s-0.727,0.137-1.004,0.386C1.904,13.468,1.785,13.514,1.662,13.514z"/>
	<path d="M5.5,11.878c-0.113,0-0.224-0.039-0.312-0.109c-0.623-0.499-1.4-0.774-2.188-0.774s-1.564,0.275-2.188,0.774
		c-0.089,0.071-0.2,0.109-0.312,0.109l0,0c-0.153,0-0.295-0.068-0.39-0.187c-0.084-0.104-0.121-0.235-0.107-0.368
		c0.015-0.133,0.08-0.252,0.184-0.335C0.988,10.347,1.987,9.994,3,9.994s2.012,0.353,2.812,0.994
		c0.104,0.083,0.17,0.203,0.184,0.335c0.015,0.133-0.023,0.263-0.107,0.368C5.794,11.81,5.652,11.878,5.5,11.878z"/>
	<circle cx="3" cy="21.25" r="0.75"/>
</g>
</svg>
