<?xml version="1.0" encoding="utf-8"?>
<!-- Generator: Adobe Illustrator 22.1.0, SVG Export Plug-In . SVG Version: 6.00 Build 0)  -->
<svg version="1.1" id="Layer_1" xmlns="http://www.w3.org/2000/svg" xmlns:xlink="http://www.w3.org/1999/xlink" x="0px" y="0px"
	 viewBox="0 0 24 24" style="enable-background:new 0 0 24 24;" xml:space="preserve">
<g>
	<title>smart-house-timer</title>
	<path d="M17.813,18c-0.128,0-0.25-0.049-0.344-0.137c-0.2-0.189-0.209-0.506-0.02-0.707c2.665-2.815,2.733-7.199,0.197-10.094
		l-0.695,0.695c-0.094,0.094-0.22,0.146-0.354,0.146s-0.259-0.052-0.354-0.146c-0.195-0.195-0.195-0.512,0-0.707l0.695-0.695
		c-1.235-1.081-2.793-1.725-4.437-1.834v0.978c0,0.276-0.224,0.5-0.5,0.5c-0.276,0-0.5-0.224-0.5-0.5V4.522
		C9.76,4.637,8.115,5.353,6.847,6.554c-3.003,2.843-3.134,7.599-0.291,10.603c0.189,0.2,0.181,0.517-0.019,0.707
		C6.443,17.951,6.321,18,6.193,18c-0.137,0-0.269-0.057-0.363-0.156c-1.558-1.646-2.382-3.804-2.319-6.076
		c0.062-2.272,1.003-4.382,2.65-5.94c1.454-1.377,3.343-2.19,5.342-2.307V2.499c0-0.276,0.224-0.5,0.5-0.5
		c0.276,0,0.5,0.224,0.5,0.5V3.52c1.911,0.112,3.721,0.86,5.146,2.127l0.717-0.717c0.094-0.094,0.22-0.146,0.354-0.146
		s0.259,0.052,0.354,0.146c0.195,0.195,0.195,0.512,0,0.707l-0.717,0.717c2.919,3.281,2.858,8.282-0.179,11.49
		C18.082,17.943,17.949,18,17.813,18L17.813,18z"/>
	<path d="M10.5,16c-0.276,0-0.5-0.224-0.5-0.5V14H7c-0.276,0-0.5-0.224-0.5-0.5c0-2.607,1.682-4.5,4-4.5C10.776,9,11,9.224,11,9.5v6
		C11,15.776,10.776,16,10.5,16z M10,13v-2.961C8.629,10.26,7.687,11.385,7.525,13H10z"/>
	<path d="M13.5,16c-0.276,0-0.5-0.224-0.5-0.5s0.224-0.5,0.5-0.5H15c0.552,0,1-0.448,1-1s-0.448-1-1-1h-0.813
		c-0.654-0.001-1.186-0.533-1.187-1.186V9.5C13,9.224,13.224,9,13.5,9h3C16.776,9,17,9.224,17,9.5S16.776,10,16.5,10H14v1.813
		C14,11.916,14.084,12,14.188,12H15c1.103,0,2,0.897,2,2s-0.897,2-2,2H13.5z"/>
	<path d="M12,24C5.383,24,0,18.617,0,12C0,5.383,5.383,0,12,0c6.617,0,12,5.383,12,12C24,18.617,18.617,24,12,24z M12,1
		C5.935,1,1,5.935,1,12s4.935,11,11,11s11-4.935,11-11S18.065,1,12,1z"/>
</g>
</svg>
