<?xml version="1.0" encoding="utf-8"?>
<!-- Generator: Adobe Illustrator 22.1.0, SVG Export Plug-In . SVG Version: 6.00 Build 0)  -->
<svg version="1.1" id="Layer_1" xmlns="http://www.w3.org/2000/svg" xmlns:xlink="http://www.w3.org/1999/xlink" x="0px" y="0px"
	 viewBox="0 0 24 24" style="enable-background:new 0 0 24 24;" xml:space="preserve">
<g>
	<title>smart-house-garage</title>
	<path d="M1.508,24C0.676,24,0,23.324,0,22.492v-9.984C0,11.677,0.676,11,1.508,11h5.984C8.323,11,9,11.677,9,12.508v9.984
		C9,23.324,8.323,24,7.492,24H1.508z M1.508,12C1.227,12,1,12.228,1,12.508v9.984C1,22.772,1.227,23,1.508,23h5.984
		C7.772,23,8,22.772,8,22.492v-9.984C8,12.228,7.772,12,7.492,12H1.508z"/>
	<path d="M2.5,20C2.224,20,2,19.776,2,19.5v-6C2,13.225,2.224,13,2.5,13h4C6.775,13,7,13.225,7,13.5v6C7,19.776,6.775,20,6.5,20H2.5
		z M6,19v-5H3v5H6z"/>
	<path d="M4,22c-0.276,0-0.5-0.224-0.5-0.5S3.724,21,4,21h1c0.276,0,0.5,0.224,0.5,0.5S5.275,22,5,22H4z"/>
	<path d="M6,10.5c-0.208,0-0.396-0.131-0.469-0.326c-0.152-0.41-0.537-0.675-0.98-0.675c0,0-0.04,0-0.042,0
		c-0.033,0-0.052-0.001-0.072-0.004C4.403,9.492,4.368,9.49,4.333,9.49c-0.396,0-0.747,0.265-0.852,0.644
		C3.421,10.35,3.223,10.5,2.999,10.5c-0.044,0-0.089-0.006-0.132-0.018c-0.267-0.074-0.423-0.35-0.349-0.616
		C2.742,9.056,3.488,8.49,4.332,8.49c0.063,0,0.126,0.003,0.19,0.01l0.045-0.001c0.842,0,1.606,0.533,1.901,1.327
		c0.047,0.125,0.042,0.261-0.014,0.382c-0.056,0.121-0.155,0.214-0.28,0.26C6.117,10.49,6.059,10.5,6,10.5z"/>
	<path d="M1.499,9C1.392,9,1.29,8.966,1.203,8.903C1.096,8.824,1.025,8.708,1.005,8.576c-0.02-0.132,0.012-0.264,0.091-0.372
		C1.882,7.137,3.136,6.5,4.453,6.5l0.09,0c1.319,0,2.575,0.637,3.36,1.704c0.079,0.108,0.112,0.24,0.091,0.372
		c-0.02,0.132-0.09,0.248-0.198,0.327C7.71,8.966,7.607,9,7.5,9C7.341,9,7.191,8.924,7.097,8.796C6.5,7.985,5.54,7.5,4.529,7.5
		l-0.07,0c-1.004,0-1.96,0.485-2.557,1.296C1.808,8.924,1.658,9,1.499,9L1.499,9z"/>
	<path d="M10.5,16c-0.276,0-0.5-0.224-0.5-0.5s0.224-0.5,0.5-0.5H11V7.5C11,7.224,11.224,7,11.5,7h8C19.775,7,20,7.224,20,7.5V15
		h0.5c0.276,0,0.5-0.224,0.5-0.5v-9C21,5.224,21.224,5,21.5,5h0.257L15.5,1.09L9.243,5H9.5C9.775,5,10,5.224,10,5.5v4
		C10,9.776,9.775,10,9.5,10S9,9.776,9,9.5V6H7.5C7.278,6,7.08,5.851,7.019,5.638C6.958,5.425,7.046,5.194,7.235,5.076l8-5
		C15.314,0.026,15.406,0,15.5,0s0.185,0.026,0.265,0.076l8,5c0.188,0.118,0.277,0.349,0.215,0.562C23.919,5.851,23.721,6,23.5,6H22
		v8.5c0,0.827-0.673,1.5-1.5,1.5H10.5z M19,15v-1h-7L19,15z M19,13v-1h-7v1H19z M19,11v-1h-7v1H19z M19,9V8h-7v1H19z"/>
</g>
</svg>
