<?xml version="1.0" encoding="utf-8"?>
<!-- Generator: Adobe Illustrator 22.1.0, SVG Export Plug-In . SVG Version: 6.00 Build 0)  -->
<svg version="1.1" id="Layer_1" xmlns="http://www.w3.org/2000/svg" xmlns:xlink="http://www.w3.org/1999/xlink" x="0px" y="0px"
	 viewBox="0 0 24 24" style="enable-background:new 0 0 24 24;" xml:space="preserve">
<g>
	<title>smart-house-phone</title>
	<path d="M4.5,24C3.121,24,2,22.878,2,21.5v-19C2,1.121,3.121,0,4.5,0h10C15.878,0,17,1.121,17,2.5v14c0,0.276-0.224,0.5-0.5,0.5
		S16,16.776,16,16.5V4H3v16h1.5C4.776,20,5,20.224,5,20.5S4.776,21,4.5,21H3v0.5C3,22.327,3.673,23,4.5,23h2
		C6.776,23,7,23.224,7,23.5S6.776,24,6.5,24H4.5z M16,3V2.5C16,1.673,15.327,1,14.5,1h-10C3.673,1,3,1.673,3,2.5V3H16z"/>
	<path d="M21.5,24c-0.276,0-0.5-0.224-0.5-0.5v-1c0-1.93-1.57-3.5-3.5-3.5h-3c-0.276,0-0.5-0.224-0.5-0.5V12c0-0.551-0.448-1-1-1
		s-1,0.449-1,1v9.824c0,0.21-0.133,0.399-0.33,0.47c-0.054,0.02-0.111,0.03-0.169,0.03c-0.149,0-0.289-0.066-0.385-0.18L8.77,19.319
		c-0.19-0.229-0.471-0.36-0.77-0.36c-0.233,0-0.46,0.082-0.639,0.231c-0.206,0.171-0.332,0.412-0.356,0.678
		C6.98,20.135,7.06,20.395,7.231,20.6l2.152,2.58c0.086,0.103,0.126,0.232,0.114,0.365c-0.012,0.133-0.075,0.253-0.178,0.339
		C9.231,23.959,9.117,24,9,24c-0.149,0-0.289-0.065-0.384-0.18l-2.153-2.58c-0.342-0.411-0.504-0.93-0.455-1.463
		c0.049-0.532,0.302-1.014,0.713-1.355c0.358-0.298,0.812-0.462,1.278-0.462c0.597,0,1.159,0.262,1.539,0.72L11,20.44V12
		c0-1.103,0.897-2,2-2s2,0.897,2,2v6h2.5c2.481,0,4.5,2.019,4.5,4.5v1C22,23.776,21.776,24,21.5,24z"/>
	<path d="M5,11c-0.155,0-0.299-0.07-0.395-0.193c-0.169-0.218-0.13-0.532,0.088-0.702l3.711-2.886
		c0.329-0.236,0.706-0.358,1.098-0.358c0.389,0,0.761,0.12,1.078,0.346l1.227,0.954c0.218,0.169,0.257,0.484,0.088,0.702
		c-0.095,0.123-0.239,0.193-0.395,0.193l0,0c-0.11,0-0.219-0.037-0.306-0.105L9.982,8.009C9.848,7.913,9.68,7.86,9.503,7.86
		c-0.181,0-0.354,0.056-0.5,0.161l-3.695,2.874C5.22,10.963,5.111,11,5,11z"/>
	<path d="M7,15c-0.551,0-1-0.448-1-1v-2.5C6,11.224,6.224,11,6.5,11S7,11.224,7,11.5V14h2.5c0.276,0,0.5,0.224,0.5,0.5
		S9.776,15,9.5,15H7z"/>
</g>
</svg>
