<?xml version="1.0" encoding="utf-8"?>
<!-- Generator: Adobe Illustrator 22.1.0, SVG Export Plug-In . SVG Version: 6.00 Build 0)  -->
<svg version="1.1" id="Layer_1" xmlns="http://www.w3.org/2000/svg" xmlns:xlink="http://www.w3.org/1999/xlink" x="0px" y="0px"
	 viewBox="0 0 24 24" style="enable-background:new 0 0 24 24;" xml:space="preserve">
<g>
	<title>smart-house-phone-remote</title>
	<path d="M9.5,24.017c-0.827,0-1.5-0.673-1.5-1.5v-10c0-0.827,0.673-1.5,1.5-1.5h5c0.827,0,1.5,0.673,1.5,1.5v10
		c0,0.827-0.673,1.5-1.5,1.5H9.5z M9,22.517c0,0.276,0.224,0.5,0.5,0.5h5c0.276,0,0.5-0.224,0.5-0.5v-0.5L9,22.517z M15,21.017v-7H9
		v7H15z M15,13.017v-0.5c0-0.276-0.224-0.5-0.5-0.5h-5c-0.276,0-0.5,0.224-0.5,0.5v0.5H15z"/>
	<path d="M10.586,10.104c-0.134,0-0.259-0.052-0.354-0.146s-0.146-0.22-0.146-0.354c0-0.134,0.052-0.259,0.147-0.354
		C10.704,8.779,11.332,8.52,12,8.52c0.668,0,1.296,0.26,1.768,0.731c0.094,0.094,0.146,0.22,0.146,0.354
		c0,0.134-0.052,0.259-0.146,0.354s-0.22,0.146-0.354,0.146s-0.259-0.052-0.354-0.146C12.778,9.675,12.401,9.52,12,9.52
		c-0.401,0-0.778,0.156-1.061,0.438C10.845,10.052,10.72,10.104,10.586,10.104z"/>
	<path d="M14.828,8.689c-0.134,0-0.259-0.052-0.354-0.146C13.815,7.883,12.936,7.52,12,7.52c-0.936,0-1.815,0.363-2.474,1.023
		c-0.094,0.094-0.22,0.146-0.354,0.146S8.913,8.637,8.819,8.543s-0.146-0.22-0.146-0.354c0-0.134,0.052-0.259,0.147-0.354
		C9.667,6.987,10.797,6.52,12,6.52s2.333,0.467,3.181,1.316c0.094,0.094,0.146,0.22,0.146,0.354c0,0.134-0.052,0.259-0.146,0.354
		S14.962,8.689,14.828,8.689z"/>
	<path d="M18,19.017c-0.276,0-0.5-0.224-0.5-0.5s0.224-0.5,0.5-0.5h2V6.691l-7.465-5.193c-0.149-0.093-0.337-0.145-0.532-0.145
		c-0.2,0-0.393,0.055-0.56,0.159L4,6.691v11.326h2c0.276,0,0.5,0.224,0.5,0.5s-0.224,0.5-0.5,0.5H4c-0.551,0-1-0.448-1-1V7.387
		L0.786,8.928C0.702,8.986,0.603,9.017,0.5,9.017c-0.164,0-0.317-0.08-0.411-0.215c-0.157-0.226-0.101-0.539,0.125-0.696
		l10.679-7.429c0.34-0.213,0.72-0.322,1.11-0.322c0.385,0,0.76,0.107,1.083,0.309l10.699,7.443c0.226,0.157,0.282,0.47,0.125,0.696
		c-0.094,0.134-0.247,0.214-0.411,0.214c-0.103,0-0.201-0.031-0.285-0.09L21,7.387v10.63c0,0.552-0.448,1-1,1H18z"/>
</g>
</svg>
