<?xml version="1.0" encoding="utf-8"?>
<!-- Generator: Adobe Illustrator 22.1.0, SVG Export Plug-In . SVG Version: 6.00 Build 0)  -->
<svg version="1.1" id="Layer_1" xmlns="http://www.w3.org/2000/svg" xmlns:xlink="http://www.w3.org/1999/xlink" x="0px" y="0px"
	 viewBox="0 0 24 24" style="enable-background:new 0 0 24 24;" xml:space="preserve">
<g>
	<title>smart-house-call</title>
	<path d="M9.5,16C8.673,16,8,15.327,8,14.5V6.947L5.832,8.874C5.74,8.955,5.622,9,5.5,9C5.357,9,5.221,8.939,5.126,8.833
		C4.943,8.626,4.962,8.309,5.167,8.126l9-8C14.259,0.045,14.377,0,14.5,0s0.24,0.045,0.332,0.126l9,8
		c0.1,0.089,0.159,0.211,0.167,0.344c0.008,0.133-0.037,0.262-0.125,0.362C23.779,8.939,23.643,9,23.5,9
		c-0.123,0-0.241-0.045-0.332-0.126L21,6.947V14.5c0,0.827-0.673,1.5-1.5,1.5H9.5z M9,14.5C9,14.776,9.224,15,9.5,15h10
		c0.276,0,0.5-0.224,0.5-0.5V6.058l-5.5-4.889L9,6.058V14.5z"/>
	<path d="M1.5,24C0.673,24,0,23.327,0,22.5v-6C0,15.673,0.673,15,1.5,15h3C5.327,15,6,15.673,6,16.5v6C6,23.327,5.327,24,4.5,24H1.5
		z M1.5,16C1.224,16,1,16.224,1,16.5v6C1,22.776,1.224,23,1.5,23h3C4.775,23,5,22.776,5,22.5v-6C5,16.224,4.775,16,4.5,16H1.5z"/>
	<path d="M1.662,13.514c-0.142,0-0.277-0.06-0.372-0.166c-0.089-0.099-0.135-0.227-0.127-0.361c0.007-0.133,0.066-0.256,0.165-0.345
		C1.788,12.227,2.382,11.999,3,11.999s1.211,0.229,1.672,0.644c0.099,0.089,0.158,0.212,0.165,0.345
		c0.007,0.134-0.038,0.262-0.128,0.361c-0.094,0.105-0.23,0.165-0.372,0.165c-0.124,0-0.242-0.046-0.334-0.128
		C3.726,13.136,3.37,12.999,3,12.999s-0.727,0.137-1.004,0.386C1.904,13.468,1.785,13.514,1.662,13.514z"/>
	<path d="M5.5,11.878c-0.113,0-0.224-0.039-0.312-0.109c-0.623-0.499-1.4-0.774-2.188-0.774s-1.564,0.275-2.188,0.774
		c-0.089,0.071-0.2,0.109-0.312,0.109l0,0c-0.153,0-0.295-0.068-0.39-0.187c-0.084-0.104-0.121-0.235-0.107-0.368
		c0.015-0.133,0.08-0.252,0.184-0.335C0.988,10.347,1.987,9.994,3,9.994s2.012,0.353,2.812,0.994
		c0.104,0.083,0.17,0.203,0.184,0.335c0.015,0.133-0.023,0.263-0.107,0.368C5.794,11.81,5.652,11.878,5.5,11.878z"/>
	<circle cx="3" cy="21.25" r="0.75"/>
	<path d="M16.165,14.001c-0.321,0-0.645-0.027-0.964-0.081c-0.027-0.003-0.053-0.007-0.079-0.014
		c-1.975-0.36-3.604-1.68-4.359-3.533c-0.577-1.417-0.577-2.979,0-4.396c0.104-0.255,0.301-0.455,0.555-0.562
		c0.128-0.054,0.264-0.082,0.402-0.082c0.133,0,0.264,0.026,0.389,0.077c0.128,0.052,0.243,0.128,0.342,0.227l1.55,1.55
		c0.267,0.266,0.414,0.62,0.414,0.998c0,0.376-0.146,0.73-0.411,0.997l-0.361,0.362c-0.352,0.433-0.905,0.692-1.5,0.692
		c-0.122,0-0.245-0.011-0.365-0.034c0.481,1.04,1.316,1.871,2.353,2.35c-0.093-0.507,0.013-1.038,0.312-1.476
		c0.104-0.153,0.23-0.292,0.373-0.41l0.331-0.333c0.267-0.267,0.622-0.414,1-0.414c0.377,0,0.732,0.147,0.999,0.413
		c0.005,0.005,0.013,0.014,0.018,0.019l1.532,1.532c0.195,0.195,0.303,0.454,0.303,0.73c0,0.276-0.107,0.535-0.302,0.731
		c-0.098,0.098-0.213,0.175-0.342,0.227C17.654,13.857,16.917,14.001,16.165,14.001z M15.448,12.948
		c0.237,0.036,0.477,0.054,0.716,0.054c0.622,0,1.232-0.12,1.814-0.357c0.02-0.016,0.021-0.024,0.021-0.03
		c0-0.01-0.003-0.018-0.01-0.024l-1.549-1.55c-0.08-0.079-0.183-0.121-0.292-0.121c-0.111,0-0.215,0.043-0.293,0.121l-0.358,0.358
		c-0.107,0.091-0.172,0.16-0.227,0.241C14.983,12.061,15.064,12.624,15.448,12.948z M11.383,8.882
		c0.04,0.047,0.084,0.091,0.132,0.131c0.175,0.143,0.397,0.222,0.624,0.222c0.298,0,0.576-0.131,0.764-0.361l0.39-0.395
		c0.08-0.08,0.123-0.183,0.122-0.293c0-0.11-0.043-0.214-0.121-0.292l-1.55-1.55l-0.024-0.01c-0.004,0-0.008,0.001-0.012,0.003
		c0,0-0.018,0.018-0.018,0.018C11.362,7.16,11.256,8.032,11.383,8.882z"/>
</g>
</svg>
