<?xml version="1.0" encoding="utf-8"?>
<!-- Generator: Adobe Illustrator 22.1.0, SVG Export Plug-In . SVG Version: 6.00 Build 0)  -->
<svg version="1.1" id="Light" xmlns="http://www.w3.org/2000/svg" xmlns:xlink="http://www.w3.org/1999/xlink" x="0px" y="0px"
	 viewBox="0 0 24 24" style="enable-background:new 0 0 24 24;" xml:space="preserve">
<g>
	<title>fast-food-hot-dog-grilled</title>
	<path d="M0.498,24c-0.134,0-0.259-0.052-0.354-0.146s-0.146-0.22-0.146-0.354s0.052-0.259,0.146-0.354l8.231-8.231L1.351,7.892
		C0.478,7.019-0.003,5.858-0.003,4.623s0.481-2.396,1.354-3.269C2.224,0.481,3.385,0,4.62,0s2.396,0.481,3.269,1.354l4.773,4.772
		l1.981-1.98C14.738,4.052,14.863,4,14.997,4s0.259,0.052,0.354,0.146s0.146,0.22,0.146,0.354c0,0.134-0.052,0.259-0.146,0.354
		l-1.981,1.98l1.543,1.543l1.981-1.98c0.094-0.094,0.22-0.146,0.354-0.146s0.259,0.052,0.354,0.146s0.146,0.22,0.146,0.354
		c0,0.134-0.052,0.259-0.146,0.354l-1.981,1.98l1.543,1.543l1.981-1.98c0.094-0.094,0.22-0.146,0.354-0.146s0.259,0.052,0.354,0.146
		S19.997,8.866,19.997,9c0,0.134-0.052,0.259-0.146,0.354l-1.981,1.98l4.774,4.774c1.802,1.802,1.802,4.735,0,6.538
		C21.77,23.519,20.609,24,19.374,24s-2.396-0.481-3.269-1.354l-7.023-7.023l-8.231,8.231C0.757,23.948,0.631,24,0.498,24z M4.62,1
		C3.653,1,2.743,1.377,2.058,2.061S0.997,3.656,0.997,4.623s0.377,1.878,1.061,2.562l14.754,14.753
		C17.496,22.623,18.406,23,19.374,23c0.968,0,1.878-0.377,2.562-1.061c1.413-1.413,1.413-3.711,0-5.124l-5.116-5.116
		c-0.01-0.009-0.021-0.02-0.029-0.031L7.182,2.061C6.498,1.377,5.588,1,4.62,1z"/>
	<path d="M3.497,6c-0.276,0-0.5-0.224-0.5-0.5S3.221,5,3.497,5h4.5c0.276,0,0.5,0.224,0.5,0.5S8.273,6,7.997,6H3.497z"/>
	<path d="M7.497,10c-0.276,0-0.5-0.224-0.5-0.5S7.221,9,7.497,9h4.5c0.276,0,0.5,0.224,0.5,0.5s-0.224,0.5-0.5,0.5H7.497z"/>
	<path d="M11.997,15c-0.276,0-0.5-0.224-0.5-0.5s0.224-0.5,0.5-0.5h4.5c0.276,0,0.5,0.224,0.5,0.5s-0.224,0.5-0.5,0.5H11.997z"/>
	<path d="M15.997,19c-0.276,0-0.5-0.224-0.5-0.5s0.224-0.5,0.5-0.5h4.5c0.276,0,0.5,0.224,0.5,0.5s-0.224,0.5-0.5,0.5H15.997z"/>
</g>
</svg>
