<?xml version="1.0" encoding="utf-8"?>
<!-- Generator: Adobe Illustrator 22.1.0, SVG Export Plug-In . SVG Version: 6.00 Build 0)  -->
<svg version="1.1" id="Light" xmlns="http://www.w3.org/2000/svg" xmlns:xlink="http://www.w3.org/1999/xlink" x="0px" y="0px"
	 viewBox="0 0 24 24" style="enable-background:new 0 0 24 24;" xml:space="preserve">
<g>
	<title>cleaning-cat</title>
	<path d="M6.5,22.5C4.57,22.5,3,20.93,3,19s1.57-3.5,3.5-3.5h1.752c-0.759-0.856-0.975-2.103-0.496-3.183l1.759-3.955
		C8.859,7.627,8.5,6.691,8.5,5.706V2.25c0.001-0.178,0.064-0.349,0.177-0.483C8.82,1.598,9.03,1.501,9.251,1.501
		c0.177,0,0.349,0.063,0.484,0.177l1.907,1.634c0.276-0.07,0.566-0.106,0.857-0.106c0.292,0,0.584,0.036,0.866,0.108l1.896-1.634
		C15.397,1.564,15.571,1.5,15.75,1.5c0.415,0.001,0.751,0.338,0.75,0.751v3.455c0,0.984-0.359,1.921-1.014,2.656l1.759,3.955
		c0.049,0.111,0.091,0.225,0.126,0.341c0.09-0.201,0.135-0.422,0.13-0.646V9.5C17.554,7.567,19.163,6,21.086,6
		C22.7,6,24,7.301,24,8.9c0,1.334-1.086,2.42-2.42,2.42c-1.123,0-2.036-0.913-2.036-2.036c0-0.276,0.224-0.5,0.5-0.5
		s0.5,0.224,0.5,0.5c0,0.571,0.465,1.036,1.036,1.036c0.783,0,1.42-0.637,1.42-1.42C23,7.852,22.148,7,21.1,7
		c-1.401,0-2.561,1.128-2.6,2.514V12c0.021,0.828-0.372,1.599-1.056,2.079c-0.102,0.53-0.345,1.022-0.697,1.421H18.5
		c1.93,0,3.5,1.57,3.5,3.5s-1.57,3.5-3.5,3.5H6.5z M4.052,19.5c0.235,1.141,1.261,2,2.448,2h12c1.187,0,2.213-0.859,2.448-2h-6.514
		C14.209,20.369,13.413,21,12.5,21c-0.913,0-1.709-0.631-1.934-1.5H4.052z M12.5,18c-0.551,0-1,0.448-1,1s0.449,1,1,1
		c0.552,0,1-0.448,1-1S13.052,18,12.5,18z M20.948,18.5c-0.235-1.141-1.261-2-2.448-2h-12c-1.187,0-2.213,0.859-2.448,2h6.514
		c0.225-0.869,1.021-1.5,1.934-1.5c0.913,0,1.709,0.631,1.934,1.5H20.948z M8.67,12.723c-0.214,0.481-0.226,1.018-0.036,1.511
		c0.19,0.493,0.56,0.883,1.042,1.096c0.254,0.113,0.529,0.17,0.819,0.17H10.5V13c0-0.276,0.224-0.5,0.5-0.5s0.5,0.224,0.5,0.5v2.5h2
		V13c0-0.276,0.224-0.5,0.5-0.5s0.5,0.224,0.5,0.5v2.5h0.003c0.295,0,0.569-0.057,0.823-0.17c0.996-0.442,1.447-1.612,1.005-2.608
		l-1.635-3.678c-0.654,0.433-1.406,0.661-2.195,0.661c-0.788,0-1.541-0.228-2.195-0.661L8.67,12.723z M9.5,5.706
		c0,1.654,1.346,3,3,3c1.654,0,3-1.346,3-3V2.794l-1.492,1.278c-0.18,0.155-0.412,0.241-0.652,0.241
		c-0.077,0-0.155-0.009-0.229-0.027c-0.208-0.053-0.418-0.079-0.628-0.079c-0.209,0-0.416,0.026-0.617,0.077
		c-0.081,0.019-0.16,0.028-0.238,0.028c-0.24,0-0.471-0.085-0.652-0.241L9.5,2.793L9.5,5.706z"/>
	<path d="M0.5,13C0.224,13,0,12.776,0,12.5C0,12.224,0.224,12,0.5,12h4C4.776,12,5,12.224,5,12.5C5,12.776,4.776,13,4.5,13H0.5z"/>
	<path d="M0.5,10C0.224,10,0,9.776,0,9.5S0.224,9,0.5,9H6c0.276,0,0.5,0.224,0.5,0.5S6.276,10,6,10H0.5z"/>
	<path d="M0.5,7C0.224,7,0,6.776,0,6.5S0.224,6,0.5,6h4C4.776,6,5,6.224,5,6.5S4.776,7,4.5,7H0.5z"/>
</g>
</svg>
