<?xml version="1.0" encoding="utf-8"?>
<!-- Generator: Adobe Illustrator 22.1.0, SVG Export Plug-In . SVG Version: 6.00 Build 0)  -->
<svg version="1.1" id="Light" xmlns="http://www.w3.org/2000/svg" xmlns:xlink="http://www.w3.org/1999/xlink" x="0px" y="0px"
	 viewBox="0 0 24 24" style="enable-background:new 0 0 24 24;" xml:space="preserve">
<g>
	<title>cleaning-man</title>
	<path d="M9,5C7.622,5,6.5,3.879,6.5,2.5S7.622,0,9,0s2.5,1.121,2.5,2.5S10.379,5,9,5z M9,1C8.173,1,7.5,1.673,7.5,2.5S8.173,4,9,4
		s1.5-0.673,1.5-1.5S9.827,1,9,1z"/>
	<path d="M17.072,23.995c-0.527,0-1.006-0.267-1.28-0.715l-1.78-2.371c-0.01-0.014-0.02-0.028-0.029-0.042
		c-0.426-0.709-0.519-1.566-0.257-2.35c0.111-0.332,0.287-0.645,0.515-0.918l-1.383-1.639l-0.677,0.58
		c-0.265,0.25-0.626,0.392-1.01,0.392l-0.043,0c-0.404-0.012-0.775-0.18-1.05-0.471c-0.567-0.602-0.538-1.553,0.064-2.12
		c0.035-0.033,0.071-0.063,0.107-0.092l0.676-0.579l-1.031-1.222C9.962,12.617,10,12.804,10,13c0,0.827-0.673,1.5-1.5,1.5h-2
		C4.57,14.5,3,12.93,3,11v-0.5c0-1.531,0.783-2.953,2.063-3.78L3.666,5.064C3.58,4.962,3.539,4.833,3.55,4.7
		c0.011-0.133,0.074-0.254,0.176-0.34c0.09-0.076,0.204-0.118,0.322-0.118c0.148,0,0.287,0.065,0.382,0.178l1.557,1.845
		C6.475,6.089,6.984,6,7.5,6h2.709c2.023,0,3.809,1.363,4.341,3.315l0.4,1.456c0.448,1.637-0.075,3.405-1.333,4.536l1.392,1.649
		c0.165-0.096,0.335-0.174,0.507-0.231c0.292-0.099,0.597-0.149,0.906-0.149c0.51,0,1.011,0.138,1.45,0.4
		c0.015,0.009,0.032,0.02,0.048,0.033l2.386,1.789c0.081,0.048,0.174,0.122,0.257,0.205c0.283,0.283,0.439,0.66,0.439,1.061
		c0,0.401-0.156,0.778-0.44,1.061l-0.657,0.657c-0.007,0.009-0.014,0.017-0.021,0.023c-0.007,0.007-0.016,0.015-0.025,0.022
		l-1.204,1.205c-0.007,0.009-0.014,0.017-0.021,0.023c-0.007,0.007-0.016,0.015-0.025,0.022l-0.478,0.478
		c-0.085,0.086-0.183,0.162-0.289,0.226C17.609,23.921,17.343,23.995,17.072,23.995z M16.612,22.709
		c0.01,0.014,0.02,0.028,0.029,0.042c0.091,0.152,0.252,0.243,0.43,0.243c0.09,0,0.178-0.025,0.256-0.071
		c0.035-0.021,0.068-0.046,0.095-0.074l0.149-0.149l-0.645-0.645c-0.094-0.094-0.146-0.22-0.146-0.354s0.052-0.259,0.146-0.354
		s0.22-0.146,0.354-0.146s0.259,0.052,0.354,0.146l0.645,0.645l0.543-0.543l-0.645-0.645c-0.094-0.094-0.146-0.22-0.146-0.354
		s0.052-0.259,0.146-0.354s0.22-0.146,0.354-0.146s0.259,0.052,0.354,0.146l0.645,0.645l0.326-0.326
		c0.094-0.094,0.146-0.22,0.147-0.354c0-0.133-0.052-0.259-0.146-0.354c-0.029-0.029-0.062-0.054-0.096-0.075
		c-0.015-0.009-0.032-0.02-0.048-0.033l-2.373-1.78c-0.278-0.161-0.595-0.246-0.916-0.246c-0.2,0-0.398,0.032-0.588,0.097
		c-0.002,0.001-0.004,0.001-0.006,0.002c-0.542,0.182-0.972,0.615-1.154,1.156c-0.167,0.499-0.11,1.044,0.154,1.499L16.612,22.709z
		 M12.152,9.519c0.224,0,0.422,0.151,0.482,0.368l0.387,1.417c0.254,0.928-0.055,1.932-0.785,2.558l-1.354,1.16
		c-0.029,0.023-0.042,0.033-0.054,0.045c-0.097,0.091-0.152,0.215-0.156,0.349c-0.004,0.134,0.044,0.261,0.135,0.358
		c0.092,0.097,0.216,0.153,0.349,0.157c0,0,0,0,0,0c0.143,0,0.263-0.047,0.358-0.136l1.047-0.898c0.01-0.011,0.02-0.022,0.029-0.03
		c0.013-0.011,0.026-0.02,0.038-0.027l0.256-0.22c1.025-0.876,1.458-2.283,1.102-3.584l-0.4-1.457C13.172,8.061,11.783,7,10.209,7
		H7.5C7.229,7,6.958,7.033,6.69,7.098l4.99,5.915c0.369-0.377,0.516-0.931,0.375-1.445l-0.387-1.417
		c-0.073-0.266,0.085-0.542,0.351-0.614C12.062,9.525,12.107,9.519,12.152,9.519z M5.715,7.493C4.652,8.125,4,9.259,4,10.5V11
		c0,1.378,1.121,2.5,2.5,2.5h2C8.776,13.5,9,13.276,9,13s-0.224-0.5-0.5-0.5h-2C5.673,12.5,5,11.827,5,11v-1
		c0-0.276,0.224-0.5,0.5-0.5S6,9.724,6,10v1c0,0.276,0.224,0.5,0.5,0.5h2c0.286,0,0.554,0.081,0.782,0.22L5.715,7.493z"/>
	<path d="M7.5,24C6.673,24,6,23.327,6,22.5V16c0-0.276,0.224-0.5,0.5-0.5S7,15.724,7,16v6.5C7,22.776,7.224,23,7.5,23h1v-5.5
		C8.5,17.224,8.724,17,9,17s0.5,0.224,0.5,0.5V23h1c0.276,0,0.5-0.224,0.5-0.5v-4c0-0.276,0.224-0.5,0.5-0.5s0.5,0.224,0.5,0.5v4
		c0,0.827-0.673,1.5-1.5,1.5H7.5z"/>
</g>
</svg>
