<?xml version="1.0" encoding="utf-8"?>
<!-- Generator: Adobe Illustrator 22.1.0, SVG Export Plug-In . SVG Version: 6.00 Build 0)  -->
<svg version="1.1" id="Light" xmlns="http://www.w3.org/2000/svg" xmlns:xlink="http://www.w3.org/1999/xlink" x="0px" y="0px"
	 viewBox="0 0 24 24" style="enable-background:new 0 0 24 24;" xml:space="preserve">
<g>
	<title>cleaning-sign</title>
	<path d="M17.86,24c-0.431,0-0.812-0.275-0.948-0.684L16.14,21l-8.28,0l-0.772,2.316C6.952,23.725,6.571,24,6.14,24H2.094
		c-0.058,0-0.117-0.005-0.175-0.016c-0.26-0.045-0.489-0.19-0.643-0.409c-0.154-0.219-0.213-0.484-0.167-0.747l3.826-22
		C5.019,0.348,5.433,0,5.92,0h12.159c0.488,0,0.902,0.348,0.986,0.828l3.826,22.001c0.01,0.053,0.015,0.112,0.015,0.171
		c0,0.266-0.104,0.518-0.292,0.707S22.173,24,21.906,24C21.906,24,17.86,24,17.86,24z M16.14,20
		c0.431,0.001,0.812,0.276,0.948,0.684L17.86,23l4.046,0L18.079,1L17,1v3.5C17,5.879,15.878,7,14.5,7h-5C8.121,7,7,5.879,7,4.5V1
		H5.921L2.095,23l4.045,0l0.772-2.316C7.048,20.275,7.429,20,7.859,20C7.859,20,16.14,20,16.14,20z M8,4.5C8,5.327,8.673,6,9.5,6h5
		C15.327,6,16,5.327,16,4.5V4H8V4.5z M16,3V1H8v2H16z"/>
	<path d="M12,18c-1.196,0-2.321-0.465-3.171-1.311c-0.011-0.008-0.021-0.017-0.03-0.026c-0.009-0.009-0.019-0.022-0.028-0.034
		C7.955,15.794,7.5,14.679,7.5,13.5C7.5,11.019,9.518,9,12,9c1.174,0,2.286,0.452,3.132,1.274c0.014,0.01,0.027,0.021,0.037,0.031
		c0.01,0.01,0.02,0.021,0.027,0.031C16.032,11.171,16.5,12.3,16.5,13.5C16.5,15.981,14.481,18,12,18z M9.89,16.286
		C10.498,16.748,11.237,17,12,17c1.93,0,3.5-1.57,3.5-3.5c0-0.762-0.252-1.502-0.714-2.11L9.89,16.286z M12,10
		c-1.93,0-3.5,1.57-3.5,3.5c0,0.747,0.242,1.474,0.687,2.075l4.888-4.888C13.474,10.242,12.747,10,12,10z"/>
</g>
</svg>
