<?xml version="1.0" encoding="utf-8"?>
<!-- Generator: Adobe Illustrator 22.1.0, SVG Export Plug-In . SVG Version: 6.00 Build 0)  -->
<svg version="1.1" id="Light" xmlns="http://www.w3.org/2000/svg" xmlns:xlink="http://www.w3.org/1999/xlink" x="0px" y="0px"
	 viewBox="0 0 24 24" style="enable-background:new 0 0 24 24;" xml:space="preserve">
<g>
	<title>insurance-head</title>
	<path d="M10.143,15c-0.551,0-1-0.448-1-1v-2h-2c-0.551,0-1-0.449-1-1V9c0-0.551,0.449-1,1-1h2V6c0-0.551,0.449-1,1-1h2
		c0.552,0,1,0.449,1,1v2h2c0.552,0,1,0.449,1,1v2c0,0.551-0.448,1-1,1h-2v2c0,0.552-0.448,1-1,1H10.143z M7.143,11h2.5
		c0.276,0,0.5,0.224,0.5,0.5V14h2v-2.5c0-0.276,0.224-0.5,0.5-0.5h2.5V9h-2.5c-0.276,0-0.5-0.224-0.5-0.5V6h-2v2.5
		c0,0.276-0.224,0.5-0.5,0.5h-2.5L7.143,11z"/>
	<path d="M15.643,24c-0.276,0-0.5-0.224-0.5-0.5v-3.477c0-0.134,0.052-0.26,0.147-0.354c0.086-0.085,0.202-0.135,0.336-0.145
		l0.128,0c1.966,0,2.727-0.161,3.253-0.688c0.517-0.517,0.701-2.839,0.667-4.323c-0.003-0.137,0.052-0.271,0.149-0.367
		c0.091-0.09,0.22-0.145,0.343-0.145c0.008,0,0.033,0.001,0.041,0.002c0.029,0,0.435,0.014,0.881,0.014
		c0.189,0,0.386-0.002,0.566-0.01c0.062-0.002,0.119-0.027,0.163-0.069c0.036-0.099,0.048-0.205,0.036-0.31
		c-0.004-0.031-0.004-0.063-0.002-0.096c0.058-0.812-0.691-2.124-1.294-3.179c-0.56-0.981-0.853-1.514-0.853-1.946
		c0.001-2.745-1.479-4.476-2.72-5.446C15.388,1.715,13.259,1,11.143,1l-0.088,0C6.187,1,2.189,4.96,2.142,9.827
		c-0.001,0.076,0,0.152,0.001,0.228c0,3.34,1.263,5.779,3.755,7.255c0.151,0.089,0.245,0.254,0.245,0.43v5.76
		c0,0.276-0.224,0.5-0.5,0.5s-0.5-0.224-0.5-0.5v-5.48c-2.654-1.68-4-4.357-4-7.957C1.142,9.987,1.142,9.902,1.142,9.818
		c0.052-5.414,4.496-9.818,9.907-9.818l0.098,0c2.331,0,4.683,0.792,6.452,2.172c1.417,1.106,3.106,3.086,3.105,6.234
		c0,0.188,0.451,0.978,0.721,1.45c0.66,1.156,1.48,2.592,1.426,3.702c0.026,0.292-0.025,0.585-0.148,0.851
		c-0.013,0.029-0.03,0.057-0.05,0.084c-0.227,0.31-0.576,0.496-0.958,0.512c-0.198,0.008-0.412,0.011-0.616,0.011c0,0,0,0,0,0
		c-0.141,0-0.278-0.001-0.401-0.003c-0.009,1.256-0.138,3.704-0.962,4.529c-0.783,0.784-1.871,0.963-3.573,0.98V23.5
		C16.143,23.776,15.919,24,15.643,24z"/>
</g>
</svg>
