<?xml version="1.0" encoding="utf-8"?>
<!-- Generator: Adobe Illustrator 22.1.0, SVG Export Plug-In . SVG Version: 6.00 Build 0)  -->
<svg version="1.1" id="Light" xmlns="http://www.w3.org/2000/svg" xmlns:xlink="http://www.w3.org/1999/xlink" x="0px" y="0px"
	 viewBox="0 0 24 24" style="enable-background:new 0 0 24 24;" xml:space="preserve">
<g>
	<title>insurance-hand</title>
	<path d="M0.5,24C0.224,24,0,23.776,0,23.5v-10C0,13.224,0.224,13,0.5,13S1,13.224,1,13.5V14h6.5c2.298,0,4.216,1.739,4.467,4H14.5
		c2.481,0,4.5,2.019,4.5,4.5c0,0.276-0.224,0.5-0.5,0.5H1v0.5C1,23.776,0.776,24,0.5,24z M17.964,22c-0.245-1.702-1.718-3-3.464-3H7
		c-0.276,0-0.5-0.224-0.5-0.5S6.724,18,7,18h3.964c-0.245-1.702-1.717-3-3.464-3H1v7H17.964z"/>
	<path d="M16,13c-0.552,0-1-0.448-1-1V9h-3c-0.551,0-1-0.449-1-1V5c0-0.551,0.449-1,1-1h3V1c0-0.551,0.448-1,1-1h3
		c0.552,0,1,0.449,1,1v3h3c0.552,0,1,0.449,1,1v3c0,0.551-0.448,1-1,1h-3v3c0,0.552-0.448,1-1,1H16z M12,8h3.5
		C15.776,8,16,8.224,16,8.5V12h3V8.5C19,8.224,19.224,8,19.5,8H23V5h-3.5C19.224,5,19,4.776,19,4.5V1h-3v3.5
		C16,4.776,15.776,5,15.5,5H12L12,8z"/>
</g>
</svg>
