<?xml version="1.0" encoding="utf-8"?>
<!-- Generator: Adobe Illustrator 22.1.0, SVG Export Plug-In . SVG Version: 6.00 Build 0)  -->
<svg version="1.1" id="Light" xmlns="http://www.w3.org/2000/svg" xmlns:xlink="http://www.w3.org/1999/xlink" x="0px" y="0px"
	 viewBox="0 0 24 24" style="enable-background:new 0 0 24 24;" xml:space="preserve">
<g>
	<title>insurance-umbrella-heart</title>
	<path d="M16.502,24c-0.135,0-0.266-0.056-0.36-0.153l-5.114-5.3c-1.071-1.06-1.335-2.686-0.654-4.04
		c0.429-0.844,1.159-1.469,2.057-1.762c0.358-0.117,0.728-0.176,1.1-0.176c0.55,0,1.103,0.133,1.599,0.385
		c0.329,0.168,0.628,0.384,0.888,0.642l0.483,0.479l0.482-0.479c0.667-0.662,1.549-1.026,2.482-1.026c0,0,0.024,0,0.025,0
		c0.944,0.004,1.831,0.376,2.496,1.047c0.259,0.261,0.475,0.56,0.642,0.888c0.682,1.356,0.417,2.983-0.661,4.05l-5.106,5.292
		C16.768,23.944,16.637,24,16.502,24z M13.532,13.569c-0.267,0-0.532,0.042-0.79,0.127c-0.644,0.21-1.168,0.658-1.475,1.263
		c-0.486,0.965-0.296,2.125,0.473,2.886l4.762,4.935l4.754-4.927c0.775-0.768,0.967-1.93,0.48-2.896
		c-0.118-0.233-0.273-0.448-0.459-0.635c-0.477-0.481-1.113-0.748-1.791-0.751c-0.685,0-1.319,0.261-1.797,0.735l-0.834,0.829
		c-0.095,0.094-0.22,0.145-0.353,0.145s-0.258-0.052-0.352-0.145l-0.835-0.829c-0.186-0.185-0.401-0.34-0.637-0.46
		C14.316,13.662,13.931,13.569,13.532,13.569z"/>
	<path d="M9.744,24c-1.232,0-2.238-1.003-2.242-2.236V21.5c0-0.276,0.224-0.5,0.5-0.5c0.276,0,0.5,0.224,0.5,0.5v0.262
		c0.001,0.331,0.132,0.643,0.367,0.877c0.236,0.235,0.542,0.36,0.883,0.361l0.031,0c0.314,0,0.617-0.128,0.852-0.362
		c0.236-0.234,0.366-0.546,0.367-0.878V21c0-0.276,0.224-0.5,0.5-0.5s0.5,0.224,0.5,0.5v0.762c-0.002,0.601-0.237,1.164-0.663,1.586
		C10.916,23.769,10.355,24,9.759,24H9.744z"/>
	<path d="M11.502,12c-0.276,0-0.5-0.224-0.5-0.5v-0.464c-0.123-0.898-0.865-1.548-1.77-1.548c-0.06,0-0.12,0.003-0.181,0.009
		C9.043,9.498,9.01,9.5,9.002,9.5c-0.017,0-0.034-0.001-0.051-0.003C8.893,9.492,8.832,9.489,8.773,9.489
		c-0.916,0-1.662,0.661-1.774,1.572c-0.003,0.021-0.013,0.058-0.021,0.078c-0.001,0.008-0.009,0.035-0.021,0.061
		c-0.013,0.029-0.029,0.058-0.052,0.089c-0.016,0.022-0.031,0.042-0.05,0.061c-0.029,0.029-0.057,0.049-0.083,0.065
		c-0.025,0.017-0.046,0.029-0.069,0.04c-0.038,0.017-0.072,0.025-0.098,0.03c-0.017,0.005-0.043,0.012-0.075,0.014
		c-0.005,0-0.025,0.001-0.03,0.001c-0.01,0-0.02-0.001-0.03-0.002c-0.049-0.002-0.104-0.014-0.154-0.034
		c-0.017-0.007-0.05-0.025-0.066-0.036c-0.017-0.009-0.052-0.028-0.087-0.06c-0.013-0.012-0.039-0.043-0.05-0.058
		c-0.016-0.018-0.039-0.047-0.059-0.086c-0.008-0.016-0.022-0.056-0.027-0.073c-0.007-0.016-0.019-0.048-0.024-0.091
		c-0.112-0.91-0.858-1.572-1.774-1.572c-0.06,0-0.12,0.003-0.181,0.009C4.043,9.498,4.01,9.5,4.002,9.5
		c-0.017,0-0.034-0.001-0.051-0.003C3.893,9.492,3.833,9.489,3.773,9.489c-0.916,0-1.662,0.661-1.774,1.572
		C1.967,11.311,1.753,11.5,1.5,11.5c-0.005,0-0.022,0-0.027-0.001C1.208,11.483,1.002,11.264,1.002,11v-0.5
		c0-5.79,4.71-10.5,10.5-10.5s10.5,4.71,10.5,10.5V11c0,0.264-0.206,0.483-0.469,0.499c-0.005,0-0.026,0.001-0.031,0.001
		c-0.252,0-0.465-0.189-0.496-0.439c-0.113-0.911-0.858-1.572-1.772-1.572c-0.06,0-0.121,0.003-0.183,0.009
		C19.043,9.498,19.011,9.5,19.002,9.5c-0.017,0-0.033-0.001-0.05-0.003c-0.06-0.006-0.12-0.009-0.179-0.009
		c-0.9,0-1.663,0.676-1.774,1.573c-0.005,0.042-0.017,0.073-0.024,0.089c-0.003,0.014-0.011,0.043-0.027,0.075
		c-0.019,0.038-0.042,0.065-0.055,0.081c-0.007,0.009-0.045,0.055-0.053,0.062c-0.036,0.032-0.07,0.051-0.09,0.062
		c-0.008,0.006-0.031,0.021-0.062,0.034c-0.048,0.019-0.1,0.031-0.154,0.034c-0.01,0.001-0.021,0.002-0.031,0.002
		c-0.006,0-0.027-0.001-0.033-0.001c-0.031-0.002-0.056-0.009-0.072-0.014c-0.026-0.005-0.06-0.013-0.097-0.03
		c-0.023-0.01-0.044-0.023-0.065-0.037c-0.03-0.02-0.058-0.039-0.086-0.067c-0.02-0.02-0.036-0.041-0.051-0.063
		c-0.014-0.02-0.034-0.05-0.051-0.088c-0.012-0.029-0.021-0.055-0.027-0.083c0,0.001,0,0.002,0,0.002
		c-0.001,0-0.01-0.025-0.014-0.058c-0.113-0.911-0.858-1.573-1.772-1.573c-0.06,0-0.121,0.003-0.183,0.009
		C14.043,9.498,14.011,9.5,14.002,9.5c-0.017,0-0.033-0.001-0.05-0.003c-0.06-0.006-0.12-0.009-0.179-0.009
		c-0.891,0-1.649,0.664-1.77,1.548V11.5C12.002,11.776,11.778,12,11.502,12z M4.237,8.488c0.671,0,1.3,0.234,1.797,0.656
		c0.27-3.063,1.666-5.92,3.908-8.013c-3.99,0.671-7.192,3.895-7.825,7.896C2.588,8.68,3.163,8.489,3.769,8.489
		c0.077,0,0.155,0.003,0.233,0.009C4.081,8.491,4.159,8.488,4.237,8.488z M13.063,1.132c2.242,2.093,3.638,4.95,3.908,8.012
		c0.496-0.422,1.125-0.656,1.796-0.656c0.078,0,0.156,0.003,0.235,0.01c0.079-0.006,0.157-0.01,0.235-0.01
		c0.605,0,1.179,0.191,1.65,0.539C20.255,5.027,17.053,1.802,13.063,1.132z M9.236,8.488c0.657,0,1.275,0.226,1.766,0.634v-7.59
		C8.753,3.453,7.339,6.153,7.043,9.084C7.526,8.7,8.127,8.488,8.765,8.488c0.078,0,0.157,0.003,0.237,0.01
		C9.081,8.492,9.159,8.488,9.236,8.488z M12.002,9.118c0.491-0.406,1.108-0.63,1.765-0.63c0.078,0,0.156,0.003,0.236,0.01
		c0.079-0.006,0.157-0.01,0.235-0.01c0.64,0,1.241,0.212,1.725,0.596c-0.297-2.932-1.711-5.632-3.96-7.553V9.118z"/>
</g>
</svg>
