<?xml version="1.0" encoding="utf-8"?>
<!-- Generator: Adobe Illustrator 22.1.0, SVG Export Plug-In . SVG Version: 6.00 Build 0)  -->
<svg version="1.1" id="Light" xmlns="http://www.w3.org/2000/svg" xmlns:xlink="http://www.w3.org/1999/xlink" x="0px" y="0px"
	 viewBox="0 0 24 24" style="enable-background:new 0 0 24 24;" xml:space="preserve">
<g>
	<title>real-estate-deal-pay-house</title>
	<path d="M3,9.856c-0.551,0-1-0.449-1-1v-3.5c0-0.276,0.224-0.5,0.5-0.5S3,5.08,3,5.356v3.5h6v-3.5c0-0.276,0.224-0.5,0.5-0.5
		S10,5.08,10,5.356v3.5c0,0.551-0.449,1-1,1H3z"/>
	<path d="M11.5,5.356c-0.115,0-0.227-0.04-0.316-0.113L6.317,1.261C6.228,1.188,6.116,1.149,6,1.149s-0.228,0.04-0.317,0.112
		L0.817,5.243C0.727,5.316,0.615,5.356,0.5,5.356l0,0c-0.151,0-0.292-0.067-0.387-0.183c-0.174-0.213-0.143-0.529,0.07-0.703
		l4.867-3.982C5.317,0.269,5.654,0.149,6,0.149c0.346,0,0.683,0.12,0.95,0.338l4.867,3.982c0.213,0.175,0.245,0.49,0.07,0.703
		C11.792,5.289,11.651,5.356,11.5,5.356z"/>
	<path d="M19.5,11.856c-0.066,0-0.13-0.013-0.191-0.038c-0.061-0.025-0.116-0.062-0.162-0.108l-2.5-2.5
		c-0.195-0.195-0.195-0.512,0-0.707c0.094-0.094,0.22-0.146,0.354-0.146s0.259,0.052,0.354,0.146L19,10.149V7.356
		c0-1.379-1.122-2.5-2.5-2.5H14c-0.276,0-0.5-0.224-0.5-0.5s0.224-0.5,0.5-0.5h2.5c1.93,0,3.5,1.57,3.5,3.5v2.793l1.646-1.646
		c0.094-0.094,0.22-0.146,0.354-0.146s0.259,0.052,0.354,0.146S22.5,8.722,22.5,8.856s-0.052,0.259-0.146,0.354l-2.5,2.5
		c-0.047,0.047-0.101,0.083-0.163,0.109C19.63,11.843,19.566,11.856,19.5,11.856z"/>
	<path d="M8.5,19.856c-1.93,0-3.5-1.57-3.5-3.5v-3.293l-1.646,1.646C3.259,14.804,3.134,14.856,3,14.856s-0.259-0.052-0.354-0.146
		S2.5,14.489,2.5,14.356s0.052-0.259,0.146-0.354l2.5-2.5c0.046-0.046,0.101-0.083,0.162-0.108c0.061-0.025,0.126-0.038,0.192-0.038
		s0.13,0.013,0.191,0.038c0.062,0.026,0.116,0.062,0.163,0.108l2.5,2.5c0.195,0.195,0.195,0.512,0,0.707
		C8.259,14.804,8.134,14.856,8,14.856s-0.259-0.052-0.354-0.146L6,13.063v3.293c0,1.378,1.121,2.5,2.5,2.5h3
		c0.276,0,0.5,0.224,0.5,0.5s-0.224,0.5-0.5,0.5H8.5z"/>
	<path d="M18.5,23.856c-3.033,0-5.5-2.467-5.5-5.5s2.467-5.5,5.5-5.5s5.5,2.467,5.5,5.5S21.533,23.856,18.5,23.856z M18.5,13.856
		c-2.481,0-4.5,2.019-4.5,4.5s2.019,4.5,4.5,4.5s4.5-2.019,4.5-4.5S20.982,13.856,18.5,13.856z"/>
	<path d="M18.5,21.856c-0.276,0-0.5-0.224-0.5-0.5v-0.5h-1.5c-0.276,0-0.5-0.224-0.5-0.5s0.224-0.5,0.5-0.5h3
		c0.276,0,0.5-0.224,0.5-0.5s-0.224-0.5-0.5-0.5h-2c-0.827,0-1.5-0.673-1.5-1.5s0.673-1.5,1.5-1.5H18v-0.5
		c0-0.276,0.224-0.5,0.5-0.5s0.5,0.224,0.5,0.5v0.5h1.5c0.276,0,0.5,0.224,0.5,0.5s-0.224,0.5-0.5,0.5h-3
		c-0.276,0-0.5,0.224-0.5,0.5s0.224,0.5,0.5,0.5h2c0.827,0,1.5,0.673,1.5,1.5s-0.673,1.5-1.5,1.5H19v0.5
		C19,21.631,18.776,21.856,18.5,21.856z"/>
</g>
</svg>
