<?xml version="1.0" encoding="utf-8"?>
<!-- Generator: Adobe Illustrator 22.1.0, SVG Export Plug-In . SVG Version: 6.00 Build 0)  -->
<svg version="1.1" id="Light" xmlns="http://www.w3.org/2000/svg" xmlns:xlink="http://www.w3.org/1999/xlink" x="0px" y="0px"
	 viewBox="0 0 24 24" style="enable-background:new 0 0 24 24;" xml:space="preserve">
<g>
	<title>real-estate-deal-key-1</title>
	<path d="M14,23.998c-0.552,0-1-0.448-1-1v-6.099l-1.18,0.983c-0.09,0.075-0.204,0.116-0.32,0.116c-0.149,0-0.289-0.066-0.384-0.18
		c-0.176-0.212-0.148-0.528,0.064-0.704l5.82-4.85V6.248c-0.001-2.302-1.477-4.314-3.673-5.006c-0.517-0.163-1.05-0.246-1.585-0.246
		c-0.833,0-1.67,0.206-2.419,0.596C8.91,1.808,8.526,2.08,8.179,2.403c2.303,0.896,3.822,3.096,3.82,5.595
		c-0.002,2.516-1.638,4.813-4,5.652v7.348c0,0.134-0.052,0.259-0.146,0.354L6.53,22.675C6.388,22.816,6.2,22.895,6,22.895
		c-0.201,0-0.39-0.079-0.531-0.22l-1.322-1.323C4.052,21.257,4,21.132,4,20.998v-1.293l-0.677-0.677
		c-0.292-0.293-0.292-0.769,0-1.062L4,17.291v-0.586l-0.677-0.677c-0.292-0.293-0.292-0.769,0-1.062L4,14.291V13.65
		c-2.366-0.84-4.002-3.141-4-5.662c0.003-3.306,2.694-5.995,6-5.995c0.365,0,0.726,0.033,1.08,0.098
		c0.505-0.567,1.104-1.032,1.782-1.386c0.891-0.464,1.888-0.709,2.88-0.709c0.637,0,1.271,0.098,1.886,0.292
		c2.614,0.824,4.371,3.219,4.372,5.96v6.016l5.82,4.85c0.211,0.177,0.24,0.492,0.064,0.704c-0.096,0.115-0.236,0.18-0.385,0.18
		c-0.116,0-0.229-0.041-0.319-0.115L22,16.899v6.099c0,0.552-0.448,1-1,1H14z M14,22.998h7v-6.932l-3-2.5v1.498
		c0.869,0.225,1.5,1.021,1.5,1.934c0,1.103-0.897,2-2,2s-2-0.897-2-2c0-0.913,0.631-1.709,1.5-1.934v-1.498l-3,2.5V22.998z
		 M5.999,21.791l1-1v-7.506c0-0.222,0.15-0.42,0.364-0.481c2.139-0.606,3.635-2.583,3.636-4.807
		c0.002-2.195-1.443-4.136-3.534-4.778C7.246,3.53,7.06,3.866,6.912,4.221C7.572,4.56,8,5.246,8,5.998c0,1.103-0.897,2-2,2
		s-2-0.897-2-2C4,4.921,4.856,4.04,5.923,4c0.133-0.347,0.293-0.677,0.478-0.987C6.263,3,6.131,2.994,6.004,2.994L6,2.744v0.25
		c-1.334,0-2.589,0.519-3.533,1.462C1.522,5.399,1.001,6.654,1,7.99c-0.002,2.227,1.494,4.207,3.636,4.815
		C4.85,12.865,5,13.063,5,13.285v1.213c0,0.134-0.052,0.259-0.146,0.354l-0.646,0.646l0.646,0.647C4.948,16.239,5,16.365,5,16.498v1
		c0,0.134-0.052,0.259-0.146,0.354l-0.646,0.646l0.646,0.647C4.948,19.239,5,19.365,5,19.498v1.293L5.999,21.791z M17.5,15.998
		c-0.552,0-1,0.448-1,1s0.448,1,1,1s1-0.448,1-1S18.051,15.998,17.5,15.998z M6,4.998c-0.551,0-1,0.449-1,1s0.449,1,1,1s1-0.449,1-1
		S6.551,4.998,6,4.998z"/>
</g>
</svg>
