<?xml version="1.0" encoding="utf-8"?>
<!-- Generator: Adobe Illustrator 22.1.0, SVG Export Plug-In . SVG Version: 6.00 Build 0)  -->
<svg version="1.1" id="Light" xmlns="http://www.w3.org/2000/svg" xmlns:xlink="http://www.w3.org/1999/xlink" x="0px" y="0px"
	 viewBox="0 0 24 24" style="enable-background:new 0 0 24 24;" xml:space="preserve">
<g>
	<title>real-estate-deal-key</title>
	<path d="M4,23.32c-0.551,0-1-0.448-1-1v-0.5c0-0.276,0.224-0.5,0.5-0.5S4,21.544,4,21.82v0.5h11v-8H9v1.5
		c0,0.276-0.224,0.5-0.5,0.5S8,16.095,8,15.82v-1.5c0-0.552,0.449-1,1-1h6c0.552,0,1,0.448,1,1v8h4v-10c0-0.276,0.224-0.5,0.5-0.5
		s0.5,0.224,0.5,0.5v10c0,0.552-0.448,1-1,1H4z"/>
	<path d="M3.5,14.32c-0.276,0-0.5-0.224-0.5-0.5v-2c0-0.276,0.224-0.5,0.5-0.5S4,11.544,4,11.82v2C4,14.095,3.776,14.32,3.5,14.32z"
		/>
	<path d="M0.5,11.82c-0.14,0-0.275-0.059-0.369-0.163c-0.09-0.099-0.136-0.226-0.13-0.36c0.006-0.133,0.064-0.256,0.162-0.347
		l10.826-9.884C11.267,0.812,11.626,0.672,12,0.672s0.733,0.14,1.011,0.394l10.826,9.884c0.099,0.09,0.156,0.213,0.163,0.347
		s-0.04,0.261-0.131,0.36C23.775,11.76,23.64,11.82,23.5,11.82c-0.125,0-0.245-0.047-0.337-0.131L12.337,1.805
		C12.244,1.72,12.124,1.673,12,1.673c-0.124,0-0.243,0.047-0.337,0.132L0.837,11.689C0.745,11.773,0.625,11.82,0.5,11.82z"/>
	<path d="M10.5,20.32c-0.276,0-0.5-0.224-0.5-0.5v-1.5H9v1c0,0.276-0.224,0.5-0.5,0.5S8,19.595,8,19.32v-1H4.949
		c-0.234,1.155-1.25,2-2.449,2c-1.379,0-2.5-1.122-2.5-2.5s1.121-2.5,2.5-2.5c1.199,0,2.215,0.845,2.449,2H12
		c0.276,0,0.5,0.224,0.5,0.5s-0.224,0.5-0.5,0.5h-1v1.5C11,20.095,10.776,20.32,10.5,20.32z M2.5,16.32c-0.827,0-1.5,0.673-1.5,1.5
		s0.673,1.5,1.5,1.5S4,18.647,4,17.82S3.327,16.32,2.5,16.32z"/>
</g>
</svg>
