<?xml version="1.0" encoding="utf-8"?>
<!-- Generator: Adobe Illustrator 22.1.0, SVG Export Plug-In . SVG Version: 6.00 Build 0)  -->
<svg version="1.1" id="Light" xmlns="http://www.w3.org/2000/svg" xmlns:xlink="http://www.w3.org/1999/xlink" x="0px" y="0px"
	 viewBox="0 0 24 24" style="enable-background:new 0 0 24 24;" xml:space="preserve">
<g>
	<title>landmarks-view-point</title>
	<path d="M16.25,22.749c-0.4,0-0.776-0.156-1.059-0.438c-0.284-0.283-0.44-0.66-0.44-1.061v-1.88l-1.356,1.356
		c-0.289,0.279-0.644,0.425-1.03,0.425l-0.044,0c-0.397-0.007-0.771-0.169-1.05-0.458c-0.575-0.594-0.558-1.546,0.037-2.121
		l1.322-1.322l-1.879,0c-0.827,0-1.5-0.673-1.5-1.5s0.673-1.5,1.5-1.5h1.878l-1.328-1.328c-0.569-0.589-0.571-1.506-0.006-2.09
		c0.285-0.295,0.668-0.457,1.079-0.457c0.391,0,0.761,0.149,1.042,0.42l1.334,1.334l0-1.879c0-0.827,0.673-1.5,1.5-1.5
		s1.5,0.673,1.5,1.5v1.879l1.328-1.329c0.287-0.277,0.659-0.429,1.05-0.429c0.389,0,0.759,0.15,1.041,0.422
		c0.288,0.278,0.451,0.652,0.458,1.053c0.007,0.401-0.143,0.78-0.421,1.068l-1.334,1.334h1.879c0.827,0,1.5,0.673,1.5,1.5
		s-0.673,1.5-1.5,1.5h-1.879l1.328,1.329c0.569,0.589,0.571,1.506,0.006,2.09c-0.285,0.295-0.668,0.458-1.079,0.458
		c-0.391,0-0.761-0.149-1.042-0.421l-1.334-1.334l0,1.879c0,0.826-0.673,1.499-1.499,1.499C16.252,22.749,16.25,22.749,16.25,22.749
		z M15,18.017c0.2,0,0.388,0.078,0.53,0.219c0.141,0.141,0.22,0.329,0.22,0.529v2.485c0,0.133,0.052,0.259,0.147,0.353
		s0.22,0.146,0.353,0.146c0.276,0,0.5-0.224,0.5-0.5v-2.482c0-0.201,0.079-0.39,0.221-0.531c0.142-0.141,0.33-0.219,0.529-0.219
		c0.202,0.001,0.39,0.079,0.531,0.22l1.755,1.755c0.089,0.085,0.21,0.134,0.34,0.134c0.138,0,0.266-0.054,0.361-0.153
		c0.188-0.195,0.188-0.5,0-0.695l-1.749-1.749c-0.141-0.14-0.219-0.329-0.22-0.529c0-0.2,0.077-0.389,0.218-0.531
		c0.14-0.14,0.333-0.221,0.532-0.221h2.482c0.276,0,0.5-0.224,0.5-0.5s-0.224-0.5-0.5-0.5h-2.482c-0.201,0-0.388-0.077-0.529-0.218
		c-0.142-0.142-0.221-0.33-0.221-0.531c-0.001-0.198,0.08-0.392,0.221-0.533l1.754-1.754c0.088-0.091,0.136-0.216,0.134-0.35
		c-0.002-0.133-0.056-0.258-0.152-0.351c-0.095-0.091-0.218-0.141-0.348-0.141s-0.253,0.05-0.348,0.142l-1.749,1.749
		c-0.141,0.142-0.33,0.22-0.531,0.22c-0.2,0-0.388-0.078-0.53-0.219s-0.22-0.329-0.22-0.529V10.25c0-0.276-0.224-0.5-0.5-0.5
		s-0.5,0.224-0.5,0.5v2.483c0,0.201-0.079,0.39-0.221,0.531c-0.142,0.141-0.33,0.219-0.529,0.219
		c-0.202-0.001-0.39-0.079-0.531-0.22l-1.755-1.755c-0.089-0.086-0.211-0.134-0.34-0.134c-0.138,0-0.266,0.054-0.361,0.153
		c-0.188,0.195-0.188,0.5,0,0.695l1.749,1.749c0.141,0.14,0.219,0.329,0.22,0.529c0,0.2-0.077,0.389-0.218,0.531
		c-0.138,0.139-0.332,0.219-0.531,0.221H10.75c-0.276,0-0.5,0.224-0.5,0.5s0.224,0.5,0.5,0.5h2.482c0.414,0,0.75,0.336,0.75,0.749
		c0.001,0.198-0.08,0.392-0.221,0.533l-1.754,1.754c-0.203,0.196-0.21,0.515-0.018,0.713c0.093,0.096,0.217,0.15,0.351,0.152
		c0.137,0,0.262-0.05,0.356-0.14l1.773-1.773c0.141-0.141,0.329-0.22,0.529-0.22C15,18.017,15,18.017,15,18.017z"/>
	<path d="M2.25,8.75c-0.276,0-0.5-0.224-0.5-0.5s0.224-0.5,0.5-0.5h4.727L0.91,2.116C0.708,1.929,0.697,1.612,0.884,1.41
		c0.095-0.102,0.228-0.16,0.367-0.16c0.126,0,0.247,0.047,0.34,0.133l6.16,5.72V2.75c0-0.276,0.224-0.5,0.5-0.5
		c0.276,0,0.5,0.224,0.5,0.5v5.5c0,0.023-0.007,0.067-0.013,0.088C8.736,8.353,8.731,8.39,8.715,8.433
		C8.698,8.475,8.676,8.506,8.663,8.524c-0.01,0.02-0.03,0.049-0.046,0.065C8.609,8.599,8.599,8.608,8.589,8.617
		C8.555,8.647,8.52,8.671,8.482,8.691C8.47,8.699,8.457,8.705,8.446,8.71C8.383,8.737,8.318,8.75,8.25,8.75H2.25z"/>
</g>
</svg>
