<?xml version="1.0" encoding="utf-8"?>
<!-- Generator: Adobe Illustrator 22.1.0, SVG Export Plug-In . SVG Version: 6.00 Build 0)  -->
<svg version="1.1" id="Light" xmlns="http://www.w3.org/2000/svg" xmlns:xlink="http://www.w3.org/1999/xlink" x="0px" y="0px"
	 viewBox="0 0 24 24" style="enable-background:new 0 0 24 24;" xml:space="preserve">
<g>
	<title>landmarks-stone</title>
	<path d="M6.75,15c-1.654,0-3-1.346-3-3c0-1.654,1.346-3,3-3s3,1.346,3,3C9.75,13.654,8.404,15,6.75,15z M6.75,10
		c-1.103,0-2,0.897-2,2s0.897,2,2,2s2-0.897,2-2S7.853,10,6.75,10z"/>
	<path d="M19.251,13.98c-0.033,0-0.066-0.002-0.099-0.005l-6.062-0.606c-0.197-0.018-0.384-0.118-0.51-0.275
		c-0.124-0.154-0.183-0.356-0.161-0.553c0.042-0.36,0.042-0.722,0-1.079c-0.022-0.202,0.035-0.399,0.16-0.556
		c0.126-0.157,0.313-0.258,0.513-0.276l6.058-0.609c0.033-0.003,0.067-0.005,0.102-0.005c0.269,0.001,0.52,0.107,0.708,0.297
		s0.291,0.442,0.29,0.708v1.956c0,0.034-0.002,0.068-0.005,0.101C20.194,13.593,19.766,13.98,19.251,13.98z M19.25,12.98l0-1.961
		l0.001-0.253l-0.001,0.25l-5.814,0.584c0.019,0.266,0.019,0.534,0,0.8L19.25,12.98z"/>
	<path d="M14.572,22.204c-0.318,0-0.61-0.145-0.8-0.399l-3.516-4.688c-0.233-0.309-0.188-0.753,0.102-1.01
		c0.284-0.254,0.544-0.54,0.772-0.849c0.024-0.032,0.048-0.059,0.073-0.085c0.146-0.145,0.324-0.219,0.532-0.22
		c0.203,0.001,0.39,0.08,0.531,0.222l4.169,4.163c0.193,0.199,0.293,0.447,0.293,0.709c0,0.267-0.105,0.518-0.294,0.707
		l-1.155,1.158c-0.035,0.034-0.069,0.063-0.104,0.09C14.998,22.135,14.79,22.204,14.572,22.204z M14.571,21.205l1.155-1.158
		l-3.969-3.966c-0.175,0.218-0.365,0.424-0.567,0.618L14.571,21.205z"/>
	<path d="M7.249,23.867c-0.485,0-0.899-0.347-0.984-0.826l-0.827-4.687c-0.012-0.068-0.015-0.137-0.008-0.206
		c0.02-0.199,0.117-0.379,0.271-0.505c0.135-0.111,0.298-0.169,0.471-0.169c0.026,0,0.052,0.001,0.078,0.004
		C6.405,17.492,6.565,17.5,6.723,17.5c0.325,0,0.652-0.031,0.973-0.094c0.048-0.009,0.095-0.013,0.142-0.013
		c0.329,0,0.616,0.211,0.715,0.525l1.308,4.176c0.077,0.269,0.049,0.543-0.079,0.779C9.653,23.11,9.44,23.28,9.182,23.354
		l-1.659,0.474c-0.034,0.01-0.068,0.017-0.101,0.023C7.364,23.862,7.306,23.867,7.249,23.867z M7.249,22.867l1.657-0.474
		l-1.243-3.966c-0.31,0.048-0.626,0.073-0.94,0.073c-0.082,0-0.164-0.002-0.246-0.005L7.249,22.867z"/>
	<path d="M11.738,9.046c-0.023,0-0.047-0.001-0.07-0.003c-0.209-0.013-0.408-0.124-0.539-0.302
		c-0.227-0.308-0.487-0.594-0.773-0.849c-0.292-0.261-0.336-0.694-0.102-1.008l3.517-4.688c0.029-0.038,0.059-0.072,0.09-0.104
		c0.19-0.191,0.442-0.295,0.71-0.295c0.267,0,0.517,0.104,0.706,0.292l1.156,1.151c0.39,0.398,0.387,1.03,0.001,1.416l-4.166,4.172
		C12.128,8.967,11.94,9.046,11.738,9.046z M11.19,7.301c0.201,0.192,0.39,0.398,0.565,0.615l3.97-3.97l-1.156-1.151L11.19,7.301z"/>
	<path d="M7.838,6.604c-0.046,0-0.092-0.004-0.139-0.013c-0.001,0-0.003,0-0.003,0C7.38,6.53,7.056,6.499,6.734,6.499
		c-0.163,0-0.327,0.008-0.489,0.024C6.222,6.525,6.197,6.526,6.172,6.526c-0.045,0-0.09-0.004-0.134-0.012
		c-0.196-0.035-0.367-0.145-0.481-0.31C5.443,6.04,5.399,5.841,5.435,5.644l0.827-4.685C6.267,0.926,6.275,0.893,6.284,0.86
		c0.122-0.428,0.517-0.727,0.963-0.727c0.092,0,0.184,0.013,0.273,0.038l1.659,0.474c0.276,0.086,0.485,0.258,0.611,0.498
		C9.913,1.38,9.937,1.651,9.857,1.906L8.552,6.078C8.455,6.393,8.168,6.604,7.838,6.604z M6.735,5.499
		c0.31,0,0.621,0.024,0.928,0.071l1.24-3.964L7.246,1.133L6.475,5.505C6.562,5.501,6.649,5.499,6.735,5.499z"/>
</g>
</svg>
