<?xml version="1.0" encoding="utf-8"?>
<!-- Generator: Adobe Illustrator 22.1.0, SVG Export Plug-In . SVG Version: 6.00 Build 0)  -->
<svg version="1.1" id="Layer_1" xmlns="http://www.w3.org/2000/svg" xmlns:xlink="http://www.w3.org/1999/xlink" x="0px" y="0px"
	 viewBox="0 0 24 24" style="enable-background:new 0 0 24 24;" xml:space="preserve">
<g>
	<title>car-actions-search</title>
	<path d="M2.5,15.5c-0.551,0-1-0.448-1-1v-1c-0.551,0-1-0.448-1-1V9.207c0-0.267,0.104-0.517,0.292-0.706l1.782-1.782L4.41,2.128
		C4.563,1.747,4.927,1.5,5.338,1.5h10.323c0.412,0,0.776,0.246,0.929,0.628l1.836,4.591l1.927,1.927C20.448,8.741,20.5,8.866,20.5,9
		s-0.052,0.259-0.146,0.354S20.134,9.5,20,9.5s-0.259-0.052-0.354-0.146L17.793,7.5H3.207L1.5,9.208l0,1.292h4
		C5.776,10.5,6,10.724,6,11s-0.224,0.5-0.5,0.5h-4v1h7.955c0.276,0,0.5,0.224,0.5,0.5s-0.224,0.5-0.5,0.5H5.5v1c0,0.552-0.449,1-1,1
		H2.5z M2.5,14.5h2v-1h-2V14.5z M17.261,6.5l-1.6-4L5.337,2.5l-1.599,4H17.261z"/>
	<path d="M23.002,22.5c-0.134,0-0.259-0.052-0.354-0.146l-2.938-2.938c-0.9,0.738-2.02,1.142-3.18,1.142
		c-2.773,0-5.029-2.256-5.029-5.029s2.256-5.029,5.029-5.029s5.029,2.256,5.029,5.029c0,1.16-0.404,2.28-1.142,3.18l2.938,2.938
		c0.094,0.094,0.146,0.22,0.146,0.354s-0.052,0.259-0.146,0.354S23.135,22.5,23.002,22.5z M16.531,11.5
		c-2.222,0-4.029,1.807-4.029,4.029s1.807,4.029,4.029,4.029s4.029-1.807,4.029-4.029S18.753,11.5,16.531,11.5z"/>
</g>
</svg>
