<?xml version="1.0" encoding="utf-8"?>
<!-- Generator: Adobe Illustrator 22.1.0, SVG Export Plug-In . SVG Version: 6.00 Build 0)  -->
<svg version="1.1" id="Layer_1" xmlns="http://www.w3.org/2000/svg" xmlns:xlink="http://www.w3.org/1999/xlink" x="0px" y="0px"
	 viewBox="0 0 24 24" style="enable-background:new 0 0 24 24;" xml:space="preserve">
<g>
	<title>car-actions-shield</title>
	<path d="M2.531,15.281c-0.551,0-1-0.448-1-1v-1c-0.551,0-1-0.448-1-1V8.988C0.532,8.72,0.636,8.469,0.825,8.281L2.605,6.5
		l1.837-4.586c0.152-0.381,0.516-0.629,0.928-0.629h10.323c0.412,0,0.776,0.248,0.928,0.63L18.457,6.5l0.927,0.927
		c0.094,0.094,0.146,0.22,0.146,0.354s-0.052,0.259-0.146,0.354s-0.22,0.146-0.354,0.146s-0.259-0.052-0.354-0.146l-0.854-0.854
		H3.238L1.532,8.989l-0.001,1.292h4c0.276,0,0.5,0.224,0.5,0.5s-0.224,0.5-0.5,0.5h-4v1h7c0.276,0,0.5,0.224,0.5,0.5
		s-0.224,0.5-0.5,0.5h-3v1c0,0.552-0.449,1-1,1H2.531z M2.531,14.281h2v-1h-2V14.281z M17.292,6.281l-1.6-3.995L5.37,2.285
		l-1.6,3.996H17.292z"/>
	<path d="M17.032,18.281c-0.276,0-0.5-0.224-0.5-0.5v-2.5h-2.5c-0.276,0-0.5-0.224-0.5-0.5s0.224-0.5,0.5-0.5h2.5v-2.5
		c0-0.276,0.224-0.5,0.5-0.5s0.5,0.224,0.5,0.5v2.5h2.5c0.276,0,0.5,0.224,0.5,0.5s-0.224,0.5-0.5,0.5h-2.5v2.5
		C17.532,18.057,17.307,18.281,17.032,18.281z"/>
	<path d="M17.01,22.281c-0.252,0-0.499-0.045-0.735-0.134l-0.554-0.211c-3.056-1.165-5.19-3.963-5.19-6.805v-3.393
		c-0.001-0.615,0.364-1.171,0.929-1.416c1.789-0.677,3.651-1.026,5.545-1.041c1.914,0.017,3.788,0.364,5.573,1.032
		c0.584,0.252,0.953,0.81,0.953,1.426v3.392c0,2.835-2.152,5.634-5.233,6.805c0,0-0.555,0.212-0.557,0.212
		C17.507,22.236,17.261,22.281,17.01,22.281z M17.008,10.28c-1.771,0.015-3.511,0.34-5.171,0.968
		c-0.178,0.078-0.305,0.276-0.305,0.489v3.393c0,2.717,2.287,5.01,4.546,5.871l0.553,0.211c0.121,0.046,0.249,0.069,0.379,0.069
		s0.258-0.023,0.381-0.07l0.552-0.211c2.281-0.867,4.589-3.162,4.589-5.871v-3.393c0-0.217-0.128-0.412-0.327-0.498
		C20.549,10.62,18.796,10.296,17.008,10.28z"/>
</g>
</svg>
