<?xml version="1.0" encoding="utf-8"?>
<!-- Generator: Adobe Illustrator 22.1.0, SVG Export Plug-In . SVG Version: 6.00 Build 0)  -->
<svg version="1.1" id="Layer_1" xmlns="http://www.w3.org/2000/svg" xmlns:xlink="http://www.w3.org/1999/xlink" x="0px" y="0px"
	 viewBox="0 0 24 24" style="enable-background:new 0 0 24 24;" xml:space="preserve">
<g>
	<title>car-actions-check</title>
	<path d="M3,16c-0.551,0-1-0.448-1-1v-1c-0.551,0-1-0.448-1-1V9.707C1,9.44,1.104,9.19,1.292,9.001l1.782-1.782L4.91,2.628
		C5.063,2.247,5.427,2,5.838,2h10.323c0.412,0,0.776,0.246,0.929,0.628l1.836,4.591l0.927,0.927C19.948,8.241,20,8.366,20,8.5
		s-0.052,0.259-0.146,0.354S19.634,9,19.5,9s-0.259-0.052-0.354-0.146L18.293,8H3.707L2,9.708L2,11h4c0.276,0,0.5,0.224,0.5,0.5
		S6.276,12,6,12H2v1h6.5C8.776,13,9,13.224,9,13.5S8.776,14,8.5,14H6v1c0,0.552-0.449,1-1,1H3z M3,15h2v-1H3V15z M17.762,7l-1.6-4
		L5.837,3L4.238,7H17.762z"/>
	<path d="M16.5,22c-3.584,0-6.5-2.916-6.5-6.5c0-3.584,2.916-6.5,6.5-6.5s6.5,2.916,6.5,6.5C23,19.084,20.084,22,16.5,22z M16.5,10
		c-3.033,0-5.5,2.467-5.5,5.5s2.467,5.5,5.5,5.5s5.5-2.467,5.5-5.5S19.533,10,16.5,10z"/>
	<path d="M15.667,18.428c-0.273,0-0.533-0.087-0.751-0.251c-0.047-0.035-0.09-0.073-0.131-0.114l-1.5-1.5
		c-0.195-0.195-0.195-0.512,0-0.707c0.094-0.094,0.22-0.146,0.354-0.146s0.259,0.052,0.354,0.146l1.5,1.5
		c0.008,0.008,0.017,0.016,0.027,0.023c0.042,0.032,0.094,0.049,0.149,0.049c0.081,0,0.154-0.037,0.202-0.1l2.905-3.872
		c0.094-0.125,0.243-0.2,0.4-0.2c0.109,0,0.213,0.035,0.3,0.1c0.107,0.08,0.176,0.197,0.195,0.329
		c0.019,0.132-0.015,0.264-0.095,0.371l-2.905,3.872C16.434,18.242,16.059,18.428,15.667,18.428z"/>
</g>
</svg>
