<?xml version="1.0" encoding="utf-8"?>
<!-- Generator: Adobe Illustrator 22.1.0, SVG Export Plug-In . SVG Version: 6.00 Build 0)  -->
<svg version="1.1" id="Layer_1" xmlns="http://www.w3.org/2000/svg" xmlns:xlink="http://www.w3.org/1999/xlink" x="0px" y="0px"
	 viewBox="0 0 24 24" style="enable-background:new 0 0 24 24;" xml:space="preserve">
<g>
	<title>car-actions-disable-1</title>
	<path d="M4.25,15.75c-1.103,0-2-0.897-2-2v-1h-0.5c-0.827,0-1.5-0.673-1.5-1.5v-3c0-1.092,0.725-2.047,1.729-2.376L0.438,4.64
		c-0.104-0.083-0.17-0.202-0.185-0.335C0.238,4.172,0.276,4.042,0.36,3.938C0.455,3.818,0.597,3.75,0.75,3.75
		c0.113,0,0.224,0.039,0.312,0.109l1.791,1.432l0.25-2.263C3.211,1.735,4.28,0.752,5.589,0.75h9.321
		c1.31,0.002,2.38,0.988,2.488,2.292l0.249,2.25l1.791-1.432c0.089-0.071,0.199-0.11,0.312-0.11c0.152,0,0.295,0.068,0.39,0.187
		c0.173,0.216,0.137,0.531-0.078,0.703L18.52,5.874c1.004,0.329,1.729,1.284,1.729,2.376v0.5c0,0.276-0.224,0.5-0.5,0.5
		s-0.5-0.224-0.5-0.5v-0.5c0-0.827-0.673-1.5-1.5-1.5h-15c-0.827,0-1.5,0.673-1.5,1.5v3c0,0.276,0.224,0.5,0.5,0.5h7.5
		c0.276,0,0.5,0.224,0.5,0.5c0,0.276-0.224,0.5-0.5,0.5h-3v1C6.25,14.853,5.353,15.75,4.25,15.75z M3.25,13.75c0,0.552,0.449,1,1,1
		s1-0.448,1-1v-1h-2V13.75z M16.692,5.75l-0.289-2.611c-0.066-0.794-0.708-1.388-1.494-1.389H5.59
		C4.805,1.751,4.163,2.343,4.098,3.125L3.808,5.75H16.692z"/>
	<path d="M3.75,10.75c-0.827,0-1.5-0.673-1.5-1.5s0.673-1.5,1.5-1.5s1.5,0.673,1.5,1.5S4.577,10.75,3.75,10.75z M3.75,8.75
		c-0.276,0-0.5,0.224-0.5,0.5s0.224,0.5,0.5,0.5s0.5-0.224,0.5-0.5S4.026,8.75,3.75,8.75z"/>
	<path d="M16.75,22.75c-1.722,0-3.345-0.669-4.572-1.884c-0.009-0.007-0.017-0.014-0.024-0.021
		c-0.007-0.007-0.014-0.015-0.021-0.024c-1.215-1.227-1.884-2.849-1.884-4.572c0-3.584,2.916-6.5,6.5-6.5
		c1.718,0,3.337,0.666,4.563,1.876c0.013,0.01,0.026,0.02,0.036,0.03c0.011,0.012,0.021,0.023,0.028,0.034
		c1.205,1.217,1.873,2.839,1.873,4.56C23.25,19.834,20.334,22.75,16.75,22.75z M13.233,20.474c0.988,0.824,2.227,1.276,3.517,1.276
		c3.033,0,5.5-2.467,5.5-5.5c0-1.29-0.451-2.529-1.276-3.517L13.233,20.474z M16.75,10.75c-3.033,0-5.5,2.467-5.5,5.5
		c0,1.29,0.451,2.529,1.276,3.517l7.742-7.742C19.279,11.201,18.04,10.75,16.75,10.75z"/>
</g>
</svg>
