<?xml version="1.0" encoding="utf-8"?>
<!-- Generator: Adobe Illustrator 22.1.0, SVG Export Plug-In . SVG Version: 6.00 Build 0)  -->
<svg version="1.1" id="Light" xmlns="http://www.w3.org/2000/svg" xmlns:xlink="http://www.w3.org/1999/xlink" x="0px" y="0px"
	 viewBox="0 0 24 24" style="enable-background:new 0 0 24 24;" xml:space="preserve">
<g>
	<title>soccer-ball</title>
	<path d="M12,24c-0.89,0-1.789-0.102-2.671-0.303c-0.035-0.004-0.069-0.012-0.103-0.024c-5.051-1.2-8.739-5.477-9.179-10.646
		c-0.002-0.01-0.004-0.035-0.004-0.062C0.014,12.627,0,12.304,0,12c0-2.861,1.03-5.635,2.902-7.811
		c0.024-0.036,0.052-0.068,0.084-0.097C5.27,1.491,8.554,0,12,0c1.576,0,3.112,0.304,4.565,0.904
		c0.024,0.008,0.046,0.017,0.069,0.029c1.667,0.696,3.195,1.801,4.406,3.188c0.031,0.028,0.057,0.059,0.08,0.093
		C22.977,6.386,24,9.151,24,12c0,0.293-0.014,0.607-0.042,0.958c0.001,0.006-0.001,0.03-0.005,0.056
		c-0.151,1.839-0.716,3.586-1.677,5.175c-0.003,0.009-0.019,0.036-0.039,0.062c-1.642,2.692-4.352,4.671-7.426,5.413
		c-0.036,0.013-0.073,0.021-0.11,0.026C13.811,23.896,12.902,24,12,24z M9.704,22.756C10.462,22.918,11.234,23,12,23
		c0.776,0,1.56-0.085,2.331-0.252l2.177-3.649l-1.558-1.74H9.078l-1.559,1.742L9.704,22.756z M3.302,18.725
		C4.59,20.385,6.33,21.65,8.3,22.356L6.581,19.48L3.302,18.725z M15.737,22.343c1.952-0.708,3.677-1.966,4.957-3.613l-3.247,0.748
		L15.737,22.343z M6.725,18.487l1.565-1.748L6.49,11.184L3.866,9.902l-2.807,3.23c0.159,1.554,0.638,3.026,1.425,4.378L6.725,18.487
		z M17.301,18.485l4.211-0.97c0.792-1.361,1.273-2.844,1.43-4.412l-2.784-3.204l-2.622,1.285l-1.798,5.556L17.301,18.485z
		 M14.81,16.359l1.728-5.34l-4.526-3.298l-4.526,3.298l1.731,5.34H14.81z M2.93,5.787c-1.203,1.745-1.863,3.761-1.925,5.884
		l2.219-2.554L2.93,5.787z M22.994,11.638c-0.067-2.097-0.719-4.09-1.902-5.819l-0.292,3.294L22.994,11.638z M6.849,10.247
		l4.664-3.399V3.584L7.608,1.916C6.184,2.538,4.883,3.479,3.833,4.643l0.381,4.316L6.849,10.247z M17.177,10.246l2.634-1.29
		l0.379-4.287c-1.051-1.173-2.356-2.12-3.785-2.747l-3.892,1.662v3.264L17.177,10.246z M12.013,2.71l3.01-1.286
		C14.041,1.143,13.027,1,12,1c-1.021,0-2.029,0.141-3.006,0.42L12.013,2.71z"/>
</g>
</svg>
