<?xml version="1.0" encoding="utf-8"?>
<!-- Generator: Adobe Illustrator 22.1.0, SVG Export Plug-In . SVG Version: 6.00 Build 0)  -->
<svg version="1.1" id="Light" xmlns="http://www.w3.org/2000/svg" xmlns:xlink="http://www.w3.org/1999/xlink" x="0px" y="0px"
	 viewBox="0 0 24 24" style="enable-background:new 0 0 24 24;" xml:space="preserve">
<g>
	<title>soccer-goalkeeper-glove-1</title>
	<path d="M7.156,22.942c-0.401,0-0.778-0.156-1.06-0.439l-4.95-4.949c-0.286-0.289-0.44-0.664-0.44-1.062
		c0-0.401,0.156-0.777,0.44-1.061l2.626-2.629c-0.353-1.622,0.242-3.065,1.966-4.794l6.365-6.362c0.02-0.023,0.06-0.063,0.101-0.101
		c0.371-0.342,0.852-0.529,1.356-0.529c0.558,0,1.094,0.235,1.471,0.644c0.221,0.239,0.377,0.526,0.459,0.835l0.148-0.148
		c0.377-0.377,0.88-0.584,1.414-0.584c0.536,0,1.039,0.208,1.417,0.586c0.282,0.283,0.469,0.635,0.545,1.02
		c0.276-0.136,0.584-0.208,0.899-0.208c0.555,0.01,1.054,0.226,1.425,0.61c0.371,0.384,0.57,0.89,0.561,1.424
		c-0.005,0.303-0.077,0.593-0.209,0.857c0.383,0.076,0.734,0.263,1.016,0.544c0.377,0.377,0.585,0.88,0.585,1.414
		c0,0.535-0.208,1.037-0.585,1.414l-4.246,4.246l1.809-0.251c0.075-0.006,0.133-0.008,0.19-0.008c1.318,0,2.419,1.025,2.505,2.334
		c0.078,1.2-0.709,2.137-2.216,2.639c-1.292,0.424-2.618,0.784-3.943,1.072c-0.511,0.109-1.048,0.269-1.568,0.424
		c-0.958,0.286-1.946,0.58-2.854,0.58c-0.655,0-1.201-0.153-1.661-0.466l-2.505,2.508C7.934,22.786,7.557,22.942,7.156,22.942z
		 M1.853,16.139c-0.095,0.094-0.147,0.22-0.147,0.354c0,0.134,0.052,0.259,0.146,0.353c0.005,0.004,0.013,0.014,0.017,0.019
		l4.933,4.931c0.094,0.094,0.219,0.146,0.353,0.146s0.26-0.052,0.354-0.146l2.472-2.474l-5.657-5.656L1.853,16.139z M11.042,18.968
		c0.337,0.337,0.766,0.494,1.35,0.494c0.749,0,1.627-0.262,2.556-0.539c0.539-0.161,1.094-0.326,1.646-0.445
		c1.29-0.281,2.583-0.632,3.84-1.044c0.731-0.243,1.591-0.722,1.532-1.624c-0.052-0.786-0.707-1.401-1.492-1.401
		c-0.034,0-0.068,0.001-0.103,0.004l-3.25,0.453c-0.022,0.003-0.047,0.005-0.071,0.005c-0.189,0-0.36-0.106-0.445-0.277
		c-0.096-0.193-0.058-0.424,0.094-0.576l5.3-5.3c0.188-0.188,0.292-0.44,0.292-0.707c0-0.268-0.104-0.519-0.292-0.707
		c-0.188-0.188-0.439-0.292-0.707-0.292c-0.265,0-0.515,0.103-0.704,0.289c-0.004,0.004-3.535,3.535-3.535,3.535
		c-0.094,0.094-0.22,0.146-0.354,0.146s-0.259-0.052-0.354-0.146c-0.094-0.094-0.146-0.22-0.146-0.354
		c0-0.134,0.052-0.259,0.146-0.354l4.241-4.243c0.198-0.191,0.307-0.441,0.312-0.708c0.005-0.267-0.095-0.52-0.281-0.712
		c-0.186-0.192-0.435-0.301-0.702-0.305l-0.029,0c-0.257,0-0.493,0.097-0.683,0.281l-4.274,4.274
		c-0.094,0.094-0.22,0.146-0.354,0.146s-0.259-0.052-0.354-0.146c-0.195-0.195-0.195-0.512,0-0.707l3.536-3.536
		c0.391-0.39,0.391-1.026,0.001-1.416c-0.188-0.189-0.44-0.293-0.708-0.293c-0.268,0-0.519,0.104-0.708,0.292l-1.328,1.329
		c-0.028,0.031-0.063,0.068-0.102,0.103c-0.003,0.003-0.006,0.005-0.009,0.008L12.81,6.593c-0.094,0.095-0.22,0.147-0.354,0.147
		c-0.133,0-0.259-0.052-0.353-0.146c-0.195-0.195-0.195-0.512,0-0.707l2.144-2.146c0.192-0.184,0.302-0.426,0.313-0.684
		c0.011-0.267-0.083-0.522-0.264-0.718c-0.188-0.204-0.457-0.322-0.736-0.322c-0.252,0-0.492,0.094-0.677,0.264
		c-0.02,0.018-0.039,0.037-0.057,0.057l-6.38,6.378c-1.76,1.765-1.952,2.876-1.673,3.984L11.042,18.968z"/>
</g>
</svg>
