<?xml version="1.0" encoding="utf-8"?>
<!-- Generator: Adobe Illustrator 22.1.0, SVG Export Plug-In . SVG Version: 6.00 Build 0)  -->
<svg version="1.1" id="Light" xmlns="http://www.w3.org/2000/svg" xmlns:xlink="http://www.w3.org/1999/xlink" x="0px" y="0px"
	 viewBox="0 0 24 24" style="enable-background:new 0 0 24 24;" xml:space="preserve">
<g>
	<title>soccer-kick-ball</title>
	<path d="M16.848,22.75c-0.052,0-0.103-0.008-0.152-0.024c-0.127-0.04-0.231-0.127-0.292-0.246
		c-0.062-0.118-0.073-0.254-0.033-0.381l0.152-0.48l-1.906-0.605l-0.153,0.479c-0.066,0.209-0.258,0.349-0.477,0.349
		c-0.052,0-0.103-0.008-0.152-0.024c-0.127-0.04-0.231-0.128-0.292-0.246c-0.061-0.119-0.073-0.254-0.032-0.381l0.153-0.479
		l-0.873-0.277c-0.012-0.003-0.025-0.007-0.038-0.012l-0.995-0.316l-0.152,0.479c-0.066,0.208-0.258,0.349-0.476,0.349
		c-0.052,0-0.103-0.008-0.152-0.024c-0.262-0.083-0.408-0.365-0.325-0.628l0.152-0.479l-1.906-0.605l-0.152,0.478
		c-0.066,0.208-0.258,0.349-0.476,0.349c-0.052,0-0.103-0.008-0.152-0.023c-0.262-0.084-0.408-0.365-0.325-0.628l0.152-0.478
		l-0.63-0.2c-0.941-0.3-1.479-1.308-1.207-2.254c0.004-0.023,0.009-0.045,0.015-0.063c0.292-0.916,1.017-1.623,1.939-1.893
		c1.421-0.413,3.856-0.5,5.65-0.5c0.625,0,1.152,0.01,1.495,0.02l0.83-5.201c-0.009-0.069-0.004-0.134,0.015-0.197
		c0.008-0.025,0.018-0.047,0.027-0.064l0.368-2.302c0.078-0.488,0.493-0.842,0.989-0.842c0.051,0,0.103,0.004,0.155,0.012
		c0.045,0.007,0.089,0.017,0.133,0.03c0.967,0.293,1.86,0.528,2.724,0.755c0.888,0.234,1.807,0.475,2.814,0.782
		c0.527,0.16,0.826,0.72,0.666,1.248l-2.546,8.015c-0.003,0.034-0.01,0.065-0.02,0.096l-1.817,5.718
		c-0.066,0.209-0.258,0.349-0.477,0.349c-0.052,0-0.103-0.008-0.152-0.024l-1.438-0.457l-0.152,0.479
		C17.259,22.61,17.067,22.75,16.848,22.75z M18.742,21.274l1.317-4.144c-0.296,0.095-0.615,0.143-0.952,0.143
		c-1.281,0-2.634-0.695-3.53-1.813c-0.012-0.014-0.023-0.031-0.034-0.048c-0.081-0.131-0.157-0.266-0.229-0.403
		c-0.142-0.004-0.33-0.009-0.554-0.012l1.097,5.362L18.742,21.274z M14.765,20.011l-1.028-5.024c-0.449,0-0.888,0.005-1.309,0.016
		l0.934,4.562L14.765,20.011z M12.271,19.219l-0.855-4.177c-0.458,0.024-0.882,0.055-1.265,0.093l0.681,3.626L12.271,19.219z
		 M7.09,16.642c-0.004,0.02-0.008,0.038-0.013,0.053c-0.139,0.438,0.104,0.908,0.542,1.047l2.131,0.677l-0.593-3.153
		c-0.314,0.053-0.587,0.113-0.814,0.179C7.756,15.617,7.289,16.064,7.09,16.642z M16.376,14.858c0.698,0.858,1.772,1.412,2.74,1.412
		c0.341,0,0.647-0.069,0.909-0.205l0.431-0.223l1.565-4.928l-5.068-1.516l-0.805,5.043C16.223,14.592,16.299,14.731,16.376,14.858z
		 M22.326,9.961l0.644-2.028c-0.983-0.3-1.892-0.539-2.772-0.77c-0.885-0.233-1.786-0.469-2.763-0.766l-0.321,2.005L22.326,9.961z"
		/>
	<path d="M6.031,13.25c-3.308,0-6-2.692-6-6c0-0.746,0.137-1.476,0.408-2.172c0.003-0.01,0.01-0.029,0.02-0.047
		C1.364,2.741,3.555,1.25,6.031,1.25c2.478,0,4.669,1.493,5.582,3.803c0.001,0.002,0.009,0.022,0.009,0.024
		c0.271,0.693,0.409,1.425,0.409,2.173c0,1.921-0.934,3.74-2.5,4.869c-0.009,0.007-0.019,0.014-0.029,0.021
		C8.482,12.866,7.282,13.25,6.031,13.25z M3.45,11.529c0.779,0.472,1.667,0.721,2.581,0.721s1.802-0.248,2.581-0.72l-1.39-2.78H4.84
		L3.45,11.529z M9.424,10.918c1.025-0.948,1.607-2.267,1.607-3.668c0-0.504-0.079-1.007-0.236-1.5H8.891L8.071,8.212L9.424,10.918z
		 M1.267,5.75C1.11,6.243,1.031,6.746,1.031,7.25c0,1.4,0.582,2.72,1.607,3.667l1.353-2.706L3.171,5.75H1.267z M7.171,7.75
		l0.776-2.327L6.031,3.89L4.116,5.423L4.891,7.75H7.171z M10.353,4.75C9.548,3.361,8.13,2.442,6.531,2.282V3.01l2.175,1.74H10.353z
		 M3.356,4.75l2.175-1.74V2.282C3.933,2.442,2.514,3.361,1.709,4.75H3.356z"/>
</g>
</svg>
