<?xml version="1.0" encoding="utf-8"?>
<!-- Generator: Adobe Illustrator 22.1.0, SVG Export Plug-In . SVG Version: 6.00 Build 0)  -->
<svg version="1.1" id="Light" xmlns="http://www.w3.org/2000/svg" xmlns:xlink="http://www.w3.org/1999/xlink" x="0px" y="0px"
	 viewBox="0 0 24 24" style="enable-background:new 0 0 24 24;" xml:space="preserve">
<g>
	<title>soccer-goal-net</title>
	<path d="M22.499,19.69c-0.234,0-0.458-0.053-0.668-0.158l-2.449-1.223H4.618l-2.447,1.222c-0.208,0.104-0.44,0.159-0.671,0.159
		c-0.827,0-1.5-0.673-1.5-1.5V5.808c0-0.393,0.151-0.763,0.425-1.045C0.43,4.758,0.435,4.753,0.44,4.748
		c0.005-0.005,0.01-0.009,0.015-0.013C0.737,4.459,1.107,4.308,1.5,4.308h21c0.393,0,0.764,0.151,1.047,0.427
		c0,0,0.001,0.001,0.002,0.001c0.009,0.008,0.017,0.016,0.025,0.026C23.849,5.045,24,5.416,24,5.808l0.001,12.382
		c0,0.231-0.055,0.462-0.158,0.669C23.587,19.372,23.072,19.69,22.499,19.69z M22.278,18.637c0.07,0.035,0.145,0.053,0.222,0.053
		c0.192,0,0.364-0.106,0.449-0.277c0.034-0.069,0.052-0.146,0.053-0.224L23,6.015l-3,3v8.484L22.278,18.637z M1,18.189
		c0,0.276,0.224,0.5,0.5,0.5c0.077,0,0.155-0.018,0.224-0.053L4,17.499V9.015l-3-3V18.189z M19,17.308v-2h-2v2H19z M16,17.308v-2h-2
		v2H16z M13,17.308v-2h-2v2H13z M10,17.308v-2H8v2H10z M7,17.308v-2H5v2H7z M19,14.308v-2h-2v2H19z M16,14.308v-2h-2v2H16z
		 M13,14.308v-2h-2v2H13z M10,14.308v-2H8v2H10z M7,14.308v-2H5v2H7z M19,11.308v-2h-2v2H19z M16,11.308v-2h-2v2H16z M13,11.308v-2
		h-2v2H13z M10,11.308v-2H8v2H10z M7,11.308v-2H5v2H7z M19.293,8.308l3-3H1.707l3,3H19.293z"/>
</g>
</svg>
