<?xml version="1.0" encoding="utf-8"?>
<!-- Generator: Adobe Illustrator 22.1.0, SVG Export Plug-In . SVG Version: 6.00 Build 0)  -->
<svg version="1.1" id="Light" xmlns="http://www.w3.org/2000/svg" xmlns:xlink="http://www.w3.org/1999/xlink" x="0px" y="0px"
	 viewBox="0 0 24 24" style="enable-background:new 0 0 24 24;" xml:space="preserve">
<g>
	<title>soccer-player-ball</title>
	<path d="M15.125,6.375c-1.654,0-3-1.346-3-3s1.346-3,3-3s3,1.346,3,3S16.779,6.375,15.125,6.375z M15.125,1.375
		c-1.103,0-2,0.897-2,2s0.897,2,2,2s2-0.897,2-2S16.228,1.375,15.125,1.375z"/>
	<path d="M21.5,23.625c-1.378,0-2.5-1.122-2.5-2.5s1.122-2.5,2.5-2.5s2.5,1.122,2.5,2.5S22.878,23.625,21.5,23.625z M21.5,19.625
		c-0.827,0-1.5,0.673-1.5,1.5s0.673,1.5,1.5,1.5s1.5-0.673,1.5-1.5S22.327,19.625,21.5,19.625z"/>
	<path d="M13,23.625c-1.103,0-2-0.897-2-2v-2.152c0.001-0.286-0.121-0.559-0.333-0.749l-1.834-1.627
		c-0.938,0.974-2.235,1.528-3.599,1.529H2c-1.103,0-2-0.897-2-2s0.897-2,2-2h3.233c0.364,0,0.699-0.197,0.875-0.514L8.58,9.664
		c-1.044,0.155-1.972,0.758-2.539,1.671l-0.217,0.349c-0.368,0.59-1.004,0.942-1.701,0.942c-0.374,0-0.739-0.105-1.056-0.303
		c-0.453-0.283-0.77-0.725-0.89-1.246c-0.121-0.521-0.031-1.057,0.252-1.511l0.218-0.349c1.406-2.253,3.824-3.598,6.47-3.598
		c1.166,0,2.293,0.261,3.351,0.777c0.043,0.018,0.109,0.049,0.173,0.085l0.042,0.027c1.031,0.541,1.938,1.324,2.623,2.265
		c0.107,0.147,0.206,0.285,0.3,0.416c0.917,1.28,1.163,1.624,2.706,1.624h0.518c0.018-0.002,0.036-0.003,0.054-0.003
		c1.103,0,2,0.897,2,2s-0.897,2-2,2h-0.572c-2.979,0-4.276-1.028-6.086-3.476l-1.274,2.296l2.368,2.106
		C14.388,16.683,15,18.045,15,19.473v2.152C15,22.728,14.103,23.625,13,23.625z M8.787,15.887c0.123,0,0.24,0.045,0.332,0.126
		l2.213,1.964c0.426,0.381,0.67,0.927,0.668,1.497v2.151c0,0.552,0.448,1,1,1s1-0.448,1-1v-2.152c0-1.142-0.49-2.232-1.343-2.99
		l-2.668-2.372c-0.176-0.156-0.219-0.41-0.105-0.616l1.832-3.3c0.077-0.139,0.218-0.234,0.376-0.254
		c0.021-0.002,0.041-0.004,0.061-0.004c0.138,0,0.272,0.058,0.366,0.158c0.128,0.137,0.25,0.285,0.363,0.438
		c1.657,2.278,2.672,3.276,5.432,3.276h0.572c0.552,0,1-0.448,1-1c0-0.531-0.427-0.976-0.956-0.999
		c-0.014,0.001-0.029,0.002-0.044,0.002h-0.572c-2.057,0-2.546-0.682-3.519-2.042L14.76,9.723c-0.082-0.115-0.168-0.235-0.261-0.362
		c-0.6-0.824-1.394-1.508-2.298-1.978c-0.019-0.01-0.036-0.021-0.053-0.032l-0.015-0.011c-0.021-0.01-0.051-0.024-0.082-0.037
		c-0.934-0.455-1.918-0.683-2.934-0.683c-2.299,0-4.401,1.168-5.622,3.126l-0.218,0.349c-0.141,0.227-0.186,0.495-0.126,0.755
		c0.06,0.26,0.219,0.482,0.445,0.623c0.159,0.099,0.341,0.152,0.528,0.152c0.349,0,0.667-0.176,0.852-0.471l0.216-0.348
		c0.847-1.364,2.319-2.18,3.936-2.182c0.114,0,0.242,0,0.378,0.017c0.165,0.021,0.309,0.121,0.385,0.27
		c0.076,0.149,0.072,0.324-0.009,0.47l-2.9,5.216c-0.353,0.634-1.022,1.028-1.748,1.028H2c-0.551,0-1,0.448-1,1s0.449,1,1,1h3.234
		c1.244-0.001,2.395-0.564,3.158-1.545c0.084-0.109,0.212-0.178,0.349-0.191C8.749,15.888,8.779,15.887,8.787,15.887z"/>
</g>
</svg>
