<?xml version="1.0" encoding="utf-8"?>
<!-- Generator: Adobe Illustrator 22.1.0, SVG Export Plug-In . SVG Version: 6.00 Build 0)  -->
<svg version="1.1" id="Layer_1" xmlns="http://www.w3.org/2000/svg" xmlns:xlink="http://www.w3.org/1999/xlink" x="0px" y="0px"
	 viewBox="0 0 24 24" style="enable-background:new 0 0 24 24;" xml:space="preserve">
<g>
	<title>vintage-man-1</title>
	<path d="M12,12.86c-0.648,0-1.287-0.212-1.8-0.596c-0.107-0.08-0.176-0.197-0.195-0.329c-0.019-0.132,0.015-0.264,0.095-0.371
		c0.094-0.125,0.244-0.2,0.4-0.2c0.109,0,0.213,0.035,0.3,0.1c0.341,0.256,0.767,0.397,1.2,0.397c0.432,0,0.859-0.141,1.2-0.397
		c0.086-0.065,0.19-0.1,0.299-0.1c0.157,0,0.306,0.075,0.4,0.2c0.08,0.107,0.114,0.238,0.095,0.371
		c-0.019,0.132-0.088,0.249-0.195,0.329C13.287,12.648,12.648,12.86,12,12.86z"/>
	<path d="M23,23.864c-0.276,0-0.5-0.224-0.5-0.5v-2.106c0.003-0.461-0.212-0.903-0.575-1.183c-0.459-0.351-0.984-0.678-1.566-0.975
		l1.112,3.095c0.085,0.238-0.021,0.503-0.247,0.616l-2,1c-0.07,0.035-0.147,0.053-0.223,0.053c-0.19,0-0.362-0.106-0.447-0.276
		c-0.124-0.247-0.023-0.548,0.223-0.671l1.603-0.801l-1.285-3.578c-0.466-0.179-0.959-0.34-1.471-0.48l-1.134,5.409
		c-0.048,0.23-0.254,0.397-0.489,0.397c-0.035,0-0.069-0.004-0.103-0.011c-0.13-0.027-0.242-0.104-0.316-0.216
		c-0.073-0.112-0.098-0.245-0.071-0.376l1.141-5.44c-1.227-0.261-2.561-0.411-3.972-0.448l1.798,5.843
		c0.081,0.263-0.067,0.544-0.331,0.625C14.1,23.856,14.05,23.864,14,23.864c-0.221,0-0.413-0.142-0.478-0.353L12,18.564
		l-1.522,4.947c-0.065,0.211-0.257,0.353-0.479,0.353c-0.049,0-0.099-0.007-0.146-0.022c-0.264-0.082-0.412-0.362-0.331-0.625
		l1.798-5.843c-1.409,0.037-2.742,0.188-3.971,0.45l1.14,5.437c0.027,0.13,0.002,0.264-0.071,0.376
		c-0.073,0.112-0.185,0.189-0.316,0.216C8.069,23.86,8.035,23.864,8,23.864c-0.235,0-0.441-0.167-0.489-0.397l-1.133-5.405
		c-0.512,0.141-1.007,0.302-1.474,0.482l-1.283,3.572l1.603,0.801c0.247,0.123,0.347,0.424,0.224,0.671
		C5.362,23.758,5.191,23.864,5,23.864c-0.077,0-0.154-0.018-0.223-0.052l-2.001-1c-0.226-0.113-0.333-0.378-0.247-0.616l1.11-3.089
		c-0.581,0.296-1.106,0.622-1.567,0.972c-0.361,0.278-0.576,0.719-0.573,1.177v2.109c0,0.276-0.224,0.5-0.5,0.5s-0.5-0.224-0.5-0.5
		v-2.106c-0.005-0.767,0.355-1.505,0.965-1.975c0.549-0.417,1.486-1.029,2.838-1.576c0.738-0.298,1.513-0.544,2.322-0.741
		c0.013-0.004,0.026-0.008,0.038-0.01c0.004-0.001,0.008-0.001,0.012-0.002c1.626-0.391,3.418-0.59,5.325-0.59
		c5.851,0,9.111,1.828,10.534,2.918c0.61,0.47,0.971,1.21,0.966,1.979v2.103C23.5,23.639,23.276,23.864,23,23.864z"/>
	<circle cx="14" cy="9.364" r="0.75"/>
	<circle cx="10" cy="9.364" r="0.75"/>
	<path d="M12,15.864c-3.584,0-6.5-2.916-6.5-6.5V7.403c-1.056-0.151-2.099-0.336-3.104-0.55C2.265,6.825,2.153,6.748,2.081,6.636
		S1.983,6.39,2.011,6.26C2.06,6.03,2.266,5.864,2.5,5.864c0.035,0,0.07,0.004,0.105,0.011C3.57,6.08,4.574,6.259,5.593,6.405
		l1.178-5.107c0.09-0.39,0.326-0.722,0.666-0.935C7.676,0.214,7.95,0.135,8.23,0.135c0.113,0,0.227,0.013,0.338,0.038
		c0.03,0.007,0.059,0.015,0.089,0.023C9.746,0.547,10.869,0.77,12,0.862c1.131-0.092,2.252-0.315,3.332-0.662
		c0.148-0.043,0.293-0.065,0.438-0.065c0.248,0,0.495,0.063,0.715,0.183c0.352,0.192,0.608,0.509,0.721,0.893
		c0.009,0.03,0.017,0.059,0.023,0.089l1.178,5.105c1.02-0.147,2.024-0.325,2.989-0.531c0.033-0.007,0.069-0.011,0.104-0.011
		c0.234,0,0.439,0.167,0.489,0.396c0.057,0.27-0.115,0.536-0.385,0.594c-1.005,0.214-2.048,0.399-3.104,0.55v1.961
		C18.5,12.948,15.584,15.864,12,15.864z M6.5,9.364c0,3.033,2.467,5.5,5.5,5.5s5.5-2.467,5.5-5.5V7.535
		C15.665,7.757,13.816,7.87,12,7.87c-1.816,0-3.665-0.113-5.5-0.335V9.364z M6.588,6.539C8.383,6.757,10.202,6.868,12,6.868
		s3.617-0.111,5.412-0.329l-1.165-5.047c-0.037-0.126-0.123-0.232-0.24-0.295c-0.075-0.041-0.155-0.062-0.238-0.062
		c-0.048,0-0.095,0.007-0.142,0.021c-1.156,0.372-2.365,0.61-3.587,0.707c-0.006,0-0.033,0.001-0.039,0.001
		c-0.013,0-0.026,0-0.038-0.001c-1.223-0.097-2.433-0.336-3.6-0.71L8.343,1.147C8.307,1.139,8.269,1.135,8.231,1.135
		c-0.093,0-0.184,0.026-0.264,0.077C7.854,1.282,7.775,1.393,7.745,1.523L6.588,6.539z"/>
</g>
</svg>
