<?xml version="1.0" encoding="utf-8"?>
<!-- Generator: Adobe Illustrator 22.1.0, SVG Export Plug-In . SVG Version: 6.00 Build 0)  -->
<svg version="1.1" id="Layer_1" xmlns="http://www.w3.org/2000/svg" xmlns:xlink="http://www.w3.org/1999/xlink" x="0px" y="0px"
	 viewBox="0 0 24 24" style="enable-background:new 0 0 24 24;" xml:space="preserve">
<g>
	<title>vintage-man-2</title>
	<path d="M12,12.996c-0.648,0-1.287-0.212-1.8-0.596c-0.107-0.08-0.176-0.197-0.195-0.329c-0.019-0.132,0.015-0.264,0.095-0.371
		c0.094-0.125,0.244-0.2,0.4-0.2c0.109,0,0.213,0.035,0.3,0.1c0.341,0.256,0.768,0.397,1.2,0.397c0.432,0,0.859-0.141,1.2-0.397
		c0.086-0.065,0.19-0.1,0.3-0.1c0.157,0,0.306,0.075,0.4,0.2c0.08,0.107,0.114,0.238,0.095,0.371
		c-0.019,0.132-0.088,0.249-0.195,0.329C13.287,12.784,12.648,12.996,12,12.996z"/>
	<circle cx="14" cy="9.499" r="0.75"/>
	<circle cx="10" cy="9.499" r="0.75"/>
	<path d="M12,15.999c-3.584,0-6.5-2.916-6.5-6.5V7.157C5.437,7.138,5.374,7.119,5.313,7.1C2.575,6.203,2,4.919,2,3.999
		c0-0.276,0.224-0.5,0.5-0.5S3,3.724,3,3.999c0,0.814,1.003,1.62,2.698,2.18l1.244-4.747C6.999,1.248,7.07,1.09,7.164,0.94
		C7.447,0.487,7.89,0.171,8.41,0.051c0.149-0.034,0.302-0.052,0.453-0.052c0.373,0,0.738,0.105,1.057,0.305l1.284,0.799
		C11.442,1.252,11.717,1.331,12,1.331s0.558-0.078,0.795-0.226l1.286-0.801c0.146-0.092,0.305-0.164,0.472-0.215
		c0.192-0.059,0.391-0.089,0.59-0.089c0.323,0,0.646,0.081,0.934,0.233c0.472,0.25,0.818,0.669,0.976,1.18l1.25,4.767
		C19.997,5.62,21,4.814,21,3.999c0-0.276,0.224-0.5,0.5-0.5s0.5,0.224,0.5,0.5c0,0.919-0.575,2.203-3.313,3.1
		c-0.061,0.02-0.124,0.039-0.187,0.057v2.343C18.5,13.083,15.584,15.999,12,15.999z M6.5,9.499c0,3.033,2.467,5.5,5.5,5.5
		s5.5-2.467,5.5-5.5V7.426C15.898,7.802,14.005,8,12,8C9.995,8,8.101,7.802,6.5,7.426V9.499z M6.66,6.453C8.156,6.816,9.951,7,12,7
		c2.049,0,3.844-0.184,5.34-0.547l-1.25-4.767c-0.074-0.239-0.246-0.445-0.482-0.57c-0.146-0.078-0.303-0.117-0.467-0.117
		c-0.099,0-0.199,0.015-0.295,0.045c-0.083,0.026-0.163,0.062-0.236,0.108l-1.286,0.801C12.93,2.2,12.472,2.33,12,2.33
		s-0.93-0.131-1.325-0.378L9.391,1.153C9.23,1.053,9.048,1,8.862,1C8.786,1,8.71,1.008,8.635,1.026
		c-0.26,0.06-0.482,0.218-0.623,0.444C7.966,1.544,7.929,1.623,7.904,1.706L6.66,6.453z"/>
	<circle cx="12" cy="4.999" r="0.75"/>
	<path d="M23,23.999c-0.276,0-0.5-0.224-0.5-0.5v-2.106c0.003-0.461-0.212-0.903-0.575-1.183c-0.419-0.32-1.091-0.766-2.035-1.2
		l0.896,1.923c0.194,0.419,0.079,0.913-0.28,1.201l-2.194,1.755c-0.088,0.071-0.199,0.109-0.312,0.109
		c-0.152,0-0.295-0.068-0.39-0.187c-0.173-0.216-0.137-0.531,0.077-0.703l2.193-1.754l-1.344-2.881
		c-0.318-0.108-0.648-0.208-0.986-0.299l-2.083,5.501c-0.073,0.193-0.261,0.323-0.468,0.323c-0.06,0-0.12-0.011-0.177-0.032
		c-0.258-0.098-0.389-0.387-0.291-0.645l2.038-5.381c-1.406-0.293-2.942-0.442-4.57-0.442c-1.627,0-3.163,0.149-4.57,0.443
		l2.037,5.38c0.098,0.258-0.033,0.547-0.29,0.645C9.12,23.988,9.061,23.999,9,23.999c-0.207,0-0.394-0.13-0.468-0.323l-2.083-5.5
		c-0.336,0.091-0.665,0.19-0.981,0.297L4.12,21.357l2.192,1.751c0.215,0.173,0.25,0.488,0.078,0.703
		C6.295,23.931,6.152,23.999,6,23.999c-0.113,0-0.224-0.039-0.312-0.11l-2.193-1.754c-0.36-0.29-0.475-0.783-0.281-1.201l0.9-1.923
		c-0.946,0.434-1.619,0.88-2.041,1.201C1.711,20.491,1.497,20.931,1.5,21.39v2.109c0,0.276-0.224,0.5-0.5,0.5s-0.5-0.224-0.5-0.5
		v-2.106c-0.005-0.767,0.355-1.505,0.965-1.975C2.899,18.328,6.173,16.499,12,16.499c2.625,0,5,0.37,7.059,1.099
		c0.003,0.001,0.024,0.009,0.027,0.01c1.664,0.591,2.793,1.31,3.447,1.809c0.611,0.471,0.972,1.21,0.967,1.98v2.103
		C23.5,23.775,23.276,23.999,23,23.999z"/>
	<path d="M10.5,23.999c-0.045,0-0.09-0.006-0.133-0.018c-0.265-0.073-0.422-0.348-0.35-0.614l1.018-3.731
		c0.094-0.339,0.361-0.606,0.698-0.699c0.087-0.024,0.176-0.036,0.265-0.036c0.449,0,0.846,0.302,0.964,0.734l1.019,3.732
		c0.073,0.266-0.085,0.542-0.351,0.614c-0.044,0.012-0.087,0.017-0.131,0.017c-0.225,0-0.424-0.151-0.483-0.368L12,19.9
		l-1.017,3.731C10.923,23.848,10.725,23.999,10.5,23.999z"/>
</g>
</svg>
