<?xml version="1.0" encoding="utf-8"?>
<!-- Generator: Adobe Illustrator 22.1.0, SVG Export Plug-In . SVG Version: 6.00 Build 0)  -->
<svg version="1.1" id="Light" xmlns="http://www.w3.org/2000/svg" xmlns:xlink="http://www.w3.org/1999/xlink" x="0px" y="0px"
	 viewBox="0 0 24 24" style="enable-background:new 0 0 24 24;" xml:space="preserve">
<g>
	<title>cocktail-cherry</title>
	<path d="M14.528,13.054c-0.074,0-0.146-0.016-0.214-0.048c-0.121-0.057-0.212-0.158-0.257-0.284s-0.038-0.261,0.019-0.382
		c0.345-0.727,0.931-1.326,1.65-1.686c0.069-0.035,0.146-0.053,0.223-0.053c0.19,0,0.362,0.106,0.447,0.276
		c0.124,0.247,0.023,0.548-0.223,0.671c-0.521,0.261-0.945,0.694-1.194,1.22C14.898,12.942,14.721,13.054,14.528,13.054z"/>
	<path d="M8.164,19.417c-0.074,0-0.146-0.016-0.214-0.048c-0.25-0.119-0.356-0.417-0.238-0.666c0.345-0.726,0.931-1.323,1.651-1.68
		c0.069-0.034,0.146-0.052,0.222-0.052c0.191,0,0.362,0.106,0.448,0.278c0.06,0.12,0.069,0.255,0.026,0.382
		s-0.132,0.229-0.252,0.289c-0.52,0.258-0.943,0.689-1.193,1.213C8.534,19.305,8.356,19.417,8.164,19.417z"/>
	<path d="M0.499,24.001c-0.134,0-0.259-0.052-0.354-0.146c-0.094-0.094-0.146-0.22-0.146-0.353s0.052-0.259,0.146-0.354l3.348-3.351
		c-1.809-1.974-1.856-5.021-0.069-7.046c0.015-0.017,0.03-0.032,0.047-0.046c0.956-0.843,2.191-1.308,3.475-1.308
		c0.639,0,1.275,0.116,1.87,0.339C8.139,9.927,8.497,7.85,9.785,6.388C9.8,6.372,9.814,6.357,9.829,6.344
		c0.96-0.846,2.196-1.311,3.48-1.311c1.339,0,2.597,0.489,3.57,1.381l3.397-3.397c-0.183-0.307-0.278-0.654-0.278-1.015
		c0-0.534,0.208-1.037,0.586-1.414c0.377-0.377,0.879-0.585,1.414-0.585c0.535,0,1.037,0.208,1.414,0.585
		c0.78,0.78,0.78,2.049,0,2.828c-0.377,0.377-0.879,0.585-1.414,0.585c-0.361,0-0.707-0.095-1.014-0.277l-3.397,3.397
		c1.81,1.975,1.857,5.023,0.071,7.049c-0.013,0.015-0.029,0.031-0.045,0.045c-0.96,0.846-2.198,1.312-3.484,1.312
		c-0.633,0-1.266-0.117-1.862-0.341c0.676,1.808,0.317,3.885-0.972,5.347c-0.015,0.017-0.03,0.032-0.047,0.046
		c-0.958,0.844-2.196,1.311-3.483,1.311c-1.333,0-2.589-0.49-3.564-1.386l-3.348,3.351C0.758,23.949,0.632,24.001,0.499,24.001z
		 M4.153,13.436c-1.526,1.756-1.358,4.441,0.379,5.992c0.015,0.013,0.028,0.027,0.041,0.042c0.806,0.902,1.97,1.421,3.191,1.421
		c1.032,0,2.026-0.37,2.8-1.042c1.525-1.756,1.357-4.442-0.379-5.994c-0.013-0.011-0.027-0.026-0.041-0.041
		c-0.806-0.902-1.97-1.421-3.191-1.421C5.922,12.392,4.928,12.763,4.153,13.436z M10.515,7.072
		c-1.525,1.757-1.356,4.442,0.379,5.994c0.013,0.011,0.027,0.025,0.04,0.039c0.808,0.903,1.972,1.421,3.193,1.421
		c1.032,0,2.026-0.37,2.801-1.042c1.526-1.757,1.358-4.442-0.379-5.994c-0.014-0.012-0.028-0.026-0.041-0.041
		c-0.806-0.902-1.97-1.42-3.191-1.42C12.284,6.029,11.29,6.4,10.515,7.072z M21.299,2.716c0.188,0.184,0.436,0.285,0.699,0.285
		c0.267,0,0.518-0.104,0.707-0.293c0.188-0.188,0.292-0.44,0.292-0.707c0-0.267-0.104-0.518-0.292-0.707
		c-0.189-0.189-0.44-0.293-0.708-0.293s-0.518,0.104-0.707,0.293c-0.189,0.189-0.293,0.44-0.293,0.707
		c0,0.263,0.101,0.511,0.285,0.699C21.289,2.706,21.294,2.711,21.299,2.716z"/>
</g>
</svg>
