<?xml version="1.0" encoding="utf-8"?>
<!-- Generator: Adobe Illustrator 22.1.0, SVG Export Plug-In . SVG Version: 6.00 Build 0)  -->
<svg version="1.1" id="Light" xmlns="http://www.w3.org/2000/svg" xmlns:xlink="http://www.w3.org/1999/xlink" x="0px" y="0px"
	 viewBox="0 0 24 24" style="enable-background:new 0 0 24 24;" xml:space="preserve">
<g>
	<title>cocktail-coconut</title>
	<path d="M10.089,24c-0.045,0-0.089-0.006-0.132-0.018c-3.32-0.902-6.868-3.604-6.868-8.482c0-2.055,0.569-4.067,1.645-5.818
		l1.824-2.967C6.828,6.274,7.318,6,7.835,6h1.383L7.227,2.587C6.959,2.128,6.461,1.843,5.928,1.843c-0.264,0-0.524,0.07-0.753,0.204
		C5.151,2.061,5.125,2.077,5.099,2.094L2.366,3.916C2.283,3.971,2.188,4,2.089,4C1.921,4,1.766,3.917,1.673,3.777
		c-0.074-0.111-0.1-0.244-0.074-0.375C1.625,3.271,1.7,3.158,1.811,3.084l2.733-1.822c0.041-0.028,0.083-0.054,0.126-0.079
		c0.384-0.224,0.818-0.342,1.257-0.342c0.215,0,0.43,0.028,0.64,0.083c0.646,0.17,1.187,0.582,1.523,1.159L10.376,6h3.886
		c-0.403-0.158-0.763-0.418-1.044-0.761c-0.395-0.485-0.544-1.137-0.4-1.745c0.007-0.028,0.015-0.054,0.026-0.08
		c0.24-0.574,0.746-1.013,1.351-1.17c0.214-0.056,0.433-0.085,0.653-0.085c0.258,0,0.515,0.04,0.76,0.117
		c0.006-0.473,0.145-0.94,0.406-1.346c0.335-0.527,0.908-0.874,1.531-0.928C17.552,0.001,17.581,0,17.589,0
		c0.014,0,0.028,0.001,0.042,0.002c0.624,0.054,1.197,0.402,1.532,0.93c0.258,0.406,0.396,0.871,0.401,1.343
		c0.244-0.076,0.501-0.116,0.757-0.116c0.218,0,0.437,0.028,0.65,0.084c0.605,0.159,1.111,0.597,1.353,1.173
		c0.01,0.025,0.019,0.051,0.025,0.078c0.145,0.607-0.004,1.258-0.399,1.743c-0.308,0.376-0.71,0.653-1.159,0.804
		c0.275,0.387,0.437,0.847,0.466,1.33c0.034,0.626-0.228,1.242-0.702,1.649c-0.02,0.017-0.043,0.034-0.067,0.048
		c-0.314,0.191-0.677,0.292-1.049,0.292c-0.253,0-0.5-0.046-0.733-0.138c-0.45-0.177-0.837-0.474-1.119-0.854
		c-0.282,0.38-0.668,0.677-1.119,0.854c-0.234,0.091-0.481,0.138-0.735,0.138c-0.372,0-0.735-0.101-1.049-0.291
		c-0.024-0.014-0.046-0.031-0.067-0.049c-0.474-0.408-0.735-1.024-0.698-1.648C13.927,7.246,13.943,7.122,13.969,7H7.836
		C7.663,7,7.5,7.091,7.41,7.239L5.804,9.851c0.863,0.737,1.958,1.14,3.106,1.14c0,0,0,0,0,0c1.255,0,2.438-0.479,3.329-1.349
		C12.333,9.55,12.458,9.5,12.589,9.5c0.132,0,0.256,0.051,0.35,0.143C13.835,10.518,15.018,11,16.271,11l0.04,0
		c0.688,0,1.378-0.156,1.997-0.451c0.067-0.032,0.14-0.049,0.215-0.049c0.192,0,0.369,0.112,0.452,0.285
		c0.057,0.12,0.064,0.256,0.02,0.382c-0.044,0.126-0.135,0.227-0.256,0.284C17.986,11.81,17.147,12,16.312,12l-0.044-0.25V12
		c-1.35,0-2.648-0.47-3.68-1.328c-1.029,0.852-2.326,1.318-3.677,1.318c-1.324,0-2.596-0.447-3.617-1.264
		c-0.789,1.471-1.205,3.115-1.205,4.774c0,4.283,3.128,6.68,6.068,7.5h4.865c2.939-0.82,6.067-3.217,6.067-7.5
		c0.001-1.472-0.329-2.955-0.953-4.288c-0.117-0.249-0.009-0.548,0.24-0.665c0.067-0.031,0.138-0.047,0.212-0.047
		c0.193,0,0.371,0.113,0.453,0.288c0.686,1.465,1.048,3.095,1.047,4.713c0,4.878-3.548,7.58-6.869,8.482
		C15.178,23.994,15.133,24,15.089,24H10.089z M18.091,6.934c0.033,0.606,0.41,1.132,0.981,1.357
		c0.116,0.046,0.241,0.069,0.368,0.069c0.174,0,0.344-0.044,0.494-0.126c0.22-0.205,0.342-0.505,0.325-0.806
		c-0.036-0.609-0.421-1.134-0.987-1.353C19.001,6.5,18.578,6.807,18.091,6.934z M15.239,8.233c0.15,0.083,0.321,0.126,0.495,0.126
		c0.128,0,0.252-0.023,0.37-0.069c0.57-0.224,0.947-0.751,0.98-1.357c-0.487-0.127-0.908-0.434-1.18-0.86
		c-0.566,0.219-0.95,0.743-0.986,1.356C14.9,7.729,15.02,8.028,15.239,8.233z M17.589,4c-0.552,0-1,0.449-1,1s0.448,1,1,1
		s1-0.449,1-1S18.14,4,17.589,4z M13.782,3.766c-0.057,0.295,0.02,0.607,0.21,0.84c0.295,0.36,0.729,0.567,1.191,0.567
		c0.138,0,0.275-0.018,0.409-0.055C15.59,5.078,15.589,5.039,15.589,5c0-0.468,0.16-0.91,0.455-1.267
		C15.75,3.368,15.318,3.16,14.847,3.16c-0.134,0-0.268,0.017-0.399,0.052C14.157,3.288,13.91,3.494,13.782,3.766z M19.584,5.12
		c0.128,0.034,0.264,0.052,0.399,0.052c0.462,0,0.897-0.207,1.193-0.568c0.189-0.232,0.266-0.544,0.209-0.838
		c-0.128-0.272-0.376-0.479-0.667-0.556c-0.13-0.034-0.263-0.051-0.396-0.051c-0.468,0-0.898,0.206-1.194,0.569
		C19.427,4.085,19.589,4.53,19.589,5C19.589,5.039,19.587,5.079,19.584,5.12z M17.589,1.003c-0.298,0.039-0.571,0.212-0.732,0.466
		c-0.33,0.516-0.328,1.162-0.002,1.672C17.088,3.048,17.338,3,17.589,3c0.248,0,0.495,0.047,0.727,0.138
		c0.328-0.51,0.332-1.155,0.005-1.669C18.158,1.214,17.887,1.042,17.589,1.003z"/>
</g>
</svg>
