<?xml version="1.0" encoding="utf-8"?>
<!-- Generator: Adobe Illustrator 22.1.0, SVG Export Plug-In . SVG Version: 6.00 Build 0)  -->
<svg version="1.1" id="Light" xmlns="http://www.w3.org/2000/svg" xmlns:xlink="http://www.w3.org/1999/xlink" x="0px" y="0px"
	 viewBox="0 0 24 24" style="enable-background:new 0 0 24 24;" xml:space="preserve">
<g>
	<title>cocktail-martini</title>
	<path d="M7.499,23.999c-0.276,0-0.5-0.224-0.5-0.5s0.224-0.5,0.5-0.5h4v-9.343c-0.076-0.043-0.145-0.095-0.206-0.156
		c-0.006-0.006-0.011-0.012-0.017-0.019L3.5,5.707C3.11,5.317,3.109,4.683,3.498,4.293c0.189-0.189,0.44-0.294,0.708-0.294h2.191
		l-2.625-3l-3.273,0c-0.276,0-0.5-0.224-0.5-0.5s0.224-0.5,0.5-0.5h3.273c0.288,0,0.563,0.125,0.752,0.342l3.201,3.658h12.066
		c0.267,0,0.519,0.104,0.707,0.293c0.189,0.189,0.293,0.44,0.292,0.708c0,0.267-0.104,0.519-0.294,0.707l-7.792,7.791
		c-0.061,0.062-0.131,0.115-0.208,0.158v9.343h4c0.276,0,0.5,0.224,0.5,0.5s-0.224,0.5-0.5,0.5H7.499z M11.999,12.792L19.792,5
		l-15.586,0l7.789,7.789C11.996,12.789,11.998,12.791,11.999,12.792z"/>
	<path d="M20.999,7.854c-0.219,0-0.417-0.147-0.479-0.357c-0.038-0.128-0.024-0.263,0.039-0.38c0.063-0.118,0.169-0.203,0.297-0.242
		c1.585-0.473,2.489-2.148,2.016-3.733c-0.229-0.768-0.744-1.4-1.449-1.781c-0.438-0.237-0.93-0.362-1.421-0.362
		c-0.29,0-0.581,0.043-0.863,0.127c-0.813,0.243-1.488,0.822-1.852,1.588c-0.082,0.173-0.26,0.286-0.451,0.286
		c-0.075,0-0.147-0.016-0.215-0.049c-0.12-0.057-0.212-0.158-0.256-0.284c-0.045-0.126-0.038-0.262,0.019-0.382
		c0.485-1.022,1.385-1.793,2.469-2.117c0.375-0.112,0.762-0.169,1.149-0.169c0.656,0,1.312,0.167,1.896,0.483
		c0.94,0.508,1.626,1.351,1.932,2.375c0.631,2.113-0.575,4.346-2.688,4.977C21.096,7.847,21.048,7.854,20.999,7.854z"/>
</g>
</svg>
