<?xml version="1.0" encoding="utf-8"?>
<!-- Generator: Adobe Illustrator 22.1.0, SVG Export Plug-In . SVG Version: 6.00 Build 0)  -->
<svg version="1.1" id="Light" xmlns="http://www.w3.org/2000/svg" xmlns:xlink="http://www.w3.org/1999/xlink" x="0px" y="0px"
	 viewBox="0 0 24 24" style="enable-background:new 0 0 24 24;" xml:space="preserve">
<g>
	<title>vegetables-bean-soup</title>
	<path d="M11.995,19.892C4.934,19.892,0,16.155,0,10.805v-0.352C0,8.622,2.31,7.13,5.149,7.128C5.394,7.138,5.627,7.144,5.86,7.144
		c1.213,0,2.429-0.143,3.616-0.425c0.105-0.161,0.226-0.306,0.358-0.43c0.61-0.576,1.532-0.856,2.816-0.856
		c0.125,0,0.255,0.003,0.387,0.008c0.835-0.855,1.985-1.343,3.175-1.343c0.095,0,0.192,0.003,0.288,0.009
		c0.095-0.006,0.19-0.009,0.285-0.009c1.746,0,3.357,1.059,4.059,2.651C22.626,6.923,24,8.422,24,10.228v5.664
		c0,1.378-1.122,2.5-2.5,2.5s-2.5-1.122-2.5-2.5v-2.607c-0.829-0.062-1.591-0.432-2.139-1.04c-0.413,0.03-0.831,0.045-1.245,0.045
		c-1.478,0-4.175-0.2-5.637-1.538C9.329,10.158,9,9.418,9,8.555c0-0.254,0.019-0.496,0.058-0.723
		C8.003,8.039,6.929,8.144,5.861,8.144c-0.245,0-0.49-0.005-0.734-0.016C2.895,8.13,1,9.194,1,10.453c0,1.257,1.9,2.32,4.149,2.32
		c0.275-0.021,0.575-0.031,0.872-0.031c1.52,0,3.072,0.283,4.487,0.818c1.478,0.497,3.036,0.75,4.623,0.75
		c0.683,0,1.368-0.048,2.038-0.144c0.023-0.003,0.048-0.005,0.072-0.005c0.246,0,0.458,0.185,0.493,0.43
		c0.019,0.132-0.015,0.264-0.095,0.371c-0.08,0.107-0.197,0.176-0.329,0.195c-0.717,0.102-1.449,0.154-2.177,0.154
		c-1.697,0-3.366-0.272-4.961-0.809c-1.318-0.498-2.753-0.759-4.159-0.759c-0.276,0-0.554,0.01-0.828,0.03c-0.001,0-0.002,0-0.003,0
		c-1.547,0-2.98-0.432-3.948-1.158C2.239,16.399,6.449,18.892,12,18.892l0.182,0.001c2.031,0,4.029-0.393,5.938-1.169
		c0.061-0.024,0.124-0.037,0.188-0.037c0.204,0,0.386,0.122,0.464,0.311c0.104,0.256-0.019,0.548-0.275,0.652
		c-2.028,0.824-4.166,1.242-6.355,1.242L11.995,19.892z M19.501,12.28c0.123,0,0.241,0.045,0.333,0.128
		C19.94,12.503,20,12.638,20,12.78v3.112c0,0.827,0.673,1.5,1.5,1.5s1.5-0.673,1.5-1.5v-5.664c0-1.255-0.938-2.309-2.165-2.474
		c-0.613,1.331-2.359,2.245-4.335,2.245c-2.176,0-4.061-1.109-4.482-2.638c-0.027-0.099-0.024-0.202,0.01-0.299
		c0.075-0.214,0.167-0.422,0.276-0.623c-0.831,0.039-1.416,0.229-1.785,0.576C10.17,7.345,10,7.849,10,8.555
		c0,0.572,0.22,1.063,0.654,1.46c0.886,0.812,2.685,1.277,4.936,1.277c0.481,0,0.968-0.021,1.446-0.064
		c0.007-0.001,0.035-0.002,0.043-0.002c0.157,0,0.307,0.075,0.401,0.199c0.409,0.544,1.061,0.869,1.744,0.869
		c0.074,0,0.149-0.004,0.224-0.012C19.464,12.281,19.483,12.28,19.501,12.28z M13.03,7.24c0.389,1.024,1.829,1.758,3.47,1.758
		s3.081-0.735,3.47-1.758c-0.523-1.286-1.791-2.143-3.184-2.143c-0.083,0-0.166,0.003-0.25,0.009c-0.006,0-0.031,0.001-0.037,0.001
		l-0.033-0.001C16.38,5.1,16.296,5.097,16.213,5.097C14.82,5.097,13.552,5.955,13.03,7.24z"/>
</g>
</svg>
