<?xml version="1.0" encoding="utf-8"?>
<!-- Generator: Adobe Illustrator 22.1.0, SVG Export Plug-In . SVG Version: 6.00 Build 0)  -->
<svg version="1.1" id="Light" xmlns="http://www.w3.org/2000/svg" xmlns:xlink="http://www.w3.org/1999/xlink" x="0px" y="0px"
	 viewBox="0 0 24 24" style="enable-background:new 0 0 24 24;" xml:space="preserve">
<g>
	<title>vegetables-broccoli-1</title>
	<path d="M11.766,15.011c-0.203,0-0.384-0.121-0.462-0.309c-0.078-0.188-0.035-0.401,0.108-0.545l2.264-2.263
		c0.094-0.094,0.22-0.146,0.354-0.146s0.259,0.052,0.354,0.146s0.146,0.22,0.146,0.354c0,0.134-0.052,0.259-0.146,0.354l-1.41,1.409
		h2.862c0.276,0,0.5,0.224,0.5,0.5s-0.224,0.5-0.5,0.5H11.766z"/>
	<path d="M9.503,12.748c-0.065,0-0.129-0.013-0.19-0.038c-0.189-0.078-0.31-0.26-0.31-0.463V8.179c0-0.276,0.224-0.5,0.5-0.5
		s0.5,0.224,0.5,0.5v2.862l1.409-1.41c0.094-0.094,0.22-0.146,0.354-0.146c0.133,0,0.259,0.052,0.353,0.146
		c0.195,0.195,0.195,0.512,0,0.707l-2.263,2.264C9.762,12.696,9.637,12.748,9.503,12.748z"/>
	<path d="M4.597,24c-0.418,0-0.812-0.164-1.107-0.46l-3.021-3.012c-0.611-0.613-0.611-1.607,0-2.217l4.1-4.099
		c0.914-0.914,1.417-2.128,1.417-3.42V7.721c0-0.276,0.224-0.5,0.5-0.5s0.5,0.224,0.5,0.5v3.071c0,1.559-0.607,3.024-1.709,4.127
		l-4.1,4.1c-0.221,0.221-0.221,0.58-0.001,0.801l3.022,3.013C4.305,22.94,4.447,23,4.598,23c0.152,0,0.294-0.059,0.4-0.166
		L9.1,18.733c1.102-1.102,2.568-1.709,4.126-1.709h3.071c0.276,0,0.5,0.224,0.5,0.5s-0.224,0.5-0.5,0.5h-3.071
		c-1.292,0-2.506,0.503-3.419,1.417l-4.1,4.1C5.41,23.837,5.017,24,4.599,24H4.597z"/>
	<path d="M18.16,21.472c-1.33,0-2.586-0.442-3.631-1.277c-0.167-0.133-0.328-0.277-0.481-0.429
		c-0.195-0.195-0.196-0.512-0.001-0.707c0.094-0.095,0.22-0.147,0.354-0.147c0.134,0,0.259,0.052,0.353,0.146
		c0.126,0.126,0.26,0.246,0.398,0.355c0.867,0.693,1.907,1.059,3.009,1.059c0.181,0,0.365-0.01,0.546-0.031
		c1.283-0.143,2.434-0.778,3.24-1.787c1.495-1.87,1.372-4.566-0.232-6.298c-0.123,0.301-0.263,0.588-0.416,0.858
		c-0.089,0.156-0.255,0.253-0.435,0.253c-0.086,0-0.172-0.023-0.247-0.065c-0.116-0.066-0.2-0.173-0.235-0.302
		c-0.035-0.129-0.019-0.264,0.048-0.38c1.176-2.067,1.163-4.628-0.034-6.683c-0.9-1.547-2.349-2.65-4.079-3.107
		c-0.565-0.149-1.144-0.225-1.72-0.225c-0.633,0-1.261,0.091-1.869,0.269c-0.026,0.011-0.052,0.019-0.078,0.024
		c-0.494,0.152-0.97,0.36-1.415,0.619c-0.076,0.044-0.163,0.068-0.251,0.068c-0.178,0-0.343-0.095-0.432-0.249
		c-0.067-0.115-0.085-0.25-0.051-0.379c0.034-0.129,0.116-0.237,0.232-0.304c0.296-0.172,0.607-0.326,0.929-0.46
		c-0.895-0.831-2.054-1.287-3.287-1.287c-1.284,0-2.492,0.496-3.402,1.397C4.055,3.312,3.546,4.524,3.54,5.815
		c-0.006,1.291,0.491,2.508,1.4,3.426c0.094,0.095,0.145,0.221,0.145,0.354C5.084,9.729,5.031,9.854,4.936,9.948
		c-0.094,0.093-0.219,0.145-0.352,0.145c-0.135,0-0.261-0.053-0.355-0.148C3.132,8.838,2.532,7.369,2.54,5.811
		C2.547,4.252,3.161,2.79,4.268,1.693c1.1-1.089,2.558-1.689,4.105-1.689h0.028c1.56,0.008,3.022,0.621,4.119,1.729
		c0.062,0.063,0.126,0.131,0.195,0.209c0.616-0.157,1.249-0.237,1.884-0.237c0.662,0,1.326,0.087,1.974,0.258
		c1.988,0.525,3.653,1.793,4.688,3.571c1.005,1.726,1.295,3.819,0.805,5.766c2.31,2.07,2.61,5.543,0.664,7.979
		c-0.973,1.218-2.362,1.984-3.911,2.157C18.6,21.459,18.379,21.472,18.16,21.472z"/>
</g>
</svg>
