<?xml version="1.0" encoding="utf-8"?>
<!-- Generator: Adobe Illustrator 22.1.0, SVG Export Plug-In . SVG Version: 6.00 Build 0)  -->
<svg version="1.1" id="Light" xmlns="http://www.w3.org/2000/svg" xmlns:xlink="http://www.w3.org/1999/xlink" x="0px" y="0px"
	 viewBox="0 0 24 24" style="enable-background:new 0 0 24 24;" xml:space="preserve">
<g>
	<title>vegetables-beet</title>
	<path d="M12,24c-0.276,0-0.5-0.224-0.5-0.5v-3.786c-0.204,0.289-0.481,0.507-0.704,0.681c-0.575,0.452-0.79,0.621-0.406,1.282
		c0.139,0.239,0.057,0.545-0.181,0.684c-0.076,0.044-0.163,0.068-0.251,0.068c-0.177,0-0.343-0.095-0.432-0.249
		c-0.822-1.414,0.101-2.139,0.652-2.572c0.532-0.417,0.784-0.615,0.455-1.238c-0.876-0.479-1.694-1.006-2.435-1.565
		C5.779,14.977,4.5,12.969,4.5,11c0-1.218,0.383-2.211,1.138-2.954c0.68-0.669,1.664-1.125,2.933-1.361
		C6.654,5.616,5.367,3.634,5.218,1.434C5.202,1.166,5.29,0.908,5.467,0.708c0.177-0.2,0.421-0.32,0.688-0.337
		C6.178,0.37,6.198,0.369,6.218,0.369c0.018,0,0.035,0,0.053,0.001c2.136,0.08,4.096,1.241,5.229,3.033V0.5
		C11.5,0.224,11.724,0,12,0c0.276,0,0.5,0.224,0.5,0.5v2.904c1.134-1.792,3.096-2.953,5.237-3.034l0.047-0.001
		c0.019,0,0.039,0,0.059,0.002c0.553,0.034,0.974,0.51,0.94,1.06c-0.149,2.202-1.436,4.184-3.352,5.254
		c1.268,0.236,2.252,0.692,2.933,1.361C19.117,8.789,19.5,9.783,19.5,11c0,1.969-1.279,3.977-3.699,5.806
		c-0.74,0.56-1.559,1.086-2.434,1.565c-0.329,0.623-0.077,0.821,0.455,1.238c0.552,0.433,1.475,1.158,0.653,2.572
		c-0.089,0.153-0.255,0.249-0.432,0.249c-0.088,0-0.175-0.023-0.251-0.068c-0.116-0.067-0.198-0.175-0.232-0.304
		c-0.034-0.129-0.016-0.264,0.051-0.38c0.385-0.661,0.169-0.83-0.406-1.282c-0.223-0.175-0.5-0.393-0.704-0.682V23.5
		C12.5,23.776,12.276,24,12,24z M11.016,7.489c-0.838,0-3.387,0-4.677,1.269C5.782,9.307,5.5,10.061,5.5,11
		c0,3.644,5.464,6.449,6.5,6.948c1.036-0.499,6.5-3.304,6.5-6.948c0-0.939-0.282-1.693-0.839-2.241
		c-1.29-1.269-3.838-1.269-4.675-1.269c-0.1,0-0.197,0.001-0.289,0.002c-0.128,0.009-0.271,0.015-0.414,0.015
		c-0.098,0-0.196-0.003-0.294-0.007c-0.076,0.004-0.174,0.007-0.272,0.007c-0.144,0-0.287-0.007-0.43-0.016
		C11.21,7.49,11.116,7.489,11.016,7.489z M6.214,1.369c0.19,2.78,2.438,4.984,5.231,5.124l0.044,0
		C11.308,3.703,9.042,1.476,6.225,1.37l-0.01-0.25l0,0L6.214,1.369z M17.784,1.369c-2.826,0.108-5.094,2.336-5.273,5.124
		l0.055-0.001C15.348,6.352,17.594,4.149,17.784,1.369z"/>
</g>
</svg>
