<?xml version="1.0" encoding="utf-8"?>
<!-- Generator: Adobe Illustrator 22.1.0, SVG Export Plug-In . SVG Version: 6.00 Build 0)  -->
<svg version="1.1" id="Light" xmlns="http://www.w3.org/2000/svg" xmlns:xlink="http://www.w3.org/1999/xlink" x="0px" y="0px"
	 viewBox="0 0 24 24" style="enable-background:new 0 0 24 24;" xml:space="preserve">
<g>
	<title>vegetables-beet-1</title>
	<path d="M1.214,22.47c-0.338,0-0.657-0.08-0.95-0.237c-0.243-0.131-0.334-0.434-0.204-0.677c0.088-0.163,0.256-0.263,0.441-0.263
		c0.082,0,0.164,0.021,0.237,0.06c0.145,0.078,0.3,0.115,0.475,0.115c0.688,0,1.463-0.618,1.704-0.856l0.743-0.743
		c0.551-0.562,0.661-1.44,0.262-2.129C1.983,14.379,2.785,9.429,5.748,6.47c1.496-1.497,3.452-2.321,5.506-2.321
		c0.116,0,0.233,0.003,0.35,0.008c1.641,0.074,3.244,0.652,4.65,1.674c0.784-0.912,1.225-2.099,1.215-3.292
		c0.007-0.292,0.114-0.541,0.31-0.728c0.188-0.178,0.427-0.277,0.675-0.277l1.54,0.039c0.547,0.014,0.975,0.453,0.974,1
		c0.001,0.686-0.084,1.375-0.254,2.053c0.099-0.003,0.198-0.005,0.296-0.005c0.76,0,1.52,0.103,2.257,0.307
		c0.524,0.146,0.833,0.673,0.705,1.2l-0.362,1.459c-0.065,0.26-0.227,0.478-0.456,0.616c-0.156,0.093-0.333,0.143-0.513,0.143l0,0
		c-0.082,0-0.164-0.01-0.244-0.03l-0.037-0.01c-0.435-0.123-0.89-0.186-1.349-0.186c-0.756,0-1.504,0.172-2.181,0.501
		c0.757,1.246,1.189,2.629,1.251,4.014c0.098,2.186-0.724,4.266-2.315,5.857c-1.804,1.804-4.453,2.881-7.087,2.881
		c-1.536,0-2.982-0.366-4.182-1.059c-0.271-0.156-0.578-0.239-0.89-0.239c-0.468,0-0.911,0.18-1.245,0.507l-0.737,0.737
		C3.506,21.437,2.437,22.47,1.214,22.47z M5.606,19.075c0.487,0,0.967,0.129,1.39,0.373c1.026,0.592,2.287,0.905,3.647,0.905
		c2.409,0,4.808-0.96,6.416-2.569c1.39-1.39,2.108-3.203,2.023-5.105c-0.062-1.377-0.536-2.743-1.373-3.951
		c-0.006-0.008-0.011-0.015-0.016-0.023c-0.003-0.005-0.006-0.01-0.009-0.015c-0.28-0.4-0.612-0.797-0.977-1.161
		c-1.447-1.447-3.276-2.29-5.149-2.375c-0.102-0.005-0.204-0.007-0.305-0.007c-1.787,0-3.491,0.72-4.799,2.029
		c-2.614,2.611-3.361,7.125-1.666,10.062c0.331,0.573,0.445,1.238,0.331,1.878C5.279,19.089,5.442,19.075,5.606,19.075z
		 M17.035,6.464c0.134,0.12,0.259,0.238,0.38,0.359c0.232,0.232,0.454,0.477,0.661,0.73c1.208-1.363,1.895-3.162,1.892-4.98
		L18.47,2.534C18.479,3.956,17.96,5.376,17.035,6.464z M21.014,7.12c0.551,0,1.098,0.076,1.626,0.226L23,5.889
		c-0.647-0.176-1.316-0.267-1.986-0.267c-0.206,0-0.415,0.009-0.623,0.026c-0.227,0.584-0.516,1.139-0.864,1.658
		C20.011,7.182,20.509,7.12,21.014,7.12z"/>
</g>
</svg>
