<?xml version="1.0" encoding="utf-8"?>
<!-- Generator: Adobe Illustrator 22.1.0, SVG Export Plug-In . SVG Version: 6.00 Build 0)  -->
<svg version="1.1" id="Light" xmlns="http://www.w3.org/2000/svg" xmlns:xlink="http://www.w3.org/1999/xlink" x="0px" y="0px"
	 viewBox="0 0 24 24" style="enable-background:new 0 0 24 24;" xml:space="preserve">
<g>
	<title>vegetables-plate</title>
	<path d="M12,24C5.383,24,0,18.617,0,12C0,5.383,5.383,0,12,0c6.617,0,12,5.383,12,12C24,18.617,18.617,24,12,24z M12,1
		C5.935,1,1,5.935,1,12s4.935,11,11,11s11-4.935,11-11S18.065,1,12,1z"/>
	<path d="M14.161,21.552c-0.505,0-0.993-0.149-1.41-0.432l-7.236-4.9c-0.133-0.09-0.258-0.193-0.372-0.307
		c-0.475-0.476-0.736-1.109-0.735-1.781c0.001-0.652,0.248-1.267,0.697-1.736L2.484,12.77c-0.024,0.003-0.048,0.005-0.071,0.005
		c-0.247,0-0.46-0.185-0.495-0.429c-0.039-0.273,0.151-0.527,0.424-0.566l3.112-0.445L3.416,9.297
		c-0.094-0.094-0.146-0.22-0.146-0.354c0-0.134,0.052-0.259,0.147-0.354c0.094-0.094,0.22-0.146,0.353-0.146
		s0.259,0.052,0.354,0.146l2.038,2.039l0.445-3.112C6.64,7.272,6.852,7.087,7.1,7.087c0.023,0,0.047,0.002,0.07,0.005
		c0.273,0.039,0.464,0.293,0.425,0.566l-0.374,2.62l0.026-0.026c0.091-0.091,0.19-0.176,0.294-0.252
		c0.433-0.317,0.946-0.484,1.483-0.484c0.802,0,1.563,0.385,2.035,1.03l5.135,6.999c0.74,1.009,0.635,2.384-0.25,3.269
		C15.468,21.291,14.835,21.552,14.161,21.552z M13.311,20.292c0.251,0.17,0.545,0.26,0.85,0.26c0.407,0,0.788-0.158,1.075-0.444
		c0.533-0.533,0.596-1.362,0.15-1.97l-2.699-3.679l-1.359,1.358c-0.094,0.094-0.22,0.146-0.354,0.146
		c-0.134,0-0.259-0.052-0.354-0.146s-0.146-0.22-0.146-0.354s0.052-0.259,0.147-0.354l1.467-1.466l-1.838-2.505
		c-0.285-0.389-0.744-0.621-1.228-0.621c-0.323,0-0.632,0.101-0.893,0.292c-0.063,0.046-0.122,0.097-0.177,0.151l-2.1,2.1
		c-0.287,0.287-0.446,0.668-0.446,1.073c0,0.406,0.157,0.787,0.443,1.074c0.068,0.068,0.143,0.13,0.224,0.185l0.497,0.336
		l1.648-1.648c0.094-0.094,0.22-0.146,0.354-0.146s0.259,0.052,0.354,0.146c0.195,0.195,0.195,0.512,0,0.707l-1.511,1.511
		l4.067,2.754l1.198-1.198c0.094-0.094,0.22-0.146,0.354-0.146s0.259,0.052,0.354,0.146c0.195,0.195,0.195,0.512,0,0.707
		l-1.062,1.062L13.311,20.292z"/>
	<path d="M13.983,8.7c-0.045,0-0.09-0.006-0.134-0.018l-2.698-0.751c-0.227-0.063-0.377-0.272-0.365-0.507l0.034-0.659
		c-0.801-0.301-1.26-1.123-1.087-1.94c0.094-0.442,0.353-0.82,0.732-1.067c0.276-0.179,0.593-0.274,0.917-0.274
		c0.01,0,0.021,0,0.031,0c0.464-0.658,1.21-1.046,2.023-1.046c0.06,0,0.12,0.002,0.181,0.006c1.218,0.088,2.198,1.073,2.296,2.276
		c0.678,0.363,1.027,1.137,0.836,1.899c-0.189,0.753-0.864,1.278-1.64,1.278c-0.125,0-0.251-0.014-0.374-0.042l-0.309,0.58
		C14.337,8.598,14.168,8.7,13.983,8.7z M13.73,7.611l0.334-0.628c0.066-0.124,0.182-0.215,0.318-0.25
		c0.04-0.01,0.082-0.016,0.123-0.016c0.098,0,0.194,0.029,0.275,0.083c0.055,0.036,0.114,0.063,0.176,0.081
		c0.043,0.011,0.098,0.017,0.152,0.017c0.311,0,0.592-0.22,0.668-0.524c0.085-0.34-0.103-0.694-0.43-0.815
		c-0.05-0.008-0.098-0.023-0.143-0.044c-0.188-0.087-0.304-0.284-0.289-0.49c0.028-0.394-0.099-0.776-0.358-1.076
		s-0.619-0.48-1.014-0.509c-0.036-0.003-0.072-0.004-0.108-0.004c-0.561,0-1.067,0.311-1.321,0.812
		c-0.085,0.169-0.256,0.274-0.446,0.274c-0.061,0-0.12-0.011-0.177-0.032c-0.02-0.004-0.065-0.008-0.108-0.008
		c-0.132,0-0.262,0.039-0.374,0.112c-0.155,0.101-0.26,0.255-0.299,0.435c-0.072,0.341,0.122,0.683,0.451,0.796
		c0.022,0.005,0.079,0.011,0.136,0.011c0,0,0.044-0.001,0.047-0.001c0.13,0,0.259,0.054,0.352,0.148
		c0.099,0.1,0.152,0.238,0.144,0.378l-0.036,0.712L13.73,7.611z"/>
	<path d="M17.02,14.349c-0.186,0-0.355-0.102-0.441-0.265l-0.308-0.578c-0.138,0.036-0.281,0.054-0.423,0.054
		c-0.769,0-1.441-0.52-1.635-1.264c-0.203-0.78,0.171-1.584,0.878-1.937c0.071-0.854,0.578-1.613,1.352-2.005
		c0.351-0.178,0.727-0.268,1.118-0.268c0.795,0,1.552,0.39,2.015,1.027c0.044-0.003,0.089-0.005,0.133-0.005
		c0.772,0,1.446,0.522,1.638,1.269c0.112,0.437,0.048,0.892-0.182,1.281c-0.22,0.372-0.566,0.641-0.979,0.762l0.034,0.654
		c0.012,0.235-0.138,0.444-0.365,0.508l-2.7,0.749C17.11,14.343,17.065,14.349,17.02,14.349z M16.497,12.367
		c0.041,0,0.083,0.005,0.123,0.015c0.137,0.035,0.253,0.126,0.318,0.25l0.334,0.628l1.927-0.535l-0.037-0.712
		c-0.007-0.14,0.045-0.278,0.144-0.378c0.092-0.093,0.228-0.148,0.364-0.148l0.045,0.001c0.052,0,0.107-0.007,0.161-0.022
		c0.181-0.047,0.332-0.159,0.426-0.318c0.094-0.159,0.12-0.344,0.074-0.523c-0.079-0.305-0.353-0.519-0.668-0.519
		c-0.058,0-0.115,0.007-0.172,0.022l-0.006,0.002c-0.015,0.006-0.032,0.013-0.052,0.019c-0.047,0.015-0.097,0.022-0.147,0.022
		c-0.189,0-0.36-0.105-0.446-0.274c-0.254-0.501-0.761-0.813-1.325-0.813c-0.233,0-0.457,0.054-0.666,0.16
		c-0.535,0.271-0.852,0.832-0.809,1.43c0.019,0.258-0.167,0.491-0.422,0.53l-0.01,0.002c-0.355,0.104-0.566,0.476-0.473,0.836
		c0.079,0.304,0.354,0.516,0.668,0.516c0.058,0,0.117-0.008,0.174-0.022c0.071-0.019,0.139-0.049,0.202-0.09
		C16.306,12.395,16.4,12.367,16.497,12.367z"/>
</g>
</svg>
