<?xml version="1.0" encoding="utf-8"?>
<!-- Generator: Adobe Illustrator 22.1.0, SVG Export Plug-In . SVG Version: 6.00 Build 0)  -->
<svg version="1.1" id="Light" xmlns="http://www.w3.org/2000/svg" xmlns:xlink="http://www.w3.org/1999/xlink" x="0px" y="0px"
	 viewBox="0 0 24 24" style="enable-background:new 0 0 24 24;" xml:space="preserve">
<g>
	<title>underwear-shorts-male-1</title>
	<path d="M15.5,24c-0.827,0-1.5-0.673-1.5-1.5v-3.001c-0.629-0.472-1-1.21-1-1.999V12c0-0.551-0.448-1-1-1c-0.551,0-1,0.449-1,1
		v5.505c0,0.789-0.371,1.526-1,1.999V22.5c0,0.827-0.673,1.5-1.5,1.5h-5C2.673,24,2,23.327,2,22.5v-3.081
		c-0.09-0.075-0.174-0.156-0.251-0.242c-0.447-0.496-0.674-1.137-0.638-1.804L1.974,0.948C2.001,0.416,2.44,0,2.972,0h18.052
		c0.533,0,0.972,0.417,1,0.948l0.868,16.42c0.002,0.047,0.003,0.09,0.003,0.134c-0.001,0.668-0.262,1.296-0.735,1.768
		c-0.048,0.048-0.101,0.096-0.16,0.144V22.5c0,0.827-0.673,1.5-1.5,1.5H15.5z M20.5,23c0.276,0,0.5-0.224,0.5-0.5v-2.573
		C20.803,19.975,20.601,20,20.395,20h-0.396v3H20.5z M18.999,23v-3h-2v3H18.999z M15,22.5c0,0.276,0.224,0.5,0.5,0.5h0.499v-3H15.5
		c-0.167,0-0.334-0.017-0.5-0.052V22.5z M8.5,23C8.776,23,9,22.776,9,22.5v-2.547c-0.165,0.035-0.333,0.052-0.5,0.052H7.999V23H8.5z
		 M6.999,23v-2.995h-2V23H6.999z M3,22.5C3,22.776,3.224,23,3.5,23h0.499v-2.995H3.61c-0.052,0-0.094-0.001-0.136-0.004
		C3.315,19.993,3.156,19.969,3,19.929V22.5z M4.499,19c0.022,0,0.042,0.003,0.057,0.006l2.895-0.001C7.468,19.002,7.486,19,7.499,19
		c0.015,0,0.036,0.002,0.054,0.006L8.5,19.005c0.827,0,1.5-0.673,1.5-1.5V12c0-1.103,0.897-2,2-2s2,0.897,2,2v5.5
		c0,0.827,0.673,1.5,1.5,1.5h4.892c0.402,0,0.779-0.156,1.062-0.438c0.283-0.283,0.44-0.659,0.441-1.06
		c0-0.027-0.001-0.055-0.002-0.083L21.339,6.956C19.225,6.678,17.526,5.091,17.104,3H6.894c-0.421,2.091-2.12,3.677-4.234,3.956
		l-0.55,10.471c-0.021,0.4,0.115,0.784,0.383,1.082s0.636,0.473,1.036,0.494c0.029,0.002,0.055,0.002,0.082,0.002h0.84
		C4.468,19.002,4.486,19,4.499,19z M18.128,3c0.385,1.526,1.607,2.663,3.157,2.937L21.13,3H18.128z M2.713,5.937
		C4.264,5.663,5.485,4.526,5.87,3H2.867L2.713,5.937z M21.077,2l-0.053-1L2.972,1L2.92,2H21.077z"/>
</g>
</svg>
