<?xml version="1.0" encoding="utf-8"?>
<!-- Generator: Adobe Illustrator 22.1.0, SVG Export Plug-In . SVG Version: 6.00 Build 0)  -->
<svg version="1.1" id="Light" xmlns="http://www.w3.org/2000/svg" xmlns:xlink="http://www.w3.org/1999/xlink" x="0px" y="0px"
	 viewBox="0 0 24 24" style="enable-background:new 0 0 24 24;" xml:space="preserve">
<g>
	<title>underwear-bra-lace</title>
	<path d="M18.993,23c-2.413-0.067-4.675-1.158-6.227-3h-1.532c-1.552,1.842-3.812,2.934-6.22,3C2.246,23,0,20.757,0,18
		c0.064-2.224,0.4-4.43,0.999-6.563V1.5c0-0.276,0.224-0.5,0.5-0.5s0.5,0.224,0.5,0.5v9.535c4.298,0.393,6.727,3.547,8.196,5.965
		h3.609c1.469-2.417,3.898-5.57,8.194-5.965V1.5c0-0.276,0.224-0.5,0.5-0.5s0.5,0.224,0.5,0.5v9.929
		c0.6,2.135,0.937,4.341,1.001,6.556C24,20.754,21.757,23,19,23C18.998,23,18.995,23,18.993,23z M15.656,21.094
		c1.029,0.561,2.183,0.874,3.357,0.906C21.209,22,23,20.206,23,18c-0.033-1.156-0.148-2.332-0.343-3.5
		c-0.24,0.237-0.559,0.388-0.912,0.417l-1.581,0.166c-0.234,0.02-0.409,0.183-0.44,0.407l-0.176,1.489
		c-0.098,0.695-0.648,1.216-1.338,1.273l-1.581,0.166c-0.234,0.02-0.409,0.183-0.441,0.408l-0.176,1.489
		C15.973,20.609,15.847,20.878,15.656,21.094z M1.342,14.503C1.148,15.672,1.033,16.85,1,18.014C1,20.209,2.794,22,5,22
		c1.164-0.032,2.314-0.344,3.342-0.904c-0.191-0.215-0.316-0.482-0.355-0.771l-0.178-1.509c-0.03-0.212-0.207-0.377-0.429-0.396
		l-1.602-0.168c-0.682-0.056-1.23-0.575-1.327-1.261l-0.178-1.511c-0.03-0.212-0.206-0.377-0.427-0.395l-1.603-0.168
		C1.896,14.888,1.58,14.738,1.342,14.503z M1.908,13.525c0.03,0.212,0.206,0.377,0.428,0.396l1.603,0.168
		c0.683,0.056,1.23,0.575,1.326,1.263l0.178,1.51c0.03,0.211,0.206,0.376,0.428,0.394l1.602,0.169
		c0.682,0.057,1.23,0.576,1.327,1.262l0.178,1.512c0.02,0.144,0.11,0.268,0.24,0.336c0.435-0.324,0.834-0.693,1.187-1.101
		c-2.52-4.883-5.086-7.115-8.531-7.41c-0.034,0.128-0.066,0.256-0.098,0.385C1.776,12.411,1.908,13.525,1.908,13.525z
		 M13.595,19.434c0.353,0.407,0.751,0.777,1.186,1.1c0.129-0.069,0.219-0.196,0.24-0.345l0.176-1.491
		c0.098-0.695,0.648-1.217,1.339-1.274l1.581-0.166c0.23-0.02,0.409-0.187,0.44-0.407l0.176-1.489
		c0.097-0.695,0.647-1.217,1.338-1.274l1.581-0.166c0.234-0.02,0.409-0.183,0.441-0.408c0,0,0.129-1.106,0.13-1.109
		c-0.031-0.127-0.064-0.254-0.097-0.38C18.681,12.319,16.114,14.551,13.595,19.434z M12.694,19c0.182-0.354,0.358-0.685,0.532-1
		h-2.452c0.175,0.316,0.35,0.646,0.532,1H12.694z"/>
</g>
</svg>
