<?xml version="1.0" encoding="utf-8"?>
<!-- Generator: Adobe Illustrator 22.1.0, SVG Export Plug-In . SVG Version: 6.00 Build 0)  -->
<svg version="1.1" id="Light" xmlns="http://www.w3.org/2000/svg" xmlns:xlink="http://www.w3.org/1999/xlink" x="0px" y="0px"
	 viewBox="0 0 24 24" style="enable-background:new 0 0 24 24;" xml:space="preserve">
<g>
	<title>underwear-female-set</title>
	<path d="M17.691,12.552c-1.433,0-2.922-0.508-4.55-1.552h-2.282c-1.628,1.044-3.117,1.552-4.55,1.552
		c-1.253,0-2.464-0.407-3.598-1.209c-0.138-0.098-0.217-0.257-0.211-0.426c0.01-0.274,0.03-0.558,0.061-0.87
		c0-0.041,0.006-0.073,0.01-0.097c0.264-2.462,1.221-4.387,2.844-5.713L4.238,0.656C4.152,0.394,4.295,0.111,4.556,0.025
		C4.607,0.008,4.66,0,4.713,0C4.929,0,5.12,0.138,5.188,0.343L6.41,4.062c2.323,1.199,4.064,3.401,4.7,5.938h1.781
		c0.037-0.149,0.078-0.297,0.122-0.442c0.003-0.012,0.007-0.025,0.011-0.038c0.728-2.351,2.388-4.334,4.564-5.457l1.222-3.719
		C18.877,0.138,19.068,0,19.285,0c0.053,0,0.105,0.008,0.156,0.025c0.262,0.086,0.405,0.369,0.319,0.631l-1.177,3.581
		c1.856,1.507,2.81,3.694,2.916,6.681c0.006,0.169-0.073,0.328-0.211,0.426C20.155,12.145,18.944,12.552,17.691,12.552z
		 M13.85,10.267c1.4,0.87,2.656,1.293,3.833,1.293c0.975,0,1.893-0.289,2.803-0.882c-0.006-0.105-0.014-0.209-0.022-0.313
		c-1.129-0.517-2.379-0.789-3.625-0.789c-1.009,0-1.998,0.172-2.943,0.512C13.881,10.148,13.865,10.208,13.85,10.267z M3.512,10.679
		c0.911,0.593,1.829,0.882,2.804,0.882c1.178,0,2.434-0.423,3.833-1.293c-0.015-0.059-0.03-0.119-0.046-0.178
		c-0.946-0.34-1.936-0.513-2.945-0.513c-1.245,0-2.494,0.272-3.623,0.789C3.526,10.469,3.518,10.573,3.512,10.679z M18.221,8.676
		c0.719,0.103,1.42,0.284,2.093,0.541c-0.278-1.497-0.853-2.696-1.749-3.641C18.576,6.615,18.46,7.654,18.221,8.676z M5.434,5.576
		C4.539,6.521,3.963,7.72,3.685,9.216c0.672-0.257,1.373-0.438,2.093-0.541C5.539,7.654,5.424,6.615,5.434,5.576z M7.162,8.577
		c0.855,0,1.7,0.111,2.518,0.331c-0.68-1.529-1.808-2.813-3.234-3.679C6.4,6.358,6.514,7.484,6.784,8.584
		C6.91,8.579,7.036,8.577,7.162,8.577z M17.554,5.229c-1.426,0.866-2.553,2.15-3.234,3.679c0.818-0.22,1.661-0.331,2.515-0.331
		c0.126,0,0.253,0.002,0.38,0.007C17.486,7.485,17.599,6.359,17.554,5.229z"/>
	<path d="M11.438,23.999c-0.358,0-0.691-0.193-0.868-0.504c-1.115-1.942-3.409-4.942-4.292-5.104l-2.887-0.533
		c-0.533-0.101-0.893-0.617-0.802-1.151l0.268-1.582c0.087-0.481,0.5-0.828,0.984-0.828c0.03,0,0.06,0.001,0.091,0.004
		c2.666,0.257,5.379,0.387,8.068,0.387c2.687,0,5.399-0.13,8.061-0.386c0.002,0,0.004,0,0.006-0.001
		c0.031-0.002,0.056-0.003,0.08-0.003c0.486,0,0.902,0.345,0.989,0.821l0.27,1.587c0.09,0.534-0.269,1.05-0.8,1.15l-2.889,0.533
		c-0.884,0.163-3.177,3.163-4.291,5.105c-0.177,0.31-0.509,0.503-0.867,0.503H11.438z M3.575,16.874l2.885,0.533
		c1.829,0.337,4.948,5.538,4.978,5.591l1.118,0.001c0.031-0.052,3.146-5.253,4.978-5.592l2.887-0.533l-0.271-1.581
		c-2.687,0.264-5.431,0.396-8.15,0.396c-2.719,0-5.463-0.132-8.158-0.391L3.575,16.874z"/>
</g>
</svg>
