<?xml version="1.0" encoding="utf-8"?>
<!-- Generator: Adobe Illustrator 22.1.0, SVG Export Plug-In . SVG Version: 6.00 Build 0)  -->
<svg version="1.1" id="Light" xmlns="http://www.w3.org/2000/svg" xmlns:xlink="http://www.w3.org/1999/xlink" x="0px" y="0px"
	 viewBox="0 0 24 24" style="enable-background:new 0 0 24 24;" xml:space="preserve">
<g>
	<title>underwear-bikini</title>
	<path d="M10.892,24c-0.416,0-0.793-0.262-0.938-0.652c-0.571-1.459-2.014-2.442-3.588-2.442l-0.058,0
		c-0.326,0-0.647,0.04-0.958,0.117c-0.038,0.009-0.074,0.016-0.11,0.021c-0.045,0.006-0.089,0.009-0.132,0.009
		c-0.221,0-0.432-0.071-0.607-0.207c-0.212-0.162-0.348-0.398-0.383-0.663c-0.201-1.56-0.12-3.139,0.241-4.695
		c0.002-0.061,0.015-0.122,0.041-0.182c0.144-0.584,0.323-1.15,0.533-1.68C5.088,13.245,5.451,13,5.859,13h12.28
		c0.408,0.001,0.771,0.244,0.925,0.62c0.211,0.534,0.389,1.096,0.533,1.676c0.031,0.067,0.047,0.134,0.047,0.203
		c0,0,0,0.001,0,0.001c0.359,1.552,0.438,3.127,0.237,4.681c-0.005,0.04-0.013,0.077-0.022,0.114
		c-0.11,0.445-0.509,0.756-0.97,0.756l0,0c-0.08,0-0.161-0.01-0.24-0.029c-0.315-0.078-0.657-0.118-1.017-0.118
		c-1.577,0-3.021,0.985-3.595,2.451C13.893,23.739,13.516,24,13.1,24H10.892z M6.369,19.905c1.981,0,3.797,1.24,4.519,3.086L13.1,23
		c0.725-1.853,2.544-3.094,4.527-3.094c0.447,0,0.871,0.05,1.261,0.147c0.173-1.341,0.119-2.703-0.161-4.053H5.27
		c-0.28,1.349-0.334,2.712-0.161,4.054c0.389-0.098,0.79-0.147,1.19-0.148L6.369,19.905z M18.478,15
		c-0.104-0.353-0.218-0.689-0.343-1.005L5.859,14c-0.125,0.317-0.237,0.647-0.341,1H18.478z"/>
	<path d="M7.914,9.398c-0.781,0-1.532-0.103-2.259-0.203C5.424,9.163,5.21,9.05,5.054,8.879c-0.896-0.98-1.223-2.494-0.972-4.499
		c0.039-0.344,0.263-0.65,0.583-0.794c1.113-0.529,2.365-0.81,3.618-0.81c0.503,0,1.005,0.044,1.498,0.132
		C9.196,2.244,8.71,1.51,8.33,0.715C8.211,0.467,8.317,0.167,8.565,0.049c0.067-0.032,0.14-0.049,0.215-0.049
		c0.191,0,0.369,0.112,0.451,0.284C9.861,1.598,10.815,2.734,12,3.579c1.184-0.845,2.139-1.981,2.767-3.295
		C14.85,0.111,15.027,0,15.218,0c0.075,0,0.147,0.016,0.215,0.049c0.249,0.119,0.355,0.418,0.236,0.667
		c-0.38,0.794-0.866,1.528-1.45,2.191c0.495-0.088,0.997-0.133,1.501-0.133c1.251,0,2.504,0.28,3.622,0.811
		c0.312,0.14,0.534,0.445,0.574,0.793c0.25,2.004-0.077,3.519-0.975,4.501c-0.156,0.171-0.369,0.283-0.6,0.316
		c-0.727,0.1-1.478,0.203-2.26,0.203c-1.615,0-2.919-0.462-4.084-1.451C10.833,8.935,9.529,9.398,7.914,9.398z M8.29,3.774
		c-1.107,0-2.216,0.249-3.206,0.72C4.861,6.204,5.103,7.45,5.792,8.204C6.486,8.3,7.204,8.398,7.913,8.398
		c1.446,0,2.557-0.416,3.586-1.348V4.497C10.502,4.023,9.396,3.774,8.29,3.774z M12.499,7.052c1.028,0.93,2.138,1.346,3.584,1.346
		c0.709,0,1.428-0.098,2.122-0.194c0.69-0.756,0.932-2.003,0.719-3.706c0,0,0-0.004,0-0.005c-0.994-0.472-2.101-0.72-3.206-0.72
		c-1.113,0-2.222,0.25-3.219,0.724V7.052z"/>
</g>
</svg>
