<?xml version="1.0" encoding="utf-8"?>
<!-- Generator: Adobe Illustrator 22.1.0, SVG Export Plug-In . SVG Version: 6.00 Build 0)  -->
<svg version="1.1" id="Light" xmlns="http://www.w3.org/2000/svg" xmlns:xlink="http://www.w3.org/1999/xlink" x="0px" y="0px"
	 viewBox="0 0 24 24" style="enable-background:new 0 0 24 24;" xml:space="preserve">
<g>
	<title>underwear-shorts-male</title>
	<path d="M14.355,24c-0.743,0-1.366-0.532-1.482-1.266L12,17.204l-0.874,5.531C11.009,23.468,10.386,24,9.645,24H1.5
		C0.673,24,0,23.327,0,22.5v-21C0,0.673,0.673,0,1.5,0h21C23.327,0,24,0.673,24,1.5v21c0,0.827-0.673,1.5-1.5,1.5H14.355z
		 M13.861,22.578C13.899,22.823,14.107,23,14.355,23H22.5c0.276,0,0.5-0.224,0.5-0.5V5h-8v6.934c0,0.524-0.279,1.016-0.728,1.286
		l-1.726,1.036L13.861,22.578z M1,22.5C1,22.776,1.224,23,1.5,23h8.144c0.248,0,0.455-0.177,0.494-0.421l1.315-8.323L9.728,13.22
		c-0.449-0.269-0.728-0.761-0.729-1.286V5H1V22.5z M9.999,11.934c0,0.174,0.093,0.339,0.243,0.428L12,13.417l1.758-1.055
		C13.907,12.272,14,12.108,14,11.934V5H9.999V11.934z M23,4V1.5C23,1.224,22.776,1,22.5,1h-21C1.224,1,1,1.224,1,1.5V4H23z"/>
</g>
</svg>
