<?xml version="1.0" encoding="utf-8"?>
<!-- Generator: Adobe Illustrator 22.1.0, SVG Export Plug-In . SVG Version: 6.00 Build 0)  -->
<svg version="1.1" id="Layer_1" xmlns="http://www.w3.org/2000/svg" xmlns:xlink="http://www.w3.org/1999/xlink" x="0px" y="0px"
	 viewBox="0 0 24 24" style="enable-background:new 0 0 24 24;" xml:space="preserve">
<g>
	<title>layers</title>
	<path d="M11.998,15.954c-0.138,0-0.272-0.028-0.398-0.083l-10.315-4.92c-0.12-0.057-0.211-0.158-0.256-0.285
		c-0.045-0.126-0.037-0.261,0.02-0.382c0.082-0.173,0.26-0.285,0.452-0.285c0.075,0,0.147,0.016,0.215,0.049l10.3,4.913
		l10.269-4.913c0.068-0.032,0.14-0.049,0.215-0.049c0.192,0,0.369,0.112,0.451,0.285c0.057,0.12,0.064,0.256,0.02,0.382
		c-0.045,0.126-0.136,0.227-0.256,0.285l-10.3,4.913C12.277,15.924,12.139,15.954,11.998,15.954z"/>
	<path d="M11.998,18.954c-0.138,0-0.272-0.028-0.398-0.083l-10.315-4.92c-0.12-0.057-0.211-0.158-0.256-0.284
		c-0.045-0.126-0.037-0.261,0.02-0.382c0.083-0.173,0.26-0.285,0.452-0.285c0.075,0,0.147,0.016,0.215,0.049l10.3,4.913
		l10.269-4.913c0.068-0.032,0.141-0.049,0.215-0.049c0.192,0,0.369,0.112,0.451,0.285c0.057,0.12,0.064,0.256,0.02,0.382
		c-0.044,0.126-0.135,0.227-0.256,0.284l-10.3,4.913C12.277,18.924,12.139,18.954,11.998,18.954z"/>
	<path d="M11.998,21.954c-0.138,0-0.272-0.028-0.398-0.083l-10.315-4.92c-0.12-0.057-0.211-0.158-0.256-0.284
		c-0.045-0.126-0.037-0.261,0.02-0.382c0.082-0.173,0.26-0.285,0.451-0.285c0.075,0,0.148,0.016,0.216,0.049l10.3,4.913
		l10.269-4.913c0.068-0.032,0.14-0.049,0.215-0.049c0.192,0,0.369,0.112,0.451,0.285c0.057,0.12,0.064,0.256,0.02,0.382
		c-0.044,0.126-0.135,0.227-0.256,0.284l-10.3,4.913C12.277,21.924,12.139,21.954,11.998,21.954z"/>
	<path d="M12,12.954c-0.139,0-0.274-0.028-0.4-0.083L1.356,8.416C1.11,8.308,0.921,8.112,0.824,7.864
		C0.727,7.614,0.732,7.343,0.84,7.098c0.101-0.231,0.284-0.414,0.515-0.515l10.246-4.455c0.126-0.055,0.26-0.083,0.399-0.083
		c0.139,0,0.273,0.028,0.4,0.083l10.244,4.455c0.246,0.108,0.434,0.304,0.532,0.552c0.097,0.249,0.092,0.521-0.016,0.765
		c-0.101,0.231-0.284,0.414-0.515,0.515L12.4,12.871C12.274,12.926,12.139,12.954,12,12.954z M1.754,7.5l10.245,4.454l10.246-4.455
		L12,3.045L1.754,7.5z"/>
</g>
</svg>
