<?xml version="1.0" encoding="utf-8"?>
<!-- Generator: Adobe Illustrator 22.1.0, SVG Export Plug-In . SVG Version: 6.00 Build 0)  -->
<svg version="1.1" id="Layer_1" xmlns="http://www.w3.org/2000/svg" xmlns:xlink="http://www.w3.org/1999/xlink" x="0px" y="0px"
	 viewBox="0 0 24 24" style="enable-background:new 0 0 24 24;" xml:space="preserve">
<g>
	<title>layers-grid-upload</title>
	<path d="M17.518,23.99c-3.584,0-6.5-2.916-6.5-6.5s2.916-6.5,6.5-6.5c3.584,0,6.5,2.916,6.5,6.5S21.102,23.99,17.518,23.99z
		 M17.518,11.99c-3.033,0-5.5,2.467-5.5,5.5s2.467,5.5,5.5,5.5s5.5-2.467,5.5-5.5S20.55,11.99,17.518,11.99z"/>
	<path d="M17.518,20.99c-0.276,0-0.5-0.224-0.5-0.5v-4.793l-1.396,1.396c-0.094,0.094-0.22,0.146-0.354,0.146
		s-0.259-0.052-0.354-0.146s-0.146-0.22-0.146-0.354s0.052-0.259,0.146-0.354l2.25-2.25c0.045-0.046,0.101-0.083,0.163-0.109
		c0.06-0.025,0.125-0.038,0.191-0.038s0.131,0.013,0.191,0.038c0.062,0.025,0.117,0.062,0.163,0.109l2.249,2.249
		c0.094,0.094,0.146,0.22,0.146,0.354s-0.052,0.259-0.146,0.354s-0.22,0.146-0.354,0.146s-0.259-0.052-0.354-0.146l-1.396-1.396
		v4.793C18.018,20.766,17.793,20.99,17.518,20.99z"/>
	<path d="M2.518,18.981c-1.379,0-2.5-1.122-2.5-2.5V2.49c0-1.379,1.121-2.5,2.5-2.5h14c1.378,0,2.5,1.121,2.5,2.5v7
		c0,0.276-0.224,0.5-0.5,0.5s-0.5-0.224-0.5-0.5v-2.5h-5v3.5c0,0.276-0.224,0.5-0.5,0.5c-0.276,0-0.5-0.224-0.5-0.5v-3.5h-5v4.991
		h3.5c0.276,0,0.5,0.224,0.5,0.5c0,0.276-0.224,0.5-0.5,0.5h-3.5v5h2.5c0.276,0,0.5,0.224,0.5,0.5s-0.224,0.5-0.5,0.5H2.518z
		 M1.018,16.481c0,0.827,0.673,1.5,1.5,1.5h3.5v-5h-5V16.481z M6.018,11.981V6.99h-5v4.991H6.018z M18.018,5.99v-3.5
		c0-0.827-0.673-1.5-1.5-1.5h-3.5v5H18.018z M12.018,5.99v-5h-5v5H12.018z M6.018,5.99v-5h-3.5c-0.827,0-1.5,0.673-1.5,1.5v3.5
		H6.018z"/>
</g>
</svg>
