<?xml version="1.0" encoding="utf-8"?>
<!-- Generator: Adobe Illustrator 22.1.0, SVG Export Plug-In . SVG Version: 6.00 Build 0)  -->
<svg version="1.1" id="Layer_1" xmlns="http://www.w3.org/2000/svg" xmlns:xlink="http://www.w3.org/1999/xlink" x="0px" y="0px"
	 viewBox="0 0 24 24" style="enable-background:new 0 0 24 24;" xml:space="preserve">
<g>
	<title>layers-grid-settings</title>
	<path d="M17.759,18.97c-1.068,0-1.937-0.869-1.937-1.937s0.869-1.937,1.937-1.937s1.937,0.869,1.937,1.937
		S18.827,18.97,17.759,18.97z M17.759,16.096c-0.517,0-0.937,0.42-0.937,0.937s0.42,0.937,0.937,0.937s0.937-0.42,0.937-0.937
		S18.276,16.096,17.759,16.096z"/>
	<path d="M17.755,23.999c-0.173,0-0.345-0.026-0.512-0.076c-0.571-0.172-1.014-0.616-1.187-1.187l-0.42-1.392
		c-0.057-0.189-0.235-0.322-0.433-0.322c-0.034,0-0.067,0.004-0.1,0.011l-1.41,0.327c-0.132,0.03-0.266,0.045-0.398,0.045
		c-0.335,0-0.663-0.095-0.949-0.276c-0.403-0.255-0.682-0.651-0.787-1.115c-0.13-0.575,0.033-1.176,0.435-1.607l0.986-1.064
		c0.16-0.174,0.159-0.447-0.001-0.622l-0.986-1.063c-0.324-0.348-0.493-0.802-0.476-1.278c0.017-0.476,0.218-0.917,0.567-1.241
		c0.331-0.308,0.763-0.478,1.215-0.478c0.131,0,0.263,0.015,0.392,0.043l1.414,0.327c0.034,0.008,0.068,0.012,0.102,0.012
		c0.196,0,0.374-0.132,0.431-0.321l0.424-1.393c0.224-0.743,0.923-1.263,1.701-1.263c0.173,0,0.345,0.025,0.511,0.076
		c0.571,0.172,1.015,0.615,1.188,1.185l0.423,1.392c0.057,0.189,0.236,0.322,0.434,0.322c0.034,0,0.068-0.004,0.101-0.012
		l1.411-0.327c0.131-0.029,0.262-0.044,0.393-0.044c0.827,0,1.559,0.585,1.741,1.391c0.129,0.575-0.033,1.176-0.434,1.607
		l-0.987,1.064c-0.16,0.174-0.159,0.447,0.001,0.622l0.986,1.063c0.669,0.719,0.629,1.849-0.09,2.519
		c-0.331,0.309-0.762,0.478-1.215,0.478l0,0c-0.132,0-0.263-0.015-0.392-0.043l-1.414-0.327c-0.033-0.008-0.068-0.012-0.102-0.012
		c-0.2,0-0.378,0.133-0.435,0.323l-0.424,1.395C19.231,23.48,18.532,23.999,17.755,23.999L17.755,23.999z M15.202,20.023
		c0.636,0,1.208,0.425,1.391,1.033l0.42,1.391c0.075,0.25,0.269,0.443,0.519,0.519c0.072,0.022,0.147,0.033,0.223,0.033
		c0.34,0,0.646-0.227,0.745-0.552l0.423-1.393c0.181-0.609,0.753-1.036,1.39-1.036c0.111,0,0.222,0.013,0.331,0.038l1.41,0.326
		c0.055,0.013,0.113,0.019,0.171,0.019c0.198,0,0.386-0.075,0.532-0.21c0.153-0.143,0.241-0.336,0.249-0.545
		c0.007-0.209-0.067-0.408-0.209-0.562l-0.988-1.066c-0.511-0.555-0.511-1.424-0.001-1.979l0.988-1.066
		c0.177-0.19,0.249-0.454,0.192-0.707c-0.08-0.354-0.402-0.61-0.765-0.61c-0.057,0-0.115,0.006-0.171,0.019l-1.408,0.326
		c-0.107,0.024-0.215,0.037-0.324,0.037c-0.636,0-1.208-0.424-1.393-1.031l-0.423-1.392c-0.075-0.25-0.27-0.443-0.519-0.518
		c-0.072-0.022-0.147-0.033-0.222-0.033c-0.341,0-0.647,0.227-0.744,0.552l-0.425,1.394c-0.183,0.607-0.754,1.031-1.389,1.031
		c-0.109,0-0.219-0.012-0.326-0.037l-1.411-0.327c-0.055-0.013-0.113-0.019-0.171-0.019c-0.198,0-0.386,0.075-0.532,0.21
		c-0.153,0.143-0.241,0.336-0.249,0.545c-0.007,0.209,0.067,0.408,0.209,0.562l0.988,1.066c0.511,0.555,0.511,1.424,0.001,1.979
		l-0.988,1.066c-0.177,0.19-0.249,0.454-0.192,0.707c0.046,0.204,0.168,0.378,0.345,0.49c0.126,0.079,0.27,0.121,0.416,0.121
		c0.058,0,0.117-0.007,0.175-0.02l1.408-0.326C14.985,20.035,15.094,20.023,15.202,20.023z"/>
	<path d="M6.488,19H2.509c-1.379,0-2.5-1.122-2.5-2.5V2.51c0-1.379,1.121-2.5,2.5-2.5h14c1.378,0,2.5,1.121,2.5,2.5v7
		c0,0.276-0.224,0.5-0.5,0.5s-0.5-0.224-0.5-0.5v-2.5h-5v3.5c0,0.276-0.224,0.5-0.5,0.5c-0.276,0-0.5-0.224-0.5-0.5v-3.5h-5v4.991
		h3.5c0.276,0,0.5,0.224,0.5,0.5c0,0.276-0.224,0.5-0.5,0.5h-3.5V18h2.5c0.276,0,0.5,0.224,0.5,0.5S9.785,19,9.509,19H6.53
		c-0.007,0.001-0.014,0.001-0.021,0.001S6.495,19.001,6.488,19z M1.009,16.5c0,0.827,0.673,1.5,1.5,1.5h3.5v-4.999h-5V16.5z
		 M6.009,12.001V7.01h-5v4.991H6.009z M18.009,6.01v-3.5c0-0.827-0.673-1.5-1.5-1.5h-3.5v5H18.009z M12.009,6.01v-5h-5v5H12.009z
		 M6.009,6.01v-5h-3.5c-0.827,0-1.5,0.673-1.5,1.5v3.5H6.009z"/>
</g>
</svg>
