<?xml version="1.0" encoding="utf-8"?>
<!-- Generator: Adobe Illustrator 22.1.0, SVG Export Plug-In . SVG Version: 6.00 Build 0)  -->
<svg version="1.1" id="Layer_1" xmlns="http://www.w3.org/2000/svg" xmlns:xlink="http://www.w3.org/1999/xlink" x="0px" y="0px"
	 viewBox="0 0 24 24" style="enable-background:new 0 0 24 24;" xml:space="preserve">
<g>
	<title>layers-grid-warning</title>
	<circle cx="17.499" cy="20.75" r="0.75"/>
	<path d="M17.499,18.996c-0.276,0-0.5-0.224-0.5-0.5v-3c0-0.276,0.224-0.5,0.5-0.5s0.5,0.224,0.5,0.5v3
		C17.999,18.771,17.775,18.996,17.499,18.996z"/>
	<path d="M12.443,23.997c-0.506,0-0.966-0.256-1.232-0.684c-0.263-0.427-0.282-0.968-0.049-1.41l5.055-9.635
		c0.137-0.257,0.344-0.463,0.598-0.599c0.21-0.112,0.446-0.172,0.681-0.172c0.143,0,0.285,0.021,0.423,0.063
		c0.368,0.112,0.671,0.36,0.854,0.698c0.003,0.005,5.062,9.645,5.062,9.645c0.233,0.443,0.214,0.982-0.048,1.408
		c-0.267,0.43-0.727,0.686-1.231,0.686H12.443z M17.498,12.497c-0.074,0-0.145,0.018-0.211,0.053
		c-0.079,0.042-0.143,0.106-0.185,0.185l-5.054,9.632c-0.069,0.132-0.064,0.292,0.014,0.419c0.082,0.131,0.224,0.21,0.379,0.21
		h10.114c0.155,0,0.301-0.081,0.382-0.212c0.077-0.125,0.083-0.286,0.013-0.417l-5.056-9.635c-0.056-0.104-0.15-0.181-0.265-0.216
		C17.586,12.504,17.542,12.497,17.498,12.497z"/>
	<path d="M2.499,19c-1.379,0-2.5-1.122-2.5-2.5v-14c0-1.379,1.121-2.5,2.5-2.5h14c1.378,0,2.5,1.121,2.5,2.5v7
		c0,0.276-0.224,0.5-0.5,0.5s-0.5-0.224-0.5-0.5V7.004h-5v5.492c0,0.276-0.224,0.5-0.5,0.5h-5.5V18h4.5c0.276,0,0.5,0.224,0.5,0.5
		s-0.224,0.5-0.5,0.5H2.499z M0.999,16.5c0,0.827,0.673,1.5,1.5,1.5h3.5v-5.004h-5V16.5z M11.999,11.996V7.004h-5v4.992H11.999z
		 M5.999,11.996V7.004h-5v4.992H5.999z M17.999,6.004V2.5c0-0.827-0.673-1.5-1.5-1.5h-3.5v5.004H17.999z M11.999,6.004V1h-5v5.004
		H11.999z M5.999,6.004V1h-3.5c-0.827,0-1.5,0.673-1.5,1.5v3.504H5.999z"/>
</g>
</svg>
