<?xml version="1.0" encoding="utf-8"?>
<!-- Generator: Adobe Illustrator 22.1.0, SVG Export Plug-In . SVG Version: 6.00 Build 0)  -->
<svg version="1.1" id="Layer_1" xmlns="http://www.w3.org/2000/svg" xmlns:xlink="http://www.w3.org/1999/xlink" x="0px" y="0px"
	 viewBox="0 0 24 24" style="enable-background:new 0 0 24 24;" xml:space="preserve">
<g>
	<title>layers-1</title>
	<path d="M4.5,18C3.673,18,3,17.327,3,16.5v-9C3,6.673,3.673,6,4.5,6C4.776,6,5,6.224,5,6.5S4.776,7,4.5,7S4,7.224,4,7.5v9
		C4,16.776,4.224,17,4.5,17h15c0.276,0,0.5-0.224,0.5-0.5v-1c0-0.276,0.224-0.5,0.5-0.5s0.5,0.224,0.5,0.5v1
		c0,0.827-0.673,1.5-1.5,1.5H4.5z"/>
	<path d="M7.5,14C6.673,14,6,13.327,6,12.5v-9C6,2.673,6.673,2,7.5,2h15C23.327,2,24,2.673,24,3.5v9c0,0.827-0.673,1.5-1.5,1.5H7.5z
		 M7.5,3C7.224,3,7,3.224,7,3.5v9C7,12.776,7.224,13,7.5,13h15c0.276,0,0.5-0.224,0.5-0.5v-9C23,3.224,22.776,3,22.5,3H7.5z"/>
	<path d="M1.5,22C0.673,22,0,21.327,0,20.5v-9C0,10.673,0.673,10,1.5,10C1.776,10,2,10.224,2,10.5S1.776,11,1.5,11S1,11.224,1,11.5
		v9C1,20.776,1.224,21,1.5,21h15c0.276,0,0.5-0.224,0.5-0.5v-1c0-0.276,0.224-0.5,0.5-0.5s0.5,0.224,0.5,0.5v1
		c0,0.827-0.673,1.5-1.5,1.5H1.5z"/>
</g>
</svg>
