<?xml version="1.0" encoding="utf-8"?>
<!-- Generator: Adobe Illustrator 22.1.0, SVG Export Plug-In . SVG Version: 6.00 Build 0)  -->
<svg version="1.1" id="Layer_1" xmlns="http://www.w3.org/2000/svg" xmlns:xlink="http://www.w3.org/1999/xlink" x="0px" y="0px"
	 viewBox="0 0 24 24" style="enable-background:new 0 0 24 24;" xml:space="preserve">
<g>
	<title>layers-grid-download</title>
	<path d="M2.5,18.978c-1.379,0-2.5-1.122-2.5-2.5v-3.963c-0.002-0.013-0.003-0.026-0.003-0.037c0-0.012,0.001-0.026,0.003-0.039
		l0-5.916C-0.002,6.51-0.003,6.497-0.003,6.486c0-0.012,0.001-0.025,0.003-0.039l0-3.961c0-1.379,1.121-2.5,2.5-2.5h14
		c1.378,0,2.5,1.121,2.5,2.5v7c0,0.276-0.224,0.5-0.5,0.5S18,9.762,18,9.486v-2.5h-5.003v3.5c0,0.276-0.224,0.5-0.5,0.5
		c-0.276,0-0.5-0.224-0.5-0.5v-3.5h-5v4.992h3.5c0.276,0,0.5,0.224,0.5,0.5c0,0.276-0.224,0.5-0.5,0.5h-3.5v5H9.5
		c0.276,0,0.5,0.224,0.5,0.5s-0.224,0.5-0.5,0.5H2.5z M1,16.478c0,0.827,0.673,1.5,1.5,1.5h3.497v-5H1V16.478z M5.997,11.978V6.986
		H1v4.992H5.997z M18,5.986v-3.5c0-0.827-0.673-1.5-1.5-1.5h-3.503v5H18z M11.997,5.986v-5h-5v5H11.997z M5.997,5.986v-5H2.5
		c-0.827,0-1.5,0.673-1.5,1.5v3.5H5.997z"/>
	<path d="M17.497,23.986c-3.584,0-6.5-2.916-6.5-6.5s2.916-6.5,6.5-6.5s6.5,2.916,6.5,6.5S21.081,23.986,17.497,23.986z
		 M17.497,11.986c-3.033,0-5.5,2.467-5.5,5.5s2.467,5.5,5.5,5.5s5.5-2.467,5.5-5.5S20.53,11.986,17.497,11.986z"/>
	<path d="M17.497,20.986c-0.066,0-0.13-0.013-0.191-0.039c-0.062-0.025-0.117-0.062-0.163-0.109l-2.249-2.249
		c-0.094-0.094-0.146-0.22-0.146-0.354s0.052-0.259,0.146-0.354s0.22-0.146,0.354-0.146s0.259,0.052,0.354,0.146l1.396,1.396v-4.793
		c0-0.276,0.224-0.5,0.5-0.5s0.5,0.224,0.5,0.5v4.793l1.396-1.396c0.094-0.094,0.22-0.146,0.354-0.146s0.259,0.052,0.354,0.146
		s0.146,0.22,0.146,0.354s-0.052,0.259-0.146,0.354l-2.25,2.25c-0.045,0.046-0.101,0.083-0.163,0.109
		C17.627,20.973,17.563,20.986,17.497,20.986z"/>
</g>
</svg>
