<?xml version="1.0" encoding="utf-8"?>
<!-- Generator: Adobe Illustrator 22.1.0, SVG Export Plug-In . SVG Version: 6.00 Build 0)  -->
<svg version="1.1" id="Layer_1" xmlns="http://www.w3.org/2000/svg" xmlns:xlink="http://www.w3.org/1999/xlink" x="0px" y="0px"
	 viewBox="0 0 24 24" style="enable-background:new 0 0 24 24;" xml:space="preserve">
<g>
	<title>family-father</title>
	<path d="M5.5,14.5C5.224,14.5,5,14.276,5,14v-3c0-0.276,0.224-0.5,0.5-0.5S6,10.724,6,11v3C6,14.276,5.776,14.5,5.5,14.5z"/>
	<path d="M3.5,24c-0.258,0-0.477-0.201-0.498-0.458L2.54,18H0.5C0.224,18,0,17.776,0,17.5V14c0-3.033,2.467-5.5,5.5-5.5
		S11,10.967,11,14v3.5c0,0.276-0.224,0.5-0.5,0.5H8.46l-0.462,5.542C7.977,23.799,7.758,24,7.5,24H3.5z M7.04,23l0.462-5.542
		C7.523,17.201,7.742,17,8,17h2v-3c0-2.481-2.019-4.5-4.5-4.5S1,11.519,1,14v3h2c0.258,0,0.477,0.201,0.498,0.458L3.96,23H7.04z"/>
	<path d="M5.5,8c-2.206,0-4-1.794-4-4c0-0.691,0.183-1.375,0.529-1.979c0.015-0.032,0.033-0.057,0.044-0.073
		C2.79,0.749,4.104,0,5.5,0c2.001,0,3.705,1.498,3.963,3.484c0,0.003,0.002,0.012,0.002,0.012C9.489,3.685,9.5,3.846,9.5,4
		C9.5,6.206,7.706,8,5.5,8z M2.654,3.058C2.552,3.363,2.5,3.678,2.5,4c0,1.654,1.346,3,3,3c1.576,0,2.873-1.222,2.991-2.769
		C7.9,4.41,7.289,4.5,6.668,4.5c-0.002,0-0.004,0-0.005,0C5.215,4.499,3.775,3.977,2.654,3.058z M6.675,3.5
		c0.587-0.001,1.164-0.098,1.719-0.289C8.042,1.918,6.857,1,5.5,1C4.573,1,3.704,1.428,3.136,2.155
		C4.101,3.01,5.372,3.498,6.659,3.5c0.003,0,0.005,0,0.008,0S6.672,3.5,6.675,3.5z"/>
	<path d="M20.5,13c-1.516,0-2.75-1.234-2.75-2.75S18.984,7.5,20.5,7.5s2.75,1.234,2.75,2.75S22.016,13,20.5,13z M20.5,8.5
		c-0.965,0-1.75,0.785-1.75,1.75S19.535,12,20.5,12s1.75-0.785,1.75-1.75S21.465,8.5,20.5,8.5z"/>
	<path d="M19.5,24c-0.255,0-0.469-0.191-0.497-0.445L18.552,19.5H17.5c-0.276,0-0.5-0.224-0.5-0.5v-2.5c0-1.93,1.57-3.5,3.5-3.5
		s3.5,1.57,3.5,3.5V19c0,0.276-0.224,0.5-0.5,0.5h-1.052l-0.451,4.055C21.969,23.809,21.755,24,21.5,24H19.5z M21.052,23
		l0.451-4.055C21.531,18.691,21.745,18.5,22,18.5h1v-2c0-1.378-1.122-2.5-2.5-2.5S18,15.122,18,16.5v2h1
		c0.255,0,0.469,0.191,0.497,0.445L19.948,23H21.052z"/>
	<path d="M15.357,6.777c-0.26,0-0.505-0.099-0.692-0.278c0,0-0.027-0.027-0.031-0.031l-2.073-2.162
		c-0.586-0.585-0.731-1.484-0.356-2.233c0.231-0.464,0.63-0.809,1.122-0.974c0.2-0.067,0.407-0.101,0.616-0.101
		c0.302,0,0.593,0.069,0.866,0.205c0.187,0.094,0.357,0.216,0.505,0.364l0.047,0.046l0.046-0.047
		c0.366-0.366,0.853-0.568,1.372-0.568c0.519,0,1.006,0.202,1.371,0.567c0.148,0.148,0.271,0.318,0.364,0.506
		c0.374,0.748,0.228,1.648-0.364,2.24l-2.072,2.156C15.892,6.665,15.628,6.777,15.357,6.777z M13.942,1.999
		c-0.101,0-0.201,0.016-0.299,0.049c-0.238,0.079-0.431,0.247-0.544,0.472c-0.181,0.363-0.111,0.799,0.176,1.086l2.081,2.171
		l2.08-2.164c0.292-0.292,0.365-0.73,0.183-1.093c-0.046-0.091-0.105-0.174-0.177-0.245c-0.177-0.177-0.413-0.275-0.665-0.275
		s-0.488,0.098-0.665,0.275l-0.4,0.4c-0.091,0.091-0.22,0.144-0.354,0.144c-0.133,0-0.262-0.052-0.354-0.143l-0.4-0.4
		c-0.072-0.072-0.154-0.131-0.245-0.176C14.229,2.033,14.088,1.999,13.942,1.999z"/>
</g>
</svg>
