<?xml version="1.0" encoding="utf-8"?>
<!-- Generator: Adobe Illustrator 22.1.0, SVG Export Plug-In . SVG Version: 6.00 Build 0)  -->
<svg version="1.1" id="Layer_1" xmlns="http://www.w3.org/2000/svg" xmlns:xlink="http://www.w3.org/1999/xlink" x="0px" y="0px"
	 viewBox="0 0 24 24" style="enable-background:new 0 0 24 24;" xml:space="preserve">
<g>
	<title>family-add-new-member</title>
	<path d="M6.5,16C4.57,16,3,14.43,3,12.5c0-0.604,0.16-1.202,0.462-1.73c0.011-0.022,0.022-0.038,0.029-0.048
		C4.118,9.661,5.272,9,6.5,9c1.743,0,3.233,1.304,3.465,3.033c0.001,0.006,0.005,0.021,0.006,0.043C9.991,12.233,10,12.368,10,12.5
		C10,14.43,8.43,16,6.5,16z M4.099,11.808C4.033,12.033,4,12.264,4,12.5C4,13.878,5.121,15,6.5,15c1.281,0,2.339-0.968,2.483-2.21
		c-0.484,0.137-0.977,0.206-1.468,0.206C6.269,12.996,5.069,12.576,4.099,11.808z M4.575,10.909
		c0.813,0.701,1.848,1.084,2.938,1.084c0.472,0,0.935-0.073,1.38-0.218C8.576,10.735,7.603,10,6.5,10
		C5.754,10,5.049,10.336,4.575,10.909z"/>
	<path d="M13.858,16.144c-0.092,0-0.182-0.025-0.26-0.073c-0.114-0.069-0.194-0.179-0.225-0.309c-0.031-0.13-0.01-0.264,0.059-0.378
		c0.349-0.573,0.522-1.232,0.5-1.904l0-0.908c0-1.968,1.601-3.569,3.569-3.569s3.569,1.601,3.569,3.569v0.892
		c-0.023,0.686,0.15,1.347,0.5,1.921c0.07,0.114,0.091,0.248,0.059,0.378c-0.031,0.13-0.112,0.24-0.226,0.309
		c-0.078,0.048-0.168,0.073-0.26,0.073c-0.174,0-0.337-0.092-0.427-0.24c-0.254-0.416-0.436-0.872-0.541-1.346
		c-0.523,0.793-1.38,1.327-2.354,1.424c-0.108,0.011-0.216,0.016-0.322,0.016c-1.082,0-2.086-0.564-2.671-1.442
		c-0.105,0.475-0.287,0.931-0.542,1.349C14.193,16.054,14.033,16.144,13.858,16.144z M15.399,13.468c0.29,0.9,1.136,1.53,2.1,1.53
		c0.073,0,0.147-0.004,0.221-0.011c0.871-0.087,1.612-0.698,1.88-1.519c-0.79-0.171-1.508-0.54-2.101-1.081
		C16.907,12.927,16.19,13.297,15.399,13.468z M17.5,10.002c-1.405,0-2.551,1.134-2.569,2.535c0.854-0.121,1.624-0.538,2.19-1.193
		c0.093-0.107,0.231-0.169,0.378-0.169s0.285,0.062,0.378,0.169c0.566,0.655,1.336,1.072,2.191,1.193
		C20.051,11.136,18.905,10.002,17.5,10.002z"/>
	<path d="M1.5,22C1.224,22,1,21.776,1,21.5c0-0.369,0.037-0.739,0.111-1.101c0.294-1.439,1.131-2.678,2.356-3.488
		c0.904-0.598,1.949-0.914,3.021-0.914c0.371,0,0.745,0.038,1.112,0.113c0.131,0.027,0.243,0.103,0.317,0.214
		S8.017,16.569,7.99,16.7c-0.047,0.232-0.253,0.4-0.49,0.4c-0.033,0-0.066-0.003-0.099-0.01c-0.301-0.062-0.607-0.093-0.91-0.093
		c-0.878,0-1.732,0.259-2.472,0.747c-1.003,0.663-1.687,1.676-1.928,2.854C2.064,20.731,2.043,20.865,2.028,21H7.5
		C7.776,21,8,21.224,8,21.5S7.776,22,7.5,22H1.5z"/>
	<path d="M16.5,22c-0.276,0-0.5-0.224-0.5-0.5s0.224-0.5,0.5-0.5h5.472c-0.015-0.135-0.036-0.269-0.063-0.401
		c-0.24-1.178-0.925-2.191-1.928-2.854c-0.74-0.489-1.594-0.747-2.472-0.747c-0.303,0-0.609,0.031-0.909,0.092
		c-0.033,0.007-0.067,0.01-0.101,0.01c-0.236,0-0.442-0.168-0.489-0.4c-0.027-0.131-0.001-0.264,0.073-0.376
		c0.074-0.111,0.186-0.188,0.317-0.214c0.367-0.075,0.741-0.113,1.111-0.113c1.073,0,2.117,0.316,3.021,0.913
		c1.226,0.81,2.062,2.049,2.356,3.488C22.963,20.759,23,21.13,23,21.5c0,0.276-0.224,0.5-0.5,0.5H16.5z"/>
	<path d="M12,20.5c-1.516,0-2.75-1.234-2.75-2.75S10.484,15,12,15s2.75,1.234,2.75,2.75S13.516,20.5,12,20.5z M12,16
		c-0.965,0-1.75,0.785-1.75,1.75S11.035,19.5,12,19.5c0.965,0,1.75-0.785,1.75-1.75S12.965,16,12,16z"/>
	<path d="M9,24c-0.149,0-0.289-0.065-0.384-0.18c-0.095-0.115-0.135-0.264-0.108-0.41c0.308-1.686,1.776-2.91,3.49-2.91
		c1.704,0.015,3.172,1.237,3.493,2.906c0.028,0.148-0.011,0.298-0.106,0.413C15.291,23.934,15.15,24,15,24H9z M14.317,23
		c-0.415-0.889-1.325-1.491-2.32-1.5l0,0c-1.003,0-1.914,0.602-2.321,1.5H14.317z"/>
	<path d="M12,9C9.519,9,7.5,6.981,7.5,4.5S9.519,0,12,0c2.481,0,4.5,2.019,4.5,4.5S14.481,9,12,9z M12,1c-1.93,0-3.5,1.57-3.5,3.5
		S10.07,8,12,8s3.5-1.57,3.5-3.5S13.93,1,12,1z"/>
	<path d="M12,7c-0.276,0-0.5-0.224-0.5-0.5V5H10C9.724,5,9.5,4.776,9.5,4.5S9.724,4,10,4h1.5V2.5C11.5,2.224,11.724,2,12,2
		c0.276,0,0.5,0.224,0.5,0.5V4H14c0.276,0,0.5,0.224,0.5,0.5S14.276,5,14,5h-1.5v1.5C12.5,6.776,12.276,7,12,7z"/>
</g>
</svg>
