<?xml version="1.0" encoding="utf-8"?>
<!-- Generator: Adobe Illustrator 22.1.0, SVG Export Plug-In . SVG Version: 6.00 Build 0)  -->
<svg version="1.1" id="Layer_1" xmlns="http://www.w3.org/2000/svg" xmlns:xlink="http://www.w3.org/1999/xlink" x="0px" y="0px"
	 viewBox="0 0 24 24" style="enable-background:new 0 0 24 24;" xml:space="preserve">
<g>
	<title>family-child</title>
	<path d="M12,13c-1.516,0-2.75-1.234-2.75-2.75S10.484,7.5,12,7.5s2.75,1.234,2.75,2.75S13.516,13,12,13z M12,8.5
		c-0.965,0-1.75,0.785-1.75,1.75S11.035,12,12,12c0.965,0,1.75-0.785,1.75-1.75S12.965,8.5,12,8.5z"/>
	<path d="M11,24c-0.255,0-0.469-0.191-0.497-0.445L10.052,19.5H9c-0.276,0-0.5-0.224-0.5-0.5v-2.5c0-1.93,1.57-3.5,3.5-3.5
		s3.5,1.57,3.5,3.5V19c0,0.276-0.224,0.5-0.5,0.5h-1.052l-0.451,4.055C13.469,23.809,13.255,24,13,24H11z M12.552,23l0.451-4.055
		c0.028-0.254,0.242-0.445,0.497-0.445h1v-2c0-1.378-1.122-2.5-2.5-2.5c-1.379,0-2.5,1.122-2.5,2.5v2h1
		c0.255,0,0.469,0.191,0.497,0.445L11.448,23H12.552z"/>
	<path d="M4,11.499c-1.792,0-3.25-1.458-3.25-3.25S2.208,4.999,4,4.999s3.25,1.458,3.25,3.25S5.792,11.499,4,11.499z M4,5.999
		c-1.241,0-2.25,1.009-2.25,2.25s1.009,2.25,2.25,2.25s2.25-1.009,2.25-2.25S5.241,5.999,4,5.999z"/>
	<path d="M2.5,24c-0.258,0-0.472-0.194-0.498-0.45L1.548,19H0.5C0.224,19,0,18.776,0,18.5v-3c-0.001-1.569,0.922-3,2.352-3.647
		c0.524-0.237,1.078-0.358,1.647-0.358c0.481,0,0.957,0.087,1.413,0.259c1,0.377,1.793,1.121,2.233,2.094
		c0.055,0.122,0.059,0.258,0.012,0.383c-0.047,0.125-0.14,0.224-0.262,0.279c-0.065,0.03-0.134,0.044-0.206,0.044c0,0,0,0,0,0
		c-0.196,0-0.375-0.115-0.456-0.294c-0.33-0.73-0.925-1.288-1.675-1.571c-0.342-0.129-0.699-0.195-1.06-0.195
		c-0.426,0-0.841,0.09-1.235,0.268C1.691,13.249,0.999,14.323,1,15.5V18h1c0.258,0,0.472,0.194,0.498,0.45L2.952,23h2.095
		l0.455-4.55C5.528,18.194,5.742,18,6,18h1c0.276,0,0.5,0.224,0.5,0.5S7.276,19,7,19H6.452l-0.455,4.55
		C5.972,23.806,5.758,24,5.5,24H2.5z"/>
	<path d="M20,11.499c-1.792,0-3.25-1.458-3.25-3.25s1.458-3.25,3.25-3.25s3.25,1.458,3.25,3.25S21.792,11.499,20,11.499z M20,5.999
		c-1.241,0-2.25,1.009-2.25,2.25s1.009,2.25,2.25,2.25s2.25-1.009,2.25-2.25S21.241,5.999,20,5.999z"/>
	<path d="M18.5,24c-0.258,0-0.472-0.194-0.498-0.45L17.547,19H17c-0.276,0-0.5-0.224-0.5-0.5S16.724,18,17,18h1
		c0.258,0,0.472,0.194,0.498,0.45L18.953,23h2.095l0.455-4.55C21.528,18.194,21.742,18,22,18h1v-2.5
		c0.001-1.177-0.691-2.251-1.764-2.736c-0.391-0.177-0.805-0.267-1.232-0.267c-1.179,0-2.253,0.692-2.738,1.764
		c-0.081,0.179-0.26,0.294-0.456,0.294c-0.072,0-0.141-0.015-0.206-0.045c-0.121-0.055-0.214-0.154-0.261-0.279
		c-0.047-0.125-0.043-0.261,0.012-0.383c0.646-1.428,2.079-2.351,3.65-2.351c0.569,0,1.122,0.12,1.643,0.355
		c1.429,0.646,2.353,2.078,2.352,3.648v3c0,0.276-0.224,0.5-0.5,0.5h-1.047l-0.455,4.55C21.972,23.806,21.758,24,21.5,24H18.5z"/>
	<path d="M12,5.777c-0.259,0-0.505-0.099-0.692-0.278c-0.004-0.004-2.104-2.193-2.104-2.193c-0.582-0.587-0.725-1.484-0.351-2.23
		c0.331-0.66,0.997-1.07,1.737-1.07c0.303,0,0.595,0.069,0.867,0.206c0.183,0.092,0.349,0.211,0.495,0.355L12,0.615l0.046-0.046
		C12.413,0.202,12.9,0,13.418,0c0.519,0,1.006,0.202,1.372,0.568c0.148,0.148,0.271,0.318,0.364,0.506
		c0.374,0.748,0.228,1.648-0.364,2.24l-2.069,2.156C12.531,5.668,12.275,5.777,12,5.777z M10.589,1.006
		c-0.359,0-0.682,0.199-0.842,0.518C9.566,1.885,9.635,2.321,9.92,2.608L12,4.777l2.076-2.163c0.292-0.293,0.365-0.731,0.184-1.093
		c-0.046-0.091-0.105-0.174-0.177-0.245c-0.177-0.177-0.413-0.275-0.664-0.275c-0.252,0-0.488,0.098-0.665,0.275l-0.4,0.4
		C12.262,1.767,12.133,1.819,12,1.819s-0.262-0.052-0.354-0.144l-0.4-0.4c-0.069-0.068-0.15-0.126-0.238-0.17
		C10.877,1.039,10.736,1.006,10.589,1.006z"/>
</g>
</svg>
