<?xml version="1.0" encoding="utf-8"?>
<!-- Generator: Adobe Illustrator 22.1.0, SVG Export Plug-In . SVG Version: 6.00 Build 0)  -->
<svg version="1.1" id="Layer_1" xmlns="http://www.w3.org/2000/svg" xmlns:xlink="http://www.w3.org/1999/xlink" x="0px" y="0px"
	 viewBox="0 0 24 24" style="enable-background:new 0 0 24 24;" xml:space="preserve">
<g>
	<title>family-home</title>
	<path d="M20.5,13.001c-1.516,0-2.75-1.234-2.75-2.75s1.234-2.75,2.75-2.75s2.75,1.234,2.75,2.75S22.016,13.001,20.5,13.001z
		 M20.5,8.501c-0.965,0-1.75,0.785-1.75,1.75s0.785,1.75,1.75,1.75s1.75-0.785,1.75-1.75S21.465,8.501,20.5,8.501z"/>
	<path d="M19.5,24c-0.255,0-0.469-0.191-0.497-0.445L18.552,19.5H17.5c-0.276,0-0.5-0.224-0.5-0.5v-2.5c0-1.93,1.57-3.5,3.5-3.5
		s3.5,1.57,3.5,3.5V19c0,0.276-0.224,0.5-0.5,0.5h-1.052l-0.451,4.055C21.969,23.809,21.755,24,21.5,24H19.5z M21.052,23
		l0.451-4.055C21.531,18.692,21.745,18.5,22,18.5h1v-2c0-1.378-1.122-2.5-2.5-2.5S18,15.122,18,16.5v2h1
		c0.255,0,0.469,0.191,0.497,0.445L19.948,23H21.052z"/>
	<path d="M3.5,13.001c-1.516,0-2.75-1.234-2.75-2.75s1.234-2.75,2.75-2.75s2.75,1.234,2.75,2.75S5.016,13.001,3.5,13.001z
		 M3.5,8.501c-0.965,0-1.75,0.785-1.75,1.75s0.785,1.75,1.75,1.75s1.75-0.785,1.75-1.75S4.465,8.501,3.5,8.501z"/>
	<path d="M2.5,24c-0.255,0-0.469-0.191-0.497-0.445L1.553,19.5H0.5C0.224,19.5,0,19.276,0,19v-2.5C0,14.57,1.57,13,3.5,13
		S7,14.57,7,16.5V19c0,0.276-0.224,0.5-0.5,0.5H5.448l-0.451,4.055C4.969,23.809,4.755,24,4.5,24H2.5z M4.053,23l0.451-4.055
		C4.531,18.692,4.745,18.5,5,18.5h1v-2C6,15.122,4.879,14,3.5,14S1,15.122,1,16.5v2h1c0.255,0,0.469,0.191,0.497,0.445L2.948,23
		H4.053z"/>
	<path d="M12,11.5c-1.792,0-3.25-1.458-3.25-3.25S10.208,5,12,5c1.792,0,3.25,1.458,3.25,3.25S13.792,11.5,12,11.5z M12,6
		C10.76,6,9.75,7.01,9.75,8.25S10.76,10.5,12,10.5c1.241,0,2.25-1.009,2.25-2.25S13.241,6,12,6z"/>
	<path d="M10.5,24c-0.258,0-0.477-0.201-0.498-0.458L9.623,19H8.5C8.224,19,8,18.776,8,18.5v-3c0-2.206,1.794-4,4-4s4,1.794,4,4v3
		c0,0.276-0.224,0.5-0.5,0.5h-1.123l-0.379,4.542C13.977,23.799,13.758,24,13.5,24H10.5z M13.04,23l0.379-4.542
		C13.44,18.202,13.659,18,13.917,18H15v-2.5c0-1.654-1.346-3-3-3c-1.654,0-3,1.346-3,3V18h1.083c0.258,0,0.477,0.201,0.498,0.458
		L10.96,23H13.04z"/>
	<path d="M0.5,7C0.315,7,0.146,6.899,0.059,6.736c-0.063-0.118-0.076-0.253-0.037-0.381c0.039-0.128,0.125-0.233,0.243-0.296
		l11.037-5.887C11.518,0.059,11.759,0,12.001,0c0.241,0,0.481,0.059,0.694,0.17l11.041,5.889c0.118,0.063,0.204,0.168,0.243,0.296
		c0.039,0.128,0.026,0.263-0.037,0.381C23.854,6.899,23.685,7,23.5,7c-0.081,0-0.163-0.02-0.235-0.059L12.228,1.055
		C12.16,1.019,12.08,1,12.001,1c-0.08,0-0.161,0.02-0.232,0.057L0.735,6.942C0.663,6.98,0.582,7,0.5,7z"/>
</g>
</svg>
