<?xml version="1.0" encoding="utf-8"?>
<!-- Generator: Adobe Illustrator 22.1.0, SVG Export Plug-In . SVG Version: 6.00 Build 0)  -->
<svg version="1.1" id="Layer_1" xmlns="http://www.w3.org/2000/svg" xmlns:xlink="http://www.w3.org/1999/xlink" x="0px" y="0px"
	 viewBox="0 0 24 24" style="enable-background:new 0 0 24 24;" xml:space="preserve">
<g>
	<title>family-umbrella-protect</title>
	<path d="M6,19.5c-1.93,0-3.5-1.57-3.5-3.5c0-0.604,0.159-1.201,0.461-1.73c0.011-0.023,0.023-0.039,0.029-0.049
		C3.619,13.16,4.773,12.5,6,12.5c1.743,0,3.233,1.304,3.465,3.033c0.001,0.005,0.005,0.021,0.006,0.042
		C9.491,15.731,9.5,15.87,9.5,16C9.5,17.93,7.93,19.5,6,19.5z M3.599,15.308C3.533,15.533,3.5,15.764,3.5,16
		c0,1.378,1.121,2.5,2.5,2.5c1.281,0,2.339-0.968,2.483-2.21c-0.484,0.137-0.977,0.206-1.468,0.206
		C5.769,16.496,4.569,16.076,3.599,15.308z M4.075,14.408c0.814,0.701,1.848,1.084,2.938,1.084c0.472,0,0.935-0.073,1.379-0.218
		C8.076,14.235,7.103,13.5,6,13.5C5.254,13.5,4.549,13.836,4.075,14.408z"/>
	<path d="M12,22.5c-1.516,0-2.75-1.234-2.75-2.75S10.484,17,12,17c0.909,0,1.748,0.45,2.256,1.181
		c0.128-0.386,0.188-0.794,0.175-1.201l0-0.908c0-1.968,1.601-3.569,3.569-3.569s3.569,1.601,3.569,3.569v0.892
		c-0.023,0.686,0.15,1.347,0.5,1.921c0.07,0.114,0.091,0.248,0.059,0.378c-0.031,0.13-0.112,0.24-0.226,0.309
		c-0.078,0.048-0.168,0.073-0.26,0.073c-0.174,0-0.337-0.092-0.427-0.24c-0.254-0.416-0.436-0.872-0.541-1.346
		c-0.523,0.793-1.38,1.327-2.354,1.424c-0.108,0.011-0.216,0.016-0.322,0.016c-1.082,0-2.086-0.564-2.671-1.442
		c-0.105,0.475-0.287,0.931-0.542,1.349c-0.015,0.024-0.031,0.047-0.051,0.068c0.011,0.097,0.016,0.189,0.016,0.277
		C14.75,21.266,13.516,22.5,12,22.5z M12,18c-0.965,0-1.75,0.785-1.75,1.75S11.035,21.5,12,21.5c0.965,0,1.75-0.785,1.75-1.75
		S12.965,18,12,18z M15.899,16.968c0.29,0.9,1.136,1.53,2.1,1.53c0.073,0,0.147-0.004,0.221-0.011
		c0.871-0.087,1.612-0.698,1.88-1.519c-0.79-0.171-1.508-0.54-2.101-1.081C17.408,16.427,16.69,16.797,15.899,16.968z M18,13.502
		c-1.405,0-2.551,1.134-2.569,2.535c0.854-0.121,1.624-0.538,2.19-1.193c0.093-0.107,0.231-0.169,0.378-0.169
		s0.285,0.062,0.378,0.169c0.566,0.655,1.336,1.073,2.191,1.193C20.551,14.636,19.405,13.502,18,13.502z"/>
	<path d="M14.247,24c-0.141,0-0.277-0.06-0.371-0.165c-0.48-0.53-1.167-0.834-1.885-0.834c-0.632,0-1.237,0.233-1.704,0.656
		c-0.062,0.056-0.122,0.116-0.178,0.178C10.014,23.94,9.879,24,9.738,24c-0.124,0-0.243-0.046-0.335-0.13
		c-0.099-0.089-0.157-0.212-0.164-0.345c-0.007-0.134,0.039-0.262,0.129-0.361c0.078-0.087,0.162-0.17,0.249-0.249
		c0.651-0.59,1.495-0.914,2.375-0.914c1,0,1.958,0.424,2.627,1.163c0.09,0.099,0.135,0.227,0.129,0.36s-0.065,0.256-0.164,0.346
		C14.491,23.954,14.372,24,14.247,24z"/>
	<path d="M1.229,24c-0.052,0-0.103-0.008-0.152-0.024c-0.126-0.04-0.23-0.127-0.292-0.246c-0.062-0.119-0.073-0.254-0.033-0.381
		c0.029-0.093,0.061-0.184,0.095-0.275c0.516-1.377,1.537-2.471,2.875-3.08c0.725-0.33,1.491-0.497,2.277-0.497
		c0.658,0,1.309,0.119,1.934,0.353c0.125,0.047,0.224,0.139,0.28,0.261c0.055,0.122,0.06,0.258,0.013,0.383
		c-0.072,0.194-0.261,0.324-0.468,0.324c0,0,0,0,0,0c-0.06,0-0.118-0.011-0.175-0.031C7.071,20.595,6.539,20.498,6,20.498
		c-0.643,0-1.27,0.137-1.864,0.407c-1.095,0.498-1.931,1.393-2.353,2.52c-0.028,0.075-0.054,0.15-0.078,0.226
		C1.64,23.86,1.448,24,1.229,24z"/>
	<path d="M22.771,24c-0.219,0-0.411-0.14-0.477-0.35c-0.024-0.075-0.05-0.151-0.078-0.226c-0.422-1.127-1.258-2.022-2.353-2.52
		c-0.593-0.27-1.22-0.407-1.863-0.407c-0.539,0-1.071,0.097-1.583,0.289c-0.056,0.021-0.115,0.032-0.175,0.032
		c-0.208,0-0.396-0.131-0.469-0.325c-0.047-0.125-0.042-0.261,0.013-0.382c0.055-0.122,0.155-0.215,0.28-0.261
		c0.624-0.234,1.275-0.353,1.933-0.353c0.786,0,1.552,0.167,2.278,0.497c1.338,0.609,2.359,1.703,2.875,3.08
		c0.034,0.091,0.066,0.183,0.095,0.276c0.04,0.127,0.029,0.262-0.033,0.381c-0.062,0.119-0.166,0.206-0.293,0.246
		C22.874,23.992,22.823,24,22.771,24z"/>
	<path d="M12,15.5c-0.276,0-0.5-0.224-0.5-0.5v-4c0-0.398-0.997-1-2.5-1s-2.5,0.602-2.5,1c0,0.276-0.224,0.5-0.5,0.5
		S5.5,11.276,5.5,11c0-0.472-0.962-1-2.25-1S1,10.528,1,11c0,0.276-0.224,0.5-0.5,0.5S0,11.276,0,11c0-5.329,5.137-9.768,11.5-9.988
		V0.5C11.5,0.224,11.724,0,12,0c0.276,0,0.5,0.224,0.5,0.5v0.512C18.864,1.232,24,5.671,24,11c0,0.276-0.224,0.5-0.5,0.5
		S23,11.276,23,11c0-0.472-0.962-1-2.25-1s-2.25,0.528-2.25,1c0,0.276-0.224,0.5-0.5,0.5s-0.5-0.224-0.5-0.5c0-0.398-0.997-1-2.5-1
		s-2.5,0.602-2.5,1v4C12.5,15.276,12.276,15.5,12,15.5z M9,9c1.27,0,2.384,0.356,3,0.943C12.616,9.356,13.73,9,15,9
		c1.256,0,2.363,0.35,2.983,0.927C18.56,9.349,19.586,9,20.75,9c0.784,0,1.515,0.16,2.087,0.448C21.929,5.165,17.384,2,12,2
		S2.071,5.165,1.163,9.448C1.735,9.16,2.466,9,3.25,9c1.164,0,2.19,0.349,2.767,0.927C6.637,9.35,7.744,9,9,9z"/>
</g>
</svg>
