<?xml version="1.0" encoding="utf-8"?>
<!-- Generator: Adobe Illustrator 22.1.0, SVG Export Plug-In . SVG Version: 6.00 Build 0)  -->
<svg version="1.1" id="Light" xmlns="http://www.w3.org/2000/svg" xmlns:xlink="http://www.w3.org/1999/xlink" x="0px" y="0px"
	 viewBox="0 0 24 24" style="enable-background:new 0 0 24 24;" xml:space="preserve">
<g>
	<title>bandage-leg-hanging</title>
	<path d="M0.5,24C0.224,24,0,23.775,0,23.5S0.224,23,0.5,23h21.001c0.827,0,1.5-0.673,1.5-1.5v-6.264
		c0-0.13-0.106-0.236-0.237-0.236c-0.225,0-0.423,0.152-0.482,0.368l-1.083,3.969c-0.178,0.65-0.773,1.104-1.447,1.104
		c-0.038,0-0.075-0.001-0.113-0.004L0.463,18.998c-0.133-0.01-0.255-0.071-0.342-0.173c-0.087-0.101-0.13-0.23-0.12-0.364
		C0.021,18.199,0.235,18,0.5,18c0.006,0,0.031,0.001,0.036,0.001l19.178,1.438c0.013,0.001,0.025,0.001,0.038,0.001
		c0.225,0,0.423-0.151,0.482-0.368l1.083-3.968C21.495,14.454,22.09,14,22.765,14c0.68,0.001,1.235,0.555,1.236,1.235V21.5
		c0,1.378-1.122,2.5-2.5,2.5H0.5z"/>
	<path d="M12.495,18.044c-0.668-0.001-1.296-0.263-1.767-0.736c-0.093-0.094-0.181-0.197-0.261-0.31
		c-0.49-0.011-0.932-0.258-1.2-0.66l-3.204,0.839c-0.043,0.011-0.085,0.016-0.127,0.016c-0.227,0-0.426-0.154-0.484-0.374
		c-0.07-0.266,0.09-0.54,0.357-0.61l3.121-0.817L8.076,12.12l-7.488,1.334C0.559,13.46,0.529,13.463,0.5,13.463
		c-0.242,0-0.449-0.173-0.492-0.412c-0.024-0.132,0.006-0.264,0.082-0.374c0.076-0.11,0.191-0.183,0.323-0.206L8.1,11.1
		c0.171-0.454,0.548-0.801,1.018-0.924L10,9.945V0.5C10,0.224,10.224,0,10.5,0S11,0.224,11,0.5v15.04
		c-0.001,0.401,0.154,0.779,0.437,1.063c0.283,0.284,0.659,0.441,1.059,0.442c0.116-0.001,0.219-0.012,0.318-0.033l2.616-0.561
		c0.392-0.084,0.728-0.315,0.945-0.652c0.218-0.336,0.291-0.738,0.208-1.13l-1.191-5.452c-0.002-0.005-1.881-8.61-1.881-8.61
		c-0.059-0.269,0.112-0.536,0.381-0.595c0.035-0.008,0.072-0.012,0.108-0.012c0.233,0,0.438,0.166,0.488,0.394l1.764,8.075
		l1.206-0.316c0,0-0.458-1.75-0.466-1.782c-0.172-0.713-0.056-1.451,0.327-2.078s0.988-1.067,1.702-1.239
		c0.214-0.052,0.432-0.078,0.649-0.078c0.502,0,0.997,0.14,1.43,0.405c0.627,0.383,1.067,0.987,1.239,1.702l1.578,6.033
		c0.085,0.323,0.104,0.655,0.057,0.985c-0.035,0.245-0.248,0.43-0.495,0.43c-0.023,0-0.047-0.001-0.071-0.005
		c-0.272-0.039-0.463-0.292-0.425-0.565c0.028-0.198,0.017-0.397-0.034-0.591l-0.558-2.134l-3.877-0.996l0.038,0.145
		c0.034,0.129,0.015,0.264-0.052,0.379c-0.018,0.031-0.039,0.06-0.063,0.086l2.938,3.335c0.088,0.1,0.132,0.229,0.124,0.362
		c-0.009,0.134-0.068,0.256-0.169,0.344c-0.091,0.08-0.208,0.125-0.33,0.125c-0.144,0-0.281-0.062-0.375-0.17l-3.211-3.646
		l-0.947,0.248l1.068,4.889l2.322-0.607c0.042-0.011,0.084-0.016,0.125-0.016c0.228,0,0.427,0.153,0.485,0.373
		c0.07,0.267-0.09,0.541-0.357,0.611l-2.52,0.658c-0.052,0.35-0.18,0.688-0.374,0.988c-0.363,0.561-0.922,0.946-1.575,1.086
		l-2.616,0.561c-0.172,0.037-0.349,0.056-0.525,0.056H12.495z M9.37,11.144c-0.266,0.07-0.426,0.343-0.356,0.61L10,15.528v-4.549
		L9.37,11.144z M22.103,8.128L21.37,5.326c-0.111-0.462-0.392-0.848-0.79-1.092c-0.276-0.169-0.59-0.258-0.909-0.258
		c-0.138,0-0.278,0.017-0.414,0.05c-0.454,0.109-0.839,0.389-1.083,0.788c-0.244,0.399-0.318,0.869-0.208,1.323l0.26,0.994
		L22.103,8.128z"/>
</g>
</svg>
