<?xml version="1.0" encoding="utf-8"?>
<!-- Generator: Adobe Illustrator 22.1.0, SVG Export Plug-In . SVG Version: 6.00 Build 0)  -->
<svg version="1.1" id="Light" xmlns="http://www.w3.org/2000/svg" xmlns:xlink="http://www.w3.org/1999/xlink" x="0px" y="0px"
	 viewBox="0 0 24 24" style="enable-background:new 0 0 24 24;" xml:space="preserve">
<g>
	<title>lantern</title>
	<path d="M5.014,23.999c-0.551,0-1-0.448-1-1v-1c0-0.552,0.449-1,1-1h0.91l-1.833-11H3.014c-0.551,0-1-0.449-1-1v-1
		c0-0.551,0.449-1,1-1h1.325l4.863-3.89c0.088-0.071,0.199-0.11,0.312-0.11h0.055c-0.124-0.598-0.027-1.221,0.28-1.752
		c0.334-0.578,0.874-0.991,1.519-1.164c0.213-0.057,0.431-0.086,0.649-0.086c0.435,0,0.866,0.116,1.248,0.337
		c0.941,0.544,1.411,1.625,1.197,2.665h0.052c0.113,0,0.224,0.039,0.312,0.109l4.863,3.891h1.325c0.552,0,1,0.449,1,1v1
		c0,0.551-0.448,1-1,1h-1.077l-1.833,11h0.91c0.552,0,1,0.448,1,1v1c0,0.552-0.448,1-1,1H5.014z M5.014,22.999h14v-1h-14
		L5.014,22.999z M17.091,20.999l1.833-11H5.104l1.833,11h2.438c-0.854-0.753-1.362-1.845-1.362-3
		c-0.019-1.474,0.846-2.807,2.205-3.393c0.006-0.003,0.041-0.018,0.077-0.03c0.075-0.024,0.151-0.036,0.229-0.036
		c0.328,0,0.615,0.21,0.716,0.522c0.04,0.1,0.093,0.201,0.157,0.297c0.226-0.851,0.077-1.762-0.425-2.507
		c-0.138-0.205-0.167-0.465-0.076-0.695c0.114-0.289,0.388-0.476,0.7-0.476c0.094,0,0.186,0.018,0.274,0.052
		c0.005,0.002,0.019,0.008,0.023,0.01c2.467,1.094,4.085,3.547,4.121,6.249c0,1.159-0.508,2.253-1.362,3.006H17.091z M10.408,15.641
		c-0.867,0.455-1.407,1.354-1.394,2.352c0,1.659,1.346,3.007,3,3.007s3-1.346,3-3c-0.027-2.035-1.109-3.91-2.816-4.967
		c0.452,1.108,0.399,2.372-0.176,3.454c-0.067,0.127-0.186,0.219-0.326,0.252c-0.038,0.009-0.077,0.014-0.116,0.014
		c-0.104,0-0.203-0.031-0.288-0.091C10.916,16.396,10.614,16.047,10.408,15.641z M3.014,8.999h18v-1h-18L3.014,8.999z M18.089,6.999
		l-3.75-3H9.689l-3.75,3H18.089z M13.427,2.999c0.103-0.286,0.115-0.59,0.036-0.888c-0.104-0.387-0.352-0.711-0.698-0.911
		c-0.229-0.132-0.487-0.202-0.748-0.202c-0.131,0-0.262,0.017-0.39,0.052c-0.387,0.103-0.711,0.351-0.911,0.698
		c-0.22,0.381-0.259,0.839-0.111,1.252H13.427z"/>
</g>
</svg>
