<?xml version="1.0" encoding="utf-8"?>
<!-- Generator: Adobe Illustrator 22.1.0, SVG Export Plug-In . SVG Version: 6.00 Build 0)  -->
<svg version="1.1" id="Light" xmlns="http://www.w3.org/2000/svg" xmlns:xlink="http://www.w3.org/1999/xlink" x="0px" y="0px"
	 viewBox="0 0 24 24" style="enable-background:new 0 0 24 24;" xml:space="preserve">
<g>
	<title>match-fire-1</title>
	<path d="M12.031,15.502c-0.185,0-0.372-0.015-0.557-0.043c-1.97-0.306-3.323-2.158-3.017-4.128
		c0.005-0.029,0.012-0.057,0.021-0.084c0.312-0.912,0.838-1.751,1.521-2.429c0.094-0.092,0.222-0.145,0.353-0.145
		c0.026,0,0.052,0.002,0.078,0.006c0.158,0.026,0.295,0.126,0.367,0.268c0.085,0.169,0.247,0.486,0.406,0.789
		c0.581-1.202,0.361-2.723,0.224-3.668l-0.012-0.085c-0.027-0.19,0.054-0.375,0.213-0.484c0.084-0.057,0.182-0.087,0.283-0.087
		c0.086,0,0.171,0.022,0.246,0.065c2.479,1.403,3.833,4.133,3.448,6.956C15.331,14.184,13.796,15.502,12.031,15.502L12.031,15.502z
		 M9.439,11.527c-0.195,1.407,0.782,2.725,2.189,2.943c0.134,0.021,0.27,0.032,0.405,0.032c1.276,0,2.385-0.952,2.581-2.214
		c0.279-2.042-0.508-4.039-2.071-5.335c0.111,1.272,0.037,2.874-1,4.075c-0.095,0.11-0.232,0.173-0.375,0.173
		c-0.007,0-0.033-0.001-0.04-0.002c-0.151-0.01-0.295-0.094-0.381-0.224c-0.099-0.151-0.307-0.539-0.506-0.923
		C9.898,10.499,9.624,11.002,9.439,11.527z"/>
	<path d="M13.514,24c-0.276,0-0.5-0.224-0.5-0.5v-5.077c-0.33,0.051-0.665,0.077-1,0.077s-0.67-0.026-1-0.077V23.5
		c0,0.276-0.224,0.5-0.5,0.5s-0.5-0.224-0.5-0.5v-5.317c-2.659-0.862-4.5-3.378-4.5-6.183c0.09-2.37,1.026-4.619,2.635-6.341
		C8.241,5.56,8.37,5.502,8.505,5.5c0.157,0.008,0.273,0.057,0.363,0.147l0.528,0.528C9.55,5.21,9.403,2.876,9.021,0.582
		C8.997,0.437,9.037,0.289,9.132,0.177C9.228,0.064,9.367,0,9.514,0c4.29,0,9,6.28,9,12c0,2.805-1.841,5.321-4.5,6.183V23.5
		C14.014,23.776,13.789,24,13.514,24z M8.537,6.73c-1.233,1.487-1.95,3.355-2.023,5.289c0,3.018,2.468,5.481,5.5,5.481
		c3.033,0,5.5-2.467,5.5-5.5c0-4.81-3.814-10.375-7.407-10.951c0.411,2.71,0.65,5.889-0.37,6.399C9.668,7.482,9.591,7.5,9.514,7.5
		c-0.134,0-0.259-0.052-0.354-0.146L8.537,6.73z"/>
</g>
</svg>
