<?xml version="1.0" encoding="utf-8"?>
<!-- Generator: Adobe Illustrator 22.1.0, SVG Export Plug-In . SVG Version: 6.00 Build 0)  -->
<svg version="1.1" id="Light" xmlns="http://www.w3.org/2000/svg" xmlns:xlink="http://www.w3.org/1999/xlink" x="0px" y="0px"
	 viewBox="0 0 24 24" style="enable-background:new 0 0 24 24;" xml:space="preserve">
<g>
	<title>match-fire</title>
	<path d="M8.425,22.546c-4.638,0-8.411-3.773-8.411-8.411C0.157,8.225,4.236,3.023,9.933,1.481c0.065-0.018,0.132-0.026,0.199-0.026
		c0.344,0,0.648,0.232,0.738,0.564c0.075,0.276-0.009,0.568-0.22,0.762C9.627,3.658,9,4.922,8.924,6.253
		c-0.002,1.15,0.428,2.302,1.187,3.193c0.575-0.698,0.972-1.529,1.154-2.419c0.074-0.354,0.389-0.609,0.748-0.609
		c0.052,0,0.105,0.005,0.156,0.016c0.071,0.015,0.138,0.04,0.201,0.073c1.505,0.837,2.706,2.078,3.492,3.602l7.333-6.035
		c0.09-0.074,0.202-0.114,0.318-0.114c0.15,0,0.291,0.066,0.386,0.182c0.175,0.213,0.145,0.529-0.068,0.704l-7.547,6.211
		c0.372,0.993,0.557,2.028,0.552,3.08C16.836,18.774,13.062,22.546,8.425,22.546z M9.304,2.724
		C4.501,4.426,1.138,8.998,1.013,14.147c0,4.077,3.325,7.399,7.411,7.399s7.411-3.325,7.411-7.411c0.004-0.815-0.122-1.62-0.375-2.4
		l-3.64,2.995l0.801,1.024c0.151,0.193,0.141,0.464-0.024,0.646l-1.721,1.882c-0.188,0.202-0.404,0.371-0.642,0.504
		C9.849,19,9.414,19.113,8.974,19.113c-0.946,0-1.818-0.512-2.276-1.335C6.361,17.171,6.28,16.468,6.47,15.8
		c0.191-0.668,0.63-1.221,1.236-1.559c0.001-0.001,2.243-1.224,2.243-1.224c0.074-0.04,0.156-0.061,0.24-0.061
		c0.155,0,0.299,0.07,0.394,0.192l0.622,0.794l3.866-3.182c-0.644-1.337-1.636-2.438-2.892-3.208
		c-0.302,1.133-0.887,2.158-1.704,2.98c-0.094,0.095-0.22,0.148-0.355,0.148c-0.129,0-0.251-0.049-0.344-0.138
		C8.596,9.424,7.922,7.849,7.925,6.223C7.998,4.929,8.49,3.699,9.304,2.724z M8.19,15.117c-0.371,0.207-0.641,0.547-0.758,0.958
		c-0.117,0.411-0.067,0.843,0.141,1.216c0.282,0.507,0.819,0.822,1.401,0.822c0.27,0,0.538-0.07,0.775-0.201
		c0.146-0.082,0.279-0.185,0.393-0.308l1.432-1.566l-1.518-1.939L8.19,15.117z"/>
</g>
</svg>
