<?xml version="1.0" encoding="utf-8"?>
<!-- Generator: Adobe Illustrator 22.1.0, SVG Export Plug-In . SVG Version: 6.00 Build 0)  -->
<svg version="1.1" id="Layer_1" xmlns="http://www.w3.org/2000/svg" xmlns:xlink="http://www.w3.org/1999/xlink" x="0px" y="0px"
	 viewBox="0 0 24 24" style="enable-background:new 0 0 24 24;" xml:space="preserve">
<g>
	<title>analytics-graph-bar</title>
	<path d="M0.504,24c-0.276,0-0.5-0.224-0.5-0.5s0.224-0.5,0.5-0.5H1v-4c0-0.552,0.449-1,1-1h2c0.551,0,1,0.448,1,1v4h2v-9
		c0-0.552,0.449-1,1-1h2c0.551,0,1,0.448,1,1v9h2v-7c0-0.552,0.448-1,1-1h2c0.552,0,1,0.448,1,1v7h2V9c0-0.551,0.448-1,1-1h2
		c0.552,0,1,0.449,1,1v14h0.504c0.276,0,0.5,0.224,0.5,0.5s-0.224,0.5-0.5,0.5H0.504z M22,23V9h-2l0,14H22z M16,23v-7h-2l0,7H16z
		 M10,23v-9H8l0,9H10z M4,23v-4H2l0,4H4z"/>
	<path d="M3.004,13.5c-1.103,0-2-0.897-2-2s0.897-2,2-2c0.42,0,0.827,0.133,1.166,0.378l3.028-2.524
		C7.07,7.087,7.004,6.796,7.004,6.5c0-1.103,0.897-2,2-2s2,0.897,2,2c0,0.046-0.002,0.091-0.005,0.138l2.328,0.776
		C13.694,6.845,14.319,6.5,15.004,6.5c0.306,0,0.606,0.071,0.879,0.206l3.31-3.861C19.069,2.58,19.004,2.291,19.004,2
		c0-1.103,0.897-2,2-2s2,0.897,2,2s-0.897,2-2,2c-0.42,0-0.824-0.132-1.163-0.375l-3.199,3.732c0.235,0.335,0.362,0.734,0.362,1.143
		c0,1.103-0.897,2-2,2s-2-0.897-2-2c0-0.046,0.002-0.092,0.005-0.139l-2.328-0.776C10.314,8.155,9.689,8.5,9.004,8.5
		c-0.42,0-0.826-0.133-1.166-0.378L4.81,10.646c0.127,0.267,0.194,0.558,0.194,0.854C5.004,12.603,4.107,13.5,3.004,13.5z
		 M3.004,10.5c-0.551,0-1,0.449-1,1s0.449,1,1,1s1-0.449,1-1S3.555,10.5,3.004,10.5z M15.004,7.5c-0.552,0-1,0.449-1,1s0.448,1,1,1
		s1-0.449,1-1S15.555,7.5,15.004,7.5z M9.004,5.5c-0.551,0-1,0.449-1,1s0.449,1,1,1s1-0.449,1-1S9.555,5.5,9.004,5.5z M21.004,1
		c-0.552,0-1,0.449-1,1s0.448,1,1,1s1-0.449,1-1S21.555,1,21.004,1z"/>
</g>
</svg>
