<?xml version="1.0" encoding="utf-8"?>
<!-- Generator: Adobe Illustrator 22.1.0, SVG Export Plug-In . SVG Version: 6.00 Build 0)  -->
<svg version="1.1" id="Layer_1" xmlns="http://www.w3.org/2000/svg" xmlns:xlink="http://www.w3.org/1999/xlink" x="0px" y="0px"
	 viewBox="0 0 24 24" style="enable-background:new 0 0 24 24;" xml:space="preserve">
<g>
	<title>analytics-graph-lines</title>
	<path d="M1,23.75c-0.498,0-0.92-0.371-0.987-0.866c-0.005-0.028-0.006-0.05-0.007-0.065C0.002,22.792,0,22.771,0,22.75v-22
		c0-0.276,0.224-0.5,0.5-0.5S1,0.474,1,0.75v10.122l6.508-3.591c0.792-0.383,1.66-0.583,2.521-0.583
		c0.507,0,1.013,0.068,1.503,0.201l3.733,1.244c0.222,0.061,0.465,0.094,0.708,0.094c0.742,0,1.464-0.308,1.98-0.845l5.169-5.97
		C23.216,1.313,23.354,1.25,23.5,1.25c0.06,0,0.118,0.01,0.175,0.031C23.869,1.354,24,1.542,24,1.75v21c0,0.552-0.448,1-1,1H1z
		 M23,22.75v-6.368l-5.932,1.399c-1.074,0.222-2.168,0.334-3.258,0.334c-0.273,0-0.551-0.007-0.824-0.021l-2.525-0.195
		c-0.039-0.001-0.091-0.001-0.143-0.001c-1.128,0-2.235,0.316-3.199,0.915l-5.691,3.935L23,22.75z M1,21.827l5.571-3.852
		c1.14-0.708,2.439-1.078,3.768-1.078c0.058,0,0.116,0.001,0.174,0.002l2.538,0.196c0.249,0.013,0.507,0.019,0.763,0.019
		c1.019,0,2.042-0.104,3.038-0.311L23,15.354v-4.865l-5.96,2.46c-1.299,0.487-2.65,0.756-4.024,0.8l-2.516,0
		c-1.206,0.05-2.425,0.37-3.516,0.926L1,18.042V21.827z M1,16.895l5.512-3.1c1.233-0.629,2.602-0.989,3.968-1.044l2.52,0
		c1.251-0.041,2.49-0.287,3.673-0.731L23,9.407V3.091l-4.309,4.975c-0.717,0.747-1.705,1.169-2.719,1.169
		c-0.337,0-0.673-0.046-0.999-0.136l-3.731-1.244c-0.385-0.104-0.797-0.159-1.213-0.159c-0.71,0-1.423,0.163-2.062,0.472L1,12.014
		V16.895z"/>
</g>
</svg>
