<?xml version="1.0" encoding="utf-8"?>
<!-- Generator: Adobe Illustrator 22.1.0, SVG Export Plug-In . SVG Version: 6.00 Build 0)  -->
<svg version="1.1" id="Layer_1" xmlns="http://www.w3.org/2000/svg" xmlns:xlink="http://www.w3.org/1999/xlink" x="0px" y="0px"
	 viewBox="0 0 24 24" style="enable-background:new 0 0 24 24;" xml:space="preserve">
<g>
	<title>analytics-bars-circle</title>
	<path d="M12.004,24c-6.617,0-12-5.383-12-12c0-6.617,5.383-12,12-12c6.617,0,12,5.383,12,12C24.004,18.617,18.621,24,12.004,24z
		 M12.004,1c-6.065,0-11,4.935-11,11s4.935,11,11,11s11-4.935,11-11S18.069,1,12.004,1z"/>
	<path d="M5.504,18c-0.276,0-0.5-0.224-0.5-0.5v-10c0-0.276,0.224-0.5,0.5-0.5s0.5,0.224,0.5,0.5V17H7v-4c0-0.552,0.449-1,1-1h1
		c0.551,0,1,0.448,1,1v4h1V8c0-0.551,0.449-1,1-1h1c0.552,0,1,0.449,1,1v9h1v-7c0-0.551,0.448-1,1-1h1c0.552,0,1,0.449,1,1v7h0.535
		c0.276,0,0.5,0.224,0.5,0.5s-0.224,0.5-0.5,0.5H5.504z M17,17v-7h-1l0,7H17z M13,17V8h-1l0,9H13z M9,17v-4H8l0,4H9z"/>
</g>
</svg>
