<?xml version="1.0" encoding="utf-8"?>
<!-- Generator: Adobe Illustrator 22.1.0, SVG Export Plug-In . SVG Version: 6.00 Build 0)  -->
<svg version="1.1" id="Layer_1" xmlns="http://www.w3.org/2000/svg" xmlns:xlink="http://www.w3.org/1999/xlink" x="0px" y="0px"
	 viewBox="0 0 24 24" style="enable-background:new 0 0 24 24;" xml:space="preserve">
<g>
	<title>analytics-bars-3d</title>
	<path d="M3.997,23.746c-0.239,0-0.471-0.066-0.672-0.192L1.124,22.02c-0.375-0.292-0.598-0.715-0.623-1.168L0.5,13.086
		c0.026-0.479,0.25-0.903,0.616-1.177l2.191-1.462c0.221-0.131,0.458-0.197,0.697-0.197c0.235,0,0.465,0.063,0.667,0.183
		c0,0,2.213,1.473,2.216,1.475c0.171,0.129,0.308,0.287,0.413,0.472c0.001,0.002,0.003,0.003,0.004,0.005
		c0.01,0.015,0.019,0.033,0.026,0.051c0.104,0.206,0.158,0.41,0.169,0.623L7.5,20.824c-0.026,0.475-0.245,0.899-0.601,1.179
		l-2.203,1.538C4.478,23.677,4.24,23.746,3.997,23.746z M1.5,20.824c0.008,0.14,0.09,0.292,0.218,0.392l1.786,1.245v-7.608
		L1.5,13.516L1.5,20.824z M4.504,22.456l1.8-1.257c0.11-0.087,0.188-0.241,0.197-0.404L6.5,13.522l-1.996,1.331V22.456z
		 M4.004,13.984l2.099-1.399l-1.964-1.307c-0.031-0.018-0.082-0.031-0.135-0.031c-0.058,0-0.115,0.016-0.165,0.045l-1.935,1.291
		L4.004,13.984z"/>
	<path d="M11.997,23.746c-0.239,0-0.471-0.066-0.672-0.192L9.124,22.02c-0.375-0.292-0.598-0.715-0.623-1.168L8.5,7.586
		C8.528,7.104,8.754,6.68,9.122,6.407l2.189-1.461c0.221-0.131,0.458-0.197,0.697-0.197c0.234,0,0.465,0.063,0.667,0.183
		c0,0,2.209,1.473,2.212,1.475c0.171,0.13,0.309,0.288,0.413,0.472c0.001,0.002,0.002,0.003,0.004,0.005
		c0.009,0.013,0.017,0.029,0.023,0.045c0.104,0.203,0.16,0.412,0.172,0.629l0,13.265c-0.027,0.475-0.245,0.899-0.601,1.179
		l-2.203,1.538C12.478,23.677,12.24,23.746,11.997,23.746z M9.5,20.824c0.008,0.14,0.09,0.292,0.218,0.392l1.786,1.245V9.353
		L9.5,8.016L9.5,20.824z M12.504,22.456l1.8-1.257c0.109-0.087,0.188-0.242,0.197-0.405L14.5,8.022l-1.996,1.331V22.456z
		 M12.004,8.484l2.099-1.399l-1.96-1.307c-0.031-0.018-0.081-0.031-0.135-0.031c-0.058,0-0.115,0.016-0.165,0.045L9.906,7.085
		L12.004,8.484z"/>
	<path d="M19.997,23.746c-0.239,0-0.471-0.066-0.672-0.192l-2.201-1.535c-0.375-0.293-0.598-0.716-0.623-1.168L16.5,3.086
		c0.026-0.479,0.25-0.903,0.616-1.177l2.195-1.462c0.22-0.131,0.458-0.197,0.697-0.197c0.235,0,0.465,0.063,0.667,0.183
		c0,0,2.209,1.473,2.212,1.475c0.171,0.13,0.309,0.288,0.413,0.472c0.001,0.002,0.002,0.004,0.004,0.005
		c0.009,0.013,0.017,0.029,0.024,0.044c0.104,0.204,0.16,0.412,0.172,0.629l0,17.765c-0.027,0.475-0.245,0.899-0.601,1.179
		l-2.203,1.538C20.478,23.677,20.24,23.746,19.997,23.746z M17.5,20.824c0.009,0.14,0.09,0.292,0.219,0.392l1.785,1.245V4.853
		L17.5,3.516L17.5,20.824z M20.504,22.456l1.8-1.257c0.109-0.087,0.188-0.242,0.197-0.405L22.5,3.522l-1.996,1.331V22.456z
		 M20.004,3.984l2.099-1.399l-1.96-1.307c-0.031-0.018-0.081-0.031-0.135-0.031c-0.058,0-0.115,0.016-0.165,0.045l-1.939,1.292
		L20.004,3.984z"/>
</g>
</svg>
