<?xml version="1.0" encoding="utf-8"?>
<!-- Generator: Adobe Illustrator 22.1.0, SVG Export Plug-In . SVG Version: 6.00 Build 0)  -->
<svg version="1.1" id="Layer_1" xmlns="http://www.w3.org/2000/svg" xmlns:xlink="http://www.w3.org/1999/xlink" x="0px" y="0px"
	 viewBox="0 0 24 24" style="enable-background:new 0 0 24 24;" xml:space="preserve">
<g>
	<title>analytics-pie</title>
	<path d="M12.004,24c-6.617,0-12-5.383-12-12c0-6.617,5.383-12,12-12c6.617,0,12,5.383,12,12C24.004,18.617,18.621,24,12.004,24z
		 M12.004,1c-6.065,0-11,4.935-11,11s4.935,11,11,11s11-4.935,11-11S18.069,1,12.004,1z"/>
	<path d="M12.004,19c-3.86,0-7-3.14-7-7c0-2.552,1.391-4.901,3.633-6.135C8.645,5.859,8.652,5.854,8.66,5.849
		c0.01-0.006,0.023-0.012,0.035-0.017C9.703,5.289,10.849,5,12.004,5c3.86,0,7,3.14,7,7c0,0.148-0.006,0.304-0.019,0.492
		c0,0.003,0,0.005,0,0.008c0,0.014-0.002,0.031-0.004,0.046c-0.237,3.036-2.47,5.614-5.44,6.282
		c-0.015,0.005-0.031,0.01-0.043,0.012c-0.009,0.001-0.015,0.002-0.021,0.003C12.99,18.947,12.495,19,12.004,19z M8.729,6.976
		C7.042,8.081,6.004,9.982,6.004,12c0,3.308,2.692,6,6,6c0.276,0,0.557-0.02,0.837-0.06l-0.857-5.27L8.729,6.976z M13.818,17.719
		c2.124-0.677,3.728-2.523,4.1-4.719h-4.868L13.818,17.719z M18.004,12c0-3.308-2.692-6-6-6c-0.834,0-1.638,0.168-2.395,0.5
		l3.144,5.5H18.004z"/>
</g>
</svg>
