<?xml version="1.0" encoding="utf-8"?>
<!-- Generator: Adobe Illustrator 22.1.0, SVG Export Plug-In . SVG Version: 6.00 Build 0)  -->
<svg version="1.1" id="Layer_1" xmlns="http://www.w3.org/2000/svg" xmlns:xlink="http://www.w3.org/1999/xlink" x="0px" y="0px"
	 viewBox="0 0 24 24" style="enable-background:new 0 0 24 24;" xml:space="preserve">
<g>
	<title>analytics-board-bars</title>
	<path d="M1.504,21c-0.827,0-1.5-0.673-1.5-1.5v-15c0-0.827,0.673-1.5,1.5-1.5h21c0.827,0,1.5,0.673,1.5,1.5v15
		c0,0.827-0.673,1.5-1.5,1.5H1.504z M1.504,4c-0.276,0-0.5,0.224-0.5,0.5v15c0,0.276,0.224,0.5,0.5,0.5h21
		c0.276,0,0.5-0.224,0.5-0.5v-15c0-0.276-0.224-0.5-0.5-0.5H1.504z"/>
	<path d="M4.504,17c-0.276,0-0.5-0.224-0.5-0.5v-2c0-0.276,0.224-0.5,0.5-0.5s0.5,0.224,0.5,0.5v2C5.004,16.776,4.78,17,4.504,17z"
		/>
	<path d="M7.504,17c-0.276,0-0.5-0.224-0.5-0.5v-5c0-0.276,0.224-0.5,0.5-0.5s0.5,0.224,0.5,0.5v5C8.004,16.776,7.78,17,7.504,17z"
		/>
	<path d="M10.504,17c-0.276,0-0.5-0.224-0.5-0.5v-3c0-0.276,0.224-0.5,0.5-0.5s0.5,0.224,0.5,0.5v3
		C11.004,16.776,10.78,17,10.504,17z"/>
	<path d="M19.504,17c-0.276,0-0.5-0.224-0.5-0.5v-7c0-0.276,0.224-0.5,0.5-0.5s0.5,0.224,0.5,0.5v7
		C20.004,16.776,19.78,17,19.504,17z"/>
	<path d="M16.504,17c-0.276,0-0.5-0.224-0.5-0.5V12c0-0.276,0.224-0.5,0.5-0.5s0.5,0.224,0.5,0.5v4.5
		C17.004,16.776,16.78,17,16.504,17z"/>
	<path d="M13.504,17c-0.276,0-0.5-0.224-0.5-0.5v-9c0-0.276,0.224-0.5,0.5-0.5s0.5,0.224,0.5,0.5v9
		C14.004,16.776,13.78,17,13.504,17z"/>
</g>
</svg>
