<?xml version="1.0" encoding="utf-8"?>
<!-- Generator: Adobe Illustrator 22.1.0, SVG Export Plug-In . SVG Version: 6.00 Build 0)  -->
<svg version="1.1" id="Light" xmlns="http://www.w3.org/2000/svg" xmlns:xlink="http://www.w3.org/1999/xlink" x="0px" y="0px"
	 viewBox="0 0 24 24" style="enable-background:new 0 0 24 24;" xml:space="preserve">
<g>
	<title>laboratory-sample</title>
	<path d="M7.5,17c-0.134,0-0.259-0.052-0.354-0.146c-0.195-0.195-0.195-0.512,0-0.707l3.227-3.228
		c-1.018-1.366-0.902-3.32,0.305-4.547l4.6-4.6l-0.707-0.707c-0.094-0.094-0.146-0.22-0.146-0.354s0.052-0.259,0.146-0.354
		s0.22-0.146,0.354-0.146s0.259,0.052,0.354,0.146l1.414,1.414l2.19-2.19l-0.734-0.726C18.053,0.761,18.001,0.636,18,0.503
		c-0.001-0.134,0.051-0.26,0.145-0.354C18.24,0.052,18.366,0,18.5,0c0.133,0,0.258,0.052,0.352,0.145c0,0,3.931,3.891,3.935,3.895
		c0.006,0.006,0.011,0.012,0.017,0.019l1.047,1.036C23.947,5.188,23.999,5.314,24,5.447c0.001,0.134-0.051,0.26-0.145,0.354
		C23.76,5.897,23.634,5.95,23.5,5.95c-0.133,0-0.258-0.052-0.352-0.145L22.436,5.1l-2.207,2.208l1.414,1.414
		c0.094,0.094,0.146,0.22,0.146,0.354s-0.052,0.259-0.146,0.354s-0.22,0.146-0.354,0.146s-0.259-0.052-0.354-0.146l-0.707-0.707
		l-4.597,4.596c-0.662,0.651-1.533,1.008-2.457,1.008h-0.027c-0.749-0.006-1.475-0.252-2.069-0.698l-3.225,3.226
		C7.759,16.948,7.634,17,7.5,17z M11.389,9.076c-0.949,0.965-0.948,2.537,0.003,3.504c0.468,0.476,1.094,0.741,1.762,0.746
		c0.676,0,1.303-0.255,1.773-0.717l4.594-4.593l-3.536-3.536l-0.707,0.707l1.061,1.061c0.094,0.094,0.146,0.22,0.146,0.354
		c0,0.134-0.052,0.259-0.146,0.354c-0.095,0.094-0.22,0.146-0.354,0.146c-0.134,0-0.259-0.052-0.354-0.146l-1.061-1.061
		l-0.708,0.707l1.061,1.061c0.094,0.094,0.146,0.22,0.146,0.354s-0.052,0.259-0.146,0.354s-0.22,0.146-0.354,0.146
		s-0.259-0.052-0.354-0.146l-1.061-1.061L12.45,8.015l1.061,1.061c0.094,0.094,0.146,0.22,0.146,0.354s-0.052,0.259-0.146,0.354
		s-0.22,0.146-0.354,0.146s-0.259-0.052-0.354-0.146l-1.061-1.061L11.389,9.076z M19.521,6.6l2.203-2.204l-2.132-2.111l-2.193,2.193
		L19.521,6.6z"/>
	<path d="M9.444,24C4.237,24,0,21.084,0,17.5c0-3.034,2.99-5.637,7.27-6.329c0.026-0.004,0.054-0.006,0.081-0.006
		c0.246,0,0.453,0.177,0.493,0.42c0.044,0.272-0.142,0.529-0.414,0.574C3.644,12.771,1,14.967,1,17.5C1,20.533,4.788,23,9.444,23
		c3.664,0,6.893-1.532,8.035-3.812c0.709-1.416,0.498-2.947-0.61-4.426c-0.165-0.221-0.12-0.535,0.101-0.7
		c0.087-0.065,0.191-0.1,0.3-0.1c0.157,0,0.307,0.075,0.401,0.201c1.33,1.778,1.58,3.721,0.703,5.473
		C17.066,22.246,13.478,24,9.444,24z"/>
	<path d="M7.444,21c-0.054,0-0.107-0.009-0.158-0.026c-0.126-0.042-0.229-0.131-0.289-0.25s-0.069-0.255-0.027-0.382
		c0.025-0.075,0.646-1.842,3.474-1.842c0.1,0.006,0.184,0.009,0.267,0.009c1.11,0,2.148-0.484,2.848-1.328
		C13.655,17.066,13.795,17,13.945,17c0.116,0,0.23,0.041,0.319,0.116c0.102,0.085,0.166,0.205,0.178,0.338
		c0.012,0.133-0.028,0.263-0.113,0.365c-0.891,1.074-2.204,1.69-3.603,1.69c-0.105,0-0.211-0.004-0.316-0.011
		c-2.044,0.001-2.476,1.115-2.493,1.163C7.85,20.863,7.66,21,7.444,21z"/>
	<circle cx="15.444" cy="16" r="0.75"/>
	<circle cx="3.944" cy="18.5" r="0.75"/>
	<path d="M4.908,15.818c-0.101,0-0.199-0.031-0.283-0.088c-0.206-0.142-0.447-0.222-0.698-0.23
		c-0.275-0.009-0.492-0.241-0.483-0.516c0.009-0.271,0.224-0.484,0.49-0.484c0.007,0,0.032,0.001,0.038,0.001
		c0.43,0.014,0.856,0.155,1.22,0.406c0.11,0.076,0.184,0.19,0.208,0.321c0.024,0.131-0.004,0.264-0.08,0.374
		C5.226,15.737,5.072,15.818,4.908,15.818z"/>
</g>
</svg>
