<?xml version="1.0" encoding="utf-8"?>
<!-- Generator: Adobe Illustrator 22.1.0, SVG Export Plug-In . SVG Version: 6.00 Build 0)  -->
<svg version="1.1" id="Light" xmlns="http://www.w3.org/2000/svg" xmlns:xlink="http://www.w3.org/1999/xlink" x="0px" y="0px"
	 viewBox="0 0 24 24" style="enable-background:new 0 0 24 24;" xml:space="preserve">
<g>
	<title>laboratory-chromosome</title>
	<path d="M3.936,23.999c-0.081,0-0.163-0.007-0.242-0.021c-1.403-0.246-2.091-2.549-1.6-5.355c0.32-1.83,0.863-3.079,1.654-3.798
		c-0.97-0.446-1.865-1.47-2.723-3.114c-1.32-2.526-1.362-4.928-0.1-5.589c0.208-0.109,0.44-0.164,0.687-0.164
		c0.524,0,1.119,0.252,1.719,0.73c0.782,0.621,1.536,1.583,2.124,2.708c0.005,0.01,0.01,0.02,0.016,0.029
		c0.002-0.012,0.004-0.025,0.007-0.037c0.46-2.614,1.758-4.512,3.087-4.512c0.08,0,0.161,0.007,0.24,0.021
		c1.401,0.245,2.092,2.547,1.606,5.356c-0.32,1.831-0.863,3.08-1.654,3.799c0.967,0.447,1.86,1.471,2.718,3.114
		c1.32,2.525,1.363,4.928,0.1,5.588c-0.204,0.107-0.433,0.162-0.678,0.162c-1.23,0-2.779-1.38-3.854-3.435
		c-0.006-0.011-0.012-0.022-0.017-0.033c-0.003,0.014-0.005,0.029-0.008,0.043c-0.325,1.868-1.143,3.503-2.083,4.164
		C4.615,23.88,4.269,23.999,3.936,23.999z M5.831,15.018c-1.008,0.144-2.147,0.321-2.752,3.777c-0.427,2.44,0.171,4.09,0.788,4.198
		c0.023,0.004,0.047,0.006,0.071,0.006c0.126,0,0.268-0.055,0.423-0.163c0.722-0.508,1.395-1.923,1.673-3.522
		c0.151-0.815,0.18-1.643,0.085-2.462L5.831,15.018z M7.11,16.709c0.156,0.799,0.432,1.577,0.819,2.304
		c0.987,1.886,2.26,2.904,2.958,2.904c0.087,0,0.163-0.017,0.226-0.05c0.556-0.291,0.625-2.044-0.522-4.24
		c-1.317-2.52-2.321-2.844-3.049-2.844c-0.247,0-0.487,0.04-0.719,0.078L7.11,16.709z M1.614,6.959c-0.086,0-0.162,0.017-0.225,0.05
		c-0.555,0.29-0.625,2.043,0.522,4.239c1.317,2.52,2.321,2.844,3.049,2.844c0.249,0,0.489-0.04,0.721-0.079l-0.289-1.844
		c-0.156-0.8-0.432-1.579-0.82-2.305C4.046,8.856,3.385,8.007,2.71,7.471C2.295,7.141,1.905,6.959,1.614,6.959z M8.566,5.877
		c-0.61,0-1.68,1.282-2.103,3.689c-0.149,0.814-0.177,1.64-0.081,2.458l0.289,1.835c1.009-0.143,2.15-0.315,2.756-3.777
		C9.849,7.639,9.249,5.99,8.633,5.882C8.611,5.878,8.589,5.877,8.566,5.877z"/>
	<path d="M16.801,17.956c-0.05,0-0.1-0.003-0.15-0.01c-1.301-0.184-1.664-2.522-1.352-4.736c0.159-1.124,0.553-2.534,1.204-3.405
		c-1.124-0.309-2.27-1.215-2.873-4.402c-0.236-1.248-0.24-2.471-0.011-3.443c0.262-1.109,0.808-1.796,1.538-1.934
		c0.085-0.016,0.172-0.024,0.259-0.024c1.321,0,2.635,1.881,3.125,4.473c0.002,0.012,0.005,0.023,0.007,0.035
		c0.007-0.013,0.013-0.026,0.02-0.038c0.571-1.13,1.313-2.102,2.086-2.734c0.603-0.493,1.202-0.753,1.731-0.753
		c0.239,0,0.463,0.052,0.667,0.155c1.272,0.643,1.262,3.047-0.022,5.591c-1.184,2.343-2.436,3.434-3.94,3.434
		c-0.014,0-0.029,0-0.043,0c0.066,0.173,0.122,0.362,0.168,0.566c0.188,0.845,0.204,1.925,0.047,3.041
		c-0.158,1.115-0.473,2.148-0.887,2.909C17.918,17.514,17.374,17.956,16.801,17.956z M17.759,10.023
		c-0.352,0-1.177,1.263-1.469,3.326c-0.318,2.252,0.213,3.566,0.501,3.606c0,0,0,0,0.001,0c0.125,0,0.403-0.202,0.705-0.756
		c0.359-0.657,0.634-1.57,0.775-2.57s0.129-1.953-0.033-2.684c-0.143-0.644-0.362-0.907-0.467-0.922L17.759,10.023z M18.409,9.094
		c0.222,0.034,0.451,0.069,0.687,0.069c0.738,0,1.75-0.328,3.042-2.885c1.117-2.212,1.023-3.965,0.464-4.247
		C22.541,2,22.468,1.984,22.386,1.984c-0.292,0-0.683,0.187-1.098,0.526c-0.667,0.545-1.317,1.402-1.828,2.414
		c-0.381,0.736-0.648,1.52-0.794,2.332L18.409,9.094z M15.418,1.001c-0.025,0-0.05,0.002-0.075,0.007
		c-0.304,0.058-0.592,0.51-0.75,1.181c-0.198,0.839-0.191,1.914,0.02,3.028c0.652,3.446,1.791,3.61,2.801,3.739l0.261-1.839
		c0.084-0.819,0.046-1.644-0.114-2.453C17.109,2.273,16.026,1.001,15.418,1.001z"/>
	<path d="M9.001,2.986c-0.054,0-0.107-0.009-0.158-0.026C8.716,2.918,8.614,2.829,8.554,2.709S8.484,2.454,8.527,2.327l0.5-1.5
		c0.068-0.204,0.259-0.342,0.474-0.342c0.054,0,0.107,0.009,0.158,0.026c0.262,0.087,0.404,0.371,0.316,0.633l-0.5,1.5
		C9.407,2.848,9.217,2.986,9.001,2.986z"/>
	<path d="M2.619,4.104c-0.134,0-0.259-0.052-0.354-0.146L1.148,2.839c-0.094-0.094-0.146-0.22-0.146-0.354s0.052-0.259,0.146-0.354
		s0.22-0.146,0.354-0.146S1.76,2.038,1.855,2.132L2.973,3.25c0.094,0.094,0.146,0.22,0.146,0.354S3.067,3.863,2.973,3.957
		S2.753,4.104,2.619,4.104z"/>
	<path d="M12.001,13.486c-0.276,0-0.5-0.224-0.5-0.5s0.224-0.5,0.5-0.5h1c0.276,0,0.5,0.224,0.5,0.5s-0.224,0.5-0.5,0.5H12.001z"/>
	<path d="M14.501,22.986c-0.134,0-0.259-0.052-0.354-0.146s-0.146-0.22-0.146-0.354s0.052-0.259,0.146-0.354l1.5-1.5
		c0.094-0.094,0.22-0.146,0.354-0.146c0.134,0,0.259,0.052,0.354,0.146s0.146,0.22,0.146,0.354s-0.052,0.259-0.146,0.354l-1.5,1.5
		C14.76,22.934,14.635,22.986,14.501,22.986z"/>
	<path d="M21.001,19.986c-0.134,0-0.259-0.052-0.354-0.146l-1.5-1.5c-0.094-0.094-0.146-0.22-0.146-0.354s0.052-0.259,0.146-0.354
		s0.22-0.146,0.354-0.146s0.259,0.052,0.354,0.146l1.5,1.5c0.094,0.094,0.146,0.22,0.146,0.354s-0.052,0.259-0.146,0.354
		S21.135,19.986,21.001,19.986z"/>
	<path d="M22.001,16.486c-0.054,0-0.107-0.009-0.158-0.026c-0.126-0.042-0.229-0.131-0.289-0.25s-0.07-0.255-0.027-0.382l0.5-1.5
		c0.068-0.204,0.258-0.342,0.473-0.342c0.054,0,0.108,0.009,0.159,0.026c0.126,0.042,0.229,0.131,0.289,0.25s0.07,0.255,0.027,0.382
		l-0.5,1.5C22.407,16.348,22.217,16.486,22.001,16.486z"/>
	<path d="M20.501,23.486c-0.134,0-0.259-0.052-0.354-0.146s-0.146-0.22-0.146-0.354s0.052-0.259,0.146-0.354l1-1
		c0.094-0.094,0.22-0.146,0.354-0.146s0.259,0.052,0.354,0.146s0.146,0.22,0.146,0.354s-0.052,0.259-0.146,0.354l-1,1
		C20.76,23.434,20.635,23.486,20.501,23.486z"/>
	<path d="M4.001,2.5c-0.134,0-0.259-0.052-0.354-0.146S3.501,2.133,3.501,2s0.052-0.259,0.146-0.354l1.5-1.5
		C5.242,0.052,5.368,0,5.501,0S5.76,0.052,5.855,0.146S6.001,0.366,6.001,0.5S5.949,0.759,5.855,0.853l-1.5,1.5
		C4.26,2.448,4.135,2.5,4.001,2.5z"/>
</g>
</svg>
