<?xml version="1.0" encoding="utf-8"?>
<!-- Generator: Adobe Illustrator 22.1.0, SVG Export Plug-In . SVG Version: 6.00 Build 0)  -->
<svg version="1.1" id="Light" xmlns="http://www.w3.org/2000/svg" xmlns:xlink="http://www.w3.org/1999/xlink" x="0px" y="0px"
	 viewBox="0 0 24 24" style="enable-background:new 0 0 24 24;" xml:space="preserve">
<g>
	<title>medical-room-wait</title>
	<path d="M15.5,24c-0.048,0-0.096-0.007-0.145-0.022c-0.006-0.001-0.012-0.003-0.018-0.005L8.664,21.59
		C8.267,21.448,8,21.07,8,20.648v-1.919C7.388,18.374,7,17.711,7,17s0.388-1.374,1-1.729v-2.062c0-0.552,0.448-1,1-1
		c0.115,0,0.229,0.02,0.337,0.058l1.252,0.447C10.945,11.133,12.35,10,14,10h3c1.647,0,3.049,1.129,3.412,2.715l1.252-0.447
		c0.107-0.039,0.22-0.058,0.336-0.058c0.552,0,1,0.448,1,1v2.062c0.612,0.355,1,1.018,1,1.729s-0.388,1.374-1,1.729v1.919
		c0,0.421-0.267,0.8-0.664,0.942l-6.668,2.381c-0.01,0.004-0.021,0.007-0.032,0.009C15.586,23.994,15.543,24,15.5,24z M16,22.791
		l6-2.142V19h-1c-0.552,0-1-0.448-1-1v-2c0-0.552,0.448-1,1-1h1v-1.791l-0.006,0.001c0.002,0,0.004,0,0.006-0.001l-6,2.143V22.791z
		 M9,20.648l6,2.143v-7.438l-6-2.144L9,15h1c0.551,0,1,0.448,1,1v2c0,0.552-0.449,1-1,1L9,20.648z M21,18h1c0.552,0,1-0.448,1-1
		s-0.448-1-1-1h-1L21,18z M9,16c-0.551,0-1,0.448-1,1s0.449,1,1,1h1v-2H9z M15.5,14.469l3.961-1.415
		C19.238,11.858,18.212,11,17.001,11H14c-1.215,0-2.244,0.862-2.46,2.055L15.5,14.469z"/>
	<path d="M15.5,9c-1.654,0-3-1.346-3-3s1.346-3,3-3s3,1.346,3,3S17.154,9,15.5,9z M15.5,4c-1.103,0-2,0.897-2,2s0.897,2,2,2
		s2-0.897,2-2S16.603,4,15.5,4z"/>
	<path d="M4.5,10C3.673,10,3,9.327,3,8.5V7H1.5C0.673,7,0,6.327,0,5.5v-1C0,3.673,0.673,3,1.5,3H3V1.5C3,0.673,3.673,0,4.5,0h1
		C6.327,0,7,0.673,7,1.5V3h1.5C9.327,3,10,3.673,10,4.5v1C10,6.327,9.327,7,8.5,7H7v1.5C7,9.327,6.327,10,5.5,10H4.5z M1.5,4
		C1.224,4,1,4.224,1,4.5v1C1,5.776,1.224,6,1.5,6h2C3.776,6,4,6.224,4,6.5v2C4,8.776,4.224,9,4.5,9h1C5.776,9,6,8.776,6,8.5v-2
		C6,6.224,6.224,6,6.5,6h2C8.776,6,9,5.776,9,5.5v-1C9,4.224,8.776,4,8.5,4h-2C6.224,4,6,3.776,6,3.5v-2C6,1.224,5.776,1,5.5,1h-1
		C4.224,1,4,1.224,4,1.5v2C4,3.776,3.776,4,3.5,4H1.5z"/>
</g>
</svg>
