<?xml version="1.0" encoding="utf-8"?>
<!-- Generator: Adobe Illustrator 22.1.0, SVG Export Plug-In . SVG Version: 6.00 Build 0)  -->
<svg version="1.1" id="Layer_1" xmlns="http://www.w3.org/2000/svg" xmlns:xlink="http://www.w3.org/1999/xlink" x="0px" y="0px"
	 viewBox="0 0 24 24" style="enable-background:new 0 0 24 24;" xml:space="preserve">
<g>
	<title>car-dashboard-lights</title>
	<path d="M12,24C5.383,24,0,18.617,0,12C0,5.383,5.383,0,12,0c6.617,0,12,5.383,12,12C24,18.617,18.617,24,12,24z M12,1
		C5.935,1,1,5.935,1,12s4.935,11,11,11s11-4.935,11-11S18.065,1,12,1z"/>
	<path d="M14.744,17.429c-1.469,0-2.703-1.201-2.744-2.677l0-4.396c0.041-1.486,1.276-2.69,2.752-2.69h0.15
		c1.303,0.02,2.521,0.546,3.429,1.482c0.908,0.936,1.397,2.17,1.378,3.473c-0.04,2.651-2.229,4.808-4.88,4.808h-0.031L14.744,17.429
		z M14.829,16.429c2.108,0,3.849-1.715,3.881-3.823c0.016-1.037-0.373-2.018-1.095-2.762c-0.722-0.744-1.691-1.163-2.727-1.178
		c0,0-0.129,0-0.13,0c-0.958,0-1.73,0.748-1.757,1.704v4.368c0.026,0.929,0.812,1.691,1.752,1.691c0.001,0,0.006,0,0.007,0
		L14.829,16.429z"/>
	<path d="M5.5,13C5.224,13,5,12.776,5,12.5C5,12.224,5.224,12,5.5,12h5.031c0.276,0,0.5,0.224,0.5,0.5c0,0.276-0.224,0.5-0.5,0.5
		H5.5z"/>
	<path d="M5.5,10C5.224,10,5,9.776,5,9.5S5.224,9,5.5,9h5C10.776,9,11,9.224,11,9.5S10.776,10,10.5,10H5.5z"/>
	<path d="M5.5,16C5.224,16,5,15.776,5,15.5S5.224,15,5.5,15h5.031c0.276,0,0.5,0.224,0.5,0.5s-0.224,0.5-0.5,0.5H5.5z"/>
</g>
</svg>
