<?xml version="1.0" encoding="utf-8"?>
<!-- Generator: Adobe Illustrator 22.1.0, SVG Export Plug-In . SVG Version: 6.00 Build 0)  -->
<svg version="1.1" id="Layer_1" xmlns="http://www.w3.org/2000/svg" xmlns:xlink="http://www.w3.org/1999/xlink" x="0px" y="0px"
	 viewBox="0 0 24 24" style="enable-background:new 0 0 24 24;" xml:space="preserve">
<g>
	<title>car-dashboard-gear-automatic</title>
	<path d="M12.25,22.75c-0.551,0-1-0.448-1-1v-6h-5c-0.551,0-1-0.448-1-1V8.211c-1.7-0.245-3-1.723-3-3.461c0-1.93,1.57-3.5,3.5-3.5
		s3.5,1.57,3.5,3.5c0,1.738-1.3,3.216-3,3.461v6.539h5c0.551,0,1,0.448,1,1v6h3.5c0.276,0,0.5,0.224,0.5,0.5s-0.224,0.5-0.5,0.5
		H12.25z M5.75,2.25c-1.379,0-2.5,1.121-2.5,2.5s1.121,2.5,2.5,2.5s2.5-1.121,2.5-2.5S7.129,2.25,5.75,2.25z"/>
	<path d="M17.75,8.75c-0.276,0-0.5-0.224-0.5-0.5v-5c0-0.276,0.224-0.5,0.5-0.5H20c0.965,0,1.75,0.785,1.75,1.75
		S20.965,6.25,20,6.25h-1.75v2C18.25,8.526,18.026,8.75,17.75,8.75z M20,5.25c0.414,0,0.75-0.336,0.75-0.75S20.414,3.75,20,3.75
		h-1.75v1.5H20z"/>
	<path d="M17.75,22.75c-0.276,0-0.5-0.224-0.5-0.5v-5c0-0.276,0.224-0.5,0.5-0.5h1c1.654,0,3,1.346,3,3s-1.346,3-3,3H17.75z
		 M18.75,21.75c1.103,0,2-0.897,2-2s-0.897-2-2-2h-0.5v4H18.75z"/>
	<path d="M20.75,15.75c-0.175,0-0.339-0.093-0.429-0.243l-2.071-3.452v3.195c0,0.276-0.224,0.5-0.5,0.5s-0.5-0.224-0.5-0.5v-5
		c0-0.224,0.151-0.422,0.367-0.482C17.66,9.756,17.705,9.75,17.75,9.75c0.175,0,0.34,0.093,0.429,0.243l2.071,3.452V10.25
		c0-0.276,0.224-0.5,0.5-0.5s0.5,0.224,0.5,0.5v5c0,0.224-0.151,0.422-0.367,0.482C20.84,15.744,20.795,15.75,20.75,15.75z"/>
</g>
</svg>
