<?xml version="1.0" encoding="utf-8"?>
<!-- Generator: Adobe Illustrator 22.1.0, SVG Export Plug-In . SVG Version: 6.00 Build 0)  -->
<svg version="1.1" id="Layer_1" xmlns="http://www.w3.org/2000/svg" xmlns:xlink="http://www.w3.org/1999/xlink" x="0px" y="0px"
	 viewBox="0 0 24 24" style="enable-background:new 0 0 24 24;" xml:space="preserve">
<g>
	<title>car-dashboard-fuel</title>
	<path d="M5.528,16c-1.187,0-2.153-0.966-2.153-2.153v-3.67C3.375,9.528,3.903,9,4.552,9h4.823V8h-1.5c-0.276,0-0.5-0.224-0.5-0.5
		S7.599,7,7.875,7h4c0.276,0,0.5,0.224,0.5,0.5S12.151,8,11.875,8h-1.5v1h2.53c0.795,0,1.499,0.477,1.794,1.214l0.454,1.135
		c0.014,0.032,0.061,0.06,0.109,0.06l4.493-0.894c0.025-0.008,0.072-0.015,0.119-0.015c0.134,0,0.26,0.052,0.354,0.147l1,1
		c0.094,0.094,0.146,0.22,0.146,0.354s-0.052,0.259-0.146,0.354s-0.22,0.146-0.354,0.146s-0.259-0.052-0.354-0.146l-0.665-0.665
		l-3.696,3.326C15.456,15.65,14.544,16,13.595,16H5.528z M4.552,10c-0.098,0-0.177,0.079-0.177,0.177v3.67
		C4.375,14.483,4.892,15,5.528,15h8.066c0.703,0,1.376-0.259,1.898-0.729l2.693-2.423l-2.722,0.543
		c-0.072,0.012-0.135,0.017-0.198,0.017c-0.448,0-0.854-0.264-1.034-0.672l-0.461-1.151C13.628,10.23,13.289,10,12.906,10H4.552z"/>
	<path d="M2.125,9.75c-0.134,0-0.259-0.052-0.354-0.146S1.625,9.384,1.625,9.25s0.052-0.259,0.146-0.354l1.75-1.75
		C3.616,7.052,3.741,7,3.875,7s0.259,0.052,0.354,0.146S4.375,7.366,4.375,7.5S4.323,7.759,4.229,7.854l-1.75,1.75
		C2.384,9.698,2.259,9.75,2.125,9.75z"/>
	<path d="M20.828,16.998c-0.505-0.051-1.453-0.428-1.453-1.498c0-0.03,0.003-0.059,0.008-0.089c0.151-0.845,0.54-1.625,1.127-2.252
		c0.091-0.098,0.22-0.156,0.354-0.159c0.01,0,0.021-0.001,0.026-0.001c0.125,0,0.25,0.056,0.345,0.155
		c0.602,0.625,0.994,1.409,1.133,2.266c0.004,0.026,0.006,0.053,0.006,0.08c0,1.114-0.961,1.468-1.469,1.499
		c-0.005,0-0.026,0.001-0.031,0.001C20.868,17,20.835,16.999,20.828,16.998z M20.376,15.539c0.022,0.33,0.34,0.428,0.508,0.457
		c0.163-0.023,0.471-0.112,0.49-0.46c-0.078-0.442-0.247-0.864-0.494-1.236C20.634,14.675,20.461,15.098,20.376,15.539z"/>
</g>
</svg>
