<?xml version="1.0" encoding="utf-8"?>
<!-- Generator: Adobe Illustrator 22.1.0, SVG Export Plug-In . SVG Version: 6.00 Build 0)  -->
<svg version="1.1" id="Layer_1" xmlns="http://www.w3.org/2000/svg" xmlns:xlink="http://www.w3.org/1999/xlink" x="0px" y="0px"
	 viewBox="0 0 24 24" style="enable-background:new 0 0 24 24;" xml:space="preserve">
<g>
	<title>car-dashboard-steering</title>
	<path d="M12,24C5.383,24,0,18.617,0,12C0,5.383,5.383,0,12,0c6.617,0,12,5.383,12,12C24,18.617,18.617,24,12,24z M12,1
		C5.935,1,1,5.935,1,12s4.935,11,11,11s11-4.935,11-11S18.065,1,12,1z"/>
	<path d="M12,14c-1.103,0-2-0.897-2-2s0.897-2,2-2s2,0.897,2,2S13.103,14,12,14z M12,11c-0.551,0-1,0.449-1,1c0,0.552,0.449,1,1,1
		c0.552,0,1-0.448,1-1C13,11.449,12.552,11,12,11z"/>
	<path d="M12,21c-0.56,0-1.129-0.054-1.689-0.161c-0.022-0.002-0.042-0.004-0.062-0.009c-0.009-0.002-0.018-0.005-0.027-0.008
		C6.04,19.986,3,16.277,3,12c0-4.963,4.037-9,9-9s9,4.037,9,9c0,0.169-0.006,0.346-0.019,0.557c0,0.013,0,0.025-0.002,0.037
		c0,0.005-0.001,0.01-0.002,0.016c-0.262,4.035-3.224,7.417-7.207,8.214c-0.01,0.003-0.021,0.006-0.031,0.008
		c-0.008,0.002-0.027,0.004-0.046,0.006C13.146,20.944,12.57,21,12,21z M10.936,19.928C11.292,19.976,11.649,20,12,20
		c0.349,0,0.704-0.024,1.059-0.071c-0.043-0.314-0.063-0.628-0.059-0.936C13,15.139,16.14,12,20,12c0-0.628-0.073-1.253-0.218-1.86
		C17.245,9.381,14.627,8.997,12,8.997c-2.627,0-5.245,0.385-7.782,1.143C4.073,10.747,4,11.372,4,12c3.86,0,7,3.14,7,7
		C11,19.305,10.979,19.617,10.936,19.928z M19.936,13C16.657,13.034,14,15.713,14,19c-0.003,0.243,0.01,0.489,0.042,0.734
		C17.204,18.901,19.531,16.243,19.936,13z M4.064,13c0.404,3.241,2.729,5.897,5.889,6.732C9.984,19.487,10,19.241,10,19
		C10,15.713,7.343,13.035,4.064,13z M12,4C8.727,4,5.806,5.989,4.587,8.997C7.011,8.335,9.503,7.999,12,7.999
		c2.497,0,4.989,0.336,7.413,0.998C18.194,5.989,15.273,4,12,4z"/>
</g>
</svg>
