<?xml version="1.0" encoding="utf-8"?>
<!-- Generator: Adobe Illustrator 22.1.0, SVG Export Plug-In . SVG Version: 6.00 Build 0)  -->
<svg version="1.1" id="Layer_1" xmlns="http://www.w3.org/2000/svg" xmlns:xlink="http://www.w3.org/1999/xlink" x="0px" y="0px"
	 viewBox="0 0 24 24" style="enable-background:new 0 0 24 24;" xml:space="preserve">
<g>
	<title>car-dashboard-warning</title>
	<path d="M11.887,20.49c-4.551,0-8.309-3.703-8.378-8.255l-0.001-0.103c-0.013-4.698,3.797-8.574,8.493-8.643l0.122-0.001
		c2.194,0,4.269,0.841,5.841,2.367c1.607,1.559,2.51,3.651,2.544,5.89l0.001,0.103c0.012,4.697-3.797,8.573-8.493,8.642
		L11.887,20.49L11.887,20.49z M12.016,4.489c-4.151,0.061-7.519,3.488-7.508,7.639l0.001,0.094c0.061,4.007,3.371,7.268,7.379,7.268
		L12,19.489c4.152-0.06,7.52-3.487,7.508-7.638l-0.001-0.094c-0.03-1.97-0.825-3.812-2.24-5.185
		c-1.385-1.344-3.21-2.085-5.138-2.085L12.016,4.489z"/>
	<path d="M12.008,13.489c-0.276,0-0.5-0.224-0.5-0.5V7.988c0-0.276,0.224-0.5,0.5-0.5c0.276,0,0.5,0.224,0.5,0.5v5.001
		C12.508,13.264,12.284,13.489,12.008,13.489z"/>
	<path d="M12.008,16.512c-0.408,0-0.744-0.332-0.749-0.74c0-0.018,0.004-0.051,0.009-0.074c0.014-0.172,0.087-0.334,0.206-0.458
		c0.14-0.144,0.326-0.225,0.526-0.228c0.001,0,0.007,0,0.007,0c0.41,0,0.746,0.332,0.751,0.74c0,0.001,0,0.005,0,0.006
		c0.003,0.194-0.072,0.382-0.211,0.526c-0.139,0.144-0.326,0.225-0.526,0.228c-0.001,0-0.003,0-0.004,0
		C12.017,16.512,12.009,16.512,12.008,16.512z"/>
	<path d="M4.508,20.534c-0.127,0-0.248-0.048-0.341-0.134C-0.471,16.075-0.726,8.784,3.598,4.146
		c0.168-0.18,0.344-0.357,0.522-0.525c0.093-0.088,0.215-0.136,0.343-0.136c0.137,0,0.27,0.057,0.364,0.157
		c0.092,0.097,0.14,0.224,0.136,0.358s-0.06,0.258-0.157,0.349C4.643,4.502,4.482,4.664,4.33,4.828
		C2.42,6.876,1.423,9.549,1.521,12.355c0.098,2.806,1.28,5.403,3.328,7.313c0.202,0.188,0.213,0.505,0.025,0.707
		C4.78,20.475,4.647,20.534,4.508,20.534z"/>
	<path d="M19.508,20.536c-0.138,0-0.272-0.058-0.366-0.159c-0.091-0.098-0.138-0.225-0.134-0.359
		c0.005-0.134,0.061-0.257,0.159-0.348c0.17-0.159,0.339-0.327,0.501-0.5c1.918-2.046,2.925-4.717,2.834-7.52
		c-0.091-2.803-1.267-5.403-3.313-7.322c-0.097-0.091-0.154-0.215-0.158-0.349s0.044-0.261,0.135-0.358
		c0.094-0.1,0.227-0.158,0.365-0.158c0.128,0,0.249,0.048,0.342,0.136c2.241,2.101,3.53,4.948,3.629,8.018
		c0.099,3.07-1.003,5.995-3.104,8.236c-0.176,0.188-0.36,0.372-0.549,0.548C19.756,20.488,19.635,20.536,19.508,20.536z"/>
</g>
</svg>
