<?xml version="1.0" encoding="utf-8"?>
<!-- Generator: Adobe Illustrator 22.1.0, SVG Export Plug-In . SVG Version: 6.00 Build 0)  -->
<svg version="1.1" id="Light" xmlns="http://www.w3.org/2000/svg" xmlns:xlink="http://www.w3.org/1999/xlink" x="0px" y="0px"
	 viewBox="0 0 24 24" style="enable-background:new 0 0 24 24;" xml:space="preserve">
<g>
	<title>accessories-necklace-1</title>
	<path d="M7.999,22.5c-0.965,0-1.75-0.785-1.75-1.75c0-0.784,0.514-1.458,1.25-1.676v-2.566c-0.776-0.887-1.446-1.741-2-2.55v1.116
		c0.736,0.218,1.25,0.892,1.25,1.676c0,0.965-0.785,1.75-1.75,1.75s-1.75-0.785-1.75-1.75c0-0.784,0.514-1.458,1.25-1.676v-2.758
		C3.836,11.052,3.5,9.903,3.5,8.9c-0.114-4.785,3.694-8.78,8.488-8.9c4.812,0.12,8.625,4.116,8.512,8.909
		c-0.001,0.998-0.337,2.147-1.001,3.411v2.754c0.736,0.218,1.25,0.892,1.25,1.676c0,0.965-0.785,1.75-1.75,1.75
		s-1.75-0.785-1.75-1.75c0-0.784,0.514-1.458,1.25-1.676v-1.113c-0.554,0.809-1.224,1.663-2,2.55v2.575c0.59,0.209,1,0.774,1,1.414
		c0,0.827-0.673,1.5-1.5,1.5s-1.5-0.673-1.5-1.5c0-0.64,0.41-1.205,1-1.414v-1.477c-1.641,1.734-3.109,2.981-3.176,3.038
		c-0.092,0.077-0.206,0.119-0.323,0.119s-0.232-0.042-0.322-0.117c-0.069-0.058-1.537-1.306-3.179-3.041v1.468
		c0.736,0.218,1.25,0.892,1.25,1.676C9.749,21.715,8.964,22.5,7.999,22.5z M7.999,20c-0.414,0-0.75,0.336-0.75,0.75
		s0.336,0.75,0.75,0.75s0.75-0.336,0.75-0.75S8.413,20,7.999,20z M15.999,20c-0.276,0-0.5,0.224-0.5,0.5s0.224,0.5,0.5,0.5
		s0.5-0.224,0.5-0.5S16.275,20,15.999,20z M11.994,1C7.761,1.11,4.399,4.647,4.5,8.888c0,3.861,6.201,9.562,7.5,10.714
		c1.299-1.152,7.5-6.852,7.5-10.702C19.601,4.647,16.234,1.11,11.994,1z M18.999,16c-0.414,0-0.75,0.336-0.75,0.75
		s0.336,0.75,0.75,0.75s0.75-0.336,0.75-0.75S19.413,16,18.999,16z M4.999,16c-0.414,0-0.75,0.336-0.75,0.75s0.336,0.75,0.75,0.75
		s0.75-0.336,0.75-0.75S5.413,16,4.999,16z"/>
	<path d="M11.999,24c-0.965,0-1.75-0.785-1.75-1.75s0.785-1.75,1.75-1.75c0.965,0,1.75,0.785,1.75,1.75S12.964,24,11.999,24z
		 M11.999,21.5c-0.414,0-0.75,0.336-0.75,0.75S11.585,23,11.999,23s0.75-0.336,0.75-0.75S12.413,21.5,11.999,21.5z"/>
</g>
</svg>
