<?xml version="1.0" encoding="utf-8"?>
<!-- Generator: Adobe Illustrator 22.1.0, SVG Export Plug-In . SVG Version: 6.00 Build 0)  -->
<svg version="1.1" id="Light" xmlns="http://www.w3.org/2000/svg" xmlns:xlink="http://www.w3.org/1999/xlink" x="0px" y="0px"
	 viewBox="0 0 24 24" style="enable-background:new 0 0 24 24;" xml:space="preserve">
<g>
	<title>accessories-earrings</title>
	<path d="M7.502,24c-4.135,0-7.5-3.365-7.5-7.5c0-3.623,2.614-6.727,6.141-7.374C6.051,8.93,6.002,8.716,6.002,8.5
		c0-0.64,0.41-1.206,1.001-1.414V6.5c0-0.276-0.224-0.5-0.5-0.5c-0.827,0-1.5-0.673-1.5-1.5S5.676,3,6.503,3h2.5
		c0.276,0,0.5,0.224,0.5,0.5S9.279,4,9.003,4h-2.5c-0.276,0-0.5,0.224-0.5,0.5S6.228,5,6.503,5c0.827,0,1.5,0.673,1.5,1.5v0.586
		C8.593,7.296,9.002,7.861,9.002,8.5c0,0.216-0.049,0.43-0.141,0.626c0.446,0.082,0.883,0.204,1.304,0.364
		c1.122-1.775,2.912-2.981,4.979-3.361c-0.093-0.197-0.142-0.411-0.142-0.629c0-0.64,0.41-1.206,1.001-1.414V3.5
		c0-0.276-0.224-0.5-0.5-0.5c-0.827,0-1.5-0.673-1.5-1.5s0.673-1.5,1.5-1.5h2.5c0.276,0,0.5,0.224,0.5,0.5S18.279,1,18.003,1h-2.5
		c-0.276,0-0.5,0.224-0.5,0.5s0.224,0.5,0.5,0.5c0.827,0,1.5,0.673,1.5,1.5v0.586c0.589,0.209,0.999,0.775,0.999,1.414
		c0,0.217-0.049,0.431-0.142,0.627c0.796,0.145,1.558,0.417,2.269,0.811c1.753,0.969,3.024,2.563,3.578,4.489
		s0.325,3.951-0.644,5.704c-1.317,2.382-3.845,3.862-6.596,3.862c-0.903,0-1.787-0.163-2.631-0.483
		C12.465,22.668,10.058,24,7.502,24z M7.502,10c-3.584,0-6.5,2.916-6.5,6.5s2.916,6.5,6.5,6.5c3.584,0,6.5-2.916,6.5-6.5
		S11.086,10,7.502,10z M14.319,19.623c0.69,0.246,1.413,0.37,2.152,0.37c2.385,0,4.577-1.282,5.718-3.346
		c0.84-1.519,1.038-3.275,0.558-4.943c-0.48-1.668-1.582-3.05-3.101-3.89c-0.959-0.53-2.042-0.81-3.133-0.81
		c-2.18,0-4.236,1.109-5.431,2.91c0.442,0.241,0.858,0.525,1.242,0.848c0.892-1.357,2.42-2.213,4.059-2.255l0.032-0.002
		C16.444,8.502,16.473,8.5,16.502,8.5c0.029,0,0.057,0.002,0.085,0.004l0.036,0.002c0.717,0.016,1.407,0.181,2.049,0.49
		c1.201,0.579,2.106,1.593,2.547,2.855c0.441,1.262,0.365,2.619-0.214,3.82c-0.579,1.203-1.593,2.108-2.854,2.549
		c-0.536,0.188-1.093,0.282-1.654,0.282c-0.577,0-1.145-0.101-1.692-0.3C14.692,18.691,14.528,19.166,14.319,19.623z M14.969,17.192
		c0.491,0.205,1.006,0.309,1.533,0.309c0.447,0,0.891-0.076,1.319-0.225c1.009-0.352,1.819-1.077,2.283-2.039
		c0.74-1.536,0.425-3.312-0.699-4.49c0.064,0.244,0.096,0.497,0.096,0.754c0,1.654-1.346,3-3,3c-0.79,0-1.509-0.307-2.045-0.807
		c0.358,0.883,0.545,1.833,0.545,2.807C15.002,16.724,14.991,16.957,14.969,17.192z M16.408,9.505
		c-1.067,0.047-1.906,0.924-1.906,1.995c0,1.103,0.897,2,2,2s2-0.897,2-2c0-1.072-0.84-1.948-1.912-1.995l-0.089-0.001L16.408,9.505
		z M13.059,11.471c0.178,0.197,0.345,0.401,0.5,0.613c-0.038-0.189-0.057-0.384-0.057-0.584c0-0.253,0.032-0.503,0.094-0.744
		C13.392,10.973,13.212,11.213,13.059,11.471z M7.502,8c-0.276,0-0.5,0.224-0.5,0.5S7.227,9,7.502,9s0.5-0.224,0.5-0.5
		S7.778,8,7.502,8z M16.502,5c-0.276,0-0.5,0.224-0.5,0.5s0.224,0.5,0.5,0.5s0.5-0.224,0.5-0.5S16.778,5,16.502,5z"/>
	<path d="M7.502,21.5c-2.757,0-5-2.243-5-5c0-2.64,2.067-4.83,4.705-4.985c0.09-0.009,0.192-0.015,0.295-0.015
		s0.205,0.005,0.306,0.015c2.628,0.155,4.694,2.344,4.694,4.985C12.502,19.257,10.259,21.5,7.502,21.5z M4.596,13.757
		C3.899,14.49,3.502,15.461,3.502,16.5c0,2.206,1.794,4,4,4s4-1.794,4-4c0-1.039-0.397-2.01-1.094-2.743
		c0.062,0.241,0.094,0.49,0.094,0.743c0,1.654-1.346,3-3,3s-3-1.346-3-3C4.502,14.247,4.534,13.998,4.596,13.757z M7.502,12.5
		c-1.103,0-2,0.897-2,2s0.897,2,2,2s2-0.897,2-2S8.605,12.5,7.502,12.5z"/>
</g>
</svg>
