<?xml version="1.0" encoding="utf-8"?>
<!-- Generator: Adobe Illustrator 22.1.0, SVG Export Plug-In . SVG Version: 6.00 Build 0)  -->
<svg version="1.1" id="Light" xmlns="http://www.w3.org/2000/svg" xmlns:xlink="http://www.w3.org/1999/xlink" x="0px" y="0px"
	 viewBox="0 0 24 24" style="enable-background:new 0 0 24 24;" xml:space="preserve">
<g>
	<title>accessories-hand-fan</title>
	<path d="M12.013,22.655c-1.791,0-3.719-0.658-3.719-2.104c0-0.139,0.058-0.272,0.16-0.366l2.811-2.611L0.329,7.419
		C0.303,7.394,0.28,7.371,0.258,7.346c-0.378-0.429-0.336-1.085,0.093-1.463c1.487-1.353,3.192-2.432,5.063-3.207
		c0.004-0.002,0.028-0.012,0.037-0.015c2.087-0.859,4.291-1.302,6.546-1.315c4.32,0.029,8.458,1.642,11.655,4.54
		c0.017,0.014,0.044,0.041,0.07,0.068c0.188,0.203,0.287,0.467,0.276,0.743c-0.01,0.277-0.128,0.532-0.331,0.72L12.734,17.574
		l2.813,2.613c0.101,0.094,0.16,0.228,0.16,0.366C15.707,22.005,13.852,22.655,12.013,22.655z M9.331,20.735
		c0.216,0.517,1.363,0.92,2.683,0.92c1.357,0,2.454-0.386,2.659-0.916l-2.673-2.482L9.331,20.735z M11.999,16.891l2.396-2.225
		c-0.733-0.367-1.541-0.562-2.36-0.566c-0.012,0.002-0.024,0.003-0.035,0.003c-0.01,0-0.02-0.001-0.031-0.002
		c-0.815,0.016-1.624,0.212-2.36,0.571L11.999,16.891z M5.382,3.778C3.78,4.493,2.313,5.451,1.018,6.629
		C1.003,6.642,1,6.652,1,6.659c-0.001,0.01,0.002,0.018,0.009,0.026l7.824,7.266c0.329-0.185,0.671-0.341,1.021-0.466L5.382,3.778z
		 M14.15,13.475c0.349,0.126,0.689,0.284,1.017,0.473l7.821-7.264C22.996,6.677,22.999,6.67,23,6.659c0-0.01-0.003-0.018-0.01-0.025
		c-1.302-1.18-2.771-2.138-4.375-2.854L14.15,13.475z M10.832,13.219c0.216-0.041,0.439-0.071,0.668-0.09V2.36
		C9.713,2.424,7.969,2.771,6.307,3.395L10.832,13.219z M12.5,13.123c0.23,0.017,0.455,0.046,0.672,0.086l4.519-9.81
		c-1.661-0.624-3.405-0.973-5.191-1.038V13.123z"/>
</g>
</svg>
