<?xml version="1.0" encoding="utf-8"?>
<!-- Generator: Adobe Illustrator 22.1.0, SVG Export Plug-In . SVG Version: 6.00 Build 0)  -->
<svg version="1.1" id="Light" xmlns="http://www.w3.org/2000/svg" xmlns:xlink="http://www.w3.org/1999/xlink" x="0px" y="0px"
	 viewBox="0 0 24 24" style="enable-background:new 0 0 24 24;" xml:space="preserve">
<g>
	<title>accessories-winter-gloves</title>
	<path d="M5.291,24c-0.551,0-1-0.448-1-1v-2.523c-0.631-0.483-1.002-1.228-1-2.02L3.294,5.5c0-0.172,0.013-0.349,0.038-0.528
		C3.333,4.92,3.341,4.87,3.357,4.823C3.823,2.251,6.824,0,9.794,0c3.463,0,6.5,2.804,6.5,6v2.306l0.022-0.021
		c0.471-0.519,1.161-0.822,1.884-0.822c0.416,0,0.83,0.102,1.198,0.295c0.066,0.037,0.12,0.069,0.172,0.103
		c0.564,0.369,0.95,0.937,1.088,1.599s0.01,1.336-0.359,1.9l-4,5.212l-0.008,1.909c-0.005,0.781-0.376,1.518-1,1.996V23
		c0,0.552-0.448,1-1,1H5.291z M5.291,23h9v-2.059c-0.163,0.036-0.327,0.056-0.491,0.059H5.791c-0.168-0.003-0.335-0.023-0.5-0.059
		V23z M4.291,18.459C4.288,19.295,4.965,19.986,5.799,20h7.991c0.82-0.014,1.495-0.698,1.5-1.525l0.005-1.143l-2.743-1.172
		c-0.046-0.016-0.109-0.027-0.175-0.027c-0.099,0-0.197,0.024-0.284,0.07l-1.618,0.972c-0.223,0.118-0.457,0.176-0.69,0.176
		c-0.228,0-0.455-0.056-0.657-0.162l-1.668-1c-0.066-0.034-0.157-0.056-0.251-0.056c-0.072,0-0.142,0.012-0.208,0.037l-2.711,1.16
		L4.291,18.459z M7.21,15.135c0.258,0,0.514,0.063,0.741,0.183l1.667,1c0.04,0.021,0.103,0.035,0.167,0.035
		c0.069,0,0.139-0.017,0.2-0.049l1.618-0.972c0.248-0.131,0.512-0.197,0.773-0.197c0.186,0,0.369,0.032,0.543,0.096l2.4,1.025
		c0.017-0.058,0.045-0.112,0.082-0.16l3.044-3.964c-0.022-0.003-0.046-0.004-0.07-0.004c-0.098,0-0.196,0.024-0.282,0.07
		l-1.619,0.972c-0.248,0.131-0.511,0.197-0.773,0.197c-0.186,0-0.369-0.032-0.543-0.096l-2.606-1.11
		c-0.046-0.016-0.11-0.027-0.176-0.027c-0.098,0-0.196,0.024-0.283,0.07l-1.618,0.972c-0.222,0.118-0.457,0.176-0.689,0.176
		c-0.228,0-0.455-0.056-0.657-0.162l-1.668-1c-0.065-0.034-0.157-0.055-0.251-0.055c-0.072,0-0.142,0.012-0.208,0.036l-2.71,1.16
		l-0.001,2.912l2.343-1.002C6.829,15.169,7.019,15.135,7.21,15.135z M12.377,11.134c0.186,0,0.369,0.032,0.543,0.096l2.606,1.11
		c0.046,0.016,0.11,0.027,0.176,0.027c0.098,0,0.196-0.024,0.283-0.07l1.619-0.972c0.248-0.131,0.511-0.197,0.773-0.197
		c0.186,0,0.369,0.032,0.543,0.096l0.168,0.072l0.396-0.515c0.444-0.681,0.242-1.622-0.462-2.084
		c-0.032-0.021-0.065-0.041-0.099-0.059c-0.218-0.114-0.468-0.176-0.72-0.176c-0.444,0-0.869,0.188-1.168,0.516l-0.892,0.875
		c-0.094,0.092-0.218,0.143-0.35,0.143c-0.067,0-0.132-0.013-0.194-0.039c-0.186-0.078-0.306-0.259-0.306-0.461V9.331L12.553,8.16
		c-0.045-0.016-0.109-0.027-0.175-0.027c-0.099,0-0.197,0.024-0.283,0.07l-1.618,0.972c-0.223,0.118-0.457,0.176-0.69,0.176
		c-0.228,0-0.455-0.056-0.657-0.162l-1.668-1C7.396,8.155,7.304,8.133,7.21,8.133c-0.072,0-0.142,0.012-0.208,0.037L4.293,9.329
		l-0.001,2.913l2.342-1.001c0.195-0.072,0.384-0.105,0.576-0.105c0.258,0,0.514,0.063,0.741,0.182l1.668,1
		c0.04,0.021,0.103,0.035,0.167,0.035c0.07,0,0.139-0.017,0.2-0.049l1.618-0.972C11.852,11.2,12.115,11.134,12.377,11.134z
		 M7.21,7.135c0.258,0,0.514,0.063,0.741,0.183l1.667,1c0.041,0.021,0.103,0.035,0.167,0.035c0.069,0,0.138-0.017,0.2-0.049
		l1.618-0.972c0.248-0.131,0.511-0.197,0.773-0.197c0.186,0,0.369,0.032,0.543,0.096l2.373,1.014V6c0-0.227-0.02-0.46-0.06-0.695
		l-2.68-1.149c-0.045-0.016-0.109-0.026-0.175-0.026c-0.099,0-0.197,0.024-0.284,0.07l-1.618,0.972
		c-0.223,0.118-0.457,0.176-0.69,0.176c-0.228,0-0.455-0.056-0.657-0.162l-1.668-1C7.396,4.152,7.304,4.13,7.21,4.13
		c-0.072,0-0.142,0.012-0.208,0.036L4.3,5.326C4.296,5.388,4.294,5.445,4.294,5.5L4.293,8.241L6.634,7.24
		C6.829,7.169,7.019,7.135,7.21,7.135z M7.21,3.132c0.258,0,0.514,0.063,0.741,0.182l1.668,1C9.659,4.335,9.722,4.35,9.786,4.35
		c0.069,0,0.138-0.017,0.2-0.049l1.618-0.972c0.248-0.131,0.511-0.197,0.773-0.197c0.186,0,0.368,0.032,0.543,0.095l1.895,0.812
		C13.92,2.248,11.902,1,9.794,1c-2.145,0-4.329,1.346-5.16,3.095l2-0.857C6.829,3.166,7.018,3.132,7.21,3.132z"/>
</g>
</svg>
