<?xml version="1.0" encoding="utf-8"?>
<!-- Generator: Adobe Illustrator 22.1.0, SVG Export Plug-In . SVG Version: 6.00 Build 0)  -->
<svg version="1.1" id="Light" xmlns="http://www.w3.org/2000/svg" xmlns:xlink="http://www.w3.org/1999/xlink" x="0px" y="0px"
	 viewBox="0 0 24 24" style="enable-background:new 0 0 24 24;" xml:space="preserve">
<g>
	<title>accessories-umbrella</title>
	<path d="M0.497,22.473c-0.134,0-0.259-0.052-0.354-0.146c-0.195-0.195-0.195-0.512,0-0.707l1.407-1.407
		C0.657,15.789,5.838,8.023,10.472,1.73c0.093-0.127,0.244-0.204,0.403-0.204c0.053,0,0.105,0.008,0.155,0.025
		c0.206,0.068,0.344,0.259,0.344,0.475c0,1.12,0.3,1.946,0.868,2.388c0.325,0.254,0.718,0.382,1.167,0.382
		c0.246,0,0.44-0.04,0.534-0.063c0.014-0.004,0.045-0.008,0.06-0.009c0.021-0.003,0.04-0.005,0.061-0.005
		c0.056,0,0.111,0.01,0.165,0.028c0.086,0.034,0.144,0.071,0.19,0.117c0.124,0.125,0.175,0.307,0.132,0.476
		c-0.084,0.338-0.084,0.696,0,1.034c0.052,0.209,0.135,0.406,0.248,0.589l4.493-4.493c0.52-0.52,1.212-0.806,1.949-0.806
		s1.429,0.286,1.949,0.805c1.074,1.075,1.074,2.824,0,3.898l-0.4,0.4c-0.094,0.094-0.22,0.146-0.354,0.146s-0.259-0.052-0.354-0.146
		c-0.094-0.094-0.146-0.22-0.146-0.354c0-0.134,0.052-0.259,0.146-0.354l0.4-0.4c0.684-0.685,0.684-1.799,0-2.484
		c-0.331-0.331-0.772-0.513-1.242-0.513c-0.47,0-0.911,0.182-1.242,0.513l-4.493,4.493c0.335,0.206,0.723,0.317,1.115,0.317
		c0.172,0,0.345-0.021,0.514-0.064c0.038-0.009,0.07-0.012,0.096-0.013c0.009-0.001,0.019-0.001,0.027-0.001
		c0.062,0,0.121,0.012,0.184,0.037c0.001,0,0.003,0.001,0.004,0.002c0.065,0.027,0.119,0.062,0.165,0.107
		c0.124,0.124,0.174,0.306,0.131,0.475c-0.057,0.229-0.203,1.031,0.321,1.703c0.442,0.567,1.268,0.866,2.386,0.866
		c0.217,0,0.407,0.138,0.475,0.344s-0.004,0.43-0.179,0.559c-2.89,2.125-6.292,4.543-9.623,6.372c-3.26,1.79-5.796,2.66-7.751,2.66
		c-0.388,0-0.763-0.037-1.118-0.111l-1.402,1.401C0.756,22.421,0.631,22.473,0.497,22.473z M16.727,9.602
		c-4.704,4.469-9.091,7.969-13.059,10.419c4.569-0.24,12.09-5.608,15.451-8.065c-0.981-0.235-1.539-0.714-1.845-1.106
		C16.997,10.495,16.81,10.065,16.727,9.602z M13.549,6.477c-4.245,4.473-7.598,8.648-9.984,12.431
		c3.753-2.381,8.02-5.808,12.425-9.985c-0.584-0.119-1.123-0.401-1.556-0.823c-0.012-0.009-0.024-0.019-0.033-0.027
		c-0.018-0.018-0.031-0.035-0.04-0.048c-0.379-0.394-0.649-0.88-0.781-1.407C13.569,6.571,13.558,6.524,13.549,6.477z M10.518,3.356
		C8.031,6.753,2.683,14.234,2.452,18.807c2.446-3.969,5.944-8.356,10.411-13.06c-0.458-0.083-0.885-0.269-1.236-0.543
		C11.234,4.898,10.754,4.339,10.518,3.356z"/>
</g>
</svg>
