<?xml version="1.0" encoding="utf-8"?>
<!-- Generator: Adobe Illustrator 22.1.0, SVG Export Plug-In . SVG Version: 6.00 Build 0)  -->
<svg version="1.1" id="Light" xmlns="http://www.w3.org/2000/svg" xmlns:xlink="http://www.w3.org/1999/xlink" x="0px" y="0px"
	 viewBox="0 0 24 24" style="enable-background:new 0 0 24 24;" xml:space="preserve">
<g>
	<title>bag-purse</title>
	<path d="M8.499,23.5c-4.687,0-8.5-3.813-8.5-8.5c0-4.687,3.813-8.5,8.5-8.5h7c4.687,0,8.5,3.813,8.5,8.5c0,4.687-3.813,8.5-8.5,8.5
		H8.499z M8.499,7.5c-4.135,0-7.5,3.365-7.5,7.5s3.365,7.5,7.5,7.5h7c4.135,0,7.5-3.365,7.5-7.5s-3.365-7.5-7.5-7.5H8.499z"/>
	<path d="M22,8c-0.137,0-0.27-0.057-0.364-0.156C20.235,6.358,18.26,5.504,16.217,5.5H7.78C5.737,5.503,3.76,6.357,2.358,7.843
		C2.264,7.943,2.131,8,1.994,8c-0.128,0-0.25-0.048-0.343-0.136C1.554,7.772,1.498,7.648,1.494,7.514
		C1.49,7.381,1.539,7.254,1.63,7.157C3.221,5.472,5.462,4.503,7.779,4.5H8C7.677,4.072,7.499,3.548,7.499,3
		c0-1.379,1.121-2.5,2.5-2.5c0.798,0,1.532,0.376,2,1.003c0.468-0.627,1.202-1.003,2-1.003c1.378,0,2.5,1.121,2.5,2.5
		c0,0.548-0.178,1.072-0.501,1.5h0.22c2.316,0.005,4.556,0.973,6.146,2.657c0.189,0.201,0.18,0.518-0.021,0.707
		C22.25,7.952,22.128,8,22,8z M13.999,1.5c-0.827,0-1.5,0.673-1.5,1.5s0.673,1.5,1.5,1.5s1.5-0.673,1.5-1.5S14.826,1.5,13.999,1.5z
		 M12.002,4.5C12.001,4.499,12,4.498,11.999,4.496c-0.001,0.001-0.002,0.002-0.003,0.004H12.002z M9.999,1.5
		c-0.827,0-1.5,0.673-1.5,1.5s0.673,1.5,1.5,1.5s1.5-0.673,1.5-1.5S10.826,1.5,9.999,1.5z"/>
</g>
</svg>
