<?xml version="1.0" encoding="utf-8"?>
<!-- Generator: Adobe Illustrator 22.1.0, SVG Export Plug-In . SVG Version: 6.00 Build 0)  -->
<svg version="1.1" id="Layer_1" xmlns="http://www.w3.org/2000/svg" xmlns:xlink="http://www.w3.org/1999/xlink" x="0px" y="0px"
	 viewBox="0 0 24 24" style="enable-background:new 0 0 24 24;" xml:space="preserve">
<g>
	<title>baggage-question</title>
	<path d="M3.498,24.001c-1.93,0-3.5-1.57-3.5-3.5v-10c0-1.93,1.57-3.5,3.5-3.5H8v-1.5c0.005-1.374,1.126-2.495,2.498-2.5H13.5
		c1.239,0.003,2.272,0.914,2.467,2.099l2.516-1.447l0.105-1.585c0.022-0.334,0.208-0.633,0.498-0.8l1.812-1.043
		c0.254-0.146,0.542-0.223,0.834-0.223c0.601,0,1.159,0.322,1.458,0.841l0.587,1.022c0.004,0.008,0.019,0.037,0.023,0.045
		c0.202,0.369,0.256,0.813,0.142,1.23c-0.117,0.432-0.396,0.793-0.784,1.016l-1.81,1.042c-0.152,0.087-0.324,0.133-0.498,0.133
		c-0.153,0-0.307-0.036-0.445-0.105L18.98,4.52L16,6.235v0.766h4.498c1.93,0,3.5,1.57,3.5,3.5v10c0,1.93-1.57,3.5-3.5,3.5H3.498z
		 M20.497,23.001c1.378,0,2.5-1.122,2.5-2.5v-10c0-1.379-1.122-2.5-2.5-2.5h-0.5v15H20.497z M18.997,23.001v-15h-2v2.5
		c0,0.276-0.224,0.5-0.5,0.5s-0.5-0.224-0.5-0.5v-2.5h-8v2.5c0,0.276-0.224,0.5-0.5,0.5s-0.5-0.224-0.5-0.5v-2.5h-2v15h2v-2.5
		c0-0.276,0.224-0.5,0.5-0.5s0.5,0.224,0.5,0.5v2.5h8v-2.5c0-0.276,0.224-0.5,0.5-0.5s0.5,0.224,0.5,0.5v2.5H18.997z M3.498,8.001
		c-1.379,0-2.5,1.121-2.5,2.5v10c0,1.378,1.121,2.5,2.5,2.5h0.5v-15H3.498z M15,7.001v-1.5c-0.002-0.825-0.676-1.498-1.501-1.5H10.5
		C9.676,4.004,9.002,4.677,9,5.503v1.498H15z M20.85,4.332l1.81-1.043c0.157-0.09,0.27-0.236,0.317-0.41
		c0.047-0.175,0.024-0.357-0.066-0.514c-0.006-0.009-0.012-0.021-0.018-0.034l-0.57-0.99c-0.121-0.209-0.347-0.34-0.59-0.34
		c-0.117,0-0.234,0.031-0.336,0.09l-1.812,1.043l-0.101,1.52L20.85,4.332z"/>
	<path d="M11.998,21.001c-3.033,0-5.5-2.467-5.5-5.5s2.467-5.5,5.5-5.5c3.033,0,5.5,2.467,5.5,5.5S15.03,21.001,11.998,21.001z
		 M11.998,11.001c-2.481,0-4.5,2.019-4.5,4.5s2.019,4.5,4.5,4.5s4.5-2.019,4.5-4.5S14.479,11.001,11.998,11.001z"/>
	<path d="M12,18.751c-0.414,0-0.75-0.336-0.75-0.75c-0.001-0.199,0.077-0.387,0.217-0.529c0.141-0.142,0.329-0.221,0.529-0.221
		c0.417,0,0.754,0.336,0.754,0.75S12.413,18.751,12,18.751z"/>
	<path d="M12,16.501c-0.276,0-0.5-0.224-0.5-0.5s0.224-0.5,0.5-0.5c0.551,0,1-0.448,1-1s-0.449-1-1-1s-1,0.448-1,1
		c0,0.276-0.224,0.5-0.5,0.5s-0.5-0.224-0.5-0.5c0-1.103,0.897-2,2-2c1.103,0,2,0.897,2,2S13.102,16.501,12,16.501z"/>
</g>
</svg>
