<?xml version="1.0" encoding="utf-8"?>
<!-- Generator: Adobe Illustrator 22.1.0, SVG Export Plug-In . SVG Version: 6.00 Build 0)  -->
<svg version="1.1" id="Layer_1" xmlns="http://www.w3.org/2000/svg" xmlns:xlink="http://www.w3.org/1999/xlink" x="0px" y="0px"
	 viewBox="0 0 24 24" style="enable-background:new 0 0 24 24;" xml:space="preserve">
<g>
	<title>baggage-plane</title>
	<path d="M3.5,21.001c-1.924-0.006-3.494-1.575-3.5-3.499V7.501c0.006-1.925,1.575-3.494,3.499-3.5H8v-1.5
		c0.004-1.375,1.125-2.496,2.499-2.5H13.5c1.375,0.004,2.496,1.125,2.5,2.499v1.501h4.5c1.924,0.006,3.494,1.575,3.5,3.499v5.501
		c0,0.276-0.224,0.5-0.5,0.5s-0.5-0.224-0.5-0.5v-5.5c-0.004-1.374-1.126-2.496-2.501-2.5H20v7c0,0.276-0.224,0.5-0.5,0.5
		s-0.5-0.224-0.5-0.5v-7h-2v7c0,0.276-0.224,0.5-0.5,0.5s-0.5-0.224-0.5-0.5v-7H8v15.5c0,0.276-0.224,0.5-0.5,0.5H3.5z M7,20.001
		v-15H5v15H7z M3.501,5.001C2.126,5.005,1.004,6.127,1,7.502v9.999c0.004,1.374,1.126,2.496,2.501,2.5H4v-15H3.501z M15,4.001v-1.5
		c-0.002-0.824-0.676-1.497-1.501-1.5h-2.998C9.676,1.003,9.003,1.677,9,2.502v1.499H15z"/>
	<path d="M13.303,24.001c-0.22,0-0.432-0.068-0.613-0.195L9.329,21.45c-0.186-0.148-0.296-0.344-0.322-0.559
		c-0.026-0.213,0.033-0.424,0.166-0.592c0.001-0.002,0.003-0.004,0.004-0.005c0.042-0.053,0.09-0.1,0.144-0.141l1.379-1.219
		c0.157-0.127,0.342-0.193,0.529-0.193c0.092,0,0.183,0.016,0.27,0.046c0.031,0.011,0.061,0.025,0.089,0.042l1.491,0.886
		l1.352-0.943l-3.599-2.228c-0.021-0.013-0.04-0.027-0.058-0.042c-0.182-0.155-0.292-0.368-0.312-0.604
		c-0.02-0.236,0.054-0.465,0.206-0.645c0.046-0.053,0.093-0.098,0.146-0.137l1.04-0.77c0.154-0.114,0.336-0.175,0.527-0.175
		c0.105,0,0.21,0.019,0.309,0.056l5.608,2.088l2.492-1.701c0.333-0.229,0.725-0.351,1.132-0.351c0.15,0,0.3,0.017,0.446,0.051
		c0.001,0,0.002,0,0.003,0.001c0.707,0.165,1.272,0.673,1.512,1.358C23.96,15.888,24,16.116,24,16.35
		c0.014,0.722-0.36,1.414-0.977,1.802l-9.16,5.689C13.696,23.946,13.502,24.001,13.303,24.001z M13.266,22.988
		c0.015,0.011,0.029,0.013,0.037,0.013c0.011,0,0.022-0.003,0.032-0.009l9.158-5.688c0.32-0.201,0.514-0.563,0.507-0.943
		c0-0.126-0.021-0.243-0.06-0.354c-0.127-0.365-0.425-0.633-0.798-0.719c-0.072-0.016-0.146-0.025-0.221-0.025
		c-0.204,0-0.4,0.061-0.567,0.176l-2.707,1.848c-0.083,0.057-0.18,0.087-0.281,0.087c-0.06,0-0.118-0.01-0.174-0.031l-5.792-2.156
		l-0.847,0.627l4.051,2.508c0.144,0.089,0.232,0.243,0.237,0.411c0.004,0.17-0.076,0.328-0.214,0.424l-2.24,1.563
		c-0.084,0.059-0.183,0.09-0.286,0.09c-0.09,0-0.178-0.024-0.256-0.07l-1.601-0.952l-1.127,0.994L13.266,22.988z"/>
</g>
</svg>
