<?xml version="1.0" encoding="utf-8"?>
<!-- Generator: Adobe Illustrator 22.1.0, SVG Export Plug-In . SVG Version: 6.00 Build 0)  -->
<svg version="1.1" id="Layer_1" xmlns="http://www.w3.org/2000/svg" xmlns:xlink="http://www.w3.org/1999/xlink" x="0px" y="0px"
	 viewBox="0 0 24 24" style="enable-background:new 0 0 24 24;" xml:space="preserve">
<g>
	<title>baggage-cart</title>
	<path d="M8,23.5c-1.103,0-2-0.897-2-2s0.897-2,2-2s2,0.897,2,2S9.103,23.5,8,23.5z M8,20.5c-0.551,0-1,0.448-1,1s0.449,1,1,1
		s1-0.448,1-1S8.551,20.5,8,20.5z"/>
	<path d="M19,23.5c-1.103,0-2-0.897-2-2s0.897-2,2-2s2,0.897,2,2S20.103,23.5,19,23.5z M19,20.5c-0.552,0-1,0.448-1,1s0.448,1,1,1
		s1-0.448,1-1S19.552,20.5,19,20.5z"/>
	<path d="M5.5,18.5C4.121,18.5,3,17.378,3,16V4.508c0-1.05-0.583-1.992-1.523-2.461l-1.201-0.6C0.03,1.324-0.071,1.023,0.053,0.776
		C0.138,0.606,0.309,0.5,0.5,0.5c0.077,0,0.154,0.018,0.224,0.053l1.2,0.6C3.204,1.791,4,3.076,4,4.508V16
		c0,0.827,0.673,1.5,1.5,1.5h18c0.276,0,0.5,0.224,0.5,0.5s-0.224,0.5-0.5,0.5H5.5z"/>
	<path d="M7.5,16.5C6.673,16.5,6,15.827,6,15V6c0-0.827,0.673-1.5,1.5-1.5h4C12.327,4.5,13,5.173,13,6v9c0,0.827-0.673,1.5-1.5,1.5
		H7.5z M11.5,15.5c0.276,0,0.5-0.224,0.5-0.5V6c0-0.276-0.224-0.5-0.5-0.5H10v2h0.5C10.776,7.5,11,7.724,11,8s-0.224,0.5-0.5,0.5H10
		v4h0.5c0.276,0,0.5,0.224,0.5,0.5s-0.224,0.5-0.5,0.5H10v2H11.5z M7.5,5.5C7.224,5.5,7,5.724,7,6v9c0,0.276,0.224,0.5,0.5,0.5H9v-2
		H8.5C8.224,13.5,8,13.275,8,13s0.224-0.5,0.5-0.5H9v-4H8.5C8.224,8.5,8,8.276,8,8s0.224-0.5,0.5-0.5H9v-2H7.5z"/>
	<path d="M16.5,16.5c-0.827,0-1.5-0.673-1.5-1.5V6c0-0.827,0.673-1.5,1.5-1.5H18V3c0-0.276,0.224-0.5,0.5-0.5S19,2.724,19,3v1.5h1.5
		C21.327,4.5,22,5.173,22,6v9c0,0.827-0.673,1.5-1.5,1.5H16.5z M16,15c0,0.276,0.224,0.5,0.5,0.5h4c0.276,0,0.5-0.224,0.5-0.5v-0.5
		h-5V15z M21,13.5v-6h-5v6H21z M21,6.5V6c0-0.276-0.224-0.5-0.5-0.5h-4C16.224,5.5,16,5.724,16,6v0.5H21z"/>
</g>
</svg>
