<?xml version="1.0" encoding="utf-8"?>
<!-- Generator: Adobe Illustrator 22.1.0, SVG Export Plug-In . SVG Version: 6.00 Build 0)  -->
<svg version="1.1" id="Layer_1" xmlns="http://www.w3.org/2000/svg" xmlns:xlink="http://www.w3.org/1999/xlink" x="0px" y="0px"
	 viewBox="0 0 24 24" style="enable-background:new 0 0 24 24;" xml:space="preserve">
<g>
	<title>baggage-add</title>
	<path d="M2.5,20c-1.375-0.004-2.496-1.125-2.5-2.499V6.5C0.004,5.125,1.125,4.004,2.499,4H6V1.5C6,0.673,6.673,0,7.5,0h5
		C13.327,0,14,0.673,14,1.5V4h3.5c1.375,0.004,2.496,1.125,2.5,2.499V10c0,0.276-0.224,0.5-0.5,0.5S19,10.276,19,10V6.5
		c-0.002-0.824-0.676-1.497-1.501-1.5H16v4.5c0,0.276-0.224,0.5-0.5,0.5S15,9.776,15,9.5V5h-2v6c0,0.276-0.224,0.5-0.5,0.5
		c-0.276,0-0.5-0.224-0.5-0.5V5H8v14h1c0.276,0,0.5,0.224,0.5,0.5S9.276,20,9,20H2.5z M7,19V5H5v14H7z M2.501,5
		C1.676,5.003,1.003,5.676,1,6.501V17.5c0.003,0.824,0.676,1.498,1.501,1.5H4V5H2.501z M13,4V1.5C13,1.224,12.776,1,12.5,1h-5
		C7.224,1,7,1.224,7,1.5V4H13z"/>
	<path d="M17.5,24c-3.584,0-6.5-2.916-6.5-6.5s2.916-6.5,6.5-6.5s6.5,2.916,6.5,6.5S21.084,24,17.5,24z M17.5,12
		c-3.033,0-5.5,2.467-5.5,5.5s2.467,5.5,5.5,5.5s5.5-2.467,5.5-5.5S20.533,12,17.5,12z"/>
	<path d="M17.5,21c-0.276,0-0.5-0.224-0.5-0.5V18h-2.5c-0.276,0-0.5-0.224-0.5-0.5s0.224-0.5,0.5-0.5H17v-2.5
		c0-0.276,0.224-0.5,0.5-0.5s0.5,0.224,0.5,0.5V17h2.5c0.276,0,0.5,0.224,0.5,0.5S20.776,18,20.5,18H18v2.5
		C18,20.776,17.776,21,17.5,21z"/>
</g>
</svg>
