<?xml version="1.0" encoding="utf-8"?>
<!-- Generator: Adobe Illustrator 22.1.0, SVG Export Plug-In . SVG Version: 6.00 Build 0)  -->
<svg version="1.1" id="Layer_1" xmlns="http://www.w3.org/2000/svg" xmlns:xlink="http://www.w3.org/1999/xlink" x="0px" y="0px"
	 viewBox="0 0 24 24" style="enable-background:new 0 0 24 24;" xml:space="preserve">
<g>
	<title>baggage-drop-off</title>
	<path d="M4.5,6c-1.654,0-3-1.346-3-3s1.346-3,3-3s3,1.346,3,3S6.154,6,4.5,6z M4.5,1c-1.103,0-2,0.897-2,2s0.897,2,2,2s2-0.897,2-2
		S5.603,1,4.5,1z"/>
	<path d="M3.5,24C2.673,24,2,23.327,2,22.5V16H1.5C0.673,16,0,15.327,0,14.5v-5C0,8.121,1.121,7,2.5,7h4C7.879,7,9,8.121,9,9.5v5
		C9,15.327,8.327,16,7.5,16H7v6.5C7,23.327,6.327,24,5.5,24H3.5z M2.5,8C1.673,8,1,8.673,1,9.5v5C1,14.776,1.224,15,1.5,15h1
		C2.776,15,3,15.224,3,15.5v7C3,22.776,3.224,23,3.5,23h2C5.776,23,6,22.776,6,22.5v-7C6,15.224,6.224,15,6.5,15h1
		C7.776,15,8,14.776,8,14.5v-5C8,8.673,7.327,8,6.5,8H2.5z"/>
	<path d="M18,8.5c-0.134,0-0.259-0.052-0.354-0.146c-0.195-0.195-0.195-0.512,0-0.707L19.293,6H14.5C14.224,6,14,5.776,14,5.5
		S14.224,5,14.5,5h4.793l-1.646-1.646c-0.195-0.195-0.195-0.512,0-0.707C17.741,2.552,17.866,2.5,18,2.5s0.259,0.052,0.354,0.146
		l2.5,2.5c0.046,0.046,0.083,0.101,0.109,0.163c0.05,0.121,0.05,0.261,0,0.382c-0.025,0.061-0.062,0.116-0.109,0.163l-2.499,2.499
		C18.259,8.448,18.134,8.5,18,8.5z"/>
	<path d="M12.5,24c-0.827,0-1.5-0.673-1.5-1.5v-6c0-0.827,0.673-1.5,1.5-1.5h2v-0.5c0.004-1.375,1.125-2.496,2.499-2.5H18
		c1.375,0.004,2.496,1.125,2.5,2.499V15h2c0.827,0,1.5,0.673,1.5,1.5v6c0,0.827-0.673,1.5-1.5,1.5H12.5z M22.5,23
		c0.276,0,0.5-0.224,0.5-0.5v-6c0-0.276-0.224-0.5-0.5-0.5H21v7H22.5z M20,23v-7h-5v7H20z M12.5,16c-0.276,0-0.5,0.224-0.5,0.5v6
		c0,0.276,0.224,0.5,0.5,0.5H14v-7H12.5z M19.5,15v-0.5c-0.002-0.824-0.676-1.498-1.501-1.5h-0.998
		c-0.825,0.002-1.499,0.676-1.501,1.501L19.5,15z"/>
</g>
</svg>
