<?xml version="1.0" encoding="utf-8"?>
<!-- Generator: Adobe Illustrator 22.1.0, SVG Export Plug-In . SVG Version: 6.00 Build 0)  -->
<svg version="1.1" id="Layer_1" xmlns="http://www.w3.org/2000/svg" xmlns:xlink="http://www.w3.org/1999/xlink" x="0px" y="0px"
	 viewBox="0 0 24 24" style="enable-background:new 0 0 24 24;" xml:space="preserve">
<g>
	<title>baggage-leave</title>
	<path d="M9,6C7.346,6,6,4.654,6,3s1.346-3,3-3s3,1.346,3,3S10.654,6,9,6z M9,1C7.897,1,7,1.897,7,3s0.897,2,2,2s2-0.897,2-2
		S10.103,1,9,1z"/>
	<path d="M15.5,18c-0.827,0-1.5-0.673-1.5-1.5v-5c0-0.827,0.673-1.5,1.5-1.5H17c0-1.103,0.897-2,2-2s2,0.897,2,2h1.5
		c0.827,0,1.5,0.673,1.5,1.5v5c0,0.827-0.673,1.5-1.5,1.5H15.5z M15.5,11c-0.276,0-0.5,0.224-0.5,0.5v5c0,0.276,0.224,0.5,0.5,0.5h7
		c0.276,0,0.5-0.224,0.5-0.5v-5c0-0.276-0.224-0.5-0.5-0.5H15.5z M20,10c0-0.551-0.448-1-1-1s-1,0.449-1,1H20z"/>
	<path d="M2,24c-1.103,0-2-0.897-2-2v-6.5c0-0.327,0.082-0.653,0.236-0.942l4-7.5c0.253-0.472,0.674-0.816,1.185-0.971
		c0.19-0.057,0.385-0.086,0.581-0.086c0.326,0,0.652,0.082,0.943,0.238c0.33,0.177,0.603,0.442,0.79,0.767l1.6,2.793l2.72,0.776
		c0.519,0.159,0.939,0.506,1.189,0.978c0.25,0.472,0.302,1.013,0.145,1.524c-0.26,0.845-1.026,1.414-1.907,1.414c0,0,0,0,0,0
		c-0.173,0-0.347-0.023-0.516-0.068l-2.726-0.778c-0.885-0.252-1.642-0.791-2.166-1.534L4,15.998V22C4,23.103,3.103,24,2,24z
		 M6.001,7.002c-0.098,0-0.196,0.015-0.291,0.043C5.454,7.123,5.244,7.295,5.118,7.53l-4,7.499C1.041,15.174,1,15.337,1,15.5V22
		c0,0.552,0.449,1,1,1s1-0.448,1-1v-6.127c0-0.082,0.02-0.163,0.059-0.235l2.546-4.773c0.085-0.16,0.251-0.261,0.432-0.265
		c0,0,0,0,0,0c0.186,0,0.353,0.096,0.442,0.25l0.254,0.437c0.391,0.686,1.023,1.182,1.78,1.397l2.718,0.776
		c0.08,0.021,0.166,0.033,0.252,0.033c0.438,0,0.82-0.285,0.95-0.708c0.079-0.255,0.053-0.526-0.072-0.762
		c-0.125-0.236-0.335-0.409-0.59-0.488l-2.707-0.773c-0.251-0.069-0.463-0.234-0.596-0.463L6.866,7.505
		C6.773,7.342,6.637,7.21,6.471,7.121C6.326,7.043,6.163,7.002,6.001,7.002z"/>
	<path d="M17.25,22.25c-0.414,0-0.75-0.336-0.75-0.75c0-0.391,0.305-0.718,0.696-0.746c0.003,0,0.006-0.001,0.008-0.001
		c0.017-0.002,0.031-0.003,0.046-0.003c0.414,0,0.75,0.336,0.75,0.75S17.664,22.25,17.25,22.25z"/>
	<circle cx="20.75" cy="21.5" r="0.75"/>
	<circle cx="13.75" cy="21.5" r="0.75"/>
	<path d="M12.5,24c-1.379,0-2.5-1.122-2.5-2.5s1.121-2.5,2.5-2.5h11c0.276,0,0.5,0.224,0.5,0.5S23.776,20,23.5,20h-11
		c-0.827,0-1.5,0.673-1.5,1.5s0.673,1.5,1.5,1.5h11c0.276,0,0.5,0.224,0.5,0.5S23.776,24,23.5,24H12.5z"/>
</g>
</svg>
