<?xml version="1.0" encoding="utf-8"?>
<!-- Generator: Adobe Illustrator 22.1.0, SVG Export Plug-In . SVG Version: 6.00 Build 0)  -->
<svg version="1.1" id="Layer_1" xmlns="http://www.w3.org/2000/svg" xmlns:xlink="http://www.w3.org/1999/xlink" x="0px" y="0px"
	 viewBox="0 0 24 24" style="enable-background:new 0 0 24 24;" xml:space="preserve">
<g>
	<title>vintage-car-7</title>
	<path d="M18,20.5c-0.552,0-1-0.448-1-1v-1h-2V19c0,0.276-0.224,0.5-0.5,0.5h-5C9.224,19.5,9,19.276,9,19v-0.5H7v1
		c0,0.552-0.449,1-1,1H4c-0.551,0-1-0.448-1-1v-1.258C1.198,17.606,0,15.924,0,14c0.005-0.746,0.211-1.474,0.596-2.109
		c0.57-0.942,1.473-1.606,2.543-1.87c0.321-0.079,0.651-0.119,0.98-0.119c0.155,0,0.31,0.009,0.465,0.026l0.788-4.992
		c0.088-0.73,0.669-1.322,1.41-1.431C6.805,3.502,6.83,3.5,6.855,3.5h10.292c0.025,0,0.049,0.002,0.074,0.005
		c0.74,0.11,1.319,0.706,1.408,1.449l0.787,4.974c0.148-0.017,0.293-0.026,0.434-0.027c0,0,0.027,0,0.028,0
		c2.258,0,4.108,1.837,4.123,4.096c0,1.927-1.198,3.61-3,4.246V19.5c0,0.552-0.448,1-1,1H18z M18,19.5h2v-1.03
		c-0.171,0.02-0.336,0.03-0.5,0.03H18V19.5z M4,19.5h2v-1H4.5c-0.164,0-0.329-0.01-0.5-0.03V19.5z M14,18.5v-2h-4v2H14z M19.5,17.5
		c1.93,0,3.5-1.57,3.5-3.5c-0.011-1.708-1.412-3.099-3.123-3.099c-0.584,0.004-1.137,0.16-1.618,0.452l-4.123,2.537
		c-0.642,0.401-1.379,0.613-2.13,0.613c-0.734,0-1.458-0.203-2.092-0.588l-4.176-2.563C5.251,11.056,4.695,10.9,4.13,10.9
		c-0.252,0-0.505,0.031-0.753,0.092c-0.81,0.199-1.495,0.702-1.927,1.416C1.16,12.889,1.004,13.441,1,14.003
		C1,15.931,2.57,17.5,4.5,17.5H9V16c0-0.276,0.224-0.5,0.5-0.5h5c0.276,0,0.5,0.224,0.5,0.5v1.5H19.5z M10.435,13.061
		c0.475,0.289,1.019,0.441,1.57,0.441c0.565,0,1.119-0.16,1.604-0.462l3.886-2.391c-1.517-1.068-3.35-1.653-5.202-1.653
		c-0.093,0-0.185,0.001-0.278,0.004c-0.108-0.003-0.201-0.004-0.294-0.004c-1.89,0-3.685,0.57-5.216,1.653L10.435,13.061z
		 M12.298,7.996c2.209,0,4.378,0.745,6.132,2.102l-0.792-5.006c-0.037-0.304-0.25-0.536-0.534-0.592H6.897
		c-0.281,0.055-0.5,0.289-0.534,0.574L5.57,10.098c1.755-1.357,3.93-2.102,6.149-2.102c0.099,0,0.198,0.001,0.296,0.004
		C12.099,7.997,12.199,7.996,12.298,7.996z"/>
	<path d="M4,16c-1.103,0-2-0.897-2-2s0.897-2,2-2s2,0.897,2,2S5.103,16,4,16z M4,13c-0.551,0-1,0.448-1,1s0.449,1,1,1s1-0.448,1-1
		S4.551,13,4,13z"/>
	<path d="M19.999,16c-1.103,0-2-0.897-2-2s0.897-2,2-2s2,0.897,2,2S21.102,16,19.999,16z M19.999,13c-0.552,0-1,0.448-1,1
		s0.448,1,1,1s1-0.448,1-1S20.551,13,19.999,13z"/>
	<path d="M12,12.5c-0.414,0-0.751-0.336-0.751-0.75c0-0.011,0.001-0.023,0.003-0.035C11.268,11.321,11.601,11,12,11
		c0.398,0.002,0.728,0.32,0.747,0.714c0.002,0.012,0.003,0.025,0.003,0.036C12.75,12.164,12.414,12.5,12,12.5z"/>
</g>
</svg>
