<?xml version="1.0" encoding="utf-8"?>
<!-- Generator: Adobe Illustrator 22.1.0, SVG Export Plug-In . SVG Version: 6.00 Build 0)  -->
<svg version="1.1" id="Layer_1" xmlns="http://www.w3.org/2000/svg" xmlns:xlink="http://www.w3.org/1999/xlink" x="0px" y="0px"
	 viewBox="0 0 24 24" style="enable-background:new 0 0 24 24;" xml:space="preserve">
<g>
	<title>vintage-car-3</title>
	<path d="M18.5,18.5c-1.199,0-2.215-0.845-2.449-2H9.949c-0.234,1.155-1.25,2-2.449,2s-2.215-0.845-2.449-2H0.5
		C0.224,16.5,0,16.276,0,16s0.224-0.5,0.5-0.5H1V12c0-3.575,2.908-6.49,6.483-6.5l3.899,0c0.572,0,1.086,0.318,1.341,0.83
		l1.586,3.17h6.344c0.737,0,1.359,0.528,1.479,1.254l0.791,4.746H23.5c0.276,0,0.5,0.224,0.5,0.5s-0.224,0.5-0.5,0.5h-2.551
		C20.715,17.655,19.699,18.5,18.5,18.5z M18.5,14.5c-0.827,0-1.5,0.673-1.5,1.5s0.673,1.5,1.5,1.5S20,16.827,20,16
		S19.327,14.5,18.5,14.5z M7.5,14.5C6.673,14.5,6,15.173,6,16s0.673,1.5,1.5,1.5S9,16.827,9,16S8.327,14.5,7.5,14.5z M21.91,15.5
		l-0.131-0.788c-0.015-0.025-0.028-0.052-0.038-0.079c-0.488-1.298-1.699-2.137-3.083-2.137c-0.051,0-0.103,0.001-0.155,0.004
		c-1.889,0-5.173,1.564-6.963,2.496c-0.071,0.037-0.151,0.057-0.231,0.057c-0.157,0-0.307-0.075-0.401-0.201
		c-0.147-0.197-0.282-0.398-0.412-0.593c-0.663-0.994-1.184-1.774-2.997-1.774c-2.319,0-4.14,1.876-5.032,3.016h2.583
		c0.234-1.155,1.25-2,2.449-2s2.215,0.845,2.449,2h6.102c0.234-1.155,1.25-2,2.449-2s2.215,0.845,2.449,2H21.91z M7.196,6.51
		C4.317,6.67,2,9.1,2,12v2.489c0.258-0.302,0.529-0.59,0.811-0.859c1.471-1.404,3.093-2.146,4.689-2.146
		c2.348,0,3.133,1.176,3.825,2.213c0.047,0.071,0.094,0.141,0.142,0.211C13.667,12.786,16.6,11.5,18.48,11.5
		c0.055-0.003,0.121-0.004,0.187-0.004c1.014,0,1.978,0.355,2.74,0.995l-0.262-1.572c-0.04-0.242-0.248-0.418-0.493-0.418h-9.917
		c-0.953,0-1.81-0.53-2.236-1.383L7.196,6.51z M9.394,8.67c0.256,0.512,0.77,0.83,1.342,0.83h2.455l-1.362-2.723
		C11.744,6.606,11.572,6.5,11.382,6.5H8.309L9.394,8.67z"/>
</g>
</svg>
