<?xml version="1.0" encoding="utf-8"?>
<!-- Generator: Adobe Illustrator 22.1.0, SVG Export Plug-In . SVG Version: 6.00 Build 0)  -->
<svg version="1.1" id="Layer_1" xmlns="http://www.w3.org/2000/svg" xmlns:xlink="http://www.w3.org/1999/xlink" x="0px" y="0px"
	 viewBox="0 0 24 24" style="enable-background:new 0 0 24 24;" xml:space="preserve">
<g>
	<title>vintage-car-4</title>
	<path d="M18.5,17c-0.789,0-1.526-0.371-1.999-1H8.999C8.526,16.629,7.789,17,7,17c-1.199,0-2.215-0.845-2.449-2H1.5
		C0.673,15,0,14.327,0,13.5v-1C0,12.224,0.224,12,0.5,12h0.337L0.156,9.618c-0.031-0.08-0.048-0.206-0.039-0.327
		C0.135,9.063,0.24,8.855,0.414,8.706C0.569,8.572,0.767,8.499,0.97,8.499c0.023,0,0.046,0.001,0.069,0.003L3,8.5
		c0.479,0.026,0.903,0.25,1.177,0.616L4.767,10h0.975c1.359-1.881,3.541-3,5.864-3H14c0.444,0.022,0.849,0.17,1.185,0.429l3,2.571
		H22.5c0.827,0,1.5,0.673,1.5,1.5v3c0,0.827-0.673,1.5-1.5,1.5h-2.001C20.026,16.629,19.289,17,18.5,17z M18.5,13
		c-0.827,0-1.5,0.673-1.5,1.5s0.673,1.5,1.5,1.5s1.5-0.673,1.5-1.5S19.327,13,18.5,13z M7,13c-0.827,0-1.5,0.673-1.5,1.5
		S6.173,16,7,16s1.5-0.673,1.5-1.5S7.827,13,7,13z M22.5,15c0.276,0,0.5-0.224,0.5-0.5V13h-1c-0.276,0-0.5-0.224-0.5-0.5
		c0-0.276,0.224-0.5,0.5-0.5h1v-0.5c0-0.276-0.224-0.5-0.5-0.5h-18c-0.168,0-0.323-0.083-0.416-0.223L3.361,9.693
		C3.279,9.585,3.13,9.508,2.972,9.499L1.161,9.5l0.82,2.863c0.043,0.15,0.012,0.314-0.081,0.438C1.805,12.926,1.656,13,1.5,13H1v0.5
		C1,13.776,1.224,14,1.5,14h3.051c0.234-1.155,1.25-2,2.449-2c1.379,0,2.5,1.122,2.5,2.5c0,0.167-0.017,0.334-0.052,0.5h6.604
		C16.017,14.834,16,14.667,16,14.5c0-1.378,1.122-2.5,2.5-2.5s2.5,1.122,2.5,2.5c0,0.167-0.017,0.334-0.052,0.5H22.5z M16.648,10
		l-2.094-1.795C14.406,8.091,14.207,8.016,14,8.001V10H16.648z M13,10V8h-1.394C9.847,8,8.207,8.723,7.03,10H13z"/>
	<path d="M13.5,13c-0.276,0-0.5-0.224-0.5-0.5c0-0.276,0.224-0.5,0.5-0.5h1c0.276,0,0.5,0.224,0.5,0.5c0,0.276-0.224,0.5-0.5,0.5
		H13.5z"/>
</g>
</svg>
