<?xml version="1.0" encoding="utf-8"?>
<!-- Generator: Adobe Illustrator 22.1.0, SVG Export Plug-In . SVG Version: 6.00 Build 0)  -->
<svg version="1.1" id="Layer_1" xmlns="http://www.w3.org/2000/svg" xmlns:xlink="http://www.w3.org/1999/xlink" x="0px" y="0px"
	 viewBox="0 0 24 24" style="enable-background:new 0 0 24 24;" xml:space="preserve">
<g>
	<title>bus-double-1</title>
	<path d="M19.045,24c-1.199,0-2.215-0.845-2.449-2H7.494c-0.234,1.155-1.25,2-2.449,2s-2.215-0.845-2.449-2H1.045
		c-0.551,0-1-0.448-1-1V1c0-0.551,0.449-1,1-1h17.5c1.378,0,2.5,1.121,2.5,2.5V15h1.077c0.491,0,0.906,0.352,0.986,0.836l0.833,5
		c0.009,0.052,0.014,0.108,0.014,0.164c0,0.267-0.104,0.518-0.293,0.707C23.473,21.896,23.222,22,22.955,22h-1.461
		C21.26,23.155,20.244,24,19.045,24z M19.045,20c-0.827,0-1.5,0.673-1.5,1.5s0.673,1.5,1.5,1.5s1.5-0.673,1.5-1.5
		S19.872,20,19.045,20z M5.045,20c-0.827,0-1.5,0.673-1.5,1.5s0.673,1.5,1.5,1.5s1.5-0.673,1.5-1.5S5.872,20,5.045,20z M22.955,21
		l-0.167-1h-1.744c0.222,0.295,0.376,0.635,0.45,1H22.955z M16.596,21c0.074-0.365,0.228-0.705,0.45-1H7.044
		c0.222,0.295,0.376,0.635,0.45,1H16.596z M1.045,21h1.551c0.074-0.365,0.228-0.705,0.45-1H1.045V21z M22.621,19l-0.5-3H1.045v3
		H22.621z M20.045,15v-3h-4L20.045,15z M15.045,15v-3h-4L15.045,15z M10.045,15v-3h-4v3H10.045z M5.045,15v-3h-4v3H5.045z
		 M20.045,11V8h-19v3H20.045z M20.045,7V4h-4v3H20.045z M15.045,7V4h-4v3H15.045z M10.045,7V4h-4v3H10.045z M5.045,7V4h-4v3H5.045z
		 M20.045,3V2.5c0-0.827-0.673-1.5-1.5-1.5h-17.5v2H20.045z"/>
</g>
</svg>
