<?xml version="1.0" encoding="utf-8"?>
<!-- Generator: Adobe Illustrator 22.1.0, SVG Export Plug-In . SVG Version: 6.00 Build 0)  -->
<svg version="1.1" id="Layer_1" xmlns="http://www.w3.org/2000/svg" xmlns:xlink="http://www.w3.org/1999/xlink" x="0px" y="0px"
	 viewBox="0 0 24 24" style="enable-background:new 0 0 24 24;" xml:space="preserve">
<g>
	<title>bus-ticket</title>
	<path d="M12.25,23.5c-0.827,0-1.5-0.673-1.5-1.5v-7c0-0.827,0.673-1.5,1.5-1.5h10c0.827,0,1.5,0.673,1.5,1.5v7
		c0,0.827-0.673,1.5-1.5,1.5H12.25z M11.75,22c0,0.276,0.224,0.5,0.5,0.5h10c0.276,0,0.5-0.224,0.5-0.5v-3.5h-11V22z M22.75,17.5v-1
		h-11v1H22.75z M22.75,15.5V15c0-0.276-0.224-0.5-0.5-0.5h-10c-0.276,0-0.5,0.224-0.5,0.5v0.5H22.75z"/>
	<circle cx="13.25" cy="21" r="0.75"/>
	<path d="M6.75,23.5c-0.827,0-1.5-0.673-1.5-1.5v-1.551c-1.155-0.234-2-1.25-2-2.449v-7.5h-1.5c-0.827,0-1.5-0.673-1.5-1.5V6
		c0-0.827,0.673-1.5,1.5-1.5h1.5V3c0-1.379,1.121-2.5,2.5-2.5h12c1.378,0,2.5,1.121,2.5,2.5v1.5h1.5c0.827,0,1.5,0.673,1.5,1.5v3
		c0,0.827-0.673,1.5-1.5,1.5h-1.5v1.508c0,0.276-0.224,0.5-0.5,0.5s-0.5-0.224-0.5-0.5V3c0-0.827-0.673-1.5-1.5-1.5h-12
		c-0.827,0-1.5,0.673-1.5,1.5v10.5h5c0.276,0,0.5,0.224,0.5,0.5s-0.224,0.5-0.5,0.5h-5V18c0,0.827,0.673,1.5,1.5,1.5h3.537
		c0.276,0,0.5,0.224,0.5,0.5s-0.224,0.5-0.5,0.5H8.25V22C8.25,22.827,7.577,23.5,6.75,23.5z M6.25,22c0,0.276,0.224,0.5,0.5,0.5
		s0.5-0.224,0.5-0.5v-1.5h-1V22z M21.75,9.5c0.276,0,0.5-0.224,0.5-0.5V6c0-0.276-0.224-0.5-0.5-0.5h-1.5v4H21.75z M1.75,5.5
		c-0.276,0-0.5,0.224-0.5,0.5v3c0,0.276,0.224,0.5,0.5,0.5h1.5v-4H1.75z"/>
	<path d="M5.75,16.5c-0.276,0-0.5-0.224-0.5-0.5s0.224-0.5,0.5-0.5h1c0.276,0,0.5,0.224,0.5,0.5s-0.224,0.5-0.5,0.5H5.75z"/>
	<circle cx="6.75" cy="3.5" r="0.75"/>
	<path d="M9.25,4c-0.276,0-0.5-0.224-0.5-0.5S8.974,3,9.25,3h4c0.276,0,0.5,0.224,0.5,0.5S13.526,4,13.25,4H9.25z"/>
</g>
</svg>
