<?xml version="1.0" encoding="utf-8"?>
<!-- Generator: Adobe Illustrator 22.1.0, SVG Export Plug-In . SVG Version: 6.00 Build 0)  -->
<svg version="1.1" id="Layer_1" xmlns="http://www.w3.org/2000/svg" xmlns:xlink="http://www.w3.org/1999/xlink" x="0px" y="0px"
	 viewBox="0 0 24 24" style="enable-background:new 0 0 24 24;" xml:space="preserve">
<g>
	<title>bus-2</title>
	<path d="M17.5,23.5c-0.827,0-1.5-0.673-1.5-1.5v-1.5H8V22c0,0.827-0.673,1.5-1.5,1.5S5,22.827,5,22v-1.551
		C3.845,20.215,3,19.199,3,18v-7.5H1.5C0.673,10.5,0,9.827,0,9V6c0-0.827,0.673-1.5,1.5-1.5H3V3c0-1.379,1.121-2.5,2.5-2.5h13
		C19.878,0.5,21,1.621,21,3v1.5h1.5C23.327,4.5,24,5.173,24,6v3c0,0.827-0.673,1.5-1.5,1.5H21V18c0,1.199-0.845,2.215-2,2.449V22
		C19,22.827,18.327,23.5,17.5,23.5z M17,22c0,0.276,0.224,0.5,0.5,0.5S18,22.276,18,22v-1.5h-1V22z M6,22c0,0.276,0.224,0.5,0.5,0.5
		S7,22.276,7,22v-1.5H6V22z M4,18c0,0.827,0.673,1.5,1.5,1.5h13c0.827,0,1.5-0.673,1.5-1.5v-3.5H4V18z M20,13.5V3
		c0-0.827-0.673-1.5-1.5-1.5h-13C4.673,1.5,4,2.173,4,3v10.5H20z M22.5,9.5C22.776,9.5,23,9.276,23,9V6c0-0.276-0.224-0.5-0.5-0.5
		H21v4H22.5z M1.5,5.5C1.224,5.5,1,5.724,1,6v3c0,0.276,0.224,0.5,0.5,0.5H3v-4H1.5z"/>
	<path d="M5.5,16.5C5.224,16.5,5,16.276,5,16s0.224-0.5,0.5-0.5h2C7.776,15.5,8,15.724,8,16s-0.224,0.5-0.5,0.5H5.5z"/>
	<path d="M16.5,16.5c-0.276,0-0.5-0.224-0.5-0.5s0.224-0.5,0.5-0.5h2c0.276,0,0.5,0.224,0.5,0.5s-0.224,0.5-0.5,0.5H16.5z"/>
	<circle cx="6.5" cy="3.5" r="0.75"/>
	<path d="M9,4C8.724,4,8.5,3.776,8.5,3.5S8.724,3,9,3h5c0.276,0,0.5,0.224,0.5,0.5S14.276,4,14,4H9z"/>
</g>
</svg>
