<?xml version="1.0" encoding="utf-8"?>
<!-- Generator: Adobe Illustrator 22.1.0, SVG Export Plug-In . SVG Version: 6.00 Build 0)  -->
<svg version="1.1" id="Layer_1" xmlns="http://www.w3.org/2000/svg" xmlns:xlink="http://www.w3.org/1999/xlink" x="0px" y="0px"
	 viewBox="0 0 24 24" style="enable-background:new 0 0 24 24;" xml:space="preserve">
<g>
	<title>truck-2</title>
	<path d="M17.5,20c-0.789,0-1.526-0.371-1.999-1H6.499c-0.472,0.629-1.21,1-1.999,1s-1.526-0.371-1.999-1H1.5
		C0.673,19,0,18.327,0,17.5v-11C0,5.121,1.121,4,2.5,4h15.264c1.57,0,2.981,0.872,3.683,2.276l2.053,4.106
		c0.327,0.655,0.5,1.387,0.5,2.118v5c0,0.827-0.673,1.5-1.5,1.5h-3.001C19.026,19.629,18.289,20,17.5,20z M16.226,18.286
		C16.502,18.733,16.978,19,17.5,19c0.526,0,1.004-0.271,1.281-0.723c0,0,0.013-0.023,0.018-0.03C18.929,18.023,19,17.762,19,17.5
		c0-0.827-0.673-1.5-1.5-1.5S16,16.673,16,17.5c0,0.262,0.071,0.522,0.205,0.752C16.208,18.256,16.216,18.268,16.226,18.286z
		 M3.226,18.287C3.503,18.734,3.978,19,4.5,19C5.327,19,6,18.327,6,17.5S5.327,16,4.5,16S3,16.673,3,17.5
		c0,0.262,0.07,0.521,0.204,0.75C3.207,18.255,3.216,18.268,3.226,18.287z M22.5,18c0.276,0,0.5-0.224,0.5-0.5v-1.273l-2.329-2.034
		C19.793,13.425,18.667,13.001,17.5,13H1v4.5C1,17.776,1.224,18,1.5,18h0.552C2.017,17.834,2,17.667,2,17.5
		C2,16.122,3.121,15,4.5,15S7,16.122,7,17.5c0,0.167-0.017,0.334-0.052,0.5h8.104C15.017,17.834,15,17.667,15,17.5
		c0-1.378,1.122-2.5,2.5-2.5s2.5,1.122,2.5,2.5c0,0.167-0.017,0.334-0.052,0.5H22.5z M17.5,12c1.409,0.001,2.769,0.513,3.829,1.44
		L23,14.899V12.5c0-0.511-0.109-1.026-0.316-1.5H7.5C6.673,11,6,10.327,6,9.5V7H1v5H17.5z M22.191,10l-1.5-3H18v3H22.191z M17,10V7
		h-5v3H17z M7,9.5C7,9.776,7.224,10,7.5,10H11V7H7V9.5z M20.052,6c-0.583-0.633-1.408-1-2.289-1H2.5C1.86,5,1.297,5.414,1.088,6
		H20.052z"/>
	<path d="M2.5,9C2.224,9,2,8.776,2,8.5S2.224,8,2.5,8h2C4.776,8,5,8.224,5,8.5S4.776,9,4.5,9H2.5z"/>
	<path d="M2.5,11C2.224,11,2,10.776,2,10.5S2.224,10,2.5,10h2C4.776,10,5,10.224,5,10.5S4.776,11,4.5,11H2.5z"/>
</g>
</svg>
