<?xml version="1.0" encoding="utf-8"?>
<!-- Generator: Adobe Illustrator 22.1.0, SVG Export Plug-In . SVG Version: 6.00 Build 0)  -->
<svg version="1.1" id="Layer_1" xmlns="http://www.w3.org/2000/svg" xmlns:xlink="http://www.w3.org/1999/xlink" x="0px" y="0px"
	 viewBox="0 0 24 24" style="enable-background:new 0 0 24 24;" xml:space="preserve">
<g>
	<title>truck-empty</title>
	<path d="M17.5,20c-1.378,0-2.5-1.122-2.5-2.5s1.122-2.5,2.5-2.5s2.5,1.122,2.5,2.5S18.878,20,17.5,20z M17.5,16
		c-0.827,0-1.5,0.673-1.5,1.5s0.673,1.5,1.5,1.5s1.5-0.673,1.5-1.5S18.327,16,17.5,16z"/>
	<path d="M4.5,20C3.121,20,2,18.878,2,17.5S3.121,15,4.5,15S7,16.122,7,17.5S5.879,20,4.5,20z M4.5,16C3.673,16,3,16.673,3,17.5
		S3.673,19,4.5,19S6,18.327,6,17.5S5.327,16,4.5,16z"/>
	<path d="M8.5,18C8.224,18,8,17.776,8,17.5S8.224,17,8.5,17h5c0.276,0,0.5,0.224,0.5,0.5S13.776,18,13.5,18H8.5z"/>
	<path d="M21.5,18c-0.276,0-0.5-0.224-0.5-0.5s0.224-0.5,0.5-0.5h1c0.276,0,0.5-0.224,0.5-0.5V15h-1c-0.276,0-0.5-0.224-0.5-0.5
		S21.724,14,22,14h1v-0.882c0-0.19-0.106-0.362-0.277-0.447L20.382,11.5H15V15c0,0.276-0.224,0.5-0.5,0.5S14,15.276,14,15v-1H1.5
		C1.224,14,1,14.224,1,14.5V17c0,0.276-0.224,0.5-0.5,0.5S0,17.276,0,17v-2.5C0,13.673,0.673,13,1.5,13H14V6.828
		c0-0.4-0.156-0.777-0.439-1.061l-0.914-0.914C12.552,4.759,12.5,4.634,12.5,4.5c0-0.134,0.052-0.259,0.146-0.354S12.866,4,13,4
		s0.259,0.052,0.354,0.146l0.914,0.914C14.74,5.533,15,6.16,15,6.828V7h3.746c0.666,0,1.258,0.447,1.441,1.087l0.733,2.564
		l2.25,1.126C23.682,12.032,24,12.546,24,13.117V16.5c0,0.827-0.673,1.5-1.5,1.5H21.5z M19.837,10.5l-0.611-2.138
		C19.165,8.149,18.968,8,18.746,8H15v2.5H19.837z"/>
</g>
</svg>
