<?xml version="1.0" encoding="utf-8"?>
<!-- Generator: Adobe Illustrator 22.1.0, SVG Export Plug-In . SVG Version: 6.00 Build 0)  -->
<svg version="1.1" id="Layer_1" xmlns="http://www.w3.org/2000/svg" xmlns:xlink="http://www.w3.org/1999/xlink" x="0px" y="0px"
	 viewBox="0 0 24 24" style="enable-background:new 0 0 24 24;" xml:space="preserve">
<g>
	<title>truck-cargo-1</title>
	<path d="M17.5,22.75c-1.199,0-2.215-0.845-2.449-2H8.949c-0.234,1.155-1.25,2-2.449,2c-0.798,0-1.532-0.376-2-1.003
		c-0.468,0.627-1.202,1.003-2,1.003c-1.379,0-2.5-1.122-2.5-2.5s1.121-2.5,2.5-2.5c0.798,0,1.532,0.376,2,1.003
		c0.468-0.627,1.202-1.003,2-1.003c1.199,0,2.215,0.845,2.449,2H9v-3H0.5c-0.276,0-0.5-0.224-0.5-0.5s0.224-0.5,0.5-0.5H9v-1H0.5
		c-0.276,0-0.5-0.224-0.5-0.5s0.224-0.5,0.5-0.5H9v-11c0-0.276-0.224-0.5-0.5-0.5H6v3.5c0,0.276-0.224,0.5-0.5,0.5S5,6.026,5,5.75
		v-3.5H2v3.5c0,0.276-0.224,0.5-0.5,0.5S1,6.026,1,5.75v-3.5H0.5C0.224,2.25,0,2.026,0,1.75s0.224-0.5,0.5-0.5h8
		c0.827,0,1.5,0.673,1.5,1.5v17h1V3.169c0-0.4,0.156-0.776,0.44-1.06c0.283-0.284,0.66-0.44,1.06-0.44
		c0.172,0,0.342,0.029,0.505,0.087l3.781,1.35c1.159,0.415,1.993,1.438,2.177,2.644H19.5c1.93,0,3.5,1.57,3.5,3.5v7.586
		c0.59,0.209,1,0.774,1,1.414v1c0,0.827-0.673,1.5-1.5,1.5h-2.551C19.715,21.905,18.699,22.75,17.5,22.75z M17.5,18.75
		c-0.827,0-1.5,0.673-1.5,1.5s0.673,1.5,1.5,1.5s1.5-0.673,1.5-1.5S18.327,18.75,17.5,18.75z M6.5,18.75c-0.827,0-1.5,0.673-1.5,1.5
		s0.673,1.5,1.5,1.5S8,21.077,8,20.25S7.327,18.75,6.5,18.75z M2.5,18.75c-0.827,0-1.5,0.673-1.5,1.5s0.673,1.5,1.5,1.5
		S4,21.077,4,20.25S3.327,18.75,2.5,18.75z M22.5,19.75c0.276,0,0.5-0.224,0.5-0.5v-1c0-0.276-0.224-0.5-0.5-0.5h-5
		c1.199,0,2.215,0.845,2.449,2H22.5z M15.051,19.75c0.234-1.155,1.25-2,2.449-2H12v2H15.051z M22,16.75v-3H12v3H22z M22,12.75v-3.5
		c0-1.379-1.122-2.5-2.5-2.5H19v6H22z M18,12.75v-6h-6v6H18z M17.944,5.75c-0.172-0.779-0.736-1.43-1.495-1.702l-3.781-1.35
		c-0.054-0.019-0.111-0.029-0.168-0.029c-0.133,0-0.259,0.052-0.353,0.147S12,3.036,12,3.169V5.75H17.944z"/>
</g>
</svg>
