<?xml version="1.0" encoding="utf-8"?>
<!-- Generator: Adobe Illustrator 22.1.0, SVG Export Plug-In . SVG Version: 6.00 Build 0)  -->
<svg version="1.1" id="Layer_1" xmlns="http://www.w3.org/2000/svg" xmlns:xlink="http://www.w3.org/1999/xlink" x="0px" y="0px"
	 viewBox="0 0 24 24" style="enable-background:new 0 0 24 24;" xml:space="preserve">
<g>
	<title>truck-3</title>
	<path d="M6.998,18c-1.103,0-2-0.897-2-2s0.897-2,2-2s2,0.897,2,2S8.101,18,6.998,18z M6.998,15c-0.551,0-1,0.448-1,1s0.449,1,1,1
		s1-0.448,1-1S7.55,15,6.998,15z"/>
	<path d="M16.999,18c-1.103,0-2-0.897-2-2s0.897-2,2-2s2,0.897,2,2S18.101,18,16.999,18z M16.999,15c-0.552,0-1,0.448-1,1
		s0.448,1,1,1s1-0.448,1-1S17.55,15,16.999,15z"/>
	<path d="M17.999,23.5c-0.612,0-1.5-0.487-1.5-1.25V21.5h-9v0.75c0,0.763-0.888,1.25-1.5,1.25s-1.5-0.487-1.5-1.25V21.5h-1.5
		c-0.551,0-1-0.448-1-1v-1c0-0.552,0.449-1,1-1v-4.25L0.71,12.529C0.252,12.13-0.002,11.577-0.002,11
		c0-0.534,0.208-1.036,0.586-1.414C0.962,9.208,1.464,9,1.998,9h1V8c0-1.124,0.218-2.169,0.649-3.106
		c0.018-0.082,0.055-0.158,0.108-0.22C5.095,2.021,8.097,0.5,11.998,0.5c3.901,0,6.903,1.521,8.244,4.173
		c0.054,0.062,0.091,0.137,0.108,0.221C20.78,5.831,20.999,6.876,20.999,8v1h1c0.576,0,1.124,0.249,1.503,0.682
		c0.727,0.829,0.644,2.095-0.186,2.822l-2.318,1.746v4.25c0.552,0,1,0.448,1,1v1c0,0.552-0.448,1-1,1h-1.5v0.75
		C19.499,23.013,18.61,23.5,17.999,23.5z M17.499,22.25c0.022,0.073,0.287,0.25,0.5,0.25s0.478-0.177,0.501-0.258l0-0.742h-1V22.25z
		 M5.498,22.25c0.022,0.073,0.287,0.25,0.5,0.25s0.478-0.177,0.501-0.258L6.499,21.5h-1V22.25z M2.998,20.5h18v-1h-18h0L2.998,20.5z
		 M19.999,18.5v-7.683c-3.71,0.958-6.531,3.927-7.298,7.683H19.999z M11.296,18.5c-0.767-3.755-3.588-6.724-7.298-7.683V18.5H11.296
		z M6.08,10.5c2.823,1.298,4.987,3.748,5.919,6.723c0.932-2.975,3.096-5.425,5.918-6.723H6.08z M1.998,10
		c-0.267,0-0.518,0.104-0.707,0.293S0.998,10.733,0.998,11c0,0.289,0.124,0.563,0.342,0.753l1.659,1.246V10H1.998z M20.999,12.998
		l1.687-1.27c0.392-0.345,0.427-0.973,0.064-1.388C22.56,10.124,22.286,10,21.998,10h-1V12.998z M19.999,9.5V8
		c0-0.887-0.161-1.728-0.48-2.5h-7.02v4H19.999z M11.498,9.5v-4h-7.02C4.16,6.272,3.998,7.113,3.998,8v1.5H11.498z M18.988,4.5
		c-0.959-1.447-2.933-3-6.989-3s-6.03,1.553-6.989,3H18.988z"/>
</g>
</svg>
