<?xml version="1.0" encoding="utf-8"?>
<!-- Generator: Adobe Illustrator 22.1.0, SVG Export Plug-In . SVG Version: 6.00 Build 0)  -->
<svg version="1.1" id="Layer_1" xmlns="http://www.w3.org/2000/svg" xmlns:xlink="http://www.w3.org/1999/xlink" x="0px" y="0px"
	 viewBox="0 0 24 24" style="enable-background:new 0 0 24 24;" xml:space="preserve">
<g>
	<title>truck-cargo</title>
	<path d="M17.5,20c-1.378,0-2.5-1.122-2.5-2.5s1.122-2.5,2.5-2.5s2.5,1.122,2.5,2.5S18.878,20,17.5,20z M17.5,16
		c-0.827,0-1.5,0.673-1.5,1.5s0.673,1.5,1.5,1.5s1.5-0.673,1.5-1.5S18.327,16,17.5,16z"/>
	<path d="M4.5,20C3.121,20,2,18.878,2,17.5S3.121,15,4.5,15S7,16.122,7,17.5S5.879,20,4.5,20z M4.5,16C3.673,16,3,16.673,3,17.5
		S3.673,19,4.5,19S6,18.327,6,17.5S5.327,16,4.5,16z"/>
	<path d="M9,18c-0.276,0-0.5-0.224-0.5-0.5S8.724,17,9,17h4.5c0.276,0,0.5,0.224,0.5,0.5S13.776,18,13.5,18H9z"/>
	<path d="M21.5,18c-0.276,0-0.5-0.224-0.5-0.5s0.224-0.5,0.5-0.5h1c0.276,0,0.5-0.224,0.5-0.5v-3.382
		c0-0.19-0.106-0.362-0.277-0.447L20.382,11.5H15V15c0,0.276-0.224,0.5-0.5,0.5S14,15.276,14,15v-1H1v1.5C1,15.776,0.776,16,0.5,16
		S0,15.776,0,15.5v-10C0,4.673,0.673,4,1.5,4H18c1.378,0,2.5,1.121,2.5,2.5V7c0,0.333-0.162,0.631-0.423,0.814
		c0.047,0.088,0.083,0.179,0.11,0.273l0.733,2.564l2.25,1.126C23.682,12.032,24,12.546,24,13.117V16.5c0,0.827-0.673,1.5-1.5,1.5
		H21.5z M14,13V5H1.5C1.224,5,1,5.224,1,5.5V13H14z M19.837,10.5l-0.611-2.138C19.165,8.149,18.968,8,18.746,8H15v2.5H19.837z
		 M19.5,7V6.5C19.5,5.673,18.827,5,18,5h-3v2H19.5z"/>
</g>
</svg>
