<?xml version="1.0" encoding="utf-8"?>
<!-- Generator: Adobe Illustrator 22.1.0, SVG Export Plug-In . SVG Version: 6.00 Build 0)  -->
<svg version="1.1" id="Layer_1" xmlns="http://www.w3.org/2000/svg" xmlns:xlink="http://www.w3.org/1999/xlink" x="0px" y="0px"
	 viewBox="0 0 24 24" style="enable-background:new 0 0 24 24;" xml:space="preserve">
<g>
	<title>truck-rv</title>
	<path d="M19,22.5c-1.199,0-2.215-0.845-2.449-2H7.449c-0.234,1.155-1.25,2-2.449,2s-2.215-0.845-2.449-2H1c-0.551,0-1-0.448-1-1
		v-17c0-0.551,0.449-1,1-1h18.17c0.4,0,0.76,0.236,0.918,0.601l2.572,6.002c0.106,0.242,0.111,0.514,0.013,0.762
		c-0.098,0.249-0.286,0.444-0.531,0.551c-0.121,0.052-0.267,0.083-0.4,0.083H19.85l2.053,3.696L23.708,15
		C23.896,15.19,24,15.441,24,15.707V19.5c0,0.552-0.448,1-1,1h-1.551C21.215,21.655,20.199,22.5,19,22.5z M19,18.5
		c-0.827,0-1.5,0.673-1.5,1.5s0.673,1.5,1.5,1.5s1.5-0.673,1.5-1.5S19.827,18.5,19,18.5z M5,18.5c-0.827,0-1.5,0.673-1.5,1.5
		s0.673,1.5,1.5,1.5s1.5-0.673,1.5-1.5S5.827,18.5,5,18.5z M23,19.5v-1h-2.001c0.222,0.295,0.376,0.635,0.45,1H23z M16.551,19.5
		c0.074-0.365,0.228-0.705,0.45-1H6.999c0.222,0.295,0.376,0.635,0.45,1H16.551z M1,19.5h1.551c0.074-0.365,0.228-0.705,0.45-1H1
		V19.5z M23,17.5v-1.793L21.293,14H15v3.5H23z M14,17.5v-6H1v6H14z M20.65,13l-1.945-3.5H15V13H20.65z M14,10.5V9
		c0-0.276,0.224-0.5,0.5-0.5h7.221c0.005-0.001,0.011-0.002,0.017-0.002l-2.567-6L1,2.5v8H14z"/>
	<path d="M15,7.5c-0.552,0-1-0.449-1-1v-2c0-0.551,0.448-1,1-1h2.14c0.431,0,0.812,0.275,0.949,0.684l0.667,2
		c0.034,0.102,0.052,0.208,0.052,0.317c0,0.268-0.105,0.519-0.294,0.708C18.324,7.396,18.073,7.5,17.807,7.5H15z M15,6.5h2.806
		l-0.666-2L15,4.5L15,6.5z"/>
	<path d="M3,7.5c-0.551,0-1-0.449-1-1v-2c0-0.551,0.449-1,1-1h8c0.551,0,1,0.449,1,1v2c0,0.551-0.449,1-1,1H3z M3,6.5h8v-2H3L3,6.5z
		"/>
</g>
</svg>
