<?xml version="1.0" encoding="utf-8"?>
<!-- Generator: Adobe Illustrator 22.1.0, SVG Export Plug-In . SVG Version: 6.00 Build 0)  -->
<svg version="1.1" id="Layer_1" xmlns="http://www.w3.org/2000/svg" xmlns:xlink="http://www.w3.org/1999/xlink" x="0px" y="0px"
	 viewBox="0 0 24 24" style="enable-background:new 0 0 24 24;" xml:space="preserve">
<g>
	<title>truck</title>
	<path d="M8.667,18c-0.551,0-1-0.448-1-1v-5c0-0.551,0.449-1,1-1h7c0.552,0,1,0.449,1,1v5c0,0.552-0.448,1-1,1H8.667z M8.667,17h7
		v-5h-7L8.667,17z"/>
	<path d="M10.167,16c-0.276,0-0.5-0.224-0.5-0.5v-2c0-0.276,0.224-0.5,0.5-0.5s0.5,0.224,0.5,0.5v2
		C10.667,15.776,10.443,16,10.167,16z"/>
	<path d="M12.167,16c-0.276,0-0.5-0.224-0.5-0.5v-2c0-0.276,0.224-0.5,0.5-0.5c0.276,0,0.5,0.224,0.5,0.5v2
		C12.667,15.776,12.443,16,12.167,16z"/>
	<path d="M14.167,16c-0.276,0-0.5-0.224-0.5-0.5v-2c0-0.276,0.224-0.5,0.5-0.5s0.5,0.224,0.5,0.5v2
		C14.667,15.776,14.443,16,14.167,16z"/>
	<path d="M17.686,23c-0.552,0-1-0.448-1-1v-1.14h-9V22c0,0.552-0.449,1-1,1H4.667c-0.551,0-1-0.448-1-1v-1.14h-0.5
		c-0.827,0-1.5-0.673-1.5-1.5V10c0-0.551,0.449-1,1-1V6.536C2.53,5.645,1.783,5,0.884,5L0.843,5c-0.281,0-0.505-0.22-0.51-0.491
		C0.328,4.233,0.548,4.005,0.824,4l0.033,0c1.411,0,2.617,1.046,2.806,2.432C3.665,6.454,3.667,6.477,3.667,6.5V9
		c0.551,0,1,0.449,1,1v4h1V3.5c0-1.379,1.121-2.5,2.5-2.5h8c1.378,0,2.5,1.121,2.5,2.5V14h1v-4c0-0.551,0.448-1,1-1V6.5
		c0-1.379,1.122-2.5,2.5-2.5c0.276,0,0.5,0.224,0.5,0.5S23.443,5,23.167,5c-0.827,0-1.5,0.673-1.5,1.5V9c0.552,0,1,0.449,1,1v8.225
		c0.013,0.044,0.019,0.09,0.019,0.135s-0.006,0.091-0.019,0.135v0.865c0,0.827-0.673,1.5-1.5,1.5h-0.5V22c0,0.552-0.448,1-1,1
		H17.686z M17.686,22h1.981v-1.14h-1.981V22z M4.667,22h2.019v-1.14H4.667V22z M2.667,19.36c0,0.276,0.224,0.5,0.5,0.5h18
		c0.276,0,0.5-0.224,0.5-0.5v-0.5h-1.981c-0.276,0-0.5-0.224-0.5-0.5s0.224-0.5,0.5-0.5h1.981V16.5c0-0.827-0.673-1.5-1.5-1.5h-1.5
		c-0.552,0-1-0.448-1-1v-4h-11v4c0,0.552-0.449,1-1,1h-1.5c-0.827,0-1.5,0.673-1.5,1.5v1.36h2.019c0.276,0,0.5,0.224,0.5,0.5
		s-0.224,0.5-0.5,0.5H2.667V19.36z M2.667,14.501c0.295-0.222,0.635-0.376,1-0.45V10h-1L2.667,14.501z M20.667,14.051
		c0.365,0.074,0.705,0.228,1,0.45V10h-1L20.667,14.051z M17.667,9V5h-5v4H17.667z M11.667,9V5h-5v4H11.667z M17.667,4V3.5
		c0-0.827-0.673-1.5-1.5-1.5h-8c-0.827,0-1.5,0.673-1.5,1.5V4H17.667z"/>
</g>
</svg>
