<?xml version="1.0" encoding="utf-8"?>
<!-- Generator: Adobe Illustrator 22.1.0, SVG Export Plug-In . SVG Version: 6.00 Build 0)  -->
<svg version="1.1" id="Light" xmlns="http://www.w3.org/2000/svg" xmlns:xlink="http://www.w3.org/1999/xlink" x="0px" y="0px"
	 viewBox="0 0 24 24" style="enable-background:new 0 0 24 24;" xml:space="preserve">
<g>
	<title>chick-1_1</title>
	<path d="M10.511,22.492c-4.218,0-6.698-1.695-8.035-3.117c-1.574-1.674-2.477-3.914-2.477-6.146c0-2.785,1.444-4.729,3.513-4.729
		c0.276,0,0.5,0.224,0.5,0.5c0.001,1.378,1.123,2.5,2.5,2.5h4.503c0.584,0,1.137-0.257,1.515-0.696C11.555,9.786,11,8.412,11,6.999
		c0-3.032,2.467-5.5,5.5-5.5c2.829,0,5.174,2.141,5.463,4.925C22.57,6.227,23,5.655,23,5c0-0.276,0.224-0.5,0.5-0.5S24,4.724,24,5
		c0,0.797-0.375,1.532-1,2c0.625,0.468,1,1.203,1,2c0,0.276-0.224,0.5-0.5,0.5S23,9.276,23,9c0-0.654-0.429-1.226-1.034-1.424
		c-0.109,1.07-0.519,2.062-1.197,2.892c0.159,0.495,0.24,1.01,0.239,1.532c-0.001,2.803-1.093,5.439-3.076,7.42
		c-1.982,1.981-4.616,3.072-7.418,3.072H10.511z M3.055,9.553c-0.998,0.236-2.056,1.304-2.056,3.677c0,1.98,0.804,3.971,2.206,5.461
		c1.724,1.833,4.251,2.802,7.307,2.802c2.538,0,4.922-0.987,6.714-2.779c1.794-1.793,2.782-4.177,2.783-6.713
		c0.001-0.5-0.091-0.991-0.273-1.457c-0.069-0.178-0.032-0.377,0.096-0.518c0.755-0.829,1.17-1.903,1.169-3.025
		C21,4.519,18.982,2.5,16.5,2.5c-2.481,0-4.5,2.019-4.5,4.5c0,1.287,0.552,2.514,1.515,3.368c0.177,0.156,0.219,0.418,0.103,0.622
		c-0.533,0.931-1.53,1.51-2.603,1.511h-4.5C4.791,12.5,3.323,11.226,3.055,9.553z"/>
	<circle cx="17.508" cy="6" r="0.75"/>
	<path d="M11.508,19.503c-1.994,0-3.835-1.082-4.805-2.823c-0.134-0.24-0.047-0.545,0.193-0.68c0.076-0.042,0.159-0.063,0.243-0.063
		c0.182,0,0.349,0.098,0.437,0.257c0.794,1.425,2.3,2.31,3.931,2.31c1.205-0.001,2.334-0.469,3.184-1.32
		c0.849-0.85,1.317-1.981,1.316-3.182c0-0.276,0.224-0.5,0.5-0.5c0.276,0,0.5,0.224,0.5,0.5c0.001,1.469-0.57,2.851-1.608,3.89
		c-1.038,1.039-2.419,1.612-3.888,1.613H11.508z"/>
</g>
</svg>
