<?xml version="1.0" encoding="utf-8"?>
<!-- Generator: Adobe Illustrator 22.1.0, SVG Export Plug-In . SVG Version: 6.00 Build 0)  -->
<svg version="1.1" id="Light" xmlns="http://www.w3.org/2000/svg" xmlns:xlink="http://www.w3.org/1999/xlink" x="0px" y="0px"
	 viewBox="0 0 24 24" style="enable-background:new 0 0 24 24;" xml:space="preserve">
<g>
	<title>chicken-footstep</title>
	<path d="M11.999,24c-1.468,0-2.401-1.69-2.44-1.762L0.306,5.605c-0.267-0.45-0.343-0.986-0.21-1.504
		c0.133-0.517,0.459-0.952,0.918-1.225c0.309-0.183,0.66-0.28,1.016-0.28c0.167,0,0.335,0.021,0.499,0.063
		c0.464,0.119,0.866,0.397,1.14,0.789c0.78,0.202,1.525,0.304,2.215,0.304c0,0,0,0,0,0c2.67,0,3.845-1.489,4.122-1.908
		C10.087,0.805,10.949,0,11.999,0c1.052,0,1.914,0.806,1.992,1.848c0.268,0.418,1.414,1.912,4.088,1.911
		c0.698,0,1.455-0.104,2.25-0.31c0.257-0.368,0.632-0.64,1.064-0.769c0.187-0.056,0.38-0.084,0.574-0.084
		c0.329,0,0.657,0.084,0.949,0.242c0.47,0.254,0.812,0.676,0.965,1.188s0.097,1.053-0.157,1.523l-9.288,16.694
		C14.399,22.313,13.464,24,11.999,24z M2.032,3.597c-0.177,0-0.353,0.048-0.508,0.14C1.295,3.873,1.131,4.091,1.065,4.35
		C0.999,4.608,1.037,4.877,1.174,5.107l9.263,16.65C10.444,21.771,11.132,23,11.999,23c0.866,0,1.554-1.228,1.561-1.24l9.285-16.69
		c0.126-0.232,0.154-0.502,0.077-0.758c-0.076-0.256-0.248-0.467-0.483-0.594c-0.146-0.079-0.31-0.121-0.474-0.121
		c-0.097,0-0.193,0.014-0.287,0.042c-0.256,0.076-0.467,0.248-0.594,0.483l-7.151,12.625C13.845,16.903,13.679,17,13.499,17
		c-0.043,0-0.086-0.006-0.128-0.017c-0.219-0.057-0.372-0.256-0.372-0.483V2c0-0.551-0.448-1-1-1c-0.551,0-1,0.449-1,1v14.5
		c0,0.227-0.153,0.426-0.373,0.483C10.585,16.994,10.542,17,10.499,17c-0.18,0-0.346-0.097-0.435-0.253L2.892,4.084
		c-0.134-0.226-0.351-0.389-0.61-0.455C2.2,3.608,2.116,3.597,2.032,3.597z M9.999,14.603V3.323C9.234,3.983,7.906,4.755,5.88,4.755
		c-0.489,0-1.004-0.046-1.537-0.137L9.999,14.603z M13.999,14.603l5.656-9.986c-0.536,0.092-1.055,0.138-1.548,0.138
		c-1.242,0-2.348-0.279-3.287-0.829c-0.295-0.173-0.569-0.369-0.82-0.587V14.603z"/>
</g>
</svg>
