<?xml version="1.0" encoding="utf-8"?>
<!-- Generator: Adobe Illustrator 22.1.0, SVG Export Plug-In . SVG Version: 6.00 Build 0)  -->
<svg version="1.1" id="Light" xmlns="http://www.w3.org/2000/svg" xmlns:xlink="http://www.w3.org/1999/xlink" x="0px" y="0px"
	 viewBox="0 0 24 24" style="enable-background:new 0 0 24 24;" xml:space="preserve">
<g>
	<title>duck-water</title>
	<path d="M18.503,5.265c-0.413,0-0.749-0.334-0.751-0.745c0-0.018,0.002-0.036,0.006-0.054c0.011-0.18,0.086-0.349,0.216-0.479
		c0.136-0.137,0.317-0.215,0.51-0.221c0.006,0,0.012-0.001,0.018-0.001c0.382,0,0.703,0.292,0.744,0.668
		c0.005,0.019,0.011,0.047,0.011,0.082c0,0.414-0.336,0.75-0.75,0.75C18.505,5.265,18.503,5.265,18.503,5.265z"/>
	<path d="M1.758,18.676c-0.181,0-0.348-0.098-0.437-0.256c-1.644-2.935-1.449-6.278-0.986-7.336
		c0.138-0.315,0.319-0.496,0.554-0.552c0.055-0.013,0.114-0.02,0.173-0.02c0.262,0,0.545,0.122,1.014,0.323
		c0.962,0.414,2.746,1.182,5.43,1.182h6c0.387,0,0.918,0,1.018-0.081c0.02-0.046,0.073-0.344-0.482-1.733
		c-0.745-1.863-0.877-4.669,0.312-6.425c0.789-1.165,2.013-1.757,3.639-1.76c0.064-0.007,0.151-0.011,0.237-0.011
		c0.781,0,1.53,0.333,2.063,0.916c0.016,0.009,0.034,0.02,0.052,0.036C21.44,3.876,23.99,6.13,23.99,7.254
		c0,0.649-0.355,0.953-0.567,1.076c-0.214,0.125-0.489,0.188-0.818,0.188c-1.385,0-3.498-1.099-4.213-1.494
		c-0.233,0.026-0.405,0.146-0.524,0.368c-0.347,0.648-0.114,1.847,0.555,2.849c0.199,0.299,0.476,0.586,0.796,0.919
		c1.054,1.095,2.494,2.591,2.747,6.206c0.019,0.275-0.188,0.514-0.464,0.534c-0.006,0-0.022,0.001-0.028,0.001
		c-0.27,0-0.488-0.2-0.506-0.465c-0.227-3.253-1.469-4.543-2.467-5.58c-0.34-0.353-0.661-0.686-0.911-1.061
		c-0.889-1.333-1.132-2.891-0.604-3.876c0.311-0.581,0.851-0.902,1.521-0.902c0.009,0,0.032,0.001,0.036,0.001
		c0.011,0,0.028,0.001,0.045,0.004c0.015,0,0.052,0.001,0.088,0.001c0.319,0,0.615-0.104,0.854-0.301
		c0.274-0.226,0.445-0.545,0.479-0.899c0.008-0.085,0.008-0.173,0-0.259c-0.106-0.872-0.886-1.56-1.773-1.56
		c-0.059,0-0.119,0.003-0.179,0.009c-0.009,0.001-0.042,0.003-0.05,0.003c-1.281,0-2.231,0.444-2.824,1.321
		c-0.994,1.468-0.859,3.875-0.211,5.493c0.606,1.517,0.701,2.192,0.374,2.675c-0.346,0.511-1.005,0.511-1.838,0.511h-6
		c-0.873,0-1.734-0.078-2.564-0.231c0.565,1.558,1.719,3.229,4.064,3.229h4c0.276,0,0.5,0.224,0.5,0.5s-0.224,0.5-0.5,0.5h-4
		c-3.37,0-4.698-2.749-5.2-4.49c-0.929-0.257-1.642-0.564-2.121-0.771c-0.134-0.058-0.328-0.141-0.469-0.194
		c-0.24,0.699-0.604,3.546,0.979,6.37c0.065,0.116,0.081,0.251,0.045,0.38c-0.036,0.128-0.12,0.235-0.237,0.301
		C1.928,18.654,1.843,18.676,1.758,18.676z M19.913,6.676c0.951,0.443,2.046,0.85,2.686,0.85c0.179,0,0.273-0.033,0.32-0.06
		c0.021-0.012,0.07-0.041,0.07-0.212c0-0.256-0.679-1.132-1.983-2.366c-0.001,0.011-0.002,0.022-0.003,0.033
		c-0.06,0.62-0.359,1.179-0.84,1.575C20.084,6.562,20.001,6.622,19.913,6.676z"/>
	<path d="M7.138,21.988c-0.046,0-0.092-0.002-0.138-0.006c-0.399-0.036-0.76-0.226-1.017-0.533l-0.964-1.158
		c-0.019-0.022-0.04-0.044-0.064-0.063c-0.091-0.075-0.202-0.115-0.323-0.115c-0.015,0-0.03,0.001-0.044,0.002
		c-0.131,0.012-0.251,0.075-0.337,0.177l-0.964,1.157c-0.058,0.07-0.122,0.134-0.192,0.192c-0.269,0.225-0.609,0.348-0.958,0.348
		c-0.046,0-0.092-0.002-0.138-0.006c-0.399-0.036-0.76-0.226-1.017-0.533l-0.866-1.041c-0.085-0.102-0.126-0.232-0.114-0.365
		c0.012-0.133,0.075-0.254,0.178-0.339c0.089-0.074,0.203-0.116,0.32-0.116c0.149,0,0.289,0.066,0.385,0.18l0.866,1.04
		c0.085,0.102,0.206,0.165,0.339,0.177c0.014,0.001,0.029,0.002,0.044,0.002c0.119,0,0.23-0.04,0.322-0.116
		c0.023-0.019,0.045-0.041,0.064-0.064l0.963-1.156c0.257-0.308,0.618-0.497,1.017-0.534c0.046-0.004,0.09-0.006,0.134-0.006
		c0.351,0,0.693,0.124,0.962,0.348c0.069,0.057,0.133,0.122,0.191,0.191l0.965,1.158c0.085,0.102,0.206,0.165,0.339,0.177
		c0.014,0.001,0.029,0.002,0.044,0.002c0.119,0,0.23-0.04,0.321-0.116c0.023-0.019,0.045-0.041,0.064-0.064l0.963-1.156
		c0.257-0.308,0.618-0.497,1.017-0.534c0.046-0.004,0.09-0.006,0.134-0.006c0.351,0,0.693,0.124,0.962,0.348
		c0.069,0.057,0.133,0.122,0.191,0.191l0.965,1.158c0.085,0.102,0.206,0.165,0.339,0.177c0.015,0.001,0.031,0.002,0.046,0.002
		c0.118,0,0.228-0.04,0.319-0.116c0.023-0.019,0.045-0.041,0.064-0.063l0.964-1.157c0.257-0.308,0.618-0.497,1.017-0.534
		c0.046-0.004,0.09-0.006,0.135-0.006c0.356,0,0.689,0.12,0.962,0.348c0.069,0.057,0.133,0.121,0.191,0.19l0.964,1.158
		c0.085,0.102,0.206,0.165,0.339,0.177c0.013,0.001,0.028,0.002,0.043,0.002c0.12,0,0.231-0.04,0.323-0.116
		c0.023-0.019,0.044-0.041,0.063-0.063l0.964-1.157c0.257-0.308,0.618-0.497,1.017-0.534c0.046-0.004,0.09-0.006,0.135-0.006
		c0.356,0,0.689,0.12,0.962,0.348c0.069,0.057,0.133,0.121,0.191,0.19l0.964,1.158c0.085,0.102,0.206,0.165,0.339,0.177
		c0.013,0.001,0.028,0.002,0.043,0.002c0.12,0,0.231-0.04,0.323-0.116c0.023-0.019,0.044-0.041,0.063-0.063l0.6-0.719
		c0.096-0.114,0.236-0.179,0.384-0.179c0.117,0,0.23,0.041,0.32,0.116c0.212,0.177,0.24,0.493,0.063,0.705l-0.6,0.718
		c-0.058,0.069-0.122,0.134-0.192,0.191c-0.268,0.224-0.609,0.347-0.959,0.347l0,0c-0.447,0-0.868-0.196-1.153-0.539l-0.964-1.158
		c-0.019-0.022-0.04-0.044-0.063-0.063c-0.091-0.076-0.203-0.116-0.323-0.116c-0.015,0-0.029,0.001-0.044,0.002
		c-0.131,0.012-0.251,0.075-0.337,0.177l-0.963,1.157c-0.058,0.07-0.123,0.134-0.192,0.192c-0.269,0.224-0.609,0.348-0.958,0.348
		c-0.045,0-0.091-0.002-0.137-0.006c-0.4-0.036-0.761-0.226-1.017-0.533l-0.964-1.158c-0.019-0.022-0.04-0.044-0.063-0.063
		c-0.091-0.076-0.202-0.116-0.32-0.116c-0.149,0-0.29,0.065-0.385,0.179l-0.963,1.157c-0.058,0.07-0.123,0.134-0.192,0.192
		c-0.269,0.224-0.61,0.348-0.959,0.348c-0.045,0-0.09-0.002-0.136-0.006c-0.4-0.036-0.76-0.226-1.017-0.533l-0.964-1.158
		c-0.019-0.022-0.04-0.044-0.064-0.063c-0.091-0.075-0.202-0.115-0.323-0.115c-0.015,0-0.03,0.001-0.045,0.002
		c-0.131,0.012-0.251,0.075-0.337,0.177l-0.964,1.157c-0.058,0.07-0.122,0.134-0.192,0.192C7.827,21.865,7.487,21.988,7.138,21.988z
		"/>
</g>
</svg>
