<?xml version="1.0" encoding="utf-8"?>
<!-- Generator: Adobe Illustrator 22.1.0, SVG Export Plug-In . SVG Version: 6.00 Build 0)  -->
<svg version="1.1" id="Light" xmlns="http://www.w3.org/2000/svg" xmlns:xlink="http://www.w3.org/1999/xlink" x="0px" y="0px"
	 viewBox="0 0 24 24" style="enable-background:new 0 0 24 24;" xml:space="preserve">
<g>
	<title>duck</title>
	<path d="M11.979,24c-4.348,0-7.132-1.34-8.511-4.095c-0.884-1.768-0.168-2.732,0.463-3.582c0.05-0.067,0.099-0.134,0.147-0.201
		c-2.871-3.701-2.781-8.948,0.238-12.55c1.716-2.047,4.126-3.303,6.787-3.537c0.296-0.026,0.596-0.039,0.891-0.039
		c2.335,0,4.611,0.83,6.409,2.338c4.096,3.434,4.739,9.58,1.477,13.788c0.048,0.067,0.097,0.133,0.147,0.2
		c0.631,0.851,1.346,1.814,0.462,3.583C19.111,22.66,16.328,24,11.979,24z M6.188,10.002c-0.047,0-0.237,0.028-0.686,0.388
		c-1.021,0.818-0.844,1.18-0.416,2.056c0.283,0.58,0.604,1.238,0.604,2.142c0,1.043-0.53,1.757-0.956,2.33
		c-0.59,0.795-0.98,1.321-0.371,2.539C5.555,21.841,8.047,23,11.979,23c3.933,0,6.424-1.159,7.616-3.543
		c0.61-1.219,0.219-1.744-0.371-2.539c-0.426-0.574-0.955-1.288-0.955-2.33c0-0.905,0.321-1.562,0.604-2.142
		c0.427-0.875,0.604-1.238-0.417-2.056c-0.449-0.36-0.639-0.388-0.686-0.388c-0.092,0.015-0.259,0.287-0.369,0.467
		C17.027,11.079,16.464,12,14.979,12c-1.094,0-1.582-0.524-1.974-0.944c-0.323-0.347-0.518-0.556-1.026-0.556
		c-0.509,0-0.704,0.209-1.026,0.556C10.561,11.476,10.074,12,8.979,12c-1.485,0-2.048-0.92-2.421-1.529
		C6.447,10.289,6.28,10.017,6.2,10.003L6.188,10.002z M11.995,0.995c-0.266,0-0.537,0.012-0.804,0.035
		C8.796,1.241,6.627,2.372,5.082,4.214c-2.652,3.163-2.826,7.602-0.476,10.942c0.056-0.186,0.083-0.372,0.083-0.569
		c0-0.674-0.244-1.174-0.503-1.704c-0.448-0.917-0.955-1.957,0.69-3.274c0.525-0.421,0.928-0.608,1.307-0.608
		c0.064,0,0.127,0.006,0.189,0.016c0.524,0.092,0.785,0.518,1.038,0.93C7.756,10.512,8.055,11,8.979,11
		c0.659,0,0.903-0.262,1.242-0.626c0.363-0.39,0.814-0.874,1.758-0.874c0.944,0,1.395,0.484,1.758,0.874
		C14.076,10.737,14.32,11,14.979,11c0.924,0,1.223-0.487,1.568-1.052c0.252-0.412,0.513-0.839,1.039-0.93
		c0.061-0.011,0.124-0.016,0.188-0.016c0.38,0,0.783,0.188,1.308,0.608c1.645,1.318,1.138,2.357,0.69,3.274
		c-0.259,0.53-0.502,1.03-0.502,1.704c0,0.196,0.027,0.382,0.083,0.567c2.677-3.812,2.019-9.03-1.591-12.056
		C16.12,1.723,14.126,0.995,11.995,0.995z"/>
	<circle cx="9.229" cy="6.75" r="0.75"/>
	<circle cx="14.729" cy="6.75" r="0.75"/>
	<path d="M9.979,15.5c-0.054,0-0.107-0.009-0.158-0.026c-0.126-0.042-0.229-0.131-0.289-0.25s-0.069-0.255-0.027-0.382l0.5-1.5
		C10.073,13.137,10.263,13,10.479,13c0.054,0,0.107,0.009,0.159,0.026c0.126,0.042,0.229,0.131,0.289,0.25s0.069,0.255,0.027,0.382
		l-0.5,1.5C10.385,15.362,10.195,15.5,9.979,15.5z"/>
	<path d="M13.979,15.5c-0.216,0-0.406-0.137-0.474-0.342l-0.5-1.5c-0.042-0.127-0.033-0.263,0.027-0.382s0.162-0.208,0.289-0.25
		C13.373,13.008,13.426,13,13.48,13c0.215,0,0.406,0.137,0.474,0.342l0.5,1.5c0.042,0.127,0.033,0.263-0.027,0.382
		s-0.162,0.208-0.289,0.25C14.086,15.491,14.033,15.5,13.979,15.5z"/>
</g>
</svg>
