<?xml version="1.0" encoding="utf-8"?>
<!-- Generator: Adobe Illustrator 22.1.0, SVG Export Plug-In . SVG Version: 6.00 Build 0)  -->
<svg version="1.1" id="Light" xmlns="http://www.w3.org/2000/svg" xmlns:xlink="http://www.w3.org/1999/xlink" x="0px" y="0px"
	 viewBox="0 0 24 24" style="enable-background:new 0 0 24 24;" xml:space="preserve">
<g>
	<title>duck-2</title>
	<path d="M12.984,24c-0.202,0-0.384-0.121-0.461-0.308C12.52,23.686,12.247,23.03,11.865,22H6.448c0.303,0.82,0.498,1.309,0.5,1.314
		c0.05,0.124,0.048,0.26-0.005,0.383s-0.15,0.218-0.274,0.267C6.611,23.988,6.548,24,6.484,24c-0.206,0-0.388-0.123-0.464-0.314
		C5.855,23.273,1.984,13.525,1.984,8c0-4.411,3.589-8,8-8s8,3.589,8,8c0,1.732,1.752,5.002,3.4,7.2
		c0.378,0.504,0.595,1.01,0.627,1.462c0.035,0.49-0.139,0.906-0.49,1.169c-0.226,0.169-0.51,0.258-0.822,0.258l0,0
		c-0.73,0-1.501-0.47-2.115-1.289c-1.602-1.927-3.349-3.787-5.187-5.517c-1.025-0.773-1.65-0.888-1.932-0.888
		c-0.125,0-0.196,0.022-0.216,0.03c-0.014,0.009-0.027,0.016-0.04,0.023c-0.945,0.472-0.895,2.99,0.133,6.733
		c0.862,3.141,2.092,6.098,2.104,6.127c0.052,0.124,0.052,0.26,0.001,0.383c-0.051,0.124-0.147,0.22-0.27,0.271
		C13.115,23.987,13.051,24,12.984,24z M11.502,21c-0.446-1.261-0.824-2.456-1.125-3.555c-1.247-4.541-1.126-7.12,0.369-7.885
		c0.09-0.057,0.328-0.168,0.72-0.168c0.701,0,1.531,0.351,2.465,1.043c0.187,0.043,0.372,0.064,0.552,0.064
		c1.379,0,2.5-1.121,2.501-2.499c0-3.86-3.14-7-7-7c-3.86,0-7,3.14-7,7c0,3.733,1.915,9.677,3.101,13H11.502z M15.013,11.458
		c1.554,1.524,3.018,3.111,4.356,4.722c0.506,0.674,1.034,0.91,1.335,0.91c0.09,0,0.165-0.021,0.217-0.06
		c0.077-0.057,0.109-0.182,0.089-0.343c-0.021-0.175-0.113-0.471-0.426-0.888c-1.172-1.563-2.558-3.891-3.213-5.83
		C16.825,10.769,15.968,11.311,15.013,11.458z"/>
	<path d="M14.484,7.25c-0.414,0-0.75-0.336-0.75-0.75c0-0.408,0.329-0.742,0.735-0.75c0.005,0,0.009,0,0.014,0
		c0.413,0,0.749,0.334,0.751,0.745c0,0.001,0,0.003,0,0.004c0.001,0.412-0.333,0.749-0.746,0.751
		C14.488,7.25,14.485,7.25,14.484,7.25z"/>
</g>
</svg>
