<?xml version="1.0" encoding="utf-8"?>
<!-- Generator: Adobe Illustrator 22.1.0, SVG Export Plug-In . SVG Version: 6.00 Build 0)  -->
<svg version="1.1" id="Layer_1" xmlns="http://www.w3.org/2000/svg" xmlns:xlink="http://www.w3.org/1999/xlink" x="0px" y="0px"
	 viewBox="0 0 24 24" style="enable-background:new 0 0 24 24;" xml:space="preserve">
<g>
	<title>e-commerce-etsy</title>
	<path d="M18.651,24.004c-0.315,0-0.617-0.077-0.909-0.152c-0.222-0.057-0.448-0.115-0.657-0.132
		c-0.563-0.047-1.202-0.069-2.011-0.069c-0.696,0-1.418,0.016-2.183,0.033l-0.041,0.001c-0.803,0.018-1.618,0.036-2.424,0.036
		c-0.77,0-1.547-0.01-2.312-0.019c-0.778-0.01-1.511-0.019-2.214-0.019c-0.801,0-1.444,0.012-2.024,0.037
		c-0.254,0.011-0.516,0.042-0.77,0.073c-0.341,0.04-0.683,0.081-1.02,0.081c-0.557,0-0.983-0.112-1.342-0.354
		c-0.12-0.081-0.199-0.209-0.217-0.352C0.464,22.678,0.547,22.296,0.78,22c0.375-0.475,1.008-0.543,1.566-0.604
		c0.381-0.041,0.773-0.084,0.977-0.239c0.249-0.472,0.414-0.978,0.492-1.506c0.137-1.1,0.093-2.752,0.047-4.501
		c-0.026-0.975-0.052-1.983-0.052-2.999c0-0.948,0.022-1.907,0.044-2.834c0.04-1.739,0.078-3.379-0.041-4.573
		C3.757,4.135,3.589,3.553,3.314,3.011C3.152,2.873,2.809,2.806,2.504,2.747C1.895,2.628,0.76,2.406,0.997,1.109
		C1.008,1.049,1.03,0.992,1.061,0.94c0.39-0.644,1.107-0.644,1.343-0.644c0.187,0,0.368,0.016,0.526,0.031
		c0.128,0.012,0.232,0.021,0.323,0.021c1.047,0,2.194,0.016,3.407,0.032l0.033,0c1.325,0.018,2.695,0.037,4.059,0.037
		c2.985,0,5.141-0.095,6.783-0.298c0.056-0.007,0.117-0.02,0.183-0.034c0.166-0.036,0.374-0.081,0.601-0.081
		c0.459,0,0.824,0.186,1.086,0.553c0.035,0.05,0.061,0.105,0.076,0.163c0.121,0.453,0.019,0.852-0.079,1.238
		c-0.062,0.243-0.126,0.495-0.14,0.778c-0.01,0.229,0.018,0.552,0.048,0.894c0.083,0.946,0.17,1.921-0.376,2.397
		c-0.182,0.159-0.405,0.239-0.662,0.239c-0.102,0-0.209-0.013-0.321-0.038c-0.722-0.164-0.809-0.929-0.872-1.488
		c-0.031-0.271-0.065-0.577-0.153-0.725c-0.292-0.491-1.97-1.021-5.804-1.037l-0.2,0c-0.674,0-2.427,0-3.196,0.561
		c-0.165,2.171-0.17,4.37-0.014,6.543c1.167,0.163,2.356,0.246,3.536,0.246c0.651,0,1.31-0.025,1.958-0.075
		c0.423-0.018,0.822-0.114,1.193-0.285c0.258-0.197,0.304-0.464,0.362-0.911c0.066-0.506,0.148-1.136,0.763-1.615
		c0.088-0.068,0.198-0.105,0.309-0.105c0.43,0.006,0.76,0.139,0.988,0.396c0.416,0.469,0.34,1.175,0.267,1.858
		c-0.021,0.201-0.044,0.408-0.052,0.6c-0.036,0.801-0.036,1.741,0,2.396c0.013,0.238,0.051,0.492,0.088,0.738
		c0.121,0.815,0.286,1.925-0.81,2.219c-0.043,0.011-0.086,0.017-0.13,0.017c-0.054,0-0.108-0.009-0.16-0.026
		c-0.927-0.313-1.138-1.027-1.292-1.549c-0.12-0.406-0.215-0.726-0.573-0.946c-0.449-0.275-1.071-0.403-1.956-0.403
		c-0.632,0-1.315,0.063-2.037,0.13c-0.729,0.067-1.472,0.135-2.182,0.135c-0.071,0-0.141-0.001-0.211-0.002
		C7.563,14.1,7.514,15.32,7.628,16.532c0.002,0.422-0.022,0.82-0.045,1.204c-0.06,1-0.122,2.03,0.225,2.688
		c0.151,0.288,0.754,0.77,3.098,0.77c0.856,0,1.686-0.064,2.183-0.103c3.309-0.252,4.354-1.003,4.647-1.59
		c0.174-0.346,0.186-0.655,0.201-1.012c0.022-0.557,0.048-1.188,0.733-1.813c0.093-0.084,0.212-0.13,0.337-0.13
		c0.031,0,0.062,0.003,0.093,0.009c0.666,0.126,1.11,0.392,1.358,0.812c0.414,0.698,0.139,1.543-0.152,2.437
		c-0.139,0.428-0.283,0.871-0.332,1.264c-0.033,0.259-0.013,0.539,0.007,0.81c0.041,0.567,0.088,1.209-0.344,1.765
		c-0.034,0.044-0.076,0.083-0.125,0.114C19.255,23.922,18.973,24.004,18.651,24.004L18.651,24.004z M15.07,22.65
		c0.837,0,1.503,0.023,2.097,0.072c0.294,0.024,0.561,0.093,0.819,0.159c0.255,0.066,0.475,0.122,0.66,0.122
		c0.096,0,0.177-0.015,0.251-0.048c0.142-0.247,0.118-0.584,0.087-1.004c-0.023-0.322-0.048-0.654-0.002-1.01
		c0.061-0.487,0.219-0.975,0.373-1.448c0.209-0.643,0.426-1.309,0.242-1.619c-0.068-0.115-0.211-0.207-0.426-0.275
		c-0.209,0.273-0.22,0.543-0.235,0.929c-0.016,0.393-0.035,0.881-0.306,1.42c-0.604,1.205-2.391,1.904-5.464,2.138
		c-0.914,0.071-1.64,0.104-2.284,0.104c-2.235,0-3.493-0.414-3.959-1.302c-0.477-0.904-0.406-2.076-0.339-3.209
		c0.023-0.391,0.045-0.755,0.045-1.101c-0.136-1.413-0.053-2.866,0.247-4.297c0.049-0.234,0.251-0.397,0.491-0.397
		c0.005,0,0.027,0.001,0.032,0.001c0.182,0.013,0.379,0.02,0.587,0.02c0.664,0,1.384-0.066,2.08-0.131
		c0.723-0.067,1.461-0.135,2.139-0.135c1.076,0,1.863,0.175,2.477,0.55c0.686,0.421,0.865,1.028,1.01,1.515
		c0.125,0.423,0.206,0.658,0.474,0.807c0.077-0.114,0.065-0.395-0.03-1.033c-0.04-0.269-0.082-0.548-0.097-0.835
		c-0.037-0.687-0.037-1.666,0-2.495c0.01-0.22,0.033-0.44,0.056-0.653c0.041-0.388,0.103-0.959-0.02-1.097
		c-0.013-0.014-0.036-0.027-0.068-0.036c-0.173,0.209-0.207,0.475-0.253,0.826c-0.067,0.518-0.151,1.162-0.811,1.624
		c-0.021,0.015-0.045,0.029-0.069,0.04c-0.508,0.243-1.048,0.377-1.607,0.401c-0.661,0.051-1.342,0.077-2.017,0.077
		c-1.363,0-2.736-0.106-4.081-0.316c-0.229-0.036-0.403-0.223-0.421-0.454c-0.196-2.423-0.196-4.881,0-7.304
		c0.009-0.119,0.061-0.231,0.146-0.315c0.86-0.852,2.574-0.962,3.971-0.962l0.264,0.001c3.88,0.016,6.058,0.515,6.66,1.526
		c0.197,0.332,0.243,0.734,0.287,1.121c0.019,0.165,0.061,0.538,0.121,0.631c0.036,0.007,0.061,0.009,0.076,0.009
		c0.168-0.14,0.078-1.161,0.044-1.545c-0.034-0.378-0.065-0.734-0.052-1.032c0.019-0.385,0.099-0.7,0.169-0.977
		c0.068-0.266,0.118-0.465,0.099-0.643c-0.054-0.049-0.113-0.068-0.204-0.068c-0.099,0-0.221,0.022-0.387,0.058
		c-0.102,0.022-0.197,0.042-0.283,0.052c-1.685,0.208-3.881,0.305-6.909,0.305c-1.373,0-2.75-0.019-4.081-0.037
		C5.437,1.364,4.294,1.349,3.253,1.349c-0.13,0-0.266-0.012-0.409-0.025C2.695,1.31,2.542,1.297,2.405,1.297
		c-0.265,0-0.38,0.048-0.44,0.101C1.949,1.57,2.018,1.633,2.696,1.766c0.461,0.09,1.035,0.202,1.401,0.617
		c0.026,0.03,0.049,0.062,0.068,0.098c0.357,0.677,0.574,1.406,0.644,2.169c0.125,1.25,0.087,2.92,0.046,4.688
		c-0.021,0.922-0.044,1.872-0.044,2.814c0,1.007,0.026,2.006,0.052,2.972c0.047,1.789,0.092,3.477-0.056,4.663
		c-0.1,0.683-0.317,1.33-0.646,1.927c-0.023,0.042-0.052,0.08-0.085,0.113c-0.436,0.436-1.093,0.507-1.621,0.564
		C2.09,22.43,1.68,22.475,1.565,22.62c-0.03,0.038-0.048,0.096-0.056,0.173c0.155,0.055,0.342,0.081,0.576,0.081
		c0.277,0,0.591-0.038,0.896-0.074c0.274-0.032,0.55-0.065,0.828-0.078c0.609-0.027,1.271-0.039,2.092-0.039
		c0.707,0,1.444,0.009,2.201,0.019c0.785,0.01,1.558,0.019,2.324,0.019c0.805,0,1.616-0.018,2.401-0.036
		C13.611,22.667,14.351,22.65,15.07,22.65z"/>
</g>
</svg>
