<?xml version="1.0" encoding="utf-8"?>
<!-- Generator: Adobe Illustrator 22.1.0, SVG Export Plug-In . SVG Version: 6.00 Build 0)  -->
<svg version="1.1" id="Light" xmlns="http://www.w3.org/2000/svg" xmlns:xlink="http://www.w3.org/1999/xlink" x="0px" y="0px"
	 viewBox="0 0 24 24" style="enable-background:new 0 0 24 24;" xml:space="preserve">
<g>
	<title>seasoning-pepper</title>
	<path d="M1.505,24c-0.401,0-0.777-0.156-1.061-0.438c-0.284-0.283-0.44-0.659-0.441-1.06c0-0.026,0.001-0.052,0.002-0.077
		c0.067-1.333,0.316-3.888,1.239-6.021C2.222,14.145,3.656,13,5.505,13c1.849,0,3.281,1.145,4.257,3.404
		c0.92,2.13,1.17,4.686,1.237,6.021c0.02,0.4-0.117,0.784-0.385,1.081c-0.269,0.297-0.637,0.472-1.037,0.492
		C9.552,24,9.528,24,9.504,24H1.505z M5.505,14c-1.971,0-4.188,2.226-4.501,8.475l0,0.032c0,0.127,0.052,0.253,0.147,0.347
		C1.245,22.948,1.37,23,1.503,23l8.018,0c0.139-0.007,0.261-0.065,0.351-0.164c0.09-0.099,0.135-0.227,0.129-0.361
		C9.686,16.226,7.472,14,5.505,14z"/>
	<path d="M13.5,24c-0.827,0-1.5-0.673-1.5-1.5v-7c0.079-1.183,0.89-2.146,2-2.425V8.891c-0.564-0.222-0.957-0.745-0.999-1.357L13,6
		c-1.103,0-2-0.897-2-2s0.897-2,2-2h4V1h-0.5C16.224,1,16,0.776,16,0.5S16.224,0,16.5,0h2C18.775,0,19,0.224,19,0.5S18.775,1,18.5,1
		H18v1h4c1.103,0,2,0.897,2,2s-0.897,2-2,2v1.5c-0.042,0.639-0.435,1.172-1,1.394v4.185c1.11,0.281,1.92,1.236,1.999,2.387
		c0,0.006,0.001,0.028,0.001,0.034v7c0,0.827-0.673,1.5-1.5,1.5H13.5z M14.509,14c-0.806,0.06-1.455,0.718-1.51,1.534L13,22.5
		c0,0.276,0.224,0.5,0.5,0.5h8c0.276,0,0.5-0.224,0.5-0.5v-6.991c-0.058-0.796-0.717-1.452-1.53-1.51L14.509,14z M20,13V9h-5v4H20z
		 M14,7.5c0.018,0.253,0.252,0.48,0.531,0.501L20.5,8c0.254-0.018,0.482-0.253,0.501-0.534L21,6h-7V7.5z M13,3c-0.552,0-1,0.449-1,1
		s0.448,1,1,1h9c0.552,0,1-0.449,1-1s-0.448-1-1-1H13z"/>
	<circle cx="4.25" cy="16.25" r="0.75"/>
	<circle cx="6.75" cy="16.25" r="0.75"/>
</g>
</svg>
