<?xml version="1.0" encoding="utf-8"?>
<!-- Generator: Adobe Illustrator 22.1.0, SVG Export Plug-In . SVG Version: 6.00 Build 0)  -->
<svg version="1.1" id="Light" xmlns="http://www.w3.org/2000/svg" xmlns:xlink="http://www.w3.org/1999/xlink" x="0px" y="0px"
	 viewBox="0 0 24 24" style="enable-background:new 0 0 24 24;" xml:space="preserve">
<g>
	<title>seasoning-chilli</title>
	<path d="M13.511,21.428c-0.221,0-0.419-0.148-0.48-0.361c-0.077-0.265,0.076-0.542,0.341-0.619
		c2.289-0.663,4.227-2.258,5.317-4.376c0.086-0.167,0.257-0.271,0.445-0.271c0.079,0,0.158,0.019,0.229,0.055
		c0.245,0.126,0.342,0.428,0.216,0.673c-1.216,2.362-3.376,4.141-5.928,4.88C13.604,21.421,13.557,21.428,13.511,21.428z"/>
	<path d="M11.011,21.788c-0.276,0-0.5-0.224-0.5-0.5s0.224-0.5,0.5-0.5c0.168,0,0.351-0.006,0.543-0.018c0,0,0.001,0,0.001,0
		c0.295,0,0.513,0.201,0.529,0.468c0.017,0.275-0.192,0.512-0.467,0.53C11.405,21.781,11.201,21.788,11.011,21.788z"/>
	<path d="M11.282,24c-4.917,0-9.333-3.292-10.74-8.003c-0.108-0.37-0.001-0.762,0.278-1.023C1.007,14.797,1.253,14.7,1.511,14.7
		c0.278,0,0.547,0.116,0.737,0.318c2.031,2.183,4.453,3.384,6.822,3.384c0.866,0,1.715-0.161,2.522-0.478
		C14.27,16.871,16,14.332,16,11.454v-2.39c-0.003-0.012-0.007-0.035-0.007-0.063c0-0.015,0.003-0.04,0.007-0.061V7
		c0-1.751,1.315-3.234,3.031-3.465C19.264,1.536,20.968,0,23,0c0.276,0,0.5,0.224,0.5,0.5S23.275,1,23,1
		c-1.483,0-2.74,1.1-2.962,2.544C21.718,3.806,23,5.277,23,7v5.792C23,18.867,17.634,24,11.282,24L11.282,24z M1.512,15.7
		c-0.004,0-0.007,0.002-0.008,0.003c1.278,4.3,5.3,7.297,9.778,7.297C17.092,23,22,18.325,22,12.792V9.543
		c-0.839,0.127-1.593,0.576-2.099,1.256C19.807,10.924,19.657,11,19.501,11c-0.157,0-0.307-0.075-0.401-0.201
		C18.592,10.12,17.838,9.672,17,9.544v1.91c0,3.291-1.979,6.197-5.042,7.401c-0.927,0.364-1.899,0.549-2.892,0.549
		c-2.646,0-5.327-1.315-7.548-3.702L1.512,15.7z M17,8.535c0.942,0.111,1.831,0.54,2.5,1.204c0.664-0.66,1.553-1.088,2.5-1.202V7
		c0-1.379-1.122-2.5-2.5-2.5S17,5.621,17,7V8.535z"/>
</g>
</svg>
