<?xml version="1.0" encoding="utf-8"?>
<!-- Generator: Adobe Illustrator 22.1.0, SVG Export Plug-In . SVG Version: 6.00 Build 0)  -->
<svg version="1.1" id="Light" xmlns="http://www.w3.org/2000/svg" xmlns:xlink="http://www.w3.org/1999/xlink" x="0px" y="0px"
	 viewBox="0 0 24 24" style="enable-background:new 0 0 24 24;" xml:space="preserve">
<g>
	<title>seasoning-salt</title>
	<circle cx="13.5" cy="3" r="0.75"/>
	<circle cx="10.5" cy="3" r="0.75"/>
	<path d="M8.5,24C4.303,24,4,21.355,4,17c0-3.774,2.625-7.784,3.683-9.247C7.265,7.48,7,7.008,7,6.5v-2C7,2.019,9.019,0,11.5,0h1
		C14.981,0,17,2.019,17,4.5v2c0,0.508-0.265,0.98-0.684,1.253C17.375,9.216,20,13.225,20,17c0,4.355-0.303,7-4.5,7H8.5z M5.126,20
		c0.28,2.263,1.131,3,3.374,3h7c2.243,0,3.094-0.737,3.374-3H5.126z M18.959,19C18.987,18.468,19,17.838,19,17
		c0-0.315-0.023-0.651-0.067-1H5.068C5.023,16.349,5,16.685,5,17c0,0.837,0.013,1.467,0.041,2H18.959z M18.75,15
		c-0.74-3.175-2.894-6.199-3.497-7H8.747c-0.602,0.801-2.757,3.825-3.497,7H18.75z M11.5,1C9.57,1,8,2.57,8,4.5v2
		C8,6.776,8.224,7,8.5,7h7C15.776,7,16,6.776,16,6.5v-2C16,2.57,14.43,1,12.5,1H11.5z"/>
</g>
</svg>
