<?xml version="1.0" encoding="utf-8"?>
<!-- Generator: Adobe Illustrator 22.1.0, SVG Export Plug-In . SVG Version: 6.00 Build 0)  -->
<svg version="1.1" id="Light" xmlns="http://www.w3.org/2000/svg" xmlns:xlink="http://www.w3.org/1999/xlink" x="0px" y="0px"
	 viewBox="0 0 24 24" style="enable-background:new 0 0 24 24;" xml:space="preserve">
<g>
	<title>halloween-figure</title>
	<path d="M14.75,13.5c-1.103,0-2-0.897-2-2s0.897-2,2-2s2,0.897,2,2S15.853,13.5,14.75,13.5z M14.75,10.5c-0.552,0-1,0.449-1,1
		s0.448,1,1,1s1-0.449,1-1S15.302,10.5,14.75,10.5z"/>
	<path d="M9.005,13.5c-1.103,0-2-0.897-2-2s0.897-2,2-2s2,0.897,2,2S10.108,13.5,9.005,13.5z M9.005,10.5c-0.551,0-1,0.449-1,1
		s0.449,1,1,1s1-0.449,1-1S9.556,10.5,9.005,10.5z"/>
	<path d="M10.5,16.775c-0.209,0-0.398-0.132-0.47-0.329c-0.046-0.125-0.04-0.261,0.016-0.382s0.156-0.213,0.282-0.259l0.986-0.36
		c0.22-0.08,0.451-0.121,0.685-0.121c0.235,0,0.465,0.041,0.685,0.121l0.986,0.36c0.125,0.046,0.226,0.138,0.282,0.259
		s0.062,0.257,0.016,0.382c-0.072,0.196-0.261,0.328-0.47,0.328l0,0c-0.058,0-0.115-0.01-0.169-0.03l-0.987-0.36
		c-0.11-0.04-0.225-0.06-0.343-0.06c-0.118,0-0.233,0.02-0.343,0.06l-0.986,0.36C10.616,16.765,10.558,16.775,10.5,16.775z"/>
	<path d="M20,24c-0.64,0-1.205-0.41-1.414-1H17v0.5c0,0.276-0.224,0.5-0.5,0.5S16,23.776,16,23.5V20H8v3.5C8,23.776,7.776,24,7.5,24
		S7,23.776,7,23.5V23H5.414C5.205,23.59,4.64,24,4,24c-0.827,0-1.5-0.673-1.5-1.5V22c0-0.827,0.673-1.5,1.5-1.5s1.5,0.673,1.5,1.5H7
		v-2.033c-2.261-0.251-4-2.169-4-4.467V13H1v1c0,0.276-0.224,0.5-0.5,0.5S0,14.276,0,14v-3c0-0.276,0.224-0.5,0.5-0.5S1,10.724,1,11
		v1h2V7.83C2.437,7.634,1.954,7.281,1.595,6.8C1.116,6.159,0.916,5.371,1.03,4.58c0.102-0.706,0.449-1.346,0.98-1.814
		C2.135,1.206,3.433,0,5.011,0h13.978c1.578,0,2.876,1.206,3.001,2.766c0.42,0.372,0.735,0.867,0.892,1.404
		C23.33,5.703,22.49,7.311,21,7.833V12h2v-1c0-0.276,0.224-0.5,0.5-0.5S24,10.724,24,11v3c0,0.276-0.224,0.5-0.5,0.5
		S23,14.276,23,14v-1h-2v2.5c0,2.298-1.739,4.216-4,4.467V22h1.5c0-0.827,0.673-1.5,1.5-1.5s1.5,0.673,1.5,1.5v0.5
		C21.5,23.327,20.827,24,20,24z M20,21.5c-0.276,0-0.5,0.224-0.5,0.5v0.5c0,0.276,0.224,0.5,0.5,0.5s0.5-0.224,0.5-0.5V22
		C20.5,21.724,20.276,21.5,20,21.5z M4,21.5c-0.276,0-0.5,0.224-0.5,0.5v0.5C3.5,22.776,3.724,23,4,23s0.5-0.224,0.5-0.5V22
		C4.5,21.724,4.276,21.5,4,21.5z M4,15.5C4,17.43,5.57,19,7.5,19h9c1.93,0,3.5-1.57,3.5-3.5V7.995
		c-0.742-0.003-1.457-0.279-1.999-0.767c-0.077,0.069-0.157,0.135-0.241,0.196c-0.515,0.377-1.122,0.576-1.755,0.576
		c-0.153,0-0.308-0.012-0.46-0.036c-0.586-0.09-1.115-0.343-1.546-0.735c-0.076,0.069-0.156,0.134-0.239,0.195
		c-0.513,0.376-1.121,0.575-1.756,0.575c-0.743,0-1.46-0.278-2.004-0.77C9.923,7.299,9.843,7.364,9.76,7.425
		C9.247,7.801,8.639,7.999,8.004,7.999c-0.743,0-1.46-0.278-2.004-0.771C5.93,7.291,5.858,7.35,5.784,7.405
		C5.263,7.795,4.646,8.001,4,8.001V15.5z M18,5.986c0.158,0,0.309,0.076,0.403,0.203c0.374,0.508,0.976,0.812,1.611,0.812
		c0.188,0,0.375-0.027,0.555-0.079c0.51-0.149,0.932-0.488,1.188-0.956c0.256-0.467,0.315-1.006,0.166-1.516
		c-0.121-0.412-0.377-0.781-0.721-1.039C21.075,3.318,21,3.168,21,3.011C21,1.902,20.098,1,18.989,1H5.011C3.902,1,3,1.902,3,3.011
		c0,0.157-0.075,0.307-0.201,0.401C2.373,3.73,2.096,4.196,2.02,4.723C1.944,5.25,2.077,5.775,2.396,6.201
		C2.776,6.709,3.358,7,3.995,7c0.432,0,0.844-0.137,1.191-0.396C5.343,6.487,5.481,6.347,5.597,6.19
		C5.691,6.062,5.842,5.986,6,5.986c0.159,0,0.31,0.077,0.403,0.205C6.774,6.697,7.372,7,8.003,7c0.422,0,0.826-0.132,1.167-0.382
		c0.163-0.12,0.307-0.264,0.427-0.427C9.69,6.062,9.841,5.986,10,5.986s0.31,0.077,0.404,0.205c0.371,0.506,0.969,0.809,1.599,0.809
		c0.422,0,0.826-0.132,1.167-0.381c0.164-0.12,0.308-0.264,0.427-0.427C13.688,6.066,13.838,5.992,14,5.992
		c0.161,0,0.312,0.074,0.403,0.199c0.312,0.426,0.772,0.706,1.294,0.786c0.102,0.016,0.206,0.024,0.308,0.024
		c0.42,0,0.822-0.132,1.164-0.383c0.164-0.12,0.308-0.264,0.427-0.427C17.69,6.063,17.84,5.986,18,5.986C18,5.986,18,5.986,18,5.986
		z"/>
</g>
</svg>
