<?xml version="1.0" encoding="utf-8"?>
<!-- Generator: Adobe Illustrator 22.1.0, SVG Export Plug-In . SVG Version: 6.00 Build 0)  -->
<svg version="1.1" id="Light" xmlns="http://www.w3.org/2000/svg" xmlns:xlink="http://www.w3.org/1999/xlink" x="0px" y="0px"
	 viewBox="0 0 24 24" style="enable-background:new 0 0 24 24;" xml:space="preserve">
<g>
	<title>halloween-vampire</title>
	<circle cx="14" cy="8.494" r="0.75"/>
	<circle cx="10" cy="8.494" r="0.75"/>
	<path d="M13.5,12.494c-0.276,0-0.5-0.224-0.5-0.5v-0.913c-0.33-0.055-0.665-0.083-1-0.083c-0.335,0-0.67,0.028-1,0.083v0.913
		c0,0.276-0.224,0.5-0.5,0.5s-0.5-0.224-0.5-0.5v-0.656c-0.106,0.037-0.209,0.076-0.308,0.117c-0.061,0.026-0.126,0.039-0.193,0.039
		c0,0,0,0,0,0c-0.202,0-0.383-0.121-0.461-0.308c-0.106-0.254,0.015-0.548,0.269-0.654c0.323-0.135,0.665-0.247,1.015-0.332
		c0.044-0.016,0.085-0.023,0.117-0.027c0.51-0.115,1.035-0.174,1.56-0.174c0.525,0,1.049,0.058,1.559,0.174
		c0.044,0.005,0.083,0.014,0.119,0.027c0.35,0.086,0.691,0.197,1.015,0.332c0.123,0.051,0.219,0.148,0.27,0.271
		s0.051,0.26-0.001,0.383c-0.078,0.187-0.259,0.308-0.461,0.308c-0.066,0-0.131-0.013-0.193-0.039
		c-0.099-0.041-0.201-0.08-0.307-0.117v0.656C14,12.269,13.776,12.494,13.5,12.494z"/>
	<path d="M23.5,23.994c-0.276,0-0.5-0.224-0.5-0.5v-2.453c0-0.463-0.219-0.908-0.587-1.19c-0.796-0.611-2.202-1.468-4.374-2.085
		c-0.008-0.002-0.027-0.007-0.046-0.014c-0.251-0.07-0.521-0.139-0.795-0.203l-4.008,5.22c-0.079,0.103-0.172,0.196-0.276,0.276
		c-0.265,0.203-0.58,0.311-0.911,0.311c-0.066,0-0.132-0.004-0.198-0.013c-0.396-0.052-0.75-0.255-0.994-0.573l-4.008-5.22
		c-0.273,0.063-0.545,0.133-0.81,0.208c-0.004,0.002-0.024,0.008-0.045,0.012c-2.159,0.614-3.564,1.471-4.361,2.082
		C1.219,20.132,1,20.577,1,21.041v2.453c0,0.276-0.224,0.5-0.5,0.5S0,23.769,0,23.494v-2.453c0-0.772,0.365-1.513,0.978-1.983
		c0.772-0.593,2.095-1.418,4.079-2.062c-1.206-1.935-3.877-6.67-4.192-7.229c-0.295-0.525-0.249-1.173,0.118-1.65
		C2.11,6.736,3.745,5.811,5.5,5.55V3.262C5.495,2.237,6.107,1.327,7.06,0.945C8.645,0.311,10.307-0.01,12-0.01
		c1.692,0,3.354,0.321,4.939,0.955c0.953,0.383,1.566,1.293,1.561,2.32V5.55c1.756,0.26,3.39,1.183,4.51,2.556
		c0.375,0.486,0.423,1.136,0.127,1.661c-0.729,1.291-3.09,5.457-4.195,7.229c1.985,0.644,3.307,1.469,4.079,2.061
		C23.635,19.527,24,20.269,24,21.041v2.453C24,23.769,23.776,23.994,23.5,23.994z M11.5,22.024V17
		c-1.264,0.023-2.474,0.133-3.606,0.328L11.5,22.024z M12.5,22.024l3.606-4.696C14.974,17.133,13.764,17.022,12.5,17V22.024z
		 M12,15.994c2.148,0,4.147,0.239,5.946,0.71c0.997-1.557,3.543-6.05,4.321-7.428c0.098-0.174,0.083-0.39-0.04-0.549
		c-0.925-1.133-2.272-1.913-3.727-2.165v1.932c0,3.584-2.916,6.5-6.5,6.5c-3.584,0-6.5-2.916-6.5-6.5V6.562
		C4.046,6.814,2.698,7.597,1.766,8.738c-0.115,0.15-0.129,0.364-0.03,0.539c1.211,2.149,3.429,6.035,4.319,7.427
		C7.853,16.232,9.852,15.994,12,15.994z M6.5,8.494c0,3.033,2.467,5.5,5.5,5.5s5.5-2.467,5.5-5.5V4.441
		c-0.305-0.028-0.76-0.059-1.284-0.059c-1.029,0-2.466,0.121-3.467,0.697c-0.227,0.131-0.486,0.2-0.749,0.2
		c-0.263,0-0.523-0.069-0.75-0.2c-1.002-0.576-2.437-0.697-3.465-0.697c-0.524,0-0.98,0.031-1.285,0.059V8.494z M7.786,3.378
		c1.146,0,2.764,0.145,3.963,0.834C11.825,4.256,11.912,4.279,12,4.279s0.175-0.023,0.25-0.067c1.199-0.69,2.817-0.834,3.964-0.834
		c0.505,0,0.949,0.027,1.286,0.057V3.262c0.003-0.616-0.363-1.16-0.932-1.389C15.102,1.287,13.565,0.99,12,0.99
		c-1.565,0-3.102,0.297-4.569,0.883C6.863,2.102,6.497,2.646,6.5,3.259v0.175C6.837,3.405,7.281,3.378,7.786,3.378z"/>
</g>
</svg>
