<?xml version="1.0" encoding="utf-8"?>
<!-- Generator: Adobe Illustrator 22.1.0, SVG Export Plug-In . SVG Version: 6.00 Build 0)  -->
<svg version="1.1" id="Light" xmlns="http://www.w3.org/2000/svg" xmlns:xlink="http://www.w3.org/1999/xlink" x="0px" y="0px"
	 viewBox="0 0 24 24" style="enable-background:new 0 0 24 24;" xml:space="preserve">
<g>
	<title>halloween-web</title>
	<path d="M16.762,24c-0.203,0-0.384-0.121-0.462-0.309l-0.333-0.804c-1.26-0.496-2.594-0.747-3.967-0.747
		c-1.374,0-2.708,0.251-3.969,0.748l-0.333,0.804C7.621,23.879,7.439,24,7.236,24c-0.066,0-0.13-0.013-0.191-0.038
		c-0.124-0.051-0.22-0.147-0.271-0.271c-0.051-0.123-0.051-0.259,0-0.383l0.333-0.803c-1.086-2.491-3.124-4.528-5.615-5.612
		l-0.801,0.332C0.629,17.25,0.565,17.263,0.5,17.263c-0.203,0-0.384-0.121-0.462-0.309c-0.051-0.124-0.051-0.26,0-0.383
		c0.051-0.124,0.147-0.219,0.271-0.271l0.805-0.333c0.994-2.528,0.993-5.408-0.001-7.936L0.308,7.699
		C0.053,7.593-0.068,7.3,0.038,7.045c0.078-0.188,0.259-0.309,0.462-0.309c0.066,0,0.13,0.013,0.192,0.038l0.803,0.333
		c2.492-1.085,4.528-3.123,5.612-5.615L6.775,0.691C6.669,0.436,6.791,0.143,7.045,0.038C7.107,0.013,7.171,0,7.237,0
		c0.203,0,0.384,0.121,0.462,0.308l0.333,0.805c1.26,0.496,2.594,0.747,3.967,0.747c1.374,0,2.708-0.252,3.969-0.748l0.333-0.804
		C16.378,0.121,16.56,0,16.763,0c0.066,0,0.13,0.013,0.191,0.038c0.254,0.106,0.376,0.399,0.271,0.653l-0.333,0.803
		c1.086,2.491,3.124,4.528,5.615,5.612l0.801-0.332c0.061-0.025,0.125-0.038,0.191-0.038c0.204,0,0.385,0.121,0.463,0.309
		c0.105,0.255-0.016,0.548-0.271,0.653l-0.805,0.333c-0.994,2.528-0.994,5.408,0.001,7.936l0.804,0.333
		c0.254,0.105,0.376,0.398,0.271,0.653c-0.078,0.188-0.259,0.309-0.462,0.309c-0.066,0-0.13-0.013-0.191-0.038l-0.803-0.333
		c-2.491,1.085-4.528,3.124-5.612,5.616l0.332,0.801c0.105,0.255-0.016,0.548-0.271,0.653C16.893,23.987,16.828,24,16.762,24z
		 M8.543,21.652c1.116-0.34,2.276-0.511,3.458-0.511c1.18,0,2.34,0.172,3.455,0.511l-0.938-2.263
		c-0.802-0.306-1.649-0.461-2.519-0.461c-0.87,0-1.717,0.155-2.519,0.461L8.543,21.652z M16.381,21.272
		c1.106-2.075,2.815-3.785,4.889-4.892l-2.264-0.938c-1.57,0.703-2.861,1.993-3.564,3.564L16.381,21.272z M2.727,16.381
		c2.074,1.106,3.784,2.815,4.891,4.889l0.938-2.263c-0.703-1.57-1.994-2.86-3.563-3.564L2.727,16.381z M9.981,18.18
		c0.657-0.169,1.333-0.254,2.019-0.254s1.362,0.085,2.018,0.254l-2.018-4.873L9.981,18.18z M6.2,14.943
		c1.171,0.694,2.162,1.685,2.856,2.856l2.019-4.875L6.2,14.943z M14.942,17.798c0.693-1.172,1.684-2.163,2.856-2.856l-4.875-2.019
		L14.942,17.798z M21.652,15.456c-0.684-2.248-0.684-4.665,0-6.913l-2.264,0.938c-0.613,1.607-0.613,3.431,0,5.038L21.652,15.456z
		 M2.347,8.543c0.684,2.248,0.684,4.665,0.001,6.913l2.264-0.938c0.613-1.607,0.613-3.431,0-5.038L2.347,8.543z M5.82,9.982
		c0.338,1.318,0.338,2.719,0,4.037L10.693,12L5.82,9.982z M18.18,14.018c-0.338-1.318-0.338-2.718,0-4.037L13.306,12L18.18,14.018z
		 M12.923,11.076l4.875-2.019c-1.172-0.693-2.163-1.684-2.856-2.856L12.923,11.076z M11.076,11.076l-2.021-4.88
		C8.359,7.384,7.384,8.36,6.195,9.055L11.076,11.076z M11.999,10.693l2.018-4.873c-0.656,0.169-1.333,0.254-2.018,0.254
		c-0.685,0-1.362-0.085-2.018-0.254L11.999,10.693z M4.993,8.557c1.593-0.711,2.853-1.971,3.564-3.564L7.618,2.728
		C6.512,4.802,4.803,6.512,2.729,7.619L4.993,8.557z M15.443,4.993c0.704,1.57,1.994,2.86,3.564,3.563l2.265-0.938
		c-2.074-1.106-3.785-2.815-4.892-4.889L15.443,4.993z M9.481,4.612c0.802,0.306,1.648,0.462,2.519,0.462s1.717-0.155,2.519-0.462
		l0.938-2.264c-1.116,0.34-2.276,0.511-3.457,0.511c0,0,0,0,0,0c-1.18,0-2.34-0.172-3.455-0.511L9.481,4.612z"/>
</g>
</svg>
