<?xml version="1.0" encoding="utf-8"?>
<!-- Generator: Adobe Illustrator 22.1.0, SVG Export Plug-In . SVG Version: 6.00 Build 0)  -->
<svg version="1.1" id="Light" xmlns="http://www.w3.org/2000/svg" xmlns:xlink="http://www.w3.org/1999/xlink" x="0px" y="0px"
	 viewBox="0 0 24 24" style="enable-background:new 0 0 24 24;" xml:space="preserve">
<g>
	<title>halloween-broom</title>
	<path d="M17.466,23.996c-0.516,0-0.995-0.229-1.315-0.629l-3.82-4.774c-1.03-1.288-1.263-3.001-0.625-4.511l-1.032-1.031
		c-0.526-0.525-0.637-1.324-0.297-1.968L0.144,0.851C0.05,0.757-0.002,0.631-0.002,0.498S0.05,0.239,0.144,0.144
		s0.22-0.146,0.354-0.146S0.757,0.05,0.851,0.144l10.233,10.233c0.239-0.126,0.504-0.193,0.776-0.193
		c0.449,0,0.871,0.174,1.188,0.491l1.032,1.032c0.546-0.23,1.143-0.351,1.736-0.351c1.004,0,1.991,0.346,2.777,0.975l4.774,3.819
		c0.653,0.523,0.822,1.459,0.391,2.177c-0.431,0.719-0.943,1.427-1.522,2.107c-0.012,0.021-0.03,0.049-0.058,0.076
		c-0.007,0.007-0.015,0.014-0.025,0.021c-0.5,0.577-1.046,1.123-1.623,1.623c-0.007,0.009-0.015,0.018-0.021,0.024
		c-0.029,0.029-0.058,0.047-0.076,0.058c-0.68,0.579-1.388,1.091-2.107,1.522C18.067,23.914,17.769,23.996,17.466,23.996z
		 M15.811,12.354c-0.562,0-1.122,0.139-1.618,0.402c-0.014,0.009-0.014,0.009-0.03,0.015c-0.28,0.151-0.555,0.355-0.796,0.596
		c-1.246,1.246-1.356,3.224-0.255,4.601l3.819,4.774c0.129,0.162,0.324,0.255,0.534,0.255c0.123,0,0.243-0.033,0.348-0.096
		c0.533-0.32,1.069-0.695,1.596-1.116l-3.412-3.412c-0.195-0.195-0.195-0.512,0-0.707c0.094-0.094,0.22-0.146,0.354-0.146l0,0
		c0.134,0,0.259,0.052,0.354,0.146l3.472,3.472c0.334-0.305,0.656-0.627,0.962-0.962l-3.472-3.472c-0.195-0.195-0.195-0.512,0-0.707
		c0.094-0.094,0.22-0.146,0.354-0.146s0.259,0.052,0.354,0.146l3.412,3.412c0.421-0.526,0.795-1.062,1.116-1.596
		c0.174-0.291,0.106-0.669-0.159-0.882l-4.774-3.819C17.357,12.623,16.591,12.354,15.811,12.354z M11.86,11.184
		c-0.181,0-0.352,0.071-0.48,0.199c-0.13,0.131-0.2,0.301-0.199,0.481c0,0.181,0.071,0.352,0.199,0.48l0.838,0.836
		c0.137-0.189,0.285-0.363,0.442-0.52c0.156-0.156,0.33-0.304,0.518-0.441l-0.837-0.836C12.212,11.255,12.042,11.184,11.86,11.184
		L11.86,11.184z"/>
	<path d="M3.998,12.498c-0.276,0-0.5-0.224-0.5-0.5v-0.5h-0.5c-0.276,0-0.5-0.224-0.5-0.5s0.224-0.5,0.5-0.5h0.5v-0.5
		c0-0.276,0.224-0.5,0.5-0.5s0.5,0.224,0.5,0.5v0.5h0.5c0.276,0,0.5,0.224,0.5,0.5s-0.224,0.5-0.5,0.5h-0.5v0.5
		C4.498,12.273,4.273,12.498,3.998,12.498z"/>
	<path d="M11.998,3.498c-0.276,0-0.5-0.224-0.5-0.5v-0.5h-0.5c-0.276,0-0.5-0.224-0.5-0.5s0.224-0.5,0.5-0.5h0.5v-0.5
		c0-0.276,0.224-0.5,0.5-0.5c0.276,0,0.5,0.224,0.5,0.5v0.5h0.5c0.276,0,0.5,0.224,0.5,0.5s-0.224,0.5-0.5,0.5h-0.5v0.5
		C12.498,3.274,12.273,3.498,11.998,3.498z"/>
	<path d="M8.998,23.498c-0.276,0-0.5-0.224-0.5-0.5v-0.5h-0.5c-0.276,0-0.5-0.224-0.5-0.5s0.224-0.5,0.5-0.5h0.5v-0.5
		c0-0.276,0.224-0.5,0.5-0.5s0.5,0.224,0.5,0.5v0.5h0.5c0.276,0,0.5,0.224,0.5,0.5s-0.224,0.5-0.5,0.5h-0.5v0.5
		C9.498,23.273,9.273,23.498,8.998,23.498z"/>
	<path d="M17.998,8.998c-0.276,0-0.5-0.224-0.5-0.5v-1.5h-1.5c-0.276,0-0.5-0.224-0.5-0.5s0.224-0.5,0.5-0.5h1.5v-1.5
		c0-0.276,0.224-0.5,0.5-0.5s0.5,0.224,0.5,0.5v1.5h1.5c0.276,0,0.5,0.224,0.5,0.5s-0.224,0.5-0.5,0.5h-1.5v1.5
		C18.498,8.774,18.273,8.998,17.998,8.998z"/>
	<circle cx="7.248" cy="16.748" r="0.75"/>
	<circle cx="2.748" cy="20.748" r="0.75"/>
	<circle cx="21.248" cy="1.248" r="0.75"/>
</g>
</svg>
