<?xml version="1.0" encoding="utf-8"?>
<!-- Generator: Adobe Illustrator 22.1.0, SVG Export Plug-In . SVG Version: 6.00 Build 0)  -->
<svg version="1.1" id="Light" xmlns="http://www.w3.org/2000/svg" xmlns:xlink="http://www.w3.org/1999/xlink" x="0px" y="0px"
	 viewBox="0 0 24 24" style="enable-background:new 0 0 24 24;" xml:space="preserve">
<g>
	<title>halloween-calendar-ghost</title>
	<path d="M1.5,24C0.673,24,0,23.327,0,22.5v-19C0,2.673,0.673,2,1.5,2H5V0.5C5,0.224,5.224,0,5.5,0S6,0.224,6,0.5V2h12V0.5
		C18,0.224,18.224,0,18.5,0S19,0.224,19,0.5V2h3.5C23.327,2,24,2.673,24,3.5v19c0,0.827-0.673,1.5-1.5,1.5H1.5z M1,22.5
		C1,22.776,1.224,23,1.5,23h21c0.276,0,0.5-0.224,0.5-0.5V8H1V22.5z M23,7V3.5C23,3.224,22.776,3,22.5,3H19v2.5
		C19,5.776,18.776,6,18.5,6S18,5.776,18,5.5V3H6v2.5C6,5.776,5.776,6,5.5,6S5,5.776,5,5.5V3H1.5C1.224,3,1,3.224,1,3.5V7H23z"/>
	<circle cx="10.75" cy="13.75" r="0.75"/>
	<circle cx="13.25" cy="13.75" r="0.75"/>
	<path d="M10.5,17c-0.276,0-0.5-0.224-0.5-0.5s0.224-0.5,0.5-0.5h3c0.276,0,0.5,0.224,0.5,0.5S13.776,17,13.5,17H10.5z"/>
	<path d="M10.503,21.302c-0.297,0-0.584-0.087-0.832-0.253l-0.507-0.338c-0.084-0.057-0.181-0.086-0.281-0.086
		c-0.063,0-0.125,0.012-0.183,0.035l-0.865,0.345c-0.119,0.048-0.245,0.073-0.375,0.073c-0.408,0-0.772-0.244-0.926-0.621
		c-0.101-0.248-0.099-0.531,0.008-0.777c0.589-1.366,0.803-2.868,0.619-4.345l-0.156-1.274C7.001,14.04,7,14.02,7,14
		c0-2.757,2.243-5,5-5c2.757,0,5,2.243,5,5c0,0.02-0.001,0.041-0.004,0.061l-0.159,1.274c-0.184,1.477,0.031,2.979,0.622,4.346
		c0.218,0.507-0.016,1.096-0.523,1.314c-0.126,0.055-0.259,0.082-0.395,0.082l0,0c-0.127,0-0.252-0.024-0.372-0.072l-0.865-0.346
		c-0.058-0.023-0.119-0.035-0.182-0.035c-0.1,0-0.196,0.029-0.279,0.085l-0.509,0.339c-0.248,0.165-0.536,0.253-0.833,0.253
		c-0.297,0-0.585-0.087-0.832-0.253l-0.39-0.26c-0.083-0.055-0.179-0.084-0.277-0.084s-0.195,0.029-0.278,0.084l-0.39,0.26
		C11.087,21.214,10.799,21.302,10.503,21.302z M8.883,19.625c0.299,0,0.589,0.088,0.837,0.255l0.505,0.337
		c0.083,0.055,0.179,0.084,0.278,0.084c0.099,0,0.194-0.029,0.277-0.084l0.39-0.26c0.248-0.166,0.536-0.253,0.832-0.253
		c0.297,0,0.585,0.087,0.833,0.253l0.39,0.26c0.083,0.055,0.179,0.084,0.278,0.084c0.099,0,0.195-0.029,0.278-0.084l0.507-0.338
		c0.247-0.166,0.536-0.254,0.835-0.254c0.19,0,0.376,0.035,0.552,0.105l0.866,0.346c-0.661-1.53-0.902-3.212-0.696-4.865L16,13.97
		c-0.016-2.19-1.807-3.97-4-3.97c-2.193,0-3.984,1.78-4,3.97l0.152,1.242c0.206,1.653-0.033,3.335-0.693,4.865l0.871-0.346
		C8.507,19.66,8.693,19.625,8.883,19.625z"/>
</g>
</svg>
