<?xml version="1.0" encoding="utf-8"?>
<!-- Generator: Adobe Illustrator 22.1.0, SVG Export Plug-In . SVG Version: 6.00 Build 0)  -->
<svg version="1.1" id="Light" xmlns="http://www.w3.org/2000/svg" xmlns:xlink="http://www.w3.org/1999/xlink" x="0px" y="0px"
	 viewBox="0 0 24 24" style="enable-background:new 0 0 24 24;" xml:space="preserve">
<g>
	<title>halloween-voodoo-doll</title>
	<path d="M8.582,22.483c-0.548,0-1.059-0.217-1.438-0.61c-0.371-0.384-0.57-0.89-0.561-1.424c0.009-0.534,0.226-1.033,0.61-1.404
		l2.469-2.469c0.094-0.094,0.146-0.22,0.146-0.353c0-0.134-0.052-0.26-0.147-0.354c-0.094-0.094-0.22-0.146-0.354-0.146
		c-0.134,0-0.259,0.052-0.354,0.146l-2.479,2.476c-0.377,0.377-0.88,0.584-1.414,0.584c-0.535,0-1.037-0.208-1.414-0.585
		c-0.378-0.378-0.586-0.88-0.586-1.415c0-0.534,0.208-1.037,0.586-1.414l4.713-4.709L4.456,8.463C3.982,9.06,3.268,9.409,2.5,9.409
		c-1.379,0-2.5-1.121-2.5-2.5s1.121-2.5,2.5-2.5S5,5.531,5,6.909c0,0.222-0.031,0.443-0.091,0.66l4.179,2.509l0.219-0.219
		c0.39-0.39,0.39-1.024,0-1.414L7.187,6.324C6.429,5.54,6.428,4.318,7.18,3.539c0.38-0.393,0.891-0.61,1.439-0.61
		c0.522,0,1.015,0.199,1.389,0.561l3.032,3.031c0.01-0.108,0.023-0.216,0.039-0.323c0.402-2.669,2.738-4.682,5.435-4.682
		c0.274,0,0.551,0.021,0.823,0.062c2.999,0.451,5.072,3.258,4.62,6.257c-0.377,2.505-2.459,4.432-4.943,4.659l3.021,3.021
		c0.78,0.78,0.78,2.048,0,2.828c-0.377,0.377-0.879,0.585-1.414,0.585c-0.535,0-1.037-0.208-1.414-0.585l-2.122-2.122
		c-0.188-0.188-0.439-0.292-0.707-0.292s-0.519,0.104-0.707,0.292l-5.695,5.696C9.598,22.284,9.104,22.483,8.582,22.483z
		 M9.307,14.723c0.401,0,0.778,0.156,1.061,0.439c0.283,0.283,0.44,0.659,0.44,1.061c0,0.401-0.156,0.777-0.439,1.061l-2.475,2.475
		c-0.197,0.19-0.307,0.441-0.311,0.708c-0.005,0.267,0.095,0.52,0.281,0.712c0.19,0.197,0.445,0.305,0.72,0.305
		c0.261,0,0.507-0.1,0.694-0.28l5.688-5.688c0.377-0.377,0.879-0.585,1.414-0.585c0.535,0,1.037,0.208,1.414,0.585l2.122,2.122
		c0.188,0.188,0.439,0.292,0.707,0.292c0.268,0,0.519-0.104,0.708-0.292c0.39-0.39,0.39-1.024,0-1.414l-3.908-3.908
		c-0.153-0.153-0.19-0.385-0.093-0.579c0.086-0.17,0.256-0.275,0.445-0.275c0.025,0,0.051,0.002,0.076,0.006
		c0.222,0.033,0.448,0.05,0.672,0.05c2.206,0,4.118-1.647,4.446-3.831c0.369-2.453-1.326-4.75-3.78-5.12
		c-0.223-0.033-0.449-0.051-0.673-0.051c-2.206,0-4.118,1.647-4.447,3.831c-0.067,0.444-0.067,0.895,0,1.34
		c0.032,0.214-0.077,0.424-0.27,0.521c-0.07,0.035-0.147,0.053-0.225,0.053c-0.134,0-0.259-0.052-0.354-0.146L9.308,4.203
		C9.125,4.027,8.88,3.929,8.62,3.929c-0.275,0-0.531,0.108-0.72,0.305c-0.376,0.39-0.376,1,0,1.389l2.115,2.115
		c0.78,0.78,0.78,2.048,0,2.828l-0.043,0.043l2.285,1.372c0.236,0.142,0.313,0.449,0.171,0.686c-0.09,0.15-0.254,0.243-0.429,0.243
		c-0.09,0-0.179-0.025-0.257-0.071l-2.5-1.501l-4.889,4.886c-0.189,0.189-0.293,0.44-0.293,0.707c0,0.267,0.104,0.519,0.293,0.708
		c0.189,0.188,0.44,0.292,0.708,0.292c0.268,0,0.519-0.104,0.707-0.292l2.478-2.475C8.53,14.879,8.906,14.723,9.307,14.723z
		 M2.5,5.409c-0.827,0-1.5,0.673-1.5,1.5s0.673,1.5,1.5,1.5S4,7.737,4,6.909S3.327,5.409,2.5,5.409z"/>
	<path d="M17.439,6.47c-0.276,0-0.5-0.224-0.5-0.5V5.409h-0.56c-0.276,0-0.5-0.224-0.5-0.5s0.224-0.5,0.5-0.5h0.56v-0.56
		c0-0.276,0.224-0.5,0.5-0.5s0.5,0.224,0.5,0.5v0.56H18.5c0.276,0,0.5,0.224,0.5,0.5s-0.224,0.5-0.5,0.5h-0.561V5.97
		C17.939,6.246,17.715,6.47,17.439,6.47z"/>
	<path d="M20.621,9.652c-0.276,0-0.5-0.224-0.5-0.5V8.591h-0.56c-0.276,0-0.5-0.224-0.5-0.5s0.224-0.5,0.5-0.5h0.56V7.03
		c0-0.276,0.224-0.5,0.5-0.5s0.5,0.224,0.5,0.5v0.561h0.561c0.276,0,0.5,0.224,0.5,0.5s-0.224,0.5-0.5,0.5h-0.561v0.561
		C21.121,9.428,20.897,9.652,20.621,9.652z"/>
	<path d="M15.318,7.884c-0.134,0-0.259-0.052-0.354-0.146c-0.195-0.195-0.195-0.512,0-0.707l0.354-0.354
		c0.094-0.094,0.22-0.146,0.354-0.146s0.259,0.052,0.354,0.146c0.195,0.195,0.195,0.512,0,0.707l-0.354,0.354
		C15.577,7.832,15.452,7.884,15.318,7.884z"/>
	<path d="M16.732,9.298c-0.134,0-0.26-0.052-0.354-0.147c-0.195-0.195-0.194-0.512,0.001-0.707l0.354-0.353
		c0.094-0.094,0.22-0.146,0.353-0.146c0.134,0,0.26,0.052,0.354,0.147c0.195,0.195,0.194,0.512-0.001,0.707l-0.354,0.353
		C16.991,9.246,16.865,9.298,16.732,9.298z"/>
	<path d="M18.146,10.712c-0.134,0-0.26-0.052-0.354-0.147c-0.195-0.195-0.194-0.513,0.001-0.707l0.354-0.353
		c0.094-0.094,0.22-0.146,0.353-0.146c0.134,0,0.26,0.052,0.354,0.147c0.195,0.195,0.194,0.512-0.001,0.707l-0.354,0.353
		C18.405,10.66,18.279,10.712,18.146,10.712z"/>
</g>
</svg>
