<?xml version="1.0" encoding="utf-8"?>
<!-- Generator: Adobe Illustrator 22.1.0, SVG Export Plug-In . SVG Version: 6.00 Build 0)  -->
<svg version="1.1" id="Light" xmlns="http://www.w3.org/2000/svg" xmlns:xlink="http://www.w3.org/1999/xlink" x="0px" y="0px"
	 viewBox="0 0 24 24" style="enable-background:new 0 0 24 24;" xml:space="preserve">
<g>
	<title>halloween-cauldron</title>
	<path d="M22.502,4.5c-0.827,0-1.5-0.673-1.5-1.5s0.673-1.5,1.5-1.5s1.5,0.673,1.5,1.5S23.329,4.5,22.502,4.5z M22.502,2.5
		c-0.276,0-0.5,0.224-0.5,0.5s0.224,0.5,0.5,0.5s0.5-0.224,0.5-0.5S22.778,2.5,22.502,2.5z"/>
	<path d="M7.002,3c-0.827,0-1.5-0.673-1.5-1.5S6.175,0,7.002,0s1.5,0.673,1.5,1.5S7.829,3,7.002,3z M7.002,1
		c-0.276,0-0.5,0.224-0.5,0.5S6.726,2,7.002,2s0.5-0.224,0.5-0.5S7.278,1,7.002,1z"/>
	<circle cx="17.002" cy="0.75" r="0.75"/>
	<path d="M9.352,24c-2.756-0.018-5.315-1.395-6.847-3.683c-1.639-2.423-2.009-5.509-0.989-8.253
		c0.101-0.311-0.066-0.661-0.386-0.787c-0.735-0.3-1.186-1.029-1.127-1.816C-0.021,8.416,0.841,7.525,1.925,7.5l1.593,0
		C3.617,6.09,4.229,4,7.002,4C7.243,4,8.377,4.03,9.23,4.557C9.84,2.971,11.443,2,13.502,2c1.724,0.002,3.287,0.988,4.036,2.528
		c0.177-0.028,0.356-0.042,0.536-0.042c0.077,0,0.155,0.003,0.233,0.008c0.915,0.061,1.751,0.476,2.354,1.166
		c0.458,0.524,0.739,1.156,0.821,1.84h0.59c1.091,0.028,1.954,0.93,1.931,2.011c0.058,0.746-0.393,1.465-1.123,1.763
		c-0.324,0.127-0.492,0.482-0.385,0.808c1.015,2.728,0.644,5.811-0.996,8.236c-1.531,2.287-4.089,3.664-6.843,3.683
		c0,0-0.001,0-0.002,0H9.352z M1.94,8.5C1.411,8.514,0.991,8.957,1.002,9.489c-0.028,0.396,0.169,0.725,0.501,0.861
		c0.806,0.318,1.228,1.216,0.957,2.044c-0.913,2.457-0.585,5.207,0.874,7.365C4.683,21.772,6.934,22.984,9.355,23h5.297
		c2.419-0.017,4.669-1.229,6.016-3.241c1.46-2.16,1.79-4.906,0.882-7.347c-0.276-0.843,0.146-1.746,0.957-2.065
		c0.322-0.132,0.522-0.457,0.497-0.809c0.01-0.578-0.405-1.023-0.945-1.037l-0.588,0c-0.155,1.156-0.903,2.167-1.968,2.656V14
		c0,0.27-0.037,0.539-0.109,0.8c-0.36,1.298-1.553,2.204-2.9,2.204c-0.271,0-0.541-0.037-0.803-0.11
		c-1.317-0.396-2.215-1.625-2.188-2.992V9.968c0-0.276,0.224-0.5,0.5-0.5s0.5,0.224,0.5,0.5v3.944
		c-0.019,0.927,0.584,1.756,1.465,2.021c0.169,0.047,0.348,0.072,0.527,0.072c0.899,0,1.694-0.605,1.935-1.472
		c0.048-0.174,0.073-0.353,0.073-0.533v-3.183c0-0.215,0.137-0.406,0.342-0.474c0.966-0.322,1.632-1.221,1.658-2.239
		c0.001-0.025,0.001-0.04,0.001-0.055l0-0.02C20.503,8.018,20.502,8.009,20.502,8c0-0.012,0.001-0.025,0.003-0.039
		c0.012-0.611-0.195-1.182-0.597-1.643c-0.428-0.489-1.02-0.783-1.669-0.827c-0.054-0.004-0.108-0.005-0.162-0.005
		c-0.235,0-0.469,0.034-0.693,0.1C17.339,5.6,17.29,5.607,17.241,5.607c-0.208,0-0.396-0.131-0.468-0.327
		C16.269,3.918,14.954,3.001,13.501,3c-1.911,0-3.287,1.008-3.504,2.569C9.968,5.778,9.81,5.947,9.603,5.99
		C9.569,5.997,9.535,6,9.502,6C9.329,6,9.165,5.908,9.075,5.76C8.736,5.202,7.649,5,7.002,5C5.439,5,4.645,5.796,4.519,7.5h7.515
		c0.276,0,0.5,0.224,0.5,0.5s-0.224,0.5-0.5,0.5H1.94z"/>
</g>
</svg>
