<?xml version="1.0" encoding="utf-8"?>
<!-- Generator: Adobe Illustrator 22.1.0, SVG Export Plug-In . SVG Version: 6.00 Build 0)  -->
<svg version="1.1" id="Light" xmlns="http://www.w3.org/2000/svg" xmlns:xlink="http://www.w3.org/1999/xlink" x="0px" y="0px"
	 viewBox="0 0 24 24" style="enable-background:new 0 0 24 24;" xml:space="preserve">
<g>
	<title>halloween-pumpkin</title>
	<path d="M9,24c-2.409-0.027-4.659-0.989-6.34-2.708c-1.68-1.719-2.591-3.99-2.563-6.394c0.027-2.404,0.989-4.653,2.709-6.334
		C4.492,6.915,6.717,6.005,9.073,6c0.724-0.499,1.558-0.824,2.427-0.947V0.5C11.5,0.224,11.724,0,12,0c0.276,0,0.5,0.224,0.5,0.5
		v4.553c0.869,0.123,1.701,0.448,2.426,0.946c4.896,0.011,8.921,3.998,8.978,8.898c0.027,2.404-0.883,4.675-2.564,6.394
		c-1.68,1.719-3.93,2.681-6.333,2.708c-0.001,0-0.002,0-0.003,0H9z M7.889,7.089C6.232,7.334,4.728,8.083,3.505,9.279
		c-1.528,1.494-2.383,3.493-2.408,5.63c-0.024,2.137,0.785,4.155,2.279,5.683c1.494,1.528,3.493,2.383,5.63,2.408H15
		c2.132-0.024,4.131-0.879,5.625-2.408c1.494-1.528,2.303-3.546,2.279-5.683c-0.045-3.916-2.976-7.23-6.788-7.815
		c0.664,0.814,1.096,1.801,1.236,2.84c0.037,0.273-0.156,0.525-0.429,0.562c-0.023,0.003-0.045,0.004-0.067,0.004
		c-0.249,0-0.462-0.186-0.495-0.434C16.062,7.85,14.23,6.143,12,6.001C9.77,6.143,7.938,7.85,7.641,10.066
		C7.608,10.313,7.394,10.5,7.144,10.5c-0.021,0-0.043-0.001-0.064-0.004c-0.275-0.037-0.467-0.289-0.43-0.562
		C6.789,8.893,7.223,7.904,7.889,7.089z"/>
	<path d="M8.807,19.729c-0.224,0-0.444-0.077-0.62-0.216c-0.042-0.034-0.08-0.069-0.115-0.106l-1.441-1.569
		c-0.09-0.098-0.137-0.226-0.131-0.36c0.006-0.134,0.063-0.257,0.161-0.347C6.754,17.047,6.874,17,7,17
		c0.14,0,0.274,0.059,0.369,0.162l1.439,1.568l0.828-1.041c0.048-0.061,0.104-0.116,0.165-0.165c0.178-0.14,0.391-0.215,0.615-0.215
		c0.041,0,0.081,0.002,0.122,0.008c0.264,0.031,0.501,0.164,0.666,0.373l0.795,0.998l0.798-1c0.047-0.06,0.103-0.116,0.165-0.165
		c0.178-0.14,0.391-0.215,0.615-0.215c0.04,0,0.081,0.002,0.121,0.008c0.264,0.031,0.501,0.164,0.667,0.374l0.825,1.039l1.441-1.567
		C16.727,17.059,16.861,17,17,17c0.126,0,0.246,0.047,0.338,0.132c0.203,0.187,0.216,0.504,0.03,0.707l-1.441,1.568
		c-0.189,0.205-0.457,0.323-0.737,0.323l0,0c-0.251,0-0.492-0.094-0.677-0.263c-0.04-0.037-0.076-0.076-0.108-0.117l-0.825-1.038
		l-0.798,1c-0.19,0.24-0.476,0.378-0.784,0.378c-0.224,0-0.444-0.077-0.62-0.216c-0.06-0.048-0.115-0.103-0.163-0.163l-0.795-0.999
		l-0.83,1.04C9.401,19.591,9.115,19.729,8.807,19.729z"/>
	<path d="M9,14.5c-0.276,0-0.5-0.224-0.5-0.5c0-0.827-0.673-1.5-1.5-1.5S5.5,13.173,5.5,14c0,0.276-0.224,0.5-0.5,0.5
		S4.5,14.276,4.5,14c0-1.378,1.121-2.5,2.5-2.5s2.5,1.122,2.5,2.5C9.5,14.276,9.276,14.5,9,14.5z"/>
	<path d="M19,14.5c-0.276,0-0.5-0.224-0.5-0.5c0-0.827-0.673-1.5-1.5-1.5s-1.5,0.673-1.5,1.5c0,0.276-0.224,0.5-0.5,0.5
		s-0.5-0.224-0.5-0.5c0-1.378,1.122-2.5,2.5-2.5s2.5,1.122,2.5,2.5C19.5,14.276,19.276,14.5,19,14.5z"/>
</g>
</svg>
