<?xml version="1.0" encoding="utf-8"?>
<!-- Generator: Adobe Illustrator 22.1.0, SVG Export Plug-In . SVG Version: 6.00 Build 0)  -->
<svg version="1.1" id="Light" xmlns="http://www.w3.org/2000/svg" xmlns:xlink="http://www.w3.org/1999/xlink" x="0px" y="0px"
	 viewBox="0 0 24 24" style="enable-background:new 0 0 24 24;" xml:space="preserve">
<g>
	<title>halloween-cauldron-mix</title>
	<path d="M12,24C5.935,24,1,19.387,1,13.717c0-1.157,0.206-2.294,0.612-3.381C0.542,9.731,0,9.031,0,8.253
		c0-0.704,0.474-1.728,2.731-2.611C2.789,5.62,2.85,5.608,2.913,5.608c0.207,0,0.39,0.125,0.466,0.318
		c0.049,0.124,0.046,0.26-0.007,0.383C3.318,6.431,3.219,6.525,3.095,6.574C1.764,7.095,1,7.707,1,8.253
		c0,0.433,0.519,0.939,1.426,1.388c0.004,0.001,0.008,0.003,0.011,0.005c0.011,0.005,0.022,0.01,0.033,0.017
		c2.048,0.997,5.607,1.591,9.531,1.591c3.925,0,7.486-0.594,9.531-1.591c0.012-0.007,0.024-0.014,0.036-0.019
		c0.005-0.002,0.011-0.004,0.017-0.006C22.476,9.197,23,8.688,23,8.253c0-0.595-0.967-1.299-2.525-1.837
		c-0.26-0.09-0.399-0.376-0.309-0.636c0.07-0.201,0.26-0.337,0.473-0.337c0.055,0,0.11,0.009,0.163,0.027
		C23.445,6.385,24,7.488,24,8.253c0,0.778-0.542,1.479-1.613,2.083C22.794,11.424,23,12.56,23,13.717C23,19.387,18.065,24,12,24z
		 M2.517,10.772C2.174,11.721,2,12.71,2,13.717C2,18.836,6.486,23,12,23c5.514,0,10-4.164,10-9.283c0-1.007-0.174-1.996-0.517-2.945
		c-2.219,0.917-5.814,1.481-9.483,1.481C8.331,12.253,4.736,11.689,2.517,10.772z"/>
	<path d="M6.874,5.619c-0.246,0-0.459-0.184-0.494-0.428C6.36,5.06,6.393,4.928,6.473,4.821c0.08-0.107,0.197-0.177,0.329-0.196
		c1.678-0.246,3.396-0.371,5.105-0.371l0.095,0c0.625,0,1.259,0.016,1.883,0.046c0.276,0.014,0.489,0.249,0.475,0.524
		c-0.013,0.267-0.232,0.475-0.498,0.475c-0.004,0-0.023,0-0.027-0.001c-0.601-0.03-1.255-0.045-1.943-0.045
		c-1.65,0-3.313,0.121-4.945,0.361C6.923,5.617,6.898,5.619,6.874,5.619z"/>
	<path d="M20.151,9.024c-0.057,0-0.113-0.01-0.166-0.029c-2.358-0.831-4.819-1.252-7.316-1.252c-0.218,0-0.436,0.003-0.654,0.01
		c-1.343,0.002-2.656,0.084-3.907,0.243C8.085,7.999,8.065,8,8.045,8C7.793,8,7.58,7.812,7.548,7.563
		C7.513,7.29,7.707,7.039,7.981,7.004c1.31-0.167,2.62-0.251,3.896-0.251l0.125,0c0.219-0.007,0.447-0.01,0.674-0.01
		c2.605,0,5.176,0.44,7.641,1.309c0.126,0.044,0.227,0.135,0.285,0.256c0.058,0.12,0.065,0.256,0.021,0.382
		C20.552,8.89,20.362,9.024,20.151,9.024z"/>
	<path d="M6.805,9.998c-0.192,0-0.369-0.112-0.452-0.285L2.549,1.715C2.43,1.466,2.536,1.167,2.785,1.049C2.853,1.016,2.925,1,3,1
		c0.192,0,0.37,0.112,0.452,0.285l3.805,7.998C7.375,9.532,7.269,9.831,7.02,9.949C6.952,9.982,6.88,9.998,6.805,9.998z"/>
	<path d="M17.5,6.5c-1.103,0-2-0.897-2-2s0.897-2,2-2s2,0.897,2,2S18.603,6.5,17.5,6.5z M17.5,3.5c-0.552,0-1,0.449-1,1s0.448,1,1,1
		s1-0.449,1-1S18.052,3.5,17.5,3.5z"/>
	<path d="M21.5,3C20.673,3,20,2.327,20,1.5S20.673,0,21.5,0S23,0.673,23,1.5S22.327,3,21.5,3z M21.5,1C21.224,1,21,1.224,21,1.5
		S21.224,2,21.5,2S22,1.776,22,1.5S21.776,1,21.5,1z"/>
	<circle cx="10.5" cy="9.75" r="0.75"/>
	<circle cx="15.25" cy="9.25" r="0.75"/>
</g>
</svg>
