<?xml version="1.0" encoding="utf-8"?>
<!-- Generator: Adobe Illustrator 22.1.0, SVG Export Plug-In . SVG Version: 6.00 Build 0)  -->
<svg version="1.1" id="Light" xmlns="http://www.w3.org/2000/svg" xmlns:xlink="http://www.w3.org/1999/xlink" x="0px" y="0px"
	 viewBox="0 0 24 24" style="enable-background:new 0 0 24 24;" xml:space="preserve">
<g>
	<title>ice-cream-bite</title>
	<path d="M12,24.001c-1.103,0-2-0.897-2-2v-5H7.5c-0.827,0-1.5-0.673-1.5-1.5v-9.5C6,5.418,6.085,4.839,6.252,4.28
		C7.006,1.76,9.371,0,12.003,0c0.58,0,1.158,0.085,1.718,0.253c0.059,0.018,0.113,0.04,0.166,0.067
		c0.238,0.122,0.415,0.329,0.497,0.583c0.082,0.254,0.06,0.525-0.061,0.763C14.111,2.077,14,2.538,14,3.001c0,1.654,1.346,3,3,3
		c0.552,0,1,0.449,1,1v8.5c0,0.827-0.673,1.5-1.5,1.5H14v5C14,23.104,13.103,24.001,12,24.001z M11,22.001c0,0.552,0.449,1,1,1
		c0.552,0,1-0.448,1-1v-5h-2V22.001z M12.003,1C9.809,1,7.839,2.466,7.21,4.567C7.071,5.033,7,5.515,7,6.001v9.5
		c0,0.276,0.224,0.5,0.5,0.5h9c0.276,0,0.5-0.224,0.5-0.5v-8.5c-2.206,0-4-1.794-4-4c0-0.62,0.149-1.24,0.432-1.792
		C12.967,1.07,12.485,1,12.003,1z"/>
</g>
</svg>
