<?xml version="1.0" encoding="utf-8"?>
<!-- Generator: Adobe Illustrator 22.1.0, SVG Export Plug-In . SVG Version: 6.00 Build 0)  -->
<svg version="1.1" id="Light" xmlns="http://www.w3.org/2000/svg" xmlns:xlink="http://www.w3.org/1999/xlink" x="0px" y="0px"
	 viewBox="0 0 24 24" style="enable-background:new 0 0 24 24;" xml:space="preserve">
<g>
	<title>ice-cream</title>
	<path d="M12,24c-0.276,0-0.5-0.224-0.5-0.5V18h-3C7.673,18,7,17.327,7,16.5V5c0-2.757,2.243-5,5-5c2.757,0,5,2.243,5,5v11.5
		c0,0.827-0.673,1.5-1.5,1.5h-3v5.5C12.5,23.776,12.276,24,12,24z M12,1C9.794,1,8,2.794,8,5v11.5C8,16.776,8.224,17,8.5,17h7
		c0.276,0,0.5-0.224,0.5-0.5V5C16,2.794,14.206,1,12,1z"/>
	<path d="M14.5,12.5c-0.827,0-1.5-0.673-1.5-1.5V7c0-0.276-0.224-0.5-0.5-0.5C12.224,6.5,12,6.724,12,7c0,0.827-0.673,1.5-1.5,1.5
		S9,7.827,9,7V5c0-0.276,0.224-0.5,0.5-0.5S10,4.724,10,5v2c0,0.276,0.224,0.5,0.5,0.5S11,7.276,11,7c0-0.827,0.673-1.5,1.5-1.5
		S14,6.173,14,7v4c0,0.276,0.224,0.5,0.5,0.5S15,11.724,15,12C15,12.276,14.776,12.5,14.5,12.5z"/>
</g>
</svg>
