<?xml version="1.0" encoding="utf-8"?>
<!-- Generator: Adobe Illustrator 22.1.0, SVG Export Plug-In . SVG Version: 6.00 Build 0)  -->
<svg version="1.1" id="Light" xmlns="http://www.w3.org/2000/svg" xmlns:xlink="http://www.w3.org/1999/xlink" x="0px" y="0px"
	 viewBox="0 0 24 24" style="enable-background:new 0 0 24 24;" xml:space="preserve">
<g>
	<title>ice-cream-stand</title>
	<path d="M17.5,24c-1.103,0-2-0.897-2-2c0-0.357,0.093-0.699,0.268-1H8.5v2.5C8.5,23.776,8.276,24,8,24s-0.5-0.224-0.5-0.5V21H7
		c-0.276,0-0.5-0.224-0.5-0.5v-4C6.5,15.122,7.621,14,9,14h2.502l-0.001-4.454c-0.119-0.759-0.757-1.308-1.524-1.308
		c-0.057,0-0.115,0.003-0.173,0.009C9.786,8.249,9.768,8.25,9.75,8.25S9.714,8.249,9.696,8.247C9.639,8.241,9.582,8.238,9.525,8.238
		c-0.778,0-1.421,0.56-1.53,1.332C7.96,9.815,7.748,10,7.5,10S7.04,9.815,7.005,9.57C6.896,8.798,6.253,8.238,5.477,8.238
		c-0.057,0-0.115,0.003-0.173,0.009C5.286,8.249,5.268,8.25,5.25,8.25S5.214,8.249,5.196,8.247C5.139,8.241,5.082,8.238,5.025,8.238
		c-0.778,0-1.421,0.56-1.53,1.332C3.461,9.815,3.248,10,3,10c-0.005,0-0.028-0.001-0.033-0.001C2.704,9.981,2.5,9.761,2.5,9.5
		C2.5,4.262,6.762,0,12,0s9.5,4.262,9.5,9.5c0,0.261-0.204,0.481-0.465,0.499c-0.006,0-0.026,0.001-0.032,0.001
		c-0.253,0-0.463-0.181-0.498-0.43c-0.109-0.772-0.751-1.332-1.528-1.332c-0.057,0-0.115,0.003-0.173,0.009
		C18.786,8.249,18.768,8.25,18.75,8.25s-0.036-0.001-0.054-0.003c-0.058-0.006-0.116-0.009-0.173-0.009
		c-0.776,0-1.419,0.56-1.528,1.332C16.961,9.815,16.748,10,16.5,10s-0.461-0.185-0.495-0.43c-0.109-0.772-0.751-1.332-1.528-1.332
		c-0.057,0-0.115,0.003-0.173,0.009C14.286,8.249,14.268,8.25,14.25,8.25s-0.036-0.001-0.054-0.003
		c-0.058-0.006-0.116-0.009-0.173-0.009c-0.762,0-1.399,0.545-1.522,1.299L12.502,14h5.317l2.861-2.384
		C20.77,11.541,20.884,11.5,21,11.5c0.148,0,0.289,0.065,0.384,0.179c0.177,0.212,0.148,0.528-0.063,0.704l-2.82,2.35v5.537
		c0.612,0.355,1,1.018,1,1.729C19.5,23.103,18.603,24,17.5,24z M17.5,21c-0.552,0-1,0.448-1,1s0.448,1,1,1s1-0.448,1-1
		S18.052,21,17.5,21z M17.5,20v-5H9c-0.827,0-1.5,0.673-1.5,1.5V20H17.5z M5.479,7.238c0.804,0,1.547,0.375,2.021,1
		c0.475-0.625,1.219-1,2.024-1c0.075,0,0.15,0.003,0.226,0.01c0.077-0.007,0.153-0.01,0.229-0.01c0.803,0,1.546,0.375,2.021,1
		c0.475-0.625,1.217-1,2.021-1c0.076,0,0.152,0.003,0.229,0.01c0.077-0.007,0.154-0.01,0.229-0.01c0.803,0,1.546,0.375,2.021,1
		c0.475-0.625,1.218-1,2.021-1c0.075,0,0.152,0.003,0.229,0.01c0.077-0.007,0.153-0.01,0.228-0.01c0.464,0,0.916,0.128,1.308,0.362
		C19.41,3.794,15.96,1,12,1C8.04,1,4.59,3.794,3.714,7.599c0.391-0.234,0.844-0.361,1.308-0.361c0.075,0,0.151,0.003,0.227,0.01
		C5.327,7.241,5.403,7.238,5.479,7.238z"/>
</g>
</svg>
