<?xml version="1.0" encoding="utf-8"?>
<!-- Generator: Adobe Illustrator 22.1.0, SVG Export Plug-In . SVG Version: 6.00 Build 0)  -->
<svg version="1.1" id="Light" xmlns="http://www.w3.org/2000/svg" xmlns:xlink="http://www.w3.org/1999/xlink" x="0px" y="0px"
	 viewBox="0 0 24 24" style="enable-background:new 0 0 24 24;" xml:space="preserve">
<g>
	<title>ice-cream-stick-1</title>
	<path d="M12,24c-0.276,0-0.5-0.224-0.5-0.5V18h-5C5.673,18,5,17.327,5,16.5V7c0-3.86,3.14-7,7-7s7,3.14,7,7v9.5
		c0,0.827-0.673,1.5-1.5,1.5h-5v5.5C12.5,23.776,12.276,24,12,24z M6,16.5C6,16.776,6.224,17,6.5,17h11c0.276,0,0.5-0.224,0.5-0.5V8
		H6V16.5z M18,7c0-3.308-2.692-6-6-6C8.692,1,6,3.692,6,7H18z"/>
</g>
</svg>
