<?xml version="1.0" encoding="utf-8"?>
<!-- Generator: Adobe Illustrator 22.1.0, SVG Export Plug-In . SVG Version: 6.00 Build 0)  -->
<svg version="1.1" id="Layer_1" xmlns="http://www.w3.org/2000/svg" xmlns:xlink="http://www.w3.org/1999/xlink" x="0px" y="0px"
	 viewBox="0 0 24 24" style="enable-background:new 0 0 24 24;" xml:space="preserve">
<g>
	<title>os-system-apple</title>
	<path d="M8.423,24c-1.722,0-2.957-1.789-3.775-2.972c-2.127-3.073-3.342-8.153-1.405-11.516c0.995-1.781,2.884-2.925,4.929-2.983
		l0.079-0.001c0.866,0,1.654,0.313,2.348,0.59c0.453,0.181,0.905,0.36,1.182,0.36c0.24,0,0.668-0.169,1.121-0.348
		c0.755-0.298,1.694-0.669,2.704-0.669c0.134,0,0.267,0.007,0.397,0.02c1.712,0.06,3.343,0.946,4.345,2.369
		c0.079,0.113,0.109,0.254,0.081,0.389c-0.028,0.135-0.111,0.253-0.229,0.325c-1.307,0.801-2.098,2.194-2.115,3.727
		c0.008,1.719,1.037,3.269,2.623,3.945c0.239,0.102,0.359,0.365,0.281,0.612c-0.367,1.148-0.896,2.235-1.573,3.229
		c-0.917,1.342-1.956,2.862-3.738,2.895l-0.089,0.001c-0.767,0-1.312-0.236-1.793-0.443c-0.53-0.23-0.976-0.423-1.728-0.423
		c-0.793,0-1.263,0.2-1.807,0.432c-0.499,0.212-1.012,0.431-1.745,0.46C8.487,23.999,8.455,24,8.423,24L8.423,24z M8.197,7.528
		C6.505,7.576,4.94,8.525,4.113,10.005c-1.295,2.248-1.259,6.674,1.358,10.453C6.396,21.798,7.318,23,8.42,23l0.061-0.001
		c0.548-0.022,0.938-0.188,1.389-0.38c0.563-0.24,1.202-0.512,2.2-0.512c0.958,0,1.571,0.265,2.111,0.499
		c0.476,0.206,0.849,0.367,1.41,0.367l0.069-0.001c1.267-0.023,2.151-1.317,2.932-2.458c0.541-0.794,0.98-1.655,1.306-2.559
		c-1.707-0.912-2.803-2.719-2.811-4.665c0.018-1.682,0.809-3.253,2.13-4.261c-0.828-0.931-2.036-1.505-3.281-1.55
		c-0.116-0.011-0.217-0.016-0.317-0.016c-0.834,0-1.674,0.332-2.349,0.598c-0.568,0.224-1.058,0.418-1.488,0.418
		c-0.469,0-0.964-0.197-1.536-0.425c-0.619-0.247-1.32-0.526-2-0.526L8.197,7.528z"/>
	<path d="M11.604,6.3c-0.258-0.003-0.474-0.208-0.492-0.465c-0.101-1.429,0.389-2.861,1.344-3.928
		c0.95-1.089,2.27-1.766,3.714-1.905C16.177,0.002,16.21,0,16.218,0c0.118,0,0.232,0.042,0.322,0.118
		c0.102,0.085,0.166,0.211,0.176,0.344c0.111,1.474-0.355,2.905-1.312,4.031C14.513,5.622,13.113,6.3,11.665,6.3L11.604,6.3z
		 M15.728,1.081c-0.975,0.211-1.862,0.732-2.523,1.489c-0.664,0.741-1.057,1.714-1.102,2.705c0.994-0.117,1.903-0.621,2.525-1.411
		C15.303,3.07,15.685,2.096,15.728,1.081z"/>
</g>
</svg>
