<?xml version="1.0" encoding="utf-8"?>
<!-- Generator: Adobe Illustrator 22.1.0, SVG Export Plug-In . SVG Version: 6.00 Build 0)  -->
<svg version="1.1" id="Layer_1" xmlns="http://www.w3.org/2000/svg" xmlns:xlink="http://www.w3.org/1999/xlink" x="0px" y="0px"
	 viewBox="0 0 24 24" style="enable-background:new 0 0 24 24;" xml:space="preserve">
<g>
	<title>os-system-osx</title>
	<path d="M17.449,22c-0.163,0-0.315-0.08-0.409-0.213L12,14.609l-5.04,7.178C6.867,21.92,6.714,22,6.551,22H2.5
		c-0.186,0-0.355-0.102-0.442-0.266c-0.087-0.164-0.076-0.361,0.028-0.515l6.061-8.942L2.078,2.769
		C1.98,2.615,1.974,2.42,2.061,2.26C2.149,2.099,2.317,2,2.5,2h4.051c0.169,0,0.325,0.084,0.418,0.225L12,9.875l5.029-7.65
		C17.122,2.084,17.278,2,17.447,2H21.5c0.183,0,0.352,0.1,0.439,0.261c0.088,0.161,0.081,0.357-0.019,0.511l-6.067,9.397
		l6.063,9.053c0.103,0.154,0.113,0.351,0.025,0.514C21.854,21.898,21.685,22,21.5,22H17.449z M20.563,21l-5.725-8.548
		c-0.111-0.166-0.113-0.382-0.004-0.55L20.582,3h-2.865l-5.299,8.06c-0.089,0.136-0.245,0.218-0.417,0.218
		c-0.172,0-0.328-0.082-0.418-0.218L6.281,3H3.412l5.755,9.017c0.108,0.168,0.105,0.384-0.007,0.55L3.443,21h2.848l5.3-7.548
		c0.091-0.129,0.244-0.207,0.409-0.207s0.319,0.077,0.409,0.207l5.3,7.548H20.563z"/>
</g>
</svg>
