<?xml version="1.0" encoding="utf-8"?>
<!-- Generator: Adobe Illustrator 22.1.0, SVG Export Plug-In . SVG Version: 6.00 Build 0)  -->
<svg version="1.1" id="Layer_1" xmlns="http://www.w3.org/2000/svg" xmlns:xlink="http://www.w3.org/1999/xlink" x="0px" y="0px"
	 viewBox="0 0 24 24" style="enable-background:new 0 0 24 24;" xml:space="preserve">
<g>
	<title>os-system-vodafone</title>
	<path d="M11.999,24C5.396,24,0.014,18.628,0,12.025C-0.014,5.408,5.358,0.014,11.975,0l0.064,0
		C18.639,0.004,24.004,5.378,24,11.977C24.013,18.592,18.641,23.986,12.025,24C12.025,24,11.999,24,11.999,24z M11.976,1
		C5.911,1.013,0.987,5.957,1,12.023C1.013,18.076,5.947,23,12,23c6.088-0.013,11.012-4.957,11-11.022
		c0.003-4.186-2.428-8.057-6.2-9.886c-1.724,0.299-2.683,1.647-2.855,4.01c2.993,0.677,5.173,3.351,5.217,6.439
		c-0.058,3.675-3.085,6.659-6.749,6.659L12.305,19.2c-1.823,0-3.465-0.689-4.745-1.993c-1.424-1.45-2.217-3.522-2.177-5.686
		c-0.108-5.125,3.613-9.498,8.54-10.359C13.303,1.055,12.674,1,12.039,1L11.976,1z M14.531,2.083
		C9.866,2.669,6.282,6.727,6.383,11.52c-0.035,1.913,0.654,3.727,1.891,4.986c1.087,1.108,2.484,1.693,4.039,1.693l0.096,0.001
		c3.123,0,5.704-2.539,5.753-5.66c-0.039-2.773-2.065-5.104-4.816-5.535c-0.249-0.039-0.43-0.258-0.422-0.51
		C12.989,4.469,13.529,2.99,14.531,2.083z"/>
</g>
</svg>
