<?xml version="1.0" encoding="utf-8"?>
<!-- Generator: Adobe Illustrator 22.1.0, SVG Export Plug-In . SVG Version: 6.00 Build 0)  -->
<svg version="1.1" id="Light" xmlns="http://www.w3.org/2000/svg" xmlns:xlink="http://www.w3.org/1999/xlink" x="0px" y="0px"
	 viewBox="0 0 24 24" style="enable-background:new 0 0 24 24;" xml:space="preserve">
<g>
	<title>night-stand</title>
	<path d="M12,24c-5.131,0-9-1.505-9-3.5v-17C3,1.505,6.869,0,12,0s9,1.505,9,3.5v2C21,7.495,17.131,9,12,9
		c-0.078,0.001-0.158,0.001-0.239,0.001c-1.603,0-3.203-0.192-4.761-0.57v11.958C7.357,20.594,9.077,21,12,21
		c2.441,0,4.033-0.285,4.704-0.501C16.037,20.285,14.444,20,12,20c-0.865,0-1.693,0.036-2.461,0.108
		C9.532,20.109,9.5,20.11,9.493,20.11c-0.26,0-0.473-0.195-0.497-0.454c-0.026-0.274,0.177-0.519,0.451-0.544
		C10.246,19.038,11.105,19,12,19c5.415,0,6,1.049,6,1.5S17.415,22,12,22c-5.415,0-6-1.049-6-1.5V7.785
		C6,7.63,6.074,7.481,6.197,7.387C6.283,7.321,6.391,7.285,6.5,7.285c0.045,0,0.09,0.006,0.134,0.018
		c1.671,0.463,3.393,0.698,5.119,0.698c0.08,0,0.161-0.001,0.241-0.002c2.262,0,4.355-0.306,5.897-0.862
		C19.192,6.669,20,6.041,20,5.5V5.158C18.504,6.289,15.471,7,12,7C8.529,7,5.496,6.289,4,5.158V20.5c0,1.044,3.043,2.5,8,2.5
		c2.258,0,4.35-0.306,5.891-0.862C19.192,21.668,20,21.041,20,20.5c0-1.044-3.043-2.5-8-2.5h-0.057
		c-1.114,0-2.237,0.085-3.337,0.254c-0.026,0.004-0.051,0.006-0.075,0.006c-0.249,0-0.458-0.178-0.495-0.424
		c-0.042-0.272,0.146-0.528,0.418-0.57C9.603,17.089,10.791,17,11.986,17C17.131,17,21,18.505,21,20.5S17.131,24,12,24z M12,1
		C9.742,1,7.65,1.306,6.109,1.862C4.808,2.332,4,2.959,4,3.5C4,4.544,7.043,6,12,6c2.258,0,4.35-0.306,5.891-0.862
		C19.192,4.668,20,4.041,20,3.5C20,2.456,16.957,1,12,1z"/>
</g>
</svg>
