<?xml version="1.0" encoding="utf-8"?>
<!-- Generator: Adobe Illustrator 22.1.0, SVG Export Plug-In . SVG Version: 6.00 Build 0)  -->
<svg version="1.1" id="Light" xmlns="http://www.w3.org/2000/svg" xmlns:xlink="http://www.w3.org/1999/xlink" x="0px" y="0px"
	 viewBox="0 0 24 24" style="enable-background:new 0 0 24 24;" xml:space="preserve">
<g>
	<title>night-stand-book</title>
	<path d="M19.501,23.991c-0.056,0-0.112-0.003-0.169-0.009c-0.75-0.078-1.351-0.68-1.429-1.43L17.547,19H6.453l-0.355,3.55
		c-0.079,0.752-0.68,1.354-1.431,1.432c-0.056,0.006-0.113,0.009-0.169,0.009c-0.371,0-0.72-0.124-1.009-0.359
		c-0.333-0.27-0.541-0.654-0.586-1.081L2.547,19H1.5C0.673,19,0,18.327,0,17.5v-12C0,4.673,0.673,4,1.5,4h12.001
		C13.178,3.572,13,3.049,13,2.5V1c0-0.551,0.448-1,1-1h4c0.552,0,1,0.449,1,1v1.5c0,0.548-0.178,1.072-0.501,1.5H22.5
		C23.327,4,24,4.673,24,5.5v12c0,0.827-0.673,1.5-1.5,1.5h-1.047l-0.355,3.55C21.011,23.372,20.325,23.991,19.501,23.991z
		 M3.898,22.45c0.032,0.308,0.292,0.541,0.605,0.541c0.02,0,0.041-0.001,0.061-0.003c0.282-0.03,0.509-0.257,0.538-0.539L5.448,19
		H3.552L3.898,22.45z M18.897,22.45c0.03,0.281,0.257,0.508,0.54,0.538c0.018,0.002,0.038,0.003,0.058,0.003
		c0.314,0,0.575-0.233,0.608-0.543L20.448,19h-1.895L18.897,22.45z M11.917,18l0.813-0.583l-2.917-4.061l-0.812,0.583L11.917,18z
		 M22.5,18c0.276,0,0.5-0.224,0.5-0.5V11H1v6.5C1,17.776,1.224,18,1.5,18H2v-5c0-0.552,0.449-1,1-1h1c0.176,0,0.348,0.048,0.5,0.137
		C4.652,12.048,4.824,12,5,12h1c0.176,0,0.348,0.048,0.5,0.137C6.652,12.048,6.824,12,7,12h1c0.459,0,0.847,0.311,0.964,0.734
		l0.265-0.19c0.172-0.123,0.372-0.188,0.581-0.188c0.055,0,0.11,0.004,0.165,0.014c0.263,0.043,0.494,0.187,0.65,0.404l2.917,4.061
		c0.156,0.216,0.218,0.481,0.174,0.745c-0.025,0.155-0.085,0.298-0.174,0.422H22.5z M10.686,18L9,15.653V18H10.686z M7,18h1v-5H7
		L7,18z M5,18h1v-5H5L5,18z M3,18h1v-5H3L3,18z M23,10V5.5C23,5.224,22.776,5,22.5,5h-21C1.224,5,1,5.224,1,5.5V10H23z M14,2.5
		C14,3.327,14.673,4,15.5,4h1C17.327,4,18,3.327,18,2.5V1h-4L14,2.5z"/>
	<path d="M10.5,8C10.224,8,10,7.776,10,7.5S10.224,7,10.5,7h3C13.776,7,14,7.224,14,7.5S13.776,8,13.5,8H10.5z"/>
</g>
</svg>
