<svg xmlns="http://www.w3.org/2000/svg" viewBox="0 0 24 24"><title>material-tile</title><path d="M20.623,2.777A1.492,1.492,0,0,0,19.139,1.5H4.861A1.492,1.492,0,0,0,3.377,2.777L.741,20.354a.5.5,0,0,0,.185.466A1.5,1.5,0,0,1,1.5,22a.5.5,0,0,0,.5.5H6a.5.5,0,0,0,.5-.5,1.5,1.5,0,0,1,3,0,.5.5,0,0,0,.5.5h4a.5.5,0,0,0,.5-.5,1.5,1.5,0,0,1,3,0,.5.5,0,0,0,.5.5h4a.5.5,0,0,0,.5-.5,1.5,1.5,0,0,1,.574-1.18.5.5,0,0,0,.185-.466ZM5.55,21.5H2.45a2.481,2.481,0,0,0-.679-1.265l2.6-17.309A.5.5,0,0,1,4.861,2.5H8.474L7.623,19.533A2.5,2.5,0,0,0,5.55,21.5Zm8,0h-3.1a2.5,2.5,0,0,0-1.828-1.912L9.476,2.5h5.048l.854,17.088A2.5,2.5,0,0,0,13.55,21.5Zm8,0h-3.1a2.5,2.5,0,0,0-2.073-1.967L15.526,2.5h3.613a.5.5,0,0,1,.494.426l2.6,17.309A2.477,2.477,0,0,0,21.55,21.5Z"/></svg>