<svg xmlns="http://www.w3.org/2000/svg" viewBox="0 0 24 24"><title>material-tile-roof</title><path d="M20.623,2.777A1.511,1.511,0,0,0,19.14,1.5H4.86A1.491,1.491,0,0,0,3.377,2.777C2.809,6.569.534,21.735.506,21.921a.5.5,0,0,0,.457.576c.045,0,.086.006.123.006a.253.253,0,0,0,.25-.135.511.511,0,0,0,.1-.119,3.5,3.5,0,0,1,6.063,0,.5.5,0,0,0,.433.25h.606a.5.5,0,0,0,.433-.25,3.5,3.5,0,0,1,6.063,0,.5.5,0,0,0,.431.249l.536,0h.073a.5.5,0,0,0,.433-.25,3.5,3.5,0,0,1,6.063,0,.5.5,0,0,0,.928-.325ZM3.524,8.544a3.6,3.6,0,0,1,4.661-.257l-.265,5.3a4.424,4.424,0,0,0-5.075-.513Zm5.627.443a3.493,3.493,0,0,1,5.7-.032l.239,4.78a4.46,4.46,0,0,0-6.172.01Zm.077-1.522L9.476,2.5h5.048l.248,4.949A4.529,4.529,0,0,0,12,6.5,4.478,4.478,0,0,0,9.228,7.465Zm6.587.822a3.6,3.6,0,0,1,4.661.257l.679,4.527a4.424,4.424,0,0,0-5.075.513Zm3.818-5.361.632,4.214a4.376,4.376,0,0,0-4.509-.029L15.526,2.5H19.14A.5.5,0,0,1,19.633,2.926Zm-15.266,0A.5.5,0,0,1,4.86,2.5H8.474l-.23,4.611a4.376,4.376,0,0,0-4.509.029Zm.1,16.574a4.506,4.506,0,0,0-2.722.919q.054-.359.121-.8l.778-5.187a3.462,3.462,0,0,1,5.209.563l-.288,5.753A4.508,4.508,0,0,0,4.464,19.5ZM12,19.5a4.514,4.514,0,0,0-3.455,1.625l.277-5.553a3.483,3.483,0,0,1,6.354-.034l.279,5.587A4.514,4.514,0,0,0,12,19.5Zm7.536,0a4.512,4.512,0,0,0-3.1,1.245l-.267-5.339v0l-.021-.41a3.464,3.464,0,0,1,5.209-.564l.9,5.99A4.506,4.506,0,0,0,19.536,19.5Z"/></svg>