<svg xmlns="http://www.w3.org/2000/svg" viewBox="0 0 24 24"><title>material-tile-roof-1</title><path d="M23.185,20.561a.349.349,0,0,0,.057-.244.583.583,0,0,0,0-.059L20.623,2.777A1.492,1.492,0,0,0,19.139,1.5H4.861A1.492,1.492,0,0,0,3.377,2.777L.755,20.258a.583.583,0,0,0,0,.059.349.349,0,0,0,.057.244.511.511,0,0,0,.029.063l0,.005h0a4.5,4.5,0,0,0,7.4-.143,4.5,4.5,0,0,0,7.5,0,4.5,4.5,0,0,0,7.4.142h0l0-.005A.511.511,0,0,0,23.185,20.561ZM15.5,18.5a3.513,3.513,0,0,1-3.165-2.024,4.139,4.139,0,0,0,3.081-1.932,4.119,4.119,0,0,0,3.242,1.943A3.508,3.508,0,0,1,15.5,18.5ZM8,18.5a3.5,3.5,0,0,1-3.144-2.016c.083,0,.165.016.248.016a4.105,4.105,0,0,0,3.438-1.957,4.181,4.181,0,0,0,2.652,1.867A3.512,3.512,0,0,1,8,18.5Zm10.854-3a3.18,3.18,0,0,1-2.889-2.088,4.181,4.181,0,0,0,2.662-1.873A4.2,4.2,0,0,0,21.2,13.376l.122.811A3.087,3.087,0,0,1,18.854,15.5Zm-6.875,0a3.185,3.185,0,0,1-2.888-2.088,4.187,4.187,0,0,0,2.659-1.868,4.137,4.137,0,0,0,3.09,1.933A3.174,3.174,0,0,1,11.979,15.5Zm-9.3-1.312.144-.961a4.212,4.212,0,0,0,2.063-1.7,4.123,4.123,0,0,0,3.08,1.944A3.168,3.168,0,0,1,5.1,15.5,3,3,0,0,1,2.677,14.188ZM3.8,6.681a4.369,4.369,0,0,0,1.08-1.15,4.111,4.111,0,0,0,3.2,1.953A3.044,3.044,0,0,1,5.346,9.5a2.774,2.774,0,0,1-1.853-.749Zm10.911.787A3.051,3.051,0,0,1,11.971,9.5,3.065,3.065,0,0,1,9.2,7.39,4.2,4.2,0,0,0,11.75,5.544,4.155,4.155,0,0,0,14.714,7.468Zm3.911-1.926a4.263,4.263,0,0,0,1.626,1.5L20.5,8.7a2.777,2.777,0,0,1-1.905.8,3.054,3.054,0,0,1-2.756-2.063A4.162,4.162,0,0,0,18.625,5.542ZM15.187,12.5a3.179,3.179,0,0,1-2.863-2.024,3.989,3.989,0,0,0,2.959-1.908,4.01,4.01,0,0,0,2.773,1.889A3.176,3.176,0,0,1,15.187,12.5Zm-6.874,0a3.167,3.167,0,0,1-2.841-2.009A3.952,3.952,0,0,0,8.658,8.567,4.051,4.051,0,0,0,11.2,10.409,3.184,3.184,0,0,1,8.313,12.5Zm12.727-.2a3.35,3.35,0,0,1-1.855-1.865,3.73,3.73,0,0,0,1.486-.591Zm-.994-6.627a3.484,3.484,0,0,1-.85-1.231,3.752,3.752,0,0,0,.64-.17ZM15.187,6.5a3.18,3.18,0,0,1-2.864-2.026,3.979,3.979,0,0,0,2.96-1.921,4.007,4.007,0,0,0,2.772,1.906A3.176,3.176,0,0,1,15.187,6.5Zm-3.216-3a2.851,2.851,0,0,1-2.119-1h4.237A2.852,2.852,0,0,1,11.971,3.5ZM8.659,2.553A4.026,4.026,0,0,0,11.2,4.408,3.184,3.184,0,0,1,8.313,6.5,3.167,3.167,0,0,1,5.472,4.491,3.95,3.95,0,0,0,8.659,2.553ZM4.066,4.931,4.161,4.3c.062.022.124.045.186.063A3.582,3.582,0,0,1,4.066,4.931Zm-.743,4.95a3.737,3.737,0,0,0,1.026.462A3.4,3.4,0,0,1,3,12.036Zm-.839,5.6a3.976,3.976,0,0,0,1.278.777,3.492,3.492,0,0,1-1.673,1.858Zm19.031-.008.429,2.859A3.535,3.535,0,0,1,19.8,16.382,4.083,4.083,0,0,0,21.515,15.469ZM19.633,2.926l.048.317A2.654,2.654,0,0,1,18.6,3.5a2.853,2.853,0,0,1-2.119-1h2.663A.5.5,0,0,1,19.633,2.926ZM4.861,2.5H7.466a2.85,2.85,0,0,1-2.12,1,2.639,2.639,0,0,1-1.031-.232l.052-.342A.5.5,0,0,1,4.861,2.5ZM4.5,21.5a3.5,3.5,0,0,1-2.721-1.326l.139-.922a4.479,4.479,0,0,0,2.341-1.776,4.508,4.508,0,0,0,3.4,2A3.5,3.5,0,0,1,4.5,21.5Zm7.5,0a3.509,3.509,0,0,1-3.19-2.083,4.531,4.531,0,0,0,2.939-1.929,4.531,4.531,0,0,0,3.413,1.991A3.51,3.51,0,0,1,12,21.5Zm7.5,0a3.5,3.5,0,0,1-3.19-2.083,4.531,4.531,0,0,0,2.943-1.934,4.535,4.535,0,0,0,2.849,1.9l.119.791A3.5,3.5,0,0,1,19.5,21.5Z"/></svg>