<?xml version="1.0" encoding="utf-8"?>
<!-- Generator: Adobe Illustrator 22.1.0, SVG Export Plug-In . SVG Version: 6.00 Build 0)  -->
<svg version="1.1" id="Layer_1" xmlns="http://www.w3.org/2000/svg" xmlns:xlink="http://www.w3.org/1999/xlink" x="0px" y="0px"
	 viewBox="0 0 24 24" style="enable-background:new 0 0 24 24;" xml:space="preserve">
<g>
	<title>video-game-logo-streamplay</title>
	<path d="M12.001,17c-2.757,0-5-2.243-5-5c0-2.757,2.243-5,5-5c2.757,0,5,2.243,5,5C17.001,14.757,14.758,17,12.001,17z M12.001,8
		c-2.206,0-4,1.794-4,4s1.794,4,4,4s4-1.794,4-4S14.206,8,12.001,8z"/>
	<path d="M10.501,14.5c-0.093,0-0.184-0.026-0.263-0.075c-0.148-0.092-0.237-0.251-0.237-0.425v-4c0-0.174,0.089-0.333,0.237-0.425
		c0.079-0.049,0.17-0.075,0.263-0.075c0.077,0,0.154,0.018,0.223,0.052l4.001,2c0.17,0.085,0.276,0.257,0.276,0.447
		s-0.106,0.362-0.276,0.447l-4,2C10.655,14.482,10.578,14.5,10.501,14.5z M11.001,13.191L13.383,12l-2.382-1.191V13.191z"/>
	<path d="M5.701,17.8c-0.134,0-0.259-0.052-0.354-0.146c-3.113-3.117-3.113-8.19,0-11.307C5.441,6.252,5.567,6.2,5.701,6.2
		c0.133,0,0.259,0.052,0.353,0.146C6.148,6.44,6.201,6.566,6.201,6.7c0,0.134-0.052,0.259-0.146,0.354
		c-2.724,2.728-2.724,7.166,0,9.893c0.195,0.196,0.194,0.513,0,0.708C5.959,17.748,5.834,17.8,5.701,17.8z"/>
	<path d="M18.301,17.806c-0.134,0-0.259-0.052-0.354-0.146s-0.146-0.22-0.146-0.354s0.052-0.259,0.146-0.354
		c2.729-2.729,2.729-7.17,0-9.899c-0.094-0.094-0.146-0.22-0.146-0.354c0-0.134,0.052-0.259,0.146-0.354S18.167,6.2,18.301,6.2
		s0.259,0.052,0.354,0.146c3.119,3.119,3.119,8.194,0,11.313C18.56,17.754,18.434,17.806,18.301,17.806z"/>
	<path d="M3.576,19.925c-0.134,0-0.259-0.052-0.354-0.146C-1.065,15.492-1.067,8.515,3.218,4.226
		c0.099-0.099,0.225-0.151,0.358-0.151l0,0c0.134,0,0.259,0.052,0.354,0.146c0.186,0.186,0.196,0.487,0.021,0.684
		C3.947,4.91,3.932,4.926,3.928,4.929C0.03,8.828,0.03,15.173,3.929,19.072c0.195,0.195,0.195,0.512,0,0.707
		C3.835,19.873,3.709,19.925,3.576,19.925z"/>
	<path d="M20.603,19.851c-0.064,0-0.128-0.024-0.177-0.073l-0.354-0.353c-0.047-0.047-0.073-0.111-0.073-0.177
		s0.026-0.13,0.073-0.177c3.899-3.9,3.899-10.244,0-14.143c-0.195-0.195-0.195-0.512,0-0.707c0.094-0.094,0.22-0.146,0.354-0.146
		l0,0c0.134,0,0.259,0.052,0.354,0.146c4.289,4.289,4.289,11.267,0.001,15.556C20.731,19.827,20.667,19.851,20.603,19.851z"/>
</g>
</svg>
