<?xml version="1.0" encoding="utf-8"?>
<!-- Generator: Adobe Illustrator 22.1.0, SVG Export Plug-In . SVG Version: 6.00 Build 0)  -->
<svg version="1.1" id="Light" xmlns="http://www.w3.org/2000/svg" xmlns:xlink="http://www.w3.org/1999/xlink" x="0px" y="0px"
	 viewBox="0 0 24 24" style="enable-background:new 0 0 24 24;" xml:space="preserve">
<g>
	<title>video-game-logo-directions</title>
	<path d="M12,15.5c-0.107,0-0.208-0.033-0.294-0.096c-0.302-0.22-2.956-2.199-2.956-3.884c0-1.188,0.834-1.909,1.658-2.007
		c0.064-0.008,0.13-0.011,0.197-0.011c0.549,0,1.041,0.246,1.395,0.688c0.354-0.441,0.845-0.688,1.393-0.688
		c0.068,0,0.135,0.004,0.199,0.012c0.824,0.098,1.657,0.818,1.657,2.007c0,1.683-2.653,3.664-2.956,3.884
		C12.208,15.467,12.107,15.5,12,15.5z M10.61,10.501c-0.028,0-0.056,0.002-0.083,0.005C10.14,10.552,9.75,10.915,9.75,11.52
		c0,0.744,1.139,1.972,2.25,2.851c1.111-0.879,2.25-2.107,2.25-2.851c0-0.605-0.39-0.968-0.775-1.014
		c-0.028-0.003-0.057-0.005-0.085-0.005c-0.427,0-0.756,0.351-0.903,0.964c-0.054,0.225-0.254,0.383-0.486,0.383
		s-0.432-0.158-0.486-0.383C11.305,10.595,10.812,10.501,10.61,10.501z"/>
	<path d="M12,18c-3.308,0-6-2.692-6-6s2.692-6,6-6s6,2.692,6,6S15.308,18,12,18z M12,7c-2.757,0-5,2.243-5,5c0,2.757,2.243,5,5,5
		c2.757,0,5-2.243,5-5C17,9.243,14.757,7,12,7z"/>
	<path d="M17.5,24c-0.827,0-1.5-0.673-1.5-1.5V22h-1v0.5c0,0.276-0.224,0.5-0.5,0.5h-5C9.224,23,9,22.776,9,22.5V22H8v0.5
		C8,23.327,7.327,24,6.5,24h-5C0.673,24,0,23.327,0,22.5v-5C0,16.673,0.673,16,1.5,16H2v-1H1.5C1.224,15,1,14.776,1,14.5v-5
		C1,9.224,1.224,9,1.5,9H2V8H1.5C0.673,8,0,7.327,0,6.5v-5C0,0.673,0.673,0,1.5,0h5C7.327,0,8,0.673,8,1.5V2h1V1.5
		C9,1.224,9.224,1,9.5,1h5C14.776,1,15,1.224,15,1.5V2h1V1.5C16,0.673,16.673,0,17.5,0h5C23.327,0,24,0.673,24,1.5v5
		C24,7.327,23.327,8,22.5,8H22v1h0.5C22.776,9,23,9.224,23,9.5v5c0,0.276-0.224,0.5-0.5,0.5H22v1h0.5c0.827,0,1.5,0.673,1.5,1.5v5
		c0,0.827-0.673,1.5-1.5,1.5H17.5z M17,22.5c0,0.276,0.224,0.5,0.5,0.5h5c0.276,0,0.5-0.224,0.5-0.5v-5c0-0.276-0.224-0.5-0.5-0.5
		h-4.27c-0.358,0.46-0.771,0.873-1.23,1.23V22.5z M1.5,17C1.224,17,1,17.224,1,17.5v5C1,22.776,1.224,23,1.5,23h5
		C6.776,23,7,22.776,7,22.5v-4.27C6.54,17.873,6.127,17.459,5.77,17H1.5z M14,22v-2.26c-0.651,0.172-1.323,0.259-2,0.259
		s-1.349-0.087-2-0.259V22H14z M16,21v-3.02c0-0.16,0.078-0.312,0.208-0.406c0.527-0.379,0.987-0.839,1.366-1.366
		C17.668,16.078,17.82,16,17.98,16H21v-1h-1.94c-0.163,0-0.316-0.08-0.409-0.213c-0.094-0.134-0.116-0.305-0.061-0.458
		c0.546-1.502,0.546-3.157,0-4.659c-0.055-0.153-0.033-0.324,0.06-0.457C18.744,9.08,18.897,9,19.06,9H21V8h-3.02
		c-0.161,0-0.312-0.078-0.406-0.208c-0.379-0.527-0.839-0.987-1.366-1.366C16.078,6.332,16,6.18,16,6.02V3h-1v1.94
		c0,0.163-0.08,0.316-0.213,0.409C14.702,5.409,14.603,5.44,14.5,5.44c-0.058,0-0.115-0.01-0.17-0.03
		C13.582,5.138,12.798,5.001,12,5.001c-0.798,0-1.582,0.138-2.329,0.409C9.616,5.43,9.558,5.44,9.5,5.44
		c-0.103,0-0.203-0.031-0.287-0.091C9.08,5.256,9,5.103,9,4.94V3H8v3.02c0,0.161-0.078,0.312-0.208,0.406
		C7.265,6.805,6.805,7.265,6.426,7.792C6.332,7.922,6.181,8,6.02,8H3v1h1.94c0.163,0,0.317,0.08,0.41,0.214
		c0.093,0.134,0.115,0.306,0.059,0.459C5.134,10.42,4.996,11.202,5,11.998c-0.004,0.8,0.134,1.583,0.409,2.329
		c0.056,0.153,0.034,0.325-0.059,0.459C5.256,14.92,5.103,15,4.94,15H3v1h3.02c0.16,0,0.312,0.078,0.406,0.208
		c0.379,0.527,0.839,0.987,1.366,1.366C7.922,17.667,8,17.819,8,17.98V21h1v-1.94c0-0.163,0.08-0.316,0.213-0.409
		C9.298,18.591,9.397,18.56,9.5,18.56c0.059,0,0.116,0.01,0.172,0.031c0.747,0.271,1.53,0.409,2.328,0.409
		c0.798,0,1.582-0.138,2.329-0.409c0.054-0.02,0.112-0.03,0.171-0.03c0.103,0,0.201,0.031,0.286,0.09
		C14.92,18.744,15,18.897,15,19.06V21H16z M22,14v-4h-2.26c0.349,1.315,0.349,2.685,0,4H22z M4.258,14
		C4.084,13.348,3.997,12.677,4,11.999C3.997,11.323,4.084,10.652,4.257,10H2v4H4.258z M22.5,7C22.776,7,23,6.776,23,6.5v-5
		C23,1.224,22.776,1,22.5,1h-5C17.224,1,17,1.224,17,1.5v4.27c0.459,0.357,0.873,0.77,1.23,1.23H22.5z M1.5,1C1.224,1,1,1.224,1,1.5
		v5C1,6.776,1.224,7,1.5,7h4.27C6.127,6.54,6.54,6.127,7,5.77V1.5C7,1.224,6.776,1,6.5,1H1.5z M12,4.001
		c0.677,0,1.348,0.087,2,0.259V2h-4v2.26C10.652,4.088,11.323,4.001,12,4.001z"/>
</g>
</svg>
