<?xml version="1.0" encoding="utf-8"?>
<!-- Generator: Adobe Illustrator 22.1.0, SVG Export Plug-In . SVG Version: 6.00 Build 0)  -->
<svg version="1.1" id="Light" xmlns="http://www.w3.org/2000/svg" xmlns:xlink="http://www.w3.org/1999/xlink" x="0px" y="0px"
	 viewBox="0 0 24 24" style="enable-background:new 0 0 24 24;" xml:space="preserve">
<g>
	<title>video-game-logo-microsoft</title>
	<path d="M1.757,17c-0.41,0-0.785-0.258-0.932-0.64C-1.221,11.093,0.73,5.029,5.464,1.942C5.627,1.836,5.815,1.78,6.008,1.78
		c0.069,0,0.139,0.007,0.207,0.021C6.477,1.856,6.702,2.01,6.848,2.234C6.954,2.397,7.01,2.586,7.01,2.781V16c0,0.552-0.449,1-1,1
		H1.757z M6.01,2.78c-4.34,2.831-6.128,8.39-4.253,13.219L6.01,16L6.01,2.78z"/>
	<path d="M12.024,24c-0.403-0.001-0.767-0.017-1.113-0.049c-0.518-0.055-0.903-0.485-0.901-1V19c0-0.552,0.449-1,1-1h9.471
		c0.552,0,0.999,0.442,1.008,0.984c0.004,0.246-0.083,0.484-0.244,0.67C18.972,22.414,15.609,24,12.024,24
		C12.024,24,12.024,24,12.024,24z M11.01,22.953c0.318,0.032,0.663,0.041,1.018,0.047c3.281,0,6.364-1.455,8.453-3.991L11.01,19
		L11.01,22.953z"/>
	<path d="M11.01,17c-0.551,0-1-0.448-1-1V1.057c-0.003-0.515,0.383-0.945,0.898-0.997c0.362-0.038,0.733-0.058,1.1-0.06
		c1.497,0.001,2.962,0.276,4.356,0.819c6.168,2.403,9.23,9.376,6.827,15.544C23.04,16.75,22.674,17,22.259,17H11.01z M12.01,1
		c-0.333,0.001-0.67,0.02-0.999,0.054L11.01,16h11.249c1.067-2.738,1.004-5.729-0.178-8.421C20.899,4.888,18.739,2.818,16,1.751
		C14.723,1.253,13.38,1.001,12.01,1z"/>
	<path d="M6.008,22.221c-0.193,0-0.381-0.056-0.545-0.162c-1.022-0.667-1.934-1.482-2.71-2.422C2.606,19.458,2.525,19.232,2.525,19
		c0-0.551,0.449-1,1-1H6.01c0.551,0,1,0.448,1,1v2.221c0,0.194-0.056,0.383-0.162,0.546c-0.146,0.224-0.37,0.377-0.632,0.432
		C6.148,22.214,6.078,22.221,6.008,22.221z M3.525,19c0.712,0.863,1.548,1.61,2.485,2.221l0-2.221H3.525z"/>
</g>
</svg>
