<?xml version="1.0" encoding="utf-8"?>
<!-- Generator: Adobe Illustrator 22.1.0, SVG Export Plug-In . SVG Version: 6.00 Build 0)  -->
<svg version="1.1" id="Layer_1" xmlns="http://www.w3.org/2000/svg" xmlns:xlink="http://www.w3.org/1999/xlink" x="0px" y="0px"
	 viewBox="0 0 24 24" style="enable-background:new 0 0 24 24;" xml:space="preserve">
<g>
	<title>video-game-logo-xsplit</title>
	<path d="M1,24c-0.551,0-1-0.448-1-1V1c0-0.551,0.449-1,1-1h22c0.552,0,1,0.449,1,1v22c0,0.552-0.448,1-1,1H1z M1,23h22V1H1l0,0
		L1,23z"/>
	<path d="M14.5,19c-0.066,0-0.131-0.013-0.192-0.038C14.121,18.885,14,18.703,14,18.5v-2.407l-9.164-1.53
		C4.351,14.482,3.999,14.067,4,13.575V6.59c0-0.055,0.005-0.108,0.013-0.159C4.057,6.166,4.201,5.935,4.418,5.78
		c0.171-0.122,0.371-0.187,0.58-0.187c0.055,0,0.11,0.005,0.165,0.014l14,2.33c0.485,0.08,0.837,0.496,0.836,0.988v6.985
		c0,0.056-0.005,0.112-0.014,0.167c-0.08,0.482-0.494,0.833-0.985,0.833l0,0c-0.054,0-0.109-0.004-0.165-0.014l-1.736-0.29
		l-2.247,2.247C14.759,18.948,14.634,19,14.5,19z M5,13.576l9.583,1.601C14.824,15.217,15,15.424,15,15.67v1.623l1.575-1.575
		c0.094-0.094,0.22-0.146,0.354-0.146c0.026,0,0.053,0.002,0.08,0.006L19,15.91l0-6.986L5,6.593l0,0L5,13.576z"/>
</g>
</svg>
