<?xml version="1.0" encoding="utf-8"?>
<!-- Generator: Adobe Illustrator 22.1.0, SVG Export Plug-In . SVG Version: 6.00 Build 0)  -->
<svg version="1.1" id="Light" xmlns="http://www.w3.org/2000/svg" xmlns:xlink="http://www.w3.org/1999/xlink" x="0px" y="0px"
	 viewBox="0 0 24 24" style="enable-background:new 0 0 24 24;" xml:space="preserve">
<g>
	<title>cat-bed-1</title>
	<path d="M12,21c-6.841,0-12-2.149-12-5V8c0-2.85,5.159-5,12-5s12,2.15,12,5v8C24,18.851,18.841,21,12,21z M1,16
		c0,2.131,5.14,4,11,4s11-1.869,11-4v-5.948c-0.125,0.121-0.262,0.24-0.41,0.355c-0.003,0.003-0.008,0.006-0.013,0.01l0,0
		c-1.042,0.811-2.625,1.48-4.577,1.936l0,1.147c0,1.378-1.122,2.5-2.5,2.5h-7C7.121,16,6,14.878,6,13.5v-1.147
		c-2.251-0.526-3.992-1.331-5-2.302V16z M2.581,10.003c0.915,0.558,2.166,1.03,3.647,1.376C6.683,11.486,7,11.886,7,12.354V13.5
		C7,14.327,7.673,15,8.5,15h7c0.827,0,1.5-0.673,1.5-1.5v-1.147c0-0.467,0.317-0.867,0.772-0.974
		c1.483-0.346,2.734-0.819,3.649-1.377C19.409,8.779,15.778,8,12,8C8.22,8,4.589,8.779,2.581,10.003z M12,4C6.14,4,1,5.869,1,8
		c0,0.455,0.244,0.914,0.726,1.366C3.85,7.903,7.756,7,12,7c4.241,0,8.148,0.902,10.275,2.364C22.756,8.913,23,8.454,23,8
		C23,5.869,17.86,4,12,4z"/>
	<path d="M12,12c-1.742,0-3.5-0.464-3.5-1.5C8.5,10.224,8.724,10,9,10c0.262,0,0.478,0.203,0.498,0.459
		C9.618,10.597,10.408,11,12,11s2.382-0.403,2.502-0.541C14.522,10.203,14.738,10,15,10c0.276,0,0.5,0.224,0.5,0.5
		C15.5,11.536,13.742,12,12,12z"/>
</g>
</svg>
