<?xml version="1.0" encoding="utf-8"?>
<!-- Generator: Adobe Illustrator 22.1.0, SVG Export Plug-In . SVG Version: 6.00 Build 0)  -->
<svg version="1.1" id="Light" xmlns="http://www.w3.org/2000/svg" xmlns:xlink="http://www.w3.org/1999/xlink" x="0px" y="0px"
	 viewBox="0 0 24 24" style="enable-background:new 0 0 24 24;" xml:space="preserve">
<g>
	<title>cat-bell-collar</title>
	<path d="M7,16.6c-0.028,0-0.056-0.002-0.084-0.007C2.586,15.873,0,14.37,0,12.572V7.5c0-0.018,0.005-0.051,0.01-0.075
		C0.207,4.942,5.478,3,12.033,3C18.55,3,23.791,4.941,23.99,7.423C23.995,7.442,24,7.468,24,7.5v5.072
		c0,1.646-2.133,3.043-5.852,3.832c-0.034,0.007-0.069,0.011-0.104,0.011c-0.235,0-0.44-0.167-0.489-0.396
		c-0.057-0.269,0.116-0.535,0.385-0.593C20.967,14.784,23,13.637,23,12.572V9.405C21.155,10.975,16.896,12,12.033,12
		C7.137,12,2.853,10.973,1,9.401v3.171c0,1.192,2.501,2.44,6.082,3.035c0.132,0.022,0.247,0.094,0.325,0.202
		c0.078,0.109,0.108,0.241,0.086,0.373C7.453,16.424,7.246,16.6,7,16.6z M3.189,9.546C5.315,10.474,8.495,11,12.033,11
		c3.521,0,6.685-0.527,8.797-1.456C18.697,8.572,15.463,8,12.033,8C8.589,8,5.337,8.573,3.189,9.546z M12.033,4
		C5.197,4,1,6.08,1,7.572c0,0.445,0.39,0.94,1.102,1.402C4.33,7.754,8.113,7,12.033,7c3.903,0,7.665,0.753,9.877,1.97
		C22.615,8.51,23,8.016,23,7.572C23,6.08,18.828,4,12.033,4z"/>
	<path d="M12.498,21C10.293,20.998,8.5,19.204,8.5,17c0-2.206,1.794-4,4-4s4,1.794,4,4s-1.794,4-4,4H12.498z M12.5,14
		c-1.654,0-3,1.346-3,3c0,1.468,1.081,2.718,2.505,2.956l0.024-2.403c-0.155-0.141-0.247-0.342-0.247-0.553
		c0-0.414,0.336-0.75,0.75-0.75s0.75,0.336,0.75,0.75c0,0.215-0.094,0.418-0.253,0.559l-0.024,2.396
		C14.425,19.711,15.5,18.463,15.5,17C15.5,15.346,14.154,14,12.5,14z"/>
</g>
</svg>
