<?xml version="1.0" encoding="utf-8"?>
<!-- Generator: Adobe Illustrator 22.1.0, SVG Export Plug-In . SVG Version: 6.00 Build 0)  -->
<svg version="1.1" id="Light" xmlns="http://www.w3.org/2000/svg" xmlns:xlink="http://www.w3.org/1999/xlink" x="0px" y="0px"
	 viewBox="0 0 24 24" style="enable-background:new 0 0 24 24;" xml:space="preserve">
<g>
	<title>cat-lost</title>
	<path d="M16,13.401c-0.276,0-0.5-0.224-0.5-0.5v-5.5c0-2.481-2.019-4.5-4.5-4.5c-2.481,0-4.5,2.019-4.5,4.5v5.5
		c0,0.276-0.224,0.5-0.5,0.5s-0.5-0.224-0.5-0.5v-5.5c0-0.11,0.007-0.219,0.015-0.327l0.002-0.027L4.582,0.977
		c-0.074-0.488,0.204-0.713,0.291-0.77c0.074-0.048,0.196-0.106,0.362-0.106c0.151,0,0.304,0.048,0.454,0.142l3.277,2.048
		c0.648-0.259,1.331-0.39,2.033-0.39c0.702,0,1.385,0.131,2.033,0.39l3.28-2.048c0.15-0.094,0.303-0.142,0.454-0.142
		c0.167,0,0.289,0.058,0.363,0.106c0.087,0.057,0.365,0.282,0.29,0.765l-0.937,6.073l0.001,0.018
		C16.492,7.176,16.5,7.287,16.5,7.401v5.5C16.5,13.176,16.276,13.401,16,13.401z M14.054,2.833c0.738,0.495,1.344,1.161,1.769,1.937
		l0.519-3.366L14.054,2.833z M6.178,4.769c0.424-0.776,1.03-1.441,1.768-1.936L5.659,1.404L6.178,4.769z"/>
	<path d="M8.5,8.152c-0.414,0-0.75-0.336-0.75-0.75c0-0.415,0.336-0.751,0.75-0.751c0.011,0,0.023,0.001,0.035,0.003
		C8.924,6.67,9.242,6.995,9.25,7.387c0,0.005,0,0.023,0,0.028C9.242,7.807,8.926,8.13,8.536,8.149
		C8.524,8.151,8.511,8.152,8.5,8.152z"/>
	<path d="M13.5,8.152c-0.414,0-0.75-0.336-0.75-0.75c0-0.415,0.336-0.751,0.75-0.751c0.011,0,0.023,0.001,0.035,0.003
		c0.388,0.016,0.707,0.341,0.714,0.734c0,0.005,0,0.023,0,0.028c-0.008,0.392-0.323,0.716-0.714,0.734
		C13.523,8.151,13.511,8.152,13.5,8.152z"/>
	<path d="M11,10.402c-0.134,0-0.259-0.052-0.354-0.146l-0.5-0.5c-0.046-0.046-0.083-0.101-0.108-0.162
		c-0.05-0.122-0.05-0.261,0-0.383c0.051-0.122,0.149-0.22,0.27-0.271c0.063-0.026,0.127-0.038,0.192-0.038h1
		c0.065,0,0.129,0.013,0.19,0.038c0.122,0.051,0.221,0.149,0.271,0.27c0.05,0.122,0.05,0.261,0,0.383
		c-0.026,0.062-0.062,0.116-0.108,0.163l-0.5,0.5C11.259,10.35,11.134,10.402,11,10.402z"/>
	<path d="M21,23.902c-0.276,0-0.5-0.224-0.5-0.5v-7.5H19c-0.276,0-0.5-0.224-0.5-0.5s0.224-0.5,0.5-0.5h4c0.276,0,0.5,0.224,0.5,0.5
		s-0.224,0.5-0.5,0.5h-1.5v7.5C21.5,23.678,21.276,23.902,21,23.902z"/>
	<path d="M9,23.901c-1.379,0-2.5-1.122-2.5-2.5v-4c0-1.378,1.121-2.5,2.5-2.5s2.5,1.122,2.5,2.5v4
		C11.5,22.779,10.379,23.901,9,23.901z M9,15.901c-0.827,0-1.5,0.673-1.5,1.5v4c0,0.827,0.673,1.5,1.5,1.5s1.5-0.673,1.5-1.5v-4
		C10.5,16.574,9.827,15.901,9,15.901z"/>
	<path d="M2.5,23.901c-1.103,0-2-0.897-2-2v-6.5c0-0.276,0.224-0.5,0.5-0.5s0.5,0.224,0.5,0.5v6.5c0,0.552,0.449,1,1,1H5
		c0.276,0,0.5,0.224,0.5,0.5s-0.224,0.5-0.5,0.5H2.5z"/>
	<path d="M12.975,23.902c-0.276,0-0.5-0.224-0.5-0.5s0.224-0.5,0.5-0.5h2.146c0.518,0,0.982-0.287,1.213-0.75
		c0.333-0.668,0.061-1.483-0.607-1.816l-1.95-0.975c-0.804-0.401-1.303-1.209-1.303-2.108c0.001-1.297,1.057-2.352,2.354-2.352
		h2.147c0.276,0,0.5,0.224,0.5,0.5s-0.224,0.5-0.5,0.5h-2.146c-0.747,0-1.355,0.607-1.355,1.353c0,0.517,0.287,0.982,0.75,1.213
		l1.95,0.975c0.562,0.28,0.981,0.763,1.18,1.361c0.199,0.597,0.155,1.235-0.125,1.797c-0.401,0.804-1.208,1.303-2.106,1.303H12.975z
		"/>
</g>
</svg>
