<?xml version="1.0" encoding="utf-8"?>
<!-- Generator: Adobe Illustrator 22.1.0, SVG Export Plug-In . SVG Version: 6.00 Build 0)  -->
<svg version="1.1" id="Light" xmlns="http://www.w3.org/2000/svg" xmlns:xlink="http://www.w3.org/1999/xlink" x="0px" y="0px"
	 viewBox="0 0 24 24" style="enable-background:new 0 0 24 24;" xml:space="preserve">
<g>
	<title>cat-carrier-1</title>
	<path d="M1.5,21C0.673,21,0,20.327,0,19.5v-10C0,8.121,1.121,7,2.5,7H7V5.5C7,4.121,8.121,3,9.5,3h5C15.878,3,17,4.121,17,5.5V7
		h4.5C22.878,7,24,8.121,24,9.5v10c0,0.827-0.673,1.5-1.5,1.5H1.5z M1,19.5C1,19.776,1.224,20,1.5,20h21c0.276,0,0.5-0.224,0.5-0.5
		V16h-3.086c-0.209,0.59-0.774,1-1.414,1h-13c-0.64,0-1.205-0.41-1.414-1H1V19.5z M18.5,16c0.276,0,0.5-0.224,0.5-0.5v-4
		c0-0.276-0.224-0.5-0.5-0.5H17v5H18.5z M16,16v-5h-2v5H16z M13,16v-5h-2v5H13z M10,16v-5H8v5H10z M5.5,11C5.224,11,5,11.224,5,11.5
		v4C5,15.776,5.224,16,5.5,16H7v-5H5.5z M23,15V9.5C23,8.673,22.327,8,21.5,8h-19C1.673,8,1,8.673,1,9.5V15h3v-3.5
		C4,10.673,4.673,10,5.5,10h13c0.827,0,1.5,0.673,1.5,1.5L23,15z M16,7V5.5C16,4.673,15.327,4,14.5,4h-5C8.673,4,8,4.673,8,5.5V7H16
		z"/>
</g>
</svg>
