<?xml version="1.0" encoding="utf-8"?>
<!-- Generator: Adobe Illustrator 22.1.0, SVG Export Plug-In . SVG Version: 6.00 Build 0)  -->
<svg version="1.1" id="Light" xmlns="http://www.w3.org/2000/svg" xmlns:xlink="http://www.w3.org/1999/xlink" x="0px" y="0px"
	 viewBox="0 0 24 24" style="enable-background:new 0 0 24 24;" xml:space="preserve">
<g>
	<title>cat-grass-1</title>
	<path d="M9,21.5c-1.381-0.037-2.545-1.045-2.776-2.396L5.566,14.5H5c-0.827,0-1.5-0.673-1.5-1.5s0.673-1.5,1.5-1.5h0.941
		L4.053,7.724C3.929,7.477,4.03,7.176,4.276,7.053C4.345,7.018,4.423,7,4.5,7c0.191,0,0.362,0.106,0.447,0.277L7.059,11.5h0.757
		L6.014,4.134C5.983,4.004,6.003,3.87,6.073,3.756c0.069-0.114,0.179-0.195,0.309-0.226C6.421,3.52,6.461,3.515,6.5,3.515
		c0.231,0,0.431,0.157,0.485,0.381l1.86,7.604h0.666l-0.51-6.461C8.991,4.906,9.033,4.777,9.12,4.675
		c0.087-0.102,0.208-0.163,0.341-0.174c0.007,0,0.03-0.001,0.037-0.001c0.26,0,0.48,0.202,0.501,0.461l0.516,6.539H11.5V3
		c0-0.276,0.224-0.5,0.5-0.5c0.276,0,0.5,0.224,0.5,0.5v8.5h1.007l0.495-6.538C14.021,4.703,14.24,4.5,14.498,4.5
		c0.007,0,0.034,0.001,0.042,0.002c0.131,0.01,0.252,0.071,0.339,0.172c0.087,0.101,0.13,0.231,0.119,0.364l-0.49,6.462h0.661
		l1.844-7.603c0.055-0.225,0.254-0.382,0.485-0.382c0.04,0,0.08,0.005,0.119,0.014c0.129,0.031,0.239,0.111,0.308,0.225
		c0.069,0.114,0.09,0.248,0.059,0.378L16.199,11.5h0.757l2.096-4.222C19.138,7.106,19.309,7,19.5,7c0.077,0,0.154,0.018,0.223,0.053
		c0.119,0.059,0.208,0.161,0.251,0.288c0.043,0.127,0.033,0.262-0.026,0.382L18.073,11.5H19c0.827,0,1.5,0.673,1.5,1.5
		s-0.673,1.5-1.5,1.5h-0.566l-0.656,4.591c-0.233,1.361-1.395,2.372-2.764,2.409c-0.002,0-0.005,0-0.007,0H9z M7.212,18.949
		c0.149,0.871,0.907,1.527,1.802,1.551H15c0.884-0.024,1.639-0.682,1.79-1.564l0.633-4.436H6.576L7.212,18.949z M5,12.5
		c-0.276,0-0.5,0.224-0.5,0.5s0.224,0.5,0.5,0.5h14c0.276,0,0.5-0.224,0.5-0.5s-0.224-0.5-0.5-0.5H5z"/>
</g>
</svg>
