<?xml version="1.0" encoding="utf-8"?>
<!-- Generator: Adobe Illustrator 22.1.0, SVG Export Plug-In . SVG Version: 6.00 Build 0)  -->
<svg version="1.1" id="Light" xmlns="http://www.w3.org/2000/svg" xmlns:xlink="http://www.w3.org/1999/xlink" x="0px" y="0px"
	 viewBox="0 0 24 24" style="enable-background:new 0 0 24 24;" xml:space="preserve">
<g>
	<title>cat-climber</title>
	<path d="M15,23c-0.552,0-1-0.448-1-1v-6c0-0.276,0.224-0.5,0.5-0.5S15,15.724,15,16v6h1v-6c0-0.276,0.224-0.5,0.5-0.5
		S17,15.724,17,16v6c0,0.552-0.448,1-1,1H15z"/>
	<path d="M22,23c-0.552,0-1-0.448-1-1v-7H10v7c0,0.552-0.449,1-1,1H8c-0.551,0-1-0.448-1-1V12c0-0.551,0.449-1,1-1h1
		c0.551,0,1,0.449,1,1v2h11v-2c0-0.551,0.448-1,1-1h1c0.552,0,1,0.449,1,1v10c0,0.552-0.448,1-1,1H22z M22,22h1V12l-1,0L22,22z
		 M8,22h1V12l-1,0L8,22z"/>
	<path d="M1,23c-0.551,0-1-0.448-1-1V2c0-0.551,0.449-1,1-1h1c0.551,0,1,0.449,1,1v5h11V2c0-0.551,0.448-1,1-1h1
		c0.552,0,1,0.449,1,1v11c0,0.276-0.224,0.5-0.5,0.5S16,13.276,16,13V2h-1v11c0,0.276-0.224,0.5-0.5,0.5S14,13.276,14,13V8H3v14
		c0,0.552-0.449,1-1,1H1z M1,22h1V2L1,2L1,22z"/>
</g>
</svg>
