<?xml version="1.0" encoding="utf-8"?>
<!-- Generator: Adobe Illustrator 22.1.0, SVG Export Plug-In . SVG Version: 6.00 Build 0)  -->
<svg version="1.1" id="Light" xmlns="http://www.w3.org/2000/svg" xmlns:xlink="http://www.w3.org/1999/xlink" x="0px" y="0px"
	 viewBox="0 0 24 24" style="enable-background:new 0 0 24 24;" xml:space="preserve">
<g>
	<title>cat-litter</title>
	<path d="M5.909,22.751c-1.054,0-2-0.668-2.354-1.66l-1.907-5.34H1.5c-0.827,0-1.5-0.673-1.5-1.5s0.673-1.5,1.5-1.5H3
		c0.468,0.026,0.894,0.236,1.182,0.578L5.1,14.551c0.095,0.112,0.259,0.191,0.429,0.201l12.964-0.001
		c0.155-0.011,0.315-0.092,0.425-0.222l0.882-1.177c0.302-0.36,0.726-0.574,1.172-0.599l1.528-0.001c0.827,0,1.5,0.673,1.5,1.5
		s-0.673,1.5-1.5,1.5h-0.147l-1.908,5.34c-0.354,0.992-1.3,1.66-2.353,1.66C18.091,22.751,5.909,22.751,5.909,22.751z M1.5,13.751
		c-0.276,0-0.5,0.224-0.5,0.5s0.224,0.5,0.5,0.5H2c0.211,0,0.4,0.134,0.471,0.332l2.026,5.672c0.212,0.595,0.78,0.996,1.412,0.996
		h12.182c0.632,0,1.2-0.401,1.412-0.996l2.026-5.672c0.07-0.198,0.26-0.332,0.471-0.332h0.5c0.276,0,0.5-0.224,0.5-0.5
		s-0.224-0.5-0.5-0.5H21c-0.146,0.009-0.308,0.092-0.418,0.222L19.7,15.15c-0.302,0.36-0.725,0.574-1.171,0.599
		c-0.005,0-0.024,0.001-0.029,0.001h-13c-0.469-0.026-0.895-0.236-1.182-0.578L3.4,13.951c-0.094-0.11-0.255-0.189-0.422-0.2
		L1.5,13.751z"/>
	<path d="M11,13.752c-0.087,0-0.173-0.023-0.248-0.066c-0.239-0.137-0.322-0.443-0.185-0.682l2-3.5
		C12.654,9.348,12.821,9.252,13,9.252c0.087,0,0.172,0.023,0.248,0.066c0.116,0.066,0.199,0.174,0.234,0.302
		C13.518,9.749,13.5,9.884,13.434,10l-2,3.5C11.345,13.655,11.179,13.752,11,13.752z"/>
	<path d="M13.5,13.752c-0.09,0-0.179-0.025-0.257-0.071c-0.236-0.142-0.313-0.449-0.171-0.686l1.5-2.5
		c0.09-0.15,0.254-0.243,0.429-0.243c0.09,0,0.179,0.025,0.257,0.071c0.115,0.069,0.196,0.178,0.228,0.308
		c0.032,0.13,0.012,0.264-0.056,0.379l-1.5,2.5C13.839,13.659,13.675,13.752,13.5,13.752z"/>
	<path d="M8.5,13.752c-0.079,0-0.159-0.019-0.23-0.056c-0.119-0.062-0.206-0.166-0.247-0.293c-0.04-0.127-0.029-0.263,0.033-0.381
		l2.412-4.651c0.698-1.3,2.049-2.105,3.528-2.105c0.139,0,0.279,0.007,0.417,0.022l2.262-4.242c0.261-0.49,0.77-0.794,1.326-0.794
		c0.244,0,0.488,0.061,0.704,0.176c0.729,0.389,1.007,1.299,0.618,2.029l-2.263,4.242c1.038,1.239,1.23,2.997,0.469,4.433
		l-0.721,1.355c-0.087,0.164-0.256,0.265-0.442,0.265c-0.081,0-0.162-0.02-0.234-0.059c-0.244-0.13-0.336-0.433-0.207-0.677
		l0.721-1.354c0.614-1.158,0.39-2.61-0.544-3.53c-0.156-0.154-0.194-0.397-0.091-0.591l2.429-4.555
		c0.13-0.243,0.037-0.547-0.206-0.677c-0.073-0.039-0.152-0.059-0.234-0.059c-0.186,0-0.356,0.101-0.443,0.265l-2.428,4.555
		c-0.087,0.163-0.257,0.265-0.441,0.265c-0.033,0-0.067-0.003-0.1-0.01c-0.196-0.04-0.395-0.061-0.594-0.061
		c-1.091,0-2.128,0.617-2.641,1.572l-2.409,4.644C8.858,13.648,8.688,13.752,8.5,13.752z"/>
</g>
</svg>
