<?xml version="1.0" encoding="utf-8"?>
<!-- Generator: Adobe Illustrator 22.1.0, SVG Export Plug-In . SVG Version: 6.00 Build 0)  -->
<svg version="1.1" id="Light" xmlns="http://www.w3.org/2000/svg" xmlns:xlink="http://www.w3.org/1999/xlink" x="0px" y="0px"
	 viewBox="0 0 24 24" style="enable-background:new 0 0 24 24;" xml:space="preserve">
<g>
	<title>cat-water</title>
	<path d="M6.053,12.894c-3.925,0-6-1.729-6-5v-7c0-0.32,0.146-0.587,0.391-0.713c0.097-0.05,0.202-0.075,0.312-0.075
		c0.167,0,0.338,0.059,0.495,0.171l3.761,2.69c0.344-0.051,0.693-0.076,1.039-0.076S6.746,2.917,7.09,2.968l3.767-2.691
		c0.156-0.112,0.326-0.171,0.494-0.171c0.11,0,0.214,0.025,0.311,0.074c0.246,0.126,0.392,0.393,0.392,0.714v7
		c0.003,0.428-0.037,0.861-0.119,1.285c-0.046,0.235-0.252,0.405-0.492,0.405c-0.031,0-0.062-0.003-0.093-0.009
		C11.077,9.523,10.9,9.26,10.952,8.989c0.069-0.359,0.103-0.726,0.101-1.092V1.366L7.504,3.901c-0.085,0.061-0.185,0.093-0.29,0.093
		c-0.029,0-0.058-0.002-0.087-0.008C6.771,3.924,6.409,3.892,6.051,3.892S5.33,3.924,4.975,3.987
		C4.946,3.992,4.917,3.994,4.888,3.994c-0.105,0-0.206-0.032-0.291-0.093L1.053,1.366l0,6.529c0,2.729,1.589,4,5,4
		c0.276,0,0.5,0.224,0.5,0.5C6.553,12.67,6.329,12.894,6.053,12.894z"/>
	<path d="M4.568,7.835c-0.175,0-0.339-0.093-0.429-0.243C4.002,7.363,3.783,7.201,3.524,7.136c-0.081-0.02-0.164-0.031-0.245-0.031
		c-0.179,0-0.356,0.049-0.512,0.143C2.69,7.295,2.601,7.32,2.51,7.32c-0.175,0-0.339-0.093-0.429-0.243
		C2.013,6.963,1.993,6.828,2.025,6.699c0.032-0.13,0.113-0.239,0.228-0.307c0.312-0.187,0.666-0.286,1.025-0.286
		c0.164,0,0.328,0.02,0.489,0.061c0.518,0.13,0.955,0.453,1.229,0.911c0.069,0.115,0.089,0.249,0.056,0.379
		C5.021,7.586,4.94,7.695,4.825,7.764C4.747,7.81,4.659,7.835,4.568,7.835z"/>
	<path d="M7.553,7.894c-0.088,0-0.174-0.023-0.25-0.067C7.064,7.689,6.982,7.383,7.12,7.144c0.356-0.616,1.021-0.998,1.735-0.998
		c0.348,0,0.692,0.092,0.994,0.266c0.239,0.138,0.321,0.444,0.184,0.683C9.945,7.249,9.779,7.345,9.6,7.345
		c-0.087,0-0.174-0.023-0.25-0.067C9.2,7.192,9.028,7.146,8.854,7.146c-0.357,0-0.69,0.191-0.868,0.499
		C7.897,7.798,7.731,7.894,7.553,7.894z"/>
	<path d="M6.053,10.506c-0.134,0-0.259-0.052-0.354-0.146l-0.5-0.5C5.153,9.813,5.117,9.759,5.092,9.698
		c-0.05-0.122-0.05-0.261,0-0.383c0.051-0.122,0.149-0.22,0.27-0.271c0.062-0.026,0.126-0.038,0.192-0.038h1
		c0.066,0,0.13,0.013,0.191,0.038c0.121,0.051,0.22,0.149,0.27,0.27c0.05,0.122,0.05,0.261,0,0.383
		C6.989,9.759,6.953,9.813,6.907,9.86l-0.5,0.5C6.312,10.454,6.187,10.506,6.053,10.506z"/>
	<path d="M8.043,23.894c-1.381-0.054-2.569-0.979-2.955-2.301L4.69,20c-0.065-0.199-0.044-0.431,0.064-0.637
		c0.108-0.205,0.288-0.357,0.508-0.428c0.088-0.028,0.177-0.042,0.268-0.042c0.018,0,0.036,0,0.053,0.002l6.469-0.001v-2.5
		c0-0.827,0.673-1.5,1.5-1.5h0.448c-0.234-1.141-1.26-2.001-2.447-2.002c-1.057,0-2.004,0.668-2.357,1.664
		c-0.07,0.199-0.26,0.333-0.471,0.333c-0.057,0-0.113-0.01-0.167-0.029c-0.26-0.092-0.396-0.379-0.304-0.638
		c0.495-1.393,1.82-2.329,3.298-2.329c1.242,0.001,2.371,0.652,2.998,1.696c0.145-0.242,0.32-0.466,0.523-0.669
		c0.66-0.662,1.539-1.027,2.473-1.029c1.48,0,2.804,0.933,3.301,2.322c0.045,0.126,0.038,0.261-0.019,0.382
		c-0.057,0.121-0.158,0.212-0.284,0.257c-0.054,0.02-0.111,0.03-0.168,0.03c-0.211,0-0.4-0.134-0.47-0.332
		c-0.355-0.992-1.301-1.658-2.354-1.658c-0.672,0.001-1.299,0.262-1.771,0.735c-0.353,0.354-0.585,0.789-0.68,1.269h0.451
		c0.827,0,1.5,0.673,1.5,1.5v2.5l6,0c-0.001-0.001,0.02-0.002,0.041-0.002c0.197,0,0.4,0.079,0.558,0.217
		c0.175,0.153,0.28,0.366,0.296,0.598c0.007,0.11-0.006,0.219-0.04,0.325l-0.385,1.542c-0.391,1.341-1.574,2.265-2.95,2.319
		l-12.52,0C8.05,23.894,8.047,23.894,8.043,23.894z M6.053,21.332c0.261,0.894,1.074,1.525,2.02,1.562l12.48,0
		c0.928-0.037,1.737-0.671,2.004-1.577l0.356-1.424l-17.22,0.001L6.053,21.332z M16.053,18.894v-2.5c0-0.276-0.224-0.5-0.5-0.5h-2
		c-0.276,0-0.5,0.224-0.5,0.5v2.5H16.053z"/>
	<path d="M8.529,18.143c-0.377-0.013-0.687-0.307-0.721-0.681C7.804,17.445,7.8,17.422,7.8,17.394c0-0.414,0.336-0.75,0.75-0.75
		c0,0,0.002,0,0.003,0c0.414,0,0.75,0.336,0.75,0.75c0,0.018-0.004,0.045-0.008,0.067c-0.025,0.368-0.34,0.671-0.722,0.683
		c-0.007,0-0.013,0.001-0.02,0.001C8.553,18.144,8.536,18.144,8.529,18.143z"/>
	<path d="M20.525,18.143c-0.373-0.016-0.68-0.307-0.716-0.677c-0.004-0.017-0.009-0.042-0.009-0.072c0-0.414,0.336-0.75,0.75-0.75
		c0,0,0.003,0,0.003,0c0.414,0,0.75,0.336,0.75,0.75c0,0.018-0.004,0.047-0.009,0.069c-0.035,0.373-0.344,0.667-0.718,0.68
		c-0.008,0.001-0.016,0.001-0.024,0.001C20.553,18.144,20.533,18.143,20.525,18.143z"/>
</g>
</svg>
