<?xml version="1.0" encoding="utf-8"?>
<!-- Generator: Adobe Illustrator 22.1.0, SVG Export Plug-In . SVG Version: 6.00 Build 0)  -->
<svg version="1.1" id="Light" xmlns="http://www.w3.org/2000/svg" xmlns:xlink="http://www.w3.org/1999/xlink" x="0px" y="0px"
	 viewBox="0 0 24 24" style="enable-background:new 0 0 24 24;" xml:space="preserve">
<g>
	<title>cat</title>
	<path d="M19.844,21.251c-0.466,0-0.896-0.245-1.182-0.673l-0.895-1.345l-0.217,0.867c-0.167,0.669-0.766,1.137-1.455,1.137
		c-0.693-0.002-1.255-0.566-1.254-1.258c0.012-1.746-0.061-2.604-0.531-3.077c-0.462-0.466-1.49-0.665-3.435-0.665
		c-0.33,0-0.652,0.007-0.961,0.021l0.359,3.811c0.054,0.591-0.382,1.115-0.972,1.169c-0.033,0.003-0.065,0.004-0.097,0.004
		c-0.42,0-0.804-0.247-0.978-0.629l-1.678-3.677C5.269,17.548,4.693,18.55,3.974,19.8c-0.14,0.243-0.272,0.472-0.411,0.706
		c-0.279,0.468-0.725,0.736-1.223,0.736c-0.202,0-0.403-0.047-0.58-0.135c-0.537-0.267-0.762-0.867-0.536-1.428
		c1.181-2.924,2.136-5.381,2.772-7.125C2.527,11.625,1.7,9.939,1.877,8.199c0.005-3.143,2.121-5.28,4.078-5.443
		c0.082-0.007,0.162-0.01,0.241-0.01c1.297,0,2.256,0.916,2.504,2.391c0.135,0.82-0.441,1.421-1.052,1.57
		c-0.109,0.027-0.218,0.04-0.324,0.04c-0.498,0-0.905-0.293-1.06-0.766c-0.083-0.247-0.165-0.3-0.177-0.3
		c-0.233,0.009-0.817,0.582-1.08,1.605c-0.153,0.593-0.354,2.056,1.013,2.956h7.19c1.42,0,2.688-0.846,3.233-2.154l1.279-3.08
		c0.194-0.462,0.549-0.498,0.654-0.498c0.107,0,0.463,0.038,0.653,0.5l0.75,1.83c0.342,0.214,0.646,0.397,0.914,0.559
		c1.548,0.932,2.184,1.314,2.184,3.025c0,0.999-0.812,1.812-1.811,1.813h-0.88l-1.263,2.526l0.382,0.958
		c1.18,2.962,1.426,3.579,1.608,3.994c0.235,0.536,0.044,1.105-0.464,1.383C20.265,21.199,20.057,21.251,19.844,21.251z
		 M19.494,20.024c0.096,0.144,0.226,0.227,0.355,0.227c0.043,0,0.084-0.01,0.117-0.028c0.051-0.028,0.055-0.044,0.028-0.105
		c-0.182-0.417-0.419-1.011-1.511-3.75l-0.389,1.554L19.494,20.024z M9.136,20.199c0.012,0.027,0.037,0.044,0.066,0.044
		c0.035-0.003,0.051-0.018,0.059-0.027c0.007-0.009,0.019-0.028,0.017-0.054l-0.36-3.828c-0.532,0.059-1.003,0.144-1.427,0.26
		L9.136,20.199z M6.198,3.746c-0.052,0-0.106,0.002-0.161,0.007C4.517,3.88,2.875,5.63,2.875,8.237c0,0.017-0.001,0.034-0.003,0.051
		c-0.155,1.481,0.633,2.924,1.961,3.593c0.225,0.113,0.331,0.378,0.246,0.615c-0.635,1.771-1.648,4.385-2.929,7.557
		c-0.031,0.076-0.03,0.116,0.053,0.158c0.041,0.02,0.087,0.031,0.135,0.031c0.14,0,0.269-0.089,0.365-0.249
		c0.141-0.236,0.274-0.467,0.402-0.69c1.307-2.272,2.338-4.065,7.769-4.065c2.297,0,3.459,0.269,4.144,0.96
		c0.784,0.789,0.834,2.011,0.822,3.785c0,0.14,0.114,0.254,0.255,0.255c0.229,0,0.429-0.156,0.485-0.379l1.31-5.242
		c0.008-0.034,0.021-0.068,0.037-0.101l1.501-3.002c0.085-0.171,0.257-0.276,0.447-0.276h1.188c0.217,0,0.421-0.085,0.574-0.238
		c0.153-0.154,0.238-0.358,0.238-0.574c0-1.146-0.192-1.262-1.688-2.162c-0.314-0.189-0.671-0.404-1.079-0.662
		c-0.088-0.056-0.156-0.136-0.196-0.233l-0.54-1.319l-1.006,2.424c-0.701,1.683-2.332,2.77-4.154,2.77H5.875
		c-0.09,0-0.179-0.025-0.257-0.071c-1.435-0.859-2.026-2.405-1.581-4.134c0.343-1.335,1.187-2.325,2.005-2.355l0.035,0
		c0.3,0,0.847,0.128,1.134,0.983c0.016,0.049,0.033,0.08,0.117,0.08c0.036,0,0.068-0.007,0.08-0.01
		C7.413,5.735,7.77,5.644,7.713,5.301C7.545,4.299,7.007,3.746,6.198,3.746z"/>
	<circle cx="19.141" cy="9.243" r="0.75"/>
</g>
</svg>
