<?xml version="1.0" encoding="utf-8"?>
<!-- Generator: Adobe Illustrator 22.1.0, SVG Export Plug-In . SVG Version: 6.00 Build 0)  -->
<svg version="1.1" id="Layer_1" xmlns="http://www.w3.org/2000/svg" xmlns:xlink="http://www.w3.org/1999/xlink" x="0px" y="0px"
	 viewBox="0 0 24 24" style="enable-background:new 0 0 24 24;" xml:space="preserve">
<g>
	<title>graphic-tablet-draw</title>
	<path d="M1.5,21.5C0.673,21.5,0,20.827,0,20V4c0-0.827,0.673-1.5,1.5-1.5H19c0.276,0,0.5,0.224,0.5,0.5S19.276,3.5,19,3.5H1.5
		C1.224,3.5,1,3.724,1,4v16c0,0.276,0.224,0.5,0.5,0.5h21c0.276,0,0.5-0.224,0.5-0.5V8.5C23,8.224,23.224,8,23.5,8S24,8.224,24,8.5
		V20c0,0.827-0.673,1.5-1.5,1.5H1.5z"/>
	<path d="M2.5,19.5C2.224,19.5,2,19.276,2,19V5c0-0.276,0.224-0.5,0.5-0.5H17c0.276,0,0.5,0.224,0.5,0.5S17.276,5.5,17,5.5H3v13
		h15.5V13c0-0.276,0.224-0.5,0.5-0.5h2v-1.998c0-0.276,0.224-0.5,0.5-0.5s0.5,0.224,0.5,0.5V19c0,0.276-0.224,0.5-0.5,0.5H2.5z
		 M21,18.5v-2h-1.5v2H21z M21,15.5v-2h-1.5v2H21z"/>
	<path d="M8,13.5c-1.103,0-2-0.897-2-2s0.897-2,2-2s2,0.897,2,2S9.103,13.5,8,13.5z M8,10.5c-0.551,0-1,0.449-1,1s0.449,1,1,1
		s1-0.449,1-1S8.551,10.5,8,10.5z"/>
	<path d="M8,15.5c-2.206,0-4-1.794-4-4s1.794-4,4-4s4,1.794,4,4S10.206,15.5,8,15.5z M8,8.5c-1.654,0-3,1.346-3,3
		c0,1.654,1.346,3,3,3s3-1.346,3-3C11,9.846,9.654,8.5,8,8.5z"/>
	<path d="M15.5,12.5c-0.134,0-0.259-0.052-0.354-0.146c-0.118-0.118-0.169-0.287-0.137-0.451l0.5-2.5
		c0.02-0.097,0.067-0.186,0.137-0.255l5.087-5.087c0.36-0.36,0.839-0.559,1.35-0.559c0.51,0,0.989,0.198,1.349,0.557
		C23.801,4.429,24,4.908,24,5.415c0,0.508-0.197,0.986-0.555,1.347l-5.092,5.092c-0.07,0.07-0.158,0.117-0.256,0.137l-2.5,0.5
		C15.566,12.497,15.533,12.5,15.5,12.5z M16.137,11.363l1.616-0.323c0,0,4.991-4.99,4.996-4.994c0.157-0.159,0.252-0.387,0.251-0.63
		c0-0.243-0.095-0.471-0.267-0.643C22.553,4.594,22.326,4.5,22.084,4.5c-0.243,0-0.472,0.094-0.643,0.266l-4.981,4.98L16.137,11.363
		z"/>
</g>
</svg>
