<?xml version="1.0" encoding="utf-8"?>
<!-- Generator: Adobe Illustrator 22.1.0, SVG Export Plug-In . SVG Version: 6.00 Build 0)  -->
<svg version="1.1" id="Layer_1" xmlns="http://www.w3.org/2000/svg" xmlns:xlink="http://www.w3.org/1999/xlink" x="0px" y="0px"
	 viewBox="0 0 24 24" style="enable-background:new 0 0 24 24;" xml:space="preserve">
<g>
	<title>graphic-tablet-intous-draw</title>
	<path d="M22.086,23.999c-0.511,0-0.992-0.199-1.354-0.561L17.294,20H3.5C1.57,20,0,18.43,0,16.5v-13C0,1.57,1.57,0,3.5,0h17
		C22.43,0,24,1.57,24,3.5v13c0,1.262-0.679,2.418-1.757,3.035l1.197,1.197c0.746,0.747,0.746,1.961,0,2.707
		C23.078,23.8,22.597,23.999,22.086,23.999z M21.439,22.731c0.173,0.173,0.402,0.268,0.646,0.268s0.474-0.095,0.646-0.268
		c0.356-0.356,0.356-0.937,0-1.293l-9.646-9.646l-1.293,1.293L21.439,22.731z M3.5,1C2.121,1,1,2.121,1,3.5v13
		C1,17.878,2.121,19,3.5,19h12.794l-1-1H4.5C3.121,18,2,16.878,2,15.5v-7C2,7.121,3.121,6,4.5,6h15C20.878,6,22,7.121,22,8.5v7
		c0,1.009-0.6,1.899-1.502,2.29l1.001,1.001C22.416,18.395,23,17.512,23,16.5v-13C23,2.121,21.878,1,20.5,1H3.5z M4.5,7
		C3.673,7,3,7.673,3,8.5v7C3,16.327,3.673,17,4.5,17h9.794l-3.562-3.562c-0.045-0.045-0.081-0.099-0.106-0.161
		c-0.006-0.011-0.011-0.022-0.014-0.034l-1-3c-0.06-0.181-0.014-0.377,0.121-0.512c0.094-0.094,0.22-0.146,0.354-0.146
		c0.054,0,0.107,0.009,0.158,0.026l3,1c0.011,0.004,0.022,0.008,0.033,0.014c0.061,0.024,0.116,0.061,0.163,0.107l6.253,6.253
		C20.434,16.89,21,16.257,21,15.5v-7C21,7.673,20.327,7,19.5,7H4.5z M11.304,12.159l0.856-0.856l-1.284-0.428L11.304,12.159z"/>
	<path d="M3.5,5C2.673,5,2,4.327,2,3.5S2.673,2,3.5,2H5c0.827,0,1.5,0.673,1.5,1.5S5.827,5,5,5H3.5z M3.5,3C3.224,3,3,3.224,3,3.5
		S3.224,4,3.5,4H5c0.276,0,0.5-0.224,0.5-0.5S5.275,3,5,3H3.5z"/>
	<path d="M19,5c-0.827,0-1.5-0.673-1.5-1.5S18.173,2,19,2h1.5C21.327,2,22,2.673,22,3.5S21.327,5,20.5,5H19z M19,3
		c-0.276,0-0.5,0.224-0.5,0.5S18.724,4,19,4h1.5C20.775,4,21,3.776,21,3.5S20.775,3,20.5,3H19z"/>
	<path d="M12,3.749c-0.414,0-0.75-0.336-0.75-0.75s0.336-0.75,0.75-0.75c0.414,0,0.75,0.336,0.75,0.75S12.413,3.749,12,3.749z"/>
</g>
</svg>
