<?xml version="1.0" encoding="utf-8"?>
<!-- Generator: Adobe Illustrator 22.1.0, SVG Export Plug-In . SVG Version: 6.00 Build 0)  -->
<svg version="1.1" id="Layer_1" xmlns="http://www.w3.org/2000/svg" xmlns:xlink="http://www.w3.org/1999/xlink" x="0px" y="0px"
	 viewBox="0 0 24 24" style="enable-background:new 0 0 24 24;" xml:space="preserve">
<g>
	<title>graphic-tablet-draw-1</title>
	<path d="M2.5,24.001c-1.379,0-2.5-1.122-2.5-2.5v-13c0-1.379,1.121-2.5,2.5-2.5h7.05c0.276,0,0.5,0.224,0.5,0.5s-0.224,0.5-0.5,0.5
		H2.5c-0.827,0-1.5,0.673-1.5,1.5v13c0,0.827,0.673,1.5,1.5,1.5h19c0.827,0,1.5-0.673,1.5-1.5v-13c0-0.827-0.673-1.5-1.5-1.5h-2.051
		c-0.276,0-0.5-0.224-0.5-0.5s0.224-0.5,0.5-0.5H21.5c1.378,0,2.5,1.121,2.5,2.5v13c0,1.378-1.122,2.5-2.5,2.5H2.5z"/>
	<path d="M3.5,22.001c-0.827,0-1.5-0.673-1.5-1.5v-11c0-0.827,0.673-1.5,1.5-1.5h4.05c0.276,0,0.5,0.224,0.5,0.5s-0.224,0.5-0.5,0.5
		H3.5c-0.276,0-0.5,0.224-0.5,0.5v11c0,0.276,0.224,0.5,0.5,0.5h17c0.276,0,0.5-0.224,0.5-0.5v-11c0-0.276-0.224-0.5-0.5-0.5h-3.051
		c-0.276,0-0.5-0.224-0.5-0.5s0.224-0.5,0.5-0.5H20.5c0.827,0,1.5,0.673,1.5,1.5v11c0,0.827-0.673,1.5-1.5,1.5H3.5z"/>
	<path d="M7.5,20.001c-0.827,0-1.5-0.673-1.5-1.5v-1.5H5.5c-0.827,0-1.5-0.673-1.5-1.5v-4c0-0.827,0.673-1.5,1.5-1.5h1.136
		c0.276,0,0.5,0.224,0.5,0.5s-0.224,0.5-0.5,0.5H5.5c-0.276,0-0.5,0.224-0.5,0.5v4c0,0.276,0.224,0.5,0.5,0.5h6
		c0.276,0,0.5-0.224,0.5-0.5v-2c0-0.276,0.224-0.5,0.5-0.5h1c0.827,0,1.5,0.673,1.5,1.5v4c0,0.827-0.673,1.5-1.5,1.5H7.5z M7,18.501
		c0,0.276,0.224,0.5,0.5,0.5h6c0.276,0,0.5-0.224,0.5-0.5v-4c0-0.276-0.224-0.5-0.5-0.5H13v1.5c0,0.827-0.673,1.5-1.5,1.5H7V18.501z
		"/>
	<path d="M17.5,13.001c-0.827,0-1.5-0.673-1.5-1.5s0.673-1.5,1.5-1.5h1c0.827,0,1.5,0.673,1.5,1.5s-0.673,1.5-1.5,1.5H17.5z
		 M17.5,11.001c-0.276,0-0.5,0.224-0.5,0.5s0.224,0.5,0.5,0.5h1c0.276,0,0.5-0.224,0.5-0.5s-0.224-0.5-0.5-0.5H17.5z"/>
	<path d="M17.5,20.001c-0.827,0-1.5-0.673-1.5-1.5v-3c0-0.827,0.673-1.5,1.5-1.5h1c0.827,0,1.5,0.673,1.5,1.5v3
		c0,0.827-0.673,1.5-1.5,1.5H17.5z M17.5,15.001c-0.276,0-0.5,0.224-0.5,0.5v3c0,0.276,0.224,0.5,0.5,0.5h1
		c0.276,0,0.5-0.224,0.5-0.5v-3c0-0.276-0.224-0.5-0.5-0.5H17.5z"/>
	<path d="M8,13.501c-0.134,0-0.259-0.052-0.354-0.147c-0.128-0.128-0.177-0.317-0.127-0.491l0.854-2.975
		c0.024-0.082,0.068-0.156,0.128-0.216l9.085-9.086C17.968,0.207,18.468,0.001,19,0.001c0.535,0,1.037,0.208,1.415,0.585
		c0.78,0.781,0.78,2.05,0,2.829l-9.086,9.085c-0.059,0.06-0.134,0.104-0.215,0.127l-2.975,0.854C8.094,13.495,8.047,13.501,8,13.501
		z M8.73,12.272l1.983-0.569l8.995-8.994c0.39-0.39,0.39-1.024,0.001-1.414c0,0,0,0-0.001-0.001C19.519,1.105,19.268,1.001,19,1.001
		c-0.268,0-0.519,0.104-0.707,0.292l-8.994,8.995L8.73,12.272z"/>
</g>
</svg>
