<?xml version="1.0" encoding="utf-8"?>
<!-- Generator: Adobe Illustrator 22.1.0, SVG Export Plug-In . SVG Version: 6.00 Build 0)  -->
<svg version="1.1" id="Layer_1" xmlns="http://www.w3.org/2000/svg" xmlns:xlink="http://www.w3.org/1999/xlink" x="0px" y="0px"
	 viewBox="0 0 24 24" style="enable-background:new 0 0 24 24;" xml:space="preserve">
<g>
	<title>drone-controller</title>
	<path d="M17,20c-1.93,0-3.5-1.57-3.5-3.5S15.07,13,17,13c0.376,0,0.745,0.06,1.101,0.179l0.44-0.899
		C18.626,12.107,18.798,12,18.99,12c0.076,0,0.152,0.018,0.22,0.051c0.247,0.121,0.35,0.421,0.229,0.669l-0.445,0.91
		c0.947,0.656,1.506,1.714,1.506,2.871C20.5,18.43,18.93,20,17,20z M17,14c-1.378,0-2.5,1.122-2.5,2.5S15.622,19,17,19
		s2.5-1.122,2.5-2.5c0-0.772-0.351-1.486-0.952-1.959l-1.066,2.178C17.396,16.892,17.224,17,17.032,17
		c-0.077,0-0.151-0.017-0.219-0.051c-0.248-0.121-0.35-0.421-0.229-0.669l1.073-2.191C17.441,14.029,17.221,14,17,14z"/>
	<path d="M7,20c-1.93,0-3.5-1.57-3.5-3.5c0-1.739,1.301-3.216,3.001-3.461V12.5c0-0.276,0.224-0.5,0.5-0.5s0.5,0.224,0.5,0.5v0.539
		C9.2,13.284,10.5,14.762,10.5,16.5C10.5,18.43,8.93,20,7,20z M6.501,14.051C5.359,14.286,4.5,15.312,4.5,16.5
		C4.5,17.878,5.621,19,7,19s2.5-1.122,2.5-2.5c0-1.187-0.858-2.213-1.999-2.448V16.5c0,0.276-0.224,0.5-0.5,0.5s-0.5-0.224-0.5-0.5
		V14.051z"/>
	<path d="M9.767,7C9.625,7,9.489,6.939,9.394,6.833c-1.19-1.33-1.19-3.336,0-4.666C9.489,2.06,9.625,2,9.767,2
		C9.89,2,10.009,2.045,10.1,2.127c0.099,0.089,0.158,0.211,0.166,0.345c0.007,0.133-0.038,0.262-0.127,0.361
		c-0.85,0.95-0.85,2.383,0,3.333c0.089,0.099,0.134,0.228,0.127,0.361C10.259,6.661,10.2,6.783,10.1,6.872
		C10.009,6.954,9.89,7,9.767,7z"/>
	<path d="M14.233,7C14.11,7,13.991,6.954,13.9,6.872c-0.206-0.184-0.223-0.501-0.039-0.706c0.85-0.95,0.85-2.383,0-3.333
		c-0.184-0.205-0.166-0.522,0.039-0.706C13.991,2.045,14.11,2,14.233,2c0.142,0,0.278,0.061,0.373,0.167
		c1.189,1.33,1.189,3.336,0,4.666C14.511,6.939,14.375,7,14.233,7z"/>
	<path d="M6.8,8c-0.178,0-0.344-0.096-0.433-0.25c-1.156-2.004-1.156-4.495,0-6.499c0.089-0.154,0.255-0.25,0.433-0.25
		c0.088,0,0.174,0.023,0.25,0.067C7.289,1.204,7.371,1.51,7.233,1.749c-0.978,1.696-0.978,3.804,0,5.5
		C7.3,7.366,7.318,7.5,7.283,7.629C7.248,7.758,7.166,7.866,7.05,7.933C6.974,7.976,6.888,8,6.8,8z"/>
	<path d="M17.2,8c-0.087,0-0.174-0.023-0.25-0.067c-0.115-0.067-0.198-0.174-0.233-0.303C16.682,7.5,16.7,7.365,16.767,7.25
		c0.978-1.696,0.978-3.804,0-5.5c-0.067-0.116-0.084-0.25-0.05-0.38c0.035-0.129,0.118-0.237,0.233-0.303
		C17.026,1.023,17.113,1,17.2,1c0.178,0,0.345,0.096,0.433,0.251c1.156,2.004,1.156,4.495,0,6.499C17.544,7.904,17.378,8,17.2,8z"/>
	<path d="M3.935,9C3.744,9,3.572,8.893,3.487,8.721c-1.307-2.643-1.307-5.8,0-8.443c0.085-0.172,0.257-0.279,0.448-0.279
		c0.076,0,0.153,0.018,0.222,0.052c0.247,0.122,0.349,0.423,0.226,0.67c-1.17,2.366-1.17,5.191,0,7.557
		c0.122,0.247,0.021,0.548-0.226,0.67C4.088,8.982,4.011,9,3.935,9z"/>
	<path d="M20.065,9c-0.076,0-0.153-0.018-0.221-0.052c-0.248-0.123-0.349-0.423-0.227-0.67c1.17-2.366,1.17-5.191,0-7.557
		c-0.059-0.12-0.068-0.255-0.025-0.382c0.043-0.126,0.132-0.229,0.252-0.288C19.912,0.017,19.989,0,20.065,0
		c0.192,0,0.364,0.107,0.448,0.278c1.307,2.644,1.307,5.8,0,8.443C20.428,8.893,20.256,9,20.065,9z"/>
	<path d="M5,24c-1.93,0-3.5-1.57-3.5-3.5v-7C1.5,11.57,3.07,10,5,10h6.501L11.5,4.5C11.5,4.224,11.724,4,12,4
		c0.276,0,0.5,0.224,0.5,0.5l0.001,5.5H19c1.93,0,3.5,1.57,3.5,3.5v7c0,1.93-1.57,3.5-3.5,3.5H5z M19,23c1.378,0,2.5-1.122,2.5-2.5
		v-7c0-1.379-1.122-2.5-2.5-2.5H5c-1.379,0-2.5,1.121-2.5,2.5v7C2.5,21.878,3.621,23,5,23h2.733l1.558-2.332
		C9.568,20.25,10.035,20,10.538,20h2.93c0.503,0,0.97,0.25,1.248,0.669L16.268,23H19z M15.067,23l-1.183-1.777
		C13.791,21.083,13.635,21,13.468,21h-2.929c-0.168,0-0.323,0.083-0.416,0.223L8.935,23H15.067z"/>
</g>
</svg>
