<?xml version="1.0" encoding="utf-8"?>
<!-- Generator: Adobe Illustrator 22.1.0, SVG Export Plug-In . SVG Version: 6.00 Build 0)  -->
<svg version="1.1" id="Layer_1" xmlns="http://www.w3.org/2000/svg" xmlns:xlink="http://www.w3.org/1999/xlink" x="0px" y="0px"
	 viewBox="0 0 24 24" style="enable-background:new 0 0 24 24;" xml:space="preserve">
<g>
	<title>drone-1</title>
	<path d="M16.5,22c-0.276,0-0.5-0.224-0.5-0.5v-2c0-0.276,0.224-0.5,0.5-0.5s0.5,0.224,0.5,0.5V20h1.5c0.276,0,0.5-0.224,0.5-0.5
		c0.107-2.004-0.728-3.916-2.247-5.184C16.48,14.735,16.01,15,15.5,15h-7c-0.51,0-0.98-0.265-1.253-0.684
		c-1.518,1.269-2.354,3.174-2.247,5.157C5,19.774,5.22,20,5.5,20H7v-0.5C7,19.224,7.224,19,7.5,19S8,19.224,8,19.5v2
		C8,21.776,7.776,22,7.5,22S7,21.776,7,21.5V21H5.5C4.673,21,4,20.327,4,19.5c-0.131-2.427,1.015-4.817,3-6.257v-1.972
		C6.494,11.087,6.013,11,5.5,11H2c-1.103,0-2-0.897-2-2s0.897-2,2-2V5.5c0-0.64,0.41-1.205,1-1.414V3.5C3,3.224,3.224,3,3.5,3
		S4,3.224,4,3.5v0.586C4.59,4.295,5,4.86,5,5.5V7h0.5c1.15,0,1.96-0.436,2.818-0.898C9.324,5.56,10.364,5,12,5
		c1.636,0,2.676,0.56,3.682,1.102C16.541,6.564,17.351,7,18.5,7H19V5.5c0-0.64,0.41-1.205,1-1.414V3.5C20,3.224,20.224,3,20.5,3
		S21,3.224,21,3.5v0.586c0.59,0.209,1,0.774,1,1.414V7c1.103,0,2,0.897,2,2s-0.897,2-2,2h-3.5c-0.513,0-0.994,0.087-1.5,0.271v1.972
		c1.984,1.44,3.131,3.836,3,6.284c0,0.381-0.156,0.754-0.44,1.036C19.275,20.845,18.899,21,18.5,21H17v0.5
		C17,21.776,16.776,22,16.5,22z M8,13.5C8,13.776,8.224,14,8.5,14h7c0.276,0,0.5-0.224,0.5-0.5v-1.771
		c-0.105,0.056-0.211,0.112-0.317,0.169C14.676,12.44,13.636,13,12,13c-1.636,0-2.677-0.56-3.683-1.102
		C8.211,11.841,8.105,11.784,8,11.729V13.5z M2,8C1.449,8,1,8.449,1,9s0.449,1,1,1h3.5c1.402,0,2.362,0.517,3.291,1.018
		C9.688,11.501,10.616,12,12,12c1.384,0,2.312-0.499,3.209-0.982C16.138,10.517,17.098,10,18.5,10H22c0.552,0,1-0.449,1-1
		s-0.448-1-1-1h-3.5c-1.401,0-2.362-0.517-3.291-1.017C14.311,6.499,13.384,6,12,6c-1.384,0-2.311,0.499-3.208,0.982
		C7.862,7.483,6.902,8,5.5,8H2z M21,7V5.5C21,5.224,20.776,5,20.5,5S20,5.224,20,5.5V7H21z M4,7V5.5C4,5.224,3.776,5,3.5,5
		S3,5.224,3,5.5V7H4z"/>
	<path d="M0.5,3C0.224,3,0,2.776,0,2.5S0.224,2,0.5,2h2C2.776,2,3,2.224,3,2.5S2.776,3,2.5,3H0.5z"/>
	<path d="M4.5,3C4.224,3,4,2.776,4,2.5S4.224,2,4.5,2h2C6.776,2,7,2.224,7,2.5S6.776,3,6.5,3H4.5z"/>
	<path d="M21.5,3C21.224,3,21,2.776,21,2.5S21.224,2,21.5,2h2C23.776,2,24,2.224,24,2.5S23.776,3,23.5,3H21.5z"/>
	<path d="M17.5,3C17.224,3,17,2.776,17,2.5S17.224,2,17.5,2h2C19.776,2,20,2.224,20,2.5S19.776,3,19.5,3H17.5z"/>
</g>
</svg>
