<?xml version="1.0" encoding="utf-8"?>
<!-- Generator: Adobe Illustrator 22.1.0, SVG Export Plug-In . SVG Version: 6.00 Build 0)  -->
<svg version="1.1" id="Layer_1" xmlns="http://www.w3.org/2000/svg" xmlns:xlink="http://www.w3.org/1999/xlink" x="0px" y="0px"
	 viewBox="0 0 24 24" style="enable-background:new 0 0 24 24;" xml:space="preserve">
<g>
	<title>drone-controller-1</title>
	<path d="M17.5,13c-0.276,0-0.5-0.224-0.5-0.5c0-0.276,0.224-0.5,0.5-0.5s0.5-0.224,0.5-0.5V10c-0.001-0.49-0.213-0.957-0.583-1.279
		l-0.801-0.698c-0.33,0.286-0.698,0.511-1.098,0.675c0.311,0.359,0.484,0.815,0.484,1.302c0,1.103-0.897,2-2,2s-2-0.897-2-2
		c0-0.487,0.173-0.943,0.484-1.303c-0.399-0.163-0.772-0.392-1.1-0.676l-0.803,0.699C10.213,9.043,10.001,9.51,10,10
		c0,0.275-0.224,0.5-0.5,0.5c-0.134,0-0.259-0.052-0.354-0.147C9.052,10.259,9,10.133,9,10c0.001-0.779,0.338-1.52,0.925-2.032
		l0.714-0.622C10.303,7.122,9.907,7,9.499,7H6C4.897,7,4,6.103,4,5s0.897-2,2-2h1.001V1.5c0-0.276,0.224-0.5,0.5-0.5
		s0.5,0.224,0.5,0.5V3H9.5c0.585,0,1.143-0.248,1.534-0.68c0.089-0.099,0.186-0.196,0.287-0.287c0.735-0.664,1.687-1.03,2.679-1.03
		c1.132,0,2.214,0.48,2.97,1.317C17.361,2.752,17.919,3,18.501,3h1.501V1.5c0-0.276,0.224-0.5,0.5-0.5s0.5,0.224,0.5,0.5V3H22
		c1.103,0,2,0.897,2,2s-0.897,2-2,2h-3.5c-0.408,0-0.804,0.121-1.142,0.344l0.715,0.623C18.662,8.479,18.999,9.22,19,10v1.5
		C19,12.327,18.327,13,17.5,13z M14.001,9c-0.552,0-1,0.449-1,1s0.448,1,1,1s1-0.449,1-1S14.553,9,14.001,9z M11.792,7.032
		C12.358,7.646,13.161,7.997,14,7.997c0.744,0,1.458-0.274,2.009-0.772c0.076-0.069,0.149-0.142,0.215-0.216
		C16.805,6.368,17.634,6,18.499,6H22c0.552,0,1-0.449,1-1s-0.448-1-1-1h-3.5c-0.864-0.001-1.692-0.369-2.271-1.01
		c-0.567-0.628-1.379-0.988-2.228-0.988c-0.744,0-1.458,0.274-2.009,0.772c-0.076,0.068-0.148,0.141-0.215,0.215
		C11.196,3.632,10.367,4,9.502,4H6C5.449,4,5,4.449,5,5s0.449,1,1,1h3.5c0.854,0.001,1.673,0.361,2.251,0.988
		c0.011,0.009,0.021,0.019,0.029,0.028C11.784,7.021,11.788,7.027,11.792,7.032z"/>
	<path d="M4.501,1c-0.276,0-0.5-0.224-0.5-0.5S4.225,0,4.501,0h2c0.276,0,0.5,0.224,0.5,0.5S6.777,1,6.501,1H4.501z"/>
	<path d="M8.501,1c-0.276,0-0.5-0.224-0.5-0.5S8.225,0,8.501,0h2c0.276,0,0.5,0.224,0.5,0.5S10.777,1,10.501,1H8.501z"/>
	<path d="M21.501,1c-0.276,0-0.5-0.224-0.5-0.5s0.224-0.5,0.5-0.5h2c0.276,0,0.5,0.224,0.5,0.5S23.777,1,23.501,1H21.501z"/>
	<path d="M17.501,1c-0.276,0-0.5-0.224-0.5-0.5s0.224-0.5,0.5-0.5h2c0.276,0,0.5,0.224,0.5,0.5S19.777,1,19.501,1H17.501z"/>
	<path d="M5.163,14.014c-0.142,0-0.277-0.06-0.372-0.166c-0.184-0.205-0.167-0.522,0.037-0.706c0.461-0.415,1.055-0.643,1.672-0.643
		s1.211,0.229,1.672,0.643c0.205,0.184,0.222,0.501,0.037,0.706c-0.095,0.105-0.23,0.166-0.372,0.166
		c-0.123,0-0.242-0.045-0.334-0.128C7.227,13.637,6.871,13.5,6.501,13.5s-0.726,0.137-1.003,0.386
		C5.406,13.968,5.287,14.014,5.163,14.014z"/>
	<path d="M9.176,12.527c-0.124,0-0.242-0.046-0.334-0.129c-0.646-0.581-1.477-0.901-2.341-0.901s-1.695,0.32-2.341,0.901
		c-0.092,0.083-0.211,0.128-0.334,0.128l0,0c-0.141,0-0.277-0.06-0.372-0.166c-0.089-0.099-0.135-0.228-0.128-0.361
		c0.007-0.133,0.066-0.256,0.165-0.345c0.83-0.747,1.899-1.158,3.01-1.158s2.18,0.411,3.01,1.158
		c0.099,0.089,0.158,0.212,0.165,0.345c0.007,0.133-0.038,0.261-0.128,0.361C9.453,12.467,9.318,12.527,9.176,12.527z"/>
	<path d="M5.5,18C5.224,18,5,17.776,5,17.5S5.224,17,5.5,17h2C7.776,17,8,17.224,8,17.5S7.776,18,7.5,18H5.5z"/>
	<circle cx="2.75" cy="17.75" r="0.75"/>
	<circle cx="10.25" cy="17.75" r="0.75"/>
	<path d="M1.5,24C0.673,24,0,23.327,0,22.5V18c0-1.654,1.346-3,3-3h7c1.654,0,3,1.346,3,3v4.5c0,0.469-0.224,0.918-0.6,1.2
		c-0.262,0.196-0.572,0.3-0.899,0.3c0,0,0,0,0,0c-0.471,0-0.92-0.224-1.201-0.599L7.759,20H5.242l-2.541,3.399
		C2.418,23.776,1.97,24,1.5,24z M3,16c-1.103,0-2,0.897-2,2v4.5C1,22.776,1.224,23,1.5,23c0.157,0,0.306-0.075,0.4-0.2l2.652-3.549
		c0.023-0.03,0.043-0.052,0.064-0.072C4.709,19.065,4.848,19,5,19h3c0.148,0,0.286,0.064,0.381,0.176
		c0.019,0.018,0.035,0.036,0.05,0.054l2.669,3.571C11.195,22.927,11.342,23,11.501,23c0.109,0,0.212-0.034,0.299-0.1
		c0.125-0.094,0.2-0.243,0.2-0.4V18c0-1.103-0.897-2-2-2H3z"/>
</g>
</svg>
