<?xml version="1.0" encoding="utf-8"?>
<!-- Generator: Adobe Illustrator 22.1.0, SVG Export Plug-In . SVG Version: 6.00 Build 0)  -->
<svg version="1.1" id="Layer_1" xmlns="http://www.w3.org/2000/svg" xmlns:xlink="http://www.w3.org/1999/xlink" x="0px" y="0px"
	 viewBox="0 0 24 24" style="enable-background:new 0 0 24 24;" xml:space="preserve">
<g>
	<title>drone-remote</title>
	<path d="M17.5,13c-0.276,0-0.5-0.224-0.5-0.5c0-0.276,0.224-0.5,0.5-0.5s0.5-0.224,0.5-0.5V10c0-0.491-0.212-0.957-0.583-1.279
		l-0.798-0.696c-0.331,0.287-0.699,0.514-1.098,0.677C15.829,9.061,16,9.516,16,10c0,1.103-0.897,2-2,2s-2-0.897-2-2
		c0-0.485,0.172-0.941,0.482-1.3c-0.399-0.164-0.771-0.393-1.098-0.677l-0.801,0.698C10.213,9.043,10,9.51,10,10v1.5
		c0,0.276,0.224,0.5,0.5,0.5s0.5,0.224,0.5,0.5c0,0.276-0.224,0.5-0.5,0.5C9.673,13,9,12.327,9,11.5V10
		c0.001-0.78,0.338-1.521,0.925-2.033l0.714-0.622C10.302,7.122,9.907,7.001,9.499,7H6C4.897,7,4,6.103,4,5s0.897-2,2-2h1V1.5
		C7,1.224,7.224,1,7.5,1S8,1.224,8,1.5V3h1.5c0.582,0,1.139-0.248,1.529-0.68c0.091-0.101,0.19-0.2,0.293-0.293
		C12.057,1.365,13.007,1,13.998,1c1.133,0,2.217,0.481,2.973,1.32C17.361,2.752,17.918,3,18.5,3H20V1.5C20,1.224,20.224,1,20.5,1
		S21,1.224,21,1.5V3h1c1.103,0,2,0.897,2,2s-0.897,2-2,2h-3.5c-0.407,0-0.803,0.122-1.139,0.345l0.713,0.622
		C18.662,8.478,19,9.219,19,10v1.5C19,12.327,18.327,13,17.5,13z M13.985,9.002C13.442,9.01,13,9.457,13,10c0,0.551,0.448,1,1,1
		s1-0.449,1-1c0-0.544-0.443-0.992-0.988-0.998H13.985z M11.792,7.033c0.531,0.58,1.261,0.924,2.052,0.965
		c0.052,0.003,0.105,0.004,0.157,0.004c0.742,0,1.455-0.274,2.006-0.771c0.069-0.062,0.135-0.129,0.199-0.197
		c0.003-0.004,0.007-0.009,0.01-0.012c0.01-0.012,0.022-0.024,0.035-0.035C16.825,6.362,17.645,6.001,18.499,6H22
		c0.552,0,1-0.449,1-1s-0.448-1-1-1h-3.5c-0.864,0-1.692-0.368-2.271-1.01C15.662,2.361,14.849,2,13.998,2
		c-0.743,0-1.456,0.273-2.007,0.77c-0.077,0.07-0.151,0.144-0.22,0.22C11.192,3.631,10.364,4,9.5,4H6C5.448,4,5,4.449,5,5
		s0.449,1,1,1h3.5c0.854,0.001,1.673,0.361,2.251,0.988c0.011,0.009,0.021,0.019,0.029,0.028
		C11.784,7.022,11.788,7.027,11.792,7.033z"/>
	<path d="M4.5,1C4.224,1,4,0.776,4,0.5S4.224,0,4.5,0h2C6.776,0,7,0.224,7,0.5S6.776,1,6.5,1H4.5z"/>
	<path d="M8.5,1C8.224,1,8,0.776,8,0.5S8.224,0,8.5,0h2C10.776,0,11,0.224,11,0.5S10.776,1,10.5,1H8.5z"/>
	<path d="M21.5,1C21.224,1,21,0.776,21,0.5S21.224,0,21.5,0h2C23.776,0,24,0.224,24,0.5S23.776,1,23.5,1H21.5z"/>
	<path d="M17.5,1C17.224,1,17,0.776,17,0.5S17.224,0,17.5,0h2C19.776,0,20,0.224,20,0.5S19.776,1,19.5,1H17.5z"/>
	<path d="M1.5,24C0.673,24,0,23.327,0,22.5v-6C0,15.673,0.673,15,1.5,15h3C5.327,15,6,15.673,6,16.5v6C6,23.327,5.327,24,4.5,24H1.5
		z M1.5,16C1.224,16,1,16.224,1,16.5v6C1,22.776,1.224,23,1.5,23h3C4.776,23,5,22.776,5,22.5v-6C5,16.224,4.776,16,4.5,16H1.5z"/>
	<path d="M1.662,13.514c-0.142,0-0.277-0.06-0.372-0.166c-0.089-0.099-0.135-0.227-0.127-0.361c0.007-0.133,0.066-0.256,0.165-0.345
		C1.788,12.227,2.382,11.999,3,11.999s1.211,0.229,1.672,0.644c0.099,0.089,0.158,0.212,0.165,0.345
		c0.007,0.134-0.038,0.262-0.128,0.361c-0.094,0.105-0.23,0.165-0.372,0.165c-0.124,0-0.242-0.046-0.334-0.128
		C3.727,13.136,3.37,12.999,3,12.999s-0.727,0.137-1.004,0.386C1.904,13.468,1.786,13.514,1.662,13.514z"/>
	<path d="M5.5,11.878c-0.113,0-0.224-0.039-0.312-0.109c-0.623-0.499-1.4-0.774-2.188-0.774s-1.564,0.275-2.188,0.774
		c-0.089,0.071-0.2,0.109-0.312,0.109l0,0c-0.153,0-0.295-0.068-0.39-0.187c-0.084-0.104-0.121-0.235-0.107-0.368
		c0.015-0.133,0.08-0.252,0.184-0.335C0.988,10.347,1.987,9.994,3,9.994s2.012,0.353,2.812,0.994
		c0.104,0.083,0.17,0.203,0.184,0.335c0.015,0.133-0.023,0.263-0.107,0.368C5.795,11.81,5.652,11.878,5.5,11.878z"/>
	<circle cx="3" cy="21.25" r="0.75"/>
</g>
</svg>
