<?xml version="1.0" encoding="utf-8"?>
<!-- Generator: Adobe Illustrator 22.1.0, SVG Export Plug-In . SVG Version: 6.00 Build 0)  -->
<svg version="1.1" id="Layer_1" xmlns="http://www.w3.org/2000/svg" xmlns:xlink="http://www.w3.org/1999/xlink" x="0px" y="0px"
	 viewBox="0 0 24 24" style="enable-background:new 0 0 24 24;" xml:space="preserve">
<g>
	<title>science-black-hole</title>
	<path d="M15.498,20.49c-2.272,0-4.406-0.883-6.009-2.486c-0.094-0.094-0.146-0.22-0.146-0.354s0.052-0.259,0.146-0.354
		s0.22-0.146,0.354-0.146s0.259,0.052,0.354,0.146c1.414,1.414,3.297,2.193,5.303,2.193c0,0,0,0,0,0
		c2.006,0,3.889-0.779,5.303-2.193c1.206-1.206,1.959-2.779,2.146-4.469l-6.17,3.085c-0.76,0.38-1.61,0.581-2.459,0.581h-0.644
		c-0.276,0-0.5-0.224-0.5-0.5s0.224-0.5,0.5-0.5h0.644c0.695,0,1.39-0.164,2.012-0.475l5.05-2.525h-7.906
		c-0.181,2.262-1.566,4-3.226,4c-1.792,0-3.25-2.019-3.25-4.5c0-2.481,1.458-4.5,3.25-4.5c1.661,0,3.046,1.738,3.226,4h7.906
		l-5.05-2.525c-0.622-0.311-1.317-0.475-2.012-0.475h-0.644c-0.276,0-0.5-0.224-0.5-0.5s0.224-0.5,0.5-0.5h0.644
		c0.849,0,1.7,0.201,2.459,0.581l6.17,3.085c-0.188-1.689-0.94-3.263-2.146-4.469c-1.417-1.417-3.3-2.197-5.303-2.197
		s-3.887,0.78-5.303,2.197c-0.094,0.094-0.22,0.146-0.354,0.146S9.583,6.785,9.489,6.691s-0.146-0.22-0.146-0.354
		s0.052-0.259,0.146-0.354c1.605-1.605,3.74-2.49,6.01-2.49s4.405,0.884,6.01,2.49c1.598,1.599,2.482,3.724,2.489,5.984
		c0,0.004,0,0.048,0,0.05c-0.006,2.262-0.89,4.387-2.489,5.987C19.907,19.607,17.772,20.49,15.498,20.49L15.498,20.49z
		 M10.249,8.494c-1.241,0-2.25,1.57-2.25,3.5s1.009,3.5,2.25,3.5c1.12,0,2.066-1.298,2.224-3H9.499c-0.276,0-0.5-0.224-0.5-0.5
		c0-0.276,0.224-0.5,0.5-0.5h2.974C12.315,9.792,11.369,8.494,10.249,8.494z"/>
	<path d="M1.999,9.994c-0.134,0-0.259-0.052-0.354-0.146s-0.146-0.22-0.146-0.354s0.052-0.259,0.146-0.354l0.646-0.646H0.499
		c-0.276,0-0.5-0.224-0.5-0.5s0.224-0.5,0.5-0.5h1.793L1.646,6.848c-0.094-0.094-0.146-0.22-0.146-0.354s0.052-0.259,0.146-0.354
		s0.22-0.146,0.354-0.146s0.259,0.052,0.354,0.146l1.354,1.354h2.969c0.276,0,0.5,0.224,0.5,0.5s-0.224,0.5-0.5,0.5H3.706
		L2.353,9.848C2.258,9.942,2.133,9.994,1.999,9.994z"/>
	<path d="M1.999,17.994c-0.134,0-0.259-0.052-0.354-0.146s-0.146-0.22-0.146-0.354s0.052-0.259,0.146-0.354l0.646-0.646H0.499
		c-0.276,0-0.5-0.224-0.5-0.5s0.224-0.5,0.5-0.5h1.793l-0.646-0.646c-0.094-0.094-0.146-0.22-0.146-0.354s0.052-0.259,0.146-0.354
		s0.22-0.146,0.354-0.146s0.259,0.052,0.354,0.146l1.354,1.354h2.969c0.276,0,0.5,0.224,0.5,0.5s-0.224,0.5-0.5,0.5H3.706
		l-1.354,1.354C2.258,17.942,2.133,17.994,1.999,17.994z"/>
	<path d="M3.499,13.994c-0.134,0-0.259-0.052-0.354-0.146s-0.146-0.22-0.146-0.354s0.052-0.259,0.146-0.354l0.651-0.651H0.499
		c-0.276,0-0.5-0.224-0.5-0.5s0.224-0.5,0.5-0.5h3.288l-0.641-0.641c-0.094-0.094-0.146-0.22-0.146-0.354s0.052-0.259,0.146-0.354
		s0.22-0.146,0.354-0.146s0.259,0.052,0.354,0.146l1.349,1.349h0.298c0.276,0,0.5,0.224,0.5,0.5s-0.224,0.5-0.5,0.5H5.211
		l-1.359,1.358C3.758,13.942,3.633,13.994,3.499,13.994z"/>
</g>
</svg>
