<?xml version="1.0" encoding="utf-8"?>
<!-- Generator: Adobe Illustrator 22.1.0, SVG Export Plug-In . SVG Version: 6.00 Build 0)  -->
<svg version="1.1" id="Layer_1" xmlns="http://www.w3.org/2000/svg" xmlns:xlink="http://www.w3.org/1999/xlink" x="0px" y="0px"
	 viewBox="0 0 24 24" style="enable-background:new 0 0 24 24;" xml:space="preserve">
<g>
	<title>science-physics-law</title>
	<path d="M1.5,21.5C0.673,21.5,0,20.827,0,20V4c0-0.827,0.673-1.5,1.5-1.5h21C23.327,2.5,24,3.173,24,4v16
		c0,0.827-0.673,1.5-1.5,1.5H1.5z M1.5,3.5C1.224,3.5,1,3.724,1,4v16c0,0.276,0.224,0.5,0.5,0.5h21c0.276,0,0.5-0.224,0.5-0.5V4
		c0-0.276-0.224-0.5-0.5-0.5H1.5z"/>
	<path d="M19.5,18.5c-1.93,0-3.5-1.57-3.5-3.5s1.57-3.5,3.5-3.5c0.276,0,0.5,0.224,0.5,0.5c0,0.276-0.224,0.5-0.5,0.5
		c-1.378,0-2.5,1.122-2.5,2.5s1.122,2.5,2.5,2.5c0.276,0,0.5,0.224,0.5,0.5S19.776,18.5,19.5,18.5z"/>
	<path d="M14.5,18.5c-0.276,0-0.5-0.224-0.5-0.5v-3.882l-0.553,1.105c-0.082,0.164-0.253,0.265-0.447,0.265
		s-0.365-0.102-0.447-0.265L12,14.118V18c0,0.276-0.224,0.5-0.5,0.5S11,18.276,11,18v-6c0-0.233,0.158-0.433,0.385-0.487
		c0.038-0.009,0.077-0.013,0.115-0.013c0.19,0,0.362,0.106,0.447,0.276L13,13.882l1.053-2.105c0.083-0.168,0.259-0.276,0.447-0.276
		c0.039,0,0.078,0.005,0.116,0.014C14.842,11.567,15,11.767,15,12v6C15,18.276,14.776,18.5,14.5,18.5z"/>
	<path d="M7.5,16.5C7.224,16.5,7,16.276,7,16s0.224-0.5,0.5-0.5h2c0.276,0,0.5,0.224,0.5,0.5s-0.224,0.5-0.5,0.5H7.5z"/>
	<path d="M7.5,14.5C7.224,14.5,7,14.276,7,14s0.224-0.5,0.5-0.5h2c0.276,0,0.5,0.224,0.5,0.5s-0.224,0.5-0.5,0.5H7.5z"/>
	<path d="M18.3,10.5c-0.216,0-0.406-0.137-0.474-0.342C17.758,9.954,17.828,9.729,18,9.6l2.56-1.92C20.836,7.473,21,7.144,21,6.8
		c0-0.607-0.493-1.1-1.1-1.1c-0.606,0-1.1,0.494-1.1,1.1c0,0.276-0.224,0.5-0.5,0.5s-0.5-0.224-0.5-0.5c0-1.158,0.942-2.1,2.1-2.1
		S22,5.642,22,6.8c0,0.658-0.314,1.286-0.84,1.68L19.8,9.5h1.7c0.276,0,0.5,0.224,0.5,0.5s-0.224,0.5-0.5,0.5H18.3z"/>
	<path d="M3.5,18.5C2.673,18.5,2,17.827,2,17v-4c0-0.827,0.673-1.5,1.5-1.5h2C5.776,11.5,6,11.724,6,12c0,0.276-0.224,0.5-0.5,0.5
		h-2C3.224,12.5,3,12.724,3,13v1.5h1.5C4.776,14.5,5,14.724,5,15s-0.224,0.5-0.5,0.5H3V17c0,0.276,0.224,0.5,0.5,0.5h2
		C5.776,17.5,6,17.724,6,18s-0.224,0.5-0.5,0.5H3.5z"/>
</g>
</svg>
