<?xml version="1.0" encoding="utf-8"?>
<!-- Generator: Adobe Illustrator 22.1.0, SVG Export Plug-In . SVG Version: 6.00 Build 0)  -->
<svg version="1.1" id="Layer_1" xmlns="http://www.w3.org/2000/svg" xmlns:xlink="http://www.w3.org/1999/xlink" x="0px" y="0px"
	 viewBox="0 0 24 24" style="enable-background:new 0 0 24 24;" xml:space="preserve">
<g>
	<title>science-apple-gravity</title>
	<path d="M12,23.484c-0.06,0-0.12-0.012-0.18-0.035c-0.014-0.006-0.047-0.022-0.059-0.03c-0.015-0.007-0.042-0.02-0.072-0.044
		l-2.5-2c-0.215-0.173-0.25-0.488-0.078-0.703c0.095-0.119,0.238-0.188,0.391-0.188c0.113,0,0.224,0.039,0.312,0.11l1.687,1.35
		v-4.46c0-0.276,0.224-0.5,0.5-0.5c0.276,0,0.5,0.224,0.5,0.5v4.46l1.688-1.35c0.089-0.071,0.199-0.11,0.312-0.11
		c0.153,0,0.295,0.068,0.39,0.188c0.172,0.215,0.137,0.531-0.078,0.703l-2.5,2c-0.03,0.024-0.058,0.037-0.073,0.044
		c-0.013,0.008-0.046,0.025-0.06,0.03C12.12,23.473,12.06,23.484,12,23.484z"/>
	<path d="M4,19.984c-0.06,0-0.12-0.012-0.18-0.035c-0.014-0.006-0.047-0.022-0.059-0.03c-0.015-0.007-0.042-0.02-0.072-0.044l-2.5-2
		c-0.215-0.173-0.25-0.488-0.078-0.703c0.095-0.119,0.238-0.188,0.391-0.188c0.113,0,0.224,0.039,0.312,0.109l1.688,1.35v-4.46
		c0-0.276,0.224-0.5,0.5-0.5s0.5,0.224,0.5,0.5v4.46l1.688-1.35c0.088-0.071,0.199-0.109,0.312-0.109
		c0.153,0,0.295,0.068,0.391,0.188c0.172,0.215,0.137,0.53-0.078,0.702l-2.5,2c-0.03,0.024-0.058,0.037-0.073,0.044
		c-0.013,0.008-0.046,0.025-0.06,0.03C4.12,19.973,4.06,19.984,4,19.984z"/>
	<path d="M20,19.984c-0.06,0-0.121-0.012-0.18-0.035c-0.014-0.005-0.048-0.023-0.061-0.031c-0.013-0.006-0.04-0.019-0.069-0.042
		l-2.502-2.001c-0.215-0.173-0.25-0.488-0.078-0.703c0.096-0.12,0.239-0.188,0.391-0.188c0.113,0,0.224,0.039,0.312,0.109
		l1.688,1.35v-4.46c0-0.276,0.224-0.5,0.5-0.5s0.5,0.224,0.5,0.5v4.46l1.688-1.35c0.089-0.071,0.199-0.11,0.312-0.11
		c0.153,0,0.295,0.068,0.391,0.188c0.172,0.216,0.137,0.531-0.078,0.703l-2.5,2c-0.031,0.024-0.058,0.037-0.073,0.044
		c-0.013,0.008-0.045,0.025-0.06,0.03C20.12,19.973,20.06,19.984,20,19.984z"/>
	<path d="M11.549,15.476c-0.784,0-1.418-0.204-1.886-0.606c-1-0.862-1.132-1.315-1.193-1.779c-0.021-0.159-0.027-0.202-0.214-0.363
		c-0.184-0.159-0.243-0.159-0.34-0.159l-0.118,0.001c-0.495,0-0.98-0.154-1.868-0.917C5.057,10.902,4.748,9.33,5.082,7.34
		c0.3-1.785,1.071-3.571,2.011-4.662c0.954-1.107,2.179-1.847,3.451-2.085c0.293-0.055,0.587-0.083,0.872-0.083
		c0.966,0,1.842,0.315,2.532,0.91c1.065,0.919,1.367,1.575,1.575,2.059l1.43-1.83c0.095-0.122,0.239-0.192,0.394-0.192
		c0.111,0,0.22,0.038,0.307,0.106c0.218,0.17,0.256,0.485,0.087,0.702l-1.487,1.902c0.38,0.112,0.91,0.308,1.922,1.18
		c0.9,0.775,1.369,1.927,1.321,3.244c-0.047,1.293-0.599,2.614-1.552,3.721C16.633,13.833,13.815,15.476,11.549,15.476z
		 M7.924,11.569c0.27,0,0.576,0.049,0.985,0.401c0.476,0.41,0.52,0.745,0.552,0.99c0.029,0.22,0.062,0.469,0.855,1.152
		c0.287,0.247,0.709,0.373,1.255,0.373c1.724,0,4.296-1.294,5.615-2.826c0.806-0.935,1.271-2.038,1.311-3.104
		c0.037-1.007-0.309-1.877-0.974-2.449c-0.931-0.802-1.339-0.918-1.636-1.002c-0.207-0.059-0.441-0.125-0.711-0.349
		c-0.004-0.003-0.03-0.024-0.032-0.026c-0.279-0.24-0.396-0.515-0.52-0.805c-0.171-0.4-0.405-0.946-1.33-1.744
		c-0.506-0.436-1.156-0.667-1.881-0.667c-0.223,0-0.453,0.022-0.685,0.065c-1.049,0.197-2.071,0.82-2.877,1.755
		C7.023,4.291,6.34,5.891,6.069,7.506c-0.267,1.588-0.07,2.886,0.514,3.389c0.785,0.675,1.05,0.675,1.208,0.675L7.924,11.569z"/>
</g>
</svg>
