<?xml version="1.0" encoding="utf-8"?>
<!-- Generator: Adobe Illustrator 22.1.0, SVG Export Plug-In . SVG Version: 6.00 Build 0)  -->
<svg version="1.1" id="Layer_1" xmlns="http://www.w3.org/2000/svg" xmlns:xlink="http://www.w3.org/1999/xlink" x="0px" y="0px"
	 viewBox="0 0 24 24" style="enable-background:new 0 0 24 24;" xml:space="preserve">
<g>
	<title>science-apple-newton</title>
	<path d="M13.375,9.08c-0.326-0.013-0.565-0.114-0.756-0.195c-0.186-0.079-0.32-0.136-0.551-0.136c-0.231,0-0.365,0.057-0.55,0.136
		c-0.192,0.082-0.431,0.183-0.761,0.196l-0.049,0.001c-0.804,0-1.321-0.748-1.664-1.242C8.196,6.614,7.72,4.576,8.507,3.211
		c0.422-0.757,1.228-1.245,2.1-1.269c0.002,0,0.026,0,0.028,0c0.384,0,0.739,0.126,1.052,0.237c0.125,0.044,0.323,0.114,0.382,0.117
		c0.058-0.002,0.256-0.073,0.375-0.115c0.316-0.112,0.672-0.239,1.052-0.239c0.001,0,0.026,0,0.028,0
		c0.876,0.025,1.683,0.514,2.109,1.275c0.784,1.363,0.307,3.399-0.542,4.622L15.077,7.86c-0.336,0.487-0.844,1.222-1.636,1.222
		C13.419,9.081,13.397,9.081,13.375,9.08z M10.631,2.942c-0.519,0.015-1,0.307-1.255,0.763c-0.613,1.064-0.07,2.756,0.49,3.565
		c0.224,0.323,0.562,0.811,0.839,0.811c0.16-0.006,0.27-0.053,0.421-0.117c0.226-0.096,0.507-0.216,0.942-0.216
		c0.435,0,0.716,0.12,0.941,0.216c0.152,0.064,0.261,0.111,0.408,0.117h0c0.29,0,0.655-0.527,0.851-0.811
		c0.561-0.808,1.105-2.498,0.494-3.559c-0.258-0.46-0.74-0.754-1.262-0.769c0,0-0.001,0-0.001,0c-0.211,0-0.459,0.088-0.678,0.166
		l-0.042,0.015c-0.261,0.093-0.487,0.173-0.711,0.173c-0.224,0-0.45-0.08-0.711-0.173c-0.239-0.085-0.51-0.181-0.716-0.181v-0.25
		L10.631,2.942z"/>
	<path d="M12.318,1.581c-0.181,0-0.348-0.098-0.436-0.255c-0.065-0.116-0.082-0.251-0.046-0.38c0.036-0.129,0.12-0.235,0.237-0.301
		l1.02-0.573c0.075-0.042,0.16-0.064,0.245-0.064c0.181,0,0.348,0.098,0.436,0.255c0.065,0.116,0.082,0.251,0.045,0.38
		c-0.036,0.129-0.12,0.236-0.236,0.301l-1.02,0.573C12.488,1.559,12.404,1.581,12.318,1.581z"/>
	<path d="M11.949,19.008c-2.068,0-3.75-1.682-3.75-3.75c0-2.068,1.682-3.75,3.75-3.75s3.75,1.682,3.75,3.75
		C15.699,17.326,14.017,19.008,11.949,19.008z M9.326,14.438c-0.084,0.266-0.127,0.541-0.127,0.82c0,1.516,1.234,2.75,2.75,2.75
		c1.428,0,2.605-1.093,2.738-2.486c-0.531,0.154-1.08,0.232-1.636,0.232C11.687,15.754,10.378,15.289,9.326,14.438z M9.805,13.539
		c0.893,0.783,2.036,1.212,3.243,1.212c0.53,0,1.048-0.084,1.544-0.25c-0.334-1.166-1.414-1.992-2.644-1.992
		C11.113,12.508,10.326,12.89,9.805,13.539z"/>
	<path d="M17.006,24.008c-0.209,0-0.398-0.132-0.47-0.329c-0.44-1.21-1.326-2.176-2.493-2.72c-0.646-0.301-1.331-0.454-2.034-0.454
		c-0.561,0-1.117,0.099-1.652,0.293c-1.342,0.489-2.392,1.539-2.881,2.881c-0.071,0.197-0.26,0.329-0.47,0.329
		c-0.058,0-0.115-0.01-0.17-0.03c-0.126-0.046-0.226-0.138-0.283-0.259s-0.062-0.257-0.017-0.382
		c0.59-1.621,1.858-2.888,3.479-3.478c0.645-0.235,1.316-0.354,1.994-0.354c0.85,0,1.676,0.184,2.457,0.548
		c1.409,0.657,2.478,1.823,3.01,3.285c0.046,0.125,0.04,0.261-0.017,0.382c-0.056,0.121-0.157,0.213-0.282,0.259
		C17.122,23.998,17.065,24.008,17.006,24.008z"/>
</g>
</svg>
