<?xml version="1.0" encoding="utf-8"?>
<!-- Generator: Adobe Illustrator 22.1.0, SVG Export Plug-In . SVG Version: 6.00 Build 0)  -->
<svg version="1.1" id="Layer_1" xmlns="http://www.w3.org/2000/svg" xmlns:xlink="http://www.w3.org/1999/xlink" x="0px" y="0px"
	 viewBox="0 0 24 24" style="enable-background:new 0 0 24 24;" xml:space="preserve">
<g>
	<title>science-graph</title>
	<path d="M3.5,23.75c-0.276,0-0.5-0.224-0.5-0.5V2.102L0.88,4.575C0.785,4.686,0.647,4.75,0.5,4.75
		c-0.119,0-0.235-0.043-0.326-0.121C-0.034,4.45-0.059,4.134,0.121,3.925l3-3.5c0.008-0.01,0.018-0.019,0.029-0.028
		C3.242,0.303,3.367,0.25,3.5,0.25c0.132,0,0.256,0.052,0.35,0.146c0.01,0.008,0.019,0.017,0.026,0.026L6.88,3.925
		C7.059,4.134,7.035,4.45,6.826,4.63C6.735,4.707,6.62,4.75,6.5,4.75c-0.146,0-0.285-0.064-0.38-0.174L4,2.102v8.648h6.5
		c0.276,0,0.5,0.224,0.5,0.5s-0.224,0.5-0.5,0.5H4v11.5C4,23.526,3.776,23.75,3.5,23.75z"/>
	<path d="M14.5,11.75c-0.276,0-0.5-0.224-0.5-0.5s0.224-0.5,0.5-0.5h9c0.276,0,0.5,0.224,0.5,0.5s-0.224,0.5-0.5,0.5H14.5z"/>
	<path d="M7.985,19.75c-1.23-0.075-2.368-0.727-3.043-1.746c-0.074-0.111-0.1-0.245-0.073-0.376
		c0.026-0.131,0.102-0.244,0.214-0.317c0.082-0.054,0.177-0.083,0.276-0.083c0.168,0,0.324,0.083,0.417,0.224
		c0.504,0.759,1.347,1.245,2.256,1.3c2.922-0.001,3.433-3.677,3.974-7.57C12.581,7.036,13.177,2.75,17,2.75
		c2.294,0,4.287,2.622,4.846,6.376c0.041,0.273-0.148,0.528-0.421,0.568C21.401,9.698,21.376,9.7,21.351,9.7
		c-0.245,0-0.458-0.183-0.494-0.426C20.373,6.021,18.787,3.75,17,3.75c-2.953,0-3.464,3.677-4.005,7.569
		C12.419,15.464,11.824,19.75,8,19.75C7.995,19.75,7.99,19.75,7.985,19.75z"/>
</g>
</svg>
