<?xml version="1.0" encoding="utf-8"?>
<!-- Generator: Adobe Illustrator 22.1.0, SVG Export Plug-In . SVG Version: 6.00 Build 0)  -->
<svg version="1.1" id="Layer_1" xmlns="http://www.w3.org/2000/svg" xmlns:xlink="http://www.w3.org/1999/xlink" x="0px" y="0px"
	 viewBox="0 0 24 24" style="enable-background:new 0 0 24 24;" xml:space="preserve">
<g>
	<title>science-neurons</title>
	<path d="M11.5,24c-0.276,0-0.5-0.224-0.5-0.5v-2.771c-0.612-0.356-1-1.018-1-1.729c0-0.003,0-0.006,0-0.009L7.286,17.53
		C6.926,17.834,6.476,18,6,18c-0.66,0-1.268-0.323-1.64-0.857l-2.492,1.342C1.955,18.712,2,18.953,2,19.192
		c0.001,0.847-0.535,1.605-1.333,1.888c-0.055,0.019-0.11,0.028-0.167,0.028c-0.212,0-0.401-0.134-0.471-0.333
		c-0.092-0.26,0.045-0.546,0.305-0.638c0.399-0.141,0.667-0.52,0.667-0.944c0-0.423-0.268-0.802-0.666-0.943
		c-0.26-0.092-0.397-0.378-0.305-0.638c0.071-0.199,0.26-0.333,0.472-0.333c0.056,0,0.111,0.009,0.164,0.028
		c0.23,0.081,0.438,0.201,0.622,0.356l2.723-1.467C4.004,16.13,4,16.064,4,16c0-0.711,0.388-1.374,1-1.729V9.729
		C4.388,9.374,4,8.711,4,8c0-0.003,0-0.006,0-0.009L1.287,6.53c-0.184,0.156-0.392,0.275-0.62,0.356
		C0.613,6.906,0.557,6.915,0.5,6.915c-0.211,0-0.401-0.134-0.471-0.333c-0.092-0.26,0.045-0.546,0.305-0.638
		C0.733,5.802,1.001,5.423,1,5c0-0.424-0.268-0.803-0.667-0.944c-0.26-0.092-0.396-0.378-0.305-0.638
		C0.1,3.219,0.289,3.085,0.5,3.085c0.057,0,0.113,0.01,0.167,0.029C1.465,3.396,2.001,4.154,2,5c0,0.24-0.045,0.48-0.132,0.707
		L4.269,7C4.624,6.385,5.277,6,6,6s1.377,0.385,1.731,1l2.399-1.292C10.045,5.482,10,5.241,10,5c0-1.103,0.897-2,2-2V0.5
		C12,0.224,12.225,0,12.5,0C12.776,0,13,0.224,13,0.5v2.771C13.613,3.626,14,4.289,14,5c0,0.003,0,0.007,0,0.01l2.713,1.46
		C17.074,6.166,17.524,6,18,6c0.723,0,1.377,0.385,1.731,1l2.396-1.291c-0.168-0.441-0.175-0.923-0.017-1.373
		c0.202-0.575,0.648-1.021,1.223-1.223c0.053-0.019,0.109-0.028,0.166-0.028c0.212,0,0.402,0.134,0.472,0.334
		c0.092,0.26-0.045,0.546-0.305,0.637c-0.288,0.101-0.511,0.324-0.612,0.612c-0.089,0.252-0.074,0.523,0.042,0.764
		c0.116,0.241,0.318,0.422,0.57,0.511c0.126,0.044,0.227,0.135,0.285,0.255c0.058,0.12,0.065,0.256,0.021,0.382
		c-0.07,0.2-0.26,0.334-0.472,0.334c-0.056,0-0.112-0.01-0.166-0.028c-0.23-0.081-0.439-0.2-0.623-0.356L20,7.991
		C20,7.994,20,7.997,20,8c0,0.711-0.388,1.374-1,1.729v4.542c0.612,0.355,1,1.018,1,1.729c0,0.065-0.003,0.13-0.01,0.196
		l2.722,1.466c0.184-0.155,0.392-0.274,0.622-0.355c0.054-0.019,0.11-0.029,0.166-0.029c0.212,0,0.401,0.135,0.471,0.334
		c0.092,0.26-0.046,0.546-0.305,0.637c-0.186,0.065-0.346,0.182-0.464,0.338c-0.001,0.002-0.007,0.01-0.007,0.01
		c-0.039,0.053-0.073,0.108-0.099,0.164c-0.115,0.241-0.13,0.512-0.042,0.764c0.101,0.288,0.324,0.51,0.612,0.612
		c0.26,0.092,0.397,0.378,0.306,0.638c-0.07,0.2-0.26,0.334-0.472,0.334c-0.057,0-0.113-0.01-0.167-0.029
		c-0.574-0.202-1.02-0.648-1.222-1.223c-0.158-0.451-0.152-0.932,0.017-1.374l-2.488-1.34C19.268,17.677,18.66,18,18,18
		c-0.476,0-0.926-0.166-1.286-0.47L14,18.991c0,0.003,0,0.006,0,0.009c0,1.103-0.897,2-2,2v2.5C12,23.776,11.776,24,11.5,24z M12,18
		c-0.551,0-1,0.448-1,1s0.449,1,1,1c0.552,0,1-0.448,1-1S12.552,18,12,18z M10.269,18c0.354-0.615,1.007-1,1.731-1
		c0.724,0,1.377,0.385,1.731,1l2.399-1.292C16.045,16.483,16,16.242,16,16c0-1.103,0.897-2,2-2v-4c-1.103,0-2-0.897-2-2
		c0-0.242,0.045-0.482,0.13-0.708L13.731,6C13.377,6.615,12.724,7,12,7c-0.476,0-0.926-0.166-1.286-0.47L8,7.991
		C8,7.994,8,7.997,8,8c0,1.103-0.897,2-2,2v4c1.103,0,2,0.897,2,2c0,0.242-0.045,0.483-0.13,0.708L10.269,18z M18,15
		c-0.552,0-1,0.448-1,1s0.448,1,1,1s1-0.448,1-1S18.552,15,18,15z M6,15c-0.551,0-1,0.448-1,1s0.449,1,1,1s1-0.448,1-1
		S6.552,15,6,15z M18,7c-0.552,0-1,0.449-1,1s0.448,1,1,1s1-0.449,1-1S18.552,7,18,7z M6,7C5.449,7,5,7.449,5,8s0.449,1,1,1
		s1-0.449,1-1S6.552,7,6,7z M12,4c-0.551,0-1,0.449-1,1s0.449,1,1,1c0.552,0,1-0.449,1-1S12.552,4,12,4z"/>
</g>
</svg>
