<?xml version="1.0" encoding="utf-8"?>
<!-- Generator: Adobe Illustrator 22.1.0, SVG Export Plug-In . SVG Version: 6.00 Build 0)  -->
<svg version="1.1" id="Layer_1" xmlns="http://www.w3.org/2000/svg" xmlns:xlink="http://www.w3.org/1999/xlink" x="0px" y="0px"
	 viewBox="0 0 24 24" style="enable-background:new 0 0 24 24;" xml:space="preserve">
<g>
	<title>file-txt-1</title>
	<path d="M6,19.999c-0.276,0-0.5-0.224-0.5-0.5v-7.5H4c-0.276,0-0.5-0.224-0.5-0.5s0.224-0.5,0.5-0.5h4c0.276,0,0.5,0.224,0.5,0.5
		s-0.224,0.5-0.5,0.5H6.5v7.5C6.5,19.775,6.276,19.999,6,19.999z"/>
	<path d="M18,19.999c-0.276,0-0.5-0.224-0.5-0.5v-7.5H16c-0.276,0-0.5-0.224-0.5-0.5s0.224-0.5,0.5-0.5h4c0.276,0,0.5,0.224,0.5,0.5
		s-0.224,0.5-0.5,0.5h-1.5v7.5C18.5,19.775,18.276,19.999,18,19.999z"/>
	<path d="M14,19.999c-0.19,0-0.362-0.106-0.447-0.276L12,16.617l-1.553,3.105c-0.085,0.17-0.257,0.276-0.448,0.276
		c-0.077,0-0.154-0.018-0.223-0.052c-0.247-0.124-0.348-0.425-0.224-0.671l1.888-3.776l-1.888-3.776
		c-0.06-0.12-0.069-0.255-0.027-0.382s0.131-0.229,0.251-0.289c0.069-0.035,0.146-0.053,0.224-0.053
		c0.191,0,0.362,0.106,0.447,0.277L12,14.381l1.553-3.105c0.086-0.171,0.257-0.276,0.448-0.276c0.077,0,0.154,0.018,0.223,0.053
		c0.119,0.06,0.208,0.162,0.251,0.289s0.033,0.262-0.027,0.382l-1.888,3.776l1.888,3.776c0.123,0.247,0.023,0.548-0.224,0.671
		C14.154,19.981,14.077,19.999,14,19.999z"/>
	<path d="M1.5,23.999c-0.827,0-1.5-0.673-1.5-1.5v-21c0-0.827,0.673-1.5,1.5-1.5h21c0.827,0,1.5,0.673,1.5,1.5v21
		c0,0.827-0.673,1.5-1.5,1.5H1.5z M1.5,0.999c-0.276,0-0.5,0.224-0.5,0.5v21c0,0.276,0.224,0.5,0.5,0.5h21
		c0.276,0,0.5-0.224,0.5-0.5v-21c0-0.276-0.224-0.5-0.5-0.5H1.5z"/>
</g>
</svg>
