<?xml version="1.0" encoding="utf-8"?>
<!-- Generator: Adobe Illustrator 22.1.0, SVG Export Plug-In . SVG Version: 6.00 Build 0)  -->
<svg version="1.1" id="Layer_1" xmlns="http://www.w3.org/2000/svg" xmlns:xlink="http://www.w3.org/1999/xlink" x="0px" y="0px"
	 viewBox="0 0 24 24" style="enable-background:new 0 0 24 24;" xml:space="preserve">
<g>
	<title>file-doc-1</title>
	<path d="M2,23.999c-0.827,0-1.5-0.673-1.5-1.5v-21c0-0.827,0.673-1.5,1.5-1.5h20c0.827,0,1.5,0.673,1.5,1.5v21
		c0,0.827-0.673,1.5-1.5,1.5H2z M2,0.999c-0.276,0-0.5,0.224-0.5,0.5v21c0,0.276,0.224,0.5,0.5,0.5h20c0.276,0,0.5-0.224,0.5-0.5
		v-21c0-0.276-0.224-0.5-0.5-0.5H2z"/>
	<path d="M4,20c-0.276,0-0.5-0.224-0.5-0.5v-8C3.5,11.224,3.724,11,4,11c2.481,0,4.5,2.019,4.5,4.5S6.481,20,4,20z M4.5,18.964
		c1.702-0.245,3-1.718,3-3.464s-1.298-3.22-3-3.464V18.964z"/>
	<path d="M12,20c-1.379,0-2.5-1.122-2.5-2.5v-4c0-1.379,1.121-2.5,2.5-2.5c1.378,0,2.5,1.121,2.5,2.5v4C14.5,18.878,13.378,20,12,20
		z M12,12c-0.827,0-1.5,0.673-1.5,1.5v4c0,0.827,0.673,1.5,1.5,1.5s1.5-0.673,1.5-1.5v-4C13.5,12.673,12.827,12,12,12z"/>
	<path d="M20,20c-2.481,0-4.5-2.019-4.5-4.5S17.519,11,20,11c0.276,0,0.5,0.224,0.5,0.5S20.276,12,20,12c-1.93,0-3.5,1.57-3.5,3.5
		S18.07,19,20,19c0.276,0,0.5,0.224,0.5,0.5S20.276,20,20,20z"/>
</g>
</svg>
