<?xml version="1.0" encoding="utf-8"?>
<!-- Generator: Adobe Illustrator 22.1.0, SVG Export Plug-In . SVG Version: 6.00 Build 0)  -->
<svg version="1.1" id="Layer_1" xmlns="http://www.w3.org/2000/svg" xmlns:xlink="http://www.w3.org/1999/xlink" x="0px" y="0px"
	 viewBox="0 0 24 24" style="enable-background:new 0 0 24 24;" xml:space="preserve">
<g>
	<title>file-doc</title>
	<path d="M5.5,15.5C5.224,15.5,5,15.276,5,15V9c0-0.276,0.224-0.5,0.5-0.5C7.43,8.5,9,10.07,9,12S7.43,15.5,5.5,15.5z M6,14.449
		C7.141,14.215,8,13.188,8,12c0-1.188-0.859-2.215-2-2.45V14.449z"/>
	<path d="M12,15.5c-1.103,0-2-0.897-2-2v-3c0-1.103,0.897-2,2-2s2,0.897,2,2v3C14,14.603,13.103,15.5,12,15.5z M12,9.5
		c-0.551,0-1,0.449-1,1v3c0,0.552,0.449,1,1,1c0.552,0,1-0.448,1-1v-3C13,9.949,12.552,9.5,12,9.5z"/>
	<path d="M18.5,15.5c-1.93,0-3.5-1.57-3.5-3.5s1.57-3.5,3.5-3.5C18.776,8.5,19,8.724,19,9s-0.224,0.5-0.5,0.5
		c-1.378,0-2.5,1.121-2.5,2.5c0,1.378,1.122,2.5,2.5,2.5c0.276,0,0.5,0.224,0.5,0.5S18.776,15.5,18.5,15.5z"/>
	<path d="M1.5,19.499c-0.827,0-1.5-0.673-1.5-1.5v-12c0-0.827,0.673-1.5,1.5-1.5h21c0.827,0,1.5,0.673,1.5,1.5v12
		c0,0.827-0.673,1.5-1.5,1.5H1.5z M1.5,5.499c-0.276,0-0.5,0.224-0.5,0.5v12c0,0.276,0.224,0.5,0.5,0.5h21
		c0.276,0,0.5-0.224,0.5-0.5v-12c0-0.276-0.224-0.5-0.5-0.5H1.5z"/>
</g>
</svg>
