<?xml version="1.0" encoding="utf-8"?>
<!-- Generator: Adobe Illustrator 22.1.0, SVG Export Plug-In . SVG Version: 6.00 Build 0)  -->
<svg version="1.1" id="Layer_1" xmlns="http://www.w3.org/2000/svg" xmlns:xlink="http://www.w3.org/1999/xlink" x="0px" y="0px"
	 viewBox="0 0 24 24" style="enable-background:new 0 0 24 24;" xml:space="preserve">
<g>
	<title>file-xls</title>
	<path d="M8.5,15.499c-0.191,0-0.362-0.106-0.448-0.276L7,13.117l-1.053,2.105c-0.085,0.17-0.257,0.276-0.448,0.276
		c-0.077,0-0.154-0.018-0.223-0.052c-0.247-0.124-0.348-0.425-0.224-0.671l1.388-2.776L5.053,9.223
		c-0.06-0.12-0.069-0.255-0.027-0.382s0.131-0.229,0.251-0.289C5.345,8.517,5.423,8.499,5.5,8.499c0.191,0,0.362,0.106,0.447,0.277
		L7,10.881l1.053-2.106C8.138,8.605,8.309,8.499,8.5,8.499c0.077,0,0.155,0.018,0.224,0.053c0.119,0.06,0.208,0.162,0.251,0.289
		s0.033,0.262-0.027,0.382l-1.388,2.776l1.388,2.776c0.123,0.247,0.023,0.548-0.224,0.671C8.654,15.481,8.577,15.499,8.5,15.499z"/>
	<path d="M11.5,15.5c-0.827,0-1.5-0.673-1.5-1.5V9c0-0.276,0.224-0.5,0.5-0.5S11,8.724,11,9v5c0,0.276,0.224,0.5,0.5,0.5h2
		c0.276,0,0.5,0.224,0.5,0.5s-0.224,0.5-0.5,0.5H11.5z"/>
	<path d="M15.5,15.5c-0.276,0-0.5-0.224-0.5-0.5s0.224-0.5,0.5-0.5h1.7c0.281,0,0.52-0.128,0.673-0.361
		c0.117-0.178,0.158-0.392,0.114-0.601c-0.043-0.209-0.166-0.389-0.344-0.507L15.8,11.802c-0.509-0.335-0.812-0.901-0.808-1.513
		c0.007-0.986,0.814-1.789,1.8-1.789H18.5C18.776,8.5,19,8.724,19,9s-0.224,0.5-0.5,0.5h-1.7c-0.446,0-0.806,0.357-0.809,0.795
		c-0.002,0.272,0.133,0.524,0.36,0.673l1.843,1.229c0.399,0.262,0.674,0.666,0.772,1.137c0.098,0.47,0.006,0.951-0.258,1.354
		c-0.334,0.509-0.896,0.812-1.505,0.812H15.5z"/>
	<path d="M1.5,19.499c-0.827,0-1.5-0.673-1.5-1.5v-12c0-0.827,0.673-1.5,1.5-1.5h21c0.827,0,1.5,0.673,1.5,1.5v12
		c0,0.827-0.673,1.5-1.5,1.5H1.5z M1.5,5.499c-0.276,0-0.5,0.224-0.5,0.5v12c0,0.276,0.224,0.5,0.5,0.5h21
		c0.276,0,0.5-0.224,0.5-0.5v-12c0-0.276-0.224-0.5-0.5-0.5H1.5z"/>
</g>
</svg>
