<?xml version="1.0" encoding="utf-8"?>
<!-- Generator: Adobe Illustrator 22.1.0, SVG Export Plug-In . SVG Version: 6.00 Build 0)  -->
<svg version="1.1" id="Layer_1" xmlns="http://www.w3.org/2000/svg" xmlns:xlink="http://www.w3.org/1999/xlink" x="0px" y="0px"
	 viewBox="0 0 24 24" style="enable-background:new 0 0 24 24;" xml:space="preserve">
<g>
	<title>file-rtf</title>
	<path d="M1.5,19.499c-0.827,0-1.5-0.673-1.5-1.5v-12c0-0.827,0.673-1.5,1.5-1.5h21c0.827,0,1.5,0.673,1.5,1.5v12
		c0,0.827-0.673,1.5-1.5,1.5H1.5z M1.5,5.499c-0.276,0-0.5,0.224-0.5,0.5v12c0,0.276,0.224,0.5,0.5,0.5h21
		c0.276,0,0.5-0.224,0.5-0.5v-12c0-0.276-0.224-0.5-0.5-0.5H1.5z"/>
	<path d="M9.5,15.499c-0.134,0-0.259-0.052-0.354-0.146L7,13.206v1.793c0,0.276-0.224,0.5-0.5,0.5S6,15.275,6,14.999V9
		c0-0.276,0.224-0.5,0.5-0.5H8c1.103,0,2,0.897,2,2s-0.897,2-2,2H7.708l2.146,2.146C9.948,14.74,10,14.865,10,14.999
		s-0.052,0.259-0.146,0.354S9.634,15.499,9.5,15.499z M8,11.5c0.551,0,1-0.449,1-1s-0.449-1-1-1H7v2H8z"/>
	<path d="M12.5,15.499c-0.276,0-0.5-0.224-0.5-0.5v-5.5h-1c-0.276,0-0.5-0.224-0.5-0.5s0.224-0.5,0.5-0.5h3
		c0.276,0,0.5,0.224,0.5,0.5s-0.224,0.5-0.5,0.5h-1v5.5C13,15.275,12.776,15.499,12.5,15.499z"/>
	<path d="M15.5,15.5c-0.276,0-0.5-0.224-0.5-0.5v-5c0-0.827,0.673-1.5,1.5-1.5h2C18.776,8.5,19,8.724,19,9s-0.224,0.5-0.5,0.5h-2
		C16.224,9.5,16,9.724,16,10v1.499h1.5c0.276,0,0.5,0.224,0.5,0.5c0,0.276-0.224,0.5-0.5,0.5H16V15C16,15.276,15.776,15.5,15.5,15.5
		z"/>
</g>
</svg>
