<?xml version="1.0" encoding="utf-8"?>
<!-- Generator: Adobe Illustrator 22.1.0, SVG Export Plug-In . SVG Version: 6.00 Build 0)  -->
<svg version="1.1" id="Layer_1" xmlns="http://www.w3.org/2000/svg" xmlns:xlink="http://www.w3.org/1999/xlink" x="0px" y="0px"
	 viewBox="0 0 24 24" style="enable-background:new 0 0 24 24;" xml:space="preserve">
<g>
	<title>file-ppt-1</title>
	<path d="M1.5,23.999c-0.827,0-1.5-0.673-1.5-1.5v-21c0-0.827,0.673-1.5,1.5-1.5h21c0.827,0,1.5,0.673,1.5,1.5v21
		c0,0.827-0.673,1.5-1.5,1.5H1.5z M1.5,0.999c-0.276,0-0.5,0.224-0.5,0.5v21c0,0.276,0.224,0.5,0.5,0.5h21
		c0.276,0,0.5-0.224,0.5-0.5v-21c0-0.276-0.224-0.5-0.5-0.5H1.5z"/>
	<path d="M4.5,19.999c-0.276,0-0.5-0.224-0.5-0.5V11.5C4,11.224,4.224,11,4.5,11h2C7.879,11,9,12.121,9,13.5
		C9,14.878,7.879,16,6.5,16H5v3.499C5,19.775,4.776,19.999,4.5,19.999z M6.5,15C7.327,15,8,14.327,8,13.5S7.327,12,6.5,12H5v3H6.5z"
		/>
	<path d="M10.5,19.999c-0.276,0-0.5-0.224-0.5-0.5V11.5c0-0.276,0.224-0.5,0.5-0.5h2c1.378,0,2.5,1.121,2.5,2.5
		c0,1.378-1.122,2.5-2.5,2.5H11v3.499C11,19.775,10.776,19.999,10.5,19.999z M12.5,15c0.827,0,1.5-0.673,1.5-1.5S13.327,12,12.5,12
		H11L12.5,15z"/>
	<path d="M18.5,19.999c-0.276,0-0.5-0.224-0.5-0.5v-7.5h-1.5c-0.276,0-0.5-0.224-0.5-0.5s0.224-0.5,0.5-0.5h4
		c0.276,0,0.5,0.224,0.5,0.5s-0.224,0.5-0.5,0.5H19v7.5C19,19.775,18.776,19.999,18.5,19.999z"/>
</g>
</svg>
