<?xml version="1.0" encoding="utf-8"?>
<!-- Generator: Adobe Illustrator 22.1.0, SVG Export Plug-In . SVG Version: 6.00 Build 0)  -->
<svg version="1.1" id="Layer_1" xmlns="http://www.w3.org/2000/svg" xmlns:xlink="http://www.w3.org/1999/xlink" x="0px" y="0px"
	 viewBox="0 0 24 24" style="enable-background:new 0 0 24 24;" xml:space="preserve">
<g>
	<title>file-pdf</title>
	<path d="M6.5,15.499c-0.276,0-0.5-0.224-0.5-0.5V9c0-0.276,0.224-0.5,0.5-0.5H8c1.103,0,2,0.897,2,2s-0.897,2-2,2H7v2.499
		C7,15.275,6.776,15.499,6.5,15.499z M8,11.5c0.551,0,1-0.449,1-1s-0.449-1-1-1H7v2H8z"/>
	<path d="M11.5,15.5c-0.276,0-0.5-0.224-0.5-0.5V9c0-0.276,0.224-0.5,0.5-0.5c1.93,0,3.5,1.57,3.5,3.5S13.43,15.5,11.5,15.5z
		 M12,14.449c1.141-0.235,2-1.261,2-2.449c0-1.188-0.859-2.215-2-2.45V14.449z"/>
	<path d="M16.5,15.5c-0.276,0-0.5-0.224-0.5-0.5v-5c0-0.827,0.673-1.5,1.5-1.5h2C19.776,8.5,20,8.724,20,9s-0.224,0.5-0.5,0.5h-2
		C17.224,9.5,17,9.724,17,10v1.499h1.5c0.276,0,0.5,0.224,0.5,0.5c0,0.276-0.224,0.5-0.5,0.5H17V15C17,15.276,16.776,15.5,16.5,15.5
		z"/>
	<path d="M1.5,19.499c-0.827,0-1.5-0.673-1.5-1.5v-12c0-0.827,0.673-1.5,1.5-1.5h21c0.827,0,1.5,0.673,1.5,1.5v12
		c0,0.827-0.673,1.5-1.5,1.5H1.5z M1.5,5.499c-0.276,0-0.5,0.224-0.5,0.5v12c0,0.276,0.224,0.5,0.5,0.5h21
		c0.276,0,0.5-0.224,0.5-0.5v-12c0-0.276-0.224-0.5-0.5-0.5H1.5z"/>
</g>
</svg>
