<?xml version="1.0" encoding="utf-8"?>
<!-- Generator: Adobe Illustrator 22.1.0, SVG Export Plug-In . SVG Version: 6.00 Build 0)  -->
<svg version="1.1" id="Layer_1" xmlns="http://www.w3.org/2000/svg" xmlns:xlink="http://www.w3.org/1999/xlink" x="0px" y="0px"
	 viewBox="0 0 24 24" style="enable-background:new 0 0 24 24;" xml:space="preserve">
<g>
	<title>office-file-txt</title>
	<path d="M3.5,24C2.673,24,2,23.327,2,22.5v-21C2,0.673,2.673,0,3.5,0h12.025C19.094,0,21.999,2.904,22,6.473V22.5
		c0,0.827-0.673,1.5-1.5,1.5H3.5z M3.5,1C3.224,1,3,1.224,3,1.5v21C3,22.776,3.224,23,3.5,23h17c0.276,0,0.5-0.224,0.5-0.5V6.473
		C21,6.32,20.993,6.161,20.978,6H17.5C16.673,6,16,5.327,16,4.5V1.022C15.838,1.007,15.681,1,15.525,1H3.5z M17,4.5
		C17,4.776,17.224,5,17.5,5h3.297C20.282,3.164,18.836,1.717,17,1.203V4.5z"/>
	<path d="M16.5,18.999c-0.276,0-0.5-0.224-0.5-0.5v-5.5h-1c-0.276,0-0.5-0.224-0.5-0.5c0-0.276,0.224-0.5,0.5-0.5h3
		c0.276,0,0.5,0.224,0.5,0.5c0,0.276-0.224,0.5-0.5,0.5h-1v5.5C17,18.775,16.776,18.999,16.5,18.999z"/>
	<path d="M6.5,18.999c-0.276,0-0.5-0.224-0.5-0.5v-5.5H5c-0.276,0-0.5-0.224-0.5-0.5c0-0.276,0.224-0.5,0.5-0.5h3
		c0.276,0,0.5,0.224,0.5,0.5c0,0.276-0.224,0.5-0.5,0.5H7v5.5C7,18.775,6.776,18.999,6.5,18.999z"/>
	<path d="M13,18.999c-0.19,0-0.362-0.106-0.447-0.276L11.5,16.617l-1.053,2.105c-0.085,0.17-0.257,0.276-0.448,0.276
		c-0.077,0-0.154-0.018-0.223-0.052c-0.247-0.124-0.348-0.425-0.224-0.671l1.388-2.776l-1.388-2.776
		c-0.123-0.247-0.023-0.548,0.224-0.671c0.069-0.035,0.147-0.053,0.224-0.053c0.191,0,0.362,0.106,0.447,0.277l1.053,2.105
		l1.053-2.105c0.086-0.171,0.257-0.276,0.448-0.276c0.077,0,0.154,0.018,0.223,0.052c0.247,0.124,0.347,0.425,0.224,0.671
		l-1.388,2.776l1.388,2.776c0.123,0.247,0.023,0.548-0.224,0.671C13.154,18.981,13.077,18.999,13,18.999z"/>
</g>
</svg>
