<?xml version="1.0" encoding="utf-8"?>
<!-- Generator: Adobe Illustrator 22.1.0, SVG Export Plug-In . SVG Version: 6.00 Build 0)  -->
<svg version="1.1" id="Layer_1" xmlns="http://www.w3.org/2000/svg" xmlns:xlink="http://www.w3.org/1999/xlink" x="0px" y="0px"
	 viewBox="0 0 24 24" style="enable-background:new 0 0 24 24;" xml:space="preserve">
<g>
	<title>office-file-graph</title>
	<path d="M3.5,24C2.673,24,2,23.327,2,22.5v-21C2,0.673,2.673,0,3.5,0h13.293c0.421,0.012,0.785,0.163,1.06,0.437l3.708,3.71
		C21.844,4.43,22,4.807,22,5.207V22.5c0,0.827-0.673,1.5-1.5,1.5H3.5z M3.5,1C3.224,1,3,1.224,3,1.5v21C3,22.776,3.224,23,3.5,23h17
		c0.276,0,0.5-0.224,0.5-0.5V5.207c0-0.133-0.052-0.259-0.146-0.354l-3.707-3.709C17.052,1.051,16.93,1.001,16.792,1H3.5z"/>
	<path d="M12,18.499c-3.308,0-6-2.692-6-6s2.692-6,6-6c1.202,0,2.363,0.356,3.357,1.03c0.013,0.006,0.025,0.013,0.035,0.02
		c0.01,0.007,0.021,0.017,0.032,0.027C17.032,8.691,18,10.534,18,12.499c0,1.765-0.774,3.431-2.126,4.577
		c-0.009,0.01-0.019,0.021-0.028,0.028c-0.011,0.01-0.023,0.018-0.034,0.025C14.746,18.011,13.39,18.499,12,18.499z M7.032,12.999
		c0.252,2.544,2.386,4.5,4.968,4.5c1.005,0,1.968-0.299,2.8-0.866l-3.034-3.634H7.032z M15.567,15.991
		C16.481,15.058,17,13.799,17,12.499c0-1.484-0.646-2.86-1.782-3.816l-2.592,3.786L15.567,15.991z M11.736,11.999l2.657-3.882
		C13.657,7.712,12.835,7.499,12,7.499c-2.582,0-4.716,1.956-4.968,4.5H11.736z"/>
</g>
</svg>
