<?xml version="1.0" encoding="utf-8"?>
<!-- Generator: Adobe Illustrator 22.1.0, SVG Export Plug-In . SVG Version: 6.00 Build 0)  -->
<svg version="1.1" id="Layer_1" xmlns="http://www.w3.org/2000/svg" xmlns:xlink="http://www.w3.org/1999/xlink" x="0px" y="0px"
	 viewBox="0 0 24 24" style="enable-background:new 0 0 24 24;" xml:space="preserve">
<g>
	<title>office-file-module-edit</title>
	<path d="M1.5,24C0.673,24,0,23.327,0,22.5v-21C0,0.673,0.673,0,1.5,0h13.293c0.401,0,0.776,0.155,1.06,0.436l3.708,3.71
		C19.844,4.429,20,4.806,20,5.207V8.5C20,8.776,19.776,9,19.5,9S19,8.776,19,8.5V5.207c0-0.133-0.052-0.259-0.147-0.353
		l-3.707-3.709C15.051,1.05,14.932,1.001,14.792,1H1.5C1.224,1,1,1.224,1,1.5v21C1,22.776,1.224,23,1.5,23h7
		C8.776,23,9,23.224,9,23.5S8.776,24,8.5,24H1.5z"/>
	<path d="M5.5,16.999c-0.827,0-1.5-0.673-1.5-1.5v-2c0-0.827,0.673-1.5,1.5-1.5h2c0.827,0,1.5,0.673,1.5,1.5v2
		c0,0.827-0.673,1.5-1.5,1.5H5.5z M5.5,12.999c-0.276,0-0.5,0.224-0.5,0.5v2c0,0.276,0.224,0.5,0.5,0.5h2c0.276,0,0.5-0.224,0.5-0.5
		v-2c0-0.276-0.224-0.5-0.5-0.5H5.5z"/>
	<path d="M11.5,17c-0.827,0-1.5-0.673-1.5-1.5v-2c0-0.827,0.673-1.5,1.5-1.5h2c0.827,0,1.5,0.673,1.5,1.5c0,0.276-0.224,0.5-0.5,0.5
		S14,13.776,14,13.5S13.776,13,13.5,13h-2c-0.276,0-0.5,0.224-0.5,0.5v2c0,0.276,0.224,0.5,0.5,0.5s0.5,0.224,0.5,0.5
		S11.776,17,11.5,17z"/>
	<path d="M8.5,10.999c-0.827,0-1.5-0.673-1.5-1.5v-2c0-0.827,0.673-1.5,1.5-1.5h2c0.827,0,1.5,0.673,1.5,1.5v2
		c0,0.827-0.673,1.5-1.5,1.5H8.5z M8.5,6.999c-0.276,0-0.5,0.224-0.5,0.5v2c0,0.276,0.224,0.5,0.5,0.5h2c0.276,0,0.5-0.224,0.5-0.5
		v-2c0-0.276-0.224-0.5-0.5-0.5H8.5z"/>
	<path d="M11.5,23.999c-0.134,0-0.259-0.052-0.354-0.146c-0.119-0.119-0.17-0.288-0.137-0.452l0.75-3.75
		c0.019-0.097,0.067-0.185,0.137-0.255l7.63-7.631C20.02,11.271,20.677,11,21.376,11c0.699,0,1.356,0.272,1.85,0.765
		C23.725,12.263,24,12.923,24,13.62c0,0.698-0.271,1.354-0.764,1.848l-7.633,7.634c-0.07,0.07-0.158,0.117-0.255,0.137l-3.751,0.75
		C11.565,23.996,11.532,23.999,11.5,23.999z M12.138,22.862l2.866-0.573c0,0,7.526-7.528,7.53-7.532
		c0.301-0.304,0.467-0.707,0.467-1.136c0-0.431-0.169-0.836-0.474-1.14c-0.309-0.31-0.719-0.48-1.154-0.48
		c-0.431,0-0.835,0.167-1.139,0.471l-7.523,7.524L12.138,22.862z"/>
</g>
</svg>
