<?xml version="1.0" encoding="utf-8"?>
<!-- Generator: Adobe Illustrator 22.1.0, SVG Export Plug-In . SVG Version: 6.00 Build 0)  -->
<svg version="1.1" id="Layer_1" xmlns="http://www.w3.org/2000/svg" xmlns:xlink="http://www.w3.org/1999/xlink" x="0px" y="0px"
	 viewBox="0 0 24 24" style="enable-background:new 0 0 24 24;" xml:space="preserve">
<g>
	<title>office-file-sheet</title>
	<path d="M3.5,24C2.673,24,2,23.327,2,22.5v-21C2,0.673,2.673,0,3.5,0h13.293c0.421,0.012,0.785,0.163,1.06,0.437l3.708,3.71
		C21.844,4.43,22,4.807,22,5.207V22.5c0,0.827-0.673,1.5-1.5,1.5H3.5z M3.5,1C3.224,1,3,1.224,3,1.5v21C3,22.776,3.224,23,3.5,23h17
		c0.276,0,0.5-0.224,0.5-0.5V5.207c0-0.133-0.052-0.259-0.146-0.354l-3.707-3.709C17.052,1.051,16.93,1.001,16.792,1H3.5z"/>
	<path d="M6.5,19.999c-0.827,0-1.5-0.561-1.5-1.25v-10.5c0-0.689,0.673-1.25,1.5-1.25h11c0.827,0,1.5,0.561,1.5,1.25v10.5
		c0,0.689-0.673,1.25-1.5,1.25H6.5z M17.5,18.999c0.29,0,0.5-0.149,0.5-0.25v-1.75h-8v2H17.5z M6,18.749c0,0.101,0.21,0.25,0.5,0.25
		H9v-2H6V18.749z M18,15.999v-2h-8v2H18z M9,15.999v-2H6v2H9z M18,12.999v-2h-8v2H18z M9,12.999v-2H6v2H9z M18,9.999v-1.75
		c0-0.101-0.21-0.25-0.5-0.25H10v2H18z M9,9.999v-2H6.5c-0.29,0-0.5,0.149-0.5,0.25v1.75H9z"/>
</g>
</svg>
