<?xml version="1.0" encoding="utf-8"?>
<!-- Generator: Adobe Illustrator 22.1.0, SVG Export Plug-In . SVG Version: 6.00 Build 0)  -->
<svg version="1.1" id="Layer_1" xmlns="http://www.w3.org/2000/svg" xmlns:xlink="http://www.w3.org/1999/xlink" x="0px" y="0px"
	 viewBox="0 0 24 24" style="enable-background:new 0 0 24 24;" xml:space="preserve">
<g>
	<title>office-file-pps-1</title>
	<path d="M1.51,24c-0.827,0-1.5-0.673-1.5-1.5v-21c0-0.827,0.673-1.5,1.5-1.5h12.025c3.569,0,6.474,2.904,6.475,6.473V12.5
		c0,0.276-0.224,0.5-0.5,0.5s-0.5-0.224-0.5-0.5V6.473c0-0.153-0.007-0.312-0.022-0.473H15.51c-0.827,0-1.5-0.673-1.5-1.5V1.022
		C13.848,1.007,13.689,1,13.535,1H1.51c-0.276,0-0.5,0.224-0.5,0.5v21c0,0.276,0.224,0.5,0.5,0.5h3.478c0.276,0,0.5,0.224,0.5,0.5
		S5.264,24,4.988,24H1.51z M15.01,4.5c0,0.276,0.224,0.5,0.5,0.5h3.297c-0.514-1.836-1.961-3.283-3.797-3.797V4.5z"/>
	<path d="M7.488,23.999c-0.276,0-0.5-0.224-0.5-0.5V15.5c0-0.276,0.224-0.5,0.5-0.5h2c1.379,0,2.5,1.122,2.5,2.5s-1.121,2.5-2.5,2.5
		h-1.5v3.499C7.988,23.775,7.764,23.999,7.488,23.999z M9.488,19c0.827,0,1.5-0.673,1.5-1.5s-0.673-1.5-1.5-1.5h-1.5v3H9.488z"/>
	<path d="M13.488,23.999c-0.276,0-0.5-0.224-0.5-0.5V15.5c0-0.276,0.224-0.5,0.5-0.5h2c1.378,0,2.5,1.122,2.5,2.5
		s-1.122,2.5-2.5,2.5h-1.5v3.499C13.988,23.775,13.763,23.999,13.488,23.999z M15.488,19c0.827,0,1.5-0.673,1.5-1.5
		s-0.673-1.5-1.5-1.5h-1.5v3H15.488z"/>
	<path d="M19.488,24c-0.276,0-0.5-0.224-0.5-0.5s0.224-0.5,0.5-0.5h2.146c0.518,0,0.982-0.287,1.213-0.75
		c0.161-0.324,0.187-0.691,0.073-1.034c-0.115-0.343-0.356-0.621-0.68-0.782l-1.95-0.975c-0.802-0.401-1.301-1.208-1.301-2.104
		c0-0.628,0.245-1.219,0.689-1.664C20.123,15.246,20.714,15,21.342,15h2.146c0.276,0,0.5,0.224,0.5,0.5s-0.224,0.5-0.5,0.5h-2.146
		c-0.361,0-0.701,0.141-0.957,0.397c-0.256,0.256-0.396,0.596-0.396,0.958c0,0.516,0.287,0.98,0.748,1.21l1.95,0.975
		c1.161,0.579,1.634,1.996,1.055,3.157C23.341,23.501,22.533,24,21.635,24H19.488z"/>
</g>
</svg>
