<?xml version="1.0" encoding="utf-8"?>
<!-- Generator: Adobe Illustrator 22.1.0, SVG Export Plug-In . SVG Version: 6.00 Build 0)  -->
<svg version="1.1" id="Layer_1" xmlns="http://www.w3.org/2000/svg" xmlns:xlink="http://www.w3.org/1999/xlink" x="0px" y="0px"
	 viewBox="0 0 24 24" style="enable-background:new 0 0 24 24;" xml:space="preserve">
<g>
	<title>optimization-rocket-growth</title>
	<path d="M6.5,24C5.673,24,5,23.327,5,22.5S5.673,21,6.5,21h1.532c-0.694-0.397-1.317-0.902-1.86-1.511
		c-0.584-0.654-1.044-1.4-1.369-2.217H3.5c-0.276,0-0.5-0.224-0.5-0.5s0.224-0.5,0.5-0.5h6c0.276,0,0.5,0.224,0.5,0.5
		s-0.224,0.5-0.5,0.5H8.228c0.038,0.048,0.076,0.095,0.114,0.14c0.855,1.004,2.106,1.58,3.43,1.58c1.068,0,2.102-0.381,2.914-1.072
		c1.738-1.48,2.078-4.022,0.832-5.903l-0.857,0.857c-0.283,0.283-0.66,0.439-1.061,0.439c-0.401,0-0.778-0.156-1.061-0.439
		l-1.414-1.414c-0.585-0.585-0.585-1.536,0-2.121l4.243-4.243c0.283-0.283,0.659-0.439,1.06-0.439c0.226,0,0.446,0.05,0.647,0.146
		l1.828-1.829c0.283-0.283,0.66-0.44,1.061-0.44c0.226,0,0.446,0.05,0.647,0.146l1.474-1.474l-0.354-0.354
		c-0.094-0.094-0.146-0.22-0.146-0.354s0.052-0.259,0.146-0.354S21.952,0,22.086,0s0.259,0.052,0.354,0.146l1.414,1.414
		C23.948,1.655,24,1.78,24,1.914c0,0.134-0.052,0.259-0.146,0.354s-0.22,0.146-0.354,0.146s-0.259-0.052-0.354-0.146l-0.354-0.353
		l-1.474,1.475c0.27,0.565,0.16,1.255-0.293,1.708l-1.829,1.828c0.096,0.201,0.146,0.421,0.146,0.647
		c0,0.401-0.156,0.777-0.439,1.061l-1.236,1.236c1.13,1.437,1.693,3.223,1.589,5.055c-0.114,2-1,3.836-2.495,5.17
		c-0.389,0.347-0.81,0.65-1.258,0.907H17.5c0.827,0,1.5,0.673,1.5,1.5S18.327,24,17.5,24H6.5z M6.5,22C6.224,22,6,22.224,6,22.5
		S6.224,23,6.5,23h11c0.276,0,0.5-0.224,0.5-0.5S17.776,22,17.5,22H6.5z M5.891,17.272c0.265,0.563,0.61,1.084,1.027,1.551
		c1.23,1.379,3,2.17,4.854,2.17c1.598,0,3.133-0.585,4.323-1.647c1.296-1.156,2.063-2.747,2.162-4.48
		c0.088-1.547-0.373-3.058-1.303-4.286l-0.719,0.719c1.661,2.317,1.285,5.52-0.902,7.383c-0.992,0.845-2.258,1.31-3.562,1.31
		c-1.618,0-3.146-0.704-4.191-1.932c-0.205-0.241-0.392-0.506-0.558-0.789H5.891z M16.429,5.657c-0.134,0-0.259,0.052-0.354,0.146
		l-4.243,4.243c-0.195,0.195-0.195,0.512,0,0.707l1.414,1.414c0.088,0.088,0.217,0.139,0.354,0.139c0.136,0,0.265-0.051,0.354-0.139
		l4.242-4.243c0.094-0.095,0.146-0.22,0.146-0.354s-0.052-0.259-0.146-0.354l-1.414-1.414C16.688,5.709,16.563,5.657,16.429,5.657z
		 M18.55,6.157l1.769-1.768c0.195-0.195,0.195-0.513,0-0.708c-0.089-0.089-0.218-0.139-0.354-0.139s-0.265,0.051-0.354,0.139
		L17.843,5.45L18.55,6.157z"/>
	<path d="M0.5,9C0.366,9,0.241,8.948,0.146,8.854S0,8.634,0,8.5s0.052-0.259,0.146-0.354l2.793-2.793
		C3.222,5.071,3.599,4.915,4,4.915s0.778,0.156,1.061,0.439l1.336,1.336c0.094,0.094,0.22,0.146,0.354,0.146
		s0.259-0.052,0.354-0.146L12.793,1H11c-0.276,0-0.5-0.224-0.5-0.5S10.724,0,11,0h3c0.066,0,0.13,0.013,0.191,0.038
		c0.123,0.051,0.219,0.147,0.27,0.27C14.487,0.37,14.5,0.434,14.5,0.5v3C14.5,3.776,14.276,4,14,4s-0.5-0.224-0.5-0.5V1.707
		L7.811,7.396C7.528,7.679,7.151,7.835,6.75,7.835S5.972,7.679,5.689,7.396L4.354,6.061C4.259,5.966,4.134,5.915,4,5.915
		S3.741,5.966,3.646,6.061L0.854,8.854C0.759,8.948,0.634,9,0.5,9z"/>
</g>
</svg>
