<?xml version="1.0" encoding="utf-8"?>
<!-- Generator: Adobe Illustrator 22.1.0, SVG Export Plug-In . SVG Version: 6.00 Build 0)  -->
<svg version="1.1" id="Layer_1" xmlns="http://www.w3.org/2000/svg" xmlns:xlink="http://www.w3.org/1999/xlink" x="0px" y="0px"
	 viewBox="0 0 24 24" style="enable-background:new 0 0 24 24;" xml:space="preserve">
<g>
	<title>optimization-rocket-graph</title>
	<path d="M6.5,24C5.673,24,5,23.327,5,22.5S5.673,21,6.5,21h1.532c-0.694-0.397-1.317-0.902-1.86-1.511
		c-0.584-0.654-1.044-1.4-1.369-2.217H3.5c-0.276,0-0.5-0.224-0.5-0.5s0.224-0.5,0.5-0.5h6c0.276,0,0.5,0.224,0.5,0.5
		s-0.224,0.5-0.5,0.5H8.228c0.038,0.048,0.076,0.095,0.114,0.14c0.855,1.004,2.106,1.58,3.43,1.58c1.068,0,2.102-0.381,2.914-1.072
		c1.738-1.48,2.078-4.022,0.832-5.903l-0.857,0.857c-0.094,0.094-0.22,0.146-0.354,0.146s-0.259-0.052-0.354-0.146
		c-0.195-0.195-0.195-0.512,0-0.707l4.242-4.243c0.195-0.195,0.195-0.512,0-0.707l-1.414-1.414
		c-0.006-0.006-0.011-0.012-0.017-0.019c-0.086-0.081-0.207-0.129-0.336-0.129c-0.134,0-0.259,0.052-0.353,0.146l-2.2,2.2
		c-0.094,0.094-0.22,0.146-0.354,0.146s-0.259-0.052-0.354-0.146c-0.195-0.195-0.195-0.512,0-0.707l2.2-2.2
		c0.282-0.283,0.659-0.439,1.06-0.439c0.226,0,0.447,0.05,0.647,0.146l1.827-1.827c0.283-0.283,0.66-0.44,1.061-0.44
		c0.226,0,0.446,0.05,0.647,0.146l1.474-1.474l-0.354-0.354c-0.094-0.094-0.146-0.22-0.146-0.354s0.052-0.259,0.146-0.354
		S21.952,0,22.086,0s0.259,0.052,0.354,0.146l1.414,1.414C23.948,1.655,24,1.78,24,1.914c0,0.134-0.052,0.259-0.146,0.354
		s-0.22,0.146-0.354,0.146s-0.259-0.052-0.354-0.146l-0.354-0.353l-1.474,1.475c0.27,0.565,0.16,1.255-0.293,1.708l-1.829,1.828
		c0.269,0.565,0.159,1.254-0.293,1.707l-1.236,1.236c1.13,1.437,1.693,3.223,1.589,5.055c-0.114,2-1,3.836-2.495,5.17
		c-0.389,0.347-0.81,0.65-1.258,0.907H17.5c0.827,0,1.5,0.673,1.5,1.5S18.327,24,17.5,24H6.5z M6.5,22C6.224,22,6,22.224,6,22.5
		S6.224,23,6.5,23h11c0.276,0,0.5-0.224,0.5-0.5S17.776,22,17.5,22H6.5z M5.891,17.272c0.265,0.563,0.61,1.084,1.027,1.551
		c1.23,1.379,3,2.17,4.854,2.17c1.598,0,3.133-0.585,4.323-1.647c1.296-1.156,2.063-2.747,2.162-4.48
		c0.088-1.547-0.373-3.058-1.303-4.286l-0.719,0.719c1.661,2.317,1.285,5.52-0.902,7.383c-0.992,0.845-2.258,1.31-3.562,1.31
		c-1.618,0-3.146-0.704-4.191-1.932c-0.205-0.241-0.392-0.506-0.558-0.789H5.891z M18.551,6.157l1.768-1.767
		c0.195-0.195,0.195-0.513,0-0.708c-0.089-0.089-0.218-0.139-0.354-0.139s-0.265,0.051-0.354,0.139l-1.767,1.767L18.551,6.157z"/>
	<path d="M0.5,15C0.224,15,0,14.776,0,14.5S0.224,14,0.5,14H1v-3.5C1,10.224,1.224,10,1.5,10h2C3.776,10,4,10.224,4,10.5V14h1V8.5
		C5,8.224,5.224,8,5.5,8h2C7.776,8,8,8.224,8,8.5V14h1V6c0-0.276,0.224-0.5,0.5-0.5h2C11.776,5.5,12,5.724,12,6v8h0.5
		c0.276,0,0.5,0.224,0.5,0.5S12.776,15,12.5,15H0.5z M11,14V6.5h-1V14H11z M7,14V9H6v5H7z M3,14v-3H2v3H3z"/>
</g>
</svg>
