<?xml version="1.0" encoding="utf-8"?>
<!-- Generator: Adobe Illustrator 22.1.0, SVG Export Plug-In . SVG Version: 6.00 Build 0)  -->
<svg version="1.1" id="Light" xmlns="http://www.w3.org/2000/svg" xmlns:xlink="http://www.w3.org/1999/xlink" x="0px" y="0px"
	 viewBox="0 0 24 24" style="enable-background:new 0 0 24 24;" xml:space="preserve">
<g>
	<title>uv-low-1</title>
	<path d="M1.5,24C0.673,24,0,23.327,0,22.5v-21C0,0.673,0.673,0,1.5,0h8c0.273,0,0.539,0.074,0.771,0.214
		c0.114,0.069,0.195,0.178,0.227,0.308c0.032,0.13,0.012,0.264-0.057,0.378c-0.09,0.15-0.254,0.242-0.429,0.242
		c-0.091,0-0.179-0.025-0.257-0.071C9.679,1.024,9.591,1,9.501,1H1.5C1.224,1,1,1.224,1,1.5v21C1,22.776,1.224,23,1.5,23h8
		c0.276,0,0.5-0.224,0.5-0.5v-8c0-0.276,0.224-0.5,0.5-0.5s0.5,0.224,0.5,0.5v8c0,0.827-0.673,1.5-1.5,1.5H1.5z"/>
	<path d="M16.5,15C12.365,15,9,11.635,9,7.5S12.365,0,16.5,0S24,3.365,24,7.5S20.635,15,16.5,15z M16.5,1C12.916,1,10,3.916,10,7.5
		s2.916,6.5,6.5,6.5S23,11.084,23,7.5S20.084,1,16.5,1z"/>
	<path d="M14,11.5c-1.103,0-2-0.897-2-2V5c0-0.276,0.224-0.5,0.5-0.5C12.776,4.5,13,4.724,13,5v4.5c0,0.551,0.448,1,1,1s1-0.449,1-1
		V5c0-0.276,0.224-0.5,0.5-0.5S16,4.724,16,5v4.5C16,10.603,15.103,11.5,14,11.5z"/>
	<path d="M19,11.5c-0.156,0-0.306-0.075-0.4-0.2C17.568,9.924,17,8.219,17,6.5V5c0-0.276,0.224-0.5,0.5-0.5S18,4.724,18,5v1.5
		c0,1.256,0.353,2.521,1,3.604c0.647-1.083,1-2.348,1-3.604V5c0-0.276,0.224-0.5,0.5-0.5S21,4.724,21,5v1.5
		c0,1.719-0.568,3.424-1.6,4.8C19.306,11.425,19.156,11.5,19,11.5z"/>
	<path d="M2.5,21C2.224,21,2,20.776,2,20.5S2.224,20,2.5,20h6C8.776,20,9,20.224,9,20.5S8.776,21,8.5,21H2.5z"/>
	<path d="M2.5,19C2.224,19,2,18.776,2,18.5S2.224,18,2.5,18h6C8.776,18,9,18.224,9,18.5S8.776,19,8.5,19H2.5z"/>
	<path d="M2.5,17C2.224,17,2,16.776,2,16.5S2.224,16,2.5,16h6C8.776,16,9,16.224,9,16.5S8.776,17,8.5,17H2.5z"/>
</g>
</svg>
