<?xml version="1.0" encoding="utf-8"?>
<!-- Generator: Adobe Illustrator 22.1.0, SVG Export Plug-In . SVG Version: 6.00 Build 0)  -->
<svg version="1.1" id="Light" xmlns="http://www.w3.org/2000/svg" xmlns:xlink="http://www.w3.org/1999/xlink" x="0px" y="0px"
	 viewBox="0 0 24 24" style="enable-background:new 0 0 24 24;" xml:space="preserve">
<g>
	<title>uv-sun</title>
	<path d="M10.25,13.5c-2.481,0-4.5-2.019-4.5-4.5s2.019-4.5,4.5-4.5c2.481,0,4.5,2.019,4.5,4.5S12.731,13.5,10.25,13.5z M10.25,5.5
		c-1.93,0-3.5,1.57-3.5,3.5s1.57,3.5,3.5,3.5s3.5-1.57,3.5-3.5S12.18,5.5,10.25,5.5z"/>
	<path d="M10.25,3c-0.276,0-0.5-0.224-0.5-0.5v-2c0-0.276,0.224-0.5,0.5-0.5s0.5,0.224,0.5,0.5v2C10.75,2.776,10.526,3,10.25,3z"/>
	<path d="M16.75,9c-0.276,0-0.5-0.224-0.5-0.5S16.474,8,16.75,8h2c0.276,0,0.5,0.224,0.5,0.5S19.026,9,18.75,9H16.75z"/>
	<path d="M10.25,18c-0.276,0-0.5-0.224-0.5-0.5v-2c0-0.276,0.224-0.5,0.5-0.5s0.5,0.224,0.5,0.5v2C10.75,17.776,10.526,18,10.25,18z
		"/>
	<path d="M1.75,9c-0.276,0-0.5-0.224-0.5-0.5S1.474,8,1.75,8h2c0.276,0,0.5,0.224,0.5,0.5S4.026,9,3.75,9H1.75z"/>
	<path d="M5.654,4.904c-0.134,0-0.259-0.052-0.354-0.146L3.886,3.344c-0.195-0.195-0.195-0.512,0-0.707
		C3.981,2.542,4.106,2.49,4.24,2.49s0.259,0.052,0.354,0.146l1.414,1.414c0.195,0.195,0.195,0.512,0,0.707
		C5.913,4.852,5.788,4.904,5.654,4.904z"/>
	<path d="M14.492,4.551c-0.134,0-0.259-0.052-0.354-0.146c-0.195-0.195-0.195-0.512,0-0.707l1.414-1.414
		c0.094-0.094,0.22-0.146,0.354-0.146s0.259,0.052,0.354,0.146c0.195,0.195,0.195,0.512,0,0.707l-1.414,1.414
		C14.751,4.499,14.625,4.551,14.492,4.551z"/>
	<path d="M16.261,15.511c-0.134,0-0.259-0.052-0.354-0.146l-1.414-1.414c-0.195-0.195-0.195-0.512,0-0.707
		c0.094-0.094,0.22-0.146,0.354-0.146s0.259,0.052,0.354,0.146l1.414,1.414c0.195,0.195,0.195,0.512,0,0.707
		C16.52,15.459,16.395,15.511,16.261,15.511z"/>
	<path d="M3.887,15.156c-0.134,0-0.259-0.052-0.354-0.146c-0.195-0.195-0.195-0.512,0-0.707l1.414-1.414
		c0.094-0.094,0.22-0.146,0.354-0.146s0.259,0.052,0.354,0.146c0.195,0.195,0.195,0.512,0,0.707L4.24,15.01
		C4.146,15.104,4.021,15.156,3.887,15.156z"/>
	<path d="M14.75,24c-1.103,0-2-0.897-2-2v-4.5c0-0.276,0.224-0.5,0.5-0.5s0.5,0.224,0.5,0.5V22c0,0.552,0.448,1,1,1s1-0.448,1-1
		v-4.5c0-0.276,0.224-0.5,0.5-0.5s0.5,0.224,0.5,0.5V22C16.75,23.103,15.853,24,14.75,24z"/>
	<path d="M20.75,24c-0.157,0-0.306-0.075-0.4-0.2c-1.031-1.375-1.6-3.08-1.6-4.8v-1.5c0-0.276,0.224-0.5,0.5-0.5s0.5,0.224,0.5,0.5
		V19c0,1.256,0.353,2.521,1,3.604c0.647-1.083,1-2.348,1-3.604v-1.5c0-0.276,0.224-0.5,0.5-0.5s0.5,0.224,0.5,0.5V19
		c0,1.719-0.568,3.424-1.6,4.8C21.056,23.925,20.907,24,20.75,24z"/>
</g>
</svg>
