<?xml version="1.0" encoding="utf-8"?>
<!-- Generator: Adobe Illustrator 22.1.0, SVG Export Plug-In . SVG Version: 6.00 Build 0)  -->
<svg version="1.1" id="Light" xmlns="http://www.w3.org/2000/svg" xmlns:xlink="http://www.w3.org/1999/xlink" x="0px" y="0px"
	 viewBox="0 0 24 24" style="enable-background:new 0 0 24 24;" xml:space="preserve">
<g>
	<title>video-game-controller-monitor</title>
	<path d="M11.494,24.005c-1.654,0-3.12-0.99-3.736-2.523c-0.399-0.995-0.387-2.087,0.036-3.076c0.422-0.989,1.203-1.753,2.198-2.152
		c0.47-0.194,0.97-0.293,1.484-0.293c0.499,0,0.984,0.093,1.445,0.276l3.435-1.402c0.333-0.751,0.897-1.377,1.611-1.792
		l-0.512-1.028c-0.318-0.637-0.318-1.399,0-2.036c0.062-0.123,0.103-0.255,0.122-0.393c0.098-0.697-0.389-1.344-1.086-1.443
		l-0.489-0.07v2.424c0,0.827-0.673,1.5-1.5,1.5h-4.5v2h1.158c0.276,0,0.5,0.224,0.5,0.5s-0.224,0.5-0.5,0.5H4.853
		c-0.276,0-0.5-0.224-0.5-0.5s0.224-0.5,0.5-0.5h1.149v-2h-4.5c-0.827,0-1.5-0.673-1.5-1.5v-9c0-0.827,0.673-1.5,1.5-1.5h13
		c0.827,0,1.5,0.673,1.5,1.5v5.566l0.63,0.09c1.243,0.176,2.111,1.33,1.936,2.573c-0.035,0.245-0.108,0.48-0.218,0.7
		c-0.179,0.358-0.179,0.785,0,1.143l0.539,1.083c0.366-0.107,0.743-0.161,1.122-0.161c0.54,0,1.068,0.109,1.569,0.323
		c0.987,0.422,1.751,1.203,2.151,2.2c0.4,0.996,0.388,2.088-0.034,3.076c-0.422,0.988-1.203,1.751-2.2,2.151
		c-0.469,0.195-0.969,0.294-1.484,0.294c0,0,0,0,0,0c-0.499,0-0.985-0.093-1.445-0.277l-3.434,1.401
		c-0.409,0.922-1.173,1.662-2.109,2.039l-0.036,0.015C12.509,23.908,12.006,24.005,11.494,24.005z M11.477,16.961
		c-0.383,0-0.755,0.074-1.108,0.219c-1.549,0.622-2.303,2.384-1.683,3.93c0.462,1.151,1.564,1.895,2.807,1.895
		c0.384,0,0.761-0.073,1.121-0.217l0.031-0.013c0.757-0.305,1.354-0.915,1.638-1.674c0.049-0.13,0.151-0.235,0.279-0.287l3.822-1.56
		c0.059-0.025,0.123-0.037,0.189-0.037c0.073,0,0.146,0.016,0.211,0.047c0.381,0.178,0.805,0.272,1.228,0.272
		c0.383,0,0.756-0.074,1.108-0.219c0.753-0.302,1.341-0.876,1.657-1.618c0.317-0.742,0.326-1.562,0.026-2.311
		c-0.301-0.749-0.875-1.335-1.616-1.652c-0.38-0.162-0.779-0.245-1.186-0.245c-0.385,0-0.763,0.074-1.126,0.219l-0.036,0.015
		c-0.752,0.304-1.347,0.913-1.633,1.672c-0.049,0.13-0.15,0.234-0.279,0.287l-3.823,1.56c-0.06,0.025-0.124,0.037-0.189,0.037
		c-0.073,0-0.146-0.016-0.211-0.047C12.323,17.055,11.899,16.961,11.477,16.961z M9.002,13.999v-2h-2v2H9.002z M1.502,0.999
		c-0.276,0-0.5,0.224-0.5,0.5v9c0,0.276,0.224,0.5,0.5,0.5h13c0.276,0,0.5-0.224,0.5-0.5v-9c0-0.276-0.224-0.5-0.5-0.5H1.502z"/>
	<path d="M11.706,21.708c-0.204,0-0.386-0.122-0.463-0.311l-0.27-0.661l-0.662,0.27c-0.06,0.025-0.123,0.037-0.189,0.037
		c-0.204,0-0.386-0.122-0.463-0.311c-0.05-0.124-0.05-0.26,0.002-0.383c0.052-0.123,0.149-0.219,0.272-0.269l0.661-0.27l-0.27-0.661
		c-0.05-0.124-0.05-0.26,0.002-0.383c0.052-0.123,0.149-0.219,0.272-0.269c0.059-0.024,0.123-0.037,0.189-0.037
		c0.204,0,0.385,0.122,0.463,0.312l0.27,0.662l0.661-0.27c0.06-0.025,0.124-0.037,0.189-0.037c0.204,0,0.385,0.122,0.463,0.311
		c0.051,0.124,0.05,0.26-0.002,0.383c-0.052,0.123-0.148,0.219-0.272,0.269l-0.661,0.27l0.27,0.661
		c0.05,0.124,0.05,0.26-0.002,0.383c-0.052,0.123-0.149,0.219-0.272,0.269C11.835,21.696,11.771,21.708,11.706,21.708z"/>
	<path d="M19.443,15.74c-0.306,0-0.579-0.183-0.695-0.466c-0.001-0.002-0.001-0.004-0.002-0.006
		c-0.073-0.184-0.072-0.386,0.005-0.569c0.078-0.185,0.223-0.328,0.408-0.404c0.09-0.037,0.185-0.056,0.283-0.056
		c0.306,0,0.579,0.183,0.695,0.467c0.005,0.012,0.009,0.025,0.012,0.038c0.129,0.381-0.057,0.793-0.422,0.943
		c-0.016,0.007-0.043,0.013-0.065,0.018C19.587,15.729,19.514,15.74,19.443,15.74z"/>
	<path d="M12.501,6.249c-0.098,0-0.195-0.019-0.287-0.057c-0.185-0.077-0.328-0.221-0.405-0.406
		c-0.013-0.035-0.019-0.053-0.024-0.071c-0.001-0.003-0.002-0.007-0.002-0.01c-0.048-0.164-0.039-0.339,0.025-0.494
		c0.076-0.185,0.22-0.328,0.405-0.405c0.001-0.001,0.008-0.003,0.01-0.004c0.084-0.035,0.18-0.054,0.278-0.054
		c0.304,0,0.575,0.181,0.692,0.462c0.001,0.002,0.014,0.038,0.018,0.051c0.003,0.008,0.005,0.017,0.007,0.026
		c0.114,0.351-0.071,0.754-0.429,0.902c-0.001,0-0.008,0.003-0.011,0.004C12.695,6.23,12.599,6.249,12.501,6.249z"/>
	<path d="M10.002,6.248c-0.304,0-0.576-0.181-0.692-0.462C9.308,5.781,9.305,5.774,9.303,5.767c-0.007-0.018-0.012-0.035-0.016-0.05
		C9.286,5.713,9.285,5.709,9.284,5.705C9.236,5.541,9.245,5.366,9.309,5.211C9.386,5.026,9.53,4.883,9.715,4.807
		c0,0,0.012-0.005,0.018-0.007c0.076-0.032,0.172-0.051,0.27-0.051c0.098,0,0.195,0.019,0.286,0.057
		c0.185,0.077,0.328,0.221,0.405,0.405c0.001,0.003,0.006,0.015,0.007,0.019c0.07,0.168,0.07,0.372-0.006,0.556
		c-0.077,0.185-0.221,0.328-0.405,0.405c-0.007,0.003-0.014,0.005-0.021,0.008C10.176,6.233,10.09,6.248,10.002,6.248z"/>
	<path d="M18.555,17.851c-0.101,0-0.198-0.02-0.291-0.059c-0.162-0.068-0.295-0.193-0.376-0.353
		c-0.008-0.011-0.018-0.029-0.027-0.051c-0.076-0.186-0.075-0.39,0.003-0.575c0.069-0.163,0.193-0.296,0.353-0.377
		c0.014-0.01,0.032-0.021,0.054-0.03c0.091-0.037,0.186-0.056,0.283-0.056c0.306,0,0.579,0.183,0.695,0.467
		c0.154,0.378-0.024,0.811-0.397,0.972c-0.004,0.002-0.009,0.004-0.014,0.006C18.748,17.833,18.653,17.851,18.555,17.851z"/>
	<path d="M20.666,18.738c-0.1,0-0.198-0.02-0.29-0.059c-0.185-0.078-0.328-0.222-0.404-0.407c-0.003-0.006-0.01-0.028-0.011-0.033
		c-0.064-0.186-0.058-0.372,0.013-0.541c0.076-0.18,0.215-0.321,0.394-0.398c0.006-0.003,0.012-0.006,0.019-0.008
		c0.09-0.036,0.185-0.055,0.281-0.055c0.297,0,0.564,0.174,0.684,0.444c0.007,0.012,0.012,0.024,0.017,0.036
		c0.153,0.374-0.031,0.812-0.414,0.969c-0.044,0.018-0.084,0.024-0.11,0.027C20.781,18.73,20.723,18.738,20.666,18.738z"/>
	<path d="M21.554,16.627c-0.305,0-0.577-0.182-0.693-0.463c-0.004-0.01-0.007-0.019-0.01-0.029
		c-0.133-0.383,0.046-0.792,0.407-0.947c0.003-0.001,0.006-0.003,0.01-0.004c0.092-0.038,0.188-0.057,0.286-0.057
		c0.099,0,0.195,0.019,0.287,0.057c0.185,0.077,0.329,0.221,0.405,0.406c0.004,0.011,0.008,0.022,0.011,0.033
		c0.131,0.384-0.052,0.794-0.416,0.946c0,0-0.017,0.007-0.025,0.009C21.723,16.613,21.639,16.627,21.554,16.627z"/>
	<path d="M5.755,9.5c-0.214,0-0.43-0.019-0.642-0.055C4.126,9.275,3.264,8.731,2.686,7.913C2.108,7.095,1.883,6.101,2.052,5.114
		c0.169-0.987,0.713-1.849,1.531-2.427c0.637-0.451,1.384-0.689,2.158-0.689c0.213,0,0.429,0.018,0.641,0.055
		C7.37,2.222,8.232,2.766,8.81,3.584c0.159,0.225,0.106,0.537-0.119,0.697L6.617,5.749l2.073,1.468
		C8.916,7.376,8.969,7.688,8.81,7.913C8.563,8.262,8.261,8.564,7.913,8.811C7.275,9.261,6.529,9.5,5.755,9.5z M5.742,2.998
		c-0.567,0-1.114,0.175-1.581,0.505c-0.6,0.424-0.999,1.056-1.123,1.78C2.913,6.007,3.078,6.736,3.502,7.336
		c0.514,0.727,1.355,1.162,2.25,1.162c0.57,0,1.117-0.174,1.583-0.504c0.118-0.083,0.229-0.176,0.333-0.277L5.463,6.157
		C5.331,6.063,5.252,5.911,5.252,5.749S5.331,5.434,5.463,5.34l2.206-1.561c-0.397-0.39-0.895-0.644-1.455-0.741
		C6.057,3.011,5.898,2.998,5.742,2.998z"/>
</g>
</svg>
