<?xml version="1.0" encoding="utf-8"?>
<!-- Generator: Adobe Illustrator 22.1.0, SVG Export Plug-In . SVG Version: 6.00 Build 0)  -->
<svg version="1.1" id="Light" xmlns="http://www.w3.org/2000/svg" xmlns:xlink="http://www.w3.org/1999/xlink" x="0px" y="0px"
	 viewBox="0 0 24 24" style="enable-background:new 0 0 24 24;" xml:space="preserve">
<g>
	<title>video-game-controller-team</title>
	<path d="M21.492,24c-1.763,0-3.295-2.071-5.115-4.778C16.284,19.083,16.129,19,15.961,19H8.03c-0.167,0-0.322,0.083-0.415,0.222
		C5.802,21.929,4.275,24,2.5,24C1.121,24,0,22.878,0,21.5v-8C0,11.019,2.019,9,4.5,9h15c2.481,0,4.5,2.019,4.5,4.5l-0.008,8
		C23.992,22.879,22.87,24,21.492,24z M15.962,18c0.501,0,0.967,0.249,1.246,0.665C18.743,20.949,20.227,23,21.492,23
		c0.827,0,1.5-0.673,1.5-1.5l0.008-8c0-1.93-1.57-3.5-3.5-3.5h-15C2.57,10,1,11.57,1,13.5v8C1,22.327,1.673,23,2.5,23
		c1.276,0,2.755-2.051,4.284-4.335C7.064,18.249,7.529,18,8.03,18H15.962z"/>
	<path d="M5.5,17C5.224,17,5,16.776,5,16.5V15H3.5C3.224,15,3,14.776,3,14.5S3.224,14,3.5,14H5v-1.5C5,12.224,5.224,12,5.5,12
		S6,12.224,6,12.5V14h1.5C7.776,14,8,14.224,8,14.5S7.776,15,7.5,15H6v1.5C6,16.776,5.776,17,5.5,17z"/>
	<circle cx="18.5" cy="12.5" r="0.75"/>
	<circle cx="16.5" cy="14.5" r="0.75"/>
	<circle cx="18.5" cy="16.5" r="0.75"/>
	<circle cx="20.5" cy="14.5" r="0.75"/>
	<path d="M12,5c-1.379,0-2.5-1.121-2.5-2.5S10.621,0,12,0c1.378,0,2.5,1.121,2.5,2.5S13.378,5,12,5z M12,1
		c-0.827,0-1.5,0.673-1.5,1.5S11.173,4,12,4s1.5-0.673,1.5-1.5S12.827,1,12,1z"/>
	<path d="M19,5c-1.378,0-2.5-1.121-2.5-2.5S17.622,0,19,0s2.5,1.121,2.5,2.5S20.378,5,19,5z M19,1c-0.827,0-1.5,0.673-1.5,1.5
		S18.173,4,19,4s1.5-0.673,1.5-1.5S19.827,1,19,1z"/>
	<path d="M5,5C3.621,5,2.5,3.879,2.5,2.5S3.621,0,5,0s2.5,1.121,2.5,2.5S6.379,5,5,5z M5,1C4.173,1,3.5,1.673,3.5,2.5S4.173,4,5,4
		s1.5-0.673,1.5-1.5S5.827,1,5,1z"/>
	<path d="M1.5,8c-0.089,0-0.177-0.024-0.254-0.07c-0.115-0.068-0.197-0.176-0.23-0.306S1.001,7.361,1.069,7.246
		c0.391-0.664,0.949-1.222,1.613-1.613c0.7-0.413,1.499-0.631,2.31-0.631c1.359,0,2.646,0.605,3.508,1.635
		c0.334-0.398,0.737-0.741,1.182-1.003c0.704-0.415,1.502-0.634,2.31-0.634c0.385,0,0.771,0.049,1.148,0.147
		c0.926,0.239,1.753,0.763,2.36,1.49c0.334-0.398,0.737-0.741,1.182-1.003c0.7-0.413,1.5-0.632,2.31-0.632
		c1.613,0,3.122,0.86,3.938,2.245c0.14,0.238,0.061,0.545-0.177,0.685C22.677,7.976,22.59,8,22.5,8
		c-0.176,0-0.342-0.094-0.431-0.246c-0.637-1.081-1.816-1.753-3.076-1.753c-0.633,0-1.256,0.17-1.803,0.493
		c-0.519,0.306-0.954,0.742-1.26,1.26C15.844,7.9,15.679,7.991,15.5,7.991c-0.182,0-0.343-0.089-0.431-0.238
		c-0.483-0.82-1.257-1.402-2.178-1.64c-0.295-0.076-0.597-0.115-0.897-0.115c-0.63,0-1.253,0.171-1.803,0.495
		C9.672,6.8,9.236,7.235,8.931,7.754C8.844,7.9,8.679,7.991,8.5,7.991S8.156,7.9,8.069,7.754C7.432,6.673,6.253,6.001,4.994,6.001
		c-0.633,0-1.256,0.17-1.803,0.493C2.672,6.8,2.236,7.235,1.931,7.754C1.841,7.906,1.676,8,1.5,8L1.5,8z"/>
</g>
</svg>
