<?xml version="1.0" encoding="utf-8"?>
<!-- Generator: Adobe Illustrator 22.1.0, SVG Export Plug-In . SVG Version: 6.00 Build 0)  -->
<svg version="1.1" id="Light" xmlns="http://www.w3.org/2000/svg" xmlns:xlink="http://www.w3.org/1999/xlink" x="0px" y="0px"
	 viewBox="0 0 24 24" style="enable-background:new 0 0 24 24;" xml:space="preserve">
<g>
	<title>video-game-xbox-controller</title>
	<path d="M2.085,24c-0.555,0-1.077-0.216-1.471-0.608C0.219,23,0.001,22.476,0,21.919V11.5C0,9.018,2.019,7,4.5,7h5V6.5
		C9.5,5.673,10.173,5,11,5h0.5V3C11.497,1.9,10.599,1.003,9.499,1H5C4.724,1,4.5,0.776,4.5,0.5S4.724,0,5,0h4.5
		c1.65,0.005,2.995,1.35,3,2.999V5H13c0.827,0,1.5,0.673,1.5,1.5V7h5c2.481,0,4.5,2.019,4.5,4.5l-0.001,10.38
		c-0.005,0.576-0.23,1.111-0.635,1.509c-0.4,0.394-0.929,0.611-1.49,0.611c0,0-0.271,0-0.271,0c-1.442,0-1.601-0.29-2.839-2.542
		c-0.423-0.769-1.001-1.822-1.819-3.224C16.499,17.473,15.672,17,14.789,17H9.21c-0.886,0.001-1.715,0.478-2.162,1.244
		c-0.816,1.396-1.396,2.441-1.82,3.205c-1.308,2.357-1.414,2.55-2.77,2.55c0,0-0.237,0-0.326,0.001c0,0-0.042,0-0.043,0H2.085z
		 M4.5,8C2.57,8,1,9.57,1,11.5v10.418c0.001,0.289,0.114,0.562,0.32,0.766C1.525,22.888,1.797,23,2.086,23l0.356-0.002
		c0.784-0.001,0.784-0.001,1.903-2.018c0.438-0.79,1.023-1.843,1.84-3.241C6.81,16.668,7.969,16.001,9.209,16h5.58
		c1.237,0,2.393,0.663,3.019,1.729c0.818,1.403,1.399,2.459,1.823,3.23C20.751,22.996,20.753,23,21.544,23c0.001,0,0.318,0,0.318,0
		c0.311,0,0.59-0.115,0.801-0.323c0.215-0.211,0.334-0.493,0.336-0.794L23,11.5C23,9.57,21.43,8,19.5,8H4.5z M13.5,7V6.5
		C13.5,6.224,13.276,6,13,6h-2c-0.276,0-0.5,0.224-0.5,0.5V7H13.5z"/>
	<path d="M5.5,14.999c-0.276,0-0.5-0.224-0.5-0.5v-1.5H3.501c-0.276,0-0.5-0.224-0.5-0.5c0-0.276,0.224-0.5,0.5-0.5H5v-1.5
		c0-0.276,0.224-0.5,0.5-0.5s0.5,0.224,0.5,0.5v1.5h1.5c0.276,0,0.5,0.224,0.5,0.5c0,0.276-0.224,0.5-0.5,0.5H6v1.5
		C6,14.774,5.776,14.999,5.5,14.999z"/>
	<path d="M10,14.999c-0.276,0-0.5-0.224-0.5-0.5s0.224-0.5,0.5-0.5h1c0.276,0,0.5,0.224,0.5,0.5s-0.224,0.5-0.5,0.5H10z"/>
	<path d="M13,14.999c-0.276,0-0.5-0.224-0.5-0.5s0.224-0.5,0.5-0.5h1c0.276,0,0.5,0.224,0.5,0.5s-0.224,0.5-0.5,0.5H13z"/>
	<path d="M18.5,11.25c-0.011,0-0.023-0.001-0.035-0.003c-0.388-0.016-0.707-0.341-0.714-0.734c0-0.005,0-0.023,0-0.028
		c0.008-0.392,0.323-0.716,0.714-0.734c0.012-0.002,0.025-0.003,0.036-0.003c0.414,0,0.75,0.336,0.75,0.75
		C19.25,10.913,18.914,11.25,18.5,11.25z"/>
	<path d="M16.5,13.25c-0.011,0-0.024-0.001-0.037-0.003c-0.383-0.012-0.705-0.338-0.713-0.733c0-0.005,0-0.023,0-0.027
		c0.008-0.392,0.323-0.716,0.714-0.735c0.012-0.002,0.025-0.003,0.036-0.003c0.414,0,0.75,0.336,0.75,0.75
		C17.25,12.913,16.914,13.25,16.5,13.25z"/>
	<path d="M18.5,15.25c-0.011,0-0.024-0.001-0.037-0.003c-0.383-0.012-0.705-0.338-0.713-0.733c0-0.005,0-0.023,0-0.027
		c0.008-0.392,0.323-0.716,0.714-0.735c0.012-0.002,0.025-0.003,0.036-0.003c0.414,0,0.75,0.336,0.75,0.75
		C19.25,14.913,18.914,15.25,18.5,15.25z"/>
	<path d="M20.499,13.25c-0.012,0-0.025-0.001-0.038-0.003c-0.378-0.015-0.688-0.322-0.708-0.708
		c-0.002-0.013-0.003-0.026-0.003-0.038c0-0.4,0.32-0.731,0.718-0.749c0.011-0.001,0.023-0.002,0.033-0.002
		c0.414,0,0.75,0.336,0.75,0.75c0,0.011-0.001,0.023-0.003,0.035C21.227,12.933,20.897,13.25,20.499,13.25z"/>
</g>
</svg>
