<?xml version="1.0" encoding="utf-8"?>
<!-- Generator: Adobe Illustrator 22.1.0, SVG Export Plug-In . SVG Version: 6.00 Build 0)  -->
<svg version="1.1" id="Layer_1" xmlns="http://www.w3.org/2000/svg" xmlns:xlink="http://www.w3.org/1999/xlink" x="0px" y="0px"
	 viewBox="0 0 24 24" style="enable-background:new 0 0 24 24;" xml:space="preserve">
<g>
	<title>search-engine-bing-2</title>
	<path d="M9.502,23.804c-0.085,0-0.17-0.022-0.245-0.064l-5-2.803c-0.158-0.088-0.256-0.255-0.256-0.436v-20
		c0-0.174,0.089-0.333,0.237-0.425c0.079-0.049,0.17-0.075,0.263-0.075c0.077,0,0.154,0.018,0.223,0.053l4,2
		c0.17,0.085,0.276,0.257,0.276,0.447v15.191l5.251-2.625l-2.927-1.097c-0.159-0.06-0.276-0.194-0.312-0.36l-1-4.5
		c-0.04-0.18,0.022-0.367,0.162-0.488c0.091-0.078,0.206-0.121,0.326-0.121c0.062,0,0.123,0.011,0.181,0.034l9,3.5
		c0.194,0.075,0.319,0.258,0.319,0.466v5.5c0,0.186-0.102,0.355-0.266,0.442l-10,5.303C9.664,23.784,9.583,23.804,9.502,23.804z
		 M9.509,22.735l9.493-5.034v-4.857l-7.809-3.037l0.738,3.322l3.747,1.405c0.186,0.07,0.313,0.243,0.324,0.442
		c0.01,0.199-0.098,0.385-0.276,0.474l-7,3.5c-0.069,0.034-0.147,0.053-0.224,0.053c-0.093,0-0.184-0.026-0.263-0.075
		c-0.148-0.092-0.237-0.251-0.237-0.425V2.81l-3-1.5v18.898L9.509,22.735z"/>
</g>
</svg>
