<?xml version="1.0" encoding="utf-8"?>
<!-- Generator: Adobe Illustrator 22.1.0, SVG Export Plug-In . SVG Version: 6.00 Build 0)  -->
<svg version="1.1" id="Layer_1" xmlns="http://www.w3.org/2000/svg" xmlns:xlink="http://www.w3.org/1999/xlink" x="0px" y="0px"
	 viewBox="0 0 24 24" style="enable-background:new 0 0 24 24;" xml:space="preserve">
<g>
	<title>search-engine-bing</title>
	<path d="M12.752,22c-4.824,0-8.748-3.14-8.748-7V2.5c0-0.276,0.224-0.5,0.5-0.5s0.5,0.224,0.5,0.5v9.251
		C6.499,9.475,9.481,8,12.752,8c4.824,0,8.748,3.14,8.748,7S17.576,22,12.752,22z M12.752,9c-4.272,0-7.748,2.692-7.748,6
		s3.476,6,7.748,6c4.272,0,7.748-2.692,7.748-6S17.024,9,12.752,9z"/>
	<path d="M12.752,18.652c-2.481,0-4.5-1.638-4.5-3.652s2.019-3.652,4.5-3.652c2.481,0,4.5,1.638,4.5,3.652
		S15.233,18.652,12.752,18.652z M12.752,12.348c-1.93,0-3.5,1.189-3.5,2.652s1.57,2.652,3.5,2.652s3.5-1.19,3.5-2.652
		S14.682,12.348,12.752,12.348z"/>
</g>
</svg>
