<?xml version="1.0" encoding="utf-8"?>
<!-- Generator: Adobe Illustrator 22.1.0, SVG Export Plug-In . SVG Version: 6.00 Build 0)  -->
<svg version="1.1" id="Layer_1" xmlns="http://www.w3.org/2000/svg" xmlns:xlink="http://www.w3.org/1999/xlink" x="0px" y="0px"
	 viewBox="0 0 24 24" style="enable-background:new 0 0 24 24;" xml:space="preserve">
<g>
	<title>search-engine-google</title>
	<path d="M12.911,23.981c-2.999,0-5.631-0.706-7.611-2.041c-3.381-2.286-5.36-6.087-5.293-10.167
		C0.279,7.313,2.935,3.345,6.939,1.404c1.856-0.939,4.072-1.436,6.404-1.436c3.398,0,6.616,1.05,8.831,2.88
		c0.108,0.089,0.174,0.22,0.181,0.359c0.007,0.14-0.045,0.277-0.143,0.376l-2.249,2.293c-0.06,0.062-0.137,0.107-0.22,0.131
		l-1.456,0.414c-0.044,0.013-0.09,0.019-0.136,0.019c-0.153,0-0.296-0.069-0.391-0.189c-0.126-0.158-0.144-0.375-0.047-0.552
		l0.592-1.077c-0.948-0.899-2.097-1.587-3.336-1.994c-0.726-0.228-1.478-0.344-2.232-0.344c-1.176,0-2.358,0.29-3.416,0.839
		C5.815,5,3.943,9.03,4.772,12.924c0.688,4.47,4.291,7.921,8.765,8.407c0.385,0.036,0.78,0.055,1.169,0.055
		c0.986,0,1.974-0.118,2.937-0.352c0.121-0.04,0.298-0.098,0.376-0.135c-0.001-0.016-0.003-0.034-0.005-0.054
		c-0.007-0.089-0.015-0.192-0.015-0.313V16.98h-4.024c-0.211,0-0.4-0.134-0.471-0.332c-0.071-0.198-0.009-0.421,0.154-0.555l2.443-2
		c0.089-0.073,0.202-0.113,0.317-0.113h6.595c0.189,0,0.366,0.11,0.449,0.28c0.084,0.173,0.063,0.375-0.054,0.527l-1.406,1.807
		v4.919c0,0.19-0.105,0.361-0.275,0.446C19.181,23.244,15.968,23.981,12.911,23.981z M13.306,0.994
		c-2.186,0-4.234,0.452-5.924,1.307c-3.685,1.786-6.127,5.43-6.376,9.51c-0.06,3.723,1.754,7.204,4.854,9.3
		c1.768,1.192,4.425,1.876,7.29,1.876c2.721,0,5.432-0.617,7.851-1.784v-4.78c0-0.111,0.037-0.22,0.105-0.307l0.883-1.135h-5.394
		l-1.222,1h3.124c0.276,0,0.5,0.224,0.5,0.5v4.051c0,0.09,0.006,0.166,0.012,0.231c0.06,0.737-0.274,0.967-1.096,1.232
		c-1.069,0.26-2.143,0.39-3.211,0.39c-0.42,0-0.846-0.02-1.266-0.06c-4.93-0.534-8.895-4.326-9.647-9.221
		C2.872,8.799,4.954,4.326,8.855,2.24c1.204-0.625,2.545-0.954,3.881-0.954c0.857,0,1.711,0.132,2.538,0.392
		c1.517,0.498,2.902,1.365,4.009,2.508c0.154,0.159,0.186,0.396,0.079,0.589l-0.197,0.359l0.177-0.05l1.763-1.798
		C19.103,1.826,16.28,0.994,13.306,0.994z"/>
</g>
</svg>
