<?xml version="1.0" encoding="utf-8"?>
<!-- Generator: Adobe Illustrator 22.1.0, SVG Export Plug-In . SVG Version: 6.00 Build 0)  -->
<svg version="1.1" id="Layer_1" xmlns="http://www.w3.org/2000/svg" xmlns:xlink="http://www.w3.org/1999/xlink" x="0px" y="0px"
	 viewBox="0 0 24 24" style="enable-background:new 0 0 24 24;" xml:space="preserve">
<g>
	<title>search-engine-yahoo</title>
	<path d="M6.219,20c-0.142,0-0.278-0.061-0.373-0.167c-0.095-0.107-0.14-0.249-0.123-0.391l0.168-1.441
		c0.028-0.239,0.222-0.424,0.462-0.441C6.642,17.54,7.916,17.302,9,17.089v-3.26C8.351,12.986,4.559,8.088,3.356,7H0.5
		C0.224,7,0,6.776,0,6.5v-2C0,4.224,0.224,4,0.5,4h10C10.776,4,11,4.224,11,4.5v2C11,6.776,10.776,7,10.5,7H8.623
		c0.772,1.076,1.651,2.225,2.373,3.168c0.353,0.461,0.673,0.88,0.938,1.232L14.658,9h-1.129c-0.244,0-0.451-0.174-0.493-0.415
		l-0.345-2c-0.025-0.146,0.015-0.294,0.111-0.407C12.897,6.065,13.036,6,13.184,6h8.921c0.17,0,0.327,0.085,0.419,0.227
		c0.093,0.143,0.107,0.321,0.038,0.476l-0.888,2C21.594,8.883,21.415,9,21.217,9h-1.995L14,13.847v3.236l2.631,0.484
		c0.169,0.031,0.309,0.145,0.374,0.305c0.064,0.16,0.042,0.339-0.059,0.479l-1.041,1.441C15.812,19.923,15.66,20,15.5,20H6.219z
		 M15.245,19l0.428-0.592l-2.263-0.416C13.173,17.948,13,17.741,13,17.5v-3.871c0-0.138,0.058-0.272,0.159-0.366l5.526-5.129
		C18.779,8.047,18.9,8,19.026,8h1.866l0.444-1h-7.558l0.172,1h2.033c0.207,0,0.395,0.13,0.468,0.324
		c0.073,0.193,0.018,0.415-0.137,0.551l-4.129,3.635c-0.092,0.08-0.209,0.125-0.331,0.125c-0.017,0-0.035-0.001-0.053-0.003
		c-0.142-0.016-0.269-0.09-0.351-0.204c-0.297-0.41-0.737-0.986-1.248-1.652c-0.918-1.199-2.06-2.691-2.953-3.993
		c-0.105-0.154-0.117-0.351-0.03-0.516C7.305,6.102,7.474,6,7.66,6H10V5H1v1h2.539C3.65,6,3.76,6.038,3.847,6.106
		c1.219,0.953,5.853,6.992,6.05,7.248C9.964,13.442,10,13.55,10,13.659V17.5c0,0.237-0.169,0.444-0.402,0.49
		c-0.02,0.004-1.855,0.371-2.76,0.513L6.781,19H15.245z"/>
	<path d="M21.862,17.499l-1.383-0.112c-0.258-0.021-0.459-0.24-0.459-0.499V10.5c0-0.15,0.066-0.29,0.181-0.385
		C20.29,10.041,20.403,10,20.519,10c0.031,0,0.063,0.003,0.094,0.009c0.294,0.056,2.669,0.283,2.905,0.291
		c0.153,0.006,0.292,0.079,0.382,0.201c0.091,0.122,0.121,0.276,0.083,0.423l-1.6,6.2C22.327,17.346,22.128,17.5,21.9,17.5
		C21.895,17.5,21.868,17.499,21.862,17.499z M21.521,16.468l1.346-5.217c-0.551-0.05-1.32-0.125-1.848-0.184v5.36L21.521,16.468z"/>
	<path d="M21.451,19.999l-0.866-0.069c-0.261-0.021-0.458-0.234-0.46-0.496l-0.005-0.902c-0.001-0.14,0.058-0.276,0.161-0.371
		c0.093-0.085,0.213-0.132,0.338-0.132c0.008,0,0.037,0.001,0.045,0.002l0.999,0.088c0.137,0.012,0.264,0.081,0.349,0.188
		c0.085,0.107,0.122,0.247,0.102,0.383l-0.131,0.883C21.948,19.817,21.735,20,21.489,20C21.484,20,21.457,19.999,21.451,19.999z"/>
</g>
</svg>
