<?xml version="1.0" encoding="utf-8"?>
<!-- Generator: Adobe Illustrator 22.1.0, SVG Export Plug-In . SVG Version: 6.00 Build 0)  -->
<svg version="1.1" id="Light" xmlns="http://www.w3.org/2000/svg" xmlns:xlink="http://www.w3.org/1999/xlink" x="0px" y="0px"
	 viewBox="0 0 24 24" style="enable-background:new 0 0 24 24;" xml:space="preserve">
<g>
	<title>lion-footprint</title>
	<path d="M19.722,23.915c-0.069,0-0.139-0.004-0.209-0.01c-0.001,0-0.002,0-0.003,0c-0.773,0-1.33-0.418-1.778-0.754
		c-0.398-0.299-0.741-0.557-1.231-0.557c-0.489,0-0.832,0.258-1.23,0.556c-0.448,0.336-1.003,0.753-1.819,0.757
		c-0.052,0.005-0.11,0.008-0.17,0.008c-0.067,0-0.137-0.003-0.207-0.01c-0.559-0.055-1.062-0.325-1.418-0.759
		c-0.355-0.434-0.521-0.98-0.466-1.538c-0.003-1.319,0.96-1.886,1.597-2.261c0.279-0.164,0.567-0.334,0.614-0.473
		c0.441-1.322,0.99-2.967,3.099-2.967c2.112,0,2.66,1.645,3.099,2.967c0.046,0.136,0.332,0.305,0.61,0.468
		c0.638,0.376,1.598,0.941,1.604,2.301c0.011,0.114,0.01,0.248-0.003,0.379C21.703,23.102,20.805,23.915,19.722,23.915
		L19.722,23.915z M16.5,16.907c-1.389,0-1.708,0.957-2.15,2.281c-0.166,0.497-0.618,0.763-1.055,1.021
		c-0.594,0.35-1.107,0.653-1.107,1.449c-0.031,0.337,0.053,0.625,0.241,0.855c0.186,0.227,0.45,0.368,0.742,0.397
		c0.037,0.004,0.073,0.006,0.109,0.006s0.072-0.002,0.108-0.006c0.008-0.001,0.017-0.001,0.025-0.001
		c0.513-0.001,0.857-0.259,1.255-0.557c0.45-0.338,1.009-0.757,1.832-0.757c0.823,0,1.383,0.42,1.832,0.757
		c0.398,0.298,0.741,0.556,1.23,0.556c0.064,0.005,0.103,0.007,0.142,0.007c0.577,0,1.055-0.426,1.112-0.99
		c0.007-0.072,0.007-0.145,0-0.219c-0.002-0.846-0.517-1.149-1.113-1.5c-0.437-0.258-0.887-0.523-1.052-1.014
		C18.21,17.865,17.891,16.907,16.5,16.907z"/>
	<path d="M14.313,15.594c-1,0-1.813-1.009-1.813-2.25s0.813-2.25,1.813-2.25s1.813,1.009,1.813,2.25S15.313,15.594,14.313,15.594z
		 M14.313,12.094c-0.441,0-0.813,0.572-0.813,1.25c0,0.677,0.372,1.25,0.813,1.25c0.441,0,0.813-0.573,0.813-1.25
		C15.126,12.667,14.754,12.094,14.313,12.094z"/>
	<path d="M10.813,19.532c-1,0-1.813-1.009-1.813-2.25s0.813-2.25,1.813-2.25s1.813,1.009,1.813,2.25S11.813,19.532,10.813,19.532z
		 M10.813,16.032c-0.441,0-0.813,0.573-0.813,1.25s0.372,1.25,0.813,1.25s0.813-0.573,0.813-1.25S11.254,16.032,10.813,16.032z"/>
	<path d="M18.688,15.594c-1,0-1.813-1.009-1.813-2.25s0.813-2.25,1.813-2.25s1.813,1.009,1.813,2.25S19.688,15.594,18.688,15.594z
		 M18.688,12.094c-0.441,0-0.813,0.572-0.813,1.25c0,0.677,0.372,1.25,0.813,1.25c0.441,0,0.813-0.573,0.813-1.25
		C19.501,12.667,19.129,12.094,18.688,12.094z"/>
	<path d="M22.188,19.532c-1,0-1.813-1.009-1.813-2.25s0.813-2.25,1.813-2.25s1.813,1.009,1.813,2.25S23.188,19.532,22.188,19.532z
		 M22.188,16.032c-0.441,0-0.813,0.573-0.813,1.25s0.372,1.25,0.813,1.25c0.441,0,0.813-0.573,0.813-1.25
		S22.629,16.032,22.188,16.032z"/>
	<path d="M6.854,12.41c-1.31,0-2.458-0.873-2.826-2.136c-1.179-0.74-1.935-2.002-2.027-3.397C2,6.855,2,6.833,2.001,6.811
		c0.176-2.474,2.258-4.411,4.74-4.411c0.086,0,0.172,0.002,0.259,0.007c0.087-0.005,0.173-0.007,0.259-0.007
		c2.482,0,4.563,1.937,4.74,4.409c0.001,0.024,0.002,0.046,0,0.068c-0.093,1.395-0.848,2.657-2.027,3.397
		c-0.368,1.263-1.525,2.136-2.849,2.136c-0.049,0-0.098-0.001-0.147-0.004C6.952,12.409,6.903,12.41,6.854,12.41z M3.002,6.845
		c0.086,1.122,0.722,2.119,1.705,2.669c0.126,0.07,0.215,0.191,0.245,0.333c0.195,0.921,0.986,1.564,1.923,1.564
		c0.034,0,0.068-0.001,0.101-0.002c0.058,0.002,0.092,0.002,0.125,0.002c0.952,0,1.754-0.643,1.948-1.563
		c0.03-0.141,0.119-0.263,0.245-0.333c0.983-0.55,1.619-1.547,1.705-2.669C10.843,4.911,9.205,3.399,7.26,3.399
		c-0.076,0-0.153,0.002-0.229,0.007C7.026,3.407,7.005,3.407,7,3.407L6.967,3.406C6.89,3.401,6.812,3.399,6.735,3.399
		C4.793,3.399,3.157,4.911,3.002,6.845z"/>
	<path d="M6.5,9.907c-0.276,0-0.5-0.224-0.5-0.5s0.224-0.5,0.5-0.5h1c0.276,0,0.5,0.224,0.5,0.5s-0.224,0.5-0.5,0.5H6.5z"/>
	<circle cx="4.75" cy="6.657" r="0.75"/>
	<circle cx="9.25" cy="6.657" r="0.75"/>
	<path d="M7,14.907c-1.8,0-7-3.143-7-8c0-2.362,1.221-4.842,2.97-6.031c0.765-0.52,1.594-0.783,2.464-0.783
		c0.515,0,1.042,0.094,1.566,0.28c0.524-0.186,1.05-0.28,1.566-0.28c0.871,0,1.7,0.264,2.464,0.783C12.779,2.065,14,4.545,14,6.907
		C14,11.765,8.8,14.907,7,14.907z M5.439,1.096c-0.672,0-1.313,0.205-1.907,0.608C2.065,2.701,1,4.889,1,6.907c0,4.173,4.504,7,6,7
		s6-2.827,6-7c0-2.018-1.065-4.206-2.532-5.203C9.875,1.3,9.233,1.096,8.561,1.096c-0.45,0-0.914,0.093-1.377,0.276
		C7.125,1.395,7.063,1.407,7,1.407S6.875,1.395,6.816,1.372C6.353,1.189,5.889,1.096,5.439,1.096z"/>
</g>
</svg>
