<?xml version="1.0" encoding="utf-8"?>
<!-- Generator: Adobe Illustrator 22.1.0, SVG Export Plug-In . SVG Version: 6.00 Build 0)  -->
<svg version="1.1" id="Light" xmlns="http://www.w3.org/2000/svg" xmlns:xlink="http://www.w3.org/1999/xlink" x="0px" y="0px"
	 viewBox="0 0 24 24" style="enable-background:new 0 0 24 24;" xml:space="preserve">
<g>
	<title>puma</title>
	<path d="M4.231,6.77c-0.413,0-0.75-0.336-0.75-0.75c0-0.004,0-0.008,0-0.012C3.487,5.601,3.82,5.269,4.229,5.267
		c0.411,0.002,0.743,0.33,0.752,0.735c0,0.005,0,0.027,0,0.032C4.973,6.44,4.641,6.769,4.235,6.77C4.234,6.77,4.232,6.77,4.231,6.77
		z"/>
	<path d="M20.752,22.229c-0.771-0.004-1.409-0.585-1.487-1.35l-0.327-3.168c-1.102-0.196-2.116-0.753-2.874-1.582
		c-0.754-0.645-1.211-1.532-1.296-2.509c-0.742-0.583-1.663-0.904-2.604-0.904c-0.174,0-0.35,0.011-0.523,0.033
		c-0.351,0.274-0.828,0.413-1.419,0.413c-0.45,0-0.977-0.081-1.567-0.24c-0.544-0.147-1.045-0.334-1.388-0.475l-0.086,0.259
		c-0.201,0.614-0.77,1.027-1.416,1.027c-0.045,0-0.09-0.002-0.135-0.006c-1.174-0.107-1.839-0.369-2.094-0.825
		c-0.145-0.259-0.146-0.562-0.002-0.854c0.064-0.128,0.133-0.296,0.206-0.474c0.145-0.352,0.327-0.796,0.592-1.226
		c-0.551,0.083-1.087,0.127-1.553,0.127c-0.66,0-1.168-0.087-1.508-0.258C0.064,9.608,0.002,7.238,0.002,6.769
		c0-0.215,0.137-0.406,0.341-0.474l1.17-0.392c0.117-1.184,0.765-2.508,2.253-2.625L5.12,1.917c0.094-0.095,0.219-0.148,0.352-0.148
		c0.018,0,0.037,0.001,0.056,0.003c0.147,0.015,0.281,0.095,0.364,0.221l0.861,1.3c1.739,0.172,3.397,0.69,4.93,1.539
		c3.403,1.678,6.563,3.841,9.382,6.424c0.888-0.094,1.613-0.727,1.822-1.602c0.438-2.189-0.386-3.549-1.858-5.032
		c-0.094-0.095-0.146-0.221-0.145-0.354c0-0.134,0.053-0.259,0.148-0.353c0.093-0.093,0.218-0.145,0.352-0.145
		c0.134,0,0.26,0.052,0.355,0.148c1.656,1.668,2.651,3.318,2.124,5.95c-0.264,1.109-1.095,1.971-2.161,2.279
		c0.606,1.396,0.828,4.231,0.678,8.64c-0.026,0.809-0.681,1.443-1.491,1.443H20.752z M15.418,11.769
		c0.053,0,0.106,0.008,0.156,0.025c0.262,0.086,0.405,0.37,0.319,0.631c-0.353,1.072-0.023,2.234,0.841,2.961
		c0.018,0.015,0.035,0.032,0.051,0.05c0.688,0.763,1.633,1.238,2.658,1.336c0.236,0.022,0.425,0.21,0.45,0.446l0.368,3.561
		c0.026,0.256,0.238,0.45,0.494,0.451h0.132c0.27,0,0.486-0.209,0.495-0.476c0.221-6.545-0.437-8.217-0.849-8.631
		c-2.773-2.568-5.909-4.725-9.314-6.404c-1.497-0.829-3.105-1.315-4.791-1.45C6.274,4.256,6.137,4.174,6.051,4.045L5.396,3.057
		L4.337,4.122C4.244,4.216,4.115,4.269,3.982,4.269c-1.471,0-1.488,1.918-1.488,2c0,0.215-0.137,0.406-0.341,0.474L1.014,7.125
		c0.058,0.972,0.309,1.997,0.707,2.198c0.2,0.101,0.577,0.156,1.06,0.156c0.907,0,2.127-0.191,2.972-0.464
		C5.91,8.94,6.059,8.883,6.206,8.84l0.038-0.017c0.067-0.033,0.139-0.05,0.215-0.05c0.013,0,0.026,0,0.039,0.001
		C6.733,8.729,6.98,8.706,7.234,8.706c0.257,0,0.53,0.024,0.809,0.071C8.315,8.822,8.499,9.08,8.454,9.352
		C8.413,9.594,8.206,9.77,7.962,9.77c-0.028,0-0.056-0.002-0.084-0.007C7.646,9.724,7.424,9.704,7.219,9.704
		c-0.246,0-0.477,0.028-0.687,0.084C6.421,9.836,6.299,9.883,6.169,9.926c-0.835,0.402-1.205,1.301-1.502,2.025
		c-0.073,0.177-0.141,0.344-0.213,0.493c0.107,0.064,0.43,0.21,1.267,0.286c0.015,0.001,0.03,0.002,0.045,0.002
		c0.212,0,0.4-0.136,0.466-0.34l0.258-0.781c0.045-0.136,0.147-0.247,0.279-0.303c0.062-0.026,0.128-0.04,0.195-0.04
		c0.075,0,0.15,0.017,0.217,0.049c0.608,0.292,2.03,0.846,3.056,0.846c0.399,0,0.685-0.083,0.848-0.248
		c0.692-0.695-0.055-1.86-0.063-1.872c-0.152-0.229-0.089-0.54,0.141-0.692c0.082-0.055,0.178-0.083,0.276-0.083
		c0.168,0,0.324,0.084,0.417,0.224c0.295,0.444,0.674,1.356,0.452,2.223c0.901,0.025,1.77,0.279,2.539,0.743
		c0.026-0.118,0.058-0.234,0.095-0.346C15.011,11.908,15.202,11.769,15.418,11.769z"/>
</g>
</svg>
