<?xml version="1.0" encoding="utf-8"?>
<!-- Generator: Adobe Illustrator 22.1.0, SVG Export Plug-In . SVG Version: 6.00 Build 0)  -->
<svg version="1.1" id="Light" xmlns="http://www.w3.org/2000/svg" xmlns:xlink="http://www.w3.org/1999/xlink" x="0px" y="0px"
	 viewBox="0 0 24 24" style="enable-background:new 0 0 24 24;" xml:space="preserve">
<g>
	<title>tiger-head</title>
	<path d="M12.183,23.999c-0.089,0-0.176-0.024-0.252-0.068c-1.442-0.844-2.678-2.018-3.589-3.408
		C7.906,20.87,7.49,21.232,7.103,21.6c-0.276,0.275-0.65,0.429-1.048,0.429c-0.403,0-0.781-0.157-1.065-0.442
		c-0.157-0.158-0.279-0.352-0.352-0.562l-2.644-7.574c-0.002-0.007-0.007-0.02-0.009-0.028l-0.348-0.994
		c-0.329-0.963-0.051-2.019,0.708-2.693c0.239-0.209,0.48-0.414,0.723-0.616c0.041-0.049,0.09-0.09,0.145-0.119
		C7.156,5.766,11.844,3.406,16.78,2.17c0.148-0.451,0.513-1.285,1.297-1.781c0.409-0.259,0.874-0.39,1.384-0.39
		c0.268,0,0.552,0.037,0.843,0.109c1.087,0.272,1.867,1.157,2.038,2.312c0.161,1.086-0.255,2.598-1.903,3.582
		c-0.077,0.046-0.166,0.071-0.256,0.071l0,0c-0.175,0-0.34-0.093-0.429-0.243c-0.069-0.115-0.089-0.249-0.056-0.379
		c0.033-0.13,0.114-0.239,0.229-0.307c1.224-0.732,1.54-1.811,1.427-2.578c-0.11-0.746-0.605-1.316-1.291-1.488
		C19.853,1.027,19.652,1,19.465,1c-0.32,0-0.606,0.078-0.851,0.232c-0.714,0.449-0.933,1.415-0.942,1.456
		c-0.039,0.187-0.185,0.338-0.372,0.383C12.633,4.197,8.175,6.364,4.383,9.347l1.614,0.803c2.127-1.426,5.117-3.255,7.529-4.056
		c0.051-0.017,0.104-0.026,0.157-0.026c0.215,0,0.406,0.138,0.474,0.342C14.2,6.539,14.19,6.674,14.13,6.794
		c-0.06,0.119-0.163,0.208-0.29,0.25c-3.835,1.272-9.37,5.362-10.779,6.431l1.332,3.815c1.421-0.967,4.986-3.318,6.669-3.737
		c0.31-0.077,0.6-0.116,0.862-0.116c0.461,0,0.849,0.12,1.151,0.356c0.591,0.462,0.608,1.166,0.608,1.245c0,0.276-0.224,0.5-0.5,0.5
		s-0.5-0.224-0.5-0.5l0,0c0,0-0.015-0.296-0.227-0.459c-0.122-0.094-0.302-0.142-0.537-0.142c-0.18,0-0.387,0.029-0.616,0.086
		c-0.167,0.042-0.37,0.111-0.606,0.208c0.044,1.016,0.153,2.038,0.324,3.046c0.197-0.094,0.383-0.182,0.46-0.216
		c1.231-0.544,2.399-0.82,3.473-0.82c1.645,0,2.704,0.653,3.211,1.068c0.402-0.453,0.755-0.952,1.053-1.488l-1.312-0.871
		c-0.111-0.074-0.187-0.187-0.214-0.317c-0.026-0.131,0-0.264,0.074-0.376c0.093-0.14,0.249-0.224,0.417-0.224
		c0.099,0,0.194,0.029,0.277,0.084l1.194,0.792c0.326-0.798,0.526-1.632,0.595-2.484l-1.224-0.406
		c-0.261-0.087-0.404-0.371-0.317-0.632c0.068-0.205,0.259-0.343,0.475-0.343c0.054,0,0.107,0.009,0.158,0.026l0.926,0.307
		c-0.039-0.909-0.224-1.796-0.55-2.641c-0.099-0.257,0.029-0.547,0.286-0.647c0.058-0.022,0.118-0.033,0.18-0.033
		c0.206,0,0.393,0.128,0.467,0.32c0.927,2.402,0.815,5.113-0.308,7.443c-0.01,0.032-0.025,0.072-0.052,0.113
		c-0.003,0.004-0.006,0.009-0.01,0.014c-0.454,0.907-1.04,1.723-1.742,2.426c-0.093,0.093-0.221,0.146-0.354,0.146
		c-0.009,0-0.032-0.001-0.041-0.002c-0.127-0.006-0.26-0.074-0.349-0.185c-0.035-0.043-0.911-1.089-2.84-1.089
		c-0.935,0-1.967,0.247-3.068,0.734c-0.104,0.046-0.411,0.193-0.668,0.316c0.331,1.553,0.811,3.069,1.426,4.51
		c0.085,0.198,0.033,0.428-0.129,0.571C12.422,23.955,12.305,23.999,12.183,23.999z M7.733,16.323
		c0.411,2.315,1.6,4.352,3.389,5.828c-0.408-1.161-0.735-2.361-0.973-3.578C9.934,17.47,9.79,16.334,9.723,15.19
		C9.154,15.483,8.487,15.863,7.733,16.323z M5.581,20.695c0.024,0.069,0.065,0.134,0.118,0.187c0.094,0.094,0.219,0.146,0.354,0.146
		c0.133,0,0.259-0.052,0.353-0.145c0.448-0.427,0.926-0.839,1.425-1.23c-0.459-0.87-0.796-1.797-1.004-2.765
		c-0.899,0.572-1.677,1.097-2.092,1.381L5.581,20.695z M3.53,10.039c-0.176,0.147-0.351,0.296-0.523,0.447
		c-0.455,0.404-0.623,1.039-0.425,1.616l0.133,0.38c0.519-0.391,1.336-0.993,2.335-1.687L3.53,10.039z"/>
	<path d="M12.432,10.056c-0.411,0-0.747-0.334-0.749-0.746c0-0.001,0-0.004,0-0.004c0.002-0.413,0.338-0.748,0.75-0.748
		c0.411,0,0.748,0.335,0.75,0.746c0,0.415-0.336,0.751-0.748,0.752H12.432z"/>
</g>
</svg>
