<?xml version="1.0" encoding="utf-8"?>
<!-- Generator: Adobe Illustrator 22.1.0, SVG Export Plug-In . SVG Version: 6.00 Build 0)  -->
<svg version="1.1" id="Light" xmlns="http://www.w3.org/2000/svg" xmlns:xlink="http://www.w3.org/1999/xlink" x="0px" y="0px"
	 viewBox="0 0 24 24" style="enable-background:new 0 0 24 24;" xml:space="preserve">
<g>
	<title>tiger-bengal</title>
	<path d="M12.003,22.5c-1.36,0-2.296-0.363-2.783-1.079c-0.375-0.55-0.38-1.169-0.32-1.588c-0.545-0.203-1.008-0.575-1.319-1.065
		c-0.147-0.233-0.078-0.542,0.155-0.69C7.816,18.027,7.909,18,8.003,18c0.172,0,0.33,0.087,0.423,0.233
		c0.237,0.374,0.616,0.64,1.044,0.735c0.015-0.001,0.03-0.002,0.045-0.002c0.059,0,0.116,0.01,0.17,0.031c0,0,0,0,0,0
		c0.057,0.005,0.114,0.009,0.171,0.009c0.035,0,0.071-0.001,0.107-0.004C9.97,19.001,9.994,19,10.001,19
		c0.016,0,0.031,0.001,0.047,0.002c0.048,0.005,0.092,0.007,0.136,0.007c0.309,0,0.601-0.105,0.842-0.303
		c0.266-0.218,0.434-0.526,0.475-0.867c-0.009-0.133-0.008-0.262,0.004-0.385l-0.001-0.47c-0.788-0.096-1.495-0.539-1.923-1.215
		c-0.062-0.098-0.088-0.215-0.074-0.33c0.381-3.052,0.47-4.343,0.49-4.769c-0.226-0.247-0.845-0.772-2.007-0.772
		c-0.281,0-0.581,0.031-0.889,0.093C7.068,9.997,7.036,10,7.003,10c-0.238,0-0.444-0.169-0.49-0.402
		C6.459,9.328,6.635,9.064,6.905,9.01C7.28,8.935,7.646,8.897,7.994,8.897c2.021,0,2.89,1.272,2.926,1.326
		c0.055,0.082,0.084,0.178,0.084,0.277c0,0.041-0.005,1.043-0.48,4.871c0.314,0.4,0.795,0.637,1.303,0.637
		c0.045,0,0.091-0.002,0.136-0.006c0.006,0,0.035-0.001,0.04-0.001c0.007,0,0.039,0.001,0.043,0.002
		c0.043,0.004,0.089,0.006,0.135,0.006c0.508,0,0.988-0.236,1.302-0.637c-0.475-3.828-0.48-4.829-0.48-4.871
		c0-0.099,0.029-0.195,0.084-0.277c0.036-0.054,0.907-1.326,2.926-1.326c0.347,0,0.714,0.038,1.088,0.113
		c0.27,0.054,0.446,0.318,0.392,0.588C17.447,9.831,17.24,10,17.002,10c-0.032,0-0.064-0.003-0.096-0.009
		c-0.306-0.061-0.601-0.092-0.88-0.092c-1.162,0-1.787,0.525-2.017,0.772c0.021,0.43,0.11,1.73,0.49,4.768
		c0.014,0.114-0.011,0.231-0.073,0.329c-0.428,0.676-1.135,1.119-1.923,1.216v0.504c0.01,0.103,0.01,0.224,0.001,0.351
		c0.042,0.342,0.21,0.649,0.475,0.867c0.241,0.198,0.533,0.303,0.842,0.303c0.044,0,0.088-0.002,0.133-0.007
		C13.974,19.001,13.99,19,14.005,19c0.007,0,0.032,0.001,0.039,0.002c0.035,0.003,0.071,0.004,0.106,0.004
		c0.059,0,0.117-0.003,0.174-0.009c0,0,0,0,0,0c0.05-0.02,0.107-0.03,0.167-0.03c0.015,0,0.03,0,0.045,0.002
		c0.428-0.095,0.807-0.361,1.045-0.736C15.673,18.087,15.831,18,16.003,18c0.095,0,0.188,0.027,0.268,0.078
		c0.232,0.147,0.302,0.457,0.154,0.69c-0.311,0.49-0.774,0.863-1.319,1.065c0.06,0.419,0.055,1.038-0.32,1.588
		C14.3,22.137,13.363,22.5,12.003,22.5z M9.886,20.006c-0.032,0.249-0.024,0.583,0.162,0.855c0.291,0.424,0.948,0.639,1.955,0.639
		c1.007,0,1.665-0.215,1.955-0.639c0.186-0.272,0.194-0.606,0.162-0.855c-0.037,0-0.075-0.002-0.113-0.004
		c-0.062,0.005-0.124,0.007-0.186,0.007c-0.544,0-1.055-0.184-1.477-0.531c-0.126-0.104-0.241-0.22-0.342-0.347
		c-0.101,0.127-0.215,0.243-0.342,0.347c-0.422,0.347-0.933,0.531-1.477,0.531c-0.062,0-0.124-0.002-0.186-0.007
		C9.962,20.004,9.924,20.005,9.886,20.006z"/>
	<circle cx="8.253" cy="11.75" r="0.75"/>
	<circle cx="15.753" cy="11.75" r="0.75"/>
	<path d="M16.503,22.5c-0.222,0-0.42-0.149-0.481-0.363c-0.075-0.265,0.079-0.542,0.344-0.618l0.081-0.023
		c2.324-0.688,4.135-2.417,4.944-4.682c-0.411,0.192-0.843,0.335-1.288,0.426c-0.034,0.007-0.067,0.01-0.1,0.01
		c-0.236,0-0.442-0.168-0.49-0.4c-0.027-0.13-0.001-0.264,0.072-0.375c0.074-0.112,0.187-0.188,0.317-0.214
		c0.656-0.134,1.288-0.412,1.836-0.806c0.096-0.604,0.119-1.213,0.066-1.819c-0.821,0.541-1.749,0.921-2.708,1.106
		c-0.031,0.006-0.063,0.009-0.095,0.009c-0.239,0-0.446-0.171-0.491-0.406c-0.025-0.13,0.002-0.263,0.077-0.374
		s0.188-0.186,0.32-0.211c0.982-0.19,1.918-0.612,2.718-1.225c-0.033-0.143-0.067-0.272-0.103-0.393
		c-0.227-0.907-0.459-1.758-0.664-2.51c-0.167-0.615-0.34-1.247-0.467-1.767C20.106,7.955,19.808,8,19.503,8
		c-0.276,0-0.5-0.224-0.5-0.5s0.224-0.5,0.5-0.5c1.103,0,2-0.897,2-2s-0.897-2-2-2s-2,0.897-2,2c0,0.276-0.224,0.5-0.5,0.5
		s-0.5-0.224-0.5-0.5c0-0.409,0.085-0.816,0.248-1.191c-1.295-0.751-2.754-1.193-4.248-1.285v1.735
		c2.066,0.064,2.709,0.514,2.82,0.607c0.103,0.085,0.166,0.205,0.178,0.339c0.012,0.133-0.028,0.263-0.114,0.365
		c-0.096,0.114-0.236,0.18-0.385,0.18c-0.11,0-0.218-0.037-0.305-0.104c-0.057-0.034-0.605-0.333-2.195-0.386V8
		c0,0.276-0.224,0.5-0.5,0.5c-0.276,0-0.5-0.224-0.5-0.5V5.259c-1.68,0.057-2.196,0.388-2.202,0.391
		C9.221,5.712,9.116,5.747,9.006,5.747c-0.154,0-0.297-0.069-0.392-0.188c-0.17-0.214-0.139-0.519,0.07-0.693
		c0.111-0.093,0.755-0.543,2.82-0.607V2.523C10.01,2.616,8.551,3.057,7.256,3.809C7.418,4.184,7.503,4.591,7.503,5
		c0,0.276-0.224,0.5-0.5,0.5s-0.5-0.224-0.5-0.5c0-1.103-0.897-2-2-2s-2,0.897-2,2s0.897,2,2,2c0.276,0,0.5,0.224,0.5,0.5
		S4.779,8,4.503,8C4.2,8,3.902,7.955,3.616,7.866C3.494,8.367,3.328,8.972,3.154,9.606c-0.207,0.757-0.442,1.616-0.666,2.514
		c-0.039,0.134-0.074,0.266-0.109,0.414c0.8,0.613,1.736,1.035,2.718,1.225c0.131,0.025,0.245,0.1,0.319,0.211
		c0.075,0.111,0.102,0.244,0.077,0.375C5.449,14.58,5.243,14.75,5.004,14.75c-0.032,0-0.064-0.003-0.096-0.01
		c-0.958-0.185-1.885-0.564-2.706-1.105c-0.052,0.606-0.029,1.215,0.067,1.819c0.547,0.394,1.179,0.672,1.835,0.806
		c0.27,0.055,0.445,0.32,0.39,0.59c-0.047,0.232-0.253,0.4-0.49,0.4c-0.033,0-0.066-0.003-0.1-0.01
		c-0.445-0.091-0.876-0.233-1.287-0.426c0.808,2.265,2.619,3.993,4.943,4.681l0.081,0.024c0.264,0.075,0.418,0.352,0.343,0.617
		C7.924,22.351,7.726,22.5,7.504,22.5c-0.047,0-0.093-0.007-0.138-0.019l-0.088-0.026c-2.181-0.646-3.981-2.105-5.069-4.109
		s-1.331-4.308-0.685-6.488c0.217-0.874,0.452-1.734,0.66-2.493C2.389,8.613,2.58,7.917,2.7,7.395C1.948,6.828,1.503,5.945,1.503,5
		c0-1.654,1.346-3,3-3C5.348,2,6.14,2.351,6.708,2.97c1.609-0.945,3.434-1.452,5.29-1.47c0.001,0,0.019,0,0.028,0.001
		c1.839,0.017,3.664,0.525,5.272,1.469C17.867,2.351,18.659,2,19.503,2c1.654,0,3,1.346,3,3c0,0.945-0.444,1.827-1.195,2.394
		c0.122,0.528,0.314,1.233,0.516,1.975c0.206,0.755,0.439,1.61,0.663,2.51c0.642,2.165,0.398,4.466-0.69,6.468
		c-1.088,2.003-2.888,3.462-5.068,4.108l-0.089,0.026C16.597,22.493,16.551,22.5,16.503,22.5z"/>
</g>
</svg>
