<?xml version="1.0" encoding="utf-8"?>
<!-- Generator: Adobe Illustrator 22.1.0, SVG Export Plug-In . SVG Version: 6.00 Build 0)  -->
<svg version="1.1" id="Light" xmlns="http://www.w3.org/2000/svg" xmlns:xlink="http://www.w3.org/1999/xlink" x="0px" y="0px"
	 viewBox="0 0 24 24" style="enable-background:new 0 0 24 24;" xml:space="preserve">
<g>
	<title>tiger</title>
	<path d="M8.277,11.254c-0.415-0.002-0.75-0.34-0.749-0.754c-0.001-0.413,0.333-0.75,0.747-0.752c0,0,0.001,0,0.001,0
		c0.016,0,0.031,0.001,0.047,0.004c0.383,0.023,0.692,0.337,0.705,0.724c0.001,0.007,0.001,0.024,0.001,0.025
		c0,0.006,0,0.013-0.001,0.02c-0.005,0.193-0.082,0.373-0.217,0.508c-0.123,0.124-0.287,0.201-0.464,0.217
		c-0.017,0.004-0.04,0.008-0.069,0.008H8.277z"/>
	<path d="M15.725,11.254c-0.202-0.001-0.39-0.08-0.531-0.222c-0.141-0.142-0.219-0.332-0.218-0.533
		c-0.001-0.198,0.076-0.387,0.218-0.53c0.141-0.142,0.329-0.221,0.529-0.222c0,0,0.001,0,0.001,0c0.016,0,0.031,0.001,0.046,0.004
		c0.384,0.023,0.693,0.339,0.705,0.726c0,0.007,0,0.036,0,0.042c-0.011,0.377-0.305,0.689-0.679,0.725
		c-0.017,0.004-0.041,0.009-0.07,0.009H15.725z"/>
	<path d="M12.002,23.992c-1.052,0-2.041-0.404-2.784-1.138c-0.095-0.094-0.148-0.219-0.149-0.352s0.05-0.26,0.144-0.354
		c0.095-0.096,0.221-0.149,0.356-0.149c0.133,0,0.257,0.051,0.352,0.145c0.554,0.548,1.293,0.849,2.08,0.849
		s1.526-0.302,2.081-0.849c0.094-0.093,0.219-0.145,0.351-0.145c0.135,0,0.261,0.053,0.356,0.148
		c0.094,0.095,0.145,0.221,0.145,0.354s-0.053,0.259-0.148,0.353C14.043,23.588,13.054,23.992,12.002,23.992z"/>
	<path d="M11.998,18.485c-1.371,0-2.486-1.115-2.486-2.486c0-0.033,0.003-0.067,0.01-0.099l0.5-2.499
		c0.046-0.233,0.252-0.402,0.488-0.402c0.034,0,0.069,0.004,0.102,0.011c0.268,0.054,0.444,0.318,0.39,0.588l-0.49,2.448
		c0.025,0.796,0.686,1.44,1.485,1.44s1.461-0.644,1.485-1.44l-0.49-2.448c-0.054-0.27,0.122-0.534,0.392-0.588
		c0.033-0.007,0.067-0.01,0.1-0.01c0.237,0,0.443,0.169,0.489,0.403l0.5,2.5c0.006,0.033,0.01,0.066,0.01,0.098
		C14.484,17.369,13.369,18.485,11.998,18.485z"/>
	<path d="M5.407,24.001c-1.365,0-2.666-0.52-3.661-1.463c-1.035-0.98-1.626-2.305-1.665-3.73c-0.003-0.109-0.003-0.218,0.001-0.326
		c0-0.08,0.004-0.163,0.008-0.245l0.002-0.037c-0.001-0.009-0.001-0.018-0.001-0.026c0-0.021,0.002-0.042,0.006-0.063
		c0.064-1.164,0.442-1.936,0.807-2.682c0.546-1.117,1.164-2.382,1.164-5.43c-0.013-0.617,0.034-1.242,0.14-1.856
		C0.862,7.21,0.021,5.641,0,4.005C-0.002,3.437,0.091,2.88,0.275,2.346c0.001-0.002,0.01-0.028,0.015-0.038
		c0.009-0.022,0.022-0.052,0.043-0.083c0.727-1.104,1.84-1.86,3.135-2.127c0.333-0.069,0.673-0.104,1.009-0.104
		c0.962,0,1.9,0.282,2.712,0.817c0.098,0.064,0.199,0.138,0.307,0.222C8.802,0.377,10.206,0.03,11.673,0
		c0.067-0.001,0.133-0.002,0.199-0.002l0.134,0.001l0.136-0.001c1.516,0,3.022,0.355,4.368,1.029c0.105-0.082,0.204-0.154,0.3-0.217
		c0.812-0.534,1.75-0.817,2.712-0.817c0.337,0,0.676,0.035,1.009,0.103c1.295,0.267,2.408,1.022,3.135,2.127
		c0.02,0.03,0.033,0.059,0.042,0.082c0.005,0.011,0.015,0.038,0.016,0.042c0.002,0.005,0.003,0.011,0.004,0.016
		C23.908,2.876,24.001,3.434,24,4c-0.021,1.639-0.862,3.209-2.206,4.142c0.087,0.511,0.135,1.025,0.142,1.53
		c0.001,0.112,0.001,0.225-0.001,0.337c0,2.396,0.393,3.655,0.735,4.485c0.144,0.349,0.296,0.66,0.43,0.934
		c0.363,0.742,0.738,1.509,0.807,2.68c0.004,0.023,0.006,0.043,0.006,0.064c0,0.008,0,0.017-0.001,0.027l0.001,0.026
		c0.005,0.089,0.009,0.178,0.009,0.274c0.048,1.41-0.462,2.766-1.436,3.807c-0.974,1.042-2.294,1.643-3.716,1.691
		C18.707,24,18.645,24,18.583,24c-0.047,0-0.094,0-0.14-0.002H16.47c-0.276,0-0.5-0.224-0.5-0.5s0.224-0.5,0.5-0.5h1.986
		C18.504,23,18.545,23,18.585,23c0.052,0,0.102-0.001,0.152-0.002c2.055-0.07,3.764-1.598,4.116-3.578
		c-0.564,0.376-1.226,0.579-1.914,0.579c-0.276,0-0.501-0.224-0.501-0.5s0.224-0.5,0.5-0.5c0.769,0,1.496-0.364,1.962-0.977
		c-0.078-0.884-0.366-1.474-0.699-2.155c-0.022-0.045-0.044-0.091-0.067-0.137c-0.655,0.801-1.631,1.268-2.686,1.268
		c-0.276,0-0.5-0.224-0.5-0.5s0.224-0.5,0.5-0.5c0.931,0,1.786-0.528,2.207-1.353c-0.321-0.838-0.72-2.218-0.72-4.647
		c0.002-0.111,0.002-0.212,0.001-0.313c-0.007-0.511-0.06-1.031-0.158-1.546c-0.039-0.079-0.056-0.164-0.05-0.252
		c-0.301-1.359-0.932-2.643-1.829-3.717c-0.015-0.013-0.033-0.03-0.049-0.053c-0.004-0.006-0.008-0.012-0.012-0.019
		c-0.181-0.212-0.372-0.416-0.568-0.606C17.711,2.949,17.082,2.48,16.398,2.1c-0.055-0.019-0.105-0.046-0.15-0.082
		c-1.256-0.667-2.676-1.02-4.107-1.02l-0.134,0.001l-0.128-0.001c-0.063,0-0.124,0.001-0.186,0.002
		C10.278,1.029,8.93,1.386,7.686,2.062C7.674,2.07,7.658,2.078,7.641,2.086c-2.235,1.231-3.826,3.356-4.37,5.836
		c0,0.074-0.014,0.142-0.043,0.205c-0.12,0.616-0.174,1.242-0.161,1.862c0,2.435-0.399,3.815-0.719,4.652
		c0.42,0.827,1.274,1.356,2.205,1.358c0.276,0,0.5,0.225,0.499,0.501c0,0.275-0.225,0.499-0.5,0.499
		c-1.055-0.001-2.03-0.469-2.684-1.27c-0.023,0.047-0.045,0.093-0.068,0.139c-0.333,0.681-0.622,1.273-0.699,2.157
		c0.467,0.612,1.193,0.974,1.961,0.974c0.276,0,0.501,0.224,0.501,0.5s-0.224,0.5-0.5,0.5c-0.69,0-1.353-0.203-1.918-0.581
		c0.159,0.913,0.605,1.748,1.287,2.394C3.243,22.579,4.299,23,5.409,23c0.041,0,0.083,0,0.124-0.002h2c0.276,0,0.5,0.224,0.5,0.5
		s-0.224,0.5-0.5,0.5H5.547C5.505,24,5.456,24.001,5.407,24.001z M1.119,3.026C1.039,3.349,0.999,3.675,1,3.998
		c0.015,1.184,0.553,2.31,1.455,3.077c0.327-1.127,0.847-2.173,1.551-3.117C3.126,3.437,2.137,3.118,1.119,3.026z M20,3.955
		c0.705,0.944,1.225,1.989,1.55,3.116c0.9-0.766,1.436-1.892,1.451-3.078c0.001-0.319-0.039-0.644-0.119-0.966
		C21.864,3.118,20.877,3.436,20,3.955z M1.734,2.091c1.028,0.163,2.024,0.535,2.916,1.088C5.21,2.569,5.844,2.034,6.54,1.582
		C5.915,1.197,5.205,0.994,4.477,0.994c-0.269,0-0.54,0.028-0.806,0.083C2.929,1.229,2.267,1.577,1.734,2.091z M17.468,1.577
		c0.539,0.351,1.042,0.753,1.5,1.199c0.125,0.122,0.253,0.254,0.386,0.4c0.891-0.551,1.885-0.922,2.912-1.085
		c-0.533-0.514-1.194-0.862-1.936-1.015c-0.266-0.055-0.537-0.083-0.806-0.083C18.798,0.994,18.09,1.195,17.468,1.577z"/>
	<path d="M13.987,20.986c-0.792,0-1.521-0.372-1.987-0.992c-0.465,0.62-1.195,0.991-1.986,0.991c-1.371,0-2.486-1.115-2.486-2.486
		c0-0.276,0.224-0.5,0.5-0.5s0.5,0.224,0.5,0.5c0,0.819,0.667,1.486,1.486,1.486c0.819,0,1.486-0.667,1.486-1.486
		c0-0.276,0.224-0.5,0.5-0.5c0.276,0,0.5,0.224,0.5,0.5c0,0.82,0.667,1.487,1.487,1.487s1.487-0.667,1.487-1.487
		c0-0.276,0.224-0.5,0.5-0.5c0.276,0,0.5,0.224,0.5,0.5C16.474,19.87,15.358,20.986,13.987,20.986z"/>
	<path d="M8.524,7.299c-0.19,0-0.361-0.105-0.447-0.275c-0.06-0.119-0.07-0.255-0.028-0.382c0.042-0.127,0.131-0.23,0.25-0.29
		c1.11-0.559,2.356-0.854,3.602-0.854l0.105,0.001l0.106-0.001c1.238,0,2.479,0.295,3.589,0.854c0.119,0.06,0.208,0.163,0.25,0.29
		c0.042,0.127,0.032,0.262-0.028,0.382c-0.086,0.17-0.257,0.275-0.447,0.275c-0.078,0-0.155-0.018-0.225-0.054
		c-0.971-0.489-2.061-0.747-3.152-0.747l-0.204,0c-1.088,0-2.176,0.258-3.147,0.747C8.679,7.28,8.602,7.299,8.524,7.299z"/>
	<path d="M15.477,4.489c-0.046,0-0.093-0.007-0.138-0.02c-1.087-0.311-2.21-0.468-3.338-0.468S9.75,4.159,8.663,4.469
		C8.619,4.482,8.572,4.489,8.526,4.489c-0.222,0-0.42-0.149-0.481-0.363C7.969,3.861,8.124,3.584,8.389,3.508
		c1.176-0.336,2.392-0.507,3.613-0.507c1.221,0,2.437,0.17,3.613,0.507c0.265,0.076,0.419,0.353,0.344,0.618
		C15.896,4.34,15.699,4.489,15.477,4.489z"/>
</g>
</svg>
