<?xml version="1.0" encoding="utf-8"?>
<!-- Generator: Adobe Illustrator 22.1.0, SVG Export Plug-In . SVG Version: 6.00 Build 0)  -->
<svg version="1.1" id="Light" xmlns="http://www.w3.org/2000/svg" xmlns:xlink="http://www.w3.org/1999/xlink" x="0px" y="0px"
	 viewBox="0 0 24 24" style="enable-background:new 0 0 24 24;" xml:space="preserve">
<g>
	<title>plant-2</title>
	<path d="M13.013,24c-0.068,0-0.134-0.013-0.196-0.04c-0.253-0.107-0.372-0.401-0.264-0.655c0.007-0.017,0.698-1.674,0.745-3.727
		c0.062-2.694-0.969-4.767-3.062-6.163C5.513,10.268,5.513,7.53,5.513,6.5c0-3.584,2.916-6.5,6.5-6.5c2.922,0,5.3,2.378,5.3,5.3
		c0,2.393-1.947,4.34-4.34,4.34c-1.97,0-3.573-1.602-3.573-3.572c0-1.631,1.328-2.958,2.959-2.958c0.276,0,0.5,0.224,0.5,0.5
		s-0.224,0.5-0.5,0.5c-1.08,0-1.958,0.878-1.959,1.958c0,1.418,1.154,2.572,2.572,2.572c1.842,0,3.341-1.498,3.341-3.34
		c0-2.371-1.929-4.3-4.3-4.3c-3.033,0-5.5,2.467-5.5,5.5c0,0.967,0,3.232,4.277,6.084c0.988,0.658,1.778,1.47,2.354,2.418
		c0.301-0.338,0.532-0.733,0.68-1.162c-0.509-0.249-0.837-0.761-0.837-1.34c0-0.827,0.673-1.5,1.5-1.5s1.5,0.673,1.5,1.5
		c0,0.697-0.484,1.294-1.152,1.453c-0.22,0.761-0.635,1.441-1.211,1.984c0.508,1.19,0.724,2.541,0.643,4.021
		c0.584-0.163,1.119-0.478,1.544-0.913c-0.209-0.263-0.326-0.59-0.326-0.926c0-0.827,0.673-1.5,1.5-1.5s1.5,0.673,1.5,1.5
		s-0.673,1.5-1.5,1.5c-0.102,0-0.204-0.012-0.31-0.036c-0.657,0.742-1.538,1.241-2.511,1.423c-0.226,1.579-0.687,2.68-0.692,2.691
		C13.395,23.88,13.214,24,13.013,24z M16.986,17.619c-0.276,0-0.5,0.224-0.5,0.5s0.224,0.5,0.5,0.5s0.5-0.224,0.5-0.5
		S17.262,17.619,16.986,17.619z M14.488,12c-0.276,0-0.5,0.224-0.5,0.5c0,0.276,0.224,0.5,0.5,0.5s0.5-0.224,0.5-0.5
		C14.988,12.224,14.764,12,14.488,12z"/>
</g>
</svg>
