<?xml version="1.0" encoding="utf-8"?>
<!-- Generator: Adobe Illustrator 22.1.0, SVG Export Plug-In . SVG Version: 6.00 Build 0)  -->
<svg version="1.1" id="Light" xmlns="http://www.w3.org/2000/svg" xmlns:xlink="http://www.w3.org/1999/xlink" x="0px" y="0px"
	 viewBox="0 0 24 24" style="enable-background:new 0 0 24 24;" xml:space="preserve">
<g>
	<title>plant-flowers</title>
	<path d="M1.5,24C0.673,24,0,23.327,0,22.5v-10C0,11.673,0.673,11,1.5,11h4.445C5.701,9.806,4.677,8.469,4.058,7.696
		C3.742,7.893,3.374,8,3,8C1.897,8,1,7.103,1,6s0.897-2,2-2s2,0.897,2,2c0,0.34-0.085,0.669-0.248,0.964
		C5.169,7.483,5.614,8.058,6,8.675V3.934C5.131,3.709,4.5,2.913,4.5,2c0-1.103,0.897-2,2-2s2,0.897,2,2
		c0,0.913-0.631,1.709-1.5,1.934v4.584c0.319-0.545,0.712-1.115,1.174-1.704C8.06,6.559,8,6.281,8,6c0-1.103,0.897-2,2-2
		s2,0.897,2,2s-0.897,2-2,2C9.572,8,9.161,7.864,8.82,7.613C8.08,8.58,7.253,9.867,7.049,11h10.903
		c-0.205-1.133-1.032-2.42-1.771-3.387C15.839,7.864,15.429,8,15,8c-1.103,0-2-0.897-2-2s0.897-2,2-2s2,0.897,2,2
		c0,0.281-0.06,0.559-0.174,0.815C17.288,7.404,17.681,7.974,18,8.519V3.934C17.131,3.709,16.5,2.913,16.5,2c0-1.103,0.897-2,2-2
		s2,0.897,2,2c0,0.913-0.631,1.709-1.5,1.934v4.744c0.428-0.683,0.912-1.295,1.249-1.713C20.086,6.671,20,6.34,20,6
		c0-1.103,0.897-2,2-2s2,0.897,2,2s-0.897,2-2,2c-0.373,0-0.74-0.106-1.056-0.303c-0.62,0.77-1.645,2.105-1.889,3.303H22.5
		c0.827,0,1.5,0.673,1.5,1.5v10c0,0.827-0.673,1.5-1.5,1.5H1.5z M22.5,23c0.276,0,0.5-0.224,0.5-0.5v-10c0-0.276-0.224-0.5-0.5-0.5
		h-1.501v11H22.5z M19.999,23v-3h-16v3H19.999z M1.5,12C1.224,12,1,12.224,1,12.5v10C1,22.776,1.224,23,1.5,23h1.499V12H1.5z
		 M19.999,19v-3h-16v3H19.999z M19.999,15v-3h-16v3H19.999z M22,5c-0.552,0-1,0.449-1,1s0.448,1,1,1s1-0.449,1-1S22.552,5,22,5z
		 M15,5c-0.552,0-1,0.449-1,1s0.448,1,1,1s1-0.449,1-1S15.552,5,15,5z M10,5C9.449,5,9,5.449,9,6s0.449,1,1,1s1-0.449,1-1
		S10.551,5,10,5z M3,5C2.449,5,2,5.449,2,6s0.449,1,1,1s1-0.449,1-1S3.551,5,3,5z M18.5,1c-0.552,0-1,0.449-1,1s0.448,1,1,1
		s1-0.449,1-1S19.052,1,18.5,1z M6.5,1c-0.551,0-1,0.449-1,1s0.449,1,1,1s1-0.449,1-1S7.051,1,6.5,1z"/>
</g>
</svg>
