<?xml version="1.0" encoding="utf-8"?>
<!-- Generator: Adobe Illustrator 22.1.0, SVG Export Plug-In . SVG Version: 6.00 Build 0)  -->
<svg version="1.1" id="Light" xmlns="http://www.w3.org/2000/svg" xmlns:xlink="http://www.w3.org/1999/xlink" x="0px" y="0px"
	 viewBox="0 0 24 24" style="enable-background:new 0 0 24 24;" xml:space="preserve">
<g>
	<title>plant-bonsai</title>
	<path d="M6.454,14.93c-2.567-0.199-4.523-2.371-4.454-4.944c0-3.222,2.492-4.803,5.033-4.971C7.167,3.796,7.912,0,12,0
		c4.084,0,4.832,3.791,4.967,5.012C20.124,5.177,22,7.028,22,10c0.075,2.493-1.819,4.653-4.312,4.911
		c-0.009,0.001-0.046,0.002-0.046,0.002c-0.26,0-0.476-0.193-0.503-0.448c-0.014-0.133,0.025-0.263,0.109-0.367
		c0.084-0.104,0.204-0.168,0.337-0.182c1.974-0.204,3.474-1.917,3.414-3.901C21,8.511,20.415,6,16.5,6c-0.275,0-0.5-0.224-0.5-0.499
		c0-0.011-0.012-1.179-0.524-2.308C14.816,1.738,13.647,1,12,1c-1.652,0-2.823,0.742-3.481,2.205C8.011,4.334,8,5.489,8,5.501
		C8,5.776,7.776,6,7.5,6C5.424,6,3,7.048,3,10c-0.055,2.051,1.496,3.775,3.531,3.933c0.275,0.021,0.481,0.262,0.46,0.537
		c-0.02,0.259-0.239,0.461-0.498,0.461C6.486,14.932,6.46,14.931,6.454,14.93z"/>
	<path d="M10.221,24c-0.647,0-1.219-0.412-1.423-1.026l-1.553-4.658c-0.084-0.253-0.065-0.525,0.054-0.764
		c0.12-0.239,0.325-0.417,0.579-0.501C7.98,17.017,8.086,17,8.194,17h3.056v-2.114c-2.261-0.251-4-2.169-4-4.467
		c0-0.276,0.224-0.5,0.5-0.5s0.5,0.224,0.5,0.5c0,1.744,1.298,3.215,3,3.46v-4.46c0-0.276,0.224-0.5,0.5-0.5s0.5,0.224,0.5,0.5v5.5
		c1.93,0,3.5-1.57,3.5-3.5c0-0.276,0.224-0.5,0.5-0.5c0.276,0,0.5,0.224,0.5,0.5c0,2.481-2.019,4.5-4.5,4.5V17h3.556
		c0.552,0,1,0.448,1,0.999c0,0.108-0.017,0.215-0.052,0.318l-1.553,4.657C14.998,23.588,14.426,24,13.779,24H10.221z M8.193,18
		l1.554,4.657C9.815,22.863,10.006,23,10.221,23h3.558c0.216,0,0.406-0.137,0.474-0.342L15.807,18C15.807,18,8.193,18,8.193,18z"/>
</g>
</svg>
