<?xml version="1.0" encoding="utf-8"?>
<!-- Generator: Adobe Illustrator 22.1.0, SVG Export Plug-In . SVG Version: 6.00 Build 0)  -->
<svg version="1.1" id="Light" xmlns="http://www.w3.org/2000/svg" xmlns:xlink="http://www.w3.org/1999/xlink" x="0px" y="0px"
	 viewBox="0 0 24 24" style="enable-background:new 0 0 24 24;" xml:space="preserve">
<g>
	<title>plant-bamboo</title>
	<path d="M7.75,21.5c-3.033,0-5.5-2.467-5.5-5.5c0-0.276,0.224-0.5,0.5-0.5c3.033,0,5.5,2.467,5.5,5.5
		C8.25,21.276,8.026,21.5,7.75,21.5z M3.281,16.531c0.242,2.068,1.87,3.696,3.938,3.938C6.977,18.401,5.349,16.773,3.281,16.531z"/>
	<path d="M14.75,13.5c-0.276,0-0.5-0.224-0.5-0.5c0-3.86,3.14-7,7-7c0.276,0,0.5,0.224,0.5,0.5C21.75,10.36,18.61,13.5,14.75,13.5z
		 M20.727,7.023c-2.879,0.252-5.203,2.576-5.455,5.455C18.152,12.226,20.476,9.902,20.727,7.023z"/>
	<path d="M8.25,24c-0.276,0-0.5-0.224-0.5-0.5S7.974,23,8.25,23h0.5v-7h-0.5c-0.276,0-0.5-0.224-0.5-0.5S7.974,15,8.25,15h0.5V7.5
		h-0.5c-0.276,0-0.5-0.224-0.5-0.5s0.224-0.5,0.5-0.5h0.5V1h-0.5c-0.276,0-0.5-0.224-0.5-0.5S7.974,0,8.25,0h5.5
		c0.276,0,0.5,0.224,0.5,0.5S14.026,1,13.75,1h-0.5v5.5h0.5c0.276,0,0.5,0.224,0.5,0.5s-0.224,0.5-0.5,0.5h-0.5V15h0.5
		c0.276,0,0.5,0.224,0.5,0.5s-0.224,0.5-0.5,0.5h-0.5v7h0.5c0.276,0,0.5,0.224,0.5,0.5s-0.224,0.5-0.5,0.5H8.25z M12.25,23v-7h-2.5
		v7H12.25z M12.25,15V7.5h-2.5L12.25,15z M12.25,6.5V1h-2.5v5.5H12.25z"/>
</g>
</svg>
