<?xml version="1.0" encoding="utf-8"?>
<!-- Generator: Adobe Illustrator 22.1.0, SVG Export Plug-In . SVG Version: 6.00 Build 0)  -->
<svg version="1.1" id="Light" xmlns="http://www.w3.org/2000/svg" xmlns:xlink="http://www.w3.org/1999/xlink" x="0px" y="0px"
	 viewBox="0 0 24 24" style="enable-background:new 0 0 24 24;" xml:space="preserve">
<g>
	<title>plant-bonsai-1</title>
	<path d="M9.385,24.003c-0.755,0-1.395-0.565-1.488-1.314L7.06,16.003H6.502c-0.276,0-0.5-0.224-0.5-0.5s0.224-0.5,0.5-0.5h4.5v-5
		h-4c-1.069-0.001-2.073-0.418-2.828-1.174c-0.755-0.756-1.17-1.761-1.169-2.83c0.002-2.203,1.797-3.996,4-3.996
		c0.312,0,0.619,0.036,0.918,0.107c0.937-1.322,2.451-2.106,4.086-2.106c0.9,0,1.785,0.245,2.56,0.709
		c0.594,0.355,1.098,0.823,1.501,1.393c0.312-0.075,0.629-0.114,0.947-0.114c0.605,0,1.19,0.135,1.739,0.402
		c0.962,0.468,1.685,1.282,2.035,2.294c0.35,1.011,0.285,2.098-0.183,3.061c-0.468,0.962-1.282,1.685-2.293,2.035
		c-0.421,0.146-0.861,0.219-1.307,0.219c-0.173,0-0.351-0.013-0.532-0.038c-0.218,1.667-1.591,2.95-3.299,3.034
		c-0.06,0.003-0.117,0.004-0.174,0.004h-1v2h5.5c0.276,0,0.5,0.224,0.5,0.5s-0.224,0.5-0.5,0.5h-0.559l-0.836,6.686
		c-0.094,0.749-0.733,1.314-1.488,1.314H9.385z M8.889,22.565c0.031,0.25,0.245,0.438,0.496,0.438h5.234
		c0.251,0,0.465-0.188,0.496-0.438l0.821-6.562H8.068L8.889,22.565z M13.002,12.003c0.042,0,0.085-0.001,0.127-0.003
		c1.257-0.061,2.266-1.055,2.365-2.296c-0.297-0.121-0.579-0.278-0.841-0.469c-0.801,0.502-1.714,0.767-2.651,0.767v2H13.002z
		 M7.005,3.003c-1.653,0-2.998,1.344-3,2.997C4.005,6.801,4.316,7.555,4.882,8.122s1.319,0.88,2.12,0.881h5
		c1.398,0,2.713-0.746,3.431-1.946c0.548-0.915,0.706-1.991,0.446-3.028c-0.26-1.037-0.908-1.911-1.823-2.458
		c-0.62-0.371-1.327-0.567-2.047-0.567c-1.404,0-2.721,0.745-3.44,1.945c-0.09,0.15-0.254,0.243-0.429,0.243
		c-0.055,0-0.109-0.009-0.162-0.027c-0.313-0.107-0.639-0.162-0.97-0.162l-0.003-0.25V3.003z M15.483,8.587
		c0.46,0.269,0.992,0.415,1.526,0.415c0.334,0,0.663-0.055,0.978-0.164c0.759-0.263,1.37-0.805,1.721-1.527
		c0.351-0.722,0.4-1.537,0.137-2.297c-0.262-0.759-0.804-1.37-1.527-1.721c-0.414-0.201-0.854-0.303-1.308-0.303
		c-0.142,0-0.284,0.01-0.426,0.031c0.642,1.482,0.539,3.159-0.293,4.549C16.068,7.943,15.797,8.284,15.483,8.587z"/>
</g>
</svg>
