<?xml version="1.0" encoding="utf-8"?>
<!-- Generator: Adobe Illustrator 22.1.0, SVG Export Plug-In . SVG Version: 6.00 Build 0)  -->
<svg version="1.1" id="Layer_1" xmlns="http://www.w3.org/2000/svg" xmlns:xlink="http://www.w3.org/1999/xlink" x="0px" y="0px"
	 viewBox="0 0 24 24" style="enable-background:new 0 0 24 24;" xml:space="preserve">
<g>
	<title>history-man-philosopher</title>
	<path d="M12.784,23.996c-0.18,0-0.347-0.097-0.435-0.253c-0.066-0.116-0.083-0.251-0.047-0.38c0.036-0.129,0.119-0.236,0.235-0.302
		l6.36-3.616c-0.565-0.189-1.16-0.352-1.778-0.486l-8.965,4.973c-0.073,0.041-0.157,0.063-0.242,0.063
		c-0.182,0-0.349-0.099-0.438-0.257c-0.065-0.117-0.08-0.252-0.043-0.38s0.121-0.235,0.238-0.3l7.88-4.371
		c-0.997-0.132-2.049-0.199-3.137-0.199c-5.558,0-8.605,1.698-9.926,2.711c-0.362,0.279-0.577,0.72-0.574,1.179v1.11
		c0,0.276-0.224,0.5-0.5,0.5s-0.5-0.224-0.5-0.5v-1.107c-0.005-0.767,0.356-1.505,0.965-1.975c1.151-0.882,3.664-2.358,7.971-2.793
		l-1.635-0.755c-1.689-0.78-2.735-2.55-2.603-4.406c0,0,0.302-3.017,0.302-3.019V9.413c-0.07,0.18-0.149,0.357-0.239,0.53
		l-1.614,3.119c-0.532,1.026-1.401,1.861-2.446,2.353c-0.132,0.066-0.285,0.102-0.438,0.102c-0.381,0-0.737-0.22-0.906-0.561
		c-0.043-0.086-0.073-0.177-0.09-0.271c-0.224-1.328-0.055-2.678,0.489-3.905c0.01-0.023,0.022-0.044,0.035-0.065l1.617-2.558
		C2.867,7.093,3.79,6.245,4.923,5.765C4.916,5.704,4.912,5.643,4.912,5.582V2.055c0.001-0.72,0.516-1.339,1.223-1.472
		c2.073-0.391,4.185-0.589,6.278-0.589c2.093,0,4.205,0.198,6.278,0.589c0.707,0.133,1.221,0.752,1.222,1.472v3.528
		c0,0.64-0.41,1.206-1,1.415v2.479l0.298,2.963c0.134,1.866-0.912,3.639-2.6,4.42l-1.636,0.755c4.3,0.435,6.817,1.91,7.971,2.791
		c0.611,0.471,0.972,1.21,0.967,1.979v1.104c0,0.276-0.224,0.5-0.5,0.5s-0.5-0.224-0.5-0.5v-1.107
		c0.003-0.461-0.212-0.903-0.575-1.183c-0.438-0.334-1.176-0.824-2.233-1.289l-7.073,4.021
		C12.956,23.973,12.87,23.996,12.784,23.996z M6.606,12.538c-0.102,1.432,0.712,2.806,2.026,3.412l2.312,1.068
		c0.464,0.214,0.957,0.323,1.467,0.323c0.509,0,1.002-0.109,1.466-0.323l2.313-1.068c1.313-0.607,2.126-1.984,2.023-3.426
		l-0.171-1.711l-1.368,1.821c-0.469,0.627-1.217,1.002-2,1.002c-0.269,0-0.534-0.043-0.79-0.128
		c-0.473-0.158-0.969-0.238-1.474-0.238c-0.505,0-1.001,0.08-1.474,0.237c-0.256,0.085-0.522,0.129-0.791,0.129
		c-0.783,0-1.53-0.375-2-1.004l-1.365-1.819L6.606,12.538z M1.568,11.217c-0.452,1.039-0.592,2.178-0.404,3.296
		c0.869-0.401,1.576-1.08,2.007-1.911l1.614-3.119c0.441-0.852,0.584-1.818,0.41-2.752c-0.862,0.397-1.569,1.07-2.009,1.922
		L1.568,11.217z M8.944,12.034c0.282,0.378,0.731,0.603,1.2,0.603c0.161,0,0.321-0.026,0.475-0.077
		c0.575-0.192,1.177-0.289,1.79-0.289c0.613,0,1.216,0.097,1.791,0.289c0.154,0.051,0.313,0.077,0.474,0.077
		c0.47,0,0.919-0.225,1.2-0.602l2.038-2.714V7.019c-1.818-0.308-3.667-0.464-5.499-0.464c-1.833,0-3.682,0.156-5.501,0.464v2.307
		L8.944,12.034z M12.413,5.554c1.97,0,3.959,0.175,5.911,0.521c0.029,0.005,0.058,0.008,0.086,0.008
		c0.129,0,0.257-0.054,0.352-0.148c0.097-0.096,0.15-0.221,0.15-0.352V2.055c0-0.239-0.172-0.445-0.407-0.49
		c-2.012-0.38-4.062-0.572-6.093-0.572S8.331,1.186,6.32,1.566C6.084,1.61,5.912,1.816,5.912,2.056v3.526
		c0,0.03,0.003,0.06,0.008,0.089C5.93,5.729,5.952,5.786,5.985,5.84c0.002,0.004,0.011,0.02,0.013,0.024
		c0.034,0.05,0.077,0.094,0.128,0.129c0.077,0.053,0.165,0.084,0.257,0.089c0.01-0.001,0.02-0.002,0.028-0.002
		c0.008,0,0.017,0,0.025,0.001C6.449,6.081,6.474,6.08,6.5,6.075C8.453,5.729,10.442,5.554,12.413,5.554z"/>
	<circle cx="14.412" cy="9.488" r="0.75"/>
	<circle cx="10.412" cy="9.488" r="0.75"/>
	<path d="M12.412,4.437c-0.155,0-0.31-0.036-0.448-0.106l-1.776-0.888C9.942,3.32,9.841,3.019,9.965,2.773
		c0.085-0.171,0.257-0.276,0.447-0.276c0.077,0,0.154,0.018,0.224,0.053l1.776,0.888l1.777-0.888
		c0.069-0.035,0.146-0.053,0.223-0.053c0.19,0,0.362,0.106,0.447,0.276c0.124,0.247,0.023,0.548-0.223,0.671L12.86,4.331
		C12.722,4.4,12.567,4.437,12.412,4.437z"/>
	<path d="M12.412,15.569c-0.468,0-0.929-0.153-1.3-0.43c-0.221-0.165-0.266-0.479-0.101-0.7c0.094-0.125,0.244-0.2,0.401-0.2
		c0.109,0,0.212,0.034,0.299,0.1c0.199,0.149,0.448,0.231,0.7,0.231c0.253,0,0.501-0.082,0.7-0.231c0.087-0.065,0.191-0.1,0.299-0.1
		c0.157,0,0.306,0.075,0.401,0.2c0.165,0.221,0.12,0.535-0.1,0.7C13.341,15.416,12.879,15.569,12.412,15.569z"/>
</g>
</svg>
