<?xml version="1.0" encoding="utf-8"?>
<!-- Generator: Adobe Illustrator 22.1.0, SVG Export Plug-In . SVG Version: 6.00 Build 0)  -->
<svg version="1.1" id="Layer_1" xmlns="http://www.w3.org/2000/svg" xmlns:xlink="http://www.w3.org/1999/xlink" x="0px" y="0px"
	 viewBox="0 0 24 24" style="enable-background:new 0 0 24 24;" xml:space="preserve">
<g>
	<title>history-man-napoleon</title>
	<path d="M23,24c-0.276,0-0.5-0.224-0.5-0.5v-0.106c0.003-0.461-0.212-0.903-0.575-1.183c-0.969-0.739-2.688-1.724-5.425-2.283V23.5
		c0,0.276-0.224,0.5-0.5,0.5s-0.5-0.224-0.5-0.5v-2.17c-0.648,0.804-1.557,1.365-2.588,1.578c-0.301,0.062-0.608,0.094-0.913,0.094
		c-1.376,0-2.654-0.626-3.499-1.675V23.5C8.5,23.776,8.276,24,8,24s-0.5-0.224-0.5-0.5v-3.571c-2.733,0.56-4.454,1.544-5.427,2.284
		c-0.361,0.278-0.576,0.719-0.573,1.178V23.5C1.5,23.776,1.276,24,1,24s-0.5-0.224-0.5-0.5v-0.106
		c-0.005-0.766,0.355-1.505,0.965-1.975c1.151-0.875,3.214-2.035,6.512-2.595c0.013-0.003,0.026-0.005,0.039-0.006
		C9.279,18.605,10.613,18.5,12,18.5c5.839,0,9.105,1.828,10.533,2.917c0.611,0.471,0.972,1.211,0.967,1.98V23.5
		C23.5,23.776,23.276,24,23,24z M8.723,19.719c0.504,1.357,1.813,2.282,3.277,2.282c0.237,0,0.475-0.024,0.709-0.073
		c1.192-0.247,2.155-1.082,2.572-2.209C14.242,19.574,13.139,19.5,12,19.5C10.864,19.5,9.763,19.574,8.723,19.719z"/>
	<circle cx="10" cy="11.5" r="0.75"/>
	<circle cx="14" cy="11.5" r="0.75"/>
	<path d="M17.999,18.001c-0.491,0-0.971-0.103-1.425-0.305c-0.386-0.172-0.747-0.425-1.054-0.735C14.468,17.641,13.256,18,12,18
		c-1.256,0-2.469-0.359-3.52-1.039c-0.308,0.311-0.668,0.563-1.054,0.735c-0.454,0.203-0.934,0.305-1.425,0.305
		c-0.428,0-0.849-0.079-1.253-0.233c-0.873-0.334-1.563-0.989-1.944-1.843c-0.713-1.598-0.119-3.488,1.35-4.4
		C4.056,11.204,4.003,10.865,4,10.532c-0.733,0.098-1.46,0.208-2.168,0.329c-0.057,0.009-0.111,0.014-0.166,0.014
		c-0.21,0-0.412-0.065-0.583-0.189c-0.217-0.156-0.36-0.387-0.403-0.651C0.66,9.905,0.664,9.774,0.694,9.646l0.344-1.374
		C1.377,6.917,2.304,5.816,3.58,5.251l1.826-0.808C5.831,4.254,6.14,3.886,6.252,3.434l0.201-0.785C6.842,1.092,8.235,0.003,9.841,0
		h4.317c1.609,0,3.005,1.09,3.395,2.651l0.199,0.78c0.112,0.455,0.419,0.823,0.843,1.014l1.824,0.812
		c1.275,0.566,2.2,1.667,2.538,3.021L23.3,9.643c0.061,0.268,0.015,0.537-0.127,0.764c-0.142,0.227-0.364,0.384-0.625,0.443
		c-0.072,0.016-0.146,0.025-0.22,0.025c-0.053,0-0.106-0.004-0.159-0.013C21.456,10.74,20.729,10.63,20,10.532
		c-0.003,0.333-0.056,0.672-0.154,0.993c0.647,0.401,1.148,1.005,1.422,1.722c0.334,0.873,0.309,1.824-0.072,2.678
		c-0.381,0.854-1.071,1.508-1.944,1.843C18.848,17.923,18.426,18.001,17.999,18.001z M16.323,16.349
		c0.198,0.182,0.418,0.327,0.658,0.434c0.325,0.145,0.667,0.218,1.018,0.218c0.305,0,0.606-0.056,0.895-0.167
		c0.624-0.239,1.117-0.706,1.389-1.316c0.272-0.61,0.29-1.289,0.052-1.913c-0.239-0.624-0.706-1.117-1.316-1.389
		c-0.121-0.054-0.218-0.157-0.265-0.281c-0.047-0.125-0.041-0.266,0.015-0.386C18.92,11.223,19,10.86,19,10.5
		c0-0.029-0.001-0.06-0.002-0.091c-0.166-0.02-0.332-0.039-0.498-0.057V11.5C18.5,13.361,17.71,15.113,16.323,16.349z M5,10.501
		c0,0.359,0.08,0.722,0.231,1.048c0.056,0.121,0.062,0.261,0.015,0.386C5.2,12.06,5.103,12.163,4.981,12.217
		c-1.259,0.562-1.826,2.043-1.265,3.302c0.272,0.61,0.765,1.077,1.389,1.316c0.289,0.111,0.59,0.167,0.895,0.167
		c0.35,0,0.693-0.073,1.018-0.218c0.239-0.107,0.46-0.252,0.658-0.434C6.29,15.113,5.5,13.361,5.5,11.5v-1.149
		c-0.166,0.018-0.332,0.038-0.498,0.057C5.001,10.441,5,10.471,5,10.501z M6.5,11.5c0,3.033,2.467,5.5,5.5,5.5s5.5-2.467,5.5-5.5
		v-1.247c-1.824-0.167-3.674-0.252-5.502-0.252c-1.826,0-3.675,0.085-5.498,0.252V11.5z M9.843,1C8.696,1.002,7.7,1.781,7.422,2.893
		L7.221,3.678c-0.186,0.751-0.7,1.364-1.409,1.679L3.985,6.165c-0.993,0.44-1.714,1.296-1.977,2.349L1.666,9.881
		c0.479-0.088,0.989-0.167,1.593-0.254L3.463,9.15c0.42-0.977,1.174-1.776,2.124-2.25l1.705-0.854
		c0.529-0.264,0.948-0.708,1.18-1.25L9.28,2.909C9.517,2.357,10.058,2,10.659,2h2.682c0.6,0,1.141,0.357,1.378,0.909l0.807,1.885
		c0.233,0.542,0.652,0.986,1.18,1.25l1.706,0.854c0.951,0.474,1.705,1.273,2.124,2.25l0.206,0.481
		c0.602,0.086,1.11,0.165,1.588,0.247l-0.343-1.357c-0.263-1.053-0.983-1.909-1.974-2.349l-1.826-0.812
		c-0.708-0.318-1.22-0.931-1.405-1.683l-0.199-0.778C16.304,1.779,15.307,1,14.158,1H9.843z M11.998,9
		c2.524,0,5.075,0.159,7.589,0.472c-0.331-0.728-0.904-1.323-1.621-1.681l-1.707-0.854c-0.739-0.369-1.326-0.99-1.652-1.75
		l-0.807-1.885C13.721,3.119,13.541,3,13.341,3h-2.682c-0.2,0-0.381,0.119-0.46,0.303L9.393,5.19C9.066,5.95,8.48,6.571,7.74,6.94
		L6.035,7.794c-0.716,0.358-1.288,0.951-1.62,1.677C6.927,9.158,9.476,9,11.998,9z"/>
	<circle cx="6" cy="23" r="0.75"/>
	<circle cx="18" cy="23" r="0.75"/>
	<path d="M12,14.997c-0.648,0-1.287-0.212-1.8-0.597c-0.107-0.08-0.176-0.197-0.195-0.329C9.986,13.938,10.02,13.807,10.1,13.7
		c0.094-0.125,0.243-0.2,0.4-0.2c0.109,0,0.212,0.035,0.3,0.1c0.342,0.256,0.768,0.397,1.2,0.397c0.432,0,0.859-0.141,1.2-0.397
		c0.087-0.065,0.19-0.1,0.3-0.1c0.157,0,0.307,0.075,0.4,0.201c0.08,0.106,0.114,0.238,0.095,0.37
		c-0.019,0.132-0.088,0.25-0.195,0.33C13.287,14.785,12.648,14.997,12,14.997z"/>
</g>
</svg>
