<?xml version="1.0" encoding="utf-8"?>
<!-- Generator: Adobe Illustrator 22.1.0, SVG Export Plug-In . SVG Version: 6.00 Build 0)  -->
<svg version="1.1" id="Layer_1" xmlns="http://www.w3.org/2000/svg" xmlns:xlink="http://www.w3.org/1999/xlink" x="0px" y="0px"
	 viewBox="0 0 24 24" style="enable-background:new 0 0 24 24;" xml:space="preserve">
<g>
	<title>history-man-viking</title>
	<path d="M23,24c-0.276,0-0.5-0.224-0.5-0.5v-1.106c0.003-0.461-0.212-0.903-0.575-1.183c-0.456-0.348-1.224-0.855-2.326-1.33
		c-2.439,2.163-5.738,3.204-8.155,3.7c-0.001,0.006-0.002,0.012-0.004,0.018c-0.047,0.232-0.253,0.4-0.49,0.4
		c-0.032,0-0.064-0.003-0.096-0.009c-0.274-0.056-0.449-0.32-0.394-0.59c0.106-0.523,0.002-1.057-0.293-1.502
		c-0.295-0.446-0.746-0.75-1.269-0.855c-0.133-0.027-0.269-0.041-0.403-0.041c-0.39,0-0.77,0.115-1.1,0.333
		c-0.445,0.295-0.749,0.746-0.855,1.27c-0.054,0.264-0.054,0.531,0,0.796c0.027,0.131,0.001,0.265-0.073,0.376
		S6.28,23.963,6.149,23.99C6.115,23.997,6.082,24,6.05,24c-0.237,0-0.443-0.168-0.49-0.4c-0.031-0.153-0.05-0.311-0.056-0.472
		c-1.199-0.449-2.283-1.177-3.153-2.117c-0.097,0.068-0.19,0.136-0.278,0.203c-0.361,0.278-0.576,0.719-0.573,1.178V23.5
		C1.5,23.776,1.276,24,1,24s-0.5-0.224-0.5-0.5v-1.106c-0.005-0.766,0.355-1.505,0.965-1.975c1.16-0.882,3.682-2.356,7.971-2.793
		l-1.635-0.755c-1.688-0.781-2.733-2.552-2.6-4.407l0.3-3.002L5.5,7.5c0-0.626,0.09-1.245,0.269-1.845
		c-2.088-0.748-2.751-2.652-3.12-4.433c-0.072-0.295,0.006-0.62,0.21-0.863c0.172-0.204,0.413-0.329,0.679-0.352
		c0.029-0.003,0.058-0.004,0.087-0.004c0.234,0,0.463,0.083,0.643,0.235c1.544,1.306,2.869,2.025,3.729,2.025c0,0,0.001,0,0.001,0
		c0.055,0,0.102,0.003,0.148,0.008c0.984-0.727,2.137-1.156,3.354-1.249V0.5C11.5,0.224,11.724,0,12,0c0.276,0,0.5,0.224,0.5,0.5
		v0.52c1.215,0.093,2.367,0.521,3.351,1.248c0.05-0.004,0.1-0.006,0.149-0.006c0.85,0,2.21-0.738,3.731-2.024
		C19.911,0.085,20.141,0,20.379,0c0.086,0,0.172,0.011,0.255,0.033c0.533,0.141,0.853,0.69,0.712,1.223
		c-0.365,1.757-1.027,3.649-3.114,4.399C18.41,6.254,18.5,6.874,18.5,7.5v1.987l0.298,2.963c0.134,1.867-0.912,3.641-2.602,4.421
		l-1.635,0.754c1.884,0.19,3.604,0.597,5.128,1.212c0.006,0.002,0.021,0.009,0.027,0.012c1.336,0.54,2.271,1.152,2.817,1.568
		c0.611,0.471,0.972,1.211,0.967,1.98V23.5C23.5,23.776,23.276,24,23,24z M8.494,20.001c0.201,0,0.404,0.021,0.603,0.061
		c0.785,0.159,1.462,0.615,1.904,1.283c0.241,0.365,0.399,0.778,0.464,1.209c2.099-0.451,4.898-1.343,7.066-3.083
		C16.627,18.827,14.433,18.5,12,18.5c-4.315,0-7.127,1.036-8.785,1.969c0.686,0.703,1.515,1.263,2.423,1.637
		c0.205-0.657,0.625-1.219,1.206-1.604C7.337,20.174,7.907,20.001,8.494,20.001z M6.198,12.55c-0.103,1.432,0.71,2.806,2.023,3.414
		l2.31,1.066c0.464,0.214,0.958,0.323,1.467,0.323c0.509,0,1.002-0.109,1.466-0.323l2.313-1.067
		c1.314-0.606,2.128-1.984,2.025-3.427l-0.171-1.709l-1.365,1.82c-0.469,0.628-1.217,1.003-2,1.003
		c-0.268,0-0.534-0.043-0.791-0.128c-0.473-0.158-0.969-0.238-1.475-0.238c-0.505,0-1.001,0.08-1.473,0.237
		c-0.256,0.085-0.522,0.128-0.791,0.128c-0.783,0-1.531-0.375-2.001-1.003l-1.365-1.82L6.198,12.55z M12,12.284
		c0.613,0,1.216,0.097,1.79,0.289c0.154,0.051,0.313,0.077,0.474,0.077c0.469,0,0.918-0.225,1.2-0.602L17.5,9.333V8h-11v1.333
		l2.035,2.714c0.282,0.377,0.731,0.603,1.201,0.603c0.161,0,0.321-0.026,0.474-0.077C10.785,12.381,11.387,12.284,12,12.284z
		 M17.477,7c-0.031-0.339-0.093-0.674-0.185-1H6.709C6.616,6.326,6.554,6.661,6.524,7H17.477z M16.898,5
		c-0.02-0.039-0.04-0.077-0.061-0.116c-0.025-0.047-0.052-0.092-0.079-0.138c-0.034-0.057-0.056-0.095-0.079-0.132
		c-0.034-0.055-0.069-0.11-0.105-0.165l-0.039-0.056c-0.149-0.214-0.296-0.401-0.45-0.572l-0.031-0.034
		c-0.17-0.185-0.353-0.36-0.544-0.519C14.51,2.445,13.27,2,12,2c-1.27,0-2.51,0.445-3.492,1.254C8.3,3.427,8.115,3.603,7.944,3.79
		L7.926,3.81C7.761,3.993,7.613,4.18,7.476,4.377L7.426,4.45C7.39,4.504,7.355,4.559,7.32,4.615C7.297,4.652,7.275,4.69,7.253,4.728
		C7.215,4.792,7.189,4.836,7.165,4.881C7.143,4.92,7.122,4.96,7.102,5H16.898z M3.625,1.004c0.382,1.842,0.96,3.181,2.499,3.721
		c0.057-0.12,0.115-0.234,0.174-0.342l0.059-0.102C6.447,4.123,6.536,3.98,6.627,3.846c0.021-0.031,0.091-0.128,0.091-0.128
		c0.1-0.139,0.194-0.261,0.288-0.375c0.038-0.046,0.078-0.091,0.118-0.136c0.019-0.022,0.038-0.043,0.058-0.065
		C5.949,2.808,4.594,1.822,3.625,1.004z M16.872,3.204c0.049,0.056,0.086,0.097,0.121,0.14c0.096,0.115,0.191,0.238,0.289,0.375
		c0,0,0.069,0.096,0.09,0.127c0.091,0.133,0.179,0.275,0.271,0.436l0.058,0.101c0.059,0.108,0.117,0.223,0.174,0.342
		c1.539-0.542,2.116-1.875,2.497-3.699c0,0,0.002-0.015,0.003-0.023c-0.005,0.004-0.01,0.008-0.015,0.011
		c-0.979,0.826-2.322,1.797-3.542,2.129C16.836,3.164,16.854,3.184,16.872,3.204z"/>
	<circle cx="14" cy="9.5" r="0.75"/>
	<circle cx="10" cy="9.5" r="0.75"/>
	<circle cx="8.5" cy="23" r="0.75"/>
	<path d="M12,15.498c-0.468,0-0.929-0.153-1.3-0.43c-0.221-0.166-0.266-0.48-0.101-0.7c0.095-0.125,0.244-0.2,0.401-0.2
		c0.108,0,0.212,0.034,0.299,0.099c0.2,0.15,0.448,0.232,0.701,0.232c0.252,0,0.501-0.082,0.7-0.231
		c0.088-0.065,0.191-0.099,0.299-0.099c0.156,0,0.306,0.074,0.4,0.199c0.166,0.221,0.12,0.535-0.1,0.7
		C12.929,15.345,12.468,15.498,12,15.498z"/>
</g>
</svg>
