<?xml version="1.0" encoding="utf-8"?>
<!-- Generator: Adobe Illustrator 22.1.0, SVG Export Plug-In . SVG Version: 6.00 Build 0)  -->
<svg version="1.1" id="Layer_1" xmlns="http://www.w3.org/2000/svg" xmlns:xlink="http://www.w3.org/1999/xlink" x="0px" y="0px"
	 viewBox="0 0 24 24" style="enable-background:new 0 0 24 24;" xml:space="preserve">
<g>
	<title>history-man-aviator</title>
	<path d="M12,12.001c-0.648,0-1.287-0.212-1.8-0.597c-0.107-0.08-0.176-0.197-0.195-0.329c-0.019-0.132,0.015-0.264,0.095-0.371
		c0.094-0.125,0.244-0.2,0.4-0.2c0.109,0,0.213,0.035,0.3,0.1c0.341,0.256,0.767,0.397,1.2,0.397c0.432,0,0.859-0.141,1.2-0.397
		c0.086-0.065,0.19-0.1,0.3-0.1c0.157,0,0.306,0.075,0.4,0.2c0.08,0.107,0.114,0.238,0.095,0.371
		c-0.019,0.132-0.088,0.249-0.195,0.329C13.287,11.789,12.648,12.001,12,12.001z"/>
	<path d="M23,24.005c-0.276,0-0.5-0.224-0.5-0.5v-3.106c0.003-0.461-0.212-0.903-0.575-1.183c-0.54-0.412-1.461-1.006-2.814-1.528
		l-3.034,3.372c-0.268,0.298-0.636,0.473-1.036,0.494c-0.028,0.001-0.054,0.002-0.08,0.002c-0.371,0-0.727-0.137-1.002-0.385
		c-0.02-0.018-0.038-0.035-0.057-0.054L12.5,19.713v3.792c0,0.276-0.224,0.5-0.5,0.5c-0.276,0-0.5-0.224-0.5-0.5v-3.791
		l-1.396,1.399c-0.019,0.019-0.037,0.037-0.057,0.054c-0.276,0.249-0.632,0.386-1.003,0.386c-0.027,0-0.054-0.001-0.081-0.002
		c-0.399-0.021-0.767-0.196-1.036-0.494L4.89,17.689c-1.352,0.522-2.275,1.115-2.818,1.528c-0.361,0.278-0.576,0.719-0.573,1.177
		v3.11c0,0.276-0.224,0.5-0.5,0.5s-0.5-0.224-0.5-0.5v-3.106c-0.005-0.767,0.355-1.505,0.965-1.975
		c1.052-0.8,3.407-2.215,7.38-2.725c1.015-0.129,2.073-0.194,3.156-0.194c1.083,0,2.142,0.065,3.146,0.193
		c0.006,0.001,0.019,0.003,0.025,0.004c3.965,0.505,6.316,1.922,7.363,2.721c0.611,0.471,0.972,1.21,0.967,1.98v3.103
		C23.5,23.78,23.276,24.005,23,24.005z M14.637,20.436c0.082,0.073,0.2,0.119,0.324,0.119c0.142,0,0.278-0.06,0.373-0.165
		l2.75-3.056c-0.892-0.272-1.853-0.48-2.865-0.618l-2.458,1.844L14.637,20.436z M8.671,20.386c0.09,0.1,0.212,0.158,0.346,0.165
		l0.03,0.001c0.123,0,0.237-0.044,0.33-0.129l0.024-0.022l1.838-1.842l-2.458-1.843c-1.01,0.138-1.971,0.346-2.864,0.619
		L8.671,20.386z M12,17.88l1.754-1.315c-0.572-0.04-1.159-0.06-1.754-0.06c-0.595,0-1.183,0.02-1.754,0.06L12,17.88z"/>
	<circle cx="14" cy="8.505" r="0.75"/>
	<circle cx="10" cy="8.505" r="0.75"/>
	<path d="M18,15.005c-0.276,0-0.5-0.224-0.5-0.5v-2.538c-1.179,1.873-3.242,3.038-5.5,3.038s-4.321-1.165-5.5-3.038v2.538
		c0,0.276-0.224,0.5-0.5,0.5s-0.5-0.224-0.5-0.5v-8c0-0.384,0.035-0.774,0.104-1.158C5.534,5.085,5.5,4.809,5.5,4.505
		c0-0.784,0.495-1.502,1.362-1.979C7.22,2.063,7.636,1.652,8.1,1.305c1.132-0.849,2.477-1.297,3.892-1.297
		c2.036,0,3.909,0.917,5.148,2.519c0.865,0.477,1.36,1.195,1.36,1.978c0,0.305-0.034,0.581-0.104,0.842
		C18.465,5.732,18.5,6.121,18.5,6.505v8C18.5,14.78,18.276,15.005,18,15.005z M6.519,8.949c0.227,2.853,2.593,5.056,5.481,5.056
		c2.887,0,5.254-2.203,5.481-5.055c-0.859-0.181-1.573-0.809-1.855-1.651c-0.066-0.169-0.253-0.294-0.451-0.294
		c-0.003,0-6.349,0-6.349,0c-0.204,0-0.39,0.127-0.463,0.316C8.088,8.145,7.377,8.767,6.519,8.949z M16.566,6.959
		c0.155,0.461,0.499,0.808,0.934,0.959V6.581c-0.263,0.159-0.577,0.272-0.949,0.341C16.556,6.934,16.562,6.946,16.566,6.959z
		 M6.5,7.918c0.432-0.151,0.774-0.491,0.923-0.937c0.008-0.02,0.016-0.04,0.024-0.06C7.077,6.853,6.762,6.74,6.5,6.581V7.918z
		 M12,5.273c-0.2,0.259-0.454,0.508-0.746,0.732l1.492,0C12.454,5.781,12.2,5.532,12,5.273z M15,3.005c-0.752,0-2.5,0.097-2.5,1
		c0,0.734,1.482,2,3,2c1.681,0,2-0.527,2-1.5C17.5,3.705,16.332,3.005,15,3.005z M9,3.005c-1.332,0-2.5,0.701-2.5,1.5
		c0,0.973,0.319,1.5,2,1.5c1.518,0,3-1.266,3-2C11.5,3.102,9.752,3.005,9,3.005z M9,2.005c1.432,0,2.439,0.276,3.001,0.822
		c0.563-0.539,1.59-0.822,2.999-0.822c0.052,0,0.104,0.001,0.156,0.002c-0.921-0.648-2.021-0.998-3.171-0.998
		c-1.138,0-2.224,0.344-3.151,0.998C8.889,2.005,8.944,2.005,9,2.005z"/>
</g>
</svg>
