<?xml version="1.0" encoding="utf-8"?>
<!-- Generator: Adobe Illustrator 22.1.0, SVG Export Plug-In . SVG Version: 6.00 Build 0)  -->
<svg version="1.1" id="Layer_1" xmlns="http://www.w3.org/2000/svg" xmlns:xlink="http://www.w3.org/1999/xlink" x="0px" y="0px"
	 viewBox="0 0 24 24" style="enable-background:new 0 0 24 24;" xml:space="preserve">
<g>
	<title>segway-2</title>
	<path d="M10.85,22c-1.654,0-3-1.346-3-3s1.346-3,3-3s3,1.346,3,3S12.504,22,10.85,22z M10.85,17c-1.103,0-2,0.897-2,2s0.897,2,2,2
		s2-0.897,2-2S11.953,17,10.85,17z"/>
	<path d="M10.85,24c-2,0-3.779-1.172-4.578-3H4.85c-0.827,0-1.5-0.673-1.5-1.5S4.023,18,4.85,18h1.106c0.472-2.331,2.497-4,4.894-4
		c2.396,0,4.422,1.669,4.893,4h1.106c0.244,0,0.452-0.175,0.493-0.415l2.301-12.991c0.05-0.274-0.13-0.536-0.401-0.586
		c-0.023-0.004-0.045-0.01-0.065-0.01C19.166,4,19.162,4,19.15,4H15.85c-0.276,0-0.5-0.224-0.5-0.5S15.574,3,15.85,3h3.3
		c0.093,0,0.185,0.008,0.274,0.025c0.813,0.15,1.354,0.933,1.204,1.747l-2.3,12.986C18.204,18.477,17.582,19,16.85,19h-1
		C15.85,21.757,13.607,24,10.85,24z M10.85,15c-2.206,0-4,1.794-4,4s1.794,4,4,4c2.205,0,4-1.794,4-4S13.055,15,10.85,15z M4.85,19
		c-0.276,0-0.5,0.224-0.5,0.5S4.574,20,4.85,20h1.105c-0.07-0.335-0.105-0.67-0.105-1H4.85z"/>
</g>
</svg>
