<?xml version="1.0" encoding="utf-8"?>
<!-- Generator: Adobe Illustrator 22.1.0, SVG Export Plug-In . SVG Version: 6.00 Build 0)  -->
<svg version="1.1" id="Layer_1" xmlns="http://www.w3.org/2000/svg" xmlns:xlink="http://www.w3.org/1999/xlink" x="0px" y="0px"
	 viewBox="0 0 24 24" style="enable-background:new 0 0 24 24;" xml:space="preserve">
<g>
	<title>segway</title>
	<path d="M4.724,24.034c-0.081,0-0.161-0.004-0.242-0.012c-0.664-0.063-1.265-0.382-1.69-0.897c-0.425-0.515-0.624-1.165-0.561-1.83
		c0.003-0.029,0.571-5.045,0.571-5.045c0.143-1.265,1.21-2.219,2.482-2.219c0.094,0,0.188,0.005,0.284,0.016
		c0.663,0.075,1.258,0.404,1.674,0.926c0.416,0.522,0.604,1.175,0.529,1.839l-0.133,1.174h3.861V1.31
		c-0.059,0.02-0.116,0.044-0.171,0.071L8.223,2.934c-0.07,0.035-0.147,0.053-0.224,0.053c-0.191,0-0.362-0.106-0.447-0.277
		c-0.06-0.119-0.069-0.255-0.027-0.381S7.656,2.099,7.776,2.04l3.106-1.553c0.333-0.166,0.708-0.257,1.085-0.261
		c0.011-0.001,0.022-0.002,0.032-0.002c0.01,0,0.022,0.001,0.033,0.002c0.373,0.004,0.75,0.094,1.085,0.261l3.106,1.553
		c0.119,0.06,0.208,0.162,0.251,0.289s0.033,0.262-0.027,0.382c-0.085,0.171-0.257,0.276-0.448,0.276
		c-0.077,0-0.154-0.018-0.223-0.053L12.67,1.381c-0.055-0.027-0.112-0.051-0.17-0.071v16.677h3.861l-0.133-1.174
		c-0.075-0.663,0.113-1.315,0.529-1.838c0.417-0.523,1.011-0.852,1.674-0.927c0.096-0.011,0.191-0.016,0.286-0.016
		c0.569,0,1.106,0.188,1.553,0.545c0.522,0.416,0.852,1.011,0.927,1.674l0.562,4.968c0.129,1.354-0.821,2.55-2.164,2.725
		c-0.11,0.014-0.221,0.022-0.329,0.022c-0.552,0-1.078-0.179-1.519-0.518c-0.53-0.407-0.869-0.996-0.955-1.658
		c0-0.003-0.091-0.803-0.091-0.803H7.298l-0.09,0.792c-0.064,0.66-0.382,1.259-0.897,1.683C5.858,23.837,5.309,24.034,4.724,24.034z
		 M5.285,15.032c-0.763,0-1.403,0.572-1.489,1.331l-0.569,5.033c-0.038,0.395,0.082,0.784,0.337,1.093
		c0.255,0.309,0.615,0.5,1.014,0.539c0.048,0.004,0.097,0.007,0.145,0.007c0.351,0,0.681-0.119,0.953-0.343
		c0.309-0.255,0.5-0.615,0.538-1.014l0.564-4.977c0.045-0.398-0.068-0.79-0.317-1.104c-0.25-0.313-0.606-0.511-1.005-0.556
		C5.399,15.035,5.342,15.032,5.285,15.032z M18.714,15.032c-0.057,0-0.114,0.003-0.171,0.01c-0.398,0.045-0.755,0.242-1.004,0.556
		c-0.25,0.313-0.363,0.706-0.317,1.104l0.562,4.966c0.052,0.392,0.256,0.745,0.573,0.989c0.265,0.203,0.58,0.311,0.911,0.311
		c0.065,0,0.131-0.004,0.197-0.013c0.805-0.105,1.376-0.822,1.299-1.63l-0.562-4.96c-0.045-0.398-0.242-0.755-0.556-1.004
		C19.378,15.145,19.056,15.032,18.714,15.032z M16.587,19.987l-0.113-1H7.525l-0.113,1H16.587z"/>
</g>
</svg>
