<?xml version="1.0" encoding="utf-8"?>
<!-- Generator: Adobe Illustrator 22.1.0, SVG Export Plug-In . SVG Version: 6.00 Build 0)  -->
<svg version="1.1" id="Layer_1" xmlns="http://www.w3.org/2000/svg" xmlns:xlink="http://www.w3.org/1999/xlink" x="0px" y="0px"
	 viewBox="0 0 24 24" style="enable-background:new 0 0 24 24;" xml:space="preserve">
<g>
	<title>segway-1</title>
	<path d="M21,24c-1.378,0-2.5-1.122-2.5-2.5v-0.422C18.039,21.649,17.336,22,16.56,22H7.439c-0.165,0-0.33-0.016-0.49-0.049
		c-0.58-0.116-1.089-0.434-1.449-0.878V21.5C5.5,22.878,4.379,24,3,24s-2.5-1.122-2.5-2.5v-6C0.5,14.122,1.621,13,3,13
		s2.5,1.122,2.5,2.5v0.948l0.688-3.439C6.42,11.845,7.451,11,8.639,11H10.5V6H9C7.801,6,6.785,5.155,6.551,4H3
		C2.173,4,1.5,3.327,1.5,2.5S2.173,1,3,1h4.002C7.474,0.371,8.211,0,9,0h6c0.789,0,1.526,0.371,1.999,1H21
		c0.827,0,1.5,0.673,1.5,1.5S21.827,4,21,4h-3.551C17.215,5.155,16.199,6,15,6h-1.5v5h1.86c1.187,0,2.218,0.845,2.451,2.01
		l0.689,3.444V15.5c0-1.378,1.122-2.5,2.5-2.5s2.5,1.122,2.5,2.5v6C23.5,22.878,22.378,24,21,24z M21,14c-0.827,0-1.5,0.673-1.5,1.5
		v6c0,0.827,0.673,1.5,1.5,1.5s1.5-0.673,1.5-1.5v-6C22.5,14.673,21.827,14,21,14z M3,14c-0.827,0-1.5,0.673-1.5,1.5v6
		C1.5,22.327,2.173,23,3,23s1.5-0.673,1.5-1.5v-6C4.5,14.673,3.827,14,3,14z M16.56,21c0.827,0,1.5-0.673,1.5-1.5
		c0-0.098-0.01-0.197-0.029-0.294l-1.2-6C16.691,12.507,16.073,12,15.36,12H13.5v9H16.56z M12.5,21V6h-1v15H12.5z M8.639,12
		c-0.713,0-1.331,0.507-1.471,1.206l-1.2,6c-0.162,0.811,0.366,1.603,1.177,1.765C7.242,20.99,7.341,21,7.439,21H10.5v-9H8.639z
		 M9,1C8.173,1,7.5,1.673,7.5,2.5v1C7.5,4.327,8.173,5,9,5h6c0.827,0,1.5-0.673,1.5-1.5v-1C16.5,1.673,15.827,1,15,1H9z M21,3
		c0.276,0,0.5-0.224,0.5-0.5S21.276,2,21,2h-3.552C17.483,2.165,17.5,2.333,17.5,2.5V3H21z M3,2C2.724,2,2.5,2.224,2.5,2.5
		S2.724,3,3,3h3.5V2.5c0-0.167,0.017-0.335,0.052-0.5H3z"/>
</g>
</svg>
