<?xml version="1.0" encoding="utf-8"?>
<!-- Generator: Adobe Illustrator 22.1.0, SVG Export Plug-In . SVG Version: 6.00 Build 0)  -->
<svg version="1.1" id="Layer_1" xmlns="http://www.w3.org/2000/svg" xmlns:xlink="http://www.w3.org/1999/xlink" x="0px" y="0px"
	 viewBox="0 0 24 24" style="enable-background:new 0 0 24 24;" xml:space="preserve">
<g>
	<title>segway-person</title>
	<path d="M17,5.5c-1.378,0-2.5-1.121-2.5-2.5s1.122-2.5,2.5-2.5s2.5,1.121,2.5,2.5S18.378,5.5,17,5.5z M17,1.5
		c-0.827,0-1.5,0.673-1.5,1.5s0.673,1.5,1.5,1.5s1.5-0.673,1.5-1.5S17.827,1.5,17,1.5z"/>
	<path d="M13.5,24c-2.206,0-4-1.794-4-4c0-1.837,1.266-3.442,3.035-3.882l0.19-1.283c0.037-0.247,0.246-0.426,0.497-0.426
		c0.022,0,0.044,0.001,0.066,0.004c0.136,0.02,0.253,0.09,0.333,0.197s0.113,0.239,0.093,0.371L13.563,16
		c0.685,0.011,1.348,0.196,1.938,0.538l0.369-0.935c0.835-2.129,1.428-4.354,1.762-6.615l0.073-0.492
		c0.079-0.543-0.299-1.051-0.843-1.132l-0.989-0.146c-0.047-0.007-0.095-0.01-0.142-0.01c-0.492,0-0.918,0.367-0.99,0.853
		c-0.001,0.009-0.003,0.018-0.006,0.027l-0.656,4.42c-0.04,0.271,0.147,0.526,0.418,0.568c0.029,0.004,0.054,0.006,0.078,0.006
		c0.107,0,0.21-0.034,0.297-0.099c0.107-0.079,0.177-0.196,0.196-0.328l0.433-3.713C15.533,8.69,15.746,8.5,15.999,8.5
		c0.019,0,0.039,0.001,0.059,0.003c0.133,0.016,0.252,0.082,0.335,0.187c0.083,0.105,0.12,0.236,0.104,0.368l-0.435,3.728
		c-0.06,0.408-0.27,0.761-0.592,1c-0.261,0.194-0.569,0.296-0.891,0.296c-0.071,0-0.142-0.005-0.214-0.015
		c-0.827-0.122-1.394-0.886-1.273-1.705l0.66-4.452c0.002-0.011,0.004-0.021,0.007-0.032c0.159-0.955,1.002-1.671,1.972-1.671
		c0.096,0,0.193,0.007,0.289,0.021l0.99,0.146c1.088,0.161,1.844,1.178,1.685,2.267l-0.073,0.493
		c-0.345,2.335-0.958,4.635-1.821,6.834l-0.476,1.206C17.073,17.925,17.5,18.945,17.5,20C17.5,22.206,15.706,24,13.5,24z M13.5,17
		c-1.654,0-3,1.346-3,3s1.346,3,3,3c1.654,0,3-1.346,3-3S15.154,17,13.5,17z"/>
	<path d="M13.5,22c-1.103,0-2-0.897-2-2s0.897-2,2-2s2,0.897,2,2S14.603,22,13.5,22z M13.5,19c-0.552,0-1,0.448-1,1s0.448,1,1,1
		s1-0.448,1-1S14.052,19,13.5,19z"/>
	<path d="M6,8.5C5.724,8.5,5.5,8.276,5.5,8S5.724,7.5,6,7.5h5.565c0.276,0,0.5,0.224,0.5,0.5s-0.224,0.5-0.5,0.5H6z"/>
	<path d="M5,10.5c-0.276,0-0.5-0.224-0.5-0.5S4.724,9.5,5,9.5h6.065c0.276,0,0.5,0.224,0.5,0.5s-0.224,0.5-0.5,0.5H5z"/>
	<path d="M7.5,12.5C7.224,12.5,7,12.276,7,12s0.224-0.5,0.5-0.5h3.065c0.276,0,0.5,0.224,0.5,0.5s-0.224,0.5-0.5,0.5H7.5z"/>
</g>
</svg>
