<?xml version="1.0" encoding="utf-8"?>
<!-- Generator: Adobe Illustrator 22.1.0, SVG Export Plug-In . SVG Version: 6.00 Build 0)  -->
<svg version="1.1" id="Light" xmlns="http://www.w3.org/2000/svg" xmlns:xlink="http://www.w3.org/1999/xlink" x="0px" y="0px"
	 viewBox="0 0 24 24" style="enable-background:new 0 0 24 24;" xml:space="preserve">
<g>
	<title>blood-drop-search</title>
	<path d="M23.5,24c-0.134,0-0.259-0.052-0.354-0.146l-2.938-2.938c-0.9,0.738-2.02,1.142-3.179,1.142
		c-2.773,0-5.029-2.256-5.029-5.029S14.256,12,17.029,12s5.029,2.256,5.029,5.029c0,1.16-0.404,2.28-1.142,3.179l2.938,2.938
		C23.948,23.241,24,23.366,24,23.5s-0.052,0.259-0.146,0.354S23.634,24,23.5,24z M17.029,13C14.807,13,13,14.807,13,17.029
		c0,2.221,1.807,4.029,4.029,4.029s4.029-1.807,4.029-4.029C21.058,14.807,19.251,13,17.029,13z"/>
	<path d="M7.988,21.021c-1.325,0-2.573-0.513-3.515-1.445c-0.095-0.094-0.148-0.219-0.148-0.353
		c-0.001-0.134,0.051-0.26,0.145-0.354c0.094-0.096,0.22-0.149,0.355-0.149c0.133,0,0.258,0.052,0.352,0.145
		c0.753,0.745,1.752,1.155,2.812,1.155c0.002,0,0.01,0,0.012,0c0.275,0,0.499,0.224,0.5,0.499c0.001,0.276-0.223,0.5-0.499,0.501
		c0,0-0.001,0-0.001,0H7.988z"/>
	<path d="M8.01,23.999c-2.113,0-4.107-0.816-5.615-2.298c-1.526-1.5-2.377-3.505-2.395-5.645C0,12.567,4.998,4,7.146,0.479
		C7.229,0.344,7.344,0.229,7.48,0.146C7.637,0.05,7.816-0.001,7.999-0.001c0.079,0,0.159,0.01,0.237,0.028
		c0.26,0.063,0.479,0.224,0.618,0.452c2.088,3.371,3.993,6.907,5.664,10.51c0.056,0.121,0.062,0.257,0.016,0.382
		s-0.138,0.225-0.259,0.282c-0.067,0.031-0.137,0.047-0.21,0.047c-0.194,0-0.372-0.114-0.454-0.29
		c-1.653-3.566-3.54-7.067-5.608-10.407C6.358,3.691,1,12.729,1,16.052c0.016,1.869,0.76,3.623,2.096,4.936
		C4.416,22.285,6.149,23,7.976,23l0.094-0.001c1.56-0.013,3.089-0.555,4.308-1.525c0.089-0.07,0.199-0.109,0.312-0.109
		c0.153,0,0.296,0.069,0.391,0.189c0.171,0.216,0.135,0.531-0.08,0.702c-1.393,1.109-3.14,1.728-4.921,1.743L8.01,23.999z"/>
</g>
</svg>
