<?xml version="1.0" encoding="utf-8"?>
<!-- Generator: Adobe Illustrator 22.1.0, SVG Export Plug-In . SVG Version: 6.00 Build 0)  -->
<svg version="1.1" id="Light" xmlns="http://www.w3.org/2000/svg" xmlns:xlink="http://www.w3.org/1999/xlink" x="0px" y="0px"
	 viewBox="0 0 24 24" style="enable-background:new 0 0 24 24;" xml:space="preserve">
<g>
	<title>dog-poop-clean</title>
	<path d="M9.499,5c-1.379,0-2.5-1.121-2.5-2.5S8.121,0,9.499,0s2.5,1.121,2.5,2.5S10.878,5,9.499,5z M9.499,1
		c-0.827,0-1.5,0.673-1.5,1.5S8.672,4,9.499,4s1.5-0.673,1.5-1.5S10.326,1,9.499,1z"/>
	<path d="M2.501,20c-1.379,0-2.5-1.122-2.5-2.5c0-0.705,0.573-1.816,1.702-3.302C1.889,13.949,2.188,13.8,2.502,13.8
		c0.218,0,0.425,0.069,0.599,0.199c0.076,0.058,0.144,0.125,0.2,0.2c1.144,1.513,1.7,2.593,1.7,3.3C5.001,18.878,3.88,20,2.501,20z
		 M2.501,14.8c-1.106,1.456-1.5,2.349-1.5,2.7c0,0.827,0.673,1.5,1.5,1.5s1.5-0.673,1.5-1.5c0-0.168-0.108-0.858-1.499-2.699
		C2.502,14.801,2.501,14.8,2.501,14.8z"/>
	<path d="M15.501,24c-0.276,0-0.5-0.224-0.5-0.5v-3c0-0.827,0.673-1.5,1.5-1.5h1.291l-3.916-3.916
		C13.647,15.623,13.111,16,12.501,16c-0.173,0-0.341-0.029-0.5-0.085V22c0,1.103-0.897,2-2,2h-1c-1.103,0-2-0.897-2-2V10.5
		c0-0.276,0.224-0.5,0.5-0.5s0.5,0.224,0.5,0.5V22c0,0.552,0.449,1,1,1h1c0.551,0,1-0.448,1-1v-6.97
		C11,15.02,10.999,15.01,10.999,15v-4.5c0-0.276,0.224-0.5,0.5-0.5s0.5,0.224,0.5,0.5v3.97c0.001,0.01,0.002,0.021,0.002,0.03
		c0,0.276,0.224,0.5,0.5,0.5c0.276,0,0.5-0.224,0.5-0.5l0.008-4.832C12.828,8.146,11.539,7,10.004,7H9.262
		C7.713,7,6.42,8.158,6.252,9.694C6.138,10.724,5.272,11.5,4.236,11.5H2.001c-0.276,0-0.5,0.224-0.5,0.5c0,0.276,0.224,0.5,0.5,0.5
		h2.234c0.429-0.002,0.84-0.088,1.223-0.257C5.521,12.214,5.589,12.2,5.66,12.2c0.198,0,0.377,0.117,0.457,0.298
		c0.054,0.122,0.057,0.258,0.009,0.383c-0.048,0.125-0.142,0.223-0.264,0.277C5.349,13.385,4.804,13.5,4.242,13.5H2.001
		c-0.827,0-1.5-0.673-1.5-1.5s0.673-1.5,1.5-1.5h2.234c0.526,0,0.965-0.393,1.023-0.915C5.482,7.541,7.202,6,9.258,6h0.743
		c2.06,0,3.78,1.541,4.005,3.585c0.002,0.019,0.003,0.037,0.003,0.055l-0.007,4.156L19.206,19h0.904l0.295-1.184
		c0.086-0.335,0.386-0.568,0.729-0.568c0.062,0,0.124,0.008,0.185,0.023c0.134,0.035,0.256,0.105,0.352,0.203l1.811,1.878
		c0.299,0.26,0.488,0.645,0.517,1.069c0.029,0.432-0.111,0.849-0.395,1.175l-0.031,0.035l-0.214,0.215
		c-0.283,0.284-0.66,0.44-1.061,0.44l0,0c-0.231,0-0.463-0.055-0.67-0.158l-0.356-0.184c-0.119-0.061-0.207-0.165-0.247-0.292
		c-0.041-0.127-0.029-0.263,0.032-0.381C21.143,21.104,21.314,21,21.501,21c0.079,0,0.159,0.02,0.229,0.056l0.35,0.181
		c0.066,0.033,0.14,0.05,0.217,0.05c0.134,0,0.26-0.052,0.354-0.147l0.212-0.214c0.096-0.11,0.148-0.267,0.137-0.43
		c-0.011-0.163-0.085-0.312-0.208-0.419l-1.526-1.581l-0.281,1.125C20.931,19.844,20.731,20,20.501,20h-4
		c-0.276,0-0.5,0.224-0.5,0.5v3C16.001,23.776,15.777,24,15.501,24z"/>
	<path d="M20.499,24c-0.276,0-0.5-0.224-0.5-0.5V23h-2v0.5c0,0.276-0.224,0.5-0.5,0.5s-0.5-0.224-0.5-0.5v-1
		c0-0.276,0.224-0.5,0.5-0.5h3c0.276,0,0.5,0.224,0.5,0.5v1C20.999,23.776,20.775,24,20.499,24z"/>
</g>
</svg>
