<?xml version="1.0" encoding="utf-8"?>
<!-- Generator: Adobe Illustrator 22.1.0, SVG Export Plug-In . SVG Version: 6.00 Build 0)  -->
<svg version="1.1" id="Light" xmlns="http://www.w3.org/2000/svg" xmlns:xlink="http://www.w3.org/1999/xlink" x="0px" y="0px"
	 viewBox="0 0 24 24" style="enable-background:new 0 0 24 24;" xml:space="preserve">
<g>
	<title>dog-carrier</title>
	<path d="M21,24c-0.236,0-0.436-0.16-0.488-0.39L19.248,18c-0.07-0.217-0.108-0.482-0.105-0.746
		c0.003-0.244,0.042-0.486,0.116-0.722l-2.077-2.124l-1.614,3.552c-0.095,0.208-0.218,0.4-0.365,0.573l-1.822,2.125
		c-0.435,0.509-0.459,1.239-0.057,1.775C13.591,22.788,14.016,23,14.46,23c0.276,0,0.5,0.224,0.5,0.5s-0.224,0.5-0.5,0.5
		c-0.758,0-1.481-0.362-1.936-0.968c-0.112-0.149-0.206-0.311-0.281-0.482c-0.11,0.014-0.212,0.02-0.31,0.02
		c-1.162,0-2.232-0.723-2.663-1.798l-0.234-0.586c-0.102-0.256,0.023-0.548,0.279-0.65C9.374,19.512,9.436,19.5,9.5,19.5
		c0.206,0,0.388,0.124,0.464,0.315l0.234,0.586c0.28,0.698,0.976,1.167,1.734,1.167c0.035,0,0.071-0.001,0.106-0.003
		c0.002-0.57,0.205-1.115,0.583-1.558l1.822-2.125c0.086-0.101,0.159-0.215,0.215-0.337l2.374-5.225
		c0.403-1.24,1.547-2.072,2.852-2.072c0.044,0,0.087,0.001,0.131,0.003c0.782,0.004,1.5,0.479,1.82,1.209
		c0.086,0.173,0.282,0.292,0.497,0.291c0.003,0,0.029,0,0.03,0c0.913,0.012,1.648,0.758,1.638,1.664
		c0.014,1.271-1.015,2.321-2.294,2.336c0,0,0,0,0,0c-0.573,0-1.082,0.294-1.357,0.77c-0.016,0.086-0.053,0.166-0.109,0.232
		c-0.062,0.166-0.094,0.338-0.096,0.513c-0.002,0.161,0.021,0.322,0.07,0.476L21.4,23H22c0.276,0,0.5,0.224,0.5,0.5S22.276,24,22,24
		H21z M19.767,15.621c0.48-0.55,1.179-0.871,1.922-0.871c0.736-0.008,1.32-0.607,1.312-1.336c0.004-0.364-0.282-0.66-0.637-0.664
		c-0.008,0.001-0.03,0.001-0.052,0.001c-0.579,0-1.121-0.342-1.382-0.87c-0.169-0.385-0.535-0.629-0.938-0.631
		c-0.039-0.001-0.068-0.002-0.097-0.002c-0.884,0-1.654,0.563-1.917,1.401c-0.005,0.018-0.013,0.039-0.022,0.059l-0.329,0.723
		L19.767,15.621z"/>
	<path d="M16.5,24c-0.166,0-0.321-0.082-0.414-0.22c-0.093-0.138-0.112-0.312-0.05-0.466l0.33-0.826
		c0.359-0.896,0.253-1.909-0.282-2.711c-0.074-0.111-0.101-0.244-0.074-0.375c0.026-0.131,0.102-0.244,0.213-0.318
		C16.305,19.029,16.401,19,16.5,19c0.168,0,0.323,0.083,0.416,0.223c0.718,1.076,0.859,2.436,0.378,3.637L17.238,23H18
		c0.276,0,0.5,0.224,0.5,0.5S18.276,24,18,24H16.5z"/>
	<path d="M4.281,18c-0.69,0-1.288-0.468-1.455-1.137l-1.7-4.916C0.474,11.779,0,11.182,0,10.5s0.474-1.278,1.126-1.447l1.709-4.949
		C3.001,3.462,3.598,3,4.281,3H7c0.028-1.622,1.343-2.959,2.988-3c1.661,0.04,2.98,1.373,3.013,3h2.219
		c0.69,0,1.288,0.467,1.456,1.135l1.798,5.201c0.014,0.041,0.022,0.083,0.025,0.129C18.499,9.478,18.5,9.489,18.5,9.5
		c0,0.012-0.001,0.025-0.003,0.038c-0.003,0.05-0.015,0.104-0.036,0.153c-0.004,0.01-0.011,0.024-0.016,0.033
		c-0.004,0.01-0.019,0.039-0.038,0.066c-0.008,0.011-0.031,0.037-0.04,0.046c-0.001,0.001-0.021,0.022-0.022,0.023
		c-0.042,0.04-0.088,0.071-0.139,0.094c-0.008,0.004-0.026,0.011-0.034,0.013C18.115,9.989,18.058,10,18,10H1.5
		C1.224,10,1,10.225,1,10.5S1.224,11,1.5,11h14c0.276,0,0.5,0.224,0.5,0.5S15.776,12,15.5,12H2.202l1.582,4.579
		C3.85,16.839,4.048,17,4.281,17H12.5c0.276,0,0.5,0.224,0.5,0.5S12.776,18,12.5,18H4.281z M17.299,9l-1.581-4.58
		C15.651,4.161,15.453,4,15.22,4H4.281c-0.23,0-0.429,0.156-0.485,0.378c-0.002,0.006-0.01,0.033-0.012,0.039L2.202,9H17.299z
		 M11.999,3c-0.038-1.088-0.913-1.97-2.005-2C8.905,1.031,8.033,1.917,8,3H11.999z"/>
	<path d="M13,16c-0.276,0-0.5-0.224-0.5-0.5v-2c0-0.276,0.224-0.5,0.5-0.5s0.5,0.224,0.5,0.5v2C13.5,15.776,13.276,16,13,16z"/>
	<path d="M10,16c-0.276,0-0.5-0.224-0.5-0.5v-2c0-0.276,0.224-0.5,0.5-0.5s0.5,0.224,0.5,0.5v2C10.5,15.776,10.276,16,10,16z"/>
	<path d="M13,8c-0.276,0-0.5-0.224-0.5-0.5v-2C12.5,5.225,12.725,5,13,5s0.5,0.224,0.5,0.5v2C13.5,7.776,13.276,8,13,8z"/>
	<path d="M10,8C9.724,8,9.5,7.776,9.5,7.5v-2C9.5,5.225,9.724,5,10,5s0.5,0.224,0.5,0.5v2C10.5,7.776,10.276,8,10,8z"/>
	<path d="M7,16c-0.276,0-0.5-0.224-0.5-0.5v-2C6.5,13.225,6.724,13,7,13s0.5,0.224,0.5,0.5v2C7.5,15.776,7.276,16,7,16z"/>
	<path d="M7,8C6.724,8,6.5,7.776,6.5,7.5v-2C6.5,5.225,6.724,5,7,5s0.5,0.224,0.5,0.5v2C7.5,7.776,7.276,8,7,8z"/>
</g>
</svg>
