<?xml version="1.0" encoding="utf-8"?>
<!-- Generator: Adobe Illustrator 22.1.0, SVG Export Plug-In . SVG Version: 6.00 Build 0)  -->
<svg version="1.1" id="Light" xmlns="http://www.w3.org/2000/svg" xmlns:xlink="http://www.w3.org/1999/xlink" x="0px" y="0px"
	 viewBox="0 0 24 24" style="enable-background:new 0 0 24 24;" xml:space="preserve">
<g>
	<title>dog-mouth-protection-1</title>
	<path d="M0.501,21.25c-0.184,0-0.353-0.101-0.441-0.263c-0.13-0.243-0.039-0.547,0.204-0.677l2.978-1.6
		c2.323-1.136,4.799-1.786,7.371-1.938c0.196-1.042,0.985-2.162,1.89-3.445c1.165-1.652,2.482-3.52,2.557-5.41
		c-1.61-2.038-3.954-3.458-6.514-3.961C8.875,4.539,9.001,5.225,9.001,5.75l0.498,5.455c0.015,0.68-0.227,1.308-0.682,1.785
		c-0.454,0.477-1.066,0.747-1.723,0.76l-1.641,0c-0.633,0-1.235-0.243-1.696-0.684C3.283,12.612,3.015,12,3.001,11.343
		C3,11.309,3,11.274,3.001,11.239c0.006-0.27,0.23-0.49,0.5-0.49c0.145,0.003,0.269,0.058,0.361,0.154
		C3.954,11.001,4.004,11.127,4,11.261c0,0.02,0,0.041,0,0.061c0.008,0.39,0.168,0.753,0.449,1.022
		c0.277,0.265,0.629,0.406,1.019,0.406c0.001,0,1.606,0,1.606,0c0.803-0.017,1.444-0.685,1.427-1.49L8.003,5.795
		C7.999,5.568,7.939,3.75,6.501,3.75c-0.049,0-0.086-0.01-0.106-0.016c-0.016-0.002-0.05-0.007-0.088-0.023
		C6.264,3.692,6.234,3.67,6.219,3.657C6.205,3.649,6.177,3.633,6.148,3.604C6.117,3.573,6.1,3.544,6.091,3.528
		C6.079,3.513,6.057,3.484,6.04,3.445C6.023,3.403,6.018,3.368,6.016,3.35C6.01,3.331,6.001,3.296,6.001,3.25c0,0,0-0.003,0-0.004
		c0-0.014,0.002-0.028,0.004-0.042C6.006,3.2,6.006,3.196,6.007,3.193c0.004-0.04,0.012-0.089,0.035-0.14
		C6.12,2.869,6.294,2.75,6.485,2.75c0.001,0,0.013,0,0.016,0c3.607,0.01,7.086,1.701,9.329,4.529l5.978,0.748
		c1.331,0.164,2.291,1.341,2.186,2.679c-0.443,5.822-2.652,7.045-4.427,7.045h-8.565c-2.542,0.103-5.002,0.725-7.302,1.849
		L0.737,21.19C0.665,21.229,0.583,21.25,0.501,21.25z M19.001,16.75v-4h-3v4H19.001z M15.001,16.75v-5.434
		c-0.504,0.919-1.12,1.792-1.68,2.588c-0.739,1.049-1.442,2.045-1.675,2.847H15.001z M20.001,16.711
		c1.316-0.239,2.25-1.598,2.718-3.961h-2.718V16.711z M22.881,11.75c0.047-0.358,0.085-0.734,0.115-1.122
		c0.064-0.804-0.512-1.51-1.312-1.609l-1.684-0.211v2.941H22.881z M19.001,11.75V8.683l-2.966-0.371
		c-0.009,0.08-0.021,0.164-0.034,0.255v3.182H19.001z"/>
	<path d="M23.501,7.25c-0.146,0-0.285-0.064-0.38-0.175l-1.047-1.222c-1.205-1.255-2.842-2.005-4.601-2.104
		c-0.134-0.007-0.256-0.066-0.345-0.166s-0.134-0.228-0.126-0.361C17.016,2.957,17.235,2.75,17.5,2.75
		c0.005,0,0.025,0.001,0.03,0.001c2.012,0.113,3.889,0.976,5.284,2.431l1.066,1.243c0.179,0.209,0.155,0.525-0.054,0.705
		C23.735,7.207,23.619,7.25,23.501,7.25z"/>
	<path d="M12.001,9.5c-0.414,0-0.75-0.336-0.75-0.75S11.587,8,12.001,8c0.414,0,0.75,0.336,0.75,0.75S12.414,9.5,12.001,9.5z"/>
</g>
</svg>
