<?xml version="1.0" encoding="utf-8"?>
<!-- Generator: Adobe Illustrator 22.1.0, SVG Export Plug-In . SVG Version: 6.00 Build 0)  -->
<svg version="1.1" id="Light" xmlns="http://www.w3.org/2000/svg" xmlns:xlink="http://www.w3.org/1999/xlink" x="0px" y="0px"
	 viewBox="0 0 24 24" style="enable-background:new 0 0 24 24;" xml:space="preserve">
<g>
	<title>dog-collar</title>
	<path d="M12.033,19.5c-1.195,0-2.371-0.06-3.494-0.179c-0.012,0.002-0.025,0.003-0.039,0.003c-0.05,0-0.101-0.008-0.15-0.023
		C3.277,18.732,0,17.074,0,15.072V9c0-0.018,0.005-0.051,0.01-0.075C0.207,6.442,5.478,4.5,12.033,4.5
		c6.517,0,11.758,1.941,11.957,4.423C23.995,8.942,24,8.968,24,9v6.072C24,17.596,18.855,19.5,12.033,19.5z M9,18.362
		c0.982,0.091,2.001,0.138,3.033,0.138c1.009,0,2.006-0.045,2.967-0.133V13.37c-0.966,0.086-1.963,0.13-2.967,0.13
		c-1.027,0-2.046-0.045-3.033-0.135V18.362z M16,18.257c4.549-0.582,7-2.062,7-3.185v-4.165c-1.304,1.118-3.794,1.962-7,2.356
		V18.257z M1,15.072c0,1.117,2.451,2.594,7,3.18v-4.994c-3.207-0.398-5.697-1.24-7-2.355V15.072z M8.573,12.32
		c1.105,0.119,2.27,0.18,3.46,0.18c1.144,0,2.267-0.057,3.339-0.169c0.036-0.01,0.079-0.02,0.128-0.02
		c0.01,0,0.022,0.001,0.034,0.003c1.398-0.155,2.701-0.407,3.818-0.738c-2.169-0.719-4.425-1.083-6.717-1.083
		c-0.196,0-0.392,0.003-0.589,0.008c-3.783,0-5.474,0.63-6.939,1.198c1.016,0.271,2.15,0.477,3.379,0.614c0.005,0,0.009,0,0.013,0
		C8.519,12.311,8.55,12.315,8.573,12.32z M12.033,5.5C5.197,5.5,1,7.58,1,9.072C1,9.78,1.957,10.573,3.566,11.2
		c0.366-0.12,0.714-0.254,1.096-0.402C6.228,10.19,8.004,9.5,12.033,9.5c0.198-0.005,0.402-0.008,0.607-0.008
		c2.809,0,5.562,0.523,8.185,1.554C22.209,10.442,23,9.725,23,9.072C23,7.58,18.828,5.5,12.033,5.5z"/>
	<circle cx="6.033" cy="15.5" r="0.75"/>
	<circle cx="3.033" cy="14.5" r="0.75"/>
	<circle cx="18.033" cy="15.5" r="0.75"/>
	<circle cx="21.033" cy="14.5" r="0.75"/>
</g>
</svg>
