<?xml version="1.0" encoding="utf-8"?>
<!-- Generator: Adobe Illustrator 22.1.0, SVG Export Plug-In . SVG Version: 6.00 Build 0)  -->
<svg version="1.1" id="Light" xmlns="http://www.w3.org/2000/svg" xmlns:xlink="http://www.w3.org/1999/xlink" x="0px" y="0px"
	 viewBox="0 0 24 24" style="enable-background:new 0 0 24 24;" xml:space="preserve">
<g>
	<title>dog-small</title>
	<path d="M15.479,8.148c-0.386-0.013-0.697-0.315-0.723-0.698c-0.003-0.018-0.005-0.036-0.005-0.051c0-0.414,0.336-0.75,0.75-0.75
		c0,0,0.002,0,0.002,0c0.203,0.001,0.392,0.079,0.533,0.222c0.141,0.142,0.218,0.331,0.217,0.531c0,0.015-0.002,0.035-0.006,0.053
		c-0.01,0.173-0.087,0.347-0.218,0.477c-0.138,0.137-0.322,0.214-0.517,0.217c-0.003,0-0.007,0-0.01,0
		C15.502,8.149,15.486,8.148,15.479,8.148z"/>
	<path d="M20.479,8.148c-0.386-0.013-0.697-0.315-0.723-0.698c-0.003-0.018-0.005-0.036-0.005-0.051c0-0.414,0.336-0.75,0.75-0.75
		c0,0,0.002,0,0.002,0c0.203,0.001,0.392,0.079,0.533,0.222c0.141,0.142,0.218,0.331,0.217,0.531c0,0.015-0.002,0.035-0.006,0.053
		c-0.01,0.173-0.087,0.347-0.218,0.477c-0.138,0.137-0.322,0.214-0.517,0.217c-0.003,0-0.007,0-0.01,0
		C20.502,8.149,20.486,8.148,20.479,8.148z"/>
	<path d="M20,22.148c-0.167,0-0.323-0.083-0.416-0.223l-1.205-1.807c-0.128,0.014-0.244,0.024-0.357,0.029
		c-2.586,0-3.021,1.559-3.038,1.625c-0.058,0.221-0.257,0.375-0.484,0.375H13c-0.23,0-0.429-0.156-0.485-0.379l-0.311-1.24
		c-0.056-0.223-0.255-0.378-0.485-0.378H7.281c-0.23,0-0.429,0.156-0.485,0.378l-0.311,1.24C6.429,21.993,6.23,22.148,6,22.148H4
		c-0.155,0-0.303-0.073-0.398-0.197c-0.496-0.651-0.86-1.38-1.083-2.167c-0.182-0.903-0.316-1.811-0.402-2.719
		c-0.302,0.135-0.628,0.206-0.962,0.206c-0.288,0-0.569-0.053-0.836-0.157C0.122,17.038-0.006,16.844,0,16.633
		c0.038-1.216,0.211-2.43,0.516-3.609C1.141,10.525,3.088,9.149,6,9.149h6v-6.5c0-0.302,0.141-0.55,0.386-0.682
		c0.115-0.061,0.253-0.092,0.413-0.092c0.744,0,1.948,0.683,2.851,1.274h4.7c0.903-0.591,2.107-1.274,2.851-1.274
		c0.16,0,0.299,0.031,0.413,0.093C23.859,2.099,24,2.347,24,2.649v10c0.038,2.626-0.467,5.185-1.5,7.603v1.397
		c0,0.276-0.224,0.5-0.5,0.5H20z M21.5,21.148v-1c0-0.069,0.014-0.136,0.042-0.199c1.004-2.315,1.494-4.77,1.458-7.293v-9.77
		c-0.401,0.121-1.276,0.548-2.223,1.179C20.695,4.12,20.599,4.149,20.5,4.149h-5c-0.099,0-0.195-0.029-0.277-0.084
		c-0.976-0.65-1.83-1.057-2.222-1.17l0,6.754c0,0.276-0.224,0.5-0.5,0.5H6c-3.087,0-4.159,1.697-4.515,3.121
		c-0.253,0.98-0.41,1.987-0.468,2.995c0.047,0.005,0.095,0.008,0.143,0.008c0.32,0,0.633-0.117,0.875-0.325
		C2.013,15.503,2.001,15.067,2,14.649c0-0.276,0.223-0.5,0.499-0.501c0.276,0,0.5,0.224,0.501,0.499
		c0.003,1.643,0.168,3.292,0.49,4.903c0.16,0.558,0.418,1.101,0.764,1.598H5.61l0.216-0.862c0.167-0.668,0.766-1.135,1.455-1.135
		h4.438c0.689,0,1.288,0.467,1.455,1.135l0.216,0.862h0.769c0.302-0.625,1.26-2,3.841-2c0.612-0.028,1.216-0.18,1.784-0.451
		c0.068-0.032,0.141-0.049,0.216-0.049c0.191,0,0.368,0.112,0.451,0.284c0.119,0.249,0.013,0.548-0.235,0.667
		c-0.249,0.119-0.51,0.22-0.78,0.302l0.831,1.246H21.5z"/>
	<path d="M20,12.649c-0.862,0-1.557-0.396-2-1.129c-0.443,0.732-1.138,1.129-2,1.129c-0.276,0-0.5-0.224-0.5-0.5s0.224-0.5,0.5-0.5
		c0.613,0,1.034-0.306,1.286-0.936c0.078-0.195,0.128-0.392,0.159-0.564H17c-0.276,0-0.5-0.224-0.5-0.5s0.224-0.5,0.5-0.5h2
		c0.276,0,0.5,0.224,0.5,0.5s-0.224,0.5-0.5,0.5h-0.449c0.114,0.656,0.454,1.5,1.449,1.5c0.276,0,0.5,0.224,0.5,0.5
		S20.276,12.649,20,12.649z"/>
</g>
</svg>
