<?xml version="1.0" encoding="utf-8"?>
<!-- Generator: Adobe Illustrator 22.1.0, SVG Export Plug-In . SVG Version: 6.00 Build 0)  -->
<svg version="1.1" id="Light" xmlns="http://www.w3.org/2000/svg" xmlns:xlink="http://www.w3.org/1999/xlink" x="0px" y="0px"
	 viewBox="0 0 24 24" style="enable-background:new 0 0 24 24;" xml:space="preserve">
<g>
	<title>dog-house</title>
	<path d="M1.5,23.927c-0.827,0-1.5-0.673-1.5-1.5V7.51c0-0.54,0.292-1.04,0.762-1.305l10.5-5.939C11.486,0.14,11.741,0.073,12,0.073
		c0.259,0,0.514,0.067,0.738,0.193l10.5,5.939C23.708,6.471,24,6.971,24,7.51v14.917c0,0.827-0.673,1.5-1.5,1.5H1.5z M22.5,22.927
		c0.276,0,0.5-0.224,0.5-0.5V7.51c0-0.179-0.098-0.346-0.254-0.435L21,6.088v3.339c0,0.276-0.224,0.5-0.5,0.5S20,9.703,20,9.427
		V5.523L16,3.26v5.667c0,0.276-0.224,0.5-0.5,0.5S15,9.203,15,8.927V2.695l-2.754-1.558C12.172,1.095,12.087,1.073,12,1.073
		s-0.172,0.022-0.246,0.064L9,2.695v5.233c0,0.276-0.224,0.5-0.5,0.5S8,8.203,8,7.927V3.26L4,5.523v17.405h16v-5.5
		c0-0.276,0.224-0.5,0.5-0.5s0.5,0.224,0.5,0.5v5.5H22.5z M1.254,7.076C1.097,7.164,1,7.331,1,7.511v14.917
		c0,0.276,0.224,0.5,0.5,0.5H3V6.088L1.254,7.076z"/>
	<path d="M17.23,21.912c-0.27,0-0.495-0.22-0.5-0.49c-0.029-1.5,0.123-3.003,0.451-4.467c0.02-0.176,0.068-0.366,0.138-0.555
		l-2.096-2.211c-0.583,0.467-1.299,0.728-2.043,0.739H9.411c-1.369,0-2.35-0.472-2.762-1.328c-0.361-0.75-0.236-1.704,0.334-2.7
		C6.366,11.365,5.986,12.109,6,12.919c-0.01,0.951,0.497,1.815,1.325,2.26c0.212,0.114,0.313,0.364,0.239,0.593
		c-0.592,1.843-0.984,3.754-1.166,5.681c-0.024,0.259-0.237,0.453-0.494,0.453c-0.018,0-0.036-0.001-0.055-0.003
		C5.72,21.892,5.6,21.828,5.515,21.725C5.43,21.622,5.39,21.493,5.402,21.36c0.177-1.867,0.544-3.723,1.093-5.519
		C5.543,15.174,4.987,14.097,5,12.922c-0.028-1.563,1.011-2.961,2.526-3.391C7.595,9.514,7.66,9.505,7.725,9.505
		c0.171,0,0.338,0.058,0.47,0.164c0.323,0.259,0.375,0.732,0.117,1.055c-0.756,0.947-1.041,1.86-0.762,2.441
		c0.236,0.491,0.897,0.762,1.861,0.762h3.762c0.642-0.01,1.263-0.292,1.702-0.777c0.007-0.009,0.025-0.028,0.027-0.03
		c0.184-0.208,0.332-0.454,0.432-0.724c0.308-1.278,1.438-2.19,2.754-2.219c0.772,0.009,1.47,0.461,1.785,1.151
		c0.095,0.208,0.305,0.345,0.535,0.349c0.902,0.024,1.615,0.773,1.592,1.671c0.03,1.24-0.97,2.291-2.23,2.329
		c-0.817,0.017-1.506,0.639-1.605,1.447c-0.318,1.427-0.463,2.859-0.435,4.277c0.005,0.276-0.215,0.504-0.49,0.51
		c-0.002,0-0.003,0-0.005,0H17.23z M17.866,15.522c0.487-0.518,1.17-0.829,1.878-0.845c0.708-0.021,1.273-0.618,1.256-1.33
		c0.009-0.366-0.266-0.661-0.612-0.67c-0.608-0.01-1.168-0.376-1.424-0.932c-0.155-0.34-0.494-0.562-0.866-0.568
		c-0.864,0.022-1.602,0.628-1.796,1.475c-0.004,0.02-0.01,0.04-0.017,0.059c-0.094,0.261-0.221,0.51-0.379,0.742L17.866,15.522z"/>
	<path d="M15.077,21.944c-0.253,0-0.466-0.19-0.496-0.441c-0.141-1.194-1.153-2.094-2.354-2.094c-0.089,0-0.18,0.005-0.27,0.015
		c-0.016,0.002-0.036,0.003-0.057,0.003h-1.067c-0.038-0.001-0.066-0.002-0.095-0.002c-1.179,0-2.136,0.882-2.227,2.051
		c-0.02,0.259-0.238,0.462-0.496,0.462c-0.007,0-0.036-0.001-0.043-0.002c-0.273-0.021-0.479-0.262-0.458-0.537
		c0.131-1.696,1.515-2.974,3.219-2.974c0.039,0,0.079,0.001,0.119,0.002l1.021,0c0.117-0.012,0.235-0.018,0.351-0.018
		c1.709,0,3.149,1.279,3.349,2.976c0.016,0.133-0.021,0.263-0.104,0.368c-0.083,0.105-0.201,0.171-0.334,0.187
		C15.116,21.943,15.096,21.944,15.077,21.944z"/>
</g>
</svg>
