<?xml version="1.0" encoding="utf-8"?>
<!-- Generator: Adobe Illustrator 22.1.0, SVG Export Plug-In . SVG Version: 6.00 Build 0)  -->
<svg version="1.1" id="Light" xmlns="http://www.w3.org/2000/svg" xmlns:xlink="http://www.w3.org/1999/xlink" x="0px" y="0px"
	 viewBox="0 0 24 24" style="enable-background:new 0 0 24 24;" xml:space="preserve">
<g>
	<title>dog-mouth-protection</title>
	<path d="M0.524,20.754c-0.175,0-0.339-0.093-0.429-0.243c-0.069-0.115-0.089-0.249-0.056-0.378c0.032-0.13,0.113-0.239,0.228-0.308
		l1.57-0.942c2.357-1.281,5.004-2.015,7.666-2.129l1.089,0c0.059-0.298,0.169-0.618,0.333-0.968
		c-0.057,0.001-0.114,0.001-0.171,0.001c-2.413,0-4.834-0.558-7.001-1.614c-0.248-0.121-0.351-0.421-0.23-0.669
		c0.085-0.173,0.257-0.281,0.45-0.281c0.076,0,0.149,0.017,0.217,0.05c2.031,0.99,4.298,1.513,6.557,1.513
		c0.249,0,0.501-0.006,0.75-0.019c0.292-0.461,0.627-0.936,0.98-1.437c1.167-1.655,2.488-3.528,2.557-5.421
		c-0.44-0.575-2.304-2.714-6.275-3.678C8.492,4.167,8.327,3.896,8.392,3.628c0.054-0.225,0.254-0.382,0.486-0.382
		c0.04,0,0.079,0.005,0.118,0.014c4.286,1.041,6.323,3.372,6.822,4.025l5.965,0.746c1.328,0.167,2.288,1.343,2.186,2.677
		c-0.443,5.823-2.653,7.046-4.428,7.046H9.524c-2.493,0.107-4.983,0.798-7.191,1.998l-1.551,0.931
		C0.703,20.729,0.615,20.754,0.524,20.754z M18.976,16.754v-4h-3v4H18.976z M14.976,16.754v-5.437
		c-0.504,0.92-1.12,1.794-1.681,2.59c-0.74,1.049-1.442,2.045-1.675,2.847H14.976z M19.976,16.715
		c1.328-0.232,2.24-1.562,2.715-3.961h-2.715V16.715z M22.855,11.754c0.048-0.359,0.087-0.735,0.116-1.122
		c0.062-0.802-0.515-1.509-1.313-1.609l-1.682-0.21v2.941H22.855z M18.976,11.754V8.687l-2.967-0.371
		C16,8.394,15.989,8.476,15.976,8.564v3.189H18.976z"/>
	<path d="M11.976,9.504c-0.414,0-0.75-0.336-0.75-0.75c0-0.001,0-0.003,0-0.004c0-0.414,0.336-0.75,0.75-0.75
		c0.036,0,0.064,0.006,0.082,0.011c0.37,0.041,0.653,0.343,0.667,0.715c0.001,0.008,0.001,0.027,0.001,0.028
		c0,0.009,0,0.017-0.001,0.026c-0.017,0.373-0.298,0.672-0.666,0.713C12.039,9.498,12.011,9.504,11.976,9.504z"/>
</g>
</svg>
