<?xml version="1.0" encoding="utf-8"?>
<!-- Generator: Adobe Illustrator 22.1.0, SVG Export Plug-In . SVG Version: 6.00 Build 0)  -->
<svg version="1.1" id="Light" xmlns="http://www.w3.org/2000/svg" xmlns:xlink="http://www.w3.org/1999/xlink" x="0px" y="0px"
	 viewBox="0 0 24 24" style="enable-background:new 0 0 24 24;" xml:space="preserve">
<g>
	<title>dog-house-1</title>
	<path d="M4.001,23.791c-0.551,0-1-0.448-1-1v-12.79l-2.146,2.146c-0.094,0.094-0.22,0.147-0.354,0.147s-0.259-0.052-0.354-0.147
		c-0.195-0.195-0.195-0.512,0-0.707L10.94,0.647c0.283-0.283,0.659-0.439,1.06-0.439c0.401,0,0.778,0.156,1.061,0.439L23.854,11.44
		c0.195,0.195,0.195,0.512,0,0.707c-0.094,0.094-0.22,0.147-0.354,0.147s-0.259-0.052-0.354-0.147L21,10.001v1.293
		c0,0.276-0.224,0.5-0.5,0.5s-0.5-0.224-0.5-0.5V9.001l-7.646-7.646c-0.094-0.094-0.22-0.146-0.353-0.146
		c-0.134,0-0.259,0.052-0.354,0.146L4.001,9.001v13.79h3v-6.79c-0.043-2.731,2.062-5.016,4.794-5.199
		c0.073-0.003,0.139-0.004,0.203-0.004c0.186,0,0.373,0.01,0.557,0.03c0.274,0.03,0.473,0.277,0.443,0.551
		c-0.028,0.254-0.242,0.446-0.499,0.446c-0.008,0-0.041-0.002-0.05-0.002c-0.15-0.016-0.301-0.024-0.452-0.024
		c-0.05,0-0.101,0.001-0.151,0.003c-2.188,0.146-3.88,1.988-3.845,4.192v6.798c0,0.552-0.449,1-1,1H4.001z"/>
	<path d="M18.719,16.784c-0.406-0.004-0.737-0.331-0.749-0.73c-0.001-0.008-0.001-0.027-0.001-0.028c0-0.008,0-0.016,0.001-0.024
		c0.014-0.4,0.343-0.724,0.741-0.729c0.001,0,0.009,0,0.01,0c0.203,0.002,0.391,0.082,0.532,0.225
		c0.134,0.136,0.21,0.315,0.215,0.505c0.001,0.008,0.001,0.026,0.001,0.027c0,0.007,0,0.015-0.001,0.022
		c-0.005,0.191-0.08,0.37-0.213,0.506c-0.141,0.144-0.329,0.224-0.53,0.226c-0.001,0-0.002,0-0.003,0H18.719z"/>
	<path d="M16.475,23.362c-0.134,0-0.259-0.052-0.354-0.146l-5.16-5.161l-1.083,0.862c-0.088,0.07-0.199,0.109-0.311,0.109
		c-0.153,0-0.296-0.069-0.391-0.188c-0.083-0.105-0.121-0.235-0.106-0.368c0.015-0.133,0.081-0.252,0.186-0.335l4.449-3.542
		c0.668-3.752,3.238-4.573,3.347-4.607c0.047-0.014,0.096-0.021,0.145-0.021c0.106,0,0.212,0.035,0.298,0.098
		c0.127,0.094,0.202,0.244,0.202,0.402v2.337h2.021c0.971,0,1.761,0.79,1.761,1.761v0.63c0,0.072,0.059,0.131,0.131,0.131
		l0.867-0.014c0.415,0,0.782,0.147,1.067,0.422c0.288,0.279,0.45,0.653,0.456,1.054l0,0.924c0,1.318-1.073,2.391-2.391,2.391h-2.184
		c-0.247,0-0.479,0.12-0.621,0.322c0,0-1.926,2.728-1.928,2.731c-0.01,0.017-0.026,0.04-0.049,0.063
		C16.734,23.31,16.608,23.362,16.475,23.362z M16.406,22.086l0.522-0.739l-4.478-4.478l-0.701,0.558L16.406,22.086z M17.513,20.518
		l0.475-0.673c0.329-0.467,0.867-0.745,1.438-0.745h2.185c0.767,0,1.391-0.624,1.391-1.391v-0.9
		c-0.002-0.139-0.055-0.265-0.152-0.359c-0.094-0.091-0.221-0.141-0.36-0.141l-0.871,0.014c-0.63,0-1.139-0.507-1.139-1.131v-0.63
		c0-0.42-0.341-0.761-0.761-0.761h-2.521c-0.276,0-0.5-0.224-0.5-0.5v-2.02c-0.675,0.463-1.7,1.502-2.037,3.66
		c-0.02,0.125-0.084,0.236-0.183,0.314l-1.241,0.988L17.513,20.518z"/>
</g>
</svg>
