<?xml version="1.0" encoding="utf-8"?>
<!-- Generator: Adobe Illustrator 22.1.0, SVG Export Plug-In . SVG Version: 6.00 Build 0)  -->
<svg version="1.1" id="Light" xmlns="http://www.w3.org/2000/svg" xmlns:xlink="http://www.w3.org/1999/xlink" x="0px" y="0px"
	 viewBox="0 0 24 24" style="enable-background:new 0 0 24 24;" xml:space="preserve">
<g>
	<title>dog-food</title>
	<path d="M2.397,20.753c-0.2,0-0.402-0.032-0.599-0.095c-0.505-0.161-0.918-0.51-1.162-0.983s-0.29-1.012-0.128-1.517l1.385-5.544
		c0.145-0.5,0.581-0.844,1.087-0.863l18.02,0c0.521,0.02,0.959,0.359,1.101,0.845l1.399,5.594c0.068,0.207,0.097,0.455,0.082,0.702
		c-0.034,0.531-0.273,1.016-0.672,1.367c-0.363,0.32-0.829,0.496-1.31,0.496c0,0,0,0,0,0c-0.043,0-0.087-0.001-0.131-0.004
		L2.499,20.75C2.477,20.752,2.437,20.753,2.397,20.753z M3.006,12.75c-0.066,0.005-0.127,0.056-0.147,0.125l-1.389,5.556
		c-0.173,0.544,0.114,1.109,0.633,1.275c0.097,0.031,0.199,0.047,0.302,0.047c0.021,0,0.042-0.001,0.064-0.002L21.5,19.75
		c0.038,0.002,0.061,0.002,0.084,0.002c0.252,0,0.482-0.085,0.665-0.246c0.198-0.175,0.317-0.416,0.334-0.68
		c0.008-0.124-0.007-0.246-0.045-0.364l-1.401-5.6c-0.018-0.06-0.083-0.109-0.157-0.112L3.006,12.75z"/>
	<path d="M3.499,10.773c-0.276,0-0.5-0.224-0.5-0.5c0-2.201,1.372-3.738,3.337-3.738c0.326,0,0.647,0.048,0.957,0.142
		c0.55-1.723,1.973-2.991,3.771-3.337c0.312-0.06,0.629-0.09,0.943-0.09c0.984,0,1.939,0.295,2.762,0.852
		c0.918,0.622,1.597,1.529,1.933,2.576c0.312-0.095,0.635-0.142,0.962-0.142c0.105,0.002,0.197,0.008,0.288,0.018
		c1.874,0.196,3.24,1.881,3.043,3.755c-0.027,0.255-0.241,0.448-0.5,0.448c-0.007,0-0.038-0.001-0.045-0.002
		c-0.279-0.029-0.479-0.276-0.45-0.55c0.139-1.326-0.827-2.518-2.154-2.656c-0.064-0.007-0.129-0.011-0.194-0.013
		c-0.364,0-0.733,0.091-1.063,0.263C16.52,7.834,16.44,7.854,16.36,7.854c-0.075,0-0.15-0.017-0.218-0.05
		c-0.141-0.068-0.243-0.201-0.273-0.355c-0.199-1.035-0.789-1.929-1.66-2.52c-0.656-0.445-1.418-0.679-2.202-0.679
		c-0.251,0-0.505,0.024-0.754,0.072c-1.593,0.306-2.82,1.533-3.126,3.126c-0.03,0.154-0.132,0.287-0.274,0.356
		c-0.068,0.033-0.143,0.05-0.217,0.05c-0.08,0-0.16-0.02-0.231-0.056C7.077,7.626,6.707,7.535,6.336,7.535
		c-1.376,0-2.337,1.126-2.337,2.738C3.999,10.549,3.775,10.773,3.499,10.773z"/>
	<path d="M7.999,17.75c-0.551,0-1-0.448-1-1v-1c0-0.552,0.449-1,1-1h8c0.552,0,1,0.448,1,1v1c0,0.552-0.448,1-1,1H7.999z
		 M7.999,16.75h8v-1H8L7.999,16.75z"/>
</g>
</svg>
