<?xml version="1.0" encoding="utf-8"?>
<!-- Generator: Adobe Illustrator 22.1.0, SVG Export Plug-In . SVG Version: 6.00 Build 0)  -->
<svg version="1.1" id="Light" xmlns="http://www.w3.org/2000/svg" xmlns:xlink="http://www.w3.org/1999/xlink" x="0px" y="0px"
	 viewBox="0 0 24 24" style="enable-background:new 0 0 24 24;" xml:space="preserve">
<g>
	<title>soft-drinks-glass</title>
	<path d="M9.382,24c-0.512,0-0.938-0.38-0.997-0.884l-1.882-16C6.473,6.851,6.547,6.589,6.713,6.38
		C6.878,6.17,7.115,6.038,7.381,6.007C7.418,6.002,7.456,6,7.499,6h2.024l-0.27-2.84C9.134,1.93,8.112,1.001,6.875,1H4
		C3.724,1,3.5,0.776,3.5,0.5S3.724,0,4,0h2.875c1.755,0.001,3.204,1.319,3.373,3.065L10.527,6H19.5c0.561,0.011,1,0.448,1.003,0.993
		c0,0.044-0.002,0.085-0.007,0.125l-1.886,15.999C18.552,23.62,18.125,24,17.618,24H9.382z M9.379,23l8.235,0l1.418-12h-6.594
		c-0.276,0-0.5-0.224-0.5-0.5s0.224-0.5,0.5-0.5h6.712l0.354-3.001L10.622,7l1.376,14.453c0.013,0.133-0.027,0.263-0.112,0.366
		c-0.085,0.103-0.205,0.167-0.338,0.179C11.54,21.998,11.508,22,11.5,22c-0.259,0-0.473-0.195-0.498-0.453L9.999,11H7.967L9.379,23z
		 M9.903,10L9.618,7h-2.12V6.75L7.496,7l0.354,3H9.903z"/>
	<path d="M17.25,5c-0.414,0-0.75-0.336-0.75-0.75c0-0.403,0.313-0.729,0.716-0.748C17.227,3.501,17.241,3.5,17.25,3.5
		C17.664,3.5,18,3.836,18,4.25S17.664,5,17.25,5z"/>
	<circle cx="13.75" cy="3.25" r="0.75"/>
	<path d="M16.25,1.5c-0.414,0-0.75-0.336-0.75-0.75c0-0.403,0.313-0.729,0.716-0.748C16.227,0.001,16.241,0,16.25,0
		C16.664,0,17,0.336,17,0.75S16.664,1.5,16.25,1.5z"/>
	<path d="M15.75,13.5c-0.414,0-0.75-0.336-0.75-0.75c0-0.386,0.291-0.705,0.676-0.744c0.001,0,0.002,0,0.004,0
		C15.707,12.002,15.728,12,15.75,12c0.01,0,0.023,0.001,0.035,0.002c0.402,0.019,0.715,0.345,0.715,0.748
		C16.5,13.164,16.164,13.5,15.75,13.5z"/>
	<circle cx="13.75" cy="15.75" r="0.75"/>
	<circle cx="15.25" cy="19.25" r="0.75"/>
</g>
</svg>
