<?xml version="1.0" encoding="utf-8"?>
<!-- Generator: Adobe Illustrator 22.1.0, SVG Export Plug-In . SVG Version: 6.00 Build 0)  -->
<svg version="1.1" id="Light" xmlns="http://www.w3.org/2000/svg" xmlns:xlink="http://www.w3.org/1999/xlink" x="0px" y="0px"
	 viewBox="0 0 24 24" style="enable-background:new 0 0 24 24;" xml:space="preserve">
<g>
	<title>shorts-1</title>
	<path d="M1.5,24.009c-0.827,0-1.5-0.672-1.501-1.499L0,22.45L0.913,1.435C0.948,0.63,1.606,0,2.412,0h19.174
		c0.806,0,1.464,0.63,1.5,1.434l0.913,21.001c0.018,0.4-0.122,0.783-0.392,1.078c-0.271,0.296-0.64,0.468-1.041,0.486
		C22.546,23.999,22.523,24,22.499,24h-7.587c-0.786,0-1.428-0.587-1.498-1.365l-0.823-9.09c-0.014-0.158-0.089-0.301-0.212-0.403
		c-0.108-0.09-0.239-0.138-0.379-0.138c-0.018,0-0.037,0.001-0.056,0.003c-0.286,0.026-0.513,0.252-0.539,0.539l-0.826,9.1
		c-0.071,0.777-0.713,1.364-1.494,1.364H1.5z M9.082,23.009c0.264,0,0.478-0.195,0.502-0.454l0.826-9.1
		c0.07-0.767,0.677-1.374,1.444-1.444c0.049-0.004,0.097-0.006,0.145-0.006c0.373,0,0.735,0.131,1.021,0.37
		c0.327,0.272,0.529,0.656,0.567,1.081l0.823,9.091C14.433,22.804,14.647,23,14.907,23l5.066,0l-0.95-19h-5.353l1.307,4.356
		c0.079,0.264-0.072,0.543-0.335,0.623C14.595,8.993,14.547,9,14.499,9c-0.219,0-0.416-0.147-0.479-0.357L12.627,4h-1.256
		L9.978,8.644C9.914,8.857,9.721,9,9.499,9C9.45,9,9.402,8.993,9.355,8.979C9.227,8.94,9.122,8.855,9.059,8.737
		C8.995,8.619,8.982,8.484,9.02,8.356L10.327,4H4.974l-0.95,19.009H9.082z M0.999,22.521c0,0.264,0.225,0.488,0.5,0.488h1.524
		L3.973,4h-2.17L0.999,22.521z M20.974,22.999l1.558,0c0.123-0.006,0.247-0.063,0.337-0.162c0.09-0.098,0.136-0.226,0.131-0.36
		L22.196,4h-2.172L20.974,22.999z M22.153,3l-0.066-1.522C22.074,1.21,21.855,1,21.587,1H2.412c-0.269,0-0.488,0.21-0.5,0.479
		L1.846,3H22.153z"/>
</g>
</svg>
