<?xml version="1.0" encoding="utf-8"?>
<!-- Generator: Adobe Illustrator 22.1.0, SVG Export Plug-In . SVG Version: 6.00 Build 0)  -->
<svg version="1.1" id="Light" xmlns="http://www.w3.org/2000/svg" xmlns:xlink="http://www.w3.org/1999/xlink" x="0px" y="0px"
	 viewBox="0 0 24 24" style="enable-background:new 0 0 24 24;" xml:space="preserve">
<g>
	<title>trousers-calves-2</title>
	<path d="M14,24c-0.552,0-1-0.448-1-1V10.5c0-0.193-0.546-0.5-1-0.5s-1,0.307-1,0.5V23c0,0.552-0.449,1-1,1H5c-0.551,0-1-0.448-1-1
		V3.521C4,3.514,3.999,3.507,3.999,3.5c0-0.007,0-0.014,0.001-0.021V1c0-0.551,0.449-1,1-1h14c0.552,0,1,0.449,1,1v22
		c0,0.552-0.448,1-1,1H14z M12,9c0.676,0,2,0.453,2,1.5V23h5V7.464C17.198,7.238,15.763,5.802,15.536,4H8.465
		C8.238,5.802,6.802,7.238,5,7.464V23h5V10.5C10,9.453,11.325,9,12,9z M5,6.455C6.246,6.243,7.243,5.246,7.455,4H5V6.455z M16.545,4
		C16.758,5.246,17.755,6.243,19,6.455V4H16.545z M19,3V1h-3.999v2H19z M14.001,3V1h-4v2H14.001z M9.001,3V1H5.001l0,2H9.001z"/>
</g>
</svg>
