<?xml version="1.0" encoding="utf-8"?>
<!-- Generator: Adobe Illustrator 22.1.0, SVG Export Plug-In . SVG Version: 6.00 Build 0)  -->
<svg version="1.1" id="Layer_1" xmlns="http://www.w3.org/2000/svg" xmlns:xlink="http://www.w3.org/1999/xlink" x="0px" y="0px"
	 viewBox="0 0 24 24" style="enable-background:new 0 0 24 24;" xml:space="preserve">
<g>
	<title>legal-hammer</title>
	<path d="M1,23.9c-0.551,0-1-0.448-1-1v-1.5c0-0.64,0.41-1.205,1-1.414V19.4c0-0.827,0.673-1.5,1.5-1.5h6c0.827,0,1.5,0.673,1.5,1.5
		v0.586c0.59,0.209,1,0.774,1,1.414v1.5c0,0.552-0.449,1-1,1H1z M1.5,20.9c-0.276,0-0.5,0.224-0.5,0.5v1.5h9v-1.5
		c0-0.276-0.224-0.5-0.5-0.5H1.5z M9,19.9v-0.5c0-0.276-0.224-0.5-0.5-0.5h-6c-0.276,0-0.5,0.224-0.5,0.5v0.5H9z"/>
	<path d="M23.5,19.899c-0.134,0-0.259-0.052-0.354-0.146L13.25,9.857L11.207,11.9l0.146,0.146c0.395,0.395,0.536,0.899,0.397,1.418
		c-0.15,0.559-0.626,1.035-1.185,1.184c-0.129,0.034-0.258,0.052-0.385,0.052c-0.384,0-0.741-0.155-1.034-0.448l-4.5-4.5
		C3.95,9.058,4.14,8.139,4.687,7.591c0.311-0.312,0.725-0.49,1.134-0.49c0.384,0,0.741,0.154,1.033,0.445L7,7.693L11.793,2.9
		l-0.146-0.146c-0.696-0.696-0.506-1.615,0.041-2.162c0.311-0.311,0.724-0.49,1.134-0.49c0.384,0,0.741,0.154,1.032,0.445l4.5,4.5
		c0.697,0.697,0.507,1.616-0.041,2.164C18.002,7.522,17.589,7.7,17.181,7.7c-0.385,0-0.742-0.154-1.034-0.447L16,7.107L13.957,9.15
		l9.896,9.896c0.195,0.195,0.195,0.512,0,0.707C23.759,19.847,23.633,19.899,23.5,19.899z M5.814,8.1
		c-0.141,0-0.294,0.072-0.419,0.198C5.328,8.364,5.017,8.71,5.353,9.047l4.5,4.5c0.103,0.103,0.211,0.153,0.331,0.153
		c0.04,0,0.081-0.005,0.122-0.017c0.218-0.058,0.419-0.259,0.478-0.477c0.045-0.167,0-0.315-0.138-0.453l-4.5-4.5
		C6.044,8.152,5.932,8.1,5.814,8.1z M10.5,11.193l2.382-2.382c0.008-0.009,0.015-0.017,0.024-0.025
		c0.003-0.003,0.006-0.005,0.009-0.008L15.293,6.4L12.5,3.607L7.707,8.4L10.5,11.193z M16.853,6.547
		c0.102,0.102,0.215,0.154,0.334,0.154c0.141,0,0.293-0.072,0.418-0.197c0.066-0.066,0.379-0.413,0.041-0.75l-4.5-4.5
		C13.044,1.152,12.933,1.1,12.814,1.1c-0.141,0-0.294,0.072-0.42,0.198c-0.066,0.066-0.377,0.412-0.041,0.748l0.49,0.49
		C12.846,2.539,16.853,6.547,16.853,6.547z"/>
</g>
</svg>
