<?xml version="1.0" encoding="utf-8"?>
<!-- Generator: Adobe Illustrator 22.1.0, SVG Export Plug-In . SVG Version: 6.00 Build 0)  -->
<svg version="1.1" id="Light" xmlns="http://www.w3.org/2000/svg" xmlns:xlink="http://www.w3.org/1999/xlink" x="0px" y="0px"
	 viewBox="0 0 24 24" style="enable-background:new 0 0 24 24;" xml:space="preserve">
<g>
	<title>amusement-park-disneyland</title>
	<circle cx="4" cy="19.5" r="0.75"/>
	<circle cx="11.5" cy="17" r="0.75"/>
	<circle cx="19" cy="19.5" r="0.75"/>
	<path d="M21,24c-0.276,0-0.5-0.224-0.5-0.5V22h-18v1.5C2.5,23.776,2.276,24,2,24s-0.5-0.224-0.5-0.5v-7
		c0-0.01,0.001-0.02,0.002-0.03c0.003-0.03,0.009-0.053,0.013-0.067c0.004-0.021,0.008-0.049,0.019-0.08
		c0-0.001,1.967-4.429,1.967-4.429V8.5c0-0.166,0.082-0.321,0.22-0.414C3.802,8.03,3.899,8,4,8c0.064,0,0.127,0.012,0.186,0.036
		l2.032,0.813C6.404,8.924,6.55,9.066,6.628,9.251c0.079,0.184,0.081,0.388,0.006,0.574c-0.06,0.15-0.17,0.279-0.308,0.363
		L4.5,11.283v0.611l1.957,4.403c0.004,0.008,0.007,0.017,0.01,0.026c0.009,0.02,0.015,0.054,0.018,0.073
		c0.005,0.02,0.012,0.045,0.014,0.076C6.5,16.481,6.5,16.491,6.5,16.5V19h1v-4.5c0-0.019,0.004-0.051,0.01-0.073
		c0.003-0.026,0.009-0.055,0.02-0.089c0.011-0.031,0.024-0.057,0.037-0.079c0.007-0.016,0.018-0.04,0.038-0.065L11,9.828V5.5
		c0-0.166,0.082-0.321,0.22-0.414C11.303,5.03,11.4,5,11.5,5c0.064,0,0.127,0.012,0.186,0.036l2.031,0.813
		c0.186,0.075,0.332,0.217,0.411,0.402c0.079,0.184,0.081,0.388,0.006,0.574c-0.059,0.149-0.168,0.278-0.308,0.362L12,8.283v1.545
		l3.395,4.365c0.012,0.015,0.027,0.042,0.037,0.063c0.012,0.021,0.026,0.048,0.038,0.082c0.011,0.033,0.017,0.062,0.02,0.087
		c0.004,0.017,0.01,0.043,0.01,0.075V19h1v-2.5c0-0.009,0-0.017,0.001-0.026c0.002-0.034,0.01-0.061,0.014-0.076
		c0.003-0.019,0.007-0.045,0.018-0.075c0-0.001,1.967-4.429,1.967-4.429V8.5c0-0.166,0.082-0.321,0.219-0.414
		C18.803,8.03,18.9,8,19,8c0.064,0,0.127,0.012,0.186,0.036l2.031,0.813c0.186,0.075,0.332,0.217,0.411,0.402
		c0.079,0.184,0.081,0.388,0.006,0.574c-0.059,0.149-0.168,0.278-0.308,0.362L19.5,11.283v0.611l1.957,4.403
		c0.004,0.009,0.007,0.017,0.01,0.026c0.008,0.018,0.014,0.051,0.017,0.069c0.006,0.022,0.013,0.049,0.015,0.082
		C21.5,16.482,21.5,16.491,21.5,16.5v7C21.5,23.776,21.276,24,21,24z M20.5,21v-4h-3v4H20.5z M16.5,21v-1h-10v1H16.5z M5.5,21v-4h-3
		v4H5.5z M14.5,19v-4h-6v4H14.5z M20.23,16L19,13.231L17.77,16H20.23z M5.231,16L4,13.231L2.769,16H5.231z M13.978,14L11.5,10.814
		L9.022,14H13.978z M19.5,10.117l0.879-0.527L19.5,9.238V10.117z M4.5,10.117L5.379,9.59L4.5,9.238V10.117z M12,7.117l0.879-0.527
		L12,6.238V7.117z"/>
	<path d="M19.5,2C19.224,2,19,1.776,19,1.5v-1C19,0.224,19.224,0,19.5,0S20,0.224,20,0.5v1C20,1.776,19.776,2,19.5,2z"/>
	<path d="M19.5,7C19.224,7,19,6.776,19,6.5v-1C19,5.224,19.224,5,19.5,5S20,5.224,20,5.5v1C20,6.776,19.776,7,19.5,7z"/>
	<path d="M21.5,4C21.224,4,21,3.776,21,3.5S21.224,3,21.5,3h1C22.776,3,23,3.224,23,3.5S22.776,4,22.5,4H21.5z"/>
	<path d="M16.5,4C16.224,4,16,3.776,16,3.5S16.224,3,16.5,3h1C17.776,3,18,3.224,18,3.5S17.776,4,17.5,4H16.5z"/>
	<path d="M20.914,2.586c-0.134,0-0.259-0.052-0.354-0.146s-0.146-0.22-0.146-0.354s0.052-0.259,0.146-0.354l0.707-0.707
		c0.094-0.094,0.22-0.146,0.354-0.146s0.259,0.052,0.354,0.146c0.195,0.195,0.195,0.512,0,0.707L21.268,2.44
		C21.173,2.534,21.048,2.586,20.914,2.586z"/>
	<path d="M17.379,6.121c-0.134,0-0.259-0.052-0.354-0.146s-0.146-0.22-0.146-0.354s0.052-0.259,0.146-0.354l0.707-0.707
		c0.094-0.094,0.22-0.146,0.354-0.146s0.259,0.052,0.354,0.146c0.195,0.195,0.195,0.512,0,0.707l-0.707,0.707
		C17.638,6.069,17.512,6.121,17.379,6.121z"/>
	<path d="M21.621,6.121c-0.134,0-0.259-0.052-0.354-0.146l-0.707-0.707c-0.195-0.195-0.195-0.512,0-0.707
		c0.094-0.094,0.22-0.146,0.354-0.146s0.259,0.052,0.354,0.146l0.707,0.707c0.094,0.094,0.146,0.22,0.146,0.354
		s-0.052,0.259-0.146,0.354S21.755,6.121,21.621,6.121z"/>
	<path d="M18.086,2.586c-0.134,0-0.259-0.052-0.354-0.146l-0.707-0.707c-0.195-0.195-0.195-0.512,0-0.707
		c0.094-0.094,0.22-0.146,0.354-0.146s0.259,0.052,0.354,0.146l0.707,0.707c0.094,0.094,0.146,0.22,0.146,0.354
		s-0.052,0.259-0.146,0.354S18.219,2.586,18.086,2.586z"/>
	<circle cx="19.5" cy="3.5" r="0.75"/>
	<path d="M4.5,2C4.224,2,4,1.776,4,1.5v-1C4,0.224,4.224,0,4.5,0S5,0.224,5,0.5v1C5,1.776,4.776,2,4.5,2z"/>
	<path d="M4.5,7C4.224,7,4,6.776,4,6.5v-1C4,5.224,4.224,5,4.5,5S5,5.224,5,5.5v1C5,6.776,4.776,7,4.5,7z"/>
	<path d="M6.5,4C6.224,4,6,3.776,6,3.5S6.224,3,6.5,3h1C7.776,3,8,3.224,8,3.5S7.776,4,7.5,4H6.5z"/>
	<path d="M1.5,4C1.224,4,1,3.776,1,3.5S1.224,3,1.5,3h1C2.776,3,3,3.224,3,3.5S2.776,4,2.5,4H1.5z"/>
	<path d="M5.914,2.586c-0.134,0-0.259-0.052-0.354-0.146S5.414,2.22,5.414,2.086S5.466,1.827,5.56,1.733l0.707-0.707
		c0.094-0.094,0.22-0.146,0.354-0.146S6.88,0.931,6.974,1.026c0.195,0.195,0.195,0.512,0,0.707L6.267,2.44
		C6.173,2.534,6.047,2.586,5.914,2.586z"/>
	<path d="M2.379,6.121c-0.134,0-0.259-0.052-0.354-0.146s-0.146-0.22-0.146-0.354s0.052-0.259,0.146-0.354L2.733,4.56
		c0.094-0.094,0.22-0.146,0.354-0.146S3.345,4.466,3.44,4.56c0.195,0.195,0.195,0.512,0,0.707L2.733,5.974
		C2.638,6.069,2.513,6.121,2.379,6.121z"/>
	<path d="M6.621,6.121c-0.134,0-0.259-0.052-0.354-0.146L5.56,5.267c-0.195-0.195-0.195-0.512,0-0.707
		c0.094-0.094,0.22-0.146,0.354-0.146S6.173,4.466,6.267,4.56l0.707,0.707c0.094,0.094,0.146,0.22,0.146,0.354
		S7.069,5.88,6.974,5.974S6.755,6.121,6.621,6.121z"/>
	<path d="M3.086,2.586c-0.134,0-0.259-0.052-0.354-0.146L2.026,1.733c-0.195-0.195-0.195-0.512,0-0.707
		c0.094-0.094,0.22-0.146,0.354-0.146s0.259,0.052,0.354,0.146L3.44,1.733c0.094,0.094,0.146,0.22,0.146,0.354
		S3.534,2.345,3.44,2.44S3.22,2.586,3.086,2.586z"/>
	<circle cx="4.5" cy="3.5" r="0.75"/>
</g>
</svg>
