<?xml version="1.0" encoding="utf-8"?>
<!-- Generator: Adobe Illustrator 22.1.0, SVG Export Plug-In . SVG Version: 6.00 Build 0)  -->
<svg version="1.1" id="Light" xmlns="http://www.w3.org/2000/svg" xmlns:xlink="http://www.w3.org/1999/xlink" x="0px" y="0px"
	 viewBox="0 0 24 24" style="enable-background:new 0 0 24 24;" xml:space="preserve">
<g>
	<title>amusement-park-ferris-wheel</title>
	<path d="M3,24c-0.276,0-0.5-0.224-0.5-0.5S2.724,23,3,23h3.661l1.352-3.38c-0.409-0.19-0.806-0.409-1.184-0.655
		c-0.345,0.258-0.762,0.399-1.194,0.399c-1.103,0-2-0.897-2-2c0-0.43,0.14-0.846,0.396-1.19c-0.629-0.969-1.083-2.067-1.323-3.197
		C1.736,12.835,1,12.002,1,11c0-1.003,0.737-1.837,1.711-1.977c0.24-1.129,0.695-2.226,1.323-3.194
		C3.776,5.484,3.636,5.067,3.636,4.636c0-1.103,0.897-2,2-2c0.431,0,0.848,0.14,1.193,0.398c0.968-0.629,2.065-1.083,3.194-1.323
		C10.164,0.737,10.997,0,12,0s1.836,0.737,1.977,1.711c1.129,0.24,2.226,0.695,3.194,1.323c0.345-0.258,0.761-0.398,1.193-0.398
		c1.103,0,2,0.897,2,2c0,0.431-0.14,0.848-0.398,1.193c0.629,0.968,1.083,2.065,1.323,3.194C22.263,9.164,23,9.997,23,11
		c0,1.002-0.736,1.836-1.709,1.977c-0.24,1.129-0.696,2.227-1.324,3.194c0.258,0.345,0.398,0.761,0.398,1.193c0,1.103-0.897,2-2,2
		c-0.432,0-0.849-0.14-1.194-0.398c-0.377,0.245-0.774,0.465-1.184,0.655L17.338,23H21c0.276,0,0.5,0.224,0.5,0.5S21.276,24,21,24H3
		z M16.261,23l-3.817-9.542C12.296,13.486,12.147,13.5,12,13.5s-0.296-0.014-0.445-0.042L7.739,23H16.261z M15.615,18.69
		c0.319-0.15,0.629-0.321,0.926-0.509c-0.116-0.257-0.177-0.536-0.177-0.817c0-1.103,0.897-2,2-2c0.282,0,0.561,0.061,0.818,0.177
		c0.516-0.816,0.896-1.732,1.108-2.673C19.52,12.577,19,11.84,19,11c0-0.839,0.52-1.576,1.29-1.868
		c-0.212-0.941-0.592-1.857-1.108-2.673c-0.257,0.116-0.536,0.177-0.818,0.177c-1.103,0-2-0.897-2-2
		c0-0.282,0.061-0.561,0.177-0.818c-0.816-0.516-1.732-0.895-2.673-1.108C13.576,3.48,12.839,4,12,4c-0.839,0-1.577-0.52-1.868-1.29
		C9.191,2.922,8.274,3.302,7.459,3.818c0.116,0.257,0.177,0.536,0.177,0.818c0,1.103-0.897,2-2,2c-0.282,0-0.561-0.061-0.818-0.177
		C4.302,7.275,3.923,8.191,3.71,9.132C4.48,9.424,5,10.161,5,11c0,0.84-0.52,1.577-1.291,1.868c0.212,0.942,0.591,1.858,1.106,2.674
		c0.258-0.117,0.538-0.178,0.821-0.178c1.103,0,2,0.897,2,2c0,0.282-0.061,0.56-0.177,0.817c0.297,0.189,0.607,0.359,0.926,0.509
		l2.241-5.603C9.926,12.627,9.5,11.846,9.5,11c0-1.379,1.121-2.5,2.5-2.5c1.378,0,2.5,1.121,2.5,2.5
		c0,0.846-0.427,1.627-1.127,2.088L15.615,18.69z M18.364,16.364c-0.552,0-1,0.448-1,1s0.448,1,1,1s1-0.448,1-1
		S18.916,16.364,18.364,16.364z M5.636,16.364c-0.551,0-1,0.448-1,1s0.449,1,1,1s1-0.448,1-1S6.187,16.364,5.636,16.364z M12,9.5
		c-0.827,0-1.5,0.673-1.5,1.5s0.673,1.5,1.5,1.5s1.5-0.673,1.5-1.5S12.827,9.5,12,9.5z M21,10c-0.552,0-1,0.449-1,1s0.448,1,1,1
		s1-0.449,1-1S21.552,10,21,10z M3,10c-0.551,0-1,0.449-1,1s0.449,1,1,1s1-0.449,1-1S3.551,10,3,10z M18.364,3.636
		c-0.552,0-1,0.449-1,1s0.448,1,1,1s1-0.449,1-1S18.916,3.636,18.364,3.636z M5.636,3.636c-0.551,0-1,0.449-1,1s0.449,1,1,1
		s1-0.449,1-1S6.187,3.636,5.636,3.636z M12,1c-0.551,0-1,0.449-1,1s0.449,1,1,1c0.552,0,1-0.449,1-1S12.552,1,12,1z"/>
	<path d="M12,20.5c-0.529,0-1.061-0.044-1.583-0.132c-0.272-0.046-0.456-0.304-0.41-0.576c0.041-0.242,0.247-0.418,0.491-0.418
		c0.029,0,0.057,0.002,0.087,0.008C11.051,19.46,11.528,19.5,12,19.5s0.949-0.04,1.417-0.118c0.029-0.005,0.056-0.007,0.083-0.007
		c0.245,0,0.453,0.175,0.493,0.417c0.046,0.272-0.138,0.53-0.41,0.576C13.061,20.456,12.529,20.5,12,20.5z"/>
</g>
</svg>
