<?xml version="1.0" encoding="utf-8"?>
<!-- Generator: Adobe Illustrator 22.1.0, SVG Export Plug-In . SVG Version: 6.00 Build 0)  -->
<svg version="1.1" id="Light" xmlns="http://www.w3.org/2000/svg" xmlns:xlink="http://www.w3.org/1999/xlink" x="0px" y="0px"
	 viewBox="0 0 24 24" style="enable-background:new 0 0 24 24;" xml:space="preserve">
<g>
	<title>amusement-park-rollercoaster</title>
	<path d="M23.5,19.5c-1.452,0-2.362-1.584-3.514-3.591c-0.301-0.523-0.629-1.096-0.986-1.666V19c0,0.276-0.224,0.5-0.5,0.5
		S18,19.276,18,19v-6.214c-0.935-1.219-1.92-2.077-3-2.609V19c0,0.276-0.224,0.5-0.5,0.5S14,19.276,14,19V9.782
		C13.372,9.595,12.7,9.5,12,9.5c-0.7,0-1.372,0.095-2,0.282V19c0,0.276-0.224,0.5-0.5,0.5S9,19.276,9,19v-8.823
		c-1.08,0.532-2.065,1.389-3,2.609V19c0,0.276-0.224,0.5-0.5,0.5S5,19.276,5,19v-4.756c-0.357,0.57-0.686,1.142-0.986,1.665
		C2.862,17.916,1.952,19.5,0.5,19.5C0.224,19.5,0,19.276,0,19s0.224-0.5,0.5-0.5c0.873,0,1.735-1.5,2.647-3.089
		c0.552-0.96,1.177-2.049,1.951-3.079c0.007-0.011,0.02-0.031,0.04-0.053c1.254-1.654,2.61-2.735,4.145-3.304
		C9.315,8.959,9.345,8.95,9.368,8.944C10.193,8.649,11.078,8.5,12,8.5c0.922,0,1.807,0.149,2.632,0.444
		c0.031,0.008,0.059,0.019,0.085,0.031c1.534,0.569,2.89,1.65,4.145,3.304c0.02,0.022,0.033,0.042,0.042,0.056
		c0.772,1.027,1.397,2.116,1.949,3.077C21.766,17,22.627,18.5,23.5,18.5c0.276,0,0.5,0.224,0.5,0.5S23.776,19.5,23.5,19.5z"/>
	<path d="M11.5,7.5c-0.551,0-1-0.449-1-1v-1c0-0.551,0.449-1,1-1H14c1.378,0,2.5,1.121,2.5,2.5c0,0.276-0.224,0.5-0.5,0.5H11.5z
		 M11.5,6.5h3.914c-0.209-0.586-0.773-1-1.414-1h-2.5L11.5,6.5z"/>
	<path d="M5.716,9.667c-0.103,0-0.206-0.016-0.305-0.048C5.156,9.538,4.949,9.362,4.827,9.125L4.368,8.236
		C4.246,7.999,4.223,7.728,4.305,7.473c0.081-0.254,0.257-0.462,0.494-0.584L7.91,5.285c0.142-0.073,0.3-0.111,0.458-0.111
		c0.103,0,0.205,0.016,0.305,0.047c0.255,0.082,0.462,0.257,0.585,0.495l0.458,0.889C9.838,6.842,9.86,7.113,9.779,7.368
		C9.698,7.622,9.522,7.83,9.285,7.952L6.173,9.555C6.032,9.628,5.874,9.667,5.716,9.667z M5.257,7.777l0.458,0.889l3.111-1.603
		L8.368,6.174h0L5.257,7.777z"/>
	<path d="M2.041,14.812c-0.183,0-0.362-0.05-0.518-0.145l-0.854-0.52c-0.471-0.287-0.621-0.903-0.335-1.374l1.819-2.99
		C2.291,9.555,2.51,9.394,2.77,9.331c0.078-0.019,0.158-0.029,0.238-0.029c0.182,0,0.361,0.05,0.518,0.146l0.854,0.52
		c0.471,0.287,0.621,0.903,0.335,1.374l-1.819,2.99C2.716,14.628,2.388,14.812,2.041,14.812z M2.042,13.812l1.819-2.99l-0.854-0.52
		l-1.819,2.99L2.042,13.812z"/>
</g>
</svg>
