<?xml version="1.0" encoding="utf-8"?>
<!-- Generator: Adobe Illustrator 22.1.0, SVG Export Plug-In . SVG Version: 6.00 Build 0)  -->
<svg version="1.1" id="Layer_1" xmlns="http://www.w3.org/2000/svg" xmlns:xlink="http://www.w3.org/1999/xlink" x="0px" y="0px"
	 viewBox="0 0 24 24" style="enable-background:new 0 0 24 24;" xml:space="preserve">
<g>
	<title>pathfinder-outline</title>
	<path d="M10,23.5c-0.827,0-1.5-0.673-1.5-1.5v-1c0-0.827,0.673-1.5,1.5-1.5h9c0.276,0,0.5-0.224,0.5-0.5v-8
		c0-0.827,0.673-1.5,1.5-1.5h1c0.827,0,1.5,0.673,1.5,1.5v11c0,0.827-0.673,1.5-1.5,1.5H10z M10,20.5c-0.276,0-0.5,0.224-0.5,0.5v1
		c0,0.276,0.224,0.5,0.5,0.5h12c0.276,0,0.5-0.224,0.5-0.5V11c0-0.276-0.224-0.5-0.5-0.5h-1c-0.276,0-0.5,0.224-0.5,0.5v8
		c0,0.827-0.673,1.5-1.5,1.5H10z"/>
	<path d="M8,17.5c-0.827,0-1.5-0.673-1.5-1.5V8c0-0.827,0.673-1.5,1.5-1.5h8c0.827,0,1.5,0.673,1.5,1.5v8c0,0.827-0.673,1.5-1.5,1.5
		H8z M8,7.5C7.724,7.5,7.5,7.724,7.5,8v8c0,0.276,0.224,0.5,0.5,0.5h8c0.276,0,0.5-0.224,0.5-0.5V8c0-0.276-0.224-0.5-0.5-0.5H8z"/>
	<path d="M2,14.5c-0.827,0-1.5-0.673-1.5-1.5V2c0-0.827,0.673-1.5,1.5-1.5h12c0.827,0,1.5,0.673,1.5,1.5v1
		c0,0.827-0.673,1.5-1.5,1.5H5C4.724,4.5,4.5,4.724,4.5,5v8c0,0.827-0.673,1.5-1.5,1.5H2z M2,1.5C1.724,1.5,1.5,1.724,1.5,2v11
		c0,0.276,0.224,0.5,0.5,0.5h1c0.276,0,0.5-0.224,0.5-0.5V5c0-0.827,0.673-1.5,1.5-1.5h9c0.276,0,0.5-0.224,0.5-0.5V2
		c0-0.276-0.224-0.5-0.5-0.5H2z"/>
</g>
</svg>
