<?xml version="1.0" encoding="utf-8"?>
<!-- Generator: Adobe Illustrator 22.1.0, SVG Export Plug-In . SVG Version: 6.00 Build 0)  -->
<svg version="1.1" id="Layer_1" xmlns="http://www.w3.org/2000/svg" xmlns:xlink="http://www.w3.org/1999/xlink" x="0px" y="0px"
	 viewBox="0 0 24 24" style="enable-background:new 0 0 24 24;" xml:space="preserve">
<g>
	<title>crime-man-riot-2</title>
	<circle cx="14" cy="8.5" r="0.75"/>
	<circle cx="10" cy="8.5" r="0.75"/>
	<path d="M23,24c-0.276,0-0.5-0.224-0.5-0.5v-3.106c0.003-0.462-0.212-0.904-0.575-1.184c-1.63-1.16-3.546-1.958-5.547-2.309
		c-0.403,1.21-0.971,2.306-1.692,3.261c-1.195,1.583-2.396,2.25-2.446,2.277C12.166,22.479,12.083,22.5,12,22.5
		s-0.166-0.021-0.239-0.061c-0.03-0.016-2.804-1.581-4.134-5.54c-2.002,0.351-3.923,1.152-5.567,2.322
		c-0.35,0.271-0.563,0.711-0.56,1.17V23.5C1.5,23.776,1.276,24,1,24s-0.5-0.224-0.5-0.5v-3.106
		c-0.005-0.766,0.356-1.506,0.964-1.976c1.745-1.242,3.771-2.096,5.881-2.483c-0.265-1.062-0.405-2.197-0.417-3.381
		C6.005,11.405,5.499,9.969,5.5,8.5v-2C5.5,2.916,8.416,0,12,0c3.584,0,6.5,2.916,6.5,6.5v2c0.001,1.469-0.505,2.905-1.428,4.055
		c-0.012,1.183-0.152,2.319-0.415,3.381c2.11,0.387,4.131,1.239,5.863,2.471c0.621,0.479,0.985,1.221,0.98,1.99V23.5
		C23.5,23.776,23.276,24,23,24z M7.928,12.621c0.085,5.616,3.155,8.153,4.071,8.786c0.916-0.635,3.988-3.183,4.073-8.786
		c-1.186-0.94-2.473-1.757-3.827-2.43c-0.081-0.043-0.164-0.064-0.247-0.064c-0.081,0-0.161,0.02-0.233,0.058
		C10.402,10.863,9.113,11.681,7.928,12.621z M11.999,9.126c0.244,0,0.487,0.06,0.703,0.175c1.322,0.657,2.594,1.455,3.78,2.373
		C17.141,10.747,17.501,9.63,17.5,8.5V7.009c-0.182,0.004-0.378,0.008-0.586,0.008c-1.477,0-3.354-0.207-4.914-1.775
		C10.44,6.81,8.563,7.017,7.085,7.017c-0.207,0-0.403-0.004-0.585-0.008V8.5c-0.001,1.13,0.359,2.247,1.018,3.174
		c1.186-0.918,2.46-1.717,3.791-2.379C11.516,9.186,11.756,9.126,11.999,9.126z M6.523,6.009c0.169,0.004,0.351,0.008,0.543,0.008
		c1.408,0,3.197-0.209,4.549-1.836C11.708,4.069,11.849,4.005,12,4.005s0.292,0.064,0.385,0.176
		c1.352,1.627,3.143,1.836,4.552,1.836c0.191,0,0.372-0.004,0.54-0.008C17.228,3.18,14.87,1,12,1C9.13,1,6.771,3.18,6.523,6.009z"/>
</g>
</svg>
