<?xml version="1.0" encoding="utf-8"?>
<!-- Generator: Adobe Illustrator 22.1.0, SVG Export Plug-In . SVG Version: 6.00 Build 0)  -->
<svg version="1.1" id="Layer_1" xmlns="http://www.w3.org/2000/svg" xmlns:xlink="http://www.w3.org/1999/xlink" x="0px" y="0px"
	 viewBox="0 0 24 24" style="enable-background:new 0 0 24 24;" xml:space="preserve">
<g>
	<title>crime-man-thief-3</title>
	<path d="M10.5,12c-0.156,0-0.306-0.075-0.4-0.2c-0.08-0.107-0.114-0.239-0.095-0.371c0.019-0.132,0.088-0.249,0.195-0.329
		c0.513-0.385,1.152-0.596,1.8-0.596c0.648,0,1.287,0.212,1.8,0.597c0.107,0.08,0.176,0.197,0.195,0.329
		c0.019,0.132-0.015,0.264-0.095,0.371c-0.094,0.125-0.243,0.2-0.4,0.2c-0.109,0-0.213-0.035-0.3-0.1
		c-0.341-0.256-0.767-0.397-1.2-0.397c-0.432,0-0.859,0.141-1.2,0.397C10.713,11.965,10.609,12,10.5,12z"/>
	<path d="M23,24c-0.276,0-0.5-0.224-0.5-0.5v-3.106c0.003-0.462-0.212-0.904-0.575-1.184c-1.906-1.34-4.145-2.198-6.48-2.481
		c-0.039,0.076-0.098,0.143-0.173,0.191c-0.968,0.625-2.087,0.999-3.237,1.079C12.029,17.999,12.006,18,12,18l-0.028-0.001
		c-1.157-0.081-2.276-0.454-3.244-1.079c-0.075-0.049-0.134-0.115-0.173-0.191c-2.335,0.283-4.577,1.143-6.498,2.494
		c-0.349,0.27-0.561,0.709-0.558,1.168V23.5C1.5,23.776,1.276,24,1,24s-0.5-0.224-0.5-0.5v-3.106
		c-0.005-0.766,0.356-1.506,0.964-1.976c2.088-1.469,4.513-2.395,7.036-2.69v-1.753c-1.881-1.205-3-3.241-3-5.475v-2
		C5.5,2.916,8.416,0,12,0c3.584,0,6.5,2.916,6.5,6.5v2c0,2.234-1.119,4.27-3,5.475v1.753c2.522,0.295,4.944,1.218,7.018,2.677
		c0.623,0.48,0.987,1.222,0.982,1.992V23.5C23.5,23.776,23.276,24,23,24z M9.5,16.22c0.761,0.443,1.622,0.712,2.5,0.778
		c0.878-0.066,1.739-0.335,2.5-0.778v-1.721C13.708,14.832,12.869,15,12,15s-1.708-0.168-2.5-0.501V16.22z M6.883,10.515
		C7.708,12.613,9.722,14,12,14c2.279,0,4.292-1.387,5.117-3.486c-0.063,0.001-0.127,0.001-0.193,0.001
		c-1.347,0-3.321-0.182-4.909-1.76c-1.617,1.578-3.593,1.761-4.94,1.761C7.009,10.516,6.945,10.515,6.883,10.515z M6.594,9.509
		C6.754,9.513,6.92,9.516,7.094,9.516c1.26,0,2.875-0.167,4.187-1.471c0.071-0.069,0.146-0.126,0.227-0.172
		c-0.079-0.044-0.153-0.099-0.22-0.164C9.97,6.398,8.354,6.23,7.092,6.23c-0.206,0-0.402,0.004-0.585,0.009
		C6.502,6.328,6.5,6.415,6.5,6.5v2C6.5,8.836,6.532,9.175,6.594,9.509z M12.494,7.874c0.084,0.047,0.162,0.106,0.231,0.177
		c1.306,1.298,2.923,1.464,4.185,1.464c0.173,0,0.339-0.003,0.496-0.007C17.468,9.174,17.5,8.836,17.5,8.5v-2
		c0-0.085-0.002-0.171-0.007-0.261c-0.184-0.004-0.379-0.009-0.583-0.009c-1.261,0-2.877,0.167-4.19,1.472
		C12.652,7.77,12.576,7.828,12.494,7.874z M7.074,5.23c1.349,0,3.325,0.183,4.912,1.762c0.001,0.001,0.006,0.006,0.038,0.009
		c1.581-1.589,3.557-1.771,4.905-1.771c0.147,0,0.289,0.002,0.423,0.005C16.771,2.763,14.567,1,12,1
		C9.433,1,7.229,2.763,6.648,5.235C6.783,5.232,6.925,5.23,7.074,5.23z"/>
	<path d="M8.5,8C8.224,8,8,7.776,8,7.5S8.224,7,8.5,7h1C9.776,7,10,7.224,10,7.5S9.776,8,9.5,8H8.5z"/>
	<path d="M14.5,8C14.224,8,14,7.776,14,7.5S14.224,7,14.5,7h1C15.776,7,16,7.224,16,7.5S15.776,8,15.5,8H14.5z"/>
	<circle cx="9.25" cy="3.25" r="0.75"/>
	<circle cx="12" cy="2.25" r="0.75"/>
	<circle cx="14.75" cy="3.25" r="0.75"/>
</g>
</svg>
