<?xml version="1.0" encoding="utf-8"?>
<!-- Generator: Adobe Illustrator 22.1.0, SVG Export Plug-In . SVG Version: 6.00 Build 0)  -->
<svg version="1.1" id="Layer_1" xmlns="http://www.w3.org/2000/svg" xmlns:xlink="http://www.w3.org/1999/xlink" x="0px" y="0px"
	 viewBox="0 0 24 24" style="enable-background:new 0 0 24 24;" xml:space="preserve">
<g>
	<title>crime-man-thug</title>
	<path d="M23,24c-0.276,0-0.5-0.224-0.5-0.5v-3.106c0.003-0.462-0.212-0.904-0.575-1.184c-0.48-0.366-1.278-0.888-2.425-1.371V23.5
		c0,0.276-0.224,0.5-0.5,0.5s-0.5-0.224-0.5-0.5v-6.037c-0.512-0.172-1.052-0.323-1.609-0.45c-0.475,2.292-2.53,3.989-4.888,3.989
		c-0.151,0-0.307-0.007-0.462-0.021c-2.203-0.203-3.991-1.817-4.433-3.965c-0.557,0.127-1.096,0.278-1.608,0.45V23.5
		C5.5,23.776,5.276,24,5,24s-0.5-0.224-0.5-0.5v-5.658c-1.146,0.483-1.945,1.004-2.427,1.37c-0.361,0.279-0.575,0.72-0.573,1.179
		V23.5C1.5,23.776,1.276,24,1,24s-0.5-0.224-0.5-0.5v-3.106c-0.005-0.766,0.356-1.506,0.964-1.976
		c0.639-0.485,1.737-1.185,3.348-1.771c0.006-0.002,0.012-0.005,0.017-0.006c0.807-0.293,1.682-0.534,2.597-0.716
		c0.014-0.004,0.028-0.007,0.042-0.009C8.877,15.64,10.401,15.5,12,15.5c5.836,0,9.104,1.827,10.533,2.917
		c0.611,0.471,0.972,1.211,0.967,1.981V23.5C23.5,23.776,23.276,24,23,24z M8.088,16.818c0.356,1.716,1.781,3.003,3.545,3.166
		c0.123,0.011,0.248,0.017,0.372,0.017c1.885,0,3.523-1.353,3.906-3.185C14.689,16.606,13.375,16.5,12,16.5
		C10.625,16.5,9.31,16.607,8.088,16.818z"/>
	<circle cx="14" cy="8.5" r="0.75"/>
	<circle cx="10" cy="8.5" r="0.75"/>
	<path d="M12,15c-0.821,0-1.624-0.154-2.388-0.456c0,0-0.04-0.016-0.04-0.016c-0.141-0.057-0.281-0.118-0.417-0.185l-0.077-0.039
		c-0.103-0.052-0.204-0.107-0.303-0.164c0,0-0.096-0.055-0.129-0.074c-0.105-0.064-0.208-0.131-0.309-0.2
		c0,0-0.058-0.037-0.075-0.049c-0.009-0.007-0.025-0.02-0.037-0.031C6.518,12.564,5.5,10.59,5.5,8.5v-2C5.5,2.916,8.416,0,12,0
		c3.584,0,6.5,2.916,6.5,6.5v2c0,2.089-1.018,4.064-2.724,5.286c-0.009,0.009-0.022,0.02-0.036,0.031
		c-0.019,0.013-0.078,0.05-0.078,0.05c-0.1,0.069-0.203,0.135-0.308,0.199c-0.036,0.022-0.073,0.043-0.11,0.063
		c-0.119,0.068-0.219,0.122-0.321,0.174l-0.08,0.041c-0.135,0.066-0.274,0.127-0.415,0.184c0,0-0.041,0.016-0.042,0.017
		C13.624,14.847,12.82,15,12,15z M9.114,13.178c0.042,0.026,0.085,0.052,0.129,0.077c0.05,0.029,0.08,0.047,0.11,0.063
		c0.1,0.055,0.201,0.107,0.304,0.156l0.059,0.027c0.107,0.049,0.217,0.096,0.329,0.138c0.63,0.238,1.286,0.357,1.956,0.357
		c0.669,0,1.324-0.119,1.947-0.354c0.002-0.001,0.004-0.001,0.006-0.002c0.113-0.043,0.225-0.091,0.335-0.141l0.055-0.025
		c0.103-0.048,0.205-0.101,0.305-0.156l0.11-0.063c0.043-0.025,0.086-0.051,0.129-0.077C14.522,11.887,13.359,11,12,11c0,0,0,0,0,0
		C10.641,11,9.478,11.887,9.114,13.178z M12,10c1.651,0,3.132,1.028,3.724,2.543C16.857,11.5,17.5,10.046,17.5,8.5v-2
		C17.5,3.467,15.033,1,12,1S6.5,3.467,6.5,6.5v2c0,1.546,0.643,3,1.776,4.043C8.868,11.028,10.348,10,12,10L12,10z"/>
	<path d="M11,13c-0.276,0-0.5-0.224-0.5-0.5c0-0.276,0.224-0.5,0.5-0.5h2c0.276,0,0.5,0.224,0.5,0.5c0,0.276-0.224,0.5-0.5,0.5H11z"
		/>
	<path d="M9.5,4.55c-0.131,0-0.255-0.051-0.35-0.142C9.055,4.314,9.002,4.189,9,4.056C8.999,3.922,9.049,3.796,9.143,3.7
		c0.746-0.763,1.786-1.2,2.853-1.2C12.276,2.505,12.5,2.73,12.5,3.001C12.5,3.276,12.275,3.5,12,3.5c-0.001,0-0.004,0-0.004,0
		c-0.8,0-1.579,0.328-2.138,0.9C9.763,4.497,9.636,4.55,9.5,4.55z"/>
</g>
</svg>
