<?xml version="1.0" encoding="utf-8"?>
<!-- Generator: Adobe Illustrator 22.1.0, SVG Export Plug-In . SVG Version: 6.00 Build 0)  -->
<svg version="1.1" id="Layer_1" xmlns="http://www.w3.org/2000/svg" xmlns:xlink="http://www.w3.org/1999/xlink" x="0px" y="0px"
	 viewBox="0 0 24 24" style="enable-background:new 0 0 24 24;" xml:space="preserve">
<g>
	<title>crime-man-ninja</title>
	<path d="M11.75,15c-3.584,0-6.5-2.916-6.5-6.5v-2c0-0.742,0.126-1.472,0.374-2.171c0.002-0.005,0.009-0.025,0.011-0.031
		C6.553,1.734,9.013,0,11.75,0s5.197,1.734,6.121,4.314c0.002,0.005,0.007,0.02,0.008,0.024c0.245,0.689,0.371,1.42,0.371,2.162v2
		C18.25,12.084,15.334,15,11.75,15z M6.25,8.5c0,3.033,2.467,5.5,5.5,5.5s5.5-2.467,5.5-5.5V7h-0.578l-0.338,1.984
		c-0.077,0.995-0.768,1.848-1.758,2.149c-0.867,0.245-1.758,0.368-2.651,0.368c-0.061,0-0.123,0-0.184-0.002
		c-0.044,0.001-0.096,0.001-0.148,0.001c-0.9,0-1.795-0.125-2.659-0.37c-0.995-0.303-1.688-1.162-1.773-2.19L6.828,7H6.25V8.5z
		 M11.916,10.502c0.807,0,1.607-0.11,2.378-0.328c0.586-0.178,0.999-0.695,1.048-1.313L15.658,7H7.842l0.309,1.816
		c0.056,0.661,0.462,1.173,1.064,1.356c0.769,0.218,1.567,0.33,2.367,0.33c0.053,0,0.161-0.001,0.163-0.001
		S11.861,10.502,11.916,10.502z M17.226,6c-0.031-0.339-0.093-0.674-0.185-1H6.459C6.366,5.326,6.304,5.661,6.273,6H17.226z
		 M16.648,4c-0.938-1.834-2.821-3-4.898-3C9.672,1,7.789,2.166,6.852,4H16.648z"/>
	<path d="M22.75,24c-0.276,0-0.5-0.224-0.5-0.5v-3.106c0.003-0.461-0.212-0.903-0.575-1.183c-0.671-0.51-1.831-1.229-3.579-1.797
		l-3.405,6.324C14.603,23.899,14.434,24,14.25,24c-0.082,0-0.164-0.021-0.236-0.059c-0.243-0.132-0.334-0.436-0.204-0.678
		l3.303-6.135c-0.277-0.071-0.563-0.137-0.855-0.198l-6.134,6.901C10.029,23.939,9.893,24,9.75,24c-0.123,0-0.241-0.045-0.332-0.126
		c-0.1-0.088-0.159-0.211-0.167-0.344c-0.008-0.134,0.037-0.262,0.125-0.362l1.705-1.918l-3.84-4.319
		c-2.734,0.562-4.454,1.548-5.419,2.282c-0.361,0.278-0.576,0.719-0.573,1.178V23.5c0,0.276-0.224,0.5-0.5,0.5s-0.5-0.224-0.5-0.5
		v-3.106c-0.005-0.766,0.355-1.505,0.965-1.975C2.649,17.328,5.924,15.5,11.75,15.5c2.822,0,5.343,0.425,7.5,1.264V15h-1
		c-0.276,0-0.5-0.224-0.5-0.5s0.224-0.5,0.5-0.5h1v-3.5c0-0.827,0.673-1.5,1.5-1.5s1.5,0.673,1.5,1.5V14h1
		c0.276,0,0.5,0.224,0.5,0.5s-0.224,0.5-0.5,0.5h-1v3.392c0.011,0.008,0.022,0.017,0.033,0.025c0.612,0.471,0.973,1.211,0.967,1.98
		V23.5C23.25,23.776,23.026,24,22.75,24z M11.75,20.497l3.35-3.768c-1.06-0.152-2.185-0.229-3.35-0.229
		c-1.165,0-2.29,0.077-3.349,0.229L11.75,20.497z M20.25,17.195c0.348,0.166,0.682,0.344,1,0.531V15h-1V17.195z M21.25,14v-3.5
		c0-0.276-0.224-0.5-0.5-0.5s-0.5,0.224-0.5,0.5V14H21.25z"/>
	<circle cx="13.75" cy="8.5" r="0.75"/>
	<circle cx="9.75" cy="8.5" r="0.75"/>
</g>
</svg>
