<?xml version="1.0" encoding="utf-8"?>
<!-- Generator: Adobe Illustrator 22.1.0, SVG Export Plug-In . SVG Version: 6.00 Build 0)  -->
<svg version="1.1" id="Layer_1" xmlns="http://www.w3.org/2000/svg" xmlns:xlink="http://www.w3.org/1999/xlink" x="0px" y="0px"
	 viewBox="0 0 24 24" style="enable-background:new 0 0 24 24;" xml:space="preserve">
<g>
	<title>police-man-3</title>
	<path d="M23,24c-0.276,0-0.5-0.224-0.5-0.5v-2.106c0.003-0.462-0.212-0.904-0.575-1.184c-1.277-0.974-4.188-2.605-9.425-2.704V23.5
		c0,0.276-0.224,0.5-0.5,0.5c-0.276,0-0.5-0.224-0.5-0.5v-5.994c-5.226,0.099-8.144,1.731-9.427,2.706
		c-0.361,0.279-0.575,0.72-0.573,1.179V23.5C1.5,23.776,1.276,24,1,24s-0.5-0.224-0.5-0.5v-2.106
		c-0.005-0.767,0.356-1.506,0.965-1.976C2.9,18.328,6.176,16.5,12,16.5c5.837,0,9.105,1.827,10.533,2.917
		c0.611,0.471,0.972,1.211,0.967,1.98V23.5C23.5,23.776,23.276,24,23,24z"/>
	<path d="M16.5,24c-0.099,0-0.195-0.029-0.278-0.084l-0.609-0.406c-0.698-0.465-1.114-1.243-1.114-2.081V21c0-0.552,0.448-1,1-1h2
		c0.552,0,1,0.448,1,1v0.429c0,0.838-0.416,1.616-1.114,2.081l-0.609,0.406C16.695,23.971,16.599,24,16.5,24z M15.5,21.429
		c0,0.503,0.25,0.97,0.668,1.249l0.332,0.221l0.332-0.221c0.419-0.279,0.669-0.746,0.668-1.249V21h-2L15.5,21.429z"/>
	<path d="M12,12.997c-0.648,0-1.287-0.212-1.8-0.596c-0.107-0.08-0.176-0.197-0.195-0.329C9.986,11.939,10.02,11.807,10.1,11.7
		c0.094-0.125,0.244-0.2,0.4-0.2c0.109,0,0.213,0.035,0.3,0.1c0.341,0.256,0.768,0.397,1.2,0.397c0.432,0,0.859-0.141,1.2-0.397
		c0.086-0.065,0.19-0.1,0.3-0.1c0.157,0,0.306,0.075,0.4,0.2c0.08,0.107,0.114,0.238,0.095,0.371
		c-0.019,0.132-0.088,0.249-0.195,0.329C13.287,12.785,12.648,12.997,12,12.997z"/>
	<path d="M12,5.5c-0.067,0-0.132-0.013-0.193-0.039c-0.953-0.4-1.626-1.284-1.756-2.309c-0.041-0.254,0.023-0.518,0.181-0.736
		c0.158-0.218,0.391-0.361,0.656-0.403C10.94,2.005,10.994,2,11.047,2h1.91c0.56,0.006,1.008,0.463,1.002,1.019
		c0,0.047-0.004,0.096-0.012,0.145c-0.131,1.016-0.803,1.899-1.754,2.298C12.132,5.487,12.067,5.5,12,5.5z M11.047,3
		C11.119,3.624,11.474,4.15,12,4.445c0.519-0.292,0.882-0.825,0.957-1.418L12.954,2.75V3H11.047z"/>
	<path d="M12,16c-3.584,0-6.5-2.916-6.5-6.5V9.259C5.459,9.25,5.341,9.223,5.341,9.223C4.959,9.127,4.632,8.885,4.427,8.541
		C4.221,8.198,4.161,7.794,4.258,7.406l0.256-1.025c0.51-3.25,3.055-5.788,6.328-6.294c0.385-0.059,0.776-0.09,1.163-0.09
		c3.696,0,6.914,2.756,7.486,6.412c0,0,0.257,1.024,0.257,1.025c0.09,0.388,0.023,0.789-0.189,1.129
		c-0.212,0.34-0.544,0.577-0.934,0.668c-0.042,0.01-0.084,0.019-0.126,0.027V9.5C18.5,13.084,15.584,16,12,16z M6.5,9.5
		c0,3.033,2.467,5.5,5.5,5.5s5.5-2.467,5.5-5.5V9.464c-1.811,0.34-3.658,0.52-5.496,0.536C10.16,9.984,8.311,9.803,6.5,9.464V9.5z
		 M5.228,7.648c-0.067,0.267,0.096,0.54,0.364,0.606C7.693,8.73,9.852,8.981,12.004,9c2.145-0.019,4.299-0.27,6.398-0.744
		c0.128-0.03,0.238-0.109,0.309-0.222c0.071-0.113,0.093-0.247,0.063-0.377L18.61,7H5.39L5.228,7.648z M18.389,6
		c-0.72-2.916-3.358-5.002-6.386-5.002c-0.335,0-0.674,0.026-1.008,0.078C8.331,1.487,6.25,3.405,5.615,6H18.389z"/>
</g>
</svg>
