<?xml version="1.0" encoding="utf-8"?>
<!-- Generator: Adobe Illustrator 22.1.0, SVG Export Plug-In . SVG Version: 6.00 Build 0)  -->
<svg version="1.1" id="Layer_1" xmlns="http://www.w3.org/2000/svg" xmlns:xlink="http://www.w3.org/1999/xlink" x="0px" y="0px"
	 viewBox="0 0 24 24" style="enable-background:new 0 0 24 24;" xml:space="preserve">
<g>
	<title>police-man-spy-2</title>
	<path d="M23,24c-0.276,0-0.5-0.224-0.5-0.5v-1.106c0.003-0.462-0.212-0.904-0.575-1.184c-0.42-0.32-1.092-0.766-2.038-1.2
		l1.066,2.278c0.098,0.209,0.041,0.457-0.14,0.602l-1.25,1C19.474,23.961,19.363,24,19.25,24c-0.153,0-0.295-0.068-0.391-0.187
		c-0.172-0.216-0.137-0.531,0.078-0.703l0.943-0.754l-1.349-2.882c-0.315-0.107-0.644-0.207-0.98-0.297l-1.704,4.501
		C15.773,23.87,15.585,24,15.379,24c-0.06,0-0.12-0.011-0.177-0.032c-0.258-0.098-0.389-0.388-0.291-0.645l1.659-4.381
		C15.164,18.648,13.628,18.5,12,18.5c-1.627,0-3.163,0.149-4.57,0.443l1.658,4.38c0.098,0.258-0.033,0.547-0.29,0.645
		C8.741,23.989,8.682,24,8.621,24c-0.206,0-0.394-0.13-0.468-0.323l-1.703-4.5c-0.336,0.091-0.665,0.19-0.982,0.298l-1.348,2.88
		l0.943,0.754c0.215,0.173,0.25,0.488,0.078,0.703C5.045,23.931,4.902,24,4.75,24c-0.113,0-0.224-0.039-0.312-0.11l-1.25-1
		c-0.181-0.145-0.239-0.393-0.141-0.603l1.065-2.275c-0.945,0.434-1.618,0.879-2.04,1.199c-0.361,0.279-0.575,0.72-0.573,1.179V23.5
		C1.5,23.775,1.276,24,1,24s-0.5-0.224-0.5-0.5v-1.106c-0.005-0.766,0.356-1.506,0.964-1.976c0.657-0.499,1.789-1.217,3.461-1.812
		c0.001-0.001,0.015-0.006,0.031-0.011C7.01,17.869,9.382,17.5,12,17.5c2.627,0,5.003,0.37,7.062,1.1
		c1.682,0.596,2.815,1.317,3.471,1.816c0.611,0.471,0.972,1.211,0.967,1.981V23.5C23.5,23.775,23.276,24,23,24z"/>
	<path d="M13.994,17.25c-0.762-0.018-1.473-0.333-1.994-0.875c-0.52,0.542-1.23,0.857-1.988,0.875c0,0,0,0-0.001,0
		c-1.147,0-4.941-0.19-5.917-2.632c-0.039-0.114-0.049-0.21-0.036-0.306c0.021-0.165,0.106-0.312,0.238-0.414
		c0.111-0.085,0.242-0.13,0.38-0.13c0.028,0,0.055,0.002,0.083,0.006c0.239,0.022,0.475,0.033,0.694,0.033
		c0.583,0,1.066-0.081,1.465-0.248c-0.92-1.148-1.421-2.578-1.419-4.06V8H4C3.724,8,3.5,7.775,3.5,7.5S3.724,7,4,7h1.517
		c0.135-2.172,1.094-5.567,2.666-6.705c0.02-0.014,0.04-0.028,0.061-0.042C8.492,0.09,8.781,0.004,9.078,0.004
		c0.519,0,0.997,0.258,1.281,0.691C10.726,1.229,11.341,1.552,12,1.552c0.659,0,1.275-0.324,1.648-0.866
		c0.006-0.009,0.021-0.03,0.036-0.051c0.24-0.33,0.594-0.547,0.997-0.611c0.08-0.013,0.162-0.019,0.243-0.019
		c0.323,0,0.632,0.101,0.895,0.292C17.389,1.433,18.348,4.827,18.483,7H20c0.276,0,0.5,0.224,0.5,0.5S20.276,8,20,8h-1.5v1.5
		c0.003,1.481-0.499,2.91-1.418,4.058c0.4,0.167,0.883,0.248,1.467,0.248c0.221,0,0.46-0.012,0.711-0.035
		c0.013-0.002,0.037-0.003,0.062-0.003c0.064,0,0.131,0.011,0.194,0.031c0.33,0.109,0.508,0.464,0.4,0.791
		C18.93,17.059,15.139,17.25,14,17.25C13.998,17.25,13.996,17.25,13.994,17.25z M12,15.041c0.181,0,0.349,0.099,0.437,0.257
		c0.318,0.572,0.921,0.937,1.575,0.952c2.827,0,4.076-0.834,4.611-1.446c-0.016,0-0.033,0-0.049,0c-2.134,0-2.895-0.911-3.506-1.643
		c-0.458-0.549-0.761-0.911-1.568-0.911c-0.432,0-0.841,0.185-1.125,0.507c-0.093,0.105-0.23,0.166-0.376,0.166
		c-0.146,0-0.283-0.06-0.375-0.166c-0.284-0.323-0.693-0.507-1.122-0.507c-0.809,0-1.112,0.362-1.57,0.911
		c-0.612,0.733-1.373,1.644-3.497,1.644c-0.02,0-0.04,0-0.061,0C5.908,15.416,7.157,16.25,10,16.25
		c0.644-0.015,1.245-0.38,1.563-0.952C11.651,15.139,11.819,15.041,12,15.041z M6.5,9.5c-0.002,1.274,0.44,2.503,1.251,3.487
		c0.15-0.151,0.283-0.311,0.414-0.467c0.497-0.595,1.061-1.27,2.335-1.27c0.545,0,1.069,0.176,1.5,0.499
		c0.43-0.323,0.955-0.499,1.498-0.499c1.277,0,1.841,0.675,2.338,1.27c0.13,0.156,0.264,0.316,0.414,0.467
		c0.81-0.984,1.253-2.212,1.25-3.485V8c0,0.966-0.266,1.725-0.79,2.256c-0.467,0.473-1.102,0.722-1.838,0.722
		c-1.132,0-2.253-0.582-2.872-1.455c-0.619,0.873-1.74,1.455-2.872,1.455c-0.736,0-1.371-0.25-1.838-0.722
		C6.766,9.724,6.5,8.965,6.5,8V9.5z M12.5,8c0,1.132,1.252,1.978,2.372,1.978c0.322,0,0.78-0.074,1.126-0.425
		C16.331,9.216,16.5,8.693,16.5,8H12.5z M7.5,8c0,0.693,0.169,1.216,0.502,1.553c0.347,0.351,0.804,0.425,1.126,0.425
		c1.12,0,2.372-0.846,2.372-1.978H7.5z M17.481,7c-0.022-0.31-0.062-0.649-0.12-1H6.639c-0.057,0.351-0.098,0.69-0.12,1H17.481z
		 M17.159,5c-0.363-1.514-1.037-3.25-1.928-3.895c-0.091-0.066-0.198-0.101-0.309-0.101c-0.028,0-0.056,0.002-0.084,0.007
		c-0.139,0.022-0.262,0.097-0.344,0.211l-0.017,0.025C13.913,2.064,12.988,2.552,12,2.552c-0.989,0-1.912-0.486-2.472-1.3
		c-0.103-0.157-0.27-0.248-0.45-0.248c-0.102,0-0.201,0.03-0.287,0.086L8.765,1.108C7.879,1.75,7.204,3.485,6.841,5H17.159z"/>
	<path d="M10.731,24c-0.037,0-0.074-0.004-0.111-0.012c-0.269-0.061-0.438-0.329-0.378-0.597l0.788-3.5
		c0.1-0.357,0.359-0.62,0.696-0.716c0.089-0.025,0.182-0.038,0.274-0.038c0.169,0,0.337,0.044,0.486,0.127
		c0.234,0.13,0.402,0.344,0.475,0.6l0.795,3.527c0.029,0.13,0.006,0.264-0.065,0.377s-0.183,0.191-0.313,0.22
		C13.343,23.995,13.306,24,13.269,24c-0.235,0-0.436-0.16-0.488-0.39l-0.78-3.463l-0.783,3.463C11.167,23.839,10.967,24,10.731,24z"
		/>
</g>
</svg>
