<?xml version="1.0" encoding="utf-8"?>
<!-- Generator: Adobe Illustrator 22.1.0, SVG Export Plug-In . SVG Version: 6.00 Build 0)  -->
<svg version="1.1" id="Layer_1" xmlns="http://www.w3.org/2000/svg" xmlns:xlink="http://www.w3.org/1999/xlink" x="0px" y="0px"
	 viewBox="0 0 24 24" style="enable-background:new 0 0 24 24;" xml:space="preserve">
<g>
	<title>police-man-2</title>
	<path d="M23,24c-0.276,0-0.5-0.224-0.5-0.5v-2.106c0.003-0.462-0.212-0.904-0.575-1.184c-1.277-0.974-4.188-2.605-9.425-2.704V23.5
		c0,0.276-0.224,0.5-0.5,0.5c-0.276,0-0.5-0.224-0.5-0.5v-5.994c-5.225,0.099-8.144,1.731-9.427,2.706
		c-0.361,0.279-0.575,0.72-0.573,1.179V23.5C1.5,23.776,1.276,24,1,24s-0.5-0.224-0.5-0.5v-2.106
		c-0.005-0.766,0.356-1.506,0.964-1.976C2.901,18.327,6.177,16.5,12,16.5c5.836,0,9.104,1.827,10.533,2.917
		c0.611,0.471,0.972,1.211,0.967,1.981V23.5C23.5,23.776,23.276,24,23,24z"/>
	<path d="M16.5,24c-0.099,0-0.195-0.029-0.278-0.084l-0.609-0.406c-0.698-0.465-1.114-1.243-1.114-2.081V20.5
		c0-0.276,0.224-0.5,0.5-0.5h3c0.276,0,0.5,0.224,0.5,0.5v0.929c0,0.838-0.416,1.616-1.114,2.081l-0.609,0.406
		C16.695,23.971,16.599,24,16.5,24z M15.5,21.429c0,0.503,0.25,0.97,0.668,1.249l0.332,0.221l0.332-0.221
		c0.419-0.279,0.669-0.746,0.668-1.249V21h-2V21.429z"/>
	<path d="M12,13.997c-0.648,0-1.287-0.212-1.8-0.597c-0.107-0.08-0.176-0.197-0.195-0.329C9.986,12.938,10.02,12.807,10.1,12.7
		c0.094-0.125,0.243-0.2,0.4-0.2c0.109,0,0.212,0.035,0.3,0.1c0.342,0.256,0.768,0.397,1.2,0.397c0.432,0,0.859-0.141,1.2-0.397
		c0.087-0.065,0.19-0.1,0.3-0.1c0.157,0,0.307,0.075,0.4,0.201c0.08,0.106,0.114,0.238,0.095,0.37
		c-0.019,0.132-0.088,0.25-0.195,0.33C13.287,13.785,12.648,13.997,12,13.997z"/>
	<path d="M12,16c-3.584,0-6.5-2.916-6.5-6.5V7c0-0.037,0.004-0.074,0.012-0.111L5.59,6.553C4.515,6.401,3.441,6.212,2.396,5.989
		C2.265,5.961,2.153,5.884,2.081,5.772s-0.097-0.246-0.07-0.376C2.06,5.166,2.265,5,2.499,5c0.036,0,0.071,0.004,0.106,0.012
		c1.053,0.224,2.132,0.414,3.21,0.564l0.66-2.863C6.845,1.115,8.247,0,9.886,0h4.227c1.64,0,3.042,1.115,3.411,2.712l0.66,2.863
		c1.078-0.15,2.157-0.34,3.211-0.564C21.429,5.004,21.465,5,21.5,5c0.234,0,0.439,0.166,0.489,0.396
		c0.057,0.27-0.115,0.536-0.385,0.594c-1.045,0.223-2.119,0.412-3.194,0.564l0.077,0.335C18.496,6.926,18.5,6.963,18.5,7v2.5
		C18.5,13.084,15.584,16,12,16z M6.891,11.531C7.714,13.583,9.742,15,12,15s4.287-1.417,5.109-3.469
		C16.633,11.834,16.077,12,15.5,12c-1.59,0-2.885-1.221-2.99-2.797c-0.019-0.018-0.037-0.034-0.055-0.047
		c-0.13-0.099-0.286-0.151-0.449-0.151c-0.193,0-0.377,0.073-0.517,0.203C11.382,10.781,10.087,12,8.5,12
		C7.923,12,7.367,11.834,6.891,11.531z M15.5,8c-1.698,0-2,0.262-2,1c0,1.103,0.897,2,2,2s2-0.897,2-2C17.5,8.262,17.198,8,15.5,8z
		 M8.5,8c-1.698,0-2,0.262-2,1c0,1.103,0.897,2,2,2s2-0.897,2-2C10.5,8.262,10.198,8,8.5,8z M8.5,7c0.896,0,2.35,0,2.836,1.135
		c0.21-0.086,0.436-0.131,0.666-0.131c0.229,0,0.453,0.044,0.662,0.13C13.15,7,14.604,7,15.5,7c0.601,0,1.38,0,2,0.293V7.057
		l-0.087-0.376C15.602,6.897,13.782,7.006,12,7.006c-1.782,0-3.602-0.109-5.413-0.325L6.5,7.057v0.236C7.12,7,7.899,7,8.5,7z
		 M6.813,5.7C8.533,5.901,10.277,6.003,12,6.003c1.723,0,3.466-0.102,5.187-0.302L16.55,2.937C16.286,1.797,15.285,1,14.114,1H9.886
		C8.715,1,7.714,1.797,7.45,2.938L6.813,5.7z"/>
	<path d="M12,5.5c-0.02,0-2-0.034-2-3C10,2.224,10.224,2,10.5,2h3C13.776,2,14,2.224,14,2.5C14,5.466,12.02,5.5,12,5.5z M11.024,3
		c0.15,1.454,0.948,1.499,0.984,1.5c0.024-0.001,0.817-0.049,0.968-1.5H11.024z"/>
</g>
</svg>
