<?xml version="1.0" encoding="utf-8"?>
<!-- Generator: Adobe Illustrator 22.1.0, SVG Export Plug-In . SVG Version: 6.00 Build 0)  -->
<svg version="1.1" id="Layer_1" xmlns="http://www.w3.org/2000/svg" xmlns:xlink="http://www.w3.org/1999/xlink" x="0px" y="0px"
	 viewBox="0 0 24 24" style="enable-background:new 0 0 24 24;" xml:space="preserve">
<g>
	<title>style-three-pin-drink-food</title>
	<path d="M12,16.074c-0.827,0-1.5-0.673-1.5-1.5v-0.586c-0.59-0.209-1-0.774-1-1.414c0-0.64,0.41-1.205,1-1.414v-0.586
		c0-0.827,0.673-1.5,1.5-1.5h5c0.827,0,1.5,0.673,1.5,1.5v0.586c0.59,0.209,1,0.774,1,1.414c0,0.64-0.41,1.205-1,1.414v0.586
		c0,0.827-0.673,1.5-1.5,1.5H12z M11.5,14.574c0,0.276,0.224,0.5,0.5,0.5h5c0.276,0,0.5-0.224,0.5-0.5v-0.5h-6V14.574z M11,12.074
		c-0.276,0-0.5,0.224-0.5,0.5s0.224,0.5,0.5,0.5h7c0.276,0,0.5-0.224,0.5-0.5s-0.224-0.5-0.5-0.5H11z M17.5,11.074v-0.5
		c0-0.276-0.224-0.5-0.5-0.5h-5c-0.276,0-0.5,0.224-0.5,0.5v0.5H17.5z"/>
	<path d="M7,15.074c-0.252,0-0.465-0.188-0.496-0.438l-1-8C5.486,6.494,5.53,6.351,5.625,6.243C5.72,6.136,5.856,6.074,6,6.074
		h3.576l0.43-2.582c0.04-0.242,0.247-0.418,0.492-0.418c0.028,0,0.056,0.002,0.084,0.007c0.271,0.045,0.455,0.303,0.41,0.575
		L10.59,6.074H12c0.143,0,0.28,0.062,0.375,0.169c0.095,0.108,0.139,0.251,0.121,0.393l-0.188,1.5
		c-0.031,0.25-0.245,0.438-0.496,0.438l0,0c-0.02,0-0.041-0.001-0.062-0.004c-0.274-0.035-0.469-0.285-0.434-0.558l0.117-0.938
		h-1.01l-0.43,2.582c-0.04,0.242-0.248,0.418-0.493,0.418c-0.027,0-0.055-0.002-0.083-0.007c-0.272-0.045-0.456-0.303-0.411-0.575
		L9.41,7.074H6.566l0.875,7H9c0.276,0,0.5,0.224,0.5,0.5s-0.224,0.5-0.5,0.5H7z"/>
	<path d="M11.999,23.927c-0.234,0-0.462-0.083-0.641-0.233c-2.586-2.204-4.998-4.644-7.169-7.251
		c-2.091-2.513-3.031-5.607-2.578-8.488c0.393-2.5,1.817-4.643,4.009-6.033c1.906-1.209,4.106-1.848,6.363-1.848h0.034
		c2.257,0,4.457,0.639,6.363,1.848c2.193,1.39,3.617,3.533,4.01,6.034c0.452,2.881-0.488,5.973-2.578,8.485
		c-2.171,2.608-4.582,5.047-7.166,7.25C12.463,23.843,12.234,23.927,11.999,23.927z M11.983,1.074c-2.067,0-4.082,0.585-5.827,1.692
		C4.21,4,2.947,5.897,2.599,8.11c-0.408,2.597,0.451,5.401,2.358,7.693c2.136,2.565,4.506,4.963,7.046,7.127
		c2.534-2.166,4.904-4.564,7.039-7.128c1.907-2.291,2.767-5.094,2.359-7.69C21.054,5.898,19.79,4,17.844,2.766
		c-1.746-1.107-3.761-1.692-5.828-1.692c-0.002,0-0.023,0-0.026,0C11.988,1.074,11.985,1.074,11.983,1.074z"/>
</g>
</svg>
