<?xml version="1.0" encoding="utf-8"?>
<!-- Generator: Adobe Illustrator 22.1.0, SVG Export Plug-In . SVG Version: 6.00 Build 0)  -->
<svg version="1.1" id="Layer_1" xmlns="http://www.w3.org/2000/svg" xmlns:xlink="http://www.w3.org/1999/xlink" x="0px" y="0px"
	 viewBox="0 0 24 24" style="enable-background:new 0 0 24 24;" xml:space="preserve">
<g>
	<title>style-three-pin-book_1</title>
	<path d="M12,24c-0.117,0-0.231-0.041-0.321-0.116c-2.714-2.266-5.235-4.795-7.491-7.517c-2.09-2.512-3.03-5.605-2.577-8.486
		C2.004,5.38,3.428,3.237,5.62,1.848C7.526,0.639,9.727,0,11.983,0l0.026,0.25V0c2.264,0,4.464,0.639,6.37,1.848
		c2.193,1.39,3.617,3.533,4.01,6.034c0.452,2.881-0.488,5.973-2.578,8.485c-2.256,2.721-4.776,5.25-7.491,7.517
		C12.231,23.959,12.117,24,12,24z M11.983,1C9.916,1,7.901,1.585,6.156,2.692C4.21,3.926,2.947,5.823,2.599,8.036
		c-0.408,2.597,0.452,5.4,2.358,7.691c2.128,2.567,4.497,4.961,7.043,7.119c2.545-2.157,4.914-4.551,7.042-7.119
		c1.907-2.292,2.767-5.095,2.359-7.691c-0.348-2.213-1.611-4.111-3.557-5.345C16.102,1.587,14.091,1.002,12.028,1
		c-0.008,0.001-0.016,0.001-0.022,0.001C11.998,1.001,11.983,1,11.983,1z"/>
	<path d="M12,16.5c-0.064,0-0.126-0.014-0.188-0.039c-0.013-0.004-0.026-0.009-0.038-0.015L7.4,14.194
		c-0.53-0.209-0.9-0.765-0.9-1.373V7.737c0-0.551,0.449-1,1-1c0.129,0,0.254,0.024,0.372,0.072L12,8.937l4.085-2.109
		c0.156-0.065,0.281-0.091,0.414-0.092c0.552,0,1.001,0.449,1.001,1v5.084c0.001,0.618-0.369,1.166-0.943,1.395l-4.328,2.229
		c-0.012,0.006-0.048,0.021-0.061,0.025c-0.004,0.001-0.036,0.012-0.04,0.013C12.083,16.494,12.041,16.5,12,16.5L12,16.5z
		 M7.5,12.821c0,0.206,0.123,0.388,0.314,0.465l3.686,1.895V9.805l-4-2.065L7.5,12.821z M12.5,15.18l3.642-1.873
		c0.232-0.095,0.358-0.272,0.357-0.485V7.737l-4,2.067V15.18z"/>
	<path d="M12,7.499c-0.082,0-0.163-0.02-0.236-0.059L8.018,5.441C7.9,5.378,7.814,5.273,7.775,5.146
		C7.736,5.018,7.749,4.883,7.812,4.765C7.899,4.601,8.068,4.5,8.253,4.5c0.082,0,0.163,0.021,0.235,0.059L12,6.432l3.498-1.868
		c0.072-0.038,0.153-0.059,0.235-0.059c0.185,0,0.354,0.101,0.441,0.265c0.063,0.118,0.076,0.253,0.037,0.381
		c-0.039,0.128-0.125,0.233-0.243,0.296L12.236,7.44C12.163,7.479,12.082,7.499,12,7.499z"/>
</g>
</svg>
