<?xml version="1.0" encoding="utf-8"?>
<!-- Generator: Adobe Illustrator 22.1.0, SVG Export Plug-In . SVG Version: 6.00 Build 0)  -->
<svg version="1.1" id="Layer_1" xmlns="http://www.w3.org/2000/svg" xmlns:xlink="http://www.w3.org/1999/xlink" x="0px" y="0px"
	 viewBox="0 0 24 24" style="enable-background:new 0 0 24 24;" xml:space="preserve">
<g>
	<title>style-three-pin-bow</title>
	<path d="M12,24c-0.117,0-0.231-0.041-0.321-0.116c-2.714-2.266-5.235-4.795-7.491-7.517c-2.09-2.512-3.03-5.605-2.577-8.486
		C2.004,5.38,3.428,3.237,5.62,1.848C7.526,0.639,9.727,0,11.983,0l0.026,0.25V0c2.264,0,4.464,0.639,6.37,1.848
		c2.193,1.39,3.617,3.533,4.01,6.034c0.452,2.881-0.488,5.973-2.578,8.485c-2.256,2.721-4.776,5.25-7.491,7.517
		C12.231,23.959,12.117,24,12,24z M11.983,1C9.916,1,7.901,1.585,6.156,2.692C4.21,3.926,2.947,5.823,2.599,8.036
		c-0.408,2.597,0.452,5.4,2.358,7.691c2.128,2.567,4.497,4.961,7.043,7.119c2.545-2.157,4.914-4.551,7.042-7.119
		c1.907-2.292,2.767-5.095,2.359-7.691c-0.348-2.213-1.611-4.111-3.557-5.345C16.102,1.587,14.091,1.002,12.028,1
		c-0.008,0.001-0.016,0.001-0.022,0.001C11.998,1.001,11.983,1,11.983,1z"/>
	<path d="M9,18c-0.827,0-1.5-0.673-1.5-1.5c0-0.509,0.253-0.969,0.664-1.243L4.61,10.813c-0.024-0.03-0.037-0.057-0.044-0.072
		c-0.008-0.012-0.025-0.046-0.03-0.059c-0.045-0.117-0.045-0.245-0.001-0.361c0.005-0.014,0.023-0.047,0.031-0.06
		c0.007-0.015,0.02-0.042,0.044-0.072l3.556-4.446C7.753,5.47,7.5,5.01,7.5,4.5C7.5,3.673,8.173,3,9,3
		c3.983,0,7.224,3.056,7.481,7.001H18.5l-0.8-0.6c-0.107-0.08-0.176-0.197-0.195-0.329C17.486,8.939,17.52,8.808,17.6,8.701
		c0.094-0.125,0.244-0.2,0.4-0.2c0.109,0,0.213,0.035,0.3,0.1l2,1.5c0.013,0.01,0.027,0.022,0.039,0.036
		c0.027,0.025,0.054,0.058,0.081,0.099c0.004,0.004,0.019,0.025,0.032,0.054c0.032,0.068,0.048,0.139,0.048,0.211
		s-0.016,0.143-0.049,0.212c-0.007,0.015-0.026,0.045-0.036,0.058c-0.022,0.035-0.047,0.066-0.076,0.093
		c-0.013,0.015-0.028,0.029-0.042,0.039L18.3,12.401c-0.087,0.065-0.19,0.1-0.3,0.1c-0.157,0-0.306-0.075-0.4-0.2
		c-0.08-0.107-0.114-0.238-0.095-0.371c0.019-0.132,0.088-0.249,0.195-0.329l0.8-0.6h-2.019C16.223,14.945,12.982,18,9,18z
		 M8.985,16C8.716,16.009,8.5,16.23,8.5,16.5C8.5,16.776,8.724,17,9,17c3.425,0,6.223-2.615,6.479-5.999h-1.009
		c-0.254,2.811-2.6,4.985-5.444,4.999C9.018,16,9.009,16.001,9,16.001C8.995,16.001,8.99,16.001,8.985,16z M9.231,14.99
		c2.189-0.113,3.992-1.822,4.235-3.989H6.04L9.231,14.99z M15.479,10.001C15.224,6.615,12.426,4,9,4C8.724,4,8.5,4.224,8.5,4.5
		S8.724,5,9,5c2.858,0,5.217,2.178,5.471,5.001H15.479z M13.466,10.001c-0.242-2.167-2.044-3.877-4.233-3.99l-3.192,3.99H13.466z"/>
</g>
</svg>
