<?xml version="1.0" encoding="utf-8"?>
<!-- Generator: Adobe Illustrator 22.1.0, SVG Export Plug-In . SVG Version: 6.00 Build 0)  -->
<svg version="1.1" id="Layer_1" xmlns="http://www.w3.org/2000/svg" xmlns:xlink="http://www.w3.org/1999/xlink" x="0px" y="0px"
	 viewBox="0 0 24 24" style="enable-background:new 0 0 24 24;" xml:space="preserve">
<g>
	<title>style-three-pin-bread-slice</title>
	<path d="M8.5,16.074c-0.551,0-1-0.448-1-1V8.806C6.888,8.451,6.501,7.788,6.501,7.075c0-0.534,0.208-1.036,0.585-1.414
		S7.966,5.074,8.5,5.074h7c1.103,0,2,0.897,2,2c0,0.714-0.388,1.377-1,1.732v6.268c0,0.552-0.448,1-1,1H8.5z M8.5,6.074
		c-0.267,0-0.518,0.104-0.707,0.293c-0.189,0.189-0.293,0.44-0.293,0.707c0,0.423,0.268,0.801,0.666,0.942
		C8.366,8.088,8.5,8.277,8.5,8.488v6.586h7V8.488c0-0.212,0.134-0.401,0.333-0.471c0.399-0.141,0.667-0.52,0.667-0.943
		c0-0.551-0.448-1-1-1H8.5L8.5,6.074z"/>
	<path d="M11.999,23.927c-0.234,0-0.462-0.083-0.641-0.233c-2.586-2.204-4.998-4.644-7.169-7.251
		c-2.091-2.513-3.031-5.607-2.578-8.488c0.393-2.5,1.817-4.643,4.009-6.033c1.906-1.209,4.106-1.848,6.363-1.848h0.034
		c2.257,0,4.457,0.639,6.363,1.848c2.193,1.39,3.617,3.533,4.01,6.034c0.452,2.881-0.488,5.973-2.578,8.485
		c-2.171,2.608-4.582,5.047-7.166,7.25C12.463,23.843,12.234,23.927,11.999,23.927z M11.983,1.074c-2.067,0-4.082,0.585-5.827,1.692
		C4.21,4,2.947,5.897,2.599,8.11c-0.408,2.597,0.451,5.401,2.358,7.693c2.136,2.565,4.506,4.963,7.046,7.127
		c2.534-2.166,4.904-4.564,7.039-7.128c1.907-2.291,2.767-5.094,2.359-7.69C21.054,5.898,19.79,4,17.844,2.766
		c-1.746-1.107-3.761-1.692-5.828-1.692c-0.002,0-0.023,0-0.026,0C11.988,1.074,11.985,1.074,11.983,1.074z"/>
</g>
</svg>
