<?xml version="1.0" encoding="utf-8"?>
<!-- Generator: Adobe Illustrator 22.1.0, SVG Export Plug-In . SVG Version: 6.00 Build 0)  -->
<svg version="1.1" id="Layer_1" xmlns="http://www.w3.org/2000/svg" xmlns:xlink="http://www.w3.org/1999/xlink" x="0px" y="0px"
	 viewBox="0 0 24 24" style="enable-background:new 0 0 24 24;" xml:space="preserve">
<g>
	<title>style-three-pin-user</title>
	<path d="M12,24c-0.117,0-0.231-0.041-0.321-0.116c-2.714-2.266-5.235-4.795-7.491-7.517c-2.09-2.512-3.03-5.605-2.577-8.486
		C2.004,5.38,3.428,3.237,5.62,1.848C7.526,0.639,9.727,0,11.983,0l0.026,0.25V0c2.264,0,4.464,0.639,6.37,1.848
		c2.193,1.39,3.617,3.533,4.01,6.034c0.452,2.881-0.488,5.973-2.578,8.485c-2.256,2.721-4.776,5.25-7.491,7.517
		C12.231,23.959,12.117,24,12,24z M11.983,1C9.916,1,7.901,1.585,6.156,2.692C4.21,3.926,2.947,5.823,2.599,8.036
		c-0.408,2.597,0.452,5.4,2.358,7.691c2.128,2.567,4.497,4.961,7.043,7.119c2.545-2.157,4.914-4.551,7.042-7.119
		c1.907-2.292,2.767-5.095,2.359-7.691c-0.348-2.213-1.611-4.111-3.557-5.345C16.102,1.587,14.091,1.002,12.028,1
		c-0.008,0.001-0.016,0.001-0.022,0.001C11.998,1.001,11.983,1,11.983,1z"/>
	<path d="M7.612,15.5c-0.037,0-0.074-0.004-0.11-0.012c-0.27-0.062-0.439-0.33-0.378-0.599c0.424-1.865,1.903-3.343,3.767-3.767
		c0.365-0.083,0.738-0.125,1.109-0.125c2.312,0,4.362,1.637,4.875,3.892c0.061,0.269-0.108,0.537-0.377,0.598
		c-0.037,0.008-0.074,0.012-0.11,0.012c0,0,0,0,0,0c-0.235,0-0.436-0.16-0.488-0.389c-0.41-1.804-2.051-3.114-3.9-3.114
		c-0.297,0-0.595,0.034-0.887,0.1c-1.491,0.339-2.674,1.522-3.014,3.014C8.047,15.34,7.847,15.5,7.612,15.5z"/>
	<path d="M12,11.002c-1.93,0-3.5-1.57-3.5-3.5s1.57-3.5,3.5-3.5c1.93,0,3.5,1.57,3.5,3.5S13.93,11.002,12,11.002z M12,5.002
		c-1.379,0-2.5,1.121-2.5,2.5s1.121,2.5,2.5,2.5s2.5-1.121,2.5-2.5S13.379,5.002,12,5.002z"/>
</g>
</svg>
