<?xml version="1.0" encoding="utf-8"?>
<!-- Generator: Adobe Illustrator 22.1.0, SVG Export Plug-In . SVG Version: 6.00 Build 0)  -->
<svg version="1.1" id="Layer_1" xmlns="http://www.w3.org/2000/svg" xmlns:xlink="http://www.w3.org/1999/xlink" x="0px" y="0px"
	 viewBox="0 0 24 24" style="enable-background:new 0 0 24 24;" xml:space="preserve">
<g>
	<title>style-three-pin-tent</title>
	<path d="M6,15.074c-0.186,0-0.355-0.102-0.442-0.267c-0.087-0.164-0.076-0.362,0.029-0.515l5.808-8.518l-1.308-1.918
		c-0.155-0.228-0.096-0.54,0.131-0.695c0.083-0.057,0.181-0.087,0.281-0.087c0.166,0,0.32,0.082,0.413,0.218L12,4.886l1.087-1.594
		c0.094-0.137,0.248-0.218,0.413-0.218c0.101,0,0.198,0.03,0.281,0.087c0.111,0.075,0.185,0.189,0.21,0.32
		c0.025,0.131-0.003,0.264-0.078,0.375l-1.308,1.918l5.808,8.518c0.105,0.154,0.116,0.352,0.029,0.516
		c-0.086,0.164-0.256,0.266-0.442,0.266H6z M17.054,14.074L12,6.662l-5.054,7.412h2.277l2.353-3.765
		c0.089-0.142,0.248-0.227,0.424-0.227s0.335,0.085,0.424,0.227l2.353,3.765H17.054z M13.598,14.074L12,11.517l-1.598,2.557H13.598z
		"/>
	<path d="M11.999,23.926c-0.234,0-0.462-0.083-0.641-0.233c-2.586-2.204-4.997-4.644-7.169-7.252
		c-2.091-2.511-3.03-5.604-2.578-8.485C2.004,5.454,3.428,3.311,5.62,1.922c1.906-1.209,4.106-1.848,6.363-1.848h0.034
		c2.257,0,4.457,0.639,6.363,1.848c2.193,1.39,3.617,3.533,4.01,6.034c0.452,2.881-0.488,5.973-2.578,8.485
		c-2.17,2.607-4.581,5.046-7.166,7.249C12.463,23.842,12.234,23.926,11.999,23.926z M11.983,1.074c-2.067,0-4.082,0.585-5.827,1.692
		C4.21,4,2.946,5.898,2.599,8.11c-0.408,2.596,0.452,5.399,2.358,7.69c2.135,2.564,4.506,4.963,7.046,7.128
		c2.534-2.166,4.904-4.563,7.039-7.127c1.907-2.291,2.767-5.094,2.359-7.69C21.054,5.898,19.79,4,17.844,2.766
		c-1.746-1.107-3.761-1.692-5.828-1.692C12.012,1.074,11.983,1.074,11.983,1.074z"/>
</g>
</svg>
