<?xml version="1.0" encoding="utf-8"?>
<!-- Generator: Adobe Illustrator 22.1.0, SVG Export Plug-In . SVG Version: 6.00 Build 0)  -->
<svg version="1.1" id="Layer_1" xmlns="http://www.w3.org/2000/svg" xmlns:xlink="http://www.w3.org/1999/xlink" x="0px" y="0px"
	 viewBox="0 0 24 24" style="enable-background:new 0 0 24 24;" xml:space="preserve">
<g>
	<title>style-three-pin-ice-skating</title>
	<path d="M7,16.005c-0.276,0-0.5-0.224-0.5-0.5s0.224-0.5,0.5-0.5h1.5v-1.051c-1.155-0.234-2-1.25-2-2.449V5.851
		c0.001-0.414,0.261-0.79,0.648-0.935l3.001-1.126c0.113-0.042,0.23-0.064,0.349-0.064c0.552,0,1.001,0.448,1.001,0.999v2.78
		c0,0.827,0.673,1.5,1.5,1.5c1.465,0,2.786,0.928,3.288,2.31c0.144,0.404,0.212,0.797,0.212,1.19c0,0.827-0.673,1.5-1.5,1.5h-0.5v1
		h2c0.552,0,1-0.448,1-1c0-0.276,0.224-0.5,0.5-0.5s0.5,0.224,0.5,0.5c0,1.103-0.897,2-2,2H7z M13.5,15.005v-1h-4v1H13.5z
		 M7.5,5.852l0,5.653c0,0.827,0.673,1.5,1.5,1.5h6c0.276,0,0.5-0.224,0.5-0.5c0-0.165-0.018-0.333-0.052-0.5H11
		c-1.379,0-2.5-1.121-2.5-2.5v-2c0-0.191,0.106-0.362,0.276-0.447L10.5,6.196V4.726L7.5,5.852z M9.5,9.505
		c0,0.827,0.673,1.5,1.5,1.5h3.997c-0.468-0.625-1.201-1-1.997-1c-1.378,0-2.5-1.121-2.5-2.5V7.314l-1,0.5V9.505z"/>
	<path d="M12,24c-0.117,0-0.231-0.041-0.321-0.116c-2.714-2.266-5.235-4.795-7.491-7.517c-2.09-2.512-3.03-5.605-2.577-8.486
		C2.004,5.38,3.428,3.237,5.62,1.848C7.526,0.639,9.727,0,11.983,0l0.026,0.25V0c2.264,0,4.464,0.639,6.37,1.848
		c2.193,1.39,3.617,3.533,4.01,6.034c0.452,2.881-0.488,5.973-2.578,8.485c-2.256,2.721-4.776,5.25-7.491,7.517
		C12.231,23.959,12.117,24,12,24z M11.983,1C9.916,1,7.901,1.585,6.156,2.692C4.21,3.926,2.947,5.823,2.599,8.036
		c-0.408,2.597,0.452,5.4,2.358,7.691c2.128,2.567,4.497,4.961,7.043,7.119c2.545-2.157,4.914-4.551,7.042-7.119
		c1.907-2.292,2.767-5.095,2.359-7.691c-0.348-2.213-1.611-4.111-3.557-5.345C16.102,1.587,14.091,1.002,12.028,1
		c-0.008,0.001-0.016,0.001-0.022,0.001C11.998,1.001,11.983,1,11.983,1z"/>
</g>
</svg>
