<?xml version="1.0" encoding="utf-8"?>
<!-- Generator: Adobe Illustrator 22.1.0, SVG Export Plug-In . SVG Version: 6.00 Build 0)  -->
<svg version="1.1" id="Layer_1" xmlns="http://www.w3.org/2000/svg" xmlns:xlink="http://www.w3.org/1999/xlink" x="0px" y="0px"
	 viewBox="0 0 24 24" style="enable-background:new 0 0 24 24;" xml:space="preserve">
<g>
	<title>style-three-pin-user-man</title>
	<path d="M11.999,23.926c-0.234,0-0.462-0.083-0.641-0.233c-2.586-2.204-4.997-4.644-7.169-7.252
		c-2.091-2.511-3.03-5.604-2.578-8.485C2.004,5.454,3.428,3.311,5.62,1.922c1.906-1.209,4.106-1.848,6.363-1.848h0.034
		c2.257,0,4.457,0.639,6.363,1.848c2.193,1.39,3.617,3.533,4.01,6.034c0.452,2.881-0.488,5.973-2.578,8.485
		c-2.17,2.607-4.581,5.046-7.166,7.249C12.463,23.842,12.234,23.926,11.999,23.926z M11.983,1.074c-2.067,0-4.082,0.585-5.827,1.692
		C4.21,4,2.946,5.898,2.599,8.11c-0.408,2.596,0.452,5.399,2.358,7.69c2.135,2.564,4.506,4.963,7.046,7.128
		c2.534-2.166,4.904-4.563,7.039-7.127c1.907-2.291,2.767-5.094,2.359-7.69C21.054,5.898,19.79,4,17.844,2.766
		c-1.746-1.107-3.761-1.692-5.828-1.692C12.012,1.074,11.983,1.074,11.983,1.074z"/>
	<path d="M12,8.074c-1.379,0-2.5-1.121-2.5-2.5s1.121-2.5,2.5-2.5s2.5,1.121,2.5,2.5S13.379,8.074,12,8.074z M12,4.074
		c-0.827,0-1.5,0.673-1.5,1.5s0.673,1.5,1.5,1.5c0.827,0,1.5-0.673,1.5-1.5S12.827,4.074,12,4.074z"/>
	<path d="M10.543,17.074c-0.249,0-0.462-0.186-0.495-0.433l-0.484-3.567H9c-0.276,0-0.5-0.224-0.5-0.5v-1c0-1.93,1.57-3.5,3.5-3.5
		c1.93,0,3.5,1.57,3.5,3.5v1c0,0.276-0.224,0.5-0.5,0.5h-0.559l-0.445,3.562c-0.031,0.25-0.244,0.438-0.496,0.438H10.543z
		 M13.058,16.074l0.445-3.562c0.031-0.25,0.244-0.438,0.496-0.438h0.5v-0.5c0-1.379-1.121-2.5-2.5-2.5s-2.5,1.121-2.5,2.5v0.5H10
		c0.249,0,0.462,0.186,0.495,0.433l0.484,3.567H13.058z"/>
</g>
</svg>
