<?xml version="1.0" encoding="utf-8"?>
<!-- Generator: Adobe Illustrator 22.1.0, SVG Export Plug-In . SVG Version: 6.00 Build 0)  -->
<svg version="1.1" id="Layer_1" xmlns="http://www.w3.org/2000/svg" xmlns:xlink="http://www.w3.org/1999/xlink" x="0px" y="0px"
	 viewBox="0 0 24 24" style="enable-background:new 0 0 24 24;" xml:space="preserve">
<g>
	<title>style-three-pin-restaurant</title>
	<path d="M12,24c-0.117,0-0.231-0.041-0.321-0.116c-2.714-2.266-5.235-4.795-7.491-7.517c-2.09-2.512-3.03-5.605-2.577-8.486
		C2.004,5.38,3.428,3.237,5.62,1.848C7.526,0.639,9.727,0,11.983,0l0.026,0.25V0c2.264,0,4.464,0.639,6.37,1.848
		c2.193,1.39,3.617,3.533,4.01,6.034c0.452,2.881-0.488,5.973-2.578,8.485c-2.256,2.721-4.776,5.25-7.491,7.517
		C12.231,23.959,12.117,24,12,24z M11.983,1C9.916,1,7.901,1.585,6.156,2.692C4.21,3.926,2.947,5.823,2.599,8.036
		c-0.408,2.597,0.452,5.4,2.358,7.691c2.128,2.567,4.497,4.961,7.043,7.119c2.545-2.157,4.914-4.551,7.042-7.119
		c1.907-2.292,2.767-5.095,2.359-7.691c-0.348-2.213-1.611-4.111-3.557-5.345C16.102,1.587,14.091,1.002,12.028,1
		c-0.008,0.001-0.016,0.001-0.022,0.001C11.998,1.001,11.983,1,11.983,1z"/>
	<path d="M9,15.998c-0.276,0-0.5-0.224-0.5-0.5v-4.549c-1.155-0.234-2-1.25-2-2.449v-2C6.5,6.224,6.724,6,7,6s0.5,0.224,0.5,0.5v2
		c0,0.64,0.414,1.203,1,1.412V6.498c0-0.276,0.224-0.5,0.5-0.5s0.5,0.224,0.5,0.5v3.414c0.586-0.209,1-0.772,1-1.412v-2
		C10.5,6.224,10.724,6,11,6s0.5,0.224,0.5,0.5v2c0,1.199-0.845,2.215-2,2.449v4.549C9.5,15.774,9.276,15.998,9,15.998z"/>
	<path d="M14,16c-0.276,0-0.5-0.224-0.5-0.5v-9c0-0.16,0.078-0.312,0.208-0.406C13.793,6.033,13.894,6,14,6
		c0.054,0,0.107,0.009,0.158,0.026c0.129,0.043,3.16,1.122,3.334,6.945c0.008,0.267-0.089,0.521-0.272,0.716
		C17.037,13.88,16.79,13.991,16.522,14L14.5,14v1.5C14.5,15.776,14.276,16,14,16z M16.492,13c-0.101-3.405-1.234-4.945-1.992-5.598
		V13H16.492z"/>
</g>
</svg>
