<?xml version="1.0" encoding="utf-8"?>
<!-- Generator: Adobe Illustrator 22.1.0, SVG Export Plug-In . SVG Version: 6.00 Build 0)  -->
<svg version="1.1" id="Layer_1" xmlns="http://www.w3.org/2000/svg" xmlns:xlink="http://www.w3.org/1999/xlink" x="0px" y="0px"
	 viewBox="0 0 24 24" style="enable-background:new 0 0 24 24;" xml:space="preserve">
<g>
	<title>style-three-style-pin-empty</title>
	<path d="M12,24c-0.106,0-0.207-0.033-0.292-0.094c-0.023-0.016-2.309-1.673-4.579-4.196C5.017,17.364,2.5,13.775,2.5,10
		C2.5,4.299,6.584,0,12,0c5.416,0,9.5,4.299,9.5,10c0,2.083-0.803,5.459-4.628,9.709c-2.271,2.523-4.556,4.18-4.579,4.196
		C12.207,23.967,12.106,24,12,24z M12,1c-4.846,0-8.5,3.869-8.5,9c0,5.976,7.113,11.795,8.5,12.873
		c1.387-1.078,8.5-6.897,8.5-12.873C20.5,4.869,16.846,1,12,1z"/>
</g>
</svg>
