<?xml version="1.0" encoding="utf-8"?>
<!-- Generator: Adobe Illustrator 22.1.0, SVG Export Plug-In . SVG Version: 6.00 Build 0)  -->
<svg version="1.1" id="Layer_1" xmlns="http://www.w3.org/2000/svg" xmlns:xlink="http://www.w3.org/1999/xlink" x="0px" y="0px"
	 viewBox="0 0 24 24" style="enable-background:new 0 0 24 24;" xml:space="preserve">
<g>
	<title>style-three-pin-arrow-diagonal</title>
	<path d="M11.999,23.927c-0.234,0-0.462-0.083-0.641-0.233c-2.586-2.204-4.998-4.644-7.169-7.251
		c-2.091-2.513-3.031-5.607-2.578-8.488c0.393-2.5,1.817-4.643,4.009-6.033c1.906-1.209,4.106-1.848,6.363-1.848h0.034
		c2.257,0,4.457,0.639,6.363,1.848c2.193,1.39,3.617,3.533,4.01,6.034c0.452,2.881-0.488,5.973-2.578,8.485
		c-2.171,2.608-4.582,5.047-7.166,7.25C12.463,23.843,12.234,23.927,11.999,23.927z M11.983,1.074c-2.067,0-4.082,0.585-5.827,1.692
		C4.21,4,2.947,5.897,2.599,8.11c-0.408,2.597,0.451,5.401,2.358,7.693c2.136,2.565,4.506,4.963,7.046,7.127
		c2.534-2.166,4.904-4.564,7.039-7.128c1.907-2.291,2.767-5.094,2.359-7.69C21.054,5.898,19.79,4,17.844,2.766
		c-1.746-1.107-3.761-1.692-5.828-1.692c-0.002,0-0.023,0-0.026,0C11.988,1.074,11.985,1.074,11.983,1.074z"/>
	<path d="M13,15.073c-0.276,0-0.5-0.224-0.5-0.5s0.224-0.5,0.5-0.5h2.793l-3.146-3.146c-0.094-0.094-0.146-0.22-0.146-0.354
		s0.052-0.259,0.146-0.354s0.22-0.146,0.354-0.146s0.259,0.052,0.354,0.146l3.146,3.146v-2.793c0-0.276,0.224-0.5,0.5-0.5
		s0.5,0.224,0.5,0.5v4c0,0.066-0.013,0.13-0.039,0.191c-0.051,0.123-0.147,0.219-0.27,0.27C17.13,15.06,17.066,15.073,17,15.073H13z
		"/>
	<path d="M11,9.073c-0.134,0-0.259-0.052-0.354-0.146L7.5,5.78v2.793c0,0.276-0.224,0.5-0.5,0.5s-0.5-0.224-0.5-0.5v-4
		c0-0.065,0.013-0.129,0.038-0.19c0.051-0.122,0.149-0.221,0.27-0.271C6.87,4.086,6.934,4.073,7,4.073h4c0.276,0,0.5,0.224,0.5,0.5
		s-0.224,0.5-0.5,0.5H8.207l3.146,3.146C11.448,8.314,11.5,8.44,11.5,8.573s-0.052,0.259-0.146,0.354S11.134,9.073,11,9.073z"/>
</g>
</svg>
