<?xml version="1.0" encoding="utf-8"?>
<!-- Generator: Adobe Illustrator 22.1.0, SVG Export Plug-In . SVG Version: 6.00 Build 0)  -->
<svg version="1.1" id="Layer_1" xmlns="http://www.w3.org/2000/svg" xmlns:xlink="http://www.w3.org/1999/xlink" x="0px" y="0px"
	 viewBox="0 0 24 24" style="enable-background:new 0 0 24 24;" xml:space="preserve">
<g>
	<title>style-three-pin-braille</title>
	<path d="M11.999,23.927c-0.234,0-0.462-0.083-0.641-0.233c-2.586-2.204-4.998-4.644-7.169-7.251
		c-2.091-2.513-3.031-5.607-2.578-8.488c0.393-2.5,1.817-4.643,4.009-6.033c1.906-1.209,4.106-1.848,6.363-1.848h0.034
		c2.257,0,4.457,0.639,6.363,1.848c2.193,1.39,3.617,3.533,4.01,6.034c0.452,2.881-0.488,5.973-2.578,8.485
		c-2.171,2.608-4.582,5.047-7.166,7.25C12.463,23.843,12.234,23.927,11.999,23.927z M11.983,1.074c-2.067,0-4.082,0.585-5.827,1.692
		C4.21,4,2.947,5.897,2.599,8.11c-0.408,2.597,0.451,5.401,2.358,7.693c2.136,2.565,4.506,4.963,7.046,7.127
		c2.534-2.166,4.904-4.564,7.039-7.128c1.907-2.291,2.767-5.094,2.359-7.69C21.054,5.898,19.79,4,17.844,2.766
		c-1.746-1.107-3.761-1.692-5.828-1.692c-0.002,0-0.023,0-0.026,0C11.988,1.074,11.985,1.074,11.983,1.074z"/>
	<path d="M12.5,17.073c-0.134,0-0.259-0.052-0.354-0.146l-2.5-2.5c-0.023-0.023-0.044-0.049-0.062-0.076
		C9.084,13.6,9.22,13.063,9.346,12.81c0.191-0.383,0.58-0.62,1.069-0.649c0.031-0.002,0.06-0.002,0.089-0.002
		c0.215,0,0.587,0.041,0.996,0.267V9.573c0-0.827,0.673-1.5,1.5-1.5c0.827,0,1.5,0.673,1.5,1.5v1.604
		c0.079,0.018,0.158,0.036,0.238,0.053c1.037,0.231,2.015,0.449,2.473,1.175c0.229,0.362,0.286,0.799,0.171,1.299
		c-0.112,0.485-0.534,1.833-0.786,2.639l-0.118,0.378c-0.065,0.21-0.257,0.352-0.477,0.352H12.5z M15.632,16.073l0.009-0.028
		c0.236-0.754,0.664-2.123,0.766-2.565c0.054-0.233,0.04-0.41-0.042-0.541c-0.236-0.374-1.09-0.564-1.844-0.732
		c-0.214-0.048-0.43-0.096-0.641-0.149c-0.223-0.056-0.379-0.255-0.379-0.485v-2c0-0.276-0.224-0.5-0.5-0.5s-0.5,0.224-0.5,0.5v4
		c0,0.222-0.143,0.415-0.356,0.479c-0.047,0.014-0.095,0.021-0.144,0.021c-0.169,0-0.325-0.084-0.418-0.226
		c-0.334-0.508-0.771-0.689-1.069-0.689l-0.039,0.001c-0.116,0.007-0.208,0.045-0.233,0.096c-0.036,0.072-0.003,0.258,0.15,0.501
		l2.316,2.316H15.632z"/>
	<circle cx="15.5" cy="5.073" r="0.75"/>
	<circle cx="9.5" cy="9.073" r="0.75"/>
	<path d="M12.5,5.823c-0.413,0-0.75-0.336-0.75-0.75s0.336-0.75,0.75-0.75c0.414,0,0.75,0.336,0.75,0.75S12.914,5.823,12.5,5.823z"
		/>
	<circle cx="6.5" cy="9.073" r="0.75"/>
	<circle cx="9.5" cy="5.073" r="0.75"/>
</g>
</svg>
