<?xml version="1.0" encoding="utf-8"?>
<!-- Generator: Adobe Illustrator 22.1.0, SVG Export Plug-In . SVG Version: 6.00 Build 0)  -->
<svg version="1.1" id="Layer_1" xmlns="http://www.w3.org/2000/svg" xmlns:xlink="http://www.w3.org/1999/xlink" x="0px" y="0px"
	 viewBox="0 0 24 24" style="enable-background:new 0 0 24 24;" xml:space="preserve">
<g>
	<title>style-three-pin-plane-fly</title>
	<path d="M12,24c-0.117,0-0.231-0.041-0.321-0.116c-2.714-2.266-5.235-4.795-7.491-7.517c-2.09-2.512-3.03-5.605-2.577-8.486
		C2.004,5.38,3.428,3.237,5.62,1.848C7.526,0.639,9.727,0,11.983,0l0.026,0.25V0c2.264,0,4.464,0.639,6.37,1.848
		c2.193,1.39,3.617,3.533,4.01,6.034c0.452,2.881-0.488,5.973-2.578,8.485c-2.256,2.721-4.776,5.25-7.491,7.517
		C12.231,23.959,12.117,24,12,24z M11.983,1C9.916,1,7.901,1.585,6.156,2.692C4.21,3.926,2.947,5.823,2.599,8.036
		c-0.408,2.597,0.452,5.4,2.358,7.691c2.128,2.567,4.497,4.961,7.043,7.119c2.545-2.157,4.914-4.551,7.042-7.119
		c1.907-2.292,2.767-5.095,2.359-7.691c-0.348-2.213-1.611-4.111-3.557-5.345C16.102,1.587,14.091,1.002,12.028,1
		c-0.008,0.001-0.016,0.001-0.022,0.001C11.998,1.001,11.983,1,11.983,1z"/>
	<path d="M10.5,15.002c-0.207,0-0.395-0.13-0.468-0.324l-0.495-1.321l-3.325,0.475c-0.071,0.01-0.141,0.015-0.211,0.015
		c-0.742,0-1.381-0.554-1.486-1.288C4.505,12.49,4.5,12.419,4.5,12.348v-0.861c0-0.463,0.209-0.893,0.573-1.179l6-4.714
		C11.337,5.386,11.666,5.272,12,5.272s0.663,0.114,0.927,0.322l6,4.714c0.364,0.286,0.573,0.716,0.573,1.179v0.861
		c0,0.827-0.673,1.5-1.5,1.5c-0.071,0-0.142-0.005-0.213-0.015l-3.324-0.475l-0.495,1.321c-0.073,0.194-0.261,0.324-0.468,0.324
		H10.5z M13.153,14.002l0.296-0.79L12,13.005l-1.45,0.207l0.296,0.79H13.153z M17.937,12.844c0.021,0.003,0.042,0.004,0.063,0.004
		c0.276,0,0.5-0.224,0.5-0.5v-0.861c0-0.154-0.07-0.297-0.191-0.393l-6-4.714C12.22,6.31,12.113,6.273,12,6.273
		c-0.113,0-0.22,0.037-0.309,0.108l-6,4.714C5.57,11.189,5.5,11.333,5.5,11.487v0.861c0,0.023,0.002,0.046,0.005,0.068
		c0.035,0.246,0.247,0.431,0.494,0.431c0.024,0,0.047-0.002,0.071-0.005l3.107-0.444l-0.645-1.72
		c-0.097-0.258,0.035-0.547,0.293-0.644C8.882,10.013,8.94,10.002,9,10.002c0.207,0,0.395,0.13,0.468,0.324l0.723,1.927l1.738-0.248
		C11.952,12.002,11.976,12,12,12s0.048,0.002,0.072,0.005l1.737,0.249l0.723-1.927c0.073-0.194,0.261-0.324,0.469-0.324
		c0.06,0,0.118,0.01,0.175,0.031c0.259,0.097,0.39,0.386,0.293,0.644l-0.646,1.721C14.823,12.399,17.935,12.844,17.937,12.844z"/>
</g>
</svg>
