<?xml version="1.0" encoding="utf-8"?>
<!-- Generator: Adobe Illustrator 22.1.0, SVG Export Plug-In . SVG Version: 6.00 Build 0)  -->
<svg version="1.1" id="Layer_1" xmlns="http://www.w3.org/2000/svg" xmlns:xlink="http://www.w3.org/1999/xlink" x="0px" y="0px"
	 viewBox="0 0 24 24" style="enable-background:new 0 0 24 24;" xml:space="preserve">
<g>
	<title>style-three-pin-bolt</title>
	<path d="M12,24c-0.117,0-0.231-0.041-0.321-0.116c-2.714-2.266-5.235-4.795-7.491-7.517c-2.09-2.512-3.03-5.605-2.577-8.486
		C2.004,5.38,3.428,3.237,5.62,1.848C7.526,0.639,9.727,0,11.983,0l0.026,0.25V0c2.264,0,4.464,0.639,6.37,1.848
		c2.193,1.39,3.617,3.533,4.01,6.034c0.452,2.881-0.488,5.973-2.578,8.485c-2.256,2.721-4.776,5.25-7.491,7.517
		C12.231,23.959,12.117,24,12,24z M11.983,1C9.916,1,7.901,1.585,6.156,2.692C4.21,3.926,2.947,5.823,2.599,8.036
		c-0.408,2.597,0.452,5.4,2.358,7.691c2.128,2.567,4.497,4.961,7.043,7.119c2.545-2.157,4.914-4.551,7.042-7.119
		c1.907-2.292,2.767-5.095,2.359-7.691c-0.348-2.213-1.611-4.111-3.557-5.345C16.102,1.587,14.091,1.002,12.028,1
		c-0.008,0.001-0.016,0.001-0.022,0.001C11.998,1.001,11.983,1,11.983,1z"/>
	<path d="M11,18.002c-0.054,0-0.106-0.009-0.157-0.025c-0.205-0.067-0.343-0.258-0.343-0.475v-5.5H7.875
		c-0.206-0.001-0.405-0.074-0.562-0.205c-0.37-0.311-0.418-0.865-0.107-1.234l5.39-7.358C12.691,3.076,12.842,3,13,3
		c0.053,0,0.105,0.008,0.156,0.025C13.362,3.092,13.5,3.283,13.5,3.5v5.502h2.625c0.208,0,0.41,0.074,0.568,0.209
		c0.177,0.151,0.286,0.362,0.305,0.595c0.019,0.233-0.054,0.46-0.206,0.638l-5.389,7.353C11.31,17.925,11.159,18.002,11,18.002z
		 M11,11.002c0.276,0,0.5,0.224,0.5,0.5v4.472l4.378-5.972H13c-0.276,0-0.5-0.224-0.5-0.5V5.028l-4.377,5.974H11z"/>
</g>
</svg>
