<?xml version="1.0" encoding="utf-8"?>
<!-- Generator: Adobe Illustrator 22.1.0, SVG Export Plug-In . SVG Version: 6.00 Build 0)  -->
<svg version="1.1" id="Layer_1" xmlns="http://www.w3.org/2000/svg" xmlns:xlink="http://www.w3.org/1999/xlink" x="0px" y="0px"
	 viewBox="0 0 24 24" style="enable-background:new 0 0 24 24;" xml:space="preserve">
<g>
	<title>style-three-pin-education-institution</title>
	<path d="M11.999,23.926c-0.234,0-0.462-0.083-0.641-0.233c-2.586-2.204-4.997-4.644-7.169-7.252
		c-2.091-2.511-3.03-5.604-2.578-8.485C2.004,5.454,3.428,3.311,5.62,1.922c1.906-1.209,4.106-1.848,6.363-1.848h0.034
		c2.257,0,4.457,0.639,6.363,1.848c2.193,1.39,3.617,3.533,4.01,6.034c0.452,2.881-0.488,5.973-2.578,8.485
		c-2.17,2.607-4.581,5.046-7.166,7.249C12.463,23.842,12.234,23.926,11.999,23.926z M11.983,1.074c-2.067,0-4.082,0.585-5.827,1.692
		C4.21,4,2.946,5.898,2.599,8.11c-0.408,2.596,0.452,5.399,2.358,7.69c2.135,2.564,4.506,4.963,7.046,7.128
		c2.534-2.166,4.904-4.563,7.039-7.127c1.907-2.291,2.767-5.094,2.359-7.69C21.054,5.898,19.79,4,17.844,2.766
		c-1.746-1.107-3.761-1.692-5.828-1.692C12.012,1.074,11.983,1.074,11.983,1.074z"/>
	<path d="M7,16.075c-0.276,0-0.5-0.224-0.5-0.5s0.224-0.5,0.5-0.5h1.5v-3H7.756c-0.162,0-0.315-0.079-0.408-0.211
		c-0.093-0.132-0.117-0.302-0.064-0.455c0.506-1.435,1.619-2.548,3.053-3.053C10.71,8.224,11.1,8.138,11.5,8.098V4.075
		c0-0.276,0.224-0.5,0.5-0.5c0.584,0,1.015,0.25,1.432,0.492c0.45,0.261,0.876,0.508,1.567,0.508c0.276,0,0.5,0.224,0.5,0.5v2
		c0,0.276-0.224,0.5-0.5,0.5c-0.96,0-1.574-0.356-2.068-0.642C12.784,6.847,12.641,6.764,12.5,6.7v1.398
		c1.928,0.195,3.567,1.473,4.216,3.311c0.054,0.153,0.03,0.323-0.063,0.455c-0.094,0.132-0.246,0.211-0.408,0.211H15.5v3H17
		c0.276,0,0.5,0.224,0.5,0.5s-0.224,0.5-0.5,0.5H7z M14.5,15.075v-3h-2v3H14.5z M11.5,15.075v-3h-2v3H11.5z M15.467,11.075
		c-0.707-1.229-2.03-2.004-3.471-2.004c-0.451,0-0.897,0.077-1.326,0.228c-0.917,0.323-1.664,0.947-2.138,1.776H15.467z M12.5,5.64
		c0.351,0.09,0.646,0.26,0.932,0.427c0.332,0.192,0.648,0.376,1.067,0.46V5.541c-0.68-0.094-1.15-0.366-1.569-0.609
		c-0.147-0.085-0.29-0.168-0.43-0.232V5.64z"/>
</g>
</svg>
