<?xml version="1.0" encoding="utf-8"?>
<!-- Generator: Adobe Illustrator 22.1.0, SVG Export Plug-In . SVG Version: 6.00 Build 0)  -->
<svg version="1.1" id="Layer_1" xmlns="http://www.w3.org/2000/svg" xmlns:xlink="http://www.w3.org/1999/xlink" x="0px" y="0px"
	 viewBox="0 0 24 24" style="enable-background:new 0 0 24 24;" xml:space="preserve">
<g>
	<title>style-three-pin-pull</title>
	<path d="M12,24c-0.117,0-0.231-0.041-0.321-0.116c-2.714-2.266-5.235-4.795-7.491-7.517c-2.09-2.512-3.03-5.605-2.577-8.486
		C2.004,5.38,3.428,3.237,5.62,1.848C7.526,0.639,9.727,0,11.983,0l0.026,0.25V0c2.264,0,4.464,0.639,6.37,1.848
		c2.193,1.39,3.617,3.533,4.01,6.034c0.452,2.881-0.488,5.973-2.578,8.485c-2.256,2.721-4.776,5.25-7.491,7.517
		C12.231,23.959,12.117,24,12,24z M11.983,1C9.916,1,7.901,1.585,6.156,2.692C4.21,3.926,2.947,5.823,2.599,8.036
		c-0.408,2.597,0.452,5.4,2.358,7.691c2.128,2.567,4.497,4.961,7.043,7.119c2.545-2.157,4.914-4.551,7.042-7.119
		c1.907-2.292,2.767-5.095,2.359-7.691c-0.348-2.213-1.611-4.111-3.557-5.345C16.102,1.587,14.091,1.002,12.028,1
		c-0.008,0.001-0.016,0.001-0.022,0.001C11.998,1.001,11.983,1,11.983,1z"/>
	<path d="M13.5,7.003c-1.103,0-2-0.897-2-2s0.897-2,2-2s2,0.897,2,2S14.603,7.003,13.5,7.003z M13.5,4.003c-0.551,0-1,0.449-1,1
		s0.448,1,1,1c0.552,0,1-0.449,1-1S14.051,4.003,13.5,4.003z"/>
	<path d="M12.966,17H7c-0.276,0-0.5-0.224-0.5-0.5S6.724,16,7,16h1.086c-0.113-0.32-0.116-0.673,0.001-1.001L9.989,9.68
		C9.705,9.7,9.426,9.769,9.159,9.884c-0.345,0.193-0.619,0.569-0.709,0.994C8.261,11.545,7.667,11.999,7.001,12
		c-0.143-0.001-0.274-0.017-0.403-0.052c-0.392-0.112-0.712-0.366-0.907-0.717c-0.195-0.351-0.242-0.756-0.131-1.141
		c0.005-0.02,0.011-0.041,0.017-0.062L3.743,8.929C3.628,8.86,3.547,8.751,3.515,8.621c-0.032-0.13-0.012-0.264,0.056-0.379
		C3.661,8.093,3.825,8,4,8c0.091,0,0.18,0.025,0.257,0.072l1.689,1.013C6.37,8.281,7.031,7.617,7.83,7.196
		c0.809-0.336,1.635-0.502,2.474-0.502c0.759,0,1.506,0.136,2.222,0.404c0.037,0.014,0.075,0.031,0.113,0.048
		c0.008,0.004,0.015,0.007,0.023,0.012l0.209,0.123c0.042,0.029,0.07,0.053,0.094,0.078c0.005,0.004,0.044,0.039,0.044,0.039
		c0.029,0.021,0.054,0.043,0.074,0.064l0.051,0.056l0.065,0.081c0.016,0.021,0.03,0.042,0.042,0.065
		c0.006,0.008,0.04,0.062,0.042,0.064c0.009,0.011,0.021,0.03,0.032,0.049l0.026,0.047l0.035,0.076
		c0.003,0.007,0.006,0.014,0.008,0.02c0.032,0.045,0.057,0.096,0.073,0.149c0,0,0.012,0.044,0.014,0.049
		c0-0.002-0.001-0.003-0.001-0.003c0,0,0.009,0.038,0.009,0.038s0.013,0.058,0.016,0.111C13.498,8.288,13.5,8.313,13.5,8.329v0.254
		c0,0.063-0.011,0.13-0.031,0.189c-0.002,0.013-0.004,0.025-0.006,0.034l-0.01,0.047c-0.013,0.055-0.027,0.102-0.043,0.148
		c0,0,0-0.001,0-0.001c0,0-0.004,0.016-0.009,0.03l-0.508,1.419c0.009,0.021,0.017,0.042,0.025,0.064l1.487,4.461
		c0.008,0.018,0.016,0.036,0.021,0.055c0.106,0.317,0.102,0.657-0.01,0.971H14.5c0.808,0,1.572-0.306,2.155-0.862
		C16.748,15.049,16.871,15,17,15c0.136,0,0.268,0.056,0.362,0.155c0.092,0.097,0.141,0.223,0.138,0.357
		c-0.003,0.134-0.058,0.258-0.155,0.35C16.576,16.596,15.566,17,14.503,17h-1.485L13,17.001C12.993,17.001,12.973,17,12.966,17z
		 M11.281,12.995c0.216,0.002,0.404,0.14,0.472,0.342l0.773,2.321c0.042,0.127,0.132,0.23,0.251,0.29
		c0.071,0.035,0.146,0.053,0.224,0.053c0.054,0,0.107-0.009,0.159-0.026c0.249-0.083,0.391-0.342,0.328-0.595
		c-0.005-0.012-0.01-0.025-0.014-0.037l-1.5-4.498c-0.008-0.022-0.026-0.057-0.046-0.087c-0.084-0.13-0.103-0.294-0.05-0.44
		l0.57-1.592c0.004-0.014,0.008-0.028,0.013-0.042c0.006-0.017,0.012-0.036,0.017-0.055c0,0,0.002-0.02,0.004-0.033l0.005-0.028
		c0.002-0.018,0.006-0.041,0.013-0.065V8.416c-0.009-0.019-0.017-0.038-0.023-0.058c0,0-0.019-0.052-0.023-0.062l-0.009-0.019
		c-0.004-0.007-0.047-0.073-0.047-0.073c-0.005-0.005-0.011-0.016-0.018-0.028c-0.009-0.008-0.104-0.089-0.109-0.093l-0.063-0.035
		l-0.029-0.012c-0.607-0.227-1.239-0.342-1.88-0.342c-0.702,0-1.39,0.137-2.044,0.407C7.546,8.475,6.977,9.118,6.669,9.903
		c-0.011,0.056-0.03,0.108-0.058,0.156c-0.037,0.109-0.065,0.201-0.086,0.288c-0.042,0.146-0.027,0.28,0.038,0.399
		c0.065,0.117,0.171,0.201,0.299,0.238C6.898,10.994,6.947,11,6.989,11c0.232,0,0.43-0.15,0.491-0.363
		c0.145-0.688,0.599-1.296,1.239-1.65c0.486-0.212,0.97-0.314,1.462-0.314c0.196,0,0.393,0.017,0.588,0.049
		c0.147,0.025,0.274,0.112,0.349,0.24c0.075,0.128,0.089,0.282,0.039,0.421l-2.128,5.951c-0.092,0.259,0.044,0.545,0.303,0.638
		C9.385,15.992,9.43,16,9.476,16c0.234,0,0.424-0.134,0.495-0.333l0.836-2.341c0.071-0.199,0.26-0.332,0.471-0.332H11.281z
		 M11.586,16c-0.003-0.009-0.324-0.972-0.324-0.972L10.914,16H11.586z M13.228,7.645L13.228,7.645
		C13.228,7.645,13.228,7.645,13.228,7.645z"/>
</g>
</svg>
