<?xml version="1.0" encoding="utf-8"?>
<!-- Generator: Adobe Illustrator 22.1.0, SVG Export Plug-In . SVG Version: 6.00 Build 0)  -->
<svg version="1.1" id="Layer_1" xmlns="http://www.w3.org/2000/svg" xmlns:xlink="http://www.w3.org/1999/xlink" x="0px" y="0px"
	 viewBox="0 0 24 24" style="enable-background:new 0 0 24 24;" xml:space="preserve">
<g>
	<title>style-three-pin-locker</title>
	<path d="M12,24c-0.117,0-0.231-0.041-0.321-0.116c-2.714-2.266-5.235-4.795-7.491-7.517c-2.09-2.512-3.03-5.605-2.577-8.486
		C2.004,5.38,3.428,3.237,5.62,1.848C7.526,0.639,9.727,0,11.983,0l0.026,0.25V0c2.264,0,4.464,0.639,6.37,1.848
		c2.193,1.39,3.617,3.533,4.01,6.034c0.452,2.881-0.488,5.973-2.578,8.485c-2.256,2.721-4.776,5.25-7.491,7.517
		C12.231,23.959,12.117,24,12,24z M11.983,1C9.916,1,7.901,1.585,6.156,2.692C4.21,3.926,2.947,5.823,2.599,8.036
		c-0.408,2.597,0.452,5.4,2.358,7.691c2.128,2.567,4.497,4.961,7.043,7.119c2.545-2.157,4.914-4.551,7.042-7.119
		c1.907-2.292,2.767-5.095,2.359-7.691c-0.348-2.213-1.611-4.111-3.557-5.345C16.102,1.587,14.091,1.002,12.028,1
		c-0.008,0.001-0.016,0.001-0.022,0.001C11.998,1.001,11.983,1,11.983,1z"/>
	<path d="M7.5,15.999c-0.551,0-1-0.448-1-1v-9c0-0.551,0.449-1,1-1h9c0.552,0,1,0.449,1,1v9c0,0.552-0.448,1-1,1H7.5z M16.5,14.999
		v-9h-4L16.5,14.999z M7.5,14.999h4v-9l-4,0L7.5,14.999z"/>
	<path d="M9,7.999c-0.276,0-0.5-0.224-0.5-0.5s0.224-0.5,0.5-0.5h1c0.276,0,0.5,0.224,0.5,0.5s-0.224,0.5-0.5,0.5H9z"/>
	<path d="M14,7.999c-0.276,0-0.5-0.224-0.5-0.5s0.224-0.5,0.5-0.5h1c0.276,0,0.5,0.224,0.5,0.5s-0.224,0.5-0.5,0.5H14z"/>
	<path d="M9,12.75c-0.011,0-0.024-0.001-0.037-0.003c-0.387-0.012-0.712-0.345-0.713-0.745c0,0,0-0.001,0-0.002
		c0-0.398,0.318-0.729,0.714-0.748C8.976,11.25,8.989,11.249,9,11.249c0.414,0,0.75,0.336,0.75,0.75
		C9.75,12.414,9.414,12.75,9,12.75z"/>
	<path d="M14,12.75c-0.011,0-0.024-0.001-0.037-0.003c-0.383-0.012-0.705-0.338-0.713-0.733c0-0.005,0-0.023,0-0.028
		c0.008-0.392,0.323-0.716,0.714-0.734c0.012-0.002,0.025-0.003,0.036-0.003c0.414,0,0.75,0.336,0.75,0.75
		C14.75,12.414,14.414,12.75,14,12.75z"/>
</g>
</svg>
