<?xml version="1.0" encoding="utf-8"?>
<!-- Generator: Adobe Illustrator 22.1.0, SVG Export Plug-In . SVG Version: 6.00 Build 0)  -->
<svg version="1.1" id="Layer_1" xmlns="http://www.w3.org/2000/svg" xmlns:xlink="http://www.w3.org/1999/xlink" x="0px" y="0px"
	 viewBox="0 0 24 24" style="enable-background:new 0 0 24 24;" xml:space="preserve">
<g>
	<title>style-three-pin-theater</title>
	<path d="M11.999,23.926c-0.234,0-0.462-0.083-0.641-0.233c-2.586-2.204-4.997-4.644-7.169-7.252
		c-2.091-2.511-3.03-5.604-2.578-8.485C2.004,5.454,3.428,3.311,5.62,1.922c1.906-1.209,4.106-1.848,6.363-1.848h0.034
		c2.257,0,4.457,0.639,6.363,1.848c2.193,1.39,3.617,3.533,4.01,6.034c0.452,2.881-0.488,5.973-2.578,8.485
		c-2.17,2.607-4.581,5.046-7.166,7.249C12.463,23.842,12.234,23.926,11.999,23.926z M11.983,1.074c-2.067,0-4.082,0.585-5.827,1.692
		C4.21,4,2.946,5.898,2.599,8.11c-0.408,2.596,0.452,5.399,2.358,7.69c2.135,2.564,4.506,4.963,7.046,7.128
		c2.534-2.166,4.904-4.563,7.039-7.127c1.907-2.291,2.767-5.094,2.359-7.69C21.054,5.898,19.79,4,17.844,2.766
		c-1.746-1.107-3.761-1.692-5.828-1.692C12.012,1.074,11.983,1.074,11.983,1.074z"/>
	<path d="M15.539,15.078c-0.053,0-0.105-0.004-0.158-0.012c-0.262-0.041-0.494-0.183-0.651-0.399
		c-0.157-0.216-0.221-0.48-0.179-0.744c0.042-0.289,0.117-0.573,0.223-0.847H9.225c0.107,0.275,0.182,0.561,0.225,0.853
		c0.041,0.259-0.023,0.522-0.18,0.738c-0.157,0.216-0.389,0.358-0.653,0.399c-0.05,0.008-0.103,0.012-0.156,0.012H6.5
		c-0.551,0-1-0.448-1-1V5.075c0-0.551,0.449-1,1-1h11c0.552,0,1,0.449,1,1v9.003c0,0.552-0.448,1-1,1H15.539z M15.978,12.907
		c-0.231,0.358-0.378,0.75-0.439,1.165l1.96,0.006v-2.372c-0.579,0.201-1.084,0.579-1.446,1.089
		C16.034,12.836,16.008,12.873,15.978,12.907z M6.5,14.078h1.961c-0.063-0.437-0.22-0.844-0.467-1.212
		c-0.006-0.007-0.025-0.03-0.042-0.062c-0.362-0.514-0.87-0.896-1.452-1.098V14.078z M15.343,12.075
		c0.262-0.336,0.577-0.628,0.931-0.864C14.362,10.418,12.761,8.465,12,6.693c-0.761,1.772-2.362,3.725-4.274,4.517
		c0.354,0.236,0.669,0.529,0.931,0.864H15.343z M12.544,5.075c0.334,2.022,2.556,5.071,4.956,5.459V5.075H12.544z M6.5,10.534
		c2.401-0.388,4.622-3.437,4.956-5.459l-4.956,0L6.5,10.534z"/>
</g>
</svg>
