<?xml version="1.0" encoding="utf-8"?>
<!-- Generator: Adobe Illustrator 22.1.0, SVG Export Plug-In . SVG Version: 6.00 Build 0)  -->
<svg version="1.1" id="Layer_1" xmlns="http://www.w3.org/2000/svg" xmlns:xlink="http://www.w3.org/1999/xlink" x="0px" y="0px"
	 viewBox="0 0 24 24" style="enable-background:new 0 0 24 24;" xml:space="preserve">
<g>
	<title>style-three-pin-tennis</title>
	<path d="M12,24c-0.117,0-0.231-0.041-0.321-0.116c-2.714-2.266-5.235-4.795-7.491-7.517c-2.09-2.512-3.03-5.605-2.577-8.486
		C2.004,5.38,3.428,3.237,5.62,1.848C7.526,0.639,9.727,0,11.983,0l0.026,0.25V0c2.264,0,4.464,0.639,6.37,1.848
		c2.193,1.39,3.617,3.533,4.01,6.034c0.452,2.881-0.488,5.973-2.578,8.485c-2.256,2.721-4.776,5.25-7.491,7.517
		C12.231,23.959,12.117,24,12,24z M11.983,1C9.916,1,7.901,1.585,6.156,2.692C4.21,3.926,2.947,5.823,2.599,8.036
		c-0.408,2.597,0.452,5.4,2.358,7.691c2.128,2.567,4.497,4.961,7.043,7.119c2.545-2.157,4.914-4.551,7.042-7.119
		c1.907-2.292,2.767-5.095,2.359-7.691c-0.348-2.213-1.611-4.111-3.557-5.345C16.102,1.587,14.091,1.002,12.028,1
		c-0.008,0.001-0.016,0.001-0.022,0.001C11.998,1.001,11.983,1,11.983,1z"/>
	<path d="M8.5,7.964c-1.103,0-2-0.897-2-2s0.897-2,2-2s2,0.897,2,2S9.603,7.964,8.5,7.964z M8.5,4.964c-0.551,0-1,0.449-1,1
		s0.449,1,1,1s1-0.449,1-1S9.051,4.964,8.5,4.964z"/>
	<path d="M8.5,16.502c-0.134,0-0.259-0.052-0.354-0.146S8,16.135,8,16.002s0.052-0.259,0.146-0.354l3.958-3.959
		c-1.129-1.672-0.857-3.965,0.662-5.317c0.769-0.864,1.877-1.359,3.044-1.359c0.973,0,1.913,0.347,2.647,0.976
		c0.019,0.016,0.037,0.034,0.053,0.053c1.438,1.675,1.265,4.224-0.383,5.69c-0.769,0.865-1.878,1.361-3.045,1.361
		c-0.819,0-1.6-0.24-2.273-0.697l-3.957,3.958C8.759,16.45,8.634,16.502,8.5,16.502z M13.118,11.383
		c0.548,0.459,1.246,0.712,1.966,0.712c0.889,0,1.733-0.381,2.313-1.045c0.015-0.017,0.031-0.033,0.049-0.049
		c1.247-1.091,1.394-3.006,0.33-4.277c-0.548-0.459-1.246-0.711-1.967-0.711c-0.89,0-1.733,0.38-2.314,1.043
		c-0.016,0.017-0.03,0.032-0.046,0.046C12.202,8.197,12.055,10.112,13.118,11.383z"/>
</g>
</svg>
