<?xml version="1.0" encoding="utf-8"?>
<!-- Generator: Adobe Illustrator 22.1.0, SVG Export Plug-In . SVG Version: 6.00 Build 0)  -->
<svg version="1.1" id="Layer_1" xmlns="http://www.w3.org/2000/svg" xmlns:xlink="http://www.w3.org/1999/xlink" x="0px" y="0px"
	 viewBox="0 0 24 24" style="enable-background:new 0 0 24 24;" xml:space="preserve">
<g>
	<title>style-three-pin-flower</title>
	<path d="M12,12.074c-1.379,0-2.5-1.121-2.5-2.5s1.121-2.5,2.5-2.5s2.5,1.121,2.5,2.5S13.379,12.074,12,12.074z M12,8.074
		c-0.827,0-1.5,0.673-1.5,1.5s0.673,1.5,1.5,1.5c0.827,0,1.5-0.673,1.5-1.5S12.827,8.074,12,8.074z"/>
	<path d="M9.594,15.222c-0.473,0-0.944-0.123-1.363-0.354c-0.036-0.02-0.069-0.044-0.098-0.071c-1.095-1.021-1.18-2.765-0.19-3.888
		c0.005-0.007,0.01-0.013,0.014-0.02c-0.016-0.005-0.031-0.01-0.047-0.015c-1.461-0.326-2.396-1.756-2.107-3.249
		c0.008-0.04,0.021-0.079,0.038-0.116c0.465-0.996,1.43-1.615,2.519-1.615c0.383,0,0.759,0.078,1.117,0.233
		C9.484,6.129,9.492,6.131,9.5,6.134c0-0.016,0-0.032,0-0.048c-0.141-1.49,0.93-2.822,2.439-3.008
		C11.959,3.075,11.98,3.074,12,3.074s0.041,0.001,0.061,0.004c1.51,0.187,2.58,1.518,2.438,3.032c0,0.008,0,0.016,0,0.024
		c0.015-0.005,0.031-0.01,0.046-0.015C14.87,5.977,15.238,5.9,15.617,5.9c1.089,0,2.086,0.631,2.542,1.608
		c0.018,0.037,0.031,0.078,0.038,0.119c0.288,1.489-0.648,2.917-2.13,3.249c-0.008,0.003-0.016,0.005-0.024,0.008
		c0.01,0.013,0.019,0.026,0.029,0.039c0.974,1.104,0.889,2.848-0.204,3.869c-0.031,0.028-0.063,0.052-0.098,0.071
		c-0.42,0.232-0.89,0.355-1.361,0.355l0,0c-0.99,0-1.885-0.514-2.395-1.374c-0.005-0.006-0.009-0.012-0.014-0.019
		c-0.01,0.014-0.019,0.027-0.029,0.041C11.478,14.703,10.568,15.222,9.594,15.222z M8.77,14.022c0.255,0.13,0.538,0.199,0.819,0.199
		c0.638,0,1.214-0.333,1.541-0.89c0.186-0.259,0.31-0.502,0.394-0.764c0.066-0.208,0.258-0.348,0.476-0.348
		c0.218,0,0.41,0.14,0.476,0.348c0.083,0.259,0.206,0.501,0.367,0.72c0.01,0.013,0.017,0.025,0.024,0.037
		c0.33,0.563,0.906,0.896,1.544,0.896c0.281,0,0.564-0.069,0.819-0.199c0.661-0.662,0.696-1.758,0.071-2.459
		c-0.012-0.014-0.022-0.027-0.032-0.04c-0.159-0.22-0.351-0.412-0.571-0.57c-0.177-0.127-0.251-0.352-0.185-0.559
		c0.067-0.208,0.259-0.347,0.476-0.347c0.001,0,0.004,0,0.005,0c0.271,0,0.539-0.043,0.797-0.127
		c0.015-0.005,0.031-0.01,0.049-0.013c0.932-0.204,1.535-1.091,1.386-2.028C16.923,7.282,16.296,6.9,15.62,6.9
		c-0.246,0-0.484,0.05-0.708,0.148c-0.016,0.007-0.032,0.013-0.048,0.018c-0.258,0.083-0.501,0.207-0.72,0.367
		c-0.086,0.063-0.188,0.096-0.295,0.096c-0.106,0-0.208-0.033-0.294-0.096c-0.176-0.128-0.249-0.354-0.181-0.561
		c0.085-0.258,0.128-0.527,0.127-0.798c0-0.016,0.001-0.032,0.002-0.048C13.596,5.074,12.939,4.226,12,4.079
		c-0.939,0.148-1.596,0.996-1.502,1.946c0.002,0.016,0.002,0.033,0.002,0.05c-0.001,0.272,0.042,0.541,0.127,0.799
		c0.068,0.207-0.004,0.432-0.181,0.561C10.36,7.497,10.259,7.53,10.152,7.53c-0.107,0-0.209-0.033-0.295-0.096
		c-0.22-0.161-0.462-0.284-0.721-0.368C9.119,7.06,9.103,7.054,9.087,7.047C8.856,6.946,8.611,6.894,8.362,6.894
		c-0.675,0-1.28,0.375-1.588,0.981c-0.15,0.938,0.453,1.825,1.386,2.03c0.017,0.004,0.034,0.008,0.05,0.014
		c0.256,0.084,0.524,0.127,0.795,0.127c0.222,0,0.414,0.139,0.48,0.346c0.067,0.208-0.007,0.433-0.184,0.56
		c-0.22,0.158-0.412,0.35-0.571,0.57c-0.01,0.014-0.021,0.027-0.032,0.04C8.074,12.264,8.108,13.359,8.77,14.022z"/>
	<path d="M11.999,23.926c-0.234,0-0.462-0.083-0.641-0.233c-2.586-2.204-4.997-4.644-7.169-7.252
		c-2.091-2.511-3.03-5.604-2.578-8.485C2.004,5.454,3.428,3.311,5.62,1.922c1.906-1.209,4.106-1.848,6.363-1.848h0.034
		c2.257,0,4.457,0.639,6.363,1.848c2.193,1.39,3.617,3.533,4.01,6.034c0.452,2.881-0.488,5.973-2.578,8.485
		c-2.17,2.607-4.581,5.046-7.166,7.249C12.463,23.842,12.234,23.926,11.999,23.926z M11.983,1.074c-2.067,0-4.082,0.585-5.827,1.692
		C4.21,4,2.946,5.898,2.599,8.11c-0.408,2.596,0.452,5.399,2.358,7.69c2.135,2.564,4.506,4.963,7.046,7.128
		c2.534-2.166,4.904-4.563,7.039-7.127c1.907-2.291,2.767-5.094,2.359-7.69C21.054,5.898,19.79,4,17.844,2.766
		c-1.746-1.107-3.761-1.692-5.828-1.692C12.012,1.074,11.983,1.074,11.983,1.074z"/>
</g>
</svg>
