<?xml version="1.0" encoding="utf-8"?>
<!-- Generator: Adobe Illustrator 22.1.0, SVG Export Plug-In . SVG Version: 6.00 Build 0)  -->
<svg version="1.1" id="Layer_1" xmlns="http://www.w3.org/2000/svg" xmlns:xlink="http://www.w3.org/1999/xlink" x="0px" y="0px"
	 viewBox="0 0 24 24" style="enable-background:new 0 0 24 24;" xml:space="preserve">
<g>
	<title>style-three-pin-judaism</title>
	<path d="M11.999,23.927c-0.234,0-0.462-0.083-0.641-0.233c-2.586-2.204-4.998-4.644-7.169-7.251
		c-2.091-2.513-3.031-5.607-2.578-8.488c0.393-2.5,1.817-4.643,4.009-6.033c1.906-1.209,4.106-1.848,6.363-1.848h0.034
		c2.257,0,4.457,0.639,6.363,1.848c2.193,1.39,3.617,3.533,4.01,6.034c0.452,2.881-0.488,5.973-2.578,8.485
		c-2.171,2.608-4.582,5.047-7.166,7.25C12.463,23.843,12.234,23.927,11.999,23.927z M11.983,1.074c-2.067,0-4.082,0.585-5.827,1.692
		C4.21,4,2.947,5.897,2.599,8.11c-0.408,2.597,0.451,5.401,2.358,7.693c2.136,2.565,4.506,4.963,7.046,7.127
		c2.534-2.166,4.904-4.564,7.039-7.128c1.907-2.291,2.767-5.094,2.359-7.69C21.054,5.898,19.79,4,17.844,2.766
		c-1.746-1.107-3.761-1.692-5.828-1.692c-0.002,0-0.023,0-0.026,0C11.988,1.074,11.985,1.074,11.983,1.074z"/>
	<path d="M11.999,16.603c-0.18,0-0.358-0.049-0.512-0.142c-0.141-0.085-0.26-0.204-0.344-0.344l-1.226-2.042H6.883
		c-0.268,0-0.518-0.104-0.707-0.292c-0.189-0.188-0.293-0.439-0.294-0.707c0-0.182,0.049-0.361,0.143-0.517l1.491-2.485L6.025,7.589
		C5.742,7.116,5.896,6.501,6.369,6.217c0.155-0.093,0.333-0.142,0.514-0.142h3.033l1.226-2.043c0.137-0.229,0.355-0.391,0.614-0.456
		c0.08-0.02,0.163-0.031,0.245-0.031c0.179,0,0.357,0.049,0.512,0.143c0.141,0.084,0.26,0.203,0.344,0.344l1.226,2.043h3.033
		c0.552,0,1,0.449,1,1c0,0.18-0.049,0.358-0.142,0.513l-1.492,2.486l1.491,2.485c0.284,0.472,0.131,1.087-0.341,1.372
		c-0.157,0.094-0.335,0.143-0.516,0.143h-3.035l-1.226,2.042C12.678,16.417,12.349,16.603,11.999,16.603z M12,15.603l0.917-1.528
		h-1.834L12,15.603z M17.117,13.075l-1.217-2.029l-1.217,2.029H17.117z M13.517,13.075l1.801-3l-1.8-3h-3.035l-1.8,3l1.8,3H13.517z
		 M6.883,13.074l2.434,0.001L8.1,11.047L6.883,13.074z M8.1,9.103l1.217-2.028H6.883C6.883,7.075,8.1,9.103,8.1,9.103z
		 M15.901,9.103l1.217-2.028l-2.434,0L15.901,9.103z M12.917,6.075L12,4.546c0,0-0.001,0-0.001,0l-0.917,1.529H12.917z"/>
</g>
</svg>
