<?xml version="1.0" encoding="utf-8"?>
<!-- Generator: Adobe Illustrator 22.1.0, SVG Export Plug-In . SVG Version: 6.00 Build 0)  -->
<svg version="1.1" id="Layer_1" xmlns="http://www.w3.org/2000/svg" xmlns:xlink="http://www.w3.org/1999/xlink" x="0px" y="0px"
	 viewBox="0 0 24 24" style="enable-background:new 0 0 24 24;" xml:space="preserve">
<g>
	<title>style-three-pin-golf</title>
	<path d="M12,24c-0.117,0-0.231-0.041-0.321-0.116c-2.714-2.266-5.235-4.795-7.491-7.517c-2.09-2.512-3.03-5.605-2.577-8.486
		C2.004,5.38,3.428,3.237,5.62,1.848C7.526,0.639,9.727,0,11.983,0l0.026,0.25V0c2.264,0,4.464,0.639,6.37,1.848
		c2.193,1.39,3.617,3.533,4.01,6.034c0.452,2.881-0.488,5.973-2.578,8.485c-2.256,2.721-4.776,5.25-7.491,7.517
		C12.231,23.959,12.117,24,12,24z M11.983,1C9.916,1,7.901,1.585,6.156,2.692C4.21,3.926,2.947,5.823,2.599,8.036
		c-0.408,2.597,0.452,5.4,2.358,7.691c2.128,2.567,4.497,4.961,7.043,7.119c2.545-2.157,4.914-4.551,7.042-7.119
		c1.907-2.292,2.767-5.095,2.359-7.691c-0.348-2.213-1.611-4.111-3.557-5.345C16.102,1.587,14.091,1.002,12.028,1
		c-0.008,0.001-0.016,0.001-0.022,0.001C11.998,1.001,11.983,1,11.983,1z"/>
	<path d="M12,13.001c-2.481,0-4.5-2.019-4.5-4.5s2.019-4.5,4.5-4.5s4.5,2.019,4.5,4.5S14.481,13.001,12,13.001z M12,5.001
		c-1.93,0-3.5,1.57-3.5,3.5s1.57,3.5,3.5,3.5c1.93,0,3.5-1.57,3.5-3.5S13.93,5.001,12,5.001z"/>
	<path d="M12,18.001c-0.276,0-0.5-0.224-0.5-0.5v-2.5H10c-0.276,0-0.5-0.224-0.5-0.5s0.224-0.5,0.5-0.5h4c0.276,0,0.5,0.224,0.5,0.5
		s-0.224,0.5-0.5,0.5h-1.5v2.5C12.5,17.777,12.276,18.001,12,18.001z"/>
	<path d="M13.5,8.751c-0.414,0-0.75-0.336-0.75-0.75c0-0.415,0.336-0.751,0.75-0.751c0.011,0,0.023,0.001,0.035,0.003
		c0.388,0.016,0.707,0.341,0.714,0.734c0,0.005,0,0.023,0,0.028c-0.008,0.392-0.323,0.716-0.714,0.734
		C13.524,8.75,13.511,8.751,13.5,8.751z"/>
	<path d="M11.5,10.751c-0.414,0-0.75-0.336-0.75-0.75c0-0.415,0.336-0.751,0.75-0.751c0.011,0,0.023,0.001,0.035,0.003
		c0.388,0.016,0.706,0.341,0.714,0.733c0,0.005,0,0.023,0,0.028c-0.008,0.392-0.324,0.715-0.714,0.734
		C11.524,10.75,11.511,10.751,11.5,10.751z"/>
</g>
</svg>
