<?xml version="1.0" encoding="utf-8"?>
<!-- Generator: Adobe Illustrator 22.1.0, SVG Export Plug-In . SVG Version: 6.00 Build 0)  -->
<svg version="1.1" id="Layer_1" xmlns="http://www.w3.org/2000/svg" xmlns:xlink="http://www.w3.org/1999/xlink" x="0px" y="0px"
	 viewBox="0 0 24 24" style="enable-background:new 0 0 24 24;" xml:space="preserve">
<g>
	<title>style-three-pin-tower</title>
	<path d="M12,24c-0.117,0-0.231-0.041-0.321-0.116c-2.714-2.266-5.235-4.795-7.491-7.517c-2.09-2.512-3.03-5.605-2.577-8.486
		C2.004,5.38,3.428,3.237,5.62,1.848C7.526,0.639,9.727,0,11.983,0l0.026,0.25V0c2.264,0,4.464,0.639,6.37,1.848
		c2.193,1.39,3.617,3.533,4.01,6.034c0.452,2.881-0.488,5.973-2.578,8.485c-2.256,2.721-4.776,5.25-7.491,7.517
		C12.231,23.959,12.117,24,12,24z M11.983,1C9.916,1,7.901,1.585,6.156,2.692C4.21,3.926,2.947,5.823,2.599,8.036
		c-0.408,2.597,0.452,5.4,2.358,7.691c2.128,2.567,4.497,4.961,7.043,7.119c2.545-2.157,4.914-4.551,7.042-7.119
		c1.907-2.292,2.767-5.095,2.359-7.691c-0.348-2.213-1.611-4.111-3.557-5.345C16.102,1.587,14.091,1.002,12.028,1
		c-0.008,0.001-0.016,0.001-0.022,0.001C11.998,1.001,11.983,1,11.983,1z"/>
	<path d="M16,18.003c-0.238,0-0.444-0.169-0.49-0.402l-0.32-1.598H8.81l-0.32,1.598C8.444,17.834,8.238,18.003,8,18.003
		c-0.034,0-0.067-0.003-0.1-0.01c-0.269-0.054-0.445-0.318-0.391-0.588l0.882-4.411C7.891,12.94,7.5,12.515,7.5,12v-1.5
		C7.5,10.224,7.724,10,8,10h0.5V8.503c0-0.066,0.013-0.131,0.039-0.192C8.564,8.25,8.601,8.196,8.647,8.149L11.5,5.296V3.503
		c0-0.276,0.224-0.5,0.5-0.5h2c0.276,0,0.5,0.224,0.5,0.5s-0.224,0.5-0.5,0.5h-1.5v1.293l2.853,2.853
		c0.046,0.046,0.083,0.1,0.108,0.161C15.487,8.373,15.5,8.437,15.5,8.503V10H16c0.276,0,0.5,0.224,0.5,0.5V12
		c0,0.515-0.391,0.94-0.892,0.994l0.882,4.411c0.054,0.27-0.122,0.534-0.392,0.588C16.067,18,16.034,18.003,16,18.003z
		 M13.292,15.003l-3.925-1.784L9.01,15.003H13.292z M14.918,14.644L14.59,13h-3.288L14.918,14.644z M8.5,12h7v-1h-0.462
		c-0.013,0.002-0.026,0.003-0.038,0.003c-0.012,0-0.027-0.001-0.042-0.004L9.038,11C9.024,11.002,9.011,11.003,9,11.003
		c-0.013,0-0.027-0.001-0.042-0.004L8.5,11V12z M14.5,10V9.003h-5V10H14.5z M13.793,8.003L12,6.21l-1.793,1.793H13.793z"/>
</g>
</svg>
