<?xml version="1.0" encoding="utf-8"?>
<!-- Generator: Adobe Illustrator 22.1.0, SVG Export Plug-In . SVG Version: 6.00 Build 0)  -->
<svg version="1.1" id="Layer_1" xmlns="http://www.w3.org/2000/svg" xmlns:xlink="http://www.w3.org/1999/xlink" x="0px" y="0px"
	 viewBox="0 0 24 24" style="enable-background:new 0 0 24 24;" xml:space="preserve">
<g>
	<title>style-three-pin-binoculars</title>
	<path d="M15,15.074c-1.243,0-2.373-0.653-3-1.699c-0.627,1.046-1.757,1.699-3,1.699c-1.93,0-3.5-1.57-3.5-3.5
		c0-0.594,0.154-1.183,0.447-1.705C5.952,9.854,5.96,9.836,5.971,9.818l2.101-3.501c0.218-0.378,0.537-0.698,0.922-0.919
		c0.381-0.219,0.814-0.335,1.252-0.335c0.662,0,1.287,0.254,1.754,0.706c0.148-0.143,0.314-0.268,0.493-0.371
		c0.383-0.22,0.816-0.337,1.253-0.337c0.221,0,0.443,0.03,0.659,0.088c0.65,0.175,1.192,0.593,1.528,1.176l2.095,3.492
		c0.008,0.014,0.018,0.035,0.025,0.054c0.289,0.508,0.446,1.103,0.446,1.703C18.5,13.504,16.93,15.074,15,15.074z M15,9.074
		c-1.378,0-2.5,1.121-2.5,2.5s1.121,2.5,2.5,2.5s2.5-1.122,2.5-2.5S16.378,9.074,15,9.074z M9,9.074c-1.379,0-2.5,1.121-2.5,2.5
		s1.121,2.5,2.5,2.5s2.5-1.122,2.5-2.5S10.379,9.074,9,9.074z M9,8.074c0.956,0,1.848,0.385,2.5,1.055V6.721
		c-0.284-0.414-0.748-0.659-1.255-0.659c-0.263,0-0.524,0.07-0.753,0.202C9.26,6.398,9.067,6.591,8.933,6.823L8.114,8.189
		C8.402,8.112,8.698,8.074,9,8.074z M12.5,9.129c0.652-0.67,1.544-1.055,2.5-1.055c0.302,0,0.598,0.038,0.886,0.115l-0.814-1.357
		c-0.206-0.358-0.534-0.611-0.926-0.717c-0.131-0.036-0.265-0.053-0.399-0.053c-0.262,0-0.523,0.07-0.754,0.203
		C12.799,6.376,12.63,6.533,12.5,6.723V9.129z"/>
	<path d="M8,12.074c-0.276,0-0.5-0.224-0.5-0.5c0-0.827,0.673-1.5,1.5-1.5c0.276,0,0.5,0.224,0.5,0.5s-0.224,0.5-0.5,0.5
		s-0.5,0.224-0.5,0.5S8.276,12.074,8,12.074z"/>
	<path d="M14,12.074c-0.276,0-0.5-0.224-0.5-0.5c0-0.827,0.673-1.5,1.5-1.5c0.276,0,0.5,0.224,0.5,0.5s-0.224,0.5-0.5,0.5
		s-0.5,0.224-0.5,0.5S14.276,12.074,14,12.074z"/>
	<path d="M11.999,23.926c-0.234,0-0.462-0.083-0.641-0.233c-2.586-2.204-4.997-4.644-7.169-7.252
		c-2.091-2.511-3.03-5.604-2.578-8.485C2.004,5.454,3.428,3.311,5.62,1.922c1.906-1.209,4.106-1.848,6.363-1.848h0.034
		c2.257,0,4.457,0.639,6.363,1.848c2.193,1.39,3.617,3.533,4.01,6.034c0.452,2.881-0.488,5.973-2.578,8.485
		c-2.17,2.607-4.581,5.046-7.166,7.249C12.463,23.842,12.234,23.926,11.999,23.926z M11.983,1.074c-2.067,0-4.082,0.585-5.827,1.692
		C4.21,4,2.946,5.898,2.599,8.11c-0.408,2.596,0.452,5.399,2.358,7.69c2.135,2.564,4.506,4.963,7.046,7.128
		c2.534-2.166,4.904-4.563,7.039-7.127c1.907-2.291,2.767-5.094,2.359-7.69C21.054,5.898,19.79,4,17.844,2.766
		c-1.746-1.107-3.761-1.692-5.828-1.692C12.012,1.074,11.983,1.074,11.983,1.074z"/>
</g>
</svg>
