<?xml version="1.0" encoding="utf-8"?>
<!-- Generator: Adobe Illustrator 22.1.0, SVG Export Plug-In . SVG Version: 6.00 Build 0)  -->
<svg version="1.1" id="Layer_1" xmlns="http://www.w3.org/2000/svg" xmlns:xlink="http://www.w3.org/1999/xlink" x="0px" y="0px"
	 viewBox="0 0 24 24" style="enable-background:new 0 0 24 24;" xml:space="preserve">
<g>
	<title>style-three-pin-user-woman</title>
	<path d="M11.999,23.926c-0.234,0-0.462-0.083-0.641-0.233c-2.586-2.204-4.997-4.644-7.169-7.252
		c-2.091-2.511-3.03-5.604-2.578-8.485C2.004,5.454,3.428,3.311,5.62,1.922c1.906-1.209,4.106-1.848,6.363-1.848h0.034
		c2.257,0,4.457,0.639,6.363,1.848c2.193,1.39,3.617,3.533,4.01,6.034c0.452,2.881-0.488,5.973-2.578,8.485
		c-2.17,2.607-4.581,5.046-7.166,7.249C12.463,23.842,12.234,23.926,11.999,23.926z M11.983,1.074c-2.067,0-4.082,0.585-5.827,1.692
		C4.21,4,2.946,5.898,2.599,8.11c-0.408,2.596,0.452,5.399,2.358,7.69c2.135,2.564,4.506,4.963,7.046,7.128
		c2.534-2.166,4.904-4.563,7.039-7.127c1.907-2.291,2.767-5.094,2.359-7.69C21.054,5.898,19.79,4,17.844,2.766
		c-1.746-1.107-3.761-1.692-5.828-1.692C12.012,1.074,11.983,1.074,11.983,1.074z"/>
	<path d="M12,8.074c-1.379,0-2.5-1.121-2.5-2.5s1.121-2.5,2.5-2.5s2.5,1.121,2.5,2.5S13.379,8.074,12,8.074z M12,4.074
		c-0.827,0-1.5,0.673-1.5,1.5s0.673,1.5,1.5,1.5c0.827,0,1.5-0.673,1.5-1.5S12.827,4.074,12,4.074z"/>
	<path d="M11,17.074c-0.23,0-0.429-0.156-0.485-0.379l-0.405-1.621H8.5c-0.16,0-0.312-0.078-0.406-0.208
		c-0.094-0.13-0.119-0.298-0.069-0.45c0.26-0.782,0.478-1.469,0.669-2.075l0.009-0.029C9.649,9.315,10.041,8.074,12,8.074
		c1.957,0,2.322,1.153,3.295,4.234c0.183,0.581,0.411,1.303,0.68,2.108c0.051,0.152,0.025,0.32-0.069,0.45
		c-0.094,0.13-0.246,0.208-0.406,0.208h-1.61l-0.406,1.621c-0.056,0.223-0.255,0.379-0.485,0.379H11z M12.609,16.074l0.406-1.621
		c0.056-0.223,0.255-0.379,0.485-0.379h1.309c-0.174-0.536-0.328-1.021-0.468-1.465C13.365,9.518,13.149,9.074,12,9.074
		c-1.15,0-1.366,0.445-2.343,3.539c-0.14,0.442-0.292,0.927-0.466,1.461H10.5c0.23,0,0.429,0.156,0.485,0.379l0.405,1.621H12.609z"
		/>
</g>
</svg>
