<?xml version="1.0" encoding="utf-8"?>
<!-- Generator: Adobe Illustrator 22.1.0, SVG Export Plug-In . SVG Version: 6.00 Build 0)  -->
<svg version="1.1" id="Layer_1" xmlns="http://www.w3.org/2000/svg" xmlns:xlink="http://www.w3.org/1999/xlink" x="0px" y="0px"
	 viewBox="0 0 24 24" style="enable-background:new 0 0 24 24;" xml:space="preserve">
<g>
	<title>style-three-pin-snow-scooter</title>
	<path d="M12,24c-0.117,0-0.231-0.041-0.321-0.116c-2.714-2.266-5.235-4.795-7.491-7.517c-2.09-2.512-3.03-5.605-2.577-8.486
		C2.004,5.38,3.428,3.237,5.62,1.848C7.526,0.639,9.727,0,11.983,0l0.026,0.25V0c2.264,0,4.464,0.639,6.37,1.848
		c2.193,1.39,3.617,3.533,4.01,6.034c0.452,2.881-0.488,5.973-2.578,8.485c-2.256,2.721-4.776,5.25-7.491,7.517
		C12.231,23.959,12.117,24,12,24z M11.983,1C9.916,1,7.901,1.585,6.156,2.692C4.21,3.926,2.947,5.823,2.599,8.036
		c-0.408,2.597,0.452,5.4,2.358,7.691c2.128,2.567,4.497,4.961,7.043,7.119c2.545-2.157,4.914-4.551,7.042-7.119
		c1.907-2.292,2.767-5.095,2.359-7.691c-0.348-2.213-1.611-4.111-3.557-5.345C16.102,1.587,14.091,1.002,12.028,1
		c-0.008,0.001-0.016,0.001-0.022,0.001C11.998,1.001,11.983,1,11.983,1z"/>
	<path d="M13,15c-0.276,0-0.5-0.224-0.5-0.5S12.724,14,13,14h1.5v-0.994h-3V13.5c0,0.827-0.673,1.5-1.5,1.5H7
		c-0.827,0-1.5-0.673-1.5-1.5c0-0.448,0.203-0.867,0.544-1.149c-0.101-0.146-0.176-0.309-0.219-0.48l-0.311-1.243
		C5.505,10.587,5.5,10.546,5.5,10.506c0-1.379,1.121-2.5,2.5-2.5h3.732l0.824-1.236l-0.765-0.765L10.997,6
		c-0.276-0.002-0.499-0.227-0.497-0.503C10.502,5.223,10.726,5,11,5l1.003,0.006c0.132,0.001,0.257,0.053,0.351,0.146l0.769,0.769
		l0.462-0.693C13.677,5.089,13.832,5.006,14,5.006c3.371,0,4.446,5.181,4.49,5.402c0.002,0.013,0.004,0.034,0.005,0.052
		c0.003,0.016,0.004,0.033,0.004,0.046c0,0.021-0.002,0.039-0.005,0.052c-0.004,0.033-0.011,0.066-0.022,0.101
		c-0.002,0.01-0.006,0.021-0.01,0.033c-0.004,0.012-0.008,0.023-0.013,0.033L18,11.624c-0.426,0.852-1.283,1.382-2.236,1.382H15.5
		V14h1c0.808,0,1.572-0.306,2.155-0.862C18.748,13.049,18.871,13,19,13c0.136,0,0.268,0.056,0.362,0.155
		c0.092,0.096,0.141,0.223,0.138,0.357c-0.003,0.134-0.058,0.258-0.155,0.35C18.576,14.596,17.566,15,16.503,15H13z M7.077,12.992
		C7.055,12.996,7.029,13,7,13c-0.276,0-0.5,0.224-0.5,0.5S6.724,14,7,14h3c0.276,0,0.5-0.224,0.5-0.5v-0.494H7.281
		C7.214,13.006,7.146,13.001,7.077,12.992z M15.764,12.006c0.572,0,1.086-0.318,1.342-0.829l0.085-0.171H6.641l0.156,0.622
		c0.056,0.223,0.255,0.378,0.485,0.378h3.66C10.957,12.003,10.977,12,11,12c0.015,0,0.036,0.003,0.056,0.006h3.885
		C14.956,12.003,14.977,12,15,12c0.015,0,0.036,0.003,0.056,0.006H15.764z M17.357,10.006c-0.342-1.188-1.287-3.76-3.1-3.984
		l-1.841,2.762C12.323,8.923,12.168,9.006,12,9.006h-0.5v1H17.357z M10.5,10.006v-1H8c-0.64,0-1.204,0.414-1.412,1H10.5z"/>
</g>
</svg>
