<?xml version="1.0" encoding="utf-8"?>
<!-- Generator: Adobe Illustrator 22.1.0, SVG Export Plug-In . SVG Version: 6.00 Build 0)  -->
<svg version="1.1" id="Layer_1" xmlns="http://www.w3.org/2000/svg" xmlns:xlink="http://www.w3.org/1999/xlink" x="0px" y="0px"
	 viewBox="0 0 24 24" style="enable-background:new 0 0 24 24;" xml:space="preserve">
<g>
	<title>style-three-pin-barn</title>
	<path d="M12,24c-0.117,0-0.231-0.041-0.321-0.116c-2.714-2.266-5.235-4.795-7.491-7.517c-2.09-2.512-3.03-5.605-2.577-8.486
		C2.004,5.38,3.428,3.237,5.62,1.848C7.526,0.639,9.727,0,11.983,0l0.026,0.25V0c2.264,0,4.464,0.639,6.37,1.848
		c2.193,1.39,3.617,3.533,4.01,6.034c0.452,2.881-0.488,5.973-2.578,8.485c-2.256,2.721-4.776,5.25-7.491,7.517
		C12.231,23.959,12.117,24,12,24z M11.983,1C9.916,1,7.901,1.585,6.156,2.692C4.21,3.926,2.947,5.823,2.599,8.036
		c-0.408,2.597,0.452,5.4,2.358,7.691c2.128,2.567,4.497,4.961,7.043,7.119c2.545-2.157,4.914-4.551,7.042-7.119
		c1.907-2.292,2.767-5.095,2.359-7.691c-0.348-2.213-1.611-4.111-3.557-5.345C16.102,1.587,14.091,1.002,12.028,1
		c-0.008,0.001-0.016,0.001-0.022,0.001C11.998,1.001,11.983,1,11.983,1z"/>
	<path d="M14,16.003c-0.012,0-0.025-0.001-0.039-0.003l-1.924,0c-0.013,0.002-0.026,0.003-0.037,0.003
		c-0.012,0-0.025-0.001-0.039-0.003l-1.924,0c-0.013,0.002-0.026,0.003-0.037,0.003c-0.012,0-0.025-0.001-0.039-0.003L7.5,16
		c-0.551,0-1-0.448-1-1v-4H6c-0.174,0-0.333-0.089-0.425-0.237c-0.092-0.149-0.1-0.33-0.022-0.486l2.4-4.8
		C8.08,5.224,8.308,5.036,8.58,4.961l3.148-0.899c0.091-0.025,0.182-0.038,0.275-0.038c0.091,0,0.182,0.012,0.271,0.037l3.155,0.901
		c0.269,0.077,0.494,0.265,0.619,0.514l2.4,4.8c0.078,0.156,0.07,0.338-0.022,0.487C18.333,10.911,18.174,11,18,11h-0.5v4
		c0,0.552-0.448,1-1,1h-2.463C14.024,16.002,14.011,16.003,14,16.003z M16.5,15v-4h-9v4h2v-2.497c0-0.276,0.224-0.5,0.5-0.5h4
		c0.276,0,0.5,0.224,0.5,0.5L16.5,15z M13.5,15v-1.997h-1L13.5,15z M11.5,15v-1.997h-1L11.5,15z M17.191,10l-2.038-4.076l-3.151-0.9
		l0.001,0.001c-0.002,0-0.004,0-0.006,0.001L8.85,5.924L6.809,10H17.191z"/>
	<path d="M12,8.753c-0.414,0-0.75-0.336-0.75-0.75c0,0,0-0.003,0-0.003c0-0.414,0.336-0.75,0.75-0.75
		c0.017,0,0.045,0.004,0.067,0.008c0.375,0.034,0.671,0.346,0.682,0.722c0,0.007,0.001,0.022,0.001,0.023
		c0,0.007,0,0.014-0.001,0.021c-0.014,0.377-0.308,0.686-0.68,0.72C12.052,8.749,12.029,8.753,12,8.753z"/>
</g>
</svg>
