<?xml version="1.0" encoding="utf-8"?>
<!-- Generator: Adobe Illustrator 22.1.0, SVG Export Plug-In . SVG Version: 6.00 Build 0)  -->
<svg version="1.1" id="Layer_1" xmlns="http://www.w3.org/2000/svg" xmlns:xlink="http://www.w3.org/1999/xlink" x="0px" y="0px"
	 viewBox="0 0 24 24" style="enable-background:new 0 0 24 24;" xml:space="preserve">
<g>
	<title>style-three-pin-fire</title>
	<path d="M11.999,23.926c-0.234,0-0.462-0.083-0.641-0.233c-2.586-2.204-4.997-4.644-7.169-7.252
		c-2.091-2.511-3.03-5.604-2.578-8.485C2.004,5.454,3.428,3.311,5.62,1.922c1.906-1.209,4.106-1.848,6.363-1.848h0.034
		c2.257,0,4.457,0.639,6.363,1.848c2.193,1.39,3.617,3.533,4.01,6.034c0.452,2.881-0.488,5.973-2.578,8.485
		c-2.17,2.607-4.581,5.046-7.166,7.249C12.463,23.842,12.234,23.926,11.999,23.926z M11.983,1.074c-2.067,0-4.082,0.585-5.827,1.692
		C4.21,4,2.946,5.898,2.599,8.11c-0.408,2.596,0.452,5.399,2.358,7.69c2.135,2.564,4.506,4.963,7.046,7.128
		c2.534-2.166,4.904-4.563,7.039-7.127c1.907-2.291,2.767-5.094,2.359-7.69C21.054,5.898,19.79,4,17.844,2.766
		c-1.746-1.107-3.761-1.692-5.828-1.692C12.012,1.074,11.983,1.074,11.983,1.074z"/>
	<path d="M12,15.074c-1.654,0-3-1.346-3-3c-0.012-1.209,0.754-2.28,1.906-2.662c0.051-0.017,0.104-0.025,0.157-0.025
		c0.089,0,0.177,0.024,0.254,0.069c0.124,0.073,0.211,0.197,0.238,0.338c0.005,0.025,0.01,0.049,0.017,0.073
		c0.191-0.648,0.206-1.468-0.367-1.89c-0.19-0.14-0.257-0.397-0.158-0.611c0.081-0.177,0.26-0.292,0.455-0.292
		c0.037,0,0.075,0.004,0.111,0.013C13.952,7.625,15,9.979,15,12.074C15,13.728,13.654,15.074,12,15.074z M10.789,10.572
		c-0.492,0.33-0.795,0.893-0.789,1.497c0,1.107,0.897,2.005,2,2.005c1.103,0,2-0.897,2-2c0-1.076-0.36-2.502-1.333-3.358
		c0.113,0.928-0.242,1.899-0.562,2.384c-0.093,0.141-0.249,0.224-0.417,0.224c-0.098,0-0.193-0.028-0.275-0.082
		C11.156,11.073,10.941,10.841,10.789,10.572z"/>
	<path d="M12,18.072c-0.033,0-0.065-0.003-0.097-0.01c-3.096-0.602-5.369-3.329-5.403-6.485V7.209
		C6.499,6.714,6.789,6.261,7.24,6.054c1.49-0.651,3.061-0.98,4.673-0.98l0.162,0c1.62,0,3.194,0.328,4.677,0.976
		c0.461,0.211,0.751,0.667,0.748,1.165v4.357c-0.026,3.166-2.3,5.895-5.406,6.491C12.063,18.069,12.031,18.072,12,18.072z
		 M11.924,6.075c-1.481,0-2.919,0.3-4.276,0.892C7.561,7.007,7.5,7.105,7.5,7.208v4.364c0.028,2.64,1.918,4.942,4.5,5.49
		c2.589-0.543,4.477-2.845,4.499-5.494V7.212c0.001-0.107-0.06-0.204-0.155-0.248c-1.352-0.59-2.771-0.89-4.214-0.89L11.924,6.075z"
		/>
</g>
</svg>
