<?xml version="1.0" encoding="utf-8"?>
<!-- Generator: Adobe Illustrator 22.1.0, SVG Export Plug-In . SVG Version: 6.00 Build 0)  -->
<svg version="1.1" id="Layer_1" xmlns="http://www.w3.org/2000/svg" xmlns:xlink="http://www.w3.org/1999/xlink" x="0px" y="0px"
	 viewBox="0 0 24 24" style="enable-background:new 0 0 24 24;" xml:space="preserve">
<g>
	<title>style-three-pin-plane</title>
	<path d="M11.999,23.927c-0.234,0-0.462-0.083-0.641-0.233c-2.586-2.204-4.998-4.644-7.169-7.251
		c-2.091-2.513-3.031-5.607-2.578-8.488c0.393-2.5,1.817-4.643,4.009-6.033c1.906-1.209,4.106-1.848,6.363-1.848h0.034
		c2.257,0,4.457,0.639,6.363,1.848c2.193,1.39,3.617,3.533,4.01,6.034c0.452,2.881-0.488,5.973-2.578,8.485
		c-2.171,2.608-4.582,5.047-7.166,7.25C12.463,23.843,12.234,23.927,11.999,23.927z M11.983,1.074c-2.067,0-4.082,0.585-5.827,1.692
		C4.21,4,2.947,5.897,2.599,8.11c-0.408,2.597,0.451,5.401,2.358,7.693c2.136,2.565,4.506,4.963,7.046,7.127
		c2.534-2.166,4.904-4.564,7.039-7.128c1.907-2.291,2.767-5.094,2.359-7.69C21.054,5.898,19.79,4,17.844,2.766
		c-1.746-1.107-3.761-1.692-5.828-1.692c-0.002,0-0.023,0-0.026,0C11.988,1.074,11.985,1.074,11.983,1.074z"/>
	<path d="M9.756,15.142c-0.204,0-0.4-0.062-0.567-0.181l-2.877-2.019C6.131,12.8,6.028,12.62,6.004,12.413
		c-0.024-0.203,0.033-0.404,0.16-0.565c0.036-0.046,0.078-0.088,0.126-0.126l1.188-1.048c0.143-0.122,0.321-0.188,0.505-0.188
		c0.086,0,0.171,0.014,0.252,0.042c0.033,0.011,0.063,0.026,0.092,0.043l1.235,0.734l1.031-0.72L7.601,8.74
		C7.579,8.725,7.559,8.711,7.54,8.695C7.192,8.397,7.15,7.872,7.446,7.524c0.047-0.052,0.09-0.092,0.138-0.127l0.887-0.658
		c0.145-0.107,0.316-0.164,0.495-0.164c0.099,0,0.196,0.017,0.289,0.052l4.777,1.775l2.107-1.437
		c0.297-0.205,0.647-0.314,1.011-0.314c0.131,0,0.262,0.015,0.389,0.043c0.004,0.001,0.008,0.002,0.011,0.003
		c0.627,0.146,1.132,0.599,1.345,1.21C18.965,8.099,19,8.303,19,8.512c0.013,0.641-0.321,1.258-0.87,1.604l-7.856,4.878
		C10.118,15.091,9.939,15.142,9.756,15.142z M9.765,14.144l7.834-4.876C17.852,9.109,18.006,8.822,18,8.521
		c0-0.101-0.015-0.191-0.047-0.279c-0.101-0.291-0.337-0.504-0.632-0.572c-0.055-0.012-0.113-0.019-0.171-0.019
		c-0.16,0-0.314,0.048-0.446,0.138l-2.322,1.584c-0.083,0.057-0.18,0.087-0.282,0.087c-0.06,0-0.118-0.011-0.174-0.031L8.993,7.597
		L8.385,8.048l3.381,2.087c0.144,0.089,0.232,0.243,0.237,0.412c0.005,0.169-0.075,0.327-0.214,0.424l-1.92,1.34
		c-0.084,0.059-0.183,0.09-0.286,0.09c-0.09,0-0.178-0.024-0.256-0.071l-1.316-0.782l-0.862,0.76L9.765,14.144z"/>
</g>
</svg>
