<?xml version="1.0" encoding="utf-8"?>
<!-- Generator: Adobe Illustrator 22.1.0, SVG Export Plug-In . SVG Version: 6.00 Build 0)  -->
<svg version="1.1" id="Layer_1" xmlns="http://www.w3.org/2000/svg" xmlns:xlink="http://www.w3.org/1999/xlink" x="0px" y="0px"
	 viewBox="0 0 24 24" style="enable-background:new 0 0 24 24;" xml:space="preserve">
<g>
	<title>style-three-pin-lotus</title>
	<path d="M12,15.044c-3.135,0-5.5-1.075-5.5-2.5c0.047-0.545,0.286-1.016,0.674-1.35c0.09-0.078,0.206-0.121,0.326-0.121
		c0.146,0,0.284,0.063,0.379,0.174c0.18,0.208,0.156,0.525-0.053,0.705c-0.189,0.163-0.306,0.389-0.328,0.637
		C7.5,13.155,9.295,14.044,12,14.044c2.747,0,4.5-0.888,4.5-1.5c-0.021-0.207-0.14-0.431-0.326-0.591
		c-0.209-0.18-0.233-0.496-0.054-0.705c0.095-0.111,0.234-0.174,0.38-0.174c0.119,0,0.235,0.043,0.325,0.12
		c0.387,0.333,0.626,0.796,0.672,1.304c0.001,0.749-0.592,1.405-1.67,1.87C14.819,14.804,13.46,15.044,12,15.044z"/>
	<path d="M12,12.573c-0.276,0-0.5-0.224-0.5-0.5v-0.921c-0.164,0.016-0.329,0.024-0.493,0.024c0,0,0,0,0,0
		c-0.905,0-1.794-0.243-2.572-0.702c-0.026-0.015-0.05-0.032-0.072-0.052C7.387,9.58,6.771,8.411,6.628,7.13
		C6.6,6.875,6.767,6.641,7.018,6.587c0.356-0.078,0.72-0.117,1.083-0.117c0.685,0,1.372,0.143,2.006,0.415
		c0.228-1.033,0.774-1.976,1.559-2.682C11.757,4.119,11.876,4.073,12,4.073s0.243,0.046,0.335,0.129
		c0.785,0.707,1.332,1.65,1.56,2.684c0.637-0.273,1.325-0.416,2.009-0.416c0.362,0,0.725,0.039,1.08,0.117
		c0.251,0.055,0.418,0.289,0.39,0.544c-0.142,1.28-0.758,2.449-1.733,3.291c-0.022,0.019-0.047,0.037-0.072,0.052
		c-0.784,0.463-1.676,0.707-2.581,0.707c-0.153,0-0.314-0.009-0.487-0.028v0.921C12.5,12.349,12.276,12.573,12,12.573z M13.95,7.964
		c-0.128,0.809-0.443,1.564-0.922,2.214c0.699-0.007,1.386-0.194,1.992-0.542c0.64-0.565,1.088-1.318,1.279-2.146
		c-0.135-0.014-0.271-0.02-0.406-0.02C15.217,7.468,14.548,7.639,13.95,7.964z M8.982,9.635c0.605,0.348,1.292,0.535,1.99,0.542
		c-0.479-0.651-0.794-1.407-0.922-2.216C9.457,7.638,8.789,7.468,8.11,7.468c-0.136,0-0.272,0.007-0.408,0.021
		C7.893,8.317,8.341,9.07,8.982,9.635z M11.002,7.573c0.085,0.85,0.436,1.653,0.998,2.291c0.561-0.637,0.912-1.441,0.998-2.29
		C12.913,6.724,12.561,5.921,12,5.283C11.439,5.921,11.088,6.724,11.002,7.573z"/>
	<path d="M11.999,23.927c-0.234,0-0.462-0.083-0.641-0.233c-2.586-2.204-4.998-4.644-7.169-7.251
		c-2.091-2.513-3.031-5.607-2.578-8.488c0.393-2.5,1.817-4.643,4.009-6.033c1.906-1.209,4.106-1.848,6.363-1.848h0.034
		c2.257,0,4.457,0.639,6.363,1.848c2.193,1.39,3.617,3.533,4.01,6.034c0.452,2.881-0.488,5.973-2.578,8.485
		c-2.171,2.608-4.582,5.047-7.166,7.25C12.463,23.843,12.234,23.927,11.999,23.927z M11.983,1.074c-2.067,0-4.082,0.585-5.827,1.692
		C4.21,4,2.947,5.897,2.599,8.11c-0.408,2.597,0.451,5.401,2.358,7.693c2.136,2.565,4.506,4.963,7.046,7.127
		c2.534-2.166,4.904-4.564,7.039-7.128c1.907-2.291,2.767-5.094,2.359-7.69C21.054,5.898,19.79,4,17.844,2.766
		c-1.746-1.107-3.761-1.692-5.828-1.692c-0.002,0-0.023,0-0.026,0C11.988,1.074,11.985,1.074,11.983,1.074z"/>
</g>
</svg>
