<?xml version="1.0" encoding="utf-8"?>
<!-- Generator: Adobe Illustrator 22.1.0, SVG Export Plug-In . SVG Version: 6.00 Build 0)  -->
<svg version="1.1" id="Layer_1" xmlns="http://www.w3.org/2000/svg" xmlns:xlink="http://www.w3.org/1999/xlink" x="0px" y="0px"
	 viewBox="0 0 24 24" style="enable-background:new 0 0 24 24;" xml:space="preserve">
<g>
	<title>style-three-pin-block</title>
	<path d="M12,17c-1.722,0-3.344-0.668-4.571-1.883c-0.008-0.006-0.015-0.012-0.021-0.018c-0.009-0.009-0.018-0.019-0.026-0.03
		C6.171,13.85,5.5,12.225,5.5,10.5C5.5,6.916,8.416,4,12,4c1.719,0,3.339,0.667,4.565,1.878c0.012,0.009,0.024,0.019,0.033,0.028
		c0.008,0.008,0.016,0.019,0.024,0.029C17.83,7.152,18.5,8.776,18.5,10.5C18.5,14.084,15.584,17,12,17z M8.483,14.724
		C9.471,15.549,10.71,16,12,16c3.033,0,5.5-2.467,5.5-5.5c0-1.291-0.451-2.53-1.276-3.518L8.483,14.724z M12,5
		c-3.033,0-5.5,2.467-5.5,5.5c0,1.29,0.451,2.529,1.276,3.517l7.741-7.742C14.529,5.451,13.29,5,12,5z"/>
	<path d="M12,24c-0.117,0-0.231-0.041-0.321-0.116c-2.714-2.266-5.235-4.795-7.491-7.517c-2.09-2.512-3.03-5.605-2.577-8.486
		C2.004,5.38,3.428,3.237,5.62,1.848C7.526,0.639,9.727,0,11.983,0l0.026,0.25V0c2.264,0,4.464,0.639,6.37,1.848
		c2.193,1.39,3.617,3.533,4.01,6.034c0.452,2.881-0.488,5.973-2.578,8.485c-2.256,2.721-4.776,5.25-7.491,7.517
		C12.231,23.959,12.117,24,12,24z M11.983,1C9.916,1,7.901,1.585,6.156,2.692C4.21,3.926,2.947,5.823,2.599,8.036
		c-0.408,2.597,0.452,5.4,2.358,7.691c2.128,2.567,4.497,4.961,7.043,7.119c2.545-2.157,4.914-4.551,7.042-7.119
		c1.907-2.292,2.767-5.095,2.359-7.691c-0.348-2.213-1.611-4.111-3.557-5.345C16.102,1.587,14.091,1.002,12.028,1
		c-0.008,0.001-0.016,0.001-0.022,0.001C11.998,1.001,11.983,1,11.983,1z"/>
</g>
</svg>
