<?xml version="1.0" encoding="utf-8"?>
<!-- Generator: Adobe Illustrator 22.1.0, SVG Export Plug-In . SVG Version: 6.00 Build 0)  -->
<svg version="1.1" id="Layer_1" xmlns="http://www.w3.org/2000/svg" xmlns:xlink="http://www.w3.org/1999/xlink" x="0px" y="0px"
	 viewBox="0 0 24 24" style="enable-background:new 0 0 24 24;" xml:space="preserve">
<g>
	<title>style-three-pin-cocktail</title>
	<path d="M11.999,23.927c-0.234,0-0.462-0.083-0.641-0.233c-2.586-2.204-4.998-4.644-7.169-7.251
		c-2.091-2.513-3.031-5.607-2.578-8.488c0.393-2.5,1.817-4.643,4.009-6.033c1.906-1.209,4.106-1.848,6.363-1.848h0.034
		c2.257,0,4.457,0.639,6.363,1.848c2.193,1.39,3.617,3.533,4.01,6.034c0.452,2.881-0.488,5.973-2.578,8.485
		c-2.171,2.608-4.582,5.047-7.166,7.25C12.463,23.843,12.234,23.927,11.999,23.927z M11.983,1.074c-2.067,0-4.082,0.585-5.827,1.692
		C4.21,4,2.947,5.897,2.599,8.11c-0.408,2.597,0.451,5.401,2.358,7.693c2.136,2.565,4.506,4.963,7.046,7.127
		c2.534-2.166,4.904-4.564,7.039-7.128c1.907-2.291,2.767-5.094,2.359-7.69C21.054,5.898,19.79,4,17.844,2.766
		c-1.746-1.107-3.761-1.692-5.828-1.692c-0.002,0-0.023,0-0.026,0C11.988,1.074,11.985,1.074,11.983,1.074z"/>
	<path d="M10,17.075c-0.276,0-0.5-0.224-0.5-0.5s0.224-0.5,0.5-0.5h1.5v-4.033c-2.261-0.251-4-2.169-4-4.467
		c0-0.276,0.224-0.5,0.5-0.5h0.806L8.026,4.733C7.983,4.607,7.993,4.471,8.053,4.352c0.06-0.12,0.162-0.208,0.289-0.251
		c0.051-0.017,0.105-0.026,0.159-0.026c0.215,0,0.406,0.138,0.474,0.342L9.86,7.075h3.691c0.009-0.043,0.018-0.084,0.029-0.125
		c0.167-0.646,0.575-1.189,1.151-1.528c0.385-0.227,0.823-0.347,1.266-0.347c0.211,0,0.422,0.027,0.629,0.08
		c0.647,0.167,1.189,0.576,1.529,1.151c0.339,0.575,0.434,1.248,0.267,1.895c-0.167,0.646-0.575,1.189-1.151,1.529
		c-0.385,0.227-0.823,0.347-1.266,0.347c-0.082,0-0.167-0.005-0.26-0.016c-0.738,1.109-1.928,1.834-3.244,1.982v4.033H14
		c0.276,0,0.5,0.224,0.5,0.5s-0.224,0.5-0.5,0.5H10z M8.536,8.075c0.245,1.702,1.717,3,3.464,3s3.22-1.298,3.464-3H8.536z M16,7.075
		c0.276,0,0.5,0.224,0.5,0.5c0,0.506-0.085,1.003-0.253,1.48c0.181-0.03,0.356-0.093,0.515-0.187
		c0.345-0.203,0.59-0.529,0.691-0.917c0.1-0.387,0.043-0.791-0.161-1.136c-0.204-0.346-0.529-0.591-0.917-0.691
		c-0.124-0.032-0.251-0.048-0.378-0.048c-0.265,0-0.527,0.072-0.759,0.209c-0.307,0.181-0.535,0.459-0.652,0.792H16z"/>
</g>
</svg>
