<?xml version="1.0" encoding="utf-8"?>
<!-- Generator: Adobe Illustrator 22.1.0, SVG Export Plug-In . SVG Version: 6.00 Build 0)  -->
<svg version="1.1" id="Layer_1" xmlns="http://www.w3.org/2000/svg" xmlns:xlink="http://www.w3.org/1999/xlink" x="0px" y="0px"
	 viewBox="0 0 24 24" style="enable-background:new 0 0 24 24;" xml:space="preserve">
<g>
	<title>style-three-pin-star</title>
	<path d="M12,24c-0.117,0-0.231-0.041-0.321-0.116c-2.714-2.266-5.235-4.795-7.491-7.517c-2.09-2.512-3.03-5.605-2.577-8.486
		C2.004,5.38,3.428,3.237,5.62,1.848C7.526,0.639,9.727,0,11.983,0l0.026,0.25V0c2.264,0,4.464,0.639,6.37,1.848
		c2.193,1.39,3.617,3.533,4.01,6.034c0.452,2.881-0.488,5.973-2.578,8.485c-2.256,2.721-4.776,5.25-7.491,7.517
		C12.231,23.959,12.117,24,12,24z M11.983,1C9.916,1,7.901,1.585,6.156,2.692C4.21,3.926,2.947,5.823,2.599,8.036
		c-0.408,2.597,0.452,5.4,2.358,7.691c2.128,2.567,4.497,4.961,7.043,7.119c2.545-2.157,4.914-4.551,7.042-7.119
		c1.907-2.292,2.767-5.095,2.359-7.691c-0.348-2.213-1.611-4.111-3.557-5.345C16.102,1.587,14.091,1.002,12.028,1
		c-0.008,0.001-0.016,0.001-0.022,0.001C11.998,1.001,11.983,1,11.983,1z"/>
	<path d="M8.126,16.001c-0.11,0-0.221-0.014-0.328-0.042c-0.332-0.087-0.61-0.298-0.784-0.594c-0.203-0.347-0.231-0.776-0.075-1.147
		l1.301-2.984L5.91,9.159C5.401,8.711,5.351,7.931,5.8,7.419c0.234-0.267,0.572-0.42,0.927-0.42L6.779,7l2.65,0l1.411-3.268
		c0.236-0.455,0.681-0.728,1.167-0.728c0.206,0,0.411,0.051,0.595,0.147c0.235,0.123,0.424,0.311,0.547,0.546
		c0.003,0.007,0.015,0.031,0.017,0.037L14.574,7l2.702-0.001c0.651,0,1.201,0.533,1.226,1.188c0.014,0.37-0.136,0.723-0.412,0.968
		l-2.33,2.075l1.296,2.982c0.275,0.659-0.035,1.415-0.688,1.687c-0.156,0.065-0.322,0.098-0.493,0.098l0,0
		c-0.227,0-0.449-0.059-0.644-0.171L12,14.006l-3.234,1.823C8.574,15.941,8.352,16.001,8.126,16.001z M6.735,8
		C6.661,8,6.597,8.027,6.551,8.079c-0.085,0.097-0.075,0.245,0.021,0.33l2.603,2.317c0.162,0.144,0.212,0.375,0.126,0.573
		l-1.443,3.311c-0.032,0.076-0.025,0.173,0.019,0.249c0.038,0.066,0.1,0.113,0.174,0.132c0.023,0.006,0.048,0.009,0.072,0.009
		c0.05,0,0.1-0.014,0.144-0.04l3.487-1.965c0.075-0.042,0.16-0.064,0.245-0.064c0.086,0,0.171,0.022,0.245,0.064l3.48,1.962
		c0.047,0.027,0.097,0.041,0.148,0.041c0.038,0,0.074-0.007,0.108-0.022c0.145-0.061,0.214-0.228,0.154-0.373l-1.437-3.307
		c-0.086-0.198-0.036-0.428,0.126-0.573l2.6-2.315c0.052-0.047,0.081-0.114,0.078-0.184c-0.005-0.124-0.109-0.226-0.232-0.226
		L14.245,8c-0.2,0-0.38-0.119-0.459-0.302l-1.535-3.561c-0.018-0.031-0.06-0.073-0.112-0.099c-0.043-0.022-0.088-0.034-0.135-0.034
		c-0.11,0-0.211,0.061-0.262,0.158l-1.525,3.536C10.138,7.882,9.958,8,9.758,8L6.735,8z"/>
</g>
</svg>
