<?xml version="1.0" encoding="utf-8"?>
<!-- Generator: Adobe Illustrator 22.1.0, SVG Export Plug-In . SVG Version: 6.00 Build 0)  -->
<svg version="1.1" id="Layer_1" xmlns="http://www.w3.org/2000/svg" xmlns:xlink="http://www.w3.org/1999/xlink" x="0px" y="0px"
	 viewBox="0 0 24 24" style="enable-background:new 0 0 24 24;" xml:space="preserve">
<g>
	<title>style-three-pin-pill</title>
	<path d="M11.999,23.927c-0.234,0-0.462-0.083-0.641-0.233c-2.586-2.204-4.998-4.644-7.169-7.251
		c-2.091-2.513-3.031-5.607-2.578-8.488c0.393-2.5,1.817-4.643,4.009-6.033c1.906-1.209,4.106-1.848,6.363-1.848h0.034
		c2.257,0,4.457,0.639,6.363,1.848c2.193,1.39,3.617,3.533,4.01,6.034c0.452,2.881-0.488,5.973-2.578,8.485
		c-2.171,2.608-4.582,5.047-7.166,7.25C12.463,23.843,12.234,23.927,11.999,23.927z M11.983,1.074c-2.067,0-4.082,0.585-5.827,1.692
		C4.21,4,2.947,5.897,2.599,8.11c-0.408,2.597,0.451,5.401,2.358,7.693c2.136,2.565,4.506,4.963,7.046,7.127
		c2.534-2.166,4.904-4.564,7.039-7.128c1.907-2.291,2.767-5.094,2.359-7.69C21.054,5.898,19.79,4,17.844,2.766
		c-1.746-1.107-3.761-1.692-5.828-1.692c-0.002,0-0.023,0-0.026,0C11.988,1.074,11.985,1.074,11.983,1.074z"/>
	<path d="M9.861,16.016c-0.946,0-1.832-0.371-2.495-1.043c-0.656-0.666-1.013-1.548-1.005-2.483c0.007-0.935,0.378-1.81,1.044-2.466
		l4.241-4.241c0.66-0.66,1.539-1.024,2.475-1.024c0.936,0,1.815,0.364,2.475,1.024c0.66,0.66,1.024,1.539,1.024,2.475
		s-0.364,1.815-1.024,2.475l-4.279,4.277C11.659,15.659,10.787,16.016,9.861,16.016z M8.111,10.733
		c-0.479,0.471-0.744,1.097-0.749,1.765c-0.005,0.668,0.25,1.298,0.718,1.774c0.473,0.48,1.106,0.745,1.782,0.745
		c0.661,0,1.284-0.255,1.754-0.717l1.799-1.799L9.879,8.964L8.111,10.733z M14.121,11.793l1.768-1.768
		c0.975-0.975,0.975-2.561,0-3.536c-0.471-0.471-1.099-0.731-1.768-0.731s-1.296,0.26-1.768,0.731l-1.767,1.767L14.121,11.793z"/>
</g>
</svg>
