<?xml version="1.0" encoding="utf-8"?>
<!-- Generator: Adobe Illustrator 22.1.0, SVG Export Plug-In . SVG Version: 6.00 Build 0)  -->
<svg version="1.1" id="Layer_1" xmlns="http://www.w3.org/2000/svg" xmlns:xlink="http://www.w3.org/1999/xlink" x="0px" y="0px"
	 viewBox="0 0 24 24" style="enable-background:new 0 0 24 24;" xml:space="preserve">
<g>
	<title>style-three-pin-fishing</title>
	<path d="M12,24c-0.117,0-0.231-0.041-0.321-0.116c-2.714-2.266-5.235-4.795-7.491-7.517c-2.09-2.512-3.03-5.605-2.577-8.486
		C2.004,5.38,3.428,3.237,5.62,1.848C7.526,0.639,9.727,0,11.983,0l0.026,0.25V0c2.264,0,4.464,0.639,6.37,1.848
		c2.193,1.39,3.617,3.533,4.01,6.034c0.452,2.881-0.488,5.973-2.578,8.485c-2.256,2.721-4.776,5.25-7.491,7.517
		C12.231,23.959,12.117,24,12,24z M11.983,1C9.916,1,7.901,1.585,6.156,2.692C4.21,3.926,2.947,5.823,2.599,8.036
		c-0.408,2.597,0.452,5.4,2.358,7.691c2.128,2.567,4.497,4.961,7.043,7.119c2.545-2.157,4.914-4.551,7.042-7.119
		c1.907-2.292,2.767-5.095,2.359-7.691c-0.348-2.213-1.611-4.111-3.557-5.345c-0.111-0.071-0.226-0.14-0.344-0.209v7.606
		c0.59,0.209,1,0.774,1,1.414c0,0.64-0.41,1.205-1,1.414V14c0,1.103-0.897,2-2,2s-2-0.897-2-2c0-0.276,0.224-0.5,0.5-0.5
		s0.5,0.224,0.5,0.5c0,0.552,0.448,1,1,1c0.552,0,1-0.448,1-1v-1.082c-0.59-0.209-1-0.774-1-1.414c0-0.64,0.41-1.205,1-1.414V1.972
		C15.082,1.328,13.578,1.001,12.028,1c-0.008,0.001-0.016,0.001-0.022,0.001C11.998,1.001,11.983,1,11.983,1z M17,12
		c0.011,0,0.023,0.001,0.036,0.003c0.25-0.01,0.464-0.232,0.464-0.499c0-0.276-0.224-0.5-0.5-0.5s-0.5,0.224-0.5,0.5
		c0,0.263,0.209,0.482,0.471,0.498C16.981,12.001,16.991,12,17,12z"/>
	<path d="M11,13c-1.858,0-3.312-1.384-4.004-2.193l-0.715,0.896c-0.191,0.238-0.475,0.375-0.779,0.375
		c-0.268,0-0.519-0.104-0.708-0.292c-0.189-0.189-0.294-0.44-0.294-0.707V8.928c0-0.305,0.137-0.589,0.374-0.779
		c0.179-0.144,0.395-0.22,0.624-0.22c0.037,0,0.073,0.002,0.11,0.006c0.266,0.029,0.504,0.16,0.671,0.368l0.715,0.892
		C7.686,8.385,9.142,7,11,7c2.532,0,4.338,2.608,4.413,2.719c0.116,0.171,0.116,0.392,0,0.562C15.338,10.392,13.532,13,11,13z
		 M7.629,10c0.506,0.621,1.806,2,3.371,2s2.865-1.379,3.371-2C13.865,9.379,12.566,8,11,8S8.135,9.379,7.629,10z M5.5,11.079
		l0.86-1.078L5.5,8.929L5.5,11.079z"/>
	<path d="M12.507,10.495c-0.409,0-0.744-0.331-0.75-0.739c0-0.003,0-0.016,0-0.019c0.004-0.408,0.337-0.74,0.745-0.742
		c0,0,0.003,0,0.003,0c0.201,0,0.388,0.077,0.53,0.217c0.142,0.141,0.221,0.329,0.221,0.529c0,0.001,0,0.003,0,0.004
		C13.257,10.159,12.921,10.495,12.507,10.495z"/>
</g>
</svg>
