<?xml version="1.0" encoding="utf-8"?>
<!-- Generator: Adobe Illustrator 22.1.0, SVG Export Plug-In . SVG Version: 6.00 Build 0)  -->
<svg version="1.1" id="Layer_1" xmlns="http://www.w3.org/2000/svg" xmlns:xlink="http://www.w3.org/1999/xlink" x="0px" y="0px"
	 viewBox="0 0 24 24" style="enable-background:new 0 0 24 24;" xml:space="preserve">
<g>
	<title>style-three-pin-car-wash</title>
	<path d="M11.999,23.926c-0.234,0-0.462-0.083-0.641-0.233c-2.586-2.204-4.997-4.644-7.169-7.252
		c-2.091-2.511-3.03-5.604-2.578-8.485C2.004,5.454,3.428,3.311,5.62,1.922c1.906-1.209,4.106-1.848,6.363-1.848h0.034
		c2.257,0,4.457,0.639,6.363,1.848c2.193,1.39,3.617,3.533,4.01,6.034c0.452,2.881-0.488,5.973-2.578,8.485
		c-2.17,2.607-4.581,5.046-7.166,7.249C12.463,23.842,12.234,23.926,11.999,23.926z M11.983,1.074c-2.067,0-4.082,0.585-5.827,1.692
		C4.21,4,2.946,5.898,2.599,8.11c-0.408,2.596,0.452,5.399,2.358,7.69c2.135,2.564,4.506,4.963,7.046,7.128
		c2.534-2.166,4.904-4.563,7.039-7.127c1.907-2.291,2.767-5.094,2.359-7.69C21.054,5.898,19.79,4,17.844,2.766
		c-1.746-1.107-3.761-1.692-5.828-1.692C12.012,1.074,11.983,1.074,11.983,1.074z"/>
	<path d="M16,17.074c-0.276,0-0.5-0.224-0.5-0.5v-0.5h-7v0.5c0,0.276-0.224,0.5-0.5,0.5s-0.5-0.224-0.5-0.5v-0.586
		c-0.59-0.209-1-0.774-1-1.414V13.81c0-0.127,0.018-0.258,0.054-0.391c0.001-0.003,0.004-0.012,0.004-0.014
		c0.028-0.1,0.061-0.187,0.102-0.267l0.86-1.72l0.349-2.091c0.121-0.725,0.743-1.252,1.479-1.253h5.306
		c0.736,0,1.358,0.527,1.479,1.253l0.349,2.091l0.86,1.722c0.026,0.051,0.049,0.106,0.071,0.171c0.052,0.081,0.08,0.172,0.08,0.264
		c0,0.021-0.002,0.039-0.005,0.055c0.009,0.065,0.013,0.124,0.013,0.181v0.764c0,0.64-0.41,1.205-1,1.414v0.586
		C16.5,16.85,16.276,17.074,16,17.074z M7.5,14.574c0,0.276,0.224,0.5,0.5,0.5h8c0.276,0,0.5-0.224,0.5-0.5v-0.5h-2
		c-0.276,0-0.5-0.224-0.5-0.5s0.224-0.5,0.5-0.5h1.691l-0.5-1H8.309l-0.5,1H9.5c0.276,0,0.5,0.224,0.5,0.5s-0.224,0.5-0.5,0.5h-2
		V14.574z M15.41,11.074l-0.264-1.583c-0.04-0.242-0.248-0.417-0.493-0.417H9.347c-0.245,0-0.453,0.176-0.493,0.418L8.59,11.074
		H15.41z"/>
	<circle cx="8" cy="6.574" r="0.75"/>
	<circle cx="10" cy="4.574" r="0.75"/>
	<path d="M12,7.324c-0.414,0-0.75-0.336-0.75-0.75s0.336-0.75,0.75-0.75c0.414,0,0.75,0.336,0.75,0.75S12.414,7.324,12,7.324z"/>
	<circle cx="14" cy="4.574" r="0.75"/>
	<circle cx="16" cy="6.574" r="0.75"/>
	<path d="M12,3.324c-0.414,0-0.75-0.336-0.75-0.75s0.336-0.75,0.75-0.75c0.414,0,0.75,0.336,0.75,0.75S12.414,3.324,12,3.324z"/>
</g>
</svg>
