<?xml version="1.0" encoding="utf-8"?>
<!-- Generator: Adobe Illustrator 22.1.0, SVG Export Plug-In . SVG Version: 6.00 Build 0)  -->
<svg version="1.1" id="Layer_1" xmlns="http://www.w3.org/2000/svg" xmlns:xlink="http://www.w3.org/1999/xlink" x="0px" y="0px"
	 viewBox="0 0 24 24" style="enable-background:new 0 0 24 24;" xml:space="preserve">
<g>
	<title>style-three-pin-arrow-all-direction</title>
	<path d="M11.999,23.926c-0.234,0-0.462-0.083-0.641-0.233c-2.586-2.204-4.997-4.644-7.169-7.252
		c-2.091-2.511-3.03-5.604-2.578-8.485C2.004,5.454,3.428,3.311,5.62,1.922c1.906-1.209,4.106-1.848,6.363-1.848h0.034
		c2.257,0,4.457,0.639,6.363,1.848c2.193,1.39,3.617,3.533,4.01,6.034c0.452,2.881-0.488,5.973-2.578,8.485
		c-2.17,2.607-4.581,5.046-7.166,7.249C12.463,23.842,12.234,23.926,11.999,23.926z M11.983,1.074c-2.067,0-4.082,0.585-5.827,1.692
		C4.21,4,2.946,5.898,2.599,8.11c-0.408,2.596,0.452,5.399,2.358,7.69c2.135,2.564,4.506,4.963,7.046,7.128
		c2.534-2.166,4.904-4.563,7.039-7.127c1.907-2.291,2.767-5.094,2.359-7.69C21.054,5.898,19.79,4,17.844,2.766
		c-1.746-1.107-3.761-1.692-5.828-1.692C12.012,1.074,11.983,1.074,11.983,1.074z"/>
	<path d="M14,15.073c-0.276,0-0.5-0.224-0.5-0.5s0.224-0.5,0.5-0.5h1.792l-2.146-2.146c-0.094-0.094-0.146-0.22-0.146-0.354
		c0-0.134,0.052-0.259,0.146-0.354s0.22-0.146,0.354-0.146s0.259,0.052,0.354,0.146l2.146,2.146v-1.792c0-0.276,0.224-0.5,0.5-0.5
		s0.5,0.224,0.5,0.5v2.999c0,0.066-0.013,0.13-0.039,0.191c-0.051,0.123-0.147,0.219-0.27,0.27C17.13,15.06,17.066,15.073,17,15.073
		H14z"/>
	<path d="M10,8.074c-0.134,0-0.259-0.052-0.354-0.146L7.5,5.78v1.794c0,0.276-0.224,0.5-0.5,0.5s-0.5-0.224-0.5-0.5V4.573
		c0-0.065,0.013-0.129,0.038-0.191c0.051-0.124,0.147-0.22,0.27-0.271C6.871,4.086,6.935,4.073,7,4.073h3c0.276,0,0.5,0.224,0.5,0.5
		s-0.224,0.5-0.5,0.5H8.207l2.147,2.147C10.448,7.315,10.5,7.44,10.5,7.574c0,0.134-0.052,0.259-0.147,0.354
		C10.259,8.022,10.134,8.074,10,8.074z"/>
	<path d="M7,15.073c-0.066,0-0.13-0.013-0.192-0.039c-0.122-0.05-0.22-0.149-0.27-0.271C6.513,14.702,6.5,14.638,6.5,14.573v-2.999
		c0-0.276,0.224-0.5,0.5-0.5s0.5,0.224,0.5,0.5v1.792l2.146-2.146c0.094-0.094,0.22-0.146,0.354-0.146s0.259,0.052,0.354,0.146
		s0.146,0.22,0.146,0.354c0,0.134-0.052,0.259-0.147,0.354l-2.146,2.146H10c0.276,0,0.5,0.224,0.5,0.5s-0.224,0.5-0.5,0.5H7z"/>
	<path d="M17,8.074c-0.276,0-0.5-0.224-0.5-0.5V5.78l-2.146,2.147C14.259,8.022,14.133,8.074,14,8.074s-0.259-0.052-0.354-0.146
		C13.552,7.833,13.5,7.708,13.5,7.574c0-0.134,0.052-0.259,0.146-0.354l2.147-2.147H14c-0.276,0-0.5-0.224-0.5-0.5
		s0.224-0.5,0.5-0.5h3c0.066,0,0.13,0.013,0.191,0.038c0.121,0.05,0.219,0.148,0.27,0.27C17.487,4.443,17.5,4.507,17.5,4.573v3.001
		C17.5,7.85,17.276,8.074,17,8.074z"/>
</g>
</svg>
