<?xml version="1.0" encoding="utf-8"?>
<!-- Generator: Adobe Illustrator 22.1.0, SVG Export Plug-In . SVG Version: 6.00 Build 0)  -->
<svg version="1.1" id="Layer_1" xmlns="http://www.w3.org/2000/svg" xmlns:xlink="http://www.w3.org/1999/xlink" x="0px" y="0px"
	 viewBox="0 0 24 24" style="enable-background:new 0 0 24 24;" xml:space="preserve">
<g>
	<title>style-three-pin-baseball_1</title>
	<path d="M12,24c-0.117,0-0.231-0.041-0.321-0.116c-2.714-2.266-5.235-4.795-7.491-7.517c-2.09-2.512-3.03-5.605-2.577-8.486
		C2.004,5.38,3.428,3.237,5.62,1.848C7.526,0.639,9.727,0,11.983,0l0.026,0.25V0c2.264,0,4.464,0.639,6.37,1.848
		c2.193,1.39,3.617,3.533,4.01,6.034c0.452,2.881-0.488,5.973-2.578,8.485c-2.256,2.721-4.776,5.25-7.491,7.517
		C12.231,23.959,12.117,24,12,24z M11.983,1C9.916,1,7.901,1.585,6.156,2.692C4.21,3.926,2.947,5.823,2.599,8.036
		c-0.408,2.597,0.452,5.4,2.358,7.691c2.128,2.567,4.497,4.961,7.043,7.119c2.545-2.157,4.914-4.551,7.042-7.119
		c1.907-2.292,2.767-5.095,2.359-7.691c-0.348-2.213-1.611-4.111-3.557-5.345C16.102,1.587,14.091,1.002,12.028,1
		c-0.008,0.001-0.016,0.001-0.022,0.001C11.998,1.001,11.983,1,11.983,1z"/>
	<path d="M7.026,15.319c-0.267,0-0.518-0.104-0.707-0.292l-0.793-0.793c-0.189-0.189-0.293-0.44-0.293-0.707
		c0-0.267,0.104-0.518,0.293-0.707l2.147-2.146l5.983-6.844c0.086-0.112,0.207-0.233,0.338-0.338
		c0.378-0.301,0.852-0.466,1.334-0.466c0.659,0,1.272,0.295,1.681,0.809c0.737,0.926,0.583,2.279-0.343,3.015l-6.809,6.05
		l-2.125,2.126C7.545,15.215,7.294,15.319,7.026,15.319z M6.234,13.527l0.793,0.793l1.793-1.792l-0.793-0.793L6.234,13.527z
		 M9.548,11.841l6.477-5.755c0.51-0.407,0.597-1.133,0.204-1.628c-0.218-0.274-0.546-0.432-0.898-0.432
		c-0.261,0-0.508,0.086-0.712,0.249c-0.071,0.056-0.134,0.121-0.19,0.192l-5.717,6.538L9.548,11.841z"/>
	<path d="M15.5,16c-1.103,0-2-0.897-2-2s0.897-2,2-2s2,0.897,2,2S16.603,16,15.5,16z M15.5,13c-0.552,0-1,0.448-1,1s0.448,1,1,1
		c0.552,0,1-0.448,1-1S16.051,13,15.5,13z"/>
</g>
</svg>
