<?xml version="1.0" encoding="utf-8"?>
<!-- Generator: Adobe Illustrator 22.1.0, SVG Export Plug-In . SVG Version: 6.00 Build 0)  -->
<svg version="1.1" id="Layer_1" xmlns="http://www.w3.org/2000/svg" xmlns:xlink="http://www.w3.org/1999/xlink" x="0px" y="0px"
	 viewBox="0 0 24 24" style="enable-background:new 0 0 24 24;" xml:space="preserve">
<g>
	<title>style-three-pin-walk</title>
	<path d="M12,24c-0.117,0-0.231-0.041-0.321-0.116c-2.714-2.266-5.235-4.795-7.491-7.517c-2.09-2.512-3.03-5.605-2.577-8.486
		C2.004,5.38,3.428,3.237,5.62,1.848C7.526,0.639,9.727,0,11.983,0l0.026,0.25V0c2.264,0,4.464,0.639,6.37,1.848
		c2.193,1.39,3.617,3.533,4.01,6.034c0.452,2.881-0.488,5.973-2.578,8.485c-2.256,2.721-4.776,5.25-7.491,7.517
		C12.231,23.959,12.117,24,12,24z M11.983,1C9.916,1,7.901,1.585,6.156,2.692C4.21,3.926,2.947,5.823,2.599,8.036
		c-0.408,2.597,0.452,5.4,2.358,7.691c2.128,2.567,4.497,4.961,7.043,7.119c2.545-2.157,4.914-4.551,7.042-7.119
		c1.907-2.292,2.767-5.095,2.359-7.691c-0.348-2.213-1.611-4.111-3.557-5.345C16.102,1.587,14.091,1.002,12.028,1
		c-0.008,0.001-0.016,0.001-0.022,0.001C11.998,1.001,11.983,1,11.983,1z"/>
	<path d="M13.5,7.003c-1.103,0-2-0.897-2-2s0.897-2,2-2s2,0.897,2,2S14.603,7.003,13.5,7.003z M13.5,4.003c-0.551,0-1,0.449-1,1
		s0.448,1,1,1c0.552,0,1-0.449,1-1S14.051,4.003,13.5,4.003z"/>
	<path d="M13,17.001c-0.23,0-0.462-0.055-0.67-0.159c-0.359-0.18-0.626-0.488-0.753-0.869l-0.315-0.946l-0.349,0.976
		C10.7,16.6,10.123,17,9.475,17c-0.162,0-0.322-0.027-0.478-0.08c-0.783-0.28-1.192-1.139-0.915-1.918l2.5-7.001
		c0.213-0.596,0.781-0.996,1.414-0.996c0.171,0,0.34,0.029,0.503,0.087c0.377,0.135,0.68,0.408,0.851,0.77
		c0.172,0.362,0.192,0.769,0.057,1.147l-0.515,1.44c0.009,0.021,0.017,0.042,0.025,0.064l1.487,4.461
		c0.008,0.018,0.016,0.036,0.021,0.055c0.125,0.376,0.096,0.783-0.083,1.142c-0.18,0.359-0.488,0.626-0.868,0.753
		C13.321,16.975,13.161,17.001,13,17.001z M11.281,12.995c0.216,0.002,0.404,0.14,0.472,0.342l0.773,2.321
		c0.042,0.127,0.132,0.23,0.251,0.29c0.071,0.035,0.146,0.053,0.224,0.053c0.054,0,0.107-0.009,0.159-0.026
		c0.127-0.042,0.23-0.132,0.29-0.251c0.054-0.109,0.068-0.227,0.039-0.344c-0.005-0.012-0.01-0.025-0.014-0.037l-1.5-4.498
		c-0.008-0.022-0.026-0.057-0.046-0.087c-0.084-0.13-0.103-0.294-0.05-0.439l0.588-1.644c0.045-0.125,0.038-0.261-0.02-0.382
		c-0.057-0.121-0.158-0.212-0.284-0.257c-0.054-0.019-0.111-0.029-0.168-0.029c-0.211,0-0.401,0.133-0.471,0.332l-2.5,7
		c-0.092,0.259,0.044,0.546,0.303,0.638c0.046,0.016,0.094,0.025,0.137,0.025C9.469,16,9.49,16,9.495,16
		c0.214,0,0.405-0.134,0.476-0.332l0.836-2.341c0.071-0.199,0.26-0.332,0.471-0.332H11.281z"/>
</g>
</svg>
