<?xml version="1.0" encoding="utf-8"?>
<!-- Generator: Adobe Illustrator 22.1.0, SVG Export Plug-In . SVG Version: 6.00 Build 0)  -->
<svg version="1.1" id="Layer_1" xmlns="http://www.w3.org/2000/svg" xmlns:xlink="http://www.w3.org/1999/xlink" x="0px" y="0px"
	 viewBox="0 0 24 24" style="enable-background:new 0 0 24 24;" xml:space="preserve">
<g>
	<title>style-three-pin-dentist</title>
	<path d="M11.999,23.926c-0.234,0-0.462-0.083-0.641-0.233c-2.586-2.204-4.997-4.644-7.169-7.252
		c-2.091-2.511-3.03-5.604-2.578-8.485C2.004,5.454,3.428,3.311,5.62,1.922c1.906-1.209,4.106-1.848,6.363-1.848h0.034
		c2.257,0,4.457,0.639,6.363,1.848c2.193,1.39,3.617,3.533,4.01,6.034c0.452,2.881-0.488,5.973-2.578,8.485
		c-2.17,2.607-4.581,5.046-7.166,7.249C12.463,23.842,12.234,23.926,11.999,23.926z M11.983,1.074c-2.067,0-4.082,0.585-5.827,1.692
		C4.21,4,2.946,5.898,2.599,8.11c-0.408,2.596,0.452,5.399,2.358,7.69c2.135,2.564,4.506,4.963,7.046,7.128
		c2.534-2.166,4.904-4.563,7.039-7.127c1.907-2.291,2.767-5.094,2.359-7.69C21.054,5.898,19.79,4,17.844,2.766
		c-1.746-1.107-3.761-1.692-5.828-1.692C12.012,1.074,11.983,1.074,11.983,1.074z"/>
	<path d="M9.131,15.576c-0.414,0-0.779-0.276-0.898-0.67c-0.118-0.501-0.176-0.996-0.175-1.487
		c-0.005-0.781,0.147-1.575,0.441-2.306C7.72,10.273,7.31,9.148,7.369,7.998C7.331,7.081,7.744,6.203,8.476,5.648
		c0.49-0.371,1.074-0.568,1.688-0.568c0.675,0,1.331,0.246,1.836,0.682c0.506-0.437,1.161-0.683,1.834-0.683
		c0.048,0,0.096,0.001,0.145,0.004c0.747,0.039,1.434,0.366,1.935,0.922c0.494,0.548,0.749,1.255,0.717,1.992
		c0.06,1.15-0.35,2.275-1.129,3.116c0.293,0.729,0.445,1.523,0.441,2.306c0,0.481-0.055,0.965-0.164,1.437
		c-0.127,0.435-0.499,0.718-0.928,0.718l-0.041-0.001l-0.018,0.001c-0.434,0-0.823-0.329-0.904-0.764
		c-0.005-0.028-0.008-0.056-0.009-0.084c-0.016-1.073-0.821-1.995-1.878-2.159c-1.054,0.163-1.859,1.082-1.877,2.152
		c0,0.029-0.004,0.058-0.009,0.086c-0.085,0.448-0.478,0.774-0.935,0.774C9.179,15.578,9.131,15.576,9.131,15.576z M10.164,6.081
		c-0.395,0-0.77,0.126-1.085,0.364c-0.476,0.361-0.742,0.932-0.71,1.528c0.001,0.018,0.001,0.036,0,0.054
		C8.312,9.016,8.699,9.964,9.43,10.63c0.164,0.149,0.21,0.384,0.115,0.584c-0.324,0.684-0.493,1.446-0.488,2.202
		c0,0.326,0.028,0.65,0.086,0.969c0.17-1.448,1.326-2.636,2.794-2.819c0.021-0.003,0.042-0.004,0.062-0.004
		c0.021,0,0.042,0.001,0.063,0.004c1.466,0.185,2.621,1.372,2.793,2.818c0.057-0.311,0.086-0.637,0.086-0.967
		c0.004-0.759-0.164-1.521-0.488-2.203c-0.095-0.2-0.049-0.435,0.115-0.584c0.732-0.666,1.119-1.614,1.062-2.601
		c-0.001-0.019-0.001-0.037,0-0.055c0.025-0.48-0.138-0.941-0.46-1.298c-0.322-0.357-0.763-0.568-1.243-0.593
		c-0.032-0.002-0.064-0.002-0.096-0.002c-0.567,0-1.089,0.26-1.433,0.713C12.307,6.914,12.158,6.986,12,6.986
		s-0.307-0.072-0.399-0.193C11.259,6.341,10.735,6.081,10.164,6.081z"/>
</g>
</svg>
