<?xml version="1.0" encoding="utf-8"?>
<!-- Generator: Adobe Illustrator 22.1.0, SVG Export Plug-In . SVG Version: 6.00 Build 0)  -->
<svg version="1.1" id="Layer_1" xmlns="http://www.w3.org/2000/svg" xmlns:xlink="http://www.w3.org/1999/xlink" x="0px" y="0px"
	 viewBox="0 0 24 24" style="enable-background:new 0 0 24 24;" xml:space="preserve">
<g>
	<title>style-three-pin-climbing</title>
	<path d="M12,24c-0.117,0-0.231-0.041-0.321-0.116c-2.714-2.266-5.235-4.795-7.491-7.517c-2.09-2.512-3.03-5.605-2.577-8.486
		C2.004,5.38,3.428,3.237,5.62,1.848C7.526,0.639,9.727,0,11.983,0l0.026,0.25V0c2.264,0,4.464,0.639,6.37,1.848
		c2.193,1.39,3.617,3.533,4.01,6.034c0.452,2.881-0.488,5.973-2.578,8.485c-2.256,2.721-4.776,5.25-7.491,7.517
		C12.231,23.959,12.117,24,12,24z M11.983,1C9.916,1,7.901,1.585,6.156,2.692C4.21,3.926,2.947,5.823,2.599,8.036
		c-0.408,2.597,0.452,5.4,2.358,7.691c2.128,2.567,4.497,4.961,7.043,7.119c2.545-2.157,4.914-4.551,7.042-7.119
		c1.907-2.292,2.767-5.095,2.359-7.691c-0.348-2.213-1.611-4.111-3.557-5.345C16.102,1.587,14.091,1.002,12.028,1
		c-0.008,0.001-0.016,0.001-0.022,0.001C11.998,1.001,11.983,1,11.983,1z"/>
	<path d="M11,20c-0.134,0-0.259-0.052-0.354-0.146S10.5,19.634,10.5,19.5s0.052-0.259,0.146-0.354l2.854-2.853l0-2.607
		c0-0.238,0.085-0.469,0.24-0.65l2.761-3.221L16.5,6.708c0-0.266,0.104-0.517,0.292-0.706l1.355-1.356
		C18.241,4.552,18.366,4.5,18.5,4.5c0.133,0,0.259,0.052,0.353,0.146C18.948,4.741,19,4.866,19,5c0,0.134-0.052,0.259-0.146,0.354
		l-1.354,1.355l0,3.108c0,0.238-0.085,0.469-0.24,0.65l-2.761,3.221l0,2.608c0,0.266-0.104,0.517-0.292,0.706l-2.854,2.854
		C11.259,19.948,11.134,20,11,20z"/>
	<path d="M11,7.001c-1.379,0-2.5-1.121-2.5-2.5s1.121-2.5,2.5-2.5s2.5,1.121,2.5,2.5S12.379,7.001,11,7.001z M11,3.001
		c-0.827,0-1.5,0.673-1.5,1.5s0.673,1.5,1.5,1.5c0.827,0,1.5-0.673,1.5-1.5S11.827,3.001,11,3.001z"/>
	<path d="M11,17c-0.401,0-0.777-0.156-1.061-0.439l-2-2c-0.37-0.37-0.521-0.916-0.395-1.424l1-4C8.68,8.598,9.098,8.179,9.637,8.045
		l4-1c0.122-0.034,0.254-0.051,0.386-0.051c0.673,0,1.268,0.454,1.446,1.104c0.219,0.798-0.252,1.625-1.05,1.843
		c-0.025,0.007-0.047,0.012-0.069,0.017l-2.917,0.929l-0.401,2.006l1.066,1.584c0.546,0.585,0.531,1.515-0.037,2.083
		C11.777,16.844,11.4,17,11,17z M14.022,7.994c-0.044,0-0.089,0.006-0.132,0.018L9.879,9.015C9.7,9.06,9.56,9.199,9.515,9.379l-1,4
		c-0.042,0.169,0.008,0.351,0.131,0.474l2,2c0.088,0.087,0.216,0.138,0.353,0.138s0.266-0.05,0.354-0.138
		c0.195-0.195,0.195-0.512,0-0.707c-0.023-0.023-0.043-0.047-0.06-0.073l-1.208-1.795c-0.075-0.112-0.102-0.246-0.075-0.377l0.5-2.5
		c0.036-0.178,0.165-0.323,0.339-0.378l3.298-1.044c0.275-0.076,0.431-0.351,0.358-0.617C14.445,8.146,14.247,7.994,14.022,7.994z"
		/>
</g>
</svg>
