<?xml version="1.0" encoding="utf-8"?>
<!-- Generator: Adobe Illustrator 22.1.0, SVG Export Plug-In . SVG Version: 6.00 Build 0)  -->
<svg version="1.1" id="Layer_1" xmlns="http://www.w3.org/2000/svg" xmlns:xlink="http://www.w3.org/1999/xlink" x="0px" y="0px"
	 viewBox="0 0 24 24" style="enable-background:new 0 0 24 24;" xml:space="preserve">
<g>
	<title>style-three-pin-home</title>
	<path d="M8.5,16c-0.551,0-1-0.448-1-1v-4.293l-0.646,0.646C6.759,11.448,6.634,11.5,6.5,11.5s-0.259-0.052-0.354-0.146
		S6,11.134,6,11s0.052-0.259,0.146-0.354L11.294,5.5C11.482,5.311,11.733,5.208,12,5.208c0.267,0,0.518,0.103,0.706,0.291
		l5.147,5.147C17.948,10.741,18,10.866,18,11s-0.052,0.259-0.146,0.354S17.634,11.5,17.5,11.5s-0.259-0.052-0.354-0.146L16.5,10.707
		V15c0,0.552-0.448,1-1,1H8.5z M15.5,15V9.707l-3.5-3.5L8.5,9.707V15h2v-2.5c0-0.827,0.673-1.5,1.5-1.5c0.827,0,1.5,0.673,1.5,1.5
		L15.5,15z M12.5,15v-2.5c0-0.276-0.224-0.5-0.5-0.5c-0.276,0-0.5,0.224-0.5,0.5L12.5,15z"/>
	<path d="M12,9.75c-0.414,0-0.75-0.336-0.75-0.75S11.587,8.25,12,8.25c0.414,0,0.75,0.336,0.75,0.75S12.414,9.75,12,9.75z"/>
	<path d="M12,24c-0.117,0-0.231-0.041-0.321-0.116c-2.714-2.266-5.235-4.795-7.491-7.517c-2.09-2.512-3.03-5.605-2.577-8.486
		C2.004,5.38,3.428,3.237,5.62,1.848C7.526,0.639,9.727,0,11.983,0l0.026,0.25V0c2.264,0,4.464,0.639,6.37,1.848
		c2.193,1.39,3.617,3.533,4.01,6.034c0.452,2.881-0.488,5.973-2.578,8.485c-2.256,2.721-4.776,5.25-7.491,7.517
		C12.231,23.959,12.117,24,12,24z M11.983,1C9.916,1,7.901,1.585,6.156,2.692C4.21,3.926,2.947,5.823,2.599,8.036
		c-0.408,2.597,0.452,5.4,2.358,7.691c2.128,2.567,4.497,4.961,7.043,7.119c2.545-2.157,4.914-4.551,7.042-7.119
		c1.907-2.292,2.767-5.095,2.359-7.691c-0.348-2.213-1.611-4.111-3.557-5.345C16.102,1.587,14.091,1.002,12.028,1
		c-0.008,0.001-0.016,0.001-0.022,0.001C11.998,1.001,11.983,1,11.983,1z"/>
</g>
</svg>
