<?xml version="1.0" encoding="utf-8"?>
<!-- Generator: Adobe Illustrator 22.1.0, SVG Export Plug-In . SVG Version: 6.00 Build 0)  -->
<svg version="1.1" id="Layer_1" xmlns="http://www.w3.org/2000/svg" xmlns:xlink="http://www.w3.org/1999/xlink" x="0px" y="0px"
	 viewBox="0 0 24 24" style="enable-background:new 0 0 24 24;" xml:space="preserve">
<g>
	<title>style-three-pin-skating</title>
	<path d="M12,24c-0.117,0-0.231-0.041-0.321-0.116c-2.714-2.266-5.235-4.795-7.491-7.517c-2.09-2.512-3.03-5.605-2.577-8.486
		C2.004,5.38,3.428,3.237,5.62,1.848C7.526,0.639,9.727,0,11.983,0l0.026,0.25V0c2.264,0,4.464,0.639,6.37,1.848
		c2.193,1.39,3.617,3.533,4.01,6.034c0.452,2.881-0.488,5.973-2.578,8.485c-2.256,2.721-4.776,5.25-7.491,7.517
		C12.231,23.959,12.117,24,12,24z M11.983,1C9.916,1,7.901,1.585,6.156,2.692C4.21,3.926,2.947,5.823,2.599,8.036
		c-0.408,2.597,0.452,5.4,2.358,7.691c2.128,2.567,4.497,4.961,7.043,7.119c2.545-2.157,4.914-4.551,7.042-7.119
		c1.907-2.292,2.767-5.095,2.359-7.691c-0.348-2.213-1.611-4.111-3.557-5.345C16.102,1.587,14.091,1.002,12.028,1
		c-0.008,0.001-0.016,0.001-0.022,0.001C11.998,1.001,11.983,1,11.983,1z"/>
	<path d="M15.5,16c-1.103,0-2-0.897-2-2c0-0.357,0.093-0.699,0.268-1h-0.536c0.175,0.301,0.268,0.643,0.268,1c0,1.103-0.897,2-2,2
		c-1.103,0-2-0.897-2-2c0-0.357,0.093-0.699,0.268-1H9.232C9.407,13.3,9.5,13.642,9.5,14c0,1.103-0.897,2-2,2s-2-0.897-2-2
		c0-0.945,0.66-1.74,1.542-1.947C6.693,11.615,6.5,11.072,6.5,10.5V5.85c0-0.414,0.26-0.79,0.648-0.936l3.001-1.125
		c0.112-0.042,0.229-0.063,0.349-0.063c0.552,0,1.001,0.448,1.002,0.999V6.5C11.5,7.327,12.173,8,13,8c1.93,0,3.5,1.57,3.5,3.5
		c0,0.237-0.059,0.471-0.169,0.683C17.033,12.503,17.5,13.209,17.5,14C17.5,15.103,16.603,16,15.5,16z M15.5,13
		c-0.552,0-1,0.448-1,1s0.448,1,1,1c0.552,0,1-0.448,1-1S16.051,13,15.5,13z M11.5,13c-0.551,0-1,0.448-1,1s0.449,1,1,1s1-0.448,1-1
		S12.051,13,11.5,13z M7.5,13c-0.551,0-1,0.448-1,1s0.449,1,1,1s1-0.448,1-1S8.051,13,7.5,13z M7.5,5.85l0,4.65
		C7.5,11.327,8.173,12,9,12h6c0.276,0,0.5-0.224,0.5-0.5c0-1.379-1.122-2.5-2.5-2.5c-0.789,0-1.526-0.371-1.998-1H9
		C8.724,8,8.5,7.776,8.5,7.5S8.724,7,9,7h1.552C10.518,6.835,10.5,6.667,10.5,6.5V4.725L7.5,5.85z"/>
</g>
</svg>
