<?xml version="1.0" encoding="utf-8"?>
<!-- Generator: Adobe Illustrator 22.1.0, SVG Export Plug-In . SVG Version: 6.00 Build 0)  -->
<svg version="1.1" id="Layer_1" xmlns="http://www.w3.org/2000/svg" xmlns:xlink="http://www.w3.org/1999/xlink" x="0px" y="0px"
	 viewBox="0 0 24 24" style="enable-background:new 0 0 24 24;" xml:space="preserve">
<g>
	<title>style-three-pin-key-lock</title>
	<path d="M11.999,23.926c-0.234,0-0.462-0.083-0.641-0.233c-2.586-2.204-4.997-4.644-7.169-7.252
		c-2.091-2.511-3.03-5.604-2.578-8.485C2.004,5.454,3.428,3.311,5.62,1.922c1.906-1.209,4.106-1.848,6.363-1.848h0.034
		c2.257,0,4.457,0.639,6.363,1.848c2.193,1.39,3.617,3.533,4.01,6.034c0.452,2.881-0.488,5.973-2.578,8.485
		c-2.17,2.607-4.581,5.046-7.166,7.249C12.463,23.842,12.234,23.926,11.999,23.926z M11.983,1.074c-2.067,0-4.082,0.585-5.827,1.692
		C4.21,4,2.946,5.898,2.599,8.11c-0.408,2.596,0.452,5.399,2.358,7.69c2.135,2.564,4.506,4.963,7.046,7.128
		c2.534-2.166,4.904-4.563,7.039-7.127c1.907-2.291,2.767-5.094,2.359-7.69C21.054,5.898,19.79,4,17.844,2.766
		c-1.746-1.107-3.761-1.692-5.828-1.692C12.012,1.074,11.983,1.074,11.983,1.074z"/>
	<path d="M12.5,14.074c-0.551,0-1-0.448-1-1v-4c0-0.551,0.448-1,1-1v-0.5c0-1.379,1.122-2.5,2.5-2.5s2.5,1.121,2.5,2.5v0.5
		c0.552,0,1,0.449,1,1v4c0,0.552-0.448,1-1,1H12.5z M12.5,13.074h5v-4h-5L12.5,13.074z M16.5,8.074v-0.5c0-0.827-0.673-1.5-1.5-1.5
		s-1.5,0.673-1.5,1.5v0.5H16.5z"/>
	<circle cx="15" cy="11.074" r="0.75"/>
	<path d="M8.5,14.074c-1.103,0-2-0.897-2-2c0-1.103,0.897-2,2-2v-1H8c-0.276,0-0.5-0.224-0.5-0.5s0.224-0.5,0.5-0.5h0.5v-1H8
		c-0.276,0-0.5-0.224-0.5-0.5s0.224-0.5,0.5-0.5h1c0.276,0,0.5,0.224,0.5,0.5v3.771c0.612,0.355,1,1.018,1,1.729
		C10.5,13.177,9.603,14.074,8.5,14.074z M8.5,11.074c-0.551,0-1,0.449-1,1s0.449,1,1,1s1-0.449,1-1S9.051,11.074,8.5,11.074z"/>
</g>
</svg>
