<?xml version="1.0" encoding="utf-8"?>
<!-- Generator: Adobe Illustrator 22.1.0, SVG Export Plug-In . SVG Version: 6.00 Build 0)  -->
<svg version="1.1" id="Layer_1" xmlns="http://www.w3.org/2000/svg" xmlns:xlink="http://www.w3.org/1999/xlink" x="0px" y="0px"
	 viewBox="0 0 24 24" style="enable-background:new 0 0 24 24;" xml:space="preserve">
<g>
	<title>style-three-pin-kayak-1</title>
	<path d="M12,24c-0.117,0-0.231-0.041-0.321-0.116c-2.714-2.266-5.235-4.795-7.491-7.517c-2.09-2.512-3.03-5.605-2.577-8.486
		C2.004,5.38,3.428,3.237,5.62,1.848C7.526,0.639,9.727,0,11.983,0l0.026,0.25V0c2.264,0,4.464,0.639,6.37,1.848
		c2.193,1.39,3.617,3.533,4.01,6.034c0.452,2.881-0.488,5.973-2.578,8.485c-2.256,2.721-4.776,5.25-7.491,7.517
		C12.231,23.959,12.117,24,12,24z M11.983,1C9.916,1,7.901,1.585,6.156,2.692C4.21,3.926,2.947,5.823,2.599,8.036
		c-0.408,2.597,0.452,5.4,2.358,7.691c2.128,2.567,4.497,4.961,7.043,7.119c2.545-2.157,4.914-4.551,7.042-7.119
		c1.907-2.292,2.767-5.095,2.359-7.691c-0.348-2.213-1.611-4.111-3.557-5.345C16.102,1.587,14.091,1.002,12.028,1
		c-0.008,0.001-0.016,0.001-0.022,0.001C11.998,1.001,11.983,1,11.983,1z"/>
	<path d="M12,15.006c-1.103,0-2-1.122-2-2.5c0-1.379,0.897-2.5,2-2.5c1.103,0,2,1.122,2,2.5C14,13.885,13.103,15.006,12,15.006z
		 M12,11.006c-0.542,0-1,0.687-1,1.5c0,0.813,0.458,1.5,1,1.5c0.542,0,1-0.687,1-1.5C13,11.693,12.542,11.006,12,11.006z"/>
	<path d="M12,19.506c-0.997,0-4-3.029-4-7.5c0-0.957,0.135-1.965,0.402-3H7.5c0,0.551-0.449,1-1,1h-2c-0.551,0-1-0.449-1-1v-1
		c0-0.551,0.449-1,1-1h2c0.551,0,1,0.449,1,1h1.199c0.855-2.55,2.464-5,3.301-5s2.446,2.45,3.301,5H16.5c0-0.551,0.448-1,1-1h2
		c0.552,0,1,0.449,1,1v1c0,0.551-0.448,1-1,1h-2c-0.552,0-1-0.449-1-1h-0.902c0.267,1.035,0.402,2.043,0.402,3
		C16,16.477,12.997,19.506,12,19.506z M9.431,9.006C9.145,10.039,9,11.047,9,12.006c0,4.047,2.571,6.241,3.009,6.485
		c0.408-0.231,2.99-2.449,2.99-6.485c0-0.959-0.145-1.967-0.431-3H9.431z M17.5,9.006h2v-1h-2L17.5,9.006z M4.5,9.006h2v-1h-2
		L4.5,9.006z M14.25,8.006C13.502,5.937,12.409,4.423,12,4.064c-0.409,0.36-1.502,1.873-2.25,3.942H14.25z"/>
</g>
</svg>
