<?xml version="1.0" encoding="utf-8"?>
<!-- Generator: Adobe Illustrator 22.1.0, SVG Export Plug-In . SVG Version: 6.00 Build 0)  -->
<svg version="1.1" id="Layer_1" xmlns="http://www.w3.org/2000/svg" xmlns:xlink="http://www.w3.org/1999/xlink" x="0px" y="0px"
	 viewBox="0 0 24 24" style="enable-background:new 0 0 24 24;" xml:space="preserve">
<g>
	<title>style-three-pin-snowboard</title>
	<path d="M12,24c-0.117,0-0.231-0.041-0.321-0.116c-2.714-2.266-5.235-4.795-7.491-7.517c-2.09-2.512-3.03-5.605-2.577-8.486
		C2.004,5.38,3.428,3.237,5.62,1.848C7.526,0.639,9.727,0,11.983,0l0.026,0.25V0c2.264,0,4.464,0.639,6.37,1.848
		c2.193,1.39,3.617,3.533,4.01,6.034c0.452,2.881-0.488,5.973-2.578,8.485c-2.256,2.721-4.776,5.25-7.491,7.517
		C12.231,23.959,12.117,24,12,24z M11.983,1C9.916,1,7.901,1.585,6.156,2.692C4.21,3.926,2.947,5.823,2.599,8.036
		c-0.408,2.597,0.452,5.4,2.358,7.691c2.128,2.567,4.497,4.961,7.043,7.119c2.545-2.157,4.914-4.551,7.042-7.119
		c1.907-2.292,2.767-5.095,2.359-7.691c-0.348-2.213-1.611-4.111-3.557-5.345C16.102,1.587,14.091,1.002,12.028,1
		c-0.008,0.001-0.016,0.001-0.022,0.001C11.998,1.001,11.983,1,11.983,1z"/>
	<path d="M13.5,7c-1.103,0-2-0.897-2-2s0.897-2,2-2s2,0.897,2,2S14.603,7,13.5,7z M13.5,4c-0.551,0-1,0.449-1,1s0.448,1,1,1
		c0.552,0,1-0.449,1-1S14.051,4,13.5,4z"/>
	<path d="M14,18.283c-0.576,0-1.142-0.107-1.682-0.317l-7.042-3.519c-0.12-0.06-0.208-0.162-0.251-0.289s-0.033-0.262,0.027-0.382
		C5.138,13.606,5.31,13.5,5.5,13.5c0.077,0,0.154,0.018,0.223,0.052l7,3.5c0.39,0.151,0.824,0.232,1.269,0.232
		c0.454,0,0.9-0.084,1.325-0.25C15.376,17.011,15.437,17,15.5,17c0.204,0,0.392,0.128,0.466,0.319
		c0.049,0.124,0.046,0.26-0.008,0.383c-0.053,0.122-0.152,0.216-0.276,0.265C15.142,18.177,14.576,18.283,14,18.283z"/>
	<path d="M13.011,16.019c-0.518,0-0.992-0.26-1.268-0.696c-0.352-0.529-0.64-1.099-0.858-1.697l-0.138,0.207
		c-0.279,0.418-0.746,0.667-1.25,0.667c-0.296,0-0.583-0.087-0.83-0.252c-0.688-0.459-0.874-1.393-0.416-2.08l1.704-2.555
		L7.996,8.912C7.979,8.907,7.94,8.893,7.901,8.878C7.53,8.728,7.239,8.442,7.082,8.073C6.925,7.704,6.921,7.297,7.071,6.926
		c0.23-0.57,0.777-0.939,1.393-0.939c0.19,0,0.376,0.036,0.553,0.106l6.987,2.495c0.593,0.213,0.992,0.779,0.994,1.408
		c0.002,0.827-0.67,1.502-1.497,1.504c0,0-0.001,0-0.001,0c-0.179,0-0.344-0.028-0.497-0.08l-1.58-0.564
		c-0.034,0.997,0.254,1.986,0.824,2.815l0.027,0.041c0.445,0.7,0.238,1.629-0.46,2.073C13.573,15.938,13.296,16.019,13.011,16.019z
		 M11.065,11.955c0.031,0,0.062,0.003,0.093,0.009c0.198,0.037,0.353,0.188,0.396,0.385c0.189,0.87,0.535,1.688,1.028,2.429
		c0.077,0.122,0.187,0.199,0.319,0.229c0.036,0.008,0.073,0.012,0.11,0.012c0.094,0,0.187-0.027,0.268-0.078
		c0.232-0.148,0.301-0.458,0.154-0.69l-0.013-0.019c-0.833-1.211-1.163-2.683-0.923-4.141c0.024-0.147,0.111-0.274,0.24-0.35
		c0.077-0.045,0.164-0.069,0.254-0.069c0.057,0,0.114,0.01,0.168,0.029l2.175,0.776c0.045,0.016,0.099,0.024,0.157,0.024
		c0.141,0,0.267-0.053,0.362-0.148c0.094-0.095,0.146-0.22,0.146-0.353c-0.001-0.21-0.134-0.398-0.331-0.469l-6.999-2.5
		C8.589,6.999,8.526,6.986,8.463,6.986c-0.205,0-0.388,0.123-0.464,0.313c-0.05,0.124-0.048,0.26,0.004,0.383
		C8.054,7.805,8.151,7.9,8.275,7.95c0.012,0.005,2.619,0.936,2.619,0.936c0.146,0.052,0.258,0.166,0.306,0.313
		c0.049,0.147,0.027,0.306-0.059,0.435l-2.059,3.088c-0.074,0.111-0.1,0.244-0.074,0.375c0.026,0.131,0.102,0.244,0.213,0.318
		C9.304,13.471,9.399,13.5,9.498,13.5c0.168,0,0.324-0.083,0.417-0.223l0.734-1.1C10.742,12.038,10.897,11.955,11.065,11.955z"/>
</g>
</svg>
