<?xml version="1.0" encoding="utf-8"?>
<!-- Generator: Adobe Illustrator 22.1.0, SVG Export Plug-In . SVG Version: 6.00 Build 0)  -->
<svg version="1.1" id="Layer_1" xmlns="http://www.w3.org/2000/svg" xmlns:xlink="http://www.w3.org/1999/xlink" x="0px" y="0px"
	 viewBox="0 0 24 24" style="enable-background:new 0 0 24 24;" xml:space="preserve">
<g>
	<title>style-three-pin-islam</title>
	<path d="M11.999,23.926c-0.234,0-0.462-0.083-0.641-0.233c-2.586-2.204-4.997-4.644-7.169-7.252
		c-2.091-2.511-3.03-5.604-2.578-8.485C2.004,5.454,3.428,3.311,5.62,1.922c1.906-1.209,4.106-1.848,6.363-1.848h0.034
		c2.257,0,4.457,0.639,6.363,1.848c2.193,1.39,3.617,3.533,4.01,6.034c0.452,2.881-0.488,5.973-2.578,8.485
		c-2.17,2.607-4.581,5.046-7.166,7.249C12.463,23.842,12.234,23.926,11.999,23.926z M11.983,1.074c-2.067,0-4.082,0.585-5.827,1.692
		C4.21,4,2.946,5.898,2.599,8.11c-0.408,2.596,0.452,5.399,2.358,7.69c2.135,2.564,4.506,4.963,7.046,7.128
		c2.534-2.166,4.904-4.563,7.039-7.127c1.907-2.291,2.767-5.094,2.359-7.69C21.054,5.898,19.79,4,17.844,2.766
		c-1.746-1.107-3.761-1.692-5.828-1.692C12.012,1.074,11.983,1.074,11.983,1.074z"/>
	<path d="M17.457,12.253c-0.081,0-0.161-0.02-0.232-0.057l-1.457-0.766l-1.456,0.766c-0.072,0.037-0.152,0.057-0.233,0.057
		c-0.107,0-0.208-0.033-0.294-0.096c-0.155-0.113-0.231-0.3-0.199-0.489l0.279-1.621L12.687,8.9
		c-0.137-0.134-0.186-0.33-0.126-0.512c0.059-0.182,0.213-0.313,0.403-0.341l1.628-0.237l0.728-1.475
		c0.081-0.165,0.253-0.267,0.448-0.267s0.367,0.103,0.448,0.268l0.728,1.475l1.628,0.237c0.19,0.028,0.344,0.158,0.403,0.341
		c0.059,0.182,0.01,0.378-0.126,0.512l-1.178,1.148l0.279,1.621c0.032,0.189-0.044,0.376-0.198,0.489
		C17.665,12.22,17.563,12.253,17.457,12.253z M14.751,9.515c0.118,0.115,0.171,0.281,0.144,0.443l-0.151,0.881l0.792-0.416
		c0.072-0.038,0.152-0.057,0.233-0.057s0.161,0.02,0.232,0.057l0.792,0.417l-0.151-0.881c-0.028-0.162,0.026-0.328,0.143-0.443
		l0.641-0.624L16.54,8.762c-0.163-0.024-0.303-0.126-0.376-0.274l-0.396-0.802l-0.396,0.802c-0.073,0.147-0.213,0.25-0.376,0.274
		L14.11,8.891L14.751,9.515z"/>
	<path d="M11.505,16.075c-0.398,0-0.799-0.041-1.194-0.12c-1.571-0.319-2.923-1.23-3.808-2.567S5.306,10.451,5.625,8.88
		c0.566-2.785,3.038-4.807,5.878-4.807c0.399,0,0.802,0.041,1.196,0.121c0.3,0.061,0.551,0.252,0.69,0.524
		c0.251,0.491,0.057,1.095-0.434,1.346c-1.515,0.773-2.456,2.309-2.455,4.01c-0.001,1.701,0.94,3.237,2.454,4.01
		c0.273,0.14,0.464,0.391,0.525,0.69c0.053,0.261,0.002,0.529-0.146,0.751c-0.147,0.223-0.373,0.375-0.634,0.428
		C12.304,16.034,11.903,16.075,11.505,16.075z M11.503,5.073c-2.367,0-4.427,1.685-4.898,4.006c-0.265,1.307-0.005,2.64,0.734,3.755
		c0.739,1.115,1.865,1.875,3.171,2.14c0.329,0.067,0.663,0.101,0.995,0.101s0.666-0.034,0.995-0.101c-1.851-0.944-3-2.822-2.999-4.9
		c-0.001-2.078,1.149-3.956,3-4.9C12.171,5.107,11.836,5.073,11.503,5.073z"/>
</g>
</svg>
