<?xml version="1.0" encoding="utf-8"?>
<!-- Generator: Adobe Illustrator 22.1.0, SVG Export Plug-In . SVG Version: 6.00 Build 0)  -->
<svg version="1.1" id="Layer_1" xmlns="http://www.w3.org/2000/svg" xmlns:xlink="http://www.w3.org/1999/xlink" x="0px" y="0px"
	 viewBox="0 0 24 24" style="enable-background:new 0 0 24 24;" xml:space="preserve">
<g>
	<title>style-three-pin-metro</title>
	<path d="M11.999,23.926c-0.234,0-0.462-0.083-0.641-0.233c-1.889-1.61-3.703-3.365-5.391-5.215
		c-0.003-0.003-0.005-0.006-0.008-0.009c-0.622-0.682-1.215-1.362-1.77-2.028c-2.091-2.511-3.03-5.604-2.578-8.485
		C2.004,5.454,3.428,3.311,5.62,1.922c1.906-1.209,4.106-1.848,6.363-1.848h0.034c2.257,0,4.457,0.639,6.363,1.848
		c2.193,1.39,3.617,3.533,4.01,6.034c0.452,2.881-0.488,5.973-2.578,8.485c-2.17,2.607-4.581,5.046-7.166,7.249
		C12.463,23.842,12.234,23.926,11.999,23.926z M7.029,18.152c1.572,1.695,3.245,3.301,4.975,4.776
		c1.725-1.476,3.397-3.081,4.968-4.776l-3.175-3.08h-3.593L7.029,18.152z M17.647,17.415c0.486-0.542,0.955-1.083,1.396-1.614
		c1.907-2.291,2.767-5.094,2.359-7.69C21.054,5.898,19.79,4,17.844,2.766c-1.746-1.107-3.761-1.692-5.828-1.692
		c-0.005,0-0.017,0-0.017,0c-2.083,0-4.098,0.585-5.844,1.692C4.21,4,2.946,5.898,2.599,8.11c-0.408,2.596,0.452,5.399,2.358,7.69
		c0.442,0.531,0.911,1.073,1.396,1.614l2.735-2.653C8.723,14.482,8.5,14.044,8.5,13.573V8.574c0-0.827,0.673-1.5,1.5-1.5h4
		c0.827,0,1.5,0.673,1.5,1.5v4.999c0,0.471-0.223,0.908-0.588,1.189L17.647,17.415z M9.5,13.573c0,0.276,0.224,0.5,0.5,0.5h4
		c0.276,0,0.5-0.224,0.5-0.5v-2.499h-5V13.573z M14.5,10.074v-1.5c0-0.276-0.224-0.5-0.5-0.5h-4c-0.276,0-0.5,0.224-0.5,0.5v1.5
		H14.5z"/>
	<path d="M10.5,13.324c-0.408,0-0.742-0.329-0.75-0.735c0-0.005,0-0.024,0-0.028c0.003-0.195,0.08-0.377,0.217-0.516
		c0.141-0.142,0.329-0.221,0.529-0.221c0,0,0.002,0,0.002,0c0.198,0,0.391,0.079,0.53,0.217c0.142,0.14,0.221,0.328,0.222,0.528
		c0,0.001,0,0.004,0,0.005C11.25,12.988,10.914,13.324,10.5,13.324z"/>
	<path d="M13.5,13.324c-0.408,0-0.742-0.329-0.75-0.735c0-0.004,0-0.022,0-0.026c0.006-0.407,0.338-0.737,0.746-0.738
		c0,0,0.002,0,0.003,0c0.201,0,0.388,0.077,0.53,0.217c0.142,0.141,0.221,0.329,0.222,0.529c0,0.001,0,0.004,0,0.004
		C14.25,12.988,13.913,13.324,13.5,13.324z"/>
	<path d="M18,14.074c-0.276,0-0.5-0.224-0.5-0.5v-3c0-3.033-2.467-5.5-5.5-5.5c-3.033,0-5.5,2.467-5.5,5.5v3
		c0,0.276-0.224,0.5-0.5,0.5s-0.5-0.224-0.5-0.5v-3c0-3.584,2.916-6.5,6.5-6.5s6.5,2.916,6.5,6.5v3
		C18.5,13.85,18.276,14.074,18,14.074z"/>
</g>
</svg>
