<?xml version="1.0" encoding="utf-8"?>
<!-- Generator: Adobe Illustrator 22.1.0, SVG Export Plug-In . SVG Version: 6.00 Build 0)  -->
<svg version="1.1" id="Layer_1" xmlns="http://www.w3.org/2000/svg" xmlns:xlink="http://www.w3.org/1999/xlink" x="0px" y="0px"
	 viewBox="0 0 24 24" style="enable-background:new 0 0 24 24;" xml:space="preserve">
<g>
	<title>style-three-pin-camera</title>
	<path d="M11.999,23.927c-0.234,0-0.462-0.083-0.641-0.233c-2.586-2.204-4.998-4.644-7.169-7.251
		c-2.091-2.513-3.031-5.607-2.578-8.488c0.393-2.5,1.817-4.643,4.009-6.033c1.906-1.209,4.106-1.848,6.363-1.848h0.034
		c2.257,0,4.457,0.639,6.363,1.848c2.193,1.39,3.617,3.533,4.01,6.034c0.452,2.881-0.488,5.973-2.578,8.485
		c-2.171,2.608-4.582,5.047-7.166,7.25C12.463,23.843,12.234,23.927,11.999,23.927z M11.983,1.074c-2.067,0-4.082,0.585-5.827,1.692
		C4.21,4,2.947,5.897,2.599,8.11c-0.408,2.597,0.451,5.401,2.358,7.693c2.136,2.565,4.506,4.963,7.046,7.127
		c2.534-2.166,4.904-4.564,7.039-7.128c1.907-2.291,2.767-5.094,2.359-7.69C21.054,5.898,19.79,4,17.844,2.766
		c-1.746-1.107-3.761-1.692-5.828-1.692c-0.002,0-0.023,0-0.026,0C11.988,1.074,11.985,1.074,11.983,1.074z"/>
	<path d="M8,15.075c-0.827,0-1.5-0.673-1.5-1.5v-3c0-0.366,0.134-0.715,0.37-0.985C6.017,9.04,5.5,8.105,5.5,7.075
		c0-1.654,1.346-3,3-3s3,1.346,3,3c0,0.744-0.279,1.455-0.768,2h1.27c-0.323-0.428-0.501-0.952-0.501-1.5c0-1.379,1.121-2.5,2.5-2.5
		s2.5,1.121,2.5,2.5c0,0.907-0.484,1.726-1.257,2.168c0.13,0.193,0.214,0.413,0.244,0.643l1.696-0.566
		c0.103-0.034,0.209-0.052,0.317-0.052c0.156,0,0.306,0.036,0.447,0.106c0.239,0.12,0.417,0.325,0.502,0.578
		c0.034,0.101,0.051,0.208,0.051,0.316v2.613c0,0.267-0.104,0.518-0.293,0.707c-0.189,0.188-0.44,0.292-0.706,0.292
		c-0.112-0.001-0.212-0.017-0.315-0.051l-1.697-0.565c-0.094,0.738-0.725,1.31-1.488,1.31H8z M8,10.075c-0.276,0-0.5,0.224-0.5,0.5
		v3c0,0.276,0.224,0.5,0.5,0.5h6c0.276,0,0.5-0.224,0.5-0.5v-3c0-0.276-0.224-0.5-0.5-0.5H8z M17.5,13.38l0-2.612
		c0,0-2,0.667-2,0.667v1.279L17.5,13.38z M14,6.075c-0.827,0-1.5,0.673-1.5,1.5s0.673,1.5,1.5,1.5s1.5-0.673,1.5-1.5
		S14.827,6.075,14,6.075z M8.5,5.075c-1.103,0-2,0.897-2,2s0.897,2,2,2s2-0.897,2-2S9.603,5.075,8.5,5.075z"/>
	<path d="M9,12.075c-0.276,0-0.5-0.224-0.5-0.5s0.224-0.5,0.5-0.5h2c0.276,0,0.5,0.224,0.5,0.5s-0.224,0.5-0.5,0.5H9z"/>
</g>
</svg>
