<?xml version="1.0" encoding="utf-8"?>
<!-- Generator: Adobe Illustrator 22.1.0, SVG Export Plug-In . SVG Version: 6.00 Build 0)  -->
<svg version="1.1" id="Layer_1" xmlns="http://www.w3.org/2000/svg" xmlns:xlink="http://www.w3.org/1999/xlink" x="0px" y="0px"
	 viewBox="0 0 24 24" style="enable-background:new 0 0 24 24;" xml:space="preserve">
<g>
	<title>style-three-pin-question</title>
	<path d="M12,24c-0.117,0-0.231-0.041-0.321-0.116c-2.714-2.266-5.235-4.795-7.491-7.517c-2.09-2.512-3.03-5.605-2.577-8.486
		C2.004,5.38,3.428,3.237,5.62,1.848C7.526,0.639,9.727,0,11.983,0l0.026,0.25V0c2.264,0,4.464,0.639,6.37,1.848
		c2.193,1.39,3.617,3.533,4.01,6.034c0.452,2.881-0.488,5.973-2.578,8.485c-2.256,2.721-4.776,5.25-7.491,7.517
		C12.231,23.959,12.117,24,12,24z M11.983,1C9.916,1,7.901,1.585,6.156,2.692C4.21,3.926,2.947,5.823,2.599,8.036
		c-0.408,2.597,0.452,5.4,2.358,7.691c2.128,2.567,4.497,4.961,7.043,7.119c2.545-2.157,4.914-4.551,7.042-7.119
		c1.907-2.292,2.767-5.095,2.359-7.691c-0.348-2.213-1.611-4.111-3.557-5.345C16.102,1.587,14.091,1.002,12.028,1
		c-0.008,0.001-0.016,0.001-0.022,0.001C11.998,1.001,11.983,1,11.983,1z"/>
	<path d="M12,16.5c-0.414,0-0.75-0.336-0.75-0.75c0,0,0-0.002,0-0.002C11.252,15.335,11.588,15,12,15c0.414,0,0.75,0.336,0.75,0.75
		c0,0.008,0,0.015-0.001,0.023c-0.006,0.192-0.083,0.37-0.217,0.505c-0.141,0.142-0.329,0.221-0.53,0.222
		C12.003,16.5,12,16.5,12,16.5z"/>
	<path d="M12,14c-0.276,0-0.5-0.224-0.5-0.5v-0.417c0-0.994,0.589-1.894,1.5-2.291s1.5-1.297,1.5-2.291
		c0-0.668-0.26-1.296-0.732-1.768C13.296,6.261,12.668,6.001,12,6c-0.668,0-1.296,0.26-1.768,0.732C9.76,7.204,9.5,7.832,9.5,8.5
		C9.5,8.776,9.276,9,9,9S8.5,8.776,8.5,8.5c0-0.935,0.364-1.814,1.026-2.475C10.186,5.364,11.065,5,12,5
		c0.935,0,1.814,0.364,2.475,1.026c0.661,0.661,1.025,1.54,1.025,2.475c0,1.391-0.824,2.651-2.1,3.207
		c-0.547,0.239-0.9,0.778-0.9,1.375V13.5C12.5,13.776,12.276,14,12,14z"/>
</g>
</svg>
