<?xml version="1.0" encoding="utf-8"?>
<!-- Generator: Adobe Illustrator 22.1.0, SVG Export Plug-In . SVG Version: 6.00 Build 0)  -->
<svg version="1.1" id="Layer_1" xmlns="http://www.w3.org/2000/svg" xmlns:xlink="http://www.w3.org/1999/xlink" x="0px" y="0px"
	 viewBox="0 0 24 24" style="enable-background:new 0 0 24 24;" xml:space="preserve">
<g>
	<title>style-three-pin-call</title>
	<path d="M11.999,23.926c-0.234,0-0.462-0.083-0.641-0.233c-2.586-2.204-4.997-4.644-7.169-7.252
		c-2.091-2.511-3.03-5.604-2.578-8.485C2.004,5.454,3.428,3.311,5.62,1.922c1.906-1.209,4.106-1.848,6.363-1.848h0.034
		c2.257,0,4.457,0.639,6.363,1.848c2.193,1.39,3.617,3.533,4.01,6.034c0.452,2.881-0.488,5.973-2.578,8.485
		c-2.17,2.607-4.581,5.046-7.166,7.249C12.463,23.842,12.234,23.926,11.999,23.926z M11.983,1.074c-2.067,0-4.082,0.585-5.827,1.692
		C4.21,4,2.946,5.898,2.599,8.11c-0.408,2.596,0.452,5.399,2.358,7.69c2.135,2.564,4.506,4.963,7.046,7.128
		c2.534-2.166,4.904-4.563,7.039-7.127c1.907-2.291,2.767-5.094,2.359-7.69C21.054,5.898,19.79,4,17.844,2.766
		c-1.746-1.107-3.761-1.692-5.828-1.692C12.012,1.074,11.983,1.074,11.983,1.074z"/>
	<path d="M13.756,17.786c-0.44,0-0.866-0.128-1.232-0.369c-3.06-2.035-5.641-4.618-7.673-7.678C4.265,8.855,4.384,7.67,5.133,6.921
		l0.674-0.675c0.313-0.313,0.73-0.485,1.173-0.485s0.86,0.172,1.173,0.484L9.382,7.48c0.646,0.647,0.646,1.699-0.001,2.345
		L9.296,9.911c0.934,1.098,1.961,2.125,3.058,3.06l0.086-0.086c0.313-0.313,0.73-0.485,1.173-0.485c0.443,0,0.86,0.172,1.172,0.485
		l1.229,1.229c0.646,0.647,0.646,1.699,0,2.346l-0.676,0.675C14.919,17.555,14.356,17.786,13.756,17.786z M6.981,6.761
		c-0.177,0-0.342,0.068-0.466,0.192L5.841,7.628C5.426,8.043,5.36,8.697,5.684,9.185c1.958,2.949,4.445,5.438,7.392,7.398
		c0.201,0.133,0.436,0.204,0.68,0.204c0.333,0,0.644-0.128,0.877-0.361l0.676-0.674c0.256-0.257,0.256-0.675-0.001-0.932
		l-1.229-1.229c-0.124-0.124-0.29-0.193-0.466-0.193c-0.176,0-0.34,0.068-0.464,0.191l-0.411,0.411
		c-0.094,0.094-0.22,0.146-0.354,0.146c-0.115,0-0.228-0.04-0.318-0.114c-1.396-1.149-2.685-2.44-3.833-3.836
		c-0.164-0.2-0.15-0.488,0.033-0.671l0.409-0.409c0.125-0.125,0.193-0.29,0.193-0.465c0-0.176-0.068-0.341-0.192-0.466l-1.23-1.235
		C7.322,6.83,7.157,6.761,6.981,6.761z"/>
	<path d="M14,10.574c-0.276,0-0.5-0.224-0.5-0.5c0-1.103-0.897-2-2-2c-0.276,0-0.5-0.224-0.5-0.5s0.224-0.5,0.5-0.5
		c1.654,0,3,1.346,3,3C14.5,10.35,14.276,10.574,14,10.574z"/>
	<path d="M17,10.574c-0.276,0-0.5-0.224-0.5-0.5c0-2.757-2.243-5-5-5c-0.276,0-0.5-0.224-0.5-0.5s0.224-0.5,0.5-0.5
		c3.308,0,6,2.692,6,6C17.5,10.35,17.276,10.574,17,10.574z"/>
</g>
</svg>
