<?xml version="1.0" encoding="utf-8"?>
<!-- Generator: Adobe Illustrator 22.1.0, SVG Export Plug-In . SVG Version: 6.00 Build 0)  -->
<svg version="1.1" id="Layer_1" xmlns="http://www.w3.org/2000/svg" xmlns:xlink="http://www.w3.org/1999/xlink" x="0px" y="0px"
	 viewBox="0 0 24 24" style="enable-background:new 0 0 24 24;" xml:space="preserve">
<g>
	<title>style-three-pin-repair-tool</title>
	<path d="M15.497,17.069c-0.347,0-0.69-0.06-1.019-0.179c-1.445-0.523-2.254-2.053-1.894-3.529L12,12.776l-2.794,2.795
		c-0.188,0.188-0.439,0.292-0.706,0.292c-0.268,0-0.519-0.104-0.708-0.293L7,14.776c-0.389-0.39-0.389-1.024,0-1.414l2.793-2.793
		L9.206,9.982c-0.231,0.056-0.469,0.085-0.708,0.085c-0.35,0-0.693-0.06-1.021-0.179C6.724,9.615,6.122,9.065,5.782,8.34
		s-0.377-1.54-0.104-2.294C5.95,5.292,6.5,4.69,7.225,4.35c0.404-0.189,0.831-0.285,1.271-0.285c0.348,0,0.692,0.061,1.023,0.181
		c1.445,0.523,2.255,2.053,1.894,3.529l1.337,1.336l2.293-2.293l-0.396-0.396c-0.106-0.106-0.159-0.253-0.144-0.403
		c0.015-0.15,0.095-0.283,0.22-0.367l1.5-1c0.082-0.055,0.178-0.084,0.277-0.084c0.133,0,0.259,0.052,0.354,0.147l1,1
		c0.168,0.168,0.194,0.433,0.062,0.631l-1,1.5c-0.083,0.125-0.217,0.205-0.367,0.22c-0.008,0.001-0.041,0.002-0.049,0.002
		c-0.132,0-0.26-0.053-0.354-0.146L15.75,7.526l-2.293,2.293l1.335,1.335c0.231-0.056,0.468-0.084,0.707-0.084
		c0.368,0.006,0.71,0.066,1.022,0.179c0.754,0.273,1.356,0.823,1.696,1.548c0.34,0.726,0.377,1.54,0.104,2.294
		c-0.146,0.404-0.373,0.764-0.675,1.072c-0.008,0.01-0.016,0.02-0.024,0.028c-0.009,0.009-0.02,0.018-0.031,0.026
		C17.044,16.754,16.277,17.069,15.497,17.069z M9.349,8.918c0.134,0,0.259,0.052,0.354,0.146l3.8,3.8
		c0.136,0.136,0.182,0.342,0.117,0.524c-0.375,1.037,0.163,2.186,1.2,2.561c0.218,0.079,0.446,0.119,0.676,0.119
		c0.357,0,0.71-0.098,1.018-0.279l-1.367-1.367C15.052,14.328,15,14.202,15,14.069s0.052-0.259,0.146-0.354s0.22-0.146,0.354-0.146
		s0.259,0.052,0.354,0.146l1.368,1.368c0.064-0.107,0.117-0.219,0.158-0.334c0.182-0.501,0.156-1.044-0.07-1.529
		s-0.628-0.851-1.129-1.033c-0.219-0.079-0.448-0.12-0.681-0.12c-0.234,0-0.462,0.04-0.681,0.119c-0.054,0.02-0.112,0.03-0.17,0.03
		c-0.132,0-0.261-0.053-0.354-0.146l-3.8-3.8c-0.136-0.136-0.182-0.342-0.117-0.524c0.182-0.502,0.156-1.044-0.07-1.529
		S9.68,5.368,9.179,5.186c-0.221-0.08-0.451-0.121-0.682-0.121c-0.293,0-0.578,0.064-0.847,0.19
		C7.594,5.282,7.538,5.312,7.483,5.344l1.371,1.371c0.195,0.195,0.195,0.512,0,0.707C8.759,7.517,8.634,7.569,8.5,7.569
		S8.241,7.517,8.147,7.422l-1.371-1.37C6.712,6.159,6.66,6.27,6.618,6.386C6.436,6.889,6.461,7.432,6.687,7.915
		c0.227,0.484,0.628,0.85,1.131,1.032c0.218,0.079,0.447,0.119,0.681,0.119s0.462-0.04,0.681-0.119
		C9.234,8.928,9.291,8.918,9.349,8.918z M7.708,14.069L8.5,14.862c0.003-0.003,2.793-2.793,2.793-2.793L10.5,11.276L7.708,14.069z
		 M16.422,6.784l0.434-0.651l-0.42-0.42l-0.652,0.434L16.422,6.784z"/>
	<path d="M11.999,23.929c-0.225,0-0.445-0.079-0.618-0.223c-2.595-2.209-5.014-4.655-7.192-7.271
		c-2.091-2.512-3.03-5.605-2.578-8.486C2.004,5.449,3.428,3.306,5.62,1.916c1.906-1.209,4.106-1.848,6.363-1.848h0.034
		c2.257,0,4.457,0.639,6.363,1.848c2.193,1.39,3.617,3.533,4.01,6.034c0.452,2.881-0.488,5.973-2.578,8.485
		c-2.177,2.615-4.595,5.06-7.187,7.267C12.446,23.85,12.225,23.929,11.999,23.929z M11.983,1.069c-2.067,0-4.082,0.585-5.827,1.692
		C4.21,3.994,2.947,5.892,2.599,8.105c-0.408,2.597,0.452,5.4,2.358,7.691c2.136,2.566,4.507,4.965,7.048,7.129
		c2.524-2.159,4.898-4.56,7.037-7.129c1.907-2.291,2.767-5.094,2.359-7.69c-0.347-2.213-1.611-4.111-3.557-5.345
		c-1.746-1.107-3.761-1.692-5.828-1.692c-0.004,0-0.024,0-0.028,0L11.983,1.069z"/>
</g>
</svg>
