<?xml version="1.0" encoding="utf-8"?>
<!-- Generator: Adobe Illustrator 22.1.0, SVG Export Plug-In . SVG Version: 6.00 Build 0)  -->
<svg version="1.1" id="Layer_1" xmlns="http://www.w3.org/2000/svg" xmlns:xlink="http://www.w3.org/1999/xlink" x="0px" y="0px"
	 viewBox="0 0 24 24" style="enable-background:new 0 0 24 24;" xml:space="preserve">
<g>
	<title>style-three-pin-boat-skating</title>
	<path d="M12,24c-0.117,0-0.231-0.041-0.321-0.116c-2.714-2.266-5.235-4.795-7.491-7.517c-2.09-2.512-3.03-5.605-2.577-8.486
		C2.004,5.38,3.428,3.237,5.62,1.848C7.526,0.639,9.727,0,11.983,0l0.026,0.25V0c2.264,0,4.464,0.639,6.37,1.848
		c2.193,1.39,3.617,3.533,4.01,6.034c0.452,2.881-0.488,5.973-2.578,8.485c-2.256,2.721-4.776,5.25-7.491,7.517
		C12.231,23.959,12.117,24,12,24z M11.983,1C9.916,1,7.901,1.585,6.156,2.692C4.21,3.926,2.947,5.823,2.599,8.036
		c-0.408,2.597,0.452,5.4,2.358,7.691c2.128,2.567,4.497,4.961,7.043,7.119c2.545-2.157,4.914-4.551,7.042-7.119
		c1.907-2.292,2.767-5.095,2.359-7.691c-0.348-2.213-1.611-4.111-3.557-5.345C16.102,1.587,14.091,1.002,12.028,1
		c-0.008,0.001-0.016,0.001-0.022,0.001C11.998,1.001,11.983,1,11.983,1z"/>
	<path d="M7.002,15.004c-0.045,0-0.091-0.002-0.137-0.006c-0.4-0.036-0.761-0.226-1.017-0.533C5.671,14.253,5.7,13.937,5.912,13.76
		c0.09-0.075,0.204-0.116,0.321-0.116c0.149,0,0.289,0.066,0.384,0.18c0.085,0.102,0.206,0.166,0.339,0.177
		c0.015,0.001,0.031,0.002,0.046,0.002c0.118,0,0.228-0.04,0.319-0.116c0.023-0.02,0.045-0.041,0.064-0.065l0.963-1.155
		c0.286-0.342,0.706-0.539,1.154-0.539c0.35,0,0.691,0.123,0.959,0.347c0.069,0.057,0.133,0.122,0.192,0.192l0.964,1.156
		c0.095,0.114,0.235,0.179,0.384,0.179c0.117,0,0.23-0.041,0.32-0.116c0.023-0.019,0.044-0.04,0.064-0.064l0.964-1.156
		c0.285-0.342,0.705-0.539,1.153-0.539c0.35,0,0.691,0.123,0.959,0.347c0.069,0.058,0.134,0.123,0.192,0.192l0.963,1.155
		c0.086,0.103,0.206,0.166,0.339,0.178c0.014,0.001,0.029,0.002,0.044,0.002c0.119,0,0.23-0.04,0.321-0.116
		c0.024-0.02,0.045-0.041,0.064-0.064c0.096-0.115,0.236-0.18,0.384-0.18c0.116,0,0.23,0.041,0.32,0.116
		c0.212,0.177,0.24,0.493,0.063,0.705c-0.058,0.069-0.122,0.133-0.19,0.19c-0.273,0.228-0.605,0.349-0.96,0.349l0,0
		c-0.045,0-0.091-0.002-0.137-0.006c-0.399-0.036-0.76-0.226-1.017-0.533l-0.964-1.156c-0.02-0.023-0.041-0.045-0.064-0.064
		c-0.091-0.076-0.201-0.116-0.32-0.116c-0.149,0-0.289,0.065-0.384,0.179l-0.965,1.156c-0.057,0.069-0.121,0.133-0.19,0.191
		c-0.269,0.224-0.61,0.348-0.96,0.348c-0.447,0-0.868-0.196-1.153-0.539l-0.964-1.156c-0.02-0.024-0.041-0.045-0.064-0.064
		c-0.089-0.074-0.202-0.115-0.319-0.115c-0.149,0-0.29,0.065-0.385,0.179l-0.964,1.156c-0.058,0.069-0.122,0.134-0.192,0.191
		C7.691,14.88,7.351,15.004,7.002,15.004z"/>
	<path d="M6,12.004c-0.222,0-0.42-0.149-0.481-0.363c-0.076-0.265,0.078-0.542,0.343-0.618l2.4-0.686
		C7.552,9.333,7.371,8.031,7.784,6.87C7.025,6.576,6.5,5.833,6.5,5.004c0-1.103,0.897-2,2-2s2,0.897,2,2
		c0,0.979-0.728,1.819-1.681,1.973c-0.467,1.017-0.272,2.24,0.486,3.062l3.558-1.017c0.045-0.013,0.091-0.019,0.137-0.019
		c0.222,0,0.42,0.149,0.481,0.362c0.076,0.266-0.078,0.543-0.344,0.618l-7,2C6.093,11.998,6.046,12.004,6,12.004z M8.5,4.004
		c-0.551,0-1,0.449-1,1c0,0.551,0.448,1,1,1c0.553-0.002,1-0.45,1-1C9.5,4.453,9.051,4.004,8.5,4.004z"/>
	<path d="M12,8.004c-0.276,0-0.5-0.224-0.5-0.5s0.224-0.5,0.5-0.5h8c0.276,0,0.5,0.224,0.5,0.5s-0.224,0.5-0.5,0.5H12z"/>
</g>
</svg>
