<?xml version="1.0" encoding="utf-8"?>
<!-- Generator: Adobe Illustrator 22.1.0, SVG Export Plug-In . SVG Version: 6.00 Build 0)  -->
<svg version="1.1" id="Layer_1" xmlns="http://www.w3.org/2000/svg" xmlns:xlink="http://www.w3.org/1999/xlink" x="0px" y="0px"
	 viewBox="0 0 24 24" style="enable-background:new 0 0 24 24;" xml:space="preserve">
<g>
	<title>style-three-pin-target</title>
	<path d="M11.999,23.927c-0.234,0-0.462-0.083-0.641-0.233c-2.586-2.204-4.998-4.644-7.169-7.251
		c-2.091-2.513-3.031-5.607-2.578-8.488c0.393-2.5,1.817-4.643,4.009-6.033c1.906-1.209,4.106-1.848,6.363-1.848h0.034
		c2.257,0,4.457,0.639,6.363,1.848c2.193,1.39,3.617,3.533,4.01,6.034c0.452,2.881-0.488,5.973-2.578,8.485
		c-2.171,2.608-4.582,5.047-7.166,7.25C12.463,23.843,12.234,23.927,11.999,23.927z M11.983,1.074c-2.067,0-4.082,0.585-5.827,1.692
		C4.21,4,2.947,5.897,2.599,8.11c-0.408,2.597,0.451,5.401,2.358,7.693c2.136,2.565,4.506,4.963,7.046,7.127
		c2.534-2.166,4.904-4.564,7.039-7.128c1.907-2.291,2.767-5.094,2.359-7.69C21.054,5.898,19.79,4,17.844,2.766
		c-1.746-1.107-3.761-1.692-5.828-1.692c-0.002,0-0.023,0-0.026,0C11.988,1.074,11.985,1.074,11.983,1.074z"/>
	<path d="M12,16.073c-0.276,0-0.5-0.224-0.5-0.5v-0.529c-2.651-0.238-4.733-2.319-4.971-4.971H6c-0.276,0-0.5-0.224-0.5-0.5
		s0.224-0.5,0.5-0.5h0.529C6.767,6.422,8.849,4.34,11.5,4.102V3.573c0-0.276,0.224-0.5,0.5-0.5s0.5,0.224,0.5,0.5v0.529
		c2.651,0.238,4.732,2.319,4.97,4.971H18c0.276,0,0.5,0.224,0.5,0.5s-0.224,0.5-0.5,0.5h-0.529c-0.238,2.651-2.319,4.732-4.97,4.971
		v0.529C12.5,15.849,12.276,16.073,12,16.073z M12,12.073c0.276,0,0.5,0.224,0.5,0.5v1.466c2.09-0.231,3.735-1.876,3.966-3.966H15
		c-0.276,0-0.5-0.224-0.5-0.5s0.224-0.5,0.5-0.5h1.466c-0.231-2.09-1.876-3.735-3.966-3.966v1.466c0,0.276-0.224,0.5-0.5,0.5
		s-0.5-0.224-0.5-0.5V5.107C9.41,5.338,7.765,6.983,7.534,9.073H9c0.276,0,0.5,0.224,0.5,0.5s-0.224,0.5-0.5,0.5H7.534
		c0.231,2.09,1.876,3.735,3.966,3.966v-1.466C11.5,12.297,11.724,12.073,12,12.073z"/>
</g>
</svg>
