<?xml version="1.0" encoding="utf-8"?>
<!-- Generator: Adobe Illustrator 22.1.0, SVG Export Plug-In . SVG Version: 6.00 Build 0)  -->
<svg version="1.1" id="Layer_1" xmlns="http://www.w3.org/2000/svg" xmlns:xlink="http://www.w3.org/1999/xlink" x="0px" y="0px"
	 viewBox="0 0 24 24" style="enable-background:new 0 0 24 24;" xml:space="preserve">
<g>
	<title>style-three-pin-paint</title>
	<path d="M11.999,23.929c-0.225,0-0.445-0.079-0.618-0.223c-2.595-2.209-5.014-4.655-7.192-7.271
		c-2.091-2.512-3.03-5.605-2.578-8.486C2.004,5.449,3.428,3.306,5.62,1.916c1.906-1.209,4.106-1.848,6.363-1.848h0.034
		c2.257,0,4.457,0.639,6.363,1.848c2.193,1.39,3.617,3.533,4.01,6.034c0.452,2.881-0.488,5.973-2.578,8.485
		c-2.177,2.615-4.595,5.06-7.187,7.267C12.446,23.85,12.225,23.929,11.999,23.929z M11.983,1.069c-2.067,0-4.082,0.585-5.827,1.692
		C4.21,3.994,2.947,5.892,2.599,8.105c-0.408,2.597,0.452,5.4,2.358,7.691c2.136,2.566,4.507,4.965,7.048,7.129
		c2.524-2.159,4.898-4.56,7.037-7.129c1.907-2.291,2.767-5.094,2.359-7.69c-0.347-2.213-1.611-4.111-3.557-5.345
		c-1.746-1.107-3.761-1.692-5.828-1.692c-0.004,0-0.024,0-0.028,0L11.983,1.069z"/>
	<path d="M9.894,17.07c-0.766,0-1.407-0.574-1.491-1.335L7.546,8.016C6.652,7.808,6,7.004,6,6.07c0-1.103,0.897-2,2-2h6
		c2.481,0,4.5,2.019,4.5,4.5v2.5c0,0.827-0.673,1.5-1.5,1.5c-0.383,0-0.74-0.146-1.009-0.395l-0.396,3.56
		c-0.084,0.761-0.726,1.335-1.491,1.335H9.894z M9.397,15.625c0.028,0.254,0.242,0.445,0.497,0.445h4.21
		c0.255,0,0.469-0.191,0.497-0.445l0.524-4.717c-0.449-0.168-0.84-0.458-1.125-0.839c-1.2,0-2.216-0.845-2.45-2H8.559L9.397,15.625z
		 M14.257,9.053c0.181,0,0.348,0.097,0.436,0.254c0.265,0.47,0.766,0.763,1.306,0.763c0.132,0,0.261,0.053,0.354,0.146
		c0.094,0.094,0.146,0.22,0.146,0.354v0.5c0,0.276,0.224,0.5,0.5,0.5s0.5-0.224,0.5-0.5v-2.5c0-1.93-1.57-3.5-3.5-3.5H8
		c-0.551,0-1,0.449-1,1s0.449,1,1,1h4c0.276,0,0.5,0.224,0.5,0.5c0,0.827,0.673,1.5,1.5,1.5c0.064,0,0.129-0.004,0.193-0.013
		C14.216,9.054,14.237,9.053,14.257,9.053z"/>
</g>
</svg>
