<?xml version="1.0" encoding="utf-8"?>
<!-- Generator: Adobe Illustrator 22.1.0, SVG Export Plug-In . SVG Version: 6.00 Build 0)  -->
<svg version="1.1" id="Layer_1" xmlns="http://www.w3.org/2000/svg" xmlns:xlink="http://www.w3.org/1999/xlink" x="0px" y="0px"
	 viewBox="0 0 24 24" style="enable-background:new 0 0 24 24;" xml:space="preserve">
<g>
	<title>style-three-pin-swim-compete</title>
	<path d="M12,24c-0.117,0-0.231-0.041-0.321-0.116c-2.714-2.266-5.235-4.795-7.491-7.517c-2.09-2.512-3.03-5.605-2.577-8.486
		C2.004,5.38,3.428,3.237,5.62,1.848C7.526,0.639,9.727,0,11.983,0l0.026,0.25V0c2.264,0,4.464,0.639,6.37,1.848
		c2.193,1.39,3.617,3.533,4.01,6.034c0.452,2.881-0.488,5.973-2.578,8.485c-2.256,2.721-4.776,5.25-7.491,7.517
		C12.231,23.959,12.117,24,12,24z M11.983,1C9.916,1,7.901,1.585,6.156,2.692C4.21,3.926,2.947,5.823,2.599,8.036
		c-0.408,2.597,0.452,5.4,2.358,7.691c2.128,2.567,4.497,4.961,7.043,7.119c2.545-2.157,4.914-4.551,7.042-7.119
		c1.907-2.292,2.767-5.095,2.359-7.691c-0.348-2.213-1.611-4.111-3.557-5.345C16.102,1.587,14.091,1.002,12.028,1
		c-0.008,0.001-0.016,0.001-0.022,0.001C11.998,1.001,11.983,1,11.983,1z"/>
	<path d="M9,18c-0.276,0-0.5-0.224-0.5-0.5S8.724,17,9,17h4.5c0.809,0,1.573-0.306,2.155-0.862C15.748,16.049,15.871,16,16,16
		c0.135,0,0.267,0.056,0.361,0.154c0.191,0.2,0.183,0.517-0.016,0.708C15.577,17.596,14.568,18,13.505,18H9z"/>
	<path d="M11.5,14.003c-1.103,0-2-0.897-2-2c0-1.103,0.897-2,2-2c1.103,0,2,0.897,2,2C13.5,13.106,12.603,14.003,11.5,14.003z
		 M11.5,11.003c-0.551,0-1,0.449-1,1s0.449,1,1,1s1-0.448,1-1S12.051,11.003,11.5,11.003z"/>
	<path d="M9,16.007c-0.827,0-1.5-0.673-1.5-1.5V9.925l-2.826,1.047c-0.057,0.021-0.115,0.031-0.174,0.031
		c-0.208,0-0.397-0.131-0.469-0.327c-0.096-0.259,0.037-0.547,0.295-0.642l13.5-5C17.883,5.013,17.941,5.003,18,5.003
		c0.208,0,0.396,0.131,0.469,0.326c0.047,0.125,0.042,0.261-0.014,0.383c-0.056,0.121-0.155,0.214-0.281,0.26L16.5,6.592V11.5
		c0,0.276,0.224,0.5,0.5,0.5h2c0.276,0,0.5,0.224,0.5,0.5c0,0.276-0.224,0.5-0.5,0.5h-2c-0.827,0-1.5-0.673-1.5-1.5V6.962l-7,2.593
		v4.952c0,0.276,0.224,0.5,0.5,0.5h2c0.276,0,0.5,0.224,0.5,0.5s-0.224,0.5-0.5,0.5H9z"/>
</g>
</svg>
