<?xml version="1.0" encoding="utf-8"?>
<!-- Generator: Adobe Illustrator 22.1.0, SVG Export Plug-In . SVG Version: 6.00 Build 0)  -->
<svg version="1.1" id="Layer_1" xmlns="http://www.w3.org/2000/svg" xmlns:xlink="http://www.w3.org/1999/xlink" x="0px" y="0px"
	 viewBox="0 0 24 24" style="enable-background:new 0 0 24 24;" xml:space="preserve">
<g>
	<title>style-three-pin-snow-shoes-skies</title>
	<path d="M12,24c-0.117,0-0.231-0.041-0.321-0.116c-2.714-2.266-5.235-4.795-7.491-7.517c-2.09-2.512-3.03-5.605-2.577-8.486
		C2.004,5.38,3.428,3.237,5.62,1.848C7.526,0.639,9.727,0,11.983,0l0.026,0.25V0c2.264,0,4.464,0.639,6.37,1.848
		c2.193,1.39,3.617,3.533,4.01,6.034c0.452,2.881-0.488,5.973-2.578,8.485c-2.256,2.721-4.776,5.25-7.491,7.517
		C12.231,23.959,12.117,24,12,24z M11.983,1C9.916,1,7.901,1.585,6.156,2.692C4.21,3.926,2.947,5.823,2.599,8.036
		c-0.408,2.597,0.452,5.4,2.358,7.691c2.128,2.567,4.497,4.961,7.043,7.119c2.545-2.157,4.914-4.551,7.042-7.119
		c1.907-2.292,2.767-5.095,2.359-7.691c-0.348-2.213-1.611-4.111-3.557-5.345C16.102,1.587,14.091,1.002,12.028,1
		c-0.008,0.001-0.016,0.001-0.022,0.001C11.998,1.001,11.983,1,11.983,1z"/>
	<path d="M8,17.003c-0.276,0-0.5-0.224-0.5-0.5v-2.277c-0.663-0.604-2.998-2.927-3-5.722C4.5,6.57,6.07,5,8,5s3.5,1.57,3.5,3.5
		c0,0,0,0.004,0,0.006c-0.003,2.795-2.337,5.117-3,5.72v2.277C8.5,16.779,8.276,17.003,8,17.003z M6.212,11.003
		C6.607,11.731,7.099,12.353,7.5,12.8v-1.797H6.212z M8.5,12.799c0.401-0.447,0.892-1.068,1.287-1.796H8.5V12.799z M10.233,10.003
		c0.113-0.333,0.19-0.668,0.23-1H8.5v1H10.233z M7.5,10.003v-1H5.537c0.04,0.332,0.116,0.667,0.23,1H7.5z M10.449,8.003
		C10.251,7.021,9.482,6.25,8.5,6.052v1.952H10.449z M7.5,8.003V6.052C6.518,6.25,5.749,7.021,5.551,8.003H7.5z"/>
	<path d="M15,17.003c-0.014,0-0.031-0.002-0.048-0.005c-1.891-0.016-3.444-1.576-3.452-3.484c0-0.004,0-0.017,0-0.02
		c0.004-2.796,2.337-5.118,3-5.721V5.503c0-0.276,0.224-0.5,0.5-0.5s0.5,0.224,0.5,0.5v2.271c0.664,0.604,3,2.929,3,5.726
		c0,0,0,0.011,0,0.014c-0.008,1.904-1.553,3.46-3.456,3.484C15.029,17.001,15.013,17.003,15,17.003z M15.5,15.948
		c0.979-0.199,1.748-0.967,1.948-1.946H15.5V15.948z M12.552,14.003c0.2,0.979,0.969,1.747,1.948,1.946v-1.946H12.552z
		 M17.464,13.003c-0.039-0.332-0.115-0.667-0.229-1H15.5v1H17.464z M14.5,13.003v-1h-1.735c-0.113,0.333-0.19,0.668-0.229,1H14.5z
		 M16.791,11.003c-0.396-0.73-0.889-1.354-1.292-1.803v1.803H16.791z M14.5,11.003V9.202c-0.402,0.448-0.895,1.072-1.29,1.801H14.5z
		"/>
</g>
</svg>
