<?xml version="1.0" encoding="utf-8"?>
<!-- Generator: Adobe Illustrator 22.1.0, SVG Export Plug-In . SVG Version: 6.00 Build 0)  -->
<svg version="1.1" id="Layer_1" xmlns="http://www.w3.org/2000/svg" xmlns:xlink="http://www.w3.org/1999/xlink" x="0px" y="0px"
	 viewBox="0 0 24 24" style="enable-background:new 0 0 24 24;" xml:space="preserve">
<g>
	<title>style-three-pin-shinto</title>
	<path d="M11.999,23.927c-0.234,0-0.462-0.083-0.641-0.233c-2.586-2.204-4.998-4.644-7.169-7.251
		c-2.091-2.513-3.031-5.607-2.578-8.488c0.393-2.5,1.817-4.643,4.009-6.033c1.906-1.209,4.106-1.848,6.363-1.848h0.034
		c2.257,0,4.457,0.639,6.363,1.848c2.193,1.39,3.617,3.533,4.01,6.034c0.452,2.881-0.488,5.973-2.578,8.485
		c-2.171,2.608-4.582,5.047-7.166,7.25C12.463,23.843,12.234,23.927,11.999,23.927z M11.983,1.074c-2.067,0-4.082,0.585-5.827,1.692
		C4.21,4,2.947,5.897,2.599,8.11c-0.408,2.597,0.451,5.401,2.358,7.693c2.136,2.565,4.506,4.963,7.046,7.127
		c2.534-2.166,4.904-4.564,7.039-7.128c1.907-2.291,2.767-5.094,2.359-7.69C21.054,5.898,19.79,4,17.844,2.766
		c-1.746-1.107-3.761-1.692-5.828-1.692c-0.002,0-0.023,0-0.026,0C11.988,1.074,11.985,1.074,11.983,1.074z"/>
	<path d="M16,17.074c-0.251,0-0.465-0.188-0.496-0.438l-0.57-4.562H9.066l-0.57,4.562C8.465,16.886,8.252,17.074,8,17.074
		c-0.02,0-0.04-0.001-0.06-0.004c-0.135-0.017-0.253-0.084-0.335-0.189c-0.082-0.105-0.118-0.236-0.101-0.369l0.555-4.438H6
		c-0.276,0-0.5-0.224-0.5-0.5s0.224-0.5,0.5-0.5h2.184l0.249-1.995H7.39c-0.46,0-0.859-0.312-0.97-0.758l-0.6-2.399
		C5.687,5.386,6.013,4.842,6.548,4.709c0.079-0.02,0.161-0.03,0.242-0.03c0.169,0,0.337,0.044,0.485,0.127
		c1.442,0.811,3.077,1.249,4.73,1.269c1.642-0.02,3.275-0.46,4.715-1.271c0.15-0.084,0.318-0.128,0.487-0.128
		c0.093,0,0.186,0.013,0.276,0.039c0.257,0.073,0.47,0.242,0.599,0.476c0.124,0.223,0.158,0.481,0.096,0.728
		c0,0-0.595,2.406-0.595,2.409c-0.114,0.443-0.511,0.752-0.969,0.752h-1.048l0.25,1.995H18c0.276,0,0.5,0.224,0.5,0.5
		s-0.224,0.5-0.5,0.5h-2.059l0.555,4.438c0.017,0.133-0.02,0.263-0.102,0.369c-0.082,0.105-0.2,0.173-0.333,0.189
		C16.04,17.073,16.019,17.074,16,17.074z M14.809,11.074l-0.249-1.995H12.5v1.995H14.809z M11.5,11.074V9.079H9.441l-0.249,1.995
		H11.5z M12,8.074c0.016,0,0.037,0.003,0.057,0.006l2.873-0.001c0.004-0.001,0.037-0.003,0.046-0.003
		c0.012,0,0.042,0.003,0.055,0.004l1.584-0.001l0.594-2.402c-1.583,0.891-3.383,1.374-5.203,1.397
		c-1.83-0.021-3.632-0.504-5.218-1.396L7.39,8.079l1.597,0C8.986,8.077,9.004,8.075,9.023,8.075c0.011,0,0.031,0.001,0.042,0.003
		c0.002,0,2.883,0.001,2.883,0.001C11.962,8.076,11.98,8.074,12,8.074z"/>
</g>
</svg>
