<?xml version="1.0" encoding="utf-8"?>
<!-- Generator: Adobe Illustrator 22.1.0, SVG Export Plug-In . SVG Version: 6.00 Build 0)  -->
<svg version="1.1" id="Layer_1" xmlns="http://www.w3.org/2000/svg" xmlns:xlink="http://www.w3.org/1999/xlink" x="0px" y="0px"
	 viewBox="0 0 24 24" style="enable-background:new 0 0 24 24;" xml:space="preserve">
<g>
	<title>style-three-pin-unlock</title>
	<path d="M11.999,23.926c-0.234,0-0.462-0.083-0.641-0.233c-2.586-2.204-4.997-4.644-7.169-7.252
		c-2.091-2.511-3.03-5.604-2.578-8.485C2.004,5.454,3.428,3.311,5.62,1.922c1.906-1.209,4.106-1.848,6.363-1.848h0.034
		c2.257,0,4.457,0.639,6.363,1.848c2.193,1.39,3.617,3.533,4.01,6.034c0.452,2.881-0.488,5.973-2.578,8.485
		c-2.17,2.607-4.581,5.046-7.166,7.249C12.463,23.842,12.234,23.926,11.999,23.926z M11.983,1.074c-2.067,0-4.082,0.585-5.827,1.692
		C4.21,4,2.946,5.898,2.599,8.11c-0.408,2.596,0.452,5.399,2.358,7.69c2.135,2.564,4.506,4.963,7.046,7.128
		c2.534-2.166,4.904-4.563,7.039-7.127c1.907-2.291,2.767-5.094,2.359-7.69C21.054,5.898,19.79,4,17.844,2.766
		c-1.746-1.107-3.761-1.692-5.828-1.692C12.012,1.074,11.983,1.074,11.983,1.074z"/>
	<path d="M9,17.073c-0.827,0-1.5-0.673-1.5-1.5V9.574c0-0.827,0.673-1.5,1.5-1.5h5.5v-1.5c0-1.379-1.121-2.5-2.5-2.5
		s-2.5,1.121-2.5,2.5c0,0.276-0.224,0.5-0.5,0.5s-0.5-0.224-0.5-0.5c0-1.93,1.57-3.5,3.5-3.5c1.93,0,3.5,1.57,3.5,3.5V8.16
		c0.59,0.209,1,0.774,1,1.414v5.999c0,0.827-0.673,1.5-1.5,1.5H9z M9,9.074c-0.276,0-0.5,0.224-0.5,0.5v5.999
		c0,0.276,0.224,0.5,0.5,0.5h6c0.276,0,0.5-0.224,0.5-0.5V9.574c0-0.276-0.224-0.5-0.5-0.5H9z"/>
	<path d="M12,14.574c-1.103,0-2-0.897-2-2c0-1.103,0.897-2,2-2c1.103,0,2,0.897,2,2C14,13.677,13.103,14.574,12,14.574z M12,11.574
		c-0.551,0-1,0.449-1,1s0.449,1,1,1s1-0.448,1-1S12.551,11.574,12,11.574z"/>
</g>
</svg>
