<?xml version="1.0" encoding="utf-8"?>
<!-- Generator: Adobe Illustrator 22.1.0, SVG Export Plug-In . SVG Version: 6.00 Build 0)  -->
<svg version="1.1" id="Layer_1" xmlns="http://www.w3.org/2000/svg" xmlns:xlink="http://www.w3.org/1999/xlink" x="0px" y="0px"
	 viewBox="0 0 24 24" style="enable-background:new 0 0 24 24;" xml:space="preserve">
<g>
	<title>style-three-pin-target-arrow</title>
	<path d="M12,24c-0.117,0-0.231-0.041-0.321-0.116c-2.714-2.266-5.235-4.795-7.491-7.517c-2.09-2.512-3.03-5.605-2.577-8.486
		C2.004,5.38,3.428,3.237,5.62,1.848C7.526,0.639,9.727,0,11.983,0l0.026,0.25V0c2.264,0,4.464,0.639,6.37,1.848
		c2.193,1.39,3.617,3.533,4.01,6.034c0.452,2.881-0.488,5.973-2.578,8.485c-2.256,2.721-4.776,5.25-7.491,7.517
		C12.231,23.959,12.117,24,12,24z M11.983,1C9.916,1,7.901,1.585,6.156,2.692C4.21,3.926,2.947,5.823,2.599,8.036
		c-0.408,2.597,0.452,5.4,2.358,7.691c2.128,2.567,4.497,4.961,7.043,7.119c2.545-2.157,4.914-4.551,7.042-7.119
		c1.907-2.292,2.767-5.095,2.359-7.691c-0.348-2.213-1.611-4.111-3.557-5.345C16.102,1.587,14.091,1.002,12.028,1
		c-0.008,0.001-0.016,0.001-0.022,0.001C11.998,1.001,11.983,1,11.983,1z"/>
	<path d="M11,16c-1.174,0-2.288-0.365-3.235-1.059l-0.911,0.911c-0.094,0.094-0.22,0.146-0.354,0.146s-0.259-0.052-0.354-0.146
		S6,15.633,6,15.499s0.052-0.259,0.146-0.354l0.866-0.866C6.035,13.251,5.5,11.919,5.5,10.5C5.5,7.467,7.967,5,11,5
		c0.276,0,0.5,0.224,0.5,0.5S11.276,6,11,6c-2.481,0-4.5,2.019-4.5,4.5c0,2.481,2.019,4.5,4.5,4.5s4.5-2.019,4.5-4.5
		c0-0.276,0.224-0.5,0.5-0.5c0.276,0,0.5,0.224,0.5,0.5c0,1.419-0.535,2.752-1.513,3.779l0.866,0.866
		C15.948,15.24,16,15.365,16,15.499s-0.052,0.259-0.146,0.354s-0.22,0.146-0.354,0.146s-0.259-0.052-0.354-0.146l-0.911-0.911
		C13.288,15.635,12.175,16,11,16z"/>
	<path d="M11,14c-1.93,0-3.5-1.57-3.5-3.5S9.07,7,11,7c0.276,0,0.5,0.224,0.5,0.5S11.276,8,11,8c-1.379,0-2.5,1.121-2.5,2.5
		S9.622,13,11,13s2.5-1.121,2.5-2.5c0-0.276,0.224-0.5,0.5-0.5s0.5,0.224,0.5,0.5C14.5,12.43,12.93,14,11,14z"/>
	<path d="M11,10.999c-0.134,0-0.259-0.052-0.354-0.146s-0.146-0.22-0.146-0.354s0.052-0.259,0.146-0.354L13.5,7.292V5.706
		c0-0.267,0.104-0.517,0.292-0.706l1.854-1.854C15.741,3.052,15.867,3,16,3c0.066,0,0.13,0.013,0.191,0.038
		C16.379,3.116,16.5,3.297,16.5,3.5V5H18c0.203,0,0.385,0.121,0.462,0.309c0.078,0.187,0.035,0.401-0.108,0.545l-1.854,1.854
		C16.311,7.896,16.06,8,15.793,8h-1.587l-2.852,2.853C11.259,10.947,11.134,10.999,11,10.999z M15.793,7l1-1H16
		c-0.276,0-0.5-0.224-0.5-0.5V4.707l-1,1L14.5,7H15.793z"/>
</g>
</svg>
