<?xml version="1.0" encoding="utf-8"?>
<!-- Generator: Adobe Illustrator 22.1.0, SVG Export Plug-In . SVG Version: 6.00 Build 0)  -->
<svg version="1.1" id="Layer_1" xmlns="http://www.w3.org/2000/svg" xmlns:xlink="http://www.w3.org/1999/xlink" x="0px" y="0px"
	 viewBox="0 0 24 24" style="enable-background:new 0 0 24 24;" xml:space="preserve">
<g>
	<title>style-three-pin-shop</title>
	<path d="M7,15.074c-0.276,0-0.5-0.224-0.5-0.5v-4.5H6c-0.276,0-0.5-0.224-0.5-0.5v-2c0-0.107,0.036-0.214,0.1-0.3l1.5-2
		c0.094-0.125,0.243-0.2,0.4-0.2h9c0.157,0,0.306,0.075,0.4,0.2l1.5,2c0.065,0.086,0.1,0.193,0.1,0.3v2c0,0.276-0.224,0.5-0.5,0.5
		h-0.5v4.5c0,0.276-0.224,0.5-0.5,0.5H7z M16.5,14.074v-4h-9v4h5v-2.5c0-0.276,0.224-0.5,0.5-0.5h2c0.276,0,0.5,0.224,0.5,0.5v2.5
		H16.5z M14.5,14.074v-2h-1v2H14.5z M17.5,9.074V7.741l-1.25-1.667h-8.5L6.5,7.741v1.333h2v-1c0-0.276,0.224-0.5,0.5-0.5
		s0.5,0.224,0.5,0.5v1h2v-1c0-0.276,0.224-0.5,0.5-0.5s0.5,0.224,0.5,0.5v1h2v-1c0-0.276,0.224-0.5,0.5-0.5s0.5,0.224,0.5,0.5v1
		H17.5z"/>
	<path d="M9,12.074c-0.276,0-0.5-0.224-0.5-0.5s0.224-0.5,0.5-0.5h2c0.276,0,0.5,0.224,0.5,0.5s-0.224,0.5-0.5,0.5H9z"/>
	<path d="M11.999,23.927c-0.234,0-0.462-0.083-0.641-0.233c-2.586-2.204-4.998-4.644-7.169-7.251
		c-2.091-2.513-3.031-5.607-2.578-8.488c0.393-2.5,1.817-4.643,4.009-6.033c1.906-1.209,4.106-1.848,6.363-1.848h0.034
		c2.257,0,4.457,0.639,6.363,1.848c2.193,1.39,3.617,3.533,4.01,6.034c0.452,2.881-0.488,5.973-2.578,8.485
		c-2.171,2.608-4.582,5.047-7.166,7.25C12.463,23.843,12.234,23.927,11.999,23.927z M11.983,1.074c-2.067,0-4.082,0.585-5.827,1.692
		C4.21,4,2.947,5.897,2.599,8.11c-0.408,2.597,0.451,5.401,2.358,7.693c2.136,2.565,4.506,4.963,7.046,7.127
		c2.534-2.166,4.904-4.564,7.039-7.128c1.907-2.291,2.767-5.094,2.359-7.69C21.054,5.898,19.79,4,17.844,2.766
		c-1.746-1.107-3.761-1.692-5.828-1.692c-0.002,0-0.023,0-0.026,0C11.988,1.074,11.985,1.074,11.983,1.074z"/>
</g>
</svg>
