<?xml version="1.0" encoding="utf-8"?>
<!-- Generator: Adobe Illustrator 22.1.0, SVG Export Plug-In . SVG Version: 6.00 Build 0)  -->
<svg version="1.1" id="Layer_1" xmlns="http://www.w3.org/2000/svg" xmlns:xlink="http://www.w3.org/1999/xlink" x="0px" y="0px"
	 viewBox="0 0 24 24" style="enable-background:new 0 0 24 24;" xml:space="preserve">
<g>
	<title>style-three-pin-cargo-ship</title>
	<path d="M12,24c-0.117,0-0.231-0.041-0.321-0.116c-2.714-2.266-5.235-4.795-7.491-7.517c-2.09-2.512-3.03-5.605-2.577-8.486
		C2.004,5.38,3.428,3.237,5.62,1.848C7.526,0.639,9.727,0,11.983,0l0.026,0.25V0c2.264,0,4.464,0.639,6.37,1.848
		c2.193,1.39,3.617,3.533,4.01,6.034c0.452,2.881-0.488,5.973-2.578,8.485c-2.256,2.721-4.776,5.25-7.491,7.517
		C12.231,23.959,12.117,24,12,24z M11.983,1C9.916,1,7.901,1.585,6.156,2.692C4.21,3.926,2.947,5.823,2.599,8.036
		c-0.408,2.597,0.452,5.4,2.358,7.691c2.128,2.567,4.497,4.961,7.043,7.119c2.545-2.157,4.914-4.551,7.042-7.119
		c1.907-2.292,2.767-5.095,2.359-7.691c-0.348-2.213-1.611-4.111-3.557-5.345C16.102,1.587,14.091,1.002,12.028,1
		c-0.008,0.001-0.016,0.001-0.022,0.001C11.998,1.001,11.983,1,11.983,1z"/>
	<path d="M7.002,15.004c-0.045,0-0.091-0.002-0.137-0.006c-0.4-0.036-0.761-0.226-1.017-0.533C5.671,14.253,5.7,13.937,5.912,13.76
		c0.09-0.075,0.204-0.116,0.321-0.116c0.149,0,0.289,0.066,0.384,0.18c0.085,0.102,0.206,0.166,0.339,0.177
		c0.015,0.001,0.031,0.002,0.046,0.002c0.118,0,0.228-0.04,0.319-0.116c0.023-0.02,0.045-0.041,0.064-0.065l0.963-1.155
		c0.286-0.342,0.706-0.539,1.154-0.539c0.35,0,0.691,0.123,0.959,0.347c0.069,0.057,0.133,0.122,0.192,0.192l0.964,1.156
		c0.095,0.114,0.235,0.179,0.384,0.179c0.117,0,0.23-0.041,0.32-0.116c0.023-0.019,0.044-0.04,0.064-0.064l0.964-1.156
		c0.285-0.342,0.705-0.539,1.153-0.539c0.35,0,0.691,0.123,0.959,0.347c0.069,0.058,0.134,0.123,0.192,0.192l0.963,1.155
		c0.086,0.103,0.206,0.166,0.339,0.178c0.014,0.001,0.029,0.002,0.044,0.002c0.119,0,0.23-0.04,0.321-0.116
		c0.024-0.02,0.045-0.041,0.064-0.064c0.096-0.115,0.236-0.18,0.384-0.18c0.116,0,0.23,0.041,0.32,0.116
		c0.212,0.177,0.24,0.493,0.063,0.705c-0.058,0.069-0.122,0.133-0.19,0.19c-0.273,0.228-0.605,0.349-0.96,0.349l0,0
		c-0.045,0-0.091-0.002-0.137-0.006c-0.399-0.036-0.76-0.226-1.017-0.533l-0.964-1.156c-0.02-0.023-0.041-0.045-0.064-0.064
		c-0.091-0.076-0.201-0.116-0.32-0.116c-0.149,0-0.289,0.065-0.384,0.179l-0.965,1.156c-0.057,0.069-0.121,0.133-0.19,0.191
		c-0.269,0.224-0.61,0.348-0.96,0.348c-0.447,0-0.868-0.196-1.153-0.539l-0.964-1.156c-0.02-0.024-0.041-0.045-0.064-0.064
		c-0.089-0.074-0.202-0.115-0.319-0.115c-0.149,0-0.29,0.065-0.385,0.179l-0.964,1.156c-0.058,0.069-0.122,0.134-0.192,0.191
		C7.691,14.88,7.351,15.004,7.002,15.004z"/>
	<path d="M18.656,12.5c-0.074,0-0.146-0.016-0.213-0.048c-0.249-0.116-0.357-0.414-0.241-0.664c0.118-0.253,0.201-0.517,0.25-0.789
		H5.548c0.048,0.271,0.131,0.536,0.249,0.789c0.117,0.25,0.008,0.548-0.242,0.665C5.489,12.484,5.418,12.5,5.344,12.5
		c-0.193,0-0.371-0.113-0.453-0.288C4.64,11.674,4.509,11.101,4.5,10.507c-0.002-0.133,0.05-0.263,0.144-0.358
		C4.737,10.054,4.867,10,5,10h1.5V8c0-0.551,0.449-1,1-1h1V5c0-0.551,0.449-1,1-1h1c0.551,0,1,0.449,1,1v2h1V5c0-0.551,0.448-1,1-1
		h1c0.552,0,1,0.449,1,1v2h1c0.552,0,1,0.449,1,1v2H19c0.133,0,0.263,0.054,0.356,0.149c0.093,0.094,0.146,0.225,0.144,0.358
		c-0.008,0.593-0.14,1.166-0.391,1.704C19.027,12.387,18.85,12.5,18.656,12.5L18.656,12.5z M16.5,10V8h-9l0,2H16.5z M14.5,7V5h-1
		l0,2H14.5z M10.5,7V5h-1l0,2H10.5z"/>
</g>
</svg>
