<?xml version="1.0" encoding="utf-8"?>
<!-- Generator: Adobe Illustrator 22.1.0, SVG Export Plug-In . SVG Version: 6.00 Build 0)  -->
<svg version="1.1" id="Layer_1" xmlns="http://www.w3.org/2000/svg" xmlns:xlink="http://www.w3.org/1999/xlink" x="0px" y="0px"
	 viewBox="0 0 24 24" style="enable-background:new 0 0 24 24;" xml:space="preserve">
<g>
	<title>space-explore</title>
	<path d="M12.5,24c-0.276,0-0.5-0.224-0.5-0.5V19H2v4.5C2,23.776,1.776,24,1.5,24S1,23.776,1,23.5v-7c0-3.308,2.692-6,6-6
		s6,2.692,6,6v7C13,23.776,12.776,24,12.5,24z M12,18v-1H2v1H12z M11.968,16C11.716,13.456,9.582,11.5,7,11.5S2.284,13.456,2.032,16
		H11.968z"/>
	<path d="M11.5,5C11.224,5,11,4.776,11,4.5v-1h-1C9.724,3.5,9.5,3.276,9.5,3S9.724,2.5,10,2.5h1v-1C11,1.224,11.224,1,11.5,1
		S12,1.224,12,1.5v1h1c0.276,0,0.5,0.224,0.5,0.5S13.276,3.5,13,3.5h-1v1C12,4.776,11.776,5,11.5,5z"/>
	<path d="M20.5,14c-0.276,0-0.5-0.224-0.5-0.5v-1h-1c-0.276,0-0.5-0.224-0.5-0.5c0-0.276,0.224-0.5,0.5-0.5h1v-1
		c0-0.276,0.224-0.5,0.5-0.5s0.5,0.224,0.5,0.5v1h1c0.276,0,0.5,0.224,0.5,0.5c0,0.276-0.224,0.5-0.5,0.5h-1v1
		C21,13.776,20.776,14,20.5,14z"/>
	<path d="M19.5,7C19.224,7,19,6.776,19,6.5C19,5.121,17.878,4,16.5,4C16.224,4,16,3.776,16,3.5S16.224,3,16.5,3
		C17.878,3,19,1.879,19,0.5C19,0.224,19.224,0,19.5,0S20,0.224,20,0.5C20,1.879,21.122,3,22.5,3C22.776,3,23,3.224,23,3.5
		S22.776,4,22.5,4C21.122,4,20,5.121,20,6.5C20,6.776,19.776,7,19.5,7z M18.3,3.5c0.489,0.296,0.904,0.71,1.2,1.2
		c0.296-0.49,0.71-0.904,1.2-1.2c-0.489-0.296-0.904-0.71-1.2-1.2C19.204,2.79,18.79,3.204,18.3,3.5z"/>
	<path d="M14.5,18c-0.276,0-0.5-0.224-0.5-0.5v-1c-0.005-3.859-3.149-6.998-7.008-6.998C6.065,9.503,5.169,9.681,4.32,10.031
		c-0.061,0.025-0.125,0.038-0.191,0.038c-0.203,0-0.384-0.121-0.462-0.309c-0.051-0.123-0.051-0.259,0-0.383s0.148-0.219,0.271-0.27
		c0.97-0.4,1.994-0.604,3.043-0.605c1.268,0,2.516,0.299,3.632,0.867l1.314-1.718c0.191-0.249,0.48-0.392,0.795-0.392
		c0.221,0,0.431,0.071,0.607,0.206c0.033,0.025,0.067,0.055,0.098,0.086l2.025,2.021c0.39,0.391,0.389,1.026-0.001,1.415
		c-0.029,0.029-0.062,0.057-0.094,0.083l-1.574,1.204c0.794,1.269,1.214,2.725,1.216,4.226v1C15,17.776,14.776,18,14.5,18z
		 M11.479,9.883c0.649,0.441,1.227,0.97,1.722,1.578l1.545-1.182l-2.024-2.02L11.479,9.883z"/>
	<path d="M8.5,24C8.224,24,8,23.776,8,23.5V22c0-0.552-0.449-1-1-1s-1,0.448-1,1v1.5C6,23.776,5.776,24,5.5,24S5,23.776,5,23.5V22
		c0-1.103,0.897-2,2-2s2,0.897,2,2v1.5C9,23.776,8.776,24,8.5,24z"/>
</g>
</svg>
