<?xml version="1.0" encoding="utf-8"?>
<!-- Generator: Adobe Illustrator 22.1.0, SVG Export Plug-In . SVG Version: 6.00 Build 0)  -->
<svg version="1.1" id="Layer_1" xmlns="http://www.w3.org/2000/svg" xmlns:xlink="http://www.w3.org/1999/xlink" x="0px" y="0px"
	 viewBox="0 0 24 24" style="enable-background:new 0 0 24 24;" xml:space="preserve">
<g>
	<title>space-rocket-1</title>
	<path d="M16,24c-0.552,0-1-0.448-1-1v-3h-1v3c0,0.552-0.448,1-1,1h-2c-0.551,0-1-0.448-1-1v-3H9v3c0,0.552-0.449,1-1,1H6
		c-0.551,0-1-0.448-1-1v-5.5c0-1.71,1.707-3.109,3-3.43V10.5c0.053-1.233,0.598-2.397,1.5-3.222V4.5C9.5,3.424,10.988,0,12,0
		s2.5,3.424,2.5,4.5v2.778c0.901,0.824,1.446,1.984,1.5,3.2l0,3.592c1.293,0.321,3,1.72,3,3.43V23c0,0.552-0.448,1-1,1H16z M16,23h2
		v-1h-2V23z M11,23h2v-1h-2V23z M6,23h2v-1H6V23z M18,21v-3.5c0-1.11-1.17-2.071-2-2.386V21H18z M13,21v-7
		c0-0.614-0.778-1.434-1-1.498c-0.222,0.064-1,0.884-1,1.498v7H13z M8,21v-5.886C7.17,15.429,6,16.39,6,17.5V21H8z M15,19v-8.5
		c-0.042-0.945-0.473-1.855-1.186-2.5h-3.629C9.472,8.645,9.041,9.559,9,10.522L9,19h1v-5c0-1.052,1.159-2.5,2-2.5s2,1.448,2,2.5v5
		H15z M13.5,7V4.5c0-0.89-1.062-2.854-1.5-3.396C11.562,1.646,10.5,3.61,10.5,4.5V7H13.5z"/>
</g>
</svg>
