<?xml version="1.0" encoding="utf-8"?>
<!-- Generator: Adobe Illustrator 22.1.0, SVG Export Plug-In . SVG Version: 6.00 Build 0)  -->
<svg version="1.1" id="Layer_1" xmlns="http://www.w3.org/2000/svg" xmlns:xlink="http://www.w3.org/1999/xlink" x="0px" y="0px"
	 viewBox="0 0 24 24" style="enable-background:new 0 0 24 24;" xml:space="preserve">
<g>
	<title>space-antenna-satelite</title>
	<path d="M21,23.974c-1.654,0-3-1.346-3-3H9c0,1.654-1.346,3-3,3s-3-1.346-3-3s1.346-3,3-3v-4.516c-3.491-0.197-6-2.473-6-5.485
		c0-0.276,0.224-0.5,0.5-0.5h12c0.276,0,0.5,0.224,0.5,0.5c0,2.779-2.228,4.993-5.371,5.423l0.638,0.638
		C8.74,14.507,9,15.136,9,15.805v4.169h2.268c-0.175-0.301-0.268-0.643-0.268-1c0-1.103,0.897-2,2-2h4.09l0.679-3.393
		c0.109-0.526,0.415-0.976,0.861-1.269c0.328-0.215,0.707-0.328,1.095-0.328c0.136,0,0.274,0.014,0.408,0.042
		c1.049,0.218,1.738,1.216,1.569,2.273l-0.613,3.677C22.703,18.023,24,19.35,24,20.974C24,22.629,22.654,23.974,21,23.974z
		 M21,18.974c-1.103,0-2,0.897-2,2s0.897,2,2,2s2-0.897,2-2S22.103,18.974,21,18.974z M6,18.974c-1.103,0-2,0.897-2,2s0.897,2,2,2
		s2-0.897,2-2S7.103,18.974,6,18.974z M13,17.974c-0.552,0-1,0.448-1,1s0.448,1,1,1h5.174c0.307-0.864,1.005-1.55,1.876-1.843
		l0.666-3.993c0.084-0.526-0.261-1.025-0.785-1.133c-0.068-0.014-0.138-0.021-0.206-0.021c-0.193,0-0.382,0.057-0.546,0.165
		c-0.223,0.147-0.376,0.372-0.43,0.633l-0.759,3.792c-0.047,0.233-0.253,0.402-0.49,0.402H13z M7,18.149
		c0.369,0.131,0.709,0.334,1,0.594v-2.939c0-0.401-0.156-0.779-0.44-1.062L7,14.181V18.149z M1.029,8.473
		c0.274,2.369,2.482,4,5.471,4c2.933,0,5.185-1.667,5.47-4H1.029z"/>
	<path d="M10.5,22.974c-0.276,0-0.5-0.224-0.5-0.5s0.224-0.5,0.5-0.5h6c0.276,0,0.5,0.224,0.5,0.5s-0.224,0.5-0.5,0.5H10.5z"/>
	<path d="M10.389,2.645c-0.134,0-0.259-0.052-0.354-0.146C9.093,1.556,7.837,1.037,6.5,1.037S3.907,1.556,2.964,2.499
		C2.87,2.593,2.745,2.645,2.611,2.645S2.352,2.593,2.257,2.499s-0.146-0.22-0.146-0.354s0.052-0.259,0.146-0.354
		C3.389,0.66,4.896,0.037,6.5,0.037s3.111,0.623,4.243,1.755c0.094,0.094,0.146,0.22,0.146,0.354s-0.052,0.259-0.146,0.354
		S10.523,2.645,10.389,2.645z"/>
	<path d="M8.975,4.059c-0.134,0-0.259-0.052-0.354-0.146C8.055,3.346,7.302,3.034,6.5,3.034c-0.801,0-1.555,0.312-2.121,0.879
		c-0.094,0.094-0.22,0.146-0.354,0.146S3.766,4.007,3.672,3.913c-0.195-0.195-0.195-0.512,0-0.707C4.427,2.45,5.432,2.034,6.5,2.034
		c1.069,0,2.073,0.416,2.828,1.172C9.423,3.3,9.475,3.426,9.475,3.559c0,0.134-0.052,0.259-0.147,0.354
		C9.234,4.007,9.109,4.059,8.975,4.059z"/>
	<path d="M7.561,5.474c-0.134,0-0.259-0.052-0.354-0.146C7.019,5.14,6.768,5.036,6.5,5.036S5.982,5.14,5.793,5.328
		C5.699,5.422,5.573,5.474,5.44,5.474S5.181,5.422,5.086,5.328S4.94,5.108,4.94,4.974c0-0.134,0.052-0.259,0.147-0.354
		C5.464,4.244,5.966,4.036,6.5,4.036s1.037,0.208,1.414,0.585c0.094,0.094,0.146,0.22,0.146,0.354c0,0.134-0.052,0.259-0.146,0.354
		C7.82,5.422,7.695,5.474,7.561,5.474z"/>
</g>
</svg>
