<?xml version="1.0" encoding="utf-8"?>
<!-- Generator: Adobe Illustrator 22.1.0, SVG Export Plug-In . SVG Version: 6.00 Build 0)  -->
<svg version="1.1" id="Layer_1" xmlns="http://www.w3.org/2000/svg" xmlns:xlink="http://www.w3.org/1999/xlink" x="0px" y="0px"
	 viewBox="0 0 24 24" style="enable-background:new 0 0 24 24;" xml:space="preserve">
<g>
	<title>space-astronaut</title>
	<path d="M17.093,8.761c-0.668,0-1.296-0.26-1.768-0.731c-0.472-0.472-0.732-1.099-0.732-1.767c0-0.668,0.26-1.296,0.732-1.768
		c0.472-0.472,1.1-0.732,1.768-0.733c0.668,0,1.295,0.26,1.768,0.732c0.975,0.975,0.975,2.561,0,3.536
		C18.389,8.501,17.761,8.761,17.093,8.761z M17.093,4.762c-0.4,0-0.777,0.156-1.061,0.44c-0.283,0.283-0.439,0.66-0.439,1.061
		c0,0.401,0.156,0.777,0.439,1.061c0.283,0.283,0.659,0.438,1.061,0.438c0.401,0,0.778-0.156,1.061-0.439
		c0.584-0.584,0.584-1.535,0.001-2.12C17.87,4.918,17.493,4.762,17.093,4.762l0-0.25L17.093,4.762z"/>
	<path d="M10.74,15.738c-0.267,0-0.518-0.104-0.707-0.293l-2.121-2.121c-0.189-0.188-0.293-0.44-0.293-0.707
		c0-0.267,0.104-0.518,0.293-0.707l2.121-2.121c0.189-0.189,0.44-0.293,0.707-0.293s0.518,0.104,0.707,0.293l2.121,2.121
		c0.39,0.39,0.39,1.025,0,1.414l-2.121,2.121C11.258,15.634,11.007,15.738,10.74,15.738z M8.618,12.617l2.121,2.121l2.121-2.121
		l-2.121-2.121L8.618,12.617z"/>
	<path d="M14.948,23.172c-0.311,0-0.619-0.017-0.916-0.051c-1.935-0.22-3.549-1.105-4.802-2.632l-2.027,2.028
		c-0.377,0.377-0.88,0.585-1.415,0.585c-0.535,0-1.037-0.208-1.414-0.585c-0.378-0.377-0.586-0.88-0.586-1.414
		s0.208-1.037,0.586-1.415l3.185-3.182c0.195-0.195,0.195-0.512,0-0.708c-0.095-0.095-0.22-0.147-0.354-0.147
		c-0.134,0-0.259,0.052-0.354,0.146l-3.185,3.182c-0.377,0.377-0.879,0.585-1.414,0.585s-1.037-0.208-1.415-0.585
		c-0.378-0.378-0.586-0.88-0.586-1.414c0-0.534,0.208-1.037,0.586-1.415l3.743-3.742c-0.328-0.087-0.625-0.255-0.871-0.494
		c-0.384-0.371-0.601-0.87-0.61-1.404c-0.009-0.534,0.19-1.04,0.561-1.424l2.127-2.129c0.083-0.083,0.171-0.16,0.26-0.236
		c0.002-0.002,4.69-4.706,4.69-4.706c0.763-0.743,1.772-1.15,2.843-1.15c0.986,0,1.926,0.348,2.662,0.982
		c0.281-0.054,0.568-0.081,0.854-0.081c1.203,0,2.331,0.466,3.177,1.313c1.061,1.061,1.516,2.562,1.23,4.038
		c1.386,1.59,1.327,3.98-0.156,5.498l-4.853,4.85c-0.009,0.009-0.024,0.021-0.039,0.032l-0.009,0.01
		c-0.017,0.02-0.034,0.039-0.053,0.058l-2.122,2.123c-0.378,0.377-0.88,0.585-1.414,0.585c-0.535,0-1.037-0.208-1.415-0.586
		c-0.252-0.252-0.428-0.56-0.517-0.896l-0.985,0.986c1.093,1.366,2.506,2.156,4.203,2.35c0.261,0.03,0.534,0.045,0.81,0.045
		c2.562,0,5.537-1.276,7.958-3.414c0.092-0.081,0.209-0.125,0.331-0.125c0.143,0,0.28,0.062,0.375,0.169
		c0.183,0.207,0.163,0.523-0.043,0.706C20.977,21.802,17.752,23.172,14.948,23.172z M7.212,14.653c0.396,0,0.772,0.156,1.056,0.44
		c0.585,0.585,0.584,1.537-0.001,2.122l-3.185,3.182c-0.189,0.189-0.292,0.44-0.292,0.707s0.104,0.518,0.293,0.707
		c0.188,0.188,0.44,0.292,0.707,0.292c0.268,0,0.519-0.104,0.707-0.292l7.777-7.779c0.094-0.094,0.22-0.146,0.354-0.146
		s0.259,0.052,0.354,0.146c0.195,0.195,0.195,0.512,0,0.707l-2.832,2.833c-0.186,0.188-0.289,0.438-0.289,0.703
		c0,0.268,0.104,0.519,0.293,0.708c0.189,0.189,0.44,0.293,0.708,0.293c0.267,0,0.519-0.104,0.707-0.292l2.122-2.123
		c1.559-1.559,1.559-4.096,0-5.656L14.116,9.63l-0.026-0.022c-0.061-0.053-0.122-0.107-0.18-0.165
		c-0.053-0.053-0.102-0.109-0.15-0.164l-0.04-0.045l-1.568-1.568c-0.755-0.755-1.76-1.172-2.828-1.172S7.251,6.91,6.496,7.666
		L4.375,9.789C4.194,9.976,4.096,10.228,4.1,10.495c0.005,0.267,0.113,0.516,0.305,0.702c0.189,0.182,0.435,0.282,0.695,0.282
		c0.259,0,0.506-0.1,0.695-0.282l2.823-2.822c0.094-0.094,0.22-0.146,0.354-0.146S9.23,8.28,9.325,8.375s0.146,0.22,0.146,0.354
		c0,0.134-0.052,0.259-0.147,0.354l-7.779,7.777c-0.189,0.189-0.293,0.44-0.293,0.708c0,0.267,0.104,0.518,0.293,0.707
		c0.188,0.188,0.44,0.292,0.707,0.292c0.268,0,0.519-0.104,0.708-0.292l3.185-3.182c0.283-0.283,0.651-0.439,1.036-0.439
		C7.184,14.652,7.212,14.653,7.212,14.653z M16.622,10.737c0.972,1.108,1.394,2.567,1.181,4.01l2.835-2.834
		c0.949-0.971,1.123-2.465,0.472-3.629c-0.215,0.43-0.494,0.819-0.835,1.16c-0.85,0.85-1.98,1.318-3.182,1.318
		C16.936,10.762,16.778,10.753,16.622,10.737z M17.093,2.763c-0.936,0-1.815,0.363-2.475,1.023
		c-1.291,1.291-1.364,3.384-0.167,4.765l0.372,0.371c0.622,0.537,1.432,0.839,2.27,0.839c0.935,0,1.814-0.364,2.475-1.025
		c0.661-0.661,1.025-1.54,1.025-2.475s-0.364-1.814-1.025-2.475C18.908,3.127,18.029,2.763,17.093,2.763z M9.324,5.494
		c1.225,0,2.383,0.438,3.295,1.239c-0.141-1.338,0.322-2.684,1.292-3.653c0.341-0.341,0.729-0.621,1.16-0.835
		c-0.452-0.247-0.968-0.38-1.49-0.38c-0.808,0-1.568,0.307-2.14,0.863L8.636,5.543C8.864,5.51,9.094,5.494,9.324,5.494z"/>
</g>
</svg>
