<?xml version="1.0" encoding="utf-8"?>
<!-- Generator: Adobe Illustrator 22.1.0, SVG Export Plug-In . SVG Version: 6.00 Build 0)  -->
<svg version="1.1" id="Light" xmlns="http://www.w3.org/2000/svg" xmlns:xlink="http://www.w3.org/1999/xlink" x="0px" y="0px"
	 viewBox="0 0 24 24" style="enable-background:new 0 0 24 24;" xml:space="preserve">
<g>
	<title>boxing-bag</title>
	<path d="M8.5,24c-0.551,0-1-0.448-1-1v-0.5C7.5,21.673,8.173,21,9,21h2.5v-3.001H9c-0.827,0-1.5-0.673-1.5-1.5v-15
		c0-0.827,0.673-1.5,1.5-1.5h6c0.827,0,1.5,0.673,1.5,1.5v15c0,0.827-0.673,1.5-1.5,1.5h-2.5V21H15c0.827,0,1.5,0.673,1.5,1.5V23
		c0,0.552-0.448,1-1,1H8.5z M9,22c-0.276,0-0.5,0.224-0.5,0.5V23h7v-0.5c0-0.276-0.224-0.5-0.5-0.5H9z M8.5,16.499
		c0,0.276,0.224,0.5,0.5,0.5h6c0.276,0,0.5-0.224,0.5-0.5V15h-7V16.499z M15.5,14V4h-7v10H15.5z M15.5,3V1.499
		c0-0.276-0.224-0.5-0.5-0.5H9c-0.276,0-0.5,0.224-0.5,0.5V3H15.5z"/>
</g>
</svg>
