<?xml version="1.0" encoding="utf-8"?>
<!-- Generator: Adobe Illustrator 22.1.0, SVG Export Plug-In . SVG Version: 6.00 Build 0)  -->
<svg version="1.1" id="Light" xmlns="http://www.w3.org/2000/svg" xmlns:xlink="http://www.w3.org/1999/xlink" x="0px" y="0px"
	 viewBox="0 0 24 24" style="enable-background:new 0 0 24 24;" xml:space="preserve">
<g>
	<title>boxing-boxer-bag</title>
	<path d="M7.001,6c-1.654,0-3-1.346-3-3s1.346-3,3-3s3,1.346,3,3S8.655,6,7.001,6z M7.001,1c-1.103,0-2,0.897-2,2s0.897,2,2,2
		s2-0.897,2-2S8.103,1,7.001,1z"/>
	<path d="M8.001,24c-1.103,0-2-0.897-2-2v-3.283c0-0.183-0.045-0.358-0.127-0.514C5.86,18.239,5.845,18.275,5.83,18.31l-2,4.501
		c-0.321,0.722-1.039,1.188-1.83,1.188c-0.28,0-0.552-0.058-0.809-0.172c-1.008-0.448-1.464-1.632-1.016-2.64l1.827-4.112V14.5
		c0.003-0.15,0.021-0.294,0.054-0.432c0.002-0.032,0.008-0.063,0.016-0.094l1.5-5.5C3.808,7.606,4.601,7,5.501,7h5.836
		c0.376,0,0.753-0.086,1.091-0.25c0.33-0.162,0.701-0.249,1.071-0.25C14.879,6.5,16,7.621,16,9s-1.122,2.5-2.5,2.5
		c-0.371-0.001-0.743-0.088-1.076-0.251C12.096,11.089,11.709,11,11.336,11h-1.314c-0.007,0.001-0.015,0.001-0.021,0.001H7.029
		l-0.707,2.593l2.742,1.71c0.587,0.371,0.937,1.005,0.935,1.697V22C10.001,23.103,9.103,24,8.001,24z M5.665,16.837
		c0.127,0.001,0.247,0.036,0.351,0.101c0.616,0.385,0.984,1.05,0.985,1.778V22c0,0.552,0.449,1,1,1s1-0.448,1-1v-5
		c0.001-0.347-0.174-0.664-0.467-0.849l-3.056-1.906c-0.186-0.116-0.275-0.344-0.218-0.556l0.905-3.32
		c0.059-0.217,0.258-0.368,0.482-0.368h2.853V8h-4c-0.45,0-0.846,0.303-0.965,0.737l-1.484,5.442
		c-0.003,0.031-0.008,0.061-0.016,0.09c-0.022,0.079-0.033,0.16-0.035,0.241v2.671c0,0.07-0.014,0.138-0.043,0.203l-1.87,4.209
		c-0.108,0.244-0.115,0.515-0.019,0.765c0.096,0.25,0.283,0.447,0.527,0.555C1.724,22.97,1.86,22.999,2,22.999
		c0.396,0,0.756-0.233,0.916-0.594l2-4.5c0.056-0.128,0.085-0.264,0.085-0.404c0.001-0.366,0.298-0.663,0.663-0.663H5.665z
		 M11.336,10c0.532,0,1.058,0.121,1.529,0.351c0.198,0.097,0.418,0.149,0.637,0.149C14.328,10.5,15,9.827,15,9
		c0-0.827-0.673-1.5-1.5-1.5c-0.218,0.001-0.438,0.052-0.635,0.149C12.391,7.879,11.863,8,11.338,8h-0.838v2H11.336z"/>
	<path d="M18.5,17.5c-1.378,0-2.5-1.122-2.5-2.5V5.5C16,4.121,17.122,3,18.5,3h1V0.5C19.5,0.224,19.725,0,20,0s0.5,0.224,0.5,0.5V3
		h1C22.879,3,24,4.121,24,5.5V15c0,1.378-1.122,2.5-2.5,2.5H18.5z M17,15c0,0.827,0.673,1.5,1.5,1.5h3c0.827,0,1.5-0.673,1.5-1.5
		v-0.5h-6V15z M23,13.5V7h-6v6.5H23z M23,6V5.5C23,4.673,22.328,4,21.5,4h-3C17.673,4,17,4.673,17,5.5V6H23z"/>
</g>
</svg>
