<?xml version="1.0" encoding="utf-8"?>
<!-- Generator: Adobe Illustrator 22.1.0, SVG Export Plug-In . SVG Version: 6.00 Build 0)  -->
<svg version="1.1" id="Layer_1" xmlns="http://www.w3.org/2000/svg" xmlns:xlink="http://www.w3.org/1999/xlink" x="0px" y="0px"
	 viewBox="0 0 24 24" style="enable-background:new 0 0 24 24;" xml:space="preserve">
<g>
	<title>people-woman-12</title>
	<path d="M12,11.996c-0.648,0-1.287-0.212-1.8-0.597c-0.107-0.08-0.176-0.197-0.195-0.329C9.986,10.938,10.02,10.807,10.1,10.7
		c0.094-0.125,0.244-0.2,0.4-0.2c0.109,0,0.213,0.035,0.3,0.1c0.341,0.256,0.768,0.397,1.2,0.397c0.432,0,0.859-0.141,1.2-0.397
		c0.086-0.065,0.19-0.1,0.3-0.1c0.156,0,0.306,0.075,0.4,0.2c0.08,0.107,0.114,0.238,0.095,0.371
		c-0.019,0.132-0.088,0.249-0.195,0.329C13.287,11.785,12.648,11.996,12,11.996z"/>
	<circle cx="14" cy="8.5" r="0.75"/>
	<circle cx="10" cy="8.5" r="0.75"/>
	<path d="M23,24c-0.276,0-0.5-0.224-0.5-0.5v-3.106c0.003-0.461-0.212-0.903-0.575-1.183c-0.745-0.551-1.56-1.013-2.425-1.374v0.665
		c0.629,0.472,1,1.21,1,1.999c0,1.259-1.796,3.022-2.156,3.363C18.251,23.951,18.129,24,18,24s-0.251-0.049-0.344-0.137
		c-0.36-0.341-2.156-2.104-2.156-3.363c0-0.789,0.371-1.526,1-1.999v-1.569c-0.074-0.015-0.147-0.029-0.221-0.043
		c-0.497,1.541-1.769,2.688-3.367,3.019c-0.301,0.062-0.608,0.094-0.913,0.094c-1.953,0-3.679-1.269-4.276-3.113
		c-0.074,0.014-0.149,0.029-0.223,0.044v1.569c0.629,0.472,1,1.21,1,1.999c0,1.257-1.796,3.022-2.156,3.363
		C6.25,23.951,6.128,24,6,24s-0.25-0.049-0.344-0.137C5.296,23.522,3.5,21.757,3.5,20.5c0-0.789,0.371-1.526,1-1.999v-0.665
		c-0.865,0.362-1.682,0.825-2.433,1.38C1.71,19.492,1.497,19.932,1.5,20.391V23.5C1.5,23.776,1.276,24,1,24s-0.5-0.224-0.5-0.5
		v-3.106c-0.005-0.766,0.355-1.505,0.965-1.975c0.932-0.69,1.951-1.246,3.035-1.658V7.5C4.5,3.365,7.865,0,12,0s7.5,3.365,7.5,7.5
		v9.261c1.083,0.412,2.101,0.967,3.027,1.652c0.616,0.474,0.978,1.215,0.973,1.984V23.5C23.5,23.776,23.276,24,23,24z M18,19
		c-0.827,0-1.5,0.673-1.5,1.5c0,0.508,0.727,1.485,1.5,2.292c0.773-0.808,1.5-1.785,1.5-2.292C19.5,19.673,18.827,19,18,19z M6,19
		c-0.827,0-1.5,0.673-1.5,1.5c0,0.508,0.727,1.485,1.5,2.292c0.773-0.808,1.5-1.785,1.5-2.292C7.5,19.673,6.827,19,6,19z
		 M8.724,16.721c0.505,1.356,1.813,2.28,3.276,2.28c0.237,0,0.475-0.024,0.709-0.073c1.191-0.247,2.154-1.081,2.571-2.207
		c-1.032-0.148-2.076-0.223-3.107-0.223h-0.362C10.79,16.499,9.753,16.574,8.724,16.721z M18,18c0.167,0,0.334,0.017,0.5,0.052V7.5
		C18.5,3.916,15.584,1,12,1C8.416,1,5.5,3.916,5.5,7.5v10.552C5.665,18.017,5.833,18,6,18s0.335,0.017,0.5,0.052V6.975
		c0-0.141,0.06-0.277,0.165-0.371c0.092-0.083,0.211-0.129,0.336-0.129c0.008,0,0.041,0.002,0.049,0.002
		C7.195,6.492,7.342,6.5,7.476,6.5c1.737,0,3.326-0.996,4.074-2.536c0.081-0.167,0.253-0.27,0.45-0.27s0.369,0.104,0.45,0.27
		C13.197,5.505,14.786,6.5,16.499,6.5c0.156,0,0.305-0.008,0.45-0.022c0.008-0.001,0.041-0.003,0.05-0.003
		c0.125,0,0.244,0.046,0.336,0.129C17.44,6.698,17.5,6.834,17.5,6.975v11.077C17.666,18.017,17.833,18,18,18z M16.051,15.832
		c0.15,0.026,0.299,0.053,0.449,0.082v-3.265C15.48,14.101,13.799,15,12,15c-1.799,0-3.48-0.899-4.5-2.351v3.265
		c0.15-0.029,0.3-0.056,0.451-0.082c0.012-0.004,0.023-0.007,0.033-0.009C8,15.819,8.021,15.817,8.037,15.817
		c1.241-0.21,2.506-0.318,3.745-0.318l0.223,0.001l0.18-0.001c1.252,0,2.524,0.107,3.779,0.317c0.016,0,0.037,0.002,0.052,0.005
		C16.026,15.824,16.039,15.827,16.051,15.832z M7.5,9.5c0,2.481,2.019,4.5,4.5,4.5c2.481,0,4.5-2.019,4.5-4.5v-2l-0.007,0
		c-1.779,0-3.468-0.887-4.493-2.338C10.975,6.613,9.286,7.5,7.501,7.5c0,0-0.001,0-0.001,0V9.5z"/>
</g>
</svg>
