<?xml version="1.0" encoding="utf-8"?>
<!-- Generator: Adobe Illustrator 22.1.0, SVG Export Plug-In . SVG Version: 6.00 Build 0)  -->
<svg version="1.1" id="Layer_1" xmlns="http://www.w3.org/2000/svg" xmlns:xlink="http://www.w3.org/1999/xlink" x="0px" y="0px"
	 viewBox="0 0 24 24" style="enable-background:new 0 0 24 24;" xml:space="preserve">
<g>
	<title>people-woman-8</title>
	<path d="M12,13.998c-0.648,0-1.287-0.212-1.8-0.597c-0.107-0.08-0.176-0.197-0.195-0.329c-0.019-0.132,0.015-0.264,0.095-0.371
		c0.094-0.125,0.243-0.2,0.4-0.2c0.109,0,0.212,0.035,0.3,0.1c0.342,0.256,0.768,0.397,1.2,0.397c0.432,0,0.859-0.141,1.2-0.397
		c0.087-0.065,0.191-0.1,0.3-0.1c0.157,0,0.306,0.075,0.4,0.2c0.08,0.106,0.114,0.238,0.095,0.37
		c-0.019,0.132-0.088,0.25-0.195,0.33C13.287,13.786,12.648,13.998,12,13.998z"/>
	<circle cx="14" cy="10.501" r="0.75"/>
	<circle cx="10" cy="10.501" r="0.75"/>
	<path d="M11.998,24.007c-0.524,0-1.033-0.116-1.511-0.346c-0.73-0.35-1.312-0.937-1.653-1.664c-1.519-0.072-2.815-1.117-3.21-2.572
		c-1.731,0.567-2.881,1.28-3.551,1.789c-0.361,0.278-0.576,0.719-0.573,1.178v1.109c0,0.276-0.224,0.5-0.5,0.5s-0.5-0.224-0.5-0.5
		v-1.106c-0.005-0.767,0.355-1.506,0.965-1.975c1.125-0.856,3.654-2.354,7.966-2.792c0.002,0,0.199-0.019,0.199-0.019
		c0.122-0.011,0.245-0.022,0.37-0.032l0.238-0.017c0.111-0.008,0.222-0.014,0.336-0.021c0.084-0.005,0.169-0.009,0.254-0.012
		c0.114-0.005,0.231-0.009,0.347-0.013l0.234-0.007c0.183-0.004,0.368-0.006,0.556-0.007c0,0,0.03,0,0.03,0
		c0.209,0,0.408,0.003,0.606,0.007l0.181,0.005c0.141,0.004,0.28,0.009,0.417,0.015l0.193,0.01c0.146,0.008,0.291,0.017,0.434,0.026
		l0.138,0.01c4.677,0.353,7.377,1.934,8.571,2.844c0.611,0.471,0.972,1.21,0.967,1.98v1.103c0,0.276-0.224,0.5-0.5,0.5
		s-0.5-0.224-0.5-0.5v-1.106c0.003-0.461-0.212-0.903-0.575-1.183c-0.667-0.509-1.815-1.222-3.548-1.789
		c-0.394,1.456-1.691,2.502-3.211,2.574c-0.397,0.844-1.12,1.499-2.005,1.81C12.784,23.94,12.392,24.007,11.998,24.007z
		 M6.585,19.143C6.87,20.232,7.852,21.001,9,21.001h0.17c0.212,0,0.401,0.134,0.472,0.334c0.352,0.999,1.3,1.671,2.36,1.671
		c0.281,0,0.56-0.048,0.828-0.142c0.719-0.253,1.276-0.81,1.529-1.529c0.07-0.2,0.26-0.334,0.472-0.334H15
		c1.148,0,2.131-0.77,2.416-1.86c-0.785-0.204-1.622-0.361-2.494-0.468c-0.296,1.295-1.428,2.257-2.777,2.323
		C12.094,20.999,12.045,21,11.995,21c-1.396,0-2.611-0.984-2.921-2.325C8.204,18.782,7.369,18.939,6.585,19.143z M10.081,18.574
		C10.331,19.403,11.11,20,11.991,20c0.034,0,0.069-0.001,0.103-0.003c0.869-0.042,1.583-0.614,1.82-1.424
		c-0.054-0.004-0.313-0.022-0.313-0.022c-0.119-0.008-0.238-0.014-0.358-0.02l-0.174-0.009c-0.124-0.005-0.25-0.009-0.376-0.012
		l-0.156-0.005c-0.178-0.004-0.358-0.006-0.541-0.006l-0.008-0.25l0,0.25c-0.355,0-0.705,0.008-1.069,0.023l-0.104,0.005
		C10.569,18.541,10.323,18.556,10.081,18.574z"/>
	<path d="M12,17.001c-3.584,0-6.5-2.916-6.5-6.5v-4c0-0.276,0.224-0.5,0.5-0.5s0.5,0.224,0.5,0.5v1.5h2v-1.5
		c0-0.276,0.224-0.5,0.5-0.5s0.5,0.224,0.5,0.5v1.5h2v-1.5c0-0.276,0.224-0.5,0.5-0.5c0.276,0,0.5,0.224,0.5,0.5v1.5h2v-1.5
		c0-0.276,0.224-0.5,0.5-0.5s0.5,0.224,0.5,0.5v1.5h2v-1.5c0-0.276,0.224-0.5,0.5-0.5s0.5,0.224,0.5,0.5v4
		C18.5,14.086,15.584,17.001,12,17.001z M6.5,10.501c0,3.033,2.467,5.5,5.5,5.5s5.5-2.467,5.5-5.5v-1.5h-11V10.501z"/>
	<path d="M17,5.001c-0.276,0-0.5-0.224-0.5-0.5s0.224-0.5,0.5-0.5c0.827,0,1.5-0.673,1.5-1.5s-0.673-1.5-1.5-1.5s-1.5,0.673-1.5,1.5
		c0,0.276-0.224,0.5-0.5,0.5s-0.5-0.224-0.5-0.5c0-1.379,1.122-2.5,2.5-2.5s2.5,1.121,2.5,2.5S18.378,5.001,17,5.001z"/>
	<path d="M20,18.001c-0.276,0-0.5-0.224-0.5-0.5v-9c0.001-0.992-0.191-1.958-0.571-2.874c-0.051-0.123-0.051-0.259,0-0.383
		c0.051-0.123,0.147-0.219,0.271-0.271c0.061-0.025,0.125-0.038,0.191-0.038c0.203,0,0.384,0.121,0.462,0.308
		c0.431,1.039,0.648,2.135,0.647,3.259v9C20.5,17.777,20.276,18.001,20,18.001z"/>
	<path d="M4,18.001c-0.276,0-0.5-0.224-0.5-0.5v-9c0.001-0.624,0.071-1.248,0.207-1.855c0.498-2.217,1.83-4.107,3.75-5.322
		c1.366-0.864,2.934-1.321,4.533-1.321c0.628,0,1.261,0.071,1.882,0.21c0.269,0.061,0.438,0.328,0.378,0.597
		c-0.052,0.23-0.252,0.39-0.487,0.39c-0.037,0-0.073-0.004-0.109-0.012c-0.549-0.123-1.107-0.186-1.662-0.186
		c-1.411,0-2.794,0.403-3.999,1.166C6.298,3.242,5.123,4.91,4.683,6.866C4.562,7.402,4.501,7.952,4.5,8.502v8.999
		C4.5,17.777,4.276,18.001,4,18.001z"/>
</g>
</svg>
