<?xml version="1.0" encoding="utf-8"?>
<!-- Generator: Adobe Illustrator 22.1.0, SVG Export Plug-In . SVG Version: 6.00 Build 0)  -->
<svg version="1.1" id="Layer_1" xmlns="http://www.w3.org/2000/svg" xmlns:xlink="http://www.w3.org/1999/xlink" x="0px" y="0px"
	 viewBox="0 0 24 24" style="enable-background:new 0 0 24 24;" xml:space="preserve">
<g>
	<title>people-woman-cap-2</title>
	<path d="M12,11.996c-0.648,0-1.287-0.212-1.8-0.597c-0.107-0.08-0.176-0.197-0.195-0.329C9.986,10.938,10.02,10.807,10.1,10.7
		c0.094-0.125,0.244-0.2,0.4-0.2c0.109,0,0.213,0.035,0.3,0.1c0.341,0.256,0.768,0.397,1.2,0.397c0.432,0,0.859-0.141,1.2-0.397
		c0.086-0.065,0.19-0.1,0.3-0.1c0.156,0,0.306,0.075,0.4,0.2c0.08,0.107,0.114,0.238,0.095,0.371
		c-0.019,0.132-0.088,0.249-0.195,0.329C13.287,11.785,12.648,11.996,12,11.996z"/>
	<path d="M23,24c-0.276,0-0.5-0.224-0.5-0.5v-3.106c0.003-0.461-0.212-0.903-0.575-1.183c-1-0.763-2.785-1.778-5.645-2.327
		c-0.496,1.544-1.768,2.693-3.368,3.024c-0.301,0.062-0.608,0.094-0.913,0.094c-1.955,0-3.682-1.271-4.277-3.117
		c-2.855,0.55-4.644,1.564-5.649,2.328c-0.361,0.278-0.576,0.719-0.573,1.178V23.5C1.5,23.776,1.276,24,1,24s-0.5-0.224-0.5-0.5
		v-3.106c-0.005-0.766,0.355-1.505,0.965-1.975c1.151-0.875,3.214-2.035,6.512-2.595c0.013-0.003,0.026-0.005,0.039-0.006
		C9.279,15.605,10.613,15.5,12,15.5c5.839,0,9.105,1.828,10.533,2.917c0.611,0.471,0.972,1.211,0.967,1.98V23.5
		C23.5,23.776,23.276,24,23,24z M8.723,16.719c0.504,1.357,1.813,2.282,3.277,2.282c0.237,0,0.475-0.024,0.709-0.073
		c1.192-0.247,2.155-1.082,2.572-2.209C14.242,16.574,13.139,16.5,12,16.5C10.864,16.5,9.763,16.574,8.723,16.719z"/>
	<circle cx="14" cy="8.5" r="0.75"/>
	<circle cx="10" cy="8.5" r="0.75"/>
	<path d="M12,15c-2.73,0-5.171-1.747-6.1-4.26c-0.355,1.05-0.95,2.193-1.94,2.846l-0.233,0.149l0.214-0.13
		c0.502,0.226,1.048,0.342,1.61,0.342c0.276,0,0.553-0.029,0.826-0.085c0.033-0.007,0.068-0.011,0.104-0.011
		c0.235,0,0.44,0.167,0.488,0.398c0.027,0.131,0.002,0.264-0.071,0.376c-0.073,0.112-0.186,0.188-0.316,0.216
		c-0.339,0.071-0.685,0.107-1.028,0.107c-0.706,0-1.394-0.148-2.044-0.44c-0.187-0.096-0.325-0.223-0.422-0.383
		c-0.287-0.475-0.135-1.095,0.339-1.383C5.061,11.662,5.5,8.624,5.5,7V6.5C5.5,2.916,8.416,0,12,0c3.422,0,6.223,2.616,6.48,6H22
		c0.276,0,0.5,0.224,0.5,0.5S22.276,7,22,7h-3.5c0,1.624,0.44,4.663,2.09,5.753c0.218,0.132,0.377,0.351,0.44,0.612
		s0.021,0.531-0.117,0.759c-0.096,0.159-0.234,0.287-0.398,0.372c-0.669,0.301-1.362,0.451-2.069,0.451
		c-0.331,0-0.664-0.033-0.99-0.099c-0.131-0.026-0.244-0.102-0.318-0.213c-0.074-0.111-0.1-0.245-0.074-0.376
		c0.047-0.233,0.253-0.401,0.489-0.401c0.034,0,0.068,0.003,0.101,0.01c0.261,0.053,0.528,0.08,0.793,0.08
		c0.553,0,1.092-0.114,1.603-0.338c-0.997-0.671-1.595-1.818-1.951-2.87C17.172,13.252,14.731,15,12,15z M6.5,8.5
		c0,3.033,2.467,5.5,5.5,5.5s5.5-2.467,5.5-5.5V7h-11V8.5z M17.477,6C17.223,3.176,14.866,1,12,1C9.922,1,8.039,2.166,7.102,4H8.5
		C8.776,4,9,4.224,9,4.5S8.776,5,8.5,5H6.709C6.616,5.326,6.554,5.661,6.524,6H17.477z"/>
</g>
</svg>
