<?xml version="1.0" encoding="utf-8"?>
<!-- Generator: Adobe Illustrator 22.1.0, SVG Export Plug-In . SVG Version: 6.00 Build 0)  -->
<svg version="1.1" id="Layer_1" xmlns="http://www.w3.org/2000/svg" xmlns:xlink="http://www.w3.org/1999/xlink" x="0px" y="0px"
	 viewBox="0 0 24 24" style="enable-background:new 0 0 24 24;" xml:space="preserve">
<g>
	<title>people-woman-11</title>
	<circle cx="14" cy="9.5" r="0.75"/>
	<circle cx="10" cy="9.5" r="0.75"/>
	<path d="M12,16c-2.731,0-5.172-1.748-6.1-4.261c-0.356,1.052-0.951,2.197-1.937,2.849l-0.019,0.018
		c0.502,0.227,1.047,0.343,1.609,0.343c0.275,0,0.553-0.029,0.825-0.085c0.033-0.007,0.068-0.011,0.104-0.011
		c0.235,0,0.44,0.167,0.488,0.398c0.027,0.131,0.002,0.264-0.071,0.376c-0.073,0.112-0.186,0.188-0.316,0.216
		c-0.338,0.07-0.684,0.106-1.026,0.106c-0.706,0-1.393-0.148-2.043-0.44c-0.187-0.096-0.325-0.223-0.423-0.384
		c-0.287-0.475-0.135-1.094,0.34-1.382c0.756-0.501,1.364-1.56,1.724-2.977c-0.581,0.553-1.43,0.985-2.423,0.985
		c-0.177,0-0.356-0.014-0.533-0.041c-0.123-0.019-0.234-0.082-0.312-0.178c-0.08-0.099-0.125-0.228-0.12-0.347
		c0.054-1.321,0.828-2.324,1.686-2.849c-0.858-0.526-1.632-1.529-1.686-2.85C1.758,5.365,1.798,5.245,1.875,5.15
		c0.081-0.1,0.201-0.17,0.32-0.188c0.177-0.027,0.355-0.04,0.531-0.04c1.219,0,2.22,0.648,2.777,1.375C5.611,2.806,8.484,0,12,0
		c3.584,0,6.5,2.916,6.5,6.5v1.902c0.005,0.019,0.011,0.045,0.012,0.075c0.094,1.948,0.689,4.358,2.076,5.277
		c0.218,0.131,0.377,0.351,0.44,0.612c0.063,0.261,0.021,0.531-0.117,0.759c-0.096,0.159-0.234,0.287-0.398,0.372
		c-0.673,0.304-1.368,0.455-2.078,0.455c-0.345,0-0.695-0.037-1.038-0.109c-0.131-0.028-0.243-0.104-0.316-0.216
		s-0.098-0.246-0.07-0.376c0.049-0.23,0.254-0.397,0.489-0.397c0.034,0,0.069,0.004,0.104,0.011
		c0.276,0.058,0.556,0.088,0.834,0.088c0.556,0,1.097-0.115,1.611-0.341c-0.994-0.67-1.592-1.819-1.949-2.872
		C17.173,14.252,14.731,16,12,16z M6.5,9.5c0,3.033,2.467,5.5,5.5,5.5s5.5-2.467,5.5-5.5V8.805C16.932,8.553,15.309,8,12,8
		C8.692,8,7.068,8.553,6.5,8.806V9.5z M4.748,8.923c-0.105,0-0.229,0.023-0.36,0.067c-0.62,0.208-1.334,0.836-1.558,1.756
		c0.949-0.046,1.708-0.64,2.022-1.193c0.173-0.304,0.165-0.507,0.12-0.563C4.937,8.948,4.854,8.923,4.748,8.923z M2.83,5.926
		c0.224,0.92,0.938,1.547,1.558,1.756C4.521,7.726,4.646,7.75,4.752,7.75c0.121,0,0.189-0.03,0.212-0.058
		c0-0.001,0.006-0.007,0.008-0.01c0.049-0.06,0.045-0.274-0.119-0.563C4.539,6.567,3.781,5.974,2.83,5.926z M12,1
		C8.967,1,6.5,3.467,6.5,6.5v1.228C7.388,7.409,9.093,7,12,7c2.907,0,4.612,0.409,5.5,0.728V6.5C17.5,3.467,15.033,1,12,1z"/>
	<path d="M12,12.997c-0.648,0-1.287-0.212-1.8-0.597c-0.107-0.08-0.176-0.197-0.195-0.329C9.986,11.938,10.02,11.807,10.1,11.7
		c0.094-0.125,0.244-0.2,0.4-0.2c0.109,0,0.213,0.035,0.3,0.1c0.341,0.256,0.768,0.397,1.2,0.397c0.432,0,0.859-0.141,1.2-0.397
		c0.086-0.065,0.19-0.1,0.3-0.1c0.157,0,0.306,0.075,0.4,0.2c0.08,0.106,0.114,0.238,0.095,0.37
		c-0.019,0.132-0.088,0.249-0.195,0.329C13.287,12.785,12.648,12.997,12,12.997z"/>
	<path d="M23,24c-0.276,0-0.5-0.224-0.5-0.5v-2.106c0.003-0.461-0.212-0.903-0.575-1.183c-0.48-0.366-1.278-0.889-2.425-1.372V23.5
		c0,0.276-0.224,0.5-0.5,0.5s-0.5-0.224-0.5-0.5v-5.038c-0.511-0.172-1.051-0.323-1.609-0.45c-0.475,2.292-2.53,3.989-4.888,3.989
		c-0.151,0-0.307-0.007-0.462-0.021c-2.203-0.203-3.991-1.818-4.433-3.966c-0.557,0.127-1.097,0.278-1.608,0.45V23.5
		C5.5,23.776,5.276,24,5,24s-0.5-0.224-0.5-0.5v-4.658c-1.146,0.483-1.945,1.004-2.427,1.371c-0.361,0.278-0.576,0.719-0.573,1.178
		V23.5C1.5,23.776,1.276,24,1,24s-0.5-0.224-0.5-0.5v-2.106c-0.005-0.766,0.355-1.505,0.965-1.975
		c0.638-0.485,1.735-1.185,3.348-1.772c0.824-0.299,1.698-0.54,2.614-0.722c0.014-0.004,0.029-0.007,0.043-0.009
		C8.881,16.64,10.403,16.5,12,16.5c5.839,0,9.105,1.828,10.533,2.917c0.611,0.471,0.972,1.211,0.967,1.98V23.5
		C23.5,23.776,23.276,24,23,24z M8.088,17.818c0.356,1.717,1.781,3.004,3.545,3.166c0.123,0.011,0.248,0.017,0.371,0.017
		c1.886,0,3.524-1.353,3.907-3.185C14.69,17.606,13.376,17.5,12,17.5C10.625,17.5,9.31,17.607,8.088,17.818z"/>
</g>
</svg>
