<?xml version="1.0" encoding="utf-8"?>
<!-- Generator: Adobe Illustrator 22.1.0, SVG Export Plug-In . SVG Version: 6.00 Build 0)  -->
<svg version="1.1" id="Layer_1" xmlns="http://www.w3.org/2000/svg" xmlns:xlink="http://www.w3.org/1999/xlink" x="0px" y="0px"
	 viewBox="0 0 24 24" style="enable-background:new 0 0 24 24;" xml:space="preserve">
<g>
	<title>people-woman-cap-3</title>
	<path d="M12,11.996c-0.648,0-1.287-0.212-1.8-0.597c-0.107-0.08-0.176-0.197-0.195-0.329C9.986,10.938,10.02,10.807,10.1,10.7
		c0.094-0.125,0.244-0.2,0.4-0.2c0.109,0,0.213,0.035,0.3,0.1c0.341,0.256,0.768,0.397,1.2,0.397c0.432,0,0.859-0.141,1.2-0.397
		c0.086-0.065,0.19-0.1,0.3-0.1c0.156,0,0.306,0.075,0.4,0.2c0.08,0.107,0.114,0.238,0.095,0.371
		c-0.019,0.132-0.088,0.249-0.195,0.329C13.287,11.785,12.648,11.996,12,11.996z"/>
	<path d="M23,24c-0.276,0-0.5-0.224-0.5-0.5v-3.106c0.003-0.461-0.212-0.903-0.575-1.183c-1-0.763-2.785-1.778-5.645-2.327
		c-0.496,1.544-1.768,2.693-3.368,3.024c-0.13,0.027-0.264,0.047-0.412,0.062v3.53c0,0.276-0.224,0.5-0.5,0.5
		c-0.276,0-0.5-0.224-0.5-0.5v-3.529c-1.759-0.196-3.236-1.402-3.778-3.086c-2.855,0.55-4.644,1.564-5.649,2.328
		c-0.361,0.278-0.576,0.719-0.573,1.178V23.5C1.5,23.776,1.276,24,1,24s-0.5-0.224-0.5-0.5v-3.106
		c-0.005-0.766,0.355-1.505,0.965-1.975c1.151-0.875,3.214-2.035,6.512-2.595c0.013-0.003,0.026-0.005,0.039-0.006
		C9.279,15.605,10.613,15.5,12,15.5c5.839,0,9.105,1.828,10.533,2.917c0.611,0.471,0.972,1.211,0.967,1.98V23.5
		C23.5,23.776,23.276,24,23,24z M12.5,18.964c0.073-0.01,0.143-0.021,0.209-0.035c1.192-0.247,2.155-1.082,2.572-2.209
		c-0.884-0.124-1.817-0.195-2.781-0.213V18.964z M8.723,16.719c0.444,1.196,1.513,2.059,2.777,2.242v-2.456
		C10.537,16.524,9.605,16.596,8.723,16.719z"/>
	<circle cx="14" cy="8.5" r="0.75"/>
	<circle cx="10" cy="8.5" r="0.75"/>
	<path d="M11,5c-0.276,0-0.5-0.224-0.5-0.5S10.724,4,11,4h2c0.276,0,0.5,0.224,0.5,0.5S13.276,5,13,5H11z"/>
	<circle cx="14.5" cy="22" r="0.75"/>
	<path d="M12,15c-2.73,0-5.171-1.747-6.1-4.26c-0.355,1.05-0.95,2.193-1.94,2.846l-0.233,0.149l0.214-0.13
		c0.503,0.226,1.048,0.343,1.61,0.343c0.286,0,0.574-0.031,0.857-0.092c0.035-0.008,0.071-0.011,0.107-0.011
		c0.233,0,0.438,0.166,0.488,0.394c0.058,0.27-0.114,0.536-0.383,0.595c-0.353,0.076-0.711,0.115-1.066,0.115
		c-0.705,0-1.393-0.148-2.044-0.44c-0.187-0.096-0.325-0.223-0.422-0.383c-0.287-0.475-0.135-1.095,0.339-1.383
		C5.061,11.662,5.5,8.624,5.5,7V6.5C5.5,2.916,8.416,0,12,0c3.584,0,6.5,2.916,6.5,6.5V7c0,1.624,0.44,4.663,2.09,5.753
		c0.218,0.132,0.377,0.351,0.44,0.612s0.021,0.531-0.117,0.759c-0.096,0.159-0.234,0.287-0.398,0.372
		c-0.671,0.302-1.363,0.451-2.071,0.451c-0.352,0-0.707-0.038-1.056-0.113c-0.27-0.058-0.442-0.324-0.384-0.594
		c0.049-0.229,0.254-0.395,0.487-0.395c0.036,0,0.073,0.004,0.108,0.012c0.279,0.06,0.564,0.09,0.847,0.09
		c0.553,0,1.092-0.114,1.604-0.338c-0.997-0.671-1.595-1.818-1.951-2.87C17.172,13.252,14.731,15,12,15z M6.5,8.5
		c0,3.033,2.467,5.5,5.5,5.5s5.5-2.467,5.5-5.5V7h-11V8.5z M17.477,6C17.223,3.176,14.866,1,12,1C9.134,1,6.777,3.176,6.523,6
		H17.477z"/>
</g>
</svg>
