<?xml version="1.0" encoding="utf-8"?>
<!-- Generator: Adobe Illustrator 22.1.0, SVG Export Plug-In . SVG Version: 6.00 Build 0)  -->
<svg version="1.1" id="Layer_1" xmlns="http://www.w3.org/2000/svg" xmlns:xlink="http://www.w3.org/1999/xlink" x="0px" y="0px"
	 viewBox="0 0 24 24" style="enable-background:new 0 0 24 24;" xml:space="preserve">
<g>
	<title>professional-tool-google-drive</title>
	<path d="M4.064,22.989c-0.06,0-0.116-0.011-0.175-0.034c-0.008-0.003-0.036-0.015-0.044-0.019c-0.041-0.02-0.08-0.046-0.115-0.076
		c-0.009-0.008-0.019-0.016-0.026-0.024c-0.028-0.029-0.056-0.065-0.077-0.104l-3.564-6.429c-0.084-0.152-0.083-0.341,0.004-0.492
		l7.812-13.56c0.029-0.05,0.067-0.094,0.116-0.134C8,2.112,8.023,2.094,8.029,2.09C8.114,2.031,8.212,2,8.312,2h7.077
		c0.181,0,0.348,0.098,0.437,0.256l7.816,13.989c0.086,0.154,0.084,0.344-0.005,0.497c-0.003,0.005-0.006,0.01-0.01,0.016
		l-3.409,5.979c-0.089,0.156-0.256,0.252-0.435,0.252H4.064z M19.493,21.989l2.851-5H7.77l-2.846,5H19.493z M4.07,21.468
		c4.106-7.214,6.586-11.569,7.205-12.651C10.06,6.641,8.911,4.585,8.308,3.51L1.074,16.065L4.07,21.468z M22.353,15.989L15.096,3
		H9.168c1.396,2.488,5.772,10.332,7.254,12.989H22.353z M15.278,15.989l-3.433-6.152c-0.697,1.221-2.106,3.694-3.505,6.152H15.278z"
		/>
</g>
</svg>
