<?xml version="1.0" encoding="utf-8"?>
<!-- Generator: Adobe Illustrator 22.1.0, SVG Export Plug-In . SVG Version: 6.00 Build 0)  -->
<svg version="1.1" id="Layer_1" xmlns="http://www.w3.org/2000/svg" xmlns:xlink="http://www.w3.org/1999/xlink" x="0px" y="0px"
	 viewBox="0 0 24 24" style="enable-background:new 0 0 24 24;" xml:space="preserve">
<g>
	<title>accounting-invoice</title>
	<path d="M7.004,21c-0.551,0-1-0.448-1-1v-7c0-0.552,0.449-1,1-1h10c0.552,0,1,0.448,1,1v7c0,0.552-0.448,1-1,1H7.004z M17.004,20
		v-5h-4v5H17.004z M12.004,20v-5h-2v5H12.004z M7.004,20h2v-5h-2V20z M17.004,14v-1h-4v1H17.004z M12.004,14v-1h-2v1H12.004z
		 M9.004,14v-1h-2l0,1H9.004z"/>
	<path d="M4.5,24C3.673,24,3,23.327,3,22.5v-21C3,0.673,3.673,0,4.5,0h9c0.066,0,0.131,0.013,0.193,0.039
		c0.06,0.025,0.115,0.061,0.161,0.108l7,7c0.046,0.046,0.083,0.1,0.108,0.161C20.987,7.37,21,7.434,21,7.5v15
		c0,0.827-0.673,1.5-1.5,1.5H4.5z M4.5,1C4.224,1,4,1.224,4,1.5v21C4,22.776,4.224,23,4.5,23h15c0.276,0,0.5-0.224,0.5-0.5V8h-5.5
		C13.673,8,13,7.327,13,6.5V1H4.5z M14,6.5C14,6.776,14.224,7,14.5,7h4.793L14,1.707V6.5z"/>
	<path d="M8.504,10c-0.276,0-0.5-0.224-0.5-0.5V9H6.5C6.224,9,6,8.776,6,8.5S6.224,8,6.5,8h3C9.776,8,10,7.776,10,7.5S9.776,7,9.5,7
		h-2C6.673,7,6,6.327,6,5.5S6.673,4,7.5,4h0.504V3.5c0-0.276,0.224-0.5,0.5-0.5s0.5,0.224,0.5,0.5V4H10.5C10.776,4,11,4.224,11,4.5
		S10.776,5,10.5,5h-3C7.224,5,7,5.224,7,5.5S7.224,6,7.5,6h2C10.327,6,11,6.673,11,7.5S10.327,9,9.5,9H9.004v0.5
		C9.004,9.776,8.78,10,8.504,10z"/>
</g>
</svg>
