<?xml version="1.0" encoding="utf-8"?>
<!-- Generator: Adobe Illustrator 22.1.0, SVG Export Plug-In . SVG Version: 6.00 Build 0)  -->
<svg version="1.1" id="Layer_1" xmlns="http://www.w3.org/2000/svg" xmlns:xlink="http://www.w3.org/1999/xlink" x="0px" y="0px"
	 viewBox="0 0 24 24" style="enable-background:new 0 0 24 24;" xml:space="preserve">
<g>
	<title>accounting-calculator</title>
	<path d="M5.004,24c-0.827,0-1.5-0.673-1.5-1.5v-21c0-0.827,0.673-1.5,1.5-1.5h14c0.827,0,1.5,0.673,1.5,1.5v21
		c0,0.827-0.673,1.5-1.5,1.5H5.004z M4.504,22.5c0,0.276,0.224,0.5,0.5,0.5h14c0.276,0,0.5-0.224,0.5-0.5V8h-15V22.5z M19.504,7V1.5
		c0-0.276-0.224-0.5-0.5-0.5h-14c-0.276,0-0.5,0.224-0.5,0.5V7H19.504z"/>
	<path d="M16.004,5c-0.276,0-0.5-0.224-0.5-0.5v-1c0-0.276,0.224-0.5,0.5-0.5s0.5,0.224,0.5,0.5v1C16.504,4.776,16.28,5,16.004,5z"
		/>
	<path d="M11.004,20c-0.276,0-0.5-0.224-0.5-0.5s0.224-0.5,0.5-0.5h5.5c0.276,0,0.5,0.224,0.5,0.5s-0.224,0.5-0.5,0.5H11.004z"/>
	<circle cx="8" cy="19.5" r="0.75"/>
	<circle cx="8" cy="15.5" r="0.75"/>
	<path d="M12,16.25c-0.414,0-0.75-0.336-0.75-0.75s0.336-0.75,0.75-0.75c0.414,0,0.75,0.336,0.75,0.75S12.414,16.25,12,16.25z"/>
	<circle cx="16" cy="15.5" r="0.75"/>
	<circle cx="8" cy="11.5" r="0.75"/>
	<path d="M12,12.25c-0.414,0-0.75-0.336-0.75-0.75s0.336-0.75,0.75-0.75c0.414,0,0.75,0.336,0.75,0.75S12.414,12.25,12,12.25z"/>
	<circle cx="16" cy="11.5" r="0.75"/>
</g>
</svg>
