<?xml version="1.0" encoding="utf-8"?>
<!-- Generator: Adobe Illustrator 22.1.0, SVG Export Plug-In . SVG Version: 6.00 Build 0)  -->
<svg version="1.1" id="Layer_1" xmlns="http://www.w3.org/2000/svg" xmlns:xlink="http://www.w3.org/1999/xlink" x="0px" y="0px"
	 viewBox="0 0 24 24" style="enable-background:new 0 0 24 24;" xml:space="preserve">
<g>
	<title>accounting-coins</title>
	<path d="M8.002,24.007c-0.19,0-0.384-0.007-0.574-0.021c-2.131-0.152-4.076-1.124-5.476-2.739c-1.4-1.615-2.087-3.678-1.935-5.809
		c0.297-4.166,3.801-7.429,7.978-7.429c0.003,0,0.006,0,0.009,0c0-0.003,0-0.006,0-0.009c0-4.411,3.589-8,8-8s8,3.589,8,8
		s-3.589,8-8,8c-0.004,0-0.007,0-0.011,0c0.002,0.207-0.004,0.397-0.016,0.575C15.68,20.742,12.177,24.007,8.002,24.007
		L8.002,24.007z M7.994,9.009c-3.654,0-6.719,2.855-6.979,6.5c-0.133,1.865,0.468,3.67,1.693,5.083
		c1.225,1.413,2.927,2.264,4.792,2.397c0.167,0.012,0.336,0.018,0.503,0.018c3.652,0,6.717-2.856,6.977-6.503
		c0.012-0.175,0.017-0.363,0.013-0.569c-3.605-0.457-6.469-3.321-6.925-6.926C8.043,9.009,8.018,9.009,7.994,9.009z M15.469,14.974
		c0.041,0,0.074,0.007,0.095,0.011C15.694,14.993,15.848,15,16.004,15c3.86,0,7-3.14,7-7s-3.14-7-7-7c-3.86,0-7,3.14-7,7
		c0,0.159,0.007,0.316,0.018,0.472c0.003,0.003,0.01,0.042,0.007,0.089c0,0,0,0,0,0.001c0.271,3.393,3.021,6.142,6.414,6.413
		C15.45,14.975,15.463,14.974,15.469,14.974z"/>
	<path d="M7.504,21c-0.276,0-0.5-0.224-0.5-0.5V20H6c-0.276,0-0.5-0.224-0.5-0.5S5.724,19,6,19h2.035
		c0.345,0,0.651-0.208,0.78-0.528c0.173-0.431-0.036-0.922-0.467-1.096l-2.063-0.825c-0.701-0.282-1.155-0.953-1.155-1.708
		c0-0.492,0.191-0.955,0.539-1.303C6.016,13.192,6.478,13,6.97,13h0.033v-0.5c0-0.276,0.224-0.5,0.5-0.5s0.5,0.224,0.5,0.5V13H9
		c0.276,0,0.5,0.224,0.5,0.5S9.275,14,9,14H6.971c-0.224,0-0.436,0.088-0.595,0.247s-0.246,0.371-0.246,0.595
		c0,0.345,0.208,0.652,0.528,0.781l2.063,0.825c0.943,0.38,1.401,1.455,1.022,2.397C9.461,19.546,8.79,20,8.035,20H8.004v0.5
		C8.004,20.776,7.779,21,7.504,21z"/>
	<path d="M16.004,12.5c-0.276,0-0.5-0.224-0.5-0.5v-0.5H14.5c-0.276,0-0.5-0.224-0.5-0.5s0.224-0.5,0.5-0.5h2.035
		c0.345,0,0.651-0.207,0.78-0.528c0.084-0.209,0.082-0.438-0.007-0.644c-0.088-0.207-0.251-0.367-0.46-0.451l-2.063-0.826
		c-0.701-0.282-1.155-0.952-1.155-1.708c0-1.016,0.825-1.843,1.841-1.844h0.033V4c0-0.276,0.224-0.5,0.5-0.5s0.5,0.224,0.5,0.5v0.5
		H17.5C17.775,4.5,18,4.724,18,5s-0.224,0.5-0.5,0.5h-2.029c-0.464,0-0.842,0.378-0.841,0.843c0,0.345,0.208,0.652,0.528,0.781
		l2.063,0.826c0.457,0.184,0.815,0.534,1.008,0.987c0.193,0.453,0.198,0.953,0.014,1.41c-0.282,0.701-0.952,1.154-1.708,1.155
		h-0.031V12C16.504,12.276,16.279,12.5,16.004,12.5z"/>
</g>
</svg>
