<?xml version="1.0" encoding="utf-8"?>
<!-- Generator: Adobe Illustrator 22.1.0, SVG Export Plug-In . SVG Version: 6.00 Build 0)  -->
<svg version="1.1" id="Layer_1" xmlns="http://www.w3.org/2000/svg" xmlns:xlink="http://www.w3.org/1999/xlink" x="0px" y="0px"
	 viewBox="0 0 24 24" style="enable-background:new 0 0 24 24;" xml:space="preserve">
<g>
	<title>accounting-document</title>
	<path d="M8.504,13c-0.276,0-0.5-0.224-0.5-0.5V12H7c-0.276,0-0.5-0.224-0.5-0.5S6.724,11,7,11h2.035
		c0.345,0,0.651-0.207,0.78-0.528c0.173-0.431-0.036-0.922-0.467-1.095L7.285,8.551C6.584,8.269,6.13,7.599,6.13,6.843
		c0-0.492,0.191-0.955,0.539-1.303C7.016,5.192,7.479,5,7.971,5h0.033V4.5c0-0.276,0.224-0.5,0.5-0.5s0.5,0.224,0.5,0.5V5H10
		c0.276,0,0.5,0.224,0.5,0.5S10.276,6,10,6H7.971C7.746,6,7.535,6.088,7.376,6.247C7.217,6.406,7.13,6.618,7.13,6.843
		c0,0.345,0.207,0.652,0.528,0.781l2.063,0.826c0.943,0.379,1.401,1.454,1.022,2.397C10.461,11.546,9.791,11.999,9.035,12H9.004v0.5
		C9.004,12.776,8.78,13,8.504,13z"/>
	<path d="M4.5,24C3.673,24,3,23.327,3,22.5v-21C3,0.673,3.673,0,4.5,0h9.59c0.208,0,0.411,0.044,0.608,0.131
		c0.177,0.079,0.33,0.182,0.456,0.309l5.414,5.414c0.283,0.283,0.439,0.66,0.439,1.06L21,22.5c0,0.827-0.673,1.5-1.5,1.5H4.5z
		 M4.5,1C4.224,1,4,1.224,4,1.5v21C4,22.776,4.224,23,4.5,23h15c0.276,0,0.5-0.224,0.5-0.5L20.007,7H15.5C14.673,7,14,6.327,14,5.5
		V1H4.5z M15,5.5C15,5.776,15.224,6,15.5,6h3.8L15,1.7V5.5z"/>
	<path d="M6.587,17c-0.276,0-0.5-0.224-0.5-0.5s0.224-0.5,0.5-0.5h10.917c0.276,0,0.5,0.224,0.5,0.5s-0.224,0.5-0.5,0.5H6.587z"/>
	<path d="M12.52,14c-0.276,0-0.5-0.224-0.5-0.5s0.224-0.5,0.5-0.5h4.984c0.276,0,0.5,0.224,0.5,0.5s-0.224,0.5-0.5,0.5H12.52z"/>
	<path d="M14.504,11c-0.276,0-0.5-0.224-0.5-0.5s0.224-0.5,0.5-0.5h3c0.276,0,0.5,0.224,0.5,0.5s-0.224,0.5-0.5,0.5H14.504z"/>
	<path d="M6.587,20c-0.276,0-0.5-0.224-0.5-0.5s0.224-0.5,0.5-0.5h10.917c0.276,0,0.5,0.224,0.5,0.5s-0.224,0.5-0.5,0.5H6.587z"/>
</g>
</svg>
