<?xml version="1.0" encoding="utf-8"?>
<!-- Generator: Adobe Illustrator 22.1.0, SVG Export Plug-In . SVG Version: 6.00 Build 0)  -->
<svg version="1.1" id="Layer_1" xmlns="http://www.w3.org/2000/svg" xmlns:xlink="http://www.w3.org/1999/xlink" x="0px" y="0px"
	 viewBox="0 0 24 24" style="enable-background:new 0 0 24 24;" xml:space="preserve">
<g>
	<title>accounting-abacus</title>
	<path d="M2.504,24c-0.827,0-1.5-0.673-1.5-1.5v-21c0-0.827,0.673-1.5,1.5-1.5h19c0.827,0,1.5,0.673,1.5,1.5v21
		c0,0.827-0.673,1.5-1.5,1.5H2.504z M21.504,23c0.276,0,0.5-0.224,0.5-0.5v-21c0-0.276-0.224-0.5-0.5-0.5h-5.5v2H16.5
		C17.327,3,18,3.673,18,4.5S17.327,6,16.5,6h-0.496v6H16.5c0.827,0,1.5,0.673,1.5,1.5S17.327,15,16.5,15h-0.496v3H16.5
		c0.827,0,1.5,0.673,1.5,1.5S17.327,21,16.5,21h-0.496v2H21.504z M15.004,23v-2H14.5c-0.827,0-1.5-0.673-1.5-1.5s0.673-1.5,1.5-1.5
		h0.504v-3H14.5c-0.827,0-1.5-0.673-1.5-1.5s0.673-1.5,1.5-1.5h0.504V6H14.5C13.673,6,13,5.327,13,4.5S13.673,3,14.5,3h0.504V1h-6v2
		H9.5C10.327,3,11,3.673,11,4.5c0,0.375-0.138,0.727-0.387,1C10.862,5.773,11,6.125,11,6.5C11,7.327,10.327,8,9.5,8H9.004v7H9.5
		c0.827,0,1.5,0.673,1.5,1.5S10.327,18,9.5,18H9.004v5H15.004z M2.504,1c-0.276,0-0.5,0.224-0.5,0.5v21c0,0.276,0.224,0.5,0.5,0.5
		h5.5v-5H7.5C6.673,18,6,17.327,6,16.5S6.673,15,7.5,15h0.504V8H7.5C6.673,8,6,7.327,6,6.5c0-0.375,0.138-0.727,0.387-1
		C6.138,5.227,6,4.875,6,4.5C6,3.673,6.673,3,7.5,3h0.504V1H2.504z M14.5,19c-0.276,0-0.5,0.224-0.5,0.5s0.224,0.5,0.5,0.5h2
		c0.276,0,0.5-0.224,0.5-0.5S16.776,19,16.5,19H14.5z M7.5,16C7.224,16,7,16.224,7,16.5S7.224,17,7.5,17h2
		c0.276,0,0.5-0.224,0.5-0.5S9.776,16,9.5,16H7.5z M14.5,13c-0.276,0-0.5,0.224-0.5,0.5s0.224,0.5,0.5,0.5h2
		c0.276,0,0.5-0.224,0.5-0.5S16.776,13,16.5,13H14.5z M7.5,6C7.224,6,7,6.224,7,6.5S7.224,7,7.5,7h2C9.776,7,10,6.776,10,6.5
		S9.776,6,9.5,6H7.5z M14.5,4C14.224,4,14,4.224,14,4.5S14.224,5,14.5,5h2C16.776,5,17,4.776,17,4.5S16.776,4,16.5,4H14.5z M7.5,4
		C7.224,4,7,4.224,7,4.5S7.224,5,7.5,5h2C9.776,5,10,4.776,10,4.5S9.776,4,9.5,4H7.5z"/>
</g>
</svg>
