<?xml version="1.0" encoding="utf-8"?>
<!-- Generator: Adobe Illustrator 22.1.0, SVG Export Plug-In . SVG Version: 6.00 Build 0)  -->
<svg version="1.1" id="Light" xmlns="http://www.w3.org/2000/svg" xmlns:xlink="http://www.w3.org/1999/xlink" x="0px" y="0px"
	 viewBox="0 0 24 24" style="enable-background:new 0 0 24 24;" xml:space="preserve">
<g>
	<title>hat-sombrero</title>
	<path d="M5.309,24.003c-2.759,0-5.09-2.159-5.309-4.915c-0.025-0.259,0.055-0.518,0.225-0.723c0.17-0.206,0.41-0.334,0.676-0.359
		C0.931,18.002,0.965,18,0.999,18H6.56c0.375-2.858,0.659-5.289,0.889-7.253C8.44,2.277,8.707,0,11.999,0
		c3.293,0,3.56,2.278,4.551,10.753c0.23,1.964,0.514,4.396,0.888,7.247h5.561c0.267,0,0.517,0.103,0.706,0.29
		c0.19,0.188,0.295,0.439,0.296,0.706c0,0.031-0.001,0.067-0.005,0.103c-0.219,2.747-2.554,4.904-5.317,4.904
		c-0.058,0-0.117-0.001-0.176-0.003L5.475,24C5.425,24.002,5.367,24.003,5.309,24.003z M18.529,23c0.05,0.002,0.1,0.002,0.149,0.002
		c1.497,0,2.862-0.758,3.654-2.003H1.663c0.791,1.245,2.161,2.002,3.665,2.002c0.043,0,0.087,0,0.131-0.002l13.061,0
		C18.524,23,18.526,23,18.529,23z M22.801,20c0.106-0.326,0.173-0.659,0.199-0.991L1.004,19c-0.01,0-0.029,0.001-0.032,0.001
		C1.02,19.339,1.09,19.674,1.196,20H22.801z M16.429,18c-0.367-2.812-0.647-5.199-0.873-7.13C14.566,2.405,14.336,1,11.999,1
		c-2.336,0-2.567,1.404-3.557,9.863C8.216,12.797,7.936,15.187,7.569,18H16.429z"/>
</g>
</svg>
