<?xml version="1.0" encoding="utf-8"?>
<!-- Generator: Adobe Illustrator 22.1.0, SVG Export Plug-In . SVG Version: 6.00 Build 0)  -->
<svg version="1.1" id="Light" xmlns="http://www.w3.org/2000/svg" xmlns:xlink="http://www.w3.org/1999/xlink" x="0px" y="0px"
	 viewBox="0 0 24 24" style="enable-background:new 0 0 24 24;" xml:space="preserve">
<g>
	<title>hat-cowboy-1</title>
	<path d="M12.311,19.002c-0.106,0-0.212-0.001-0.319-0.002c-0.09,0.001-0.187,0.002-0.284,0.002c-2.158,0-4.286-0.341-6.325-1.014
		c-0.047-0.008-0.091-0.022-0.132-0.043c-1.787-0.604-3.482-1.456-5.037-2.534c-0.227-0.158-0.283-0.47-0.126-0.696
		C0.183,14.581,0.337,14.5,0.501,14.5c0.102,0,0.2,0.031,0.284,0.088c1.3,0.902,2.7,1.638,4.168,2.192
		C4.831,12.734,4.952,7.84,6.147,6.646C7.774,5.019,11.829,5,12,5s4.226,0.019,5.854,1.646c0.672,0.672,1.417,2.981,1.193,10.134
		c1.469-0.555,2.87-1.291,4.168-2.191c0.084-0.058,0.182-0.09,0.285-0.09c0.164,0,0.318,0.081,0.411,0.215
		c0.076,0.109,0.105,0.242,0.081,0.374c-0.024,0.131-0.097,0.246-0.207,0.322c-1.563,1.084-3.267,1.94-5.065,2.545
		c-0.023,0.01-0.048,0.017-0.073,0.024C16.614,18.657,14.477,19.002,12.311,19.002z M11.992,18c0.12,0.002,0.23,0.003,0.341,0.003
		c1.938,0,3.855-0.294,5.702-0.874c0.181-5.142-0.174-9.06-0.888-9.775C15.813,6.02,12.042,6,12,6c-0.042,0-3.813,0.021-5.146,1.354
		c-0.722,0.722-1.069,4.55-0.889,9.776c1.844,0.58,3.759,0.874,5.695,0.874C11.77,18.003,11.882,18.002,11.992,18z"/>
</g>
</svg>
