<?xml version="1.0" encoding="utf-8"?>
<!-- Generator: Adobe Illustrator 22.1.0, SVG Export Plug-In . SVG Version: 6.00 Build 0)  -->
<svg version="1.1" id="Light" xmlns="http://www.w3.org/2000/svg" xmlns:xlink="http://www.w3.org/1999/xlink" x="0px" y="0px"
	 viewBox="0 0 24 24" style="enable-background:new 0 0 24 24;" xml:space="preserve">
<g>
	<title>hat-retro-1</title>
	<path d="M12,24c-2.291,0-4.016-0.01-5.519-0.062c-0.007,0.001-0.014,0.002-0.02,0.003c-0.012,0.001-0.028,0.002-0.043,0.002
		c-0.033,0-0.059-0.005-0.078-0.009c-3.478-0.126-5.882-0.478-6.314-1.776c-0.042-0.127-0.033-0.263,0.027-0.382
		s0.163-0.208,0.289-0.25C0.393,21.509,0.446,21.5,0.5,21.5c0.215,0,0.406,0.137,0.474,0.342c0.131,0.395,1.095,0.896,4.896,1.073
		L4.002,1.086c-0.002-0.029-0.004-0.06-0.004-0.091C3.999,0.729,4.104,0.479,4.293,0.29C4.482,0.103,4.732,0,4.998,0H19
		c0.029,0,0.058,0.001,0.086,0.004c0.55,0.048,0.959,0.533,0.912,1.082l-1.872,21.829c3.804-0.177,4.768-0.678,4.9-1.073
		c0.068-0.205,0.259-0.342,0.474-0.342c0.054,0,0.107,0.009,0.158,0.026c0.127,0.042,0.229,0.131,0.289,0.25s0.07,0.255,0.027,0.382
		c-0.435,1.304-2.866,1.654-6.383,1.778c-0.011,0.001-0.022,0.002-0.032,0.002c-0.005,0-0.01,0-0.016,0
		C16.036,23.99,14.304,24,12,24z M6.878,22.953C8.48,23,10.268,23,12,23c1.73,0,3.517,0,5.119-0.047L17.372,20H6.625L6.878,22.953z
		 M17.458,19l0.257-3H6.283l0.257,3H17.458z M17.801,15l1.201-14L5,1L4.999,0.75V1C4.998,1,4.998,1,4.998,1l1.2,14H17.801z"/>
</g>
</svg>
