<?xml version="1.0" encoding="utf-8"?>
<!-- Generator: Adobe Illustrator 22.1.0, SVG Export Plug-In . SVG Version: 6.00 Build 0)  -->
<svg version="1.1" id="Light" xmlns="http://www.w3.org/2000/svg" xmlns:xlink="http://www.w3.org/1999/xlink" x="0px" y="0px"
	 viewBox="0 0 24 24" style="enable-background:new 0 0 24 24;" xml:space="preserve">
<g>
	<title>hat-cowboy</title>
	<path d="M5,17.974c-0.171,0-0.345-0.009-0.519-0.027c0,0-0.029-0.004-0.039-0.006C1.916,17.667,0,15.531,0,12.974
		c0-0.276,0.224-0.5,0.5-0.5s0.5,0.224,0.5,0.5c0,1.896,1.369,3.547,3.215,3.917c0.995-2.255,1.35-4.541,1.637-6.387
		c0.329-2.114,0.566-3.642,1.57-4.24C7.686,6.105,7.99,6.025,8.324,6.025c0.307,0,0.639,0.065,1.013,0.198
		c0.017,0.006,0.033,0.013,0.048,0.02c0.825,0.394,1.705,0.64,2.615,0.73c0.525-0.052,1.048-0.159,1.556-0.317
		c0.124-0.072,0.233-0.123,0.342-0.161c0.049-0.017,0.1-0.025,0.151-0.025c0.011,0,0.023,0,0.034,0.001
		c0.184-0.072,0.362-0.149,0.53-0.229c0.014-0.007,0.03-0.014,0.046-0.019c0.376-0.134,0.708-0.198,1.015-0.198
		c0.334,0,0.638,0.08,0.903,0.238c1.004,0.599,1.241,2.126,1.57,4.24c0.287,1.846,0.642,4.133,1.637,6.388
		C21.63,16.521,23,14.87,23,12.974c0-0.276,0.224-0.5,0.5-0.5s0.5,0.224,0.5,0.5c0,2.573-1.929,4.711-4.487,4.974
		c-0.171,0.017-0.343,0.026-0.513,0.026H5z M18.731,16.974c-0.942-2.264-1.29-4.502-1.572-6.317
		c-0.265-1.705-0.494-3.177-1.094-3.535c-0.109-0.065-0.237-0.096-0.394-0.096c-0.182,0-0.401,0.044-0.651,0.131
		c-0.339,0.161-0.691,0.301-1.047,0.417c-0.335,0.226-0.663,0.647-1.01,1.093c-0.571,0.734-1.219,1.565-2.23,2.101
		c-0.072,0.038-0.153,0.058-0.234,0.058c-0.186,0-0.355-0.102-0.442-0.266c-0.129-0.244-0.036-0.547,0.208-0.676
		c0.822-0.436,1.4-1.178,1.91-1.832c0.026-0.033,0.052-0.067,0.079-0.101c-0.07,0.008-0.139,0.016-0.207,0.022
		C12.039,7.973,12.008,7.975,12,7.975c-0.016,0-0.031-0.001-0.047-0.002c-1.034-0.096-2.035-0.371-2.974-0.816
		C8.729,7.07,8.51,7.025,8.328,7.025c-0.156,0-0.285,0.031-0.394,0.096c-0.6,0.358-0.829,1.83-1.094,3.535
		c-0.282,1.815-0.63,4.053-1.572,6.317H18.731z"/>
</g>
</svg>
