<?xml version="1.0" encoding="utf-8"?>
<!-- Generator: Adobe Illustrator 22.1.0, SVG Export Plug-In . SVG Version: 6.00 Build 0)  -->
<svg version="1.1" id="Light" xmlns="http://www.w3.org/2000/svg" xmlns:xlink="http://www.w3.org/1999/xlink" x="0px" y="0px"
	 viewBox="0 0 24 24" style="enable-background:new 0 0 24 24;" xml:space="preserve">
<g>
	<title>hat-lady-cowboy</title>
	<path d="M4.499,17.992c-0.009,0-0.021-0.001-0.032-0.002C1.842,17.98,0,15.925,0,12.991c0-0.276,0.224-0.5,0.5-0.5
		s0.5,0.224,0.5,0.5c0,2.246,1.273,3.825,3.185,3.982c1.016-2.274,1.376-4.586,1.665-6.451C6.179,8.407,6.417,6.879,7.421,6.28
		c0.264-0.158,0.568-0.238,0.902-0.238c0.307,0,0.638,0.065,1.013,0.198c0.339,0.12,0.633,0.228,0.892,0.323
		c0.881,0.322,1.322,0.483,1.733,0.483c0.412,0,0.855-0.162,1.74-0.485l0.026-0.009c0.272-0.099,0.581-0.212,0.939-0.339
		c0.384-0.136,0.719-0.202,1.023-0.202c0.32,0,0.605,0.077,0.846,0.227c0.845,0.528,0.989,1.778,1.188,3.507
		c0.226,1.961,0.534,4.634,2.053,7.231C21.711,16.838,23,15.255,23,12.991c0-0.276,0.224-0.5,0.5-0.5s0.5,0.224,0.5,0.5
		c0,2.932-1.839,4.986-4.474,5c-0.009,0.001-0.019,0.001-0.027,0.001H4.499z M11.999,12.992c-1.103,0-2,0.897-2,2
		c0,1.093,0.89,1.99,1.983,1.999h0.036c1.091-0.009,1.981-0.906,1.981-1.999C13.999,13.889,13.102,12.992,11.999,12.992z
		 M18.636,16.991c-0.493-0.927-0.882-1.914-1.183-2.999h-2.627c0.115,0.321,0.173,0.656,0.173,1c0,0.743-0.279,1.454-0.767,1.999
		H18.636z M9.766,16.991c-0.489-0.545-0.767-1.256-0.767-1.999c0-0.344,0.058-0.679,0.173-1H6.225
		c-0.261,1.098-0.576,2.084-0.957,2.999H9.766z M17.207,12.992c-0.25-1.155-0.375-2.243-0.478-3.131
		c-0.155-1.343-0.288-2.502-0.725-2.775c-0.082-0.051-0.187-0.076-0.32-0.076c-0.183,0-0.414,0.049-0.687,0.146
		c-0.287,0.101-0.541,0.193-0.77,0.277c-0.012,0.005-0.024,0.009-0.036,0.012c-0.408,0.135-0.796,0.643-1.246,1.231
		c-0.565,0.739-1.205,1.576-2.214,2.11c-0.072,0.038-0.153,0.058-0.234,0.058c-0.186,0-0.355-0.102-0.442-0.266
		c-0.129-0.244-0.036-0.547,0.208-0.676c0.816-0.432,1.385-1.176,1.887-1.833c0.007-0.009,0.013-0.017,0.02-0.026
		C12.1,8.049,12.03,8.052,11.961,8.052c-0.546,0-1.059-0.179-2.076-0.55c-0.256-0.094-0.548-0.2-0.883-0.319
		C8.741,7.09,8.514,7.043,8.327,7.043c-0.156,0-0.285,0.031-0.393,0.096c-0.601,0.358-0.83,1.831-1.095,3.536
		c-0.109,0.7-0.23,1.483-0.396,2.316h3.322c0.57-0.637,1.378-1,2.234-1c0.856,0,1.664,0.363,2.234,1H17.207z"/>
</g>
</svg>
