<?xml version="1.0" encoding="utf-8"?>
<!-- Generator: Adobe Illustrator 22.1.0, SVG Export Plug-In . SVG Version: 6.00 Build 0)  -->
<svg version="1.1" id="Light" xmlns="http://www.w3.org/2000/svg" xmlns:xlink="http://www.w3.org/1999/xlink" x="0px" y="0px"
	 viewBox="0 0 24 24" style="enable-background:new 0 0 24 24;" xml:space="preserve">
<g>
	<title>hat-winter</title>
	<path d="M9,24c-2.206,0-4-1.794-4-4v-2c0-0.552-0.449-1-1-1c-1.103,0-2-0.897-2-2V8.5C2,3.813,5.813,0,10.5,0h4
		C16.981,0,19,2.019,19,4.5v0.922C20.828,6.221,22,8,22,10v1.5c0,1.378-1.122,2.5-2.5,2.5H19v4.5c0.01,2.244-1.74,4.055-3.985,4.122
		c0,0-0.001,0-0.001,0c-0.392,0-0.769-0.046-1.134-0.137c-0.267-0.067-0.431-0.338-0.365-0.606C13.57,21.656,13.77,21.5,14,21.5
		c0.04,0,0.08,0.005,0.119,0.014c0.287,0.072,0.582,0.108,0.877,0.108c1.689-0.051,3.01-1.421,3.003-3.12V14h-5v6
		C13,22.206,11.206,24,9,24z M3,15c0,0.552,0.449,1,1,1c1.103,0,2,0.897,2,2v2c0,1.654,1.346,3,3,3s3-1.346,3-3v-8h-1v1.5
		c0,1.378-1.121,2.5-2.5,2.5S6,14.878,6,13.5V12H3V15z M7,13.5C7,14.327,7.673,15,8.5,15s1.5-0.673,1.5-1.5V12H7V13.5z M19.5,13
		c0.827,0,1.5-0.673,1.5-1.5V10c0-2.206-1.794-4-4-4s-4,1.794-4,4v3H19.5z M12,11v-1c0-2.757,2.243-5,5-5
		c0.33,0,0.665,0.035,1,0.105V4.5C18,2.57,16.43,1,14.5,1h-4C6.365,1,3,4.365,3,8.5V11H12z"/>
</g>
</svg>
