<?xml version="1.0" encoding="utf-8"?>
<!-- Generator: Adobe Illustrator 22.1.0, SVG Export Plug-In . SVG Version: 6.00 Build 0)  -->
<svg version="1.1" id="Layer_1" xmlns="http://www.w3.org/2000/svg" xmlns:xlink="http://www.w3.org/1999/xlink" x="0px" y="0px"
	 viewBox="0 0 24 24" style="enable-background:new 0 0 24 24;" xml:space="preserve">
<g>
	<title>religion-woman-japan</title>
	<path d="M23,24c-0.276,0-0.5-0.224-0.5-0.5v-3.106c0.003-0.461-0.212-0.903-0.575-1.183c-0.67-0.511-1.828-1.23-3.578-1.799
		l-3.406,6.325C14.853,23.899,14.684,24,14.5,24c-0.082,0-0.164-0.021-0.236-0.059c-0.243-0.132-0.334-0.436-0.204-0.678
		l3.304-6.136c-0.278-0.071-0.564-0.137-0.855-0.197l-6.135,6.902C10.279,23.939,10.143,24,10,24c-0.123,0-0.241-0.045-0.332-0.126
		c-0.1-0.088-0.159-0.211-0.167-0.344c-0.008-0.134,0.037-0.262,0.125-0.362l1.705-1.918l-3.839-4.319
		c-2.734,0.562-4.454,1.548-5.419,2.282c-0.361,0.278-0.576,0.719-0.573,1.178V23.5C1.5,23.776,1.276,24,1,24s-0.5-0.224-0.5-0.5
		v-3.106c-0.005-0.766,0.355-1.505,0.965-1.975C2.9,17.328,6.174,15.5,12,15.5c5.839,0,9.105,1.828,10.533,2.917
		c0.611,0.471,0.972,1.211,0.967,1.98V23.5C23.5,23.776,23.276,24,23,24z M12,20.497l3.35-3.769C14.29,16.577,13.166,16.5,12,16.5
		c-1.165,0-2.29,0.077-3.349,0.229L12,20.497z"/>
	<path d="M12,11.996c-0.648,0-1.287-0.212-1.8-0.597c-0.107-0.08-0.176-0.197-0.195-0.329C9.986,10.938,10.02,10.807,10.1,10.7
		c0.094-0.125,0.244-0.2,0.4-0.2c0.109,0,0.213,0.035,0.3,0.1c0.342,0.256,0.768,0.397,1.2,0.397c0.432,0,0.859-0.141,1.2-0.397
		c0.086-0.065,0.19-0.1,0.3-0.1c0.156,0,0.306,0.075,0.4,0.2c0.08,0.107,0.114,0.238,0.095,0.371
		c-0.019,0.132-0.088,0.249-0.195,0.329C13.287,11.785,12.648,11.996,12,11.996z"/>
	<path d="M5.629,15.502c-0.713,0-1.406-0.146-2.059-0.434c-0.19-0.098-0.329-0.225-0.426-0.386c-0.139-0.23-0.18-0.5-0.115-0.761
		s0.227-0.481,0.456-0.62C4.83,12.412,5.3,10.172,5.457,9H1.506C1.304,9,1.113,8.942,0.948,8.833
		C0.726,8.685,0.574,8.459,0.522,8.197c-0.053-0.262,0-0.529,0.148-0.751c1.868-2.737,4.246-4.999,7.069-6.725
		C8.455,0.251,9.298,0,10.171,0c0,0,3.641,0,3.642,0c0.892,0,1.735,0.252,2.462,0.73c2.812,1.718,5.187,3.977,7.053,6.711
		c0.114,0.172,0.172,0.366,0.171,0.566C23.494,8.555,23.045,9,22.498,9h-3.839c0.157,1.173,0.629,3.413,1.99,4.312
		c0.461,0.279,0.61,0.896,0.323,1.371c-0.096,0.158-0.233,0.286-0.396,0.372c-0.677,0.299-1.375,0.448-2.089,0.448
		c-0.56,0-1.114-0.093-1.648-0.275c-0.261-0.089-0.4-0.374-0.311-0.635c0.07-0.202,0.26-0.338,0.474-0.338
		c0.054,0,0.108,0.009,0.16,0.026c0.431,0.148,0.878,0.222,1.33,0.222c0.558,0,1.102-0.112,1.617-0.334
		c-1.105-0.745-1.726-2.058-2.073-3.252C17.06,13.359,14.691,15,12,15c-2.599,0-4.948-1.579-5.966-3.924
		c-0.442,1.432-1.13,2.486-2.014,3.07L4,14.165c0.504,0.223,1.054,0.338,1.625,0.338c0.412,0,0.82-0.062,1.213-0.183
		c0.047-0.015,0.097-0.023,0.147-0.023c0.217,0,0.414,0.145,0.478,0.353c0.081,0.263-0.067,0.544-0.33,0.625
		C6.645,15.426,6.139,15.502,5.629,15.502z M6.523,9c0.253,2.824,2.61,5,5.477,5c2.866,0,5.223-2.176,5.477-5H6.523z M10.167,1
		C9.492,1,8.838,1.196,8.275,1.566C5.561,3.225,3.284,5.39,1.499,8.005L22.494,8c-1.779-2.612-4.053-4.775-6.755-6.425
		C15.164,1.197,14.504,1,13.821,1H10.167z"/>
</g>
</svg>
