<?xml version="1.0" encoding="utf-8"?>
<!-- Generator: Adobe Illustrator 22.1.0, SVG Export Plug-In . SVG Version: 6.00 Build 0)  -->
<svg version="1.1" id="Layer_1" xmlns="http://www.w3.org/2000/svg" xmlns:xlink="http://www.w3.org/1999/xlink" x="0px" y="0px"
	 viewBox="0 0 24 24" style="enable-background:new 0 0 24 24;" xml:space="preserve">
<g>
	<title>army-symbol-airborne-infantry</title>
	<path d="M12,17.5c-0.134,0-0.259-0.052-0.354-0.146L10.5,16.208l-1.147,1.146C9.259,17.448,9.134,17.5,9,17.5
		s-0.259-0.052-0.354-0.146c-0.195-0.195-0.195-0.512,0-0.707L9.792,15.5c0.188-0.189,0.439-0.293,0.707-0.293
		c0.267,0,0.518,0.104,0.706,0.292C11.209,15.502,12,16.293,12,16.293l0.793-0.792c0.188-0.189,0.44-0.293,0.708-0.293
		c0.267,0,0.518,0.104,0.706,0.292l1.147,1.147c0.195,0.195,0.195,0.512,0,0.707C15.259,17.448,15.134,17.5,15,17.5
		s-0.259-0.052-0.354-0.146L13.5,16.208l-1.147,1.146C12.259,17.448,12.134,17.5,12,17.5z"/>
	<path d="M1.5,20c-0.32,0-0.628-0.104-0.891-0.3c-0.044-0.026-0.085-0.059-0.121-0.1C0.177,19.314,0,18.914,0,18.5v-13
		c0-0.428,0.188-0.838,0.517-1.125c0.009-0.01,0.037-0.037,0.077-0.062C0.86,4.108,1.173,4,1.5,4h21c0.326,0,0.64,0.108,0.906,0.312
		c0.04,0.026,0.07,0.054,0.092,0.078C23.812,4.662,24,5.072,24,5.5v13c0,0.414-0.177,0.813-0.487,1.099
		c-0.037,0.041-0.077,0.075-0.122,0.101C23.128,19.896,22.82,20,22.5,20H1.5z M21.817,19L12,12.597L2.183,19H21.817z M22.994,18.574
		C22.998,18.549,23,18.525,23,18.5v-13c0-0.025-0.002-0.049-0.006-0.074L12.915,12L22.994,18.574z M1.006,5.426
		C1.002,5.451,1,5.475,1,5.5v13c0,0.025,0.002,0.049,0.006,0.074L11.085,12L1.006,5.426z M12,11.403L21.818,5H2.182L12,11.403z"/>
</g>
</svg>
