<?xml version="1.0" encoding="utf-8"?>
<!-- Generator: Adobe Illustrator 22.1.0, SVG Export Plug-In . SVG Version: 6.00 Build 0)  -->
<svg version="1.1" id="Layer_1" xmlns="http://www.w3.org/2000/svg" xmlns:xlink="http://www.w3.org/1999/xlink" x="0px" y="0px"
	 viewBox="0 0 24 24" style="enable-background:new 0 0 24 24;" xml:space="preserve">
<g>
	<title>army-symbol-aviation</title>
	<path d="M1.5,20C0.673,20,0,19.327,0,18.5v-13C0,4.673,0.673,4,1.5,4h21C23.327,4,24,4.673,24,5.5v13c0,0.827-0.673,1.5-1.5,1.5
		H1.5z M1.5,5C1.224,5,1,5.224,1,5.5v13C1,18.776,1.224,19,1.5,19h21c0.276,0,0.5-0.224,0.5-0.5v-13C23,5.224,22.776,5,22.5,5H1.5z"
		/>
	<path d="M12,16.5c-0.276,0-0.5-0.224-0.5-0.5v-3.07C10.146,13.801,8.084,15,7,15c-1.654,0-3-1.346-3-3c0-1.654,1.346-3,3-3
		c1.282,0,3.995,1.726,5,2.396C13.005,10.726,15.719,9,17,9c1.654,0,3,1.346,3,3c0,1.654-1.346,3-3,3c-1.083,0-3.146-1.199-4.5-2.07
		V16C12.5,16.276,12.276,16.5,12,16.5z M12.901,12c1.583,1.027,3.388,2,4.099,2c1.103,0,2-0.897,2-2s-0.897-2-2-2
		C16.288,10,14.483,10.973,12.901,12z M7,10c-1.103,0-2,0.897-2,2s0.897,2,2,2c0.711,0,2.516-0.973,4.099-2
		C9.516,10.973,7.711,10,7,10z"/>
</g>
</svg>
