<?xml version="1.0" encoding="utf-8"?>
<!-- Generator: Adobe Illustrator 22.1.0, SVG Export Plug-In . SVG Version: 6.00 Build 0)  -->
<svg version="1.1" id="Layer_1" xmlns="http://www.w3.org/2000/svg" xmlns:xlink="http://www.w3.org/1999/xlink" x="0px" y="0px"
	 viewBox="0 0 24 24" style="enable-background:new 0 0 24 24;" xml:space="preserve">
<g>
	<title>army-symbol-batallion</title>
	<path d="M14.5,6C14.224,6,14,5.776,14,5.5v-4C14,1.224,14.224,1,14.5,1S15,1.224,15,1.5v4C15,5.776,14.776,6,14.5,6z"/>
	<path d="M9.5,6C9.224,6,9,5.776,9,5.5v-4C9,1.224,9.224,1,9.5,1S10,1.224,10,1.5v4C10,5.776,9.776,6,9.5,6z"/>
	<path d="M1.5,23C0.673,23,0,22.327,0,21.5v-13C0,7.673,0.673,7,1.5,7h21C23.327,7,24,7.673,24,8.5v13c0,0.827-0.673,1.5-1.5,1.5
		H1.5z M1.5,8C1.224,8,1,8.224,1,8.5v13C1,21.776,1.224,22,1.5,22h21c0.276,0,0.5-0.224,0.5-0.5v-13C23,8.224,22.776,8,22.5,8H1.5z"
		/>
</g>
</svg>
