<?xml version="1.0" encoding="utf-8"?>
<!-- Generator: Adobe Illustrator 22.1.0, SVG Export Plug-In . SVG Version: 6.00 Build 0)  -->
<svg version="1.1" id="Layer_1" xmlns="http://www.w3.org/2000/svg" xmlns:xlink="http://www.w3.org/1999/xlink" x="0px" y="0px"
	 viewBox="0 0 24 24" style="enable-background:new 0 0 24 24;" xml:space="preserve">
<g>
	<title>army-symbol-mp</title>
	<path d="M1.5,20C0.673,20,0,19.327,0,18.5v-13C0,4.673,0.673,4,1.5,4h21C23.327,4,24,4.673,24,5.5v13c0,0.827-0.673,1.5-1.5,1.5
		H1.5z M1.5,5C1.224,5,1,5.224,1,5.5v13C1,18.776,1.224,19,1.5,19h21c0.276,0,0.5-0.224,0.5-0.5v-13C23,5.224,22.776,5,22.5,5H1.5z"
		/>
	<path d="M10,15.498c-0.276,0-0.5-0.224-0.5-0.5v-3.882l-0.553,1.106c-0.082,0.164-0.253,0.265-0.447,0.265
		s-0.365-0.102-0.447-0.265L7.5,11.116v3.882c0,0.276-0.224,0.5-0.5,0.5s-0.5-0.224-0.5-0.5v-6c0-0.233,0.158-0.433,0.385-0.487
		C6.924,8.503,6.962,8.498,7,8.498c0.191,0,0.362,0.106,0.447,0.276L8.5,10.88l1.053-2.106C9.638,8.604,9.809,8.498,10,8.498
		c0.038,0,0.076,0.004,0.114,0.013C10.342,8.565,10.5,8.765,10.5,8.998v6C10.5,15.274,10.276,15.498,10,15.498z"/>
	<path d="M14,15.498c-0.276,0-0.5-0.224-0.5-0.5V9c0-0.276,0.224-0.5,0.5-0.5h1.5c1.103,0,2,0.897,2,2s-0.897,2-2,2h-1v2.498
		C14.5,15.274,14.276,15.498,14,15.498z M15.5,11.5c0.552,0,1-0.449,1-1s-0.448-1-1-1h-1v2H15.5z"/>
</g>
</svg>
