<?xml version="1.0" encoding="utf-8"?>
<!-- Generator: Adobe Illustrator 22.1.0, SVG Export Plug-In . SVG Version: 6.00 Build 0)  -->
<svg version="1.1" id="Layer_1" xmlns="http://www.w3.org/2000/svg" xmlns:xlink="http://www.w3.org/1999/xlink" x="0px" y="0px"
	 viewBox="0 0 24 24" style="enable-background:new 0 0 24 24;" xml:space="preserve">
<g>
	<title>army-symbol-signals</title>
	<path d="M1.5,20C0.673,20,0,19.327,0,18.5v-13C0,4.673,0.673,4,1.5,4h21C23.327,4,24,4.673,24,5.5v13c0,0.827-0.673,1.5-1.5,1.5
		H1.5z M1,18.5C1,18.776,1.224,19,1.5,19h20.777L12.5,9.668V14.5c0,0.67-0.361,0.897-0.516,0.963c-0.094,0.04-0.195,0.061-0.3,0.061
		c-0.255,0-0.508-0.118-0.753-0.352L1,5.693V18.5z M12.313,8.477c0.255,0,0.508,0.118,0.753,0.35L23,18.307V5.5
		C23,5.224,22.776,5,22.5,5H1.723l9.777,9.332V9.5c0-0.669,0.359-0.896,0.514-0.963C12.108,8.497,12.208,8.477,12.313,8.477z"/>
</g>
</svg>
