<?xml version="1.0" encoding="utf-8"?>
<!-- Generator: Adobe Illustrator 22.1.0, SVG Export Plug-In . SVG Version: 6.00 Build 0)  -->
<svg version="1.1" id="Layer_1" xmlns="http://www.w3.org/2000/svg" xmlns:xlink="http://www.w3.org/1999/xlink" x="0px" y="0px"
	 viewBox="0 0 24 24" style="enable-background:new 0 0 24 24;" xml:space="preserve">
<g>
	<title>army-symbol-air-defence</title>
	<path d="M1.5,20C0.673,20,0,19.327,0,18.5v-13C0,4.673,0.673,4,1.5,4h21C23.327,4,24,4.673,24,5.5v13c0,0.827-0.673,1.5-1.5,1.5
		H1.5z M1.114,18.812C1.208,18.93,1.349,19,1.5,19h21c0.151,0,0.292-0.07,0.386-0.188C22.109,16.385,17.372,14.5,12,14.5
		C6.628,14.5,1.891,16.385,1.114,18.812z M1.5,5C1.224,5,1,5.224,1,5.5v11.57c1.874-2.16,6.141-3.57,11-3.57
		c4.859,0,9.126,1.409,11,3.57V5.5C23,5.224,22.776,5,22.5,5H1.5z"/>
</g>
</svg>
