<?xml version="1.0" encoding="utf-8"?>
<!-- Generator: Adobe Illustrator 22.1.0, SVG Export Plug-In . SVG Version: 6.00 Build 0)  -->
<svg version="1.1" id="Layer_1" xmlns="http://www.w3.org/2000/svg" xmlns:xlink="http://www.w3.org/1999/xlink" x="0px" y="0px"
	 viewBox="0 0 24 24" style="enable-background:new 0 0 24 24;" xml:space="preserve">
<g>
	<title>army-symbol-regiment</title>
	<path d="M12,6c-0.276,0-0.5-0.224-0.5-0.5v-4C11.5,1.224,11.724,1,12,1c0.276,0,0.5,0.224,0.5,0.5v4C12.5,5.776,12.276,6,12,6z"/>
	<path d="M15.5,6C15.224,6,15,5.776,15,5.5v-4C15,1.224,15.224,1,15.5,1S16,1.224,16,1.5v4C16,5.776,15.776,6,15.5,6z"/>
	<path d="M8.5,6C8.224,6,8,5.776,8,5.5v-4C8,1.224,8.224,1,8.5,1S9,1.224,9,1.5v4C9,5.776,8.776,6,8.5,6z"/>
	<path d="M1.5,23C0.673,23,0,22.327,0,21.5v-13C0,7.673,0.673,7,1.5,7h21C23.327,7,24,7.673,24,8.5v13c0,0.827-0.673,1.5-1.5,1.5
		H1.5z M1.5,8C1.224,8,1,8.224,1,8.5v13C1,21.776,1.224,22,1.5,22h21c0.276,0,0.5-0.224,0.5-0.5v-13C23,8.224,22.776,8,22.5,8H1.5z"
		/>
</g>
</svg>
