<?xml version="1.0" encoding="utf-8"?>
<!-- Generator: Adobe Illustrator 22.1.0, SVG Export Plug-In . SVG Version: 6.00 Build 0)  -->
<svg version="1.1" id="Layer_1" xmlns="http://www.w3.org/2000/svg" xmlns:xlink="http://www.w3.org/1999/xlink" x="0px" y="0px"
	 viewBox="0 0 24 24" style="enable-background:new 0 0 24 24;" xml:space="preserve">
<g>
	<title>army-symbol-armor</title>
	<path d="M1.5,20C0.673,20,0,19.327,0,18.5v-13C0,4.673,0.673,4,1.5,4h21C23.327,4,24,4.673,24,5.5v13c0,0.827-0.673,1.5-1.5,1.5
		H1.5z M1.5,5C1.224,5,1,5.224,1,5.5v13C1,18.776,1.224,19,1.5,19h21c0.276,0,0.5-0.224,0.5-0.5v-13C23,5.224,22.776,5,22.5,5H1.5z"
		/>
	<path d="M9,17c-2.757,0-5-2.243-5-5c0-2.757,2.243-5,5-5h6c2.757,0,5,2.243,5,5c0,2.757-2.243,5-5,5H9z M9,8c-2.206,0-4,1.794-4,4
		s1.794,4,4,4h6c2.206,0,4-1.794,4-4s-1.794-4-4-4H9z"/>
</g>
</svg>
