<?xml version="1.0" encoding="utf-8"?>
<!-- Generator: Adobe Illustrator 22.1.0, SVG Export Plug-In . SVG Version: 6.00 Build 0)  -->
<svg version="1.1" id="Light" xmlns="http://www.w3.org/2000/svg" xmlns:xlink="http://www.w3.org/1999/xlink" x="0px" y="0px"
	 viewBox="0 0 24 24" style="enable-background:new 0 0 24 24;" xml:space="preserve">
<g>
	<title>card-game-cards-spade-diamond</title>
	<path d="M15.221,17.697c-0.049,0-0.098-0.004-0.147-0.011c-0.265-0.04-0.499-0.18-0.658-0.394
		c-0.079-0.106-0.135-0.225-0.167-0.354l-0.608-2.448c-0.098-0.392,0.049-0.802,0.374-1.044l2.027-1.5
		c0.173-0.129,0.378-0.197,0.593-0.197c0.049,0,0.099,0.004,0.149,0.011c0.264,0.039,0.497,0.179,0.656,0.394
		c0.079,0.107,0.135,0.226,0.167,0.355l0.608,2.448c0.097,0.393-0.05,0.802-0.374,1.044L15.815,17.5
		C15.642,17.629,15.436,17.697,15.221,17.697z M14.611,14.25l0.609,2.448l2.026-1.5l-0.609-2.447L14.611,14.25z"/>
	<path d="M18.267,23.999c-0.115,0-0.228-0.02-0.336-0.059l-9.411-3.379C8,20.375,7.729,19.801,7.915,19.282l0.876-2.44l-4.424,1.019
		c-0.075,0.017-0.151,0.026-0.226,0.026c-0.186,0-0.369-0.052-0.528-0.152c-0.227-0.141-0.385-0.363-0.445-0.623L0.025,3.469
		c-0.06-0.26-0.015-0.528,0.126-0.755C0.293,2.488,0.514,2.33,0.774,2.27l9.745-2.244C10.594,0.008,10.67,0,10.746,0
		c0.186,0,0.369,0.052,0.528,0.152c0.226,0.141,0.384,0.363,0.445,0.623l1.147,4.976c0.083-0.087,0.183-0.158,0.295-0.211
		c0.135-0.064,0.278-0.096,0.426-0.096c0.115,0,0.229,0.02,0.339,0.059l9.411,3.378c0.519,0.186,0.789,0.76,0.603,1.279
		l-4.73,13.177C19.066,23.732,18.688,23.999,18.267,23.999z M8.857,19.62l9.411,3.379l4.73-13.177l-9.41-3.378L8.857,19.62z
		 M1,3.244l3.143,13.642l5.051-1.163l3.011-8.388c0,0-1.461-6.335-1.461-6.335L1,3.244z"/>
	<path d="M8.005,11.881c-0.234,0-0.434-0.159-0.487-0.388l-0.121-0.525c-0.088,0.008-0.17,0.012-0.249,0.012
		c-1.111,0-1.932-0.565-2.142-1.474c-0.268-1.158,1.197-2.97,1.493-3.321c0.095-0.113,0.234-0.178,0.382-0.178
		c0.07,0,0.139,0.015,0.203,0.043c0.42,0.186,2.527,1.172,2.795,2.332c0.262,1.138-0.539,1.983-1.508,2.364l0.121,0.523
		c0.03,0.13,0.008,0.264-0.063,0.377s-0.182,0.192-0.312,0.222C8.081,11.876,8.043,11.881,8.005,11.881z M7.025,7.127
		C6.341,8.019,5.898,8.924,5.981,9.28c0.146,0.634,0.853,0.702,1.15,0.702c0.177,0,0.358-0.021,0.538-0.063
		c0.704-0.162,1.391-0.643,1.237-1.314C8.823,8.25,8.028,7.629,7.025,7.127z"/>
	<path d="M2.899,5.239c-0.414,0-0.75-0.336-0.75-0.75c0-0.011,0.001-0.024,0.003-0.036C2.169,4.06,2.499,3.74,2.897,3.739
		c0.203,0,0.39,0.077,0.531,0.217C3.564,4.09,3.641,4.269,3.648,4.459c0.001,0.01,0.002,0.02,0.002,0.03
		C3.65,4.902,3.314,5.239,2.899,5.239L2.899,5.239z"/>
	<circle cx="17.138" cy="20.639" r="0.75"/>
	<circle cx="14.638" cy="8.639" r="0.75"/>
</g>
</svg>
