<?xml version="1.0" encoding="utf-8"?>
<!-- Generator: Adobe Illustrator 22.1.0, SVG Export Plug-In . SVG Version: 6.00 Build 0)  -->
<svg version="1.1" id="Light" xmlns="http://www.w3.org/2000/svg" xmlns:xlink="http://www.w3.org/1999/xlink" x="0px" y="0px"
	 viewBox="0 0 24 24" style="enable-background:new 0 0 24 24;" xml:space="preserve">
<g>
	<title>card-game-heart</title>
	<path d="M12,16.8c-0.106,0-0.207-0.033-0.292-0.094C11.557,16.597,8,14.005,8,11.218c0-1.722,0.985-2.602,1.962-2.709
		c0.066-0.007,0.133-0.011,0.201-0.011c0.575,0,1.319,0.283,1.837,1.046c0.518-0.763,1.262-1.046,1.838-1.046
		c0.068,0,0.135,0.004,0.201,0.011C15.015,8.616,16,9.495,16,11.216c0,2.787-3.556,5.381-3.708,5.49
		C12.207,16.767,12.106,16.8,12,16.8z M10.174,9.497c-0.035,0-0.069,0.002-0.102,0.005C9.538,9.561,9,10.115,9,11.218
		c0,1.869,2.245,3.84,3,4.449c0.755-0.61,3-2.583,3-4.452c0-1.102-0.538-1.655-1.071-1.714c-0.034-0.004-0.069-0.006-0.104-0.006
		c-0.469,0-1.1,0.376-1.337,1.435c-0.052,0.23-0.252,0.391-0.488,0.391s-0.437-0.161-0.488-0.391
		C11.276,9.873,10.644,9.497,10.174,9.497z"/>
	<path d="M4.5,24C3.121,24,2,22.878,2,21.5v-19C2,1.121,3.121,0,4.5,0h15C20.878,0,22,1.121,22,2.5v19c0,1.378-1.122,2.5-2.5,2.5
		H4.5z M4.5,1C3.673,1,3,1.673,3,2.5v19C3,22.327,3.673,23,4.5,23h15c0.827,0,1.5-0.673,1.5-1.5v-19C21,1.673,20.327,1,19.5,1H4.5z"
		/>
	<path d="M6.5,6C6.387,6,6.277,5.961,6.189,5.891C5.907,5.667,4.5,4.498,4.5,3.48C4.5,2.498,5.173,2,6.5,2s2,0.498,2,1.48
		c0,1.018-1.407,2.188-1.689,2.412C6.723,5.962,6.612,6,6.5,6z M6.5,3c-1,0-1,0.233-1,0.48c0,0.266,0.42,0.832,1,1.362
		c0.58-0.529,1-1.095,1-1.362C7.5,3.233,7.5,3,6.5,3z"/>
	<path d="M17.5,22c-0.113,0-0.223-0.039-0.311-0.109c-0.282-0.224-1.689-1.392-1.689-2.411c0-0.982,0.673-1.48,2-1.48
		s2,0.498,2,1.48c0,1.017-1.407,2.187-1.689,2.412C17.722,21.962,17.612,22,17.5,22z M17.5,19c-1,0-1,0.233-1,0.48
		c0,0.267,0.42,0.833,1,1.362c0.58-0.529,1-1.095,1-1.362C18.5,19.233,18.5,19,17.5,19z"/>
</g>
</svg>
