<svg xmlns="http://www.w3.org/2000/svg" viewBox="0 0 24 24"><title>hardware-nail-round-head</title><path d="M22.389,1.611A5.5,5.5,0,0,0,15.705.762a1.512,1.512,0,0,0-.725,1.1,1.492,1.492,0,0,0,.428,1.248l.618.618L9.613,10.145l0,0-3,3,0,0-3,3,0,0-3,3,0,0-.17.169a1.5,1.5,0,0,0,0,2.121l2.122,2.122a1.5,1.5,0,0,0,2.121,0l3.706-3.707h0l3-3,0,0,3-3,0,0,3-3,0,0,2.876-2.877.618.618a1.511,1.511,0,0,0,1.064.439,1.657,1.657,0,0,0,.186-.011,1.494,1.494,0,0,0,1.1-.726A5.5,5.5,0,0,0,22.389,1.611ZM13.828,13H8.172l2-2h5.656Zm-3,3H5.172l2-2h5.656Zm-3,3H2.172l2-2H9.828ZM3.975,22.854a.5.5,0,0,1-.707,0L1.146,20.732a.5.5,0,0,1,0-.707L1.172,20H6.829ZM16.828,10H11.172l5.56-5.561,1.414,1.415L19.56,7.268Zm5.549-2.214a.5.5,0,0,1-.368.242.5.5,0,0,1-.417-.142l-.97-.971h0L18.854,5.146,16.115,2.407a.5.5,0,0,1-.143-.416.506.506,0,0,1,.241-.368,4.5,4.5,0,0,1,6.164,6.163Z"/></svg>