<svg xmlns="http://www.w3.org/2000/svg" viewBox="0 0 24 24"><title>hardware-nails</title><path d="M8.5.041h-7a1.5,1.5,0,0,0,0,3H3V15.959a.992.992,0,0,0,.052.316l1,3a1,1,0,0,0,1.9,0l1-3A1,1,0,0,0,7,15.959V3.041H8.5a1.5,1.5,0,0,0,0-3ZM6,15.959l-1,3-1-3V3.041H6ZM8.5,2.041h-7a.5.5,0,0,1,0-1h7a.5.5,0,0,1,0,1Z"/><path d="M23.237,8.2l-6.1-3.438a1.5,1.5,0,0,0-1.473,2.613l1.306.737L10.626,19.364a1.041,1.041,0,0,0-.11.3l-.6,3.1a1,1,0,0,0,1.652.932l2.347-2.124a1.011,1.011,0,0,0,.2-.249l6.345-11.252,1.307.736a1.489,1.489,0,0,0,.735.2,1.521,1.521,0,0,0,.4-.056A1.5,1.5,0,0,0,23.237,8.2Zm-10,12.639h0L10.9,22.96l.6-3.106L17.843,8.6l1.742.982Zm9.7-11.087h0a.5.5,0,0,1-.682.189l-1.742-.982L17.9,7.485,16.157,6.5a.5.5,0,1,1,.491-.871l6.1,3.438A.5.5,0,0,1,22.936,9.751Z"/></svg>