<svg xmlns="http://www.w3.org/2000/svg" viewBox="0 0 24 24"><title>hardware-hammer-nail</title><path d="M18,7.2,16.59,5.789a.986.986,0,0,0-.954-.245L11.971,1.9a6.509,6.509,0,0,0-9.192,0l-.812.812A1,1,0,0,0,2.751,4.42l.5-.038a5.418,5.418,0,0,1,2.322.327A1.088,1.088,0,0,1,5.96,6.5h0L.146,12.314a.5.5,0,0,0,.708.707l5.46-5.46L8.436,9.682.146,17.971a.5.5,0,0,0,.708.707L9.5,10.035a1.506,1.506,0,0,1,1.886-.174.982.982,0,0,0,.259.877l1.409,1.409a1,1,0,0,0,1.414,0L18,8.612A1,1,0,0,0,18,7.2ZM9.178,9.01l-2.2-2.2a2.091,2.091,0,0,0-1.06-3.04A6.444,6.444,0,0,0,3.17,3.385l-.5.038.812-.813a5.507,5.507,0,0,1,7.778,0l2.475,2.476,0,0,1.071,1.052L11.953,9A2.538,2.538,0,0,0,9.178,9.01Zm4.579,2.43-1.409-1.409L15.883,6.5l1.41,1.409Z"/><path d="M22.5,17h-3a1.5,1.5,0,0,0,0,3h1v3.5a.5.5,0,0,0,1,0V20h1a1.5,1.5,0,0,0,0-3Zm0,2h-3a.5.5,0,0,1,0-1h3a.5.5,0,0,1,0,1Z"/></svg>