<svg xmlns="http://www.w3.org/2000/svg" viewBox="0 0 24 24"><title>hardware-nut</title><path d="M23.777,11.228,18.341,2.694A1.5,1.5,0,0,0,17.076,2H6.924a1.5,1.5,0,0,0-1.265.694L.223,11.228a1.506,1.506,0,0,0,0,1.617L5.659,21.31A1.493,1.493,0,0,0,6.921,22H17.079a1.5,1.5,0,0,0,1.262-.689l5.433-8.467A1.5,1.5,0,0,0,23.777,11.228ZM22.933,12.3,17.5,20.771a.5.5,0,0,1-.421.229H6.921a.5.5,0,0,1-.421-.23L1.067,12.305a.5.5,0,0,1,0-.54L6.5,3.231A.5.5,0,0,1,6.924,3H17.076a.5.5,0,0,1,.422.231l5.436,8.534A.5.5,0,0,1,22.933,12.3Z"/><path d="M12,6a6,6,0,1,0,6,6A6.006,6.006,0,0,0,12,6Zm0,11a5,5,0,1,1,5-5A5.006,5.006,0,0,1,12,17Z"/></svg>