<svg xmlns="http://www.w3.org/2000/svg" viewBox="0 0 24 24"><title>hardware-nail</title><path d="M23.561,6.1,17.9.439a1.537,1.537,0,0,0-2.121,0L14.368,1.854a1.5,1.5,0,0,0,0,2.121l.707.707L8.139,11.619l0,.005L5.139,14.619l-.006.005L2.139,17.619l-.006.006-.845.845a1.492,1.492,0,0,0-.382.648l-.848,2.97A1.5,1.5,0,0,0,1.5,24a1.484,1.484,0,0,0,.411-.058l2.97-.848a1.506,1.506,0,0,0,.648-.382l4.384-4.384h0l9.4-9.4.707.707h0a1.5,1.5,0,0,0,2.121,0l1.415-1.414a1.5,1.5,0,0,0,0-2.121ZM12.354,14.475H6.7l2-2h5.657Zm-3,3H3.7l2-2h5.657Zm-4.531,4.53a.512.512,0,0,1-.216.128l-2.969.848a.5.5,0,0,1-.618-.618l.848-2.971A.5.5,0,0,1,2,19.177l.7-.7H8.354ZM18.611,8.218l-3.257,3.257H9.7l6.085-6.086L18.14,7.746Zm4.243-.707L21.439,8.925a.51.51,0,0,1-.706,0h0L16.618,4.81l-.482-.482h0l-1.06-1.06a.5.5,0,0,1,0-.707L16.49,1.146a.5.5,0,0,1,.707,0L22.854,6.8A.5.5,0,0,1,23,7.156.5.5,0,0,1,22.854,7.511Z"/></svg>