<?xml version="1.0" encoding="utf-8"?>
<!-- Generator: Adobe Illustrator 22.1.0, SVG Export Plug-In . SVG Version: 6.00 Build 0)  -->
<svg version="1.1" id="Light" xmlns="http://www.w3.org/2000/svg" xmlns:xlink="http://www.w3.org/1999/xlink" x="0px" y="0px"
	 viewBox="0 0 24 24" style="enable-background:new 0 0 24 24;" xml:space="preserve">
<g>
	<title>pool-player-table</title>
	<path d="M6.5,6c-1.654,0-3-1.346-3-3s1.346-3,3-3s3,1.346,3,3S8.154,6,6.5,6z M6.5,1c-1.103,0-2,0.897-2,2s0.897,2,2,2s2-0.897,2-2
		S7.603,1,6.5,1z"/>
	<path d="M11.5,24c-0.044,0-0.088-0.006-0.13-0.017c-0.267-0.072-0.425-0.347-0.353-0.613l2.007-7.427
		c-0.128-0.031-0.252-0.074-0.37-0.129c-0.471-0.22-0.832-0.606-1.02-1.09L10,11.775V22c0,1.103-0.897,2-2,2
		c-0.575,0-1.123-0.254-1.5-0.679C6.123,23.746,5.575,24,5,24c-1.103,0-2-0.897-2-2v-4.267C2.699,17.907,2.357,18,2,18
		c-1.103,0-2-0.897-2-2v-5.5C0,8.57,1.57,7,3.5,7h6.414c1.441,0,2.752,0.902,3.268,2.247l1.102,2.035l2.733-10.116
		c0.059-0.218,0.258-0.37,0.483-0.37c0.044,0,0.087,0.006,0.13,0.017c0.267,0.072,0.425,0.347,0.353,0.613l-3.008,11.132
		l0.374,0.691c0.013,0.026,0.023,0.047,0.03,0.068c0.183,0.501,0.159,1.044-0.067,1.529c-0.226,0.484-0.627,0.852-1.129,1.034
		c-0.037,0.013-0.075,0.026-0.116,0.038l-2.084,7.713C11.924,23.848,11.725,24,11.5,24z M6.5,16.5C6.776,16.5,7,16.724,7,17v5
		c0,0.552,0.449,1,1,1s1-0.448,1-1V11c0-0.133,0.052-0.259,0.146-0.353c0.1-0.1,0.223-0.178,0.356-0.224
		c0.101-0.036,0.207-0.054,0.313-0.054c0.142,0,0.28,0.032,0.409,0.094c0.212,0.102,0.376,0.276,0.465,0.492l1.837,3.316
		c0.012,0.022,0.022,0.045,0.031,0.068c0.093,0.254,0.276,0.455,0.519,0.568c0.134,0.063,0.276,0.094,0.422,0.094
		c0.116,0,0.232-0.021,0.343-0.061c0.251-0.092,0.452-0.275,0.565-0.517c0.108-0.231,0.124-0.491,0.044-0.733l-2.164-3.996
		c-0.012-0.022-0.021-0.042-0.029-0.063C11.895,8.655,10.953,8,9.914,8H3.5C2.121,8,1,9.121,1,10.5V16c0,0.552,0.449,1,1,1
		s1-0.448,1-1v-5c0-0.276,0.224-0.5,0.5-0.5S4,10.724,4,11v11c0,0.552,0.449,1,1,1s1-0.448,1-1v-5C6,16.724,6.224,16.5,6.5,16.5z"/>
	<path d="M20.5,24c-0.243,0-0.45-0.174-0.492-0.413L18.581,15.5H17.5c-0.552,0-1-0.448-1-1V13c0-0.552,0.448-1,1-1h6
		c0.276,0,0.5,0.224,0.5,0.5c0,0.276-0.224,0.5-0.5,0.5h-6v1.5h6c0.276,0,0.5,0.224,0.5,0.5s-0.224,0.5-0.5,0.5h-3.904l1.396,7.913
		c0.023,0.131-0.006,0.264-0.083,0.374c-0.076,0.109-0.191,0.183-0.323,0.206C20.559,23.998,20.529,24,20.5,24z"/>
</g>
</svg>
