<?xml version="1.0" encoding="utf-8"?>
<!-- Generator: Adobe Illustrator 22.1.0, SVG Export Plug-In . SVG Version: 6.00 Build 0)  -->
<svg version="1.1" id="Light" xmlns="http://www.w3.org/2000/svg" xmlns:xlink="http://www.w3.org/1999/xlink" x="0px" y="0px"
	 viewBox="0 0 24 24" style="enable-background:new 0 0 24 24;" xml:space="preserve">
<g>
	<title>eco-house-sun</title>
	<path d="M1,24c-0.551,0-1-0.448-1-1V12.253c0-0.313,0.15-0.612,0.4-0.8l6.504-4.788C7.078,6.538,7.282,6.47,7.496,6.47
		c0.214,0,0.418,0.067,0.592,0.195l6.5,4.782c0.253,0.19,0.404,0.49,0.404,0.803V23c0,0.542-0.441,0.991-0.984,1
		c-0.001,0-0.003,0-0.004,0H1z M0.996,12.256L1,23h12.998l-0.006-10.75L7.496,7.471L0.996,12.256z"/>
	<path d="M3.5,21.266c-0.079,0-0.158-0.019-0.229-0.055c-0.12-0.062-0.207-0.166-0.248-0.293c-0.04-0.127-0.029-0.263,0.032-0.381
		c0.327-0.632,0.767-1.482,1.38-2.33c-0.874-0.743-1.063-1.494-1.062-2.008c0.002-0.883,0.549-1.753,1.5-2.387
		c0.831-0.554,1.676-0.772,2.493-0.984c0.919-0.237,1.867-0.482,2.852-1.226c0.086-0.065,0.193-0.101,0.301-0.101
		c0.041,0,0.083,0.005,0.123,0.016c0.147,0.037,0.268,0.138,0.332,0.276c1.033,2.25,0.272,6.023-1.053,7.418
		c-0.79,0.833-1.744,1.311-2.618,1.311c-0.148,0-0.294-0.014-0.433-0.04c-0.733-0.141-1.341-0.616-1.814-1.417
		c-0.479,0.705-0.84,1.403-1.113,1.932C3.858,21.163,3.688,21.266,3.5,21.266z M5.725,18.185c0.355,0.77,0.804,1.212,1.334,1.314
		c0.079,0.015,0.163,0.023,0.248,0.023c0.597,0,1.285-0.364,1.888-1c0.944-0.994,1.579-3.85,1.071-5.744
		c-0.933,0.574-1.804,0.799-2.649,1.017c-0.772,0.199-1.5,0.388-2.19,0.848c-0.669,0.446-1.053,1.014-1.054,1.558
		c-0.001,0.411,0.235,0.83,0.686,1.221c0.801-0.909,1.679-1.558,2.677-1.983c0.063-0.026,0.128-0.04,0.195-0.04
		c0.201,0,0.382,0.12,0.46,0.304c0.108,0.253-0.011,0.548-0.264,0.656C7.238,16.738,6.451,17.336,5.725,18.185z"/>
	<path d="M22.108,9c-0.276,0-0.5-0.224-0.5-0.5s0.224-0.5,0.5-0.5H23.5C23.776,8,24,8.224,24,8.5S23.776,9,23.5,9H22.108z"/>
	<path d="M20.37,4.11c-0.134,0-0.259-0.052-0.354-0.146c-0.195-0.195-0.195-0.512,0-0.707l1.043-1.043
		c0.094-0.094,0.22-0.146,0.354-0.146s0.259,0.052,0.354,0.146s0.146,0.22,0.146,0.354s-0.052,0.259-0.146,0.354l-1.043,1.043
		C20.629,4.058,20.504,4.11,20.37,4.11z"/>
	<path d="M15.5,2.392c-0.276,0-0.5-0.224-0.5-0.5V0.5C15,0.224,15.224,0,15.5,0S16,0.224,16,0.5v1.392
		C16,2.168,15.776,2.392,15.5,2.392z"/>
	<path d="M10.631,4.11c-0.134,0-0.259-0.052-0.353-0.146L9.234,2.921c-0.095-0.094-0.147-0.22-0.147-0.354s0.052-0.259,0.146-0.354
		c0.094-0.095,0.22-0.147,0.354-0.147c0.134,0,0.259,0.052,0.353,0.146l1.044,1.043c0.195,0.195,0.195,0.512,0,0.707
		C10.89,4.058,10.765,4.11,10.631,4.11z"/>
	<path d="M17,13.771c-0.219,0-0.411-0.14-0.477-0.35c-0.083-0.263,0.063-0.544,0.326-0.627c1.27-0.4,2.292-1.334,2.803-2.564
		c0.462-1.11,0.464-2.333,0.005-3.444c-0.458-1.111-1.322-1.977-2.432-2.439c-0.551-0.229-1.13-0.345-1.722-0.345
		c-1.827,0-3.461,1.088-4.161,2.772c-0.078,0.187-0.259,0.308-0.462,0.308c-0.066,0-0.13-0.013-0.192-0.038
		c-0.124-0.051-0.22-0.148-0.271-0.271c-0.051-0.123-0.051-0.259,0-0.383c0.856-2.058,2.852-3.388,5.085-3.388
		c0.724,0,1.432,0.142,2.105,0.422c1.357,0.564,2.412,1.623,2.972,2.981s0.558,2.853-0.006,4.21
		c-0.625,1.502-1.873,2.645-3.425,3.134C17.101,13.763,17.051,13.771,17,13.771z"/>
</g>
</svg>
