<?xml version="1.0" encoding="utf-8"?>
<!-- Generator: Adobe Illustrator 22.1.0, SVG Export Plug-In . SVG Version: 6.00 Build 0)  -->
<svg version="1.1" id="Layer_1" xmlns="http://www.w3.org/2000/svg" xmlns:xlink="http://www.w3.org/1999/xlink" x="0px" y="0px"
	 viewBox="0 0 24 24" style="enable-background:new 0 0 24 24;" xml:space="preserve">
<g>
	<title>rating-hotel</title>
	<path d="M4.496,19.001c-1.379,0-2.5-1.122-2.5-2.5s1.121-2.5,2.5-2.5s2.5,1.122,2.5,2.5S5.874,19.001,4.496,19.001z M4.496,15.001
		c-0.827,0-1.5,0.673-1.5,1.5s0.673,1.5,1.5,1.5s1.5-0.673,1.5-1.5S5.323,15.001,4.496,15.001z"/>
	<path d="M8.996,19.001c-0.551,0-1-0.448-1-1v-3.658c0-0.726,0.568-1.312,1.295-1.333c0.21-0.006,0.418-0.009,0.625-0.009
		c4.623,0,8.639,1.414,10.744,3.782c0.217,0.244,0.336,0.558,0.336,0.885c0,0.735-0.598,1.333-1.333,1.333H8.996z M9.933,14.001
		c-0.203,0-0.408,0.003-0.613,0.009c-0.182,0.005-0.324,0.151-0.324,0.333v3.658h10.667c0.184,0,0.333-0.149,0.333-0.333
		c0-0.082-0.03-0.16-0.084-0.221C18.023,15.321,14.199,14.001,9.933,14.001z"/>
	<path d="M23.496,24.001c-0.276,0-0.5-0.224-0.5-0.5v-2.5h-22v2.5c0,0.276-0.224,0.5-0.5,0.5s-0.5-0.224-0.5-0.5v-12
		c0-0.276,0.224-0.5,0.5-0.5s0.5,0.224,0.5,0.5v8.5h22v-6.5c0-0.276,0.224-0.5,0.5-0.5s0.5,0.224,0.5,0.5v10
		C23.996,23.776,23.772,24.001,23.496,24.001z"/>
	<path d="M16.912,9c-0.365,0-0.706-0.196-0.888-0.512c-0.159-0.275-0.181-0.613-0.059-0.906l0.801-1.84l-1.4-0.977
		c-0.014-0.01-0.03-0.022-0.044-0.035c-0.198-0.175-0.316-0.417-0.333-0.68c-0.016-0.264,0.071-0.518,0.246-0.716
		C15.423,3.122,15.693,3,15.977,3l0.046,0.001l1.631,0l0.904-2.39c0.006-0.017,0.014-0.035,0.023-0.051
		c0.179-0.345,0.53-0.558,0.918-0.558c0.163,0,0.327,0.04,0.472,0.115c0.19,0.099,0.343,0.251,0.441,0.441
		c0.009,0.017,0.017,0.034,0.023,0.052l0.909,2.391l1.682,0c0.245,0,0.481,0.093,0.664,0.263c0.195,0.179,0.307,0.424,0.318,0.688
		c0.012,0.296-0.108,0.58-0.33,0.778c-0.016,0.014-0.031,0.026-0.048,0.038l-1.403,0.976l0.798,1.832
		C23.246,8.101,23,8.704,22.48,8.921C22.354,8.974,22.221,9,22.085,9c-0.182,0-0.36-0.048-0.516-0.139L19.5,7.696l-2.082,1.169
		C17.266,8.953,17.091,9,16.912,9z M17.674,5.157c0.194,0.135,0.267,0.392,0.172,0.609l-0.961,2.208L16.911,8l2.344-1.313
		c0.074-0.042,0.159-0.064,0.245-0.064c0.086,0,0.171,0.022,0.246,0.065l2.32,1.307c0,0,0.028,0.005,0.028,0.005
		c0.01-0.004,0.017-0.021,0.013-0.031l-0.959-2.201c-0.095-0.218-0.022-0.474,0.173-0.61l1.686-1.173L21,4.001
		c-0.206,0-0.394-0.13-0.467-0.322L19.52,1.014l-0.022-0.013c-0.007,0-0.015,0.002-0.021,0.008l-1.009,2.669
		C18.395,3.871,18.207,4.001,18,4.001h-1.982L17.674,5.157z"/>
	<path d="M1.496,3.001c-0.276,0-0.5-0.224-0.5-0.5s0.224-0.5,0.5-0.5h7c0.276,0,0.5,0.224,0.5,0.5s-0.224,0.5-0.5,0.5H1.496z"/>
	<path d="M1.496,6.001c-0.276,0-0.5-0.224-0.5-0.5s0.224-0.5,0.5-0.5h7c0.276,0,0.5,0.224,0.5,0.5s-0.224,0.5-0.5,0.5H1.496z"/>
	<path d="M1.496,9.001c-0.276,0-0.5-0.224-0.5-0.5s0.224-0.5,0.5-0.5h7c0.276,0,0.5,0.224,0.5,0.5s-0.224,0.5-0.5,0.5H1.496z"/>
	<circle cx="10.75" cy="2.251" r="0.75"/>
	<circle cx="10.75" cy="5.251" r="0.75"/>
	<circle cx="10.75" cy="8.251" r="0.75"/>
</g>
</svg>
