<?xml version="1.0" encoding="utf-8"?>
<!-- Generator: Adobe Illustrator 22.1.0, SVG Export Plug-In . SVG Version: 6.00 Build 0)  -->
<svg version="1.1" id="Layer_1" xmlns="http://www.w3.org/2000/svg" xmlns:xlink="http://www.w3.org/1999/xlink" x="0px" y="0px"
	 viewBox="0 0 24 24" style="enable-background:new 0 0 24 24;" xml:space="preserve">
<g>
	<title>car-insurance-hands</title>
	<path d="M16.5,12c-0.827,0-1.5-0.673-1.5-1.5V10H9v0.5C9,11.327,8.327,12,7.5,12S6,11.327,6,10.5V10H5.5C4.673,10,4,9.327,4,8.5v-2
		c0-0.907,0.488-1.725,1.253-2.165l-1.51-0.906c-0.236-0.142-0.313-0.45-0.171-0.686C3.661,2.593,3.825,2.5,4,2.5
		c0.091,0,0.18,0.025,0.257,0.072l1.841,1.105l0.295-2.362C6.487,0.565,7.127,0,7.882,0h8.235c0.755,0,1.395,0.565,1.488,1.314
		l0.296,2.363l1.842-1.105C19.821,2.525,19.909,2.5,20,2.5c0.175,0,0.339,0.093,0.429,0.243c0.142,0.236,0.065,0.544-0.171,0.686
		l-1.51,0.906C19.512,4.775,20,5.593,20,6.5v2c0,0.827-0.673,1.5-1.5,1.5H18v0.5C18,11.327,17.327,12,16.5,12z M16,10.5
		c0,0.276,0.224,0.5,0.5,0.5s0.5-0.224,0.5-0.5V10h-1V10.5z M7,10.5C7,10.776,7.224,11,7.5,11S8,10.776,8,10.5V10H7V10.5z M5,8.5
		C5,8.776,5.224,9,5.5,9h13C18.776,9,19,8.776,19,8.5V8h-2c-0.276,0-0.5-0.224-0.5-0.5S16.724,7,17,7h2V6.5
		C19,5.673,18.327,5,17.5,5h-11C5.673,5,5,5.673,5,6.5V7h2c0.276,0,0.5,0.224,0.5,0.5S7.276,8,7,8H5V8.5z M16.934,4l-0.321-2.562
		C16.582,1.188,16.368,1,16.117,1H7.882C7.631,1,7.417,1.188,7.386,1.438L7.066,4H16.934z"/>
	<path d="M3.5,24c-0.153,0-0.295-0.068-0.391-0.188l-2.014-2.517C0.389,20.412,0,19.302,0,18.171V13c0-1.103,0.897-2,2-2
		s2,0.897,2,2v2.2c0.276-0.149,0.584-0.227,0.896-0.227c0.155,0,0.312,0.019,0.464,0.057c0.493,0.123,0.907,0.431,1.168,0.866
		l1.13,1.688C8.209,18.411,8.5,19.371,8.5,20.363v3c0,0.276-0.224,0.5-0.5,0.5s-0.5-0.224-0.5-0.5v-3
		c0-0.794-0.232-1.562-0.673-2.223l-1.143-1.708c-0.136-0.226-0.33-0.372-0.567-0.431c-0.072-0.018-0.146-0.027-0.22-0.027
		c-0.161,0-0.321,0.044-0.462,0.128l-0.041,0.026c-0.372,0.248-0.503,0.743-0.3,1.148l1.333,2.216
		c0.142,0.236,0.066,0.544-0.171,0.686C5.18,20.225,5.091,20.25,5,20.25c-0.175,0-0.339-0.093-0.429-0.243l-1.352-2.25
		c-0.154-0.304-0.224-0.626-0.214-0.949C3.003,16.796,3,16.774,3,16.75V13c0-0.552-0.449-1-1-1s-1,0.448-1,1v5.171
		c0,0.905,0.311,1.793,0.876,2.5l2.014,2.517c0.172,0.215,0.137,0.531-0.078,0.703C3.724,23.961,3.613,24,3.5,24z"/>
	<path d="M20.5,24c-0.113,0-0.224-0.039-0.312-0.109c-0.215-0.173-0.25-0.488-0.078-0.703l2.014-2.517
		c0.566-0.707,0.877-1.594,0.877-2.5V13c0-0.552-0.448-1-1-1s-1,0.448-1,1v3.75c0,0.01-0.001,0.023-0.003,0.036
		c0.015,0.325-0.052,0.648-0.197,0.937l-1.372,2.284c-0.091,0.15-0.255,0.242-0.429,0.242c-0.09,0-0.179-0.025-0.257-0.071
		c-0.236-0.143-0.313-0.45-0.171-0.686l1.353-2.25c0.185-0.372,0.046-0.87-0.325-1.117l-0.034-0.021
		c-0.141-0.085-0.301-0.129-0.463-0.129c-0.316,0-0.612,0.167-0.774,0.437l-1.156,1.73c-0.44,0.66-0.673,1.428-0.673,2.222v3
		c0,0.276-0.224,0.5-0.5,0.5s-0.5-0.224-0.5-0.5v-3c0-0.992,0.29-1.952,0.841-2.778l1.143-1.709c0.25-0.418,0.662-0.722,1.155-0.845
		c0.153-0.038,0.309-0.058,0.464-0.058c0.312,0,0.62,0.078,0.896,0.227V13c0-1.103,0.897-2,2-2s2,0.897,2,2v5.171
		c0,1.132-0.389,2.241-1.095,3.125l-2.014,2.517C20.794,23.932,20.652,24,20.5,24z"/>
</g>
</svg>
