<?xml version="1.0" encoding="utf-8"?>
<!-- Generator: Adobe Illustrator 22.1.0, SVG Export Plug-In . SVG Version: 6.00 Build 0)  -->
<svg version="1.1" id="Layer_1" xmlns="http://www.w3.org/2000/svg" xmlns:xlink="http://www.w3.org/1999/xlink" x="0px" y="0px"
	 viewBox="0 0 24 24" style="enable-background:new 0 0 24 24;" xml:space="preserve">
<g>
	<title>car-insurance</title>
	<path d="M8.5,23C3.813,23,0,19.187,0,14.5v-12C0,1.673,0.673,1,1.5,1h6C7.776,1,8,1.224,8,1.5S7.776,2,7.5,2h-6
		C1.224,2,1,2.224,1,2.5v12C1,18.635,4.365,22,8.5,22h7c4.135,0,7.5-3.365,7.5-7.5v-12C23,2.224,22.776,2,22.5,2h-6
		C16.224,2,16,1.776,16,1.5S16.224,1,16.5,1h6C23.327,1,24,1.673,24,2.5v12c0,4.687-3.813,8.5-8.5,8.5H8.5z"/>
	<path d="M17,19c-1.103,0-2-0.897-2-2v-1H9v1c0,1.103-0.897,2-2,2s-2-0.897-2-2v-1H4.5C3.673,16,3,15.327,3,14.5v-2
		c0-1.09,0.693-2.024,1.682-2.364L3.7,9.4C3.593,9.32,3.524,9.203,3.505,9.071C3.486,8.938,3.52,8.807,3.6,8.7
		C3.694,8.575,3.844,8.5,4,8.5c0.109,0,0.212,0.035,0.3,0.1l1.298,0.974L5.85,7.28C5.956,6.004,7.05,5,8.34,5h7.32
		c1.29,0,2.384,1.007,2.491,2.292l0.25,2.282L19.7,8.6c0.087-0.065,0.19-0.1,0.299-0.1c0.156,0,0.306,0.075,0.4,0.2
		c0.081,0.107,0.114,0.239,0.095,0.371C20.476,9.203,20.407,9.32,20.3,9.4l-0.982,0.736C20.307,10.476,21,11.41,21,12.5v2
		c0,0.827-0.673,1.5-1.5,1.5H19v1C19,18.103,18.103,19,17,19z M16,17c0,0.552,0.448,1,1,1s1-0.448,1-1v-1h-2V17z M6,17
		c0,0.552,0.449,1,1,1s1-0.448,1-1v-1H6V17z M4,14.5C4,14.776,4.224,15,4.5,15h15c0.276,0,0.5-0.224,0.5-0.5V14h-2
		c-0.276,0-0.5-0.224-0.5-0.5S17.724,13,18,13h2v-0.5c0-0.827-0.673-1.5-1.5-1.5h-13C4.673,11,4,11.673,4,12.5V13h2
		c0.276,0,0.5,0.224,0.5,0.5S6.276,14,6,14H4V14.5z M17.442,10l-0.286-2.612C17.091,6.607,16.434,6,15.66,6H8.34
		C7.566,6,6.91,6.604,6.845,7.375L6.558,10H17.442z"/>
</g>
</svg>
