<?xml version="1.0" encoding="utf-8"?>
<!-- Generator: Adobe Illustrator 22.1.0, SVG Export Plug-In . SVG Version: 6.00 Build 0)  -->
<svg version="1.1" id="Light" xmlns="http://www.w3.org/2000/svg" xmlns:xlink="http://www.w3.org/1999/xlink" x="0px" y="0px"
	 viewBox="0 0 24 24" style="enable-background:new 0 0 24 24;" xml:space="preserve">
<g>
	<title>real-estate-dimensions-building</title>
	<path d="M2.499,24c-0.276,0-0.5-0.224-0.5-0.5V6.707L0.853,7.854C0.758,7.948,0.633,8,0.499,8S0.24,7.948,0.146,7.854
		S-0.001,7.634-0.001,7.5s0.052-0.259,0.146-0.354l2-2C2.192,5.1,2.246,5.064,2.308,5.038C2.369,5.013,2.433,5,2.499,5
		S2.63,5.013,2.69,5.038C2.752,5.064,2.807,5.1,2.853,5.147l2,2C4.947,7.241,4.999,7.366,4.999,7.5S4.947,7.759,4.853,7.854
		S4.633,8,4.499,8S4.24,7.948,4.146,7.854L2.999,6.707V23.5C2.999,23.776,2.775,24,2.499,24z"/>
	<path d="M21.499,5c-0.134,0-0.259-0.052-0.354-0.146s-0.146-0.22-0.146-0.354s0.052-0.259,0.146-0.354L22.292,3H6.706l1.146,1.146
		C7.947,4.241,7.999,4.366,7.999,4.5S7.947,4.759,7.853,4.854S7.633,5,7.499,5S7.24,4.948,7.146,4.854l-2-2
		C5.1,2.807,5.063,2.753,5.038,2.692c-0.05-0.122-0.05-0.261,0-0.383C5.063,2.247,5.1,2.193,5.146,2.146l2-2
		C7.24,0.052,7.366,0,7.499,0s0.259,0.052,0.354,0.146S7.999,0.366,7.999,0.5S7.947,0.759,7.853,0.854L6.706,2h15.586l-1.146-1.146
		c-0.094-0.094-0.146-0.22-0.146-0.354s0.052-0.259,0.146-0.354S21.366,0,21.499,0s0.259,0.052,0.354,0.146l2,2
		c0.046,0.046,0.083,0.101,0.109,0.163c0.05,0.121,0.05,0.261,0,0.382c-0.025,0.061-0.062,0.116-0.109,0.163l-1.999,1.999
		C21.758,4.948,21.633,5,21.499,5z"/>
	<path d="M7.999,24c-0.551,0-1-0.448-1-1v-9c0-0.552,0.449-1,1-1h6V9.71c0-0.551,0.448-1,1-1c0.115,0,0.229,0.02,0.337,0.058
		l4.663,1.665V8c0-0.276,0.224-0.5,0.5-0.5s0.5,0.224,0.5,0.5v2.79l0.336,0.12c0.397,0.142,0.664,0.52,0.664,0.942V23
		c0,0.552-0.448,1-1,1H7.999z M20.999,23V11.852l-6-2.142V13h2.5c0.276,0,0.5,0.224,0.5,0.5s-0.224,0.5-0.5,0.5h-2.5v2h4
		c0.276,0,0.5,0.224,0.5,0.5s-0.224,0.5-0.5,0.5h-4v6h1v-3c0-0.552,0.448-1,1-1h2c0.552,0,1,0.448,1,1v3H20.999z M18.999,23v-3h-2
		l0,3H18.999z M7.999,23h6v-9h-6v2h2.5c0.276,0,0.5,0.224,0.5,0.5s-0.224,0.5-0.5,0.5h-2.5v2h2.5c0.276,0,0.5,0.224,0.5,0.5
		s-0.224,0.5-0.5,0.5h-2.5V23z"/>
</g>
</svg>
