<?xml version="1.0" encoding="utf-8"?>
<!-- Generator: Adobe Illustrator 22.1.0, SVG Export Plug-In . SVG Version: 6.00 Build 0)  -->
<svg version="1.1" id="Light" xmlns="http://www.w3.org/2000/svg" xmlns:xlink="http://www.w3.org/1999/xlink" x="0px" y="0px"
	 viewBox="0 0 24 24" style="enable-background:new 0 0 24 24;" xml:space="preserve">
<g>
	<title>real-estate-dimensions-building-ruler</title>
	<path d="M1.5,23c-0.551,0-1-0.448-1-1V1c0-0.551,0.449-1,1-1h21c0.552,0,1,0.449,1,1v3c0,0.551-0.448,1-1,1h-17v17
		c0,0.552-0.449,1-1,1H1.5z M1.5,22h3v-2H3c-0.276,0-0.5-0.224-0.5-0.5S2.724,19,3,19h1.5v-3H3c-0.276,0-0.5-0.224-0.5-0.5
		S2.724,15,3,15h1.5v-3H3c-0.276,0-0.5-0.224-0.5-0.5S2.724,11,3,11h1.5V8H3C2.724,8,2.5,7.776,2.5,7.5S2.724,7,3,7h1.5V5h-3V22z
		 M22.5,4V1h-17v3h2V2.5C7.5,2.224,7.724,2,8,2s0.5,0.224,0.5,0.5V4h3V2.5C11.5,2.224,11.724,2,12,2c0.276,0,0.5,0.224,0.5,0.5V4h3
		V2.5C15.5,2.224,15.724,2,16,2s0.5,0.224,0.5,0.5V4h3V2.5C19.5,2.224,19.724,2,20,2s0.5,0.224,0.5,0.5V4H22.5z M4.5,4V1h-3l0,3H4.5
		z"/>
	<path d="M8.5,24c-0.551,0-1-0.448-1-1v-9c0-0.552,0.449-1,1-1h6V9.71c0-0.551,0.448-1,1-1c0.115,0,0.229,0.02,0.337,0.058
		l4.663,1.665V8c0-0.276,0.224-0.5,0.5-0.5s0.5,0.224,0.5,0.5v2.79l0.336,0.12c0.397,0.142,0.664,0.52,0.664,0.942V23
		c0,0.552-0.448,1-1,1H8.5z M21.5,23V11.852l-6-2.142V13H18c0.276,0,0.5,0.224,0.5,0.5S18.276,14,18,14h-2.5v2h4
		c0.276,0,0.5,0.224,0.5,0.5S19.776,17,19.5,17h-4v6h1v-3c0-0.552,0.448-1,1-1h2c0.552,0,1,0.448,1,1v3H21.5z M19.5,23v-3h-2l0,3
		H19.5z M8.5,23h6v-9h-6v2H11c0.276,0,0.5,0.224,0.5,0.5S11.276,17,11,17H8.5v2H11c0.276,0,0.5,0.224,0.5,0.5S11.276,20,11,20H8.5
		V23z"/>
</g>
</svg>
