<?xml version="1.0" encoding="utf-8"?>
<!-- Generator: Adobe Illustrator 22.1.0, SVG Export Plug-In . SVG Version: 6.00 Build 0)  -->
<svg version="1.1" id="Light" xmlns="http://www.w3.org/2000/svg" xmlns:xlink="http://www.w3.org/1999/xlink" x="0px" y="0px"
	 viewBox="0 0 24 24" style="enable-background:new 0 0 24 24;" xml:space="preserve">
<g>
	<title>real-estate-dimensions-plan-1</title>
	<path d="M0.5,3C0.224,3,0,2.776,0,2.5V1c0-0.551,0.449-1,1-1h11.5C12.776,0,13,0.224,13,0.5S12.776,1,12.5,1H1v1.5
		C1,2.776,0.776,3,0.5,3z"/>
	<path d="M17.5,24c-2.301,0-4.222-1.739-4.472-4H5c-0.551,0-1-0.448-1-1v-2H0.5C0.224,17,0,16.776,0,16.5v-9C0,7.224,0.224,7,0.5,7
		S1,7.224,1,7.5V10h7V3.5C8,3.224,8.224,3,8.5,3S9,3.224,9,3.5V10h4.5c0.276,0,0.5,0.224,0.5,0.5S13.776,11,13.5,11H5v8h8.5
		c0.276,0,0.5,0.224,0.5,0.5c0,1.747,1.298,3.22,3,3.464V19.5c0-0.276,0.224-0.5,0.5-0.5H19v-8.036c-1.7-0.245-3-1.724-3-3.464
		C16,7.224,16.224,7,16.5,7H19V1h-1.5C17.224,1,17,0.776,17,0.5S17.224,0,17.5,0H19c0.552,0,1,0.449,1,1v2h3c0.552,0,1,0.449,1,1v9
		c0,0.552-0.448,1-1,1h-3v5c0,0.552-0.448,1-1,1h-1v3.5C18,23.776,17.776,24,17.5,24z M4,16v-1H1v1H4z M4,14v-1H1v1H4z M23,13V4h-3
		v3.5C20,7.776,19.776,8,19.5,8h-2.449c0.235,1.141,1.261,2,2.449,2c0.276,0,0.5,0.224,0.5,0.5V13H23z M4,12v-1H1v1H4z"/>
	<path d="M0.5,6C0.224,6,0,5.776,0,5.5v-1C0,4.224,0.224,4,0.5,4S1,4.224,1,4.5v1C1,5.776,0.776,6,0.5,6z"/>
	<path d="M14.5,1C14.224,1,14,0.776,14,0.5S14.224,0,14.5,0h1C15.776,0,16,0.224,16,0.5S15.776,1,15.5,1H14.5z"/>
</g>
</svg>
