<?xml version="1.0" encoding="utf-8"?>
<!-- Generator: Adobe Illustrator 22.1.0, SVG Export Plug-In . SVG Version: 6.00 Build 0)  -->
<svg version="1.1" id="Light" xmlns="http://www.w3.org/2000/svg" xmlns:xlink="http://www.w3.org/1999/xlink" x="0px" y="0px"
	 viewBox="0 0 24 24" style="enable-background:new 0 0 24 24;" xml:space="preserve">
<g>
	<title>real-estate-dimensions-house</title>
	<path d="M10,24c-0.551,0-1-0.448-1-1v-5.5C9,17.224,9.224,17,9.5,17s0.5,0.224,0.5,0.5V23h10v-5.5c0-0.276,0.224-0.5,0.5-0.5
		s0.5,0.224,0.5,0.5V23c0,0.552-0.448,1-1,1H10z"/>
	<path d="M6.5,17.5c-0.134,0-0.259-0.052-0.354-0.146S6,17.134,6,17s0.052-0.259,0.146-0.354l7.793-7.793
		C14.222,8.571,14.599,8.415,15,8.415c0.401,0,0.778,0.156,1.061,0.438l7.793,7.793C23.948,16.741,24,16.866,24,17
		s-0.052,0.259-0.146,0.354S23.634,17.5,23.5,17.5s-0.259-0.052-0.354-0.146l-7.793-7.793C15.259,9.467,15.134,9.415,15,9.415
		s-0.259,0.052-0.354,0.146l-7.793,7.793C6.759,17.448,6.634,17.5,6.5,17.5z"/>
	<path d="M14,17c-0.552,0-1-0.448-1-1v-2c0-0.552,0.448-1,1-1h2c0.552,0,1,0.448,1,1v2c0,0.552-0.448,1-1,1H14z M14,16h2v-2h-2
		L14,16z"/>
	<path d="M2.5,24c-0.066,0-0.13-0.013-0.192-0.039c-0.061-0.025-0.116-0.062-0.163-0.109l-1.999-1.999C0.052,21.759,0,21.634,0,21.5
		s0.052-0.259,0.146-0.354S0.366,21,0.5,21s0.259,0.052,0.354,0.146L2,22.293V6.707L0.854,7.854C0.759,7.948,0.634,8,0.5,8
		S0.241,7.948,0.146,7.854S0,7.634,0,7.5s0.052-0.259,0.146-0.354l2-2C2.193,5.1,2.247,5.064,2.308,5.038C2.37,5.013,2.434,5,2.5,5
		s0.13,0.013,0.191,0.038C2.753,5.064,2.807,5.1,2.854,5.147l2,2C4.948,7.241,5,7.366,5,7.5S4.948,7.759,4.854,7.854S4.634,8,4.5,8
		S4.241,7.948,4.146,7.854L3,6.707v15.586l1.146-1.146C4.241,21.052,4.366,21,4.5,21s0.259,0.052,0.354,0.146S5,21.366,5,21.5
		s-0.052,0.259-0.146,0.354l-2,2c-0.046,0.046-0.101,0.083-0.163,0.109C2.63,23.987,2.566,24,2.5,24z"/>
	<path d="M21.5,5c-0.134,0-0.259-0.052-0.354-0.146S21,4.634,21,4.5s0.052-0.259,0.146-0.354L22.293,3H6.707l1.146,1.146
		C7.948,4.241,8,4.366,8,4.5S7.948,4.759,7.854,4.854S7.634,5,7.5,5S7.241,4.948,7.146,4.854l-2-2
		C5.1,2.807,5.064,2.753,5.038,2.692c-0.05-0.122-0.05-0.261,0-0.383C5.064,2.247,5.1,2.193,5.147,2.146l2-2
		C7.241,0.052,7.366,0,7.5,0s0.259,0.052,0.354,0.146S8,0.366,8,0.5S7.948,0.759,7.854,0.854L6.707,2h15.586l-1.146-1.146
		C21.052,0.759,21,0.634,21,0.5s0.052-0.259,0.146-0.354S21.366,0,21.5,0s0.259,0.052,0.354,0.146l2,2
		c0.046,0.046,0.083,0.101,0.109,0.163c0.05,0.121,0.05,0.261,0,0.382c-0.025,0.061-0.062,0.116-0.109,0.163l-1.999,1.999
		C21.759,4.948,21.634,5,21.5,5z"/>
</g>
</svg>
