<?xml version="1.0" encoding="utf-8"?>
<!-- Generator: Adobe Illustrator 22.1.0, SVG Export Plug-In . SVG Version: 6.00 Build 0)  -->
<svg version="1.1" id="Light" xmlns="http://www.w3.org/2000/svg" xmlns:xlink="http://www.w3.org/1999/xlink" x="0px" y="0px"
	 viewBox="0 0 24 24" style="enable-background:new 0 0 24 24;" xml:space="preserve">
<g>
	<title>appliances-slow-cooker</title>
	<path d="M7.514,5C7.369,5,7.231,4.937,7.136,4.828c-0.088-0.101-0.13-0.23-0.121-0.363c0.01-0.133,0.07-0.255,0.172-0.342
		C7.668,3.705,7.606,3.51,7.103,2.785c-0.42-0.606-1.121-1.619,0.084-2.663C7.278,0.043,7.394,0,7.514,0
		c0.145,0,0.283,0.063,0.378,0.173c0.087,0.101,0.13,0.23,0.121,0.363c-0.01,0.133-0.07,0.255-0.172,0.342
		C7.36,1.295,7.422,1.49,7.925,2.215c0.42,0.605,1.122,1.619-0.083,2.663C7.75,4.957,7.634,5,7.514,5z"/>
	<path d="M12,5c-0.145,0-0.283-0.063-0.378-0.172c-0.088-0.101-0.13-0.23-0.121-0.363c0.01-0.133,0.07-0.255,0.172-0.342
		c0.481-0.417,0.419-0.612-0.084-1.337c-0.42-0.606-1.121-1.619,0.084-2.663C11.763,0.043,11.88,0,12,0
		c0.145,0,0.283,0.063,0.378,0.173c0.18,0.208,0.158,0.525-0.051,0.705c-0.481,0.417-0.419,0.612,0.083,1.337
		c0.42,0.606,1.122,1.619-0.083,2.663C12.236,4.957,12.12,5,12,5z"/>
	<path d="M16.5,5c-0.145,0-0.283-0.063-0.378-0.173c-0.087-0.101-0.13-0.23-0.121-0.363c0.01-0.133,0.071-0.255,0.172-0.342
		c0.481-0.417,0.419-0.612-0.084-1.337c-0.419-0.605-1.122-1.619,0.084-2.663C16.263,0.043,16.379,0,16.5,0
		c0.145,0,0.283,0.063,0.378,0.173c0.087,0.101,0.13,0.23,0.121,0.363c-0.01,0.133-0.071,0.255-0.172,0.342
		c-0.481,0.417-0.419,0.612,0.084,1.337c0.419,0.605,1.122,1.619-0.084,2.663C16.737,4.957,16.621,5,16.5,5z"/>
	<path d="M5.5,24C4.121,24,3,22.878,3,21.5V15H0.5C0.224,15,0,14.776,0,14.5S0.224,14,0.5,14H3v-0.5
		c0-0.066,0.013-0.131,0.038-0.192c0.001-0.002,0.002-0.004,0.003-0.006C3.123,13.108,4.61,9.789,10,9.115V8H9.5
		C9.224,8,9,7.776,9,7.5S9.224,7,9.5,7h5C14.776,7,15,7.224,15,7.5S14.776,8,14.5,8H14v1.115c5.362,0.671,6.861,3.96,6.957,4.183
		c0.002,0.003,0.003,0.007,0.004,0.01C20.987,13.369,21,13.434,21,13.5V14h2.5c0.276,0,0.5,0.224,0.5,0.5S23.776,15,23.5,15H21v6.5
		c0,1.378-1.122,2.5-2.5,2.5H5.5z M4,21.5C4,22.327,4.673,23,5.5,23h13c0.827,0,1.5-0.673,1.5-1.5V14H4V21.5z M19.599,13
		C18.736,11.868,16.608,9.994,12,9.994c-4.625,0-6.746,1.875-7.604,3.006H19.599z M12,8.994c0.337,0,0.673,0.01,1,0.029V8h-2v1.023
		C11.327,9.004,11.662,8.994,12,8.994z"/>
	<path d="M12,20.512c-1.106,0-2.006-0.9-2.006-2.006c0-1.106,0.9-2.006,2.006-2.006c1.106,0,2.006,0.9,2.006,2.006
		C14.006,19.612,13.106,20.512,12,20.512z M12,17.5c-0.555,0-1.006,0.451-1.006,1.006s0.451,1.006,1.006,1.006
		s1.006-0.451,1.006-1.006S12.555,17.5,12,17.5z"/>
	<path d="M16,17.5c-0.276,0-0.5-0.224-0.5-0.5s0.224-0.5,0.5-0.5h1c0.276,0,0.5,0.224,0.5,0.5s-0.224,0.5-0.5,0.5H16z"/>
	<path d="M16,20.5c-0.276,0-0.5-0.224-0.5-0.5s0.224-0.5,0.5-0.5h1c0.276,0,0.5,0.224,0.5,0.5s-0.224,0.5-0.5,0.5H16z"/>
</g>
</svg>
