<?xml version="1.0" encoding="utf-8"?>
<!-- Generator: Adobe Illustrator 22.1.0, SVG Export Plug-In . SVG Version: 6.00 Build 0)  -->
<svg version="1.1" id="Light" xmlns="http://www.w3.org/2000/svg" xmlns:xlink="http://www.w3.org/1999/xlink" x="0px" y="0px"
	 viewBox="0 0 24 24" style="enable-background:new 0 0 24 24;" xml:space="preserve">
<g>
	<title>appliances-fridge-double-door</title>
	<path d="M17.5,24c-0.276,0-0.5-0.224-0.5-0.5V23H7v0.5C7,23.776,6.776,24,6.5,24S6,23.776,6,23.5V23H5.5C4.121,23,3,21.878,3,20.5
		v-18C3,1.121,4.121,0,5.5,0h13C19.878,0,21,1.121,21,2.5v18c0,1.378-1.122,2.5-2.5,2.5H18v0.5C18,23.776,17.776,24,17.5,24z
		 M4,20.5C4,21.327,4.673,22,5.5,22h13c0.827,0,1.5-0.673,1.5-1.5V15H4V20.5z M20,14V2.5C20,1.673,19.327,1,18.5,1h-6v13H20z
		 M11.5,14V1h-6C4.673,1,4,1.673,4,2.5V14H11.5z"/>
	<path d="M14.5,11c-0.276,0-0.5-0.224-0.5-0.5v-6C14,4.224,14.224,4,14.5,4S15,4.224,15,4.5v6C15,10.776,14.776,11,14.5,11z"/>
	<path d="M9.5,11C9.224,11,9,10.776,9,10.5v-6C9,4.224,9.224,4,9.5,4S10,4.224,10,4.5v6C10,10.776,9.776,11,9.5,11z"/>
	<path d="M7.5,17C7.224,17,7,16.776,7,16.5S7.224,16,7.5,16h9c0.276,0,0.5,0.224,0.5,0.5S16.776,17,16.5,17H7.5z"/>
</g>
</svg>
