<?xml version="1.0" encoding="utf-8"?>
<!-- Generator: Adobe Illustrator 22.1.0, SVG Export Plug-In . SVG Version: 6.00 Build 0)  -->
<svg version="1.1" id="Light" xmlns="http://www.w3.org/2000/svg" xmlns:xlink="http://www.w3.org/1999/xlink" x="0px" y="0px"
	 viewBox="0 0 24 24" style="enable-background:new 0 0 24 24;" xml:space="preserve">
<g>
	<title>appliances-microwave</title>
	<path d="M21.5,22c-0.276,0-0.5-0.224-0.5-0.5V19H3v2.5C3,21.776,2.776,22,2.5,22S2,21.776,2,21.5v-2.551
		c-1.155-0.234-2-1.25-2-2.449v-12C0,3.121,1.121,2,2.5,2h19C22.878,2,24,3.121,24,4.5v12c0,1.199-0.845,2.215-2,2.449V21.5
		C22,21.776,21.776,22,21.5,22z M21.5,18c0.827,0,1.5-0.673,1.5-1.5v-12C23,3.673,22.327,3,21.5,3H17v15H21.5z M2.5,3
		C1.673,3,1,3.673,1,4.5v12C1,17.327,1.673,18,2.5,18H16V3H2.5z"/>
	<path d="M4.5,17C3.121,17,2,15.878,2,14.5v-8C2,5.121,3.121,4,4.5,4h8C13.878,4,15,5.121,15,6.5v8c0,1.378-1.122,2.5-2.5,2.5H4.5z
		 M4.5,5C3.673,5,3,5.673,3,6.5v8C3,15.327,3.673,16,4.5,16h8c0.827,0,1.5-0.673,1.5-1.5v-8C14,5.673,13.327,5,12.5,5H4.5z"/>
	<path d="M19,17c-0.552,0-1-0.448-1-1v-1c0-0.552,0.448-1,1-1h2c0.552,0,1,0.448,1,1v1c0,0.552-0.448,1-1,1H19z M19,16h2v-1h-2
		L19,16z"/>
	<path d="M5,14c-0.276,0-0.5-0.224-0.5-0.5S4.724,13,5,13h1.286c-0.609-0.573-1.011-1.337-1.133-2.179
		c-0.022-0.091-0.036-0.206-0.035-0.322C5.118,9.672,5.791,9,6.617,9h3.765c0.12,0,0.24,0.014,0.357,0.043
		c0.8,0.196,1.292,1.002,1.104,1.802c-0.12,0.832-0.519,1.587-1.125,2.156H12c0.276,0,0.5,0.224,0.5,0.5S12.276,14,12,14H5z
		 M6.618,10c-0.276,0-0.5,0.224-0.5,0.5c0,0.041,0.005,0.08,0.014,0.119c0.002,0.008,0.008,0.04,0.009,0.047
		c0.172,1.221,1.14,2.175,2.359,2.33c1.219-0.156,2.187-1.109,2.359-2.328c0.074-0.31-0.085-0.587-0.357-0.654
		C10.463,10.005,10.423,10,10.382,10H6.618z"/>
	<path d="M19,13c-0.552,0-1-0.448-1-1V5c0-0.551,0.448-1,1-1h2c0.552,0,1,0.449,1,1v7c0,0.552-0.448,1-1,1H19z M19,12h2V5l-2,0
		L19,12z"/>
</g>
</svg>
