<?xml version="1.0" encoding="utf-8"?>
<!-- Generator: Adobe Illustrator 22.1.0, SVG Export Plug-In . SVG Version: 6.00 Build 0)  -->
<svg version="1.1" id="Light" xmlns="http://www.w3.org/2000/svg" xmlns:xlink="http://www.w3.org/1999/xlink" x="0px" y="0px"
	 viewBox="0 0 24 24" style="enable-background:new 0 0 24 24;" xml:space="preserve">
<g>
	<title>circus-lion-ring</title>
	<circle cx="16.024" cy="9" r="0.75"/>
	<path d="M7.024,24c-0.276,0-0.5-0.224-0.5-0.5v-1.534c-3.383-0.431-6-5.174-6-10.966c0-6.065,2.916-11,6.5-11
		c0.747,0.006,1.479,0.209,2.12,0.586c0.115,0.068,0.197,0.176,0.23,0.306c0.034,0.129,0.015,0.264-0.053,0.379
		C9.231,1.423,9.066,1.517,8.89,1.517c-0.089,0-0.177-0.024-0.254-0.069C8.147,1.16,7.588,1.005,7.02,1C3.99,1,1.524,5.486,1.524,11
		c0,5.514,2.467,10,5.5,10c1.234,0,2.494-0.839,3.489-2.313c-1.833-0.781-3.756-1.324-5.721-1.616
		c-0.273-0.041-0.462-0.295-0.421-0.568c0.036-0.243,0.25-0.426,0.496-0.426c0.023,0,0.047,0.001,0.071,0.005
		c4.685,0.697,9.035,2.724,12.582,5.863l0.035,0.029c0.156,0.124,0.351,0.191,0.558,0.191c0.282,0,0.543-0.126,0.717-0.345
		c0.015-0.019,0.026-0.033,0.037-0.047c0.24-0.328,0.337-0.723,0.276-1.119c-0.061-0.396-0.272-0.745-0.595-0.981l-5.714-4.19
		l-2.585-0.323c-0.399-0.051-0.753-0.254-0.998-0.572c-0.245-0.317-0.351-0.711-0.3-1.108c0.016-0.125,0.048-0.249,0.096-0.367
		l0.363-0.91l-2.23-1.39c-0.34-0.213-0.577-0.545-0.667-0.935s-0.022-0.792,0.19-1.132c0.13-0.209,0.313-0.384,0.527-0.507
		L7.56,8.047C6.495,7.852,5.434,7.709,4.399,7.621c-0.275-0.023-0.479-0.266-0.456-0.54C3.965,6.82,4.179,6.623,4.44,6.623
		c0.007,0,0.036,0.001,0.043,0.002C5.939,6.749,7.41,6.969,8.856,7.282L7.801,5.171C7.621,4.812,7.593,4.405,7.719,4.025
		c0.127-0.38,0.394-0.688,0.753-0.867C8.678,3.055,8.91,3,9.141,3h1.382V2.172c-0.001-0.4,0.154-0.776,0.437-1.06
		c0.283-0.284,0.659-0.441,1.06-0.442c0.283,0.013,0.521,0.074,0.719,0.182l3.661,1.968c0.381,0.251,0.619,0.611,0.688,1.025
		l0.386,2.322l0.22,0.11c0.503,0.252,0.818,0.753,0.828,1.313l1.035,0.207c0.041,0.008,0.081,0.018,0.12,0.029
		c0.384,0.11,0.702,0.363,0.897,0.714c0.194,0.351,0.241,0.756,0.13,1.141l-0.523,1.832c-0.162,0.569-0.645,0.99-1.231,1.074
		l-0.965,0.138l-0.215,0.966l4.683,3.435c0.538,0.395,0.891,0.976,0.992,1.636c0.102,0.66-0.06,1.32-0.455,1.859
		c-0.019,0.025-0.04,0.053-0.062,0.081c-0.364,0.461-0.911,0.725-1.501,0.725c-0.434,0-0.843-0.142-1.184-0.412
		c-0.023-0.018-0.046-0.037-0.069-0.057c-0.007-0.006-0.014-0.012-0.021-0.018c-0.011,0.507-0.176,1.002-0.482,1.419
		c-0.022,0.03-0.043,0.057-0.065,0.084c-0.363,0.458-0.909,0.721-1.497,0.721c-0.435,0-0.845-0.143-1.186-0.413l-0.062-0.052
		c-1.642-1.453-3.465-2.662-5.427-3.599c-1.08,1.667-2.457,2.674-3.914,2.865V23.5C7.524,23.776,7.3,24,7.024,24z M19.104,18.839
		c0.012,0.006,0.024,0.013,0.033,0.02c0.701,0.512,1.226,0.927,1.699,1.345l0.03,0.025c0.162,0.128,0.357,0.196,0.564,0.196
		c0.281,0,0.542-0.126,0.716-0.345c0.012-0.015,0.025-0.031,0.037-0.048c0.24-0.326,0.337-0.723,0.276-1.119
		c-0.061-0.396-0.272-0.745-0.595-0.981l-4.329-3.175l-0.56,2.521L19.104,18.839z M13.275,14.571
		c0.017,0.008,0.033,0.018,0.046,0.028l2.772,2.033l0.835-3.756l-0.834,0.119C16.072,12.998,16.047,13,16.024,13h-1.5
		c-0.827,0-1.5-0.673-1.5-1.5v-2c-0.143-1.832,1.066-3.516,2.875-3.984C15.94,5.505,15.982,5.5,16.024,5.5
		c0.077,0,0.154,0.018,0.223,0.052l0.123,0.061l-0.267-1.605c-0.023-0.135-0.101-0.257-0.216-0.333l-3.623-1.945
		c-0.069-0.038-0.155-0.059-0.249-0.062c-0.126,0-0.251,0.053-0.345,0.147c-0.094,0.095-0.146,0.22-0.146,0.354V3.5
		c0,0.276-0.224,0.5-0.5,0.5H9.142C9.065,4,8.988,4.018,8.919,4.053c-0.12,0.06-0.209,0.162-0.251,0.289
		C8.626,4.469,8.635,4.604,8.695,4.723l1.276,2.553c0.119,0.237,0.031,0.526-0.199,0.658l-2.047,1.17
		C7.653,9.145,7.593,9.203,7.549,9.273C7.478,9.386,7.456,9.52,7.486,9.651c0.03,0.13,0.109,0.241,0.222,0.312l2.584,1.61
		c0.205,0.128,0.29,0.384,0.2,0.609l-0.518,1.3c-0.016,0.04-0.027,0.081-0.032,0.123c-0.017,0.133,0.018,0.264,0.1,0.37
		c0.082,0.106,0.199,0.174,0.332,0.19l2.712,0.339c0.015,0.002,0.033,0.006,0.05,0.011c0.028,0.007,0.05,0.016,0.066,0.022
		C13.231,14.549,13.255,14.559,13.275,14.571z M15.975,6.535c-1.237,0.405-2.054,1.621-1.953,2.927l0.001,2.038
		c0,0.276,0.224,0.5,0.5,0.5h1.464l2.823-0.403c0.196-0.028,0.357-0.168,0.411-0.358l0.523-1.833
		c0.037-0.129,0.022-0.264-0.043-0.381c-0.065-0.117-0.171-0.201-0.3-0.238c-0.013-0.004-0.026-0.007-0.039-0.01L17.926,8.49
		C17.693,8.444,17.524,8.238,17.524,8V7.618c0-0.19-0.106-0.362-0.276-0.447L15.975,6.535z"/>
</g>
</svg>
