<?xml version="1.0" encoding="utf-8"?>
<!-- Generator: Adobe Illustrator 22.1.0, SVG Export Plug-In . SVG Version: 6.00 Build 0)  -->
<svg version="1.1" id="Light" xmlns="http://www.w3.org/2000/svg" xmlns:xlink="http://www.w3.org/1999/xlink" x="0px" y="0px"
	 viewBox="0 0 24 24" style="enable-background:new 0 0 24 24;" xml:space="preserve">
<g>
	<title>circus-elephant</title>
	<path d="M10.751,17.283c-0.048,0-0.097-0.005-0.146-0.014c-0.198-0.04-0.368-0.153-0.479-0.319C10.044,16.827,10,16.683,10,16.533
		V9.5C10,9.224,10.224,9,10.5,9S11,9.224,11,9.5v6.566l0.446-0.297c0.165-0.11,0.357-0.168,0.554-0.168
		c0.198,0,0.389,0.058,0.554,0.168L13,16.066L13,9.5C13,9.224,13.224,9,13.5,9S14,9.224,14,9.5v7.033c0,0.414-0.336,0.75-0.75,0.75
		c-0.15,0-0.294-0.044-0.418-0.127L12,16.601l-0.833,0.556C11.043,17.24,10.899,17.283,10.751,17.283z"/>
	<circle cx="9.789" cy="7" r="0.75"/>
	<circle cx="14.289" cy="7" r="0.75"/>
	<path d="M7,24c-0.276,0-0.5-0.224-0.5-0.5v-1c0-0.774,0.357-1.497,0.964-1.97l-1.058-3.232c-0.607-1.817-0.236-3.783,0.991-5.258
		l0.529-0.634c-0.651-0.601-1.162-1.343-1.493-2.168L4.096,9.697C4.001,9.715,3.904,9.725,3.808,9.725
		c-0.108,0-0.218-0.012-0.325-0.036C3.092,9.602,2.758,9.368,2.543,9.03C2.328,8.692,2.257,8.291,2.344,7.9l0.632-2.847L1.668,2.109
		C1.582,1.916,1.539,1.711,1.539,1.5c0-0.401,0.156-0.777,0.439-1.061C2.262,0.156,2.638,0,3.039,0H5.5
		c1.387,0.001,2.662,0.714,3.389,1.88C9.823,1.314,10.893,1.017,12,1.017s2.177,0.297,3.11,0.863C15.838,0.714,17.113,0.001,18.5,0
		h2.461c0.827,0,1.5,0.673,1.5,1.5c0,0.211-0.043,0.416-0.129,0.609l-1.308,2.943L21.656,7.9c0.087,0.391,0.016,0.792-0.199,1.13
		c-0.215,0.338-0.549,0.572-0.94,0.659c-0.107,0.024-0.217,0.036-0.325,0.036c-0.095,0-0.192-0.009-0.287-0.028l-2.337-0.458
		c-0.33,0.824-0.842,1.567-1.495,2.168l0.528,0.633c1.228,1.474,1.598,3.441,0.99,5.26l-1.057,3.228
		c0.608,0.473,0.966,1.197,0.966,1.972v1c0,0.276-0.224,0.5-0.5,0.5H7z M16.5,23v-0.5c0-0.827-0.673-1.5-1.5-1.5H9
		c-0.827,0-1.5,0.673-1.5,1.5V23H16.5z M8.165,12.68c-1.004,1.206-1.307,2.815-0.81,4.303l1.015,3.099C8.577,20.028,8.788,20,9,20
		h2.5v-1.5c0-0.276,0.224-0.5,0.5-0.5c0.276,0,0.5,0.224,0.5,0.5V20H15c0.211,0,0.422,0.028,0.628,0.082l1.014-3.096
		c0.498-1.491,0.195-3.1-0.809-4.306l-0.549-0.658c-0.016,0.01-0.031,0.021-0.047,0.031c-0.08,0.052-0.174,0.079-0.27,0.079
		c-0.172,0-0.329-0.086-0.421-0.23c-0.072-0.112-0.096-0.246-0.067-0.376c0.029-0.13,0.106-0.242,0.219-0.314
		C16.139,10.287,17,8.713,17,7c0-0.276,0.224-0.5,0.5-0.5S18,6.724,18,7c0,0.429-0.046,0.857-0.137,1.277l2.233,0.438
		c0.031,0.006,0.063,0.009,0.096,0.009c0.036,0,0.073-0.004,0.108-0.012c0.13-0.029,0.241-0.107,0.313-0.219
		c0.072-0.113,0.095-0.247,0.066-0.377l-0.668-3.008C19.989,5.003,20,4.895,20.043,4.797l1.375-3.094
		c0.029-0.064,0.043-0.133,0.043-0.203c0-0.276-0.224-0.5-0.5-0.5H18.5c-1.192,0.001-2.271,0.707-2.748,1.8
		c-0.006,0.013-0.017,0.031-0.027,0.048c-0.007,0.016-0.017,0.034-0.031,0.052c-0.01,0.013-0.025,0.029-0.04,0.042
		C15.637,2.961,15.614,2.981,15.587,3c-0.026,0.019-0.049,0.034-0.073,0.046c-0.037,0.018-0.071,0.028-0.097,0.035
		c-0.031,0.008-0.058,0.013-0.086,0.015c-0.006,0-0.025,0.001-0.031,0.001c-0.022,0-0.045-0.002-0.068-0.005
		c-0.03-0.004-0.055-0.009-0.08-0.016c-0.021-0.004-0.044-0.011-0.06-0.019c-0.02-0.009-0.037-0.019-0.049-0.028
		C15.028,3.023,15.012,3.013,14.994,3C14.142,2.363,13.079,2.012,12,2.012S9.858,2.363,9.006,3C8.995,3.009,8.972,3.022,8.954,3.031
		C8.941,3.04,8.926,3.049,8.908,3.057C8.895,3.063,8.88,3.068,8.865,3.072c-0.04,0.013-0.078,0.021-0.117,0.025
		C8.734,3.099,8.72,3.1,8.706,3.1c-0.014,0-0.03-0.001-0.045-0.004c-0.055-0.005-0.108-0.019-0.157-0.04
		C8.489,3.048,8.455,3.028,8.441,3.018C8.407,2.997,8.375,2.972,8.348,2.944C8.332,2.93,8.316,2.914,8.305,2.899
		C8.292,2.881,8.282,2.864,8.276,2.85C8.267,2.837,8.257,2.821,8.248,2.801C7.771,1.707,6.692,1.001,5.5,1H3.039
		c-0.276,0-0.5,0.224-0.5,0.5c0,0.07,0.015,0.139,0.043,0.203l1.375,3.094c0.044,0.099,0.055,0.206,0.031,0.312L3.32,8.116
		C3.291,8.247,3.315,8.38,3.387,8.493C3.458,8.606,3.57,8.684,3.7,8.713c0.036,0.008,0.072,0.012,0.108,0.012
		c0.032,0,0.064-0.003,0.096-0.009l2.233-0.438C6.046,7.856,6,7.427,6,7c0-0.276,0.224-0.5,0.5-0.5c0.134,0,0.259,0.052,0.354,0.147
		C6.948,6.741,7,6.867,7,7c-0.001,1.684,0.837,3.243,2.242,4.171c0.23,0.152,0.294,0.463,0.142,0.693
		c-0.093,0.141-0.249,0.225-0.417,0.225c-0.089,0-0.175-0.023-0.252-0.068L8.165,12.68z"/>
</g>
</svg>
