<?xml version="1.0" encoding="utf-8"?>
<!-- Generator: Adobe Illustrator 22.1.0, SVG Export Plug-In . SVG Version: 6.00 Build 0)  -->
<svg version="1.1" id="Light" xmlns="http://www.w3.org/2000/svg" xmlns:xlink="http://www.w3.org/1999/xlink" x="0px" y="0px"
	 viewBox="0 0 24 24" style="enable-background:new 0 0 24 24;" xml:space="preserve">
<g>
	<title>circus-tent-1</title>
	<path d="M3.681,24c-0.094,0-0.187-0.013-0.276-0.039c-0.255-0.073-0.468-0.241-0.598-0.475c-0.13-0.234-0.161-0.504-0.088-0.761
		C3.668,18.905,4.099,14.961,4,11.013l0-0.513c0-0.067,0.013-0.133,0.04-0.196c0.005-0.013,0.013-0.027,0.022-0.041
		c0.022-0.041,0.047-0.077,0.077-0.108c0.004-0.005,0.008-0.009,0.012-0.013l7.349-6.99V1c0-0.091,0.012-0.18,0.036-0.265
		c0.07-0.257,0.237-0.471,0.469-0.604C12.155,0.045,12.326,0,12.499,0c0.089,0,0.178,0.012,0.265,0.036l3.113,0.849
		c0.339,0.093,0.607,0.361,0.7,0.698c0.146,0.532-0.167,1.083-0.698,1.23l-2.894,0.801l6.86,6.524
		c0.006,0.005,0.011,0.011,0.017,0.018c0.029,0.03,0.054,0.066,0.077,0.108c0.007,0.011,0.014,0.022,0.018,0.032
		c0.03,0.072,0.044,0.137,0.044,0.204c0,0,0,0.504,0,0.506c-0.1,3.955,0.333,7.902,1.285,11.736
		c0.022,0.076,0.034,0.169,0.034,0.261c0,0.266-0.105,0.517-0.294,0.705C20.835,23.896,20.584,24,20.318,24H3.681z M20.317,23
		c-0.794-3.198-1.236-6.479-1.317-9.77C18.454,13.72,17.742,14,16.999,14c-1.011,0-1.949-0.515-2.5-1.343
		C13.948,13.485,13.01,14,11.999,14s-1.949-0.515-2.5-1.343C8.948,13.485,8.01,14,6.999,14c-0.743,0-1.455-0.28-2.001-0.77
		c-0.081,3.29-0.522,6.567-1.314,9.753l5.315,0.016V20c0-1.654,1.346-3,3-3c1.654,0,3,1.346,3,3v3H20.317z M13.999,23v-3
		c0-1.103-0.897-2-2-2s-2,0.897-2,2v3H13.999z M14.999,11c0,1.103,0.897,2,2,2c1.102,0,1.999-0.897,2-1.999V11H14.999z M9.999,11
		c0,1.103,0.897,2,2,2s2-0.897,2-2H9.999z M4.999,11c0,1.103,0.897,2,2,2s2-0.897,2-2H4.999z M18.248,10l-5.091-4.842L14.854,10
		H18.248z M13.794,10l-1.795-5.121L10.204,10H13.794z M9.145,10l1.697-4.842L5.751,10H9.145z M12.499,2.71l3.113-0.861L12.5,1
		L12.499,2.71z"/>
</g>
</svg>
