<?xml version="1.0" encoding="utf-8"?>
<!-- Generator: Adobe Illustrator 22.1.0, SVG Export Plug-In . SVG Version: 6.00 Build 0)  -->
<svg version="1.1" id="Light" xmlns="http://www.w3.org/2000/svg" xmlns:xlink="http://www.w3.org/1999/xlink" x="0px" y="0px"
	 viewBox="0 0 24 24" style="enable-background:new 0 0 24 24;" xml:space="preserve">
<g>
	<title>garbage-bin</title>
	<path d="M5.75,24c-1.654,0-3-1.346-3-3c0-0.856,0.363-1.664,1-2.234V4h-0.5c-0.276,0-0.5-0.224-0.5-0.5v-2
		c0-0.827,0.673-1.5,1.5-1.5h13.5c1.93,0,3.5,1.57,3.5,3.5c0,0.276-0.224,0.5-0.5,0.5h-1.108l-4.592,18.62
		C14.994,22.844,14.794,23,14.564,23h-6.58C7.414,23.637,6.606,24,5.75,24z M5.75,19c-1.103,0-2,0.897-2,2s0.897,2,2,2s2-0.897,2-2
		S6.853,19,5.75,19z M14.172,22l4.439-18H4.75v14.173C5.071,18.058,5.406,18,5.75,18c1.654,0,3,1.346,3,3
		c0,0.344-0.058,0.679-0.173,1H14.172z M20.199,3c-0.235-1.141-1.261-2-2.449-2H4.25c-0.276,0-0.5,0.224-0.5,0.5V3H20.199z"/>
</g>
</svg>
