<?xml version="1.0" encoding="utf-8"?>
<!-- Generator: Adobe Illustrator 22.1.0, SVG Export Plug-In . SVG Version: 6.00 Build 0)  -->
<svg version="1.1" id="Light" xmlns="http://www.w3.org/2000/svg" xmlns:xlink="http://www.w3.org/1999/xlink" x="0px" y="0px"
	 viewBox="0 0 24 24" style="enable-background:new 0 0 24 24;" xml:space="preserve">
<g>
	<title>garbage-bin-throw</title>
	<path d="M17.002,5.999c-1.654,0-3-1.346-3-3s1.346-3,3-3s3,1.346,3,3S18.656,5.999,17.002,5.999z M17.002,0.999
		c-1.103,0-2,0.897-2,2s0.897,2,2,2s2-0.897,2-2S18.105,0.999,17.002,0.999z"/>
	<path d="M22.012,24.048c-0.337,0-0.673-0.088-0.971-0.254c-0.467-0.26-0.804-0.686-0.95-1.2c-0.012-0.042-0.022-0.084-0.031-0.127
		l-0.948-3.795c-0.406,0.813-0.665,1.741-1.163,3.798C17.731,23.372,16.931,24,16.005,24c-0.161,0-0.319-0.019-0.472-0.056
		c-0.52-0.126-0.959-0.446-1.238-0.903c-0.279-0.457-0.363-0.994-0.237-1.512c1.03-4.255,1.402-4.943,3.754-8.044l-0.229-0.916
		c-1.38,1.086-3.079,1.761-4.826,1.912c-0.078,0.012-0.172,0.018-0.264,0.018c-0.984,0-1.832-0.739-1.972-1.718
		c-0.076-0.529,0.059-1.056,0.379-1.483c0.32-0.428,0.788-0.705,1.317-0.781c0.008-0.001,0.041-0.004,0.049-0.005
		c2.843-0.411,3.391-1.439,4.221-2.996l0.264-0.485c0.354-0.638,1.025-1.032,1.754-1.032c0.337,0,0.671,0.087,0.967,0.251
		c0.483,0.268,0.836,0.729,0.97,1.265l3.5,14c0.143,0.501,0.079,1.038-0.181,1.505c-0.26,0.467-0.687,0.804-1.2,0.95
		C22.382,24.022,22.197,24.048,22.012,24.048z M19.303,16.875c0.029,0,0.059,0.002,0.089,0.008c0.193,0.034,0.349,0.18,0.396,0.371
		c0,0,1.259,5.044,1.265,5.064c0.073,0.259,0.242,0.472,0.476,0.602c0.149,0.083,0.317,0.127,0.485,0.127
		c0.092,0,0.185-0.013,0.275-0.039c0.257-0.073,0.47-0.242,0.6-0.475c0.13-0.233,0.161-0.503,0.088-0.76L19.473,7.759
		c-0.067-0.268-0.244-0.499-0.485-0.633c-0.148-0.082-0.315-0.125-0.483-0.125c-0.365,0-0.7,0.197-0.877,0.515l-0.26,0.477
		c-0.832,1.559-1.618,3.034-5.008,3.517c-0.004,0.001-0.016,0.002-0.026,0.003c-0.254,0.043-0.479,0.18-0.634,0.387
		c-0.16,0.214-0.228,0.478-0.19,0.742c0.07,0.49,0.495,0.859,0.987,0.859c0.048,0,0.096-0.003,0.145-0.01
		c1.837-0.159,3.566-0.937,4.884-2.191c0.093-0.089,0.215-0.138,0.344-0.138c0.047,0,0.094,0.007,0.139,0.019
		c0.172,0.05,0.304,0.188,0.347,0.36l0.484,1.937c0.037,0.147,0.006,0.302-0.087,0.424c-2.368,3.115-2.709,3.675-3.723,7.865
		c-0.13,0.536,0.201,1.078,0.737,1.208C15.842,22.991,15.923,23,16.005,23c0.463,0,0.863-0.314,0.972-0.765
		c0.695-2.871,0.974-3.751,1.911-5.14C18.982,16.958,19.136,16.875,19.303,16.875z"/>
	<path d="M2.003,24c-0.008,0-0.017,0-0.025-0.001c-1.091-0.013-1.976-0.906-1.976-2c0-0.712,0.388-1.375,1.001-1.73V13.5
		c0-0.017,0.003-0.04,0.007-0.06c0.004-0.039,0.013-0.076,0.025-0.112c0.009-0.023,0.018-0.042,0.029-0.062
		c0.004-0.01,0.017-0.042,0.044-0.076l5.5-7.001c0.095-0.121,0.239-0.191,0.393-0.191c0.111,0,0.221,0.038,0.309,0.107
		C7.416,6.189,7.482,6.307,7.498,6.44c0.016,0.133-0.021,0.264-0.103,0.369L2.53,13h6.311c0.827,0,1.5,0.673,1.5,1.5
		c0,0.074-0.006,0.149-0.017,0.223l-1.2,7.999C9.015,23.451,8.378,24,7.641,24H2.003z M7.641,23c0.246,0,0.458-0.183,0.495-0.426
		l1.2-8c0.004-0.025,0.005-0.049,0.005-0.074c0-0.276-0.224-0.5-0.5-0.5H2.003v5.999c1.102,0,1.999,0.897,1.999,2
		c0,0.357-0.093,0.7-0.269,1.001H7.641z M2.002,20.999c-0.551,0-1,0.448-1,1s0.449,1,1,1s1-0.448,1-1S2.553,20.999,2.002,20.999z"/>
	<path d="M7.502,11.999c-0.827,0-1.5-0.673-1.5-1.5s0.673-1.5,1.5-1.5s1.5,0.673,1.5,1.5S8.329,11.999,7.502,11.999z M7.502,9.999
		c-0.276,0-0.5,0.224-0.5,0.5s0.224,0.5,0.5,0.5s0.5-0.224,0.5-0.5S7.777,9.999,7.502,9.999z"/>
	<path d="M9.752,9c-0.414,0-0.75-0.336-0.75-0.75S9.338,7.5,9.752,7.5c0.413,0,0.749,0.335,0.751,0.747
		c0,0.024-0.001,0.046-0.004,0.068C10.476,8.691,10.147,9,9.752,9z"/>
</g>
</svg>
