<?xml version="1.0" encoding="utf-8"?>
<!-- Generator: Adobe Illustrator 22.1.0, SVG Export Plug-In . SVG Version: 6.00 Build 0)  -->
<svg version="1.1" id="Light" xmlns="http://www.w3.org/2000/svg" xmlns:xlink="http://www.w3.org/1999/xlink" x="0px" y="0px"
	 viewBox="0 0 24 24" style="enable-background:new 0 0 24 24;" xml:space="preserve">
<g>
	<title>deforestation-saw-forbidden</title>
	<path d="M12,23.5C5.659,23.5,0.5,18.341,0.5,12S5.659,0.5,12,0.5c3.051,0,5.925,1.186,8.096,3.341
		c0.013,0.009,0.025,0.02,0.034,0.028c0.014,0.014,0.024,0.027,0.032,0.039C22.311,6.068,23.5,8.945,23.5,12
		C23.5,18.341,18.341,23.5,12,23.5z M4.943,19.764C6.883,21.531,9.379,22.5,12,22.5c5.79,0,10.5-4.71,10.5-10.5
		c0-2.621-0.969-5.117-2.736-7.057L4.943,19.764z M12,1.5C6.21,1.5,1.5,6.21,1.5,12c0,2.621,0.97,5.117,2.736,7.057L19.057,4.236
		C17.117,2.47,14.621,1.5,12,1.5z"/>
	<path d="M8.5,12c-0.551,0-1-0.449-1-1V9.5H6.51c-0.551,0-1-0.449-1-1V6.624c0-0.348,0.177-0.665,0.472-0.849L6.81,5.259
		C6.97,5.159,7.153,5.107,7.34,5.107c0.231,0,0.456,0.081,0.635,0.228l4.343,3.571c0.213,0.175,0.244,0.491,0.069,0.704
		C12.291,9.726,12.15,9.792,12,9.792c-0.115,0-0.228-0.04-0.317-0.114L7.339,6.107L6.511,6.624L6.51,8.5H8
		c0.276,0,0.5,0.224,0.5,0.5v2H10c0.276,0,0.5,0.224,0.5,0.5S10.276,12,10,12H8.5z"/>
	<path d="M16.075,19.428c-0.093,0-0.189-0.008-0.283-0.024c-0.45-0.075-0.844-0.321-1.109-0.692l-1.306-1.828
		c-0.008-0.011-0.016-0.025-0.023-0.039c-0.021-0.037-0.038-0.076-0.049-0.117c-0.002-0.008-0.01-0.039-0.011-0.047
		c-0.004-0.014-0.004-0.015-0.006-0.029L13.052,14.5H12.5c-0.276,0-0.5-0.224-0.5-0.5s0.224-0.5,0.5-0.5h1
		c0.256,0,0.469,0.192,0.497,0.446l0.17,1.558l2.075-2.075l-1.559-1.282c-0.213-0.176-0.243-0.491-0.069-0.704
		c0.096-0.116,0.237-0.182,0.386-0.182c0.115,0,0.228,0.04,0.317,0.113l1.985,1.632c0.006,0.005,0.031,0.028,0.036,0.033
		l1.708,1.707c0.666,0.667,0.666,1.75,0,2.415l-1.767,1.767c-0.066,0.066-0.137,0.127-0.214,0.182
		C16.773,19.318,16.431,19.428,16.075,19.428z M15.496,18.132c0.11,0.154,0.273,0.256,0.46,0.287c0.039,0.007,0.079,0.01,0.118,0.01
		c0.147,0,0.289-0.046,0.41-0.132c0.032-0.023,0.062-0.048,0.089-0.075l1.767-1.767c0.276-0.276,0.276-0.724,0-1l-1.355-1.354
		l-2.549,2.549L15.496,18.132z"/>
</g>
</svg>
