<?xml version="1.0" encoding="utf-8"?>
<!-- Generator: Adobe Illustrator 22.1.0, SVG Export Plug-In . SVG Version: 6.00 Build 0)  -->
<svg version="1.1" id="Light" xmlns="http://www.w3.org/2000/svg" xmlns:xlink="http://www.w3.org/1999/xlink" x="0px" y="0px"
	 viewBox="0 0 24 24" style="enable-background:new 0 0 24 24;" xml:space="preserve">
<g>
	<title>real-estate-update-building-refresh</title>
	<path d="M11.989,24.009c-1.588,0-3.126-0.356-4.573-1.058c-2.524-1.223-4.42-3.356-5.339-6.006
		c-0.919-2.65-0.752-5.499,0.472-8.023c1.651-3.405,5.066-5.67,8.818-5.9L8.212,0.92C8.101,0.846,8.025,0.733,7.999,0.602
		c-0.026-0.131,0-0.264,0.074-0.375c0.093-0.139,0.248-0.223,0.416-0.223c0.099,0,0.195,0.029,0.278,0.084l4.5,3
		c0.016,0.01,0.034,0.026,0.049,0.042c0.028,0.025,0.053,0.052,0.076,0.084c0.017,0.022,0.029,0.041,0.041,0.063
		c0.022,0.044,0.034,0.085,0.041,0.119c0.007,0.02,0.013,0.044,0.015,0.073c0,0.006,0.001,0.03,0.001,0.035
		c0,0.054-0.009,0.107-0.028,0.161c-0.003,0.013-0.008,0.025-0.013,0.036c-0.021,0.052-0.057,0.105-0.104,0.152
		c-0.008,0.01-0.017,0.019-0.026,0.026l-4,3.5C9.227,7.46,9.11,7.504,8.989,7.504c-0.144,0-0.281-0.062-0.376-0.171
		C8.431,7.126,8.452,6.809,8.66,6.628l2.991-2.617C8.169,4.14,4.976,6.21,3.449,9.359c-1.107,2.283-1.259,4.861-0.427,7.258
		c0.832,2.397,2.547,4.327,4.83,5.435c1.309,0.635,2.701,0.957,4.137,0.957c1.058,0,2.108-0.178,3.122-0.53
		c2.397-0.832,4.327-2.547,5.435-4.831c0.083-0.171,0.26-0.282,0.45-0.282c0.075,0,0.151,0.018,0.219,0.051
		c0.119,0.058,0.21,0.159,0.253,0.285c0.044,0.126,0.036,0.262-0.022,0.383c-1.223,2.524-3.357,4.42-6.006,5.339
		C14.319,23.812,13.158,24.009,11.989,24.009z"/>
	<path d="M21.68,16.504c-0.042,0-0.084-0.005-0.125-0.016c-0.13-0.033-0.238-0.115-0.306-0.23c-0.068-0.115-0.087-0.25-0.054-0.379
		c0.2-0.775,0.3-1.574,0.299-2.375c0-0.315-0.016-0.635-0.047-0.951c-0.013-0.133,0.026-0.263,0.111-0.366s0.204-0.168,0.337-0.181
		c0.008-0.001,0.041-0.002,0.049-0.002c0.258,0,0.472,0.193,0.498,0.45c0.035,0.348,0.052,0.701,0.052,1.05
		c0.001,0.884-0.11,1.767-0.331,2.625C22.107,16.35,21.908,16.504,21.68,16.504z"/>
	<path d="M21.537,11.004c-0.219,0-0.411-0.141-0.477-0.35c-0.323-1.029-0.816-1.987-1.464-2.85c-0.166-0.22-0.122-0.534,0.099-0.7
		c0.089-0.066,0.192-0.1,0.301-0.1c0.156,0,0.306,0.075,0.4,0.199c0.717,0.953,1.261,2.013,1.619,3.151
		c0.083,0.263-0.064,0.544-0.327,0.627C21.638,10.996,21.587,11.004,21.537,11.004z"/>
	<path d="M18.495,6.404c-0.119,0-0.234-0.043-0.325-0.12c-0.715-0.613-1.514-1.114-2.375-1.491
		c-0.122-0.054-0.217-0.151-0.265-0.276c-0.049-0.125-0.046-0.26,0.008-0.383c0.079-0.182,0.259-0.3,0.458-0.3
		c0.069,0,0.136,0.014,0.2,0.042c0.952,0.416,1.835,0.97,2.625,1.647c0.209,0.18,0.233,0.496,0.054,0.705
		C18.78,6.34,18.641,6.404,18.495,6.404z"/>
	<path d="M7.495,19.004c-0.551,0-1-0.448-1-1V9.813c0-0.551,0.449-1,1-1c0.154,0,0.309,0.036,0.448,0.106l3.552,1.776V9.004
		c0-0.276,0.224-0.5,0.5-0.5c0.276,0,0.5,0.224,0.5,0.5v3h3v-2c0-0.276,0.224-0.5,0.5-0.5c0.276,0,0.5,0.224,0.5,0.5v2
		c0.552,0,1,0.448,1,1v5c0,0.552-0.448,1-1,1H7.495z M16.495,18.004v-5h-4v1h2c0.276,0,0.5,0.224,0.5,0.5s-0.224,0.5-0.5,0.5h-2v1h2
		c0.276,0,0.5,0.224,0.5,0.5s-0.224,0.5-0.5,0.5h-2v1H16.495z M7.495,18.004h4v-6.191l-4-2l0,2.191h2c0.276,0,0.5,0.224,0.5,0.5
		c0,0.276-0.224,0.5-0.5,0.5h-2v1h2c0.276,0,0.5,0.224,0.5,0.5s-0.224,0.5-0.5,0.5h-2V18.004z"/>
</g>
</svg>
