<?xml version="1.0" encoding="utf-8"?>
<!-- Generator: Adobe Illustrator 22.1.0, SVG Export Plug-In . SVG Version: 6.00 Build 0)  -->
<svg version="1.1" id="Light" xmlns="http://www.w3.org/2000/svg" xmlns:xlink="http://www.w3.org/1999/xlink" x="0px" y="0px"
	 viewBox="0 0 24 24" style="enable-background:new 0 0 24 24;" xml:space="preserve">
<g>
	<title>animal-products-cheese</title>
	<path d="M20,14.638c-1.103,0-2-0.897-2-2s0.897-2,2-2s2,0.897,2,2S21.103,14.638,20,14.638z M20,11.638c-0.552,0-1,0.448-1,1
		c0,0.552,0.448,1,1,1s1-0.448,1-1C21,12.087,20.552,11.638,20,11.638z"/>
	<path d="M6,15.638c-0.827,0-1.5-0.673-1.5-1.5s0.673-1.5,1.5-1.5s1.5,0.673,1.5,1.5S6.827,15.638,6,15.638z M6,13.638
		c-0.276,0-0.5,0.224-0.5,0.5s0.224,0.5,0.5,0.5s0.5-0.224,0.5-0.5S6.276,13.638,6,13.638z"/>
	<path d="M11,20.638c-1.379,0-2.5-1.122-2.5-2.5s1.121-2.5,2.5-2.5c1.378,0,2.5,1.122,2.5,2.5S12.378,20.638,11,20.638z M11,16.638
		c-0.827,0-1.5,0.673-1.5,1.5s0.673,1.5,1.5,1.5s1.5-0.673,1.5-1.5S11.827,16.638,11,16.638z"/>
	<path d="M1.499,24c-0.751,0-1.39-0.562-1.487-1.307C0.004,22.628,0,22.564,0,22.499c0-0.646,0.407-1.23,1.014-1.452
		c0.376-0.137,0.676-0.413,0.846-0.777c0.169-0.364,0.187-0.771,0.05-1.146c-0.215-0.59-0.782-0.986-1.41-0.986
		c-0.134,0-0.26-0.052-0.354-0.146S0,17.772,0,17.638v-5.694c0-0.431,0.185-0.841,0.508-1.126l11.87-10.445
		c0.274-0.241,0.622-0.374,0.98-0.374c0.024,0,0.048,0.001,0.072,0.002C17.861,0.173,24,3.22,24,8.492V19.76
		c0,0.751-0.562,1.39-1.307,1.487l-21,2.74C1.628,23.995,1.563,24,1.499,24z M1,17.189c0.841,0.174,1.553,0.78,1.85,1.593
		c0.472,1.295-0.197,2.733-1.492,3.205C1.143,22.065,1,22.271,1,22.499c0,0.022,0.001,0.044,0.004,0.066
		C1.036,22.813,1.25,23,1.5,23c0.021,0,0.043-0.001,0.064-0.004l21-2.74C22.812,20.223,23,20.01,23,19.76V9.062l-22,2.87
		C1,11.936,1,17.189,1,17.189z M13.372,1c-0.121,0-0.242,0.045-0.333,0.125L2.06,10.785l20.919-2.729
		C22.64,3.681,17.242,1.15,13.389,1L13.372,1z"/>
	<circle cx="18" cy="17.638" r="0.75"/>
	<circle cx="13.5" cy="13.138" r="0.75"/>
</g>
</svg>
