<?xml version="1.0" encoding="utf-8"?>
<!-- Generator: Adobe Illustrator 22.1.0, SVG Export Plug-In . SVG Version: 6.00 Build 0)  -->
<svg version="1.1" id="Layer_1" xmlns="http://www.w3.org/2000/svg" xmlns:xlink="http://www.w3.org/1999/xlink" x="0px" y="0px"
	 viewBox="0 0 24 24" style="enable-background:new 0 0 24 24;" xml:space="preserve">
<g>
	<title>love-gift-diamond-1</title>
	<path d="M3.5,5C3.224,5,3,4.776,3,4.5V3H1.5C1.224,3,1,2.776,1,2.5S1.224,2,1.5,2H3V0.5C3,0.224,3.224,0,3.5,0S4,0.224,4,0.5V2h1.5
		C5.776,2,6,2.224,6,2.5S5.776,3,5.5,3H4v1.5C4,4.776,3.776,5,3.5,5z"/>
	<path d="M11.981,24c-0.458,0-0.885-0.205-1.171-0.562l-3.481-4.351C7.117,18.821,7,18.488,7,18.149V5.851
		c0-0.339,0.116-0.672,0.328-0.937l3.481-4.351C11.096,0.205,11.523,0,11.981,0h6.038c0.458,0,0.885,0.205,1.171,0.562l3.481,4.351
		C22.883,5.179,23,5.512,23,5.851v12.298c0,0.34-0.117,0.673-0.328,0.938l-3.481,4.351C18.904,23.795,18.477,24,18.019,24H11.981z
		 M12.27,23h5.461l-1.555-3.5h-2.35L12.27,23z M11.377,22.546l1.527-3.435l-1.529-1.53l-3.053,1.145L11.377,22.546z M18.623,22.545
		l3.056-3.819l-3.053-1.145l-1.53,1.53L18.623,22.545z M16.293,18.5L18,16.793V7.207L16.293,5.5h-2.586L12,7.207v9.586l1.707,1.707
		H16.293z M22,17.778V6.222l-3,1.125v9.307L22,17.778z M8,17.778l3-1.125V7.347L8,6.222V17.778z M18.626,6.419l3.053-1.145
		l-3.056-3.82l-1.526,3.435L18.626,6.419z M11.374,6.419l1.529-1.529l-1.526-3.434L8.321,5.274L11.374,6.419z M16.175,4.5L17.73,1
		h-5.46l1.555,3.5H16.175z"/>
</g>
</svg>
