<?xml version="1.0" encoding="utf-8"?>
<!-- Generator: Adobe Illustrator 22.1.0, SVG Export Plug-In . SVG Version: 6.00 Build 0)  -->
<svg version="1.1" id="Layer_1" xmlns="http://www.w3.org/2000/svg" xmlns:xlink="http://www.w3.org/1999/xlink" x="0px" y="0px"
	 viewBox="0 0 24 24" style="enable-background:new 0 0 24 24;" xml:space="preserve">
<g>
	<title>love-gift-couple-box</title>
	<path d="M2.5,24C1.673,24,1,23.327,1,22.5V10c-0.551,0-1-0.449-1-1V6.5C0,5.673,0.673,5,1.5,5h6.983
		C7.797,4.734,7.329,4.478,7.086,4.234C7.072,4.22,7.059,4.206,7.047,4.19C6.189,3.24,6.201,1.768,7.076,0.832
		c0.453-0.484,1.067-0.763,1.729-0.785C8.833,0.046,8.861,0.046,8.89,0.046c0.63,0,1.232,0.238,1.693,0.669
		C11.081,1.213,11.597,2.526,12,3.759c0.402-1.232,0.916-2.542,1.406-3.032c0.47-0.44,1.074-0.679,1.708-0.679
		c0.684,0,1.344,0.286,1.811,0.784c0.878,0.939,0.887,2.418,0.021,3.367c0.001,0-0.014,0.019-0.031,0.035
		c-0.243,0.244-0.711,0.5-1.397,0.766H22.5C23.327,5,24,5.673,24,6.5V9c0,0.551-0.448,1-1,1v12.5c0,0.827-0.673,1.5-1.5,1.5H2.5z
		 M21.5,23c0.276,0,0.5-0.224,0.5-0.5V10h-1c-0.276,0-0.5-0.224-0.5-0.5S20.724,9,21,9h2V6.5C23,6.224,22.776,6,22.5,6h-21
		C1.224,6,1,6.224,1,6.5V9h2c0.276,0,0.5,0.224,0.5,0.5S3.276,10,3,10H2v12.5C2,22.776,2.224,23,2.5,23h3.441l-0.389-3.5H4.5
		C4.224,19.5,4,19.276,4,19v-2.5C4,14.57,5.57,13,7.5,13s3.5,1.57,3.5,3.5V19c0,0.276-0.224,0.5-0.5,0.5H9.448L9.059,23h5.883
		l-0.389-3.5H13.5c-0.276,0-0.5-0.224-0.5-0.5v-2.5c0-1.93,1.57-3.5,3.5-3.5s3.5,1.57,3.5,3.5V19c0,0.276-0.224,0.5-0.5,0.5h-1.052
		L18.059,23H21.5z M17.052,23l0.451-4.055C17.531,18.691,17.745,18.5,18,18.5h1v-2c0-1.378-1.122-2.5-2.5-2.5S14,15.122,14,16.5v2h1
		c0.255,0,0.469,0.191,0.497,0.445L15.948,23H17.052z M8.052,23l0.451-4.055C8.531,18.691,8.745,18.5,9,18.5h1v-2
		c0-1.378-1.121-2.5-2.5-2.5S5,15.122,5,16.5v2h1c0.255,0,0.469,0.191,0.497,0.445L6.948,23H8.052z M7.813,3.547
		c0.431,0.393,2.049,0.904,3.468,1.266c-0.422-1.396-0.998-2.983-1.394-3.379C9.622,1.185,9.268,1.045,8.899,1.045L8.84,1.047
		C8.443,1.06,8.076,1.226,7.806,1.515c-0.531,0.567-0.531,1.456,0,2.024C7.808,3.54,7.81,3.543,7.813,3.547z M15.112,1.047
		c-0.377,0-0.736,0.142-1.011,0.399c-0.364,0.364-0.935,1.89-1.382,3.367c1.503-0.385,3.063-0.896,3.469-1.267
		c0.003-0.003,0.005-0.006,0.007-0.007c0.531-0.568,0.531-1.456,0-2.024C15.915,1.217,15.521,1.047,15.112,1.047z"/>
	<path d="M7.5,13c-1.516,0-2.75-1.234-2.75-2.75S5.984,7.5,7.5,7.5s2.75,1.234,2.75,2.75S9.016,13,7.5,13z M7.5,8.5
		c-0.965,0-1.75,0.785-1.75,1.75S6.535,12,7.5,12s1.75-0.785,1.75-1.75S8.465,8.5,7.5,8.5z"/>
	<path d="M16.5,13c-1.516,0-2.75-1.234-2.75-2.75S14.984,7.5,16.5,7.5s2.75,1.234,2.75,2.75S18.016,13,16.5,13z M16.5,8.5
		c-0.965,0-1.75,0.785-1.75,1.75S15.535,12,16.5,12s1.75-0.785,1.75-1.75S17.465,8.5,16.5,8.5z"/>
</g>
</svg>
