<?xml version="1.0" encoding="utf-8"?>
<!-- Generator: Adobe Illustrator 22.1.0, SVG Export Plug-In . SVG Version: 6.00 Build 0)  -->
<svg version="1.1" id="Layer_1" xmlns="http://www.w3.org/2000/svg" xmlns:xlink="http://www.w3.org/1999/xlink" x="0px" y="0px"
	 viewBox="0 0 24 24" style="enable-background:new 0 0 24 24;" xml:space="preserve">
<g>
	<title>love-heart-arrow</title>
	<path d="M23.499,24c-0.032,0-0.064-0.003-0.097-0.01l-5.001-1c-0.27-0.054-0.446-0.318-0.392-0.588
		c0.046-0.233,0.252-0.402,0.489-0.402c0.034,0,0.067,0.003,0.101,0.01l3.379,0.676l-3.721-3.721
		c-0.046,0.044-0.094,0.087-0.142,0.131c-1.922,1.74-3.81,2.709-3.889,2.75c-0.069,0.036-0.148,0.055-0.227,0.055
		c-0.079,0-0.157-0.019-0.227-0.055c-0.08-0.041-1.973-1.017-3.889-2.75c-2.581-2.336-3.945-4.937-3.945-7.521
		c0-1.519,0.405-2.811,1.175-3.752l-0.961-0.96L3.378,6.71C2.781,6.677,2.215,6.432,1.784,6.019l-1.63-1.557
		c-0.139-0.133-0.19-0.336-0.129-0.518c0.06-0.182,0.222-0.315,0.413-0.339L3.25,3.252l0.346-2.813
		C3.62,0.248,3.753,0.086,3.935,0.025c0.05-0.017,0.103-0.026,0.158-0.026c0.136,0,0.267,0.056,0.361,0.155l1.564,1.631
		c0.413,0.431,0.659,0.997,0.692,1.594l0.153,2.778l0.971,0.97c0.611-0.464,1.323-0.737,2.071-0.795
		c0.092-0.007,0.185-0.01,0.278-0.01c1.926,0,3.201,1.322,3.823,2.653c0.764-1.674,2.138-2.654,3.769-2.654
		c0.104,0,0.211,0.004,0.32,0.012c1.975,0.151,3.967,1.831,3.967,5.243c0,2.267-1.068,4.575-3.091,6.687l3.716,3.716l-0.676-3.381
		c-0.054-0.27,0.122-0.534,0.392-0.588c0.032-0.007,0.066-0.01,0.1-0.01c0.237,0,0.442,0.169,0.488,0.403l1,5
		c0.005,0.025,0.006,0.046,0.007,0.068c0.001,0.015,0.002,0.031,0.001,0.047c-0.001,0.047-0.011,0.102-0.031,0.155
		c-0.003,0.008-0.011,0.027-0.015,0.035c-0.027,0.058-0.059,0.106-0.1,0.147c-0.047,0.047-0.102,0.083-0.164,0.109
		C23.628,23.987,23.564,24,23.499,24z M8.139,8.182C7.59,8.718,6.938,9.743,6.938,11.574c0,5.03,5.923,8.614,7.061,9.256
		c1.138-0.642,7.061-4.227,7.061-9.254c0-2.772-1.528-4.13-3.043-4.246c-0.083-0.006-0.164-0.01-0.244-0.01
		c-1.886,0-3.022,1.803-3.28,3.478c-0.038,0.246-0.246,0.424-0.494,0.424s-0.456-0.178-0.494-0.424
		c-0.258-1.676-1.396-3.479-3.284-3.479c-0.079,0-0.159,0.003-0.241,0.009C9.317,7.379,8.676,7.671,8.172,8.151
		C8.169,8.155,8.165,8.158,8.162,8.162C8.155,8.169,8.147,8.175,8.139,8.182z M2.475,5.296c0.259,0.249,0.599,0.396,0.957,0.415
		l2.411,0.132l-0.132-2.41C5.691,3.075,5.544,2.735,5.296,2.477L4.461,1.605L4.195,3.761C4.167,3.989,3.988,4.167,3.761,4.196
		L1.606,4.465L2.475,5.296z"/>
</g>
</svg>
