<?xml version="1.0" encoding="utf-8"?>
<!-- Generator: Adobe Illustrator 22.1.0, SVG Export Plug-In . SVG Version: 6.00 Build 0)  -->
<svg version="1.1" id="Layer_1" xmlns="http://www.w3.org/2000/svg" xmlns:xlink="http://www.w3.org/1999/xlink" x="0px" y="0px"
	 viewBox="0 0 24 24" style="enable-background:new 0 0 24 24;" xml:space="preserve">
<g>
	<title>love-heart-hands-hold</title>
	<path d="M22,15.501c-1.103,0-2-0.897-2-2v-2.2c-0.275,0.148-0.583,0.226-0.896,0.226c-0.666,0-1.291-0.354-1.632-0.923l-1.13-1.689
		c-0.069-0.103-0.136-0.215-0.205-0.34c-1.682,0.006-3.152,1.083-3.66,2.685c-0.066,0.209-0.258,0.349-0.477,0.349
		s-0.41-0.14-0.477-0.349c-0.508-1.602-1.978-2.679-3.66-2.685C7.795,8.7,7.727,8.812,7.659,8.915l-1.143,1.71
		c-0.331,0.552-0.953,0.902-1.617,0.902c-0.314,0-0.623-0.078-0.899-0.226v2.2c0,1.103-0.897,2-2,2s-2-0.897-2-2V8.33
		c0-1.131,0.389-2.241,1.096-3.124l1.771-2.214C2.378,2.927,2,2.507,2,2.001v-1c0-0.551,0.449-1,1-1h5c0.551,0,1,0.449,1,1v1
		c0,0.358-0.195,0.686-0.5,0.863v3.273c0,0.496-0.072,0.984-0.215,1.455C9.832,7.727,11.202,8.583,12,9.905
		c0.798-1.323,2.168-2.179,3.715-2.314C15.572,7.12,15.5,6.632,15.5,6.137V2.864C15.195,2.687,15,2.359,15,2.001v-1
		c0-0.551,0.448-1,1-1h5c0.552,0,1,0.449,1,1v1c0,0.506-0.378,0.926-0.866,0.991l1.771,2.214C23.611,6.089,24,7.199,24,8.33v5.171
		C24,14.604,23.103,15.501,22,15.501z M20.996,9.583C20.999,9.598,21,9.614,21,9.626v3.875c0,0.552,0.448,1,1,1s1-0.448,1-1V8.33
		c0-0.905-0.311-1.793-0.877-2.5L19.86,3.001H16.5v3.136c-0.001,0.794,0.232,1.562,0.673,2.222l1.143,1.71
		c0.175,0.29,0.467,0.457,0.79,0.457c0.161,0,0.32-0.044,0.458-0.127l0.037-0.024c0.376-0.251,0.507-0.745,0.304-1.151l-1.333-2.216
		c-0.142-0.237-0.065-0.544,0.171-0.686C18.82,6.276,18.909,6.251,19,6.251c0.174,0,0.339,0.093,0.429,0.243l1.352,2.25
		C20.92,9.02,20.99,9.297,20.996,9.583z M1.876,5.831C1.311,6.537,1,7.425,1,8.33v5.171c0,0.552,0.449,1,1,1s1-0.448,1-1V9.626
		c0-0.01,0.001-0.02,0.002-0.03c0-0.272,0.067-0.555,0.199-0.818l1.371-2.284C4.661,6.344,4.826,6.251,5,6.251
		c0.091,0,0.18,0.025,0.258,0.072C5.372,6.391,5.453,6.501,5.485,6.63c0.032,0.13,0.012,0.264-0.057,0.379l-1.352,2.25
		c-0.184,0.372-0.046,0.87,0.324,1.117L4.438,10.4c0.138,0.083,0.297,0.127,0.459,0.127c0.316,0,0.612-0.167,0.774-0.437
		l1.156-1.731C7.268,7.699,7.501,6.931,7.5,6.138V3.001H4.14L1.876,5.831z M16,2.001h5v-1h-5L16,2.001z M3,2.001h5v-1H3L3,2.001z"/>
	<path d="M12.001,24.002c-0.211,0-0.412-0.066-0.583-0.191c-1.242-0.891-5.453-4.066-7.397-7.434
		c-0.138-0.239-0.056-0.545,0.183-0.683c0.076-0.044,0.162-0.067,0.25-0.067c0.178,0,0.344,0.096,0.433,0.25
		c1.845,3.197,5.915,6.262,7.119,7.125c1.193-0.862,5.264-3.928,7.109-7.125c0.089-0.154,0.255-0.25,0.433-0.25
		c0.088,0,0.174,0.023,0.25,0.068c0.238,0.137,0.32,0.444,0.183,0.683c-1.946,3.371-6.157,6.545-7.402,7.437
		C12.411,23.936,12.211,24.002,12.001,24.002z"/>
</g>
</svg>
