<?xml version="1.0" encoding="utf-8"?>
<!-- Generator: Adobe Illustrator 22.1.0, SVG Export Plug-In . SVG Version: 6.00 Build 0)  -->
<svg version="1.1" id="Layer_1" xmlns="http://www.w3.org/2000/svg" xmlns:xlink="http://www.w3.org/1999/xlink" x="0px" y="0px"
	 viewBox="0 0 24 24" style="enable-background:new 0 0 24 24;" xml:space="preserve">
<g>
	<title>love-heart-hands-hold-3</title>
	<path d="M11.999,12.806c-0.388,0-0.756-0.148-1.037-0.417l-0.041-0.041L5.673,6.87C4.451,5.648,4.149,3.78,4.926,2.227
		c0.481-0.963,1.308-1.68,2.329-2.021C7.67,0.067,8.101-0.003,8.533-0.003c0.626,0,1.231,0.144,1.797,0.427
		c0.389,0.194,0.742,0.449,1.049,0.756L12,1.8l0.621-0.62C13.38,0.419,14.392,0,15.47,0c1.077,0,2.088,0.418,2.848,1.177
		c0.307,0.307,0.562,0.66,0.756,1.049c0.777,1.553,0.474,3.423-0.755,4.651l-5.237,5.466c-0.277,0.289-0.65,0.453-1.051,0.462
		L11.999,12.806z M8.533,0.997c-0.325,0-0.649,0.053-0.962,0.157C6.804,1.41,6.182,1.95,5.82,2.674
		C5.236,3.842,5.464,5.247,6.388,6.171l5.273,5.504c0.088,0.084,0.207,0.132,0.338,0.132c0.146-0.003,0.27-0.058,0.362-0.154
		l5.244-5.474c0.929-0.93,1.159-2.337,0.574-3.504c-0.146-0.293-0.337-0.558-0.568-0.789C17.04,1.315,16.28,1,15.47,1
		c-0.811,0-1.571,0.315-2.143,0.886l-0.974,0.974C12.259,2.955,12.134,3.007,12,3.007s-0.259-0.052-0.354-0.146l-0.974-0.974
		c-0.231-0.231-0.496-0.422-0.789-0.568C9.457,1.105,9.003,0.997,8.533,0.997z"/>
	<path d="M21.534,23.998c-0.066,0-0.13-0.013-0.191-0.038c-0.254-0.105-0.376-0.398-0.271-0.653
		c1.277-3.091,1.925-6.353,1.928-9.698V9.315c-0.002-0.446-0.369-0.811-0.817-0.811c-0.406,0.002-0.753,0.304-0.809,0.703
		l-1.239,9.084c-0.062,0.38-0.263,0.706-0.567,0.924c-0.239,0.172-0.52,0.263-0.812,0.263c-0.077,0-0.155-0.006-0.231-0.019
		c-0.551-0.09-0.994-0.499-1.131-1.04l-0.655-2.944C16.677,15.2,16.427,15,16.145,15c-0.045,0-0.09,0.005-0.135,0.015
		c-0.28,0.063-0.475,0.307-0.476,0.594c0,1.992,0.205,3.992,0.609,5.945l0.381,1.843c0.055,0.27-0.119,0.535-0.388,0.591
		c-0.035,0.007-0.068,0.01-0.101,0.01c-0.236,0-0.442-0.167-0.49-0.398l-0.381-1.843c-0.417-2.018-0.629-4.087-0.629-6.148
		c0.002-0.758,0.519-1.402,1.257-1.569c0.116-0.026,0.236-0.04,0.354-0.04c0.746,0,1.406,0.529,1.57,1.257l0.652,2.931
		c0.036,0.142,0.165,0.259,0.32,0.284c0.022,0.003,0.044,0.005,0.065,0.005c0.084,0,0.164-0.026,0.233-0.075
		c0.087-0.062,0.144-0.155,0.162-0.26l1.237-9.073c0.126-0.888,0.896-1.56,1.791-1.565c1.006,0,1.821,0.811,1.826,1.808v4.297
		c-0.003,3.475-0.677,6.866-2.004,10.079C21.918,23.877,21.737,23.998,21.534,23.998z"/>
	<path d="M2.466,23.998c-0.203,0-0.385-0.121-0.462-0.309C0.677,20.477,0.003,17.086,0,13.611V9.315
		C0.002,8.828,0.194,8.372,0.538,8.03c0.343-0.339,0.798-0.526,1.282-0.526c0.9,0.004,1.67,0.676,1.795,1.562l1.239,9.09
		c0.016,0.094,0.073,0.184,0.16,0.246c0.068,0.049,0.149,0.075,0.232,0.075c0.022,0,0.044-0.002,0.067-0.006
		c0.157-0.026,0.284-0.142,0.323-0.297l0.649-2.917C6.449,14.529,7.109,14,7.856,14c0.118,0,0.237,0.013,0.353,0.039
		c0.739,0.166,1.255,0.811,1.257,1.568c0,2.062-0.212,4.131-0.629,6.149l-0.381,1.843c-0.048,0.231-0.254,0.399-0.49,0.399l0,0
		c-0.032,0-0.065-0.003-0.098-0.01c-0.272-0.057-0.447-0.322-0.391-0.592l0.381-1.843c0.404-1.952,0.608-3.953,0.609-5.946
		c0-0.286-0.196-0.53-0.476-0.593C7.946,15.005,7.9,15,7.856,15c-0.283,0-0.533,0.2-0.595,0.477l-0.652,2.929
		c-0.138,0.552-0.583,0.963-1.134,1.054c-0.076,0.012-0.154,0.019-0.23,0.019c-0.292,0-0.573-0.091-0.813-0.263
		c-0.304-0.218-0.505-0.541-0.565-0.91l-1.241-9.1c-0.056-0.397-0.402-0.698-0.805-0.7C1.369,8.505,1.002,8.869,1,9.318v4.292
		c0.003,3.344,0.651,6.607,1.928,9.697c0.105,0.255-0.016,0.548-0.271,0.653C2.596,23.985,2.532,23.998,2.466,23.998z"/>
</g>
</svg>
