<?xml version="1.0" encoding="utf-8"?>
<!-- Generator: Adobe Illustrator 22.1.0, SVG Export Plug-In . SVG Version: 6.00 Build 0)  -->
<svg version="1.1" id="Layer_1" xmlns="http://www.w3.org/2000/svg" xmlns:xlink="http://www.w3.org/1999/xlink" x="0px" y="0px"
	 viewBox="0 0 24 24" style="enable-background:new 0 0 24 24;" xml:space="preserve">
<g>
	<title>love-plant-pot</title>
	<path d="M10.266,23.999c-1.259,0-2.325-0.941-2.481-2.19l-0.726-5.81H6.5c-0.276,0-0.5-0.224-0.5-0.5s0.224-0.5,0.5-0.5h5v-1.433
		l-0.242,0.096c-0.414,0.164-0.848,0.247-1.288,0.247c-0.478,0-0.946-0.097-1.39-0.29c-0.858-0.372-1.52-1.055-1.864-1.924
		l-0.368-0.93c-0.049-0.124-0.047-0.26,0.006-0.382c0.053-0.123,0.151-0.217,0.275-0.266l0.93-0.368
		c0.415-0.164,0.848-0.247,1.289-0.247c0.478,0,0.946,0.098,1.39,0.29c0.489,0.212,0.92,0.531,1.262,0.93V9.2l-4-4.174
		C6.607,4.134,6.385,2.767,6.953,1.63c0.353-0.705,0.959-1.23,1.707-1.479c0.304-0.101,0.618-0.152,0.934-0.152
		c0.459,0,0.902,0.105,1.318,0.313c0.283,0.142,0.541,0.327,0.765,0.551L12,1.186l0.323-0.323C12.879,0.306,13.62,0,14.408,0
		s1.528,0.307,2.085,0.864c0.224,0.224,0.41,0.481,0.552,0.766c0.569,1.137,0.346,2.505-0.553,3.404L12.5,9.2v1.534
		c0.657-0.769,1.635-1.236,2.669-1.236c0.439,0,0.871,0.083,1.282,0.245l0.93,0.368c0.122,0.048,0.222,0.145,0.275,0.266
		c0.053,0.123,0.055,0.259,0.006,0.383l-0.368,0.93c-0.532,1.344-1.811,2.212-3.259,2.212c-0.44,0-0.872-0.083-1.284-0.246
		l-0.252-0.1v1.441h5c0.276,0,0.5,0.224,0.5,0.5s-0.224,0.5-0.5,0.5h-0.559l-0.726,5.81c-0.156,1.249-1.222,2.19-2.481,2.19H10.266z
		 M8.777,21.685c0.094,0.749,0.734,1.314,1.488,1.314h3.468c0.755,0,1.396-0.565,1.489-1.314l0.711-5.686H8.066L8.777,21.685z
		 M7.646,11.327c0.246,0.621,0.719,1.109,1.331,1.374c0.318,0.138,0.652,0.208,0.993,0.208c0.314,0,0.624-0.06,0.92-0.177
		l0.465-0.184l-0.184-0.465c-0.38-0.96-1.294-1.58-2.328-1.58c-0.314,0-0.622,0.059-0.916,0.175l-0.465,0.184L7.646,11.327z
		 M13.12,12.728c0.294,0.116,0.602,0.175,0.916,0.175c1.034,0,1.948-0.62,2.328-1.58l0.184-0.465l-0.465-0.184
		c-0.294-0.116-0.603-0.175-0.916-0.175c-1.034,0-1.948,0.62-2.328,1.58l-0.184,0.465L13.12,12.728z M9.593,0.998
		c-0.209,0-0.417,0.034-0.618,0.101C8.481,1.264,8.08,1.611,7.847,2.077C7.472,2.828,7.62,3.732,8.214,4.326L12,8.276l3.778-3.942
		c0.6-0.6,0.749-1.506,0.373-2.257c-0.094-0.188-0.217-0.358-0.365-0.506C15.418,1.202,14.928,1,14.408,1
		c-0.521,0-1.01,0.203-1.378,0.571l-0.676,0.676C12.259,2.341,12.134,2.393,12,2.393s-0.259-0.052-0.353-0.146L10.97,1.571
		c-0.148-0.148-0.319-0.271-0.506-0.365C10.189,1.068,9.896,0.998,9.593,0.998z"/>
</g>
</svg>
