<?xml version="1.0" encoding="utf-8"?>
<!-- Generator: Adobe Illustrator 22.1.0, SVG Export Plug-In . SVG Version: 6.00 Build 0)  -->
<svg version="1.1" id="Layer_1" xmlns="http://www.w3.org/2000/svg" xmlns:xlink="http://www.w3.org/1999/xlink" x="0px" y="0px"
	 viewBox="0 0 24 24" style="enable-background:new 0 0 24 24;" xml:space="preserve">
<g>
	<title>love-shield</title>
	<path d="M12,15.882c-0.259,0-0.505-0.099-0.692-0.277L7.5,11.633c-0.895-0.892-1.116-2.259-0.547-3.397
		c0.503-1.005,1.515-1.63,2.642-1.63c0.46,0,0.902,0.105,1.315,0.311c0.284,0.142,0.542,0.328,0.766,0.552L12,7.793l0.323-0.323
		c0.556-0.557,1.297-0.865,2.084-0.865l0.045,0c0.759,0,1.484,0.306,2.041,0.863c0.225,0.224,0.412,0.483,0.555,0.769
		c0.569,1.137,0.347,2.505-0.552,3.405l-3.774,3.934C12.534,15.77,12.271,15.882,12,15.882z M9.594,7.606
		c-0.745,0-1.414,0.413-1.747,1.077c-0.376,0.752-0.228,1.656,0.367,2.25L12,14.882l3.781-3.941c0.6-0.6,0.748-1.506,0.372-2.258
		c-0.094-0.189-0.218-0.36-0.367-0.509c-0.368-0.368-0.852-0.57-1.362-0.57c-0.538,0.001-1.027,0.204-1.394,0.572l-0.677,0.676
		C12.259,8.947,12.134,8.999,12,8.999c-0.133,0-0.259-0.052-0.353-0.146l-0.678-0.676c-0.149-0.149-0.319-0.271-0.507-0.365
		C10.189,7.675,9.897,7.606,9.594,7.606z"/>
	<path d="M12,23.999c-0.457,0-0.905-0.08-1.332-0.237l-1.122-0.414C4.498,21.57,1.062,16.775,1,11.417V3.774
		c0.003-0.816,0.489-1.548,1.239-1.866c3.038-1.268,6.244-1.91,9.531-1.91l0.235,0.001l0.245-0.001c3.273,0,6.473,0.642,9.508,1.909
		C22.511,2.226,22.998,2.958,23,3.773v7.639c-0.062,5.362-3.5,10.159-8.553,11.94l-1.114,0.411
		C12.905,23.92,12.457,23.999,12,23.999z M11.762,0.998c-3.148,0-6.222,0.616-9.136,1.832C2.248,2.99,2.001,3.362,2,3.776v7.635
		c0.057,4.935,3.226,9.355,7.885,10.996l1.128,0.416c0.316,0.116,0.649,0.176,0.987,0.176s0.671-0.059,0.988-0.176l1.12-0.414
		c4.665-1.643,7.835-6.065,7.892-11.005V3.774c-0.001-0.412-0.249-0.784-0.629-0.946c-2.911-1.214-5.977-1.831-9.109-1.831
		c-0.085,0-0.172,0-0.257,0.001L11.762,0.998z"/>
</g>
</svg>
