<?xml version="1.0" encoding="utf-8"?>
<!-- Generator: Adobe Illustrator 22.1.0, SVG Export Plug-In . SVG Version: 6.00 Build 0)  -->
<svg version="1.1" id="Layer_1" xmlns="http://www.w3.org/2000/svg" xmlns:xlink="http://www.w3.org/1999/xlink" x="0px" y="0px"
	 viewBox="0 0 24 24" style="enable-background:new 0 0 24 24;" xml:space="preserve">
<g>
	<title>love-cloud</title>
	<path d="M3.701,13.996c-2.04,0-3.7-1.66-3.7-3.7c0-0.281,0.03-0.563,0.088-0.838C0.313,8.391,0.94,7.474,1.854,6.878
		C2.521,6.442,3.29,6.212,4.078,6.212c0.099,0,0.199,0.004,0.298,0.011c0.321-2.407,1.862-4.521,4.07-5.557
		c0.967-0.454,1.993-0.684,3.048-0.684c0.831,0,1.654,0.145,2.446,0.431c1.698,0.614,3.084,1.823,3.92,3.416
		c1.362,0.032,2.637,0.578,3.603,1.545c0.996,0.997,1.543,2.321,1.543,3.73c0.102,1.664-0.782,3.29-2.253,4.126
		c-0.075,0.043-0.161,0.065-0.247,0.065c-0.18,0-0.346-0.097-0.435-0.253c-0.066-0.115-0.083-0.25-0.047-0.379
		c0.035-0.129,0.119-0.236,0.235-0.302c1.142-0.65,1.828-1.916,1.748-3.227c0-1.167-0.445-2.246-1.251-3.053
		c-0.807-0.808-1.88-1.253-3.022-1.253c-0.051,0-0.109,0.001-0.164,0.003c0,0-0.001,0-0.001,0c-0.212,0-0.389-0.113-0.471-0.287
		c-0.702-1.496-1.944-2.629-3.498-3.19c-0.682-0.246-1.391-0.371-2.106-0.371c-0.907,0-1.79,0.198-2.623,0.589
		C6.813,2.538,5.454,4.548,5.324,6.819c-0.008,0.146-0.08,0.28-0.196,0.369C5.042,7.254,4.934,7.29,4.825,7.29
		c-0.035,0-0.07-0.004-0.104-0.011C4.51,7.235,4.294,7.213,4.08,7.213c-0.595,0-1.176,0.174-1.68,0.502
		C1.71,8.166,1.237,8.858,1.067,9.664c-0.044,0.208-0.066,0.421-0.066,0.632c0,1.488,1.211,2.7,2.7,2.7h2.05
		c0.276,0,0.5,0.224,0.5,0.5s-0.224,0.5-0.5,0.5H3.701z"/>
	<path d="M13.001,19.512c-0.25,0-0.497-0.085-0.695-0.24c-1.445-1.132-4.805-4.023-4.805-6.425c0-1.953,1.338-3.055,2.58-3.252
		c0.138-0.022,0.281-0.033,0.423-0.033c0.5,0,1.678,0.149,2.497,1.433c0.819-1.284,1.996-1.433,2.496-1.433
		c0.143,0,0.285,0.011,0.423,0.033c1.243,0.197,2.58,1.298,2.58,3.252c0,2.402-3.361,5.293-4.806,6.425
		C13.498,19.427,13.251,19.512,13.001,19.512z M10.519,10.561c-0.094,0-0.189,0.007-0.282,0.022
		c-0.836,0.132-1.737,0.897-1.737,2.264c0,1.603,2.284,3.963,4.422,5.637c0.029,0.022,0.058,0.027,0.078,0.027
		c0.02,0,0.049-0.005,0.077-0.027c2.138-1.675,4.423-4.035,4.423-5.638c0-1.367-0.9-2.132-1.737-2.264
		c-0.093-0.015-0.187-0.022-0.281-0.022c-0.431,0-1.488,0.172-2.007,1.769c-0.067,0.207-0.258,0.345-0.476,0.345
		s-0.408-0.139-0.476-0.346C12.007,10.733,10.95,10.561,10.519,10.561z"/>
	<path d="M4,23.996c-0.33,0-0.644-0.126-0.882-0.356l-0.031-0.031l-2.43-2.535c-0.681-0.683-0.85-1.73-0.418-2.601
		c0.387-0.773,1.165-1.253,2.03-1.253c0.353,0,0.694,0.081,1.011,0.24c0.217,0.109,0.414,0.251,0.587,0.423l0.132,0.131l0.135-0.135
		c0.428-0.427,0.996-0.662,1.602-0.662c0.607,0,1.176,0.236,1.603,0.664c0.172,0.172,0.314,0.369,0.423,0.587
		c0.436,0.874,0.266,1.924-0.424,2.614L4.92,23.604c-0.237,0.246-0.554,0.384-0.894,0.391C4.024,23.996,4.002,23.996,4,23.996z
		 M2.269,18.221c-0.484,0-0.919,0.268-1.135,0.699c-0.241,0.485-0.145,1.07,0.238,1.455l2.432,2.537
		c0.058,0.056,0.123,0.083,0.21,0.084c0.066-0.001,0.134-0.031,0.184-0.084l2.425-2.53c0.391-0.391,0.488-0.98,0.245-1.468
		c-0.06-0.12-0.14-0.23-0.236-0.327c-0.239-0.239-0.557-0.371-0.896-0.371c-0.338,0-0.656,0.131-0.894,0.369l-0.486,0.487
		c-0.095,0.095-0.22,0.147-0.354,0.147c-0.133,0-0.258-0.052-0.352-0.145l-0.487-0.483c-0.097-0.097-0.208-0.177-0.329-0.238
		C2.656,18.266,2.466,18.221,2.269,18.221z"/>
	<path d="M20.501,24c-0.302,0-0.588-0.115-0.806-0.324l-0.03-0.03l-2.082-2.172c-0.607-0.608-0.757-1.541-0.369-2.317
		c0.24-0.481,0.654-0.839,1.163-1.009c0.207-0.069,0.422-0.104,0.638-0.104c0.313,0,0.615,0.072,0.898,0.213
		c0.194,0.097,0.37,0.224,0.524,0.378l0.064,0.064l0.064-0.064c0.379-0.38,0.885-0.589,1.423-0.589c0.538,0,1.043,0.209,1.422,0.588
		c0.154,0.154,0.281,0.33,0.378,0.524c0.387,0.775,0.236,1.709-0.376,2.323l-2.071,2.161C21.119,23.873,20.821,24,20.501,24z
		 M19.015,19.045c-0.387,0-0.735,0.214-0.907,0.56c-0.195,0.391-0.119,0.861,0.19,1.17l2.085,2.175
		c0.03,0.029,0.076,0.048,0.122,0.048c0.044,0,0.084-0.017,0.115-0.049l2.077-2.168c0.314-0.315,0.392-0.786,0.197-1.177
		c-0.049-0.098-0.113-0.187-0.19-0.264c-0.191-0.19-0.445-0.295-0.716-0.295s-0.525,0.105-0.715,0.296l-0.418,0.418
		c-0.094,0.094-0.22,0.146-0.354,0.146s-0.259-0.052-0.354-0.146l-0.418-0.418c-0.077-0.077-0.166-0.141-0.263-0.19
		C19.324,19.081,19.173,19.045,19.015,19.045z"/>
</g>
</svg>
