<?xml version="1.0" encoding="utf-8"?>
<!-- Generator: Adobe Illustrator 22.1.0, SVG Export Plug-In . SVG Version: 6.00 Build 0)  -->
<svg version="1.1" id="Layer_1" xmlns="http://www.w3.org/2000/svg" xmlns:xlink="http://www.w3.org/1999/xlink" x="0px" y="0px"
	 viewBox="0 0 24 24" style="enable-background:new 0 0 24 24;" xml:space="preserve">
<g>
	<title>love-fire</title>
	<path d="M12,20.998c-0.107,0-0.213-0.035-0.299-0.099C10.716,20.164,7.5,17.6,7.5,15.437c0-1.621,1.113-2.536,2.147-2.7
		c0.116-0.018,0.235-0.028,0.355-0.028c0.395,0,1.32,0.112,1.999,1.069c0.678-0.955,1.602-1.068,1.997-1.068
		c0.12,0,0.24,0.01,0.356,0.028c1.034,0.164,2.146,1.078,2.146,2.698c0,2.164-3.216,4.728-4.201,5.462
		C12.213,20.962,12.107,20.998,12,20.998z M10.013,13.708c-0.071,0-0.141,0.006-0.209,0.016c-0.628,0.1-1.304,0.678-1.304,1.712
		c0,1.248,1.78,3.083,3.5,4.431c1.72-1.348,3.5-3.183,3.5-4.431c0-1.033-0.676-1.611-1.303-1.711c-0.07-0.011-0.14-0.017-0.21-0.017
		c-0.323,0-1.115,0.131-1.511,1.345C12.408,15.261,12.217,15.4,12,15.4s-0.408-0.139-0.475-0.345
		C11.129,13.839,10.335,13.708,10.013,13.708z"/>
	<path d="M12,24.062c-5.629,0-10.209-4.58-10.209-10.209c-0.003-2.698,1.104-5.327,3.035-7.212C5.01,6.461,5.261,6.358,5.534,6.353
		c0.277,0.002,0.53,0.109,0.719,0.302c0.101,0.102,0.18,0.228,0.23,0.364c0.28,0.72,0.654,1.402,1.112,2.029
		c1.102-2.401,1.111-5.224,0.01-7.632c-0.112-0.239-0.123-0.51-0.032-0.761C7.665,0.403,7.848,0.203,8.09,0.09
		c0.131-0.061,0.277-0.094,0.423-0.094c0.094,0,0.186,0.013,0.276,0.039c4.073,1.011,6.471,3.578,7.764,5.553
		c1.344,2.052,2.117,4.462,2.109,6.53c0.624-0.259,1.218-0.589,1.768-0.984c0.176-0.118,0.372-0.177,0.573-0.177
		c0.338,0,0.65,0.167,0.837,0.448c0.074,0.112,0.125,0.235,0.15,0.366c0.145,0.678,0.219,1.38,0.219,2.082
		C22.209,19.483,17.629,24.062,12,24.062z M5.524,7.358c-1.74,1.699-2.735,4.066-2.733,6.495c0,5.078,4.131,9.209,9.209,9.209
		s9.209-4.131,9.209-9.209c0-0.631-0.067-1.264-0.199-1.882c-0.836,0.578-1.755,1.04-2.736,1.354
		c-0.049,0.016-0.1,0.024-0.152,0.024c-0.115,0-0.227-0.04-0.316-0.113c-0.132-0.108-0.199-0.273-0.181-0.442
		C18.042,9.001,15.044,2.619,8.53,1.001c1.332,2.945,1.186,6.389-0.407,9.21c-0.08,0.141-0.224,0.235-0.385,0.252
		c-0.015,0.002-0.033,0.003-0.052,0.003c-0.144,0-0.281-0.063-0.376-0.173C6.558,9.425,5.965,8.442,5.548,7.371
		C5.544,7.371,5.533,7.363,5.524,7.358z"/>
</g>
</svg>
