<?xml version="1.0" encoding="utf-8"?>
<!-- Generator: Adobe Illustrator 22.1.0, SVG Export Plug-In . SVG Version: 6.00 Build 0)  -->
<svg version="1.1" id="Layer_1" xmlns="http://www.w3.org/2000/svg" xmlns:xlink="http://www.w3.org/1999/xlink" x="0px" y="0px"
	 viewBox="0 0 24 24" style="enable-background:new 0 0 24 24;" xml:space="preserve">
<g>
	<title>love-lollipop</title>
	<path d="M0.5,24c-0.134,0-0.259-0.052-0.354-0.146S0,23.634,0,23.5s0.052-0.259,0.146-0.354L6,17.293V6c0-3.308,2.692-6,6-6
		c3.308,0,6,2.692,6,6c3.308,0,6,2.692,6,6c0,3.308-2.692,6-6,6H6.707l-5.854,5.854C0.759,23.948,0.634,24,0.5,24z M18,17
		c2.757,0,5-2.243,5-5c0-2.757-2.243-5-5-5h-0.5C17.224,7,17,6.776,17,6.5V6c0-2.757-2.243-5-5-5C9.243,1,7,3.243,7,6v11H18z"/>
	<path d="M10,15c-0.551,0-1-0.448-1-1V6c0-1.654,1.346-3,3-3c1.654,0,3,1.346,3,3v3h3c1.654,0,3,1.346,3,3c0,1.654-1.346,3-3,3H10z
		 M12,4c-1.103,0-2,0.897-2,2v8h8c1.103,0,2-0.897,2-2s-0.897-2-2-2h-3c-0.552,0-1-0.449-1-1V6C14,4.897,13.103,4,12,4z"/>
</g>
</svg>
