<?xml version="1.0" encoding="utf-8"?>
<!-- Generator: Adobe Illustrator 22.1.0, SVG Export Plug-In . SVG Version: 6.00 Build 0)  -->
<svg version="1.1" id="Layer_1" xmlns="http://www.w3.org/2000/svg" xmlns:xlink="http://www.w3.org/1999/xlink" x="0px" y="0px"
	 viewBox="0 0 24 24" style="enable-background:new 0 0 24 24;" xml:space="preserve">
<g>
	<title>love-heart-hands-hold-1</title>
	<path d="M12.871,23.937c-1.402,0-2.939-0.535-5.485-1.421c-0.708-0.246-1.493-0.52-2.385-0.821V22c0,0.552-0.449,1-1,1h-3
		c-0.551,0-1-0.448-1-1v-6c0-0.552,0.449-1,1-1h3c0.551,0,1,0.448,1,1h2.5c1.779,0.062,3.444,0.772,4.707,2h2.793
		c0.45,0,0.868,0.201,1.152,0.545l4.581-1.52c0.302-0.101,0.619-0.152,0.94-0.152c0.724,0,1.421,0.26,1.963,0.732
		c0.097,0.076,0.187,0.188,0.252,0.314c0.124,0.24,0.146,0.513,0.064,0.771c-0.082,0.257-0.26,0.467-0.5,0.591
		c-1.724,0.872-3.127,1.616-4.254,2.214C16.134,23.121,14.595,23.937,12.871,23.937z M5.001,20.64
		c1.031,0.346,1.923,0.656,2.714,0.932c2.52,0.877,3.908,1.36,5.142,1.36c1.499,0,2.87-0.727,5.873-2.321
		c1.14-0.604,2.548-1.352,4.268-2.221c-0.003-0.002-0.007-0.021-0.01-0.024c-0.365-0.318-0.833-0.493-1.315-0.493
		c-0.213,0-0.423,0.034-0.623,0.101L16.5,19.483c0,0.006,0,0.011,0,0.017c0,0.827-0.673,1.5-1.5,1.5h-5.5
		c-0.276,0-0.5-0.224-0.5-0.5s0.224-0.5,0.5-0.5h5.5c0.276,0,0.5-0.224,0.5-0.5s-0.224-0.5-0.5-0.5h-3
		c-0.135,0-0.265-0.055-0.359-0.152c-1.1-1.135-2.575-1.792-4.154-1.848l-2.487,0V20.64z M1.001,22h3v-6l-3,0L1.001,22z"/>
	<path d="M20.001,9c-0.552,0-1-0.449-1-1h-2.5c-1.779-0.062-3.444-0.772-4.707-2H9.001C8.55,6,8.132,5.799,7.848,5.455l-4.58,1.52
		c-0.302,0.101-0.619,0.152-0.94,0.152c-0.724,0-1.421-0.26-1.963-0.732C0.269,6.319,0.179,6.208,0.113,6.082
		c-0.255-0.496-0.06-1.107,0.435-1.362c1.709-0.864,3.109-1.607,4.234-2.204c3.085-1.637,4.624-2.453,6.348-2.453
		c1.402,0,2.939,0.535,5.486,1.421c0.708,0.246,1.493,0.519,2.385,0.821V2c0-0.551,0.448-1,1-1h3c0.552,0,1,0.449,1,1v6
		c0,0.551-0.448,1-1,1H20.001z M20.001,8h3V2l-3,0L20.001,8z M9.001,4c-0.276,0-0.5,0.224-0.5,0.5S8.725,5,9.001,5h3
		c0.135,0,0.265,0.055,0.359,0.152C13.461,6.288,14.938,6.945,16.518,7l2.482,0V3.36c-1.041-0.349-1.927-0.658-2.714-0.932
		c-2.52-0.877-3.908-1.36-5.143-1.36c-1.499,0-2.869,0.727-5.873,2.321C4.131,3.994,2.723,4.741,1.003,5.61
		c0.003,0.002,0.007,0.021,0.01,0.023c0.366,0.318,0.833,0.493,1.316,0.493c0.213,0,0.422-0.034,0.623-0.101l4.548-1.509
		c0-0.005,0-0.011,0-0.017c0-0.827,0.673-1.5,1.5-1.5h5.5c0.276,0,0.5,0.224,0.5,0.5S14.776,4,14.501,4H9.001z"/>
	<path d="M12.001,15.997c-0.166,0-0.331-0.042-0.477-0.123c-0.796-0.435-3.398-2.019-3.45-4.126c0-1.585,0.943-2.422,1.826-2.68
		c0.229-0.067,0.462-0.101,0.694-0.101c0.532,0,1.023,0.173,1.407,0.492c0.384-0.319,0.875-0.492,1.407-0.492
		c0.232,0,0.466,0.034,0.695,0.101c0.882,0.258,1.825,1.094,1.825,2.668c-0.05,2.047-2.429,3.576-3.45,4.138
		C12.332,15.955,12.166,15.997,12.001,15.997z M10.592,9.968c-0.137,0-0.276,0.02-0.412,0.06c-0.693,0.202-1.106,0.841-1.106,1.708
		c0.031,1.238,1.534,2.497,2.931,3.262c1.388-0.77,2.893-2.034,2.923-3.274c0-0.857-0.413-1.493-1.105-1.696
		c-0.137-0.04-0.276-0.06-0.413-0.06c-0.416,0-0.785,0.189-0.988,0.507c-0.092,0.144-0.25,0.231-0.421,0.231
		s-0.329-0.086-0.421-0.231C11.377,10.157,11.008,9.968,10.592,9.968z"/>
</g>
</svg>
