<?xml version="1.0" encoding="utf-8"?>
<!-- Generator: Adobe Illustrator 22.1.0, SVG Export Plug-In . SVG Version: 6.00 Build 0)  -->
<svg version="1.1" id="Layer_1" xmlns="http://www.w3.org/2000/svg" xmlns:xlink="http://www.w3.org/1999/xlink" x="0px" y="0px"
	 viewBox="0 0 24 24" style="enable-background:new 0 0 24 24;" xml:space="preserve">
<g>
	<title>love-song</title>
	<path d="M17.909,17.72c-0.379,0-0.729-0.223-0.892-0.568c-0.695-1.441-1.751-4.085-1.009-5.579
		c0.431-0.869,1.227-1.387,2.127-1.387c0.25,0,0.493,0.041,0.721,0.123c0.602,0.215,1.237,0.779,1.382,1.743
		c0.349-0.189,0.719-0.288,1.089-0.288c0.408,0,0.801,0.116,1.136,0.336c0.83,0.545,1.34,1.761,0.709,3.031
		c-0.739,1.489-3.488,2.248-5.06,2.567C18.047,17.713,17.977,17.72,17.909,17.72z M17.921,16.725
		c1.795-0.373,3.889-1.099,4.356-2.039c0.372-0.749,0.099-1.447-0.362-1.75c-0.174-0.114-0.377-0.175-0.586-0.175
		c-0.428,0-0.864,0.249-1.261,0.72c-0.095,0.113-0.235,0.177-0.383,0.177c-0.076,0-0.153-0.018-0.222-0.052
		c-0.208-0.104-0.317-0.333-0.265-0.559c0.304-1.336-0.442-1.714-0.678-1.798c-0.12-0.043-0.249-0.065-0.382-0.065
		c-0.514,0-0.976,0.311-1.234,0.832c-0.386,0.777,0.012,2.623,1.015,4.702l0,0C17.919,16.722,17.92,16.723,17.921,16.725z"/>
	<path d="M19.837,9.177c-0.161,0-0.322-0.04-0.465-0.116c-1.468-0.777-4.921-2.818-5.277-4.957
		c-0.277-1.697,0.755-2.928,1.918-3.266c0.227-0.066,0.463-0.099,0.703-0.099c0.476,0,1.325,0.138,2.058,0.984
		c0.493-1.208,1.496-1.687,2.332-1.723c0.036-0.002,0.073-0.002,0.109-0.002c1.128,0,2.469,0.777,2.75,2.482
		c0.353,2.142-2.264,5.179-3.406,6.385C20.376,9.062,20.112,9.177,19.837,9.177z M16.726,1.736c-0.147,0-0.293,0.021-0.434,0.062
		c-0.74,0.216-1.394,1.021-1.21,2.143c0.23,1.387,2.61,3.098,4.759,4.237c1.585-1.685,3.366-4.146,3.138-5.537
		c-0.186-1.129-1.046-1.644-1.766-1.644c-0.021,0-0.043,0-0.064,0.001c-0.728,0.031-1.547,0.589-1.662,2.062
		c-0.018,0.23-0.19,0.417-0.417,0.454c-0.026,0.004-0.053,0.007-0.081,0.007c-0.2,0-0.381-0.119-0.46-0.303
		C17.976,1.928,17.162,1.736,16.726,1.736z"/>
	<path d="M2.498,24c-1.379,0-2.5-1.122-2.5-2.5S1.12,19,2.498,19h1.5V9.86c0-0.431,0.275-0.812,0.684-0.948l8-2.667
		c0.102-0.034,0.208-0.051,0.315-0.051c0.553,0.001,1.001,0.45,1.001,1.001V18.5c0,1.378-1.122,2.5-2.5,2.5s-2.5-1.122-2.5-2.5
		s1.121-2.5,2.5-2.5h1.5V9.694l-8,2.667V21.5C4.998,22.878,3.877,24,2.498,24z M2.498,20c-0.827,0-1.5,0.673-1.5,1.5
		s0.673,1.5,1.5,1.5s1.5-0.673,1.5-1.5V20H2.498z M11.498,17c-0.827,0-1.5,0.673-1.5,1.5s0.673,1.5,1.5,1.5
		c0.827,0,1.5-0.673,1.5-1.5V17H11.498z M4.999,9.86l0,1.446l8-2.667V7.194l-0.001,0L4.999,9.86z"/>
</g>
</svg>
