<?xml version="1.0" encoding="utf-8"?>
<!-- Generator: Adobe Illustrator 22.1.0, SVG Export Plug-In . SVG Version: 6.00 Build 0)  -->
<svg version="1.1" id="Layer_1" xmlns="http://www.w3.org/2000/svg" xmlns:xlink="http://www.w3.org/1999/xlink" x="0px" y="0px"
	 viewBox="0 0 24 24" style="enable-background:new 0 0 24 24;" xml:space="preserve">
<g>
	<title>love-heart-key</title>
	<path d="M6.471,21.885c-0.222,0-0.44-0.077-0.615-0.216c-1.377-1.079-3.687-3.163-3.681-4.976c0-1.53,1.068-2.457,2.123-2.582
		c0.081-0.009,0.163-0.014,0.246-0.014c0.774,0,1.471,0.398,1.931,1.086c0.46-0.687,1.156-1.086,1.93-1.086
		c0.084,0,0.166,0.005,0.246,0.014c0.148,0.018,0.296,0.051,0.44,0.099L20.649,2.644c0.094-0.094,0.22-0.146,0.354-0.146
		c0.133,0,0.259,0.052,0.353,0.146c0.095,0.095,0.147,0.22,0.147,0.354c0,0.134-0.052,0.259-0.146,0.354L9.974,14.74
		c0.518,0.485,0.801,1.168,0.801,1.954c0,1.806-2.313,3.892-3.691,4.975C6.911,21.808,6.693,21.885,6.471,21.885z M4.555,15.095
		c-0.047,0-0.094,0.003-0.14,0.008c-0.617,0.073-1.241,0.643-1.241,1.591c-0.004,1.177,1.702,2.935,3.301,4.188
		c1.589-1.256,3.299-3.017,3.299-4.188c0-0.948-0.624-1.518-1.241-1.591c-0.046-0.005-0.093-0.008-0.14-0.008
		c-0.324,0-1.113,0.144-1.433,1.479c-0.054,0.226-0.254,0.383-0.486,0.383c-0.232,0-0.432-0.158-0.486-0.383
		C5.668,15.24,4.879,15.095,4.555,15.095z"/>
	<path d="M6.49,24.003c-0.971,0-1.91-0.213-2.791-0.634c-3.234-1.544-4.609-5.432-3.065-8.667c0.748-1.567,2.062-2.748,3.698-3.327
		C5.036,11.126,5.767,11,6.504,11c0.85,0,1.68,0.166,2.47,0.492L19.731,0.735c0.474-0.451,1.088-0.697,1.733-0.697
		c0.643,0,1.253,0.244,1.72,0.687c0.484,0.46,0.76,1.081,0.778,1.748c0.017,0.667-0.227,1.302-0.687,1.786L12.509,15.026
		c0.701,1.7,0.65,3.613-0.144,5.277C11.292,22.551,8.986,24.002,6.49,24.003L6.49,24.003z M6.504,12
		c-0.623,0-1.242,0.107-1.838,0.318c-1.385,0.49-2.496,1.49-3.13,2.815C0.23,17.87,1.393,21.159,4.13,22.466
		c0.745,0.356,1.539,0.536,2.361,0.536c2.113,0,4.065-1.228,4.973-3.129c0.719-1.506,0.719-3.234,0-4.74
		c-0.092-0.192-0.053-0.421,0.097-0.571l11-11C22.828,3.279,22.972,2.9,22.962,2.5c-0.01-0.4-0.176-0.773-0.466-1.049
		c-0.28-0.266-0.647-0.413-1.033-0.413s-0.753,0.147-1.033,0.413L9.438,12.442c-0.095,0.094-0.22,0.146-0.354,0.146
		c-0.074,0-0.148-0.017-0.215-0.049C8.119,12.182,7.323,12,6.504,12z"/>
	<path d="M22.175,9.188c-0.136,0-0.263-0.054-0.358-0.151l-0.672-0.69c-0.093-0.096-0.143-0.222-0.142-0.355
		c0.002-0.134,0.056-0.259,0.151-0.352c0.094-0.091,0.218-0.142,0.349-0.142c0.136,0,0.263,0.054,0.358,0.151l0.672,0.69
		c0.093,0.096,0.143,0.222,0.142,0.355c-0.002,0.134-0.056,0.259-0.151,0.352C22.43,9.137,22.306,9.188,22.175,9.188z"/>
	<path d="M18.71,12.705c-0.134,0-0.259-0.052-0.354-0.146l-0.707-0.707c-0.195-0.195-0.195-0.512,0-0.707
		c0.094-0.094,0.22-0.146,0.354-0.146s0.259,0.052,0.354,0.146l0.707,0.707c0.094,0.094,0.146,0.22,0.146,0.354
		s-0.052,0.259-0.146,0.354S18.843,12.705,18.71,12.705z"/>
	<path d="M15.211,16.205c-0.133,0-0.259-0.052-0.353-0.146l-0.708-0.707c-0.195-0.195-0.195-0.512-0.001-0.707
		c0.095-0.095,0.22-0.147,0.354-0.147s0.259,0.052,0.353,0.146l0.708,0.707c0.195,0.195,0.195,0.512,0.001,0.707
		C15.47,16.153,15.345,16.205,15.211,16.205z"/>
</g>
</svg>
