<?xml version="1.0" encoding="utf-8"?>
<!-- Generator: Adobe Illustrator 22.1.0, SVG Export Plug-In . SVG Version: 6.00 Build 0)  -->
<svg version="1.1" id="Layer_1" xmlns="http://www.w3.org/2000/svg" xmlns:xlink="http://www.w3.org/1999/xlink" x="0px" y="0px"
	 viewBox="0 0 24 24" style="enable-background:new 0 0 24 24;" xml:space="preserve">
<g>
	<title>love-plant</title>
	<path d="M17.5,23.999c-0.276,0-0.5-0.224-0.5-0.5v-1.5H7v1.5c0,0.276-0.224,0.5-0.5,0.5S6,23.774,6,23.499v-1.586
		c-0.59-0.209-1-0.774-1-1.414v-0.5c0-0.827,0.673-1.5,1.5-1.5h5v-1.069c-1.676-0.299-3.179-1.243-4.177-2.623
		c-0.688,0.247-2.066,0.68-3.265,0.68c-0.601,0-1.094-0.11-1.463-0.328c-0.944-0.45-1.366-1.555-0.961-2.521
		c0.261-0.622,0.816-1.055,1.464-1.169c-0.233-0.739,0.004-1.39,0.338-1.78c0.358-0.417,0.911-0.667,1.48-0.667
		c0.405,0,0.804,0.119,1.186,0.354c1.377,0.839,1.791,3.692,1.893,4.646c0.81,1.229,2.073,2.088,3.505,2.39v-5.271
		c-0.07-0.04-0.134-0.087-0.192-0.143C11.304,10.994,6.525,6.01,6.525,6.01C5.456,4.941,5.192,3.307,5.872,1.948
		c0.421-0.842,1.146-1.47,2.039-1.768c0.363-0.121,0.74-0.182,1.118-0.182c0.548,0,1.078,0.126,1.574,0.374
		c0.34,0.17,0.648,0.392,0.916,0.66L12,1.513l0.481-0.481c0.665-0.665,1.551-1.031,2.493-1.031s1.828,0.366,2.493,1.031
		c0.269,0.269,0.49,0.577,0.66,0.916c0.679,1.359,0.414,2.995-0.661,4.069l-4.746,4.95c-0.065,0.068-0.139,0.125-0.222,0.172v2.772
		c1.432-0.302,2.695-1.161,3.504-2.39c0.102-0.954,0.518-3.808,1.894-4.647c0.38-0.234,0.779-0.353,1.184-0.353
		c0.569,0,1.123,0.249,1.48,0.667c0.335,0.391,0.572,1.042,0.338,1.782c0.655,0.116,1.205,0.549,1.465,1.167
		c0.406,0.966-0.017,2.071-0.96,2.521c-0.369,0.218-0.861,0.328-1.463,0.328c-1.2,0-2.578-0.433-3.266-0.68
		c-0.997,1.38-2.501,2.324-4.177,2.623v3.569h5c0.827,0,1.5,0.673,1.5,1.5v0.5c0,0.64-0.41,1.205-1,1.414v1.586
		C18,23.774,17.776,23.999,17.5,23.999z M6.5,19.499c-0.276,0-0.5,0.224-0.5,0.5v0.5c0,0.276,0.224,0.5,0.5,0.5h11
		c0.276,0,0.5-0.224,0.5-0.5v-0.5c0-0.276-0.224-0.5-0.5-0.5H6.5z M3.439,12.439c-0.387,0-0.733,0.23-0.882,0.585
		c-0.2,0.478,0.011,1.021,0.482,1.237c0.02,0.009,0.038,0.019,0.056,0.031c0.21,0.129,0.532,0.195,0.953,0.195
		c0.895,0,2.063-0.307,2.924-0.617c-0.19-1.495-0.693-3.217-1.391-3.643c-0.22-0.136-0.444-0.204-0.665-0.204
		c-0.282,0-0.551,0.118-0.72,0.315c-0.118,0.137-0.451,0.643,0.184,1.389c0.151,0.177,0.16,0.432,0.023,0.619
		C4.31,12.476,4.159,12.553,4,12.553c-0.067,0-0.132-0.013-0.194-0.04C3.689,12.464,3.565,12.439,3.439,12.439z M17.029,11.371
		c0.862,0.309,2.03,0.616,2.925,0.616c0.42,0,0.742-0.066,0.956-0.198c0.018-0.011,0.035-0.02,0.052-0.028
		c0.471-0.216,0.683-0.76,0.483-1.238c-0.149-0.355-0.496-0.585-0.883-0.585c-0.126,0-0.25,0.025-0.368,0.074
		c-0.061,0.026-0.126,0.039-0.193,0.039c-0.159,0-0.31-0.077-0.404-0.205c-0.137-0.188-0.127-0.443,0.023-0.62
		c0.635-0.746,0.302-1.252,0.184-1.389c-0.169-0.197-0.438-0.315-0.72-0.315c-0.221,0-0.444,0.068-0.663,0.203
		C17.722,8.153,17.219,9.876,17.029,11.371z M9.028,0.998c-0.271,0-0.54,0.044-0.801,0.131c-0.64,0.213-1.159,0.663-1.461,1.266
		C6.279,3.369,6.47,4.54,7.239,5.31L12,10.276l4.753-4.958c0.776-0.776,0.968-1.949,0.48-2.922c-0.121-0.243-0.28-0.464-0.473-0.656
		c-0.476-0.476-1.111-0.738-1.786-0.738s-1.31,0.262-1.786,0.738l-0.835,0.835C12.259,2.668,12.134,2.72,12,2.72
		s-0.259-0.052-0.354-0.146l-0.835-0.835c-0.193-0.192-0.413-0.351-0.656-0.473C9.799,1.088,9.42,0.998,9.028,0.998z"/>
</g>
</svg>
