<?xml version="1.0" encoding="utf-8"?>
<!-- Generator: Adobe Illustrator 22.1.0, SVG Export Plug-In . SVG Version: 6.00 Build 0)  -->
<svg version="1.1" id="Layer_1" xmlns="http://www.w3.org/2000/svg" xmlns:xlink="http://www.w3.org/1999/xlink" x="0px" y="0px"
	 viewBox="0 0 24 24" style="enable-background:new 0 0 24 24;" xml:space="preserve">
<g>
	<title>love-hat</title>
	<path d="M8.265,24.002c-1.379,0-2.5-1.122-2.5-2.5v-6.5h-3c-0.276,0-0.5-0.224-0.5-0.5s0.224-0.5,0.5-0.5h17
		c0.276,0,0.5,0.224,0.5,0.5s-0.224,0.5-0.5,0.5h-3v6.5c0,1.378-1.122,2.5-2.5,2.5H8.265z M6.765,21.502c0,0.827,0.673,1.5,1.5,1.5
		h6c0.827,0,1.5-0.673,1.5-1.5v-3.5h-9V21.502z M15.765,17.002v-2h-9v2H15.765z"/>
	<path d="M17.103,11.5c-1.174,0-2.151-0.139-2.259-0.154c-0.217-0.032-0.39-0.205-0.422-0.422c-0.112-0.762-0.596-4.639,0.861-6.097
		c0.65-0.651,1.333-0.787,1.79-0.787c0.475,0,0.94,0.148,1.31,0.416c0.521,0.378,0.978,1.108,0.839,2.089
		c0.117-0.016,0.234-0.025,0.348-0.025c0.697,0,1.348,0.322,1.74,0.862c0.553,0.762,0.673,2.057-0.37,3.101
		C20.267,11.158,18.975,11.5,17.103,11.5z M15.363,10.405c0.392,0.045,1.019,0.101,1.737,0.101c1.55,0,2.663-0.259,3.134-0.729
		c0.629-0.629,0.58-1.377,0.268-1.807c-0.122-0.168-0.405-0.451-0.926-0.451c-0.278,0-0.58,0.082-0.899,0.245
		c-0.07,0.036-0.148,0.055-0.227,0.055c-0.134,0-0.259-0.052-0.354-0.146c-0.154-0.154-0.191-0.387-0.092-0.58
		c0.577-1.136-0.013-1.685-0.208-1.827c-0.199-0.144-0.453-0.224-0.717-0.224c-0.272,0-0.682,0.085-1.089,0.492
		C15.248,6.276,15.146,8.539,15.363,10.405z"/>
	<path d="M8.567,8.938c-0.1,0-0.199-0.015-0.295-0.044c-1.49-0.448-5.039-1.698-5.786-3.617c-0.612-1.572,0.121-2.88,1.062-3.429
		c0.367-0.214,0.79-0.328,1.223-0.328c0.515,0,1.019,0.161,1.48,0.47c0.282-1.175,1.136-1.768,1.898-1.933
		c0.169-0.036,0.345-0.055,0.524-0.055c0.893,0,2.038,0.49,2.573,1.865c0.747,1.917-1.023,5.239-1.819,6.579
		C9.249,8.749,8.919,8.938,8.567,8.938z M4.771,2.517c-0.252,0-0.501,0.067-0.719,0.195C3.466,3.054,3.018,3.889,3.417,4.914
		c0.48,1.232,2.972,2.369,5.145,3.023c1.163-1.952,2.231-4.476,1.751-5.707C9.961,1.325,9.234,1.003,8.672,1.003
		c-0.107,0-0.212,0.011-0.312,0.033C7.735,1.171,7.091,1.763,7.161,3.019c0.012,0.217-0.116,0.415-0.318,0.494
		C6.785,3.535,6.723,3.547,6.661,3.547c-0.15,0-0.291-0.067-0.387-0.184C5.821,2.81,5.301,2.517,4.771,2.517z"/>
</g>
</svg>
