<?xml version="1.0" encoding="utf-8"?>
<!-- Generator: Adobe Illustrator 22.1.0, SVG Export Plug-In . SVG Version: 6.00 Build 0)  -->
<svg version="1.1" id="Layer_1" xmlns="http://www.w3.org/2000/svg" xmlns:xlink="http://www.w3.org/1999/xlink" x="0px" y="0px"
	 viewBox="0 0 24 24" style="enable-background:new 0 0 24 24;" xml:space="preserve">
<g>
	<title>love-heart-balloon</title>
	<path d="M11.999,23.999c-0.276,0-0.5-0.224-0.5-0.5v-7.255l-0.138,0.295c-0.844,1.801-2.328,3.195-4.178,3.925
		c-0.059,0.023-0.12,0.035-0.183,0.035c-0.207,0-0.39-0.124-0.466-0.316c-0.101-0.256,0.025-0.547,0.282-0.649
		c1.612-0.636,2.905-1.85,3.64-3.419l0.047-0.101l-0.669,0.601c-0.366,0.328-0.839,0.509-1.33,0.51
		c-0.537,0-1.038-0.207-1.416-0.583c-0.378-0.377-0.588-0.879-0.589-1.413V12.87c0.001-0.492,0.182-0.964,0.509-1.33
		c0.356-0.398,0.846-0.634,1.379-0.664c0.038-0.002,0.076-0.003,0.113-0.003c0.492,0,0.964,0.181,1.332,0.51l1.667,1.496v-1.737
		c-0.07-0.04-0.134-0.087-0.192-0.143C11.303,10.994,6.524,6.01,6.524,6.01C5.455,4.941,5.191,3.307,5.87,1.948
		C6.292,1.105,7.016,0.478,7.91,0.18c0.363-0.121,0.74-0.182,1.118-0.182c0.548,0,1.078,0.126,1.574,0.374
		c0.34,0.17,0.648,0.392,0.916,0.66l0.481,0.481l0.481-0.481c0.665-0.665,1.551-1.031,2.493-1.031s1.828,0.366,2.493,1.031
		c0.269,0.269,0.49,0.577,0.66,0.916c0.679,1.359,0.414,2.995-0.661,4.069l-4.746,4.95c-0.065,0.068-0.139,0.125-0.222,0.172v1.738
		l1.666-1.495c0.373-0.334,0.833-0.51,1.331-0.51c0.038,0,0.076,0.001,0.115,0.003c0.533,0.03,1.023,0.266,1.379,0.664
		c0.327,0.366,0.508,0.838,0.51,1.329v2.259c-0.001,0.535-0.21,1.037-0.589,1.414c-0.377,0.376-0.878,0.583-1.411,0.583
		c-0.496-0.001-0.968-0.182-1.334-0.51l-0.67-0.601l0.047,0.1c0.735,1.569,2.028,2.784,3.64,3.419
		c0.256,0.102,0.383,0.392,0.282,0.649c-0.076,0.193-0.259,0.317-0.465,0.317c-0.062,0-0.124-0.011-0.182-0.034
		c-1.852-0.731-3.336-2.125-4.179-3.926l-0.138-0.295v7.255C12.499,23.774,12.274,23.999,11.999,23.999z M14.833,15.87
		c0.183,0.163,0.419,0.254,0.664,0.254c0.273,0,0.516-0.101,0.708-0.292c0.189-0.188,0.294-0.439,0.294-0.707V12.87
		c0-0.245-0.091-0.48-0.255-0.664c-0.189-0.212-0.461-0.333-0.746-0.333c-0.246,0-0.483,0.09-0.666,0.254l-2.085,1.871L14.833,15.87
		z M8.499,11.873c-0.285,0-0.557,0.121-0.746,0.333c-0.164,0.183-0.254,0.419-0.255,0.665v2.257
		c0.001,0.266,0.105,0.517,0.294,0.706c0.189,0.188,0.439,0.292,0.706,0.292c0.248,0,0.484-0.091,0.667-0.255l2.085-1.871
		l-2.085-1.872C8.982,11.963,8.746,11.873,8.499,11.873z M9.027,0.998c-0.271,0-0.54,0.044-0.801,0.131
		c-0.64,0.213-1.159,0.663-1.461,1.266C6.278,3.369,6.468,4.54,7.238,5.31l4.76,4.965l4.753-4.958
		c0.776-0.776,0.968-1.949,0.48-2.922c-0.121-0.243-0.28-0.464-0.473-0.656c-0.476-0.476-1.111-0.738-1.786-0.738
		s-1.31,0.262-1.786,0.738l-0.835,0.835c-0.094,0.094-0.22,0.146-0.354,0.146s-0.259-0.052-0.354-0.146L10.81,1.739
		c-0.193-0.192-0.413-0.351-0.656-0.473C9.798,1.088,9.419,0.998,9.027,0.998z"/>
</g>
</svg>
