<?xml version="1.0" encoding="utf-8"?>
<!-- Generator: Adobe Illustrator 22.1.0, SVG Export Plug-In . SVG Version: 6.00 Build 0)  -->
<svg version="1.1" id="Light" xmlns="http://www.w3.org/2000/svg" xmlns:xlink="http://www.w3.org/1999/xlink" x="0px" y="0px"
	 viewBox="0 0 24 24" style="enable-background:new 0 0 24 24;" xml:space="preserve">
<g>
	<title>asian-interior-entrance</title>
	<path d="M19.129,24c-0.264,0-0.513-0.102-0.701-0.287c-0.393-0.387-0.397-1.022-0.01-1.415c3.422-3.479,3.422-9.142,0-12.621
		C17.198,8.438,15.677,7.59,14,7.212V23.5c0,0.276-0.224,0.5-0.5,0.5h-6C7.224,24,7,23.776,7,23.5S7.224,23,7.5,23H13v-3H5.5
		C5.224,20,5,19.776,5,19.5S5.224,19,5.5,19H7v-5H5c-0.276,0-0.5-0.224-0.5-0.5S4.724,13,5,13h2V8.504
		C6.531,8.818,6.091,9.176,5.689,9.571C3.975,11.257,3.02,13.509,3,15.913c-0.02,2.404,0.897,4.672,2.583,6.386
		C5.769,22.486,5.871,22.735,5.871,23c0,0.552-0.449,1-1,1H1c-0.551,0-1-0.448-1-1V1c0-0.551,0.449-1,1-1h22c0.552,0,1,0.449,1,1v22
		c0,0.552-0.448,1-1,1H19.129z M12.083,5.988c2.671,0.022,5.173,1.083,7.046,2.987c3.803,3.867,3.803,10.158,0,14.024L23,23V4H1v19
		h3.871C2.998,21.095,1.978,18.575,2,15.905c0.022-2.671,1.083-5.174,2.987-7.047c1.882-1.851,4.372-2.871,7.01-2.871L12.083,5.988z
		 M13,19v-5h-2v5H13z M10,19v-5H8v5H10z M13,13V7.045c-0.316-0.035-0.626-0.054-0.925-0.057l-0.066,0
		c-0.334,0-0.672,0.019-1.009,0.056V13H13z M10,13V7.211C9.308,7.367,8.637,7.606,8,7.922V13H10z M23,3V1H1v2H23z"/>
</g>
</svg>
