<?xml version="1.0" encoding="utf-8"?>
<!-- Generator: Adobe Illustrator 22.1.0, SVG Export Plug-In . SVG Version: 6.00 Build 0)  -->
<svg version="1.1" id="Light" xmlns="http://www.w3.org/2000/svg" xmlns:xlink="http://www.w3.org/1999/xlink" x="0px" y="0px"
	 viewBox="0 0 24 24" style="enable-background:new 0 0 24 24;" xml:space="preserve">
<g>
	<title>asian-interior-door</title>
	<path d="M1.5,24C0.673,24,0,23.327,0,22.5v-18C0,3.673,0.673,3,1.5,3h7C9.327,3,10,3.673,10,4.5v18c0,0.827-0.673,1.5-1.5,1.5H1.5z
		 M1,22.5C1,22.776,1.224,23,1.5,23h7C8.776,23,9,22.776,9,22.5V21H1V22.5z M9,20v-1H1v1H9z M9,18v-4H7v4H9z M6,18v-4H4v4H6z M3,18
		v-4H1v4H3z M9,13V9H7v4H9z M6,13V9H4v4H6z M3,13V9H1v4H3z M9,8V4.5C9,4.224,8.776,4,8.5,4H7v4H9z M6,8V4H4v4H6z M3,8V4H1.5
		C1.224,4,1,4.224,1,4.5V8H3z"/>
	<path d="M15.5,24c-0.827,0-1.5-0.673-1.5-1.5v-18C14,3.673,14.673,3,15.5,3h7C23.327,3,24,3.673,24,4.5v18
		c0,0.827-0.673,1.5-1.5,1.5H15.5z M15,22.5c0,0.276,0.224,0.5,0.5,0.5h7c0.276,0,0.5-0.224,0.5-0.5V21h-8V22.5z M23,20v-1h-8v1H23z
		 M23,18v-4h-2v4H23z M20,18v-4h-2v4H20z M17,18v-4h-2v4H17z M23,13V9h-2v4H23z M20,13V9h-2v4H20z M17,13V9h-2v4H17z M23,8V4.5
		C23,4.224,22.776,4,22.5,4H21v4H23z M20,8V4h-2v4H20z M17,8V4h-1.5C15.224,4,15,4.224,15,4.5V8H17z"/>
	<path d="M0.5,1C0.224,1,0,0.776,0,0.5S0.224,0,0.5,0h23C23.776,0,24,0.224,24,0.5S23.776,1,23.5,1H0.5z"/>
</g>
</svg>
