<?xml version="1.0" encoding="utf-8"?>
<!-- Generator: Adobe Illustrator 22.1.0, SVG Export Plug-In . SVG Version: 6.00 Build 0)  -->
<svg version="1.1" id="Light" xmlns="http://www.w3.org/2000/svg" xmlns:xlink="http://www.w3.org/1999/xlink" x="0px" y="0px"
	 viewBox="0 0 24 24" style="enable-background:new 0 0 24 24;" xml:space="preserve">
<g>
	<title>asian-interior-bonsai-tree-1</title>
	<path d="M4.5,24.003c-2.216,0-4.129-1.65-4.455-3.838c-0.007-0.047-0.011-0.097-0.011-0.147c-0.001-0.27,0.102-0.524,0.292-0.715
		c0.19-0.192,0.443-0.298,0.712-0.3h5.195l-0.4-0.858c-0.43-0.922-0.263-2.001,0.426-2.75l2.776-3.02
		c0.076-0.093,0.115-0.222,0.103-0.355c-0.013-0.133-0.077-0.253-0.179-0.338L6.32,9.503H4.219C3.092,9.502,2.033,9.062,1.236,8.265
		C0.44,7.467,0.002,6.407,0.003,5.28c0.002-2.324,1.894-4.216,4.219-4.216c1.075,0.001,2.109,0.416,2.889,1.15
		c0.867-1.372,2.378-2.211,4.022-2.211c0.642,0,1.268,0.129,1.862,0.383c0.896,0.383,1.631,1.011,2.144,1.826
		c0.778-0.732,1.816-1.146,2.897-1.146c0.903,0,1.765,0.283,2.493,0.818c1.875,1.377,2.279,4.023,0.902,5.898
		c-0.791,1.076-2.061,1.72-3.396,1.721h-6.383l1.462,0.975c1.146,0.765,1.458,2.319,0.694,3.466l-1.324,1.986
		c-0.154,0.23-0.092,0.541,0.137,0.694l1.377,0.869l3.937-0.715c0.746-0.135,1.397-0.61,1.755-1.276H19
		c-1.379-0.001-2.5-1.123-2.499-2.501c0-0.668,0.261-1.296,0.733-1.768c0.472-0.472,1.1-0.731,1.767-0.731
		c0.871,0,1.681,0.463,2.132,1.197c0.26-0.125,0.546-0.192,0.839-0.197l0.042,0c0.522,0,1,0.196,1.381,0.567
		c0.383,0.373,0.598,0.872,0.605,1.406c0.007,0.534-0.194,1.039-0.566,1.422c-0.374,0.385-0.897,0.605-1.434,0.605h-1.191
		l-0.191,0.382c-0.49,0.98-1.427,1.682-2.505,1.878l-2.864,0.52l1.142,0.72h5.066c0.052,0,0.102,0.004,0.153,0.012
		c0.267,0.042,0.501,0.185,0.66,0.403c0.159,0.218,0.223,0.485,0.181,0.751c-0.325,2.185-2.239,3.834-4.451,3.834H4.5z
		 M1.042,20.003c-0.002,0-0.004,0.001-0.006,0.003c0.251,1.713,1.739,2.997,3.46,2.997H18c1.721,0,3.21-1.283,3.462-2.985
		L1.042,20.003z M14.517,19.003l-2.422-1.527c0,0-0.034-0.022-0.037-0.024c-0.681-0.456-0.867-1.389-0.407-2.076l1.324-1.986
		c0.458-0.688,0.272-1.621-0.416-2.08l-2.71-1.807H7.89l1.704,1.409c0.309,0.255,0.5,0.615,0.538,1.013
		c0.038,0.399-0.081,0.789-0.336,1.098c-0.018,0.022-0.035,0.041-0.052,0.06l-2.75,2.99c-0.413,0.449-0.514,1.097-0.256,1.65
		l0.597,1.281H14.517z M19.001,11.503c-0.4,0-0.777,0.156-1.06,0.439c-0.283,0.283-0.44,0.66-0.44,1.061
		c0,0.827,0.672,1.5,1.5,1.501h3c0.268,0,0.53-0.11,0.717-0.303c0.186-0.191,0.287-0.444,0.283-0.711
		c-0.004-0.267-0.111-0.517-0.302-0.703c-0.188-0.183-0.438-0.283-0.705-0.283c-0.273,0.004-0.523,0.111-0.709,0.302
		c-0.093,0.096-0.224,0.151-0.359,0.151c-0.041,0-0.082-0.005-0.121-0.015c-0.173-0.044-0.31-0.177-0.359-0.348
		C20.262,11.951,19.669,11.503,19.001,11.503v-0.25V11.503z M4.222,2.065c-1.774,0-3.218,1.443-3.219,3.217
		c-0.001,0.86,0.333,1.668,0.941,2.277C2.551,8.166,3.36,8.502,4.22,8.503h13.815c1.019-0.001,1.988-0.492,2.591-1.313
		c1.051-1.43,0.742-3.449-0.688-4.5c-0.555-0.408-1.213-0.624-1.902-0.624c-1.024,0-1.995,0.49-2.598,1.312
		c-0.01,0.013-0.023,0.028-0.037,0.04c-0.022,0.024-0.043,0.04-0.058,0.052c-0.015,0.012-0.037,0.03-0.066,0.046
		c-0.015,0.01-0.032,0.02-0.046,0.026c-0.03,0.012-0.055,0.018-0.071,0.02c-0.019,0.005-0.043,0.011-0.07,0.014
		c-0.019,0.004-0.04,0.006-0.056,0.006c-0.027,0-0.054-0.004-0.08-0.009c-0.014-0.001-0.032-0.005-0.05-0.009
		c-0.048-0.012-0.096-0.034-0.14-0.062c-0.01-0.006-0.02-0.012-0.028-0.018c-0.011-0.008-0.023-0.019-0.034-0.03
		c-0.029-0.026-0.056-0.057-0.08-0.091c-0.009-0.013-0.018-0.028-0.027-0.044c-0.01-0.014-0.014-0.023-0.021-0.038
		c-0.382-0.891-1.083-1.592-1.974-1.974c-0.469-0.201-0.964-0.303-1.471-0.303c-1.507,0-2.863,0.893-3.455,2.276
		C7.672,3.287,7.667,3.296,7.662,3.305c-0.02,0.04-0.047,0.077-0.08,0.114C7.58,3.421,7.575,3.426,7.57,3.431
		C7.555,3.449,7.532,3.472,7.515,3.484C7.481,3.51,7.448,3.522,7.432,3.528C7.418,3.536,7.399,3.545,7.379,3.552
		C7.34,3.565,7.305,3.572,7.265,3.575C7.249,3.577,7.23,3.578,7.21,3.578c-0.006,0-0.024-0.001-0.03-0.001
		C7.145,3.574,7.116,3.568,7.086,3.56c0.001,0,0.001,0.001-0.001,0.001c-0.006,0-0.034-0.005-0.065-0.019
		C7.003,3.535,6.982,3.522,6.964,3.51c-0.01-0.006-0.02-0.013-0.03-0.021c-0.04-0.028-0.071-0.056-0.097-0.086
		C6.829,3.394,6.821,3.385,6.814,3.375c-0.602-0.819-1.571-1.31-2.59-1.311l-0.002-0.25V2.065z"/>
</g>
</svg>
