<?xml version="1.0" encoding="utf-8"?>
<!-- Generator: Adobe Illustrator 22.1.0, SVG Export Plug-In . SVG Version: 6.00 Build 0)  -->
<svg version="1.1" id="Layer_1" xmlns="http://www.w3.org/2000/svg" xmlns:xlink="http://www.w3.org/1999/xlink" x="0px" y="0px"
	 viewBox="0 0 24 24" style="enable-background:new 0 0 24 24;" xml:space="preserve">
<g>
	<title>professions-woman-chef-2</title>
	<path d="M23,23.997c-0.276,0-0.5-0.224-0.5-0.5v-3.106c0.003-0.461-0.212-0.903-0.575-1.183c-0.67-0.511-1.828-1.231-3.578-1.799
		l-3.406,6.325c-0.088,0.162-0.256,0.263-0.441,0.263c-0.082,0-0.164-0.021-0.236-0.059c-0.243-0.132-0.334-0.436-0.204-0.678
		l3.304-6.136c-0.278-0.071-0.564-0.137-0.855-0.197l-6.135,6.902c-0.095,0.107-0.231,0.168-0.374,0.168
		c-0.123,0-0.241-0.045-0.332-0.126c-0.1-0.088-0.159-0.211-0.167-0.344c-0.008-0.134,0.037-0.262,0.125-0.362l1.705-1.918
		l-3.84-4.319c-2.734,0.562-4.453,1.548-5.419,2.282c-0.361,0.278-0.576,0.719-0.573,1.177v3.109c0,0.276-0.224,0.5-0.5,0.5
		s-0.5-0.224-0.5-0.5v-3.106c-0.005-0.767,0.355-1.505,0.965-1.975C2.899,17.326,6.173,15.497,12,15.497
		c5.839,0,9.106,1.828,10.533,2.918c0.611,0.471,0.972,1.21,0.967,1.98v3.103C23.5,23.773,23.276,23.997,23,23.997z M12,20.495
		l3.35-3.769c-1.06-0.152-2.185-0.229-3.351-0.229c-1.165,0-2.29,0.077-3.35,0.229L12,20.495z"/>
	<circle cx="14" cy="8.497" r="0.75"/>
	<circle cx="10" cy="8.497" r="0.75"/>
	<path d="M12,11.994c-0.648,0-1.287-0.212-1.8-0.597c-0.107-0.08-0.176-0.197-0.195-0.329c-0.019-0.132,0.015-0.264,0.095-0.371
		c0.094-0.125,0.244-0.2,0.4-0.2c0.109,0,0.213,0.035,0.3,0.1c0.341,0.256,0.767,0.397,1.2,0.397c0.432,0,0.859-0.141,1.2-0.397
		c0.086-0.065,0.19-0.1,0.299-0.1c0.157,0,0.306,0.075,0.4,0.2c0.08,0.107,0.114,0.238,0.095,0.371
		c-0.019,0.132-0.088,0.249-0.195,0.329C13.287,11.782,12.648,11.994,12,11.994z"/>
	<path d="M12,14.997c-2.73,0-5.171-1.747-6.1-4.259c-0.355,1.05-0.95,2.193-1.94,2.847l-0.233,0.148l0.214-0.13
		c0.503,0.226,1.049,0.343,1.611,0.343c0.286,0,0.574-0.031,0.856-0.092c0.034-0.008,0.07-0.011,0.107-0.011
		c0.233,0,0.438,0.166,0.488,0.395c0.028,0.131,0.004,0.264-0.069,0.376c-0.072,0.112-0.184,0.19-0.315,0.218
		c-0.351,0.076-0.71,0.114-1.065,0.114c-0.705,0-1.394-0.148-2.045-0.439c-0.187-0.096-0.325-0.223-0.423-0.384
		c-0.139-0.23-0.181-0.5-0.116-0.761c0.064-0.261,0.226-0.481,0.456-0.62C5.062,11.659,5.5,8.621,5.5,6.997H5
		c-0.276,0-0.5-0.224-0.5-0.5V5.733c0-1.57,0.872-2.981,2.276-3.683c0.069-0.035,0.146-0.053,0.223-0.053
		c0.018,0,0.036,0.001,0.054,0.003l0.237,0.024c0.44-0.464,0.937-0.856,1.479-1.167c0.985-0.565,2.1-0.864,3.222-0.864
		c0.575,0,1.151,0.077,1.712,0.229c1.59,0.432,2.94,1.438,3.811,2.839c0.349,0.091,0.665,0.277,0.915,0.534
		c0.033-0.075,0.07-0.149,0.112-0.223c0.482-0.848,1.594-1.705,2.994-1.705c0.177,0,0.356,0.014,0.533,0.041
		c0.124,0.019,0.235,0.083,0.314,0.181c0.079,0.098,0.123,0.227,0.118,0.344c-0.054,1.321-0.828,2.324-1.686,2.85
		c0.858,0.525,1.632,1.528,1.686,2.849c0.005,0.121-0.034,0.24-0.11,0.334c-0.082,0.101-0.202,0.173-0.322,0.191
		c-0.178,0.027-0.357,0.041-0.533,0.041c-1.399,0-2.512-0.856-2.993-1.703C18.527,6.77,18.513,6.745,18.5,6.72v0.278
		c0,1.624,0.44,4.663,2.09,5.753c0.213,0.128,0.376,0.352,0.439,0.609c0.064,0.261,0.023,0.531-0.116,0.761
		c-0.096,0.158-0.233,0.287-0.398,0.372c-0.671,0.302-1.364,0.453-2.072,0.453c-0.344,0-0.691-0.036-1.031-0.108
		c-0.131-0.027-0.243-0.104-0.316-0.216c-0.073-0.112-0.098-0.245-0.071-0.376c0.048-0.23,0.254-0.397,0.489-0.397
		c0.034,0,0.069,0.004,0.102,0.011c0.273,0.057,0.552,0.086,0.827,0.086c0.554,0,1.094-0.115,1.606-0.34
		c-0.997-0.671-1.595-1.818-1.951-2.87C17.172,13.25,14.731,14.997,12,14.997z M6.5,8.497c0,3.033,2.467,5.5,5.5,5.5
		s5.5-2.467,5.5-5.5V6.933c-0.163,0.043-0.33,0.064-0.5,0.064H6.5V8.497z M19.511,5.67c-0.121,0-0.189,0.03-0.212,0.058
		c-0.057,0.069-0.053,0.283,0.112,0.573c0.315,0.554,1.074,1.149,2.022,1.194c-0.223-0.92-0.938-1.548-1.558-1.757
		C19.743,5.693,19.617,5.67,19.511,5.67z M17,5.997c0.552,0,1-0.449,1-1s-0.448-1-1-1L7.1,3.01C6.111,3.56,5.5,4.597,5.5,5.733
		v0.264H17z M19.289,4.427c0.035,0.041,0.102,0.07,0.221,0.07c0.106,0,0.232-0.024,0.365-0.068c0.62-0.209,1.334-0.837,1.558-1.756
		c-0.949,0.046-1.708,0.64-2.022,1.194C19.248,4.152,19.242,4.365,19.289,4.427z M16.171,2.912
		c-1.038-1.208-2.563-1.914-4.181-1.914c-0.953,0-1.895,0.251-2.724,0.727C9.042,1.853,8.826,1.997,8.622,2.157L16.171,2.912z"/>
</g>
</svg>
