<?xml version="1.0" encoding="utf-8"?>
<!-- Generator: Adobe Illustrator 22.1.0, SVG Export Plug-In . SVG Version: 6.00 Build 0)  -->
<svg version="1.1" id="Layer_1" xmlns="http://www.w3.org/2000/svg" xmlns:xlink="http://www.w3.org/1999/xlink" x="0px" y="0px"
	 viewBox="0 0 24 24" style="enable-background:new 0 0 24 24;" xml:space="preserve">
<g>
	<title>professions-woman-bellboy</title>
	<path d="M12,11.996c-0.648,0-1.287-0.212-1.8-0.597c-0.107-0.08-0.176-0.197-0.195-0.329C9.986,10.938,10.02,10.806,10.1,10.7
		c0.094-0.125,0.244-0.2,0.4-0.2c0.109,0,0.213,0.035,0.3,0.1c0.341,0.256,0.767,0.397,1.2,0.397c0.432,0,0.859-0.141,1.2-0.397
		c0.086-0.065,0.19-0.1,0.3-0.1c0.157,0,0.306,0.075,0.4,0.2c0.08,0.107,0.114,0.238,0.095,0.371
		c-0.019,0.132-0.088,0.249-0.195,0.329C13.287,11.784,12.648,11.996,12,11.996z"/>
	<circle cx="14" cy="8.5" r="0.75"/>
	<circle cx="10" cy="8.5" r="0.75"/>
	<path d="M23,24c-0.276,0-0.5-0.224-0.5-0.5v-3.106c0.003-0.462-0.212-0.904-0.575-1.184c-1.906-1.34-4.145-2.198-6.48-2.481
		c-0.039,0.076-0.098,0.143-0.173,0.191c-0.83,0.536-1.783,0.889-2.771,1.027V23.5c0,0.276-0.224,0.5-0.5,0.5
		c-0.276,0-0.5-0.224-0.5-0.5v-5.553c-0.988-0.138-1.942-0.491-2.771-1.027c-0.075-0.049-0.134-0.115-0.173-0.191
		c-2.335,0.283-4.577,1.143-6.498,2.494c-0.349,0.27-0.561,0.709-0.558,1.167V23.5C1.5,23.775,1.276,24,1,24s-0.5-0.224-0.5-0.5
		v-3.106c-0.005-0.766,0.356-1.505,0.964-1.976c2.088-1.469,4.513-2.395,7.036-2.69v-1.753c-1.197-0.768-2.112-1.914-2.6-3.235
		c-0.355,1.051-0.95,2.193-1.94,2.847l-0.233,0.148l0.214-0.13c0.504,0.227,1.05,0.344,1.613,0.344c0.278,0,0.559-0.03,0.834-0.087
		c0.034-0.007,0.068-0.011,0.103-0.011c0.235,0,0.441,0.167,0.49,0.397c0.057,0.27-0.116,0.535-0.386,0.592
		c-0.342,0.072-0.691,0.109-1.038,0.109c-0.707,0-1.396-0.149-2.048-0.442c-0.187-0.096-0.325-0.223-0.423-0.384
		c-0.287-0.475-0.135-1.095,0.34-1.382C5.061,11.661,5.5,8.624,5.5,7V3.131C5.494,2.13,6.086,1.228,7.009,0.834
		c1.48-0.559,3.018-0.841,4.583-0.841c0.141,0,0.282,0.002,0.424,0.007c0.129-0.005,0.274-0.007,0.419-0.007
		c1.549,0,3.077,0.281,4.541,0.833c0.937,0.402,1.531,1.307,1.523,2.308V7c0,1.624,0.44,4.663,2.09,5.753
		c0.213,0.128,0.376,0.352,0.439,0.61c0.064,0.26,0.023,0.531-0.116,0.761c-0.095,0.158-0.232,0.286-0.397,0.372
		c-0.672,0.302-1.365,0.452-2.073,0.452c-0.351,0-0.704-0.038-1.051-0.112c-0.131-0.028-0.243-0.105-0.315-0.217
		c-0.073-0.112-0.097-0.246-0.069-0.376c0.049-0.229,0.254-0.396,0.488-0.396c0.036,0,0.072,0.004,0.107,0.012
		c0.277,0.059,0.562,0.089,0.843,0.089c0.553,0,1.093-0.114,1.605-0.338c-0.997-0.672-1.595-1.819-1.951-2.871
		c-0.488,1.321-1.403,2.468-2.6,3.236v1.753c2.522,0.295,4.944,1.218,7.018,2.677c0.623,0.48,0.987,1.222,0.982,1.992V23.5
		C23.5,23.775,23.276,24,23,24z M12.5,16.936c0.704-0.115,1.388-0.36,2-0.716v-1.721c-0.637,0.267-1.307,0.428-2,0.48V16.936z
		 M9.5,16.22c0.612,0.356,1.296,0.601,2,0.716v-1.957c-0.693-0.052-1.363-0.214-2-0.48V16.22z M6.5,8.5c0,3.033,2.467,5.5,5.5,5.5
		s5.5-2.467,5.5-5.5V7.24C17.046,6.92,15.443,6,12,6C8.557,6,6.954,6.92,6.5,7.24V8.5z M12,5c2.876,0,4.592,0.597,5.5,1.071V5.24
		C17.046,4.92,15.443,4,12,4C8.557,4,6.954,4.92,6.5,5.24v0.83C7.408,5.596,9.124,5,12,5z M12,3c2.876,0,4.592,0.597,5.5,1.071
		v-0.94c0.004-0.601-0.348-1.141-0.898-1.378c-1.333-0.503-2.744-0.76-4.185-0.76c-0.133,0-0.267,0.002-0.401,0.007
		c-0.151-0.004-0.285-0.007-0.419-0.007c-1.448,0-2.866,0.259-4.216,0.769C6.846,1.99,6.496,2.528,6.5,3.127V4.07
		C7.408,3.596,9.124,3,12,3z"/>
	<circle cx="14" cy="20.5" r="0.75"/>
	<circle cx="14" cy="23" r="0.75"/>
</g>
</svg>
