<?xml version="1.0" encoding="utf-8"?>
<!-- Generator: Adobe Illustrator 22.1.0, SVG Export Plug-In . SVG Version: 6.00 Build 0)  -->
<svg version="1.1" id="Layer_1" xmlns="http://www.w3.org/2000/svg" xmlns:xlink="http://www.w3.org/1999/xlink" x="0px" y="0px"
	 viewBox="0 0 24 24" style="enable-background:new 0 0 24 24;" xml:space="preserve">
<g>
	<title>professions-woman-welder</title>
	<path d="M9,11c-0.827,0-1.5-0.673-1.5-1.5v-2C7.5,6.673,8.173,6,9,6h6c0.827,0,1.5,0.673,1.5,1.5v2c0,0.827-0.673,1.5-1.5,1.5H9z
		 M9,7C8.724,7,8.5,7.224,8.5,7.5v2C8.5,9.776,8.724,10,9,10h6c0.276,0,0.5-0.224,0.5-0.5v-2C15.5,7.224,15.276,7,15,7H9z"/>
	<path d="M11,5c-0.276,0-0.5-0.224-0.5-0.5S10.724,4,11,4h2c0.276,0,0.5,0.224,0.5,0.5S13.276,5,13,5H11z"/>
	<path d="M23,24c-0.276,0-0.5-0.224-0.5-0.5v-3.106c0.003-0.462-0.212-0.904-0.575-1.184c-0.747-0.532-1.562-0.994-2.425-1.371V23.5
		c0,0.276-0.224,0.5-0.5,0.5s-0.5-0.224-0.5-0.5V20h-2.086c-0.209,0.59-0.774,1-1.414,1H9c-0.827,0-1.5-0.673-1.5-1.5v-2.58
		c-0.674,0.125-1.345,0.303-2,0.531V23.5C5.5,23.776,5.276,24,5,24s-0.5-0.224-0.5-0.5v-5.661c-0.864,0.378-1.683,0.842-2.44,1.382
		c-0.351,0.271-0.563,0.711-0.56,1.17V23.5C1.5,23.776,1.276,24,1,24s-0.5-0.224-0.5-0.5v-3.106
		c-0.005-0.766,0.356-1.506,0.964-1.976c1.432-1.022,3.066-1.788,4.769-2.24c-0.392-0.232-0.657-0.633-0.719-1.081
		c-0.146,0.016-0.29,0.024-0.431,0.024c-1.068,0-2.113-0.431-2.866-1.183c-0.089-0.081-0.172-0.199-0.226-0.326
		c-0.104-0.244-0.108-0.515-0.009-0.761c0.099-0.247,0.288-0.44,0.532-0.544C3.963,11.636,5.041,9.648,5.384,8H5
		C4.724,8,4.5,7.776,4.5,7.5S4.724,7,5,7h0.5V6.5C5.5,2.916,8.416,0,12,0c3.584,0,6.5,2.916,6.5,6.5V7H19c0.276,0,0.5,0.224,0.5,0.5
		S19.276,8,19,8h-0.384c0.344,1.648,1.424,3.637,2.883,4.312c0.234,0.1,0.421,0.292,0.519,0.539
		c0.098,0.247,0.095,0.516-0.009,0.759c-0.056,0.129-0.139,0.247-0.241,0.341c-0.741,0.74-1.782,1.169-2.85,1.169
		c-0.142,0-0.286-0.008-0.431-0.024c-0.062,0.448-0.328,0.849-0.719,1.081c1.702,0.452,3.332,1.216,4.754,2.229
		c0.621,0.479,0.984,1.221,0.979,1.99V23.5C23.5,23.776,23.276,24,23,24z M8.5,19.5C8.5,19.776,8.724,20,9,20h6
		c0.276,0,0.5-0.224,0.5-0.5v-2.474C14.35,17.341,13.175,17.5,12,17.5c-1.174,0-2.35-0.159-3.5-0.474V19.5z M18.5,19v-1.549
		c-0.655-0.228-1.326-0.406-2-0.531V19H18.5z M8.087,15.859c1.267,0.425,2.583,0.64,3.913,0.64c1.329,0,2.644-0.215,3.908-0.639
		c0.005-0.001,0.025-0.008,0.03-0.009c0.429-0.145,0.865-0.319,1.283-0.515c0.17-0.081,0.281-0.256,0.28-0.446V6.5
		C17.5,3.467,15.033,1,12,1S6.5,3.467,6.5,6.5v8.39c-0.001,0.191,0.11,0.367,0.282,0.448c0.414,0.193,0.848,0.367,1.291,0.517
		C8.078,15.856,8.083,15.858,8.087,15.859z M18.5,14.092c0.138,0.019,0.279,0.029,0.418,0.029c0.804,0,1.591-0.324,2.157-0.89
		c-1.236-0.581-2.071-1.753-2.575-2.703V14.092z M5.5,10.528c-0.504,0.949-1.339,2.118-2.579,2.692c0.567,0.573,1.357,0.9,2.163,0.9
		c0.139,0,0.279-0.01,0.416-0.029V10.528z"/>
</g>
</svg>
