<?xml version="1.0" encoding="utf-8"?>
<!-- Generator: Adobe Illustrator 22.1.0, SVG Export Plug-In . SVG Version: 6.00 Build 0)  -->
<svg version="1.1" id="Layer_1" xmlns="http://www.w3.org/2000/svg" xmlns:xlink="http://www.w3.org/1999/xlink" x="0px" y="0px"
	 viewBox="0 0 24 24" style="enable-background:new 0 0 24 24;" xml:space="preserve">
<g>
	<title>professions-woman-construction-2</title>
	<path d="M12,12.996c-0.648,0-1.287-0.212-1.8-0.597c-0.107-0.08-0.176-0.197-0.195-0.329c-0.019-0.132,0.015-0.264,0.095-0.371
		c0.094-0.125,0.244-0.2,0.4-0.2c0.109,0,0.212,0.035,0.3,0.1c0.342,0.256,0.768,0.397,1.2,0.397c0.432,0,0.859-0.141,1.2-0.397
		c0.086-0.065,0.19-0.1,0.3-0.1c0.157,0,0.306,0.075,0.4,0.2c0.08,0.107,0.114,0.238,0.095,0.371
		c-0.019,0.132-0.088,0.249-0.195,0.329C13.287,12.784,12.648,12.996,12,12.996z"/>
	<path d="M23,23.999c-0.276,0-0.5-0.224-0.5-0.5v-2.106c0.003-0.461-0.212-0.903-0.575-1.183c-0.48-0.366-1.278-0.889-2.425-1.372
		v4.661c0,0.276-0.224,0.5-0.5,0.5s-0.5-0.224-0.5-0.5v-5.038c-0.751-0.253-1.558-0.458-2.402-0.612L12.5,21.697v1.803
		c0,0.276-0.224,0.5-0.5,0.5c-0.276,0-0.5-0.224-0.5-0.5v-1.803l-3.597-3.846c-0.844,0.154-1.651,0.36-2.403,0.614v5.035
		c0,0.276-0.224,0.5-0.5,0.5s-0.5-0.224-0.5-0.5v-4.658c-1.146,0.483-1.945,1.004-2.427,1.371C1.711,20.491,1.497,20.931,1.5,21.39
		v2.109c0,0.276-0.224,0.5-0.5,0.5s-0.5-0.224-0.5-0.5v-2.106c-0.005-0.766,0.355-1.505,0.965-1.975
		c0.638-0.485,1.735-1.185,3.348-1.772c2.1-0.762,4.514-1.146,7.187-1.146c5.839,0,9.105,1.828,10.533,2.917
		c0.611,0.471,0.972,1.211,0.967,1.98v2.103C23.5,23.775,23.276,23.999,23,23.999z M12,20.767l2.899-3.099
		c-0.925-0.112-1.898-0.169-2.899-0.169c-1,0-1.973,0.057-2.898,0.169L12,20.767z"/>
	<circle cx="14" cy="9.499" r="0.75"/>
	<circle cx="10" cy="9.499" r="0.75"/>
	<path d="M12,15.999c-2.73,0-5.171-1.747-6.1-4.259c-0.355,1.05-0.95,2.193-1.94,2.847l-0.233,0.148l0.214-0.13
		c0.505,0.228,1.052,0.345,1.616,0.345c0.279,0,0.56-0.03,0.836-0.088c0.035-0.007,0.069-0.011,0.103-0.011
		c0.235,0,0.441,0.167,0.489,0.397c0.057,0.27-0.116,0.535-0.386,0.593c-0.344,0.073-0.694,0.109-1.041,0.109
		c-0.708,0-1.398-0.149-2.05-0.442c-0.187-0.096-0.325-0.223-0.422-0.384c-0.139-0.23-0.181-0.5-0.116-0.761
		c0.064-0.261,0.226-0.481,0.456-0.62C5.062,12.661,5.5,9.623,5.5,7.999h-1c-0.276,0-0.5-0.224-0.5-0.5s0.224-0.5,0.5-0.5h1.023
		c0.159-2.097,1.301-3.959,3.1-5.051c-0.12-0.401,0.033-0.846,0.383-1.091c0.866-0.564,1.855-0.86,2.868-0.86
		c0.046,0,0.092,0.001,0.139,0.002c0.034-0.001,0.082-0.002,0.129-0.002c1.002,0,1.984,0.294,2.838,0.851
		c0.359,0.251,0.515,0.695,0.396,1.1c1.8,1.092,2.942,2.954,3.101,5.051H19.5c0.276,0,0.5,0.224,0.5,0.5s-0.224,0.5-0.5,0.5h-1
		c0,1.624,0.44,4.663,2.09,5.753c0.213,0.128,0.376,0.352,0.439,0.609c0.064,0.261,0.023,0.531-0.116,0.761
		c-0.096,0.158-0.233,0.287-0.398,0.372c-0.67,0.302-1.363,0.452-2.071,0.452c-0.341,0-0.686-0.036-1.024-0.106
		c-0.131-0.027-0.243-0.104-0.316-0.215c-0.073-0.112-0.098-0.245-0.071-0.376c0.047-0.23,0.253-0.398,0.488-0.398
		c0.035,0,0.07,0.004,0.104,0.011c0.271,0.056,0.547,0.085,0.821,0.085c0.553,0,1.093-0.114,1.605-0.338
		c-0.997-0.671-1.595-1.818-1.951-2.87C17.172,14.252,14.731,15.999,12,15.999z M6.5,9.499c0,3.033,2.467,5.5,5.5,5.5
		s5.5-2.467,5.5-5.5v-1.5h-11V9.499z M17.474,6.999c-0.087-0.962-0.425-1.882-0.974-2.665v1.165c0,0.276-0.224,0.5-0.5,0.5
		s-0.5-0.224-0.5-0.5V3.258c-0.144-0.118-0.293-0.229-0.448-0.333l-1.358,4.074H17.474z M12.64,6.999l1.775-5.325
		c-0.675-0.44-1.473-0.676-2.297-0.676c-0.035,0-0.071,0-0.106,0.001l-0.117-0.001c-0.833,0-1.638,0.238-2.329,0.688l1.794,5.313
		H12.64z M10.306,6.999L8.948,2.926C8.793,3.029,8.644,3.14,8.5,3.258v2.241c0,0.276-0.224,0.5-0.5,0.5s-0.5-0.224-0.5-0.5V4.334
		C6.951,5.117,6.613,6.037,6.526,6.999H10.306z"/>
</g>
</svg>
