<?xml version="1.0" encoding="utf-8"?>
<!-- Generator: Adobe Illustrator 22.1.0, SVG Export Plug-In . SVG Version: 6.00 Build 0)  -->
<svg version="1.1" id="Layer_1" xmlns="http://www.w3.org/2000/svg" xmlns:xlink="http://www.w3.org/1999/xlink" x="0px" y="0px"
	 viewBox="0 0 24 24" style="enable-background:new 0 0 24 24;" xml:space="preserve">
<g>
	<title>professions-woman-office-2</title>
	<path d="M12,12.997c-0.648,0-1.287-0.212-1.8-0.597c-0.107-0.08-0.176-0.197-0.195-0.329C9.986,11.938,10.02,11.807,10.1,11.7
		c0.094-0.125,0.244-0.2,0.4-0.2c0.109,0,0.213,0.035,0.3,0.1c0.341,0.256,0.768,0.397,1.2,0.397c0.432,0,0.859-0.141,1.2-0.397
		c0.086-0.065,0.19-0.1,0.3-0.1c0.157,0,0.306,0.075,0.4,0.2c0.08,0.106,0.114,0.238,0.095,0.37
		c-0.019,0.132-0.088,0.249-0.195,0.329C13.287,12.785,12.648,12.997,12,12.997z"/>
	<path d="M23,24c-0.276,0-0.5-0.224-0.5-0.5v-3.106c0.003-0.461-0.212-0.903-0.575-1.183c-0.88-0.671-2.41-1.566-4.799-2.144
		l1.385,2.437c0.132,0.232,0.166,0.502,0.095,0.76s-0.238,0.472-0.47,0.604c-0.149,0.085-0.32,0.13-0.494,0.13h-4.026l-0.786,1.166
		c-0.149,0.221-0.375,0.372-0.637,0.423c-0.064,0.012-0.129,0.019-0.194,0.019c-0.199,0-0.391-0.059-0.557-0.17
		c-0.107-0.071-0.198-0.163-0.272-0.271l-0.786-1.166H6.359c-0.173,0-0.344-0.045-0.495-0.131c-0.232-0.132-0.399-0.346-0.47-0.604
		c-0.071-0.258-0.037-0.527,0.094-0.76l1.384-2.435c-2.384,0.577-3.917,1.472-4.8,2.144c-0.361,0.278-0.576,0.719-0.573,1.178V23.5
		C1.5,23.776,1.276,24,1,24s-0.5-0.224-0.5-0.5v-3.106c-0.005-0.766,0.355-1.505,0.965-1.975c1.117-0.85,3.115-1.982,6.295-2.558
		C9.091,15.621,10.514,15.5,12,15.5c5.839,0,9.105,1.828,10.533,2.917c0.611,0.471,0.972,1.211,0.967,1.98V23.5
		C23.5,23.776,23.276,24,23,24z M12,21.606l3.293-4.886C14.25,16.574,13.145,16.5,12,16.5c-1.145,0-2.25,0.074-3.292,0.221
		L12,21.606z M17.641,19.998l-1.533-2.699l-1.818,2.699H17.641z M6.359,19.998h3.352l-1.818-2.699L6.359,19.998z"/>
	<path d="M12,15c-2.73,0-5.171-1.747-6.1-4.26c-0.355,1.05-0.95,2.193-1.94,2.846l-0.233,0.149l0.214-0.13
		c0.502,0.225,1.047,0.342,1.609,0.342c0.282,0,0.566-0.03,0.845-0.09c0.033-0.007,0.07-0.011,0.106-0.011
		c0.233,0,0.438,0.167,0.487,0.396c0.028,0.131,0.003,0.265-0.07,0.377s-0.185,0.189-0.315,0.217
		c-0.346,0.074-0.7,0.112-1.051,0.112c-0.705,0-1.392-0.148-2.043-0.439c-0.187-0.096-0.325-0.223-0.423-0.384
		c-0.287-0.475-0.135-1.095,0.339-1.383C5.061,11.662,5.5,8.624,5.5,7V6.5C5.5,2.916,8.416,0,12,0c3.584,0,6.5,2.916,6.5,6.5V7
		c0,1.624,0.44,4.663,2.09,5.753c0.218,0.132,0.377,0.351,0.44,0.612s0.021,0.531-0.117,0.759c-0.096,0.159-0.234,0.287-0.398,0.372
		c-0.672,0.303-1.367,0.454-2.076,0.454c-0.345,0-0.694-0.037-1.038-0.109c-0.27-0.057-0.443-0.323-0.386-0.593
		c0.049-0.23,0.254-0.396,0.489-0.396c0.034,0,0.069,0.004,0.103,0.01c0.276,0.058,0.556,0.088,0.834,0.088
		c0.556,0,1.097-0.115,1.61-0.341c-0.998-0.671-1.595-1.818-1.951-2.87C17.172,13.252,14.731,15,12,15z M6.5,8.5
		c0,3.033,2.467,5.5,5.5,5.5s5.5-2.467,5.5-5.5V7.009c-0.178,0.004-0.369,0.008-0.572,0.008c-0.175,0-0.34-0.003-0.499-0.009
		C16.79,7.413,17,7.942,17,8.5c0,1.241-1.009,2.25-2.25,2.25c-1.056,0-1.962-0.738-2.192-1.75h-1.116
		c-0.23,1.012-1.136,1.75-2.192,1.75C8.009,10.75,7,9.741,7,8.5c0-0.558,0.21-1.087,0.57-1.492C7.414,7.014,7.253,7.017,7.085,7.017
		c-0.207,0-0.403-0.004-0.585-0.008V8.5z M14.75,7.25c-0.689,0-1.25,0.561-1.25,1.25s0.561,1.25,1.25,1.25S16,9.189,16,8.5
		S15.439,7.25,14.75,7.25z M9.25,7.25C8.561,7.25,8,7.811,8,8.5s0.561,1.25,1.25,1.25S10.5,9.189,10.5,8.5S9.939,7.25,9.25,7.25z
		 M12.558,8c0.156-0.689,0.62-1.249,1.237-1.537C13.119,6.174,12.526,5.771,12,5.242c-0.521,0.522-1.122,0.93-1.796,1.22
		C10.822,6.75,11.287,7.31,11.442,8H12.558z M6.523,6.009c0.169,0.004,0.351,0.008,0.543,0.008c1.408,0,3.197-0.209,4.549-1.836
		C11.708,4.069,11.849,4.005,12,4.005s0.292,0.064,0.385,0.176c1.352,1.627,3.143,1.836,4.552,1.836c0.191,0,0.372-0.004,0.54-0.008
		C17.228,3.18,14.87,1,12,1C9.13,1,6.771,3.18,6.523,6.009z"/>
</g>
</svg>
