<?xml version="1.0" encoding="utf-8"?>
<!-- Generator: Adobe Illustrator 22.1.0, SVG Export Plug-In . SVG Version: 6.00 Build 0)  -->
<svg version="1.1" id="Layer_1" xmlns="http://www.w3.org/2000/svg" xmlns:xlink="http://www.w3.org/1999/xlink" x="0px" y="0px"
	 viewBox="0 0 24 24" style="enable-background:new 0 0 24 24;" xml:space="preserve">
<g>
	<title>professions-woman-doctor-1</title>
	<path d="M12,5c-0.827,0-1.5-0.673-1.5-1.5S11.173,2,12,2s1.5,0.673,1.5,1.5S12.827,5,12,5z M12,3c-0.276,0-0.5,0.224-0.5,0.5
		S11.724,4,12,4c0.276,0,0.5-0.224,0.5-0.5S12.276,3,12,3z"/>
	<path d="M23,24c-0.276,0-0.5-0.224-0.5-0.5v-3.106c0.003-0.461-0.212-0.903-0.575-1.183c-1.277-0.974-4.187-2.606-9.425-2.705V23.5
		c0,0.276-0.224,0.5-0.5,0.5c-0.276,0-0.5-0.224-0.5-0.5v-6.994c-5.227,0.099-8.145,1.732-9.427,2.707
		c-0.361,0.278-0.576,0.719-0.573,1.178V23.5C1.5,23.776,1.276,24,1,24s-0.5-0.224-0.5-0.5v-3.106
		c-0.005-0.766,0.355-1.505,0.965-1.975C2.9,17.328,6.174,15.5,12,15.5c5.839,0,9.105,1.828,10.533,2.917
		c0.611,0.471,0.972,1.211,0.967,1.98V23.5C23.5,23.776,23.276,24,23,24z"/>
	<circle cx="14" cy="8.5" r="0.75"/>
	<circle cx="10" cy="8.5" r="0.75"/>
	<path d="M7,23.5c-0.276,0-0.5-0.224-0.5-0.5v-1h-1C5.224,22,5,21.776,5,21.5S5.224,21,5.5,21h1v-1c0-0.276,0.224-0.5,0.5-0.5
		s0.5,0.224,0.5,0.5v1h1C8.776,21,9,21.224,9,21.5S8.776,22,8.5,22h-1v1C7.5,23.276,7.276,23.5,7,23.5z"/>
	<circle cx="14.5" cy="19" r="0.75"/>
	<circle cx="14.5" cy="22" r="0.75"/>
	<path d="M12,7c-1.93,0-3.5-1.57-3.5-3.5S10.07,0,12,0s3.5,1.57,3.5,3.5S13.93,7,12,7z M12,1c-1.379,0-2.5,1.121-2.5,2.5
		S10.621,6,12,6c1.378,0,2.5-1.121,2.5-2.5S13.378,1,12,1z"/>
	<path d="M11.901,14.998c-0.093-0.001-0.169-0.003-0.244-0.007c-0.05-0.003-0.099-0.007-0.15-0.011c0,0-0.154-0.012-0.186-0.015
		c-0.072-0.008-0.143-0.018-0.214-0.027l-0.118-0.016c-0.075-0.012-0.15-0.026-0.225-0.04l-0.099-0.019
		c-0.08-0.017-0.159-0.036-0.238-0.055l-0.074-0.018c-0.087-0.023-0.173-0.048-0.257-0.073c0,0-0.024-0.007-0.025-0.008
		c-0.115-0.036-0.207-0.067-0.298-0.1c-1.063-0.39-2.003-1.046-2.728-1.901c-0.008-0.01-0.017-0.022-0.025-0.035
		C6.54,12.101,6.16,11.444,5.9,10.741c-0.355,1.05-0.95,2.193-1.94,2.846l-0.233,0.149l0.214-0.13
		c0.504,0.227,1.05,0.344,1.614,0.344c0.278,0,0.558-0.029,0.833-0.087c0.034-0.007,0.069-0.011,0.103-0.011
		c0.235,0,0.441,0.167,0.489,0.397c0.027,0.131,0.002,0.264-0.071,0.376c-0.073,0.112-0.185,0.189-0.316,0.216
		c-0.343,0.072-0.692,0.109-1.037,0.109c-0.707,0-1.396-0.149-2.048-0.442c-0.187-0.096-0.324-0.223-0.422-0.383
		c-0.287-0.475-0.135-1.095,0.339-1.383C5.061,11.662,5.5,8.624,5.5,7V2.565c-0.001-0.56,0.307-1.069,0.803-1.33
		C6.8,0.979,7.32,0.766,7.852,0.6C7.9,0.585,7.95,0.578,8,0.578c0.22,0,0.412,0.141,0.477,0.352
		c0.082,0.264-0.066,0.544-0.329,0.626C7.673,1.703,7.207,1.894,6.764,2.122C6.602,2.208,6.5,2.377,6.5,2.564V6H8
		c0.276,0,0.5,0.224,0.5,0.5S8.276,7,8,7H6.5v1.5c0,1.138,0.342,2.22,0.993,3.146C8.749,10.589,10.338,10.01,12,10.01
		s3.251,0.579,4.507,1.636C17.158,10.72,17.5,9.638,17.5,8.5V7H16c-0.276,0-0.5-0.224-0.5-0.5S15.724,6,16,6h1.5V2.565
		c0-0.187-0.102-0.357-0.267-0.444c-0.441-0.228-0.906-0.418-1.381-0.566c-0.263-0.082-0.411-0.363-0.329-0.626
		C15.588,0.719,15.78,0.578,16,0.578c0.05,0,0.1,0.008,0.149,0.023c0.531,0.165,1.051,0.378,1.547,0.634
		c0.498,0.262,0.805,0.772,0.804,1.331V7c0,1.624,0.44,4.663,2.09,5.753c0.218,0.132,0.377,0.351,0.44,0.612
		s0.021,0.531-0.117,0.759c-0.096,0.159-0.234,0.287-0.398,0.372c-0.672,0.302-1.365,0.453-2.074,0.453
		c-0.344,0-0.691-0.036-1.031-0.108c-0.131-0.027-0.243-0.104-0.316-0.216c-0.073-0.112-0.098-0.245-0.071-0.376
		c0.048-0.23,0.254-0.397,0.489-0.397c0.035,0,0.069,0.004,0.103,0.011c0.273,0.057,0.552,0.086,0.828,0.086
		c0.554,0,1.095-0.115,1.608-0.34c-0.997-0.671-1.595-1.818-1.951-2.87c-0.258,0.701-0.638,1.358-1.121,1.933
		c-0.008,0.012-0.016,0.025-0.024,0.034c-0.724,0.855-1.663,1.511-2.716,1.897c-0.103,0.038-0.195,0.069-0.287,0.098
		c-0.001,0-0.025,0.008-0.026,0.008c-0.108,0.033-0.192,0.057-0.278,0.079l-0.059,0.015c-0.097,0.024-0.176,0.043-0.255,0.059
		l-0.099,0.019c-0.076,0.015-0.15,0.029-0.226,0.041l-0.117,0.016c-0.085,0.011-0.149,0.02-0.214,0.027
		c-0.033,0.003-0.187,0.015-0.187,0.015c-0.05,0.004-0.1,0.009-0.15,0.011c-0.081,0.004-0.162,0.005-0.244,0.007L12.007,15
		L11.901,14.998z M8.137,12.41c0.964,0.954,2.226,1.514,3.58,1.583l0.045,0.001C11.84,13.997,11.919,14,12,14
		c0.08,0,0.16-0.003,0.239-0.006c0.002,0,0.028-0.001,0.03-0.001c1.368-0.069,2.63-0.629,3.594-1.583
		c-1.076-0.906-2.438-1.401-3.863-1.401C10.575,11.009,9.213,11.504,8.137,12.41z"/>
</g>
</svg>
