<?xml version="1.0" encoding="utf-8"?>
<!-- Generator: Adobe Illustrator 22.1.0, SVG Export Plug-In . SVG Version: 6.00 Build 0)  -->
<svg version="1.1" id="Layer_1" xmlns="http://www.w3.org/2000/svg" xmlns:xlink="http://www.w3.org/1999/xlink" x="0px" y="0px"
	 viewBox="0 0 24 24" style="enable-background:new 0 0 24 24;" xml:space="preserve">
<g>
	<title>professions-woman-chef-3</title>
	<path d="M12,14.791c-0.648,0-1.287-0.212-1.8-0.596c-0.107-0.08-0.176-0.197-0.195-0.329c-0.019-0.132,0.015-0.264,0.095-0.371
		c0.094-0.125,0.244-0.2,0.4-0.2c0.109,0,0.212,0.035,0.3,0.1c0.342,0.256,0.768,0.397,1.2,0.397c0.432,0,0.859-0.141,1.2-0.397
		c0.087-0.065,0.19-0.1,0.3-0.1c0.157,0,0.306,0.075,0.4,0.2c0.08,0.106,0.114,0.238,0.095,0.37c-0.019,0.132-0.088,0.25-0.195,0.33
		C13.287,14.579,12.648,14.791,12,14.791z"/>
	<path d="M23,24.001c-0.276,0-0.5-0.224-0.5-0.5v-1.606c0.003-0.461-0.212-0.903-0.575-1.183c-1.326-1.012-4.38-2.711-9.925-2.711
		c-0.5,0-1.004,0.015-1.5,0.044v1.211c0,0.223,0.143,0.415,0.356,0.479l3.574,1.072c0.63,0.189,1.069,0.78,1.069,1.437v1.256
		c0,0.276-0.224,0.5-0.5,0.5s-0.5-0.224-0.5-0.5v-1.256c0-0.219-0.146-0.416-0.356-0.479l-3.574-1.072
		C9.93,20.502,9.5,19.925,9.5,19.257v-1.131c-4.042,0.417-6.382,1.793-7.427,2.588c-0.361,0.278-0.576,0.719-0.573,1.177v1.61
		c0,0.276-0.224,0.5-0.5,0.5s-0.5-0.224-0.5-0.5v-1.606c-0.005-0.767,0.355-1.505,0.965-1.975C2.899,18.829,6.173,17.001,12,17.001
		c5.839,0,9.106,1.828,10.533,2.917c0.611,0.471,0.972,1.21,0.967,1.98v1.603C23.5,23.777,23.276,24.001,23,24.001z"/>
	<circle cx="14" cy="11.295" r="0.75"/>
	<circle cx="10" cy="11.295" r="0.75"/>
	<path d="M12,16.795c-2.514,0-4.663-1.69-5.304-4.049c-0.455,0.916-1.086,1.591-1.882,2.013c0.369,0.281,0.829,0.436,1.296,0.436
		c0.099,0,0.199-0.007,0.296-0.021c0.024-0.003,0.047-0.005,0.071-0.005c0.247,0,0.46,0.185,0.495,0.429
		c0.019,0.132-0.015,0.264-0.095,0.371c-0.08,0.107-0.197,0.176-0.329,0.195c-0.143,0.02-0.29,0.031-0.436,0.031
		c-0.688,0-1.364-0.229-1.906-0.646c-0.113-0.088-0.204-0.195-0.271-0.32c-0.126-0.235-0.153-0.505-0.076-0.761
		c0.077-0.256,0.25-0.466,0.485-0.592c1.772-0.939,2.089-3.391,2.143-4.402c0.001-0.022,0.005-0.041,0.008-0.057L6.398,7.534
		C5.122,6.72,4.654,5.107,5.311,3.723c0.344-0.724,0.949-1.27,1.704-1.539c0.326-0.116,0.665-0.175,1.007-0.175
		c0.259,0,0.515,0.034,0.764,0.1c0.427-0.991,1.288-1.731,2.344-2.002c0.285-0.073,0.577-0.11,0.868-0.11
		c1.402,0,2.665,0.839,3.214,2.111c0.253-0.068,0.513-0.102,0.774-0.102c1.126,0,2.146,0.628,2.663,1.639
		c0.365,0.713,0.43,1.526,0.183,2.289c-0.215,0.663-0.649,1.227-1.231,1.6l-0.097,1.884c0.003,0.015,0.007,0.035,0.008,0.057
		c0.054,1.01,0.371,3.462,2.141,4.4c0.237,0.127,0.409,0.338,0.487,0.593c0.077,0.255,0.051,0.526-0.075,0.761
		c-0.067,0.125-0.157,0.232-0.27,0.319c-0.542,0.417-1.218,0.646-1.904,0.646c-0.157,0-0.314-0.012-0.468-0.036
		c-0.273-0.042-0.46-0.298-0.418-0.57c0.038-0.246,0.245-0.424,0.492-0.424c0.026,0,0.052,0.002,0.079,0.006
		c0.104,0.016,0.21,0.024,0.316,0.024c0.466,0,0.925-0.156,1.292-0.438c-0.795-0.42-1.426-1.095-1.881-2.01
		C16.663,15.104,14.514,16.795,12,16.795z M7.5,11.295c0,2.481,2.019,4.5,4.5,4.5c2.481,0,4.5-2.019,4.5-4.5v-1.245
		c-1.507,0.139-3.019,0.21-4.5,0.21c-1.481,0-2.994-0.071-4.5-0.21V11.295z M7.477,9.046C8.973,9.188,10.494,9.259,12,9.259
		c1.506,0,3.027-0.072,4.523-0.214l0.094-1.835c0.009-0.178,0.114-0.339,0.272-0.42c0.476-0.243,0.828-0.657,0.993-1.165
		c0.164-0.508,0.121-1.05-0.122-1.526c-0.344-0.674-1.024-1.093-1.774-1.093c-0.299,0-0.59,0.066-0.865,0.197
		c-0.067,0.032-0.141,0.048-0.215,0.048c-0.073,0-0.146-0.016-0.212-0.047c-0.136-0.064-0.235-0.183-0.272-0.328
		c-0.284-1.107-1.28-1.88-2.422-1.88c-0.208,0-0.417,0.026-0.62,0.079c-0.884,0.227-1.574,0.917-1.801,1.801
		C9.541,3.022,9.442,3.142,9.306,3.206C9.24,3.237,9.167,3.253,9.094,3.253c-0.074,0-0.148-0.017-0.214-0.048
		C8.607,3.075,8.319,3.01,8.023,3.01c-0.228,0-0.454,0.039-0.672,0.117C6.847,3.305,6.444,3.67,6.215,4.152
		C5.747,5.136,6.141,6.296,7.111,6.791c0.159,0.081,0.263,0.242,0.272,0.42L7.477,9.046z"/>
</g>
</svg>
