<?xml version="1.0" encoding="utf-8"?>
<!-- Generator: Adobe Illustrator 22.1.0, SVG Export Plug-In . SVG Version: 6.00 Build 0)  -->
<svg version="1.1" id="Layer_1" xmlns="http://www.w3.org/2000/svg" xmlns:xlink="http://www.w3.org/1999/xlink" x="0px" y="0px"
	 viewBox="0 0 24 24" style="enable-background:new 0 0 24 24;" xml:space="preserve">
<g>
	<title>professions-woman-construction-1</title>
	<path d="M12,12.997c-0.648,0-1.287-0.212-1.8-0.597c-0.107-0.08-0.176-0.197-0.195-0.329C9.986,11.938,10.02,11.807,10.1,11.7
		c0.094-0.125,0.244-0.2,0.4-0.2c0.109,0,0.213,0.035,0.3,0.1c0.341,0.256,0.768,0.397,1.2,0.397c0.432,0,0.859-0.141,1.2-0.397
		c0.086-0.065,0.19-0.1,0.3-0.1c0.157,0,0.306,0.075,0.4,0.2c0.08,0.106,0.114,0.238,0.095,0.37
		c-0.019,0.132-0.088,0.249-0.195,0.329C13.287,12.785,12.648,12.997,12,12.997z"/>
	<path d="M23,24c-0.276,0-0.5-0.224-0.5-0.5v-2.106c0.003-0.461-0.212-0.903-0.575-1.183c-0.48-0.366-1.278-0.889-2.425-1.372V23.5
		c0,0.276-0.224,0.5-0.5,0.5s-0.5-0.224-0.5-0.5v-5.038c-0.323-0.109-0.658-0.209-1-0.3V23.5c0,0.276-0.224,0.5-0.5,0.5H7
		c-0.276,0-0.5-0.224-0.5-0.5v-5.336c-0.341,0.091-0.676,0.192-1,0.301V23.5C5.5,23.776,5.276,24,5,24s-0.5-0.224-0.5-0.5v-4.658
		c-1.146,0.483-1.945,1.004-2.427,1.371c-0.361,0.278-0.576,0.719-0.573,1.178V23.5C1.5,23.776,1.276,24,1,24s-0.5-0.224-0.5-0.5
		v-2.106c-0.005-0.766,0.355-1.505,0.965-1.975c0.638-0.485,1.735-1.185,3.348-1.772C6.914,16.884,9.327,16.5,12,16.5
		c5.839,0,9.105,1.828,10.533,2.917c0.611,0.471,0.972,1.211,0.967,1.98V23.5C23.5,23.776,23.276,24,23,24z M16.5,23v-1h-9v1H16.5z
		 M16.5,21v-3.072c-1.24-0.254-2.583-0.396-4-0.422V21H16.5z M11.5,21v-3.494c-1.417,0.027-2.76,0.169-4,0.424V21H11.5z"/>
	<circle cx="14" cy="9.5" r="0.75"/>
	<circle cx="10" cy="9.5" r="0.75"/>
	<path d="M12,6c-0.276,0-0.5-0.224-0.5-0.5v-2C11.5,3.224,11.724,3,12,3c0.276,0,0.5,0.224,0.5,0.5v2C12.5,5.776,12.276,6,12,6z"/>
	<path d="M12,16c-2.73,0-5.171-1.747-6.1-4.26c-0.358,1.06-0.961,2.212-1.965,2.863c0.506,0.228,1.055,0.346,1.622,0.346
		c0.282,0,0.567-0.03,0.846-0.09c0.033-0.007,0.07-0.011,0.106-0.011c0.233,0,0.438,0.167,0.487,0.396
		c0.028,0.131,0.003,0.264-0.07,0.377c-0.073,0.112-0.185,0.189-0.315,0.217C6.264,15.912,5.91,15.95,5.558,15.95
		c-0.71,0-1.402-0.15-2.057-0.445c-0.176-0.089-0.309-0.208-0.406-0.358c-0.145-0.224-0.194-0.492-0.138-0.753
		c0.056-0.261,0.21-0.485,0.434-0.63C5.059,12.683,5.5,9.521,5.5,8h-1C4.224,8,4,7.776,4,7.5S4.224,7,4.5,7h1.024
		c0.192-2.568,1.844-4.741,4.275-5.613l0.043-0.202C9.99,0.499,10.606,0.001,11.307,0h1.384c0.702,0.001,1.319,0.499,1.466,1.185
		l0.043,0.202C16.633,2.259,18.284,4.432,18.476,7H19.5C19.776,7,20,7.224,20,7.5S19.776,8,19.5,8h-1
		c0,1.521,0.441,4.683,2.109,5.765c0.224,0.145,0.378,0.368,0.434,0.629c0.056,0.261,0.007,0.529-0.138,0.753
		c-0.095,0.147-0.228,0.267-0.384,0.347c-0.672,0.304-1.368,0.455-2.079,0.455c-0.349,0-0.701-0.037-1.047-0.111
		c-0.27-0.058-0.442-0.323-0.385-0.593c0.049-0.23,0.255-0.396,0.49-0.396c0.035,0,0.069,0.004,0.103,0.011
		c0.278,0.059,0.561,0.089,0.841,0.089c0.557,0,1.101-0.115,1.617-0.344c-1.001-0.654-1.603-1.806-1.96-2.865
		C17.171,14.253,14.73,16,12,16z M6.5,9.5c0,3.033,2.467,5.5,5.5,5.5s5.5-2.467,5.5-5.5V8h-11V9.5z M17.473,7
		c-0.171-1.903-1.319-3.578-3.017-4.422L15.404,7H17.473z M14.382,7L13.18,1.395C13.131,1.166,12.926,1,12.691,1h-1.383
		c-0.234,0-0.439,0.166-0.488,0.395L9.619,7H14.382z M8.596,7l0.948-4.422C7.846,3.422,6.698,5.097,6.527,7H8.596z"/>
</g>
</svg>
