<?xml version="1.0" encoding="utf-8"?>
<!-- Generator: Adobe Illustrator 22.1.0, SVG Export Plug-In . SVG Version: 6.00 Build 0)  -->
<svg version="1.1" id="Layer_1" xmlns="http://www.w3.org/2000/svg" xmlns:xlink="http://www.w3.org/1999/xlink" x="0px" y="0px"
	 viewBox="0 0 24 24" style="enable-background:new 0 0 24 24;" xml:space="preserve">
<g>
	<title>punishment-torture</title>
	<path d="M12,24C5.383,24,0,18.617,0,12C0,5.383,5.383,0,12,0c6.617,0,12,5.383,12,12C24,18.617,18.617,24,12,24z M12,1
		C5.935,1,1,5.935,1,12s4.935,11,11,11s11-4.935,11-11S18.065,1,12,1z"/>
	<path d="M12,8.5c-1.379,0-2.5-1.121-2.5-2.5s1.121-2.5,2.5-2.5c1.378,0,2.5,1.121,2.5,2.5S13.378,8.5,12,8.5z M12,4.5
		c-0.827,0-1.5,0.673-1.5,1.5s0.673,1.5,1.5,1.5s1.5-0.673,1.5-1.5S12.827,4.5,12,4.5z"/>
	<path d="M7.949,20.968c-0.339,0-0.67-0.098-0.959-0.284c-0.399-0.257-0.674-0.653-0.775-1.117s-0.015-0.939,0.242-1.338
		l0.265-0.456l-0.514-0.367c-0.108-0.077-0.18-0.192-0.203-0.324s0.009-0.264,0.086-0.373C6.187,16.578,6.339,16.5,6.5,16.5
		c0.105,0,0.205,0.032,0.291,0.093l0.438,0.313L9,13.865v-1.159L5.765,9.442L5.354,9.854C5.259,9.948,5.134,10,5,10
		S4.741,9.948,4.646,9.854c-0.195-0.195-0.195-0.512,0-0.707l0.415-0.415l-0.574-0.58C4.198,7.879,4.03,7.5,4.02,7.09
		c-0.01-0.409,0.139-0.798,0.42-1.095c0.282-0.297,0.662-0.467,1.072-0.478l0.039,0c0.396,0,0.771,0.149,1.057,0.42
		C6.769,6.099,6.981,6.304,7.243,6.55l0.404-0.404C7.741,6.052,7.866,6,8,6s0.259,0.052,0.354,0.146S8.5,6.366,8.5,6.5
		S8.448,6.759,8.354,6.854L7.977,7.23c0.49,0.449,1.054,0.958,1.681,1.516c0.645,0.578,1.475,0.896,2.337,0.896
		c0.862,0,1.692-0.318,2.336-0.895c0.663-0.595,1.225-1.103,1.686-1.524l-0.37-0.37c-0.195-0.195-0.195-0.512,0-0.707
		C15.741,6.052,15.866,6,16,6s0.259,0.052,0.354,0.146l0.4,0.4c0.287-0.267,0.499-0.468,0.63-0.6c0.293-0.279,0.671-0.43,1.068-0.43
		l0.036,0c0.411,0.011,0.791,0.181,1.073,0.478c0.58,0.612,0.555,1.582-0.055,2.164l-0.567,0.572l0.415,0.415
		C19.448,9.241,19.5,9.366,19.5,9.5s-0.052,0.259-0.146,0.354S19.134,10,19,10s-0.259-0.052-0.354-0.146l-0.412-0.412L15,12.706
		v1.138l2.008,2.894l0.202-0.144c0.085-0.061,0.185-0.093,0.29-0.093c0.161,0,0.313,0.078,0.407,0.209
		c0.078,0.109,0.108,0.241,0.086,0.373s-0.094,0.247-0.203,0.325l-0.213,0.152l0.455,0.656c0.528,0.821,0.318,1.887-0.472,2.435
		c-0.299,0.207-0.647,0.317-1.008,0.317c-0.107,0-0.215-0.01-0.321-0.029c-0.466-0.084-0.872-0.346-1.143-0.736l-0.412-0.571
		l-0.386,0.276C14.206,19.968,14.105,20,14,20c-0.161,0-0.313-0.078-0.407-0.209c-0.078-0.108-0.108-0.241-0.086-0.373
		s0.094-0.247,0.203-0.325l0.381-0.272L12.414,16.5c-0.038-0.054-0.078-0.094-0.126-0.128c-0.085-0.06-0.185-0.091-0.287-0.091
		c-0.029,0-0.059,0.002-0.088,0.008c-0.131,0.023-0.245,0.096-0.322,0.206l-1.459,2.485l0.16,0.114
		c0.109,0.077,0.181,0.192,0.203,0.324s-0.009,0.264-0.086,0.373C10.313,19.922,10.161,20,10,20c-0.105,0-0.205-0.032-0.291-0.094
		l-0.087-0.062L9.431,20.17C9.083,20.675,8.532,20.968,7.949,20.968z M7.31,18.752c-0.123,0.192-0.162,0.397-0.117,0.603
		c0.044,0.203,0.164,0.376,0.339,0.488c0.127,0.082,0.272,0.125,0.421,0.125c0.253,0,0.491-0.125,0.637-0.335l0.217-0.37
		L7.54,18.357L7.31,18.752z M15.905,19.624c0.149,0.216,0.39,0.342,0.646,0.342c0.158,0,0.31-0.048,0.44-0.138
		c0.345-0.239,0.438-0.704,0.211-1.057l-0.438-0.63l-1.274,0.91L15.905,19.624z M9.315,18.396l1.435-2.442
		c0.25-0.36,0.589-0.58,0.99-0.65c0.087-0.015,0.175-0.023,0.263-0.023c0.307,0,0.604,0.094,0.858,0.272
		c0.143,0.1,0.267,0.223,0.368,0.367l1.676,2.32l1.289-0.921l-2.105-3.033C14.031,14.201,14,14.102,14,14v-1.5
		c0-0.133,0.052-0.257,0.145-0.352l3.383-3.413l-0.803-0.803c-0.47,0.429-1.045,0.949-1.726,1.561
		c-0.828,0.742-1.895,1.151-3.003,1.151s-2.175-0.409-3.003-1.151C8.537,9.088,7.886,8.505,7.269,7.938L6.472,8.735l3.383,3.413
		C9.949,12.242,10,12.367,10,12.5V14c0,0.088-0.023,0.175-0.068,0.251L8.046,17.49L9.315,18.396z M5.54,6.517
		C5.396,6.521,5.263,6.58,5.166,6.683C5.068,6.786,5.016,6.922,5.02,7.064c0.004,0.143,0.063,0.275,0.166,0.373l0.582,0.588
		l0.767-0.767C6.28,7.017,6.07,6.814,5.909,6.653C5.818,6.567,5.689,6.517,5.553,6.517v-0.25L5.54,6.517z M18.232,8.025l0.571-0.577
		c0.225-0.213,0.234-0.551,0.031-0.765c-0.098-0.103-0.23-0.162-0.373-0.166l-0.017-0.25v0.25c-0.139,0-0.261,0.049-0.364,0.146
		c-0.129,0.129-0.338,0.329-0.62,0.591L18.232,8.025z"/>
</g>
</svg>
