<?xml version="1.0" encoding="utf-8"?>
<!-- Generator: Adobe Illustrator 22.1.0, SVG Export Plug-In . SVG Version: 6.00 Build 0)  -->
<svg version="1.1" id="Light" xmlns="http://www.w3.org/2000/svg" xmlns:xlink="http://www.w3.org/1999/xlink" x="0px" y="0px"
	 viewBox="0 0 24 24" style="enable-background:new 0 0 24 24;" xml:space="preserve">
<g>
	<title>safety-exit-door</title>
	<path d="M8,8.501c-1.654,0-3-1.346-3-3s1.346-3,3-3s3,1.346,3,3S9.654,8.501,8,8.501z M8,3.501c-1.103,0-2,0.897-2,2s0.897,2,2,2
		s2-0.897,2-2S9.103,3.501,8,3.501z"/>
	<path d="M20,24c-0.552,0-1-0.448-1-1v-1.5c0-0.276,0.224-0.5,0.5-0.5s0.5,0.224,0.5,0.5V23h3.5c0.276,0,0.5,0.224,0.5,0.5
		S23.776,24,23.5,24H20z"/>
	<path d="M0.5,24C0.224,24,0,23.776,0,23.5S0.224,23,0.5,23H3V1.5C3,0.673,3.673,0,4.5,0h14C19.327,0,20,0.673,20,1.5v13
		c0,0.276-0.224,0.5-0.5,0.5S19,14.776,19,14.5v-13C19,1.224,18.776,1,18.5,1h-14C4.224,1,4,1.224,4,1.5V10h2.3
		c0.233,0,0.461-0.04,0.68-0.118l2.612-1.129c0.781-0.36,1.62-0.543,2.49-0.543c1.261,0,2.468,0.387,3.489,1.118l1.534,1.1
		c0.819,0.557,1.118,1.626,0.705,2.538c-0.054,0.111-0.111,0.207-0.176,0.298c-0.374,0.524-0.983,0.836-1.63,0.836
		c-0.418,0-0.82-0.129-1.16-0.372l-1.6-1.142c-0.112-0.077-0.232-0.144-0.36-0.197l1.741,3.488c0.085,0.17,0.256,0.276,0.444,0.276
		c0.016,0,0.032-0.001,0.048-0.002l2.7-0.246c0.062-0.005,0.123-0.008,0.183-0.008c0.466,0,0.92,0.164,1.279,0.463
		c0.411,0.342,0.663,0.824,0.712,1.355c0.049,0.532-0.113,1.051-0.455,1.462s-0.823,0.663-1.355,0.712l-3.041,0.276
		c-0.106,0.015-0.223,0.017-0.322,0.017l-0.057,0c-1.472,0-2.798-0.794-3.494-2.082l-1.14,0.57l0.264,2.626
		c0.053,0.537-0.104,1.057-0.443,1.47c-0.339,0.414-0.818,0.671-1.349,0.723c-0.04,0.006-0.1,0.01-0.158,0.01
		c-0.019,0-0.056-0.001-0.056-0.001c-1.017,0-1.871-0.772-1.976-1.796l-0.262-2.629c-0.164-1.641,0.716-3.239,2.191-3.976
		l1.139-0.569l-0.565-1.13L8.446,13.6C7.748,13.865,7.03,13.998,6.302,14H4v9c0,0.552-0.449,1-1,1H0.5z M9.148,12.253
		c0.19,0,0.362,0.106,0.447,0.277l1,2c0.06,0.119,0.069,0.255,0.027,0.382s-0.131,0.229-0.251,0.289l-1.586,0.793
		c-1.106,0.553-1.766,1.751-1.643,2.982l0.262,2.628c0.052,0.511,0.48,0.897,0.995,0.897c0.01,0,0.02,0,0.03,0.002
		C8.444,22.5,8.464,22.5,8.483,22.498c0.561-0.056,0.967-0.546,0.915-1.093l-0.266-2.631c-0.043-0.411,0.177-0.812,0.548-0.998
		l1.585-0.793c0.069-0.034,0.146-0.053,0.223-0.053c0.191,0,0.362,0.106,0.447,0.276l0.159,0.317
		c0.506,1.024,1.529,1.659,2.668,1.659l0.077-0.001c0.065-0.001,0.127-0.001,0.186-0.009l3.064-0.279
		c0.266-0.024,0.507-0.151,0.678-0.356c0.171-0.205,0.252-0.465,0.228-0.731c-0.024-0.266-0.15-0.507-0.355-0.678
		c-0.18-0.15-0.405-0.232-0.635-0.232c-0.031,0-0.063,0.002-0.094,0.005l-2.701,0.246c-0.046,0.004-0.091,0.006-0.135,0.006
		c-0.573,0-1.087-0.318-1.343-0.829l-2.179-4.364c-0.076-0.152-0.07-0.33,0.016-0.477c0.086-0.146,0.239-0.239,0.408-0.246
		c0.045-0.002,0.09-0.003,0.135-0.003c0.606,0,1.213,0.19,1.709,0.535l1.605,1.146c0.17,0.122,0.371,0.186,0.58,0.186
		c0.324,0,0.628-0.156,0.815-0.418c0.033-0.046,0.061-0.094,0.084-0.142c0.208-0.458,0.052-1.005-0.372-1.293l-1.544-1.107
		c-0.85-0.609-1.855-0.93-2.905-0.93c-0.726,0-1.427,0.154-2.084,0.456l-2.652,1.145c-0.352,0.128-0.679,0.19-0.985,0.19L6.292,11
		L4,11v2h2.3c0.607-0.002,1.203-0.112,1.771-0.327l0.879-0.379C9.012,12.267,9.079,12.253,9.148,12.253z"/>
</g>
</svg>
