<?xml version="1.0" encoding="utf-8"?>
<!-- Generator: Adobe Illustrator 22.1.0, SVG Export Plug-In . SVG Version: 6.00 Build 0)  -->
<svg version="1.1" id="Light" xmlns="http://www.w3.org/2000/svg" xmlns:xlink="http://www.w3.org/1999/xlink" x="0px" y="0px"
	 viewBox="0 0 24 24" style="enable-background:new 0 0 24 24;" xml:space="preserve">
<g>
	<title>safety-warning-electricity</title>
	<path d="M11,20.5c-0.061,0-0.121-0.013-0.181-0.036c-0.014-0.004-0.027-0.009-0.039-0.015c-0.012-0.006-0.025-0.013-0.036-0.022
		c-0.046-0.028-0.084-0.059-0.117-0.096c-0.009-0.01-0.023-0.029-0.03-0.041c-0.014-0.017-0.03-0.04-0.043-0.066l-1-2
		c-0.123-0.247-0.023-0.548,0.224-0.671C9.846,17.518,9.923,17.5,10,17.5c0.191,0,0.362,0.106,0.447,0.276L11,18.881l2.106-4.212
		c0.013-0.025,0.026-0.047,0.041-0.067c0.011-0.016,0.016-0.035,0.013-0.052c-0.003-0.019-0.013-0.034-0.028-0.045
		c-0.012-0.009-0.025-0.013-0.039-0.013C13.054,14.498,13.027,14.5,13,14.5h-2.47c-0.037,0.004-0.075,0.006-0.113,0.006
		c-0.213,0-0.418-0.061-0.595-0.176c-0.245-0.158-0.413-0.403-0.474-0.688c-0.058-0.271-0.012-0.55,0.13-0.787l2.568-5.564
		c0.082-0.177,0.26-0.291,0.454-0.291c0.073,0,0.144,0.016,0.21,0.046c0.121,0.056,0.213,0.156,0.259,0.281
		c0.046,0.125,0.041,0.261-0.015,0.382l-2.581,5.592c-0.009,0.021-0.021,0.042-0.034,0.062c-0.014,0.021-0.018,0.045-0.013,0.07
		c0.005,0.024,0.019,0.044,0.04,0.058c0.015,0.01,0.032,0.015,0.049,0.015c0.037-0.004,0.061-0.006,0.085-0.006h2.466
		c0.043-0.005,0.086-0.008,0.128-0.008c0.223,0,0.438,0.07,0.622,0.202c0.231,0.167,0.385,0.414,0.43,0.696
		c0.043,0.266-0.014,0.534-0.162,0.758l-1.95,3.899l1.279-0.512c0.058-0.024,0.121-0.036,0.185-0.036
		c0.206,0,0.388,0.124,0.465,0.315c0.05,0.124,0.048,0.26-0.005,0.382s-0.15,0.218-0.274,0.267l-2.5,1
		c-0.012,0.005-0.025,0.009-0.039,0.012c-0.045,0.014-0.089,0.022-0.132,0.023C11.011,20.499,11.006,20.5,11,20.5L11,20.5z"/>
	<path d="M0.9,23.5c-0.146,0-0.292-0.036-0.421-0.104c-0.439-0.232-0.607-0.778-0.375-1.216L11.191,0.99
		c0.087-0.166,0.22-0.299,0.386-0.386c0.13-0.068,0.276-0.104,0.422-0.104c0.093,0,0.185,0.014,0.274,0.042
		c0.232,0.073,0.423,0.232,0.536,0.448l11.088,21.192C23.965,22.309,24,22.454,24,22.599c0,0.496-0.404,0.9-0.9,0.9H0.9z
		 M22.935,22.5L12,1.601L1.065,22.5H22.935z"/>
</g>
</svg>
