<?xml version="1.0" encoding="utf-8"?>
<!-- Generator: Adobe Illustrator 22.1.0, SVG Export Plug-In . SVG Version: 6.00 Build 0)  -->
<svg version="1.1" id="Light" xmlns="http://www.w3.org/2000/svg" xmlns:xlink="http://www.w3.org/1999/xlink" x="0px" y="0px"
	 viewBox="0 0 24 24" style="enable-background:new 0 0 24 24;" xml:space="preserve">
<g>
	<title>safety-call-firefighters-2</title>
	<path d="M12,24c-4.411,0-8-3.589-8-8c0-4.411,3.589-8,8-8c4.411,0,8,3.589,8,8C20,20.411,16.411,24,12,24z M12,9
		c-3.86,0-7,3.14-7,7s3.14,7,7,7s7-3.14,7-7S15.86,9,12,9z"/>
	<path d="M11.999,21c-1.993,0-3.615-1.622-3.615-3.615c0-0.019,0.001-0.038,0.003-0.057c0.08-0.705,0.325-1.394,0.709-1.992
		c0.057-0.101,0.15-0.205,0.262-0.287c0.173-0.127,0.378-0.195,0.593-0.195c0.317,0,0.618,0.152,0.806,0.406
		c0.024,0.033,0.047,0.064,0.069,0.094c0.262-0.87,0.25-1.802-0.04-2.668c-0.075-0.291-0.039-0.558,0.099-0.791
		c0.18-0.302,0.51-0.49,0.862-0.49c0.179,0,0.354,0.048,0.509,0.139c2.051,1.254,3.304,3.432,3.359,5.828
		C15.614,19.376,13.992,21,11.999,21z M9.384,17.413C9.399,18.841,10.569,20,11.999,20c1.442,0,2.615-1.173,2.615-2.615
		c-0.047-2.045-1.121-3.909-2.873-4.982c0.458,1.354,0.336,2.882-0.337,4.175c-0.075,0.145-0.217,0.244-0.379,0.265
		c-0.02,0.003-0.043,0.004-0.066,0.004c-0.139,0-0.274-0.059-0.368-0.163c-0.106-0.116-0.315-0.388-0.639-0.83
		C9.644,16.334,9.451,16.869,9.384,17.413z"/>
	<path d="M3.5,9.5C3.224,9.5,3,9.276,3,9c0-3.308,2.692-6,6-6c0.276,0,0.5,0.224,0.5,0.5S9.276,4,9,4C6.243,4,4,6.243,4,9
		C4,9.276,3.776,9.5,3.5,9.5z"/>
	<path d="M0.5,9.5C0.224,9.5,0,9.276,0,9c0-4.963,4.037-9,9-9c0.276,0,0.5,0.224,0.5,0.5S9.276,1,9,1C4.589,1,1,4.589,1,9
		C1,9.276,0.776,9.5,0.5,9.5z"/>
	<path d="M20.5,9.5C20.224,9.5,20,9.276,20,9c0-2.757-2.243-5-5-5c-0.276,0-0.5-0.224-0.5-0.5S14.724,3,15,3c3.308,0,6,2.692,6,6
		C21,9.276,20.776,9.5,20.5,9.5z"/>
	<path d="M23.5,9.5C23.224,9.5,23,9.276,23,9c0-4.411-3.589-8-8-8c-0.276,0-0.5-0.224-0.5-0.5S14.724,0,15,0c4.963,0,9,4.037,9,9
		C24,9.276,23.776,9.5,23.5,9.5z"/>
</g>
</svg>
