<?xml version="1.0" encoding="utf-8"?>
<!-- Generator: Adobe Illustrator 22.1.0, SVG Export Plug-In . SVG Version: 6.00 Build 0)  -->
<svg version="1.1" id="Light" xmlns="http://www.w3.org/2000/svg" xmlns:xlink="http://www.w3.org/1999/xlink" x="0px" y="0px"
	 viewBox="0 0 24 24" style="enable-background:new 0 0 24 24;" xml:space="preserve">
<g>
	<title>safety-fire-exit-stairs</title>
	<path d="M20.25,10c-1.93,0-3.5-1.57-3.5-3.5c-0.02-1.271,0.719-2.432,1.884-2.956c0.098-0.044,0.201-0.066,0.308-0.066
		c0.106,0,0.209,0.022,0.305,0.065c0.177,0.069,0.333,0.229,0.407,0.424c0.01,0.025,0.022,0.049,0.034,0.074
		c0.118-0.628,0.001-1.287-0.34-1.837c-0.138-0.211-0.156-0.482-0.044-0.719c0.085-0.181,0.236-0.318,0.424-0.385
		c0.082-0.029,0.167-0.044,0.253-0.044c0.111,0,0.218,0.024,0.319,0.072c2.065,0.976,3.419,3.082,3.448,5.365
		C23.75,8.428,22.18,10,20.25,10z M18.841,4.577c-0.682,0.385-1.104,1.113-1.091,1.915C17.75,7.877,18.872,9,20.25,9
		s2.5-1.121,2.5-2.5c-0.021-1.641-0.866-3.174-2.207-4.085c0.31,0.92,0.238,1.945-0.226,2.819c-0.067,0.127-0.186,0.219-0.325,0.252
		C19.954,5.495,19.915,5.5,19.876,5.5c-0.104,0-0.204-0.032-0.288-0.092C19.278,5.19,19.023,4.906,18.841,4.577z"/>
	<path d="M6.25,24c-0.276,0-0.5-0.224-0.5-0.5S5.974,23,6.25,23h4.5v-2c0-0.552,0.449-1,1-1h4v-3c0-0.552,0.448-1,1-1h4v-3
		c0-0.552,0.448-1,1-1h1.5c0.276,0,0.5,0.224,0.5,0.5c0,0.276-0.224,0.5-0.5,0.5h-1.5v3.5c0,0.276-0.224,0.5-0.5,0.5h-4.5v3.5
		c0,0.276-0.224,0.5-0.5,0.5h-4.5v2.5c0,0.276-0.224,0.5-0.5,0.5H6.25z"/>
	<path d="M5.25,6c-1.654,0-3-1.346-3-3s1.346-3,3-3s3,1.346,3,3S6.904,6,5.25,6z M5.25,1c-1.103,0-2,0.897-2,2s0.897,2,2,2
		s2-0.897,2-2S6.353,1,5.25,1z"/>
	<path d="M7.75,22c-1.103,0-2-0.897-2-2v-2.76c0.004-0.953,0.347-1.875,0.968-2.596l0.591-0.674c0.618-0.704,0.759-1.672,0.39-2.502
		C6.571,12.747,4.917,13.5,3.202,13.5H2.25c-1.103,0-2-0.897-2-2s0.897-2,2-2h0.941c0.645,0,1.253-0.313,1.628-0.838l0.406-0.568
		C6.161,6.783,7.682,6,9.294,6h0.763c2.434,0,4.591,1.44,5.516,3.669c0.381,0.876,0.108,1.889-0.665,2.462
		c-0.134,0.094-0.272,0.169-0.416,0.227c-0.237,0.095-0.486,0.143-0.74,0.143c-0.825,0-1.555-0.494-1.86-1.258
		c-0.217-0.546-0.661-0.962-1.219-1.143c-0.127-0.041-0.23-0.129-0.291-0.248s-0.072-0.255-0.03-0.382
		c0.067-0.207,0.258-0.346,0.476-0.346c0.052,0,0.105,0.008,0.155,0.025c0.842,0.273,1.512,0.901,1.839,1.724
		c0.152,0.382,0.517,0.628,0.93,0.628c0.126,0,0.251-0.024,0.369-0.071c0.072-0.029,0.14-0.066,0.203-0.11
		c0.388-0.288,0.526-0.807,0.329-1.259C13.88,8.2,12.085,7,10.078,7H9.294C8.005,7,6.788,7.626,6.039,8.676L5.633,9.244
		C5.071,10.03,4.159,10.5,3.192,10.5H2.25c-0.551,0-1,0.449-1,1s0.449,1,1,1H3.2c1.611,0,3.129-0.781,4.064-2.091l0.079-0.107
		c0.092-0.125,0.234-0.198,0.389-0.202c0.001,0,0.002,0,0.003,0c0.163,0,0.302,0.068,0.395,0.182c1.05,1.277,1.02,3.105-0.07,4.348
		L7.473,15.3c-0.463,0.538-0.72,1.229-0.723,1.942V20c0,0.552,0.449,1,1,1s1-0.448,1-1v-2.76c-0.001-0.226,0.077-0.448,0.22-0.626
		l0.134-0.153c0.095-0.108,0.232-0.169,0.375-0.169c0.063,0,0.124,0.012,0.183,0.035l2.271,0.892c0.169,0.083,0.326,0.12,0.488,0.12
		c0.383,0,0.726-0.211,0.895-0.55c0.241-0.482,0.052-1.074-0.421-1.328l-1.533-0.528c-0.158-0.054-0.278-0.183-0.321-0.345
		c-0.043-0.161-0.003-0.332,0.107-0.458l0.852-0.97c0.096-0.108,0.232-0.17,0.376-0.17c0.121,0,0.239,0.044,0.33,0.124
		c0.101,0.088,0.161,0.21,0.169,0.344s-0.035,0.262-0.124,0.362l-0.36,0.41l0.863,0.297c0.022,0.008,0.042,0.016,0.061,0.025
		c0.478,0.239,0.834,0.65,1.003,1.156s0.13,1.049-0.109,1.527c-0.341,0.682-1.028,1.106-1.792,1.106
		c-0.312,0-0.612-0.071-0.892-0.211l-1.785-0.699L9.75,20C9.75,21.103,8.853,22,7.75,22z"/>
</g>
</svg>
