<?xml version="1.0" encoding="utf-8"?>
<!-- Generator: Adobe Illustrator 22.1.0, SVG Export Plug-In . SVG Version: 6.00 Build 0)  -->
<svg version="1.1" id="Light" xmlns="http://www.w3.org/2000/svg" xmlns:xlink="http://www.w3.org/1999/xlink" x="0px" y="0px"
	 viewBox="0 0 24 24" style="enable-background:new 0 0 24 24;" xml:space="preserve">
<g>
	<title>safety-rocky-road</title>
	<path d="M14.251,24c-0.134,0-0.26-0.052-0.354-0.147c-0.194-0.195-0.194-0.512,0.001-0.707l1.649-1.646
		c0.188-0.188,0.439-0.292,0.707-0.292c0.267,0,0.518,0.104,0.707,0.292l1.645,1.646c0.195,0.195,0.194,0.512,0,0.707
		C18.509,23.948,18.384,24,18.251,24s-0.259-0.052-0.354-0.146l-1.644-1.646l-1.649,1.646C14.51,23.948,14.384,24,14.251,24z"/>
	<path d="M18.394,5.145c-1.418,0-2.572-1.154-2.572-2.572s1.154-2.572,2.572-2.572s2.572,1.154,2.572,2.572
		S19.812,5.145,18.394,5.145z M18.394,1.001c-0.867,0-1.572,0.705-1.572,1.572s0.705,1.572,1.572,1.572s1.572-0.705,1.572-1.572
		S19.261,1.001,18.394,1.001z"/>
	<path d="M10.892,22.373c-0.534-0.01-1.032-0.228-1.402-0.613C9.118,21.376,8.92,20.87,8.93,20.336
		c0.01-0.534,0.227-1.033,0.612-1.403l1.762-1.7c0.311-0.299,0.395-0.762,0.209-1.152l-0.796-1.668
		c-0.446,1.745-1.797,3.117-3.539,3.588l-2.407,0.65c-0.166,0.043-0.335,0.064-0.504,0.064c-0.903,0-1.704-0.604-1.948-1.468
		c-0.14-0.524-0.069-1.065,0.198-1.528c0.268-0.463,0.699-0.793,1.215-0.931l2.406-0.65c0.354-0.095,0.626-0.376,0.711-0.733
		l0.413-1.709C7.363,11.28,7.6,10.901,7.93,10.628l3.976-3.282c-0.083-0.01-0.167-0.016-0.251-0.016
		c-0.354,0-0.702,0.093-1.006,0.268L8.687,8.737c-0.305,0.176-0.65,0.269-0.998,0.269c-0.175,0-0.35-0.023-0.521-0.069
		C6.651,8.799,6.22,8.468,5.953,8.005C5.401,7.049,5.73,5.823,6.686,5.272l1.964-1.136C9.56,3.611,10.6,3.334,11.658,3.334
		c0.842,0,1.657,0.171,2.423,0.508l1.247,0.551c1.305,0.578,2.303,1.689,2.738,3.048l0.301,0.949
		c0.144,0.449,0.444,0.834,0.845,1.085l1.6,1c0.935,0.586,1.219,1.824,0.633,2.759c-0.369,0.587-1.004,0.937-1.699,0.937
		c0,0,0,0,0,0c-0.375,0-0.741-0.105-1.06-0.305l-1.6-1c-1.025-0.641-1.839-1.59-2.322-2.697l-1.177,0.973l1.535,3.217
		c0.928,1.945,0.51,4.258-1.042,5.753l-1.763,1.7c-0.375,0.361-0.868,0.56-1.387,0.56L10.892,22.373z M10.584,12.474
		c0.037,0,0.075,0.004,0.111,0.012c0.151,0.035,0.275,0.134,0.341,0.272l1.38,2.892c0.372,0.779,0.204,1.704-0.417,2.302l-1.762,1.7
		c-0.193,0.186-0.301,0.435-0.306,0.702c-0.005,0.267,0.094,0.52,0.28,0.712c0.186,0.193,0.435,0.302,0.702,0.306l0.033,0
		c0.251,0,0.492-0.099,0.68-0.28l1.763-1.7c1.241-1.197,1.577-3.046,0.834-4.603l-1.58-3.311c-0.026-0.052-0.061-0.109-0.098-0.159
		c-0.157-0.214-0.119-0.513,0.085-0.682l2.045-1.689c0.089-0.074,0.202-0.115,0.318-0.115c0.048,0,0.095,0.007,0.141,0.02
		c0.158,0.046,0.284,0.168,0.335,0.326l0.039,0.122c0.36,1.125,1.11,2.09,2.111,2.717l1.6,1c0.16,0.1,0.343,0.153,0.531,0.153
		c0.348,0,0.666-0.175,0.85-0.469c0.142-0.227,0.188-0.495,0.128-0.756c-0.06-0.261-0.218-0.482-0.444-0.624l-1.6-1
		c-0.601-0.375-1.052-0.954-1.268-1.63l-0.301-0.95c-0.348-1.086-1.146-1.974-2.19-2.437l-1.246-0.551
		c-0.638-0.281-1.317-0.423-2.02-0.423c-0.882,0-1.75,0.231-2.509,0.668L7.186,6.138C6.955,6.271,6.789,6.487,6.72,6.746
		C6.65,7.004,6.686,7.274,6.819,7.505c0.134,0.232,0.349,0.397,0.608,0.467C7.512,7.995,7.6,8.006,7.688,8.006
		c0.173,0,0.346-0.047,0.498-0.135l1.963-1.139c0.457-0.263,0.977-0.401,1.507-0.401c0.421,0,0.829,0.085,1.213,0.254l0.256,0.114
		c0.16,0.071,0.269,0.216,0.293,0.389c0.024,0.17-0.044,0.344-0.177,0.453l-4.673,3.858c-0.164,0.136-0.282,0.325-0.332,0.532
		L7.822,13.64c-0.17,0.712-0.715,1.273-1.422,1.465l-2.408,0.651c-0.259,0.069-0.475,0.234-0.609,0.466
		c-0.134,0.231-0.169,0.501-0.1,0.759c0.122,0.433,0.526,0.737,0.981,0.737c0.084,0,0.169-0.011,0.25-0.032l2.403-0.649
		c1.411-0.381,2.501-1.501,2.844-2.922l0.295-1.222c0.026-0.107,0.087-0.204,0.172-0.272l0.042-0.033
		C10.358,12.513,10.47,12.474,10.584,12.474z"/>
</g>
</svg>
