<?xml version="1.0" encoding="utf-8"?>
<!-- Generator: Adobe Illustrator 22.1.0, SVG Export Plug-In . SVG Version: 6.00 Build 0)  -->
<svg version="1.1" id="Light" xmlns="http://www.w3.org/2000/svg" xmlns:xlink="http://www.w3.org/1999/xlink" x="0px" y="0px"
	 viewBox="0 0 24 24" style="enable-background:new 0 0 24 24;" xml:space="preserve">
<g>
	<title>safety-911</title>
	<path d="M3.386,16.867c-0.619,0-1.203-0.269-1.6-0.739L0.859,15.14c-0.965-0.962-1.141-2.457-0.422-3.63
		C3.1,7.589,6.655,4.257,10.723,1.862c0.442-0.234,0.926-0.355,1.409-0.355c0.849,0,1.659,0.369,2.221,1.012l0.93,0.994
		c0.812,0.784,0.836,2.107,0.044,2.939l-1.669,1.567c-0.392,0.329-0.875,0.505-1.371,0.505c0,0,0,0,0,0
		c-0.616,0-1.197-0.267-1.594-0.732l-0.253-0.268c-1.561,1.211-3.013,2.572-4.321,4.052l0.263,0.281
		c0.812,0.786,0.835,2.109,0.042,2.941l-1.669,1.565C4.363,16.691,3.88,16.867,3.386,16.867z M12.127,2.506
		c-0.317,0-0.633,0.079-0.917,0.229C7.286,5.046,3.847,8.27,1.277,12.052c-0.466,0.761-0.346,1.749,0.299,2.392l0.955,1.018
		c0.222,0.261,0.532,0.405,0.86,0.405c0.256,0,0.505-0.09,0.7-0.253l1.627-1.527c0.4-0.421,0.382-1.111-0.051-1.53L5.08,11.929
		c-0.175-0.187-0.181-0.474-0.015-0.667c1.528-1.78,3.253-3.398,5.128-4.809c0.087-0.066,0.191-0.101,0.301-0.101
		c0.137,0,0.27,0.057,0.364,0.157c0,0,0.589,0.626,0.592,0.629c0.209,0.246,0.515,0.387,0.84,0.387c0.258,0,0.508-0.091,0.705-0.255
		l1.627-1.528c0.399-0.42,0.38-1.111-0.052-1.529L13.611,3.19C13.23,2.753,12.69,2.506,12.127,2.506z"/>
	<path d="M13.494,22.498c-0.276,0-0.5-0.224-0.5-0.5s0.224-0.5,0.5-0.5h1.5v-4.793l-1.146,1.146
		c-0.094,0.094-0.22,0.146-0.354,0.146s-0.259-0.052-0.354-0.146s-0.146-0.22-0.146-0.354s0.052-0.259,0.146-0.354l1.323-1.323
		c0.204-0.205,0.48-0.32,0.778-0.323c0.417,0,0.753,0.336,0.753,0.75v5.25h1.5c0.276,0,0.5,0.224,0.5,0.5s-0.224,0.5-0.5,0.5H13.494
		z"/>
	<path d="M19.494,22.498c-0.276,0-0.5-0.224-0.5-0.5s0.224-0.5,0.5-0.5h1.5v-4.793l-1.146,1.146
		c-0.094,0.094-0.22,0.146-0.354,0.146s-0.259-0.052-0.354-0.146s-0.146-0.22-0.146-0.354s0.052-0.259,0.146-0.354l1.323-1.323
		c0.204-0.205,0.489-0.323,0.78-0.323c0.415,0,0.751,0.336,0.751,0.75v5.25h1.5c0.276,0,0.5,0.224,0.5,0.5s-0.224,0.5-0.5,0.5
		H19.494z"/>
	<path d="M8.494,22.498c-0.276,0-0.5-0.224-0.5-0.5s0.224-0.5,0.5-0.5h0.5c0.91,0,1.68-0.611,1.922-1.445
		c-0.413,0.287-0.906,0.445-1.422,0.445c-1.379,0-2.5-1.122-2.5-2.5s1.121-2.5,2.5-2.5s2.5,1.122,2.5,2.5v1.5c0,1.654-1.346,3-3,3
		H8.494z M9.494,16.498c-0.827,0-1.5,0.673-1.5,1.5s0.673,1.5,1.5,1.5s1.5-0.673,1.5-1.5S10.321,16.498,9.494,16.498z"/>
</g>
</svg>
