<?xml version="1.0" encoding="utf-8"?>
<!-- Generator: Adobe Illustrator 22.1.0, SVG Export Plug-In . SVG Version: 6.00 Build 0)  -->
<svg version="1.1" id="Light" xmlns="http://www.w3.org/2000/svg" xmlns:xlink="http://www.w3.org/1999/xlink" x="0px" y="0px"
	 viewBox="0 0 24 24" style="enable-background:new 0 0 24 24;" xml:space="preserve">
<g>
	<title>safety-electricity-danger</title>
	<path d="M6.609,11.08c-0.21,0-0.412-0.089-0.554-0.244l-5.219-5.66C0.665,4.992,0.57,4.75,0.571,4.498
		c0-0.267,0.104-0.518,0.293-0.707c0.189-0.189,0.44-0.292,0.707-0.292h1.151L0.864,0.997C0.785,0.888,0.743,0.763,0.741,0.634
		c-0.003-0.167,0.06-0.325,0.177-0.445c0.116-0.12,0.272-0.188,0.44-0.19h3.496c0.236,0,0.449,0.13,0.556,0.341l2.417,4.702
		c0.073,0.141,0.111,0.3,0.111,0.459c0,0.267-0.104,0.518-0.294,0.707c-0.189,0.188-0.44,0.292-0.706,0.292H5.876l1.428,3.551
		c0.117,0.288,0.041,0.623-0.189,0.834C6.976,11.01,6.797,11.08,6.609,11.08z M1.57,4.499l4.297,4.659L4.672,6.185
		C4.61,6.031,4.629,5.857,4.722,5.719c0.093-0.138,0.248-0.22,0.414-0.22h1.8l-2.312-4.5H2.11l2.006,2.702
		C4.23,3.853,4.247,4.053,4.162,4.223c-0.085,0.17-0.257,0.276-0.447,0.276H1.57z"/>
	<path d="M18.929,8.999c-1.654,0-3-1.346-3-3s1.346-3,3-3s3,1.346,3,3S20.583,8.999,18.929,8.999z M18.929,3.999
		c-1.103,0-2,0.897-2,2s0.897,2,2,2s2-0.897,2-2S20.032,3.999,18.929,3.999z"/>
	<path d="M4.929,23.999c-0.457,0-0.903-0.158-1.258-0.446c-0.787-0.69-0.946-1.854-0.376-2.714l2.432-3.9
		c0.333-0.533,0.905-0.882,1.531-0.933l1.244-0.104l-0.82-0.818l-4.054,0.406c-0.067,0.007-0.133,0.01-0.198,0.01
		c-1.033,0-1.89-0.774-1.993-1.801c-0.053-0.531,0.103-1.052,0.442-1.466c0.338-0.414,0.817-0.671,1.349-0.724l1.152-0.115
		c0.008-0.001,0.04-0.002,0.049-0.002c0.258,0,0.473,0.193,0.499,0.45c0.013,0.133-0.026,0.263-0.111,0.367
		c-0.085,0.103-0.204,0.167-0.337,0.181l-1.152,0.115c-0.266,0.027-0.505,0.156-0.674,0.362c-0.169,0.207-0.247,0.467-0.221,0.733
		C2.484,14.104,2.92,14.5,3.425,14.5c0.034,0,0.069-0.002,0.103-0.005l4.058-0.406c0.034-0.003,0.067-0.005,0.1-0.005
		c0.27,0,0.521,0.106,0.708,0.298l1.579,1.576c0.137,0.137,0.183,0.344,0.116,0.526c-0.067,0.182-0.235,0.311-0.428,0.326
		l-2.32,0.193c-0.313,0.026-0.599,0.201-0.766,0.467l-2.44,3.912c-0.301,0.454-0.222,1.057,0.179,1.408
		C4.484,22.925,4.698,23,4.927,23c0.305,0,0.59-0.135,0.781-0.371c0.025-0.031,0.048-0.063,0.069-0.096l2.099-3.361
		c0.085-0.135,0.23-0.222,0.389-0.233l4.169-0.295c1.073-0.076,2.069-0.655,2.665-1.55l2.228-3.342
		c0.084-0.126,0.219-0.206,0.369-0.22c0.008-0.001,0.04-0.002,0.048-0.002c0.135,0,0.261,0.053,0.356,0.15
		c0.975,0.991,1.727,2.211,2.174,3.529l0.201,0.609c0.136,0.408,0.518,0.683,0.949,0.683c0.114,0,0.219-0.017,0.32-0.051
		c0.255-0.084,0.461-0.262,0.58-0.501c0.12-0.239,0.139-0.51,0.055-0.763l-0.301-0.913c-0.946-2.648-2.847-4.826-5.351-6.127
		c-1.682-0.922-3.019-2.311-3.869-4.021l-1-1.999c-0.18-0.381-0.546-0.615-0.958-0.615c-0.093,0-0.186,0.012-0.277,0.037
		C10.106,3.701,9.811,4.26,9.97,4.788c0.016,0.054,0.038,0.107,0.063,0.157l1.036,2.07c0.656,1.307,1.546,2.46,2.645,3.425
		c0.188,0.165,0.224,0.446,0.086,0.653l-2.007,3.01c-0.083,0.125-0.217,0.206-0.367,0.22c-0.008,0.001-0.04,0.002-0.048,0.002
		c-0.134,0-0.26-0.052-0.354-0.146l-1.217-1.217c-0.339-0.339-0.759-0.594-1.216-0.739c-0.127-0.04-0.231-0.128-0.293-0.246
		c-0.062-0.119-0.073-0.254-0.033-0.381c0.066-0.209,0.258-0.349,0.477-0.349c0.051,0,0.102,0.008,0.151,0.023
		c0.609,0.193,1.17,0.533,1.622,0.985l0.786,0.786l1.43-2.145c-1.048-0.987-1.907-2.141-2.555-3.433l-1.036-2.07
		c-0.05-0.1-0.093-0.206-0.125-0.315c-0.32-1.056,0.278-2.175,1.333-2.495c0.186-0.051,0.37-0.075,0.554-0.075
		c0.791,0,1.52,0.462,1.857,1.178l0.995,1.99c0.76,1.526,1.951,2.766,3.445,3.585c2.721,1.413,4.792,3.788,5.825,6.685l0.304,0.92
		c0.169,0.513,0.13,1.053-0.109,1.529c-0.239,0.478-0.65,0.833-1.157,1.002c-0.203,0.068-0.415,0.103-0.63,0.103
		c-0.871,0-1.633-0.55-1.906-1.368l-0.2-0.606c-0.33-0.972-0.853-1.896-1.521-2.687l-1.874,2.81
		c-0.767,1.15-2.048,1.895-3.427,1.992l-3.915,0.278l-1.965,3.146c-0.043,0.068-0.09,0.133-0.14,0.195
		C6.103,23.729,5.536,23.999,4.929,23.999z"/>
</g>
</svg>
