<?xml version="1.0" encoding="utf-8"?>
<!-- Generator: Adobe Illustrator 22.1.0, SVG Export Plug-In . SVG Version: 6.00 Build 0)  -->
<svg version="1.1" id="Light" xmlns="http://www.w3.org/2000/svg" xmlns:xlink="http://www.w3.org/1999/xlink" x="0px" y="0px"
	 viewBox="0 0 24 24" style="enable-background:new 0 0 24 24;" xml:space="preserve">
<g>
	<title>safety-vest</title>
	<path d="M1.5,24C0.673,24,0,23.327,0,22.5V12c0.001-0.709,0.505-1.327,1.2-1.469C3.267,10.115,4,7.884,4,6.1V2.5
		C4,1.121,5.121,0,6.5,0h11C18.878,0,20,1.121,20,2.5v3.6c0,1.788,0.733,4.021,2.798,4.432C23.495,10.675,24,11.293,24,12.003V22.5
		c0,0.827-0.673,1.5-1.5,1.5H1.5z M1,22.5C1,22.776,1.224,23,1.5,23h21c0.276,0,0.5-0.224,0.5-0.5V20h-3v1.5
		c0,0.276-0.224,0.5-0.5,0.5h-2c-0.276,0-0.5-0.224-0.5-0.5V20H7v1.5C7,21.776,6.776,22,6.5,22h-2C4.224,22,4,21.776,4,21.5V20H1
		V22.5z M19,21v-7h-1v7H19z M6,21v-7H5v7H6z M23,19v-3h-3v3H23z M17,19v-3H7v3H17z M4,19v-3H1v3H4z M23,15v-2.997
		c0-0.237-0.168-0.443-0.4-0.49C19.943,10.984,19,8.266,19,6.1V2.5C19,1.673,18.327,1,17.5,1H16v5c0,2.206-1.794,4-4,4S8,8.206,8,6
		V1H6.5C5.673,1,5,1.673,5,2.5v3.6c0,3.459-1.94,5.077-3.601,5.411C1.168,11.558,1,11.764,1,12v3h3v-1.5C4,13.224,4.224,13,4.5,13h2
		C6.776,13,7,13.224,7,13.5V15h10v-1.5c0-0.276,0.224-0.5,0.5-0.5h2c0.276,0,0.5,0.224,0.5,0.5L23,15z M9,6c0,1.654,1.346,3,3,3
		c1.654,0,3-1.346,3-3V1H9V6z"/>
</g>
</svg>
