<?xml version="1.0" encoding="utf-8"?>
<!-- Generator: Adobe Illustrator 22.1.0, SVG Export Plug-In . SVG Version: 6.00 Build 0)  -->
<svg version="1.1" id="Light" xmlns="http://www.w3.org/2000/svg" xmlns:xlink="http://www.w3.org/1999/xlink" x="0px" y="0px"
	 viewBox="0 0 24 24" style="enable-background:new 0 0 24 24;" xml:space="preserve">
<g>
	<title>safety-do-not-touch-fire</title>
	<path d="M12,24C5.383,24,0,18.617,0,12c0-3.036,1.142-5.934,3.217-8.164c0.01-0.018,0.027-0.042,0.052-0.067
		C3.279,3.758,3.299,3.742,3.317,3.73C5.609,1.324,8.691,0,12,0c6.617,0,12,5.383,12,12c0,3.308-1.324,6.39-3.728,8.681
		c-0.008,0.012-0.021,0.031-0.041,0.05c-0.025,0.025-0.049,0.041-0.067,0.052C17.935,22.858,15.036,24,12,24z M3.646,4.853
		C1.938,6.847,1,9.375,1,12c0,6.065,4.935,11,11,11c2.625,0,5.153-0.938,7.147-2.646l-4.062-4.062c-0.195-0.195-0.195-0.512,0-0.707
		c0.094-0.094,0.22-0.146,0.354-0.146s0.259,0.052,0.354,0.146l4.084,4.084C21.892,17.601,23,14.887,23,12c0-6.065-4.935-11-11-11
		C9.113,1,6.399,2.108,4.331,4.124L6.198,5.99c0.094,0.094,0.146,0.22,0.146,0.354S6.292,6.603,6.198,6.698s-0.22,0.146-0.354,0.146
		S5.585,6.792,5.49,6.698L3.646,4.853z"/>
	<path d="M7,20c-0.276,0-0.5-0.224-0.5-0.5S6.724,19,7,19h8.5c0.276,0,0.5,0.224,0.5,0.5S15.776,20,15.5,20H7z"/>
	<path d="M7.809,18.5c-0.119,0-0.234-0.043-0.324-0.12c-0.016-0.013-0.038-0.035-0.054-0.053C7.161,18.056,6.999,17.658,7,17.248
		C7,16.831,7.163,16.44,7.458,16.146c0.218-0.218,0.218-0.574-0.001-0.792C7.363,15.259,7.311,15.133,7.311,15
		s0.052-0.259,0.147-0.354c0.094-0.094,0.22-0.146,0.353-0.146c0.134,0,0.259,0.052,0.354,0.146c0.608,0.608,0.608,1.599,0,2.207
		C8.058,16.959,8,17.1,8,17.249c0,0.149,0.058,0.29,0.163,0.395c0.191,0.191,0.197,0.496,0.014,0.694
		C8.082,18.441,7.948,18.5,7.809,18.5z"/>
	<path d="M10.309,18.5c-0.119,0-0.234-0.043-0.324-0.12c-0.016-0.013-0.038-0.035-0.054-0.053c-0.271-0.27-0.432-0.667-0.432-1.078
		c0.001-0.417,0.164-0.808,0.458-1.102c0.218-0.218,0.218-0.574-0.001-0.792C9.863,15.259,9.811,15.133,9.811,15
		s0.052-0.259,0.147-0.354c0.094-0.094,0.22-0.146,0.353-0.146c0.134,0,0.259,0.052,0.354,0.146c0.608,0.608,0.608,1.599,0,2.207
		C10.558,16.959,10.5,17.1,10.5,17.249c0,0.149,0.058,0.29,0.163,0.395c0.191,0.191,0.197,0.496,0.014,0.694
		C10.582,18.441,10.448,18.5,10.309,18.5z"/>
	<path d="M13.189,18.5c-0.134,0-0.259-0.052-0.354-0.146c-0.608-0.608-0.608-1.599,0-2.207c0.049-0.048,0.087-0.103,0.114-0.164
		c0.08-0.18,0.259-0.297,0.456-0.297c0.071,0,0.14,0.015,0.205,0.044c0.121,0.054,0.215,0.153,0.263,0.277s0.044,0.261-0.01,0.383
		c-0.078,0.175-0.186,0.331-0.322,0.466c-0.217,0.217-0.217,0.573,0.002,0.791c0.094,0.094,0.146,0.22,0.146,0.354
		c0,0.134-0.052,0.259-0.147,0.353C13.448,18.448,13.323,18.5,13.189,18.5z"/>
	<path d="M14.711,14c-1.094,0-2.176-0.354-3.058-1H9c-0.758,0-1.387-0.566-1.486-1.297l-2.562,0.881
		c-0.285,0.089-0.541,0.131-0.789,0.131c-0.708,0-1.334-0.337-2.031-1.094c-0.105-0.114-0.151-0.268-0.125-0.421
		c0.025-0.153,0.118-0.283,0.255-0.357c1.676-0.91,2.948-1.653,3.969-2.25C8.51,7.26,9.549,6.653,10.84,6.653
		c1.032,0,2.195,0.412,4.008,1.083c0.059,0.022,0.119,0.033,0.18,0.033c0.179,0,0.34-0.093,0.431-0.25l1.608-2.771
		C17.156,4.595,17.322,4.5,17.5,4.5c0.088,0,0.175,0.023,0.251,0.068c0.116,0.067,0.198,0.175,0.232,0.304
		c0.034,0.129,0.016,0.264-0.051,0.38l-1.608,2.771C16.056,8.483,15.56,8.77,15.029,8.77c-0.181,0-0.359-0.032-0.53-0.097
		c-1.781-0.66-2.763-1.024-3.622-1.024c-1.052,0-2.02,0.566-4.142,1.806C5.84,9.979,4.741,10.622,3.344,11.39
		c0.29,0.224,0.552,0.326,0.824,0.326c0.141,0,0.291-0.026,0.472-0.083l3.229-1.11C8.156,10.19,8.564,10,9,10h4
		c0.276,0,0.5,0.224,0.5,0.5S13.276,11,13,11H9c-0.276,0-0.5,0.224-0.5,0.5S8.724,12,9,12h2.821c0.112,0,0.221,0.038,0.309,0.107
		C12.863,12.683,13.779,13,14.71,13h1.79c0.469,0,0.918-0.224,1.2-0.6l2.4-3.2C20.194,9.075,20.344,9,20.5,9
		c0.109,0,0.213,0.035,0.3,0.1c0.106,0.08,0.176,0.197,0.195,0.329C21.014,9.562,20.98,9.693,20.9,9.8L18.5,13
		c-0.469,0.626-1.217,1-2,1H14.711z"/>
</g>
</svg>
