<?xml version="1.0" encoding="utf-8"?>
<!-- Generator: Adobe Illustrator 22.1.0, SVG Export Plug-In . SVG Version: 6.00 Build 0)  -->
<svg version="1.1" id="Light" xmlns="http://www.w3.org/2000/svg" xmlns:xlink="http://www.w3.org/1999/xlink" x="0px" y="0px"
	 viewBox="0 0 24 24" style="enable-background:new 0 0 24 24;" xml:space="preserve">
<g>
	<title>safety-fire</title>
	<path d="M1.5,24C0.673,24,0,23.327,0,22.5v-21C0,0.673,0.673,0,1.5,0h21C23.327,0,24,0.673,24,1.5v21c0,0.827-0.673,1.5-1.5,1.5
		H1.5z M1.5,1C1.224,1,1,1.224,1,1.5v21C1,22.776,1.224,23,1.5,23h21c0.276,0,0.5-0.224,0.5-0.5v-21C23,1.224,22.776,1,22.5,1H1.5z"
		/>
	<path d="M4,21c-0.551,0-1-0.448-1-1v-7c0-0.552,0.449-1,1-1h16c0.552,0,1,0.448,1,1v7c0,0.552-0.448,1-1,1H4z M4,20h16v-3h-2.293
		l0.646,0.646C18.448,17.741,18.5,17.866,18.5,18s-0.052,0.259-0.146,0.354S18.134,18.5,18,18.5s-0.259-0.052-0.354-0.146l-1.5-1.5
		c-0.046-0.045-0.083-0.101-0.109-0.163c-0.05-0.121-0.05-0.261,0-0.382c0.025-0.062,0.062-0.117,0.109-0.163l1.499-1.499
		C17.741,14.552,17.866,14.5,18,14.5s0.259,0.052,0.354,0.146S18.5,14.866,18.5,15s-0.052,0.259-0.146,0.354L17.707,16H20v-3H4v3
		h2.293l-0.646-0.646C5.552,15.259,5.5,15.134,5.5,15s0.052-0.259,0.146-0.354S5.866,14.5,6,14.5s0.259,0.052,0.354,0.146l1.5,1.5
		c0.047,0.047,0.083,0.101,0.109,0.163c0.05,0.121,0.05,0.26,0,0.382c-0.025,0.061-0.062,0.116-0.108,0.163l-1.5,1.5
		C6.259,18.448,6.134,18.5,6,18.5s-0.259-0.052-0.354-0.146S5.5,18.134,5.5,18s0.052-0.259,0.146-0.354L6.293,17H4V20z"/>
	<path d="M12,19c-1.379,0-2.5-1.122-2.5-2.5S10.621,14,12,14c1.378,0,2.5,1.122,2.5,2.5S13.378,19,12,19z M12,15
		c-0.827,0-1.5,0.673-1.5,1.5S11.173,18,12,18s1.5-0.673,1.5-1.5S12.827,15,12,15z"/>
	<path d="M6.5,9C6.224,9,6,8.776,6,8.5v-4C6,3.673,6.673,3,7.5,3h1C8.776,3,9,3.224,9,3.5S8.776,4,8.5,4h-1C7.224,4,7,4.224,7,4.5V6
		h1c0.276,0,0.5,0.224,0.5,0.5S8.276,7,8,7H7v1.5C7,8.776,6.776,9,6.5,9z"/>
	<path d="M10.5,9C10.224,9,10,8.776,10,8.5v-5C10,3.224,10.224,3,10.5,3S11,3.224,11,3.5v5C11,8.776,10.776,9,10.5,9z"/>
	<path d="M14.5,9c-0.175,0-0.339-0.093-0.429-0.243L13,6.972V8.5C13,8.776,12.776,9,12.5,9C12.224,9,12,8.776,12,8.5v-5
		C12,3.224,12.224,3,12.5,3h0.75C14.215,3,15,3.785,15,4.75c0,0.756-0.485,1.412-1.176,1.652l1.104,1.84
		c0.142,0.236,0.065,0.544-0.171,0.686C14.68,8.975,14.591,9,14.5,9z M13.25,5.5C13.664,5.5,14,5.164,14,4.75S13.664,4,13.25,4H13
		v1.5H13.25z"/>
	<path d="M17.5,9C16.673,9,16,8.327,16,7.5v-3C16,3.673,16.673,3,17.5,3h1C18.776,3,19,3.224,19,3.5S18.776,4,18.5,4h-1
		C17.224,4,17,4.224,17,4.5V6h1.5C18.776,6,19,6.224,19,6.5S18.776,7,18.5,7H17v0.5C17,7.776,17.224,8,17.5,8h1
		C18.776,8,19,8.224,19,8.5S18.776,9,18.5,9H17.5z"/>
</g>
</svg>
