<?xml version="1.0" encoding="utf-8"?>
<!-- Generator: Adobe Illustrator 22.1.0, SVG Export Plug-In . SVG Version: 6.00 Build 0)  -->
<svg version="1.1" id="Light" xmlns="http://www.w3.org/2000/svg" xmlns:xlink="http://www.w3.org/1999/xlink" x="0px" y="0px"
	 viewBox="0 0 24 24" style="enable-background:new 0 0 24 24;" xml:space="preserve">
<g>
	<title>safety-float</title>
	<path d="M11.5,24c-0.714,0-1.311-0.494-1.459-1.177c-4.516-0.819-8.047-4.349-8.866-8.865C0.493,13.81,0,13.214,0,12.5v-1
		c0-0.714,0.493-1.31,1.176-1.459c0.82-4.515,4.351-8.044,8.866-8.863C10.191,0.504,10.797,0,11.5,0h1
		c0.715,0,1.312,0.494,1.459,1.178c4.514,0.82,8.043,4.349,8.863,8.863C23.506,10.188,24,10.785,24,11.5v1
		c0,0.715-0.494,1.311-1.177,1.459c-0.818,4.516-4.348,8.046-8.864,8.865C13.811,23.506,13.214,24,12.5,24H11.5z M11,22.5
		c0,0.276,0.224,0.5,0.5,0.5h1c0.276,0,0.5-0.224,0.5-0.5v-5.096c-0.338,0.064-0.673,0.096-1,0.096c-0.327,0-0.662-0.032-1-0.096
		V22.5z M14,21.798c3.915-0.801,6.996-3.883,7.796-7.798h-4.679c-0.561,1.434-1.684,2.556-3.117,3.117V21.798z M2.202,14
		c0.802,3.914,3.884,6.996,7.798,7.798v-4.68C8.567,16.556,7.444,15.434,6.883,14H2.202z M12,7.5c-2.481,0-4.5,2.019-4.5,4.5
		c0,2.481,2.019,4.5,4.5,4.5c2.481,0,4.5-2.019,4.5-4.5C16.5,9.519,14.481,7.5,12,7.5z M22.5,13c0.276,0,0.5-0.224,0.5-0.5v-1
		c0-0.276-0.224-0.5-0.5-0.5h-5.096c0.064,0.338,0.096,0.673,0.096,1c0,0.327-0.032,0.662-0.096,1H22.5z M1.5,11
		C1.224,11,1,11.224,1,11.5v1C1,12.776,1.224,13,1.5,13h5.097C6.532,12.662,6.5,12.327,6.5,12s0.032-0.662,0.096-1H1.5z M21.796,10
		C20.994,6.088,17.912,3.007,14,2.204v4.679c1.434,0.561,2.556,1.684,3.117,3.117H21.796z M6.883,10
		C7.444,8.566,8.566,7.444,10,6.883V2.204C6.088,3.006,3.005,6.088,2.202,10H6.883z M12,6.5c0.327,0,0.662,0.032,1,0.097V1.5
		C13,1.224,12.776,1,12.5,1h-1C11.224,1,11,1.224,11,1.5v0.036c0.006,0.042,0.002,0.077,0,0.094l0,4.966
		C11.338,6.532,11.673,6.5,12,6.5z"/>
</g>
</svg>
