<?xml version="1.0" encoding="utf-8"?>
<!-- Generator: Adobe Illustrator 22.1.0, SVG Export Plug-In . SVG Version: 6.00 Build 0)  -->
<svg version="1.1" id="Light" xmlns="http://www.w3.org/2000/svg" xmlns:xlink="http://www.w3.org/1999/xlink" x="0px" y="0px"
	 viewBox="0 0 24 24" style="enable-background:new 0 0 24 24;" xml:space="preserve">
<g>
	<title>safety-heart-electricity</title>
	<path d="M12.005,20.646c-0.261,0-0.508-0.1-0.696-0.282c-0.003-0.003-1.121-1.155-1.121-1.155
		c-0.093-0.095-0.143-0.222-0.141-0.355s0.056-0.258,0.151-0.351c0.094-0.091,0.217-0.141,0.348-0.141
		c0.136,0,0.264,0.054,0.359,0.152l1.1,1.133l9.443-9.722c1.621-1.592,2.021-4.014,1-6.033c-0.245-0.476-0.562-0.913-0.94-1.298
		c-1-1.016-2.336-1.582-3.762-1.594l-0.027,0c-1.42,0-2.756,0.545-3.761,1.534l-1.614,1.472c-0.092,0.084-0.212,0.131-0.337,0.131
		s-0.245-0.046-0.337-0.131l-1.6-1.459C9.675,2.158,9.235,1.839,8.756,1.592C7.994,1.2,7.175,1.001,6.322,1.001
		c-2.015,0-3.838,1.11-4.758,2.896C0.589,5.824,0.925,8.18,2.401,9.758c0.188,0.201,0.178,0.518-0.024,0.707
		C2.284,10.552,2.163,10.6,2.036,10.6c-0.138,0-0.271-0.058-0.365-0.158c-1.763-1.885-2.163-4.697-0.997-6.999
		c1.092-2.123,3.257-3.441,5.65-3.441c0.999,0,1.998,0.243,2.89,0.701c0.569,0.293,1.089,0.669,1.545,1.117l1.249,1.139l1.263-1.152
		c1.182-1.164,2.76-1.808,4.438-1.808l0.045,0c1.694,0.013,3.28,0.685,4.468,1.892c0.449,0.456,0.825,0.976,1.118,1.545
		c1.22,2.411,0.745,5.301-1.181,7.193l-9.434,9.713c-0.186,0.192-0.435,0.3-0.702,0.304C12.02,20.646,12.007,20.646,12.005,20.646z"
		/>
	<path d="M3.508,24c-0.057,0-0.112-0.01-0.166-0.028c-0.2-0.07-0.334-0.26-0.334-0.472V18H0.883
		c-0.206-0.001-0.405-0.074-0.561-0.205c-0.37-0.312-0.418-0.865-0.108-1.235l5.903-7.373C6.213,9.068,6.355,9,6.508,9
		C6.564,9,6.62,9.01,6.674,9.028c0.2,0.07,0.334,0.26,0.334,0.472V15h2.125c0.206,0.001,0.405,0.074,0.561,0.205
		c0.37,0.312,0.418,0.866,0.107,1.235l-5.903,7.373C3.802,23.932,3.66,24,3.508,24z M3.508,17c0.276,0,0.5,0.224,0.5,0.5v4.576
		L8.873,16H6.508c-0.276,0-0.5-0.224-0.5-0.5v-4.576L1.143,17H3.508z"/>
</g>
</svg>
