<?xml version="1.0" encoding="utf-8"?>
<!-- Generator: Adobe Illustrator 22.1.0, SVG Export Plug-In . SVG Version: 6.00 Build 0)  -->
<svg version="1.1" id="Light" xmlns="http://www.w3.org/2000/svg" xmlns:xlink="http://www.w3.org/1999/xlink" x="0px" y="0px"
	 viewBox="0 0 24 24" style="enable-background:new 0 0 24 24;" xml:space="preserve">
<g>
	<title>safety-warning-radioactive</title>
	<path d="M12,24C5.383,24,0,18.617,0,12C0,5.383,5.383,0,12,0c6.617,0,12,5.383,12,12C24,18.617,18.617,24,12,24z M12,1
		C5.935,1,1,5.935,1,12s4.935,11,11,11s11-4.935,11-11S18.065,1,12,1z"/>
	<path d="M16.784,20.686c-1.754-0.125-3.327-1.033-4.313-2.492c-0.179-0.265-0.336-0.548-0.47-0.846
		c-0.859,1.898-2.686,3.187-4.792,3.335c-0.006,0-0.03,0.001-0.035,0.001c-0.261,0-0.48-0.204-0.499-0.465
		c-0.009-0.133,0.034-0.262,0.121-0.363c0.088-0.101,0.209-0.162,0.343-0.171c1.727-0.122,3.248-1.197,3.955-2.771
		C8.738,16.483,7,14.425,7,12c0-0.575,0.097-1.136,0.29-1.674c-0.171-0.019-0.34-0.028-0.505-0.028
		c-0.101,0-0.203,0.003-0.306,0.011c-1.45,0.102-2.749,0.851-3.563,2.056c-0.093,0.138-0.248,0.22-0.415,0.22
		c-0.1,0-0.197-0.03-0.28-0.086c-0.228-0.154-0.288-0.465-0.134-0.694c0.988-1.461,2.563-2.369,4.321-2.493
		c0.133-0.009,0.266-0.014,0.398-0.014c0.187,0,0.375,0.009,0.562,0.028C6.155,7.632,5.952,5.408,6.875,3.51
		c0.083-0.171,0.259-0.281,0.449-0.281c0.075,0,0.151,0.018,0.219,0.051C7.792,3.4,7.895,3.7,7.774,3.948
		C7.016,5.506,7.188,7.363,8.2,8.761C9.154,7.638,10.522,7,12,7c1.479,0,2.847,0.638,3.801,1.763
		c0.167-0.227,0.309-0.462,0.425-0.701c0.636-1.307,0.636-2.807,0-4.114C16.106,3.7,16.209,3.4,16.457,3.279
		c0.069-0.033,0.142-0.051,0.219-0.051c0.19,0,0.366,0.11,0.449,0.281c0.772,1.586,0.772,3.404,0,4.99
		c-0.14,0.288-0.306,0.565-0.495,0.827c0.184-0.018,0.37-0.027,0.555-0.027c0.363,0,0.729,0.035,1.088,0.104
		c1.495,0.289,2.788,1.142,3.641,2.403c0.155,0.228,0.094,0.54-0.134,0.694c-0.083,0.056-0.18,0.086-0.28,0.086l0,0
		c-0.167,0-0.321-0.082-0.415-0.22c-0.703-1.04-1.769-1.744-3.002-1.981c-0.288-0.056-0.584-0.084-0.879-0.084
		c-0.164,0-0.329,0.009-0.494,0.026C16.903,10.865,17,11.426,17,12c0,2.426-1.739,4.485-4.096,4.915
		c0.114,0.257,0.246,0.497,0.395,0.718c0.813,1.202,2.11,1.951,3.558,2.055c0.133,0.009,0.255,0.07,0.342,0.171
		c0.088,0.101,0.13,0.23,0.121,0.363c-0.018,0.26-0.237,0.464-0.498,0.464C16.816,20.687,16.791,20.686,16.784,20.686z M8.28,10.54
		C8.094,11.008,8,11.499,8,12c0,2.002,1.45,3.666,3.406,3.955c0.052-0.247,0.084-0.497,0.095-0.745
		c-0.005-0.113-0.005-0.247-0.001-0.382c-0.001-0.011-0.001-0.039-0.001-0.067c0-0.031,0-0.063-0.002-0.095
		c-0.104-1.477-0.92-2.836-2.182-3.636c-0.111-0.058-0.236-0.13-0.357-0.206C8.749,10.715,8.519,10.618,8.28,10.54z M15.72,10.539
		c-0.245,0.081-0.48,0.18-0.703,0.297c-0.084,0.054-0.187,0.113-0.292,0.17l-0.062,0.037c-0.035,0.02-0.07,0.041-0.104,0.064
		c-1.04,0.703-1.744,1.769-1.982,3.002c-0.039,0.203-0.063,0.419-0.075,0.68c0.007,0.141,0.007,0.303,0,0.461
		c0.011,0.226,0.042,0.466,0.092,0.704C14.55,15.666,16,14.002,16,12C16,11.499,15.906,11.008,15.72,10.539z M11.439,11.677
		c0.22,0.305,0.408,0.63,0.563,0.972c0.155-0.344,0.344-0.669,0.564-0.975c-0.192,0.02-0.384,0.03-0.575,0.03
		C11.808,11.704,11.623,11.695,11.439,11.677z M8.876,9.511C9.057,9.673,9.251,9.82,9.454,9.952c0.117,0.06,0.256,0.14,0.393,0.226
		c0.003,0.001,0.023,0.012,0.043,0.024c0.017,0.01,0.035,0.02,0.053,0.029c0.644,0.313,1.331,0.472,2.043,0.472
		c0.794,0,1.583-0.203,2.283-0.588l0.057-0.035c0.061-0.037,0.122-0.074,0.184-0.108c0.21-0.132,0.418-0.288,0.614-0.462
		C14.365,8.561,13.213,8,12,8C10.786,8,9.634,8.561,8.876,9.511z"/>
</g>
</svg>
