<?xml version="1.0" encoding="utf-8"?>
<!-- Generator: Adobe Illustrator 22.1.0, SVG Export Plug-In . SVG Version: 6.00 Build 0)  -->
<svg version="1.1" id="Light" xmlns="http://www.w3.org/2000/svg" xmlns:xlink="http://www.w3.org/1999/xlink" x="0px" y="0px"
	 viewBox="0 0 24 24" style="enable-background:new 0 0 24 24;" xml:space="preserve">
<g>
	<title>safety-exit-right</title>
	<path d="M18.992,5.997c-1.654,0-3-1.346-3-3s1.346-3,3-3s3,1.346,3,3S20.646,5.997,18.992,5.997z M18.992,0.997
		c-1.103,0-2,0.897-2,2s0.897,2,2,2s2-0.897,2-2S20.095,0.997,18.992,0.997z"/>
	<path d="M1.994,23.998c-0.047,0-0.094-0.002-0.142-0.005c-0.533-0.037-1.02-0.279-1.37-0.682c-0.669-0.849-0.599-2.046,0.157-2.793
		c5.595-5.84,9.075-9.396,11.167-11.408c-0.292-0.053-0.59-0.08-0.888-0.08c-0.56,0-1.11,0.093-1.635,0.277L6.16,10.412
		c-0.105,0.037-0.214,0.066-0.324,0.085c-0.115,0.02-0.232,0.03-0.349,0.03c-0.41,0-0.806-0.126-1.145-0.364
		C3.905,9.857,3.614,9.398,3.522,8.871C3.377,7.87,3.963,6.922,4.913,6.61L7.95,5.535c0.971-0.344,1.982-0.518,3.004-0.518
		c1.246,0,2.461,0.255,3.611,0.759c2.081,0.913,3.426,2.97,3.426,5.243v0.86c0,0.245,0.176,0.452,0.418,0.493l3.809,0.635
		c1.024,0.145,1.789,1.042,1.771,2.085c-0.005,0.093-0.013,0.163-0.025,0.232c-0.088,0.526-0.376,0.987-0.81,1.298
		c-0.342,0.244-0.742,0.373-1.158,0.373l0,0c-0.111,0-0.224-0.01-0.334-0.028l-4.329-0.721c-1.849-0.309-3.214-1.835-3.333-3.681
		c-0.466,0.462-1,0.995-1.593,1.593l1.951,3.312c0.271,0.461,0.415,0.987,0.415,1.522c0,0.802-0.312,1.555-0.879,2.121
		c-0.567,0.566-1.32,0.878-2.121,0.878H6.492c-1.103,0-2-0.897-2-2s0.897-2,2-2h3.537l-0.854-1.446
		c-0.14-0.237-0.061-0.544,0.176-0.685c0.077-0.046,0.165-0.07,0.254-0.07c0.176,0,0.341,0.094,0.431,0.245l1.3,2.2
		c0.091,0.154,0.093,0.346,0.004,0.502c-0.089,0.156-0.255,0.252-0.434,0.252H6.492c-0.551,0-1,0.448-1,1s0.449,1,1,1h5.281
		c0.534,0,1.037-0.208,1.414-0.585c0.378-0.378,0.586-0.88,0.586-1.414c0-0.357-0.095-0.708-0.276-1.015l-2.147-3.644
		c-0.115-0.196-0.084-0.445,0.076-0.606c1.111-1.12,2.025-2.031,2.717-2.706c0.093-0.091,0.217-0.142,0.349-0.142
		c0.067,0,0.132,0.013,0.194,0.039c0.187,0.079,0.307,0.26,0.307,0.461v0.92c0,1.473,1.054,2.718,2.507,2.96l4.33,0.721
		c0.055,0.009,0.112,0.014,0.167,0.014c0.208,0,0.408-0.065,0.579-0.187c0.217-0.155,0.361-0.386,0.405-0.649
		c0.006-0.035,0.01-0.07,0.012-0.105c0.008-0.523-0.389-0.983-0.924-1.059l-3.821-0.637c-0.726-0.12-1.254-0.742-1.254-1.479v-0.86
		c0-1.875-1.11-3.574-2.828-4.327c-1.022-0.448-2.102-0.675-3.21-0.675c-0.909,0-1.808,0.155-2.671,0.461L5.236,7.557
		c-0.497,0.163-0.8,0.649-0.727,1.157c0.044,0.251,0.189,0.478,0.408,0.631c0.169,0.119,0.367,0.182,0.572,0.182
		c0.058,0,0.117-0.005,0.175-0.015c0.055-0.01,0.109-0.024,0.161-0.042l3.126-1.106c0.633-0.221,1.295-0.333,1.967-0.333
		c0.702,0,1.391,0.122,2.047,0.362c0.162,0.059,0.283,0.201,0.318,0.37c0.034,0.169-0.022,0.347-0.148,0.465
		c-1.97,1.844-5.604,5.543-11.784,11.993c-0.401,0.396-0.441,1.02-0.099,1.454c0.162,0.186,0.403,0.303,0.669,0.322
		c0.026,0.002,0.051,0.003,0.076,0.003c0.24,0,0.465-0.085,0.65-0.246c0.024-0.021,0.046-0.042,0.067-0.064l0.701-0.728
		c0.094-0.097,0.225-0.153,0.36-0.153c0.13,0,0.253,0.05,0.347,0.139c0.199,0.192,0.204,0.509,0.013,0.707l-0.7,0.727
		c-0.042,0.043-0.086,0.086-0.132,0.126C2.94,23.823,2.475,23.998,1.994,23.998z"/>
</g>
</svg>
