<?xml version="1.0" encoding="utf-8"?>
<!-- Generator: Adobe Illustrator 22.1.0, SVG Export Plug-In . SVG Version: 6.00 Build 0)  -->
<svg version="1.1" id="Light" xmlns="http://www.w3.org/2000/svg" xmlns:xlink="http://www.w3.org/1999/xlink" x="0px" y="0px"
	 viewBox="0 0 24 24" style="enable-background:new 0 0 24 24;" xml:space="preserve">
<g>
	<title>safety-fire-exit-1</title>
	<path d="M23.505,14c-0.099,0-0.195-0.029-0.278-0.084l-0.6-0.4C22.12,13.178,21.529,13,20.919,13h-0.96
		c-2.007,0-3.704-1.437-4.034-3.418c-0.033-0.197,0.054-0.394,0.222-0.502C16.227,9.028,16.321,9,16.418,9
		c0.099,0,0.195,0.029,0.277,0.084L18.069,10h1.889c2.012,0,3.709,1.437,4.04,3.417c0.033,0.197-0.054,0.394-0.222,0.502
		C23.695,13.972,23.602,14,23.505,14z M17.566,10.867C18.143,11.568,19.018,12,19.959,12h0.955c0.549,0,1.084,0.108,1.581,0.316
		C21.927,11.507,20.984,11,19.963,11h-1.969c-0.148,0-0.292-0.043-0.416-0.125L17.566,10.867z"/>
	<path d="M23.5,23c-0.099,0-0.195-0.029-0.278-0.084L21.85,22h-1.891c-2.007,0-3.704-1.438-4.034-3.418
		c-0.033-0.197,0.054-0.394,0.222-0.502c0.082-0.052,0.175-0.08,0.272-0.08c0.099,0,0.195,0.029,0.277,0.084L18.069,19h1.89
		c2.007,0,3.704,1.438,4.034,3.417c0.033,0.197-0.054,0.394-0.222,0.502C23.69,22.972,23.596,23,23.5,23z M17.567,19.867
		C18.143,20.569,19.018,21,19.959,21h1.966c0.148,0,0.292,0.043,0.416,0.126l0.008,0.005c-0.576-0.7-1.45-1.131-2.39-1.131h-1.965
		c-0.148,0-0.292-0.043-0.416-0.125L17.567,19.867z"/>
	<path d="M22.877,18c-2.008,0-3.705-1.437-4.035-3.417c-0.033-0.197,0.054-0.394,0.222-0.502c0.081-0.052,0.175-0.08,0.272-0.08
		c0.099,0,0.195,0.029,0.278,0.084L20.986,15h2.473c0.276,0,0.5,0.224,0.5,0.5s-0.224,0.5-0.5,0.5h-2.548
		c-0.148,0-0.292-0.043-0.416-0.125l-0.011-0.008C21.061,16.569,21.936,17,22.877,17h0.582c0.276,0,0.5,0.224,0.5,0.5
		s-0.224,0.5-0.5,0.5H22.877z"/>
	<path d="M22.872,9c-2.008,0-3.705-1.438-4.034-3.418c-0.033-0.197,0.054-0.394,0.222-0.502C19.14,5.028,19.234,5,19.331,5
		c0.099,0,0.195,0.029,0.277,0.083L20.982,6h2.473c0.276,0,0.5,0.224,0.5,0.5S23.731,7,23.455,7h-2.548
		c-0.148,0-0.292-0.043-0.415-0.125l-0.012-0.008C21.055,7.568,21.93,8,22.872,8h0.583c0.276,0,0.5,0.224,0.5,0.5S23.731,9,23.455,9
		H22.872z"/>
	<path d="M4.499,7c-1.654,0-3-1.346-3-3s1.346-3,3-3s3,1.346,3,3S6.153,7,4.499,7z M4.499,2c-1.103,0-2,0.897-2,2s0.897,2,2,2
		s2-0.897,2-2S5.602,2,4.499,2z"/>
	<path d="M7,23c-1.103,0-2-0.897-2-2v-2.76c0.002-0.952,0.344-1.873,0.963-2.595l0.592-0.674c0.618-0.704,0.759-1.672,0.39-2.502
		C5.817,13.747,4.163,14.5,2.448,14.5H2c-1.103,0-2-0.897-2-2s0.897-2,2-2h0.441c0.644,0,1.253-0.313,1.627-0.838l0.406-0.568
		C5.411,7.783,6.932,7,8.543,7h0.764c2.434,0,4.59,1.44,5.515,3.669c0.381,0.876,0.108,1.89-0.665,2.462
		c-0.136,0.096-0.271,0.168-0.415,0.226c-0.237,0.095-0.487,0.143-0.741,0.143l0,0c-0.824,0-1.553-0.494-1.859-1.257
		c-0.217-0.546-0.661-0.962-1.22-1.143c-0.127-0.041-0.23-0.129-0.291-0.248s-0.072-0.255-0.03-0.382
		c0.067-0.207,0.258-0.346,0.476-0.346c0.052,0,0.104,0.008,0.154,0.024c0.843,0.273,1.514,0.901,1.841,1.724
		c0.152,0.381,0.518,0.628,0.93,0.628c0.126,0,0.251-0.024,0.369-0.072c0.072-0.029,0.14-0.066,0.202-0.109
		c0.388-0.287,0.525-0.807,0.328-1.259C13.13,9.2,11.335,8,9.328,8H8.543C7.254,8,6.037,8.626,5.288,9.676l-0.406,0.568
		C4.32,11.03,3.408,11.5,2.441,11.5H2c-0.551,0-1,0.449-1,1c0,0.552,0.449,1,1,1h0.446c1.611,0,3.129-0.781,4.064-2.091l0.079-0.107
		c0.092-0.125,0.234-0.198,0.389-0.202c0.001,0,0.001,0,0.002,0c0.164,0,0.302,0.066,0.397,0.182c1.05,1.277,1.021,3.106-0.07,4.348
		L6.719,16.3C6.258,16.838,6.002,17.528,6,18.241V21c0,0.552,0.449,1,1,1s1-0.448,1-1v-2.565c0-0.267,0.103-0.518,0.292-0.707
		c0.185-0.186,0.445-0.292,0.712-0.292c0.125,0,0.247,0.023,0.361,0.068l1.818,0.715c0.168,0.083,0.325,0.12,0.487,0.12
		c0.383,0,0.726-0.211,0.896-0.55c0.241-0.482,0.052-1.074-0.422-1.328l-1.532-0.528c-0.158-0.054-0.277-0.183-0.32-0.344
		c-0.043-0.162-0.002-0.333,0.108-0.458l0.414-0.472c0.094-0.108,0.231-0.17,0.376-0.17c0.121,0,0.238,0.044,0.329,0.124
		c0.101,0.088,0.161,0.21,0.17,0.344c0.006,0.095-0.014,0.188-0.059,0.27l0.875,0.302c0.022,0.008,0.042,0.016,0.061,0.025
		c0.986,0.493,1.388,1.697,0.895,2.683c-0.341,0.682-1.028,1.106-1.792,1.106c-0.311,0-0.611-0.071-0.891-0.211L9,18.434V21
		C9,22.103,8.103,23,7,23z"/>
</g>
</svg>
