<?xml version="1.0" encoding="utf-8"?>
<!-- Generator: Adobe Illustrator 22.1.0, SVG Export Plug-In . SVG Version: 6.00 Build 0)  -->
<svg version="1.1" id="Light" xmlns="http://www.w3.org/2000/svg" xmlns:xlink="http://www.w3.org/1999/xlink" x="0px" y="0px"
	 viewBox="0 0 24 24" style="enable-background:new 0 0 24 24;" xml:space="preserve">
<g>
	<title>safety-warning-cliff</title>
	<path d="M1.501,23.501c-0.24,0-0.48-0.059-0.694-0.17c-0.733-0.383-1.018-1.291-0.635-2.024l10.5-20.001
		c0.142-0.271,0.361-0.49,0.633-0.633c0.214-0.112,0.454-0.171,0.694-0.171c0.562,0,1.072,0.308,1.331,0.804l10.5,19.999
		c0.112,0.214,0.171,0.454,0.171,0.695c0,0.4-0.156,0.776-0.439,1.06s-0.66,0.44-1.06,0.44H1.501z M11.999,1.502
		c-0.081,0-0.158,0.019-0.23,0.057c-0.091,0.047-0.164,0.12-0.211,0.211L1.058,21.77c-0.061,0.117-0.073,0.252-0.033,0.38
		c0.04,0.128,0.127,0.232,0.245,0.293c0.071,0.037,0.151,0.057,0.231,0.057h21c0.276,0,0.5-0.225,0.5-0.5
		c0-0.08-0.02-0.16-0.057-0.231L12.444,1.77C12.357,1.604,12.187,1.502,11.999,1.502z"/>
	<path d="M13.48,11.923c-0.965,0-1.75-0.785-1.75-1.75s0.785-1.75,1.75-1.75s1.75,0.785,1.75,1.75S14.445,11.923,13.48,11.923z
		 M13.48,9.423c-0.413,0-0.75,0.336-0.75,0.75s0.336,0.75,0.75,0.75c0.414,0,0.75-0.336,0.75-0.75S13.893,9.423,13.48,9.423z"/>
	<path d="M9.295,20.961c-0.097,0-0.192-0.028-0.273-0.082c-0.112-0.073-0.188-0.185-0.216-0.316
		c-0.027-0.131-0.002-0.264,0.071-0.376l2.042-3.123l-0.744,0.059c-0.647,0.051-1.265,0.28-1.789,0.662l-1.101,0.801
		c-0.086,0.063-0.188,0.096-0.294,0.096c-0.16,0-0.311-0.077-0.405-0.206c-0.162-0.222-0.113-0.536,0.11-0.698l1.1-0.8
		c0.673-0.491,1.468-0.786,2.299-0.851l1.392-0.11c0.038-0.102,0.068-0.199,0.093-0.292l0.618-2.35
		c-0.17-0.05-0.336-0.113-0.494-0.187l-0.098-0.047c-0.992-0.463-1.89-1.09-2.668-1.863c-0.195-0.194-0.196-0.512-0.002-0.707
		c0.095-0.095,0.221-0.147,0.355-0.147c0.133,0,0.258,0.052,0.352,0.145c0.696,0.692,1.5,1.253,2.389,1.667l0.098,0.047
		c0.132,0.062,0.273,0.113,0.419,0.151l1.279,0.337c0.431,0.112,0.861,0.253,1.277,0.419c0.811,0.326,1.466,0.938,1.847,1.725
		c0.12,0.249,0.015,0.548-0.232,0.668c-0.068,0.033-0.143,0.05-0.218,0.05c-0.19,0-0.367-0.111-0.45-0.282
		c-0.272-0.562-0.74-1-1.319-1.232c-0.376-0.15-0.766-0.278-1.158-0.38l-0.409-0.108l-0.618,2.349
		c-0.06,0.228-0.139,0.454-0.235,0.671c-0.014,0.041-0.033,0.072-0.046,0.093c-0.085,0.186-0.191,0.378-0.305,0.552l-2.248,3.439
		C9.621,20.876,9.464,20.961,9.295,20.961z"/>
	<path d="M6.509,21.969c-0.276,0-0.5-0.224-0.5-0.5v-1h-2c-0.276,0-0.5-0.224-0.5-0.5s0.224-0.5,0.5-0.5h2c0.551,0,1,0.448,1,1v1
		C7.009,21.744,6.785,21.969,6.509,21.969z"/>
</g>
</svg>
