<?xml version="1.0" encoding="utf-8"?>
<!-- Generator: Adobe Illustrator 22.1.0, SVG Export Plug-In . SVG Version: 6.00 Build 0)  -->
<svg version="1.1" id="Light" xmlns="http://www.w3.org/2000/svg" xmlns:xlink="http://www.w3.org/1999/xlink" x="0px" y="0px"
	 viewBox="0 0 24 24" style="enable-background:new 0 0 24 24;" xml:space="preserve">
<g>
	<title>ticket-day-30</title>
	<path d="M9.498,10.5c-0.67-0.001-1.263-0.451-1.443-1.096C8.019,9.275,8.035,9.14,8.1,9.024c0.066-0.116,0.173-0.2,0.301-0.236
		c0.043-0.012,0.089-0.019,0.135-0.019c0.223,0,0.421,0.151,0.481,0.366C9.078,9.35,9.276,9.5,9.499,9.5c0.276,0,0.5-0.224,0.5-0.5
		c0-0.276-0.224-0.5-0.5-0.5C9.224,8.5,9,8.275,9,8c0-0.276,0.224-0.5,0.5-0.5c0.226,0,0.424-0.152,0.483-0.37
		C10.017,7,10,6.866,9.933,6.75C9.866,6.634,9.758,6.552,9.63,6.517C9.587,6.506,9.543,6.5,9.499,6.5
		c-0.087,0-0.173,0.023-0.249,0.067C9.134,6.634,9.052,6.741,9.017,6.87C8.958,7.089,8.76,7.241,8.535,7.241
		c-0.044,0-0.088-0.006-0.13-0.017C8.276,7.189,8.168,7.107,8.101,6.991c-0.067-0.116-0.085-0.25-0.05-0.379
		c0.104-0.387,0.352-0.71,0.699-0.911C8.979,5.569,9.237,5.5,9.498,5.5c0.131,0,0.262,0.017,0.39,0.052
		c0.387,0.104,0.71,0.352,0.911,0.699c0.2,0.347,0.253,0.751,0.15,1.138C10.888,7.615,10.773,7.825,10.617,8
		c0.247,0.276,0.382,0.628,0.382,1.001c0,0.401-0.157,0.777-0.44,1.06c-0.283,0.283-0.659,0.438-1.06,0.438H9.498z"/>
	<path d="M13.5,10.5C12.673,10.5,12,9.827,12,9V7c0-0.827,0.673-1.5,1.5-1.5S15,6.173,15,7v2C15,9.827,14.327,10.5,13.5,10.5z
		 M13.5,6.5C13.224,6.5,13,6.724,13,7v2c0,0.276,0.224,0.5,0.5,0.5S14,9.276,14,9V7C14,6.724,13.776,6.5,13.5,6.5z"/>
	<path d="M1.5,20.5C0.673,20.5,0,19.827,0,19v-3.031c-0.004-0.503,0.372-0.932,0.874-0.996c0.795-0.099,1.503-0.503,1.996-1.136
		c0.493-0.633,0.709-1.419,0.61-2.213C3.31,10.261,2.238,9.19,0.875,9.019C0.372,8.955-0.004,8.525,0,8.019V5
		c0-0.827,0.673-1.5,1.5-1.5h21C23.327,3.5,24,4.173,24,5v3.031c0.004,0.503-0.372,0.932-0.874,0.996
		c-0.796,0.099-1.505,0.502-1.997,1.135c-0.492,0.633-0.708,1.419-0.609,2.214c0.17,1.363,1.242,2.435,2.605,2.605
		c0.503,0.063,0.879,0.493,0.875,1V19c0,0.827-0.673,1.5-1.5,1.5H1.5z M1.5,4.5C1.224,4.5,1,4.724,1,5v3.023
		C2.817,8.254,4.245,9.682,4.472,11.5c0.132,1.058-0.156,2.107-0.813,2.951s-1.601,1.382-2.66,1.514L1,19c0,0.276,0.224,0.5,0.5,0.5
		h21c0.276,0,0.5-0.224,0.5-0.5v-3.023c-1.817-0.231-3.245-1.659-3.472-3.477c-0.133-1.06,0.156-2.109,0.812-2.952
		c0.656-0.843,1.601-1.381,2.661-1.513L23,5c0-0.276-0.224-0.5-0.5-0.5H1.5z"/>
	<path d="M13.5,18.5c-0.276,0-0.5-0.224-0.5-0.5v-1.5h-1V18c0,0.276-0.224,0.5-0.5,0.5S11,18.276,11,18v-4
		c0-0.827,0.673-1.5,1.5-1.5S14,13.173,14,14v4C14,18.276,13.776,18.5,13.5,18.5z M13,15.5V14c0-0.276-0.224-0.5-0.5-0.5
		c-0.276,0-0.5,0.224-0.5,0.5v1.5H13z"/>
	<path d="M16.5,18.5c-0.276,0-0.5-0.224-0.5-0.5v-2.086c-0.59-0.209-1-0.774-1-1.414V13c0-0.276,0.224-0.5,0.5-0.5S16,12.724,16,13
		v1.5c0,0.276,0.224,0.5,0.5,0.5s0.5-0.224,0.5-0.5V13c0-0.276,0.224-0.5,0.5-0.5S18,12.724,18,13v1.5c0,0.64-0.41,1.205-1,1.414V18
		C17,18.276,16.776,18.5,16.5,18.5z"/>
	<path d="M7.5,18.5C7.224,18.5,7,18.276,7,18v-5c0-0.276,0.224-0.5,0.5-0.5c1.379,0,2.5,1.122,2.5,2.5v1
		C10,17.378,8.879,18.5,7.5,18.5z M8,17.414C8.586,17.206,9,16.641,9,16v-1c0-0.641-0.414-1.206-1-1.414V17.414z"/>
</g>
</svg>
