<?xml version="1.0" encoding="utf-8"?>
<!-- Generator: Adobe Illustrator 22.1.0, SVG Export Plug-In . SVG Version: 6.00 Build 0)  -->
<svg version="1.1" id="Light" xmlns="http://www.w3.org/2000/svg" xmlns:xlink="http://www.w3.org/1999/xlink" x="0px" y="0px"
	 viewBox="0 0 24 24" style="enable-background:new 0 0 24 24;" xml:space="preserve">
<g>
	<title>ticket-two</title>
	<path d="M2,24c-0.827,0-1.5-0.673-1.5-1.5v-16C0.5,5.673,1.173,5,2,5h10c0.827,0,1.5,0.673,1.5,1.5v16c0,0.827-0.673,1.5-1.5,1.5H2
		z M2,6C1.724,6,1.5,6.224,1.5,6.5v16C1.5,22.776,1.724,23,2,23h10c0.276,0,0.5-0.224,0.5-0.5v-16C12.5,6.224,12.276,6,12,6H2z"/>
	<path d="M8,13c-0.203,0-0.384-0.121-0.462-0.309c-0.078-0.188-0.035-0.401,0.108-0.545l2.613-2.613
		c0.155-0.155,0.24-0.361,0.24-0.58c0-0.255-0.099-0.495-0.279-0.675C10.041,8.099,9.802,8,9.548,8C9.137,8,8.773,8.262,8.643,8.651
		C8.575,8.856,8.385,8.993,8.169,8.993c-0.053,0-0.107-0.009-0.158-0.025C7.749,8.88,7.607,8.596,7.695,8.335
		C7.961,7.536,8.706,7,9.547,7c0.522,0,1.012,0.203,1.38,0.571c0.369,0.368,0.572,0.858,0.573,1.38c0,0.488-0.189,0.946-0.533,1.29
		L9.207,12H11c0.276,0,0.5,0.224,0.5,0.5c0,0.276-0.224,0.5-0.5,0.5H8z"/>
	<circle cx="3.25" cy="18.75" r="0.75"/>
	<circle cx="5.75" cy="18.75" r="0.75"/>
	<circle cx="8.25" cy="18.75" r="0.75"/>
	<circle cx="10.75" cy="18.75" r="0.75"/>
	<path d="M15.5,19c-0.276,0-0.5-0.224-0.5-0.5s0.224-0.5,0.5-0.5H22c0.276,0,0.5-0.224,0.5-0.5v-16C22.5,1.224,22.276,1,22,1H12
		c-0.276,0-0.5,0.224-0.5,0.5v2C11.5,3.776,11.276,4,11,4s-0.5-0.224-0.5-0.5v-2C10.5,0.673,11.173,0,12,0h10
		c0.827,0,1.5,0.673,1.5,1.5v16c0,0.827-0.673,1.5-1.5,1.5H15.5z"/>
	<circle cx="15.75" cy="13.75" r="0.75"/>
	<circle cx="18.25" cy="13.75" r="0.75"/>
	<circle cx="20.75" cy="13.75" r="0.75"/>
	<path d="M19,8c-0.276,0-0.5-0.224-0.5-0.5S18.724,7,19,7h0.5V3l-1.2,0.9C18.213,3.965,18.109,4,18,4c-0.156,0-0.306-0.075-0.4-0.2
		c-0.08-0.107-0.114-0.239-0.095-0.371C17.524,3.297,17.593,3.18,17.7,3.1l1.2-0.9C19.072,2.071,19.285,2,19.5,2
		c0.552,0,1,0.449,1,1v4H21c0.276,0,0.5,0.224,0.5,0.5S21.276,8,21,8H19z"/>
</g>
</svg>
