<?xml version="1.0" encoding="utf-8"?>
<!-- Generator: Adobe Illustrator 22.1.0, SVG Export Plug-In . SVG Version: 6.00 Build 0)  -->
<svg version="1.1" id="Light" xmlns="http://www.w3.org/2000/svg" xmlns:xlink="http://www.w3.org/1999/xlink" x="0px" y="0px"
	 viewBox="0 0 24 24" style="enable-background:new 0 0 24 24;" xml:space="preserve">
<g>
	<title>kitchen-shelf</title>
	<path d="M1.5,6C0.673,6,0,5.327,0,4.5S0.673,3,1.5,3h3.305C4.135,2.348,3.75,1.455,3.75,0.5c0-0.276,0.224-0.5,0.5-0.5h7.5
		c0.276,0,0.5,0.224,0.5,0.5c0,0.955-0.385,1.848-1.055,2.5H22.5C23.327,3,24,3.673,24,4.5S23.327,6,22.5,6H1.5z M1.5,4
		C1.224,4,1,4.224,1,4.5S1.224,5,1.5,5h21C22.776,5,23,4.776,23,4.5S22.776,4,22.5,4H1.5z M4.8,1c0.235,1.141,1.262,2,2.45,2h1.5
		c1.188,0,2.215-0.859,2.45-2H4.8z"/>
	<path d="M1.5,15C0.673,15,0,14.327,0,13.5S0.673,12,1.5,12h1.055C1.885,11.348,1.5,10.455,1.5,9.5C1.5,9.224,1.724,9,2,9h7.5
		C9.776,9,10,9.224,10,9.5c0,0.955-0.385,1.848-1.055,2.5H13V7.5C13,7.224,13.224,7,13.5,7h5C18.776,7,19,7.224,19,7.5V8h0.377
		C20.272,8,21,8.727,21.002,9.62c0.001,0.749-0.505,1.398-1.233,1.578L19,11.39V12h3.5c0.827,0,1.5,0.673,1.5,1.5S23.327,15,22.5,15
		H1.5z M1.5,13C1.224,13,1,13.224,1,13.5S1.224,14,1.5,14h21c0.276,0,0.5-0.224,0.5-0.5S22.776,13,22.5,13H1.5z M18,12V8h-4v4H18z
		 M2.55,10c0.235,1.141,1.262,2,2.45,2h1.5c1.188,0,2.215-0.859,2.45-2H2.55z M19,10.36l0.528-0.132
		c0.28-0.069,0.474-0.318,0.474-0.606c0-0.343-0.28-0.622-0.623-0.622H19V10.36z"/>
	<path d="M7.25,24c-1.516,0-2.75-1.234-2.75-2.75C4.5,20.561,5.061,20,5.75,20H9v-3.5C9,16.224,9.224,16,9.5,16s0.5,0.224,0.5,0.5
		v4.75C10,22.766,8.766,24,7.25,24z M5.75,21c-0.138,0-0.25,0.112-0.25,0.25C5.5,22.215,6.285,23,7.25,23S9,22.215,9,21.25V21H5.75z
		"/>
	<path d="M20.5,19.5c-0.276,0-0.5-0.224-0.5-0.5v-2.5c0-0.276,0.224-0.5,0.5-0.5s0.5,0.224,0.5,0.5V19
		C21,19.276,20.776,19.5,20.5,19.5z"/>
	<path d="M20.5,24c-1.103,0-2-1.122-2-2.5s0.897-2.5,2-2.5s2,1.122,2,2.5S21.603,24,20.5,24z M20.5,20c-0.542,0-1,0.687-1,1.5
		s0.458,1.5,1,1.5s1-0.687,1-1.5S21.042,20,20.5,20z"/>
	<path d="M14.5,19.5c-0.276,0-0.5-0.224-0.5-0.5v-2.5c0-0.276,0.224-0.5,0.5-0.5s0.5,0.224,0.5,0.5V19
		C15,19.276,14.776,19.5,14.5,19.5z"/>
	<path d="M14.5,24c-1.103,0-2-1.122-2-2.5s0.897-2.5,2-2.5s2,1.122,2,2.5S15.603,24,14.5,24z M14.5,20c-0.542,0-1,0.687-1,1.5
		s0.458,1.5,1,1.5s1-0.687,1-1.5S15.042,20,14.5,20z"/>
</g>
</svg>
