<?xml version="1.0" encoding="utf-8"?>
<!-- Generator: Adobe Illustrator 22.1.0, SVG Export Plug-In . SVG Version: 6.00 Build 0)  -->
<svg version="1.1" id="Light" xmlns="http://www.w3.org/2000/svg" xmlns:xlink="http://www.w3.org/1999/xlink" x="0px" y="0px"
	 viewBox="0 0 24 24" style="enable-background:new 0 0 24 24;" xml:space="preserve">
<g>
	<title>kitchen-knife-set</title>
	<path d="M15.171,20.753c-0.17,0-0.334-0.036-0.488-0.108c-0.29-0.135-0.511-0.375-0.621-0.677s-0.096-0.627,0.04-0.918l1.244-2.679
		c0.082-0.176,0.26-0.29,0.454-0.29c0.073,0,0.144,0.016,0.211,0.047c0.249,0.116,0.358,0.414,0.242,0.664l-1.245,2.68
		c-0.023,0.05-0.026,0.103-0.007,0.154c0.019,0.051,0.054,0.09,0.104,0.113c0.021,0.01,0.043,0.015,0.067,0.015
		s0.046-0.005,0.068-0.015c1.621-0.785,3.035-1.978,4.088-3.447c0.094-0.131,0.246-0.209,0.407-0.209
		c0.105,0,0.205,0.032,0.29,0.093c0.224,0.161,0.276,0.474,0.116,0.698c-1.149,1.605-2.696,2.908-4.473,3.769
		C15.507,20.716,15.341,20.753,15.171,20.753z"/>
	<path d="M8.171,20.753c-0.17,0-0.334-0.036-0.488-0.108c-0.29-0.135-0.51-0.375-0.62-0.677c-0.11-0.301-0.096-0.627,0.039-0.917
		l1.245-2.679c0.081-0.176,0.259-0.29,0.453-0.29c0.073,0,0.144,0.016,0.211,0.047c0.25,0.116,0.359,0.414,0.242,0.664l-1.245,2.68
		c-0.047,0.1-0.003,0.22,0.097,0.266c0.021,0.01,0.044,0.015,0.067,0.015c0.023,0,0.046-0.005,0.067-0.015
		c1.621-0.785,3.036-1.978,4.088-3.448c0.094-0.131,0.246-0.209,0.407-0.209c0.105,0,0.205,0.032,0.291,0.093
		c0.224,0.161,0.276,0.474,0.116,0.698c-1.15,1.605-2.696,2.908-4.473,3.769C8.507,20.716,8.341,20.753,8.171,20.753z"/>
	<path d="M1.171,20.753c-0.17,0-0.334-0.036-0.488-0.108c-0.29-0.135-0.51-0.375-0.62-0.677c-0.11-0.301-0.096-0.627,0.039-0.917
		l1.245-2.679c0.081-0.176,0.259-0.29,0.453-0.29c0.073,0,0.145,0.016,0.211,0.047c0.25,0.116,0.358,0.414,0.242,0.664l-1.245,2.68
		c-0.047,0.1-0.003,0.22,0.097,0.266c0.021,0.01,0.044,0.015,0.067,0.015c0.023,0,0.046-0.005,0.067-0.015
		c1.621-0.785,3.036-1.978,4.088-3.448c0.094-0.131,0.246-0.209,0.407-0.209c0.105,0,0.205,0.032,0.291,0.093
		c0.224,0.161,0.276,0.474,0.115,0.698c-1.149,1.605-2.696,2.908-4.473,3.769C1.507,20.716,1.341,20.753,1.171,20.753z"/>
	<path d="M1.489,15.082c-0.827,0-1.5-0.673-1.5-1.5s0.673-1.5,1.5-1.5h1.86l3.848-8.259C7.309,3.581,7.51,3.397,7.761,3.306
		c0.111-0.04,0.226-0.061,0.343-0.061c0.146,0,0.288,0.032,0.422,0.094l0.906,0.423c0.242,0.112,0.425,0.313,0.517,0.564
		c0.092,0.251,0.08,0.523-0.033,0.765l-1.69,3.626L8.68,8.927c0.75,0.349,1.075,1.244,0.726,1.993l-0.54,1.161h1.484l3.848-8.258
		c0.164-0.351,0.52-0.578,0.907-0.578c0.146,0,0.288,0.031,0.422,0.094l0.906,0.422c0.242,0.113,0.426,0.313,0.517,0.564
		c0.092,0.251,0.08,0.523-0.033,0.765l-1.689,3.626l0.453,0.211c0.364,0.169,0.639,0.47,0.776,0.846
		c0.137,0.376,0.119,0.784-0.05,1.147l-0.54,1.161h1.483l3.848-8.259c0.163-0.351,0.52-0.578,0.908-0.578
		c0.146,0,0.288,0.031,0.421,0.094l0.906,0.422c0.5,0.232,0.717,0.828,0.484,1.328l-1.689,3.626l0.453,0.211
		c0.363,0.169,0.639,0.47,0.776,0.846c0.137,0.376,0.119,0.784-0.05,1.147l-0.561,1.206c0.661,0.164,1.144,0.754,1.144,1.455
		c0,0.827-0.673,1.5-1.5,1.5H1.489z M1.489,13.082c-0.276,0-0.5,0.224-0.5,0.5s0.224,0.5,0.5,0.5h21c0.276,0,0.5-0.224,0.5-0.5
		s-0.224-0.5-0.5-0.5H1.489z M21.761,12.082c0.039-0.081,0.077-0.162,0.115-0.243l0.624-1.34c0.056-0.121,0.062-0.257,0.017-0.383
		c-0.046-0.125-0.137-0.226-0.259-0.282l-2.266-1.056l-1.54,3.304H21.761z M14.761,12.082c0.039-0.081,0.077-0.162,0.115-0.243
		l0.624-1.34c0.056-0.121,0.062-0.257,0.017-0.383c-0.046-0.125-0.137-0.226-0.259-0.282l-2.266-1.056l-1.54,3.304H14.761z
		 M7.761,12.082c0.039-0.081,0.077-0.162,0.115-0.243l0.623-1.34c0.117-0.25,0.008-0.548-0.242-0.665L5.992,8.778l-1.539,3.304
		H7.761z M14.32,8.294l1.69-3.626c0,0-0.907-0.422-0.907-0.422l-1.688,3.625L14.32,8.294z M21.32,8.293l1.69-3.626
		c0,0-0.907-0.422-0.907-0.422l-1.689,3.625L21.32,8.293z M7.32,8.293L9.01,4.668L8.103,4.245L6.414,7.871L7.32,8.293z"/>
</g>
</svg>
