<?xml version="1.0" encoding="utf-8"?>
<!-- Generator: Adobe Illustrator 22.1.0, SVG Export Plug-In . SVG Version: 6.00 Build 0)  -->
<svg version="1.1" id="Layer_1" xmlns="http://www.w3.org/2000/svg" xmlns:xlink="http://www.w3.org/1999/xlink" x="0px" y="0px"
	 viewBox="0 0 24 24" style="enable-background:new 0 0 24 24;" xml:space="preserve">
<g>
	<title>resize-expand-corner-1</title>
	<path d="M1.5,24C0.673,24,0,23.327,0,22.5v-8C0,13.673,0.673,13,1.5,13h8c0.827,0,1.5,0.673,1.5,1.5v8c0,0.827-0.673,1.5-1.5,1.5
		H1.5z M1.5,14C1.224,14,1,14.224,1,14.5v8C1,22.776,1.224,23,1.5,23h8c0.276,0,0.5-0.224,0.5-0.5v-8c0-0.276-0.224-0.5-0.5-0.5H1.5
		z"/>
	<path d="M12.5,12c-0.134,0-0.259-0.052-0.354-0.146S12,11.634,12,11.5s0.052-0.259,0.146-0.354L19.293,4H15.5
		C15.224,4,15,3.776,15,3.5S15.224,3,15.5,3h5c0.066,0,0.13,0.013,0.191,0.038c0.123,0.051,0.219,0.147,0.27,0.27
		C20.987,3.37,21,3.434,21,3.5v5C21,8.776,20.776,9,20.5,9S20,8.776,20,8.5V4.707l-7.146,7.146C12.759,11.948,12.634,12,12.5,12z"/>
	<path d="M4.5,2C4.224,2,4,1.776,4,1.5C4,0.673,4.673,0,5.5,0C5.776,0,6,0.224,6,0.5S5.776,1,5.5,1S5,1.224,5,1.5S4.776,2,4.5,2z"/>
	<path d="M23.5,2C23.224,2,23,1.776,23,1.5S22.776,1,22.5,1S22,0.776,22,0.5S22.224,0,22.5,0C23.327,0,24,0.673,24,1.5
		C24,1.776,23.776,2,23.5,2z"/>
	<path d="M4.5,5C4.224,5,4,4.776,4,4.5v-1C4,3.224,4.224,3,4.5,3S5,3.224,5,3.5v1C5,4.776,4.776,5,4.5,5z"/>
	<path d="M7.5,1C7.224,1,7,0.776,7,0.5S7.224,0,7.5,0h1C8.776,0,9,0.224,9,0.5S8.776,1,8.5,1H7.5z"/>
	<path d="M10.5,1C10.224,1,10,0.776,10,0.5S10.224,0,10.5,0h1C11.776,0,12,0.224,12,0.5S11.776,1,11.5,1H10.5z"/>
	<path d="M13.5,1C13.224,1,13,0.776,13,0.5S13.224,0,13.5,0h1C14.776,0,15,0.224,15,0.5S14.776,1,14.5,1H13.5z"/>
	<path d="M16.5,1C16.224,1,16,0.776,16,0.5S16.224,0,16.5,0h1C17.776,0,18,0.224,18,0.5S17.776,1,17.5,1H16.5z"/>
	<path d="M19.5,1C19.224,1,19,0.776,19,0.5S19.224,0,19.5,0h1C20.776,0,21,0.224,21,0.5S20.776,1,20.5,1H19.5z"/>
	<path d="M13.5,20c-0.276,0-0.5-0.224-0.5-0.5s0.224-0.5,0.5-0.5h1c0.276,0,0.5,0.224,0.5,0.5S14.776,20,14.5,20H13.5z"/>
	<path d="M16.5,20c-0.276,0-0.5-0.224-0.5-0.5s0.224-0.5,0.5-0.5h1c0.276,0,0.5,0.224,0.5,0.5S17.776,20,17.5,20H16.5z"/>
	<path d="M19.5,20c-0.276,0-0.5-0.224-0.5-0.5s0.224-0.5,0.5-0.5h1c0.276,0,0.5,0.224,0.5,0.5S20.776,20,20.5,20H19.5z"/>
	<path d="M22.5,20c-0.276,0-0.5-0.224-0.5-0.5s0.224-0.5,0.5-0.5s0.5-0.224,0.5-0.5s0.224-0.5,0.5-0.5s0.5,0.224,0.5,0.5
		C24,19.327,23.327,20,22.5,20z"/>
	<path d="M23.5,17c-0.276,0-0.5-0.224-0.5-0.5v-1c0-0.276,0.224-0.5,0.5-0.5s0.5,0.224,0.5,0.5v1C24,16.776,23.776,17,23.5,17z"/>
	<path d="M23.5,14c-0.276,0-0.5-0.224-0.5-0.5v-1c0-0.276,0.224-0.5,0.5-0.5s0.5,0.224,0.5,0.5v1C24,13.776,23.776,14,23.5,14z"/>
	<path d="M23.5,11c-0.276,0-0.5-0.224-0.5-0.5v-1C23,9.224,23.224,9,23.5,9S24,9.224,24,9.5v1C24,10.776,23.776,11,23.5,11z"/>
	<path d="M23.5,8C23.224,8,23,7.776,23,7.5v-1C23,6.224,23.224,6,23.5,6S24,6.224,24,6.5v1C24,7.776,23.776,8,23.5,8z"/>
	<path d="M4.5,11C4.224,11,4,10.776,4,10.5v-1C4,9.224,4.224,9,4.5,9S5,9.224,5,9.5v1C5,10.776,4.776,11,4.5,11z"/>
	<path d="M4.5,8C4.224,8,4,7.776,4,7.5v-1C4,6.224,4.224,6,4.5,6S5,6.224,5,6.5v1C5,7.776,4.776,8,4.5,8z"/>
	<path d="M23.5,5C23.224,5,23,4.776,23,4.5v-1C23,3.224,23.224,3,23.5,3S24,3.224,24,3.5v1C24,4.776,23.776,5,23.5,5z"/>
</g>
</svg>
