<?xml version="1.0" encoding="utf-8"?>
<!-- Generator: Adobe Illustrator 22.1.0, SVG Export Plug-In . SVG Version: 6.00 Build 0)  -->
<svg version="1.1" id="Layer_1" xmlns="http://www.w3.org/2000/svg" xmlns:xlink="http://www.w3.org/1999/xlink" x="0px" y="0px"
	 viewBox="0 0 24 24" style="enable-background:new 0 0 24 24;" xml:space="preserve">
<g>
	<title>browser-idea</title>
	<circle cx="3.25" cy="2.5" r="0.75"/>
	<circle cx="5.75" cy="2.5" r="0.75"/>
	<circle cx="8.25" cy="2.5" r="0.75"/>
	<path d="M2.5,16C1.121,16,0,14.878,0,13.5v-11C0,1.121,1.121,0,2.5,0h16C19.878,0,21,1.121,21,2.5v4C21,6.776,20.776,7,20.5,7
		S20,6.776,20,6.5V5H1v8.5C1,14.327,1.673,15,2.5,15H6c0.276,0,0.5,0.224,0.5,0.5S6.276,16,6,16H2.5z M20,4V2.5
		C20,1.673,19.327,1,18.5,1h-16C1.673,1,1,1.673,1,2.5V4H20z"/>
	<path d="M15.6,24c-0.276,0-0.5-0.224-0.5-0.5s0.224-0.5,0.5-0.5h1.8c0.276,0,0.5,0.224,0.5,0.5S17.676,24,17.4,24H15.6z"/>
	<path d="M14.5,22c-0.276,0-0.5-0.224-0.5-0.5s0.224-0.5,0.5-0.5h4c0.276,0,0.5,0.224,0.5,0.5S18.776,22,18.5,22H14.5z"/>
	<path d="M16.5,10.5c-0.276,0-0.5-0.224-0.5-0.5V8.5C16,8.224,16.224,8,16.5,8S17,8.224,17,8.5V10C17,10.276,16.776,10.5,16.5,10.5z
		"/>
	<path d="M9.5,16C9.224,16,9,15.776,9,15.5S9.224,15,9.5,15H11c0.276,0,0.5,0.224,0.5,0.5S11.276,16,11,16H9.5z"/>
	<path d="M22,16c-0.276,0-0.5-0.224-0.5-0.5S21.724,15,22,15h1.5c0.276,0,0.5,0.224,0.5,0.5S23.776,16,23.5,16H22z"/>
	<path d="M12,12.5c-0.134,0-0.259-0.052-0.354-0.146l-1.273-1.273c-0.094-0.094-0.146-0.22-0.146-0.354s0.052-0.259,0.146-0.354
		s0.22-0.146,0.354-0.146s0.259,0.052,0.354,0.146l1.273,1.273c0.195,0.195,0.195,0.512,0,0.707C12.259,12.448,12.134,12.5,12,12.5z
		"/>
	<path d="M21,12.5c-0.134,0-0.259-0.052-0.354-0.146c-0.195-0.195-0.195-0.512,0-0.707l1.273-1.273
		c0.094-0.094,0.22-0.146,0.354-0.146s0.259,0.052,0.354,0.146s0.146,0.22,0.146,0.354s-0.052,0.259-0.146,0.354l-1.273,1.273
		C21.259,12.448,21.134,12.5,21,12.5z"/>
	<path d="M15,20c-0.552,0-1-0.448-1-1v-0.22c-1.049-0.764-1.621-2.026-1.498-3.327c-0.002-1.033,0.414-2.03,1.171-2.783
		C14.43,11.915,15.434,11.5,16.5,11.5c2.199,0,3.993,1.789,4,3.988c0.116,1.269-0.456,2.521-1.5,3.279V19c0,0.552-0.448,1-1,1H15z
		 M16.5,12.5c-1.654,0-3,1.346-3,3c-0.098,1.064,0.386,2.047,1.263,2.589C14.909,18.179,15,18.342,15,18.514V19h3v-0.5
		c0-0.173,0.092-0.336,0.239-0.426c0.862-0.528,1.358-1.52,1.263-2.527C19.502,15.539,19.5,15.508,19.5,15.5
		C19.5,13.846,18.154,12.5,16.5,12.5z"/>
</g>
</svg>
