<?xml version="1.0" encoding="utf-8"?>
<!-- Generator: Adobe Illustrator 22.1.0, SVG Export Plug-In . SVG Version: 6.00 Build 0)  -->
<svg version="1.1" id="Layer_1" xmlns="http://www.w3.org/2000/svg" xmlns:xlink="http://www.w3.org/1999/xlink" x="0px" y="0px"
	 viewBox="0 0 24 24" style="enable-background:new 0 0 24 24;" xml:space="preserve">
<g>
	<title>bulb</title>
	<path d="M12,24c-0.276,0-0.5-0.224-0.5-0.5v-1.019c-2.603-0.164-3-1.614-3-2.481v-2.429c-2.174-1.222-3.543-3.592-3.5-6.08
		C5.069,7.64,8.14,4.569,11.991,4.5c3.866,0.069,6.94,3.14,7.009,6.991c0.043,2.488-1.326,4.858-3.5,6.08V20
		c0,0.867-0.397,2.318-3,2.481V23.5C12.5,23.776,12.276,24,12,24z M9.5,20c0,0.371,0,1.5,2.5,1.5s2.5-1.129,2.5-1.5H9.5z M14.5,19
		v-1h-5v1H14.5z M14.402,17c2.195-0.912,3.639-3.113,3.598-5.491c-0.059-3.31-2.698-5.95-6.009-6.009
		C8.694,5.559,6.059,8.198,6,11.509C5.959,13.888,7.402,16.088,9.598,17H11.5v-3.793l-1.854-1.854c-0.195-0.195-0.195-0.512,0-0.707
		C9.741,10.552,9.866,10.5,10,10.5s0.259,0.052,0.354,0.146L12,12.293l1.646-1.646C13.741,10.552,13.866,10.5,14,10.5
		s0.259,0.052,0.354,0.146S14.5,10.866,14.5,11s-0.052,0.259-0.146,0.354L12.5,13.207V17H14.402z"/>
	<path d="M12,3c-0.276,0-0.5-0.224-0.5-0.5v-2C11.5,0.224,11.724,0,12,0c0.276,0,0.5,0.224,0.5,0.5v2C12.5,2.776,12.276,3,12,3z"/>
	<path d="M1,11c-0.276,0-0.5-0.224-0.5-0.5S0.724,10,1,10h2.291c0.276,0,0.5,0.224,0.5,0.5S3.567,11,3.291,11H1z"/>
	<path d="M5.5,5.5c-0.134,0-0.259-0.052-0.354-0.146l-2-2C3.052,3.259,3,3.134,3,3s0.052-0.259,0.146-0.354S3.366,2.5,3.5,2.5
		s0.259,0.052,0.354,0.146l2,2C5.948,4.741,6,4.866,6,5S5.948,5.259,5.854,5.354S5.634,5.5,5.5,5.5z"/>
	<path d="M20.709,11c-0.276,0-0.5-0.224-0.5-0.5s0.224-0.5,0.5-0.5H23c0.276,0,0.5,0.224,0.5,0.5S23.276,11,23,11H20.709z"/>
	<path d="M18.5,5.5c-0.134,0-0.259-0.052-0.354-0.146S18,5.134,18,5s0.052-0.259,0.146-0.354l2-2C20.241,2.552,20.366,2.5,20.5,2.5
		s0.259,0.052,0.354,0.146S21,2.866,21,3s-0.052,0.259-0.146,0.354l-2,2C18.759,5.448,18.634,5.5,18.5,5.5z"/>
</g>
</svg>
