<?xml version="1.0" encoding="utf-8"?>
<!-- Generator: Adobe Illustrator 22.1.0, SVG Export Plug-In . SVG Version: 6.00 Build 0)  -->
<svg version="1.1" id="Layer_1" xmlns="http://www.w3.org/2000/svg" xmlns:xlink="http://www.w3.org/1999/xlink" x="0px" y="0px"
	 viewBox="0 0 24 24" style="enable-background:new 0 0 24 24;" xml:space="preserve">
<g>
	<title>bulb-1</title>
	<path d="M12,23.955c-0.276,0-0.5-0.224-0.5-0.5v-1.019c-2.603-0.164-3-1.614-3-2.481v-2.429c-2.174-1.222-3.543-3.592-3.5-6.08
		c0.069-3.852,3.14-6.922,6.991-6.991c3.866,0.069,6.94,3.14,7.009,6.991c0.043,2.488-1.326,4.858-3.5,6.08v2.429
		c0,0.867-0.397,2.318-3,2.481v1.019C12.5,23.731,12.276,23.955,12,23.955z M9.5,19.955c0,0.371,0,1.5,2.5,1.5s2.5-1.129,2.5-1.5
		H9.5z M14.5,18.955v-1h-5v1H14.5z M14.402,16.955c2.195-0.912,3.639-3.113,3.598-5.491c-0.059-3.31-2.698-5.95-6.009-6.009
		C8.694,5.514,6.059,8.154,6,11.464c-0.041,2.379,1.402,4.579,3.598,5.491H10.5v-4H10c-0.827,0-1.5-0.673-1.5-1.5
		c0-0.827,0.673-1.5,1.5-1.5c0.012-0.001,0.036-0.002,0.061-0.002c0.766,0,1.398,0.604,1.439,1.375c0.003,0.051,0.003,0.103,0,0.154
		l0,0.473h1v-0.5c0-0.827,0.673-1.5,1.5-1.5s1.5,0.673,1.5,1.5c0,0.827-0.673,1.5-1.5,1.5h-0.5v4H14.402z M12.5,16.955v-4h-1l0,4
		H12.5z M14,11.955c0.276,0,0.5-0.224,0.5-0.5s-0.224-0.5-0.5-0.5s-0.5,0.224-0.5,0.5v0.5H14z M10.025,10.955
		c-0.3,0-0.525,0.22-0.525,0.501c0,0.276,0.224,0.5,0.5,0.5h0.5v-0.5c0.001-0.038,0.002-0.056,0.001-0.073
		c-0.013-0.24-0.21-0.428-0.45-0.428L10.025,10.955z"/>
	<path d="M12,2.955c-0.276,0-0.5-0.224-0.5-0.5v-1.91c0-0.276,0.224-0.5,0.5-0.5c0.276,0,0.5,0.224,0.5,0.5v1.91
		C12.5,2.731,12.276,2.955,12,2.955z"/>
	<path d="M1,10.955c-0.276,0-0.5-0.224-0.5-0.5s0.224-0.5,0.5-0.5h2.291c0.276,0,0.5,0.224,0.5,0.5s-0.224,0.5-0.5,0.5H1z"/>
	<path d="M5.5,5.455c-0.134,0-0.259-0.052-0.354-0.147l-1.909-1.91c-0.094-0.094-0.146-0.22-0.146-0.354
		c0-0.134,0.052-0.259,0.147-0.354c0.094-0.094,0.22-0.146,0.354-0.146S3.85,2.597,3.945,2.692l1.909,1.91
		C5.948,4.696,6,4.822,6,4.955c0,0.134-0.052,0.259-0.147,0.354C5.759,5.403,5.634,5.455,5.5,5.455z"/>
	<path d="M20.709,10.955c-0.276,0-0.5-0.224-0.5-0.5s0.224-0.5,0.5-0.5H23c0.276,0,0.5,0.224,0.5,0.5s-0.224,0.5-0.5,0.5H20.709z"/>
	<path d="M18.5,5.455c-0.133,0-0.259-0.052-0.353-0.146C18.052,5.214,18,5.089,18,4.955c0-0.134,0.052-0.259,0.146-0.354l1.909-1.91
		c0.094-0.094,0.22-0.146,0.354-0.146c0.133,0,0.259,0.052,0.353,0.146c0.195,0.195,0.195,0.512,0,0.707l-1.909,1.91
		C18.759,5.403,18.634,5.455,18.5,5.455z"/>
</g>
</svg>
