<?xml version="1.0" encoding="utf-8"?>
<!-- Generator: Adobe Illustrator 22.1.0, SVG Export Plug-In . SVG Version: 6.00 Build 0)  -->
<svg version="1.1" id="Layer_1" xmlns="http://www.w3.org/2000/svg" xmlns:xlink="http://www.w3.org/1999/xlink" x="0px" y="0px"
	 viewBox="0 0 24 24" style="enable-background:new 0 0 24 24;" xml:space="preserve">
<g>
	<title>idea-strategy</title>
	<path d="M8.999,23.5c-0.276,0-0.5-0.224-0.5-0.5v-6c0-0.276,0.224-0.5,0.5-0.5h6c0.276,0,0.5,0.224,0.5,0.5v6
		c0,0.276-0.224,0.5-0.5,0.5H8.999z M14.499,22.5v-5h-5v5H14.499z"/>
	<path d="M16.999,23.5c-0.174,0-0.333-0.089-0.425-0.237c-0.091-0.146-0.099-0.333-0.022-0.487l2.947-5.894V14.5h-7v2
		c0,0.276-0.224,0.5-0.5,0.5c-0.276,0-0.5-0.224-0.5-0.5v-2h-7v2.039c1.7,0.245,3,1.723,3,3.461c0,1.93-1.57,3.5-3.5,3.5
		s-3.5-1.57-3.5-3.5c0-1.738,1.3-3.216,3-3.461V14.5c0-0.552,0.449-1,1-1h7v-1h-1c-0.276,0-0.5-0.224-0.5-0.5
		c0-0.276,0.224-0.5,0.5-0.5h3c0.276,0,0.5,0.224,0.5,0.5c0,0.276-0.224,0.5-0.5,0.5h-1v1h7c0.552,0,1,0.448,1,1v2.382l2.947,5.895
		c0.077,0.154,0.069,0.34-0.022,0.487c-0.092,0.148-0.251,0.237-0.425,0.237H16.999z M22.19,22.5l-2.191-4.382L17.808,22.5H22.19z
		 M3.999,17.5c-1.379,0-2.5,1.122-2.5,2.5s1.121,2.5,2.5,2.5s2.5-1.122,2.5-2.5S5.378,17.5,3.999,17.5z"/>
	<path d="M10.499,10.5c-0.276,0-0.5-0.224-0.5-0.5V9.277C9.095,8.657,8.524,7.61,8.5,6.511C8.553,4.591,10.084,3.054,11.985,3
		c1.922,0.054,3.46,1.585,3.514,3.485c0,0.004,0,0.021,0,0.026c-0.025,1.115-0.583,2.139-1.5,2.766V10c0,0.276-0.224,0.5-0.5,0.5
		H10.499z M12.999,9.5V9c0-0.18,0.098-0.347,0.255-0.436c0.747-0.42,1.224-1.213,1.245-2.07C14.457,5.143,13.357,4.042,11.992,4
		c-1.36,0.043-2.454,1.146-2.493,2.514c0.019,0.839,0.496,1.629,1.245,2.05C10.901,8.652,10.999,8.819,10.999,9v0.5H12.999z"/>
	<path d="M11.999,2.5c-0.276,0-0.5-0.224-0.5-0.5V1c0-0.276,0.224-0.5,0.5-0.5c0.276,0,0.5,0.224,0.5,0.5v1
		C12.499,2.276,12.275,2.5,11.999,2.5z"/>
	<path d="M15.181,3.818c-0.134,0-0.259-0.052-0.354-0.146s-0.146-0.22-0.146-0.354s0.052-0.259,0.146-0.354l0.707-0.707
		c0.094-0.094,0.22-0.146,0.354-0.146s0.259,0.052,0.354,0.146c0.195,0.195,0.195,0.512,0,0.707l-0.707,0.707
		C15.44,3.766,15.315,3.818,15.181,3.818z"/>
	<path d="M16.499,6.5c-0.276,0-0.5-0.224-0.5-0.5s0.224-0.5,0.5-0.5h1c0.276,0,0.5,0.224,0.5,0.5s-0.224,0.5-0.5,0.5H16.499z"/>
	<path d="M8.817,3.818c-0.134,0-0.259-0.052-0.354-0.146L7.757,2.964c-0.195-0.195-0.195-0.512,0-0.707
		c0.094-0.094,0.22-0.146,0.354-0.146c0.134,0,0.259,0.052,0.354,0.146l0.707,0.707c0.094,0.094,0.146,0.22,0.146,0.354
		S9.265,3.577,9.171,3.672S8.951,3.818,8.817,3.818z"/>
	<path d="M6.499,6.5c-0.276,0-0.5-0.224-0.5-0.5s0.224-0.5,0.5-0.5h1c0.276,0,0.5,0.224,0.5,0.5s-0.224,0.5-0.5,0.5H6.499z"/>
</g>
</svg>
