<?xml version="1.0" encoding="utf-8"?>
<!-- Generator: Adobe Illustrator 22.1.0, SVG Export Plug-In . SVG Version: 6.00 Build 0)  -->
<svg version="1.1" id="Layer_1" xmlns="http://www.w3.org/2000/svg" xmlns:xlink="http://www.w3.org/1999/xlink" x="0px" y="0px"
	 viewBox="0 0 24 24" style="enable-background:new 0 0 24 24;" xml:space="preserve">
<g>
	<title>laptop-idea</title>
	<path d="M9.999,22c-0.276,0-0.5-0.224-0.5-0.5s0.224-0.5,0.5-0.5h4c0.276,0,0.5,0.224,0.5,0.5s-0.224,0.5-0.5,0.5H9.999z"/>
	<path d="M11.099,16c-0.276,0-0.5-0.224-0.5-0.5s0.224-0.5,0.5-0.5h1.8c0.276,0,0.5,0.224,0.5,0.5s-0.224,0.5-0.5,0.5H11.099z"/>
	<path d="M9.999,14c-0.276,0-0.5-0.224-0.5-0.5s0.224-0.5,0.5-0.5h4c0.276,0,0.5,0.224,0.5,0.5s-0.224,0.5-0.5,0.5H9.999z"/>
	<path d="M11.999,2.5c-0.276,0-0.5-0.224-0.5-0.5V0.5c0-0.276,0.224-0.5,0.5-0.5c0.276,0,0.5,0.224,0.5,0.5V2
		C12.499,2.276,12.274,2.5,11.999,2.5z"/>
	<path d="M4.999,8c-0.276,0-0.5-0.224-0.5-0.5S4.723,7,4.999,7h1.5c0.276,0,0.5,0.224,0.5,0.5S6.774,8,6.499,8H4.999z"/>
	<path d="M17.499,8c-0.276,0-0.5-0.224-0.5-0.5s0.224-0.5,0.5-0.5h1.5c0.276,0,0.5,0.224,0.5,0.5S19.274,8,18.999,8H17.499z"/>
	<path d="M7.499,4.5c-0.134,0-0.259-0.052-0.354-0.146L5.872,3.081c-0.094-0.094-0.146-0.22-0.146-0.354s0.052-0.259,0.146-0.354
		s0.22-0.146,0.354-0.146s0.259,0.052,0.354,0.146l1.273,1.273c0.195,0.195,0.195,0.512,0,0.707C7.758,4.448,7.632,4.5,7.499,4.5z"
		/>
	<path d="M16.499,4.5c-0.134,0-0.259-0.052-0.354-0.146c-0.195-0.195-0.195-0.512,0-0.707l1.273-1.273
		c0.094-0.094,0.22-0.146,0.354-0.146s0.259,0.052,0.354,0.146s0.146,0.22,0.146,0.354s-0.052,0.259-0.146,0.354l-1.273,1.273
		C16.758,4.448,16.632,4.5,16.499,4.5z"/>
	<path d="M10.499,12c-0.551,0-1-0.449-1-1v-0.22c-1.041-0.758-1.613-2.008-1.5-3.299c-0.001-0.044,0-0.087,0-0.131
		c0.021-1.05,0.45-2.029,1.208-2.756c0.736-0.706,1.704-1.095,2.727-1.095L12.148,3.5c1.05,0.021,2.028,0.45,2.756,1.208
		c0.72,0.75,1.109,1.735,1.095,2.774c0.111,1.284-0.461,2.53-1.5,3.285V11c0,0.551-0.448,1-1,1H10.499z M11.937,4.499
		c-0.766,0-1.489,0.29-2.038,0.817c-0.565,0.542-0.885,1.272-0.9,2.055c-0.001,0.04-0.001,0.079,0,0.118
		c0,0.021,0,0.038-0.002,0.057c-0.097,1.028,0.387,2.002,1.265,2.543c0.146,0.09,0.237,0.254,0.237,0.426V11h3v-0.5
		c0-0.173,0.092-0.336,0.239-0.426c0.862-0.528,1.358-1.52,1.263-2.527c-0.002-0.018-0.003-0.038-0.002-0.058
		c0.016-0.781-0.274-1.524-0.816-2.088c-0.542-0.565-1.272-0.885-2.055-0.9L11.937,4.499z"/>
	<path d="M3.413,24c-0.401,0-0.777-0.156-1.061-0.439C2.069,23.277,1.913,22.9,1.913,22.5c0-0.401,0.156-0.777,0.439-1.06
		l2.146-2.146V11.5c0-0.827,0.673-1.5,1.5-1.5h1.5c0.276,0,0.5,0.224,0.5,0.5S7.774,11,7.499,11h-1.5c-0.276,0-0.5,0.224-0.5,0.5V19
		h13v-7.5c0-0.276-0.224-0.5-0.5-0.5h-1.5c-0.276,0-0.5-0.224-0.5-0.5s0.224-0.5,0.5-0.5h1.5c0.827,0,1.5,0.673,1.5,1.5v7.793
		l2.146,2.146c0.585,0.585,0.584,1.537,0,2.121C21.361,23.844,20.985,24,20.585,24H3.413z M3.059,22.146
		c-0.094,0.094-0.146,0.22-0.146,0.354c0,0.133,0.052,0.259,0.146,0.354C3.154,22.948,3.279,23,3.413,23h17.172
		c0.134,0,0.259-0.052,0.353-0.146c0.094-0.094,0.146-0.22,0.146-0.354s-0.052-0.259-0.146-0.354L18.792,20H5.206L3.059,22.146z"/>
</g>
</svg>
