<?xml version="1.0" encoding="utf-8"?>
<!-- Generator: Adobe Illustrator 22.1.0, SVG Export Plug-In . SVG Version: 6.00 Build 0)  -->
<svg version="1.1" id="Layer_1" xmlns="http://www.w3.org/2000/svg" xmlns:xlink="http://www.w3.org/1999/xlink" x="0px" y="0px"
	 viewBox="0 0 24 24" style="enable-background:new 0 0 24 24;" xml:space="preserve">
<g>
	<title>feed-dailybooth</title>
	<path d="M12,24C5.383,24,0,18.616,0,12c0-3.205,1.248-6.219,3.515-8.485S8.795,0,12,0c3.206,0,6.219,1.248,8.486,3.515
		C22.752,5.781,24,8.795,24,12c0,2.264-0.635,4.468-1.838,6.382l1.581,3.812c0.076,0.183,0.036,0.394-0.1,0.537
		c-0.094,0.098-0.226,0.155-0.362,0.155l0,0c-0.058,0-0.115-0.01-0.169-0.03l-3.774-1.363C17.25,23.111,14.655,24,12.014,24H12z
		 M12,1C5.935,1,1,5.934,1,12c0,6.065,4.934,11,11,11c2.525,0,4.981-0.873,6.93-2.459c0.089-0.073,0.201-0.113,0.315-0.113
		c0.059,0,0.116,0.01,0.171,0.031l2.969,1.072l-1.247-3.008c-0.063-0.154-0.047-0.328,0.044-0.467C22.372,16.254,23,14.16,23,12
		c0-2.938-1.144-5.701-3.222-7.778C17.701,2.144,14.938,1,12,1L12,1z"/>
	<path d="M7.554,18.423c-0.776,0-1.437-0.551-1.572-1.31l-1.561-6.642c-0.234-0.788,0.222-1.656,1.02-1.927
		c0.024-0.01,0.05-0.018,0.076-0.025l2.184-0.511c0.081-0.139,0.17-0.274,0.264-0.403c0.858-1.168,2.239-1.866,3.694-1.866
		c0.897,0,1.762,0.259,2.508,0.751l2.104-0.495c0.106-0.019,0.199-0.027,0.291-0.027c0.777,0,1.437,0.552,1.569,1.313l1.56,6.639
		c0.242,0.813-0.236,1.691-1.071,1.942L7.842,18.397C7.737,18.415,7.645,18.423,7.554,18.423z M11.658,6.74
		c-1.137,0-2.217,0.545-2.887,1.458c-0.11,0.15-0.21,0.31-0.295,0.477c-0.067,0.13-0.188,0.224-0.33,0.258L5.774,9.487
		c-0.301,0.092-0.478,0.419-0.386,0.728l1.574,6.696c0.054,0.303,0.299,0.513,0.585,0.513c0.032,0,0.065-0.003,0.098-0.008
		l10.718-2.52c0.28-0.085,0.453-0.417,0.363-0.72l-1.573-6.696c-0.053-0.304-0.297-0.515-0.583-0.515
		c-0.032,0-0.065,0.003-0.098,0.009l-2.292,0.54c-0.038,0.009-0.076,0.013-0.114,0.013c-0.106,0-0.211-0.034-0.296-0.097
		C13.153,6.979,12.423,6.74,11.658,6.74z"/>
	<path d="M12.237,15.482c-1.875,0-3.4-1.525-3.4-3.4s1.525-3.4,3.4-3.4s3.4,1.525,3.4,3.4S14.112,15.482,12.237,15.482z
		 M12.237,9.682c-1.323,0-2.4,1.077-2.4,2.4c0,1.323,1.077,2.4,2.4,2.4c1.323,0,2.4-1.077,2.4-2.4
		C14.637,10.759,13.56,9.682,12.237,9.682z"/>
</g>
</svg>
