<?xml version="1.0" encoding="utf-8"?>
<!-- Generator: Adobe Illustrator 22.1.0, SVG Export Plug-In . SVG Version: 6.00 Build 0)  -->
<svg version="1.1" id="Layer_1" xmlns="http://www.w3.org/2000/svg" xmlns:xlink="http://www.w3.org/1999/xlink" x="0px" y="0px"
	 viewBox="0 0 24 24" style="enable-background:new 0 0 24 24;" xml:space="preserve">
<g>
	<title>feed-news-vine</title>
	<path d="M10.594,23.5c-0.276,0-0.5-0.224-0.5-0.5v-3.759l-2.59-1.85C7.14,17.711,6.671,17.89,6.187,17.89c-1.103,0-2-0.897-2-2
		s0.897-2,2-2s2,0.897,2,2c0,0.232-0.04,0.458-0.119,0.676l2.026,1.447v-5.771l-2.589-1.85C7.141,10.71,6.672,10.89,6.187,10.89
		c-1.103,0-2-0.897-2-2s0.897-2,2-2s2,0.897,2,2c0,0.231-0.04,0.458-0.119,0.675l2.026,1.448V5.819l-2.589-1.85
		C7.141,4.288,6.672,4.468,6.187,4.468c-1.103,0-2-0.897-2-2s0.897-2,2-2s2,0.897,2,2c0,0.231-0.04,0.458-0.119,0.675l2.026,1.448V1
		c0-0.276,0.224-0.5,0.5-0.5s0.5,0.224,0.5,0.5v6.59l2.025-1.447C13.04,5.926,13,5.699,13,5.468c0-1.103,0.897-2,2-2s2,0.897,2,2
		s-0.897,2-2,2c-0.485,0-0.954-0.18-1.317-0.499l-2.589,1.85v5.192l2.024-1.449C13.04,12.346,13,12.121,13,11.89
		c0-1.103,0.897-2,2-2s2,0.897,2,2c0,1.103-0.897,2-2,2c-0.486,0-0.956-0.18-1.319-0.501l-2.587,1.852v5.771l2.025-1.447
		C13.04,19.349,13,19.122,13,18.89c0-1.103,0.897-2,2-2s2,0.897,2,2s-0.897,2-2,2c-0.484,0-0.953-0.179-1.317-0.498l-2.589,1.85V23
		C11.094,23.276,10.87,23.5,10.594,23.5z M15,17.89c-0.552,0-1,0.448-1,1s0.448,1,1,1s1-0.448,1-1S15.552,17.89,15,17.89z
		 M6.187,14.89c-0.551,0-1,0.448-1,1s0.449,1,1,1s1-0.448,1-1S6.738,14.89,6.187,14.89z M14.17,12.445
		c0.187,0.279,0.497,0.445,0.83,0.445c0.552,0,1-0.449,1-1s-0.448-1-1-1s-1,0.449-1,1c0,0.195,0.057,0.384,0.166,0.548
		C14.166,12.438,14.169,12.443,14.17,12.445z M6.187,7.89c-0.551,0-1,0.449-1,1s0.449,1,1,1s1-0.449,1-1S6.738,7.89,6.187,7.89z
		 M15,4.468c-0.552,0-1,0.449-1,1s0.448,1,1,1s1-0.449,1-1S15.552,4.468,15,4.468z M6.187,1.468c-0.551,0-1,0.449-1,1s0.449,1,1,1
		s1-0.449,1-1S6.738,1.468,6.187,1.468z"/>
</g>
</svg>
