<?xml version="1.0" encoding="utf-8"?>
<!-- Generator: Adobe Illustrator 22.1.0, SVG Export Plug-In . SVG Version: 6.00 Build 0)  -->
<svg version="1.1" id="Layer_1" xmlns="http://www.w3.org/2000/svg" xmlns:xlink="http://www.w3.org/1999/xlink" x="0px" y="0px"
	 viewBox="0 0 24 24" style="enable-background:new 0 0 24 24;" xml:space="preserve">
<g>
	<title>feed-squidoo</title>
	<path d="M17.244,23.96c-0.234,0-0.475-0.014-0.716-0.041c-2.368-0.364-4.184-2.186-4.538-4.534
		c-0.071-0.389-0.099-0.753-0.123-1.075c-0.063-0.848-0.116-1.002-0.378-1.099c-0.256-0.096-0.552-0.143-0.905-0.143
		c-0.501,0-1.048,0.092-1.628,0.19c-0.659,0.111-1.332,0.225-2.02,0.225c-0.231,0-0.456-0.013-0.668-0.039
		c-2.107-0.252-3.652-2.109-3.515-4.228c-0.018-0.615,0.113-1.326,0.239-2.014C3.297,9.544,3.433,8.505,2.43,8.05
		C2.198,7.944,2.082,7.682,2.162,7.439C2.229,7.233,2.42,7.095,2.638,7.095c0.033,0,0.066,0.003,0.1,0.01
		C3.716,7.31,4.564,7.556,5.034,8.501c0.413,0.834,0.362,1.912,0.312,2.955c-0.053,1.113-0.102,2.164,0.43,2.5
		c0.188,0.119,0.491,0.179,0.901,0.179c0.434,0,0.902-0.065,1.315-0.122l0.204-0.028c0.455-0.11,0.931-0.202,1.413-0.275
		c-0.083-0.044-0.166-0.087-0.249-0.129c-0.257-0.131-0.524-0.267-0.767-0.449c-0.925-0.675-1.694-1.52-2.283-2.508
		c-0.387-0.748-0.57-1.676-0.747-2.574C5.345,6.936,5.118,5.784,4.562,5.296C4.134,4.924,3.485,4.735,2.634,4.735
		c-0.458,0-0.979,0.055-1.549,0.164C1.053,4.905,1.023,4.908,0.992,4.908c-0.207,0-0.389-0.124-0.465-0.316
		C0.439,4.368,0.522,4.113,0.724,3.985C1.599,3.432,2.603,3.14,3.629,3.14c0.794,0,1.565,0.171,2.292,0.508
		c0.03,0.014,0.058,0.03,0.084,0.05c0.862,0.628,1.145,1.772,1.42,2.878C7.641,7.445,7.863,8.342,8.35,8.919
		c0.457,0.446,1.052,0.788,1.703,0.972c0.022,0.006,0.043,0.014,0.063,0.022c0.595,0.258,1.219,0.435,1.859,0.527
		c0.279-1.891-0.752-2.568-2.044-3.415c-0.466-0.306-0.947-0.622-1.376-1.01C7.204,4.786,6.346,3.373,6.546,0.467
		c0.017-0.251,0.22-0.451,0.471-0.465c0.005,0,0.024-0.001,0.029-0.001c0.241,0,0.448,0.173,0.491,0.411
		c0.24,1.317,0.49,2.379,1.33,3.067c0.721,0.414,1.48,0.777,2.256,1.079c0.016,0.006,0.033,0.014,0.05,0.023
		c1.854,0.971,3.263,2.633,3.921,4.606c0.125-0.159,0.238-0.327,0.338-0.504c0.026-0.045,0.057-0.085,0.095-0.12
		c0.342-0.318,0.576-0.744,0.662-1.202c-0.059-0.69-0.434-1.331-1.008-1.719c-0.388-0.305-0.875-0.501-1.346-0.691
		c-1.261-0.508-2.829-1.141-2.354-3.714c0.042-0.224,0.229-0.392,0.457-0.408c0.006,0,0.028-0.001,0.034-0.001
		c0.216,0,0.407,0.137,0.475,0.341c0.071,0.211,0.127,0.426,0.176,0.616c0.13,0.497,0.252,0.966,0.566,1.193
		c0.382,0.275,0.925,0.417,1.5,0.569c0.588,0.155,1.196,0.315,1.744,0.638c1.389,0.716,2.325,2.088,2.494,3.664
		c0.002,0.018,0.003,0.036,0.003,0.054c-0.003,0.878-0.367,1.524-0.688,2.094c-0.372,0.661-0.67,1.19-0.445,2.014
		c0.299,0.078,0.57,0.145,0.821,0.206c1.101,0.269,1.896,0.462,2.706,1.165c2.156,1.874,2.195,4.819,1.278,6.907
		C21.822,22.064,20.006,23.96,17.244,23.96z M10.586,16.067c0.472,0,0.882,0.068,1.254,0.207c0.904,0.337,0.965,1.16,1.024,1.957
		c0.022,0.298,0.047,0.635,0.112,0.99c0.291,1.924,1.769,3.411,3.679,3.707c0.188,0.021,0.388,0.032,0.581,0.032
		c2.876,0,4.133-2.352,4.449-3.073c0.77-1.752,0.753-4.21-1.018-5.75c-0.626-0.544-1.216-0.688-2.286-0.948
		c-0.34-0.083-0.701-0.171-1.109-0.282c-0.155-0.042-0.281-0.158-0.337-0.309c-0.517-1.401-0.011-2.299,0.435-3.091
		c0.295-0.524,0.55-0.977,0.559-1.579c-0.128-1.117-0.75-2.103-1.688-2.699c0.552,0.557,0.899,1.32,0.949,2.129
		c0.002,0.035,0,0.073-0.005,0.11c-0.109,0.671-0.436,1.3-0.922,1.775c-0.29,0.495-0.66,0.934-1.1,1.304
		c-0.09,0.076-0.205,0.117-0.322,0.117c-0.055,0-0.11-0.009-0.162-0.027c-0.166-0.057-0.291-0.198-0.327-0.369
		c-0.439-2.06-1.758-3.804-3.619-4.788c-0.805-0.315-1.592-0.692-2.342-1.12c0.224,0.31,0.5,0.61,0.835,0.916
		c0.371,0.337,0.819,0.631,1.252,0.915c1.432,0.94,3.055,2.005,2.387,4.912c-0.052,0.225-0.255,0.389-0.484,0.389
		c-0.009,0-0.041-0.002-0.049-0.002c-0.889-0.073-1.761-0.29-2.585-0.643c-0.8-0.232-1.537-0.663-2.131-1.246
		c-0.669-0.789-0.92-1.802-1.163-2.781C6.218,5.862,5.994,4.96,5.453,4.534C5.293,4.462,5.131,4.4,4.966,4.347
		C5.055,4.408,5.14,4.474,5.22,4.544c0.814,0.714,1.074,2.035,1.325,3.312c0.164,0.83,0.332,1.687,0.64,2.282
		c0.508,0.85,1.185,1.591,2.005,2.19c0.179,0.135,0.396,0.245,0.626,0.362c0.454,0.231,1.018,0.519,1.432,1.083
		c0.107,0.146,0.127,0.339,0.052,0.504c-0.075,0.164-0.234,0.276-0.414,0.291c-0.838,0.069-1.676,0.203-2.491,0.398
		c-0.016,0.004-0.032,0.007-0.047,0.009l-0.216,0.03c-0.45,0.062-0.96,0.133-1.453,0.133c-0.609,0-1.078-0.11-1.435-0.335
		c-1.025-0.647-0.959-2.043-0.895-3.393c0.041-0.865,0.083-1.755-0.161-2.357c0.081,0.745-0.07,1.571-0.21,2.329
		c-0.117,0.638-0.238,1.297-0.224,1.854c-0.103,1.625,1.056,3.028,2.637,3.217c0.174,0.021,0.352,0.032,0.546,0.032
		c0.61,0,1.241-0.107,1.852-0.21C9.412,16.167,10.003,16.067,10.586,16.067z"/>
	<path d="M18.513,20.634c-0.163,0-0.327-0.018-0.488-0.053c-0.024-0.005-0.047-0.012-0.07-0.021
		c-1.148-0.44-1.744-1.735-1.333-2.891c0.246-1.007,1.174-1.736,2.212-1.736c0.163,0,0.327,0.018,0.487,0.053
		c0.024,0.005,0.047,0.012,0.07,0.021c1.147,0.441,1.741,1.735,1.331,2.891C20.478,19.905,19.552,20.634,18.513,20.634z
		 M18.277,19.612c0.078,0.015,0.157,0.022,0.237,0.022c0.589,0,1.111-0.417,1.241-0.99c0.005-0.021,0.011-0.042,0.019-0.063
		c0.237-0.639-0.079-1.363-0.705-1.625c-0.078-0.015-0.157-0.022-0.237-0.022c-0.589,0-1.112,0.417-1.243,0.991
		c-0.005,0.022-0.011,0.043-0.019,0.065C17.333,18.626,17.65,19.35,18.277,19.612z"/>
</g>
</svg>
