<?xml version="1.0" encoding="utf-8"?>
<!-- Generator: Adobe Illustrator 22.1.0, SVG Export Plug-In . SVG Version: 6.00 Build 0)  -->
<svg version="1.1" id="Layer_1" xmlns="http://www.w3.org/2000/svg" xmlns:xlink="http://www.w3.org/1999/xlink" x="0px" y="0px"
	 viewBox="0 0 24 24" style="enable-background:new 0 0 24 24;" xml:space="preserve">
<g>
	<title>feed-digg</title>
	<path d="M1.5,15C1.224,15,1,14.776,1,14.5v-7C1,7.224,1.224,7,1.5,7H6V4c0-0.276,0.224-0.5,0.5-0.5S7,3.724,7,4v10.5
		C7,14.776,6.776,15,6.5,15H1.5z M6,14V8H2v6H6z"/>
	<path d="M8.5,15.5C8.224,15.5,8,15.276,8,15V8c0-0.276,0.224-0.5,0.5-0.5S9,7.724,9,8v7C9,15.276,8.776,15.5,8.5,15.5z"/>
	<path d="M8.5,6.5C8.224,6.5,8,6.276,8,6V4c0-0.276,0.224-0.5,0.5-0.5S9,3.724,9,4v2C9,6.276,8.776,6.5,8.5,6.5z"/>
	<path d="M10,18c-0.276,0-0.5-0.224-0.5-0.5S9.724,17,10,17h5v-2h-4.5c-0.276,0-0.5-0.224-0.5-0.5v-7C10,7.224,10.224,7,10.5,7h5
		C15.776,7,16,7.224,16,7.5v10c0,0.276-0.224,0.5-0.5,0.5H10z M15,14V8h-4v6H15z"/>
	<path d="M17,18c-0.276,0-0.5-0.224-0.5-0.5S16.724,17,17,17h5v-2h-4.5c-0.276,0-0.5-0.224-0.5-0.5v-7C17,7.224,17.224,7,17.5,7h5
		C22.776,7,23,7.224,23,7.5v10c0,0.276-0.224,0.5-0.5,0.5H17z M22,14V8h-4v6H22z"/>
</g>
</svg>
