<?xml version="1.0" encoding="utf-8"?>
<!-- Generator: Adobe Illustrator 22.1.0, SVG Export Plug-In . SVG Version: 6.00 Build 0)  -->
<svg version="1.1" id="Layer_1" xmlns="http://www.w3.org/2000/svg" xmlns:xlink="http://www.w3.org/1999/xlink" x="0px" y="0px"
	 viewBox="0 0 24 24" style="enable-background:new 0 0 24 24;" xml:space="preserve">
<g>
	<title>feed-rss</title>
	<path d="M14.032,22.5c-0.276,0-0.5-0.224-0.5-0.5c0-6.358-5.174-11.531-11.532-11.531c-0.276,0-0.5-0.224-0.5-0.5
		s0.224-0.5,0.5-0.5c6.91,0,12.531,5.621,12.532,12.531C14.532,22.276,14.308,22.5,14.032,22.5z"/>
	<path d="M2.5,22C2.224,22,2,21.776,2,21.5v-4.527c0-0.133,0.054-0.263,0.149-0.356c0.094-0.093,0.22-0.144,0.354-0.144
		c2.735,0.039,4.974,2.292,4.996,5.023c0.001,0.134-0.05,0.26-0.145,0.356C7.262,21.946,7.132,22,7,22H2.5z M6.464,21
		C6.223,19.204,4.794,17.765,3,17.512V21H6.464z"/>
	<path d="M21.5,22.5c-0.276,0-0.5-0.224-0.5-0.5C21,11.523,12.477,3,2,3C1.724,3,1.5,2.776,1.5,2.5S1.724,2,2,2
		c11.028,0,20,8.972,20,20C22,22.276,21.776,22.5,21.5,22.5z"/>
</g>
</svg>
