<?xml version="1.0" encoding="utf-8"?>
<!-- Generator: Adobe Illustrator 22.1.0, SVG Export Plug-In . SVG Version: 6.00 Build 0)  -->
<svg version="1.1" id="Layer_1" xmlns="http://www.w3.org/2000/svg" xmlns:xlink="http://www.w3.org/1999/xlink" x="0px" y="0px"
	 viewBox="0 0 24 24" style="enable-background:new 0 0 24 24;" xml:space="preserve">
<g>
	<title>feed-tumblr</title>
	<path d="M14.234,24.048c-1.677,0-3.173-0.41-4.447-1.218C8.016,21.707,7,19.949,7,18.006v-7.992H4.5c-0.276,0-0.5-0.224-0.5-0.5
		V6.682c0-0.228,0.154-0.427,0.375-0.484C5.338,5.949,6.252,5.553,7.09,5.019C7.675,4.515,8.146,3.91,8.492,3.221
		C8.9,2.356,9.156,1.428,9.248,0.466c0.025-0.258,0.239-0.452,0.498-0.452H13.5c0.276,0,0.5,0.224,0.5,0.5v4.5h4.5
		c0.276,0,0.5,0.224,0.5,0.5v4c0,0.276-0.224,0.5-0.5,0.5H14v5.014c0,1.71,0.413,2.8,1.227,3.239
		c0.281,0.152,0.62,0.229,1.007,0.229c0.862,0,1.924-0.386,2.991-1.086c0.082-0.054,0.177-0.082,0.274-0.082
		c0.083,0,0.165,0.021,0.238,0.06C19.899,17.476,20,17.644,20,17.828v4.433c0,0.192-0.113,0.37-0.287,0.452
		C17.862,23.586,15.967,24.048,14.234,24.048z M7.5,9.014c0.276,0,0.5,0.224,0.5,0.5v8.492c0,1.593,0.846,3.044,2.322,3.979
		c1.079,0.684,2.432,1.045,3.913,1.045c1.517,0,3.161-0.377,4.765-1.09v-3.235c-0.975,0.516-1.927,0.787-2.773,0.787
		c-0.555,0-1.051-0.116-1.475-0.345C13.59,18.52,13,17.134,13,15.028V9.514c0-0.276,0.224-0.5,0.5-0.5H18v-3h-4.5
		c-0.276,0-0.5-0.224-0.5-0.5v-4.5h-2.811C10.056,1.93,9.788,2.819,9.391,3.659C8.975,4.487,8.412,5.207,7.713,5.802
		C7.697,5.816,7.678,5.83,7.659,5.842C6.833,6.372,5.939,6.782,5,7.062v1.952H7.5z"/>
</g>
</svg>
