<?xml version="1.0" encoding="utf-8"?>
<!-- Generator: Adobe Illustrator 22.1.0, SVG Export Plug-In . SVG Version: 6.00 Build 0)  -->
<svg version="1.1" id="Layer_1" xmlns="http://www.w3.org/2000/svg" xmlns:xlink="http://www.w3.org/1999/xlink" x="0px" y="0px"
	 viewBox="0 0 24 24" style="enable-background:new 0 0 24 24;" xml:space="preserve">
<g>
	<title>Medium-new</title>
	<path d="M0.5,24C0.224,24,0,23.776,0,23.5v-23C0,0.224,0.224,0,0.5,0h23C23.776,0,24,0.224,24,0.5v23c0,0.276-0.224,0.5-0.5,0.5
		H0.5z M23,23V1H1v22H23z"/>
	<path d="M13.709,19c-0.276,0-0.5-0.224-0.5-0.5v-0.271c0-0.119,0.042-0.234,0.12-0.324c0,0,1.169-1.37,1.171-1.373
		c0-0.011,0-5.85,0-5.85l-2.505,7.968C11.929,18.859,11.737,19,11.518,19h-0.489c-0.195,0-0.373-0.115-0.454-0.292
		c-0.706-1.541-1.284-2.814-1.766-3.877c-0.923-2.033-1.506-3.318-1.976-4.24v4.564l2.293,2.753c0.075,0.09,0.116,0.203,0.116,0.32
		V18.5c0,0.276-0.224,0.5-0.5,0.5H4c-0.276,0-0.5-0.224-0.5-0.5v-0.271c0-0.114,0.039-0.226,0.111-0.314l2.221-2.755V8.909
		C5.465,8.396,5.026,7.873,4.427,7.161C4.188,6.876,3.919,6.557,3.615,6.19C3.541,6.101,3.5,5.987,3.5,5.871V5.5
		C3.5,5.224,3.724,5,4,5h4.816c0.198,0,0.377,0.117,0.457,0.298l3.428,7.771l2.427-7.719C15.194,5.141,15.385,5,15.605,5h4.425
		c0.276,0,0.5,0.224,0.5,0.5v0.371c0,0.142-0.061,0.278-0.167,0.373l-1.358,1.213c0,0.003,0,9.084,0,9.088l1.346,1.328
		c0.094,0.093,0.149,0.223,0.149,0.356V18.5c0,0.276-0.224,0.5-0.5,0.5H13.709z M19.056,18l-0.749-0.74
		c-0.216-0.173-0.334-0.461-0.302-0.759V7.498c-0.033-0.303,0.096-0.604,0.339-0.79L19.129,6h-3.157L15.5,7.501V16.5
		c0,0.276-0.019,0.463-0.274,0.719L14.561,18H19.056z M7.9,18l-1.561-1.875L4.827,18H7.9z M5.188,6.512
		c2.05,2.44,2.05,2.44,4.531,7.906c0.424,0.933,0.92,2.028,1.513,3.324l1.014-3.227L8.49,6H4.759
		C4.911,6.183,5.054,6.353,5.188,6.512z"/>
</g>
</svg>
