<svg xmlns="http://www.w3.org/2000/svg" viewBox="0 0 24 24"><title>jackclamp</title><path d="M22,18.5A2,2,0,0,0,20.071,20H18V17a1,1,0,0,0-1-1H12V13a1,1,0,0,0-1-1H2.5a2.5,2.5,0,0,0,0,5H14v3H12.5a.5.5,0,0,0,0,1H14v2a1,1,0,0,0,1,1h2a1,1,0,0,0,1-1V21h2.071A2,2,0,1,0,22,18.5Zm-21-4A1.5,1.5,0,0,1,2.5,13H11v3H2.5A1.5,1.5,0,0,1,1,14.5ZM17,23H15V17h2Zm5-1.5a1,1,0,1,1,1-1A1,1,0,0,1,22,21.5Z"/><path d="M2.5,5H11a1,1,0,0,0,1-1V1h2V4a1,1,0,0,0,1,1h2a1,1,0,0,0,1-1V1a1,1,0,0,0-1-1H2.5a2.5,2.5,0,0,0,0,5ZM17,4H15V1h2ZM2.5,1H11V4H2.5a1.5,1.5,0,0,1,0-3Z"/><path d="M17.5,7h-3a.5.5,0,0,0,0,1h3a.5.5,0,0,0,0-1Z"/><path d="M17.5,10h-3a.5.5,0,0,0,0,1h3a.5.5,0,0,0,0-1Z"/><path d="M17.5,13h-3a.5.5,0,0,0,0,1h3a.5.5,0,0,0,0-1Z"/></svg>