<?xml version="1.0" encoding="utf-8"?>
<!-- Generator: Adobe Illustrator 22.1.0, SVG Export Plug-In . SVG Version: 6.00 Build 0)  -->
<svg version="1.1" id="Light" xmlns="http://www.w3.org/2000/svg" xmlns:xlink="http://www.w3.org/1999/xlink" x="0px" y="0px"
	 viewBox="0 0 24 24" style="enable-background:new 0 0 24 24;" xml:space="preserve">
<g>
	<title>snail-1</title>
	<path d="M6.5,20C2.916,20,0,17.084,0,13.5c0-1.665,0.722-2.82,1.981-3.169c0.104-0.029,0.212-0.051,0.324-0.066L1.129,6.948
		C0.476,6.78,0,6.183,0,5.5C0,4.673,0.673,4,1.5,4S3,4.673,3,5.5c0,0.576-0.338,1.097-0.847,1.344l0.963,2.713l1.631-2.766
		C4.289,6.527,3.998,6.039,3.998,5.5c0-0.827,0.673-1.5,1.5-1.5s1.5,0.673,1.5,1.5c0,0.71-0.504,1.318-1.192,1.462l-2.042,3.464
		c0.87,0.305,1.646,0.953,2.165,1.817c0.447,0.885,1.199,1.552,2.104,1.884c-0.02-0.209-0.03-0.418-0.03-0.626
		c0-3.584,2.916-6.5,6.5-6.5c3.584,0,6.5,2.916,6.5,6.5c0,0.883-0.174,1.735-0.517,2.538c1.762,0.234,3.208,1.604,3.508,3.378
		c0.024,0.146-0.016,0.294-0.112,0.406C23.787,19.936,23.647,20,23.5,20H6.5z M22.849,19c-0.446-1.176-1.577-1.982-2.856-2h-0.016
		c-0.516,0.803-1.211,1.49-2.017,2H22.849z M14.5,12c-1.93,0-3.5,1.57-3.5,3.5c0,1.929,1.569,3.499,3.498,3.5
		c3.036,0,5.504-2.467,5.504-5.5S17.535,8,14.502,8s-5.5,2.467-5.5,5.5c0,1.289,0.453,2.519,1.255,3.492
		C10.088,16.516,10,16.011,10,15.5c0-2.481,2.019-4.5,4.5-4.5c1.378,0,2.5,1.121,2.5,2.5c0,1.378-1.122,2.5-2.5,2.5
		c-0.827,0-1.5-0.673-1.5-1.5s0.673-1.5,1.5-1.5c0.276,0,0.5,0.224,0.5,0.5S14.776,14,14.5,14S14,14.224,14,14.5s0.224,0.5,0.5,0.5
		c0.827,0,1.5-0.673,1.5-1.5S15.327,12,14.5,12z M2.713,11.233c-0.161,0-0.317,0.021-0.465,0.062C1.455,11.515,1,12.318,1,13.5
		C1,16.533,3.467,19,6.5,19h4.543c-1.359-0.859-2.373-2.207-2.805-3.766c-1.369-0.323-2.552-1.252-3.184-2.509
		C4.512,11.825,3.59,11.233,2.713,11.233z M5.498,5c-0.276,0-0.5,0.224-0.5,0.5S5.222,6,5.498,6s0.5-0.224,0.5-0.5S5.774,5,5.498,5z
		 M1.5,5C1.224,5,1,5.224,1,5.5S1.224,6,1.5,6S2,5.776,2,5.5S1.776,5,1.5,5z"/>
	<path d="M2.986,14.25c-0.391-0.007-0.708-0.311-0.733-0.7c-0.003-0.017-0.005-0.034-0.005-0.048
		c-0.001-0.199,0.076-0.388,0.217-0.53c0.141-0.142,0.329-0.221,0.529-0.221c0,0,0.005,0,0.006,0c0.414,0,0.75,0.336,0.75,0.75
		c0,0.015-0.002,0.033-0.005,0.051c-0.022,0.38-0.336,0.687-0.724,0.698c-0.006,0-0.013,0.001-0.019,0.001
		C3.001,14.25,2.991,14.25,2.986,14.25z"/>
</g>
</svg>
