<?xml version="1.0" encoding="utf-8"?>
<!-- Generator: Adobe Illustrator 22.1.0, SVG Export Plug-In . SVG Version: 6.00 Build 0)  -->
<svg version="1.1" id="Light" xmlns="http://www.w3.org/2000/svg" xmlns:xlink="http://www.w3.org/1999/xlink" x="0px" y="0px"
	 viewBox="0 0 24 24" style="enable-background:new 0 0 24 24;" xml:space="preserve">
<g>
	<title>fruit-scale-apple</title>
	<path d="M2.86,24c-0.431-0.001-0.812-0.275-0.948-0.684l-0.667-2c-0.084-0.254-0.065-0.525,0.055-0.764
		c0.119-0.239,0.325-0.417,0.578-0.501C1.979,20.017,2.086,20,2.194,20H6v-2H1.5C1.224,18,1,17.776,1,17.5S1.224,17,1.5,17h10
		c0.276,0,0.5,0.224,0.5,0.5S11.776,18,11.5,18H7v2h8v-9.609c-1.828-0.938-3-2.841-3-4.891C12,2.467,14.467,0,17.5,0
		S23,2.467,23,5.5c0,2.051-1.172,3.953-3,4.891V20h1.806c0.552,0,1,0.448,1.001,0.999c0,0.109-0.017,0.216-0.052,0.318l-0.667,1.999
		c-0.136,0.408-0.517,0.683-0.948,0.684C21.14,24,2.86,24,2.86,24z M2.193,21l0.668,2l18.28,0l0.667-2C21.807,21,2.193,21,2.193,21z
		 M19,20v-9.214C18.507,10.928,18.003,11,17.5,11s-1.007-0.072-1.5-0.214V20H19z M13.262,7c0.632,1.782,2.329,3,4.238,3
		s3.606-1.218,4.238-3H13.262z M21.968,6C21.989,5.822,22,5.657,22,5.5C22,3.019,19.981,1,17.5,1S13,3.019,13,5.5
		c0,0.157,0.011,0.322,0.032,0.5h3.761l-1.646-1.646C15.052,4.259,15,4.134,15,4s0.052-0.259,0.146-0.354S15.366,3.5,15.5,3.5
		s0.259,0.052,0.354,0.146L18.207,6H21.968z"/>
	<path d="M3,15.5c-0.174,0-0.333-0.088-0.424-0.235c-0.615-0.985-0.968-2.119-1.022-3.279c0-1.008,0.318-1.957,0.896-2.685
		c0.591-0.744,1.37-1.154,2.193-1.154c0.637,0,1.049,0.117,1.332,0.253C5.941,7.643,6.168,6.905,6.628,6.292
		c0.525-0.698,1.29-1.15,2.155-1.273c0.047-0.007,0.094-0.012,0.141-0.017C8.941,5.001,8.958,5,8.974,5
		c0.258,0,0.472,0.194,0.497,0.452c0.013,0.133-0.026,0.263-0.111,0.366c-0.085,0.103-0.205,0.167-0.338,0.18
		C8.989,6.001,8.956,6.005,8.923,6.009c-0.599,0.085-1.13,0.399-1.495,0.884C7.09,7.345,6.933,7.893,6.981,8.449
		C7.266,8.293,7.698,8.146,8.41,8.146c1.675,0,3.09,1.748,3.09,3.816c-0.053,1.168-0.4,2.297-1.005,3.276
		c-0.092,0.149-0.251,0.238-0.426,0.238c-0.093,0-0.184-0.026-0.263-0.075c-0.113-0.07-0.193-0.18-0.223-0.31
		c-0.031-0.13-0.009-0.264,0.061-0.378c0.515-0.834,0.811-1.793,0.856-2.773c0-1.509-0.958-2.793-2.09-2.793
		c-0.729,0-0.959,0.172-1.162,0.324c-0.17,0.127-0.382,0.285-0.721,0.285c-0.006,0-0.025-0.001-0.027-0.001
		c-0.017,0-0.042-0.003-0.062-0.007C6.145,9.723,5.941,9.571,5.806,9.47C5.603,9.318,5.372,9.146,4.643,9.146
		c-1.133,0-2.09,1.29-2.09,2.816c0.046,0.97,0.347,1.933,0.871,2.773c0.146,0.234,0.074,0.543-0.159,0.689
		C3.185,15.474,3.094,15.5,3,15.5z"/>
</g>
</svg>
