<?xml version="1.0" encoding="utf-8"?>
<!-- Generator: Adobe Illustrator 22.1.0, SVG Export Plug-In . SVG Version: 6.00 Build 0)  -->
<svg version="1.1" id="Light" xmlns="http://www.w3.org/2000/svg" xmlns:xlink="http://www.w3.org/1999/xlink" x="0px" y="0px"
	 viewBox="0 0 24 24" style="enable-background:new 0 0 24 24;" xml:space="preserve">
<g>
	<title>fruit-scale</title>
	<path d="M3.86,21.5c-1.379,0-2.5-1.122-2.499-2.501c0-0.138,0.012-0.276,0.034-0.411l0.661-3.96
		c-0.428-0.546-0.651-1.264-0.868-1.959c-0.053-0.17-0.106-0.341-0.163-0.511c-0.013-0.038-0.016-0.071-0.017-0.09
		C1.004,12.045,1,12.017,1,12c0-0.01,0.001-0.021,0.002-0.031c0.002-0.038,0.012-0.077,0.023-0.112c0,0,0,0,0,0
		c-0.001,0,0.002-0.014,0.009-0.034c0.004-0.013,0.009-0.025,0.015-0.037l3.731-8.395C5.02,2.85,5.558,2.5,6.15,2.5h11.7
		c0.592,0,1.13,0.35,1.371,0.891l3.736,8.406c0.007,0.015,0.012,0.031,0.015,0.047c0.003,0.011,0.006,0.022,0.007,0.03
		c0.005,0.014,0.015,0.049,0.018,0.092C22.999,11.977,23,11.989,23,12c0,0.018-0.004,0.046-0.009,0.068
		c-0.001,0.022-0.005,0.054-0.017,0.091c-0.053,0.158-0.103,0.319-0.153,0.478l-0.011,0.035c-0.216,0.694-0.439,1.41-0.866,1.955
		l0.661,3.962c0.11,0.659-0.043,1.321-0.432,1.865c-0.388,0.543-0.964,0.903-1.623,1.013c-0.134,0.023-0.273,0.034-0.412,0.034H3.86
		z M2.381,18.753c-0.013,0.081-0.02,0.164-0.02,0.246c0,0.827,0.672,1.5,1.5,1.5h16.279c0.083,0,0.167-0.007,0.248-0.021
		c0.395-0.066,0.74-0.282,0.974-0.608c0.233-0.326,0.325-0.724,0.26-1.118l-0.573-3.434c-0.293,0.121-0.619,0.181-0.988,0.181H3.941
		c-0.368,0-0.694-0.059-0.987-0.18L2.381,18.753z M2.183,12.5c0.402,1.279,0.709,2,1.758,2h16.118c1.003,0,1.309-0.581,1.757-2
		H2.183z M21.73,11.5l-3.424-7.703C18.227,3.617,18.048,3.5,17.85,3.5H6.15c-0.198,0-0.377,0.117-0.457,0.297L2.269,11.5H21.73z"/>
	<path d="M5.5,19.5C4.673,19.5,4,18.827,4,18s0.673-1.5,1.5-1.5h4c0.827,0,1.5,0.673,1.5,1.5s-0.673,1.5-1.5,1.5H5.5z M5.5,17.5
		C5.224,17.5,5,17.724,5,18s0.224,0.5,0.5,0.5h4c0.276,0,0.5-0.224,0.5-0.5s-0.224-0.5-0.5-0.5H5.5z"/>
	<circle cx="15.5" cy="18" r="0.75"/>
	<circle cx="18.5" cy="18" r="0.75"/>
</g>
</svg>
