<?xml version="1.0" encoding="utf-8"?>
<!-- Generator: Adobe Illustrator 22.1.0, SVG Export Plug-In . SVG Version: 6.00 Build 0)  -->
<svg version="1.1" id="Light" xmlns="http://www.w3.org/2000/svg" xmlns:xlink="http://www.w3.org/1999/xlink" x="0px" y="0px"
	 viewBox="0 0 24 24" style="enable-background:new 0 0 24 24;" xml:space="preserve">
<g>
	<title>fruit-strawberry-1</title>
	<path d="M11.999,24.011c-3.859,0-8.5-7.063-8.5-11.5c0-4.4,3.336-8.039,7.668-8.459c-1.209-1.88-3.313-3.032-5.583-3.032
		c-0.816,0-1.615,0.151-2.374,0.447c0.662,1.132,1.637,2.031,2.819,2.601c0.248,0.12,0.353,0.419,0.233,0.667
		C6.18,4.907,6.003,5.018,5.812,5.018c-0.076,0-0.148-0.017-0.217-0.049C4.233,4.312,3.11,3.275,2.348,1.97
		C2.199,1.718,2.17,1.414,2.266,1.137C2.364,0.86,2.575,0.641,2.847,0.535C3.721,0.193,4.642,0.02,5.582,0.02
		c2.603,0,5.025,1.323,6.418,3.478c1.393-2.156,3.814-3.478,6.417-3.478c0.94,0,1.861,0.173,2.736,0.516
		c0.272,0.106,0.483,0.325,0.58,0.6c0.097,0.278,0.067,0.582-0.082,0.836c-0.762,1.304-1.885,2.341-3.247,2.998
		c-0.069,0.033-0.142,0.05-0.217,0.05c-0.191,0-0.368-0.111-0.451-0.283c-0.058-0.12-0.066-0.256-0.021-0.382
		c0.044-0.126,0.135-0.227,0.255-0.286c1.182-0.569,2.157-1.469,2.819-2.602c-0.759-0.296-1.558-0.447-2.374-0.447
		c-2.27,0-4.374,1.152-5.583,3.032c4.332,0.42,7.668,4.059,7.668,8.459C20.499,16.948,15.858,24.011,11.999,24.011z M11.999,5.011
		c-4.135,0-7.5,3.365-7.5,7.5c0,4.22,4.486,10.5,7.5,10.5c3.014,0,7.5-6.28,7.5-10.5C19.499,8.376,16.135,5.011,11.999,5.011z"/>
	<circle cx="7.499" cy="9.511" r="0.75"/>
	<circle cx="10.499" cy="9.511" r="0.75"/>
	<circle cx="13.499" cy="9.511" r="0.75"/>
	<circle cx="16.499" cy="9.511" r="0.75"/>
	<circle cx="8.749" cy="14.011" r="0.75"/>
	<circle cx="9.749" cy="18.011" r="0.75"/>
	<circle cx="14.249" cy="18.011" r="0.75"/>
	<circle cx="15.249" cy="14.011" r="0.75"/>
	<circle cx="11.999" cy="14.011" r="0.75"/>
</g>
</svg>
