<?xml version="1.0" encoding="utf-8"?>
<!-- Generator: Adobe Illustrator 22.1.0, SVG Export Plug-In . SVG Version: 6.00 Build 0)  -->
<svg version="1.1" id="Light" xmlns="http://www.w3.org/2000/svg" xmlns:xlink="http://www.w3.org/1999/xlink" x="0px" y="0px"
	 viewBox="0 0 24 24" style="enable-background:new 0 0 24 24;" xml:space="preserve">
<g>
	<title>fruit-apple</title>
	<path d="M15.5,24c-1.948,0-2.417-0.418-2.794-0.754C12.517,23.077,12.431,23,12,23s-0.517,0.077-0.706,0.246
		C10.917,23.581,10.448,24,8.5,24c-1.556,0-3.218-1.369-4.561-3.755C2.743,18.118,2,15.534,2,13.5C2,9.294,4.635,6,8,6
		c2.036,0,2.8,0.441,3.358,0.763c0.051,0.03,0.098,0.056,0.142,0.081V5.5C11.497,4.676,10.824,4.002,9.999,4H8
		C7.724,4,7.5,3.776,7.5,3.5S7.724,3,8,3h2c1.375,0.004,2.496,1.125,2.5,2.499v1.345c0.044-0.024,0.091-0.051,0.142-0.081
		C13.2,6.441,13.964,6,16,6c3.365,0,6,3.294,6,7.5c0,1.964-0.749,4.591-1.908,6.694C19.309,21.615,17.67,24,15.5,24z M12,22
		c0.812,0,1.122,0.277,1.372,0.499C13.635,22.734,13.933,23,15.5,23c1.184,0,2.529-1.183,3.689-3.245
		C20.306,17.769,21,15.372,21,13.5C21,9.855,18.804,7,16,7c-1.768,0-2.397,0.364-2.857,0.629C12.827,7.811,12.5,8,12,8
		c-0.5,0-0.827-0.189-1.142-0.371C10.397,7.363,9.768,7,8,7c-2.804,0-5,2.855-5,6.5c0,1.872,0.694,4.269,1.811,6.255
		C5.971,21.817,7.315,23,8.5,23c1.567,0,1.865-0.266,2.128-0.5C10.878,22.276,11.188,22,12,22z"/>
	<path d="M14.554,5.423c-0.049,0-0.098-0.004-0.146-0.01c-0.554-0.081-0.939-0.597-0.858-1.151c0.308-2.194,2.057-3.943,4.253-4.252
		c0.047-0.007,0.095-0.01,0.143-0.01c0.049,0,0.097,0.004,0.145,0.011c0.554,0.079,0.941,0.595,0.862,1.15
		c-0.31,2.195-2.059,3.943-4.254,4.253C14.652,5.42,14.603,5.423,14.554,5.423z M14.541,4.403c0.011,0,0.03,0.012,0.043,0.016
		c1.745-0.258,3.132-1.652,3.378-3.399c0,0-0.016-0.02-0.017-0.02l-0.004,0c-1.756,0.247-3.155,1.647-3.402,3.403
		C14.54,4.403,14.541,4.403,14.541,4.403z"/>
</g>
</svg>
