<?xml version="1.0" encoding="utf-8"?>
<!-- Generator: Adobe Illustrator 22.1.0, SVG Export Plug-In . SVG Version: 6.00 Build 0)  -->
<svg version="1.1" id="Light" xmlns="http://www.w3.org/2000/svg" xmlns:xlink="http://www.w3.org/1999/xlink" x="0px" y="0px"
	 viewBox="0 0 24 24" style="enable-background:new 0 0 24 24;" xml:space="preserve">
<g>
	<title>fruit-cherry</title>
	<path d="M16.51,24c-0.138,0-0.277-0.004-0.417-0.013c-1.544-0.097-2.988-0.734-4.095-1.801C10.78,23.358,9.193,24,7.5,24
		C3.916,24,1,21.084,1,17.5c0-3.42,2.733-6.293,6.129-6.488c1.363-4.33,3.992-8.065,7.609-10.811
		c0.178-0.131,0.384-0.199,0.598-0.199c0.072,0,0.145,0.008,0.215,0.024c0.261,0.058,0.484,0.214,0.628,0.439
		c0.144,0.225,0.191,0.493,0.133,0.754c-0.808,3.539-0.075,7.253,0.578,9.797c1.721,0.105,3.347,0.894,4.485,2.185
		c1.148,1.302,1.72,2.974,1.612,4.707c-0.109,1.733-0.886,3.319-2.189,4.468C19.611,23.423,18.088,24,16.51,24z M12.669,21.437
		c0.943,0.92,2.173,1.47,3.487,1.552c0.119,0.008,0.237,0.011,0.354,0.011c1.334,0,2.623-0.488,3.628-1.375
		c1.102-0.971,1.76-2.314,1.852-3.78c0.092-1.466-0.392-2.881-1.364-3.983c-1.042-1.182-2.547-1.86-4.129-1.86
		c-1.34,0-2.631,0.487-3.634,1.372c-0.064,0.056-0.129,0.117-0.197,0.185C13.528,14.688,14,16.079,14,17.5
		C14,18.92,13.529,20.309,12.669,21.437z M7.5,12C4.467,12,2,14.468,2,17.5C2,20.533,4.468,23,7.5,23s5.5-2.467,5.5-5.5
		c0-3.032-2.467-5.5-5.499-5.5v-0.25L7.5,12z M8.174,11.035c1.437,0.149,2.776,0.771,3.824,1.779
		c0.07-0.068,0.137-0.131,0.203-0.189c1.035-0.913,2.296-1.459,3.663-1.59C15.21,8.43,14.502,4.667,15.337,1.003c0,0,0,0,0,0
		C11.972,3.558,9.499,7.022,8.174,11.035z"/>
</g>
</svg>
