<?xml version="1.0" encoding="utf-8"?>
<!-- Generator: Adobe Illustrator 22.1.0, SVG Export Plug-In . SVG Version: 6.00 Build 0)  -->
<svg version="1.1" id="Light" xmlns="http://www.w3.org/2000/svg" xmlns:xlink="http://www.w3.org/1999/xlink" x="0px" y="0px"
	 viewBox="0 0 24 24" style="enable-background:new 0 0 24 24;" xml:space="preserve">
<g>
	<title>fruit-watermelon</title>
	<path d="M10.085,24.07c-3.711-0.027-7.188-1.496-9.793-4.138c-0.379-0.387-0.379-1.015-0.001-1.401l1.74-1.739
		c0.007-0.009,0.015-0.017,0.023-0.025l14.72-14.719c0.006-0.006,0.012-0.011,0.018-0.017l1.736-1.737
		c0.19-0.186,0.44-0.287,0.705-0.287c0.264,0,0.512,0.101,0.699,0.284c0.048,0.047,0.096,0.095,0.143,0.143
		c2.604,2.641,4.023,6.139,3.996,9.849c-0.027,3.709-1.496,7.187-4.138,9.791c-2.615,2.578-6.076,3.997-9.747,3.998L10.085,24.07z
		 M1.002,19.234c2.42,2.447,5.646,3.811,9.088,3.836l0.095,0c3.406,0,6.618-1.317,9.045-3.709c2.452-2.417,3.816-5.644,3.84-9.086
		c0.025-3.442-1.292-6.688-3.709-9.14c-0.044-0.044-0.087-0.088-0.131-0.131l-1.403,1.404c2.796,2.995,3.281,6.097,3.188,8.188
		c-0.119,2.691-1.28,5.328-3.186,7.235c-2.016,2.017-4.674,3.154-7.485,3.2c-0.059,0.001-0.118,0.001-0.177,0.001
		c-2.832,0-5.51-1.108-7.76-3.206L1.002,19.234z M3.118,17.117c2.057,1.91,4.482,2.917,7.027,2.917c0.061,0,0.122,0,0.183-0.002
		c2.514-0.042,4.99-1.101,6.795-2.907c4.385-4.389,3.278-10.433-0.006-14.006L3.118,17.117z"/>
	<path d="M13.756,15.036c-0.527,0-1.088-0.259-1.54-0.71c-0.35-0.349-0.59-0.777-0.676-1.205c-0.1-0.5,0.015-0.946,0.324-1.256
		c0.236-0.236,0.555-0.361,0.921-0.361c0.527,0,1.088,0.259,1.54,0.711c0.444,0.444,0.71,1.02,0.71,1.542
		c0,0.366-0.125,0.684-0.36,0.919C14.439,14.911,14.122,15.036,13.756,15.036z M12.784,12.505c-0.066,0-0.156,0.012-0.212,0.068
		c-0.091,0.091-0.066,0.277-0.051,0.352c0.046,0.232,0.193,0.485,0.401,0.693c0.254,0.254,0.582,0.418,0.835,0.418
		c0.065,0,0.156-0.012,0.212-0.068c0.057-0.057,0.066-0.157,0.066-0.211c0-0.254-0.163-0.582-0.416-0.834
		C13.365,12.669,13.037,12.505,12.784,12.505z"/>
	<path d="M16.076,9.152c-1.115,0-1.988-0.655-1.988-1.491c0-0.836,0.873-1.491,1.988-1.491s1.988,0.655,1.988,1.491
		C18.064,8.497,17.191,9.152,16.076,9.152z M16.076,7.17c-0.556,0-0.988,0.264-0.988,0.491s0.432,0.491,0.988,0.491
		s0.988-0.264,0.988-0.491S16.633,7.17,16.076,7.17z"/>
	<path d="M7.661,18.063c-0.837,0-1.492-0.873-1.492-1.988c0-1.114,0.655-1.987,1.492-1.987c0.836,0,1.491,0.873,1.491,1.987
		C9.152,17.19,8.498,18.063,7.661,18.063z M7.661,15.088c-0.228,0-0.492,0.431-0.492,0.987c0,0.556,0.264,0.988,0.492,0.988
		c0.227,0,0.491-0.432,0.491-0.988C8.152,15.519,7.888,15.088,7.661,15.088z"/>
</g>
</svg>
