<?xml version="1.0" encoding="utf-8"?>
<!-- Generator: Adobe Illustrator 22.1.0, SVG Export Plug-In . SVG Version: 6.00 Build 0)  -->
<svg version="1.1" id="Light" xmlns="http://www.w3.org/2000/svg" xmlns:xlink="http://www.w3.org/1999/xlink" x="0px" y="0px"
	 viewBox="0 0 24 24" style="enable-background:new 0 0 24 24;" xml:space="preserve">
<g>
	<title>fruit-lemon</title>
	<path d="M10.5,9.5C10.224,9.5,10,9.276,10,9V7.5C10,7.224,10.224,7,10.5,7S11,7.224,11,7.5V9C11,9.276,10.776,9.5,10.5,9.5z"/>
	<path d="M8.379,10.379c-0.134,0-0.259-0.052-0.354-0.146L6.964,9.172C6.87,9.077,6.818,8.952,6.818,8.818S6.87,8.559,6.964,8.464
		s0.22-0.146,0.354-0.146S7.577,8.37,7.672,8.464l1.061,1.061c0.094,0.094,0.146,0.22,0.146,0.354s-0.052,0.259-0.146,0.354
		S8.513,10.379,8.379,10.379z"/>
	<path d="M6,12.5c-0.276,0-0.5-0.224-0.5-0.5c0-0.276,0.224-0.5,0.5-0.5h1.5C7.776,11.5,8,11.724,8,12c0,0.276-0.224,0.5-0.5,0.5H6z
		"/>
	<path d="M7.318,15.682c-0.134,0-0.259-0.052-0.354-0.146s-0.146-0.22-0.146-0.354s0.052-0.259,0.146-0.354l1.061-1.061
		c0.094-0.094,0.22-0.146,0.354-0.146s0.259,0.052,0.354,0.146s0.146,0.22,0.146,0.354s-0.052,0.259-0.146,0.354l-1.061,1.061
		C7.577,15.63,7.452,15.682,7.318,15.682z"/>
	<path d="M10.5,17c-0.276,0-0.5-0.224-0.5-0.5V15c0-0.276,0.224-0.5,0.5-0.5S11,14.724,11,15v1.5C11,16.776,10.776,17,10.5,17z"/>
	<path d="M13.682,15.682c-0.134,0-0.259-0.052-0.354-0.146l-1.061-1.061c-0.094-0.094-0.146-0.22-0.146-0.354
		s0.052-0.259,0.146-0.354s0.22-0.146,0.354-0.146s0.259,0.052,0.354,0.146l1.061,1.061c0.094,0.094,0.146,0.22,0.146,0.354
		s-0.052,0.259-0.146,0.354S13.815,15.682,13.682,15.682z"/>
	<path d="M13.5,12.5c-0.276,0-0.5-0.224-0.5-0.5c0-0.276,0.224-0.5,0.5-0.5H15c0.276,0,0.5,0.224,0.5,0.5c0,0.276-0.224,0.5-0.5,0.5
		H13.5z"/>
	<path d="M12.621,10.379c-0.134,0-0.259-0.052-0.354-0.146c-0.094-0.094-0.146-0.22-0.146-0.354c0-0.134,0.052-0.259,0.146-0.354
		l1.061-1.061c0.094-0.094,0.22-0.146,0.354-0.146s0.259,0.052,0.354,0.146c0.094,0.094,0.146,0.22,0.146,0.354
		c0,0.134-0.052,0.259-0.146,0.354l-1.061,1.061C12.88,10.327,12.755,10.379,12.621,10.379z"/>
	<path d="M10.5,22.5C4.71,22.5,0,17.79,0,12C0,6.21,4.71,1.5,10.5,1.5c3.728,0,7.096,0.943,9.484,2.656C22.611,6.041,24,8.753,24,12
		c0,3.247-1.389,5.959-4.016,7.844C17.596,21.557,14.228,22.5,10.5,22.5z M10.5,2.5C5.262,2.5,1,6.762,1,12s4.262,9.5,9.5,9.5
		S20,17.238,20,12S15.738,2.5,10.5,2.5z M16.739,3.562C19.376,5.524,21,8.657,21,12c0,3.343-1.624,6.477-4.261,8.438
		c0.991-0.376,1.882-0.847,2.662-1.406C21.756,17.342,23,14.911,23,12c0-2.911-1.244-5.342-3.599-7.031
		C18.621,4.409,17.73,3.939,16.739,3.562z"/>
</g>
</svg>
