<?xml version="1.0" encoding="utf-8"?>
<!-- Generator: Adobe Illustrator 22.1.0, SVG Export Plug-In . SVG Version: 6.00 Build 0)  -->
<svg version="1.1" id="Light" xmlns="http://www.w3.org/2000/svg" xmlns:xlink="http://www.w3.org/1999/xlink" x="0px" y="0px"
	 viewBox="0 0 24 24" style="enable-background:new 0 0 24 24;" xml:space="preserve">
<g>
	<title>fruit-acorn</title>
	<circle cx="18.754" cy="13.749" r="0.75"/>
	<circle cx="20.754" cy="11.749" r="0.75"/>
	<circle cx="17.754" cy="10.749" r="0.75"/>
	<path d="M7.881,23.996c-1.842,0-3.74-0.376-5.801-1.15c-0.427-0.161-0.764-0.497-0.924-0.924
		C-1.845,13.929,1.521,8.879,5.679,4.636L5.631,4.588C5.238,4.149,5.273,3.489,5.701,3.105c1.879-1.669,4.29-2.588,6.79-2.588
		c2.183,0,4.261,0.68,6.024,1.97l2.027-2.027C20.841,0.163,21.238,0,21.66,0s0.819,0.164,1.117,0.461l0.764,0.765
		c0.615,0.616,0.615,1.619,0,2.234l-2.028,2.027c2.823,3.865,2.577,9.218-0.615,12.812c-0.015,0.017-0.03,0.032-0.045,0.047
		c-0.197,0.196-0.457,0.303-0.733,0.303c-0.28-0.001-0.54-0.109-0.736-0.306l-0.02-0.02c-2.697,2.636-5.002,4.186-7.45,5.013
		C10.619,23.774,9.262,23.996,7.881,23.996z M6.385,5.344c-4.513,4.612-6.944,9.165-4.293,16.227c0.059,0.157,0.183,0.281,0.34,0.34
		c1.967,0.738,3.76,1.097,5.479,1.097c3.659,0,6.884-1.615,10.748-5.39L6.385,5.344z M12.491,1.518c-2.255,0-4.43,0.829-6.124,2.333
		C6.351,3.865,6.35,3.892,6.366,3.909l13.728,13.728c0.008,0.008,0.017,0.012,0.027,0.012c0.011,0,0.02-0.004,0.028-0.011
		c2.988-3.364,3.123-8.366,0.312-11.883c-0.159-0.199-0.143-0.486,0.037-0.666l2.337-2.336c0.226-0.226,0.226-0.595,0-0.822
		L22.07,1.168c-0.109-0.109-0.255-0.169-0.411-0.169s-0.301,0.06-0.411,0.169l-2.335,2.336c-0.095,0.095-0.22,0.146-0.354,0.146
		c-0.113,0-0.224-0.039-0.312-0.109C16.615,2.236,14.57,1.518,12.491,1.518z"/>
</g>
</svg>
