<?xml version="1.0" encoding="utf-8"?>
<!-- Generator: Adobe Illustrator 22.1.0, SVG Export Plug-In . SVG Version: 6.00 Build 0)  -->
<svg version="1.1" id="Light" xmlns="http://www.w3.org/2000/svg" xmlns:xlink="http://www.w3.org/1999/xlink" x="0px" y="0px"
	 viewBox="0 0 24 24" style="enable-background:new 0 0 24 24;" xml:space="preserve">
<g>
	<title>arrow-thick-left-bottom-corner-2</title>
	<path d="M4.25,20.859c-0.551,0-1-0.448-1-1v-14c0-1.379,1.121-2.5,2.5-2.5s2.5,1.121,2.5,2.5v6.215l8.197-8.193
		c0.473-0.444,1.083-0.685,1.723-0.685c0.639,0,1.246,0.24,1.71,0.676c0.486,0.457,0.765,1.076,0.786,1.744
		c0.021,0.668-0.219,1.304-0.676,1.79l-8.454,8.454h6.715c1.378,0,2.5,1.122,2.5,2.5s-1.122,2.5-2.5,2.5H4.25z M5.75,4.359
		c-0.827,0-1.5,0.673-1.5,1.5v14h14c0.827,0,1.5-0.673,1.5-1.5s-0.673-1.5-1.5-1.5h-7.922c-0.203,0-0.384-0.121-0.462-0.309
		c-0.078-0.188-0.035-0.401,0.108-0.545l9.294-9.293c0.267-0.286,0.411-0.666,0.398-1.066c-0.012-0.4-0.18-0.772-0.472-1.047
		c-0.279-0.262-0.644-0.406-1.028-0.406c-0.383,0-0.747,0.144-1.025,0.404l-9.038,9.036c-0.095,0.094-0.22,0.146-0.354,0.146
		c-0.066,0-0.13-0.013-0.191-0.038C7.371,13.664,7.25,13.483,7.25,13.28V5.859C7.25,5.031,6.577,4.359,5.75,4.359z"/>
</g>
</svg>
