<?xml version="1.0" encoding="utf-8"?>
<!-- Generator: Adobe Illustrator 22.1.0, SVG Export Plug-In . SVG Version: 6.00 Build 0)  -->
<svg version="1.1" id="Light" xmlns="http://www.w3.org/2000/svg" xmlns:xlink="http://www.w3.org/1999/xlink" x="0px" y="0px"
	 viewBox="0 0 24 24" style="enable-background:new 0 0 24 24;" xml:space="preserve">
<g>
	<title>arrow-dot-up</title>
	<path d="M1.5,24C0.673,24,0,23.327,0,22.5v-21C0,0.673,0.673,0,1.5,0h21C23.327,0,24,0.673,24,1.5v21c0,0.827-0.673,1.5-1.5,1.5
		H1.5z M1.5,1C1.224,1,1,1.224,1,1.5v21C1,22.776,1.224,23,1.5,23h21c0.276,0,0.5-0.224,0.5-0.5v-21C23,1.224,22.776,1,22.5,1H1.5z"
		/>
	<path d="M4.504,14.25c-0.413,0-0.749-0.336-0.749-0.75s0.336-0.75,0.75-0.75s0.75,0.336,0.75,0.75
		c-0.002,0.415-0.338,0.75-0.749,0.75H4.504z"/>
	<path d="M7.5,14.25c-0.413,0-0.749-0.336-0.749-0.75s0.336-0.75,0.75-0.75s0.75,0.336,0.75,0.75
		c-0.001,0.415-0.338,0.75-0.749,0.75H7.5z"/>
	<circle cx="7.501" cy="10.5" r="0.75"/>
	<path d="M10.496,14.25c-0.413,0-0.749-0.336-0.749-0.75s0.336-0.75,0.75-0.75s0.75,0.336,0.75,0.75
		c-0.001,0.415-0.338,0.75-0.749,0.75H10.496z"/>
	<circle cx="10.497" cy="10.5" r="0.75"/>
	<path d="M13.492,14.25c-0.413,0-0.749-0.336-0.749-0.75s0.336-0.75,0.75-0.75s0.75,0.336,0.75,0.75
		c-0.001,0.415-0.337,0.75-0.749,0.75H13.492z"/>
	<circle cx="13.493" cy="10.5" r="0.75"/>
	<circle cx="10.497" cy="7.505" r="0.75"/>
	<path d="M11.995,5.259c-0.414,0-0.75-0.336-0.75-0.75s0.336-0.75,0.75-0.75c0.414,0,0.75,0.336,0.75,0.75
		S12.409,5.259,11.995,5.259z"/>
	<circle cx="13.493" cy="7.505" r="0.75"/>
	<circle cx="10.497" cy="19.49" r="0.75"/>
	<circle cx="10.497" cy="16.494" r="0.75"/>
	<circle cx="13.493" cy="19.49" r="0.75"/>
	<circle cx="13.493" cy="16.494" r="0.75"/>
	<path d="M16.492,14.25c-0.414,0-0.751-0.336-0.751-0.75s0.336-0.75,0.75-0.75c0.413,0.001,0.749,0.338,0.749,0.75
		C17.239,13.913,16.903,14.249,16.492,14.25C16.492,14.25,16.492,14.25,16.492,14.25z"/>
	<path d="M19.484,14.25c-0.413,0-0.749-0.336-0.749-0.75s0.336-0.75,0.75-0.75s0.75,0.336,0.75,0.75
		c-0.002,0.415-0.338,0.75-0.749,0.75H19.484z"/>
	<circle cx="16.495" cy="10.515" r="0.75"/>
</g>
</svg>
