<?xml version="1.0" encoding="utf-8"?>
<!-- Generator: Adobe Illustrator 22.1.0, SVG Export Plug-In . SVG Version: 6.00 Build 0)  -->
<svg version="1.1" id="Light" xmlns="http://www.w3.org/2000/svg" xmlns:xlink="http://www.w3.org/1999/xlink" x="0px" y="0px"
	 viewBox="0 0 24 24" style="enable-background:new 0 0 24 24;" xml:space="preserve">
<g>
	<title>arrow-thick-left-bottom-corner</title>
	<path d="M1.099,23.901c-0.551,0-1-0.448-1-1V6.972c-0.002-0.267,0.107-0.529,0.3-0.718c0.188-0.184,0.437-0.286,0.7-0.286
		c0.271,0,0.525,0.106,0.714,0.299l4.156,4.157L15.996,0.397c0.189-0.189,0.44-0.292,0.707-0.292c0.267,0,0.518,0.104,0.707,0.292
		l6.193,6.193c0.39,0.39,0.39,1.024,0,1.414L13.575,18.031l4.16,4.164c0.189,0.189,0.292,0.44,0.292,0.706c0,0.552-0.448,1-1,1
		H1.099z M1.099,22.901h15.929l-4.513-4.517c-0.195-0.195-0.195-0.512,0-0.707l10.381-10.38l-6.193-6.193L6.323,11.485
		c-0.091,0.091-0.22,0.144-0.354,0.144s-0.262-0.052-0.354-0.144L1.103,6.971L1.099,6.718l0,0.25c0,0,0.001,0,0.001-0.001
		L1.099,22.901z"/>
</g>
</svg>
