<?xml version="1.0" encoding="utf-8"?>
<!-- Generator: Adobe Illustrator 22.1.0, SVG Export Plug-In . SVG Version: 6.00 Build 0)  -->
<svg version="1.1" id="Light" xmlns="http://www.w3.org/2000/svg" xmlns:xlink="http://www.w3.org/1999/xlink" x="0px" y="0px"
	 viewBox="0 0 24 24" style="enable-background:new 0 0 24 24;" xml:space="preserve">
<g>
	<title>arrow-thick-dot-down</title>
	<path d="M12,24c-1.103,0-2-0.897-2-2s0.897-2,2-2s2,0.897,2,2S13.103,24,12,24z M12,21c-0.551,0-1,0.448-1,1s0.449,1,1,1
		c0.552,0,1-0.448,1-1S12.552,21,12,21z"/>
	<path d="M17,20c-1.103,0-2-0.897-2-2s0.897-2,2-2s2,0.897,2,2S18.103,20,17,20z M17,17c-0.552,0-1,0.448-1,1s0.448,1,1,1
		s1-0.448,1-1S17.552,17,17,17z"/>
	<path d="M21,16c-1.103,0-2-0.897-2-2s0.897-2,2-2s2,0.897,2,2S22.103,16,21,16z M21,13c-0.552,0-1,0.448-1,1s0.448,1,1,1
		s1-0.448,1-1S21.552,13,21,13z"/>
	<path d="M7,20c-1.103,0-2-0.897-2-2s0.897-2,2-2s2,0.897,2,2S8.103,20,7,20z M7,17c-0.551,0-1,0.448-1,1s0.449,1,1,1s1-0.448,1-1
		S7.551,17,7,17z"/>
	<path d="M3,16c-1.103,0-2-0.897-2-2s0.897-2,2-2s2,0.897,2,2S4.103,16,3,16z M3,13c-0.551,0-1,0.448-1,1s0.449,1,1,1s1-0.448,1-1
		S3.551,13,3,13z"/>
	<path d="M12,4c-1.103,0-2-0.897-2-2s0.897-2,2-2s2,0.897,2,2S13.103,4,12,4z M12,1c-0.551,0-1,0.449-1,1s0.449,1,1,1
		c0.552,0,1-0.449,1-1S12.552,1,12,1z"/>
	<path d="M12,9c-1.103,0-2-0.897-2-2s0.897-2,2-2s2,0.897,2,2S13.103,9,12,9z M12,6c-0.551,0-1,0.449-1,1s0.449,1,1,1
		c0.552,0,1-0.449,1-1S12.552,6,12,6z"/>
	<path d="M12,14c-1.103,0-2-0.897-2-2s0.897-2,2-2s2,0.897,2,2S13.103,14,12,14z M12,11c-0.551,0-1,0.449-1,1c0,0.552,0.449,1,1,1
		c0.552,0,1-0.448,1-1C13,11.449,12.552,11,12,11z"/>
	<path d="M12,19c-1.103,0-2-0.897-2-2s0.897-2,2-2s2,0.897,2,2S13.103,19,12,19z M12,16c-0.551,0-1,0.448-1,1s0.449,1,1,1
		c0.552,0,1-0.448,1-1S12.552,16,12,16z"/>
</g>
</svg>
