<?xml version="1.0" encoding="utf-8"?>
<!-- Generator: Adobe Illustrator 22.1.0, SVG Export Plug-In . SVG Version: 6.00 Build 0)  -->
<svg version="1.1" id="Light" xmlns="http://www.w3.org/2000/svg" xmlns:xlink="http://www.w3.org/1999/xlink" x="0px" y="0px"
	 viewBox="0 0 24 24" style="enable-background:new 0 0 24 24;" xml:space="preserve">
<g>
	<title>arrow-button-circle-left-1</title>
	<path d="M13.999,19.43c-0.233-0.001-0.46-0.083-0.639-0.232l-7.72-6.43c-0.424-0.354-0.481-0.985-0.128-1.409
		c0.038-0.046,0.081-0.088,0.127-0.127l7.721-6.434c0.18-0.15,0.406-0.232,0.638-0.232c0.031,0,0.063,0.002,0.094,0.005
		c0.265,0.024,0.506,0.151,0.677,0.356C14.918,5.107,15,5.334,15,5.567v2.688c0,0.311-0.141,0.599-0.386,0.79l-3.8,2.953l3.8,2.955
		C14.859,15.143,15,15.431,15,15.742v2.688C15,18.981,14.551,19.43,13.999,19.43C14,19.43,13.999,19.43,13.999,19.43z M6.28,12
		L14,18.43l0-2.688l-4.054-3.153c-0.05-0.039-0.094-0.083-0.132-0.132c-0.122-0.156-0.176-0.352-0.152-0.551
		c0.024-0.199,0.125-0.376,0.283-0.5L14,8.255V5.567L6.28,12z"/>
	<path d="M12,24C5.383,24,0,18.617,0,12C0,5.383,5.383,0,12,0c6.617,0,12,5.383,12,12C24,18.617,18.617,24,12,24z M12,1
		C5.935,1,1,5.935,1,12s4.935,11,11,11s11-4.935,11-11S18.065,1,12,1z"/>
</g>
</svg>
