<?xml version="1.0" encoding="utf-8"?>
<!-- Generator: Adobe Illustrator 22.1.0, SVG Export Plug-In . SVG Version: 6.00 Build 0)  -->
<svg version="1.1" id="Light" xmlns="http://www.w3.org/2000/svg" xmlns:xlink="http://www.w3.org/1999/xlink" x="0px" y="0px"
	 viewBox="0 0 24 24" style="enable-background:new 0 0 24 24;" xml:space="preserve">
<g>
	<title>arrow-thick-right-bottom-corner-2</title>
	<path d="M5.747,20.858c-1.379,0-2.5-1.122-2.5-2.5s1.121-2.5,2.5-2.5h6.715l-8.44-8.443C3.554,6.918,3.314,6.282,3.335,5.614
		s0.3-1.288,0.786-1.744c0.464-0.436,1.072-0.677,1.712-0.677c0.638,0,1.245,0.24,1.709,0.674l8.205,8.205V5.858
		c0-1.379,1.122-2.5,2.5-2.5s2.5,1.121,2.5,2.5v14c0,0.552-0.448,1-1,1H5.747z M5.747,16.858c-0.827,0-1.5,0.673-1.5,1.5
		s0.673,1.5,1.5,1.5h14v-14c0-0.827-0.673-1.5-1.5-1.5s-1.5,0.673-1.5,1.5v7.422c0,0.203-0.121,0.385-0.309,0.462
		c-0.06,0.025-0.125,0.038-0.191,0.038c-0.133,0-0.259-0.052-0.354-0.146L6.847,4.586c-0.269-0.252-0.63-0.394-1.012-0.394
		c-0.385,0-0.75,0.144-1.029,0.406c-0.292,0.275-0.46,0.646-0.472,1.047c-0.012,0.399,0.131,0.78,0.404,1.071l9.285,9.287
		c0.144,0.144,0.186,0.358,0.108,0.545c-0.077,0.187-0.259,0.308-0.462,0.308H5.747z"/>
</g>
</svg>
