<?xml version="1.0" encoding="utf-8"?>
<!-- Generator: Adobe Illustrator 22.1.0, SVG Export Plug-In . SVG Version: 6.00 Build 0)  -->
<svg version="1.1" id="Light" xmlns="http://www.w3.org/2000/svg" xmlns:xlink="http://www.w3.org/1999/xlink" x="0px" y="0px"
	 viewBox="0 0 24 24" style="enable-background:new 0 0 24 24;" xml:space="preserve">
<g>
	<title>arrow-button-up-2</title>
	<path d="M2.331,21.533c-0.827,0-1.5-0.673-1.5-1.5c0-0.274,0.075-0.542,0.216-0.776l9.724-16.069
		c0.208-0.343,0.536-0.584,0.925-0.68c0.118-0.029,0.24-0.044,0.36-0.044c0.272,0,0.54,0.075,0.774,0.217
		c0.207,0.125,0.382,0.3,0.507,0.506l9.726,16.069c0.428,0.708,0.2,1.632-0.508,2.06c-0.233,0.141-0.5,0.215-0.772,0.216
		C21.783,21.533,2.331,21.533,2.331,21.533z M12.056,3.465c-0.041,0-0.081,0.005-0.12,0.015c-0.13,0.032-0.239,0.113-0.309,0.227
		L1.903,19.775c-0.047,0.078-0.072,0.167-0.072,0.258c0,0.276,0.224,0.5,0.5,0.5h19.45c0.09,0,0.179-0.025,0.258-0.072
		c0.235-0.142,0.311-0.45,0.169-0.686L12.482,3.706c-0.042-0.069-0.1-0.127-0.169-0.169C12.235,3.49,12.146,3.465,12.056,3.465z"/>
</g>
</svg>
