<?xml version="1.0" encoding="utf-8"?>
<!-- Generator: Adobe Illustrator 22.1.0, SVG Export Plug-In . SVG Version: 6.00 Build 0)  -->
<svg version="1.1" id="Light" xmlns="http://www.w3.org/2000/svg" xmlns:xlink="http://www.w3.org/1999/xlink" x="0px" y="0px"
	 viewBox="0 0 24 24" style="enable-background:new 0 0 24 24;" xml:space="preserve">
<g>
	<title>arrow-rectangle-right-1</title>
	<path d="M8.361,18c-0.267,0-0.518-0.104-0.707-0.292c-0.189-0.189-0.293-0.44-0.293-0.707c0-0.295,0.129-0.574,0.354-0.765
		L12.723,12L7.715,7.764C7.511,7.592,7.387,7.35,7.364,7.084c-0.022-0.266,0.06-0.525,0.233-0.729C7.787,6.129,8.066,6,8.361,6H10.7
		c0.248,0,0.486,0.092,0.67,0.258l5.547,5c0.409,0.37,0.441,1.004,0.072,1.412c-0.024,0.026-0.046,0.048-0.067,0.068l-5.552,5.005
		C11.186,17.908,10.948,18,10.7,18H8.361z M8.36,7l5.233,4.427c0.031,0.026,0.062,0.057,0.09,0.09
		c0.266,0.315,0.226,0.789-0.09,1.056L8.361,17l2.339,0l5.547-5.003L10.7,7L8.36,7l0.001-0.25C8.361,6.75,8.361,7,8.36,7z"/>
	<path d="M1.5,24C0.673,24,0,23.327,0,22.5v-21C0,0.673,0.673,0,1.5,0h21C23.327,0,24,0.673,24,1.5v21c0,0.827-0.673,1.5-1.5,1.5
		H1.5z M1.5,1C1.224,1,1,1.224,1,1.5v21C1,22.776,1.224,23,1.5,23h21c0.276,0,0.5-0.224,0.5-0.5v-21C23,1.224,22.776,1,22.5,1H1.5z"
		/>
</g>
</svg>
