<?xml version="1.0" encoding="utf-8"?>
<!-- Generator: Adobe Illustrator 22.1.0, SVG Export Plug-In . SVG Version: 6.00 Build 0)  -->
<svg version="1.1" id="Light" xmlns="http://www.w3.org/2000/svg" xmlns:xlink="http://www.w3.org/1999/xlink" x="0px" y="0px"
	 viewBox="0 0 24 24" style="enable-background:new 0 0 24 24;" xml:space="preserve">
<g>
	<title>arrow-thick-up-1</title>
	<path d="M9.878,23.901c-0.551,0-1-0.448-1-1V11.346l-3.656,3.457c-0.185,0.176-0.429,0.273-0.688,0.273
		c-0.27,0-0.522-0.104-0.711-0.294l-2.748-2.751c-0.39-0.39-0.39-1.024,0-1.414L11.293,0.398C11.482,0.21,11.733,0.106,12,0.106
		c0.267,0,0.518,0.104,0.707,0.292l10.217,10.219c0.389,0.39,0.389,1.024,0,1.414l-2.76,2.76c-0.189,0.189-0.44,0.292-0.707,0.292
		l0,0c-0.248,0-0.486-0.091-0.67-0.258l-3.91-3.528v11.602c0,0.552-0.448,1-1,1H9.878z M9.378,9.686
		c0.068,0,0.135,0.014,0.198,0.041c0.184,0.079,0.302,0.26,0.302,0.459v12.715h4V10.174c0-0.198,0.117-0.377,0.297-0.457
		c0.064-0.029,0.132-0.043,0.203-0.043c0.124,0,0.243,0.046,0.335,0.128l4.746,4.282l2.76-2.76L12,1.105L1.782,11.324l2.749,2.752
		l4.503-4.254C9.127,9.734,9.249,9.686,9.378,9.686z"/>
</g>
</svg>
