<?xml version="1.0" encoding="utf-8"?>
<!-- Generator: Adobe Illustrator 22.1.0, SVG Export Plug-In . SVG Version: 6.00 Build 0)  -->
<svg version="1.1" id="Light" xmlns="http://www.w3.org/2000/svg" xmlns:xlink="http://www.w3.org/1999/xlink" x="0px" y="0px"
	 viewBox="0 0 24 24" style="enable-background:new 0 0 24 24;" xml:space="preserve">
<g>
	<title>arrow-dot-corner-down-right</title>
	<path d="M1.5,24C0.673,24,0,23.327,0,22.5v-21C0,0.673,0.673,0,1.5,0h21C23.327,0,24,0.673,24,1.5v21c0,0.827-0.673,1.5-1.5,1.5
		H1.5z M1.5,1C1.224,1,1,1.224,1,1.5v21C1,22.776,1.224,23,1.5,23h21c0.276,0,0.5-0.224,0.5-0.5v-21C23,1.224,22.776,1,22.5,1H1.5z"
		/>
	<circle cx="19.5" cy="19.504" r="0.75"/>
	<circle cx="16.5" cy="19.504" r="0.75"/>
	<circle cx="13.5" cy="19.504" r="0.75"/>
	<circle cx="10.5" cy="19.504" r="0.75"/>
	<circle cx="16.5" cy="16.504" r="0.75"/>
	<circle cx="13.5" cy="16.504" r="0.75"/>
	<circle cx="10.5" cy="16.504" r="0.75"/>
	<circle cx="16.5" cy="13.504" r="0.75"/>
	<circle cx="13.5" cy="13.504" r="0.75"/>
	<circle cx="10.5" cy="13.504" r="0.75"/>
	<circle cx="7.5" cy="19.504" r="0.75"/>
	<circle cx="10.5" cy="7.504" r="0.75"/>
	<circle cx="7.5" cy="7.504" r="0.75"/>
	<circle cx="4.5" cy="7.504" r="0.75"/>
	<circle cx="7.5" cy="4.504" r="0.75"/>
	<circle cx="16.5" cy="10.504" r="0.75"/>
	<circle cx="13.5" cy="10.504" r="0.75"/>
	<circle cx="10.5" cy="10.504" r="0.75"/>
	<circle cx="7.5" cy="10.504" r="0.75"/>
	<circle cx="19.5" cy="7.504" r="0.75"/>
	<circle cx="19.5" cy="10.504" r="0.75"/>
	<circle cx="19.5" cy="13.504" r="0.75"/>
	<circle cx="19.5" cy="16.504" r="0.75"/>
</g>
</svg>
