<?xml version="1.0" encoding="utf-8"?>
<!-- Generator: Adobe Illustrator 22.1.0, SVG Export Plug-In . SVG Version: 6.00 Build 0)  -->
<svg version="1.1" id="Light" xmlns="http://www.w3.org/2000/svg" xmlns:xlink="http://www.w3.org/1999/xlink" x="0px" y="0px"
	 viewBox="0 0 24 24" style="enable-background:new 0 0 24 24;" xml:space="preserve">
<g>
	<title>arrow-thick-right-1</title>
	<path d="M12.686,23.217c-0.267,0-0.518-0.104-0.707-0.292l-2.756-2.756c-0.381-0.38-0.394-0.989-0.028-1.385L12.909,15H1.1
		c-0.551,0-1-0.448-1-1v-4c0-0.551,0.449-1,1-1h11.809l-3.7-3.772C8.833,4.831,8.842,4.202,9.227,3.822l2.752-2.751
		c0.19-0.187,0.44-0.29,0.705-0.29c0.269,0,0.521,0.105,0.71,0.296l10.217,10.215c0.189,0.188,0.293,0.439,0.293,0.706
		c0,0.268-0.104,0.519-0.292,0.708L13.393,22.925C13.205,23.113,12.954,23.217,12.686,23.217z M1.1,14h13
		c0.202,0,0.383,0.121,0.461,0.307c0.078,0.186,0.037,0.399-0.104,0.543L9.92,19.472l2.766,2.745L22.904,12
		c0,0-10.224-10.223-10.228-10.227L9.932,4.532l4.525,4.618c0.141,0.144,0.182,0.358,0.104,0.544C14.483,9.88,14.302,10,14.1,10h-13
		L1.1,14z"/>
</g>
</svg>
