<?xml version="1.0" encoding="utf-8"?>
<!-- Generator: Adobe Illustrator 22.1.0, SVG Export Plug-In . SVG Version: 6.00 Build 0)  -->
<svg version="1.1" id="Light" xmlns="http://www.w3.org/2000/svg" xmlns:xlink="http://www.w3.org/1999/xlink" x="0px" y="0px"
	 viewBox="0 0 24 24" style="enable-background:new 0 0 24 24;" xml:space="preserve">
<g>
	<title>arrow-thick-circle-left-2</title>
	<path d="M12,24.087c-6.617,0-12-5.383-12-12c0-6.617,5.383-12,12-12c6.617,0,12,5.383,12,12C24,18.704,18.617,24.087,12,24.087z
		 M12,1.087c-6.065,0-11,4.935-11,11s4.935,11,11,11s11-4.935,11-11S18.065,1.087,12,1.087z"/>
	<path d="M11.5,18.965c-0.535,0-1.037-0.208-1.415-0.585L4.5,12.794c-0.192-0.195-0.294-0.444-0.293-0.709
		c0-0.267,0.105-0.518,0.294-0.707l5.584-5.584c0.377-0.377,0.88-0.585,1.415-0.585c0.534,0,1.036,0.208,1.414,0.584
		c0.377,0.377,0.585,0.88,0.585,1.414c0,0.535-0.208,1.037-0.585,1.414l-1.464,1.464H17c1.103,0,2,0.897,2,2s-0.897,2-2,2h-5.55
		l1.464,1.465c0.377,0.377,0.585,0.88,0.585,1.414c0,0.535-0.208,1.037-0.585,1.414C12.537,18.757,12.035,18.965,11.5,18.965z
		 M11.5,6.209c-0.268,0-0.519,0.104-0.707,0.293l-5.585,5.585c0.004,0.004,0.018,0.019,0.021,0.024l5.563,5.562
		c0.189,0.189,0.44,0.292,0.708,0.292c0.267,0,0.519-0.104,0.707-0.292c0.189-0.189,0.293-0.44,0.293-0.707
		c0-0.267-0.104-0.518-0.293-0.707L9.89,13.94c-0.143-0.144-0.186-0.357-0.108-0.545c0.078-0.188,0.259-0.309,0.462-0.309H17
		c0.552,0,1-0.448,1-1c0-0.551-0.448-1-1-1h-6.757c-0.203,0-0.384-0.121-0.462-0.309c-0.078-0.188-0.035-0.401,0.108-0.545
		l2.318-2.318c0.189-0.189,0.293-0.44,0.293-0.707c0-0.267-0.104-0.518-0.293-0.707C12.019,6.313,11.767,6.209,11.5,6.209z"/>
</g>
</svg>
