<?xml version="1.0" encoding="utf-8"?>
<!-- Generator: Adobe Illustrator 22.1.0, SVG Export Plug-In . SVG Version: 6.00 Build 0)  -->
<svg version="1.1" id="Light" xmlns="http://www.w3.org/2000/svg" xmlns:xlink="http://www.w3.org/1999/xlink" x="0px" y="0px"
	 viewBox="0 0 24 24" style="enable-background:new 0 0 24 24;" xml:space="preserve">
<g>
	<title>arrow-circle-left</title>
	<path d="M15.499,19.001c-0.11,0-0.215-0.035-0.303-0.102l-7.981-6.101c-0.07-0.054-0.133-0.117-0.187-0.187
		c-0.162-0.212-0.232-0.474-0.197-0.739c0.035-0.265,0.171-0.5,0.383-0.662l7.981-6.107C15.284,5.036,15.389,5,15.5,5
		c0.155,0,0.303,0.073,0.397,0.196c0.081,0.106,0.116,0.237,0.098,0.37c-0.018,0.132-0.086,0.25-0.192,0.331l-7.981,6.107
		l7.98,6.099c0.219,0.168,0.261,0.482,0.094,0.701C15.801,18.929,15.656,19.001,15.499,19.001z"/>
	<path d="M12,24C5.383,24,0,18.617,0,12C0,5.383,5.383,0,12,0c6.617,0,12,5.383,12,12C24,18.617,18.617,24,12,24z M12,1
		C5.935,1,1,5.935,1,12s4.935,11,11,11s11-4.935,11-11S18.065,1,12,1z"/>
</g>
</svg>
