<?xml version="1.0" encoding="utf-8"?>
<!-- Generator: Adobe Illustrator 22.1.0, SVG Export Plug-In . SVG Version: 6.00 Build 0)  -->
<svg version="1.1" id="Light" xmlns="http://www.w3.org/2000/svg" xmlns:xlink="http://www.w3.org/1999/xlink" x="0px" y="0px"
	 viewBox="0 0 24 24" style="enable-background:new 0 0 24 24;" xml:space="preserve">
<g>
	<title>arrow-rectangle-right</title>
	<path d="M1.5,24.002c-0.827,0-1.5-0.673-1.5-1.5V1.498c0-0.827,0.673-1.5,1.5-1.5h21c0.827,0,1.5,0.673,1.5,1.5v21.004
		c0,0.827-0.673,1.5-1.5,1.5H1.5z M1.5,0.998c-0.276,0-0.5,0.224-0.5,0.5v21.004c0,0.276,0.224,0.5,0.5,0.5h21
		c0.276,0,0.5-0.224,0.5-0.5V1.498c0-0.276-0.224-0.5-0.5-0.5H1.5z"/>
	<path d="M9,18.5c-0.134,0-0.259-0.052-0.354-0.146c-0.195-0.195-0.195-0.512,0-0.707L14.292,12L8.646,6.354
		c-0.195-0.195-0.195-0.512,0-0.707C8.741,5.552,8.866,5.5,9,5.5s0.259,0.052,0.354,0.146L15,11.292
		c0.39,0.389,0.391,1.023,0.001,1.414l-5.647,5.647C9.259,18.448,9.134,18.5,9,18.5z"/>
</g>
</svg>
