<?xml version="1.0" encoding="utf-8"?>
<!-- Generator: Adobe Illustrator 22.1.0, SVG Export Plug-In . SVG Version: 6.00 Build 0)  -->
<svg version="1.1" id="Light" xmlns="http://www.w3.org/2000/svg" xmlns:xlink="http://www.w3.org/1999/xlink" x="0px" y="0px"
	 viewBox="0 0 24 24" style="enable-background:new 0 0 24 24;" xml:space="preserve">
<g>
	<title>arrow-thick-right-bottom-corner-4</title>
	<path d="M1.5,24C0.673,24,0,23.327,0,22.5v-21C0,0.673,0.673,0,1.5,0h21C23.327,0,24,0.673,24,1.5v21c0,0.827-0.673,1.5-1.5,1.5
		H1.5z M1.5,1C1.224,1,1,1.224,1,1.5v21C1,22.776,1.224,23,1.5,23h21c0.276,0,0.5-0.224,0.5-0.5v-21C23,1.224,22.776,1,22.5,1H1.5z"
		/>
	<path d="M9.706,18c-0.267-0.001-0.517-0.104-0.705-0.292l-2-2c-0.189-0.188-0.293-0.439-0.293-0.706
		c0-0.267,0.103-0.519,0.292-0.708C7.186,14.107,7.443,14,7.707,14h3.466L5.999,8.683c-0.377-0.39-0.372-1.018,0.009-1.401
		l1.421-1.422c0.189-0.189,0.44-0.292,0.707-0.292c0.267,0,0.518,0.104,0.707,0.292L14,11.017v-3.31C14,7.44,14.104,7.189,14.293,7
		c0.189-0.189,0.44-0.293,0.707-0.293c0.264,0,0.522,0.107,0.708,0.294l2,2C17.896,9.19,18,9.441,18,9.707V17c0,0.552-0.448,1-1,1
		H9.706z M9.708,17L17,17V9.707l-2-2l0,4.516c0,0.203-0.121,0.384-0.308,0.462c-0.062,0.025-0.126,0.038-0.191,0.038
		c-0.134,0-0.259-0.052-0.354-0.146L8.135,6.567l-1.42,1.421l6,6.164c0.14,0.144,0.18,0.357,0.102,0.543
		C12.739,14.88,12.559,15,12.357,15H7.708L9.708,17z"/>
</g>
</svg>
