<?xml version="1.0" encoding="utf-8"?>
<!-- Generator: Adobe Illustrator 22.1.0, SVG Export Plug-In . SVG Version: 6.00 Build 0)  -->
<svg version="1.1" id="Light" xmlns="http://www.w3.org/2000/svg" xmlns:xlink="http://www.w3.org/1999/xlink" x="0px" y="0px"
	 viewBox="0 0 24 24" style="enable-background:new 0 0 24 24;" xml:space="preserve">
<g>
	<title>arrow-thick-dot-corner-down-left</title>
	<path d="M5,21c-1.103,0-2-0.897-2-2s0.897-2,2-2s2,0.897,2,2S6.103,21,5,21z M5,18c-0.551,0-1,0.448-1,1s0.449,1,1,1s1-0.448,1-1
		S5.551,18,5,18z"/>
	<path d="M8.5,17.5c-1.103,0-2-0.897-2-2s0.897-2,2-2s2,0.897,2,2S9.603,17.5,8.5,17.5z M8.5,14.5c-0.551,0-1,0.448-1,1s0.449,1,1,1
		s1-0.448,1-1S9.051,14.5,8.5,14.5z"/>
	<path d="M12,14c-1.103,0-2-0.897-2-2s0.897-2,2-2s2,0.897,2,2S13.103,14,12,14z M12,11c-0.551,0-1,0.449-1,1c0,0.552,0.449,1,1,1
		c0.552,0,1-0.448,1-1C13,11.449,12.552,11,12,11z"/>
	<path d="M15.5,10.5c-1.103,0-2-0.897-2-2s0.897-2,2-2s2,0.897,2,2S16.603,10.5,15.5,10.5z M15.5,7.5c-0.552,0-1,0.449-1,1
		s0.448,1,1,1s1-0.449,1-1S16.052,7.5,15.5,7.5z"/>
	<path d="M19,7c-1.103,0-2-0.897-2-2s0.897-2,2-2s2,0.897,2,2S20.103,7,19,7z M19,4c-0.552,0-1,0.449-1,1s0.448,1,1,1s1-0.449,1-1
		S19.552,4,19,4z"/>
	<path d="M5,14.5c-1.103,0-2-0.897-2-2s0.897-2,2-2s2,0.897,2,2S6.103,14.5,5,14.5z M5,11.5c-0.551,0-1,0.449-1,1
		c0,0.552,0.449,1,1,1s1-0.448,1-1C6,11.949,5.551,11.5,5,11.5z"/>
	<path d="M5,9C3.897,9,3,8.103,3,7s0.897-2,2-2s2,0.897,2,2S6.103,9,5,9z M5,6C4.449,6,4,6.449,4,7s0.449,1,1,1s1-0.449,1-1
		S5.551,6,5,6z"/>
	<path d="M11.5,21c-1.103,0-2-0.897-2-2s0.897-2,2-2s2,0.897,2,2S12.603,21,11.5,21z M11.5,18c-0.551,0-1,0.448-1,1s0.449,1,1,1
		s1-0.448,1-1S12.051,18,11.5,18z"/>
	<path d="M17,21c-1.103,0-2-0.897-2-2s0.897-2,2-2s2,0.897,2,2S18.103,21,17,21z M17,18c-0.552,0-1,0.448-1,1s0.448,1,1,1
		s1-0.448,1-1S17.552,18,17,18z"/>
</g>
</svg>
