<?xml version="1.0" encoding="utf-8"?>
<!-- Generator: Adobe Illustrator 22.1.0, SVG Export Plug-In . SVG Version: 6.00 Build 0)  -->
<svg version="1.1" id="Light" xmlns="http://www.w3.org/2000/svg" xmlns:xlink="http://www.w3.org/1999/xlink" x="0px" y="0px"
	 viewBox="0 0 24 24" style="enable-background:new 0 0 24 24;" xml:space="preserve">
<g>
	<title>arrow-button-right-2</title>
	<path d="M3.99,23.225c-0.4,0-0.777-0.156-1.06-0.438c-0.284-0.283-0.44-0.66-0.44-1.06V2.273C2.49,2,2.565,1.732,2.706,1.499
		c0.207-0.343,0.535-0.585,0.924-0.68c0.119-0.029,0.241-0.044,0.362-0.044c0.271,0,0.539,0.075,0.773,0.217l16.069,9.725
		c0.207,0.125,0.383,0.301,0.508,0.508c0.207,0.343,0.268,0.746,0.172,1.135c-0.096,0.389-0.338,0.718-0.681,0.925L4.766,23.008
		c-0.234,0.141-0.501,0.216-0.774,0.216C3.991,23.225,3.99,23.225,3.99,23.225z M3.991,1.774c-0.041,0-0.081,0.005-0.121,0.015
		C3.74,1.821,3.631,1.902,3.562,2.016C3.515,2.094,3.49,2.183,3.49,2.274v19.452c0,0.275,0.225,0.499,0.5,0.499
		c0.091,0,0.181-0.025,0.258-0.072l16.069-9.725c0.115-0.069,0.195-0.179,0.227-0.308c0.032-0.13,0.011-0.264-0.058-0.378
		c-0.042-0.069-0.101-0.128-0.17-0.17L4.248,1.846C4.17,1.799,4.081,1.774,3.991,1.774z"/>
</g>
</svg>
