<?xml version="1.0" encoding="utf-8"?>
<!-- Generator: Adobe Illustrator 22.1.0, SVG Export Plug-In . SVG Version: 6.00 Build 0)  -->
<svg version="1.1" id="Light" xmlns="http://www.w3.org/2000/svg" xmlns:xlink="http://www.w3.org/1999/xlink" x="0px" y="0px"
	 viewBox="0 0 24 24" style="enable-background:new 0 0 24 24;" xml:space="preserve">
<g>
	<title>arrow-thick-up-3</title>
	<path d="M10,24c-0.551,0-1-0.448-1-1V10.599l-5.345,4.657c-0.182,0.157-0.414,0.243-0.653,0.244c-0.552,0-1.001-0.448-1.001-1
		V9.316c0-0.283,0.121-0.554,0.332-0.744l8.999-8.143c0.186-0.166,0.423-0.257,0.669-0.257c0.246,0,0.483,0.091,0.667,0.255
		l9.001,8.142C21.878,8.757,22,9.028,22,9.313V14.5c0,0.237-0.085,0.467-0.24,0.648c-0.174,0.204-0.417,0.327-0.683,0.348
		c-0.026,0.002-0.051,0.003-0.075,0.003c-0.24,0-0.472-0.085-0.653-0.24L15,10.598V23c0,0.552-0.448,1-1,1H10z M9.5,9
		c0.072,0,0.142,0.015,0.208,0.045C9.885,9.125,10,9.304,10,9.5V23h4V9.5c0-0.196,0.115-0.374,0.293-0.455
		C14.358,9.015,14.428,9,14.5,9c0.121,0,0.237,0.044,0.328,0.123l6.175,5.379L21,9.313l-9.001-8.142L3.002,9.315L3.001,14.5
		l6.171-5.377C9.263,9.043,9.379,9,9.5,9z"/>
</g>
</svg>
