<?xml version="1.0" encoding="utf-8"?>
<!-- Generator: Adobe Illustrator 22.1.0, SVG Export Plug-In . SVG Version: 6.00 Build 0)  -->
<svg version="1.1" id="Light" xmlns="http://www.w3.org/2000/svg" xmlns:xlink="http://www.w3.org/1999/xlink" x="0px" y="0px"
	 viewBox="0 0 24 24" style="enable-background:new 0 0 24 24;" xml:space="preserve">
<g>
	<title>arrow-button-circle-right-1</title>
	<path d="M10.001,19.433c-0.031,0-0.062-0.001-0.093-0.004c-0.265-0.024-0.506-0.15-0.677-0.356C9.082,18.893,9,18.665,9,18.431
		v-2.686c0-0.311,0.14-0.599,0.386-0.79l3.799-2.953l-3.8-2.958C9.14,8.853,9,8.565,9,8.255V5.568c0-0.266,0.103-0.517,0.292-0.707
		c0.189-0.189,0.44-0.294,0.707-0.294c0.235,0,0.463,0.082,0.642,0.232l7.719,6.433c0.423,0.353,0.48,0.985,0.128,1.408
		c-0.04,0.047-0.082,0.09-0.128,0.128l-7.719,6.433C10.46,19.351,10.234,19.433,10.001,19.433z M10,18.432L17.719,12L10,5.567
		l0,2.688l4.053,3.156c0.051,0.04,0.095,0.085,0.132,0.133c0.253,0.323,0.195,0.795-0.131,1.05L10,15.745l0,0
		C10,15.745,10,18.432,10,18.432z"/>
	<path d="M12,24C5.383,24,0,18.617,0,12C0,5.383,5.383,0,12,0c6.617,0,12,5.383,12,12C24,18.617,18.617,24,12,24z M12,1
		C5.935,1,1,5.935,1,12s4.935,11,11,11s11-4.935,11-11S18.065,1,12,1z"/>
</g>
</svg>
