<?xml version="1.0" encoding="utf-8"?>
<!-- Generator: Adobe Illustrator 22.1.0, SVG Export Plug-In . SVG Version: 6.00 Build 0)  -->
<svg version="1.1" id="Light" xmlns="http://www.w3.org/2000/svg" xmlns:xlink="http://www.w3.org/1999/xlink" x="0px" y="0px"
	 viewBox="0 0 24 24" style="enable-background:new 0 0 24 24;" xml:space="preserve">
<g>
	<title>arrow-button-down-3</title>
	<path d="M12.063,22.057c-0.267,0-0.517-0.104-0.706-0.292L0.347,10.813C0.158,10.63,0.048,10.369,0.048,10.1V2.947
		c0.001-0.269,0.106-0.52,0.296-0.708c0.189-0.187,0.433-0.29,0.687-0.29c0.002,0,0.026,0,0.028,0
		c0.257,0.001,0.506,0.104,0.693,0.29l10.31,10.302L22.337,2.237c0.188-0.189,0.44-0.293,0.708-0.293
		c0.267,0,0.518,0.104,0.706,0.292c0.189,0.189,0.294,0.44,0.294,0.708V10.1c0.001,0.266-0.103,0.518-0.292,0.707L12.769,21.766
		C12.58,21.954,12.329,22.057,12.063,22.057z M1.048,10.1l11.015,10.958L23.046,10.1l-0.001-7.157L12.594,13.425
		c-0.143,0.142-0.331,0.219-0.531,0.219c-0.2,0-0.388-0.077-0.529-0.218L1.048,2.949L1.048,10.1z"/>
</g>
</svg>
