<?xml version="1.0" encoding="utf-8"?>
<!-- Generator: Adobe Illustrator 22.1.0, SVG Export Plug-In . SVG Version: 6.00 Build 0)  -->
<svg version="1.1" id="Light" xmlns="http://www.w3.org/2000/svg" xmlns:xlink="http://www.w3.org/1999/xlink" x="0px" y="0px"
	 viewBox="0 0 24 24" style="enable-background:new 0 0 24 24;" xml:space="preserve">
<g>
	<title>arrow-button-down-2</title>
	<path d="M12.043,21.535c-0.271,0-0.539-0.075-0.774-0.217c-0.207-0.125-0.382-0.3-0.507-0.507L1.038,4.742
		c-0.428-0.708-0.2-1.632,0.508-2.06C1.78,2.542,2.047,2.467,2.32,2.467h19.453c0.827,0.001,1.5,0.674,1.499,1.501
		c0,0.273-0.075,0.541-0.216,0.774l-9.728,16.069c-0.208,0.343-0.536,0.584-0.925,0.68C12.285,21.521,12.164,21.535,12.043,21.535z
		 M2.322,3.467c-0.091,0-0.18,0.025-0.258,0.072c-0.236,0.142-0.312,0.45-0.169,0.686l9.724,16.069
		c0.042,0.069,0.1,0.127,0.169,0.169c0.078,0.047,0.168,0.073,0.258,0.073c0.04,0,0.081-0.005,0.121-0.015
		c0.129-0.032,0.239-0.112,0.308-0.227L22.2,4.225c0.047-0.077,0.072-0.167,0.072-0.258c0-0.275-0.224-0.5-0.5-0.5H2.322
		L2.322,3.467z"/>
</g>
</svg>
