<?xml version="1.0" encoding="utf-8"?>
<!-- Generator: Adobe Illustrator 22.1.0, SVG Export Plug-In . SVG Version: 6.00 Build 0)  -->
<svg version="1.1" id="Light" xmlns="http://www.w3.org/2000/svg" xmlns:xlink="http://www.w3.org/1999/xlink" x="0px" y="0px"
	 viewBox="0 0 24 24" style="enable-background:new 0 0 24 24;" xml:space="preserve">
<g>
	<title>arrow-button-left-2</title>
	<path d="M20.068,23.226c-0.274,0-0.543-0.075-0.777-0.217L3.222,13.284c-0.343-0.207-0.584-0.535-0.68-0.924
		c-0.096-0.389-0.035-0.792,0.172-1.135c0.125-0.208,0.301-0.383,0.508-0.508l16.069-9.725c0.233-0.142,0.501-0.217,0.774-0.217
		c0.523,0,1.015,0.277,1.286,0.723c0.142,0.235,0.217,0.503,0.217,0.777v19.452c0,0.401-0.156,0.777-0.439,1.061
		C20.845,23.07,20.469,23.226,20.068,23.226z M20.067,1.775c-0.091,0-0.18,0.025-0.258,0.072L3.74,11.572
		c-0.069,0.042-0.128,0.101-0.17,0.17c-0.069,0.114-0.089,0.249-0.057,0.378c0.032,0.13,0.113,0.239,0.227,0.308l16.069,9.726
		c0.078,0.047,0.167,0.072,0.259,0.072c0.134,0,0.26-0.052,0.354-0.146c0.094-0.094,0.146-0.22,0.146-0.353V2.275
		c0-0.091-0.025-0.181-0.072-0.259C20.405,1.865,20.244,1.775,20.067,1.775z"/>
</g>
</svg>
