<?xml version="1.0" encoding="utf-8"?>
<!-- Generator: Adobe Illustrator 22.1.0, SVG Export Plug-In . SVG Version: 6.00 Build 0)  -->
<svg version="1.1" id="Light" xmlns="http://www.w3.org/2000/svg" xmlns:xlink="http://www.w3.org/1999/xlink" x="0px" y="0px"
	 viewBox="0 0 24 24" style="enable-background:new 0 0 24 24;" xml:space="preserve">
<g>
	<title>arrow-thick-dot-corner-down-right</title>
	<path d="M19,21c-1.103,0-2-0.897-2-2s0.897-2,2-2s2,0.897,2,2S20.103,21,19,21z M19,18c-0.552,0-1,0.448-1,1s0.448,1,1,1
		s1-0.448,1-1S19.552,18,19,18z"/>
	<path d="M15.5,17.5c-1.103,0-2-0.897-2-2s0.897-2,2-2s2,0.897,2,2S16.603,17.5,15.5,17.5z M15.5,14.5c-0.552,0-1,0.448-1,1
		s0.448,1,1,1s1-0.448,1-1S16.052,14.5,15.5,14.5z"/>
	<path d="M12,14c-1.103,0-2-0.897-2-2s0.897-2,2-2s2,0.897,2,2S13.103,14,12,14z M12,11c-0.551,0-1,0.449-1,1c0,0.552,0.449,1,1,1
		c0.552,0,1-0.448,1-1C13,11.449,12.552,11,12,11z"/>
	<path d="M8.5,10.5c-1.103,0-2-0.897-2-2s0.897-2,2-2s2,0.897,2,2S9.603,10.5,8.5,10.5z M8.5,7.5c-0.551,0-1,0.449-1,1s0.449,1,1,1
		s1-0.449,1-1S9.051,7.5,8.5,7.5z"/>
	<path d="M5,7C3.897,7,3,6.103,3,5s0.897-2,2-2s2,0.897,2,2S6.103,7,5,7z M5,4C4.449,4,4,4.449,4,5s0.449,1,1,1s1-0.449,1-1
		S5.551,4,5,4z"/>
	<path d="M19,14.5c-1.103,0-2-0.897-2-2s0.897-2,2-2s2,0.897,2,2S20.103,14.5,19,14.5z M19,11.5c-0.552,0-1,0.449-1,1
		c0,0.552,0.448,1,1,1s1-0.448,1-1C20,11.949,19.552,11.5,19,11.5z"/>
	<path d="M19,9c-1.103,0-2-0.897-2-2s0.897-2,2-2s2,0.897,2,2S20.103,9,19,9z M19,6c-0.552,0-1,0.449-1,1s0.448,1,1,1s1-0.449,1-1
		S19.552,6,19,6z"/>
	<path d="M12.5,21c-1.103,0-2-0.897-2-2s0.897-2,2-2s2,0.897,2,2S13.603,21,12.5,21z M12.5,18c-0.551,0-1,0.448-1,1s0.449,1,1,1
		c0.552,0,1-0.448,1-1S13.052,18,12.5,18z"/>
	<path d="M7,21c-1.103,0-2-0.897-2-2s0.897-2,2-2s2,0.897,2,2S8.103,21,7,21z M7,18c-0.551,0-1,0.448-1,1s0.449,1,1,1s1-0.448,1-1
		S7.551,18,7,18z"/>
</g>
</svg>
