<?xml version="1.0" encoding="utf-8"?>
<!-- Generator: Adobe Illustrator 22.1.0, SVG Export Plug-In . SVG Version: 6.00 Build 0)  -->
<svg version="1.1" id="Light" xmlns="http://www.w3.org/2000/svg" xmlns:xlink="http://www.w3.org/1999/xlink" x="0px" y="0px"
	 viewBox="0 0 24 24" style="enable-background:new 0 0 24 24;" xml:space="preserve">
<g>
	<title>arrow-thick-circle-up</title>
	<path d="M10.007,20c-0.551,0-1-0.448-1-1v-7H5.715c-0.551,0-1-0.449-1-1c0-0.268,0.104-0.519,0.294-0.708l6.286-6.284
		c0.181-0.182,0.439-0.286,0.707-0.286s0.526,0.104,0.707,0.286l6.285,6.285c0.39,0.389,0.391,1.024,0.001,1.414
		C18.81,11.893,18.552,12,18.288,12H15v7c0,0.552-0.448,1-1,1H10.007z M5.716,11l3.791,0c0.276,0,0.5,0.224,0.5,0.5V19H14v-7.5
		c0-0.276,0.224-0.5,0.5-0.5h3.787l-6.285-6.286L5.716,11z"/>
	<path d="M12,24C5.383,24,0,18.617,0,12C0,5.383,5.383,0,12,0c6.617,0,12,5.383,12,12C24,18.617,18.617,24,12,24z M12,1
		C5.935,1,1,5.935,1,12s4.935,11,11,11s11-4.935,11-11S18.065,1,12,1z"/>
</g>
</svg>
