<?xml version="1.0" encoding="utf-8"?>
<!-- Generator: Adobe Illustrator 22.1.0, SVG Export Plug-In . SVG Version: 6.00 Build 0)  -->
<svg version="1.1" id="Light" xmlns="http://www.w3.org/2000/svg" xmlns:xlink="http://www.w3.org/1999/xlink" x="0px" y="0px"
	 viewBox="0 0 24 24" style="enable-background:new 0 0 24 24;" xml:space="preserve">
<g>
	<title>arrow-button-left-1</title>
	<path d="M23.401,24c-0.134,0-0.259-0.052-0.354-0.146l-10.8-10.793c-0.584-0.585-0.584-1.536,0-2.121l10.8-10.793
		C23.142,0.052,23.268,0,23.401,0c0.134,0,0.259,0.052,0.354,0.146c0.195,0.195,0.195,0.512,0,0.707l-10.8,10.793
		c-0.195,0.195-0.195,0.512,0,0.707l10.8,10.793c0.094,0.094,0.146,0.219,0.146,0.353c0,0.134-0.052,0.26-0.146,0.354
		S23.535,24,23.401,24z"/>
	<path d="M11.901,24c-0.134,0-0.259-0.052-0.354-0.146l-10.8-10.793c-0.585-0.585-0.585-1.536,0-2.121l10.8-10.793
		C11.642,0.052,11.768,0,11.901,0c0.134,0,0.259,0.052,0.354,0.146c0.195,0.195,0.195,0.512,0,0.707l-10.8,10.793
		c-0.195,0.195-0.195,0.512,0,0.707l10.8,10.793c0.094,0.094,0.146,0.22,0.146,0.353s-0.052,0.259-0.146,0.354
		C12.16,23.948,12.035,24,11.901,24z"/>
</g>
</svg>
