<?xml version="1.0" encoding="utf-8"?>
<!-- Generator: Adobe Illustrator 22.1.0, SVG Export Plug-In . SVG Version: 6.00 Build 0)  -->
<svg version="1.1" id="Light" xmlns="http://www.w3.org/2000/svg" xmlns:xlink="http://www.w3.org/1999/xlink" x="0px" y="0px"
	 viewBox="0 0 24 24" style="enable-background:new 0 0 24 24;" xml:space="preserve">
<g>
	<title>arrow-thick-circle-bottom-right-corner</title>
	<path d="M8.206,18.004c-0.265,0-0.523-0.107-0.709-0.294c-0.389-0.391-0.388-1.025,0.002-1.414l2.293-2.295L4.929,9.162
		C4.538,8.771,4.538,8.136,4.927,7.746L7.75,4.925c0.19-0.189,0.441-0.293,0.707-0.293c0.268,0,0.519,0.104,0.708,0.293L14,9.791
		l2.292-2.298C16.482,7.304,16.733,7.2,17,7.2c0.552,0,1,0.448,1,1v8.804c0,0.552-0.448,1-1,1H8.206z M10.853,13.646
		C10.946,13.739,11,13.868,11,13.999c0,0.131-0.053,0.26-0.146,0.354l-2.648,2.65l8.794,0V8.2l-2.646,2.653
		C14.261,10.946,14.132,11,14,11c-0.134,0-0.26-0.052-0.354-0.147L8.456,5.631C8.452,5.635,5.635,8.453,5.635,8.453h0L10.853,13.646
		z"/>
	<path d="M12,24.001c-6.617,0-12-5.383-12-12c0-6.617,5.383-12,12-12c6.617,0,12,5.383,12,12C24,18.618,18.617,24.001,12,24.001z
		 M12,1.001c-6.065,0-11,4.935-11,11s4.935,11,11,11s11-4.935,11-11S18.065,1.001,12,1.001z"/>
</g>
</svg>
