<?xml version="1.0" encoding="utf-8"?>
<!-- Generator: Adobe Illustrator 22.1.0, SVG Export Plug-In . SVG Version: 6.00 Build 0)  -->
<svg version="1.1" id="Light" xmlns="http://www.w3.org/2000/svg" xmlns:xlink="http://www.w3.org/1999/xlink" x="0px" y="0px"
	 viewBox="0 0 24 24" style="enable-background:new 0 0 24 24;" xml:space="preserve">
<g>
	<title>arrow-thick-right-3</title>
	<path d="M9.173,22.087c-0.551,0-1-0.448-1-1c0-0.238,0.085-0.469,0.24-0.65l4.585-5.35H1.085c-0.551,0-1-0.448-1-1v-4
		c0-0.551,0.449-1,1-1h11.913L8.414,3.737c-0.359-0.42-0.309-1.052,0.11-1.411c0.181-0.155,0.412-0.24,0.65-0.24h5.689
		c0.285,0,0.556,0.122,0.746,0.334l8.052,9c0.34,0.38,0.34,0.953,0,1.333l-8.052,9c-0.189,0.212-0.461,0.333-0.746,0.333H9.173z
		 M1.085,14.087h13c0.195,0,0.373,0.114,0.454,0.291c0.082,0.177,0.052,0.387-0.074,0.534l-5.292,6.175l5.689,0l8.052-9
		l-8.052-8.999l-5.689,0l5.292,6.175c0.126,0.148,0.156,0.358,0.074,0.534c-0.082,0.177-0.26,0.291-0.454,0.291h-13L1.085,14.087z"
		/>
</g>
</svg>
