<?xml version="1.0" encoding="utf-8"?>
<!-- Generator: Adobe Illustrator 22.1.0, SVG Export Plug-In . SVG Version: 6.00 Build 0)  -->
<svg version="1.1" id="Light" xmlns="http://www.w3.org/2000/svg" xmlns:xlink="http://www.w3.org/1999/xlink" x="0px" y="0px"
	 viewBox="0 0 24 24" style="enable-background:new 0 0 24 24;" xml:space="preserve">
<g>
	<title>arrow-thick-up</title>
	<path d="M9,23.9c-0.551,0-1-0.448-1-1v-12H3.207c-0.267,0-0.518-0.104-0.707-0.293c-0.189-0.189-0.293-0.44-0.293-0.707
		c0-0.266,0.104-0.517,0.292-0.706l8.793-8.801c0.189-0.189,0.44-0.293,0.706-0.293c0.265,0,0.514,0.102,0.702,0.286
		c0.003,0.003,8.8,8.807,8.8,8.807c0.189,0.189,0.293,0.441,0.292,0.708c0,0.267-0.105,0.518-0.294,0.707
		C21.31,10.796,21.06,10.9,20.793,10.9H16v12c0,0.552-0.448,1-1,1H9z M8.5,9.9c0.276,0,0.5,0.224,0.5,0.5v12.5h6V10.4
		c0-0.276,0.224-0.5,0.5-0.5h5.293l-8.789-8.796L12,0.85l0,0.25L3.207,9.9L8.5,9.9z"/>
</g>
</svg>
