<?xml version="1.0" encoding="utf-8"?>
<!-- Generator: Adobe Illustrator 22.1.0, SVG Export Plug-In . SVG Version: 6.00 Build 0)  -->
<svg version="1.1" id="Light" xmlns="http://www.w3.org/2000/svg" xmlns:xlink="http://www.w3.org/1999/xlink" x="0px" y="0px"
	 viewBox="0 0 24 24" style="enable-background:new 0 0 24 24;" xml:space="preserve">
<g>
	<title>arrow-thick-down-3</title>
	<path d="M11.999,24.005c-0.246,0-0.483-0.091-0.667-0.255l-9.002-8.138C2.12,15.423,2,15.151,2,14.866V9.669
		c0-0.266,0.103-0.517,0.292-0.707c0.189-0.189,0.44-0.294,0.707-0.294c0.241,0,0.472,0.086,0.654,0.242L9,13.57V1.172
		c0-0.551,0.449-1,1-1h4c0.552,0,1,0.449,1,1v12.401l5.346-4.658c0.187-0.16,0.412-0.243,0.653-0.243
		c0.026,0,0.052,0.001,0.078,0.003c0.267,0.021,0.509,0.144,0.683,0.347C21.915,9.203,22,9.434,22,9.672v5.194
		c0,0.284-0.122,0.556-0.334,0.745l-8.998,8.137C12.483,23.914,12.245,24.005,11.999,24.005z M3,14.867l9.001,8.139l8.996-8.139
		L21,9.672l-6.171,5.377c-0.091,0.079-0.208,0.123-0.328,0.123c-0.072,0-0.142-0.015-0.207-0.045C14.115,15.046,14,14.868,14,14.672
		v-13.5h-4v13.497c0,0.196-0.115,0.374-0.293,0.455c-0.065,0.03-0.135,0.045-0.207,0.045c-0.121,0-0.238-0.044-0.329-0.123L3,9.668
		L3,14.867z"/>
</g>
</svg>
