<?xml version="1.0" encoding="utf-8"?>
<!-- Generator: Adobe Illustrator 22.1.0, SVG Export Plug-In . SVG Version: 6.00 Build 0)  -->
<svg version="1.1" id="Light" xmlns="http://www.w3.org/2000/svg" xmlns:xlink="http://www.w3.org/1999/xlink" x="0px" y="0px"
	 viewBox="0 0 24 24" style="enable-background:new 0 0 24 24;" xml:space="preserve">
<g>
	<title>arrow-thick-circle-bottom-right-corner-1</title>
	<path d="M7,18c-0.551,0-1-0.448-1-1v-2c0-0.552,0.449-1,1-1h4.147L5.646,8.481C5.258,8.087,5.262,7.453,5.653,7.066l1.409-1.409
		c0.188-0.189,0.439-0.293,0.707-0.293c0.267,0,0.518,0.104,0.707,0.292L14,11.155V7c0-0.551,0.448-1,1-1h2c0.552,0,1,0.449,1,1v10
		c0,0.552-0.448,1-1,1H7z M7,17h10V7h-2v5.358c0,0.203-0.121,0.384-0.308,0.462c-0.061,0.025-0.125,0.038-0.192,0.038
		c-0.134,0-0.259-0.052-0.353-0.146L7.77,6.364l-1.412,1.41l6.347,6.372c0.143,0.143,0.185,0.357,0.108,0.544
		C12.735,14.879,12.554,15,12.351,15H7L7,17z"/>
	<path d="M12,24C5.383,24,0,18.617,0,12C0,5.383,5.383,0,12,0c6.617,0,12,5.383,12,12C24,18.617,18.617,24,12,24z M12,1
		C5.935,1,1,5.935,1,12s4.935,11,11,11s11-4.935,11-11S18.065,1,12,1z"/>
</g>
</svg>
