<?xml version="1.0" encoding="utf-8"?>
<!-- Generator: Adobe Illustrator 22.1.0, SVG Export Plug-In . SVG Version: 6.00 Build 0)  -->
<svg version="1.1" id="Light" xmlns="http://www.w3.org/2000/svg" xmlns:xlink="http://www.w3.org/1999/xlink" x="0px" y="0px"
	 viewBox="0 0 24 24" style="enable-background:new 0 0 24 24;" xml:space="preserve">
<g>
	<title>arrow-thick-left</title>
	<path d="M9.9,21.788c-0.267,0-0.519-0.105-0.707-0.294l-8.799-8.799c-0.013-0.013-0.024-0.025-0.034-0.038
		C0.193,12.476,0.1,12.24,0.1,11.986c0-0.267,0.105-0.518,0.294-0.707l8.8-8.771C9.383,2.32,9.633,2.216,9.9,2.216
		c0.551,0,1,0.448,1,1v4.771h12c0.552,0,1,0.449,1,1v6.001c0,0.552-0.448,1-1,1H10.901v4.8c0,0.264-0.107,0.522-0.294,0.708
		c-0.189,0.188-0.44,0.292-0.706,0.292H9.9z M1.1,11.987l8.801,8.8l0-5.299c0-0.276,0.224-0.5,0.5-0.5H22.9V8.987H10.4
		c-0.276,0-0.5-0.224-0.5-0.5v-5.27L1.1,11.987z"/>
</g>
</svg>
