<?xml version="1.0" encoding="utf-8"?>
<!-- Generator: Adobe Illustrator 22.1.0, SVG Export Plug-In . SVG Version: 6.00 Build 0)  -->
<svg version="1.1" id="Light" xmlns="http://www.w3.org/2000/svg" xmlns:xlink="http://www.w3.org/1999/xlink" x="0px" y="0px"
	 viewBox="0 0 24 24" style="enable-background:new 0 0 24 24;" xml:space="preserve">
<g>
	<title>arrow-button-up-1</title>
	<path d="M23.581,23.794c-0.134,0-0.259-0.052-0.354-0.146L12.435,12.854c-0.094-0.094-0.22-0.146-0.354-0.146
		c-0.134,0-0.259,0.052-0.354,0.146L0.935,23.647c-0.094,0.094-0.22,0.146-0.354,0.146s-0.259-0.052-0.354-0.146
		c-0.195-0.195-0.195-0.512,0-0.707L11.02,12.147c0.283-0.283,0.66-0.439,1.061-0.439c0.401,0,0.777,0.155,1.06,0.438L23.935,22.94
		c0.195,0.195,0.195,0.512,0,0.707C23.84,23.742,23.715,23.794,23.581,23.794z"/>
	<path d="M23.581,12.294c-0.134,0-0.259-0.052-0.354-0.147L12.435,1.354c-0.097-0.095-0.222-0.146-0.354-0.146
		c-0.134,0-0.26,0.052-0.354,0.146L0.935,12.147c-0.094,0.094-0.22,0.147-0.354,0.147s-0.259-0.052-0.354-0.147
		c-0.195-0.195-0.195-0.512,0-0.707L11.02,0.647c0.283-0.283,0.66-0.439,1.061-0.439c0.401,0,0.777,0.156,1.06,0.438L23.935,11.44
		c0.195,0.195,0.195,0.512,0,0.707C23.84,12.242,23.715,12.294,23.581,12.294z"/>
</g>
</svg>
