<?xml version="1.0" encoding="utf-8"?>
<!-- Generator: Adobe Illustrator 22.1.0, SVG Export Plug-In . SVG Version: 6.00 Build 0)  -->
<svg version="1.1" id="Light" xmlns="http://www.w3.org/2000/svg" xmlns:xlink="http://www.w3.org/1999/xlink" x="0px" y="0px"
	 viewBox="0 0 24 24" style="enable-background:new 0 0 24 24;" xml:space="preserve">
<g>
	<title>arrow-rectangle-down-2</title>
	<path d="M11.999,17.976c-0.25,0-0.49-0.093-0.674-0.262c-0.02-0.018-0.041-0.039-0.061-0.061l-5.001-5.456
		C6.093,12.01,6,11.77,6,11.52V7.5c0-0.267,0.103-0.518,0.292-0.707C6.481,6.604,6.732,6.5,6.999,6.499
		c0.281,0,0.55,0.119,0.739,0.325l4.26,4.649l4.264-4.651c0.18-0.197,0.426-0.312,0.693-0.324c0.015-0.001,0.032-0.001,0.048-0.001
		c0.248,0,0.486,0.093,0.671,0.262C17.882,6.95,18.001,7.22,18,7.501v4.019c0.001,0.25-0.093,0.49-0.262,0.676l-5,5.455
		c-0.18,0.197-0.426,0.312-0.693,0.324L11.999,17.976z M12.008,16.979L17,11.52l0-4.02l-4.448,4.851
		c-0.005,0.006-0.031,0.031-0.037,0.037c-0.145,0.134-0.327,0.206-0.516,0.206c-0.003,0-0.027,0-0.031-0.001
		c-0.201-0.008-0.386-0.094-0.522-0.241L7,7.5l0-0.25l0,4.271l5,5.455C12.001,16.975,12.008,16.979,12.008,16.979z"/>
	<path d="M1.5,24C0.673,24,0,23.327,0,22.5v-21C0,0.673,0.673,0,1.5,0h21C23.327,0,24,0.673,24,1.5v21c0,0.827-0.673,1.5-1.5,1.5
		H1.5z M1.5,1C1.224,1,1,1.224,1,1.5v21C1,22.776,1.224,23,1.5,23h21c0.276,0,0.5-0.224,0.5-0.5v-21C23,1.224,22.776,1,22.5,1H1.5z"
		/>
</g>
</svg>
