<?xml version="1.0" encoding="utf-8"?>
<!-- Generator: Adobe Illustrator 22.1.0, SVG Export Plug-In . SVG Version: 6.00 Build 0)  -->
<svg version="1.1" id="Light" xmlns="http://www.w3.org/2000/svg" xmlns:xlink="http://www.w3.org/1999/xlink" x="0px" y="0px"
	 viewBox="0 0 24 24" style="enable-background:new 0 0 24 24;" xml:space="preserve">
<g>
	<title>arrow-double-right-1</title>
	<path d="M13.968,18c-0.262-0.001-0.51-0.101-0.697-0.283c-0.192-0.187-0.299-0.437-0.302-0.704
		c-0.004-0.267,0.097-0.519,0.284-0.71l4.229-4.3l-4.228-4.298C13.069,7.515,12.966,7.265,12.967,7c0-0.267,0.105-0.518,0.294-0.707
		c0.188-0.188,0.439-0.292,0.706-0.292h4.009c0.267,0,0.526,0.109,0.713,0.298l4.92,5c0.379,0.386,0.379,1.015,0,1.401l-4.92,5
		C18.502,17.891,18.243,18,17.977,18H13.968z M13.98,7.002c-0.013,0.002-0.018,0.004-0.018,0.004l4.406,4.471
		c0.286,0.289,0.286,0.761,0,1.052l-4.399,4.474L17.976,17l4.92-5l-4.92-4.999L13.98,7.002z"/>
	<path d="M5.85,18c-0.265-0.002-0.512-0.104-0.699-0.287c-0.393-0.387-0.397-1.022-0.011-1.415L9.364,12L5.137,7.702
		C4.951,7.514,4.849,7.264,4.849,6.998c0-0.267,0.105-0.518,0.294-0.707C5.335,6.101,5.578,6,5.847,6h2.658
		C8.773,6,9.034,6.111,9.22,6.302l4.918,4.998c0.379,0.386,0.379,1.015,0,1.401l-4.921,5C9.031,17.891,8.772,18,8.506,18H5.85z
		 M5.848,7l4.401,4.474c0.286,0.29,0.286,0.762-0.001,1.052L5.854,17l2.651,0l4.921-5l-4.92-4.999L5.848,7C5.849,7,5.849,7,5.848,7z
		"/>
	<path d="M0.597,18c-0.132,0-0.256-0.051-0.351-0.144c-0.197-0.194-0.199-0.511-0.006-0.707L5.311,12L0.24,6.851
		C0.047,6.654,0.05,6.337,0.246,6.144C0.341,6.051,0.465,6,0.597,6c0.135,0,0.261,0.053,0.356,0.149l5.07,5.151
		c0.379,0.387,0.379,1.015,0.001,1.401l-5.071,5.149C0.859,17.947,0.732,18,0.597,18z"/>
</g>
</svg>
