<?xml version="1.0" encoding="utf-8"?>
<!-- Generator: Adobe Illustrator 22.1.0, SVG Export Plug-In . SVG Version: 6.00 Build 0)  -->
<svg version="1.1" id="Light" xmlns="http://www.w3.org/2000/svg" xmlns:xlink="http://www.w3.org/1999/xlink" x="0px" y="0px"
	 viewBox="0 0 24 24" style="enable-background:new 0 0 24 24;" xml:space="preserve">
<g>
	<title>arrow-thick-circle-up-1</title>
	<path d="M11,20c-0.551,0-1-0.448-1-1v-7.784L7.217,14c-0.182,0.182-0.439,0.286-0.707,0.286c-0.268,0-0.526-0.104-0.707-0.286
		l-1.29-1.29c-0.39-0.39-0.39-1.024,0-1.414l6.78-6.779c0.189-0.189,0.44-0.293,0.707-0.293s0.518,0.104,0.707,0.293l6.78,6.779
		c0.39,0.39,0.39,1.024,0,1.414L18.196,14c-0.189,0.189-0.44,0.292-0.707,0.292S16.971,14.189,16.782,14L14,11.216V19
		c0,0.552-0.448,1-1,1H11z M10.5,9.508c0.066,0,0.13,0.013,0.191,0.038C10.879,9.624,11,9.805,11,10.008V19h2v-8.992
		c0-0.203,0.121-0.384,0.309-0.462c0.062-0.025,0.126-0.038,0.191-0.038c0.134,0,0.259,0.052,0.354,0.146l3.636,3.639l1.29-1.29
		l-6.78-6.779l-6.78,6.779l1.29,1.29l3.637-3.639C10.241,9.56,10.366,9.508,10.5,9.508z"/>
	<path d="M11.999,23.999c-3.19,0-6.194-1.239-8.457-3.488C1.268,18.253,0.011,15.243,0,12.038c-0.01-3.205,1.228-6.223,3.488-8.497
		C5.747,1.268,8.757,0.01,11.962,0h0.039C18.596,0,23.979,5.365,24,11.961c0.01,3.2-1.23,6.216-3.491,8.493
		c-2.262,2.276-5.27,3.535-8.47,3.546C12.038,23.999,11.999,23.999,11.999,23.999z M11.965,1C9.027,1.009,6.268,2.162,4.197,4.246
		C2.126,6.331,0.991,9.097,1,12.035c0.009,2.938,1.162,5.697,3.247,7.768c2.075,2.062,4.83,3.197,7.759,3.197h0.03
		c2.933-0.009,5.691-1.164,7.764-3.25c2.073-2.087,3.21-4.851,3.201-7.785C22.981,5.918,18.047,1,12.001,1H11.965z"/>
</g>
</svg>
