<?xml version="1.0" encoding="utf-8"?>
<!-- Generator: Adobe Illustrator 22.1.0, SVG Export Plug-In . SVG Version: 6.00 Build 0)  -->
<svg version="1.1" id="Light" xmlns="http://www.w3.org/2000/svg" xmlns:xlink="http://www.w3.org/1999/xlink" x="0px" y="0px"
	 viewBox="0 0 24 24" style="enable-background:new 0 0 24 24;" xml:space="preserve">
<g>
	<title>arrow-button-circle-left</title>
	<path d="M15,18.142c-0.174,0-0.345-0.046-0.496-0.132l-8.991-5.138c-0.232-0.133-0.399-0.348-0.469-0.605
		c-0.07-0.258-0.036-0.527,0.097-0.759c0.088-0.154,0.216-0.283,0.371-0.371l8.992-5.139c0.151-0.086,0.322-0.132,0.494-0.132
		c0.089,0,0.178,0.012,0.265,0.036c0.258,0.07,0.473,0.237,0.605,0.469C15.954,6.519,16,6.691,16,6.865v10.277
		C16,17.693,15.551,18.142,15,18.142z M6.008,12.004L15,17.142V6.865v0L6.008,12.004z"/>
	<path d="M12,23.999C5.384,23.999,0.001,18.616,0.001,12C0.001,5.384,5.384,0.001,12,0.001c6.616,0,11.999,5.383,11.999,11.999
		C23.999,18.616,18.616,23.999,12,23.999z M12,1.001C5.935,1.001,1.001,5.935,1.001,12S5.935,22.999,12,22.999
		S22.999,18.065,22.999,12S18.065,1.001,12,1.001z"/>
</g>
</svg>
