<?xml version="1.0" encoding="utf-8"?>
<!-- Generator: Adobe Illustrator 22.1.0, SVG Export Plug-In . SVG Version: 6.00 Build 0)  -->
<svg version="1.1" id="Light" xmlns="http://www.w3.org/2000/svg" xmlns:xlink="http://www.w3.org/1999/xlink" x="0px" y="0px"
	 viewBox="0 0 24 24" style="enable-background:new 0 0 24 24;" xml:space="preserve">
<g>
	<title>arrow-thick-dot-left</title>
	<path d="M2,14c-1.103,0-2-0.897-2-2s0.897-2,2-2s2,0.897,2,2S3.103,14,2,14z M2,11c-0.551,0-1,0.449-1,1c0,0.552,0.449,1,1,1
		s1-0.448,1-1C3,11.449,2.551,11,2,11z"/>
	<path d="M6,19c-1.103,0-2-0.897-2-2s0.897-2,2-2s2,0.897,2,2S7.103,19,6,19z M6,16c-0.551,0-1,0.448-1,1s0.449,1,1,1s1-0.448,1-1
		S6.551,16,6,16z"/>
	<path d="M10,23c-1.103,0-2-0.897-2-2s0.897-2,2-2s2,0.897,2,2S11.103,23,10,23z M10,20c-0.551,0-1,0.448-1,1s0.449,1,1,1
		s1-0.448,1-1S10.551,20,10,20z"/>
	<path d="M6,9C4.897,9,4,8.103,4,7s0.897-2,2-2s2,0.897,2,2S7.103,9,6,9z M6,6C5.449,6,5,6.449,5,7s0.449,1,1,1s1-0.449,1-1
		S6.551,6,6,6z"/>
	<path d="M10,5C8.897,5,8,4.103,8,3s0.897-2,2-2s2,0.897,2,2S11.103,5,10,5z M10,2C9.449,2,9,2.449,9,3s0.449,1,1,1s1-0.449,1-1
		S10.551,2,10,2z"/>
	<path d="M22,14c-1.103,0-2-0.897-2-2s0.897-2,2-2s2,0.897,2,2S23.103,14,22,14z M22,11c-0.552,0-1,0.449-1,1c0,0.552,0.448,1,1,1
		s1-0.448,1-1C23,11.449,22.552,11,22,11z"/>
	<path d="M17,14c-1.103,0-2-0.897-2-2s0.897-2,2-2s2,0.897,2,2S18.103,14,17,14z M17,11c-0.552,0-1,0.449-1,1c0,0.552,0.448,1,1,1
		s1-0.448,1-1C18,11.449,17.552,11,17,11z"/>
	<path d="M12,14c-1.103,0-2-0.897-2-2s0.897-2,2-2s2,0.897,2,2S13.103,14,12,14z M12,11c-0.551,0-1,0.449-1,1c0,0.552,0.449,1,1,1
		c0.552,0,1-0.448,1-1C13,11.449,12.552,11,12,11z"/>
	<path d="M7,14c-1.103,0-2-0.897-2-2s0.897-2,2-2s2,0.897,2,2S8.103,14,7,14z M7,11c-0.551,0-1,0.449-1,1c0,0.552,0.449,1,1,1
		s1-0.448,1-1C8,11.449,7.551,11,7,11z"/>
</g>
</svg>
