<?xml version="1.0" encoding="utf-8"?>
<!-- Generator: Adobe Illustrator 22.1.0, SVG Export Plug-In . SVG Version: 6.00 Build 0)  -->
<svg version="1.1" id="Light" xmlns="http://www.w3.org/2000/svg" xmlns:xlink="http://www.w3.org/1999/xlink" x="0px" y="0px"
	 viewBox="0 0 24 24" style="enable-background:new 0 0 24 24;" xml:space="preserve">
<g>
	<title>arrow-thick-left-3</title>
	<path d="M9.138,22.087c-0.285,0-0.556-0.122-0.746-0.334l-8.052-9c-0.339-0.38-0.339-0.953,0-1.333l8.052-9
		c0.189-0.212,0.461-0.333,0.745-0.333h5.689c0.238,0,0.469,0.085,0.65,0.24c0.203,0.174,0.326,0.416,0.347,0.682
		c0.021,0.266-0.063,0.525-0.237,0.728l-4.585,5.35h11.913c0.552,0,1,0.449,1,1v4c0,0.552-0.448,1-1,1H11.002l4.585,5.35
		c0.155,0.181,0.24,0.412,0.24,0.65c0,0.552-0.448,1-1,1H9.138z M1.085,12.087l8.052,8.999l5.689,0l-5.292-6.175
		c-0.127-0.147-0.156-0.357-0.075-0.534c0.082-0.177,0.26-0.291,0.454-0.291h13v-4h-13c-0.194,0-0.373-0.114-0.454-0.291
		C9.379,9.619,9.409,9.41,9.535,9.262l5.292-6.175l-5.689,0h0C9.138,3.087,1.085,12.087,1.085,12.087z"/>
</g>
</svg>
