<?xml version="1.0" encoding="utf-8"?>
<!-- Generator: Adobe Illustrator 22.1.0, SVG Export Plug-In . SVG Version: 6.00 Build 0)  -->
<svg version="1.1" id="Light" xmlns="http://www.w3.org/2000/svg" xmlns:xlink="http://www.w3.org/1999/xlink" x="0px" y="0px"
	 viewBox="0 0 24 24" style="enable-background:new 0 0 24 24;" xml:space="preserve">
<g>
	<title>arrow-double-up</title>
	<path d="M6,12.845c-0.275,0-0.54-0.115-0.728-0.314C5.096,12.344,4.999,12.099,5,11.842v-4.76c0-0.274,0.114-0.54,0.314-0.728
		l6.021-5.663c0.186-0.175,0.429-0.272,0.686-0.272s0.501,0.097,0.687,0.273l5.979,5.661C18.886,6.543,19,6.807,19,7.081v4.757
		c0,0.551-0.448,1-1,1c-0.257,0-0.501-0.097-0.688-0.274l-5.292-5.01l-5.335,5.019C6.5,12.748,6.256,12.845,6,12.845z M6,7.083
		l0,4.761l5.507-5.179c0.14-0.131,0.323-0.203,0.514-0.203s0.374,0.072,0.513,0.202L18,11.838l0-4.757L12.022,1.42
		C12.021,1.42,6,7.083,6,7.083z"/>
	<path d="M6,23.577c-0.275,0-0.54-0.115-0.728-0.314C5.097,23.077,5,22.834,5,22.578v-4.761c0-0.274,0.114-0.54,0.314-0.728
		l6.021-5.663c0.186-0.175,0.429-0.272,0.686-0.272s0.501,0.097,0.687,0.273l5.979,5.661C18.886,17.277,19,17.542,19,17.815v4.756
		c0,0.551-0.448,1-0.999,1c-0.258,0-0.502-0.097-0.689-0.274l-5.291-5.01l-5.335,5.019C6.5,23.481,6.257,23.577,6,23.577z M6,17.817
		l0,4.761l5.507-5.18c0.14-0.131,0.322-0.203,0.514-0.203s0.374,0.072,0.514,0.203L18,22.57l0-4.756l-5.978-5.661
		C12.021,12.154,6,17.817,6,17.817z"/>
</g>
</svg>
