<?xml version="1.0" encoding="utf-8"?>
<!-- Generator: Adobe Illustrator 22.1.0, SVG Export Plug-In . SVG Version: 6.00 Build 0)  -->
<svg version="1.1" id="Light" xmlns="http://www.w3.org/2000/svg" xmlns:xlink="http://www.w3.org/1999/xlink" x="0px" y="0px"
	 viewBox="0 0 24 24" style="enable-background:new 0 0 24 24;" xml:space="preserve">
<g>
	<title>arrow-rectangle-right-2</title>
	<path d="M7.642,19c-0.268,0-0.519-0.104-0.707-0.294c-0.189-0.189-0.292-0.44-0.292-0.707c0-0.252,0.094-0.492,0.265-0.677
		l4.912-5.319L6.907,6.678C6.533,6.273,6.558,5.639,6.963,5.265C7.149,5.094,7.39,5,7.641,5h3.201c0.265,0,0.523,0.108,0.71,0.296
		l5.954,6c0.387,0.389,0.387,1.022-0.001,1.411l-6,6C11.315,18.896,11.064,19,10.798,19H7.642z M12.711,11.495
		c0.263,0.285,0.263,0.732,0,1.017L7.642,18l3.156,0l5.999-6l-5.955-6l-3.2,0V5.75L7.641,6c0,0,0,0,0,0L12.711,11.495z"/>
	<path d="M1.5,24C0.673,24,0,23.327,0,22.5v-21C0,0.673,0.673,0,1.5,0h21C23.327,0,24,0.673,24,1.5v21c0,0.827-0.673,1.5-1.5,1.5
		H1.5z M1.5,1C1.224,1,1,1.224,1,1.5v21C1,22.776,1.224,23,1.5,23h21c0.276,0,0.5-0.224,0.5-0.5v-21C23,1.224,22.776,1,22.5,1H1.5z"
		/>
</g>
</svg>
