<?xml version="1.0" encoding="utf-8"?>
<!-- Generator: Adobe Illustrator 22.1.0, SVG Export Plug-In . SVG Version: 6.00 Build 0)  -->
<svg version="1.1" id="Light" xmlns="http://www.w3.org/2000/svg" xmlns:xlink="http://www.w3.org/1999/xlink" x="0px" y="0px"
	 viewBox="0 0 24 24" style="enable-background:new 0 0 24 24;" xml:space="preserve">
<g>
	<title>arrow-double-down</title>
	<path d="M11.979,23.579c-0.256,0-0.5-0.097-0.686-0.272l-5.981-5.661C5.114,17.457,5,17.192,5,16.919v-4.758
		c0-0.267,0.104-0.518,0.293-0.707c0.189-0.189,0.44-0.293,0.707-0.293c0.258,0,0.502,0.097,0.688,0.274l5.291,5.01l5.335-5.018
		c0.186-0.175,0.431-0.272,0.69-0.272c0.002,0,0.023,0,0.025,0c0.267,0.008,0.515,0.119,0.698,0.313
		C18.903,11.656,19,11.9,19,12.156v4.761c0,0.274-0.115,0.54-0.314,0.728l-6.021,5.662C12.479,23.483,12.235,23.579,11.979,23.579z
		 M5.997,12.164L6,16.919l5.98,5.661L18,16.917l0-4.761l-5.507,5.179c-0.139,0.131-0.322,0.204-0.514,0.204
		s-0.375-0.073-0.515-0.204l-5.463-5.173C5.999,12.163,5.998,12.163,5.997,12.164z"/>
	<path d="M11.979,12.845c-0.256,0-0.5-0.097-0.686-0.272L5.312,6.91C5.114,6.722,5,6.458,5,6.184V1.428
		c0-0.267,0.104-0.518,0.293-0.707C5.482,0.532,5.733,0.428,6,0.428c0.257,0,0.502,0.097,0.688,0.274l5.292,5.01l5.335-5.018
		C17.5,0.519,17.744,0.423,18,0.423c0.274,0,0.54,0.114,0.728,0.313C18.903,0.922,19,1.166,19,1.422v4.761
		c0,0.275-0.115,0.54-0.314,0.728l-6.021,5.662C12.479,12.749,12.235,12.845,11.979,12.845z M6,6.184l5.98,5.662l6.021-5.663
		L18,1.422l-5.507,5.179c-0.139,0.131-0.322,0.204-0.514,0.204c-0.192,0-0.375-0.073-0.515-0.204L6,1.428l0,0L6,6.184z"/>
</g>
</svg>
