<?xml version="1.0" encoding="utf-8"?>
<!-- Generator: Adobe Illustrator 22.1.0, SVG Export Plug-In . SVG Version: 6.00 Build 0)  -->
<svg version="1.1" id="Light" xmlns="http://www.w3.org/2000/svg" xmlns:xlink="http://www.w3.org/1999/xlink" x="0px" y="0px"
	 viewBox="0 0 24 24" style="enable-background:new 0 0 24 24;" xml:space="preserve">
<g>
	<title>arrow-double-down-1</title>
	<path d="M11.999,23.901c-0.264,0-0.513-0.101-0.7-0.284l-5.001-4.935C6.109,18.495,6,18.235,6,17.969v-4.02
		c0-0.261,0.101-0.508,0.282-0.695c0.19-0.196,0.445-0.303,0.718-0.303c0.261,0,0.508,0.1,0.696,0.281L12,17.41l4.302-4.177
		c0.187-0.181,0.434-0.281,0.694-0.282c0.269,0,0.519,0.104,0.708,0.291c0.189,0.189,0.294,0.439,0.294,0.706v4.021
		c0,0.266-0.109,0.526-0.299,0.713L12.7,23.615C12.512,23.799,12.264,23.901,11.999,23.901z M7,17.969l5,4.934l4.998-4.934l0-4.02
		l-4.476,4.347c-0.142,0.137-0.327,0.212-0.522,0.212c-0.195,0-0.381-0.075-0.522-0.212L7,13.95L7,17.969z"/>
	<path d="M11.999,14.416c-0.265,0-0.513-0.101-0.7-0.284l-5-4.921C6.108,9.024,6,8.763,6,8.496V5.844
		c0-0.265,0.102-0.515,0.288-0.703C6.477,4.949,6.73,4.843,7,4.843c0.265,0,0.514,0.102,0.702,0.287L12,9.358l4.298-4.228
		C16.486,4.945,16.736,4.843,17,4.843c0.553,0.001,1.001,0.45,1,1.002v2.653c0,0.268-0.111,0.529-0.302,0.715L12.7,14.131
		C12.512,14.315,12.263,14.416,11.999,14.416z M7,5.843v2.655l5,4.921l4.999-4.92L17,5.844l-4.474,4.399
		c-0.144,0.139-0.33,0.215-0.526,0.215c-0.196,0-0.381-0.076-0.523-0.213L7,5.843l-0.002-0.25L7,5.843z"/>
	<path d="M11.999,6.398c-0.267,0-0.518-0.104-0.707-0.294L6.146,0.943C6.052,0.849,6,0.723,6,0.59c0-0.134,0.052-0.259,0.147-0.353
		C6.241,0.142,6.367,0.09,6.5,0.09c0.134,0,0.26,0.052,0.354,0.147L12,5.398l5.146-5.161c0.095-0.095,0.22-0.147,0.354-0.147
		c0.133,0,0.259,0.052,0.353,0.146C17.948,0.331,18,0.456,18,0.59c0,0.133-0.052,0.259-0.146,0.354l-5.146,5.161
		C12.513,6.296,12.264,6.398,11.999,6.398L11.999,6.398z"/>
</g>
</svg>
