<?xml version="1.0" encoding="utf-8"?>
<!-- Generator: Adobe Illustrator 22.1.0, SVG Export Plug-In . SVG Version: 6.00 Build 0)  -->
<svg version="1.1" id="Light" xmlns="http://www.w3.org/2000/svg" xmlns:xlink="http://www.w3.org/1999/xlink" x="0px" y="0px"
	 viewBox="0 0 24 24" style="enable-background:new 0 0 24 24;" xml:space="preserve">
<g>
	<title>arrow-thick-right-2</title>
	<path d="M11.998,23.115c-0.658,0-1.29-0.245-1.781-0.689c-0.526-0.476-0.835-1.129-0.87-1.839c-0.035-0.71,0.207-1.391,0.683-1.916
		l4.329-4.165H2.6c-1.379,0-2.5-1.122-2.5-2.5s1.121-2.5,2.5-2.5h11.793l-4.169-4.169c-0.979-1.052-0.926-2.694,0.112-3.667
		c0.47-0.499,1.154-0.791,1.866-0.791c0.659,0,1.287,0.245,1.767,0.689l9.629,9.731c0.187,0.187,0.291,0.438,0.291,0.705
		c0,0.267-0.104,0.518-0.293,0.707l-9.794,9.702C13.296,22.868,12.659,23.115,11.998,23.115z M2.6,10.505
		c-0.827,0-1.5,0.673-1.5,1.5c0,0.827,0.673,1.5,1.5,1.5h13c0.205,0,0.387,0.123,0.464,0.313c0.077,0.191,0.031,0.406-0.117,0.548
		l-5.2,5c-0.595,0.659-0.537,1.705,0.141,2.319c0.307,0.278,0.702,0.431,1.113,0.431c0.411,0,0.806-0.153,1.113-0.431L22.89,12
		l-9.616-9.715c-0.282-0.26-0.663-0.408-1.066-0.408c-0.442,0-0.867,0.182-1.167,0.5c-0.653,0.614-0.693,1.626-0.098,2.265
		l5.01,5.01c0.144,0.144,0.186,0.358,0.108,0.545c-0.077,0.187-0.259,0.308-0.462,0.308H2.6z"/>
</g>
</svg>
