<?xml version="1.0" encoding="utf-8"?>
<!-- Generator: Adobe Illustrator 22.1.0, SVG Export Plug-In . SVG Version: 6.00 Build 0)  -->
<svg version="1.1" id="Light" xmlns="http://www.w3.org/2000/svg" xmlns:xlink="http://www.w3.org/1999/xlink" x="0px" y="0px"
	 viewBox="0 0 24 24" style="enable-background:new 0 0 24 24;" xml:space="preserve">
<g>
	<title>arrow-dot-corner-right-1</title>
	<circle cx="20.5" cy="20.5" r="0.75"/>
	<circle cx="17.099" cy="20.5" r="0.75"/>
	<circle cx="13.699" cy="20.5" r="0.75"/>
	<circle cx="10.3" cy="20.5" r="0.75"/>
	<circle cx="17.099" cy="17.1" r="0.75"/>
	<circle cx="13.699" cy="17.1" r="0.75"/>
	<path d="M10.3,17.85c-0.414,0-0.75-0.336-0.75-0.75s0.336-0.75,0.75-0.75s0.75,0.336,0.75,0.75
		C11.048,17.515,10.712,17.85,10.3,17.85z"/>
	<circle cx="17.099" cy="13.7" r="0.75"/>
	<circle cx="13.699" cy="13.7" r="0.75"/>
	<path d="M10.3,14.451c-0.414,0-0.75-0.336-0.75-0.75s0.336-0.75,0.75-0.75s0.75,0.336,0.75,0.749
		C11.05,14.115,10.714,14.451,10.3,14.451z"/>
	<circle cx="6.899" cy="20.5" r="0.75"/>
	<path d="M10.299,7.65C9.886,7.65,9.55,7.314,9.55,6.9s0.336-0.75,0.75-0.75s0.75,0.336,0.75,0.75
		c-0.002,0.415-0.338,0.75-0.749,0.75H10.299z"/>
	<circle cx="6.899" cy="6.9" r="0.75"/>
	<path d="M3.5,7.65c-0.414,0-0.75-0.336-0.75-0.75S3.086,6.15,3.5,6.15c0.408,0,0.742,0.329,0.75,0.735c0,0.005,0,0.009,0,0.014
		C4.25,7.314,3.914,7.65,3.5,7.65z"/>
	<circle cx="6.899" cy="3.5" r="0.75"/>
	<path d="M17.099,11.05c-0.414,0-0.75-0.336-0.75-0.75s0.336-0.75,0.75-0.75c0.4,0,0.732,0.321,0.749,0.719
		c0.001,0.011,0.002,0.021,0.002,0.031c0,0.012-0.001,0.025-0.003,0.037C17.84,10.721,17.505,11.05,17.099,11.05z"/>
	<path d="M13.699,11.05c-0.414,0-0.75-0.336-0.75-0.75s0.336-0.75,0.75-0.75c0.398,0,0.729,0.318,0.748,0.714
		c0.002,0.012,0.003,0.025,0.003,0.036c0,0.012-0.001,0.024-0.003,0.037C14.436,10.725,14.102,11.05,13.699,11.05z"/>
	<circle cx="10.3" cy="10.3" r="0.75"/>
	<circle cx="6.899" cy="10.3" r="0.75"/>
	<path d="M20.5,7.65c-0.414,0-0.75-0.336-0.75-0.75s0.336-0.75,0.75-0.75c0.408,0,0.742,0.329,0.75,0.735c0,0.005,0,0.009,0,0.014
		C21.25,7.314,20.914,7.65,20.5,7.65z"/>
	<path d="M20.5,11.05c-0.414,0-0.75-0.336-0.75-0.75s0.336-0.75,0.75-0.75c0.408,0,0.742,0.329,0.75,0.735c0,0.005,0,0.009,0,0.014
		C21.25,10.714,20.914,11.05,20.5,11.05z"/>
	<circle cx="20.5" cy="13.7" r="0.75"/>
	<circle cx="20.5" cy="17.1" r="0.75"/>
</g>
</svg>
