<?xml version="1.0" encoding="utf-8"?>
<!-- Generator: Adobe Illustrator 22.1.0, SVG Export Plug-In . SVG Version: 6.00 Build 0)  -->
<svg version="1.1" id="Layer_1" xmlns="http://www.w3.org/2000/svg" xmlns:xlink="http://www.w3.org/1999/xlink" x="0px" y="0px"
	 viewBox="0 0 24 24" style="enable-background:new 0 0 24 24;" xml:space="preserve">
<g>
	<title>professional-network-nomad-list</title>
	<path d="M14.5,18c-0.06,0-0.12-0.012-0.179-0.036c-0.018-0.005-0.035-0.012-0.05-0.02L10.5,16.059l-3.776,1.888
		C6.654,17.982,6.577,18,6.5,18c-0.093,0-0.184-0.026-0.263-0.075C6.089,17.833,6,17.674,6,17.5v-9c0-0.191,0.106-0.362,0.276-0.447
		l4-2c0.013-0.007,0.041-0.017,0.055-0.021c0.002-0.001,0.015-0.006,0.029-0.01C10.411,6.007,10.457,6,10.503,6
		c0.006,0,0.022,0,0.027,0.001c0.012,0.001,0.03,0.003,0.042,0.006c0.024,0.001,0.066,0.012,0.109,0.029
		c0.016,0.005,0.031,0.011,0.045,0.018L14.5,7.941l3.776-1.888C18.346,6.018,18.423,6,18.5,6c0.093,0,0.184,0.026,0.263,0.075
		C18.911,6.166,19,6.325,19,6.5v9c0,0.19-0.106,0.362-0.276,0.447l-4,2c-0.014,0.007-0.029,0.013-0.045,0.017
		C14.617,17.988,14.559,18,14.502,18C14.501,18,14.501,18,14.5,18L14.5,18z M15,16.691l3-1.5V7.309l-3,1.5V16.691z M14,16.691V8.809
		l-3-1.5v7.882L14,16.691z M7,16.691l3-1.5V7.309l-3,1.5V16.691z"/>
	<path d="M12,24C5.383,24,0,18.617,0,12C0,5.383,5.383,0,12,0c6.617,0,12,5.383,12,12C24,18.617,18.617,24,12,24z M12,1
		C5.935,1,1,5.935,1,12s4.935,11,11,11s11-4.935,11-11S18.065,1,12,1z"/>
</g>
</svg>
