<?xml version="1.0" encoding="utf-8"?>
<!-- Generator: Adobe Illustrator 22.1.0, SVG Export Plug-In . SVG Version: 6.00 Build 0)  -->
<svg version="1.1" id="Layer_1" xmlns="http://www.w3.org/2000/svg" xmlns:xlink="http://www.w3.org/1999/xlink" x="0px" y="0px"
	 viewBox="0 0 24 24" style="enable-background:new 0 0 24 24;" xml:space="preserve">
<g>
	<title>professional-network-linkedin</title>
	<path d="M1.5,23C1.224,23,1,22.776,1,22.5v-13C1,9.224,1.224,9,1.5,9h5C6.776,9,7,9.224,7,9.5v13C7,22.776,6.776,23,6.5,23H1.5z
		 M6,22V10H2v12H6z"/>
	<path d="M4,8C2.346,8,1,6.654,1,5s1.346-3,3-3s3,1.346,3,3S5.654,8,4,8z M4,3C2.897,3,2,3.897,2,5s0.897,2,2,2s2-0.897,2-2
		S5.103,3,4,3z"/>
	<path d="M17.5,23c-0.276,0-0.5-0.224-0.5-0.5v-7c0-0.827-0.673-1.5-1.5-1.5S14,14.673,14,15.5v7c0,0.276-0.224,0.5-0.5,0.5h-5
		C8.224,23,8,22.776,8,22.5v-13C8,9.224,8.224,9,8.5,9h5C13.776,9,14,9.224,14,9.5v0.506c1.048-0.649,2.243-0.998,3.483-1.016
		c3.404,0,5.517,2.627,5.517,6.855V22.5c0,0.276-0.224,0.5-0.5,0.5H17.5z M22,22v-6.155c0-3.666-1.686-5.855-4.51-5.855
		c-1.338,0.019-2.642,0.508-3.667,1.376c-0.09,0.077-0.205,0.119-0.323,0.119c-0.072,0-0.145-0.016-0.21-0.046
		C13.114,11.357,13,11.179,13,10.985V10H9v12h4v-6.5c0-1.378,1.122-2.5,2.5-2.5s2.5,1.122,2.5,2.5V22H22z"/>
</g>
</svg>
