<?xml version="1.0" encoding="utf-8"?>
<!-- Generator: Adobe Illustrator 22.1.0, SVG Export Plug-In . SVG Version: 6.00 Build 0)  -->
<svg version="1.1" id="Layer_1" xmlns="http://www.w3.org/2000/svg" xmlns:xlink="http://www.w3.org/1999/xlink" x="0px" y="0px"
	 viewBox="0 0 24 24" style="enable-background:new 0 0 24 24;" xml:space="preserve">
<g>
	<title>hotel-bedroom-1</title>
	<path d="M4.5,19C3.121,19,2,17.878,2,16.5S3.121,14,4.5,14S7,15.121,7,16.5S5.879,19,4.5,19z M4.5,15C3.673,15,3,15.673,3,16.5
		S3.673,18,4.5,18S6,17.327,6,16.5S5.327,15,4.5,15z"/>
	<path d="M9,19c-0.551,0-1-0.448-1-1v-3.658c0-0.726,0.568-1.312,1.295-1.333C9.504,13.003,9.711,13,9.918,13
		c4.624,0,8.641,1.414,10.745,3.781C20.881,17.026,21,17.34,21,17.667C21,18.402,20.402,19,19.667,19H9z M9.936,14
		c-0.203,0-0.407,0.003-0.613,0.009C9.142,14.014,9,14.16,9,14.342V18h10.667C19.851,18,20,17.85,20,17.667
		c0-0.082-0.03-0.16-0.084-0.221C18.027,15.32,14.202,14,9.936,14z"/>
	<path d="M23.5,24c-0.276,0-0.5-0.224-0.5-0.5V21H1v2.5C1,23.775,0.776,24,0.5,24S0,23.775,0,23.5v-12C0,11.224,0.224,11,0.5,11
		S1,11.224,1,11.5V20h22v-6.5c0-0.276,0.224-0.5,0.5-0.5s0.5,0.224,0.5,0.5v10C24,23.775,23.776,24,23.5,24z"/>
	<path d="M0.5,9C0.337,9,0.183,8.92,0.09,8.786c-0.158-0.227-0.102-0.539,0.125-0.696l11.5-8C11.799,0.031,11.897,0,12,0
		s0.201,0.031,0.286,0.09l11.5,8c0.226,0.157,0.282,0.47,0.125,0.696C23.817,8.92,23.664,9,23.5,9c-0.103,0-0.201-0.031-0.285-0.09
		L12,1.109L0.786,8.91C0.702,8.969,0.603,9,0.5,9C0.5,9,0.5,9,0.5,9z"/>
</g>
</svg>
