<?xml version="1.0" encoding="utf-8"?>
<!-- Generator: Adobe Illustrator 22.1.0, SVG Export Plug-In . SVG Version: 6.00 Build 0)  -->
<svg version="1.1" id="Layer_1" xmlns="http://www.w3.org/2000/svg" xmlns:xlink="http://www.w3.org/1999/xlink" x="0px" y="0px"
	 viewBox="0 0 24 24" style="enable-background:new 0 0 24 24;" xml:space="preserve">
<g>
	<title>hotel-single-bed-1</title>
	<path d="M21.5,20.25c-0.276,0-0.5-0.224-0.5-0.5v-2H3v2c0,0.276-0.224,0.5-0.5,0.5S2,20.026,2,19.75v-2.086
		c-0.59-0.209-1-0.774-1-1.414v-5c0-0.64,0.41-1.205,1-1.414V6.25c0-1.379,1.121-2.5,2.5-2.5h15c1.378,0,2.5,1.121,2.5,2.5v3.586
		c0.59,0.209,1,0.774,1,1.414v5c0,0.64-0.41,1.205-1,1.414v2.086C22,20.026,21.776,20.25,21.5,20.25z M2,16.25
		c0,0.276,0.224,0.5,0.5,0.5h19c0.276,0,0.5-0.224,0.5-0.5v-0.5H2V16.25z M22,14.75v-3.5c0-0.276-0.224-0.5-0.5-0.5h-19
		c-0.276,0-0.5,0.224-0.5,0.5v3.5H22z M21,9.75v-3.5c0-0.827-0.673-1.5-1.5-1.5h-15C3.673,4.75,3,5.423,3,6.25v3.5h4.039
		c0.245-1.7,1.723-3,3.461-3h3c1.738,0,3.216,1.3,3.461,3H21z M15.948,9.75c-0.235-1.141-1.261-2-2.448-2h-3
		c-1.187,0-2.213,0.859-2.448,2H15.948z"/>
</g>
</svg>
