<?xml version="1.0" encoding="utf-8"?>
<!-- Generator: Adobe Illustrator 22.1.0, SVG Export Plug-In . SVG Version: 6.00 Build 0)  -->
<svg version="1.1" id="Layer_1" xmlns="http://www.w3.org/2000/svg" xmlns:xlink="http://www.w3.org/1999/xlink" x="0px" y="0px"
	 viewBox="0 0 24 24" style="enable-background:new 0 0 24 24;" xml:space="preserve">
<g>
	<title>hotel-single-bed-2</title>
	<path d="M20.5,24c-0.276,0-0.5-0.224-0.5-0.5V23H4v0.5C4,23.776,3.776,24,3.5,24S3,23.776,3,23.5V23H2c-1.103,0-2-0.897-2-2v-4.5
		c0-0.011,0.001-0.023,0.003-0.035c0.003-0.047,0.011-0.086,0.023-0.123L4,4.419V2c0-1.103,0.897-2,2-2h12c1.103,0,2,0.897,2,2
		v2.419l3.974,11.923c0.013,0.038,0.021,0.08,0.023,0.125C23.999,16.478,24,16.489,24,16.5V21c0,1.103-0.897,2-2,2h-1v0.5
		C21,23.776,20.776,24,20.5,24z M1,21c0,0.552,0.449,1,1,1h20c0.552,0,1-0.448,1-1v-4H1V21z M22.806,16l-2.333-7H3.527l-2.333,7
		H22.806z M20.14,8l-1-3h-1.612l0.228,0.684c0.174,0.523-0.11,1.091-0.632,1.265C17.021,6.983,16.915,7,16.807,7H7.2
		C6.933,7,6.682,6.896,6.493,6.708C6.304,6.519,6.2,6.268,6.199,6.001c0-0.108,0.017-0.214,0.051-0.317L6.477,5H4.86l-1,3H20.14z
		 M7.2,5.999L16.806,6L16.14,4L7.861,4L7.2,5.999z M19,4V2c0-0.551-0.448-1-1-1H6C5.449,1,5,1.449,5,2v2h1.808l0.217-0.657
		C7.093,3.138,7.284,3,7.5,3h8.64c0.431,0,0.812,0.275,0.949,0.684L17.194,4H19z"/>
</g>
</svg>
