<?xml version="1.0" encoding="utf-8"?>
<!-- Generator: Adobe Illustrator 22.1.0, SVG Export Plug-In . SVG Version: 6.00 Build 0)  -->
<svg version="1.1" id="Layer_1" xmlns="http://www.w3.org/2000/svg" xmlns:xlink="http://www.w3.org/1999/xlink" x="0px" y="0px"
	 viewBox="0 0 24 24" style="enable-background:new 0 0 24 24;" xml:space="preserve">
<g>
	<title>hotel</title>
	<path d="M2.979,24c-0.551,0-1-0.448-1-1V8H0.521c-0.276,0-0.5-0.224-0.5-0.5S0.245,7,0.521,7h0.65l2.223-4.448
		C3.565,2.212,3.907,2,4.288,2H5.98V1c0-0.551,0.449-1,1-1h2c0.551,0,1,0.449,1,1v1h3.999V1c0-0.551,0.448-1,1-1h2
		c0.552,0,1,0.449,1,1v1h1.693c0.38,0,0.722,0.211,0.893,0.55L22.808,7h0.671c0.276,0,0.5,0.224,0.5,0.5S23.755,8,23.479,8h-1.5
		v5.479c0.001,0.007,0.001,0.014,0.001,0.021s0,0.014-0.001,0.021V23c0,0.552-0.448,1-1,1H2.979z M20.979,23v-9h-18v9h6v-4
		c0-0.552,0.449-1,1-1h4c0.552,0,1,0.448,1,1v4H20.979z M13.979,23v-4h-4l0,4H13.979z M20.979,13V8h-18v5H20.979z M21.688,7
		l-2.016-4l-1.693,0v2.5c0,0.276-0.224,0.5-0.5,0.5h-3c-0.276,0-0.5-0.224-0.5-0.5V3H9.98v2.5c0,0.276-0.224,0.5-0.5,0.5h-3
		c-0.276,0-0.5-0.224-0.5-0.5V3L4.287,3L2.289,7H21.688z M16.979,5V1h-2l0,4H16.979z M8.98,5V1h-2l0,4H8.98z"/>
	<path d="M17.979,12c-0.552,0-1-0.449-1-1v-1c0-0.551,0.448-1,1-1h1c0.552,0,1,0.449,1,1v1c0,0.551-0.448,1-1,1H17.979z M17.979,11
		h1v-1h-1L17.979,11z"/>
	<path d="M13.979,12c-0.552,0-1-0.449-1-1v-1c0-0.551,0.448-1,1-1h1c0.552,0,1,0.449,1,1v1c0,0.551-0.448,1-1,1H13.979z M13.979,11
		h1v-1h-1L13.979,11z"/>
	<path d="M8.98,12c-0.551,0-1-0.449-1-1v-1c0-0.551,0.449-1,1-1h1c0.551,0,1,0.449,1,1v1c0,0.551-0.449,1-1,1H8.98z M8.98,11h1v-1
		h-1L8.98,11z"/>
	<path d="M4.98,12c-0.551,0-1-0.449-1-1v-1c0-0.551,0.449-1,1-1h1c0.551,0,1,0.449,1,1v1c0,0.551-0.449,1-1,1H4.98z M4.98,11h1v-1
		h-1L4.98,11z"/>
	<path d="M16.979,19c-0.552,0-1-0.448-1-1v-2c0-0.552,0.448-1,1-1h2c0.552,0,1,0.448,1,1v2c0,0.552-0.448,1-1,1H16.979z M16.979,18
		h2v-2h-2L16.979,18z"/>
	<path d="M4.98,19c-0.551,0-1-0.448-1-1v-2c0-0.552,0.449-1,1-1h2c0.551,0,1,0.448,1,1v2c0,0.552-0.449,1-1,1H4.98z M4.98,18h2v-2
		h-2L4.98,18z"/>
</g>
</svg>
