<?xml version="1.0" encoding="utf-8"?>
<!-- Generator: Adobe Illustrator 22.1.0, SVG Export Plug-In . SVG Version: 6.00 Build 0)  -->
<svg version="1.1" id="Layer_1" xmlns="http://www.w3.org/2000/svg" xmlns:xlink="http://www.w3.org/1999/xlink" x="0px" y="0px"
	 viewBox="0 0 24 24" style="enable-background:new 0 0 24 24;" xml:space="preserve">
<g>
	<title>hotel-bunk-bed-2</title>
	<path d="M0.5,24C0.224,24,0,23.776,0,23.5v-23C0,0.224,0.224,0,0.5,0S1,0.224,1,0.5V4h1.051C2.285,2.845,3.301,2,4.5,2h2
		c1.199,0,2.215,0.845,2.449,2H16.5C16.776,4,17,4.224,17,4.5S16.776,5,16.5,5H1v3h15.5C16.776,8,17,8.224,17,8.5S16.776,9,16.5,9H1
		v7h1.051c0.234-1.155,1.25-2,2.449-2h2c1.199,0,2.215,0.845,2.449,2H16.5c0.276,0,0.5,0.224,0.5,0.5S16.776,17,16.5,17H1v3h15.5
		c0.276,0,0.5,0.224,0.5,0.5S16.776,21,16.5,21H1v2.5C1,23.776,0.776,24,0.5,24z M7.914,16c-0.209-0.586-0.773-1-1.414-1h-2
		c-0.641,0-1.205,0.414-1.414,1H7.914z M7.914,4C7.705,3.414,7.141,3,6.5,3h-2C3.859,3,3.295,3.414,3.086,4H7.914z"/>
	<path d="M23.5,24c-0.276,0-0.5-0.224-0.5-0.5V21h-4v2.5c0,0.276-0.224,0.5-0.5,0.5S18,23.776,18,23.5v-21C18,2.224,18.224,2,18.5,2
		S19,2.224,19,2.5V4h4V2.5C23,2.224,23.224,2,23.5,2S24,2.224,24,2.5v21C24,23.776,23.776,24,23.5,24z M23,20v-3h-4v3H23z M23,16v-3
		h-4v3H23z M23,12V9h-4v3H23z M23,8V5h-4v3H23z"/>
</g>
</svg>
