<?xml version="1.0" encoding="utf-8"?>
<!-- Generator: Adobe Illustrator 22.1.0, SVG Export Plug-In . SVG Version: 6.00 Build 0)  -->
<svg version="1.1" id="Light" xmlns="http://www.w3.org/2000/svg" xmlns:xlink="http://www.w3.org/1999/xlink" x="0px" y="0px"
	 viewBox="0 0 24 24" style="enable-background:new 0 0 24 24;" xml:space="preserve">
<g>
	<title>mouse-2</title>
	<path d="M6.5,18.5c-1.734,0-3.365-0.677-4.594-1.907c-1.229-1.229-1.905-2.861-1.905-4.594c0-1.736,0.677-3.368,1.905-4.596
		C3.134,6.176,4.766,5.5,6.501,5.5c1.382,0,2.743,0.453,3.859,1.277C11.206,5.953,12.319,5.5,13.501,5.5
		c2.483,0.001,4.501,2.02,4.5,4.502c0,0.616-0.13,1.234-0.376,1.8l5.645,3.915c0.005,0.004,0.011,0.008,0.017,0.013
		C23.734,16.006,24,16.479,24,17c0,0.827-0.673,1.5-1.5,1.5H6.5z M22.5,16.5c-0.276,0-0.5,0.224-0.5,0.5s0.224,0.5,0.5,0.5
		S23,17.276,23,17S22.776,16.5,22.5,16.5z M6.501,6.5c-1.469,0-2.849,0.572-3.888,1.61c-1.039,1.039-1.611,2.42-1.612,3.889
		c0,1.467,0.572,2.847,1.612,3.888S5.034,17.5,6.5,17.5h14.588C21.03,17.34,21,17.172,21,17c0-0.488,0.238-0.934,0.622-1.21
		L16.7,12.377c-0.213-0.148-0.278-0.43-0.15-0.656c0.295-0.524,0.452-1.118,0.452-1.719c0.001-1.93-1.569-3.5-3.499-3.501
		c-0.936,0-1.815,0.364-2.475,1.024c-0.661,0.661-1.026,1.54-1.026,2.474c0,0.935,0.363,1.814,1.024,2.475
		c0.661,0.662,1.539,1.026,2.474,1.026c0.276,0,0.5,0.224,0.5,0.5s-0.224,0.5-0.5,0.5c-1.202,0-2.332-0.469-3.182-1.319
		C9.469,12.33,9.001,11.2,9.002,9.998c0-0.875,0.251-1.715,0.727-2.445C8.791,6.873,7.654,6.5,6.502,6.5L6.501,6.25V6.5z"/>
	<circle cx="17.5" cy="15" r="0.75"/>
</g>
</svg>
