<?xml version="1.0" encoding="utf-8"?>
<!-- Generator: Adobe Illustrator 22.1.0, SVG Export Plug-In . SVG Version: 6.00 Build 0)  -->
<svg version="1.1" id="Light" xmlns="http://www.w3.org/2000/svg" xmlns:xlink="http://www.w3.org/1999/xlink" x="0px" y="0px"
	 viewBox="0 0 24 24" style="enable-background:new 0 0 24 24;" xml:space="preserve">
<g>
	<title>mouse-body</title>
	<path d="M11.977,7.249c-0.402-0.012-0.725-0.342-0.727-0.745c0-0.001,0-0.003,0-0.003c0-0.398,0.318-0.729,0.714-0.748
		C11.976,5.75,11.989,5.749,12,5.749c0.413,0,0.749,0.336,0.75,0.75c0.001,0.199-0.076,0.388-0.217,0.53
		c-0.141,0.142-0.329,0.221-0.529,0.222c0,0-0.001,0-0.001,0C11.994,7.25,11.986,7.25,11.977,7.249z"/>
	<path d="M15.977,7.249c-0.403-0.012-0.726-0.342-0.727-0.746c0,0,0-0.002,0-0.003c0-0.398,0.318-0.729,0.714-0.748
		C15.976,5.75,15.989,5.749,16,5.749c0.414,0,0.75,0.336,0.75,0.75c0.001,0.412-0.333,0.749-0.746,0.751c0,0-0.001,0-0.001,0
		C15.994,7.25,15.986,7.25,15.977,7.249z"/>
	<path d="M15,11.5c-0.375,0-0.727-0.138-1-0.387c-0.273,0.249-0.625,0.387-1,0.387c-0.827,0-1.5-0.673-1.5-1.5
		c0-0.276,0.224-0.5,0.5-0.5s0.5,0.224,0.5,0.5s0.224,0.5,0.5,0.5c0.276,0,0.5-0.224,0.5-0.5V9.206l-0.354-0.354
		c-0.195-0.195-0.195-0.512,0-0.707c0.094-0.094,0.22-0.146,0.354-0.146s0.259,0.052,0.354,0.146L14,8.292l0.146-0.146
		c0.094-0.094,0.22-0.146,0.354-0.146s0.259,0.052,0.354,0.146c0.195,0.195,0.195,0.512,0,0.707L14.5,9.206v0.793
		c0,0.277,0.224,0.501,0.5,0.501s0.5-0.224,0.5-0.5s0.224-0.5,0.5-0.5c0.276,0,0.5,0.224,0.5,0.5C16.5,10.827,15.827,11.5,15,11.5z"
		/>
	<path d="M17.5,19.452c-0.275,0-0.5-0.224-0.5-0.499c-0.002-1.232-0.887-2.266-2.104-2.459c-0.132-0.021-0.248-0.092-0.326-0.2
		s-0.11-0.24-0.089-0.372c0.038-0.244,0.246-0.422,0.493-0.422c0.026,0,0.052,0.002,0.079,0.006c1.705,0.27,2.944,1.719,2.948,3.445
		C18,19.227,17.776,19.451,17.5,19.452C17.501,19.452,17.501,19.452,17.5,19.452z"/>
	<path d="M9,24c-3.584,0-6.5-2.916-6.5-6.5S5.416,11,9,11c0.276,0,0.5-0.224,0.5-0.5V6.964C8.754,6.86,8.059,6.518,7.523,5.986
		C6.858,5.328,6.49,4.451,6.486,3.516C6.482,2.581,6.842,1.701,7.5,1.036C8.158,0.372,9.035,0.004,9.97,0
		c1.395,0,2.655,0.827,3.213,2.078C13.459,2.026,13.733,2,14,2s0.541,0.026,0.817,0.078C15.375,0.827,16.634,0,18.014,0
		c0.951,0.004,1.828,0.372,2.486,1.036c0.658,0.664,1.018,1.545,1.014,2.48c-0.004,0.935-0.372,1.812-1.036,2.47
		c-0.533,0.528-1.221,0.869-1.961,0.975c0.072,2.073-0.094,4.158-0.494,6.203c1.468,0.441,2.475,1.78,2.478,3.335
		c0,0.276-0.223,0.5-0.499,0.501c-0.276,0-0.5-0.224-0.501-0.499c-0.002-1.08-0.684-2.016-1.687-2.354
		c-0.083,0.357-0.164,0.681-0.247,0.985c-0.06,0.217-0.259,0.368-0.484,0.368c-0.044,0-0.087-0.006-0.129-0.017
		c-0.13-0.035-0.238-0.119-0.304-0.235s-0.083-0.251-0.048-0.38c0.744-2.72,1.046-5.526,0.899-8.342C17.5,4.576,15.93,3,14,3
		s-3.5,1.57-3.5,3.5v4c0,0.827-0.673,1.5-1.5,1.5c-3.033,0-5.5,2.467-5.5,5.5S5.967,23,9,23h1.522
		c0.018-1.224-0.194-4.163-2.593-4.505c-0.273-0.039-0.463-0.293-0.424-0.566C7.54,17.685,7.752,17.5,7.998,17.5
		c0.024,0,0.049,0.002,0.074,0.005c1.854,0.265,3.039,1.717,3.362,4.104c1.347-0.941,2.519-2.084,3.486-3.405
		C15.015,18.076,15.165,18,15.324,18c0.107,0,0.209,0.034,0.296,0.097c0.222,0.163,0.27,0.476,0.107,0.698
		c-1.151,1.571-2.566,2.903-4.208,3.963C11.521,22.84,11.521,22.92,11.52,23H19c0.276,0,0.5,0.224,0.5,0.5S19.276,24,19,24H9z
		 M15.783,2.374c1.468,0.635,2.488,2,2.679,3.585c0.497-0.088,0.947-0.321,1.311-0.682c0.474-0.47,0.737-1.097,0.74-1.765
		c0.003-0.668-0.254-1.297-0.724-1.771C19.32,1.266,18.693,1.003,18.025,1l-0.011-0.25V1C17.073,1,16.205,1.543,15.783,2.374z
		 M9.974,1C9.307,1.003,8.68,1.266,8.21,1.74C7.74,2.215,7.483,2.844,7.486,3.511c0.003,0.668,0.266,1.295,0.74,1.765
		C8.591,5.637,9.04,5.87,9.537,5.959c0.191-1.584,1.212-2.95,2.68-3.585C11.795,1.543,10.927,1,9.986,1L9.973,0.75L9.974,1z"/>
</g>
</svg>
