<?xml version="1.0" encoding="utf-8"?>
<!-- Generator: Adobe Illustrator 22.1.0, SVG Export Plug-In . SVG Version: 6.00 Build 0)  -->
<svg version="1.1" id="Light" xmlns="http://www.w3.org/2000/svg" xmlns:xlink="http://www.w3.org/1999/xlink" x="0px" y="0px"
	 viewBox="0 0 24 24" style="enable-background:new 0 0 24 24;" xml:space="preserve">
<g>
	<title>rat-curve</title>
	<path d="M8.79,5.908c-0.019,0-0.052-0.005-0.075-0.01C8.374,5.862,8.101,5.596,8.054,5.257C8.049,5.238,8.04,5.206,8.04,5.165
		c-0.002-0.201,0.073-0.39,0.213-0.534c0.14-0.143,0.327-0.224,0.527-0.226c0.001,0,0.013,0,0.014,0c0.414,0,0.75,0.336,0.75,0.75
		c0,0.04-0.007,0.071-0.013,0.09C9.488,5.625,9.173,5.908,8.79,5.908z"/>
	<path d="M13.191,21.769c-3.231,0-5.794-0.883-7.617-2.625c-2.537-2.424-2.916-5.77-2.916-7.549
		c-0.006-0.776,0.043-1.562,0.145-2.336C1.747,9.196,0.795,8.598,0.278,7.665c-0.069-0.073-0.114-0.163-0.13-0.261
		c-0.021-0.047-0.04-0.09-0.057-0.134C0.085,7.252,0.079,7.235,0.075,7.218c-0.172-0.647-0.068-1.325,0.302-1.96
		c0.497-0.854,1.406-1.506,2.494-1.791C3.224,3.363,3.6,3.31,3.981,3.31c0.567,0,1.133,0.12,1.648,0.348
		c1.172-0.898,3.037-1.41,5.152-1.41c1.113,0,2.235,0.138,3.335,0.411c0,0,0.017,0.003,0.033,0.008
		c0.042,0.01,0.077,0.028,0.1,0.039c0.028,0.015,0.046,0.025,0.063,0.037c0.038,0.026,0.075,0.062,0.108,0.105
		c0.006,0.007,0.011,0.014,0.016,0.021c0.004,0.007,0.009,0.013,0.012,0.021c0.034,0.049,0.062,0.119,0.072,0.19
		c0.387,2.707-0.026,4.566-1.3,5.81c0.172,0.125,0.314,0.289,0.419,0.488c0.362,0.689,0.217,1.767-0.923,2.622
		c-0.52,0.356-1.08,0.615-1.674,0.776c0.141,0.198,0.412,0.369,0.923,0.384c0.501-0.289,1.068-0.445,1.646-0.454
		c0.065-0.005,0.146-0.009,0.226-0.009c1.119,0,2.148,0.593,2.721,1.54c0.484-0.61,0.995-1.204,1.522-1.772
		c0.304-0.305,0.71-0.476,1.12-0.476c0.347,0,0.679,0.122,0.935,0.344c0.476,0.413,0.741,1.285-0.082,2.382
		c-0.512,0.682-1.123,1.688-1.714,2.661c-0.392,0.646-0.761,1.254-1.086,1.741c-0.205,0.308-0.559,0.798-1.02,1.271
		c2.939-0.833,5.235-3.025,6.241-6.015c1.333-3.961,0.13-8.115-3.141-10.838c-0.103-0.085-0.166-0.206-0.178-0.339
		c-0.012-0.133,0.028-0.263,0.114-0.365c0.096-0.115,0.236-0.18,0.385-0.18c0.117,0,0.23,0.041,0.32,0.116
		c3.54,2.949,4.894,7.63,3.448,11.926c-1.398,4.154-4.992,6.859-9.379,7.058c-0.285,0.013-0.571,0.02-0.85,0.02H13.191z
		 M3.823,9.198c-0.116,0.803-0.172,1.607-0.166,2.394c0,1.621,0.339,4.662,2.607,6.829c1.63,1.557,3.958,2.346,6.922,2.346
		c0.115,0,0.231-0.001,0.347-0.003c0.02-0.005,0.049-0.011,0.083-0.011c0.829,0,1.903-0.84,2.803-2.191
		c0.311-0.467,0.674-1.065,1.059-1.698c0.607-1,1.231-2.027,1.773-2.75c0.269-0.358,0.469-0.815,0.226-1.026
		c-0.07-0.061-0.178-0.097-0.289-0.097c-0.145,0-0.283,0.059-0.391,0.167c-0.687,0.74-1.351,1.535-1.965,2.357
		c-0.094,0.126-0.243,0.201-0.399,0.201c-0.033,0-0.066-0.003-0.099-0.01c-0.186-0.037-0.338-0.18-0.386-0.365
		c-0.252-0.968-1.129-1.645-2.131-1.645c-0.054,0-0.109,0.002-0.164,0.006c-1.179,0.019-2.166,0.859-2.36,1.999
		c-0.041,0.241-0.248,0.416-0.492,0.416c-0.028,0-0.057-0.002-0.086-0.007c-0.131-0.022-0.246-0.094-0.323-0.203
		s-0.108-0.242-0.085-0.374c0.098-0.577,0.34-1.11,0.705-1.561c-0.586-0.244-0.863-0.681-0.993-1.024
		c-0.145,0.012-0.277,0.018-0.404,0.018c-0.301,0-0.605-0.025-0.903-0.075c-0.272-0.045-0.456-0.303-0.411-0.575
		c0.04-0.242,0.247-0.418,0.492-0.418c0.027,0,0.055,0.002,0.083,0.007c0.245,0.041,0.494,0.061,0.74,0.061
		c0.9,0,1.77-0.27,2.517-0.781c0.651-0.489,0.78-1.041,0.62-1.344c-0.075-0.144-0.202-0.22-0.366-0.22
		c-0.058,0-0.12,0.01-0.184,0.029c-0.982,0.548-2.093,0.838-3.214,0.838c-0.07,0-0.141-0.001-0.211-0.003
		c-0.276-0.009-0.493-0.241-0.484-0.516c0.009-0.271,0.226-0.484,0.494-0.484c0.004,0,0.023,0,0.027,0.001
		C8.871,9.487,8.93,9.488,8.99,9.488c0.973,0,1.933-0.255,2.776-0.737c1.499-0.9,2.065-2.33,1.854-4.737l-0.53,0.353
		c-0.082,0.055-0.178,0.084-0.277,0.084c-0.168,0-0.323-0.083-0.416-0.223c-0.074-0.111-0.101-0.244-0.074-0.375
		c0.026-0.131,0.102-0.244,0.213-0.318l0.2-0.134c-0.663-0.104-1.328-0.156-1.983-0.156c-2.031,0-3.751,0.502-4.72,1.376
		C5.941,4.705,5.822,4.75,5.698,4.75c-0.084,0-0.168-0.022-0.242-0.063C5.009,4.441,4.5,4.31,3.983,4.31
		c-0.288,0-0.572,0.04-0.845,0.12C2.306,4.648,1.6,5.145,1.241,5.761C1.216,5.805,1.192,5.849,1.17,5.893
		c0.549-0.45,1.219-0.742,1.927-0.829C3.117,5.061,3.138,5.06,3.158,5.06c1.683,0,2.235,0.417,2.364,0.545
		C5.718,5.8,5.719,6.117,5.525,6.312C5.43,6.408,5.304,6.46,5.17,6.46c-0.124,0-0.242-0.045-0.333-0.127
		C4.781,6.298,4.363,6.064,3.189,6.06C2.378,6.168,1.672,6.62,1.23,7.308c0.386,0.593,1.048,0.956,1.759,0.956
		c0.107,0,0.216-0.008,0.323-0.024c0.01-0.001,0.063-0.006,0.073-0.006C3.782,8.232,4.177,8.13,4.526,7.938
		C4.6,7.898,4.683,7.876,4.767,7.876c0.182,0,0.35,0.099,0.438,0.259c0.064,0.117,0.079,0.252,0.042,0.381
		C5.209,8.644,5.124,8.75,5.007,8.815C4.65,9.011,4.244,9.142,3.823,9.198z"/>
</g>
</svg>
