<?xml version="1.0" encoding="utf-8"?>
<!-- Generator: Adobe Illustrator 22.1.0, SVG Export Plug-In . SVG Version: 6.00 Build 0)  -->
<svg version="1.1" id="Layer_1" xmlns="http://www.w3.org/2000/svg" xmlns:xlink="http://www.w3.org/1999/xlink" x="0px" y="0px"
	 viewBox="0 0 24 24" style="enable-background:new 0 0 24 24;" xml:space="preserve">
<g>
	<title>educative-toys-music</title>
	<path d="M1.5,6C0.673,6,0,5.327,0,4.5v-2C0,1.673,0.673,1,1.5,1h12C14.327,1,15,1.673,15,2.5v2C15,5.327,14.327,6,13.5,6H1.5z
		 M1.5,2C1.224,2,1,2.224,1,2.5v2C1,4.776,1.224,5,1.5,5h12C13.776,5,14,4.776,14,4.5v-2C14,2.224,13.776,2,13.5,2H1.5z"/>
	<path d="M1.5,12C0.673,12,0,11.327,0,10.5v-2C0,7.673,0.673,7,1.5,7h12C14.327,7,15,7.673,15,8.5v2c0,0.827-0.673,1.5-1.5,1.5H1.5z
		 M1.5,8C1.224,8,1,8.224,1,8.5v2C1,10.776,1.224,11,1.5,11h12c0.276,0,0.5-0.224,0.5-0.5v-2C14,8.224,13.776,8,13.5,8H1.5z"/>
	<path d="M1.5,18C0.673,18,0,17.327,0,16.5v-2C0,13.673,0.673,13,1.5,13h12c0.827,0,1.5,0.673,1.5,1.5v2c0,0.827-0.673,1.5-1.5,1.5
		H1.5z M1.5,14C1.224,14,1,14.224,1,14.5v2C1,16.776,1.224,17,1.5,17h12c0.276,0,0.5-0.224,0.5-0.5v-2c0-0.276-0.224-0.5-0.5-0.5
		H1.5z"/>
	<path d="M1.5,24C0.673,24,0,23.327,0,22.5v-2C0,19.673,0.673,19,1.5,19h12c0.827,0,1.5,0.673,1.5,1.5v2c0,0.827-0.673,1.5-1.5,1.5
		H1.5z M1.5,20C1.224,20,1,20.224,1,20.5v2C1,22.776,1.224,23,1.5,23h12c0.276,0,0.5-0.224,0.5-0.5v-2c0-0.276-0.224-0.5-0.5-0.5
		H1.5z"/>
	<path d="M12.302,4.35c-0.04,0-0.072-0.008-0.092-0.013c-0.378-0.045-0.66-0.361-0.66-0.742c0-0.016,0.003-0.04,0.007-0.06
		c0.025-0.344,0.294-0.629,0.646-0.676c0.022-0.006,0.055-0.014,0.097-0.014c0.397,0,0.729,0.318,0.748,0.713
		c0.002,0.015,0.004,0.03,0.004,0.042C13.052,4.014,12.716,4.35,12.302,4.35z"/>
	<path d="M23.5,24c-0.247,0-0.46-0.185-0.495-0.429L20.352,4.996C19.042,4.918,18,3.829,18,2.5C18,1.121,19.122,0,20.5,0
		S23,1.121,23,2.5c0,1.062-0.672,1.999-1.659,2.352l2.654,18.578c0.039,0.273-0.151,0.527-0.424,0.566
		C23.547,23.999,23.523,24,23.5,24z M20.5,1C19.673,1,19,1.673,19,2.5S19.673,4,20.5,4S22,3.327,22,2.5S21.327,1,20.5,1z"/>
	<path d="M2.68,4.241C2.293,4.23,1.979,3.928,1.953,3.543C1.95,3.525,1.948,3.506,1.948,3.492c0-0.414,0.336-0.75,0.75-0.75
		c0,0,0.002,0,0.002,0c0.414,0,0.75,0.336,0.75,0.75c0,0.015-0.002,0.033-0.005,0.051C3.423,3.925,3.107,4.232,2.717,4.241
		c-0.006,0-0.011,0.001-0.017,0.001C2.7,4.242,2.686,4.242,2.68,4.241z"/>
	<path d="M12.302,10.302c-0.014,0-0.032-0.002-0.049-0.005c-0.39-0.017-0.703-0.344-0.703-0.747c0-0.015,0.002-0.036,0.006-0.054
		c0.023-0.367,0.317-0.662,0.69-0.69C12.265,8.802,12.285,8.8,12.3,8.8c0.4,0,0.724,0.308,0.747,0.705
		c0.003,0.016,0.005,0.033,0.005,0.047C13.052,9.966,12.716,10.302,12.302,10.302z"/>
	<path d="M2.7,10.2c-0.402,0-0.726-0.309-0.748-0.708C1.95,9.476,1.948,9.459,1.948,9.446C1.952,9.034,2.288,8.7,2.698,8.7
		c0.005,0,0.011,0,0.016,0C3.122,8.709,3.45,9.043,3.45,9.45c0,0.015-0.002,0.036-0.006,0.054c-0.023,0.367-0.317,0.662-0.69,0.69
		C2.736,10.198,2.715,10.2,2.7,10.2z"/>
	<path d="M12.302,16.302c-0.014,0-0.031-0.002-0.047-0.004c-0.396-0.022-0.705-0.347-0.705-0.748c0-0.015,0.002-0.036,0.006-0.054
		c0.023-0.366,0.316-0.662,0.69-0.69c0.019-0.003,0.039-0.006,0.055-0.006c0.4,0,0.724,0.308,0.748,0.705
		c0.003,0.016,0.004,0.033,0.004,0.047C13.052,15.966,12.716,16.302,12.302,16.302z"/>
	<path d="M2.7,16.2c-0.399,0-0.723-0.308-0.747-0.704c-0.003-0.016-0.005-0.034-0.005-0.048c0-0.414,0.336-0.75,0.75-0.75
		c0.014,0,0.031,0.002,0.047,0.004C3.141,14.725,3.45,15.05,3.45,15.45c0,0.015-0.002,0.036-0.006,0.054
		c-0.023,0.366-0.316,0.662-0.689,0.69C2.736,16.198,2.715,16.2,2.7,16.2z"/>
	<path d="M12.302,22.302c-0.014,0-0.031-0.002-0.047-0.004c-0.396-0.022-0.705-0.347-0.705-0.748c0-0.015,0.002-0.036,0.006-0.054
		c0.023-0.366,0.316-0.662,0.69-0.69c0.019-0.003,0.039-0.006,0.055-0.006c0.4,0,0.724,0.308,0.748,0.705
		c0.003,0.016,0.004,0.033,0.004,0.047C13.052,21.966,12.716,22.302,12.302,22.302z"/>
	<path d="M2.7,22.2c-0.399,0-0.723-0.308-0.747-0.704c-0.003-0.016-0.005-0.034-0.005-0.048c0-0.414,0.336-0.75,0.75-0.75
		c0.014,0,0.031,0.002,0.047,0.004C3.141,20.725,3.45,21.05,3.45,21.45c0,0.015-0.002,0.036-0.006,0.054
		c-0.023,0.366-0.316,0.662-0.689,0.69C2.736,22.198,2.715,22.2,2.7,22.2z"/>
</g>
</svg>
