<?xml version="1.0" encoding="utf-8"?>
<!-- Generator: Adobe Illustrator 22.1.0, SVG Export Plug-In . SVG Version: 6.00 Build 0)  -->
<svg version="1.1" id="Layer_1" xmlns="http://www.w3.org/2000/svg" xmlns:xlink="http://www.w3.org/1999/xlink" x="0px" y="0px"
	 viewBox="0 0 24 24" style="enable-background:new 0 0 24 24;" xml:space="preserve">
<g>
	<title>educative-toys-alphabet</title>
	<path d="M2.5,23.5C1.121,23.5,0,22.378,0,21v-6c0-1.378,1.121-2.5,2.5-2.5h6c1.379,0,2.5,1.122,2.5,2.5v6
		c0,1.378-1.121,2.5-2.5,2.5H2.5z M2.5,13.5C1.673,13.5,1,14.173,1,15v6c0,0.827,0.673,1.5,1.5,1.5h6c0.827,0,1.5-0.673,1.5-1.5v-6
		c0-0.827-0.673-1.5-1.5-1.5H2.5z"/>
	<path d="M15.5,23.5c-1.378,0-2.5-1.122-2.5-2.5v-6c0-1.378,1.122-2.5,2.5-2.5h6c1.378,0,2.5,1.122,2.5,2.5v6
		c0,1.378-1.122,2.5-2.5,2.5H15.5z M15.5,13.5c-0.827,0-1.5,0.673-1.5,1.5v6c0,0.827,0.673,1.5,1.5,1.5h6c0.827,0,1.5-0.673,1.5-1.5
		v-6c0-0.827-0.673-1.5-1.5-1.5H15.5z"/>
	<path d="M9,11.5c-1.379,0-2.5-1.121-2.5-2.5V3c0-1.379,1.121-2.5,2.5-2.5h6c1.378,0,2.5,1.121,2.5,2.5v6c0,1.379-1.122,2.5-2.5,2.5
		H9z M9,1.5C8.173,1.5,7.5,2.173,7.5,3v6c0,0.827,0.673,1.5,1.5,1.5h6c0.827,0,1.5-0.673,1.5-1.5V3c0-0.827-0.673-1.5-1.5-1.5H9z"/>
	<path d="M13.5,9.5C13.224,9.5,13,9.276,13,9V6.5h-2V9c0,0.276-0.224,0.5-0.5,0.5S10,9.276,10,9V4.5c0-1.103,0.897-2,2-2
		s2,0.897,2,2V9C14,9.276,13.776,9.5,13.5,9.5z M13,5.5v-1c0-0.551-0.448-1-1-1c-0.551,0-1,0.449-1,1v1H13z"/>
	<path d="M4,21.5c-0.276,0-0.5-0.224-0.5-0.5v-6c0-0.276,0.224-0.5,0.5-0.5h1.5c1.103,0,2,0.897,2,2c0,0.575-0.255,1.123-0.682,1.5
		C7.245,18.377,7.5,18.925,7.5,19.5c0,1.103-0.897,2-2,2H4z M5.5,20.5c0.551,0,1-0.448,1-1s-0.449-1-1-1h-1v2H5.5z M5.5,17.5
		c0.551,0,1-0.448,1-1s-0.449-1-1-1h-1v2H5.5z"/>
	<path d="M19.5,21.5c-1.93,0-3.5-1.57-3.5-3.5s1.57-3.5,3.5-3.5c0.276,0,0.5,0.224,0.5,0.5s-0.224,0.5-0.5,0.5
		c-1.378,0-2.5,1.122-2.5,2.5s1.122,2.5,2.5,2.5c0.276,0,0.5,0.224,0.5,0.5S19.776,21.5,19.5,21.5z"/>
</g>
</svg>
