<?xml version="1.0" encoding="utf-8"?>
<!-- Generator: Adobe Illustrator 22.1.0, SVG Export Plug-In . SVG Version: 6.00 Build 0)  -->
<svg version="1.1" id="Light" xmlns="http://www.w3.org/2000/svg" xmlns:xlink="http://www.w3.org/1999/xlink" x="0px" y="0px"
	 viewBox="0 0 24 24" style="enable-background:new 0 0 24 24;" xml:space="preserve">
<g>
	<title>amphibian-frog</title>
	<path d="M23.003,16.174c-0.062,0-0.124-0.011-0.182-0.034l-6.077-2.375c-1.521-0.596-3.116-0.898-4.741-0.898
		c-1.624,0-3.219,0.302-4.741,0.898L1.185,16.14c-0.057,0.023-0.119,0.034-0.182,0.034c-0.207,0-0.39-0.125-0.466-0.318
		c-0.1-0.257,0.027-0.548,0.284-0.648l6.077-2.375c1.638-0.641,3.355-0.966,5.104-0.966c1.749,0,3.467,0.325,5.106,0.966
		l6.077,2.375c0.257,0.101,0.384,0.391,0.284,0.648C23.393,16.05,23.21,16.174,23.003,16.174L23.003,16.174z"/>
	<path d="M11.777,22.251c-3.851,0-7.486-1.691-9.973-4.641c-0.086-0.102-0.127-0.231-0.116-0.365
		c0.011-0.133,0.074-0.254,0.176-0.34c0.09-0.076,0.204-0.118,0.322-0.118c0.148,0,0.287,0.065,0.382,0.178
		c2.297,2.724,5.654,4.285,9.21,4.285c0.072,0,0.144-0.001,0.216-0.002c0.082,0.001,0.229,0.002,0.229,0.002
		c3.559,0,6.917-1.562,9.214-4.285c0.096-0.113,0.235-0.178,0.383-0.178c0.117,0,0.232,0.042,0.322,0.118
		c0.211,0.178,0.238,0.494,0.06,0.705c-2.488,2.949-6.132,4.64-9.998,4.64c0,0-0.14-0.001-0.209-0.002
		C11.928,22.25,11.852,22.251,11.777,22.251z"/>
	<path d="M22.494,13.749c-0.134-0.002-0.258-0.057-0.351-0.153c-0.093-0.096-0.143-0.222-0.14-0.356
		c0.021-1.173-0.264-2.338-0.824-3.37c-0.126-0.232-0.049-0.523,0.175-0.663c0.79-0.493,1.341-1.266,1.552-2.177
		s0.055-1.847-0.439-2.637c-0.642-1.028-1.752-1.642-2.969-1.642c-0.652,0-1.29,0.183-1.845,0.529
		c-0.409,0.256-0.755,0.587-1.029,0.985c-0.094,0.136-0.248,0.217-0.412,0.217c-0.062,0-0.124-0.012-0.182-0.034
		c-1.197-0.466-2.453-0.703-3.734-0.703c-0.093,0-0.186,0.001-0.279,0.004c-0.106-0.002-0.199-0.004-0.292-0.004
		c-1.29,0-2.551,0.236-3.748,0.703C7.918,4.471,7.857,4.482,7.795,4.482c-0.166,0-0.321-0.082-0.414-0.22
		C6.857,3.488,6.063,2.964,5.145,2.788c-0.222-0.043-0.447-0.064-0.67-0.064c-0.696,0-1.372,0.208-1.954,0.603
		c-1.598,1.082-2.018,3.262-0.936,4.86c0.281,0.415,0.639,0.758,1.066,1.02c0.226,0.139,0.304,0.431,0.177,0.665
		c-0.56,1.031-0.845,2.196-0.824,3.37c0.002,0.134-0.047,0.26-0.14,0.356s-0.217,0.15-0.351,0.153c-0.28,0-0.504-0.22-0.509-0.491
		c-0.021-1.191,0.235-2.383,0.742-3.462C1.362,9.503,1.03,9.151,0.756,8.747C-0.635,6.692-0.095,3.889,1.96,2.498
		c0.749-0.507,1.618-0.775,2.514-0.775c0.286,0,0.576,0.028,0.859,0.082c1.044,0.201,1.974,0.759,2.639,1.578
		c1.204-0.423,2.461-0.638,3.737-0.638c0.102,0,0.204,0.001,0.307,0.004c0.09-0.003,0.193-0.004,0.297-0.004
		c1.267,0,2.518,0.215,3.723,0.639c0.308-0.373,0.672-0.693,1.086-0.952c0.714-0.446,1.535-0.681,2.374-0.681
		c1.565,0,2.993,0.79,3.819,2.113c1.226,1.964,0.756,4.526-1.055,5.929c0.508,1.079,0.764,2.272,0.743,3.465
		c-0.005,0.267-0.229,0.488-0.501,0.491c-0.001,0-0.002,0-0.003,0C22.497,13.749,22.496,13.749,22.494,13.749z"/>
	<path d="M4.503,8.249c-1.103,0-2-0.897-2-2s0.897-2,2-2s2,0.897,2,2S5.606,8.249,4.503,8.249z M4.503,5.249c-0.551,0-1,0.449-1,1
		s0.449,1,1,1s1-0.449,1-1S5.054,5.249,4.503,5.249z"/>
	<path d="M19.503,8.249c-1.103,0-2-0.897-2-2s0.897-2,2-2s2,0.897,2,2S20.606,8.249,19.503,8.249z M19.503,5.249
		c-0.552,0-1,0.449-1,1s0.448,1,1,1s1-0.449,1-1S20.055,5.249,19.503,5.249z"/>
</g>
</svg>
