<?xml version="1.0" encoding="utf-8"?>
<!-- Generator: Adobe Illustrator 22.1.0, SVG Export Plug-In . SVG Version: 6.00 Build 0)  -->
<svg version="1.1" id="Light" xmlns="http://www.w3.org/2000/svg" xmlns:xlink="http://www.w3.org/1999/xlink" x="0px" y="0px"
	 viewBox="0 0 24 24" style="enable-background:new 0 0 24 24;" xml:space="preserve">
<g>
	<title>amphibian-chameleon-1</title>
	<path d="M3,6.5c-0.157,0-0.306-0.075-0.4-0.2c-0.08-0.107-0.114-0.239-0.095-0.371C2.524,5.797,2.593,5.68,2.7,5.6l1.805-1.354
		C4.607,1.855,6.125,0,8,0c1.864,0,3.378,1.839,3.493,4.213l2.264,1.359c0.236,0.142,0.313,0.45,0.171,0.686
		c-0.09,0.15-0.254,0.243-0.429,0.243c-0.09,0-0.179-0.025-0.257-0.071l-2.5-1.5C10.593,4.839,10.5,4.675,10.5,4.5
		C10.5,2.57,9.378,1,8,1S5.5,2.57,5.5,4.5c0,0.157-0.075,0.306-0.2,0.4l-2,1.5C3.213,6.465,3.109,6.5,3,6.5L3,6.5z"/>
	<path d="M4.499,8.5c-0.077,0-0.154-0.018-0.223-0.053C4.029,8.324,3.929,8.023,4.052,7.776l1-2C5.138,5.606,5.309,5.5,5.5,5.5
		c0.077,0,0.154,0.018,0.224,0.053C5.97,5.676,6.07,5.977,5.947,6.224l-1,2C4.862,8.394,4.69,8.5,4.499,8.5z"/>
	<path d="M11.5,8.5c-0.191,0-0.362-0.106-0.448-0.276l-1-2c-0.123-0.247-0.023-0.548,0.224-0.671C10.345,5.518,10.423,5.5,10.5,5.5
		c0.191,0,0.362,0.106,0.447,0.277l1,2c0.123,0.247,0.023,0.548-0.224,0.671C11.654,8.482,11.577,8.5,11.5,8.5z"/>
	<circle cx="6.75" cy="3.75" r="0.75"/>
	<circle cx="9.25" cy="3.75" r="0.75"/>
	<path d="M11.5,24c-3.33,0-5.45-1.754-6.481-5.363c-0.252-0.667-0.459-1.38-0.615-2.109c-0.109,0.012-0.217,0.018-0.323,0.018
		c-0.595,0-1.654-0.18-2.057-1.388c-0.042-0.127-0.033-0.263,0.027-0.382s0.163-0.208,0.289-0.25C2.393,14.509,2.446,14.5,2.5,14.5
		c0.215,0,0.406,0.137,0.474,0.342c0.156,0.468,0.521,0.705,1.087,0.705c0.055,0,0.111-0.002,0.168-0.007
		c-0.209-1.46-0.197-2.938,0.034-4.401c-0.559-0.008-1.802-0.177-2.237-1.48C1.983,9.531,1.993,9.396,2.052,9.276
		c0.06-0.12,0.162-0.208,0.289-0.251C2.393,9.009,2.446,9,2.5,9c0.215,0,0.406,0.137,0.474,0.342
		c0.176,0.529,0.615,0.797,1.303,0.797c0.064,0,0.124-0.003,0.179-0.006c0.019-0.084,0.038-0.168,0.059-0.252
		C4.569,9.656,4.769,9.5,5,9.5c0.04,0,0.081,0.005,0.12,0.015c0.268,0.066,0.432,0.338,0.366,0.605
		c-0.457,1.851-0.53,3.736-0.217,5.604c0.01,0.019,0.021,0.041,0.029,0.068c0.018,0.06,0.024,0.123,0.018,0.189
		c0.15,0.801,0.369,1.589,0.653,2.344C6.883,21.52,8.638,23,11.5,23c3.308,0,6-2.692,6-6c0-0.276,0.224-0.5,0.5-0.5
		s0.5,0.224,0.5,0.5C18.5,20.86,15.359,24,11.5,24z"/>
	<path d="M18,24c-0.18,0-0.346-0.097-0.435-0.253c-0.066-0.115-0.083-0.25-0.048-0.379c0.035-0.129,0.119-0.236,0.235-0.302
		c1.994-1.138,3.239-3.271,3.247-5.568V15.5c0-1.654-1.346-3-3-3s-3,1.346-3,3c0,0,0.001,3.561,0,3.599
		c-0.015,0.656-0.284,1.266-0.758,1.72c-0.459,0.439-1.067,0.681-1.713,0.681l-0.038,0c-0.727,0-1.448-0.347-1.925-0.929
		c-0.436-0.532-0.887-1.514-0.556-3.169c0.179-0.894,0.363-1.586,0.526-2.197c0.445-1.673,0.691-2.595-0.016-5.068
		c-0.076-0.265,0.078-0.542,0.343-0.618C10.907,9.506,10.953,9.5,11,9.5c0.222,0,0.42,0.149,0.481,0.363
		c0.015,0.053,0.029,0.105,0.043,0.155c0.106,0.016,0.234,0.03,0.373,0.03c0.593,0,0.974-0.237,1.129-0.706
		C13.093,9.137,13.284,9,13.499,9c0.054,0,0.107,0.009,0.159,0.026c0.261,0.087,0.403,0.371,0.316,0.633
		c-0.403,1.209-1.488,1.39-2.099,1.39c-0.033,0-0.067-0.001-0.101-0.002c0.392,1.921,0.124,2.929-0.272,4.416l-0.024,0.09
		c0.013,0,0.026,0,0.039,0c0.52,0,0.849-0.232,1.009-0.711c0.068-0.204,0.259-0.342,0.474-0.342c0.054,0,0.107,0.009,0.158,0.026
		c0.127,0.042,0.229,0.131,0.289,0.25s0.07,0.255,0.027,0.382c-0.296,0.889-1.012,1.398-1.964,1.398
		c-0.094,0-0.189-0.005-0.286-0.016c-0.089,0.366-0.164,0.707-0.234,1.058c-0.254,1.271,0.049,1.974,0.349,2.339
		c0.289,0.352,0.738,0.563,1.201,0.564c0.379,0,0.738-0.144,1.01-0.404c0.281-0.269,0.441-0.631,0.449-1.02
		C14,19.053,14,15.5,14,15.5c0-2.206,1.794-4,4-4s4,1.794,4,4v2c-0.01,2.655-1.448,5.12-3.752,6.434C18.173,23.977,18.087,24,18,24z
		"/>
</g>
</svg>
