<?xml version="1.0" encoding="utf-8"?>
<!-- Generator: Adobe Illustrator 22.1.0, SVG Export Plug-In . SVG Version: 6.00 Build 0)  -->
<svg version="1.1" id="Light" xmlns="http://www.w3.org/2000/svg" xmlns:xlink="http://www.w3.org/1999/xlink" x="0px" y="0px"
	 viewBox="0 0 24 24" style="enable-background:new 0 0 24 24;" xml:space="preserve">
<g>
	<title>amphibian-chameleon-2</title>
	<path d="M14.5,19.75c-1.654,0-3-1.346-3-3s1.346-3,3-3h4.317c-0.314-0.613-0.941-1.006-1.651-1.006
		c-0.044,0-0.088,0.001-0.133,0.005l-8.569,0.001c-0.191,1.491-1.212,1.869-1.673,1.964l-0.876,1.313
		C5.823,16.166,5.667,16.25,5.5,16.25c-0.099,0-0.194-0.029-0.277-0.084c-0.229-0.153-0.292-0.464-0.139-0.693l0.482-0.723H4.5
		c-0.276,0-0.5-0.224-0.5-0.5s0.224-0.5,0.5-0.5h2c0.135-0.002,0.784-0.062,0.956-1H5c-2.424,0-5-1.227-5-3.5
		c0-2.229,2.776-4.5,5.5-4.5c0.276,0,0.5,0.224,0.5,0.5s-0.224,0.5-0.5,0.5C3.355,5.75,1,7.581,1,9.25c0,1.624,2.061,2.5,4,2.5h12
		c0.049-0.004,0.114-0.006,0.179-0.006c1.412,0,2.596,1.021,2.815,2.429C19.998,14.199,20,14.224,20,14.25c0,1.654-1.346,3-3,3h-2
		c-0.276,0-0.5-0.224-0.5-0.5s0.224-0.5,0.5-0.5h2c0.925,0,1.714-0.628,1.937-1.5H14.5c-1.103,0-2,0.897-2,2s0.897,2,2,2h2
		c3.584,0,6.5-2.916,6.5-6.5c0-3.27-1.853-4.955-6.608-6.012c-1.284-0.256-2.605-0.417-3.921-0.474
		c-0.276-0.012-0.49-0.246-0.478-0.522c0.012-0.263,0.237-0.478,0.503-0.478c1.386,0.061,2.76,0.227,4.102,0.496
		C20.445,6.114,24,7.552,24,12.25c0,4.135-3.365,7.5-7.5,7.5H14.5z"/>
	<path d="M7.5,6.25c-0.216,0-0.406-0.137-0.474-0.342C6.983,5.781,6.993,5.646,7.053,5.526s0.162-0.208,0.289-0.251l3-1
		c0.051-0.017,0.105-0.026,0.159-0.026c0.215,0,0.406,0.137,0.474,0.342c0.042,0.127,0.033,0.262-0.027,0.382
		s-0.162,0.208-0.289,0.251l-3,1C7.607,6.241,7.554,6.25,7.5,6.25z"/>
	<path d="M7.5,7.75C7.224,7.75,7,7.525,7,7.25s0.224-0.5,0.5-0.5h3c0.276,0,0.5,0.224,0.5,0.5s-0.224,0.5-0.5,0.5H7.5z"/>
	<path d="M10.5,10.25c-0.054,0-0.107-0.009-0.158-0.026l-3-1C7.215,9.182,7.112,9.093,7.053,8.973S6.983,8.718,7.026,8.591
		c0.068-0.205,0.259-0.342,0.474-0.342c0.054,0,0.108,0.009,0.159,0.026l2.999,1c0.127,0.042,0.229,0.131,0.289,0.251
		s0.069,0.255,0.027,0.382C10.906,10.112,10.716,10.25,10.5,10.25z"/>
	<circle cx="4.25" cy="8" r="0.75"/>
</g>
</svg>
