<?xml version="1.0" encoding="utf-8"?>
<!-- Generator: Adobe Illustrator 22.1.0, SVG Export Plug-In . SVG Version: 6.00 Build 0)  -->
<svg version="1.1" id="Light" xmlns="http://www.w3.org/2000/svg" xmlns:xlink="http://www.w3.org/1999/xlink" x="0px" y="0px"
	 viewBox="0 0 24 24" style="enable-background:new 0 0 24 24;" xml:space="preserve">
<g>
	<title>amphibian-chameleon</title>
	<path d="M6.25,11C4.734,11,3.5,9.766,3.5,8.25S4.734,5.5,6.25,5.5S9,6.734,9,8.25S7.766,11,6.25,11z M6.25,6.5
		C5.285,6.5,4.5,7.285,4.5,8.25S5.285,10,6.25,10S8,9.215,8,8.25S7.215,6.5,6.25,6.5z"/>
	<circle cx="6.25" cy="8.25" r="0.75"/>
	<path d="M18.5,20.5c-1.939,0-2.937-0.757-3.433-1.393c-0.594-0.76-0.795-1.755-0.552-2.728c0.167-0.726,0.612-1.347,1.25-1.745
		c0.446-0.278,0.958-0.426,1.482-0.426c0.134,0,0.268,0.01,0.402,0.029c0.535-0.787,1.005-1.61,1.399-2.449
		c0.292-0.585,0.369-1.047,0.231-1.38c-0.131-0.315-0.439-0.434-0.442-0.435c-0.256-0.085-0.398-0.369-0.31-0.631
		C18.594,9.137,18.784,9,19,9c0.054,0,0.107,0.009,0.158,0.026c0.076,0.025,0.741,0.268,1.044,0.999
		c0.254,0.613,0.168,1.353-0.255,2.199c-0.37,0.79-0.813,1.578-1.317,2.342c0.282,0.157,0.532,0.36,0.747,0.606
		c0.74,0.738,0.63,1.708,0.21,2.291c-0.292,0.404-0.722,0.636-1.181,0.636c-0.217,0-0.428-0.051-0.629-0.151
		c-0.247-0.123-0.347-0.424-0.224-0.671C17.638,17.106,17.809,17,18,17c0.077,0,0.154,0.018,0.223,0.052
		c0.063,0.032,0.125,0.048,0.184,0.048c0.193,0,0.331-0.17,0.368-0.222c0.173-0.24,0.243-0.652-0.129-1.024
		c-0.219-0.25-0.476-0.425-0.774-0.532c-0.006,0-0.012,0-0.018,0c-0.1,0-0.197-0.03-0.28-0.086c-0.108-0.02-0.217-0.029-0.326-0.029
		c-0.337,0-0.667,0.095-0.955,0.275c-0.411,0.257-0.698,0.658-0.807,1.131c-0.17,0.679-0.035,1.363,0.368,1.879
		c0.515,0.66,1.43,1.008,2.645,1.008c2.949,0,4-3.358,4-6.5c0-3.378-1.135-7.508-6.545-8.002C15.476,4.932,15.001,4.9,14.533,4.9
		c-1.562,0-3.067,0.35-4.475,1.039C9.988,5.973,9.915,5.99,9.838,5.99c-0.193,0-0.365-0.107-0.449-0.28
		C9.268,5.463,9.37,5.162,9.618,5.041c1.546-0.758,3.2-1.142,4.915-1.142c0.51,0,1.027,0.035,1.536,0.105
		C19.452,4.313,23.5,6.125,23.5,13C23.5,17.626,21.584,20.5,18.5,20.5z"/>
	<path d="M1,16c-0.276,0-0.5-0.224-0.5-0.5S0.724,15,1,15h5.21l1.171-2.049c-0.455,0.104-1.043,0.189-1.755,0.189
		c-0.546,0-1.121-0.05-1.708-0.147c-1.241-0.182-2.374-0.749-3.27-1.638c-0.097-0.096-0.151-0.23-0.148-0.366
		c0.051-2.223,1.021-4.358,2.662-5.858c1.091-0.899,2.394-1.458,3.777-1.627C6.96,3.501,6.98,3.5,7,3.5
		c0.139,0,0.273,0.059,0.368,0.161c0.206,0.224,0.39,0.47,0.546,0.731C8.055,4.629,7.977,4.936,7.74,5.077
		C7.662,5.124,7.574,5.148,7.484,5.148c-0.175,0-0.34-0.094-0.43-0.244c-0.077-0.128-0.162-0.252-0.255-0.37
		C5.704,4.714,4.676,5.18,3.818,5.886C2.45,7.137,1.609,8.923,1.508,10.793c0.717,0.652,1.601,1.07,2.565,1.212
		c0.531,0.088,1.046,0.133,1.534,0.133c1.721,0,2.612-0.552,2.621-0.557C8.307,11.529,8.402,11.5,8.5,11.5
		c0.128,0,0.25,0.048,0.343,0.136c0.169,0.159,0.207,0.41,0.091,0.612L7.362,15H9c0.998,0,1.607-1.265,2.251-2.604l0.063-0.13
		c0.079-0.164,0.158-0.329,0.239-0.49c0.288-0.575,0.364-1.036,0.225-1.37c-0.131-0.315-0.439-0.433-0.442-0.435
		c-0.256-0.085-0.398-0.369-0.311-0.631C11.094,9.137,11.284,9,11.5,9c0.054,0,0.107,0.009,0.159,0.026
		c0.075,0.025,0.741,0.267,1.044,0.999c0.231,0.558,0.181,1.222-0.15,1.976H16c0.174,0,0.333,0.089,0.425,0.237
		c0.091,0.146,0.099,0.333,0.022,0.487l-0.5,1C15.862,13.894,15.69,14,15.5,14c-0.077,0-0.154-0.018-0.223-0.052
		c-0.247-0.124-0.348-0.425-0.224-0.671L15.191,13H12.07c-0.333,0.69-0.702,1.431-1.173,2H13c0.276,0,0.5,0.224,0.5,0.5
		S13.276,16,13,16H1z"/>
</g>
</svg>
