<?xml version="1.0" encoding="utf-8"?>
<!-- Generator: Adobe Illustrator 22.1.0, SVG Export Plug-In . SVG Version: 6.00 Build 0)  -->
<svg version="1.1" id="Light" xmlns="http://www.w3.org/2000/svg" xmlns:xlink="http://www.w3.org/1999/xlink" x="0px" y="0px"
	 viewBox="0 0 24 24" style="enable-background:new 0 0 24 24;" xml:space="preserve">
<g>
	<title>allowances-no-umbrellas</title>
	<path d="M20,14.01c-0.276,0-0.5-0.224-0.5-0.5c0-0.378-0.584-0.835-1.31-0.835c-0.016,0-0.031-0.001-0.047-0.002
		c-0.037-0.004-0.071-0.005-0.105-0.005c-0.515,0-0.946,0.386-1.003,0.897c-0.028,0.254-0.242,0.445-0.497,0.445
		c-0.009,0-0.031-0.001-0.04-0.002c-0.253-0.014-0.46-0.233-0.46-0.498c0-0.394-0.65-0.835-1.519-0.835c-0.276,0-0.5-0.224-0.5-0.5
		c0-0.276,0.224-0.5,0.5-0.5c0.793,0,1.526,0.261,1.993,0.697c0.38-0.441,0.94-0.705,1.528-0.705c0.061,0,0.123,0.003,0.185,0.009
		c0.416,0.001,0.833,0.103,1.196,0.288c-0.112-0.741-0.341-1.454-0.682-2.125c-0.85-1.672-2.299-2.913-4.082-3.494
		c-0.689-0.225-1.405-0.342-2.128-0.347C12.519,5.999,12.509,6,12.5,6c-0.01,0-0.021-0.001-0.031-0.002
		C11.356,6,10.293,6.257,9.3,6.762C9.23,6.797,9.152,6.816,9.073,6.816l0,0c-0.189,0-0.36-0.105-0.446-0.273
		C8.502,6.297,8.601,5.995,8.846,5.87C9.843,5.364,10.903,5.075,12,5.01V4c0-0.276,0.224-0.5,0.5-0.5C12.776,3.5,13,3.724,13,4
		v1.015c0.669,0.044,1.33,0.172,1.967,0.38c2.037,0.664,3.693,2.082,4.664,3.992c0.596,1.172,0.896,2.486,0.869,3.8v0.324
		C20.5,13.786,20.276,14.01,20,14.01z"/>
	<path d="M8.462,14.01c-0.251,0-0.465-0.188-0.497-0.436c-0.068-0.526-0.499-0.907-1.025-0.907c-0.036,0-0.073,0.002-0.109,0.006
		c-0.02,0.002-0.035,0.002-0.051,0.002c-0.67,0-1.28,0.398-1.28,0.835c0,0.276-0.224,0.5-0.5,0.5s-0.5-0.224-0.5-0.5v-0.334
		c-0.007-1.567,0.424-3.102,1.247-4.438C5.839,8.589,5.998,8.5,6.173,8.5c0.092,0,0.183,0.026,0.262,0.074
		C6.67,8.719,6.743,9.028,6.599,9.262C6.094,10.081,5.752,11,5.597,11.949c0.352-0.175,0.757-0.272,1.17-0.274
		c0.043-0.005,0.109-0.008,0.173-0.008c0.594,0,1.158,0.263,1.54,0.704c0.137-0.133,0.296-0.243,0.471-0.324
		C9.017,12.016,9.088,12,9.161,12c0.194,0,0.372,0.114,0.454,0.29c0.116,0.25,0.007,0.547-0.243,0.664
		c-0.235,0.109-0.393,0.337-0.412,0.595c-0.02,0.256-0.228,0.455-0.485,0.462C8.472,14.01,8.464,14.01,8.462,14.01z"/>
	<path d="M11,21c-1.103,0-2-0.897-2-2v-0.5C9,18.224,9.224,18,9.5,18s0.5,0.224,0.5,0.5V19c0,0.552,0.449,1,1,1s1-0.448,1-1v-3
		c0-0.276,0.224-0.5,0.5-0.5c0.276,0,0.5,0.224,0.5,0.5v3C13,20.103,12.103,21,11,21z"/>
	<path d="M12,24C5.383,24,0,18.617,0,12c0-3.036,1.142-5.934,3.217-8.164c0.01-0.018,0.027-0.042,0.052-0.067
		C3.279,3.758,3.299,3.742,3.317,3.73C5.609,1.324,8.691,0,12,0c6.617,0,12,5.383,12,12c0,3.308-1.324,6.39-3.728,8.681
		c-0.008,0.012-0.021,0.031-0.041,0.05c-0.025,0.025-0.049,0.041-0.067,0.052C17.935,22.858,15.036,24,12,24z M3.646,4.853
		C1.938,6.847,1,9.375,1,12c0,6.065,4.935,11,11,11c2.625,0,5.153-0.938,7.147-2.646L3.646,4.853z M19.876,19.669
		C21.892,17.601,23,14.887,23,12c0-6.065-4.935-11-11-11C9.113,1,6.399,2.108,4.331,4.124L19.876,19.669z"/>
</g>
</svg>
