<?xml version="1.0" encoding="utf-8"?>
<!-- Generator: Adobe Illustrator 22.1.0, SVG Export Plug-In . SVG Version: 6.00 Build 0)  -->
<svg version="1.1" id="Light" xmlns="http://www.w3.org/2000/svg" xmlns:xlink="http://www.w3.org/1999/xlink" x="0px" y="0px"
	 viewBox="0 0 24 24" style="enable-background:new 0 0 24 24;" xml:space="preserve">
<g>
	<title>allowances-silence</title>
	<path d="M16.808,21.855c-0.276,0-0.5-0.224-0.5-0.5V18h-0.892c-1.712,0-3.102-1.386-3.108-3.089V12h-1.809
		c-0.106,0-0.211-0.017-0.312-0.05c-0.524-0.172-0.81-0.738-0.639-1.262l0.042-0.128C11.374,5.13,13.058,0,20.308,0
		c0.897,0.013,1.786,0.142,2.644,0.384C23.218,0.458,23.373,0.735,23.299,1c-0.06,0.215-0.258,0.365-0.481,0.365l0,0
		c-0.046,0-0.091-0.006-0.135-0.019C21.907,1.128,21.106,1.012,20.301,1c-6.519,0-8.021,4.575-9.76,9.872L10.499,11h2.309
		c0.276,0,0.5,0.224,0.5,0.5v3.409c0.004,1.153,0.946,2.091,2.1,2.091h0.9c0.552,0,1,0.448,1,1v3.355
		C17.308,21.631,17.084,21.855,16.808,21.855z"/>
	<path d="M11.177,24c-0.227,0-0.426-0.153-0.483-0.373L8.12,13.86c-0.077-0.262-0.329-0.449-0.612-0.449
		c-0.061,0-0.121,0.009-0.18,0.026C7,13.533,6.804,13.868,6.882,14.2l0.995,3.781c0.008,0.016,0.017,0.038,0.023,0.061l0.436,1.662
		c0.051,0.196-0.02,0.401-0.181,0.524c-0.05,0.041-0.113,0.073-0.181,0.091c-0.042,0.011-0.084,0.016-0.127,0.016
		c-0.227,0-0.426-0.153-0.483-0.373l-0.453-1.723c-0.047-0.134-0.145-0.255-0.277-0.331c-0.098-0.057-0.209-0.087-0.321-0.087
		c-0.056,0-0.112,0.007-0.167,0.022c-0.168,0.045-0.309,0.151-0.395,0.3c-0.086,0.149-0.109,0.322-0.065,0.488l0.131,0.496
		c0.008,0.023,0.014,0.041,0.019,0.059c0.003,0.012,0.005,0.026,0.007,0.04l0.428,1.614c0.07,0.266-0.089,0.541-0.355,0.611
		c-0.042,0.011-0.085,0.017-0.128,0.017c-0.227,0-0.425-0.153-0.483-0.372l-0.446-1.685c-0.079-0.261-0.331-0.449-0.61-0.449
		c-0.054,0-0.109,0.007-0.163,0.021c-0.171,0.046-0.307,0.15-0.394,0.3c-0.086,0.148-0.108,0.321-0.064,0.486l0.581,2.202
		c0.07,0.266-0.089,0.541-0.355,0.611C3.812,22.594,3.769,22.6,3.726,22.6c-0.227,0-0.425-0.153-0.483-0.372l-0.291-1.1
		c-0.045-0.155-0.154-0.288-0.304-0.371c-0.095-0.052-0.201-0.08-0.307-0.08c-0.061,0-0.122,0.009-0.181,0.026
		c-0.328,0.096-0.523,0.431-0.446,0.763l0.503,1.905c0.034,0.129,0.016,0.264-0.051,0.379s-0.175,0.198-0.305,0.232
		C1.819,23.994,1.776,24,1.733,24c-0.227,0-0.426-0.153-0.483-0.373l-0.506-1.919c-0.202-0.86,0.297-1.719,1.135-1.964
		c0.147-0.043,0.299-0.065,0.451-0.065c0.094,0,0.187,0.008,0.279,0.024c-0.02-0.318,0.054-0.636,0.217-0.919
		c0.219-0.38,0.573-0.652,0.996-0.765c0.14-0.036,0.281-0.055,0.422-0.055c0.163,0,0.325,0.024,0.481,0.072
		c0.036-0.139,0.09-0.271,0.161-0.394c0.22-0.38,0.575-0.651,0.999-0.764c0.136-0.036,0.277-0.055,0.417-0.055
		c0.081,0,0.162,0.006,0.241,0.018l-0.631-2.4c-0.202-0.859,0.298-1.719,1.135-1.964c0.15-0.044,0.305-0.066,0.46-0.066
		c0.725,0,1.373,0.486,1.577,1.181l2.577,9.78c0.034,0.129,0.016,0.264-0.051,0.379s-0.175,0.198-0.305,0.232
		C11.263,23.994,11.22,24,11.177,24z"/>
</g>
</svg>
