<?xml version="1.0" encoding="utf-8"?>
<!-- Generator: Adobe Illustrator 22.1.0, SVG Export Plug-In . SVG Version: 6.00 Build 0)  -->
<svg version="1.1" id="Light" xmlns="http://www.w3.org/2000/svg" xmlns:xlink="http://www.w3.org/1999/xlink" x="0px" y="0px"
	 viewBox="0 0 24 24" style="enable-background:new 0 0 24 24;" xml:space="preserve">
<g>
	<title>allowances-no-boots</title>
	<path d="M7.021,19c-1.284,0-2.063-1.271-2.245-2.453c-0.001-0.003-0.002-0.01-0.002-0.01c-0.029-0.196-0.044-0.389-0.044-0.573
		c0-0.913,0.313-1.752,0.881-2.363c0.67-0.72,1.669-1.1,2.888-1.1c0.099,0.004,0.188,0.006,0.276,0.006
		c0.225,0,0.451-0.012,0.671-0.036c0.018-0.002,0.036-0.003,0.053-0.003c0.257,0,0.471,0.192,0.498,0.447
		c0.014,0.132-0.024,0.263-0.108,0.367s-0.203,0.169-0.336,0.183c-0.255,0.028-0.517,0.042-0.777,0.042
		c-0.099,0-0.198-0.002-0.296-0.006c-0.931,0-1.653,0.263-2.136,0.782c-0.396,0.425-0.613,1.022-0.613,1.682
		c0,0.012,0,0.024,0,0.036H13c0.276,0,0.5,0.224,0.5,0.5S13.276,17,13,17H5.92c0.197,0.512,0.567,1,1.101,1H14.5
		c0.276,0,0.5,0.224,0.5,0.5S14.776,19,14.5,19H7.021z"/>
	<path d="M17.5,15.5c-0.276,0-0.5-0.224-0.5-0.5V8h-5v1.003c0,0.276-0.224,0.5-0.5,0.5S11,9.279,11,9.003V7.914
		C10.41,7.705,10,7.14,10,6.5v-1C10,4.673,10.673,4,11.5,4h6C18.327,4,19,4.673,19,5.5v1c0,0.64-0.41,1.205-1,1.414V15
		C18,15.276,17.776,15.5,17.5,15.5z M11.5,5C11.224,5,11,5.224,11,5.5v1C11,6.776,11.224,7,11.5,7h6C17.776,7,18,6.776,18,6.5v-1
		C18,5.224,17.776,5,17.5,5H11.5z"/>
	<path d="M12,24C5.383,24,0,18.617,0,12c0-3.036,1.142-5.934,3.217-8.164c0.01-0.018,0.027-0.042,0.052-0.067
		C3.279,3.758,3.299,3.742,3.317,3.73C5.609,1.324,8.691,0,12,0c6.617,0,12,5.383,12,12c0,3.308-1.324,6.39-3.728,8.681
		c-0.008,0.012-0.021,0.031-0.041,0.05c-0.025,0.025-0.049,0.041-0.067,0.052C17.935,22.858,15.036,24,12,24z M3.646,4.853
		C1.938,6.847,1,9.375,1,12c0,6.065,4.935,11,11,11c2.625,0,5.153-0.938,7.147-2.646L3.646,4.853z M19.876,19.669
		C21.892,17.601,23,14.887,23,12c0-6.065-4.935-11-11-11C9.113,1,6.399,2.108,4.331,4.124L19.876,19.669z"/>
</g>
</svg>
