<?xml version="1.0" encoding="utf-8"?>
<!-- Generator: Adobe Illustrator 22.1.0, SVG Export Plug-In . SVG Version: 6.00 Build 0)  -->
<svg version="1.1" id="Light" xmlns="http://www.w3.org/2000/svg" xmlns:xlink="http://www.w3.org/1999/xlink" x="0px" y="0px"
	 viewBox="0 0 24 24" style="enable-background:new 0 0 24 24;" xml:space="preserve">
<g>
	<title>allowances-no-skates</title>
	<path d="M12,24C5.383,24,0,18.617,0,12c0-3.036,1.142-5.934,3.217-8.164c0.01-0.018,0.027-0.042,0.052-0.067
		C3.279,3.758,3.299,3.742,3.317,3.73C5.609,1.324,8.691,0,12,0c6.617,0,12,5.383,12,12c0,3.308-1.324,6.39-3.728,8.681
		c-0.008,0.012-0.021,0.031-0.041,0.05c-0.025,0.025-0.049,0.041-0.067,0.052C17.935,22.858,15.036,24,12,24z M3.646,4.853
		C1.938,6.847,1,9.375,1,12c0,6.065,4.935,11,11,11c2.625,0,5.153-0.938,7.147-2.646L3.646,4.853z M19.876,19.669
		C21.892,17.601,23,14.887,23,12c0-6.065-4.935-11-11-11C9.113,1,6.399,2.108,4.331,4.124L19.876,19.669z"/>
	<path d="M8,16c-0.817,0-1.475-0.639-1.5-1.455c-0.033-0.799,0.228-1.583,0.735-2.206c0.228-0.292,0.505-0.548,0.821-0.757
		C8.139,11.528,8.234,11.5,8.332,11.5c0.169,0,0.325,0.084,0.418,0.224c0.152,0.23,0.088,0.541-0.142,0.693
		c-0.225,0.148-0.424,0.332-0.59,0.545c-0.358,0.44-0.541,0.988-0.518,1.546C7.508,14.786,7.727,15,8,15h3.146
		c0.276,0,0.5,0.224,0.5,0.5s-0.224,0.5-0.5,0.5H8z"/>
	<path d="M16.653,15c-0.27,0-0.489-0.211-0.499-0.481c-0.029-0.734-0.241-1.456-0.614-2.088c-0.163-0.286-0.229-0.617-0.188-0.937
		l0.8-6.369c0-0.039-0.012-0.068-0.034-0.091C16.094,5.012,16.065,5,16.033,5h-4.799c-0.044,0.004-0.071,0.019-0.091,0.043
		c-0.02,0.025-0.029,0.054-0.026,0.086L11.199,6H13.5C13.776,6,14,6.224,14,6.5v2C14,8.776,13.776,9,13.5,9h-2.021
		c0,0.255-0.194,0.473-0.453,0.498C11.018,9.499,10.988,9.5,10.98,9.5c-0.26,0-0.475-0.195-0.499-0.453l-0.359-3.82
		c-0.03-0.293,0.057-0.583,0.245-0.815c0.189-0.232,0.456-0.376,0.753-0.406C11.159,4.002,11.196,4,11.234,4h4.8
		c0.299,0,0.58,0.117,0.791,0.329c0.211,0.211,0.327,0.492,0.326,0.791c0,0.042-0.002,0.084-0.007,0.127l-0.801,6.372
		c-0.013,0.107,0.008,0.217,0.062,0.311c0.454,0.768,0.713,1.652,0.748,2.551c0.005,0.134-0.042,0.261-0.133,0.359
		c-0.091,0.098-0.214,0.155-0.347,0.16C16.669,15,16.656,15,16.653,15z M13,8V7h-1.707l0.094,1H13z"/>
	<path d="M8,19.5c-0.827,0-1.5-0.673-1.5-1.5s0.673-1.5,1.5-1.5s1.5,0.673,1.5,1.5S8.827,19.5,8,19.5z M8,17.5
		c-0.276,0-0.5,0.224-0.5,0.5s0.224,0.5,0.5,0.5s0.5-0.224,0.5-0.5S8.276,17.5,8,17.5z"/>
	<path d="M12,19.5c-0.827,0-1.5-0.673-1.5-1.5s0.673-1.5,1.5-1.5s1.5,0.673,1.5,1.5S12.827,19.5,12,19.5z M12,17.5
		c-0.276,0-0.5,0.224-0.5,0.5s0.224,0.5,0.5,0.5c0.276,0,0.5-0.224,0.5-0.5S12.276,17.5,12,17.5z"/>
	<path d="M16,19.5c-0.827,0-1.5-0.673-1.5-1.5c0-0.276,0.224-0.5,0.5-0.5s0.5,0.224,0.5,0.5s0.224,0.5,0.5,0.5s0.5,0.224,0.5,0.5
		S16.276,19.5,16,19.5z"/>
</g>
</svg>
