<?xml version="1.0" encoding="utf-8"?>
<!-- Generator: Adobe Illustrator 22.1.0, SVG Export Plug-In . SVG Version: 6.00 Build 0)  -->
<svg version="1.1" id="Layer_1" xmlns="http://www.w3.org/2000/svg" xmlns:xlink="http://www.w3.org/1999/xlink" x="0px" y="0px"
	 viewBox="0 0 24 24" style="enable-background:new 0 0 24 24;" xml:space="preserve">
<g>
	<title>compass-north</title>
	<path d="M6.803,10.668c-0.382,0-0.736-0.222-0.902-0.565c-0.152-0.314-0.13-0.677,0.057-0.972l5.19-8.428
		c0.14-0.227,0.36-0.387,0.62-0.449c0.077-0.018,0.155-0.028,0.234-0.028c0.183,0,0.364,0.051,0.522,0.148
		c0.133,0.082,0.247,0.196,0.329,0.329l5.194,8.434c0.289,0.471,0.141,1.088-0.329,1.376c-0.158,0.097-0.339,0.148-0.523,0.148
		c-0.148,0-0.292-0.032-0.426-0.095L12,8.325L7.233,10.57C7.099,10.635,6.954,10.668,6.803,10.668z M11.999,1.227L6.806,9.662
		C6.814,9.658,6.82,9.659,6.828,9.657l4.959-2.337c0.067-0.031,0.14-0.048,0.213-0.048c0.073,0,0.147,0.016,0.213,0.048l4.981,2.341
		L12,1.226L11.999,1.227z"/>
	<path d="M12,23.773c-3.584,0-6.5-2.916-6.5-6.5s2.916-6.5,6.5-6.5c3.584,0,6.5,2.916,6.5,6.5S15.584,23.773,12,23.773z M12,11.773
		c-3.033,0-5.5,2.467-5.5,5.5s2.467,5.5,5.5,5.5s5.5-2.467,5.5-5.5S15.033,11.773,12,11.773z"/>
	<path d="M13.5,20.773c-0.191,0-0.362-0.106-0.447-0.277L11,16.391v3.882c0,0.276-0.224,0.5-0.5,0.5s-0.5-0.224-0.5-0.5v-6
		c0-0.233,0.158-0.433,0.385-0.487c0.04-0.009,0.077-0.013,0.115-0.013c0.191,0,0.363,0.106,0.448,0.276L13,18.154v-3.882
		c0-0.276,0.224-0.5,0.5-0.5s0.5,0.224,0.5,0.5v6c0,0.233-0.158,0.433-0.385,0.487C13.576,20.768,13.538,20.773,13.5,20.773z"/>
</g>
</svg>
