<?xml version="1.0" encoding="utf-8"?>
<!-- Generator: Adobe Illustrator 22.1.0, SVG Export Plug-In . SVG Version: 6.00 Build 0)  -->
<svg version="1.1" id="Layer_1" xmlns="http://www.w3.org/2000/svg" xmlns:xlink="http://www.w3.org/1999/xlink" x="0px" y="0px"
	 viewBox="0 0 24 24" style="enable-background:new 0 0 24 24;" xml:space="preserve">
<g>
	<title>compass-direction</title>
	<path d="M12,24C5.383,24,0,18.617,0,12C0,5.383,5.383,0,12,0c6.617,0,12,5.383,12,12C24,18.617,18.617,24,12,24z M12,1
		C5.935,1,1,5.935,1,12s4.935,11,11,11s11-4.935,11-11S18.065,1,12,1z"/>
	<path d="M11.041,19.446c-0.136,0-0.272-0.034-0.394-0.097c-0.281-0.147-0.455-0.435-0.455-0.752v-4.788H5.4
		c-0.469-0.001-0.85-0.383-0.849-0.852c0-0.316,0.175-0.604,0.456-0.751l11.752-6.11c0.121-0.063,0.256-0.096,0.391-0.096
		c0.087,0,0.173,0.013,0.257,0.04c0.216,0.068,0.393,0.217,0.498,0.418c0.128,0.245,0.128,0.539,0,0.784L11.795,18.99
		C11.647,19.271,11.359,19.446,11.041,19.446z M10.342,12.808c0.469,0,0.85,0.381,0.85,0.85v4.324l5.606-10.781L6.014,12.808H10.342
		z"/>
</g>
</svg>
