<?xml version="1.0" encoding="utf-8"?>
<!-- Generator: Adobe Illustrator 22.1.0, SVG Export Plug-In . SVG Version: 6.00 Build 0)  -->
<svg version="1.1" id="Layer_1" xmlns="http://www.w3.org/2000/svg" xmlns:xlink="http://www.w3.org/1999/xlink" x="0px" y="0px"
	 viewBox="0 0 24 24" style="enable-background:new 0 0 24 24;" xml:space="preserve">
<g>
	<title>compass-directions</title>
	<path d="M12,24C5.383,24,0,18.617,0,12C0,5.383,5.383,0,12,0c6.617,0,12,5.383,12,12C24,18.617,18.617,24,12,24z M12,1
		C5.935,1,1,5.935,1,12s4.935,11,11,11s11-4.935,11-11S18.065,1,12,1z"/>
	<path d="M6.919,18.081c-0.131,0-0.26-0.026-0.382-0.076c-0.246-0.102-0.438-0.294-0.541-0.541s-0.103-0.519-0.001-0.765L9.038,9.31
		C9.04,9.304,9.043,9.298,9.046,9.292C9.061,9.255,9.091,9.21,9.131,9.165c0.004-0.005,0.022-0.023,0.026-0.027
		c0.038-0.036,0.08-0.065,0.125-0.087C9.288,9.048,9.294,9.045,9.3,9.042l7.399-3.047c0.122-0.05,0.25-0.075,0.38-0.075
		c0.407,0,0.77,0.243,0.925,0.618c0.102,0.246,0.102,0.517,0,0.764l-3.042,7.389c-0.003,0.008-0.008,0.017-0.012,0.026
		c-0.018,0.038-0.04,0.073-0.065,0.104c-0.005,0.005-0.01,0.011-0.016,0.017c-0.026,0.029-0.055,0.053-0.086,0.074
		c-0.008,0.005-0.028,0.017-0.037,0.022c-0.006,0.003-0.047,0.026-0.053,0.028L7.3,18.005C7.178,18.056,7.05,18.081,6.919,18.081z
		 M6.919,17.08l6.697-2.757l-3.939-3.939L6.919,17.08z M14.323,13.616l2.757-6.697l-6.697,2.757L14.323,13.616z"/>
</g>
</svg>
