<?xml version="1.0" encoding="utf-8"?>
<!-- Generator: Adobe Illustrator 22.1.0, SVG Export Plug-In . SVG Version: 6.00 Build 0)  -->
<svg version="1.1" id="Layer_1" xmlns="http://www.w3.org/2000/svg" xmlns:xlink="http://www.w3.org/1999/xlink" x="0px" y="0px"
	 viewBox="0 0 24 24" style="enable-background:new 0 0 24 24;" xml:space="preserve">
<g>
	<title>compass-south</title>
	<path d="M11.968,23.776c-0.185,0-0.367-0.052-0.526-0.151c-0.13-0.08-0.242-0.192-0.323-0.323l-5.187-8.378
		c-0.293-0.463-0.153-1.081,0.313-1.375c0.16-0.101,0.345-0.154,0.536-0.154c0.153,0,0.305,0.035,0.44,0.102l4.753,2.239
		l4.755-2.242c0.135-0.064,0.279-0.097,0.428-0.097c0.114,0,0.227,0.02,0.336,0.058c0.252,0.09,0.454,0.272,0.568,0.513
		c0.147,0.309,0.127,0.667-0.054,0.958l-5.186,8.377c-0.141,0.228-0.362,0.386-0.622,0.447
		C12.121,23.766,12.044,23.776,11.968,23.776z M11.969,22.775l5.187-8.378l-4.968,2.342c-0.066,0.031-0.14,0.048-0.213,0.048
		c-0.073,0-0.146-0.016-0.213-0.047l-4.983-2.346L11.969,22.775z"/>
	<path d="M12,13.225c-3.584,0-6.5-2.916-6.5-6.5s2.916-6.5,6.5-6.5c3.584,0,6.5,2.916,6.5,6.5S15.584,13.225,12,13.225z M12,1.225
		c-3.033,0-5.5,2.467-5.5,5.5s2.467,5.5,5.5,5.5s5.5-2.467,5.5-5.5S15.033,1.225,12,1.225z"/>
	<path d="M10.463,10.225c-0.276,0-0.5-0.224-0.5-0.5s0.224-0.5,0.5-0.5h1.7c0.28,0,0.531-0.135,0.679-0.361
		C12.959,8.686,13,8.472,12.956,8.263c-0.043-0.209-0.166-0.389-0.344-0.506l-1.843-1.228c-0.511-0.335-0.814-0.902-0.81-1.517
		c0.008-0.985,0.815-1.786,1.8-1.786h1.71c0.276,0,0.5,0.224,0.5,0.5s-0.224,0.5-0.5,0.5h-1.7c-0.444,0-0.807,0.356-0.81,0.794
		c-0.002,0.273,0.133,0.525,0.361,0.675l1.843,1.228c0.4,0.262,0.674,0.666,0.772,1.137c0.098,0.471,0.006,0.951-0.258,1.353
		c-0.334,0.509-0.896,0.813-1.505,0.813H10.463z"/>
</g>
</svg>
