<?xml version="1.0" encoding="utf-8"?>
<!-- Generator: Adobe Illustrator 22.1.0, SVG Export Plug-In . SVG Version: 6.00 Build 0)  -->
<svg version="1.1" id="Layer_1" xmlns="http://www.w3.org/2000/svg" xmlns:xlink="http://www.w3.org/1999/xlink" x="0px" y="0px"
	 viewBox="0 0 24 24" style="enable-background:new 0 0 24 24;" xml:space="preserve">
<g>
	<title>compass-south-1</title>
	<path d="M11.956,23.88c-0.267-0.012-0.514-0.127-0.694-0.324l-4.363-4.76c-0.17-0.185-0.263-0.426-0.263-0.677
		c0-0.267,0.104-0.518,0.294-0.707c0.188-0.188,0.439-0.292,0.706-0.292h8.727c0.252,0,0.491,0.093,0.676,0.263
		c0.197,0.181,0.312,0.427,0.323,0.694c0.012,0.266-0.082,0.522-0.262,0.719l-4.363,4.76c-0.019,0.021-0.041,0.043-0.063,0.063
		c-0.184,0.168-0.423,0.261-0.674,0.261L11.956,23.88z M7.636,18.12L12,22.88l4.364-4.76H7.636z"/>
	<path d="M12,15.12c-4.135,0-7.5-3.365-7.5-7.5c0-4.135,3.365-7.5,7.5-7.5s7.5,3.365,7.5,7.5C19.5,11.756,16.135,15.12,12,15.12z
		 M12,1.12c-3.584,0-6.5,2.916-6.5,6.5c0,3.584,2.916,6.5,6.5,6.5c3.584,0,6.5-2.916,6.5-6.5C18.5,4.036,15.584,1.12,12,1.12z"/>
	<path d="M12,11.62c-2.206,0-4-1.794-4-4s1.794-4,4-4s4,1.794,4,4S14.206,11.62,12,11.62z M12,4.62c-1.654,0-3,1.346-3,3
		s1.346,3,3,3c1.654,0,3-1.346,3-3S13.654,4.62,12,4.62z"/>
</g>
</svg>
