<?xml version="1.0" encoding="utf-8"?>
<!-- Generator: Adobe Illustrator 22.1.0, SVG Export Plug-In . SVG Version: 6.00 Build 0)  -->
<svg version="1.1" id="Layer_1" xmlns="http://www.w3.org/2000/svg" xmlns:xlink="http://www.w3.org/1999/xlink" x="0px" y="0px"
	 viewBox="0 0 24 24" style="enable-background:new 0 0 24 24;" xml:space="preserve">
<g>
	<title>compass</title>
	<path d="M12,24C5.383,24,0,18.617,0,12C0,5.383,5.383,0,12,0c6.617,0,12,5.383,12,12C24,18.617,18.617,24,12,24z M12,1
		C5.935,1,1,5.935,1,12s4.935,11,11,11s11-4.935,11-11S18.065,1,12,1z"/>
	<path d="M11.995,22.638c-0.089,0-0.178-0.012-0.265-0.036c-0.338-0.093-0.605-0.361-0.698-0.698l-1.783-6.445l-1.894,1.894
		C7.26,17.448,7.135,17.5,7.001,17.5s-0.259-0.052-0.354-0.146c-0.195-0.195-0.195-0.512,0-0.707l1.896-1.896l-6.442-1.786
		c-0.257-0.071-0.471-0.238-0.603-0.47c-0.132-0.232-0.165-0.502-0.094-0.76c0.093-0.337,0.36-0.605,0.698-0.698l6.439-1.789
		L6.647,7.354c-0.195-0.195-0.195-0.512,0-0.707C6.742,6.552,6.867,6.5,7.001,6.5S7.26,6.552,7.354,6.646L9.248,8.54L11.035,2.1
		c0.071-0.257,0.238-0.471,0.47-0.603c0.151-0.085,0.321-0.131,0.492-0.131c0.09,0,0.18,0.012,0.267,0.036
		c0.337,0.093,0.605,0.36,0.698,0.698l1.79,6.44l1.895-1.895c0.094-0.094,0.22-0.146,0.354-0.146s0.259,0.052,0.354,0.146
		S17.501,6.866,17.501,7s-0.052,0.259-0.146,0.354L15.46,9.248l6.438,1.789c0.256,0.071,0.471,0.238,0.603,0.47
		c0.132,0.232,0.165,0.502,0.094,0.76c-0.093,0.338-0.361,0.605-0.699,0.698l-6.436,1.789l1.893,1.894
		c0.094,0.094,0.146,0.22,0.146,0.354s-0.052,0.259-0.146,0.354s-0.22,0.146-0.354,0.146s-0.259-0.052-0.354-0.146l-1.896-1.897
		l-1.792,6.448C12.84,22.336,12.444,22.638,11.995,22.638z M9.826,9.878C9.793,9.906,9.755,9.93,9.714,9.95
		C9.697,9.958,9.681,9.964,9.665,9.97C9.651,9.977,9.648,9.978,9.634,9.982L2.369,12l6.718,1.863
		c0.507,0.139,0.909,0.542,1.049,1.05l1.861,6.725l1.868-6.722c0.139-0.507,0.542-0.909,1.05-1.049L21.631,12l-7.265-2.019
		c-0.014-0.004-0.038-0.013-0.051-0.019l-0.02-0.009c-0.111-0.05-0.201-0.14-0.251-0.254c-0.002-0.004-0.008-0.02-0.01-0.024
		c-0.003-0.006-0.01-0.023-0.015-0.041l-2.019-7.268L9.982,9.634C9.979,9.645,9.973,9.659,9.968,9.672
		c-0.006,0.015-0.012,0.03-0.019,0.044C9.93,9.755,9.908,9.79,9.882,9.82C9.874,9.832,9.864,9.844,9.854,9.854
		C9.846,9.862,9.836,9.87,9.826,9.878z"/>
	<path d="M12.001,14c-1.103,0-2-0.897-2-2s0.897-2,2-2s2,0.897,2,2S13.104,14,12.001,14z M12.001,11c-0.551,0-1,0.449-1,1
		c0,0.552,0.449,1,1,1c0.552,0,1-0.448,1-1C13.001,11.449,12.552,11,12.001,11z"/>
</g>
</svg>
