<?xml version="1.0" encoding="utf-8"?>
<!-- Generator: Adobe Illustrator 22.1.0, SVG Export Plug-In . SVG Version: 6.00 Build 0)  -->
<svg version="1.1" id="Layer_1" xmlns="http://www.w3.org/2000/svg" xmlns:xlink="http://www.w3.org/1999/xlink" x="0px" y="0px"
	 viewBox="0 0 24 24" style="enable-background:new 0 0 24 24;" xml:space="preserve">
<g>
	<title>social-video-vimeo</title>
	<path d="M11.246,22.507c-0.278,0-0.56-0.04-0.839-0.118c-1.405-0.394-2.463-1.695-2.941-2.69c-0.392-0.813-1.106-3.144-1.861-5.61
		c-0.679-2.218-1.706-5.57-1.985-5.901C3.592,8.156,3.529,8.149,3.481,8.149c-0.44,0-1.281,0.507-1.738,0.867
		c-0.088,0.069-0.198,0.107-0.31,0.107c-0.021,0-0.041-0.001-0.062-0.004C1.239,9.103,1.117,9.032,1.036,8.927L0.103,7.702
		c-0.143-0.187-0.137-0.444,0.014-0.624c0.164-0.196,4.061-4.814,7.176-5.427c0.195-0.038,0.385-0.057,0.568-0.057
		c0.493,0,0.941,0.137,1.332,0.409c1.386,0.961,1.785,3.364,2.171,5.687c0.134,0.809,0.261,1.569,0.422,2.213
		c0.271,1.085,0.984,3.941,1.397,4.229c0.115-0.048,0.944-0.49,2.756-3.876c0.578-1.08,0.614-2.185,0.087-2.686
		c-0.182-0.173-0.423-0.262-0.715-0.262c-0.39,0-0.861,0.159-1.36,0.458c-0.078,0.047-0.167,0.071-0.257,0.071
		c-0.101,0-0.198-0.03-0.282-0.087c-0.16-0.109-0.244-0.304-0.211-0.495c0.486-2.918,2.678-4.705,4.567-5.405
		c0.736-0.273,1.475-0.411,2.196-0.411c1.077,0,2.015,0.308,2.713,0.891c0.796,0.665,1.652,1.988,1.203,4.512
		c-1.344,7.568-8.897,13.837-10.846,15.101C12.457,22.317,11.855,22.507,11.246,22.507z M3.494,7.155
		c0.373,0,0.672,0.13,0.889,0.388c0.371,0.44,0.977,2.334,2.177,6.253c0.712,2.323,1.447,4.725,1.806,5.47
		c0.419,0.871,1.296,1.876,2.31,2.161c0.188,0.053,0.378,0.079,0.564,0.079c0.419,0,0.839-0.135,1.249-0.401
		c1.872-1.215,9.125-7.225,10.406-14.437c0.289-1.624-0.009-2.859-0.86-3.57c-0.517-0.432-1.232-0.66-2.068-0.66
		c-0.593,0-1.234,0.121-1.852,0.35c-1.367,0.507-2.995,1.723-3.679,3.662c0.306-0.095,0.601-0.143,0.881-0.143
		c0.544,0,1.028,0.186,1.398,0.539c0.865,0.823,0.907,2.384,0.105,3.882c-2.359,4.409-3.332,4.409-3.652,4.409
		c-1.006,0-1.467-1.445-2.353-4.992c-0.171-0.683-0.301-1.465-0.438-2.292c-0.336-2.02-0.716-4.309-1.754-5.029
		C8.399,2.669,8.151,2.594,7.864,2.594c-0.118,0-0.246,0.013-0.378,0.039C5.137,3.094,2.031,6.424,1.146,7.42l0.391,0.513
		C2.041,7.594,2.824,7.155,3.494,7.155z"/>
</g>
</svg>
