<?xml version="1.0" encoding="utf-8"?>
<!-- Generator: Adobe Illustrator 22.1.0, SVG Export Plug-In . SVG Version: 6.00 Build 0)  -->
<svg version="1.1" id="Layer_1" xmlns="http://www.w3.org/2000/svg" xmlns:xlink="http://www.w3.org/1999/xlink" x="0px" y="0px"
	 viewBox="0 0 24 24" style="enable-background:new 0 0 24 24;" xml:space="preserve">
<g>
	<title>social-video-mubi</title>
	<path d="M20.5,7.5C18.57,7.5,17,5.93,17,4s1.57-3.5,3.5-3.5S24,2.07,24,4S22.43,7.5,20.5,7.5z M20.5,1.5C19.122,1.5,18,2.621,18,4
		s1.122,2.5,2.5,2.5S23,5.379,23,4S21.878,1.5,20.5,1.5z"/>
	<path d="M20.5,15.5c-1.93,0-3.5-1.57-3.5-3.5s1.57-3.5,3.5-3.5S24,10.07,24,12S22.43,15.5,20.5,15.5z M20.5,9.5
		c-1.378,0-2.5,1.121-2.5,2.5c0,1.378,1.122,2.5,2.5,2.5S23,13.378,23,12C23,10.621,21.878,9.5,20.5,9.5z"/>
	<path d="M20.5,23.5c-1.93,0-3.5-1.57-3.5-3.5s1.57-3.5,3.5-3.5S24,18.07,24,20S22.43,23.5,20.5,23.5z M20.5,17.5
		c-1.378,0-2.5,1.122-2.5,2.5s1.122,2.5,2.5,2.5S23,21.378,23,20S21.878,17.5,20.5,17.5z"/>
	<path d="M12,7.5c-1.93,0-3.5-1.57-3.5-3.5s1.57-3.5,3.5-3.5s3.5,1.57,3.5,3.5S13.93,7.5,12,7.5z M12,1.5
		c-1.379,0-2.5,1.121-2.5,2.5s1.121,2.5,2.5,2.5c1.378,0,2.5-1.121,2.5-2.5S13.378,1.5,12,1.5z"/>
	<path d="M12,15.5c-1.93,0-3.5-1.57-3.5-3.5s1.57-3.5,3.5-3.5s3.5,1.57,3.5,3.5S13.93,15.5,12,15.5z M12,9.5
		c-1.379,0-2.5,1.121-2.5,2.5c0,1.378,1.121,2.5,2.5,2.5c1.378,0,2.5-1.122,2.5-2.5C14.5,10.621,13.378,9.5,12,9.5z"/>
	<path d="M3.5,15.5C1.57,15.5,0,13.93,0,12s1.57-3.5,3.5-3.5S7,10.07,7,12S5.43,15.5,3.5,15.5z M3.5,9.5C2.121,9.5,1,10.621,1,12
		c0,1.378,1.121,2.5,2.5,2.5S6,13.378,6,12C6,10.621,4.879,9.5,3.5,9.5z"/>
	<path d="M12,23.5c-1.93,0-3.5-1.57-3.5-3.5s1.57-3.5,3.5-3.5s3.5,1.57,3.5,3.5S13.93,23.5,12,23.5z M12,17.5
		c-1.379,0-2.5,1.122-2.5,2.5s1.121,2.5,2.5,2.5c1.378,0,2.5-1.122,2.5-2.5S13.378,17.5,12,17.5z"/>
</g>
</svg>
