<?xml version="1.0" encoding="utf-8"?>
<!-- Generator: Adobe Illustrator 22.1.0, SVG Export Plug-In . SVG Version: 6.00 Build 0)  -->
<svg version="1.1" id="Layer_1" xmlns="http://www.w3.org/2000/svg" xmlns:xlink="http://www.w3.org/1999/xlink" x="0px" y="0px"
	 viewBox="0 0 24 24" style="enable-background:new 0 0 24 24;" xml:space="preserve">
<g>
	<title>social-video-viddler</title>
	<path d="M7.425,9.2c-1.103-0.005-1.996-0.907-1.99-2.01c0.003-0.534,0.213-1.036,0.592-1.411C6.404,5.406,6.904,5.2,7.435,5.2
		c1.112,0.005,2.005,0.906,2,2.008C9.43,8.307,8.533,9.2,7.435,9.2c-0.001,0-0.007,0-0.008,0C7.426,9.2,7.426,9.2,7.425,9.2z
		 M7.407,6.2c-0.251,0-0.484,0.1-0.676,0.29c-0.19,0.188-0.295,0.439-0.296,0.706C6.432,7.747,6.879,8.197,7.43,8.2
		c0.554,0,1.003-0.447,1.005-0.996C8.437,6.653,7.991,6.203,7.44,6.2L7.407,6.2z"/>
	<path d="M18.271,9.205c-0.537,0-1.041-0.206-1.418-0.58c-0.379-0.376-0.589-0.878-0.591-1.412c0-0.001,0-0.005,0-0.005
		c-0.003-0.537,0.203-1.042,0.581-1.423c0.377-0.381,0.88-0.593,1.417-0.596c0.54,0,1.044,0.206,1.423,0.581
		c0.381,0.377,0.593,0.881,0.596,1.417c0.003,0.536-0.204,1.041-0.581,1.422c-0.377,0.382-0.881,0.593-1.416,0.596
		c0,0-0.001,0-0.001,0H18.271z M18.265,6.189c-0.269,0.001-0.522,0.108-0.711,0.299c-0.189,0.191-0.293,0.445-0.292,0.714
		c0.001,0.272,0.106,0.524,0.296,0.712c0.189,0.187,0.432,0.29,0.686,0.29c0.583-0.003,1.038-0.458,1.035-1.014
		c-0.001-0.269-0.107-0.522-0.299-0.711c-0.19-0.188-0.442-0.292-0.709-0.292l-0.007-0.25L18.265,6.189z"/>
	<path d="M7.5,21C7.224,21,7,20.776,7,20.5v-1.824l-6.374,1.663C0.585,20.35,0.543,20.355,0.5,20.355
		c-0.11,0-0.219-0.037-0.306-0.104C0.073,20.157,0,20.009,0,19.855v-7.039c0-0.153,0.069-0.296,0.189-0.392
		c0.089-0.07,0.199-0.108,0.311-0.108c0.038,0,0.076,0.004,0.113,0.013L7,13.83v-0.84c-3.048-0.193-5.461-2.766-5.426-5.848
		C1.61,3.983,4.211,1.414,7.372,1.414l0.061,0c3.006,0,4.498,1.971,5.196,3.468c0.994-2.097,3.124-3.468,5.478-3.468l0.056,0
		c1.545,0,3,0.603,4.094,1.697c1.094,1.094,1.696,2.549,1.696,4.097c0,3.194-2.599,5.792-5.793,5.792H14.56l2.422,7.343
		c0.05,0.152,0.024,0.32-0.069,0.449C16.819,20.923,16.668,21,16.508,21H7.5z M15.816,20l-2.422-7.343
		c-0.05-0.152-0.024-0.32,0.069-0.449C13.558,12.077,13.709,12,13.869,12h4.29c2.643,0,4.793-2.15,4.794-4.792
		c0-1.28-0.498-2.484-1.403-3.39c-0.906-0.906-2.117-1.404-3.411-1.404c-2.448,0-4.542,1.728-5.002,4.108
		c-0.045,0.234-0.251,0.405-0.49,0.405c-0.239,0-0.446-0.17-0.492-0.404c-0.033-0.168-0.854-4.109-4.727-4.109l-0.058,0
		c-2.615,0-4.766,2.126-4.796,4.739C2.559,8.431,3.045,9.64,3.941,10.557c0.896,0.917,2.094,1.43,3.372,1.444l0.055,0
		c0.04,0,0.121-0.002,0.121-0.002c0.141,0,0.269,0.052,0.361,0.143C7.945,12.236,8,12.366,8,12.5v1.961
		c0,0.153-0.069,0.296-0.189,0.392c-0.089,0.07-0.199,0.108-0.311,0.108c-0.038,0-0.076-0.004-0.113-0.013L1,13.448v5.761
		l6.374-1.663c0.042-0.011,0.084-0.016,0.126-0.016c0.11,0,0.219,0.037,0.306,0.104C7.927,17.728,8,17.875,8,18.029V20H15.816z"/>
</g>
</svg>
