<?xml version="1.0" encoding="utf-8"?>
<!-- Generator: Adobe Illustrator 22.1.0, SVG Export Plug-In . SVG Version: 6.00 Build 0)  -->
<svg version="1.1" id="Layer_1" xmlns="http://www.w3.org/2000/svg" xmlns:xlink="http://www.w3.org/1999/xlink" x="0px" y="0px"
	 viewBox="0 0 24 24" style="enable-background:new 0 0 24 24;" xml:space="preserve">
<g>
	<title>pin-star</title>
	<path d="M12.025,23.655c-0.314,0-0.616-0.098-0.873-0.283c-0.132-0.095-0.247-0.21-0.342-0.342
		c-2.19-3.044-7.282-10.519-7.282-14.184c0-4.687,3.813-8.5,8.5-8.5s8.5,3.813,8.5,8.5c0,3.661-5.093,11.139-7.282,14.184
		c-0.234,0.325-0.581,0.54-0.976,0.605C12.189,23.648,12.107,23.655,12.025,23.655z M12.028,1.346c-4.135,0-7.5,3.365-7.5,7.5
		c0,3.469,5.43,11.286,7.094,13.6c0.032,0.044,0.07,0.083,0.114,0.114c0.086,0.062,0.186,0.094,0.291,0.094
		c0.161,0,0.314-0.078,0.407-0.208c1.664-2.315,7.094-10.136,7.094-13.6C19.528,4.711,16.164,1.346,12.028,1.346z"/>
	<path d="M8.932,14.222c-0.412,0-0.795-0.221-1.001-0.576c-0.179-0.31-0.204-0.692-0.066-1.022l1.066-2.453L7.009,8.271
		C6.806,8.092,6.674,7.816,6.657,7.523C6.639,7.227,6.738,6.941,6.935,6.719c0.211-0.237,0.517-0.373,0.839-0.373
		c0.002,0,2.195,0,2.195,0l1.151-2.479c0.21-0.401,0.608-0.643,1.043-0.643c0.186,0,0.372,0.046,0.537,0.133
		c0.209,0.11,0.378,0.278,0.488,0.488c0.003,0.005,1.159,2.502,1.159,2.502l2.206-0.001c0.276,0,0.542,0.105,0.748,0.295
		c0.219,0.202,0.345,0.476,0.357,0.773c0.014,0.334-0.122,0.653-0.372,0.875l-1.902,1.878l1.063,2.447
		c0.121,0.289,0.122,0.603,0.005,0.889c-0.117,0.286-0.338,0.508-0.623,0.627c-0.14,0.059-0.29,0.089-0.444,0.089l0,0
		c-0.204,0-0.404-0.053-0.578-0.155l-2.65-1.489L9.502,14.07C9.331,14.169,9.133,14.222,8.932,14.222z M7.774,7.346
		c-0.038,0-0.069,0.013-0.091,0.037c-0.02,0.023-0.03,0.051-0.028,0.081c0.002,0.03,0.015,0.057,0.037,0.077L9.877,9.7
		c0.146,0.144,0.189,0.367,0.107,0.555l-1.2,2.761c-0.016,0.037-0.011,0.09,0.012,0.13c0.027,0.047,0.079,0.076,0.134,0.076
		c0.027,0,0.053-0.007,0.076-0.021l2.905-1.637c0.075-0.042,0.16-0.064,0.245-0.064c0.086,0,0.171,0.022,0.245,0.064l2.901,1.63
		c0.027,0.016,0.055,0.023,0.083,0.023c0.02,0,0.04-0.004,0.058-0.011c0.078-0.033,0.116-0.123,0.083-0.202l-1.197-2.754
		c-0.082-0.188-0.039-0.411,0.107-0.555l2.165-2.136c0.042-0.038,0.058-0.07,0.056-0.106c-0.001-0.031-0.014-0.057-0.036-0.078
		c-0.021-0.019-0.05-0.03-0.083-0.03l-2.512,0c-0.194,0-0.373-0.114-0.454-0.29l-1.279-2.762c-0.009-0.014-0.031-0.037-0.06-0.052
		c-0.024-0.013-0.049-0.019-0.075-0.019c-0.061,0-0.116,0.033-0.145,0.087l-1.274,2.747c-0.082,0.176-0.26,0.29-0.454,0.29
		L7.774,7.346z"/>
</g>
</svg>
