<?xml version="1.0" encoding="utf-8"?>
<!-- Generator: Adobe Illustrator 22.1.0, SVG Export Plug-In . SVG Version: 6.00 Build 0)  -->
<svg version="1.1" id="Layer_1" xmlns="http://www.w3.org/2000/svg" xmlns:xlink="http://www.w3.org/1999/xlink" x="0px" y="0px"
	 viewBox="0 0 24 24" style="enable-background:new 0 0 24 24;" xml:space="preserve">
<g>
	<title>pin-remove-2</title>
	<path d="M12.139,24c-0.276,0-0.5-0.224-0.5-0.5V21c0-1.789-1.468-3.99-3.022-6.319C6.907,12.118,5.139,9.468,5.139,7
		c0-4.579,2.421-7,7-7s7,2.421,7,7c0,2.468-1.768,5.117-3.478,7.68c-1.554,2.33-3.022,4.53-3.022,6.32c0,0.004,0,2.5,0,2.5
		C12.639,23.776,12.414,24,12.139,24z M12.139,1c-3.925,0-6,2.075-6,6c0,2.165,1.682,4.686,3.309,7.125
		c1.078,1.616,2.104,3.154,2.691,4.614c0.586-1.46,1.613-2.998,2.691-4.614c1.627-2.439,3.309-4.96,3.309-7.125
		C18.139,3.075,16.064,1,12.139,1z"/>
	<path d="M14.139,10c-0.134,0-0.259-0.052-0.354-0.146l-1.646-1.646l-1.646,1.646C10.398,9.948,10.273,10,10.139,10
		S9.88,9.948,9.785,9.854S9.639,9.634,9.639,9.5s0.052-0.259,0.146-0.354L11.432,7.5L9.785,5.854C9.691,5.759,9.639,5.634,9.639,5.5
		s0.052-0.259,0.146-0.354S10.005,5,10.139,5s0.259,0.052,0.354,0.146l1.646,1.646l1.646-1.646C13.88,5.052,14.005,5,14.139,5
		s0.259,0.052,0.354,0.146s0.146,0.22,0.146,0.354s-0.052,0.259-0.146,0.354L12.846,7.5l1.646,1.646
		c0.094,0.094,0.146,0.22,0.146,0.354s-0.052,0.259-0.146,0.354S14.272,10,14.139,10z"/>
</g>
</svg>
