<?xml version="1.0" encoding="utf-8"?>
<!-- Generator: Adobe Illustrator 22.1.0, SVG Export Plug-In . SVG Version: 6.00 Build 0)  -->
<svg version="1.1" id="Layer_1" xmlns="http://www.w3.org/2000/svg" xmlns:xlink="http://www.w3.org/1999/xlink" x="0px" y="0px"
	 viewBox="0 0 24 24" style="enable-background:new 0 0 24 24;" xml:space="preserve">
<g>
	<title>police-woman-spy-1</title>
	<path d="M8,24c-0.26,0-0.474-0.195-0.498-0.455l-0.439-4.833L3.285,20.22C1.917,20.731,1.001,22.049,1,23.501
		C1,23.776,0.776,24,0.5,24c-0.134,0-0.259-0.052-0.354-0.147C0.052,23.759,0,23.633,0,23.5c0.001-1.866,1.176-3.559,2.925-4.213
		l4.39-1.751C7.374,17.512,7.436,17.5,7.5,17.5c0.092,0,0.183,0.025,0.261,0.074c0.134,0.082,0.222,0.224,0.237,0.381l0.5,5.5
		c0.025,0.275-0.178,0.519-0.453,0.543C8.038,23.999,8.007,24,8,24z"/>
	<path d="M11.805,15.001c-0.604,0-1.186-0.223-1.638-0.628c-0.205-0.184-0.223-0.5-0.039-0.706c0.095-0.106,0.231-0.167,0.373-0.167
		c0.123,0,0.242,0.045,0.333,0.128c0.269,0.24,0.611,0.373,0.962,0.373l0.384,0c0.368,0,0.719-0.133,0.988-0.373
		c0.092-0.082,0.21-0.127,0.333-0.127c0.143,0,0.278,0.061,0.373,0.167c0.089,0.099,0.134,0.228,0.126,0.361
		c-0.008,0.133-0.066,0.256-0.166,0.345c-0.453,0.405-1.035,0.628-1.64,0.628C12.194,15.001,11.805,15.001,11.805,15.001z"/>
	<path d="M12,18c-1.588,0-4.937-1.862-5.425-4.781c-0.027-0.165-0.134-0.305-0.286-0.374c-0.122-0.055-0.239-0.127-0.35-0.213
		c-0.377,0.99-1.016,1.843-1.866,2.485c-0.014,0.01-0.028,0.021-0.044,0.03c0.694,0.543,1.557,0.839,2.434,0.839
		c0.054,0,0.108-0.001,0.162-0.003c0.003,0,0.024-0.001,0.027-0.001c0.265,0,0.482,0.21,0.493,0.479
		c0.006,0.133-0.041,0.261-0.131,0.359c-0.09,0.098-0.214,0.156-0.347,0.161c-0.07,0.003-0.141,0.005-0.211,0.005
		c-1.094,0-2.171-0.37-3.033-1.043c-0.097-0.072-0.187-0.171-0.253-0.283c-0.277-0.463-0.13-1.074,0.328-1.361
		c0.859-0.653,1.469-1.61,1.706-2.687c-0.125-0.318-0.196-0.662-0.203-0.976C4.987,9.901,5.284,9.31,5.795,9.053
		C5.864,9.019,5.941,9,6.019,9c0.19,0,0.362,0.106,0.447,0.276C6.589,9.522,6.49,9.823,6.243,9.947
		c-0.154,0.077-0.249,0.34-0.243,0.669c0.009,0.489,0.259,1.117,0.702,1.318c0.456,0.208,0.777,0.627,0.859,1.121
		C7.965,15.469,10.878,17,12,17c1.122,0,4.035-1.531,4.439-3.947c0.082-0.493,0.402-0.911,0.858-1.119
		c0.444-0.202,0.694-0.83,0.703-1.319c0.006-0.329-0.089-0.591-0.243-0.668c-0.12-0.06-0.208-0.163-0.25-0.29
		c-0.042-0.127-0.032-0.262,0.028-0.382C17.619,9.106,17.791,9,17.981,9c0.077,0,0.154,0.018,0.223,0.053
		C18.717,9.31,19.014,9.901,19,10.635c-0.006,0.3-0.068,0.617-0.18,0.92c0.234,1.099,0.85,2.076,1.742,2.756
		c0.439,0.274,0.585,0.885,0.307,1.349c-0.069,0.114-0.157,0.211-0.263,0.289c-0.853,0.666-1.928,1.035-3.021,1.035
		c-0.071,0-0.142-0.001-0.213-0.005c-0.134-0.006-0.257-0.063-0.347-0.162c-0.09-0.098-0.137-0.226-0.131-0.36
		c0.012-0.264,0.234-0.479,0.496-0.479c0.005,0,0.024,0.001,0.029,0.001c0.055,0.002,0.114,0.004,0.172,0.004
		c0.867,0,1.723-0.295,2.41-0.831c-0.003-0.016-0.018-0.026-0.031-0.036c-0.858-0.651-1.501-1.512-1.879-2.51
		c-0.12,0.097-0.247,0.177-0.38,0.237c-0.152,0.069-0.259,0.209-0.286,0.374C16.937,16.138,13.588,18,12,18z"/>
	<path d="M18,23.999c-0.276,0-0.5-0.224-0.5-0.5s0.224-0.5,0.5-0.5h2.5c0.276,0,0.5,0.224,0.5,0.5s-0.224,0.5-0.5,0.5H18z"/>
	<path d="M12,7.99c-1.996,0-4.023-0.131-6.025-0.39c-0.002,0-0.005,0-0.007,0c-0.045,0-0.084-0.008-0.116-0.016
		C4.503,7.407,3.171,7.172,1.892,6.888C1.761,6.859,1.65,6.781,1.578,6.669C1.506,6.556,1.483,6.422,1.512,6.292
		C1.563,6.061,1.763,5.9,1.999,5.9c0.037,0,0.074,0.004,0.11,0.012c1.15,0.255,2.334,0.469,3.521,0.635l1.797-5.21
		c0.181-0.507,0.546-0.911,1.028-1.14c0.271-0.129,0.56-0.194,0.856-0.194c0.229,0,0.455,0.039,0.672,0.117
		c0.109,0.039,0.216,0.088,0.318,0.146l1.201,0.688c0.15,0.085,0.321,0.131,0.495,0.131c0.175,0,0.346-0.045,0.496-0.131
		l1.202-0.687c0.301-0.172,0.643-0.263,0.989-0.263c0.718,0,1.385,0.386,1.74,1.008c0.058,0.102,0.108,0.21,0.147,0.322l1.797,5.214
		c1.188-0.166,2.371-0.38,3.521-0.635C21.928,5.904,21.964,5.9,21.999,5.9c0.233,0,0.439,0.165,0.489,0.392
		c0.059,0.269-0.111,0.536-0.38,0.596c-1.298,0.288-2.653,0.526-4.027,0.705c-0.016,0.003-0.032,0.005-0.049,0.006
		C16.028,7.858,13.998,7.99,12,7.99z M6.644,6.674C8.413,6.881,10.213,6.986,12,6.986s3.587-0.105,5.356-0.312l-0.337-0.978
		C15.346,5.897,13.659,5.999,12,5.999S8.654,5.897,6.981,5.696L6.644,6.674z M7.316,4.727C8.866,4.905,10.44,4.996,12,4.996
		c1.56,0,3.135-0.09,4.686-0.268l-1.056-3.064c-0.018-0.051-0.044-0.106-0.072-0.156c-0.178-0.311-0.511-0.504-0.871-0.504
		c-0.172,0-0.343,0.045-0.493,0.131l-1.202,0.687c-0.3,0.172-0.643,0.262-0.992,0.262c-0.349,0-0.692-0.091-0.992-0.262l-1.2-0.687
		c-0.05-0.028-0.103-0.053-0.158-0.072C9.539,1.023,9.426,1.003,9.312,1.003c-0.148,0-0.292,0.033-0.428,0.097
		C8.643,1.215,8.461,1.416,8.371,1.668L7.316,4.727z"/>
	<path d="M23.5,24c-0.276,0-0.5-0.224-0.5-0.5c-0.001-1.451-0.915-2.768-2.275-3.277l-3.787-1.51l-0.439,4.833
		C16.474,23.805,16.26,24,16,24c-0.008,0-0.039-0.001-0.046-0.002c-0.274-0.025-0.477-0.269-0.452-0.543l0.5-5.5
		c0.014-0.156,0.103-0.299,0.237-0.381c0.079-0.048,0.169-0.073,0.261-0.073c0.063,0,0.126,0.012,0.185,0.035l4.4,1.755
		c1.741,0.65,2.914,2.342,2.915,4.209C24,23.776,23.776,24,23.5,24z"/>
	<path d="M13.5,24c-0.216,0-0.406-0.137-0.474-0.342L12,20.581l-1.025,3.077C10.906,23.863,10.715,24,10.5,24
		c-0.054,0-0.107-0.009-0.158-0.026c-0.126-0.042-0.229-0.131-0.289-0.25s-0.069-0.255-0.027-0.382l1.026-3.077
		c0.099-0.296,0.335-0.532,0.63-0.631c0.103-0.034,0.21-0.052,0.317-0.052c0.431,0,0.812,0.274,0.949,0.682l1.026,3.078
		c0.042,0.127,0.033,0.263-0.027,0.382s-0.162,0.208-0.289,0.25C13.607,23.991,13.554,24,13.5,24z"/>
	<path d="M9,12c-1.379,0-2.5-1.121-2.5-2.5C6.5,8.673,7.173,8,8,8h2c0.639,0,1.204,0.41,1.414,0.999h1.172
		c0.209-0.59,0.774-1,1.414-1h2c0.827,0,1.5,0.673,1.5,1.5c0,1.379-1.122,2.5-2.5,2.5c-1.199,0-2.215-0.845-2.449-2h-1.102
		C11.216,11.155,10.2,12,9,12z M8,9C7.724,9,7.5,9.224,7.5,9.5C7.5,10.327,8.173,11,9,11s1.5-0.673,1.5-1.5
		C10.5,9.224,10.276,9,10,9H8z M14,8.999c-0.276,0-0.5,0.224-0.5,0.5c0,0.827,0.673,1.5,1.5,1.5s1.5-0.673,1.5-1.5
		c0-0.276-0.224-0.5-0.5-0.5H14z"/>
</g>
</svg>
