<?xml version="1.0" encoding="utf-8"?>
<!-- Generator: Adobe Illustrator 22.1.0, SVG Export Plug-In . SVG Version: 6.00 Build 0)  -->
<svg version="1.1" id="Layer_1" xmlns="http://www.w3.org/2000/svg" xmlns:xlink="http://www.w3.org/1999/xlink" x="0px" y="0px"
	 viewBox="0 0 24 24" style="enable-background:new 0 0 24 24;" xml:space="preserve">
<g>
	<title>police-woman-2</title>
	<path d="M11.805,14.001c-0.604,0-1.186-0.223-1.638-0.628c-0.205-0.184-0.223-0.5-0.039-0.706c0.095-0.106,0.231-0.167,0.373-0.167
		c0.123,0,0.241,0.045,0.333,0.127c0.27,0.241,0.609,0.374,0.956,0.374L11.843,13l0.337,0c0.367,0,0.718-0.133,0.987-0.373
		c0.092-0.082,0.21-0.127,0.333-0.127c0.142,0,0.278,0.061,0.373,0.167c0.183,0.205,0.166,0.522-0.04,0.706
		c-0.453,0.405-1.034,0.628-1.635,0.628L11.805,14.001z"/>
	<path d="M23.5,24c-0.276,0-0.5-0.224-0.5-0.5v-1c-0.001-1.452-0.915-2.769-2.275-3.277l-5.384-1.809
		c-0.261-0.088-0.403-0.372-0.315-0.633c0.069-0.204,0.259-0.341,0.475-0.341c0.054,0,0.107,0.009,0.158,0.026l5.401,1.815
		c1.761,0.658,2.94,2.352,2.941,4.219v1C24,23.776,23.776,24,23.5,24z"/>
	<path d="M0.5,24C0.224,24,0,23.776,0,23.5v-1c0-1.867,1.176-3.561,2.925-4.214l5.416-1.82C8.393,16.449,8.446,16.44,8.5,16.44
		c0.215,0,0.406,0.137,0.474,0.341c0.042,0.126,0.033,0.262-0.026,0.382s-0.162,0.209-0.289,0.251l-5.4,1.814
		C1.911,19.732,1,21.048,1,22.5v1C1,23.776,0.776,24,0.5,24z"/>
	<path d="M12,23.999c-0.276,0-0.5-0.224-0.5-0.5v-5c0-0.276,0.224-0.5,0.5-0.5c0.276,0,0.5,0.224,0.5,0.5v5
		C12.5,23.775,12.276,23.999,12,23.999z"/>
	<path d="M17,24c-0.099,0-0.195-0.029-0.278-0.084l-0.609-0.406C15.417,23.046,15,22.268,15,21.43V21c0-0.552,0.448-1,1-1h2
		c0.552,0,1,0.448,1,1v0.43c0,0.838-0.417,1.616-1.114,2.08l-0.609,0.406C17.195,23.971,17.099,24,17,24z M16,21.43
		c0,0.503,0.25,0.969,0.668,1.248L17,22.899l0.332-0.221C17.75,22.399,18,21.933,18,21.43V21h-2L16,21.43z"/>
	<path d="M12,6c-0.099,0-0.195-0.029-0.277-0.084L11.114,5.51C10.416,5.045,10,4.267,10,3.429V3c0-0.551,0.449-1,1-1h2
		c0.552,0,1,0.449,1,1v0.43c0,0.838-0.417,1.616-1.114,2.08l-0.609,0.406C12.195,5.971,12.099,6,12,6z M11,3.429
		c0,0.503,0.25,0.97,0.668,1.249L12,4.899l0.332-0.221C12.75,4.399,13,3.933,13,3.43V3h-2L11,3.429z"/>
	<path d="M12,17c-1.592,0-4.947-1.863-5.435-4.782c-0.027-0.165-0.135-0.305-0.287-0.374c-0.018-0.009-0.035-0.017-0.05-0.026
		c-0.098-0.058-0.193-0.123-0.283-0.195c-0.375,0.995-1.017,1.853-1.872,2.498c-0.014,0.011-0.028,0.02-0.042,0.028
		c0.693,0.544,1.556,0.84,2.433,0.84c0.054,0,0.107-0.001,0.161-0.003c0,0,0.001,0,0.001,0c0.291,0,0.508,0.21,0.519,0.478
		c0.006,0.133-0.041,0.261-0.131,0.359c-0.09,0.098-0.214,0.156-0.347,0.161c-0.07,0.003-0.141,0.005-0.211,0.005
		c-1.094,0-2.171-0.37-3.033-1.043c-0.097-0.072-0.187-0.171-0.253-0.283c-0.277-0.464-0.13-1.074,0.328-1.361
		c0.852-0.647,1.46-1.594,1.699-2.662c-0.232-0.542-0.264-1.138-0.094-1.7C4.716,8.498,4.52,8.014,4.52,7.5
		c0-4.135,3.365-7.5,7.5-7.5s7.5,3.365,7.5,7.5c0,0.528-0.206,1.023-0.612,1.474c0.151,0.529,0.123,1.091-0.08,1.606
		c0.235,1.09,0.848,2.058,1.734,2.731c0.201,0.125,0.357,0.339,0.42,0.592c0.065,0.259,0.025,0.528-0.113,0.757
		c-0.068,0.114-0.157,0.211-0.263,0.29c-0.853,0.666-1.928,1.035-3.021,1.035c-0.071,0-0.142-0.001-0.213-0.005
		c-0.134-0.006-0.257-0.063-0.347-0.162c-0.09-0.098-0.137-0.226-0.131-0.36c0.012-0.268,0.23-0.479,0.496-0.479
		c0.005,0,0.024,0.001,0.029,0.001c0.054,0.002,0.112,0.004,0.17,0.004c0.868,0,1.725-0.295,2.412-0.831
		c0-0.014-0.016-0.025-0.031-0.036c-0.863-0.653-1.507-1.517-1.883-2.52c-0.098,0.082-0.202,0.155-0.311,0.22
		c-0.016,0.01-0.032,0.018-0.049,0.026c-0.153,0.069-0.26,0.209-0.288,0.374C16.947,15.138,13.59,17,12,17z M6.719,10.946
		c0.441,0.211,0.752,0.624,0.832,1.107C7.955,14.468,10.875,16,12,16c1.124,0,4.045-1.532,4.454-3.947
		c0.08-0.482,0.39-0.894,0.831-1.105c0.442-0.272,0.705-0.743,0.719-1.244C16.643,10.531,14.497,11,12.02,11
		c-2.505,0-4.667-0.478-6.025-1.321C6,10.189,6.265,10.669,6.719,10.946z M6.09,8.527C7.133,9.409,9.507,10,12.02,10
		c2.494,0,4.863-0.586,5.913-1.46c0.043-0.058,0.094-0.105,0.152-0.138C18.217,8.271,18.32,8.137,18.392,8H5.648
		c0.067,0.127,0.16,0.252,0.279,0.374C5.992,8.411,6.047,8.462,6.09,8.527z M18.501,7c-0.255-3.385-3.054-6-6.481-6
		S5.794,3.615,5.539,7H18.501z"/>
</g>
</svg>
