<?xml version="1.0" encoding="utf-8"?>
<!-- Generator: Adobe Illustrator 22.1.0, SVG Export Plug-In . SVG Version: 6.00 Build 0)  -->
<svg version="1.1" id="Layer_1" xmlns="http://www.w3.org/2000/svg" xmlns:xlink="http://www.w3.org/1999/xlink" x="0px" y="0px"
	 viewBox="0 0 24 24" style="enable-background:new 0 0 24 24;" xml:space="preserve">
<g>
	<title>police-woman-3</title>
	<path d="M12,7.99c-1.985,0-4.003-0.13-5.997-0.386c-0.01,0.001-0.02,0.001-0.031,0.001c-0.013,0-0.037-0.002-0.05-0.004
		C5.9,7.597,5.88,7.592,5.865,7.586C4.511,7.408,3.174,7.173,1.892,6.888C1.761,6.859,1.65,6.781,1.578,6.669
		C1.506,6.556,1.483,6.422,1.512,6.292C1.563,6.061,1.763,5.9,1.999,5.9c0.037,0,0.074,0.004,0.11,0.012
		c1.136,0.252,2.303,0.464,3.474,0.629l0.559-3.538C6.383,1.293,7.873,0,9.607,0h4.786c1.734,0,3.224,1.295,3.466,3.011l0.558,3.529
		c1.171-0.165,2.339-0.376,3.475-0.629C21.928,5.904,21.964,5.9,21.999,5.9c0.233,0,0.439,0.165,0.489,0.392
		c0.059,0.269-0.111,0.536-0.38,0.596c-1.283,0.285-2.62,0.52-3.974,0.698c-0.011,0.005-0.032,0.011-0.056,0.015
		C18.052,7.605,18.025,7.607,18,7.607c-0.007,0-0.014,0-0.022-0.001C15.99,7.861,13.979,7.99,12,7.99z M6.576,6.666
		C8.367,6.878,10.19,6.986,12,6.986c1.81,0,3.633-0.108,5.425-0.32L16.87,3.159C16.696,1.927,15.632,1,14.394,1H9.607
		C8.368,1,7.304,1.925,7.131,3.151L6.576,6.666z"/>
	<path d="M12,23.999c-0.276,0-0.5-0.224-0.5-0.5v-4c0-0.276,0.224-0.5,0.5-0.5c0.276,0,0.5,0.224,0.5,0.5v4
		C12.5,23.775,12.276,23.999,12,23.999z"/>
	<path d="M23.5,24c-0.276,0-0.5-0.224-0.5-0.5c-0.001-1.452-0.915-2.769-2.275-3.277l-4.884-1.641
		c-0.261-0.088-0.403-0.372-0.315-0.633c0.069-0.204,0.26-0.341,0.475-0.341c0.053,0,0.106,0.009,0.157,0.025l4.901,1.647
		c1.761,0.658,2.94,2.352,2.941,4.219C24,23.776,23.776,24,23.5,24z"/>
	<path d="M0.5,24C0.224,24,0,23.776,0,23.5c0-1.867,1.176-3.561,2.925-4.214l4.916-1.652C7.893,17.617,7.946,17.608,8,17.608
		c0.215,0,0.406,0.137,0.474,0.341c0.043,0.126,0.033,0.262-0.026,0.382s-0.162,0.209-0.289,0.251l-4.9,1.646
		C1.911,20.732,1,22.048,1,23.5C1,23.776,0.776,24,0.5,24z"/>
	<path d="M17,24c-0.099,0-0.195-0.029-0.278-0.084l-0.609-0.406C15.417,23.046,15,22.268,15,21.43c0-0.513,0.417-0.93,0.93-0.93
		h2.14c0.513,0,0.93,0.417,0.93,0.93c0,0.838-0.417,1.616-1.114,2.08l-0.609,0.406C17.195,23.971,17.099,24,17,24z M16.002,21.5
		c0.022,0.476,0.268,0.912,0.667,1.178L17,22.899l0.332-0.221c0.399-0.266,0.645-0.702,0.667-1.178H16.002z"/>
	<path d="M11.805,15.001c-0.604,0-1.186-0.223-1.638-0.628c-0.205-0.184-0.223-0.5-0.039-0.706c0.095-0.106,0.231-0.167,0.373-0.167
		c0.123,0,0.242,0.045,0.333,0.128c0.269,0.24,0.612,0.373,0.965,0.373l0.383,0c0.366,0,0.716-0.133,0.985-0.373
		c0.092-0.082,0.21-0.127,0.333-0.127c0.142,0,0.278,0.061,0.373,0.167c0.184,0.205,0.166,0.522-0.039,0.706
		c-0.453,0.405-1.034,0.628-1.635,0.628L11.805,15.001z"/>
	<path d="M12,18c-1.588,0-4.937-1.862-5.425-4.781c-0.027-0.166-0.134-0.305-0.286-0.375c-0.129-0.059-0.253-0.135-0.37-0.229
		C5.541,13.61,4.9,14.469,4.046,15.115C4.033,15.125,4.017,15.136,4,15.146c0.697,0.542,1.556,0.839,2.426,0.839
		c0.057,0,0.114-0.001,0.171-0.004c0,0,0.001,0,0.001,0c0.29,0,0.509,0.21,0.52,0.478c0.006,0.133-0.041,0.261-0.131,0.359
		c-0.09,0.099-0.214,0.156-0.347,0.162c-0.071,0.003-0.142,0.005-0.213,0.005c-1.093,0-2.17-0.37-3.031-1.043
		c-0.096-0.071-0.186-0.17-0.253-0.282c-0.137-0.229-0.177-0.498-0.112-0.757c0.063-0.252,0.219-0.467,0.439-0.604
		c0.869-0.663,1.484-1.633,1.717-2.726c-0.115-0.306-0.181-0.636-0.187-0.937C4.987,9.901,5.283,9.31,5.795,9.053
		C5.864,9.018,5.941,9,6.019,9c0.19,0,0.362,0.106,0.447,0.276C6.589,9.522,6.49,9.823,6.243,9.947
		c-0.154,0.077-0.249,0.34-0.243,0.669c0.009,0.489,0.259,1.117,0.702,1.318c0.456,0.208,0.777,0.627,0.859,1.121
		C7.965,15.469,10.878,17,12,17c1.122,0,4.035-1.531,4.439-3.947c0.082-0.493,0.402-0.912,0.858-1.12
		c0.444-0.202,0.694-0.83,0.703-1.318c0.006-0.329-0.089-0.592-0.243-0.669c-0.12-0.06-0.208-0.163-0.25-0.29
		c-0.042-0.127-0.032-0.262,0.028-0.382C17.619,9.106,17.791,9,17.981,9c0.077,0,0.154,0.018,0.223,0.053
		C18.717,9.31,19.014,9.901,19,10.635c-0.006,0.308-0.075,0.645-0.195,0.958c0.237,1.085,0.849,2.049,1.731,2.719
		c0.201,0.125,0.357,0.339,0.421,0.591c0.065,0.259,0.025,0.528-0.112,0.758c-0.067,0.113-0.156,0.211-0.263,0.29
		c-0.854,0.667-1.929,1.036-3.023,1.036c-0.07,0-0.141-0.001-0.211-0.005c-0.133-0.006-0.256-0.063-0.347-0.161
		s-0.137-0.226-0.131-0.359c0.012-0.264,0.236-0.479,0.5-0.479c0.076,0.003,0.131,0.004,0.186,0.004
		c0.875,0,1.734-0.295,2.421-0.831c-0.005-0.017-0.021-0.028-0.036-0.039c-0.85-0.644-1.491-1.5-1.869-2.492
		c-0.114,0.09-0.235,0.164-0.36,0.221c-0.152,0.069-0.259,0.209-0.286,0.374C16.937,16.138,13.588,18,12,18z"/>
	<path d="M12,6c-0.099,0-0.195-0.029-0.277-0.084L11.114,5.51C10.416,5.045,10,4.267,10,3.429V3c0-0.551,0.449-1,1-1h2
		c0.552,0,1,0.449,1,1v0.43c0,0.838-0.417,1.616-1.114,2.08l-0.609,0.406C12.195,5.971,12.099,6,12,6z M11,3.429
		c0,0.503,0.25,0.97,0.668,1.249L12,4.899l0.332-0.221C12.75,4.399,13,3.933,13,3.43V3h-2L11,3.429z"/>
	<path d="M9,12c-1.379,0-2.5-1.121-2.5-2.5C6.5,8.673,7.173,8,8,8h2c0.639,0,1.204,0.41,1.414,0.999h1.172
		c0.209-0.59,0.774-1,1.414-1h2c0.827,0,1.5,0.673,1.5,1.5c0,1.379-1.122,2.5-2.5,2.5c-1.199,0-2.215-0.845-2.449-2h-1.102
		C11.216,11.154,10.2,12,9,12z M8,9C7.724,9,7.5,9.224,7.5,9.5C7.5,10.327,8.173,11,9,11s1.5-0.673,1.5-1.5
		C10.5,9.224,10.276,9,10,9H8z M14,8.999c-0.276,0-0.5,0.224-0.5,0.5c0,0.827,0.673,1.5,1.5,1.5s1.5-0.673,1.5-1.5
		c0-0.276-0.224-0.5-0.5-0.5H14z"/>
</g>
</svg>
