<?xml version="1.0" encoding="utf-8"?>
<!-- Generator: Adobe Illustrator 22.1.0, SVG Export Plug-In . SVG Version: 6.00 Build 0)  -->
<svg version="1.1" id="Layer_1" xmlns="http://www.w3.org/2000/svg" xmlns:xlink="http://www.w3.org/1999/xlink" x="0px" y="0px"
	 viewBox="0 0 24 24" style="enable-background:new 0 0 24 24;" xml:space="preserve">
<g>
	<title>police-woman-4</title>
	<path d="M11.805,13.66c-0.604,0-1.186-0.223-1.638-0.628c-0.205-0.184-0.223-0.5-0.039-0.706c0.095-0.106,0.231-0.167,0.373-0.167
		c0.123,0,0.242,0.045,0.333,0.128c0.269,0.24,0.612,0.373,0.964,0.373l0.385,0c0.366,0,0.715-0.133,0.984-0.373
		c0.092-0.082,0.21-0.127,0.333-0.127c0.143,0,0.278,0.061,0.373,0.167c0.089,0.099,0.134,0.228,0.126,0.361
		c-0.008,0.133-0.066,0.256-0.166,0.345c-0.453,0.405-1.035,0.628-1.639,0.628H11.805z"/>
	<path d="M11.998,16.662c-1.588,0-4.937-1.863-5.425-4.783c-0.027-0.165-0.134-0.304-0.286-0.373
		c-0.017-0.008-0.032-0.016-0.047-0.024c-0.103-0.061-0.202-0.129-0.296-0.205c-0.376,0.995-1.018,1.854-1.872,2.499
		c-0.014,0.01-0.028,0.021-0.044,0.03c0.694,0.542,1.552,0.839,2.421,0.839c0.058,0,0.116-0.001,0.174-0.004
		c0.004,0,0.023-0.001,0.026-0.001c0.266,0,0.484,0.21,0.495,0.479c0.006,0.133-0.041,0.261-0.131,0.359
		c-0.09,0.099-0.214,0.156-0.347,0.162c-0.071,0.003-0.142,0.005-0.213,0.005c-1.093,0-2.17-0.37-3.031-1.042
		c-0.097-0.072-0.187-0.171-0.253-0.283c-0.277-0.463-0.13-1.074,0.328-1.361c0.852-0.648,1.46-1.597,1.701-2.667
		C5.039,9.918,4.971,9.513,5.001,9.114c0.02-0.264,0.232-0.463,0.494-0.463c0.008,0,0.038,0.001,0.046,0.002
		c0.271,0.021,0.478,0.261,0.457,0.536c-0.02,0.267,0.031,0.536,0.147,0.778c0.015,0.025,0.024,0.047,0.029,0.061
		c0.125,0.236,0.321,0.443,0.563,0.588c0.425,0.198,0.74,0.613,0.821,1.1c0.404,2.415,3.317,3.947,4.439,3.947
		c1.122,0,4.035-1.532,4.439-3.948c0.08-0.482,0.39-0.894,0.83-1.106c0.494-0.3,0.773-0.843,0.73-1.421
		c-0.021-0.275,0.187-0.515,0.461-0.536c0.006,0,0.03-0.001,0.036-0.001c0.261,0,0.48,0.203,0.5,0.463
		c0.028,0.38-0.029,0.754-0.172,1.114c0.236,1.094,0.851,2.065,1.739,2.743c0.201,0.125,0.357,0.34,0.42,0.592
		c0.065,0.259,0.025,0.528-0.113,0.757c-0.068,0.114-0.157,0.212-0.263,0.29c-0.853,0.665-1.927,1.034-3.02,1.034
		c-0.071,0-0.143-0.001-0.214-0.005c-0.276-0.012-0.49-0.246-0.478-0.521c0.012-0.268,0.23-0.478,0.497-0.478
		c0.004,0,0.022,0,0.027,0c0.057,0.003,0.116,0.004,0.175,0.004c0.867,0,1.723-0.295,2.409-0.831
		c-0.004-0.017-0.018-0.026-0.031-0.036c-0.863-0.655-1.509-1.522-1.886-2.527c-0.104,0.087-0.214,0.165-0.329,0.232
		c-0.013,0.008-0.03,0.017-0.046,0.024c-0.152,0.069-0.259,0.208-0.286,0.373C16.935,14.8,13.586,16.662,11.998,16.662z"/>
	<path d="M12,23.659c-0.276,0-0.5-0.224-0.5-0.5v-5c0-0.276,0.224-0.5,0.5-0.5c0.276,0,0.5,0.224,0.5,0.5v5
		C12.5,23.435,12.276,23.659,12,23.659z"/>
	<path d="M23.5,23.659c-0.276,0-0.5-0.224-0.5-0.5v-1c-0.001-1.451-0.915-2.768-2.275-3.277l-4.884-1.64
		c-0.126-0.042-0.229-0.132-0.289-0.251s-0.069-0.255-0.026-0.382c0.069-0.204,0.26-0.341,0.475-0.341
		c0.054,0,0.107,0.009,0.158,0.026l4.901,1.646c1.761,0.658,2.94,2.352,2.941,4.219v1C24,23.435,23.776,23.659,23.5,23.659z"/>
	<path d="M0.5,23.659c-0.276,0-0.5-0.224-0.5-0.5v-1c0.001-1.867,1.176-3.56,2.925-4.213l4.916-1.652
		C7.892,16.277,7.946,16.268,8,16.268c0.215,0,0.406,0.137,0.474,0.341c0.043,0.126,0.033,0.262-0.026,0.382
		S8.286,17.2,8.159,17.242l-4.9,1.646C1.912,19.392,1.001,20.708,1,22.16v1C1,23.435,0.776,23.659,0.5,23.659z"/>
	<path d="M17,23.659c-0.099,0-0.195-0.029-0.278-0.084l-1.277-0.852C15.167,22.538,15,22.227,15,21.891v-1.232c0-0.552,0.448-1,1-1
		h2c0.552,0,1,0.448,1,1v1.232c0,0.335-0.167,0.646-0.446,0.832l-1.277,0.852C17.195,23.63,17.099,23.659,17,23.659z M16,21.891
		l1,0.667l1-0.667l0-1.232h-2L16,21.891z"/>
	<path d="M12,9.659c-3.444,0-6.182-1.355-6.474-3.176c-0.343-0.179-0.603-0.483-0.726-0.85l-1-2.991
		C3.747,2.482,3.736,2.309,3.767,2.144c0.049-0.262,0.197-0.49,0.417-0.641c0.168-0.115,0.363-0.176,0.564-0.176
		c0.062,0,0.124,0.006,0.186,0.017c0.812,0.161,1.875,0.344,2.914,0.344c1.456,0,2.605-0.366,3.511-1.118
		c0.177-0.152,0.407-0.238,0.644-0.238c0.239,0,0.471,0.086,0.653,0.244c0.903,0.749,2.049,1.114,3.502,1.114
		c0.81,0,1.707-0.106,2.908-0.344c0.064-0.012,0.126-0.018,0.188-0.018c0.107,0,0.213,0.017,0.314,0.051
		c0.524,0.174,0.808,0.741,0.635,1.264l-1,2.992c-0.123,0.369-0.385,0.673-0.729,0.852C18.18,8.305,15.443,9.659,12,9.659z
		 M6.623,6.659c0.545,1.127,2.829,2,5.377,2c2.548,0,4.832-0.873,5.377-2H6.623z M5.749,5.317c0.068,0.205,0.259,0.342,0.475,0.342
		h11.555c0.216,0,0.406-0.137,0.474-0.342l1-2.992c-0.767,0.153-1.924,0.356-3.072,0.356c-1.719,0-3.083-0.439-4.173-1.343
		c-1.106,0.907-2.462,1.35-4.155,1.35c-0.877,0-1.835-0.112-3.105-0.362L5.749,5.317z"/>
	<circle cx="12" cy="3.909" r="0.75"/>
</g>
</svg>
