<?xml version="1.0" encoding="utf-8"?>
<!-- Generator: Adobe Illustrator 22.1.0, SVG Export Plug-In . SVG Version: 6.00 Build 0)  -->
<svg version="1.1" id="Layer_1" xmlns="http://www.w3.org/2000/svg" xmlns:xlink="http://www.w3.org/1999/xlink" x="0px" y="0px"
	 viewBox="0 0 24 24" style="enable-background:new 0 0 24 24;" xml:space="preserve">
<g>
	<title>family-outdoors-teeter</title>
	<circle cx="12" cy="10.971" r="0.75"/>
	<path d="M23.5,20.029c-0.163,0-0.316-0.079-0.409-0.212c-1.181-1.677-5.237-4.339-11.092-4.345c-0.913,0-1.809,0.064-2.682,0.192
		c-0.042,0.012-0.086,0.019-0.131,0.02c-2.426,0.373-6.619,1.778-8.278,4.133C0.815,19.95,0.662,20.029,0.5,20.029
		c-0.103,0-0.203-0.031-0.288-0.091c-0.226-0.159-0.28-0.472-0.121-0.697c1.201-1.705,4.325-3.738,8.624-4.485l0.233-2.374
		l-7.256,0.939c-0.066,0.008-0.13,0.012-0.195,0.012c-0.333,0-0.648-0.108-0.913-0.312c-0.317-0.245-0.52-0.598-0.572-0.996
		C0.004,11.962,0,11.897,0,11.833V9.7c-0.002-0.264,0.1-0.516,0.288-0.706c0.188-0.19,0.438-0.296,0.705-0.298
		c0.001,0,0.025,0,0.025,0c0.113,0,0.234,0.025,0.352,0.071c1.666,0.602,3.137,1.651,4.257,3.036l3.422-0.443l0.095-0.97
		c0.223-1.225,1.174-2.166,2.356-2.375V4.471c0-0.276,0.224-0.5,0.5-0.5c0.276,0,0.5,0.224,0.5,0.5v3.544
		c1.181,0.208,2.131,1.14,2.35,2.334l0.008,0.074l3.29-0.403c0.776-1.668,2.003-3.07,3.556-4.063
		c0.094-0.065,0.214-0.116,0.339-0.144c0.07-0.015,0.142-0.023,0.214-0.023c0.466,0,0.877,0.331,0.977,0.786l0.479,2.103
		c0.011,0.05,0.02,0.1,0.026,0.151c0.049,0.397-0.06,0.79-0.307,1.106c-0.247,0.316-0.602,0.517-0.999,0.566l-7.477,0.917
		l0.329,3.341c4.304,0.752,7.426,2.781,8.624,4.481c0.159,0.225,0.104,0.538-0.121,0.697C23.703,19.998,23.603,20.029,23.5,20.029z
		 M12,14.472c0.751,0.001,1.512,0.047,2.266,0.138l-0.35-3.56c-0.002-0.012-0.003-0.025-0.003-0.037
		c0-0.001-0.052-0.525-0.052-0.525c-0.16-0.869-0.944-1.516-1.861-1.517c-0.916,0.001-1.7,0.656-1.865,1.558l-0.399,4.077
		c0.747-0.089,1.501-0.134,2.247-0.134H12z M1,9.697l0,2.136c0,0.021,0.001,0.043,0.004,0.064c0.017,0.133,0.085,0.251,0.191,0.332
		c0.089,0.069,0.193,0.105,0.302,0.105c0.022,0,0.044-0.001,0.066-0.005l2.874-0.372c-0.944-1.008-2.118-1.783-3.422-2.255
		L0.998,9.447L1,9.697z M22.256,6.791c-1.22,0.779-2.217,1.837-2.912,3.082l2.967-0.364c0.274-0.034,0.469-0.284,0.436-0.557
		c-0.002-0.016-0.005-0.034-0.009-0.051L22.256,6.791z"/>
</g>
</svg>
