<?xml version="1.0" encoding="utf-8"?>
<!-- Generator: Adobe Illustrator 22.1.0, SVG Export Plug-In . SVG Version: 6.00 Build 0)  -->
<svg version="1.1" id="Layer_1" xmlns="http://www.w3.org/2000/svg" xmlns:xlink="http://www.w3.org/1999/xlink" x="0px" y="0px"
	 viewBox="0 0 24 24" style="enable-background:new 0 0 24 24;" xml:space="preserve">
<g>
	<title>family-outdoors-swing</title>
	<path d="M20.5,24c-0.276,0-0.5-0.224-0.5-0.5s0.224-0.5,0.5-0.5h0.945L19.488,4.205C19.328,2.376,17.829,1,16,1v15.086
		c0.59,0.209,1,0.774,1,1.414c0,1.378-1.122,2.5-2.5,2.5h-5C8.121,20,7,18.878,7,17.5c0-0.64,0.41-1.205,1-1.414V1H7.667
		C5.838,1,4.339,2.374,4.18,4.196L2.545,23H3.5C3.776,23,4,23.224,4,23.5S3.776,24,3.5,24h-3C0.224,24,0,23.776,0,23.5
		S0.224,23,0.5,23h1.042L3.184,4.11C3.388,1.767,5.315,0,7.667,0H16c2.352,0,4.279,1.767,4.483,4.109L22.45,23h1.05
		c0.276,0,0.5,0.224,0.5,0.5S23.776,24,23.5,24H20.5z M8.5,17C8.224,17,8,17.224,8,17.5C8,18.327,8.673,19,9.5,19h5
		c0.827,0,1.5-0.673,1.5-1.5c0-0.276-0.224-0.5-0.5-0.5H8.5z M15,16V1H9v15H15z"/>
</g>
</svg>
