<?xml version="1.0" encoding="utf-8"?>
<!-- Generator: Adobe Illustrator 22.1.0, SVG Export Plug-In . SVG Version: 6.00 Build 0)  -->
<svg version="1.1" id="Layer_1" xmlns="http://www.w3.org/2000/svg" xmlns:xlink="http://www.w3.org/1999/xlink" x="0px" y="0px"
	 viewBox="0 0 24 24" style="enable-background:new 0 0 24 24;" xml:space="preserve">
<g>
	<title>family-outdoors-playhouse</title>
	<path d="M22.5,24.001c-0.276,0-0.5-0.224-0.5-0.5v-14.5h-3v2.066c0.869,0.225,1.5,1.021,1.5,1.934c0,1.103-0.897,2-2,2
		s-2-0.897-2-2c0-0.913,0.631-1.709,1.5-1.934V9.001h-5v4.066c0.869,0.225,1.5,1.021,1.5,1.934c0,1.103-0.897,2-2,2s-2-0.897-2-2
		c0-0.913,0.631-1.709,1.5-1.934V9.001H9v14.5c0,0.276-0.224,0.5-0.5,0.5S8,23.776,8,23.501v-1.5H2v1.5c0,0.276-0.224,0.5-0.5,0.5
		S1,23.776,1,23.501v-16.5c-0.267,0-0.518-0.104-0.707-0.292C0.104,6.519,0,6.268,0,6.001c0-0.226,0.077-0.448,0.218-0.625l4-5
		C4.409,0.138,4.694,0.001,5,0.001c0.226,0,0.447,0.078,0.624,0.219c0.058,0.046,0.11,0.099,0.156,0.156l4,5
		c0.167,0.209,0.242,0.47,0.212,0.736s-0.161,0.504-0.369,0.67C9.447,6.923,9.226,7,9,7.001l0,1h14.5c0.276,0,0.5,0.224,0.5,0.5
		s-0.224,0.5-0.5,0.5H23v14.5C23,23.776,22.775,24.001,22.5,24.001z M8,21.001v-2H2v2H8z M8,18.001v-2H2v2H8z M12.5,14.001
		c-0.551,0-1,0.448-1,1s0.448,1,1,1c0.552,0,1-0.448,1-1S13.051,14.001,12.5,14.001z M8,15.001v-2H2v2H8z M18.5,12.001
		c-0.552,0-1,0.449-1,1s0.448,1,1,1s1-0.448,1-1S19.051,12.001,18.5,12.001z M8,12.001v-5H2v5H8z M0.999,6.001l8.001,0l-4-5v0
		C4.999,1.001,0.999,6.001,0.999,6.001z"/>
</g>
</svg>
