<?xml version="1.0" encoding="utf-8"?>
<!-- Generator: Adobe Illustrator 22.1.0, SVG Export Plug-In . SVG Version: 6.00 Build 0)  -->
<svg version="1.1" id="Layer_1" xmlns="http://www.w3.org/2000/svg" xmlns:xlink="http://www.w3.org/1999/xlink" x="0px" y="0px"
	 viewBox="0 0 24 24" style="enable-background:new 0 0 24 24;" xml:space="preserve">
<g>
	<title>family-outdoors-tree-house</title>
	<path d="M20.5,24c-0.276,0-0.5-0.224-0.5-0.5v-1h-2v1c0,0.276-0.224,0.5-0.5,0.5S17,23.776,17,23.5V14h-1.5
		c-0.827,0-1.5-0.673-1.5-1.5V7.947c0-0.428,0.184-0.837,0.504-1.121l3.5-3.109C18.279,3.473,18.632,3.339,19,3.339
		s0.721,0.134,0.996,0.378l3.5,3.111C23.816,7.112,24,7.521,24,7.949V12.5c0,0.827-0.673,1.5-1.5,1.5H21v9.5
		C21,23.776,20.776,24,20.5,24z M20,21.5v-2h-2v2H20z M20,18.5v-2h-2v2H20z M20,15.5V14h-2v1.5H20z M22.5,13
		c0.276,0,0.5-0.224,0.5-0.5V7.949c0-0.142-0.061-0.278-0.168-0.373l-3.5-3.111C19.241,4.384,19.123,4.339,19,4.339
		c-0.123,0-0.24,0.045-0.332,0.126l-3.5,3.109C15.062,7.668,15,7.805,15,7.948V12.5c0,0.276,0.224,0.5,0.5,0.5H16v-2
		c0-1.654,1.346-3,3-3s3,1.346,3,3v2H22.5z M21,13v-2c0-1.103-0.897-2-2-2s-2,0.897-2,2v2H21z"/>
	<path d="M10.5,24c-0.276,0-0.5-0.224-0.5-0.5v-7.477c-0.702,0.314-1.456,0.478-2.203,0.478L7.693,16.5H7.2
		c-1.9,0-3.055-0.794-3.689-1.46c-0.531-0.558-0.927-1.292-1.041-1.915c-1.416-0.528-2.379-1.825-2.469-3.346
		C0,9.761,0,9.742,0.001,9.723c0.086-1.493,1.025-2.779,2.406-3.32c0.099-0.758,0.455-1.46,1.014-1.991
		c0.626-0.596,1.44-0.924,2.291-0.924c0.028,0,0.056,0,0.083,0.001C5.959,1.522,7.887,0,10.25,0c2.372,0,4.301,1.53,4.451,3.504
		c0.29,0.013,0.578,0.056,0.859,0.129c0.267,0.069,0.428,0.343,0.358,0.609c-0.057,0.22-0.256,0.375-0.484,0.375l0,0
		c-0.042,0-0.084-0.005-0.125-0.016c-0.256-0.067-0.518-0.1-0.8-0.101c-0.119,0-0.227-0.039-0.319-0.116l-0.3-0.25
		c-0.115-0.095-0.18-0.235-0.18-0.384c0-1.516-1.553-2.75-3.461-2.75C8.343,1,6.788,2.234,6.784,3.751
		c0,0.148-0.066,0.288-0.18,0.383l-0.3,0.25C6.214,4.459,6.1,4.5,5.982,4.5c-0.007,0-0.034-0.001-0.041-0.002
		C5.89,4.494,5.84,4.491,5.79,4.489l-0.05,0c-1.291,0-2.328,1.007-2.36,2.294C3.373,7.001,3.228,7.19,3.018,7.25
		C1.89,7.576,1.081,8.579,1.001,9.75c0.083,1.194,0.912,2.205,2.068,2.52c0.224,0.061,0.379,0.274,0.368,0.506
		c-0.011,0.22,0.175,0.922,0.797,1.575c0.5,0.524,1.42,1.149,2.965,1.149l0.565,0c0.778,0,1.548-0.207,2.235-0.599v-3.941
		C8.3,10.716,7,9.238,7,7.5C7,7.224,7.224,7,7.5,7S8,7.224,8,7.5c0,1.187,0.859,2.213,2,2.448V7c0-0.276,0.224-0.5,0.5-0.5
		S11,6.724,11,7v4.961c0.331-0.046,0.647-0.137,0.944-0.272c0.065-0.03,0.135-0.045,0.206-0.045c0.196,0,0.374,0.115,0.456,0.293
		c0.055,0.122,0.06,0.258,0.013,0.383s-0.14,0.224-0.261,0.28c-0.426,0.194-0.881,0.317-1.358,0.368v1.938
		c0.692,0.395,1.439,0.595,2.222,0.595l0.068,0c0.046,0,0.085-0.002,0.125-0.003c0.052-0.002,0.104-0.004,0.156-0.004
		c0.276,0,0.5,0.224,0.5,0.5s-0.224,0.5-0.5,0.5c-0.039,0-0.078,0.002-0.117,0.003c-0.071,0.003-0.14,0.004-0.21,0.004
		c-0.77,0-1.538-0.164-2.244-0.476V23.5C11,23.776,10.776,24,10.5,24z"/>
</g>
</svg>
