<?xml version="1.0" encoding="utf-8"?>
<!-- Generator: Adobe Illustrator 22.1.0, SVG Export Plug-In . SVG Version: 6.00 Build 0)  -->
<svg version="1.1" id="Layer_1" xmlns="http://www.w3.org/2000/svg" xmlns:xlink="http://www.w3.org/1999/xlink" x="0px" y="0px"
	 viewBox="0 0 24 24" style="enable-background:new 0 0 24 24;" xml:space="preserve">
<g>
	<title>sync-location-refresh</title>
	<path d="M12.5,16.743c-0.225,0-0.438-0.073-0.616-0.212c-0.064-0.05-0.122-0.108-0.171-0.171c-1.368-1.742-3-4.123-3-5.569
		C8.712,9.779,9.105,8.828,9.82,8.112C10.535,7.396,11.485,7.001,12.497,7c2.092,0,3.792,1.699,3.792,3.788
		c0,1.444-1.632,3.827-3,5.573C13.097,16.604,12.81,16.743,12.5,16.743z M12.497,8c-0.744,0.001-1.444,0.291-1.97,0.818
		c-0.526,0.527-0.815,1.227-0.815,1.971c0,0.866,1.068,2.764,2.787,4.954c1.72-2.192,2.788-4.09,2.788-4.953
		C15.288,9.252,14.038,8,12.5,8l-0.003-0.25L12.497,8z"/>
	<path d="M12.489,12.521c-0.459-0.003-0.891-0.184-1.216-0.509c-0.327-0.328-0.506-0.763-0.506-1.226
		c0.002-0.954,0.779-1.73,1.733-1.73c0.463,0,0.898,0.18,1.225,0.506c0.327,0.327,0.508,0.762,0.508,1.224
		c0,0.468-0.182,0.903-0.51,1.229c-0.327,0.326-0.761,0.506-1.223,0.506C12.496,12.521,12.493,12.521,12.489,12.521z M12.5,10.055
		c-0.404,0-0.733,0.328-0.733,0.732c0,0.196,0.076,0.38,0.214,0.519c0.138,0.139,0.322,0.215,0.518,0.216
		c0.197,0,0.38-0.076,0.519-0.214c0.139-0.138,0.215-0.322,0.216-0.518c0-0.198-0.076-0.382-0.215-0.52
		C12.88,10.131,12.696,10.055,12.5,10.055L12.5,10.055z"/>
	<path d="M3.5,15c-0.072,0-0.143-0.016-0.212-0.049c-0.016-0.007-0.046-0.026-0.06-0.037c-0.032-0.02-0.064-0.046-0.092-0.075
		c-0.014-0.013-0.028-0.027-0.038-0.041L0.1,10.8c-0.08-0.107-0.114-0.239-0.095-0.371C0.024,10.297,0.093,10.18,0.2,10.1
		C0.288,10.035,0.391,10,0.5,10c0.157,0,0.306,0.075,0.4,0.2L3,13v-1c0.001-2.644,1.157-5.142,3.172-6.854
		c1.622-1.379,3.69-2.138,5.821-2.138c2.652,0,5.154,1.155,6.865,3.168c0.087,0.102,0.128,0.231,0.117,0.364
		c-0.011,0.133-0.073,0.254-0.175,0.34C18.711,6.958,18.596,7,18.477,7c-0.147,0-0.286-0.064-0.381-0.177
		c-1.521-1.789-3.745-2.816-6.102-2.816c-1.895,0-3.732,0.675-5.175,1.901C5.029,7.43,4.001,9.65,4,12v1l2.1-2.8
		c0.094-0.125,0.244-0.2,0.4-0.2c0.109,0,0.212,0.035,0.299,0.1c0.107,0.08,0.176,0.197,0.195,0.329
		C7.014,10.562,6.98,10.693,6.9,10.8l-3,4c-0.01,0.013-0.023,0.028-0.037,0.04c-0.028,0.03-0.061,0.056-0.099,0.08
		c-0.002,0.002-0.023,0.018-0.053,0.032C3.643,14.984,3.572,15,3.5,15z"/>
	<path d="M12.007,20.997c-2.652,0-5.154-1.155-6.865-3.168c-0.086-0.102-0.128-0.231-0.117-0.364
		c0.011-0.133,0.073-0.254,0.175-0.341c0.09-0.076,0.205-0.119,0.323-0.119c0.147,0,0.286,0.064,0.381,0.176
		c1.521,1.79,3.745,2.816,6.101,2.816c0,0,0,0,0.001,0c1.895,0,3.733-0.675,5.175-1.9C18.973,16.574,20,14.351,20,12v-1l-2.1,2.8
		c-0.093,0.125-0.243,0.2-0.4,0.2c-0.109,0-0.213-0.035-0.3-0.1c-0.107-0.08-0.176-0.197-0.195-0.329
		c-0.019-0.132,0.015-0.264,0.095-0.371l3-4c0.01-0.013,0.023-0.027,0.036-0.039C20.23,9.059,20.362,9,20.5,9
		c0.137,0,0.268,0.058,0.363,0.161C20.877,9.173,20.89,9.187,20.9,9.2l3,4c0.08,0.106,0.114,0.238,0.095,0.37
		c-0.019,0.132-0.088,0.25-0.195,0.33c-0.087,0.065-0.191,0.1-0.3,0.1c-0.157,0-0.307-0.075-0.4-0.2L21,11v1
		c0,2.646-1.156,5.145-3.172,6.859C16.206,20.237,14.139,20.997,12.007,20.997z"/>
</g>
</svg>
