<?xml version="1.0" encoding="utf-8"?>
<!-- Generator: Adobe Illustrator 22.1.0, SVG Export Plug-In . SVG Version: 6.00 Build 0)  -->
<svg version="1.1" id="Layer_1" xmlns="http://www.w3.org/2000/svg" xmlns:xlink="http://www.w3.org/1999/xlink" x="0px" y="0px"
	 viewBox="0 0 24 24" style="enable-background:new 0 0 24 24;" xml:space="preserve">
<g>
	<title>modern-weapon-rifle</title>
	<path d="M3.807,23.587c-0.083,0-0.167-0.007-0.251-0.021c-0.395-0.066-0.741-0.282-0.973-0.608l-2.111-2.96
		c-0.233-0.327-0.324-0.724-0.258-1.119c0.066-0.395,0.282-0.741,0.609-0.973l4.281-3.053c0.544-0.388,0.904-0.964,1.014-1.622
		l0.056-0.337c0.154-0.922,0.659-1.729,1.42-2.272l2.246-1.6l11.805-8.419c0.17-0.122,0.371-0.187,0.581-0.187
		c0.322,0,0.626,0.155,0.813,0.416l0.584,0.819c0.155,0.216,0.217,0.48,0.174,0.744c-0.043,0.264-0.187,0.495-0.403,0.651
		l-4.078,2.905l0.29,0.406c0.482,0.67,0.328,1.609-0.343,2.092l-6.154,4.388c0.477,1.075,0.14,2.351-0.834,3.046
		c-0.426,0.303-0.927,0.464-1.449,0.464c-0.311,0-0.622-0.06-0.914-0.175c-0.055,0.272-0.17,0.527-0.34,0.752l-4.57,6.067
		c-0.092,0.122-0.202,0.229-0.327,0.319C4.419,23.49,4.119,23.587,3.807,23.587z M8.174,11.434
		c-0.543,0.388-0.904,0.964-1.014,1.622l-0.056,0.337c-0.154,0.922-0.659,1.729-1.42,2.272l-4.281,3.053
		c-0.225,0.16-0.277,0.473-0.117,0.698l2.111,2.96c0.078,0.109,0.193,0.181,0.325,0.203c0.028,0.005,0.057,0.007,0.085,0.007
		c0.103,0,0.203-0.032,0.288-0.093c0.042-0.03,0.079-0.066,0.109-0.106l4.571-6.069c0.223-0.294,0.234-0.698,0.028-1.004
		c0,0,0,0,0,0c-0.001,0-0.008-0.009-0.014-0.018c-0.16-0.224-0.108-0.537,0.117-0.697c0.01-0.007,0.022-0.014,0.034-0.02l3.085-2.2
		l0.656-2.31l-2.402-0.133L8.174,11.434z M9.967,15.073c0.25,0.174,0.552,0.271,0.862,0.271c0.312,0,0.612-0.096,0.866-0.278
		c0.52-0.371,0.738-1.033,0.569-1.631L9.967,15.073z M13.327,11.451l1.107-0.79l0.235-1.403l-0.903,0.643L13.327,11.451z
		 M15.586,9.84l0.884-0.631l0.235-1.401l-0.884,0.629L15.586,9.84z M13.176,9.095l9.635-6.863l-0.581-0.816l-0.002-0.251v0.25
		c0,0-10.646,7.592-10.646,7.592L13.176,9.095z M17.622,8.388l1.053-0.751c0.11-0.079,0.183-0.196,0.205-0.329
		c0.022-0.132-0.009-0.264-0.087-0.372l-0.291-0.408l-0.646,0.46L17.622,8.388z"/>
</g>
</svg>
