<?xml version="1.0" encoding="utf-8"?>
<!-- Generator: Adobe Illustrator 22.1.0, SVG Export Plug-In . SVG Version: 6.00 Build 0)  -->
<svg version="1.1" id="Layer_1" xmlns="http://www.w3.org/2000/svg" xmlns:xlink="http://www.w3.org/1999/xlink" x="0px" y="0px"
	 viewBox="0 0 24 24" style="enable-background:new 0 0 24 24;" xml:space="preserve">
<g>
	<title>modern-weapon-machine-gun-1</title>
	<path d="M3.859,24c-0.164,0-0.327-0.041-0.472-0.119c-0.086-0.046-0.165-0.105-0.234-0.174l-2.17-2.171
		c-0.389-0.39-0.389-1.024,0-1.414l4.5-4.5v-1.887c0-0.395,0.151-0.767,0.427-1.05l6.542-6.69c0.196-0.194,0.448-0.299,0.713-0.299
		c0.274,0.002,0.524,0.107,0.712,0.297l0.116,0.117l1.345-1.345c0.283-0.283,0.66-0.439,1.061-0.439h2.38l1.747-1.747L18.8,0.853
		c-0.195-0.195-0.195-0.512,0-0.707c0.094-0.094,0.22-0.146,0.354-0.146s0.259,0.052,0.354,0.146l1.725,1.725l1.226-1.225
		c0.094-0.094,0.22-0.146,0.354-0.146s0.259,0.052,0.354,0.146c0.195,0.195,0.195,0.512,0,0.707L16.158,8.36
		c0.202,0.379,0.142,0.858-0.173,1.174l-0.855,0.855c0.914,0.819,2.063,1.368,3.262,1.555c0.544,0.084,0.919,0.596,0.835,1.141
		c-0.032,0.21-0.129,0.402-0.28,0.553l-1.206,1.206c-0.186,0.186-0.444,0.293-0.707,0.293c-0.005,0-0.034-0.001-0.039-0.001
		c-1.747-0.057-3.408-0.734-4.699-1.913l-2.107,2.106l2.294,2.293c0.39,0.39,0.39,1.024,0,1.414l-1.293,1.293
		c-0.189,0.189-0.44,0.292-0.707,0.292c-0.267,0-0.519-0.104-0.707-0.292l-2.172-2.171l-2.864,5.317C4.567,23.798,4.229,24,3.859,24
		z M1.69,20.828L3.861,23l3.006-5.582l-0.883-0.883L1.69,20.828z M10.483,19.621l1.293-1.293l-2.293-2.292L8.19,17.328
		L10.483,19.621z M7.483,16.62l7.795-7.794l-2.112-2.131l-6.54,6.689c-0.092,0.094-0.142,0.218-0.142,0.35v1.886L7.483,16.62z
		 M13.004,12.514c1.109,0.999,2.531,1.573,4.03,1.622l1.205-1.205c-1.408-0.219-2.754-0.868-3.817-1.835L13.004,12.514z
		 M15.486,7.617l2.292-2.292h-1.379c-0.132,0-0.26,0.053-0.354,0.146L14.697,6.82L15.486,7.617z"/>
	<path d="M8.302,14.178c-0.134,0-0.259-0.052-0.354-0.146s-0.146-0.22-0.146-0.354s0.052-0.259,0.146-0.354l1-1
		c0.094-0.094,0.22-0.146,0.354-0.146s0.259,0.052,0.354,0.146s0.146,0.22,0.146,0.354s-0.052,0.259-0.146,0.354l-1,1
		C8.561,14.126,8.435,14.178,8.302,14.178z"/>
</g>
</svg>
