<?xml version="1.0" encoding="utf-8"?>
<!-- Generator: Adobe Illustrator 22.1.0, SVG Export Plug-In . SVG Version: 6.00 Build 0)  -->
<svg version="1.1" id="Layer_1" xmlns="http://www.w3.org/2000/svg" xmlns:xlink="http://www.w3.org/1999/xlink" x="0px" y="0px"
	 viewBox="0 0 24 24" style="enable-background:new 0 0 24 24;" xml:space="preserve">
<g>
	<title>modern-weapon-tank-machine-gun</title>
	<circle cx="10.5" cy="19.511" r="0.75"/>
	<path d="M21.5,23.011c-0.134,0-0.259-0.052-0.354-0.146l-2.414-2.414c-0.283-0.283-0.66-0.439-1.061-0.439h-3.711
		c-0.245,1.7-1.723,3-3.461,3c-1.354,0-2.601-0.806-3.171-2.027L0.644,22.99c-0.048,0.014-0.096,0.021-0.144,0.021
		c-0.222,0-0.415-0.143-0.479-0.356c-0.079-0.264,0.071-0.543,0.335-0.623l6.683-2.005C7.013,19.854,7,19.681,7,19.511
		c0-0.754,0.247-1.489,0.7-2.093c0,0-0.701-0.701-0.702-0.702c-0.188-0.189-0.291-0.439-0.291-0.706
		c0-0.268,0.105-0.519,0.294-0.707l0.314-0.314c-0.724-0.983-0.633-2.366,0.245-3.245l1.086-1.086
		c0.094-0.094,0.22-0.146,0.354-0.146s0.259,0.052,0.354,0.146S9.5,10.877,9.5,11.011s-0.052,0.259-0.146,0.354l-1.086,1.086
		c-0.487,0.487-0.569,1.241-0.232,1.818l3.197-3.197c0.471-0.471,1.098-0.73,1.765-0.73c0.284,0,0.561,0.047,0.825,0.139
		l5.018-5.018c-0.422-0.737-0.306-1.694,0.305-2.305L21,1.303c0.182-0.182,0.439-0.286,0.707-0.286s0.526,0.104,0.707,0.286
		l1.293,1.293C23.896,2.785,24,3.036,24,3.303c0,0.267-0.104,0.518-0.293,0.707l-1.854,1.854c-0.361,0.362-0.842,0.561-1.354,0.561
		c-0.338,0-0.663-0.088-0.952-0.255l-4.842,4.842c0.021,0.02,0.042,0.039,0.062,0.059l1.379,1.379
		c0.283,0.283,0.439,0.659,0.439,1.06c0,0.401-0.156,0.778-0.439,1.061L13.3,17.418c0.353,0.469,0.578,1.013,0.661,1.594h3.711
		c0.668,0,1.296,0.26,1.768,0.732l2.414,2.414c0.195,0.195,0.195,0.512,0,0.707C21.759,22.959,21.633,23.011,21.5,23.011z
		 M10.5,17.011c-1.379,0-2.5,1.122-2.5,2.5s1.121,2.5,2.5,2.5c1.378,0,2.5-1.122,2.5-2.5S11.878,17.011,10.5,17.011z M10.5,16.011
		c0.754,0,1.489,0.247,2.093,0.699l2.846-2.846c0.094-0.094,0.146-0.22,0.146-0.353s-0.052-0.259-0.146-0.354l-1.379-1.379
		C13.778,11.496,13.401,11.34,13,11.34s-0.778,0.156-1.06,0.438l-4.232,4.232l0.699,0.7C9.011,16.258,9.746,16.011,10.5,16.011z
		 M21.708,2.013c-0.002,0-0.004,0-0.004,0.001l-1.85,1.851c-0.356,0.357-0.356,0.937,0,1.293c0.173,0.173,0.402,0.268,0.646,0.268
		s0.474-0.095,0.646-0.268L23,3.303L21.707,2.01L21.708,2.013z"/>
</g>
</svg>
