<?xml version="1.0" encoding="utf-8"?>
<!-- Generator: Adobe Illustrator 22.1.0, SVG Export Plug-In . SVG Version: 6.00 Build 0)  -->
<svg version="1.1" id="Layer_1" xmlns="http://www.w3.org/2000/svg" xmlns:xlink="http://www.w3.org/1999/xlink" x="0px" y="0px"
	 viewBox="0 0 24 24" style="enable-background:new 0 0 24 24;" xml:space="preserve">
<g>
	<title>modern-weapon-cannon-1</title>
	<path d="M11.499,20.421c-1.733,0-3.343-0.906-4.253-2.379l-6.578,2.349c-0.054,0.019-0.11,0.029-0.168,0.029
		c-0.211,0-0.4-0.134-0.471-0.332c-0.045-0.126-0.038-0.261,0.019-0.382c0.057-0.121,0.158-0.212,0.284-0.257l6.474-2.312
		c-0.035-0.098-0.068-0.2-0.099-0.307c-0.055,0.005-0.108,0.007-0.16,0.007c-0.807,0-1.53-0.447-1.893-1.155
		c-0.442,0.75-1.26,1.238-2.155,1.238c-1.379,0-2.5-1.122-2.5-2.5c0-0.276,0.224-0.5,0.5-0.5s0.5,0.224,0.5,0.5
		c0,0.827,0.673,1.5,1.5,1.5s1.5-0.673,1.5-1.5v-0.563c-0.236-1.444,0.526-2.874,1.859-3.484L20.53,3.667
		c0.133-0.061,0.273-0.091,0.417-0.091c0.38,0,0.722,0.212,0.893,0.553c0,0,2.067,4.134,2.068,4.137
		c0.229,0.501,0.009,1.096-0.492,1.326l-7.525,3.452c0.399,0.732,0.608,1.549,0.608,2.378
		C16.499,18.178,14.256,20.421,11.499,20.421z M7.99,17.335c0.705,1.288,2.045,2.086,3.509,2.086c2.205,0,4-1.794,4-4s-1.794-4-4-4
		c-2.206,0-4,1.794-4,4c0,0.576,0.125,1.137,0.37,1.668c0.046,0.05,0.079,0.103,0.101,0.163C7.981,17.282,7.987,17.31,7.99,17.335z
		 M6.274,11.284c-1.096,0.501-1.604,1.771-1.156,2.891L5.5,15.129c0.169,0.42,0.567,0.695,1.02,0.704
		c-0.014-0.146-0.02-0.281-0.02-0.413c0-2.757,2.243-5,5-5c1.483,0,2.864,0.648,3.82,1.784l7.679-3.523l-2.052-4.106L6.274,11.284z"
		/>
	<path d="M11.499,16.921c-0.827,0-1.5-0.673-1.5-1.5s0.673-1.5,1.5-1.5c0.827,0,1.5,0.673,1.5,1.5S12.326,16.921,11.499,16.921z
		 M11.499,14.921c-0.276,0-0.5,0.224-0.5,0.5s0.224,0.5,0.5,0.5c0.276,0,0.5-0.224,0.5-0.5S11.775,14.921,11.499,14.921z"/>
</g>
</svg>
