<?xml version="1.0" encoding="utf-8"?>
<!-- Generator: Adobe Illustrator 22.1.0, SVG Export Plug-In . SVG Version: 6.00 Build 0)  -->
<svg version="1.1" id="Layer_1" xmlns="http://www.w3.org/2000/svg" xmlns:xlink="http://www.w3.org/1999/xlink" x="0px" y="0px"
	 viewBox="0 0 24 24" style="enable-background:new 0 0 24 24;" xml:space="preserve">
<g>
	<title>modern-weapon-bullets</title>
	<path d="M0.5,8C0.224,8,0,7.776,0,7.5v-7C0,0.224,0.224,0,0.5,0S1,0.224,1,0.5V1h16.5C20.626,1,24,2.147,24,4s-3.374,3-6.5,3H1v0.5
		C1,7.776,0.776,8,0.5,8z M17,6V2H1v4H17z M18,5.989C20.792,5.873,23,4.83,23,4s-2.208-1.873-5-1.989V5.989z"/>
	<path d="M23.5,16c-0.276,0-0.5-0.224-0.5-0.5V15H6.5C3.374,15,0,13.853,0,12s3.374-3,6.5-3H23V8.5C23,8.224,23.224,8,23.5,8
		S24,8.224,24,8.5v7C24,15.776,23.776,16,23.5,16z M23,14v-4H7v4H23z M6,10.011C3.208,10.127,1,11.17,1,12
		c0,0.83,2.208,1.874,5,1.989V10.011z"/>
	<path d="M0.5,24C0.224,24,0,23.776,0,23.5v-7C0,16.224,0.224,16,0.5,16S1,16.224,1,16.5V17h16.5c3.126,0,6.5,1.147,6.5,3
		s-3.374,3-6.5,3H1v0.5C1,23.776,0.776,24,0.5,24z M17,22v-4H1v4H17z M18,21.989c2.792-0.116,5-1.159,5-1.989s-2.208-1.874-5-1.989
		V21.989z"/>
</g>
</svg>
