<?xml version="1.0" encoding="utf-8"?>
<!-- Generator: Adobe Illustrator 22.1.0, SVG Export Plug-In . SVG Version: 6.00 Build 0)  -->
<svg version="1.1" id="Layer_1" xmlns="http://www.w3.org/2000/svg" xmlns:xlink="http://www.w3.org/1999/xlink" x="0px" y="0px"
	 viewBox="0 0 24 24" style="enable-background:new 0 0 24 24;" xml:space="preserve">
<g>
	<title>modern-weapon-gun-1</title>
	<path d="M4.5,23c-0.551,0-1-0.448-1-1v-1H3c-0.142,0-0.278-0.061-0.373-0.167c-0.095-0.105-0.14-0.247-0.124-0.389l0.955-8.598
		l-1.933-0.644C0.912,10.998,0.5,10.426,0.5,9.779V3.618c0-0.155,0.037-0.31,0.106-0.448l0.809-1.618C1.585,1.212,1.928,1,2.309,1H5
		c0.827,0,1.5,0.673,1.5,1.5V3h9.191l0.724-1.448C16.585,1.212,16.928,1,17.309,1H18.5c0.552,0,1,0.449,1,1v3h3c0.552,0,1,0.449,1,1
		v1c0,0.551-0.448,1-1,1h-3v1.5c0,1.379-1.122,2.5-2.5,2.5h-3.14l-0.658,1.974C12.998,14.588,12.426,15,11.779,15H9.114l-0.556,5
		H9.5c0.276,0,0.5,0.224,0.5,0.5S9.776,21,9.5,21h-2v1c0,0.552-0.449,1-1,1H4.5z M4.5,22h2v-1h-2V22z M7.552,20l0.951-8.555
		C8.531,11.191,8.745,11,9,11h8c0.64,0,1.203-0.414,1.412-1H1.551c0.058,0.117,0.161,0.21,0.291,0.254l2.316,0.772
		c0.222,0.074,0.365,0.297,0.339,0.53L3.559,20H7.552z M11.779,14c0.216,0,0.406-0.137,0.474-0.342L12.806,12H9.448l-0.222,2H11.779
		z M18.5,9V2h-1.191l-0.862,1.724C16.362,3.894,16.19,4,16,4H6C5.724,4,5.5,3.776,5.5,3.5v-1C5.5,2.224,5.276,2,5,2H2.308L1.5,3.618
		L1.5,9H18.5z M22.5,7V6h-3v1H22.5z"/>
	<path d="M13,8c-0.64,0-1.205-0.41-1.414-1H9C8.724,7,8.5,6.776,8.5,6.5S8.724,6,9,6h2.586C11.795,5.41,12.36,5,13,5
		c0.827,0,1.5,0.673,1.5,1.5S13.827,8,13,8z M13,6c-0.276,0-0.5,0.224-0.5,0.5S12.724,7,13,7s0.5-0.224,0.5-0.5S13.276,6,13,6z"/>
</g>
</svg>
