<?xml version="1.0" encoding="utf-8"?>
<!-- Generator: Adobe Illustrator 22.1.0, SVG Export Plug-In . SVG Version: 6.00 Build 0)  -->
<svg version="1.1" id="Layer_1" xmlns="http://www.w3.org/2000/svg" xmlns:xlink="http://www.w3.org/1999/xlink" x="0px" y="0px"
	 viewBox="0 0 24 24" style="enable-background:new 0 0 24 24;" xml:space="preserve">
<g>
	<title>modern-weapon-die-cast</title>
	<path d="M0.999,22.401c-0.159,0-0.315-0.038-0.455-0.109c-0.491-0.25-0.687-0.854-0.438-1.345l0.499-0.994
		c0.169-0.34,0.512-0.552,0.893-0.553h0.501l8.834-8.836c0.006-0.008,0.013-0.015,0.019-0.022c0.007-0.007,0.016-0.014,0.024-0.021
		L12.5,8.898l-0.442-0.446c-0.282-0.282-0.438-0.658-0.438-1.059c0-0.401,0.156-0.777,0.439-1.061l0.794-0.794
		c0.094-0.094,0.22-0.146,0.354-0.146s0.259,0.052,0.354,0.146c0.195,0.195,0.195,0.512,0,0.707l-0.793,0.793
		c-0.096,0.097-0.147,0.222-0.147,0.354c0,0.133,0.052,0.259,0.147,0.353l0.44,0.444l4.132-4.132
		c0.005-0.005,0.009-0.011,0.014-0.015c0.005-0.005,0.01-0.009,0.015-0.014L19.5,1.897c0.189-0.189,0.44-0.292,0.707-0.292
		c0.267,0,0.518,0.104,0.707,0.292l2.793,2.793c0.389,0.39,0.389,1.024,0,1.414l-4.144,4.145l3.416,11.506
		c0.038,0.128,0.024,0.263-0.04,0.381s-0.169,0.203-0.298,0.241c-0.045,0.013-0.094,0.021-0.142,0.021
		c-0.22,0-0.417-0.147-0.479-0.358l-3.021-10.175l-3.021,10.175c-0.062,0.211-0.26,0.358-0.479,0.358
		c-0.049,0-0.097-0.007-0.143-0.021c-0.128-0.038-0.233-0.123-0.297-0.241s-0.078-0.253-0.04-0.381l2.939-9.901l-7.644,7.646
		c0.196,0.094,0.359,0.252,0.461,0.455l0.5,1c0.069,0.139,0.105,0.292,0.105,0.446c0,0.267-0.104,0.519-0.292,0.708
		c-0.189,0.189-0.44,0.293-0.707,0.294C10.382,22.401,0.999,22.401,0.999,22.401z M10.381,21.401l-0.5-1l-8.382,0
		c0,0-0.499,0.996-0.5,0.998l0.013,0.002H10.381z M8.999,19.401l5.002-5.003l-2.793-2.793l-7.794,7.796H8.999z M14.708,13.691
		L20.5,7.898l-2.793-2.793l-4.13,4.131c-0.006,0.007-0.012,0.014-0.018,0.02c-0.006,0.006-0.012,0.012-0.019,0.017l-1.625,1.625
		L14.708,13.691z M21.207,7.19L23,5.397l-2.793-2.793l-1.793,1.793L21.207,7.19z"/>
</g>
</svg>
