<?xml version="1.0" encoding="utf-8"?>
<!-- Generator: Adobe Illustrator 22.1.0, SVG Export Plug-In . SVG Version: 6.00 Build 0)  -->
<svg version="1.1" id="Layer_1" xmlns="http://www.w3.org/2000/svg" xmlns:xlink="http://www.w3.org/1999/xlink" x="0px" y="0px"
	 viewBox="0 0 24 24" style="enable-background:new 0 0 24 24;" xml:space="preserve">
<g>
	<title>shopping-cart-man-1</title>
	<path d="M16.5,24.004c-0.258,0-0.477-0.201-0.498-0.458l-0.462-5.542H13.5c-0.276,0-0.5-0.224-0.5-0.5v-3.5
		c0-3.033,2.467-5.5,5.5-5.5s5.5,2.467,5.5,5.5v3.5c0,0.276-0.224,0.5-0.5,0.5h-2.04l-0.462,5.542
		c-0.021,0.257-0.24,0.458-0.498,0.458H16.5z M20.04,23.004l0.462-5.542c0.021-0.257,0.24-0.458,0.498-0.458h2v-3
		c0-2.481-2.019-4.5-4.5-4.5s-4.5,2.019-4.5,4.5v3h2c0.258,0,0.477,0.201,0.498,0.458l0.462,5.542H20.04z"/>
	<path d="M18.5,8.004c-2.206,0-4-1.794-4-4c0-1.647,1.038-3.149,2.583-3.736l0.042-0.015c0.129-0.047,0.238-0.081,0.349-0.11
		c0.041-0.011,0.083-0.022,0.126-0.033c0.091-0.021,0.182-0.037,0.273-0.052l0.038-0.008c0.028-0.006,0.056-0.012,0.085-0.015
		c0.016-0.002,0.031-0.003,0.046-0.004c0.045-0.004,0.078-0.007,0.112-0.009l0.041-0.003c0.094-0.007,0.188-0.013,0.281-0.014
		c0.013,0,0.023,0,0.031,0c0.02,0,0.031,0.001,0.043,0.002c0.123,0.003,0.23,0.007,0.336,0.017l0.08,0.01
		c0.105,0.012,0.209,0.027,0.312,0.048c0.022,0.004,0.094,0.021,0.094,0.021c0.094,0.021,0.188,0.044,0.281,0.072
		c0.029,0.009,0.117,0.039,0.117,0.039c0.081,0.027,0.162,0.056,0.241,0.089c0.038,0.016,0.077,0.033,0.115,0.051l0.026,0.012
		c0.068,0.031,0.135,0.062,0.2,0.096c0.053,0.028,0.104,0.058,0.156,0.088c0.06,0.035,0.114,0.067,0.167,0.101
		c0.061,0.039,0.119,0.082,0.178,0.125c0.051,0.037,0.087,0.063,0.123,0.092c0.067,0.052,0.131,0.108,0.194,0.165
		c0,0,0.064,0.058,0.084,0.077c0.073,0.069,0.143,0.142,0.211,0.217l0.041,0.045C22.146,2.102,22.5,3.037,22.5,4.004
		C22.5,6.209,20.706,8.004,18.5,8.004z M15.654,3.062C15.552,3.367,15.5,3.682,15.5,4.004c0,1.654,1.346,3,3,3
		c1.576,0,2.873-1.222,2.991-2.768c-0.589,0.178-1.2,0.268-1.82,0.268c-0.002,0-0.006,0-0.006,0
		C18.218,4.504,16.776,3.982,15.654,3.062z M19.686,3.504c0.591-0.004,1.156-0.099,1.698-0.284
		c-0.149-0.567-0.459-1.071-0.906-1.466c-0.069-0.061-0.131-0.11-0.194-0.157l-0.044-0.033c-0.055-0.04-0.112-0.076-0.168-0.111
		c-0.031-0.019-0.055-0.034-0.079-0.048c-0.049-0.028-0.099-0.054-0.15-0.08c-0.038-0.019-0.076-0.038-0.114-0.055
		c-0.043-0.019-0.086-0.037-0.129-0.055c-0.049-0.019-0.1-0.038-0.151-0.055c-0.035-0.012-0.071-0.023-0.106-0.033
		c-0.062-0.018-0.126-0.035-0.189-0.049L19.069,1.06c-0.073-0.014-0.148-0.025-0.224-0.034l-0.061-0.007
		c-0.081-0.008-0.163-0.011-0.246-0.012l-0.055-0.001c-0.078,0-0.154,0.005-0.229,0.012L18.17,1.023
		c-0.04,0.004-0.079,0.011-0.117,0.018l-0.036,0.006c-0.067,0.011-0.12,0.02-0.172,0.031c-0.022,0.005-0.101,0.026-0.101,0.026
		c-0.073,0.02-0.147,0.041-0.22,0.066l-0.03,0.011c-0.542,0.201-1.01,0.545-1.35,0.984c0.963,0.851,2.232,1.336,3.517,1.338
		c0.003,0,0.005,0,0.008,0C19.673,3.504,19.686,3.504,19.686,3.504z"/>
	<path d="M2.5,21.004c-0.276,0-0.5-0.224-0.5-0.5s0.224-0.5,0.5-0.5h5c0.345,0,0.643-0.243,0.71-0.579l0.084-0.421H2.5
		c-0.52,0-0.971-0.334-1.122-0.832l-1.32-4.402C0.019,13.642-0.001,13.508,0,13.374c0.001-0.756,0.616-1.371,1.371-1.371h8.316
		l0.123-0.617c0.162-0.813,0.858-1.381,1.691-1.383h1c0.276,0,0.5,0.224,0.5,0.5s-0.224,0.5-0.5,0.5h-1
		c-0.346,0-0.643,0.243-0.71,0.579l-1.6,8.038c-0.16,0.802-0.87,1.383-1.687,1.383H2.5z M1.371,13.004
		C1.167,13.004,1,13.17,1,13.374c0,0.038,0.005,0.073,0.016,0.108l1.319,4.401c0.022,0.072,0.088,0.121,0.165,0.121h5.992l0.995-5
		H1.371z"/>
	<circle cx="2.75" cy="23.254" r="0.75"/>
	<circle cx="7.75" cy="23.254" r="0.75"/>
</g>
</svg>
