<?xml version="1.0" encoding="utf-8"?>
<!-- Generator: Adobe Illustrator 22.1.0, SVG Export Plug-In . SVG Version: 6.00 Build 0)  -->
<svg version="1.1" id="Layer_1" xmlns="http://www.w3.org/2000/svg" xmlns:xlink="http://www.w3.org/1999/xlink" x="0px" y="0px"
	 viewBox="0 0 24 24" style="enable-background:new 0 0 24 24;" xml:space="preserve">
<g>
	<title>shopping-cart-seach</title>
	<path d="M8,21c-1.103,0-2-0.897-2-2c0-0.88,0.571-1.643,1.391-1.904L3.694,1.385C3.641,1.159,3.441,1,3.208,1H0.5
		C0.224,1,0,0.776,0,0.5S0.224,0,0.5,0h2.708c0.699,0,1.3,0.476,1.46,1.156L5.807,6h16.305c0.161,0,0.321,0.026,0.474,0.077
		c0.38,0.127,0.688,0.394,0.868,0.752c0.179,0.358,0.208,0.765,0.082,1.145l-1.078,3.23c-0.068,0.204-0.259,0.342-0.474,0.342
		c-0.054,0-0.107-0.009-0.158-0.026c-0.261-0.087-0.403-0.371-0.316-0.633l1.077-3.23c0.042-0.126,0.032-0.262-0.028-0.382
		c-0.06-0.12-0.162-0.208-0.289-0.251C22.219,7.009,22.166,7,22.112,7H6.043l1.647,7h4.284c0.276,0,0.5,0.224,0.5,0.5
		s-0.224,0.5-0.5,0.5H7.925l0.471,2H12c0.276,0,0.5,0.224,0.5,0.5S12.276,18,12,18H9.732C9.907,18.301,10,18.643,10,19
		C10,20.103,9.103,21,8,21z M8,18c-0.551,0-1,0.448-1,1s0.449,1,1,1s1-0.448,1-1S8.551,18,8,18z"/>
	<path d="M23.5,24c-0.134,0-0.259-0.052-0.354-0.146l-2.842-2.843C19.507,21.65,18.52,22,17.5,22c-2.481,0-4.5-2.019-4.5-4.5
		s2.019-4.5,4.5-4.5s4.5,2.019,4.5,4.5c0,1.019-0.349,2.006-0.988,2.804l2.842,2.843C23.948,23.241,24,23.366,24,23.5
		s-0.052,0.259-0.146,0.354S23.634,24,23.5,24z M17.5,14c-1.93,0-3.5,1.57-3.5,3.5s1.57,3.5,3.5,3.5s3.5-1.57,3.5-3.5
		S19.43,14,17.5,14z"/>
</g>
</svg>
