<?xml version="1.0" encoding="utf-8"?>
<!-- Generator: Adobe Illustrator 22.1.0, SVG Export Plug-In . SVG Version: 6.00 Build 0)  -->
<svg version="1.1" id="Layer_1" xmlns="http://www.w3.org/2000/svg" xmlns:xlink="http://www.w3.org/1999/xlink" x="0px" y="0px"
	 viewBox="0 0 24 24" style="enable-background:new 0 0 24 24;" xml:space="preserve">
<g>
	<title>shopping-cart-add</title>
	<path d="M7.999,21c-1.103,0-2-0.897-2-2c0-0.88,0.572-1.644,1.392-1.904L3.694,1.385C3.641,1.159,3.441,1,3.208,1H0.5
		C0.224,1,0,0.776,0,0.5S0.224,0,0.5,0h2.707c0.7,0,1.301,0.476,1.461,1.156L5.808,6h16.304c0.161,0,0.321,0.026,0.474,0.077
		c0.38,0.126,0.688,0.394,0.868,0.752c0.179,0.358,0.208,0.765,0.082,1.145l-1.077,3.231c-0.068,0.204-0.259,0.342-0.474,0.342
		c-0.054,0-0.107-0.009-0.158-0.026c-0.261-0.087-0.403-0.371-0.316-0.633l1.077-3.231c0.042-0.127,0.032-0.262-0.027-0.382
		c-0.06-0.12-0.162-0.208-0.289-0.251C22.22,7.009,22.166,7,22.112,7H6.043l1.647,7h4.284c0.276,0,0.5,0.224,0.5,0.5
		s-0.224,0.5-0.5,0.5H7.926l0.471,2H12c0.276,0,0.5,0.224,0.5,0.5S12.276,18,12,18H9.731c0.175,0.301,0.268,0.643,0.268,1
		C9.999,20.103,9.102,21,7.999,21z M7.999,18c-0.551,0-1,0.448-1,1s0.449,1,1,1s1-0.448,1-1S8.551,18,7.999,18z"/>
	<path d="M18.501,24c-3.033,0-5.5-2.467-5.5-5.5s2.467-5.5,5.5-5.5s5.5,2.467,5.5,5.5S21.534,24,18.501,24z M18.501,14
		c-2.481,0-4.5,2.019-4.5,4.5s2.019,4.5,4.5,4.5s4.5-2.019,4.5-4.5S20.982,14,18.501,14z"/>
	<path d="M18.501,21c-0.276,0-0.5-0.224-0.5-0.5V19h-1.5c-0.276,0-0.5-0.224-0.5-0.5s0.224-0.5,0.5-0.5h1.5v-1.5
		c0-0.276,0.224-0.5,0.5-0.5s0.5,0.224,0.5,0.5V18h1.5c0.276,0,0.5,0.224,0.5,0.5s-0.224,0.5-0.5,0.5h-1.5v1.5
		C19.001,20.776,18.777,21,18.501,21z"/>
</g>
</svg>
