<?xml version="1.0" encoding="utf-8"?>
<!-- Generator: Adobe Illustrator 22.1.0, SVG Export Plug-In . SVG Version: 6.00 Build 0)  -->
<svg version="1.1" id="Layer_1" xmlns="http://www.w3.org/2000/svg" xmlns:xlink="http://www.w3.org/1999/xlink" x="0px" y="0px"
	 viewBox="0 0 24 24" style="enable-background:new 0 0 24 24;" xml:space="preserve">
<g>
	<title>shopping-cart</title>
	<path d="M3.5,17C2.673,17,2,16.327,2,15.5S2.673,14,3.5,14h12c0.276,0,0.5-0.224,0.5-0.5S15.776,13,15.5,13h-13
		C1.673,13,1,12.327,1,11.5S1.673,10,2.5,10H16c0.276,0,0.5-0.224,0.5-0.5S16.276,9,16,9H1.5C0.673,9,0,8.327,0,7.5S0.673,6,1.5,6
		h16C17.776,6,18,6.224,18,6.5S17.776,7,17.5,7h-16C1.224,7,1,7.224,1,7.5S1.224,8,1.5,8H16c0.827,0,1.5,0.673,1.5,1.5
		S16.827,11,16,11H2.5C2.224,11,2,11.224,2,11.5S2.224,12,2.5,12h13c0.827,0,1.5,0.673,1.5,1.5S16.327,15,15.5,15h-12
		C3.224,15,3,15.224,3,15.5S3.224,16,3.5,16h14.562l1.877-13.141C20.008,2.37,20.434,2,20.929,2H23.5C23.776,2,24,2.224,24,2.5
		S23.776,3,23.5,3h-2.571l-1.877,13.141C18.983,16.63,18.557,17,18.062,17H3.5z"/>
	<path d="M5.996,22c-1.103,0-2-0.897-2-2s0.897-2,2-2s2,0.897,2,2S7.099,22,5.996,22z M5.996,19c-0.551,0-1,0.448-1,1s0.449,1,1,1
		s1-0.448,1-1S6.547,19,5.996,19z"/>
	<path d="M16.996,22c-1.103,0-2-0.897-2-2s0.897-2,2-2s2,0.897,2,2S18.099,22,16.996,22z M16.996,19c-0.552,0-1,0.448-1,1
		s0.448,1,1,1s1-0.448,1-1S17.548,19,16.996,19z"/>
</g>
</svg>
