<?xml version="1.0" encoding="utf-8"?>
<!-- Generator: Adobe Illustrator 22.1.0, SVG Export Plug-In . SVG Version: 6.00 Build 0)  -->
<svg version="1.1" id="Layer_1" xmlns="http://www.w3.org/2000/svg" xmlns:xlink="http://www.w3.org/1999/xlink" x="0px" y="0px"
	 viewBox="0 0 24 24" style="enable-background:new 0 0 24 24;" xml:space="preserve">
<g>
	<title>shopping-cart-man-message</title>
	<path d="M14.001,15c-0.113,0-0.224-0.039-0.312-0.109L11.325,13H1.501c-0.827,0-1.5-0.673-1.5-1.5v-10c0-0.827,0.673-1.5,1.5-1.5
		h14c0.827,0,1.5,0.673,1.5,1.5v10c0,0.827-0.673,1.5-1.5,1.5h-1v1.5c0,0.191-0.111,0.367-0.283,0.45
		C14.15,14.983,14.075,15,14.001,15z M1.501,1c-0.276,0-0.5,0.224-0.5,0.5v10c0,0.276,0.224,0.5,0.5,0.5h10
		c0.113,0,0.224,0.039,0.312,0.109l1.688,1.35V12.5c0-0.276,0.224-0.5,0.5-0.5h1.5c0.276,0,0.5-0.224,0.5-0.5v-10
		c0-0.276-0.224-0.5-0.5-0.5H1.501z"/>
	<circle cx="21.25" cy="13.25" r="0.75"/>
	<path d="M22.001,24c-1.126-0.108-2.059-0.804-2.461-1.819c-0.182-0.367-0.1-0.829,0.201-1.129L20.793,20h-0.792
		c-0.552,0-1-0.448-1-1v-1h-1.814c-0.552,0-1-0.448-1.001-0.998c0-0.102,0.015-0.204,0.046-0.302
		c0.244-0.779,0.471-1.582,0.69-2.358c1.211-4.287,2.354-8.335,6.408-9.812C23.384,4.51,23.442,4.5,23.501,4.5
		c0.209,0,0.398,0.132,0.469,0.329c0.046,0.125,0.04,0.261-0.016,0.382c-0.057,0.121-0.157,0.213-0.282,0.259
		c-3.572,1.301-4.648,5.111-5.787,9.143c-0.221,0.782-0.449,1.591-0.699,2.386l2.315,0c0.276,0,0.5,0.224,0.5,0.5V19h2
		c0.203,0,0.385,0.121,0.462,0.309c0.078,0.187,0.035,0.401-0.108,0.545l-1.907,1.906c0.278,0.705,0.888,1.173,1.602,1.243L23.5,23
		c0.276,0,0.5,0.224,0.5,0.5s-0.224,0.5-0.5,0.5H22.001z"/>
	<path d="M6.574,8c-0.4,0-0.759-0.236-0.918-0.6L4.572,4.368C4.477,4.154,4.473,3.88,4.57,3.635C4.668,3.386,4.856,3.19,5.101,3.083
		C5.228,3.028,5.362,3,5.501,3h6.104l0.426-1.171c0.072-0.197,0.26-0.329,0.47-0.329c0.058,0,0.115,0.01,0.17,0.03
		c0.126,0.046,0.226,0.138,0.283,0.259c0.056,0.121,0.062,0.257,0.017,0.383c0,0-0.549,1.511-0.556,1.527l-1.324,3.644
		C10.947,7.736,10.57,8,10.151,8H6.574z M10.151,7l1.091-3h-5.74l1.071,2.998L10.151,7z"/>
	<path d="M7.249,10C6.836,9.998,6.501,9.662,6.501,9.25c0-0.414,0.336-0.75,0.75-0.75c0.203,0.001,0.391,0.08,0.532,0.222
		c0.141,0.142,0.219,0.331,0.218,0.531C7.999,9.665,7.662,10,7.25,10H7.249z"/>
	<circle cx="9.752" cy="9.25" r="0.75"/>
</g>
</svg>
