<?xml version="1.0" encoding="utf-8"?>
<!-- Generator: Adobe Illustrator 22.1.0, SVG Export Plug-In . SVG Version: 6.00 Build 0)  -->
<svg version="1.1" id="Layer_1" xmlns="http://www.w3.org/2000/svg" xmlns:xlink="http://www.w3.org/1999/xlink" x="0px" y="0px"
	 viewBox="0 0 24 24" style="enable-background:new 0 0 24 24;" xml:space="preserve">
<g>
	<title>shopping-cart-upload-1</title>
	<path d="M8,21c-1.103,0-2-0.897-2-2c0-0.88,0.571-1.643,1.391-1.904L3.694,1.385C3.641,1.159,3.441,1,3.208,1H0.5
		C0.224,1,0,0.776,0,0.5S0.224,0,0.5,0h2.708c0.699,0,1.3,0.476,1.46,1.156L5.807,6h16.306c0.162,0,0.321,0.026,0.474,0.077
		c0.38,0.126,0.688,0.393,0.867,0.752c0.179,0.358,0.208,0.765,0.082,1.145l-1.078,3.231c-0.068,0.204-0.259,0.342-0.474,0.342
		c-0.054,0-0.107-0.009-0.158-0.026c-0.261-0.087-0.403-0.371-0.316-0.633l1.077-3.231c0.042-0.126,0.032-0.262-0.028-0.382
		c-0.06-0.12-0.162-0.208-0.289-0.251C22.219,7.009,22.166,7,22.112,7H6.043l1.647,7h4.285c0.276,0,0.5,0.224,0.5,0.5
		s-0.224,0.5-0.5,0.5h-4.05l0.471,2H12c0.276,0,0.5,0.224,0.5,0.5S12.276,18,12,18H9.732C9.907,18.301,10,18.643,10,19
		C10,20.103,9.103,21,8,21z M8,18c-0.551,0-1,0.448-1,1s0.449,1,1,1s1-0.448,1-1S8.551,18,8,18z"/>
	<path d="M18.5,24c-3.033,0-5.5-2.467-5.5-5.5s2.467-5.5,5.5-5.5s5.5,2.467,5.5,5.5S21.533,24,18.5,24z M18.5,14
		c-2.481,0-4.5,2.019-4.5,4.5s2.019,4.5,4.5,4.5s4.5-2.019,4.5-4.5S20.981,14,18.5,14z"/>
	<path d="M18.5,21c-0.276,0-0.5-0.224-0.5-0.5v-2.793l-1.146,1.146C16.759,18.948,16.634,19,16.5,19s-0.259-0.052-0.354-0.146
		S16,18.634,16,18.5s0.052-0.259,0.146-0.354l2-2c0.045-0.046,0.101-0.083,0.163-0.109C18.369,16.013,18.434,16,18.5,16
		s0.131,0.013,0.191,0.038c0.062,0.025,0.117,0.062,0.163,0.109l1.999,1.999C20.948,18.241,21,18.366,21,18.5
		s-0.052,0.259-0.146,0.354S20.634,19,20.5,19s-0.259-0.052-0.354-0.146L19,17.707V20.5C19,20.776,18.776,21,18.5,21z"/>
</g>
</svg>
