<?xml version="1.0" encoding="utf-8"?>
<!-- Generator: Adobe Illustrator 22.1.0, SVG Export Plug-In . SVG Version: 6.00 Build 0)  -->
<svg version="1.1" id="Layer_1" xmlns="http://www.w3.org/2000/svg" xmlns:xlink="http://www.w3.org/1999/xlink" x="0px" y="0px"
	 viewBox="0 0 24 24" style="enable-background:new 0 0 24 24;" xml:space="preserve">
<g>
	<title>shopping-cart-woman</title>
	<path d="M3.5,24C2.673,24,2,23.327,2,22.5S2.673,21,3.5,21S5,21.673,5,22.5S4.327,24,3.5,24z M3.5,22C3.224,22,3,22.224,3,22.5
		S3.224,23,3.5,23S4,22.776,4,22.5S3.776,22,3.5,22z"/>
	<path d="M7.5,24C6.673,24,6,23.327,6,22.5S6.673,21,7.5,21S9,21.673,9,22.5S8.327,24,7.5,24z M7.5,22C7.224,22,7,22.224,7,22.5
		S7.224,23,7.5,23S8,22.776,8,22.5S7.776,22,7.5,22z"/>
	<path d="M2.5,20c-0.215,0-0.406-0.137-0.474-0.342l-2-6c-0.051-0.152-0.025-0.321,0.069-0.451C0.188,13.078,0.34,13,0.5,13h9.787
		l0.732-2.634C11.078,10.151,11.276,10,11.5,10c0.045,0,0.09,0.006,0.133,0.018c0.129,0.036,0.236,0.12,0.302,0.236
		c0.066,0.116,0.082,0.251,0.046,0.38l-2.5,9C9.422,19.849,9.224,20,9,20H2.5z M8.62,19l1.389-5H1.194l1.667,5H8.62z"/>
	<path d="M17.978,8c-2.188,0-3.982-1.781-3.999-3.97c0-0.001-0.001-0.025-0.001-0.026c0-1.895,1.344-3.543,3.195-3.923
		C17.436,0.027,17.707,0,17.978,0c2.206,0,4,1.794,4,4S20.184,8,17.978,8z M15.163,5.025C15.59,6.201,16.709,7,17.978,7
		c1.269,0,2.388-0.799,2.816-1.975c-1.057-0.143-2.04-0.606-2.816-1.329C17.203,4.419,16.22,4.883,15.163,5.025z M17.978,1
		c-1.654,0-3,1.346-3,3c0,0.015,0.001,0.031,0.001,0.046C15.988,3.921,16.932,3.42,17.6,2.65c0.093-0.107,0.231-0.168,0.378-0.168
		c0.147,0,0.285,0.061,0.377,0.168c0.668,0.771,1.612,1.271,2.621,1.397c0.001-0.018,0.001-0.035,0.001-0.053
		c-0.001-1.539-1.159-2.821-2.694-2.978C18.183,1.005,18.08,1,17.978,1z"/>
	<path d="M16.489,24c-0.235,0-0.441-0.167-0.489-0.397L15.029,19H12.5c-0.155,0-0.303-0.073-0.397-0.197
		c-0.094-0.123-0.126-0.286-0.085-0.435l1.8-6.582c0.461-1.932,2.18-3.286,4.178-3.286c2.007,0,3.726,1.358,4.19,3.302l1.796,6.566
		c0.041,0.149,0.009,0.312-0.085,0.435S23.655,19,23.5,19h-2.551l-0.97,4.603C19.93,23.833,19.724,24,19.489,24H16.489z M19.083,23
		l0.97-4.603C20.102,18.167,20.308,18,20.543,18h2.302l-1.627-5.95c-0.359-1.505-1.68-2.55-3.214-2.55h-0.008
		c-1.534,0-2.854,1.042-3.21,2.534L13.155,18h2.28c0.235,0,0.441,0.167,0.489,0.397L16.895,23H19.083z"/>
</g>
</svg>
