<?xml version="1.0" encoding="utf-8"?>
<!-- Generator: Adobe Illustrator 22.1.0, SVG Export Plug-In . SVG Version: 6.00 Build 0)  -->
<svg version="1.1" id="Layer_1" xmlns="http://www.w3.org/2000/svg" xmlns:xlink="http://www.w3.org/1999/xlink" x="0px" y="0px"
	 viewBox="0 0 24 24" style="enable-background:new 0 0 24 24;" xml:space="preserve">
<g>
	<title>shopping-cart-empty</title>
	<path d="M16,22.5c-1.103,0-2-0.897-2-2s0.897-2,2-2s2,0.897,2,2S17.103,22.5,16,22.5z M16,19.5c-0.552,0-1,0.448-1,1s0.448,1,1,1
		s1-0.448,1-1S16.552,19.5,16,19.5z"/>
	<path d="M5,22.5c-1.103,0-2-0.897-2-2s0.897-2,2-2s2,0.897,2,2S6.103,22.5,5,22.5z M5,19.5c-0.551,0-1,0.448-1,1s0.449,1,1,1
		s1-0.448,1-1S5.551,19.5,5,19.5z"/>
	<path d="M0.5,17.5C0.224,17.5,0,17.276,0,17s0.224-0.5,0.5-0.5h19.058l1.884-14.132C21.509,1.865,21.927,1.5,22.436,1.5H23.5
		C23.776,1.5,24,1.724,24,2s-0.224,0.5-0.5,0.5h-1.062l-1.884,14.132c-0.066,0.495-0.492,0.868-0.991,0.868H0.5z"/>
</g>
</svg>
