<?xml version="1.0" encoding="utf-8"?>
<!-- Generator: Adobe Illustrator 22.1.0, SVG Export Plug-In . SVG Version: 6.00 Build 0)  -->
<svg version="1.1" id="Layer_1" xmlns="http://www.w3.org/2000/svg" xmlns:xlink="http://www.w3.org/1999/xlink" x="0px" y="0px"
	 viewBox="0 0 24 24" style="enable-background:new 0 0 24 24;" xml:space="preserve">
<g>
	<title>shopping-cart-star</title>
	<path d="M7.999,20.999c-1.103,0-2-0.897-2-2c0-0.88,0.572-1.643,1.392-1.904L3.694,1.386C3.641,1.159,3.44,1.001,3.207,1.001H0.5
		c-0.276,0-0.5-0.224-0.5-0.5s0.224-0.5,0.5-0.5h2.707c0.7,0,1.301,0.476,1.461,1.156l1.14,4.844h16.305
		c0.162,0,0.321,0.026,0.474,0.077c0.38,0.126,0.688,0.393,0.867,0.752c0.179,0.358,0.208,0.765,0.082,1.145l-1.076,3.23
		c-0.068,0.205-0.259,0.342-0.475,0.342c-0.054,0-0.107-0.009-0.158-0.026c-0.261-0.087-0.403-0.371-0.316-0.632l1.076-3.23
		c0.042-0.127,0.033-0.262-0.027-0.382c-0.06-0.12-0.162-0.208-0.289-0.251c-0.051-0.017-0.104-0.026-0.158-0.026H6.043l1.647,7
		h4.284c0.276,0,0.5,0.224,0.5,0.5s-0.224,0.5-0.5,0.5H7.925l0.471,2H12c0.276,0,0.5,0.224,0.5,0.5s-0.224,0.5-0.5,0.5H9.732
		c0.174,0.3,0.267,0.642,0.267,0.998C9.999,20.101,9.102,20.999,7.999,20.999z M7.99,17.999c-0.547,0.005-0.991,0.452-0.991,0.999
		c0,0.552,0.449,1,1,1s1-0.448,1-1c0-0.542-0.442-0.99-0.985-0.998C8.008,18,7.999,18,7.99,17.999z"/>
	<path d="M15.277,24.004c-0.1,0-0.2-0.013-0.299-0.039c-0.298-0.079-0.547-0.27-0.702-0.536c-0.18-0.311-0.205-0.695-0.065-1.026
		l1.065-2.452l-1.927-1.894c-0.209-0.186-0.338-0.456-0.353-0.753s0.084-0.581,0.281-0.802c0.211-0.237,0.51-0.373,0.82-0.373
		c0.017,0,0.035,0,0.052,0.001l2.16,0l1.151-2.479c0.207-0.404,0.605-0.649,1.045-0.649c0.182,0,0.364,0.044,0.527,0.128
		c0.215,0.11,0.388,0.282,0.5,0.498c0.004,0.007,1.158,2.5,1.158,2.5l2.216-0.001c0.273,0,0.538,0.105,0.744,0.295
		c0.219,0.202,0.345,0.477,0.357,0.774c0.014,0.336-0.124,0.657-0.377,0.88l-1.901,1.875l1.063,2.447
		c0.121,0.289,0.124,0.604,0.007,0.889c-0.116,0.285-0.337,0.509-0.622,0.628c-0.141,0.059-0.291,0.09-0.446,0.09l0,0
		c-0.204,0-0.404-0.054-0.579-0.155l-2.649-1.493l-2.654,1.496C15.676,23.951,15.478,24.004,15.277,24.004z M14.115,17.13
		c-0.038,0-0.069,0.013-0.091,0.038c-0.042,0.047-0.038,0.118,0.009,0.16l2.19,2.152c0.146,0.144,0.19,0.367,0.108,0.556l-1.2,2.761
		c-0.016,0.039-0.012,0.091,0.011,0.131c0.028,0.048,0.079,0.077,0.134,0.077c0.027,0,0.053-0.007,0.076-0.021l2.905-1.637
		c0.075-0.042,0.16-0.064,0.246-0.064s0.171,0.022,0.246,0.064l2.9,1.634c0.027,0.016,0.055,0.023,0.083,0.023
		c0.021,0,0.041-0.004,0.059-0.011c0.039-0.016,0.067-0.045,0.083-0.084s0.016-0.079,0-0.118l-1.198-2.756
		c-0.082-0.188-0.039-0.411,0.107-0.555l2.166-2.135c0.062-0.055,0.06-0.095,0.059-0.109c-0.001-0.031-0.014-0.058-0.036-0.079
		c-0.021-0.019-0.047-0.031-0.071-0.031l-2.531,0.001c-0.194,0-0.373-0.114-0.454-0.29l-1.279-2.763
		c-0.01-0.016-0.032-0.039-0.062-0.054c-0.024-0.012-0.049-0.018-0.074-0.018c-0.017,0-0.033,0.003-0.049,0.008
		c-0.042,0.013-0.074,0.041-0.094,0.08l-1.276,2.751c-0.082,0.176-0.26,0.29-0.454,0.29L14.115,17.13z"/>
</g>
</svg>
