<?xml version="1.0" encoding="utf-8"?>
<!-- Generator: Adobe Illustrator 22.1.0, SVG Export Plug-In . SVG Version: 6.00 Build 0)  -->
<svg version="1.1" id="Layer_1" xmlns="http://www.w3.org/2000/svg" xmlns:xlink="http://www.w3.org/1999/xlink" x="0px" y="0px"
	 viewBox="0 0 24 24" style="enable-background:new 0 0 24 24;" xml:space="preserve">
<g>
	<title>shopping-cart-subtract</title>
	<path d="M7.999,20.998c-1.103,0-2-0.897-2-2c0-0.88,0.572-1.643,1.392-1.904L3.694,1.385C3.641,1.159,3.441,1,3.208,1H0.5
		C0.224,1,0,0.776,0,0.5S0.224,0,0.5,0h2.707c0.7,0,1.301,0.476,1.461,1.156L5.808,6h16.304c0.161,0,0.321,0.026,0.474,0.077
		c0.38,0.126,0.688,0.394,0.868,0.752c0.179,0.358,0.208,0.765,0.082,1.145l-1.077,3.23c-0.068,0.204-0.259,0.342-0.474,0.342
		c-0.054,0-0.107-0.009-0.158-0.026c-0.261-0.087-0.403-0.371-0.316-0.633l1.077-3.23c0.042-0.127,0.032-0.262-0.027-0.382
		c-0.06-0.12-0.162-0.208-0.289-0.251C22.22,7.009,22.166,7,22.112,7H6.043l1.647,7h4.284c0.276,0,0.5,0.224,0.5,0.5
		s-0.224,0.5-0.5,0.5H7.926l0.471,2H12c0.276,0,0.5,0.224,0.5,0.5S12.276,18,12,18H9.732c0.174,0.3,0.267,0.642,0.267,0.998
		C9.999,20.101,9.102,20.998,7.999,20.998z M7.99,17.999c-0.547,0.005-0.991,0.452-0.991,0.999c0,0.552,0.449,1,1,1s1-0.448,1-1
		c0-0.542-0.442-0.99-0.985-0.998C8.008,18,8,18,7.99,17.999z"/>
	<path d="M18.501,24c-3.033,0-5.5-2.467-5.5-5.5s2.467-5.5,5.5-5.5s5.5,2.467,5.5,5.5S21.534,24,18.501,24z M18.501,14
		c-2.481,0-4.5,2.019-4.5,4.5s2.019,4.5,4.5,4.5s4.5-2.019,4.5-4.5S20.982,14,18.501,14z"/>
	<path d="M16.501,19c-0.276,0-0.5-0.224-0.5-0.5s0.224-0.5,0.5-0.5h4c0.276,0,0.5,0.224,0.5,0.5s-0.224,0.5-0.5,0.5H16.501z"/>
</g>
</svg>
