<?xml version="1.0" encoding="utf-8"?>
<!-- Generator: Adobe Illustrator 22.1.0, SVG Export Plug-In . SVG Version: 6.00 Build 0)  -->
<svg version="1.1" id="Light" xmlns="http://www.w3.org/2000/svg" xmlns:xlink="http://www.w3.org/1999/xlink" x="0px" y="0px"
	 viewBox="0 0 24 24" style="enable-background:new 0 0 24 24;" xml:space="preserve">
<g>
	<title>body-care-water-hand</title>
	<path d="M12.661,23.283c-1.376,0-2.893-0.527-5.405-1.399l-0.034-0.011C6.56,21.642,5.827,21.388,5,21.108v0.242
		c0,0.552-0.449,1-1,1H1c-0.551,0-1-0.448-1-1v-7c0-0.552,0.449-1,1-1h3c0.551,0,1,0.448,1,1h2.5c1.775,0,3.164,1.017,3.993,1.625
		c0.158,0.116,0.445,0.326,0.549,0.375l3.457,0c0.722,0,1.141,0.584,1.231,1.232l3.618-1.146c0.305-0.091,0.617-0.136,0.931-0.136
		c1.031,0,2.01,0.491,2.622,1.315c0.088,0.118,0.119,0.269,0.085,0.414c-0.034,0.144-0.13,0.265-0.262,0.331
		c-2.034,1.017-3.628,1.865-4.909,2.546C15.839,22.489,14.346,23.283,12.661,23.283z M5,20.053c1.007,0.338,1.878,0.64,2.584,0.886
		c2.485,0.863,3.854,1.338,5.063,1.338c1.461,0,2.788-0.706,5.696-2.252c1.148-0.61,2.561-1.362,4.324-2.252
		c-0.394-0.303-0.883-0.472-1.386-0.472c-0.216,0-0.431,0.031-0.639,0.093l-4.093,1.296c-0.222,0.422-0.6,0.661-1.05,0.661H10
		c-0.276,0-0.5-0.224-0.5-0.5s0.224-0.5,0.5-0.5h5.5c0.208,0,0.25-0.394,0.25-0.5s-0.042-0.5-0.25-0.5H12
		c-0.321,0-0.613-0.214-1.097-0.568C10.124,16.212,8.947,15.35,7.5,15.35H5V20.053z M1,21.35h3v-7l-3,0L1,21.35z"/>
	<path d="M16.489,14.35l-0.099,0.001c-1.26,0-2.459-0.482-3.375-1.356c-0.947-0.904-1.484-2.123-1.514-3.431
		c-0.002-0.075-0.002-0.15,0-0.226c0-2.215,2.934-6.494,4.195-8.231c0.157-0.216,0.388-0.358,0.652-0.4
		c0.053-0.009,0.106-0.013,0.159-0.013c0.211,0,0.413,0.066,0.585,0.19c0.086,0.062,0.161,0.138,0.223,0.223
		c1.258,1.747,4.182,6.046,4.185,8.239c0.029,1.302-0.452,2.543-1.355,3.489c-0.904,0.947-2.123,1.484-3.431,1.515l-0.113,0.001
		L16.489,14.35z M16.6,13.352c0.031,0,0.06,0,0.088-0.001c1.044-0.024,2.014-0.452,2.733-1.205c0.72-0.754,1.103-1.742,1.079-2.783
		c0-1.564-2.064-4.985-3.996-7.669C14.569,4.36,12.5,7.771,12.5,9.35c-0.001,0.071-0.001,0.131,0,0.191
		c0.048,2.101,1.794,3.81,3.892,3.81c0,0,0.101-0.001,0.103-0.001C16.496,13.35,16.569,13.352,16.6,13.352z"/>
</g>
</svg>
