<?xml version="1.0" encoding="utf-8"?>
<!-- Generator: Adobe Illustrator 22.1.0, SVG Export Plug-In . SVG Version: 6.00 Build 0)  -->
<svg version="1.1" id="Light" xmlns="http://www.w3.org/2000/svg" xmlns:xlink="http://www.w3.org/1999/xlink" x="0px" y="0px"
	 viewBox="0 0 24 24" style="enable-background:new 0 0 24 24;" xml:space="preserve">
<g>
	<title>body-care-sun-lotion</title>
	<path d="M15,13c-0.275,0-0.5-0.224-0.5-0.499c0-0.276,0.223-0.5,0.499-0.501c0.467-0.001,0.922-0.093,1.351-0.274
		c0.862-0.363,1.531-1.039,1.884-1.905c0.353-0.866,0.348-1.817-0.015-2.679C17.672,5.841,16.404,5,14.988,5
		c-0.465,0-0.92,0.092-1.352,0.274c-0.062,0.026-0.127,0.039-0.194,0.039c-0.202,0-0.383-0.12-0.461-0.306
		c-0.107-0.254,0.013-0.548,0.267-0.655C13.803,4.118,14.389,4,14.988,4c1.819,0,3.449,1.081,4.154,2.755
		c0.466,1.108,0.473,2.331,0.019,3.444c-0.454,1.113-1.314,1.983-2.422,2.449C16.185,12.881,15.6,12.999,15,13
		C15.001,13,15.001,13,15,13z"/>
	<path d="M15.5,2.5C15.224,2.5,15,2.276,15,2V0.5C15,0.224,15.224,0,15.5,0S16,0.224,16,0.5V2C16,2.276,15.776,2.5,15.5,2.5z"/>
	<path d="M19.596,4.903c-0.134,0-0.259-0.052-0.354-0.146c-0.195-0.195-0.195-0.512,0-0.707l1.415-1.414
		c0.095-0.094,0.22-0.146,0.354-0.146c0.134,0,0.259,0.052,0.354,0.146c0.195,0.195,0.195,0.512,0,0.707l-1.415,1.414
		C19.855,4.851,19.729,4.903,19.596,4.903z"/>
	<path d="M21.5,9C21.224,9,21,8.776,21,8.5S21.224,8,21.5,8h2C23.776,8,24,8.224,24,8.5S23.776,9,23.5,9H21.5z"/>
	<path d="M21.011,15c-0.134,0-0.259-0.052-0.354-0.146l-1.415-1.414c-0.094-0.094-0.146-0.219-0.146-0.353
		c0-0.134,0.052-0.26,0.146-0.354s0.22-0.146,0.354-0.146s0.259,0.052,0.354,0.146l1.415,1.414c0.094,0.094,0.146,0.219,0.146,0.353
		c0,0.134-0.052,0.26-0.146,0.354S21.145,15,21.011,15z"/>
	<path d="M15.5,17c-0.276,0-0.5-0.224-0.5-0.5V15c0-0.276,0.224-0.5,0.5-0.5S16,14.724,16,15v1.5C16,16.776,15.776,17,15.5,17z"/>
	<path d="M3,19c-0.551,0-1-0.448-1-1v-4c0-0.552,0.449-1,1-1h7c0.551,0,1,0.448,1,1v4c0,0.552-0.449,1-1,1H3z M3,18h7v-4H3L3,18z"/>
	<path d="M2.5,24C1.121,24,0,22.878,0,21.5v-12C0,8.121,1.121,7,2.5,7h1.661L4.91,5.128C5.063,4.747,5.427,4.5,5.838,4.5H6V2H3.471
		c-0.15,0-0.29,0.067-0.385,0.182L1.323,4.318C1.227,4.434,1.087,4.5,0.937,4.5c-0.116,0-0.229-0.041-0.318-0.115
		C0.406,4.21,0.376,3.895,0.551,3.682l1.763-2.136C2.6,1.199,3.021,1,3.47,1H10c0.276,0,0.5,0.224,0.5,0.5S10.276,2,10,2H7v2.5
		h0.161c0.412,0,0.776,0.247,0.929,0.628L8.839,7H10.5C11.879,7,13,8.121,13,9.5v12c0,1.378-1.121,2.5-2.5,2.5H2.5z M2.5,8
		C1.673,8,1,8.673,1,9.5v12C1,22.327,1.673,23,2.5,23h8c0.827,0,1.5-0.673,1.5-1.5v-12C12,8.673,11.327,8,10.5,8H2.5z M7.762,7
		l-0.6-1.5L5.837,5.5L5.238,7H7.762z"/>
</g>
</svg>
