<?xml version="1.0" encoding="utf-8"?>
<!-- Generator: Adobe Illustrator 22.1.0, SVG Export Plug-In . SVG Version: 6.00 Build 0)  -->
<svg version="1.1" id="Light" xmlns="http://www.w3.org/2000/svg" xmlns:xlink="http://www.w3.org/1999/xlink" x="0px" y="0px"
	 viewBox="0 0 24 24" style="enable-background:new 0 0 24 24;" xml:space="preserve">
<g>
	<title>body-care-water-hand-1</title>
	<path d="M17.488,14.328l-0.092,0.001c-1.265,0-2.466-0.482-3.382-1.356c-0.947-0.904-1.484-2.123-1.515-3.431
		c-0.001-0.075-0.001-0.15,0-0.224c0-2.216,2.934-6.495,4.195-8.232c0.188-0.258,0.491-0.412,0.811-0.412
		c0.211,0,0.414,0.065,0.585,0.189C18.177,0.925,18.252,1,18.314,1.085c1.258,1.748,4.183,6.049,4.186,8.24
		c0.029,1.302-0.452,2.543-1.355,3.488c-0.904,0.947-2.123,1.484-3.431,1.515l-0.113,0.001L17.488,14.328z M17.6,13.33
		c0.031,0,0.06,0,0.088-0.001c1.042-0.024,2.011-0.452,2.732-1.207c0.72-0.754,1.104-1.742,1.08-2.782
		c0-1.563-2.064-4.984-3.996-7.668C15.569,4.338,13.5,7.749,13.5,9.328c-0.001,0.071-0.001,0.131,0,0.191
		c0.048,2.101,1.797,3.81,3.898,3.81c0,0,0.094-0.001,0.096-0.001C17.496,13.328,17.569,13.33,17.6,13.33z"/>
	<path d="M2,23.328c-0.276,0-0.5-0.224-0.5-0.5v-10c0-0.276,0.224-0.5,0.5-0.5s0.5,0.224,0.5,0.5v0.5H9c2.298,0,4.216,1.739,4.467,4
		H16c2.481,0,4.5,2.019,4.5,4.5c0,0.276-0.224,0.5-0.5,0.5H2.5v0.5C2.5,23.104,2.276,23.328,2,23.328z M19.464,21.328
		c-0.245-1.702-1.718-3-3.464-3H8.5c-0.276,0-0.5-0.224-0.5-0.5s0.224-0.5,0.5-0.5h3.964c-0.245-1.702-1.717-3-3.464-3H2.5v7H19.464
		z"/>
</g>
</svg>
