<?xml version="1.0" encoding="utf-8"?>
<!-- Generator: Adobe Illustrator 22.1.0, SVG Export Plug-In . SVG Version: 6.00 Build 0)  -->
<svg version="1.1" id="Light" xmlns="http://www.w3.org/2000/svg" xmlns:xlink="http://www.w3.org/1999/xlink" x="0px" y="0px"
	 viewBox="0 0 24 24" style="enable-background:new 0 0 24 24;" xml:space="preserve">
<g>
	<title>body-care-mask</title>
	<path d="M11.997,19c-1.995,0-3.5-0.86-3.5-2s1.505-2,3.5-2c1.995,0,3.5,0.86,3.5,2S13.992,19,11.997,19z M11.997,16
		c-1.503,0-2.5,0.602-2.5,1s0.997,1,2.5,1c1.503,0,2.5-0.602,2.5-1S13.5,16,11.997,16z"/>
	<path d="M7.997,10c-1.449,0-2.5-0.631-2.5-1.5S6.548,7,7.997,7s2.5,0.631,2.5,1.5S9.446,10,7.997,10z M7.997,8
		c-0.968,0-1.5,0.375-1.5,0.5S7.029,9,7.997,9s1.5-0.375,1.5-0.5S8.965,8,7.997,8z"/>
	<path d="M15.997,10c-1.448,0-2.5-0.631-2.5-1.5s1.052-1.5,2.5-1.5s2.5,0.631,2.5,1.5S17.446,10,15.997,10z M15.997,8
		c-0.968,0-1.5,0.375-1.5,0.5s0.532,0.5,1.5,0.5s1.5-0.375,1.5-0.5S16.965,8,15.997,8z"/>
	<path d="M12,24c-2.49,0-4.841-0.891-6.799-2.577c-0.017-0.01-0.043-0.027-0.07-0.053c-0.007-0.007-0.016-0.017-0.023-0.027
		c-2.464-2.168-3.955-5.375-4.094-8.806C1.011,12.524,1.01,12.511,1.01,12.5c0-0.008,0-0.017,0.001-0.026
		C1.005,12.331,1,12.166,1,12c0-3.353,1.303-6.576,3.576-8.848C4.585,3.139,4.596,3.125,4.61,3.11
		C4.621,3.1,4.641,3.085,4.658,3.073C6.681,1.091,9.287,0,12,0c2.713,0,5.319,1.091,7.341,3.072c0.008,0.005,0.029,0.019,0.05,0.04
		c0.009,0.009,0.021,0.024,0.031,0.038C21.696,5.422,23,8.646,23,12c0,0.161-0.005,0.321-0.011,0.481
		c0,0.006,0.001,0.013,0.001,0.019c0,0.012-0.001,0.024-0.003,0.037c-0.142,3.437-1.633,6.64-4.094,8.805
		c-0.008,0.011-0.016,0.021-0.024,0.028c-0.027,0.027-0.054,0.044-0.072,0.055C16.839,23.11,14.489,24,12,24z M6.229,20.978
		C7.924,22.302,9.914,23,12,23c2.086,0,4.076-0.698,5.771-2.022l-1.124-1.124c-0.195-0.195-0.195-0.512,0-0.707
		C16.741,19.052,16.866,19,17,19s0.259,0.052,0.354,0.146l1.177,1.177c1.956-1.86,3.192-4.504,3.426-7.323H20
		c-0.276,0-0.5-0.224-0.5-0.5c0-0.276,0.224-0.5,0.5-0.5h2c0-2.967-1.055-5.732-2.976-7.817l-1.171,1.171
		C17.759,5.448,17.634,5.5,17.5,5.5s-0.259-0.052-0.354-0.146c-0.195-0.195-0.195-0.512,0-0.707l1.167-1.167
		C16.53,1.879,14.298,1,12,1C9.702,1,7.47,1.879,5.687,3.48l1.167,1.167c0.195,0.195,0.195,0.512,0,0.707
		C6.759,5.448,6.634,5.5,6.5,5.5S6.241,5.448,6.146,5.354L4.976,4.183C3.055,6.268,2,9.033,2,12h2c0.276,0,0.5,0.224,0.5,0.5
		C4.5,12.776,4.276,13,4,13H2.044c0.234,2.819,1.47,5.463,3.426,7.323l1.177-1.177C6.741,19.052,6.866,19,7,19
		s0.259,0.052,0.354,0.146c0.195,0.195,0.195,0.512,0,0.707L6.229,20.978z"/>
</g>
</svg>
