<?xml version="1.0" encoding="utf-8"?>
<!-- Generator: Adobe Illustrator 22.1.0, SVG Export Plug-In . SVG Version: 6.00 Build 0)  -->
<svg version="1.1" id="Light" xmlns="http://www.w3.org/2000/svg" xmlns:xlink="http://www.w3.org/1999/xlink" x="0px" y="0px"
	 viewBox="0 0 24 24" style="enable-background:new 0 0 24 24;" xml:space="preserve">
<g>
	<title>body-care-perfume</title>
	<path d="M3,24c-0.827,0-1.5-0.673-1.5-1.5c0-0.323,0.106-0.642,0.3-0.9l1.751-2.335C1.636,17.752,0.5,15.423,0.5,12.985
		c0-3.239,2.002-6.197,5-7.415V3.5C5.5,2.121,6.621,1,8,1h1c1.199,0,2.215,0.845,2.449,2h3.101c0.315-1.7,2.216-3,4.45-3
		c2.481,0,4.5,1.57,4.5,3.5S21.481,7,19,7c-2.234,0-4.135-1.3-4.45-3H11.5v1.57c2.998,1.218,5,4.175,5,7.415
		c0,2.438-1.136,4.767-3.051,6.281L15.2,21.6c0.496,0.662,0.362,1.604-0.3,2.1C14.642,23.893,14.323,24,14,24H3z M2.6,22.2
		c-0.064,0.086-0.1,0.193-0.1,0.3C2.5,22.776,2.724,23,3,23h11c0.108,0,0.214-0.035,0.3-0.1c0.221-0.166,0.266-0.48,0.1-0.7
		l-1.775-2.365c-1.246,0.754-2.667,1.151-4.125,1.151c-1.458,0-2.88-0.397-4.126-1.151L2.6,22.2z M8.5,5.985c-3.86,0-7,3.14-7,7
		s3.14,7,7,7s7-3.14,7-7S12.36,5.985,8.5,5.985z M18.5,1.029c-1.702,0.176-3,1.227-3,2.471s1.298,2.296,3,2.471V1.029z M19.5,5.971
		c1.702-0.176,3-1.227,3-2.471s-1.298-2.296-3-2.471V5.971z M6.5,5.239c0.652-0.169,1.324-0.254,2-0.254s1.348,0.085,2,0.254V3.5
		C10.5,2.673,9.827,2,9,2H8C7.36,2,6.797,2.414,6.588,3h0.913c0.276,0,0.5,0.224,0.5,0.5S7.777,4,7.501,4H6.5V5.239z"/>
	<path d="M3.501,4c-0.276,0-0.5-0.224-0.5-0.5S3.225,3,3.501,3h0.5c0.276,0,0.5,0.224,0.5,0.5S4.277,4,4.001,4H3.501z"/>
	<path d="M1.001,4c-0.276,0-0.5-0.224-0.5-0.5S0.725,3,1.001,3h0.5c0.276,0,0.5,0.224,0.5,0.5S1.777,4,1.501,4H1.001z"/>
</g>
</svg>
