<?xml version="1.0" encoding="utf-8"?>
<!-- Generator: Adobe Illustrator 22.1.0, SVG Export Plug-In . SVG Version: 6.00 Build 0)  -->
<svg version="1.1" id="Light" xmlns="http://www.w3.org/2000/svg" xmlns:xlink="http://www.w3.org/1999/xlink" x="0px" y="0px"
	 viewBox="0 0 24 24" style="enable-background:new 0 0 24 24;" xml:space="preserve">
<g>
	<title>body-care-cream</title>
	<path d="M2.5,22.305c-1.379,0-2.5-1.122-2.5-2.5v-5.5c0-0.552,0.449-1,1-1h1v-0.5c0-1.379,1.121-2.5,2.5-2.5h0.045
		c0.094-0.663,0.39-1.926,1.323-3.072C7.18,5.622,9.243,4.805,12,4.805c3.176,0,4.27-1.307,5.119-2.646
		c0.144-0.226,0.366-0.382,0.627-0.44c0.073-0.016,0.146-0.024,0.218-0.024c0.189,0,0.375,0.054,0.536,0.157
		c0.157,0.1,0.282,0.241,0.363,0.408c1.495,3.102,1.529,5.739,0.1,8.045H19.5c1.378,0,2.5,1.122,2.5,2.5v0.5h1c0.552,0,1,0.448,1,1
		v5.5c0,1.378-1.122,2.5-2.5,2.5H2.5z M1,19.805c0,0.827,0.673,1.5,1.5,1.5h19c0.827,0,1.5-0.673,1.5-1.5v-5.5H1l0,0L1,19.805z
		 M21,13.305v-0.5c0-0.827-0.673-1.5-1.5-1.5h-15c-0.827,0-1.5,0.673-1.5,1.5v0.5H21z M17.751,10.305
		c1.588-2.119,1.657-4.609,0.212-7.609l0,0C17.01,4.2,15.684,5.805,12,5.805c-5.227,0-6.255,3.156-6.454,4.5H17.751z"/>
	<path d="M4.5,20.305c-0.276,0-0.5-0.224-0.5-0.5v-4c0-0.276,0.224-0.5,0.5-0.5h15c0.276,0,0.5,0.224,0.5,0.5v4
		c0,0.276-0.224,0.5-0.5,0.5H4.5z M19,19.305v-3H5v3H19z"/>
</g>
</svg>
