<?xml version="1.0" encoding="utf-8"?>
<!-- Generator: Adobe Illustrator 22.1.0, SVG Export Plug-In . SVG Version: 6.00 Build 0)  -->
<svg version="1.1" id="Light" xmlns="http://www.w3.org/2000/svg" xmlns:xlink="http://www.w3.org/1999/xlink" x="0px" y="0px"
	 viewBox="0 0 24 24" style="enable-background:new 0 0 24 24;" xml:space="preserve">
<g>
	<title>dress</title>
	<path d="M12,24c-2.537-0.012-5.021-0.486-7.382-1.408c-0.378-0.154-0.624-0.513-0.629-0.915c-0.016-1.336,0.113-5.875,2.433-8.223
		c0.428-0.433,0.913-0.773,1.448-1.014c-1.481-0.813-2.429-2.357-2.732-3.641C4.68,6.861,5.376,5.155,7.001,4.205V0.516
		c0-0.276,0.224-0.5,0.5-0.5s0.5,0.224,0.5,0.5c0,0,0,3.995-0.001,4.001c0.018,1.254,2.016,2.192,4,2.478
		c1.994-0.287,4-1.232,4-2.495c0-0.007,0-0.014,0.001-0.021V0.5c0-0.276,0.224-0.5,0.5-0.5s0.5,0.224,0.5,0.5v3.707
		c1.624,0.949,2.319,2.655,1.862,4.592c-0.303,1.284-1.251,2.828-2.733,3.641c0.535,0.242,1.02,0.582,1.448,1.015
		c2.323,2.353,2.446,6.888,2.429,8.221c-0.006,0.402-0.249,0.76-0.62,0.912c-2.367,0.924-4.851,1.399-7.385,1.412
		c0,0-0.001,0-0.001,0C12.001,24,12.001,24,12,24z M10,13c-1.144,0-2.109,0.389-2.867,1.156c-2.048,2.073-2.159,6.27-2.144,7.508
		c2.24,0.874,4.601,1.324,7.013,1.336c2.407-0.012,4.768-0.463,7.013-1.34c0.008-1.232-0.098-5.425-2.149-7.503
		C16.108,13.389,15.144,13,14,13H10z M7.149,5.305C6.172,6.056,5.794,7.227,6.111,8.569C6.504,10.232,8,12,10,12h4
		c2,0,3.497-1.768,3.889-3.431c0.317-1.342-0.061-2.513-1.038-3.264c-0.602,1.578-2.898,2.433-4.783,2.69
		C12.046,7.998,12.023,8,12,8s-0.046-0.002-0.069-0.005C10.047,7.738,7.751,6.883,7.149,5.305z"/>
</g>
</svg>
