<?xml version="1.0" encoding="utf-8"?>
<!-- Generator: Adobe Illustrator 22.1.0, SVG Export Plug-In . SVG Version: 6.00 Build 0)  -->
<svg version="1.1" id="Light" xmlns="http://www.w3.org/2000/svg" xmlns:xlink="http://www.w3.org/1999/xlink" x="0px" y="0px"
	 viewBox="0 0 24 24" style="enable-background:new 0 0 24 24;" xml:space="preserve">
<g>
	<title>skirt-1</title>
	<path d="M11.865,24.001c-0.755,0-1.502-0.127-2.221-0.377c-0.286-0.125-0.489-0.343-0.58-0.606C7.704,23,6.332,22.709,5.089,22.172
		c-0.447-0.194-0.682-0.673-0.579-1.134c-1.012-0.029-1.997-0.32-2.858-0.847c-0.455-0.274-0.615-0.858-0.362-1.328
		c1.799-3.311,1.799-7.18,1.799-10.921c0-2.684,0.745-4.448,2.411-5.695V0.993C5.508,0.444,5.957,0,6.5,0
		C6.56,0.001,6.604,0.005,6.648,0.011C8.416,0.281,10.216,0.418,12,0.418c1.783,0,3.583-0.137,5.349-0.406
		C17.4,0.004,17.45,0,17.501,0c0.489,0,0.914,0.365,0.988,0.848c0.007,0.047,0.011,0.093,0.011,0.139v1.26
		c1.665,1.248,2.409,3.01,2.409,5.692c0,3.74,0,7.608,1.799,10.919c0.257,0.474,0.096,1.061-0.366,1.336
		c-0.858,0.525-1.843,0.816-2.856,0.844c0.099,0.47-0.134,0.941-0.574,1.133c-1.243,0.537-2.614,0.829-3.973,0.846
		c-0.089,0.262-0.286,0.479-0.547,0.593c-0.746,0.261-1.507,0.391-2.277,0.391L11.991,24L11.865,24.001z M11.427,3.496
		c-0.876,6.344-1.353,12.796-1.419,19.181c0.585,0.219,1.21,0.325,1.841,0.324c0.046,0,0.093,0,0.14-0.002
		c0.057,0.001,0.103,0.002,0.148,0.002c0.629,0,1.252-0.104,1.854-0.309c-0.065-6.4-0.543-12.853-1.419-19.196
		C12.381,3.5,12.19,3.501,12,3.501C11.809,3.501,11.618,3.5,11.427,3.496z M5.488,21.253c1.102,0.477,2.318,0.738,3.531,0.76
		c0.09-6.185,0.562-12.422,1.403-18.547c-0.478-0.021-0.957-0.051-1.431-0.09C7.573,7.442,7.5,8.597,7.5,11.263
		C7.582,14.674,6.887,18.13,5.488,21.253z M13.576,3.466c0.842,6.124,1.314,12.361,1.405,18.547
		c1.217-0.023,2.434-0.284,3.533-0.759c-1.399-3.108-2.096-6.572-2.014-10.003c0-2.658-0.073-3.812-1.49-7.875
		C14.536,3.415,14.056,3.445,13.576,3.466z M19.081,20.031c0.081,0.004,0.163,0.006,0.244,0.006c0.887,0,1.751-0.242,2.499-0.699
		c-1.915-3.537-1.915-7.534-1.915-11.399c0-2.347-0.629-3.867-2.036-4.912c-0.611,0.099-1.228,0.183-1.839,0.251
		C17.44,7.354,17.5,8.696,17.5,11.263C17.429,14.237,17.975,17.264,19.081,20.031z M6.127,3.027
		C4.718,4.071,4.089,5.593,4.089,7.942c0,3.866,0,7.864-1.92,11.397c0.752,0.457,1.617,0.699,2.505,0.699
		c0.081,0,0.162-0.002,0.244-0.006c1.107-2.772,1.653-5.796,1.582-8.756c0-2.575,0.06-3.918,1.467-7.997
		C7.355,3.21,6.737,3.125,6.127,3.027z M11.042,2.487c0.32,0.009,0.641,0.013,0.961,0.013c0.317,0,0.635-0.004,0.952-0.013
		c0.006,0,0.021-0.001,0.022-0.001c0.775-0.021,1.567-0.069,2.347-0.142c0.008-0.001,0.037-0.003,0.044-0.003
		c0.71-0.068,1.432-0.158,2.132-0.267V0.993c-1.817,0.285-3.667,0.425-5.501,0.425c-1.833,0-3.684-0.141-5.5-0.418L6.5,2.074
		c0.702,0.109,1.425,0.199,2.154,0.268c0.011,0.001,0.022,0.002,0.03,0.003c0.775,0.072,1.563,0.12,2.34,0.141
		C11.025,2.486,11.037,2.486,11.042,2.487z"/>
</g>
</svg>
