<?xml version="1.0" encoding="utf-8"?>
<!-- Generator: Adobe Illustrator 22.1.0, SVG Export Plug-In . SVG Version: 6.00 Build 0)  -->
<svg version="1.1" id="Light" xmlns="http://www.w3.org/2000/svg" xmlns:xlink="http://www.w3.org/1999/xlink" x="0px" y="0px"
	 viewBox="0 0 24 24" style="enable-background:new 0 0 24 24;" xml:space="preserve">
<g>
	<title>skirt</title>
	<path d="M11.986,24c-0.031,0.001-0.075,0.001-0.118,0.001c-1.615,0-3.125-0.748-4.107-2.017c-0.983,1.269-2.5,2.017-4.124,2.017
		c-0.042,0-0.084,0-0.126-0.001c-1.132-0.054-2.203-0.437-3.102-1.11c-0.322-0.227-0.477-0.632-0.388-1.028L3.999,4.444L3.994,1.111
		C3.995,0.502,4.49,0.006,5.098,0.005h13.796c0.604,0.001,1.099,0.492,1.105,1.095v3.344l3.975,17.417
		c0.089,0.397-0.068,0.804-0.399,1.038c-0.89,0.666-1.956,1.048-3.078,1.101c-0.048,0.001-0.091,0.002-0.134,0.002
		c-1.627,0-3.144-0.748-4.127-2.017c-0.983,1.27-2.496,2.017-4.113,2.017C12.078,24.002,12.032,24.002,11.986,24z M0.997,22.084
		c0.748,0.557,1.628,0.874,2.55,0.917c0.031,0.001,0.068,0.001,0.104,0.001c1.482,0,2.864-0.793,3.619-2.074L8.459,5H4.898
		L0.997,22.084z M12.116,23.002c1.474,0,2.851-0.781,3.611-2.043L14.534,5H9.462L8.27,20.958c0.76,1.263,2.135,2.044,3.607,2.044
		c0.036,0,0.113-0.001,0.115-0.001C11.995,23,12.077,23.002,12.116,23.002z M16.727,20.926c0.755,1.282,2.139,2.076,3.625,2.076
		c0.036,0,0.073,0,0.109-0.001c0.912-0.043,1.788-0.358,2.526-0.91L19.1,5h-3.564L16.727,20.926z M18.999,4V1.105
		c0-0.053-0.049-0.1-0.106-0.1H5.099c-0.058,0-0.105,0.048-0.105,0.106L4.998,4H18.999z"/>
</g>
</svg>
