<?xml version="1.0" encoding="utf-8"?>
<!-- Generator: Adobe Illustrator 22.1.0, SVG Export Plug-In . SVG Version: 6.00 Build 0)  -->
<svg version="1.1" id="Layer_1" xmlns="http://www.w3.org/2000/svg" xmlns:xlink="http://www.w3.org/1999/xlink" x="0px" y="0px"
	 viewBox="0 0 24 24" style="enable-background:new 0 0 24 24;" xml:space="preserve">
<g>
	<title>list-to-do</title>
	<path d="M3.5,24C2.673,24,2,23.327,2,22.5v-21C2,0.673,2.673,0,3.5,0h13.293c0.401,0,0.777,0.156,1.061,0.439l3.707,3.707
		C21.844,4.43,22,4.807,22,5.207V22.5c0,0.827-0.673,1.5-1.5,1.5H3.5z M3.5,1C3.224,1,3,1.224,3,1.5v21C3,22.776,3.224,23,3.5,23h17
		c0.276,0,0.5-0.224,0.5-0.5V5.207c0-0.133-0.052-0.259-0.146-0.354l-3.707-3.707C17.053,1.053,16.925,1,16.793,1H3.5z"/>
	<path d="M7.437,9.499c-0.267,0-0.519-0.104-0.707-0.293L5.646,8.125c-0.195-0.195-0.195-0.512,0-0.707
		C5.741,7.323,5.866,7.271,6,7.271s0.259,0.052,0.353,0.146l1.083,1.082L9.593,5.48C9.687,5.349,9.839,5.271,10,5.271
		c0.105,0,0.205,0.032,0.29,0.093c0.224,0.16,0.276,0.473,0.116,0.697L8.25,9.082C8.218,9.126,8.182,9.168,8.144,9.207
		C7.955,9.395,7.704,9.499,7.437,9.499z"/>
	<path d="M13.5,8C13.224,8,13,7.776,13,7.5S13.224,7,13.5,7h4C17.776,7,18,7.224,18,7.5S17.776,8,17.5,8H13.5z"/>
	<path d="M7.437,14.5c-0.267,0-0.519-0.104-0.707-0.293l-1.083-1.082C5.552,13.031,5.5,12.905,5.5,12.771s0.052-0.259,0.146-0.354
		c0.095-0.094,0.22-0.146,0.354-0.146c0.134,0,0.259,0.052,0.354,0.146L7.437,13.5l2.156-3.019c0.094-0.131,0.246-0.209,0.407-0.209
		c0.105,0,0.205,0.032,0.29,0.093c0.224,0.16,0.277,0.473,0.116,0.698l-2.157,3.02c-0.032,0.045-0.068,0.086-0.106,0.125
		C7.955,14.396,7.704,14.5,7.437,14.5z"/>
	<path d="M13.5,13c-0.276,0-0.5-0.224-0.5-0.5c0-0.276,0.224-0.5,0.5-0.5h4c0.276,0,0.5,0.224,0.5,0.5c0,0.276-0.224,0.5-0.5,0.5
		H13.5z"/>
	<path d="M7.437,19.5c-0.267,0-0.519-0.104-0.707-0.293l-1.083-1.082C5.552,18.031,5.5,17.905,5.5,17.771s0.052-0.259,0.146-0.354
		c0.095-0.094,0.22-0.146,0.354-0.146c0.134,0,0.259,0.052,0.354,0.146L7.437,18.5l2.156-3.019c0.094-0.131,0.246-0.21,0.407-0.21
		c0.105,0,0.205,0.032,0.291,0.094c0.108,0.077,0.18,0.192,0.202,0.324s-0.009,0.264-0.086,0.373l-2.157,3.02
		c-0.032,0.045-0.068,0.086-0.106,0.125C7.955,19.396,7.704,19.5,7.437,19.5z"/>
	<path d="M13.5,18c-0.276,0-0.5-0.224-0.5-0.5s0.224-0.5,0.5-0.5h4c0.276,0,0.5,0.224,0.5,0.5S17.776,18,17.5,18H13.5z"/>
</g>
</svg>
