<?xml version="1.0" encoding="utf-8"?>
<!-- Generator: Adobe Illustrator 22.1.0, SVG Export Plug-In . SVG Version: 6.00 Build 0)  -->
<svg version="1.1" id="Layer_1" xmlns="http://www.w3.org/2000/svg" xmlns:xlink="http://www.w3.org/1999/xlink" x="0px" y="0px"
	 viewBox="0 0 24 24" style="enable-background:new 0 0 24 24;" xml:space="preserve">
<g>
	<title>list-edit</title>
	<path d="M1.498,24c-0.827,0-1.5-0.673-1.5-1.5v-21c0-0.827,0.673-1.5,1.5-1.5h13.293c0.401,0,0.777,0.156,1.061,0.439l3.707,3.707
		c0.283,0.283,0.439,0.66,0.439,1.061V8.5c0,0.276-0.224,0.5-0.5,0.5s-0.5-0.224-0.5-0.5V5.207c0-0.133-0.052-0.259-0.146-0.354
		l-3.707-3.707C15.05,1.052,14.925,1,14.791,1H1.498c-0.276,0-0.5,0.224-0.5,0.5v21c0,0.276,0.224,0.5,0.5,0.5h7
		c0.276,0,0.5,0.224,0.5,0.5S8.774,24,8.498,24H1.498z"/>
	<path d="M4.935,10.499c-0.267,0-0.519-0.104-0.707-0.293L3.145,9.125c-0.195-0.195-0.195-0.512,0-0.707
		c0.095-0.095,0.22-0.147,0.354-0.147c0.133,0,0.259,0.052,0.353,0.146l1.083,1.082L7.091,6.48c0.094-0.131,0.246-0.209,0.407-0.209
		c0.105,0,0.205,0.032,0.29,0.093c0.224,0.16,0.277,0.473,0.117,0.698l-2.157,3.02c-0.032,0.045-0.068,0.087-0.106,0.125
		C5.453,10.395,5.202,10.499,4.935,10.499z"/>
	<path d="M10.498,9c-0.276,0-0.5-0.224-0.5-0.5s0.224-0.5,0.5-0.5h4c0.276,0,0.5,0.224,0.5,0.5S14.774,9,14.498,9H10.498z"/>
	<path d="M4.935,15.5c-0.267,0-0.519-0.104-0.707-0.293l-1.083-1.082c-0.094-0.094-0.146-0.22-0.146-0.353s0.052-0.259,0.146-0.354
		c0.095-0.094,0.22-0.146,0.354-0.146c0.134,0,0.259,0.052,0.354,0.146L4.935,14.5l2.156-3.019c0.094-0.131,0.246-0.21,0.407-0.21
		c0.105,0,0.205,0.032,0.29,0.093c0.224,0.16,0.276,0.473,0.116,0.697l-2.157,3.02c-0.032,0.045-0.068,0.086-0.106,0.125
		C5.453,15.396,5.202,15.5,4.935,15.5z"/>
	<path d="M10.498,14c-0.276,0-0.5-0.224-0.5-0.5s0.224-0.5,0.5-0.5h4c0.276,0,0.5,0.224,0.5,0.5s-0.224,0.5-0.5,0.5H10.498z"/>
	<path d="M11.498,24c-0.134,0-0.259-0.052-0.354-0.146c-0.119-0.119-0.17-0.288-0.137-0.452l0.75-3.75
		c0.019-0.097,0.067-0.185,0.137-0.255l7.63-7.631c0.493-0.493,1.15-0.765,1.849-0.765c0.699,0,1.356,0.272,1.85,0.765
		c0.002,0.002,0.02,0.021,0.026,0.028c0.976,0.989,0.974,2.639-0.01,3.67l-7.638,7.639c-0.07,0.07-0.158,0.117-0.255,0.137
		l-3.75,0.75C11.563,23.997,11.531,24,11.498,24z M12.136,22.863l2.866-0.573l7.521-7.522c0.609-0.64,0.611-1.668,0-2.289
		c-0.307-0.308-0.717-0.478-1.151-0.478c-0.431,0-0.835,0.167-1.139,0.471l-7.523,7.524L12.136,22.863z"/>
</g>
</svg>
