<?xml version="1.0" encoding="utf-8"?>
<!-- Generator: Adobe Illustrator 22.1.0, SVG Export Plug-In . SVG Version: 6.00 Build 0)  -->
<svg version="1.1" id="Layer_1" xmlns="http://www.w3.org/2000/svg" xmlns:xlink="http://www.w3.org/1999/xlink" x="0px" y="0px"
	 viewBox="0 0 24 24" style="enable-background:new 0 0 24 24;" xml:space="preserve">
<g>
	<title>list-quill</title>
	<path d="M1.591,24c-0.827,0-1.5-0.673-1.5-1.5v-21c0-0.827,0.673-1.5,1.5-1.5h13.293c0.401,0,0.777,0.156,1.061,0.439l3.71,3.707
		c0.283,0.283,0.439,0.66,0.439,1.06V8.5c0,0.276-0.224,0.5-0.5,0.5s-0.5-0.224-0.5-0.5V5.207c0-0.134-0.052-0.259-0.146-0.353
		l-3.71-3.707C15.142,1.052,15.017,1,14.883,1H1.591c-0.276,0-0.5,0.224-0.5,0.5v21c0,0.276,0.224,0.5,0.5,0.5h7
		c0.276,0,0.5,0.224,0.5,0.5S8.866,24,8.591,24H1.591z"/>
	<path d="M5.027,10.499c-0.267,0-0.519-0.104-0.707-0.293L3.237,9.125c-0.195-0.195-0.195-0.512,0-0.707
		c0.095-0.095,0.22-0.147,0.354-0.147c0.133,0,0.259,0.052,0.353,0.146l1.083,1.082L7.184,6.48c0.094-0.131,0.246-0.209,0.407-0.209
		c0.105,0,0.205,0.032,0.29,0.093c0.224,0.16,0.277,0.473,0.117,0.698l-2.157,3.02c-0.033,0.046-0.068,0.087-0.106,0.125
		C5.545,10.395,5.294,10.499,5.027,10.499z"/>
	<path d="M10.591,9c-0.276,0-0.5-0.224-0.5-0.5s0.224-0.5,0.5-0.5h4c0.276,0,0.5,0.224,0.5,0.5S14.866,9,14.59,9H10.591z"/>
	<path d="M5.027,15.5c-0.267,0-0.519-0.104-0.707-0.293l-1.083-1.082c-0.094-0.094-0.146-0.22-0.146-0.353s0.052-0.259,0.146-0.354
		c0.095-0.094,0.22-0.146,0.354-0.146c0.134,0,0.259,0.052,0.354,0.146L5.027,14.5l2.156-3.019c0.094-0.131,0.246-0.21,0.407-0.21
		c0.105,0,0.205,0.032,0.291,0.093c0.224,0.16,0.276,0.473,0.116,0.697l-2.157,3.02c-0.033,0.046-0.068,0.087-0.106,0.125
		C5.545,15.396,5.294,15.5,5.027,15.5z"/>
	<path d="M10.591,14c-0.276,0-0.5-0.224-0.5-0.5s0.224-0.5,0.5-0.5h1.5c0.276,0,0.5,0.224,0.5,0.5s-0.224,0.5-0.5,0.5H10.591z"/>
	<path d="M10.591,24c-0.134,0-0.259-0.052-0.354-0.146c-0.195-0.195-0.195-0.512,0-0.707l2.711-2.711
		c-0.83-1.035-1.013-2.318-0.527-3.725c0.697-2.016,2.792-4.083,3.662-4.188c0.019-0.002,0.04-0.004,0.061-0.004
		c0.122,0,0.24,0.045,0.332,0.127c0.106,0.094,0.168,0.231,0.167,0.374l-0.003,1.261c0.734-0.465,1.187-1.86,1.31-2.425
		c0.034-0.159,0.144-0.292,0.294-0.355c1.438-0.606,2.944-1.062,4.476-1.356c0.062-0.012,0.125-0.018,0.189-0.018
		c0.09,0,0.178,0.012,0.264,0.036c0.258,0.071,0.473,0.237,0.605,0.469c0.132,0.232,0.166,0.501,0.096,0.759
		c-0.543,1.898-1.768,5.393-3.876,7.506c-1.324,1.323-2.672,2.182-3.898,2.483c-0.333,0.082-0.657,0.123-0.964,0.123
		c-0.543,0-1.041-0.134-1.452-0.388l-2.738,2.738C10.85,23.948,10.724,24,10.591,24z M14.424,20.373
		c0.21,0.086,0.45,0.129,0.718,0.129c0.225,0,0.467-0.031,0.718-0.093c1.05-0.258,2.236-1.025,3.43-2.219
		c2.022-2.027,3.206-5.619,3.621-7.069c-1.383,0.271-2.744,0.674-4.048,1.206c-0.235,0.871-1.006,3.108-2.725,3.108
		c-0.132,0-0.261-0.054-0.354-0.147c-0.093-0.093-0.146-0.222-0.146-0.354l0.002-1.037c-0.702,0.583-1.799,1.765-2.274,3.141
		c-0.358,1.037-0.259,1.939,0.294,2.686l3.986-3.986c0.094-0.094,0.22-0.146,0.354-0.146s0.259,0.052,0.354,0.146
		c0.195,0.195,0.195,0.512,0,0.707L14.424,20.373z"/>
</g>
</svg>
