<?xml version="1.0" encoding="utf-8"?>
<!-- Generator: Adobe Illustrator 22.1.0, SVG Export Plug-In . SVG Version: 6.00 Build 0)  -->
<svg version="1.1" id="Layer_1" xmlns="http://www.w3.org/2000/svg" xmlns:xlink="http://www.w3.org/1999/xlink" x="0px" y="0px"
	 viewBox="0 0 24 24" style="enable-background:new 0 0 24 24;" xml:space="preserve">
<g>
	<title>task-list-heart</title>
	<path d="M3.517,19.085c-0.276,0-0.5-0.224-0.5-0.5V5.586c0-0.276,0.224-0.5,0.5-0.5h11c0.276,0,0.5,0.224,0.5,0.5v4.5
		c0,0.276-0.224,0.5-0.5,0.5s-0.5-0.224-0.5-0.5v-4h-10v11.999l5,0.001c0.276,0,0.5,0.224,0.5,0.5s-0.224,0.5-0.5,0.5L3.517,19.085z
		"/>
	<path d="M1.517,22.086c-0.827,0-1.5-0.673-1.5-1.5v-17c0-0.827,0.673-1.5,1.5-1.5h4.141c0.405-0.743,1.049-1.334,1.827-1.674
		c0.487-0.213,1.001-0.321,1.53-0.321c1.397,0,2.701,0.778,3.366,1.995h4.137c0.827,0,1.5,0.673,1.5,1.5v5.5
		c0,0.276-0.224,0.5-0.5,0.5s-0.5-0.224-0.5-0.5v-5.5c0-0.276-0.224-0.5-0.5-0.5h-4.448c-0.199,0-0.378-0.118-0.458-0.3
		c-0.451-1.03-1.47-1.695-2.597-1.695c-0.39,0-0.77,0.08-1.129,0.237C7.231,1.614,6.714,2.132,6.427,2.786
		c-0.08,0.182-0.259,0.3-0.458,0.3H1.517c-0.276,0-0.5,0.224-0.5,0.5v17c0,0.276,0.224,0.5,0.5,0.5h8.5c0.276,0,0.5,0.224,0.5,0.5
		s-0.224,0.5-0.5,0.5H1.517z"/>
	<path d="M6.517,9.086c-0.276,0-0.5-0.224-0.5-0.5s0.224-0.5,0.5-0.5h5c0.276,0,0.5,0.224,0.5,0.5s-0.224,0.5-0.5,0.5H6.517z"/>
	<path d="M6.517,12.086c-0.276,0-0.5-0.224-0.5-0.5s0.224-0.5,0.5-0.5h5c0.276,0,0.5,0.224,0.5,0.5s-0.224,0.5-0.5,0.5H6.517z"/>
	<path d="M6.517,15.086c-0.276,0-0.5-0.224-0.5-0.5s0.224-0.5,0.5-0.5h3c0.276,0,0.5,0.224,0.5,0.5s-0.224,0.5-0.5,0.5H6.517z"/>
	<path d="M17.517,23.863c-0.259,0-0.505-0.099-0.692-0.278c-0.002-0.002-0.021-0.021-0.023-0.023l-4.762-4.965
		c-1.069-1.069-1.333-2.703-0.653-4.063c0.421-0.842,1.146-1.47,2.039-1.768c0.363-0.121,0.739-0.182,1.117-0.182
		c0.548,0,1.078,0.126,1.575,0.374c0.34,0.17,0.648,0.392,0.916,0.66l0.481,0.481l0.481-0.481c0.666-0.666,1.551-1.033,2.492-1.033
		c0.942,0,1.827,0.367,2.493,1.032c0.27,0.269,0.492,0.578,0.661,0.917c0.679,1.359,0.414,2.994-0.659,4.07l-4.744,4.95
		C18.052,23.751,17.789,23.863,17.517,23.863z M14.543,13.585c-0.271,0-0.541,0.044-0.801,0.131
		c-0.64,0.213-1.159,0.663-1.461,1.266c-0.487,0.974-0.297,2.146,0.473,2.916l4.762,4.965l4.751-4.958
		c0.775-0.777,0.966-1.95,0.479-2.924c-0.121-0.243-0.28-0.464-0.473-0.657c-0.477-0.477-1.111-0.739-1.785-0.739
		c-0.675,0-1.309,0.263-1.786,0.74l-0.835,0.835c-0.094,0.094-0.22,0.146-0.354,0.146s-0.259-0.052-0.354-0.146l-0.835-0.835
		c-0.193-0.193-0.413-0.352-0.656-0.473C15.315,13.675,14.936,13.585,14.543,13.585z"/>
</g>
</svg>
