<?xml version="1.0" encoding="utf-8"?>
<!-- Generator: Adobe Illustrator 22.1.0, SVG Export Plug-In . SVG Version: 6.00 Build 0)  -->
<svg version="1.1" id="Layer_1" xmlns="http://www.w3.org/2000/svg" xmlns:xlink="http://www.w3.org/1999/xlink" x="0px" y="0px"
	 viewBox="0 0 24 24" style="enable-background:new 0 0 24 24;" xml:space="preserve">
<g>
	<title>task-list-text-1</title>
	<path d="M5.5,20.999c-0.276,0-0.5-0.224-0.5-0.5v-15c0-0.276,0.224-0.5,0.5-0.5h13c0.276,0,0.5,0.224,0.5,0.5v10.762
		c0,0.596-0.215,1.173-0.603,1.625l-1.919,2.238c-0.475,0.555-1.167,0.874-1.898,0.875H5.5z M14.58,19.999
		c0.439,0,0.854-0.192,1.139-0.525l1.919-2.239C17.871,16.964,18,16.618,18,16.26V5.999H6v14H14.58z"/>
	<path d="M3.5,23.999c-0.827,0-1.5-0.673-1.5-1.5v-19c0-0.827,0.673-1.5,1.5-1.5h5.141c0.405-0.743,1.049-1.334,1.827-1.674
		c0.49-0.214,1.005-0.323,1.533-0.323c0.477,0,0.947,0.089,1.397,0.265c0.843,0.33,1.536,0.942,1.966,1.732H20.5
		c0.827,0,1.5,0.673,1.5,1.5v19c0,0.827-0.673,1.5-1.5,1.5H3.5z M3.5,2.999c-0.276,0-0.5,0.224-0.5,0.5v19
		c0,0.276,0.224,0.5,0.5,0.5h17c0.276,0,0.5-0.224,0.5-0.5v-19c0-0.276-0.224-0.5-0.5-0.5h-5.448c-0.199,0-0.378-0.118-0.458-0.3
		c-0.303-0.692-0.857-1.225-1.561-1.501c-0.333-0.13-0.68-0.196-1.032-0.196c-0.389,0-0.77,0.08-1.132,0.239
		C10.214,1.527,9.696,2.045,9.41,2.699c-0.08,0.182-0.259,0.3-0.458,0.3H3.5z"/>
	<path d="M8.5,8.999c-0.276,0-0.5-0.224-0.5-0.5s0.224-0.5,0.5-0.5h7c0.276,0,0.5,0.224,0.5,0.5s-0.224,0.5-0.5,0.5H8.5z"/>
	<path d="M8.5,12.999c-0.276,0-0.5-0.224-0.5-0.5c0-0.276,0.224-0.5,0.5-0.5h7c0.276,0,0.5,0.224,0.5,0.5c0,0.276-0.224,0.5-0.5,0.5
		H8.5z"/>
	<path d="M8.5,16.999c-0.276,0-0.5-0.224-0.5-0.5s0.224-0.5,0.5-0.5H13c0.276,0,0.5,0.224,0.5,0.5s-0.224,0.5-0.5,0.5H8.5z"/>
</g>
</svg>
