<?xml version="1.0" encoding="utf-8"?>
<!-- Generator: Adobe Illustrator 22.1.0, SVG Export Plug-In . SVG Version: 6.00 Build 0)  -->
<svg version="1.1" id="Layer_1" xmlns="http://www.w3.org/2000/svg" xmlns:xlink="http://www.w3.org/1999/xlink" x="0px" y="0px"
	 viewBox="0 0 24 24" style="enable-background:new 0 0 24 24;" xml:space="preserve">
<g>
	<title>task-list-settings</title>
	<path d="M17.75,18.961c-1.068,0-1.937-0.869-1.937-1.937s0.869-1.937,1.937-1.937s1.937,0.869,1.937,1.937
		S18.818,18.961,17.75,18.961z M17.75,16.087c-0.517,0-0.937,0.42-0.937,0.937s0.42,0.937,0.937,0.937s0.937-0.42,0.937-0.937
		S18.267,16.087,17.75,16.087z"/>
	<path d="M17.752,23.988c-0.174,0-0.346-0.025-0.513-0.076c-0.572-0.172-1.017-0.616-1.189-1.189l-0.424-1.391
		c-0.057-0.19-0.235-0.322-0.432-0.322c-0.034,0-0.068,0.004-0.101,0.012l-1.412,0.327c-0.131,0.029-0.262,0.044-0.393,0.044
		c-0.827,0-1.559-0.585-1.741-1.391c-0.13-0.575,0.033-1.176,0.434-1.607l0.987-1.064c0.16-0.174,0.159-0.447-0.001-0.622
		l-0.987-1.063c-0.324-0.347-0.493-0.801-0.476-1.278c0.017-0.476,0.218-0.917,0.566-1.241c0.331-0.309,0.762-0.478,1.215-0.478
		c0.132,0,0.263,0.015,0.392,0.043l1.415,0.327c0.033,0.008,0.067,0.012,0.101,0.012c0.197,0,0.375-0.132,0.432-0.321l0.424-1.393
		c0.136-0.453,0.441-0.826,0.859-1.051c0.258-0.139,0.548-0.212,0.838-0.212c0.173,0,0.346,0.026,0.513,0.076
		c0.572,0.172,1.016,0.616,1.188,1.188l0.424,1.391c0.057,0.19,0.235,0.322,0.432,0.322c0.034,0,0.068-0.004,0.101-0.012
		l1.412-0.327c0.131-0.029,0.262-0.044,0.393-0.044c0.827,0,1.559,0.585,1.741,1.391c0.13,0.574-0.032,1.175-0.434,1.607
		l-0.988,1.064c-0.16,0.173-0.159,0.447,0.001,0.622l0.987,1.063c0.323,0.348,0.493,0.802,0.476,1.278
		c-0.017,0.476-0.218,0.917-0.566,1.241c-0.33,0.308-0.762,0.479-1.215,0.479l0,0c-0.132,0-0.264-0.015-0.392-0.044l-1.415-0.327
		c-0.034-0.008-0.068-0.012-0.102-0.012c-0.197,0-0.374,0.132-0.431,0.321l-0.424,1.393c-0.136,0.453-0.441,0.826-0.859,1.051
		C18.333,23.914,18.043,23.988,17.752,23.988z M15.193,20.011c0.635,0,1.207,0.424,1.39,1.031l0.424,1.391
		c0.075,0.251,0.269,0.445,0.519,0.52c0.074,0.022,0.149,0.034,0.225,0.034c0.126,0,0.252-0.032,0.365-0.093
		c0.182-0.098,0.316-0.261,0.375-0.459l0.425-1.394c0.183-0.607,0.755-1.031,1.389-1.031c0.109,0,0.219,0.012,0.326,0.037
		l1.412,0.327c0.055,0.013,0.113,0.019,0.17,0.019c0.198,0,0.387-0.075,0.533-0.21c0.316-0.294,0.334-0.791,0.04-1.107l-0.989-1.066
		c-0.511-0.555-0.511-1.424-0.001-1.979l0.989-1.066c0.177-0.19,0.249-0.454,0.191-0.707c-0.046-0.204-0.168-0.378-0.345-0.49
		c-0.126-0.079-0.27-0.121-0.417-0.121c-0.058,0-0.117,0.007-0.175,0.02l-1.409,0.326c-0.107,0.024-0.216,0.037-0.324,0.037
		c-0.636,0-1.208-0.424-1.392-1.031c0,0-0.425-1.393-0.425-1.394c-0.075-0.249-0.269-0.443-0.519-0.518
		c-0.073-0.022-0.149-0.033-0.225-0.033c-0.128,0-0.251,0.031-0.365,0.093c-0.182,0.098-0.316,0.261-0.375,0.459l-0.425,1.394
		c-0.183,0.607-0.755,1.031-1.39,1.031c-0.109,0-0.218-0.012-0.325-0.037l-1.412-0.327c-0.055-0.013-0.113-0.019-0.17-0.019
		c-0.198,0-0.387,0.075-0.533,0.21c-0.316,0.294-0.334,0.791-0.04,1.107l0.989,1.066c0.511,0.555,0.511,1.424,0.001,1.979
		l-0.989,1.066c-0.177,0.19-0.249,0.454-0.192,0.707c0.08,0.354,0.401,0.611,0.764,0.611c0.058,0,0.115-0.006,0.172-0.019
		l1.409-0.326C14.975,20.024,15.084,20.011,15.193,20.011z"/>
	<path d="M3.5,18.992c-0.276,0-0.5-0.224-0.5-0.5V5.492c0-0.276,0.224-0.5,0.5-0.5h11c0.276,0,0.5,0.224,0.5,0.5v4
		c0,0.276-0.224,0.5-0.5,0.5S14,9.768,14,9.492v-3.5H4v11.999l5.5,0.001c0.276,0,0.5,0.224,0.5,0.5s-0.224,0.5-0.5,0.5L3.5,18.992z"
		/>
	<path d="M1.5,21.993c-0.827,0-1.5-0.673-1.5-1.5v-17c0-0.827,0.673-1.5,1.5-1.5h4.141C6.046,1.25,6.689,0.659,7.468,0.318
		c0.487-0.213,1.001-0.321,1.53-0.321c1.397,0,2.701,0.778,3.366,1.995H16.5c0.827,0,1.5,0.673,1.5,1.5v4c0,0.276-0.224,0.5-0.5,0.5
		S17,7.768,17,7.492v-4c0-0.276-0.224-0.5-0.5-0.5h-4.448c-0.199,0-0.378-0.118-0.458-0.3c-0.45-1.03-1.47-1.695-2.597-1.695
		c-0.39,0-0.77,0.08-1.129,0.237C7.214,1.521,6.696,2.039,6.41,2.693c-0.08,0.182-0.259,0.3-0.458,0.3H1.5
		c-0.276,0-0.5,0.224-0.5,0.5v17c0,0.276,0.224,0.5,0.5,0.5h8c0.276,0,0.5,0.224,0.5,0.5s-0.224,0.5-0.5,0.5H1.5z"/>
	<path d="M6.5,8.992c-0.276,0-0.5-0.224-0.5-0.5s0.224-0.5,0.5-0.5h5c0.276,0,0.5,0.224,0.5,0.5s-0.224,0.5-0.5,0.5H6.5z"/>
	<path d="M6.5,11.992c-0.276,0-0.5-0.224-0.5-0.5s0.224-0.5,0.5-0.5h5c0.276,0,0.5,0.224,0.5,0.5s-0.224,0.5-0.5,0.5H6.5z"/>
	<path d="M6.5,14.993c-0.276,0-0.5-0.224-0.5-0.5s0.224-0.5,0.5-0.5h3c0.276,0,0.5,0.224,0.5,0.5s-0.224,0.5-0.5,0.5H6.5z"/>
</g>
</svg>
