<?xml version="1.0" encoding="utf-8"?>
<!-- Generator: Adobe Illustrator 22.1.0, SVG Export Plug-In . SVG Version: 6.00 Build 0)  -->
<svg version="1.1" id="Layer_1" xmlns="http://www.w3.org/2000/svg" xmlns:xlink="http://www.w3.org/1999/xlink" x="0px" y="0px"
	 viewBox="0 0 24 24" style="enable-background:new 0 0 24 24;" xml:space="preserve">
<g>
	<title>task-list-pin-1</title>
	<path d="M4,24c-0.827,0-1.5-0.673-1.5-1.5v-16C2.5,5.673,3.173,5,4,5h9c0.276,0,0.5,0.224,0.5,0.5S13.276,6,13,6H4
		C3.724,6,3.5,6.224,3.5,6.5v16C3.5,22.776,3.724,23,4,23h11.025c0.156,0,0.313-0.007,0.475-0.022V19.5c0-0.827,0.673-1.5,1.5-1.5
		h3.478c0.015-0.162,0.022-0.319,0.022-0.475V6.5C20.5,6.224,20.276,6,20,6h-1.5C18.224,6,18,5.776,18,5.5S18.224,5,18.5,5H20
		c0.827,0,1.5,0.673,1.5,1.5v11.025c0,3.57-2.905,6.475-6.475,6.475H4z M17,19c-0.276,0-0.5,0.224-0.5,0.5v3.297
		c1.836-0.514,3.282-1.961,3.797-3.797H17z"/>
	<path d="M12,10c-0.134,0-0.259-0.052-0.354-0.146S11.5,9.634,11.5,9.5s0.052-0.259,0.146-0.354l6.132-6.132
		C17.596,2.707,17.5,2.36,17.5,2c0-1.103,0.897-2,2-2s2,0.897,2,2s-0.897,2-2,2c-0.36,0-0.707-0.096-1.014-0.279l-6.132,6.132
		C12.259,9.948,12.134,10,12,10z M19.5,1c-0.552,0-1,0.449-1,1s0.448,1,1,1s1-0.449,1-1S20.052,1,19.5,1z"/>
	<path d="M6,13c-0.276,0-0.5-0.224-0.5-0.5C5.5,12.224,5.724,12,6,12h11c0.276,0,0.5,0.224,0.5,0.5c0,0.276-0.224,0.5-0.5,0.5H6z"/>
	<path d="M6,16c-0.276,0-0.5-0.224-0.5-0.5S5.724,15,6,15h11c0.276,0,0.5,0.224,0.5,0.5S17.276,16,17,16H6z"/>
	<path d="M6,19c-0.276,0-0.5-0.224-0.5-0.5S5.724,18,6,18h5.5c0.276,0,0.5,0.224,0.5,0.5S11.776,19,11.5,19H6z"/>
</g>
</svg>
