<?xml version="1.0" encoding="utf-8"?>
<!-- Generator: Adobe Illustrator 22.1.0, SVG Export Plug-In . SVG Version: 6.00 Build 0)  -->
<svg version="1.1" id="Layer_1" xmlns="http://www.w3.org/2000/svg" xmlns:xlink="http://www.w3.org/1999/xlink" x="0px" y="0px"
	 viewBox="0 0 24 24" style="enable-background:new 0 0 24 24;" xml:space="preserve">
<g>
	<title>task-list-disable</title>
	<path d="M3.516,18.974c-0.276,0-0.5-0.224-0.5-0.5V5.475c0-0.276,0.224-0.5,0.5-0.5h11c0.276,0,0.5,0.224,0.5,0.5v4
		c0,0.276-0.224,0.5-0.5,0.5s-0.5-0.224-0.5-0.5v-3.5h-10v11.999l4.5,0.001c0.276,0,0.5,0.224,0.5,0.5s-0.224,0.5-0.5,0.5
		L3.516,18.974z"/>
	<path d="M1.516,21.975c-0.827,0-1.5-0.673-1.5-1.5v-17c0-0.827,0.673-1.5,1.5-1.5h4.141c0.405-0.743,1.048-1.334,1.827-1.674
		C7.97,0.088,8.485-0.02,9.013-0.02c1.397,0,2.701,0.778,3.366,1.995h4.137c0.827,0,1.5,0.673,1.5,1.5v5c0,0.276-0.224,0.5-0.5,0.5
		s-0.5-0.224-0.5-0.5v-5c0-0.276-0.224-0.5-0.5-0.5h-4.448c-0.199,0-0.378-0.118-0.458-0.3c-0.451-1.03-1.47-1.695-2.597-1.695
		c-0.39,0-0.769,0.08-1.129,0.237C7.23,1.504,6.712,2.022,6.426,2.676c-0.08,0.182-0.259,0.3-0.458,0.3H1.516
		c-0.276,0-0.5,0.224-0.5,0.5v17c0,0.276,0.224,0.5,0.5,0.5h8c0.276,0,0.5,0.224,0.5,0.5s-0.224,0.5-0.5,0.5H1.516z"/>
	<path d="M6.516,8.975c-0.276,0-0.5-0.224-0.5-0.5s0.224-0.5,0.5-0.5h5c0.276,0,0.5,0.224,0.5,0.5s-0.224,0.5-0.5,0.5H6.516z"/>
	<path d="M6.516,11.975c-0.276,0-0.5-0.224-0.5-0.5s0.224-0.5,0.5-0.5h5c0.276,0,0.5,0.224,0.5,0.5s-0.224,0.5-0.5,0.5H6.516z"/>
	<path d="M6.516,14.975c-0.276,0-0.5-0.224-0.5-0.5s0.224-0.5,0.5-0.5h3c0.276,0,0.5,0.224,0.5,0.5s-0.224,0.5-0.5,0.5H6.516z"/>
	<path d="M17.516,23.975c-1.72,0-3.342-0.667-4.568-1.88c-0.01-0.008-0.021-0.016-0.029-0.024c-0.009-0.009-0.019-0.02-0.027-0.032
		c-1.206-1.215-1.876-2.84-1.876-4.563c0-3.584,2.916-6.5,6.5-6.5c1.718,0,3.338,0.666,4.563,1.876
		c0.012,0.009,0.024,0.019,0.033,0.028c0.015,0.014,0.026,0.029,0.034,0.041c1.2,1.209,1.869,2.833,1.869,4.555
		C24.016,21.06,21.1,23.975,17.516,23.975z M13.998,21.699c0.988,0.825,2.227,1.276,3.518,1.276c3.033,0,5.5-2.467,5.5-5.5
		c0-1.29-0.451-2.529-1.276-3.517L13.998,21.699z M17.516,11.975c-3.033,0-5.5,2.467-5.5,5.5c0,1.29,0.451,2.529,1.275,3.517
		l7.742-7.741C20.045,12.426,18.806,11.975,17.516,11.975z"/>
</g>
</svg>
