<?xml version="1.0" encoding="utf-8"?>
<!-- Generator: Adobe Illustrator 22.1.0, SVG Export Plug-In . SVG Version: 6.00 Build 0)  -->
<svg version="1.1" id="Layer_1" xmlns="http://www.w3.org/2000/svg" xmlns:xlink="http://www.w3.org/1999/xlink" x="0px" y="0px"
	 viewBox="0 0 24 24" style="enable-background:new 0 0 24 24;" xml:space="preserve">
<g>
	<title>task-list-edit</title>
	<path d="M2.498,24c-1.379,0-2.5-1.122-2.5-2.5v-19c0-1.379,1.121-2.5,2.5-2.5h14c1.378,0,2.5,1.121,2.5,2.5v1
		c0,0.276-0.224,0.5-0.5,0.5s-0.5-0.224-0.5-0.5v-1c0-0.827-0.673-1.5-1.5-1.5h-2.5v1h1.5c0.827,0,1.5,0.673,1.5,1.5v2
		c0,0.276-0.224,0.5-0.5,0.5s-0.5-0.224-0.5-0.5v-2c0-0.276-0.224-0.5-0.5-0.5h-1.586c-0.209,0.59-0.774,1-1.414,1h-6
		c-0.64,0-1.205-0.41-1.414-1H3.498c-0.276,0-0.5,0.224-0.5,0.5v17c0,0.276,0.224,0.5,0.5,0.5h12c0.276,0,0.5-0.224,0.5-0.5v-5
		c0-0.276,0.224-0.5,0.5-0.5s0.5,0.224,0.5,0.5v5c0,0.827-0.673,1.5-1.5,1.5h-12c-0.827,0-1.5-0.673-1.5-1.5v-17
		c0-0.827,0.673-1.5,1.5-1.5h1.5V1h-2.5c-0.827,0-1.5,0.673-1.5,1.5v19c0,0.827,0.673,1.5,1.5,1.5h14c0.827,0,1.5-0.673,1.5-1.5v-8
		c0-0.276,0.224-0.5,0.5-0.5s0.5,0.224,0.5,0.5v8c0,1.378-1.122,2.5-2.5,2.5H2.498z M5.998,2.5c0,0.276,0.224,0.5,0.5,0.5h6
		c0.276,0,0.5-0.224,0.5-0.5V1h-7V2.5z"/>
	<path d="M7.295,20c-0.134,0-0.259-0.052-0.354-0.147c-0.138-0.138-0.183-0.345-0.115-0.528l1.268-3.389
		c0.004-0.01,0.02-0.042,0.022-0.046c0.011-0.026,0.035-0.064,0.066-0.101c0.007-0.01,0.015-0.02,0.023-0.028L20.584,3.382
		c0.377-0.377,0.88-0.585,1.415-0.585c0.535,0,1.037,0.208,1.414,0.585c0.78,0.78,0.78,2.049,0,2.829L11.038,18.585
		c-0.009,0.009-0.02,0.018-0.031,0.027c-0.031,0.027-0.07,0.053-0.113,0.073c-0.004,0.002-0.031,0.015-0.036,0.017l-3.387,1.267
		C7.415,19.989,7.356,20,7.295,20z M8.148,18.647l1.633-0.611l-1.022-1.022L8.148,18.647z M10.684,17.525L21.292,6.918l-1.415-1.415
		L9.27,16.111L10.684,17.525z M21.999,6.211l0.707-0.707c0.39-0.39,0.39-1.025,0-1.415c-0.188-0.188-0.44-0.292-0.708-0.292
		c-0.268,0-0.519,0.104-0.708,0.292l-0.707,0.707L21.999,6.211z"/>
	<path d="M5.299,13c-0.376,0-0.714-0.209-0.882-0.545l-0.366-0.731c-0.123-0.247-0.023-0.547,0.224-0.671
		C4.344,11.018,4.421,11,4.498,11c0.191,0,0.362,0.106,0.448,0.276l0.356,0.713l1.843-1.843C7.239,10.052,7.365,10,7.498,10
		s0.259,0.052,0.354,0.146s0.146,0.22,0.146,0.354s-0.052,0.259-0.146,0.354l-1.858,1.858c-0.074,0.075-0.161,0.137-0.258,0.186
		C5.6,12.965,5.449,13,5.299,13z M5.312,12.008L5.312,12.008z"/>
	<path d="M9.498,12c-0.276,0-0.5-0.224-0.5-0.5s0.224-0.5,0.5-0.5h1c0.276,0,0.5,0.224,0.5,0.5s-0.224,0.5-0.5,0.5H9.498z"/>
	<path d="M5.298,9.001c-0.106,0-0.212-0.017-0.313-0.051C4.736,8.866,4.534,8.69,4.417,8.455L4.051,7.724
		C3.928,7.477,4.028,7.176,4.275,7.053C4.344,7.018,4.421,7,4.498,7C4.689,7,4.86,7.106,4.946,7.276l0.356,0.713l1.843-1.843
		C7.239,6.052,7.365,6,7.498,6s0.259,0.052,0.354,0.146S7.998,6.366,7.998,6.5S7.946,6.759,7.852,6.854L5.994,8.712
		C5.918,8.788,5.831,8.85,5.735,8.898C5.598,8.966,5.451,9.001,5.298,9.001z"/>
	<path d="M9.498,8c-0.276,0-0.5-0.224-0.5-0.5S9.223,7,9.498,7h4c0.276,0,0.5,0.224,0.5,0.5S13.774,8,13.498,8H9.498z"/>
</g>
</svg>
