<?xml version="1.0" encoding="utf-8"?>
<!-- Generator: Adobe Illustrator 22.1.0, SVG Export Plug-In . SVG Version: 6.00 Build 0)  -->
<svg version="1.1" id="Layer_1" xmlns="http://www.w3.org/2000/svg" xmlns:xlink="http://www.w3.org/1999/xlink" x="0px" y="0px"
	 viewBox="0 0 24 24" style="enable-background:new 0 0 24 24;" xml:space="preserve">
<g>
	<title>task-list-pen</title>
	<path d="M4.5,24C3.673,24,3,23.327,3,22.5v-16C3,6.224,3.224,6,3.5,6C4.879,6,6,4.879,6,3.5S4.879,1,3.5,1S1,2.121,1,3.5v12
		C1,15.776,1.224,16,1.5,16S2,16.224,2,16.5S1.776,17,1.5,17C0.673,17,0,16.327,0,15.5v-12C0,1.57,1.57,0,3.5,0h12
		C17.43,0,19,1.57,19,3.5c0,1.738-1.3,3.216-3,3.461V22.5c0,0.827-0.673,1.5-1.5,1.5H4.5z M4,22.5C4,22.776,4.224,23,4.5,23h10
		c0.276,0,0.5-0.224,0.5-0.5V7H4V22.5z M15.5,6C16.878,6,18,4.879,18,3.5S16.878,1,15.5,1H5.945C6.615,1.652,7,2.545,7,3.5
		S6.615,5.348,5.945,6H15.5z"/>
	<path d="M9.5,11C9.224,11,9,10.776,9,10.5S9.224,10,9.5,10h4c0.276,0,0.5,0.224,0.5,0.5S13.776,11,13.5,11H9.5z"/>
	<path d="M9.5,15C9.224,15,9,14.776,9,14.5S9.224,14,9.5,14h4c0.276,0,0.5,0.224,0.5,0.5S13.776,15,13.5,15H9.5z"/>
	<path d="M9.5,19C9.224,19,9,18.776,9,18.5S9.224,18,9.5,18h4c0.276,0,0.5,0.224,0.5,0.5S13.776,19,13.5,19H9.5z"/>
	<path d="M6,11c-0.134,0-0.259-0.052-0.354-0.146l-0.5-0.5C5.052,10.259,5,10.134,5,10s0.052-0.259,0.146-0.354S5.366,9.5,5.5,9.5
		s0.259,0.052,0.354,0.146L6,9.793l1.646-1.646C7.741,8.052,7.866,8,8,8s0.259,0.052,0.354,0.146S8.5,8.366,8.5,8.5
		S8.448,8.759,8.354,8.854l-2,2C6.259,10.948,6.134,11,6,11z"/>
	<path d="M6,15c-0.134,0-0.259-0.052-0.354-0.146l-0.5-0.5C5.052,14.259,5,14.134,5,14s0.052-0.259,0.146-0.354S5.366,13.5,5.5,13.5
		s0.259,0.052,0.354,0.146L6,13.793l1.646-1.646C7.741,12.052,7.866,12,8,12s0.259,0.052,0.354,0.146S8.5,12.366,8.5,12.5
		s-0.052,0.259-0.146,0.354l-2,2C6.259,14.948,6.134,15,6,15z"/>
	<path d="M22,24c-1.103,0-2-0.897-2-2V7.5c-0.552,0-1,0.449-1,1V16c0,0.276-0.224,0.5-0.5,0.5S18,16.276,18,16V8.5
		c0-1.103,0.897-2,2-2h0.271c0.356-0.612,1.018-1,1.729-1c1.103,0,2,0.897,2,2V22C24,23.103,23.103,24,22,24z M21,22
		c0,0.552,0.448,1,1,1s1-0.448,1-1H21z M23,21v-6h-2v6H23z M23,14V7.5c0-0.551-0.448-1-1-1s-1,0.449-1,1V14H23z"/>
</g>
</svg>
