<?xml version="1.0" encoding="utf-8"?>
<!-- Generator: Adobe Illustrator 22.1.0, SVG Export Plug-In . SVG Version: 6.00 Build 0)  -->
<svg version="1.1" id="Layer_1" xmlns="http://www.w3.org/2000/svg" xmlns:xlink="http://www.w3.org/1999/xlink" x="0px" y="0px"
	 viewBox="0 0 24 24" style="enable-background:new 0 0 24 24;" xml:space="preserve">
<g>
	<title>task-finger-bandage</title>
	<path d="M9.319,24.001c-0.157,0-0.306-0.075-0.4-0.2c-1.506-2.008-5.288-8.447-5.448-8.72c-0.238-0.343-0.333-0.802-0.251-1.242
		c0.083-0.447,0.335-0.834,0.709-1.091c0.283-0.195,0.616-0.298,0.962-0.298c0.4,0,0.787,0.14,1.092,0.395l1.837,1.571V6l-1.2,0.9
		C6.532,6.966,6.428,7,6.319,7c-0.157,0-0.306-0.075-0.4-0.2C5.839,6.694,5.805,6.562,5.824,6.43C5.843,6.297,5.912,6.18,6.019,6.1
		L7.485,5L6.019,3.9C5.912,3.82,5.843,3.703,5.824,3.571C5.805,3.439,5.839,3.307,5.919,3.2C6.013,3.075,6.163,3,6.319,3
		c0.109,0,0.213,0.035,0.3,0.1l1.2,0.9V2c0-1.103,0.897-2,2-2s2,0.897,2,2v6h1.5c0.64,0,1.205,0.41,1.414,1h1.586
		c0.64,0,1.205,0.41,1.414,1h1.086c1.103,0,2,0.897,2,2v3.1c0,0.977-0.136,1.947-0.404,2.885l-1.615,5.652
		C18.738,23.851,18.54,24,18.319,24c-0.045,0-0.091-0.006-0.135-0.019c-0.267-0.077-0.421-0.354-0.346-0.619l1.615-5.652
		c0.243-0.848,0.366-1.727,0.366-2.611V12c0-0.551-0.448-1-1-1h-1v1.5c0,0.276-0.224,0.5-0.5,0.5s-0.5-0.224-0.5-0.5v-2
		c0-0.276-0.224-0.5-0.5-0.5h-1.5v1.5c0,0.276-0.224,0.5-0.5,0.5s-0.5-0.224-0.5-0.5v-2c0-0.276-0.224-0.5-0.5-0.5h-1.5v2.5
		c0,0.276-0.224,0.5-0.5,0.5s-0.5-0.224-0.5-0.5V7h-2v8.5c0,0.195-0.114,0.373-0.291,0.454C8.461,15.985,8.391,16,8.319,16
		c-0.119,0-0.235-0.042-0.325-0.12l-2.658-2.273c-0.122-0.102-0.281-0.159-0.445-0.159c-0.143,0-0.28,0.042-0.397,0.123
		c-0.154,0.106-0.258,0.265-0.292,0.449c-0.034,0.184,0.005,0.37,0.111,0.524l0.036,0.06c0.662,1.123,4.033,6.815,5.369,8.597
		c0.08,0.107,0.114,0.238,0.095,0.371c-0.019,0.132-0.088,0.249-0.195,0.329C9.532,23.966,9.428,24.001,9.319,24.001z M10.819,6V4
		h-2v2H10.819z M10.819,3V2c0-0.551-0.449-1-1-1s-1,0.449-1,1v1H10.819z"/>
</g>
</svg>
