<?xml version="1.0" encoding="utf-8"?>
<!-- Generator: Adobe Illustrator 22.1.0, SVG Export Plug-In . SVG Version: 6.00 Build 0)  -->
<svg version="1.1" id="Layer_1" xmlns="http://www.w3.org/2000/svg" xmlns:xlink="http://www.w3.org/1999/xlink" x="0px" y="0px"
	 viewBox="0 0 24 24" style="enable-background:new 0 0 24 24;" xml:space="preserve">
<g>
	<title>task-finger-show</title>
	<path d="M14,22.001c-0.276,0-0.5-0.224-0.5-0.5s0.224-0.5,0.5-0.5h1c0.827,0,1.5-0.673,1.5-1.5v-1c0-0.276,0.224-0.5,0.5-0.5
		s0.5,0.224,0.5,0.5v1c0,1.378-1.122,2.5-2.5,2.5H14z"/>
	<path d="M9.732,24.001c-0.116,0-0.23-0.041-0.319-0.115c-0.212-0.177-0.241-0.492-0.065-0.704l2.479-2.979
		c0.265-0.318,0.221-0.792-0.097-1.057c-0.134-0.112-0.304-0.173-0.479-0.173c-0.224,0-0.435,0.098-0.578,0.27
		c-0.02,0.024-0.042,0.046-0.065,0.065l-1.287,1.077C9.232,20.459,9.118,20.501,9,20.501c-0.073,0-0.144-0.015-0.211-0.046
		C8.613,20.372,8.5,20.194,8.5,20.001v-7c0-0.551-0.449-1-1-1s-1,0.449-1,1v4.5c0,0.276-0.224,0.5-0.5,0.5H4.333
		c-1.562,0-2.832,1.271-2.833,2.832v2.668c0,0.276-0.224,0.5-0.5,0.5s-0.5-0.224-0.5-0.5v-2.668c0.001-2.113,1.72-3.832,3.833-3.832
		H5.5v-4c0-1.103,0.897-2,2-2s2,0.897,2,2v5.929l0.436-0.365c0.332-0.377,0.81-0.593,1.315-0.593c0.408,0,0.805,0.144,1.119,0.405
		c0.742,0.617,0.843,1.723,0.226,2.465l-2.479,2.979C10.021,23.935,9.881,24.001,9.732,24.001z"/>
	<path d="M21.5,24.001c-0.134,0-0.259-0.052-0.354-0.146l-1.793-1.792c-0.551-0.551-0.854-1.283-0.854-2.062V18.12l-1.59-1.59
		c-0.28-0.29-0.429-0.669-0.421-1.07c0.007-0.401,0.17-0.774,0.458-1.052c0.281-0.271,0.651-0.42,1.042-0.42
		c0.411,0,0.794,0.162,1.079,0.457l1.494,1.494c0.195,0.195,0.195,0.512,0,0.707c-0.094,0.094-0.22,0.146-0.354,0.146
		s-0.259-0.052-0.354-0.146l-1.5-1.5c-0.1-0.103-0.229-0.158-0.367-0.158c-0.13,0-0.253,0.049-0.346,0.139
		c-0.096,0.093-0.15,0.217-0.153,0.351c-0.002,0.134,0.048,0.26,0.14,0.356l1.726,1.724c0.094,0.094,0.146,0.22,0.146,0.354v2.088
		c0,0.512,0.199,0.993,0.561,1.354l1.793,1.792C21.948,23.242,22,23.368,22,23.501s-0.052,0.259-0.146,0.354
		S21.634,24.001,21.5,24.001z"/>
	<path d="M23,20.501c-0.134,0-0.259-0.052-0.354-0.146l-0.293-0.293c-0.543-0.542-0.854-1.293-0.854-2.061v-2
		c0-0.511-0.199-0.992-0.561-1.353l-3.439-3.44v1.293c0,0.276-0.224,0.5-0.5,0.5s-0.5-0.224-0.5-0.5v-7c0-0.827-0.673-1.5-1.5-1.5
		h-1.5v0.5c0,0.827-0.673,1.5-1.5,1.5H7c-0.827,0-1.5-0.673-1.5-1.5v-0.5H4c-0.827,0-1.5,0.673-1.5,1.5v10
		c0,0.276-0.224,0.5-0.5,0.5s-0.5-0.224-0.5-0.5v-10c0-1.379,1.121-2.5,2.5-2.5h1.5v-0.5c0-0.827,0.673-1.5,1.5-1.5h0.5
		c0.202-0.269,0.459-0.497,0.75-0.665c0.379-0.219,0.81-0.334,1.246-0.334c0.794,0,1.533,0.371,2.004,0.999H12
		c0.827,0,1.5,0.673,1.5,1.5v0.5H15c1.378,0,2.5,1.121,2.5,2.5v4.293l4.146,4.147c0.55,0.55,0.854,1.282,0.854,2.06v2
		c0,0.504,0.204,0.997,0.56,1.353l0.293,0.293c0.094,0.094,0.146,0.22,0.146,0.354s-0.052,0.259-0.146,0.354
		S23.134,20.501,23,20.501z M7,2.001c-0.276,0-0.5,0.224-0.5,0.5v2c0,0.276,0.224,0.5,0.5,0.5h5c0.276,0,0.5-0.224,0.5-0.5v-2
		c0-0.276-0.224-0.5-0.5-0.5h-0.768c-0.178,0-0.344-0.096-0.433-0.25c-0.267-0.462-0.766-0.75-1.302-0.75
		c-0.261,0-0.52,0.069-0.747,0.201C8.522,1.334,8.332,1.524,8.201,1.751c-0.089,0.154-0.255,0.25-0.433,0.25H7z"/>
</g>
</svg>
