<?xml version="1.0" encoding="utf-8"?>
<!-- Generator: Adobe Illustrator 22.1.0, SVG Export Plug-In . SVG Version: 6.00 Build 0)  -->
<svg version="1.1" id="Layer_1" xmlns="http://www.w3.org/2000/svg" xmlns:xlink="http://www.w3.org/1999/xlink" x="0px" y="0px"
	 viewBox="0 0 24 24" style="enable-background:new 0 0 24 24;" xml:space="preserve">
<g>
	<title>task-list-add</title>
	<path d="M3.516,18.974c-0.276,0-0.5-0.224-0.5-0.5V5.475c0-0.276,0.224-0.5,0.5-0.5h11c0.276,0,0.5,0.224,0.5,0.5v4
		c0,0.276-0.224,0.5-0.5,0.5s-0.5-0.224-0.5-0.5v-3.5h-10v11.999l4.5,0.001c0.276,0,0.5,0.224,0.5,0.5s-0.224,0.5-0.5,0.5
		L3.516,18.974z"/>
	<path d="M1.516,21.975c-0.827,0-1.5-0.673-1.5-1.5v-17c0-0.827,0.673-1.5,1.5-1.5h4.141c0.405-0.743,1.048-1.334,1.827-1.674
		C7.97,0.088,8.485-0.02,9.013-0.02c1.397,0,2.701,0.778,3.366,1.995h4.137c0.827,0,1.5,0.673,1.5,1.5v5c0,0.276-0.224,0.5-0.5,0.5
		s-0.5-0.224-0.5-0.5v-5c0-0.276-0.224-0.5-0.5-0.5h-4.448c-0.199,0-0.378-0.118-0.458-0.3c-0.451-1.03-1.47-1.695-2.597-1.695
		c-0.39,0-0.769,0.08-1.129,0.237C7.23,1.504,6.712,2.022,6.426,2.676c-0.08,0.182-0.259,0.3-0.458,0.3H1.516
		c-0.276,0-0.5,0.224-0.5,0.5v17c0,0.276,0.224,0.5,0.5,0.5h8c0.276,0,0.5,0.224,0.5,0.5s-0.224,0.5-0.5,0.5H1.516z"/>
	<path d="M17.516,23.975c-3.584,0-6.5-2.916-6.5-6.5s2.916-6.5,6.5-6.5c3.584,0,6.5,2.916,6.5,6.5S21.1,23.975,17.516,23.975z
		 M17.516,11.975c-3.033,0-5.5,2.467-5.5,5.5s2.467,5.5,5.5,5.5s5.5-2.467,5.5-5.5S20.549,11.975,17.516,11.975z"/>
	<path d="M17.516,20.975c-0.276,0-0.5-0.224-0.5-0.5v-2.5h-2.5c-0.276,0-0.5-0.224-0.5-0.5s0.224-0.5,0.5-0.5h2.5v-2.5
		c0-0.276,0.224-0.5,0.5-0.5s0.5,0.224,0.5,0.5v2.5h2.5c0.276,0,0.5,0.224,0.5,0.5s-0.224,0.5-0.5,0.5h-2.5v2.5
		C18.016,20.751,17.791,20.975,17.516,20.975z"/>
	<path d="M6.516,8.975c-0.276,0-0.5-0.224-0.5-0.5s0.224-0.5,0.5-0.5h5c0.276,0,0.5,0.224,0.5,0.5s-0.224,0.5-0.5,0.5H6.516z"/>
	<path d="M6.516,11.975c-0.276,0-0.5-0.224-0.5-0.5s0.224-0.5,0.5-0.5h5c0.276,0,0.5,0.224,0.5,0.5s-0.224,0.5-0.5,0.5H6.516z"/>
	<path d="M6.516,14.975c-0.276,0-0.5-0.224-0.5-0.5s0.224-0.5,0.5-0.5h3c0.276,0,0.5,0.224,0.5,0.5s-0.224,0.5-0.5,0.5H6.516z"/>
</g>
</svg>
