<?xml version="1.0" encoding="utf-8"?>
<!-- Generator: Adobe Illustrator 22.1.0, SVG Export Plug-In . SVG Version: 6.00 Build 0)  -->
<svg version="1.1" id="Light" xmlns="http://www.w3.org/2000/svg" xmlns:xlink="http://www.w3.org/1999/xlink" x="0px" y="0px"
	 viewBox="0 0 24 24" style="enable-background:new 0 0 24 24;" xml:space="preserve">
<g>
	<title>ice-water</title>
	<path d="M12,14.051c-0.276,0-0.5-0.224-0.5-0.5v-1.793l-1.146,1.146c-0.094,0.094-0.22,0.146-0.354,0.146s-0.259-0.052-0.354-0.146
		S9.5,12.685,9.5,12.551s0.052-0.259,0.146-0.354l1.854-1.854V9.051h-1.293l-1.854,1.854C8.259,10.999,8.133,11.051,8,11.051
		s-0.259-0.052-0.354-0.146S7.5,10.685,7.5,10.551s0.052-0.259,0.146-0.354l1.146-1.146H7c-0.276,0-0.5-0.224-0.5-0.5
		s0.224-0.5,0.5-0.5h1.793L7.646,6.905C7.552,6.81,7.5,6.685,7.5,6.551s0.052-0.259,0.146-0.354S7.866,6.051,8,6.051
		s0.259,0.052,0.354,0.146l1.854,1.854H11.5V6.758L9.646,4.905C9.552,4.81,9.5,4.685,9.5,4.551s0.052-0.259,0.146-0.354
		S9.866,4.051,10,4.051s0.259,0.052,0.354,0.146L11.5,5.344V3.551c0-0.276,0.224-0.5,0.5-0.5c0.276,0,0.5,0.224,0.5,0.5v1.793
		l1.146-1.146c0.094-0.094,0.22-0.146,0.354-0.146s0.259,0.052,0.354,0.146S14.5,4.418,14.5,4.551s-0.052,0.259-0.146,0.354
		L12.5,6.758v1.293h1.293l1.854-1.854c0.094-0.094,0.22-0.146,0.354-0.146c0.134,0,0.259,0.052,0.354,0.146S16.5,6.418,16.5,6.551
		s-0.052,0.259-0.146,0.354l-1.146,1.146H17c0.276,0,0.5,0.224,0.5,0.5s-0.224,0.5-0.5,0.5h-1.793l1.146,1.146
		c0.094,0.094,0.146,0.22,0.146,0.354s-0.052,0.259-0.146,0.354s-0.22,0.146-0.354,0.146c-0.134,0-0.259-0.052-0.354-0.146
		l-1.854-1.854H12.5v1.293l1.854,1.854c0.094,0.094,0.146,0.22,0.146,0.354s-0.052,0.259-0.146,0.354s-0.22,0.146-0.354,0.146
		s-0.259-0.052-0.354-0.146L12.5,11.758v1.793C12.5,13.827,12.275,14.051,12,14.051z"/>
	<path d="M17.137,20.95c-0.045,0-0.091-0.002-0.137-0.006c-0.4-0.036-0.761-0.226-1.017-0.533l-0.964-1.157
		c-0.018-0.022-0.04-0.044-0.063-0.063c-0.091-0.076-0.202-0.116-0.322-0.116c-0.015,0-0.03,0.001-0.045,0.002
		c-0.132,0.012-0.252,0.075-0.337,0.178l-0.964,1.157c-0.06,0.071-0.124,0.135-0.192,0.192c-0.268,0.224-0.609,0.347-0.959,0.347
		c-0.447,0-0.867-0.196-1.153-0.539l-0.964-1.157c-0.019-0.023-0.041-0.044-0.064-0.064c-0.09-0.075-0.202-0.115-0.321-0.115
		c-0.015,0-0.03,0.001-0.045,0.002c-0.132,0.012-0.252,0.075-0.338,0.178L8.287,20.41c-0.057,0.069-0.122,0.134-0.192,0.191
		c-0.269,0.224-0.609,0.347-0.959,0.347c-0.447,0-0.867-0.196-1.153-0.539l-0.964-1.157c-0.019-0.023-0.041-0.044-0.064-0.064
		c-0.09-0.075-0.202-0.115-0.321-0.115c-0.015,0-0.03,0.001-0.045,0.002c-0.132,0.012-0.252,0.075-0.338,0.178L3.287,20.41
		c-0.057,0.069-0.122,0.134-0.192,0.191c-0.268,0.224-0.609,0.347-0.959,0.347c-0.447,0-0.867-0.196-1.153-0.539l-0.866-1.039
		c-0.177-0.212-0.148-0.528,0.064-0.705c0.09-0.075,0.203-0.116,0.32-0.116c0.149,0,0.289,0.066,0.384,0.18l0.866,1.039
		c0.095,0.114,0.235,0.18,0.384,0.18c0.117,0,0.23-0.041,0.32-0.116c0.023-0.02,0.045-0.041,0.064-0.065l0.963-1.156
		c0.257-0.308,0.618-0.497,1.017-0.533c0.046-0.004,0.093-0.007,0.14-0.007c0.347,0,0.686,0.124,0.956,0.349
		c0.068,0.057,0.133,0.121,0.191,0.191l0.964,1.157c0.095,0.114,0.235,0.179,0.384,0.179c0.117,0,0.23-0.041,0.32-0.116
		c0.023-0.019,0.045-0.041,0.064-0.064l0.963-1.156c0.257-0.308,0.618-0.497,1.017-0.533c0.046-0.004,0.093-0.007,0.14-0.007
		c0.347,0,0.686,0.124,0.956,0.349c0.068,0.057,0.133,0.121,0.191,0.191l0.964,1.157c0.095,0.114,0.235,0.179,0.385,0.179
		c0.117,0,0.23-0.041,0.319-0.115c0.024-0.02,0.046-0.042,0.065-0.065l0.963-1.155c0.257-0.308,0.618-0.498,1.017-0.534
		c0.047-0.004,0.094-0.006,0.14-0.006c0.352,0,0.683,0.12,0.956,0.348c0.068,0.056,0.132,0.121,0.191,0.191l0.965,1.158
		c0.085,0.102,0.206,0.165,0.339,0.177c0.014,0.001,0.029,0.002,0.044,0.002c0.119,0,0.23-0.04,0.322-0.116
		c0.024-0.02,0.045-0.042,0.065-0.065l0.963-1.155c0.257-0.308,0.618-0.498,1.017-0.534c0.046-0.004,0.093-0.006,0.14-0.006
		c0.352,0,0.683,0.12,0.956,0.348c0.068,0.056,0.132,0.121,0.191,0.191l0.965,1.158c0.085,0.102,0.206,0.165,0.339,0.177
		c0.014,0.001,0.029,0.002,0.044,0.002c0.119,0,0.23-0.04,0.321-0.116c0.024-0.02,0.045-0.042,0.065-0.065l0.599-0.719
		c0.095-0.114,0.235-0.18,0.384-0.18c0.116,0,0.23,0.041,0.32,0.116c0.103,0.085,0.166,0.206,0.178,0.339
		c0.012,0.133-0.028,0.263-0.114,0.365l-0.6,0.72c-0.06,0.071-0.124,0.135-0.192,0.192c-0.269,0.224-0.609,0.347-0.959,0.347l0,0
		c-0.447,0-0.867-0.196-1.153-0.539l-0.964-1.157c-0.018-0.022-0.04-0.044-0.063-0.063c-0.091-0.076-0.202-0.116-0.322-0.116
		c-0.015,0-0.03,0.001-0.045,0.002c-0.132,0.012-0.252,0.075-0.337,0.178l-0.964,1.157c-0.06,0.071-0.124,0.135-0.192,0.192
		C17.826,20.826,17.486,20.95,17.137,20.95z"/>
	<path d="M17.137,17.45c-0.045,0-0.091-0.002-0.137-0.006c-0.4-0.036-0.761-0.226-1.017-0.533l-0.964-1.157
		c-0.018-0.022-0.04-0.044-0.063-0.063c-0.091-0.076-0.202-0.116-0.321-0.116c-0.015,0-0.03,0.001-0.046,0.002
		c-0.132,0.012-0.252,0.075-0.338,0.178l-0.964,1.157c-0.06,0.071-0.124,0.135-0.192,0.192c-0.268,0.224-0.609,0.347-0.959,0.347
		c-0.447,0-0.867-0.196-1.153-0.539l-0.964-1.157c-0.019-0.023-0.041-0.044-0.064-0.064c-0.09-0.075-0.202-0.115-0.321-0.115
		c-0.015,0-0.03,0-0.045,0.002c-0.132,0.012-0.252,0.075-0.337,0.178L8.287,16.91c-0.057,0.069-0.122,0.134-0.192,0.191
		c-0.269,0.224-0.609,0.347-0.96,0.347c-0.447,0-0.867-0.196-1.153-0.539l-0.964-1.157c-0.019-0.023-0.041-0.044-0.064-0.064
		c-0.09-0.075-0.202-0.115-0.322-0.115c-0.015,0-0.03,0-0.045,0.002c-0.132,0.012-0.252,0.075-0.337,0.178L3.287,16.91
		c-0.057,0.069-0.122,0.134-0.192,0.191c-0.268,0.224-0.609,0.347-0.96,0.347l0,0c-0.447,0-0.867-0.196-1.153-0.539l-0.866-1.039
		c-0.177-0.212-0.148-0.528,0.064-0.705c0.09-0.075,0.204-0.116,0.32-0.116c0.149,0,0.289,0.065,0.384,0.18l0.866,1.039
		c0.095,0.114,0.235,0.18,0.384,0.18c0.117,0,0.23-0.041,0.32-0.116c0.023-0.02,0.045-0.041,0.064-0.065l0.963-1.156
		c0.257-0.308,0.618-0.497,1.017-0.533c0.046-0.004,0.093-0.006,0.139-0.006c0.348,0,0.687,0.124,0.957,0.348
		c0.068,0.057,0.133,0.121,0.191,0.191l0.964,1.157c0.095,0.114,0.235,0.179,0.384,0.179c0.117,0,0.23-0.041,0.32-0.116
		c0.023-0.019,0.045-0.041,0.064-0.064l0.963-1.156c0.257-0.308,0.618-0.497,1.017-0.533c0.046-0.004,0.093-0.006,0.139-0.006
		c0.348,0,0.687,0.124,0.957,0.348c0.068,0.057,0.133,0.121,0.191,0.191l0.964,1.157c0.095,0.114,0.235,0.179,0.385,0.179
		c0.117,0,0.23-0.041,0.319-0.115c0.024-0.02,0.046-0.042,0.065-0.065l0.963-1.155c0.257-0.308,0.618-0.498,1.017-0.534
		c0.047-0.004,0.094-0.007,0.141-0.007c0.352,0,0.682,0.121,0.955,0.349c0.068,0.056,0.132,0.121,0.191,0.191l0.965,1.158
		c0.085,0.102,0.206,0.165,0.339,0.177c0.014,0.001,0.029,0.002,0.044,0.002c0.119,0,0.23-0.04,0.322-0.116
		c0.024-0.02,0.045-0.042,0.065-0.065l0.963-1.155c0.257-0.308,0.618-0.498,1.017-0.534c0.046-0.004,0.094-0.007,0.14-0.007
		c0.352,0,0.682,0.121,0.956,0.349c0.068,0.056,0.132,0.121,0.191,0.191l0.965,1.158c0.085,0.102,0.206,0.165,0.339,0.177
		c0.014,0.001,0.029,0.002,0.044,0.002c0.119,0,0.23-0.04,0.321-0.116c0.024-0.02,0.045-0.042,0.065-0.065l0.592-0.71
		c0.095-0.115,0.235-0.18,0.385-0.18c0.117,0,0.23,0.041,0.32,0.116c0.103,0.085,0.166,0.206,0.178,0.338
		c0.012,0.133-0.028,0.263-0.114,0.365l-0.593,0.712c-0.06,0.071-0.124,0.135-0.192,0.192c-0.269,0.224-0.609,0.347-0.959,0.347
		c-0.447,0-0.867-0.196-1.153-0.539l-0.964-1.157c-0.018-0.022-0.04-0.044-0.063-0.063c-0.091-0.076-0.202-0.116-0.321-0.116
		c-0.015,0-0.03,0.001-0.046,0.002c-0.132,0.012-0.252,0.075-0.338,0.178l-0.964,1.157c-0.06,0.071-0.124,0.135-0.192,0.192
		C17.826,17.326,17.486,17.45,17.137,17.45z"/>
	<path d="M21.871,13.95c-0.045,0-0.091-0.002-0.137-0.006c-0.4-0.036-0.761-0.226-1.017-0.533l-0.967-1.157
		c-0.02-0.024-0.041-0.045-0.063-0.064c-0.091-0.076-0.202-0.116-0.32-0.116c-0.149,0-0.29,0.066-0.385,0.18l-0.963,1.156
		c-0.286,0.343-0.706,0.539-1.152,0.539c-0.277,0-0.501-0.224-0.501-0.5c0-0.276,0.224-0.5,0.5-0.5c0.149,0,0.289-0.065,0.384-0.18
		l0.963-1.156c0.286-0.342,0.706-0.539,1.153-0.539c0.35,0,0.691,0.123,0.959,0.347c0.069,0.058,0.134,0.122,0.191,0.191
		l0.967,1.157c0.086,0.103,0.206,0.166,0.339,0.178c0.014,0.001,0.029,0.002,0.044,0.002c0.12,0,0.231-0.04,0.322-0.116
		c0.023-0.02,0.044-0.041,0.064-0.064l0.866-1.039c0.096-0.115,0.236-0.18,0.385-0.18c0.116,0,0.23,0.041,0.32,0.116
		c0.212,0.177,0.24,0.493,0.064,0.704l-0.866,1.039c-0.058,0.069-0.122,0.133-0.191,0.191C22.56,13.826,22.22,13.95,21.871,13.95z"
		/>
	<path d="M7.134,13.926c-0.446,0-0.865-0.196-1.151-0.539L5.019,12.23c-0.019-0.023-0.041-0.044-0.064-0.064
		c-0.089-0.074-0.203-0.116-0.32-0.116c-0.149,0-0.289,0.065-0.384,0.179l-0.964,1.157c-0.058,0.069-0.122,0.134-0.192,0.192
		c-0.268,0.224-0.609,0.347-0.959,0.347c-0.447,0-0.867-0.196-1.153-0.539l-0.866-1.039c-0.177-0.212-0.148-0.528,0.064-0.704
		c0.09-0.075,0.203-0.116,0.32-0.116c0.149,0,0.289,0.066,0.384,0.18l0.866,1.039c0.095,0.114,0.235,0.18,0.384,0.18
		c0.117,0,0.23-0.041,0.32-0.116c0.023-0.02,0.045-0.041,0.064-0.065l0.963-1.156c0.286-0.343,0.706-0.539,1.153-0.539
		c0.35,0,0.691,0.123,0.96,0.347c0.069,0.058,0.133,0.122,0.191,0.191l0.964,1.158c0.095,0.114,0.235,0.179,0.383,0.179
		c0.276,0,0.501,0.224,0.501,0.5c0,0.134-0.052,0.259-0.146,0.354c-0.094,0.095-0.22,0.147-0.354,0.147H7.134z"/>
</g>
</svg>
