<?xml version="1.0" encoding="utf-8"?>
<!-- Generator: Adobe Illustrator 22.1.0, SVG Export Plug-In . SVG Version: 6.00 Build 0)  -->
<svg version="1.1" id="Light" xmlns="http://www.w3.org/2000/svg" xmlns:xlink="http://www.w3.org/1999/xlink" x="0px" y="0px"
	 viewBox="0 0 24 24" style="enable-background:new 0 0 24 24;" xml:space="preserve">
<g>
	<title>animal-print-bird</title>
	<path d="M14.104,21.95c-0.095,0-0.194-0.009-0.293-0.025c-1.862-0.314-2.539-2.066-2.01-5.206c0.514-3.052,4.362-4.907,4.525-4.985
		c0.066-0.031,0.14-0.048,0.214-0.048c0.09,0,0.178,0.024,0.255,0.07c0.143,0.085,0.234,0.235,0.244,0.401
		c0.087,1.48,0.007,2.972-0.238,4.434C16.378,19.102,15.898,21.95,14.104,21.95z M16.071,13.018c-1,0.61-2.974,2.028-3.283,3.866
		c-0.631,3.747,0.74,3.978,1.19,4.054c0.035,0.006,0.069,0.009,0.102,0.009c0.974,0,1.432-2.714,1.734-4.51
		C16.002,15.306,16.088,14.158,16.071,13.018z"/>
	<path d="M19.507,22.888c-0.151,0-0.309-0.014-0.47-0.041c-2.034-0.343-1.528-3.355-1.081-6.012
		c0.248-1.466,0.662-2.903,1.229-4.274c0.064-0.154,0.199-0.265,0.362-0.298c0.033-0.007,0.067-0.01,0.1-0.01
		c0.131,0,0.255,0.051,0.349,0.142c0.13,0.128,3.157,3.149,2.644,6.192C22.158,21.441,21.104,22.888,19.507,22.888z M19.818,13.692
		c-0.391,1.072-0.685,2.181-0.875,3.304c-0.333,1.979-0.788,4.688,0.26,4.865c0.101,0.017,0.199,0.026,0.292,0.026
		c1.059,0,1.766-1.134,2.159-3.467C21.964,16.58,20.563,14.595,19.818,13.692z"/>
	<path d="M4.318,11.981c-1.72,0-2.729-1.526-3.001-4.535C1.039,4.365,4.288,1.59,4.427,1.474c0.09-0.076,0.205-0.117,0.322-0.117
		c0.046,0,0.092,0.006,0.137,0.019c0.16,0.046,0.286,0.167,0.338,0.325c0.46,1.41,0.762,2.873,0.897,4.349
		c0.184,2.029,0.393,4.327-0.471,5.363c-0.276,0.33-0.634,0.518-1.066,0.557C4.493,11.977,4.405,11.981,4.318,11.981z M4.507,2.781
		C3.694,3.625,2.145,5.498,2.313,7.356c0.22,2.439,0.879,3.625,2.015,3.625c0.054,0,0.11-0.003,0.166-0.008
		c0.164-0.015,0.284-0.077,0.388-0.201c0.599-0.718,0.393-2.98,0.243-4.632C5.022,5.007,4.814,3.879,4.507,2.781z"/>
	<path d="M9.721,11.541c-0.876,0-1.512-0.662-1.889-1.969c-0.301-1.044-0.422-2.393-0.53-3.584C7.17,4.51,7.205,3.017,7.405,1.548
		C7.427,1.383,7.53,1.24,7.679,1.167C7.747,1.133,7.824,1.115,7.9,1.115c0.087,0,0.173,0.023,0.248,0.066
		C8.305,1.271,12,3.42,12.279,6.497c0.136,1.505,0.025,2.686-0.333,3.509c-0.402,0.926-1.098,1.44-2.069,1.528
		C9.824,11.539,9.772,11.541,9.721,11.541z M8.304,2.48C8.199,3.616,8.197,4.764,8.298,5.898c0.103,1.147,0.22,2.446,0.495,3.398
		c0.359,1.246,0.784,1.246,0.923,1.246c0.024,0,0.048-0.001,0.07-0.003c0.596-0.054,0.991-0.349,1.242-0.93
		c0.29-0.668,0.375-1.684,0.254-3.021C11.114,4.728,9.255,3.164,8.304,2.48z"/>
</g>
</svg>
