<?xml version="1.0" encoding="utf-8"?>
<!-- Generator: Adobe Illustrator 22.1.0, SVG Export Plug-In . SVG Version: 6.00 Build 0)  -->
<svg version="1.1" id="Light" xmlns="http://www.w3.org/2000/svg" xmlns:xlink="http://www.w3.org/1999/xlink" x="0px" y="0px"
	 viewBox="0 0 24 24" style="enable-background:new 0 0 24 24;" xml:space="preserve">
<g>
	<title>animal-print-bird-3</title>
	<path d="M12,24c-0.276,0-0.5-0.224-0.5-0.5v-2.066C10.631,21.209,10,20.413,10,19.5v-3.049L2.721,9.172
		c-0.644-0.646-0.76-1.654-0.306-2.427L0.954,5.284c-0.195-0.195-0.195-0.512,0-0.707C1.049,4.482,1.174,4.43,1.308,4.43
		s0.259,0.052,0.354,0.146l1.461,1.461c0.307-0.183,0.654-0.278,1.015-0.278c0.538,0.001,1.04,0.21,1.417,0.588L10,10.793V4.5
		c0-0.913,0.631-1.709,1.5-1.934V0.5C11.5,0.224,11.724,0,12,0c0.276,0,0.5,0.224,0.5,0.5v2.066C13.369,2.791,14,3.587,14,4.5v6.293
		l4.447-4.447c0.376-0.378,0.878-0.587,1.413-0.588c0.364,0,0.712,0.096,1.019,0.278l1.46-1.461c0.094-0.094,0.22-0.146,0.354-0.146
		s0.259,0.052,0.354,0.146c0.195,0.195,0.195,0.512,0,0.707l-1.461,1.461c0.454,0.772,0.338,1.78-0.305,2.426L14,16.451V19.5
		c0,0.913-0.631,1.709-1.5,1.934V23.5C12.5,23.776,12.276,24,12,24z M4.137,6.759c-0.266,0-0.517,0.104-0.706,0.292
		C3.243,7.239,3.138,7.49,3.138,7.757c0,0.268,0.103,0.519,0.291,0.708l7.424,7.425C10.948,15.985,11,16.11,11,16.244V19.5
		c0,0.552,0.449,1,1,1c0.552,0,1-0.448,1-1v-3.256c0-0.134,0.052-0.259,0.146-0.354l7.425-7.426c0.188-0.188,0.291-0.44,0.291-0.707
		s-0.105-0.518-0.294-0.707c-0.189-0.188-0.439-0.292-0.706-0.292c-0.269,0-0.52,0.105-0.708,0.294l-5.301,5.301
		c-0.095,0.094-0.22,0.146-0.354,0.146c-0.066,0-0.13-0.013-0.191-0.038C13.121,12.384,13,12.203,13,12V4.5c0-0.551-0.448-1-1-1
		c-0.551,0-1,0.449-1,1V12c0,0.203-0.121,0.384-0.309,0.462C10.629,12.487,10.566,12.5,10.5,12.5c-0.133,0-0.259-0.052-0.353-0.146
		l-5.3-5.3c-0.189-0.19-0.44-0.294-0.707-0.295l-0.002-0.25V6.759z"/>
</g>
</svg>
