<?xml version="1.0" encoding="utf-8"?>
<!-- Generator: Adobe Illustrator 22.1.0, SVG Export Plug-In . SVG Version: 6.00 Build 0)  -->
<svg version="1.1" id="Light" xmlns="http://www.w3.org/2000/svg" xmlns:xlink="http://www.w3.org/1999/xlink" x="0px" y="0px"
	 viewBox="0 0 24 24" style="enable-background:new 0 0 24 24;" xml:space="preserve">
<g>
	<title>animal-print</title>
	<path d="M18,24c-1.458,0-2.247-0.671-2.943-1.263C14.309,22.101,13.603,21.5,12,21.5c-1.602,0-2.307,0.6-3.053,1.235
		C8.25,23.328,7.461,24,6,24c-2.192,0-3.5-1.495-3.5-4c0-2.239,1.228-2.765,2.31-3.23c0.787-0.338,1.53-0.657,2.008-1.611
		c0.274-0.549,0.489-1.072,0.698-1.578C8.308,11.658,8.991,10,12,10c3.009,0,3.692,1.657,4.482,3.576
		c0.21,0.509,0.426,1.033,0.7,1.583c0.478,0.954,1.22,1.273,2.007,1.61C20.272,17.234,21.5,17.761,21.5,20
		C21.5,22.505,20.192,24,18,24z M12,20.5c1.971,0,2.932,0.818,3.704,1.475C16.378,22.548,16.91,23,18,23c1.659,0,2.5-1.009,2.5-3
		c0-1.58-0.678-1.871-1.705-2.311c-0.831-0.357-1.866-0.801-2.507-2.082c-0.289-0.579-0.521-1.141-0.725-1.637
		C14.798,12.113,14.34,11,12,11s-2.798,1.113-3.557,2.958c-0.206,0.499-0.438,1.065-0.73,1.649
		c-0.641,1.282-1.676,1.726-2.508,2.083C4.178,18.13,3.5,18.421,3.5,20c0,1.991,0.841,3,2.5,3c1.093,0,1.625-0.453,2.298-1.026
		C9.07,21.317,10.03,20.5,12,20.5z"/>
	<path d="M2.5,13.5C1.121,13.5,0,12.378,0,11V9c0-1.379,1.121-2.5,2.5-2.5S5,7.621,5,9v2C5,12.378,3.879,13.5,2.5,13.5z M2.5,7.5
		C1.673,7.5,1,8.173,1,9v2c0,0.827,0.673,1.5,1.5,1.5S4,11.827,4,11V9C4,8.173,3.327,7.5,2.5,7.5z"/>
	<path d="M8.5,7C7.121,7,6,5.879,6,4.5v-2C6,1.121,7.121,0,8.5,0S11,1.121,11,2.5v2C11,5.879,9.879,7,8.5,7z M8.5,1
		C7.673,1,7,1.673,7,2.5v2C7,5.327,7.673,6,8.5,6S10,5.327,10,4.5v-2C10,1.673,9.327,1,8.5,1z"/>
	<path d="M21.5,13.5c-1.378,0-2.5-1.122-2.5-2.5V9c0-1.379,1.122-2.5,2.5-2.5S24,7.621,24,9v2C24,12.378,22.878,13.5,21.5,13.5z
		 M21.5,7.5C20.673,7.5,20,8.173,20,9v2c0,0.827,0.673,1.5,1.5,1.5S23,11.827,23,11V9C23,8.173,22.327,7.5,21.5,7.5z"/>
	<path d="M15.5,7C14.122,7,13,5.879,13,4.5v-2C13,1.121,14.122,0,15.5,0S18,1.121,18,2.5v2C18,5.879,16.878,7,15.5,7z M15.5,1
		C14.673,1,14,1.673,14,2.5v2C14,5.327,14.673,6,15.5,6S17,5.327,17,4.5v-2C17,1.673,16.327,1,15.5,1z"/>
</g>
</svg>
