<?xml version="1.0" encoding="utf-8"?>
<!-- Generator: Adobe Illustrator 22.1.0, SVG Export Plug-In . SVG Version: 6.00 Build 0)  -->
<svg version="1.1" id="Light" xmlns="http://www.w3.org/2000/svg" xmlns:xlink="http://www.w3.org/1999/xlink" x="0px" y="0px"
	 viewBox="0 0 24 24" style="enable-background:new 0 0 24 24;" xml:space="preserve">
<g>
	<title>animal-print-paw-2</title>
	<path d="M14.75,23.69c-1.118,0-2.25-0.687-2.25-2c0-1-0.289-1-0.5-1s-0.5,0-0.5,1c0,1.313-1.132,2-2.25,2S7,23.003,7,21.69v-5.5
		c0-2.757,2.243-5,5-5c2.757,0,5,2.243,5,5v5.5C17,23.003,15.868,23.69,14.75,23.69z M12,19.69c0.684,0,1.5,0.347,1.5,2
		c0,0.789,0.786,1,1.25,1s1.25-0.211,1.25-1v-5.5c0-2.206-1.794-4-4-4s-4,1.794-4,4v5.5c0,0.789,0.786,1,1.25,1s1.25-0.211,1.25-1
		C10.5,20.037,11.316,19.69,12,19.69z"/>
	<path d="M4,16.69c-1.103,0-2-0.897-2-2v-3c0-1.103,0.897-2,2-2s2,0.897,2,2v3C6,15.793,5.103,16.69,4,16.69z M4,10.69
		c-0.551,0-1,0.449-1,1v3c0,0.552,0.449,1,1,1s1-0.448,1-1v-3C5,11.139,4.551,10.69,4,10.69z"/>
	<path d="M3,8.691c-0.077,0-0.155-0.018-0.224-0.053C2.53,8.514,2.429,8.213,2.553,7.967l0.553-1.106
		c0.096-0.192,0.255-0.35,0.446-0.446c0.139-0.07,0.293-0.106,0.447-0.106c0.107,0,0.213,0.017,0.316,0.051
		C4.569,6.444,4.774,6.622,4.894,6.86l0.553,1.106C5.571,8.213,5.47,8.514,5.224,8.638C5.155,8.672,5.077,8.69,5,8.69
		c-0.191,0-0.362-0.106-0.448-0.276L4,7.308L3.447,8.414C3.362,8.585,3.19,8.691,3,8.691L3,8.691z"/>
	<path d="M9,10.69c-1.103,0-2-0.897-2-2v-3c0-1.103,0.897-2,2-2s2,0.897,2,2v3C11,9.793,10.103,10.69,9,10.69z M9,4.69
		c-0.551,0-1,0.449-1,1v3c0,0.551,0.449,1,1,1s1-0.449,1-1v-3C10,5.139,9.551,4.69,9,4.69z"/>
	<path d="M8,2.691c-0.077,0-0.155-0.018-0.224-0.053C7.53,2.514,7.429,2.213,7.553,1.967l0.553-1.106
		c0.096-0.192,0.255-0.35,0.446-0.446C8.69,0.345,8.845,0.308,8.999,0.308c0.107,0,0.213,0.017,0.316,0.051
		C9.569,0.444,9.774,0.622,9.894,0.86l0.553,1.106c0.123,0.247,0.023,0.548-0.224,0.671C10.155,2.672,10.077,2.69,10,2.69
		c-0.191,0-0.362-0.106-0.448-0.276L9,1.308L8.447,2.414C8.362,2.585,8.191,2.691,8,2.691L8,2.691z"/>
	<path d="M20,16.69c-1.103,0-2-0.897-2-2v-3c0-1.103,0.897-2,2-2s2,0.897,2,2v3C22,15.793,21.103,16.69,20,16.69z M20,10.69
		c-0.552,0-1,0.449-1,1v3c0,0.552,0.448,1,1,1s1-0.448,1-1v-3C21,11.139,20.552,10.69,20,10.69z"/>
	<path d="M19,8.691c-0.077,0-0.155-0.018-0.224-0.053c-0.119-0.06-0.208-0.162-0.25-0.289s-0.033-0.262,0.027-0.382l0.553-1.106
		c0.171-0.341,0.514-0.552,0.895-0.552c0.156,0,0.307,0.036,0.447,0.106c0.192,0.096,0.35,0.255,0.446,0.446l0.553,1.106
		c0.06,0.12,0.069,0.255,0.027,0.382s-0.131,0.229-0.251,0.289C21.155,8.672,21.077,8.69,21,8.69c-0.19,0-0.362-0.106-0.447-0.276
		L20,7.308l-0.552,1.106C19.362,8.585,19.191,8.691,19,8.691L19,8.691z"/>
	<path d="M15,10.69c-1.103,0-2-0.897-2-2v-3c0-1.103,0.897-2,2-2s2,0.897,2,2v3C17,9.793,16.103,10.69,15,10.69z M15,4.69
		c-0.552,0-1,0.449-1,1v3c0,0.551,0.448,1,1,1s1-0.449,1-1v-3C16,5.139,15.552,4.69,15,4.69z"/>
	<path d="M14,2.691c-0.077,0-0.155-0.018-0.224-0.053c-0.119-0.06-0.208-0.162-0.25-0.289s-0.033-0.262,0.027-0.382l0.553-1.106
		c0.171-0.341,0.514-0.552,0.896-0.552c0.154,0,0.308,0.037,0.447,0.106c0.192,0.096,0.35,0.255,0.446,0.446l0.553,1.106
		c0.06,0.12,0.069,0.255,0.027,0.382s-0.131,0.229-0.251,0.289C16.155,2.672,16.077,2.69,16,2.69c-0.19,0-0.362-0.106-0.447-0.276
		L15,1.308l-0.552,1.106C14.362,2.585,14.19,2.691,14,2.691L14,2.691z"/>
</g>
</svg>
