<?xml version="1.0" encoding="utf-8"?>
<!-- Generator: Adobe Illustrator 22.1.0, SVG Export Plug-In . SVG Version: 6.00 Build 0)  -->
<svg version="1.1" id="Light" xmlns="http://www.w3.org/2000/svg" xmlns:xlink="http://www.w3.org/1999/xlink" x="0px" y="0px"
	 viewBox="0 0 24 24" style="enable-background:new 0 0 24 24;" xml:space="preserve">
<g>
	<title>fireplace</title>
	<path d="M11.932,20.555c-2.47-0.039-4.447-2.08-4.408-4.549c-0.027-1.539,0.814-2.941,2.195-3.652
		c0.006-0.004,0.035-0.019,0.065-0.032c0.129-0.058,0.267-0.088,0.408-0.088c0.121,0,0.24,0.022,0.354,0.065
		c0.25,0.095,0.448,0.281,0.557,0.524c0.06,0.115,0.136,0.231,0.222,0.341c0.257-0.838,0.199-1.748-0.173-2.549
		c-0.135-0.292-0.121-0.633,0.037-0.913c0.132-0.233,0.346-0.4,0.603-0.471c0.088-0.024,0.178-0.037,0.269-0.037
		c0.171,0,0.34,0.045,0.491,0.13c0.005,0.003,0.01,0.006,0.014,0.009c2.381,1.382,3.874,3.933,3.913,6.672
		c0.001,0.046,0.001,0.094,0,0.142c-0.039,2.43-2.047,4.406-4.477,4.406L11.932,20.555z M10.192,13.236
		c-1.055,0.544-1.687,1.601-1.667,2.769c-0.03,1.93,1.505,3.519,3.422,3.55l0.059,0c1.886,0,3.444-1.535,3.474-3.423
		c0.001-0.037,0.001-0.073,0-0.109c-0.033-2.398-1.344-4.631-3.422-5.828c0.603,1.293,0.561,2.814-0.11,4.071
		c-0.068,0.128-0.189,0.22-0.33,0.252c-0.034,0.008-0.073,0.013-0.112,0.013c-0.105,0-0.209-0.034-0.295-0.097
		c-0.419-0.307-0.767-0.713-1.006-1.173C10.205,13.26,10.195,13.243,10.192,13.236z"/>
	<path d="M2.501,22c-0.276,0-0.5-0.224-0.5-0.5V7h-0.11c-0.46,0-0.859-0.312-0.97-0.758l-0.75-3C0.151,3.162,0.141,3.081,0.141,3
		c0-0.267,0.104-0.518,0.293-0.707C0.622,2.104,0.873,2,1.14,2h21.72c0.082,0,0.164,0.01,0.243,0.03
		c0.259,0.064,0.477,0.226,0.615,0.455c0.137,0.229,0.178,0.497,0.113,0.757l-0.75,3C22.969,6.688,22.57,7,22.111,7h-0.11v14.5
		c0,0.276-0.224,0.5-0.5,0.5H2.501z M21.001,21v-2h-2v2H21.001z M18.001,21V7h-12v14H18.001z M5.001,21v-2h-2v2H5.001z M21.001,18
		v-2h-2v2H21.001z M5.001,18v-2h-2v2H5.001z M21.001,15v-2h-2L21.001,15z M5.001,15v-2h-2v2H5.001z M21.001,12v-2h-2v2H21.001z
		 M5.001,12v-2h-2v2H5.001z M21.001,9V7h-2v2H21.001z M5.001,9V7h-2v2H5.001z M1.14,3l0.75,3l20.22,0l0.75-3L1.14,3z"/>
</g>
</svg>
