<?xml version="1.0" encoding="utf-8"?>
<!-- Generator: Adobe Illustrator 22.1.0, SVG Export Plug-In . SVG Version: 6.00 Build 0)  -->
<svg version="1.1" id="Layer_1" xmlns="http://www.w3.org/2000/svg" xmlns:xlink="http://www.w3.org/1999/xlink" x="0px" y="0px"
	 viewBox="0 0 24 24" style="enable-background:new 0 0 24 24;" xml:space="preserve">
<g>
	<title>astrology-pisces</title>
	<path d="M6,12.5c-2.481,0-4.5-2.019-4.5-4.5S3.519,3.5,6,3.5h16c0.276,0,0.5,0.224,0.5,0.5S22.276,4.5,22,4.5H8.825
		C9.874,5.346,10.5,6.625,10.5,8C10.5,10.481,8.481,12.5,6,12.5z M6,4.5C4.07,4.5,2.5,6.07,2.5,8s1.57,3.5,3.5,3.5S9.5,9.93,9.5,8
		S7.93,4.5,6,4.5z"/>
	<path d="M2,20.5c-0.276,0-0.5-0.224-0.5-0.5s0.224-0.5,0.5-0.5h13.175C14.126,18.654,13.5,17.375,13.5,16
		c0-2.481,2.019-4.5,4.5-4.5s4.5,2.019,4.5,4.5s-2.019,4.5-4.5,4.5H2z M18,12.5c-1.93,0-3.5,1.57-3.5,3.5s1.57,3.5,3.5,3.5
		s3.5-1.57,3.5-3.5S19.93,12.5,18,12.5z"/>
</g>
</svg>
