<?xml version="1.0" encoding="utf-8"?>
<!-- Generator: Adobe Illustrator 22.1.0, SVG Export Plug-In . SVG Version: 6.00 Build 0)  -->
<svg version="1.1" id="Layer_1" xmlns="http://www.w3.org/2000/svg" xmlns:xlink="http://www.w3.org/1999/xlink" x="0px" y="0px"
	 viewBox="0 0 24 24" style="enable-background:new 0 0 24 24;" xml:space="preserve">
<g>
	<title>astrology-aries-1</title>
	<path d="M12,20.209c-0.459,0-0.858-0.311-0.97-0.757C9.528,13.421,8.051,8.832,2.694,4.686c-0.218-0.169-0.258-0.484-0.09-0.702
		C2.7,3.862,2.844,3.791,3,3.791c0.11,0,0.218,0.037,0.305,0.104C8.917,8.238,10.449,12.982,12,19.209
		c1.551-6.227,3.082-10.97,8.694-15.313C20.783,3.827,20.889,3.791,21,3.791c0.156,0,0.3,0.071,0.396,0.194
		c0.168,0.218,0.129,0.532-0.089,0.701c-5.357,4.146-6.834,8.734-8.336,14.764c-0.09,0.359-0.369,0.638-0.727,0.728
		C12.164,20.198,12.082,20.209,12,20.209z"/>
</g>
</svg>
