<?xml version="1.0" encoding="utf-8"?>
<!-- Generator: Adobe Illustrator 22.1.0, SVG Export Plug-In . SVG Version: 6.00 Build 0)  -->
<svg version="1.1" id="Layer_1" xmlns="http://www.w3.org/2000/svg" xmlns:xlink="http://www.w3.org/1999/xlink" x="0px" y="0px"
	 viewBox="0 0 24 24" style="enable-background:new 0 0 24 24;" xml:space="preserve">
<g>
	<title>astrology-broom</title>
	<path d="M7.314,23.896c-0.104,0-0.207-0.016-0.305-0.048c-3.329-0.829-5.927-3.432-6.764-6.787
		c-0.074-0.223-0.048-0.506,0.076-0.741c0.125-0.237,0.344-0.417,0.6-0.493l6.469-1.938l0.236-0.236
		c0.009-0.012,0.019-0.024,0.028-0.033c0.012-0.011,0.023-0.02,0.033-0.027l0.242-0.243l0.779-2.119
		c0.086-0.194,0.188-0.343,0.318-0.473c0.283-0.283,0.66-0.439,1.061-0.439c0.401,0,0.777,0.156,1.06,0.438l0.037,0.037l2.476-2.477
		c0.527-0.527,0.633-0.967,0.982-2.428c0.075-0.314,0.16-0.669,0.262-1.075c0.436-1.75,1.997-2.973,3.796-2.973
		c0.26,0,0.522,0.026,0.78,0.078c0.06,0.012,0.121,0.018,0.182,0.018c0.245,0,0.475-0.096,0.649-0.27l1.131-1.123
		c0.29-0.261,0.65-0.401,1.022-0.401c0.026,0,0.052,0.001,0.079,0.002c0.401,0.022,0.769,0.198,1.036,0.497
		c0.51,0.569,0.511,1.428,0.003,1.999l-1.148,1.15c-0.74,0.741-1.723,1.149-2.768,1.149c0,0,0,0,0,0
		c-0.259,0-0.52-0.026-0.775-0.077c-0.06-0.012-0.121-0.018-0.182-0.018c-0.423,0-0.79,0.287-0.892,0.699
		c-0.085,0.338-0.16,0.65-0.229,0.941c-0.422,1.763-0.677,2.827-1.802,3.955l-2.477,2.476l0.041,0.041
		c0.128,0.129,0.231,0.277,0.304,0.439c0.166,0.364,0.18,0.771,0.039,1.147s-0.419,0.674-0.783,0.839l-2.154,0.793
		c0,0-0.264,0.264-0.265,0.264c-0.008,0.009-0.017,0.018-0.026,0.025l-0.25,0.25l-1.941,6.468c-0.076,0.256-0.255,0.474-0.492,0.599
		C7.637,23.857,7.476,23.896,7.314,23.896z M5.844,22.383c0.467,0.213,0.95,0.382,1.438,0.504l0.035,0.008l1.974-6.588
		c0.024-0.079,0.067-0.151,0.125-0.209l-1.411-1.411c-0.058,0.058-0.13,0.101-0.209,0.125l-6.591,1.975
		c0.127,0.508,0.299,0.999,0.515,1.472l1.766-1.163c0.082-0.054,0.177-0.083,0.275-0.083c0.169,0,0.325,0.084,0.418,0.225
		c0.152,0.23,0.088,0.541-0.142,0.692L2.19,19.147c0.253,0.414,0.547,0.81,0.877,1.182l1.756-1.756
		c0.094-0.094,0.22-0.146,0.354-0.146s0.259,0.052,0.354,0.146c0.195,0.195,0.195,0.512,0,0.707l-1.756,1.756
		c0.372,0.331,0.768,0.625,1.182,0.878l1.218-1.849c0.092-0.141,0.249-0.225,0.417-0.225c0.098,0,0.193,0.029,0.275,0.082
		c0.112,0.074,0.188,0.186,0.215,0.317c0.027,0.131,0.001,0.264-0.072,0.376L5.844,22.383z M10.126,15.392L10.126,15.392
		c0.051-0.051,0.113-0.091,0.181-0.116l2.222-0.817c0.219-0.101,0.325-0.402,0.213-0.648c-0.025-0.054-0.059-0.104-0.102-0.146
		l-2.199-2.199c-0.094-0.094-0.22-0.146-0.353-0.146c-0.134,0-0.26,0.052-0.354,0.146c-0.042,0.042-0.077,0.092-0.102,0.146
		L8.83,13.798c-0.025,0.068-0.064,0.129-0.116,0.181l0,0L10.126,15.392z M12.601,12.21l2.477-2.475
		c0.927-0.929,1.131-1.782,1.537-3.481c0.074-0.31,0.148-0.618,0.231-0.951c0.213-0.857,0.979-1.456,1.862-1.456
		c0.126,0,0.254,0.013,0.379,0.038c0.191,0.038,0.385,0.058,0.579,0.058c0.777,0,1.509-0.304,2.06-0.856l1.129-1.129
		c0.151-0.171,0.147-0.459-0.021-0.646c-0.089-0.099-0.212-0.158-0.345-0.166l-0.028-0.001c-0.123,0-0.241,0.045-0.333,0.128
		l-1.111,1.103c-0.361,0.362-0.843,0.562-1.354,0.562c-0.127,0-0.254-0.013-0.379-0.038c-0.192-0.038-0.387-0.058-0.58-0.058
		c-1.34,0-2.503,0.911-2.828,2.215c-0.098,0.391-0.18,0.734-0.252,1.037l-0.007,0.027c-0.368,1.54-0.521,2.177-1.248,2.903
		l-2.476,2.477L12.601,12.21z"/>
	<path d="M17.751,23.6c-0.965,0-1.75-0.785-1.75-1.75s0.785-1.75,1.75-1.75c0.276,0,0.5,0.224,0.5,0.5s-0.224,0.5-0.5,0.5
		c-0.414,0-0.75,0.336-0.75,0.75s0.336,0.75,0.75,0.75c0.688,0,1.25-0.561,1.25-1.25V21.1c0-1.103-0.897-2-2-2s-2,0.897-2,2
		c0,0.276-0.224,0.5-0.5,0.5s-0.5-0.224-0.5-0.5c0-1.654,1.346-3,3-3s3,1.346,3,3v0.25C20,22.59,18.991,23.599,17.751,23.6
		L17.751,23.6z"/>
	<path d="M3.001,12.1c-1.654,0-3-1.346-3-3V8.85c0-1.241,1.009-2.25,2.25-2.25c0.965,0,1.75,0.785,1.75,1.75s-0.785,1.75-1.75,1.75
		c-0.276,0-0.5-0.224-0.5-0.5s0.224-0.5,0.5-0.5c0.414,0,0.75-0.336,0.75-0.75S2.664,7.6,2.251,7.6c-0.689,0-1.25,0.561-1.25,1.25
		V9.1c0,1.103,0.897,2,2,2s2-0.897,2-2c0-0.276,0.224-0.5,0.5-0.5s0.5,0.224,0.5,0.5C6.001,10.754,4.655,12.1,3.001,12.1z"/>
</g>
</svg>
