<?xml version="1.0" encoding="utf-8"?>
<!-- Generator: Adobe Illustrator 22.1.0, SVG Export Plug-In . SVG Version: 6.00 Build 0)  -->
<svg version="1.1" id="Layer_1" xmlns="http://www.w3.org/2000/svg" xmlns:xlink="http://www.w3.org/1999/xlink" x="0px" y="0px"
	 viewBox="0 0 24 24" style="enable-background:new 0 0 24 24;" xml:space="preserve">
<g>
	<title>astrology-aquarius</title>
	<path d="M17.747,10.281c-0.413,0-0.797-0.164-1.083-0.461l-4.333-4.523c-0.085-0.082-0.208-0.131-0.337-0.131
		c-0.138,0-0.266,0.055-0.361,0.154L7.29,9.851c-0.288,0.276-0.657,0.424-1.046,0.424l0,0c-0.414,0-0.798-0.164-1.084-0.462
		L0.139,4.567C0.047,4.47-0.003,4.344,0,4.21c0.003-0.133,0.058-0.258,0.154-0.35C0.248,3.77,0.371,3.721,0.5,3.721
		c0.136,0,0.267,0.056,0.361,0.154l5.022,5.246C5.978,9.22,6.107,9.275,6.245,9.275c0.13,0,0.252-0.049,0.345-0.138l4.321-4.509
		c0.285-0.298,0.67-0.462,1.083-0.462c0.389,0,0.757,0.148,1.038,0.416l0.042,0.042l4.312,4.503
		c0.095,0.099,0.223,0.153,0.361,0.153c0.13,0,0.253-0.049,0.346-0.139l5.045-5.268c0.094-0.098,0.226-0.154,0.361-0.154
		c0.129,0,0.252,0.049,0.346,0.139C23.942,3.952,23.997,4.076,24,4.21c0.003,0.134-0.046,0.26-0.139,0.357l-5.068,5.29
		C18.505,10.133,18.136,10.281,17.747,10.281L17.747,10.281z"/>
	<path d="M17.747,20.276c-0.413,0-0.798-0.164-1.083-0.461l-4.331-4.517c-0.086-0.083-0.209-0.132-0.339-0.132
		c-0.138,0-0.266,0.054-0.36,0.154l-4.305,4.493c-0.016,0.017-0.033,0.033-0.049,0.049c-0.278,0.266-0.646,0.414-1.034,0.414
		c-0.414,0-0.799-0.164-1.085-0.462l-5.022-5.246C0.047,14.47-0.003,14.344,0,14.21c0.003-0.134,0.058-0.258,0.154-0.351
		c0.093-0.089,0.216-0.139,0.345-0.139c0.136,0,0.267,0.056,0.361,0.154l5.022,5.246c0.095,0.099,0.224,0.154,0.362,0.154
		c0.13,0,0.252-0.049,0.345-0.138l4.321-4.509c0.285-0.298,0.67-0.462,1.083-0.462c0.389,0,0.757,0.148,1.038,0.417l0.045,0.045
		l4.308,4.495c0.095,0.099,0.224,0.154,0.362,0.154c0.13,0,0.252-0.049,0.346-0.139l5.046-5.263
		c0.094-0.098,0.226-0.154,0.361-0.154c0.129,0,0.252,0.049,0.346,0.138c0.097,0.093,0.151,0.217,0.154,0.351
		c0.003,0.134-0.047,0.26-0.139,0.357l-5.031,5.248l-0.045,0.045C18.505,20.129,18.136,20.276,17.747,20.276z"/>
</g>
</svg>
