<?xml version="1.0" encoding="utf-8"?>
<!-- Generator: Adobe Illustrator 22.1.0, SVG Export Plug-In . SVG Version: 6.00 Build 0)  -->
<svg version="1.1" id="Layer_1" xmlns="http://www.w3.org/2000/svg" xmlns:xlink="http://www.w3.org/1999/xlink" x="0px" y="0px"
	 viewBox="0 0 24 24" style="enable-background:new 0 0 24 24;" xml:space="preserve">
<g>
	<title>astrology-libra</title>
	<path d="M1,19.747c-0.276,0-0.5-0.224-0.5-0.5s0.224-0.5,0.5-0.5h22c0.276,0,0.5,0.224,0.5,0.5s-0.224,0.5-0.5,0.5H1z"/>
	<path d="M17.768,14.747c-0.174,0-0.337-0.092-0.427-0.24c-0.09-0.148-0.096-0.336-0.016-0.49c0.739-1.422,0.88-3.047,0.396-4.575
		c-0.483-1.528-1.532-2.777-2.955-3.516c-0.854-0.444-1.809-0.679-2.759-0.679c-0.613,0-1.224,0.095-1.816,0.282
		C8.663,6.013,7.415,7.062,6.676,8.484c-0.9,1.732-0.9,3.8,0,5.532c0.08,0.154,0.074,0.342-0.016,0.49
		c-0.09,0.148-0.254,0.24-0.427,0.24H1c-0.276,0-0.5-0.224-0.5-0.5s0.224-0.5,0.5-0.5h4.46c-0.716-1.869-0.602-3.934,0.328-5.724
		C6.65,6.364,8.107,5.14,9.89,4.576c0.691-0.218,1.403-0.329,2.118-0.329c1.109,0,2.222,0.274,3.219,0.792
		c1.659,0.862,2.884,2.318,3.447,4.101c0.479,1.515,0.43,3.136-0.134,4.607H23c0.276,0,0.5,0.224,0.5,0.5s-0.224,0.5-0.5,0.5H17.768
		z"/>
</g>
</svg>
