<?xml version="1.0" encoding="utf-8"?>
<!-- Generator: Adobe Illustrator 22.1.0, SVG Export Plug-In . SVG Version: 6.00 Build 0)  -->
<svg version="1.1" id="Layer_1" xmlns="http://www.w3.org/2000/svg" xmlns:xlink="http://www.w3.org/1999/xlink" x="0px" y="0px"
	 viewBox="0 0 24 24" style="enable-background:new 0 0 24 24;" xml:space="preserve">
<g>
	<title>astrology-aries</title>
	<path d="M10.499,12.752c-0.034,0-0.067-0.003-0.1-0.01l-2.499-0.5c-0.27-0.054-0.446-0.318-0.392-0.588
		c0.047-0.233,0.253-0.402,0.49-0.402c0.033,0,0.066,0.003,0.099,0.01l2.5,0.5c0.131,0.026,0.244,0.102,0.318,0.213
		c0.074,0.111,0.1,0.244,0.074,0.375C10.943,12.583,10.737,12.752,10.499,12.752z"/>
	<path d="M11.982,18.252c-0.039-0.002-0.077-0.008-0.115-0.018c-0.01-0.003-0.032-0.01-0.041-0.014
		c-0.025-0.009-0.049-0.02-0.072-0.033c-0.013-0.006-0.026-0.014-0.037-0.021l-1.496-0.998c-0.229-0.153-0.291-0.464-0.139-0.693
		c0.093-0.14,0.248-0.223,0.416-0.223c0.099,0,0.194,0.029,0.277,0.084l1.223,0.815l1.223-0.815
		c0.083-0.055,0.178-0.084,0.277-0.084c0.168,0,0.323,0.083,0.416,0.223c0.153,0.229,0.091,0.54-0.139,0.693l-1.5,1
		c-0.01,0.007-0.022,0.013-0.035,0.019c-0.024,0.013-0.047,0.023-0.07,0.032c-0.006,0.002-0.031,0.011-0.037,0.013
		c-0.043,0.012-0.082,0.018-0.12,0.019c-0.005,0-0.01,0-0.015,0C11.994,18.252,11.988,18.252,11.982,18.252z"/>
	<path d="M11.999,23.752c-0.052,0-0.102-0.008-0.151-0.023c-2.315-0.739-4.384-2.199-5.86-4.13l-0.489,0.649
		c-0.187,0.25-0.487,0.399-0.8,0.399c-0.218,0-0.424-0.069-0.599-0.199c-0.174-0.131-0.303-0.318-0.362-0.526l-0.448-1.57
		c-0.194-0.684-0.292-1.39-0.29-2.099v-1.999C3,13.51,3.196,12.777,3.566,12.134l0.783-1.375c-0.064,0.003-0.126,0.004-0.187,0.004
		c-1.221,0-2.398-0.379-3.403-1.097C0.634,9.572,0.539,9.461,0.47,9.334C0.344,9.099,0.316,8.828,0.393,8.573
		C0.47,8.317,0.642,8.106,0.877,7.98l3.34-1.798C3.787,5.563,3.459,4.887,3.24,4.167C2.959,3.334,2.452,2.584,1.774,2.005
		c-0.206-0.18-0.326-0.424-0.344-0.69C1.413,1.048,1.501,0.791,1.677,0.59c0.19-0.217,0.464-0.341,0.751-0.341
		c0.079,0,0.158,0.009,0.235,0.028L4.195,0.66c1.289,0.322,2.311,1.317,2.667,2.597c0.152,0.479,0.469,0.892,0.899,1.169
		c0.247-0.199,0.51-0.369,0.785-0.507l1.491-0.746c0.603-0.301,1.281-0.461,1.962-0.461c0.68,0,1.359,0.159,1.962,0.461l1.491,0.746
		c0.274,0.137,0.538,0.307,0.786,0.507c0.433-0.283,0.751-0.699,0.905-1.185c0.352-1.266,1.373-2.258,2.662-2.58l1.528-0.382
		c0.08-0.019,0.158-0.028,0.236-0.028c0.287,0,0.561,0.124,0.75,0.339C22.683,1.003,22.643,1.636,22.23,2
		c-0.682,0.584-1.19,1.338-1.473,2.184c-0.216,0.71-0.543,1.383-0.971,2l3.336,1.796c0.486,0.261,0.668,0.868,0.407,1.354
		c-0.069,0.128-0.163,0.237-0.277,0.324c-1.014,0.724-2.193,1.105-3.416,1.105c-0.061,0-0.122-0.001-0.186-0.004l0.784,1.377
		c0.368,0.642,0.564,1.374,0.565,2.116v2.001c0,0.71-0.099,1.416-0.294,2.099l-0.448,1.57c-0.122,0.427-0.518,0.726-0.963,0.726
		c-0.092,0-0.183-0.013-0.271-0.038c-0.21-0.06-0.397-0.189-0.527-0.363l-0.487-0.649c-1.475,1.933-3.542,3.394-5.857,4.132
		C12.101,23.744,12.05,23.752,11.999,23.752z M6.442,18.52c1.337,1.96,3.307,3.451,5.557,4.206c2.269-0.76,4.25-2.268,5.585-4.253
		c0.09-0.134,0.24-0.217,0.402-0.221c0.136,0.003,0.306,0.057,0.413,0.2l0.896,1.194l0.448-1.57c0.17-0.594,0.256-1.207,0.256-1.824
		v-2c-0.001-0.567-0.151-1.128-0.434-1.62l-1.171-2.057c0,0-0.001,0-0.001,0l0.242,1.454c0.252,1.515-0.101,3.037-0.993,4.287
		l-2.864,4.01c-0.219,0.307-0.486,0.574-0.794,0.794c-0.583,0.417-1.267,0.637-1.978,0.637c-0.188,0-0.379-0.016-0.568-0.047
		c-0.9-0.15-1.688-0.641-2.218-1.384l-2.864-4.01c-0.892-1.25-1.245-2.772-0.992-4.287l0.242-1.454c-0.001,0-0.001,0-0.002,0
		l-1.17,2.055C4.15,13.124,4,13.685,3.999,14.253v1.999c-0.002,0.617,0.083,1.23,0.252,1.824l0.448,1.57L5.6,18.451
		c0.094-0.125,0.243-0.199,0.399-0.199c0.054,0,0.108,0.009,0.159,0.026C6.28,18.319,6.383,18.407,6.442,18.52z M6.35,12.193
		c-0.208,1.251,0.083,2.509,0.82,3.542l2.864,4.01c0.375,0.525,0.932,0.872,1.568,0.978c0.133,0.022,0.268,0.033,0.402,0.033
		c0.503,0,0.987-0.156,1.399-0.45c0.217-0.155,0.406-0.344,0.562-0.562l2.864-4.01c0.737-1.032,1.028-2.29,0.821-3.542l-0.576-3.454
		l-0.378,0.303c-0.118,0.094-0.247,0.177-0.383,0.245c-0.297,0.148-0.615,0.223-0.944,0.223c-0.229,0-0.457-0.037-0.677-0.111
		c-0.537-0.18-0.972-0.559-1.225-1.066c-0.252-0.507-0.292-1.083-0.112-1.62c0.181-0.538,0.559-0.973,1.067-1.225
		c0.301-0.152,0.603-0.317,0.901-0.492c-0.103-0.067-0.209-0.127-0.317-0.181l-1.491-0.746c-0.465-0.233-0.989-0.355-1.514-0.355
		s-1.049,0.123-1.515,0.355L8.994,4.813C8.886,4.867,8.78,4.928,8.677,4.994c0.301,0.177,0.603,0.342,0.904,0.493
		c1.047,0.51,1.485,1.782,0.973,2.834c-0.248,0.51-0.68,0.892-1.216,1.077C9.113,9.476,8.88,9.515,8.645,9.515
		c-0.322,0-0.634-0.072-0.927-0.215C7.569,9.228,7.429,9.139,7.301,9.034l-0.375-0.3L6.35,12.193z M1.351,8.86
		c0.824,0.588,1.796,0.901,2.807,0.901c0.292,0,0.585-0.027,0.873-0.079c0.079-0.05,0.171-0.078,0.266-0.078
		c0.022,0,0.043,0.001,0.065,0.004c0.143-0.037,0.286-0.08,0.426-0.13l0.243-1.461l-0.525-0.42C5.277,7.405,5.059,7.196,4.854,6.974
		L1.351,8.86z M18.967,9.682c0.288,0.052,0.58,0.079,0.871,0.079c1.012,0,1.987-0.314,2.82-0.909l-3.51-1.876
		c-0.205,0.221-0.421,0.428-0.645,0.617l-0.537,0.43l0.243,1.456c0.14,0.05,0.283,0.093,0.427,0.13
		c0.022-0.003,0.043-0.004,0.065-0.004C18.796,9.604,18.888,9.631,18.967,9.682z M2.431,1.25c0.81,0.693,1.42,1.597,1.761,2.612
		C4.547,5.026,5.22,6.048,6.141,6.825l1.79,1.432c0.071,0.058,0.146,0.106,0.224,0.144C8.31,8.477,8.475,8.515,8.645,8.515
		c0.124,0,0.248-0.021,0.367-0.062c0.283-0.098,0.512-0.3,0.643-0.569c0.271-0.556,0.039-1.229-0.518-1.5
		C8.525,6.075,7.928,5.728,7.36,5.35C6.674,4.968,6.151,4.322,5.904,3.542C5.64,2.594,4.894,1.865,3.953,1.63L2.431,1.25z
		 M20.047,1.63c-0.94,0.235-1.686,0.961-1.947,1.895c-0.25,0.793-0.78,1.446-1.493,1.845c-0.538,0.36-1.128,0.703-1.738,1.01
		c-0.27,0.134-0.47,0.364-0.565,0.649c-0.096,0.285-0.075,0.589,0.059,0.856c0.133,0.268,0.363,0.469,0.647,0.564
		c0.116,0.039,0.237,0.059,0.358,0.059c0.173,0,0.341-0.04,0.499-0.118c0.072-0.036,0.14-0.079,0.202-0.129l1.041-0.833
		c0.008-0.008,0.023-0.021,0.044-0.035l0.716-0.573c0.913-0.77,1.583-1.789,1.934-2.941c0.343-1.026,0.953-1.932,1.765-2.63
		L20.047,1.63z"/>
	<path d="M13.499,12.752c-0.238,0-0.444-0.169-0.49-0.402c-0.054-0.27,0.122-0.534,0.392-0.588l2.5-0.5
		c0.033-0.007,0.066-0.01,0.099-0.01c0.237,0,0.443,0.169,0.49,0.402c0.054,0.27-0.122,0.534-0.392,0.588l-2.5,0.5
		C13.566,12.749,13.533,12.752,13.499,12.752z"/>
</g>
</svg>
