<?xml version="1.0" encoding="utf-8"?>
<!-- Generator: Adobe Illustrator 22.1.0, SVG Export Plug-In . SVG Version: 6.00 Build 0)  -->
<svg version="1.1" id="Layer_1" xmlns="http://www.w3.org/2000/svg" xmlns:xlink="http://www.w3.org/1999/xlink" x="0px" y="0px"
	 viewBox="0 0 24 24" style="enable-background:new 0 0 24 24;" xml:space="preserve">
<g>
	<title>religion-man-christian-1</title>
	<path d="M11.5,15.973c-0.648,0-1.287-0.212-1.8-0.596c-0.107-0.08-0.176-0.197-0.195-0.329C9.486,14.915,9.52,14.783,9.6,14.676
		c0.094-0.125,0.244-0.2,0.4-0.2c0.109,0,0.212,0.034,0.299,0.099c0.342,0.256,0.768,0.397,1.2,0.397s0.859-0.141,1.2-0.397
		c0.087-0.065,0.191-0.1,0.3-0.1c0.156,0,0.306,0.075,0.4,0.2c0.08,0.106,0.114,0.238,0.095,0.37
		c-0.019,0.132-0.088,0.25-0.195,0.33C12.787,15.761,12.148,15.973,11.5,15.973z"/>
	<path d="M15.525,23.976c-0.19,0-0.361-0.105-0.446-0.274c-0.06-0.119-0.071-0.254-0.029-0.381c0.042-0.127,0.13-0.23,0.249-0.291
		c1.097-0.556,1.971-1.517,2.427-2.661c-0.324-0.107-0.652-0.206-0.979-0.293c-0.314-0.079-0.631-0.15-0.943-0.21
		c-0.571,1.252-2.298,2.11-4.304,2.11c-2.006,0-3.733-0.858-4.304-2.11c-0.11,0.022-0.22,0.044-0.33,0.068L6.74,19.961
		c-0.499,0.111-0.993,0.243-1.472,0.394C5.725,21.504,6.6,22.47,7.703,23.03c0.246,0.125,0.344,0.426,0.22,0.672
		c-0.086,0.169-0.256,0.274-0.446,0.274c-0.078,0-0.156-0.019-0.226-0.054c-1.33-0.675-2.385-1.846-2.926-3.236
		c-1.316,0.516-2.218,1.097-2.753,1.503C1.211,22.467,0.997,22.908,1,23.367v0.109c0,0.276-0.224,0.5-0.5,0.5S0,23.752,0,23.476
		V23.37c-0.005-0.767,0.355-1.506,0.965-1.975c0.661-0.503,1.802-1.226,3.489-1.823c0.006-0.002,0.012-0.005,0.018-0.007
		c0.686-0.241,1.406-0.442,2.151-0.602l0.113-0.025c0.223-0.047,0.453-0.09,0.688-0.13c0.004-0.001,0.024-0.004,0.028-0.005
		c1.27-0.218,2.632-0.328,4.049-0.328c0.208-0.008,0.424-0.011,0.641-0.011c1.641,0,3.284,0.219,4.882,0.649
		c0.513,0.13,1.022,0.283,1.51,0.453c0.047,0.017,0.092,0.04,0.132,0.071c0.712,0.264,1.408,0.57,2.07,0.912
		c0.119,0.061,0.207,0.165,0.247,0.292c0.041,0.127,0.029,0.263-0.032,0.381c-0.086,0.167-0.256,0.271-0.444,0.271c0,0,0,0,0,0
		c-0.079,0-0.159-0.02-0.23-0.056c-0.512-0.264-1.052-0.508-1.608-0.728c-0.543,1.38-1.594,2.541-2.917,3.211
		C15.682,23.957,15.604,23.976,15.525,23.976z M8.244,19.693c0.523,0.759,1.819,1.283,3.257,1.283c1.462,0,2.769-0.537,3.277-1.311
		c-0.883-0.133-1.774-0.2-2.655-0.2c-0.202,0-0.403,0.004-0.605,0.01C10.377,19.476,9.279,19.549,8.244,19.693z"/>
	<path d="M13.5,13.226c-0.414,0-0.75-0.336-0.75-0.75s0.336-0.75,0.75-0.75s0.75,0.337,0.75,0.75S13.913,13.226,13.5,13.226z"/>
	<path d="M9.5,13.226c-0.414,0-0.75-0.336-0.75-0.75s0.336-0.75,0.75-0.75s0.75,0.337,0.75,0.75S9.913,13.226,9.5,13.226z"/>
	<path d="M11.5,17.976c-3.033,0-5.5-2.467-5.5-5.5v-1.856c-0.361-0.587-0.631-1.227-0.803-1.905C5.153,8.64,5.131,8.559,5.131,8.476
		c0-0.009,0.001-0.022,0.003-0.035C5.067,8.123,5.022,7.81,5.001,7.511C5,5.372,6.758,3.379,7.806,2.38
		c1.362-1.299,3.019-2.356,3.694-2.356c1.129,0,6.5,3.721,6.5,7.452c-0.022,0.321-0.066,0.638-0.134,0.959
		c0.001,0.012,0.003,0.026,0.003,0.041c0,0.085-0.023,0.166-0.067,0.243C17.629,9.396,17.36,10.035,17,10.621v1.856
		C17,15.509,14.533,17.976,11.5,17.976z M7,12.476c0,2.481,2.019,4.5,4.5,4.5c2.481,0,4.5-2.019,4.5-4.5v-1.5H7V12.476z
		 M16.217,9.976c0.185-0.318,0.34-0.652,0.463-1H6.319c0.123,0.347,0.278,0.682,0.463,1H16.217z M16.938,7.976
		c0.029-0.178,0.05-0.357,0.062-0.535C17,4.295,12.111,1.024,11.5,1.024S6,4.304,6,7.476c0.012,0.159,0.032,0.329,0.06,0.5H16.938z"
		/>
	<path d="M11.5,6.976c-0.276,0-0.5-0.224-0.5-0.5v-1.5h-0.5c-0.276,0-0.5-0.224-0.5-0.5s0.224-0.5,0.5-0.5H11v-0.5
		c0-0.276,0.224-0.5,0.5-0.5S12,3.2,12,3.476v0.5h0.5c0.276,0,0.5,0.224,0.5,0.5s-0.224,0.5-0.5,0.5H12v1.5
		C12,6.752,11.776,6.976,11.5,6.976z"/>
	<path d="M23.5,23.976c-0.276,0-0.5-0.224-0.5-0.5v-9.75c0-0.965-0.785-1.75-1.75-1.75s-1.75,0.785-1.75,1.75v0.25
		c0,0.552,0.448,1,1,1c0.827,0,1.5,0.673,1.5,1.5s-0.673,1.5-1.5,1.5c-0.276,0-0.5-0.224-0.5-0.5s0.224-0.5,0.5-0.5
		s0.5-0.224,0.5-0.5s-0.224-0.5-0.5-0.5c-1.103,0-2-0.897-2-2v-0.25c0-1.516,1.234-2.75,2.75-2.75S24,12.21,24,13.726v9.75
		C24,23.752,23.776,23.976,23.5,23.976z"/>
</g>
</svg>
