<?xml version="1.0" encoding="utf-8"?>
<!-- Generator: Adobe Illustrator 22.1.0, SVG Export Plug-In . SVG Version: 6.00 Build 0)  -->
<svg version="1.1" id="Layer_1" xmlns="http://www.w3.org/2000/svg" xmlns:xlink="http://www.w3.org/1999/xlink" x="0px" y="0px"
	 viewBox="0 0 24 24" style="enable-background:new 0 0 24 24;" xml:space="preserve">
<g>
	<title>religion-man-japan</title>
	<path d="M23,24.125c-0.276,0-0.5-0.224-0.5-0.5v-3.106c0.003-0.461-0.212-0.903-0.575-1.183c-0.669-0.512-1.825-1.232-3.577-1.801
		l-3.407,6.327c-0.088,0.162-0.256,0.263-0.441,0.263c-0.082,0-0.164-0.021-0.236-0.059c-0.243-0.132-0.334-0.436-0.204-0.678
		l3.305-6.138c-0.277-0.071-0.563-0.137-0.855-0.196l-6.136,6.903c-0.095,0.107-0.231,0.168-0.374,0.168
		c-0.123,0-0.241-0.045-0.332-0.127c-0.099-0.088-0.159-0.21-0.167-0.344c-0.008-0.134,0.037-0.262,0.125-0.362l1.705-1.918
		l-3.839-4.319c-2.734,0.562-4.454,1.548-5.419,2.282c-0.361,0.278-0.576,0.719-0.573,1.178v3.109c0,0.276-0.224,0.5-0.5,0.5
		s-0.5-0.224-0.5-0.5v-3.106c-0.005-0.766,0.355-1.505,0.965-1.975C2.9,17.453,6.174,15.625,12,15.625
		c5.851,0,9.111,1.828,10.534,2.918c0.61,0.47,0.971,1.21,0.966,1.979v3.103C23.5,23.901,23.276,24.125,23,24.125z M12,20.622
		l3.351-3.769c-1.059-0.151-2.184-0.228-3.351-0.228c-1.165,0-2.29,0.077-3.349,0.229L12,20.622z"/>
	<path d="M12,12.121c-0.648,0-1.287-0.212-1.8-0.597c-0.107-0.08-0.176-0.197-0.195-0.329c-0.019-0.132,0.015-0.264,0.095-0.371
		c0.094-0.125,0.244-0.2,0.4-0.2c0.109,0,0.213,0.035,0.3,0.1c0.342,0.256,0.768,0.397,1.2,0.397c0.432,0,0.859-0.141,1.2-0.397
		c0.086-0.065,0.19-0.1,0.3-0.1c0.156,0,0.306,0.075,0.4,0.2c0.08,0.107,0.114,0.238,0.095,0.371
		c-0.019,0.132-0.088,0.249-0.195,0.329C13.287,11.91,12.648,12.121,12,12.121z"/>
	<path d="M12,15.125c-3.422,0-6.223-2.616-6.48-6H1.506c-0.202,0-0.393-0.058-0.558-0.167C0.726,8.81,0.574,8.584,0.522,8.322
		c-0.053-0.262,0-0.529,0.148-0.751c1.868-2.737,4.246-4.999,7.069-6.725c0.709-0.466,1.558-0.717,2.449-0.721c0,0,3.624,0,3.625,0
		c0.892,0,1.735,0.253,2.462,0.73c2.812,1.718,5.187,3.977,7.053,6.711c0.114,0.172,0.172,0.366,0.171,0.566
		c-0.004,0.548-0.453,0.993-1,0.993H18.48C18.223,12.509,15.422,15.125,12,15.125z M6.523,9.125c0.253,2.824,2.61,5,5.477,5
		c2.866,0,5.223-2.176,5.477-5H6.523z M10.167,1.125c-0.675,0-1.329,0.196-1.893,0.566C5.561,3.35,3.284,5.515,1.499,8.13
		l20.995-0.005C20.715,5.513,18.441,3.35,15.739,1.7c-0.574-0.377-1.22-0.569-1.928-0.575H10.167z"/>
</g>
</svg>
