<?xml version="1.0" encoding="utf-8"?>
<!-- Generator: Adobe Illustrator 22.1.0, SVG Export Plug-In . SVG Version: 6.00 Build 0)  -->
<svg version="1.1" id="Light" xmlns="http://www.w3.org/2000/svg" xmlns:xlink="http://www.w3.org/1999/xlink" x="0px" y="0px"
	 viewBox="0 0 24 24" style="enable-background:new 0 0 24 24;" xml:space="preserve">
<g>
	<title>escalator-ascend-person</title>
	<path d="M16.5,23c-0.134,0-0.259-0.052-0.354-0.146S16,22.634,16,22.5s0.052-0.259,0.146-0.354L22.293,16H19.5
		c-0.276,0-0.5-0.224-0.5-0.5s0.224-0.5,0.5-0.5h4c0.066,0,0.13,0.013,0.191,0.039c0.123,0.051,0.219,0.147,0.27,0.27
		C23.987,15.37,24,15.434,24,15.5v4c0,0.276-0.224,0.5-0.5,0.5S23,19.776,23,19.5v-2.793l-6.146,6.146
		C16.759,22.948,16.634,23,16.5,23z"/>
	<path d="M3,23c-1.654,0-3-1.346-3-3s1.346-3,3-3h2.277c0.395,0,0.768-0.152,1.05-0.428l8.823-8.639C15.703,7.343,16.498,7,17.323,7
		H21c1.654,0,3,1.346,3,3s-1.346,3-3,3h-1.777c-0.395,0-0.768,0.152-1.05,0.428l-8.819,8.635C8.796,22.656,8,23,7.176,23H3z M3,18
		c-1.103,0-2,0.897-2,2s0.897,2,2,2h4.176c0.551,0,1.083-0.23,1.459-0.632l8.838-8.654c0.47-0.46,1.091-0.714,1.749-0.714H21
		c1.103,0,2-0.897,2-2s-0.897-2-2-2h-3.676c-0.551,0-1.083,0.23-1.459,0.632l-8.838,8.654C6.557,17.747,5.936,18,5.278,18H3z"/>
	<path d="M9,7C7.346,7,6,5.654,6,4s1.346-3,3-3s3,1.346,3,3S10.654,7,9,7z M9,2C7.897,2,7,2.897,7,4s0.897,2,2,2s2-0.897,2-2
		S10.103,2,9,2z"/>
	<path d="M7,14c-0.276,0-0.5-0.224-0.5-0.5v-3.333c0-1.379,1.121-2.5,2.5-2.5s2.5,1.121,2.5,2.5c0,0.276-0.224,0.5-0.5,0.5
		s-0.5-0.224-0.5-0.5c0-0.827-0.673-1.5-1.5-1.5s-1.5,0.673-1.5,1.5V13.5C7.5,13.776,7.276,14,7,14z"/>
</g>
</svg>
