<?xml version="1.0" encoding="utf-8"?>
<!-- Generator: Adobe Illustrator 22.1.0, SVG Export Plug-In . SVG Version: 6.00 Build 0)  -->
<svg version="1.1" id="Light" xmlns="http://www.w3.org/2000/svg" xmlns:xlink="http://www.w3.org/1999/xlink" x="0px" y="0px"
	 viewBox="0 0 24 24" style="enable-background:new 0 0 24 24;" xml:space="preserve">
<g>
	<title>escalator-descend</title>
	<path d="M14.738,22.5c-0.413,0-0.812-0.173-1.095-0.474l-6.907-7.369c-0.094-0.1-0.227-0.158-0.364-0.158H3.5
		C1.57,14.5,0,12.93,0,11s1.57-3.5,3.5-3.5h5.262c0.414,0,0.813,0.173,1.095,0.474l6.907,7.368c0.094,0.1,0.227,0.158,0.364,0.158
		H20.5c1.93,0,3.5,1.57,3.5,3.5s-1.57,3.5-3.5,3.5H14.738z M14.373,21.342c0.094,0.101,0.227,0.158,0.364,0.158H20.5
		c1.378,0,2.5-1.122,2.5-2.5s-1.122-2.5-2.5-2.5h-3.371c-0.413,0-0.812-0.173-1.095-0.474L9.127,8.658
		C9.033,8.558,8.9,8.5,8.762,8.5H3.5C2.121,8.5,1,9.621,1,11c0,1.378,1.121,2.5,2.5,2.5h2.871c0.414,0,0.812,0.173,1.095,0.474
		L14.373,21.342L14.373,21.342z"/>
	<path d="M16.5,10.5c-0.276,0-0.5-0.224-0.5-0.5s0.224-0.5,0.5-0.5h3.793l-7.146-7.146C13.052,2.259,13,2.134,13,2
		s0.052-0.259,0.146-0.354S13.366,1.5,13.5,1.5s0.259,0.052,0.354,0.146L21,8.793V5c0-0.276,0.224-0.5,0.5-0.5S22,4.724,22,5v5
		c0,0.066-0.013,0.13-0.039,0.192c-0.051,0.123-0.147,0.219-0.27,0.27C21.63,10.487,21.566,10.5,21.5,10.5H16.5z"/>
</g>
</svg>
