<?xml version="1.0" encoding="utf-8"?>
<!-- Generator: Adobe Illustrator 22.1.0, SVG Export Plug-In . SVG Version: 6.00 Build 0)  -->
<svg version="1.1" id="Light" xmlns="http://www.w3.org/2000/svg" xmlns:xlink="http://www.w3.org/1999/xlink" x="0px" y="0px"
	 viewBox="0 0 24 24" style="enable-background:new 0 0 24 24;" xml:space="preserve">
<g>
	<title>escalator-people</title>
	<path d="M4.5,10.5c-1.241,0-2.25-1.009-2.25-2.25S3.259,6,4.5,6s2.25,1.009,2.25,2.25S5.741,10.5,4.5,10.5z M4.5,7
		C3.811,7,3.25,7.561,3.25,8.25S3.811,9.5,4.5,9.5s1.25-0.561,1.25-1.25S5.189,7,4.5,7z"/>
	<path d="M3,24c-1.654,0-3-1.346-3-3s1.346-3,3-3h1.277c0.395,0,0.768-0.152,1.05-0.428l11.328-9.645
		C17.219,7.338,18.008,7,18.823,7H21c1.654,0,3,1.346,3,3s-1.346,3-3,3h-0.277c-0.395,0-0.768,0.152-1.05,0.428L8.344,23.073
		C7.781,23.662,6.992,24,6.176,24H3z M3,19c-1.103,0-2,0.897-2,2s0.897,2,2,2h3.176c0.551,0,1.083-0.23,1.459-0.632
		c0.012-0.012,0.025-0.026,0.039-0.038l11.324-9.64c0.449-0.441,1.065-0.69,1.723-0.69H21c1.103,0,2-0.897,2-2s-0.897-2-2-2h-2.176
		c-0.551,0-1.083,0.23-1.459,0.632c-0.012,0.013-0.027,0.027-0.041,0.039L6.001,18.31C5.553,18.751,4.936,19,4.278,19H3z"/>
	<path d="M3,17c-0.276,0-0.5-0.224-0.5-0.5V13c0-1.103,0.897-2,2-2s2,0.897,2,2v2c0,0.276-0.224,0.5-0.5,0.5S5.5,15.276,5.5,15v-2
		c0-0.552-0.449-1-1-1s-1,0.448-1,1v3.5C3.5,16.776,3.276,17,3,17z"/>
	<path d="M9.5,7.5c-1.241,0-2.25-1.009-2.25-2.25S8.259,3,9.5,3s2.25,1.009,2.25,2.25S10.741,7.5,9.5,7.5z M9.5,4
		C8.811,4,8.25,4.561,8.25,5.25S8.811,6.5,9.5,6.5s1.25-0.561,1.25-1.25S10.189,4,9.5,4z"/>
	<path d="M8,14c-0.276,0-0.5-0.224-0.5-0.5V10c0-1.103,0.897-2,2-2s2,0.897,2,2v0.5c0,0.276-0.224,0.5-0.5,0.5s-0.5-0.224-0.5-0.5
		V10c0-0.551-0.449-1-1-1s-1,0.449-1,1v3.5C8.5,13.776,8.276,14,8,14z"/>
	<path d="M14.5,4.5c-1.241,0-2.25-1.009-2.25-2.25S13.259,0,14.5,0s2.25,1.009,2.25,2.25S15.741,4.5,14.5,4.5z M14.5,1
		c-0.689,0-1.25,0.561-1.25,1.25S13.811,3.5,14.5,3.5s1.25-0.561,1.25-1.25S15.189,1,14.5,1z"/>
	<path d="M13,9.5c-0.276,0-0.5-0.224-0.5-0.5V7c0-1.103,0.897-2,2-2c0.844,0.003,1.601,0.538,1.885,1.332
		c0.045,0.125,0.038,0.261-0.019,0.382c-0.057,0.121-0.158,0.212-0.283,0.257C16.028,6.99,15.971,7,15.914,7l0,0
		c-0.211,0-0.4-0.134-0.471-0.332C15.301,6.27,14.921,6.001,14.498,6C13.948,6,13.5,6.449,13.5,7v2C13.5,9.276,13.276,9.5,13,9.5z"
		/>
</g>
</svg>
