<?xml version="1.0" encoding="utf-8"?>
<!-- Generator: Adobe Illustrator 22.1.0, SVG Export Plug-In . SVG Version: 6.00 Build 0)  -->
<svg version="1.1" id="Light" xmlns="http://www.w3.org/2000/svg" xmlns:xlink="http://www.w3.org/1999/xlink" x="0px" y="0px"
	 viewBox="0 0 24 24" style="enable-background:new 0 0 24 24;" xml:space="preserve">
<g>
	<title>meerkat</title>
	<path d="M8.338,24c-0.156,0-0.305-0.074-0.399-0.199c-0.094-0.124-0.125-0.288-0.082-0.438c0.009-0.031,0.853-3.118-0.743-3.916
		c-0.14-0.07-0.272-0.153-0.395-0.248c-0.071,0.589-0.19,1.497-0.386,2.871C6.058,24,2.882,24,1.838,24c-0.276,0-0.5-0.224-0.5-0.5
		s0.224-0.5,0.5-0.5C4,23,5.245,22.62,5.343,21.93c0.468-3.277,0.494-3.887,0.495-3.933c-0.951-2.32,0.16-6.056,0.526-7.154
		c0.989-2.968,1.387-4.619,1.062-6.303C7.232,4.497,7.06,4.423,6.912,4.316C6.531,4.042,6.338,3.599,6.338,3
		c0-0.525,0.183-0.934,0.543-1.215c0.22-0.172,0.501-0.284,0.835-0.334c0.351-0.852,1.179-1.428,2.109-1.451
		c1.551,0.079,3.091,0.25,4.596,0.507c0.21,0.036,0.374,0.201,0.409,0.411c0.023,0.141,0.548,3.463-1.872,4.068
		c-0.317,0.079-0.531,0.237-0.673,0.495c-0.374,0.681-0.123,1.814-0.021,2.196c0.582,0.4,2.073,1.776,2.073,5.324
		c0,0.276-0.224,0.5-0.5,0.5s-0.5-0.224-0.5-0.5c0-3.572-1.714-4.547-1.731-4.557c-0.113-0.058-0.203-0.163-0.244-0.285
		C11.338,8.08,10.734,6.231,11.409,5c0.278-0.506,0.718-0.837,1.308-0.985c1.178-0.295,1.212-1.87,1.164-2.584
		C12.536,1.216,11.168,1.071,9.812,1C9.444,1.01,9.088,1.195,8.847,1.491c0.058,0.011,0.097,0.021,0.111,0.024
		c0.268,0.067,0.431,0.339,0.365,0.606C9.268,2.344,9.068,2.5,8.838,2.5c-0.041,0-0.081-0.005-0.12-0.015
		c-0.121-0.03-0.345-0.065-0.578-0.065c-0.288,0-0.517,0.054-0.643,0.153C7.428,2.627,7.338,2.729,7.338,3
		c0,0.178,0.027,0.41,0.158,0.504c0.069,0.05,0.176,0.076,0.31,0.076c0.194,0,0.371-0.054,0.378-0.056
		C8.231,3.509,8.285,3.5,8.338,3.5c0.216,0,0.406,0.137,0.474,0.342c0.042,0.127,0.033,0.262-0.027,0.382S8.623,4.432,8.496,4.475
		c-0.009,0.003-0.031,0.01-0.064,0.019c0.343,2.032-0.251,4.058-1.12,6.665c-1,3.001-1.349,6.595,0.249,7.395
		c1.778,0.889,1.625,3.216,1.4,4.447h0.876c0.276,0,0.5,0.224,0.5,0.5s-0.224,0.5-0.5,0.5H8.338z"/>
	<path d="M11.338,15c-0.259,0-0.478-0.202-0.498-0.46c-0.088-1.115-0.735-2.084-1.73-2.595c-0.198-0.102-0.306-0.325-0.262-0.543
		l0.5-2.5C9.394,8.669,9.6,8.5,9.837,8.5c0.032,0,0.066,0.003,0.099,0.01c0.131,0.026,0.244,0.102,0.318,0.213
		c0.074,0.111,0.1,0.244,0.074,0.375l-0.429,2.147c1.113,0.704,1.833,1.893,1.938,3.215c0.022,0.275-0.184,0.516-0.459,0.538
		C11.371,14.999,11.344,15,11.338,15z"/>
	<path d="M11.838,24c-0.276,0-0.5-0.224-0.5-0.5v-3.143c-0.065-1.277-0.557-2.538-1.385-3.538c-0.085-0.103-0.125-0.233-0.113-0.366
		s0.076-0.253,0.179-0.338C10.108,16.041,10.222,16,10.338,16c0.15,0,0.29,0.066,0.385,0.182c0.964,1.165,1.537,2.639,1.614,4.15
		l0,2.668h1c0.276,0,0.5,0.224,0.5,0.5s-0.224,0.5-0.5,0.5H11.838z"/>
	<circle cx="11.088" cy="2.25" r="0.75"/>
	<path d="M17.425,24c-0.156,0-0.305-0.074-0.399-0.199c-0.094-0.124-0.125-0.288-0.082-0.438c0.007-0.023,0.628-2.361-0.526-2.938
		c-1.215-0.607-2.021-2.73-0.642-6.866c0.684-2.053,1.011-3.451,0.752-4.837c-0.104-0.036-0.198-0.085-0.284-0.147
		c-0.328-0.236-0.494-0.612-0.494-1.118c0-0.555,0.254-0.87,0.467-1.037c0.141-0.11,0.311-0.192,0.506-0.243
		C17.067,5.458,17.785,5,18.588,5c0.004,0,0.023,0,0.028,0c1.202,0.062,2.41,0.196,3.591,0.398c0.21,0.036,0.374,0.201,0.409,0.411
		c0.019,0.115,0.445,2.809-1.546,3.307c-0.217,0.054-0.362,0.16-0.458,0.335c-0.234,0.426-0.131,1.169-0.019,1.6
		c0.474,0.341,1.638,1.463,1.638,4.233c0,0.276-0.224,0.5-0.5,0.5s-0.5-0.224-0.5-0.5c0-2.743-1.279-3.461-1.292-3.468
		c-0.116-0.058-0.205-0.161-0.247-0.287c-0.053-0.158-0.498-1.574,0.044-2.56c0.233-0.423,0.6-0.7,1.092-0.823
		c0.803-0.201,0.859-1.281,0.834-1.823C20.64,6.162,19.603,6.053,18.575,6c-0.221,0-0.433,0.071-0.609,0.198
		c0.25,0.079,0.398,0.34,0.335,0.597c-0.055,0.223-0.255,0.38-0.485,0.38c-0.04,0-0.08-0.005-0.119-0.014
		c-0.092-0.023-0.258-0.049-0.43-0.049c-0.2,0-0.354,0.035-0.434,0.097c-0.022,0.018-0.082,0.064-0.082,0.248
		c0,0.231,0.06,0.293,0.078,0.306c0.034,0.025,0.101,0.039,0.183,0.039c0.111,0,0.216-0.025,0.256-0.038
		c0.051-0.017,0.103-0.025,0.156-0.025c0.217,0,0.407,0.138,0.475,0.344c0.086,0.261-0.056,0.543-0.316,0.63
		c-0.008,0.003-0.021,0.007-0.038,0.012c0.237,1.528-0.125,3.064-0.821,5.15c-0.769,2.306-1.052,5.059,0.141,5.656
		c1.399,0.699,1.335,2.481,1.176,3.469h0.559c0.276,0,0.5,0.224,0.5,0.5s-0.224,0.5-0.5,0.5H17.425z"/>
	<path d="M19.775,16.957c-0.259,0-0.478-0.202-0.498-0.46c-0.066-0.835-0.55-1.561-1.295-1.943
		c-0.198-0.101-0.306-0.325-0.262-0.543l0.391-1.957c0.046-0.233,0.252-0.402,0.489-0.402c0.032,0,0.066,0.003,0.099,0.01
		c0.131,0.026,0.244,0.102,0.318,0.213c0.074,0.111,0.1,0.245,0.074,0.375l-0.321,1.608c0.863,0.573,1.421,1.517,1.504,2.559
		c0.021,0.275-0.184,0.516-0.459,0.538C19.808,16.956,19.781,16.957,19.775,16.957z"/>
	<path d="M20.164,24c-0.276,0-0.5-0.224-0.5-0.5v-2.46c-0.05-0.971-0.426-1.934-1.059-2.699c-0.085-0.103-0.125-0.233-0.113-0.366
		s0.076-0.253,0.179-0.338c0.09-0.074,0.203-0.115,0.319-0.115c0.15,0,0.291,0.066,0.385,0.182c0.769,0.93,1.227,2.106,1.288,3.311
		l0,1.985h0.674c0.276,0,0.5,0.224,0.5,0.5s-0.224,0.5-0.5,0.5H20.164z"/>
	<path d="M19.577,7.62c-0.407,0-0.741-0.329-0.75-0.735c0-0.005,0-0.022,0-0.026c0.003-0.196,0.079-0.379,0.217-0.517
		c0.14-0.142,0.328-0.22,0.528-0.221c0,0,0.003,0,0.004,0c0.413,0,0.749,0.334,0.751,0.745c0,0.001,0,0.004,0,0.005
		C20.327,7.284,19.991,7.62,19.577,7.62z"/>
</g>
</svg>
