<?xml version="1.0" encoding="utf-8"?>
<!-- Generator: Adobe Illustrator 22.1.0, SVG Export Plug-In . SVG Version: 6.00 Build 0)  -->
<svg version="1.1" id="Light" xmlns="http://www.w3.org/2000/svg" xmlns:xlink="http://www.w3.org/1999/xlink" x="0px" y="0px"
	 viewBox="0 0 24 24" style="enable-background:new 0 0 24 24;" xml:space="preserve">
<g>
	<title>platypus</title>
	<path d="M16.421,18.863c-0.79-0.017-1.523-0.34-2.068-0.908c-0.425-0.443-0.699-1.009-0.787-1.613
		c-1.513-0.017-2.973-0.04-3.633-0.051c-0.078,0.228-0.182,0.444-0.311,0.647c-0.153,0.24-0.34,0.458-0.552,0.644l1.063,0.213
		c0.27,0.054,0.446,0.318,0.392,0.588c-0.046,0.233-0.252,0.402-0.49,0.402c-0.034,0-0.067-0.003-0.1-0.01l-2.479-0.496
		c-1.15-0.088-2.183-0.682-2.834-1.633C3.984,15.74,3.61,14.54,3.58,13.324c-1.779-0.232-3.204-1.592-3.506-3.379
		c-0.206-1.316,0.067-2.66,0.768-3.786C1.126,5.677,1.588,5.33,2.14,5.187c0.176-0.045,0.357-0.068,0.537-0.068
		c0.378,0,0.751,0.102,1.079,0.296c0.49,0.289,0.839,0.752,0.982,1.303S4.799,7.843,4.51,8.334c-0.053,0.09-0.114,0.178-0.181,0.26
		C4.194,8.77,3.792,9.292,4.565,10.126C5.032,9.55,5.64,9.134,6.376,8.889C6.984,8.686,7.672,8.583,8.42,8.583
		c2.126,0,4.252,0.826,5.076,1.186c0.764-0.896,1.86-1.406,3.038-1.406c2.072,0,3.786,1.577,3.978,3.622
		c0.679,0.202,1.37,0.329,2.058,0.379l0.931-0.001c0.272,0,0.496,0.221,0.5,0.493c0.004,0.325-0.01,1.981-0.692,2.673
		c-0.216,0.219-0.483,0.334-0.775,0.334c-0.026,0-0.051-0.002-0.076-0.006c-1.036-0.161-2.087-0.4-3.125-0.713
		c-0.759,0.703-1.733,1.134-2.759,1.217l-0.06,0.001c-0.57,0-1.238-0.004-1.931-0.01c0.077,0.341,0.244,0.652,0.492,0.911
		c0.36,0.376,0.845,0.589,1.365,0.6h0.082c0.293,0.009,0.507,0.219,0.513,0.49c0.003,0.134-0.047,0.26-0.139,0.357
		c-0.093,0.096-0.217,0.151-0.35,0.154l-0.063,0L16.421,18.863z M8.401,9.587c-0.634,0-1.209,0.084-1.708,0.251
		c-1.177,0.392-1.687,1.275-1.908,1.946c-0.443,1.347-0.172,3.111,0.659,4.292c0.478,0.697,1.228,1.133,2.065,1.204l0.013-0.003
		c0.525-0.116,0.97-0.427,1.258-0.878s0.382-0.985,0.267-1.507c-0.215-1.077-0.916-1.108-0.995-1.108c0,0-0.001,0-0.001,0
		c-0.282,0-0.504-0.215-0.515-0.478c-0.006-0.133,0.041-0.261,0.131-0.36c0.09-0.098,0.214-0.156,0.347-0.161c0,0,0.001,0,0.001,0
		c0.187,0,1.642,0.057,2.01,1.901c0.044,0.198,0.067,0.402,0.07,0.607c1.272,0.021,4.473,0.07,6.439,0.07
		c0.589-0.049,1.18-0.262,1.69-0.608c-0.101-0.08-0.168-0.197-0.185-0.329c-0.024-0.189,0.06-0.372,0.218-0.479
		c0.417-0.279,1.278-1.032,1.278-1.584c0-1.654-1.346-3-3-3s-3,1.346-3,3c0,0.276-0.224,0.5-0.5,0.5s-0.5-0.224-0.5-0.5
		c0-0.602,0.139-1.199,0.403-1.742C12.118,10.281,10.217,9.587,8.401,9.587z M19.559,14.169c0.98,0.298,1.992,0.533,2.995,0.691
		c0.01-0.004,0.023-0.012,0.044-0.033c0.188-0.191,0.337-0.762,0.387-1.464h-0.45c-0.734-0.052-1.445-0.174-2.13-0.364
		C20.227,13.445,19.892,13.848,19.559,14.169z M2.675,6.119c-0.096,0-0.192,0.012-0.286,0.036C2.097,6.231,1.851,6.417,1.698,6.677
		c-0.58,0.932-0.805,2.034-0.637,3.108c0.223,1.321,1.267,2.336,2.578,2.538c0.043-0.302,0.109-0.587,0.196-0.852
		c0.051-0.155,0.113-0.309,0.19-0.474c-1.498-1.431-0.752-2.67-0.48-3.024C3.587,7.921,3.62,7.875,3.648,7.826
		c0.154-0.261,0.196-0.565,0.121-0.858C3.694,6.676,3.508,6.43,3.248,6.276C3.073,6.173,2.875,6.119,2.675,6.119z"/>
	<path d="M16.784,12.863c-0.414,0-0.75-0.336-0.75-0.75c0-0.414,0.336-0.75,0.75-0.75s0.75,0.336,0.75,0.75
		C17.534,12.527,17.198,12.863,16.784,12.863z"/>
</g>
</svg>
