<?xml version="1.0" encoding="utf-8"?>
<!-- Generator: Adobe Illustrator 22.1.0, SVG Export Plug-In . SVG Version: 6.00 Build 0)  -->
<svg version="1.1" id="Light" xmlns="http://www.w3.org/2000/svg" xmlns:xlink="http://www.w3.org/1999/xlink" x="0px" y="0px"
	 viewBox="0 0 24 24" style="enable-background:new 0 0 24 24;" xml:space="preserve">
<g>
	<title>raccoon</title>
	<path d="M15.5,24c-0.276,0-0.5-0.224-0.5-0.5v-2.682C14.412,20.939,13.798,21,13.171,21c-1.988,0-3.839-0.601-5.093-1.135
		C7.414,20.589,6.485,21,5.5,21H4v2.5C4,23.776,3.776,24,3.5,24S3,23.776,3,23.5V17c0.002-0.175,0.01-0.354,0.026-0.536
		C1.309,16.231,0,14.757,0,13V3.5C0,1.57,1.57,0,3.5,0C5.403,0.063,6.936,1.593,7,3.483c0,1.275-0.587,2.843-1.161,4.209
		c-0.181,0.43-0.366,0.854-0.547,1.265c-0.638,1.454-1.512,3.445-1.189,3.928c0.036,0.054,0.119,0.083,0.206,0.098
		C5.628,11.132,7.743,10.02,9.995,10c1.399,0.048,2.753,0.336,4.037,0.856c0.097-0.68,0.393-1.23,0.835-1.538
		c0.295-0.205,0.677-0.314,1.102-0.314c0.984,0,2.129,0.58,2.664,1.35c0.141,0.187,0.247,0.409,0.307,0.647c0.02,0,0.097,0,0.116,0
		c0.062-0.239,0.17-0.465,0.318-0.662c0.433-0.626,1.272-1.137,2.132-1.292C21.68,9.016,21.85,9,22.013,9
		c0.432,0,0.818,0.11,1.117,0.318c0.51,0.354,0.825,1.032,0.865,1.858c0.036,0.747-0.161,1.507-0.527,2.033
		c-0.059,0.089-0.129,0.176-0.208,0.258C23.925,14.701,24,15.988,24,16.5c0,0.15-0.067,0.291-0.183,0.386
		C23.728,16.96,23.615,17,23.5,17l0,0c-0.032,0-0.065-0.003-0.098-0.01c-0.128-0.026-0.253-0.039-0.371-0.039
		c-0.906,0-1.46,0.752-2.045,1.548C20.443,19.238,19.883,20,19,20c-0.373,0-0.722-0.139-1.063-0.424
		c-0.604,0.413-1.254,0.739-1.937,0.972V23.5C16,23.776,15.776,24,15.5,24z M5.5,20C6.878,20,8,18.878,8,17.5
		C8,17.224,8.224,17,8.5,17S9,17.224,9,17.5c0,0.525-0.121,1.045-0.351,1.52c1.139,0.469,2.777,0.977,4.514,0.977
		c1.531,0,2.907-0.394,4.094-1.17c-0.08-0.105-0.16-0.214-0.241-0.324c-0.588-0.799-1.141-1.552-2.048-1.552
		c-0.118,0-0.243,0.013-0.371,0.039C14.566,16.997,14.533,17,14.5,17c-0.115,0-0.227-0.04-0.317-0.113
		C14.067,16.791,14,16.65,14,16.5c0-0.512,0.074-1.801,0.74-3.037c-0.085-0.086-0.156-0.172-0.217-0.264
		c-0.231-0.331-0.398-0.772-0.476-1.251C12.76,11.369,11.395,11.05,9.988,11C6.714,11.032,4.029,13.724,4,17.004V20H5.5z
		 M15.029,15.951c1.372,0.027,2.158,1.096,2.791,1.957C18.252,18.495,18.623,19,19,19s0.748-0.505,1.178-1.09
		c0.638-0.868,1.422-1.935,2.792-1.959C22.856,14.88,22.247,12,19,12C15.753,12,15.143,14.881,15.029,15.951z M1,13
		c0,1.27,0.943,2.321,2.183,2.477c0.13-0.561,0.329-1.103,0.594-1.617c-0.213-0.094-0.382-0.234-0.506-0.418
		C2.863,12.83,3.064,11.893,3.372,11H1V13z M15.974,10.003c-0.223,0-0.408,0.047-0.536,0.135c-0.246,0.171-0.414,0.587-0.438,1.085
		c-0.025,0.508,0.099,1.031,0.324,1.377c0.663-0.783,1.551-1.295,2.594-1.499c-0.026-0.058-0.059-0.112-0.096-0.163
		C17.455,10.411,16.645,10.003,15.974,10.003z M20.08,11.102c1.043,0.203,1.93,0.715,2.594,1.497
		c0.225-0.351,0.348-0.871,0.324-1.376c-0.024-0.498-0.192-0.914-0.438-1.085c-0.131-0.091-0.318-0.139-0.542-0.139
		c-0.104,0-0.216,0.011-0.332,0.031c-0.593,0.107-1.209,0.474-1.499,0.893C20.143,10.981,20.108,11.04,20.08,11.102z M3.754,10
		c0.195-0.474,0.42-0.987,0.621-1.445C4.456,8.372,4.537,8.187,4.618,8H1v2H3.754z M5.043,7c0.326-0.794,0.556-1.441,0.711-2H1v2
		H5.043z M5.964,4C5.988,3.817,6,3.652,6,3.5C5.954,2.149,4.851,1.048,3.487,1C2.115,1.002,1,2.123,1,3.5V4H5.964z"/>
	<path d="M17.5,15.5c-0.276,0-0.5-0.224-0.5-0.5s0.224-0.5,0.5-0.5h3c0.276,0,0.5,0.224,0.5,0.5s-0.224,0.5-0.5,0.5H17.5z"/>
</g>
</svg>
