<?xml version="1.0" encoding="utf-8"?>
<!-- Generator: Adobe Illustrator 22.1.0, SVG Export Plug-In . SVG Version: 6.00 Build 0)  -->
<svg version="1.1" id="Layer_1" xmlns="http://www.w3.org/2000/svg" xmlns:xlink="http://www.w3.org/1999/xlink" x="0px" y="0px"
	 viewBox="0 0 24 24" style="enable-background:new 0 0 24 24;" xml:space="preserve">
<g>
	<title>maze-strategy</title>
	<path d="M14.5,23c-0.276,0-0.5-0.224-0.5-0.5s0.224-0.5,0.5-0.5H17v-8.5c0-0.276,0.224-0.5,0.5-0.5h2c0.276,0,0.5,0.224,0.5,0.5
		S19.776,14,19.5,14H18v8h3.5c0.276,0,0.5-0.224,0.5-0.5V20h-1.5c-0.276,0-0.5-0.224-0.5-0.5s0.224-0.5,0.5-0.5H22v-2h-1.5
		c-0.276,0-0.5-0.224-0.5-0.5s0.224-0.5,0.5-0.5H22v-5h-8v1.5c0,0.276-0.224,0.5-0.5,0.5S13,12.776,13,12.5v-2
		c0-0.276,0.224-0.5,0.5-0.5H16V5.5C16,5.224,16.224,5,16.5,5h3C19.776,5,20,5.224,20,5.5v2C20,7.776,19.776,8,19.5,8
		S19,7.776,19,7.5V6h-2v4h5V2.5C22,2.224,21.776,2,21.5,2h-3C18.224,2,18,1.776,18,1.5S18.224,1,18.5,1h3C22.327,1,23,1.673,23,2.5
		v19c0,0.827-0.673,1.5-1.5,1.5H14.5z"/>
	<path d="M11.5,24c-0.276,0-0.5-0.224-0.5-0.5V19H7.5C7.224,19,7,18.776,7,18.5v-6C7,12.224,7.224,12,7.5,12H10V7.5
		C10,7.224,10.224,7,10.5,7H13V1.707l-2.146,2.146C10.759,3.948,10.634,4,10.5,4s-0.259-0.052-0.354-0.146
		c-0.195-0.195-0.195-0.512,0-0.707l3-3c0.046-0.047,0.101-0.083,0.162-0.108C13.369,0.013,13.434,0,13.5,0
		c0.067,0,0.132,0.013,0.194,0.039c0.057,0.024,0.109,0.058,0.154,0.102c0.002,0.002,2.976,3.007,2.976,3.007
		c0.194,0.196,0.192,0.513-0.004,0.707C16.727,3.949,16.602,4,16.469,4c-0.135,0-0.261-0.053-0.355-0.148L14,1.716V7.5
		C14,7.776,13.776,8,13.5,8H11v4.5c0,0.276-0.224,0.5-0.5,0.5H8v5h3.5c0.276,0,0.5,0.224,0.5,0.5v5C12,23.776,11.776,24,11.5,24z"/>
	<path d="M14.5,20c-0.276,0-0.5-0.224-0.5-0.5V16H9.5C9.224,16,9,15.776,9,15.5S9.224,15,9.5,15h5c0.276,0,0.5,0.224,0.5,0.5v4
		C15,19.776,14.776,20,14.5,20z"/>
	<path d="M2.5,23C1.673,23,1,22.327,1,21.5v-19C1,1.673,1.673,1,2.5,1h6C8.776,1,9,1.224,9,1.5S8.776,2,8.5,2H5v4.5
		C5,6.776,4.776,7,4.5,7S4,6.776,4,6.5V2H2.5C2.224,2,2,2.224,2,2.5V9h5V5.5C7,5.224,7.224,5,7.5,5S8,5.224,8,5.5v4
		C8,9.776,7.776,10,7.5,10H2v11.5C2,21.776,2.224,22,2.5,22H8v-1H4.5C4.224,21,4,20.776,4,20.5v-8C4,12.224,4.224,12,4.5,12
		S5,12.224,5,12.5V20h3.5C8.776,20,9,20.224,9,20.5v2C9,22.776,8.776,23,8.5,23H2.5z"/>
</g>
</svg>
