<?xml version="1.0" encoding="utf-8"?>
<!-- Generator: Adobe Illustrator 22.1.0, SVG Export Plug-In . SVG Version: 6.00 Build 0)  -->
<svg version="1.1" id="Layer_1" xmlns="http://www.w3.org/2000/svg" xmlns:xlink="http://www.w3.org/1999/xlink" x="0px" y="0px"
	 viewBox="0 0 24 24" style="enable-background:new 0 0 24 24;" xml:space="preserve">
<g>
	<title>maze-strategy-1</title>
	<path d="M2.5,23.001c-0.827,0-1.5-0.673-1.5-1.5v-19c0-0.827,0.673-1.5,1.5-1.5h6c0.276,0,0.5,0.224,0.5,0.5s-0.224,0.5-0.5,0.5H7
		v4.5c0,0.276-0.224,0.5-0.5,0.5h-2c-0.276,0-0.5-0.224-0.5-0.5s0.224-0.5,0.5-0.5H6v-4H2.5c-0.276,0-0.5,0.224-0.5,0.5v7.5h4.5
		c0.276,0,0.5,0.224,0.5,0.5v5c0,0.276-0.224,0.5-0.5,0.5S6,15.776,6,15.501v-4.5H2v10.5c0,0.276,0.224,0.5,0.5,0.5H4v-4.5
		c0-0.276,0.224-0.5,0.5-0.5s0.5,0.224,0.5,0.5v4.5h4c0.276,0,0.5,0.224,0.5,0.5s-0.224,0.5-0.5,0.5H2.5z"/>
	<path d="M15,23.001c-0.276,0-0.5-0.224-0.5-0.5s0.224-0.5,0.5-0.5h4v-8.5c0-0.276,0.224-0.5,0.5-0.5s0.5,0.224,0.5,0.5v8.5h1.5
		c0.276,0,0.5-0.224,0.5-0.5v-10.5h-5v4.5c0,0.276-0.224,0.5-0.5,0.5h-3c-0.276,0-0.5-0.224-0.5-0.5s0.224-0.5,0.5-0.5H16v-4h-3.5
		c-0.276,0-0.5-0.224-0.5-0.5s0.224-0.5,0.5-0.5H22v-3h-4c-0.276,0-0.5-0.224-0.5-0.5s0.224-0.5,0.5-0.5h4v-3.5
		c0-0.276-0.224-0.5-0.5-0.5h-4c-0.276,0-0.5-0.224-0.5-0.5s0.224-0.5,0.5-0.5h4c0.827,0,1.5,0.673,1.5,1.5v19
		c0,0.827-0.673,1.5-1.5,1.5H15z"/>
	<path d="M12.5,24.001c-0.276,0-0.5-0.224-0.5-0.5v-4.5H9.5c-0.276,0-0.5-0.224-0.5-0.5v-11c0-0.276,0.224-0.5,0.5-0.5H13V1.708
		l-1.646,1.646C11.259,3.449,11.134,3.501,11,3.501s-0.259-0.052-0.354-0.146c-0.195-0.195-0.195-0.512,0-0.707l2.5-2.5
		c0.047-0.047,0.102-0.083,0.163-0.109c0.061-0.025,0.125-0.038,0.191-0.038s0.13,0.013,0.191,0.038
		c0.061,0.025,0.116,0.062,0.163,0.108l2.5,2.5c0.195,0.195,0.195,0.512,0,0.707C16.259,3.449,16.134,3.501,16,3.501
		s-0.259-0.052-0.354-0.146L14,1.708v5.793c0,0.276-0.224,0.5-0.5,0.5H10v10h2.5c0.276,0,0.5,0.224,0.5,0.5v5
		C13,23.776,12.776,24.001,12.5,24.001z"/>
</g>
</svg>
