<?xml version="1.0" encoding="utf-8"?>
<!-- Generator: Adobe Illustrator 22.1.0, SVG Export Plug-In . SVG Version: 6.00 Build 0)  -->
<svg version="1.1" id="Layer_1" xmlns="http://www.w3.org/2000/svg" xmlns:xlink="http://www.w3.org/1999/xlink" x="0px" y="0px"
	 viewBox="0 0 24 24" style="enable-background:new 0 0 24 24;" xml:space="preserve">
<g>
	<title>target-correct</title>
	<path d="M9.5,17c-1.469,0-2.85-0.573-3.889-1.612s-1.61-2.42-1.61-3.89C4.002,8.467,6.469,6,9.501,6c1.294,0,2.534,0.45,3.52,1.272
		L14,6.293V3.914c0-0.401,0.156-0.777,0.439-1.06l2.707-2.707C17.242,0.052,17.367,0,17.5,0c0.066,0,0.13,0.013,0.192,0.038
		C17.879,0.116,18,0.297,18,0.5V3h2.5c0.203,0,0.385,0.121,0.462,0.309c0.078,0.187,0.035,0.401-0.108,0.545l-2.707,2.707
		C17.863,6.844,17.487,7,17.086,7h-2.379l-0.98,0.98c0.461,0.554,0.804,1.182,1.021,1.87c0.04,0.127,0.028,0.263-0.034,0.381
		c-0.062,0.118-0.166,0.206-0.293,0.246c-0.049,0.015-0.099,0.023-0.15,0.023c-0.219,0-0.411-0.141-0.477-0.35
		c-0.168-0.534-0.429-1.024-0.778-1.46l-3.163,3.163C9.759,11.948,9.634,12,9.5,12s-0.259-0.052-0.354-0.146
		c-0.195-0.195-0.195-0.512,0-0.707l3.164-3.164C11.517,7.347,10.529,7,9.502,7c-2.482,0-4.5,2.018-4.501,4.499
		c0,1.202,0.467,2.332,1.317,3.182C7.169,15.531,8.299,16,9.5,16c0.276,0,0.5,0.224,0.5,0.5S9.776,17,9.5,17C9.5,17,9.5,17,9.5,17z
		 M17.086,6c0.132,0,0.26-0.053,0.354-0.146L19.293,4H17.5C17.225,4,17,3.776,17,3.5V1.707l-1.854,1.854
		C15.052,3.655,15,3.781,15,3.914V6H17.086z"/>
	<path d="M9.5,21c-2.538-0.001-4.923-0.991-6.716-2.787c-1.793-1.796-2.78-4.182-2.778-6.719c0.002-2.538,0.991-4.923,2.787-6.716
		C4.587,2.987,6.971,2,9.506,2c1.069,0.001,2.118,0.178,3.123,0.528c0.26,0.091,0.398,0.376,0.308,0.637
		C12.866,3.365,12.677,3.5,12.464,3.5c-0.056,0-0.112-0.009-0.165-0.028C11.401,3.159,10.463,3.001,9.512,3
		C7.238,3,5.105,3.883,3.5,5.486C1.893,7.09,1.008,9.224,1.006,11.494s0.881,4.406,2.486,6.012C5.096,19.113,7.23,19.999,9.5,20
		c0.134,0,0.259,0.052,0.354,0.147C9.948,20.241,10,20.367,10,20.5C10,20.776,9.776,21,9.5,21L9.5,21z"/>
	<path d="M17.5,24c-3.584,0-6.5-2.916-6.5-6.5s2.916-6.5,6.5-6.5s6.5,2.916,6.5,6.5S21.084,24,17.5,24z M17.5,12
		c-3.033,0-5.5,2.467-5.5,5.5s2.467,5.5,5.5,5.5s5.5-2.467,5.5-5.5S20.533,12,17.5,12z"/>
	<path d="M16.667,20.428c-0.273,0-0.533-0.087-0.751-0.251c-0.047-0.035-0.09-0.073-0.131-0.114l-1.5-1.5
		c-0.094-0.094-0.146-0.22-0.146-0.354s0.052-0.259,0.146-0.354s0.22-0.146,0.354-0.146s0.259,0.052,0.354,0.146l1.5,1.5
		c0.008,0.008,0.017,0.016,0.027,0.023c0.043,0.032,0.094,0.05,0.148,0.05c0.012,0,0.024-0.001,0.036-0.003
		c0.067-0.01,0.126-0.044,0.167-0.098l2.905-3.872c0.093-0.125,0.243-0.2,0.4-0.2c0.109,0,0.212,0.035,0.3,0.1
		c0.107,0.08,0.177,0.197,0.196,0.33c0.019,0.132-0.015,0.264-0.095,0.371l-2.905,3.872C17.434,20.242,17.059,20.428,16.667,20.428z
		"/>
</g>
</svg>
