<?xml version="1.0" encoding="utf-8"?>
<!-- Generator: Adobe Illustrator 22.1.0, SVG Export Plug-In . SVG Version: 6.00 Build 0)  -->
<svg version="1.1" id="Layer_1" xmlns="http://www.w3.org/2000/svg" xmlns:xlink="http://www.w3.org/1999/xlink" x="0px" y="0px"
	 viewBox="0 0 24 24" style="enable-background:new 0 0 24 24;" xml:space="preserve">
<g>
	<title>target-center-phone</title>
	<circle cx="9.75" cy="21.5" r="0.75"/>
	<path d="M5.25,24c-1.379,0-2.5-1.122-2.5-2.5v-19c0-1.379,1.121-2.5,2.5-2.5h6.618c0.229,0,0.461,0.014,0.69,0.04
		c0.133,0.015,0.251,0.082,0.334,0.186c0.083,0.105,0.12,0.236,0.104,0.369c-0.029,0.252-0.242,0.442-0.494,0.442
		c-0.021,0-0.041-0.001-0.062-0.004C12.252,1.011,12.059,1,11.868,1H5.25c-0.827,0-1.5,0.673-1.5,1.5V4h8.75
		C12.776,4,13,4.224,13,4.5S12.776,5,12.5,5H3.75v14h12v-8.5c0-0.276,0.224-0.5,0.5-0.5c0.276,0,0.5,0.224,0.5,0.5v11
		c0,1.378-1.122,2.5-2.5,2.5H5.25z M3.75,21.5c0,0.827,0.673,1.5,1.5,1.5h9c0.827,0,1.5-0.673,1.5-1.5V20h-12V21.5z"/>
	<path d="M8.25,3c-0.276,0-0.5-0.224-0.5-0.5S7.975,2,8.25,2h3c0.276,0,0.5,0.224,0.5,0.5S11.526,3,11.25,3H8.25z"/>
	<path d="M9.75,16c-2.206,0-4-1.794-4-4s1.794-4,4-4c0.887,0,1.748,0.298,2.449,0.844l1.551-1.551V4.828
		c0-0.668,0.26-1.295,0.732-1.768l2.414-2.414C16.991,0.552,17.117,0.5,17.25,0.5c0.066,0,0.13,0.013,0.191,0.038
		C17.629,0.616,17.75,0.797,17.75,1v3h3c0.203,0,0.385,0.121,0.462,0.309c0.078,0.187,0.035,0.401-0.108,0.545L18.69,7.267
		C18.218,7.74,17.59,8,16.923,8h-2.465l-1.551,1.551c0.546,0.701,0.844,1.562,0.844,2.449C13.75,14.206,11.956,16,9.75,16z M9.75,9
		c-1.654,0-3,1.346-3,3c0,1.654,1.346,3,3,3s3-1.346,3-3c0-0.622-0.196-1.229-0.557-1.736l-2.089,2.089
		C10.01,12.448,9.884,12.5,9.75,12.5s-0.259-0.052-0.354-0.146S9.25,12.134,9.25,12s0.052-0.259,0.146-0.354l2.089-2.089
		C10.98,9.196,10.373,9,9.75,9z M16.923,7c0.4,0,0.777-0.156,1.06-0.44L19.543,5H17.25c-0.276,0-0.5-0.224-0.5-0.5V2.207
		l-1.561,1.56c-0.283,0.284-0.439,0.66-0.439,1.061V7H16.923z"/>
</g>
</svg>
