<?xml version="1.0" encoding="utf-8"?>
<!-- Generator: Adobe Illustrator 22.1.0, SVG Export Plug-In . SVG Version: 6.00 Build 0)  -->
<svg version="1.1" id="Layer_1" xmlns="http://www.w3.org/2000/svg" xmlns:xlink="http://www.w3.org/1999/xlink" x="0px" y="0px"
	 viewBox="0 0 24 24" style="enable-background:new 0 0 24 24;" xml:space="preserve">
<g>
	<title>target-center-1</title>
	<path d="M17.501,24c-0.134,0-0.259-0.052-0.354-0.146l-2.151-2.15C13.342,23.186,11.222,24,9.001,24s-4.341-0.814-5.996-2.297
		l-2.15,2.15C0.76,23.948,0.634,24,0.501,24s-0.259-0.052-0.354-0.146c-0.195-0.195-0.195-0.512,0-0.707l2.15-2.15
		C0.815,19.341,0.001,17.221,0.001,15c0-4.963,4.037-9,9-9c2.221,0,4.34,0.814,5.995,2.296l1.31-1.31
		c-0.833-0.97-1.138-1.956-0.907-2.933c0.603-2.555,4.766-3.969,4.943-4.028C20.393,0.008,20.446,0,20.5,0
		c0.106,0,0.207,0.033,0.292,0.095C20.922,0.188,21,0.34,21,0.5V3h2.5c0.16,0,0.312,0.078,0.406,0.208
		c0.094,0.131,0.12,0.299,0.069,0.451c-0.059,0.176-1.472,4.339-4.028,4.942c-0.208,0.049-0.42,0.074-0.63,0.074
		c-0.766,0-1.539-0.331-2.301-0.983l-1.312,1.312c1.483,1.655,2.297,3.775,2.297,5.997c0,2.221-0.814,4.341-2.297,5.996l2.15,2.15
		c0.195,0.195,0.195,0.512,0,0.707C17.76,23.948,17.634,24,17.501,24z M9.001,7c-4.411,0-8,3.589-8,8c0,4.411,3.589,8,8,8
		s8-3.589,8-8c0-1.956-0.71-3.823-2.005-5.289l-1.416,1.416c0.918,1.084,1.421,2.45,1.421,3.873c0,3.308-2.692,6-6,6s-6-2.692-6-6
		c0-3.308,2.692-6,6-6c1.423,0,2.788,0.503,3.872,1.42l1.416-1.416C12.823,7.71,10.956,7,9.001,7z M9.001,10c-2.757,0-5,2.243-5,5
		c0,2.757,2.243,5,5,5c2.757,0,5-2.243,5-5c0-1.153-0.401-2.264-1.135-3.159l-1.422,1.422c0.36,0.506,0.556,1.115,0.556,1.737
		c0,1.654-1.346,3-3,3s-3-1.346-3-3s1.346-3,3-3c0.623,0,1.231,0.196,1.737,0.556l1.421-1.422C11.264,10.401,10.153,10,9.001,10z
		 M9.001,13c-1.103,0-2,0.897-2,2s0.897,2,2,2s2-0.897,2-2c0-0.362-0.095-0.708-0.278-1.015l-0.974,0.974
		C9.749,14.973,9.75,14.986,9.75,15c0,0.414-0.336,0.75-0.75,0.75S8.25,15.413,8.25,15S8.586,14.25,9,14.25
		c0.014,0,0.028,0,0.042,0.001l0.973-0.973C9.709,13.095,9.363,13,9.001,13z M17.725,6.981c0.554,0.46,1.092,0.692,1.601,0.692
		c0.13,0,0.261-0.015,0.389-0.046C21.21,7.275,22.314,5.069,22.769,4h-2.063L17.725,6.981z M18.001,2.311
		c-0.913,0.635-1.473,1.312-1.629,1.973c-0.148,0.626,0.07,1.294,0.646,1.99l0.982-0.983V2.311z M19.001,4.291L20,3.292V1.231
		c-0.271,0.115-0.622,0.276-0.999,0.475V4.291z"/>
</g>
</svg>
