<?xml version="1.0" encoding="utf-8"?>
<!-- Generator: Adobe Illustrator 22.1.0, SVG Export Plug-In . SVG Version: 6.00 Build 0)  -->
<svg version="1.1" id="Light" xmlns="http://www.w3.org/2000/svg" xmlns:xlink="http://www.w3.org/1999/xlink" x="0px" y="0px"
	 viewBox="0 0 24 24" style="enable-background:new 0 0 24 24;" xml:space="preserve">
<g>
	<title>waiting-room-read</title>
	<path d="M4.5,9C2.019,9,0,6.981,0,4.5S2.019,0,4.5,0S9,2.019,9,4.5S6.981,9,4.5,9z M4.5,1C2.57,1,1,2.57,1,4.5S2.57,8,4.5,8
		S8,6.43,8,4.5S6.43,1,4.5,1z"/>
	<path d="M6,6.5c-0.134,0-0.259-0.052-0.354-0.146l-1.5-1.5C4.052,4.759,4,4.634,4,4.5v-2C4,2.224,4.224,2,4.5,2S5,2.224,5,2.5
		v1.793l1.354,1.354C6.448,5.741,6.5,5.866,6.5,6S6.448,6.259,6.354,6.354S6.134,6.5,6,6.5z"/>
	<path d="M15.5,24c-0.048,0-0.096-0.007-0.145-0.022c-0.006-0.001-0.012-0.003-0.018-0.005L8.664,21.59
		C8.267,21.448,8,21.07,8,20.648v-1.919C7.388,18.374,7,17.711,7,17s0.388-1.374,1-1.729v-2.062c0-0.552,0.448-1,1-1
		c0.115,0,0.229,0.02,0.337,0.058l1.25,0.447C10.943,11.124,12.333,10,13.998,10H17c1.667,0,3.056,1.124,3.414,2.714l1.25-0.447
		c0.107-0.039,0.22-0.058,0.336-0.058c0.552,0,1,0.448,1,1v2.062c0.612,0.355,1,1.018,1,1.729s-0.388,1.374-1,1.729v1.919
		c0,0.421-0.267,0.8-0.664,0.942l-6.668,2.381c-0.01,0.004-0.021,0.007-0.032,0.009C15.586,23.994,15.543,24,15.5,24z M16,22.791
		l6-2.142V19h-1c-0.552,0-1-0.448-1-1v-2c0-0.552,0.448-1,1-1h1v-1.791l-0.006,0.001c0.002,0,0.004,0,0.006-0.001l-6,2.143V22.791z
		 M9,20.648l6,2.143v-7.438l-6-2.144L9,15h1c0.551,0,1,0.448,1,1v2c0,0.552-0.449,1-1,1L9,20.648z M21,18h1c0.552,0,1-0.448,1-1
		s-0.448-1-1-1h-1L21,18z M9,16c-0.551,0-1,0.448-1,1s0.449,1,1,1h1v-2H9z M15.5,14.469l3.959-1.415
		C19.249,11.87,18.225,11,17.002,11h-3.004c-1.223,0-2.248,0.871-2.458,2.055L15.5,14.469z"/>
	<path d="M15.5,9c-1.654,0-3-1.346-3-3s1.346-3,3-3s3,1.346,3,3S17.154,9,15.5,9z M15.5,4c-1.103,0-2,0.897-2,2s0.897,2,2,2
		s2-0.897,2-2S16.603,4,15.5,4z"/>
</g>
</svg>
