<?xml version="1.0" encoding="utf-8"?>
<!-- Generator: Adobe Illustrator 22.1.0, SVG Export Plug-In . SVG Version: 6.00 Build 0)  -->
<svg version="1.1" id="Light" xmlns="http://www.w3.org/2000/svg" xmlns:xlink="http://www.w3.org/1999/xlink" x="0px" y="0px"
	 viewBox="0 0 24 24" style="enable-background:new 0 0 24 24;" xml:space="preserve">
<g>
	<title>waiting-room-clock</title>
	<path d="M6,7C4.346,7,3,5.654,3,4s1.346-3,3-3s3,1.346,3,3S7.654,7,6,7z M6,2C4.897,2,4,2.897,4,4s0.897,2,2,2s2-0.897,2-2
		S7.103,2,6,2z"/>
	<path d="M15.498,24c-1.032-0.001-1.906-0.807-1.991-1.834l-0.271-3.249c-0.046-0.519-0.476-0.914-1-0.917H9.352
		c-2.05-0.009-3.76-1.552-3.978-3.589l-0.839-4.039C4.436,9.84,4.549,9.307,4.852,8.866c0.303-0.441,0.759-0.737,1.284-0.834
		c0.12-0.022,0.244-0.034,0.365-0.034c0.963,0,1.79,0.689,1.965,1.638l0.856,4.144c0.015,0.087,0.024,0.149,0.029,0.223l2.888-0.003
		c2.61,0.014,4.752,1.984,4.983,4.582l0.275,3.252c0.046,0.531-0.117,1.049-0.461,1.458s-0.826,0.66-1.359,0.706
		C15.67,23.998,15.637,24,15.624,24H15.498z M12.239,17c1.044,0.006,1.9,0.792,1.993,1.831l0.271,3.252
		C14.546,22.596,14.983,23,15.499,23h0.115c0.527-0.05,0.936-0.536,0.889-1.082l-0.275-3.251c-0.185-2.08-1.901-3.657-3.99-3.668
		H9.353c-0.523,0-0.959-0.406-0.999-0.924C8.351,14.033,8.346,14,8.34,13.963L7.485,9.827C7.396,9.344,6.982,8.998,6.5,8.998
		c-0.061,0-0.122,0.006-0.182,0.017C6.055,9.063,5.827,9.211,5.675,9.431c-0.151,0.22-0.208,0.486-0.16,0.749l0.845,4.076
		c0.17,1.568,1.455,2.737,2.994,2.744H12.239z"/>
	<path d="M0.5,24C0.224,24,0,23.776,0,23.5S0.224,23,0.5,23h10.367c0.02,0,0.041-0.001,0.061-0.004
		c0.134-0.017,0.253-0.084,0.334-0.189c0.082-0.105,0.118-0.237,0.102-0.369l-0.25-2C11.083,20.188,10.869,20,10.618,20H7.746
		c-2.118,0-3.97-1.503-4.406-3.573l-1.152-5.039C2.135,11.16,1.935,11,1.7,11H0.5C0.224,11,0,10.776,0,10.5S0.224,10,0.5,10h1.2
		c0.704,0,1.306,0.479,1.462,1.166l1.154,5.047C4.657,17.83,6.098,19,7.743,19h2.875c0.755,0,1.395,0.565,1.488,1.314l0.25,2
		c0.05,0.397-0.059,0.791-0.304,1.107c-0.246,0.316-0.601,0.518-0.998,0.567C10.994,23.996,10.93,24,10.867,24H0.5z"/>
	<path d="M19.5,9C17.019,9,15,6.981,15,4.5S17.019,0,19.5,0S24,2.019,24,4.5S21.981,9,19.5,9z M19.5,1C17.57,1,16,2.57,16,4.5
		S17.57,8,19.5,8S23,6.43,23,4.5S21.43,1,19.5,1z"/>
	<path d="M21,6.5c-0.134,0-0.259-0.052-0.354-0.146l-1.5-1.5C19.052,4.759,19,4.634,19,4.5v-2C19,2.224,19.224,2,19.5,2
		S20,2.224,20,2.5v1.793l1.354,1.354C21.448,5.741,21.5,5.866,21.5,6s-0.052,0.259-0.146,0.354S21.134,6.5,21,6.5z"/>
</g>
</svg>
