<?xml version="1.0" encoding="utf-8"?>
<!-- Generator: Adobe Illustrator 22.1.0, SVG Export Plug-In . SVG Version: 6.00 Build 0)  -->
<svg version="1.1" id="Light" xmlns="http://www.w3.org/2000/svg" xmlns:xlink="http://www.w3.org/1999/xlink" x="0px" y="0px"
	 viewBox="0 0 24 24" style="enable-background:new 0 0 24 24;" xml:space="preserve">
<g>
	<title>transfusion-human</title>
	<path d="M5.5,11.5c-1.792,0-3.25-1.458-3.25-3.25S3.708,5,5.5,5s3.25,1.458,3.25,3.25S7.292,11.5,5.5,11.5z M5.5,6
		C4.259,6,3.25,7.009,3.25,8.25S4.259,10.5,5.5,10.5s2.25-1.009,2.25-2.25S6.741,6,5.5,6z"/>
	<path d="M16,24c-0.276,0-0.5-0.224-0.5-0.5S15.724,23,16,23h2.5V2.5C18.5,1.673,17.827,1,17,1h-1.5v0.5c0,0.64-0.41,1.205-1,1.414
		V5H15c0.827,0,1.5,0.673,1.5,1.5v3c0,0.827-0.673,1.5-1.5,1.5h-0.5v1.5c0,2.858-2.177,5.216-5,5.471V18.5C9.5,18.776,9.276,19,9,19
		H7.877l-0.379,4.542C7.477,23.799,7.258,24,7,24H4c-0.258,0-0.477-0.201-0.498-0.458L3.123,19H2c-0.276,0-0.5-0.224-0.5-0.5v-3
		c0-2.206,1.794-4,4-4s4,1.794,4,4v1.466c2.263-0.25,4-2.164,4-4.466V11H13c-0.827,0-1.5-0.673-1.5-1.5v-3C11.5,5.673,12.173,5,13,5
		h0.5V2.914c-0.59-0.209-1-0.774-1-1.414C12.5,1.224,12.724,1,13,1s0.5,0.224,0.5,0.5S13.724,2,14,2s0.5-0.224,0.5-0.5v-1
		C14.5,0.224,14.724,0,15,0h2c1.378,0,2.5,1.121,2.5,2.5V23H22c0.276,0,0.5,0.224,0.5,0.5S22.276,24,22,24H16z M6.54,23l0.379-4.542
		C6.94,18.201,7.159,18,7.417,18H8.5v-2.5c0-1.654-1.346-3-3-3s-3,1.346-3,3V18h1.083c0.258,0,0.477,0.201,0.498,0.458L4.46,23H6.54
		z M13,6c-0.276,0-0.5,0.224-0.5,0.5v3c0,0.276,0.224,0.5,0.5,0.5h2c0.276,0,0.5-0.224,0.5-0.5V9h-2C13.224,9,13,8.776,13,8.5
		S13.224,8,13.5,8h2V6.5C15.5,6.224,15.276,6,15,6H13z"/>
</g>
</svg>
