<?xml version="1.0" encoding="utf-8"?>
<!-- Generator: Adobe Illustrator 22.1.0, SVG Export Plug-In . SVG Version: 6.00 Build 0)  -->
<svg version="1.1" id="Light" xmlns="http://www.w3.org/2000/svg" xmlns:xlink="http://www.w3.org/1999/xlink" x="0px" y="0px"
	 viewBox="0 0 24 24" style="enable-background:new 0 0 24 24;" xml:space="preserve">
<g>
	<title>transfusion-bag</title>
	<path d="M12.631,24c-2.327-0.002-4.288-1.743-4.566-4.051l-1.135-9.37C6.718,8.824,5.224,7.5,3.456,7.5H3
		C2.724,7.5,2.5,7.276,2.5,7S2.724,6.5,3,6.5h0.456c2.273,0,4.194,1.702,4.467,3.959l1.135,9.371C9.276,21.637,10.813,23,12.633,23
		c1.718,0,3.203-1.219,3.537-2.898L16.39,19H16.3c-0.717,0-1.3-0.583-1.3-1.3V17h-1v1c0.276,0,0.5,0.224,0.5,0.5S14.276,19,14,19h-1
		c-0.276,0-0.5-0.224-0.5-0.5S12.724,18,13,18v-1h-0.051c-0.42,0-0.818-0.202-1.065-0.54l-1.638-2.258
		c-0.16-0.222-0.245-0.484-0.246-0.756V3.19c0.001-0.306,0.109-0.602,0.305-0.835l1.601-1.89C12.157,0.169,12.522,0,12.91,0h8.178
		c0.39,0,0.755,0.169,1.005,0.465l1.6,1.889C23.89,2.588,23.999,2.884,24,3.189v10.255c-0.001,0.274-0.086,0.535-0.245,0.757
		l-1.638,2.258C21.868,16.798,21.47,17,21.052,17H21v1c0.276,0,0.5,0.224,0.5,0.5S21.276,19,21,19h-1c-0.276,0-0.5-0.224-0.5-0.5
		S19.724,18,20,18v-1h-1v0.7c0,0.717-0.583,1.3-1.3,1.3h-0.29l-0.26,1.298C16.724,22.443,14.826,24,12.639,24
		C12.636,24,12.634,24,12.631,24z M12.91,1c-0.093,0-0.181,0.041-0.241,0.111L11.07,3C11.025,3.053,11,3.121,11,3.191v10.253
		c0,0.062,0.02,0.121,0.057,0.172l1.636,2.255C12.751,15.952,12.847,16,12.948,16H15.5c0.276,0,0.5,0.224,0.5,0.5v1.2
		c0,0.166,0.135,0.3,0.3,0.3h1.4c0.166,0,0.3-0.135,0.3-0.3v-1.2c0-0.276,0.224-0.5,0.5-0.5h2.551c0.102,0,0.198-0.049,0.257-0.13
		l1.636-2.254C22.98,13.565,23,13.505,23,13.443V3.191c0-0.07-0.025-0.138-0.071-0.192l-1.599-1.888C21.27,1.039,21.187,1,21.097,1
		L12.91,1z"/>
	<path d="M15.326,8c-0.276,0-0.5-0.224-0.5-0.5S15.05,7,15.326,7h3.217c0.276,0,0.5,0.224,0.5,0.5S18.819,8,18.543,8H15.326z"/>
	<path d="M15.326,10c-0.276,0-0.5-0.224-0.5-0.5S15.05,9,15.326,9h3.217c0.276,0,0.5,0.224,0.5,0.5s-0.224,0.5-0.5,0.5H15.326z"/>
	<path d="M16.5,15c-0.552,0-1-0.448-1-1h-1.586c-0.401,0-0.777-0.156-1.061-0.439l-0.414-0.414C12.16,12.867,12,12.481,12,12.086
		V5.221c0-0.647,0.412-1.219,1.026-1.423l3.5-1.167C16.678,2.58,16.838,2.554,17,2.554s0.322,0.026,0.474,0.077l3.5,1.167
		C21.588,4.002,22,4.574,22,5.221v6.865c0,0.395-0.16,0.781-0.439,1.06l-0.414,0.414C20.863,13.844,20.487,14,20.086,14H18.5
		c0,0.552-0.448,1-1,1H16.5z M17,3.554c-0.054,0-0.107,0.009-0.158,0.025l-3.5,1.167C13.137,4.814,13,5.005,13,5.221v6.865
		c0,0.131,0.053,0.26,0.146,0.353l0.414,0.414C13.654,12.947,13.782,13,13.914,13H15.5c0.552,0,1,0.448,1,1h1c0-0.552,0.448-1,1-1
		h1.586c0.132,0,0.26-0.053,0.354-0.146l0.414-0.414C20.947,12.346,21,12.218,21,12.086V5.221c0-0.216-0.137-0.406-0.342-0.475
		l-3.5-1.167C17.107,3.562,17.054,3.554,17,3.554z"/>
	<path d="M3,18.5c-1.654,0-3-1.346-3-3c0-0.855,0.723-2.458,2.15-4.763c0.184-0.296,0.502-0.473,0.852-0.473
		c0.186,0,0.367,0.052,0.526,0.15c0.13,0.081,0.242,0.193,0.323,0.323C5.277,13.042,6,14.644,6,15.5C6,17.154,4.654,18.5,3,18.5z
		 M3,11.264c-1.252,2.023-2,3.607-2,4.236c0,1.103,0.897,2,2,2s2-0.897,2-2C5,14.871,4.252,13.287,3,11.264z"/>
</g>
</svg>
