<?xml version="1.0" encoding="utf-8"?>
<!-- Generator: Adobe Illustrator 22.1.0, SVG Export Plug-In . SVG Version: 6.00 Build 0)  -->
<svg version="1.1" id="Light" xmlns="http://www.w3.org/2000/svg" xmlns:xlink="http://www.w3.org/1999/xlink" x="0px" y="0px"
	 viewBox="0 0 24 24" style="enable-background:new 0 0 24 24;" xml:space="preserve">
<g>
	<title>transfusion-bag-hang</title>
	<path d="M21.5,24c-0.276,0-0.5-0.224-0.5-0.5v-19C21,2.57,19.43,1,17.5,1h-7C10.224,1,10,1.224,10,1.5v1
		c0,1.199-0.845,2.215-2,2.449V7h2.5C11.879,7,13,8.121,13,9.5v9c0,1.378-1.121,2.5-2.5,2.5H8v2.5C8,23.776,7.776,24,7.5,24
		S7,23.776,7,23.5V21H4.5C3.121,21,2,19.878,2,18.5v-9C2,8.121,3.121,7,4.5,7H7V4.949C5.845,4.715,5,3.699,5,2.5V2
		c0-0.276,0.224-0.5,0.5-0.5S6,1.724,6,2v0.5C6,3.327,6.673,4,7.5,4S9,3.327,9,2.5v-1C9,0.673,9.673,0,10.5,0h7
		C19.981,0,22,2.019,22,4.5v19C22,23.776,21.776,24,21.5,24z M3,18.5C3,19.327,3.673,20,4.5,20h6c0.827,0,1.5-0.673,1.5-1.5V11H3
		V18.5z M12,10V9.5C12,8.673,11.327,8,10.5,8h-6C3.673,8,3,8.673,3,9.5V10H12z"/>
	<path d="M7.5,18.033c-1.103,0-2-0.897-2-2c0-0.043,0.006-0.086,0.017-0.129c0.279-1.037,0.739-2.003,1.367-2.874
		c0.125-0.198,0.357-0.324,0.614-0.324c0.144,0,0.283,0.041,0.404,0.117c0.094,0.06,0.171,0.137,0.231,0.23
		c0.614,0.851,1.071,1.813,1.35,2.849C9.494,15.947,9.5,15.99,9.5,16.033C9.5,17.136,8.603,18.033,7.5,18.033z M6.502,16.094
		c0.032,0.521,0.472,0.939,0.998,0.939s0.967-0.418,0.998-0.939c-0.217-0.779-0.551-1.513-0.993-2.187
		C7.058,14.573,6.721,15.307,6.502,16.094z"/>
</g>
</svg>
