<?xml version="1.0" encoding="utf-8"?>
<!-- Generator: Adobe Illustrator 22.1.0, SVG Export Plug-In . SVG Version: 6.00 Build 0)  -->
<svg version="1.1" id="Layer_1" xmlns="http://www.w3.org/2000/svg" xmlns:xlink="http://www.w3.org/1999/xlink" x="0px" y="0px"
	 viewBox="0 0 24 24" style="enable-background:new 0 0 24 24;" xml:space="preserve">
<g>
	<title>vintage-woman-3</title>
	<path d="M8,24c-0.26,0-0.474-0.195-0.498-0.455l-0.439-4.833L3.285,20.22C1.917,20.731,1.001,22.049,1,23.501
		C1,23.776,0.776,24,0.5,24c-0.134,0-0.259-0.052-0.354-0.147C0.052,23.759,0,23.633,0,23.5c0.001-1.866,1.176-3.559,2.925-4.213
		l4.39-1.751C7.374,17.512,7.436,17.5,7.5,17.5c0.092,0,0.183,0.025,0.261,0.074c0.134,0.082,0.222,0.224,0.237,0.381l0.5,5.5
		c0.025,0.275-0.178,0.519-0.453,0.543C8.038,23.999,8.007,24,8,24z"/>
	<path d="M11.805,15.001c-0.604,0-1.186-0.223-1.638-0.628c-0.205-0.184-0.223-0.5-0.039-0.706c0.095-0.106,0.231-0.167,0.373-0.167
		c0.123,0,0.242,0.045,0.333,0.128c0.269,0.24,0.611,0.373,0.962,0.373l0.384,0c0.368,0,0.719-0.133,0.988-0.373
		c0.092-0.082,0.21-0.127,0.333-0.127c0.143,0,0.278,0.061,0.373,0.167c0.089,0.099,0.134,0.228,0.126,0.361
		c-0.008,0.133-0.066,0.256-0.166,0.345c-0.453,0.405-1.035,0.628-1.64,0.628H11.805z"/>
	<path d="M9,10.5c-0.095,0-0.188-0.027-0.269-0.078c-0.113-0.072-0.191-0.183-0.219-0.314c-0.029-0.13-0.005-0.264,0.067-0.377
		c0.293-0.46,0.793-0.734,1.337-0.734c0.028,0,0.056,0.001,0.085,0.002c0.028-0.002,0.057-0.002,0.085-0.002
		c0.543,0,1.043,0.275,1.336,0.734c0.072,0.113,0.096,0.246,0.067,0.377c-0.029,0.13-0.107,0.242-0.219,0.314
		C11.189,10.473,11.096,10.5,11,10.5c-0.172,0-0.33-0.086-0.422-0.231c-0.107-0.168-0.298-0.272-0.499-0.272
		C10.065,9.997,10.006,10,10,10c-0.013,0-0.068-0.003-0.083-0.003c-0.201,0-0.387,0.102-0.495,0.272C9.329,10.414,9.172,10.5,9,10.5
		z"/>
	<path d="M15,10.5c-0.172,0-0.33-0.086-0.422-0.231c-0.109-0.17-0.294-0.272-0.495-0.272C14.069,9.997,14.006,10,14,10
		c-0.013,0-0.066-0.003-0.081-0.003c-0.203,0-0.389,0.102-0.498,0.272C13.329,10.414,13.172,10.5,13,10.5l0,0
		c-0.095,0-0.188-0.027-0.269-0.078c-0.113-0.072-0.191-0.183-0.219-0.314c-0.029-0.13-0.005-0.264,0.067-0.377
		c0.293-0.46,0.794-0.734,1.339-0.734c0.028,0,0.055,0.001,0.083,0.002c0.027-0.001,0.055-0.002,0.082-0.002
		c0.546,0,1.047,0.274,1.34,0.734c0.072,0.113,0.095,0.246,0.067,0.377c-0.029,0.131-0.107,0.242-0.219,0.314
		C15.188,10.473,15.095,10.5,15,10.5z"/>
	<path d="M12,18c-1.588,0-4.937-1.863-5.425-4.782c-0.027-0.165-0.134-0.304-0.286-0.373c-0.126-0.057-0.246-0.131-0.361-0.222
		c-0.378,0.993-1.018,1.849-1.869,2.494c-0.013,0.01-0.026,0.019-0.041,0.028c0.691,0.545,1.55,0.841,2.421,0.841
		c0.057,0,0.114-0.001,0.171-0.004c0.004,0,0.024-0.001,0.028-0.001c0.265,0,0.482,0.21,0.493,0.479
		c0.006,0.133-0.041,0.261-0.131,0.359c-0.09,0.098-0.214,0.156-0.347,0.161c-0.07,0.003-0.141,0.005-0.212,0.005
		c-1.093,0-2.17-0.37-3.032-1.042c-0.097-0.072-0.186-0.171-0.253-0.283c-0.277-0.464-0.13-1.074,0.328-1.361
		c0.863-0.659,1.475-1.622,1.713-2.707c-0.12-0.313-0.189-0.65-0.195-0.957C4.987,9.901,5.284,9.31,5.795,9.053
		C5.864,9.019,5.941,9,6.019,9c0.19,0,0.362,0.106,0.447,0.276C6.589,9.522,6.49,9.823,6.243,9.947
		c-0.154,0.077-0.249,0.34-0.243,0.669c0.009,0.489,0.259,1.117,0.702,1.318c0.456,0.208,0.777,0.626,0.858,1.119
		C7.965,15.468,10.878,17,12,17c1.122,0,4.035-1.532,4.439-3.948c0.082-0.493,0.403-0.911,0.858-1.118
		c0.444-0.202,0.694-0.83,0.703-1.319c0.006-0.329-0.089-0.591-0.243-0.668c-0.12-0.06-0.208-0.163-0.25-0.29
		c-0.042-0.127-0.032-0.262,0.028-0.382C17.619,9.106,17.791,9,17.981,9c0.077,0,0.154,0.018,0.223,0.053
		C18.717,9.31,19.014,9.901,19,10.635c-0.006,0.301-0.072,0.631-0.187,0.938c0.234,1.094,0.849,2.064,1.736,2.74
		c0.201,0.125,0.357,0.34,0.42,0.592c0.065,0.259,0.025,0.528-0.113,0.757c-0.068,0.114-0.157,0.212-0.264,0.291
		c-0.852,0.665-1.926,1.033-3.019,1.033c-0.071,0-0.143-0.001-0.214-0.005c-0.134-0.006-0.257-0.063-0.347-0.162
		c-0.09-0.098-0.137-0.226-0.131-0.36c0.012-0.268,0.229-0.478,0.493-0.478c0.005,0,0.028,0.001,0.033,0.001
		c0.053,0.002,0.112,0.004,0.17,0.004c0.868,0,1.724-0.295,2.411-0.831c-0.006-0.018-0.021-0.028-0.034-0.039
		c-0.854-0.647-1.495-1.506-1.873-2.502c-0.117,0.094-0.241,0.171-0.37,0.229c-0.152,0.069-0.259,0.208-0.286,0.373
		C16.937,16.138,13.588,18,12,18z"/>
	<path d="M23.5,24c-0.276,0-0.5-0.224-0.5-0.5c-0.001-1.451-0.915-2.768-2.275-3.277l-3.787-1.51l-0.439,4.833
		C16.474,23.805,16.26,24,16,24c-0.008,0-0.039-0.001-0.046-0.002c-0.274-0.025-0.477-0.269-0.452-0.543l0.5-5.5
		c0.014-0.156,0.103-0.299,0.237-0.381c0.079-0.048,0.169-0.073,0.261-0.073c0.063,0,0.126,0.012,0.185,0.035l4.4,1.755
		c1.741,0.65,2.914,2.342,2.915,4.209C24,23.776,23.776,24,23.5,24z"/>
	<path d="M13.5,24c-0.216,0-0.406-0.137-0.474-0.342L12,20.581l-1.025,3.077C10.906,23.863,10.715,24,10.5,24
		c-0.054,0-0.107-0.009-0.158-0.026c-0.126-0.042-0.229-0.131-0.289-0.25s-0.069-0.255-0.027-0.382l1.026-3.077
		c0.099-0.296,0.335-0.532,0.63-0.631c0.103-0.034,0.21-0.052,0.317-0.052c0.431,0,0.812,0.274,0.949,0.682l1.026,3.078
		c0.042,0.127,0.033,0.263-0.027,0.382s-0.162,0.208-0.289,0.25C13.607,23.991,13.554,24,13.5,24z"/>
	<path d="M12,8c-0.281,0-2.815-0.016-5.334-0.555C3.238,6.712,1.5,5.384,1.5,3.5C1.5,3.224,1.724,3,2,3s0.5,0.224,0.5,0.5
		c0,1.41,1.716,2.23,3.248,2.681l1.679-4.845c0.18-0.506,0.545-0.911,1.028-1.14c0.271-0.129,0.56-0.194,0.856-0.194
		c0.229,0,0.455,0.039,0.672,0.117c0.109,0.039,0.216,0.088,0.318,0.146l1.201,0.687c0.15,0.085,0.321,0.131,0.496,0.131
		c0.175,0,0.346-0.045,0.496-0.131l1.202-0.686c0.301-0.172,0.643-0.263,0.989-0.263c0.718,0,1.385,0.386,1.74,1.008
		c0.058,0.102,0.108,0.21,0.147,0.322l1.678,4.849C19.784,5.73,21.5,4.911,21.5,3.5C21.5,3.224,21.724,3,22,3s0.5,0.224,0.5,0.5
		c0,1.733-1.48,2.999-4.4,3.763c-0.014,0.005-0.031,0.009-0.046,0.012C15.325,7.98,12.333,8,12,8z M6.72,6.43
		c0.125,0.028,0.249,0.054,0.372,0.079C9.512,6.994,11.975,7,12,7s2.488-0.007,4.908-0.491c0.122-0.025,0.246-0.051,0.371-0.078
		l-1.649-4.767c-0.018-0.052-0.043-0.107-0.072-0.157c-0.178-0.311-0.511-0.504-0.871-0.504c-0.172,0-0.343,0.045-0.493,0.131
		l-1.202,0.686c-0.3,0.172-0.643,0.262-0.992,0.262s-0.692-0.091-0.992-0.262l-1.2-0.686c-0.05-0.029-0.104-0.053-0.158-0.073
		C9.539,1.023,9.426,1.003,9.312,1.003c-0.148,0-0.292,0.033-0.428,0.097C8.643,1.215,8.461,1.416,8.371,1.668L6.72,6.43z"/>
</g>
</svg>
