<?xml version="1.0" encoding="utf-8"?>
<!-- Generator: Adobe Illustrator 22.1.0, SVG Export Plug-In . SVG Version: 6.00 Build 0)  -->
<svg version="1.1" id="Light" xmlns="http://www.w3.org/2000/svg" xmlns:xlink="http://www.w3.org/1999/xlink" x="0px" y="0px"
	 viewBox="0 0 24 24" style="enable-background:new 0 0 24 24;" xml:space="preserve">
<g>
	<title>dresser-wardrobe-drawers</title>
	<path d="M3,24c-0.551,0-1-0.448-1-1V1c0-0.551,0.449-1,1-1h18c0.552,0,1,0.449,1,1v22c0,0.552-0.448,1-1,1H3z M21,23v-7h-8v7H21z
		 M3,23h9V1L3,1L3,23z M21,15v-4h-8L21,15z M21,10V6h-8v4H21z M21,5V1h-8v4H21z"/>
	<path d="M15.5,18c-0.276,0-0.5-0.224-0.5-0.5s0.224-0.5,0.5-0.5h3c0.276,0,0.5,0.224,0.5,0.5S18.776,18,18.5,18H15.5z"/>
	<path d="M10.5,14c-0.276,0-0.5-0.224-0.5-0.5v-3c0-0.276,0.224-0.5,0.5-0.5s0.5,0.224,0.5,0.5v3C11,13.776,10.776,14,10.5,14z"/>
</g>
</svg>
