<?xml version="1.0" encoding="utf-8"?>
<!-- Generator: Adobe Illustrator 22.1.0, SVG Export Plug-In . SVG Version: 6.00 Build 0)  -->
<svg version="1.1" id="Light" xmlns="http://www.w3.org/2000/svg" xmlns:xlink="http://www.w3.org/1999/xlink" x="0px" y="0px"
	 viewBox="0 0 24 24" style="enable-background:new 0 0 24 24;" xml:space="preserve">
<g>
	<title>dresser-drawers-1</title>
	<path d="M19.5,24c-0.276,0-0.5-0.224-0.5-0.5V23H5v0.5C5,23.776,4.776,24,4.5,24S4,23.776,4,23.5V23H3.5C2.673,23,2,22.327,2,21.5
		v-20C2,0.673,2.673,0,3.5,0h17C21.327,0,22,0.673,22,1.5v20c0,0.827-0.673,1.5-1.5,1.5H20v0.5C20,23.776,19.776,24,19.5,24z
		 M20.5,22c0.276,0,0.5-0.224,0.5-0.5V15h-8.5v7H20.5z M3,21.5C3,21.776,3.224,22,3.5,22h8v-7H3V21.5z M21,14V8H3v6H21z M21,7V1.5
		C21,1.224,20.776,1,20.5,1h-17C3.224,1,3,1.224,3,1.5V7H21z"/>
	<circle cx="8.5" cy="18" r="0.75"/>
	<circle cx="15.5" cy="18" r="0.75"/>
</g>
</svg>
