<?xml version="1.0" encoding="utf-8"?>
<!-- Generator: Adobe Illustrator 22.1.0, SVG Export Plug-In . SVG Version: 6.00 Build 0)  -->
<svg version="1.1" id="Light" xmlns="http://www.w3.org/2000/svg" xmlns:xlink="http://www.w3.org/1999/xlink" x="0px" y="0px"
	 viewBox="0 0 24 24" style="enable-background:new 0 0 24 24;" xml:space="preserve">
<g>
	<title>dresser</title>
	<path d="M22.5,22c-0.276,0-0.5-0.224-0.5-0.5V20H2v1.5C2,21.776,1.776,22,1.5,22S1,21.776,1,21.5V5.914C0.41,5.705,0,5.14,0,4.5V3
		c0-0.551,0.449-1,1-1h22c0.552,0,1,0.449,1,1v1.5c0,0.64-0.41,1.205-1,1.414V21.5C23,21.776,22.776,22,22.5,22z M22,19V6H2v13H22z
		 M1,4.5C1,4.776,1.224,5,1.5,5h21C22.776,5,23,4.776,23,4.5V3H1h0L1,4.5z"/>
	<path d="M4,18c-0.551,0-1-0.448-1-1v-3c0-0.552,0.449-1,1-1h16c0.552,0,1,0.448,1,1v3c0,0.552-0.448,1-1,1H4z M4,17h16v-3H4h0L4,17
		z"/>
	<path d="M14,12c-0.552,0-1-0.449-1-1V8c0-0.551,0.448-1,1-1h6c0.552,0,1,0.449,1,1v3c0,0.551-0.448,1-1,1H14z M14,11h6V8h-6L14,11z
		"/>
	<path d="M4,12c-0.551,0-1-0.449-1-1V8c0-0.551,0.449-1,1-1h6c0.551,0,1,0.449,1,1v3c0,0.551-0.449,1-1,1H4z M4,11h6V8H4L4,11z"/>
	<path d="M12,16.25c-0.414,0-0.75-0.336-0.75-0.75s0.336-0.75,0.75-0.75c0.204,0.001,0.392,0.08,0.533,0.222
		c0.141,0.142,0.218,0.33,0.217,0.53C12.75,15.914,12.414,16.25,12,16.25z"/>
	<path d="M7,10.25c-0.414,0-0.75-0.336-0.75-0.75c0-0.384,0.288-0.702,0.671-0.743c0.01-0.001,0.02-0.002,0.03-0.002
		C6.956,8.752,6.978,8.75,7,8.75c0.204,0.001,0.392,0.08,0.533,0.221C7.674,9.113,7.751,9.302,7.75,9.502
		C7.75,9.914,7.414,10.25,7,10.25z"/>
	<path d="M17,10.25c-0.414,0-0.75-0.336-0.75-0.75c0-0.406,0.319-0.735,0.725-0.748l0.027-0.002c0.415,0.002,0.75,0.339,0.748,0.752
		C17.75,9.914,17.414,10.25,17,10.25z"/>
</g>
</svg>
