<?xml version="1.0" encoding="utf-8"?>
<!-- Generator: Adobe Illustrator 22.1.0, SVG Export Plug-In . SVG Version: 6.00 Build 0)  -->
<svg version="1.1" id="Light" xmlns="http://www.w3.org/2000/svg" xmlns:xlink="http://www.w3.org/1999/xlink" x="0px" y="0px"
	 viewBox="0 0 24 24" style="enable-background:new 0 0 24 24;" xml:space="preserve">
<g>
	<title>dresser-drawers-4</title>
	<path d="M17.5,24c-0.276,0-0.5-0.224-0.5-0.5V22H7v1.5C7,23.776,6.776,24,6.5,24S6,23.776,6,23.5V22H4c-0.551,0-1-0.448-1-1V1H1.5
		C1.224,1,1,0.776,1,0.5S1.224,0,1.5,0h21C22.776,0,23,0.224,23,0.5S22.776,1,22.5,1H21v20c0,0.552-0.448,1-1,1h-2v1.5
		C18,23.776,17.776,24,17.5,24z M4,21h16V1H4V21z"/>
	<path d="M6,20c-0.551,0-1-0.448-1-1v-4c0-0.552,0.449-1,1-1h4c0.551,0,1,0.448,1,1v4c0,0.552-0.449,1-1,1H6z M6,19h4v-4H6L6,19z"/>
	<path d="M14,20c-0.552,0-1-0.448-1-1v-4c0-0.552,0.448-1,1-1h4c0.552,0,1,0.448,1,1v4c0,0.552-0.448,1-1,1H14z M14,19h4v-4h-4
		L14,19z"/>
	<path d="M6,7C5.449,7,5,6.551,5,6V3c0-0.551,0.449-1,1-1h12c0.552,0,1,0.449,1,1v3c0,0.551-0.448,1-1,1H6z M6,6h12V3H6L6,6z"/>
	<path d="M6,13c-0.551,0-1-0.448-1-1V9c0-0.551,0.449-1,1-1h12c0.552,0,1,0.449,1,1v3c0,0.552-0.448,1-1,1H6z M6,12h12V9H6L6,12z"/>
	<path d="M16,17.75c-0.414,0-0.75-0.336-0.75-0.75c-0.001-0.198,0.076-0.386,0.217-0.528c0.142-0.142,0.329-0.221,0.529-0.222
		c0.417,0,0.754,0.336,0.754,0.75S16.414,17.75,16,17.75z"/>
	<path d="M8,17.75c-0.414,0-0.75-0.336-0.75-0.75c-0.001-0.198,0.076-0.386,0.217-0.529c0.141-0.142,0.329-0.221,0.529-0.221
		c0.417,0,0.754,0.336,0.754,0.75S8.414,17.75,8,17.75z"/>
	<path d="M12,11.25c-0.414,0-0.75-0.336-0.75-0.75c-0.001-0.198,0.076-0.387,0.217-0.529c0.141-0.142,0.328-0.22,0.528-0.221
		c0.418,0,0.754,0.336,0.754,0.75S12.414,11.25,12,11.25z"/>
	<path d="M12,5.25c-0.414,0-0.75-0.336-0.75-0.75c-0.001-0.198,0.076-0.387,0.217-0.529c0.141-0.142,0.328-0.22,0.528-0.221
		c0,0,0,0,0.001,0c0.417,0,0.754,0.344,0.754,0.75C12.75,4.914,12.414,5.25,12,5.25z"/>
</g>
</svg>
