<?xml version="1.0" encoding="utf-8"?>
<!-- Generator: Adobe Illustrator 22.1.0, SVG Export Plug-In . SVG Version: 6.00 Build 0)  -->
<svg version="1.1" id="Layer_1" xmlns="http://www.w3.org/2000/svg" xmlns:xlink="http://www.w3.org/1999/xlink" x="0px" y="0px"
	 viewBox="0 0 24 24" style="enable-background:new 0 0 24 24;" xml:space="preserve">
<g>
	<title>monetization-phone</title>
	<circle cx="7.5" cy="21.5" r="0.75"/>
	<path d="M3,24c-1.379,0-2.5-1.122-2.5-2.5v-19C0.5,1.121,1.621,0,3,0h9c1.378,0,2.5,1.121,2.5,2.5v1.957
		c0.002,0.015,0.004,0.031,0.004,0.043c0,0.276-0.224,0.5-0.5,0.5H1.5v14h12v-0.5c0-0.276,0.224-0.5,0.5-0.5s0.5,0.224,0.5,0.5
		v0.957c0.002,0.015,0.004,0.03,0.004,0.043c0,0.019-0.002,0.036-0.005,0.05L14.5,21.5c0,1.378-1.122,2.5-2.5,2.5H3z M1.5,21.5
		C1.5,22.327,2.173,23,3,23h9c0.827,0,1.5-0.673,1.5-1.5V20h-12V21.5z M13.5,4V2.5C13.5,1.673,12.827,1,12,1H3
		C2.173,1,1.5,1.673,1.5,2.5V4H13.5z"/>
	<path d="M6.004,3c-0.276,0-0.5-0.224-0.5-0.5S5.728,2,6.004,2h3.5c0.276,0,0.5,0.224,0.5,0.5S9.78,3,9.504,3H6.004z"/>
	<path d="M11,17c-0.276,0-0.5-0.224-0.5-0.5S10.724,16,11,16h11c0.276,0,0.5-0.224,0.5-0.5v-8C22.5,7.224,22.276,7,22,7H11
		c-0.276,0-0.5-0.224-0.5-0.5S10.724,6,11,6h11c0.827,0,1.5,0.673,1.5,1.5v8c0,0.827-0.673,1.5-1.5,1.5H11z"/>
	<path d="M8.066,7c-0.276,0-0.5-0.224-0.5-0.5S7.79,6,8.066,6h0.938c0.276,0,0.5,0.224,0.5,0.5S9.28,7,9.004,7H8.066z"/>
	<path d="M8.066,17c-0.276,0-0.5-0.224-0.5-0.5S7.79,16,8.066,16h0.938c0.276,0,0.5,0.224,0.5,0.5S9.28,17,9.004,17H8.066z"/>
	<path d="M5.004,7c-0.276,0-0.5-0.224-0.5-0.5S4.728,6,5.004,6h0.937c0.276,0,0.5,0.224,0.5,0.5S6.217,7,5.941,7H5.004z"/>
	<path d="M5.004,17c-0.276,0-0.5-0.224-0.5-0.5s0.224-0.5,0.5-0.5h0.937c0.276,0,0.5,0.224,0.5,0.5S6.217,17,5.941,17H5.004z"/>
	<path d="M16.004,15c-0.276,0-0.5-0.224-0.5-0.5V14H14c-0.276,0-0.5-0.224-0.5-0.5S13.724,13,14,13h3c0.276,0,0.5-0.224,0.5-0.5
		c0-0.276-0.224-0.5-0.5-0.5h-2c-0.827,0-1.5-0.673-1.5-1.5S14.173,9,15,9h0.504V8.5c0-0.276,0.224-0.5,0.5-0.5s0.5,0.224,0.5,0.5V9
		H18c0.276,0,0.5,0.224,0.5,0.5S18.276,10,18,10h-3c-0.276,0-0.5,0.224-0.5,0.5S14.724,11,15,11h2c0.827,0,1.5,0.673,1.5,1.5
		S17.827,14,17,14h-0.496v0.5C16.504,14.776,16.28,15,16.004,15z"/>
</g>
</svg>
