<?xml version="1.0" encoding="utf-8"?>
<!-- Generator: Adobe Illustrator 22.1.0, SVG Export Plug-In . SVG Version: 6.00 Build 0)  -->
<svg version="1.1" id="Layer_1" xmlns="http://www.w3.org/2000/svg" xmlns:xlink="http://www.w3.org/1999/xlink" x="0px" y="0px"
	 viewBox="0 0 24 24" style="enable-background:new 0 0 24 24;" xml:space="preserve">
<g>
	<title>monetization-dollar-bill-magnet</title>
	<path d="M4.504,9c-0.276,0-0.5-0.224-0.5-0.5v-8c0-0.276,0.224-0.5,0.5-0.5h15c0.276,0,0.5,0.224,0.5,0.5v8
		c0,0.276-0.224,0.5-0.5,0.5H4.504z M19.004,8V1h-14v7H19.004z"/>
	<path d="M7.504,12c-0.276,0-0.5-0.224-0.5-0.5v-1c0-0.276,0.224-0.5,0.5-0.5s0.5,0.224,0.5,0.5v1C8.004,11.776,7.78,12,7.504,12z"
		/>
	<path d="M9.504,12c-0.276,0-0.5-0.224-0.5-0.5v-1c0-0.276,0.224-0.5,0.5-0.5s0.5,0.224,0.5,0.5v1C10.004,11.776,9.78,12,9.504,12z"
		/>
	<path d="M14.504,12c-0.276,0-0.5-0.224-0.5-0.5v-1c0-0.276,0.224-0.5,0.5-0.5s0.5,0.224,0.5,0.5v1
		C15.004,11.776,14.78,12,14.504,12z"/>
	<path d="M16.504,12c-0.276,0-0.5-0.224-0.5-0.5v-1c0-0.276,0.224-0.5,0.5-0.5s0.5,0.224,0.5,0.5v1
		C17.004,11.776,16.78,12,16.504,12z"/>
	<path d="M12,24c-3.645,0-6-2.159-6-5.5v-4c0.024-0.82,0.677-1.476,1.485-1.5H9.5c0.82,0.024,1.476,0.676,1.5,1.485l0,1.97
		c0.003,0.016,0.004,0.031,0.004,0.044c0,0.02-0.002,0.038-0.005,0.052L11,18.5c0,0.552,0.449,1,1,1s1-0.448,1-1v-4
		c0.024-0.82,0.676-1.476,1.485-1.5H16.5c0.82,0.024,1.475,0.676,1.5,1.485v1.972c0.002,0.015,0.004,0.03,0.004,0.043
		c0,0.019-0.002,0.036-0.005,0.05L18,18.5C18,21.841,15.645,24,12,24z M7,18.5c0,2.734,1.963,4.5,5,4.5c3.037,0,5-1.766,5-4.5V17h-3
		v1.5c0,1.103-0.897,2-2,2c-1.103,0-2-0.897-2-2V17H7L7,18.5z M17,16v-1.5c-0.008-0.269-0.234-0.492-0.515-0.5h-1.981
		c-0.275,0.01-0.496,0.235-0.504,0.515V16H17z M10,16v-1.5c-0.008-0.269-0.234-0.492-0.515-0.5H7.504
		C7.229,14.01,7.008,14.235,7,14.515L7,16H10z"/>
	<path d="M11.504,8c-0.276,0-0.5-0.224-0.5-0.5V7H9.5C9.224,7,9,6.776,9,6.5S9.224,6,9.5,6h3C12.776,6,13,5.776,13,5.5
		S12.776,5,12.5,5h-2C9.673,5,9,4.327,9,3.5S9.673,2,10.5,2h0.504V1.5c0-0.276,0.224-0.5,0.5-0.5s0.5,0.224,0.5,0.5V2H13.5
		C13.776,2,14,2.224,14,2.5S13.776,3,13.5,3h-3C10.224,3,10,3.224,10,3.5S10.224,4,10.5,4h2C13.327,4,14,4.673,14,5.5
		S13.327,7,12.5,7h-0.496v0.5C12.004,7.776,11.78,8,11.504,8z"/>
</g>
</svg>
