<?xml version="1.0" encoding="utf-8"?>
<!-- Generator: Adobe Illustrator 22.1.0, SVG Export Plug-In . SVG Version: 6.00 Build 0)  -->
<svg version="1.1" id="Layer_1" xmlns="http://www.w3.org/2000/svg" xmlns:xlink="http://www.w3.org/1999/xlink" x="0px" y="0px"
	 viewBox="0 0 24 24" style="enable-background:new 0 0 24 24;" xml:space="preserve">
<g>
	<title>monetization-approve</title>
	<path d="M18.5,24c-3.033,0-5.5-2.467-5.5-5.5s2.467-5.5,5.5-5.5c0.276,0,0.5,0.224,0.5,0.5S18.776,14,18.5,14
		c-2.481,0-4.5,2.019-4.5,4.5s2.019,4.5,4.5,4.5s4.5-2.019,4.5-4.5c0-0.276,0.224-0.5,0.5-0.5s0.5,0.224,0.5,0.5
		C24,21.533,21.533,24,18.5,24z"/>
	<path d="M18.419,20.315c-0.217,0-0.424-0.069-0.599-0.199L16.2,18.9c-0.107-0.08-0.176-0.197-0.195-0.329
		c-0.019-0.132,0.015-0.264,0.095-0.371c0.093-0.125,0.243-0.2,0.4-0.2c0.109,0,0.213,0.035,0.3,0.1l1.62,1.215l4.696-5.635
		c0.095-0.114,0.235-0.18,0.384-0.18c0.116,0,0.23,0.041,0.32,0.115c0.212,0.177,0.241,0.493,0.065,0.705l-4.696,5.635
		C18.997,20.184,18.717,20.315,18.419,20.315z"/>
	<path d="M5.504,11c-3.033,0-5.5-2.467-5.5-5.5S2.471,0,5.504,0s5.5,2.467,5.5,5.5S8.537,11,5.504,11z M5.504,1
		c-2.481,0-4.5,2.019-4.5,4.5s2.019,4.5,4.5,4.5s4.5-2.019,4.5-4.5S7.985,1,5.504,1z"/>
	<path d="M5.504,9c-0.276,0-0.5-0.224-0.5-0.5V8H3.5C3.224,8,3,7.776,3,7.5S3.224,7,3.5,7h3C6.776,7,7,6.776,7,6.5S6.776,6,6.5,6h-2
		C3.673,6,3,5.327,3,4.5S3.673,3,4.5,3h0.504V2.5c0-0.276,0.224-0.5,0.5-0.5s0.5,0.224,0.5,0.5V3H7.5C7.776,3,8,3.224,8,3.5
		S7.776,4,7.5,4h-3C4.224,4,4,4.224,4,4.5S4.224,5,4.5,5h2C7.327,5,8,5.673,8,6.5S7.327,8,6.5,8H6.004v0.5
		C6.004,8.776,5.78,9,5.504,9z"/>
	<path d="M12,23C5.935,23,1,18.065,1,12c0-0.276,0.224-0.5,0.5-0.5S2,11.724,2,12c0,5.514,4.486,10,10,10c0.276,0,0.5,0.224,0.5,0.5
		S12.276,23,12,23z"/>
	<path d="M22.5,12.5c-0.276,0-0.5-0.224-0.5-0.5c0-5.514-4.486-10-10-10c-0.276,0-0.5-0.224-0.5-0.5S11.724,1,12,1
		c6.065,0,11,4.935,11,11C23,12.276,22.776,12.5,22.5,12.5z"/>
</g>
</svg>
