<?xml version="1.0" encoding="utf-8"?>
<!-- Generator: Adobe Illustrator 22.1.0, SVG Export Plug-In . SVG Version: 6.00 Build 0)  -->
<svg version="1.1" id="Layer_1" xmlns="http://www.w3.org/2000/svg" xmlns:xlink="http://www.w3.org/1999/xlink" x="0px" y="0px"
	 viewBox="0 0 24 24" style="enable-background:new 0 0 24 24;" xml:space="preserve">
<g>
	<title>monetization-idea</title>
	<path d="M4.754,12c-0.276,0-0.5-0.224-0.5-0.5s0.224-0.5,0.5-0.5h3c0.276,0,0.5,0.224,0.5,0.5S8.03,12,7.754,12H4.754z"/>
	<path d="M4.754,10c-0.276,0-0.5-0.224-0.5-0.5V8.777c-0.904-0.62-1.476-1.668-1.5-2.766C2.808,4.091,4.339,2.554,6.24,2.5
		C8.162,2.554,9.7,4.085,9.754,5.986c0,0.005,0,0.022,0,0.027c-0.025,1.114-0.583,2.138-1.5,2.765V9.5c0,0.276-0.224,0.5-0.5,0.5
		H4.754z M7.254,9V8.5c0-0.18,0.098-0.347,0.255-0.436c0.747-0.42,1.224-1.213,1.245-2.07C8.712,4.643,7.612,3.542,6.247,3.5
		c-1.36,0.043-2.454,1.146-2.493,2.514c0.019,0.839,0.496,1.629,1.245,2.05C5.156,8.152,5.254,8.319,5.254,8.5V9H7.254z"/>
	<path d="M6.254,2c-0.276,0-0.5-0.224-0.5-0.5v-1c0-0.276,0.224-0.5,0.5-0.5s0.5,0.224,0.5,0.5v1C6.754,1.776,6.53,2,6.254,2z"/>
	<path d="M9.436,3.318c-0.134,0-0.259-0.052-0.354-0.146s-0.146-0.22-0.146-0.354s0.052-0.259,0.146-0.354l0.707-0.707
		c0.094-0.094,0.22-0.146,0.354-0.146s0.259,0.052,0.354,0.146c0.195,0.195,0.195,0.512,0,0.707L9.789,3.172
		C9.695,3.266,9.569,3.318,9.436,3.318z"/>
	<path d="M10.754,6c-0.276,0-0.5-0.224-0.5-0.5s0.224-0.5,0.5-0.5h1c0.276,0,0.5,0.224,0.5,0.5S12.03,6,11.754,6H10.754z"/>
	<path d="M3.072,3.318c-0.134,0-0.259-0.052-0.354-0.146L2.011,2.464C1.917,2.37,1.865,2.245,1.865,2.111
		c0-0.134,0.052-0.259,0.147-0.354c0.094-0.094,0.22-0.146,0.353-0.146s0.259,0.052,0.354,0.146l0.707,0.707
		c0.094,0.094,0.146,0.22,0.146,0.354c0,0.134-0.052,0.259-0.147,0.354C3.331,3.266,3.205,3.318,3.072,3.318z"/>
	<path d="M0.754,6c-0.276,0-0.5-0.224-0.5-0.5S0.478,5,0.754,5h1c0.276,0,0.5,0.224,0.5,0.5S2.03,6,1.754,6H0.754z"/>
	<path d="M21.254,12.5c-0.276,0-0.5-0.224-0.5-0.5c0-4.123-2.705-7.629-6.636-8.685l0.6,1.5c0.102,0.256-0.023,0.547-0.279,0.65
		C14.38,5.488,14.318,5.5,14.254,5.5c-0.206,0-0.388-0.123-0.464-0.314L12.9,2.961c-0.1-0.104-0.15-0.245-0.138-0.387
		c-0.027-0.18,0.046-0.365,0.192-0.474l2-1.5c0.086-0.065,0.19-0.1,0.3-0.1c0.157,0,0.306,0.075,0.4,0.2
		c0.08,0.107,0.114,0.238,0.095,0.371C15.73,1.203,15.661,1.32,15.554,1.4l-1.24,0.93c4.408,1.151,7.441,5.053,7.441,9.67
		C21.754,12.276,21.53,12.5,21.254,12.5z"/>
	<path d="M18.254,24c-3.033,0-5.5-2.467-5.5-5.5s2.467-5.5,5.5-5.5s5.5,2.467,5.5,5.5S21.287,24,18.254,24z M18.254,14
		c-2.481,0-4.5,2.019-4.5,4.5s2.019,4.5,4.5,4.5s4.5-2.019,4.5-4.5S20.735,14,18.254,14z"/>
	<path d="M18.254,22c-0.276,0-0.5-0.224-0.5-0.5V21h-1.5c-0.276,0-0.5-0.224-0.5-0.5s0.224-0.5,0.5-0.5h3c0.276,0,0.5-0.224,0.5-0.5
		s-0.224-0.5-0.5-0.5h-2c-0.827,0-1.5-0.673-1.5-1.5s0.673-1.5,1.5-1.5h0.5v-0.5c0-0.276,0.224-0.5,0.5-0.5s0.5,0.224,0.5,0.5V16
		h1.5c0.276,0,0.5,0.224,0.5,0.5s-0.224,0.5-0.5,0.5h-3c-0.276,0-0.5,0.224-0.5,0.5s0.224,0.5,0.5,0.5h2c0.827,0,1.5,0.673,1.5,1.5
		s-0.673,1.5-1.5,1.5h-0.5v0.5C18.754,21.776,18.53,22,18.254,22z"/>
	<path d="M8.254,23.5c-0.175,0-0.339-0.093-0.429-0.243c-0.069-0.115-0.089-0.249-0.056-0.378c0.032-0.13,0.113-0.239,0.228-0.308
		l1.415-0.849C4.937,20.65,1.755,16.66,1.756,12c0-0.276,0.224-0.5,0.5-0.5s0.5,0.224,0.5,0.5c-0.001,4.28,2.951,7.904,7.087,8.797
		l-1.037-2.073c-0.123-0.247-0.023-0.548,0.224-0.671C9.1,18.018,9.177,18,9.254,18c0.191,0,0.362,0.106,0.448,0.276l1.5,3
		c0.116,0.232,0.032,0.519-0.19,0.652l-2.5,1.5C8.433,23.475,8.345,23.5,8.254,23.5z"/>
</g>
</svg>
