<?xml version="1.0" encoding="utf-8"?>
<!-- Generator: Adobe Illustrator 22.1.0, SVG Export Plug-In . SVG Version: 6.00 Build 0)  -->
<svg version="1.1" id="Layer_1" xmlns="http://www.w3.org/2000/svg" xmlns:xlink="http://www.w3.org/1999/xlink" x="0px" y="0px"
	 viewBox="0 0 24 24" style="enable-background:new 0 0 24 24;" xml:space="preserve">
<g>
	<title>monetization-user-monitor-1</title>
	<path d="M6.254,14.504c-0.276,0-0.5-0.224-0.5-0.5v-3c0-0.276,0.224-0.5,0.5-0.5s0.5,0.224,0.5,0.5v3
		C6.754,14.279,6.53,14.504,6.254,14.504z"/>
	<path d="M4.254,24.004c-0.258,0-0.477-0.201-0.498-0.458l-0.462-5.542h-2.04c-0.276,0-0.5-0.224-0.5-0.5v-3.5
		c0-3.033,2.467-5.5,5.5-5.5s5.5,2.467,5.5,5.5v3.5c0,0.276-0.224,0.5-0.5,0.5h-2.04l-0.462,5.542
		c-0.022,0.257-0.24,0.458-0.498,0.458H4.254z M7.794,23.004l0.462-5.542c0.022-0.257,0.24-0.458,0.498-0.458h2v-3
		c0-2.481-2.019-4.5-4.5-4.5s-4.5,2.019-4.5,4.5v3h2c0.258,0,0.477,0.201,0.498,0.458l0.462,5.542H7.794z"/>
	<path d="M6.254,8.004c-2.206,0-4-1.794-4-4c0-1.647,1.038-3.148,2.583-3.736l0.045-0.017c0.126-0.046,0.235-0.08,0.346-0.109
		C5.27,0.131,5.312,0.119,5.355,0.109c0.09-0.021,0.181-0.037,0.273-0.052L5.666,0.05C5.694,0.044,5.722,0.039,5.75,0.035
		c0.016-0.002,0.199-0.016,0.199-0.016c0.094-0.007,0.188-0.013,0.281-0.014c0.012,0,0.022,0,0.031,0
		c0.02,0,0.032,0.001,0.044,0.002C6.427,0.009,6.534,0.013,6.64,0.023l0.083,0.01C6.827,0.046,6.929,0.061,7.03,0.081
		c0.025,0.005,0.104,0.024,0.104,0.024c0.09,0.02,0.18,0.042,0.268,0.069c0.034,0.01,0.067,0.021,0.099,0.033l0.033,0.011
		C7.61,0.243,7.685,0.27,7.758,0.3C7.806,0.319,7.852,0.34,7.899,0.362c0.08,0.037,0.14,0.065,0.199,0.096
		C8.16,0.49,8.22,0.525,8.281,0.561l0.023,0.014c0.039,0.023,0.077,0.046,0.115,0.07c0.069,0.044,0.135,0.092,0.201,0.14
		c0,0,0.074,0.055,0.1,0.075c0.074,0.058,0.146,0.12,0.216,0.183l0.063,0.057c0.08,0.076,0.156,0.155,0.23,0.237l0.023,0.026
		c0.646,0.733,1.002,1.67,1.002,2.64C10.254,6.209,8.46,8.004,6.254,8.004z M3.409,3.062c-0.102,0.305-0.154,0.62-0.154,0.942
		c0,1.654,1.346,3,3,3c1.576,0,2.872-1.222,2.991-2.768c-0.589,0.178-1.2,0.268-1.82,0.268c-0.001,0-0.005,0-0.005,0
		C5.973,4.504,4.531,3.982,3.409,3.062z M7.432,3.504c0.58,0,1.155-0.095,1.705-0.284c-0.094-0.361-0.254-0.697-0.477-1L8.634,2.185
		C8.592,2.13,8.549,2.078,8.504,2.026C8.484,2.003,8.463,1.98,8.441,1.957c-0.039-0.042-0.079-0.083-0.12-0.122
		C8.292,1.807,8.261,1.779,8.23,1.752C8.193,1.719,8.156,1.688,8.117,1.657C8.08,1.627,8.041,1.599,8.001,1.57
		C7.964,1.543,7.926,1.517,7.888,1.491c-0.05-0.033-0.102-0.064-0.155-0.094C7.705,1.381,7.679,1.366,7.652,1.352
		C7.586,1.317,7.519,1.284,7.451,1.255L7.402,1.233C7.323,1.2,7.243,1.171,7.162,1.145l0.047-0.248L7.135,1.136
		c-0.087-0.027-0.176-0.05-0.267-0.069C6.761,1.045,6.668,1.031,6.573,1.021C6.465,1.01,6.374,1.006,6.282,1.005L6.243,0.755v0.25
		c-0.081,0-0.158,0.006-0.235,0.012L5.925,1.023C5.886,1.027,5.849,1.034,5.811,1.04L5.769,1.047
		c-0.067,0.011-0.119,0.02-0.17,0.031C5.575,1.084,5.498,1.105,5.498,1.105C5.424,1.124,5.35,1.145,5.278,1.17l-0.029,0.01
		c-0.111,0.041-0.2,0.078-0.287,0.12C4.961,1.301,4.96,1.302,4.959,1.303c-0.418,0.204-0.781,0.5-1.062,0.863
		C4.86,3.017,6.13,3.502,7.414,3.504c0.002,0,0.005,0,0.007,0C7.425,3.504,7.43,3.504,7.432,3.504z"/>
	<path d="M13.754,16.004c-0.276,0-0.5-0.224-0.5-0.5s0.224-0.5,0.5-0.5h2.5v-2h-2.5c-0.276,0-0.5-0.224-0.5-0.5
		c0-0.276,0.224-0.5,0.5-0.5l8.044,0.001c0.278-0.007,0.516-0.114,0.693-0.3c0.177-0.186,0.27-0.43,0.263-0.687
		c0,0,0.001-7.06,0-7.077c-0.007-0.258-0.113-0.497-0.3-0.673c-0.179-0.17-0.417-0.263-0.669-0.263l-10.031,0
		c-0.276,0-0.5-0.224-0.5-0.5s0.224-0.5,0.5-0.5l10.04,0c0.504,0,0.982,0.191,1.348,0.537c0.38,0.36,0.597,0.847,0.612,1.371
		c0.001,0.036,0,7.093,0,7.093c0.014,0.512-0.176,1.008-0.537,1.388c-0.36,0.38-0.847,0.597-1.37,0.612h-4.593v2h3
		c0.276,0,0.5,0.224,0.5,0.5s-0.224,0.5-0.5,0.5H13.754z"/>
	<path d="M16.754,11.004c-0.276,0-0.5-0.224-0.5-0.5v-0.5h-1.5c-0.276,0-0.5-0.224-0.5-0.5s0.224-0.5,0.5-0.5h3
		c0.276,0,0.5-0.224,0.5-0.5s-0.224-0.5-0.5-0.5h-2c-0.827,0-1.5-0.673-1.5-1.5s0.673-1.5,1.5-1.5h0.5v-0.5
		c0-0.276,0.224-0.5,0.5-0.5s0.5,0.224,0.5,0.5v0.5h1.5c0.276,0,0.5,0.224,0.5,0.5s-0.224,0.5-0.5,0.5h-3
		c-0.276,0-0.5,0.224-0.5,0.5s0.224,0.5,0.5,0.5h2c0.827,0,1.5,0.673,1.5,1.5s-0.673,1.5-1.5,1.5h-0.5v0.5
		C17.254,10.78,17.03,11.004,16.754,11.004z"/>
</g>
</svg>
