<?xml version="1.0" encoding="utf-8"?>
<!-- Generator: Adobe Illustrator 22.1.0, SVG Export Plug-In . SVG Version: 6.00 Build 0)  -->
<svg version="1.1" id="Layer_1" xmlns="http://www.w3.org/2000/svg" xmlns:xlink="http://www.w3.org/1999/xlink" x="0px" y="0px"
	 viewBox="0 0 24 24" style="enable-background:new 0 0 24 24;" xml:space="preserve">
<g>
	<title>monetization-mouse</title>
	<path d="M18,24c-3.308,0-6-2.692-6-6V7.5C12,5.57,13.57,4,15.5,4h5C22.43,4,24,5.57,24,7.5V18C24,21.308,21.308,24,18,24z M15.5,5
		C14.122,5,13,6.121,13,7.5V18c0,2.757,2.243,5,5,5s5-2.243,5-5V7.5C23,6.121,21.878,5,20.5,5h-1.996v3.087
		C19.092,8.298,19.5,8.862,19.5,9.5v2c0,0.827-0.673,1.5-1.5,1.5s-1.5-0.673-1.5-1.5v-2c0-0.642,0.412-1.207,1.004-1.415V5H15.5z
		 M18,9c-0.276,0-0.5,0.224-0.5,0.5v2c0,0.276,0.224,0.5,0.5,0.5s0.5-0.224,0.5-0.5v-2C18.5,9.224,18.276,9,18,9z"/>
	<path d="M8.504,7c-0.276,0-0.5-0.224-0.5-0.5S8.228,6,8.504,6h2c0.276,0,0.5,0.224,0.5,0.5S10.78,7,10.504,7H8.504z"/>
	<path d="M11.675,4.172c-0.134,0-0.259-0.052-0.354-0.146L9.907,2.61c-0.195-0.195-0.195-0.512,0-0.707
		c0.095-0.094,0.22-0.146,0.354-0.146s0.259,0.052,0.354,0.146l1.414,1.415c0.195,0.195,0.195,0.512,0,0.707
		C11.934,4.12,11.808,4.172,11.675,4.172z"/>
	<path d="M14.504,3c-0.276,0-0.5-0.224-0.5-0.5v-2c0-0.276,0.224-0.5,0.5-0.5s0.5,0.224,0.5,0.5v2C15.004,2.776,14.779,3,14.504,3z"
		/>
	<path d="M6.504,18.5c-0.276,0-0.5-0.224-0.5-0.5v-0.5H5c-0.276,0-0.5-0.224-0.5-0.5s0.224-0.5,0.5-0.5h2.037
		c0.344-0.001,0.65-0.208,0.778-0.528c0.084-0.209,0.082-0.438-0.007-0.644c-0.088-0.207-0.252-0.367-0.46-0.451l-2.063-0.826
		c-0.701-0.282-1.155-0.953-1.155-1.708c0-0.492,0.191-0.955,0.539-1.303c0.348-0.348,0.81-0.54,1.302-0.54h0.033V10
		c0-0.276,0.224-0.5,0.5-0.5s0.5,0.224,0.5,0.5v0.5H8c0.276,0,0.5,0.224,0.5,0.5S8.276,11.5,8,11.5H5.971
		c-0.224,0-0.435,0.088-0.594,0.247c-0.159,0.159-0.247,0.371-0.247,0.595c0,0.345,0.207,0.652,0.528,0.781l2.063,0.826
		c0.457,0.184,0.815,0.535,1.008,0.987c0.193,0.452,0.198,0.953,0.014,1.409c-0.282,0.7-0.951,1.153-1.705,1.155H7.004V18
		C7.004,18.276,6.78,18.5,6.504,18.5z"/>
	<path d="M6.504,20.508c-1.623,0-3.182-0.608-4.389-1.713c-1.281-1.172-2.028-2.773-2.105-4.507
		c-0.077-1.734,0.527-3.395,1.699-4.676c1.227-1.34,2.975-2.109,4.798-2.109c1.629,0,3.186,0.604,4.386,1.702
		c0.203,0.186,0.217,0.503,0.031,0.706c-0.095,0.103-0.23,0.162-0.369,0.162l0,0c-0.125,0-0.245-0.046-0.337-0.131
		c-1.015-0.929-2.333-1.44-3.711-1.44c-1.542,0-3.022,0.65-4.06,1.784c-0.992,1.084-1.502,2.489-1.438,3.957
		c0.065,1.468,0.698,2.822,1.781,3.814c1.021,0.935,2.34,1.449,3.714,1.449c1.353,0,2.657-0.502,3.673-1.413
		c0.091-0.083,0.21-0.128,0.334-0.128c0.142,0,0.278,0.061,0.372,0.166c0.089,0.099,0.135,0.228,0.127,0.361
		c-0.007,0.133-0.066,0.256-0.166,0.345C9.645,19.915,8.104,20.507,6.504,20.508L6.504,20.508z"/>
</g>
</svg>
