<?xml version="1.0" encoding="utf-8"?>
<!-- Generator: Adobe Illustrator 22.1.0, SVG Export Plug-In . SVG Version: 6.00 Build 0)  -->
<svg version="1.1" id="Layer_1" xmlns="http://www.w3.org/2000/svg" xmlns:xlink="http://www.w3.org/1999/xlink" x="0px" y="0px"
	 viewBox="0 0 24 24" style="enable-background:new 0 0 24 24;" xml:space="preserve">
<g>
	<title>monetization-touch-browser</title>
	<circle cx="3.254" cy="2.75" r="0.75"/>
	<circle cx="5.754" cy="2.75" r="0.75"/>
	<circle cx="8.254" cy="2.75" r="0.75"/>
	<path d="M2.5,16.249c-1.379,0-2.5-1.122-2.5-2.5v-11c0-1.379,1.121-2.5,2.5-2.5h16c1.378,0,2.5,1.121,2.5,2.5v1.957
		c0.002,0.015,0.004,0.031,0.004,0.043c0,0.019-0.002,0.036-0.005,0.05L21,12.249c0,0.276-0.224,0.5-0.5,0.5s-0.5-0.224-0.5-0.5v-7
		H1v8.5c0,0.827,0.673,1.5,1.5,1.5H10c0.276,0,0.5,0.224,0.5,0.5s-0.224,0.5-0.5,0.5H2.5z M20,4.249v-1.5c0-0.827-0.673-1.5-1.5-1.5
		h-16c-0.827,0-1.5,0.673-1.5,1.5v1.5H20z"/>
	<path d="M11.5,23.751c-0.141,0-0.276-0.06-0.371-0.165l-2.3-2.543c-0.343-0.46-0.48-0.995-0.4-1.524
		c0.079-0.529,0.36-0.994,0.79-1.312c0.346-0.256,0.757-0.391,1.187-0.391c0.551,0,1.082,0.23,1.459,0.631L13,19.746v-6.497
		c0-1.103,0.897-2,2-2s2,0.897,2,2v4h2.5c2.481,0,4.5,2.019,4.5,4.5v1.5c0,0.276-0.224,0.5-0.5,0.5s-0.5-0.224-0.5-0.5v-1.5
		c0-1.93-1.57-3.5-3.5-3.5h-3c-0.276,0-0.5-0.224-0.5-0.5v-4.5c0-0.552-0.448-1-1-1s-1,0.448-1,1v7.828
		c0,0.207-0.13,0.395-0.324,0.468c-0.056,0.021-0.115,0.032-0.175,0.032c-0.144,0-0.281-0.062-0.376-0.17l-2-2.287
		c-0.179-0.19-0.442-0.303-0.715-0.303c-0.216,0-0.422,0.068-0.596,0.196c-0.215,0.159-0.355,0.391-0.395,0.656
		c-0.04,0.264,0.026,0.528,0.185,0.743l2.268,2.504c0.09,0.099,0.135,0.227,0.129,0.361s-0.065,0.256-0.164,0.346
		C11.744,23.705,11.625,23.751,11.5,23.751z"/>
	<path d="M10.504,14.249c-0.276,0-0.5-0.224-0.5-0.5v-0.505H9.316c-0.276,0-0.5-0.224-0.5-0.5s0.224-0.5,0.5-0.5h1.695
		c0.254,0,0.479-0.152,0.574-0.388c0.061-0.153,0.059-0.321-0.006-0.473c-0.065-0.152-0.185-0.269-0.339-0.331l-1.719-0.688
		c-0.604-0.25-0.998-0.83-1.005-1.479c-0.009-0.854,0.648-1.564,1.488-1.631V6.749c0-0.276,0.224-0.5,0.5-0.5s0.5,0.224,0.5,0.5v0.5
		h0.812c0.276,0,0.5,0.224,0.5,0.5s-0.224,0.5-0.5,0.5h-1.694C9.961,8.251,9.808,8.317,9.693,8.435
		C9.577,8.553,9.515,8.709,9.516,8.874c0.003,0.248,0.153,0.469,0.382,0.564l1.714,0.686c0.401,0.161,0.716,0.468,0.886,0.865
		c0.17,0.397,0.176,0.837,0.015,1.238c-0.247,0.618-0.837,1.017-1.502,1.017h-0.007v0.505C11.004,14.025,10.78,14.249,10.504,14.249
		z"/>
</g>
</svg>
