<?xml version="1.0" encoding="utf-8"?>
<!-- Generator: Adobe Illustrator 22.1.0, SVG Export Plug-In . SVG Version: 6.00 Build 0)  -->
<svg version="1.1" id="Layer_1" xmlns="http://www.w3.org/2000/svg" xmlns:xlink="http://www.w3.org/1999/xlink" x="0px" y="0px"
	 viewBox="0 0 24 24" style="enable-background:new 0 0 24 24;" xml:space="preserve">
<g>
	<title>monetization-tablet</title>
	<path d="M21.254,24c-0.16,0-0.312-0.077-0.406-0.207l-2.481-3.434c-0.062-0.086-0.094-0.186-0.095-0.291l-0.019-4.566
		c0.031-1.3-1.457-2.624-2.981-3.909v4.161l1.358,1.398c0.192,0.198,0.188,0.515-0.01,0.707C16.528,17.95,16.404,18,16.273,18
		c-0.134,0-0.265-0.055-0.359-0.152L12.659,14.5c-0.141-0.144-0.331-0.223-0.534-0.223c-0.198,0-0.384,0.076-0.525,0.214
		c-0.143,0.14-0.223,0.328-0.225,0.528c-0.002,0.2,0.074,0.389,0.214,0.532l3.54,3.605c0.092,0.094,0.143,0.218,0.143,0.35V21
		c0,0.518,0.825,1.566,1.411,2.144c0.095,0.094,0.148,0.219,0.149,0.353c0.001,0.134-0.05,0.26-0.144,0.355
		C16.594,23.947,16.468,24,16.333,24c-0.133,0-0.257-0.051-0.351-0.144c-0.285-0.281-1.709-1.743-1.709-2.856v-1.291l-3.397-3.459
		c-0.327-0.334-0.505-0.775-0.5-1.242c0.005-0.468,0.191-0.905,0.525-1.232c0.328-0.322,0.763-0.499,1.224-0.499
		c0.475,0,0.918,0.186,1.25,0.524l0.898,0.924v-4.102c-0.021-0.083-0.021-0.168,0-0.249V1.5c0-0.276-0.224-0.5-0.5-0.5H3.754
		c-0.276,0-0.5,0.224-0.5,0.5V15h5.5c0.276,0,0.5,0.224,0.5,0.5S9.029,16,8.754,16h-5.5v2.5c0,0.276,0.224,0.5,0.5,0.5h8
		c0.276,0,0.5,0.224,0.5,0.5s-0.224,0.5-0.5,0.5h-8c-0.827,0-1.5-0.673-1.5-1.5v-17c0-0.827,0.673-1.5,1.5-1.5h10.019
		c0.827,0,1.5,0.673,1.5,1.5v8.784c0.127,0.108,0.255,0.215,0.382,0.323c1.873,1.576,3.642,3.064,3.599,4.905l0.019,4.392
		l2.387,3.304c0.161,0.224,0.111,0.537-0.112,0.698C21.46,23.967,21.359,24,21.254,24z"/>
	<circle cx="8.499" cy="17.25" r="0.75"/>
	<path d="M8.754,12c-0.276,0-0.5-0.224-0.5-0.5V11h-1.5c-0.276,0-0.5-0.224-0.5-0.5s0.224-0.5,0.5-0.5h3c0.276,0,0.5-0.224,0.5-0.5
		S10.029,9,9.754,9h-2c-0.827,0-1.5-0.673-1.5-1.5S6.926,6,7.754,6h0.5V5.5c0-0.276,0.224-0.5,0.5-0.5s0.5,0.224,0.5,0.5V6h1.5
		c0.276,0,0.5,0.224,0.5,0.5S11.029,7,10.754,7h-3c-0.276,0-0.5,0.224-0.5,0.5S7.478,8,7.754,8h2c0.827,0,1.5,0.673,1.5,1.5
		s-0.673,1.5-1.5,1.5h-0.5v0.5C9.254,11.776,9.029,12,8.754,12z"/>
</g>
</svg>
