<?xml version="1.0" encoding="utf-8"?>
<!-- Generator: Adobe Illustrator 22.1.0, SVG Export Plug-In . SVG Version: 6.00 Build 0)  -->
<svg version="1.1" id="Layer_1" xmlns="http://www.w3.org/2000/svg" xmlns:xlink="http://www.w3.org/1999/xlink" x="0px" y="0px"
	 viewBox="0 0 24 24" style="enable-background:new 0 0 24 24;" xml:space="preserve">
<g>
	<title>monetization-user-monitor</title>
	<path d="M5.504,18c-0.276,0-0.5-0.224-0.5-0.5V16c0-0.276,0.224-0.5,0.5-0.5s0.5,0.224,0.5,0.5v1.5C6.004,17.776,5.78,18,5.504,18z
		"/>
	<path d="M10.5,19.5c-0.276,0-0.5-0.224-0.5-0.5v-0.5c0-2.481-2.019-4.5-4.5-4.5S1,16.019,1,18.5V19c0,0.276-0.224,0.5-0.5,0.5
		S0,19.276,0,19v-0.5C0,15.467,2.467,13,5.5,13s5.5,2.467,5.5,5.5V19C11,19.276,10.776,19.5,10.5,19.5z"/>
	<path d="M5.504,12.5c-2.206,0-4-1.794-4-4c0-1.999,1.496-3.703,3.479-3.962c0.006-0.001,0.028-0.004,0.034-0.004
		c0.098-0.013,0.21-0.021,0.324-0.025l0.083-0.004C5.465,4.501,5.484,4.5,5.504,4.5c0.05,0,0.1,0.003,0.149,0.007l0.094,0.005
		c0.029,0.001,0.059,0.002,0.088,0.005c0.091,0.008,0.181,0.02,0.27,0.033c0,0,0.092,0.013,0.12,0.019
		C6.32,4.586,6.411,4.607,6.503,4.631c0,0,0.074,0.019,0.098,0.025C6.698,4.684,6.795,4.717,6.89,4.753l0.069,0.025
		c0.102,0.04,0.202,0.085,0.3,0.133l0.042,0.02c0.105,0.053,0.207,0.111,0.306,0.172c0.001,0,0.022,0.013,0.022,0.014
		c0.103,0.065,0.205,0.136,0.303,0.212C8.932,6.097,9.504,7.252,9.504,8.5C9.504,10.706,7.709,12.5,5.504,12.5z M2.658,7.557
		C2.556,7.863,2.504,8.178,2.504,8.5c0,1.654,1.346,3,3,3c1.576,0,2.872-1.222,2.991-2.768C7.906,8.91,7.295,9,6.676,9
		C5.223,9,3.78,8.478,2.658,7.557z M6.687,8c0.582-0.001,1.153-0.096,1.7-0.283c-0.222-0.833-0.804-1.541-1.59-1.92
		C6.701,5.752,6.627,5.721,6.551,5.693L6.506,5.676C6.435,5.651,6.365,5.629,6.293,5.609L6.224,5.591
		C6.157,5.574,6.09,5.56,6.021,5.548C5.997,5.544,5.971,5.54,5.945,5.536C5.869,5.525,5.803,5.517,5.736,5.512l-0.09-0.004
		C5.593,5.505,5.539,5.503,5.485,5.503L5.376,5.507C5.294,5.51,5.21,5.516,5.125,5.527C4.339,5.629,3.63,6.039,3.149,6.663
		C4.11,7.512,5.376,7.996,6.657,8c0.005,0,0.01,0,0.015,0C6.677,8,6.682,8,6.687,8z"/>
	<path d="M13.171,19.5c-0.276,0-0.5-0.224-0.5-0.5s0.224-0.5,0.5-0.5h3.833v-2h-4c-1.103,0-2-0.897-2-2v-7c0-1.103,0.897-2,2-2h9
		c1.103,0,2,0.897,2,2v7c0,1.103-0.897,2-2,2h-4v2h4.167c0.276,0,0.5,0.224,0.5,0.5s-0.224,0.5-0.5,0.5H13.171z M13.004,6.5
		c-0.552,0-1,0.449-1,1v7c0,0.552,0.448,1,1,1h9c0.552,0,1-0.448,1-1v-7c0-0.551-0.448-1-1-1H13.004z"/>
	<path d="M17.504,14.5c-0.276,0-0.5-0.224-0.5-0.5v-0.5H15.5c-0.276,0-0.5-0.224-0.5-0.5s0.224-0.5,0.5-0.5h3
		c0.276,0,0.5-0.224,0.5-0.5c0-0.276-0.224-0.5-0.5-0.5h-2c-0.827,0-1.5-0.673-1.5-1.5s0.673-1.5,1.5-1.5h0.504V8
		c0-0.276,0.224-0.5,0.5-0.5s0.5,0.224,0.5,0.5v0.5H19.5C19.776,8.5,20,8.724,20,9s-0.224,0.5-0.5,0.5h-3C16.224,9.5,16,9.724,16,10
		s0.224,0.5,0.5,0.5h2c0.827,0,1.5,0.673,1.5,1.5s-0.673,1.5-1.5,1.5h-0.496V14C18.004,14.276,17.78,14.5,17.504,14.5z"/>
</g>
</svg>
