<?xml version="1.0" encoding="utf-8"?>
<!-- Generator: Adobe Illustrator 22.1.0, SVG Export Plug-In . SVG Version: 6.00 Build 0)  -->
<svg version="1.1" id="Layer_1" xmlns="http://www.w3.org/2000/svg" xmlns:xlink="http://www.w3.org/1999/xlink" x="0px" y="0px"
	 viewBox="0 0 24 24" style="enable-background:new 0 0 24 24;" xml:space="preserve">
<g>
	<title>monetization-structure</title>
	<path d="M12.003,9c-0.276,0-0.5-0.224-0.5-0.5V8H9.999c-0.276,0-0.5-0.224-0.5-0.5S9.724,7,9.999,7h3c0.276,0,0.5-0.224,0.5-0.5
		S13.275,6,12.999,6h-2c-0.827,0-1.5-0.673-1.5-1.5s0.673-1.5,1.5-1.5h0.504V2.5c0-0.276,0.224-0.5,0.5-0.5
		c0.276,0,0.5,0.224,0.5,0.5V3h1.496c0.276,0,0.5,0.224,0.5,0.5S14.275,4,13.999,4h-3c-0.276,0-0.5,0.224-0.5,0.5s0.224,0.5,0.5,0.5
		h2c0.827,0,1.5,0.673,1.5,1.5S13.827,8,12.999,8h-0.496v0.5C12.503,8.776,12.279,9,12.003,9z"/>
	<path d="M17.003,24c-0.174,0-0.333-0.089-0.425-0.237c-0.091-0.146-0.099-0.333-0.022-0.487l2.943-5.886V14h-6.996v3h2.5
		c0.276,0,0.5,0.224,0.5,0.5v6c0,0.276-0.224,0.5-0.5,0.5h-6c-0.276,0-0.5-0.224-0.5-0.5v-6c0-0.276,0.224-0.5,0.5-0.5h2.5v-3H4.499
		v3.038c1.702,0.244,3.004,1.721,3.004,3.462c0,1.93-1.57,3.5-3.5,3.5s-3.5-1.57-3.5-3.5c0-1.736,1.298-3.213,2.996-3.461V14
		c0-0.552,0.449-1,1-1h7.004v-2.029c-2.823-0.254-5-2.613-5-5.471c0-3.033,2.467-5.5,5.5-5.5s5.5,2.467,5.5,5.5
		c0,2.858-2.177,5.216-5,5.471V13h6.996c0.552,0,1,0.448,1,1v3.374l2.951,5.902c0.077,0.154,0.069,0.34-0.022,0.487
		C23.337,23.911,23.178,24,23.003,24H17.003z M22.194,23l-2.191-4.382L17.812,23H22.194z M14.503,23v-5h-5v5H14.503z M4.003,18
		c-1.379,0-2.5,1.122-2.5,2.5s1.121,2.5,2.5,2.5s2.5-1.122,2.5-2.5S5.382,18,4.003,18z M12.003,1c-2.481,0-4.5,2.019-4.5,4.5
		s2.019,4.5,4.5,4.5c2.481,0,4.5-2.019,4.5-4.5S14.485,1,12.003,1z"/>
</g>
</svg>
