<svg xmlns="http://www.w3.org/2000/svg" viewBox="0 0 24 24"><title>power-tools-electric-saw-1</title><path d="M23.825,12.194a8.631,8.631,0,0,0-4.567-3.458L22.15,6.4a2.472,2.472,0,0,0,.193-3.67A2.432,2.432,0,0,0,20.465,2a2.473,2.473,0,0,0-1.792.913l-4.856,6L10.338,5.437h0L6.464,1.562A3.787,3.787,0,0,0,1.109,6.917L4.98,10.789l0,0,0,0,3.362,3.361A8.733,8.733,0,0,0,8.7,20.767a1.052,1.052,0,0,0,.633.548,1.027,1.027,0,0,0,.31.047,1.066,1.066,0,0,0,.519-.135l1.006-.571a6.506,6.506,0,0,0,11.291-6.4l1.014-.574a1.049,1.049,0,0,0,.355-1.492ZM19.451,3.546A1.476,1.476,0,0,1,20.518,3a1.5,1.5,0,0,1,1.118.43,1.472,1.472,0,0,1-.115,2.185L17.9,8.547l0,0-2.457,1.99-.913-.913ZM1.816,2.27a2.79,2.79,0,0,1,3.941,0L9.631,6.144a2.787,2.787,0,0,1-3.938,3.944L1.816,6.21A2.79,2.79,0,0,1,1.816,2.27ZM7.659,11.9A3.758,3.758,0,0,0,11.427,7.94l6.723,6.724a2.786,2.786,0,0,1-3.94,3.94L9.269,13.663h0l-1.78-1.781C7.544,11.884,7.6,11.9,7.659,11.9ZM9.6,20.336a7.734,7.734,0,0,1-.462-5.39l3.64,3.64Zm10.875.592a5.525,5.525,0,0,1-7.813,0,5.59,5.59,0,0,1-.635-.759l.242-.137,1.25-.708a3.767,3.767,0,0,0,6.33-3.586l1.047-.594.708-.4A5.541,5.541,0,0,1,20.474,20.928Zm1.091-7.312h0l-1.234.7-.855.484a3.792,3.792,0,0,0-.618-.843l-2.7-2.706,2.15-1.74a7.425,7.425,0,0,1,4.674,3.305Z"/><path d="M16.18,18.229a1.6,1.6,0,1,0-1.128-.467A1.59,1.59,0,0,0,16.18,18.229Zm-.421-2.016a.594.594,0,1,1-.175.421A.594.594,0,0,1,15.759,16.213Z"/><path d="M6.144,8.854a.5.5,0,0,0,.707,0L8.4,7.305A.5.5,0,1,0,7.693,6.6L6.144,8.146A.5.5,0,0,0,6.144,8.854Z"/><path d="M6.851,5.756a.5.5,0,1,0-.707-.707L4.6,6.6a.5.5,0,0,0,.707.707Z"/><path d="M5.3,3.5a.5.5,0,0,0-.707,0l-1.55,1.55A.5.5,0,0,0,3.4,5.9a.494.494,0,0,0,.353-.146L5.3,4.206A.5.5,0,0,0,5.3,3.5Z"/></svg>