<svg xmlns="http://www.w3.org/2000/svg" viewBox="0 0 24 24"><title>power-tools-electric-saw</title><path d="M21.48,14.623l-.767-.767.257-.583,1.349-1.348a1.5,1.5,0,0,0,0-2.121L19.843,7.328a1.5,1.5,0,0,0-2.121,0L16.308,8.743,15.247,9.8,14.54,9.1l.707-.707a.5.5,0,1,0-.707-.707l-.707.707L12.418,6.975l.708-.707a.5.5,0,1,0-.707-.707l-.708.707L10.3,4.854,11,4.146a.5.5,0,1,0-.707-.707l-.707.708L8.176,2.732l.707-.707a.5.5,0,0,0-.707-.707l-.745.745A2.994,2.994,0,0,0,6.2,1.575V.5a.5.5,0,0,0-1,0V1.575a2.994,2.994,0,0,0-1.23.488l-.745-.745a.5.5,0,0,0-.707.707l.743.743A2.978,2.978,0,0,0,2.751,4H1.7a.5.5,0,0,0,0,1h1.05a2.978,2.978,0,0,0,.511,1.232l-.743.743a.5.5,0,0,0,.707.707l.707-.707L5.348,8.389,4.641,9.1a.5.5,0,0,0,.707.707L6.055,9.1l1.414,1.415-.707.707a.5.5,0,0,0,.707.707l.707-.707L9.59,12.632l-.707.707a.5.5,0,0,0,.354.853.494.494,0,0,0,.353-.146l.707-.707.707.707-.353.353a1.5,1.5,0,0,0,0,2.122l5.657,5.657.007,0,0,.006,1.155,1.079A2.518,2.518,0,0,0,19.249,24a2.445,2.445,0,0,0,.605-.075A2.4,2.4,0,0,0,21.638,22.3L22.7,18.762A4.479,4.479,0,0,0,21.48,14.623ZM18.429,8.035a.5.5,0,0,1,.707,0l2.475,2.476a.5.5,0,0,1,0,.707l-1.061,1.06L17.368,9.1Zm-6.718,5.3-5.3-5.3h0L4.287,5.914A2,2,0,1,1,7.115,3.086l7.425,7.425-1.768,1.767Zm-.353,1.767,2.121-2.121L15.6,10.864h0l1.06-1.06L19.955,13.1,16.5,20.954l-5.14-5.141A.5.5,0,0,1,11.358,15.106Zm10.37,3.406-1.048,3.5a1.423,1.423,0,0,1-1.07.946,1.509,1.509,0,0,1-1.44-.405l-.909-.848,3.02-6.863.492.492A3.472,3.472,0,0,1,21.728,18.512Z"/><path d="M15.247,13.339a.5.5,0,0,0-.707,0l-1.768,1.767a.5.5,0,0,0,.354.854.5.5,0,0,0,.353-.147l1.768-1.767A.5.5,0,0,0,15.247,13.339Z"/><path d="M16.661,14.753a.5.5,0,0,0-.707,0l-1.767,1.768a.5.5,0,0,0,.707.707l1.767-1.768A.5.5,0,0,0,16.661,14.753Z"/></svg>