<?xml version="1.0" encoding="utf-8"?>
<!-- Generator: Adobe Illustrator 22.1.0, SVG Export Plug-In . SVG Version: 6.00 Build 0)  -->
<svg version="1.1" id="Light" xmlns="http://www.w3.org/2000/svg" xmlns:xlink="http://www.w3.org/1999/xlink" x="0px" y="0px"
	 viewBox="0 0 24 24" style="enable-background:new 0 0 24 24;" xml:space="preserve">
<g>
	<title>climbing-head-light</title>
	<path d="M13.002,7.999c-1.654,0-3-1.346-3-3h-0.5c-0.276,0-0.5-0.224-0.5-0.5c0-2.206,1.794-4,4-4s4,1.794,4,4
		c0,0.276-0.224,0.5-0.5,0.5h-0.5C16.002,6.653,14.656,7.999,13.002,7.999z M11.002,4.999c0,1.103,0.897,2,2,2s2-0.897,2-2H11.002z
		 M15.96,3.999c-0.24-1.422-1.491-2.5-2.958-2.5c-1.467,0-2.718,1.078-2.958,2.5H15.96z"/>
	<path d="M2.204,10.903c-0.408,0-0.79-0.161-1.074-0.453L0.428,9.732c-0.574-0.591-0.563-1.54,0.024-2.116l3.939-3.843
		c0.281-0.275,0.653-0.426,1.047-0.426c0.408,0,0.789,0.16,1.073,0.451l0.7,0.716c0.28,0.286,0.431,0.665,0.426,1.066
		C7.633,5.981,7.473,6.356,7.186,6.635l-3.935,3.842C2.97,10.752,2.598,10.903,2.204,10.903z M5.438,4.347
		c-0.131,0-0.255,0.05-0.349,0.142L1.151,8.331C0.956,8.522,0.953,8.838,1.144,9.035l0.699,0.715
		c0.097,0.099,0.225,0.154,0.363,0.154c0.131,0,0.254-0.05,0.348-0.141L6.488,5.92c0.096-0.093,0.149-0.218,0.151-0.352
		S6.59,5.309,6.496,5.213l-0.7-0.716C5.702,4.4,5.575,4.347,5.438,4.347z"/>
	<path d="M2.002,24c-0.346,0-0.688-0.091-0.989-0.263c-0.464-0.265-0.797-0.694-0.938-1.21s-0.072-1.055,0.193-1.519l1.599-2.812
		c0.088-0.153,0.134-0.324,0.135-0.498v-3.199C2,13.999,2.186,13.521,2.525,13.153l4.998-5.498c0.194-0.214,0.427-0.38,0.693-0.493
		c0.252-0.108,0.517-0.162,0.787-0.162c0.254,0,0.504,0.048,0.743,0.144c0.496,0.199,0.885,0.578,1.095,1.069l1.023,2.398
		c0.101,0.237,0.287,0.422,0.524,0.523l2.343,1.003c0.014,0.004,0.027,0.008,0.041,0.013c0.043,0.016,0.085,0.035,0.127,0.054
		c0.482,0.226,0.848,0.627,1.03,1.129c0.182,0.502,0.157,1.045-0.069,1.529c-0.226,0.484-0.627,0.851-1.13,1.033
		c-0.221,0.08-0.451,0.121-0.683,0.121l0,0c-0.293,0-0.578-0.064-0.846-0.19l-2.385-1.02c-1.031-0.441-1.875-1.208-2.41-2.182
		l-1.253,1.379l1.511,0.87c1.463,0.934,2.333,2.514,2.339,4.231v2.896c0,1.103-0.897,2-2,2s-2-0.897-2-2v-2.893
		c0.001-0.337-0.166-0.65-0.445-0.836l-0.561-0.322c-0.039,0.784-0.263,1.552-0.654,2.235l-1.599,2.809
		C3.387,23.613,2.72,24,2.002,24z M9.003,7.999c-0.135,0-0.267,0.027-0.394,0.082C8.477,8.137,8.36,8.22,8.263,8.327l-5,5.5
		c-0.169,0.184-0.262,0.422-0.261,0.67v3.202c-0.001,0.349-0.093,0.692-0.267,0.993l-1.599,2.811
		c-0.133,0.233-0.167,0.503-0.097,0.76c0.07,0.258,0.237,0.473,0.469,0.605C1.659,22.955,1.83,23,2.002,23
		c0.36,0,0.694-0.193,0.872-0.504l1.599-2.809c0.346-0.605,0.528-1.292,0.529-1.988v-0.611c0-0.178,0.096-0.344,0.25-0.433
		c0.076-0.044,0.163-0.067,0.251-0.067c0.087,0,0.174,0.023,0.249,0.067l1.332,0.766c0.582,0.387,0.921,1.015,0.919,1.687v2.891
		c0,0.552,0.449,1,1,1s1-0.448,1-1v-2.895c-0.004-1.374-0.698-2.638-1.857-3.378l-2.029-1.168c-0.132-0.076-0.221-0.206-0.245-0.356
		c-0.023-0.15,0.022-0.3,0.124-0.413l2.177-2.395c0.095-0.104,0.229-0.164,0.37-0.164c0.028,0,0.056,0.002,0.084,0.007
		c0.168,0.028,0.309,0.14,0.376,0.297l0.108,0.254c0.405,0.947,1.151,1.693,2.099,2.098l2.4,1.027
		c0.146,0.068,0.292,0.101,0.44,0.101c0.115,0,0.229-0.02,0.34-0.06c0.251-0.091,0.452-0.274,0.565-0.516
		c0.114-0.242,0.126-0.513,0.035-0.764s-0.274-0.452-0.516-0.565l-0.013-0.006c-0.023-0.006-0.045-0.014-0.066-0.023l-2.397-1.026
		c-0.475-0.202-0.848-0.575-1.051-1.05L9.922,8.605C9.817,8.36,9.623,8.17,9.375,8.071C9.255,8.023,9.13,7.999,9.003,7.999z"/>
	<path d="M18.002,3.499c-0.196,0-0.375-0.115-0.456-0.293c-0.055-0.121-0.06-0.257-0.013-0.382c0.047-0.125,0.14-0.224,0.261-0.28
		l5.5-2.5c0.066-0.03,0.135-0.045,0.207-0.045c0.196,0,0.374,0.115,0.455,0.294c0.055,0.121,0.06,0.257,0.013,0.382
		c-0.047,0.125-0.14,0.224-0.261,0.28l-5.5,2.5C18.143,3.484,18.074,3.499,18.002,3.499z"/>
	<path d="M23.502,7.999c-0.072,0-0.141-0.015-0.206-0.045l-5.5-2.5c-0.122-0.055-0.214-0.155-0.261-0.28
		c-0.047-0.125-0.042-0.261,0.013-0.382c0.08-0.178,0.259-0.293,0.455-0.293c0.072,0,0.141,0.015,0.207,0.045l5.5,2.5
		c0.122,0.055,0.214,0.155,0.261,0.28c0.047,0.125,0.042,0.261-0.013,0.382C23.877,7.884,23.698,7.999,23.502,7.999z"/>
</g>
</svg>
