<?xml version="1.0" encoding="utf-8"?>
<!-- Generator: Adobe Illustrator 22.1.0, SVG Export Plug-In . SVG Version: 6.00 Build 0)  -->
<svg version="1.1" id="Light" xmlns="http://www.w3.org/2000/svg" xmlns:xlink="http://www.w3.org/1999/xlink" x="0px" y="0px"
	 viewBox="0 0 24 24" style="enable-background:new 0 0 24 24;" xml:space="preserve">
<g>
	<title>casino-pull-machine-slot</title>
	<path d="M9.5,10C8.122,10,7,8.879,7,7.5S8.122,5,9.5,5S12,6.121,12,7.5S10.879,10,9.5,10z M9.5,6C8.673,6,8,6.673,8,7.5
		S8.673,9,9.5,9S11,8.327,11,7.5S10.327,6,9.5,6z"/>
	<path d="M0.5,24C0.224,24,0,23.776,0,23.5v-23C0,0.224,0.224,0,0.5,0S1,0.224,1,0.5v13.61l2.864,0.716
		C4.533,14.993,5,15.592,5,16.281V18h2.5C8.327,18,9,17.327,9,16.5v-2.561c-0.869-0.217-1.504-1.01-1.51-1.927
		C7.484,10.91,8.375,10.007,9.478,10l2.908-0.012c0.033,0,0.067-0.002,0.101-0.004c0.825-0.06,1.447-0.781,1.387-1.606l-0.116-1.56
		c-0.044-0.644-0.331-1.235-0.806-1.667c-0.2-0.179-0.418-0.342-0.647-0.483c-0.708-0.436-1.521-0.666-2.35-0.666
		c-1.58,0-3.016,0.8-3.841,2.141c-0.374,0.627-1.064,1.019-1.8,1.019c-0.298,0-0.587-0.062-0.86-0.185
		C3.386,6.946,3.329,6.916,3.274,6.883C2.83,6.619,2.515,6.196,2.387,5.694C2.26,5.191,2.335,4.67,2.6,4.225
		c0.385-0.662,0.86-1.272,1.412-1.81c1.594-1.555,3.701-2.411,5.933-2.411c2.314,0,4.476,0.91,6.087,2.562l7.815,7.488
		c0.097,0.092,0.151,0.217,0.154,0.35c0.003,0.134-0.047,0.26-0.139,0.357c-0.093,0.098-0.225,0.154-0.361,0.154
		c-0.13,0-0.252-0.049-0.346-0.139l-7.827-7.5c-1.431-1.467-3.341-2.272-5.385-2.272c-1.969,0-3.827,0.755-5.233,2.126
		C4.223,3.606,3.803,4.145,3.462,4.732C3.331,4.952,3.294,5.205,3.356,5.448s0.214,0.448,0.43,0.576
		C3.813,6.04,3.84,6.055,3.869,6.068C4.007,6.13,4.158,6.162,4.312,6.162c0.386,0,0.748-0.206,0.946-0.538
		c1.011-1.643,2.766-2.623,4.697-2.623c1.014,0,2.007,0.281,2.873,0.814c0.281,0.172,0.548,0.372,0.794,0.593
		c0.67,0.608,1.072,1.438,1.134,2.338l0.115,1.558c0.049,0.667-0.165,1.312-0.601,1.817c-0.437,0.505-1.043,0.811-1.709,0.859
		c-0.057,0.004-0.113,0.006-0.169,0.007L9.483,11c-0.55,0.004-0.996,0.455-0.992,1.006C8.494,12.554,8.943,13,9.491,13l5.666,0.319
		l0.045-0.001c1.144,0,2.279,0.473,3.114,1.298l5.537,5.467c0.095,0.094,0.148,0.219,0.149,0.353s-0.05,0.259-0.144,0.354
		c-0.095,0.096-0.221,0.149-0.356,0.149c-0.133,0-0.257-0.051-0.351-0.144l-5.537-5.467c-0.649-0.642-1.544-1.01-2.457-1.01H15.13
		L10,14.029V16.5c0,1.378-1.121,2.5-2.5,2.5H5v1.719c0,0.689-0.467,1.288-1.136,1.455L1,22.89v0.61C1,23.776,0.776,24,0.5,24z
		 M1,21.859l2.622-0.655C3.845,21.148,4,20.949,4,20.719v-4.438c0-0.23-0.156-0.429-0.378-0.485L1,15.141V21.859z"/>
</g>
</svg>
