<?xml version="1.0" encoding="utf-8"?>
<!-- Generator: Adobe Illustrator 22.1.0, SVG Export Plug-In . SVG Version: 6.00 Build 0)  -->
<svg version="1.1" id="Light" xmlns="http://www.w3.org/2000/svg" xmlns:xlink="http://www.w3.org/1999/xlink" x="0px" y="0px"
	 viewBox="0 0 24 24" style="enable-background:new 0 0 24 24;" xml:space="preserve">
<g>
	<title>casino-777-winner</title>
	<path d="M1.5,12C0.673,12,0,11.327,0,10.5v-9C0,0.673,0.673,0,1.5,0h21C23.327,0,24,0.673,24,1.5v6.981c0,0.276-0.224,0.5-0.5,0.5
		S23,8.757,23,8.481V1.5C23,1.224,22.776,1,22.5,1h-21C1.224,1,1,1.224,1,1.5v9C1,10.776,1.224,11,1.5,11h9
		c0.276,0,0.5,0.224,0.5,0.5S10.776,12,10.5,12H1.5z"/>
	<path d="M15.5,7.507c-0.276,0-0.5-0.224-0.5-0.5V2.5C15,2.224,15.224,2,15.5,2S16,2.224,16,2.5v4.507
		C16,7.283,15.776,7.507,15.5,7.507z"/>
	<path d="M8.5,10C8.224,10,8,9.776,8,9.5v-7C8,2.224,8.224,2,8.5,2S9,2.224,9,2.5v7C9,9.776,8.776,10,8.5,10z"/>
	<path d="M11,9c-0.077,0-0.154-0.018-0.223-0.053c-0.247-0.123-0.347-0.424-0.224-0.671L12.691,4L10.5,4C10.224,4,10,3.776,10,3.5
		S10.224,3,10.5,3h2.191c0.552,0,1,0.449,1,1c0,0.155-0.037,0.31-0.106,0.448l-2.137,4.276C11.362,8.894,11.19,9,11,9z"/>
	<path d="M4,9C3.923,9,3.845,8.982,3.776,8.947C3.53,8.824,3.429,8.523,3.553,8.276L5.691,4L3.5,4C3.224,4,3,3.776,3,3.5
		S3.224,3,3.5,3h2.191c0.551,0,1,0.449,1,1c0,0.155-0.037,0.31-0.106,0.448L4.447,8.724C4.362,8.894,4.19,9,4,9z"/>
	<path d="M18.759,7.482c-0.077,0-0.154-0.018-0.223-0.053c-0.247-0.123-0.347-0.424-0.224-0.671L19.691,4L17.5,4
		C17.224,4,17,3.776,17,3.5S17.224,3,17.5,3h2.191c0.552,0,1,0.449,1,1c0,0.155-0.037,0.31-0.106,0.448l-1.378,2.758
		C19.121,7.376,18.95,7.482,18.759,7.482z"/>
	<path d="M11,24c-3.421,0-6-1.29-6-3v-3c0-1.71,2.579-3,6-3c0.334,0,0.669,0.013,1,0.04V12c0-1.71,2.579-3,6-3s6,1.29,6,3v6
		c0,1.71-2.579,3-6,3c-0.319,0-0.647-0.015-1-0.045V21C17,22.71,14.421,24,11,24z M6,21c0,1.145,2.64,2,5,2c2.36,0,5-0.855,5-2
		v-1.304C14.917,20.51,13.073,21,11,21s-3.917-0.49-5-1.304V21z M17,19.952C17.351,19.984,17.676,20,17.989,20
		C20.36,20,23,19.145,23,18v-1.304C21.917,17.51,20.073,18,18,18c-0.338,0-0.671-0.013-1-0.04C17,17.973,17,19.952,17,19.952z
		 M11,16c-2.36,0-5,0.855-5,2s2.64,2,5,2c2.36,0,5-0.855,5-2S13.36,16,11,16z M16.621,16.916C17.078,16.972,17.536,17,17.985,17
		C20.36,17,23,16.145,23,15v-1.304C21.917,14.51,20.073,15,18,15s-3.917-0.49-5-1.304v1.465
		C14.703,15.447,16.006,16.078,16.621,16.916z M18,10c-2.36,0-5,0.855-5,2c0,1.145,2.64,2,5,2s5-0.855,5-2C23,10.855,20.36,10,18,10
		z"/>
</g>
</svg>
