<?xml version="1.0" encoding="utf-8"?>
<!-- Generator: Adobe Illustrator 22.1.0, SVG Export Plug-In . SVG Version: 6.00 Build 0)  -->
<svg version="1.1" id="Light" xmlns="http://www.w3.org/2000/svg" xmlns:xlink="http://www.w3.org/1999/xlink" x="0px" y="0px"
	 viewBox="0 0 24 24" style="enable-background:new 0 0 24 24;" xml:space="preserve">
<g>
	<title>casino-chip-5</title>
	<path d="M10.872,15c-0.276,0-0.5-0.224-0.5-0.5s0.224-0.5,0.5-0.5h0.878c0.414,0,0.75-0.336,0.75-0.75s-0.336-0.75-0.75-0.75H11
		c-0.276,0-0.5-0.224-0.5-0.5V9.5C10.5,9.224,10.724,9,11,9h2c0.276,0,0.5,0.224,0.5,0.5S13.276,10,13,10h-1.5v1.5h0.25
		c0.965,0,1.75,0.785,1.75,1.75S12.715,15,11.75,15H10.872z"/>
	<circle cx="12" cy="3.5" r="0.75"/>
	<circle cx="3.5" cy="12" r="0.75"/>
	<circle cx="12" cy="20.5" r="0.75"/>
	<circle cx="20.5" cy="12" r="0.75"/>
	<path d="M12,24c-1.837,0-3.604-0.408-5.25-1.212c-0.009-0.003-0.018-0.006-0.026-0.009c-0.026-0.011-0.047-0.024-0.06-0.034
		c-2.324-1.158-4.241-3.073-5.403-5.396c-0.013-0.02-0.029-0.044-0.042-0.075c-0.003-0.007-0.006-0.016-0.009-0.024
		C0.408,15.604,0,13.837,0,12c0-1.838,0.408-3.604,1.212-5.25C1.215,6.742,1.217,6.735,1.22,6.728
		c0.012-0.029,0.026-0.051,0.036-0.064C2.41,4.342,4.332,2.418,6.665,1.255c0.014-0.01,0.034-0.023,0.06-0.034
		C6.733,1.218,6.741,1.215,6.75,1.212C8.396,0.408,10.163,0,12,0c1.838,0,3.604,0.408,5.25,1.212
		c0.009,0.003,0.017,0.005,0.025,0.009c0.027,0.012,0.048,0.025,0.061,0.035c2.322,1.154,4.246,3.076,5.409,5.409
		c0.011,0.015,0.024,0.036,0.036,0.063c0.003,0.007,0.006,0.015,0.008,0.024C23.592,8.397,24,10.163,24,12
		c0,1.837-0.408,3.604-1.212,5.25c-0.003,0.009-0.006,0.018-0.009,0.025c-0.013,0.032-0.03,0.058-0.042,0.075
		c-1.162,2.322-3.079,4.237-5.402,5.395c-0.014,0.01-0.035,0.023-0.061,0.034c-0.007,0.003-0.015,0.006-0.024,0.008
		C15.604,23.592,13.837,24,12,24z M7.568,22.065C8.97,22.686,10.46,23,12,23s3.03-0.314,4.432-0.935l-1.94-4.609
		C13.707,17.817,12.87,18,12,18c-0.87,0-1.707-0.183-2.492-0.544L7.568,22.065z M17.329,21.618c1.809-1.005,3.284-2.48,4.289-4.289
		l-4.656-1.96c-0.425,0.623-0.97,1.168-1.593,1.593L17.329,21.618z M2.382,17.329c1.005,1.809,2.48,3.284,4.289,4.289l1.96-4.656
		c-0.623-0.425-1.168-0.97-1.593-1.593L2.382,17.329z M12,7c-2.757,0-5,2.243-5,5c0,2.757,2.243,5,5,5c2.757,0,5-2.243,5-5
		C17,9.243,14.757,7,12,7z M22.065,16.432C22.686,15.03,23,13.54,23,12s-0.314-3.03-0.935-4.432l-4.609,1.94
		C17.817,10.293,18,11.13,18,12c0,0.87-0.183,1.707-0.544,2.492L22.065,16.432z M1.935,7.568C1.314,8.97,1,10.46,1,12
		s0.314,3.03,0.935,4.432l4.609-1.94C6.183,13.707,6,12.87,6,12c0-0.87,0.183-1.707,0.544-2.492L1.935,7.568z M15.368,7.039
		c0.623,0.425,1.168,0.97,1.593,1.593l4.656-1.96c-1.005-1.809-2.48-3.284-4.289-4.289L15.368,7.039z M7.039,8.632
		c0.425-0.623,0.97-1.168,1.593-1.593l-1.96-4.656c-1.809,1.005-3.284,2.48-4.289,4.289L7.039,8.632z M12,6
		c0.87,0,1.707,0.183,2.492,0.544l1.94-4.609C15.03,1.314,13.54,1,12,1S8.97,1.314,7.568,1.935l1.94,4.609
		C10.293,6.183,11.13,6,12,6z"/>
</g>
</svg>
