<?xml version="1.0" encoding="utf-8"?>
<!-- Generator: Adobe Illustrator 22.1.0, SVG Export Plug-In . SVG Version: 6.00 Build 0)  -->
<svg version="1.1" id="Light" xmlns="http://www.w3.org/2000/svg" xmlns:xlink="http://www.w3.org/1999/xlink" x="0px" y="0px"
	 viewBox="0 0 24 24" style="enable-background:new 0 0 24 24;" xml:space="preserve">
<g>
	<title>casino-lucky-7</title>
	<path d="M9.4,24c-0.828,0-1.5-0.672-1.502-1.497c0-0.033,0.001-0.065,0.003-0.097c0.493-5.297,2.74-10.319,6.352-14.235
		c-0.226,0.03-0.453,0.045-0.68,0.045c-0.063,0-0.127-0.001-0.191-0.003c0,0,0,0,0,0c-1.022,0-2.1-0.412-3.142-0.811
		C9.396,7.08,8.602,6.777,8.016,6.777C7.968,6.775,7.93,6.774,7.892,6.774c-1.232,0-2.291,0.835-2.576,2.03
		C5.184,9.492,4.566,9.999,3.849,10H2.776c-0.827,0-1.5-0.673-1.5-1.5v-7c0-0.827,0.673-1.5,1.5-1.5h1
		c0.663,0,1.236,0.443,1.43,1.049c1.076-0.669,2.307-1.02,3.583-1.02c0.107,0,0.215,0.003,0.322,0.008c0,0,0.001,0,0.002,0
		c1.508,0,2.466,0.383,3.391,0.753c0.877,0.351,1.706,0.682,3.044,0.682c1.419-0.018,2.843-0.364,4.117-1.001
		c0.208-0.104,0.44-0.159,0.671-0.159c0.444,0,0.863,0.197,1.15,0.539l0.89,1.069c0.346,0.415,0.442,0.987,0.25,1.493
		c-1.226,3.236-5.267,14.187-5.805,19.246c-0.081,0.764-0.722,1.34-1.489,1.341C15.331,24,9.4,24,9.4,24z M16.636,7.232
		c-4.377,3.882-7.198,9.44-7.739,15.252l0,0.018C8.898,22.776,9.123,23,9.398,23h5.933c0.255,0,0.469-0.193,0.496-0.447
		c0.551-5.177,4.628-16.23,5.864-19.495c0.064-0.169,0.032-0.359-0.083-0.498l-0.89-1.068c-0.095-0.114-0.234-0.18-0.382-0.18
		c-0.078,0-0.153,0.018-0.224,0.053c-1.407,0.704-2.983,1.087-4.557,1.106c-1.538,0-2.496-0.383-3.422-0.754
		c-0.877-0.351-1.706-0.682-3.045-0.682C8.982,1.031,8.889,1.029,8.796,1.029c-1.35,0-2.664,0.472-3.702,1.328
		C5.005,2.431,4.892,2.472,4.776,2.472c-0.073,0-0.147-0.016-0.213-0.048c-0.174-0.082-0.287-0.26-0.287-0.452V1.5
		c0-0.276-0.224-0.5-0.5-0.5h-1c-0.276,0-0.5,0.224-0.5,0.5v7c0,0.276,0.224,0.5,0.5,0.5h1.073c0.239,0,0.445-0.171,0.49-0.406
		c0.396-1.665,1.854-2.82,3.55-2.82c0.049,0,0.099,0.001,0.149,0.003c0,0,0,0,0.001,0c0.75,0,1.628,0.335,2.557,0.69
		c0.96,0.367,1.95,0.745,2.805,0.745c0.057,0.002,0.105,0.003,0.153,0.003c0.888,0,1.74-0.266,2.463-0.769
		c0.214-0.189,0.432-0.374,0.654-0.556c0.089-0.073,0.202-0.113,0.317-0.113c0.14,0,0.274,0.059,0.369,0.162
		c0.179,0.196,0.175,0.498-0.011,0.688C17.127,6.848,16.889,7.052,16.636,7.232z"/>
</g>
</svg>
