<?xml version="1.0" encoding="utf-8"?>
<!-- Generator: Adobe Illustrator 22.1.0, SVG Export Plug-In . SVG Version: 6.00 Build 0)  -->
<svg version="1.1" id="Light" xmlns="http://www.w3.org/2000/svg" xmlns:xlink="http://www.w3.org/1999/xlink" x="0px" y="0px"
	 viewBox="0 0 24 24" style="enable-background:new 0 0 24 24;" xml:space="preserve">
<g>
	<title>casino-player-luck</title>
	<path d="M15.347,24c-0.276,0-0.5-0.224-0.5-0.5v-3c0-0.276,0.224-0.5,0.5-0.5h1c1.378,0,2.5-1.122,2.5-2.5v-3
		c0-0.276,0.224-0.5,0.5-0.5h2.81c-0.162-0.503-0.321-1.015-0.481-1.53C19.92,6.831,18.106,1,11.347,1l-0.097,0
		c-4.812,0-8.838,3.607-9.364,8.391c-0.304,3.22,1.135,6.408,3.755,8.316c0.129,0.094,0.206,0.245,0.206,0.404V23.5
		c0,0.276-0.224,0.5-0.5,0.5s-0.5-0.224-0.5-0.5v-5.139c-2.771-2.127-4.284-5.591-3.956-9.072c0.583-5.298,5.034-9.29,10.355-9.29
		l0.106,0c7.49,0,9.503,6.467,11.278,12.173l0.014,0.044c0.155,0.497,0.309,0.991,0.465,1.477c0.032,0.101,0.048,0.204,0.048,0.306
		c0,0.552-0.448,1-1,1h-2.31v2.5c0,1.93-1.57,3.5-3.5,3.5h-0.5v2.5C15.847,23.776,15.622,24,15.347,24z"/>
	<path d="M9.539,17.023c-0.157,0-0.315-0.019-0.47-0.056c-0.52-0.125-0.959-0.444-1.239-0.9c-0.243-0.397-0.339-0.856-0.277-1.312
		c-0.018,0.002-0.036,0.005-0.054,0.006c-0.072,0.008-0.145,0.012-0.218,0.012c-1.021,0-1.874-0.769-1.983-1.788
		c-0.057-0.531,0.096-1.053,0.432-1.469c0.335-0.416,0.813-0.676,1.344-0.733l1.854-0.323l-1.886-0.328
		c-0.507-0.054-0.98-0.314-1.313-0.73c-0.334-0.417-0.487-0.938-0.43-1.467C5.407,6.919,6.261,6.15,7.284,6.15
		c0.071,0,0.143,0.004,0.215,0.012c0.024,0.003,0.048,0.006,0.073,0.009C7.556,5.68,7.71,5.216,8.012,4.84
		c0.335-0.418,0.812-0.679,1.344-0.736c0.072-0.008,0.143-0.011,0.213-0.011c0.928,0,1.728,0.63,1.944,1.533
		c0.001,0.004,0.005,0.022,0.006,0.026l0.328,1.89l0.327-1.885c0.13-0.545,0.45-0.99,0.906-1.269
		c0.315-0.193,0.675-0.295,1.041-0.295c0.157,0,0.316,0.019,0.47,0.056c0.93,0.223,1.568,1.078,1.532,2.022
		c0.093-0.014,0.191-0.021,0.289-0.021c0.91,0,1.725,0.646,1.939,1.535c0.257,1.073-0.406,2.154-1.478,2.412
		c-0.08,0.019-0.162,0.034-0.244,0.043l-1.863,0.324l1.877,0.326c0.067,0.007,0.149,0.021,0.229,0.041
		c1.072,0.258,1.735,1.34,1.478,2.412c-0.217,0.903-1.017,1.533-1.946,1.533c-0.095,0-0.19-0.007-0.285-0.021
		c0.027,0.954-0.607,1.802-1.529,2.024c-0.155,0.037-0.313,0.056-0.47,0.056c-0.366,0-0.726-0.102-1.042-0.295
		c-0.456-0.279-0.775-0.719-0.9-1.239l-0.334-1.917l-0.326,1.878c-0.007,0.068-0.021,0.149-0.041,0.23
		c-0.125,0.519-0.444,0.959-0.9,1.238C10.265,16.921,9.905,17.023,9.539,17.023z M8.167,13.642c0.132,0,0.261,0.053,0.354,0.147
		c0.114,0.114,0.166,0.277,0.139,0.437l-0.09,0.53c-0.069,0.291-0.029,0.558,0.113,0.789c0.14,0.228,0.359,0.387,0.619,0.45
		c0.078,0.019,0.157,0.028,0.236,0.028c0.182,0,0.362-0.051,0.52-0.148c0.228-0.14,0.388-0.36,0.45-0.619
		c0.01-0.042,0.017-0.084,0.022-0.127c0-0.004,0.003-0.025,0.004-0.029l0.699-4.024l-4.02,0.698
		c-0.296,0.033-0.534,0.16-0.704,0.371c-0.168,0.208-0.244,0.469-0.216,0.734c0.028,0.266,0.159,0.504,0.366,0.672
		c0.18,0.145,0.396,0.222,0.624,0.222c0.036,0,0.073-0.002,0.11-0.006c0.043-0.005,0.086-0.012,0.128-0.022l0.562-0.097
		C8.113,13.644,8.14,13.642,8.167,13.642z M13.159,15.096c0.056,0.23,0.219,0.45,0.443,0.588c0.158,0.097,0.338,0.148,0.52,0.148
		c0.079,0,0.158-0.01,0.236-0.028c0.487-0.117,0.814-0.581,0.761-1.079l-0.086-0.499c-0.027-0.16,0.025-0.324,0.139-0.438
		c0.094-0.094,0.22-0.146,0.354-0.146c0.027,0,0.054,0.002,0.081,0.007l0.533,0.09c0.098,0.023,0.18,0.033,0.262,0.033
		c0.467,0,0.868-0.314,0.976-0.765c0.129-0.536-0.203-1.077-0.739-1.206c-0.042-0.01-0.084-0.017-0.127-0.022
		c-0.004,0-0.025-0.003-0.029-0.004l-4.024-0.699L13.159,15.096z M7.284,7.15c-0.229,0-0.445,0.077-0.625,0.222
		C6.451,7.54,6.32,7.778,6.292,8.044C6.233,8.592,6.632,9.086,7.18,9.145l4.053,0.703l-0.697-4.012
		c-0.105-0.424-0.514-0.744-0.968-0.744c-0.035,0-0.071,0.002-0.106,0.006C8.913,5.157,8.515,5.651,8.574,6.199l0.086,0.499
		c0.027,0.16-0.025,0.323-0.139,0.438C8.427,7.229,8.298,7.282,8.165,7.282c-0.027,0-0.053-0.002-0.08-0.006l-0.532-0.09
		C7.481,7.169,7.437,7.161,7.392,7.156C7.356,7.152,7.32,7.15,7.284,7.15z M14.123,5.092c-0.182,0-0.362,0.051-0.52,0.148
		c-0.228,0.14-0.387,0.359-0.45,0.619l-0.692,3.989l4.021-0.698c0.005-0.001,0.025-0.004,0.03-0.004
		c0.044-0.005,0.087-0.012,0.129-0.022c0.536-0.129,0.867-0.67,0.738-1.206c-0.108-0.451-0.508-0.767-0.972-0.767
		c-0.078,0-0.157,0.009-0.234,0.028l-0.562,0.097c-0.029,0.005-0.057,0.007-0.084,0.007c-0.134,0-0.26-0.052-0.354-0.146
		c-0.114-0.114-0.167-0.277-0.14-0.437l0.09-0.53c0.05-0.474-0.278-0.931-0.765-1.048C14.281,5.101,14.201,5.092,14.123,5.092z"/>
</g>
</svg>
