<?xml version="1.0" encoding="utf-8"?>
<!-- Generator: Adobe Illustrator 22.1.0, SVG Export Plug-In . SVG Version: 6.00 Build 0)  -->
<svg version="1.1" id="Light" xmlns="http://www.w3.org/2000/svg" xmlns:xlink="http://www.w3.org/1999/xlink" x="0px" y="0px"
	 viewBox="0 0 24 24" style="enable-background:new 0 0 24 24;" xml:space="preserve">
<g>
	<title>casino-winner-chip</title>
	<path d="M17.5,24c-2.293,0-4.44-1.232-5.607-3.217c-0.009-0.011-0.018-0.024-0.023-0.033c-0.007-0.013-0.013-0.025-0.017-0.036
		C11.297,19.742,11,18.629,11,17.5c0-1.126,0.296-2.238,0.855-3.216c0.004-0.011,0.009-0.021,0.014-0.03
		c0.007-0.012,0.016-0.026,0.026-0.038C13.051,12.237,15.201,11,17.5,11c2.295,0,4.441,1.233,5.608,3.219
		c0.007,0.009,0.013,0.018,0.018,0.025c0.007,0.012,0.014,0.026,0.02,0.041C23.703,15.257,24,16.371,24,17.5
		c0,1.126-0.295,2.238-0.855,3.216c-0.005,0.012-0.01,0.024-0.016,0.034c-0.007,0.012-0.015,0.024-0.024,0.035
		C21.938,22.769,19.792,24,17.5,24z M18,22.976c1.597-0.146,3.058-0.99,3.99-2.306l-1.742-1.006
		c-0.558,0.708-1.358,1.17-2.248,1.297V22.976z M13.01,20.67c0.932,1.316,2.393,2.161,3.99,2.306v-2.015
		c-0.89-0.127-1.69-0.589-2.248-1.297L13.01,20.67z M17.5,15c-1.378,0-2.5,1.122-2.5,2.5s1.122,2.5,2.5,2.5s2.5-1.122,2.5-2.5
		S18.878,15,17.5,15z M22.492,19.805C22.829,19.08,23,18.306,23,17.5s-0.171-1.58-0.508-2.305l-1.745,1.008
		C20.915,16.618,21,17.054,21,17.5s-0.085,0.882-0.253,1.297L22.492,19.805z M12.508,15.195C12.171,15.92,12,16.694,12,17.5
		s0.171,1.58,0.508,2.305l1.745-1.008C14.085,18.382,14,17.946,14,17.5s0.085-0.882,0.253-1.297L12.508,15.195z M18,14.039
		c0.89,0.127,1.69,0.589,2.248,1.297l1.742-1.006c-0.932-1.316-2.393-2.161-3.99-2.307V14.039z M14.752,15.336
		c0.558-0.708,1.358-1.17,2.248-1.297v-2.015c-1.597,0.146-3.058,0.99-3.99,2.307L14.752,15.336z"/>
	<path d="M4,20c-0.276,0-0.5-0.224-0.5-0.5S3.724,19,4,19h5.5c0.276,0,0.5,0.224,0.5,0.5S9.776,20,9.5,20H4z"/>
	<path d="M21.233,10.923c-0.028,0-0.056-0.002-0.085-0.007c-0.273-0.047-0.455-0.307-0.408-0.578l0.146-0.838
		c-0.196,0.251-0.406,0.49-0.629,0.718c-0.095,0.097-0.222,0.15-0.357,0.15c0,0,0,0,0,0c-0.132,0-0.256-0.051-0.35-0.143
		c-0.095-0.094-0.149-0.219-0.15-0.352c-0.001-0.134,0.05-0.26,0.143-0.355c0.853-0.87,1.483-1.943,1.832-3.118
		C20.564,6.133,20,5.373,20,4.5c0-1.103,0.897-2,2-2s2,0.897,2,2c0,0.945-0.663,1.754-1.571,1.952
		c-0.12,0.692-0.396,2.284-0.704,4.056C21.684,10.749,21.477,10.923,21.233,10.923z M22,3.5c-0.552,0-1,0.449-1,1s0.448,1,1,1
		s1-0.449,1-1S22.552,3.5,22,3.5z"/>
	<path d="M4.418,18c-0.486-0.002-0.899-0.349-0.983-0.826c-0.332-1.882-1.57-9.025-1.864-10.722C0.663,6.254,0,5.445,0,4.5
		c0-1.103,0.897-2,2-2s2,0.897,2,2c0,0.874-0.564,1.634-1.376,1.899C2.998,7.62,4.181,10.5,7,10.5c2.922,0,4.102-4.216,4.406-5.574
		C10.302,4.656,9.5,3.657,9.5,2.5C9.5,1.121,10.621,0,12,0c1.378,0,2.5,1.121,2.5,2.5c0,1.157-0.803,2.157-1.906,2.426
		c0.228,1.028,0.898,3.458,2.34,4.745c0.1,0.089,0.159,0.211,0.166,0.345c0.008,0.133-0.037,0.262-0.126,0.361
		c-0.094,0.106-0.23,0.167-0.373,0.167l0,0c-0.123,0-0.241-0.045-0.333-0.127c-1.136-1.014-1.842-2.538-2.269-3.855
		c-0.161,0.492-0.343,0.96-0.545,1.397C10.385,10.276,8.845,11.5,7,11.5c-1.808,0-3.053-0.929-3.88-1.968
		c0.475,2.74,1.082,6.235,1.3,7.468H9c0.276,0,0.5,0.224,0.5,0.5S9.276,18,9,18H4.418z M2,3.5c-0.551,0-1,0.449-1,1s0.449,1,1,1
		s1-0.449,1-1S2.551,3.5,2,3.5z M12,1c-0.827,0-1.5,0.673-1.5,1.5S11.173,4,12,4s1.5-0.673,1.5-1.5S12.827,1,12,1z"/>
</g>
</svg>
