<?xml version="1.0" encoding="utf-8"?>
<!-- Generator: Adobe Illustrator 22.1.0, SVG Export Plug-In . SVG Version: 6.00 Build 0)  -->
<svg version="1.1" id="Light" xmlns="http://www.w3.org/2000/svg" xmlns:xlink="http://www.w3.org/1999/xlink" x="0px" y="0px"
	 viewBox="0 0 24 24" style="enable-background:new 0 0 24 24;" xml:space="preserve">
<g>
	<title>casino-lucky-horseshoe</title>
	<path d="M12,24C6.486,24,2,19.514,2,14c0-0.061,0.034-6.091,3-10.65V1.5C5,0.673,5.673,0,6.5,0h3C10.327,0,11,0.673,11,1.5v2.7
		c0.001,0.289-0.082,0.57-0.239,0.814c-1.613,2.385-2.564,5.156-2.754,8.02C8.008,15.777,10.192,18,12,18
		c1.808,0,3.992-2.23,3.992-5c-0.189-2.837-1.139-5.603-2.747-7.98C13.084,4.77,13,4.488,13,4.201V1.5C13,0.673,13.673,0,14.5,0h3
		C18.327,0,19,0.673,19,1.5v1.85c2.966,4.559,3,10.589,3,10.65C22,19.514,17.514,24,12,24z M5.773,4C3.039,8.292,3,13.943,3,14
		c0,4.963,4.037,9,9,9s9-4.037,9-9c0-0.057-0.04-5.709-2.773-10H15.5C15.224,4,15,3.776,15,3.5S15.224,3,15.5,3H18V1.5
		C18,1.224,17.776,1,17.5,1h-3C14.224,1,14,1.224,14,1.5v2.7c0,0.095,0.028,0.189,0.08,0.27c1.702,2.516,2.71,5.456,2.911,8.497
		c0.001,1.363-0.537,2.865-1.437,4.035C14.563,18.291,13.301,19,12,19c-2.765,0-4.992-3.282-4.992-6
		C7.211,9.933,8.22,6.987,9.927,4.463C9.973,4.391,10,4.296,10,4.201V1.5C10,1.224,9.776,1,9.5,1h-3C6.224,1,6,1.224,6,1.5V3h2.5
		C8.776,3,9,3.224,9,3.5S8.776,4,8.5,4H5.773z"/>
	<circle cx="12" cy="21" r="0.75"/>
	<circle cx="5" cy="15" r="0.75"/>
	<circle cx="6.5" cy="7" r="0.75"/>
	<circle cx="19" cy="15" r="0.75"/>
	<circle cx="17.5" cy="7" r="0.75"/>
</g>
</svg>
