<?xml version="1.0" encoding="utf-8"?>
<!-- Generator: Adobe Illustrator 22.1.0, SVG Export Plug-In . SVG Version: 6.00 Build 0)  -->
<svg version="1.1" id="Light" xmlns="http://www.w3.org/2000/svg" xmlns:xlink="http://www.w3.org/1999/xlink" x="0px" y="0px"
	 viewBox="0 0 24 24" style="enable-background:new 0 0 24 24;" xml:space="preserve">
<g>
	<title>casino-add-chips</title>
	<path d="M12,24c-2.082,0-4.136-0.547-5.943-1.581C6.036,22.411,6.018,22.403,6,22.392c-0.014-0.008-0.033-0.022-0.048-0.036
		c-1.766-1.029-3.262-2.522-4.308-4.306c-0.014-0.017-0.026-0.033-0.036-0.052c-0.007-0.012-0.015-0.03-0.021-0.047
		C0.548,16.143,0,14.085,0,12c0-2.084,0.548-4.141,1.585-5.949C1.59,6.036,1.597,6.019,1.608,6.001
		c0.007-0.013,0.019-0.029,0.032-0.044c1.043-1.781,2.534-3.273,4.315-4.316C5.967,1.63,5.981,1.619,5.999,1.608
		c0.013-0.007,0.031-0.016,0.05-0.022C7.858,0.548,9.915,0,12,0c2.084,0,4.14,0.548,5.948,1.585
		c0.014,0.005,0.032,0.012,0.051,0.023c0.013,0.007,0.029,0.019,0.044,0.032c1.781,1.043,3.273,2.534,4.316,4.315
		c0.011,0.013,0.023,0.028,0.034,0.047c0.007,0.012,0.014,0.03,0.021,0.047C23.452,7.858,24,9.915,24,12
		c0,2.084-0.548,4.14-1.584,5.948c-0.006,0.016-0.013,0.034-0.024,0.053c-0.01,0.017-0.021,0.033-0.035,0.049
		c-1.043,1.778-2.532,3.267-4.311,4.309c-0.013,0.011-0.029,0.023-0.049,0.035c-0.017,0.01-0.036,0.018-0.055,0.025
		C16.136,23.453,14.081,24,12,24z M12.5,22.985c1.59-0.072,3.156-0.492,4.56-1.221l-1.251-2.168
		c-1.034,0.521-2.145,0.819-3.309,0.886V22.985z M6.94,21.764c1.404,0.729,2.97,1.149,4.56,1.221v-2.503
		c-1.164-0.067-2.274-0.364-3.309-0.885L6.94,21.764z M17.926,21.263c1.334-0.857,2.48-2.003,3.338-3.338l-2.169-1.252
		c-0.633,0.957-1.463,1.787-2.421,2.42L17.926,21.263z M2.737,17.926c0.857,1.334,2.003,2.48,3.338,3.338l1.252-2.169
		c-0.957-0.633-1.787-1.463-2.421-2.421L2.737,17.926z M12,18c0.276,0,0.5,0.224,0.5,0.5v0.98c3.945-0.258,7-3.495,7-7.48
		c0-0.312-0.02-0.627-0.058-0.938c-0.017-0.132,0.02-0.264,0.102-0.369s0.2-0.172,0.333-0.189c0.021-0.003,0.042-0.004,0.062-0.004
		c0.251,0,0.465,0.188,0.496,0.438c0.022,0.174,0.038,0.359,0.048,0.562h2.503c-0.072-1.59-0.492-3.156-1.221-4.56l-1.577,0.91
		c-0.076,0.044-0.162,0.067-0.25,0.067c-0.178,0-0.344-0.096-0.433-0.25c-0.138-0.239-0.056-0.545,0.183-0.683l1.576-0.91
		c-0.857-1.334-2.003-2.48-3.338-3.338l-1.25,2.166c0.104,0.067,0.194,0.129,0.281,0.191c0.109,0.078,0.18,0.193,0.202,0.325
		c0.022,0.132-0.009,0.264-0.087,0.373C16.978,5.922,16.825,6,16.665,6c-0.105,0-0.205-0.032-0.291-0.093
		c-1.138-0.817-2.473-1.294-3.874-1.385V5.5C12.5,5.776,12.276,6,12,6c-0.276,0-0.5-0.224-0.5-0.5V4.518
		c-1.139,0.075-2.251,0.41-3.232,0.974C8.264,5.495,8.259,5.498,8.255,5.501c-0.009,0.005-0.02,0.011-0.031,0.016
		c-0.549,0.32-1.068,0.719-1.527,1.178C6.238,7.154,5.839,7.672,5.512,8.234C5.51,8.238,5.499,8.258,5.495,8.264
		C4.929,9.245,4.594,10.359,4.519,11.5H5.5C5.776,11.5,6,11.724,6,12c0,0.276-0.224,0.5-0.5,0.5H4.519
		c0.248,3.735,3.246,6.733,6.981,6.98V18.5C11.5,18.224,11.724,18,12,18z M21.764,17.06c0.729-1.404,1.149-2.97,1.221-4.56h-2.502
		c-0.067,1.164-0.365,2.275-0.886,3.309L21.764,17.06z M1.015,12.5c0.072,1.59,0.492,3.156,1.221,4.56l2.167-1.251
		c-0.521-1.034-0.819-2.145-0.886-3.309H1.015z M3.517,11.5c0.066-1.168,0.362-2.28,0.881-3.312L2.236,6.94
		C1.507,8.344,1.087,9.91,1.015,11.5H3.517z M4.901,7.323c0.318-0.482,0.684-0.93,1.089-1.335c0.405-0.405,0.852-0.77,1.333-1.087
		L6.074,2.737C4.74,3.594,3.594,4.74,2.737,6.074L4.901,7.323z M12.5,3.519c1.163,0.067,2.274,0.364,3.308,0.885l1.252-2.169
		c-1.404-0.729-2.97-1.149-4.56-1.221V3.519z M8.188,4.398C9.22,3.878,10.332,3.582,11.5,3.516V1.015
		C9.91,1.087,8.344,1.507,6.94,2.236L8.188,4.398z"/>
	<path d="M17,10.5c-0.827,0-1.5-0.673-1.5-1.5s0.673-1.5,1.5-1.5s1.5,0.673,1.5,1.5S17.827,10.5,17,10.5z M17,8.5
		c-0.276,0-0.5,0.224-0.5,0.5s0.224,0.5,0.5,0.5s0.5-0.224,0.5-0.5S17.276,8.5,17,8.5z"/>
	<path d="M15.6,16.5c-0.146,0-0.284-0.063-0.379-0.174c-0.087-0.1-0.13-0.229-0.12-0.363c0.01-0.133,0.071-0.255,0.172-0.342
		c1.059-0.913,1.688-2.238,1.727-3.635c0.008-0.273,0.225-0.486,0.494-0.486c0.004,0,0.022,0,0.026,0.001
		c0.269,0.007,0.487,0.238,0.48,0.513c-0.047,1.678-0.803,3.269-2.073,4.365C15.836,16.457,15.72,16.5,15.6,16.5z"/>
	<circle cx="14" cy="17" r="0.75"/>
	<path d="M12,15.75c-0.414,0-0.75-0.336-0.75-0.75c0-0.213,0.093-0.415,0.25-0.556V12.5H9.556C9.415,12.657,9.213,12.75,9,12.75
		c-0.414,0-0.75-0.336-0.75-0.75S8.586,11.25,9,11.25c0.213,0,0.415,0.093,0.556,0.25H11.5V9.556C11.343,9.415,11.25,9.213,11.25,9
		c0-0.414,0.336-0.75,0.75-0.75S12.75,8.586,12.75,9c0,0.213-0.093,0.415-0.25,0.556V11.5h1.944c0.141-0.157,0.343-0.25,0.556-0.25
		c0.414,0,0.75,0.336,0.75,0.75s-0.336,0.75-0.75,0.75c-0.213,0-0.415-0.093-0.556-0.25H12.5v1.944
		c0.157,0.141,0.25,0.343,0.25,0.556C12.75,15.414,12.414,15.75,12,15.75z"/>
</g>
</svg>
