<?xml version="1.0" encoding="utf-8"?>
<!-- Generator: Adobe Illustrator 22.1.0, SVG Export Plug-In . SVG Version: 6.00 Build 0)  -->
<svg version="1.1" id="Light" xmlns="http://www.w3.org/2000/svg" xmlns:xlink="http://www.w3.org/1999/xlink" x="0px" y="0px"
	 viewBox="0 0 24 24" style="enable-background:new 0 0 24 24;" xml:space="preserve">
<g>
	<title>casino-chip-hold</title>
	<path d="M8,23c-0.276,0-0.5-0.224-0.5-0.5v-3.136c0.001-0.794-0.232-1.562-0.673-2.222l-1.143-1.71
		c-0.136-0.226-0.33-0.372-0.567-0.431c-0.072-0.018-0.146-0.027-0.219-0.027c-0.162,0-0.322,0.044-0.462,0.128l-0.041,0.026
		c-0.372,0.248-0.503,0.743-0.3,1.148l1.333,2.216c0.142,0.236,0.066,0.544-0.171,0.686C5.18,19.225,5.091,19.25,5,19.25
		c-0.175,0-0.339-0.093-0.429-0.243l-1.352-2.25c-0.139-0.275-0.208-0.552-0.215-0.838C3.002,15.904,3,15.888,3,15.875V12
		c0-0.551-0.449-1-1-1s-1,0.449-1,1v5.171c0,0.905,0.311,1.793,0.876,2.5l2.014,2.517c0.172,0.215,0.137,0.531-0.078,0.703
		C3.724,22.961,3.613,23,3.5,23c-0.153,0-0.295-0.068-0.391-0.188l-2.014-2.517C0.389,19.412,0,18.302,0,17.171V12
		c0-1.103,0.897-2,2-2s2,0.897,2,2v2.2c0.276-0.149,0.584-0.227,0.896-0.227c0.155,0,0.312,0.019,0.464,0.057
		c0.493,0.123,0.907,0.431,1.168,0.866l1.13,1.689c0.551,0.825,0.842,1.786,0.841,2.778V22.5C8.5,22.776,8.276,23,8,23z"/>
	<path d="M20.5,23c-0.113,0-0.224-0.039-0.312-0.109c-0.215-0.173-0.25-0.488-0.078-0.703l2.014-2.517
		c0.566-0.707,0.877-1.594,0.877-2.5V12c0-0.551-0.448-1-1-1s-1,0.449-1,1v3.875c0,0.294-0.069,0.587-0.2,0.849l-1.372,2.284
		c-0.091,0.15-0.255,0.242-0.429,0.242c-0.09,0-0.179-0.024-0.257-0.071c-0.236-0.143-0.313-0.45-0.171-0.687l1.353-2.25
		c0.185-0.372,0.046-0.87-0.325-1.117l-0.034-0.021c-0.141-0.085-0.301-0.129-0.463-0.129c-0.316,0-0.613,0.167-0.774,0.437
		l-1.156,1.73c-0.441,0.66-0.673,1.428-0.673,2.222V22.5c0,0.276-0.224,0.5-0.5,0.5s-0.5-0.224-0.5-0.5v-3.136
		c-0.001-0.992,0.29-1.953,0.842-2.778l1.143-1.71c0.25-0.418,0.662-0.722,1.155-0.845c0.152-0.038,0.309-0.057,0.464-0.057
		c0.312,0,0.62,0.078,0.897,0.227V12c0-1.103,0.897-2,2-2s2,0.897,2,2v5.171c0,1.132-0.389,2.241-1.095,3.125l-2.014,2.517
		C20.794,22.932,20.652,23,20.5,23z"/>
	<path d="M12,14c-2.293,0-4.44-1.232-5.607-3.217c-0.008-0.011-0.017-0.023-0.022-0.031c-0.008-0.014-0.014-0.028-0.019-0.039
		C5.797,9.745,5.5,8.63,5.5,7.5c0-1.126,0.295-2.238,0.855-3.216c0.005-0.012,0.01-0.023,0.015-0.033
		C6.376,4.24,6.385,4.228,6.394,4.217C7.552,2.237,9.702,1,12,1c2.295,0,4.441,1.233,5.608,3.219c0.008,0.01,0.014,0.019,0.02,0.028
		c0.007,0.011,0.013,0.024,0.018,0.038C18.203,5.257,18.5,6.371,18.5,7.5c0,1.126-0.295,2.238-0.855,3.216
		c-0.005,0.013-0.011,0.026-0.018,0.036c-0.006,0.01-0.013,0.021-0.022,0.033C16.438,12.769,14.292,14,12,14z M12.5,12.976
		c1.597-0.146,3.058-0.99,3.99-2.306l-1.742-1.006c-0.558,0.708-1.358,1.17-2.248,1.297V12.976z M7.51,10.67
		c0.932,1.316,2.393,2.161,3.99,2.306v-2.015c-0.89-0.127-1.69-0.589-2.248-1.297L7.51,10.67z M12,5c-1.379,0-2.5,1.121-2.5,2.5
		S10.621,10,12,10c1.378,0,2.5-1.121,2.5-2.5S13.378,5,12,5z M16.992,9.805C17.329,9.08,17.5,8.306,17.5,7.5
		s-0.171-1.58-0.508-2.305l-1.745,1.007C15.415,6.618,15.5,7.054,15.5,7.5s-0.085,0.882-0.253,1.297L16.992,9.805z M7.008,5.195
		C6.671,5.92,6.5,6.694,6.5,7.5s0.171,1.58,0.508,2.305l1.745-1.008C8.585,8.382,8.5,7.946,8.5,7.5s0.085-0.882,0.253-1.297
		L7.008,5.195z M9.252,5.336C9.81,4.628,10.61,4.166,11.5,4.039V2.024C9.903,2.169,8.442,3.014,7.51,4.33L9.252,5.336z M12.5,4.039
		c0.89,0.127,1.69,0.589,2.248,1.297L16.49,4.33c-0.932-1.316-2.393-2.161-3.99-2.307V4.039z"/>
</g>
</svg>
