<?xml version="1.0" encoding="utf-8"?>
<!-- Generator: Adobe Illustrator 22.1.0, SVG Export Plug-In . SVG Version: 6.00 Build 0)  -->
<svg version="1.1" id="Light" xmlns="http://www.w3.org/2000/svg" xmlns:xlink="http://www.w3.org/1999/xlink" x="0px" y="0px"
	 viewBox="0 0 24 24" style="enable-background:new 0 0 24 24;" xml:space="preserve">
<g>
	<title>casino-diamond-bag_1</title>
	<path d="M8.99,24.001c-5.714,0-8.993-2.552-8.993-7c0.085-4.007,2.284-7.636,5.768-9.569C4.563,6.385,3.721,4.505,3.537,2.41
		C3.524,2.295,3.535,2.168,3.568,2.049c0.119-0.433,0.515-0.736,0.964-0.736c0.089,0,0.178,0.012,0.264,0.036
		C5.16,1.45,5.532,1.501,5.903,1.501l0.072-0.001l0.061,0.001c0.367,0,0.705-0.165,0.927-0.452c0.154-0.222,0.365-0.431,0.603-0.597
		C7.986,0.157,8.48,0.001,8.994,0.001c0.818,0,1.585,0.399,2.052,1.067c0.207,0.268,0.548,0.434,0.906,0.434l0.121,0
		c0.39,0,0.757-0.05,1.125-0.152c0.088-0.024,0.177-0.036,0.266-0.036c0.036,0,0.071,0.002,0.107,0.006
		c0.549,0.059,0.946,0.553,0.887,1.101c-0.184,2.077-1.02,3.95-2.213,4.999c1.47,0.784,2.735,1.919,3.674,3.301
		c0.155,0.228,0.096,0.539-0.132,0.694c-0.084,0.057-0.181,0.087-0.281,0.087c-0.166,0-0.32-0.082-0.414-0.219
		c-0.98-1.442-2.342-2.576-3.939-3.281H6.85c-3.476,1.638-5.771,5.169-5.853,9.011c0,5.21,5.012,5.989,8,5.989
		c0.067,0.001,0.193,0.001,0.193,0.001c1.231,0,2.453-0.174,3.632-0.516c0.046-0.013,0.093-0.02,0.141-0.02
		c0.22,0,0.417,0.148,0.479,0.36c0.077,0.265-0.076,0.543-0.34,0.62c-1.27,0.369-2.585,0.556-3.907,0.556
		C9.126,24.002,9.058,24.002,8.99,24.001z M11.126,7.001c1.234-0.725,2.148-2.551,2.337-4.678c-0.446,0.115-0.917,0.178-1.398,0.178
		l-0.06,0c-0.014,0.001-0.04,0.001-0.067,0.001c-0.656,0-1.291-0.315-1.698-0.842C9.949,1.244,9.485,1.002,8.992,1.002
		c-0.307,0-0.603,0.093-0.855,0.27c-0.144,0.101-0.269,0.225-0.37,0.37c-0.423,0.55-1.052,0.86-1.732,0.86L5.966,2.5L5.906,2.501
		c-0.463,0-0.925-0.063-1.373-0.188C4.721,4.448,5.635,6.276,6.87,7.001H11.126z"/>
	<path d="M16.747,24.001c-0.264,0-0.513-0.101-0.7-0.284l-6.252-6.05c-0.356-0.353-0.398-0.917-0.1-1.314l2.591-3.452
		c0.168-0.224,0.428-0.366,0.714-0.391c0.01-0.001,0.021-0.002,0.031-0.002c0.007-0.004,0.03-0.006,0.055-0.006h7.322
		c0.024,0,0.048,0.003,0.072,0.007c0,0,0.008,0.001,0.011,0.001c0.287,0.024,0.548,0.167,0.717,0.392l2.589,3.453
		c0.135,0.18,0.205,0.403,0.198,0.632c0,0.006,0,0.011,0,0.016c0,0.016-0.002,0.033-0.005,0.049
		c-0.026,0.242-0.128,0.453-0.289,0.613l-6.256,6.056C17.26,23.9,17.011,24.001,16.747,24.001z M16.747,22.217l1.996-4.717h-3.991
		L16.747,22.217z M15.471,21.768l-1.805-4.267h-2.604L15.471,21.768z M18.023,21.767l4.408-4.267h-2.602L18.023,21.767z
		 M22.658,16.501l-1.944-2.592l-0.591,2.592H22.658z M18.546,16.501l-1.799-2.617l-1.799,2.617H18.546z M13.371,16.501l-0.591-2.592
		l-1.946,2.592H13.371z M19.263,15.777l0.519-2.277h-2.084L19.263,15.777z M14.231,15.777l1.565-2.277h-2.084L14.231,15.777z"/>
</g>
</svg>
