<?xml version="1.0" encoding="utf-8"?>
<!-- Generator: Adobe Illustrator 22.1.0, SVG Export Plug-In . SVG Version: 6.00 Build 0)  -->
<svg version="1.1" id="Light" xmlns="http://www.w3.org/2000/svg" xmlns:xlink="http://www.w3.org/1999/xlink" x="0px" y="0px"
	 viewBox="0 0 24 24" style="enable-background:new 0 0 24 24;" xml:space="preserve">
<g>
	<title>sofa-double-modern</title>
	<path d="M10.5,11c-0.276,0-0.5-0.224-0.5-0.5v-2c-0.651,0.187-1.324,0.282-2,0.282c-0.676,0-1.349-0.095-2-0.281L6,10.5
		C6,10.776,5.776,11,5.5,11S5,10.776,5,10.5v-2c0-0.094,0.013-0.188,0.04-0.278C5.162,7.797,5.558,7.5,6,7.5
		c0.094,0,0.187,0.013,0.278,0.04C6.838,7.701,7.418,7.782,8,7.782c0.583,0,1.162-0.082,1.724-0.243
		c0.09-0.026,0.182-0.039,0.275-0.039c0.267,0,0.518,0.104,0.707,0.292C10.895,7.981,11,8.232,11,8.499V10.5
		C11,10.776,10.776,11,10.5,11z"/>
	<path d="M18.5,11c-0.276,0-0.5-0.224-0.5-0.5V8.504c-0.006,0-0.011,0.001-0.016,0.001C17.338,8.689,16.671,8.782,16,8.782
		c-0.676,0-1.348-0.095-1.999-0.281L14,10.5c0,0.276-0.224,0.5-0.5,0.5S13,10.776,13,10.5v-2c0-0.093,0.013-0.186,0.039-0.276
		c0.074-0.257,0.244-0.47,0.478-0.599C13.665,7.543,13.832,7.5,13.999,7.5c0.094,0,0.188,0.013,0.28,0.04
		c0.56,0.161,1.14,0.242,1.722,0.242c0.583,0,1.162-0.082,1.724-0.243c0.089-0.026,0.182-0.039,0.275-0.039
		c0.267,0,0.518,0.104,0.707,0.292C18.895,7.981,19,8.232,19,8.499V10.5C19,10.776,18.776,11,18.5,11z"/>
	<path d="M17.5,20c-0.191,0-0.363-0.106-0.448-0.277l-0.864-1.728C16.127,17.998,16.064,18,16,18H8
		c-0.064,0-0.127-0.002-0.189-0.004l-0.864,1.728C6.862,19.894,6.691,20,6.5,20c-0.077,0-0.154-0.018-0.223-0.052
		c-0.247-0.124-0.347-0.425-0.224-0.671l0.689-1.379c-4.934-0.794-6.588-6.092-6.658-6.322c-0.155-0.511-0.101-1.052,0.152-1.523
		c0.252-0.471,0.673-0.815,1.184-0.97c0.188-0.057,0.383-0.086,0.581-0.086c0.181-0.013,0.457-0.649,0.82-1.89
		C2.96,6.632,3.08,6.223,3.224,5.935C3.82,4.741,5.02,4,6.354,4h11.292c1.334,0,2.533,0.741,3.13,1.934
		c0.143,0.286,0.262,0.693,0.4,1.163C21.657,8.744,21.899,8.995,22,9c0.003,0,0.007,0,0.01,0.001
		c0.192,0.001,0.38,0.029,0.561,0.082c0.516,0.155,0.937,0.498,1.19,0.969c0.253,0.47,0.308,1.011,0.155,1.523
		c-0.07,0.231-1.729,5.53-6.658,6.323l0.689,1.379c0.06,0.119,0.069,0.255,0.027,0.382s-0.131,0.229-0.251,0.289
		C17.654,19.982,17.577,20,17.5,20z M1.966,9.998c-0.088,0.003-0.174,0.017-0.257,0.042c-0.256,0.077-0.466,0.25-0.592,0.485
		c-0.126,0.235-0.153,0.506-0.076,0.762C1.112,11.52,2.829,17,8,17h8c5.171,0,6.888-5.48,6.958-5.714
		c0.077-0.255,0.049-0.525-0.078-0.76c-0.126-0.235-0.336-0.406-0.591-0.483C22.194,10.014,22.098,10,22.002,10
		c-0.437,0-0.831,0.291-0.958,0.709c-0.034,0.109-0.349,1.084-1.073,2.085c-0.005,0.009-0.016,0.025-0.031,0.043
		C18.901,14.252,17.539,15,16,15H8c-1.543,0-2.908-0.752-3.948-2.174c0,0-0.018-0.024-0.023-0.032
		c-0.724-1.001-1.038-1.975-1.072-2.083c-0.078-0.259-0.251-0.47-0.486-0.596c-0.136-0.073-0.284-0.112-0.439-0.117
		C2.021,9.999,2.007,10,2,10C1.988,10,1.976,9.999,1.966,9.998z M5.53,13c0.719,0.664,1.548,1,2.47,1h8c0.922,0,1.75-0.336,2.47-1
		H5.53z M19.31,12c0.533-0.805,0.767-1.552,0.777-1.585c0.142-0.468,0.45-0.862,0.862-1.116c-0.322-0.517-0.537-1.252-0.73-1.912
		c-0.12-0.411-0.233-0.798-0.337-1.006C19.455,5.529,18.599,5,17.646,5H6.354c-0.953,0-1.81,0.529-2.236,1.382
		C4.015,6.588,3.902,6.974,3.782,7.383C3.589,8.046,3.374,8.78,3.052,9.297c0.415,0.257,0.719,0.651,0.861,1.122
		C3.923,10.449,4.16,11.2,4.69,12H19.31z"/>
</g>
</svg>
