<?xml version="1.0" encoding="utf-8"?>
<!-- Generator: Adobe Illustrator 22.1.0, SVG Export Plug-In . SVG Version: 6.00 Build 0)  -->
<svg version="1.1" id="Light" xmlns="http://www.w3.org/2000/svg" xmlns:xlink="http://www.w3.org/1999/xlink" x="0px" y="0px"
	 viewBox="0 0 24 24" style="enable-background:new 0 0 24 24;" xml:space="preserve">
<g>
	<title>sofa-couch</title>
	<path d="M21,21c-0.19,0-0.362-0.106-0.447-0.276L19.691,19H6.809l-0.862,1.724C5.862,20.894,5.69,21,5.5,21
		c-0.077,0-0.154-0.018-0.223-0.052c-0.12-0.06-0.209-0.163-0.251-0.289s-0.033-0.262,0.027-0.382L5.691,19H5.5
		C3.57,19,2,17.43,2,15.5V13c0-0.303-0.181-0.574-0.461-0.69c-0.94-0.389-1.546-1.298-1.544-2.316
		c0.002-0.668,0.263-1.295,0.737-1.766C1.203,7.758,1.829,7.5,2.494,7.5c0.015,0,0.026,0.001,0.035,0.001
		c0.113-1.15,0.617-2.219,1.435-3.037C4.909,3.52,6.164,3,7.499,3c2.024,0.001,3.929,1.079,4.971,2.815l0.875,1.457
		C13.615,7.721,14.108,8,14.632,8H20.5c1.93,0,3.5,1.57,3.5,3.5v6c0,0.827-0.673,1.5-1.5,1.5h-1.691l0.638,1.276
		c0.06,0.119,0.069,0.255,0.027,0.382s-0.131,0.229-0.251,0.289C21.154,20.982,21.077,21,21,21z M2.471,8.5
		c-0.39,0.006-0.757,0.161-1.035,0.436C1.153,9.219,0.996,9.595,0.995,9.996c-0.002,0.611,0.362,1.156,0.926,1.39
		C2.576,11.657,2.999,12.291,3,13v2.5C3,16.878,4.121,18,5.5,18h17c0.276,0,0.5-0.224,0.5-0.5v-1.599
		c-2.69-0.585-5.465-0.882-8.249-0.882c-2.919,0-5.826,0.326-8.639,0.969C6.075,15.996,6.037,16,6,16c-0.551,0-1-0.448-1-1v-3.5
		C5.058,9.992,3.948,8.686,2.471,8.5z M3.511,7.741C5.046,8.338,6.062,9.862,6,11.514l0,3.473c2.846-0.641,5.786-0.967,8.739-0.967
		c2.785,0,5.563,0.289,8.261,0.861V11.5c0-1.379-1.122-2.5-2.5-2.5h-5.867c-0.874,0-1.696-0.465-2.145-1.214l-0.875-1.457
		C10.751,4.893,9.175,4.001,7.5,4l0-0.25l0,0.25C6.431,4,5.427,4.416,4.671,5.171C3.981,5.862,3.573,6.769,3.511,7.741z"/>
</g>
</svg>
