<?xml version="1.0" encoding="utf-8"?>
<!-- Generator: Adobe Illustrator 22.1.0, SVG Export Plug-In . SVG Version: 6.00 Build 0)  -->
<svg version="1.1" id="Light" xmlns="http://www.w3.org/2000/svg" xmlns:xlink="http://www.w3.org/1999/xlink" x="0px" y="0px"
	 viewBox="0 0 24 24" style="enable-background:new 0 0 24 24;" xml:space="preserve">
<g>
	<title>bird-cage-empty</title>
	<path d="M1.5,24c-0.551,0-1-0.448-1-1v-1c0-0.552,0.449-1,1-1h1v-8.5c0-4.628,3.348-8.57,7.862-9.356C10.128,2.811,10,2.413,10,2
		c0-1.103,0.897-2,2-2s2,0.897,2,2c0,0.413-0.128,0.811-0.362,1.144C18.152,3.93,21.5,7.872,21.5,12.5V21h1c0.552,0,1,0.448,1,1v1
		c0,0.552-0.448,1-1,1H1.5z M1.5,23h21v-1h-21h0L1.5,23z M20.5,21v-8.5c0-2.522-1.087-4.854-3-6.476V21H20.5z M16.5,21V5.294
		c-1.205-0.755-2.58-1.194-4-1.277V13.5c0,0.276-0.224,0.5-0.5,0.5c-0.276,0-0.5-0.224-0.5-0.5V4.017
		c-1.42,0.083-2.795,0.522-4,1.277V21h4v-4h-2C9.224,17,9,16.776,9,16.5S9.224,16,9.5,16h5c0.276,0,0.5,0.224,0.5,0.5
		S14.776,17,14.5,17h-2v4H16.5z M6.5,21V6.024c-1.913,1.621-3,3.954-3,6.476V21H6.5z M12,1c-0.551,0-1,0.449-1,1s0.449,1,1,1
		c0.552,0,1-0.449,1-1S12.552,1,12,1z"/>
</g>
</svg>
