<?xml version="1.0" encoding="utf-8"?>
<!-- Generator: Adobe Illustrator 22.1.0, SVG Export Plug-In . SVG Version: 6.00 Build 0)  -->
<svg version="1.1" id="Light" xmlns="http://www.w3.org/2000/svg" xmlns:xlink="http://www.w3.org/1999/xlink" x="0px" y="0px"
	 viewBox="0 0 24 24" style="enable-background:new 0 0 24 24;" xml:space="preserve">
<g>
	<title>bird-cage-2</title>
	<path d="M4.562,24c-1.15,0-2.147-0.779-2.426-1.894l-0.5-2c-0.025-0.075-0.037-0.184-0.031-0.289
		c0.029-0.458,0.411-0.818,0.87-0.818c0.019,0,0.037,0,0.056,0.002l1.015,0L4.802,6.222C4.948,4.956,6.014,4.002,7.282,4h0.251
		C7.784,1.739,9.702,0,12,0c2.298,0,4.216,1.739,4.467,4h0.25c1.269,0.002,2.334,0.954,2.479,2.214L20.453,19H21.5
		c-0.002,0,0.014-0.001,0.03-0.001c0.084,0,0.176,0.015,0.258,0.041c0.458,0.145,0.713,0.637,0.567,1.096l-0.492,1.97
		C21.585,23.221,20.588,24,19.438,24H4.562z M3.106,21.864C3.273,22.533,3.872,23,4.561,23h14.876c0.69,0,1.289-0.467,1.456-1.136
		l0.466-1.865L2.639,20L3.106,21.864z M7.283,5c-0.76,0.001-1.4,0.573-1.487,1.328L4.551,19l14.897,0L18.202,6.32
		C18.115,5.571,17.476,5.001,16.716,5H7.283z M15.46,4C15.215,2.298,13.744,1,12,1S8.785,2.298,8.54,4H15.46z"/>
	<circle cx="12" cy="12.5" r="0.75"/>
	<path d="M15,17c-0.276,0-0.5-0.224-0.5-0.5V13c0-1.654-1.346-3-3-3c-1.654,0-3,1.346-3,3v3.5C8.5,16.776,8.276,17,8,17
		c-0.276,0-0.5-0.224-0.5-0.5V13c0-1.132,0.479-2.204,1.319-2.964L8.511,8.605C8.504,8.572,8.5,8.536,8.5,8.5
		C8.5,7.673,9.173,7,10,7c0.269,0.002,0.524,0.073,0.748,0.207C10.974,7.071,11.23,7,11.499,7c0.265,0,0.527,0.072,0.753,0.207
		C12.476,7.075,12.734,7.002,12.995,7C13.826,7,14.5,7.673,14.5,8.5c0,0.043-0.005,0.085-0.016,0.126L14.129,9.99
		c0.812,0.71,1.302,1.715,1.361,2.793l1.363,1.364C16.948,14.241,17,14.366,17,14.5s-0.052,0.259-0.146,0.354S16.633,15,16.5,15
		s-0.259-0.052-0.354-0.146L15.5,14.207V16.5C15.5,16.776,15.275,17,15,17z M9.71,9.427C10.267,9.147,10.879,9,11.5,9
		c0.604,0,1.202,0.14,1.748,0.407l0.25-0.96C13.471,8.194,13.258,8,13,8c-0.14,0.001-0.274,0.065-0.365,0.175
		c-0.095,0.115-0.236,0.181-0.385,0.181c-0.152-0.001-0.293-0.068-0.387-0.184C11.773,8.063,11.641,8,11.499,8
		c-0.109,0-0.211,0.036-0.295,0.105c-0.024,0.02-0.047,0.043-0.067,0.067c-0.094,0.116-0.235,0.183-0.385,0.183c0,0-0.001,0-0.001,0
		c-0.154,0-0.291-0.066-0.386-0.18C10.274,8.065,10.14,8.002,9.996,8C9.74,8.001,9.524,8.203,9.502,8.456L9.71,9.427z"/>
</g>
</svg>
