<?xml version="1.0" encoding="utf-8"?>
<!-- Generator: Adobe Illustrator 22.1.0, SVG Export Plug-In . SVG Version: 6.00 Build 0)  -->
<svg version="1.1" id="Light" xmlns="http://www.w3.org/2000/svg" xmlns:xlink="http://www.w3.org/1999/xlink" x="0px" y="0px"
	 viewBox="0 0 24 24" style="enable-background:new 0 0 24 24;" xml:space="preserve">
<g>
	<title>bird-house</title>
	<path d="M7.99,22.717c-0.511-0.021-0.953-0.378-1.075-0.868L4.182,9.081l-3.348,3.008c-0.092,0.083-0.21,0.128-0.334,0.128
		c-0.142,0-0.277-0.06-0.372-0.166c-0.089-0.099-0.134-0.227-0.127-0.361c0.007-0.133,0.066-0.256,0.165-0.345L10.922,1.68
		c0.306-0.263,0.688-0.406,1.08-0.406c0.39,0,0.769,0.142,1.069,0.399l10.764,9.673c0.099,0.089,0.158,0.212,0.165,0.345
		c0.007,0.133-0.038,0.262-0.127,0.361c-0.095,0.105-0.231,0.166-0.372,0.166l0,0c-0.124,0-0.242-0.046-0.334-0.129l-3.328-2.991
		l-2.743,12.736c-0.127,0.505-0.569,0.865-1.076,0.883l-8.018,0C7.997,22.718,7.993,22.718,7.99,22.717z M7.889,21.624
		c0.012,0.046,0.071,0.091,0.132,0.094l7.979,0c0.048-0.002,0.105-0.051,0.12-0.111l2.86-13.278l-6.57-5.905
		c-0.111-0.095-0.258-0.15-0.409-0.15c-0.153,0-0.302,0.056-0.419,0.157L5.04,8.31L7.889,21.624z"/>
	<path d="M12,15.218c-1.93,0-3.5-1.57-3.5-3.5s1.57-3.5,3.5-3.5s3.5,1.57,3.5,3.5S13.93,15.218,12,15.218z M12,9.218
		c-1.379,0-2.5,1.121-2.5,2.5c0,1.378,1.121,2.5,2.5,2.5c1.378,0,2.5-1.122,2.5-2.5C14.5,10.339,13.378,9.218,12,9.218z"/>
	<path d="M12,20.002c-0.827,0-1.5-0.673-1.5-1.5s0.673-1.5,1.5-1.5s1.5,0.673,1.5,1.5S12.827,20.002,12,20.002z M12,18.002
		c-0.276,0-0.5,0.224-0.5,0.5s0.224,0.5,0.5,0.5c0.276,0,0.5-0.224,0.5-0.5S12.276,18.002,12,18.002z"/>
</g>
</svg>
