<?xml version="1.0" encoding="utf-8"?>
<!-- Generator: Adobe Illustrator 22.1.0, SVG Export Plug-In . SVG Version: 6.00 Build 0)  -->
<svg version="1.1" id="Light" xmlns="http://www.w3.org/2000/svg" xmlns:xlink="http://www.w3.org/1999/xlink" x="0px" y="0px"
	 viewBox="0 0 24 24" style="enable-background:new 0 0 24 24;" xml:space="preserve">
<g>
	<title>bird-cage-1</title>
	<path d="M5.35,23.355c-1.343,0-2.605-0.593-3.463-1.626c-2.12-2.553-1.355-4.3,2.892-13.993l0.387-0.884L2.934,1.594
		C2.738,1.093,2.971,0.844,3.08,0.76C3.18,0.682,3.3,0.641,3.427,0.641c0.156,0,0.318,0.061,0.483,0.181l2.553,1.846l0.48-1.39
		c0.038-0.176,0.138-0.333,0.282-0.444C7.36,0.732,7.519,0.678,7.687,0.678c0.034,0,0.068,0.002,0.102,0.007
		C8.006,0.714,8.198,0.833,8.32,1.014l1.456,1.688l1.474-1.716c0.147-0.182,0.366-0.3,0.611-0.325
		c0.032-0.003,0.064-0.005,0.095-0.005c0.211,0,0.417,0.073,0.581,0.206c0.049,0.04,0.094,0.085,0.134,0.134l1.473,1.707
		l1.458-1.689c0.101-0.15,0.251-0.258,0.426-0.307c0.068-0.019,0.137-0.029,0.207-0.029c0.13,0,0.259,0.034,0.373,0.098
		c0.19,0.107,0.325,0.289,0.372,0.502l0.48,1.39l2.553-1.847c0.165-0.12,0.327-0.18,0.482-0.18c0.127,0,0.248,0.041,0.349,0.12
		c0.109,0.084,0.34,0.333,0.147,0.821l-2.235,5.268l0.343,0.76c4.514,10.01,5.208,11.549,3.074,14.12
		c-0.857,1.034-2.119,1.626-3.463,1.626H5.35z M5.695,8.138C1.402,17.936,0.986,19.079,2.656,21.09
		c0.667,0.804,1.649,1.265,2.693,1.265h13.361c1.044,0,2.026-0.461,2.693-1.265c1.678-2.022,1.245-3.177-3.216-13.069l-0.3-0.666
		H6.038L5.695,8.138z M17.88,6.355l1.688-3.979L17.5,3.872c-0.085,0.062-0.187,0.095-0.293,0.095c-0.051,0-0.102-0.008-0.15-0.023
		c-0.151-0.047-0.271-0.165-0.323-0.314l-0.592-1.714l-1.62,1.877c-0.095,0.11-0.233,0.173-0.378,0.173s-0.284-0.063-0.379-0.174
		l-1.808-2.096l-1.8,2.096c-0.095,0.111-0.233,0.174-0.379,0.174c-0.146,0-0.284-0.063-0.379-0.173L7.78,1.918L7.188,3.632
		C7.137,3.781,7.016,3.898,6.866,3.945C6.817,3.961,6.767,3.968,6.716,3.968c-0.106,0-0.208-0.033-0.293-0.095L4.353,2.377
		l1.689,3.979H17.88z"/>
	<path d="M11.28,20.641c-0.276,0-0.5-0.224-0.5-0.5v-1.529c-2.823-0.254-5-2.613-5-5.471c0-0.276,0.224-0.5,0.5-0.5h3.536
		c0.245-1.7,1.724-3,3.464-3c1.93,0,3.5,1.57,3.5,3.5c0,2.858-2.177,5.216-5,5.471v1.529C11.78,20.417,11.555,20.641,11.28,20.641z
		 M6.807,13.641c0.25,2.263,2.166,4,4.473,4c2.481,0,4.5-2.019,4.5-4.5c0-1.379-1.122-2.5-2.5-2.5s-2.5,1.121-2.5,2.5
		c0,0.276-0.224,0.5-0.5,0.5H6.807z"/>
	<circle cx="13.78" cy="12.641" r="0.75"/>
	<path d="M17.78,14.641c-0.134,0-0.259-0.052-0.354-0.146l-1-1c-0.094-0.094-0.146-0.22-0.146-0.354s0.052-0.259,0.146-0.354l1-1
		c0.094-0.094,0.22-0.146,0.354-0.146s0.259,0.052,0.354,0.146s0.146,0.22,0.146,0.354s-0.052,0.259-0.146,0.354l-0.646,0.646
		l0.646,0.646c0.094,0.094,0.146,0.22,0.146,0.354s-0.052,0.259-0.146,0.354S17.913,14.641,17.78,14.641z"/>
</g>
</svg>
