<?xml version="1.0" encoding="utf-8"?>
<!-- Generator: Adobe Illustrator 22.1.0, SVG Export Plug-In . SVG Version: 6.00 Build 0)  -->
<svg version="1.1" id="Layer_1" xmlns="http://www.w3.org/2000/svg" xmlns:xlink="http://www.w3.org/1999/xlink" x="0px" y="0px"
	 viewBox="0 0 24 24" style="enable-background:new 0 0 24 24;" xml:space="preserve">
<g>
	<title>bicycle-sports</title>
	<path d="M19.5,19.5c-2.481,0-4.5-2.019-4.5-4.5c0-1.536,0.798-2.974,2.095-3.798L16.757,9.95l-5.403,5.404
		c-0.094,0.094-0.22,0.146-0.354,0.146c-0.008,0-0.039-0.001-0.047-0.002l-1.986,0.001c-0.251,2.261-2.169,4-4.467,4
		C2.019,19.5,0,17.481,0,15s2.019-4.5,4.5-4.5c0.715,0,1.423,0.174,2.062,0.506l1.363-2.045L6.563,5.714l-0.722-0.24
		C5.58,5.387,5.438,5.103,5.526,4.841C5.594,4.637,5.784,4.499,6,4.499c0.054,0,0.107,0.009,0.159,0.026l3,1
		C9.42,5.613,9.562,5.896,9.474,6.158C9.406,6.362,9.216,6.5,9,6.5c-0.054,0-0.107-0.009-0.158-0.026L7.824,6.135L8.816,8.5h7.549
		l-0.448-1.658c-0.07-0.257-0.035-0.527,0.098-0.759s0.348-0.398,0.606-0.467c0.084-0.023,0.172-0.035,0.26-0.035
		c0.039,0,0.078,0.002,0.117,0.007l2.42,0.282c0.829,0.119,1.402,0.882,1.285,1.701c-0.057,0.397-0.265,0.748-0.586,0.988
		c-0.262,0.196-0.572,0.3-0.897,0.3c-0.072,0-0.144-0.005-0.216-0.016c-0.273-0.039-0.463-0.293-0.424-0.566
		c0.036-0.249,0.244-0.429,0.495-0.429c0.023,0,0.046,0.002,0.069,0.005c0.026,0.004,0.051,0.005,0.075,0.005
		c0.108,0,0.211-0.035,0.299-0.1c0.107-0.08,0.176-0.197,0.195-0.329c0.019-0.132-0.015-0.264-0.095-0.372
		c-0.08-0.107-0.197-0.177-0.329-0.196l-2.406-0.28l1.127,4.172c0.478-0.168,0.978-0.254,1.49-0.254c2.481,0,4.5,2.019,4.5,4.5
		S21.981,19.5,19.5,19.5z M17.372,12.227C16.507,12.889,16,13.902,16,15c0,1.93,1.57,3.5,3.5,3.5S23,16.93,23,15s-1.57-3.5-3.5-3.5
		c-0.421,0-0.833,0.076-1.228,0.225l0.694,2.567l0.694,0.235c0.261,0.088,0.402,0.372,0.313,0.634
		c-0.069,0.203-0.259,0.34-0.474,0.34c-0.055,0-0.109-0.009-0.16-0.026l-0.947-0.32c-0.158-0.053-0.279-0.181-0.323-0.343
		L17.372,12.227z M4.5,11.5C2.57,11.5,1,13.07,1,15s1.57,3.5,3.5,3.5c1.744,0,3.215-1.298,3.46-3H4.5
		c-0.185,0-0.354-0.101-0.441-0.264c-0.087-0.163-0.078-0.36,0.025-0.513l1.92-2.879C5.534,11.618,5.019,11.5,4.5,11.5z
		 M10.248,14.5l-1.859-4.432l-0.996,1.494c0.884,0.745,1.446,1.794,1.574,2.938H10.248z M7.96,14.5
		c-0.117-0.808-0.516-1.552-1.125-2.1l-1.4,2.1H7.96z M11.173,14.12l4.62-4.62H9.235L11.173,14.12z"/>
</g>
</svg>
