<?xml version="1.0" encoding="utf-8"?>
<!-- Generator: Adobe Illustrator 22.1.0, SVG Export Plug-In . SVG Version: 6.00 Build 0)  -->
<svg version="1.1" id="Layer_1" xmlns="http://www.w3.org/2000/svg" xmlns:xlink="http://www.w3.org/1999/xlink" x="0px" y="0px"
	 viewBox="0 0 24 24" style="enable-background:new 0 0 24 24;" xml:space="preserve">
<g>
	<title>bicycle-retro</title>
	<path d="M17.5,21.697c-3.584,0-6.5-2.916-6.5-6.5c0-3.422,2.616-6.224,6-6.48V5.7h-1c-1.809,0-3.618,0.454-5.232,1.312
		c-0.023,0.015-0.048,0.03-0.078,0.043c-2.359,1.278-4.199,3.374-5.086,5.782C7.588,13.338,9,15.127,9,17.197
		c0,2.481-2.019,4.5-4.5,4.5S0,19.679,0,17.197s2.019-4.5,4.5-4.5c0.031,0,0.062,0.001,0.094,0.002
		C5.509,10.057,7.466,7.739,10,6.298V3.697H8.5c-0.276,0-0.5-0.224-0.5-0.5s0.224-0.5,0.5-0.5h4c0.276,0,0.5,0.224,0.5,0.5
		s-0.224,0.5-0.5,0.5H11v2.091C12.588,5.066,14.268,4.7,16,4.7h1V3.3c0-0.551,0.448-1,1-1c0.09,0,0.179,0.012,0.266,0.036
		C19.852,2.639,21.01,4.057,21,5.703C20.999,5.982,20.78,6.2,20.501,6.2C20.221,6.199,19.999,5.973,20,5.697
		c0.007-1.164-0.818-2.168-1.961-2.388c-0.026-0.006-0.034-0.008-0.041-0.009L18,8.718c3.383,0.256,6,3.058,6,6.48
		C24,18.782,21.084,21.697,17.5,21.697z M17,9.721c-2.824,0.253-5,2.61-5,5.477c0,3.033,2.467,5.5,5.5,5.5s5.5-2.467,5.5-5.5
		c0-2.866-2.176-5.223-5-5.477v4.063c0.59,0.209,1,0.774,1,1.414c0,0.827-0.673,1.5-1.5,1.5s-1.5-0.673-1.5-1.5
		c0-0.64,0.41-1.205,1-1.414V9.721z M4.299,13.703C2.462,13.808,1,15.335,1,17.197c0,1.93,1.57,3.5,3.5,3.5s3.5-1.57,3.5-3.5
		c0-1.636-1.12-3.032-2.694-3.402c-0.166,0.65-0.265,1.318-0.294,1.993C5.595,16.001,6,16.563,6,17.197c0,0.827-0.673,1.5-1.5,1.5
		S3,18.024,3,17.197c0-0.645,0.415-1.212,1.012-1.418C4.04,15.076,4.136,14.38,4.299,13.703z M4.475,16.699
		C4.211,16.712,4,16.932,4,17.197c0,0.276,0.224,0.5,0.5,0.5s0.5-0.224,0.5-0.5c0-0.265-0.211-0.485-0.475-0.499
		C4.516,16.7,4.508,16.7,4.5,16.7S4.484,16.7,4.475,16.699z M17.475,14.699C17.211,14.712,17,14.932,17,15.197
		c0,0.276,0.224,0.5,0.5,0.5s0.5-0.224,0.5-0.5c0-0.265-0.211-0.485-0.475-0.499C17.516,14.7,17.508,14.7,17.5,14.7
		S17.484,14.7,17.475,14.699z"/>
</g>
</svg>
