<?xml version="1.0" encoding="utf-8"?>
<!-- Generator: Adobe Illustrator 22.1.0, SVG Export Plug-In . SVG Version: 6.00 Build 0)  -->
<svg version="1.1" id="Layer_1" xmlns="http://www.w3.org/2000/svg" xmlns:xlink="http://www.w3.org/1999/xlink" x="0px" y="0px"
	 viewBox="0 0 24 24" style="enable-background:new 0 0 24 24;" xml:space="preserve">
<g>
	<title>bicycle-city-guide</title>
	<path d="M5,22.999c-1.93,0-3.5-1.57-3.5-3.5s1.57-3.5,3.5-3.5s3.5,1.57,3.5,3.5S6.93,22.999,5,22.999z M5,16.999
		c-1.379,0-2.5,1.122-2.5,2.5s1.121,2.5,2.5,2.5s2.5-1.122,2.5-2.5S6.379,16.999,5,16.999z"/>
	<path d="M20.5,22.999c-1.93,0-3.5-1.57-3.5-3.5c0-1.027,0.441-1.98,1.218-2.647l-1.148-1.801c-1.337,0.986-2.355,2.38-2.882,3.951
		c-0.219,0.599-0.786,0.997-1.413,0.997H9.5c-0.276,0-0.5-0.224-0.5-0.5s0.224-0.5,0.5-0.5h0.977c-0.253-2.824-2.61-5-5.477-5H1.383
		l1.046,1.743c0.142,0.237,0.065,0.544-0.171,0.686C2.18,16.474,2.091,16.499,2,16.499c-0.175,0-0.339-0.093-0.429-0.243l-1.5-2.5
		c-0.008-0.014-0.017-0.032-0.023-0.05c-0.01-0.022-0.018-0.047-0.026-0.073c-0.006-0.021-0.013-0.048-0.017-0.08
		C0.002,13.534,0,13.514,0,13.499v-6c0-2.066,1-4.031,2.677-5.254C2.681,2.242,2.695,2.232,2.698,2.23
		c0.347-0.252,0.717-0.469,1.095-0.642c0.859-0.393,1.768-0.593,2.702-0.593C6.637,0.995,6.778,1,6.92,1.009
		c0.031-0.006,0.061-0.009,0.092-0.009c0.044,0,0.087,0.006,0.128,0.018c0.009,0.003,0.02,0.007,0.032,0.012
		c0.544,0.057,1.08,0.183,1.593,0.374c0.96,0.357,1.798,0.917,2.493,1.666c0.083,0.049,0.151,0.125,0.193,0.217
		c0.389,0.459,0.712,0.964,0.958,1.503c0.115,0.251,0.004,0.548-0.246,0.663c-0.066,0.03-0.136,0.045-0.208,0.045
		c-0.195,0-0.373-0.115-0.455-0.292c-0.121-0.265-0.269-0.526-0.441-0.779l-4.784,8.698c2.357,0.474,4.286,2.26,4.962,4.55
		l2.004-4.677H13c-0.827,0-1.5-0.673-1.5-1.5c0-0.827,0.673-1.5,1.5-1.5c0.025,0,0.051,0.002,0.076,0.006l3.217,0.495
		c0.667,0.023,1.207,0.58,1.207,1.249c0,0.689-0.561,1.25-1.25,1.25h-0.368l1.333,0.762c1.15-0.686,2.449-1.116,3.767-1.246
		L21,9.999c0-0.551-0.448-1-1-1h-1.5c-0.276,0-0.5-0.224-0.5-0.5s0.224-0.5,0.5-0.5H20c1.103,0,2,0.897,2,2v2.514
		c0.001,0.527-0.411,0.967-0.938,0.999c-1.108,0.109-2.169,0.445-3.151,0.998l1.148,1.8c0.452-0.204,0.945-0.312,1.441-0.312
		c1.93,0,3.5,1.57,3.5,3.5S22.43,22.999,20.5,22.999z M18.763,17.705C18.275,18.176,18,18.816,18,19.499c0,1.378,1.122,2.5,2.5,2.5
		s2.5-1.122,2.5-2.5s-1.122-2.5-2.5-2.5c-0.309,0-0.609,0.056-0.895,0.167l1.316,2.064c0.148,0.232,0.08,0.542-0.152,0.69
		c-0.081,0.052-0.174,0.079-0.269,0.079c-0.172,0-0.329-0.086-0.422-0.231L18.763,17.705z M12.775,18.999
		c0.209,0,0.398-0.132,0.47-0.328c0.571-1.702,1.622-3.178,3.051-4.283l-2.057-1.176l-2.481,5.788H12.775z M5,12.999
		c0.068,0,0.135,0.001,0.203,0.003l5.172-9.404c-0.56-0.559-1.218-0.981-1.959-1.256C8.084,2.218,7.727,2.127,7.354,2.069
		l-3.188,10.93H5z M3.125,12.999L6.332,2.003C5.594,2.023,4.881,2.19,4.21,2.497C3.961,2.611,3.711,2.751,3.465,2.915L2.548,12.999
		H3.125z M1.543,12.999l0.831-9.133C1.494,4.867,1,6.158,1,7.498v5.5H1.543z M12.968,11c-0.26,0.016-0.468,0.236-0.468,0.499
		c0,0.276,0.224,0.5,0.5,0.5h3.25c0.138,0,0.25-0.112,0.25-0.25s-0.112-0.25-0.25-0.25c-0.025,0-0.051-0.002-0.076-0.006L12.968,11z
		"/>
	<circle cx="5" cy="19.499" r="0.75"/>
</g>
</svg>
