<?xml version="1.0" encoding="utf-8"?>
<!-- Generator: Adobe Illustrator 22.1.0, SVG Export Plug-In . SVG Version: 6.00 Build 0)  -->
<svg version="1.1" id="Layer_1" xmlns="http://www.w3.org/2000/svg" xmlns:xlink="http://www.w3.org/1999/xlink" x="0px" y="0px"
	 viewBox="0 0 24 24" style="enable-background:new 0 0 24 24;" xml:space="preserve">
<g>
	<title>bicycle-sports-1</title>
	<path d="M19.5,21c-2.481,0-4.5-2.019-4.5-4.5c0-1.546,0.806-2.989,2.115-3.811l-0.376-1.427c-1.931,1.156-3.402,2.945-4.161,5.07
		C12.439,16.731,12.059,17,11.635,17H8.967c-0.251,2.261-2.169,4-4.467,4C2.019,21,0,18.981,0,16.5S2.019,12,4.5,12
		c0.666,0,1.329,0.151,1.931,0.438c0.426-0.443,0.891-0.84,1.387-1.184L6.191,8H5.5C5.224,8,5,7.776,5,7.5S5.224,7,5.5,7h3
		C8.776,7,9,7.224,9,7.5S8.776,8,8.5,8H7.309l1.364,2.728c1.45-0.783,3.125-1.18,4.98-1.18c1.12,0,2.08,0.149,2.708,0.28
		l-0.844-3.201C15.506,6.587,15.5,6.544,15.5,6.5C15.5,5.673,16.173,5,17,5c0.276,0,0.5-0.224,0.5-0.5S17.276,4,17,4h-2
		c-0.276,0-0.5-0.224-0.5-0.5S14.724,3,15,3h2c0.827,0,1.5,0.673,1.5,1.5S17.827,6,17,6c-0.258,0-0.47,0.193-0.497,0.446l1.53,5.8
		C18.504,12.083,18.997,12,19.5,12c2.481,0,4.5,2.019,4.5,4.5S21.981,21,19.5,21z M17.386,13.717C16.512,14.378,16,15.396,16,16.5
		c0,1.93,1.57,3.5,3.5,3.5s3.5-1.57,3.5-3.5S21.43,13,19.5,13c-0.415,0-0.822,0.073-1.211,0.218l0.679,2.574l0.693,0.235
		c0.261,0.089,0.401,0.373,0.313,0.634C19.905,16.864,19.714,17,19.5,17c-0.055,0-0.109-0.009-0.161-0.026l-0.947-0.321
		c-0.16-0.055-0.28-0.184-0.323-0.346L17.386,13.717z M4.5,13C2.57,13,1,14.57,1,16.5S2.57,20,4.5,20c1.744,0,3.215-1.298,3.46-3
		H4.5c-0.165,0-0.32-0.082-0.413-0.218c-0.093-0.136-0.113-0.309-0.053-0.463c0.455-1.17,1.03-2.207,1.712-3.086
		C5.345,13.078,4.928,13,4.5,13z M11.635,16c0.771-2.159,2.216-4.017,4.104-5.29c-0.578-0.107-1.319-0.199-2.156-0.199
		c-1.672,0-3.177,0.365-4.477,1.086L11.309,16H11.635z M10.191,16L8.26,12.138c-0.343,0.251-0.668,0.53-0.971,0.834
		C8.235,13.72,8.835,14.801,8.967,16H10.191z M7.96,16c-0.129-0.909-0.604-1.719-1.335-2.279C6.099,14.384,5.639,15.148,5.252,16
		H7.96z"/>
</g>
</svg>
