<?xml version="1.0" encoding="utf-8"?>
<!-- Generator: Adobe Illustrator 22.1.0, SVG Export Plug-In . SVG Version: 6.00 Build 0)  -->
<svg version="1.1" id="Layer_1" xmlns="http://www.w3.org/2000/svg" xmlns:xlink="http://www.w3.org/1999/xlink" x="0px" y="0px"
	 viewBox="0 0 24 24" style="enable-background:new 0 0 24 24;" xml:space="preserve">
<g>
	<title>bicycle-person</title>
	<path d="M6,6C4.346,6,3,4.654,3,3s1.346-3,3-3s3,1.346,3,3S7.655,6,6,6z M6,1C4.898,1,4,1.897,4,3s0.897,2,2,2s2-0.897,2-2
		S7.103,1,6,1z"/>
	<path d="M10.5,12c-0.276,0-0.5-0.224-0.5-0.5v-1C10,9.121,8.879,8,7.5,8h-3C3.122,8,2,9.121,2,10.5v1C2,11.776,1.776,12,1.5,12
		S1,11.776,1,11.5v-1C1,8.57,2.571,7,4.5,7h3C9.43,7,11,8.57,11,10.5v1C11,11.776,10.776,12,10.5,12z"/>
	<path d="M0.5,23.5C0.225,23.5,0,23.276,0,23v-9.5C0,13.224,0.225,13,0.5,13h10c0.276,0,0.5,0.224,0.5,0.5S10.776,14,10.5,14H1v9
		C1,23.276,0.776,23.5,0.5,23.5z"/>
	<path d="M23.5,24c-1.93,0-3.5-1.57-3.5-3.5c0-1.125,0.534-2.164,1.439-2.824l-0.665-1.255l-3.378,4.384
		c-0.085,0.102-0.184,0.162-0.293,0.185c-0.021,0.004-0.04,0.007-0.06,0.009C17.036,20.999,17.008,21,17,21h-2.539
		c-0.245,1.7-1.723,3-3.461,3c-1.93,0-3.5-1.57-3.5-3.5S9.071,17,11,17c0.628,0,1.236,0.167,1.773,0.484l1.68-2.1L13.91,14H13
		c-0.276,0-0.5-0.224-0.5-0.5S12.725,13,13,13h3c0.276,0,0.5,0.224,0.5,0.5S16.276,14,16,14h-1.016l0.393,1h4.646l-1.076-2.032
		c-0.125-0.236-0.15-0.506-0.072-0.762c0.078-0.255,0.252-0.465,0.488-0.59c0.143-0.076,0.305-0.116,0.468-0.116H21
		c0.276,0,0.5,0.224,0.5,0.5c0,0.276-0.224,0.5-0.5,0.5h-1.169l2.49,4.705C22.701,17.069,23.096,17,23.5,17
		c0.276,0,0.5,0.224,0.5,0.5S23.776,18,23.5,18c-0.24,0-0.476,0.034-0.704,0.101l1.146,2.165c0.062,0.118,0.075,0.253,0.036,0.381
		c-0.039,0.127-0.126,0.232-0.244,0.295C23.663,20.98,23.582,21,23.501,21c-0.186,0-0.355-0.102-0.442-0.266l-1.145-2.163
		C21.337,19.045,21,19.748,21,20.5c0,1.378,1.122,2.5,2.5,2.5c0.276,0,0.5,0.224,0.5,0.5S23.776,24,23.5,24z M11,18
		c-1.379,0-2.5,1.122-2.5,2.5S9.622,23,11,23c1.187,0,2.213-0.859,2.448-2h-1.407c-0.226,0-0.448-0.078-0.624-0.219
		c-0.209-0.166-0.34-0.404-0.37-0.67c-0.03-0.266,0.046-0.527,0.212-0.735l0.88-1.1C11.788,18.095,11.399,18,11,18z M12.041,20
		l1.408,0c-0.083-0.403-0.264-0.78-0.53-1.098L12.041,20z M16.267,20l-1.392-3.543l-1.323,1.654c0.491,0.524,0.808,1.181,0.91,1.889
		H16.267z M17.143,19.496L19.837,16H15.77L17.143,19.496z"/>
</g>
</svg>
