<?xml version="1.0" encoding="utf-8"?>
<!-- Generator: Adobe Illustrator 22.1.0, SVG Export Plug-In . SVG Version: 6.00 Build 0)  -->
<svg version="1.1" id="Layer_1" xmlns="http://www.w3.org/2000/svg" xmlns:xlink="http://www.w3.org/1999/xlink" x="0px" y="0px"
	 viewBox="0 0 24 24" style="enable-background:new 0 0 24 24;" xml:space="preserve">
<g>
	<title>unicycle</title>
	<path d="M12,24c-4.411,0-8-3.589-8-8c0-4.263,3.275-7.724,7.5-7.982V5h-2C7.019,5,5,2.982,5,0.5C5,0.225,5.224,0,5.5,0h1.974
		C7.598-0.012,7.724-0.019,7.85-0.019c0.671,0,1.329,0.179,1.904,0.518C10.885,1.32,12.184,1.834,13.53,2h3.72
		C18.297,2,19,2.603,19,3.5S18.297,5,17.25,5H12.5v3.018C16.725,8.277,20,11.738,20,16C20,20.411,16.411,24,12,24z M11.5,9.02
		C7.834,9.276,5,12.295,5,16c0,3.86,3.14,7,7,7s7-3.14,7-7c0-3.706-2.834-6.724-6.5-6.98v1.002c1.399,0.116,2.709,0.719,3.715,1.712
		c0.01,0.008,0.02,0.016,0.028,0.024c0.008,0.008,0.017,0.019,0.025,0.03C17.382,12.911,18,14.41,18,16
		c0,1.89-0.865,3.63-2.375,4.778c-0.012,0.012-0.027,0.025-0.038,0.033c-0.009,0.006-0.018,0.012-0.027,0.016
		C14.522,21.595,13.292,22,12,22c-1.442,0-2.836-0.522-3.928-1.47c-0.009-0.006-0.018-0.013-0.026-0.019
		c-0.009-0.008-0.019-0.018-0.028-0.028C6.739,19.35,6,17.714,6,16c0-1.703,0.73-3.33,2.004-4.47
		c0.011-0.014,0.025-0.03,0.044-0.046c0.01-0.008,0.024-0.017,0.038-0.026c0.958-0.826,2.161-1.331,3.415-1.437V9.02z M9.085,20.057
		c0.712,0.513,1.538,0.825,2.415,0.912v-3.034c-0.165-0.043-0.324-0.106-0.473-0.189L9.085,20.057z M12.5,20.969
		c0.751-0.075,1.471-0.316,2.108-0.706l-1.687-2.489c-0.133,0.069-0.275,0.123-0.421,0.161V20.969z M15.405,19.656
		c0.884-0.826,1.442-1.952,1.563-3.156h-3.034c-0.055,0.212-0.144,0.414-0.264,0.597L15.405,19.656z M7.032,16.5
		c0.108,1.084,0.564,2.095,1.304,2.894l1.967-2.34c-0.106-0.171-0.186-0.358-0.237-0.553H7.032z M12,15c-0.551,0-1,0.448-1,1
		s0.449,1,1,1c0.552,0,1-0.448,1-1S12.552,15,12,15z M16.968,15.5c-0.098-0.972-0.483-1.9-1.103-2.658l-2.145,2.145
		c0.095,0.161,0.167,0.334,0.213,0.514H16.968z M10.066,15.5c0.051-0.195,0.13-0.382,0.237-0.553l-1.967-2.34
		c-0.74,0.799-1.196,1.809-1.304,2.893H10.066z M12.5,14.066c0.18,0.047,0.353,0.119,0.514,0.213l2.145-2.145
		c-0.758-0.62-1.686-1.005-2.658-1.103V14.066z M11.028,14.255c0.149-0.083,0.308-0.147,0.472-0.189v-3.034
		c-0.877,0.087-1.703,0.399-2.415,0.912L11.028,14.255z M6.036,1C6.28,2.703,7.753,4,9.5,4h7.75C17.592,4,18,3.914,18,3.5
		S17.592,3,17.25,3H13.5c-0.019,0-0.038-0.001-0.057-0.003c-1.53-0.183-2.994-0.758-4.237-1.664
		c-0.382-0.222-0.87-0.352-1.353-0.352c-0.099,0-0.2,0.005-0.297,0.016C7.536,0.999,7.518,1,7.5,1H6.036z"/>
</g>
</svg>
