<?xml version="1.0" encoding="utf-8"?>
<!-- Generator: Adobe Illustrator 22.1.0, SVG Export Plug-In . SVG Version: 6.00 Build 0)  -->
<svg version="1.1" id="Layer_1" xmlns="http://www.w3.org/2000/svg" xmlns:xlink="http://www.w3.org/1999/xlink" x="0px" y="0px"
	 viewBox="0 0 24 24" style="enable-background:new 0 0 24 24;" xml:space="preserve">
<g>
	<title>car-tool-spark-plug</title>
	<path d="M9.5,23.5C9.224,23.5,9,23.276,9,23s0.224-0.5,0.5-0.5H12c0.276,0,0.5-0.224,0.5-0.5v-1.5H10c-0.827,0-1.5-0.673-1.5-1.5
		c0-0.375,0.138-0.727,0.387-1C8.638,17.727,8.5,17.375,8.5,17s0.138-0.727,0.387-1C8.638,15.727,8.5,15.375,8.5,15
		c0-0.172,0.03-0.34,0.088-0.5H8.5c-1.103,0-2-0.897-2-2s0.897-2,2-2h1V5c0-0.077,0.018-0.155,0.053-0.224L10.5,2.882V2
		c0-0.827,0.673-1.5,1.5-1.5s1.5,0.673,1.5,1.5v0.882l0.947,1.894C14.482,4.845,14.5,4.923,14.5,5v5.5h1c1.103,0,2,0.897,2,2
		s-0.897,2-2,2h-0.088C15.47,14.66,15.5,14.828,15.5,15c0,0.375-0.138,0.727-0.387,1c0.249,0.273,0.387,0.625,0.387,1
		s-0.138,0.727-0.387,1c0.249,0.273,0.387,0.625,0.387,1c0,0.827-0.673,1.5-1.5,1.5h-0.5V22c0,0.827-0.673,1.5-1.5,1.5H9.5z
		 M10,18.5c-0.276,0-0.5,0.224-0.5,0.5s0.224,0.5,0.5,0.5h4c0.276,0,0.5-0.224,0.5-0.5s-0.224-0.5-0.5-0.5H10z M10,16.5
		c-0.276,0-0.5,0.224-0.5,0.5s0.224,0.5,0.5,0.5h4c0.276,0,0.5-0.224,0.5-0.5s-0.224-0.5-0.5-0.5H10z M10,14.5
		c-0.276,0-0.5,0.224-0.5,0.5s0.224,0.5,0.5,0.5h4c0.276,0,0.5-0.224,0.5-0.5s-0.224-0.5-0.5-0.5H10z M8.5,11.5
		c-0.551,0-1,0.449-1,1c0,0.552,0.449,1,1,1h7c0.552,0,1-0.448,1-1c0-0.551-0.448-1-1-1H8.5z M13.5,10.5V5.118l-0.947-1.894
		C12.518,3.155,12.5,3.077,12.5,3V2c0-0.276-0.224-0.5-0.5-0.5c-0.276,0-0.5,0.224-0.5,0.5v1c0,0.077-0.018,0.155-0.053,0.224
		L10.5,5.118V10.5H13.5z"/>
</g>
</svg>
