<?xml version="1.0" encoding="utf-8"?>
<!-- Generator: Adobe Illustrator 22.1.0, SVG Export Plug-In . SVG Version: 6.00 Build 0)  -->
<svg version="1.1" id="Layer_1" xmlns="http://www.w3.org/2000/svg" xmlns:xlink="http://www.w3.org/1999/xlink" x="0px" y="0px"
	 viewBox="0 0 24 24" style="enable-background:new 0 0 24 24;" xml:space="preserve">
<g>
	<title>car-tool-steering-wheel</title>
	<path d="M12,24C5.383,24,0,18.617,0,12C0,5.383,5.383,0,12,0c6.617,0,12,5.383,12,12C24,18.617,18.617,24,12,24z M12,1
		C5.935,1,1,5.935,1,12s4.935,11,11,11s11-4.935,11-11S18.065,1,12,1z"/>
	<path d="M12,20c-2.551,0-4.97-1.237-6.476-3.311c-0.034-0.035-0.062-0.075-0.084-0.118C4.498,15.223,4,13.643,4,12
		c0-1.534,0.439-3.027,1.27-4.318c0.019-0.042,0.043-0.072,0.056-0.088C6.812,5.347,9.308,4,12,4c2.692,0,5.189,1.347,6.679,3.603
		c0.008,0.007,0.032,0.037,0.051,0.08c0.583,0.906,0.971,1.902,1.153,2.961c0,0.001,0.001,0.004,0.001,0.004
		C19.961,11.099,20,11.555,20,12c0,1.643-0.498,3.223-1.44,4.571c-0.022,0.043-0.051,0.083-0.084,0.118
		C16.97,18.763,14.551,20,12,20z M8.859,18.252C9.83,18.742,10.91,19,12,19c1.091,0,2.17-0.258,3.141-0.747l-2.624-2.793
		C12.343,15.487,12.169,15.5,12,15.5c-0.169,0-0.343-0.013-0.517-0.04L8.859,18.252z M6.539,16.374
		c0.415,0.517,0.898,0.971,1.442,1.353l2.447-2.604c-0.604-0.306-1.113-0.785-1.454-1.37L6.539,16.374z M16.019,17.727
		c0.543-0.382,1.027-0.836,1.442-1.353l-2.435-2.621c-0.341,0.584-0.85,1.063-1.454,1.37L16.019,17.727z M18.041,15.529
		C18.669,14.458,19,13.245,19,12c0-0.188-0.009-0.382-0.025-0.58l-3.374,1.482L18.041,15.529z M5.026,11.42
		C5.009,11.617,5,11.812,5,12c0,1.245,0.331,2.458,0.959,3.529l2.441-2.627L5.026,11.42z M12,9.5c-1.379,0-2.5,1.121-2.5,2.5
		c0,1.378,1.121,2.5,2.5,2.5c1.378,0,2.5-1.122,2.5-2.5C14.5,10.621,13.378,9.5,12,9.5z M8.503,11.856
		c0.028-0.681,0.257-1.339,0.656-1.893L5.927,8.524c-0.338,0.588-0.587,1.217-0.741,1.873L8.503,11.856z M14.841,9.963
		c0.399,0.555,0.628,1.212,0.656,1.893l3.318-1.458c-0.154-0.657-0.403-1.286-0.741-1.874L14.841,9.963z M9.904,9.2
		C9.935,9.177,9.967,9.155,10,9.132V5.292C8.619,5.705,7.393,6.542,6.496,7.683L9.904,9.2z M14.096,9.2l3.408-1.516
		C16.607,6.542,15.381,5.705,14,5.292v3.839C14.033,9.154,14.065,9.177,14.096,9.2z M12,8.5c0.342,0,0.677,0.049,1,0.146V5.073
		C12.665,5.025,12.329,5,12,5s-0.665,0.025-1,0.073v3.573C11.323,8.549,11.658,8.5,12,8.5z"/>
</g>
</svg>
