<?xml version="1.0" encoding="utf-8"?>
<!-- Generator: Adobe Illustrator 22.1.0, SVG Export Plug-In . SVG Version: 6.00 Build 0)  -->
<svg version="1.1" id="Layer_1" xmlns="http://www.w3.org/2000/svg" xmlns:xlink="http://www.w3.org/1999/xlink" x="0px" y="0px"
	 viewBox="0 0 24 24" style="enable-background:new 0 0 24 24;" xml:space="preserve">
<g>
	<title>car-tool-keys</title>
	<path d="M7.532,13.893c-0.401,0-0.778-0.156-1.061-0.439c-0.585-0.585-0.584-1.537,0-2.121c0.283-0.283,0.66-0.438,1.061-0.438
		c0.401,0,0.778,0.156,1.061,0.439c0.283,0.284,0.439,0.66,0.439,1.061c0,0.401-0.156,0.777-0.439,1.061
		C8.31,13.737,7.933,13.893,7.532,13.893z M7.532,11.894c-0.134,0-0.259,0.052-0.353,0.146c-0.195,0.195-0.195,0.512,0,0.707
		c0.094,0.094,0.22,0.146,0.354,0.146s0.26-0.052,0.354-0.146c0.094-0.094,0.146-0.22,0.146-0.353c0-0.134-0.052-0.259-0.146-0.354
		C7.792,11.946,7.666,11.894,7.532,11.894z"/>
	<path d="M10.36,11.068c-0.401,0-0.777-0.156-1.061-0.44S8.86,9.969,8.86,9.568c0-0.401,0.156-0.777,0.44-1.061
		c0.283-0.283,0.66-0.439,1.06-0.439c0.401,0,0.777,0.156,1.061,0.44c0.283,0.283,0.439,0.66,0.439,1.061
		c0,0.401-0.156,0.777-0.44,1.06C11.137,10.912,10.761,11.068,10.36,11.068C10.36,11.068,10.36,11.068,10.36,11.068z M10.36,9.068
		c-0.134,0-0.259,0.052-0.353,0.146C9.912,9.309,9.86,9.435,9.86,9.568c0,0.133,0.052,0.259,0.146,0.353
		c0.094,0.094,0.22,0.146,0.354,0.147c0.133,0,0.259-0.052,0.353-0.146c0.094-0.094,0.146-0.22,0.146-0.354
		c0-0.134-0.052-0.259-0.146-0.354C10.62,9.12,10.494,9.068,10.36,9.068L10.36,9.068z"/>
	<path d="M20.31,22.886c-0.153,0-0.306-0.024-0.453-0.07c-0.38-0.12-0.691-0.382-0.876-0.736c-0.118-0.227-0.178-0.465-0.178-0.709
		v-4.256h-0.5c-0.827,0-1.5-0.673-1.5-1.5v-2c0-1.379,1.122-2.5,2.5-2.5h0.499v-1.038c-0.169,0.025-0.336,0.038-0.5,0.038
		c-1.386,0-2.645-0.832-3.2-2.093c-0.262,0.062-0.53,0.093-0.8,0.093c-0.098,0-0.198-0.005-0.298-0.014
		c0.171,0.308,0.305,0.635,0.398,0.975c0,0,0.007,0.026,0.009,0.034c0.103,0.384,0.156,0.778,0.156,1.164
		c0,1.202-0.468,2.332-1.318,3.182L9.3,18.407c-0.849,0.848-1.978,1.315-3.182,1.315s-2.333-0.467-3.182-1.315l-1.415-1.412
		c-1.755-1.755-1.755-4.61,0-6.365l4.95-4.95c0.847-0.847,1.975-1.313,3.177-1.313c0.402,0,0.801,0.053,1.188,0.158
		c0.003,0.001,0.007,0.002,0.012,0.004v0c0.337,0.092,0.661,0.224,0.967,0.393c-0.01-0.103-0.014-0.205-0.014-0.306
		c0-1.93,1.57-3.5,3.5-3.5c1.386,0,2.645,0.832,3.2,2.093c0.262-0.062,0.53-0.093,0.8-0.093c1.93,0,3.5,1.57,3.5,3.5
		c0,1.359-0.78,2.582-2,3.161v1.339h0.501c1.378,0,2.5,1.121,2.5,2.5v2c0,0.827-0.673,1.5-1.5,1.5h-0.5v4.274
		c0.001,0.561-0.308,1.07-0.806,1.328C20.784,22.828,20.547,22.886,20.31,22.886z M19.803,21.371c0,0.08,0.02,0.16,0.057,0.231
		c0.069,0.133,0.169,0.22,0.299,0.261c0.05,0.016,0.1,0.024,0.151,0.024c0.079,0,0.155-0.019,0.227-0.056
		c0.165-0.086,0.267-0.254,0.267-0.44v-4.275h-1V21.371z M9.617,5.365C8.695,5.374,7.83,5.736,7.179,6.387l-4.95,4.95
		c-1.365,1.365-1.365,3.585,0,4.95l1.415,1.412c0.66,0.66,1.539,1.023,2.475,1.023c0.936,0,1.815-0.363,2.475-1.023l4.95-4.949
		c0.653-0.653,1.016-1.518,1.025-2.439L9.299,15.58c-0.471,0.471-1.099,0.731-1.768,0.731s-1.296-0.26-1.767-0.731L4.35,14.165
		c-0.974-0.975-0.974-2.56,0-3.535L9.617,5.365z M19.303,12.115c-0.827,0-1.5,0.673-1.5,1.5v2c0,0.276,0.224,0.5,0.5,0.5h4
		c0.276,0,0.5-0.224,0.5-0.5v-2c0-0.827-0.673-1.5-1.5-1.5h-0.501v1c0,0.276-0.224,0.5-0.5,0.5s-0.5-0.224-0.5-0.5v-1H19.303z
		 M5.057,11.337c-0.585,0.585-0.585,1.536,0,2.121l1.414,1.415c0.282,0.282,0.659,0.438,1.06,0.438s0.778-0.156,1.061-0.438
		L14.365,9.1c-0.173-0.485-0.455-0.932-0.823-1.299l-1.415-1.414c-0.371-0.371-0.807-0.646-1.3-0.82L5.057,11.337z M17.032,7.653
		c0.404,0.883,1.292,1.462,2.271,1.462c0.166,0,0.333-0.018,0.5-0.052V8.115c0-0.276,0.224-0.5,0.5-0.5s0.5,0.224,0.5,0.5v0.497
		c0.625-0.468,1-1.201,1-1.997c0-1.379-1.122-2.5-2.5-2.5c-0.178,0-0.355,0.019-0.529,0.057c0.019,0.149,0.029,0.297,0.029,0.443
		C18.802,5.866,18.114,7.034,17.032,7.653z M15.302,2.115c-1.378,0-2.5,1.121-2.5,2.5c0,0.654,0.253,1.274,0.713,1.744l0.045,0.045
		c0.469,0.457,1.088,0.71,1.742,0.71c0.178,0,0.355-0.019,0.529-0.057c-0.019-0.149-0.029-0.297-0.029-0.443
		c0-1.25,0.688-2.418,1.771-3.038C17.169,2.695,16.282,2.115,15.302,2.115z M17.802,4.618c-0.624,0.468-0.999,1.203-1,1.996
		C17.427,6.145,17.802,5.411,17.802,4.618z"/>
</g>
</svg>
