<?xml version="1.0" encoding="utf-8"?>
<!-- Generator: Adobe Illustrator 22.1.0, SVG Export Plug-In . SVG Version: 6.00 Build 0)  -->
<svg version="1.1" id="Light" xmlns="http://www.w3.org/2000/svg" xmlns:xlink="http://www.w3.org/1999/xlink" x="0px" y="0px"
	 viewBox="0 0 24 24" style="enable-background:new 0 0 24 24;" xml:space="preserve">
<g>
	<title>livestock-lamb</title>
	<path d="M15.493,15.002c-0.999,0-2.511-1.003-3.727-2.458c-0.068,0.033-0.132,0.061-0.196,0.086
		c-0.408,0.162-0.836,0.244-1.272,0.244c-1.432,0-2.697-0.859-3.223-2.187c-0.07-0.176-0.035-0.374,0.091-0.516l3.172-3.568
		c0.797-2.155,2.862-3.599,5.155-3.599c2.248,0,4.299,1.407,5.12,3.506l3.254,3.662c0.126,0.141,0.161,0.339,0.091,0.516
		c-0.087,0.222-0.199,0.436-0.331,0.636c-0.51,0.773-1.29,1.3-2.196,1.486c-0.232,0.048-0.469,0.072-0.703,0.072
		c-0.518,0-1.032-0.119-1.5-0.346C18.01,13.996,16.495,15.002,15.493,15.002z M15.493,4.002c-2.481,0-4.5,2.019-4.5,4.5
		c0,2.444,3.263,5.5,4.5,5.5c1.237,0,4.5-3.056,4.5-5.5C19.993,6.021,17.974,4.002,15.493,4.002z M19.843,11.713
		c0.282,0.11,0.584,0.167,0.886,0.167c0.167,0,0.335-0.017,0.501-0.051c0.645-0.132,1.2-0.508,1.562-1.057
		c0.039-0.059,0.076-0.12,0.109-0.182l-1.909-2.148c0,0.021,0,0.041,0,0.061C20.993,9.712,20.402,10.879,19.843,11.713z
		 M8.131,10.589c0.428,0.785,1.261,1.285,2.166,1.285c0.291,0,0.577-0.051,0.851-0.153c-0.563-0.836-1.156-2.005-1.156-3.219
		c0-0.002,0-0.005,0-0.007L8.131,10.589z"/>
	<circle cx="13.493" cy="9.502" r="0.75"/>
	<circle cx="17.493" cy="9.502" r="0.75"/>
	<path d="M13.493,22.002c-0.276,0-0.5-0.224-0.5-0.5V17.97c-0.174,0.02-0.348,0.03-0.52,0.03c-0.201,0-0.402-0.014-0.6-0.041
		c-0.804,0.67-1.823,1.037-2.88,1.037c-1.058,0-2.076-0.368-2.88-1.037c-0.205,0.029-0.413,0.043-0.62,0.043
		c-0.514,0-1.017-0.087-1.5-0.259v3.759c0,0.276-0.224,0.5-0.5,0.5s-0.5-0.224-0.5-0.5v-4.261c-0.251-0.167-0.48-0.354-0.682-0.556
		c-0.85-0.85-1.318-1.98-1.318-3.182c0-0.056,0.001-0.112,0.003-0.167c-1.344-1.656-1.345-4.007-0.001-5.664
		C0.993,7.614,0.993,7.558,0.993,7.502c0-0.291,0.028-0.584,0.085-0.869c0.232-1.179,0.909-2.198,1.907-2.868
		c0.745-0.501,1.61-0.765,2.499-0.765c0.209,0,0.42,0.015,0.629,0.044C6.92,2.372,7.939,2.003,8.997,2.003
		c0.717,0,1.432,0.174,2.067,0.503c0.119,0.061,0.206,0.165,0.247,0.293s0.029,0.263-0.033,0.381
		c-0.086,0.166-0.256,0.27-0.444,0.27c-0.08,0-0.159-0.02-0.23-0.056c-0.494-0.256-1.049-0.391-1.607-0.391
		c-0.893,0-1.742,0.334-2.392,0.94C6.513,4.029,6.392,4.077,6.264,4.077c-0.032,0-0.064-0.003-0.095-0.009
		C5.942,4.023,5.712,4.001,5.485,4.001c-0.691,0-1.363,0.206-1.943,0.595c-0.776,0.521-1.303,1.313-1.484,2.23
		C2.015,7.048,1.993,7.276,1.993,7.502c0,0.101,0,0.196,0.01,0.275C2.021,7.921,1.976,8.065,1.88,8.173
		c-1.184,1.328-1.184,3.331,0,4.659c0.091,0.102,0.136,0.238,0.125,0.373c-0.008,0.097-0.012,0.197-0.012,0.297
		c0,0.935,0.364,1.814,1.025,2.475c0.661,0.661,1.54,1.025,2.475,1.025c0.227,0,0.454-0.022,0.675-0.066
		c0.032-0.006,0.065-0.009,0.097-0.009c0.126,0,0.247,0.047,0.341,0.134c0.648,0.604,1.495,0.937,2.387,0.937
		s1.74-0.333,2.387-0.936c0.093-0.087,0.214-0.135,0.34-0.135c0.033,0,0.066,0.003,0.099,0.01c0.217,0.043,0.441,0.064,0.665,0.064
		c0.854,0,1.676-0.307,2.313-0.865c0.091-0.08,0.208-0.124,0.329-0.124c0.144,0,0.281,0.062,0.376,0.171
		c0.088,0.101,0.132,0.229,0.123,0.363s-0.069,0.255-0.17,0.343c-0.425,0.372-0.917,0.657-1.463,0.849v3.764
		C13.993,21.778,13.768,22.002,13.493,22.002z"/>
</g>
</svg>
