<?xml version="1.0" encoding="utf-8"?>
<!-- Generator: Adobe Illustrator 22.1.0, SVG Export Plug-In . SVG Version: 6.00 Build 0)  -->
<svg version="1.1" id="Light" xmlns="http://www.w3.org/2000/svg" xmlns:xlink="http://www.w3.org/1999/xlink" x="0px" y="0px"
	 viewBox="0 0 24 24" style="enable-background:new 0 0 24 24;" xml:space="preserve">
<g>
	<title>livestock-ram-1</title>
	<path d="M4,24c-0.276,0-0.5-0.224-0.5-0.5c0-0.261,0.028-6.449,2.439-10.391c0.092-0.15,0.251-0.24,0.427-0.24
		c0.092,0,0.183,0.026,0.262,0.074c0.113,0.069,0.193,0.179,0.224,0.309c0.031,0.13,0.01,0.264-0.06,0.378
		C4.528,17.332,4.5,23.439,4.5,23.5C4.5,23.776,4.276,24,4,24z"/>
	<path d="M17,24c-2.707,0-5.96-2.653-6.496-6.938c-0.017-0.133,0.02-0.263,0.101-0.369c0.082-0.105,0.2-0.173,0.333-0.189
		c0.021-0.003,0.041-0.004,0.061-0.004c0.252,0,0.466,0.188,0.497,0.438C11.964,20.682,14.718,23,17,23
		c0.334,0,0.636-0.045,0.902-0.133l-0.846-1.637c-0.126-0.245-0.03-0.547,0.215-0.674c0.071-0.036,0.15-0.056,0.229-0.056
		c0.188,0,0.358,0.104,0.445,0.27l0.799,1.545C19.5,21.453,19.5,19.937,19.5,19v-8.953c-0.91,0.603-1.987,0.93-3.082,0.93
		c-0.96,0-1.902-0.25-2.743-0.726c-0.827,1.442-2.391,2.36-4.058,2.36c-0.118,0-0.237-0.004-0.356-0.013
		C6.12,12.356,3.76,9.603,4.001,6.462c0.423-3.691,3.531-6.467,7.23-6.467c0.096,0,0.192,0.002,0.288,0.006c0,0,0.001,0,0.001,0
		c3.549,0,6.114,1.253,7.614,3.725C20.323,5.684,20.5,7.871,20.5,9v10c0,1.135,0,3.495-1.639,4.521
		c-0.014,0.011-0.029,0.021-0.042,0.028c-0.004,0.002-0.009,0.004-0.013,0.006C18.308,23.85,17.701,24,17,24z M11.241,0.995
		c-3.196,0-5.88,2.391-6.244,5.562c-0.198,2.578,1.75,4.845,4.342,5.045c0.095,0.007,0.19,0.011,0.284,0.011
		c1.905,0,3.512-1.489,3.659-3.39c0.12-1.56-1.052-2.928-2.612-3.048c-0.058-0.005-0.115-0.007-0.171-0.007
		c-1.124,0-2.072,0.88-2.159,2.004C8.273,8.073,8.948,8.859,9.845,8.928c0.275,0.021,0.481,0.262,0.46,0.537
		c-0.02,0.259-0.239,0.461-0.499,0.461c-0.006,0-0.031-0.001-0.037-0.001c-1.449-0.112-2.537-1.382-2.426-2.83
		c0-0.007,0.004-0.037,0.005-0.044c0.147-1.637,1.505-2.884,3.156-2.884c0.08,0,0.161,0.003,0.242,0.009
		c2.11,0.162,3.695,2.011,3.532,4.121c-0.026,0.343-0.094,0.688-0.201,1.029c0.711,0.423,1.517,0.646,2.343,0.646
		c1.142,0,2.231-0.422,3.077-1.19C19.446,6.354,18.533,1,11.5,1C11.407,0.996,11.324,0.995,11.241,0.995z"/>
	<circle cx="17" cy="13.5" r="0.75"/>
</g>
</svg>
