<?xml version="1.0" encoding="utf-8"?>
<!-- Generator: Adobe Illustrator 22.1.0, SVG Export Plug-In . SVG Version: 6.00 Build 0)  -->
<svg version="1.1" id="Light" xmlns="http://www.w3.org/2000/svg" xmlns:xlink="http://www.w3.org/1999/xlink" x="0px" y="0px"
	 viewBox="0 0 24 24" style="enable-background:new 0 0 24 24;" xml:space="preserve">
<g>
	<title>livestock-sheep-body</title>
	<path d="M19,23.25c-0.276,0-0.5-0.224-0.5-0.5v-3.221c-1.075,0.801-2.313,1.221-3.611,1.221l-0.15,0.001
		c-0.743,0-1.494-0.082-2.239-0.243v2.241c0,0.276-0.224,0.5-0.5,0.5c-0.276,0-0.5-0.224-0.5-0.5v-2.507
		c-0.134-0.042-0.255-0.082-0.371-0.123c-1.118,0.419-2.29,0.631-3.485,0.631L7.493,20.75c-1.064,0-2.069-0.227-2.993-0.674v2.674
		c0,0.276-0.224,0.5-0.5,0.5s-0.5-0.224-0.5-0.5v-3.272c-1.908-1.375-3-3.636-3-6.228c0-4.276,3.009-7.5,7-7.5
		c0.467,0,0.899,0.017,1.285,0.051c0.133,0.011,0.254,0.074,0.339,0.177C9.211,6.08,9.252,6.209,9.24,6.342
		C9.218,6.598,9,6.799,8.743,6.799c-0.008,0-0.038-0.001-0.046-0.002C8.342,6.766,7.939,6.75,7.5,6.75c-3.421,0-6,2.794-6,6.5
		s2.579,6.5,6,6.5l0.153,0.001c1.127,0,2.232-0.212,3.287-0.63c0.059-0.023,0.121-0.035,0.184-0.035c0.06,0,0.118,0.01,0.175,0.031
		c1.119,0.421,2.284,0.634,3.464,0.634l0.121-0.001c3.098,0,5.616-2.916,5.616-6.5c0-0.887-0.074-1.779-0.219-2.653
		c-0.022-0.132,0.009-0.264,0.086-0.373s0.193-0.181,0.325-0.203c0.027-0.005,0.055-0.007,0.083-0.007
		c0.246,0,0.453,0.176,0.493,0.418c0.155,0.927,0.233,1.874,0.233,2.817c0,2.04-0.709,3.942-2,5.368v4.132
		C19.5,23.025,19.276,23.25,19,23.25z"/>
	<path d="M8.479,12.379c-0.124-0.002-0.248-0.057-0.34-0.154C8.047,12.129,7.997,12.002,8,11.868c0.054-2.4,1.226-4.596,3.161-5.969
		c-0.72-0.318-1.296-0.886-1.618-1.614C9.483,4.15,9.486,3.996,9.551,3.863c0.065-0.133,0.184-0.229,0.328-0.265l3.491-0.873
		c0.621-1.14,1.798-1.893,3.099-1.974c0.005,0,0.026-0.001,0.031-0.001l0.033,0.001c1.297,0.08,2.474,0.832,3.097,1.969l3.492,0.878
		c0.143,0.036,0.263,0.133,0.327,0.266c0.065,0.132,0.068,0.286,0.007,0.422c-0.509,1.149-1.653,1.891-2.914,1.891
		c0,0-0.03,0-0.045,0C20.427,8.99,18.661,11.25,16.5,11.25c-2.143,0-3.898-2.224-3.996-5.006C10.391,7.35,9.054,9.494,9,11.891
		c-0.006,0.27-0.23,0.489-0.5,0.489C8.495,12.38,8.484,12.379,8.479,12.379z M13.029,5.115c0.119,0,0.235,0.043,0.325,0.12
		c0.119,0.102,0.184,0.255,0.174,0.411c-0.003,0.056-0.009,0.111-0.015,0.166C13.507,5.882,13.5,5.94,13.5,6
		c0,2.344,1.346,4.25,3,4.25s3-1.906,3-4.25c0-0.06-0.006-0.118-0.012-0.176c-0.007-0.067-0.012-0.122-0.016-0.178
		c-0.01-0.155,0.055-0.309,0.174-0.41c0.092-0.078,0.207-0.12,0.326-0.12c0.036,0,0.072,0.004,0.106,0.011
		c0.154,0.034,0.31,0.051,0.467,0.051c0.646,0,1.26-0.291,1.671-0.776l-3.051-0.767c-0.146-0.037-0.267-0.137-0.331-0.274
		c-0.429-0.92-1.322-1.536-2.334-1.61c-1.012,0.075-1.906,0.692-2.333,1.614c-0.064,0.138-0.185,0.238-0.333,0.275l-3.049,0.762
		c0.411,0.484,1.024,0.773,1.671,0.773c0,0,0.067-0.002,0.069-0.002l0.028,0.001c0.115-0.005,0.247-0.021,0.369-0.048
		C12.957,5.119,12.993,5.115,13.029,5.115z"/>
	<circle cx="15.25" cy="5" r="0.75"/>
	<circle cx="17.75" cy="5" r="0.75"/>
</g>
</svg>
