<?xml version="1.0" encoding="utf-8"?>
<!-- Generator: Adobe Illustrator 22.1.0, SVG Export Plug-In . SVG Version: 6.00 Build 0)  -->
<svg version="1.1" id="Light" xmlns="http://www.w3.org/2000/svg" xmlns:xlink="http://www.w3.org/1999/xlink" x="0px" y="0px"
	 viewBox="0 0 24 24" style="enable-background:new 0 0 24 24;" xml:space="preserve">
<g>
	<title>livestock-cow-body</title>
	<path d="M17.222,12.75c-0.646,0-1.218-0.413-1.422-1.026l-0.954-2.862c-0.401,0.214-0.844,0.346-1.3,0.386c0,0,0,0,0,0
		c-0.369,0-0.656-0.168-0.829-0.472c-0.31-0.544-0.218-1.445,0.224-2.192c0.29-0.49,0.971-1.307,2.309-1.379
		c0.021-0.022,0.043-0.043,0.065-0.063c-0.221-0.436-0.329-0.918-0.313-1.406c0.009-0.267,0.232-0.484,0.497-0.484
		c0.153,0.005,0.276,0.061,0.367,0.159c0.091,0.098,0.139,0.225,0.135,0.358c-0.011,0.339,0.072,0.682,0.237,0.981
		c0.028-0.002,0.056-0.003,0.083-0.003h3.361c0.027,0,0.053,0.001,0.081,0.003c0.165-0.302,0.249-0.647,0.239-0.988
		c-0.004-0.133,0.044-0.26,0.135-0.358c0.092-0.097,0.215-0.153,0.349-0.157c0,0,0.001,0,0.001,0c0.285,0,0.506,0.217,0.514,0.484
		c0.015,0.488-0.093,0.971-0.314,1.409c0.023,0.021,0.046,0.043,0.067,0.065c1.338,0.071,2.019,0.889,2.309,1.379
		c0.442,0.747,0.535,1.648,0.225,2.192c-0.172,0.302-0.459,0.475-0.787,0.475c-0.492-0.042-0.939-0.172-1.344-0.388l-0.953,2.862
		c-0.205,0.614-0.776,1.026-1.423,1.026H17.222z M15.112,7.581c0.046,0,0.092,0.006,0.136,0.019c0.16,0.045,0.286,0.166,0.339,0.323
		l1.162,3.485c0.068,0.205,0.259,0.342,0.474,0.342h1.558c0.216,0,0.406-0.137,0.474-0.342l1.161-3.485
		c0.053-0.158,0.18-0.278,0.339-0.323c0.043-0.012,0.089-0.019,0.135-0.019c0.117,0,0.232,0.042,0.322,0.117
		c0.351,0.295,0.772,0.481,1.223,0.542c0.068-0.2,0.045-0.679-0.232-1.147C21.962,6.686,21.48,6.2,20.553,6.2l-0.033,0
		c-0.18,0-0.332-0.083-0.426-0.227c-0.092-0.14-0.247-0.225-0.415-0.226h-3.357c-0.167,0-0.321,0.085-0.412,0.225
		C15.82,6.113,15.659,6.2,15.491,6.2l-0.051,0c-0.966,0-1.442,0.56-1.639,0.893c-0.281,0.475-0.3,0.963-0.233,1.15
		c0.43-0.054,0.868-0.246,1.222-0.544C14.88,7.623,14.995,7.581,15.112,7.581z"/>
	<path d="M14.001,20.75c-0.242,0-0.449-0.173-0.492-0.411l-0.926-5.089H11.28c-0.512,0.771-1.255,1.365-2.125,1.698l0.27,0.596
		c0.114,0.251,0.002,0.548-0.249,0.662c-0.066,0.03-0.135,0.045-0.206,0.045c-0.196,0-0.375-0.115-0.456-0.294l-0.341-0.753
		c-0.216,0.031-0.434,0.047-0.651,0.047c-0.077,0.01-0.167,0.016-0.259,0.019l-0.345,0.702c-0.085,0.172-0.257,0.279-0.449,0.279
		c-0.076,0-0.152-0.018-0.22-0.051c-0.12-0.059-0.21-0.161-0.253-0.288C5.953,17.785,5.961,17.65,6.02,17.53l0.198-0.403
		c-0.5-0.149-0.96-0.416-1.339-0.775l-0.89,4.007c-0.051,0.23-0.252,0.392-0.488,0.392h-2c-0.258,0-0.472-0.194-0.498-0.45
		c-0.005-0.048-0.471-4.807-0.471-10.819C0.559,7.257,2.247,5.44,4.459,5.252l7.042-0.002c0.276,0,0.5,0.224,0.5,0.5
		s-0.224,0.5-0.5,0.5H6.111l0.104,0.52c0.207,1.033-0.262,2.091-1.165,2.634l-1.113,0.668l-0.26,1.042
		C3.509,11.783,2.91,12.25,2.221,12.25H1.564c0.082,3.623,0.301,6.437,0.393,7.5H3.1l0.913-4.108c0.044-0.2,0.203-0.351,0.406-0.385
		c0.004-0.001,0.132-0.023,0.328-0.094c0.003-0.001,0.013-0.004,0.013-0.004c0.674-0.248,2.242-1.126,2.242-3.908
		c0-0.276,0.224-0.5,0.5-0.5s0.5,0.224,0.5,0.5c0,2.698-1.296,3.963-2.261,4.531c0.319,0.246,0.7,0.407,1.104,0.464
		c0.044-0.012,0.089-0.019,0.135-0.019c0.07,0,0.137,0.015,0.2,0.043c0.092,0,0.177-0.005,0.26-0.015
		c0.008-0.001,0.04-0.003,0.048-0.003h0.077c1.235,0,2.385-0.67,3.002-1.749c0.089-0.156,0.255-0.252,0.434-0.252h2
		c0.242,0,0.449,0.173,0.492,0.411l0.926,5.089h1.083v-5.5c0-0.276,0.224-0.5,0.5-0.5s0.5,0.224,0.5,0.5v0.826
		c0.561-0.238,1.034-0.643,1.355-1.164c0.092-0.149,0.251-0.238,0.426-0.238c0.093,0,0.183,0.026,0.262,0.074
		c0.234,0.145,0.308,0.453,0.164,0.688c-0.505,0.82-1.284,1.418-2.207,1.699v4.115c0,0.276-0.224,0.5-0.5,0.5H14.001z M2.221,11.25
		c0.23,0,0.429-0.156,0.485-0.379l0.31-1.242C3.048,9.5,3.129,9.391,3.244,9.322l1.291-0.775c0.542-0.325,0.823-0.96,0.699-1.58
		L5.091,6.25H4.512c-1.679,0.149-2.959,1.539-2.98,3.237c0,0.575,0.004,1.167,0.013,1.763H2.221z"/>
	<path d="M16.752,8.25c-0.415,0-0.751-0.336-0.751-0.75c0-0.011,0.001-0.024,0.003-0.037c0.012-0.383,0.338-0.705,0.733-0.713
		c0.005,0,0.022,0,0.027,0c0.407,0.007,0.737,0.341,0.737,0.75c0,0.412-0.335,0.749-0.747,0.75C16.754,8.25,16.753,8.25,16.752,8.25
		L16.752,8.25z"/>
	<path d="M19.251,8.25c-0.414,0-0.75-0.336-0.75-0.75c0.001-0.203,0.08-0.391,0.222-0.533c0.141-0.14,0.329-0.217,0.528-0.217
		c0.006,0,0.011,0,0.017,0.001c0.397,0.01,0.713,0.319,0.731,0.714c0.002,0.012,0.003,0.025,0.003,0.036
		C20.002,7.914,19.666,8.25,19.251,8.25L19.251,8.25z"/>
</g>
</svg>
