<?xml version="1.0" encoding="utf-8"?>
<!-- Generator: Adobe Illustrator 22.1.0, SVG Export Plug-In . SVG Version: 6.00 Build 0)  -->
<svg version="1.1" id="Light" xmlns="http://www.w3.org/2000/svg" xmlns:xlink="http://www.w3.org/1999/xlink" x="0px" y="0px"
	 viewBox="0 0 24 24" style="enable-background:new 0 0 24 24;" xml:space="preserve">
<g>
	<title>livestock-ram-2</title>
	<circle cx="8.005" cy="13.5" r="0.75"/>
	<circle cx="16.005" cy="13.5" r="0.75"/>
	<path d="M12.005,24c-3.362,0-6.23-3.242-7.176-8.089c-1.102-0.138-2.168-0.524-3.095-1.12c-0.136-0.09-0.253-0.198-0.351-0.321
		c-0.514-0.647-0.406-1.592,0.241-2.107l3.122-2.498C5.088,8.143,5.695,7.203,6,6.821C5.972,5.903,5.732,5.297,5.288,5.019
		c-0.221-0.138-0.507-0.208-0.85-0.208c-0.85,0-1.86,0.43-2.386,0.686C1.916,5.563,1.764,5.598,1.612,5.598
		c-0.066,0-0.132-0.007-0.196-0.019C1.156,5.526,0.93,5.375,0.781,5.153C0.633,4.93,0.58,4.664,0.633,4.402
		c0.342-2.508,2.528-4.411,5.083-4.411c0.106,0,0.213,0.003,0.32,0.01c0.001,0,0.001,0,0.002,0c1.371,0,2.503,0.465,3.351,1.381
		c0.977,1.055,1.37,2.51,1.526,3.618h2.178c0.156-1.108,0.549-2.563,1.527-3.618C15.469,0.465,16.608,0,18.005,0
		c0.09-0.006,0.194-0.009,0.298-0.009c2.55,0,4.734,1.909,5.08,4.441c0.049,0.241-0.006,0.503-0.155,0.724
		c-0.149,0.22-0.375,0.37-0.635,0.422c-0.064,0.013-0.129,0.019-0.195,0.019c-0.152,0-0.305-0.035-0.44-0.102
		c-0.526-0.256-1.535-0.685-2.385-0.685c-0.343,0-0.629,0.07-0.85,0.208c-0.445,0.278-0.684,0.884-0.712,1.802
		c0.304,0.382,0.912,1.322,1.253,3.044l3.127,2.499c0.122,0.098,0.229,0.214,0.315,0.345c0.221,0.334,0.298,0.735,0.218,1.127
		c-0.08,0.393-0.309,0.731-0.643,0.951c-0.929,0.599-1.997,0.984-3.099,1.123C18.235,20.758,15.367,24,12.005,24z M5.753,15.419
		c0.736,4.236,3.027,7.223,5.752,7.548v-2.26l-1.354-1.354c-0.094-0.094-0.146-0.22-0.146-0.354s0.052-0.259,0.146-0.354
		s0.22-0.146,0.354-0.146s0.259,0.052,0.354,0.146l1.146,1.146l1.146-1.146c0.094-0.094,0.22-0.146,0.354-0.146
		s0.259,0.052,0.354,0.146s0.146,0.22,0.146,0.354s-0.052,0.259-0.146,0.354l-1.354,1.354v2.26c2.711-0.324,4.997-3.289,5.743-7.495
		c-0.002-0.063,0.009-0.126,0.032-0.188c0.149-0.904,0.225-1.841,0.225-2.785c0-2.847-0.783-4.34-1.159-4.893
		c-0.589,0.233-1.2,0.365-1.819,0.392c-0.801-0.034-1.546-0.218-2.237-0.548c-0.161-0.077-0.27-0.235-0.283-0.413
		C13.002,6.989,12.974,6.59,13.001,6h-1.992c0.027,0.589-0.002,0.989-0.005,1.039c-0.014,0.177-0.122,0.336-0.283,0.413
		c-0.691,0.33-1.428,0.514-2.193,0.548c-0.65-0.027-1.27-0.159-1.861-0.391C6.29,8.166,5.505,9.669,5.505,12.5
		c0,0.95,0.077,1.894,0.228,2.805C5.746,15.349,5.751,15.388,5.753,15.419z M2.248,13.145c-0.217,0.172-0.253,0.488-0.082,0.703
		c0.033,0.041,0.071,0.077,0.115,0.106c0.713,0.459,1.531,0.776,2.379,0.922c-0.103-0.781-0.155-1.579-0.155-2.377
		c0-0.408,0.016-0.809,0.046-1.197L2.248,13.145z M19.458,11.301c0.031,0.388,0.046,0.79,0.046,1.198
		c0,0.799-0.052,1.596-0.155,2.376c0.848-0.147,1.667-0.464,2.385-0.926c0.107-0.071,0.183-0.183,0.209-0.314
		c0.027-0.131,0.001-0.265-0.072-0.375c-0.029-0.044-0.065-0.083-0.106-0.115L19.458,11.301z M13.993,6.669
		C14.482,6.865,14.997,6.977,15.527,7c0.495-0.024,1-0.135,1.486-0.33c0.06-1.207,0.456-2.047,1.178-2.499
		c0.383-0.24,0.849-0.361,1.383-0.361c0.798,0,1.747,0.265,2.821,0.787c-0.282-2.062-2.046-3.606-4.105-3.606
		c-0.084,0-0.169,0.003-0.255,0.008C16.903,1,16.006,1.357,15.354,2.061C14.059,3.459,13.982,5.888,13.993,6.669z M6.997,6.67
		C7.484,6.866,7.998,6.977,8.527,7c0.497-0.024,1.003-0.135,1.49-0.332c0.01-0.782-0.069-3.214-1.362-4.609
		C8.003,1.357,7.111,1,6.005,1C5.903,0.994,5.817,0.992,5.731,0.992c-2.066,0-3.834,1.537-4.113,3.576L1.614,4.601
		C2.688,4.075,3.637,3.81,4.435,3.81c0.534,0,1,0.122,1.383,0.361C6.541,4.623,6.937,5.464,6.997,6.67z"/>
</g>
</svg>
