<?xml version="1.0" encoding="utf-8"?>
<!-- Generator: Adobe Illustrator 22.1.0, SVG Export Plug-In . SVG Version: 6.00 Build 0)  -->
<svg version="1.1" id="Light" xmlns="http://www.w3.org/2000/svg" xmlns:xlink="http://www.w3.org/1999/xlink" x="0px" y="0px"
	 viewBox="0 0 24 24" style="enable-background:new 0 0 24 24;" xml:space="preserve">
<g>
	<title>livestock-lamb-1</title>
	<path d="M12,16c-1.537,0-2.938-0.937-3.773-2.515c-1.365-0.043-2.668-0.638-3.595-1.647c-0.177-0.193-0.177-0.483-0.001-0.676
		l4.12-4.5C8.779,6.631,8.809,6.608,8.837,6.59C9.685,5.564,10.807,5,12,5c1.194,0,2.316,0.565,3.164,1.591
		c0.027,0.018,0.056,0.041,0.084,0.071l4.12,4.5c0.177,0.193,0.177,0.484,0,0.676c-0.926,1.008-2.229,1.603-3.595,1.647
		C14.938,15.063,13.537,16,12,16z M12.5,14.948c1.703-0.315,3-2.206,3-4.448C15.5,8.018,13.93,6,12,6s-3.5,2.019-3.5,4.5
		c0,2.243,1.297,4.133,3,4.448v-1.241l-0.854-0.854c-0.094-0.094-0.146-0.22-0.146-0.354s0.052-0.259,0.146-0.354S10.866,12,11,12
		s0.259,0.052,0.354,0.146L12,12.793l0.646-0.646C12.741,12.052,12.866,12,13,12s0.259,0.052,0.354,0.146S13.5,12.366,13.5,12.5
		s-0.052,0.259-0.146,0.354L12.5,13.707V14.948z M5.696,11.48c0.592,0.515,1.32,0.848,2.098,0.961C7.598,11.817,7.5,11.165,7.5,10.5
		c0-0.367,0.03-0.731,0.089-1.088L5.696,11.48z M16.411,9.412C16.47,9.769,16.5,10.133,16.5,10.5c0,0.666-0.099,1.317-0.293,1.941
		c0.778-0.113,1.506-0.446,2.098-0.961L16.411,9.412z"/>
	<circle cx="14" cy="9.5" r="0.75"/>
	<circle cx="10" cy="9.5" r="0.75"/>
	<path d="M17,24c-0.276,0-0.5-0.224-0.5-0.5v-4.587c-0.407-0.051-0.802-0.173-1.164-0.36c-0.425,1.354-1.618,2.313-3.066,2.425
		c-0.093,0.007-0.185,0.011-0.276,0.011c-0.83,0-1.637-0.299-2.271-0.841c-0.502-0.43-0.864-0.976-1.06-1.594
		c-0.363,0.188-0.757,0.311-1.164,0.364V23.5C7.5,23.775,7.276,24,7,24s-0.5-0.224-0.5-0.5v-4.6c-0.635-0.103-1.225-0.376-1.719-0.8
		c-0.71-0.608-1.141-1.456-1.213-2.388c-0.051-0.659,0.079-1.301,0.378-1.876c-1.354-0.425-2.312-1.618-2.425-3.065
		c-0.072-0.932,0.223-1.836,0.83-2.547c0.43-0.502,0.976-0.864,1.594-1.06C3.288,5.906,3.454,4.384,4.399,3.281
		c0.608-0.71,1.456-1.141,2.388-1.213c0.092-0.007,0.183-0.01,0.274-0.01c0.561,0,1.109,0.134,1.602,0.389
		c0.425-1.354,1.619-2.312,3.066-2.425c0.093-0.007,0.185-0.011,0.277-0.011c0.83,0,1.636,0.299,2.269,0.841
		c0.502,0.43,0.864,0.976,1.06,1.594c0.496-0.258,1.045-0.394,1.607-0.394c0.831,0,1.639,0.301,2.277,0.847
		c0.71,0.608,1.141,1.456,1.213,2.389c0.051,0.659-0.079,1.301-0.378,1.876c1.435,0.456,2.446,1.809,2.446,3.336
		c0,1.527-1.01,2.88-2.446,3.336c0.657,1.258,0.491,2.78-0.454,3.883c-0.542,0.633-1.282,1.046-2.101,1.177V23.5
		C17.5,23.775,17.275,24,17,24z M9.009,17.221c0.066,0,0.13,0.013,0.191,0.038c0.175,0.072,0.293,0.235,0.308,0.423
		c0.052,0.666,0.359,1.272,0.867,1.706c0.453,0.387,1.028,0.601,1.62,0.601c0.066,0,0.132-0.003,0.199-0.008
		c1.236-0.096,2.203-1.063,2.299-2.299c0.015-0.189,0.133-0.351,0.307-0.423c0.062-0.025,0.126-0.038,0.191-0.038
		c0.119,0,0.235,0.042,0.325,0.12c0.459,0.394,1.02,0.602,1.622,0.602c0.065,0,0.131-0.002,0.197-0.008
		c0.666-0.052,1.271-0.359,1.706-0.866c0.807-0.942,0.807-2.31,0-3.252c-0.124-0.144-0.155-0.343-0.082-0.518
		c0.073-0.175,0.236-0.292,0.425-0.306c1.298-0.096,2.315-1.191,2.315-2.493c0-1.301-1.018-2.396-2.316-2.492
		c-0.189-0.014-0.352-0.131-0.425-0.307c-0.073-0.175-0.042-0.373,0.082-0.517c0.435-0.507,0.646-1.153,0.594-1.819
		c-0.052-0.666-0.359-1.272-0.866-1.706c-0.456-0.391-1.034-0.606-1.626-0.606c-0.593,0-1.17,0.215-1.626,0.606
		c-0.09,0.078-0.206,0.12-0.325,0.12c-0.066,0-0.131-0.013-0.192-0.038c-0.175-0.072-0.292-0.234-0.307-0.423
		c-0.052-0.666-0.36-1.272-0.867-1.706c-0.453-0.388-1.028-0.601-1.62-0.601c-0.066,0-0.132,0.003-0.199,0.008
		C10.57,1.114,9.603,2.081,9.507,3.317C9.493,3.506,9.375,3.668,9.2,3.741C9.14,3.766,9.075,3.779,9.009,3.779
		c-0.119,0-0.234-0.043-0.325-0.12C8.231,3.271,7.655,3.057,7.062,3.057c-0.066,0-0.131,0.003-0.198,0.008
		C6.199,3.116,5.593,3.424,5.159,3.931c-0.807,0.942-0.807,2.31,0,3.252C5.282,7.327,5.313,7.525,5.241,7.7
		C5.169,7.875,5.006,7.992,4.818,8.007C4.152,8.059,3.546,8.367,3.112,8.874c-0.434,0.507-0.645,1.153-0.593,1.819
		c0.096,1.236,1.063,2.203,2.299,2.299c0.189,0.015,0.351,0.132,0.423,0.307s0.041,0.373-0.082,0.516
		c-0.435,0.508-0.646,1.154-0.594,1.819s0.359,1.271,0.866,1.706c0.439,0.376,0.997,0.591,1.571,0.603l0.055,0
		c0.594,0,1.172-0.214,1.626-0.604C8.774,17.263,8.89,17.221,9.009,17.221z"/>
</g>
</svg>
