<?xml version="1.0" encoding="utf-8"?>
<!-- Generator: Adobe Illustrator 22.1.0, SVG Export Plug-In . SVG Version: 6.00 Build 0)  -->
<svg version="1.1" id="Light" xmlns="http://www.w3.org/2000/svg" xmlns:xlink="http://www.w3.org/1999/xlink" x="0px" y="0px"
	 viewBox="0 0 24 24" style="enable-background:new 0 0 24 24;" xml:space="preserve">
<g>
	<title>global-warming-globe-fire-1</title>
	<path d="M8.992,23.634c-1.811,0-3.521-0.594-4.945-1.719c-0.019-0.012-0.036-0.027-0.052-0.042
		c-1.905-1.525-3.002-3.802-3.002-6.24c0-4.411,3.589-8,8-8c4.411,0,8,3.589,8,8c0,1.289-0.317,2.573-0.917,3.713
		c-0.001,0.002-0.002,0.004-0.003,0.006C14.679,21.994,11.967,23.634,8.992,23.634z M4.872,21.288
		c1.204,0.881,2.625,1.346,4.12,1.346c2.315,0,4.429-1.113,5.742-3h-0.395c-0.736,0-1.358-0.527-1.479-1.252l-0.458-2.748h-0.629
		c-0.123,0-0.245-0.015-0.364-0.045c-0.388-0.097-0.716-0.339-0.922-0.683c-0.206-0.343-0.267-0.747-0.17-1.135l0.5-2
		c0.167-0.669,0.765-1.136,1.455-1.137h1.61c-1.305-1.277-3.058-2-4.891-2c-3.114,0-5.827,2.04-6.708,5h2.927
		c0.69,0,1.288,0.468,1.455,1.137l0.5,2c0.03,0.119,0.045,0.241,0.045,0.363c0,0.4-0.156,0.777-0.439,1.061
		c-0.283,0.283-0.66,0.439-1.061,0.439H5.402L4.872,21.288z M2.065,14.634c-0.049,0.335-0.073,0.671-0.073,1
		c0,1.834,0.728,3.597,2.01,4.903l0.499-2.501c0.046-0.233,0.253-0.402,0.49-0.402h0.719c0.133,0,0.259-0.052,0.353-0.146
		c0.094-0.094,0.146-0.22,0.146-0.354c0-0.04-0.005-0.081-0.015-0.121l-0.5-2c-0.056-0.223-0.255-0.379-0.485-0.379H2.065z
		 M12.273,11.634c-0.23,0-0.429,0.156-0.485,0.379l-0.5,2c-0.032,0.129-0.012,0.264,0.057,0.378
		c0.069,0.115,0.178,0.195,0.307,0.227c0.04,0.01,0.081,0.015,0.121,0.015h1.052c0.246,0,0.453,0.176,0.493,0.418l0.528,3.165
		c0.04,0.242,0.248,0.417,0.493,0.417h0.975c0.45-0.943,0.678-1.951,0.678-3c0-1.44-0.435-2.821-1.26-4H12.273z"/>
	<path d="M18.718,15.943c-0.191,0-0.368-0.111-0.451-0.284c-0.058-0.12-0.065-0.256-0.021-0.382s0.135-0.227,0.256-0.285
		c3.962-1.901,3.718-5.413,3.22-7.337c-0.41,0.426-0.876,0.778-1.392,1.05c-0.071,0.038-0.152,0.058-0.233,0.058
		c-0.094,0-0.186-0.026-0.266-0.076c-0.151-0.094-0.24-0.263-0.234-0.441c0.093-2.67-1.114-5.238-3.229-6.87
		c-0.001,0.947-0.454,1.859-1.227,2.428c-0.844,0.616-1.566,1.367-2.148,2.232C12.9,6.173,12.746,6.256,12.58,6.256
		c-0.025,0-0.05-0.002-0.075-0.006c-0.188-0.028-0.347-0.164-0.404-0.347c-0.229-0.745-0.805-1.343-1.54-1.601
		c0.008,0.585-0.113,1.154-0.356,1.66c-0.036,0.1-0.077,0.216-0.116,0.331c-0.069,0.203-0.259,0.34-0.473,0.34
		c-0.055,0-0.109-0.009-0.161-0.027C9.194,6.518,9.053,6.234,9.141,5.973C9.185,5.844,9.231,5.714,9.281,5.58
		c0.195-0.407,0.285-0.813,0.276-1.225c-0.022-0.242,0.06-0.497,0.233-0.7c0.172-0.203,0.413-0.328,0.677-0.351
		c0.03-0.003,0.059-0.004,0.088-0.004c0.116,0,0.231,0.02,0.341,0.06c0.731,0.257,1.363,0.765,1.779,1.422
		c0.543-0.674,1.173-1.274,1.875-1.786c0.512-0.377,0.813-0.982,0.804-1.619c-0.004-0.267,0.097-0.519,0.283-0.711
		c0.186-0.191,0.436-0.299,0.703-0.303c0,0,0,0,0,0c0.248,0,0.475,0.083,0.654,0.232c2.09,1.612,3.411,4.111,3.588,6.752
		c0.145-0.117,0.282-0.243,0.411-0.378c0.183-0.199,0.449-0.315,0.727-0.315c0.252,0,0.493,0.094,0.679,0.264
		c0.142,0.131,0.243,0.299,0.291,0.486c0.463,1.788,1.023,6.195-3.756,8.489C18.867,15.926,18.794,15.943,18.718,15.943z"/>
</g>
</svg>
