<?xml version="1.0" encoding="utf-8"?>
<!-- Generator: Adobe Illustrator 22.1.0, SVG Export Plug-In . SVG Version: 6.00 Build 0)  -->
<svg version="1.1" id="Light" xmlns="http://www.w3.org/2000/svg" xmlns:xlink="http://www.w3.org/1999/xlink" x="0px" y="0px"
	 viewBox="0 0 24 24" style="enable-background:new 0 0 24 24;" xml:space="preserve">
<g>
	<title>global-warming-high-temperature</title>
	<path d="M5.499,24.002c-1.607,0-3.103-0.862-3.904-2.249c-0.601-1.041-0.76-2.254-0.449-3.415c0.284-1.062,0.938-1.971,1.847-2.577
		V2.497c0-1.379,1.121-2.5,2.5-2.5s2.5,1.121,2.5,2.5v13.264c0.572,0.382,1.053,0.896,1.397,1.491
		c0.601,1.041,0.761,2.254,0.449,3.415c-0.311,1.161-1.056,2.131-2.097,2.732C7.06,23.794,6.285,24.002,5.499,24.002L5.499,24.002z
		 M5.493,0.997c-0.827,0-1.5,0.673-1.5,1.5v13.541c0,0.178-0.096,0.344-0.25,0.433c-0.808,0.467-1.387,1.221-1.629,2.125
		c-0.242,0.904-0.119,1.847,0.348,2.656c0.623,1.079,1.787,1.749,3.037,1.749c0.61,0,1.213-0.162,1.744-0.468
		c0.81-0.467,1.389-1.222,1.631-2.125c0.242-0.903,0.118-1.846-0.35-2.656c-0.307-0.531-0.75-0.974-1.281-1.281
		c-0.154-0.089-0.25-0.255-0.25-0.433V2.497C6.993,1.67,6.32,0.997,5.493,0.997z"/>
	<path d="M5.493,20.997c-0.827,0-1.5-0.673-1.5-1.5c0-0.64,0.41-1.205,1-1.414V7.497c0-0.276,0.224-0.5,0.5-0.5s0.5,0.224,0.5,0.5
		v10.586c0.59,0.209,1,0.774,1,1.414C6.993,20.325,6.32,20.997,5.493,20.997z M5.493,18.997c-0.276,0-0.5,0.224-0.5,0.5
		s0.224,0.5,0.5,0.5s0.5-0.224,0.5-0.5S5.768,18.997,5.493,18.997z"/>
	<path d="M14.991,17.991c-1.798,0-3.561-0.614-4.966-1.729c-0.183-0.146-0.342-0.281-0.486-0.416
		c-0.137-0.128-0.27-0.261-0.395-0.395c-0.091-0.097-0.139-0.225-0.134-0.358c0.005-0.133,0.061-0.257,0.159-0.348
		c0.093-0.087,0.214-0.134,0.341-0.134c0.138,0,0.272,0.058,0.366,0.159c0.041,0.044,0.083,0.088,0.126,0.132l0.5-2.502
		c0.047-0.233,0.253-0.402,0.49-0.402h0.719c0.276,0,0.5-0.224,0.5-0.5c0-0.041-0.005-0.082-0.015-0.122l-0.5-2
		c-0.056-0.223-0.255-0.378-0.485-0.378H9.504c-0.276,0-0.5-0.224-0.5-0.5s0.224-0.5,0.5-0.5h1.708c0.689,0,1.288,0.467,1.455,1.136
		l0.5,2c0.03,0.12,0.045,0.243,0.045,0.364c0,0.827-0.673,1.5-1.5,1.5h-0.309l-0.531,2.654c1.2,0.877,2.621,1.34,4.121,1.34
		c1.938,0,3.804-0.81,5.121-2.222c0.226-0.242,0.434-0.5,0.623-0.771H20.34c-0.736,0-1.358-0.528-1.479-1.254l-0.458-2.746h-0.629
		c-0.123,0-0.245-0.015-0.364-0.045c-0.389-0.097-0.717-0.34-0.922-0.684c-0.206-0.344-0.266-0.747-0.168-1.136l0.5-2
		c0.167-0.669,0.765-1.136,1.455-1.136h1.623c-0.042-0.042-0.085-0.082-0.128-0.122c-1.298-1.211-2.993-1.877-4.772-1.877
		c-1.938,0-3.805,0.81-5.122,2.223C9.781,5.322,9.648,5.38,9.51,5.38c-0.127,0-0.248-0.048-0.341-0.134
		C8.967,5.057,8.956,4.74,9.144,4.539c1.506-1.615,3.639-2.541,5.854-2.541c2.033,0,3.97,0.762,5.453,2.146
		c3.226,3.008,3.403,8.081,0.395,11.307c-1.505,1.615-3.639,2.541-5.854,2.541H14.991z M18.274,5.997
		c-0.23,0-0.429,0.156-0.485,0.379l-0.5,2c-0.032,0.13-0.012,0.264,0.056,0.379c0.069,0.115,0.178,0.196,0.307,0.228
		c0.04,0.01,0.081,0.015,0.122,0.015h1.052c0.246,0,0.453,0.176,0.493,0.418l0.528,3.164c0.04,0.242,0.248,0.418,0.493,0.418h0.976
		c1.082-2.277,0.864-4.934-0.575-7H18.274z"/>
</g>
</svg>
