<?xml version="1.0" encoding="utf-8"?>
<!-- Generator: Adobe Illustrator 22.1.0, SVG Export Plug-In . SVG Version: 6.00 Build 0)  -->
<svg version="1.1" id="Light" xmlns="http://www.w3.org/2000/svg" xmlns:xlink="http://www.w3.org/1999/xlink" x="0px" y="0px"
	 viewBox="0 0 24 24" style="enable-background:new 0 0 24 24;" xml:space="preserve">
<g>
	<title>global-warming-globe-fire</title>
	<path d="M18.718,15.943c-0.191,0-0.368-0.111-0.451-0.284c-0.058-0.12-0.065-0.256-0.021-0.382s0.135-0.227,0.256-0.285
		c3.962-1.901,3.718-5.413,3.22-7.337c-0.409,0.426-0.876,0.778-1.392,1.05c-0.071,0.038-0.152,0.058-0.233,0.058
		c-0.094,0-0.186-0.026-0.266-0.076c-0.151-0.094-0.24-0.263-0.234-0.441c0.093-2.67-1.114-5.238-3.229-6.87
		c-0.001,0.947-0.455,1.859-1.227,2.428c-0.844,0.616-1.567,1.367-2.148,2.232C12.9,6.174,12.746,6.256,12.58,6.256
		c-0.025,0-0.05-0.002-0.076-0.006c-0.188-0.028-0.347-0.164-0.404-0.347c-0.229-0.745-0.805-1.343-1.54-1.601
		c0.008,0.585-0.113,1.154-0.356,1.66c-0.036,0.1-0.077,0.216-0.116,0.331c-0.069,0.203-0.259,0.34-0.473,0.34
		c-0.055,0-0.109-0.009-0.161-0.027C9.194,6.518,9.053,6.234,9.142,5.973c0.044-0.129,0.09-0.259,0.139-0.392
		c0.195-0.407,0.285-0.813,0.276-1.225c-0.022-0.242,0.06-0.497,0.233-0.7c0.172-0.203,0.413-0.327,0.677-0.351
		c0.03-0.003,0.059-0.004,0.088-0.004c0.116,0,0.231,0.02,0.341,0.06c0.731,0.257,1.363,0.765,1.779,1.422
		c0.543-0.674,1.173-1.274,1.875-1.786c0.512-0.377,0.813-0.982,0.804-1.619c-0.007-0.551,0.435-1.006,0.986-1.014
		c0.251,0.003,0.475,0.083,0.654,0.232c2.09,1.612,3.411,4.111,3.588,6.753c0.145-0.117,0.282-0.243,0.411-0.378
		c0.183-0.199,0.449-0.315,0.728-0.315c0.252,0,0.493,0.094,0.678,0.264c0.142,0.131,0.243,0.299,0.291,0.486
		c0.463,1.788,1.024,6.195-3.756,8.489C18.867,15.926,18.794,15.943,18.718,15.943z"/>
	<path d="M8.967,23.634c-0.083-0.001-0.166-0.006-0.248-0.01H8.719c-0.012,0.002-0.029,0.004-0.049,0.004
		c-0.019,0-0.05-0.005-0.074-0.01c-4.302-0.265-7.64-3.841-7.603-8.152c0-1.194,0.272-2.348,0.806-3.428
		c0.018-0.092,0.061-0.177,0.125-0.245c1.349-2.502,3.926-4.092,6.735-4.153c0.116-0.005,0.248-0.007,0.379-0.007
		c2.956,0,5.652,1.63,7.038,4.254c0.006,0.008,0.019,0.03,0.031,0.061c0.58,1.123,0.878,2.333,0.885,3.597v0.06
		c0,0.922-0.156,1.829-0.467,2.697c-0.002,0.005-0.01,0.028-0.012,0.033c-1.099,3.053-3.911,5.133-7.16,5.288
		c-0.011,0.001-0.022,0.002-0.033,0.002c-0.004,0-0.009,0-0.013,0c-0.112,0.005-0.224,0.009-0.337,0.009
		C8.97,23.634,8.969,23.634,8.967,23.634z M8.979,22.634c0.031,0,0.063-0.001,0.095-0.002c1.043-1.317,1.818-2.66,2.308-3.998H6.613
		c0.489,1.338,1.261,2.68,2.301,3.998C8.936,22.633,8.957,22.634,8.979,22.634z M12.419,18.634
		c-0.425,1.297-1.089,2.586-1.978,3.843c2.118-0.454,3.923-1.875,4.865-3.843H12.419z M2.71,18.634
		c0.949,1.94,2.74,3.354,4.828,3.826c-0.881-1.251-1.539-2.535-1.961-3.826H2.71z M15.693,17.634c0.199-0.658,0.3-1.34,0.299-2.028
		v-0.037c-0.006-1.026-0.229-2.013-0.665-2.935h-2.714c0.454,1.609,0.482,3.288,0.085,5H15.693z M11.696,17.634
		c0.448-1.721,0.414-3.401-0.102-5H6.403c-0.515,1.599-0.549,3.279-0.103,5H11.696z M5.298,17.634c-0.396-1.712-0.368-3.391,0.085-5
		H2.621c-0.417,0.897-0.628,1.851-0.629,2.837c-0.006,0.736,0.102,1.462,0.32,2.163H5.298z M14.751,11.634
		c-0.994-1.438-2.467-2.437-4.156-2.822c0.719,0.89,1.282,1.836,1.678,2.822H14.751z M11.202,11.634
		c-0.486-1.055-1.191-2.062-2.099-2.999C9.081,8.634,9.021,8.634,9.021,8.634c-0.045,0-0.09,0.001-0.135,0.002
		c-0.905,0.936-1.608,1.943-2.093,2.998H11.202z M5.723,11.634c0.398-0.994,0.965-1.947,1.691-2.842
		c-1.7,0.367-3.224,1.39-4.223,2.842H5.723z"/>
</g>
</svg>
