<?xml version="1.0" encoding="utf-8"?>
<!-- Generator: Adobe Illustrator 22.1.0, SVG Export Plug-In . SVG Version: 6.00 Build 0)  -->
<svg version="1.1" id="Light" xmlns="http://www.w3.org/2000/svg" xmlns:xlink="http://www.w3.org/1999/xlink" x="0px" y="0px"
	 viewBox="0 0 24 24" style="enable-background:new 0 0 24 24;" xml:space="preserve">
<g>
	<title>global-warming-dead-plant</title>
	<path d="M0.5,23.5C0.224,23.5,0,23.276,0,23s0.224-0.5,0.5-0.5H11V9.057c-0.565,0.089-1.567,0.328-1.937,0.932
		c0.295,0.656,0.897,2.35-0.206,3.362c-0.412,0.479-0.679,1.061-0.774,1.686c-0.018,0.09-0.039,0.157-0.068,0.223
		c-0.158,0.364-0.519,0.6-0.917,0.6c-0.137,0-0.271-0.028-0.398-0.083c-1.321-0.559-2.032-1.976-1.692-3.372
		c0.155-1.102,0.594-1.915,1.303-2.416c0.616-0.435,1.292-0.527,1.75-0.527c0.051,0,0.1,0.001,0.145,0.003
		C8.819,8.467,10.221,8.147,11,8.045V4c0-1.93,1.57-3.5,3.5-3.5S18,2.07,18,4v0.531c1.571,0.165,2.5,0.891,2.5,1.969
		c0,0.883-0.301,1.289-0.566,1.648C19.701,8.464,19.5,8.736,19.5,9.5c-0.011,0.537,0.111,1.065,0.354,1.533
		c0.075,0.139,0.116,0.302,0.116,0.467c0,0.267-0.104,0.518-0.293,0.707c-0.189,0.189-0.44,0.293-0.707,0.293h-2.94
		c-0.165,0-0.329-0.041-0.474-0.119c-0.485-0.262-0.667-0.869-0.406-1.355c0.24-0.462,0.362-0.987,0.35-1.516
		c0-0.775-0.201-1.047-0.434-1.362C14.801,7.789,14.5,7.383,14.5,6.5c0-1.078,0.929-1.805,2.5-1.969V4c0-1.379-1.122-2.5-2.5-2.5
		S12,2.621,12,4v9.545c0.779,0.102,2.181,0.423,2.793,1.42c0.045-0.002,0.093-0.003,0.144-0.003c0.458,0,1.134,0.091,1.75,0.527
		c0.709,0.501,1.148,1.314,1.303,2.417c0.34,1.396-0.372,2.813-1.697,3.374c-0.124,0.054-0.257,0.081-0.393,0.081
		c-0.399,0-0.759-0.236-0.918-0.601c-0.028-0.066-0.048-0.129-0.062-0.193c-0.099-0.648-0.367-1.236-0.779-1.715
		c-1.103-1.012-0.501-2.707-0.206-3.362c-0.37-0.605-1.372-0.844-1.936-0.932V22.5h11.5c0.276,0,0.5,0.224,0.5,0.5
		s-0.224,0.5-0.5,0.5H0.5z M14.82,15.966c-0.188,0.449-0.597,1.621,0.011,2.159c0.017,0.015,0.031,0.03,0.044,0.045
		c0.543,0.62,0.897,1.377,1.025,2.19c0.881-0.374,1.349-1.314,1.114-2.237c-0.005-0.02-0.008-0.035-0.01-0.051
		c-0.114-0.833-0.413-1.425-0.89-1.764c-0.401-0.285-0.864-0.345-1.182-0.345C14.893,15.963,14.855,15.964,14.82,15.966z
		 M8.065,10.464c-0.318,0-0.78,0.06-1.181,0.345c-0.477,0.339-0.776,0.931-0.889,1.759c-0.002,0.018-0.006,0.036-0.01,0.055
		c-0.234,0.924,0.232,1.864,1.11,2.235c0.125-0.798,0.48-1.56,1.029-2.187c0.013-0.015,0.028-0.031,0.044-0.045
		c0.609-0.539,0.2-1.711,0.011-2.16C8.144,10.464,8.106,10.464,8.065,10.464z M17.5,5.5c-0.043,0.001-2,0.043-2,1
		c0,0.553,0.155,0.763,0.37,1.054c0.281,0.38,0.63,0.852,0.63,1.946c0.015,0.686-0.146,1.377-0.466,1.993L18.97,11.5
		c-0.323-0.622-0.484-1.316-0.47-2.01c0-1.083,0.349-1.556,0.63-1.936C19.345,7.263,19.5,7.053,19.5,6.5
		C19.5,5.541,17.544,5.5,17.5,5.5z"/>
</g>
</svg>
