<?xml version="1.0" encoding="utf-8"?>
<!-- Generator: Adobe Illustrator 22.1.0, SVG Export Plug-In . SVG Version: 6.00 Build 0)  -->
<svg version="1.1" id="Light" xmlns="http://www.w3.org/2000/svg" xmlns:xlink="http://www.w3.org/1999/xlink" x="0px" y="0px"
	 viewBox="0 0 24 24" style="enable-background:new 0 0 24 24;" xml:space="preserve">
<g>
	<title>hair-dress-round-brush</title>
	<path d="M2.141,23.854c-0.535,0-1.037-0.208-1.414-0.585c-0.78-0.78-0.78-2.048,0-2.828L7.8,13.368l-0.353-0.353
		c-0.585-0.585-0.585-1.537,0-2.121l0.354-0.354l-1.06-1.06c-0.195-0.195-0.195-0.512,0-0.707c0.094-0.094,0.22-0.146,0.354-0.146
		s0.259,0.052,0.354,0.146l1.06,1.06l1.414-1.414l-1.06-1.06c-0.195-0.195-0.195-0.512,0-0.707c0.094-0.094,0.22-0.146,0.354-0.146
		s0.259,0.052,0.354,0.146l1.06,1.06l1.415-1.414l-1.06-1.06c-0.195-0.195-0.195-0.512,0-0.707c0.094-0.094,0.22-0.146,0.354-0.146
		s0.259,0.052,0.354,0.146l1.06,1.06l1.414-1.414l-1.06-1.06c-0.195-0.195-0.195-0.512,0-0.707c0.094-0.094,0.22-0.146,0.354-0.146
		s0.259,0.052,0.354,0.146l1.06,1.06l1.414-1.414l-1.06-1.06c-0.195-0.195-0.195-0.512,0-0.707c0.094-0.094,0.22-0.146,0.354-0.146
		s0.259,0.052,0.354,0.146l1.06,1.06l0.354-0.354c0.283-0.283,0.659-0.439,1.061-0.439s0.778,0.156,1.061,0.439l3.536,3.536
		c0.283,0.283,0.439,0.66,0.439,1.061s-0.156,0.778-0.439,1.061l-0.354,0.354l1.06,1.061c0.195,0.195,0.195,0.512,0,0.707
		c-0.095,0.094-0.22,0.146-0.354,0.146c-0.134,0-0.259-0.052-0.354-0.146l-1.061-1.061l-1.414,1.414l1.061,1.061
		c0.195,0.195,0.195,0.512,0,0.707c-0.094,0.094-0.22,0.146-0.354,0.146s-0.259-0.052-0.354-0.146l-1.061-1.061l-1.414,1.414
		l1.061,1.061c0.094,0.094,0.146,0.22,0.146,0.354s-0.052,0.259-0.146,0.354s-0.22,0.146-0.354,0.146s-0.259-0.052-0.354-0.146
		l-1.061-1.061l-1.414,1.414l1.061,1.061c0.195,0.195,0.195,0.512,0,0.707c-0.094,0.094-0.22,0.146-0.354,0.146
		s-0.259-0.052-0.354-0.146l-1.061-1.061l-1.415,1.415l1.062,1.061c0.094,0.094,0.146,0.219,0.146,0.353
		c0,0.134-0.052,0.26-0.146,0.354s-0.22,0.146-0.354,0.146s-0.259-0.052-0.354-0.146l-1.062-1.061l-0.354,0.354
		c-0.283,0.283-0.66,0.439-1.061,0.439s-0.778-0.156-1.061-0.439l-0.353-0.353l-7.075,7.071C3.178,23.646,2.676,23.854,2.141,23.854
		z M1.434,21.148c-0.39,0.39-0.39,1.024,0,1.414c0.188,0.188,0.439,0.292,0.707,0.292c0.268,0,0.519-0.104,0.707-0.292l7.075-7.071
		l-1.416-1.416L1.434,21.148z M11.69,15.844c0.094,0.094,0.22,0.146,0.354,0.146c0.134,0,0.26-0.052,0.354-0.146l0.354-0.354
		l-4.243-4.243l-0.354,0.354c-0.195,0.195-0.195,0.512,0,0.707l2.817,2.817c0.009,0.008,0.017,0.016,0.024,0.024
		c0.002,0.002,0.004,0.004,0.006,0.007L11.69,15.844z M13.458,14.784l7.778-7.778l-4.244-4.243c0,0-1.767,1.768-1.775,1.776
		c-0.003,0.003-0.007,0.007-0.011,0.01L13.12,6.635c-0.007,0.009-0.015,0.017-0.023,0.024c-0.003,0.003-0.007,0.006-0.011,0.009
		L10.995,8.76c-0.01,0.011-0.021,0.022-0.033,0.031L9.215,10.54L13.458,14.784z M21.944,6.299l0.354-0.354
		c0.195-0.195,0.195-0.512,0-0.707l-3.536-3.536c-0.094-0.094-0.22-0.146-0.354-0.146s-0.26,0.052-0.354,0.146L17.7,2.056
		L21.944,6.299z"/>
	<path d="M17.525,7.225c-0.201,0-0.389-0.078-0.531-0.22c-0.292-0.293-0.292-0.769,0.001-1.061c0.142-0.141,0.33-0.219,0.53-0.219
		c0.2,0,0.388,0.077,0.529,0.218c0.142,0.142,0.22,0.33,0.221,0.53c0,0.201-0.078,0.389-0.22,0.531
		C17.913,7.148,17.725,7.225,17.525,7.225z"/>
	<path d="M15.403,9.347c-0.201,0-0.389-0.078-0.53-0.22c-0.142-0.142-0.219-0.33-0.219-0.531c0-0.2,0.078-0.389,0.22-0.53
		c0.141-0.141,0.329-0.219,0.529-0.219s0.388,0.078,0.53,0.219c0.291,0.291,0.293,0.764,0.006,1.057
		c-0.004,0.005-0.009,0.01-0.014,0.014C15.792,9.269,15.604,9.347,15.403,9.347L15.403,9.347z"/>
	<path d="M13.281,11.472c-0.2,0-0.388-0.078-0.529-0.218c-0.293-0.292-0.294-0.768-0.002-1.061c0.142-0.142,0.33-0.221,0.531-0.221
		c0.199,0,0.387,0.077,0.528,0.217c0.145,0.145,0.223,0.333,0.223,0.532c0,0.2-0.077,0.388-0.218,0.53
		C13.665,11.396,13.479,11.472,13.281,11.472z"/>
</g>
</svg>
