<?xml version="1.0" encoding="utf-8"?>
<!-- Generator: Adobe Illustrator 22.1.0, SVG Export Plug-In . SVG Version: 6.00 Build 0)  -->
<svg version="1.1" id="Light" xmlns="http://www.w3.org/2000/svg" xmlns:xlink="http://www.w3.org/1999/xlink" x="0px" y="0px"
	 viewBox="0 0 24 24" style="enable-background:new 0 0 24 24;" xml:space="preserve">
<g>
	<title>hair-dress-barber</title>
	<path d="M7.5,24C6.121,24,5,22.878,5,21.5v-2C5,19.224,5.224,19,5.5,19H6V5C5.449,5,5,4.551,5,4V2.5C5,1.121,6.121,0,7.5,0h9
		C17.878,0,19,1.121,19,2.5V4c0,0.551-0.448,1-1,1v14c0.552,0,1,0.448,1,1v1.5c0,1.378-1.122,2.5-2.5,2.5H7.5z M6,21.5
		C6,22.327,6.673,23,7.5,23h9c0.827,0,1.5-0.673,1.5-1.5V20H6V21.5z M17,19v-2.474L11.558,19H17z M9.142,19L17,15.428v-2.902
		L7,17.072V19H9.142z M7,15.974l10-4.546V8.526L7,13.072V15.974z M7,11.974l10-4.545V5h-1.042L7,9.072V11.974z M7,7.974L13.542,5H7
		V7.974z M7.5,1C6.673,1,6,1.673,6,2.5V4h12V2.5C18,1.673,17.327,1,16.5,1H7.5z"/>
</g>
</svg>
