<?xml version="1.0" encoding="utf-8"?>
<!-- Generator: Adobe Illustrator 22.1.0, SVG Export Plug-In . SVG Version: 6.00 Build 0)  -->
<svg version="1.1" id="Light" xmlns="http://www.w3.org/2000/svg" xmlns:xlink="http://www.w3.org/1999/xlink" x="0px" y="0px"
	 viewBox="0 0 24 24" style="enable-background:new 0 0 24 24;" xml:space="preserve">
<g>
	<title>hair-dress-comb-1</title>
	<path d="M9.798,23.192c-0.134,0-0.259-0.052-0.354-0.146c-0.094-0.094-0.146-0.22-0.146-0.353s0.052-0.259,0.146-0.354l4.591-4.594
		l-1.416-1.416l-4.594,4.595c-0.094,0.094-0.22,0.146-0.354,0.146s-0.259-0.052-0.354-0.146c-0.195-0.195-0.195-0.512,0-0.707
		l4.594-4.595l-1.414-1.414l-4.594,4.595c-0.094,0.094-0.22,0.146-0.354,0.146s-0.259-0.052-0.354-0.146
		c-0.195-0.195-0.195-0.512,0-0.707L9.792,13.5l-1.414-1.414l-4.595,4.594c-0.094,0.094-0.22,0.146-0.354,0.146
		s-0.259-0.052-0.354-0.146c-0.195-0.195-0.195-0.512,0-0.707l4.595-4.594L6.257,9.966l-4.595,4.595
		c-0.094,0.094-0.22,0.146-0.354,0.146s-0.259-0.052-0.354-0.146c-0.195-0.195-0.195-0.512,0-0.707l7.778-7.778
		c0.472-0.472,1.1-0.732,1.768-0.732c0.665,0,1.292,0.258,1.763,0.727c0.249,0.249,0.573,0.383,0.917,0.383
		c0.344,0,0.668-0.134,0.912-0.377c0.033-0.033,0.065-0.069,0.095-0.107l2.693-3.719c0.653-0.901,1.71-1.439,2.826-1.439
		c0.738,0,1.444,0.229,2.042,0.662c0.148,0.107,0.289,0.228,0.419,0.357c0.657,0.658,1.019,1.534,1.019,2.466
		c0,0.932-0.363,1.808-1.021,2.465c-0.13,0.129-0.27,0.249-0.417,0.356l-3.738,2.709c-0.54,0.433-0.626,1.243-0.182,1.797
		c0.03,0.037,0.062,0.073,0.095,0.106c0.472,0.472,0.732,1.099,0.732,1.767c0,0.668-0.26,1.296-0.732,1.768l-7.772,7.779
		C10.057,23.14,9.932,23.192,9.798,23.192z M14.742,17.037l2.475-2.477c0.283-0.284,0.44-0.66,0.44-1.061
		c0-0.401-0.156-0.777-0.44-1.061c-0.06-0.06-0.116-0.123-0.169-0.189c-0.789-0.985-0.628-2.429,0.357-3.217l3.757-2.723
		c0.105-0.076,0.205-0.162,0.297-0.254c0.47-0.469,0.729-1.094,0.729-1.758c0-0.664-0.258-1.289-0.728-1.759
		c-0.093-0.092-0.193-0.178-0.299-0.255c-0.426-0.309-0.93-0.472-1.456-0.472c-0.797,0-1.551,0.384-2.016,1.026l-2.708,3.738
		c-0.067,0.085-0.124,0.148-0.183,0.207c-0.433,0.432-1.008,0.671-1.619,0.671c-0.609,0-1.182-0.237-1.614-0.666
		c-0.289-0.288-0.665-0.444-1.066-0.444h0c-0.401,0-0.777,0.156-1.061,0.439L6.964,9.259c0,0,1.764,1.763,1.768,1.767
		c0.006,0.006,0.012,0.012,0.017,0.019l4.21,4.209c0.005,0.004,0.01,0.009,0.015,0.014s0.009,0.01,0.014,0.015L14.742,17.037z"/>
</g>
</svg>
