<?xml version="1.0" encoding="utf-8"?>
<!-- Generator: Adobe Illustrator 22.1.0, SVG Export Plug-In . SVG Version: 6.00 Build 0)  -->
<svg version="1.1" id="Light" xmlns="http://www.w3.org/2000/svg" xmlns:xlink="http://www.w3.org/1999/xlink" x="0px" y="0px"
	 viewBox="0 0 24 24" style="enable-background:new 0 0 24 24;" xml:space="preserve">
<g>
	<title>hair-dress-cut</title>
	<path d="M13.5,9.001c-0.134,0-0.259-0.052-0.354-0.147C13.052,8.76,13,8.634,13,8.5c0-0.275,0.225-0.499,0.5-0.499l4.001,0.005
		c0.134,0,0.259,0.052,0.354,0.147c0.094,0.095,0.146,0.22,0.146,0.354c0,0.275-0.225,0.499-0.5,0.499L13.5,9.001z"/>
	<path d="M13.497,11c-0.133-0.001-0.259-0.053-0.353-0.148c-0.094-0.095-0.145-0.221-0.145-0.354C13.001,10.223,13.226,10,13.5,10
		l4.004,0.022c0.275,0.001,0.499,0.227,0.497,0.503c-0.001,0.274-0.226,0.497-0.5,0.497L13.497,11z"/>
	<path d="M13.498,7.001C13.364,7,13.239,6.948,13.145,6.853C13.051,6.758,12.999,6.632,13,6.498c0.001-0.274,0.226-0.497,0.5-0.497
		l4.002,0.02c0.134,0.001,0.259,0.053,0.353,0.148C17.949,6.264,18.001,6.39,18,6.524c-0.001,0.274-0.226,0.497-0.5,0.497
		L13.498,7.001z"/>
	<path d="M13.498,5c-0.134-0.001-0.259-0.053-0.353-0.148S12.999,4.631,13,4.497C13.001,4.223,13.226,4,13.5,4l4.002,0.021
		c0.134,0.001,0.259,0.053,0.353,0.148S18.001,4.39,18,4.524c-0.001,0.274-0.226,0.497-0.5,0.497L13.498,5z"/>
	<path d="M13.498,2.979c-0.134-0.001-0.259-0.053-0.353-0.148S12.999,2.61,13,2.476c0.001-0.274,0.226-0.497,0.5-0.497L17.502,2
		c0.134,0.001,0.259,0.053,0.353,0.148S18.001,2.369,18,2.503C17.999,2.777,17.774,3,17.5,3L13.498,2.979z"/>
	<path d="M13.501,13c-0.275,0-0.499-0.224-0.5-0.498C13,12.226,13.224,12.001,13.499,12l4-0.011c0.276,0,0.5,0.224,0.501,0.498
		c0.001,0.276-0.223,0.501-0.498,0.502l-4,0.011C13.502,13,13.501,13,13.501,13z"/>
	<path d="M12.5,24c-1.007,0-1.911-0.605-2.301-1.521C8.953,22.329,8,21.271,8,20v-7.648l-2,2.333V20c0,1.378-1.121,2.5-2.5,2.5
		S1,21.378,1,20s1.121-2.5,2.5-2.5c0.548,0,1.072,0.178,1.5,0.501V7.812c0-0.029,0.003-0.058,0.008-0.087L6.262,0.62
		c0.036-0.199,0.146-0.371,0.311-0.485c0.126-0.088,0.273-0.134,0.426-0.134c0.045,0,0.091,0.004,0.136,0.012
		C7.44,0.069,7.683,0.312,7.738,0.618l1.255,7.107C8.997,7.754,9,7.783,9,7.812v10.189c0.428-0.323,0.952-0.501,1.5-0.501
		c1.379,0,2.5,1.122,2.5,2.5c0,1.093-0.706,2.042-1.72,2.374C11.558,22.761,12.01,23,12.5,23c0.276,0,0.5,0.224,0.5,0.5
		S12.776,24,12.5,24z M10.5,18.5C9.673,18.5,9,19.173,9,20s0.673,1.5,1.5,1.5S12,20.827,12,20S11.327,18.5,10.5,18.5z M3.5,18.5
		C2.673,18.5,2,19.173,2,20s0.673,1.5,1.5,1.5S5,20.827,5,20S4.327,18.5,3.5,18.5z M6,13.148l2-2.333V7.856L7,2.189L6,7.856V13.148z
		"/>
	<path d="M21,24c-1.103,0-2-0.897-2-2v-7h-5.5c-0.276,0-0.5-0.224-0.5-0.5s0.224-0.5,0.5-0.5H19V1h-5.5C13.224,1,13,0.776,13,0.5
		S13.224,0,13.5,0h6.001C21.43,0.001,23,1.571,23,3.5V22C23,23.103,22.103,24,21,24z M20,22c0,0.552,0.448,1,1,1s1-0.448,1-1V3.5
		c0-1.188-0.859-2.215-2-2.45v13.428c0.001,0.007,0.001,0.014,0.001,0.021s0,0.014-0.001,0.021V22z"/>
</g>
</svg>
