<?xml version="1.0" encoding="utf-8"?>
<!-- Generator: Adobe Illustrator 22.1.0, SVG Export Plug-In . SVG Version: 6.00 Build 0)  -->
<svg version="1.1" id="Light" xmlns="http://www.w3.org/2000/svg" xmlns:xlink="http://www.w3.org/1999/xlink" x="0px" y="0px"
	 viewBox="0 0 24 24" style="enable-background:new 0 0 24 24;" xml:space="preserve">
<g>
	<title>hair-dress-brush</title>
	<path d="M3.672,23.729c-0.468,0-0.907-0.181-1.237-0.511c-0.682-0.683-0.682-1.793,0-2.475l9.282-9.281
		c0.324-0.324,0.481-0.771,0.431-1.226c-0.023-0.206-0.019-0.417,0.011-0.628l-2.123-2.122c-0.094-0.094-0.146-0.22-0.146-0.354
		c0-0.134,0.052-0.259,0.146-0.354c0.094-0.094,0.22-0.146,0.353-0.146s0.259,0.052,0.354,0.146l1.803,1.802
		c0.093-0.14,0.199-0.27,0.319-0.39l1.061-1.06l-1.769-1.768c-0.195-0.195-0.195-0.512,0-0.707c0.094-0.094,0.22-0.146,0.354-0.146
		c0.133,0,0.259,0.052,0.353,0.146l1.77,1.769l1.415-1.413l-1.769-1.769c-0.195-0.195-0.195-0.512,0-0.707
		c0.094-0.094,0.22-0.146,0.354-0.146s0.259,0.052,0.354,0.146l1.769,1.769l1.06-1.059c0.119-0.119,0.25-0.225,0.391-0.318
		l-1.806-1.806c-0.195-0.195-0.195-0.512,0-0.707c0.094-0.094,0.22-0.146,0.354-0.146s0.259,0.052,0.354,0.146l2.124,2.124
		c0.116-0.016,0.234-0.025,0.352-0.025c0.668,0,1.296,0.26,1.768,0.733c0.472,0.472,0.732,1.1,0.732,1.768
		c0,0.668-0.26,1.296-0.733,1.768L4.909,23.217C4.579,23.547,4.14,23.729,3.672,23.729z M19.582,3.513
		c-0.4,0-0.777,0.156-1.06,0.439l-4.95,4.946c-0.324,0.324-0.481,0.771-0.43,1.226c0.084,0.759-0.177,1.504-0.718,2.044
		l-9.282,9.281c-0.292,0.292-0.292,0.768,0,1.061c0.141,0.141,0.329,0.219,0.53,0.219c0.201,0,0.389-0.078,0.531-0.219l16.44-16.436
		c0.283-0.283,0.439-0.66,0.44-1.061c0-0.401-0.156-0.777-0.439-1.061C20.359,3.669,19.983,3.513,19.582,3.513L19.582,3.513z"/>
</g>
</svg>
