<?xml version="1.0" encoding="utf-8"?>
<!-- Generator: Adobe Illustrator 22.1.0, SVG Export Plug-In . SVG Version: 6.00 Build 0)  -->
<svg version="1.1" id="Light" xmlns="http://www.w3.org/2000/svg" xmlns:xlink="http://www.w3.org/1999/xlink" x="0px" y="0px"
	 viewBox="0 0 24 24" style="enable-background:new 0 0 24 24;" xml:space="preserve">
<g>
	<title>hair-dress-chair-1</title>
	<path d="M7,24c-0.276,0-0.5-0.224-0.5-0.5S6.724,23,7,23h4.493l0.005-2H8c-0.654,0-1.227-0.426-1.425-1.036
		C5.38,19.76,4.5,18.73,4.5,17.5V16H4c-0.276,0-0.5-0.224-0.5-0.5S3.724,15,4,15h2c0.276,0,0.5,0.224,0.5,0.5S6.276,16,6,16H5.5v1.5
		c0,0.641,0.415,1.205,1.003,1.413c0.045-0.757,0.666-1.377,1.429-1.411c0.177-0.044,0.365-0.087,0.568-0.13V10.5
		C8.5,9.673,9.173,9,10,9h4c0.827,0,1.5,0.673,1.5,1.5v6.872c0.204,0.043,0.391,0.086,0.568,0.13
		c0.763,0.034,1.385,0.654,1.429,1.411c0.588-0.208,1.003-0.772,1.003-1.413V16H18c-0.276,0-0.5-0.224-0.5-0.5S17.724,15,18,15h2
		c0.276,0,0.5,0.224,0.5,0.5S20.276,16,20,16h-0.5v1.5c0,1.23-0.88,2.26-2.075,2.464C17.227,20.574,16.654,21,16,21h-3.501l-0.005,2
		H17c0.276,0,0.5,0.224,0.5,0.5S17.276,24,17,24H7z M8.888,18.312c-0.275,0.055-0.526,0.112-0.765,0.172
		C8.08,18.495,8.04,18.5,8,18.5c-0.276,0-0.5,0.224-0.5,0.5v0.5C7.5,19.776,7.724,20,8,20h8c0.276,0,0.5-0.224,0.5-0.5V19
		c0-0.276-0.224-0.5-0.5-0.5c-0.04,0-0.081-0.005-0.121-0.015c-0.251-0.064-0.51-0.122-0.794-0.178
		c-0.025,0.005-0.054,0.009-0.085,0.009c-0.089,0-0.176-0.025-0.254-0.073c-0.908-0.16-1.832-0.241-2.746-0.241
		c-0.905,0-1.82,0.08-2.72,0.237C9.198,18.295,9.101,18.325,9,18.325C8.962,18.325,8.925,18.321,8.888,18.312z M10,10
		c-0.276,0-0.5,0.224-0.5,0.5v6.69c0.825-0.124,1.665-0.187,2.5-0.187c0,0,0,0,0,0c0.835,0,1.675,0.063,2.5,0.187V10.5
		c0-0.276-0.224-0.5-0.5-0.5H10z"/>
	<path d="M20,24c-0.276,0-0.5-0.224-0.5-0.5S19.724,23,20,23h2c0.276,0,0.5-0.224,0.5-0.5v-21C22.5,1.224,22.276,1,22,1H2
		C1.724,1,1.5,1.224,1.5,1.5v21C1.5,22.776,1.724,23,2,23h2c0.276,0,0.5,0.224,0.5,0.5S4.276,24,4,24H2c-0.827,0-1.5-0.673-1.5-1.5
		v-21C0.5,0.673,1.173,0,2,0h20c0.827,0,1.5,0.673,1.5,1.5v21c0,0.827-0.673,1.5-1.5,1.5H20z"/>
</g>
</svg>
