<?xml version="1.0" encoding="utf-8"?>
<!-- Generator: Adobe Illustrator 22.1.0, SVG Export Plug-In . SVG Version: 6.00 Build 0)  -->
<svg version="1.1" id="Light" xmlns="http://www.w3.org/2000/svg" xmlns:xlink="http://www.w3.org/1999/xlink" x="0px" y="0px"
	 viewBox="0 0 24 24" style="enable-background:new 0 0 24 24;" xml:space="preserve">
<g>
	<title>hair-dress-bobby-pin</title>
	<path d="M2.7,23.307c-0.134,0-0.259-0.052-0.354-0.146c-0.195-0.195-0.195-0.512,0-0.707l18-18
		c0.305-0.306,0.472-0.712,0.471-1.144c-0.001-0.432-0.17-0.838-0.476-1.143c-0.305-0.304-0.711-0.472-1.142-0.472
		c-0.435,0.001-0.841,0.17-1.146,0.476l-1.861,1.845l0.001,2.492c0,0.441-0.359,0.8-0.8,0.8h-2.2v2.2c0,0.441-0.359,0.8-0.8,0.8
		h-2.2v2.2c0,0.441-0.359,0.8-0.8,0.8H6.907L4.054,16.16c-0.094,0.094-0.22,0.146-0.354,0.146s-0.259-0.052-0.354-0.146
		c-0.195-0.195-0.195-0.512,0-0.707l2.854-2.854c0.189-0.189,0.44-0.292,0.706-0.292h2.287v-2c0-0.551,0.449-1,1-1h2v-2
		c0-0.551,0.448-1,1-1h2V4.013c0-0.264,0.107-0.522,0.294-0.708l1.86-1.844c0.492-0.494,1.15-0.767,1.852-0.767
		c0.698,0,1.355,0.271,1.848,0.763c0.495,0.494,0.769,1.15,0.77,1.85c0.001,0.699-0.27,1.357-0.764,1.852l-18,18.001
		C2.959,23.255,2.834,23.307,2.7,23.307z"/>
</g>
</svg>
