<?xml version="1.0" encoding="utf-8"?>
<!-- Generator: Adobe Illustrator 22.1.0, SVG Export Plug-In . SVG Version: 6.00 Build 0)  -->
<svg version="1.1" id="Layer_1" xmlns="http://www.w3.org/2000/svg" xmlns:xlink="http://www.w3.org/1999/xlink" x="0px" y="0px"
	 viewBox="0 0 24 24" style="enable-background:new 0 0 24 24;" xml:space="preserve">
<g>
	<title>cash-payment-coins</title>
	<path d="M12.661,23.424c-1.376,0-2.893-0.527-5.405-1.399c-0.675-0.234-1.416-0.491-2.252-0.774v0.345c0,0.552-0.449,1-1,1h-3
		c-0.551,0-1-0.448-1-1v-7c0-0.552,0.449-1,1-1h3c0.551,0,1,0.448,1,1H7.5c1.779,0.063,3.444,0.772,4.707,2h2.752
		c0.074-0.011,0.149-0.016,0.223-0.016c0.309,0,0.607,0.094,0.863,0.271c0.324,0.226,0.544,0.562,0.621,0.949l3.676-1.22
		c0.31-0.092,0.623-0.137,0.938-0.137c1.031,0,2.01,0.491,2.621,1.314c0.088,0.118,0.119,0.269,0.085,0.414
		c-0.034,0.144-0.13,0.265-0.262,0.331c-2.034,1.017-3.628,1.865-4.909,2.546C15.839,22.631,14.346,23.424,12.661,23.424z
		 M5.004,20.196c0.985,0.33,1.83,0.624,2.58,0.885c2.485,0.863,3.853,1.338,5.063,1.338c1.461,0,2.788-0.706,5.696-2.252
		c1.148-0.61,2.561-1.362,4.324-2.252c-0.394-0.303-0.883-0.472-1.386-0.472c-0.217,0-0.431,0.031-0.638,0.093l-4.196,1.394
		c-0.007,0.011-0.014,0.023-0.022,0.034c-0.231,0.333-0.578,0.555-0.977,0.627c-0.09,0.016-0.18,0.024-0.268,0.024
		c-0.073,0-0.147-0.005-0.219-0.016H9.5c-0.276,0-0.5-0.224-0.5-0.5s0.224-0.5,0.5-0.5H15c0.031,0,0.06,0.003,0.09,0.008
		c0.029,0.005,0.059,0.008,0.09,0.008s0.061-0.003,0.092-0.008c0.135-0.024,0.253-0.1,0.332-0.213
		c0.017-0.024,0.03-0.051,0.042-0.077c0.003-0.007,0.008-0.018,0.014-0.03c0.035-0.089,0.045-0.185,0.028-0.279
		c-0.024-0.136-0.1-0.254-0.213-0.333c-0.087-0.061-0.188-0.093-0.292-0.093c-0.031,0-0.062,0.003-0.094,0.009
		C15.06,17.594,15.03,17.597,15,17.597h-3c-0.135,0-0.265-0.055-0.359-0.152c-1.1-1.135-2.575-1.791-4.154-1.848l-2.483,0V20.196z
		 M1.004,21.597h3v-1.001c-0.001-0.017-0.001-0.033,0-0.05l0-5.406C4.002,15.125,4,15.109,4,15.097c0-0.019,0.002-0.036,0.005-0.05
		l-0.001-0.45l-3,0L1.004,21.597z"/>
	<path d="M17.504,7.555c-1.93,0-3.5-1.57-3.5-3.5s1.57-3.5,3.5-3.5s3.5,1.57,3.5,3.5S19.434,7.555,17.504,7.555z M17.504,1.555
		c-1.378,0-2.5,1.121-2.5,2.5s1.122,2.5,2.5,2.5s2.5-1.121,2.5-2.5S18.882,1.555,17.504,1.555z"/>
	<path d="M12.504,14.555c-1.93,0-3.5-1.57-3.5-3.5c0-1.93,1.57-3.5,3.5-3.5s3.5,1.57,3.5,3.5
		C16.004,12.985,14.434,14.555,12.504,14.555z M12.504,8.555c-1.379,0-2.5,1.121-2.5,2.5s1.121,2.5,2.5,2.5
		c1.378,0,2.5-1.122,2.5-2.5S13.882,8.555,12.504,8.555z"/>
	<path d="M12.504,12.555c-0.276,0-0.5-0.224-0.5-0.5v-2c0-0.276,0.224-0.5,0.5-0.5c0.276,0,0.5,0.224,0.5,0.5v2
		C13.004,12.33,12.78,12.555,12.504,12.555z"/>
	<path d="M17.504,5.555c-0.276,0-0.5-0.224-0.5-0.5v-2c0-0.276,0.224-0.5,0.5-0.5s0.5,0.224,0.5,0.5v2
		C18.004,5.331,17.78,5.555,17.504,5.555z"/>
</g>
</svg>
