<?xml version="1.0" encoding="utf-8"?>
<!-- Generator: Adobe Illustrator 22.1.0, SVG Export Plug-In . SVG Version: 6.00 Build 0)  -->
<svg version="1.1" id="Layer_1" xmlns="http://www.w3.org/2000/svg" xmlns:xlink="http://www.w3.org/1999/xlink" x="0px" y="0px"
	 viewBox="0 0 24 24" style="enable-background:new 0 0 24 24;" xml:space="preserve">
<g>
	<title>cash-payment-bill</title>
	<path d="M0.5,22c-0.174,0-0.332-0.088-0.424-0.235c-0.071-0.114-0.093-0.248-0.063-0.378s0.109-0.241,0.223-0.312l4-2.5
		c0.079-0.05,0.171-0.076,0.265-0.076c0.054,0,0.108,0.009,0.16,0.026c1.301,0.434,2.363,0.807,3.3,1.137
		c2.326,0.818,3.607,1.269,4.735,1.269c0,0,0,0,0,0c1.357,0,2.591-0.664,5.293-2.118c1.225-0.659,2.734-1.471,4.679-2.454
		c-0.394-0.303-0.884-0.472-1.387-0.472c-0.216,0-0.431,0.031-0.638,0.093l-4.236,1.407c-0.286,0.396-0.738,0.63-1.226,0.63
		c-0.073,0-0.146-0.005-0.22-0.016H9.5C9.224,18,9,17.776,9,17.5S9.224,17,9.5,17H15c0.03,0,0.06,0.003,0.089,0.008
		s0.06,0.008,0.089,0.008c0.177,0,0.344-0.095,0.439-0.25c0.008-0.018,0.017-0.034,0.027-0.051c0.022-0.047,0.036-0.087,0.043-0.125
		c0.024-0.135-0.006-0.272-0.085-0.385c-0.079-0.113-0.197-0.189-0.332-0.213c-0.031-0.006-0.061-0.008-0.091-0.008
		c-0.031,0-0.061,0.003-0.092,0.008C15.06,15.997,15.03,16,15,16h-3c-0.135,0-0.265-0.055-0.359-0.152
		C10.54,14.712,9.063,14.056,7.482,14l-2.864,0l-3.895,1.947C0.653,15.982,0.576,16,0.5,16c-0.191,0-0.362-0.106-0.448-0.276
		c-0.06-0.119-0.069-0.255-0.027-0.382s0.131-0.229,0.251-0.289l4-2C4.345,13.018,4.422,13,4.5,13h3
		c1.779,0.063,3.444,0.772,4.707,2h2.752c0.072-0.011,0.146-0.016,0.219-0.016c0.089,0,0.18,0.008,0.269,0.024
		c0.639,0.115,1.117,0.619,1.221,1.238l3.674-1.22c0.31-0.092,0.622-0.137,0.937-0.137c1.031,0,2.011,0.491,2.622,1.314
		c0.088,0.119,0.119,0.27,0.085,0.414c-0.034,0.145-0.13,0.266-0.263,0.332c-2.236,1.117-3.913,2.021-5.262,2.746
		c-2.777,1.495-4.171,2.245-5.751,2.245c0,0,0,0,0,0c-1.294,0-2.72-0.501-5.082-1.332c-0.888-0.312-1.879-0.66-3.063-1.058
		l-3.8,2.375C0.686,21.974,0.594,22,0.5,22z"/>
	<path d="M7.004,11c-0.551,0-1-0.449-1-1V3c0-0.551,0.449-1,1-1h14c0.552,0,1,0.449,1,1v7c0,0.551-0.448,1-1,1H7.004z M21.004,10
		V8.135L18.963,10H21.004z M17.481,10l3.523-3.22V6.243L16.873,3h-5.759l-4.11,3.242V6.78L10.526,10H17.481z M7.004,10h2.04
		l-2.04-1.865V10z M21.004,4.972V3h-2.511L21.004,4.972z M7.004,4.969L9.5,3H7.004L7.004,4.969z"/>
	<path d="M14.004,8.5c-1.103,0-2-0.897-2-2s0.897-2,2-2s2,0.897,2,2S15.106,8.5,14.004,8.5z M14.004,5.5c-0.552,0-1,0.449-1,1
		s0.448,1,1,1s1-0.449,1-1S14.555,5.5,14.004,5.5z"/>
</g>
</svg>
