<?xml version="1.0" encoding="utf-8"?>
<!-- Generator: Adobe Illustrator 22.1.0, SVG Export Plug-In . SVG Version: 6.00 Build 0)  -->
<svg version="1.1" id="Layer_1" xmlns="http://www.w3.org/2000/svg" xmlns:xlink="http://www.w3.org/1999/xlink" x="0px" y="0px"
	 viewBox="0 0 24 24" style="enable-background:new 0 0 24 24;" xml:space="preserve">
<g>
	<title>cash-payment-coin</title>
	<path d="M0.5,23.5c-0.174,0-0.332-0.088-0.424-0.235c-0.071-0.114-0.093-0.248-0.063-0.378s0.109-0.241,0.223-0.312l4-2.5
		C4.314,20.026,4.406,20,4.5,20c0.054,0,0.108,0.009,0.16,0.026c1.301,0.434,2.363,0.807,3.3,1.137
		c2.326,0.818,3.607,1.269,4.735,1.269c0,0,0,0,0,0c1.357,0,2.591-0.664,5.293-2.118c1.225-0.659,2.734-1.471,4.679-2.454
		c-0.394-0.303-0.884-0.472-1.386-0.472c-0.216,0-0.431,0.031-0.638,0.093l-4.236,1.407c-0.286,0.396-0.738,0.63-1.226,0.63
		c-0.073,0-0.146-0.005-0.22-0.016H9.5C9.224,19.5,9,19.276,9,19s0.224-0.5,0.5-0.5H15c0.03,0,0.06,0.003,0.089,0.008
		c0.03,0.005,0.06,0.008,0.09,0.008c0.177,0,0.343-0.095,0.438-0.249c0.008-0.017,0.017-0.034,0.027-0.051
		c0.022-0.047,0.036-0.087,0.043-0.125c0.024-0.135-0.006-0.272-0.085-0.385c-0.079-0.113-0.197-0.189-0.332-0.213
		c-0.031-0.006-0.061-0.008-0.091-0.008c-0.031,0-0.061,0.003-0.092,0.008C15.06,17.497,15.03,17.5,15,17.5h-3
		c-0.135,0-0.265-0.055-0.359-0.152c-1.101-1.136-2.578-1.792-4.159-1.849l-2.864,0l-3.895,1.947C0.654,17.482,0.577,17.5,0.5,17.5
		c-0.191,0-0.362-0.106-0.447-0.277c-0.06-0.119-0.069-0.255-0.027-0.382s0.131-0.229,0.251-0.289l4-2
		C4.345,14.518,4.422,14.5,4.5,14.5h3c1.779,0.063,3.444,0.772,4.707,2h2.752c0.072-0.011,0.146-0.016,0.219-0.016
		c0.089,0,0.179,0.008,0.269,0.024c0.639,0.115,1.118,0.619,1.222,1.238l3.674-1.22c0.31-0.092,0.622-0.137,0.937-0.137
		c1.031,0,2.011,0.491,2.622,1.314c0.088,0.119,0.119,0.27,0.085,0.414c-0.034,0.145-0.13,0.266-0.263,0.332
		c-2.236,1.117-3.913,2.021-5.262,2.746c-2.777,1.495-4.171,2.245-5.751,2.245c0,0,0,0,0,0c-1.294,0-2.72-0.501-5.082-1.332
		c-0.888-0.312-1.879-0.66-3.063-1.058l-3.8,2.375C0.686,23.474,0.594,23.5,0.5,23.5z"/>
	<path d="M15.504,13.798c-3.666,0-6.649-2.983-6.649-6.649S11.837,0.5,15.504,0.5s6.649,2.983,6.649,6.649
		S19.17,13.798,15.504,13.798z M15.504,1.5c-3.115,0-5.649,2.534-5.649,5.649s2.534,5.649,5.649,5.649
		c3.115,0,5.649-2.534,5.649-5.649S18.619,1.5,15.504,1.5z"/>
	<path d="M15.504,11.5c-0.276,0-0.5-0.224-0.5-0.5v-0.5H14c-0.276,0-0.5-0.224-0.5-0.5s0.224-0.5,0.5-0.5h2.035
		c0.345,0,0.651-0.207,0.78-0.528c0.173-0.431-0.036-0.922-0.467-1.095l-2.063-0.826c-0.702-0.282-1.155-0.953-1.156-1.708
		c0-0.492,0.191-0.955,0.539-1.303c0.348-0.348,0.81-0.54,1.302-0.54h0.033V3c0-0.276,0.224-0.5,0.5-0.5s0.5,0.224,0.5,0.5v0.5H17
		c0.276,0,0.5,0.224,0.5,0.5S17.275,4.5,17,4.5h-2.029c-0.225,0-0.436,0.088-0.595,0.247c-0.159,0.159-0.247,0.371-0.246,0.596
		c0,0.345,0.208,0.652,0.528,0.781l2.063,0.826c0.457,0.183,0.814,0.534,1.007,0.987s0.198,0.954,0.015,1.409
		c-0.282,0.701-0.952,1.154-1.708,1.155h-0.031V11C16.004,11.276,15.779,11.5,15.504,11.5z"/>
</g>
</svg>
