<?xml version="1.0" encoding="utf-8"?>
<!-- Generator: Adobe Illustrator 22.1.0, SVG Export Plug-In . SVG Version: 6.00 Build 0)  -->
<svg version="1.1" id="Layer_1" xmlns="http://www.w3.org/2000/svg" xmlns:xlink="http://www.w3.org/1999/xlink" x="0px" y="0px"
	 viewBox="0 0 24 24" style="enable-background:new 0 0 24 24;" xml:space="preserve">
<g>
	<title>cash-payment-coin-stash</title>
	<path d="M0.5,23c-0.174,0-0.332-0.088-0.424-0.235c-0.071-0.114-0.093-0.248-0.063-0.378s0.109-0.241,0.223-0.312l4-2.5
		c0.079-0.05,0.171-0.076,0.265-0.076c0.054,0,0.108,0.009,0.16,0.026c1.301,0.434,2.363,0.807,3.3,1.137
		c2.326,0.818,3.608,1.269,4.735,1.269c1.357,0,2.59-0.664,5.292-2.118c1.225-0.659,2.734-1.471,4.679-2.454
		c-0.394-0.303-0.884-0.472-1.387-0.472c-0.216,0-0.431,0.031-0.638,0.093l-4.236,1.407c-0.286,0.396-0.738,0.63-1.226,0.63
		c-0.073,0-0.146-0.005-0.22-0.016H9.5C9.224,19,9,18.776,9,18.5S9.224,18,9.5,18H15c0.03,0,0.06,0.003,0.089,0.008
		s0.06,0.008,0.089,0.008c0.177,0,0.344-0.095,0.439-0.25c0.008-0.018,0.017-0.034,0.027-0.051c0.022-0.047,0.036-0.087,0.043-0.125
		c0.024-0.135-0.006-0.272-0.085-0.385c-0.079-0.113-0.197-0.189-0.332-0.213c-0.031-0.006-0.061-0.008-0.091-0.008
		c-0.031,0-0.061,0.003-0.092,0.008C15.06,16.997,15.03,17,15,17h-3c-0.135,0-0.265-0.055-0.359-0.152
		C10.54,15.712,9.063,15.056,7.482,15l-2.864,0l-3.895,1.947C0.654,16.982,0.576,17,0.5,17c-0.191,0-0.362-0.106-0.447-0.277
		c-0.06-0.119-0.069-0.255-0.027-0.382s0.131-0.229,0.251-0.289l4-2C4.345,14.018,4.422,14,4.5,14h3
		c1.779,0.063,3.444,0.772,4.707,2h2.752c0.072-0.011,0.146-0.016,0.219-0.016c0.089,0,0.18,0.008,0.269,0.024
		c0.639,0.115,1.117,0.619,1.221,1.238l3.674-1.22c0.31-0.092,0.622-0.137,0.937-0.137c1.031,0,2.011,0.491,2.622,1.314
		c0.088,0.119,0.119,0.27,0.085,0.414c-0.034,0.145-0.13,0.266-0.263,0.332c-2.236,1.117-3.913,2.021-5.262,2.746
		c-2.777,1.495-4.171,2.245-5.751,2.245c0,0,0,0,0,0c-1.294,0-2.72-0.501-5.082-1.332c-0.888-0.312-1.879-0.66-3.063-1.058
		l-3.8,2.375C0.686,22.974,0.594,23,0.5,23z"/>
	<path d="M16.5,13c-1.29,0-5.5-0.108-5.5-1.5v-9c0-0.048,0.011-0.086,0.016-0.107c0.077-0.617,0.972-1.016,2.813-1.236
		C15.104,1.004,16.364,1,16.504,1c1.29,0,5.5,0.108,5.5,1.5c0,0.011-0.002,0.032-0.004,0.048V11.5C22,12.892,17.79,13,16.5,13z
		 M12,11.4c0.311,0.2,1.859,0.6,4.5,0.6c2.799,0,4.222-0.424,4.502-0.608L21,9.467C19.541,9.984,16.829,10,16.5,10
		S13.459,9.984,12,9.467V11.4z M12,8.4C12.311,8.6,13.858,9,16.5,9c2.799,0,4.222-0.424,4.502-0.608L21,6.467
		C19.541,6.984,16.829,7,16.5,7S13.459,6.984,12,6.467V8.4z M12,5.4C12.311,5.6,13.858,6,16.5,6c2.799,0,4.222-0.424,4.502-0.608
		L21,3.468C19.54,3.984,16.833,4,16.504,4C16.173,4,13.458,3.984,12,3.465V5.4z M12.222,2.505C12.802,2.713,14.263,3,16.504,3
		c2.356,0,3.737-0.301,4.281-0.505C20.205,2.287,18.744,2,16.504,2C14.148,2,12.767,2.3,12.222,2.505z"/>
	<path d="M4.504,10c-0.276,0-0.5-0.224-0.5-0.5v-1c0-0.276,0.224-0.5,0.5-0.5s0.5,0.224,0.5,0.5v1C5.004,9.776,4.779,10,4.504,10z"
		/>
	<path d="M4.504,5c-0.276,0-0.5-0.224-0.5-0.5v-1c0-0.276,0.224-0.5,0.5-0.5s0.5,0.224,0.5,0.5v1C5.004,4.776,4.779,5,4.504,5z"/>
	<path d="M1.504,7c-0.276,0-0.5-0.224-0.5-0.5S1.228,6,1.504,6h1c0.276,0,0.5,0.224,0.5,0.5S2.779,7,2.504,7H1.504z"/>
	<path d="M6.504,7c-0.276,0-0.5-0.224-0.5-0.5S6.228,6,6.504,6h1c0.276,0,0.5,0.224,0.5,0.5S7.779,7,7.504,7H6.504z"/>
</g>
</svg>
