<?xml version="1.0" encoding="utf-8"?>
<!-- Generator: Adobe Illustrator 22.1.0, SVG Export Plug-In . SVG Version: 6.00 Build 0)  -->
<svg version="1.1" id="Layer_1" xmlns="http://www.w3.org/2000/svg" xmlns:xlink="http://www.w3.org/1999/xlink" x="0px" y="0px"
	 viewBox="0 0 24 24" style="enable-background:new 0 0 24 24;" xml:space="preserve">
<g>
	<title>cash-payment-bill-1</title>
	<path d="M0.996,21.5c-0.167,0-0.323-0.083-0.416-0.222c-0.153-0.229-0.091-0.541,0.138-0.694l2.244-1.5
		C3.538,18.702,4.207,18.5,4.897,18.5h5.366c-0.175-0.301-0.268-0.643-0.268-1c0-0.864,0.552-1.612,1.339-1.887
		c-0.221-0.327-0.339-0.71-0.339-1.113c0-0.357,0.093-0.699,0.268-1H9.995c-0.276,0-0.5-0.224-0.5-0.5s0.224-0.5,0.5-0.5h9.297
		l3.203-3.203V6.703L19.292,3.5H8.706L5.353,6.854C5.258,6.948,5.133,7,4.999,7C4.999,7,4.996,7,4.995,7c-0.276,0-0.5-0.224-0.5-0.5
		v-3c0-0.551,0.449-1,1-1h17c0.552,0,1,0.449,1,1v2.98c0.001,0.008,0.001,0.032-0.001,0.058l0.001,2.942
		c0.001,0.008,0.001,0.032-0.001,0.058l0.001,2.962c0,0.552-0.448,1-1,1h-4.64l-0.884,2.651c-0.004,0.014-0.009,0.03-0.015,0.044
		l-0.76,2.278c-0.204,0.614-0.776,1.026-1.423,1.026H4.907c-0.503,0-0.981,0.144-1.392,0.417l-2.243,1.499
		C1.191,21.471,1.095,21.5,0.996,21.5z M11.995,16.5c-0.551,0-1,0.448-1,1s0.449,1,1,1h2.779c0.216,0,0.406-0.138,0.475-0.343
		l0.552-1.657c0,0-3.804,0-3.804,0S11.996,16.5,11.995,16.5z M12.995,13.5c-0.552,0-1,0.448-1,1s0.448,1,1,1h3.14l0.667-2H12.995z
		 M22.495,12.5v-1.789L20.706,12.5H22.495z M5.495,5.297L7.292,3.5H5.496L5.495,5.297z M22.495,5.289V3.5h-1.789L22.495,5.289z"/>
	<path d="M3.995,16c-0.197,0-0.376-0.116-0.457-0.296c-0.113-0.252,0.001-0.548,0.252-0.661l2.238-1
		c0.326-0.23,0.55-0.586,0.615-0.98l0.358-2.145c0.022-0.131,0.094-0.247,0.203-0.325l3.081-2.2c0.131-0.094,0.21-0.246,0.21-0.408
		V7.419c0-0.276-0.224-0.5-0.5-0.5c-0.057,0-0.114,0.01-0.168,0.029L5.723,8.415C4.747,8.764,3.847,9.278,3.05,9.942l-1.735,1.443
		C1.226,11.459,1.112,11.5,0.996,11.5l0,0c-0.149,0-0.289-0.066-0.385-0.18c-0.085-0.103-0.126-0.233-0.114-0.366
		c0.012-0.133,0.076-0.253,0.178-0.339l1.735-1.442c0.887-0.739,1.888-1.312,2.976-1.7l4.104-1.467
		c0.162-0.058,0.332-0.087,0.504-0.087c0.827,0,1.5,0.673,1.5,1.5v0.566c0.001,0.484-0.234,0.941-0.629,1.222l-2.912,2.08
		L7.63,13.228c-0.113,0.678-0.506,1.287-1.079,1.669c-0.023,0.015-0.047,0.028-0.072,0.04l-2.281,1.02
		C4.135,15.985,4.067,16,3.995,16z"/>
	<path d="M14.999,11.5c-0.276,0-0.5-0.224-0.5-0.5v-0.5h-1.504c-0.276,0-0.5-0.224-0.5-0.5s0.224-0.5,0.5-0.5h3
		c0.276,0,0.5-0.224,0.5-0.5s-0.224-0.5-0.5-0.5h-2c-0.827,0-1.5-0.673-1.5-1.5s0.673-1.5,1.5-1.5h0.504V5
		c0-0.276,0.224-0.5,0.5-0.5s0.5,0.224,0.5,0.5v0.5h1.496c0.276,0,0.5,0.224,0.5,0.5s-0.224,0.5-0.5,0.5h-3
		c-0.276,0-0.5,0.224-0.5,0.5s0.224,0.5,0.5,0.5h2c0.827,0,1.5,0.673,1.5,1.5s-0.673,1.5-1.5,1.5h-0.496V11
		C15.499,11.276,15.275,11.5,14.999,11.5z"/>
</g>
</svg>
