<?xml version="1.0" encoding="utf-8"?>
<!-- Generator: Adobe Illustrator 22.1.0, SVG Export Plug-In . SVG Version: 6.00 Build 0)  -->
<svg version="1.1" id="Layer_1" xmlns="http://www.w3.org/2000/svg" xmlns:xlink="http://www.w3.org/1999/xlink" x="0px" y="0px"
	 viewBox="0 0 24 24" style="enable-background:new 0 0 24 24;" xml:space="preserve">
<g>
	<title>cash-payment-bag-1</title>
	<path d="M12.935,23.5c-4.931,0-6.681-2.565-6.681-4.761c0-3.222,2.123-6.159,3.48-7.515c-0.575-0.203-1.191-0.513-1.98-0.913V10.5
		c0.015,0.23-0.073,0.481-0.243,0.673c-0.172,0.194-0.409,0.31-0.668,0.326c-0.019,0.001-0.039,0.002-0.059,0.002
		S6.742,11.5,6.722,11.499L4.754,11.5c-0.276,0-0.5-0.224-0.5-0.5s0.224-0.5,0.5-0.5c0,0,2,0,2,0c0,0,0-6,0-6.001l-2,0.001
		c-0.276,0-0.5-0.224-0.5-0.5s0.224-0.5,0.5-0.5h2c0.003-0.001,0.021-0.001,0.04-0.001c0.23,0,0.454,0.087,0.633,0.244
		c0.195,0.172,0.31,0.41,0.326,0.669C7.755,4.441,7.755,4.47,7.754,4.5h0.5c0.231-0.008,0.457-0.122,0.611-0.313l0.928-1.301
		L9.273,2.01c-0.092-0.155-0.14-0.331-0.14-0.51c0-0.267,0.104-0.518,0.293-0.707C9.615,0.604,9.866,0.5,10.133,0.5h6.245
		c0.178,0,0.354,0.048,0.508,0.138c0.23,0.136,0.394,0.353,0.461,0.612c0.067,0.259,0.029,0.528-0.107,0.758L15.77,4.5h0.484
		c1.374,0,2,0.778,2,1.5c0,0.033-0.003,0.065-0.01,0.097c-0.021,0.104-0.511,2.545-1.016,4.061c-0.21,0.633-0.418,1.018-0.866,1.203
		c0.989,1.048,3.392,3.948,3.392,7.378C19.754,22.028,16.329,23.5,12.935,23.5z M10.931,11.488c-0.91,0.685-3.677,3.753-3.677,7.251
		c0,2.776,3.06,3.761,5.681,3.761c4.295,0,5.819-2.026,5.819-3.761c0-3.364-2.802-6.466-3.681-7.239h-3.819
		C11.146,11.5,11.037,11.496,10.931,11.488z M6.784,10.501c0,0-0.002,0-0.003,0C6.783,10.501,6.784,10.501,6.784,10.501z
		 M8.17,9.401c1.445,0.731,2.171,1.099,3.084,1.099h4c0.807,0,0.807,0,1.025-0.658c0.439-1.316,0.893-3.493,0.972-3.879
		C17.217,5.734,16.866,5.5,16.254,5.5H11.63c-0.057,0-0.113-0.011-0.172-0.033c-0.008-0.003-0.035-0.014-0.043-0.018
		c-0.049-0.023-0.097-0.055-0.136-0.094c-0.006-0.006-0.012-0.013-0.018-0.02c-0.016-0.018-0.039-0.045-0.06-0.079l-0.85-1.431
		l-0.69,0.966C9.311,5.227,8.807,5.481,8.271,5.5l-0.518,0l0,3.692L8.17,9.401z M14.608,4.5l1.77-3l-6.246,0l1.782,3H14.608z"/>
	<path d="M13.254,20.5c-0.276,0-0.5-0.224-0.5-0.5v-0.5h-1.5c-0.276,0-0.5-0.224-0.5-0.5s0.224-0.5,0.5-0.5h3
		c0.276,0,0.5-0.224,0.5-0.5s-0.224-0.5-0.5-0.5h-2c-0.827,0-1.5-0.673-1.5-1.5s0.673-1.5,1.5-1.5h0.5V14c0-0.276,0.224-0.5,0.5-0.5
		s0.5,0.224,0.5,0.5v0.5h1.5c0.276,0,0.5,0.224,0.5,0.5s-0.224,0.5-0.5,0.5h-3c-0.276,0-0.5,0.224-0.5,0.5s0.224,0.5,0.5,0.5h2
		c0.827,0,1.5,0.673,1.5,1.5s-0.673,1.5-1.5,1.5h-0.5V20C13.754,20.276,13.53,20.5,13.254,20.5z"/>
</g>
</svg>
