<?xml version="1.0" encoding="utf-8"?>
<!-- Generator: Adobe Illustrator 22.1.0, SVG Export Plug-In . SVG Version: 6.00 Build 0)  -->
<svg version="1.1" id="Layer_1" xmlns="http://www.w3.org/2000/svg" xmlns:xlink="http://www.w3.org/1999/xlink" x="0px" y="0px"
	 viewBox="0 0 24 24" style="enable-background:new 0 0 24 24;" xml:space="preserve">
<g>
	<title>cash-payment-bill-4</title>
	<path d="M20.25,24c-0.161,0-0.313-0.078-0.407-0.209l-2.5-3.5C17.282,20.206,17.25,20.105,17.25,20v-4.5
		c0.031-1.303-1.47-2.633-3-3.923V13.5c0,0.276-0.224,0.5-0.5,0.5s-0.5-0.224-0.5-0.5V4.207L10.043,1H7.457L4.25,4.207v10.586
		L7.457,18h3.293c0.276,0,0.5,0.224,0.5,0.5s-0.224,0.5-0.5,0.5h-6.5c-0.551,0-1-0.448-1-1V1c0-0.551,0.449-1,1-1h9
		c0.552,0,1,0.449,1,1v9.268c0.133,0.113,0.267,0.226,0.401,0.339c1.873,1.576,3.642,3.064,3.599,4.905v4.328l2.407,3.37
		c0.078,0.108,0.108,0.241,0.086,0.373s-0.094,0.247-0.203,0.325C20.456,23.968,20.355,24,20.25,24z M4.25,18h1.793L4.25,16.207V18z
		 M13.25,2.793V1h-1.793L13.25,2.793z M4.25,2.793L6.043,1H4.25L4.25,2.793z"/>
	<path d="M15.311,24c-0.132,0-0.257-0.051-0.351-0.144c-0.285-0.281-1.71-1.742-1.71-2.856v-1.296l-3.047-3.123
		C9.911,16.288,9.75,15.896,9.75,15.48c0.001-0.417,0.163-0.808,0.458-1.102c0.022-0.022,0.047-0.042,0.073-0.061
		c0.383-0.259,0.829-0.396,1.289-0.396c0.459,0,0.905,0.137,1.289,0.397c0.029,0.019,0.055,0.042,0.079,0.067l2.689,2.767
		c0.192,0.198,0.188,0.515-0.01,0.707C15.524,17.95,15.401,18,15.269,18c-0.134,0-0.265-0.055-0.359-0.151l-2.651-2.729
		c-0.208-0.13-0.446-0.199-0.689-0.199c-0.242,0-0.479,0.068-0.686,0.197c-0.187,0.218-0.176,0.553,0.029,0.759l3.195,3.274
		c0.092,0.094,0.142,0.218,0.142,0.349V21c0,0.518,0.826,1.566,1.412,2.144c0.095,0.094,0.148,0.219,0.149,0.353
		c0.001,0.133-0.05,0.259-0.144,0.354C15.573,23.947,15.446,24,15.311,24z"/>
	<path d="M10.75,12c-0.276,0-0.5-0.224-0.5-0.5v-3c0-0.276-0.224-0.5-0.5-0.5s-0.5,0.224-0.5,0.5v2c0,0.827-0.673,1.5-1.5,1.5
		s-1.5-0.673-1.5-1.5V10h-0.5c-0.276,0-0.5-0.224-0.5-0.5S5.474,9,5.75,9h0.5V7.5c0-0.276,0.224-0.5,0.5-0.5s0.5,0.224,0.5,0.5v3
		c0,0.276,0.224,0.5,0.5,0.5s0.5-0.224,0.5-0.5v-2c0-0.827,0.673-1.5,1.5-1.5s1.5,0.673,1.5,1.5V9h0.5c0.276,0,0.5,0.224,0.5,0.5
		s-0.224,0.5-0.5,0.5h-0.5v1.5C11.25,11.776,11.026,12,10.75,12z"/>
</g>
</svg>
