<?xml version="1.0" encoding="utf-8"?>
<!-- Generator: Adobe Illustrator 22.1.0, SVG Export Plug-In . SVG Version: 6.00 Build 0)  -->
<svg version="1.1" id="Layer_1" xmlns="http://www.w3.org/2000/svg" xmlns:xlink="http://www.w3.org/1999/xlink" x="0px" y="0px"
	 viewBox="0 0 24 24" style="enable-background:new 0 0 24 24;" xml:space="preserve">
<g>
	<title>cash-payment-bag-2</title>
	<path d="M15.504,24c-4.131,0-6.5-1.64-6.5-4.5c0-1.785,0.912-4.307,2.418-5.649l-5.418-0.774V13.5c0,0.276-0.224,0.5-0.5,0.5h-3
		c-0.276,0-0.5-0.224-0.5-0.5s0.224-0.5,0.5-0.5h2.5V7.498c-0.001-0.016-0.001-0.031,0-0.045V7h-2.5c-0.276,0-0.5-0.224-0.5-0.5
		S2.228,6,2.504,6h3c0.276,0,0.5,0.224,0.5,0.5v0.336L8.439,6.14c0.135-0.038,0.248-0.132,0.31-0.257l1.158-2.307
		c0.144-0.287,0.382-0.525,0.669-0.669l1.655-0.831l-0.314-0.629C11.85,1.31,11.813,1.155,11.813,1c0-0.551,0.448-1,1-1H18.2
		c0.156,0.003,0.307,0.039,0.439,0.106c0.238,0.12,0.416,0.325,0.5,0.579c0.084,0.254,0.065,0.525-0.055,0.763L17.809,4h0.656
		c0.503,0,0.969,0.25,1.248,0.667l0.333,0.5c0.337,0.505,0.337,1.159,0,1.665l-0.26,0.39c-0.113,0.169-0.113,0.387,0,0.555
		l0.26,0.39c0.337,0.506,0.337,1.159,0,1.665l-0.359,0.538c-0.086,0.129-0.107,0.287-0.058,0.435l0.19,0.573
		c0.147,0.442,0.084,0.918-0.174,1.305l-0.532,0.798c1.888,1.257,2.891,4.251,2.891,6.019C22.004,22.36,19.635,24,15.504,24z
		 M13.102,14c-1.805,0.536-3.098,3.642-3.098,5.5c0,3.045,3.446,3.5,5.5,3.5s5.5-0.455,5.5-3.5c0-1.863-1.3-4.98-3.099-5.5H13.102z
		 M18.232,13l0.581-0.87c0.086-0.129,0.107-0.288,0.058-0.436l-0.19-0.573c-0.148-0.442-0.084-0.918,0.175-1.306l0.359-0.538
		c0.113-0.169,0.113-0.386,0-0.555l-0.26-0.39c-0.337-0.506-0.337-1.159,0-1.665l0.26-0.39c0.113-0.169,0.113-0.387,0-0.555
		l-0.333-0.501C18.788,5.083,18.632,5,18.465,5H14c-0.057,0-0.114-0.011-0.174-0.033c-0.008-0.003-0.038-0.016-0.046-0.02
		c-0.038-0.018-0.077-0.044-0.112-0.076c-0.004-0.004-0.022-0.019-0.026-0.023c-0.038-0.039-0.067-0.081-0.089-0.125l-0.874-1.752
		L11.026,3.8c-0.096,0.048-0.176,0.128-0.224,0.225L9.644,6.331c-0.188,0.375-0.526,0.656-0.93,0.771l-2.71,0.774v4.19L12.54,13
		H18.232z M16.691,4l1.5-3l-5.377,0l1.496,3H16.691z"/>
	<path d="M15.504,22c-0.276,0-0.5-0.224-0.5-0.5V21H13.5c-0.276,0-0.5-0.224-0.5-0.5s0.224-0.5,0.5-0.5h3c0.276,0,0.5-0.224,0.5-0.5
		S16.776,19,16.5,19h-2c-0.827,0-1.5-0.673-1.5-1.5s0.673-1.5,1.5-1.5h0.504v-0.5c0-0.276,0.224-0.5,0.5-0.5s0.5,0.224,0.5,0.5V16
		H17.5c0.276,0,0.5,0.224,0.5,0.5S17.776,17,17.5,17h-3c-0.276,0-0.5,0.224-0.5,0.5s0.224,0.5,0.5,0.5h2c0.827,0,1.5,0.673,1.5,1.5
		S17.327,21,16.5,21h-0.496v0.5C16.004,21.776,15.78,22,15.504,22z"/>
</g>
</svg>
