<?xml version="1.0" encoding="utf-8"?>
<!-- Generator: Adobe Illustrator 22.1.0, SVG Export Plug-In . SVG Version: 6.00 Build 0)  -->
<svg version="1.1" id="Layer_1" xmlns="http://www.w3.org/2000/svg" xmlns:xlink="http://www.w3.org/1999/xlink" x="0px" y="0px"
	 viewBox="0 0 24 24" style="enable-background:new 0 0 24 24;" xml:space="preserve">
<g>
	<title>cash-payment-bill-2</title>
	<path d="M14.772,19.522c-0.098,0-0.196-0.01-0.293-0.029c-0.13-0.026-0.258-0.069-0.379-0.129l-0.276-0.138
		c-0.511-0.256-0.829-0.77-0.829-1.341v-0.407l-0.536,0.647c-0.286,0.346-0.707,0.544-1.155,0.544c-0.296,0-0.584-0.087-0.833-0.253
		l-0.113-0.074c-0.563-0.375-0.807-1.085-0.593-1.725l0.255-0.773c0.068-0.206,0.258-0.344,0.475-0.344
		c0.053,0,0.106,0.009,0.156,0.025c0.127,0.042,0.23,0.13,0.29,0.25c0.06,0.119,0.07,0.255,0.028,0.382l-0.255,0.775
		c-0.072,0.215,0.009,0.452,0.196,0.577l0.113,0.074c0.085,0.056,0.181,0.086,0.28,0.086c0.149,0,0.289-0.066,0.385-0.181
		l1.42-1.715c0.01-0.013,0.021-0.026,0.031-0.038l1.022-1.234h-1.668c-0.276,0-0.5-0.224-0.5-0.5s0.224-0.5,0.5-0.5h7.797
		l2.703-2.703V7.203L20.292,4.5H8.706L5.995,7.211v1.25c0.001,0.019,0.001,0.038,0,0.057V10c0,0.276-0.224,0.5-0.5,0.5
		s-0.5-0.224-0.5-0.5V9.311l-4.272,2.136C0.653,11.482,0.576,11.5,0.499,11.5c-0.191,0-0.362-0.106-0.448-0.276
		c-0.06-0.12-0.069-0.255-0.027-0.382s0.131-0.229,0.251-0.289l4.72-2.36V5c0-0.827,0.673-1.5,1.5-1.5h16c0.827,0,1.5,0.673,1.5,1.5
		v1.98c0.001,0.008,0.001,0.032-0.001,0.058l0.001,3.942c0.001,0.008,0.001,0.032-0.001,0.058L23.995,13c0,0.827-0.673,1.5-1.5,1.5
		h-5.49l-0.762,3.814C16.104,19.014,15.485,19.522,14.772,19.522z M13.995,17.884c0,0.19,0.106,0.362,0.277,0.447l0.276,0.138
		c0.04,0.02,0.082,0.034,0.126,0.043c0.033,0.007,0.066,0.01,0.098,0.01c0.238,0,0.444-0.169,0.49-0.403l0.723-3.619h-0.524
		l-1.466,1.77V17.884z M22.495,13.5c0.276,0,0.5-0.224,0.5-0.5v-0.789L21.706,13.5H22.495z M6.495,4.5c-0.276,0-0.5,0.224-0.5,0.5
		v0.797L7.292,4.5H6.495z M22.995,5.789V5c0-0.276-0.224-0.5-0.5-0.5h-0.789L22.995,5.789z"/>
	<path d="M0.495,20.5c-0.216,0-0.406-0.137-0.474-0.342c-0.042-0.127-0.033-0.263,0.027-0.382s0.163-0.208,0.289-0.25
		c3.837-1.279,7.233-3.598,9.823-6.705l0.238-0.286c0.177-0.212,0.148-0.528-0.064-0.705c-0.013-0.011-0.027-0.022-0.042-0.032
		c-0.12-0.08-0.261-0.123-0.408-0.123c-0.105,0-0.211,0.023-0.305,0.067l-5.874,2.711C3.638,14.485,3.568,14.5,3.495,14.5
		c-0.194,0-0.372-0.114-0.454-0.291c-0.115-0.251-0.006-0.548,0.245-0.664l5.874-2.711c0.224-0.103,0.474-0.158,0.724-0.158
		c0.346,0,0.679,0.1,0.964,0.29c0.044,0.029,0.086,0.061,0.126,0.094c0.636,0.53,0.722,1.478,0.193,2.114l-0.238,0.286
		c-2.708,3.25-6.261,5.675-10.275,7.013C0.602,20.491,0.549,20.5,0.495,20.5z"/>
	<path d="M14.499,12.5c-0.276,0-0.5-0.224-0.5-0.5v-0.5h-1.504c-0.276,0-0.5-0.224-0.5-0.5s0.224-0.5,0.5-0.5h3
		c0.276,0,0.5-0.224,0.5-0.5s-0.224-0.5-0.5-0.5h-2c-0.827,0-1.5-0.673-1.5-1.5s0.673-1.5,1.5-1.5h0.504V6
		c0-0.276,0.224-0.5,0.5-0.5s0.5,0.224,0.5,0.5v0.5h1.496c0.276,0,0.5,0.224,0.5,0.5s-0.224,0.5-0.5,0.5h-3
		c-0.276,0-0.5,0.224-0.5,0.5s0.224,0.5,0.5,0.5h2c0.827,0,1.5,0.673,1.5,1.5s-0.673,1.5-1.5,1.5h-0.496V12
		C14.999,12.276,14.775,12.5,14.499,12.5z"/>
</g>
</svg>
