<?xml version="1.0" encoding="utf-8"?>
<!-- Generator: Adobe Illustrator 22.1.0, SVG Export Plug-In . SVG Version: 6.00 Build 0)  -->
<svg version="1.1" id="Layer_1" xmlns="http://www.w3.org/2000/svg" xmlns:xlink="http://www.w3.org/1999/xlink" x="0px" y="0px"
	 viewBox="0 0 24 24" style="enable-background:new 0 0 24 24;" xml:space="preserve">
<g>
	<title>cash-payment-bag</title>
	<path d="M0.5,24c-0.174,0-0.332-0.088-0.424-0.235c-0.071-0.114-0.093-0.248-0.063-0.378s0.109-0.241,0.223-0.312l4-2.5
		C4.315,20.526,4.406,20.5,4.5,20.5c0.055,0,0.109,0.009,0.16,0.027c1.301,0.434,2.363,0.807,3.3,1.137
		c2.326,0.818,3.608,1.269,4.735,1.269c1.357,0,2.591-0.664,5.292-2.118c1.225-0.659,2.734-1.471,4.679-2.454
		c-0.394-0.303-0.884-0.472-1.387-0.472c-0.216,0-0.431,0.031-0.638,0.093l-4.236,1.407c-0.286,0.396-0.738,0.63-1.226,0.63
		c-0.073,0-0.146-0.005-0.22-0.016H9.5C9.224,20,9,19.776,9,19.5S9.224,19,9.5,19H15c0.03,0,0.06,0.003,0.089,0.008
		s0.06,0.008,0.089,0.008c0.177,0,0.344-0.095,0.439-0.25c0.008-0.018,0.017-0.034,0.027-0.051c0.022-0.047,0.036-0.087,0.043-0.125
		c0.024-0.135-0.006-0.272-0.085-0.385c-0.079-0.113-0.197-0.189-0.332-0.213c-0.031-0.006-0.061-0.008-0.091-0.008
		s-0.061,0.003-0.091,0.008C15.06,17.997,15.03,18,15,18h-3c-0.135,0-0.265-0.055-0.359-0.152C10.54,16.712,9.063,16.056,7.482,16
		l-2.864,0l-3.895,1.947C0.654,17.982,0.577,18,0.5,18c-0.191,0-0.362-0.106-0.447-0.276c-0.06-0.119-0.069-0.255-0.027-0.382
		s0.131-0.229,0.251-0.289l4-2C4.345,15.018,4.422,15,4.5,15h3c1.779,0.063,3.444,0.772,4.707,2h2.752
		c0.072-0.011,0.146-0.016,0.219-0.016c0.089,0,0.18,0.008,0.269,0.024c0.639,0.115,1.117,0.619,1.221,1.238l3.674-1.22
		c0.31-0.092,0.622-0.137,0.937-0.137c1.031,0,2.011,0.491,2.623,1.313c0.088,0.119,0.119,0.27,0.085,0.414
		c-0.034,0.145-0.13,0.266-0.263,0.332c-2.236,1.117-3.913,2.021-5.262,2.746c-2.777,1.495-4.171,2.245-5.751,2.245c0,0,0,0,0,0
		c-1.294,0-2.72-0.502-5.082-1.333c-0.888-0.312-1.879-0.66-3.063-1.058l-3.8,2.375C0.686,23.974,0.594,24,0.5,24z"/>
	<path d="M18,14.5c-0.133,0-0.259-0.052-0.353-0.146c-0.195-0.195-0.195-0.512-0.001-0.707c0.87-0.871,1.351-2.027,1.354-3.257
		c0-2.964-2.334-4.317-3.589-5.045l-0.232-0.136c-0.476-0.276-0.637-0.889-0.36-1.366c0-0.001,1.779-2.847,1.779-2.847L10.4,1
		l1.742,2.788c0.292,0.468,0.149,1.086-0.319,1.378c-0.021,0.013-0.043,0.026-0.065,0.037c-1.221,0.638-3.76,1.966-3.76,5.188
		c-0.004,1.012,0.309,1.977,0.904,2.794c0.079,0.108,0.111,0.24,0.09,0.372S8.9,13.804,8.792,13.883
		c-0.086,0.063-0.188,0.096-0.294,0.096c0,0,0,0,0,0c-0.159,0-0.311-0.077-0.404-0.206c-0.721-0.989-1.1-2.159-1.096-3.384
		c0-3.825,3.005-5.397,4.289-6.068c0.002-0.001,0.006-0.003,0.007-0.004L9.552,1.53C9.452,1.371,9.4,1.188,9.4,1
		c0-0.551,0.449-1,1-1h6.2c0.185,0.002,0.363,0.053,0.517,0.147c0.228,0.14,0.388,0.359,0.45,0.619
		c0.062,0.26,0.02,0.528-0.12,0.756l-1.763,2.821l0.229,0.137C17.341,5.308,20,6.85,20,10.391c-0.005,1.497-0.589,2.904-1.646,3.963
		C18.259,14.448,18.133,14.5,18,14.5z"/>
	<path d="M13.504,13c-0.276,0-0.5-0.224-0.5-0.5V12H11.5c-0.276,0-0.5-0.224-0.5-0.5s0.224-0.5,0.5-0.5h3c0.276,0,0.5-0.224,0.5-0.5
		S14.775,10,14.5,10h-2C11.673,10,11,9.327,11,8.5S11.673,7,12.5,7h0.504V6.5c0-0.276,0.224-0.5,0.5-0.5s0.5,0.224,0.5,0.5V7H15.5
		C15.775,7,16,7.224,16,7.5S15.775,8,15.5,8h-3C12.224,8,12,8.224,12,8.5S12.224,9,12.5,9h2c0.827,0,1.5,0.673,1.5,1.5
		S15.327,12,14.5,12h-0.496v0.5C14.004,12.776,13.779,13,13.504,13z"/>
</g>
</svg>
