<?xml version="1.0" encoding="utf-8"?>
<!-- Generator: Adobe Illustrator 22.1.0, SVG Export Plug-In . SVG Version: 6.00 Build 0)  -->
<svg version="1.1" id="Layer_1" xmlns="http://www.w3.org/2000/svg" xmlns:xlink="http://www.w3.org/1999/xlink" x="0px" y="0px"
	 viewBox="0 0 24 24" style="enable-background:new 0 0 24 24;" xml:space="preserve">
<g>
	<title>cash-toggle</title>
	<path d="M11.995,24c-0.268,0-0.534-0.046-0.79-0.137c-0.677-0.24-1.204-0.767-1.444-1.444l-0.45-1.265
		c-0.194-0.547-0.715-0.914-1.296-0.914c-0.156,0-0.31,0.027-0.458,0.079c-0.044,0.016-0.088,0.034-0.13,0.054L6.215,20.95
		c-0.323,0.155-0.668,0.234-1.023,0.234c-0.268,0-0.534-0.046-0.79-0.136c-0.598-0.21-1.078-0.641-1.353-1.213
		c-0.313-0.652-0.313-1.401,0-2.053l0.575-1.211c0.157-0.331,0.176-0.704,0.053-1.05c-0.123-0.346-0.373-0.624-0.704-0.781
		c-0.042-0.02-0.086-0.039-0.13-0.054l-1.266-0.45c-1.234-0.438-1.881-1.799-1.443-3.033c0.24-0.677,0.766-1.203,1.444-1.444
		l1.265-0.45C3.19,9.186,3.467,8.936,3.625,8.605c0.158-0.331,0.177-0.704,0.054-1.05c-0.016-0.044-0.034-0.088-0.054-0.13
		L3.049,6.213C2.775,5.643,2.74,4.998,2.951,4.4c0.21-0.598,0.641-1.079,1.213-1.353c0.324-0.156,0.67-0.234,1.026-0.234
		s0.702,0.079,1.026,0.234l1.212,0.575c0.187,0.089,0.385,0.134,0.589,0.134c0.156,0,0.312-0.027,0.462-0.08
		c0.346-0.123,0.623-0.373,0.781-0.705c0.02-0.042,0.038-0.085,0.053-0.129l0.45-1.265c0.212-0.598,0.644-1.077,1.217-1.35
		c0.323-0.154,0.666-0.232,1.019-0.232c0.27,0,0.538,0.046,0.796,0.138c0.677,0.24,1.203,0.766,1.444,1.444l0.45,1.265
		c0.123,0.346,0.373,0.623,0.704,0.781c0.187,0.089,0.385,0.134,0.589,0.134c0.156,0,0.311-0.027,0.461-0.08
		c0.044-0.016,0.088-0.034,0.13-0.054l1.213-0.577c0.323-0.155,0.668-0.234,1.023-0.234c0.268,0,0.534,0.046,0.79,0.136
		c0.599,0.211,1.079,0.641,1.353,1.213c0.312,0.652,0.312,1.4,0,2.052l-0.577,1.211c-0.325,0.684-0.034,1.505,0.65,1.831
		c0.043,0.02,0.087,0.038,0.131,0.054l1.264,0.45c1.234,0.438,1.882,1.798,1.444,3.032c-0.24,0.677-0.767,1.204-1.444,1.444
		l-1.265,0.45c-0.345,0.123-0.622,0.373-0.78,0.705s-0.177,0.705-0.055,1.05c0.016,0.044,0.033,0.087,0.054,0.13l0.577,1.213
		c0.565,1.18,0.065,2.6-1.115,3.166c-0.324,0.156-0.67,0.235-1.026,0.235h0c-0.356,0-0.702-0.079-1.027-0.235l-1.211-0.575
		c-0.186-0.089-0.384-0.133-0.588-0.133c-0.529,0-1.017,0.308-1.243,0.784c-0.021,0.043-0.039,0.087-0.054,0.131l-0.45,1.265
		c-0.336,0.945-1.236,1.58-2.24,1.58H11.995z M8.014,19.24c1.004,0,1.904,0.635,2.239,1.579l0.45,1.265
		c0.139,0.392,0.444,0.697,0.836,0.836C11.688,22.974,11.842,23,11.998,23c0.582,0,1.103-0.368,1.297-0.916l0.45-1.265
		c0.027-0.077,0.059-0.152,0.094-0.225c0.272-0.573,0.751-1.005,1.349-1.217c0.258-0.092,0.526-0.138,0.796-0.138
		c0.353,0,0.696,0.078,1.019,0.231l1.213,0.576c0.189,0.091,0.39,0.137,0.596,0.137c0.206,0,0.406-0.046,0.594-0.136
		c0.683-0.327,0.973-1.15,0.645-1.833l-0.578-1.213c-0.035-0.073-0.066-0.148-0.093-0.225c-0.438-1.234,0.209-2.594,1.442-3.032
		l1.265-0.45c0.392-0.139,0.697-0.444,0.836-0.836c0.253-0.714-0.122-1.502-0.836-1.755l-1.265-0.45
		c-0.077-0.027-0.152-0.058-0.225-0.093c-1.182-0.562-1.686-1.981-1.124-3.164l0.577-1.212c0.181-0.379,0.182-0.812,0.001-1.189
		c-0.159-0.331-0.437-0.58-0.783-0.702c-0.148-0.052-0.302-0.079-0.457-0.079c-0.206,0-0.405,0.046-0.593,0.136l-1.214,0.578
		c-0.073,0.035-0.148,0.066-0.226,0.093c-0.258,0.092-0.526,0.138-0.796,0.138c-0.353,0-0.696-0.078-1.018-0.232
		c-0.573-0.272-1.005-0.752-1.217-1.349l-0.45-1.265c-0.139-0.392-0.444-0.697-0.836-0.836c-0.15-0.053-0.305-0.08-0.461-0.08
		c-0.204,0-0.402,0.045-0.59,0.135c-0.332,0.158-0.582,0.435-0.705,0.781l-0.45,1.265c-0.027,0.076-0.058,0.15-0.092,0.223
		C9.89,3.974,9.411,4.406,8.813,4.619C8.555,4.71,8.287,4.757,8.016,4.757c-0.353,0-0.695-0.078-1.018-0.231L5.786,3.95
		C5.596,3.859,5.396,3.814,5.19,3.814c-0.206,0-0.406,0.046-0.594,0.136c-0.331,0.159-0.58,0.437-0.702,0.783
		c-0.122,0.346-0.102,0.719,0.057,1.05l0.578,1.213c0.035,0.073,0.066,0.148,0.093,0.225C4.833,7.817,4.8,8.461,4.527,9.034
		c-0.273,0.573-0.752,1.005-1.349,1.217l-1.265,0.45c-0.392,0.139-0.697,0.444-0.836,0.836c-0.254,0.714,0.121,1.502,0.836,1.756
		l1.265,0.45c0.077,0.027,0.152,0.058,0.225,0.093C4.586,14.399,5.09,15.818,4.528,17l-0.576,1.212
		c-0.182,0.379-0.182,0.812-0.001,1.19c0.159,0.331,0.437,0.581,0.783,0.702c0.148,0.052,0.302,0.079,0.457,0.079
		c0.205,0,0.405-0.046,0.593-0.136l1.212-0.577c0.073-0.035,0.148-0.066,0.225-0.093C7.478,19.287,7.745,19.24,8.014,19.24z"/>
	<path d="M12,16.498c-0.276,0-0.5-0.224-0.5-0.5v-0.5h-1c-0.276,0-0.5-0.224-0.5-0.5s0.224-0.5,0.5-0.5h2.031
		c0.345,0,0.651-0.207,0.78-0.528c0.084-0.208,0.081-0.437-0.007-0.644c-0.088-0.207-0.251-0.367-0.459-0.451l-2.063-0.826
		c-0.701-0.282-1.155-0.952-1.155-1.708c0-0.492,0.191-0.955,0.539-1.303c0.348-0.348,0.81-0.54,1.302-0.54H11.5v-0.5
		c0-0.276,0.224-0.5,0.5-0.5s0.5,0.224,0.5,0.5v0.5h1c0.276,0,0.5,0.224,0.5,0.5s-0.224,0.5-0.5,0.5h-2.033
		c-0.225,0-0.436,0.088-0.595,0.247c-0.159,0.159-0.246,0.371-0.246,0.596c0,0.345,0.207,0.652,0.528,0.781l2.063,0.826
		c0.457,0.184,0.815,0.534,1.008,0.987c0.193,0.452,0.198,0.953,0.014,1.409c-0.282,0.701-0.952,1.154-1.708,1.155H12.5v0.5
		C12.5,16.274,12.276,16.498,12,16.498z"/>
	<path d="M12,18.998c-3.86,0-7-3.14-7-7c0-3.86,3.14-7,7-7c3.86,0,7,3.14,7,7C19,15.858,15.86,18.998,12,18.998z M12,5.998
		c-3.308,0-6,2.692-6,6c0,3.308,2.692,6,6,6c3.308,0,6-2.692,6-6C18,8.69,15.309,5.998,12,5.998z"/>
</g>
</svg>
