<?xml version="1.0" encoding="utf-8"?>
<!-- Generator: Adobe Illustrator 22.1.0, SVG Export Plug-In . SVG Version: 6.00 Build 0)  -->
<svg version="1.1" id="Layer_1" xmlns="http://www.w3.org/2000/svg" xmlns:xlink="http://www.w3.org/1999/xlink" x="0px" y="0px"
	 viewBox="0 0 24 24" style="enable-background:new 0 0 24 24;" xml:space="preserve">
<g>
	<title>cash-pin-map</title>
	<path d="M11.999,22.025c-0.167,0-0.322-0.083-0.415-0.221c-0.289-0.429-7.085-10.547-7.085-14.447
		c0.02-1.988,0.812-3.846,2.229-5.235C8.125,0.754,9.977,0,11.942,0l0.133,0c4.052,0,7.382,3.298,7.424,7.352
		c0,3.901-6.796,14.023-7.085,14.453C12.321,21.943,12.166,22.025,11.999,22.025z M11.932,1c-1.695,0-3.295,0.652-4.504,1.837
		C6.202,4.038,5.517,5.645,5.499,7.362c0,3.065,5.024,10.993,6.5,13.255c1.475-2.261,6.498-10.188,6.5-13.259
		C18.462,3.853,15.579,1,12.073,1H11.932z"/>
	<path d="M1.886,24c-0.162,0-0.32-0.026-0.473-0.077c-0.381-0.127-0.689-0.394-0.868-0.752s-0.208-0.765-0.082-1.145l1.333-4
		C2.001,17.412,2.573,17,3.219,17h3.28c0.276,0,0.5,0.224,0.5,0.5S6.775,18,6.499,18H3.22c-0.216,0-0.406,0.137-0.475,0.342
		l-1.333,4C1.37,22.469,1.38,22.604,1.44,22.724c0.06,0.119,0.162,0.208,0.289,0.25C1.78,22.991,1.833,23,1.887,23h20.225
		c0.275,0,0.5-0.225,0.499-0.5c0-0.054-0.009-0.107-0.026-0.158l-1.333-4C21.185,18.138,20.994,18,20.779,18h-3.28
		c-0.276,0-0.5-0.224-0.5-0.5s0.224-0.5,0.5-0.5h3.279c0.647,0,1.219,0.412,1.424,1.026l1.333,4
		c0.051,0.153,0.077,0.312,0.077,0.473c0,0.4-0.156,0.776-0.439,1.06S22.512,24,22.113,24C22.112,24,1.886,24,1.886,24z"/>
	<path d="M11.499,12.001c-0.276,0-0.5-0.224-0.5-0.5V11h-0.5c-0.276,0-0.5-0.224-0.5-0.5s0.224-0.5,0.5-0.5c0,0,1.7,0,1.701,0
		c0.281,0,0.524-0.135,0.672-0.361c0.117-0.179,0.158-0.392,0.114-0.602c-0.043-0.209-0.166-0.389-0.344-0.506l-1.843-1.229
		c-0.51-0.335-0.812-0.901-0.808-1.514C9.997,4.802,10.804,4,11.791,4h0.208V3.501c0-0.276,0.224-0.5,0.5-0.5
		c0.276,0,0.5,0.224,0.5,0.5V4h0.5c0.276,0,0.5,0.224,0.5,0.5S13.775,5,13.499,5H12.52c-0.007,0.001-0.014,0.001-0.021,0.001
		s-0.014,0-0.021-0.001h-0.678c-0.214,0-0.422,0.084-0.57,0.231c-0.152,0.15-0.237,0.35-0.238,0.564
		c-0.002,0.272,0.133,0.524,0.36,0.674l1.842,1.229c0.4,0.262,0.674,0.666,0.772,1.137c0.098,0.471,0.006,0.951-0.258,1.353
		C13.374,10.696,12.812,11,12.203,11h-0.204v0.501C11.999,11.777,11.775,12.001,11.499,12.001z"/>
</g>
</svg>
