<?xml version="1.0" encoding="utf-8"?>
<!-- Generator: Adobe Illustrator 22.1.0, SVG Export Plug-In . SVG Version: 6.00 Build 0)  -->
<svg version="1.1" id="Layer_1" xmlns="http://www.w3.org/2000/svg" xmlns:xlink="http://www.w3.org/1999/xlink" x="0px" y="0px"
	 viewBox="0 0 24 24" style="enable-background:new 0 0 24 24;" xml:space="preserve">
<g>
	<title>cash-user-woman-message</title>
	<path d="M17.5,9C17.225,9,17,8.776,17,8.5V8h-1.5C15.225,8,15,7.776,15,7.5S15.225,7,15.5,7h3C18.776,7,19,6.776,19,6.5
		S18.776,6,18.5,6h-2C15.673,6,15,5.328,15,4.5S15.673,3,16.5,3H17V2.5C17,2.225,17.225,2,17.5,2S18,2.225,18,2.5V3h1.5
		C19.776,3,20,3.225,20,3.5S19.776,4,19.5,4h-3C16.225,4,16,4.225,16,4.5S16.225,5,16.5,5h2C19.327,5,20,5.673,20,6.5
		S19.327,8,18.5,8H18v0.5C18,8.776,17.776,9,17.5,9z"/>
	<path d="M5.439,11.5c-2.05,0-3.731-1.668-3.749-3.718c0,0-0.001-0.031-0.001-0.032c0-0.006,0.001-0.02,0.001-0.026
		c0-0.105,0.006-0.221,0.017-0.335l0.015-0.12c0.006-0.052,0.012-0.104,0.02-0.155C1.746,7.095,1.75,7.076,1.754,7.058
		c0.011-0.053,0.033-0.146,0.033-0.146c0.019-0.086,0.04-0.171,0.066-0.254L1.868,6.61c0.039-0.12,0.075-0.22,0.116-0.317
		C2.571,4.899,3.925,4,5.434,4C5.561,4,5.69,4.006,5.817,4.02l0.066,0.007c0.06,0.006,0.12,0.012,0.181,0.022
		C6.09,4.053,6.116,4.06,6.142,4.066c0,0,0.065,0.015,0.067,0.015c0.122,0.026,0.226,0.053,0.328,0.084l0.034,0.011
		C6.687,4.214,6.787,4.25,6.884,4.29l0.031,0.014C7.026,4.353,7.12,4.398,7.211,4.447l0.036,0.02C7.35,4.525,7.434,4.575,7.515,4.63
		l0.076,0.054c0.07,0.049,0.139,0.099,0.205,0.153C7.824,4.86,7.853,4.885,7.881,4.91l0.027,0.024
		c0.06,0.053,0.103,0.091,0.144,0.131c0.053,0.052,0.104,0.107,0.155,0.163c0,0,0.061,0.066,0.077,0.085
		c0.067,0.078,0.13,0.16,0.19,0.243l0.019,0.026C8.948,6.221,9.189,6.971,9.189,7.75C9.189,9.818,7.507,11.5,5.439,11.5z
		 M2.874,8.732C3.277,9.786,4.294,10.5,5.439,10.5c1.145,0,2.162-0.714,2.565-1.768C7.044,8.594,6.149,8.171,5.439,7.517
		C4.729,8.17,3.834,8.593,2.874,8.732z M2.81,6.947C2.788,7.017,2.77,7.089,2.755,7.161L2.742,7.219
		C2.728,7.29,2.717,7.361,2.709,7.433c0,0.002-0.004,0.026-0.004,0.028C2.694,7.57,2.689,7.66,2.689,7.75c0,0.001,0,0.002,0,0.003
		c0.913-0.124,1.767-0.582,2.372-1.28C5.156,6.363,5.294,6.3,5.439,6.3s0.283,0.063,0.378,0.173C6.421,7.17,7.271,7.628,8.182,7.752
		C8.184,7.161,7.993,6.582,7.633,6.1c0-0.001-0.026-0.035-0.027-0.035C7.57,6.017,7.531,5.971,7.491,5.926
		c-0.025-0.028-0.044-0.05-0.064-0.071C7.394,5.821,7.362,5.79,7.33,5.759C7.296,5.726,7.26,5.693,7.223,5.661
		c-0.024-0.021-0.048-0.04-0.072-0.06C7.102,5.563,7.053,5.526,7.002,5.49l-0.05-0.034c-0.06-0.04-0.122-0.078-0.185-0.113
		L6.733,5.325C6.665,5.288,6.594,5.254,6.521,5.223c-0.099-0.042-0.176-0.07-0.256-0.095C6.167,5.097,6.081,5.075,5.995,5.057
		C5.811,5.019,5.625,5,5.439,5C4.236,5,3.183,5.772,2.818,6.92L2.571,6.873L2.81,6.947z"/>
	<path d="M3.498,24.001c-0.244,0-0.451-0.176-0.491-0.418L2.577,21H0.5c-0.157,0-0.307-0.075-0.401-0.202
		c-0.094-0.126-0.123-0.291-0.078-0.442l1.599-5.325c0.328-1.44,1.491-2.597,2.957-2.933c0.292-0.067,0.592-0.101,0.889-0.101
		c0.736,0,1.458,0.209,2.089,0.605c0.893,0.56,1.514,1.434,1.749,2.461l1.672,5.286c0.048,0.152,0.02,0.319-0.074,0.447
		C10.81,20.924,10.659,21,10.5,21H8.424l-0.43,2.582C7.953,23.825,7.746,24,7.501,24c-0.028,0-0.056-0.002-0.085-0.007
		c-0.13-0.022-0.245-0.094-0.323-0.202s-0.108-0.241-0.086-0.373l0.5-3C7.547,20.176,7.755,20,8,20h1.818L8.34,15.326
		c-0.123-0.533-0.369-1-0.72-1.378l-1.684,3.005c-0.088,0.156-0.254,0.254-0.433,0.255c-0.181,0-0.347-0.096-0.436-0.25
		l-1.749-3.032c-0.36,0.382-0.616,0.856-0.731,1.361L1.172,20H3c0.246,0,0.453,0.176,0.493,0.418l0.5,3
		c0.022,0.132-0.009,0.264-0.086,0.373s-0.193,0.181-0.325,0.203C3.555,23.998,3.527,24.001,3.498,24.001z M5.494,15.697
		l1.325-2.365c-0.429-0.222-0.888-0.334-1.354-0.334c-0.222,0-0.445,0.025-0.664,0.075c-0.233,0.053-0.46,0.137-0.677,0.248
		L5.494,15.697z"/>
	<path d="M13.5,14c-0.073,0-0.143-0.015-0.209-0.046C13.115,13.873,13,13.695,13,13.5V11h-0.5c-0.827,0-1.5-0.673-1.5-1.5v-8
		C11,0.673,11.673,0,12.5,0h10C23.327,0,24,0.673,24,1.5v8c0,0.827-0.673,1.5-1.5,1.5h-5.315l-3.36,2.88
		C13.736,13.957,13.62,14,13.5,14z M12.5,1C12.225,1,12,1.225,12,1.5v8c0,0.276,0.224,0.5,0.5,0.5h1c0.276,0,0.5,0.224,0.5,0.5
		v1.913l2.675-2.293C16.765,10.043,16.881,10,17,10h5.5c0.276,0,0.5-0.224,0.5-0.5v-8C23,1.225,22.776,1,22.5,1H12.5z"/>
</g>
</svg>
