<?xml version="1.0" encoding="utf-8"?>
<!-- Generator: Adobe Illustrator 22.1.0, SVG Export Plug-In . SVG Version: 6.00 Build 0)  -->
<svg version="1.1" id="Layer_1" xmlns="http://www.w3.org/2000/svg" xmlns:xlink="http://www.w3.org/1999/xlink" x="0px" y="0px"
	 viewBox="0 0 24 24" style="enable-background:new 0 0 24 24;" xml:space="preserve">
<g>
	<title>cash-shield</title>
	<path d="M12,17.503c-0.276,0-0.5-0.224-0.5-0.5v-1.002H10c-0.276,0-0.5-0.224-0.5-0.5s0.224-0.5,0.5-0.5h2.146
		c0.518,0,0.982-0.287,1.213-0.75c0.333-0.668,0.061-1.483-0.607-1.816l-1.951-0.975c-0.802-0.401-1.3-1.208-1.301-2.104
		c0-0.629,0.244-1.22,0.689-1.665c0.356-0.357,0.815-0.587,1.31-0.661V6.003c0-0.276,0.224-0.5,0.5-0.5c0.276,0,0.5,0.224,0.5,0.5
		v0.998H14c0.276,0,0.5,0.224,0.5,0.5s-0.224,0.5-0.5,0.5h-1.969C12.02,8.002,12.01,8.003,12,8.003c-0.01,0-0.021-0.001-0.032-0.002
		l-0.114,0c-0.361,0-0.701,0.141-0.957,0.397c-0.256,0.256-0.396,0.596-0.396,0.958c0,0.516,0.287,0.98,0.748,1.211l1.95,0.975
		c1.161,0.579,1.634,1.996,1.055,3.157c-0.343,0.687-1.001,1.159-1.754,1.272v1.033C12.5,17.279,12.276,17.503,12,17.503z"/>
	<path d="M12.005,24.009c-0.441,0-0.873-0.081-1.286-0.241l-1.073-0.418c-4.881-1.9-8.155-6.697-8.146-11.935V3.778
		C1.494,2.983,1.957,2.253,2.68,1.918C5.577,0.645,8.646,0,11.806,0l0.368,0c3.171,0,6.245,0.646,9.138,1.919
		c0.727,0.337,1.192,1.066,1.188,1.86v7.635c0.012,5.238-3.26,10.036-8.141,11.94l-1.068,0.413
		C12.878,23.927,12.446,24.009,12.005,24.009z M11.8,1C8.783,1,5.853,1.616,3.091,2.83C2.731,2.997,2.497,3.368,2.5,3.773v7.641
		c-0.008,4.829,3.01,9.251,7.509,11.003l1.072,0.418c0.296,0.115,0.607,0.173,0.924,0.173c0.317,0,0.627-0.058,0.924-0.174
		l1.068-0.413c4.499-1.754,7.514-6.177,7.503-11.006V3.777C21.502,3.371,21.266,3,20.9,2.831C18.142,1.617,15.211,1,12.193,1
		l-0.189,0.001L11.8,1z"/>
</g>
</svg>
