<?xml version="1.0" encoding="utf-8"?>
<!-- Generator: Adobe Illustrator 22.1.0, SVG Export Plug-In . SVG Version: 6.00 Build 0)  -->
<svg version="1.1" id="Layer_1" xmlns="http://www.w3.org/2000/svg" xmlns:xlink="http://www.w3.org/1999/xlink" x="0px" y="0px"
	 viewBox="0 0 24 24" style="enable-background:new 0 0 24 24;" xml:space="preserve">
<g>
	<title>cash-search</title>
	<path d="M10.572,15.075c-0.276,0-0.5-0.224-0.5-0.5v-0.5h-1c-0.276,0-0.5-0.224-0.5-0.5s0.224-0.5,0.5-0.5h2.03
		c0.345,0,0.651-0.208,0.78-0.528c0.084-0.209,0.082-0.438-0.006-0.645c-0.088-0.207-0.252-0.367-0.46-0.451l-2.062-0.824
		c-0.704-0.282-1.159-0.954-1.158-1.712C8.196,8.423,8.388,7.96,8.737,7.613c0.348-0.347,0.81-0.538,1.301-0.538h0.035v-0.5
		c0-0.276,0.224-0.5,0.5-0.5s0.5,0.224,0.5,0.5v0.5h1c0.276,0,0.5,0.224,0.5,0.5s-0.224,0.5-0.5,0.5h-2.033
		c-0.226,0-0.437,0.087-0.596,0.246C9.284,8.48,9.196,8.691,9.195,8.916c0,0.347,0.207,0.654,0.529,0.783l2.063,0.825
		c0.457,0.184,0.815,0.535,1.008,0.987s0.198,0.953,0.014,1.41c-0.282,0.701-0.952,1.154-1.707,1.155h-0.031v0.5
		C11.072,14.851,10.848,15.075,10.572,15.075z"/>
	<path d="M23.5,24.002c-0.134,0-0.259-0.052-0.354-0.146l-5.59-5.589c-1.94,1.766-4.436,2.735-7.057,2.735
		c-5.79,0-10.5-4.71-10.5-10.5c0-5.79,4.71-10.5,10.5-10.5c5.79,0,10.5,4.71,10.5,10.5c0,2.621-0.97,5.118-2.736,7.058l5.59,5.589
		C23.948,23.243,24,23.368,24,23.502s-0.052,0.259-0.146,0.354S23.634,24.002,23.5,24.002z M10.5,1.002c-5.238,0-9.5,4.262-9.5,9.5
		s4.262,9.5,9.5,9.5s9.5-4.262,9.5-9.5S15.738,1.002,10.5,1.002z"/>
</g>
</svg>
