<?xml version="1.0" encoding="utf-8"?>
<!-- Generator: Adobe Illustrator 22.1.0, SVG Export Plug-In . SVG Version: 6.00 Build 0)  -->
<svg version="1.1" id="Layer_1" xmlns="http://www.w3.org/2000/svg" xmlns:xlink="http://www.w3.org/1999/xlink" x="0px" y="0px"
	 viewBox="0 0 24 24" style="enable-background:new 0 0 24 24;" xml:space="preserve">
<g>
	<title>cash-pin</title>
	<path d="M11.999,23.791c-0.19,0-0.376-0.055-0.538-0.158c-0.123-0.079-0.225-0.181-0.303-0.303C9.479,20.705,4,11.859,4,8.21
		c0-4.411,3.589-8,8-8c4.411,0,8,3.589,8,8c0,3.544-5.006,11.754-7.158,15.12c-0.145,0.225-0.368,0.381-0.629,0.438
		C12.144,23.783,12.071,23.791,11.999,23.791z M12,1.21c-3.86,0-7,3.14-7,7c0,3.376,5.358,12.014,7,14.58
		c1.642-2.567,7-11.207,7-14.58C19,4.351,15.86,1.21,12,1.21z"/>
	<path d="M11.5,12.211c-0.276,0-0.5-0.224-0.5-0.5v-0.498h-0.5c-0.276,0-0.5-0.224-0.5-0.5s0.224-0.5,0.5-0.5h0.97
		c0.01-0.001,0.021-0.002,0.03-0.002c0.01,0,0.021,0.001,0.031,0.002l0.666,0c0.28,0,0.531-0.135,0.679-0.361
		c0.117-0.179,0.158-0.392,0.114-0.602c-0.043-0.209-0.166-0.389-0.344-0.506l-1.843-1.228C10.29,7.182,9.985,6.614,9.99,5.997
		c0.004-0.481,0.194-0.931,0.537-1.269c0.338-0.333,0.791-0.517,1.275-0.517H12v-0.5c0-0.276,0.224-0.5,0.5-0.5
		c0.276,0,0.5,0.224,0.5,0.5v0.5h0.5c0.276,0,0.5,0.224,0.5,0.5s-0.224,0.5-0.5,0.5c0,0-1.7,0-1.7,0c-0.226,0-0.418,0.08-0.571,0.23
		c-0.152,0.15-0.237,0.35-0.239,0.564c-0.002,0.274,0.134,0.527,0.363,0.676l1.844,1.229c0.399,0.262,0.674,0.666,0.772,1.137
		c0.098,0.471,0.006,0.951-0.258,1.353c-0.333,0.509-0.896,0.813-1.505,0.813H12v0.498C12,11.987,11.776,12.211,11.5,12.211z"/>
</g>
</svg>
