<?xml version="1.0" encoding="utf-8"?>
<!-- Generator: Adobe Illustrator 22.1.0, SVG Export Plug-In . SVG Version: 6.00 Build 0)  -->
<svg version="1.1" id="Layer_1" xmlns="http://www.w3.org/2000/svg" xmlns:xlink="http://www.w3.org/1999/xlink" x="0px" y="0px"
	 viewBox="0 0 24 24" style="enable-background:new 0 0 24 24;" xml:space="preserve">
<g>
	<title>cash-eye</title>
	<path d="M12,19.002c-0.133,0-0.264-0.005-0.395-0.012c-5.083-0.199-9.309-4.246-10.889-5.977c-0.526-0.577-0.526-1.446,0-2.022
		C2.356,9.19,6.741,5,12,5c5.254,0,9.642,4.19,11.286,5.991c0.526,0.576,0.525,1.446,0,2.022c-4.538,4.982-8.781,5.884-10.906,5.978
		C12.379,18.991,12.03,19.002,12,19.002z M12,6.002c-3.308,0-6,2.692-6,6c0,3.179,2.485,5.81,5.657,5.99
		C11.768,17.996,11.883,18,12,18l0.212-0.003l0.115-0.004c3.18-0.17,5.673-2.802,5.673-5.991C18,8.693,15.308,6.002,12,6.002z
		 M17.353,7.5C18.402,8.751,19,10.349,19,12.002c0,1.674-0.583,3.249-1.636,4.497c1.802-0.962,3.54-2.356,5.183-4.16
		c0.176-0.192,0.176-0.482,0-0.674C21.572,10.597,19.723,8.789,17.353,7.5z M6.638,7.503c-1.802,0.963-3.54,2.358-5.183,4.162
		c-0.176,0.192-0.176,0.482,0,0.674c0.971,1.063,2.813,2.862,5.172,4.15C5.579,15.243,5,13.673,5,12.002
		C5,10.326,5.584,8.751,6.638,7.503z"/>
	<path d="M12,16.502c-0.276,0-0.5-0.224-0.5-0.5V15.5h-1c-0.276,0-0.5-0.224-0.5-0.5s0.224-0.5,0.5-0.5h2.029
		c0.348,0,0.655-0.208,0.783-0.529c0.084-0.209,0.081-0.438-0.008-0.645c-0.089-0.207-0.252-0.366-0.461-0.45l-2.063-0.825
		c-0.701-0.282-1.155-0.953-1.156-1.708c0-0.492,0.191-0.955,0.539-1.303c0.348-0.348,0.81-0.54,1.302-0.54H11.5V8.002
		c0-0.276,0.224-0.5,0.5-0.5s0.5,0.224,0.5,0.5V8.5h1C13.775,8.5,14,8.724,14,9s-0.224,0.5-0.5,0.5h-1.47
		C12.02,9.501,12.009,9.502,12,9.502c-0.01,0-0.021-0.001-0.031-0.002l-0.503,0c-0.224,0-0.436,0.088-0.595,0.247
		c-0.159,0.159-0.246,0.371-0.246,0.595c0,0.345,0.207,0.652,0.528,0.781l2.062,0.824c0.457,0.183,0.815,0.532,1.009,0.985
		c0.194,0.452,0.2,0.953,0.017,1.409c-0.281,0.703-0.952,1.158-1.71,1.158H12.5v0.502C12.5,16.278,12.275,16.502,12,16.502z"/>
</g>
</svg>
