<?xml version="1.0" encoding="utf-8"?>
<!-- Generator: Adobe Illustrator 22.1.0, SVG Export Plug-In . SVG Version: 6.00 Build 0)  -->
<svg version="1.1" id="Layer_1" xmlns="http://www.w3.org/2000/svg" xmlns:xlink="http://www.w3.org/1999/xlink" x="0px" y="0px"
	 viewBox="0 0 24 24" style="enable-background:new 0 0 24 24;" xml:space="preserve">
<g>
	<title>network-user</title>
	<path d="M11.964,24c-0.116-0.002-0.231-0.008-0.346-0.014l-0.036-0.002c-0.022,0.004-0.048,0.008-0.077,0.008
		c-0.044,0-0.08-0.009-0.104-0.016C4.956,23.571-0.049,18.205,0,11.747c0-0.074,0.001-0.151,0.002-0.228
		c0.038-1.805,0.476-3.531,1.301-5.131c0.02-0.086,0.062-0.165,0.122-0.228C3.494,2.357,7.45-0.003,11.759-0.003
		c0.085,0,0.172,0.001,0.257,0.003c0,0,0.001,0,0.001,0c0.104,0,0.217,0.008,0.329,0.016c0.06,0.004,0.118,0.008,0.176,0.011
		C12.79,0.038,13,0.257,13,0.526v22.948c0,0.269-0.211,0.489-0.48,0.5c-0.064,0.003-0.128,0.007-0.192,0.011
		C12.209,23.992,12.09,24,11.968,24C11.967,24,11.965,24,11.964,24z M11.758,22.992c0.073,0.004,0.145,0.007,0.218,0.008
		c0.008,0,0.016,0,0.024,0v-4.998H8.899C9.603,19.691,10.563,21.368,11.758,22.992z M2.872,18.002
		c1.737,2.602,4.509,4.381,7.571,4.863c-1.097-1.591-1.977-3.224-2.623-4.863H2.872z M12,17.002v-5H7.52
		c0.062,1.639,0.396,3.319,0.992,5H12z M7.456,17.002c-0.563-1.681-0.878-3.36-0.937-5H1.001c0.026,1.737,0.465,3.458,1.276,5H7.456
		z M12,11.002v-4H8.207c-0.418,1.302-0.651,2.645-0.692,4H12z M6.515,11.002c0.038-1.353,0.255-2.696,0.645-4H2.114
		c-0.621,1.253-0.985,2.597-1.083,4H6.515z M12,6.002V1c-0.08-0.001-0.156-0.002-0.23-0.002l-0.029,0.001
		c-1.391,1.539-2.458,3.22-3.174,5.004H12z M7.492,6.002c0.646-1.73,1.602-3.377,2.85-4.906C7.197,1.515,4.391,3.309,2.678,6.002
		H7.492z"/>
	<path d="M18.5,14.502c-0.276,0-0.5-0.224-0.5-0.5v-3c0-0.276,0.224-0.5,0.5-0.5s0.5,0.224,0.5,0.5v3
		C19,14.277,18.776,14.502,18.5,14.502z"/>
	<path d="M16.5,24c-0.258,0-0.477-0.201-0.498-0.458L15.54,18H14.5c-0.276,0-0.5-0.224-0.5-0.5s0.224-0.5,0.5-0.5H16
		c0.258,0,0.477,0.201,0.498,0.458L16.96,23h3.08l0.462-5.542C20.523,17.201,20.742,17,21,17h2v-3c0-2.481-2.019-4.5-4.5-4.5
		c-1.409,0-2.755,0.673-3.6,1.8c-0.094,0.125-0.243,0.2-0.4,0.2c-0.109,0-0.212-0.035-0.3-0.1c-0.107-0.08-0.176-0.197-0.195-0.329
		c-0.019-0.132,0.015-0.264,0.095-0.371c1.033-1.377,2.678-2.2,4.4-2.2c3.033,0,5.5,2.467,5.5,5.5v3.5c0,0.276-0.224,0.5-0.5,0.5
		h-2.04l-0.462,5.542C20.977,23.798,20.758,24,20.5,24H16.5z"/>
	<path d="M18.5,8.002c-2.206,0-4-1.794-4-4s1.794-4,4-4s4,1.794,4,4S20.706,8.002,18.5,8.002z M15.654,3.06
		C15.552,3.365,15.5,3.68,15.5,4.002c0,1.654,1.346,3,3,3c1.577,0,2.874-1.223,2.991-2.77C20.903,4.41,20.292,4.5,19.673,4.5
		C18.218,4.5,16.776,3.979,15.654,3.06z M19.683,3.5c0.572,0,1.148-0.099,1.71-0.293c-0.354-1.29-1.538-2.205-2.892-2.205
		c-0.927,0-1.796,0.428-2.364,1.155C17.103,3.013,18.376,3.5,19.664,3.5h0.006C19.673,3.5,19.679,3.5,19.683,3.5z"/>
</g>
</svg>
