<?xml version="1.0" encoding="utf-8"?>
<!-- Generator: Adobe Illustrator 22.1.0, SVG Export Plug-In . SVG Version: 6.00 Build 0)  -->
<svg version="1.1" id="Layer_1" xmlns="http://www.w3.org/2000/svg" xmlns:xlink="http://www.w3.org/1999/xlink" x="0px" y="0px"
	 viewBox="0 0 24 24" style="enable-background:new 0 0 24 24;" xml:space="preserve">
<g>
	<title>bomb-rocket</title>
	<path d="M5.127,23.995c-1.37,0-2.656-0.532-3.623-1.498c-1.549-1.549-1.938-3.911-0.971-5.882c0.008-0.019,0.017-0.038,0.027-0.057
		c0.244-0.483,0.562-0.925,0.944-1.306l4.042-4.039c0.006-0.008,0.013-0.016,0.02-0.023c0.007-0.007,0.015-0.014,0.024-0.021
		l0.011-0.011c1.003-1.003,2.159-1.824,3.436-2.442l3.417-1.65l0.832-2.485c0.127-0.375,0.342-0.72,0.623-0.997l3.279-3.289
		c0.191-0.192,0.446-0.297,0.716-0.297c0.271,0,0.526,0.105,0.717,0.296c0.154,0.154,0.256,0.359,0.287,0.575
		c0,0,0.509,3.56,0.509,3.561l0.021,0.135l3.691,0.521c0.217,0.031,0.421,0.133,0.575,0.287c0.395,0.396,0.395,1.038,0,1.433
		l-3.29,3.289c-0.275,0.279-0.62,0.494-0.994,0.62l-2.487,0.833l-1.65,3.417c-0.616,1.278-1.438,2.435-2.442,3.439l-4.094,4.094
		c-0.381,0.381-0.821,0.699-1.309,0.946c-0.016,0.009-0.035,0.018-0.055,0.026C6.683,23.812,5.902,23.995,5.127,23.995z
		 M1.181,17.681c-0.438,1.448-0.052,3.025,1.031,4.108c0.777,0.777,1.813,1.206,2.915,1.206c0.408,0,0.808-0.059,1.193-0.175
		L1.181,17.681z M7.293,22.378c0.276-0.169,0.527-0.367,0.75-0.589l1.529-1.529l-5.83-5.831l-1.529,1.528
		c-0.222,0.222-0.42,0.474-0.59,0.75L7.293,22.378z M10.278,19.554l1.472-1.472l-5.829-5.83l-1.473,1.472L10.278,19.554z
		 M12.449,17.366c0.785-0.848,1.435-1.802,1.935-2.837l4.385-9.081c-0.093-0.049-0.167-0.125-0.214-0.219L9.472,9.616
		c-1.035,0.5-1.988,1.151-2.836,1.936L12.449,17.366z M17.543,10.288l1.56-0.523c0.226-0.076,0.435-0.207,0.603-0.377l3.292-3.291
		l-3.204-0.472L17.543,10.288z M17.906,0.996c-0.005,0-0.007,0.001-0.009,0.004l-3.282,3.292c-0.173,0.17-0.304,0.38-0.38,0.607
		l-0.522,1.559l4.664-2.252l-0.457-3.197l-0.013-0.262L17.906,0.996z"/>
</g>
</svg>
