<?xml version="1.0" encoding="utf-8"?>
<!-- Generator: Adobe Illustrator 22.1.0, SVG Export Plug-In . SVG Version: 6.00 Build 0)  -->
<svg version="1.1" id="Layer_1" xmlns="http://www.w3.org/2000/svg" xmlns:xlink="http://www.w3.org/1999/xlink" x="0px" y="0px"
	 viewBox="0 0 24 24" style="enable-background:new 0 0 24 24;" xml:space="preserve">
<g>
	<title>bomb-fire-bottle</title>
	<path d="M6.808,23.639c-0.088,0-0.181-0.013-0.278-0.039c-1.483-0.397-6.094-5.007-6.491-6.491
		c-0.116-0.431,0.052-0.681,0.162-0.791l1.613-1.613c0.01-0.011,0.02-0.021,0.032-0.03l3.277-3.279
		c0.955-0.955,2.763-1.193,4.216-1.385c0.663-0.088,1.665-0.22,1.839-0.394c0,0,1.331-1.332,1.334-1.335l1.428-1.428
		c0.091-0.091,0.22-0.144,0.354-0.144s0.262,0.052,0.354,0.144l0.659,0.659l0.299-0.3c-1.16-1.724-0.826-4.041,0.806-5.364
		c0.656-0.547,1.489-0.85,2.344-0.85c0.589,0,1.177,0.145,1.703,0.42c0.011,0.005,0.047,0.024,0.08,0.047
		c0.164,0.11,0.277,0.279,0.316,0.476c0.04,0.197,0,0.398-0.112,0.565c-0.053,0.095-0.098,0.202-0.133,0.315
		c0.814-0.362,1.436-1.058,1.701-1.926c0.07-0.245,0.263-0.438,0.516-0.509c0.066-0.019,0.135-0.029,0.205-0.029
		c0.127,0,0.254,0.033,0.366,0.096c0.173,0.097,0.299,0.255,0.355,0.445c0.002,0.005,0.003,0.011,0.005,0.016
		c0.708,2.621-0.184,5.442-2.275,7.181c-0.717,0.581-1.616,0.9-2.535,0.9c-1.002,0-1.946-0.363-2.685-1.026l-0.249,0.25l0.772,0.772
		c0.094,0.094,0.146,0.22,0.146,0.354c0,0.134-0.052,0.259-0.146,0.354l-2.76,2.761c-0.176,0.176-0.309,1.18-0.397,1.844
		c-0.192,1.452-0.431,3.258-1.385,4.211c0,0-0.443,0.444-0.448,0.448c-0.005,0.005-0.01,0.009-0.015,0.014l-4.46,4.459
		C7.229,23.529,7.066,23.639,6.808,23.639z M1.016,16.917c0.119,0.306,0.807,1.384,2.556,3.134c1.741,1.742,2.825,2.439,3.153,2.568
		l1.167-1.167l-5.712-5.698L1.016,16.917z M8.599,20.745l2.136-2.136l-5.691-5.72l-2.157,2.158L8.599,20.745z M11.442,17.902
		l0.093-0.093c0.714-0.714,0.928-2.334,1.1-3.635c0.148-1.12,0.265-2.004,0.681-2.42l0.987-0.988l-1.436-1.425l-0.983,0.984
		c-0.414,0.414-1.297,0.531-2.415,0.678c-1.303,0.172-2.925,0.386-3.64,1.101l-0.078,0.078L11.442,17.902z M15.01,10.059
		l0.713-0.713c0,0-0.759-0.759-0.759-0.759c0,0-0.028-0.028-0.029-0.03l-0.642-0.641l-0.719,0.719L15.01,10.059z M16.966,7.261
		c0.545,0.47,1.254,0.735,1.981,0.735c0.689,0,1.363-0.239,1.898-0.672c1.582-1.316,2.362-3.359,2.099-5.371
		c-0.581,1.062-1.604,1.825-2.817,2.061c-0.031,0.006-0.064,0.009-0.096,0.009c-0.109,0-0.217-0.037-0.304-0.104
		c-0.114-0.087-0.185-0.219-0.194-0.362c-0.031-0.462,0.05-0.919,0.237-1.338c-0.328-0.141-0.682-0.216-1.036-0.216
		c-0.612,0-1.212,0.219-1.689,0.617c-1.167,0.946-1.453,2.591-0.717,3.864l1.182-1.189c0.095-0.095,0.22-0.147,0.354-0.147
		c0.133,0,0.258,0.052,0.352,0.145c0.196,0.195,0.197,0.512,0.002,0.707L16.966,7.261z"/>
</g>
</svg>
