<?xml version="1.0" encoding="utf-8"?>
<!-- Generator: Adobe Illustrator 22.1.0, SVG Export Plug-In . SVG Version: 6.00 Build 0)  -->
<svg version="1.1" id="Layer_1" xmlns="http://www.w3.org/2000/svg" xmlns:xlink="http://www.w3.org/1999/xlink" x="0px" y="0px"
	 viewBox="0 0 24 24" style="enable-background:new 0 0 24 24;" xml:space="preserve">
<g>
	<title>bomb</title>
	<path d="M11.763,23.996c-3.72,0-7.008-2.231-8.377-5.684C1.558,13.698,3.823,8.457,8.437,6.628C8.629,6.552,8.753,6.37,8.753,6.163
		V5.497c0-0.827,0.673-1.5,1.5-1.5h1v-1c0-1.654,1.346-3,3-3c1.654,0,3,1.346,3,3c0,0.827,0.673,1.5,1.5,1.5s1.5-0.673,1.5-1.5
		c0-0.276,0.224-0.5,0.5-0.5s0.5,0.224,0.5,0.5c0,1.379-1.122,2.5-2.5,2.5s-2.5-1.121-2.5-2.5c0-1.103-0.897-2-2-2s-2,0.897-2,2v1h1
		c0.827,0,1.5,0.673,1.5,1.5v0.67c0,0.192,0.105,0.362,0.275,0.447c0.014,0.004,0.027,0.009,0.041,0.014
		c2.299,0.911,4.14,2.752,5.051,5.05c1.828,4.613-0.438,9.854-5.051,11.683C14.009,23.782,12.897,23.995,11.763,23.996
		L11.763,23.996z M10.253,4.997c-0.276,0-0.5,0.224-0.5,0.5v0.666c0,0.619-0.372,1.167-0.948,1.395
		C4.704,9.183,2.69,13.842,4.316,17.943c1.217,3.069,4.14,5.052,7.447,5.052c1.007,0,1.995-0.189,2.938-0.563
		c4.101-1.625,6.115-6.284,4.489-10.385c-0.802-2.023-2.417-3.65-4.434-4.467c-0.019-0.005-0.037-0.011-0.056-0.018
		c-0.575-0.228-0.948-0.775-0.948-1.395v-0.67c0-0.276-0.224-0.5-0.5-0.5H10.253z"/>
</g>
</svg>
