<?xml version="1.0" encoding="utf-8"?>
<!-- Generator: Adobe Illustrator 22.1.0, SVG Export Plug-In . SVG Version: 6.00 Build 0)  -->
<svg version="1.1" id="Layer_1" xmlns="http://www.w3.org/2000/svg" xmlns:xlink="http://www.w3.org/1999/xlink" x="0px" y="0px"
	 viewBox="0 0 24 24" style="enable-background:new 0 0 24 24;" xml:space="preserve">
<g>
	<title>gun-silent</title>
	<path d="M10.201,23.995c-0.107,0-0.214-0.017-0.316-0.051c-0.254-0.084-0.459-0.262-0.579-0.501l-1.799-3.597
		c-0.122-0.184-0.266-0.287-0.452-0.324c-0.056-0.011-0.116-0.017-0.18-0.017c-0.534,0-1.169,0.383-1.5,0.611
		c-0.167,0.115-0.363,0.177-0.567,0.177c-0.267,0-0.517-0.104-0.706-0.291l-1.106-1.106c-0.979-0.98-0.979-2.566-0.004-3.54
		L3.345,15l-0.394-0.394c-0.094-0.095-0.146-0.22-0.146-0.354c0-0.134,0.052-0.259,0.147-0.353c0.094-0.094,0.219-0.146,0.353-0.146
		s0.259,0.052,0.354,0.146l0.394,0.394l6.011-6.01c0.094-0.094,0.22-0.146,0.354-0.146s0.259,0.052,0.354,0.146l0.353,0.353
		l0.707-0.707c-0.188-0.188-0.292-0.439-0.292-0.707c0-0.267,0.104-0.518,0.292-0.707l6.084-6.21
		c0.191-0.191,0.443-0.296,0.711-0.296c0.267,0,0.518,0.104,0.706,0.292l2.124,2.121c0.189,0.189,0.293,0.44,0.293,0.707
		c0,0.267-0.104,0.518-0.293,0.707l-6.087,6.215c-0.192,0.192-0.444,0.297-0.711,0.297s-0.518-0.104-0.707-0.293l-0.002-0.002
		l-0.704,0.704l1.062,1.061c0.094,0.094,0.146,0.22,0.146,0.354s-0.052,0.259-0.146,0.354l-1.16,1.16l0.608,1.216
		c0.482,0.964,0.294,2.124-0.469,2.886l-0.917,0.918l0.829,1.776c0.177,0.381,0.096,0.835-0.2,1.13l-2.091,2.09
		c-0.078,0.077-0.165,0.14-0.261,0.187C10.509,23.958,10.355,23.995,10.201,23.995z M6.874,18.503c0.13,0,0.258,0.012,0.38,0.037
		c0.464,0.094,0.837,0.359,1.11,0.787c0.01,0.015,0.018,0.03,0.026,0.045l1.811,3.622l2.09-2.09l-0.977-2.094
		c-0.003-0.006-0.013-0.029-0.016-0.035l-1.333-2.857c-0.089-0.19-0.049-0.417,0.1-0.565l3.181-3.182l-1.415-1.414l-7.779,7.779
		l0.755,0.755C5.329,18.931,6.111,18.503,6.874,18.503z M3.698,16.061c-0.453,0.453-0.559,1.144-0.291,1.707l7.717-7.717
		l-0.707-0.707L3.698,16.061z M11.918,17.741l0.66-0.66c0.458-0.457,0.571-1.153,0.281-1.732l-0.459-0.918l-1.382,1.382
		L11.918,17.741z M12.538,10.05l0.705-0.705l-0.706-0.708l-0.706,0.706L12.538,10.05z M14.659,9.348l6.087-6.216l-2.121-2.124
		l-6.084,6.21l0.35,0.357l1.414,1.414c0.009,0.009,0.019,0.021,0.028,0.034L14.659,9.348z"/>
</g>
</svg>
