<?xml version="1.0" encoding="utf-8"?>
<!-- Generator: Adobe Illustrator 22.1.0, SVG Export Plug-In . SVG Version: 6.00 Build 0)  -->
<svg version="1.1" id="Layer_1" xmlns="http://www.w3.org/2000/svg" xmlns:xlink="http://www.w3.org/1999/xlink" x="0px" y="0px"
	 viewBox="0 0 24 24" style="enable-background:new 0 0 24 24;" xml:space="preserve">
<g>
	<title>vectors-pen-subtract-1</title>
	<path d="M1.249,3c-0.276,0-0.5-0.224-0.5-0.5S0.973,2,1.249,2h7c0.276,0,0.5,0.224,0.5,0.5S8.524,3,8.249,3H1.249z"/>
	<path d="M4.652,22.001c-0.097,0-0.194-0.013-0.288-0.04c-0.156-0.044-0.298-0.125-0.423-0.239c-0.014-0.01-0.028-0.021-0.038-0.031
		c-0.013-0.012-0.023-0.025-0.031-0.037c-0.058-0.062-0.106-0.127-0.144-0.195c-0.138-0.247-0.171-0.532-0.094-0.804l2.752-10.321
		c0.259-0.908,0.948-1.606,1.846-1.873l5.981-2.512l3.163-3.163c0.283-0.283,0.66-0.439,1.061-0.439
		c0.401,0,0.778,0.156,1.061,0.439l3.312,3.312c0.585,0.585,0.585,1.536,0,2.121l-3.159,3.159l-2.515,5.991
		c-0.267,0.897-0.963,1.586-1.865,1.844L4.932,21.963C4.843,21.988,4.748,22.001,4.652,22.001z M11.763,13.331
		c0.134,0,0.259,0.052,0.354,0.146s0.146,0.22,0.146,0.354s-0.052,0.259-0.146,0.354l-6.583,6.583l9.471-2.521
		c0.571-0.163,1.012-0.606,1.177-1.184c0.007-0.023,0.013-0.041,0.021-0.059l2.43-5.788l-4.251-4.256l-5.79,2.432
		C8.574,9.4,8.555,9.407,8.535,9.412c-0.577,0.165-1.021,0.608-1.186,1.186L4.827,20.06l6.582-6.582
		C11.504,13.383,11.629,13.331,11.763,13.331z M19.224,10.388l2.878-2.878c0.195-0.195,0.195-0.512,0-0.707L18.79,3.491
		c-0.094-0.094-0.22-0.146-0.354-0.146s-0.26,0.052-0.354,0.146l-2.877,2.877L19.224,10.388z"/>
</g>
</svg>
