<?xml version="1.0" encoding="utf-8"?>
<!-- Generator: Adobe Illustrator 22.1.0, SVG Export Plug-In . SVG Version: 6.00 Build 0)  -->
<svg version="1.1" id="Layer_1" xmlns="http://www.w3.org/2000/svg" xmlns:xlink="http://www.w3.org/1999/xlink" x="0px" y="0px"
	 viewBox="0 0 24 24" style="enable-background:new 0 0 24 24;" xml:space="preserve">
<g>
	<title>vectors-pen-draw</title>
	<path d="M10.65,22.051c-0.092,0-0.184-0.013-0.274-0.038c-0.141-0.04-0.269-0.112-0.384-0.213
		c-0.014-0.009-0.033-0.022-0.053-0.042c-0.012-0.012-0.028-0.033-0.04-0.051c-0.223-0.245-0.306-0.598-0.211-0.931l2.276-7.966
		c0.238-0.836,0.88-1.478,1.716-1.717l3.754-1.072l2.031-2.031c0.094-0.094,0.22-0.146,0.354-0.146s0.259,0.052,0.354,0.146
		s0.146,0.22,0.146,0.354s-0.052,0.259-0.146,0.354l-1.766,1.766l2.827,2.83L23,11.526c0.095-0.094,0.22-0.146,0.354-0.146
		c0.134,0,0.259,0.052,0.354,0.146c0.195,0.195,0.195,0.512,0,0.707l-2.03,2.029l-1.07,3.757c-0.239,0.836-0.881,1.478-1.716,1.717
		l-7.966,2.276C10.834,22.038,10.741,22.051,10.65,22.051z M16.282,14.914c0.134,0,0.259,0.052,0.354,0.146s0.146,0.22,0.146,0.354
		s-0.052,0.259-0.146,0.354l-5,5.001l6.98-1.994c0.501-0.144,0.886-0.529,1.029-1.03l1.025-3.598l-3.118-3.119l-3.597,1.028
		c-0.501,0.144-0.886,0.529-1.029,1.03l-1.992,6.972l4.995-4.995C16.023,14.966,16.148,14.914,16.282,14.914z"/>
	<path d="M5.856,24.005c-0.078,0-0.156-0.002-0.234-0.006c-0.001,0-0.001,0-0.002,0c-1.018,0-2.886-0.224-3.872-1.719
		c-0.94-1.426-0.793-3.605,0.438-6.477c0.183-0.427,0.366-0.848,0.546-1.263C4.488,10.497,5.998,7.02,4.911,4.456
		C4.293,2.998,2.84,1.857,0.47,0.969C0.212,0.872,0.081,0.583,0.177,0.325C0.25,0.131,0.439,0,0.646,0
		c0.059,0,0.118,0.01,0.174,0.031c2.641,0.99,4.28,2.31,5.011,4.034c1.255,2.959-0.335,6.619-2.175,10.856
		c-0.182,0.419-0.367,0.844-0.552,1.275c-1.09,2.543-1.266,4.405-0.522,5.533C3.312,22.835,4.815,23,5.646,23
		c0.075,0.003,0.139,0.005,0.202,0.005c0.905,0,1.786-0.316,2.479-0.89C8.416,22.041,8.529,22,8.645,22
		c0.149,0,0.29,0.066,0.385,0.18c0.086,0.104,0.126,0.233,0.113,0.366s-0.076,0.253-0.179,0.338
		C8.091,23.608,6.988,24.005,5.856,24.005z"/>
</g>
</svg>
