<?xml version="1.0" encoding="utf-8"?>
<!-- Generator: Adobe Illustrator 22.1.0, SVG Export Plug-In . SVG Version: 6.00 Build 0)  -->
<svg version="1.1" id="Layer_1" xmlns="http://www.w3.org/2000/svg" xmlns:xlink="http://www.w3.org/1999/xlink" x="0px" y="0px"
	 viewBox="0 0 24 24" style="enable-background:new 0 0 24 24;" xml:space="preserve">
<g>
	<title>vectors-square-link-broken</title>
	<path d="M1,22c-0.551,0-1-0.448-1-1v-3c0-0.552,0.449-1,1-1h1V5H1C0.449,5,0,4.551,0,4V1c0-0.551,0.449-1,1-1h3
		c0.551,0,1,0.449,1,1v1h12V1c0-0.551,0.448-1,1-1h3c0.552,0,1,0.449,1,1v3c0,0.551-0.448,1-1,1h-1v4.5c0,0.276-0.224,0.5-0.5,0.5
		S19,9.776,19,9.5V5h-1c-0.552,0-1-0.449-1-1V3H5v1c0,0.551-0.449,1-1,1H3v12h1c0.551,0,1,0.448,1,1v1h5c0.276,0,0.5,0.224,0.5,0.5
		S10.276,20,10,20H5v1c0,0.552-0.449,1-1,1H1z M1,21h3v-3H1L1,21z M18,4h3V1h-3L18,4z M1,4h3V1H1L1,4z"/>
	<path d="M20.25,18.629c-0.134,0-0.259-0.052-0.354-0.146c-0.195-0.195-0.195-0.512,0-0.707l2.121-2.122
		c0.584-0.585,0.584-1.536,0-2.121l-0.707-0.707c-0.283-0.282-0.659-0.438-1.061-0.438c-0.401,0-0.778,0.156-1.061,0.438
		l-2.122,2.121c-0.094,0.094-0.22,0.146-0.354,0.146s-0.259-0.052-0.354-0.146s-0.146-0.22-0.146-0.354s0.052-0.259,0.146-0.354
		l2.122-2.121c0.472-0.471,1.099-0.731,1.768-0.731s1.296,0.26,1.768,0.731l0.707,0.707c0.974,0.975,0.974,2.561,0,3.535
		l-2.121,2.122C20.509,18.577,20.384,18.629,20.25,18.629z"/>
	<path d="M14.593,23.456c-0.668,0-1.296-0.26-1.768-0.731l-0.707-0.707c-0.974-0.975-0.974-2.561,0-3.535l2.12-2.121
		c0.094-0.094,0.22-0.146,0.354-0.146s0.259,0.052,0.354,0.146s0.146,0.22,0.146,0.354s-0.052,0.259-0.146,0.354l-2.12,2.121
		c-0.585,0.585-0.585,1.536,0,2.121l0.707,0.707c0.283,0.283,0.659,0.438,1.061,0.438c0.401,0,0.778-0.156,1.061-0.438l2.122-2.121
		c0.094-0.094,0.22-0.146,0.354-0.146s0.259,0.052,0.354,0.146s0.146,0.22,0.146,0.354s-0.052,0.259-0.146,0.354l-2.122,2.121
		C15.889,23.196,15.261,23.456,14.593,23.456z"/>
	<path d="M21.311,21.811c-0.134,0-0.259-0.052-0.354-0.146l-1.061-1.061c-0.094-0.094-0.146-0.22-0.146-0.354
		s0.052-0.259,0.146-0.354s0.22-0.146,0.354-0.146s0.259,0.052,0.354,0.146l1.061,1.061c0.094,0.094,0.146,0.22,0.146,0.354
		s-0.052,0.259-0.146,0.354S21.445,21.811,21.311,21.811z"/>
	<path d="M22,19c-0.276,0-0.5-0.224-0.5-0.5S21.724,18,22,18h1.5c0.276,0,0.5,0.224,0.5,0.5S23.776,19,23.5,19H22z"/>
	<path d="M18.5,24c-0.276,0-0.5-0.224-0.5-0.5V22c0-0.276,0.224-0.5,0.5-0.5S19,21.724,19,22v1.5C19,23.776,18.776,24,18.5,24z"/>
	<path d="M14.593,15.093c-0.134,0-0.259-0.052-0.354-0.146l-1.061-1.061c-0.094-0.094-0.146-0.22-0.146-0.354
		s0.052-0.259,0.146-0.354s0.22-0.146,0.354-0.146s0.259,0.052,0.354,0.146l1.061,1.061c0.094,0.094,0.146,0.22,0.146,0.354
		s-0.052,0.259-0.146,0.354S14.727,15.093,14.593,15.093z"/>
	<path d="M16.5,13.343c-0.276,0-0.5-0.224-0.5-0.5v-1.5c0-0.276,0.224-0.5,0.5-0.5s0.5,0.224,0.5,0.5v1.5
		C17,13.119,16.776,13.343,16.5,13.343z"/>
	<path d="M11.343,17c-0.276,0-0.5-0.224-0.5-0.5s0.224-0.5,0.5-0.5h1.5c0.276,0,0.5,0.224,0.5,0.5s-0.224,0.5-0.5,0.5H11.343z"/>
</g>
</svg>
