<?xml version="1.0" encoding="utf-8"?>
<!-- Generator: Adobe Illustrator 22.1.0, SVG Export Plug-In . SVG Version: 6.00 Build 0)  -->
<svg version="1.1" id="Layer_1" xmlns="http://www.w3.org/2000/svg" xmlns:xlink="http://www.w3.org/1999/xlink" x="0px" y="0px"
	 viewBox="0 0 24 24" style="enable-background:new 0 0 24 24;" xml:space="preserve">
<g>
	<title>vectors-pen-subtract</title>
	<path d="M4.993,22c-0.132,0-0.261-0.053-0.354-0.147l-4.243-4.243c-0.103-0.103-0.156-0.244-0.145-0.389
		c0.01-0.145,0.083-0.278,0.199-0.365l5.057-3.792c-0.043-0.252-0.064-0.506-0.064-0.758c0-1.202,0.468-2.332,1.318-3.182
		c1.25-1.243,5.917-2.636,7.865-3.177c0.118-0.033,0.241-0.05,0.364-0.05s0.246,0.017,0.365,0.05c0.202,0.056,0.387,0.16,0.55,0.31
		c0.014,0.009,0.031,0.022,0.049,0.039c0.011,0.012,0.026,0.03,0.037,0.047c0.318,0.336,0.44,0.82,0.312,1.28
		c-0.674,2.424-1.982,6.67-3.177,7.865c-0.85,0.85-1.98,1.318-3.182,1.318c-0.251,0-0.505-0.022-0.758-0.064L5.393,21.8
		c-0.087,0.116-0.22,0.188-0.365,0.199C5.023,21.999,4.999,22,4.993,22z M4.939,20.739l3.225-4.3
		c-0.526-0.225-0.997-0.543-1.403-0.949c-0.406-0.406-0.725-0.877-0.949-1.403l-4.3,3.225L4.939,20.739z M14.529,7.014
		c-3.605,1.022-6.358,2.119-7.062,2.82c-0.66,0.66-1.024,1.539-1.024,2.474c0,0.935,0.364,1.814,1.025,2.475s1.54,1.025,2.475,1.025
		c0.935,0,1.814-0.364,2.475-1.025c0.841-0.841,1.987-4.132,2.819-7.062l-3.703,3.702c-0.094,0.094-0.22,0.146-0.354,0.146
		s-0.259-0.052-0.354-0.146c-0.195-0.195-0.195-0.512,0-0.707L14.529,7.014z"/>
	<path d="M10.65,12.35c-0.2,0-0.388-0.077-0.529-0.218C9.978,11.99,9.9,11.802,9.9,11.602c0-0.2,0.077-0.388,0.218-0.53
		c0.002-0.002,0.004-0.004,0.005-0.005c0.14-0.139,0.327-0.216,0.526-0.217c0.201,0,0.389,0.078,0.531,0.219
		c0.142,0.141,0.22,0.329,0.22,0.53c0,0.201-0.077,0.389-0.219,0.531C11.04,12.272,10.851,12.35,10.65,12.35z"/>
	<path d="M16.25,3c-0.276,0-0.5-0.224-0.5-0.5S15.974,2,16.25,2h7c0.276,0,0.5,0.224,0.5,0.5S23.526,3,23.25,3H16.25z"/>
</g>
</svg>
