<?xml version="1.0" encoding="utf-8"?>
<!-- Generator: Adobe Illustrator 22.1.0, SVG Export Plug-In . SVG Version: 6.00 Build 0)  -->
<svg version="1.1" id="Layer_1" xmlns="http://www.w3.org/2000/svg" xmlns:xlink="http://www.w3.org/1999/xlink" x="0px" y="0px"
	 viewBox="0 0 24 24" style="enable-background:new 0 0 24 24;" xml:space="preserve">
<g>
	<title>vectors-pen-flat</title>
	<path d="M21,23.979c-0.176,0-0.342-0.094-0.431-0.246c-1.505-2.561-4.133-4.331-7.069-4.779v0.054c0,0.276-0.224,0.5-0.5,0.5h-2
		c-0.276,0-0.5-0.224-0.5-0.5v-0.054c-2.937,0.448-5.564,2.218-7.069,4.779C3.341,23.884,3.176,23.979,3,23.979
		c-0.089,0-0.177-0.024-0.253-0.069c-0.237-0.14-0.317-0.447-0.178-0.684c1.292-2.198,3.298-3.854,5.661-4.718H4.434
		c-0.225,0.869-1.021,1.5-1.934,1.5c-1.103,0-2-0.897-2-2s0.897-2,2-2c0.913,0,1.709,0.631,1.934,1.5H10.5v-0.5
		c0-0.276,0.224-0.5,0.5-0.5h2c0.276,0,0.5,0.224,0.5,0.5v0.5h6.066c0.225-0.869,1.021-1.5,1.934-1.5c1.103,0,2,0.897,2,2
		s-0.897,2-2,2c-0.913,0-1.709-0.631-1.934-1.5H15.77c2.363,0.864,4.369,2.519,5.661,4.718c0.139,0.238,0.06,0.545-0.177,0.684
		C21.177,23.955,21.089,23.979,21,23.979z M21.5,17.008c-0.552,0-1,0.448-1,1s0.448,1,1,1s1-0.448,1-1S22.052,17.008,21.5,17.008z
		 M2.5,17.008c-0.551,0-1,0.448-1,1s0.449,1,1,1s1-0.448,1-1S3.051,17.008,2.5,17.008z M12.5,18.508v-1h-1v1H12.5z"/>
	<path d="M12.002,16.008c-0.492,0-0.947-0.265-1.188-0.692C9.577,13.127,7.5,9.202,7.5,7.508c0-1.508,0.745-2.894,2-3.735V1.932
		C8.901,1.746,8.447,1.234,8.343,0.603C8.321,0.471,8.352,0.338,8.429,0.23c0.078-0.109,0.193-0.181,0.325-0.202
		C8.782,0.023,8.81,0.021,8.837,0.021c0.245,0,0.452,0.176,0.492,0.418C9.384,0.768,9.666,1.008,10,1.008h4
		c0.334,0,0.616-0.239,0.671-0.569c0.04-0.242,0.247-0.418,0.492-0.418c0.027,0,0.055,0.002,0.083,0.007
		c0.132,0.022,0.247,0.094,0.325,0.202s0.108,0.241,0.086,0.373c-0.105,0.631-0.559,1.143-1.157,1.329v1.841
		c1.255,0.841,2,2.227,2,3.735c0,1.682-2.077,5.614-3.314,7.808c-0.122,0.217-0.301,0.395-0.517,0.517
		C12.465,15.947,12.235,16.008,12.002,16.008z M12,4.008c-1.93,0-3.5,1.57-3.5,3.5c0,0.99,1.171,3.711,3,6.986V9.008
		c0-0.276,0.224-0.5,0.5-0.5c0.276,0,0.5,0.224,0.5,0.5v5.485c1.484-2.664,3-5.803,3-6.985C15.5,5.578,13.93,4.008,12,4.008z
		 M12,3.008c0.513,0,1.017,0.088,1.5,0.26v-1.26h-3v1.26C10.984,3.095,11.486,3.008,12,3.008z"/>
</g>
</svg>
