<?xml version="1.0" encoding="utf-8"?>
<!-- Generator: Adobe Illustrator 22.1.0, SVG Export Plug-In . SVG Version: 6.00 Build 0)  -->
<svg version="1.1" id="Layer_1" xmlns="http://www.w3.org/2000/svg" xmlns:xlink="http://www.w3.org/1999/xlink" x="0px" y="0px"
	 viewBox="0 0 24 24" style="enable-background:new 0 0 24 24;" xml:space="preserve">
<g>
	<title>vectors-square-link</title>
	<path d="M15.134,23.997c-0.668,0-1.296-0.26-1.768-0.731l-0.707-0.707c-0.974-0.975-0.974-2.561,0-3.535l3.03-3.031
		c0.418-0.417,0.974-0.647,1.566-0.647c0.592,0,1.148,0.229,1.565,0.646l0.556,0.556c0.094,0.094,0.146,0.22,0.146,0.354
		s-0.052,0.259-0.146,0.354s-0.22,0.146-0.354,0.146s-0.259-0.052-0.354-0.146L18.113,16.7c-0.229-0.228-0.533-0.354-0.858-0.354
		c-0.325,0-0.63,0.126-0.859,0.355l-3.03,3.031c-0.584,0.585-0.584,1.536,0,2.121l0.707,0.707c0.282,0.282,0.659,0.438,1.06,0.438
		s0.778-0.156,1.061-0.438l1.061-1.06c0.094-0.094,0.22-0.146,0.354-0.146s0.259,0.052,0.354,0.146s0.146,0.22,0.146,0.354
		c0,0.134-0.052,0.259-0.147,0.353l-1.061,1.06C16.43,23.737,15.802,23.997,15.134,23.997z"/>
	<path d="M18.669,20.58c-0.592,0-1.148-0.229-1.566-0.646l-0.556-0.556c-0.194-0.196-0.194-0.513,0-0.707
		c0.095-0.094,0.22-0.146,0.354-0.146s0.259,0.052,0.354,0.146l0.555,0.556c0.228,0.228,0.533,0.354,0.858,0.354
		c0.325,0,0.631-0.126,0.86-0.354l3.029-3.031c0.584-0.585,0.584-1.536,0-2.121l-0.707-0.707c-0.283-0.283-0.659-0.438-1.061-0.438
		s-0.778,0.156-1.061,0.438l-1.061,1.06c-0.094,0.094-0.22,0.146-0.354,0.146s-0.259-0.052-0.354-0.146s-0.146-0.22-0.146-0.354
		c0-0.134,0.052-0.259,0.147-0.353l1.061-1.06c0.471-0.471,1.099-0.731,1.767-0.731c0.668,0,1.296,0.26,1.768,0.731l0.707,0.707
		c0.974,0.975,0.974,2.56,0,3.535l-3.03,3.031C19.818,20.35,19.261,20.58,18.669,20.58z"/>
	<path d="M0.998,21.998c-0.551,0-1-0.448-1-1v-3c0-0.552,0.449-1,1-1h1v-12h-1c-0.551,0-1-0.449-1-1v-3c0-0.551,0.449-1,1-1h3
		c0.551,0,1,0.449,1,1v1h12v-1c0-0.551,0.448-1,1-1h3c0.552,0,1,0.449,1,1v3c0,0.551-0.448,1-1,1h-1v5.5c0,0.276-0.224,0.5-0.5,0.5
		s-0.5-0.224-0.5-0.5v-5.5h-1c-0.552,0-1-0.449-1-1v-1h-12v1c0,0.551-0.449,1-1,1h-1v12h1c0.551,0,1,0.448,1,1v1h5.5
		c0.276,0,0.5,0.224,0.5,0.5s-0.224,0.5-0.5,0.5h-5.5v1c0,0.552-0.449,1-1,1H0.998z M0.998,20.998h3v-3h-3L0.998,20.998z
		 M17.998,3.998h3v-3h-3L17.998,3.998z M0.998,3.998h3v-3h-3L0.998,3.998z"/>
</g>
</svg>
