<?xml version="1.0" encoding="utf-8"?>
<!-- Generator: Adobe Illustrator 22.1.0, SVG Export Plug-In . SVG Version: 6.00 Build 0)  -->
<svg version="1.1" id="Layer_1" xmlns="http://www.w3.org/2000/svg" xmlns:xlink="http://www.w3.org/1999/xlink" x="0px" y="0px"
	 viewBox="0 0 24 24" style="enable-background:new 0 0 24 24;" xml:space="preserve">
<g>
	<title>vectors-pen-add-1</title>
	<path d="M4.75,8.25c-0.276,0-0.5-0.224-0.5-0.5v-3h-3c-0.276,0-0.5-0.224-0.5-0.5s0.224-0.5,0.5-0.5h3v-3
		c0-0.276,0.224-0.5,0.5-0.5s0.5,0.224,0.5,0.5v3h3c0.276,0,0.5,0.224,0.5,0.5s-0.224,0.5-0.5,0.5h-3v3
		C5.25,8.026,5.026,8.25,4.75,8.25z"/>
	<path d="M4.654,23.751c-0.097,0-0.194-0.013-0.288-0.04c-0.155-0.044-0.297-0.124-0.421-0.238
		c-0.016-0.011-0.031-0.024-0.042-0.034c-0.013-0.013-0.023-0.026-0.031-0.038c-0.246-0.268-0.337-0.641-0.236-0.996l2.752-10.322
		c0.259-0.908,0.948-1.606,1.846-1.873l5.981-2.512l3.163-3.163c0.283-0.283,0.659-0.439,1.061-0.439s0.778,0.156,1.061,0.439
		l3.312,3.312c0.283,0.283,0.439,0.66,0.439,1.061c0,0.401-0.156,0.777-0.439,1.061l-3.161,3.161l-2.512,5.988
		c-0.267,0.897-0.963,1.586-1.865,1.844L4.934,23.713C4.845,23.738,4.75,23.751,4.654,23.751z M11.764,15.081
		c0.134,0,0.259,0.052,0.354,0.146c0.195,0.195,0.195,0.512,0,0.707l-6.583,6.583l9.471-2.521c0.571-0.163,1.012-0.606,1.177-1.184
		c0.007-0.023,0.013-0.042,0.021-0.059l2.429-5.79l-4.253-4.253l-5.787,2.431c-0.018,0.008-0.037,0.015-0.057,0.02
		c-0.577,0.165-1.021,0.608-1.186,1.186L4.828,21.81l6.582-6.582C11.505,15.133,11.631,15.081,11.764,15.081L11.764,15.081z
		 M19.225,12.139l2.878-2.878c0.094-0.095,0.146-0.22,0.146-0.354s-0.052-0.259-0.146-0.354l-3.312-3.312
		c-0.094-0.094-0.22-0.146-0.354-0.146s-0.26,0.052-0.354,0.146l-2.877,2.877L19.225,12.139z"/>
</g>
</svg>
