<?xml version="1.0" encoding="utf-8"?>
<!-- Generator: Adobe Illustrator 22.1.0, SVG Export Plug-In . SVG Version: 6.00 Build 0)  -->
<svg version="1.1" id="Layer_1" xmlns="http://www.w3.org/2000/svg" xmlns:xlink="http://www.w3.org/1999/xlink" x="0px" y="0px"
	 viewBox="0 0 24 24" style="enable-background:new 0 0 24 24;" xml:space="preserve">
<g>
	<title>vectors-add-anchor</title>
	<path d="M12.5,23.294c-0.267,0-0.518-0.104-0.707-0.293l-1.793-1.793c-0.39-0.39-0.39-1.024,0-1.414l0.543-0.543L5.25,13.958
		l-0.543,0.543C4.518,14.689,4.267,14.793,4,14.793c-0.267,0-0.519-0.104-0.707-0.292L1.5,12.708
		C1.311,12.519,1.207,12.268,1.207,12c0-0.267,0.104-0.518,0.293-0.707L3.293,9.5C3.481,9.312,3.732,9.208,4,9.208
		S4.518,9.312,4.707,9.5l0.543,0.543l5.293-5.293l-0.542-0.542C9.812,4.02,9.708,3.769,9.707,3.502c0-0.267,0.103-0.519,0.292-0.708
		l1.793-1.793c0.188-0.189,0.44-0.293,0.707-0.293c0.264,0,0.513,0.101,0.701,0.286l2.153,2.153c0.195,0.195,0.195,0.512,0,0.707
		L13.208,6c-0.189,0.189-0.44,0.293-0.708,0.293c-0.267,0-0.518-0.104-0.706-0.292L11.25,5.458L5.957,10.75L6.5,11.293
		c0.062,0.062,0.114,0.131,0.157,0.207h10.685c0.043-0.076,0.096-0.146,0.157-0.207L19.293,9.5c0.189-0.189,0.44-0.292,0.707-0.292
		s0.518,0.104,0.707,0.292l1.793,1.793c0.189,0.189,0.293,0.44,0.293,0.707s-0.104,0.518-0.293,0.707l-1.793,1.793
		c-0.189,0.189-0.44,0.292-0.707,0.292s-0.518-0.104-0.707-0.292L17.5,12.708c-0.062-0.062-0.114-0.131-0.157-0.207H6.658
		c-0.043,0.076-0.096,0.145-0.157,0.207l-0.543,0.543l5.293,5.292L11.793,18c0.182-0.182,0.439-0.286,0.707-0.286
		s0.526,0.104,0.707,0.286L15,19.793c0.39,0.39,0.39,1.024,0,1.414l-1.793,1.793C13.018,23.19,12.767,23.294,12.5,23.294z
		 M10.706,20.5l1.793,1.793l1.793-1.793L12.5,18.707l0,0.002c-0.002,0-0.003,0-0.003,0c0,0-0.88,0.881-0.88,0.882
		c-0.009,0.01-0.019,0.02-0.03,0.029L10.706,20.5z M18.207,12.001L20,13.794l1.793-1.793l-1.793-1.793L18.207,12.001z M2.207,12
		L4,13.794L5.793,12L4,10.207L2.207,12z M10.708,3.5c0,0,1.792,1.793,1.792,1.793l1.793-1.793L12.5,1.708
		C12.5,1.708,10.708,3.5,10.708,3.5z"/>
</g>
</svg>
