<?xml version="1.0" encoding="utf-8"?>
<!-- Generator: Adobe Illustrator 22.1.0, SVG Export Plug-In . SVG Version: 6.00 Build 0)  -->
<svg version="1.1" id="Layer_1" xmlns="http://www.w3.org/2000/svg" xmlns:xlink="http://www.w3.org/1999/xlink" x="0px" y="0px"
	 viewBox="0 0 24 24" style="enable-background:new 0 0 24 24;" xml:space="preserve">
<g>
	<title>road-sign-no-bicycle</title>
	<path d="M12,24c-3.177,0-6.172-1.234-8.436-3.475c-0.01-0.006-0.029-0.02-0.049-0.04c-0.011-0.011-0.026-0.03-0.037-0.047
		C1.235,18.174,0,15.178,0,12C0,5.383,5.383,0,12,0c3.178,0,6.173,1.234,8.437,3.476c0.009,0.005,0.029,0.019,0.048,0.039
		c0.011,0.011,0.026,0.03,0.038,0.047C22.766,5.826,24,8.822,24,12C24,18.617,18.617,24,12,24z M4.589,20.118
		C6.624,21.979,9.246,23,12,23c6.065,0,11-4.935,11-11c0-2.754-1.021-5.376-2.882-7.411L4.589,20.118z M12,1C5.935,1,1,5.935,1,12
		c0,2.754,1.021,5.376,2.882,7.411L19.411,3.882C17.376,2.021,14.754,1,12,1z"/>
	<path d="M5.55,16.006c-0.236,0-0.441-0.167-0.489-0.398c-0.337-1.619,0.707-3.211,2.326-3.548c0.202-0.042,0.408-0.063,0.611-0.063
		c0.209,0,0.42,0.022,0.626,0.067c0.13,0.028,0.242,0.105,0.315,0.217c0.073,0.112,0.097,0.246,0.069,0.376
		c-0.049,0.229-0.254,0.396-0.488,0.396c-0.036,0-0.072-0.004-0.107-0.012c-0.136-0.029-0.276-0.044-0.415-0.044
		c-0.136,0-0.273,0.014-0.408,0.042c-1.08,0.225-1.776,1.286-1.551,2.366c0.056,0.269-0.118,0.535-0.387,0.591
		C5.616,16.003,5.583,16.006,5.55,16.006z"/>
	<path d="M9.011,17.787c-0.198,0-0.377-0.117-0.457-0.297c-0.112-0.252,0.003-0.548,0.255-0.66c0.322-0.143,0.601-0.368,0.808-0.652
		c0.094-0.129,0.245-0.206,0.404-0.206c0.106,0,0.208,0.033,0.294,0.095c0.223,0.162,0.272,0.476,0.11,0.699
		c-0.31,0.426-0.729,0.764-1.212,0.978C9.15,17.773,9.082,17.787,9.011,17.787z"/>
	<path d="M17,18c-1.654,0-3-1.346-3-3c0-1.006,0.509-1.943,1.342-2.498l-0.367-0.826c-0.112-0.252,0.002-0.548,0.254-0.66
		c0.064-0.029,0.132-0.043,0.203-0.043c0.197,0,0.376,0.116,0.457,0.297l0.367,0.826C16.501,12.032,16.75,12,17,12
		c1.654,0,3,1.346,3,3S18.654,18,17,18z M15.758,13.437C15.285,13.814,15,14.391,15,15c0,1.103,0.897,2,2,2s2-0.897,2-2
		s-0.897-2-2-2c-0.111,0-0.221,0.009-0.33,0.028l0.787,1.769c0.112,0.252-0.002,0.548-0.254,0.66C17.139,15.486,17.071,15.5,17,15.5
		c-0.198,0-0.377-0.116-0.457-0.297L15.758,13.437z"/>
	<path d="M10.5,12c-0.222,0-0.42-0.149-0.481-0.363L9.409,9.5H8.5C8.224,9.5,8,9.276,8,9s0.224-0.5,0.5-0.5H11
		c0.276,0,0.5,0.224,0.5,0.5S11.276,9.5,11,9.5h-0.551l0.532,1.863c0.037,0.128,0.021,0.263-0.044,0.38s-0.171,0.201-0.3,0.238
		C10.593,11.994,10.546,12,10.5,12z"/>
	<path d="M13.885,8.492c-0.197,0-0.377-0.116-0.457-0.297l-0.218-0.49c-0.059-0.134-0.057-0.286,0.005-0.417
		c0.062-0.132,0.178-0.23,0.32-0.268l0.832-0.228c0.043-0.012,0.088-0.018,0.132-0.018c0.225,0,0.423,0.151,0.482,0.368
		c0.073,0.266-0.084,0.542-0.35,0.615l-0.273,0.075c0.082,0.242-0.033,0.512-0.27,0.618C14.024,8.477,13.956,8.492,13.885,8.492z"/>
</g>
</svg>
