<?xml version="1.0" encoding="utf-8"?>
<!-- Generator: Adobe Illustrator 22.1.0, SVG Export Plug-In . SVG Version: 6.00 Build 0)  -->
<svg version="1.1" id="Layer_1" xmlns="http://www.w3.org/2000/svg" xmlns:xlink="http://www.w3.org/1999/xlink" x="0px" y="0px"
	 viewBox="0 0 24 24" style="enable-background:new 0 0 24 24;" xml:space="preserve">
<g>
	<title>road-sign-no-parking-allowed</title>
	<path d="M12,24c-3.177,0-6.172-1.234-8.436-3.475c-0.01-0.006-0.029-0.02-0.049-0.04c-0.011-0.011-0.026-0.03-0.037-0.047
		C1.235,18.174,0,15.178,0,12C0,5.383,5.383,0,12,0c3.178,0,6.173,1.234,8.437,3.476c0.009,0.005,0.029,0.019,0.048,0.039
		c0.011,0.011,0.026,0.03,0.038,0.047C22.766,5.826,24,8.822,24,12C24,18.617,18.617,24,12,24z M4.589,20.118
		C6.624,21.979,9.246,23,12,23c6.065,0,11-4.935,11-11c0-2.754-1.021-5.376-2.882-7.411l-3.793,3.793
		c-0.094,0.094-0.22,0.146-0.354,0.146s-0.259-0.052-0.354-0.146c-0.195-0.195-0.195-0.512,0-0.707l3.793-3.793
		C17.376,2.021,14.754,1,12,1C5.935,1,1,5.935,1,12c0,2.754,1.021,5.376,2.882,7.411l4.231-4.231
		c0.094-0.094,0.22-0.146,0.354-0.146s0.259,0.052,0.354,0.146c0.195,0.195,0.195,0.512,0,0.707L4.589,20.118z"/>
	<path d="M10.5,17c-0.276,0-0.5-0.224-0.5-0.5v-8C10,8.224,10.224,8,10.5,8h2c1.378,0,2.5,1.121,2.5,2.5S13.878,13,12.5,13H11v3.5
		C11,16.776,10.776,17,10.5,17z M12.5,12c0.827,0,1.5-0.673,1.5-1.5S13.327,9,12.5,9H11v3H12.5z"/>
</g>
</svg>
