<?xml version="1.0" encoding="utf-8"?>
<!-- Generator: Adobe Illustrator 22.1.0, SVG Export Plug-In . SVG Version: 6.00 Build 0)  -->
<svg version="1.1" id="Layer_1" xmlns="http://www.w3.org/2000/svg" xmlns:xlink="http://www.w3.org/1999/xlink" x="0px" y="0px"
	 viewBox="0 0 24 24" style="enable-background:new 0 0 24 24;" xml:space="preserve">
<g>
	<title>road-sign-lane-crossing-left_1</title>
	<path d="M12,23.584c-0.401,0-0.777-0.156-1.061-0.439L0.854,13.06c-0.283-0.283-0.439-0.66-0.439-1.061
		c0-0.401,0.156-0.777,0.439-1.061L10.939,0.853C11.223,0.57,11.599,0.414,12,0.414c0.401,0,0.777,0.156,1.061,0.439l10.085,10.085
		c0.283,0.283,0.439,0.66,0.439,1.061c0,0.401-0.156,0.778-0.439,1.061L13.061,23.145C12.778,23.428,12.401,23.584,12,23.584z
		 M12,1.414c-0.134,0-0.259,0.052-0.354,0.146L1.561,11.645c-0.094,0.094-0.146,0.22-0.146,0.354s0.052,0.259,0.146,0.354
		l10.085,10.085c0.089,0.088,0.217,0.139,0.354,0.139s0.265-0.051,0.354-0.139l10.085-10.085c0.094-0.094,0.146-0.22,0.146-0.354
		s-0.052-0.259-0.146-0.354L12.354,1.56C12.259,1.466,12.134,1.414,12,1.414z"/>
	<path d="M14,18c-0.552,0-1-0.448-1-1v-2.75l-3.6-2.7C9.15,11.362,9,11.063,9,10.75V8H8.5C8.297,8,8.116,7.879,8.038,7.692
		C7.96,7.504,8.003,7.29,8.146,7.147l1.646-1.646c0.19-0.189,0.441-0.293,0.708-0.293c0.268,0,0.519,0.105,0.708,0.294l1.646,1.646
		c0.144,0.144,0.186,0.358,0.108,0.545C12.885,7.879,12.703,8,12.5,8H12v1.75l3.6,2.7c0.251,0.188,0.4,0.487,0.4,0.8V17
		c0,0.552-0.448,1-1,1H14z M9.676,7.032C9.865,7.103,10,7.286,10,7.5v3.25l3.6,2.7c0.251,0.188,0.4,0.487,0.4,0.8V17h1v-3.75
		l-3.6-2.7c-0.25-0.188-0.4-0.487-0.4-0.8V7.5c0-0.214,0.135-0.397,0.325-0.468L10.5,6.208L9.676,7.032z"/>
	<path d="M16,10.5c-0.215,0-0.428-0.071-0.6-0.2l-1-0.75C14.15,9.362,14,9.063,14,8.75V8c0-0.551,0.448-1,1-1h1c0.552,0,1,0.449,1,1
		v1.5C17,10.052,16.552,10.5,16,10.5z M15,8.75l1,0.75L16,8h-1L15,8.75z"/>
	<path d="M9,18c-0.551,0-1-0.448-1-1v-2.5c0-0.552,0.449-1,1-1c0.215,0,0.428,0.071,0.6,0.2l1,0.75c0.25,0.188,0.4,0.487,0.4,0.8V17
		c0,0.552-0.449,1-1,1H9z M9,17h1v-1.75L9,14.5L9,17z"/>
</g>
</svg>
