<?xml version="1.0" encoding="utf-8"?>
<!-- Generator: Adobe Illustrator 22.1.0, SVG Export Plug-In . SVG Version: 6.00 Build 0)  -->
<svg version="1.1" id="Layer_1" xmlns="http://www.w3.org/2000/svg" xmlns:xlink="http://www.w3.org/1999/xlink" x="0px" y="0px"
	 viewBox="0 0 24 24" style="enable-background:new 0 0 24 24;" xml:space="preserve">
<g>
	<title>road-sign-no-parking</title>
	<path d="M12,24c-3.177,0-6.172-1.234-8.436-3.475c-0.01-0.006-0.029-0.02-0.049-0.04c-0.011-0.011-0.026-0.03-0.037-0.047
		C1.235,18.174,0,15.178,0,12c0-3.178,1.234-6.173,3.476-8.437c0.006-0.01,0.019-0.029,0.039-0.048
		c0.011-0.011,0.029-0.025,0.047-0.037C5.826,1.235,8.822,0,12,0c3.178,0,6.173,1.234,8.437,3.476
		c0.009,0.005,0.029,0.019,0.048,0.039c0.011,0.011,0.026,0.03,0.038,0.047C22.766,5.826,24,8.822,24,12
		c0,3.177-1.234,6.172-3.474,8.436c-0.006,0.01-0.02,0.03-0.04,0.05c-0.011,0.011-0.03,0.026-0.048,0.038
		C18.174,22.766,15.178,24,12,24z M4.589,20.118C6.624,21.979,9.246,23,12,23c2.755,0,5.376-1.021,7.411-2.882L12,12.707
		L4.589,20.118z M20.118,19.411C21.979,17.376,23,14.755,23,12c0-2.754-1.021-5.376-2.882-7.411L12.707,12L20.118,19.411z
		 M3.882,4.589C2.021,6.624,1,9.246,1,12c0,2.754,1.021,5.376,2.882,7.411L11.293,12L3.882,4.589z M12,11.293l7.411-7.411
		C17.376,2.021,14.754,1,12,1C9.246,1,6.624,2.021,4.589,3.882L12,11.293z"/>
</g>
</svg>
