<?xml version="1.0" encoding="utf-8"?>
<!-- Generator: Adobe Illustrator 22.1.0, SVG Export Plug-In . SVG Version: 6.00 Build 0)  -->
<svg version="1.1" id="Layer_1" xmlns="http://www.w3.org/2000/svg" xmlns:xlink="http://www.w3.org/1999/xlink" x="0px" y="0px"
	 viewBox="0 0 24 24" style="enable-background:new 0 0 24 24;" xml:space="preserve">
<g>
	<title>road-sign-left-curve</title>
	<path d="M12,23.585c-0.401,0-0.777-0.156-1.061-0.439L0.854,13.061C0.571,12.778,0.415,12.401,0.415,12
		c0-0.401,0.156-0.777,0.439-1.061L10.939,0.854c0.283-0.283,0.66-0.439,1.061-0.439s0.777,0.156,1.061,0.439l10.086,10.085
		c0.585,0.585,0.585,1.536,0,2.121L13.061,23.146C12.778,23.429,12.401,23.585,12,23.585z M12,1.415
		c-0.133,0-0.259,0.052-0.354,0.146L1.561,11.646C1.467,11.741,1.415,11.866,1.415,12s0.052,0.259,0.146,0.354l10.085,10.085
		c0.089,0.088,0.217,0.139,0.354,0.139c0.136,0,0.265-0.051,0.353-0.139l10.086-10.085c0.195-0.195,0.195-0.512,0-0.707
		L12.353,1.561C12.259,1.467,12.134,1.415,12,1.415z"/>
	<path d="M9.999,17c-0.551,0-1-0.448-1-1v-3.793c0-0.668,0.26-1.295,0.732-1.768l1.982-1.982L11.11,7.854
		c-0.144-0.143-0.186-0.357-0.109-0.545C11.079,7.121,11.26,7,11.463,7h3.536c0.552,0,1,0.449,1,1v3.536
		c0,0.203-0.121,0.384-0.309,0.462c-0.061,0.025-0.125,0.038-0.191,0.038l0,0c-0.134,0-0.26-0.052-0.354-0.147l-0.603-0.604
		l-1.396,1.396c-0.093,0.093-0.147,0.222-0.147,0.354V16c0,0.552-0.448,1-1,1H9.999z M12.774,8.103
		c0.094,0.095,0.146,0.22,0.146,0.354c0,0.134-0.052,0.259-0.146,0.354l-2.336,2.336c-0.283,0.283-0.439,0.66-0.439,1.061V16h2
		l0-2.964c0-0.396,0.16-0.783,0.44-1.062l1.75-1.75c0.094-0.094,0.22-0.146,0.354-0.146c0.132,0,0.261,0.053,0.354,0.147
		l0.103,0.103V8h-2.328L12.774,8.103z"/>
</g>
</svg>
