<?xml version="1.0" encoding="utf-8"?>
<!-- Generator: Adobe Illustrator 22.1.0, SVG Export Plug-In . SVG Version: 6.00 Build 0)  -->
<svg version="1.1" id="Layer_1" xmlns="http://www.w3.org/2000/svg" xmlns:xlink="http://www.w3.org/1999/xlink" x="0px" y="0px"
	 viewBox="0 0 24 24" style="enable-background:new 0 0 24 24;" xml:space="preserve">
<g>
	<title>road-sign-u-turn-right</title>
	<path d="M12,24C5.383,24,0,18.617,0,12C0,5.383,5.383,0,12,0c6.617,0,12,5.383,12,12C24,18.617,18.617,24,12,24z M12,1
		C5.935,1,1,5.935,1,12s4.935,11,11,11s11-4.935,11-11S18.065,1,12,1z"/>
	<path d="M8.5,17.5C8.224,17.5,8,17.276,8,17v-6c0-2.206,1.794-4,4-4s4,1.794,4,4v2.161l1.207-1.477
		c0.095-0.117,0.236-0.184,0.387-0.184c0.115,0,0.227,0.04,0.316,0.113c0.104,0.085,0.168,0.204,0.181,0.337
		s-0.026,0.263-0.11,0.366l-2.094,2.563c-0.01,0.012-0.023,0.025-0.036,0.036c-0.02,0.019-0.039,0.033-0.052,0.042
		c-0.027,0.021-0.053,0.04-0.088,0.057c-0.039,0.017-0.067,0.023-0.083,0.026c-0.018,0.006-0.053,0.019-0.1,0.021
		c-0.005,0-0.023,0.001-0.028,0.001c-0.132,0-0.256-0.051-0.349-0.142l-2.625-2.563c-0.096-0.093-0.149-0.218-0.151-0.352
		s0.049-0.26,0.142-0.355c0.096-0.097,0.223-0.151,0.358-0.151c0.131,0,0.255,0.051,0.349,0.142L15,13.376V11c0-1.654-1.346-3-3-3
		c-1.654,0-3,1.346-3,3v6C9,17.276,8.776,17.5,8.5,17.5z"/>
</g>
</svg>
