<?xml version="1.0" encoding="utf-8"?>
<!-- Generator: Adobe Illustrator 22.1.0, SVG Export Plug-In . SVG Version: 6.00 Build 0)  -->
<svg version="1.1" id="Layer_1" xmlns="http://www.w3.org/2000/svg" xmlns:xlink="http://www.w3.org/1999/xlink" x="0px" y="0px"
	 viewBox="0 0 24 24" style="enable-background:new 0 0 24 24;" xml:space="preserve">
<g>
	<title>road-sign-deadend_1</title>
	<path d="M1.5,24C0.673,24,0,23.327,0,22.5v-21C0,0.673,0.673,0,1.5,0h21C23.327,0,24,0.673,24,1.5v21c0,0.827-0.673,1.5-1.5,1.5
		H1.5z M1.5,1C1.224,1,1,1.224,1,1.5v21C1,22.776,1.224,23,1.5,23h21c0.276,0,0.5-0.224,0.5-0.5v-21C23,1.224,22.776,1,22.5,1H1.5z"
		/>
	<path d="M13.5,19c-0.206,0-0.388-0.123-0.464-0.314L12,16.096V18.5c0,0.276-0.224,0.5-0.5,0.5S11,18.776,11,18.5v-5
		c0-0.239,0.171-0.446,0.405-0.491C11.438,13.003,11.469,13,11.5,13c0.206,0,0.388,0.124,0.465,0.314L13,15.904V13.5
		c0-0.276,0.224-0.5,0.5-0.5s0.5,0.224,0.5,0.5v5c0,0.239-0.17,0.446-0.405,0.491C13.562,18.997,13.531,19,13.5,19z"/>
	<path d="M15.5,11c-0.276,0-0.5-0.224-0.5-0.5V9h-1v1.5c0,0.276-0.224,0.5-0.5,0.5S13,10.776,13,10.5v-4C13,5.673,13.673,5,14.5,5
		S16,5.673,16,6.5v4C16,10.776,15.776,11,15.5,11z M15,8V6.5C15,6.224,14.776,6,14.5,6S14,6.224,14,6.5V8H15z"/>
	<path d="M5.5,11C5.224,11,5,10.776,5,10.5v-5C5,5.224,5.224,5,5.5,5C6.879,5,8,6.121,8,7.5v1C8,9.879,6.879,11,5.5,11z M6,9.914
		C6.586,9.705,7,9.141,7,8.5v-1c0-0.641-0.414-1.205-1-1.414V9.914z"/>
	<path d="M15.5,19c-0.276,0-0.5-0.224-0.5-0.5v-5c0-0.276,0.224-0.5,0.5-0.5c1.378,0,2.5,1.122,2.5,2.5v1
		C18,17.878,16.878,19,15.5,19z M16,17.914c0.586-0.209,1-0.773,1-1.414v-1c0-0.641-0.414-1.206-1-1.414V17.914z"/>
	<path d="M17.5,11c-0.276,0-0.5-0.224-0.5-0.5v-5C17,5.224,17.224,5,17.5,5C18.878,5,20,6.121,20,7.5v1C20,9.879,18.878,11,17.5,11z
		 M18,9.914c0.586-0.209,1-0.773,1-1.414v-1c0-0.641-0.414-1.205-1-1.414V9.914z"/>
	<path d="M10.5,11C9.673,11,9,10.327,9,9.5v-3C9,5.673,9.673,5,10.5,5h1C11.776,5,12,5.224,12,5.5S11.776,6,11.5,6h-1
		C10.224,6,10,6.224,10,6.5V8h1.5C11.776,8,12,8.224,12,8.5S11.776,9,11.5,9H10v0.5c0,0.276,0.224,0.5,0.5,0.5h1
		c0.276,0,0.5,0.224,0.5,0.5S11.776,11,11.5,11H10.5z"/>
	<path d="M8.5,19C7.673,19,7,18.327,7,17.5v-3C7,13.673,7.673,13,8.5,13h1c0.276,0,0.5,0.224,0.5,0.5S9.776,14,9.5,14h-1
		C8.224,14,8,14.224,8,14.5V16h1.5c0.276,0,0.5,0.224,0.5,0.5S9.776,17,9.5,17H8v0.5C8,17.776,8.224,18,8.5,18h1
		c0.276,0,0.5,0.224,0.5,0.5S9.776,19,9.5,19H8.5z"/>
</g>
</svg>
