<?xml version="1.0" encoding="utf-8"?>
<!-- Generator: Adobe Illustrator 22.1.0, SVG Export Plug-In . SVG Version: 6.00 Build 0)  -->
<svg version="1.1" id="Layer_1" xmlns="http://www.w3.org/2000/svg" xmlns:xlink="http://www.w3.org/1999/xlink" x="0px" y="0px"
	 viewBox="0 0 24 24" style="enable-background:new 0 0 24 24;" xml:space="preserve">
<g>
	<title>road-sign-side-road-left-1</title>
	<path d="M12,23.085c-0.401,0-0.778-0.156-1.061-0.439l-9.585-9.586C1.07,12.777,0.914,12.401,0.914,12
		c0-0.401,0.156-0.777,0.439-1.061l9.586-9.585c0.283-0.283,0.66-0.439,1.061-0.439c0.401,0,0.778,0.156,1.061,0.439l9.585,9.585
		c0.283,0.283,0.439,0.66,0.439,1.061c0,0.401-0.156,0.778-0.439,1.061l-9.585,9.586C12.777,22.929,12.401,23.085,12,23.085z
		 M12,1.922c-0.136,0-0.265,0.051-0.354,0.139l-9.585,9.585C1.966,11.741,1.914,11.866,1.914,12s0.052,0.259,0.146,0.354
		l9.585,9.586c0.094,0.094,0.22,0.146,0.354,0.146s0.259-0.052,0.354-0.146l9.585-9.585c0.094-0.094,0.146-0.22,0.146-0.354
		c0-0.133-0.052-0.259-0.146-0.354l-9.585-9.585C12.265,1.972,12.136,1.922,12,1.922z"/>
	<path d="M12,17.5c-0.276,0-0.5-0.224-0.5-0.5v-3.793l-2.146,2.146C9.259,15.448,9.134,15.5,9,15.5s-0.259-0.052-0.354-0.146
		S8.5,15.134,8.5,15s0.052-0.259,0.146-0.354l2.854-2.854V9.207l-1.146,1.146C10.259,10.448,10.134,10.5,10,10.5
		s-0.259-0.052-0.354-0.146S9.5,10.134,9.5,10s0.052-0.259,0.146-0.354l2-2C11.741,7.552,11.867,7.5,12,7.5
		c0.134,0,0.259,0.052,0.354,0.147l1.999,2C14.448,9.741,14.5,9.866,14.5,10s-0.052,0.259-0.146,0.354S14.134,10.5,14,10.5
		s-0.259-0.052-0.354-0.146L12.5,9.207V17C12.5,17.276,12.276,17.5,12,17.5z"/>
</g>
</svg>
