<?xml version="1.0" encoding="utf-8"?>
<!-- Generator: Adobe Illustrator 22.1.0, SVG Export Plug-In . SVG Version: 6.00 Build 0)  -->
<svg version="1.1" id="Layer_1" xmlns="http://www.w3.org/2000/svg" xmlns:xlink="http://www.w3.org/1999/xlink" x="0px" y="0px"
	 viewBox="0 0 24 24" style="enable-background:new 0 0 24 24;" xml:space="preserve">
<g>
	<title>road-sign-keep-left</title>
	<path d="M2,24c-0.827,0-1.5-0.673-1.5-1.5v-21C0.5,0.673,1.173,0,2,0h20c0.827,0,1.5,0.673,1.5,1.5v21c0,0.827-0.673,1.5-1.5,1.5H2
		z M2,1C1.724,1,1.5,1.224,1.5,1.5v21C1.5,22.776,1.724,23,2,23h20c0.276,0,0.5-0.224,0.5-0.5v-21C22.5,1.224,22.276,1,22,1H2z"/>
	<path d="M7.5,22.5c-0.105,0-0.205-0.032-0.291-0.094l-3.5-2.5c-0.011-0.008-0.037-0.03-0.046-0.04
		c-0.003-0.003-0.026-0.024-0.028-0.027c-0.035-0.037-0.067-0.083-0.09-0.134c-0.003-0.007-0.01-0.024-0.012-0.031
		C3.511,19.615,3.5,19.558,3.5,19.5s0.011-0.115,0.034-0.176c0.002-0.005,0.01-0.025,0.012-0.03
		c0.024-0.052,0.055-0.098,0.093-0.138c0.005-0.006,0.02-0.019,0.026-0.025c0.006-0.005,0.039-0.034,0.046-0.039l3.499-2.499
		C7.294,16.532,7.395,16.5,7.5,16.5c0.161,0,0.313,0.078,0.407,0.209c0.078,0.109,0.108,0.241,0.086,0.373S7.899,17.33,7.79,17.407
		L5.56,19H19.5c0.276,0,0.5,0.224,0.5,0.5S19.776,20,19.5,20H5.56l2.23,1.593c0.109,0.077,0.181,0.192,0.203,0.324
		s-0.009,0.264-0.086,0.373C7.813,22.422,7.661,22.5,7.5,22.5z"/>
	<path d="M13,16c-0.276,0-0.5-0.224-0.5-0.5v-4c0-0.827,0.673-1.5,1.5-1.5h1c0.276,0,0.5,0.224,0.5,0.5S15.276,11,15,11h-1
		c-0.276,0-0.5,0.224-0.5,0.5V13h1c0.276,0,0.5,0.224,0.5,0.5S14.776,14,14.5,14h-1v1.5C13.5,15.776,13.276,16,13,16z"/>
	<path d="M18,16c-0.276,0-0.5-0.224-0.5-0.5V11H17c-0.276,0-0.5-0.224-0.5-0.5S16.724,10,17,10h2c0.276,0,0.5,0.224,0.5,0.5
		S19.276,11,19,11h-0.5v4.5C18.5,15.776,18.276,16,18,16z"/>
	<path d="M7,8C6.847,8,6.705,7.932,6.609,7.812L5.5,6.425V7.5C5.5,7.776,5.276,8,5,8S4.5,7.776,4.5,7.5v-5C4.5,2.224,4.724,2,5,2
		s0.5,0.224,0.5,0.5v1.075l1.11-1.387C6.705,2.068,6.847,2,7,2c0.113,0,0.224,0.039,0.312,0.11c0.104,0.083,0.17,0.202,0.184,0.335
		S7.474,2.708,7.39,2.812L5.64,5l1.75,2.188c0.083,0.104,0.121,0.235,0.107,0.368s-0.08,0.252-0.185,0.335C7.224,7.961,7.113,8,7,8z
		"/>
	<path d="M17,8c-0.276,0-0.5-0.224-0.5-0.5v-5C16.5,2.224,16.724,2,17,2h0.5c1.103,0,2,0.897,2,2s-0.897,2-2,2v1.5
		C17.5,7.776,17.276,8,17,8z M17.5,5c0.552,0,1-0.449,1-1s-0.448-1-1-1V5z"/>
	<path d="M6,16c-0.827,0-1.5-0.673-1.5-1.5v-4C4.5,10.224,4.724,10,5,10s0.5,0.224,0.5,0.5v4C5.5,14.776,5.724,15,6,15h1
		c0.276,0,0.5,0.224,0.5,0.5S7.276,16,7,16H6z"/>
	<path d="M10,8C9.173,8,8.5,7.327,8.5,6.5v-3C8.5,2.673,9.173,2,10,2h1c0.276,0,0.5,0.224,0.5,0.5S11.276,3,11,3h-1
		C9.724,3,9.5,3.224,9.5,3.5V5H11c0.276,0,0.5,0.224,0.5,0.5S11.276,6,11,6H9.5v0.5C9.5,6.776,9.724,7,10,7h1
		c0.276,0,0.5,0.224,0.5,0.5S11.276,8,11,8H10z"/>
	<path d="M10,16c-0.827,0-1.5-0.673-1.5-1.5v-3c0-0.827,0.673-1.5,1.5-1.5h1c0.276,0,0.5,0.224,0.5,0.5S11.276,11,11,11h-1
		c-0.276,0-0.5,0.224-0.5,0.5V13H11c0.276,0,0.5,0.224,0.5,0.5S11.276,14,11,14H9.5v0.5c0,0.276,0.224,0.5,0.5,0.5h1
		c0.276,0,0.5,0.224,0.5,0.5S11.276,16,11,16H10z"/>
	<path d="M14,8c-0.827,0-1.5-0.673-1.5-1.5v-3C12.5,2.673,13.173,2,14,2h1c0.276,0,0.5,0.224,0.5,0.5S15.276,3,15,3h-1
		c-0.276,0-0.5,0.224-0.5,0.5V5H15c0.276,0,0.5,0.224,0.5,0.5S15.276,6,15,6h-1.5v0.5C13.5,6.776,13.724,7,14,7h1
		c0.276,0,0.5,0.224,0.5,0.5S15.276,8,15,8H14z"/>
</g>
</svg>
