<?xml version="1.0" encoding="utf-8"?>
<!-- Generator: Adobe Illustrator 22.1.0, SVG Export Plug-In . SVG Version: 6.00 Build 0)  -->
<svg version="1.1" id="Layer_1" xmlns="http://www.w3.org/2000/svg" xmlns:xlink="http://www.w3.org/1999/xlink" x="0px" y="0px"
	 viewBox="0 0 24 24" style="enable-background:new 0 0 24 24;" xml:space="preserve">
<g>
	<title>road-sign-traffic-priority-left</title>
	<path d="M12,23.585c-0.401,0-0.778-0.156-1.061-0.439L0.854,13.061C0.571,12.778,0.415,12.401,0.415,12s0.156-0.777,0.439-1.061
		L10.939,0.854c0.283-0.283,0.66-0.439,1.061-0.439c0.401,0,0.778,0.156,1.061,0.44L23.146,10.94
		c0.283,0.283,0.439,0.66,0.439,1.061c0,0.401-0.156,0.778-0.439,1.061L13.061,23.146C12.778,23.429,12.401,23.585,12,23.585z
		 M12,1.422c-0.136,0-0.265,0.051-0.354,0.139L1.561,11.647C1.467,11.741,1.415,11.867,1.415,12c0,0.134,0.052,0.259,0.146,0.354
		l10.085,10.086c0.094,0.094,0.22,0.146,0.354,0.146s0.259-0.052,0.354-0.146l10.085-10.086c0.094-0.094,0.146-0.22,0.146-0.354
		s-0.052-0.259-0.146-0.354L12.354,1.561C12.265,1.473,12.136,1.422,12,1.422z"/>
	<path d="M9,16.999c-0.551,0-1-0.448-1-1v-7H7c-0.203,0-0.384-0.121-0.462-0.309C6.46,8.503,6.503,8.289,6.646,8.146L8.792,6
		c0.188-0.189,0.439-0.293,0.706-0.293c0.268,0,0.519,0.104,0.707,0.292l2.147,2.147c0.144,0.144,0.186,0.358,0.108,0.545
		C12.384,8.878,12.203,8.999,12,8.999h-1v7c0,0.552-0.449,1-1,1H9z M8.5,7.999c0.276,0,0.5,0.224,0.5,0.5v7.5h1v-7.5
		c0-0.276,0.224-0.5,0.5-0.5h0.293L9.5,6.707l0-0.25l0,0.25L8.207,7.999H8.5z"/>
	<path d="M15,16.999c-0.552,0-1-0.448-1-1v-2.5c0-0.552,0.448-1,1-1h1c0.552,0,1,0.448,1,1v2.5c0,0.552-0.448,1-1,1H15z M15,15.999
		h1v-2.5h-1L15,15.999z"/>
	<path d="M13.5,11.499c-0.276,0-0.5-0.224-0.5-0.5s0.224-0.5,0.5-0.5h4c0.276,0,0.5,0.224,0.5,0.5s-0.224,0.5-0.5,0.5H13.5z"/>
</g>
</svg>
