<?xml version="1.0" encoding="utf-8"?>
<!-- Generator: Adobe Illustrator 22.1.0, SVG Export Plug-In . SVG Version: 6.00 Build 0)  -->
<svg version="1.1" id="Layer_1" xmlns="http://www.w3.org/2000/svg" xmlns:xlink="http://www.w3.org/1999/xlink" x="0px" y="0px"
	 viewBox="0 0 24 24" style="enable-background:new 0 0 24 24;" xml:space="preserve">
<g>
	<title>road-sign-crossroad-2</title>
	<path d="M11.999,23.585c-0.401,0-0.777-0.156-1.061-0.439L0.853,13.061C0.57,12.777,0.414,12.401,0.414,12
		c0-0.401,0.156-0.777,0.439-1.061L10.938,0.854c0.283-0.283,0.66-0.439,1.061-0.439c0.401,0,0.777,0.156,1.061,0.439l10.085,10.085
		c0.283,0.283,0.439,0.66,0.439,1.061c0,0.401-0.156,0.778-0.439,1.061L13.06,23.146C12.777,23.429,12.4,23.585,11.999,23.585z
		 M11.999,1.422c-0.136,0-0.265,0.051-0.354,0.139L1.56,11.646C1.466,11.741,1.414,11.866,1.414,12s0.052,0.259,0.146,0.354
		l10.085,10.085c0.089,0.088,0.217,0.139,0.354,0.139s0.265-0.051,0.354-0.139l10.085-10.085c0.094-0.094,0.146-0.22,0.146-0.354
		s-0.052-0.259-0.146-0.354L12.353,1.561C12.264,1.473,12.135,1.422,11.999,1.422z"/>
	<path d="M11,17c-0.551,0-1-0.448-1-1v-2H8c-0.551,0-1-0.448-1-1v-2c0-0.551,0.449-1,1-1h2V8c0-0.551,0.449-1,1-1h2
		c0.552,0,1,0.449,1,1v2h2c0.552,0,1,0.449,1,1v2c0,0.552-0.448,1-1,1h-2v2c0,0.552-0.448,1-1,1H11z M8,13h2.5
		c0.276,0,0.5,0.224,0.5,0.5V16h2v-2.5c0-0.276,0.224-0.5,0.5-0.5H16v-2h-2.5c-0.276,0-0.5-0.224-0.5-0.5V8h-2v2.5
		c0,0.276-0.224,0.5-0.5,0.5H8L8,13z"/>
</g>
</svg>
