<?xml version="1.0" encoding="utf-8"?>
<!-- Generator: Adobe Illustrator 22.1.0, SVG Export Plug-In . SVG Version: 6.00 Build 0)  -->
<svg version="1.1" id="Layer_1" xmlns="http://www.w3.org/2000/svg" xmlns:xlink="http://www.w3.org/1999/xlink" x="0px" y="0px"
	 viewBox="0 0 24 24" style="enable-background:new 0 0 24 24;" xml:space="preserve">
<g>
	<title>road-sign-divided-highway-2</title>
	<path d="M12,11c-1.103,0-2-0.897-2-2V6c0-0.276,0.224-0.5,0.5-0.5S11,5.724,11,6v3c0,0.551,0.449,1,1,1s1-0.449,1-1V6
		c0-0.276,0.224-0.5,0.5-0.5S14,5.724,14,6v3C14,10.103,13.103,11,12,11z"/>
	<path d="M11.999,23.585c-0.401,0-0.777-0.156-1.061-0.439L0.853,13.061C0.57,12.777,0.414,12.401,0.414,12
		c0-0.401,0.156-0.777,0.439-1.061L10.938,0.854c0.283-0.283,0.66-0.439,1.061-0.439c0.401,0,0.777,0.156,1.061,0.439l10.085,10.085
		c0.283,0.283,0.439,0.66,0.439,1.061c0,0.401-0.156,0.778-0.439,1.061L13.06,23.146C12.777,23.429,12.4,23.585,11.999,23.585z
		 M11.999,1.422c-0.136,0-0.265,0.051-0.354,0.139L1.56,11.646C1.466,11.741,1.414,11.866,1.414,12s0.052,0.259,0.146,0.354
		l10.085,10.085c0.089,0.088,0.217,0.139,0.354,0.139s0.265-0.051,0.354-0.139l10.085-10.085c0.094-0.094,0.146-0.22,0.146-0.354
		s-0.052-0.259-0.146-0.354L12.353,1.561C12.264,1.473,12.135,1.422,11.999,1.422z"/>
	<path d="M9.5,17.5C9.224,17.5,9,17.276,9,17v-2.793L7.293,12.5C7.104,12.31,7,12.06,7,11.793V9.207L6.854,9.354
		C6.759,9.448,6.634,9.5,6.5,9.5S6.241,9.448,6.147,9.354S6,9.134,6,9s0.052-0.259,0.146-0.354l1-1
		C7.193,7.6,7.247,7.564,7.308,7.538C7.37,7.513,7.434,7.5,7.5,7.5s0.13,0.013,0.191,0.038C7.753,7.564,7.807,7.6,7.854,7.647l1,1
		C8.948,8.741,9,8.866,9,9S8.948,9.259,8.854,9.354S8.634,9.5,8.5,9.5S8.241,9.448,8.147,9.354L8,9.207v2.586L9.708,13.5
		C9.896,13.69,10,13.94,10,14.207V17C10,17.276,9.776,17.5,9.5,17.5z"/>
	<path d="M14.5,17.5c-0.276,0-0.5-0.224-0.5-0.5v-2.793c0-0.266,0.104-0.517,0.292-0.706l1.708-1.708l0-2.585l-0.146,0.146
		C15.759,9.448,15.634,9.5,15.5,9.5s-0.259-0.052-0.354-0.146S15,9.134,15,9s0.052-0.259,0.146-0.354l1-1
		c0.047-0.047,0.101-0.083,0.163-0.109C16.37,7.513,16.434,7.5,16.5,7.5s0.13,0.013,0.191,0.038
		c0.061,0.025,0.116,0.062,0.163,0.108l1,1C17.948,8.741,18,8.866,18,9s-0.052,0.259-0.146,0.354S17.634,9.5,17.5,9.5
		s-0.259-0.052-0.354-0.146L17,9.207v2.586C17,12.06,16.896,12.31,16.709,12.499L15,14.208L15,17C15,17.276,14.776,17.5,14.5,17.5z"
		/>
</g>
</svg>
