<?xml version="1.0" encoding="utf-8"?>
<!-- Generator: Adobe Illustrator 22.1.0, SVG Export Plug-In . SVG Version: 6.00 Build 0)  -->
<svg version="1.1" id="Layer_1" xmlns="http://www.w3.org/2000/svg" xmlns:xlink="http://www.w3.org/1999/xlink" x="0px" y="0px"
	 viewBox="0 0 24 24" style="enable-background:new 0 0 24 24;" xml:space="preserve">
<g>
	<title>road-sign-traffic-left</title>
	<path d="M12,23.085c-0.401,0-0.778-0.156-1.061-0.439l-9.585-9.586C1.07,12.777,0.914,12.401,0.914,12
		c0-0.401,0.156-0.777,0.439-1.061l9.586-9.585c0.283-0.283,0.66-0.439,1.061-0.439c0.401,0,0.778,0.156,1.061,0.439l9.585,9.585
		c0.283,0.283,0.439,0.66,0.439,1.061c0,0.401-0.156,0.778-0.439,1.061l-9.585,9.586C12.777,22.929,12.401,23.085,12,23.085z
		 M12,1.922c-0.136,0-0.265,0.051-0.354,0.139l-9.585,9.585C1.966,11.741,1.914,11.866,1.914,12s0.052,0.259,0.146,0.354
		l9.585,9.586c0.094,0.094,0.22,0.146,0.354,0.146s0.259-0.052,0.354-0.146l9.585-9.585c0.094-0.094,0.146-0.22,0.146-0.354
		c0-0.133-0.052-0.259-0.146-0.354l-9.585-9.585C12.265,1.972,12.136,1.922,12,1.922z"/>
	<path d="M10,16.5c-0.276,0-0.5-0.224-0.5-0.5V9.207l-1.146,1.146C8.259,10.448,8.134,10.5,8,10.5s-0.259-0.052-0.354-0.146
		S7.5,10.134,7.5,10s0.052-0.259,0.146-0.354l2-2C9.693,7.6,9.747,7.564,9.809,7.538C9.87,7.513,9.934,7.5,10,7.5
		s0.13,0.013,0.191,0.038c0.062,0.026,0.116,0.062,0.163,0.108l2,2c0.195,0.195,0.195,0.512,0,0.707
		C12.259,10.448,12.134,10.5,12,10.5s-0.259-0.052-0.354-0.146L10.5,9.207V16C10.5,16.276,10.276,16.5,10,16.5z"/>
	<path d="M15,16.5c-0.276,0-0.5-0.224-0.5-0.5v-2.5H14c-0.276,0-0.5-0.224-0.5-0.5s0.224-0.5,0.5-0.5h2c0.276,0,0.5,0.224,0.5,0.5
		s-0.224,0.5-0.5,0.5h-0.5V16C15.5,16.276,15.276,16.5,15,16.5z"/>
</g>
</svg>
