<?xml version="1.0" encoding="utf-8"?>
<!-- Generator: Adobe Illustrator 22.1.0, SVG Export Plug-In . SVG Version: 6.00 Build 0)  -->
<svg version="1.1" id="Layer_1" xmlns="http://www.w3.org/2000/svg" xmlns:xlink="http://www.w3.org/1999/xlink" x="0px" y="0px"
	 viewBox="0 0 24 24" style="enable-background:new 0 0 24 24;" xml:space="preserve">
<g>
	<title>road-sign-road-narrowing</title>
	<path d="M12,23.085c-0.401,0-0.778-0.156-1.061-0.439l-9.585-9.586C1.07,12.777,0.914,12.401,0.914,12
		c0-0.401,0.156-0.777,0.439-1.061l9.586-9.585c0.283-0.283,0.66-0.439,1.061-0.439c0.401,0,0.778,0.156,1.061,0.439l9.585,9.585
		c0.283,0.283,0.439,0.66,0.439,1.061c0,0.401-0.156,0.778-0.439,1.061l-9.585,9.586C12.777,22.929,12.401,23.085,12,23.085z
		 M12,1.922c-0.136,0-0.265,0.051-0.354,0.139l-9.585,9.585C1.966,11.741,1.914,11.866,1.914,12s0.052,0.259,0.146,0.354
		l9.585,9.586c0.094,0.094,0.22,0.146,0.354,0.146s0.259-0.052,0.354-0.146l9.585-9.585c0.094-0.094,0.146-0.22,0.146-0.354
		c0-0.133-0.052-0.259-0.146-0.354l-9.585-9.585C12.265,1.972,12.136,1.922,12,1.922z"/>
	<path d="M8,16.5c-0.276,0-0.5-0.224-0.5-0.5v-3.293c0-0.267,0.104-0.517,0.292-0.706l2.708-2.708l0-2.792C10.5,6.224,10.724,6,11,6
		s0.5,0.224,0.5,0.5v2.793c0,0.267-0.104,0.517-0.292,0.706L8.5,12.708L8.5,16C8.5,16.276,8.276,16.5,8,16.5z"/>
	<path d="M16,16.5c-0.276,0-0.5-0.224-0.5-0.5v-3.293L12.793,10C12.604,9.81,12.5,9.559,12.5,9.293V6.5C12.5,6.224,12.724,6,13,6
		s0.5,0.224,0.5,0.5v2.793L16.208,12c0.189,0.189,0.292,0.44,0.292,0.707V16C16.5,16.276,16.276,16.5,16,16.5z"/>
</g>
</svg>
