<?xml version="1.0" encoding="utf-8"?>
<!-- Generator: Adobe Illustrator 22.1.0, SVG Export Plug-In . SVG Version: 6.00 Build 0)  -->
<svg version="1.1" id="Layer_1" xmlns="http://www.w3.org/2000/svg" xmlns:xlink="http://www.w3.org/1999/xlink" x="0px" y="0px"
	 viewBox="0 0 24 24" style="enable-background:new 0 0 24 24;" xml:space="preserve">
<g>
	<title>road-sign-no-entry</title>
	<path d="M12,24C5.383,24,0,18.617,0,12C0,5.383,5.383,0,12,0c6.617,0,12,5.383,12,12C24,18.617,18.617,24,12,24z M12,1
		C5.935,1,1,5.935,1,12s4.935,11,11,11s11-4.935,11-11S18.065,1,12,1z"/>
	<path d="M6,14c-0.551,0-1-0.448-1-1v-2c0-0.551,0.449-1,1-1h12c0.552,0,1,0.449,1,1v2c0,0.552-0.448,1-1,1H6z M6,13h12v-2H6L6,13z"
		/>
</g>
</svg>
