<?xml version="1.0" encoding="utf-8"?>
<!-- Generator: Adobe Illustrator 22.1.0, SVG Export Plug-In . SVG Version: 6.00 Build 0)  -->
<svg version="1.1" id="Layer_1" xmlns="http://www.w3.org/2000/svg" xmlns:xlink="http://www.w3.org/1999/xlink" x="0px" y="0px"
	 viewBox="0 0 24 24" style="enable-background:new 0 0 24 24;" xml:space="preserve">
<g>
	<title>road-sign-private-drive</title>
	<path d="M1.5,24C0.673,24,0,23.327,0,22.5v-3C0,19.224,0.224,19,0.5,19S1,19.224,1,19.5v3C1,22.776,1.224,23,1.5,23h21
		c0.276,0,0.5-0.224,0.5-0.5v-3c0-0.276,0.224-0.5,0.5-0.5s0.5,0.224,0.5,0.5v3c0,0.827-0.673,1.5-1.5,1.5H1.5z"/>
	<path d="M23.5,5C23.224,5,23,4.776,23,4.5v-3C23,1.224,22.776,1,22.5,1h-21C1.224,1,1,1.224,1,1.5v3C1,4.776,0.776,5,0.5,5
		S0,4.776,0,4.5v-3C0,0.673,0.673,0,1.5,0h21C23.327,0,24,0.673,24,1.5v3C24,4.776,23.776,5,23.5,5z"/>
	<path d="M8.5,13C8.224,13,8,12.776,8,12.5v-5C8,7.224,8.224,7,8.5,7S9,7.224,9,7.5v5C9,12.776,8.776,13,8.5,13z"/>
	<path d="M11.5,20c-0.276,0-0.5-0.224-0.5-0.5v-5c0-0.276,0.224-0.5,0.5-0.5s0.5,0.224,0.5,0.5v5C12,19.776,11.776,20,11.5,20z"/>
	<path d="M18.5,13c-0.276,0-0.5-0.224-0.5-0.5V8h-0.5C17.224,8,17,7.776,17,7.5S17.224,7,17.5,7h2C19.776,7,20,7.224,20,7.5
		S19.776,8,19.5,8H19v4.5C19,12.776,18.776,13,18.5,13z"/>
	<path d="M6.5,13c-0.175,0-0.339-0.093-0.429-0.243L5,10.972V12.5C5,12.776,4.776,13,4.5,13S4,12.776,4,12.5v-5
		C4,7.224,4.224,7,4.5,7h0.75C6.215,7,7,7.785,7,8.75c0,0.756-0.485,1.412-1.176,1.652l1.104,1.84
		c0.142,0.237,0.065,0.544-0.171,0.686C6.68,12.975,6.591,13,6.5,13z M5.25,9.5C5.664,9.5,6,9.164,6,8.75S5.664,8,5.25,8H5v1.5H5.25
		z"/>
	<path d="M9.5,20c-0.175,0-0.339-0.093-0.429-0.243L8,17.972V19.5C8,19.776,7.776,20,7.5,20S7,19.776,7,19.5v-5
		C7,14.224,7.224,14,7.5,14h0.75C9.215,14,10,14.785,10,15.75c0,0.756-0.485,1.412-1.176,1.652l1.104,1.841
		c0.142,0.237,0.065,0.544-0.171,0.686C9.68,19.975,9.591,20,9.5,20z M8.25,16.5C8.664,16.5,9,16.164,9,15.75S8.664,15,8.25,15H8
		v1.5H8.25z"/>
	<path d="M1.5,13C1.224,13,1,12.776,1,12.5v-5C1,7.224,1.224,7,1.5,7H2c1.103,0,2,0.897,2,2s-0.897,2-2,2v1.5
		C2,12.776,1.776,13,1.5,13z M2,10c0.551,0,1-0.449,1-1S2.551,8,2,8V10z"/>
	<path d="M11.5,13c-0.168,0-0.323-0.083-0.416-0.223C10.375,11.714,10,10.477,10,9.2V7.5C10,7.224,10.224,7,10.5,7S11,7.224,11,7.5
		v1.7c0,0.788,0.172,1.567,0.5,2.279C11.828,10.767,12,9.988,12,9.2V7.5C12,7.224,12.224,7,12.5,7C12.776,7,13,7.224,13,7.5v1.7
		c0,1.277-0.375,2.514-1.084,3.577C11.823,12.917,11.668,13,11.5,13z"/>
	<path d="M14.5,20c-0.167,0-0.323-0.083-0.416-0.223C13.375,18.714,13,17.477,13,16.2v-1.7c0-0.276,0.224-0.5,0.5-0.5
		s0.5,0.224,0.5,0.5v1.7c0,0.788,0.172,1.568,0.5,2.279c0.328-0.712,0.5-1.491,0.5-2.28v-1.7c0-0.276,0.224-0.5,0.5-0.5
		s0.5,0.224,0.5,0.5v1.7c0,1.277-0.375,2.514-1.084,3.577C14.823,19.917,14.667,20,14.5,20z"/>
	<path d="M16.5,13c-0.276,0-0.5-0.224-0.5-0.5V11h-1v1.5c0,0.276-0.224,0.5-0.5,0.5S14,12.776,14,12.5v-4C14,7.673,14.673,7,15.5,7
		S17,7.673,17,8.5v4C17,12.776,16.776,13,16.5,13z M16,10V8.5C16,8.224,15.776,8,15.5,8S15,8.224,15,8.5V10H16z"/>
	<path d="M3.5,20C3.224,20,3,19.776,3,19.5v-5C3,14.224,3.224,14,3.5,14C4.879,14,6,15.122,6,16.5v1C6,18.878,4.879,20,3.5,20z
		 M4,18.914c0.586-0.209,1-0.773,1-1.414v-1c0-0.641-0.414-1.206-1-1.414V18.914z"/>
	<path d="M21.5,13c-0.827,0-1.5-0.673-1.5-1.5v-3C20,7.673,20.673,7,21.5,7h1C22.776,7,23,7.224,23,7.5S22.776,8,22.5,8h-1
		C21.224,8,21,8.224,21,8.5V10h1.5c0.276,0,0.5,0.224,0.5,0.5S22.776,11,22.5,11H21v0.5c0,0.276,0.224,0.5,0.5,0.5h1
		c0.276,0,0.5,0.224,0.5,0.5c0,0.276-0.224,0.5-0.5,0.5H21.5z"/>
	<path d="M18.5,20c-0.827,0-1.5-0.673-1.5-1.5v-3c0-0.827,0.673-1.5,1.5-1.5h1c0.276,0,0.5,0.224,0.5,0.5S19.776,15,19.5,15h-1
		c-0.276,0-0.5,0.224-0.5,0.5V17h1.5c0.276,0,0.5,0.224,0.5,0.5S19.776,18,19.5,18H18v0.5c0,0.276,0.224,0.5,0.5,0.5h1
		c0.276,0,0.5,0.224,0.5,0.5S19.776,20,19.5,20H18.5z"/>
</g>
</svg>
