<?xml version="1.0" encoding="utf-8"?>
<!-- Generator: Adobe Illustrator 22.1.0, SVG Export Plug-In . SVG Version: 6.00 Build 0)  -->
<svg version="1.1" id="Layer_1" xmlns="http://www.w3.org/2000/svg" xmlns:xlink="http://www.w3.org/1999/xlink" x="0px" y="0px"
	 viewBox="0 0 24 24" style="enable-background:new 0 0 24 24;" xml:space="preserve">
<g>
	<title>road-sign-airport-close</title>
	<path d="M12,23.085c-0.401,0-0.778-0.156-1.061-0.439l-9.585-9.586C1.07,12.777,0.914,12.401,0.914,12
		c0-0.401,0.156-0.777,0.439-1.061l9.586-9.585c0.283-0.283,0.66-0.439,1.061-0.439c0.401,0,0.778,0.156,1.061,0.439l9.585,9.585
		c0.283,0.283,0.439,0.66,0.439,1.061c0,0.401-0.156,0.778-0.439,1.061l-9.585,9.586C12.777,22.929,12.401,23.085,12,23.085z
		 M12,1.922c-0.136,0-0.265,0.051-0.354,0.139l-9.585,9.585C1.966,11.741,1.914,11.866,1.914,12s0.052,0.259,0.146,0.354
		l9.585,9.586c0.094,0.094,0.22,0.146,0.354,0.146s0.259-0.052,0.354-0.146l9.585-9.585c0.094-0.094,0.146-0.22,0.146-0.354
		c0-0.133-0.052-0.259-0.146-0.354l-9.585-9.585C12.265,1.972,12.136,1.922,12,1.922z"/>
	<path d="M14.745,17.001c-0.184,0-0.365-0.052-0.521-0.151l-7.851-4.875C5.821,11.628,5.487,11.01,5.5,10.36
		c0-0.2,0.036-0.403,0.107-0.6c0.212-0.607,0.716-1.059,1.347-1.206c0.002,0,0.004-0.001,0.005-0.001
		C7.088,8.524,7.22,8.509,7.352,8.509c0.365,0,0.716,0.109,1.016,0.315l2.101,1.437l4.777-1.774c0.094-0.035,0.191-0.052,0.29-0.052
		c0.178,0,0.349,0.056,0.493,0.162l0.892,0.657c0.052,0.039,0.095,0.079,0.134,0.123c0.299,0.351,0.258,0.877-0.088,1.175
		c-0.021,0.018-0.041,0.032-0.062,0.045l-2.995,1.853l1.026,0.719l1.197-0.713c0.116-0.071,0.252-0.109,0.391-0.109
		c0.176,0,0.348,0.062,0.483,0.174l1.212,1.069c0.041,0.031,0.085,0.077,0.123,0.126c0.257,0.318,0.203,0.798-0.125,1.064
		l-2.905,2.041C15.144,16.938,14.949,17.001,14.745,17.001z M7.352,9.509c-0.058,0-0.117,0.006-0.174,0.019
		c-0.293,0.068-0.53,0.28-0.63,0.567C6.516,10.186,6.5,10.277,6.5,10.37c-0.006,0.309,0.148,0.598,0.403,0.758l7.85,4.875
		l2.602-1.838l-0.863-0.761l-1.325,0.792c-0.079,0.046-0.167,0.07-0.256,0.07c-0.103,0-0.202-0.031-0.286-0.09l-1.913-1.34
		c-0.138-0.097-0.217-0.255-0.213-0.423c0.005-0.169,0.094-0.323,0.237-0.412l3.381-2.092l-0.61-0.451l-4.934,1.832
		c-0.055,0.021-0.114,0.031-0.174,0.031c-0.101,0-0.199-0.03-0.282-0.088L7.802,9.649C7.669,9.557,7.514,9.509,7.352,9.509z"/>
</g>
</svg>
