<?xml version="1.0" encoding="utf-8"?>
<!-- Generator: Adobe Illustrator 22.1.0, SVG Export Plug-In . SVG Version: 6.00 Build 0)  -->
<svg version="1.1" id="Layer_1" xmlns="http://www.w3.org/2000/svg" xmlns:xlink="http://www.w3.org/1999/xlink" x="0px" y="0px"
	 viewBox="0 0 24 24" style="enable-background:new 0 0 24 24;" xml:space="preserve">
<g>
	<title>road-sign-speed-limit-70</title>
	<path d="M15.5,16c-1.378,0-2.5-1.122-2.5-2.5v-2c0-1.379,1.122-2.5,2.5-2.5s2.5,1.121,2.5,2.5v2C18,14.878,16.878,16,15.5,16z
		 M15.5,10c-0.827,0-1.5,0.673-1.5,1.5v2c0,0.827,0.673,1.5,1.5,1.5s1.5-0.673,1.5-1.5v-2C17,10.673,16.327,10,15.5,10z"/>
	<path d="M12,24C5.383,24,0,18.617,0,12C0,5.383,5.383,0,12,0c6.617,0,12,5.383,12,12C24,18.617,18.617,24,12,24z M12,1
		C5.935,1,1,5.935,1,12s4.935,11,11,11s11-4.935,11-11S18.065,1,12,1z"/>
	<path d="M9.5,16c-0.06,0-0.119-0.011-0.175-0.032c-0.124-0.046-0.224-0.138-0.28-0.259c-0.056-0.121-0.061-0.257-0.015-0.382L11,10
		l-3,0v0.5C8,10.776,7.776,11,7.5,11S7,10.776,7,10.5V10c0-0.551,0.449-1,1-1h3c0.118,0,0.234,0.021,0.345,0.062
		c0.251,0.092,0.451,0.277,0.562,0.52c0.112,0.243,0.123,0.514,0.03,0.765l-1.969,5.327C9.897,15.869,9.708,16,9.5,16z"/>
</g>
</svg>
