<?xml version="1.0" encoding="utf-8"?>
<!-- Generator: Adobe Illustrator 22.1.0, SVG Export Plug-In . SVG Version: 6.00 Build 0)  -->
<svg version="1.1" id="Layer_1" xmlns="http://www.w3.org/2000/svg" xmlns:xlink="http://www.w3.org/1999/xlink" x="0px" y="0px"
	 viewBox="0 0 24 24" style="enable-background:new 0 0 24 24;" xml:space="preserve">
<g>
	<title>road-sign-bicycles</title>
	<path d="M12,24C5.383,24,0,18.617,0,12C0,5.383,5.383,0,12,0c6.617,0,12,5.383,12,12C24,18.617,18.617,24,12,24z M12,1
		C5.935,1,1,5.935,1,12s4.935,11,11,11s11-4.935,11-11S18.065,1,12,1z"/>
	<path d="M17,18c-1.654,0-3-1.346-3-3c0-1.006,0.509-1.943,1.342-2.497l-0.461-1.035l-2.986,3.84
		c-0.012,0.015-0.03,0.033-0.048,0.047c-0.025,0.025-0.054,0.047-0.087,0.068c-0.02,0.012-0.039,0.023-0.059,0.031
		c-0.016,0.009-0.036,0.019-0.062,0.027c-0.048,0.013-0.093,0.02-0.139,0.02h-0.544C10.716,16.919,9.459,18,8,18
		c-1.654,0-3-1.346-3-3c0.007-0.816,0.33-1.577,0.91-2.146c0.572-0.562,1.324-0.871,2.118-0.871l0.041,0
		c0.436,0.004,0.869,0.103,1.265,0.29l0.62-0.868L9.409,9.5H8.5C8.224,9.5,8,9.276,8,9s0.224-0.5,0.5-0.5H11
		c0.276,0,0.5,0.224,0.5,0.5S11.276,9.5,11,9.5h-0.551l0.403,1.41l3.441-0.765l-0.849-1.909c-0.223-0.505,0.005-1.097,0.509-1.32
		c0.046-0.021,0.094-0.037,0.142-0.051l1.274-0.348C15.412,6.506,15.456,6.5,15.5,6.5c0.225,0,0.424,0.151,0.483,0.368
		c0.073,0.266-0.085,0.541-0.351,0.614L14.357,7.83l1.898,4.266C16.5,12.032,16.75,12,17,12c1.654,0,3,1.346,3,3S18.654,18,17,18z
		 M15.757,13.437C15.284,13.814,15,14.391,15,15c0,1.103,0.897,2,2,2s2-0.897,2-2s-0.897-2-2-2c-0.111,0-0.221,0.009-0.33,0.028
		l0.787,1.769c0.112,0.252-0.002,0.548-0.254,0.66C17.139,15.486,17.071,15.5,17,15.5c-0.198,0-0.377-0.116-0.457-0.297
		L15.757,13.437z M8.055,12.983c-0.556,0-1.055,0.202-1.444,0.584C6.222,13.949,6.005,14.459,6,15.004C6,16.104,6.897,17,8,17
		c0.924,0,1.713-0.628,1.936-1.5H8c-0.188,0-0.359-0.104-0.445-0.271c-0.086-0.167-0.072-0.366,0.038-0.52l1.143-1.601
		c-0.219-0.082-0.446-0.124-0.678-0.126l-0.004-0.25V12.983z M10.837,14.5l-0.533-1.866L8.972,14.5H10.837z M11.71,13.916
		l2.042-2.626l-2.626,0.584L11.71,13.916z"/>
</g>
</svg>
