<?xml version="1.0" encoding="utf-8"?>
<!-- Generator: Adobe Illustrator 22.1.0, SVG Export Plug-In . SVG Version: 6.00 Build 0)  -->
<svg version="1.1" id="Layer_1" xmlns="http://www.w3.org/2000/svg" xmlns:xlink="http://www.w3.org/1999/xlink" x="0px" y="0px"
	 viewBox="0 0 24 24" style="enable-background:new 0 0 24 24;" xml:space="preserve">
<g>
	<title>road-sign-3-way</title>
	<path d="M10.495,15c-0.2,0-0.385-0.127-0.46-0.315l-0.571-1.427C9.157,12.487,9,11.675,9,10.845V9.5C9,9.224,9.224,9,9.5,9
		S10,9.224,10,9.5v1.345c0,0.703,0.133,1.39,0.393,2.042l0.028,0.069l0.598-2.094C11.08,10.649,11.278,10.5,11.5,10.5
		s0.42,0.149,0.481,0.363l0.598,2.094l0.028-0.069C12.867,12.235,13,11.547,13,10.845V9.5C13,9.224,13.224,9,13.5,9S14,9.224,14,9.5
		v1.345c0,0.831-0.156,1.643-0.465,2.414l-0.571,1.427C12.888,14.876,12.706,15,12.5,15c-0.005,0-0.022,0-0.027-0.001
		c-0.212-0.011-0.394-0.156-0.453-0.362L11.5,12.82l-0.519,1.817c-0.058,0.205-0.241,0.351-0.455,0.362C10.522,15,10.5,15,10.495,15
		z"/>
	<path d="M17.5,15c-0.276,0-0.5-0.224-0.5-0.5V13h-1v1.5c0,0.276-0.224,0.5-0.5,0.5S15,14.776,15,14.5v-4C15,9.673,15.673,9,16.5,9
		S18,9.673,18,10.5v4C18,14.776,17.776,15,17.5,15z M17,12v-1.5c0-0.276-0.224-0.5-0.5-0.5S16,10.224,16,10.5V12H17z"/>
	<path d="M20.5,15c-0.276,0-0.5-0.224-0.5-0.5v-2.086c-0.59-0.209-1-0.774-1-1.414V9.5C19,9.224,19.224,9,19.5,9S20,9.224,20,9.5V11
		c0,0.276,0.224,0.5,0.5,0.5S21,11.276,21,11V9.5C21,9.224,21.224,9,21.5,9S22,9.224,22,9.5V11c0,0.64-0.41,1.205-1,1.414V14.5
		C21,14.776,20.776,15,20.5,15z"/>
	<path d="M1.5,18C0.673,18,0,17.327,0,16.5v-9C0,6.673,0.673,6,1.5,6h21C23.327,6,24,6.673,24,7.5v9c0,0.827-0.673,1.5-1.5,1.5H1.5z
		 M1.5,7C1.224,7,1,7.224,1,7.5v9C1,16.776,1.224,17,1.5,17h21c0.276,0,0.5-0.224,0.5-0.5v-9C23,7.224,22.776,7,22.5,7H1.5z"/>
	<path d="M3.5,15C2.673,15,2,14.327,2,13.5C2,13.224,2.224,13,2.5,13S3,13.224,3,13.5S3.224,14,3.5,14h0.757
		c0.414,0,0.75-0.336,0.75-0.75s-0.336-0.75-0.75-0.75c-0.276,0-0.5-0.224-0.5-0.5c0-0.276,0.224-0.5,0.5-0.5
		c0.414,0,0.75-0.336,0.75-0.75S4.671,10,4.257,10H3.5C3.224,10,3,10.224,3,10.5S2.776,11,2.5,11S2,10.776,2,10.5
		C2,9.673,2.673,9,3.5,9h0.757c0.965,0,1.75,0.785,1.75,1.75c0,0.476-0.192,0.924-0.526,1.25c0.334,0.326,0.526,0.774,0.526,1.25
		C6.007,14.215,3.5,15,3.5,15z"/>
</g>
</svg>
