<?xml version="1.0" encoding="utf-8"?>
<!-- Generator: Adobe Illustrator 22.1.0, SVG Export Plug-In . SVG Version: 6.00 Build 0)  -->
<svg version="1.1" id="Layer_1" xmlns="http://www.w3.org/2000/svg" xmlns:xlink="http://www.w3.org/1999/xlink" x="0px" y="0px"
	 viewBox="0 0 24 24" style="enable-background:new 0 0 24 24;" xml:space="preserve">
<g>
	<title>road-sign-2.5m-high-1</title>
	<path d="M12,23.085c-0.401,0-0.778-0.156-1.061-0.439l-9.585-9.586C1.07,12.777,0.914,12.401,0.914,12
		c0-0.401,0.156-0.777,0.439-1.061l9.586-9.585c0.283-0.283,0.66-0.439,1.061-0.439c0.401,0,0.778,0.156,1.061,0.439l9.585,9.585
		c0.283,0.283,0.439,0.66,0.439,1.061c0,0.401-0.156,0.778-0.439,1.061l-9.585,9.586C12.777,22.929,12.401,23.085,12,23.085z
		 M12,1.922c-0.136,0-0.265,0.051-0.354,0.139l-9.585,9.585C1.966,11.741,1.914,11.866,1.914,12s0.052,0.259,0.146,0.354
		l9.585,9.586c0.094,0.094,0.22,0.146,0.354,0.146s0.259-0.052,0.354-0.146l9.585-9.585c0.094-0.094,0.146-0.22,0.146-0.354
		c0-0.133-0.052-0.259-0.146-0.354l-9.585-9.585C12.265,1.972,12.136,1.922,12,1.922z"/>
	<path d="M12,6.5c-0.134,0-0.259-0.052-0.354-0.146l-1-1C10.552,5.259,10.5,5.134,10.5,5s0.052-0.259,0.146-0.354S10.867,4.5,11,4.5
		s0.259,0.052,0.354,0.146L12,5.293l0.646-0.646C12.741,4.552,12.867,4.5,13,4.5s0.259,0.052,0.354,0.146S13.5,4.866,13.5,5
		s-0.052,0.259-0.146,0.354l-1,1C12.259,6.448,12.134,6.5,12,6.5z"/>
	<path d="M13,20.5c-0.134,0-0.259-0.052-0.354-0.146L12,19.707l-0.646,0.646C11.259,20.448,11.134,20.5,11,20.5
		s-0.259-0.052-0.354-0.146S10.5,20.134,10.5,20s0.052-0.259,0.146-0.354l1-1C11.741,18.552,11.867,18.5,12,18.5
		s0.259,0.052,0.354,0.146l1,1C13.448,19.741,13.5,19.866,13.5,20s-0.052,0.259-0.146,0.354S13.134,20.5,13,20.5z"/>
	<path d="M8,12.5c-0.191,0-0.368-0.111-0.451-0.283c-0.083-0.172-0.059-0.38,0.06-0.529l1.688-2.11C9.428,9.415,9.5,9.209,9.5,9
		c0-0.276-0.224-0.5-0.5-0.5S8.5,8.724,8.5,9S8.276,9.5,8,9.5S7.5,9.276,7.5,9c0-0.827,0.673-1.5,1.5-1.5s1.5,0.673,1.5,1.5
		c0,0.435-0.15,0.863-0.422,1.203L9.04,11.5H10c0.276,0,0.5,0.224,0.5,0.5c0,0.276-0.224,0.5-0.5,0.5H8z"/>
	<path d="M14,12.5c-0.276,0-0.5-0.224-0.5-0.5c0-0.276,0.224-0.5,0.5-0.5h1c0.276,0,0.5-0.224,0.5-0.5s-0.224-0.5-0.5-0.5h-0.5
		c-0.552,0-1-0.449-1-1V8c0-0.276,0.224-0.5,0.5-0.5h2c0.276,0,0.5,0.224,0.5,0.5S16.276,8.5,16,8.5h-1.5v1H15
		c0.827,0,1.5,0.673,1.5,1.5s-0.673,1.5-1.5,1.5H14z"/>
	<path d="M12,12.75c-0.414,0-0.75-0.336-0.75-0.75s0.336-0.75,0.75-0.75c0.413,0,0.75,0.336,0.75,0.75S12.414,12.75,12,12.75z"/>
	<path d="M13.5,18c-0.276,0-0.5-0.224-0.5-0.5v-1.695l-0.571,0.952c-0.088,0.147-0.248,0.234-0.429,0.234s-0.341-0.087-0.429-0.234
		L11,15.805V17.5c0,0.276-0.224,0.5-0.5,0.5S10,17.776,10,17.5V14c0-0.224,0.151-0.422,0.366-0.482
		c0.045-0.012,0.089-0.018,0.133-0.018c0.175,0,0.339,0.093,0.429,0.242L12,15.528l1.071-1.786c0.09-0.15,0.254-0.243,0.429-0.243
		c0.045,0,0.09,0.006,0.133,0.018C13.849,13.578,14,13.776,14,14v3.5C14,17.776,13.776,18,13.5,18z"/>
</g>
</svg>
