<?xml version="1.0" encoding="utf-8"?>
<!-- Generator: Adobe Illustrator 22.1.0, SVG Export Plug-In . SVG Version: 6.00 Build 0)  -->
<svg version="1.1" id="Layer_1" xmlns="http://www.w3.org/2000/svg" xmlns:xlink="http://www.w3.org/1999/xlink" x="0px" y="0px"
	 viewBox="0 0 24 24" style="enable-background:new 0 0 24 24;" xml:space="preserve">
<g>
	<title>road-sign-hairpin-turn-right</title>
	<path d="M12,23.085c-0.401,0-0.778-0.156-1.061-0.439l-9.585-9.586C1.07,12.777,0.914,12.401,0.914,12
		c0-0.401,0.156-0.777,0.439-1.061l9.586-9.585c0.283-0.283,0.66-0.439,1.061-0.439c0.401,0,0.778,0.156,1.061,0.439l9.585,9.585
		c0.283,0.283,0.439,0.66,0.439,1.061c0,0.401-0.156,0.778-0.439,1.061l-9.585,9.586C12.777,22.929,12.401,23.085,12,23.085z
		 M12,1.922c-0.136,0-0.265,0.051-0.354,0.139l-9.585,9.585C1.966,11.741,1.914,11.866,1.914,12s0.052,0.259,0.146,0.354
		l9.585,9.586c0.094,0.094,0.22,0.146,0.354,0.146s0.259-0.052,0.354-0.146l9.585-9.585c0.094-0.094,0.146-0.22,0.146-0.354
		c0-0.133-0.052-0.259-0.146-0.354l-9.585-9.585C12.265,1.972,12.136,1.922,12,1.922z"/>
	<path d="M9,17c-0.276,0-0.5-0.224-0.5-0.5v-6c0-2.206,1.794-4,4-4s4,1.794,4,4v2.16l1.207-1.477C17.803,11.067,17.944,11,18.095,11
		c0.115,0,0.227,0.04,0.316,0.113c0.103,0.084,0.167,0.204,0.181,0.337s-0.026,0.263-0.11,0.366l-2.094,2.562
		c-0.01,0.011-0.021,0.023-0.034,0.034c-0.028,0.027-0.055,0.046-0.075,0.059c-0.021,0.016-0.041,0.029-0.064,0.04
		c-0.047,0.022-0.086,0.029-0.112,0.034c0.002,0-0.031,0.012-0.072,0.014c-0.005,0-0.024,0.001-0.029,0.001
		c-0.065,0-0.13-0.013-0.191-0.038c-0.044-0.018-0.074-0.041-0.092-0.055c-0.019-0.011-0.05-0.033-0.065-0.049l-2.625-2.562
		c-0.096-0.093-0.149-0.218-0.151-0.352c-0.002-0.134,0.049-0.26,0.142-0.355C13.113,11.053,13.24,11,13.375,11
		c0.131,0,0.255,0.05,0.349,0.142l1.776,1.733V10.5c0-1.654-1.346-3-3-3c-1.654,0-3,1.346-3,3v6C9.5,16.776,9.276,17,9,17z"/>
</g>
</svg>
