<?xml version="1.0" encoding="utf-8"?>
<!-- Generator: Adobe Illustrator 22.1.0, SVG Export Plug-In . SVG Version: 6.00 Build 0)  -->
<svg version="1.1" id="Layer_1" xmlns="http://www.w3.org/2000/svg" xmlns:xlink="http://www.w3.org/1999/xlink" x="0px" y="0px"
	 viewBox="0 0 24 24" style="enable-background:new 0 0 24 24;" xml:space="preserve">
<g>
	<title>road-sign-sharp-turn</title>
	<path d="M11.986,23.792c-0.272-0.005-0.521-0.114-0.706-0.306L0.487,12.296c-0.185-0.193-0.285-0.445-0.28-0.712
		c0.005-0.267,0.114-0.516,0.306-0.702L11.306,0.485C11.494,0.304,11.741,0.205,12,0.205c0.26,0,0.506,0.1,0.694,0.281
		l10.792,10.396c0.193,0.185,0.302,0.434,0.306,0.702c0.005,0.267-0.094,0.52-0.28,0.712L12.72,23.486
		c-0.014,0.014-0.031,0.03-0.033,0.033c-0.18,0.174-0.426,0.273-0.686,0.273H11.986z M1.207,11.602L12,22.791l10.793-11.19L12,1.206
		L1.207,11.602z"/>
	<path d="M12,20.011c-0.276,0-0.5-0.224-0.5-0.5v-1.5c0-0.134,0.052-0.259,0.146-0.354l1.646-1.646l-2.788-2.789
		c-0.194-0.194-0.297-0.445-0.297-0.712c0-0.267,0.104-0.518,0.294-0.707L12,10.304V6.311L9.652,8.909
		c-0.095,0.105-0.23,0.165-0.371,0.165c-0.124,0-0.243-0.046-0.335-0.129C8.847,8.855,8.789,8.732,8.782,8.599
		C8.775,8.465,8.821,8.337,8.91,8.238l3.219-3.562c0.01-0.011,0.022-0.022,0.034-0.032c0.016-0.014,0.029-0.023,0.037-0.028
		c0.064-0.05,0.14-0.083,0.224-0.095c0.017-0.004,0.043-0.01,0.075-0.01c0,0,0.028,0.002,0.033,0.002
		c0.01,0.001,0.021,0.003,0.031,0.005c0.038,0.005,0.087,0.013,0.139,0.036c0.018,0.008,0.05,0.028,0.066,0.04
		c0.015,0.008,0.047,0.028,0.079,0.059c0.01,0.009,0.02,0.018,0.029,0.028l3,3.437c0.181,0.208,0.16,0.524-0.048,0.706
		c-0.092,0.08-0.208,0.123-0.329,0.123l0,0c-0.145,0-0.282-0.062-0.377-0.172L13,6.345v4.167c0,0.134-0.052,0.259-0.146,0.354
		l-1.646,1.646L14,15.304c0.39,0.389,0.391,1.023,0.001,1.414L12.5,18.219v1.293C12.5,19.787,12.276,20.011,12,20.011z"/>
</g>
</svg>
