<?xml version="1.0" encoding="utf-8"?>
<!-- Generator: Adobe Illustrator 22.1.0, SVG Export Plug-In . SVG Version: 6.00 Build 0)  -->
<svg version="1.1" id="Layer_1" xmlns="http://www.w3.org/2000/svg" xmlns:xlink="http://www.w3.org/1999/xlink" x="0px" y="0px"
	 viewBox="0 0 24 24" style="enable-background:new 0 0 24 24;" xml:space="preserve">
<g>
	<title>road-sign-water-ahead</title>
	<path d="M12,23.085c-0.401,0-0.778-0.156-1.061-0.439l-9.585-9.586C1.07,12.777,0.914,12.401,0.914,12
		c0-0.401,0.156-0.777,0.439-1.061l9.586-9.585c0.283-0.283,0.66-0.439,1.061-0.439c0.401,0,0.778,0.156,1.061,0.439l9.585,9.585
		c0.283,0.283,0.439,0.66,0.439,1.061c0,0.401-0.156,0.778-0.439,1.061l-9.585,9.586C12.777,22.929,12.401,23.085,12,23.085z
		 M12,1.922c-0.136,0-0.265,0.051-0.354,0.139l-9.585,9.585C1.966,11.741,1.914,11.866,1.914,12s0.052,0.259,0.146,0.354
		l9.585,9.586c0.094,0.094,0.22,0.146,0.354,0.146s0.259-0.052,0.354-0.146l9.585-9.585c0.094-0.094,0.146-0.22,0.146-0.354
		c0-0.133-0.052-0.259-0.146-0.354l-9.585-9.585C12.265,1.972,12.136,1.922,12,1.922z"/>
	<path d="M16.499,16.69c-0.545-0.002-1.069-0.18-1.498-0.507c-0.43,0.327-0.957,0.506-1.499,0.506c-0.547,0-1.073-0.178-1.502-0.505
		c-0.429,0.327-0.956,0.505-1.498,0.505c-0.548,0-1.073-0.178-1.502-0.506C8.57,16.51,8.046,16.688,7.502,16.69
		c-0.276,0-0.501-0.224-0.501-0.499c-0.001-0.276,0.223-0.5,0.498-0.501C7.93,15.689,8.34,15.5,8.622,15.173
		C8.717,15.063,8.855,15,9,15c0.146,0,0.285,0.064,0.38,0.175c0.256,0.299,0.614,0.48,1.006,0.511
		c0.041,0.003,0.08,0.005,0.12,0.005c0.347,0,0.686-0.126,0.953-0.355c0.057-0.048,0.111-0.103,0.161-0.161
		C11.716,15.063,11.854,15,12,15c0.146,0,0.285,0.064,0.38,0.175c0.28,0.327,0.689,0.515,1.121,0.515
		c0.352,0,0.692-0.126,0.958-0.354c0.057-0.049,0.111-0.103,0.16-0.16C14.715,15.064,14.853,15,14.999,15
		c0.146,0,0.285,0.063,0.38,0.173c0.282,0.327,0.691,0.515,1.123,0.517c0.276,0.001,0.5,0.226,0.499,0.502
		C16.999,16.466,16.775,16.69,16.499,16.69L16.499,16.69z"/>
	<path d="M8,14c-0.276,0-0.5-0.224-0.5-0.5v-1h-3C4.224,12.5,4,12.276,4,12c0-0.276,0.224-0.5,0.5-0.5h3.293l2.354-2.354
		C10.241,9.052,10.367,9,10.5,9s0.259,0.052,0.354,0.146S11,9.366,11,9.5s-0.052,0.259-0.146,0.354L8.5,12.207V13.5
		C8.5,13.776,8.276,14,8,14z"/>
	<path d="M16,14c-0.276,0-0.5-0.224-0.5-0.5v-1.293l-2.354-2.354C13.052,9.759,13,9.634,13,9.5s0.052-0.259,0.146-0.354
		S13.367,9,13.5,9s0.259,0.052,0.354,0.146l2.354,2.354H19.5c0.276,0,0.5,0.224,0.5,0.5c0,0.276-0.224,0.5-0.5,0.5h-3v1
		C16.5,13.776,16.276,14,16,14z"/>
</g>
</svg>
