<?xml version="1.0" encoding="utf-8"?>
<!-- Generator: Adobe Illustrator 22.1.0, SVG Export Plug-In . SVG Version: 6.00 Build 0)  -->
<svg version="1.1" id="Layer_1" xmlns="http://www.w3.org/2000/svg" xmlns:xlink="http://www.w3.org/1999/xlink" x="0px" y="0px"
	 viewBox="0 0 24 24" style="enable-background:new 0 0 24 24;" xml:space="preserve">
<g>
	<title>road-sign-turn-left-3</title>
	<path d="M12,24C5.383,24,0,18.617,0,12C0,5.383,5.383,0,12,0c6.617,0,12,5.383,12,12C24,18.617,18.617,24,12,24z M12,1
		C5.935,1,1,5.935,1,12s4.935,11,11,11s11-4.935,11-11S18.065,1,12,1z"/>
	<path d="M14.5,17c-0.276,0-0.5-0.224-0.5-0.5v-4c0-0.827-0.673-1.5-1.5-1.5H9.707l1.146,1.146C10.948,12.241,11,12.366,11,12.5
		s-0.052,0.259-0.146,0.354S10.634,13,10.5,13s-0.259-0.052-0.354-0.146l-2-2c-0.046-0.046-0.083-0.101-0.108-0.162
		c-0.05-0.122-0.05-0.261,0-0.383c0.026-0.062,0.062-0.116,0.108-0.163l2-2C10.241,8.052,10.366,8,10.5,8s0.259,0.052,0.354,0.146
		S11,8.366,11,8.5s-0.052,0.259-0.146,0.354L9.707,10H12.5c1.378,0,2.5,1.121,2.5,2.5v4C15,16.776,14.776,17,14.5,17z"/>
</g>
</svg>
