<?xml version="1.0" encoding="utf-8"?>
<!-- Generator: Adobe Illustrator 22.1.0, SVG Export Plug-In . SVG Version: 6.00 Build 0)  -->
<svg version="1.1" id="Layer_1" xmlns="http://www.w3.org/2000/svg" xmlns:xlink="http://www.w3.org/1999/xlink" x="0px" y="0px"
	 viewBox="0 0 24 24" style="enable-background:new 0 0 24 24;" xml:space="preserve">
<g>
	<title>road-sign-side-road-angle-left-2</title>
	<path d="M12,23.585c-0.401,0-0.778-0.156-1.061-0.439L0.854,13.061C0.571,12.778,0.415,12.401,0.415,12s0.156-0.777,0.439-1.061
		L10.939,0.854c0.283-0.283,0.66-0.439,1.061-0.439c0.401,0,0.778,0.156,1.061,0.44L23.146,10.94
		c0.283,0.283,0.439,0.66,0.439,1.061c0,0.401-0.156,0.778-0.439,1.061L13.061,23.146C12.778,23.429,12.401,23.585,12,23.585z
		 M12,1.422c-0.136,0-0.265,0.051-0.354,0.139L1.561,11.647C1.467,11.741,1.415,11.867,1.415,12c0,0.134,0.052,0.259,0.146,0.354
		l10.085,10.086c0.094,0.094,0.22,0.146,0.354,0.146s0.259-0.052,0.354-0.146l10.085-10.086c0.094-0.094,0.146-0.22,0.146-0.354
		s-0.052-0.259-0.146-0.354L12.354,1.561C12.265,1.473,12.136,1.422,12,1.422z"/>
	<path d="M11.5,16.999c-0.276,0-0.5-0.224-0.5-0.5V13.86l-3.567-1.186c-0.524-0.176-0.807-0.743-0.631-1.266
		c0.023-0.068,0.053-0.135,0.09-0.196l0.973-1.625C8.048,9.281,8.368,9.1,8.72,9.1c0.108,0,0.215,0.018,0.319,0.052L11,9.805V7.999
		c0-0.551,0.449-1,1-1h2.5c0.276,0,0.5,0.224,0.5,0.5v9c0,0.276-0.224,0.5-0.5,0.5H11.5z M14,15.999v-8h-2v2.5
		c0,0.161-0.078,0.312-0.208,0.406c-0.085,0.061-0.186,0.094-0.292,0.094c-0.053,0-0.106-0.008-0.156-0.025L8.723,10.1L7.75,11.725
		l3.908,1.299C11.862,13.093,12,13.283,12,13.499v2.5H14z"/>
</g>
</svg>
