<?xml version="1.0" encoding="utf-8"?>
<!-- Generator: Adobe Illustrator 22.1.0, SVG Export Plug-In . SVG Version: 6.00 Build 0)  -->
<svg version="1.1" id="Layer_1" xmlns="http://www.w3.org/2000/svg" xmlns:xlink="http://www.w3.org/1999/xlink" x="0px" y="0px"
	 viewBox="0 0 24 24" style="enable-background:new 0 0 24 24;" xml:space="preserve">
<g>
	<title>road-sign-no-pedestrian-crossing</title>
	<path d="M12,24c-3.177,0-6.172-1.234-8.436-3.475c-0.01-0.006-0.029-0.02-0.049-0.04c-0.011-0.011-0.026-0.03-0.037-0.047
		C1.235,18.174,0,15.178,0,12C0,5.383,5.383,0,12,0c3.178,0,6.173,1.234,8.437,3.476c0.009,0.005,0.029,0.019,0.048,0.039
		c0.011,0.011,0.026,0.03,0.038,0.047C22.766,5.826,24,8.822,24,12C24,18.617,18.617,24,12,24z M4.589,20.118
		C6.624,21.979,9.246,23,12,23c6.065,0,11-4.935,11-11c0-2.754-1.021-5.376-2.882-7.411L4.589,20.118z M12,1C5.935,1,1,5.935,1,12
		c0,2.754,1.021,5.376,2.882,7.411L19.411,3.882C17.376,2.021,14.754,1,12,1z"/>
	<path d="M9,9C7.346,9,6,7.654,6,6s1.346-3,3-3s3,1.346,3,3S10.654,9,9,9z M9,4C7.897,4,7,4.897,7,6s0.897,2,2,2s2-0.897,2-2
		S10.103,4,9,4z"/>
	<path d="M6.136,15.998c-0.273-0.025-0.477-0.268-0.452-0.543l0.318-3.5C6,11.057,6.445,10.171,7.191,9.607
		C7.716,9.21,8.34,9,8.996,9c0.138,0,0.278,0.01,0.417,0.029c0.794,0.11,1.497,0.523,1.981,1.162
		c0.081,0.106,0.115,0.238,0.097,0.37c-0.018,0.132-0.087,0.25-0.194,0.33c-0.087,0.066-0.192,0.101-0.301,0.101
		c-0.156,0-0.305-0.074-0.399-0.199c-0.381-0.504-0.963-0.792-1.598-0.792c-0.438,0-0.854,0.14-1.204,0.404
		C7.297,10.781,7,11.377,7,12l-0.32,3.545C6.656,15.805,6.442,16,6.182,16C6.174,16,6.144,15.999,6.136,15.998z"/>
	<path d="M10.5,21c-0.276,0-0.5-0.224-0.5-0.5V18H9c-0.276,0-0.5-0.224-0.5-0.5S8.724,17,9,17h2.452l-0.176-1.962
		c-0.025-0.274,0.178-0.518,0.453-0.543c0.008-0.001,0.039-0.002,0.046-0.002c0.26,0,0.473,0.196,0.497,0.455l0.178,1.963
		c0.003,0.033,0.004,0.064,0.004,0.095c-0.001,0.266-0.106,0.517-0.295,0.705C11.97,17.897,11.72,18,11.454,18H11v2.5
		C11,20.776,10.776,21,10.5,21z"/>
	<path d="M13.5,14c-0.135,0-0.261-0.053-0.356-0.149l-0.493-0.498c-0.194-0.196-0.192-0.513,0.004-0.707
		c0.094-0.093,0.219-0.145,0.352-0.145c0.135,0,0.261,0.053,0.355,0.149l0.493,0.498c0.194,0.196,0.192,0.513-0.004,0.707
		C13.758,13.949,13.633,14,13.5,14z"/>
	<path d="M17,14.5c-1.103,0-2-0.897-2-2s0.897-2,2-2s2,0.897,2,2S18.103,14.5,17,14.5z M17,11.5c-0.552,0-1,0.449-1,1
		c0,0.552,0.448,1,1,1s1-0.448,1-1C18,11.949,17.552,11.5,17,11.5z"/>
	<path d="M16.5,21c-0.276,0-0.5-0.224-0.5-0.5V19c-0.552,0-1-0.448-1-1v-1.293l-0.854-0.854c-0.195-0.195-0.195-0.512,0-0.707
		C14.241,15.052,14.366,15,14.5,15s0.259,0.052,0.354,0.146l0.392,0.392C15.591,14.905,16.256,14.5,17,14.5c1.103,0,2,0.897,2,2V18
		c0,0.416-0.255,0.773-0.617,0.924l0.533,0.799c0.074,0.111,0.101,0.244,0.074,0.375c-0.026,0.131-0.102,0.244-0.213,0.318
		C18.694,20.471,18.599,20.5,18.5,20.5c-0.168,0-0.323-0.083-0.416-0.223L17.232,19H17v1.5C17,20.776,16.776,21,16.5,21z M17,15.5
		c-0.552,0-1,0.448-1,1V18h2v-1.5C18,15.948,17.552,15.5,17,15.5z"/>
	<path d="M7.5,21C7.224,21,7,20.776,7,20.5V19c0-0.276,0.224-0.5,0.5-0.5S8,18.724,8,19v1.5C8,20.776,7.776,21,7.5,21z"/>
</g>
</svg>
