<?xml version="1.0" encoding="utf-8"?>
<!-- Generator: Adobe Illustrator 22.1.0, SVG Export Plug-In . SVG Version: 6.00 Build 0)  -->
<svg version="1.1" id="Layer_1" xmlns="http://www.w3.org/2000/svg" xmlns:xlink="http://www.w3.org/1999/xlink" x="0px" y="0px"
	 viewBox="0 0 24 24" style="enable-background:new 0 0 24 24;" xml:space="preserve">
<g>
	<title>road-sign-turn-right</title>
	<path d="M1.5,17c-0.392,0-0.762-0.151-1.044-0.424c-0.009-0.008-0.018-0.016-0.026-0.025c-0.003-0.003-0.005-0.006-0.008-0.01
		C0.153,16.268,0,15.895,0,15.5v-7c0-0.392,0.151-0.763,0.425-1.044C0.43,7.45,0.435,7.444,0.44,7.439
		c0.005-0.005,0.01-0.01,0.016-0.015C0.738,7.15,1.108,7,1.5,7h21C23.327,7,24,7.673,24,8.5v7c0,0.827-0.673,1.5-1.5,1.5H1.5z
		 M22.5,16c0.276,0,0.5-0.224,0.5-0.5v-2.793L19.707,16H22.5z M18.293,16l4-4l-4-4h-4.586L17,11.292
		c0.39,0.389,0.391,1.023,0.001,1.414L13.707,16H18.293z M12.293,16l4-4l-4-4H7.707L11,11.292c0.189,0.188,0.293,0.439,0.293,0.706
		c0,0.264-0.102,0.514-0.286,0.702c-0.003,0.003-3.3,3.3-3.3,3.3H12.293z M6.293,16l3.996-3.996L6.293,8H1.707L5,11.292
		c0.189,0.188,0.293,0.439,0.293,0.706c0,0.264-0.102,0.514-0.286,0.702c-0.003,0.003-3.3,3.3-3.3,3.3H6.293z M1,15.293l3.289-3.289
		L1,8.708V15.293z M23,11.293V8.5C23,8.224,22.776,8,22.5,8h-2.793C19.707,8,23,11.293,23,11.293z"/>
</g>
</svg>
