<?xml version="1.0" encoding="utf-8"?>
<!-- Generator: Adobe Illustrator 22.1.0, SVG Export Plug-In . SVG Version: 6.00 Build 0)  -->
<svg version="1.1" id="Layer_1" xmlns="http://www.w3.org/2000/svg" xmlns:xlink="http://www.w3.org/1999/xlink" x="0px" y="0px"
	 viewBox="0 0 24 24" style="enable-background:new 0 0 24 24;" xml:space="preserve">
<g>
	<title>road-sign-oneway-right</title>
	<path d="M11.5,21c-0.276,0-0.5-0.224-0.5-0.5V14H1.5C0.673,14,0,13.327,0,12.5v-8C0,3.673,0.673,3,1.5,3h21
		C23.327,3,24,3.673,24,4.5v8c0,0.827-0.673,1.5-1.5,1.5H12v6.5C12,20.776,11.776,21,11.5,21z M1.5,4C1.224,4,1,4.224,1,4.5v8
		C1,12.776,1.224,13,1.5,13h21c0.276,0,0.5-0.224,0.5-0.5v-8C23,4.224,22.776,4,22.5,4H1.5z"/>
	<path d="M17,11.5c-0.161,0-0.313-0.078-0.407-0.209c-0.078-0.109-0.108-0.241-0.086-0.373c0.022-0.132,0.094-0.247,0.202-0.325
		L18.94,9H5C4.724,9,4.5,8.776,4.5,8.5S4.724,8,5,8h13.94l-2.23-1.593c-0.224-0.161-0.277-0.474-0.116-0.698
		C16.687,5.578,16.839,5.5,17,5.5c0.105,0,0.205,0.032,0.29,0.093l3.5,2.5c0.011,0.008,0.037,0.03,0.046,0.04
		c0.002,0.002,0.024,0.022,0.026,0.024c0.037,0.039,0.068,0.085,0.092,0.136c0.003,0.007,0.01,0.025,0.012,0.032
		C20.989,8.385,21,8.442,21,8.5c0,0.058-0.011,0.116-0.034,0.176c-0.001,0.003-0.009,0.022-0.01,0.026
		c-0.025,0.055-0.056,0.101-0.094,0.141c-0.006,0.006-0.019,0.019-0.025,0.024c-0.007,0.006-0.042,0.037-0.049,0.042l-3.498,2.499
		C17.205,11.468,17.105,11.5,17,11.5z"/>
</g>
</svg>
