<?xml version="1.0" encoding="utf-8"?>
<!-- Generator: Adobe Illustrator 22.1.0, SVG Export Plug-In . SVG Version: 6.00 Build 0)  -->
<svg version="1.1" id="Layer_1" xmlns="http://www.w3.org/2000/svg" xmlns:xlink="http://www.w3.org/1999/xlink" x="0px" y="0px"
	 viewBox="0 0 24 24" style="enable-background:new 0 0 24 24;" xml:space="preserve">
<g>
	<title>road-sign-turn-1</title>
	<path d="M12,23.085c-0.401,0-0.778-0.156-1.061-0.439l-9.585-9.586C1.07,12.777,0.914,12.401,0.914,12
		c0-0.401,0.156-0.777,0.439-1.061l9.586-9.585c0.283-0.283,0.66-0.439,1.061-0.439c0.401,0,0.778,0.156,1.061,0.439l9.585,9.585
		c0.283,0.283,0.439,0.66,0.439,1.061c0,0.401-0.156,0.778-0.439,1.061l-9.585,9.586C12.777,22.929,12.401,23.085,12,23.085z
		 M12,1.922c-0.136,0-0.265,0.051-0.354,0.139l-9.585,9.585C1.966,11.741,1.914,11.866,1.914,12s0.052,0.259,0.146,0.354
		l9.585,9.586c0.094,0.094,0.22,0.146,0.354,0.146s0.259-0.052,0.354-0.146l9.585-9.585c0.094-0.094,0.146-0.22,0.146-0.354
		c0-0.133-0.052-0.259-0.146-0.354l-9.585-9.585C12.265,1.972,12.136,1.922,12,1.922z"/>
	<path d="M11.5,17.5c-0.551,0-1-0.448-1-1v-6h-1c-0.551,0-1-0.449-1-1v-1c0-0.551,0.449-1,1-1h1v-1c0-0.551,0.449-1,1-1h1
		c0.552,0,1,0.449,1,1v6h1c0.552,0,1,0.448,1,1v1c0,0.552-0.448,1-1,1h-1v1c0,0.552-0.448,1-1,1H11.5z M9.5,9.5H11
		c0.276,0,0.5,0.224,0.5,0.5v6.5h1V15c0-0.276,0.224-0.5,0.5-0.5h1.5v-1H13c-0.276,0-0.5-0.224-0.5-0.5V6.5h-1V8
		c0,0.276-0.224,0.5-0.5,0.5h-1.5L9.5,9.5z"/>
</g>
</svg>
