<?xml version="1.0" encoding="utf-8"?>
<!-- Generator: Adobe Illustrator 22.1.0, SVG Export Plug-In . SVG Version: 6.00 Build 0)  -->
<svg version="1.1" id="Layer_1" xmlns="http://www.w3.org/2000/svg" xmlns:xlink="http://www.w3.org/1999/xlink" x="0px" y="0px"
	 viewBox="0 0 24 24" style="enable-background:new 0 0 24 24;" xml:space="preserve">
<g>
	<title>road-sign-lane-crossing-right</title>
	<path d="M12,23.085c-0.401,0-0.778-0.156-1.061-0.439l-9.585-9.586C1.07,12.777,0.914,12.401,0.914,12
		c0-0.401,0.156-0.777,0.439-1.061l9.586-9.585c0.283-0.283,0.66-0.439,1.061-0.439c0.401,0,0.778,0.156,1.061,0.439l9.585,9.585
		c0.283,0.283,0.439,0.66,0.439,1.061c0,0.401-0.156,0.778-0.439,1.061l-9.585,9.586C12.777,22.929,12.401,23.085,12,23.085z
		 M12,1.922c-0.136,0-0.265,0.051-0.354,0.139l-9.585,9.585C1.966,11.741,1.914,11.866,1.914,12s0.052,0.259,0.146,0.354
		l9.585,9.586c0.094,0.094,0.22,0.146,0.354,0.146s0.259-0.052,0.354-0.146l9.585-9.585c0.094-0.094,0.146-0.22,0.146-0.354
		c0-0.133-0.052-0.259-0.146-0.354l-9.585-9.585C12.265,1.972,12.136,1.922,12,1.922z"/>
	<path d="M10,17.75c-0.276,0-0.5-0.224-0.5-0.5v-2.043c0-0.267,0.104-0.517,0.292-0.706l3.708-3.708l0-2.585l-0.646,0.646
		C12.759,8.948,12.634,9,12.5,9s-0.259-0.052-0.354-0.146S12,8.634,12,8.5s0.052-0.259,0.146-0.354l1.5-1.5
		c0.047-0.047,0.101-0.083,0.163-0.109C13.87,6.513,13.934,6.5,14,6.5s0.13,0.013,0.191,0.038c0.061,0.025,0.116,0.062,0.163,0.108
		l1.5,1.5C15.948,8.241,16,8.366,16,8.5s-0.052,0.259-0.146,0.354S15.634,9,15.5,9s-0.259-0.052-0.354-0.146L14.5,8.207v2.586
		c0,0.266-0.104,0.517-0.292,0.706L10.5,15.208l0,2.042C10.5,17.526,10.276,17.75,10,17.75z"/>
	<path d="M10,11c-0.276,0-0.5-0.224-0.5-0.5V7c0-0.276,0.224-0.5,0.5-0.5s0.5,0.224,0.5,0.5v3.5C10.5,10.776,10.276,11,10,11z"/>
	<path d="M14,18c-0.276,0-0.5-0.224-0.5-0.5V15c0-0.276,0.224-0.5,0.5-0.5s0.5,0.224,0.5,0.5v2.5C14.5,17.776,14.276,18,14,18z"/>
</g>
</svg>
