<?xml version="1.0" encoding="utf-8"?>
<!-- Generator: Adobe Illustrator 22.1.0, SVG Export Plug-In . SVG Version: 6.00 Build 0)  -->
<svg version="1.1" id="Layer_1" xmlns="http://www.w3.org/2000/svg" xmlns:xlink="http://www.w3.org/1999/xlink" x="0px" y="0px"
	 viewBox="0 0 24 24" style="enable-background:new 0 0 24 24;" xml:space="preserve">
<g>
	<title>road-sign-look-both-ways-1</title>
	<path d="M12,23.085c-0.401,0-0.778-0.156-1.061-0.439l-9.585-9.586C1.07,12.777,0.914,12.401,0.914,12
		c0-0.401,0.156-0.777,0.439-1.061l9.586-9.585c0.283-0.283,0.66-0.439,1.061-0.439c0.401,0,0.778,0.156,1.061,0.439l9.585,9.585
		c0.283,0.283,0.439,0.66,0.439,1.061c0,0.401-0.156,0.778-0.439,1.061l-9.585,9.586C12.777,22.929,12.401,23.085,12,23.085z
		 M12,1.922c-0.136,0-0.265,0.051-0.354,0.139l-9.585,9.585C1.966,11.741,1.914,11.866,1.914,12s0.052,0.259,0.146,0.354
		l9.585,9.586c0.094,0.094,0.22,0.146,0.354,0.146s0.259-0.052,0.354-0.146l9.585-9.585c0.094-0.094,0.146-0.22,0.146-0.354
		c0-0.133-0.052-0.259-0.146-0.354l-9.585-9.585C12.265,1.972,12.136,1.922,12,1.922z"/>
	<path d="M6,14.5c-0.066,0-0.13-0.013-0.192-0.039c-0.122-0.05-0.22-0.149-0.27-0.271C5.513,14.129,5.5,14.065,5.5,14v-2
		c0-0.276,0.224-0.5,0.5-0.5s0.5,0.224,0.5,0.5v0.793l4.146-4.146C10.741,8.552,10.867,8.5,11,8.5s0.259,0.052,0.354,0.146
		S11.5,8.866,11.5,9s-0.052,0.259-0.146,0.354L7.207,13.5H8c0.276,0,0.5,0.224,0.5,0.5S8.276,14.5,8,14.5H6z"/>
	<path d="M16,14.5c-0.276,0-0.5-0.224-0.5-0.5s0.224-0.5,0.5-0.5h0.793l-4.146-4.146C12.552,9.259,12.5,9.134,12.5,9
		s0.052-0.259,0.146-0.354S12.867,8.5,13,8.5s0.259,0.052,0.354,0.146l4.146,4.146V12c0-0.276,0.224-0.5,0.5-0.5s0.5,0.224,0.5,0.5
		v2c0,0.066-0.013,0.13-0.039,0.191c-0.051,0.123-0.147,0.219-0.27,0.27C18.13,14.487,18.066,14.5,18,14.5H16z"/>
</g>
</svg>
