<?xml version="1.0" encoding="utf-8"?>
<!-- Generator: Adobe Illustrator 22.1.0, SVG Export Plug-In . SVG Version: 6.00 Build 0)  -->
<svg version="1.1" id="Layer_1" xmlns="http://www.w3.org/2000/svg" xmlns:xlink="http://www.w3.org/1999/xlink" x="0px" y="0px"
	 viewBox="0 0 24 24" style="enable-background:new 0 0 24 24;" xml:space="preserve">
<g>
	<title>road-sign-side-road-left-1_1</title>
	<path d="M12,23.585c-0.401,0-0.777-0.156-1.061-0.439L0.854,13.061C0.571,12.778,0.415,12.401,0.415,12
		c0-0.401,0.156-0.777,0.439-1.061L10.939,0.854c0.283-0.283,0.66-0.439,1.061-0.439s0.777,0.156,1.061,0.439l10.086,10.085
		c0.585,0.585,0.585,1.536,0,2.121L13.061,23.146C12.778,23.429,12.401,23.585,12,23.585z M12,1.415
		c-0.133,0-0.259,0.052-0.354,0.146L1.561,11.646C1.467,11.741,1.415,11.866,1.415,12s0.052,0.259,0.146,0.354l10.085,10.085
		c0.089,0.088,0.217,0.139,0.354,0.139c0.136,0,0.265-0.051,0.353-0.139l10.086-10.085c0.195-0.195,0.195-0.512,0-0.707
		L12.353,1.561C12.259,1.467,12.134,1.415,12,1.415z"/>
	<path d="M11.999,17c-0.551,0-1-0.448-1-1v-2h-2c-0.551,0-1-0.448-1-1v-2c0-0.551,0.449-1,1-1h2V8c0-0.551,0.449-1,1-1h2
		c0.552,0,1,0.449,1,1v8c0,0.552-0.448,1-1,1H11.999z M8.999,13h2.5c0.276,0,0.5,0.224,0.5,0.5V16h2V8h-2v2.5
		c0,0.276-0.224,0.5-0.5,0.5h-2.5L8.999,13z"/>
</g>
</svg>
