<?xml version="1.0" encoding="utf-8"?>
<!-- Generator: Adobe Illustrator 22.1.0, SVG Export Plug-In . SVG Version: 6.00 Build 0)  -->
<svg version="1.1" id="Layer_1" xmlns="http://www.w3.org/2000/svg" xmlns:xlink="http://www.w3.org/1999/xlink" x="0px" y="0px"
	 viewBox="0 0 24 24" style="enable-background:new 0 0 24 24;" xml:space="preserve">
<g>
	<title>road-sign-4m-high-1</title>
	<path d="M12,23.085c-0.401,0-0.778-0.156-1.061-0.439l-9.585-9.586C1.07,12.777,0.914,12.401,0.914,12
		c0-0.401,0.156-0.777,0.439-1.061l9.586-9.585c0.283-0.283,0.66-0.439,1.061-0.439c0.401,0,0.778,0.156,1.061,0.439l9.585,9.585
		c0.283,0.283,0.439,0.66,0.439,1.061c0,0.401-0.156,0.778-0.439,1.061l-9.585,9.586C12.777,22.929,12.401,23.085,12,23.085z
		 M12,1.922c-0.136,0-0.265,0.051-0.354,0.139l-9.585,9.585C1.966,11.741,1.914,11.866,1.914,12s0.052,0.259,0.146,0.354
		l9.585,9.586c0.094,0.094,0.22,0.146,0.354,0.146s0.259-0.052,0.354-0.146l9.585-9.585c0.094-0.094,0.146-0.22,0.146-0.354
		c0-0.133-0.052-0.259-0.146-0.354l-9.585-9.585C12.265,1.972,12.136,1.922,12,1.922z"/>
	<path d="M12,6.5c-0.134,0-0.259-0.052-0.354-0.146l-1-1C10.552,5.259,10.5,5.134,10.5,5s0.052-0.259,0.146-0.354S10.867,4.5,11,4.5
		s0.259,0.052,0.354,0.146L12,5.293l0.646-0.646C12.741,4.552,12.867,4.5,13,4.5s0.259,0.052,0.354,0.146S13.5,4.866,13.5,5
		s-0.052,0.259-0.146,0.354l-1,1C12.259,6.448,12.134,6.5,12,6.5z"/>
	<path d="M13,19.5c-0.134,0-0.259-0.052-0.354-0.146L12,18.707l-0.646,0.646C11.259,19.448,11.134,19.5,11,19.5
		s-0.259-0.052-0.354-0.146S10.5,19.134,10.5,19s0.052-0.259,0.146-0.354l1-1C11.741,17.552,11.867,17.5,12,17.5
		s0.259,0.052,0.354,0.146l1,1C13.448,18.741,13.5,18.866,13.5,19s-0.052,0.259-0.146,0.354S13.134,19.5,13,19.5z"/>
	<path d="M11,15c-0.276,0-0.5-0.224-0.5-0.5v-1H9c-0.276,0-0.5-0.224-0.5-0.5v-0.5c0-1.379,1.121-2.5,2.5-2.5
		c0.276,0,0.5,0.224,0.5,0.5v4C11.5,14.776,11.276,15,11,15z M10.5,12.5v-1.414c-0.586,0.209-1,0.773-1,1.414H10.5z"/>
	<path d="M16,15c-0.276,0-0.5-0.224-0.5-0.5v-2.195l-0.571,0.952c-0.088,0.147-0.248,0.234-0.429,0.234s-0.341-0.087-0.429-0.234
		L13.5,12.305V14.5c0,0.276-0.224,0.5-0.5,0.5s-0.5-0.224-0.5-0.5v-4c0-0.224,0.151-0.422,0.367-0.482C12.91,10.006,12.955,10,13,10
		c0.175,0,0.34,0.093,0.429,0.243l1.071,1.785l1.071-1.786C15.661,10.093,15.825,10,16,10c0.045,0,0.09,0.006,0.134,0.018
		c0.215,0.06,0.366,0.258,0.366,0.482v4C16.5,14.776,16.276,15,16,15z"/>
</g>
</svg>
