<?xml version="1.0" encoding="utf-8"?>
<!-- Generator: Adobe Illustrator 22.1.0, SVG Export Plug-In . SVG Version: 6.00 Build 0)  -->
<svg version="1.1" id="Layer_1" xmlns="http://www.w3.org/2000/svg" xmlns:xlink="http://www.w3.org/1999/xlink" x="0px" y="0px"
	 viewBox="0 0 24 24" style="enable-background:new 0 0 24 24;" xml:space="preserve">
<g>
	<title>road-sign-right-curve-1</title>
	<path d="M12,23.585c-0.401,0-0.777-0.156-1.061-0.439L0.854,13.061C0.571,12.778,0.415,12.401,0.415,12
		c0-0.401,0.156-0.777,0.439-1.061L10.939,0.854c0.283-0.283,0.66-0.439,1.061-0.439s0.777,0.156,1.061,0.439l10.086,10.085
		c0.585,0.585,0.585,1.536,0,2.121L13.061,23.146C12.778,23.429,12.401,23.585,12,23.585z M12,1.415
		c-0.133,0-0.259,0.052-0.354,0.146L1.561,11.646C1.467,11.741,1.415,11.866,1.415,12s0.052,0.259,0.146,0.354l10.085,10.085
		c0.089,0.088,0.217,0.139,0.354,0.139c0.136,0,0.265-0.051,0.353-0.139l10.086-10.085c0.195-0.195,0.195-0.512,0-0.707
		L12.353,1.561C12.259,1.467,12.134,1.415,12,1.415z"/>
	<path d="M9.999,18c-0.551,0-1-0.448-1-1v-2.793c0-0.267,0.104-0.517,0.292-0.706l2.708-2.708l0-1.793h-1
		c-0.203,0-0.384-0.121-0.462-0.309c-0.078-0.188-0.035-0.401,0.108-0.545L12.791,6c0.188-0.189,0.439-0.293,0.707-0.293
		c0.268,0,0.519,0.104,0.707,0.292l2.147,2.147c0.144,0.144,0.186,0.358,0.108,0.545C16.383,8.879,16.202,9,15.999,9h-1v2.793
		c0,0.266-0.104,0.517-0.292,0.706l-2.708,2.708l0,1.792c0,0.552-0.449,1-1,1H9.999z M12.499,8c0.276,0,0.5,0.224,0.5,0.5v2.293
		c0,0.266-0.104,0.517-0.292,0.706l-2.708,2.708l0,2.792h1v-1.793c0-0.267,0.104-0.517,0.292-0.706l2.708-2.708l0-3.292
		c0-0.276,0.224-0.5,0.5-0.5h0.293l-1.293-1.293L12.206,8H12.499z"/>
</g>
</svg>
