<?xml version="1.0" encoding="utf-8"?>
<!-- Generator: Adobe Illustrator 22.1.0, SVG Export Plug-In . SVG Version: 6.00 Build 0)  -->
<svg version="1.1" id="Layer_1" xmlns="http://www.w3.org/2000/svg" xmlns:xlink="http://www.w3.org/1999/xlink" x="0px" y="0px"
	 viewBox="0 0 24 24" style="enable-background:new 0 0 24 24;" xml:space="preserve">
<g>
	<title>road-sign-speed-limit-20</title>
	<path d="M15.5,16c-1.378,0-2.5-1.122-2.5-2.5v-2c0-1.379,1.122-2.5,2.5-2.5s2.5,1.121,2.5,2.5v2C18,14.878,16.878,16,15.5,16z
		 M15.5,10c-0.827,0-1.5,0.673-1.5,1.5v2c0,0.827,0.673,1.5,1.5,1.5s1.5-0.673,1.5-1.5v-2C17,10.673,16.327,10,15.5,10z"/>
	<path d="M12,24C5.383,24,0,18.617,0,12C0,5.383,5.383,0,12,0c6.617,0,12,5.383,12,12C24,18.617,18.617,24,12,24z M12,1
		C5.935,1,1,5.935,1,12s4.935,11,11,11s11-4.935,11-11S18.065,1,12,1z"/>
	<path d="M7.5,16c-0.215,0-0.406-0.137-0.474-0.342C6.957,15.454,7.027,15.229,7.2,15.1l3.2-2.4c0.376-0.282,0.6-0.731,0.6-1.2
		c0-0.827-0.673-1.5-1.5-1.5S8,10.673,8,11.5C8,11.776,7.776,12,7.5,12S7,11.776,7,11.5C7,10.121,8.121,9,9.5,9s2.5,1.121,2.5,2.5
		c0,0.783-0.374,1.531-1,2L9,15h2.5c0.276,0,0.5,0.224,0.5,0.5S11.776,16,11.5,16H7.5z"/>
</g>
</svg>
