<?xml version="1.0" encoding="utf-8"?>
<!-- Generator: Adobe Illustrator 22.1.0, SVG Export Plug-In . SVG Version: 6.00 Build 0)  -->
<svg version="1.1" id="Layer_1" xmlns="http://www.w3.org/2000/svg" xmlns:xlink="http://www.w3.org/1999/xlink" x="0px" y="0px"
	 viewBox="0 0 24 24" style="enable-background:new 0 0 24 24;" xml:space="preserve">
<g>
	<title>road-sign-no-entry-1</title>
	<path d="M12,24c-2.405,0-4.727-0.712-6.715-2.06c-0.048-0.024-0.091-0.054-0.128-0.09c-1.176-0.819-2.187-1.831-3.006-3.007
		c-0.001,0-0.001-0.001-0.002-0.002c-0.033-0.033-0.065-0.077-0.089-0.127C0.712,16.726,0,14.405,0,12C0,5.383,5.383,0,12,0
		c2.405,0,4.726,0.712,6.714,2.059c0.049,0.024,0.092,0.054,0.129,0.091c1.176,0.819,2.188,1.831,3.007,3.007
		c0.037,0.039,0.067,0.081,0.089,0.127C23.288,7.273,24,9.595,24,12C24,18.617,18.617,24,12,24z M6.304,21.404
		C8.023,22.449,9.985,23,12,23c6.065,0,11-4.935,11-11c0-2.015-0.551-3.977-1.596-5.696L6.304,21.404z M3.166,18.541
		c0.649,0.874,1.419,1.644,2.293,2.293L20.834,5.458c-0.649-0.874-1.419-1.644-2.293-2.293L3.166,18.541z M12,1
		C5.935,1,1,5.935,1,12c0,2.015,0.551,3.978,1.597,5.696l15.1-15.1C15.978,1.551,14.015,1,12,1z"/>
</g>
</svg>
