<?xml version="1.0" encoding="utf-8"?>
<!-- Generator: Adobe Illustrator 22.1.0, SVG Export Plug-In . SVG Version: 6.00 Build 0)  -->
<svg version="1.1" id="Layer_1" xmlns="http://www.w3.org/2000/svg" xmlns:xlink="http://www.w3.org/1999/xlink" x="0px" y="0px"
	 viewBox="0 0 24 24" style="enable-background:new 0 0 24 24;" xml:space="preserve">
<g>
	<title>road-sign-side-road-angle-right-2</title>
	<path d="M11.999,23.585c-0.401,0-0.777-0.156-1.061-0.439L0.853,13.061C0.57,12.777,0.414,12.401,0.414,12
		c0-0.401,0.156-0.777,0.439-1.061L10.938,0.854c0.283-0.283,0.66-0.439,1.061-0.439c0.401,0,0.777,0.156,1.061,0.439l10.085,10.085
		c0.283,0.283,0.439,0.66,0.439,1.061c0,0.401-0.156,0.778-0.439,1.061L13.06,23.146C12.777,23.429,12.4,23.585,11.999,23.585z
		 M11.999,1.422c-0.136,0-0.265,0.051-0.354,0.139L1.56,11.646C1.466,11.741,1.414,11.866,1.414,12s0.052,0.259,0.146,0.354
		l10.085,10.085c0.089,0.088,0.217,0.139,0.354,0.139s0.265-0.051,0.354-0.139l10.085-10.085c0.094-0.094,0.146-0.22,0.146-0.354
		s-0.052-0.259-0.146-0.354L12.353,1.561C12.264,1.473,12.135,1.422,11.999,1.422z"/>
	<path d="M10,17c-0.551,0-1-0.448-1-1V8c0-0.551,0.449-1,1-1h2c0.551,0,1,0.449,1,1v1.806l1.961-0.654
		C15.064,9.118,15.172,9.1,15.28,9.1c0.352,0,0.672,0.182,0.855,0.486l0.973,1.625c0.038,0.063,0.068,0.129,0.09,0.196
		c0.175,0.523-0.108,1.091-0.63,1.266L13,13.861V16c0,0.552-0.449,1-1,1H10z M10,16h2l0-2.5c0-0.215,0.137-0.406,0.342-0.474
		l3.909-1.3l-0.974-1.625l-2.619,0.873C12.606,10.991,12.553,11,12.5,11c-0.106,0-0.207-0.033-0.292-0.094
		C12.078,10.812,12,10.661,12,10.5V8l-2,0L10,16z"/>
</g>
</svg>
