<?xml version="1.0" encoding="utf-8"?>
<!-- Generator: Adobe Illustrator 22.1.0, SVG Export Plug-In . SVG Version: 6.00 Build 0)  -->
<svg version="1.1" id="Layer_1" xmlns="http://www.w3.org/2000/svg" xmlns:xlink="http://www.w3.org/1999/xlink" x="0px" y="0px"
	 viewBox="0 0 24 24" style="enable-background:new 0 0 24 24;" xml:space="preserve">
<g>
	<title>road-sign-light-guide</title>
	<path d="M8.5,24c-0.392,0-0.762-0.151-1.044-0.424c-0.009-0.008-0.018-0.016-0.026-0.025c-0.003-0.003-0.005-0.006-0.008-0.01
		C7.153,23.268,7,22.895,7,22.5v-21C7,0.673,7.673,0,8.5,0h7C16.327,0,17,0.673,17,1.5v21c0,0.392-0.15,0.761-0.423,1.043
		c-0.005,0.006-0.01,0.012-0.016,0.018s-0.011,0.011-0.018,0.016C16.261,23.85,15.892,24,15.5,24H8.5z M15.293,23L12,19.708
		L12,19.457l0,0.25c0,0-3.292,3.293-3.292,3.293H15.293z M8,22.293L11.292,19c0.188-0.189,0.439-0.293,0.707-0.293
		c0.267,0,0.518,0.104,0.706,0.292L16,22.293v-4.586l-4-4l-4,4V22.293z M12,12.707c0.267,0,0.518,0.104,0.706,0.292L16,16.293
		v-4.586l-3.996-3.996L8,11.707v4.586L11.292,13C11.481,12.812,11.732,12.707,12,12.707z M12,6.707c0.264,0,0.512,0.102,0.7,0.286
		c0.003,0.003,3.3,3.3,3.3,3.3V5.707l-3.996-3.996L8,5.707v4.586L11.292,7c0.188-0.189,0.439-0.293,0.706-0.293
		C11.999,6.707,12,6.707,12,6.707z M16,4.293V1.5C16,1.224,15.776,1,15.5,1h-2.793C12.714,1.007,16,4.293,16,4.293z M8.5,1
		C8.224,1,8,1.224,8,1.5v2.793C8,4.293,11.293,1,11.293,1H8.5z"/>
</g>
</svg>
