<?xml version="1.0" encoding="utf-8"?>
<!-- Generator: Adobe Illustrator 22.1.0, SVG Export Plug-In . SVG Version: 6.00 Build 0)  -->
<svg version="1.1" id="Layer_1" xmlns="http://www.w3.org/2000/svg" xmlns:xlink="http://www.w3.org/1999/xlink" x="0px" y="0px"
	 viewBox="0 0 24 24" style="enable-background:new 0 0 24 24;" xml:space="preserve">
<g>
	<title>road-sign-turn-right-1</title>
	<path d="M12,23.085c-0.401,0-0.778-0.156-1.061-0.439l-9.585-9.586C1.07,12.777,0.914,12.401,0.914,12
		c0-0.401,0.156-0.777,0.439-1.061l9.586-9.585c0.283-0.283,0.66-0.439,1.061-0.439c0.401,0,0.778,0.156,1.061,0.439l9.585,9.585
		c0.283,0.283,0.439,0.66,0.439,1.061c0,0.401-0.156,0.778-0.439,1.061l-9.585,9.586C12.777,22.929,12.401,23.085,12,23.085z
		 M12,1.922c-0.136,0-0.265,0.051-0.354,0.139l-9.585,9.585C1.966,11.741,1.914,11.866,1.914,12s0.052,0.259,0.146,0.354
		l9.585,9.586c0.094,0.094,0.22,0.146,0.354,0.146s0.259-0.052,0.354-0.146l9.585-9.585c0.094-0.094,0.146-0.22,0.146-0.354
		c0-0.133-0.052-0.259-0.146-0.354l-9.585-9.585C12.265,1.972,12.136,1.922,12,1.922z"/>
	<path d="M10,16.5c-0.276,0-0.5-0.224-0.5-0.5v-4c0-1.379,1.121-2.5,2.5-2.5h2.793l-1.146-1.146c-0.195-0.195-0.195-0.512,0-0.707
		C13.741,7.552,13.867,7.5,14,7.5s0.259,0.052,0.354,0.146l2,2c0.046,0.046,0.083,0.101,0.109,0.163c0.05,0.121,0.05,0.261,0,0.382
		c-0.025,0.061-0.062,0.116-0.109,0.163l-1.999,1.999C14.259,12.448,14.134,12.5,14,12.5s-0.259-0.052-0.354-0.146
		c-0.195-0.195-0.195-0.512,0-0.707l1.146-1.146H12c-0.827,0-1.5,0.673-1.5,1.5v4C10.5,16.276,10.276,16.5,10,16.5z"/>
</g>
</svg>
