<?xml version="1.0" encoding="utf-8"?>
<!-- Generator: Adobe Illustrator 22.1.0, SVG Export Plug-In . SVG Version: 6.00 Build 0)  -->
<svg version="1.1" id="Layer_1" xmlns="http://www.w3.org/2000/svg" xmlns:xlink="http://www.w3.org/1999/xlink" x="0px" y="0px"
	 viewBox="0 0 24 24" style="enable-background:new 0 0 24 24;" xml:space="preserve">
<g>
	<title>road-sign-left-curve-ahead</title>
	<path d="M12,23.085c-0.401,0-0.778-0.156-1.061-0.439l-9.585-9.586C1.07,12.777,0.914,12.401,0.914,12
		c0-0.401,0.156-0.777,0.439-1.061l9.586-9.585c0.283-0.283,0.66-0.439,1.061-0.439c0.401,0,0.778,0.156,1.061,0.439l9.585,9.585
		c0.283,0.283,0.439,0.66,0.439,1.061c0,0.401-0.156,0.778-0.439,1.061l-9.585,9.586C12.777,22.929,12.401,23.085,12,23.085z
		 M12,1.922c-0.136,0-0.265,0.051-0.354,0.139l-9.585,9.585C1.966,11.741,1.914,11.866,1.914,12s0.052,0.259,0.146,0.354
		l9.585,9.586c0.094,0.094,0.22,0.146,0.354,0.146s0.259-0.052,0.354-0.146l9.585-9.585c0.094-0.094,0.146-0.22,0.146-0.354
		c0-0.133-0.052-0.259-0.146-0.354l-9.585-9.585C12.265,1.972,12.136,1.922,12,1.922z"/>
	<path d="M13,17c-0.276,0-0.5-0.224-0.5-0.5v-4.092c0.001-0.434-0.186-0.846-0.512-1.132L9.5,9.101V10c0,0.276-0.224,0.5-0.5,0.5
		S8.5,10.276,8.5,10V8c0-0.011,0.001-0.022,0.002-0.033c0.003-0.053,0.013-0.1,0.03-0.143c0.005-0.013,0.011-0.026,0.019-0.039
		C8.555,7.777,8.56,7.769,8.564,7.763c0.015-0.03,0.039-0.066,0.068-0.098C8.638,7.658,8.663,7.635,8.67,7.628
		c0.033-0.029,0.068-0.052,0.105-0.071c0.018-0.01,0.033-0.017,0.05-0.023C8.884,7.511,8.942,7.5,9,7.5h2c0.276,0,0.5,0.224,0.5,0.5
		S11.276,8.5,11,8.5h-0.668l2.315,2.024c0.544,0.475,0.855,1.163,0.854,1.885V16.5C13.5,16.776,13.276,17,13,17z"/>
</g>
</svg>
