<?xml version="1.0" encoding="utf-8"?>
<!-- Generator: Adobe Illustrator 22.1.0, SVG Export Plug-In . SVG Version: 6.00 Build 0)  -->
<svg version="1.1" id="Layer_1" xmlns="http://www.w3.org/2000/svg" xmlns:xlink="http://www.w3.org/1999/xlink" x="0px" y="0px"
	 viewBox="0 0 24 24" style="enable-background:new 0 0 24 24;" xml:space="preserve">
<g>
	<title>road-sign-u-turn-left</title>
	<path d="M12,24C5.383,24,0,18.617,0,12C0,5.383,5.383,0,12,0c6.617,0,12,5.383,12,12C24,18.617,18.617,24,12,24z M12,1
		C5.935,1,1,5.935,1,12s4.935,11,11,11s11-4.935,11-11S18.065,1,12,1z"/>
	<path d="M15.5,17.5c-0.276,0-0.5-0.224-0.5-0.5v-6c0-1.654-1.346-3-3-3c-1.654,0-3,1.346-3,3v2.375l1.776-1.733
		c0.094-0.092,0.218-0.142,0.349-0.142c0.136,0,0.263,0.053,0.358,0.151c0.093,0.096,0.144,0.222,0.142,0.355
		c-0.002,0.134-0.055,0.258-0.151,0.352l-2.623,2.56c-0.031,0.031-0.06,0.047-0.073,0.054c-0.017,0.013-0.046,0.034-0.086,0.051
		C8.63,15.049,8.566,15.062,8.5,15.062c-0.004,0-0.023,0-0.027-0.001c-0.044-0.003-0.076-0.014-0.09-0.019
		c-0.014-0.002-0.053-0.01-0.095-0.03c-0.031-0.015-0.054-0.032-0.066-0.041c-0.019-0.013-0.047-0.032-0.075-0.06
		c-0.013-0.011-0.025-0.023-0.034-0.035l-2.093-2.561c-0.084-0.103-0.124-0.234-0.11-0.366c0.013-0.133,0.078-0.253,0.181-0.337
		C6.178,11.54,6.291,11.5,6.406,11.5c0.151,0,0.292,0.067,0.387,0.184L8,13.16V11c0-2.206,1.794-4,4-4s4,1.794,4,4v6
		C16,17.276,15.776,17.5,15.5,17.5z"/>
</g>
</svg>
