<?xml version="1.0" encoding="utf-8"?>
<!-- Generator: Adobe Illustrator 22.1.0, SVG Export Plug-In . SVG Version: 6.00 Build 0)  -->
<svg version="1.1" id="Light" xmlns="http://www.w3.org/2000/svg" xmlns:xlink="http://www.w3.org/1999/xlink" x="0px" y="0px"
	 viewBox="0 0 24 24" style="enable-background:new 0 0 24 24;" xml:space="preserve">
<g>
	<title>table-lamp-1</title>
	<path d="M9.014,24c-0.276,0-0.5-0.224-0.5-0.5s0.224-0.5,0.5-0.5h2.5v-9.5l-10.5,0c-0.005,0-0.051-0.001-0.055-0.002
		c-0.257-0.011-0.505-0.127-0.685-0.324c-0.18-0.197-0.272-0.452-0.26-0.719C0.3,6.212,5.223,1.289,11.466,1.004
		c0.016-0.001,0.032-0.001,0.048-0.002V0.5c0-0.276,0.224-0.5,0.5-0.5c0.276,0,0.5,0.224,0.5,0.5v0.504
		c2.818,0.114,5.507,1.219,7.597,3.127c2.37,2.163,3.756,5.119,3.902,8.324c0,0.001,0.001,0.04,0.001,0.045
		c-0.001,0.551-0.449,1-1,1l-7.5,0v2c0,0.276-0.224,0.5-0.5,0.5s-0.5-0.224-0.5-0.5v-2h-2V23h2.5c0.276,0,0.5,0.224,0.5,0.5
		s-0.224,0.5-0.5,0.5H9.014z M11.95,1.992c-0.146,0.001-0.292,0.004-0.438,0.011C5.788,2.265,1.275,6.778,1.013,12.501l22-0.001
		c-0.134-2.934-1.404-5.648-3.577-7.63c-2.019-1.842-4.629-2.864-7.353-2.878C12.069,1.995,12.044,2,12.014,2
		C11.998,2,11.972,1.997,11.95,1.992z"/>
</g>
</svg>
