<?xml version="1.0" encoding="utf-8"?>
<!-- Generator: Adobe Illustrator 22.1.0, SVG Export Plug-In . SVG Version: 6.00 Build 0)  -->
<svg version="1.1" id="Layer_1" xmlns="http://www.w3.org/2000/svg" xmlns:xlink="http://www.w3.org/1999/xlink" x="0px" y="0px"
	 viewBox="0 0 24 24" style="enable-background:new 0 0 24 24;" xml:space="preserve">
<g>
	<title>style-one-pin-skull</title>
	<path d="M12.002,23.744c-0.09,0-0.181-0.012-0.269-0.037c-0.258-0.072-0.472-0.24-0.603-0.472
		c-0.209-0.371-0.401-0.714-0.579-1.033l-0.018-0.032c-1.418-2.54-1.896-3.395-3.274-4.19C4.32,16.287,2.497,13.129,2.5,9.738
		c0.003-2.538,0.993-4.922,2.789-6.715C7.083,1.234,9.466,0.248,12,0.248c2.547,0.003,4.932,0.993,6.724,2.789
		c1.792,1.796,2.778,4.183,2.776,6.72c0,3.385-1.823,6.537-4.759,8.223c-1.376,0.794-1.854,1.651-3.274,4.193
		c-0.182,0.326-0.379,0.679-0.595,1.062c-0.09,0.159-0.222,0.291-0.381,0.38C12.342,23.699,12.173,23.744,12.002,23.744z M12,1.248
		c-2.267,0-4.399,0.882-6.004,2.484C4.389,5.335,3.502,7.469,3.5,9.739c-0.003,3.034,1.628,5.859,4.258,7.374
		c1.617,0.933,2.17,1.923,3.647,4.568c0.183,0.328,0.38,0.68,0.596,1.063c0.205-0.364,0.393-0.701,0.568-1.013l0.025-0.045
		c1.479-2.649,2.033-3.64,3.648-4.572c2.627-1.509,4.258-4.328,4.258-7.357c0.002-2.271-0.88-4.406-2.484-6.013
		s-3.738-2.493-6.008-2.495L12,0.998V1.248z"/>
	<path d="M9.847,16.257c-0.736,0-1.358-0.527-1.479-1.252l-0.222-1.329c-0.04-0.242-0.248-0.418-0.493-0.418H7.5
		c-0.827,0-1.5-0.673-1.5-1.5v-2.5c0-3.308,2.692-6,6-6s6,2.692,6,6v2.5c0,0.827-0.673,1.5-1.5,1.5h-0.153
		c-0.245,0-0.452,0.176-0.493,0.418l-0.222,1.33c-0.121,0.725-0.743,1.252-1.479,1.252H9.847z M14.153,15.257
		c0.245,0,0.452-0.176,0.493-0.417l0.222-1.329c0.121-0.726,0.743-1.253,1.479-1.253H16.5c0.276,0,0.5-0.224,0.5-0.5v-2.5
		c0-2.757-2.243-5-5-5c-2.757,0-5,2.243-5,5v2.5c0,0.276,0.224,0.5,0.5,0.5h0.153c0.736,0,1.359,0.528,1.479,1.254l0.222,1.329
		c0.041,0.242,0.248,0.417,0.493,0.417H10.5v-2c0-0.276,0.224-0.5,0.5-0.5s0.5,0.224,0.5,0.5v2h1v-2c0-0.276,0.224-0.5,0.5-0.5
		s0.5,0.224,0.5,0.5v2H14.153z"/>
	<path d="M9.5,11.257c-0.827,0-1.5-0.673-1.5-1.5s0.673-1.5,1.5-1.5s1.5,0.673,1.5,1.5S10.327,11.257,9.5,11.257z M9.5,9.257
		c-0.276,0-0.5,0.224-0.5,0.5s0.224,0.5,0.5,0.5s0.5-0.224,0.5-0.5S9.776,9.257,9.5,9.257z"/>
	<path d="M14.5,11.257c-0.827,0-1.5-0.673-1.5-1.5s0.673-1.5,1.5-1.5s1.5,0.673,1.5,1.5S15.327,11.257,14.5,11.257z M14.5,9.257
		c-0.276,0-0.5,0.224-0.5,0.5s0.224,0.5,0.5,0.5s0.5-0.224,0.5-0.5S14.776,9.257,14.5,9.257z"/>
</g>
</svg>
