<?xml version="1.0" encoding="utf-8"?>
<!-- Generator: Adobe Illustrator 22.1.0, SVG Export Plug-In . SVG Version: 6.00 Build 0)  -->
<svg version="1.1" id="Layer_1" xmlns="http://www.w3.org/2000/svg" xmlns:xlink="http://www.w3.org/1999/xlink" x="0px" y="0px"
	 viewBox="0 0 24 24" style="enable-background:new 0 0 24 24;" xml:space="preserve">
<g>
	<title>style-one-pin-gas</title>
	<path d="M12.002,23.744c-0.09,0-0.181-0.012-0.269-0.037c-0.258-0.072-0.472-0.24-0.603-0.472
		c-0.209-0.371-0.401-0.714-0.579-1.033l-0.018-0.032c-1.418-2.54-1.896-3.395-3.274-4.19C4.32,16.287,2.497,13.129,2.5,9.738
		c0.003-2.538,0.993-4.922,2.789-6.715C7.083,1.234,9.466,0.248,12,0.248c2.547,0.003,4.932,0.993,6.724,2.789
		c1.792,1.796,2.778,4.183,2.776,6.72c0,3.385-1.823,6.537-4.759,8.223c-1.376,0.794-1.854,1.651-3.274,4.193
		c-0.182,0.326-0.379,0.679-0.595,1.062c-0.09,0.159-0.222,0.291-0.381,0.38C12.342,23.699,12.173,23.744,12.002,23.744z M12,1.248
		c-2.267,0-4.399,0.882-6.004,2.484C4.389,5.335,3.502,7.469,3.5,9.739c-0.003,3.034,1.628,5.859,4.258,7.374
		c1.617,0.933,2.17,1.923,3.647,4.568c0.183,0.328,0.38,0.68,0.596,1.063c0.205-0.364,0.393-0.701,0.568-1.013l0.025-0.045
		c1.479-2.649,2.033-3.64,3.648-4.572c2.627-1.509,4.258-4.328,4.258-7.357c0.002-2.271-0.88-4.406-2.484-6.013
		s-3.738-2.493-6.008-2.495L12,0.998V1.248z"/>
	<path d="M10,8.257c-0.276,0-0.5-0.224-0.5-0.5s0.224-0.5,0.5-0.5h2c0.276,0,0.5,0.224,0.5,0.5s-0.224,0.5-0.5,0.5H10z"/>
	<path d="M9,15.257c-0.827,0-1.5-0.673-1.5-1.5v-7c0-0.827,0.673-1.5,1.5-1.5h4c0.827,0,1.5,0.673,1.5,1.5v6.5H15
		c0.276,0,0.5-0.224,0.5-0.5V8.293c-0.001-0.503,0.249-0.97,0.668-1.249l1.056-0.701C17.305,6.288,17.401,6.26,17.5,6.26
		c0.168,0,0.324,0.083,0.417,0.224c0.074,0.111,0.1,0.245,0.073,0.376c-0.026,0.131-0.102,0.244-0.213,0.318l-1.055,0.7
		C16.583,7.969,16.5,8.124,16.5,8.292v4.465c0,0.827-0.673,1.5-1.5,1.5h-0.586c-0.209,0.59-0.774,1-1.414,1H9z M8.5,13.757
		c0,0.276,0.224,0.5,0.5,0.5h4c0.276,0,0.5-0.224,0.5-0.5v-3.5h-5V13.757z M13.5,9.257v-2.5c0-0.276-0.224-0.5-0.5-0.5H9
		c-0.276,0-0.5,0.224-0.5,0.5v2.5H13.5z"/>
</g>
</svg>
