<?xml version="1.0" encoding="utf-8"?>
<!-- Generator: Adobe Illustrator 22.1.0, SVG Export Plug-In . SVG Version: 6.00 Build 0)  -->
<svg version="1.1" id="Layer_1" xmlns="http://www.w3.org/2000/svg" xmlns:xlink="http://www.w3.org/1999/xlink" x="0px" y="0px"
	 viewBox="0 0 24 24" style="enable-background:new 0 0 24 24;" xml:space="preserve">
<g>
	<title>style-one-pin-photography</title>
	<path d="M12.002,23.744c-0.09,0-0.181-0.012-0.269-0.037c-0.258-0.072-0.472-0.24-0.603-0.472
		c-0.209-0.371-0.401-0.714-0.579-1.033l-0.018-0.032c-1.418-2.54-1.896-3.395-3.274-4.19C4.32,16.287,2.497,13.129,2.5,9.738
		c0.003-2.538,0.993-4.922,2.789-6.715C7.083,1.234,9.466,0.248,12,0.248c2.547,0.003,4.932,0.993,6.724,2.789
		c1.792,1.796,2.778,4.183,2.776,6.72c0,3.385-1.823,6.537-4.759,8.223c-1.376,0.794-1.854,1.651-3.274,4.193
		c-0.182,0.326-0.379,0.679-0.595,1.062c-0.09,0.159-0.222,0.291-0.381,0.38C12.342,23.699,12.173,23.744,12.002,23.744z M12,1.248
		c-2.267,0-4.399,0.882-6.004,2.484C4.389,5.335,3.502,7.469,3.5,9.739c-0.003,3.034,1.628,5.859,4.258,7.374
		c1.617,0.933,2.17,1.923,3.647,4.568c0.183,0.328,0.38,0.68,0.596,1.063c0.205-0.364,0.393-0.701,0.568-1.013l0.025-0.045
		c1.479-2.649,2.033-3.64,3.648-4.572c2.627-1.509,4.258-4.328,4.258-7.357c0.002-2.271-0.88-4.406-2.484-6.013
		s-3.738-2.493-6.008-2.495L12,0.998V1.248z"/>
	<path d="M8,13.257c-0.827,0-1.5-0.673-1.5-1.5v-4c0-0.827,0.673-1.5,1.5-1.5h1.191l0.086-0.171
		c0.255-0.511,0.769-0.829,1.341-0.829h2.764c0.572,0,1.086,0.318,1.341,0.83l0.085,0.17H16c0.827,0,1.5,0.673,1.5,1.5v4
		c0,0.827-0.673,1.5-1.5,1.5H8z M8,7.257c-0.276,0-0.5,0.224-0.5,0.5v4c0,0.276,0.224,0.5,0.5,0.5h8c0.276,0,0.5-0.224,0.5-0.5v-4
		c0-0.276-0.224-0.5-0.5-0.5h-1.5c-0.191,0-0.362-0.106-0.447-0.276l-0.224-0.447c-0.085-0.171-0.257-0.277-0.448-0.277h-2.764
		c-0.19,0-0.362,0.106-0.447,0.277L9.947,6.981C9.862,7.151,9.69,7.257,9.5,7.257H8z"/>
	<path d="M12,11.757c-1.103,0-2-0.897-2-2s0.897-2,2-2s2,0.897,2,2S13.103,11.757,12,11.757z M12,8.757c-0.551,0-1,0.449-1,1
		s0.449,1,1,1c0.552,0,1-0.449,1-1S12.552,8.757,12,8.757z"/>
</g>
</svg>
