<?xml version="1.0" encoding="utf-8"?>
<!-- Generator: Adobe Illustrator 22.1.0, SVG Export Plug-In . SVG Version: 6.00 Build 0)  -->
<svg version="1.1" id="Layer_1" xmlns="http://www.w3.org/2000/svg" xmlns:xlink="http://www.w3.org/1999/xlink" x="0px" y="0px"
	 viewBox="0 0 24 24" style="enable-background:new 0 0 24 24;" xml:space="preserve">
<g>
	<title>style-one-pin-train_1</title>
	<path d="M12.002,23.744c-0.09,0-0.181-0.012-0.269-0.037c-0.258-0.072-0.472-0.24-0.603-0.472
		c-0.209-0.371-0.401-0.714-0.579-1.033l-0.018-0.032c-1.418-2.54-1.896-3.395-3.274-4.19c-0.307-0.177-0.609-0.377-0.924-0.612
		c-0.011-0.006-0.022-0.013-0.031-0.02c-0.008-0.006-0.015-0.012-0.023-0.02c-2.367-1.785-3.783-4.624-3.78-7.59
		c0.003-2.538,0.993-4.922,2.789-6.715C7.083,1.234,9.466,0.248,12,0.248c2.547,0.003,4.932,0.993,6.724,2.789
		c1.792,1.796,2.778,4.183,2.776,6.72c0,3.385-1.823,6.537-4.759,8.223c-1.376,0.794-1.854,1.651-3.274,4.193
		c-0.182,0.326-0.379,0.679-0.595,1.062c-0.09,0.159-0.222,0.291-0.381,0.38C12.342,23.699,12.173,23.744,12.002,23.744z
		 M7.315,16.836c0.157,0.105,0.301,0.196,0.443,0.277c1.617,0.933,2.17,1.923,3.647,4.568c0.183,0.328,0.38,0.68,0.596,1.063
		c0.205-0.364,0.393-0.701,0.568-1.013l0.025-0.045c1.479-2.649,2.033-3.64,3.648-4.572c0.143-0.082,0.287-0.172,0.443-0.277
		l-1.935-2.58h-5.5L7.315,16.836z M17.485,16.237c1.893-1.603,3.015-4.006,3.015-6.48c0.002-2.271-0.88-4.406-2.484-6.013
		s-3.738-2.493-6.008-2.495c-2.276,0-4.408,0.882-6.013,2.484C4.389,5.335,3.502,7.469,3.5,9.739
		c-0.002,2.48,1.12,4.889,3.016,6.496l1.669-2.225C7.766,13.737,7.5,13.266,7.5,12.757v-4c0-2.481,2.019-4.5,4.5-4.5
		c2.481,0,4.5,2.019,4.5,4.5v4c0,0.509-0.266,0.981-0.685,1.254L17.485,16.237z M12,5.257c-1.93,0-3.5,1.57-3.5,3.5v4
		c0,0.276,0.224,0.5,0.5,0.5h6c0.276,0,0.5-0.224,0.5-0.5v-4C15.5,6.827,13.93,5.257,12,5.257z"/>
	<path d="M12,10.257c-1.379,0-2.5-0.897-2.5-2s1.121-2,2.5-2c1.378,0,2.5,0.897,2.5,2S13.378,10.257,12,10.257z M12,7.257
		c-0.813,0-1.5,0.458-1.5,1s0.687,1,1.5,1c0.813,0,1.5-0.458,1.5-1S12.813,7.257,12,7.257z"/>
	<circle cx="10" cy="11.757" r="0.75"/>
	<circle cx="14" cy="11.757" r="0.75"/>
</g>
</svg>
