<?xml version="1.0" encoding="utf-8"?>
<!-- Generator: Adobe Illustrator 22.1.0, SVG Export Plug-In . SVG Version: 6.00 Build 0)  -->
<svg version="1.1" id="Layer_1" xmlns="http://www.w3.org/2000/svg" xmlns:xlink="http://www.w3.org/1999/xlink" x="0px" y="0px"
	 viewBox="0 0 24 24" style="enable-background:new 0 0 24 24;" xml:space="preserve">
<g>
	<title>style-one-pin-car</title>
	<path d="M12.002,23.744c-0.09,0-0.181-0.012-0.269-0.037c-0.258-0.072-0.472-0.24-0.603-0.472
		c-0.209-0.371-0.401-0.714-0.579-1.033l-0.018-0.032c-1.418-2.54-1.896-3.395-3.274-4.19C4.32,16.287,2.497,13.129,2.5,9.738
		c0.003-2.538,0.993-4.922,2.789-6.715C7.083,1.234,9.466,0.248,12,0.248c2.547,0.003,4.932,0.993,6.724,2.789
		c1.792,1.796,2.778,4.183,2.776,6.72c0,3.385-1.823,6.537-4.759,8.223c-1.376,0.794-1.854,1.651-3.274,4.193
		c-0.182,0.326-0.379,0.679-0.595,1.062c-0.09,0.159-0.222,0.291-0.381,0.38C12.342,23.699,12.173,23.744,12.002,23.744z M12,1.248
		c-2.267,0-4.399,0.882-6.004,2.484C4.389,5.335,3.502,7.469,3.5,9.739c-0.003,3.034,1.628,5.859,4.258,7.374
		c1.617,0.933,2.17,1.923,3.647,4.568c0.183,0.328,0.38,0.68,0.596,1.063c0.205-0.364,0.393-0.701,0.568-1.013l0.025-0.045
		c1.479-2.649,2.033-3.64,3.648-4.572c2.627-1.509,4.258-4.328,4.258-7.357c0.002-2.271-0.88-4.406-2.484-6.013
		s-3.738-2.493-6.008-2.495L12,0.998V1.248z"/>
	<path d="M16,14.757c-0.276,0-0.5-0.224-0.5-0.5v-1h-7v1c0,0.276-0.224,0.5-0.5,0.5c-0.276,0-0.5-0.224-0.5-0.5v-1.086
		c-0.59-0.209-1-0.774-1-1.414v-0.764c0-0.127,0.018-0.259,0.054-0.391c0.001-0.004,0.002-0.008,0.004-0.012
		c0.028-0.1,0.061-0.188,0.102-0.268L7.519,8.6l0.349-2.09C7.989,5.784,8.61,5.257,9.347,5.257h5.306
		c0.737,0,1.359,0.528,1.479,1.254L16.481,8.6l0.86,1.722c0.026,0.051,0.049,0.108,0.071,0.171c0.052,0.081,0.079,0.172,0.079,0.263
		c0,0.02-0.002,0.039-0.005,0.054c0.009,0.066,0.013,0.125,0.013,0.182v0.764c0,0.64-0.41,1.205-1,1.414v1.086
		C16.5,14.532,16.276,14.757,16,14.757z M7.5,11.757c0,0.276,0.224,0.5,0.5,0.5h8c0.276,0,0.5-0.224,0.5-0.5v-0.5h-2
		c-0.276,0-0.5-0.224-0.5-0.5s0.224-0.5,0.5-0.5h1.691l-0.5-1H8.309l-0.5,1H9.5c0.276,0,0.5,0.224,0.5,0.5s-0.224,0.5-0.5,0.5h-2
		V11.757z M15.41,8.257l-0.264-1.582c-0.04-0.242-0.248-0.418-0.493-0.418H9.347c-0.245,0-0.453,0.176-0.493,0.418L8.59,8.257H15.41
		z"/>
</g>
</svg>
