<?xml version="1.0" encoding="utf-8"?>
<!-- Generator: Adobe Illustrator 22.1.0, SVG Export Plug-In . SVG Version: 6.00 Build 0)  -->
<svg version="1.1" id="Layer_1" xmlns="http://www.w3.org/2000/svg" xmlns:xlink="http://www.w3.org/1999/xlink" x="0px" y="0px"
	 viewBox="0 0 24 24" style="enable-background:new 0 0 24 24;" xml:space="preserve">
<g>
	<title>style-one-pin-global</title>
	<path d="M12.002,23.744c-0.09,0-0.181-0.012-0.269-0.037c-0.258-0.072-0.472-0.24-0.603-0.472
		c-0.209-0.371-0.401-0.714-0.579-1.033l-0.018-0.032c-1.418-2.54-1.896-3.395-3.274-4.19C4.32,16.287,2.497,13.129,2.5,9.738
		c0.003-2.538,0.993-4.922,2.789-6.715C7.083,1.234,9.466,0.248,12,0.248c2.547,0.003,4.932,0.993,6.724,2.789
		c1.792,1.796,2.778,4.183,2.776,6.72c0,3.385-1.823,6.537-4.759,8.223c-1.376,0.794-1.854,1.651-3.274,4.193
		c-0.182,0.326-0.379,0.679-0.595,1.062c-0.09,0.159-0.222,0.291-0.381,0.38C12.342,23.699,12.173,23.744,12.002,23.744z M12,1.248
		c-2.267,0-4.399,0.882-6.004,2.484C4.389,5.335,3.502,7.469,3.5,9.739c-0.003,3.034,1.628,5.859,4.258,7.374
		c1.617,0.933,2.17,1.923,3.647,4.568c0.183,0.328,0.38,0.68,0.596,1.063c0.205-0.364,0.393-0.701,0.568-1.013l0.025-0.045
		c1.479-2.649,2.033-3.64,3.648-4.572c2.627-1.509,4.258-4.328,4.258-7.357c0.002-2.271-0.88-4.406-2.484-6.013
		s-3.738-2.493-6.008-2.495L12,0.998V1.248z"/>
	<path d="M12,16.257c-0.273,0-0.556-0.019-0.841-0.056c-0.003,0-0.005,0-0.008,0c-0.042,0-0.084-0.006-0.128-0.018
		c-2.161-0.327-4.001-1.712-4.924-3.706c-0.006-0.011-0.016-0.032-0.024-0.055C5.696,11.593,5.5,10.689,5.5,9.757
		c0-0.742,0.126-1.472,0.374-2.171C5.876,7.58,5.883,7.56,5.885,7.555C6.803,4.99,9.263,3.257,12,3.257s5.197,1.734,6.121,4.314
		c0.002,0.005,0.007,0.02,0.008,0.024c0.245,0.689,0.371,1.42,0.371,2.162c0,0.93-0.195,1.83-0.579,2.677
		c-0.007,0.019-0.016,0.037-0.025,0.054c-0.918,1.984-2.758,3.368-4.919,3.695c-0.044,0.012-0.086,0.018-0.128,0.018
		c-0.002,0-0.005,0-0.008,0C12.556,16.238,12.273,16.257,12,16.257z M11.458,15.229c0.187,0.019,0.365,0.028,0.542,0.028
		c0.177,0,0.356-0.009,0.542-0.028c0.445-0.778,0.794-1.607,1.039-2.472h-3.163C10.663,13.62,11.012,14.45,11.458,15.229z
		 M7.392,12.757c0.665,1.019,1.649,1.79,2.791,2.19c-0.337-0.703-0.605-1.437-0.8-2.19H7.392z M14.617,12.757
		c-0.195,0.753-0.463,1.487-0.801,2.19c1.142-0.401,2.126-1.172,2.791-2.19H14.617z M17.123,11.757c0.25-0.637,0.377-1.309,0.377-2
		c0-0.508-0.07-1.012-0.209-1.5h-2.386c0.149,1.169,0.125,2.343-0.071,3.5H17.123z M13.821,11.757c0.213-1.15,0.238-2.325,0.074-3.5
		h-3.79c-0.163,1.175-0.138,2.35,0.074,3.5H13.821z M9.166,11.757c-0.196-1.157-0.22-2.331-0.071-3.5H6.709
		C6.57,8.744,6.5,9.248,6.5,9.757c0,0.691,0.127,1.363,0.377,2H9.166z M16.898,7.257c-0.645-1.258-1.757-2.226-3.085-2.691
		c0.416,0.863,0.726,1.765,0.924,2.691H16.898z M13.715,7.257c-0.243-1.037-0.638-2.035-1.177-2.972
		C12.354,4.266,12.174,4.257,12,4.257s-0.354,0.009-0.538,0.028c-0.538,0.938-0.933,1.936-1.176,2.972H13.715z M9.263,7.257
		c0.198-0.926,0.508-1.828,0.924-2.691c-1.328,0.466-2.44,1.433-3.085,2.691H9.263z"/>
</g>
</svg>
