<?xml version="1.0" encoding="utf-8"?>
<!-- Generator: Adobe Illustrator 22.1.0, SVG Export Plug-In . SVG Version: 6.00 Build 0)  -->
<svg version="1.1" id="Layer_1" xmlns="http://www.w3.org/2000/svg" xmlns:xlink="http://www.w3.org/1999/xlink" x="0px" y="0px"
	 viewBox="0 0 24 24" style="enable-background:new 0 0 24 24;" xml:space="preserve">
<g>
	<title>style-one-pin-warning</title>
	<path d="M12.002,23.744c-0.09,0-0.181-0.012-0.269-0.037c-0.258-0.072-0.472-0.24-0.603-0.472
		c-0.209-0.371-0.401-0.714-0.579-1.033l-0.018-0.032c-1.418-2.54-1.896-3.395-3.274-4.19C4.32,16.287,2.497,13.129,2.5,9.738
		c0.003-2.538,0.993-4.922,2.789-6.715C7.083,1.234,9.466,0.248,12,0.248c2.547,0.003,4.932,0.993,6.724,2.789
		c1.792,1.796,2.778,4.183,2.776,6.72c0,3.385-1.823,6.537-4.759,8.223c-1.376,0.794-1.854,1.651-3.274,4.193
		c-0.182,0.326-0.379,0.679-0.595,1.062c-0.09,0.159-0.222,0.291-0.381,0.38C12.342,23.699,12.173,23.744,12.002,23.744z M12,1.248
		c-2.267,0-4.399,0.882-6.004,2.484C4.389,5.335,3.502,7.469,3.5,9.739c-0.003,3.034,1.628,5.859,4.258,7.374
		c1.617,0.933,2.17,1.923,3.647,4.568c0.183,0.328,0.38,0.68,0.596,1.063c0.205-0.364,0.393-0.701,0.568-1.013l0.025-0.045
		c1.479-2.649,2.033-3.64,3.648-4.572c2.627-1.509,4.258-4.328,4.258-7.357c0.002-2.271-0.88-4.406-2.484-6.013
		s-3.738-2.493-6.008-2.495L12,0.998V1.248z"/>
	<path d="M12,9.757c-0.276,0-0.5-0.224-0.5-0.5v-2.5c0-0.276,0.224-0.5,0.5-0.5c0.276,0,0.5,0.224,0.5,0.5v2.5
		C12.5,9.532,12.276,9.757,12,9.757z"/>
	<path d="M8,14.257c-0.253,0-0.5-0.063-0.72-0.183c-0.726-0.396-0.995-1.309-0.599-2.035l3.992-7.984
		c0.145-0.267,0.354-0.477,0.607-0.615c0.219-0.12,0.467-0.183,0.716-0.183c0.551,0,1.056,0.299,1.319,0.782l4.006,8.012
		c0.114,0.211,0.177,0.456,0.177,0.703c0.001,0.827-0.67,1.501-1.497,1.503C16.001,14.257,8,14.257,8,14.257z M11.998,4.256
		c-0.085,0-0.165,0.021-0.24,0.061c-0.084,0.046-0.153,0.115-0.2,0.2l-3.992,7.984c-0.139,0.254-0.051,0.562,0.191,0.694
		c0.073,0.04,0.156,0.061,0.239,0.061H16c0.275,0,0.499-0.225,0.498-0.501c0-0.083-0.021-0.166-0.062-0.239l-4.008-8.015
		C12.348,4.353,12.181,4.256,11.998,4.256z"/>
	<circle cx="12" cy="11.257" r="0.75"/>
</g>
</svg>
