<?xml version="1.0" encoding="utf-8"?>
<!-- Generator: Adobe Illustrator 22.1.0, SVG Export Plug-In . SVG Version: 6.00 Build 0)  -->
<svg version="1.1" id="Layer_1" xmlns="http://www.w3.org/2000/svg" xmlns:xlink="http://www.w3.org/1999/xlink" x="0px" y="0px"
	 viewBox="0 0 24 24" style="enable-background:new 0 0 24 24;" xml:space="preserve">
<g>
	<title>style-one-pin-information</title>
	<path d="M12.002,23.744c-0.09,0-0.181-0.012-0.269-0.037c-0.258-0.072-0.472-0.24-0.603-0.472
		c-0.209-0.371-0.401-0.714-0.579-1.033l-0.018-0.032c-1.418-2.54-1.896-3.395-3.274-4.19C4.32,16.287,2.497,13.129,2.5,9.738
		c0.003-2.538,0.993-4.922,2.789-6.715C7.083,1.234,9.466,0.248,12,0.248c2.547,0.003,4.932,0.993,6.724,2.789
		c1.792,1.796,2.778,4.183,2.776,6.72c0,3.385-1.823,6.537-4.759,8.223c-1.376,0.794-1.854,1.651-3.274,4.193
		c-0.182,0.326-0.379,0.679-0.595,1.062c-0.09,0.159-0.222,0.291-0.381,0.38C12.342,23.699,12.173,23.744,12.002,23.744z M12,1.248
		c-2.267,0-4.399,0.882-6.004,2.484C4.389,5.335,3.502,7.469,3.5,9.739c-0.003,3.034,1.628,5.859,4.258,7.374
		c1.617,0.933,2.17,1.923,3.647,4.568c0.183,0.328,0.38,0.68,0.596,1.063c0.205-0.364,0.393-0.701,0.568-1.013l0.025-0.045
		c1.479-2.649,2.033-3.64,3.648-4.572c2.627-1.509,4.258-4.328,4.258-7.357c0.002-2.271-0.88-4.406-2.484-6.013
		s-3.738-2.493-6.008-2.495L12,0.998V1.248z"/>
	<path d="M12,15.257c-3.033,0-5.5-2.467-5.5-5.5s2.467-5.5,5.5-5.5s5.5,2.467,5.5,5.5S15.033,15.257,12,15.257z M12,5.257
		c-2.481,0-4.5,2.019-4.5,4.5s2.019,4.5,4.5,4.5c2.481,0,4.5-2.019,4.5-4.5S14.481,5.257,12,5.257z"/>
	<path d="M11,12.257c-0.276,0-0.5-0.224-0.5-0.5s0.224-0.5,0.5-0.5h0.5v-1H11c-0.276,0-0.5-0.224-0.5-0.5s0.224-0.5,0.5-0.5h0.5
		c0.551,0,1,0.449,1,1v1H13c0.276,0,0.5,0.224,0.5,0.5s-0.224,0.5-0.5,0.5H11z"/>
	<circle cx="11.5" cy="7.757" r="0.75"/>
</g>
</svg>
