<?xml version="1.0" encoding="utf-8"?>
<!-- Generator: Adobe Illustrator 22.1.0, SVG Export Plug-In . SVG Version: 6.00 Build 0)  -->
<svg version="1.1" id="Layer_1" xmlns="http://www.w3.org/2000/svg" xmlns:xlink="http://www.w3.org/1999/xlink" x="0px" y="0px"
	 viewBox="0 0 24 24" style="enable-background:new 0 0 24 24;" xml:space="preserve">
<g>
	<title>style-one-pin-user</title>
	<path d="M12.002,23.744c-0.09,0-0.181-0.012-0.269-0.037c-0.258-0.072-0.472-0.24-0.603-0.472
		c-0.209-0.371-0.401-0.714-0.579-1.033l-0.018-0.032c-1.418-2.54-1.896-3.395-3.274-4.19C4.32,16.287,2.497,13.129,2.5,9.738
		c0.003-2.538,0.993-4.922,2.789-6.715C7.083,1.234,9.466,0.248,12,0.248c2.547,0.003,4.932,0.993,6.724,2.789
		c1.792,1.796,2.778,4.183,2.776,6.72c0,3.385-1.823,6.537-4.759,8.223c-1.376,0.794-1.854,1.651-3.274,4.193
		c-0.182,0.326-0.379,0.679-0.595,1.062c-0.09,0.159-0.222,0.291-0.381,0.38C12.342,23.699,12.173,23.744,12.002,23.744z M12,1.248
		c-2.267,0-4.399,0.882-6.004,2.484C4.389,5.335,3.502,7.469,3.5,9.739c-0.003,3.034,1.628,5.859,4.258,7.374
		c1.617,0.933,2.17,1.923,3.647,4.568c0.183,0.328,0.38,0.68,0.596,1.063c0.205-0.364,0.393-0.701,0.568-1.013l0.025-0.045
		c1.479-2.649,2.033-3.64,3.648-4.572c2.627-1.509,4.258-4.328,4.258-7.357c0.002-2.271-0.88-4.406-2.484-6.013
		s-3.738-2.493-6.008-2.495L12,0.998V1.248z"/>
	<path d="M12,10.757c-1.516,0-2.75-1.234-2.75-2.75s1.234-2.75,2.75-2.75s2.75,1.234,2.75,2.75S13.516,10.757,12,10.757z M12,6.257
		c-0.965,0-1.75,0.785-1.75,1.75s0.785,1.75,1.75,1.75c0.965,0,1.75-0.785,1.75-1.75S12.965,6.257,12,6.257z"/>
	<path d="M7.5,15.257c-0.156,0-0.3-0.071-0.395-0.193s-0.128-0.28-0.089-0.431c0.466-1.822,1.887-3.243,3.709-3.709
		c0.422-0.108,0.854-0.163,1.284-0.163c0.915,0,1.818,0.249,2.614,0.721c1.182,0.7,2.021,1.819,2.362,3.151
		c0.038,0.151,0.006,0.308-0.089,0.431c-0.094,0.121-0.242,0.193-0.395,0.193H7.5z M15.802,14.257
		c-0.345-0.796-0.935-1.468-1.69-1.915c-0.641-0.38-1.369-0.581-2.105-0.581c-0.347,0-0.695,0.044-1.035,0.131
		c-1.252,0.321-2.268,1.193-2.775,2.364H15.802z"/>
</g>
</svg>
