<?xml version="1.0" encoding="utf-8"?>
<!-- Generator: Adobe Illustrator 22.1.0, SVG Export Plug-In . SVG Version: 6.00 Build 0)  -->
<svg version="1.1" id="Layer_1" xmlns="http://www.w3.org/2000/svg" xmlns:xlink="http://www.w3.org/1999/xlink" x="0px" y="0px"
	 viewBox="0 0 24 24" style="enable-background:new 0 0 24 24;" xml:space="preserve">
<g>
	<title>style-two-pin-gas</title>
	<path d="M12,23.937c-0.22,0-0.436-0.074-0.61-0.208C9.906,22.586,2.5,16.557,2.5,10.063c0-5.701,4.084-10,9.5-10
		c5.416,0,9.5,4.299,9.5,10c0,6.493-7.406,12.523-8.89,13.666C12.436,23.863,12.219,23.937,12,23.937z M12,1.063
		c-4.846,0-8.5,3.869-8.5,9c0,6.025,7.081,11.781,8.5,12.874c1.419-1.093,8.5-6.85,8.5-12.874C20.5,4.932,16.846,1.063,12,1.063z"/>
	<path d="M10,8.063c-0.276,0-0.5-0.224-0.5-0.5s0.224-0.5,0.5-0.5h2c0.276,0,0.5,0.224,0.5,0.5s-0.224,0.5-0.5,0.5H10z"/>
	<path d="M9,15.063c-0.827,0-1.5-0.673-1.5-1.5v-7c0-0.827,0.673-1.5,1.5-1.5h4c0.827,0,1.5,0.673,1.5,1.5v6.5H15
		c0.276,0,0.5-0.224,0.5-0.5V8.1c0-0.502,0.25-0.969,0.668-1.248l1.056-0.701c0.082-0.055,0.177-0.084,0.276-0.084
		c0.168,0,0.324,0.084,0.417,0.224c0.074,0.111,0.1,0.245,0.073,0.376c-0.026,0.131-0.102,0.244-0.213,0.318l-1.055,0.7
		C16.583,7.777,16.5,7.932,16.5,8.1v4.463c0,0.827-0.673,1.5-1.5,1.5h-0.586c-0.209,0.59-0.774,1-1.414,1H9z M8.5,13.563
		c0,0.276,0.224,0.5,0.5,0.5h4c0.276,0,0.5-0.224,0.5-0.5v-3.5h-5V13.563z M13.5,9.063v-2.5c0-0.276-0.224-0.5-0.5-0.5H9
		c-0.276,0-0.5,0.224-0.5,0.5v2.5H13.5z"/>
</g>
</svg>
