<?xml version="1.0" encoding="utf-8"?>
<!-- Generator: Adobe Illustrator 22.1.0, SVG Export Plug-In . SVG Version: 6.00 Build 0)  -->
<svg version="1.1" id="Layer_1" xmlns="http://www.w3.org/2000/svg" xmlns:xlink="http://www.w3.org/1999/xlink" x="0px" y="0px"
	 viewBox="0 0 24 24" style="enable-background:new 0 0 24 24;" xml:space="preserve">
<g>
	<title>style-two-pin-church</title>
	<path d="M12,23.937c-0.22,0-0.436-0.074-0.61-0.208C9.906,22.586,2.5,16.557,2.5,10.063c0-5.701,4.084-10,9.5-10
		c5.416,0,9.5,4.299,9.5,10c0,6.493-7.406,12.523-8.89,13.666C12.436,23.863,12.219,23.937,12,23.937z M12,1.063
		c-4.846,0-8.5,3.869-8.5,9c0,6.025,7.081,11.781,8.5,12.874c1.419-1.093,8.5-6.85,8.5-12.874C20.5,4.932,16.846,1.063,12,1.063z"/>
	<path d="M8.5,16.063c-0.276,0-0.5-0.224-0.5-0.5v-3.688l-1.164,1.058c-0.093,0.084-0.212,0.13-0.336,0.13
		c-0.141,0-0.275-0.06-0.37-0.164c-0.185-0.204-0.17-0.521,0.033-0.706L11.5,7.342V5.563h-1c-0.276,0-0.5-0.224-0.5-0.5
		s0.224-0.5,0.5-0.5h1v-1c0-0.276,0.224-0.5,0.5-0.5c0.276,0,0.5,0.224,0.5,0.5v1h1c0.276,0,0.5,0.224,0.5,0.5s-0.224,0.5-0.5,0.5
		h-1v1.779l5.336,4.851c0.204,0.186,0.219,0.502,0.034,0.706c-0.095,0.104-0.23,0.164-0.37,0.164c-0.125,0-0.244-0.046-0.336-0.13
		L16,11.875v3.688c0,0.276-0.224,0.5-0.5,0.5H8.5z M15,15.063v-4.097l-3-2.727l-3,2.727v4.097h1v-1c0-1.103,0.897-2,2-2s2,0.897,2,2
		v1H15z M13,15.063v-1c0-0.552-0.448-1-1-1c-0.551,0-1,0.448-1,1v1H13z"/>
</g>
</svg>
