<?xml version="1.0" encoding="utf-8"?>
<!-- Generator: Adobe Illustrator 22.1.0, SVG Export Plug-In . SVG Version: 6.00 Build 0)  -->
<svg version="1.1" id="Layer_1" xmlns="http://www.w3.org/2000/svg" xmlns:xlink="http://www.w3.org/1999/xlink" x="0px" y="0px"
	 viewBox="0 0 24 24" style="enable-background:new 0 0 24 24;" xml:space="preserve">
<g>
	<title>style-two-pin-user</title>
	<path d="M12,23.937c-0.22,0-0.436-0.074-0.61-0.208C9.906,22.586,2.5,16.557,2.5,10.063c0-5.701,4.084-10,9.5-10
		c5.416,0,9.5,4.299,9.5,10c0,6.493-7.406,12.523-8.89,13.666C12.436,23.863,12.219,23.937,12,23.937z M12,1.063
		c-4.846,0-8.5,3.869-8.5,9c0,6.025,7.081,11.781,8.5,12.874c1.419-1.093,8.5-6.85,8.5-12.874C20.5,4.932,16.846,1.063,12,1.063z"/>
	<path d="M12,10.563c-1.516,0-2.75-1.234-2.75-2.75s1.234-2.75,2.75-2.75s2.75,1.234,2.75,2.75S13.516,10.563,12,10.563z M12,6.063
		c-0.965,0-1.75,0.785-1.75,1.75s0.785,1.75,1.75,1.75c0.965,0,1.75-0.785,1.75-1.75S12.965,6.063,12,6.063z"/>
	<path d="M7.5,15.063c-0.156,0-0.3-0.071-0.395-0.193c-0.094-0.121-0.128-0.282-0.089-0.43c0.465-1.825,1.888-3.248,3.713-3.713
		c0.417-0.106,0.844-0.16,1.271-0.16c2.353,0,4.403,1.593,4.984,3.874c0.038,0.149,0.004,0.31-0.09,0.43
		c-0.094,0.121-0.241,0.193-0.395,0.193H7.5z M15.803,14.063c-0.651-1.507-2.138-2.497-3.804-2.497
		c-0.343,0-0.687,0.043-1.023,0.129c-1.255,0.32-2.272,1.193-2.779,2.368H15.803z"/>
</g>
</svg>
