<?xml version="1.0" encoding="utf-8"?>
<!-- Generator: Adobe Illustrator 22.1.0, SVG Export Plug-In . SVG Version: 6.00 Build 0)  -->
<svg version="1.1" id="Layer_1" xmlns="http://www.w3.org/2000/svg" xmlns:xlink="http://www.w3.org/1999/xlink" x="0px" y="0px"
	 viewBox="0 0 24 24" style="enable-background:new 0 0 24 24;" xml:space="preserve">
<g>
	<title>style-two-pin-remove</title>
	<path d="M12,23.937c-0.22,0-0.436-0.074-0.61-0.208C9.906,22.586,2.5,16.557,2.5,10.063c0-5.701,4.084-10,9.5-10
		c5.416,0,9.5,4.299,9.5,10c0,6.493-7.406,12.523-8.89,13.666C12.436,23.863,12.219,23.937,12,23.937z M12,1.063
		c-4.846,0-8.5,3.869-8.5,9c0,6.025,7.081,11.781,8.5,12.874c1.419-1.093,8.5-6.85,8.5-12.874C20.5,4.932,16.846,1.063,12,1.063z"/>
	<path d="M15.182,14.245c-0.134,0-0.259-0.052-0.354-0.146L12,11.27l-2.828,2.828c-0.094,0.094-0.22,0.146-0.354,0.146
		s-0.259-0.052-0.354-0.146c-0.195-0.195-0.195-0.512,0-0.707l2.828-2.828L8.464,7.734c-0.195-0.195-0.195-0.512,0-0.707
		c0.094-0.094,0.22-0.146,0.354-0.146s0.259,0.052,0.354,0.146L12,9.856l2.828-2.828c0.094-0.094,0.22-0.146,0.354-0.146
		s0.259,0.052,0.354,0.146s0.146,0.22,0.146,0.354S15.63,7.64,15.535,7.734l-2.828,2.828l2.828,2.828
		c0.195,0.195,0.195,0.512,0,0.707C15.441,14.193,15.315,14.245,15.182,14.245z"/>
</g>
</svg>
