<?xml version="1.0" encoding="utf-8"?>
<!-- Generator: Adobe Illustrator 22.1.0, SVG Export Plug-In . SVG Version: 6.00 Build 0)  -->
<svg version="1.1" id="Layer_1" xmlns="http://www.w3.org/2000/svg" xmlns:xlink="http://www.w3.org/1999/xlink" x="0px" y="0px"
	 viewBox="0 0 24 24" style="enable-background:new 0 0 24 24;" xml:space="preserve">
<g>
	<title>style-two-pin-cross</title>
	<path d="M12,23.937c-0.22,0-0.436-0.074-0.61-0.208C9.906,22.586,2.5,16.557,2.5,10.063c0-5.701,4.084-10,9.5-10
		c5.416,0,9.5,4.299,9.5,10c0,6.493-7.406,12.523-8.89,13.666C12.436,23.863,12.219,23.937,12,23.937z M12,1.063
		c-4.846,0-8.5,3.869-8.5,9c0,6.025,7.081,11.781,8.5,12.874c1.419-1.093,8.5-6.85,8.5-12.874C20.5,4.932,16.846,1.063,12,1.063z"/>
	<path d="M11,15.063c-0.827,0-1.5-0.673-1.5-1.5v-1.5H8c-0.827,0-1.5-0.673-1.5-1.5v-2c0-0.827,0.673-1.5,1.5-1.5h1.5v-1.5
		c0-0.827,0.673-1.5,1.5-1.5h2c0.827,0,1.5,0.673,1.5,1.5v1.5H16c0.827,0,1.5,0.673,1.5,1.5v2c0,0.827-0.673,1.5-1.5,1.5h-1.5v1.5
		c0,0.827-0.673,1.5-1.5,1.5H11z M8,8.063c-0.276,0-0.5,0.224-0.5,0.5v2c0,0.276,0.224,0.5,0.5,0.5h2c0.276,0,0.5,0.224,0.5,0.5v2
		c0,0.276,0.224,0.5,0.5,0.5h2c0.276,0,0.5-0.224,0.5-0.5v-2c0-0.276,0.224-0.5,0.5-0.5h2c0.276,0,0.5-0.224,0.5-0.5v-2
		c0-0.276-0.224-0.5-0.5-0.5h-2c-0.276,0-0.5-0.224-0.5-0.5v-2c0-0.276-0.224-0.5-0.5-0.5h-2c-0.276,0-0.5,0.224-0.5,0.5v2
		c0,0.276-0.224,0.5-0.5,0.5H8z"/>
</g>
</svg>
