<?xml version="1.0" encoding="utf-8"?>
<!-- Generator: Adobe Illustrator 22.1.0, SVG Export Plug-In . SVG Version: 6.00 Build 0)  -->
<svg version="1.1" id="Layer_1" xmlns="http://www.w3.org/2000/svg" xmlns:xlink="http://www.w3.org/1999/xlink" x="0px" y="0px"
	 viewBox="0 0 24 24" style="enable-background:new 0 0 24 24;" xml:space="preserve">
<g>
	<title>style-two-pin-world</title>
	<path d="M12,23.937c-0.22,0-0.436-0.074-0.61-0.208C9.905,22.586,2.5,16.556,2.5,10.063c0-5.701,4.084-10,9.5-10
		c5.416,0,9.5,4.299,9.5,10c0,6.494-7.406,12.523-8.89,13.666C12.436,23.863,12.219,23.937,12,23.937z M12,1.063
		c-4.846,0-8.5,3.869-8.5,9c0,6.024,7.081,11.781,8.5,12.874c1.419-1.093,8.5-6.848,8.5-12.874C20.5,4.932,16.846,1.063,12,1.063z"
		/>
	<path d="M12,16.063c-2.522,0-4.839-1.484-5.901-3.78c-0.006-0.01-0.015-0.031-0.024-0.055C5.696,11.399,5.5,10.496,5.5,9.563
		c0-0.742,0.126-1.472,0.374-2.171c0.002-0.006,0.01-0.027,0.012-0.033c0.802-2.243,2.775-3.867,5.143-4.223
		c0.042-0.01,0.079-0.012,0.102-0.012c0.277-0.04,0.578-0.061,0.869-0.061c0.291,0,0.593,0.021,0.895,0.063c0.001,0,0.002,0,0.003,0
		c0.01,0,0.038,0.002,0.072,0.01c2.368,0.356,4.341,1.98,5.151,4.241c0.002,0.005,0.007,0.019,0.008,0.024
		C18.374,8.09,18.5,8.821,18.5,9.563c0,0.933-0.196,1.836-0.583,2.685c0,0.002-0.01,0.023-0.021,0.045
		C16.839,14.579,14.522,16.063,12,16.063z M11.462,15.035c0.184,0.018,0.365,0.028,0.538,0.028c0.176,0,0.354-0.009,0.539-0.028
		c0.446-0.778,0.795-1.608,1.041-2.472H10.42C10.666,13.427,11.016,14.257,11.462,15.035z M14.615,12.563
		c-0.196,0.754-0.465,1.489-0.802,2.192c1.144-0.4,2.129-1.172,2.795-2.192H14.615z M7.392,12.563
		c0.666,1.02,1.652,1.792,2.795,2.192c-0.338-0.703-0.607-1.438-0.802-2.192H7.392z M17.123,11.563c0.25-0.637,0.377-1.309,0.377-2
		c0-0.508-0.07-1.012-0.209-1.5h-2.385c0.148,1.169,0.123,2.344-0.073,3.5H17.123z M13.82,11.563c0.213-1.15,0.239-2.325,0.076-3.5
		h-3.792c-0.163,1.175-0.137,2.35,0.077,3.5H13.82z M9.167,11.563c-0.196-1.157-0.221-2.331-0.073-3.5H6.709
		C6.57,8.55,6.5,9.054,6.5,9.563c0,0.691,0.127,1.363,0.377,2H9.167z M16.898,7.063c-0.644-1.256-1.755-2.224-3.081-2.69
		c0.415,0.862,0.724,1.764,0.921,2.69H16.898z M13.716,7.063c-0.242-1.036-0.636-2.034-1.174-2.972
		C12.356,4.072,12.178,4.063,12,4.063s-0.356,0.009-0.542,0.028c-0.537,0.938-0.932,1.936-1.174,2.972H13.716z M9.262,7.063
		c0.198-0.926,0.507-1.827,0.921-2.69c-1.326,0.466-2.437,1.433-3.081,2.69H9.262z"/>
</g>
</svg>
