<?xml version="1.0" encoding="utf-8"?>
<!-- Generator: Adobe Illustrator 22.1.0, SVG Export Plug-In . SVG Version: 6.00 Build 0)  -->
<svg version="1.1" id="Layer_1" xmlns="http://www.w3.org/2000/svg" xmlns:xlink="http://www.w3.org/1999/xlink" x="0px" y="0px"
	 viewBox="0 0 24 24" style="enable-background:new 0 0 24 24;" xml:space="preserve">
<g>
	<title>style-two-pin-star</title>
	<path d="M12,23.937c-0.22,0-0.436-0.074-0.61-0.208C9.905,22.586,2.5,16.556,2.5,10.063c0-5.701,4.084-10,9.5-10
		c5.416,0,9.5,4.299,9.5,10c0,6.494-7.406,12.523-8.89,13.666C12.436,23.863,12.219,23.937,12,23.937z M12,1.063
		c-4.846,0-8.5,3.869-8.5,9c0,6.024,7.081,11.781,8.5,12.874c1.419-1.093,8.5-6.848,8.5-12.874C20.5,4.932,16.846,1.063,12,1.063z"
		/>
	<path d="M8.775,14.935c-0.412,0-0.795-0.221-1.001-0.576c-0.179-0.31-0.204-0.692-0.066-1.022l1.066-2.453L6.849,8.988
		C6.641,8.803,6.512,8.534,6.496,8.237C6.48,7.941,6.579,7.657,6.775,7.436c0.211-0.237,0.513-0.373,0.83-0.373l0.043,0.001l2.162,0
		l1.151-2.479c0.151-0.292,0.395-0.499,0.691-0.592c0.115-0.036,0.233-0.054,0.351-0.054c0.184,0,0.369,0.045,0.535,0.131
		c0.213,0.111,0.385,0.282,0.495,0.495c0.003,0.006,1.158,2.5,1.158,2.5h2.176c0.005-0.001,0.023-0.001,0.04-0.001
		c0.579,0,1.072,0.476,1.099,1.062c0.015,0.337-0.121,0.658-0.373,0.882l-1.903,1.877l1.063,2.447
		c0.121,0.29,0.123,0.604,0.005,0.89s-0.338,0.508-0.623,0.626c-0.142,0.059-0.291,0.088-0.444,0.088c0,0,0,0,0,0
		c-0.204,0-0.404-0.053-0.578-0.154L12,13.287l-2.655,1.496C9.174,14.882,8.976,14.935,8.775,14.935z M7.614,8.063
		c-0.038,0-0.069,0.013-0.091,0.037C7.482,8.146,7.486,8.217,7.532,8.258l2.188,2.153c0.146,0.144,0.19,0.367,0.108,0.556
		l-1.2,2.761c-0.016,0.037-0.011,0.09,0.012,0.13c0.027,0.047,0.079,0.077,0.134,0.077c0.027,0,0.052-0.007,0.076-0.021l2.905-1.637
		c0.075-0.042,0.16-0.064,0.245-0.064s0.171,0.022,0.245,0.064l2.903,1.634c0.027,0.015,0.055,0.023,0.083,0.023
		c0.021,0,0.04-0.004,0.059-0.012c0.038-0.016,0.067-0.045,0.083-0.084c0.016-0.038,0.015-0.079-0.001-0.117l-1.197-2.755
		c-0.082-0.188-0.039-0.411,0.107-0.555l2.166-2.136c0.043-0.039,0.058-0.071,0.057-0.107c-0.003-0.059-0.053-0.107-0.113-0.107
		l-2.521,0.001c-0.194,0-0.373-0.114-0.454-0.29L12.138,5.01c-0.009-0.016-0.032-0.039-0.062-0.054
		c-0.024-0.012-0.049-0.019-0.074-0.019c-0.016,0-0.033,0.003-0.049,0.008c-0.042,0.013-0.075,0.041-0.095,0.08l-1.275,2.749
		c-0.082,0.176-0.26,0.29-0.454,0.29L7.614,8.063z"/>
</g>
</svg>
