<?xml version="1.0" encoding="utf-8"?>
<!-- Generator: Adobe Illustrator 22.1.0, SVG Export Plug-In . SVG Version: 6.00 Build 0)  -->
<svg version="1.1" id="Layer_1" xmlns="http://www.w3.org/2000/svg" xmlns:xlink="http://www.w3.org/1999/xlink" x="0px" y="0px"
	 viewBox="0 0 24 24" style="enable-background:new 0 0 24 24;" xml:space="preserve">
<g>
	<title>style-two-pin-wifi</title>
	<path d="M12,23.937c-0.22,0-0.436-0.074-0.61-0.208C9.906,22.586,2.5,16.557,2.5,10.063c0-5.701,4.084-10,9.5-10
		c5.416,0,9.5,4.299,9.5,10c0,6.493-7.406,12.523-8.89,13.666C12.436,23.863,12.219,23.937,12,23.937z M12,1.063
		c-4.846,0-8.5,3.869-8.5,9c0,6.025,7.081,11.781,8.5,12.874c1.419-1.093,8.5-6.85,8.5-12.874C20.5,4.932,16.846,1.063,12,1.063z"/>
	<path d="M12.001,17.063c-1.103,0-2-0.897-2-2s0.897-2,2-2s2,0.897,2,2S13.104,17.063,12.001,17.063z M12.001,14.063
		c-0.551,0-1,0.448-1,1s0.449,1,1,1c0.552,0,1-0.448,1-1S12.552,14.063,12.001,14.063z"/>
	<path d="M8.674,12.182c-0.158,0-0.303-0.072-0.398-0.197c-0.167-0.22-0.124-0.534,0.096-0.701c1.034-0.785,2.323-1.217,3.629-1.217
		s2.595,0.432,3.628,1.217c0.106,0.081,0.175,0.198,0.193,0.331s-0.017,0.264-0.097,0.37c-0.094,0.123-0.242,0.197-0.398,0.197
		c0,0,0,0,0,0c-0.11,0-0.214-0.035-0.302-0.102c-0.861-0.654-1.935-1.014-3.024-1.014c-1.089,0-2.163,0.36-3.024,1.014
		C8.888,12.147,8.784,12.182,8.674,12.182z"/>
	<path d="M6,9.063c-0.157,0-0.306-0.075-0.4-0.2C5.52,8.756,5.486,8.624,5.505,8.492C5.524,8.36,5.593,8.243,5.7,8.163
		C7.494,6.817,9.732,6.076,12,6.076c2.268,0,4.506,0.741,6.3,2.087c0.107,0.08,0.176,0.197,0.195,0.329
		c0.019,0.132-0.015,0.264-0.095,0.371c-0.094,0.125-0.243,0.2-0.4,0.2c-0.109,0-0.213-0.035-0.3-0.1
		c-1.623-1.217-3.647-1.887-5.7-1.887c-2.053,0-4.077,0.67-5.7,1.887C6.213,9.028,6.109,9.063,6,9.063z"/>
</g>
</svg>
