<?xml version="1.0" encoding="utf-8"?>
<!-- Generator: Adobe Illustrator 22.1.0, SVG Export Plug-In . SVG Version: 6.00 Build 0)  -->
<svg version="1.1" id="Light" xmlns="http://www.w3.org/2000/svg" xmlns:xlink="http://www.w3.org/1999/xlink" x="0px" y="0px"
	 viewBox="0 0 24 24" style="enable-background:new 0 0 24 24;" xml:space="preserve">
<g>
	<title>knife-1</title>
	<path d="M1.995,22.239c-0.535-0.001-1.038-0.21-1.415-0.589c-0.377-0.379-0.585-0.882-0.584-1.417
		c0.001-0.535,0.21-1.037,0.589-1.415l5.799-5.799c0.009-0.009,0.022-0.02,0.036-0.03L17.346,2.061
		c0.188-0.189,0.439-0.292,0.707-0.292c0.267,0,0.518,0.104,0.707,0.292l4.947,4.95c0.39,0.39,0.39,1.024,0,1.414L13.1,19.031
		c-0.189,0.189-0.44,0.292-0.707,0.292c-0.267,0-0.518-0.104-0.707-0.292L8.86,16.206l-5.448,5.448
		c-0.378,0.377-0.88,0.584-1.414,0.584H1.995z M1.292,19.526c-0.19,0.189-0.295,0.441-0.295,0.709s0.103,0.519,0.292,0.709
		c0.189,0.19,0.44,0.294,0.708,0.295c0.269,0,0.52-0.104,0.709-0.292l5.448-5.448l-1.417-1.417L1.292,19.526z M12.393,18.324
		L23,7.718l-0.707-0.708L11.686,17.618L12.393,18.324z M10.979,16.911L21.586,6.303l-3.533-3.535L7.446,13.378L10.979,16.911z"/>
	<path d="M18.05,6.346c-0.2,0-0.388-0.078-0.529-0.218c-0.142-0.141-0.221-0.329-0.221-0.529s0.077-0.389,0.218-0.531
		c0.004-0.004,0.014-0.014,0.018-0.017c0.13-0.128,0.316-0.204,0.513-0.204c0.201,0,0.389,0.078,0.531,0.219
		c0.293,0.292,0.293,0.768,0.001,1.061C18.44,6.268,18.251,6.346,18.05,6.346z"/>
</g>
</svg>
