<?xml version="1.0" encoding="utf-8"?>
<!-- Generator: Adobe Illustrator 22.1.0, SVG Export Plug-In . SVG Version: 6.00 Build 0)  -->
<svg version="1.1" id="Light" xmlns="http://www.w3.org/2000/svg" xmlns:xlink="http://www.w3.org/1999/xlink" x="0px" y="0px"
	 viewBox="0 0 24 24" style="enable-background:new 0 0 24 24;" xml:space="preserve">
<g>
	<title>knife-board</title>
	<path d="M22.5,18.003c-0.276,0-0.5-0.224-0.5-0.5s0.224-0.5,0.5-0.5s0.5-0.224,0.5-0.5v-13c0-0.276-0.224-0.5-0.5-0.5H5.244
		C5.031,3.005,4.839,3.146,4.769,3.351c-0.29,0.972-1.054,1.734-2.04,2.03C1.695,5.713,0.999,6.67,1,7.762v4.481
		c-0.001,1.092,0.698,2.05,1.738,2.383c0.98,0.298,1.745,1.066,2.041,2.052c0.065,0.184,0.26,0.321,0.472,0.324H12.5
		c0.276,0,0.5,0.224,0.5,0.5s-0.224,0.5-0.5,0.5H5.245c-0.64-0.008-1.208-0.416-1.417-1.015c-0.206-0.682-0.723-1.204-1.388-1.406
		C0.978,15.113-0.001,13.772,0,12.244V7.763c-0.001-1.529,0.976-2.87,2.432-3.336c0.67-0.201,1.186-0.717,1.385-1.38
		c0.211-0.62,0.781-1.036,1.421-1.044H22.5c0.827,0,1.5,0.673,1.5,1.5v13C24,17.33,23.327,18.003,22.5,18.003z"/>
	<path d="M3.999,13.752c-0.188,0-0.371-0.053-0.531-0.153C2.548,13.021,2,12.027,2,10.941V9.065c0-1.086,0.548-2.08,1.468-2.658
		C3.627,6.306,3.811,6.253,4,6.253c0.267,0,0.518,0.104,0.707,0.292C4.896,6.734,5,6.985,5,7.252v5.5
		c0,0.189-0.053,0.373-0.153,0.532C4.663,13.578,4.346,13.752,3.999,13.752z M4,7.253C3.374,7.647,3,8.325,3,9.065v1.876
		c0,0.74,0.374,1.418,1,1.812L4,7.253z"/>
	<path d="M21.488,21.992c-0.39,0-0.76-0.15-1.042-0.423l-2.479-2.479l-0.356,0.356c-0.189,0.188-0.44,0.292-0.707,0.292
		s-0.518-0.104-0.707-0.292l-1.69-1.691c-1.865-1.865-2.956-4.344-3.072-6.979c-0.023-0.551,0.406-1.019,0.956-1.042
		c0.015-0.001,0.032-0.001,0.049-0.001c0.263,0,0.512,0.104,0.701,0.293l6.565,6.565c0.01,0.008,0.02,0.016,0.027,0.023l2.828,2.828
		c0.581,0.601,0.564,1.552-0.031,2.127C22.248,21.842,21.877,21.992,21.488,21.992z M21.146,20.856
		c0.09,0.086,0.212,0.136,0.34,0.136c0.13,0,0.254-0.05,0.348-0.142c0.198-0.191,0.204-0.508,0.013-0.706l-2.468-2.467l-0.707,0.707
		L21.146,20.856z M12.435,10.734c0.104,2.384,1.091,4.627,2.779,6.315l1.69,1.69l0.687-0.687c0.007-0.009,0.014-0.017,0.021-0.024
		l1.058-1.058L12.435,10.734z"/>
</g>
</svg>
