<?xml version="1.0" encoding="utf-8"?>
<!-- Generator: Adobe Illustrator 22.1.0, SVG Export Plug-In . SVG Version: 6.00 Build 0)  -->
<svg version="1.1" id="Light" xmlns="http://www.w3.org/2000/svg" xmlns:xlink="http://www.w3.org/1999/xlink" x="0px" y="0px"
	 viewBox="0 0 24 24" style="enable-background:new 0 0 24 24;" xml:space="preserve">
<g>
	<title>knives-set</title>
	<path d="M1.498,24.001c-0.827,0-1.5-0.673-1.5-1.5v-14c0-0.827,0.673-1.5,1.5-1.5c2.347,0,4.616,0.488,6.749,1.451l2.532-2.56
		c0.006-0.006,0.013-0.012,0.02-0.018l5.286-5.286c0.377-0.377,0.88-0.585,1.415-0.585s1.037,0.208,1.415,0.585
		s0.585,0.88,0.585,1.415c0,0.535-0.208,1.037-0.585,1.414l-4.951,4.949l0.694,0.694c0.191,0.189,0.298,0.454,0.294,0.724
		c-0.006,0.273-0.123,0.534-0.322,0.718c-0.478,0.442-0.979,0.888-1.492,1.327c0.314,0.312,0.614,0.636,0.897,0.967l1.247-1.248
		c0.009-0.009,0.021-0.019,0.034-0.028l5.31-5.311c0.378-0.365,0.871-0.564,1.393-0.564c0.548,0,1.058,0.216,1.438,0.609
		c0.766,0.792,0.745,2.06-0.046,2.827l-4.946,4.946l0.693,0.694c0.191,0.189,0.298,0.454,0.294,0.725
		c-0.006,0.273-0.123,0.534-0.323,0.718c-0.708,0.651-1.407,1.262-2.081,1.819c0.508,1.423,0.816,2.909,0.917,4.421
		c0.002,0.036,0.003,0.069,0.003,0.102c-0.001,0.402-0.158,0.778-0.442,1.061c-0.283,0.282-0.659,0.437-1.058,0.437H1.498z
		 M1.498,8.001c-0.276,0-0.5,0.224-0.5,0.5v14c0,0.276,0.224,0.5,0.5,0.5h14.967c0.135,0,0.26-0.052,0.355-0.146
		c0.095-0.094,0.147-0.22,0.147-0.354l-0.001-0.035c-0.21-3.145-1.364-6.116-3.337-8.593c-0.004-0.005-0.008-0.01-0.011-0.015
		c-2.969-3.721-7.386-5.858-12.117-5.858H1.498z M14.664,13.58c0.801,1.059,1.471,2.208,1.994,3.422
		c0.59-0.495,1.192-1.025,1.793-1.577l-2.817-2.817L14.664,13.58z M17.759,13.315l4.948-4.947c0.402-0.389,0.413-1.024,0.03-1.42
		c-0.19-0.196-0.445-0.304-0.719-0.304c-0.261,0-0.508,0.1-0.695,0.281l-4.977,4.977L17.759,13.315z M9.193,8.918
		c1.15,0.61,2.228,1.357,3.21,2.223c0.526-0.448,1.046-0.91,1.547-1.374l-2.813-2.815L9.193,8.918z M13.259,7.655l4.948-4.946
		c0.189-0.189,0.293-0.44,0.293-0.707c0-0.267-0.104-0.518-0.293-0.708c-0.188-0.188-0.44-0.292-0.707-0.292
		c-0.268,0-0.519,0.104-0.708,0.292l-4.946,4.946L13.259,7.655z"/>
	<path d="M3.998,16.501c-0.134,0-0.259-0.052-0.354-0.146s-0.146-0.22-0.146-0.354s0.052-0.259,0.146-0.354l4-4
		c0.094-0.094,0.22-0.146,0.354-0.146s0.259,0.052,0.354,0.146s0.146,0.22,0.146,0.354s-0.052,0.259-0.146,0.354l-4,4
		C4.257,16.449,4.132,16.501,3.998,16.501z"/>
	<path d="M8.498,21.001c-0.134,0-0.259-0.052-0.354-0.146s-0.146-0.22-0.146-0.354s0.052-0.259,0.146-0.354l4-4
		c0.094-0.094,0.22-0.146,0.354-0.146s0.259,0.052,0.354,0.146s0.146,0.22,0.146,0.354s-0.052,0.259-0.146,0.354l-4,4
		C8.757,20.949,8.632,21.001,8.498,21.001z"/>
</g>
</svg>
