<?xml version="1.0" encoding="utf-8"?>
<!-- Generator: Adobe Illustrator 22.1.0, SVG Export Plug-In . SVG Version: 6.00 Build 0)  -->
<svg version="1.1" id="Light" xmlns="http://www.w3.org/2000/svg" xmlns:xlink="http://www.w3.org/1999/xlink" x="0px" y="0px"
	 viewBox="0 0 24 24" style="enable-background:new 0 0 24 24;" xml:space="preserve">
<g>
	<title>barbecue-steak-shrimp</title>
	<path d="M19.678,10.268c-0.708,0-1.304-0.507-1.419-1.206c-0.182-1.089,0.387-2.184,1.383-2.663l0.679-0.327
		c0.299-0.422,0.23-0.999-0.167-1.336c-0.183-0.156-0.406-0.238-0.646-0.238c-0.028,0-0.056,0.001-0.083,0.003
		c-0.266,0.022-0.508,0.146-0.68,0.35c-0.09,0.106-0.156,0.227-0.196,0.361c-0.115,0.425-0.51,0.726-0.961,0.726l0,0
		c-0.044,0-0.088-0.003-0.132-0.009L14.89,5.563c-0.512-0.069-0.891-0.53-0.86-1.049c0.175-1.708,1.187-3.183,2.709-3.962
		c0.01-0.008,0.027-0.022,0.05-0.034c0.037-0.02,0.071-0.03,0.096-0.036c0.674-0.318,1.387-0.479,2.123-0.479
		c0.169,0,0.341,0.009,0.51,0.026c0.507,0.052,1.005,0.183,1.479,0.388c0.053,0.016,0.092,0.038,0.119,0.055
		c0.694,0.322,1.289,0.785,1.769,1.375c0.334,0.41,0.601,0.875,0.793,1.381c0.022,0.04,0.031,0.078,0.035,0.098
		c0.252,0.7,0.344,1.441,0.267,2.188c-0.108,1.048-0.535,2.02-1.234,2.808c-0.01,0.011-0.026,0.025-0.041,0.037
		c-0.012,0.012-0.024,0.024-0.035,0.031l-2.13,1.591c-0.184,0.137-0.401,0.23-0.628,0.267
		C19.834,10.261,19.756,10.268,19.678,10.268C19.678,10.268,19.678,10.268,19.678,10.268z M20.075,7.301
		c-0.597,0.287-0.938,0.944-0.83,1.598c0.035,0.214,0.217,0.369,0.433,0.369c0.023,0,0.047-0.002,0.071-0.006
		c0.069-0.011,0.135-0.039,0.191-0.081l1.638-1.224l-1.01-0.893L20.075,7.301z M22.305,7.265c0.377-0.549,0.611-1.184,0.679-1.853
		c0.042-0.406,0.022-0.811-0.059-1.207l-1.483,0.809c0.114,0.458,0.064,0.945-0.14,1.365L22.305,7.265z M16.835,1.65
		c-1.016,0.658-1.686,1.742-1.81,2.944l2.566,0.345c0.078-0.278,0.21-0.523,0.389-0.734c0.049-0.057,0.101-0.112,0.158-0.165
		L16.835,1.65z M20.532,3.782c0.095,0.057,0.185,0.121,0.269,0.192c0.057,0.048,0.112,0.101,0.165,0.161l1.632-0.89
		c-0.134-0.274-0.298-0.531-0.49-0.766c-0.272-0.334-0.588-0.617-0.944-0.845L20.532,3.782z M19.017,3.56
		c0.108-0.027,0.217-0.046,0.326-0.055c0.052-0.004,0.105-0.006,0.157-0.006c0.024,0,0.048,0,0.072,0.001l0.675-2.297
		c-0.275-0.09-0.554-0.15-0.834-0.179c-0.135-0.014-0.273-0.021-0.409-0.021c-0.435,0-0.86,0.07-1.27,0.208L19.017,3.56z"/>
	<path d="M8.505,24c-2.843,0-5.479-1.404-7.061-3.756c-2.616-3.889-1.58-9.182,2.309-11.797c1.405-0.945,3.041-1.445,4.731-1.445
		c2.843,0,5.484,1.403,7.066,3.754c0.098,0.152,0.259,0.242,0.432,0.244L17.342,11c3.535,0,6.461,2.762,6.662,6.287
		c0.003,0.081,0.004,0.148,0.004,0.216C24.007,21.086,21.091,24,17.508,24H8.505z M8.486,8.003c-1.492,0-2.936,0.441-4.175,1.275
		c-3.431,2.308-4.345,6.978-2.037,10.41C3.67,21.762,5.996,23,8.497,23h9.008c3.034,0,5.501-2.466,5.503-5.498
		c0-0.056-0.001-0.113-0.003-0.169C22.833,14.346,20.35,12,17.351,12L15.975,12c-0.514-0.007-0.984-0.267-1.26-0.694
		C13.325,9.239,10.995,8.003,8.486,8.003z"/>
	<path d="M8.505,21c-2.332,0-4.417-1.479-5.189-3.679c-1.004-2.862,0.508-6.007,3.37-7.011c0.592-0.208,1.206-0.313,1.825-0.313
		c0.825,0,1.625,0.184,2.378,0.546c1.324,0.636,2.321,1.75,2.807,3.137C13.764,13.871,13.947,14,14.152,14l3.297,0
		c1.661,0,3.128,1.177,3.488,2.798c0.048,0.237,0.071,0.472,0.071,0.705c-0.001,0.935-0.365,1.813-1.027,2.474
		C19.32,20.637,18.442,21,17.508,21H8.505z M8.502,11c-0.505,0-1.005,0.085-1.485,0.254c-1.132,0.397-2.043,1.213-2.564,2.298
		c-0.521,1.084-0.59,2.305-0.192,3.438C4.891,18.79,6.598,20,8.505,20h9c0.67,0,1.297-0.26,1.769-0.731
		c0.473-0.472,0.733-1.099,0.734-1.767c0-0.166-0.016-0.333-0.05-0.497C19.701,15.845,18.638,15,17.431,15l-3.275,0
		c-0.632,0-1.194-0.397-1.403-0.988C12.121,12.21,10.413,11,8.502,11z"/>
	<path d="M7.255,16c-0.965,0-1.75-0.785-1.75-1.75s0.785-1.75,1.75-1.75s1.75,0.785,1.75,1.75S8.22,16,7.255,16z M7.255,13.5
		c-0.414,0-0.75,0.336-0.75,0.75S6.842,15,7.255,15s0.75-0.336,0.75-0.75S7.669,13.5,7.255,13.5z"/>
</g>
</svg>
