<?xml version="1.0" encoding="utf-8"?>
<!-- Generator: Adobe Illustrator 22.1.0, SVG Export Plug-In . SVG Version: 6.00 Build 0)  -->
<svg version="1.1" id="Light" xmlns="http://www.w3.org/2000/svg" xmlns:xlink="http://www.w3.org/1999/xlink" x="0px" y="0px"
	 viewBox="0 0 24 24" style="enable-background:new 0 0 24 24;" xml:space="preserve">
<g>
	<title>bed-double</title>
	<path d="M18.634,8c-0.552,0-1-0.449-1-1c0-0.075,0.009-0.15,0.026-0.225l0.101-0.445c0.27-1.199,0.455-2.023,1.24-2.26V3.5
		C19,2.673,18.327,2,17.5,2S16,2.673,16,3.5V5h0.5C16.776,5,17,5.224,17,5.5S16.776,6,16.5,6h-5C11.224,6,11,5.776,11,5.5
		S11.224,5,11.5,5H15V3.5C15,2.121,16.122,1,17.5,1S20,2.121,20,3.5v0.571c0.784,0.239,0.97,1.066,1.241,2.27
		c0.045,0.202,0.095,0.421,0.151,0.658c0.059,0.241,0,0.501-0.156,0.696C21.087,7.885,20.85,8,20.602,8H18.634z M19.5,5
		c-0.358,0-0.439,0.105-0.764,1.55l-0.102,0.449l1.731,0c-0.036-0.154-0.069-0.301-0.1-0.439C19.938,5.106,19.857,5,19.5,5z"/>
	<path d="M23.5,23c-0.276,0-0.5-0.224-0.5-0.5V20H1v2.5C1,22.776,0.776,23,0.5,23S0,22.776,0,22.5v-5c0-0.64,0.41-1.205,1-1.414V6.5
		C1,5.673,1.673,5,2.5,5H4V3.5C4,2.121,5.121,1,6.5,1S9,2.121,9,3.5v0.571c0.784,0.239,0.971,1.066,1.242,2.271
		c0.048,0.215,0.096,0.428,0.151,0.658c0.059,0.241,0,0.501-0.156,0.695C10.087,7.885,9.849,8,9.602,8H7.634c-0.551,0-1-0.449-1-1
		c0-0.075,0.009-0.151,0.026-0.225C6.696,6.618,6.729,6.47,6.761,6.33C7.03,5.132,7.216,4.308,8,4.071V3.5C8,2.673,7.327,2,6.5,2
		S5,2.673,5,3.5V5h0.5C5.776,5,6,5.224,6,5.5S5.776,6,5.5,6h-3C2.224,6,2,6.224,2,6.5V16h1v-0.5c0-1.199,0.845-2.215,2-2.449v-1.687
		c0.001-0.442,0.285-0.825,0.706-0.955c0.724-0.265,1.499-0.402,2.291-0.402c0.795,0,1.576,0.138,2.322,0.41
		c0.402,0.123,0.681,0.505,0.682,0.946V13h2v-1.636c0.001-0.442,0.285-0.825,0.706-0.955c0.725-0.265,1.5-0.401,2.291-0.401
		c0.795,0,1.576,0.138,2.321,0.41c0.402,0.123,0.681,0.505,0.682,0.946v1.688c1.155,0.234,2,1.25,2,2.449V16h1V9.5
		C22,9.224,22.224,9,22.5,9S23,9.224,23,9.5v6.586c0.59,0.209,1,0.774,1,1.414v5C24,22.776,23.776,23,23.5,23z M23,19v-1.5
		c0-0.276-0.224-0.5-0.5-0.5h-21C1.224,17,1,17.224,1,17.5V19H23z M20,16v-0.5c0-0.827-0.673-1.5-1.5-1.5h-13
		C4.673,14,4,14.673,4,15.5V16H20z M18,13v-1.635c-0.653-0.238-1.323-0.356-2.003-0.356c-0.676,0-1.34,0.117-1.972,0.348
		l-0.026,0.011L14,13H18z M10,13v-1.636c-0.653-0.237-1.323-0.356-2.003-0.356c-0.676,0-1.339,0.117-1.972,0.348l-0.026,0.011L6,13
		H10z M8.5,5C8.142,5,8.061,5.105,7.736,6.55l-0.102,0.45l1.731,0c-0.036-0.155-0.069-0.301-0.1-0.439C8.939,5.106,8.857,5,8.5,5z"
		/>
</g>
</svg>
