<?xml version="1.0" encoding="utf-8"?>
<!-- Generator: Adobe Illustrator 22.1.0, SVG Export Plug-In . SVG Version: 6.00 Build 0)  -->
<svg version="1.1" id="Light" xmlns="http://www.w3.org/2000/svg" xmlns:xlink="http://www.w3.org/1999/xlink" x="0px" y="0px"
	 viewBox="0 0 24 24" style="enable-background:new 0 0 24 24;" xml:space="preserve">
<g>
	<title>spider-web-1</title>
	<path d="M12,24c-0.276,0-0.5-0.224-0.5-0.5v-0.668l-8.964-3.774l-1.254,0.855C1.198,19.97,1.101,20,1.001,20
		c-0.166,0-0.32-0.082-0.413-0.219c-0.155-0.227-0.096-0.539,0.131-0.695L2,18.213V5.787L0.719,4.913
		C0.491,4.758,0.432,4.446,0.587,4.218C0.681,4.082,0.835,4,1.001,4c0.101,0,0.198,0.03,0.281,0.087l1.255,0.855L11.5,1.168V0.5
		C11.5,0.224,11.725,0,12,0c0.276,0,0.5,0.224,0.5,0.5v0.668l8.964,3.774l1.254-0.855C22.802,4.03,22.9,4,23,4
		c0.166,0,0.32,0.082,0.413,0.218c0.075,0.11,0.103,0.243,0.078,0.375c-0.025,0.131-0.099,0.245-0.209,0.32L22,5.787v12.426
		l1.282,0.874c0.228,0.156,0.287,0.467,0.131,0.695C23.32,19.918,23.166,20,23,20c-0.1,0-0.198-0.03-0.281-0.086l-1.255-0.856
		L12.5,22.832V23.5C12.5,23.776,12.276,24,12,24z M12.5,21.747l7.98-3.36L17.86,16.6L12.5,18.833V21.747z M11.5,21.747v-2.914
		L6.141,16.6L3.52,18.387L11.5,21.747z M12.5,17.75l4.373-1.822L12.5,12.946V17.75z M11.5,17.75v-4.804l-4.373,2.982L11.5,17.75z
		 M21,17.531V6.469l-2.5,1.705v7.653L21,17.531z M3,17.531l2.5-1.704V8.173L3,6.469V17.531z M17.5,15.145v-6.29L12.888,12
		L17.5,15.145z M6.5,15.145L11.113,12L6.5,8.855V15.145z M12.5,11.054l4.373-2.982L12.5,6.25V11.054z M11.5,11.054V6.25L7.127,8.072
		L11.5,11.054z M17.86,7.4l2.621-1.787l-7.98-3.36v2.914L17.86,7.4z M6.141,7.4L11.5,5.167V2.253l-7.98,3.36L6.141,7.4z"/>
</g>
</svg>
