<?xml version="1.0" encoding="utf-8"?>
<!-- Generator: Adobe Illustrator 22.1.0, SVG Export Plug-In . SVG Version: 6.00 Build 0)  -->
<svg version="1.1" id="Light" xmlns="http://www.w3.org/2000/svg" xmlns:xlink="http://www.w3.org/1999/xlink" x="0px" y="0px"
	 viewBox="0 0 24 24" style="enable-background:new 0 0 24 24;" xml:space="preserve">
<g>
	<title>spider-web</title>
	<path d="M12,24c-0.276,0-0.5-0.224-0.5-0.5v-0.668l-8.964-3.774l-1.254,0.855C1.198,19.97,1.101,20,1.001,20
		c-0.166,0-0.32-0.082-0.413-0.219c-0.155-0.227-0.096-0.539,0.131-0.695L2,18.213V5.787L0.719,4.913
		C0.491,4.758,0.432,4.446,0.587,4.218C0.681,4.082,0.835,4,1.001,4c0.101,0,0.198,0.03,0.281,0.087l1.255,0.855L11.5,1.168V0.5
		C11.5,0.224,11.725,0,12,0c0.276,0,0.5,0.224,0.5,0.5v0.668l8.964,3.774l1.254-0.855C22.802,4.03,22.9,4,23,4
		c0.166,0,0.32,0.082,0.413,0.218c0.075,0.11,0.103,0.243,0.078,0.375c-0.025,0.131-0.099,0.245-0.209,0.32L22,5.787v12.426
		l1.282,0.874c0.228,0.156,0.287,0.467,0.131,0.695C23.32,19.918,23.166,20,23,20c-0.1,0-0.198-0.03-0.281-0.086l-1.255-0.856
		L12.5,22.832V23.5C12.5,23.776,12.276,24,12,24z M11.5,21.747v-2.914L6.141,16.6L3.52,18.387L11.5,21.747z M12.5,21.747l7.98-3.36
		L17.86,16.6l-5.36,2.233V21.747z M12,16c0.276,0,0.5,0.224,0.5,0.5v1.25l4.373-1.822l-1.161-0.792
		c-0.228-0.156-0.287-0.467-0.131-0.695c0.093-0.136,0.248-0.218,0.413-0.218c0.1,0,0.198,0.03,0.281,0.086l1.225,0.835V8.855
		l-0.718,0.49c-0.083,0.057-0.181,0.087-0.281,0.087c-0.166,0-0.32-0.082-0.413-0.218c-0.075-0.11-0.103-0.243-0.078-0.375
		c0.025-0.131,0.099-0.245,0.209-0.32l0.655-0.447L12.5,6.25V6.5C12.5,6.776,12.276,7,12,7c-0.276,0-0.5-0.224-0.5-0.5V6.25
		L7.127,8.072l0.655,0.447C8.01,8.674,8.069,8.986,7.914,9.214C7.82,9.35,7.666,9.432,7.5,9.432c-0.101,0-0.198-0.03-0.282-0.087
		L6.5,8.855v6.289l1.218-0.831C7.803,14.257,7.9,14.227,8,14.227c0.166,0,0.32,0.082,0.413,0.219
		c0.155,0.227,0.096,0.539-0.131,0.695l-1.155,0.788L11.5,17.75V16.5C11.5,16.224,11.725,16,12,16z M21,17.531V6.469l-2.5,1.705
		v7.653L21,17.531z M3,17.531l2.5-1.705V8.173L3,6.469V17.531z M6.141,7.4L11.5,5.167V2.253l-7.98,3.36L6.141,7.4z M17.86,7.4
		l2.62-1.787l-7.98-3.36v2.914L17.86,7.4z"/>
	<path d="M12,15.5c-1.379,0-2.5-1.122-2.5-2.5c0-0.22,0.03-0.441,0.088-0.654l-0.445,0.133C9.097,12.493,9.049,12.5,9,12.5
		c-0.219,0-0.416-0.147-0.479-0.357c-0.038-0.128-0.024-0.263,0.039-0.381c0.063-0.118,0.169-0.203,0.297-0.242l1.583-0.472
		c0.125-0.1,0.259-0.187,0.402-0.262c-0.163-0.261-0.272-0.576-0.318-0.918L9.342,9.474C9.215,9.432,9.113,9.343,9.053,9.224
		S8.984,8.969,9.026,8.842C9.094,8.637,9.285,8.5,9.5,8.5c0.054,0,0.108,0.009,0.159,0.026l0.923,0.308
		C10.785,8.035,11.34,7.5,12,7.5s1.216,0.535,1.418,1.333l0.924-0.308C14.393,8.508,14.447,8.5,14.501,8.5
		c0.215,0,0.405,0.137,0.473,0.342c0.087,0.262-0.054,0.545-0.316,0.633l-1.182,0.394c-0.046,0.343-0.155,0.657-0.318,0.918
		c0.144,0.075,0.279,0.163,0.404,0.263l1.581,0.471c0.128,0.038,0.234,0.124,0.297,0.241c0.064,0.118,0.078,0.253,0.039,0.381
		C15.417,12.353,15.22,12.5,15,12.5c-0.049,0-0.097-0.007-0.143-0.021l-0.444-0.132C14.471,12.558,14.5,12.777,14.5,13
		C14.5,14.378,13.379,15.5,12,15.5z M12,11.5c-0.827,0-1.5,0.673-1.5,1.5s0.673,1.5,1.5,1.5s1.5-0.673,1.5-1.5S12.828,11.5,12,11.5z
		 M12,8.5c-0.231,0-0.5,0.437-0.5,1s0.269,1,0.5,1s0.5-0.437,0.5-1S12.232,8.5,12,8.5z"/>
</g>
</svg>
