<?xml version="1.0" encoding="utf-8"?>
<!-- Generator: Adobe Illustrator 22.1.0, SVG Export Plug-In . SVG Version: 6.00 Build 0)  -->
<svg version="1.1" id="Light" xmlns="http://www.w3.org/2000/svg" xmlns:xlink="http://www.w3.org/1999/xlink" x="0px" y="0px"
	 viewBox="0 0 24 24" style="enable-background:new 0 0 24 24;" xml:space="preserve">
<g>
	<title>pregnancy-sperm-1</title>
	<path d="M18.994,9.015c-3.201,0-5.505-1.532-5.934-3.021c-1.309-0.102-2.01-0.669-2.579-1.129C9.918,4.409,9.474,4.05,8.521,4.05
		c-0.873,0-1.423,0.955-2.005,1.966C5.833,7.204,5.058,8.55,3.536,8.55c-1.49-0.004-2.159-0.973-2.697-1.752
		C0.617,6.477,0.408,6.174,0.16,5.943C0.062,5.852,0.005,5.729,0,5.595s0.042-0.261,0.133-0.359c0.094-0.101,0.228-0.16,0.366-0.16
		c0.127,0,0.248,0.048,0.341,0.134c0.328,0.305,0.578,0.667,0.82,1.018C2.17,6.966,2.572,7.547,3.538,7.55
		c0.942,0,1.484-0.942,2.112-2.032C6.315,4.361,7.07,3.05,8.521,3.05c1.307,0,1.988,0.551,2.589,1.037
		c0.541,0.438,1.013,0.82,1.962,0.906c0.462-1.471,2.762-2.978,5.922-2.978c3.251,0,5.006,1.803,5.006,3.5
		C24,7.788,21.421,9.015,18.994,9.015z M18.994,3.015c-3.24,0-5.007,1.651-5.007,2.5s1.767,2.5,5.007,2.5
		c1.942,0,4.006-0.876,4.006-2.5C23,3.791,20.658,3.015,18.994,3.015z"/>
	<path d="M18.539,21.993c-2.096,0-3.639-0.988-4.024-2c-0.846-0.093-1.305-0.464-1.678-0.766c-0.357-0.289-0.615-0.498-1.181-0.498
		c-0.475,0-0.812,0.585-1.169,1.205c-0.449,0.779-1.008,1.749-2.107,1.749c-1.069,0-1.538-0.676-1.915-1.219
		c-0.142-0.205-0.275-0.396-0.425-0.534c-0.098-0.09-0.155-0.214-0.161-0.347c-0.005-0.134,0.042-0.261,0.132-0.359
		c0.095-0.102,0.229-0.161,0.368-0.161c0.126,0,0.246,0.047,0.339,0.133c0.231,0.213,0.402,0.46,0.568,0.698
		c0.318,0.458,0.548,0.79,1.093,0.79c0.521,0,0.854-0.578,1.24-1.248c0.461-0.8,0.983-1.706,2.036-1.706
		c0.92,0,1.393,0.383,1.81,0.72c0.306,0.248,0.575,0.466,1.071,0.54c0.409-0.978,1.877-1.945,4.001-1.945
		c1.678,0,3.461,0.867,3.461,2.474C22,21.143,20.259,21.993,18.539,21.993z M18.539,18.045c-2.027,0-3.12,1.046-3.12,1.474
		s1.093,1.474,3.12,1.474c1.21,0,2.461-0.551,2.461-1.474C21,18.513,19.532,18.045,18.539,18.045z"/>
	<path d="M13.539,14.994c-2.096,0-3.639-0.988-4.024-2c-0.846-0.093-1.305-0.464-1.678-0.766c-0.357-0.289-0.614-0.498-1.18-0.498
		c-0.475,0-0.812,0.585-1.169,1.205c-0.449,0.779-1.008,1.749-2.107,1.749c-1.069,0-1.538-0.676-1.915-1.219
		c-0.142-0.205-0.275-0.396-0.425-0.534c-0.098-0.09-0.155-0.214-0.161-0.347c-0.005-0.134,0.042-0.261,0.132-0.359
		c0.095-0.102,0.229-0.161,0.368-0.161c0.126,0,0.246,0.047,0.339,0.133c0.231,0.213,0.402,0.46,0.568,0.698
		c0.318,0.458,0.548,0.79,1.093,0.79c0.521,0,0.854-0.578,1.24-1.248c0.461-0.8,0.983-1.706,2.036-1.706
		c0.92,0,1.393,0.383,1.81,0.72c0.306,0.248,0.574,0.465,1.071,0.539c0.41-0.978,1.877-1.946,4.002-1.946
		c1.678,0,3.461,0.867,3.461,2.475C17,14.144,15.259,14.994,13.539,14.994z M13.539,11.045c-2.027,0-3.12,1.047-3.12,1.475
		c0,0.428,1.093,1.474,3.12,1.474c1.21,0,2.461-0.551,2.461-1.474C16,11.514,14.532,11.045,13.539,11.045z"/>
</g>
</svg>
