<?xml version="1.0" encoding="utf-8"?>
<!-- Generator: Adobe Illustrator 22.1.0, SVG Export Plug-In . SVG Version: 6.00 Build 0)  -->
<svg version="1.1" id="Light" xmlns="http://www.w3.org/2000/svg" xmlns:xlink="http://www.w3.org/1999/xlink" x="0px" y="0px"
	 viewBox="0 0 24 24" style="enable-background:new 0 0 24 24;" xml:space="preserve">
<g>
	<title>pregnancy-sperm</title>
	<path d="M23.5,12C17.159,12,12,6.841,12,0.5C12,0.224,12.224,0,12.5,0C12.775,0,13,0.224,13,0.5C13,6.29,17.71,11,23.5,11
		c0.276,0,0.5,0.224,0.5,0.5S23.775,12,23.5,12z"/>
	<path d="M23.5,6.5c-3.308,0-6-2.692-6-6C17.5,0.224,17.724,0,18,0s0.5,0.224,0.5,0.5c0,2.757,2.243,5,5,5C23.775,5.5,24,5.724,24,6
		S23.775,6.5,23.5,6.5z"/>
	<path d="M4.08,19.678c-0.264,0-0.442-0.018-0.474-0.021c-0.274-0.03-0.473-0.278-0.443-0.551c0.028-0.254,0.241-0.446,0.496-0.446
		c0.018,0,0.036,0.001,0.055,0.003c0.032,0.003,0.158,0.013,0.349,0.013c0.56,0,1.604-0.09,2.299-0.693
		c0.453-0.393,0.695-0.965,0.719-1.7c0.041-1.864,1.344-3.415,3.141-3.795c-0.254-0.871,0.032-1.826,0.75-2.415
		c0.44-0.533,1.086-0.839,1.777-0.839c0.484,0,0.949,0.15,1.345,0.434c0.043,0.031,0.082,0.069,0.114,0.113
		c0.714,0.987,0.535,2.354-0.403,3.125c-0.44,0.533-1.086,0.839-1.776,0.839c-0.413,0-0.821-0.116-1.185-0.335
		c-1.521,0.11-2.728,1.37-2.762,2.902c-0.034,1.03-0.393,1.846-1.066,2.429C6.074,19.556,4.772,19.678,4.08,19.678z M11.334,12.544
		c0.209,0.132,0.448,0.201,0.694,0.201c0.403,0,0.778-0.183,1.027-0.503c0.025-0.032,0.054-0.061,0.086-0.086
		c0.53-0.412,0.657-1.16,0.302-1.721c-0.209-0.131-0.448-0.201-0.694-0.201c-0.403,0-0.778,0.183-1.028,0.502
		c-0.026,0.033-0.055,0.062-0.086,0.086C11.106,11.235,10.979,11.982,11.334,12.544z"/>
	<path d="M0.5,13.159c-0.1,0-0.196-0.03-0.279-0.085c-0.111-0.075-0.186-0.188-0.212-0.319c-0.025-0.131,0.002-0.264,0.076-0.375
		c0.645-0.956,1.581-1.714,2.656-2.156c-0.333-0.91-0.064-1.925,0.703-2.555c0.44-0.535,1.085-0.841,1.775-0.841
		c0.485,0,0.952,0.152,1.349,0.439C6.611,7.298,6.649,7.336,6.68,7.379c0.713,0.986,0.535,2.353-0.403,3.123
		c-0.44,0.534-1.086,0.839-1.776,0.839c-0.384,0-0.766-0.101-1.112-0.294c-1.007,0.345-1.883,1.014-2.475,1.892
		C0.821,13.077,0.666,13.159,0.5,13.159z M3.806,10.14C4.015,10.271,4.254,10.34,4.5,10.34c0.403,0,0.778-0.183,1.028-0.502
		c0.024-0.032,0.054-0.061,0.086-0.086C6.143,9.34,6.27,8.593,5.915,8.032c-0.21-0.133-0.449-0.203-0.696-0.203
		c-0.402,0-0.776,0.183-1.025,0.504C4.169,8.365,4.14,8.394,4.107,8.42C3.578,8.831,3.451,9.578,3.806,10.14z"/>
	<path d="M9.861,24c-0.135,0-0.266-0.056-0.36-0.153c-0.191-0.198-0.186-0.515,0.013-0.707c0.453-0.437,0.776-0.987,0.941-1.596
		c-0.257-0.359-0.377-0.807-0.341-1.276c0.042-0.553,0.294-1.086,0.709-1.501c0.454-0.454,1.06-0.714,1.664-0.714
		c0.518,0,0.994,0.191,1.341,0.537c0.388,0.388,0.577,0.922,0.533,1.504c-0.043,0.553-0.295,1.086-0.709,1.501
		c-0.454,0.454-1.06,0.714-1.665,0.714c-0.238,0-0.472-0.042-0.688-0.122c-0.233,0.631-0.606,1.205-1.09,1.673
		C10.115,23.95,9.991,24,9.861,24z M12.487,19.051c-0.339,0-0.688,0.154-0.957,0.423c-0.487,0.488-0.567,1.201-0.177,1.591
		c0.161,0.161,0.38,0.246,0.634,0.246c0.339,0,0.688-0.154,0.957-0.423c0.246-0.246,0.395-0.555,0.419-0.871
		c0.022-0.286-0.064-0.542-0.243-0.72C12.959,19.136,12.741,19.051,12.487,19.051z"/>
</g>
</svg>
