<?xml version="1.0" encoding="utf-8"?>
<!-- Generator: Adobe Illustrator 22.1.0, SVG Export Plug-In . SVG Version: 6.00 Build 0)  -->
<svg version="1.1" id="Light" xmlns="http://www.w3.org/2000/svg" xmlns:xlink="http://www.w3.org/1999/xlink" x="0px" y="0px"
	 viewBox="0 0 24 24" style="enable-background:new 0 0 24 24;" xml:space="preserve">
<g>
	<title>farmer&amp;apos;s-market-vendor</title>
	<path d="M23.5,24c-0.276,0-0.5-0.224-0.5-0.5V5.152c0-0.212-0.135-0.402-0.335-0.472l-10.5-3.652
		C12.112,1.01,12.057,1.001,12,1.001c-0.057,0-0.112,0.009-0.164,0.028L1.335,4.68C1.135,4.75,1,4.94,1,5.152V23.5
		C1,23.776,0.776,24,0.5,24S0,23.776,0,23.5V5.152c0-0.637,0.405-1.207,1.007-1.416l10.5-3.652C11.665,0.029,11.831,0.001,12,0.001
		c0.169,0,0.335,0.028,0.494,0.083l10.5,3.652C23.595,3.946,24,4.515,24,5.152V23.5C24,23.776,23.776,24,23.5,24z"/>
	<path d="M3.5,24C2.673,24,2,23.327,2,22.5v-4C2,17.673,2.673,17,3.5,17h0.266l0.546-1.912C4.495,14.448,5.088,14,5.754,14H6v-1H5.5
		C4.673,13,4,12.327,4,11.5C4,10.673,4.673,10,5.5,10h2C8.327,10,9,10.673,9,11.5C9,12.327,8.327,13,7.5,13H7v1h3.246
		c0.666,0,1.259,0.448,1.442,1.087L12.234,17H14c0-1.93,1.57-3.5,3.5-3.5S21,15.07,21,17v0.086c0.59,0.209,1,0.774,1,1.414v4
		c0,0.827-0.673,1.5-1.5,1.5H3.5z M3.5,18C3.224,18,3,18.224,3,18.5v4C3,22.776,3.224,23,3.5,23h17c0.276,0,0.5-0.224,0.5-0.5v-4
		c0-0.276-0.224-0.5-0.5-0.5H3.5z M20,17c0-1.378-1.122-2.5-2.5-2.5S15,15.622,15,17H20z M11.194,17l-0.468-1.638
		C10.665,15.149,10.468,15,10.246,15H5.754c-0.222,0-0.42,0.149-0.481,0.363L4.806,17H11.194z M5.5,11C5.224,11,5,11.224,5,11.5
		C5,11.776,5.224,12,5.5,12h2C7.776,12,8,11.776,8,11.5C8,11.224,7.776,11,7.5,11H5.5z"/>
	<path d="M17.5,13.501c-1.378,0-2.5-1.122-2.5-2.5s1.122-2.5,2.5-2.5s2.5,1.121,2.5,2.5S18.878,13.501,17.5,13.501z M17.5,9.501
		c-0.827,0-1.5,0.673-1.5,1.5s0.673,1.5,1.5,1.5s1.5-0.673,1.5-1.5S18.327,9.501,17.5,9.501z"/>
</g>
</svg>
