<?xml version="1.0" encoding="utf-8"?>
<!-- Generator: Adobe Illustrator 22.1.0, SVG Export Plug-In . SVG Version: 6.00 Build 0)  -->
<svg version="1.1" id="Layer_1" xmlns="http://www.w3.org/2000/svg" xmlns:xlink="http://www.w3.org/1999/xlink" x="0px" y="0px"
	 viewBox="0 0 24 24" style="enable-background:new 0 0 24 24;" xml:space="preserve">
<g>
	<title>engagement-move-in</title>
	<path d="M9.011,20.988c-2.295,0-4.369-1.445-5.161-3.596c-1.046-2.843,0.416-6.006,3.259-7.052
		c0.611-0.224,1.248-0.338,1.895-0.338c0.424,0,0.85,0.05,1.265,0.148c0.13,0.031,0.24,0.11,0.31,0.224s0.092,0.248,0.061,0.378
		c-0.054,0.227-0.253,0.385-0.486,0.385c-0.039,0-0.079-0.005-0.117-0.014c-0.339-0.08-0.687-0.121-1.034-0.121
		c-0.529,0-1.05,0.093-1.549,0.277C6.33,11.692,5.433,12.52,4.93,13.611c-0.504,1.091-0.554,2.311-0.14,3.435
		c0.647,1.76,2.344,2.942,4.222,2.942c0.527,0,1.047-0.093,1.546-0.276c1.126-0.415,2.024-1.243,2.527-2.332
		c0.504-1.089,0.553-2.31,0.138-3.436c-0.095-0.259,0.038-0.547,0.296-0.642c0.056-0.021,0.114-0.031,0.173-0.031
		c0.209,0,0.397,0.132,0.469,0.327c0.507,1.376,0.447,2.868-0.168,4.201c-0.616,1.332-1.713,2.344-3.09,2.851
		C10.293,20.874,9.657,20.988,9.011,20.988z"/>
	<path d="M15.5,21.004c-0.613,0-1.22-0.103-1.803-0.305c-0.126-0.043-0.228-0.134-0.286-0.254c-0.058-0.12-0.066-0.256-0.022-0.382
		c0.069-0.201,0.259-0.336,0.471-0.336c0.056,0,0.112,0.01,0.166,0.028c0.477,0.165,0.973,0.249,1.475,0.249
		c0.626,0,1.236-0.129,1.813-0.382c2.271-1,3.304-3.661,2.304-5.932c-0.719-1.632-2.338-2.686-4.125-2.686
		c-0.624,0-1.232,0.128-1.806,0.381c-1.1,0.484-1.946,1.368-2.381,2.489c-0.435,1.121-0.408,2.343,0.076,3.443
		c0.111,0.252-0.004,0.548-0.256,0.659c-0.063,0.028-0.131,0.042-0.201,0.042c-0.198,0-0.378-0.117-0.458-0.299
		c-0.592-1.344-0.625-2.839-0.093-4.208s1.566-2.45,2.91-3.042c0.067-0.03,0.137-0.058,0.21-0.086l-0.781-0.684
		c-0.2-0.175-0.321-0.418-0.339-0.685c-0.018-0.267,0.069-0.524,0.245-0.726c0.03-0.034,0.062-0.066,0.095-0.095l1.08-0.944
		c0.182-0.159,0.415-0.247,0.657-0.248h2.101c0.243,0,0.476,0.089,0.658,0.248l1.08,0.944c0.415,0.363,0.458,0.996,0.095,1.411
		c-0.031,0.035-0.062,0.066-0.095,0.095l-0.785,0.688c1.353,0.529,2.443,1.566,3.03,2.898c1.222,2.776-0.042,6.028-2.817,7.25
		C17.011,20.847,16.265,21.004,15.5,21.004z M13.37,8.946l1.286,1.127c0.286-0.045,0.575-0.067,0.86-0.067
		c0.279,0,0.558,0.022,0.831,0.064l1.282-1.124l-1.08-0.945l-2.099,0L13.37,8.946z"/>
	<path d="M0.5,24.002c-0.276,0-0.5-0.224-0.5-0.5s0.224-0.5,0.5-0.5H1V8.083c0-0.463,0.227-0.896,0.607-1.16l9.586-6.668
		C11.431,0.09,11.71,0.003,12,0.003c0.291,0,0.569,0.087,0.806,0.251l9.588,6.669C22.773,7.187,23,7.62,23,8.083v14.919h0.5
		c0.276,0,0.5,0.224,0.5,0.5s-0.224,0.5-0.5,0.5H0.5z M22,23.002V8.083c0-0.135-0.066-0.261-0.177-0.338l-9.588-6.669
		C12.167,1.028,12.085,1.003,12,1.003c-0.085,0-0.167,0.025-0.236,0.073L2.177,7.744C2.066,7.821,2,7.948,2,8.083v14.919H22z"/>
</g>
</svg>
