<?xml version="1.0" encoding="utf-8"?>
<!-- Generator: Adobe Illustrator 22.1.0, SVG Export Plug-In . SVG Version: 6.00 Build 0)  -->
<svg version="1.1" id="Layer_1" xmlns="http://www.w3.org/2000/svg" xmlns:xlink="http://www.w3.org/1999/xlink" x="0px" y="0px"
	 viewBox="0 0 24 24" style="enable-background:new 0 0 24 24;" xml:space="preserve">
<g>
	<title>engagement-ring</title>
	<path d="M12.007,10.118c-0.109,0-0.212-0.034-0.299-0.099C10.84,9.373,6.507,6.012,6.507,3.292c0-1.953,1.337-3.054,2.58-3.251
		c0.138-0.022,0.281-0.033,0.424-0.033c0.5,0,1.677,0.149,2.496,1.433c0.819-1.284,1.997-1.433,2.497-1.433
		c0.143,0,0.285,0.011,0.423,0.033c1.243,0.197,2.58,1.298,2.58,3.251c0,2.722-4.333,6.081-5.202,6.727
		C12.219,10.084,12.116,10.118,12.007,10.118z M9.525,1.006c-0.094,0-0.189,0.007-0.281,0.022C8.407,1.161,7.507,1.926,7.507,3.292
		c0,2.037,3.468,4.893,4.5,5.697c1.032-0.804,4.5-3.658,4.5-5.697c0-1.366-0.9-2.131-1.736-2.263
		c-0.092-0.015-0.187-0.022-0.281-0.022c-0.431,0-1.489,0.172-2.007,1.769c-0.067,0.207-0.258,0.345-0.476,0.345
		s-0.408-0.139-0.476-0.346C11.013,1.179,9.956,1.006,9.525,1.006z"/>
	<path d="M12.018,24.008c-0.783,0-1.564-0.116-2.323-0.345c-2.046-0.618-3.728-1.995-4.738-3.878
		C2.873,15.896,4.34,11.038,8.228,8.953C8.3,8.914,8.382,8.894,8.464,8.894c0.185,0,0.354,0.101,0.441,0.264
		c0.063,0.118,0.077,0.253,0.038,0.381C8.904,9.666,8.818,9.772,8.701,9.835c-1.648,0.883-2.853,2.356-3.394,4.146
		c-0.541,1.79-0.352,3.683,0.532,5.331c0.883,1.648,2.356,2.853,4.146,3.394c0.664,0.201,1.348,0.303,2.033,0.302
		c1.14,0,2.28-0.288,3.298-0.834c1.648-0.883,2.853-2.356,3.394-4.146c0.541-1.79,0.352-3.683-0.531-5.331
		c-0.669-1.248-1.687-2.253-2.944-2.905c-0.244-0.127-0.34-0.429-0.213-0.674c0.086-0.166,0.256-0.27,0.444-0.27
		c0.08,0,0.159,0.019,0.23,0.056c1.437,0.746,2.6,1.894,3.364,3.32c1.01,1.883,1.225,4.047,0.608,6.093
		c-0.618,2.045-1.995,3.728-3.878,4.738C14.625,23.678,13.321,24.008,12.018,24.008z"/>
	<path d="M12.002,21.661c-0.9,0-1.803-0.223-2.611-0.645c-1.339-0.699-2.326-1.878-2.778-3.319
		c-0.453-1.441-0.317-2.972,0.382-4.312c0.699-1.339,1.878-2.326,3.319-2.778c0.049-0.015,0.099-0.023,0.15-0.023
		c0.219,0,0.411,0.141,0.477,0.35c0.083,0.263-0.064,0.544-0.327,0.627c-1.186,0.372-2.156,1.185-2.732,2.287
		c-0.575,1.102-0.687,2.363-0.315,3.549c0.372,1.187,1.185,2.157,2.287,2.732c0.665,0.347,1.408,0.531,2.148,0.531
		c0.472,0,0.944-0.073,1.4-0.216c1.184-0.372,2.154-1.184,2.73-2.288c0.576-1.104,0.688-2.363,0.317-3.548
		c-0.466-1.484-1.635-2.632-3.127-3.071c-0.128-0.038-0.234-0.123-0.298-0.24c-0.064-0.117-0.078-0.252-0.041-0.38
		c0.062-0.211,0.259-0.359,0.479-0.359c0.048,0,0.095,0.007,0.14,0.02c1.813,0.534,3.233,1.928,3.799,3.731
		c0.934,2.975-0.726,6.155-3.701,7.09C13.148,21.573,12.576,21.661,12.002,21.661z"/>
</g>
</svg>
