<?xml version="1.0" encoding="utf-8"?>
<!-- Generator: Adobe Illustrator 22.1.0, SVG Export Plug-In . SVG Version: 6.00 Build 0)  -->
<svg version="1.1" id="Layer_1" xmlns="http://www.w3.org/2000/svg" xmlns:xlink="http://www.w3.org/1999/xlink" x="0px" y="0px"
	 viewBox="0 0 24 24" style="enable-background:new 0 0 24 24;" xml:space="preserve">
<g>
	<title>legal-scale-document</title>
	<path d="M12.5,24c-0.276,0-0.5-0.224-0.5-0.5s0.224-0.5,0.5-0.5H15v-9.566c-0.698-0.182-1.253-0.736-1.434-1.434h-2.856
		l2.261,6.332c0.015,0.041,0.017,0.076,0.018,0.093c0,0,0,0,0,0c0.002,0,0.011,0.033,0.011,0.075c0,0.006,0,0.013-0.001,0.021
		C12.987,20.165,11.642,21.5,10,21.5c-1.644,0-2.99-1.338-2.999-2.982C7,18.457,7.009,18.423,7.014,18.407c0,0,0,0,0,0
		c-0.002,0,0.001-0.034,0.015-0.074L9.291,12H9c-0.276,0-0.5-0.224-0.5-0.5S8.724,11,9,11h4.566c0.225-0.869,1.021-1.5,1.934-1.5
		s1.709,0.631,1.934,1.5H22c0.276,0,0.5,0.224,0.5,0.5S22.276,12,22,12h-0.291l2.261,6.332c0.015,0.041,0.017,0.076,0.018,0.093
		c0,0,0,0,0,0c0.002,0,0.011,0.033,0.011,0.075c0,0.006,0,0.013-0.001,0.021C23.987,20.165,22.643,21.5,21,21.5
		c-1.644,0-2.99-1.338-2.999-2.982c-0.001-0.062,0.009-0.096,0.013-0.112h0c-0.002,0,0.001-0.034,0.015-0.073L20.291,12h-2.856
		c-0.182,0.698-0.736,1.253-1.434,1.434V23h2.5c0.276,0,0.5,0.224,0.5,0.5S18.776,24,18.5,24H12.5z M19.063,19
		c0.223,0.872,1.012,1.5,1.937,1.5s1.714-0.628,1.937-1.5H19.063z M8.063,19c0.223,0.872,1.012,1.5,1.937,1.5s1.714-0.628,1.937-1.5
		H8.063z M22.791,18L21,12.987L19.209,18H22.791z M11.791,18L10,12.987L8.209,18H11.791z M15.5,10.5c-0.552,0-1,0.449-1,1
		s0.448,1,1,1s1-0.449,1-1S16.052,10.5,15.5,10.5z"/>
	<path d="M1.5,24C0.673,24,0,23.327,0,22.5v-21C0,0.673,0.673,0,1.5,0h9c0.416,0.022,0.809,0.117,1.183,0.283
		c0.006,0.001,0.028,0.012,0.05,0.024c0.291,0.133,0.567,0.313,0.807,0.528l3.605,3.605c0.228,0.253,0.41,0.532,0.552,0.838
		c0.005,0.008,0.017,0.032,0.026,0.058c0.159,0.353,0.254,0.742,0.275,1.138L17,8c0,0.276-0.224,0.5-0.5,0.5S16,8.276,16,8V6.5
		c-0.009-0.161-0.04-0.33-0.092-0.5H12.5C11.673,6,11,5.327,11,4.5V1.093c-0.174-0.052-0.351-0.084-0.527-0.093L1.5,1
		C1.224,1,1,1.224,1,1.5v21C1,22.776,1.224,23,1.5,23h8c0.276,0,0.5,0.224,0.5,0.5S9.776,24,9.5,24H1.5z M12,4.5
		C12,4.776,12.224,5,12.5,5h2.794L12,1.707V4.5z"/>
	<path d="M3.5,6C3.224,6,3,5.776,3,5.5S3.224,5,3.5,5H6c0.276,0,0.5,0.224,0.5,0.5S6.276,6,6,6H3.5z"/>
	<path d="M3.5,9C3.224,9,3,8.776,3,8.5S3.224,8,3.5,8H9c0.276,0,0.5,0.224,0.5,0.5S9.276,9,9,9H3.5z"/>
</g>
</svg>
