<?xml version="1.0" encoding="utf-8"?>
<!-- Generator: Adobe Illustrator 22.1.0, SVG Export Plug-In . SVG Version: 6.00 Build 0)  -->
<svg version="1.1" id="Layer_1" xmlns="http://www.w3.org/2000/svg" xmlns:xlink="http://www.w3.org/1999/xlink" x="0px" y="0px"
	 viewBox="0 0 24 24" style="enable-background:new 0 0 24 24;" xml:space="preserve">
<g>
	<title>legal-certificate</title>
	<path d="M3.607,24.001c-0.538,0-0.984-0.44-0.995-0.98c-0.006-0.299,0.121-0.583,0.347-0.778c0.846-0.677,1.327-1.674,1.326-2.742
		v-4c0-0.276,0.224-0.5,0.5-0.5s0.5,0.224,0.5,0.5v4c0,1.374-0.615,2.654-1.688,3.511L13.783,23c1.93,0,3.5-1.57,3.5-3.5V3
		c0-0.108,0.007-0.221,0.021-0.345c0.003-0.026,0.007-0.05,0.011-0.075l0.005-0.031c0.012-0.078,0.026-0.155,0.043-0.23
		c0.01-0.04,0.02-0.078,0.03-0.117c0.02-0.072,0.043-0.143,0.068-0.213c0.018-0.049,0.028-0.078,0.039-0.106
		c0.032-0.08,0.068-0.157,0.106-0.233c0.016-0.034,0.024-0.051,0.033-0.067c0.05-0.093,0.107-0.186,0.169-0.277
		c0.012-0.017,0.051-0.068,0.051-0.068c0.047-0.065,0.096-0.129,0.149-0.19c0.015-0.017,0.03-0.033,0.044-0.049H9.784
		c-0.276,0-0.5-0.224-0.5-0.5S9.508,0,9.784,0h10.5c1.654,0,3,1.346,3,3s-1.346,3-3,3c-0.744,0-1.455-0.279-2-0.768V19.5
		c0,2.481-2.019,4.5-4.5,4.5L3.607,24.001z M20.283,1c-1.103,0-2,0.897-2,2s0.897,2,2,2s2-0.897,2-2S21.386,1,20.283,1z"/>
	<path d="M6.785,14.557c-0.348,0-0.665-0.176-0.849-0.469L4.006,11l-2.29,0c-0.198,0-0.39-0.058-0.554-0.168
		c-0.459-0.305-0.584-0.927-0.278-1.386L2.185,7.5L0.886,5.555C0.776,5.39,0.718,5.199,0.718,5.001c0-0.267,0.104-0.518,0.293-0.707
		C1.199,4.105,1.451,4,1.717,4h2.289l1.929-3.087c0.08-0.128,0.19-0.238,0.318-0.318c0.159-0.099,0.342-0.152,0.529-0.152
		c0.348,0,0.665,0.176,0.849,0.47L9.561,4l2.289,0c0.198,0,0.389,0.058,0.554,0.167c0.459,0.305,0.584,0.927,0.279,1.386
		l-1.301,1.947l1.3,1.944c0.11,0.165,0.167,0.356,0.168,0.553c0,0.553-0.448,1.002-1,1.002H9.561l-1.929,3.087
		c-0.08,0.128-0.19,0.238-0.318,0.318C7.155,14.505,6.972,14.557,6.785,14.557z M4.007,10c0.347,0,0.664,0.176,0.848,0.47
		l1.929,3.087l1.929-3.087C8.896,10.176,9.213,10,9.561,10h2.289l-1.3-1.945c-0.224-0.337-0.224-0.772,0-1.109L11.85,5L9.561,5
		C9.213,5,8.896,4.825,8.713,4.53L6.783,1.443L4.855,4.53C4.67,4.825,4.353,5,4.007,5H1.717l1.299,1.945
		C3.24,7.283,3.241,7.718,3.017,8.054l-1.301,1.947L4.007,10z"/>
	<path d="M6.784,10c-1.379,0-2.5-1.121-2.5-2.5S5.405,5,6.784,5s2.5,1.121,2.5,2.5S8.162,10,6.784,10z M6.784,6
		c-0.827,0-1.5,0.673-1.5,1.5S5.956,9,6.784,9s1.5-0.673,1.5-1.5S7.611,6,6.784,6z"/>
	<path d="M9.284,16c-0.276,0-0.5-0.224-0.5-0.5s0.224-0.5,0.5-0.5h4c0.276,0,0.5,0.224,0.5,0.5s-0.224,0.5-0.5,0.5H9.284z"/>
	<path d="M7.784,19c-0.276,0-0.5-0.224-0.5-0.5s0.224-0.5,0.5-0.5h7c0.276,0,0.5,0.224,0.5,0.5s-0.224,0.5-0.5,0.5H7.784z"/>
</g>
</svg>
