<?xml version="1.0" encoding="utf-8"?>
<!-- Generator: Adobe Illustrator 22.1.0, SVG Export Plug-In . SVG Version: 6.00 Build 0)  -->
<svg version="1.1" id="Layer_1" xmlns="http://www.w3.org/2000/svg" xmlns:xlink="http://www.w3.org/1999/xlink" x="0px" y="0px"
	 viewBox="0 0 24 24" style="enable-background:new 0 0 24 24;" xml:space="preserve">
<g>
	<title>audio-book-blind-exam-f</title>
	<path d="M16.806,22.5c-0.878-0.034-1.738-0.227-2.558-0.575c-0.121-0.007-0.234-0.056-0.321-0.141
		c-0.001-0.001-0.002-0.002-0.003-0.003c-1.124-0.542-2.09-1.363-2.796-2.377c-0.255-0.347-0.254-0.82,0.007-1.171
		c1.281-1.844,3.395-3.001,5.651-3.089c0.9,0.034,1.764,0.229,2.587,0.58c0.118,0.008,0.229,0.056,0.313,0.138
		c0.001,0.001,0.002,0.001,0.002,0.002c1.126,0.543,2.093,1.366,2.799,2.382c0.256,0.342,0.254,0.814-0.01,1.168
		c-1.281,1.843-3.396,2.999-5.652,3.087c-0.003,0-0.007,0-0.01,0S16.809,22.5,16.806,22.5z M15.183,21.209
		c0.536,0.172,1.087,0.27,1.642,0.292c1.913-0.076,3.73-1.075,4.841-2.672c-0.569-0.831-1.343-1.511-2.243-1.98L15.183,21.209z
		 M16.796,16.142c-1.929,0.08-3.741,1.078-4.849,2.673c0.572,0.834,1.345,1.512,2.244,1.981l4.241-4.361
		C17.897,16.263,17.349,16.165,16.796,16.142z"/>
	<path d="M2.838,22.5c-0.827,0-1.5-0.673-1.5-1.5V3c0-0.827,0.673-1.5,1.5-1.5h9.585c0.402,0,0.778,0.156,1.062,0.439l3.414,3.415
		c0.118,0.118,0.218,0.262,0.294,0.426c0.003,0.003,0.012,0.021,0.019,0.04c0.082,0.182,0.126,0.387,0.126,0.595V13
		c0,0.276-0.224,0.5-0.5,0.5s-0.5-0.224-0.5-0.5V6.5h-2.5c-0.827,0-1.5-0.673-1.5-1.5V2.5h-9.5c-0.276,0-0.5,0.224-0.5,0.5v18
		c0,0.276,0.224,0.5,0.5,0.5h6c0.276,0,0.5,0.224,0.5,0.5s-0.224,0.5-0.5,0.5H2.838z M13.338,5c0,0.276,0.224,0.5,0.5,0.5h1.792
		l-2.292-2.293V5z"/>
	<path d="M6.838,16.5c-0.276,0-0.5-0.224-0.5-0.5V9.5c0-1.103,0.897-2,2-2h2.5c0.276,0,0.5,0.224,0.5,0.5s-0.224,0.5-0.5,0.5h-2.5
		c-0.551,0-1,0.449-1,1v2.001h2c0.276,0,0.5,0.224,0.5,0.5c0,0.276-0.224,0.5-0.5,0.5h-2V16C7.338,16.276,7.113,16.5,6.838,16.5z"/>
</g>
</svg>
