<?xml version="1.0" encoding="utf-8"?>
<!-- Generator: Adobe Illustrator 22.1.0, SVG Export Plug-In . SVG Version: 6.00 Build 0)  -->
<svg version="1.1" id="Layer_1" xmlns="http://www.w3.org/2000/svg" xmlns:xlink="http://www.w3.org/1999/xlink" x="0px" y="0px"
	 viewBox="0 0 24 24" style="enable-background:new 0 0 24 24;" xml:space="preserve">
<g>
	<title>audio-book-exam-f</title>
	<path d="M1.5,21.751c-0.827,0-1.5-0.673-1.5-1.5v-18c0-0.827,0.673-1.5,1.5-1.5h9.586c0.209,0,0.415,0.045,0.612,0.133
		c0.005,0.002,0.01,0.005,0.015,0.007c0.168,0.078,0.312,0.178,0.433,0.299l3.414,3.415c0.125,0.124,0.227,0.273,0.303,0.442
		c0,0.001,0.001,0.002,0.002,0.003C15.955,5.249,16,5.456,16,5.666v4.082c0,0.276-0.224,0.5-0.5,0.5s-0.5-0.224-0.5-0.5V5.751h-2.5
		c-0.827,0-1.5-0.673-1.5-1.5v-2.5H1.5c-0.276,0-0.5,0.224-0.5,0.5v18c0,0.276,0.224,0.5,0.5,0.5h6c0.276,0,0.5,0.224,0.5,0.5
		s-0.224,0.5-0.5,0.5H1.5z M12,4.251c0,0.276,0.224,0.5,0.5,0.5h1.792L12,2.458V4.251z"/>
	<path d="M21.5,22.251c-0.276,0-0.5-0.224-0.5-0.5v-4.5c0-2.481-2.019-4.5-4.5-4.5s-4.5,2.019-4.5,4.5v4.5
		c0,0.276-0.224,0.5-0.5,0.5c-1.379,0-2.5-1.122-2.5-2.5c0-1.199,0.845-2.215,2-2.449v-0.051c0-3.033,2.467-5.5,5.5-5.5
		s5.5,2.467,5.5,5.5v0.051c1.155,0.234,2,1.25,2,2.449C24,21.129,22.878,22.251,21.5,22.251z M22,21.163
		c0.586-0.208,1-0.772,1-1.412s-0.414-1.203-1-1.412V21.163z M11,18.339c-0.586,0.208-1,0.772-1,1.412s0.414,1.203,1,1.412V18.339z"
		/>
	<path d="M16.5,23.251c-2.206,0-4-1.794-4-4s1.794-4,4-4s4,1.794,4,4S18.706,23.251,16.5,23.251z M16.5,16.251c-1.654,0-3,1.346-3,3
		s1.346,3,3,3s3-1.346,3-3S18.154,16.251,16.5,16.251z"/>
	<path d="M5.5,15.751c-0.276,0-0.5-0.224-0.5-0.5v-6.5c0-1.103,0.897-2,2-2h2.5c0.276,0,0.5,0.224,0.5,0.5s-0.224,0.5-0.5,0.5H7
		c-0.551,0-1,0.449-1,1v2h2c0.276,0,0.5,0.224,0.5,0.5s-0.224,0.5-0.5,0.5H6v3.5C6,15.527,5.776,15.751,5.5,15.751z"/>
</g>
</svg>
