<?xml version="1.0" encoding="utf-8"?>
<!-- Generator: Adobe Illustrator 22.1.0, SVG Export Plug-In . SVG Version: 6.00 Build 0)  -->
<svg version="1.1" id="Layer_1" xmlns="http://www.w3.org/2000/svg" xmlns:xlink="http://www.w3.org/1999/xlink" x="0px" y="0px"
	 viewBox="0 0 24 24" style="enable-background:new 0 0 24 24;" xml:space="preserve">
<g>
	<title>audio-book-headphones-head</title>
	<path d="M11.979,23.999c-0.035-0.001-0.068-0.006-0.099-0.014c-0.006-0.001-0.023-0.006-0.026-0.007
		c-0.006-0.002-0.012-0.004-0.018-0.007c-0.035-0.012-0.068-0.028-0.1-0.048c-0.008-0.005-0.029-0.021-0.036-0.026
		c-0.03-0.024-0.054-0.046-0.076-0.072c-0.012-0.014-0.023-0.028-0.033-0.042c-0.01-0.011-0.011-0.013-0.018-0.026
		c-0.005-0.008-0.569-0.91-1.991-1.832c-1.351-0.875-3.769-1.95-7.619-2.103c-0.812-0.021-1.456-0.678-1.461-1.496l0.002-15.36
		c0.021-0.415,0.197-0.786,0.496-1.056C1.276,1.66,1.632,1.522,2,1.522c0.029,0,0.058,0.001,0.087,0.002
		C3.263,1.57,4.449,1.72,5.606,1.97c0.27,0.058,0.441,0.325,0.383,0.594C5.939,2.793,5.734,2.959,5.5,2.959
		c-0.035,0-0.071-0.004-0.106-0.011c-1.1-0.238-2.229-0.381-3.354-0.424l-0.025,0c-0.133,0-0.253,0.045-0.348,0.13
		c-0.101,0.091-0.16,0.215-0.167,0.351L1.5,18.323c0.002,0.273,0.219,0.493,0.494,0.5c1.953,0.077,6.632,0.56,9.506,3.324V13.5
		c0-0.276,0.224-0.5,0.5-0.5c0.276,0,0.5,0.224,0.5,0.5v8.646c2.875-2.763,7.552-3.245,9.5-3.322c0.28-0.007,0.499-0.229,0.5-0.504
		l-0.001-15.33c-0.014-0.252-0.243-0.468-0.509-0.468l-0.026,0.001c-1.13,0.044-2.258,0.186-3.358,0.423
		c-0.035,0.007-0.07,0.011-0.105,0.011c-0.234,0-0.44-0.166-0.489-0.394c-0.058-0.27,0.114-0.536,0.383-0.594
		c1.156-0.25,2.342-0.399,3.523-0.445c0.025-0.002,0.055-0.003,0.085-0.003c0.794,0,1.451,0.626,1.495,1.426
		C23.499,2.971,23.5,2.998,23.5,3.024v15.3c-0.006,0.821-0.65,1.479-1.468,1.5c-3.792,0.149-6.197,1.205-7.546,2.064
		c-1.48,0.943-2.051,1.86-2.057,1.869c-0.007,0.011-0.021,0.03-0.03,0.04c0,0,0.001,0,0.001,0c0,0-0.007,0.009-0.015,0.018
		c-0.029,0.036-0.063,0.068-0.101,0.094c-0.011,0.009-0.023,0.017-0.035,0.024c-0.003,0.002-0.007,0.004-0.01,0.005
		c-0.024,0.013-0.049,0.023-0.075,0.032c-0.007,0.002-0.031,0.011-0.038,0.013c-0.034,0.009-0.067,0.013-0.092,0.014
		C12.022,23.999,12.01,24,12,24C11.993,24,11.986,24,11.979,23.999z"/>
	<path d="M17,10.5c-0.276,0-0.5-0.224-0.5-0.5V5.5C16.5,3.019,14.481,1,12,1C9.519,1,7.5,3.019,7.5,5.5V10
		c0,0.276-0.224,0.5-0.5,0.5c-1.379,0-2.5-1.121-2.5-2.5c0-1.199,0.845-2.215,2-2.449V5.5C6.5,2.467,8.967,0,12,0s5.5,2.467,5.5,5.5
		v0.051c1.155,0.234,2,1.25,2,2.449C19.5,9.379,18.378,10.5,17,10.5z M6.5,6.588C5.914,6.797,5.5,7.36,5.5,8s0.414,1.203,1,1.412
		V6.588z M17.5,9.412c0.586-0.209,1-0.772,1-1.412s-0.414-1.203-1-1.412V9.412z"/>
	<path d="M12,11.501c-2.206,0-4-1.794-4-4s1.794-4,4-4s4,1.794,4,4S14.206,11.501,12,11.501z M12,4.501c-1.654,0-3,1.346-3,3
		s1.346,3,3,3c1.654,0,3-1.346,3-3S13.654,4.501,12,4.501z"/>
</g>
</svg>
