<?xml version="1.0" encoding="utf-8"?>
<!-- Generator: Adobe Illustrator 22.1.0, SVG Export Plug-In . SVG Version: 6.00 Build 0)  -->
<svg version="1.1" id="Layer_1" xmlns="http://www.w3.org/2000/svg" xmlns:xlink="http://www.w3.org/1999/xlink" x="0px" y="0px"
	 viewBox="0 0 24 24" style="enable-background:new 0 0 24 24;" xml:space="preserve">
<g>
	<title>audio-book-record-microphone-a</title>
	<path d="M4,21c-0.827,0-1.5-0.673-1.5-1.5v-18C2.5,0.673,3.173,0,4,0h9.586c0.401,0,0.777,0.156,1.061,0.439l3.414,3.415
		c0.125,0.124,0.226,0.273,0.303,0.442c0,0.001,0.001,0.002,0.002,0.003c0.09,0.199,0.135,0.406,0.135,0.617V11
		c0,0.276-0.224,0.5-0.5,0.5s-0.5-0.224-0.5-0.5V5H15c-0.827,0-1.5-0.673-1.5-1.5V1H4C3.724,1,3.5,1.224,3.5,1.5v18
		C3.5,19.776,3.724,20,4,20h9c0.276,0,0.5,0.224,0.5,0.5S13.276,21,13,21H4z M14.5,3.5C14.5,3.776,14.724,4,15,4h1.792L14.5,1.707
		V3.5z"/>
	<path d="M12,14c-0.276,0-0.5-0.224-0.5-0.5v-3.499h-3V13.5C8.5,13.776,8.276,14,8,14s-0.5-0.224-0.5-0.5v-6C7.5,6.122,8.621,5,10,5
		s2.5,1.121,2.5,2.5v6C12.5,13.776,12.276,14,12,14z M11.5,9.001V7.5C11.5,6.673,10.827,6,10,6S8.5,6.673,8.5,7.5v1.501H11.5z"/>
	<path d="M17.5,19.5c-1.103,0-2-0.897-2-2v-3c0-1.103,0.897-2,2-2s2,0.897,2,2v3C19.5,18.603,18.603,19.5,17.5,19.5z M17.5,13.5
		c-0.552,0-1,0.448-1,1v3c0,0.552,0.448,1,1,1s1-0.448,1-1v-3C18.5,13.949,18.052,13.5,17.5,13.5z"/>
	<path d="M17.5,24.001c-0.276,0-0.5-0.224-0.5-0.5v-2.037c-1.981-0.249-3.5-1.947-3.5-3.964c0-0.276,0.224-0.5,0.5-0.5
		s0.5,0.224,0.5,0.5c0,1.654,1.346,3,3,3s3-1.346,3-3c0-0.276,0.224-0.5,0.5-0.5s0.5,0.224,0.5,0.5c0,2.018-1.519,3.716-3.5,3.964
		v2.037C18,23.777,17.776,24.001,17.5,24.001z"/>
</g>
</svg>
