<?xml version="1.0" encoding="utf-8"?>
<!-- Generator: Adobe Illustrator 22.1.0, SVG Export Plug-In . SVG Version: 6.00 Build 0)  -->
<svg version="1.1" id="Layer_1" xmlns="http://www.w3.org/2000/svg" xmlns:xlink="http://www.w3.org/1999/xlink" x="0px" y="0px"
	 viewBox="0 0 24 24" style="enable-background:new 0 0 24 24;" xml:space="preserve">
<g>
	<title>audio-book-headphones</title>
	<path d="M20.007,19.965c-0.213,0-0.418-0.067-0.592-0.194c-0.218-0.159-0.361-0.393-0.403-0.659
		c-0.008-0.05-0.011-0.099-0.012-0.148V11.5c0-3.86-3.14-7-7-7s-7,3.14-7,7v7.458c0,0.053-0.004,0.103-0.012,0.152
		c-0.042,0.268-0.185,0.502-0.403,0.661c-0.174,0.126-0.379,0.193-0.592,0.193c-0.052,0-0.105-0.004-0.157-0.012
		c-2.197-0.321-3.851-2.24-3.845-4.463c0.003-1.202,0.474-2.331,1.326-3.178c0.728-0.724,1.679-1.174,2.7-1.281
		C4.26,6.79,7.725,3.5,12,3.5c4.276,0,7.74,3.29,7.984,7.53c2.27,0.238,4.021,2.155,4.026,4.458c0.005,2.224-1.65,4.143-3.85,4.464
		C20.111,19.961,20.059,19.965,20.007,19.965z M4,12.034c-0.745,0.105-1.439,0.449-1.978,0.985
		c-0.663,0.659-1.029,1.538-1.031,2.472c-0.004,1.729,1.283,3.222,2.994,3.472L4,12.034z M20,18.958
		c1.726-0.244,3.014-1.737,3.01-3.466c-0.004-1.748-1.306-3.218-3.01-3.457V18.958z"/>
	<path d="M12,20.501c-0.276,0-0.5-0.224-0.5-0.5c0-0.491-0.943-1.427-4.51-1.501C6.451,18.495,6.006,18.048,6,17.505V12
		c0.003-0.274,0.111-0.526,0.303-0.714C6.492,11.102,6.741,11,7.005,11c2.706,0.043,4.273,0.398,4.995,1.14
		c0.722-0.743,2.287-1.098,4.98-1.14c0.561,0,1.013,0.446,1.02,0.994V17.5c-0.005,0.547-0.452,0.995-0.995,1
		c-1.556,0.035-4.505,0.391-4.505,1.494C12.5,20.277,12.276,20.501,12,20.501z M12.5,18.457c0.919-0.59,2.425-0.912,4.489-0.957
		L17,12l-0.009-0.25L16.995,12C12.5,12.071,12.5,13.036,12.5,13.5c0,0,0,0.001,0,0.001V18.457z M7.005,12
		C7.004,12,7,12.002,7,12.006V17.5c2.072,0.043,3.58,0.364,4.5,0.955c0,0,0-4.954,0-4.955C11.5,13.036,11.5,12.072,7.005,12
		L7.005,12z"/>
</g>
</svg>
