<?xml version="1.0" encoding="utf-8"?>
<!-- Generator: Adobe Illustrator 22.1.0, SVG Export Plug-In . SVG Version: 6.00 Build 0)  -->
<svg version="1.1" id="Layer_1" xmlns="http://www.w3.org/2000/svg" xmlns:xlink="http://www.w3.org/1999/xlink" x="0px" y="0px"
	 viewBox="0 0 24 24" style="enable-background:new 0 0 24 24;" xml:space="preserve">
<g>
	<title>audio-book-art</title>
	<path d="M12,24.005c-0.051,0-0.089-0.012-0.11-0.019c-0.016-0.002-0.025-0.004-0.04-0.009c-0.013-0.004-0.028-0.01-0.041-0.017
		c-0.031-0.013-0.056-0.027-0.081-0.043c-0.03-0.02-0.054-0.041-0.072-0.059c-0.019-0.015-0.042-0.035-0.063-0.064
		c-0.021-0.029-2.445-3.163-10.101-3.29c-0.54,0-0.986-0.444-0.992-0.99V8.01c0.003-0.275,0.111-0.528,0.304-0.717
		c0.187-0.183,0.44-0.285,0.713-0.287c0.532,0.01,1.041,0.031,1.518,0.065c0.133,0.009,0.255,0.07,0.342,0.171
		c0.088,0.101,0.131,0.23,0.121,0.363C3.48,7.87,3.266,8.07,3,8.07c-0.006,0-0.029-0.001-0.034-0.001
		C2.504,8.037,2.014,8.016,1.507,8.006L1.5,19.51c5.734,0.091,8.714,1.781,10,2.807V15c0-0.276,0.224-0.5,0.5-0.5
		c0.276,0,0.5,0.224,0.5,0.5v7.313c1.286-1.026,4.265-2.717,9.992-2.812L22.5,8.006c-0.309,0.004-0.628,0.015-0.975,0.032
		c0,0-0.001,0-0.001,0c-0.29,0-0.51-0.208-0.523-0.474c-0.007-0.133,0.039-0.261,0.129-0.36c0.09-0.099,0.213-0.157,0.346-0.164
		c0.356-0.018,0.686-0.029,1.008-0.034h0c0.558,0,1.006,0.439,1.017,0.98v11.52c-0.005,0.55-0.454,0.995-1,0.995
		c-7.513,0.124-9.977,3.143-10.088,3.284c-0.003,0.004-0.013,0.017-0.015,0.019c-0.024,0.033-0.058,0.073-0.107,0.107
		C12.205,23.973,12.105,24.005,12,24.005z"/>
	<path d="M9.797,10.72c-0.25,0-0.517-0.05-0.795-0.148c-2.257-0.647-3.87-2.676-4.001-5.044C5,4.033,5.682,2.643,6.922,1.6
		C8.148,0.569,9.774,0,11.5,0l0.087,0c1.762,0,3.448,0.648,4.748,1.825c0.099,0.09,0.157,0.212,0.164,0.346
		c0.007,0.134-0.039,0.262-0.129,0.361C16.276,2.635,16.141,2.695,16,2.695c-0.124,0-0.244-0.046-0.336-0.13
		C14.548,1.556,13.108,1,11.609,1L11.508,1C8.469,1,6,3.019,6,5.5c0.107,1.921,1.436,3.582,3.306,4.12
		C9.492,9.685,9.65,9.716,9.787,9.716c0.272,0,0.628-0.099,0.972-0.874c0.285-0.831,1.095-1.402,2.008-1.402
		c0.238,0,0.472,0.04,0.698,0.117c0.286,0.099,0.542,0.253,0.763,0.459l0.133,0.132c0.095,0.095,0.147,0.22,0.147,0.354
		c0,0.134-0.052,0.259-0.146,0.354c-0.094,0.094-0.22,0.147-0.354,0.147c-0.133,0-0.259-0.052-0.353-0.146l-0.121-0.121
		c-0.106-0.099-0.244-0.182-0.394-0.233c-0.12-0.042-0.245-0.062-0.371-0.062c-0.487,0-0.92,0.309-1.079,0.768
		C11.243,10.217,10.609,10.72,9.797,10.72z"/>
	<path d="M14,13.182c-0.077,0-0.154-0.018-0.223-0.052c-0.247-0.124-0.348-0.425-0.224-0.671l2.934-5.869
		c-0.271-0.234-0.472-0.535-0.586-0.88c-0.167-0.507-0.128-1.049,0.112-1.526c0.457-0.913,1.031-1.282,1.45-1.551
		c0.38-0.244,0.491-0.327,0.522-0.614c0.039-0.206,0.129-0.363,0.263-0.476c0.136-0.113,0.307-0.176,0.483-0.176
		c0.023,0,0.047,0.001,0.07,0.003c0.2,0.018,0.382,0.113,0.511,0.268c0.991,1.206,1.118,2.91,0.319,4.246
		c-0.332,0.725-1.058,1.192-1.854,1.192c-0.122,0-0.244-0.011-0.365-0.033c-0.01-0.002-0.021-0.004-0.031-0.007l-2.933,5.868
		C14.362,13.076,14.191,13.182,14,13.182z M17.38,5.99c0.067,0.031,0.143,0.057,0.22,0.073c0.055,0.01,0.116,0.015,0.177,0.015
		c0.412,0,0.786-0.246,0.952-0.626c0.01-0.022,0.02-0.041,0.031-0.06c0.509-0.833,0.521-1.865,0.063-2.7
		c-0.195,0.38-0.521,0.59-0.82,0.782c-0.375,0.241-0.763,0.49-1.096,1.158c-0.121,0.24-0.141,0.511-0.057,0.765
		c0.081,0.244,0.25,0.445,0.477,0.566c0.01,0.003,0.019,0.007,0.027,0.011C17.362,5.978,17.371,5.984,17.38,5.99z"/>
	<path d="M9.25,7.501c-0.965,0-1.75-0.673-1.75-1.5s0.785-1.5,1.75-1.5S11,5.174,11,6.001S10.215,7.501,9.25,7.501z M9.25,5.501
		c-0.406,0-0.75,0.229-0.75,0.5s0.344,0.5,0.75,0.5S10,6.272,10,6.001S9.656,5.501,9.25,5.501z"/>
	<path d="M11.75,4.501c-0.965,0-1.75-0.673-1.75-1.5s0.785-1.5,1.75-1.5c0.965,0,1.75,0.673,1.75,1.5S12.715,4.501,11.75,4.501z
		 M11.75,2.501c-0.406,0-0.75,0.229-0.75,0.5s0.344,0.5,0.75,0.5s0.75-0.229,0.75-0.5S12.156,2.501,11.75,2.501z"/>
</g>
</svg>
