<?xml version="1.0" encoding="utf-8"?>
<!-- Generator: Adobe Illustrator 22.1.0, SVG Export Plug-In . SVG Version: 6.00 Build 0)  -->
<svg version="1.1" id="Layer_1" xmlns="http://www.w3.org/2000/svg" xmlns:xlink="http://www.w3.org/1999/xlink" x="0px" y="0px"
	 viewBox="0 0 24 24" style="enable-background:new 0 0 24 24;" xml:space="preserve">
<g>
	<title>design-tool-compass</title>
	<path d="M23.203,24.005c-0.176,0-0.341-0.094-0.43-0.245l-1.457-2.457c-0.209,0.105-0.44,0.16-0.675,0.16
		c-0.529,0-1.009-0.266-1.286-0.712L11.909,8.633l-2.29,6.101c-0.315,0.732-1.018,1.222-1.794,1.261l-6.525,0v2.47
		c0.005,0.166,0.022,0.341,0.052,0.53h2.894c0.03-0.181,0.047-0.351,0.054-0.515l0-0.98c0-0.276,0.224-0.5,0.5-0.5
		s0.5,0.224,0.5,0.5v1c-0.029,0.738-0.195,1.44-0.495,2.098l-1.337,2.675c-0.144,0.289-0.395,0.461-0.671,0.461
		s-0.527-0.172-0.671-0.461l-1.329-2.659c-0.136-0.301-0.241-0.604-0.325-0.937c-0.008-0.023-0.012-0.042-0.015-0.055
		C0.363,19.238,0.311,18.856,0.3,18.48l0-11.948C0.298,6.52,0.297,6.506,0.297,6.495c0-0.013,0.001-0.027,0.004-0.042L0.3,5.5
		C0.3,4.122,1.421,3,2.8,3s2.5,1.121,2.5,2.5v5.969c0,0.276-0.224,0.5-0.5,0.5s-0.5-0.224-0.5-0.5V6.995h-3v6h4.276
		c0.378-0.019,0.731-0.268,0.887-0.634L8.3,7.41V3.5C8.3,1.57,9.87,0,11.8,0s3.5,1.57,3.5,3.5v3.856l7.204,11.468
		c0.406,0.647,0.25,1.491-0.336,1.955l1.465,2.471c0.14,0.237,0.062,0.544-0.175,0.685C23.38,23.981,23.292,24.005,23.203,24.005z
		 M1.62,19.995c0.026,0.066,0.052,0.129,0.079,0.189l1.097,2.194l1.106-2.212c0.024-0.054,0.048-0.111,0.072-0.171H1.62z
		 M20.205,20.225c0.091,0.146,0.258,0.238,0.434,0.238c0.092,0,0.182-0.025,0.26-0.072l0.296-0.179
		c0.013-0.011,0.027-0.021,0.038-0.028c0.017-0.01,0.032-0.017,0.046-0.022l0.219-0.134c0.228-0.143,0.301-0.446,0.158-0.672
		L14.523,8h-1.83L20.205,20.225z M7.8,14.995c0.373-0.019,0.736-0.274,0.892-0.635L11.078,8H9.147l-1.756,4.731
		c-0.312,0.734-1.014,1.225-1.791,1.264l-4.301,0v1H7.8z M14.3,7V3.5c0-1.379-1.122-2.5-2.5-2.5c-1.379,0-2.5,1.121-2.5,2.5V7H14.3z
		 M4.3,5.995V5.5C4.3,4.673,3.627,4,2.8,4S1.3,4.673,1.3,5.5v0.495H4.3z"/>
</g>
</svg>
