<?xml version="1.0" encoding="utf-8"?>
<!-- Generator: Adobe Illustrator 22.1.0, SVG Export Plug-In . SVG Version: 6.00 Build 0)  -->
<svg version="1.1" id="Layer_1" xmlns="http://www.w3.org/2000/svg" xmlns:xlink="http://www.w3.org/1999/xlink" x="0px" y="0px"
	 viewBox="0 0 24 24" style="enable-background:new 0 0 24 24;" xml:space="preserve">
<g>
	<title>design-tool-selection-wand</title>
	<path d="M0.5,24c-0.134,0-0.259-0.052-0.354-0.146S0,23.634,0,23.5s0.052-0.259,0.146-0.354l13-13C13.241,10.052,13.366,10,13.5,10
		s0.259,0.052,0.354,0.146S14,10.366,14,10.5s-0.052,0.259-0.146,0.354l-13,13C0.759,23.948,0.634,24,0.5,24z"/>
	<path d="M20.5,8C20.224,8,20,7.776,20,7.5S20.224,7,20.5,7h3C23.776,7,24,7.224,24,7.5S23.776,8,23.5,8H20.5z"/>
	<path d="M19.5,5c-0.134,0-0.259-0.052-0.354-0.146S19,4.634,19,4.5s0.052-0.259,0.146-0.354l2-2C21.241,2.052,21.366,2,21.5,2
		s0.259,0.052,0.354,0.146S22,2.366,22,2.5s-0.052,0.259-0.146,0.354l-2,2C19.759,4.948,19.634,5,19.5,5z"/>
	<path d="M16.5,4C16.224,4,16,3.776,16,3.5v-3C16,0.224,16.224,0,16.5,0S17,0.224,17,0.5v3C17,3.776,16.776,4,16.5,4z"/>
	<path d="M13.5,5c-0.134,0-0.259-0.052-0.354-0.146l-2-2C11.052,2.759,11,2.634,11,2.5s0.052-0.259,0.146-0.354S11.366,2,11.5,2
		s0.259,0.052,0.354,0.146l2,2C13.948,4.241,14,4.366,14,4.5s-0.052,0.259-0.146,0.354S13.634,5,13.5,5z"/>
	<path d="M9.5,8C9.224,8,9,7.776,9,7.5S9.224,7,9.5,7h3C12.776,7,13,7.224,13,7.5S12.776,8,12.5,8H9.5z"/>
	<path d="M16.5,14c-0.276,0-0.5-0.224-0.5-0.5v-3c0-0.276,0.224-0.5,0.5-0.5s0.5,0.224,0.5,0.5v3C17,13.776,16.776,14,16.5,14z"/>
	<path d="M21.5,12c-0.134,0-0.259-0.052-0.354-0.146l-2-2C19.052,9.759,19,9.634,19,9.5s0.052-0.259,0.146-0.354S19.366,9,19.5,9
		s0.259,0.052,0.354,0.146l2,2C21.948,11.241,22,11.366,22,11.5s-0.052,0.259-0.146,0.354S21.634,12,21.5,12z"/>
</g>
</svg>
