<?xml version="1.0" encoding="utf-8"?>
<!-- Generator: Adobe Illustrator 22.1.0, SVG Export Plug-In . SVG Version: 6.00 Build 0)  -->
<svg version="1.1" id="Layer_1" xmlns="http://www.w3.org/2000/svg" xmlns:xlink="http://www.w3.org/1999/xlink" x="0px" y="0px"
	 viewBox="0 0 24 24" style="enable-background:new 0 0 24 24;" xml:space="preserve">
<g>
	<title>design-tool-paper-glue-1</title>
	<path d="M4.543,23.936c-1.189,0-2.306-0.452-3.145-1.272c-0.858-0.839-1.338-1.964-1.352-3.167s0.441-2.339,1.28-3.197l1.721-1.723
		c-0.269-0.565-0.16-1.254,0.292-1.707l9.448-9.448c-0.151-0.726,0.072-1.485,0.598-2.012l0.767-0.768
		c0.416-0.417,0.97-0.646,1.561-0.646c0.59,0,1.145,0.229,1.561,0.646l6.071,6.072c0.417,0.417,0.646,0.97,0.646,1.559
		c0,0.59-0.23,1.144-0.646,1.562l-0.769,0.768c-0.417,0.416-0.97,0.645-1.56,0.645c-0.15,0-0.302-0.016-0.452-0.047l-9.448,9.448
		c-0.283,0.283-0.66,0.439-1.061,0.439c-0.226,0-0.446-0.05-0.646-0.146l-1.717,1.718C6.852,23.483,5.734,23.936,4.543,23.936z
		 M2.038,17.003c-1.346,1.377-1.32,3.596,0.06,4.946c0.652,0.637,1.521,0.989,2.447,0.989c0.926,0,1.795-0.351,2.447-0.989
		l1.653-1.654l-4.95-4.95L2.038,17.003z M4.047,13.577c-0.195,0.195-0.195,0.512,0,0.707l5.657,5.657
		c0.094,0.094,0.22,0.146,0.354,0.146c0.134,0,0.259-0.052,0.353-0.146l9.2-9.2c-0.052-0.043-0.101-0.087-0.149-0.135l-6.076-6.076
		c-0.05-0.05-0.096-0.101-0.139-0.154L4.047,13.577z M20.164,9.895c0.052,0.052,0.111,0.1,0.179,0.146
		c0.067,0.045,0.127,0.076,0.199,0.107c0,0,0.034,0.015,0.034,0.015c0.141,0.055,0.29,0.083,0.443,0.083
		c0.322,0,0.625-0.125,0.851-0.352l0.768-0.767c0.228-0.228,0.353-0.531,0.354-0.854c0-0.322-0.126-0.624-0.354-0.852L22.078,6.86
		l-2.474,2.475L20.164,9.895z M18.897,8.627l2.474-2.475l-1.414-1.414l-2.474,2.475L18.897,8.627z M16.776,6.506l2.474-2.475
		l-1.414-1.415l-2.475,2.475L16.776,6.506z M14.654,4.384l2.475-2.475l-0.561-0.561c-0.228-0.228-0.531-0.353-0.854-0.353
		c-0.323,0-0.626,0.125-0.854,0.353l-0.767,0.768c-0.338,0.339-0.443,0.847-0.268,1.295c0.001,0.002,0.014,0.031,0.015,0.033
		c0.031,0.071,0.062,0.132,0.097,0.185c0.057,0.083,0.104,0.141,0.156,0.193c0.002,0.002,0.004,0.004,0.006,0.006L14.654,4.384z"/>
	<path d="M10.412,16.49c-0.401,0-0.777-0.156-1.061-0.439l-1.414-1.414c-0.283-0.283-0.439-0.66-0.439-1.061
		c0-0.401,0.156-0.778,0.439-1.061l4.243-4.243c0.283-0.283,0.659-0.439,1.061-0.439s0.778,0.156,1.061,0.439l1.414,1.414
		c0.283,0.283,0.439,0.66,0.439,1.061c0,0.401-0.156,0.777-0.439,1.061l-4.243,4.243C11.189,16.334,10.813,16.49,10.412,16.49z
		 M13.24,8.834c-0.134,0-0.259,0.052-0.354,0.146l-4.243,4.242c-0.195,0.195-0.195,0.512,0,0.707l1.414,1.414
		c0.089,0.088,0.217,0.139,0.354,0.139c0.136,0,0.265-0.051,0.354-0.139l4.242-4.242c0.094-0.095,0.146-0.22,0.146-0.354
		s-0.052-0.259-0.146-0.354L13.594,8.98C13.5,8.886,13.374,8.834,13.24,8.834z"/>
</g>
</svg>
