<?xml version="1.0" encoding="utf-8"?>
<!-- Generator: Adobe Illustrator 22.1.0, SVG Export Plug-In . SVG Version: 6.00 Build 0)  -->
<svg version="1.1" id="Layer_1" xmlns="http://www.w3.org/2000/svg" xmlns:xlink="http://www.w3.org/1999/xlink" x="0px" y="0px"
	 viewBox="0 0 24 24" style="enable-background:new 0 0 24 24;" xml:space="preserve">
<g>
	<title>design-tool-quill</title>
	<path d="M0.743,23.749c-0.134,0-0.259-0.052-0.354-0.146c-0.195-0.195-0.195-0.512,0-0.707l5.207-5.207
		C4.201,15.76,3.973,11.335,8.897,6.412c1.046-1.089,2.274-1.97,3.649-2.616c0.066-0.031,0.139-0.048,0.213-0.048
		c0.095,0,0.188,0.027,0.268,0.078c0.145,0.092,0.232,0.25,0.232,0.422v1.596c0.481-0.694,0.992-1.65,0.992-2.579
		c0-0.201,0.119-0.382,0.304-0.46c2.718-1.157,5.576-2.002,8.495-2.51c0.06-0.024,0.125-0.037,0.189-0.037
		c0.062,0,0.123,0.011,0.18,0.034c0.077,0.026,0.147,0.07,0.203,0.129c0.115,0.121,0.162,0.291,0.125,0.454
		c-0.018,0.081-1.873,8.21-6.048,13.12c-0.024,0.073-0.062,0.135-0.114,0.187c-0.037,0.037-0.08,0.067-0.129,0.091
		c-0.211,0.237-0.389,0.427-0.56,0.598c-0.196,0.197-0.408,0.401-0.647,0.623c-0.022,0.038-0.048,0.072-0.079,0.103
		c-0.038,0.038-0.083,0.07-0.133,0.094c-1.925,1.748-3.863,2.899-5.605,3.331c-0.534,0.132-1.054,0.199-1.545,0.199
		c-0.999,0-1.888-0.283-2.588-0.821l-5.202,5.202C1.002,23.697,0.876,23.749,0.743,23.749z M7.01,17.688
		c0.507,0.349,1.15,0.532,1.879,0.532c0.41,0,0.848-0.057,1.302-0.169c1.494-0.37,3.178-1.351,4.883-2.843l-1.732-1.733
		c-0.094-0.094-0.146-0.22-0.146-0.354c0-0.134,0.052-0.259,0.147-0.353c0.094-0.094,0.22-0.146,0.353-0.146
		s0.259,0.052,0.354,0.146l1.763,1.764c0.126-0.12,0.251-0.242,0.377-0.368c0.103-0.103,0.209-0.214,0.328-0.343l-1.761-1.76
		c-0.094-0.095-0.146-0.22-0.146-0.354c0-0.134,0.052-0.259,0.146-0.354s0.22-0.146,0.354-0.146c0.133,0,0.259,0.052,0.353,0.146
		l1.711,1.71c2.707-3.334,4.365-8.062,5.131-10.67L7.01,17.688z M12.259,5.067c-0.979,0.547-1.868,1.233-2.647,2.045
		c-2.356,2.355-5.25,7.038-3.3,9.861L21.705,1.58c-2.219,0.481-4.391,1.161-6.47,2.025c-0.191,2.058-2.043,3.919-2.124,3.999
		c-0.093,0.094-0.219,0.146-0.352,0.146c-0.066,0-0.131-0.013-0.192-0.039c-0.187-0.078-0.308-0.259-0.308-0.462V5.067z"/>
</g>
</svg>
