<?xml version="1.0" encoding="utf-8"?>
<!-- Generator: Adobe Illustrator 22.1.0, SVG Export Plug-In . SVG Version: 6.00 Build 0)  -->
<svg version="1.1" id="Layer_1" xmlns="http://www.w3.org/2000/svg" xmlns:xlink="http://www.w3.org/1999/xlink" x="0px" y="0px"
	 viewBox="0 0 24 24" style="enable-background:new 0 0 24 24;" xml:space="preserve">
<g>
	<title>design-tool-sharpener</title>
	<path d="M4.5,24C3.673,24,3,23.327,3,22.5v-5.42c0-0.127,0.048-0.248,0.134-0.341C4.339,15.448,5.002,13.766,5,12
		c0.002-1.766-0.661-3.449-1.865-4.739C3.048,7.168,3,7.047,3,6.92V1.5C3,0.673,3.673,0,4.5,0h15C20.327,0,21,0.673,21,1.5v5.42
		c0,0.127-0.048,0.248-0.135,0.341c-2.476,2.657-2.476,6.821,0,9.478C20.952,16.832,21,16.953,21,17.08v5.42
		c0,0.827-0.673,1.5-1.5,1.5H4.5z M4,22.5C4,22.776,4.224,23,4.5,23h15c0.276,0,0.5-0.224,0.5-0.5v-5.227
		c-2.635-2.976-2.635-7.57,0-10.546V1.5C20,1.224,19.776,1,19.5,1H17v13c0,2.757-2.243,5-5,5c-0.548,0-1.097-0.094-1.63-0.278
		c-0.032-0.009-0.062-0.019-0.089-0.032C8.318,17.968,7,16.085,7,14V1H4.5C4.224,1,4,1.224,4,1.5v5.227
		C5.292,8.182,6.002,10.051,6,12c0.002,1.949-0.708,3.818-2,5.273V22.5z M11,17.873C11.326,17.957,11.661,18,12,18
		c2.206,0,4-1.794,4-4V1h-5V17.873z M8,14c0,1.429,0.773,2.748,2,3.459V1H8V14z"/>
	<path d="M13.5,11c-1.103,0-2-0.897-2-2s0.897-2,2-2s2,0.897,2,2S14.603,11,13.5,11z M13.5,8c-0.552,0-1,0.449-1,1s0.448,1,1,1
		s1-0.449,1-1S14.052,8,13.5,8z"/>
</g>
</svg>
