<?xml version="1.0" encoding="utf-8"?>
<!-- Generator: Adobe Illustrator 22.1.0, SVG Export Plug-In . SVG Version: 6.00 Build 0)  -->
<svg version="1.1" id="Layer_1" xmlns="http://www.w3.org/2000/svg" xmlns:xlink="http://www.w3.org/1999/xlink" x="0px" y="0px"
	 viewBox="0 0 24 24" style="enable-background:new 0 0 24 24;" xml:space="preserve">
<g>
	<title>design-tool-magic-wand-1</title>
	<path d="M1.608,23.891c-0.401,0-0.778-0.156-1.062-0.439c-0.283-0.283-0.439-0.66-0.439-1.062s0.156-0.778,0.439-1.062
		L13.506,8.372c0.094-0.094,0.22-0.146,0.354-0.146s0.259,0.052,0.354,0.146s0.146,0.22,0.146,0.354
		c0,0.134-0.052,0.259-0.146,0.354L1.254,22.036c-0.195,0.196-0.195,0.513,0,0.709c0.094,0.094,0.22,0.146,0.354,0.146
		s0.26-0.052,0.354-0.146L14.92,9.786c0.094-0.094,0.22-0.146,0.354-0.146s0.259,0.052,0.354,0.146
		c0.094,0.094,0.146,0.22,0.146,0.354c0,0.134-0.052,0.259-0.146,0.354L2.67,23.452C2.387,23.735,2.01,23.891,1.608,23.891z"/>
	<path d="M17.65,11.657c-0.026,0-0.048-0.002-0.067-0.004c-0.105-0.012-0.453-0.088-0.6-0.558l-0.97-3.107l-3.107-0.971
		c-0.473-0.149-0.547-0.498-0.558-0.602s-0.016-0.46,0.412-0.708l2.765-1.6l0.058-3.226c0.01-0.33,0.159-0.587,0.409-0.708
		c0.091-0.044,0.189-0.066,0.292-0.066c0.172,0,0.348,0.063,0.507,0.183l2.268,1.713l2.896-0.91c0.096-0.03,0.192-0.046,0.285-0.046
		c0.198,0,0.379,0.072,0.51,0.202c0.195,0.194,0.254,0.492,0.159,0.796l-0.91,2.894l1.71,2.267c0.195,0.26,0.236,0.563,0.112,0.813
		c-0.124,0.247-0.388,0.395-0.708,0.396l-3.221,0.058l-1.598,2.765C18.082,11.603,17.8,11.657,17.65,11.657z M16.56,7.112
		c0.157,0.049,0.28,0.172,0.328,0.328l0.858,2.748l1.42-2.457c0.087-0.151,0.25-0.247,0.424-0.25l3.03-0.054l-1.576-2.089
		c-0.097-0.129-0.126-0.297-0.078-0.451l0.849-2.701l-2.704,0.849c-0.049,0.015-0.099,0.023-0.15,0.023
		c-0.109,0-0.213-0.035-0.301-0.1L16.573,1.38l-0.054,3.027c-0.003,0.174-0.099,0.337-0.25,0.424l-2.456,1.421L16.56,7.112z"/>
</g>
</svg>
