<?xml version="1.0" encoding="utf-8"?>
<!-- Generator: Adobe Illustrator 22.1.0, SVG Export Plug-In . SVG Version: 6.00 Build 0)  -->
<svg version="1.1" id="Layer_1" xmlns="http://www.w3.org/2000/svg" xmlns:xlink="http://www.w3.org/1999/xlink" x="0px" y="0px"
	 viewBox="0 0 24 24" style="enable-background:new 0 0 24 24;" xml:space="preserve">
<g>
	<title>design-tool-pencil-ruler</title>
	<path d="M7.5,24C6.121,24,5,22.878,5,21.5V8c0-0.071,0.015-0.139,0.043-0.204l1.8-4.043c0.201-0.45,0.556-0.485,0.66-0.485
		s0.459,0.035,0.66,0.484l1.794,4.044C9.986,7.862,10,7.93,10,8v13.5C10,22.878,8.879,24,7.5,24z M6,21.5C6,22.327,6.673,23,7.5,23
		S9,22.327,9,21.5V21H6V21.5z M9,20v-1H6v1H9z M9,18V8.106L8.953,8H8v10H9z M7,18V8H6.047L6,8.106V18H7z M8.509,7L7.503,4.731
		L6.493,7H8.509z"/>
	<path d="M13.5,24c-0.827,0-1.5-0.673-1.5-1.5v-21C12,0.673,12.673,0,13.5,0h4C18.327,0,19,0.673,19,1.5v21
		c0,0.827-0.673,1.5-1.5,1.5H13.5z M13,22.5c0,0.276,0.224,0.5,0.5,0.5h4c0.276,0,0.5-0.224,0.5-0.5v-21C18,1.224,17.776,1,17.5,1
		h-4C13.224,1,13,1.224,13,1.5V3h1.5C14.776,3,15,3.224,15,3.5S14.776,4,14.5,4H13v3h1.5C14.776,7,15,7.224,15,7.5S14.776,8,14.5,8
		H13v3h1.5c0.276,0,0.5,0.224,0.5,0.5S14.776,12,14.5,12H13v3h1.5c0.276,0,0.5,0.224,0.5,0.5S14.776,16,14.5,16H13v3h1.5
		c0.276,0,0.5,0.224,0.5,0.5S14.776,20,14.5,20H13V22.5z"/>
</g>
</svg>
