<?xml version="1.0" encoding="utf-8"?>
<!-- Generator: Adobe Illustrator 22.1.0, SVG Export Plug-In . SVG Version: 6.00 Build 0)  -->
<svg version="1.1" id="Layer_1" xmlns="http://www.w3.org/2000/svg" xmlns:xlink="http://www.w3.org/1999/xlink" x="0px" y="0px"
	 viewBox="0 0 24 24" style="enable-background:new 0 0 24 24;" xml:space="preserve">
<g>
	<title>design-tool-glue</title>
	<path d="M0.874,21.797c-0.499,0-0.663-0.294-0.71-0.421c-0.047-0.126-0.117-0.456,0.258-0.785l3.221-2.819L3.36,17.49
		c-0.366-0.367-0.389-0.963-0.053-1.356c0.974-1.138,1.139-2.307,0.454-3.208c-0.301-0.397-0.262-0.961,0.09-1.313l0.668-0.669
		C4.526,10.938,16.293,0.583,16.293,0.583c0.292-0.249,0.658-0.385,1.034-0.385c0.412,0,0.804,0.159,1.102,0.448l4.591,4.59
		c0.572,0.597,0.621,1.497,0.121,2.144l-9.878,12.231c-0.006,0.007-0.03,0.033-0.035,0.038l-0.669,0.67
		c-0.188,0.188-0.44,0.292-0.709,0.292c-0.22,0-0.429-0.07-0.603-0.202c-0.368-0.28-0.776-0.421-1.215-0.421
		c-0.637,0-1.326,0.302-1.994,0.875c-0.18,0.154-0.411,0.239-0.65,0.239c-0.269,0-0.52-0.104-0.709-0.293l-0.352-0.352l-1.254,0.939
		c-0.359,0.244-0.762,0.38-1.176,0.4L0.874,21.797z M3.874,20.797c0.207-0.011,0.432-0.087,0.62-0.214l1.119-0.839l-1.261-1.261
		l-2.646,2.315H3.874z M4.558,12.32c0.98,1.29,0.797,2.959-0.491,4.464l3.32,3.319c0.849-0.727,1.766-1.111,2.651-1.111
		c0.661,0,1.27,0.209,1.813,0.622l0.316-0.316l-7.293-7.293L4.558,12.32z M12.834,18.551l9.522-11.79
		c0.19-0.246,0.17-0.595-0.051-0.825l-4.577-4.577c-0.106-0.103-0.249-0.161-0.4-0.161c-0.138,0-0.273,0.05-0.38,0.141L5.605,11.321
		L12.834,18.551z"/>
	<path d="M6.374,23.797c-0.276,0-0.5-0.224-0.5-0.5s0.224-0.5,0.5-0.5h17c0.276,0,0.5,0.224,0.5,0.5s-0.224,0.5-0.5,0.5H6.374z"/>
</g>
</svg>
