<?xml version="1.0" encoding="utf-8"?>
<!-- Generator: Adobe Illustrator 22.1.0, SVG Export Plug-In . SVG Version: 6.00 Build 0)  -->
<svg version="1.1" id="Layer_1" xmlns="http://www.w3.org/2000/svg" xmlns:xlink="http://www.w3.org/1999/xlink" x="0px" y="0px"
	 viewBox="0 0 24 24" style="enable-background:new 0 0 24 24;" xml:space="preserve">
<g>
	<title>professions-man-chef-3</title>
	<path d="M12,14.527c-0.653,0-1.278-0.218-1.807-0.63c-0.217-0.169-0.257-0.484-0.088-0.701c0.096-0.123,0.24-0.193,0.395-0.193
		c0.111,0,0.22,0.038,0.307,0.106c0.35,0.272,0.763,0.417,1.193,0.417c0.43,0,0.842-0.144,1.193-0.417
		c0.088-0.068,0.197-0.105,0.307-0.105c0.156,0,0.299,0.07,0.395,0.193c0.082,0.105,0.118,0.237,0.102,0.369
		c-0.016,0.133-0.084,0.25-0.189,0.333C13.278,14.309,12.653,14.527,12,14.527z"/>
	<path d="M15,24.203c-0.276,0-0.5-0.224-0.5-0.5v-1.3c0-0.252-0.135-0.469-0.321-0.515l-3.625-1.107
		c-0.024-0.007-0.051-0.018-0.076-0.03C9.892,20.458,9.5,19.876,9.5,19.303V18.13c-4.229,0.442-6.573,1.937-7.395,2.569
		C1.728,21.001,1.5,21.452,1.5,21.903v1.6c0,0.276-0.224,0.5-0.5,0.5s-0.5-0.224-0.5-0.5v-1.6c0-0.752,0.369-1.496,0.988-1.991
		c1.14-0.877,4.438-2.909,10.512-2.909c6.074,0,9.37,2.031,10.505,2.904c0.625,0.5,0.995,1.245,0.995,1.997v1.6
		c0,0.276-0.224,0.5-0.5,0.5s-0.5-0.224-0.5-0.5v-1.6c0-0.451-0.229-0.903-0.612-1.209c-1.049-0.807-4.12-2.691-9.888-2.691
		c-0.499,0-1.003,0.015-1.5,0.045v1.255c0,0.187,0.163,0.409,0.391,0.535l3.555,1.087c0.615,0.153,1.054,0.762,1.054,1.478v1.3
		C15.5,23.978,15.276,24.203,15,24.203z"/>
	<path d="M14,12.003c-0.379,0-0.7-0.321-0.7-0.7c0-0.379,0.321-0.7,0.7-0.7s0.7,0.321,0.7,0.7C14.7,11.682,14.379,12.003,14,12.003z
		"/>
	<path d="M10,12.003c-0.379,0-0.7-0.321-0.7-0.7c0-0.379,0.321-0.7,0.7-0.7s0.7,0.321,0.7,0.7C10.7,11.682,10.379,12.003,10,12.003z
		"/>
	<path d="M12,16.503c-3.084,0-5.5-2.416-5.5-5.5V9.508L6.413,7.502c-1.276-0.801-1.726-2.38-1.066-3.808
		c0.511-1.023,1.572-1.68,2.706-1.68c0.214,0,0.427,0.023,0.635,0.069c0.433-1.018,1.289-1.764,2.381-2.061
		c0.295-0.07,0.587-0.104,0.876-0.104c1.433,0,2.715,0.848,3.263,2.135c0.251-0.069,0.51-0.104,0.773-0.104
		c0.321,0,0.642,0.052,0.952,0.156c0.755,0.252,1.364,0.776,1.714,1.476c0.673,1.456,0.214,3.113-1.06,3.922L17.5,9.519l0,1.484
		C17.5,14.087,15.084,16.503,12,16.503z M7.5,11.003c0,2.523,1.977,4.5,4.5,4.5c2.523,0,4.5-1.977,4.5-4.5v-0.958
		c-1.506,0.122-3.019,0.184-4.5,0.184s-2.994-0.062-4.5-0.184V11.003z M7.48,9.043C8.975,9.167,10.495,9.229,12,9.229
		s3.025-0.063,4.52-0.186l0.081-1.862C16.608,7,16.714,6.837,16.876,6.756c0.973-0.486,1.355-1.692,0.869-2.743
		c-0.225-0.449-0.627-0.793-1.129-0.96c-0.208-0.069-0.422-0.105-0.636-0.105c-0.301,0-0.589,0.068-0.858,0.202
		c-0.069,0.035-0.146,0.053-0.224,0.053c-0.073,0-0.143-0.016-0.209-0.046c-0.138-0.064-0.239-0.185-0.276-0.333
		c-0.281-1.123-1.297-1.908-2.471-1.908c-0.21,0-0.421,0.025-0.629,0.074c-0.909,0.248-1.58,0.922-1.832,1.845
		C9.445,2.973,9.349,3.089,9.22,3.152C9.151,3.185,9.075,3.203,9,3.203c-0.067,0-0.132-0.013-0.193-0.039
		c-0.241-0.1-0.496-0.151-0.757-0.151c-0.757,0-1.464,0.437-1.802,1.114C5.78,5.138,6.156,6.272,7.124,6.756
		C7.286,6.837,7.392,7,7.4,7.181L7.48,9.043z"/>
</g>
</svg>
