<?xml version="1.0" encoding="utf-8"?>
<!-- Generator: Adobe Illustrator 22.1.0, SVG Export Plug-In . SVG Version: 6.00 Build 0)  -->
<svg version="1.1" id="Layer_1" xmlns="http://www.w3.org/2000/svg" xmlns:xlink="http://www.w3.org/1999/xlink" x="0px" y="0px"
	 viewBox="0 0 24 24" style="enable-background:new 0 0 24 24;" xml:space="preserve">
<g>
	<title>professions-man-construction-1</title>
	<path d="M12,13.013c-0.648,0-1.287-0.212-1.8-0.596c-0.107-0.08-0.176-0.197-0.195-0.329c-0.019-0.132,0.015-0.264,0.095-0.371
		c0.094-0.125,0.244-0.2,0.4-0.2c0.109,0,0.213,0.035,0.3,0.1c0.341,0.256,0.767,0.397,1.2,0.397c0.432,0,0.859-0.141,1.2-0.397
		c0.086-0.065,0.19-0.1,0.3-0.1c0.156,0,0.306,0.075,0.4,0.2c0.08,0.107,0.114,0.238,0.095,0.371
		c-0.019,0.132-0.088,0.249-0.195,0.329C13.287,12.801,12.648,13.013,12,13.013z"/>
	<path d="M23,24.017c-0.276,0-0.5-0.224-0.5-0.5v-2.106c0.003-0.461-0.212-0.903-0.575-1.183c-0.48-0.368-1.277-0.891-2.425-1.374
		v4.663c0,0.276-0.224,0.5-0.5,0.5s-0.5-0.224-0.5-0.5v-5.04c-0.324-0.109-0.659-0.209-1-0.3v5.34c0,0.276-0.224,0.5-0.5,0.5H7
		c-0.276,0-0.5-0.224-0.5-0.5v-5.336c-0.341,0.091-0.676,0.192-1,0.301v5.035c0,0.276-0.224,0.5-0.5,0.5s-0.5-0.224-0.5-0.5v-4.658
		c-1.146,0.483-1.945,1.005-2.427,1.371c-0.361,0.278-0.576,0.719-0.573,1.177v2.109c0,0.276-0.224,0.5-0.5,0.5s-0.5-0.224-0.5-0.5
		v-2.106c-0.005-0.767,0.355-1.505,0.965-1.975c0.638-0.485,1.736-1.186,3.349-1.773c2.099-0.762,4.513-1.146,7.187-1.146
		c5.851,0,9.111,1.828,10.534,2.918c0.61,0.47,0.971,1.21,0.966,1.979v2.103C23.5,23.792,23.276,24.017,23,24.017z M16.5,23.017v-1
		h-9v1H16.5z M16.5,21.017v-3.073c-1.238-0.253-2.582-0.394-4-0.421v3.494H16.5z M11.5,21.017v-3.494
		c-1.417,0.027-2.76,0.169-4,0.424v3.07H11.5z"/>
	<circle cx="14" cy="9.517" r="0.75"/>
	<circle cx="10" cy="9.517" r="0.75"/>
	<path d="M12,16.017c-3.584,0-6.5-2.916-6.5-6.5v-1.5h-1c-0.276,0-0.5-0.224-0.5-0.5s0.224-0.5,0.5-0.5h1.024
		c0.192-2.568,1.844-4.741,4.275-5.613l0.043-0.201c0.147-0.687,0.763-1.186,1.465-1.186h1.384c0.703,0.001,1.319,0.5,1.466,1.187
		l0.043,0.2c2.432,0.872,4.083,3.045,4.275,5.613H19.5c0.276,0,0.5,0.224,0.5,0.5s-0.224,0.5-0.5,0.5h-1v1.5
		C18.5,13.101,15.584,16.017,12,16.017z M6.5,9.517c0,3.033,2.467,5.5,5.5,5.5s5.5-2.467,5.5-5.5v-1.5h-11V9.517z M17.473,7.017
		c-0.171-1.903-1.32-3.578-3.017-4.422l0.948,4.422H17.473z M14.382,7.017L13.18,1.413c-0.049-0.229-0.255-0.396-0.489-0.396h-1.383
		c-0.234,0-0.439,0.167-0.488,0.396L9.619,7.017H14.382z M8.596,7.017l0.948-4.422C7.846,3.439,6.698,5.114,6.527,7.017H8.596z"/>
	<path d="M12,6.017c-0.276,0-0.5-0.224-0.5-0.5v-2c0-0.276,0.224-0.5,0.5-0.5c0.276,0,0.5,0.224,0.5,0.5v2
		C12.5,5.793,12.276,6.017,12,6.017z"/>
</g>
</svg>
