<?xml version="1.0" encoding="utf-8"?>
<!-- Generator: Adobe Illustrator 22.1.0, SVG Export Plug-In . SVG Version: 6.00 Build 0)  -->
<svg version="1.1" id="Layer_1" xmlns="http://www.w3.org/2000/svg" xmlns:xlink="http://www.w3.org/1999/xlink" x="0px" y="0px"
	 viewBox="0 0 24 24" style="enable-background:new 0 0 24 24;" xml:space="preserve">
<g>
	<title>professions-man-magician</title>
	<path d="M15.284,23.849c-0.153,0-0.301-0.034-0.439-0.101L12,22.326l-2.838,1.419c-0.144,0.069-0.293,0.104-0.446,0.104
		c-0.113,0-0.225-0.019-0.333-0.057c-0.256-0.089-0.461-0.273-0.578-0.516c-0.01-0.02-0.021-0.044-0.03-0.069
		c-0.371-0.929-0.371-1.953,0.001-2.884c0.097-0.249,0.287-0.446,0.535-0.554c0.129-0.056,0.265-0.085,0.405-0.085
		c0.126,0,0.25,0.023,0.369,0.07c0.026,0.01,0.048,0.02,0.069,0.031L12,21.207l2.837-1.419c0.032-0.015,0.053-0.024,0.075-0.033
		c0.12-0.047,0.245-0.071,0.371-0.071c0.42,0,0.79,0.252,0.943,0.642c0.371,0.927,0.371,1.952-0.001,2.882
		c-0.008,0.021-0.019,0.046-0.031,0.071c-0.116,0.241-0.321,0.423-0.576,0.513C15.509,23.83,15.397,23.849,15.284,23.849z
		 M15.286,22.85c0.288-0.703,0.288-1.465,0.011-2.156l-0.012-0.01c0,0-0.002,0-0.003,0l-2.164,1.082L15.286,22.85z M8.711,20.685
		c-0.283,0.698-0.285,1.458-0.01,2.147l2.177-1.067l-2.163-1.081C8.713,20.684,8.712,20.684,8.711,20.685z"/>
	<path d="M12,16.517c-3.033,0-5.5-2.467-5.5-5.5V9.154C5.09,8.995,3.691,8.777,2.337,8.507C2.206,8.481,2.093,8.405,2.019,8.294
		C1.945,8.183,1.919,8.05,1.945,7.919c0.046-0.233,0.252-0.402,0.49-0.402c0.032,0,0.065,0.003,0.098,0.01
		c1.269,0.254,2.582,0.46,3.908,0.614l-0.44-6.634c-0.015-0.222,0.121-0.429,0.33-0.504C8.151,0.35,10.058,0.019,12,0.019
		s3.849,0.331,5.669,0.984c0.209,0.075,0.344,0.282,0.33,0.504l-0.44,6.634c1.325-0.154,2.638-0.361,3.907-0.614
		c0.034-0.007,0.066-0.01,0.098-0.01c0.237,0,0.443,0.169,0.49,0.402c0.026,0.131,0,0.264-0.074,0.375
		c-0.074,0.111-0.187,0.187-0.318,0.213C20.309,8.778,18.91,8.995,17.5,9.154l0,1.862C17.5,14.049,15.033,16.517,12,16.517z
		 M7.5,11.017c0,2.481,2.019,4.5,4.5,4.5c2.481,0,4.5-2.019,4.5-4.5V9.26c-1.498,0.138-3.01,0.208-4.5,0.208
		c-1.49,0-3.002-0.07-4.501-0.208L7.5,11.017z M7.45,8.251C8.96,8.395,10.489,8.468,12,8.468s3.04-0.073,4.549-0.217l0.237-3.576
		c-1.528-0.228-3.062-0.343-4.562-0.343l-0.38,0c-1.533,0-3.09,0.116-4.63,0.345L7.45,8.251z M7.147,3.674
		c1.552-0.227,3.123-0.342,4.673-0.342l0.387,0c1.533,0,3.094,0.115,4.646,0.342l0.123-1.852C15.372,1.289,13.699,1.019,12,1.019
		c-1.699,0-3.372,0.27-4.976,0.803L7.147,3.674z"/>
	<path d="M12,14.513c-0.648,0-1.287-0.212-1.8-0.597c-0.107-0.08-0.176-0.197-0.195-0.329c-0.019-0.132,0.015-0.264,0.095-0.371
		c0.094-0.125,0.243-0.2,0.4-0.2c0.109,0,0.212,0.034,0.3,0.099c0.342,0.257,0.768,0.397,1.201,0.397c0.432,0,0.859-0.141,1.2-0.397
		c0.087-0.065,0.19-0.1,0.3-0.1c0.157,0,0.306,0.075,0.4,0.2c0.08,0.106,0.114,0.238,0.095,0.37c-0.019,0.132-0.088,0.25-0.195,0.33
		C13.287,14.301,12.648,14.513,12,14.513z"/>
	<path d="M23,24.017c-0.276,0-0.5-0.224-0.5-0.5V21.91c0.003-0.461-0.212-0.903-0.575-1.183c-1.321-1.012-4.367-2.71-9.925-2.71
		c-5.545,0-8.6,1.699-9.927,2.711c-0.361,0.279-0.576,0.72-0.573,1.179v1.61c0,0.276-0.224,0.5-0.5,0.5s-0.5-0.224-0.5-0.5V21.91
		c-0.005-0.766,0.356-1.505,0.964-1.975C2.893,18.844,6.16,17.017,12,17.017c5.852,0,9.112,1.828,10.534,2.917
		c0.61,0.471,0.971,1.21,0.966,1.979v1.604C23.5,23.792,23.276,24.017,23,24.017z"/>
	<circle cx="14" cy="11.017" r="0.75"/>
	<circle cx="10" cy="11.017" r="0.75"/>
</g>
</svg>
