<?xml version="1.0" encoding="utf-8"?>
<!-- Generator: Adobe Illustrator 22.1.0, SVG Export Plug-In . SVG Version: 6.00 Build 0)  -->
<svg version="1.1" id="Layer_1" xmlns="http://www.w3.org/2000/svg" xmlns:xlink="http://www.w3.org/1999/xlink" x="0px" y="0px"
	 viewBox="0 0 24 24" style="enable-background:new 0 0 24 24;" xml:space="preserve">
<g>
	<title>professions-man-clown</title>
	<path d="M22.999,24c-0.276,0-0.5-0.224-0.5-0.5v-0.106c0.003-0.461-0.212-0.903-0.575-1.183c-0.497-0.379-1.331-0.923-2.537-1.418
		c-0.073,0.275-0.185,0.536-0.333,0.779c-0.415,0.68-1.069,1.157-1.843,1.344c-0.232,0.056-0.47,0.085-0.706,0.085
		c-0.411,0-0.823-0.088-1.2-0.255C14.393,23.556,13.226,24,12.001,24l-0.078,0c-1.2-0.019-2.34-0.463-3.23-1.254
		c-0.347,0.153-0.724,0.24-1.102,0.252C7.554,22.999,7.515,23,7.477,23c-0.75,0-1.468-0.285-2.022-0.802
		c-0.412-0.385-0.7-0.865-0.843-1.404c-1.206,0.495-2.041,1.038-2.541,1.418c-0.361,0.278-0.576,0.719-0.573,1.178V23.5
		c0,0.276-0.224,0.5-0.5,0.5s-0.5-0.224-0.5-0.5v-0.106c-0.005-0.766,0.355-1.505,0.965-1.975c0.639-0.486,1.738-1.187,3.353-1.774
		c2.096-0.761,4.51-1.145,7.182-1.145c5.839,0,9.105,1.828,10.533,2.917c0.611,0.471,0.972,1.211,0.967,1.98V23.5
		C23.499,23.776,23.275,24,22.999,24z M8.78,21.637c0.134,0,0.265,0.055,0.359,0.152c0.741,0.764,1.734,1.194,2.798,1.211L12.024,23
		c1.025,0,2-0.399,2.747-1.123c0.03-0.029,0.059-0.059,0.089-0.089c0.094-0.096,0.224-0.151,0.358-0.151
		c0.092,0,0.182,0.025,0.26,0.073c0.312,0.19,0.667,0.291,1.027,0.291c0.157,0,0.315-0.019,0.47-0.057
		c0.514-0.125,0.949-0.442,1.225-0.893c0.111-0.182,0.193-0.39,0.24-0.608c-1.884-0.625-4.05-0.943-6.441-0.943
		c-2.39,0-4.556,0.318-6.443,0.946c0.084,0.393,0.283,0.743,0.582,1.022C6.506,21.81,6.99,22,7.501,22l0.058-0.001
		c0.338-0.011,0.671-0.111,0.961-0.288C8.598,21.662,8.688,21.637,8.78,21.637z"/>
	<circle cx="13.999" cy="11.5" r="0.75"/>
	<circle cx="9.999" cy="11.5" r="0.75"/>
	<path d="M11.999,16.5c-1.103,0-2-0.897-2-2s0.897-2,2-2s2,0.897,2,2S13.102,16.5,11.999,16.5z M11.999,13.5c-0.551,0-1,0.448-1,1
		s0.449,1,1,1c0.552,0,1-0.448,1-1S12.551,13.5,11.999,13.5z"/>
	<path d="M11.999,18c-1.428,0-2.769-0.542-3.799-1.531c-0.347,0.24-0.736,0.406-1.139,0.483c-0.184,0.035-0.373,0.053-0.561,0.053
		c-1.315,0-2.469-0.854-2.86-2.097c-1.212-0.265-2.238-1.084-2.766-2.215C-0.01,10.8,0.705,8.567,2.499,7.535
		C2.485,6.086,3.382,4.76,4.736,4.236c0.329-0.844,0.947-1.509,1.755-1.895c0.476-0.227,0.982-0.343,1.504-0.343
		c0.168,0,0.337,0.012,0.505,0.037V1.5c0-0.827,0.673-1.5,1.5-1.5h4c0.827,0,1.5,0.673,1.5,1.5v0.535
		c0.167-0.025,0.336-0.037,0.505-0.037c0.521,0,1.028,0.115,1.503,0.343C18.32,2.729,18.94,3.4,19.263,4.236
		c1.354,0.524,2.251,1.85,2.236,3.299c0.815,0.469,1.438,1.209,1.761,2.099c0.365,1.004,0.317,2.09-0.135,3.058
		c-0.528,1.131-1.554,1.95-2.766,2.215c-0.391,1.242-1.545,2.097-2.86,2.097c-0.187,0-0.375-0.018-0.561-0.053
		c-0.403-0.076-0.792-0.242-1.139-0.483C14.768,17.458,13.428,18,11.999,18z M7.499,12.5c0,2.481,2.019,4.5,4.5,4.5
		c2.481,0,4.5-2.019,4.5-4.5V9.95C16.341,9.983,16.182,10,16.028,10l-0.033,0c-0.731,0-1.417-0.318-1.888-0.864
		C13.549,9.689,12.795,10,11.995,10c-0.533,0-1.058-0.143-1.518-0.414c-0.214-0.126-0.41-0.277-0.586-0.451
		C9.42,9.682,8.732,10,7.997,10c-0.168,0-0.334-0.017-0.497-0.05V12.5z M16.46,15.708c0.207,0.128,0.429,0.215,0.665,0.26
		c0.124,0.024,0.25,0.036,0.375,0.036c0.958,0,1.784-0.684,1.964-1.627c0.041-0.213,0.212-0.375,0.427-0.402
		c1.022-0.134,1.894-0.771,2.33-1.706c0.339-0.726,0.375-1.541,0.101-2.294c-0.274-0.753-0.825-1.354-1.551-1.693
		c-0.194-0.091-0.309-0.295-0.286-0.508c0.132-1.196-0.607-2.317-1.759-2.667c-0.16-0.049-0.285-0.173-0.333-0.334
		c-0.011-0.036-0.023-0.072-0.036-0.108c-0.222-0.63-0.677-1.135-1.28-1.423C16.738,3.082,16.379,3,16.008,3
		c-0.17,0-0.34,0.018-0.508,0.053V6h1.5c0.276,0,0.5,0.224,0.5,0.5S17.275,7,16.999,7h-10c-0.276,0-0.5-0.224-0.5-0.5
		S6.724,6,6.999,6h1.5V3.052C8.332,3.018,8.161,3,7.991,3C7.62,3,7.26,3.082,6.922,3.243c-0.603,0.288-1.057,0.793-1.28,1.423
		C5.63,4.702,5.618,4.738,5.607,4.774c-0.048,0.16-0.173,0.285-0.333,0.334C4.122,5.457,3.382,6.578,3.514,7.774
		c0.023,0.213-0.091,0.417-0.286,0.508c-1.499,0.7-2.149,2.489-1.449,3.988c0.436,0.934,1.307,1.572,2.33,1.706
		c0.215,0.028,0.386,0.189,0.427,0.402c0.179,0.942,1.005,1.626,1.964,1.626c0.125,0,0.251-0.012,0.374-0.035
		c0.235-0.045,0.458-0.132,0.665-0.26c-0.681-0.941-1.039-2.044-1.039-3.208V9.232c0-0.178,0.096-0.344,0.25-0.433
		c0.076-0.044,0.162-0.067,0.25-0.067s0.174,0.023,0.25,0.067C7.305,8.831,7.363,8.86,7.423,8.885C7.606,8.961,7.8,9,7.997,9
		C8.606,9,9.15,8.638,9.384,8.078c0.073-0.176,0.237-0.293,0.427-0.306c0.006,0,0.029-0.001,0.034-0.001
		c0.179,0,0.34,0.092,0.431,0.246c0.172,0.291,0.416,0.536,0.708,0.708c0.307,0.181,0.657,0.276,1.012,0.276
		c0.707,0,1.369-0.377,1.727-0.984c0.09-0.152,0.255-0.246,0.432-0.246c0.005,0,0.027,0.001,0.032,0.001
		c0.191,0.013,0.355,0.13,0.428,0.306C14.849,8.638,15.392,9,15.999,9c0.265,0,0.523-0.069,0.75-0.201
		c0.077-0.044,0.163-0.067,0.25-0.067s0.174,0.023,0.25,0.067c0.155,0.089,0.25,0.255,0.25,0.433V12.5
		C17.499,13.664,17.141,14.768,16.46,15.708z M14.499,6V1.5c0-0.276-0.224-0.5-0.5-0.5h-4c-0.276,0-0.5,0.224-0.5,0.5V6H14.499z"/>
</g>
</svg>
