<?xml version="1.0" encoding="utf-8"?>
<!-- Generator: Adobe Illustrator 22.1.0, SVG Export Plug-In . SVG Version: 6.00 Build 0)  -->
<svg version="1.1" id="Layer_1" xmlns="http://www.w3.org/2000/svg" xmlns:xlink="http://www.w3.org/1999/xlink" x="0px" y="0px"
	 viewBox="0 0 24 24" style="enable-background:new 0 0 24 24;" xml:space="preserve">
<g>
	<title>professions-man-construction-2</title>
	<path d="M12,13.013c-0.648,0-1.287-0.212-1.8-0.596c-0.107-0.08-0.176-0.197-0.195-0.329c-0.019-0.132,0.015-0.264,0.095-0.371
		c0.094-0.125,0.244-0.2,0.4-0.2c0.109,0,0.213,0.035,0.3,0.1c0.341,0.256,0.767,0.397,1.2,0.397c0.432,0,0.859-0.141,1.2-0.397
		c0.086-0.065,0.19-0.1,0.299-0.1c0.157,0,0.306,0.075,0.4,0.2c0.08,0.107,0.114,0.238,0.095,0.371
		c-0.019,0.132-0.088,0.249-0.195,0.329C13.287,12.801,12.648,13.013,12,13.013z"/>
	<path d="M23,24.017c-0.276,0-0.5-0.224-0.5-0.5v-2.106c0.003-0.461-0.212-0.903-0.575-1.183c-0.479-0.367-1.277-0.891-2.425-1.374
		v4.663c0,0.276-0.224,0.5-0.5,0.5s-0.5-0.224-0.5-0.5v-5.04c-0.75-0.252-1.556-0.457-2.401-0.611L12.5,21.714v1.803
		c0,0.276-0.224,0.5-0.5,0.5c-0.276,0-0.5-0.224-0.5-0.5v-1.803l-3.597-3.846c-0.844,0.154-1.651,0.36-2.403,0.613v5.035
		c0,0.276-0.224,0.5-0.5,0.5s-0.5-0.224-0.5-0.5v-4.658c-1.146,0.483-1.945,1.005-2.427,1.371c-0.361,0.278-0.576,0.719-0.573,1.177
		v2.11c0,0.276-0.224,0.5-0.5,0.5s-0.5-0.224-0.5-0.5v-2.106c-0.005-0.767,0.355-1.505,0.965-1.975
		c0.637-0.485,1.734-1.185,3.348-1.772c2.1-0.762,4.514-1.146,7.187-1.146c5.851,0,9.112,1.828,10.534,2.918
		c0.61,0.47,0.971,1.21,0.966,1.979v2.103C23.5,23.792,23.276,24.017,23,24.017z M12,20.785l2.899-3.1
		C13.973,17.573,13,17.517,12,17.517c-1,0-1.973,0.057-2.898,0.169L12,20.785z"/>
	<circle cx="14" cy="9.517" r="0.75"/>
	<circle cx="10" cy="9.517" r="0.75"/>
	<path d="M12,16.017c-3.584,0-6.5-2.916-6.5-6.5v-1.5h-1c-0.276,0-0.5-0.224-0.5-0.5s0.224-0.5,0.5-0.5h1.023
		C5.65,5.343,6.4,3.814,7.652,2.69c0.003-0.002,0.016-0.015,0.019-0.017C7.964,2.412,8.284,2.176,8.624,1.97
		C8.502,1.567,8.655,1.121,9.006,0.875c0.866-0.564,1.855-0.86,2.868-0.86c0.046,0,0.093,0.001,0.139,0.002
		c0.033-0.001,0.08-0.002,0.127-0.002c1.004,0,1.986,0.294,2.841,0.851c0.36,0.252,0.516,0.698,0.396,1.104
		c0.34,0.206,0.66,0.443,0.954,0.705c0.006,0.005,0.029,0.026,0.034,0.031c1.237,1.11,1.986,2.638,2.113,4.311H19.5
		c0.276,0,0.5,0.224,0.5,0.5s-0.224,0.5-0.5,0.5h-1v1.5C18.5,13.101,15.584,16.017,12,16.017z M6.5,9.517c0,3.033,2.467,5.5,5.5,5.5
		s5.5-2.467,5.5-5.5v-1.5h-11V9.517z M17.474,7.017c-0.088-0.96-0.426-1.879-0.974-2.661v1.161c0,0.276-0.224,0.5-0.5,0.5
		s-0.5-0.224-0.5-0.5V3.279c-0.144-0.118-0.294-0.23-0.449-0.333l-1.357,4.07H17.474z M12.64,7.017l1.775-5.325
		c-0.674-0.44-1.479-0.676-2.314-0.676l-0.09,0.001l-0.105-0.001c-0.839,0-1.649,0.238-2.34,0.688l1.794,5.313H12.64z M10.307,7.017
		l-1.357-4.07C8.794,3.05,8.644,3.161,8.5,3.279v2.237c0,0.276-0.224,0.5-0.5,0.5s-0.5-0.224-0.5-0.5V4.356
		c-0.549,0.781-0.886,1.7-0.974,2.661H10.307z"/>
</g>
</svg>
