<?xml version="1.0" encoding="utf-8"?>
<!-- Generator: Adobe Illustrator 22.1.0, SVG Export Plug-In . SVG Version: 6.00 Build 0)  -->
<svg version="1.1" id="Layer_1" xmlns="http://www.w3.org/2000/svg" xmlns:xlink="http://www.w3.org/1999/xlink" x="0px" y="0px"
	 viewBox="0 0 24 24" style="enable-background:new 0 0 24 24;" xml:space="preserve">
<g>
	<title>professions-man-office-1</title>
	<path d="M12,12.013c-0.648,0-1.287-0.212-1.8-0.597c-0.107-0.08-0.176-0.197-0.195-0.329c-0.019-0.132,0.015-0.264,0.095-0.371
		c0.094-0.125,0.244-0.2,0.4-0.2c0.109,0,0.212,0.035,0.3,0.1c0.341,0.256,0.767,0.397,1.2,0.397c0.432,0,0.859-0.141,1.2-0.397
		c0.086-0.065,0.19-0.1,0.3-0.1c0.157,0,0.306,0.075,0.4,0.2c0.08,0.107,0.114,0.238,0.095,0.371
		c-0.019,0.132-0.088,0.249-0.195,0.329C13.287,11.801,12.648,12.013,12,12.013z"/>
	<path d="M23,24.017c-0.276,0-0.5-0.224-0.5-0.5v-3.106c0.003-0.461-0.212-0.903-0.575-1.183c-1.321-1.012-4.368-2.711-9.925-2.711
		c-5.533,0-8.595,1.7-9.927,2.713c-0.361,0.278-0.576,0.719-0.573,1.177v3.109c0,0.276-0.224,0.5-0.5,0.5s-0.5-0.224-0.5-0.5v-3.106
		c-0.005-0.767,0.355-1.505,0.965-1.975C2.899,17.345,6.173,15.517,12,15.517c5.851,0,9.111,1.828,10.534,2.918
		c0.61,0.47,0.971,1.21,0.966,1.979v3.103C23.5,23.792,23.276,24.017,23,24.017z"/>
	<circle cx="14" cy="8.517" r="0.75"/>
	<circle cx="10" cy="8.517" r="0.75"/>
	<path d="M12,15.017c-3.584,0-6.5-2.916-6.5-6.5v-2c0-3.584,2.916-6.5,6.5-6.5c3.584,0,6.5,2.916,6.5,6.5v2
		C18.5,12.101,15.584,15.017,12,15.017z M6.5,8.517c0,3.033,2.467,5.5,5.5,5.5s5.5-2.467,5.5-5.5V7.026
		c-0.182,0.004-0.378,0.008-0.585,0.008c-1.478,0-3.354-0.207-4.915-1.775c-1.561,1.568-3.437,1.775-4.914,1.775
		c-0.207,0-0.404-0.004-0.586-0.008V8.517z M6.523,6.026C6.692,6.03,6.874,6.034,7.067,6.034c1.407,0,3.196-0.209,4.548-1.836
		C11.708,4.086,11.849,4.021,12,4.021s0.292,0.064,0.385,0.176c1.352,1.627,3.143,1.836,4.551,1.836
		c0.192,0,0.373-0.004,0.542-0.008C17.228,3.197,14.87,1.017,12,1.017C9.13,1.017,6.771,3.197,6.523,6.026z"/>
	<path d="M10,24.017c-0.05,0-0.099-0.007-0.147-0.022c-0.263-0.081-0.412-0.362-0.33-0.625l1.522-4.947
		c0.097-0.317,0.345-0.565,0.662-0.662c0.095-0.029,0.194-0.044,0.293-0.044c0.436,0,0.83,0.291,0.957,0.706l1.522,4.947
		c0.081,0.263-0.067,0.544-0.331,0.625C14.1,24.009,14.05,24.017,14,24.017c-0.221,0-0.413-0.142-0.478-0.353L12,18.717
		l-1.522,4.947C10.414,23.872,10.217,24.017,10,24.017z"/>
	<path d="M16.5,23.017c-0.276,0-0.5-0.224-0.5-0.5s0.224-0.5,0.5-0.5h3c0.276,0,0.5,0.224,0.5,0.5s-0.224,0.5-0.5,0.5H16.5z"/>
</g>
</svg>
