<?xml version="1.0" encoding="utf-8"?>
<!-- Generator: Adobe Illustrator 22.1.0, SVG Export Plug-In . SVG Version: 6.00 Build 0)  -->
<svg version="1.1" id="Layer_1" xmlns="http://www.w3.org/2000/svg" xmlns:xlink="http://www.w3.org/1999/xlink" x="0px" y="0px"
	 viewBox="0 0 24 24" style="enable-background:new 0 0 24 24;" xml:space="preserve">
<g>
	<title>office-employee</title>
	<path d="M1,23.503c-0.276,0-0.5-0.224-0.5-0.5s0.224-0.5,0.5-0.5h3.86l-1.534-6.137c-0.097-0.389-0.037-0.792,0.17-1.136
		c0.206-0.343,0.534-0.586,0.923-0.683c0.118-0.03,0.24-0.044,0.363-0.044h14.438c0.401,0,0.777,0.156,1.061,0.439
		c0.283,0.284,0.439,0.661,0.439,1.061c0,0.123-0.015,0.245-0.045,0.363l-1.534,6.136H23c0.276,0,0.5,0.224,0.5,0.5
		s-0.224,0.5-0.5,0.5H1z M18.109,22.503l1.595-6.379c0.01-0.04,0.015-0.08,0.015-0.121c0-0.134-0.052-0.259-0.146-0.354
		c-0.094-0.094-0.22-0.146-0.353-0.146H4.781c-0.04,0-0.081,0.005-0.121,0.015c-0.129,0.032-0.239,0.113-0.307,0.228
		c-0.069,0.115-0.089,0.249-0.057,0.378l1.594,6.379H18.109z"/>
	<path d="M12,14.003c-0.276,0-0.5-0.224-0.5-0.5v-1.5c0-0.276,0.224-0.5,0.5-0.5c0.276,0,0.5,0.224,0.5,0.5v1.5
		C12.5,13.779,12.276,14.003,12,14.003z"/>
	<path d="M12,8.503c-2.206,0-4-1.794-4-4c0-1.647,1.038-3.149,2.583-3.736L10.63,0.75c0.124-0.045,0.234-0.079,0.345-0.109
		c0.045-0.012,0.085-0.023,0.126-0.032c0.091-0.021,0.182-0.037,0.273-0.052l0.037-0.007c0.028-0.006,0.056-0.012,0.085-0.015
		c0.016-0.002,0.031-0.003,0.047-0.004c0.046-0.005,0.08-0.007,0.115-0.009l0.04-0.003c0.092-0.007,0.184-0.013,0.275-0.014
		c0.001,0,0.026-0.001,0.027-0.001c0.019,0,0.037,0.001,0.056,0.002c0.121,0.003,0.224,0.007,0.325,0.017
		c0.023,0.002,0.1,0.013,0.1,0.013c0.097,0.012,0.194,0.025,0.289,0.044c0.029,0.006,0.059,0.013,0.088,0.02l0.035,0.008
		c0.084,0.02,0.167,0.04,0.248,0.064c0.042,0.012,0.083,0.027,0.125,0.041l0.029,0.01c0.068,0.024,0.136,0.047,0.202,0.074
		c0.059,0.024,0.117,0.051,0.176,0.078c0.067,0.031,0.116,0.054,0.164,0.079c0.069,0.036,0.135,0.074,0.202,0.114l0.028,0.017
		c0.031,0.019,0.062,0.037,0.092,0.057c0.073,0.047,0.145,0.098,0.216,0.151c0,0,0.065,0.048,0.086,0.065
		c0.078,0.061,0.153,0.126,0.227,0.193l0.053,0.048c0.082,0.077,0.161,0.16,0.238,0.245C15.643,2.594,16,3.532,16,4.503
		C16,6.708,14.206,8.503,12,8.503z M9.154,3.561C9.052,3.866,9,4.181,9,4.503c0,1.654,1.346,3,3,3c1.576,0,2.873-1.222,2.991-2.768
		c-0.589,0.178-1.2,0.268-1.82,0.268c-0.002,0-0.006,0-0.006,0C11.719,5.003,10.276,4.481,9.154,3.561z M9.643,2.665
		c0.964,0.853,2.236,1.338,3.523,1.338c0.003,0,0.006,0,0.009,0c0.587-0.001,1.16-0.096,1.708-0.284
		c-0.147-0.562-0.453-1.062-0.894-1.455l0.138-0.213L13.962,2.24c-0.054-0.047-0.111-0.092-0.168-0.135l-0.06-0.045
		c-0.051-0.036-0.103-0.07-0.156-0.103c-0.031-0.019-0.061-0.038-0.092-0.056c-0.046-0.026-0.093-0.051-0.141-0.075
		c-0.04-0.02-0.08-0.04-0.121-0.059c-0.041-0.018-0.083-0.036-0.125-0.053c-0.05-0.02-0.101-0.039-0.152-0.056
		c-0.037-0.012-0.072-0.023-0.108-0.034c-0.06-0.018-0.122-0.033-0.184-0.047l-0.09-0.019c-0.069-0.013-0.141-0.024-0.214-0.033
		c0,0-0.072-0.008-0.072-0.008c-0.077-0.007-0.156-0.01-0.234-0.012l-0.063-0.001v-0.25l-0.004,0.25
		c-0.075,0-0.148,0.005-0.221,0.011L11.67,1.522c-0.039,0.004-0.078,0.011-0.115,0.017l-0.039,0.006
		c-0.067,0.011-0.119,0.02-0.17,0.031c-0.024,0.005-0.101,0.026-0.101,0.026c-0.074,0.02-0.148,0.041-0.221,0.066l-0.032,0.012
		C10.451,1.882,9.983,2.226,9.643,2.665z"/>
	<path d="M12,20.503c-0.965,0-1.75-0.785-1.75-1.75s0.785-1.75,1.75-1.75c0.965,0,1.75,0.785,1.75,1.75S12.965,20.503,12,20.503z
		 M12,18.003c-0.414,0-0.75,0.336-0.75,0.75s0.336,0.75,0.75,0.75s0.75-0.336,0.75-0.75S12.414,18.003,12,18.003z"/>
	<path d="M16.745,13.503c-0.221,0-0.413-0.142-0.477-0.353c-0.352-1.139-1.127-2.074-2.181-2.631C13.443,10.179,12.723,10,12.006,10
		c-0.446,0-0.891,0.068-1.323,0.201c-1.411,0.436-2.514,1.538-2.95,2.95c-0.065,0.211-0.257,0.353-0.478,0.353
		c-0.051,0-0.102-0.008-0.15-0.023c-0.125-0.039-0.23-0.125-0.292-0.243s-0.075-0.254-0.036-0.381
		c0.533-1.727,1.883-3.077,3.61-3.61c0.528-0.163,1.073-0.246,1.619-0.246c0.879,0,1.759,0.22,2.546,0.635
		c1.291,0.682,2.24,1.826,2.67,3.221c0.04,0.127,0.027,0.263-0.036,0.381s-0.167,0.205-0.295,0.244
		C16.845,13.495,16.795,13.503,16.745,13.503z"/>
</g>
</svg>
