<?xml version="1.0" encoding="utf-8"?>
<!-- Generator: Adobe Illustrator 22.1.0, SVG Export Plug-In . SVG Version: 6.00 Build 0)  -->
<svg version="1.1" id="Layer_1" xmlns="http://www.w3.org/2000/svg" xmlns:xlink="http://www.w3.org/1999/xlink" x="0px" y="0px"
	 viewBox="0 0 24 24" style="enable-background:new 0 0 24 24;" xml:space="preserve">
<g>
	<title>office-outdoors-1</title>
	<path d="M0.5,24C0.224,24,0,23.776,0,23.5S0.224,23,0.5,23H2V12.949c-1.155-0.234-2-1.25-2-2.449v-8C0,1.121,1.121,0,2.5,0h7
		C10.879,0,12,1.121,12,2.5v8c0,1.199-0.845,2.215-2,2.449V23h4.41l-0.403-2.418c-0.024-0.145,0.016-0.293,0.112-0.405
		C14.213,20.065,14.352,20,14.5,20H16v-3.5c0-0.276,0.224-0.5,0.5-0.5s0.5,0.224,0.5,0.5V20h1.5c0.148,0,0.287,0.065,0.382,0.177
		c0.095,0.112,0.136,0.26,0.111,0.405L18.59,23h4.91c0.276,0,0.5,0.224,0.5,0.5S23.776,24,23.5,24H0.5z M17.576,23l0.333-2H15.09
		l0.333,2H17.576z M9,23V13H3v10H9z M1,10.5C1,11.327,1.673,12,2.5,12h7c0.827,0,1.5-0.673,1.5-1.5V10H1V10.5z M11,9V7H1v2H11z
		 M11,6V4H1v2H11z M11,3V2.5C11,1.673,10.327,1,9.5,1h-7C1.673,1,1,1.673,1,2.5V3H11z"/>
	<path d="M4.5,18C4.224,18,4,17.776,4,17.5v-2C4,15.224,4.224,15,4.5,15h3C7.776,15,8,15.224,8,15.5v2C8,17.776,7.776,18,7.5,18H4.5
		z M7,17v-1H5v1H7z"/>
	<path d="M14.788,18.068c-0.087,0-0.174-0.023-0.25-0.067c-1.609-0.927-2.582-2.656-2.538-4.513
		c-0.144-2.579,1.86-4.825,4.469-4.987c0.005,0,0.026-0.001,0.031-0.001l0.032,0.001c2.607,0.162,4.611,2.417,4.467,5.027
		c0.045,1.823-0.926,3.543-2.534,4.471c-0.077,0.044-0.163,0.067-0.25,0.067c-0.178,0-0.344-0.096-0.433-0.25
		c-0.138-0.239-0.056-0.545,0.183-0.683c1.291-0.744,2.07-2.132,2.035-3.621c0.114-2.079-1.455-3.866-3.5-4.011
		c-2.045,0.144-3.614,1.922-3.501,3.971c-0.034,1.523,0.747,2.919,2.039,3.663c0.116,0.067,0.199,0.174,0.233,0.303
		c0.035,0.129,0.017,0.264-0.05,0.379C15.133,17.972,14.967,18.068,14.788,18.068z"/>
	<path d="M4.5,20C4.224,20,4,19.776,4,19.5S4.224,19,4.5,19h3C7.776,19,8,19.224,8,19.5S7.776,20,7.5,20H4.5z"/>
</g>
</svg>
