<?xml version="1.0" encoding="utf-8"?>
<!-- Generator: Adobe Illustrator 22.1.0, SVG Export Plug-In . SVG Version: 6.00 Build 0)  -->
<svg version="1.1" id="Layer_1" xmlns="http://www.w3.org/2000/svg" xmlns:xlink="http://www.w3.org/1999/xlink" x="0px" y="0px"
	 viewBox="0 0 24 24" style="enable-background:new 0 0 24 24;" xml:space="preserve">
<g>
	<title>office-chair-table-2</title>
	<path d="M23.5,20.25c-0.276,0-0.5-0.224-0.5-0.5v-9.586c0-0.133-0.052-0.259-0.146-0.353l-1.414-1.414
		c-0.093-0.093-0.222-0.146-0.354-0.146H2.914c-0.133,0-0.259,0.052-0.353,0.146L1.146,9.811C1.052,9.905,1,10.031,1,10.164v9.586
		c0,0.276-0.224,0.5-0.5,0.5S0,20.026,0,19.75v-9.586c0-0.401,0.156-0.777,0.439-1.061l1.414-1.414
		c0.283-0.283,0.66-0.439,1.06-0.439H9v-0.5c0-1.654,1.346-3,3-3c1.654,0,3,1.346,3,3v0.5h6.086c0.401,0,0.777,0.156,1.061,0.439
		l1.414,1.414C23.844,9.387,24,9.763,24,10.164v9.586C24,20.026,23.776,20.25,23.5,20.25z M14,7.25v-0.5c0-1.103-0.897-2-2-2
		s-2,0.897-2,2v0.5H14z"/>
	<path d="M15,20.25c-0.258,0-0.477-0.202-0.498-0.459l-0.458-5.648c-0.677,0.065-1.363,0.098-2.043,0.098
		c-0.678,0-1.364-0.033-2.044-0.098l-0.458,5.647C9.477,20.048,9.259,20.25,9,20.25c-0.006,0-0.032-0.001-0.038-0.001
		c-0.278-0.022-0.483-0.264-0.461-0.539l0.462-5.686c-0.535-0.076-1.062-0.172-1.572-0.286c-0.13-0.029-0.242-0.107-0.313-0.22
		c-0.072-0.113-0.095-0.247-0.066-0.377c0.051-0.23,0.252-0.391,0.489-0.391c0.036,0,0.072,0.004,0.107,0.011
		c0.456,0.101,0.923,0.188,1.393,0.258l0-1.769H2.5c-0.276,0-0.5-0.224-0.5-0.5s0.224-0.5,0.5-0.5h19c0.276,0,0.5,0.224,0.5,0.5
		s-0.224,0.5-0.5,0.5H15v1.769c0.47-0.07,0.937-0.156,1.392-0.258c0.037-0.008,0.072-0.011,0.107-0.011
		c0.237,0,0.438,0.161,0.49,0.391c0.06,0.27-0.111,0.537-0.379,0.597c-0.51,0.114-1.038,0.209-1.573,0.286l0.463,5.686
		c0.022,0.275-0.184,0.517-0.458,0.539C15.034,20.249,15.007,20.25,15,20.25z M10,13.143c0.662,0.065,1.334,0.098,2,0.098
		c0.667,0,1.339-0.033,2.001-0.098L14,11.25h-4V13.143z"/>
</g>
</svg>
