<?xml version="1.0" encoding="utf-8"?>
<!-- Generator: Adobe Illustrator 22.1.0, SVG Export Plug-In . SVG Version: 6.00 Build 0)  -->
<svg version="1.1" id="Layer_1" xmlns="http://www.w3.org/2000/svg" xmlns:xlink="http://www.w3.org/1999/xlink" x="0px" y="0px"
	 viewBox="0 0 24 24" style="enable-background:new 0 0 24 24;" xml:space="preserve">
<g>
	<title>office-desk-lamp</title>
	<path d="M8.194,12.5c-0.267,0-0.518-0.104-0.707-0.292c-0.189-0.189-0.293-0.44-0.294-0.707c0-0.109,0.017-0.216,0.052-0.318
		l0.667-2C8.048,8.775,8.429,8.5,8.86,8.5h6.28c0.431,0,0.812,0.275,0.949,0.684l0.667,2c0.174,0.523-0.11,1.091-0.632,1.265
		c-0.102,0.034-0.208,0.051-0.316,0.051H8.194z M8.193,11.5l7.613,0l-0.666-2l-6.28,0L8.193,11.5z M8.86,9.5L8.86,9.5z"/>
	<path d="M4,8.5c-0.551,0-1-0.449-1-1v-2c0-0.551,0.449-1,1-1V3c0-0.276,0.224-0.5,0.5-0.5S5,2.724,5,3v1.5h0.232l0.852-1.277
		C6.177,3.083,6.332,3,6.5,3c0.099,0,0.195,0.029,0.278,0.084c0.229,0.153,0.291,0.464,0.138,0.693L6.383,4.576
		C6.745,4.727,7,5.084,7,5.5v2c0,0.551-0.449,1-1,1H4z M4,7.5h2v-2H4L4,7.5z"/>
	<path d="M23.5,24c-0.219,0-0.411-0.141-0.477-0.35L22.818,23h-4.636l-0.205,0.65C17.911,23.859,17.719,24,17.5,24
		c-0.052,0-0.103-0.008-0.152-0.024c-0.126-0.04-0.23-0.127-0.292-0.246c-0.062-0.118-0.073-0.254-0.033-0.381l2.794-8.849H4.182
		l2.795,8.85c0.04,0.127,0.028,0.263-0.033,0.381s-0.166,0.206-0.293,0.246C6.603,23.992,6.552,24,6.5,24
		c-0.219,0-0.411-0.14-0.477-0.35L5.818,23H1.182l-0.205,0.65C0.911,23.86,0.719,24,0.5,24c-0.052,0-0.103-0.008-0.152-0.024
		c-0.126-0.04-0.23-0.127-0.292-0.246s-0.073-0.254-0.033-0.381L2.818,14.5H1.259c-0.139,0-0.274-0.028-0.4-0.083
		c-0.245-0.107-0.434-0.302-0.531-0.552C0.23,13.616,0.235,13.344,0.342,13.1l1.632-3.808c0.078-0.184,0.259-0.303,0.459-0.303
		c0.068,0,0.135,0.014,0.198,0.041c0.122,0.052,0.217,0.15,0.267,0.274s0.048,0.26-0.005,0.383l-1.633,3.811L22.742,13.5l-2.572-6
		H8.46c-0.276,0-0.5-0.224-0.5-0.5s0.224-0.5,0.5-0.5H20v-3c0-1.187-0.859-2.213-2-2.448V1.5C18,2.327,17.327,3,16.5,3h-5
		C10.673,3,10,2.327,10,1.5V1c0-0.551,0.449-1,1-1h6.5C19.43,0,21,1.57,21,3.5v3.397l2.66,6.206c0.055,0.126,0.083,0.261,0.082,0.4
		c0,0.266-0.105,0.517-0.294,0.705c-0.189,0.188-0.439,0.292-0.706,0.292h-1.561l2.794,8.85c0.041,0.127,0.029,0.262-0.033,0.381
		c-0.062,0.119-0.166,0.206-0.293,0.246C23.603,23.992,23.552,24,23.5,24z M22.502,22L20.5,15.66L18.498,22H22.502z M5.502,22
		L3.5,15.66L1.498,22H5.502z M11,1.5C11,1.776,11.224,2,11.5,2h5C16.776,2,17,1.776,17,1.5V1h-6L11,1.5z"/>
</g>
</svg>
