<?xml version="1.0" encoding="utf-8"?>
<!-- Generator: Adobe Illustrator 22.1.0, SVG Export Plug-In . SVG Version: 6.00 Build 0)  -->
<svg version="1.1" id="Light" xmlns="http://www.w3.org/2000/svg" xmlns:xlink="http://www.w3.org/1999/xlink" x="0px" y="0px"
	 viewBox="0 0 24 24" style="enable-background:new 0 0 24 24;" xml:space="preserve">
<g>
	<title>recycling-label</title>
	<path d="M12.033,23.845c-0.099,0-0.195-0.029-0.278-0.084c-0.229-0.154-0.291-0.465-0.137-0.694
		c0.16-0.238,1.569-2.313,3.479-4.283c-1.061-0.779-1.597-1.608-1.595-2.468c0.002-0.911,0.608-1.765,1.752-2.469
		c1.001-0.615,2.069-0.699,3.074-0.699c0.269,0,0.541,0.006,0.816,0.013c0.284,0.007,0.566,0.014,0.85,0.014
		c0.681,0,1.492-0.034,2.34-0.285c0.083-0.024,0.168-0.038,0.254-0.041c0.002,0,0.024,0,0.027,0c0.258,0,0.502,0.096,0.688,0.271
		c0.195,0.183,0.306,0.431,0.314,0.698c0.087,2.701-1.723,6.514-3.654,7.697c-0.778,0.478-1.484,0.72-2.098,0.72
		c-0.333,0-0.643-0.071-0.922-0.211c-0.685-0.345-1.153-1.103-1.393-2.257c-1.776,1.891-3.089,3.836-3.103,3.856
		C12.356,23.762,12.2,23.845,12.033,23.845z M16.423,18.883c0.133,1.218,0.468,1.994,0.972,2.248
		c0.138,0.07,0.299,0.105,0.477,0.105c0.423,0,0.951-0.193,1.57-0.573c1.65-1.011,3.253-4.45,3.177-6.814
		c-0.971,0.287-1.867,0.326-2.615,0.326c-0.296,0-0.589-0.007-0.879-0.014c-0.267-0.006-0.525-0.012-0.779-0.012
		c-0.867,0-1.778,0.067-2.567,0.551c-0.581,0.357-1.275,0.929-1.276,1.619c-0.001,0.553,0.442,1.141,1.319,1.75
		c1.608-1.521,3.077-2.441,4.37-2.735c0.037-0.008,0.074-0.012,0.111-0.012c0.235,0,0.436,0.16,0.488,0.389
		c0.061,0.269-0.108,0.537-0.377,0.598C19.274,16.567,17.932,17.433,16.423,18.883z"/>
	<path d="M6.922,19.447c-0.268,0-0.519-0.105-0.708-0.295l-5.538-5.541c-0.389-0.39-0.389-1.024,0-1.414L12.418,0.454
		c0.188-0.189,0.438-0.293,0.706-0.293l5.552-0.006c0.552,0,1,0.449,1,1V6.45c0,0.263-0.102,0.512-0.286,0.7l-11.753,12
		C7.443,19.342,7.19,19.447,6.922,19.447C6.922,19.447,6.922,19.447,6.922,19.447z M13.126,1.161L1.384,12.905
		c0,0,5.54,5.543,5.541,5.544L18.676,6.45l0-5.295L13.126,1.161z"/>
	<path d="M15.676,6.155c-1.103,0-2-0.897-2-2s0.897-2,2-2s2,0.897,2,2S16.779,6.155,15.676,6.155z M15.676,3.155
		c-0.552,0-1,0.449-1,1s0.448,1,1,1s1-0.449,1-1S16.228,3.155,15.676,3.155z"/>
</g>
</svg>
