<?xml version="1.0" encoding="utf-8"?>
<!-- Generator: Adobe Illustrator 22.1.0, SVG Export Plug-In . SVG Version: 6.00 Build 0)  -->
<svg version="1.1" id="Light" xmlns="http://www.w3.org/2000/svg" xmlns:xlink="http://www.w3.org/1999/xlink" x="0px" y="0px"
	 viewBox="0 0 24 24" style="enable-background:new 0 0 24 24;" xml:space="preserve">
<g>
	<title>recycling-bottle</title>
	<path d="M2.504,24c-1.379,0-2.5-1.122-2.5-2.5v-2.052c0-0.4,0.164-0.79,0.45-1.07l0.505-0.499c0.092-0.091,0.144-0.212,0.148-0.342
		c-0.002-0.013-0.003-0.026-0.003-0.038c0-0.008,0-0.017,0.001-0.026c-0.006-0.103-0.057-0.219-0.142-0.304L0.44,16.641
		c-0.279-0.281-0.433-0.654-0.435-1.05v-2.158c0.002-0.4,0.166-0.788,0.45-1.067l0.497-0.496c0.196-0.197,0.196-0.516,0.001-0.71
		l-0.513-0.513C0.156,10.363,0,9.987,0,9.586V8.5c0-2.47,1.635-4.616,4-5.286V1.5C4,0.673,4.673,0,5.5,0h3C9.327,0,10,0.673,10,1.5
		v1.714c2.365,0.67,4,2.816,4,5.286C14,8.776,13.776,9,13.5,9S13,8.776,13,8.5C13,6.019,10.981,4,8.5,4h-3C3.018,4,1,6.019,1,8.5
		v1.086c0,0.133,0.052,0.259,0.146,0.353l0.512,0.512C1.814,10.606,1.932,10.793,2.007,11H10.5c0.276,0,0.5,0.224,0.5,0.5
		S10.776,12,10.5,12H2.019c-0.073,0.214-0.194,0.409-0.355,0.572l-0.505,0.505c-0.098,0.096-0.153,0.226-0.154,0.359v2.154
		c0.001,0.13,0.052,0.254,0.145,0.348l0.524,0.529C1.823,16.617,1.938,16.799,2.012,17H7c0.276,0,0.5,0.224,0.5,0.5S7.276,18,7,18
		H2.029c-0.074,0.222-0.198,0.422-0.364,0.587l-0.51,0.503c-0.096,0.094-0.151,0.225-0.151,0.358V21.5c0,0.827,0.673,1.5,1.5,1.5
		H8.99c0.276,0,0.5,0.224,0.5,0.5S9.266,24,8.99,24H2.504z M5.5,1C5.224,1,5,1.224,5,1.5v1.527C5.178,3.009,5.341,3,5.5,3h3
		C8.659,3,8.822,3.009,9,3.027V1.5C9,1.224,8.776,1,8.5,1H5.5z"/>
	<path d="M10.957,22c-0.264,0-0.523-0.07-0.75-0.201c-0.346-0.2-0.594-0.523-0.698-0.911c-0.104-0.387-0.051-0.792,0.149-1.138
		l2.067-3.584l-1.683,0.473c-0.044,0.012-0.09,0.019-0.135,0.019c-0.223,0-0.421-0.15-0.482-0.365
		c-0.074-0.265,0.081-0.542,0.346-0.617l2.736-0.768c0.085-0.061,0.187-0.094,0.292-0.094c0.086,0,0.17,0.023,0.245,0.066
		c0.133,0.077,0.22,0.209,0.241,0.365l0.802,2.854c0.074,0.265-0.081,0.542-0.346,0.617c-0.044,0.012-0.09,0.019-0.135,0.019
		c-0.223,0-0.421-0.15-0.481-0.365l-0.496-1.767l-2.104,3.648c-0.138,0.239-0.056,0.545,0.183,0.683
		C10.783,20.977,10.869,21,10.957,21h4.307c0.276,0,0.5,0.224,0.5,0.5s-0.224,0.5-0.5,0.5H10.957z"/>
	<path d="M20.14,14.912c-0.067,0-0.135-0.015-0.199-0.042l-2.822-0.72c-0.129-0.033-0.238-0.115-0.306-0.229
		s-0.088-0.249-0.054-0.379c0.056-0.222,0.255-0.377,0.483-0.377c0.042,0,0.084,0.005,0.126,0.016l1.745,0.446l-1.937-3.378
		c-0.066-0.115-0.174-0.198-0.303-0.233c-0.043-0.011-0.088-0.017-0.132-0.017c-0.086,0-0.172,0.023-0.248,0.067
		c-0.077,0.044-0.14,0.108-0.184,0.184l-2.029,3.517c-0.09,0.154-0.256,0.25-0.433,0.25c-0.087,0-0.173-0.023-0.249-0.067
		c-0.239-0.138-0.321-0.445-0.184-0.683l2.028-3.516c0.132-0.229,0.323-0.42,0.552-0.552c0.228-0.131,0.486-0.2,0.746-0.2
		c0.132,0,0.264,0.018,0.392,0.052c0.387,0.104,0.71,0.353,0.91,0.701l1.923,3.354l0.441-1.728C20.464,11.155,20.663,11,20.891,11
		c0.042,0,0.084,0.005,0.126,0.016c0.128,0.033,0.237,0.114,0.305,0.229c0.068,0.115,0.088,0.249,0.054,0.379l-0.742,2.907
		c-0.031,0.121-0.106,0.224-0.214,0.293c-0.011,0.009-0.023,0.017-0.034,0.023c-0.015,0.009-0.034,0.017-0.054,0.024
		c-0.002,0-0.025,0.01-0.026,0.01C20.254,14.901,20.197,14.912,20.14,14.912z"/>
	<path d="M19.39,24c-0.131,0-0.255-0.051-0.349-0.142l-2.147-2.096c-0.096-0.093-0.149-0.219-0.151-0.352
		c-0.001-0.131,0.05-0.26,0.142-0.355l2.096-2.146c0.095-0.097,0.222-0.151,0.358-0.151c0.131,0,0.255,0.05,0.349,0.142
		c0.198,0.193,0.201,0.51,0.009,0.707L18.336,21H22.5c0.276,0,0.5-0.224,0.501-0.5c0-0.088-0.023-0.175-0.067-0.25l-2.082-3.627
		c-0.067-0.116-0.084-0.251-0.049-0.38c0.035-0.129,0.118-0.237,0.234-0.303c0.076-0.043,0.162-0.066,0.249-0.066
		c0.179,0,0.345,0.096,0.434,0.251l2.081,3.626c0.131,0.228,0.2,0.487,0.2,0.75c0,0.826-0.673,1.499-1.5,1.499h-3.932l1.17,1.142
		c0.096,0.093,0.149,0.218,0.151,0.352c0.001,0.134-0.049,0.26-0.142,0.355C19.653,23.947,19.526,24,19.39,24z"/>
</g>
</svg>
