<?xml version="1.0" encoding="utf-8"?>
<!-- Generator: Adobe Illustrator 22.1.0, SVG Export Plug-In . SVG Version: 6.00 Build 0)  -->
<svg version="1.1" id="Light" xmlns="http://www.w3.org/2000/svg" xmlns:xlink="http://www.w3.org/1999/xlink" x="0px" y="0px"
	 viewBox="0 0 24 24" style="enable-background:new 0 0 24 24;" xml:space="preserve">
<g>
	<title>recycling-refresh</title>
	<path d="M11.5,18c-0.259,0-0.478-0.202-0.498-0.461c-0.042-0.532-0.067-1.055-0.076-1.559c-0.262,0.038-0.509,0.056-0.739,0.056
		c-0.765,0-1.36-0.209-1.77-0.622c-0.579-0.582-0.738-1.507-0.459-2.675c0.297-1.24,1.127-2.03,2.004-2.866
		c0.637-0.607,1.295-1.235,1.761-2.069c0.042-0.076,0.095-0.147,0.157-0.21c0.187-0.192,0.438-0.299,0.705-0.302
		c0,0,0.001,0,0.001,0c0.278,0,0.521,0.101,0.709,0.284c1.723,1.68,2.915,5.095,2.453,7.028c-0.294,1.227-0.831,1.978-1.597,2.23
		c-0.179,0.059-0.37,0.089-0.569,0.089c-0.496,0-1.048-0.19-1.647-0.565c0.013,0.361,0.034,0.73,0.063,1.102
		c0.01,0.133-0.032,0.262-0.119,0.364s-0.208,0.163-0.341,0.174C11.533,17.999,11.506,18,11.5,18z M11.927,15.124
		c0.665,0.531,1.22,0.801,1.65,0.801c0.093,0,0.181-0.013,0.261-0.04c0.409-0.135,0.733-0.658,0.938-1.513
		c0.38-1.589-0.72-4.657-2.179-6.08c-0.541,0.967-1.254,1.647-1.945,2.305c-0.801,0.764-1.493,1.423-1.722,2.375
		c-0.135,0.567-0.211,1.328,0.196,1.737c0.215,0.216,0.574,0.326,1.068,0.326c0.222,0,0.47-0.023,0.738-0.068
		c0.059-1.932,0.401-3.406,1.016-4.384c0.092-0.146,0.25-0.234,0.423-0.234c0.094,0,0.186,0.026,0.266,0.077
		c0.114,0.072,0.192,0.182,0.221,0.313c0.03,0.13,0.007,0.264-0.065,0.377C12.259,11.967,11.967,13.314,11.927,15.124z"/>
	<path d="M3.5,15c-0.072,0-0.143-0.016-0.212-0.049c-0.016-0.007-0.046-0.026-0.06-0.037c-0.032-0.02-0.064-0.046-0.092-0.075
		c-0.014-0.013-0.028-0.027-0.038-0.041L0.1,10.8c-0.08-0.107-0.114-0.239-0.095-0.371C0.024,10.297,0.093,10.18,0.2,10.1
		C0.288,10.035,0.391,10,0.5,10c0.157,0,0.306,0.075,0.4,0.2L3,13v-1c0.001-2.644,1.157-5.142,3.172-6.854
		c1.622-1.379,3.69-2.138,5.821-2.138c2.652,0,5.154,1.155,6.865,3.168c0.087,0.102,0.128,0.231,0.117,0.364
		c-0.011,0.133-0.073,0.254-0.175,0.34C18.711,6.958,18.596,7,18.477,7c-0.147,0-0.286-0.064-0.381-0.177
		c-1.521-1.789-3.745-2.816-6.102-2.816c-1.895,0-3.732,0.675-5.175,1.901C5.029,7.43,4.001,9.65,4,12v1l2.1-2.8
		c0.094-0.125,0.244-0.2,0.4-0.2c0.109,0,0.212,0.035,0.299,0.1c0.107,0.08,0.176,0.197,0.195,0.329
		C7.014,10.562,6.98,10.693,6.9,10.8l-3,4c-0.01,0.013-0.023,0.028-0.037,0.04c-0.028,0.03-0.061,0.056-0.099,0.08
		c-0.002,0.002-0.023,0.018-0.053,0.032C3.643,14.984,3.572,15,3.5,15z"/>
	<path d="M12.007,20.997c-2.652,0-5.154-1.155-6.865-3.168c-0.086-0.102-0.128-0.231-0.117-0.364
		c0.011-0.133,0.073-0.254,0.175-0.341c0.09-0.076,0.205-0.119,0.323-0.119c0.147,0,0.286,0.064,0.381,0.176
		c1.521,1.79,3.745,2.816,6.101,2.816c0,0,0,0,0.001,0c1.895,0,3.733-0.675,5.175-1.9C18.973,16.574,20,14.351,20,12v-1l-2.1,2.8
		c-0.093,0.125-0.243,0.2-0.4,0.2c-0.109,0-0.213-0.035-0.3-0.1c-0.107-0.08-0.176-0.197-0.195-0.329
		c-0.019-0.132,0.015-0.264,0.095-0.371l3-4c0.01-0.013,0.023-0.027,0.036-0.039C20.23,9.059,20.362,9,20.5,9
		c0.137,0,0.268,0.058,0.363,0.161C20.877,9.173,20.89,9.187,20.9,9.2l3,4c0.08,0.106,0.114,0.238,0.095,0.37
		c-0.019,0.132-0.088,0.25-0.195,0.33c-0.087,0.065-0.191,0.1-0.3,0.1c-0.157,0-0.307-0.075-0.4-0.2L21,11v1
		c0,2.646-1.156,5.145-3.172,6.859C16.206,20.237,14.139,20.997,12.007,20.997z"/>
</g>
</svg>
