<?xml version="1.0" encoding="utf-8"?>
<!-- Generator: Adobe Illustrator 22.1.0, SVG Export Plug-In . SVG Version: 6.00 Build 0)  -->
<svg version="1.1" id="Light" xmlns="http://www.w3.org/2000/svg" xmlns:xlink="http://www.w3.org/1999/xlink" x="0px" y="0px"
	 viewBox="0 0 24 24" style="enable-background:new 0 0 24 24;" xml:space="preserve">
<g>
	<title>recycling-trash-bin-2</title>
	<path d="M5.421,23.999c-0.775,0-1.431-0.602-1.498-1.37L2.047,1.086c-0.003-0.029-0.004-0.06-0.004-0.092
		C2.044,0.728,2.149,0.478,2.339,0.29c0.189-0.188,0.432-0.291,0.684-0.291c0.003,0,17.93,0,17.93,0
		c0.029,0,0.057,0.001,0.086,0.004c0.55,0.048,0.959,0.533,0.912,1.082l-1.87,21.545c-0.067,0.768-0.723,1.37-1.494,1.37H5.421z
		 M3.044,0.999l1.875,21.543c0.022,0.256,0.241,0.457,0.498,0.457h13.166c0.26,0,0.48-0.2,0.502-0.457l1.87-21.544l-17.91,0
		l-0.001-0.25L3.044,0.999z"/>
	<path d="M14.548,9.416c-0.022,0-0.044-0.001-0.066-0.004l-2.1-0.269c-0.132-0.017-0.25-0.084-0.332-0.19
		c-0.082-0.106-0.117-0.237-0.1-0.369c0.032-0.249,0.245-0.436,0.495-0.436c0.021,0,0.042,0.001,0.064,0.004l1.091,0.14
		l-0.939-1.595c-0.064-0.108-0.154-0.198-0.261-0.261c-0.113-0.066-0.241-0.102-0.37-0.102c-0.062,0-0.125,0.008-0.186,0.024
		c-0.19,0.049-0.349,0.17-0.448,0.339l-1.351,2.3C9.955,9.148,9.79,9.242,9.613,9.242c-0.089,0-0.176-0.024-0.253-0.069
		C9.245,9.106,9.163,8.998,9.129,8.868C9.096,8.739,9.114,8.604,9.182,8.489l1.351-2.3c0.31-0.528,0.884-0.855,1.497-0.855
		c0.307,0,0.61,0.083,0.876,0.239c0.254,0.149,0.468,0.363,0.617,0.617l0.892,1.515l0.294-0.907
		c0.067-0.207,0.258-0.346,0.476-0.346c0.052,0,0.103,0.008,0.153,0.024c0.263,0.085,0.408,0.368,0.323,0.63L15.024,9.07
		c-0.033,0.103-0.102,0.194-0.194,0.257c-0.007,0.006-0.015,0.011-0.022,0.016c-0.015,0.009-0.043,0.023-0.06,0.029
		c-0.015,0.008-0.039,0.018-0.064,0.025c-0.012,0.004-0.049,0.01-0.062,0.012C14.61,9.411,14.582,9.416,14.548,9.416z"/>
	<path d="M14.746,18.31c-0.132,0-0.256-0.051-0.35-0.143l-1.479-1.449c-0.095-0.093-0.15-0.223-0.15-0.357s0.055-0.264,0.15-0.357
		l1.479-1.449c0.094-0.092,0.218-0.143,0.35-0.143c0.135,0,0.262,0.053,0.357,0.15c0.094,0.096,0.145,0.222,0.143,0.356
		s-0.055,0.259-0.15,0.352l-0.604,0.592h1.656c0.119,0,0.238-0.03,0.343-0.085c0.358-0.189,0.496-0.635,0.306-0.993l-1.31-2.472
		c-0.129-0.243-0.036-0.547,0.208-0.676c0.071-0.038,0.152-0.058,0.234-0.058c0.186,0,0.355,0.102,0.442,0.266l1.31,2.474
		c0.447,0.846,0.123,1.898-0.723,2.345c-0.249,0.131-0.529,0.201-0.81,0.201h-1.656l0.604,0.592c0.095,0.093,0.148,0.218,0.15,0.352
		s-0.049,0.26-0.143,0.355C15.008,18.256,14.882,18.31,14.746,18.31z"/>
	<path d="M7.931,16.861c-0.464,0-0.899-0.181-1.226-0.508c-0.327-0.327-0.508-0.763-0.507-1.226c0-0.288,0.073-0.574,0.21-0.827
		l0.922-1.698l-0.843,0.179c-0.035,0.007-0.069,0.011-0.104,0.011c-0.235,0-0.441-0.167-0.489-0.396
		c-0.028-0.131-0.003-0.264,0.07-0.376c0.073-0.112,0.185-0.189,0.315-0.217l1.904-0.405c0.017-0.004,0.046-0.007,0.063-0.007
		c0.005,0,0.02,0.001,0.025,0.001c0.002-0.001,0.017-0.002,0.032-0.002c0.012,0,0.042,0.002,0.053,0.004
		c0.045,0.006,0.081,0.02,0.102,0.028c0,0,0,0,0,0c0.004,0,0.033,0.008,0.065,0.025c0.011,0.006,0.023,0.014,0.034,0.022
		c0.026,0.017,0.049,0.039,0.063,0.052c0.02,0.017,0.042,0.037,0.064,0.066c0.023,0.03,0.036,0.059,0.043,0.075
		c0.011,0.022,0.024,0.046,0.034,0.076c0.006,0.015,0.011,0.03,0.013,0.045l0.412,1.859c0.059,0.269-0.111,0.536-0.38,0.596
		C8.77,14.247,8.734,14.25,8.699,14.25c-0.232,0-0.438-0.165-0.488-0.392l-0.124-0.558l-0.801,1.475
		c-0.058,0.107-0.089,0.228-0.089,0.35c0,0.196,0.076,0.38,0.215,0.519c0.139,0.139,0.323,0.215,0.519,0.215h2.253
		c0.276,0,0.5,0.224,0.5,0.5s-0.224,0.5-0.5,0.5H7.931z"/>
</g>
</svg>
