<?xml version="1.0" encoding="utf-8"?>
<!-- Generator: Adobe Illustrator 22.1.0, SVG Export Plug-In . SVG Version: 6.00 Build 0)  -->
<svg version="1.1" id="Light" xmlns="http://www.w3.org/2000/svg" xmlns:xlink="http://www.w3.org/1999/xlink" x="0px" y="0px"
	 viewBox="0 0 24 24" style="enable-background:new 0 0 24 24;" xml:space="preserve">
<g>
	<title>marine-mammal-seal</title>
	<path d="M17.404,5c-0.256,0-0.469-0.192-0.497-0.446c-0.205-1.881-1.662-3.338-3.543-3.543c-0.145-0.016-0.292-0.024-0.436-0.024
		c-2.044,0-3.752,1.533-3.974,3.567C8.927,4.809,8.713,5,8.457,5l0,0C8.439,5,8.421,4.999,8.403,4.997
		C8.27,4.983,8.151,4.918,8.067,4.814C7.983,4.709,7.945,4.579,7.96,4.446c0.277-2.542,2.413-4.458,4.969-4.458
		c0.18,0,0.363,0.01,0.544,0.03c2.314,0.252,4.177,2.115,4.429,4.429c0.03,0.274-0.169,0.521-0.443,0.551
		C17.439,4.999,17.421,5,17.404,5z"/>
	<path d="M12.93,6.5c-0.134,0-0.259-0.052-0.354-0.146l-0.5-0.5c-0.143-0.143-0.186-0.357-0.108-0.545
		C12.046,5.122,12.227,5,12.43,5h1c0.203,0,0.385,0.121,0.462,0.309c0.078,0.187,0.035,0.401-0.108,0.545l-0.5,0.5
		C13.189,6.448,13.064,6.5,12.93,6.5z"/>
	<path d="M14.43,9.5c-0.116,0-0.229-0.041-0.319-0.115c-0.302-0.25-0.683-0.388-1.072-0.388c-0.028,0-0.056,0.001-0.084,0.002
		c-0.052-0.001-0.081-0.002-0.109-0.002c-0.411,0-0.79,0.134-1.097,0.388C11.659,9.46,11.546,9.5,11.43,9.5
		c-0.15,0-0.29-0.066-0.385-0.181c-0.085-0.103-0.125-0.233-0.113-0.366c0.013-0.133,0.076-0.253,0.179-0.338
		c0.481-0.398,1.09-0.617,1.714-0.617c0.043,0,0.086,0.001,0.129,0.003c0.017-0.002,0.058-0.003,0.1-0.003
		c0.612,0,1.214,0.219,1.695,0.617c0.103,0.085,0.166,0.205,0.179,0.338c0.013,0.133-0.027,0.263-0.113,0.366
		C14.72,9.434,14.58,9.5,14.43,9.5z"/>
	<path d="M12.926,24.001l-0.149,0.001c-1.556,0-3.12-0.354-4.535-1.026c-0.92,0.671-1.889,1.025-2.812,1.025c-1.641,0-3.5,0-3.5-1.5
		c0-0.656,0.577-1.274,1.375-2.13l0.141-0.151c-0.889-0.953-1.431-2.217-1.495-3.506c-0.053-0.512-0.484-0.905-0.94-1.32
		c-0.379-0.345-0.736-0.67-0.886-1.104c-0.098-0.283-0.061-0.562,0.104-0.785c0.336-0.456,1.093-0.514,1.715-0.514
		c0.023,0,0.046,0,0.069,0c0.137-0.714,0.358-1.423,0.86-1.655c0.106-0.05,0.219-0.075,0.335-0.075c0.155,0,0.308,0.045,0.456,0.134
		c0.392,0.236,0.639,0.647,0.9,1.083c0.317,0.529,0.617,1.029,1.134,1.189c0.42,0.119,0.836,0.288,1.237,0.503
		c0.478-1.55,0.814-3.139,0.999-4.728C7.963,9.191,8.176,9,8.429,9c0.02,0,0.04,0.001,0.06,0.004C8.62,9.019,8.739,9.085,8.822,9.19
		c0.083,0.105,0.12,0.235,0.105,0.368c-0.209,1.798-0.604,3.595-1.174,5.341c0.012,0.116-0.017,0.233-0.082,0.329
		c-0.014,0.02-0.029,0.038-0.043,0.052c-0.227,0.662-0.475,1.307-0.737,1.918c-0.709,1.42-1.634,2.521-2.364,3.325
		c-0.005,0.007-0.01,0.013-0.016,0.019c-0.005,0.005-0.01,0.011-0.016,0.016c-0.159,0.174-0.314,0.342-0.458,0.496
		c-0.519,0.556-1.106,1.186-1.106,1.447c0,0.462,1.182,0.5,2.5,0.5c0.764,0,1.625-0.351,2.424-0.987
		c0-0.001,0.015-0.013,0.032-0.025c1.199-0.965,2.044-2.402,2.044-3.488c0-0.276,0.224-0.5,0.5-0.5s0.5,0.224,0.5,0.5
		c0,1.183-0.716,2.623-1.847,3.754c1.172,0.49,2.444,0.747,3.703,0.747l0.137-0.001l0.156,0.001c1.258,0,2.529-0.257,3.699-0.747
		c-1.132-1.131-1.847-2.571-1.847-3.754c0-0.276,0.224-0.5,0.5-0.5s0.5,0.224,0.5,0.5c0,1.086,0.844,2.523,2.053,3.495
		c0.007,0.005,0.021,0.016,0.035,0.029c0.787,0.626,1.648,0.977,2.412,0.977c1.317,0,2.5-0.038,2.5-0.5
		c0-0.262-0.588-0.892-1.106-1.447c-0.843-0.904-1.997-2.141-2.841-3.829c-1.056-2.458-1.744-5.032-2.049-7.666
		c-0.015-0.133,0.022-0.263,0.104-0.368c0.083-0.105,0.202-0.171,0.334-0.186C17.391,9.001,17.412,9,17.432,9
		c0.253,0,0.466,0.191,0.494,0.443c0.295,2.537,0.955,5.014,1.963,7.36c0.767,1.532,1.819,2.66,2.664,3.566
		c0.8,0.857,1.376,1.476,1.376,2.131c0,1.5-1.859,1.5-3.5,1.5c-0.923,0-1.892-0.354-2.812-1.025
		c-1.415,0.672-2.979,1.026-4.535,1.026L12.926,24.001z M1.124,14.069c0.112,0.177,0.339,0.383,0.559,0.584
		c0.522,0.476,1.171,1.066,1.265,1.985c0.053,1.064,0.467,2.059,1.172,2.839c0.591-0.676,1.298-1.57,1.863-2.7
		c0.223-0.52,0.438-1.073,0.636-1.637c-0.387-0.223-0.791-0.396-1.205-0.513c-0.894-0.276-1.344-1.029-1.707-1.633
		c-0.154-0.258-0.312-0.522-0.463-0.667c-0.066,0.13-0.185,0.443-0.302,1.146c-0.009,0.056-0.016,0.099-0.022,0.125
		c-0.047,0.233-0.253,0.402-0.49,0.402c-0.023,0-0.06-0.001-0.106-0.003c-0.144-0.005-0.255-0.007-0.356-0.007
		C1.489,13.991,1.244,14.034,1.124,14.069z"/>
	<path d="M5.43,8.5c-0.23,0-0.429-0.156-0.485-0.379c-0.067-0.268,0.096-0.54,0.364-0.607l2.56-0.64L5.733,5.96
		C5.61,5.907,5.515,5.81,5.466,5.686s-0.048-0.26,0.005-0.383C5.549,5.119,5.73,5,5.93,5c0.068,0,0.135,0.014,0.198,0.041l3.5,1.5
		c0.014,0.006,0.031,0.016,0.047,0.026C9.702,6.583,9.725,6.601,9.74,6.614c0.027,0.022,0.05,0.042,0.069,0.065
		c0.018,0.02,0.033,0.045,0.048,0.071c0.016,0.029,0.029,0.053,0.039,0.078c0.008,0.016,0.015,0.034,0.018,0.049
		c0.008,0.033,0.009,0.06,0.009,0.077c0.002,0.023,0.004,0.052,0.002,0.086C9.923,7.073,9.916,7.103,9.91,7.126
		c-0.003,0.017-0.008,0.042-0.02,0.071C9.883,7.213,9.868,7.238,9.858,7.252c0,0,0,0,0,0c0.001,0-0.008,0.015-0.019,0.03
		C9.816,7.317,9.787,7.349,9.755,7.377C9.749,7.382,9.726,7.402,9.72,7.407C9.674,7.438,9.627,7.462,9.578,7.477
		C9.569,7.481,9.56,7.483,9.551,7.486l-4,1C5.512,8.495,5.471,8.5,5.43,8.5z"/>
	<path d="M20.43,8.5c-0.042,0-0.083-0.005-0.122-0.015l-3.999-1c-0.01-0.002-0.02-0.005-0.029-0.009
		c-0.051-0.016-0.096-0.039-0.139-0.069c-0.01-0.007-0.03-0.024-0.039-0.032c-0.028-0.024-0.057-0.056-0.082-0.092
		c-0.009-0.013-0.017-0.026-0.025-0.04c-0.01-0.015-0.021-0.035-0.026-0.048c-0.011-0.028-0.017-0.053-0.019-0.068
		c-0.007-0.026-0.013-0.055-0.016-0.089c-0.002-0.031-0.001-0.061,0.002-0.085c0-0.017,0.001-0.042,0.009-0.072
		c0.004-0.016,0.011-0.035,0.019-0.052c0.011-0.03,0.024-0.054,0.036-0.074c0.01-0.018,0.026-0.047,0.053-0.078
		c0.016-0.019,0.036-0.037,0.057-0.055c0.024-0.019,0.048-0.039,0.079-0.056c0.013-0.009,0.028-0.017,0.04-0.023l3.504-1.502
		C19.794,5.014,19.861,5,19.93,5c0.201,0,0.381,0.119,0.46,0.304c0.052,0.122,0.054,0.258,0.004,0.382
		c-0.05,0.124-0.145,0.221-0.267,0.274l-2.136,0.915l2.56,0.64c0.13,0.032,0.239,0.113,0.308,0.228
		c0.069,0.115,0.089,0.249,0.056,0.379C20.859,8.345,20.66,8.5,20.43,8.5z"/>
	<circle cx="10.93" cy="4" r="0.75"/>
	<circle cx="14.93" cy="4" r="0.75"/>
</g>
</svg>
