<?xml version="1.0" encoding="utf-8"?>
<!-- Generator: Adobe Illustrator 22.1.0, SVG Export Plug-In . SVG Version: 6.00 Build 0)  -->
<svg version="1.1" id="Light" xmlns="http://www.w3.org/2000/svg" xmlns:xlink="http://www.w3.org/1999/xlink" x="0px" y="0px"
	 viewBox="0 0 24 24" style="enable-background:new 0 0 24 24;" xml:space="preserve">
<g>
	<title>marine-mammal-dolphin</title>
	<path d="M8.493,23.493c-1.37-0.043-2.633-0.651-3.51-1.68c-0.89,1.039-1.771,1.591-2.621,1.643
		c-0.046,0.003-0.091,0.004-0.136,0.004c-1.008,0-1.675-0.692-1.995-1.025l-0.088-0.09c-0.193-0.192-0.193-0.51,0.002-0.705
		c0.094-0.094,0.22-0.146,0.354-0.146s0.259,0.052,0.354,0.146l0.094,0.096c0.281,0.292,0.698,0.725,1.275,0.725
		c0.026,0,0.052-0.001,0.078-0.003c0.678-0.042,1.451-0.635,2.299-1.765c0.094-0.125,0.241-0.2,0.393-0.2
		c0.006,0,0.03,0.001,0.036,0.001c0.155,0.006,0.305,0.093,0.393,0.232c0.675,1.067,1.831,1.728,3.093,1.767
		c1.238-0.008,2.413-0.681,3.055-1.756c0.088-0.147,0.248-0.235,0.429-0.235s0.341,0.088,0.429,0.235
		c0.643,1.076,1.82,1.749,3.074,1.756c1.247-0.039,2.4-0.7,3.074-1.767c0.088-0.139,0.239-0.226,0.403-0.232
		c0.003,0,0.024-0.001,0.028-0.001c0.151,0,0.297,0.075,0.392,0.2c0.848,1.13,1.622,1.723,2.299,1.765
		c0.028,0.002,0.054,0.003,0.08,0.003c0.577,0,0.993-0.432,1.268-0.719l0.098-0.1c0.097-0.097,0.222-0.149,0.356-0.149
		s0.259,0.052,0.354,0.146c0.195,0.195,0.195,0.512,0,0.707l-0.083,0.085c-0.321,0.333-0.99,1.028-1.999,1.028l0,0
		c-0.044,0-0.089-0.001-0.135-0.004c-0.85-0.052-1.731-0.604-2.621-1.643c-0.876,1.03-2.135,1.637-3.5,1.68
		c-1.361-0.008-2.649-0.616-3.516-1.642c-0.865,1.026-2.15,1.634-3.497,1.642c-0.001,0-0.001,0-0.002,0
		C8.499,23.493,8.496,23.493,8.493,23.493z"/>
	<circle cx="6.5" cy="6.906" r="0.75"/>
	<path d="M16.883,18.73c-0.063,0-0.127-0.007-0.19-0.021c-0.226-0.051-0.417-0.186-0.54-0.381c-0.123-0.195-0.163-0.426-0.112-0.651
		c0.246-1.275,0.898-2.468,1.842-3.376c-1.965-2.931-4.461-4.416-7.422-4.416c-0.379,0-0.77,0.024-1.166,0.073
		c0.07,0.803,0.255,1.59,0.553,2.343c0.083,0.19,0.1,0.417,0.045,0.633c-0.067,0.259-0.23,0.476-0.46,0.612
		c-0.154,0.091-0.329,0.139-0.507,0.139c-0.084,0-0.168-0.01-0.25-0.031c-1.375-0.436-2.54-1.32-3.314-2.503
		c-0.996,0.471-1.955,1.03-2.855,1.663c-0.251,0.176-0.547,0.269-0.854,0.269c0,0,0,0,0,0c-0.395,0-0.785-0.156-1.044-0.416
		c-0.391-0.394-0.433-0.946-0.105-1.408l1.55-2.032c-0.287-0.992-0.15-2.093,0.389-3.116C3.3,4.482,5.057,3.214,7.27,2.623
		c0.841-1.202,2.331-2.018,6.662-2.117c0.007-0.001,0.021-0.001,0.037-0.001c0.146,0,0.304,0.039,0.443,0.111
		c0.237,0.122,0.413,0.329,0.495,0.583c0.082,0.254,0.06,0.525-0.062,0.763c-0.169,0.34-0.299,0.7-0.387,1.071
		c1.793,0.775,6.634,3.535,6.752,10.722c1.285,0.887,2.183,2.264,2.473,3.799c0.032,0.213-0.005,0.412-0.107,0.584
		c-0.117,0.199-0.305,0.34-0.529,0.397c-0.071,0.018-0.144,0.027-0.216,0.027c-0.154,0-0.306-0.042-0.439-0.121l-2.73-1.638
		L17.41,18.55C17.257,18.668,17.075,18.73,16.883,18.73z M10.42,8.889c3.424,0,6.377,1.809,8.538,5.231
		c0.133,0.211,0.089,0.491-0.103,0.651c-0.855,0.713-1.469,1.681-1.754,2.753l2.219-1.72c0.087-0.068,0.196-0.105,0.306-0.105
		c0.091,0,0.18,0.025,0.257,0.071l2.746,1.647c-0.313-1.219-1.096-2.292-2.182-2.968c-0.147-0.091-0.236-0.25-0.236-0.424
		c0-7.209-4.976-9.642-6.501-10.216c-0.221-0.083-0.354-0.313-0.318-0.546c0.096-0.61,0.284-1.199,0.559-1.753
		c-4.04,0.087-5.3,0.79-5.95,1.816c-0.07,0.11-0.177,0.187-0.303,0.218c-2.027,0.5-3.621,1.606-4.372,3.032
		C2.871,7.442,2.783,8.354,3.079,9.145C3.14,9.307,3.113,9.486,3.008,9.624l-1.7,2.227c-0.042,0.059-0.029,0.072,0.009,0.11
		c0.073,0.074,0.203,0.122,0.331,0.122c0.072,0,0.18-0.015,0.284-0.088c1.072-0.755,2.224-1.408,3.423-1.942
		c0.065-0.029,0.133-0.043,0.203-0.043c0.182,0,0.35,0.099,0.438,0.258c0.635,1.152,1.672,2.008,2.922,2.414
		c-0.396-1.013-0.614-2.065-0.65-3.136c-0.008-0.25,0.172-0.469,0.418-0.51C9.274,8.938,9.857,8.889,10.42,8.889z"/>
</g>
</svg>
