<?xml version="1.0" encoding="utf-8"?>
<!-- Generator: Adobe Illustrator 22.1.0, SVG Export Plug-In . SVG Version: 6.00 Build 0)  -->
<svg version="1.1" id="Light" xmlns="http://www.w3.org/2000/svg" xmlns:xlink="http://www.w3.org/1999/xlink" x="0px" y="0px"
	 viewBox="0 0 24 24" style="enable-background:new 0 0 24 24;" xml:space="preserve">
<g>
	<title>marine-mammal-dolphin-2</title>
	<path d="M4,21c-0.068,0-0.133-0.013-0.196-0.04c-0.17-0.072-0.285-0.231-0.302-0.414c-0.017-0.187-0.159-1.847-0.034-3.679
		c-0.307-0.342-0.599-0.702-0.871-1.071C0.955,13.334,1.139,11.277,1.6,9.962L0.015,3.621c-0.054-0.217,0.044-0.446,0.239-0.557
		C0.328,3.022,0.414,3,0.5,3c0.134,0,0.259,0.052,0.354,0.147l4.135,4.135C5.026,7.281,5.062,7.28,5.099,7.28
		C6.656,7.28,8.264,8.185,9.4,9.7c0.468,0.623,0.782,1.339,1.114,2.097c0.764,1.742,1.484,3.386,4.048,3.707
		c0.405,0.051,0.783,0.076,1.126,0.076c1.142,0,1.705-0.279,1.976-0.513c0.176-0.152,0.26-0.308,0.301-0.423
		C17.362,13.9,17.02,12.97,17,12.01c0.022-1.066,0.423-2.073,1.131-2.848C18.225,9.059,18.36,9,18.501,9
		c0.006,0,0.03,0.001,0.035,0.001c0.156,0.012,0.293,0.092,0.379,0.221l1.788,2.682l2.638-0.879C23.393,11.008,23.447,11,23.5,11
		c0.106,0,0.208,0.033,0.293,0.095c0.13,0.095,0.208,0.247,0.207,0.408c-0.005,0.926-0.186,1.83-0.538,2.687
		c-0.483,0.97-1.819,1.222-2.54,1.288c-0.271,1.199-1.395,4.275-5.84,5.016c-0.781,0.13-1.589,0.196-2.4,0.196l0,0
		c-2.411,0-4.643-0.569-6.162-1.565L4.312,20.89C4.224,20.961,4.113,21,4,21z M6.5,18c0.109,0,0.213,0.035,0.3,0.1
		c1.328,0.996,3.521,1.591,5.867,1.591c0.76,0,1.517-0.062,2.25-0.184c4.672-0.779,5.069-4.397,5.084-4.551
		c0.022-0.259,0.236-0.456,0.497-0.456c0.552-0.001,1.781-0.179,2.053-0.724c0.201-0.492,0.337-1.021,0.403-1.568l-2.297,0.766
		C20.607,12.991,20.554,13,20.5,13c-0.167,0-0.323-0.083-0.416-0.223l-1.609-2.413c-0.3,0.497-0.463,1.059-0.475,1.646
		c0.017,0.789,0.325,1.557,0.869,2.152C18.954,14.255,19,14.375,19,14.5c0,0.074-0.019,0.738-0.663,1.307
		c-0.581,0.513-1.469,0.773-2.639,0.773c-0.386,0-0.81-0.029-1.26-0.085c-3.127-0.391-4.076-2.556-4.839-4.296
		c-0.309-0.704-0.6-1.369-0.999-1.9C7.668,9.056,6.326,8.284,5.099,8.284c-0.552,0-1.073,0.15-1.552,0.447
		c0.147,0.781,0.669,3.145,1.73,3.853c0.114,0.076,0.192,0.197,0.216,0.332C5.516,13.05,5.482,13.19,5.4,13.3
		c-1.013,1.351-1.017,4.658-0.957,6.206l1.745-1.396C6.276,18.039,6.387,18,6.5,18z M2.548,10.219
		c-0.405,1.09-0.577,2.837,0.868,5.003c0.065,0.087,0.132,0.176,0.202,0.266c0.155-0.993,0.397-1.792,0.723-2.385
		c-0.836-0.821-1.328-2.26-1.596-3.342c-0.05,0.101-0.097,0.204-0.14,0.309C2.594,10.123,2.575,10.172,2.548,10.219z M2.29,8.599
		c0.182-0.263,0.322-0.416,0.344-0.44C2.665,8.128,2.686,8.11,2.707,8.094c0.341-0.255,0.707-0.453,1.09-0.59L1.423,5.13L2.29,8.599
		z"/>
	<circle cx="6.25" cy="10.25" r="0.75"/>
</g>
</svg>
