<?xml version="1.0" encoding="utf-8"?>
<!-- Generator: Adobe Illustrator 22.1.0, SVG Export Plug-In . SVG Version: 6.00 Build 0)  -->
<svg version="1.1" id="Light" xmlns="http://www.w3.org/2000/svg" xmlns:xlink="http://www.w3.org/1999/xlink" x="0px" y="0px"
	 viewBox="0 0 24 24" style="enable-background:new 0 0 24 24;" xml:space="preserve">
<g>
	<title>marine-mammal-seal-ball</title>
	<path d="M8.82,23.5c-0.276,0-0.5-0.224-0.5-0.5s0.224-0.5,0.5-0.5h14.122c-0.218-1.001-1.023-1.808-2.039-2.01
		c-0.192-0.043-0.383-0.064-0.572-0.064c-0.543,0-1.061,0.168-1.499,0.486c-0.085,0.062-0.187,0.096-0.294,0.096
		c-0.061,0-0.12-0.011-0.176-0.032c-0.159-0.06-0.275-0.194-0.312-0.359c-0.329-1.473-1.166-2.795-2.357-3.722
		c-1.491-1.278-4.372-1.468-5.957-1.468c-0.946,0-1.612,0.063-1.684,0.07C8.037,15.499,8.017,15.5,7.998,15.5
		c-0.119,0-0.234-0.043-0.325-0.122c-0.104-0.09-0.167-0.221-0.172-0.358c-0.033-0.848-0.263-3.262-0.917-4.242
		C5.976,9.995,5.111,9.386,4.143,9.065C3.381,9.84,2,11.399,2,15c0,1.515,0,3.079,0.72,4.394c0.376-0.177,0.774-0.307,1.186-0.385
		C3.938,19.003,3.969,19,4,19c0.24,0,0.447,0.171,0.491,0.406c0.051,0.271-0.127,0.533-0.398,0.585
		c-1.378,0.262-2.479,1.21-2.941,2.509H5c0.945-0.03,1.777-0.698,2.016-1.625C7.073,20.654,7.272,20.5,7.5,20.5
		c0.042,0,0.084,0.005,0.125,0.016c0.267,0.069,0.428,0.343,0.359,0.609c-0.349,1.354-1.57,2.331-2.969,2.375l-4.516,0
		c-0.15,0-0.29-0.066-0.385-0.181s-0.134-0.265-0.106-0.412c0.23-1.208,0.885-2.262,1.856-2.993C1,18.372,1,16.659,1,15
		c0-3.312,1.077-5.104,2.014-6.185C1.244,8.277,0,6.631,0,4.75c0-1.267,0.56-2.458,1.537-3.27c0.009-0.009,0.019-0.018,0.029-0.025
		c0.005-0.004,0.011-0.008,0.017-0.012C2.337,0.835,3.283,0.5,4.25,0.5c2.344,0,4.25,1.906,4.25,4.25
		c0,1.772-1.125,3.357-2.75,3.974c0.635,0.391,1.197,0.891,1.645,1.47c0.74,1.108,0.99,3.196,1.073,4.268
		c0.333-0.021,0.782-0.04,1.309-0.04c2.083,0,4.911,0.295,6.549,1.699c1.174,0.913,2.065,2.195,2.524,3.629
		c0.463-0.212,0.969-0.324,1.481-0.324c0.261,0,0.524,0.029,0.779,0.087c1.647,0.327,2.865,1.791,2.89,3.48
		c0.002,0.133-0.051,0.263-0.144,0.358S23.633,23.5,23.5,23.5H8.82z M1.354,3.279C1.123,3.733,1,4.237,1,4.75
		C1,6.542,2.458,8,4.25,8c0.329,0,0.657-0.051,0.97-0.15c-0.954-0.3-1.829-0.805-2.56-1.483C1.753,5.46,1.445,4.227,1.354,3.279z
		 M2.324,2.492c-0.009,0.812,0.121,2.246,1.03,3.155c0.758,0.702,1.731,1.197,2.761,1.406C6.026,6.059,5.676,5.11,5.092,4.29
		C4.381,3.456,3.403,2.821,2.324,2.492z M3.115,1.708c1.071,0.416,2.018,1.089,2.766,1.968c0.594,0.832,0.985,1.765,1.155,2.74
		C7.338,5.914,7.5,5.339,7.5,4.75c0-1.792-1.458-3.25-3.25-3.25C3.862,1.5,3.478,1.571,3.115,1.708z"/>
	<circle cx="5.25" cy="11.75" r="0.75"/>
</g>
</svg>
