<?xml version="1.0" encoding="utf-8"?>
<!-- Generator: Adobe Illustrator 22.1.0, SVG Export Plug-In . SVG Version: 6.00 Build 0)  -->
<svg version="1.1" id="Light" xmlns="http://www.w3.org/2000/svg" xmlns:xlink="http://www.w3.org/1999/xlink" x="0px" y="0px"
	 viewBox="0 0 24 24" style="enable-background:new 0 0 24 24;" xml:space="preserve">
<g>
	<title>marine-mammal-dolphin-1</title>
	<path d="M1.633,23.985c-0.084,0-0.167-0.021-0.241-0.062c-0.181-0.1-0.281-0.297-0.255-0.502c0.187-1.44,0.627-2.816,1.31-4.094
		c-0.703-1.339-1.13-2.782-1.268-4.293C0.899,11.975,1.827,8.99,3.791,6.628c1.833-2.203,4.381-3.625,7.203-4.028
		c-0.164-0.304-0.449-0.59-0.69-0.83C9.944,1.409,9.632,1.097,9.632,0.688c0-0.1,0.031-0.437,0.435-0.594
		c0.133-0.052,0.307-0.078,0.518-0.078c1.183,0,3.709,0.83,5.853,3.113c1.985,0.697,3.74,1.922,5.079,3.546
		c1.868,2.241,1.762,6.056,0.316,7.376c-0.104,0.095-0.218,0.179-0.341,0.251c-0.221,0.153-1.091,0.685-2.348,0.685
		c-1.272,0-2.536-0.533-3.759-1.585c-0.834,0.383-1.752,0.584-2.668,0.584l-0.088,0c-0.204-0.003-0.384-0.128-0.458-0.317
		c-0.074-0.189-0.028-0.402,0.119-0.544c0.793-0.761,1.563-1.881,1.447-2.334c-0.03-0.114-0.158-0.205-0.382-0.269
		c-0.214-0.025-0.423-0.037-0.622-0.037l-0.088,0.001c-3.866,0-7.008,3.14-7.008,7c0,0.163,0.005,0.326,0.015,0.489
		c1.37,0.358,2.654,0.95,3.818,1.763c0.17,0.119,0.249,0.326,0.2,0.528c-0.049,0.202-0.213,0.35-0.419,0.378
		c-1.346,0.183-2.671,0.525-3.938,1.017c-1.179,0.594-2.317,1.342-3.361,2.21C1.864,23.943,1.75,23.985,1.633,23.985z M11.016,1.066
		c0.459,0.459,1.084,1.087,1.112,1.947c0.009,0.264-0.191,0.49-0.454,0.514C8.88,3.784,6.354,5.112,4.56,7.268
		s-2.641,4.881-2.385,7.675c0.134,1.464,0.565,2.858,1.279,4.143c0.084,0.152,0.083,0.339-0.002,0.489
		c-0.483,0.856-0.846,1.764-1.084,2.709c0.805-0.578,1.657-1.094,2.54-1.538c0.95-0.371,1.915-0.659,2.889-0.865
		c-0.856-0.459-1.77-0.801-2.725-1.02c-0.208-0.047-0.363-0.222-0.386-0.434c-0.033-0.311-0.05-0.627-0.05-0.942
		c0-4.411,3.589-8,8-8l0.087-0.001c0.259,0,0.524,0.016,0.788,0.048c0.022,0.003,0.046,0.007,0.069,0.014
		c0.77,0.204,1.036,0.653,1.124,0.994c0.188,0.726-0.285,1.599-0.846,2.325c0.419-0.09,0.826-0.231,1.216-0.422
		c0.001-0.001,0.001-0.001,0.002-0.002c0.075-0.081,0.173-0.133,0.281-0.151c0.537-0.302,1.009-0.684,1.403-1.135
		c0.089-0.102,0.217-0.164,0.352-0.17c0.004,0,0.022-0.001,0.026-0.001c0.127,0,0.248,0.048,0.341,0.135
		c0.01,0.009,1.018,0.953,1.532,1.533c0.584,0.583,1.129,0.897,1.564,0.897c0.217,0,0.408-0.078,0.583-0.238
		c1.076-0.983,1.045-4.251-0.412-5.999c-1.249-1.516-2.891-2.649-4.75-3.278c-0.08-0.027-0.152-0.074-0.208-0.136
		C13.979,1.928,11.974,1.246,11.016,1.066z M16.317,12.875c0.907,0.71,1.823,1.083,2.727,1.112c-0.25-0.176-0.505-0.393-0.76-0.648
		c-0.302-0.34-0.785-0.815-1.129-1.146C16.896,12.442,16.616,12.671,16.317,12.875z"/>
	<circle cx="20.132" cy="10.485" r="0.75"/>
	<path d="M16.971,23.992c-0.486,0-0.809-0.053-1.094-0.1c-0.251-0.041-0.464-0.076-0.768-0.076c-0.361,0-0.801,0.051-1.385,0.16
		c-0.032,0.006-0.062,0.008-0.09,0.008c-0.179,0-0.345-0.095-0.434-0.249c-0.106-0.183-0.086-0.413,0.051-0.574
		c0.752-0.889,1.725-1.58,2.813-1.998c0.377-0.144,0.732-0.218,1.057-0.218c0.615,0,0.997,0.256,1.21,0.47
		c0.416,0.418,0.549,1.074,0.331,1.631c-0.219,0.559-0.73,0.909-1.367,0.937C17.179,23.989,17.072,23.992,16.971,23.992z
		 M15.115,22.816c0.379,0,0.654,0.045,0.919,0.088c0.275,0.045,0.531,0.087,0.934,0.087c0.087,0,0.181-0.002,0.283-0.007
		c0.244-0.011,0.405-0.113,0.479-0.302c0.076-0.194,0.032-0.42-0.109-0.562c-0.115-0.115-0.283-0.174-0.5-0.174
		c-0.203,0-0.438,0.051-0.699,0.151c-0.476,0.183-0.923,0.424-1.334,0.719C15.097,22.816,15.106,22.816,15.115,22.816z"/>
	<path d="M12.632,21.485c-0.032,0-0.064-0.003-0.096-0.009c-0.207-0.041-0.367-0.208-0.398-0.417
		c-0.172-1.152-0.05-2.339,0.353-3.432c0.474-1.277,1.261-1.511,1.688-1.537c0.029-0.002,0.059-0.003,0.088-0.003
		c0.563,0,1.095,0.326,1.356,0.831c0.275,0.532,0.201,1.147-0.198,1.645c-0.423,0.527-0.733,0.781-1.006,1.005
		c-0.381,0.313-0.71,0.583-1.356,1.672C12.973,21.391,12.808,21.485,12.632,21.485z M14.242,17.088
		c-0.315,0.019-0.611,0.342-0.813,0.886c-0.177,0.478-0.29,0.972-0.339,1.476c0.261-0.3,0.48-0.48,0.694-0.656
		c0.248-0.203,0.503-0.413,0.862-0.859c0.153-0.19,0.183-0.378,0.089-0.559c-0.09-0.173-0.277-0.29-0.467-0.29L14.242,17.088z"/>
</g>
</svg>
