<?xml version="1.0" encoding="utf-8"?>
<!-- Generator: Adobe Illustrator 22.1.0, SVG Export Plug-In . SVG Version: 6.00 Build 0)  -->
<svg version="1.1" id="Light" xmlns="http://www.w3.org/2000/svg" xmlns:xlink="http://www.w3.org/1999/xlink" x="0px" y="0px"
	 viewBox="0 0 24 24" style="enable-background:new 0 0 24 24;" xml:space="preserve">
<g>
	<title>marine-mammal-penguin-slide</title>
	<path d="M15.499,23c-0.113,0-0.224-0.039-0.312-0.109l-15-12c-0.104-0.083-0.17-0.202-0.185-0.335s0.023-0.263,0.107-0.368
		C0.204,10.068,0.347,10,0.5,10c0.113,0,0.224,0.039,0.312,0.11l5.028,4.022c-0.178-0.405-0.31-0.824-0.395-1.254
		c-0.236-1.199-0.078-2.384,0.434-3.291C3.895,7.834,4.375,6.012,4.397,5.933c0.06-0.215,0.258-0.365,0.481-0.365
		c0.031,0,0.063,0.003,0.095,0.009C5.1,5.601,8.141,6.224,13.836,10.59c1.289,0.988,2.092,1.891,2.678,2.551
		c0.598,0.673,0.962,1.083,1.398,1.13c0.149-0.012,0.301-0.018,0.45-0.018c1.22,0,2.386,0.382,3.371,1.106
		c1.122,0.86,1.562,1.815,1.312,2.845c0.542,0.807,0.996,1.509,0.953,2.169c-0.018,0.262-0.237,0.467-0.499,0.467
		c-0.004,0-0.023,0-0.027-0.001c-0.139-0.009-0.261-0.069-0.349-0.17c-0.088-0.1-0.132-0.229-0.123-0.362
		c0.023-0.346-0.409-0.987-0.909-1.73c-0.09-0.133-0.115-0.306-0.064-0.452c0.245-0.711-0.022-1.299-0.894-1.967
		c-0.793-0.583-1.781-0.905-2.776-0.905c-0.134,0-0.269,0.006-0.403,0.017c-0.007,0.001-0.036,0.002-0.043,0.002l-0.031-0.001
		c-0.862-0.057-1.387-0.648-2.115-1.466c-0.59-0.665-1.325-1.492-2.539-2.422C9.11,8.228,6.411,7.09,5.335,6.722
		c0.047,0.547,0.328,1.459,1.512,2.366c0.106,0.081,0.174,0.199,0.192,0.331c0.017,0.13-0.019,0.265-0.099,0.37
		c-0.54,0.704-0.732,1.786-0.513,2.895c0.247,1.254,0.975,2.398,2.05,3.222c1.609,1.34,3.551,2.124,5.622,2.272
		c0.443-0.001,0.917-0.052,1.364-0.104c0.434-0.051,0.883-0.103,1.351-0.103c0.87,0,1.625,0.187,2.378,0.587
		c0.853,0.454,1.404,0.55,1.716,0.55c0.208,0,0.304-0.043,0.305-0.044c0.066-0.038,0.152-0.061,0.24-0.061
		c0.177,0,0.337,0.089,0.428,0.238c0.142,0.232,0.076,0.529-0.149,0.677c-0.07,0.045-0.333,0.192-0.821,0.192
		c-0.618,0-1.354-0.225-2.188-0.669c-0.611-0.325-1.2-0.47-1.908-0.47c-0.407,0-0.808,0.047-1.232,0.096l-0.048,0.006
		c-0.439,0.052-0.893,0.104-1.375,0.104l-0.101-0.001c-0.86-0.061-1.693-0.217-2.492-0.466l4.248,3.398
		c0.215,0.173,0.25,0.488,0.078,0.703C15.794,22.932,15.652,23,15.499,23z"/>
	<path d="M17.916,16.971c-1.552,0-3.54-1.328-4.245-1.837c-0.284,0.058-0.576,0.087-0.869,0.087c-0.574,0-1.131-0.109-1.657-0.325
		c-1.151-0.349-2.221-1.016-3.074-1.919c-0.133-0.141-0.173-0.349-0.101-0.529c0.072-0.18,0.244-0.303,0.438-0.314
		c0,0,3.156-0.172,3.161-0.172c0.263,0,0.481,0.208,0.495,0.473c0.007,0.134-0.038,0.262-0.127,0.361
		c-0.089,0.099-0.212,0.158-0.345,0.165l-1.906,0.104c0.546,0.391,1.156,0.694,1.795,0.89c0.44,0.179,0.878,0.265,1.324,0.265
		c0.288,0,0.573-0.037,0.849-0.11c0.041-0.011,0.084-0.017,0.127-0.017c0.109,0,0.217,0.036,0.304,0.103
		c0.645,0.494,2.588,1.775,3.825,1.775c0.126,0,0.241-0.014,0.341-0.042c0.044-0.012,0.09-0.019,0.135-0.019
		c0.223,0,0.421,0.15,0.481,0.365c0.074,0.265-0.081,0.542-0.346,0.617C18.338,16.944,18.134,16.971,17.916,16.971z"/>
	<circle cx="20.668" cy="17.469" r="0.75"/>
	<path d="M3.978,4.5c-0.117,0-0.23-0.041-0.32-0.116l-3-2.5C0.446,1.708,0.417,1.392,0.594,1.18C0.689,1.066,0.829,1,0.978,1
		c0.117,0,0.23,0.041,0.32,0.116l3,2.5C4.51,3.792,4.538,4.108,4.362,4.32C4.267,4.434,4.127,4.5,3.978,4.5z"/>
	<path d="M3.5,8.5c-0.117,0-0.23-0.041-0.32-0.116l-3-2.5c-0.212-0.176-0.24-0.492-0.064-0.704C0.211,5.066,0.351,5,0.5,5
		c0.117,0,0.23,0.041,0.32,0.116l3,2.5C4.032,7.792,4.06,8.108,3.884,8.32C3.789,8.434,3.649,8.5,3.5,8.5z"/>
</g>
</svg>
