<?xml version="1.0" encoding="utf-8"?>
<!-- Generator: Adobe Illustrator 22.1.0, SVG Export Plug-In . SVG Version: 6.00 Build 0)  -->
<svg version="1.1" id="Light" xmlns="http://www.w3.org/2000/svg" xmlns:xlink="http://www.w3.org/1999/xlink" x="0px" y="0px"
	 viewBox="0 0 24 24" style="enable-background:new 0 0 24 24;" xml:space="preserve">
<g>
	<title>marine-mammal-seal-body</title>
	<circle cx="6.772" cy="3.75" r="0.75"/>
	<path d="M21.522,23.999c-0.056,0-1.367-0.021-1.974-1.842c-0.15-0.42-0.242-0.857-0.273-1.303
		c-0.324,0.259-0.689,0.468-1.077,0.613c-0.465,0.155-0.893,0.232-1.281,0.232c-1.087,0-1.672-0.62-1.846-0.986
		c-0.032-0.068-0.048-0.142-0.048-0.214c0-0.099,0.024-0.876,0.724-1.875c-0.819,0.166-1.719,0.25-2.686,0.25
		c-1.606,0-2.987-0.226-3.535-0.329c-0.676,0.706-2.657,2.51-5.222,2.51c-0.854,0-1.696-0.205-2.504-0.609
		c-0.199-0.1-0.309-0.322-0.268-0.541c0.33-1.734,1.532-3.125,3.172-3.703c-0.492-0.823-0.726-1.759-0.68-2.728
		c0.013-0.263,0.238-0.476,0.501-0.476c0.297,0.014,0.511,0.248,0.498,0.524c-0.046,0.968,0.268,1.911,0.886,2.657
		c0.112,0.135,0.145,0.323,0.085,0.488c-0.06,0.166-0.204,0.289-0.377,0.322c-1.463,0.278-2.599,1.313-3.012,2.725
		c0.564,0.23,1.142,0.347,1.721,0.347c0.848,0,1.723-0.25,2.601-0.742c1.228-0.689,2.029-1.633,2.037-1.642
		c0.095-0.114,0.235-0.18,0.383-0.18c0.038,0,0.075,0.004,0.112,0.013c0.014,0.003,1.626,0.358,3.601,0.358
		c1.773,0,4.185-0.299,5.61-1.724c0.094-0.094,0.22-0.146,0.354-0.146s0.259,0.052,0.354,0.146c0.195,0.195,0.195,0.512,0,0.707
		c-0.427,0.427-0.954,0.795-1.568,1.094c-1.397,1.053-1.702,2.07-1.768,2.425c0.112,0.125,0.373,0.327,0.885,0.327
		c0.276,0,0.592-0.059,0.939-0.174c0.775-0.291,1.394-0.912,1.69-1.701c0.073-0.194,0.261-0.325,0.469-0.325
		c0.058,0,0.116,0.01,0.171,0.03c0.257,0.094,0.391,0.381,0.299,0.638c-0.307,0.859-0.307,1.804,0,2.663
		c0.294,0.881,0.757,1.098,0.95,1.152c0.207-0.209,1.079-1.45,1.079-7.483v-0.104c-0.027-4.077-3.368-7.396-7.447-7.396l-3.652,0
		c-0.167,0.984-0.474,2.029-0.937,3.186c-0.077,0.191-0.259,0.314-0.464,0.314c-0.063,0-0.126-0.012-0.185-0.036
		c-0.257-0.103-0.382-0.394-0.279-0.65c1.159-2.897,1.313-5.096,0.5-7.129c-0.613-1.609-2.176-2.688-3.89-2.688
		c-0.043,0-0.087,0.001-0.13,0.002C4.53,1.042,3.26,2.152,3.015,3.638c-0.033,0.2-0.182,0.36-0.38,0.406
		C2.408,4.096,2.194,4.203,2.016,4.352C1.71,4.608,1.521,4.968,1.486,5.366s0.086,0.785,0.342,1.091
		c0.284,0.34,0.703,0.535,1.148,0.535c0.349,0,0.689-0.123,0.957-0.347c0.089-0.075,0.203-0.116,0.32-0.116
		c0.149,0,0.289,0.066,0.384,0.18C4.722,6.81,4.763,6.94,4.751,7.073C4.739,7.206,4.676,7.326,4.573,7.412
		C4.4,7.557,4.207,7.677,3.997,7.771l-0.478,4.778c-0.022,0.215-0.177,0.391-0.387,0.438c-0.036,0.008-0.073,0.012-0.11,0.012
		c-0.174,0-0.338-0.093-0.428-0.241c-1.041-1.72-1.583-3.692-1.572-5.707C0.621,6.548,0.432,5.92,0.49,5.277
		c0.059-0.664,0.374-1.264,0.885-1.692c0.211-0.177,0.457-0.32,0.717-0.419C2.533,1.347,4.124,0.053,6.008,0
		c0.055-0.002,0.11-0.003,0.166-0.003c2.123,0,4.059,1.336,4.816,3.324C11.455,4.486,11.637,5.693,11.544,7l3.532,0
		c4.626,0,8.415,3.765,8.445,8.392v0.108C23.522,23.171,22.123,23.999,21.522,23.999z M2.046,7.812
		c0.07,1.004,0.288,1.977,0.651,2.905L2.97,7.99C2.651,7.989,2.338,7.929,2.046,7.812z"/>
</g>
</svg>
