<?xml version="1.0" encoding="utf-8"?>
<!-- Generator: Adobe Illustrator 22.1.0, SVG Export Plug-In . SVG Version: 6.00 Build 0)  -->
<svg version="1.1" id="Light" xmlns="http://www.w3.org/2000/svg" xmlns:xlink="http://www.w3.org/1999/xlink" x="0px" y="0px"
	 viewBox="0 0 24 24" style="enable-background:new 0 0 24 24;" xml:space="preserve">
<g>
	<title>marine-mammal-penguin-mother</title>
	<path d="M6.324,23.948c-0.074,0-0.151-0.004-0.229-0.011c-0.619-0.06-1.178-0.358-1.573-0.839c-0.396-0.48-0.58-1.087-0.52-1.707
		C4,19.582,5.175,17.69,6.62,17.117c-0.08-0.256-0.12-0.521-0.12-0.791c-0.11-1.178,0.741-2.235,1.939-2.383
		c0.021-0.003,0.041-0.004,0.061-0.004c1.793,0,1.793,0,2.146-0.354c0.094-0.094,0.22-0.146,0.354-0.146s0.259,0.052,0.354,0.146
		s0.146,0.22,0.146,0.354s-0.052,0.259-0.146,0.354c-0.281,0.281-0.477,0.461-0.854,0.554v1.467
		c-0.042,0.481-0.158,0.93-0.348,1.354c0.234,0.314,0.348,0.732,0.348,1.271c0.013,0.93-0.169,1.84-0.541,2.699
		c-0.077,0.178-0.252,0.296-0.447,0.301H9.426c-0.526-0.011-1.016-0.227-1.38-0.606c-0.364-0.38-0.558-0.878-0.547-1.404
		c0.006-0.27,0.232-0.489,0.503-0.489c0.283,0.006,0.503,0.235,0.497,0.511c-0.006,0.259,0.09,0.504,0.269,0.691
		c0.115,0.12,0.254,0.207,0.408,0.254c0.224-0.625,0.332-1.28,0.323-1.949c0-0.927-0.328-1.007-2-1.007c-1.215,0-2.5,1.799-2.5,3.5
		c-0.037,0.399,0.065,0.745,0.294,1.023c0.226,0.274,0.545,0.445,0.899,0.479c0.043,0.004,0.086,0.007,0.129,0.007
		c0.043,0,0.086-0.002,0.128-0.007L9,22.939c0.276,0,0.5,0.224,0.5,0.5s-0.224,0.5-0.5,0.5H6.513
		C6.455,23.945,6.391,23.948,6.324,23.948z M7.621,16.939c0.617,0,1.202,0.01,1.687,0.159c0.104-0.27,0.169-0.548,0.194-0.829
		L9.5,14.935c-0.252,0.004-0.557,0.005-0.967,0.005c-0.646,0.094-1.1,0.674-1.036,1.326C7.499,16.282,7.5,16.299,7.5,16.316
		C7.499,16.526,7.54,16.738,7.621,16.939z"/>
	<path d="M12.5,23.939c-0.276,0-0.5-0.224-0.5-0.5s0.224-0.5,0.5-0.5h5.849c-0.604-1.165-1.033-3.207-1.231-5.014
		c-0.038,0.009-0.077,0.014-0.117,0.014c-0.062,0-0.123-0.011-0.181-0.034c-2.04-0.79-3.374-2.791-3.319-4.979
		c-0.064-1.943,0.285-3.858,1.038-5.678C14.615,7.061,14.796,6.94,15,6.94c0.065,0,0.129,0.012,0.189,0.037
		c0.256,0.106,0.377,0.399,0.272,0.653c-0.698,1.688-1.021,3.468-0.962,5.293c-0.04,1.624,0.827,3.099,2.228,3.843
		c0.289-0.841,0.773-2.716,0.773-5.826c0-4.202-2.788-8.577-5.186-9.536c-0.288-0.134-0.561-0.225-0.848-0.285
		c-0.259-0.054-0.523-0.082-0.785-0.082c-0.73,0-1.442,0.213-2.059,0.616C7.776,2.205,7.197,3.054,6.989,4.042
		C6.23,6.579,6.813,8.554,8.627,9.661c0.187-0.768,0.497-1.589,0.926-2.445C9.638,7.045,9.809,6.939,10,6.939
		c0.077,0,0.154,0.018,0.224,0.053c0.119,0.06,0.208,0.162,0.251,0.289s0.033,0.262-0.027,0.382
		c-1.356,2.712-0.974,4.113-0.97,4.127c0.082,0.258-0.063,0.539-0.323,0.624c-0.05,0.016-0.102,0.025-0.155,0.025
		c-0.215,0-0.406-0.137-0.474-0.341c-0.018-0.054-0.161-0.521-0.079-1.391C6.01,9.423,5.103,6.853,6.021,3.796
		c0.253-1.216,0.985-2.281,2.055-2.98c0.781-0.51,1.681-0.779,2.605-0.779c0.331,0,0.664,0.035,0.991,0.104
		c0.358,0.075,0.708,0.192,1.04,0.346C15.437,1.576,18.5,6.281,18.5,10.94c0,1.901-0.17,3.593-0.506,5.031
		c0.014,3.161,1.054,6.772,1.528,6.972c0.002,0,0.004,0,0.006,0c0.252,0,0.473,0.223,0.473,0.497c0,0.276-0.224,0.5-0.5,0.5H12.5z"
		/>
	<path d="M8.25,8.44c-0.408,0-0.742-0.329-0.75-0.735c0-0.005,0-0.019,0-0.022C7.502,7.485,7.578,7.3,7.717,7.161
		C7.858,7.019,8.046,6.94,8.246,6.94c0,0,0.002,0,0.003,0c0.207,0,0.385,0.074,0.53,0.217C8.92,7.298,8.999,7.485,9,7.685
		C9,7.686,9,7.689,9,7.69C9,8.103,8.663,8.44,8.25,8.44z"/>
</g>
</svg>
