<?xml version="1.0" encoding="utf-8"?>
<!-- Generator: Adobe Illustrator 22.1.0, SVG Export Plug-In . SVG Version: 6.00 Build 0)  -->
<svg version="1.1" id="Layer_1" xmlns="http://www.w3.org/2000/svg" xmlns:xlink="http://www.w3.org/1999/xlink" x="0px" y="0px"
	 viewBox="0 0 24 24" style="enable-background:new 0 0 24 24;" xml:space="preserve">
<g>
	<title>location-target</title>
	<path d="M12,16c-2.206,0-4-1.794-4-4s1.794-4,4-4s4,1.794,4,4S14.206,16,12,16z M12,9c-1.654,0-3,1.346-3,3c0,1.654,1.346,3,3,3
		c1.654,0,3-1.346,3-3C15,10.346,13.654,9,12,9z"/>
	<path d="M12,23.5c-0.276,0-0.5-0.224-0.5-0.5v-2.517c-4.291-0.25-7.733-3.692-7.983-7.983H1c-0.276,0-0.5-0.224-0.5-0.5
		c0-0.276,0.224-0.5,0.5-0.5h2.517c0.25-4.291,3.692-7.733,7.983-7.983V1c0-0.276,0.224-0.5,0.5-0.5c0.276,0,0.5,0.224,0.5,0.5
		v2.517c4.291,0.25,7.733,3.692,7.983,7.983H23c0.276,0,0.5,0.224,0.5,0.5c0,0.276-0.224,0.5-0.5,0.5h-2.517
		c-0.25,4.291-3.692,7.733-7.983,7.983V23C12.5,23.276,12.276,23.5,12,23.5z M12,4.5c-4.135,0-7.5,3.365-7.5,7.5s3.365,7.5,7.5,7.5
		s7.5-3.365,7.5-7.5S16.135,4.5,12,4.5z"/>
</g>
</svg>
