<?xml version="1.0" encoding="utf-8"?>
<!-- Generator: Adobe Illustrator 22.1.0, SVG Export Plug-In . SVG Version: 6.00 Build 0)  -->
<svg version="1.1" id="Layer_1" xmlns="http://www.w3.org/2000/svg" xmlns:xlink="http://www.w3.org/1999/xlink" x="0px" y="0px"
	 viewBox="0 0 24 24" style="enable-background:new 0 0 24 24;" xml:space="preserve">
<g>
	<title>location-target-1</title>
	<path d="M12,23.5c-0.276,0-0.5-0.224-0.5-0.5v-2.517c-4.282-0.25-7.724-3.685-7.982-7.967H1c-0.276,0-0.5-0.224-0.5-0.5
		s0.224-0.5,0.5-0.5h2.516C3.759,7.217,7.201,3.768,11.5,3.517V1c0-0.276,0.224-0.5,0.5-0.5c0.276,0,0.5,0.224,0.5,0.5v2.517
		c4.299,0.25,7.741,3.699,7.984,7.999H23c0.276,0,0.5,0.224,0.5,0.5s-0.224,0.5-0.5,0.5h-2.518
		c-0.258,4.282-3.699,7.717-7.982,7.967V23C12.5,23.276,12.276,23.5,12,23.5z M12,4.5c-4.135,0-7.5,3.365-7.5,7.5s3.365,7.5,7.5,7.5
		s7.5-3.365,7.5-7.5S16.135,4.5,12,4.5z"/>
</g>
</svg>
