<?xml version="1.0" encoding="utf-8"?>
<!-- Generator: Adobe Illustrator 22.1.0, SVG Export Plug-In . SVG Version: 6.00 Build 0)  -->
<svg version="1.1" id="Light" xmlns="http://www.w3.org/2000/svg" xmlns:xlink="http://www.w3.org/1999/xlink" x="0px" y="0px"
	 viewBox="0 0 24 24" style="enable-background:new 0 0 24 24;" xml:space="preserve">
<g>
	<title>monitor-heart-notes</title>
	<path d="M15.127,17.132c-0.168,0-0.336-0.044-0.484-0.126c-0.234-0.129-0.403-0.342-0.476-0.599l-1.294-4.528l-1.54,3.079
		c-0.077,0.155-0.194,0.288-0.339,0.384c-0.165,0.11-0.357,0.168-0.555,0.168c-0.336,0-0.647-0.166-0.833-0.444l-1.131-1.701
		L7.55,14.6C7.362,14.851,7.063,15,6.75,15H4.5C4.224,15,4,14.776,4,14.5S4.224,14,4.5,14h2.25l0.926-1.235
		c0.188-0.25,0.488-0.4,0.801-0.4c0.218,0,0.425,0.069,0.599,0.2c0.09,0.068,0.168,0.15,0.232,0.245l1.13,1.701l1.539-3.08
		c0.119-0.239,0.324-0.417,0.578-0.501c0.104-0.035,0.21-0.052,0.318-0.052c0.156,0,0.306,0.036,0.446,0.106
		c0.25,0.125,0.438,0.351,0.514,0.62l1.294,4.528l0.787-1.574c0.171-0.34,0.513-0.552,0.894-0.552H19.5c0.276,0,0.5,0.224,0.5,0.5
		s-0.224,0.5-0.5,0.5h-2.691l-0.787,1.574c-0.125,0.25-0.35,0.438-0.62,0.514C15.314,17.119,15.22,17.132,15.127,17.132z"/>
	<path d="M3.5,24C2.673,24,2,23.327,2,22.5v-18C2,3.673,2.673,3,3.5,3H7c0-0.551,0.449-1,1-1h1.55C9.784,0.845,10.8,0,12,0
		c1.2,0,2.216,0.845,2.45,2H16c0.552,0,1,0.449,1,1h3.5C21.327,3,22,3.673,22,4.5v18c0,0.827-0.673,1.5-1.5,1.5H3.5z M3.5,4
		C3.224,4,3,4.224,3,4.5v18C3,22.776,3.224,23,3.5,23h17c0.276,0,0.5-0.224,0.5-0.5v-18C21,4.224,20.776,4,20.5,4H17v1h2
		c0.552,0,1,0.449,1,1v6.564c0,0.276-0.224,0.5-0.5,0.5s-0.5-0.224-0.5-0.5V6h-2c0,0.551-0.448,1-1,1H8C7.449,7,7,6.551,7,6H5v6.564
		c0,0.276-0.224,0.5-0.5,0.5S4,12.84,4,12.564V6c0-0.551,0.449-1,1-1h2V4H3.5z M8,6h8V3h-2c-0.276,0-0.5-0.224-0.5-0.5
		C13.5,1.673,12.827,1,12,1s-1.5,0.673-1.5,1.5C10.5,2.776,10.276,3,10,3H8L8,6z"/>
	<path d="M5,21c-0.551,0-1-0.448-1-1v-3.436c0-0.276,0.224-0.5,0.5-0.5s0.5,0.224,0.5,0.5V20h14v-3.5c0-0.276,0.224-0.5,0.5-0.5
		s0.5,0.224,0.5,0.5V20c0,0.552-0.448,1-1,1H5z"/>
</g>
</svg>
