<?xml version="1.0" encoding="utf-8"?>
<!-- Generator: Adobe Illustrator 22.1.0, SVG Export Plug-In . SVG Version: 6.00 Build 0)  -->
<svg version="1.1" id="Light" xmlns="http://www.w3.org/2000/svg" xmlns:xlink="http://www.w3.org/1999/xlink" x="0px" y="0px"
	 viewBox="0 0 24 24" style="enable-background:new 0 0 24 24;" xml:space="preserve">
<g>
	<title>monitor-heart-beat-touch</title>
	<path d="M11.5,4.499c-0.827,0-1.5-0.673-1.5-1.5s0.673-1.5,1.5-1.5c0.827,0,1.5,0.673,1.5,1.5S12.327,4.499,11.5,4.499z
		 M11.5,2.499c-0.276,0-0.5,0.224-0.5,0.5s0.224,0.5,0.5,0.5s0.5-0.224,0.5-0.5S11.776,2.499,11.5,2.499z"/>
	<path d="M19.5,24c-0.276,0-0.5-0.224-0.5-0.5v-2c0-1.93-1.57-3.5-3.5-3.5h-3c-0.276,0-0.5-0.224-0.5-0.5V15h-2v5.829
		c0,0.21-0.133,0.399-0.331,0.47c-0.054,0.02-0.111,0.03-0.169,0.03c-0.149,0-0.289-0.066-0.385-0.181l-2.347-2.829
		c-0.195-0.245-0.482-0.383-0.79-0.383c-0.228,0-0.443,0.075-0.621,0.218c-0.209,0.167-0.34,0.405-0.37,0.67
		s0.046,0.527,0.212,0.735l3.007,3.621c0.176,0.212,0.147,0.528-0.065,0.704C8.052,23.959,7.939,24,7.822,24
		c-0.149,0-0.289-0.066-0.385-0.181c0,0-3-3.612-3.018-3.634c-0.335-0.42-0.486-0.942-0.426-1.473
		c0.059-0.531,0.322-1.007,0.74-1.34c0.358-0.286,0.788-0.438,1.242-0.438c0.076,0,0.153,0.004,0.23,0.013
		c0.53,0.059,1.006,0.322,1.339,0.74L9,19.443V15H7c-0.551,0-1-0.448-1-1V5.5C6.001,2.467,8.468,0,11.5,0
		c3.032,0,5.499,2.467,5.5,5.499V14c0,0.552-0.448,1-1,1h-3v2h2.5c2.481,0,4.5,2.019,4.5,4.5v2C20,23.776,19.776,24,19.5,24z M7,14
		h9v-3h-1.75l-0.754,1.004c-0.129,0.172-0.307,0.296-0.512,0.358c-0.094,0.028-0.191,0.043-0.289,0.043
		c-0.164,0-0.327-0.041-0.473-0.12c-0.235-0.127-0.407-0.337-0.484-0.593l-0.853-2.844l-0.8,1.6C9.915,10.788,9.572,11,9.191,11H7
		V14z M10.886,7.847c0.153,0,0.308,0.037,0.447,0.106c0.246,0.123,0.432,0.344,0.51,0.607l0.853,2.844L13.45,10.4
		c0.188-0.25,0.487-0.4,0.8-0.4H16V5.999H7V10h2.191l0.8-1.6c0.12-0.239,0.325-0.417,0.578-0.501
		C10.672,7.865,10.778,7.847,10.886,7.847z M15.966,4.999C15.715,2.736,13.802,1,11.5,1C9.198,1,7.284,2.736,7.034,4.999H15.966z"/>
</g>
</svg>
