<?xml version="1.0" encoding="utf-8"?>
<!-- Generator: Adobe Illustrator 22.1.0, SVG Export Plug-In . SVG Version: 6.00 Build 0)  -->
<svg version="1.1" id="Light" xmlns="http://www.w3.org/2000/svg" xmlns:xlink="http://www.w3.org/1999/xlink" x="0px" y="0px"
	 viewBox="0 0 24 24" style="enable-background:new 0 0 24 24;" xml:space="preserve">
<g>
	<title>medical-condition-head-dizziness</title>
	<path d="M18,24c-0.276,0-0.5-0.224-0.5-0.5v-4.653c0-0.159,0.077-0.31,0.205-0.404c1.828-1.331,2.795-3.539,2.795-6.385
		c0.001-1.173-0.267-2.351-0.777-3.407c-0.058-0.12-0.066-0.256-0.022-0.382c0.044-0.126,0.135-0.228,0.255-0.286
		c0.068-0.033,0.142-0.05,0.217-0.05c0.191,0,0.368,0.111,0.45,0.283c0.575,1.19,0.878,2.518,0.876,3.841
		c0,3.069-1.037,5.499-3,7.037V23.5C18.5,23.776,18.276,24,18,24z"/>
	<path d="M9,24c-0.276,0-0.5-0.224-0.5-0.5V21h-1c-1.654,0-3-1.346-3-3v-3H2.694c-0.552-0.001-1-0.449-1-1
		c0-0.108,0.017-0.214,0.051-0.315c0.526-1.707,1.175-3.4,1.929-5.028c0.081-0.176,0.26-0.29,0.454-0.29
		c0.073,0,0.143,0.016,0.21,0.046c0.121,0.056,0.214,0.156,0.26,0.282c0.046,0.125,0.04,0.261-0.016,0.382
		c-0.735,1.588-1.369,3.241-1.884,4.912L5,14c0.276,0,0.5,0.224,0.5,0.5V18c0,1.103,0.897,2,2,2H9c0.276,0,0.5,0.224,0.5,0.5v3
		C9.5,23.776,9.276,24,9,24z"/>
	<path d="M17.945,6.487c-0.242,0-0.449-0.173-0.492-0.412c-0.024-0.132,0.005-0.264,0.082-0.374
		c0.076-0.109,0.191-0.183,0.322-0.206l0.213-0.038c2.908-0.533,4.43-1.399,4.43-1.978c0-0.308-0.519-0.848-1.982-1.357
		c-0.261-0.091-0.399-0.376-0.308-0.637c0.07-0.201,0.259-0.336,0.472-0.336c0.056,0,0.112,0.009,0.165,0.028
		C23.04,1.94,23.5,2.85,23.5,3.479c0,1.739-3.29,2.602-5.252,2.962l-0.215,0.039C18.003,6.485,17.974,6.487,17.945,6.487z"/>
	<path d="M14.878,1.104C13.948,1.035,12.979,1,12.001,1c-0.797,0-1.595,0.024-2.371,0.07c-0.005,0-0.026,0.001-0.03,0.001
		c-0.264,0-0.483-0.207-0.498-0.47C9.093,0.468,9.137,0.339,9.226,0.239c0.089-0.1,0.211-0.159,0.344-0.167
		C10.365,0.024,11.183,0,12.001,0c1.003,0,1.996,0.036,2.952,0.107c0.133,0.01,0.254,0.071,0.342,0.172
		c0.087,0.101,0.13,0.23,0.12,0.363c-0.019,0.26-0.238,0.463-0.498,0.463C14.91,1.106,14.885,1.105,14.878,1.104z"/>
	<path d="M1.124,3.53c-0.085,0-0.17-0.022-0.244-0.064c-0.24-0.135-0.327-0.44-0.192-0.68c0.407-0.728,1.475-1.345,3.174-1.834
		c0.045-0.013,0.092-0.02,0.139-0.02c0.221,0,0.419,0.149,0.48,0.362c0.037,0.128,0.022,0.263-0.043,0.38S4.266,1.877,4.138,1.914
		c-1.376,0.395-2.315,0.891-2.578,1.36C1.472,3.432,1.305,3.53,1.124,3.53z"/>
	<path d="M11.661,6.959c-2.234,0-4.478-0.225-6.668-0.67C4.862,6.262,4.749,6.186,4.675,6.075c-0.074-0.111-0.1-0.245-0.073-0.376
		c0.047-0.232,0.253-0.401,0.49-0.401c0.033,0,0.066,0.003,0.1,0.01c2.126,0.432,4.296,0.65,6.451,0.65l0.42,0
		c0.276,0,0.5,0.224,0.5,0.5s-0.224,0.5-0.5,0.5l-0.401,0H11.661z"/>
	<path d="M7,3C6.724,3,6.5,2.776,6.5,2.5V2H6C5.724,2,5.5,1.776,5.5,1.5S5.724,1,6,1h0.5V0.5C6.5,0.224,6.724,0,7,0
		s0.5,0.224,0.5,0.5V1H8c0.276,0,0.5,0.224,0.5,0.5S8.276,2,8,2H7.5v0.5C7.5,2.776,7.276,3,7,3z"/>
	<path d="M17.5,3C17.224,3,17,2.776,17,2.5V2h-0.5C16.224,2,16,1.776,16,1.5S16.224,1,16.5,1H17V0.5C17,0.224,17.224,0,17.5,0
		S18,0.224,18,0.5V1h0.5C18.776,1,19,1.224,19,1.5S18.776,2,18.5,2H18v0.5C18,2.776,17.776,3,17.5,3z"/>
	<path d="M15,8c-0.276,0-0.5-0.224-0.5-0.5V7H14c-0.276,0-0.5-0.224-0.5-0.5S13.724,6,14,6h0.5V5.5C14.5,5.224,14.724,5,15,5
		s0.5,0.224,0.5,0.5V6H16c0.276,0,0.5,0.224,0.5,0.5S16.276,7,16,7h-0.5v0.5C15.5,7.776,15.276,8,15,8z"/>
	<path d="M2,7C1.724,7,1.5,6.776,1.5,6.5V6H1C0.724,6,0.5,5.776,0.5,5.5S0.724,5,1,5h0.5V4.5C1.5,4.224,1.724,4,2,4
		s0.5,0.224,0.5,0.5V5H3c0.276,0,0.5,0.224,0.5,0.5S3.276,6,3,6H2.5v0.5C2.5,6.776,2.276,7,2,7z"/>
</g>
</svg>
