<?xml version="1.0" encoding="utf-8"?>
<!-- Generator: Adobe Illustrator 22.1.0, SVG Export Plug-In . SVG Version: 6.00 Build 0)  -->
<svg version="1.1" id="Light" xmlns="http://www.w3.org/2000/svg" xmlns:xlink="http://www.w3.org/1999/xlink" x="0px" y="0px"
	 viewBox="0 0 24 24" style="enable-background:new 0 0 24 24;" xml:space="preserve">
<g>
	<title>medical-condition-cough</title>
	<path d="M20.501,22c-0.276,0-0.5-0.224-0.5-0.5v-4.649c0-0.159,0.077-0.31,0.205-0.404c1.828-1.332,2.795-3.54,2.795-6.385
		c-0.025-4.366-3.599-7.92-7.968-7.92h-0.031c-6.537,0-8.038,4.524-9.775,9.763l-0.031,0.094L7.501,12c0.276,0,0.5,0.224,0.5,0.5V16
		c0,1.103,0.897,2,2,2h1.5c0.276,0,0.5,0.224,0.5,0.5v3c0,0.276-0.224,0.5-0.5,0.5s-0.5-0.224-0.5-0.5V19h-1c-1.654,0-3-1.346-3-3
		v-3H5.195c-0.268,0-0.519-0.105-0.707-0.294s-0.292-0.44-0.292-0.707c0-0.107,0.017-0.214,0.052-0.316l0.031-0.093
		C6.06,6.217,7.743,1.141,15.001,1.141l0.033,0c4.916,0,8.938,4,8.967,8.917c0,3.072-1.037,5.503-3,7.041v4.4
		C21.001,21.775,20.776,22,20.501,22z"/>
	<path d="M4.69,22.003c-0.197,0-0.383-0.076-0.524-0.214c-0.01-0.01-0.02-0.021-0.028-0.032c0,0-0.002-0.003-0.003-0.004
		c-0.263-0.302-0.253-0.744,0.019-1.022c0.003-0.003,0.006-0.006,0.009-0.008c0.141-0.14,0.328-0.217,0.528-0.217
		c0.195,0,0.379,0.074,0.519,0.209c0.007,0.007,0.014,0.014,0.021,0.021c0.279,0.289,0.279,0.753-0.004,1.041
		c-0.003,0.003-0.006,0.006-0.009,0.008C5.077,21.926,4.89,22.003,4.69,22.003z"/>
	<path d="M2.724,20.047c-0.178,0-0.35-0.064-0.487-0.181c-0.017-0.011-0.035-0.025-0.046-0.037
		c-0.292-0.288-0.295-0.761-0.007-1.055c0.004-0.004,0.022-0.021,0.027-0.024c0.015-0.014,0.025-0.022,0.034-0.029
		c0.004-0.003,0.008-0.005,0.012-0.008c0.132-0.104,0.296-0.16,0.465-0.16c0.177,0,0.346,0.062,0.481,0.174
		c0.015,0.009,0.032,0.021,0.049,0.039c0.143,0.141,0.222,0.328,0.223,0.527c0.002,0.199-0.075,0.387-0.215,0.53
		c-0.001,0.001-0.01,0.01-0.013,0.013C3.112,19.969,2.924,20.047,2.724,20.047z"/>
	<path d="M0.751,18.089c-0.198,0-0.384-0.075-0.525-0.213c-0.002-0.002-0.004-0.004-0.006-0.006
		c-0.292-0.291-0.292-0.766-0.001-1.058c0,0,0.002-0.002,0.003-0.003c0.141-0.139,0.329-0.216,0.529-0.216s0.387,0.077,0.528,0.216
		C1.422,16.953,1.5,17.141,1.5,17.341c0,0.2-0.077,0.388-0.218,0.529c-0.004,0.004-0.008,0.008-0.012,0.011
		C1.129,18.016,0.945,18.089,0.751,18.089z"/>
	<path d="M3.253,17.41c-0.2,0-0.387-0.077-0.528-0.216c-0.143-0.143-0.221-0.33-0.221-0.531c0-0.2,0.077-0.388,0.218-0.529
		c0.001-0.001,0.003-0.003,0.003-0.003c0.141-0.139,0.329-0.216,0.528-0.216s0.387,0.077,0.528,0.216
		c0.143,0.143,0.221,0.331,0.221,0.531c0,0.2-0.078,0.387-0.219,0.529c0,0-0.001,0.001-0.002,0.002
		C3.64,17.334,3.452,17.41,3.253,17.41z"/>
	<path d="M5.38,19.524c-0.181,0-0.354-0.066-0.491-0.185c-0.014-0.01-0.028-0.021-0.038-0.03c-0.143-0.14-0.222-0.327-0.224-0.526
		c-0.002-0.197,0.072-0.383,0.208-0.524c0.002-0.002,0.004-0.005,0.006-0.007c0.146-0.146,0.334-0.224,0.533-0.224
		c0.181,0,0.355,0.065,0.492,0.183c0.015,0.01,0.03,0.022,0.04,0.031c0.143,0.14,0.222,0.326,0.224,0.526
		c0.002,0.196-0.071,0.381-0.207,0.522c-0.004,0.005-0.009,0.01-0.013,0.015C5.769,19.447,5.58,19.524,5.38,19.524z"/>
	<path d="M5.553,17.234c-0.197,0-0.384-0.076-0.526-0.215c-0.002-0.002-0.005-0.005-0.005-0.005
		c-0.141-0.141-0.219-0.329-0.219-0.529c0-0.198,0.076-0.385,0.215-0.526c0.002-0.002,0.003-0.003,0.005-0.005
		c0.142-0.14,0.33-0.217,0.529-0.217s0.387,0.077,0.528,0.216c0.003,0.003,0.005,0.005,0.008,0.008
		c0.137,0.139,0.213,0.323,0.215,0.518c0.001,0.199-0.075,0.387-0.215,0.53c-0.001,0.001-0.02,0.02-0.028,0.026
		c-0.002,0.001-0.036,0.03-0.04,0.032C5.886,17.175,5.72,17.234,5.553,17.234z"/>
</g>
</svg>
