<?xml version="1.0" encoding="utf-8"?>
<!-- Generator: Adobe Illustrator 22.1.0, SVG Export Plug-In . SVG Version: 6.00 Build 0)  -->
<svg version="1.1" id="Light" xmlns="http://www.w3.org/2000/svg" xmlns:xlink="http://www.w3.org/1999/xlink" x="0px" y="0px"
	 viewBox="0 0 24 24" style="enable-background:new 0 0 24 24;" xml:space="preserve">
<g>
	<title>flower-pot</title>
	<path d="M12.167,8.5c-1.241,0-2.25-1.009-2.25-2.25S10.927,4,12.167,4s2.25,1.009,2.25,2.25S13.408,8.5,12.167,8.5z M12.167,5
		c-0.689,0-1.25,0.561-1.25,1.25s0.561,1.25,1.25,1.25c0.689,0,1.25-0.561,1.25-1.25S12.857,5,12.167,5z"/>
	<path d="M8.728,24c-1.149,0-2.146-0.779-2.425-1.894l-1.466-5.864c-0.133-0.535,0.193-1.079,0.728-1.212
		C5.647,15.009,5.728,15,5.807,15h4.81c-0.005-1.089,0.134-2.164,0.414-3.207c-0.301,0.109-0.619,0.165-0.942,0.165
		c-0.05,0-0.101-0.001-0.152-0.004c-0.741-0.041-1.421-0.367-1.916-0.92C7.527,10.482,7.277,9.77,7.318,9.029
		c0.025-0.45,0.156-0.88,0.381-1.261C7.601,7.726,7.505,7.677,7.412,7.623C6.771,7.251,6.313,6.651,6.123,5.935
		c-0.19-0.717-0.09-1.465,0.283-2.106C6.778,3.188,7.378,2.73,8.095,2.54C8.329,2.477,8.57,2.446,8.81,2.446
		c0.203,0,0.404,0.022,0.601,0.067c0.01-0.106,0.027-0.211,0.049-0.316c0.155-0.725,0.584-1.346,1.206-1.749
		c0.451-0.292,0.971-0.446,1.504-0.446c0.195,0,0.392,0.021,0.585,0.062c0.725,0.156,1.346,0.584,1.75,1.206
		c0.245,0.379,0.393,0.804,0.434,1.246c0.198-0.044,0.398-0.066,0.6-0.066c0.431,0,0.865,0.104,1.253,0.302
		c0.66,0.335,1.15,0.906,1.381,1.608c0.001,0.002,0.002,0.006,0.002,0.006c0.06,0.184,0.101,0.376,0.121,0.57
		c0.077,0.737-0.138,1.461-0.605,2.037c-0.284,0.35-0.642,0.622-1.048,0.798c0.055,0.093,0.105,0.19,0.149,0.29
		c0.299,0.677,0.317,1.431,0.049,2.123c-0.268,0.692-0.788,1.239-1.465,1.538c-0.358,0.158-0.736,0.239-1.122,0.239
		c-0.342,0-0.679-0.063-1.002-0.188c-0.364-0.141-0.69-0.355-0.963-0.63c-0.447,1.23-0.677,2.551-0.672,3.858h5.909
		c0.552,0,1,0.449,1,1c0,0.08-0.01,0.161-0.03,0.24l-1.467,5.865C16.752,23.221,15.755,24,14.605,24H8.728z M7.273,21.864
		C7.441,22.532,8.039,23,8.728,23h5.877c0.689,0,1.288-0.467,1.455-1.136L17.026,18H6.307L7.273,21.864z M17.276,17l0.25-1H5.808
		l0.25,1H17.276z M8.81,3.446c-0.154,0-0.308,0.02-0.459,0.06C7.892,3.628,7.509,3.921,7.27,4.331
		C7.032,4.741,6.968,5.22,7.09,5.678c0.122,0.458,0.415,0.842,0.825,1.08c0.219,0.127,0.457,0.205,0.709,0.231
		c0.196,0.02,0.363,0.155,0.424,0.343s0.005,0.395-0.142,0.527C8.552,8.175,8.343,8.61,8.317,9.084
		c-0.026,0.474,0.134,0.93,0.45,1.283c0.316,0.353,0.752,0.562,1.225,0.588c0.033,0.002,0.066,0.003,0.099,0.003
		c0.437,0,0.858-0.161,1.183-0.453c0.188-0.168,0.336-0.371,0.438-0.603c0.007-0.015,0.019-0.037,0.031-0.056
		c0.02-0.034,0.042-0.063,0.067-0.089c0.018-0.019,0.04-0.038,0.064-0.057c0.02-0.015,0.04-0.027,0.061-0.038
		c0.068-0.038,0.15-0.059,0.233-0.059c0.037,0,0.075,0.004,0.112,0.013c0.004,0.001,0.013,0.003,0.022,0.005
		c0.022,0.004,0.056,0.014,0.074,0.022c0.033,0.015,0.055,0.032,0.068,0.042c0.008,0.005,0.015,0.01,0.022,0.016
		c0.087,0.067,0.144,0.143,0.175,0.23c0.279,0.615,0.916,1.025,1.614,1.025c0.247,0,0.487-0.051,0.715-0.152
		c0.896-0.396,1.302-1.447,0.906-2.343c-0.103-0.232-0.25-0.435-0.439-0.605c-0.147-0.132-0.203-0.338-0.142-0.526
		c0.061-0.188,0.227-0.323,0.424-0.343c0.472-0.049,0.896-0.279,1.195-0.647c0.299-0.368,0.436-0.831,0.387-1.303
		c-0.013-0.124-0.039-0.247-0.077-0.365c-0.147-0.45-0.461-0.817-0.884-1.031c-0.253-0.128-0.522-0.193-0.802-0.193
		c-0.187,0-0.373,0.03-0.554,0.089c-0.116,0.038-0.229,0.088-0.335,0.149c-0.076,0.044-0.162,0.067-0.25,0.067
		c-0.106,0-0.208-0.033-0.294-0.096c-0.16-0.116-0.236-0.316-0.194-0.509c0.099-0.464,0.012-0.939-0.246-1.337
		c-0.258-0.398-0.655-0.672-1.119-0.772c-0.124-0.027-0.25-0.04-0.376-0.04c-0.34,0-0.672,0.099-0.961,0.286
		c-0.398,0.258-0.672,0.655-0.772,1.119c-0.053,0.247-0.053,0.497,0,0.744c0.041,0.194-0.035,0.393-0.195,0.51
		c-0.086,0.062-0.187,0.095-0.294,0.095c-0.088,0-0.175-0.023-0.251-0.068C9.427,3.529,9.119,3.446,8.81,3.446z"/>
</g>
</svg>
