<?xml version="1.0" encoding="utf-8"?>
<!-- Generator: Adobe Illustrator 22.1.0, SVG Export Plug-In . SVG Version: 6.00 Build 0)  -->
<svg version="1.1" id="Light" xmlns="http://www.w3.org/2000/svg" xmlns:xlink="http://www.w3.org/1999/xlink" x="0px" y="0px"
	 viewBox="0 0 24 24" style="enable-background:new 0 0 24 24;" xml:space="preserve">
<g>
	<title>flower-2</title>
	<path d="M11.75,24c-4.135,0-7.5-3.365-7.5-7.5c0-0.276,0.224-0.5,0.5-0.5c2.728,0,5.175,1.445,6.5,3.76v-5.031
		c-0.214,0.234-0.463,0.434-0.739,0.594c-0.481,0.279-1.028,0.426-1.582,0.426c-1.128,0-2.179-0.604-2.742-1.577
		c-0.424-0.731-0.538-1.583-0.32-2.4c0.076-0.286,0.189-0.555,0.337-0.804c-0.712-0.073-1.38-0.375-1.909-0.868
		C3.651,9.499,3.28,8.685,3.25,7.806c0-0.491,0.11-0.973,0.319-1.403c0.37-0.762,1.015-1.333,1.816-1.61
		C5.637,4.707,5.897,4.652,6.159,4.63c-0.249-0.443-0.39-0.943-0.405-1.447c0-0.855,0.329-1.653,0.928-2.252
		C7.281,0.33,8.076,0,8.921,0c1.074,0,2.069,0.55,2.649,1.433c0.137-0.217,0.3-0.418,0.489-0.6c0.593-0.57,1.375-0.885,2.203-0.885
		l0.053,0c0.847,0.016,1.635,0.361,2.222,0.971c0.586,0.61,0.9,1.411,0.884,2.257c-0.005,0.489-0.125,0.961-0.35,1.389
		c1.726,0.079,3.109,1.458,3.179,3.203c0,1.501-0.805,2.286-1.48,2.681c-0.497,0.291-1.122,0.478-1.756,0.529
		c0.285,0.483,0.433,1.041,0.422,1.611c-0.001,1.741-1.424,3.163-3.173,3.164c-0.744,0-1.448-0.253-2.013-0.719v4.725
		c1.325-2.315,3.772-3.76,6.5-3.76c0.276,0,0.5,0.224,0.5,0.5C19.25,20.636,15.885,24,11.75,24z M18.229,17.021
		c-3.161,0.253-5.706,2.798-5.959,5.959C15.431,22.727,17.976,20.181,18.229,17.021z M5.27,17.021
		c0.253,3.161,2.798,5.706,5.958,5.959C10.976,19.819,8.431,17.273,5.27,17.021z M11.587,12.081c0.275,0,0.5,0.224,0.5,0.499
		c0,0.246,0.043,0.487,0.125,0.722c0.114,0.318,0.285,0.588,0.512,0.816c0.41,0.41,0.956,0.636,1.536,0.636
		c1.199-0.001,2.174-0.976,2.174-2.173c0.014-0.772-0.393-1.478-1.062-1.847l-0.031-0.017c-0.238-0.134-0.324-0.437-0.193-0.676
		c0.088-0.16,0.256-0.26,0.439-0.26c0.082,0,0.163,0.021,0.236,0.059l0.027,0.015c0.165,0.086,0.468,0.139,0.806,0.139
		c0.579,0,1.165-0.148,1.607-0.407c0.663-0.388,0.986-0.976,0.986-1.798c-0.05-1.223-1.099-2.227-2.34-2.227
		c-0.031,0-0.062,0-0.093,0.002c-0.345,0.014-0.69,0.106-0.996,0.268c-0.072,0.038-0.152,0.057-0.233,0.057
		c-0.184,0-0.353-0.101-0.441-0.263c-0.129-0.242-0.039-0.544,0.201-0.675c0.655-0.357,1.066-1.042,1.073-1.788
		c0.011-0.583-0.204-1.132-0.605-1.549c-0.401-0.417-0.941-0.653-1.52-0.664l-0.063-0.001c-1.16,0-2.122,0.953-2.145,2.126v0.094
		c0,0.273-0.222,0.497-0.495,0.5c-0.275,0-0.5-0.219-0.505-0.489l0-0.064C11.062,1.951,10.091,1,8.921,1
		C7.726,1,6.754,1.972,6.754,3.167c0.022,0.731,0.437,1.419,1.082,1.788C8.071,5.09,8.156,5.383,8.03,5.623
		C7.943,5.787,7.773,5.889,7.587,5.889c-0.075,0-0.151-0.017-0.218-0.05c-0.3-0.146-0.619-0.22-0.948-0.22
		c-0.241,0-0.48,0.04-0.711,0.12C5.163,5.928,4.722,6.32,4.468,6.841C4.325,7.135,4.25,7.463,4.25,7.789
		c0.021,0.598,0.279,1.162,0.726,1.579c0.426,0.398,0.978,0.617,1.553,0.617c0.03,0,0.059-0.001,0.089-0.002
		C6.888,9.974,7.151,9.919,7.4,9.818c0.06-0.024,0.123-0.036,0.187-0.036c0.192,0,0.365,0.107,0.449,0.28
		c0.115,0.235,0.028,0.522-0.198,0.653c-0.5,0.29-0.857,0.757-1.006,1.316c-0.149,0.558-0.071,1.141,0.219,1.641
		c0.385,0.666,1.104,1.079,1.876,1.079c0.379,0,0.752-0.101,1.081-0.292c0.666-0.386,1.079-1.104,1.079-1.873
		C11.088,12.306,11.312,12.082,11.587,12.081C11.587,12.081,11.587,12.081,11.587,12.081z"/>
	<path d="M11.567,10.578c-1.379,0-2.5-1.121-2.5-2.5s1.121-2.5,2.5-2.5s2.5,1.121,2.5,2.5S12.945,10.578,11.567,10.578z
		 M11.567,6.578c-0.827,0-1.5,0.673-1.5,1.5s0.673,1.5,1.5,1.5c0.827,0,1.5-0.673,1.5-1.5S12.394,6.578,11.567,6.578z"/>
</g>
</svg>
