<?xml version="1.0" encoding="utf-8"?>
<!-- Generator: Adobe Illustrator 22.1.0, SVG Export Plug-In . SVG Version: 6.00 Build 0)  -->
<svg version="1.1" id="Light" xmlns="http://www.w3.org/2000/svg" xmlns:xlink="http://www.w3.org/1999/xlink" x="0px" y="0px"
	 viewBox="0 0 24 24" style="enable-background:new 0 0 24 24;" xml:space="preserve">
<g>
	<title>fishing-bait-fish</title>
	<path d="M8.949,20.997c-3.575,0-6.883-1.039-8.634-2.713c-0.2-0.192-0.315-0.461-0.315-0.737c0-0.273,0.106-0.53,0.299-0.724
		c0.193-0.193,0.45-0.3,0.723-0.3h2.039c0,0,0.022-0.022,0.022-0.022l-2.371-2.616c-0.014-0.015-0.033-0.037-0.05-0.059
		c-0.169-0.218-0.242-0.486-0.208-0.757c0.034-0.271,0.172-0.512,0.387-0.679c2.267-1.509,4.877-2.301,7.564-2.301
		c0.187,0,0.375,0.004,0.563,0.011c0,0,0.001,0,0.001,0c3.847,0,9.117,1.247,10.907,3.262l0.187,0.199l-0.156-0.195l2.377-1.9
		c0.18-0.145,0.407-0.225,0.638-0.225c0.111,0,0.221,0.018,0.327,0.054c0.259,0.087,0.468,0.269,0.589,0.514
		c0.122,0.245,0.141,0.522,0.054,0.78l-0.778,2.323c-0.114,0.344-0.107,0.721,0.02,1.061l0.8,2.123
		c0.107,0.288,0.081,0.605-0.072,0.87c-0.136,0.236-0.356,0.406-0.62,0.477c-0.087,0.023-0.177,0.036-0.267,0.036l0,0
		c-0.178,0-0.354-0.048-0.509-0.137l-2.636-1.52c0,0-0.028,0.005-0.028,0.005C18.006,19.784,12.77,20.997,8.949,20.997z
		 M1.007,17.562c1.571,1.502,4.615,2.435,7.942,2.435c3.624,0,8.554-1.144,10.116-2.847c0.194-0.211,0.469-0.333,0.753-0.333
		c0.178,0,0.355,0.047,0.511,0.137l2.637,1.521l0.247,0.116l-0.217-0.125l-0.798-2.142c-0.208-0.554-0.219-1.168-0.033-1.729
		l0.779-2.324c0.004-0.012-0.002-0.025-0.014-0.029l-2.399,1.905c-0.181,0.144-0.407,0.223-0.638,0.223
		c-0.293,0-0.572-0.126-0.765-0.345c-1.555-1.75-6.519-2.926-10.18-2.926c-0.186-0.007-0.361-0.011-0.536-0.011
		c-2.482,0-4.887,0.724-6.958,2.093l2.365,2.63c0.184,0.203,0.278,0.465,0.264,0.738c-0.014,0.273-0.133,0.524-0.335,0.708
		c-0.188,0.17-0.431,0.264-0.685,0.265h-2.04c-0.006,0-0.011,0.002-0.016,0.007l-0.173,0.213L1.007,17.562z"/>
	<circle cx="5.531" cy="14" r="0.75"/>
	<path d="M5.005,7.001c-1.898,0-3.696-0.92-4.81-2.46c-0.01-0.014-0.02-0.029-0.029-0.045c-0.085-0.148-0.13-0.318-0.132-0.489
		c-0.002-0.268,0.101-0.52,0.288-0.71C0.511,3.107,0.761,3.001,1.028,3h20.931c1.103,0,2,0.897,2,2s-0.897,2-2,2H5.123
		C5.088,7.001,5.046,7.001,5.005,7.001z M1.038,4c0.929,1.254,2.403,2.002,3.953,2.002c0.04,0,0.081,0,0.121-0.001L14,6V4H1.038z
		 M21.959,6c0.552,0,1-0.449,1-1s-0.448-1-1-1H15v2H21.959z"/>
</g>
</svg>
