<?xml version="1.0" encoding="utf-8"?>
<!-- Generator: Adobe Illustrator 22.1.0, SVG Export Plug-In . SVG Version: 6.00 Build 0)  -->
<svg version="1.1" id="Light" xmlns="http://www.w3.org/2000/svg" xmlns:xlink="http://www.w3.org/1999/xlink" x="0px" y="0px"
	 viewBox="0 0 24 24" style="enable-background:new 0 0 24 24;" xml:space="preserve">
<g>
	<title>fishing-catch</title>
	<path d="M3.499,7c-0.276,0-0.5-0.224-0.5-0.5S3.223,6,3.499,6h13c0.276,0,0.5,0.224,0.5,0.5S16.774,7,16.499,7H3.499z"/>
	<path d="M3.499,4c-0.276,0-0.5-0.224-0.5-0.5S3.223,3,3.499,3h17c0.276,0,0.5,0.224,0.5,0.5S20.774,4,20.499,4H3.499z"/>
	<path d="M3.499,1c-0.276,0-0.5-0.224-0.5-0.5S3.223,0,3.499,0h17c0.276,0,0.5,0.224,0.5,0.5S20.774,1,20.499,1H3.499z"/>
	<path d="M13.294,24c-3.875,0-7.278-2.063-9.039-3.365L1.528,22.18c-0.153,0.087-0.327,0.133-0.502,0.133
		c-0.369,0-0.711-0.199-0.892-0.519c-0.175-0.309-0.178-0.68-0.008-0.992l0.678-1.247c0.259-0.477,0.259-1.046,0-1.522l-0.678-1.244
		c-0.269-0.498-0.083-1.12,0.413-1.388c0.15-0.081,0.318-0.123,0.486-0.123c0.175,0,0.349,0.046,0.502,0.132l2.734,1.546
		c0.17-0.124,0.363-0.26,0.585-0.412l-0.219-1.532c-0.039-0.271,0.03-0.54,0.194-0.759c0.164-0.219,0.403-0.36,0.674-0.399
		c0.048-0.007,0.096-0.01,0.144-0.01c0.245,0,0.481,0.087,0.667,0.246l1.115,0.955c0.591-0.283,1.204-0.533,1.825-0.742l0.235-1.649
		c0.039-0.271,0.18-0.51,0.399-0.674c0.179-0.134,0.39-0.205,0.612-0.205c0.049,0,0.098,0.004,0.147,0.011
		c0.27,0.038,0.509,0.18,0.673,0.399l1.088,1.45c0.295-0.027,0.592-0.042,0.885-0.046c0.269,0.002,0.538,0.013,0.805,0.033
		l0.152-1.816c0.023-0.274,0.152-0.521,0.362-0.697c0.184-0.155,0.417-0.24,0.657-0.24c0.03,0,0.06,0.001,0.09,0.004
		c0.297,0.026,0.567,0.179,0.741,0.421l2.482,3.473c1.849,0.823,3.556,1.918,5.075,3.257c0.203,0.176,0.326,0.423,0.346,0.695
		c0.02,0.272-0.068,0.534-0.246,0.74c-0.029,0.033-0.058,0.063-0.09,0.092c-0.252,0.223-0.655,0.565-1.17,0.955l-0.679,2.818
		c-0.046,0.196-0.167,0.364-0.34,0.471c-0.121,0.075-0.259,0.115-0.4,0.115c-0.059,0-0.118-0.007-0.176-0.021
		c-0.246-0.058-0.447-0.234-0.537-0.471l-0.474-1.227c-2.013,1.117-4.282,1.741-6.582,1.809C13.299,24,13.297,24,13.294,24z
		 M4.294,19.539c0.109,0,0.217,0.037,0.304,0.103C6.236,20.896,9.543,23,13.287,23c2.319-0.068,4.601-0.747,6.591-1.963
		c0.079-0.048,0.169-0.073,0.261-0.073c0.054,0,0.108,0.009,0.16,0.026c0.142,0.048,0.253,0.155,0.306,0.294l0.401,1.038
		l0.554-2.227c0.028-0.113,0.094-0.213,0.188-0.283c0.554-0.412,0.984-0.775,1.246-1.008c0,0-0.003-0.028-0.004-0.028
		c-1.476-1.302-3.139-2.361-4.942-3.148c-0.083-0.036-0.155-0.095-0.207-0.168c0,0-2.56-3.582-2.561-3.582
		c-0.002,0-0.034-0.002-0.034-0.002l-0.202,2.335c-0.011,0.134-0.077,0.26-0.182,0.346c-0.091,0.073-0.203,0.113-0.317,0.113
		c-0.02,0-0.04-0.001-0.059-0.003c-0.397-0.048-0.8-0.074-1.199-0.076c-0.346,0.004-0.705,0.028-1.06,0.07
		c-0.018,0.002-0.039,0.004-0.061,0.004c-0.155,0-0.303-0.075-0.397-0.201c0,0-1.258-1.677-1.258-1.677
		c-0.001,0-0.032-0.004-0.032-0.004l-0.288,1.972c-0.027,0.189-0.162,0.348-0.344,0.406c-0.78,0.246-1.546,0.558-2.276,0.927
		c-0.07,0.035-0.148,0.054-0.226,0.054c-0.12,0-0.235-0.043-0.326-0.121l-1.365-1.17l-0.033,0.004l0.259,1.858
		c0.027,0.189-0.058,0.379-0.216,0.486c-0.318,0.214-0.727,0.494-1.062,0.751c-0.086,0.067-0.194,0.104-0.304,0.104
		c-0.086,0-0.172-0.023-0.247-0.065L1.036,16.28c-0.033,0.006-0.037,0.02-0.031,0.031l0.677,1.242c0.422,0.776,0.422,1.702,0,2.478
		l-0.678,1.247l0.021,0.034l3.023-1.709C4.122,19.562,4.208,19.539,4.294,19.539z"/>
	<circle cx="19.299" cy="18.272" r="0.75"/>
</g>
</svg>
