<?xml version="1.0" encoding="utf-8"?>
<!-- Generator: Adobe Illustrator 22.1.0, SVG Export Plug-In . SVG Version: 6.00 Build 0)  -->
<svg version="1.1" id="Light" xmlns="http://www.w3.org/2000/svg" xmlns:xlink="http://www.w3.org/1999/xlink" x="0px" y="0px"
	 viewBox="0 0 24 24" style="enable-background:new 0 0 24 24;" xml:space="preserve">
<g>
	<title>fishing-hook-fish</title>
	<path d="M5.051,24c-2.206,0-4-1.794-4-4v-6.5c0-0.276,0.224-0.5,0.5-0.5s0.5,0.224,0.5,0.5V20c0,1.654,1.346,3,3,3s3-1.346,3-3
		v-2.066l-0.722,0.482C7.246,18.471,7.15,18.5,7.052,18.5c-0.168,0-0.324-0.083-0.416-0.222c-0.074-0.111-0.1-0.244-0.074-0.375
		c0.026-0.131,0.102-0.244,0.213-0.318l0.722-0.482c0.165-0.11,0.356-0.168,0.555-0.168c0.335,0,0.646,0.166,0.832,0.444
		c0.11,0.166,0.169,0.358,0.169,0.557V20C9.051,22.206,7.257,24,5.051,24z"/>
	<path d="M2.551,12.5c-0.134,0-0.259-0.052-0.354-0.146l-2-2C0.103,10.259,0.051,10.134,0.051,10s0.052-0.259,0.146-0.354
		S0.418,9.5,0.551,9.5S0.81,9.552,0.905,9.646l2,2c0.094,0.094,0.146,0.22,0.146,0.354s-0.052,0.259-0.146,0.354
		S2.685,12.5,2.551,12.5z"/>
	<path d="M2.551,9.5c-0.134,0-0.259-0.052-0.354-0.146l-2-2C0.103,7.259,0.051,7.134,0.051,7s0.052-0.259,0.146-0.354
		S0.418,6.5,0.551,6.5S0.81,6.552,0.905,6.646l2,2C2.999,8.741,3.051,8.866,3.051,9S2.999,9.259,2.905,9.354S2.685,9.5,2.551,9.5z"
		/>
	<path d="M2.551,6.5c-0.134,0-0.259-0.052-0.354-0.146l-2-2C0.103,4.259,0.051,4.134,0.051,4s0.052-0.259,0.146-0.354
		S0.418,3.5,0.551,3.5S0.81,3.552,0.905,3.646l2,2C2.999,5.741,3.051,5.866,3.051,6S2.999,6.259,2.905,6.354S2.685,6.5,2.551,6.5z"
		/>
	<path d="M1.551,3c-0.276,0-0.5-0.224-0.5-0.5v-2c0-0.276,0.224-0.5,0.5-0.5s0.5,0.224,0.5,0.5v2C2.051,2.776,1.827,3,1.551,3z"/>
	<path d="M18.049,6.867c-0.199,0-0.386-0.077-0.527-0.217c-0.135-0.134-0.213-0.312-0.22-0.502c-0.001-0.01-0.002-0.021-0.002-0.031
		c0-0.414,0.336-0.75,0.75-0.75c0.415,0,0.751,0.336,0.751,0.75c0,0.012-0.001,0.025-0.003,0.038
		c-0.022,0.396-0.35,0.711-0.744,0.712c0,0-0.001,0-0.002,0H18.049z"/>
	<path d="M18.051,10.616c-1.203,0-2.333-0.467-3.182-1.316c-0.094-0.094-0.146-0.22-0.146-0.354c0-0.134,0.052-0.259,0.146-0.354
		s0.22-0.146,0.354-0.146s0.259,0.052,0.354,0.146c0.66,0.66,1.539,1.023,2.475,1.023s1.815-0.363,2.475-1.023
		c0.094-0.094,0.22-0.146,0.354-0.146s0.259,0.052,0.354,0.146s0.146,0.22,0.146,0.354S21.328,9.205,21.233,9.3
		C20.384,10.148,19.254,10.616,18.051,10.616z"/>
	<path d="M15.099,23c-0.271-0.001-0.525-0.107-0.715-0.299s-0.294-0.446-0.293-0.715c0-0.058,0.006-0.118,0.016-0.177
		c0.179-1.048,0.758-1.967,1.63-2.584c0.376-0.266,0.786-0.462,1.225-0.584c-3.419-3.409-5.029-6.63-4.785-9.579
		c0.225-2.716,2.011-5.203,5.308-7.394c0.172-0.11,0.367-0.167,0.566-0.167c0.198,0,0.39,0.056,0.555,0.162
		c3.304,2.194,5.091,4.682,5.316,7.399c0.244,2.949-1.365,6.171-4.785,9.579c1.469,0.415,2.593,1.646,2.854,3.176
		c0.048,0.261-0.01,0.528-0.164,0.75c-0.154,0.222-0.384,0.37-0.65,0.418C21.122,22.994,21.061,23,20.999,23H15.099z M17.974,19.491
		c-0.597,0.014-1.17,0.204-1.658,0.55c-0.654,0.463-1.089,1.153-1.224,1.943L20.999,22c-0.207-1.267-1.192-2.254-2.445-2.468
		c-0.134-0.023-0.279-0.036-0.441-0.039C18.1,19.496,18.077,19.5,18.05,19.5C18.02,19.5,17.994,19.496,17.974,19.491z M18.052,2.5
		c-0.007,0-0.014,0.002-0.02,0.006c-3.023,2.008-4.659,4.242-4.858,6.638c-0.228,2.752,1.413,5.836,4.876,9.167
		c3.464-3.332,5.104-6.415,4.876-9.167c-0.198-2.396-1.835-4.631-4.865-6.643L18.052,2.5z"/>
</g>
</svg>
