<?xml version="1.0" encoding="utf-8"?>
<!-- Generator: Adobe Illustrator 22.1.0, SVG Export Plug-In . SVG Version: 6.00 Build 0)  -->
<svg version="1.1" id="Light" xmlns="http://www.w3.org/2000/svg" xmlns:xlink="http://www.w3.org/1999/xlink" x="0px" y="0px"
	 viewBox="0 0 24 24" style="enable-background:new 0 0 24 24;" xml:space="preserve">
<g>
	<title>fishing-lure</title>
	<path d="M6.832,23.694c-0.804,0-1.559-0.314-2.124-0.884c-0.71-0.716-1.004-1.742-0.805-2.716c-0.195,0.04-0.394,0.06-0.593,0.06
		c-0.803,0-1.556-0.313-2.123-0.88c-0.567-0.567-0.878-1.321-0.878-2.122c0-0.801,0.313-1.555,0.88-2.121l2.458-2.452
		c0.095-0.094,0.22-0.146,0.353-0.146c0.134,0,0.26,0.052,0.354,0.147c0.094,0.094,0.146,0.22,0.146,0.353
		c0,0.134-0.052,0.259-0.147,0.354l-2.458,2.451c-0.378,0.377-0.586,0.88-0.586,1.414c0,0.535,0.208,1.037,0.585,1.415
		c0.378,0.378,0.88,0.586,1.415,0.587c0.535,0,1.037-0.208,1.415-0.585l3.019-3.019c-0.051-0.598-0.147-2.212,0.087-4.173
		c0.272-2.275,1.061-5.454,3.281-7.673c0.107-0.107,0.216-0.211,0.327-0.311c0.006-0.008,0.013-0.016,0.019-0.022
		c0.02-0.02,0.04-0.034,0.054-0.043c2.972-2.635,7.359-3.029,9.712-3.029c0.649,0,1.174,0.029,1.501,0.054
		c0.491,0.038,0.887,0.437,0.921,0.928c0.126,1.82,0.254,8.041-3.39,11.688c-2.22,2.221-5.388,2.989-7.654,3.243
		c-0.771,0.086-1.564,0.13-2.359,0.13c-0.834,0-1.475-0.049-1.796-0.08l-3.014,3.014c-0.381,0.377-0.591,0.879-0.593,1.413
		c-0.002,0.534,0.204,1.037,0.58,1.417c0.378,0.381,0.882,0.591,1.42,0.591c0.532,0,1.032-0.206,1.408-0.579l2.467-2.467
		c0.094-0.094,0.22-0.146,0.354-0.146s0.259,0.052,0.354,0.146c0.195,0.195,0.195,0.512,0,0.707l-2.453,2.453
		C8.393,23.381,7.635,23.694,6.832,23.694z M8.726,15.281c0.328,0.026,0.842,0.055,1.484,0.055c2.339,0,6.661-0.399,9.336-3.074
		c0.017-0.017,0.034-0.034,0.05-0.051l-7.794-7.786C8.469,7.777,8.616,13.664,8.726,15.281z M20.254,11.452
		c2.63-3.427,2.499-8.579,2.393-10.102c-0.31-0.024-0.811-0.052-1.432-0.052c-2.088,0-5.941,0.325-8.661,2.463L20.254,11.452z"/>
	<path d="M18.866,6.425c-0.534,0-1.036-0.207-1.413-0.584c-0.378-0.378-0.586-0.88-0.587-1.414c0-0.534,0.208-1.037,0.585-1.414
		c0.377-0.378,0.88-0.586,1.415-0.586c0.534,0,1.036,0.207,1.414,0.584c0.779,0.781,0.78,2.049,0.002,2.828
		C19.904,6.216,19.402,6.425,18.866,6.425z M18.866,3.425c-0.267,0-0.518,0.104-0.707,0.293c-0.189,0.189-0.293,0.44-0.293,0.707
		s0.104,0.518,0.293,0.707c0.189,0.189,0.439,0.292,0.707,0.292c0.268,0,0.519-0.104,0.707-0.293c0.389-0.39,0.389-1.024,0-1.413
		C19.385,3.53,19.133,3.425,18.866,3.425l0-0.25L18.866,3.425z"/>
</g>
</svg>
