<?xml version="1.0" encoding="utf-8"?>
<!-- Generator: Adobe Illustrator 22.1.0, SVG Export Plug-In . SVG Version: 6.00 Build 0)  -->
<svg version="1.1" id="Light" xmlns="http://www.w3.org/2000/svg" xmlns:xlink="http://www.w3.org/1999/xlink" x="0px" y="0px"
	 viewBox="0 0 24 24" style="enable-background:new 0 0 24 24;" xml:space="preserve">
<g>
	<title>fishing-line</title>
	<path d="M3.068,23.982c-0.827,0-1.5-0.673-1.5-1.5v-4.5c0-0.55,0.446-0.998,0.996-1C2.488,6.14,7.109,1.423,9.871,0.344
		c0.542-0.212,1.069-0.319,1.568-0.319c0.814,0,1.497,0.284,1.973,0.823c1.066,1.203,0.88,3.374-0.508,5.955
		c-2.043,3.797-1.804,6.225-0.718,6.875c0.221,0.132,0.484,0.199,0.781,0.199c0,0,0,0,0,0c1.008,0,2.637-0.833,4.185-3.171
		c0.939-1.418,2.131-2.231,3.271-2.231c0.395,0,0.765,0.105,1.071,0.303c1.893,1.229,0.738,4.545-0.83,7.02
		c-0.107,0.286,0.011,0.608,0.28,0.756c0.013,0.007,0.025,0.013,0.038,0.019c0.05,0.022,0.105,0.034,0.161,0.034
		c0.049,0,0.097-0.009,0.143-0.027c0.1-0.039,0.179-0.113,0.222-0.211c0.081-0.181,0.26-0.297,0.457-0.297
		c0.07,0,0.138,0.014,0.203,0.043c0.122,0.054,0.216,0.153,0.264,0.277c0.048,0.125,0.045,0.26-0.01,0.382
		c-0.152,0.342-0.427,0.604-0.777,0.739c-0.162,0.062-0.332,0.094-0.504,0.094l0,0c-0.196,0-0.387-0.041-0.568-0.121
		c-0.039-0.017-0.076-0.036-0.114-0.057c-0.736-0.404-1.038-1.291-0.7-2.062c0.01-0.023,0.022-0.046,0.036-0.068
		c2.126-3.337,1.854-5.226,1.153-5.682c-0.144-0.093-0.319-0.141-0.521-0.141c-0.61,0-1.572,0.468-2.441,1.782
		c-1.522,2.3-3.35,3.619-5.014,3.619c-0.485,0-0.922-0.115-1.3-0.341c-1.418-0.848-2.177-3.506,0.351-8.206
		c1.144-2.126,1.389-3.973,0.64-4.818c-0.281-0.318-0.705-0.485-1.227-0.485c-0.373,0-0.777,0.084-1.202,0.25
		C7.71,2.262,3.488,6.679,3.564,16.982h0.004c0.048,0,0.096,0.004,0.143,0.011c0.434-1.47,1.805-2.511,3.357-2.511
		c1.93,0,3.5,1.57,3.5,3.5s-1.57,3.5-3.5,3.5c-0.955,0-1.848-0.385-2.5-1.055v2.055C4.568,23.309,3.896,23.982,3.068,23.982z
		 M2.568,22.482c0,0.276,0.224,0.5,0.5,0.5s0.5-0.224,0.5-0.5v-4.5h-1L2.568,22.482z M7.068,15.482c-1.379,0-2.5,1.122-2.5,2.5
		s1.121,2.5,2.5,2.5s2.5-1.122,2.5-2.5S8.447,15.482,7.068,15.482z"/>
	<path d="M7.068,19.482c-0.827,0-1.5-0.673-1.5-1.5s0.673-1.5,1.5-1.5s1.5,0.673,1.5,1.5S7.896,19.482,7.068,19.482z M7.068,17.482
		c-0.276,0-0.5,0.224-0.5,0.5s0.224,0.5,0.5,0.5s0.5-0.224,0.5-0.5S7.344,17.482,7.068,17.482z"/>
</g>
</svg>
