<?xml version="1.0" encoding="utf-8"?>
<!-- Generator: Adobe Illustrator 22.1.0, SVG Export Plug-In . SVG Version: 6.00 Build 0)  -->
<svg version="1.1" id="Light" xmlns="http://www.w3.org/2000/svg" xmlns:xlink="http://www.w3.org/1999/xlink" x="0px" y="0px"
	 viewBox="0 0 24 24" style="enable-background:new 0 0 24 24;" xml:space="preserve">
<g>
	<title>season-autumn</title>
	<path d="M14.019,23.859c-0.04,0-0.08-0.005-0.12-0.014c-0.13-0.032-0.24-0.113-0.309-0.227c-0.069-0.115-0.089-0.249-0.057-0.378
		c0.186-0.752,0.474-1.48,0.856-2.167c-0.586-0.725-0.916-1.626-0.931-2.555c-0.038-2.306,1.807-4.213,4.113-4.25h0.135
		c1.502-0.096,2.966-0.498,4.333-1.194c0.148-0.071,0.292-0.103,0.441-0.103c0.384,0,0.739,0.223,0.904,0.569
		c0.074,0.155,0.107,0.327,0.095,0.498c-0.546,7.756-4.223,8.593-5.779,8.593l-0.065,0c-0.899,0-1.775-0.295-2.496-0.836
		c-0.278,0.542-0.492,1.108-0.635,1.686C14.449,23.703,14.249,23.859,14.019,23.859z M15.654,20.927
		c0.565,0.454,1.262,0.702,1.985,0.702l0.054,0c1.28,0,4.302-0.747,4.789-7.662c-1.481,0.756-3.082,1.193-4.75,1.298l-0.146,0.001
		c-0.847,0.014-1.64,0.358-2.231,0.97s-0.91,1.416-0.896,2.264c0.01,0.598,0.184,1.168,0.507,1.666
		c0.964-1.333,2.261-2.365,3.769-2.996c0.062-0.026,0.127-0.039,0.193-0.039c0.202,0,0.383,0.121,0.461,0.307
		c0.106,0.254-0.014,0.548-0.268,0.655C17.716,18.68,16.522,19.658,15.654,20.927z"/>
	<path d="M12.064,23.859c-0.276,0-0.5-0.224-0.5-0.5v-4.927c-1.35,0.643-2.839,0.98-4.332,0.98c-0.704,0-1.412-0.074-2.103-0.221
		c-0.538-0.112-0.885-0.642-0.774-1.182c0.058-0.281,0.234-0.523,0.484-0.666l1.494-0.853c-2.32-0.887-3.98-2.473-4.94-4.72
		C0.502,9.684,0.494,7.584,0.531,6.778c0.021-0.513,0.425-0.924,0.94-0.955c0.301-0.031,0.618-0.047,0.931-0.047
		c2.094,0,4.113,0.716,5.738,2.026c0.273-2.578,1.17-5.069,2.608-7.231c0.203-0.272,0.499-0.422,0.82-0.422
		c0.216,0,0.422,0.069,0.596,0.199c0.075,0.057,0.143,0.124,0.2,0.199c1.451,2.18,2.351,4.676,2.624,7.255
		c1.626-1.31,3.646-2.026,5.74-2.026c0.316,0,0.636,0.016,0.952,0.049c0.499,0.027,0.899,0.438,0.921,0.956
		c0.087,1.805-0.257,3.635-0.994,5.288c-0.08,0.18-0.259,0.297-0.457,0.297c-0.07,0-0.138-0.014-0.202-0.043
		c-0.123-0.055-0.217-0.153-0.264-0.278c-0.048-0.125-0.044-0.261,0.01-0.382c0.673-1.511,0.987-3.184,0.908-4.836
		c-0.295-0.033-0.581-0.048-0.864-0.048c-2.201,0-4.267,0.864-5.818,2.433c-0.093,0.094-0.223,0.149-0.355,0.149
		c-0.062,0-0.123-0.012-0.181-0.034c-0.185-0.072-0.31-0.247-0.318-0.446c-0.113-2.754-0.976-5.424-2.497-7.723
		c-1.524,2.282-2.391,4.958-2.504,7.724C9.055,9.078,8.93,9.253,8.744,9.325c-0.057,0.022-0.118,0.034-0.18,0.034
		c-0.133,0-0.263-0.054-0.356-0.149C6.658,7.641,4.595,6.776,2.399,6.776c-0.281,0-0.566,0.015-0.847,0.043
		c-0.102,1.72,0.104,7.445,6.141,9.06c0.196,0.052,0.34,0.217,0.367,0.418s-0.071,0.397-0.248,0.499l-2.477,1.415
		c0.624,0.133,1.262,0.2,1.897,0.2c1.605,0,3.189-0.429,4.58-1.242c0.077-0.045,0.164-0.068,0.252-0.068
		c0.087,0,0.173,0.023,0.249,0.067c0.154,0.088,0.251,0.254,0.251,0.433v5.757C12.564,23.634,12.34,23.859,12.064,23.859z"/>
</g>
</svg>
