<?xml version="1.0" encoding="utf-8"?>
<!-- Generator: Adobe Illustrator 22.1.0, SVG Export Plug-In . SVG Version: 6.00 Build 0)  -->
<svg version="1.1" id="Light" xmlns="http://www.w3.org/2000/svg" xmlns:xlink="http://www.w3.org/1999/xlink" x="0px" y="0px"
	 viewBox="0 0 24 24" style="enable-background:new 0 0 24 24;" xml:space="preserve">
<g>
	<title>season-winter</title>
	<path d="M13.837,24c-0.04,0-0.08-0.005-0.12-0.014c-0.13-0.032-0.24-0.113-0.309-0.227c-0.069-0.115-0.089-0.249-0.057-0.378
		c0.191-0.77,0.486-1.512,0.879-2.21c-0.578-0.736-0.895-1.645-0.895-2.578c0-2.306,1.876-4.182,4.182-4.182
		c1.507-0.096,2.972-0.499,4.34-1.196c0.147-0.071,0.292-0.103,0.441-0.103c0.384,0,0.739,0.223,0.904,0.569
		c0.075,0.156,0.107,0.33,0.095,0.503c-0.549,7.754-4.225,8.591-5.78,8.591c-0.922,0-1.814-0.307-2.544-0.87
		c-0.286,0.552-0.505,1.128-0.651,1.718C14.267,23.844,14.067,24,13.837,24z M15.492,21.039c0.572,0.475,1.283,0.734,2.026,0.734
		c1.275,0,4.292-0.747,4.782-7.663c-1.481,0.755-3.082,1.193-4.751,1.298c-1.779,0.001-3.213,1.429-3.213,3.183
		c0,0.597,0.165,1.169,0.479,1.672c0.96-1.311,2.246-2.327,3.738-2.952c0.061-0.026,0.126-0.039,0.192-0.039
		c0.202,0,0.384,0.12,0.462,0.307c0.106,0.254-0.014,0.548-0.268,0.654C17.545,18.818,16.358,19.785,15.492,21.039z"/>
	<path d="M11.2,24c-0.276,0-0.5-0.224-0.5-0.5v-2.12l-1.743,1.046c-0.078,0.047-0.167,0.071-0.257,0.071
		c-0.175,0-0.339-0.093-0.429-0.243c-0.069-0.115-0.089-0.249-0.056-0.378c0.032-0.13,0.113-0.239,0.228-0.308l2.257-1.354v-0.905
		l-5.401-2.701L4.7,17.207v2.79c0,0.276-0.224,0.5-0.5,0.5s-0.5-0.224-0.5-0.5v-1.79l-1.646,1.646C1.959,19.948,1.833,20,1.7,20
		s-0.259-0.052-0.354-0.146c-0.195-0.195-0.195-0.512,0-0.707l1.649-1.649H1.2c-0.276,0-0.5-0.224-0.5-0.5s0.224-0.5,0.5-0.5h2.796
		L4.7,15.793V8.207l-0.71-0.71H1.2c-0.276,0-0.5-0.224-0.5-0.5s0.224-0.5,0.5-0.5h1.79L1.346,4.854
		c-0.195-0.195-0.195-0.512,0-0.707C1.441,4.052,1.566,4,1.7,4s0.259,0.052,0.354,0.146L3.7,5.793V3.997c0-0.276,0.224-0.5,0.5-0.5
		s0.5,0.224,0.5,0.5v2.796l0.599,0.599L10.7,4.691V3.78L8.443,2.426C8.206,2.284,8.129,1.976,8.271,1.74
		C8.361,1.59,8.525,1.497,8.7,1.497c0.091,0,0.18,0.025,0.257,0.072L10.7,2.614V0.5c0-0.276,0.224-0.5,0.5-0.5s0.5,0.224,0.5,0.5
		v2.114l1.743-1.046c0.078-0.047,0.167-0.071,0.257-0.071c0.175,0,0.339,0.093,0.429,0.243c0.142,0.236,0.065,0.544-0.171,0.686
		L11.7,3.78v0.911l5.402,2.701L17.7,6.794V3.997c0-0.276,0.224-0.5,0.5-0.5s0.5,0.224,0.5,0.5v1.796l1.646-1.647
		C20.441,4.052,20.566,4,20.7,4s0.259,0.052,0.354,0.146C21.148,4.241,21.2,4.366,21.2,4.5c0,0.134-0.052,0.259-0.146,0.354
		l-1.643,1.643H21.2c0.276,0,0.5,0.224,0.5,0.5s-0.224,0.5-0.5,0.5h-2.789L17.7,8.208V12.5c0,0.276-0.224,0.5-0.5,0.5
		s-0.5-0.224-0.5-0.5V8.309l-5.5-2.75l-5.5,2.75v7.382l5.5,2.75l0.282-0.14c0.068-0.034,0.146-0.053,0.223-0.053
		c0.191,0,0.362,0.106,0.447,0.277c0.06,0.12,0.069,0.255,0.027,0.382c-0.042,0.127-0.132,0.229-0.251,0.289L11.7,19.309v0.905
		l0.769,0.461c0.115,0.069,0.195,0.178,0.228,0.308c0.032,0.129,0.012,0.264-0.056,0.378c-0.09,0.15-0.254,0.243-0.429,0.243l0,0
		c-0.091,0-0.18-0.025-0.257-0.072L11.7,21.38v2.12C11.7,23.776,11.476,24,11.2,24z"/>
</g>
</svg>
