<?xml version="1.0" encoding="utf-8"?>
<!-- Generator: Adobe Illustrator 22.1.0, SVG Export Plug-In . SVG Version: 6.00 Build 0)  -->
<svg version="1.1" id="Light" xmlns="http://www.w3.org/2000/svg" xmlns:xlink="http://www.w3.org/1999/xlink" x="0px" y="0px"
	 viewBox="0 0 24 24" style="enable-background:new 0 0 24 24;" xml:space="preserve">
<g>
	<title>blazer-1</title>
	<path d="M7.499,19c-0.276,0-0.5-0.224-0.5-0.5s0.224-0.5,0.5-0.5h1.5c0.276,0,0.5,0.224,0.5,0.5S9.275,19,8.999,19H7.499z"/>
	<path d="M14.999,19c-0.276,0-0.5-0.224-0.5-0.5s0.224-0.5,0.5-0.5h1.5c0.276,0,0.5,0.224,0.5,0.5s-0.224,0.5-0.5,0.5H14.999z"/>
	<path d="M14.5,24c-0.469-0.026-0.885-0.223-1.184-0.555L12,21.8l-1.298,1.622c-0.314,0.351-0.728,0.552-1.174,0.576L5.506,24
		c-0.54,0-0.98-0.438-0.982-0.975l0.254-6.861L3.57,22.198C3.475,22.663,3.063,23,2.59,23H1c-0.559-0.007-1.006-0.461-1-1.012
		C0.075,16.067,1.468,9.574,3.013,2.887C3.017,2.869,3.028,2.841,3.038,2.82c0.01-0.026,0.022-0.054,0.041-0.084
		c0.017-0.027,0.035-0.049,0.055-0.071C3.155,2.642,3.178,2.62,3.205,2.6c0.026-0.02,0.053-0.034,0.082-0.048
		c-0.001,0-0.001,0-0.002,0c-0.003,0,0.022-0.015,0.056-0.027l4.172-1.391C8.272,0.4,9.122,0.008,9.977,0.001C9.977,0.001,14,0,14,0
		c0.005,0,0.028,0.001,0.031,0.001c0.851,0.009,1.698,0.401,2.455,1.134l4.173,1.391c0.021,0.007,0.058,0.026,0.076,0.038
		c0.008,0.003,0.034,0.017,0.058,0.035c0.032,0.023,0.057,0.049,0.075,0.068c0.02,0.022,0.037,0.044,0.053,0.068
		c0.018,0.029,0.031,0.057,0.04,0.082c0.01,0.019,0.02,0.042,0.027,0.072C22.532,9.576,23.924,16.07,24,21.988
		c0.003,0.267-0.098,0.52-0.284,0.711c-0.187,0.191-0.437,0.298-0.704,0.302H21.41c-0.473,0-0.885-0.336-0.98-0.8l-1.208-6.043
		l0.253,6.824c0.011,0.26-0.081,0.51-0.258,0.702c-0.177,0.193-0.419,0.305-0.681,0.315c0,0-0.038,0.001-0.043,0.001H14.5z
		 M14.079,22.798c0.104,0.115,0.272,0.193,0.45,0.203L18.475,23l-0.481-12.981c-0.002-0.053,0.004-0.106,0.019-0.157l1.875-6.539
		l-2.315-0.771c0.059,0.102,0.116,0.206,0.171,0.312c0.237,0.453,0.095,1.009-0.33,1.294l-0.72,0.482l0.556,0.834
		c0.202,0.303,0.224,0.692,0.056,1.016c-0.401,0.773-0.736,1.731-1.091,2.746c-0.8,2.287-1.703,4.87-3.715,6.058v5.532
		L14.079,22.798z M18.493,23L18.493,23z M9.5,23c0.155-0.01,0.321-0.091,0.44-0.224l1.559-1.95V15.29
		c-2.012-1.19-2.914-3.771-3.712-6.054c-0.355-1.015-0.69-1.974-1.091-2.749C6.527,6.164,6.549,5.775,6.751,5.471l0.555-0.833
		L6.584,4.157C6.159,3.868,6.02,3.311,6.258,2.861c0.055-0.105,0.111-0.208,0.17-0.309L4.113,3.323l1.874,6.54
		c0.015,0.052,0.021,0.104,0.019,0.156L5.524,23H9.5z M21.41,22.002L23,22c-0.069-5.413-1.271-11.335-2.554-16.996l-1.434,5.003
		L21.41,22.002z M3.554,5.004C2.27,10.664,1.068,16.585,1,22l1.59,0l2.398-11.991L3.554,5.004z M14.457,1.058
		c-0.04,0.511-0.078,1.043-0.118,1.594c-0.234,3.258-0.521,7.261-1.476,11.084c1.127-1.17,1.776-3.026,2.406-4.83
		c0.367-1.051,0.714-2.042,1.148-2.879l-0.833-1.249c-0.153-0.229-0.091-0.54,0.138-0.693l1.135-0.759
		C16.357,2.368,15.482,1.311,14.457,1.058z M9.543,1.058c-1.026,0.253-1.901,1.31-2.399,2.267l1.134,0.759
		C8.387,4.157,8.465,4.273,8.49,4.402c0.026,0.13,0,0.264-0.074,0.375L7.583,6.026c0.434,0.837,0.78,1.828,1.147,2.877
		c0.631,1.806,1.281,3.663,2.407,4.833C10.181,9.908,9.894,5.9,9.66,2.639C9.62,2.092,9.582,1.565,9.543,1.058z M10.541,1
		c0.039,0.503,0.077,1.026,0.116,1.567C10.879,5.661,11.151,9.45,12,13.058c0.848-3.604,1.12-7.388,1.342-10.478
		c0.039-0.546,0.077-1.073,0.117-1.58H10.541z"/>
</g>
</svg>
