<?xml version="1.0" encoding="utf-8"?>
<!-- Generator: Adobe Illustrator 22.1.0, SVG Export Plug-In . SVG Version: 6.00 Build 0)  -->
<svg version="1.1" id="Light" xmlns="http://www.w3.org/2000/svg" xmlns:xlink="http://www.w3.org/1999/xlink" x="0px" y="0px"
	 viewBox="0 0 24 24" style="enable-background:new 0 0 24 24;" xml:space="preserve">
<g>
	<title>shirt-female</title>
	<circle cx="10.25" cy="19.251" r="0.75"/>
	<circle cx="10.25" cy="15.751" r="0.75"/>
	<circle cx="10.25" cy="12.251" r="0.75"/>
	<circle cx="10.25" cy="8.751" r="0.75"/>
	<path d="M14.499,9.001c-0.276,0-0.5-0.224-0.5-0.5s0.224-0.5,0.5-0.5h2c0.276,0,0.5,0.224,0.5,0.5s-0.224,0.5-0.5,0.5H14.499z"/>
	<path d="M12.499,24.001c-0.029,0-0.054-0.004-0.072-0.008l-0.162,0.003c-0.089,0.002-0.178,0.004-0.267,0.004
		c-2.142,0-4.299-0.138-6.417-0.41c-0.092-0.013-0.179-0.037-0.261-0.072c-0.508-0.218-0.744-0.806-0.527-1.313
		c0.718-1.812,1.074-3.69,1.083-5.727c-1.46-0.087-2.891-0.38-4.257-0.873c-0.398-0.176-0.629-0.533-0.62-0.939v-1.456
		C1,12.842,1.207,12.506,1.524,12.334l1.718-8.315c0.002-0.008,0.004-0.016,0.006-0.024c0.104-0.605,0.571-1.093,1.17-1.217
		l3.114-0.648c0.219-0.675,0.636-1.256,1.213-1.688L9.2,0.101c0.011-0.008,0.025-0.017,0.039-0.024
		c0.038-0.024,0.078-0.041,0.119-0.053c0.007-0.002,0.032-0.009,0.039-0.01c0.036-0.008,0.072-0.012,0.108-0.012
		c0.021,0,0.043,0.001,0.064,0.004c0.009,0.001,0.019,0.003,0.029,0.006c0.028,0.005,0.06,0.013,0.096,0.028
		c0.73,0.304,1.506,0.458,2.308,0.458c0.802,0,1.578-0.154,2.308-0.458c0.034-0.014,0.068-0.022,0.094-0.027
		c0.01-0.003,0.021-0.005,0.029-0.006c0.023-0.003,0.044-0.005,0.065-0.005c0.035,0,0.071,0.004,0.107,0.011
		c0.008,0.002,0.03,0.008,0.038,0.01c0.045,0.014,0.085,0.032,0.122,0.054c0.014,0.007,0.028,0.016,0.04,0.025l0.453,0.339
		c0.577,0.433,0.994,1.016,1.213,1.693l3.111,0.647c0.066,0.014,0.132,0.032,0.196,0.055c0.496,0.175,0.863,0.607,0.965,1.129
		c0.006,0.016,0.011,0.032,0.014,0.045l1.719,8.323c0.318,0.172,0.524,0.507,0.525,0.873v1.469c0.008,0.39-0.222,0.751-0.586,0.914
		c-1.393,0.504-2.83,0.8-4.291,0.887c0.009,2.039,0.366,3.919,1.088,5.74c0.031,0.072,0.054,0.158,0.066,0.245
		c0.036,0.264-0.033,0.527-0.194,0.74c-0.162,0.213-0.397,0.35-0.661,0.386c-1.896,0.244-3.86,0.379-5.838,0.402
		C12.562,23.996,12.533,24.001,12.499,24.001z M4.622,3.756C4.491,3.784,4.379,3.86,4.306,3.972
		C4.232,4.084,4.207,4.217,4.234,4.348C4.238,4.37,4.244,4.392,4.252,4.414c2.524,7.133,3.649,12.661,1.466,18.171
		c2.052,0.277,4.166,0.411,6.277,0.411h0.004V7.119l-0.431-0.862c-0.387-0.519-0.746-1.078-1.069-1.665
		c-0.442,0.13-0.854,0.355-1.2,0.656C9.201,5.332,9.091,5.395,8.97,5.437C8.865,5.474,8.755,5.492,8.644,5.492
		c-0.427,0-0.807-0.271-0.946-0.674C7.623,4.586,7.554,4.351,7.489,4.115C7.405,3.81,7.363,3.498,7.363,3.186L4.622,3.756z
		 M12.946,6.777c0.034,0.069,0.053,0.146,0.053,0.224v15.982c1.798-0.036,3.576-0.166,5.29-0.386
		c-2.192-5.517-1.067-11.046,1.457-18.18c0.092-0.26-0.045-0.546-0.304-0.638c-0.021-0.008-0.043-0.014-0.065-0.019l-2.74-0.57
		c0,0.311-0.041,0.621-0.125,0.924c-0.066,0.237-0.135,0.471-0.205,0.692c-0.142,0.412-0.523,0.685-0.95,0.685
		c-0.11,0-0.219-0.018-0.325-0.055c-0.122-0.042-0.233-0.106-0.329-0.19c-0.346-0.3-0.759-0.524-1.201-0.655
		c-0.277,0.503-0.585,0.991-0.919,1.456L12.946,6.777z M1.999,14.676c1.218,0.442,2.52,0.711,3.855,0.798
		c-0.024-0.489-0.068-0.997-0.131-1.518c-1.265-0.121-2.515-0.371-3.719-0.743l-0.005-0.251l0,0.25c0,0,0,0,0.001,0L1.999,14.676z
		 M18.276,13.956c-0.063,0.52-0.107,1.029-0.131,1.518c1.322-0.086,2.617-0.353,3.854-0.795v-1.464
		c-0.004,0-0.009,0.001-0.013,0.001C20.791,13.585,19.541,13.835,18.276,13.956z M2.546,12.331c0.984,0.289,2.002,0.492,3.032,0.605
		c-0.312-1.918-0.88-4.083-1.766-6.731L2.546,12.331z M20.187,6.206c-0.887,2.649-1.454,4.814-1.766,6.73
		c1.028-0.113,2.045-0.315,3.031-0.604L20.187,6.206z M10.204,1.265C10.592,2.635,11.207,3.96,12,5.139
		c0.793-1.179,1.408-2.505,1.796-3.874C13.213,1.419,12.61,1.497,12,1.497C11.39,1.497,10.787,1.419,10.204,1.265z M9.198,1.361
		C8.811,1.7,8.539,2.153,8.425,2.654c-0.089,0.401-0.078,0.81,0.028,1.195c0.061,0.222,0.126,0.443,0.194,0.652
		c0.405-0.361,0.884-0.637,1.397-0.814C9.696,2.935,9.412,2.155,9.198,1.361z M13.956,3.688c0.513,0.176,0.993,0.451,1.4,0.804
		c0.064-0.199,0.129-0.422,0.191-0.645c0.105-0.381,0.115-0.788,0.031-1.176c-0.001-0.003-0.005-0.023-0.006-0.026
		c-0.112-0.492-0.383-0.945-0.771-1.285C14.588,2.156,14.304,2.936,13.956,3.688z"/>
</g>
</svg>
