<?xml version="1.0" encoding="utf-8"?>
<!-- Generator: Adobe Illustrator 22.1.0, SVG Export Plug-In . SVG Version: 6.00 Build 0)  -->
<svg version="1.1" id="Light" xmlns="http://www.w3.org/2000/svg" xmlns:xlink="http://www.w3.org/1999/xlink" x="0px" y="0px"
	 viewBox="0 0 24 24" style="enable-background:new 0 0 24 24;" xml:space="preserve">
<g>
	<title>sweater</title>
	<path d="M20.883,22.5c-0.455-0.001-0.853-0.309-0.967-0.748L18,14.401v2.789c0.004,0.035,0.004,0.069,0,0.104V21.5
		c0,0.552-0.448,1-1,1H7c-0.551,0-1-0.448-1-1v-7.103l-1.919,7.356C3.966,22.192,3.568,22.5,3.113,22.5H1.094
		c-0.059,0-0.117-0.005-0.175-0.015c-0.261-0.045-0.491-0.191-0.644-0.41c-0.154-0.219-0.213-0.484-0.167-0.747l2.82-16.104
		c0.34-1.944,1.939-3.456,3.895-3.689C6.881,1.512,6.94,1.5,7,1.5c0.035,0,0.066,0.005,0.09,0.011C7.179,1.505,7.269,1.5,7.36,1.5
		h9.278c0.092,0,0.182,0.005,0.272,0.011C16.936,1.505,16.966,1.5,17,1.5c0.061,0,0.119,0.011,0.178,0.035
		c1.955,0.234,3.552,1.746,3.893,3.689l2.815,16.104c0.01,0.058,0.015,0.115,0.015,0.172c0,0.551-0.449,1-1,1H20.883z M6.539,2.599
		C5.194,2.922,4.154,4.016,3.912,5.396L1.092,21.5l2.021,0l2.903-11.126C6.074,10.154,6.272,10,6.499,10
		c0.022,0,0.044,0.001,0.066,0.004C6.812,10.036,7,10.249,7,10.5v2.04L8.547,11c0.188-0.188,0.439-0.292,0.706-0.292
		c0.267,0,0.519,0.104,0.707,0.293l1.793,1.792L13.546,11c0.189-0.188,0.44-0.292,0.707-0.292S14.771,10.812,14.96,11L17,13.007
		V10.5c0-0.251,0.188-0.464,0.437-0.496C17.456,10.001,17.479,10,17.5,10c0.227,0,0.426,0.154,0.484,0.374l2.9,11.126H22.9
		L20.085,5.396c-0.241-1.38-1.28-2.474-2.624-2.797C17.159,5.37,14.814,7.5,12,7.5C9.186,7.5,6.84,5.37,6.539,2.599z M7,21.5h10v-1
		H7V21.5z M17,19.5v-2.057l-2.746-2.734L12.46,16.5c-0.182,0.182-0.439,0.286-0.707,0.286s-0.525-0.104-0.707-0.286l-1.793-1.793
		l0,0.002c-0.002,0-0.003,0-0.004,0L7,16.96v2.54H17z M14.253,13.708c0.267,0,0.518,0.104,0.707,0.293L17,16.031v-1.622
		l-2.744-2.699L12.46,13.5c-0.181,0.182-0.439,0.286-0.707,0.286s-0.526-0.104-0.707-0.285l-1.793-1.792L7,13.952v1.594L8.546,14
		c0.181-0.182,0.439-0.286,0.707-0.286c0.268,0,0.525,0.104,0.707,0.285l1.793,1.793L13.546,14
		C13.735,13.812,13.986,13.708,14.253,13.708z M7.534,2.5c0.25,2.263,2.164,4,4.466,4s4.216-1.737,4.466-4h-1.005
		c-0.245,1.7-1.723,3-3.461,3s-3.216-1.3-3.461-3H7.534z M9.552,2.5c0.235,1.141,1.261,2,2.448,2s2.213-0.859,2.448-2H9.552z"/>
</g>
</svg>
