<?xml version="1.0" encoding="utf-8"?>
<!-- Generator: Adobe Illustrator 22.1.0, SVG Export Plug-In . SVG Version: 6.00 Build 0)  -->
<svg version="1.1" id="Light" xmlns="http://www.w3.org/2000/svg" xmlns:xlink="http://www.w3.org/1999/xlink" x="0px" y="0px"
	 viewBox="0 0 24 24" style="enable-background:new 0 0 24 24;" xml:space="preserve">
<g>
	<title>tank-top</title>
	<path d="M4,24c-0.551,0-1-0.448-1-1V9.282c0-0.335,0.166-0.647,0.446-0.833C4.045,8.048,6,6.434,6,2.5V1c0-0.551,0.449-1,1-1h1
		c0.551,0,1,0.449,1,1v4c0,0.45,1.384,1,3,1s3-0.55,3-1V1c0-0.551,0.448-1,1-1h1c0.552,0,1,0.449,1,1v1.5
		c0,3.931,1.955,5.547,2.553,5.949C20.833,8.634,21,8.946,21,9.282V23c0,0.552-0.448,1-1,1H4z M7,2.5c0,4.43-2.295,6.31-2.999,6.781
		L4,23h16V9.282c-0.006-0.004-0.012-0.008-0.018-0.013C19.294,8.809,17,6.928,17,2.5V1h-1v4c0,1.467-2.392,2-4,2S8,6.467,8,5V1H7
		L7,2.5z"/>
</g>
</svg>
