<?xml version="1.0" encoding="utf-8"?>
<!-- Generator: Adobe Illustrator 22.1.0, SVG Export Plug-In . SVG Version: 6.00 Build 0)  -->
<svg version="1.1" id="Light" xmlns="http://www.w3.org/2000/svg" xmlns:xlink="http://www.w3.org/1999/xlink" x="0px" y="0px"
	 viewBox="0 0 24 24" style="enable-background:new 0 0 24 24;" xml:space="preserve">
<g>
	<title>tank-top-female-1</title>
	<path d="M4.501,24c-0.026,0-0.051-0.001-0.077-0.003c-0.265-0.02-0.508-0.142-0.682-0.344c-0.174-0.202-0.26-0.461-0.24-0.727
		L4.219,13.4c0.144-0.839-0.027-1.659-0.479-2.333l-0.535-0.801c-1.122-1.67-0.883-3.895,0.569-5.289
		c0.48-0.473,0.79-1.105,0.87-1.779l0.287-2.322C4.993,0.382,5.421,0.005,5.927,0h1.574c0.551,0,1,0.449,1,1v1
		c0,1.39,0.309,1.674,1.055,2.359c0.627,0.576,1.47,1.35,2.445,3.075c0.975-1.724,1.817-2.498,2.444-3.074
		C15.192,3.674,15.5,3.39,15.5,2V1c0-0.551,0.448-1,1-1h1.567c0.506,0.002,0.934,0.379,0.996,0.876l0.297,2.319
		c0.08,0.678,0.39,1.312,0.874,1.788c1.449,1.391,1.687,3.614,0.565,5.285l-0.535,0.798c-0.452,0.674-0.625,1.485-0.485,2.285
		l0.72,9.575c0.002,0.026,0.003,0.051,0.003,0.076c-0.001,0.268-0.105,0.519-0.295,0.708C20.018,23.897,19.768,24,19.502,24H4.501z
		 M5.923,1L5.637,3.319C5.53,4.216,5.116,5.06,4.471,5.695C3.366,6.756,3.184,8.443,4.036,9.71l0.536,0.801
		c0.596,0.888,0.823,1.958,0.639,3.013L4.499,23L19.5,23l-0.712-9.527c-0.179-1.014,0.049-2.076,0.646-2.965l0.534-0.798
		c0.852-1.267,0.67-2.954-0.431-4.011c-0.649-0.638-1.064-1.484-1.169-2.383l-0.296-2.315L16.5,1v1c0,1.83-0.578,2.361-1.378,3.096
		c-0.672,0.617-1.592,1.462-2.675,3.628c-0.082,0.164-0.253,0.265-0.447,0.265s-0.365-0.102-0.447-0.265
		C10.47,6.558,9.55,5.713,8.879,5.096C8.079,4.361,7.501,3.83,7.501,2V1H5.926C5.924,1,5.924,1,5.923,1z"/>
</g>
</svg>
