<?xml version="1.0" encoding="utf-8"?>
<!-- Generator: Adobe Illustrator 22.1.0, SVG Export Plug-In . SVG Version: 6.00 Build 0)  -->
<svg version="1.1" id="Light" xmlns="http://www.w3.org/2000/svg" xmlns:xlink="http://www.w3.org/1999/xlink" x="0px" y="0px"
	 viewBox="0 0 24 24" style="enable-background:new 0 0 24 24;" xml:space="preserve">
<g>
	<title>tux</title>
	<path d="M11.739,24.004c-1.892,0-3.768-0.304-5.575-0.904c-0.406-0.154-0.669-0.536-0.664-0.953v-8.293l-1.5,7.2v1.948
		c0,0.552-0.449,1-1,1H1c-0.551,0-1-0.448-1-1v-2C0,15.758,0.369,8.111,3.561,2.262C3.567,2.252,3.574,2.24,3.583,2.23
		c0.023-0.036,0.053-0.07,0.089-0.101C3.687,2.115,3.7,2.105,3.714,2.095c-0.001,0,0.018-0.016,0.046-0.031
		c1.393-0.768,2.856-1.44,4.347-1.998c0.101-0.037,0.212-0.057,0.328-0.059c0.006-0.001,0.012-0.002,0.018-0.002
		c0.008-0.001,0.018-0.001,0.025-0.001c0.017,0,0.034,0.002,0.051,0.005l0.014,0.001C8.578,0.012,8.61,0.016,8.645,0.025
		c0.108,0.021,0.202,0.052,0.285,0.097c0.944,0.541,2.01,0.844,3.087,0.879c1.05-0.036,2.107-0.338,3.041-0.873
		c0.092-0.05,0.188-0.083,0.299-0.103c0.034-0.01,0.064-0.013,0.084-0.015l0.045-0.004c0.015-0.003,0.021-0.003,0.036-0.003
		c0.009,0,0.019,0,0.028,0.001c0.006,0.001,0.013,0.002,0.02,0.003c0.121,0.003,0.225,0.022,0.32,0.057
		c1.494,0.558,2.958,1.231,4.352,1.999c0.015,0.008,0.042,0.027,0.054,0.038c0.004,0.002,0.02,0.014,0.035,0.027
		c0.033,0.029,0.062,0.062,0.086,0.099c0.01,0.012,0.018,0.026,0.025,0.038C23.631,8.118,24,15.762,24,21.002v2c0,0.552-0.448,1-1,1
		h-2c-0.552,0-1-0.448-1-1v-1.949l-1.5-7.2v8.299c0.006,0.413-0.253,0.792-0.644,0.941c-1.822,0.605-3.704,0.91-5.605,0.91
		c-0.085,0-0.17,0-0.254-0.002C11.915,24.003,11.827,24.004,11.739,24.004z M21,23.002h2v-1.5h-2V23.002z M1,23.002h2v-1.5H1V23.002
		z M6.5,22.152c1.604,0.538,3.288,0.822,4.999,0.847v-1.012c-1.695-0.062-3.373-0.334-4.999-0.81V22.152z M12.499,22.999
		c1.718-0.025,3.403-0.31,5.021-0.847l-0.015-0.976c-1.629,0.477-3.31,0.75-5.006,0.811V22.999z M12.499,20.986
		c1.697-0.064,3.377-0.351,5.001-0.852V9.002c0-0.02,0.001-0.041,0.004-0.061c0.187-1.495,0.706-4.95,1.647-6.328
		c-1.036-0.542-2.115-1.031-3.215-1.459c-0.291,2.683-1.266,10.091-3.436,13.494V20.986z M6.5,20.134
		c1.621,0.501,3.301,0.787,4.999,0.852v-6.34C9.333,11.244,8.356,3.837,8.065,1.153c-1.099,0.428-2.178,0.918-3.215,1.46
		C5.79,3.991,6.31,7.447,6.496,8.94C6.499,8.959,6.5,8.981,6.5,9.002V20.134z M22.999,20.502c-0.022-4.837-0.399-11.72-3.125-17.159
		c-0.385,0.7-0.956,2.402-1.367,5.639l2.4,11.52H22.999z M3.094,20.502l2.4-11.52C5.083,5.745,4.512,4.043,4.127,3.343
		C1.4,8.778,1.024,15.663,1.001,20.502H3.094z M9.089,1.322c0.47,4.212,1.457,9.401,2.911,12.192
		c1.456-2.792,2.443-7.981,2.912-12.192c-0.911,0.413-1.903,0.647-2.895,0.68C11.002,1.969,10.003,1.735,9.089,1.322z"/>
	<path d="M10.999,4.001c-0.276,0-0.5-0.224-0.5-0.5s0.224-0.5,0.5-0.5h2c0.276,0,0.5,0.224,0.5,0.5s-0.224,0.5-0.5,0.5H10.999z"/>
</g>
</svg>
