<?xml version="1.0" encoding="utf-8"?>
<!-- Generator: Adobe Illustrator 22.1.0, SVG Export Plug-In . SVG Version: 6.00 Build 0)  -->
<svg version="1.1" id="Light" xmlns="http://www.w3.org/2000/svg" xmlns:xlink="http://www.w3.org/1999/xlink" x="0px" y="0px"
	 viewBox="0 0 24 24" style="enable-background:new 0 0 24 24;" xml:space="preserve">
<g>
	<title>vest</title>
	<path d="M8.446,24.002c-0.145,0-0.286-0.031-0.417-0.091l-4.942-2.247C2.73,21.503,2.5,21.146,2.5,20.755V8.968
		c0-0.448,0.301-0.844,0.732-0.964C3.821,7.841,4,7.332,4,5.827v-3.25c0-0.198,0.117-0.378,0.299-0.458l4.638-2.034
		c0.105-0.045,0.216-0.072,0.332-0.079c0.005-0.001,0.028-0.003,0.034-0.003c0.009,0,0.037,0.001,0.037,0.001
		c0.094,0,0.185,0.012,0.268,0.036C10.393,0.303,11.194,0.457,12,0.501c0.806-0.044,1.603-0.197,2.368-0.454
		c0.097-0.028,0.187-0.041,0.284-0.042c0.013-0.002,0.026-0.003,0.039-0.003c0.008,0,0.018,0,0.027,0.001
		c0.006,0.001,0.012,0.001,0.018,0.003c0.105,0.006,0.218,0.032,0.322,0.077l4.643,2.035C19.883,2.198,20,2.378,20,2.577v3.25
		c0,1.506,0.179,2.015,0.766,2.177C21.198,8.123,21.5,8.519,21.5,8.968v11.787c0,0.39-0.228,0.747-0.582,0.909l-4.946,2.248
		c-0.13,0.06-0.27,0.09-0.415,0.09c-0.211,0-0.413-0.065-0.583-0.187L12,21.691l-2.972,2.124
		C8.858,23.937,8.657,24.002,8.446,24.002z M15.555,23.002l4.947-2.247L20.5,8.968C19,8.552,19,6.912,19,5.827V2.903L15.113,1.2
		c-0.016,0.185-0.031,0.369-0.046,0.553c-0.286,3.487-0.557,6.783-2.568,9.018v10.048L15.555,23.002z M5,5.827
		c0,1.085,0,2.726-1.501,3.141L3.5,20.755l4.944,2.247l3.055-2.182V10.768C9.488,8.532,9.217,5.237,8.931,1.751
		C8.916,1.568,8.9,1.384,8.885,1.2L5,2.903V5.827z M9.927,1.669c0.26,3.163,0.506,6.156,2.072,8.148
		c1.565-1.99,1.811-4.983,2.071-8.145c0.014-0.169,0.028-0.339,0.042-0.508c-0.688,0.188-1.389,0.301-2.087,0.337
		c-0.004,0-0.053,0-0.053,0c-0.695-0.036-1.396-0.149-2.088-0.338C9.899,1.332,9.914,1.501,9.927,1.669z"/>
	<path d="M5.999,18.577c-0.827,0-1.5-0.673-1.5-1.5s0.673-1.5,1.5-1.5h2c0.827,0,1.5,0.673,1.5,1.5s-0.673,1.5-1.5,1.5H5.999z
		 M5.999,16.577c-0.276,0-0.5,0.224-0.5,0.5s0.224,0.5,0.5,0.5h2c0.276,0,0.5-0.224,0.5-0.5s-0.224-0.5-0.5-0.5H5.999z"/>
	<path d="M15.999,18.577c-0.827,0-1.5-0.673-1.5-1.5s0.673-1.5,1.5-1.5h2c0.827,0,1.5,0.673,1.5,1.5s-0.673,1.5-1.5,1.5H15.999z
		 M15.999,16.577c-0.276,0-0.5,0.224-0.5,0.5s0.224,0.5,0.5,0.5h2c0.276,0,0.5-0.224,0.5-0.5s-0.224-0.5-0.5-0.5H15.999z"/>
</g>
</svg>
