<?xml version="1.0" encoding="utf-8"?>
<!-- Generator: Adobe Illustrator 22.1.0, SVG Export Plug-In . SVG Version: 6.00 Build 0)  -->
<svg version="1.1" id="Light" xmlns="http://www.w3.org/2000/svg" xmlns:xlink="http://www.w3.org/1999/xlink" x="0px" y="0px"
	 viewBox="0 0 24 24" style="enable-background:new 0 0 24 24;" xml:space="preserve">
<g>
	<title>vest-male</title>
	<path d="M8.361,24.002c-0.185,0-0.367-0.034-0.54-0.101l-5.359-2.059C1.886,21.621,1.5,21.057,1.5,20.441v-3.918
		c-0.001-0.007-0.001-0.014-0.001-0.021s0-0.014,0.001-0.021V8.901C1.498,8.437,1.813,8.036,2.266,7.927
		c1.016-0.24,1.728-1.136,1.733-2.178v-2.63c0-0.572,0.318-1.086,0.829-1.341l3.448-1.724C8.322,0.032,8.37,0.017,8.422,0.009
		c0.01-0.002,0.021-0.004,0.031-0.005c0.008-0.001,0.018-0.001,0.026-0.001s0.018,0,0.027,0.002C8.562,0.004,8.601,0.01,8.638,0.021
		c1.094,0.316,2.225,0.478,3.363,0.48c1.136-0.003,2.267-0.164,3.36-0.48c0.044-0.013,0.091-0.019,0.138-0.019
		c0.003,0,0.042,0.002,0.042,0.002c0.076,0.008,0.131,0.024,0.183,0.05l3.447,1.724C19.682,2.034,20,2.547,20,3.119v2.632
		c0.004,1.042,0.716,1.938,1.731,2.177C22.184,8.037,22.5,8.436,22.5,8.901v11.541c-0.001,0.616-0.388,1.177-0.962,1.398
		l-5.355,2.059c-0.173,0.067-0.354,0.101-0.54,0.101c0,0,0,0,0,0c-0.314,0-0.616-0.097-0.873-0.281
		c-0.22-0.158-2.767-1.986-2.767-1.986l-2.771,1.989C8.977,23.905,8.675,24.002,8.361,24.002z M2.5,20.441
		c0,0.206,0.129,0.394,0.321,0.467l5.359,2.059c0.058,0.023,0.119,0.034,0.181,0.034c0.104,0,0.205-0.032,0.291-0.094l2.496-1.791
		l-0.229-0.165c-0.261-0.187-0.417-0.491-0.417-0.814v-8.769c0-0.162,0.079-0.314,0.211-0.408c0.197-0.14,0.393-0.301,0.596-0.488
		C9.1,7.838,8.33,3.414,8.078,1.272L5.276,2.673C5.105,2.758,4.999,2.929,4.999,3.12v2.632C4.992,7.259,3.964,8.554,2.498,8.9
		L2.5,16.001h3.999c0.276,0,0.5,0.224,0.5,0.5s-0.224,0.5-0.5,0.5H2.5V20.441z M11.5,20.138c0,0,3.652,2.623,3.853,2.766
		c0.086,0.062,0.187,0.094,0.291,0.094c0.062,0,0.122-0.011,0.179-0.034l5.356-2.059c0.194-0.075,0.32-0.257,0.32-0.465v-3.439
		h-4.001c-0.276,0-0.5-0.224-0.5-0.5s0.224-0.5,0.5-0.5H21.5v-7.1C20.034,8.555,19.006,7.26,19,5.753V3.119
		c0-0.19-0.106-0.362-0.277-0.447l-2.801-1.401c-0.267,2.266-1.102,7.009-3.562,9.575c-0.265,0.279-0.554,0.539-0.861,0.774V20.138z
		 M9.072,1.164C9.309,3.184,10.02,7.309,12,9.746c1.98-2.437,2.691-6.561,2.929-8.581c-0.963,0.222-1.946,0.335-2.927,0.337
		C11.019,1.499,10.035,1.386,9.072,1.164z"/>
	<circle cx="13.25" cy="13.251" r="0.75"/>
	<circle cx="13.25" cy="16.251" r="0.75"/>
	<circle cx="13.25" cy="19.251" r="0.75"/>
</g>
</svg>
