<?xml version="1.0" encoding="utf-8"?>
<!-- Generator: Adobe Illustrator 22.1.0, SVG Export Plug-In . SVG Version: 6.00 Build 0)  -->
<svg version="1.1" id="Light" xmlns="http://www.w3.org/2000/svg" xmlns:xlink="http://www.w3.org/1999/xlink" x="0px" y="0px"
	 viewBox="0 0 24 24" style="enable-background:new 0 0 24 24;" xml:space="preserve">
<g>
	<title>vest-female</title>
	<circle cx="13.25" cy="13.75" r="0.75"/>
	<circle cx="13.25" cy="17.246" r="0.75"/>
	<path d="M15.565,24c-0.245,0-0.481-0.089-0.664-0.252l-2.9-2.58l-2.905,2.58C8.913,23.91,8.677,24,8.432,24
		c-0.17,0-0.338-0.044-0.486-0.126l-3.753-2.085c-0.233-0.13-0.402-0.343-0.476-0.6c-0.073-0.257-0.042-0.527,0.088-0.76
		l2.158-3.873l-1.741-5.695C3.741,9.314,3.566,7.71,3.702,6.094l0.281-3.358c0.032-0.348,0.235-0.648,0.544-0.804l3.58-1.827
		C8.249,0.034,8.397,0,8.55,0c0.088,0,0.175,0.012,0.26,0.035c1.042,0.297,2.116,0.453,3.195,0.465
		c1.067-0.012,2.136-0.168,3.172-0.462c0.004-0.001,0.026-0.007,0.03-0.008C15.283,0.01,15.366,0,15.449,0
		c0.15,0,0.301,0.035,0.436,0.101l3.592,1.827c0.308,0.156,0.511,0.455,0.542,0.8l0.278,3.366c0.136,1.616-0.039,3.221-0.521,4.769
		l-1.737,5.687l2.152,3.878c0.268,0.481,0.094,1.091-0.388,1.36l-3.754,2.085C15.903,23.956,15.735,24,15.565,24z M15.566,23
		l3.753-2.085l-2.153-3.875c-0.133-0.238-0.162-0.524-0.08-0.785l1.737-5.686c0.444-1.427,0.605-2.904,0.48-4.391l-0.278-3.363
		L15.76,1.159c-0.436,4.171-1.419,7.248-2.927,9.152c-0.128,0.163-0.277,0.333-0.454,0.521c-0.011,0.015-0.025,0.031-0.036,0.042
		c-0.009,0.008-0.018,0.016-0.026,0.022c-0.251,0.262-0.529,0.513-0.811,0.73l-0.005,7.76L15.566,23z M4.98,2.823L4.698,6.178
		c-0.125,1.487,0.036,2.964,0.479,4.389l1.741,5.696c0.08,0.257,0.051,0.542-0.081,0.781l-2.158,3.873L8.432,23l2.816-2.501
		l-0.58-0.516c-0.107-0.094-0.168-0.231-0.168-0.374v-7.98c0-0.313,0.15-0.613,0.4-0.8c0.136-0.105,0.274-0.221,0.409-0.345
		c-0.045-0.054-0.092-0.11-0.14-0.17C9.66,8.41,8.676,5.331,8.241,1.159L4.98,2.823z M9.249,1.177
		c0.419,3.869,1.35,6.808,2.701,8.512C11.967,9.71,11.983,9.731,12,9.751c0.016-0.02,0.032-0.04,0.048-0.06
		c1.352-1.708,2.285-4.646,2.704-8.513c-0.9,0.203-1.823,0.312-2.746,0.322C11.076,1.489,10.151,1.381,9.249,1.177z"/>
</g>
</svg>
