<?xml version="1.0" encoding="utf-8"?>
<!-- Generator: Adobe Illustrator 22.1.0, SVG Export Plug-In . SVG Version: 6.00 Build 0)  -->
<svg version="1.1" id="Light" xmlns="http://www.w3.org/2000/svg" xmlns:xlink="http://www.w3.org/1999/xlink" x="0px" y="0px"
	 viewBox="0 0 24 24" style="enable-background:new 0 0 24 24;" xml:space="preserve">
<g>
	<title>day-sunrise</title>
	<path d="M10.506,21.992c-0.551,0-1-0.448-1-1v-4H8.821c-0.268,0-0.519-0.104-0.707-0.293c-0.189-0.189-0.293-0.44-0.293-0.707
		c0-0.286,0.123-0.559,0.336-0.749l3.183-2.829c0.183-0.163,0.419-0.253,0.665-0.253c0.246,0,0.482,0.09,0.666,0.254l3.176,2.831
		c0.199,0.178,0.318,0.423,0.333,0.689c0.015,0.267-0.075,0.524-0.253,0.723c-0.188,0.212-0.46,0.333-0.744,0.334h-0.677v4
		c0,0.552-0.448,1-1,1H10.506z M8.821,15.991l1.185,0c0.276,0,0.5,0.224,0.5,0.5v4.5h3v-4.5c0-0.276,0.224-0.5,0.5-0.5h1.176
		l-3.176-2.83C12.005,13.162,8.821,15.991,8.821,15.991z"/>
	<path d="M5.926,15.484c-0.179,0-0.345-0.096-0.434-0.251c-0.996-1.738-1.256-3.76-0.732-5.693s1.771-3.547,3.509-4.543
		C9.406,4.344,10.692,4,11.987,4c0.663,0,1.328,0.089,1.975,0.265c1.934,0.525,3.547,1.771,4.543,3.509
		c1.319,2.301,1.319,5.159,0,7.459c-0.089,0.155-0.255,0.251-0.434,0.251c-0.087,0-0.173-0.023-0.248-0.066
		c-0.116-0.066-0.199-0.174-0.234-0.303c-0.035-0.129-0.017-0.264,0.049-0.38c1.143-1.993,1.143-4.471,0-6.464
		c-1.155-2.015-3.32-3.266-5.651-3.266c-1.126,0-2.24,0.297-3.221,0.86C7.26,6.727,6.18,8.125,5.726,9.801s-0.229,3.428,0.634,4.934
		c0.066,0.116,0.084,0.25,0.049,0.379c-0.035,0.129-0.118,0.237-0.234,0.303C6.099,15.461,6.013,15.484,5.926,15.484z"/>
	<path d="M11.994,2.977c-0.276,0-0.5-0.224-0.5-0.5V0.508c0-0.276,0.224-0.5,0.5-0.5s0.5,0.224,0.5,0.5v1.969
		C12.494,2.753,12.27,2.977,11.994,2.977z"/>
	<path d="M18.377,5.616c-0.134,0-0.259-0.052-0.354-0.146c-0.195-0.195-0.195-0.512,0-0.707l1.392-1.391
		c0.095-0.094,0.22-0.146,0.354-0.146c0.134,0,0.259,0.052,0.354,0.146c0.195,0.195,0.195,0.512,0,0.707L18.73,5.47
		C18.636,5.564,18.51,5.616,18.377,5.616z"/>
	<path d="M21.023,11.996c-0.276,0-0.5-0.224-0.5-0.5s0.224-0.5,0.5-0.5h1.969c0.276,0,0.5,0.224,0.5,0.5s-0.224,0.5-0.5,0.5H21.023z
		"/>
	<path d="M19.776,19.771c-0.134,0-0.259-0.052-0.354-0.146l-1.392-1.392c-0.094-0.094-0.146-0.22-0.146-0.354
		s0.052-0.259,0.146-0.354s0.22-0.146,0.354-0.146s0.259,0.052,0.354,0.146l1.392,1.392c0.094,0.094,0.146,0.22,0.146,0.354
		s-0.052,0.259-0.146,0.354S19.909,19.771,19.776,19.771z"/>
	<path d="M4.229,19.778c-0.134,0-0.259-0.052-0.354-0.146s-0.146-0.22-0.146-0.354s0.052-0.259,0.146-0.354l1.392-1.392
		c0.094-0.094,0.22-0.146,0.354-0.146s0.259,0.052,0.354,0.146s0.146,0.22,0.146,0.354s-0.052,0.259-0.146,0.354l-1.392,1.392
		C4.488,19.726,4.362,19.778,4.229,19.778z"/>
	<path d="M1.006,12.006c-0.276,0-0.5-0.224-0.5-0.5s0.224-0.5,0.5-0.5h1.969c0.276,0,0.5,0.224,0.5,0.5s-0.224,0.5-0.5,0.5H1.006z"
		/>
	<path d="M5.614,5.623c-0.134,0-0.259-0.052-0.354-0.146L3.869,4.084c-0.195-0.195-0.195-0.512,0-0.707
		c0.095-0.094,0.22-0.146,0.354-0.146s0.259,0.052,0.354,0.146L5.968,4.77c0.195,0.195,0.195,0.512,0,0.707
		C5.873,5.571,5.747,5.623,5.614,5.623z"/>
	<path d="M1.006,23.992c-0.276,0-0.5-0.224-0.5-0.5s0.224-0.5,0.5-0.5h21.988c0.276,0,0.5,0.224,0.5,0.5s-0.224,0.5-0.5,0.5H1.006z"
		/>
</g>
</svg>
