<?xml version="1.0" encoding="utf-8"?>
<!-- Generator: Adobe Illustrator 22.1.0, SVG Export Plug-In . SVG Version: 6.00 Build 0)  -->
<svg version="1.1" id="Light" xmlns="http://www.w3.org/2000/svg" xmlns:xlink="http://www.w3.org/1999/xlink" x="0px" y="0px"
	 viewBox="0 0 24 24" style="enable-background:new 0 0 24 24;" xml:space="preserve">
<g>
	<title>day-sunrise-2</title>
	<path d="M0.5,21.5C0.224,21.5,0,21.276,0,21s0.224-0.5,0.5-0.5h23c0.276,0,0.5,0.224,0.5,0.5s-0.224,0.5-0.5,0.5H0.5z"/>
	<path d="M0.5,14.5C0.224,14.5,0,14.276,0,14s0.224-0.5,0.5-0.5h2C2.776,13.5,3,13.724,3,14s-0.224,0.5-0.5,0.5H0.5z"/>
	<path d="M5.136,8.136c-0.134,0-0.259-0.052-0.354-0.146L3.369,6.576c-0.195-0.195-0.195-0.512,0-0.707
		c0.094-0.094,0.22-0.146,0.354-0.146s0.259,0.052,0.354,0.146L5.49,7.282c0.195,0.195,0.195,0.512,0,0.707
		C5.395,8.084,5.27,8.136,5.136,8.136z"/>
	<path d="M11.5,5.5C11.224,5.5,11,5.276,11,5V3c0-0.276,0.224-0.5,0.5-0.5S12,2.724,12,3v2C12,5.276,11.776,5.5,11.5,5.5z"/>
	<path d="M17.864,8.136c-0.134,0-0.259-0.052-0.354-0.146c-0.195-0.195-0.195-0.512,0-0.707l1.414-1.414
		c0.094-0.094,0.22-0.146,0.354-0.146s0.259,0.052,0.354,0.146c0.195,0.195,0.195,0.512,0,0.707L18.218,7.99
		C18.123,8.084,17.998,8.136,17.864,8.136z"/>
	<path d="M20.5,14.5c-0.276,0-0.5-0.224-0.5-0.5s0.224-0.5,0.5-0.5h2c0.276,0,0.5,0.224,0.5,0.5s-0.224,0.5-0.5,0.5H20.5z"/>
	<path d="M16.379,19.5c-0.135,0-0.265-0.055-0.359-0.152c-0.192-0.198-0.187-0.514,0.01-0.707c1.245-1.21,1.944-2.833,1.969-4.569
		s-0.628-3.378-1.838-4.623c-1.21-1.245-2.833-1.944-4.569-1.969L11.492,7.48c-1.696,0-3.302,0.653-4.522,1.839
		c-1.243,1.208-1.941,2.831-1.966,4.569c-0.025,1.738,0.627,3.38,1.835,4.623c0.043,0.044,0.087,0.088,0.131,0.131
		c0.197,0.192,0.202,0.509,0.01,0.707C6.884,19.446,6.757,19.5,6.621,19.5c-0.131,0-0.255-0.05-0.349-0.142
		c-0.05-0.049-0.1-0.099-0.15-0.149c-1.395-1.435-2.147-3.329-2.118-5.335s0.834-3.878,2.268-5.272
		c1.408-1.368,3.271-2.122,5.246-2.122l0.087,0c2.004,0.029,3.876,0.835,5.272,2.272c1.396,1.436,2.15,3.331,2.121,5.334
		c-0.029,2.003-0.835,3.875-2.272,5.271C16.634,19.45,16.51,19.5,16.379,19.5z"/>
</g>
</svg>
