<?xml version="1.0" encoding="utf-8"?>
<!-- Generator: Adobe Illustrator 22.1.0, SVG Export Plug-In . SVG Version: 6.00 Build 0)  -->
<svg version="1.1" id="Light" xmlns="http://www.w3.org/2000/svg" xmlns:xlink="http://www.w3.org/1999/xlink" x="0px" y="0px"
	 viewBox="0 0 24 24" style="enable-background:new 0 0 24 24;" xml:space="preserve">
<g>
	<title>day-morning</title>
	<path d="M1,20c-0.276,0-0.5-0.224-0.5-0.5S0.724,19,1,19h0.503c0-5.53,4.421-10.209,9.972-10.487
		C11.65,8.504,11.826,8.5,12.001,8.5c0.335,0,0.671,0.016,0.999,0.047c0.133,0.013,0.253,0.077,0.338,0.18
		c0.085,0.103,0.125,0.233,0.112,0.366c-0.024,0.253-0.244,0.452-0.5,0.452c-0.007,0-0.035-0.001-0.042-0.002
		C12.61,9.514,12.306,9.5,12.002,9.5c-0.159,0-0.318,0.004-0.477,0.012C6.5,9.763,2.503,13.995,2.502,19h18.996
		c0.001-1.087-0.18-2.153-0.541-3.173c-0.044-0.125-0.037-0.261,0.02-0.382s0.159-0.212,0.285-0.256
		c0.054-0.019,0.11-0.029,0.167-0.029c0.212,0,0.401,0.134,0.471,0.334C22.299,16.622,22.5,17.8,22.498,19H23
		c0.276,0,0.5,0.224,0.5,0.5S23.276,20,23,20H1z"/>
	<path d="M12,18c-0.276,0-0.5-0.224-0.5-0.5v-2c0-0.276,0.224-0.5,0.5-0.5c0.276,0,0.5,0.224,0.5,0.5v2C12.5,17.776,12.276,18,12,18
		z"/>
	<path d="M12,13c-0.276,0-0.5-0.224-0.5-0.5v-2c0-0.276,0.224-0.5,0.5-0.5c0.276,0,0.5,0.224,0.5,0.5v2C12.5,12.776,12.276,13,12,13
		z"/>
	<path d="M12,7c-0.276,0-0.5-0.224-0.5-0.5v-2C11.5,4.224,11.724,4,12,4c0.276,0,0.5,0.224,0.5,0.5v2C12.5,6.776,12.276,7,12,7z"/>
	<path d="M19,12.5c-1.103,0-2-0.897-2-2s0.897-2,2-2s2,0.897,2,2S20.103,12.5,19,12.5z M19,9.5c-0.552,0-1,0.449-1,1s0.448,1,1,1
		s1-0.449,1-1S19.552,9.5,19,9.5z"/>
	<path d="M19,8c-0.276,0-0.5-0.224-0.5-0.5v-1C18.5,6.224,18.724,6,19,6s0.5,0.224,0.5,0.5v1C19.5,7.776,19.276,8,19,8z"/>
	<path d="M22,11c-0.276,0-0.5-0.224-0.5-0.5S21.724,10,22,10h1c0.276,0,0.5,0.224,0.5,0.5S23.276,11,23,11H22z"/>
	<path d="M19,15c-0.276,0-0.5-0.224-0.5-0.5v-1c0-0.276,0.224-0.5,0.5-0.5s0.5,0.224,0.5,0.5v1C19.5,14.776,19.276,15,19,15z"/>
	<path d="M15,11c-0.276,0-0.5-0.224-0.5-0.5S14.724,10,15,10h1c0.276,0,0.5,0.224,0.5,0.5S16.276,11,16,11H15z"/>
	<path d="M16.879,8.879c-0.134,0-0.259-0.052-0.354-0.146l-0.707-0.707c-0.094-0.094-0.146-0.22-0.146-0.354
		c0-0.134,0.052-0.259,0.146-0.354s0.22-0.146,0.354-0.146s0.259,0.052,0.354,0.146l0.707,0.707c0.094,0.094,0.146,0.22,0.146,0.354
		c0,0.134-0.052,0.259-0.146,0.354S17.012,8.879,16.879,8.879z"/>
	<path d="M21.121,8.879c-0.134,0-0.259-0.052-0.354-0.146c-0.094-0.094-0.146-0.22-0.146-0.354c0-0.134,0.052-0.259,0.146-0.354
		l0.707-0.707c0.094-0.094,0.22-0.146,0.354-0.146s0.259,0.052,0.354,0.146c0.094,0.094,0.146,0.22,0.146,0.354
		c0,0.134-0.052,0.259-0.146,0.354l-0.707,0.707C21.38,8.827,21.255,8.879,21.121,8.879z"/>
	<path d="M21.828,13.828c-0.134,0-0.259-0.052-0.354-0.146l-0.707-0.707c-0.195-0.195-0.195-0.512,0-0.707
		c0.094-0.094,0.22-0.146,0.354-0.146s0.259,0.052,0.354,0.146l0.707,0.707c0.195,0.195,0.195,0.512,0,0.707
		C22.087,13.776,21.961,13.828,21.828,13.828z"/>
	<path d="M16.172,13.828c-0.134,0-0.259-0.052-0.354-0.146c-0.195-0.195-0.195-0.512,0-0.707l0.707-0.707
		c0.094-0.094,0.22-0.146,0.354-0.146s0.259,0.052,0.354,0.146c0.195,0.195,0.195,0.512,0,0.707l-0.707,0.707
		C16.431,13.776,16.306,13.828,16.172,13.828z"/>
</g>
</svg>
