<?xml version="1.0" encoding="utf-8"?>
<!-- Generator: Adobe Illustrator 22.1.0, SVG Export Plug-In . SVG Version: 6.00 Build 0)  -->
<svg version="1.1" id="Light" xmlns="http://www.w3.org/2000/svg" xmlns:xlink="http://www.w3.org/1999/xlink" x="0px" y="0px"
	 viewBox="0 0 24 24" style="enable-background:new 0 0 24 24;" xml:space="preserve">
<g>
	<title>night-moon-gibbous-1</title>
	<path d="M9.531,23.997c-0.773,0-1.553-0.076-2.319-0.227c-0.099-0.02-0.189-0.068-0.26-0.14c-5.871-5.978-5.871-17.286,0-23.269
		c0.071-0.073,0.162-0.121,0.261-0.141c0.764-0.15,1.542-0.227,2.314-0.227c0.772,0,1.55,0.076,2.315,0.226
		c6.493,1.276,10.736,7.597,9.46,14.09C20.199,19.924,15.248,23.997,9.531,23.997z M7.558,22.818
		c0.653,0.119,1.317,0.179,1.975,0.179c5.239,0,9.776-3.734,10.788-8.88c1.17-5.951-2.72-11.745-8.671-12.915
		c-0.701-0.138-1.416-0.208-2.123-0.208c-0.656,0-1.318,0.06-1.969,0.179C2.209,6.764,2.209,17.233,7.558,22.818z"/>
</g>
</svg>
