<?xml version="1.0" encoding="utf-8"?>
<!-- Generator: Adobe Illustrator 22.1.0, SVG Export Plug-In . SVG Version: 6.00 Build 0)  -->
<svg version="1.1" id="Light" xmlns="http://www.w3.org/2000/svg" xmlns:xlink="http://www.w3.org/1999/xlink" x="0px" y="0px"
	 viewBox="0 0 24 24" style="enable-background:new 0 0 24 24;" xml:space="preserve">
<g>
	<title>night-pass</title>
	<path d="M12,21.497c-0.066,0-0.13-0.013-0.192-0.039c-0.061-0.025-0.116-0.062-0.163-0.109L7.646,17.35
		C7.552,17.256,7.5,17.13,7.5,16.997s0.052-0.259,0.146-0.354S7.866,16.497,8,16.497s0.259,0.052,0.354,0.146L11.5,19.79v-7.793
		c0-0.276,0.224-0.5,0.5-0.5c0.276,0,0.5,0.224,0.5,0.5v7.793l3.146-3.146c0.094-0.094,0.22-0.146,0.354-0.146
		s0.259,0.052,0.354,0.146s0.146,0.22,0.146,0.354s-0.052,0.259-0.146,0.354l-4,4c-0.046,0.046-0.101,0.083-0.163,0.109
		C12.13,21.484,12.066,21.497,12,21.497z"/>
	<path d="M1,23.497c-0.276,0-0.5-0.224-0.5-0.5s0.224-0.5,0.5-0.5h22c0.276,0,0.5,0.224,0.5,0.5s-0.224,0.5-0.5,0.5H1z"/>
	<path d="M18.01,16.857c-0.159,0-0.31-0.077-0.404-0.205c-0.079-0.108-0.111-0.24-0.09-0.372c0.021-0.132,0.092-0.248,0.199-0.327
		c1.198-0.874,2.15-2.101,2.709-3.48c-2.136-0.134-4.146-1.022-5.692-2.524c-1.725-1.674-2.695-3.92-2.731-6.324
		c-0.01-0.703,0.061-1.405,0.214-2.089c-1.879,0.181-3.627,1.018-4.953,2.381C5.772,5.447,4.968,7.465,4.998,9.6
		c0.028,2.092,0.858,4.058,2.336,5.538c0.195,0.195,0.194,0.513,0,0.707c-0.095,0.094-0.22,0.146-0.353,0.146l0,0
		c-0.134,0-0.259-0.052-0.354-0.146C4.963,14.18,4.03,11.967,3.998,9.614C3.965,7.212,4.869,4.941,6.544,3.22
		c1.675-1.721,3.92-2.687,6.322-2.72c0.163,0,0.313,0.075,0.407,0.2c0.095,0.127,0.125,0.294,0.078,0.446
		c-0.245,0.799-0.363,1.628-0.35,2.464c0.065,4.345,3.652,7.88,7.997,7.88c0,0,0.123-0.001,0.123-0.001
		c0.164,0,0.314,0.077,0.406,0.201c0.095,0.127,0.125,0.295,0.077,0.447c-0.569,1.843-1.741,3.485-3.3,4.623
		C18.219,16.824,18.117,16.857,18.01,16.857z"/>
</g>
</svg>
