<?xml version="1.0" encoding="utf-8"?>
<!-- Generator: Adobe Illustrator 22.1.0, SVG Export Plug-In . SVG Version: 6.00 Build 0)  -->
<svg version="1.1" id="Light" xmlns="http://www.w3.org/2000/svg" xmlns:xlink="http://www.w3.org/1999/xlink" x="0px" y="0px"
	 viewBox="0 0 24 24" style="enable-background:new 0 0 24 24;" xml:space="preserve">
<g>
	<title>night-moon-gibbous</title>
	<path d="M14.472,24.004c-0.771,0-1.55-0.076-2.315-0.226c-6.493-1.277-10.736-7.597-9.46-14.09
		C3.801,4.075,8.752,0.001,14.47,0.001c0.773,0,1.553,0.076,2.317,0.226c0.099,0.02,0.189,0.068,0.26,0.14
		c5.874,5.983,5.873,17.291,0,23.269c-0.07,0.072-0.16,0.12-0.26,0.14C16.022,23.927,15.243,24.004,14.472,24.004z M14.468,1.001
		c-5.24,0-9.778,3.734-10.789,8.879c-1.17,5.952,2.72,11.745,8.672,12.915c0.7,0.138,1.414,0.208,2.121,0.208
		c0.656,0,1.319-0.06,1.97-0.179c5.352-5.586,5.352-16.055,0-21.644C15.789,1.061,15.126,1.001,14.468,1.001z"/>
</g>
</svg>
