<?xml version="1.0" encoding="utf-8"?>
<!-- Generator: Adobe Illustrator 22.1.0, SVG Export Plug-In . SVG Version: 6.00 Build 0)  -->
<svg version="1.1" id="Layer_1" xmlns="http://www.w3.org/2000/svg" xmlns:xlink="http://www.w3.org/1999/xlink" x="0px" y="0px"
	 viewBox="0 0 24 24" style="enable-background:new 0 0 24 24;" xml:space="preserve">
<g>
	<title>plane-boarding-pass</title>
	<path d="M1.5,20C0.673,20,0,19.327,0,18.5v-13C0,4.673,0.673,4,1.5,4h21C23.327,4,24,4.673,24,5.5v13c0,0.827-0.673,1.5-1.5,1.5
		H1.5z M1.5,5C1.224,5,1,5.224,1,5.5v13C1,18.776,1.224,19,1.5,19h21c0.276,0,0.5-0.224,0.5-0.5v-13C23,5.224,22.776,5,22.5,5H1.5z"
		/>
	<path d="M13.734,17.098c-0.137,0-0.27-0.028-0.396-0.082c-0.245-0.105-0.434-0.301-0.533-0.549
		c-0.099-0.248-0.095-0.52,0.011-0.765l0.913-2.153l-3.19,1.261c-0.117,0.046-0.24,0.07-0.367,0.07
		c-0.193,0-0.381-0.055-0.543-0.159L5.98,12.362c-0.134-0.086-0.246-0.205-0.325-0.343c-0.133-0.231-0.168-0.501-0.098-0.759
		c0.07-0.258,0.236-0.473,0.468-0.606l1.072-0.617c0.151-0.087,0.324-0.133,0.5-0.133c0.141,0,0.277,0.029,0.406,0.086l2.224,0.997
		l2.721-1.124l-2.08-1.427c-0.137-0.094-0.249-0.221-0.324-0.368c-0.122-0.237-0.144-0.508-0.063-0.762
		c0.082-0.254,0.257-0.462,0.495-0.584l1.037-0.536c0.14-0.074,0.3-0.113,0.461-0.113c0.19,0,0.375,0.054,0.535,0.155l3.47,2.176
		l3.08-1.272c0.217-0.091,0.448-0.138,0.683-0.138c0.719,0,1.364,0.428,1.642,1.09c0.379,0.904-0.048,1.948-0.952,2.328
		l-2.797,1.382l-2.632,4.348c-0.099,0.159-0.236,0.286-0.397,0.37l-0.91,0.473C14.054,17.059,13.895,17.098,13.734,17.098z
		 M14.655,12.145c0.134,0,0.264,0.055,0.357,0.15c0.142,0.145,0.182,0.359,0.103,0.545l-1.38,3.255l0.91-0.471l2.711-4.473
		c0.049-0.081,0.121-0.147,0.206-0.189l2.956-1.459c0.417-0.176,0.61-0.636,0.444-1.031c-0.122-0.29-0.404-0.477-0.719-0.477
		c-0.103,0-0.204,0.02-0.3,0.061l-9.534,3.938c-0.061,0.025-0.125,0.038-0.191,0.038c-0.07,0-0.139-0.015-0.204-0.043l-2.42-1.084
		l-1.072,0.618l3.648,2.359l4.3-1.7C14.529,12.157,14.591,12.145,14.655,12.145z M11.433,7.611l2.618,1.796l1.294-0.534
		l-2.869-1.798l-0.002-0.251v0.25c0,0,0,0,0.001,0L11.433,7.611z"/>
	<path d="M3.003,8.5C2.588,8.5,2.25,8.164,2.25,7.75c0-0.032,0.003-0.064,0.009-0.095C2.307,7.281,2.624,7,3.003,7
		c0.414,0,0.75,0.336,0.75,0.75C3.753,8.164,3.416,8.5,3.003,8.5z"/>
	<path d="M3.003,11.5c-0.415,0-0.753-0.336-0.753-0.75c0-0.032,0.003-0.064,0.009-0.095C2.307,10.281,2.624,10,3.003,10
		c0.414,0,0.75,0.336,0.75,0.75C3.753,11.164,3.416,11.5,3.003,11.5z"/>
	<path d="M3.003,14.5c-0.415,0-0.753-0.336-0.753-0.75c0-0.032,0.003-0.064,0.009-0.095C2.307,13.281,2.624,13,3.003,13
		c0.414,0,0.75,0.336,0.75,0.75C3.753,14.164,3.416,14.5,3.003,14.5z"/>
	<path d="M3.003,17.5c-0.415,0-0.753-0.336-0.753-0.75c0-0.032,0.003-0.064,0.009-0.095C2.307,16.281,2.624,16,3.003,16
		c0.414,0,0.75,0.336,0.75,0.75C3.753,17.164,3.416,17.5,3.003,17.5z"/>
</g>
</svg>
