<?xml version="1.0" encoding="utf-8"?>
<!-- Generator: Adobe Illustrator 22.1.0, SVG Export Plug-In . SVG Version: 6.00 Build 0)  -->
<svg version="1.1" id="Layer_1" xmlns="http://www.w3.org/2000/svg" xmlns:xlink="http://www.w3.org/1999/xlink" x="0px" y="0px"
	 viewBox="0 0 24 24" style="enable-background:new 0 0 24 24;" xml:space="preserve">
<g>
	<title>plane-check-in</title>
	<path d="M12,6c-1.654,0-3-1.346-3-3s1.346-3,3-3c1.654,0,3,1.346,3,3S13.654,6,12,6z M12,1c-1.103,0-2,0.897-2,2s0.897,2,2,2
		s2-0.897,2-2S13.103,1,12,1z"/>
	<path d="M16,12c-0.276,0-0.5-0.224-0.5-0.5v-2C15.5,8.673,14.827,8,14,8h-0.399l-1.185,1.777C12.326,9.912,12.17,9.993,12,9.993
		s-0.326-0.081-0.416-0.216L10.399,8H10C9.173,8,8.5,8.673,8.5,9.5v2C8.5,11.776,8.276,12,8,12s-0.5-0.224-0.5-0.5v-2
		C7.5,8.121,8.621,7,10,7h0.667c0.168,0,0.323,0.083,0.416,0.223L12,8.598l0.917-1.376C13.01,7.083,13.166,7,13.333,7H14
		c1.378,0,2.5,1.121,2.5,2.5v2C16.5,11.776,16.276,12,16,12z"/>
	<path d="M1,24c-0.276,0-0.5-0.224-0.5-0.5v-8C0.5,14.122,1.621,13,3,13h18c1.378,0,2.5,1.122,2.5,2.5v8c0,0.276-0.224,0.5-0.5,0.5
		H1z M22.5,23v-7.5c0-0.827-0.673-1.5-1.5-1.5H3c-0.827,0-1.5,0.673-1.5,1.5V23H22.5z"/>
	<path d="M11.647,21.998c-0.168,0-0.336-0.052-0.474-0.148c-0.237-0.165-0.357-0.455-0.306-0.739l0.31-1.204l-0.694,0.208
		l-0.168,0.727c-0.097,0.35-0.38,0.589-0.724,0.621l-0.932,0.112c-0.032,0.004-0.067,0.006-0.101,0.006
		c-0.196,0-0.385-0.071-0.533-0.2c-0.197-0.18-0.285-0.436-0.239-0.689l0.13-1.298l-0.849-1.04
		c-0.155-0.154-0.222-0.425-0.156-0.673c0.059-0.229,0.217-0.42,0.434-0.522l0.841-0.422c0.112-0.06,0.244-0.092,0.376-0.092
		c0.197,0,0.388,0.071,0.539,0.2l0.56,0.536l0.692-0.208l-0.89-0.811c-0.22-0.229-0.285-0.531-0.181-0.803
		c0.094-0.241,0.297-0.426,0.545-0.495l0.872-0.261c0.075-0.024,0.157-0.037,0.241-0.037c0.153,0,0.303,0.042,0.433,0.123
		l2.099,1.347l1.687-0.506c0.135-0.041,0.274-0.061,0.413-0.061c0.234,0,0.467,0.059,0.675,0.171c0.335,0.18,0.581,0.48,0.691,0.844
		c0.227,0.76-0.203,1.559-0.958,1.786l-1.689,0.506l-1.006,2.271c-0.105,0.225-0.296,0.388-0.527,0.453l-0.871,0.262
		C11.813,21.986,11.73,21.998,11.647,21.998z M11.484,18.807c0.169,0,0.337,0.053,0.474,0.149c0.234,0.166,0.354,0.453,0.306,0.734
		l-0.311,1.209l0.455-0.136l0.999-2.252c0.122-0.237,0.305-0.396,0.534-0.472l1.753-0.525c0.226-0.068,0.356-0.308,0.289-0.535
		c-0.034-0.112-0.108-0.202-0.208-0.256c-0.063-0.034-0.131-0.051-0.202-0.051c-0.042,0-0.084,0.006-0.126,0.019l-1.738,0.521
		c-0.086,0.024-0.168,0.035-0.251,0.035c-0.157,0-0.311-0.041-0.446-0.117l-2.098-1.345l-0.452,0.136l0.89,0.811
		c0.22,0.229,0.285,0.532,0.181,0.803c-0.094,0.241-0.297,0.425-0.544,0.495l-1.134,0.34c-0.073,0.024-0.156,0.037-0.241,0.037
		c-0.199,0-0.391-0.072-0.541-0.203l-0.541-0.518L8.016,17.94l0.805,0.98c0.085,0.104,0.124,0.234,0.111,0.367l-0.128,1.264
		l0.569-0.069l0.164-0.707c0.08-0.296,0.294-0.514,0.574-0.593l1.133-0.34C11.318,18.819,11.4,18.807,11.484,18.807z"/>
</g>
</svg>
