<?xml version="1.0" encoding="utf-8"?>
<!-- Generator: Adobe Illustrator 22.1.0, SVG Export Plug-In . SVG Version: 6.00 Build 0)  -->
<svg version="1.1" id="Layer_1" xmlns="http://www.w3.org/2000/svg" xmlns:xlink="http://www.w3.org/1999/xlink" x="0px" y="0px"
	 viewBox="0 0 24 24" style="enable-background:new 0 0 24 24;" xml:space="preserve">
<g>
	<title>plane-boarding-pass-hand</title>
	<path d="M9,24c-0.827,0-1.5-0.673-1.5-1.5v-2.713c-0.102,0.053-0.207,0.101-0.312,0.144C7.128,19.955,7.065,19.967,7,19.967
		c-0.205,0-0.387-0.123-0.464-0.312c-0.05-0.124-0.049-0.26,0.003-0.383c0.052-0.123,0.149-0.218,0.273-0.268
		c0.311-0.126,0.592-0.305,0.836-0.533c0.002-0.002,0.016-0.015,0.019-0.017C8.202,17.947,8.5,17.251,8.5,16.5
		C8.5,16.224,8.724,16,9,16l2.895,0c0.778,0,1.448-0.548,1.594-1.304c0.118-0.802-0.451-1.561-1.269-1.681
		C12.147,13.005,12.073,13,12,13H6.5C6.224,13,6,12.776,6,12.5C6,12.224,6.224,12,6.5,12h1V8H7.059C3.994,8,1.501,10.493,1.5,13.558
		v4.988c0,1.317,0.576,1.875,1.711,2.499c0.178,0.102,0.288,0.287,0.289,0.486V23.5C3.5,23.776,3.276,24,3,24s-0.5-0.224-0.5-0.5
		v-1.709c-1.206-0.704-2-1.545-2-3.245v-4.988C0.501,9.942,3.443,7,7.059,7H7.5V1.5C7.5,0.673,8.173,0,9,0h4.05
		c0.473,0,0.885,0.336,0.98,0.8c0.12,0.592,0.58,1.052,1.172,1.172c0.098,0.02,0.198,0.03,0.298,0.03
		c0.711,0,1.329-0.505,1.47-1.201C17.065,0.337,17.477,0,17.95,0H22c0.827,0,1.5,0.673,1.5,1.5v21c0,0.827-0.673,1.5-1.5,1.5H9z
		 M8.5,22.5C8.5,22.776,8.724,23,9,23h13c0.276,0,0.5-0.224,0.5-0.5v-21C22.5,1.224,22.276,1,22,1h-4.05
		c-0.235,1.16-1.265,2.002-2.449,2.002c-0.167,0-0.334-0.017-0.498-0.05C14.017,2.752,13.25,1.985,13.05,1L9,1
		C8.724,1,8.5,1.224,8.5,1.5V12H12c0.122,0,0.245,0.009,0.365,0.027c0.661,0.097,1.244,0.446,1.643,0.982
		c0.398,0.536,0.564,1.195,0.467,1.855c-0.016,0.082-0.035,0.162-0.057,0.239l2.555,0.952l1.786-1.218
		c0.268-0.185,0.584-0.282,0.912-0.282c0.12,0,0.24,0.013,0.357,0.04c0.568,0.132,1.021,0.539,1.213,1.088
		c0.062,0.173,0.094,0.357,0.094,0.544c0.012,0.574-0.287,1.128-0.781,1.44l-6.765,4.202c-0.145,0.09-0.312,0.138-0.483,0.138
		c-0.189,0-0.371-0.058-0.527-0.167l-2.478-1.74c-0.175-0.139-0.272-0.311-0.294-0.509c-0.021-0.194,0.035-0.385,0.157-0.536
		c0.037-0.046,0.08-0.087,0.126-0.123l1.011-0.894c0.143-0.116,0.31-0.176,0.479-0.176c0.082,0,0.162,0.014,0.239,0.041
		c0.032,0.011,0.062,0.025,0.09,0.042l1.023,0.612l0.766-0.535l-1.673-1.041c-0.108,0.013-0.212,0.02-0.315,0.02L11.835,17H9.466
		c-0.103,0.76-0.44,1.471-0.966,2.031V22.5z M13.309,20.99l6.715-4.171c0.197-0.124,0.317-0.348,0.312-0.583
		c0-0.081-0.012-0.151-0.036-0.22c-0.08-0.227-0.264-0.394-0.495-0.448c-0.042-0.01-0.087-0.014-0.132-0.014
		c-0.123,0-0.246,0.038-0.347,0.107l-2.002,1.365c-0.083,0.057-0.181,0.087-0.282,0.087c-0.06,0-0.118-0.01-0.174-0.031L13.962,16
		c-0.16,0.206-0.349,0.386-0.561,0.534l1.67,1.04c0.143,0.089,0.231,0.242,0.236,0.411c0.004,0.168-0.075,0.327-0.214,0.423
		l-1.653,1.154c-0.084,0.059-0.183,0.09-0.286,0.09l0,0c-0.09,0-0.179-0.024-0.257-0.071l-1.093-0.653l-0.635,0.561L13.309,20.99z"
		/>
	<circle cx="10.25" cy="7.25" r="0.75"/>
	<circle cx="12.75" cy="7.25" r="0.75"/>
	<circle cx="15.25" cy="7.25" r="0.75"/>
	<circle cx="17.75" cy="7.25" r="0.75"/>
	<circle cx="20.25" cy="7.25" r="0.75"/>
</g>
</svg>
