<?xml version="1.0" encoding="utf-8"?>
<!-- Generator: Adobe Illustrator 22.1.0, SVG Export Plug-In . SVG Version: 6.00 Build 0)  -->
<svg version="1.1" id="Light" xmlns="http://www.w3.org/2000/svg" xmlns:xlink="http://www.w3.org/1999/xlink" x="0px" y="0px"
	 viewBox="0 0 24 24" style="enable-background:new 0 0 24 24;" xml:space="preserve">
<g>
	<title>fireworks-people-watch</title>
	<path d="M5,19.5c-1.516,0-2.75-1.234-2.75-2.75S3.484,14,5,14s2.75,1.234,2.75,2.75S6.516,19.5,5,19.5z M5,15
		c-0.965,0-1.75,0.785-1.75,1.75S4.035,18.5,5,18.5s1.75-0.785,1.75-1.75S5.965,15,5,15z"/>
	<path d="M19,19.5c-1.516,0-2.75-1.234-2.75-2.75S17.484,14,19,14s2.75,1.234,2.75,2.75S20.516,19.5,19,19.5z M19,15
		c-0.965,0-1.75,0.785-1.75,1.75S18.035,18.5,19,18.5s1.75-0.785,1.75-1.75S19.965,15,19,15z"/>
	<path d="M23.499,24.001c-0.229,0-0.427-0.155-0.484-0.377c-0.375-1.47-1.521-2.616-2.991-2.991c-0.339-0.086-0.686-0.13-1.032-0.13
		c-0.737,0-1.466,0.201-2.107,0.582c-0.195,0.115-0.388,0.255-0.576,0.416c-0.037,0.048-0.081,0.088-0.13,0.119
		c-0.003,0.002-0.008,0.005-0.013,0.007c-0.576,0.539-0.984,1.229-1.181,1.998C14.928,23.846,14.729,24,14.5,24
		c-0.042,0-0.084-0.005-0.125-0.016c-0.128-0.032-0.237-0.114-0.305-0.229c-0.068-0.115-0.088-0.25-0.054-0.379
		c0.215-0.844,0.642-1.618,1.24-2.251c-0.773-1.015-1.98-1.615-3.268-1.615c-0.755,0-1.495,0.21-2.14,0.608
		c-0.416,0.257-0.794,0.603-1.102,1.008c0.597,0.633,1.024,1.406,1.239,2.25c0.033,0.129,0.014,0.264-0.055,0.379
		c-0.068,0.115-0.177,0.196-0.307,0.229C9.584,23.995,9.542,24,9.5,24c-0.229,0-0.428-0.155-0.484-0.376
		c-0.196-0.77-0.604-1.459-1.18-1.998c-0.005-0.003-0.01-0.006-0.015-0.008c-0.049-0.03-0.092-0.07-0.129-0.118
		c-0.187-0.16-0.381-0.299-0.576-0.416c-0.642-0.381-1.37-0.582-2.108-0.582c-0.345,0-0.693,0.044-1.032,0.13
		c-1.47,0.375-2.617,1.521-2.992,2.992c-0.057,0.222-0.255,0.377-0.484,0.377c-0.042,0-0.084-0.005-0.125-0.016
		c-0.129-0.033-0.237-0.114-0.306-0.229c-0.068-0.115-0.088-0.25-0.055-0.379c0.465-1.825,1.888-3.248,3.713-3.713
		c0.42-0.107,0.851-0.162,1.28-0.162c0.916,0,1.821,0.25,2.617,0.722c0.118,0.07,0.236,0.148,0.361,0.239
		c0.371-0.472,0.829-0.883,1.336-1.195c0.803-0.495,1.724-0.757,2.664-0.757c1.575,0,3.061,0.726,4.023,1.955
		c0.126-0.093,0.245-0.171,0.365-0.242c0.797-0.473,1.702-0.722,2.618-0.722c0.429,0,0.859,0.054,1.279,0.162
		c1.825,0.465,3.248,1.888,3.713,3.713c0.033,0.129,0.014,0.264-0.054,0.379c-0.068,0.115-0.177,0.196-0.307,0.229
		C23.584,23.995,23.542,24.001,23.499,24.001L23.499,24.001z"/>
	<path d="M12,18.5c-1.516,0-2.75-1.234-2.75-2.75S10.484,13,12,13s2.75,1.234,2.75,2.75S13.516,18.5,12,18.5z M12,14
		c-0.965,0-1.75,0.785-1.75,1.75S11.035,17.5,12,17.5c0.965,0,1.75-0.785,1.75-1.75S12.965,14,12,14z"/>
	<path d="M7.5,2.5c-0.134,0-0.259-0.052-0.354-0.146L6.75,1.957L6.354,2.354C6.259,2.448,6.134,2.5,6,2.5S5.741,2.448,5.647,2.354
		S5.5,2.134,5.5,2s0.052-0.259,0.146-0.354L6.043,1.25L5.647,0.854C5.552,0.759,5.5,0.634,5.5,0.5s0.052-0.259,0.146-0.354
		S5.867,0,6,0s0.259,0.052,0.354,0.146L6.75,0.543l0.396-0.396C7.241,0.052,7.367,0,7.5,0s0.259,0.052,0.354,0.146S8,0.367,8,0.5
		S7.948,0.759,7.854,0.854L7.457,1.25l0.396,0.396C7.948,1.741,8,1.867,8,2S7.948,2.259,7.854,2.354S7.634,2.5,7.5,2.5z"/>
	<path d="M17.5,3.5c-0.134,0-0.259-0.052-0.354-0.146L16.75,2.957l-0.396,0.396C16.259,3.448,16.134,3.5,16,3.5
		s-0.259-0.052-0.354-0.146S15.5,3.134,15.5,3s0.052-0.259,0.146-0.354l0.396-0.396l-0.396-0.396C15.552,1.759,15.5,1.634,15.5,1.5
		s0.052-0.259,0.146-0.354S15.867,1,16,1s0.259,0.052,0.354,0.146l0.396,0.396l0.396-0.396C17.241,1.052,17.367,1,17.5,1
		s0.259,0.052,0.354,0.146S18,1.367,18,1.5s-0.052,0.259-0.146,0.354L17.457,2.25l0.396,0.396C17.948,2.741,18,2.867,18,3
		s-0.052,0.259-0.146,0.354S17.634,3.5,17.5,3.5z"/>
	<path d="M22.5,7.5c-0.134,0-0.259-0.052-0.354-0.146L21.75,6.957l-0.396,0.396C21.259,7.448,21.134,7.5,21,7.5
		s-0.259-0.052-0.354-0.146S20.5,7.134,20.5,7s0.052-0.259,0.146-0.354l0.396-0.396l-0.396-0.396C20.552,5.759,20.5,5.634,20.5,5.5
		s0.052-0.259,0.146-0.354S20.867,5,21,5s0.259,0.052,0.354,0.146l0.396,0.396l0.396-0.396C22.241,5.052,22.367,5,22.5,5
		s0.259,0.052,0.354,0.146S23,5.367,23,5.5s-0.052,0.259-0.146,0.354L22.457,6.25l0.396,0.396C22.948,6.741,23,6.867,23,7
		s-0.052,0.259-0.146,0.354S22.634,7.5,22.5,7.5z"/>
	<path d="M3,6C2.867,6,2.741,5.948,2.647,5.854L2.25,5.457L1.854,5.854C1.759,5.948,1.634,6,1.5,6S1.241,5.948,1.147,5.854
		S1,5.634,1,5.5s0.052-0.259,0.146-0.354L1.543,4.75L1.147,4.354C1.052,4.259,1,4.134,1,4s0.052-0.259,0.146-0.354
		S1.367,3.5,1.5,3.5s0.259,0.052,0.354,0.146L2.25,4.043l0.396-0.396C2.741,3.552,2.867,3.5,3,3.5s0.259,0.052,0.354,0.146
		S3.5,3.867,3.5,4S3.448,4.259,3.354,4.354L2.957,4.75l0.396,0.396C3.448,5.241,3.5,5.367,3.5,5.5S3.448,5.759,3.354,5.854
		S3.134,6,3,6z"/>
	<path d="M15.34,11.528c-0.064,0-0.127-0.012-0.186-0.036c-0.123-0.049-0.22-0.144-0.273-0.267
		c-0.053-0.123-0.054-0.259-0.005-0.383c0.849-2.122,2.442-3.854,4.487-4.875c0.069-0.035,0.146-0.053,0.223-0.053
		c0.191,0,0.363,0.106,0.448,0.277c0.06,0.119,0.069,0.255,0.027,0.381s-0.131,0.229-0.251,0.289
		c-1.825,0.912-3.247,2.458-4.005,4.353C15.728,11.405,15.546,11.528,15.34,11.528z"/>
	<path d="M13.5,8.5c-0.251,0-0.465-0.188-0.496-0.438c-0.293-2.338-1.726-4.362-3.833-5.415L8.774,2.446
		c-0.119-0.06-0.207-0.163-0.249-0.291C8.483,2.029,8.494,1.893,8.554,1.774C8.64,1.605,8.811,1.5,9,1.5
		c0.078,0,0.156,0.019,0.226,0.054l0.394,0.2c2.405,1.202,4.041,3.514,4.376,6.184c0.034,0.274-0.161,0.524-0.434,0.558
		C13.542,8.499,13.521,8.5,13.5,8.5z"/>
	<path d="M12,12c-0.21,0-0.398-0.132-0.47-0.329l-0.257-0.708c-1.016-2.793-3.457-4.89-6.371-5.472
		C4.771,5.465,4.658,5.389,4.584,5.278C4.51,5.167,4.484,5.033,4.51,4.902C4.556,4.669,4.762,4.5,4.999,4.5
		c0.033,0,0.066,0.003,0.099,0.01c3.254,0.651,5.98,2.992,7.115,6.111l0.257,0.708c0.046,0.125,0.04,0.261-0.017,0.382
		c-0.056,0.121-0.157,0.213-0.282,0.258C12.116,11.99,12.058,12,12,12z"/>
</g>
</svg>
