<?xml version="1.0" encoding="utf-8"?>
<!-- Generator: Adobe Illustrator 22.1.0, SVG Export Plug-In . SVG Version: 6.00 Build 0)  -->
<svg version="1.1" id="Light" xmlns="http://www.w3.org/2000/svg" xmlns:xlink="http://www.w3.org/1999/xlink" x="0px" y="0px"
	 viewBox="0 0 24 24" style="enable-background:new 0 0 24 24;" xml:space="preserve">
<g>
	<title>fireworks-rocket</title>
	<path d="M2.506,18.573c-0.134,0-0.259-0.052-0.354-0.146s-0.146-0.22-0.146-0.354s0.052-0.259,0.146-0.354l6.26-6.26l-1.061-1.061
		c-0.283-0.283-0.439-0.66-0.439-1.061c0-0.401,0.156-0.777,0.439-1.061l6.011-6.011l-0.56-0.56
		c-0.187-0.186-0.294-0.445-0.293-0.709c0-0.267,0.105-0.518,0.294-0.707c0.189-0.188,0.432-0.292,0.684-0.292
		c0.003,0,7.507,0,7.507,0c0.552,0,1,0.449,1,1v7.485c0,0.266-0.104,0.517-0.291,0.705c-0.189,0.19-0.441,0.294-0.709,0.294
		c-0.267,0-0.517-0.104-0.706-0.292l-0.562-0.562l-6.011,6.011c-0.283,0.283-0.659,0.439-1.061,0.439
		c-0.401,0-0.778-0.156-1.061-0.439l-1.072-1.072c-0.286,0.312-0.692,0.872-0.74,1.571c-0.052,0.759,0.32,1.543,1.105,2.329
		c0.195,0.195,0.195,0.512,0,0.707c-0.094,0.094-0.22,0.146-0.354,0.146s-0.259-0.052-0.354-0.146
		c-1.001-1.001-1.471-2.048-1.396-3.11c0.071-1.007,0.613-1.766,1.028-2.206l-0.694-0.693l-6.26,6.26
		C2.765,18.521,2.639,18.573,2.506,18.573z M8.058,8.985c-0.195,0.195-0.195,0.512,0,0.707l4.243,4.243
		c0.094,0.094,0.22,0.146,0.354,0.146c0.134,0,0.259-0.052,0.354-0.146l6.01-6.01l-4.95-4.95L8.058,8.985z M13.507,0.999
		l7.487,7.485l-0.001-7.485H13.507L13.507,0.999z"/>
	<path d="M13.494,23.999c-0.19,0-0.362-0.106-0.447-0.276l-0.926-1.851l-1.851-0.925c-0.171-0.085-0.276-0.257-0.276-0.447
		s0.106-0.362,0.276-0.447l1.851-0.926l0.925-1.851c0.082-0.164,0.253-0.265,0.447-0.265s0.365,0.102,0.447,0.265l0.926,1.851
		l1.851,0.925c0.171,0.085,0.276,0.257,0.276,0.447s-0.106,0.362-0.276,0.447l-1.851,0.926l-0.925,1.851
		C13.856,23.894,13.684,23.999,13.494,23.999z M12.717,21.052c0.096,0.048,0.176,0.127,0.224,0.224l0.553,1.105l0.553-1.105
		c0.048-0.096,0.127-0.176,0.224-0.224l1.105-0.553l-1.105-0.553c-0.096-0.048-0.176-0.127-0.224-0.224l-0.553-1.105l-0.553,1.105
		c-0.048,0.096-0.127,0.176-0.224,0.224l-1.106,0.553L12.717,21.052z"/>
</g>
</svg>
