<?xml version="1.0" encoding="utf-8"?>
<!-- Generator: Adobe Illustrator 22.1.0, SVG Export Plug-In . SVG Version: 6.00 Build 0)  -->
<svg version="1.1" id="Light" xmlns="http://www.w3.org/2000/svg" xmlns:xlink="http://www.w3.org/1999/xlink" x="0px" y="0px"
	 viewBox="0 0 24 24" style="enable-background:new 0 0 24 24;" xml:space="preserve">
<g>
	<title>fireworks-stick</title>
	<path d="M5.5,3C5.225,3,5,2.776,5,2.5V2H4.5C4.225,2,4,1.776,4,1.5S4.225,1,4.5,1H5V0.5C5,0.224,5.225,0,5.5,0S6,0.224,6,0.5V1h0.5
		C6.776,1,7,1.224,7,1.5S6.776,2,6.5,2H6v0.5C6,2.776,5.776,3,5.5,3z"/>
	<path d="M3.5,14C3.225,14,3,13.776,3,13.5V13H2.5C2.225,13,2,12.776,2,12.5C2,12.224,2.225,12,2.5,12H3v-0.5
		C3,11.224,3.225,11,3.5,11S4,11.224,4,11.5V12h0.5C4.776,12,5,12.224,5,12.5C5,12.776,4.776,13,4.5,13H4v0.5
		C4,13.776,3.776,14,3.5,14z"/>
	<path d="M22.5,16c-0.276,0-0.5-0.224-0.5-0.5V15h-0.5c-0.276,0-0.5-0.224-0.5-0.5s0.224-0.5,0.5-0.5H22v-0.5
		c0-0.276,0.224-0.5,0.5-0.5s0.5,0.224,0.5,0.5V14h0.5c0.276,0,0.5,0.224,0.5,0.5S23.776,15,23.5,15H23v0.5
		C23,15.776,22.776,16,22.5,16z"/>
	<path d="M16.5,23c-0.276,0-0.5-0.224-0.5-0.5V22h-0.5c-0.276,0-0.5-0.224-0.5-0.5s0.224-0.5,0.5-0.5H16v-0.5
		c0-0.276,0.224-0.5,0.5-0.5s0.5,0.224,0.5,0.5V21h0.5c0.276,0,0.5,0.224,0.5,0.5S17.776,22,17.5,22H17v0.5
		C17,22.776,16.776,23,16.5,23z"/>
	<circle cx="2.5" cy="4.5" r="0.75"/>
	<circle cx="21.5" cy="6.5" r="0.75"/>
	<circle cx="11.5" cy="18.5" r="0.75"/>
	<path d="M0.5,24c-0.134,0-0.259-0.052-0.354-0.146c-0.195-0.195-0.195-0.512,0-0.707l4.942-4.942
		c-0.271-0.559-0.17-1.229,0.274-1.688l6.37-6.37c0.286-0.276,0.659-0.427,1.052-0.427c0.422,0.007,0.796,0.17,1.075,0.458
		c0.564,0.585,0.564,1.5,0,2.084l-6.37,6.37c-0.287,0.277-0.657,0.427-1.048,0.427c-0.225,0-0.445-0.05-0.646-0.147l-4.942,4.942
		C0.759,23.948,0.634,24,0.5,24z M12.781,10.719c-0.13,0-0.253,0.05-0.347,0.14l-6.358,6.358c-0.183,0.19-0.182,0.494,0.006,0.689
		c0.095,0.098,0.223,0.152,0.36,0.152c0.13,0,0.253-0.049,0.346-0.139l6.359-6.359c0.183-0.19,0.182-0.494-0.006-0.688
		c-0.093-0.096-0.218-0.15-0.351-0.153l-0.009-0.25L12.781,10.719z"/>
	<path d="M10.501,8.5c-0.173,0-0.331-0.087-0.423-0.234c-1.006-1.597-2.73-2.632-4.613-2.767c-0.275-0.02-0.483-0.26-0.463-0.535
		C5.02,4.704,5.239,4.5,5.499,4.5c0.006,0,0.031,0.001,0.038,0.001c2.198,0.159,4.212,1.367,5.387,3.232
		c0.071,0.113,0.094,0.247,0.064,0.377c-0.03,0.13-0.108,0.241-0.221,0.312C10.687,8.473,10.595,8.5,10.501,8.5z"/>
	<path d="M13.001,7.5c-0.041,0-0.081-0.005-0.119-0.014c-0.129-0.031-0.239-0.111-0.308-0.225c-0.07-0.114-0.09-0.249-0.059-0.378
		c0.299-1.231,0.299-2.532,0-3.764c-0.031-0.13-0.011-0.264,0.059-0.378c0.069-0.114,0.179-0.194,0.309-0.226
		C12.92,2.505,12.961,2.5,13.001,2.5c0.231,0,0.43,0.157,0.485,0.382c0.337,1.386,0.337,2.851,0,4.237
		C13.432,7.343,13.232,7.5,13.001,7.5z"/>
	<path d="M15.5,8.5c-0.091,0-0.18-0.025-0.258-0.072c-0.114-0.068-0.195-0.178-0.227-0.307s-0.012-0.264,0.057-0.379
		c1.314-2.183,3.36-3.857,5.76-4.713C20.887,3.01,20.943,3,21.001,3c0.211,0,0.4,0.133,0.471,0.332
		c0.045,0.126,0.038,0.261-0.019,0.382c-0.057,0.121-0.158,0.212-0.284,0.257c-2.183,0.779-4.044,2.301-5.24,4.287
		C15.839,8.407,15.675,8.5,15.5,8.5z"/>
	<path d="M20,12c-0.134,0-0.259-0.052-0.354-0.146c-0.77-0.77-1.881-0.931-2.678-0.931c-0.512,0-0.868,0.068-0.872,0.068
		C16.064,10.997,16.033,11,16.002,11c-0.239,0-0.445-0.169-0.491-0.402c-0.054-0.27,0.122-0.534,0.392-0.588
		c0.047-0.01,0.481-0.092,1.083-0.092c0.976,0,2.353,0.213,3.368,1.229c0.195,0.195,0.195,0.512,0,0.707
		C20.259,11.948,20.134,12,20,12z"/>
	<path d="M19,17.5c-0.218,0-0.409-0.139-0.476-0.347c-0.522-1.62-1.703-2.969-3.239-3.702c-0.12-0.057-0.211-0.158-0.256-0.284
		c-0.045-0.126-0.038-0.262,0.02-0.382c0.082-0.173,0.259-0.285,0.451-0.285c0.075,0,0.148,0.017,0.216,0.049
		c1.783,0.85,3.154,2.417,3.76,4.298c0.084,0.262-0.06,0.545-0.323,0.629C19.103,17.492,19.052,17.5,19,17.5z"/>
	<path d="M14.5,18c-0.276,0-0.5-0.224-0.5-0.5V15c0-0.276,0.224-0.5,0.5-0.5S15,14.724,15,15v2.5C15,17.776,14.776,18,14.5,18z"/>
	<path d="M7.001,11.5c-0.199,0-0.38-0.118-0.459-0.301c-0.053-0.122-0.055-0.258-0.006-0.383c0.049-0.124,0.144-0.222,0.266-0.275
		c0.829-0.359,1.709-0.542,2.615-0.542L9.507,10c0.134,0.002,0.259,0.056,0.352,0.151c0.093,0.096,0.143,0.222,0.141,0.356
		C9.997,10.783,9.776,11,9.499,11l-0.098-0.001c-0.757,0-1.498,0.155-2.202,0.46C7.136,11.486,7.069,11.5,7.001,11.5z"/>
</g>
</svg>
