<?xml version="1.0" encoding="utf-8"?>
<!-- Generator: Adobe Illustrator 22.1.0, SVG Export Plug-In . SVG Version: 6.00 Build 0)  -->
<svg version="1.1" id="Light" xmlns="http://www.w3.org/2000/svg" xmlns:xlink="http://www.w3.org/1999/xlink" x="0px" y="0px"
	 viewBox="0 0 24 24" style="enable-background:new 0 0 24 24;" xml:space="preserve">
<g>
	<title>athletics-shooting</title>
	<path d="M11.501,24.026c-0.426,0-0.834-0.134-1.179-0.388c-0.431-0.316-0.713-0.781-0.794-1.309L9,19.269l-0.537,3.117
		c-0.099,0.529-0.396,0.985-0.838,1.286c-0.335,0.229-0.724,0.349-1.125,0.349c-0.124,0-0.25-0.012-0.373-0.035
		c-0.525-0.098-0.98-0.396-1.282-0.836c-0.302-0.441-0.413-0.973-0.315-1.498L5.5,15.46v-3.899c-0.585,0.177-1,0.718-1,1.353V14.5
		c0,1.103-0.897,2-2,2s-2-0.897-2-2v-1.586c0-1.447,0.564-2.807,1.586-3.829C3.109,8.062,4.467,7.5,5.913,7.5H16.5V6
		c0-0.827,0.673-1.5,1.5-1.5h4.5V3.646c0-0.276,0.224-0.5,0.5-0.5s0.5,0.224,0.5,0.5V5c0,0.276-0.224,0.5-0.5,0.5h-1.5v1
		c0,0.551-0.448,1-1,1h-1v0.679C19.823,8.545,20,9.01,20,9.5c0,1.103-0.897,2-2,2h-5.5v3.961c0,0,0.978,6.238,0.982,6.263
		c0.081,0.527-0.049,1.055-0.365,1.486c-0.316,0.431-0.781,0.713-1.309,0.793C11.707,24.018,11.603,24.026,11.501,24.026z M9,15.827
		c0.244,0,0.451,0.175,0.493,0.415l1.022,5.927c0.042,0.271,0.183,0.505,0.398,0.663c0.173,0.127,0.377,0.194,0.59,0.194
		c0.051,0,0.103-0.004,0.154-0.012c0.264-0.041,0.496-0.181,0.654-0.397c0.158-0.215,0.222-0.479,0.182-0.744l-0.007-0.039
		l-0.98-6.258C11.502,15.552,11.5,15.526,11.5,15.5V11c0-0.276,0.224-0.5,0.5-0.5h6c0.552,0,1-0.449,1-1s-0.448-1-1-1H5.914
		c-1.179,0-2.287,0.459-3.121,1.292C1.959,10.625,1.5,11.733,1.5,12.912V14.5c0,0.552,0.449,1,1,1s1-0.448,1-1v-1.586
		C3.501,11.582,4.584,10.5,5.915,10.5H6c0.276,0,0.5,0.224,0.5,0.5v4.5c0,0.026-0.002,0.053-0.006,0.079l-0.978,6.243
		c-0.051,0.275,0.004,0.544,0.155,0.764c0.151,0.22,0.378,0.369,0.641,0.418c0.062,0.011,0.125,0.018,0.187,0.018
		c0.2,0,0.394-0.061,0.561-0.175c0.221-0.151,0.369-0.378,0.418-0.641l1.028-5.964C8.549,16.001,8.756,15.827,9,15.827z M18,7.5
		c0.17,0,0.337,0.022,0.5,0.064V7c0-0.276,0.224-0.5,0.5-0.5h1.5v-1H18c-0.276,0-0.5,0.224-0.5,0.5v1.5H18z"/>
	<path d="M8.5,6.5c-1.654,0-3-1.346-3-3V3.498C5.368,3.487,5.246,3.424,5.16,3.322C5.065,3.209,5.024,3.061,5.049,2.916
		c0.248-1.467,1.4-2.619,2.867-2.867c0.195-0.033,0.394-0.05,0.591-0.05c0.725,0,1.424,0.224,2.021,0.648
		c0.637,0.453,1.101,1.105,1.323,1.853H12.5C12.776,2.5,13,2.724,13,3s-0.224,0.5-0.5,0.5h-1C11.5,5.154,10.154,6.5,8.5,6.5z
		 M6.5,3.5c0,1.103,0.897,2,2,2s2-0.897,2-2H6.5z M10.792,2.5C10.399,1.602,9.5,1,8.502,1c-0.139,0-0.28,0.012-0.419,0.035
		C7.249,1.176,6.544,1.736,6.209,2.5H10.792z"/>
</g>
</svg>
