<?xml version="1.0" encoding="utf-8"?>
<!-- Generator: Adobe Illustrator 22.1.0, SVG Export Plug-In . SVG Version: 6.00 Build 0)  -->
<svg version="1.1" id="Light" xmlns="http://www.w3.org/2000/svg" xmlns:xlink="http://www.w3.org/1999/xlink" x="0px" y="0px"
	 viewBox="0 0 24 24" style="enable-background:new 0 0 24 24;" xml:space="preserve">
<g>
	<title>athletics-jumping-person</title>
	<path d="M14.003,6c-1.654,0-3-1.346-3-3s1.346-3,3-3s3,1.346,3,3S15.657,6,14.003,6z M14.003,1c-1.103,0-2,0.897-2,2s0.897,2,2,2
		s2-0.897,2-2S15.105,1,14.003,1z"/>
	<path d="M18.996,19.485c-0.577,0-1.126-0.248-1.505-0.681l-1.996-2.329c-0.19-0.222-0.464-0.35-0.753-0.35
		c-0.031,0-0.063,0.002-0.094,0.005l-3.208,0.291l-0.605,1.379C10.517,18.529,9.798,19,9.003,19h-6.5c-1.103,0-2-0.897-2-2
		s0.897-2,2-2h5.194l2.249-5.124L8.489,9.413c-0.1-0.033-0.202-0.049-0.306-0.049c-0.238,0-0.467,0.085-0.645,0.24l-2.26,1.938
		c-0.361,0.303-0.817,0.469-1.286,0.469c-0.594,0-1.153-0.26-1.533-0.714c-0.343-0.409-0.507-0.928-0.46-1.46
		c0.047-0.532,0.298-1.014,0.707-1.358l2.226-1.909c0.9-0.776,2.058-1.204,3.261-1.204c0.516,0,1.025,0.079,1.512,0.236l7.665,2.438
		c0.1,0.032,0.203,0.048,0.306,0.048c0.265,0,0.516-0.104,0.705-0.293l1.709-1.709c0.377-0.377,0.879-0.585,1.414-0.585
		s1.037,0.208,1.414,0.585c0.011,0.011,0.024,0.025,0.036,0.04c0.748,0.787,0.737,2.019-0.037,2.791l-1.707,1.708
		c-0.944,0.946-2.196,1.468-3.525,1.468l0,0c-0.517,0-1.031-0.08-1.527-0.239l-2.378-0.756l-0.503,1.142l1.002-0.091
		c0.15-0.014,0.303-0.021,0.454-0.021c1.462,0,2.846,0.637,3.795,1.748l1.995,2.321c0.697,0.831,0.601,2.083-0.21,2.794
		C19.95,19.309,19.482,19.485,18.996,19.485z M14.739,15.126c0.585,0,1.138,0.255,1.517,0.7l1.991,2.323
		c0.173,0.197,0.416,0.317,0.683,0.334c0.024,0.002,0.047,0.002,0.07,0.002c0.243,0,0.47-0.086,0.655-0.248
		c0.406-0.356,0.454-0.981,0.107-1.395l-1.992-2.317c-0.76-0.889-1.865-1.399-3.032-1.399c-0.122,0-0.245,0.006-0.367,0.017
		l-1.847,0.168c-0.008,0.001-0.038,0.002-0.046,0.002c-0.16,0-0.312-0.078-0.405-0.208c-0.103-0.143-0.123-0.332-0.052-0.493
		l1.025-2.33c0.08-0.181,0.26-0.298,0.458-0.298c0.051,0,0.102,0.008,0.15,0.023l2.807,0.893c0.398,0.127,0.809,0.192,1.223,0.192
		c1.062,0,2.063-0.417,2.818-1.174l1.708-1.709c0.39-0.39,0.391-1.025,0.002-1.415c-0.19-0.19-0.441-0.293-0.708-0.293
		s-0.519,0.104-0.707,0.292l-1.709,1.709c-0.378,0.378-0.879,0.586-1.411,0.586c-0.207,0-0.412-0.032-0.61-0.095L9.399,6.554
		c-0.39-0.125-0.796-0.189-1.208-0.189c-0.962,0-1.888,0.342-2.607,0.963L3.352,9.241C3.144,9.415,3.018,9.657,2.994,9.923
		c-0.023,0.266,0.058,0.525,0.23,0.73c0.172,0.204,0.413,0.33,0.679,0.353c0.03,0.003,0.059,0.004,0.089,0.004
		c0.237,0,0.459-0.081,0.641-0.234l2.251-1.93c0.357-0.311,0.819-0.483,1.299-0.483c0.209,0,0.415,0.033,0.612,0.097l1.982,0.631
		c0.135,0.043,0.246,0.142,0.304,0.271c0.058,0.129,0.059,0.277,0.002,0.407l-2.603,5.932C8.402,15.882,8.222,16,8.024,16H2.503
		c-0.551,0-1,0.448-1,1s0.449,1,1,1h6.5c0.397,0,0.757-0.236,0.916-0.6l0.724-1.65c0.073-0.167,0.231-0.28,0.412-0.297l3.5-0.318
		C14.617,15.129,14.678,15.126,14.739,15.126z"/>
	<path d="M11.003,24c-0.276,0-0.5-0.224-0.5-0.5s0.224-0.5,0.5-0.5h1.5v-5c0-0.276,0.224-0.5,0.5-0.5s0.5,0.224,0.5,0.5v5h1.5
		c0.276,0,0.5,0.224,0.5,0.5s-0.224,0.5-0.5,0.5H11.003z"/>
</g>
</svg>
