<?xml version="1.0" encoding="utf-8"?>
<!-- Generator: Adobe Illustrator 22.1.0, SVG Export Plug-In . SVG Version: 6.00 Build 0)  -->
<svg version="1.1" id="Light" xmlns="http://www.w3.org/2000/svg" xmlns:xlink="http://www.w3.org/1999/xlink" x="0px" y="0px"
	 viewBox="0 0 24 24" style="enable-background:new 0 0 24 24;" xml:space="preserve">
<g>
	<title>athletics-long-jumping</title>
	<path d="M11.5,6c-1.654,0-3-1.346-3-3s1.346-3,3-3c1.654,0,3,1.346,3,3S13.154,6,11.5,6z M11.5,1c-1.103,0-2,0.897-2,2s0.897,2,2,2
		s2-0.897,2-2S12.603,1,11.5,1z"/>
	<path d="M15.5,19.5c-0.338,0-0.673-0.087-0.969-0.25c0,0-4.049-2.249-4.05-2.25L5.5,17.001c-0.534,0-1.037-0.208-1.414-0.586
		C3.708,16.038,3.5,15.536,3.5,15.001c0-0.216,0.035-0.429,0.103-0.634l2.5-7.5C6.272,6.361,6.628,5.95,7.106,5.712
		C7.387,5.571,7.688,5.5,7.998,5.5c0.215,0,0.428,0.035,0.634,0.104c0.161,0.054,0.314,0.127,0.455,0.219l3.248,2.107
		c0.119,0.048,0.244,0.072,0.372,0.072H16c1.103,0,2,0.897,2,2s-0.897,2-2,2h-3.292c-0.772-0.001-1.545-0.183-2.235-0.527
		c-0.066-0.033-0.132-0.07-0.196-0.112L9.08,10.585L8.275,13h2.206c0.679,0,1.35,0.175,1.943,0.504l4.047,2.247
		c0.964,0.534,1.314,1.754,0.78,2.718C16.898,19.105,16.227,19.5,15.5,19.5L15.5,19.5z M7.999,6.5c-0.155,0-0.305,0.036-0.446,0.106
		C7.314,6.725,7.136,6.931,7.051,7.184l-2.5,7.5C4.517,14.787,4.5,14.894,4.5,15.001c0,0.267,0.104,0.518,0.293,0.707
		c0.189,0.189,0.44,0.293,0.707,0.293h4.983c0.192,0.009,0.352,0.051,0.487,0.126l4.046,2.248c0.148,0.082,0.316,0.125,0.486,0.125
		c0.364,0,0.699-0.198,0.875-0.515c0.267-0.482,0.092-1.092-0.39-1.359l-4.047-2.248C11.494,14.131,10.99,14,10.481,14h-2.9
		c-0.161,0-0.312-0.078-0.406-0.208c-0.094-0.13-0.119-0.298-0.069-0.45l1.229-3.686C8.385,9.51,8.5,9.393,8.645,9.342
		C8.698,9.323,8.754,9.314,8.81,9.314c0.097,0,0.191,0.028,0.272,0.081l1.74,1.129c0.031,0.02,0.062,0.038,0.095,0.054
		c0.555,0.276,1.174,0.423,1.792,0.423H16c0.552,0,1-0.449,1-1s-0.448-1-1-1h-3.292c-0.281,0-0.554-0.058-0.811-0.172
		c-0.025-0.011-0.048-0.024-0.07-0.038L8.544,6.661C8.473,6.616,8.396,6.579,8.316,6.552C8.213,6.517,8.106,6.5,7.999,6.5z"/>
	<path d="M8,24c-0.174,0-0.333-0.088-0.425-0.236l-2.332-3.763L0.5,20C0.224,20,0,19.776,0,19.5S0.224,19,0.5,19h4.743
		c0.323,0,0.626,0.156,0.813,0.418l2.369,3.818c0.145,0.234,0.073,0.543-0.162,0.688C8.184,23.974,8.093,24,8,24z"/>
	<path d="M23.25,24c-0.414,0-0.75-0.336-0.75-0.75c0-0.383,0.287-0.702,0.669-0.743c0.011-0.001,0.022-0.002,0.032-0.002
		c0.005-0.003,0.027-0.005,0.049-0.005c0.011,0,0.032,0.002,0.044,0.003l0.015,0.001C23.689,22.526,24,22.854,24,23.25
		C24,23.664,23.664,24,23.25,24z"/>
	<path d="M15.25,24c-0.414,0-0.75-0.336-0.75-0.75c0-0.384,0.29-0.704,0.674-0.744C15.21,22.502,15.23,22.5,15.25,22.5
		c0.01,0,0.046,0.003,0.051,0.004C15.689,22.526,16,22.854,16,23.25C16,23.664,15.664,24,15.25,24z"/>
	<circle cx="19.25" cy="23.25" r="0.75"/>
	<path d="M11.25,24c-0.414,0-0.75-0.336-0.75-0.75c0-0.015,0.002-0.033,0.005-0.051c0.02-0.352,0.301-0.65,0.661-0.691
		c0.006-0.001,0.047-0.006,0.06-0.006C11.234,22.5,11.242,22.5,11.25,22.5c0.01,0,0.061,0.005,0.073,0.006
		c0.354,0.025,0.648,0.322,0.673,0.693c0.003,0.018,0.005,0.036,0.005,0.051c0,0.414-0.336,0.75-0.75,0.75
		C11.252,24,11.25,24,11.25,24z"/>
	<path d="M9.25,22c-0.414,0-0.75-0.336-0.75-0.75c0-0.388,0.304-0.716,0.693-0.745c-0.002,0,0.016-0.002,0.034-0.003
		c0.01,0,0.018,0,0.026,0c0.027,0,0.042,0.001,0.058,0.004c0.007,0,0.016,0.001,0.024,0.003C9.714,20.55,10,20.868,10,21.25
		C10,21.664,9.664,22,9.25,22z"/>
	<path d="M17.25,22c-0.414,0-0.75-0.336-0.75-0.75c0-0.381,0.285-0.699,0.665-0.743c0.005-0.001,0.029-0.003,0.035-0.003
		c0.008-0.002,0.029-0.005,0.05-0.005c0.01,0,0.052,0.004,0.057,0.004C17.69,20.527,18,20.854,18,21.25
		C18,21.664,17.664,22,17.25,22z"/>
	<path d="M21.25,22c-0.414,0-0.75-0.336-0.75-0.75c0-0.394,0.309-0.722,0.703-0.746c0.005-0.001,0.019-0.003,0.034-0.003
		c0,0,0.001,0,0.001,0c0.426,0,0.762,0.336,0.762,0.75C22,21.664,21.664,22,21.25,22z"/>
	<circle cx="13.25" cy="21.25" r="0.75"/>
	<path d="M2.5,8C2.224,8,2,7.776,2,7.5S2.224,7,2.5,7h2C4.776,7,5,7.224,5,7.5S4.776,8,4.5,8H2.5z"/>
	<path d="M1.5,10C1.224,10,1,9.776,1,9.5S1.224,9,1.5,9h2C3.776,9,4,9.224,4,9.5S3.776,10,3.5,10H1.5z"/>
	<path d="M0.5,12C0.224,12,0,11.776,0,11.5S0.224,11,0.5,11h2C2.776,11,3,11.224,3,11.5S2.776,12,2.5,12H0.5z"/>
</g>
</svg>
