<?xml version="1.0" encoding="utf-8"?>
<!-- Generator: Adobe Illustrator 22.1.0, SVG Export Plug-In . SVG Version: 6.00 Build 0)  -->
<svg version="1.1" id="Light" xmlns="http://www.w3.org/2000/svg" xmlns:xlink="http://www.w3.org/1999/xlink" x="0px" y="0px"
	 viewBox="0 0 24 24" style="enable-background:new 0 0 24 24;" xml:space="preserve">
<g>
	<title>athletics-team-running</title>
	<path d="M13.75,6c-1.654,0-3-1.346-3-3s1.346-3,3-3c1.654,0,3,1.346,3,3S15.404,6,13.75,6z M13.75,1c-1.103,0-2,0.897-2,2
		s0.897,2,2,2s2-0.897,2-2S14.853,1,13.75,1z"/>
	<path d="M13.252,24c-0.163,0-0.326-0.02-0.485-0.06c-1.071-0.268-1.723-1.356-1.456-2.426l0.865-3.46
		c0.118-0.481-0.14-0.985-0.602-1.171l-0.711-0.285C9.959,18.085,8.344,19,6.595,19H3.75c-1.103,0-2-0.897-2-2s0.897-2,2-2h2.839
		c0.431,0,0.812-0.275,0.949-0.684L9.255,9.5L8.047,9.061C7.939,9.022,7.825,9.002,7.709,9.002c-0.3,0-0.582,0.131-0.773,0.359
		l-1.152,1.379c-0.024,0.032-0.068,0.086-0.115,0.137c-0.377,0.407-0.912,0.641-1.469,0.641c-0.505,0-0.988-0.189-1.358-0.531
		C2.033,10.238,1.984,8.97,2.733,8.16L3.865,6.8C4.819,5.659,6.224,5.005,7.72,5.005c0.578,0,1.147,0.099,1.69,0.295l7.001,2.544
		c0.112,0.041,0.228,0.062,0.345,0.062c0.304,0,0.587-0.137,0.777-0.375l0.657-0.82c0.171-0.214,0.385-0.39,0.629-0.517L17.788,3.69
		c-0.105-0.255,0.017-0.548,0.272-0.653C18.121,3.013,18.185,3,18.25,3c0.204,0,0.385,0.122,0.462,0.31l1.094,2.655
		C20.246,5.975,20.658,6.125,21,6.4c0.419,0.338,0.68,0.814,0.738,1.344c0.058,0.531-0.094,1.053-0.429,1.469l-0.11,0.137
		l1.013,2.46c0.105,0.255-0.017,0.548-0.272,0.653c-0.061,0.025-0.125,0.038-0.19,0.038c-0.203,0-0.385-0.122-0.462-0.31
		l-0.807-1.959c-0.948,1.065-2.293,1.671-3.73,1.671c-0.584,0-1.159-0.102-1.71-0.302l-2.027-0.737l-0.713,2l0.76,0.303
		c2.301,0.929,3.588,3.445,2.995,5.853l-0.864,3.466C14.968,23.376,14.171,24,13.252,24C13.252,24,13.252,24,13.252,24z
		 M10.637,15.47c0.063,0,0.125,0.012,0.184,0.035l1.125,0.45c0.921,0.371,1.436,1.377,1.199,2.34l-0.865,3.462
		c-0.134,0.535,0.193,1.079,0.728,1.213c0.079,0.02,0.162,0.03,0.244,0.03c0.458,0,0.857-0.312,0.968-0.758l0.864-3.464
		c0.475-1.927-0.556-3.941-2.397-4.684l-1.206-0.482c-0.251-0.1-0.376-0.378-0.285-0.632l1.044-2.928
		c0.045-0.127,0.137-0.228,0.258-0.285c0.066-0.031,0.14-0.047,0.213-0.047c0.058,0,0.116,0.01,0.171,0.03l2.5,0.909
		c0.441,0.161,0.901,0.242,1.368,0.242c1.221,0,2.359-0.547,3.122-1.501l0.657-0.815c0.167-0.208,0.243-0.468,0.214-0.734
		c-0.029-0.265-0.159-0.502-0.366-0.67c-0.001-0.001-0.003-0.002-0.004-0.003c-0.178-0.142-0.394-0.218-0.622-0.218
		c-0.306,0-0.591,0.136-0.781,0.374l-0.656,0.819c-0.379,0.478-0.948,0.752-1.558,0.752c-0.235,0-0.467-0.041-0.689-0.123
		L9.069,6.24c-0.433-0.156-0.887-0.235-1.35-0.235c-1.198,0-2.323,0.523-3.086,1.436L3.484,8.82
		C3.286,9.035,3.191,9.287,3.201,9.557c0.01,0.267,0.124,0.514,0.32,0.695c0.185,0.171,0.426,0.266,0.679,0.266
		c0.278,0,0.546-0.117,0.734-0.32C4.958,10.173,4.98,10.147,5,10.119l1.169-1.4C6.551,8.263,7.113,8.002,7.71,8.002
		c0.232,0,0.46,0.04,0.678,0.119l1.676,0.609c0.257,0.094,0.392,0.38,0.3,0.638l-1.881,5.274C8.213,15.452,7.451,16,6.589,16H3.75
		c-0.551,0-1,0.448-1,1s0.449,1,1,1h2.839c1.525,0,2.935-0.883,3.598-2.248C10.27,15.581,10.447,15.47,10.637,15.47z"/>
</g>
</svg>
