<?xml version="1.0" encoding="utf-8"?>
<!-- Generator: Adobe Illustrator 22.1.0, SVG Export Plug-In . SVG Version: 6.00 Build 0)  -->
<svg version="1.1" id="Light" xmlns="http://www.w3.org/2000/svg" xmlns:xlink="http://www.w3.org/1999/xlink" x="0px" y="0px"
	 viewBox="0 0 24 24" style="enable-background:new 0 0 24 24;" xml:space="preserve">
<g>
	<title>laundry-retro-iron</title>
	<path d="M0.548,21c-0.276,0-0.5-0.224-0.5-0.5c0-5.79,4.71-10.5,10.5-10.5h10.639l-0.523-2.966C20.353,5.276,18.833,4,17.048,4
		h-7.5c-0.276,0-0.5-0.224-0.5-0.5S9.272,3,9.548,3h7.5c2.271,0,4.206,1.624,4.6,3.86l2.288,12.966
		c0.047,0.262-0.012,0.528-0.165,0.747c-0.153,0.219-0.382,0.365-0.645,0.412C23.067,20.995,23.009,21,22.952,21H0.548z M22.952,20
		l-1.589-9H10.548c-5.022,0-9.224,4.014-9.487,9H22.952z"/>
	<path d="M9.048,17c-0.827,0-1.5-0.673-1.5-1.5s0.673-1.5,1.5-1.5s1.5,0.673,1.5,1.5S9.875,17,9.048,17z M9.048,15
		c-0.276,0-0.5,0.224-0.5,0.5s0.224,0.5,0.5,0.5s0.5-0.224,0.5-0.5S9.324,15,9.048,15z"/>
	<path d="M13.048,17c-0.827,0-1.5-0.673-1.5-1.5s0.673-1.5,1.5-1.5s1.5,0.673,1.5,1.5S13.875,17,13.048,17z M13.048,15
		c-0.276,0-0.5,0.224-0.5,0.5s0.224,0.5,0.5,0.5s0.5-0.224,0.5-0.5S13.324,15,13.048,15z"/>
	<path d="M17.048,17c-0.827,0-1.5-0.673-1.5-1.5s0.673-1.5,1.5-1.5s1.5,0.673,1.5,1.5S17.875,17,17.048,17z M17.048,15
		c-0.276,0-0.5,0.224-0.5,0.5s0.224,0.5,0.5,0.5s0.5-0.224,0.5-0.5S17.324,15,17.048,15z"/>
</g>
</svg>
