<?xml version="1.0" encoding="utf-8"?>
<!-- Generator: Adobe Illustrator 22.1.0, SVG Export Plug-In . SVG Version: 6.00 Build 0)  -->
<svg version="1.1" id="Light" xmlns="http://www.w3.org/2000/svg" xmlns:xlink="http://www.w3.org/1999/xlink" x="0px" y="0px"
	 viewBox="0 0 24 24" style="enable-background:new 0 0 24 24;" xml:space="preserve">
<g>
	<title>laundry-machine</title>
	<path d="M4.5,24C3.121,24,2,22.878,2,21.5v-19C2,1.121,3.121,0,4.5,0h15C20.878,0,22,1.121,22,2.5v19c0,1.378-1.122,2.5-2.5,2.5
		H4.5z M3,21.5C3,22.327,3.673,23,4.5,23h15c0.827,0,1.5-0.673,1.5-1.5V7H3V21.5z M21,6V2.5C21,1.673,20.327,1,19.5,1h-15
		C3.673,1,3,1.673,3,2.5V6H21z"/>
	<path d="M12,21c-1.87,0-3.659-0.893-4.79-2.391c-0.006-0.007-0.012-0.013-0.017-0.02c-0.008-0.01-0.015-0.021-0.022-0.034
		C6.408,17.529,6,16.295,6,15c0-3.308,2.692-6,6-6s6,2.692,6,6c0,1.301-0.411,2.538-1.188,3.58
		c-0.001,0.002-0.003,0.004-0.004,0.006C15.677,20.098,13.88,21,12,21z M8.31,18.37C9.259,19.409,10.589,20,12,20
		c1.411,0,2.741-0.591,3.689-1.629l-2.016-1.518C13.215,17.266,12.617,17.5,12,17.5s-1.215-0.234-1.673-0.647L8.31,18.37z
		 M16.288,17.57C16.755,16.794,17,15.911,17,15c0-2.582-1.956-4.716-4.5-4.968v2.519c1.155,0.234,2,1.25,2,2.449
		c0,0.361-0.08,0.72-0.233,1.048L16.288,17.57z M11.5,10.032C8.956,10.284,7,12.418,7,15c0,0.911,0.245,1.793,0.712,2.569
		l2.021-1.521C9.58,15.72,9.5,15.361,9.5,15c0-1.199,0.845-2.215,2-2.449V10.032z M12,13.5c-0.827,0-1.5,0.673-1.5,1.5
		s0.673,1.5,1.5,1.5s1.5-0.673,1.5-1.5S12.827,13.5,12,13.5z"/>
	<path d="M5.191,5C5,5,4.829,4.894,4.744,4.724L4.106,3.448C3.986,3.209,3.967,2.938,4.051,2.685
		c0.084-0.254,0.262-0.459,0.501-0.579C4.691,2.037,4.846,2,5,2h4.382c0.551,0,1,0.449,1,1c0,0.155-0.037,0.31-0.106,0.448l-0.5,1
		C9.606,4.788,9.263,5,8.882,5H5.191z M8.882,4l0.5-1L5,3l0.5,1H8.882z"/>
	<circle cx="14" cy="3.75" r="0.75"/>
	<circle cx="17.5" cy="3.75" r="0.75"/>
</g>
</svg>
