<?xml version="1.0" encoding="utf-8"?>
<!-- Generator: Adobe Illustrator 22.1.0, SVG Export Plug-In . SVG Version: 6.00 Build 0)  -->
<svg version="1.1" id="Layer_1" xmlns="http://www.w3.org/2000/svg" xmlns:xlink="http://www.w3.org/1999/xlink" x="0px" y="0px"
	 viewBox="0 0 24 24" style="enable-background:new 0 0 24 24;" xml:space="preserve">
<g>
	<title>contactless-payment</title>
	<path d="M0.5,8.5C0.225,8.5,0,8.276,0,8c0-4.135,3.365-7.5,7.5-7.5C7.776,0.5,8,0.724,8,1S7.776,1.5,7.5,1.5C3.916,1.5,1,4.416,1,8
		C1,8.276,0.776,8.5,0.5,8.5z"/>
	<path d="M2.5,8.5C2.225,8.5,2,8.276,2,8c0-3.033,2.467-5.5,5.5-5.5C7.776,2.5,8,2.724,8,3S7.776,3.5,7.5,3.5C5.019,3.5,3,5.519,3,8
		C3,8.276,2.776,8.5,2.5,8.5z"/>
	<path d="M4.5,8.5C4.225,8.5,4,8.276,4,8c0-1.93,1.57-3.5,3.5-3.5C7.776,4.5,8,4.724,8,5S7.776,5.5,7.5,5.5C6.122,5.5,5,6.621,5,8
		C5,8.276,4.776,8.5,4.5,8.5z"/>
	<path d="M13.504,14.5c-0.134,0-0.259-0.052-0.354-0.146L12.798,14l-0.355,0.354c-0.094,0.094-0.22,0.146-0.353,0.146
		c-0.134,0-0.26-0.052-0.354-0.147c-0.094-0.094-0.146-0.22-0.146-0.354s0.052-0.259,0.147-0.353l0.69-0.688
		c0.006-0.007,0.011-0.013,0.017-0.019c0.007-0.007,0.015-0.014,0.024-0.021l0.25-0.25c0.033-0.032,0.043-0.078,0.029-0.121
		c-0.019-0.056-0.07-0.081-0.113-0.081c-0.013,0-0.025,0.002-0.037,0.006l-1.4,0.466c-0.115,0.038-0.235,0.058-0.355,0.058
		c-0.297,0-0.577-0.116-0.789-0.328c-0.211-0.211-0.328-0.492-0.328-0.79c0-0.259,0.087-0.505,0.249-0.703l-0.358-0.358
		c-0.094-0.094-0.146-0.22-0.146-0.354s0.052-0.259,0.146-0.354s0.22-0.146,0.354-0.146s0.259,0.052,0.354,0.146l0.354,0.354
		l0.354-0.354c0.094-0.094,0.22-0.146,0.354-0.146s0.259,0.052,0.354,0.146s0.146,0.22,0.146,0.354s-0.052,0.259-0.146,0.354
		l-0.978,0.978c-0.022,0.023-0.034,0.052-0.034,0.083c0,0.032,0.012,0.061,0.035,0.083c0.022,0.022,0.052,0.035,0.083,0.035
		c0.013,0,0.026-0.002,0.038-0.006l1.401-0.466c0.114-0.038,0.233-0.058,0.353-0.058c0.482,0,0.908,0.307,1.061,0.763
		c0.123,0.368,0.049,0.764-0.193,1.06l0.356,0.356c0.195,0.195,0.195,0.512,0,0.707C13.763,14.448,13.638,14.5,13.504,14.5z"/>
	<path d="M23.5,23.5c-0.054,0-0.107-0.009-0.158-0.026l-4.761-1.587c-0.87-0.29-1.674-0.783-2.327-1.427l-0.686,0.686
		c-0.283,0.283-0.659,0.439-1.061,0.439s-0.778-0.156-1.061-0.439l-1.274-1.273c-0.008-0.006-0.016-0.013-0.022-0.02
		c-0.007-0.007-0.015-0.016-0.021-0.024l-7.271-7.269c-0.585-0.585-0.585-1.536,0-2.121l5.086-5.086
		c0.283-0.283,0.66-0.439,1.061-0.439s0.778,0.156,1.061,0.439l3.194,3.193c0.708-0.672,1.633-1.041,2.616-1.041
		c0.841,0,1.669,0.284,2.332,0.799l3.6,2.8c0.105,0.082,0.173,0.2,0.189,0.333c0.017,0.133-0.02,0.264-0.102,0.369
		C23.799,11.93,23.656,12,23.5,12c-0.11,0-0.219-0.037-0.306-0.105l-3.601-2.8c-0.495-0.385-1.089-0.589-1.718-0.589
		c-0.716,0-1.389,0.265-1.908,0.748l4.687,4.685c0.584,0.585,0.584,1.536,0,2.121l-1.068,1.062l0.691,0.461
		c0.229,0.153,0.292,0.464,0.139,0.693C20.324,18.417,20.168,18.5,20,18.5c-0.099,0-0.194-0.029-0.277-0.083l-3.439-2.292
		c-0.173-0.116-0.375-0.177-0.584-0.177c-0.283,0-0.549,0.11-0.748,0.309c-0.199,0.199-0.308,0.464-0.308,0.745
		s0.11,0.546,0.309,0.745l1.616,1.616c0.013,0.009,0.029,0.021,0.044,0.037c0.009,0.009,0.019,0.022,0.028,0.035l0.288,0.288
		c0.549,0.549,1.229,0.969,1.967,1.216l4.761,1.587c0.126,0.042,0.229,0.131,0.289,0.25s0.07,0.255,0.027,0.382
		C23.906,23.363,23.716,23.5,23.5,23.5z M14.154,20.439c0.094,0.094,0.22,0.146,0.354,0.146s0.259-0.052,0.354-0.146l0.686-0.686
		l-1.294-1.294l-1.04,1.039L14.154,20.439z M11.004,5.915c-0.134,0-0.259,0.052-0.354,0.146l-5.086,5.086
		c-0.094,0.094-0.146,0.22-0.146,0.354s0.052,0.259,0.146,0.354l6.941,6.938l1.22-1.22c-0.054-0.186-0.082-0.376-0.082-0.569
		c0-0.548,0.213-1.064,0.6-1.453c0.385-0.385,0.899-0.597,1.448-0.597c0.195,0,0.386,0.027,0.572,0.081l2.033-2.033l-3.367-3.366
		c-0.01-0.008-0.02-0.016-0.028-0.024c-0.008-0.008-0.017-0.019-0.025-0.03l-3.52-3.518C11.264,5.966,11.138,5.915,11.004,5.915z
		 M18.737,16.557l1.21-1.205c0.194-0.194,0.194-0.511-0.001-0.706l-0.941-0.941l-1.819,1.819L18.737,16.557z"/>
</g>
</svg>
