<?xml version="1.0" encoding="utf-8"?>
<!-- Generator: Adobe Illustrator 22.1.0, SVG Export Plug-In . SVG Version: 6.00 Build 0)  -->
<svg version="1.1" id="Layer_1" xmlns="http://www.w3.org/2000/svg" xmlns:xlink="http://www.w3.org/1999/xlink" x="0px" y="0px"
	 viewBox="0 0 24 24" style="enable-background:new 0 0 24 24;" xml:space="preserve">
<g>
	<title>credit-card-smartphone-exchange</title>
	<path d="M8.004,23.5c-0.134,0-0.259-0.052-0.354-0.146c-0.195-0.195-0.195-0.512,0-0.707l1.15-1.15C5.86,21.391,3.5,18.966,3.5,16
		c0-0.276,0.224-0.5,0.5-0.5s0.5,0.224,0.5,0.5c0,2.412,1.907,4.386,4.292,4.495L7.65,19.354c-0.195-0.195-0.195-0.512,0-0.707
		C7.745,18.552,7.87,18.5,8.004,18.5s0.259,0.052,0.354,0.146l2,2c0.195,0.195,0.195,0.512,0,0.707l-2,2
		C8.263,23.448,8.137,23.5,8.004,23.5z"/>
	<path d="M16.504,24c-0.827,0-1.5-0.673-1.5-1.5v-11c0-0.827,0.673-1.5,1.5-1.5h6c0.827,0,1.5,0.673,1.5,1.5v11
		c0,0.827-0.673,1.5-1.5,1.5H16.504z M16.004,22.5c0,0.276,0.224,0.5,0.5,0.5h6c0.276,0,0.5-0.224,0.5-0.5V20h-7V22.5z M23.004,19
		v-7.5c0-0.276-0.224-0.5-0.5-0.5h-6c-0.276,0-0.5,0.224-0.5,0.5V19H23.004z"/>
	<path d="M23.5,8.5C23.224,8.5,23,8.276,23,8c0-2.409-1.903-4.382-4.284-4.495l1.141,1.141c0.195,0.195,0.195,0.512,0,0.707
		C19.763,5.448,19.637,5.5,19.504,5.5s-0.259-0.052-0.354-0.146l-1.992-1.992C17.062,3.276,17,3.141,17,3s0.062-0.276,0.169-0.372
		l1.981-1.982C19.245,0.552,19.37,0.5,19.504,0.5s0.259,0.052,0.354,0.146c0.195,0.195,0.195,0.512,0,0.707l-1.15,1.15
		C21.644,2.613,24,5.037,24,8C24,8.276,23.776,8.5,23.5,8.5z"/>
	<circle cx="19.5" cy="21.5" r="0.75"/>
	<path d="M2.504,11c-1.379,0-2.5-1.121-2.5-2.5v-6c0-1.379,1.121-2.5,2.5-2.5h9c1.378,0,2.5,1.121,2.5,2.5v6
		c0,1.379-1.122,2.5-2.5,2.5H2.504z M1.004,8.5c0,0.827,0.673,1.5,1.5,1.5h9c0.827,0,1.5-0.673,1.5-1.5V4h-12V8.5z M13.004,3V2.5
		c0-0.827-0.673-1.5-1.5-1.5h-9c-0.827,0-1.5,0.673-1.5,1.5V3H13.004z"/>
	<path d="M3.004,6c-0.276,0-0.5-0.224-0.5-0.5S2.728,5,3.004,5h4.5c0.276,0,0.5,0.224,0.5,0.5S7.78,6,7.504,6H3.004z"/>
	<path d="M3.004,8c-0.276,0-0.5-0.224-0.5-0.5S2.728,7,3.004,7h2c0.276,0,0.5,0.224,0.5,0.5S5.28,8,5.004,8H3.004z"/>
</g>
</svg>
