<?xml version="1.0" encoding="utf-8"?>
<!-- Generator: Adobe Illustrator 22.1.0, SVG Export Plug-In . SVG Version: 6.00 Build 0)  -->
<svg version="1.1" id="Layer_1" xmlns="http://www.w3.org/2000/svg" xmlns:xlink="http://www.w3.org/1999/xlink" x="0px" y="0px"
	 viewBox="0 0 24 24" style="enable-background:new 0 0 24 24;" xml:space="preserve">
<g>
	<title>self-payment-touch</title>
	<path d="M1,22c-0.551,0-1-0.448-1-1v-4c0-0.552,0.449-1,1-1h9.004v-2H2.5C1.296,14,0,13.374,0,12l0.997-9.993
		C0.946,1.548,1.069,1.093,1.345,0.721c0.29-0.391,0.715-0.645,1.196-0.716c0.088-0.013,0.178-0.02,0.267-0.02
		C2.883-0.015,2.959-0.01,3.034,0h14.932c0.076-0.01,0.154-0.015,0.23-0.015c0.391,0,0.766,0.124,1.082,0.359
		c0.391,0.29,0.645,0.715,0.716,1.196c0.023,0.154,0.026,0.311,0.009,0.466l0.994,9.943c0.002,0.673-0.284,1.211-0.826,1.579
		C19.726,13.833,19.132,14,18.5,14c-0.276,0-0.5-0.224-0.5-0.5s0.224-0.5,0.5-0.5c0.722,0,1.5-0.313,1.5-1l-0.998-9.95
		C18.999,2.008,19,1.967,19.005,1.927c0.012-0.081,0.012-0.161,0-0.241c-0.032-0.217-0.147-0.409-0.323-0.539
		c-0.143-0.106-0.312-0.162-0.488-0.162c-0.04,0-0.081,0.003-0.122,0.009C18.049,0.998,18.025,1,18,1H3
		C2.975,1,2.951,0.998,2.926,0.994C2.887,0.988,2.847,0.986,2.807,0.986c-0.04,0-0.081,0.003-0.121,0.009
		C2.47,1.026,2.278,1.141,2.148,1.317C2.017,1.493,1.963,1.71,1.995,1.926C2.001,1.967,2.002,2.009,1.998,2.05l-0.999,9.986
		C1.009,12.698,1.782,13,2.5,13h7.983c0.007-0.001,0.015-0.001,0.021-0.001s0.014,0,0.021,0.001H11.5c0.276,0,0.5,0.224,0.5,0.5
		S11.776,14,11.5,14h-0.496v2H11.5c0.276,0,0.5,0.224,0.5,0.5S11.776,17,11.5,17H1v4h6c0.276,0,0.5,0.224,0.5,0.5S7.276,22,7,22H1z"
		/>
	<path d="M3.004,19.999c-0.276,0-0.5-0.224-0.5-0.5s0.224-0.5,0.5-0.5h4c0.276,0,0.5,0.224,0.5,0.5s-0.224,0.5-0.5,0.5H3.004z"/>
	<path d="M23.5,24c-0.276,0-0.5-0.224-0.5-0.5V22c0-1.93-1.57-3.5-3.5-3.5h-3c-0.276,0-0.5-0.224-0.5-0.5v-4.5c0-0.552-0.448-1-1-1
		s-1,0.448-1,1v7.827c0,0.207-0.13,0.395-0.324,0.468c-0.056,0.021-0.115,0.032-0.176,0.032c-0.144,0-0.281-0.062-0.376-0.17
		l-2-2.287c-0.179-0.19-0.442-0.303-0.715-0.303c-0.216,0-0.422,0.068-0.596,0.196c-0.443,0.328-0.538,0.955-0.21,1.399l2.269,2.503
		c0.09,0.099,0.135,0.227,0.129,0.36c-0.007,0.134-0.065,0.256-0.164,0.346C11.744,23.954,11.625,24,11.5,24
		c-0.141,0-0.276-0.06-0.371-0.164l-2.3-2.542c-0.339-0.456-0.475-0.989-0.398-1.52c0.077-0.53,0.356-0.997,0.787-1.315
		c0.346-0.256,0.757-0.391,1.187-0.391c0.551,0,1.082,0.23,1.459,0.631L13,19.996V13.5c0-1.103,0.897-2,2-2s2,0.897,2,2v4h2.5
		c2.481,0,4.5,2.019,4.5,4.5v1.5C24,23.775,23.776,24,23.5,24z"/>
	<path d="M3.504,5.999c-0.276,0-0.5-0.224-0.5-0.5v-2c0-0.276,0.224-0.5,0.5-0.5h2c0.276,0,0.5,0.224,0.5,0.5v2
		c0,0.276-0.224,0.5-0.5,0.5H3.504z M5.004,4.999v-1h-1v1H5.004z"/>
	<path d="M7.504,5.999c-0.276,0-0.5-0.224-0.5-0.5v-2c0-0.276,0.224-0.5,0.5-0.5h2c0.276,0,0.5,0.224,0.5,0.5v2
		c0,0.276-0.224,0.5-0.5,0.5H7.504z M9.004,4.999v-1h-1v1H9.004z"/>
	<path d="M3.504,9.999c-0.276,0-0.5-0.224-0.5-0.5v-2c0-0.276,0.224-0.5,0.5-0.5h2c0.276,0,0.5,0.224,0.5,0.5v2
		c0,0.276-0.224,0.5-0.5,0.5H3.504z M5.004,8.999v-1h-1v1H5.004z"/>
	<path d="M7.504,9.999c-0.276,0-0.5-0.224-0.5-0.5v-2c0-0.276,0.224-0.5,0.5-0.5h2c0.276,0,0.5,0.224,0.5,0.5v2
		c0,0.276-0.224,0.5-0.5,0.5H7.504z M9.004,8.999v-1h-1v1H9.004z"/>
	<path d="M15.504,9.999c-0.276,0-0.5-0.224-0.5-0.5V9H13.5C13.224,9,13,8.775,13,8.5S13.224,8,13.5,8h1.982
		c0.007-0.001,0.014-0.001,0.021-0.001s0.014,0,0.021,0.001H16.5C16.776,8,17,7.775,17,7.5S16.776,7,16.5,7h-2
		C13.673,7,13,6.327,13,5.5S13.673,4,14.5,4h0.504V3.499c0-0.276,0.224-0.5,0.5-0.5s0.5,0.224,0.5,0.5V4H17.5
		C17.776,4,18,4.224,18,4.5S17.776,5,17.5,5h-3C14.224,5,14,5.224,14,5.5S14.224,6,14.5,6h2C17.327,6,18,6.673,18,7.5
		S17.327,9,16.5,9h-0.496v0.499C16.004,9.774,15.78,9.999,15.504,9.999z"/>
</g>
</svg>
