<?xml version="1.0" encoding="utf-8"?>
<!-- Generator: Adobe Illustrator 22.1.0, SVG Export Plug-In . SVG Version: 6.00 Build 0)  -->
<svg version="1.1" id="Layer_1" xmlns="http://www.w3.org/2000/svg" xmlns:xlink="http://www.w3.org/1999/xlink" x="0px" y="0px"
	 viewBox="0 0 24 24" style="enable-background:new 0 0 24 24;" xml:space="preserve">
<g>
	<title>smartphone-pay-dollar-1</title>
	<path d="M2.5,24C1.121,24,0,22.878,0,21.5v-19C0,1.121,1.121,0,2.5,0h9C11.776,0,12,0.224,12,0.5S11.776,1,11.5,1h-9
		C1.673,1,1,1.673,1,2.5V19h12v-5.5c0-0.276,0.224-0.5,0.5-0.5s0.5,0.224,0.5,0.5v5.957c0.002,0.015,0.004,0.03,0.004,0.043
		c0,0.019-0.002,0.036-0.005,0.05L14,21.5c0,1.378-1.122,2.5-2.5,2.5H2.5z M1,21.5C1,22.327,1.673,23,2.5,23h9
		c0.827,0,1.5-0.673,1.5-1.5V20H1V21.5z"/>
	<circle cx="7" cy="21.5" r="0.75"/>
	<path d="M17.504,11c-0.276,0-0.5-0.224-0.5-0.5V10H16c-0.276,0-0.5-0.224-0.5-0.5S15.724,9,16,9h2.035
		c0.345,0,0.651-0.207,0.78-0.528c0.173-0.431-0.036-0.922-0.467-1.095l-2.063-0.826c-0.702-0.282-1.155-0.953-1.156-1.708
		c0-0.492,0.191-0.955,0.539-1.303C16.016,3.192,16.479,3,16.97,3h0.033V2.5c0-0.276,0.224-0.5,0.5-0.5s0.5,0.224,0.5,0.5V3H19
		c0.276,0,0.5,0.224,0.5,0.5S19.276,4,19,4h-2.029c-0.225,0-0.436,0.088-0.595,0.247c-0.159,0.159-0.247,0.371-0.246,0.596
		c0,0.345,0.208,0.652,0.528,0.781l2.063,0.826c0.457,0.183,0.814,0.534,1.007,0.987s0.198,0.954,0.015,1.409
		C19.461,9.546,18.791,9.999,18.035,10h-0.031v0.5C18.004,10.776,17.78,11,17.504,11z"/>
	<path d="M17.504,13c-3.584,0-6.5-2.916-6.5-6.5S13.92,0,17.504,0s6.5,2.916,6.5,6.5S21.088,13,17.504,13z M17.504,1
		c-3.033,0-5.5,2.467-5.5,5.5s2.467,5.5,5.5,5.5s5.5-2.467,5.5-5.5S20.537,1,17.504,1z"/>
</g>
</svg>
