<?xml version="1.0" encoding="utf-8"?>
<!-- Generator: Adobe Illustrator 22.1.0, SVG Export Plug-In . SVG Version: 6.00 Build 0)  -->
<svg version="1.1" id="Layer_1" xmlns="http://www.w3.org/2000/svg" xmlns:xlink="http://www.w3.org/1999/xlink" x="0px" y="0px"
	 viewBox="0 0 24 24" style="enable-background:new 0 0 24 24;" xml:space="preserve">
<g>
	<title>smartphone-payment-touch</title>
	<path d="M23.244,23.998c-0.16,0-0.312-0.077-0.406-0.207l-2.481-3.434c-0.062-0.086-0.094-0.186-0.095-0.291L20.244,15.5
		c0.031-1.3-1.457-2.624-2.981-3.91v1.908c0,0.276-0.224,0.5-0.5,0.5s-0.5-0.224-0.5-0.5v-7c0-0.276-0.224-0.5-0.5-0.5h-5
		c-0.276,0-0.5-0.224-0.5-0.5s0.224-0.5,0.5-0.5h5c0.827,0,1.5,0.673,1.5,1.5v3.784c0.126,0.107,0.253,0.214,0.381,0.321
		c1.874,1.577,3.644,3.066,3.6,4.906l0.019,4.392l2.387,3.304c0.161,0.224,0.111,0.537-0.112,0.698
		C23.451,23.965,23.35,23.998,23.244,23.998z"/>
	<path d="M18.324,23.998c-0.132,0-0.257-0.051-0.351-0.144c-0.285-0.281-1.71-1.741-1.71-2.856v-1.295l-3.065-3.123
		c-0.605-0.606-0.605-1.595,0.003-2.204c0.022-0.022,0.046-0.042,0.072-0.06c0.385-0.261,0.831-0.398,1.291-0.398
		c0.459,0,0.906,0.137,1.29,0.397c0.029,0.019,0.055,0.042,0.079,0.067l2.688,2.767c0.093,0.096,0.144,0.222,0.142,0.356
		s-0.056,0.258-0.151,0.351c-0.093,0.091-0.217,0.142-0.348,0.142c-0.134,0-0.265-0.055-0.359-0.151l-2.651-2.729
		c-0.208-0.13-0.446-0.199-0.689-0.199c-0.242,0-0.479,0.068-0.686,0.197c-0.187,0.219-0.176,0.555,0.03,0.76l3.211,3.271
		c0.092,0.094,0.143,0.218,0.143,0.35v1.5c0,0.518,0.826,1.565,1.412,2.144c0.095,0.094,0.148,0.219,0.149,0.353
		c0.001,0.134-0.05,0.26-0.144,0.355C18.585,23.945,18.459,23.998,18.324,23.998z"/>
	<path d="M12.013,21.998c-0.414,0-0.75-0.336-0.75-0.75s0.336-0.75,0.75-0.75c0.413,0,0.75,0.336,0.75,0.75
		S12.426,21.998,12.013,21.998z"/>
	<path d="M7.763,23.998c-0.827,0-1.5-0.673-1.5-1.5v-9c0-0.276,0.224-0.5,0.5-0.5s0.5,0.224,0.5,0.5v5.5h5.5
		c0.276,0,0.5,0.224,0.5,0.5s-0.224,0.5-0.5,0.5h-5.5v2.5c0,0.276,0.224,0.5,0.5,0.5h6c0.276,0,0.5,0.224,0.5,0.5
		s-0.224,0.5-0.5,0.5H7.763z"/>
	<path d="M8.637,9.331c-0.042,0-0.083-0.005-0.125-0.016C8.382,9.281,8.274,9.2,8.206,9.085C8.138,8.97,8.119,8.835,8.153,8.706
		c0.074-0.286,0.111-0.58,0.11-0.874V4.498c0-0.505-0.107-0.994-0.317-1.454c-0.389-0.85-1.085-1.498-1.961-1.824
		C5.589,1.072,5.177,0.997,4.761,0.997c-0.502,0-0.991,0.107-1.453,0.319C3.242,1.346,3.172,1.361,3.1,1.361c0,0,0,0,0,0
		c-0.195,0-0.374-0.115-0.455-0.292C2.53,0.818,2.641,0.521,2.892,0.406c0.594-0.272,1.223-0.41,1.869-0.41
		c0.536,0,1.065,0.096,1.573,0.286c1.126,0.42,2.022,1.253,2.522,2.346c0.27,0.591,0.407,1.22,0.407,1.87v3.333
		c0.001,0.379-0.047,0.757-0.142,1.125C9.064,9.176,8.865,9.331,8.637,9.331C8.637,9.331,8.637,9.331,8.637,9.331z"/>
	<path d="M4.761,12.33c-1.108,0-2.172-0.406-2.997-1.143C0.809,10.334,0.262,9.11,0.263,7.831V4.498
		C0.261,3.389,0.669,2.323,1.409,1.497C1.504,1.391,1.64,1.331,1.782,1.331c0.123,0,0.241,0.045,0.333,0.127
		c0.206,0.185,0.223,0.501,0.039,0.706c-0.576,0.642-0.892,1.47-0.891,2.333v3.333c0,0.995,0.425,1.947,1.167,2.61
		c0.641,0.573,1.469,0.889,2.331,0.889c0.997,0,1.949-0.425,2.611-1.166c0.095-0.106,0.231-0.167,0.373-0.167
		c0.123,0,0.241,0.045,0.333,0.127c0.1,0.089,0.159,0.212,0.166,0.345c0.007,0.133-0.037,0.262-0.127,0.361
		C7.266,11.784,6.042,12.33,4.761,12.33z"/>
	<path d="M4.763,10.331c-1.379,0-2.5-1.121-2.5-2.5c0-0.276,0.224-0.5,0.5-0.5s0.5,0.224,0.5,0.5c0,0.827,0.673,1.5,1.5,1.5
		s1.5-0.673,1.5-1.5V4.498c0-0.827-0.673-1.5-1.5-1.5s-1.5,0.673-1.5,1.5v2c0,0.276-0.224,0.5-0.5,0.5s-0.5-0.224-0.5-0.5v-2
		c0-1.379,1.121-2.5,2.5-2.5s2.5,1.121,2.5,2.5v3.333C7.263,9.209,6.141,10.331,4.763,10.331z"/>
	<path d="M4.763,5.998c-0.276,0-0.5-0.224-0.5-0.5v-1c0-0.276,0.224-0.5,0.5-0.5s0.5,0.224,0.5,0.5v1
		C5.263,5.774,5.038,5.998,4.763,5.998z"/>
	<path d="M4.763,8.498c-0.276,0-0.5-0.224-0.5-0.5v-0.5c0-0.276,0.224-0.5,0.5-0.5s0.5,0.224,0.5,0.5v0.5
		C5.263,8.274,5.038,8.498,4.763,8.498z"/>
	<path d="M11.763,14.998c-0.276,0-0.5-0.224-0.5-0.5v-0.5h-0.5c-0.276,0-0.5-0.224-0.5-0.5s0.224-0.5,0.5-0.5h1.356
		c0.16,0,0.303-0.098,0.364-0.247c0.081-0.202-0.017-0.433-0.219-0.514l-1.374-0.549c-0.535-0.212-0.88-0.722-0.879-1.299
		c0.002-0.719,0.551-1.312,1.251-1.383V8.498c0-0.276,0.224-0.5,0.5-0.5s0.5,0.224,0.5,0.5v0.5h0.5c0.276,0,0.5,0.224,0.5,0.5
		s-0.224,0.5-0.5,0.5h-1.355c-0.219,0-0.396,0.176-0.396,0.393c0,0.163,0.097,0.307,0.249,0.367l1.376,0.551
		c0.714,0.288,1.061,1.103,0.773,1.816c-0.196,0.484-0.637,0.812-1.147,0.865v0.508C12.263,14.773,12.038,14.998,11.763,14.998z"/>
</g>
</svg>
