<?xml version="1.0" encoding="utf-8"?>
<!-- Generator: Adobe Illustrator 22.1.0, SVG Export Plug-In . SVG Version: 6.00 Build 0)  -->
<svg version="1.1" id="Layer_1" xmlns="http://www.w3.org/2000/svg" xmlns:xlink="http://www.w3.org/1999/xlink" x="0px" y="0px"
	 viewBox="0 0 24 24" style="enable-background:new 0 0 24 24;" xml:space="preserve">
<g>
	<title>wireless-payment-credit-card</title>
	<path d="M11.504,24c-1.379,0-2.5-1.122-2.5-2.5v-6c0-1.378,1.121-2.5,2.5-2.5h10c1.378,0,2.5,1.122,2.5,2.5v6
		c0,1.378-1.122,2.5-2.5,2.5H11.504z M10.004,21.5c0,0.827,0.673,1.5,1.5,1.5h10c0.827,0,1.5-0.673,1.5-1.5V17h-13V21.5z M23.004,16
		v-0.5c0-0.827-0.673-1.5-1.5-1.5h-10c-0.827,0-1.5,0.673-1.5,1.5V16H23.004z"/>
	<path d="M2.5,24C1.121,24,0,22.878,0,21.5v-19C0,1.121,1.121,0,2.5,0h9C12.878,0,14,1.121,14,2.5v1.957
		c0.002,0.015,0.004,0.031,0.004,0.043c0,0.019-0.002,0.036-0.005,0.05L14,11.5c0,0.276-0.224,0.5-0.5,0.5S13,11.776,13,11.5V5H1v14
		h6.504c0.276,0,0.5,0.224,0.5,0.5S7.78,20,7.504,20H1v1.5C1,22.327,1.673,23,2.5,23h5C7.776,23,8,23.224,8,23.5S7.776,24,7.5,24
		H2.5z M13,4V2.5C13,1.673,12.327,1,11.5,1h-9C1.673,1,1,1.673,1,2.5V4H13z"/>
	<path d="M12.004,19c-0.276,0-0.5-0.224-0.5-0.5s0.224-0.5,0.5-0.5h4.5c0.276,0,0.5,0.224,0.5,0.5s-0.224,0.5-0.5,0.5H12.004z"/>
	<path d="M12.004,21c-0.276,0-0.5-0.224-0.5-0.5s0.224-0.5,0.5-0.5h2c0.276,0,0.5,0.224,0.5,0.5s-0.224,0.5-0.5,0.5H12.004z"/>
</g>
</svg>
