<?xml version="1.0" encoding="utf-8"?>
<!-- Generator: Adobe Illustrator 22.1.0, SVG Export Plug-In . SVG Version: 6.00 Build 0)  -->
<svg version="1.1" id="Layer_1" xmlns="http://www.w3.org/2000/svg" xmlns:xlink="http://www.w3.org/1999/xlink" x="0px" y="0px"
	 viewBox="0 0 24 24" style="enable-background:new 0 0 24 24;" xml:space="preserve">
<g>
	<title>seo-search-star</title>
	<path d="M0.692,16.763c-0.276,0-0.5-0.224-0.5-0.5s0.224-0.5,0.5-0.5h1.657c-1.378-1.585-2.193-3.589-2.309-5.701
		c-0.139-2.534,0.717-4.97,2.41-6.86c1.796-2.005,4.381-3.154,7.094-3.154c1.438,0,2.877,0.333,4.162,0.963
		c0.247,0.121,0.35,0.421,0.229,0.669c-0.083,0.17-0.26,0.28-0.449,0.28c-0.076,0-0.152-0.018-0.22-0.051
		c-1.149-0.563-2.437-0.861-3.723-0.861c-2.428,0-4.742,1.028-6.348,2.822C1.681,5.56,0.915,7.739,1.039,10.006
		c0.101,1.847,0.8,3.6,1.982,5.003v-1.576c0-0.276,0.224-0.5,0.5-0.5s0.5,0.224,0.5,0.5v2.829c0,0.276-0.224,0.5-0.5,0.5H0.692z"/>
	<path d="M6.439,15.045c-0.411,0-0.795-0.22-1-0.575c-0.18-0.311-0.205-0.695-0.066-1.026l1.07-2.461L4.503,8.961
		C4.304,8.785,4.177,8.519,4.16,8.226c-0.017-0.299,0.083-0.587,0.282-0.81c0.214-0.24,0.509-0.372,0.829-0.372l2.208,0l1.144-2.359
		c0.204-0.397,0.601-0.64,1.04-0.64c0.182,0,0.365,0.044,0.528,0.128c0.217,0.112,0.391,0.285,0.503,0.502l1.15,2.369l2.219-0.001
		c0.276,0,0.542,0.106,0.748,0.297c0.218,0.202,0.344,0.477,0.355,0.774c0.013,0.333-0.123,0.651-0.371,0.872l-1.908,1.994
		l1.068,2.456c0.248,0.591-0.028,1.27-0.615,1.516c-0.142,0.059-0.292,0.09-0.447,0.09c-0.204,0-0.404-0.054-0.579-0.155
		l-2.649-1.493l-2.655,1.496C6.839,14.992,6.641,15.045,6.439,15.045z M5.279,8.044c-0.038,0-0.069,0.013-0.091,0.038
		C5.161,8.112,5.159,8.146,5.16,8.164c0.001,0.018,0.007,0.051,0.037,0.078l2.198,2.289c0.14,0.146,0.178,0.36,0.098,0.545
		l-1.2,2.761c-0.016,0.038-0.012,0.091,0.011,0.131c0.027,0.047,0.079,0.077,0.134,0.077c0.027,0,0.053-0.007,0.077-0.021
		l2.905-1.637c0.075-0.042,0.16-0.064,0.245-0.064s0.171,0.022,0.245,0.064l2.9,1.634c0.027,0.016,0.055,0.023,0.083,0.023
		c0.021,0,0.041-0.004,0.059-0.012c0.078-0.033,0.115-0.123,0.082-0.202l-1.198-2.755c-0.081-0.185-0.042-0.399,0.097-0.545
		l2.166-2.262c0.062-0.057,0.067-0.093,0.066-0.116c-0.002-0.06-0.053-0.109-0.113-0.109l-2.523,0c-0.19,0-0.367-0.111-0.45-0.282
		L9.801,5.125C9.788,5.101,9.765,5.078,9.734,5.062C9.712,5.051,9.687,5.045,9.662,5.045c-0.061,0-0.116,0.033-0.143,0.087
		L8.242,7.763c-0.083,0.171-0.26,0.282-0.45,0.282L5.279,8.044z"/>
	<path d="M21.952,23.969c-0.52,0-1.013-0.2-1.39-0.564l-4.249-4.248c-0.189-0.189-0.293-0.44-0.293-0.707s0.104-0.518,0.293-0.707
		l0.354-0.354l-0.779-0.779c-1.748,1.573-3.998,2.436-6.364,2.436c-1.466,0-2.933-0.346-4.242-1.001
		c-0.247-0.124-0.347-0.425-0.223-0.671c0.085-0.17,0.257-0.276,0.448-0.276c0.077,0,0.154,0.018,0.223,0.052
		c1.171,0.586,2.482,0.896,3.793,0.896c2.227,0,4.406-0.892,5.983-2.447c0.009-0.013,0.02-0.028,0.035-0.043
		c0.01-0.01,0.027-0.023,0.043-0.034c0.096-0.098,0.191-0.197,0.284-0.3c1.515-1.691,2.281-3.871,2.156-6.138
		c-0.102-1.847-0.8-3.601-1.982-5.003v1.576c0,0.276-0.224,0.5-0.5,0.5s-0.5-0.224-0.5-0.5V2.828c0-0.276,0.224-0.5,0.5-0.5h2.828
		c0.276,0,0.5,0.224,0.5,0.5s-0.224,0.5-0.5,0.5h-1.656c1.377,1.585,2.192,3.588,2.308,5.7c0.139,2.534-0.716,4.97-2.409,6.86
		c-0.005,0.006-0.01,0.011-0.015,0.017l0.777,0.777l0.354-0.354c0.189-0.188,0.44-0.292,0.707-0.292
		c0.267,0,0.518,0.104,0.707,0.292l4.242,4.243c0.007,0.007,0.016,0.017,0.022,0.024c0.75,0.776,0.728,2.044-0.065,2.811
		C22.965,23.768,22.472,23.969,21.952,23.969z M17.021,18.449l4.243,4.242c0.184,0.177,0.429,0.277,0.688,0.277
		c0.26,0,0.507-0.1,0.696-0.283c0.192-0.186,0.3-0.435,0.305-0.702c0.005-0.266-0.094-0.519-0.28-0.711l-4.237-4.238L17.021,18.449z
		"/>
</g>
</svg>
