<?xml version="1.0" encoding="utf-8"?>
<!-- Generator: Adobe Illustrator 22.1.0, SVG Export Plug-In . SVG Version: 6.00 Build 0)  -->
<svg version="1.1" id="Layer_1" xmlns="http://www.w3.org/2000/svg" xmlns:xlink="http://www.w3.org/1999/xlink" x="0px" y="0px"
	 viewBox="0 0 24 24" style="enable-background:new 0 0 24 24;" xml:space="preserve">
<g>
	<title>seo-network-1</title>
	<path d="M7.975,16.5c-1.103,0-2-0.897-2-2v-5c0-1.103,0.897-2,2-2h2.5c0.276,0,0.5,0.224,0.5,0.5s-0.224,0.5-0.5,0.5h-2.5
		c-0.551,0-1,0.449-1,1v2h2c0.276,0,0.5,0.224,0.5,0.5c0,0.276-0.224,0.5-0.5,0.5h-2v2c0,0.552,0.449,1,1,1h2.5
		c0.276,0,0.5,0.224,0.5,0.5s-0.224,0.5-0.5,0.5H7.975z"/>
	<path d="M0.5,16.5C0.224,16.5,0,16.276,0,16s0.224-0.5,0.5-0.5h2.146c0.516,0,0.979-0.287,1.21-0.748
		c0.162-0.323,0.188-0.69,0.074-1.033c-0.114-0.344-0.355-0.622-0.679-0.783l-1.95-0.976c-0.802-0.401-1.3-1.207-1.301-2.104
		c0-0.628,0.245-1.219,0.69-1.664C1.135,7.745,1.726,7.5,2.354,7.5H4.5C4.776,7.5,5,7.724,5,8S4.776,8.5,4.5,8.5H2.354
		c-0.361,0-0.701,0.141-0.957,0.397S1,9.493,1.001,9.854c0,0.516,0.287,0.98,0.748,1.21l1.95,0.976
		c0.562,0.281,0.981,0.765,1.18,1.362c0.199,0.596,0.153,1.235-0.128,1.797C4.349,16.001,3.543,16.5,2.646,16.5
		C2.646,16.5,0.5,16.5,0.5,16.5z"/>
	<path d="M17.5,18.5c-0.515,0-1.031-0.062-1.535-0.185c-0.007-0.002-0.033-0.008-0.04-0.01C13.033,17.592,11,14.998,11,12
		c0-3.584,2.916-6.5,6.5-6.5S24,8.416,24,12c0,2.998-2.033,5.592-4.944,6.31c-0.003,0.001-0.021,0.005-0.025,0.006
		C18.531,18.438,18.015,18.5,17.5,18.5z M16.479,17.404c0.338,0.064,0.681,0.096,1.021,0.096s0.684-0.032,1.021-0.096
		c0.477-1.592,0.722-3.24,0.73-4.904h-3.502C15.758,14.167,16.003,15.815,16.479,17.404z M12.024,12.5
		c0.184,2.007,1.474,3.768,3.321,4.559c-0.389-1.489-0.589-3.019-0.596-4.559H12.024z M20.251,12.5
		c-0.006,1.537-0.206,3.067-0.596,4.559c1.847-0.791,3.137-2.552,3.321-4.559H20.251z M22.976,11.5
		c-0.184-2.007-1.474-3.768-3.321-4.558c0.389,1.489,0.589,3.019,0.596,4.558H22.976z M19.251,11.5
		c-0.009-1.667-0.254-3.315-0.73-4.904C18.184,6.532,17.841,6.5,17.5,6.5s-0.684,0.032-1.021,0.096
		c-0.477,1.592-0.722,3.24-0.73,4.904H19.251z M14.749,11.5c0.006-1.537,0.206-3.067,0.596-4.558
		c-1.847,0.79-3.137,2.552-3.321,4.558H14.749z"/>
</g>
</svg>
