<?xml version="1.0" encoding="utf-8"?>
<!-- Generator: Adobe Illustrator 22.1.0, SVG Export Plug-In . SVG Version: 6.00 Build 0)  -->
<svg version="1.1" id="Layer_1" xmlns="http://www.w3.org/2000/svg" xmlns:xlink="http://www.w3.org/1999/xlink" x="0px" y="0px"
	 viewBox="0 0 24 24" style="enable-background:new 0 0 24 24;" xml:space="preserve">
<g>
	<title>seo-search</title>
	<path d="M1,7.74c-0.551,0-1-0.449-1-1v-3c0-0.551,0.449-1,1-1h12c0.276,0,0.5,0.224,0.5,0.5s-0.224,0.5-0.5,0.5H1v3h12
		c0.276,0,0.5,0.224,0.5,0.5s-0.224,0.5-0.5,0.5H1z"/>
	<path d="M23.5,10.74c-0.134,0-0.259-0.052-0.354-0.146l-2.725-2.725C19.782,8.355,19.002,8.62,18.2,8.62
		c-2.029,0-3.68-1.651-3.68-3.68s1.651-3.68,3.68-3.68s3.68,1.651,3.68,3.68c0,0.802-0.265,1.582-0.751,2.221l2.725,2.725
		C23.948,9.981,24,10.106,24,10.24s-0.052,0.259-0.146,0.354S23.634,10.74,23.5,10.74z M18.2,2.26c-1.478,0-2.68,1.202-2.68,2.68
		c0,1.478,1.202,2.68,2.68,2.68s2.68-1.202,2.68-2.68C20.88,3.462,19.678,2.26,18.2,2.26z"/>
	<path d="M1.5,17.74c-0.827,0-1.5-0.673-1.5-1.5s0.673-1.5,1.5-1.5S3,15.413,3,16.24S2.327,17.74,1.5,17.74z M1.5,15.74
		c-0.276,0-0.5,0.224-0.5,0.5s0.224,0.5,0.5,0.5S2,16.516,2,16.24S1.776,15.74,1.5,15.74z"/>
	<path d="M1.5,22.74c-0.827,0-1.5-0.673-1.5-1.5s0.673-1.5,1.5-1.5S3,20.413,3,21.24S2.327,22.74,1.5,22.74z M1.5,20.74
		c-0.276,0-0.5,0.224-0.5,0.5s0.224,0.5,0.5,0.5S2,21.516,2,21.24S1.776,20.74,1.5,20.74z"/>
	<path d="M4.5,16.74c-0.276,0-0.5-0.224-0.5-0.5s0.224-0.5,0.5-0.5h11c0.276,0,0.5,0.224,0.5,0.5s-0.224,0.5-0.5,0.5H4.5z"/>
	<path d="M1.5,12.74c-0.827,0-1.5-0.673-1.5-1.5s0.673-1.5,1.5-1.5S3,10.413,3,11.24S2.327,12.74,1.5,12.74z M1.5,10.74
		c-0.276,0-0.5,0.224-0.5,0.5s0.224,0.5,0.5,0.5S2,11.516,2,11.24S1.776,10.74,1.5,10.74z"/>
	<path d="M4.5,11.74c-0.276,0-0.5-0.224-0.5-0.5s0.224-0.5,0.5-0.5h11c0.276,0,0.5,0.224,0.5,0.5s-0.224,0.5-0.5,0.5H4.5z"/>
	<path d="M4.5,21.74c-0.276,0-0.5-0.224-0.5-0.5s0.224-0.5,0.5-0.5h11c0.276,0,0.5,0.224,0.5,0.5s-0.224,0.5-0.5,0.5H4.5z"/>
</g>
</svg>
