<?xml version="1.0" encoding="utf-8"?>
<!-- Generator: Adobe Illustrator 22.1.0, SVG Export Plug-In . SVG Version: 6.00 Build 0)  -->
<svg version="1.1" id="Layer_1" xmlns="http://www.w3.org/2000/svg" xmlns:xlink="http://www.w3.org/1999/xlink" x="0px" y="0px"
	 viewBox="0 0 24 24" style="enable-background:new 0 0 24 24;" xml:space="preserve">
<g>
	<title>seo-search-page</title>
	<path d="M1.5,20.75c-0.827,0-1.5-0.673-1.5-1.5v-16c0-0.827,0.673-1.5,1.5-1.5h19c0.827,0,1.5,0.673,1.5,1.5v6.9
		c0,0.276-0.224,0.5-0.5,0.5s-0.5-0.224-0.5-0.5v-3.4H1v12.5c0,0.276,0.224,0.5,0.5,0.5H12c0.276,0,0.5,0.224,0.5,0.5
		s-0.224,0.5-0.5,0.5H1.5z M21,5.75v-2.5c0-0.276-0.224-0.5-0.5-0.5h-19C1.224,2.75,1,2.974,1,3.25v2.5H21z"/>
	<path d="M3.5,12.25c-0.134,0-0.259-0.052-0.354-0.146l-1-1C2.052,11.009,2,10.884,2,10.75s0.052-0.259,0.146-0.354
		S2.366,10.25,2.5,10.25s0.259,0.052,0.354,0.146L3.5,11.043l2.646-2.646C6.241,8.302,6.366,8.25,6.5,8.25s0.259,0.052,0.354,0.146
		S7,8.616,7,8.75S6.948,9.009,6.854,9.104l-3,3C3.759,12.198,3.634,12.25,3.5,12.25z"/>
	<path d="M8,11.75c-0.276,0-0.5-0.224-0.5-0.5s0.224-0.5,0.5-0.5h3.5c0.276,0,0.5,0.224,0.5,0.5s-0.224,0.5-0.5,0.5H8z"/>
	<path d="M9.5,9.75C9.224,9.75,9,9.526,9,9.25s0.224-0.5,0.5-0.5h3c0.276,0,0.5,0.224,0.5,0.5s-0.224,0.5-0.5,0.5H9.5z"/>
	<path d="M23.5,21.75c-0.134,0-0.259-0.052-0.354-0.146l-2.938-2.938c-0.9,0.738-2.02,1.142-3.18,1.142
		c-2.773,0-5.029-2.256-5.029-5.029c0-2.773,2.256-5.029,5.029-5.029s5.029,2.256,5.029,5.029c0,1.16-0.404,2.28-1.142,3.18
		l2.938,2.938C23.948,20.991,24,21.116,24,21.25s-0.052,0.259-0.146,0.354S23.634,21.75,23.5,21.75z M17.029,10.75
		c-2.222,0-4.029,1.807-4.029,4.029s1.807,4.029,4.029,4.029s4.029-1.807,4.029-4.029S19.251,10.75,17.029,10.75z"/>
</g>
</svg>
