<?xml version="1.0" encoding="utf-8"?>
<!-- Generator: Adobe Illustrator 22.1.0, SVG Export Plug-In . SVG Version: 6.00 Build 0)  -->
<svg version="1.1" id="Layer_1" xmlns="http://www.w3.org/2000/svg" xmlns:xlink="http://www.w3.org/1999/xlink" x="0px" y="0px"
	 viewBox="0 0 24 24" style="enable-background:new 0 0 24 24;" xml:space="preserve">
<g>
	<title>seo-search-reward</title>
	<path d="M21.75,24c-0.134,0-0.259-0.052-0.354-0.146l-5.064-5.064c-0.558,0.485-1.19,0.876-1.879,1.165
		c-0.86,0.36-1.767,0.542-2.694,0.542c-2.836,0-5.374-1.687-6.466-4.297c-0.723-1.728-0.719-3.708,0.012-5.433
		c0.079-0.185,0.259-0.305,0.46-0.305c0.067,0,0.132,0.013,0.194,0.039c0.255,0.108,0.374,0.402,0.266,0.656
		c-0.626,1.478-0.63,3.176-0.01,4.657c0.937,2.238,3.112,3.683,5.542,3.683c0,0,0,0,0,0c0.794,0,1.571-0.157,2.309-0.466
		c3.052-1.277,4.495-4.799,3.218-7.851c-0.106-0.255,0.014-0.548,0.269-0.654c0.062-0.026,0.126-0.039,0.193-0.039
		c0.202,0,0.383,0.12,0.461,0.307c1.025,2.449,0.563,5.282-1.17,7.287l5.066,5.066c0.195,0.195,0.195,0.512,0,0.707
		C22.009,23.948,21.884,24,21.75,24z"/>
	<path d="M7.546,9.5c-0.703,0-1.304-0.478-1.462-1.163L4.838,2.939C4.198,2.757,3.75,2.177,3.75,1.5c0-0.827,0.673-1.5,1.5-1.5
		s1.5,0.673,1.5,1.5c0,0.45-0.208,0.874-0.55,1.155l2.524,2.164l2.123-2.123c-0.371-0.28-0.597-0.72-0.597-1.196
		c0-0.827,0.673-1.5,1.5-1.5s1.5,0.673,1.5,1.5c0,0.476-0.226,0.916-0.597,1.196l2.123,2.123L17.3,2.655
		C16.958,2.374,16.75,1.95,16.75,1.5c0-0.827,0.673-1.5,1.5-1.5s1.5,0.673,1.5,1.5c0,0.677-0.448,1.257-1.088,1.439l-1.246,5.399
		C17.258,9.022,16.657,9.5,15.955,9.5H7.546z M7.058,8.113C7.111,8.341,7.311,8.5,7.546,8.5h8.409c0.235,0,0.435-0.159,0.488-0.387
		l0.979-4.244l-2.346,2.01C14.985,5.957,14.869,6,14.75,6c-0.134,0-0.259-0.052-0.354-0.147L11.75,3.207L9.104,5.854
		C9.009,5.948,8.884,6,8.75,6C8.631,6,8.515,5.957,8.425,5.88l-2.345-2.01L7.058,8.113z M18.25,1c-0.276,0-0.5,0.224-0.5,0.5
		S17.974,2,18.25,2s0.5-0.224,0.5-0.5S18.526,1,18.25,1z M11.75,1c-0.276,0-0.5,0.224-0.5,0.5S11.474,2,11.75,2s0.5-0.224,0.5-0.5
		S12.026,1,11.75,1z M5.25,1c-0.276,0-0.5,0.224-0.5,0.5S4.974,2,5.25,2s0.5-0.224,0.5-0.5S5.526,1,5.25,1z"/>
	<path d="M2.75,24c-0.276,0-0.5-0.224-0.5-0.5V22h-1.5c-0.276,0-0.5-0.224-0.5-0.5S0.474,21,0.75,21h1.5v-1.5
		c0-0.276,0.224-0.5,0.5-0.5s0.5,0.224,0.5,0.5V21h1.5c0.276,0,0.5,0.224,0.5,0.5S5.026,22,4.75,22h-1.5v1.5
		C3.25,23.776,3.026,24,2.75,24z"/>
	<path d="M21.75,8.5c-0.276,0-0.5-0.224-0.5-0.5V7h-1c-0.276,0-0.5-0.224-0.5-0.5S19.974,6,20.25,6h1V5c0-0.276,0.224-0.5,0.5-0.5
		s0.5,0.224,0.5,0.5v1h1c0.276,0,0.5,0.224,0.5,0.5S23.526,7,23.25,7h-1v1C22.25,8.276,22.026,8.5,21.75,8.5z"/>
</g>
</svg>
