<?xml version="1.0" encoding="utf-8"?>
<!-- Generator: Adobe Illustrator 22.1.0, SVG Export Plug-In . SVG Version: 6.00 Build 0)  -->
<svg version="1.1" id="Layer_1" xmlns="http://www.w3.org/2000/svg" xmlns:xlink="http://www.w3.org/1999/xlink" x="0px" y="0px"
	 viewBox="0 0 24 24" style="enable-background:new 0 0 24 24;" xml:space="preserve">
<g>
	<title>seo-search-graph</title>
	<path d="M1.015,12.438c-0.209,0-0.398-0.132-0.469-0.328C-1.16,7.45,1.243,2.271,5.904,0.565c0.999-0.366,2.042-0.552,3.1-0.552
		c2.986,0,5.77,1.48,7.448,3.959c0.155,0.228,0.094,0.54-0.134,0.694c-0.083,0.056-0.18,0.086-0.28,0.086
		c-0.166,0-0.321-0.082-0.414-0.22c-1.491-2.204-3.966-3.52-6.62-3.52c-0.94,0-1.867,0.165-2.756,0.49
		c-4.142,1.516-6.279,6.12-4.763,10.262c0.046,0.125,0.04,0.261-0.016,0.382c-0.056,0.121-0.156,0.213-0.282,0.259
		C1.131,12.428,1.073,12.438,1.015,12.438z"/>
	<path d="M21.96,23.984c-0.521,0-1.014-0.199-1.389-0.562l-3.932-3.932c-0.584-0.585-0.584-1.536,0-2.121l-1.635-1.635
		c-0.011,0.01-0.022,0.02-0.033,0.03c-1.648,1.459-3.763,2.263-5.955,2.263c-0.183,0-0.371-0.006-0.557-0.017
		c-1.927-0.117-3.729-0.832-5.213-2.067c-0.103-0.085-0.166-0.206-0.178-0.339c-0.012-0.133,0.028-0.263,0.114-0.365
		c0.095-0.114,0.235-0.18,0.384-0.18c0.116,0,0.23,0.041,0.32,0.116c1.319,1.098,2.921,1.733,4.634,1.837
		c0.164,0.01,0.328,0.015,0.491,0.015c1.952,0,3.833-0.714,5.298-2.011c1.6-1.417,2.552-3.371,2.682-5.504
		c0.016-0.263,0.236-0.47,0.501-0.47c0.005,0,0.022,0,0.027,0.001c0.135,0.008,0.257,0.068,0.345,0.168
		c0.089,0.1,0.133,0.228,0.125,0.362c-0.123,2.026-0.929,3.953-2.276,5.455l1.636,1.635c0.283-0.283,0.66-0.439,1.061-0.439
		c0.401,0,0.778,0.156,1.061,0.439l3.888,3.888c0.38,0.368,0.596,0.866,0.605,1.399c0.009,0.534-0.19,1.04-0.562,1.424
		c-0.371,0.384-0.869,0.601-1.403,0.61L21.96,23.984z M18.407,17.224c-0.134,0-0.259,0.052-0.354,0.146l-0.707,0.707
		c-0.195,0.195-0.195,0.512,0,0.707l3.922,3.922c0.185,0.178,0.429,0.278,0.686,0.278c0.291-0.005,0.54-0.113,0.726-0.305
		c0.186-0.192,0.285-0.445,0.281-0.712c-0.004-0.267-0.113-0.516-0.305-0.702L18.76,17.37C18.666,17.276,18.54,17.224,18.407,17.224
		z"/>
	<path d="M0.503,16.026c-0.134,0-0.259-0.052-0.354-0.146c-0.195-0.195-0.195-0.512,0-0.707L8.942,6.38
		c0.283-0.283,0.66-0.439,1.061-0.439s0.778,0.156,1.061,0.439l2.586,2.586c0.094,0.094,0.22,0.146,0.353,0.146
		c0.134,0,0.259-0.052,0.354-0.146l7.94-7.939h-1.793c-0.276,0-0.5-0.224-0.5-0.5s0.224-0.5,0.5-0.5h3
		c0.066,0,0.13,0.013,0.191,0.038c0.123,0.051,0.219,0.147,0.27,0.27c0.025,0.061,0.038,0.126,0.038,0.191v3
		c0,0.276-0.224,0.5-0.5,0.5s-0.5-0.224-0.5-0.5V1.733l-7.94,7.94c-0.283,0.283-0.659,0.439-1.06,0.439
		c-0.401,0-0.778-0.156-1.061-0.439l-2.586-2.586c-0.094-0.094-0.22-0.146-0.354-0.146S9.744,6.993,9.649,7.087L0.856,15.88
		C0.762,15.974,0.636,16.026,0.503,16.026z"/>
</g>
</svg>
