<?xml version="1.0" encoding="utf-8"?>
<!-- Generator: Adobe Illustrator 22.1.0, SVG Export Plug-In . SVG Version: 6.00 Build 0)  -->
<svg version="1.1" id="Layer_1" xmlns="http://www.w3.org/2000/svg" xmlns:xlink="http://www.w3.org/1999/xlink" x="0px" y="0px"
	 viewBox="0 0 24 24" style="enable-background:new 0 0 24 24;" xml:space="preserve">
<g>
	<title>navigation-smartphone-message</title>
	<path d="M2.5,24C1.673,24,1,23.327,1,22.5v-11C1,10.673,1.673,10,2.5,10H5V4.5C5,3.673,5.673,3,6.5,3H8c0.276,0,0.5,0.224,0.5,0.5
		S8.276,4,8,4H6.5C6.224,4,6,4.224,6,4.5v10C6,14.776,6.224,15,6.5,15h5c0.276,0,0.5,0.224,0.5,0.5v1.913l2.675-2.292
		C14.765,15.043,14.88,15,15,15h6.5c0.276,0,0.5-0.224,0.5-0.5v-10C22,4.224,21.776,4,21.5,4H20c-0.276,0-0.5-0.224-0.5-0.5
		S19.724,3,20,3h1.5C22.327,3,23,3.673,23,4.5v10c0,0.827-0.673,1.5-1.5,1.5h-6.315l-3.17,2.717
		c-0.119,0.107-0.272,0.169-0.426,0.169c-0.082,0-0.161-0.017-0.235-0.05C11.136,18.739,11,18.514,11,18.25V16H9v6.5
		C9,23.327,8.327,24,7.5,24H2.5z M2,22.5C2,22.776,2.224,23,2.5,23h5C7.776,23,8,22.776,8,22.5V21H2V22.5z M8,20v-4H6.5
		C5.673,16,5,15.327,5,14.5V11H2.5C2.224,11,2,11.224,2,11.5V20H8z"/>
	<path d="M14,7c-1.103,0-2-0.897-2-2s0.897-2,2-2s2,0.897,2,2S15.103,7,14,7z M14,4c-0.552,0-1,0.449-1,1s0.448,1,1,1s1-0.449,1-1
		S14.552,4,14,4z"/>
	<path d="M14,13c-0.134,0-0.259-0.052-0.354-0.146C13.457,12.664,9,8.171,9,5c0-2.757,2.243-5,5-5c2.757,0,5,2.243,5,5
		c0,3.171-4.457,7.664-4.646,7.854C14.259,12.948,14.134,13,14,13z M14,1c-2.206,0-4,1.794-4,4c0,2.291,3.021,5.724,4,6.776
		c0.979-1.052,4-4.487,4-6.776C18,2.794,16.206,1,14,1z"/>
</g>
</svg>
