<?xml version="1.0" encoding="utf-8"?>
<!-- Generator: Adobe Illustrator 22.1.0, SVG Export Plug-In . SVG Version: 6.00 Build 0)  -->
<svg version="1.1" id="Layer_1" xmlns="http://www.w3.org/2000/svg" xmlns:xlink="http://www.w3.org/1999/xlink" x="0px" y="0px"
	 viewBox="0 0 24 24" style="enable-background:new 0 0 24 24;" xml:space="preserve">
<g>
	<title>navigation-car-pin-1</title>
	<path d="M19,7c-1.103,0-2-0.897-2-2s0.897-2,2-2s2,0.897,2,2S20.103,7,19,7z M19,4c-0.552,0-1,0.449-1,1s0.448,1,1,1s1-0.449,1-1
		S19.552,4,19,4z"/>
	<path d="M19,13c-0.134,0-0.259-0.052-0.354-0.146C18.457,12.664,14,8.171,14,5c0-2.757,2.243-5,5-5s5,2.243,5,5
		c0,3.171-4.457,7.664-4.646,7.854C19.259,12.948,19.134,13,19,13z M19,1c-2.206,0-4,1.794-4,4c0,2.291,3.021,5.724,4,6.776
		c0.979-1.052,4-4.487,4-6.776C23,2.794,21.206,1,19,1z"/>
	<path d="M9,24c-1.199,0-2.215-0.845-2.449-2H0.5C0.224,22,0,21.776,0,21.5S0.224,21,0.5,21h6.051c0.234-1.155,1.25-2,2.449-2
		s2.215,0.845,2.449,2H18v-1h-1c-1.378,0-2.5-1.122-2.5-2.5c0-0.276,0.224-0.5,0.5-0.5h2.497c-0.468-0.625-1.201-1-1.997-1h-15
		C0.224,16,0,15.776,0,15.5S0.224,15,0.5,15H3v-4H0.5C0.224,11,0,10.776,0,10.5S0.224,10,0.5,10h0.258l0.579-1.255
		C1.567,8.306,2,8.026,2.474,8.001L6.294,8c0.411,0,0.775,0.246,0.928,0.628C7.525,9.381,7.689,9.785,7.78,10h0.602
		c0.547,0,1.047,0.296,1.311,0.772L13.233,15H15.5c1.463,0,2.784,0.927,3.286,2.307c0,0,0.008,0.021,0.01,0.026
		C18.932,17.717,19,18.108,19,18.5V21h0.5c0.276,0,0.5,0.224,0.5,0.5S19.776,22,19.5,22h-8.051C11.215,23.155,10.199,24,9,24z M9,20
		c-0.827,0-1.5,0.673-1.5,1.5S8.173,23,9,23s1.5-0.673,1.5-1.5S9.827,20,9,20z M15.586,18c0.209,0.586,0.773,1,1.414,1h1v-0.5
		c0-0.166-0.018-0.333-0.052-0.5H15.586z M11.929,15l-3.036-3.626c-0.025-0.03-0.047-0.063-0.064-0.097
		C8.744,11.106,8.572,11,8.382,11H4v4H11.929z M6.698,10c-0.101-0.245-0.23-0.565-0.404-1L2.508,9
		c-0.11,0.008-0.22,0.083-0.275,0.187L1.859,10H6.698z"/>
</g>
</svg>
