<?xml version="1.0" encoding="utf-8"?>
<!-- Generator: Adobe Illustrator 22.1.0, SVG Export Plug-In . SVG Version: 6.00 Build 0)  -->
<svg version="1.1" id="Layer_1" xmlns="http://www.w3.org/2000/svg" xmlns:xlink="http://www.w3.org/1999/xlink" x="0px" y="0px"
	 viewBox="0 0 24 24" style="enable-background:new 0 0 24 24;" xml:space="preserve">
<g>
	<title>navigation-smartphone-finger</title>
	<path d="M2.542,18.921c-1.379,0-2.5-1.122-2.5-2.5v-11c0-1.379,1.121-2.5,2.5-2.5h3.5c0.276,0,0.5,0.224,0.5,0.5
		s-0.224,0.5-0.5,0.5h-1v14h4.5c0.276,0,0.5,0.224,0.5,0.5s-0.224,0.5-0.5,0.5H2.542z M2.542,3.921c-0.827,0-1.5,0.673-1.5,1.5v11
		c0,0.827,0.673,1.5,1.5,1.5h1.5v-14H2.542z"/>
	<path d="M23.091,18.187c-0.115,0-0.227-0.04-0.316-0.113c-0.214-0.175-0.245-0.491-0.071-0.704
		c0.219-0.267,0.339-0.604,0.338-0.948V5.421c0-0.827-0.673-1.5-1.5-1.5h-1.5v12.521c0,0.276-0.224,0.5-0.5,0.5s-0.5-0.224-0.5-0.5
		V3.921h-1c-0.276,0-0.5-0.224-0.5-0.5s0.224-0.5,0.5-0.5h3.5c1.378,0,2.5,1.121,2.5,2.5v11c0.001,0.575-0.199,1.137-0.564,1.583
		C23.383,18.12,23.241,18.187,23.091,18.187z"/>
	<path d="M22.542,24c-0.276,0-0.5-0.224-0.5-0.5v-1.1c0.007-1.284-0.991-2.338-2.272-2.4l-2.228,0c-0.276,0-0.5-0.224-0.5-0.5v-4.75
		c0-0.414-0.336-0.75-0.75-0.75c-0.414,0-0.75,0.336-0.75,0.75V22c0,0.218-0.14,0.41-0.348,0.476c-0.05,0.016-0.1,0.023-0.151,0.023
		c-0.162,0-0.315-0.079-0.408-0.21l-1.521-2.14c-0.013-0.019-0.025-0.038-0.035-0.057c-0.068-0.13-0.183-0.225-0.323-0.269
		c-0.053-0.016-0.109-0.025-0.164-0.025c-0.089,0-0.175,0.021-0.256,0.064c-0.268,0.141-0.371,0.475-0.23,0.743l1.4,2.661
		c0.062,0.118,0.075,0.254,0.035,0.381c-0.04,0.127-0.126,0.232-0.245,0.294C13.224,23.98,13.144,24,13.063,24
		c-0.187,0-0.356-0.102-0.443-0.267l-1.4-2.661c-0.398-0.756-0.107-1.695,0.649-2.094c0.223-0.117,0.472-0.179,0.721-0.179
		c0.156,0,0.31,0.023,0.461,0.07c0.384,0.119,0.701,0.376,0.895,0.726l0.596,0.838V14.75c0-0.965,0.785-1.75,1.75-1.75
		s1.75,0.785,1.75,1.75V19h1.752c1.836,0.089,3.258,1.583,3.248,3.402V23.5C23.042,23.776,22.818,24,22.542,24z"/>
	<path d="M12.042,7c-1.103,0-2-0.897-2-2s0.897-2,2-2s2,0.897,2,2S13.145,7,12.042,7z M12.042,4c-0.551,0-1,0.449-1,1s0.449,1,1,1
		c0.552,0,1-0.449,1-1S12.594,4,12.042,4z"/>
	<path d="M12.041,12.776c-0.254,0-0.496-0.095-0.682-0.268c-0.017-0.016-0.033-0.032-0.048-0.048C10.31,11.392,7.042,7.696,7.042,5
		c0-2.757,2.243-5,5-5c2.757,0,5,2.243,5,5c0,2.606-2.986,6.085-4.27,7.459C12.584,12.661,12.318,12.776,12.041,12.776z M12.042,1
		c-2.206,0-4,1.794-4,4c0,2.329,3.061,5.775,3.999,6.776C12.98,10.772,16.042,7.313,16.042,5C16.042,2.794,14.248,1,12.042,1z"/>
</g>
</svg>
