<?xml version="1.0" encoding="utf-8"?>
<!-- Generator: Adobe Illustrator 22.1.0, SVG Export Plug-In . SVG Version: 6.00 Build 0)  -->
<svg version="1.1" id="Layer_1" xmlns="http://www.w3.org/2000/svg" xmlns:xlink="http://www.w3.org/1999/xlink" x="0px" y="0px"
	 viewBox="0 0 24 24" style="enable-background:new 0 0 24 24;" xml:space="preserve">
<g>
	<title>navigation-car-pin</title>
	<path d="M9,24c-1.199,0-2.215-0.845-2.449-2H0.5C0.224,22,0,21.776,0,21.5S0.224,21,0.5,21h6.051C6.784,19.846,7.8,19,9,19
		s2.215,0.845,2.449,2H18v-1h-1c-1.378,0-2.5-1.122-2.5-2.5c0-0.276,0.224-0.5,0.5-0.5h2.497c-0.468-0.625-1.201-1-1.997-1h-15
		C0.224,16,0,15.776,0,15.5S0.224,15,0.5,15H3v-4H0.5C0.224,11,0,10.776,0,10.5S0.224,10,0.5,10h0.258l0.579-1.255
		C1.567,8.307,2,8.026,2.473,8.001L6.294,8c0.411,0,0.775,0.246,0.928,0.628C7.524,9.382,7.689,9.785,7.779,10h0.603
		c0.547,0,1.047,0.296,1.311,0.772L13.233,15H15.5c1.458,0,2.776,0.922,3.282,2.295c0.007,0.017,0.013,0.034,0.019,0.052
		C18.932,17.722,19,18.111,19,18.5V21h0.5c0.276,0,0.5,0.224,0.5,0.5S19.775,22,19.5,22h-8.051C11.215,23.155,10.199,24,9,24z M9,20
		c-0.827,0-1.5,0.673-1.5,1.5S8.173,23,9,23s1.5-0.673,1.5-1.5S9.827,20,9,20z M15.586,18c0.209,0.586,0.773,1,1.414,1h1v-0.5
		c0-0.166-0.018-0.333-0.052-0.5H15.586z M11.929,15l-3.037-3.626c-0.025-0.03-0.047-0.063-0.064-0.098
		C8.743,11.106,8.572,11,8.381,11H4v4H11.929z M6.698,10c-0.101-0.245-0.23-0.565-0.404-1L2.508,9
		c-0.11,0.008-0.219,0.083-0.274,0.187L1.859,10H6.698z"/>
	<path d="M20,15.548c-0.084,0-0.167-0.021-0.241-0.062c-0.117-0.064-0.202-0.17-0.239-0.299c-0.037-0.128-0.022-0.263,0.042-0.381
		C21.811,10.716,23,7.799,23,6.37c0.09-2.869-2.161-5.274-5.017-5.37c-2.831,0.096-5.074,2.498-4.984,5.355
		c0,0.869,0.455,2.766,2.617,6.915c0.062,0.118,0.074,0.254,0.033,0.381c-0.04,0.127-0.127,0.232-0.246,0.293
		c-0.071,0.037-0.151,0.057-0.231,0.057c-0.187,0-0.357-0.103-0.444-0.27C12.918,10.257,12,7.78,12,6.37
		c-0.107-3.394,2.577-6.255,5.983-6.37c3.432,0.114,6.123,2.979,6.016,6.385c0,2.003-1.937,5.948-3.562,8.903
		C20.35,15.449,20.182,15.548,20,15.548z"/>
	<path d="M18,9.5c-1.654,0-3-1.346-3-3s1.346-3,3-3s3,1.346,3,3S19.654,9.5,18,9.5z M18,4.5c-1.103,0-2,0.897-2,2s0.897,2,2,2
		s2-0.897,2-2S19.103,4.5,18,4.5z"/>
</g>
</svg>
