<?xml version="1.0" encoding="utf-8"?>
<!-- Generator: Adobe Illustrator 22.1.0, SVG Export Plug-In . SVG Version: 6.00 Build 0)  -->
<svg version="1.1" id="Layer_1" xmlns="http://www.w3.org/2000/svg" xmlns:xlink="http://www.w3.org/1999/xlink" x="0px" y="0px"
	 viewBox="0 0 24 24" style="enable-background:new 0 0 24 24;" xml:space="preserve">
<g>
	<title>people-woman-8</title>
	<path d="M11.713,14.001c-0.603,0-1.185-0.223-1.637-0.628c-0.099-0.089-0.158-0.211-0.166-0.345s0.038-0.262,0.127-0.361
		c0.095-0.106,0.231-0.166,0.373-0.166c0.123,0,0.241,0.045,0.333,0.127c0.269,0.241,0.612,0.374,0.964,0.374L12.086,13
		c0.375,0,0.717-0.129,0.99-0.373c0.092-0.082,0.21-0.127,0.333-0.127c0.142,0,0.278,0.061,0.373,0.167
		c0.183,0.205,0.166,0.522-0.04,0.706c-0.453,0.405-1.036,0.628-1.641,0.628H11.713z"/>
	<path d="M8.909,9.5c-0.095,0-0.188-0.027-0.268-0.078c-0.233-0.148-0.301-0.458-0.153-0.69c0.293-0.46,0.794-0.735,1.34-0.735
		c0.027,0,0.055,0.001,0.082,0.002C9.936,7.998,9.964,7.997,9.99,7.997c0.546,0,1.047,0.274,1.34,0.734
		c0.072,0.113,0.096,0.246,0.067,0.377c-0.029,0.13-0.107,0.242-0.219,0.314C11.098,9.473,11.005,9.5,10.909,9.5
		c-0.172,0-0.33-0.086-0.422-0.231c-0.109-0.17-0.294-0.272-0.497-0.272C9.976,8.997,9.915,9,9.909,9
		C9.896,9,9.838,8.996,9.822,8.996c-0.199,0-0.383,0.102-0.491,0.272C9.238,9.414,9.081,9.5,8.909,9.5z"/>
	<path d="M12.909,9.5c-0.095,0-0.188-0.027-0.269-0.079c-0.112-0.071-0.19-0.182-0.219-0.313c-0.029-0.13-0.006-0.264,0.066-0.377
		c0.293-0.46,0.795-0.734,1.344-0.734c0.026,0,0.052,0.001,0.078,0.002c0.027-0.001,0.054-0.002,0.082-0.002
		c0.546,0,1.047,0.274,1.34,0.734c0.072,0.113,0.095,0.246,0.067,0.377c-0.029,0.131-0.107,0.242-0.219,0.314
		C15.097,9.473,15.004,9.5,14.909,9.5c-0.172,0-0.33-0.086-0.422-0.231c-0.11-0.173-0.291-0.272-0.496-0.272
		C13.976,8.997,13.915,9,13.909,9c-0.013,0-0.07-0.003-0.086-0.003c-0.2,0-0.384,0.102-0.492,0.272
		C13.239,9.413,13.081,9.5,12.909,9.5z"/>
	<path d="M11.9,17c-1.591,0-4.943-1.863-5.425-4.783c-0.027-0.164-0.134-0.303-0.286-0.372c-0.642-0.292-1.014-0.914-1.18-1.504
		c-1.093,0.758-2.404,1.171-3.735,1.171c-0.131,0-0.263-0.004-0.395-0.012c-0.149-0.009-0.286-0.084-0.374-0.205
		s-0.117-0.274-0.079-0.42c0.462-1.776,0.794-3.602,0.987-5.427C1.563,3.894,2.804,2.655,4.36,2.502
		C4.369,2.502,4.398,2.5,4.406,2.5c0.553,0.008,1.099,0.126,1.6,0.341c0.168-0.309,0.36-0.592,0.574-0.844
		C7.704,0.672,9.493,0,11.9,0c2.408,0,4.199,0.673,5.322,2c0.214,0.253,0.407,0.538,0.576,0.847c0.506-0.22,1.055-0.34,1.604-0.347
		c0.002,0,0.003,0,0.005,0c0.021,0,0.039,0.001,0.054,0.003c1.552,0.152,2.792,1.392,2.945,2.947
		c0.192,1.823,0.524,3.648,0.986,5.424c0.038,0.145,0.009,0.298-0.079,0.42c-0.088,0.121-0.224,0.196-0.374,0.205
		c-0.134,0.008-0.268,0.012-0.401,0.012c-1.337,0-2.652-0.418-3.744-1.183c-0.165,0.595-0.537,1.222-1.184,1.516
		c-0.152,0.069-0.259,0.208-0.286,0.373C16.837,15.137,13.488,17,11.9,17z M5.909,9.436c-0.006,0.059-0.01,0.117-0.009,0.18
		c0.01,0.489,0.259,1.117,0.702,1.318c0.455,0.208,0.776,0.626,0.858,1.119C7.86,14.468,10.776,16,11.9,16
		c1.122,0,4.035-1.532,4.439-3.948c0.082-0.493,0.403-0.911,0.858-1.119c0.444-0.202,0.693-0.83,0.703-1.318
		c0.001-0.04,0-0.079-0.003-0.116c-0.018-0.048-0.027-0.097-0.03-0.146c-0.008-0.175-0.102-0.335-0.253-0.427
		c-0.18-0.11-0.271-0.323-0.228-0.529c0.007-0.034,0.012-0.068,0.018-0.102c0.005-0.031,0.01-0.062,0.016-0.094
		C17.484,7.789,17.529,7.385,17.553,7H6.248c0.028,0.456,0.083,0.931,0.164,1.418C6.447,8.625,6.345,8.834,6.16,8.937
		C6.101,8.974,6.042,9.035,5.997,9.109C5.995,9.112,5.989,9.125,5.983,9.138l-0.24-0.075l0.224,0.114
		C5.952,9.214,5.939,9.261,5.928,9.311L5.924,9.338C5.921,9.351,5.917,9.365,5.917,9.379C5.917,9.395,5.913,9.417,5.909,9.436z
		 M18.849,9.095c0.942,0.848,2.173,1.354,3.421,1.411c-0.394-1.627-0.682-3.29-0.857-4.951c-0.001-0.01-0.002-0.021-0.002-0.031
		c-0.104-1.047-0.954-1.906-2.023-2.024c-0.407,0.009-0.813,0.1-1.19,0.264c0.269,0.803,0.395,1.734,0.375,2.771
		c0.003,0.586-0.046,1.175-0.147,1.748C18.633,8.488,18.777,8.765,18.849,9.095z M4.43,3.5C3.361,3.618,2.511,4.477,2.407,5.549
		c-0.175,1.664-0.464,3.329-0.858,4.956c1.255-0.062,2.446-0.545,3.39-1.377C4.97,8.952,5.032,8.783,5.124,8.622
		C5.189,8.501,5.27,8.39,5.365,8.294C5.237,7.57,5.191,6.826,5.23,6.08c0.02-0.854,0.146-1.635,0.376-2.322
		C5.234,3.599,4.832,3.51,4.43,3.5z M17.551,6c-0.052-0.794-0.208-1.568-0.463-2.304c-0.009-0.027-0.014-0.051-0.017-0.072
		C16.906,3.26,16.7,2.93,16.459,2.646C15.535,1.554,14.001,1,11.9,1C9.801,1,8.268,1.553,7.344,2.644
		C7.092,2.941,6.88,3.283,6.713,3.662C6.711,3.669,6.709,3.675,6.707,3.681C6.448,4.422,6.291,5.201,6.238,6h1.657V5
		c0-0.276,0.224-0.5,0.5-0.5s0.5,0.224,0.5,0.5v1h2.5V5c0-0.276,0.224-0.5,0.5-0.5s0.5,0.224,0.5,0.5v1h2.5V5
		c0-0.276,0.224-0.5,0.5-0.5s0.5,0.224,0.5,0.5v1H17.551z"/>
	<path d="M23.5,24c-0.276,0-0.5-0.224-0.5-0.5v-1c-0.001-1.452-0.915-2.769-2.275-3.277l-3.07-1.031
		c-0.742,1.369-1.942,2.416-3.4,2.96c-0.73,0.273-1.49,0.411-2.258,0.411c-0.922,0-1.821-0.197-2.671-0.584
		c-1.263-0.576-2.314-1.561-2.981-2.786l-3.085,1.036C1.912,19.732,1.001,21.048,1,22.5v1C1,23.776,0.776,24,0.5,24S0,23.776,0,23.5
		v-1c0.001-1.867,1.176-3.56,2.925-4.213l5.042-1.694c0.102-0.034,0.209-0.052,0.317-0.052c0.331,0,0.641,0.162,0.827,0.434
		c0.245,0.358,0.551,0.664,0.91,0.909c0.584,0.4,1.266,0.612,1.972,0.612c0,0,0,0,0,0c1.159,0,2.24-0.569,2.893-1.521
		c0.186-0.272,0.496-0.435,0.828-0.435c0.108,0,0.214,0.017,0.316,0.052l5.03,1.689c1.761,0.658,2.94,2.352,2.941,4.219v1
		C24,23.776,23.776,24,23.5,24z M7.309,17.869c0.566,0.964,1.42,1.739,2.431,2.2c0.719,0.328,1.478,0.494,2.257,0.494
		c0.649,0,1.291-0.117,1.908-0.347c1.173-0.438,2.152-1.266,2.784-2.347l-0.979-0.329c-0.839,1.225-2.229,1.956-3.719,1.956
		c-0.909,0-1.786-0.272-2.537-0.786c-0.46-0.316-0.854-0.709-1.169-1.169L7.309,17.869z"/>
</g>
</svg>
