<?xml version="1.0" encoding="utf-8"?>
<!-- Generator: Adobe Illustrator 22.1.0, SVG Export Plug-In . SVG Version: 6.00 Build 0)  -->
<svg version="1.1" id="Layer_1" xmlns="http://www.w3.org/2000/svg" xmlns:xlink="http://www.w3.org/1999/xlink" x="0px" y="0px"
	 viewBox="0 0 24 24" style="enable-background:new 0 0 24 24;" xml:space="preserve">
<g>
	<title>people-woman-5</title>
	<path d="M11.805,14.001c-0.604,0-1.186-0.223-1.638-0.628c-0.205-0.184-0.223-0.5-0.039-0.706c0.095-0.106,0.231-0.167,0.373-0.167
		c0.123,0,0.241,0.045,0.333,0.127c0.27,0.241,0.609,0.374,0.956,0.374L11.843,13l0.337,0c0.367,0,0.718-0.133,0.987-0.373
		c0.092-0.082,0.21-0.127,0.333-0.127c0.142,0,0.278,0.061,0.373,0.167c0.183,0.205,0.166,0.522-0.04,0.706
		c-0.453,0.405-1.034,0.628-1.635,0.628L11.805,14.001z"/>
	<path d="M9,9.5c-0.095,0-0.188-0.027-0.269-0.079C8.618,9.35,8.541,9.238,8.512,9.108c-0.029-0.13-0.005-0.264,0.067-0.377
		c0.293-0.46,0.793-0.734,1.337-0.734c0.028,0,0.057,0.001,0.085,0.002c0.027-0.001,0.054-0.002,0.081-0.002
		c0.546,0,1.047,0.274,1.34,0.734c0.072,0.113,0.096,0.246,0.067,0.377c-0.029,0.13-0.107,0.242-0.219,0.314
		C11.189,9.473,11.096,9.5,11,9.5c-0.172,0-0.33-0.086-0.422-0.231c-0.107-0.168-0.298-0.272-0.498-0.272
		C10.066,8.997,10.006,9,10,9C9.987,9,9.933,8.997,9.919,8.997c-0.203,0-0.389,0.102-0.497,0.272C9.329,9.414,9.172,9.5,9,9.5z"/>
	<path d="M15,9.5c-0.172,0-0.33-0.086-0.422-0.231c-0.109-0.17-0.293-0.272-0.494-0.272C14.069,8.997,14.007,9,14,9
		c-0.013,0-0.067-0.003-0.081-0.003c-0.203,0-0.389,0.102-0.497,0.272C13.329,9.414,13.172,9.5,13,9.5
		c-0.095,0-0.188-0.027-0.269-0.078c-0.232-0.148-0.301-0.458-0.153-0.69c0.293-0.46,0.794-0.734,1.34-0.734
		c0.027,0,0.055,0.001,0.082,0.002c0.027-0.001,0.054-0.002,0.082-0.002c0.546,0,1.047,0.274,1.34,0.734
		c0.148,0.233,0.08,0.542-0.153,0.69C15.188,9.473,15.095,9.5,15,9.5z"/>
	<path d="M23.5,24c-0.276,0-0.5-0.224-0.5-0.5v-1c0-1.45-0.912-2.767-2.269-3.277l-1.33-0.446c-0.113,0.43-0.32,0.816-0.595,1.114
		c0.497,0.39,0.763,1.007,0.692,1.652c-0.012,1.317-1.565,2.281-1.742,2.387C17.679,23.976,17.59,24,17.5,24
		s-0.179-0.024-0.257-0.071c-0.177-0.105-1.73-1.07-1.743-2.412c-0.014-0.115-0.013-0.257,0.003-0.396
		c0.058-0.489,0.309-0.93,0.689-1.231C15.754,19.42,15.5,18.737,15.5,18c0-0.803,0.303-1.541,0.809-2.007
		c-0.25-0.209-0.45-0.468-0.588-0.762C14.487,16.382,12.932,17,12.02,17c-0.924,0-2.492-0.627-3.73-1.796
		c-0.141,0.302-0.348,0.571-0.602,0.786C8.196,16.456,8.5,17.195,8.5,18c0,0.737-0.254,1.419-0.692,1.89
		c0.386,0.306,0.63,0.743,0.689,1.232c0.016,0.139,0.017,0.281,0.002,0.42c-0.012,1.342-1.672,2.345-1.743,2.387
		C6.679,23.975,6.591,24,6.5,24s-0.179-0.025-0.257-0.071c-0.07-0.042-1.729-1.045-1.743-2.412
		c-0.069-0.623,0.197-1.237,0.693-1.627c-0.275-0.297-0.482-0.683-0.595-1.114l-1.347,0.452C1.908,19.734,1,21.05,1,22.5v1
		C1,23.776,0.776,24,0.5,24S0,23.776,0,23.5v-1c0-1.864,1.172-3.557,2.917-4.213l1.595-0.535C4.568,17.053,4.856,16.418,5.301,16
		c-0.5-0.467-0.801-1.204-0.801-2c0-1.127,0.6-2.083,1.422-2.394c-0.601-0.482-0.89-1.31-0.903-1.971
		C5.008,9.075,5.18,8.59,5.496,8.28C5.091,5.53,5.495,3.417,6.699,1.996C7.822,0.672,9.611,0,12.018,0c2.409,0,4.2,0.673,5.323,2
		c1.205,1.423,1.608,3.535,1.2,6.28c0.316,0.31,0.489,0.794,0.478,1.354c-0.013,0.666-0.306,1.501-0.915,1.982
		C18.912,11.937,19.5,12.885,19.5,14c0,0.796-0.301,1.533-0.801,2c0.444,0.417,0.733,1.053,0.789,1.751l1.578,0.529
		C22.825,18.942,24,20.636,24,22.5v1C24,23.776,23.776,24,23.5,24z M6.341,20.49c-0.033,0-0.067,0.002-0.1,0.006
		c-0.225,0.027-0.427,0.14-0.567,0.318c-0.141,0.179-0.203,0.401-0.177,0.626C5.499,21.461,5.5,21.481,5.5,21.5
		c0,0.514,0.575,1.079,0.998,1.396C6.849,22.635,7.5,22.073,7.5,21.5c0-0.019,0.001-0.039,0.003-0.057
		c0.008-0.068,0.008-0.136,0-0.202c-0.027-0.226-0.14-0.427-0.318-0.567c-0.152-0.12-0.332-0.183-0.523-0.183
		c-0.034,0-0.069,0.002-0.103,0.006C6.551,20.498,6.512,20.5,6.5,20.5c-0.007,0-0.026-0.001-0.035-0.002
		c-0.015,0-0.03-0.002-0.044-0.005C6.407,20.493,6.374,20.49,6.341,20.49z M17.34,20.49c-0.43,0-0.792,0.322-0.843,0.75
		c-0.008,0.067-0.008,0.134,0,0.2C16.499,21.46,16.5,21.48,16.5,21.5c0,0.514,0.575,1.078,0.998,1.396
		c0.351-0.261,1.002-0.823,1.002-1.396c0-0.02,0.001-0.041,0.004-0.061c0.027-0.224-0.036-0.446-0.177-0.625
		c-0.141-0.178-0.342-0.292-0.567-0.318c-0.033-0.004-0.067-0.006-0.101-0.006s-0.067,0.002-0.1,0.006
		c-0.009,0.001-0.048,0.003-0.06,0.003c-0.007,0-0.025-0.001-0.035-0.002c-0.015,0-0.03-0.002-0.044-0.005
		C17.406,20.492,17.373,20.49,17.34,20.49z M17.5,16.5c-0.542,0-1,0.687-1,1.5c0,0.784,0.426,1.455,0.95,1.496
		c0.021,0,0.037,0.001,0.051,0.002c0.009,0,0.017-0.001,0.026-0.001C18.07,19.462,18.5,18.791,18.5,18
		C18.5,17.187,18.042,16.5,17.5,16.5z M6.5,16.5c-0.542,0-1,0.687-1,1.5c0,0.789,0.429,1.46,0.956,1.496
		c0.018,0.001,0.032,0.001,0.043,0.002c0.017-0.001,0.033-0.002,0.05-0.002C7.078,19.448,7.5,18.778,7.5,18
		C7.5,17.187,7.042,16.5,6.5,16.5z M8.449,13.91C9.529,15.256,11.242,16,12.02,16c0.77,0,2.474-0.737,3.555-2.071
		c0.011-0.021,0.025-0.044,0.045-0.068c0.427-0.522,0.718-1.148,0.839-1.812c0,0,0.001-0.005,0.002-0.008
		c0.085-0.488,0.405-0.901,0.856-1.107c0.444-0.202,0.693-0.83,0.702-1.319c0.006-0.329-0.089-0.591-0.243-0.668
		c-0.197-0.099-0.305-0.312-0.269-0.529c0.082-0.49,0.137-0.967,0.166-1.423c-0.012,0-0.024,0-0.037,0.001
		C17.475,6.997,17.32,7,17.157,7C15.625,7,13.671,6.774,12,5.062c-1.664,1.705-3.599,1.93-5.115,1.93
		c-0.172,0-0.334-0.003-0.486-0.005c-0.011,0-0.022,0-0.034,0c0.028,0.459,0.083,0.94,0.165,1.432
		c0.036,0.218-0.072,0.43-0.269,0.529c-0.154,0.077-0.249,0.34-0.242,0.669c0.01,0.489,0.259,1.117,0.703,1.318
		c0.453,0.206,0.772,0.62,0.857,1.109c0.003,0.008,0.005,0.016,0.006,0.024c0.122,0.64,0.4,1.244,0.806,1.75
		C8.413,13.846,8.433,13.877,8.449,13.91z M16.508,14.355c0.039,0.571,0.459,1.042,1.027,1.144C18.069,15.471,18.5,14.805,18.5,14
		c0-0.812-0.458-1.499-0.999-1.5c-0.039,0-0.079,0.004-0.117,0.011C17.231,13.156,16.937,13.775,16.508,14.355z M6.499,12.5
		C5.957,12.5,5.5,13.187,5.5,14c0,0.805,0.431,1.471,0.965,1.499c0.576-0.105,1.009-0.604,1.037-1.186
		c-0.412-0.566-0.695-1.168-0.845-1.793C6.605,12.507,6.552,12.5,6.499,12.5z M12,3.819c0.151,0,0.292,0.064,0.385,0.176
		C13.853,5.762,15.612,6,17.14,6c0.167,0,0.328-0.002,0.48-0.005c0.023,0,0.046-0.001,0.068-0.001
		c-0.05-1.41-0.423-2.536-1.111-3.348C15.654,1.554,14.119,1,12.018,1C9.919,1,8.386,1.553,7.462,2.643
		c-0.686,0.81-1.06,1.934-1.111,3.343c0.021,0,0.041,0.001,0.062,0.001C6.568,5.989,6.73,5.992,6.9,5.992
		c1.511,0,3.253-0.237,4.716-1.997C11.708,3.884,11.849,3.819,12,3.819z"/>
	<path d="M12,19.499c-0.791,0-1.569-0.208-2.25-0.601c-0.239-0.138-0.321-0.444-0.183-0.683c0.089-0.155,0.255-0.25,0.433-0.25
		c0.087,0,0.173,0.023,0.249,0.067c0.53,0.306,1.135,0.468,1.75,0.467c0.616,0,1.221-0.161,1.75-0.467
		c0.075-0.044,0.162-0.067,0.25-0.067c0.178,0,0.344,0.096,0.433,0.25c0.067,0.116,0.085,0.251,0.05,0.38
		c-0.034,0.129-0.117,0.237-0.233,0.304C13.569,19.291,12.791,19.499,12,19.499z"/>
</g>
</svg>
