<?xml version="1.0" encoding="utf-8"?>
<!-- Generator: Adobe Illustrator 22.1.0, SVG Export Plug-In . SVG Version: 6.00 Build 0)  -->
<svg version="1.1" id="Layer_1" xmlns="http://www.w3.org/2000/svg" xmlns:xlink="http://www.w3.org/1999/xlink" x="0px" y="0px"
	 viewBox="0 0 24 24" style="enable-background:new 0 0 24 24;" xml:space="preserve">
<g>
	<title>people-woman-glasses-4</title>
	<path d="M12,12.997c-0.648,0-1.287-0.212-1.8-0.597c-0.107-0.08-0.176-0.197-0.195-0.329C9.986,11.938,10.02,11.807,10.1,11.7
		c0.094-0.125,0.244-0.2,0.4-0.2c0.109,0,0.213,0.035,0.3,0.1c0.341,0.256,0.768,0.397,1.2,0.397c0.432,0,0.859-0.141,1.2-0.397
		c0.086-0.065,0.19-0.1,0.3-0.1c0.157,0,0.306,0.075,0.4,0.2c0.08,0.106,0.114,0.238,0.095,0.37
		c-0.019,0.132-0.088,0.249-0.195,0.329C13.287,12.785,12.648,12.997,12,12.997z"/>
	<path d="M23,24c-0.276,0-0.5-0.224-0.5-0.5v-3.106c0.003-0.461-0.212-0.903-0.575-1.183c-0.317-0.242-0.674-0.478-1.062-0.7
		L12.8,23.588c-0.239,0.15-0.515,0.229-0.8,0.229c-0.284,0-0.561-0.079-0.799-0.229l-8.062-5.077
		c-0.389,0.223-0.747,0.458-1.067,0.701c-0.361,0.278-0.576,0.719-0.573,1.178V23.5C1.5,23.776,1.276,24,1,24s-0.5-0.224-0.5-0.5
		v-3.106c-0.005-0.766,0.355-1.505,0.965-1.975c0.76-0.578,2.07-1.386,4.035-2.005V6.5C5.5,2.916,8.416,0,12,0
		c3.584,0,6.5,2.916,6.5,6.5v9.912c1.968,0.618,3.276,1.427,4.033,2.005c0.611,0.471,0.972,1.211,0.967,1.98V23.5
		C23.5,23.776,23.276,24,23,24z M11.733,22.742c0.079,0.05,0.172,0.077,0.267,0.077s0.187-0.026,0.266-0.076l7.559-4.76
		c-0.56-0.253-1.158-0.477-1.785-0.667l-5.245,3.278C12.557,20.741,12.282,20.82,12,20.82c-0.283,0-0.558-0.078-0.795-0.227
		l-5.243-3.276c-0.628,0.19-1.226,0.414-1.786,0.667L11.733,22.742z M11.735,19.745c0.079,0.049,0.17,0.075,0.265,0.075
		s0.186-0.026,0.265-0.075l4.439-2.775C15.26,16.658,13.681,16.5,12,16.5c-1.68,0-3.259,0.158-4.703,0.472L11.735,19.745z
		 M6.5,16.132C8.173,15.713,10.022,15.5,12,15.5c1.98,0,3.829,0.212,5.5,0.63v-4.168C16.321,13.835,14.258,15,12,15
		s-4.321-1.165-5.5-3.038V16.132z M6.5,8.5c0,3.033,2.467,5.5,5.5,5.5s5.5-2.467,5.5-5.5V7.692C17.098,7.289,15.535,6,12,6
		C8.465,6,6.902,7.289,6.5,7.692V8.5z M12,5c2.857,0,4.578,0.777,5.499,1.402C17.447,3.415,15,1,12,1S6.553,3.415,6.501,6.402
		C7.422,5.777,9.143,5,12,5z"/>
	<path d="M14.75,10.75c-1.056,0-1.962-0.738-2.192-1.75h-1.116c-0.23,1.012-1.136,1.75-2.192,1.75C8.009,10.75,7,9.741,7,8.5
		s1.009-2.25,2.25-2.25c1.056,0,1.962,0.738,2.192,1.75h1.116c0.23-1.012,1.136-1.75,2.192-1.75C15.991,6.25,17,7.259,17,8.5
		S15.991,10.75,14.75,10.75z M14.75,7.25c-0.689,0-1.25,0.561-1.25,1.25s0.561,1.25,1.25,1.25S16,9.189,16,8.5
		S15.439,7.25,14.75,7.25z M9.25,7.25C8.561,7.25,8,7.811,8,8.5s0.561,1.25,1.25,1.25S10.5,9.189,10.5,8.5S9.939,7.25,9.25,7.25z"/>
	<path d="M2.833,10.743c-0.533,0-0.972-0.418-0.998-0.951C1.83,9.695,1.839,9.598,1.862,9.504C2.117,8.468,2.809,7.739,3.46,7.336
		c-0.65-0.403-1.342-1.132-1.597-2.168C1.839,5.074,1.83,4.977,1.835,4.88c0.026-0.533,0.464-0.95,0.998-0.95
		c0.017,0,0.033,0,0.05,0.001c1.409,0.068,2.551,1.017,2.951,1.918C6.082,6.41,6.05,6.945,5.745,7.317
		C5.739,7.324,5.734,7.33,5.728,7.336c0.005,0.005,0.011,0.012,0.016,0.018c0.306,0.372,0.338,0.907,0.09,1.468
		c-0.399,0.901-1.541,1.85-2.951,1.919L2.833,10.743z M4.753,7.922c-0.066,0-0.14,0.009-0.221,0.028
		C3.87,8.101,3.074,8.765,2.834,9.742C3.84,9.693,4.645,9.038,4.92,8.417c0.091-0.205,0.096-0.354,0.06-0.416
		C4.974,7.995,4.968,7.988,4.963,7.982C4.939,7.953,4.872,7.922,4.753,7.922z M2.834,4.93c0.24,0.977,1.037,1.641,1.699,1.792
		C4.613,6.74,4.687,6.75,4.753,6.75c0.118,0,0.186-0.03,0.209-0.059c0.006-0.007,0.011-0.013,0.017-0.02
		c0.036-0.062,0.031-0.212-0.06-0.417C4.644,5.633,3.839,4.978,2.834,4.93z"/>
</g>
</svg>
