<?xml version="1.0" encoding="utf-8"?>
<!-- Generator: Adobe Illustrator 22.1.0, SVG Export Plug-In . SVG Version: 6.00 Build 0)  -->
<svg version="1.1" id="Layer_1" xmlns="http://www.w3.org/2000/svg" xmlns:xlink="http://www.w3.org/1999/xlink" x="0px" y="0px"
	 viewBox="0 0 24 24" style="enable-background:new 0 0 24 24;" xml:space="preserve">
<g>
	<title>people-woman-11</title>
	<path d="M11.714,14.032c-0.604,0-1.186-0.223-1.638-0.628c-0.099-0.089-0.158-0.211-0.166-0.345s0.038-0.262,0.127-0.361
		c0.095-0.106,0.23-0.167,0.373-0.167c0.123,0,0.241,0.045,0.333,0.127c0.27,0.241,0.61,0.374,0.958,0.374l0.051-0.001
		c0,0,0.299,0,0.299,0c0.401,0,0.756-0.132,1.025-0.373c0.091-0.082,0.21-0.127,0.333-0.127c0.143,0,0.279,0.061,0.373,0.167
		c0.089,0.099,0.134,0.227,0.126,0.361c-0.007,0.133-0.066,0.256-0.166,0.345c-0.453,0.405-1.033,0.628-1.633,0.628L11.714,14.032z"
		/>
	<path d="M10.91,9.531c-0.172,0-0.33-0.086-0.422-0.231c-0.109-0.17-0.294-0.272-0.497-0.272c-0.015,0-0.076,0.003-0.082,0.003
		c0,0-0.068-0.003-0.083-0.003c-0.202,0-0.387,0.102-0.495,0.272c-0.093,0.145-0.25,0.232-0.422,0.232
		c-0.095,0-0.188-0.027-0.268-0.078c-0.233-0.148-0.301-0.458-0.153-0.69c0.293-0.46,0.794-0.735,1.34-0.735
		c0.027,0,0.055,0.001,0.082,0.002c0.028-0.001,0.055-0.002,0.083-0.002c0.545,0,1.045,0.275,1.339,0.734
		c0.072,0.112,0.096,0.246,0.067,0.377c-0.029,0.13-0.107,0.242-0.219,0.314C11.098,9.504,11.005,9.531,10.91,9.531z"/>
	<path d="M12.909,9.531c-0.096,0-0.189-0.027-0.269-0.079c-0.231-0.147-0.3-0.457-0.152-0.689c0.293-0.46,0.794-0.735,1.339-0.735
		c0.028,0,0.055,0.001,0.083,0.002c0.028-0.001,0.055-0.002,0.083-0.002c0.544,0,1.045,0.274,1.338,0.734
		c0.072,0.113,0.095,0.246,0.067,0.377c-0.029,0.131-0.107,0.242-0.219,0.314c-0.081,0.051-0.173,0.078-0.269,0.078
		c-0.172,0-0.33-0.086-0.422-0.231c-0.109-0.17-0.294-0.272-0.496-0.272c-0.015,0-0.076,0.003-0.083,0.003
		c-0.012,0-0.068-0.003-0.083-0.003c-0.201,0-0.386,0.102-0.494,0.272C13.238,9.445,13.081,9.531,12.909,9.531z"/>
	<path d="M23.5,24.031c-0.276,0-0.5-0.224-0.5-0.5v-1c-0.001-1.452-0.915-2.769-2.275-3.277l-2.317-0.777
		c-0.358,1.521-1.669,2.612-3.245,2.681c-0.398,0.84-1.119,1.493-2.002,1.804c-0.377,0.133-0.769,0.2-1.164,0.2
		c-0.524,0-1.033-0.116-1.511-0.346c-0.728-0.349-1.308-0.934-1.65-1.658c-1.575-0.069-2.886-1.16-3.245-2.68L3.259,19.26
		C1.912,19.764,1.001,21.079,1,22.532v1c0,0.276-0.224,0.5-0.5,0.5S0,23.807,0,23.531v-1c0.001-1.867,1.176-3.56,2.925-4.213
		l0.184-0.062V8.714c0-2.337,0.91-4.534,2.562-6.187c1.652-1.653,3.849-2.563,6.186-2.563c1.187,0,2.377,0.247,3.466,0.716
		c0.461-0.42,1.05-0.649,1.677-0.649c1.378,0,2.5,1.121,2.5,2.5c0,0.468-0.13,0.919-0.377,1.316c0.977,1.448,1.491,3.129,1.49,4.873
		v9.443l0.447,0.15c1.761,0.658,2.94,2.352,2.941,4.219v1C24,23.807,23.776,24.031,23.5,24.031z M9.171,20.156
		c0.211,0,0.401,0.134,0.471,0.334c0.222,0.63,0.675,1.136,1.277,1.425c0.342,0.164,0.705,0.247,1.079,0.247
		c0.282,0,0.562-0.048,0.831-0.143c0.719-0.253,1.276-0.81,1.529-1.529c0.07-0.2,0.26-0.334,0.472-0.334
		c0.036,0,0.073,0.001,0.11,0.003l0.08,0.003c1.182,0,2.201-0.849,2.432-2.006l-1.737-0.583c-0.839,1.224-2.229,1.955-3.719,1.955
		c-0.909,0-1.786-0.272-2.537-0.786c-0.46-0.316-0.854-0.709-1.169-1.169l-1.741,0.584c0.232,1.156,1.251,2.004,2.448,2.004
		c0,0,0.033,0,0.037,0c0.029,0,0.057,0,0.085-0.003C9.136,20.157,9.153,20.156,9.171,20.156z M8.288,16.574
		c0.331,0,0.641,0.162,0.827,0.434c0.245,0.358,0.551,0.664,0.91,0.909c0.584,0.4,1.266,0.612,1.973,0.612
		c1.159,0,2.24-0.569,2.893-1.521c0.187-0.272,0.496-0.434,0.827-0.434c0.108,0,0.214,0.017,0.316,0.052l3.579,1.201V8.719
		c0-0.386-0.031-0.784-0.094-1.188h-1.01c-0.025,0.277-0.055,0.535-0.091,0.78c0.316,0.31,0.488,0.794,0.477,1.354
		c-0.015,0.789-0.425,1.817-1.289,2.209c-0.152,0.069-0.259,0.208-0.286,0.373c-0.488,2.921-3.837,4.783-5.425,4.783
		c-1.588,0-4.937-1.863-5.425-4.783c-0.027-0.165-0.134-0.304-0.286-0.373c-0.863-0.392-1.272-1.42-1.288-2.209
		c-0.011-0.56,0.161-1.045,0.477-1.355c-0.036-0.246-0.066-0.504-0.091-0.78H4.2C4.14,7.926,4.109,8.323,4.109,8.714v9.207
		l3.862-1.295C8.073,16.592,8.18,16.574,8.288,16.574z M6.287,7.531c0.032,0.33,0.071,0.631,0.12,0.916
		c0.037,0.218-0.071,0.432-0.269,0.531c-0.153,0.077-0.249,0.34-0.242,0.669c0.01,0.489,0.259,1.117,0.702,1.318
		c0.455,0.208,0.776,0.626,0.858,1.119c0.404,2.415,3.317,3.947,4.439,3.947c1.122,0,4.035-1.532,4.439-3.948
		c0.082-0.493,0.403-0.911,0.858-1.119c0.444-0.202,0.693-0.83,0.703-1.318c0.006-0.329-0.089-0.591-0.243-0.669
		c-0.198-0.099-0.306-0.313-0.269-0.531c0.048-0.283,0.088-0.584,0.12-0.916H6.287z M19.299,6.531
		c-0.2-0.679-0.497-1.329-0.886-1.941C17.998,4.876,17.505,5.031,17,5.031c-1.378,0-2.5-1.121-2.5-2.5
		c0-0.351,0.075-0.698,0.219-1.019c-0.906-0.359-1.885-0.548-2.848-0.548c-2.084,0-4.03,0.807-5.494,2.27
		C5.454,4.158,4.781,5.293,4.419,6.531h3.476v-1c0-0.276,0.224-0.5,0.5-0.5s0.5,0.224,0.5,0.5v1h2.5v-1c0-0.276,0.224-0.5,0.5-0.5
		s0.5,0.224,0.5,0.5v1h2.5v-1c0-0.276,0.224-0.5,0.5-0.5s0.5,0.224,0.5,0.5v1H19.299z M17,1.031c-0.827,0-1.5,0.673-1.5,1.5
		s0.673,1.5,1.5,1.5s1.5-0.673,1.5-1.5S17.827,1.031,17,1.031z"/>
</g>
</svg>
