<?xml version="1.0" encoding="utf-8"?>
<!-- Generator: Adobe Illustrator 22.1.0, SVG Export Plug-In . SVG Version: 6.00 Build 0)  -->
<svg version="1.1" id="Layer_1" xmlns="http://www.w3.org/2000/svg" xmlns:xlink="http://www.w3.org/1999/xlink" x="0px" y="0px"
	 viewBox="0 0 24 24" style="enable-background:new 0 0 24 24;" xml:space="preserve">
<g>
	<title>people-woman-4</title>
	<path d="M11.805,14.999c-0.604,0-1.186-0.223-1.638-0.628c-0.205-0.184-0.223-0.5-0.039-0.706c0.095-0.106,0.231-0.167,0.373-0.167
		c0.123,0,0.241,0.045,0.333,0.127c0.27,0.241,0.609,0.374,0.954,0.374l0.387-0.001c0.371,0,0.723-0.132,0.992-0.373
		c0.091-0.082,0.21-0.128,0.333-0.128c0.142,0,0.278,0.061,0.373,0.167c0.089,0.099,0.134,0.227,0.126,0.361
		c-0.008,0.133-0.066,0.256-0.166,0.345c-0.452,0.405-1.036,0.628-1.644,0.628H11.805z"/>
	<path d="M9,10.498c-0.096,0-0.189-0.027-0.269-0.079c-0.232-0.148-0.3-0.458-0.152-0.69c0.293-0.46,0.794-0.734,1.338-0.734
		c0.028,0,0.055,0.001,0.083,0.002c0.028-0.001,0.055-0.002,0.083-0.002c0.545,0,1.045,0.274,1.339,0.734
		c0.148,0.232,0.08,0.542-0.152,0.69c-0.08,0.051-0.173,0.079-0.269,0.079c-0.172,0-0.329-0.086-0.422-0.231
		c-0.109-0.17-0.295-0.272-0.499-0.272c-0.014,0-0.074,0.003-0.08,0.003c-0.013,0-0.066-0.003-0.08-0.003
		c-0.203,0-0.39,0.102-0.499,0.272C9.329,10.412,9.172,10.498,9,10.498z"/>
	<path d="M15,10.498c-0.172,0-0.33-0.086-0.422-0.231c-0.108-0.17-0.294-0.272-0.497-0.272c-0.015,0-0.075,0.003-0.081,0.003
		c-0.012,0-0.068-0.003-0.083-0.003c-0.202,0-0.387,0.102-0.496,0.272c-0.092,0.144-0.25,0.231-0.422,0.231
		c-0.095,0-0.188-0.027-0.268-0.078c-0.233-0.149-0.301-0.458-0.153-0.691c0.293-0.46,0.794-0.734,1.338-0.734
		c0.028,0,0.055,0.001,0.083,0.002c0.028-0.001,0.055-0.002,0.083-0.002c0.545,0,1.045,0.274,1.339,0.734
		c0.148,0.232,0.08,0.542-0.152,0.69C15.188,10.471,15.095,10.498,15,10.498z"/>
	<path d="M12,17.998c-1.588,0-4.937-1.863-5.425-4.782c-0.027-0.165-0.134-0.304-0.286-0.373c-0.863-0.392-1.273-1.42-1.288-2.209
		C4.99,10.073,5.162,9.588,5.479,9.278C5.39,8.672,5.34,8.086,5.332,7.532C5.33,7.519,5.328,7.507,5.328,7.496
		c0-0.012,0-0.025,0.002-0.038c-0.001-0.146,0.001-0.3,0.008-0.463C3.995,6.933,2.806,6.11,2.278,4.863
		C1.525,3.086,2.358,1.028,4.135,0.275C4.572,0.09,5.031-0.004,5.5-0.004c0.45,0,0.892,0.087,1.314,0.258
		c0.694,0.281,1.279,0.779,1.668,1.415c1.019-0.443,2.129-0.677,3.227-0.677c0.103,0,0.206,0.002,0.309,0.006
		c0.001,0,0.001,0,0.002,0c1.359,0,2.538,0.222,3.502,0.66c0.389-0.631,0.971-1.125,1.662-1.405
		c0.422-0.171,0.864-0.258,1.314-0.258c0.469,0,0.927,0.094,1.365,0.279c1.777,0.753,2.611,2.811,1.858,4.588
		c-0.527,1.245-1.714,2.067-3.053,2.131c0.022,0.707-0.027,1.474-0.147,2.284c0.316,0.31,0.488,0.794,0.478,1.354
		c-0.015,0.789-0.425,1.817-1.289,2.21c-0.152,0.069-0.259,0.208-0.286,0.373C16.937,16.136,13.588,17.998,12,17.998z M6.347,7.984
		c0.028,0.461,0.083,0.942,0.165,1.432c0.036,0.217-0.072,0.43-0.269,0.529c-0.154,0.077-0.249,0.34-0.243,0.669
		c0.009,0.489,0.259,1.117,0.702,1.318c0.456,0.208,0.777,0.626,0.858,1.119c0.404,2.415,3.317,3.947,4.439,3.947
		c1.122,0,4.035-1.532,4.439-3.948c0.082-0.493,0.403-0.911,0.858-1.118c0.444-0.202,0.694-0.83,0.703-1.319
		c0.006-0.329-0.089-0.591-0.243-0.668c-0.197-0.099-0.305-0.312-0.269-0.529c0.082-0.489,0.137-0.967,0.165-1.423l-0.016,0
		c-0.151,0.002-0.312,0.005-0.482,0.005c-1.531,0-3.483-0.226-5.155-1.938c-1.664,1.705-3.595,1.93-5.108,1.93
		c-0.174,0-0.339-0.003-0.492-0.005C6.382,7.985,6.365,7.984,6.347,7.984z M12,4.813c0.149,0,0.289,0.066,0.385,0.18
		c1.469,1.767,3.225,2.005,4.75,2.005c0.17,0,0.333-0.003,0.487-0.005c0.016,0,0.032,0,0.048-0.001
		c-0.05-1.411-0.423-2.536-1.111-3.349C15.635,2.552,14.101,1.998,12,1.998c-0.101-0.004-0.192-0.005-0.283-0.005
		c-1.08,0-2.159,0.25-3.123,0.723c-1.317,0.709-2.072,1.99-2.236,3.801c0,0.011,0,0.033-0.005,0.061
		c-0.01,0.125-0.018,0.259-0.022,0.407c0.028,0,0.056,0.001,0.084,0.001C6.57,6.988,6.733,6.99,6.903,6.99
		c1.51,0,3.25-0.237,4.712-1.997C11.711,4.879,11.851,4.813,12,4.813z M5.5,0.997c-0.334,0-0.662,0.067-0.974,0.2
		c-0.614,0.26-1.09,0.745-1.341,1.364C2.934,3.18,2.939,3.859,3.199,4.473C3.581,5.377,4.45,5.968,5.426,5.997
		c0.249-1.706,0.982-2.996,2.183-3.841C7.33,1.715,6.929,1.38,6.439,1.181C6.137,1.059,5.821,0.997,5.5,0.997z M16.393,2.155
		c0.351,0.245,0.663,0.528,0.929,0.843c0.665,0.786,1.089,1.794,1.262,2.999c0.972-0.033,1.836-0.623,2.217-1.523
		c0.538-1.269-0.058-2.739-1.327-3.277c-0.312-0.132-0.64-0.199-0.975-0.199c-0.321,0-0.637,0.062-0.939,0.184
		C17.071,1.379,16.671,1.714,16.393,2.155z"/>
	<path d="M23.5,23.998c-0.276,0-0.5-0.224-0.5-0.5c-0.001-1.452-0.915-2.769-2.275-3.277l-3.07-1.031
		c-0.742,1.369-1.942,2.415-3.4,2.96c-0.73,0.273-1.49,0.411-2.258,0.411c-0.922,0-1.821-0.197-2.671-0.584
		c-1.263-0.576-2.314-1.561-2.981-2.786l-3.085,1.036C1.912,20.731,1.001,22.047,1,23.499c0,0.275-0.224,0.5-0.5,0.5
		c-0.134,0-0.259-0.052-0.354-0.147C0.052,23.757,0,23.631,0,23.498c0.001-1.867,1.176-3.56,2.925-4.213l5.042-1.694
		c0.102-0.034,0.209-0.052,0.317-0.052c0.331,0,0.64,0.162,0.827,0.434c0.246,0.358,0.552,0.665,0.91,0.91
		c0.584,0.4,1.266,0.612,1.972,0.612c1.159,0,2.241-0.569,2.893-1.521c0.186-0.272,0.495-0.435,0.827-0.435
		c0.108,0,0.214,0.017,0.316,0.052l5.03,1.689c1.761,0.658,2.94,2.352,2.941,4.219C24,23.774,23.776,23.998,23.5,23.998z
		 M7.309,18.867c0.566,0.964,1.42,1.739,2.431,2.2c0.719,0.328,1.478,0.494,2.257,0.494c0.649,0,1.291-0.117,1.908-0.347
		c1.173-0.438,2.152-1.266,2.784-2.347l-0.979-0.329c-0.839,1.225-2.229,1.956-3.719,1.956c-0.909,0-1.786-0.272-2.537-0.786
		C8.995,19.393,8.601,19,8.286,18.539L7.309,18.867z"/>
</g>
</svg>
