<?xml version="1.0" encoding="utf-8"?>
<!-- Generator: Adobe Illustrator 22.1.0, SVG Export Plug-In . SVG Version: 6.00 Build 0)  -->
<svg version="1.1" id="Layer_1" xmlns="http://www.w3.org/2000/svg" xmlns:xlink="http://www.w3.org/1999/xlink" x="0px" y="0px"
	 viewBox="0 0 24 24" style="enable-background:new 0 0 24 24;" xml:space="preserve">
<g>
	<title>people-woman-cap-4</title>
	<path d="M12,14.499c-0.397,0-0.788-0.064-1.16-0.19c-0.261-0.088-0.402-0.373-0.313-0.634c0.069-0.203,0.259-0.34,0.473-0.34
		c0.055,0,0.109,0.009,0.161,0.027C11.43,13.454,11.712,13.5,12,13.5c0.288,0,0.57-0.046,0.839-0.137
		c0.052-0.018,0.106-0.026,0.16-0.026c0.215,0,0.406,0.137,0.474,0.34c0.042,0.126,0.033,0.262-0.026,0.381
		c-0.059,0.12-0.162,0.209-0.288,0.252C12.788,14.436,12.397,14.499,12,14.499z"/>
	<path d="M23.5,24c-0.276,0-0.5-0.224-0.5-0.5v-1c-0.001-1.452-0.915-2.769-2.275-3.277L20,18.979V23.5c0,0.276-0.224,0.5-0.5,0.5
		S19,23.776,19,23.5v-4.856l-1.344-0.452c-0.743,1.369-1.943,2.416-3.401,2.961c-0.73,0.273-1.49,0.411-2.258,0.411
		c-0.922,0-1.821-0.197-2.671-0.584c-1.263-0.576-2.315-1.561-2.982-2.787L5,18.644V23.5C5,23.776,4.776,24,4.5,24S4,23.776,4,23.5
		v-4.52l-0.741,0.249C1.912,19.732,1.001,21.048,1,22.5v1C1,23.776,0.776,24,0.5,24S0,23.776,0,23.5v-1
		c0.001-1.867,1.176-3.56,2.925-4.213l5.416-1.821C8.393,16.449,8.446,16.44,8.5,16.44c0.215,0,0.406,0.137,0.474,0.341
		c0.088,0.261-0.053,0.545-0.314,0.633l-1.351,0.454c0.566,0.965,1.42,1.74,2.432,2.201c0.719,0.328,1.478,0.494,2.257,0.494
		c0.649,0,1.291-0.117,1.908-0.347c1.174-0.438,2.153-1.267,2.785-2.348l-1.35-0.454c-0.261-0.088-0.403-0.372-0.315-0.633
		c0.069-0.204,0.259-0.341,0.475-0.341c0.054,0,0.107,0.009,0.158,0.026l5.401,1.815c1.761,0.658,2.94,2.352,2.941,4.219v1
		C24,23.776,23.776,24,23.5,24z"/>
	<path d="M11.98,17c-1.593,0-4.951-1.863-5.44-4.782c-0.027-0.165-0.135-0.304-0.287-0.373c-0.112-0.051-0.22-0.115-0.323-0.191
		c-0.376,0.982-1.013,1.828-1.858,2.464c-0.013,0.01-0.028,0.02-0.043,0.029c0.695,0.542,1.551,0.839,2.417,0.839
		c0.059,0,0.119-0.001,0.178-0.004c0.004,0,0.026-0.001,0.03-0.001c0.26,0,0.481,0.215,0.492,0.479
		c0.012,0.275-0.202,0.509-0.478,0.521c-0.072,0.003-0.143,0.005-0.214,0.005c-1.093,0-2.169-0.37-3.03-1.042
		c-0.097-0.072-0.187-0.171-0.253-0.283c-0.137-0.229-0.177-0.498-0.111-0.757c0.063-0.252,0.22-0.467,0.44-0.604
		c0.844-0.639,1.448-1.575,1.689-2.631c-0.14-0.334-0.22-0.699-0.226-1.035C4.95,9.071,5.124,8.587,5.442,8.277
		C5.277,6.988,5.401,5.57,5.787,4.364C5.79,4.351,5.797,4.325,5.81,4.295c0.282-0.854,0.688-1.598,1.206-2.211
		C8.187,0.701,9.857,0,11.98,0s3.793,0.701,4.963,2.084c1.058,1.25,1.445,2.78,1.579,3.916H22c0.276,0,0.5,0.224,0.5,0.5
		S22.276,7,22,7h-3.414c0.006,0.438-0.017,0.873-0.068,1.277C18.836,8.587,19.01,9.072,19,9.634c-0.006,0.299-0.068,0.616-0.18,0.92
		c0.234,1.1,0.85,2.077,1.742,2.757c0.201,0.125,0.357,0.339,0.42,0.591c0.065,0.259,0.025,0.528-0.113,0.757
		c-0.068,0.114-0.157,0.211-0.263,0.29c-0.853,0.666-1.927,1.034-3.02,1.034c-0.072,0-0.143-0.001-0.214-0.005
		c-0.134-0.006-0.257-0.063-0.347-0.162c-0.09-0.098-0.137-0.226-0.131-0.36c0.012-0.272,0.227-0.478,0.499-0.478
		c0.08,0.003,0.137,0.004,0.195,0.004c0.87,0,1.727-0.295,2.414-0.831c-0.003-0.016-0.018-0.026-0.031-0.036
		c-0.858-0.651-1.501-1.513-1.879-2.511c-0.121,0.098-0.249,0.178-0.383,0.239c-0.152,0.069-0.26,0.208-0.287,0.373
		C16.927,15.138,13.57,17,11.98,17z M6.245,8.924C6.232,8.932,6.218,8.94,6.204,8.947C6.05,9.024,5.954,9.286,5.961,9.614
		c0.009,0.489,0.259,1.118,0.705,1.32c0.456,0.207,0.778,0.625,0.861,1.119C7.931,14.468,10.854,16,11.98,16
		c1.124,0,4.045-1.532,4.454-3.948c0.083-0.494,0.405-0.912,0.861-1.118c0.445-0.202,0.695-0.83,0.705-1.318
		c0.006-0.329-0.089-0.591-0.243-0.668c-0.021-0.01-0.041-0.022-0.06-0.035c-0.305,0.72-0.856,1.335-1.592,1.706
		c-0.476,0.24-0.987,0.362-1.518,0.362c-0.993,0-1.93-0.433-2.57-1.173c-0.07,0.087-0.145,0.171-0.224,0.25
		c-0.644,0.646-1.495,1.001-2.395,1.001c-0.472,0-0.933-0.097-1.371-0.29C7.209,10.408,6.578,9.754,6.245,8.924z M7.093,7
		c-0.145,0.502-0.122,1.039,0.07,1.531c0.232,0.595,0.682,1.064,1.266,1.321c0.309,0.136,0.635,0.204,0.967,0.204
		c0.634,0,1.233-0.25,1.687-0.705c0.192-0.194,0.348-0.42,0.462-0.67c0.08-0.174,0.254-0.289,0.445-0.292
		c0.203,0.008,0.376,0.116,0.456,0.275c0.408,0.811,1.228,1.315,2.138,1.315c0.374,0,0.734-0.086,1.07-0.255
		C16.656,9.22,17.168,8.073,16.896,7H7.093z M6.638,5C6.543,5.358,6.472,5.732,6.427,6.113C6.515,6.042,6.626,6,6.744,6h10.773
		C17.39,5.03,17.05,3.758,16.18,2.73C15.208,1.582,13.795,1,11.98,1c-1.815,0-3.228,0.582-4.2,1.73C7.471,3.095,7.207,3.521,6.993,4
		H9c0.276,0,0.5,0.224,0.5,0.5S9.276,5,9,5H6.638z"/>
</g>
</svg>
