<?xml version="1.0" encoding="utf-8"?>
<!-- Generator: Adobe Illustrator 22.1.0, SVG Export Plug-In . SVG Version: 6.00 Build 0)  -->
<svg version="1.1" id="Layer_1" xmlns="http://www.w3.org/2000/svg" xmlns:xlink="http://www.w3.org/1999/xlink" x="0px" y="0px"
	 viewBox="0 0 24 24" style="enable-background:new 0 0 24 24;" xml:space="preserve">
<g>
	<title>people-woman-beanie</title>
	<path d="M11.805,15.001c-0.604,0-1.186-0.223-1.638-0.628c-0.205-0.184-0.223-0.5-0.039-0.706c0.095-0.106,0.231-0.167,0.373-0.167
		c0.123,0,0.242,0.045,0.333,0.128c0.269,0.24,0.612,0.373,0.965,0.373l0.383,0c0.366,0,0.716-0.133,0.985-0.373
		c0.092-0.082,0.21-0.127,0.333-0.127c0.142,0,0.278,0.061,0.373,0.167c0.184,0.205,0.166,0.522-0.039,0.706
		c-0.453,0.405-1.034,0.628-1.635,0.628L11.805,15.001z"/>
	<path d="M9,11.5c-0.095,0-0.188-0.027-0.269-0.079c-0.112-0.072-0.19-0.183-0.219-0.313c-0.029-0.13-0.005-0.264,0.067-0.377
		c0.293-0.46,0.794-0.734,1.338-0.734c0.028,0,0.056,0.001,0.083,0.002c0.028-0.001,0.056-0.002,0.084-0.002
		c0.544,0,1.044,0.274,1.338,0.734c0.072,0.113,0.096,0.246,0.067,0.377c-0.029,0.13-0.107,0.242-0.219,0.314
		C11.189,11.473,11.096,11.5,11,11.5c-0.172,0-0.33-0.086-0.422-0.231c-0.107-0.168-0.297-0.272-0.497-0.272
		C10.067,10.997,10.006,11,10,11c-0.013,0-0.067-0.003-0.082-0.003c-0.202,0-0.388,0.102-0.497,0.272
		C9.329,11.414,9.172,11.5,9,11.5z"/>
	<path d="M15,11.5c-0.172,0-0.33-0.086-0.422-0.231c-0.109-0.17-0.294-0.272-0.495-0.272C14.068,10.997,14.006,11,14,11
		c-0.013,0-0.066-0.003-0.08-0.003c-0.204,0-0.39,0.102-0.499,0.272C13.329,11.414,13.171,11.5,13,11.5l0,0
		c-0.095,0-0.188-0.027-0.269-0.078c-0.113-0.072-0.19-0.183-0.219-0.314c-0.029-0.13-0.005-0.264,0.067-0.377
		c0.293-0.46,0.794-0.734,1.34-0.734c0.027,0,0.054,0.001,0.082,0.002c0.027-0.001,0.054-0.002,0.081-0.002
		c0.546,0,1.047,0.274,1.34,0.734c0.072,0.113,0.095,0.246,0.067,0.377c-0.029,0.131-0.107,0.242-0.219,0.314
		C15.188,11.473,15.095,11.5,15,11.5z"/>
	<path d="M23.5,24c-0.276,0-0.5-0.224-0.5-0.5c-0.001-1.452-0.915-2.769-2.275-3.277l-3.083-1.034
		c-0.055,0.093-0.115,0.181-0.179,0.262c-1.197,1.506-3.037,2.443-4.963,2.54v1.507c0,0.276-0.224,0.5-0.5,0.5
		c-0.276,0-0.5-0.224-0.5-0.5v-1.505c-0.506-0.024-1.008-0.105-1.5-0.244v1.75c0,0.276-0.224,0.5-0.5,0.5S9,23.775,9,23.499v-2.118
		c-0.35-0.161-0.685-0.351-1-0.566v2.685c0,0.276-0.224,0.5-0.5,0.5S7,23.775,7,23.499v-3.522c-0.165-0.167-0.319-0.342-0.461-0.52
		c-0.066-0.084-0.127-0.174-0.184-0.27l-3.096,1.04C1.911,20.732,1,22.048,1,23.5C1,23.776,0.776,24,0.5,24S0,23.776,0,23.5
		c0-1.867,1.176-3.561,2.925-4.214l3.099-1.042C6.008,18.128,6,18.012,6,17.899V17.5c-0.003-0.783,0.584-1.427,1.365-1.498
		C7.397,16,7.424,15.999,7.452,15.999c0.073,0,0.146,0.008,0.216,0.023l0.506,0.113c-0.777-0.797-1.342-1.79-1.625-2.872
		c-0.036-0.206-0.14-0.346-0.296-0.417c-0.112-0.051-0.22-0.115-0.323-0.191c-0.377,0.984-1.015,1.831-1.862,2.467
		c-0.013,0.01-0.025,0.018-0.036,0.025c0.301,0.224,0.633,0.411,0.987,0.557c0.255,0.105,0.377,0.398,0.271,0.653
		c-0.078,0.188-0.259,0.309-0.462,0.309c-0.065,0-0.129-0.012-0.189-0.037c-0.443-0.183-0.859-0.421-1.24-0.708
		c-0.107-0.088-0.183-0.177-0.242-0.28c-0.267-0.462-0.114-1.064,0.342-1.342c0.843-0.638,1.447-1.574,1.689-2.631
		c-0.14-0.334-0.22-0.699-0.227-1.036c-0.011-0.56,0.162-1.044,0.479-1.353C5.426,9.186,5.414,9.091,5.403,8.996
		C4.897,8.947,4.5,8.52,4.5,8.001v-1c0-0.551,0.449-1,1-1h0.151C6.105,3.058,7.074,0,12,0c4.926,0,5.895,3.058,6.349,6.001H18.5
		c0.552,0,1,0.449,1,1v1c0,0.532-0.417,0.968-0.941,0.998c-0.012,0.092-0.024,0.185-0.038,0.281c0.317,0.31,0.49,0.795,0.479,1.355
		c-0.006,0.315-0.078,0.659-0.204,0.977c0.237,1.075,0.845,2.029,1.717,2.694c0.213,0.133,0.365,0.34,0.43,0.583
		c0.068,0.255,0.033,0.522-0.099,0.751c-0.059,0.101-0.134,0.19-0.222,0.264c-0.398,0.3-0.818,0.54-1.259,0.722
		c-0.061,0.025-0.125,0.038-0.191,0.038c-0.203,0-0.385-0.121-0.462-0.309c-0.105-0.255,0.017-0.548,0.271-0.653
		c0.353-0.146,0.686-0.334,0.991-0.561c-0.011-0.001-0.025-0.01-0.039-0.021c-0.854-0.644-1.495-1.5-1.873-2.491
		c-0.112,0.087-0.23,0.159-0.353,0.215c-0.153,0.069-0.26,0.208-0.287,0.373c-0.215,1.276-0.96,2.26-1.656,2.929l0.565-0.125
		c0.075-0.016,0.148-0.024,0.219-0.024c0.028,0,0.055,0.001,0.083,0.004c0.784,0.071,1.372,0.716,1.369,1.5V17.9
		c0,0.114-0.008,0.23-0.025,0.346l3.084,1.035c1.761,0.658,2.94,2.352,2.941,4.219C24,23.776,23.776,24,23.5,24z M7.452,16.998
		c-0.258,0.023-0.453,0.238-0.452,0.5V17.9c-0.001,0.339,0.114,0.671,0.323,0.937c0.613,0.77,1.426,1.374,2.351,1.747
		c0.011,0.004,0.032,0.012,0.053,0.023c0.658,0.26,1.37,0.396,2.096,0.396c0.051,0,0.101-0.001,0.152-0.002
		C11.983,21,11.992,20.999,12,20.999c0.009,0,0.018,0,0.027,0.001c0.048,0.001,0.092,0.002,0.136,0.002
		c1.747,0,3.435-0.812,4.516-2.171c0.094-0.12,0.171-0.259,0.227-0.412c0.003-0.01,0.007-0.019,0.011-0.028
		C16.971,18.236,17,18.068,17,17.9v-0.4c0.001-0.263-0.194-0.479-0.455-0.502l-3.252,0.723l-0.043,0.017
		c-0.055,0.02-0.113,0.031-0.172,0.031l-0.86,0.191c-0.069,0.016-0.142,0.024-0.216,0.024c-0.074,0-0.147-0.008-0.219-0.024
		l-4.329-0.961v-0.25L7.452,16.998z M12,16.984l1.002-0.223c1.45-0.564,3.136-1.961,3.432-3.708
		c0.083-0.494,0.405-0.912,0.861-1.118c0.445-0.202,0.695-0.83,0.705-1.318c0.006-0.329-0.089-0.591-0.243-0.668
		c-0.197-0.099-0.306-0.311-0.269-0.529C17.51,9.28,17.53,9.143,17.55,9.001H6.41c0.02,0.151,0.041,0.286,0.062,0.416
		C6.51,9.635,6.402,9.848,6.204,9.947c-0.154,0.077-0.249,0.339-0.243,0.667c0.009,0.489,0.259,1.118,0.705,1.32
		c0.456,0.206,0.778,0.625,0.861,1.119c0.442,1.685,1.703,3.07,3.371,3.686L12,16.984z M5.5,8.001h13v-1h-13L5.5,8.001z
		 M17.335,6.001C16.807,2.828,15.715,1,12,1C8.285,1,7.193,2.828,6.665,6.001H17.335z"/>
</g>
</svg>
