<?xml version="1.0" encoding="utf-8"?>
<!-- Generator: Adobe Illustrator 22.1.0, SVG Export Plug-In . SVG Version: 6.00 Build 0)  -->
<svg version="1.1" id="Layer_1" xmlns="http://www.w3.org/2000/svg" xmlns:xlink="http://www.w3.org/1999/xlink" x="0px" y="0px"
	 viewBox="0 0 24 24" style="enable-background:new 0 0 24 24;" xml:space="preserve">
<g>
	<title>people-woman-cap-3</title>
	<path d="M11.805,14.001c-0.604,0-1.186-0.223-1.638-0.628c-0.205-0.184-0.223-0.5-0.039-0.706c0.095-0.106,0.231-0.167,0.373-0.167
		c0.123,0,0.241,0.045,0.333,0.127c0.27,0.241,0.609,0.374,0.956,0.374L11.843,13l0.337,0c0.367,0,0.718-0.133,0.987-0.373
		c0.092-0.082,0.21-0.127,0.333-0.127c0.142,0,0.278,0.061,0.373,0.167c0.183,0.205,0.166,0.522-0.04,0.706
		c-0.453,0.405-1.034,0.628-1.635,0.628L11.805,14.001z"/>
	<path d="M9,9.5c-0.095,0-0.188-0.027-0.269-0.079C8.618,9.35,8.541,9.238,8.512,9.108c-0.029-0.13-0.005-0.264,0.067-0.377
		c0.293-0.46,0.793-0.734,1.337-0.734c0.028,0,0.057,0.001,0.085,0.002c0.027-0.001,0.054-0.002,0.081-0.002
		c0.546,0,1.047,0.274,1.34,0.734c0.072,0.113,0.096,0.246,0.067,0.377c-0.029,0.13-0.107,0.242-0.219,0.314
		C11.189,9.473,11.096,9.5,11,9.5c-0.172,0-0.33-0.086-0.422-0.231c-0.107-0.168-0.298-0.272-0.498-0.272
		C10.066,8.997,10.006,9,10,9C9.987,9,9.933,8.997,9.919,8.997c-0.203,0-0.389,0.102-0.497,0.272C9.329,9.414,9.172,9.5,9,9.5z"/>
	<path d="M15,9.5c-0.172,0-0.33-0.086-0.422-0.231c-0.109-0.17-0.293-0.272-0.494-0.272C14.069,8.997,14.007,9,14,9
		c-0.013,0-0.067-0.003-0.081-0.003c-0.203,0-0.389,0.102-0.497,0.272C13.329,9.414,13.172,9.5,13,9.5
		c-0.095,0-0.188-0.027-0.269-0.078c-0.232-0.148-0.301-0.458-0.153-0.69c0.293-0.46,0.794-0.734,1.34-0.734
		c0.027,0,0.055,0.001,0.082,0.002c0.027-0.001,0.054-0.002,0.082-0.002c0.546,0,1.047,0.274,1.34,0.734
		c0.148,0.233,0.08,0.542-0.153,0.69C15.188,9.473,15.095,9.5,15,9.5z"/>
	<path d="M23.5,24c-0.276,0-0.5-0.224-0.5-0.5v-1c-0.001-1.452-0.915-2.769-2.275-3.277l-3.069-1.031
		c-0.743,1.37-1.943,2.417-3.401,2.961c-0.56,0.209-1.149,0.338-1.755,0.385V23.5c0,0.276-0.224,0.5-0.5,0.5
		c-0.276,0-0.5-0.224-0.5-0.5v-1.958c-0.751-0.058-1.481-0.247-2.174-0.563c-1.263-0.576-2.315-1.561-2.982-2.787l-3.085,1.037
		C1.912,19.732,1.001,21.048,1,22.5v1C1,23.776,0.776,24,0.5,24S0,23.776,0,23.5v-1c0.001-1.867,1.176-3.56,2.925-4.213l5.416-1.821
		c0.018-0.006,0.048-0.011,0.071-0.014c0.028-0.005,0.054-0.008,0.082-0.009c0,0,0,0,0,0c0.036,0,0.065,0.003,0.096,0.009
		c0.029,0.005,0.06,0.013,0.091,0.025c0.029,0.011,0.057,0.025,0.084,0.043c0.028,0.018,0.052,0.036,0.075,0.058
		c0.023,0.021,0.042,0.044,0.055,0.062c0.013,0.014,0.028,0.032,0.042,0.057c0.319,0.577,0.792,1.051,1.368,1.369
		c0.507,0.281,1.079,0.432,1.656,0.437C11.975,18.501,11.989,18.5,12,18.5c0.011,0,0.024,0.001,0.036,0.003
		c0.309-0.003,0.628-0.048,0.931-0.135c0.898-0.259,1.643-0.851,2.095-1.669c0.009-0.016,0.027-0.04,0.042-0.057
		c0.018-0.023,0.035-0.044,0.056-0.063c0.025-0.023,0.05-0.042,0.078-0.059c0.027-0.017,0.054-0.031,0.083-0.042
		c0.029-0.011,0.059-0.02,0.093-0.026c0.03-0.005,0.059-0.008,0.089-0.008c0.031,0,0.059,0.003,0.087,0.009
		c0.019,0.001,0.041,0.005,0.067,0.013l5.402,1.816c1.761,0.658,2.94,2.352,2.941,4.219v1C24,23.776,23.776,24,23.5,24z
		 M7.309,17.868c0.566,0.965,1.42,1.74,2.432,2.201c0.561,0.256,1.151,0.413,1.759,0.469v-1.061
		c-0.589-0.065-1.152-0.245-1.679-0.536c-0.612-0.339-1.14-0.821-1.536-1.401L7.309,17.868z M12.5,20.536
		c0.484-0.044,0.956-0.152,1.405-0.32c1.174-0.438,2.153-1.267,2.785-2.348l-0.979-0.329c-0.59,0.867-1.46,1.499-2.468,1.789
		c-0.242,0.07-0.491,0.119-0.744,0.147V20.536z"/>
	<path d="M11,5c-0.276,0-0.5-0.224-0.5-0.5S10.724,4,11,4h2c0.276,0,0.5,0.224,0.5,0.5S13.276,5,13,5H11z"/>
	<circle cx="15" cy="23" r="0.75"/>
	<path d="M11.98,17c-1.593,0-4.951-1.863-5.44-4.782c-0.027-0.165-0.135-0.304-0.287-0.373c-0.125-0.057-0.244-0.129-0.357-0.218
		c-0.377,0.975-1.012,1.815-1.851,2.447c-0.015,0.011-0.03,0.022-0.047,0.031c0.698,0.54,1.559,0.837,2.431,0.837
		c0.056,0,0.113-0.001,0.169-0.004c0,0,0.001,0,0.001,0c0.29,0,0.509,0.21,0.52,0.478c0.006,0.133-0.041,0.261-0.131,0.359
		c-0.09,0.098-0.214,0.156-0.347,0.161c-0.07,0.003-0.141,0.005-0.212,0.005c-1.093,0-2.17-0.37-3.032-1.042
		c-0.097-0.071-0.186-0.17-0.253-0.282c-0.137-0.229-0.177-0.498-0.112-0.757c0.063-0.252,0.219-0.467,0.439-0.605
		c0.848-0.642,1.453-1.583,1.693-2.645c-0.125-0.319-0.197-0.663-0.203-0.978C4.95,9.071,5.124,8.587,5.442,8.277
		C5.371,7.72,5.353,7.118,5.39,6.526C5.389,6.517,5.388,6.508,5.388,6.5c0-0.031,0.005-0.056,0.009-0.073
		c0.088-1.217,0.441-2.95,1.62-4.343C8.187,0.701,9.857,0,11.98,0s3.793,0.701,4.963,2.084c1.181,1.395,1.533,3.132,1.62,4.352
		c0.004,0.018,0.007,0.039,0.007,0.064c0,0.007,0,0.014-0.001,0.021c0.037,0.594,0.019,1.197-0.052,1.756
		C18.836,8.587,19.01,9.072,19,9.634c-0.006,0.302-0.072,0.632-0.187,0.938c0.237,1.076,0.847,2.031,1.723,2.695
		c0.201,0.125,0.357,0.339,0.421,0.591c0.065,0.259,0.026,0.528-0.111,0.757c-0.068,0.114-0.156,0.212-0.264,0.291
		c-0.854,0.665-1.929,1.034-3.022,1.034c-0.07,0-0.141-0.001-0.211-0.005c-0.133-0.006-0.256-0.063-0.347-0.161
		s-0.137-0.226-0.131-0.359c0.012-0.264,0.234-0.479,0.495-0.479c0.005,0,0.026,0.001,0.031,0.001
		c0.046,0.002,0.098,0.003,0.151,0.003c0.879,0,1.742-0.295,2.43-0.83c-0.006-0.016-0.021-0.027-0.037-0.038
		c-0.841-0.635-1.478-1.48-1.855-2.461c-0.119,0.096-0.245,0.174-0.377,0.234c-0.153,0.069-0.26,0.208-0.287,0.373
		C16.927,15.138,13.57,17,11.98,17z M6.371,7C6.365,7.491,6.399,7.976,6.473,8.417c0.036,0.218-0.072,0.431-0.269,0.53
		C6.05,9.024,5.954,9.286,5.961,9.614c0.009,0.489,0.259,1.118,0.705,1.32c0.456,0.207,0.778,0.625,0.861,1.119
		C7.931,14.468,10.854,16,11.98,16c1.124,0,4.045-1.532,4.454-3.948c0.083-0.494,0.405-0.912,0.861-1.118
		c0.445-0.202,0.695-0.83,0.705-1.318c0.006-0.329-0.089-0.591-0.243-0.668c-0.197-0.099-0.306-0.312-0.269-0.529
		C17.561,7.976,17.595,7.49,17.589,7H6.371z M17.517,6C17.39,5.03,17.05,3.758,16.18,2.73C15.208,1.582,13.795,1,11.98,1
		c-1.815,0-3.228,0.582-4.2,1.73C6.91,3.758,6.57,5.03,6.443,6H17.517z"/>
</g>
</svg>
