<?xml version="1.0" encoding="utf-8"?>
<!-- Generator: Adobe Illustrator 22.1.0, SVG Export Plug-In . SVG Version: 6.00 Build 0)  -->
<svg version="1.1" id="Layer_1" xmlns="http://www.w3.org/2000/svg" xmlns:xlink="http://www.w3.org/1999/xlink" x="0px" y="0px"
	 viewBox="0 0 24 24" style="enable-background:new 0 0 24 24;" xml:space="preserve">
<g>
	<title>people-woman-cap-2</title>
	<path d="M11.805,14.001c-0.604,0-1.186-0.223-1.638-0.628c-0.205-0.184-0.223-0.5-0.039-0.706c0.095-0.106,0.231-0.167,0.373-0.167
		c0.123,0,0.241,0.045,0.333,0.127c0.27,0.241,0.609,0.374,0.956,0.374L11.843,13l0.337,0c0.367,0,0.718-0.133,0.987-0.373
		c0.092-0.082,0.21-0.127,0.333-0.127c0.142,0,0.278,0.061,0.373,0.167c0.183,0.205,0.166,0.522-0.04,0.706
		c-0.453,0.405-1.034,0.628-1.635,0.628L11.805,14.001z"/>
	<path d="M9,9.5c-0.095,0-0.188-0.027-0.269-0.079C8.618,9.35,8.541,9.238,8.512,9.108c-0.029-0.13-0.005-0.264,0.067-0.377
		c0.293-0.46,0.793-0.734,1.337-0.734c0.028,0,0.057,0.001,0.085,0.002c0.027-0.001,0.054-0.002,0.081-0.002
		c0.546,0,1.047,0.274,1.34,0.734c0.072,0.113,0.096,0.246,0.067,0.377c-0.029,0.13-0.107,0.242-0.219,0.314
		C11.189,9.473,11.096,9.5,11,9.5c-0.172,0-0.33-0.086-0.422-0.231c-0.107-0.168-0.298-0.272-0.498-0.272
		C10.066,8.997,10.006,9,10,9C9.987,9,9.933,8.997,9.919,8.997c-0.203,0-0.389,0.102-0.497,0.272C9.329,9.414,9.172,9.5,9,9.5L9,9.5
		z"/>
	<path d="M15,9.5c-0.172,0-0.33-0.086-0.422-0.231c-0.109-0.17-0.293-0.272-0.494-0.272C14.069,8.997,14.007,9,14,9
		c-0.013,0-0.067-0.003-0.081-0.003c-0.203,0-0.389,0.102-0.497,0.272C13.329,9.414,13.172,9.5,13,9.5
		c-0.095,0-0.188-0.027-0.269-0.078c-0.232-0.148-0.301-0.458-0.153-0.69c0.293-0.46,0.794-0.734,1.34-0.734
		c0.027,0,0.055,0.001,0.082,0.002c0.027-0.001,0.054-0.002,0.082-0.002c0.546,0,1.047,0.274,1.34,0.734
		c0.148,0.233,0.08,0.542-0.153,0.69C15.188,9.473,15.095,9.5,15,9.5z"/>
	<path d="M11.98,17c-1.593,0-4.951-1.863-5.44-4.782c-0.027-0.165-0.135-0.304-0.287-0.373c-0.112-0.051-0.22-0.115-0.323-0.191
		c-0.376,0.982-1.013,1.829-1.859,2.464C4.057,14.129,4.04,14.14,4.023,14.15c0.7,0.54,1.556,0.836,2.422,0.836
		c0.059,0,0.119-0.001,0.178-0.004c0.004,0,0.026-0.001,0.03-0.001c0.26,0,0.481,0.215,0.492,0.479
		c0.012,0.275-0.202,0.509-0.478,0.521c-0.072,0.003-0.143,0.005-0.214,0.005c-1.092,0-2.168-0.37-3.03-1.042
		c-0.098-0.073-0.187-0.172-0.254-0.284c-0.137-0.229-0.177-0.498-0.111-0.757c0.063-0.252,0.22-0.467,0.44-0.604
		c0.844-0.639,1.448-1.575,1.689-2.631c-0.14-0.335-0.22-0.699-0.227-1.035C4.95,9.071,5.124,8.587,5.442,8.277
		C5.371,7.72,5.353,7.118,5.39,6.526C5.389,6.517,5.388,6.508,5.388,6.5c0-0.031,0.005-0.056,0.009-0.073
		C5.449,5.702,5.581,5.005,5.79,4.355c0.005-0.018,0.011-0.036,0.018-0.054C6.09,3.444,6.496,2.698,7.017,2.084
		C8.187,0.701,9.857,0,11.98,0s3.793,0.701,4.963,2.084c1.058,1.25,1.445,2.78,1.579,3.916H23.5C23.776,6,24,6.224,24,6.5
		S23.776,7,23.5,7h-4.914c0.006,0.438-0.017,0.873-0.068,1.277C18.836,8.587,19.01,9.072,19,9.634c-0.006,0.3-0.068,0.616-0.18,0.92
		c0.233,1.1,0.85,2.076,1.742,2.757c0.201,0.125,0.357,0.339,0.42,0.591c0.065,0.259,0.025,0.528-0.113,0.757
		c-0.068,0.114-0.157,0.211-0.263,0.29c-0.853,0.666-1.927,1.034-3.02,1.034c-0.072,0-0.143-0.001-0.214-0.005
		c-0.276-0.012-0.49-0.246-0.478-0.521c0.012-0.272,0.227-0.478,0.499-0.478c0.08,0.003,0.137,0.004,0.195,0.004
		c0.87,0,1.727-0.295,2.414-0.831c-0.003-0.016-0.018-0.026-0.031-0.036c-0.858-0.651-1.502-1.513-1.879-2.511
		c-0.121,0.098-0.249,0.178-0.383,0.239c-0.153,0.069-0.26,0.208-0.287,0.373C16.927,15.138,13.57,17,11.98,17z M6.371,7
		C6.365,7.491,6.399,7.976,6.473,8.417c0.036,0.218-0.072,0.431-0.269,0.53C6.05,9.024,5.954,9.286,5.961,9.614
		c0.009,0.489,0.259,1.118,0.705,1.32c0.456,0.207,0.778,0.625,0.861,1.119C7.931,14.468,10.854,16,11.98,16
		c1.124,0,4.045-1.532,4.454-3.948c0.083-0.494,0.405-0.912,0.861-1.118c0.445-0.202,0.695-0.83,0.705-1.318
		c0.006-0.329-0.089-0.591-0.243-0.668c-0.197-0.099-0.306-0.312-0.269-0.529C17.561,7.976,17.595,7.49,17.589,7H6.371z M17.517,6
		C17.39,5.03,17.05,3.758,16.18,2.73C15.208,1.582,13.795,1,11.98,1c-1.815,0-3.228,0.582-4.2,1.73C7.471,3.095,7.207,3.521,6.993,4
		H8.5C8.776,4,9,4.224,9,4.5S8.776,5,8.5,5H6.638c-0.085,0.319-0.15,0.654-0.195,1H17.517z"/>
	<path d="M23.5,24c-0.276,0-0.5-0.224-0.5-0.5v-1c-0.001-1.452-0.915-2.769-2.275-3.277l-3.07-1.03
		c-0.743,1.369-1.942,2.415-3.4,2.959c-0.73,0.273-1.49,0.411-2.258,0.411c-0.922,0-1.821-0.197-2.671-0.584
		c-1.263-0.576-2.314-1.561-2.981-2.786l-3.085,1.036C1.912,19.732,1.001,21.048,1,22.5v1C1,23.776,0.776,24,0.5,24S0,23.776,0,23.5
		v-1c0.001-1.867,1.176-3.56,2.925-4.213l5.042-1.694c0.102-0.034,0.209-0.052,0.317-0.052c0.331,0,0.641,0.162,0.827,0.434
		c0.245,0.358,0.551,0.664,0.91,0.909c0.584,0.4,1.266,0.612,1.972,0.612c0,0,0,0,0,0c1.159,0,2.24-0.569,2.893-1.521
		c0.187-0.272,0.496-0.434,0.827-0.434c0.108,0,0.215,0.018,0.317,0.052l5.03,1.688c1.761,0.658,2.94,2.352,2.941,4.219v1
		C24,23.776,23.776,24,23.5,24z M7.309,17.869c0.566,0.964,1.42,1.739,2.431,2.2c0.719,0.328,1.478,0.494,2.257,0.494
		c0.649,0,1.291-0.117,1.908-0.347c1.173-0.438,2.152-1.266,2.784-2.346l-0.979-0.328c-0.839,1.224-2.229,1.955-3.719,1.955
		c-0.909,0-1.786-0.272-2.537-0.786c-0.46-0.316-0.854-0.709-1.169-1.169L7.309,17.869z"/>
</g>
</svg>
