<?xml version="1.0" encoding="utf-8"?>
<!-- Generator: Adobe Illustrator 22.1.0, SVG Export Plug-In . SVG Version: 6.00 Build 0)  -->
<svg version="1.1" id="Light" xmlns="http://www.w3.org/2000/svg" xmlns:xlink="http://www.w3.org/1999/xlink" x="0px" y="0px"
	 viewBox="0 0 24 24" style="enable-background:new 0 0 24 24;" xml:space="preserve">
<g>
	<title>renewable-energy-solar-power</title>
	<path d="M17.499,24c-0.056,0-0.112-0.01-0.166-0.028c-0.2-0.07-0.334-0.26-0.334-0.472V18h-2.125
		c-0.206-0.001-0.405-0.074-0.561-0.205c-0.18-0.151-0.29-0.363-0.31-0.596c-0.02-0.233,0.052-0.46,0.203-0.639l5.903-7.373
		C20.204,9.068,20.346,9,20.499,9c0.057,0,0.112,0.01,0.166,0.028c0.2,0.07,0.334,0.26,0.334,0.472V15h2.125
		c0.206,0.001,0.405,0.074,0.562,0.205c0.37,0.311,0.418,0.865,0.107,1.235l-5.904,7.373C17.794,23.932,17.652,24,17.499,24z
		 M17.499,17c0.276,0,0.5,0.224,0.5,0.5v4.576L22.864,16h-2.365c-0.276,0-0.5-0.224-0.5-0.5v-4.576L15.134,17H17.499z"/>
	<path d="M19.699,8.27c-0.188,0-0.358-0.103-0.444-0.27c-1.085-2.092-3.045-3.522-5.33-3.926l1.027,1.027
		c0.094,0.094,0.146,0.22,0.146,0.354s-0.052,0.259-0.146,0.354s-0.22,0.146-0.354,0.146s-0.259-0.052-0.354-0.146l-2-2
		c-0.046-0.046-0.083-0.101-0.108-0.162c-0.05-0.121-0.051-0.261,0-0.383c0.023-0.054,0.054-0.103,0.093-0.146
		c0.005-0.005,0.01-0.011,0.015-0.016l2-2c0.094-0.094,0.22-0.146,0.354-0.146s0.259,0.052,0.354,0.146s0.146,0.22,0.146,0.354
		s-0.052,0.259-0.146,0.354L13.732,3.03c2.749,0.363,5.119,2.02,6.411,4.51c0.127,0.245,0.031,0.547-0.213,0.674
		C19.858,8.251,19.779,8.27,19.699,8.27z"/>
	<path d="M10.599,21.955c-0.134,0-0.259-0.052-0.354-0.146s-0.146-0.22-0.146-0.354s0.052-0.259,0.146-0.354l1.221-1.221
		c-2.747-0.362-5.118-2.017-6.411-4.505c-0.062-0.118-0.073-0.254-0.033-0.381s0.128-0.231,0.246-0.293
		c0.071-0.037,0.151-0.056,0.23-0.056c0.188,0,0.358,0.103,0.444,0.27c1.087,2.09,3.046,3.519,5.331,3.922l-1.028-1.028
		c-0.094-0.094-0.146-0.22-0.146-0.354s0.052-0.259,0.146-0.354s0.22-0.146,0.354-0.146s0.259,0.052,0.354,0.146l2,2
		c0.039,0.038,0.061,0.078,0.074,0.102c0.001,0.001,0.02,0.026,0.034,0.061c0.05,0.121,0.05,0.26,0,0.382
		c-0.026,0.062-0.062,0.116-0.108,0.162l-2,2C10.858,21.903,10.733,21.955,10.599,21.955z"/>
	<path d="M6.499,10c-1.93,0-3.5-1.57-3.5-3.5S4.569,3,6.499,3s3.5,1.57,3.5,3.5S8.429,10,6.499,10z M6.499,4
		c-1.379,0-2.5,1.121-2.5,2.5S5.121,9,6.499,9s2.5-1.121,2.5-2.5S7.878,4,6.499,4z"/>
	<path d="M6.499,2c-0.276,0-0.5-0.224-0.5-0.5v-1c0-0.276,0.224-0.5,0.5-0.5s0.5,0.224,0.5,0.5v1C6.999,1.776,6.775,2,6.499,2z"/>
	<path d="M10.035,3.464c-0.134,0-0.259-0.052-0.354-0.146s-0.146-0.22-0.146-0.354S9.587,2.705,9.682,2.61l0.707-0.707
		c0.094-0.094,0.22-0.146,0.354-0.146s0.259,0.052,0.354,0.146c0.195,0.195,0.195,0.512,0,0.707l-0.707,0.707
		C10.294,3.412,10.169,3.464,10.035,3.464z"/>
	<path d="M11.499,7c-0.276,0-0.5-0.224-0.5-0.5s0.224-0.5,0.5-0.5h1c0.276,0,0.5,0.224,0.5,0.5S12.775,7,12.499,7H11.499z"/>
	<path d="M10.742,11.243c-0.134,0-0.259-0.052-0.354-0.146L9.682,10.39c-0.195-0.195-0.195-0.512,0-0.707
		c0.094-0.094,0.22-0.146,0.354-0.146s0.259,0.052,0.354,0.146l0.707,0.707c0.094,0.094,0.146,0.22,0.146,0.354
		s-0.052,0.259-0.146,0.354S10.876,11.243,10.742,11.243z"/>
	<path d="M6.499,13c-0.276,0-0.5-0.224-0.5-0.5v-1c0-0.276,0.224-0.5,0.5-0.5s0.5,0.224,0.5,0.5v1C6.999,12.776,6.775,13,6.499,13z"
		/>
	<path d="M2.256,11.243c-0.134,0-0.259-0.052-0.354-0.146c-0.094-0.094-0.146-0.22-0.146-0.354c0-0.134,0.052-0.259,0.146-0.354
		L2.61,9.682c0.094-0.094,0.22-0.146,0.354-0.146s0.259,0.052,0.354,0.146c0.094,0.094,0.146,0.22,0.146,0.354
		c0,0.134-0.052,0.259-0.146,0.354L2.61,11.097C2.515,11.191,2.39,11.243,2.256,11.243z"/>
	<path d="M0.499,7c-0.276,0-0.5-0.224-0.5-0.5S0.223,6,0.499,6h1c0.276,0,0.5,0.224,0.5,0.5S1.775,7,1.499,7H0.499z"/>
	<path d="M2.963,3.464c-0.134,0-0.259-0.052-0.354-0.146L1.903,2.61c-0.094-0.094-0.146-0.22-0.146-0.354
		c0-0.134,0.052-0.259,0.147-0.354c0.094-0.094,0.22-0.146,0.353-0.146S2.515,1.809,2.61,1.903L3.317,2.61
		c0.094,0.094,0.146,0.22,0.146,0.354c0,0.134-0.052,0.259-0.147,0.354C3.222,3.412,3.097,3.464,2.963,3.464z"/>
</g>
</svg>
