<?xml version="1.0" encoding="utf-8"?>
<!-- Generator: Adobe Illustrator 22.1.0, SVG Export Plug-In . SVG Version: 6.00 Build 0)  -->
<svg version="1.1" id="Light" xmlns="http://www.w3.org/2000/svg" xmlns:xlink="http://www.w3.org/1999/xlink" x="0px" y="0px"
	 viewBox="0 0 24 24" style="enable-background:new 0 0 24 24;" xml:space="preserve">
<g>
	<title>renewable-energy-solar-monitor</title>
	<path d="M11.309,24c-0.381,0-0.723-0.211-0.894-0.552L10.191,23l-6.382,0l-0.224,0.448C3.414,23.789,3.072,24,2.691,24H1.5
		C0.673,24,0,23.327,0,22.5v-8C0,13.673,0.673,13,1.5,13h11c0.827,0,1.5,0.673,1.5,1.5V21h1.5c0.827,0,1.5-0.673,1.5-1.5v-6
		c0-0.276,0.224-0.5,0.5-0.5s0.5,0.224,0.5,0.5v6c0,1.378-1.122,2.5-2.5,2.5H14v0.5c0,0.827-0.673,1.5-1.5,1.5H11.309z M10.191,22
		c0.381,0,0.723,0.211,0.894,0.552L11.309,23l1.191,0c0.276,0,0.5-0.224,0.5-0.5v-8c0-0.276-0.224-0.5-0.5-0.5h-1.191l-0.724,1.448
		C10.414,15.789,10.072,16,9.691,16H4.309c-0.381,0-0.723-0.211-0.894-0.552L2.691,14H1.5C1.224,14,1,14.224,1,14.5v8
		C1,22.776,1.224,23,1.5,23h1.191l0.224-0.448C3.086,22.211,3.428,22,3.809,22H10.191z M4.309,15l5.382,0l0.5-1H3.809L4.309,15z"/>
	<path d="M4,21c-0.551,0-1-0.448-1-1v-2c0-0.552,0.449-1,1-1h6c0.551,0,1,0.448,1,1v2c0,0.552-0.449,1-1,1H4z M4,20h6v-2H4L4,20z"/>
	<path d="M14.5,12c-0.276,0-0.5-0.224-0.5-0.5s0.224-0.5,0.5-0.5H17V9h-4.5C11.673,9,11,8.327,11,7.5v-6C11,0.673,11.673,0,12.5,0
		h10C23.327,0,24,0.673,24,1.5v6C24,8.327,23.327,9,22.5,9H18v2h2.5c0.276,0,0.5,0.224,0.5,0.5S20.776,12,20.5,12H14.5z M12.5,1
		C12.224,1,12,1.224,12,1.5v6C12,7.776,12.224,8,12.5,8h10C22.776,8,23,7.776,23,7.5v-6C23,1.224,22.776,1,22.5,1H12.5z"/>
</g>
</svg>
