<?xml version="1.0" encoding="utf-8"?>
<!-- Generator: Adobe Illustrator 22.1.0, SVG Export Plug-In . SVG Version: 6.00 Build 0)  -->
<svg version="1.1" id="Light" xmlns="http://www.w3.org/2000/svg" xmlns:xlink="http://www.w3.org/1999/xlink" x="0px" y="0px"
	 viewBox="0 0 24 24" style="enable-background:new 0 0 24 24;" xml:space="preserve">
<g>
	<title>renewable-energy-solar-electricity</title>
	<path d="M11.25,24c-0.191,0-0.362-0.106-0.447-0.276L10.441,23H4.059l-0.362,0.724C3.612,23.894,3.441,24,3.25,24h-1.5
		c-0.827,0-1.5-0.673-1.5-1.5v-8c0-0.827,0.673-1.5,1.5-1.5h11c0.827,0,1.5,0.673,1.5,1.5V21h1.5c0.827,0,1.5-0.673,1.5-1.5V12h-1
		c-0.276,0-0.5-0.224-0.5-0.5s0.224-0.5,0.5-0.5h3c0.276,0,0.5,0.224,0.5,0.5s-0.224,0.5-0.5,0.5h-1v7.5c0,1.378-1.122,2.5-2.5,2.5
		h-1.5v0.5c0,0.827-0.673,1.5-1.5,1.5H11.25z M12.75,23c0.276,0,0.5-0.224,0.5-0.5v-8c0-0.276-0.224-0.5-0.5-0.5h-1.191
		l-0.862,1.724C10.612,15.894,10.441,16,10.25,16h-6c-0.191,0-0.362-0.106-0.447-0.276L2.941,14H1.75c-0.276,0-0.5,0.224-0.5,0.5v8
		c0,0.276,0.224,0.5,0.5,0.5h1.191l0.362-0.724C3.388,22.106,3.559,22,3.75,22h7c0.191,0,0.362,0.106,0.447,0.276L11.559,23H12.75z
		 M9.941,15l0.5-1H4.059l0.5,1H9.941z"/>
	<path d="M16.75,10c-0.552,0-1-0.449-1-1V8.777c-0.917-0.627-1.475-1.651-1.5-2.766c0-1.941,1.57-3.511,3.5-3.511s3.5,1.57,3.5,3.5
		c-0.025,1.125-0.583,2.151-1.5,2.777V9c0,0.551-0.448,1-1,1H16.75z M17.75,3.5c-1.377,0-2.499,1.12-2.5,2.497
		c0.02,0.852,0.497,1.646,1.245,2.067C16.652,8.153,16.75,8.32,16.75,8.5V9h2V8.5c0-0.18,0.098-0.347,0.255-0.436
		c0.749-0.421,1.226-1.216,1.245-2.075C20.25,4.619,19.128,3.5,17.75,3.5z"/>
	<path d="M17.75,2c-0.276,0-0.5-0.224-0.5-0.5v-1c0-0.276,0.224-0.5,0.5-0.5s0.5,0.224,0.5,0.5v1C18.25,1.776,18.026,2,17.75,2z"/>
	<path d="M14.568,3.318c-0.134,0-0.259-0.052-0.354-0.146l-0.707-0.707c-0.195-0.195-0.195-0.512,0-0.707
		c0.094-0.094,0.22-0.146,0.354-0.146s0.259,0.052,0.354,0.146l0.707,0.707c0.094,0.094,0.146,0.22,0.146,0.354
		s-0.052,0.259-0.146,0.354S14.702,3.318,14.568,3.318z"/>
	<path d="M12.25,6c-0.276,0-0.5-0.224-0.5-0.5S11.974,5,12.25,5h1c0.276,0,0.5,0.224,0.5,0.5S13.526,6,13.25,6H12.25z"/>
	<path d="M20.932,3.318c-0.134,0-0.259-0.052-0.354-0.146s-0.146-0.22-0.146-0.354s0.052-0.259,0.146-0.354l0.707-0.707
		c0.094-0.094,0.22-0.146,0.354-0.146s0.259,0.052,0.354,0.146c0.195,0.195,0.195,0.512,0,0.707l-0.707,0.707
		C21.191,3.266,21.065,3.318,20.932,3.318z"/>
	<path d="M22.25,6c-0.276,0-0.5-0.224-0.5-0.5S21.974,5,22.25,5h1c0.276,0,0.5,0.224,0.5,0.5S23.526,6,23.25,6H22.25z"/>
	<path d="M3.75,21c-0.276,0-0.5-0.224-0.5-0.5v-3c0-0.276,0.224-0.5,0.5-0.5h7c0.276,0,0.5,0.224,0.5,0.5v3
		c0,0.276-0.224,0.5-0.5,0.5H3.75z M10.25,20v-2h-6v2H10.25z"/>
</g>
</svg>
