<?xml version="1.0" encoding="utf-8"?>
<!-- Generator: Adobe Illustrator 22.1.0, SVG Export Plug-In . SVG Version: 6.00 Build 0)  -->
<svg version="1.1" id="Light" xmlns="http://www.w3.org/2000/svg" xmlns:xlink="http://www.w3.org/1999/xlink" x="0px" y="0px"
	 viewBox="0 0 24 24" style="enable-background:new 0 0 24 24;" xml:space="preserve">
<g>
	<title>renewable-energy-eco-barrel</title>
	<path d="M11.434,23.692c-0.099,0-0.195-0.029-0.278-0.084c-0.229-0.154-0.291-0.465-0.137-0.694
		c0.063-0.095,1.526-2.269,3.48-4.284c-1.06-0.779-1.596-1.608-1.594-2.467c0.002-0.911,0.608-1.766,1.752-2.471
		c0.998-0.613,2.061-0.698,3.06-0.698c0.274,0,0.551,0.007,0.832,0.014c0.292,0.007,0.57,0.014,0.852,0.014
		c0.682,0,1.492-0.034,2.338-0.284c0.083-0.024,0.169-0.038,0.254-0.041c0.002,0,0.023,0,0.026,0c0.537,0,0.987,0.435,1.004,0.969
		c0.086,2.702-1.724,6.514-3.655,7.697c-0.779,0.478-1.484,0.72-2.098,0.72c-0.333,0-0.644-0.071-0.922-0.211
		c-0.686-0.346-1.153-1.104-1.393-2.258c-1.791,1.906-3.091,3.838-3.105,3.858C11.756,23.609,11.601,23.692,11.434,23.692z
		 M15.826,18.728c0.133,1.218,0.468,1.995,0.972,2.249c0.139,0.07,0.299,0.105,0.477,0.105c0.423,0,0.951-0.193,1.57-0.573
		c1.65-1.01,3.253-4.449,3.178-6.813c-0.97,0.286-1.865,0.325-2.613,0.325c-0.296,0-0.589-0.007-0.879-0.014
		c-0.275-0.007-0.54-0.013-0.8-0.013c-0.86,0-1.764,0.067-2.55,0.55c-0.581,0.358-1.275,0.931-1.276,1.621
		c-0.001,0.552,0.442,1.14,1.317,1.75c1.608-1.521,3.078-2.441,4.372-2.734c0.036-0.008,0.073-0.012,0.11-0.012
		c0.231,0,0.437,0.164,0.488,0.39c0.03,0.13,0.006,0.264-0.065,0.377c-0.071,0.113-0.182,0.191-0.312,0.221
		C18.677,16.414,17.335,17.279,15.826,18.728z"/>
	<path d="M1.478,24c-0.276,0-0.5-0.224-0.5-0.5s0.224-0.5,0.5-0.5h1.5v-6h-1.5c-0.276,0-0.5-0.224-0.5-0.5s0.224-0.5,0.5-0.5h1.5v-6
		h-1.5c-0.276,0-0.5-0.224-0.5-0.5S1.202,9,1.478,9h1.5V3h-1.5c-0.276,0-0.5-0.224-0.5-0.5S1.202,2,1.478,2h11.5V1
		c0-0.551,0.448-1,1-1h3c0.552,0,1,0.449,1,1v1h2.5c0.276,0,0.5,0.224,0.5,0.5S20.754,3,20.478,3h-1.5v6h1.5
		c0.276,0,0.5,0.224,0.5,0.5s-0.224,0.5-0.5,0.5h-1.5v1c0,0.276-0.224,0.5-0.5,0.5s-0.5-0.224-0.5-0.5v-1h-14v6h6.5
		c0.276,0,0.5,0.224,0.5,0.5s-0.224,0.5-0.5,0.5h-6.5v6h4.5c0.276,0,0.5,0.224,0.5,0.5S8.754,24,8.478,24H1.478z M17.978,9V3h-14v6
		H17.978z M16.978,2V1h-3l0,1H16.978z"/>
</g>
</svg>
