<?xml version="1.0" encoding="utf-8"?>
<!-- Generator: Adobe Illustrator 22.1.0, SVG Export Plug-In . SVG Version: 6.00 Build 0)  -->
<svg version="1.1" id="Light" xmlns="http://www.w3.org/2000/svg" xmlns:xlink="http://www.w3.org/1999/xlink" x="0px" y="0px"
	 viewBox="0 0 24 24" style="enable-background:new 0 0 24 24;" xml:space="preserve">
<g>
	<title>renewable-energy-charging</title>
	<path d="M13.7,23.5c-2.137,0-3.73-2.026-3.966-4H6.7c-2.757,0-5-2.243-5-5c0-2.757,2.243-5,5-5h13c1.378,0,2.5-1.121,2.5-2.5
		s-1.122-2.5-2.5-2.5h-9.536c-0.241,1.804-1.804,3-3.964,3H3.7c-0.551,0-1-0.449-1-1v-1H1.202c-0.276,0-0.5-0.224-0.5-0.5
		s0.224-0.5,0.5-0.5H2.7v-1H1.202c-0.276,0-0.5-0.224-0.5-0.5s0.224-0.5,0.5-0.5H2.7v-1c0-0.551,0.449-1,1-1h2.5
		c2.16,0,3.722,1.196,3.964,3H19.7c1.93,0,3.5,1.57,3.5,3.5s-1.57,3.5-3.5,3.5h-13c-2.206,0-4,1.794-4,4s1.794,4,4,4h3.034
		c0.236-1.974,1.829-4,3.966-4l2.559,0c0.551,0,1.123,0.133,1.655,0.384c0.024,0.012,0.044,0.023,0.063,0.036l4.877,3.248
		c0.222,0.148,0.374,0.374,0.426,0.636c0.053,0.261,0,0.528-0.148,0.751c-0.073,0.11-0.167,0.204-0.277,0.277l-4.849,3.234
		c-0.02,0.013-0.04,0.024-0.061,0.035c-0.537,0.261-1.14,0.399-1.74,0.399H13.7z M10.744,19.5c0.232,1.47,1.435,3,2.957,3h2.5
		c0.443,0,0.883-0.099,1.28-0.286L22.3,19l-4.845-3.227c-0.39-0.179-0.821-0.273-1.25-0.273H13.7c-1.522,0-2.725,1.53-2.957,3h1.507
		c0.087-0.43,0.285-0.826,0.578-1.156c0.069-0.078,0.144-0.152,0.221-0.22C13.14,17.044,13.258,17,13.379,17
		c0.144,0,0.281,0.062,0.376,0.17c0.088,0.1,0.132,0.229,0.124,0.362c-0.009,0.133-0.069,0.255-0.169,0.344
		c-0.047,0.042-0.092,0.086-0.134,0.133c-0.128,0.145-0.226,0.311-0.29,0.491h1.471c0.087-0.43,0.283-0.826,0.575-1.156
		c0.096-0.107,0.232-0.168,0.375-0.168c0.122,0,0.24,0.044,0.331,0.125c0.207,0.183,0.226,0.5,0.043,0.706
		c-0.127,0.143-0.224,0.31-0.287,0.493H17.2c0.276,0,0.5,0.224,0.5,0.5s-0.224,0.5-0.5,0.5h-1.408
		c0.063,0.183,0.16,0.351,0.288,0.495c0.183,0.207,0.163,0.523-0.043,0.706c-0.092,0.081-0.209,0.126-0.332,0.126
		c-0.143,0-0.279-0.061-0.374-0.168c-0.293-0.331-0.49-0.728-0.576-1.159h-1.473c0.083,0.24,0.227,0.456,0.418,0.626
		c0.1,0.088,0.159,0.21,0.167,0.344c0.008,0.133-0.037,0.262-0.125,0.362C13.648,20.939,13.511,21,13.368,21
		c-0.123,0-0.241-0.045-0.333-0.127c-0.406-0.36-0.68-0.842-0.786-1.373H10.744z M6.2,6.5c1.493,0,3-0.773,3-2.5s-1.507-2.5-3-2.5
		H5.702v5H6.2z M3.7,6.5h1.001v-5H3.701l0,1.477C3.701,2.985,3.702,2.993,3.702,3c0,0.007,0,0.015-0.001,0.023v1.955
		C3.701,4.985,3.702,4.993,3.702,5s0,0.015-0.001,0.023V6.5z"/>
</g>
</svg>
