<?xml version="1.0" encoding="utf-8"?>
<!-- Generator: Adobe Illustrator 22.1.0, SVG Export Plug-In . SVG Version: 6.00 Build 0)  -->
<svg version="1.1" id="Light" xmlns="http://www.w3.org/2000/svg" xmlns:xlink="http://www.w3.org/1999/xlink" x="0px" y="0px"
	 viewBox="0 0 24 24" style="enable-background:new 0 0 24 24;" xml:space="preserve">
<g>
	<title>renewable-energy-wind-turbine-2</title>
	<path d="M0.5,24C0.224,24,0,23.776,0,23.5S0.224,23,0.5,23h9.069l1.286-8.573c0.037-0.247,0.246-0.426,0.497-0.426
		c0.022,0,0.045,0.002,0.068,0.005c0.136,0.021,0.252,0.091,0.332,0.198s0.112,0.239,0.092,0.371L10.581,23h3.839l-1.265-8.434
		c-0.02-0.132,0.013-0.264,0.093-0.371s0.196-0.177,0.328-0.198c0.027-0.004,0.05-0.005,0.073-0.005
		c0.251,0,0.459,0.179,0.496,0.426L15.431,23H23.5c0.276,0,0.5,0.224,0.5,0.5S23.776,24,23.5,24H0.5z"/>
	<path d="M4.755,16.755c-0.043,0-0.086-0.006-0.129-0.017c-0.13-0.034-0.237-0.117-0.304-0.233
		c-0.389-0.674-0.551-1.839,0.882-3.568c0.946-1.141,2.238-2.098,3.056-2.57c0.286-0.152,0.599-0.23,0.913-0.23
		c0.16,0,0.32,0.02,0.476,0.059c0-0.005,0-0.01,0-0.015c0-1.006,0.534-1.912,1.389-2.404c-0.335-0.347-0.525-0.799-0.538-1.284
		l0-5.993C10.5,0.224,10.724,0,11,0c0.574,0,1.099,0.234,1.561,0.697c1.307,1.31,1.789,4.243,1.786,5.784
		c-0.013,0.49-0.208,0.949-0.537,1.293c0.848,0.485,1.381,1.375,1.395,2.369c0.136-0.03,0.275-0.045,0.413-0.045
		c0.346,0,0.687,0.094,0.985,0.273l5.171,2.985c0.116,0.067,0.198,0.175,0.233,0.304c0.035,0.129,0.017,0.264-0.05,0.379
		c-0.432,0.748-1.24,1.128-2.401,1.128c-1.608,0-3.659-0.761-4.884-1.468l-0.045-0.026c-0.411-0.246-0.706-0.624-0.845-1.069
		c-0.413,0.233-0.875,0.355-1.354,0.355c-0.49,0-0.974-0.133-1.397-0.379c-0.13,0.462-0.423,0.854-0.832,1.109l-5.193,2.999
		C4.928,16.732,4.842,16.755,4.755,16.755z M9.175,11.134c-0.15,0-0.299,0.037-0.43,0.107c-0.736,0.425-1.91,1.294-2.771,2.333
		c-0.451,0.544-0.939,1.286-0.922,1.932l4.631-2.675c0.197-0.123,0.34-0.326,0.396-0.567c0.056-0.24,0.014-0.488-0.117-0.697
		C9.792,11.296,9.498,11.134,9.175,11.134z M14.746,11.71c-0.063,0.174-0.073,0.359-0.029,0.536c0.06,0.239,0.21,0.441,0.421,0.568
		l0.031,0.018c1.151,0.664,3.028,1.337,4.39,1.337c0.498,0,0.889-0.088,1.169-0.261l-4.633-2.674
		c-0.148-0.089-0.313-0.135-0.481-0.135c-0.275,0-0.53,0.118-0.706,0.325C14.855,11.531,14.801,11.625,14.746,11.71z M12.427,8.403
		c-0.98,0-1.778,0.798-1.778,1.778c0,0.98,0.798,1.778,1.778,1.778c0.565,0,1.1-0.273,1.435-0.733c0.03-0.066,0.062-0.13,0.1-0.194
		c0.029-0.048,0.059-0.094,0.091-0.138c0.101-0.228,0.152-0.468,0.152-0.713C14.205,9.201,13.407,8.403,12.427,8.403z M11.5,6.48
		c0.006,0.236,0.109,0.463,0.288,0.633c0.175,0.166,0.395,0.254,0.636,0.254c0.515-0.013,0.91-0.408,0.923-0.899
		c0.003-1.432-0.47-4.038-1.494-5.064c-0.114-0.114-0.232-0.205-0.353-0.271V6.48z"/>
</g>
</svg>
