<?xml version="1.0" encoding="utf-8"?>
<!-- Generator: Adobe Illustrator 22.1.0, SVG Export Plug-In . SVG Version: 6.00 Build 0)  -->
<svg version="1.1" id="Light" xmlns="http://www.w3.org/2000/svg" xmlns:xlink="http://www.w3.org/1999/xlink" x="0px" y="0px"
	 viewBox="0 0 24 24" style="enable-background:new 0 0 24 24;" xml:space="preserve">
<g>
	<title>renewable-energy-solar-panel</title>
	<path d="M9.676,2c-0.276,0-0.5-0.224-0.5-0.5v-1c0-0.276,0.224-0.5,0.5-0.5s0.5,0.224,0.5,0.5v1C10.176,1.776,9.951,2,9.676,2z"/>
	<path d="M3.675,4.002c-0.134,0-0.259-0.052-0.354-0.146l-1-1c-0.094-0.094-0.146-0.22-0.146-0.354s0.052-0.259,0.146-0.354
		s0.22-0.146,0.354-0.146s0.259,0.052,0.354,0.146l1,1c0.094,0.094,0.146,0.22,0.146,0.354S4.123,3.761,4.028,3.855
		C3.934,3.95,3.808,4.002,3.675,4.002z"/>
	<path d="M15.676,4c-0.134,0-0.259-0.052-0.354-0.146s-0.146-0.22-0.146-0.354s0.052-0.259,0.146-0.354l1-1
		C16.417,2.052,16.542,2,16.676,2s0.259,0.052,0.354,0.146s0.146,0.22,0.146,0.354s-0.052,0.259-0.146,0.354l-1,1
		C15.935,3.948,15.809,4,15.676,4z"/>
	<path d="M0.676,10c-0.276,0-0.5-0.224-0.5-0.5S0.4,9,0.676,9h1c0.276,0,0.5,0.224,0.5,0.5S1.951,10,1.676,10H0.676z"/>
	<path d="M4.01,11.959c-0.212,0-0.401-0.134-0.472-0.334C3.297,10.941,3.175,10.226,3.176,9.5c0.002-1.853,0.798-3.622,2.184-4.852
		C6.55,3.59,8.08,3.007,9.667,3.007c0.13,0,0.262,0.004,0.393,0.012c1.733,0.103,3.323,0.874,4.476,2.172
		c0.183,0.206,0.164,0.523-0.042,0.706c-0.092,0.081-0.209,0.126-0.332,0.126c-0.143,0-0.279-0.061-0.374-0.167
		c-0.976-1.099-2.321-1.751-3.787-1.838c-0.11-0.006-0.22-0.01-0.33-0.01c-1.345,0-2.64,0.493-3.648,1.388
		C4.851,6.436,4.178,7.933,4.176,9.501c-0.001,0.612,0.102,1.215,0.306,1.792c0.091,0.26-0.046,0.546-0.306,0.638
		C4.122,11.95,4.066,11.959,4.01,11.959z"/>
	<path d="M14.676,24c-0.276,0-0.5-0.224-0.5-0.5V19h-2v4.5c0,0.276-0.224,0.5-0.5,0.5s-0.5-0.224-0.5-0.5V19h-7.65
		c-0.551,0-1-0.448-1-1c0-0.17,0.044-0.338,0.126-0.486l4.444-8C7.272,9.197,7.607,9,7.97,9h10.412c0.363,0,0.698,0.197,0.874,0.514
		l4.444,8c0.13,0.233,0.161,0.503,0.087,0.76c-0.073,0.256-0.242,0.469-0.475,0.599C23.163,18.957,22.995,19,22.826,19h-7.65v4.5
		C15.176,23.776,14.951,24,14.676,24z M22.826,18l-1.111-2h-4.582l0.444,2H22.826z M16.552,18l-0.444-2h-5.865l-0.444,2H16.552z
		 M3.526,18l5.249,0l0.445-2H4.637L3.526,18z M21.159,15l-1.111-2h-3.582L21.159,15z M15.886,15l-0.444-2H10.91L15.886,15z
		 M9.441,15l0.444-2H6.303l-1.111,2H9.441z M19.493,12l-1.111-2l-2.583,0l0.444,2H19.493z M15.219,12l-0.444-2h-3.198l-0.445,2
		H15.219z M10.108,12l0.444-2L7.97,10l-1.111,2H10.108z"/>
</g>
</svg>
