<?xml version="1.0" encoding="utf-8"?>
<!-- Generator: Adobe Illustrator 22.1.0, SVG Export Plug-In . SVG Version: 6.00 Build 0)  -->
<svg version="1.1" id="Layer_1" xmlns="http://www.w3.org/2000/svg" xmlns:xlink="http://www.w3.org/1999/xlink" x="0px" y="0px"
	 viewBox="0 0 24 24" style="enable-background:new 0 0 24 24;" xml:space="preserve">
<g>
	<title>rotate-horizontal</title>
	<path d="M7.5,24C7.224,24,7,23.776,7,23.5v-1C7,22.224,7.224,22,7.5,22S8,22.224,8,22.5V23h0.5C8.776,23,9,23.224,9,23.5
		S8.776,24,8.5,24H7.5z"/>
	<path d="M22.5,24c-0.276,0-0.5-0.224-0.5-0.5s0.224-0.5,0.5-0.5H23v-0.5c0-0.276,0.224-0.5,0.5-0.5s0.5,0.224,0.5,0.5v1
		c0,0.276-0.224,0.5-0.5,0.5H22.5z"/>
	<path d="M10.5,24c-0.276,0-0.5-0.224-0.5-0.5s0.224-0.5,0.5-0.5h1c0.276,0,0.5,0.224,0.5,0.5S11.776,24,11.5,24H10.5z"/>
	<path d="M13.5,24c-0.276,0-0.5-0.224-0.5-0.5s0.224-0.5,0.5-0.5h1c0.276,0,0.5,0.224,0.5,0.5S14.776,24,14.5,24H13.5z"/>
	<path d="M16.5,24c-0.276,0-0.5-0.224-0.5-0.5s0.224-0.5,0.5-0.5h1c0.276,0,0.5,0.224,0.5,0.5S17.776,24,17.5,24H16.5z"/>
	<path d="M19.5,24c-0.276,0-0.5-0.224-0.5-0.5s0.224-0.5,0.5-0.5h1c0.276,0,0.5,0.224,0.5,0.5S20.776,24,20.5,24H19.5z"/>
	<path d="M23.5,15c-0.276,0-0.5-0.224-0.5-0.5V14h-0.5c-0.276,0-0.5-0.224-0.5-0.5s0.224-0.5,0.5-0.5h1c0.276,0,0.5,0.224,0.5,0.5v1
		C24,14.776,23.776,15,23.5,15z"/>
	<path d="M7.5,18C7.224,18,7,17.776,7,17.5V17H0.5C0.224,17,0,16.776,0,16.5v-16C0,0.224,0.224,0,0.5,0h10C10.776,0,11,0.224,11,0.5
		V13h0.5c0.276,0,0.5,0.224,0.5,0.5S11.776,14,11.5,14H11v2.5c0,0.276-0.224,0.5-0.5,0.5H8v0.5C8,17.776,7.776,18,7.5,18z M10,16V1
		H1v15H10z"/>
	<path d="M13.5,14c-0.276,0-0.5-0.224-0.5-0.5s0.224-0.5,0.5-0.5h1c0.276,0,0.5,0.224,0.5,0.5S14.776,14,14.5,14H13.5z"/>
	<path d="M16.5,14c-0.276,0-0.5-0.224-0.5-0.5s0.224-0.5,0.5-0.5h1c0.276,0,0.5,0.224,0.5,0.5S17.776,14,17.5,14H16.5z"/>
	<path d="M19.5,14c-0.276,0-0.5-0.224-0.5-0.5s0.224-0.5,0.5-0.5h1c0.276,0,0.5,0.224,0.5,0.5S20.776,14,20.5,14H19.5z"/>
	<path d="M23.5,18c-0.276,0-0.5-0.224-0.5-0.5v-1c0-0.276,0.224-0.5,0.5-0.5s0.5,0.224,0.5,0.5v1C24,17.776,23.776,18,23.5,18z"/>
	<path d="M23.5,21c-0.276,0-0.5-0.224-0.5-0.5v-1c0-0.276,0.224-0.5,0.5-0.5s0.5,0.224,0.5,0.5v1C24,20.776,23.776,21,23.5,21z"/>
	<path d="M7.5,21C7.224,21,7,20.776,7,20.5v-1C7,19.224,7.224,19,7.5,19S8,19.224,8,19.5v1C8,20.776,7.776,21,7.5,21z"/>
	<path d="M20.5,12c-0.066,0-0.13-0.013-0.191-0.038c-0.061-0.025-0.116-0.062-0.162-0.108l-3-3C17.052,8.759,17,8.634,17,8.5
		s0.052-0.259,0.146-0.354S17.366,8,17.5,8s0.259,0.052,0.354,0.146L20,10.293V7.5C20,5.57,18.43,4,16.5,4h-2.796l2.146,2.146
		c0.094,0.094,0.146,0.22,0.146,0.354s-0.052,0.259-0.146,0.354S15.631,7,15.497,7s-0.259-0.052-0.354-0.146l-3-3
		c-0.094-0.094-0.146-0.22-0.146-0.354s0.052-0.259,0.146-0.354l3-3C15.238,0.052,15.364,0,15.497,0s0.259,0.052,0.354,0.146
		s0.146,0.22,0.146,0.354s-0.052,0.259-0.146,0.354L13.704,3H16.5C18.981,3,21,5.019,21,7.5v2.793l2.146-2.146
		C23.241,8.052,23.366,8,23.5,8s0.259,0.052,0.354,0.146S24,8.366,24,8.5s-0.052,0.259-0.146,0.354l-3,3
		c-0.047,0.047-0.101,0.083-0.163,0.109C20.63,11.987,20.566,12,20.5,12z"/>
</g>
</svg>
