<?xml version="1.0" encoding="utf-8"?>
<!-- Generator: Adobe Illustrator 22.1.0, SVG Export Plug-In . SVG Version: 6.00 Build 0)  -->
<svg version="1.1" id="Light" xmlns="http://www.w3.org/2000/svg" xmlns:xlink="http://www.w3.org/1999/xlink" x="0px" y="0px"
	 viewBox="0 0 24 24" style="enable-background:new 0 0 24 24;" xml:space="preserve">
<g>
	<title>ping-pong-paddle</title>
	<path d="M3.76,23.998c-0.401,0-0.778-0.156-1.061-0.439l-1.414-1.414c-0.585-0.585-0.585-1.536,0-2.121l4.13-4.13
		c-1.365-2.388-1.63-5.235-0.725-7.843c0.07-0.201,0.26-0.336,0.473-0.336c0.056,0,0.111,0.009,0.164,0.028
		c0.126,0.044,0.227,0.134,0.286,0.254c0.058,0.12,0.066,0.256,0.022,0.382C5.537,8.663,5.452,8.962,5.381,9.271l10.193,10.193
		c2.205-0.508,4.082-1.842,5.286-3.758c1.209-1.922,1.597-4.2,1.093-6.413s-1.84-4.099-3.762-5.307
		c-1.349-0.849-2.914-1.297-4.525-1.297c-1.622,0-3.196,0.454-4.551,1.313c-0.08,0.051-0.173,0.078-0.267,0.078
		c-0.172,0-0.331-0.087-0.423-0.233c-0.147-0.233-0.078-0.542,0.155-0.69c1.515-0.96,3.274-1.468,5.086-1.468
		c1.8,0,3.549,0.501,5.057,1.45c2.148,1.351,3.642,3.458,4.205,5.932c0.564,2.474,0.13,5.02-1.221,7.168
		c-1.351,2.148-3.458,3.642-5.932,4.205c-0.047,0.011-0.093,0.02-0.14,0.029l-0.061,0.012c-0.026,0.008-0.048,0.01-0.061,0.012
		c-0.617,0.123-1.246,0.185-1.869,0.185c0,0,0,0,0,0c-1.641,0-3.258-0.433-4.692-1.253l-4.13,4.131
		C4.538,23.843,4.161,23.998,3.76,23.998z M5.192,10.496c-0.147,1.82,0.299,3.652,1.277,5.211c0.125,0.199,0.096,0.453-0.07,0.619
		l-4.406,4.406c-0.094,0.094-0.146,0.22-0.146,0.354c0,0.134,0.052,0.259,0.146,0.353l1.414,1.414
		c0.094,0.094,0.22,0.146,0.354,0.146c0.134,0,0.259-0.052,0.353-0.146l4.406-4.407c0.094-0.094,0.219-0.147,0.353-0.147
		c0.094,0,0.186,0.027,0.266,0.077c1.358,0.854,2.916,1.306,4.505,1.306c0.234,0,0.469-0.01,0.704-0.029L5.192,10.496z"/>
	<path d="M4.346,6.999c-1.93,0-3.5-1.57-3.5-3.5s1.57-3.5,3.5-3.5s3.5,1.57,3.5,3.5S6.276,6.999,4.346,6.999z M4.346,0.999
		c-1.379,0-2.5,1.121-2.5,2.5s1.121,2.5,2.5,2.5s2.5-1.121,2.5-2.5S5.725,0.999,4.346,0.999z"/>
</g>
</svg>
