<?xml version="1.0" encoding="utf-8"?>
<!-- Generator: Adobe Illustrator 22.1.0, SVG Export Plug-In . SVG Version: 6.00 Build 0)  -->
<svg version="1.1" id="Light" xmlns="http://www.w3.org/2000/svg" xmlns:xlink="http://www.w3.org/1999/xlink" x="0px" y="0px"
	 viewBox="0 0 24 24" style="enable-background:new 0 0 24 24;" xml:space="preserve">
<g>
	<title>ping-pong-player</title>
	<path d="M10.999,6.245c-1.654,0-3-1.346-3-3s1.346-3,3-3s3,1.346,3,3S12.654,6.245,10.999,6.245z M10.999,1.245
		c-1.103,0-2,0.897-2,2s0.897,2,2,2s2-0.897,2-2S12.102,1.245,10.999,1.245z"/>
	<path d="M9.986,23.781c-0.231,0-0.459-0.04-0.677-0.119c-0.503-0.181-0.904-0.548-1.131-1.031
		c-0.227-0.483-0.252-1.026-0.071-1.529l0.844-2.532l-1.414-0.424L5.29,22.641c-0.341,0.682-1.028,1.105-1.792,1.105
		c-0.312,0-0.612-0.071-0.892-0.211c-0.987-0.493-1.388-1.697-0.895-2.684l5.053-10.105H5.161l-1.428,2.493
		c-0.016,0.032-0.045,0.083-0.076,0.132c-0.368,0.582-1.001,0.929-1.693,0.929c-0.378,0-0.746-0.107-1.066-0.309
		c-0.452-0.285-0.765-0.729-0.882-1.251c-0.117-0.521-0.025-1.057,0.261-1.508l1.409-2.469C2.398,7.521,3.729,6.749,5.16,6.746h4.84
		c0.475,0.012,0.932,0.18,1.292,0.473l1.939,1.661l0.708-0.886c0.381-0.475,0.95-0.748,1.562-0.748c0.321,0,0.634,0.076,0.916,0.221
		l0.427-0.522c-0.708-0.948-0.587-2.424,0.319-3.531c0.629-0.769,1.532-1.228,2.417-1.228c0.537,0,1.027,0.169,1.417,0.488
		c1.067,0.873,1.083,2.625,0.037,3.905c-0.629,0.769-1.533,1.228-2.417,1.228c-0.355,0-0.698-0.077-1.002-0.225L17.16,8.138
		c0.467,0.713,0.434,1.668-0.104,2.345l-0.709,0.886c-0.673,0.839-1.672,1.38-2.742,1.485c-0.127,0.013-0.257,0.019-0.385,0.019
		c0,0,0,0,0,0c-0.945,0-1.86-0.337-2.578-0.949L9.351,14.51l0.75,0.228c0.039,0.012,0.078,0.024,0.117,0.037
		c1.013,0.338,1.834,1.051,2.312,2.007c0.478,0.956,0.554,2.041,0.215,3.054c0,0-0.864,2.593-0.875,2.623
		C11.584,23.25,10.827,23.781,9.986,23.781z M9.052,21.43c-0.094,0.261-0.082,0.534,0.031,0.776
		c0.114,0.242,0.314,0.425,0.566,0.516c0.109,0.039,0.223,0.059,0.338,0.059c0.421,0,0.8-0.266,0.942-0.661l0.867-2.601
		c0.254-0.76,0.196-1.573-0.161-2.291c-0.358-0.717-0.974-1.251-1.734-1.505c-0.03-0.01-0.06-0.019-0.09-0.028l-1.318-0.4
		c-0.141-0.043-0.256-0.146-0.314-0.281c-0.058-0.135-0.054-0.289,0.012-0.421l1.843-3.687c0.069-0.138,0.196-0.235,0.347-0.266
		c0.034-0.007,0.067-0.01,0.1-0.01c0.119,0,0.234,0.042,0.324,0.119l0.47,0.4c0.541,0.467,1.233,0.724,1.948,0.724
		c0.095,0,0.19-0.005,0.285-0.014c0.803-0.079,1.553-0.485,2.059-1.115l0.708-0.885c0.3-0.378,0.28-0.923-0.043-1.284
		c-0.015-0.008-0.031-0.019-0.048-0.033c-0.036-0.03-0.069-0.065-0.096-0.105c-0.171-0.125-0.374-0.191-0.587-0.191
		c-0.306,0-0.591,0.136-0.781,0.374l-0.708,0.886c-0.168,0.21-0.418,0.345-0.686,0.37c-0.032,0.003-0.061,0.004-0.089,0.004
		c-0.242,0-0.467-0.082-0.652-0.236l-1.933-1.657c-0.182-0.147-0.42-0.234-0.665-0.241l-4.826,0
		C4.087,7.748,3.088,8.328,2.554,9.259l-1.42,2.488c-0.155,0.245-0.202,0.509-0.142,0.774c0.059,0.26,0.215,0.483,0.441,0.626
		c0.16,0.101,0.344,0.155,0.533,0.155c0.346,0,0.663-0.174,0.847-0.465c0.016-0.025,0.031-0.051,0.044-0.077l1.435-2.508
		C4.468,9.94,4.801,9.746,5.16,9.746h2.413c0.174,0,0.333,0.089,0.425,0.237c0.092,0.149,0.1,0.33,0.022,0.486L2.606,21.299
		c-0.247,0.493-0.046,1.095,0.447,1.342c0.14,0.07,0.29,0.105,0.445,0.105c0.383,0,0.726-0.212,0.897-0.553l2.436-4.872
		c0.085-0.17,0.257-0.276,0.447-0.276c0.048,0,0.096,0.007,0.143,0.021l1.816,0.544c0.255,0.076,0.466,0.247,0.593,0.482
		c0.127,0.235,0.156,0.505,0.08,0.761c0,0,0,0,0,0C9.91,18.853,9.052,21.43,9.052,21.43z M19.574,3.185
		c-0.584,0-1.196,0.323-1.639,0.864c-0.698,0.854-0.745,1.974-0.105,2.498c0.212,0.173,0.485,0.265,0.789,0.265
		c0.584,0,1.196-0.323,1.639-0.864c0.698-0.854,0.745-1.974,0.105-2.498C20.15,3.276,19.877,3.185,19.574,3.185z"/>
	<path d="M16.5,23.745c-0.276,0-0.5-0.224-0.5-0.5v-8h-1c-0.276,0-0.5-0.224-0.5-0.5s0.224-0.5,0.5-0.5h8.5
		c0.276,0,0.5,0.224,0.5,0.5s-0.224,0.5-0.5,0.5H17v8C17,23.521,16.776,23.745,16.5,23.745z"/>
	<path d="M20.749,10.75c-0.414,0-0.75-0.336-0.75-0.75c0-0.011,0.001-0.024,0.003-0.036c0.006-0.388,0.341-0.718,0.749-0.718
		c0.037,0,0.066,0.007,0.084,0.011C21.215,9.3,21.499,9.616,21.499,10c0,0.001,0,0.003,0,0.004
		c-0.005,0.377-0.297,0.695-0.668,0.736C20.812,10.744,20.784,10.75,20.749,10.75z"/>
</g>
</svg>
