<?xml version="1.0" encoding="utf-8"?>
<!-- Generator: Adobe Illustrator 22.1.0, SVG Export Plug-In . SVG Version: 6.00 Build 0)  -->
<svg version="1.1" id="Light" xmlns="http://www.w3.org/2000/svg" xmlns:xlink="http://www.w3.org/1999/xlink" x="0px" y="0px"
	 viewBox="0 0 24 24" style="enable-background:new 0 0 24 24;" xml:space="preserve">
<g>
	<title>tennis-ball</title>
	<path d="M4.874,19.494c-0.114,0-0.225-0.04-0.314-0.111c-0.104-0.084-0.169-0.203-0.183-0.336
		c-0.014-0.133,0.024-0.263,0.109-0.367c1.513-1.871,2.404-4.226,2.509-6.63c0.007-2.167-0.602-4.294-1.762-6.143
		C5.086,5.672,5.157,5.363,5.39,5.216C5.47,5.166,5.562,5.14,5.656,5.14c0.173,0,0.332,0.088,0.424,0.234
		C7.34,7.384,8.002,9.7,7.994,12.073c-0.115,2.633-1.084,5.199-2.731,7.236C5.167,19.426,5.026,19.494,4.874,19.494z"/>
	<path d="M19.126,19.494c-0.152,0-0.294-0.068-0.389-0.186c-1.647-2.037-2.617-4.599-2.731-7.216
		c-0.009-2.389,0.653-4.709,1.915-6.72c0.092-0.147,0.25-0.234,0.424-0.234c0.094,0,0.186,0.026,0.265,0.076
		c0.113,0.071,0.192,0.182,0.222,0.312c0.03,0.13,0.007,0.264-0.064,0.378c-1.161,1.849-1.77,3.981-1.762,6.164
		c0.104,2.388,0.995,4.739,2.509,6.61c0.084,0.104,0.123,0.234,0.109,0.367c-0.014,0.133-0.079,0.252-0.183,0.336
		C19.351,19.455,19.24,19.494,19.126,19.494z"/>
	<path d="M12,24c-3.188,0-6.189-1.24-8.455-3.493c-0.009-0.005-0.029-0.02-0.049-0.041c-0.01-0.01-0.024-0.029-0.036-0.046
		C1.228,18.158,0,15.169,0,12c0-3.316,1.329-6.403,3.743-8.696c0.016-0.023,0.035-0.05,0.064-0.076
		C3.831,3.208,3.853,3.194,3.87,3.184C6.095,1.13,8.981,0,12,0c3.018,0,5.904,1.13,8.129,3.183c0.018,0.01,0.042,0.025,0.066,0.047
		c0.031,0.028,0.052,0.057,0.066,0.079C22.672,5.601,24,8.686,24,12c0,3.158-1.221,6.14-3.441,8.4
		c-0.011,0.019-0.027,0.042-0.049,0.065c-0.026,0.026-0.051,0.043-0.069,0.055C18.177,22.765,15.18,24,12,24z M4.572,20.102
		C6.609,21.973,9.237,23,12,23c2.764,0,5.393-1.028,7.431-2.9c-0.088-0.096-0.134-0.22-0.13-0.35
		c0.004-0.134,0.059-0.258,0.156-0.35c0.094-0.088,0.216-0.137,0.344-0.137c0.124,0,0.244,0.047,0.335,0.129
		C21.984,17.36,23,14.745,23,12c0-2.886-1.106-5.598-3.121-7.665c-0.093,0.09-0.217,0.141-0.348,0.141
		c-0.117,0-0.231-0.042-0.321-0.117c-0.211-0.177-0.239-0.493-0.062-0.704c0.001-0.001,0.002-0.003,0.004-0.004
		C17.156,1.939,14.627,1,12,1C9.373,1,6.844,1.939,4.849,3.65C4.85,3.652,4.851,3.653,4.853,3.655
		c0.086,0.102,0.126,0.232,0.114,0.365C4.955,4.152,4.892,4.273,4.79,4.359C4.7,4.434,4.586,4.475,4.469,4.475
		c-0.131,0-0.255-0.051-0.348-0.141C2.106,6.402,1,9.114,1,12c0,2.746,1.016,5.362,2.867,7.394c0.092-0.084,0.213-0.131,0.338-0.131
		c0.129,0,0.252,0.049,0.345,0.138c0.097,0.092,0.152,0.216,0.155,0.35C4.708,19.882,4.661,20.006,4.572,20.102z"/>
</g>
</svg>
