<?xml version="1.0" encoding="utf-8"?>
<!-- Generator: Adobe Illustrator 22.1.0, SVG Export Plug-In . SVG Version: 6.00 Build 0)  -->
<svg version="1.1" id="Light" xmlns="http://www.w3.org/2000/svg" xmlns:xlink="http://www.w3.org/1999/xlink" x="0px" y="0px"
	 viewBox="0 0 24 24" style="enable-background:new 0 0 24 24;" xml:space="preserve">
<g>
	<title>tennis-racquet</title>
	<path d="M1.78,23.801c-0.401,0-0.777-0.156-1.06-0.438c-0.586-0.585-0.586-1.537-0.002-2.123l2.829-2.829
		c0.189-0.189,0.44-0.292,0.707-0.292c0.234,0,0.455,0.08,0.633,0.226l2.742-2.744c0.555-1.837,0.945-3.732,1.16-5.632
		c-0.1-0.572-0.128-1.168-0.085-1.771c0.062-0.874,0.273-1.74,0.625-2.574c-0.009-0.142,0.041-0.279,0.142-0.38
		c0.016-0.016,0.032-0.03,0.049-0.042c0.433-0.888,1.016-1.701,1.733-2.418c1.628-1.628,3.796-2.562,5.949-2.562
		c0.567,0,1.126,0.065,1.66,0.194c0.04,0.006,0.076,0.015,0.109,0.028c1.122,0.29,2.094,0.839,2.889,1.634
		c1.332,1.332,1.987,3.176,1.843,5.192c-0.142,1.989-1.048,3.912-2.549,5.413c-0.717,0.718-1.531,1.301-2.418,1.734
		c-0.012,0.016-0.026,0.033-0.042,0.049c-0.094,0.094-0.22,0.146-0.354,0.146c-0.012,0-0.023-0.001-0.034-0.002
		c-0.832,0.351-1.695,0.56-2.567,0.623c-0.183,0.013-0.366,0.02-0.544,0.02c-0.412,0-0.823-0.035-1.224-0.105
		c-1.902,0.217-3.797,0.607-5.635,1.16l-2.739,2.74l0.071,0.071c0.39,0.39,0.39,1.024,0,1.414l-2.828,2.828
		C2.559,23.645,2.182,23.801,1.78,23.801z M1.426,21.947c-0.195,0.195-0.194,0.513,0.001,0.708c0.094,0.094,0.22,0.146,0.354,0.146
		c0.134,0,0.26-0.052,0.354-0.146l2.828-2.828l-0.708-0.708L1.426,21.947z M9.506,12.007c-0.183,1.055-0.417,2.102-0.699,3.124
		c1.022-0.281,2.068-0.515,3.123-0.698c-0.507-0.281-0.97-0.63-1.383-1.043C10.136,12.978,9.787,12.515,9.506,12.007z M14.673,14.23
		c0.176,0.015,0.353,0.022,0.53,0.022c0.154,0,0.311-0.006,0.466-0.017c0.583-0.042,1.165-0.16,1.736-0.353l-1.194-1.194
		L14.673,14.23z M11.627,13.019c0.543,0.448,1.166,0.779,1.857,0.986l2.02-2.024l-1.42-1.42L11.627,13.019z M18.402,13.466
		c0.599-0.304,1.163-0.689,1.68-1.149l-1.751-1.751l-1.414,1.416L18.402,13.466z M9.946,10.499c0.208,0.674,0.535,1.282,0.974,1.814
		l2.458-2.458l-1.398-1.399L9.946,10.499z M20.79,11.61c0.459-0.518,0.844-1.081,1.148-1.68L20.45,8.443l-1.413,1.415L20.79,11.61z
		 M16.211,11.274l1.413-1.416L16.206,8.44l-1.415,1.415L16.211,11.274z M10.055,6.533C9.863,7.104,9.744,7.686,9.703,8.269
		c-0.025,0.354-0.022,0.704,0.01,1.047l1.559-1.566L10.055,6.533z M18.33,9.151l1.413-1.415l-1.417-1.416l-1.414,1.414L18.33,9.151z
		 M14.084,9.148l1.415-1.415L14.095,6.33l-1.411,1.418L14.084,9.148z M22.355,8.933c0.192-0.571,0.311-1.153,0.352-1.735
		c0.024-0.339,0.022-0.677-0.007-1.008l-1.543,1.546L22.355,8.933z M11.977,7.04l1.411-1.418L11.62,3.855
		c-0.459,0.518-0.845,1.081-1.148,1.68L11.977,7.04z M20.449,7.028l2.024-2.028c-0.207-0.687-0.537-1.306-0.983-1.845l-2.457,2.457
		L20.449,7.028z M16.206,7.026l1.414-1.414l-1.408-1.408l-1.41,1.417L16.206,7.026z M14.094,4.914l1.41-1.417L14.01,2.004
		c-0.6,0.303-1.164,0.687-1.682,1.145L14.094,4.914z M18.327,4.906l2.452-2.452c-0.543-0.448-1.162-0.778-1.845-0.984l-2.017,2.026
		L18.327,4.906z M16.209,2.789l1.538-1.545c-0.182-0.016-0.363-0.025-0.542-0.025c-0.732,0-1.47,0.124-2.197,0.369L16.209,2.789z"/>
	<path d="M4.169,6.77c-1.654,0-3-1.346-3-3s1.346-3,3-3s3,1.346,3,3S5.824,6.77,4.169,6.77z M4.169,1.77c-1.103,0-2,0.897-2,2
		s0.897,2,2,2s2-0.897,2-2S5.272,1.77,4.169,1.77z"/>
</g>
</svg>
