<?xml version="1.0" encoding="utf-8"?>
<!-- Generator: Adobe Illustrator 22.1.0, SVG Export Plug-In . SVG Version: 6.00 Build 0)  -->
<svg version="1.1" id="Light" xmlns="http://www.w3.org/2000/svg" xmlns:xlink="http://www.w3.org/1999/xlink" x="0px" y="0px"
	 viewBox="0 0 24 24" style="enable-background:new 0 0 24 24;" xml:space="preserve">
<g>
	<title>tennis-backhand</title>
	<path d="M8.251,6c-1.654,0-3-1.346-3-3s1.346-3,3-3s3,1.346,3,3S9.905,6,8.251,6z M8.251,1c-1.103,0-2,0.897-2,2s0.897,2,2,2
		s2-0.897,2-2S9.354,1,8.251,1z"/>
	<path d="M10.748,24c-1.03-0.002-1.884-0.776-1.986-1.801l-0.3-3.018c-0.04-0.401-0.316-0.737-0.701-0.855l-0.38-0.117
		c0.081,0.836-0.048,1.677-0.379,2.453l-0.91,2.126c-0.33,0.717-1.045,1.176-1.823,1.176c-0.255,0-0.504-0.048-0.742-0.144
		c-1.024-0.41-1.523-1.577-1.113-2.601l0.915-2.138c0.122-0.287,0.103-0.62-0.05-0.892l-1.259-2.198
		c-0.266-0.465-0.334-1.027-0.187-1.542l2-7C3.925,7.126,4.099,6.829,4.337,6.59C4.714,6.212,5.215,6.003,5.75,6.002
		c0.537,0,1.038,0.207,1.415,0.583l2.883,2.887c0.134,0.132,0.303,0.224,0.489,0.265l3.525,0.784l0.562-0.92l0.801-5.064
		c-0.077-0.86,0.141-1.761,0.617-2.539c0.521-0.853,1.293-1.487,2.173-1.786c0.358-0.122,0.721-0.184,1.077-0.184
		c0.539,0,1.062,0.145,1.511,0.42c1.531,0.936,1.887,3.154,0.794,4.944c-0.484,0.792-1.197,1.403-2.01,1.722l-4.11,3.007
		l-0.48,0.786c0.647,0.479,0.951,1.309,0.747,2.104c-0.228,0.884-1.025,1.501-1.939,1.501c0,0,0,0,0,0
		c-0.167,0-0.334-0.021-0.497-0.063l-3.631-0.807c-0.93-0.207-1.778-0.672-2.451-1.346l-0.479-0.479l-0.531,1.848l2.72,0.835
		c1.93,0.593,3.305,2.273,3.504,4.282l0.3,3.018c0.053,0.531-0.104,1.051-0.442,1.465s-0.817,0.671-1.349,0.724
		C10.89,23.996,10.823,24,10.756,24H10.748z M6.741,16.988c0.049,0,0.098,0.007,0.146,0.022l1.167,0.359
		c0.771,0.237,1.322,0.909,1.403,1.712l0.3,3.018c0.051,0.512,0.478,0.9,0.993,0.9c0.034,0,0.062-0.001,0.094-0.005
		c0.271-0.027,0.512-0.156,0.681-0.363c0.169-0.207,0.248-0.467,0.221-0.733l-0.3-3.019c-0.159-1.606-1.259-2.951-2.802-3.424
		l-3.189-0.979c-0.259-0.08-0.409-0.356-0.334-0.616l0.9-3.135c0.049-0.169,0.185-0.302,0.355-0.346
		c0.041-0.01,0.083-0.016,0.125-0.016c0.131,0,0.26,0.053,0.354,0.146l1.079,1.079c0.539,0.539,1.217,0.911,1.961,1.076l3.647,0.811
		c0.093,0.024,0.179,0.035,0.264,0.035c0.458,0,0.856-0.308,0.97-0.75c0.127-0.494-0.139-1-0.62-1.18
		c-0.018-0.005-0.035-0.012-0.053-0.02c-0.002,0-0.017-0.006-0.033-0.013c-0.035-0.011-0.057-0.016-0.08-0.02
		c-0.021-0.004-0.043-0.01-0.064-0.016l-3.604-0.801c-0.37-0.081-0.709-0.265-0.979-0.533L6.458,7.292
		C6.273,7.108,6.025,7.001,5.779,7.001c-0.002,0-0.025,0-0.027,0c-0.267,0-0.518,0.105-0.707,0.294
		C4.926,7.415,4.839,7.564,4.793,7.725l-2,6.999c-0.073,0.258-0.039,0.539,0.093,0.771l1.26,2.199
		c0.307,0.543,0.345,1.208,0.101,1.78l-0.911,2.128c-0.096,0.24-0.092,0.509,0.014,0.754c0.106,0.246,0.3,0.436,0.547,0.535
		c0.12,0.048,0.245,0.073,0.372,0.073c0.389,0,0.745-0.229,0.908-0.582l0.904-2.114c0.355-0.833,0.419-1.773,0.178-2.646
		c-0.049-0.176,0.002-0.364,0.133-0.491C6.487,17.038,6.61,16.988,6.741,16.988z M15.785,8.657l1.878-1.375
		c-0.292-0.069-0.569-0.182-0.829-0.341c-0.26-0.159-0.49-0.356-0.685-0.59L15.785,8.657z M16.431,4.575
		c0.091,0.668,0.419,1.204,0.925,1.514c0.296,0.181,0.63,0.273,0.991,0.273c0.246,0,0.498-0.043,0.751-0.129l0.007-0.005
		c0.065-0.048,0.14-0.077,0.224-0.088c0.565-0.25,1.065-0.7,1.413-1.269c0.395-0.646,0.56-1.378,0.465-2.061
		c-0.093-0.664-0.421-1.2-0.927-1.509c-0.296-0.181-0.63-0.273-0.991-0.273c-0.247,0-0.5,0.044-0.754,0.13
		c-0.659,0.224-1.242,0.707-1.641,1.361c-0.343,0.561-0.515,1.205-0.486,1.816c0.027,0.079,0.035,0.157,0.023,0.234L16.431,4.575z"
		/>
	<path d="M20.251,16.5c-1.103,0-2-0.897-2-2s0.897-2,2-2s2,0.897,2,2S21.354,16.5,20.251,16.5z M20.251,13.5c-0.552,0-1,0.448-1,1
		s0.448,1,1,1s1-0.448,1-1S20.803,13.5,20.251,13.5z"/>
</g>
</svg>
