<?xml version="1.0" encoding="utf-8"?>
<!-- Generator: Adobe Illustrator 22.1.0, SVG Export Plug-In . SVG Version: 6.00 Build 0)  -->
<svg version="1.1" id="Light" xmlns="http://www.w3.org/2000/svg" xmlns:xlink="http://www.w3.org/1999/xlink" x="0px" y="0px"
	 viewBox="0 0 24 24" style="enable-background:new 0 0 24 24;" xml:space="preserve">
<g>
	<title>american-football-ball</title>
	<path d="M21.478,19.026c-0.276,0-0.5-0.224-0.5-0.5v-4.5c0-0.552,0.448-1,1-1v-2h-9v2c0.552,0,1,0.448,1,1v4.5
		c0,0.276-0.224,0.5-0.5,0.5h-2c-0.276,0-0.5-0.224-0.5-0.5v-4.5c0-0.552,0.449-1,1-1v-12.5c0-0.276,0.224-0.5,0.5-0.5
		c0.276,0,0.5,0.224,0.5,0.5v9.5h9v-9.5c0-0.276,0.224-0.5,0.5-0.5s0.5,0.224,0.5,0.5v12.5c0.552,0,1,0.448,1,1v4.5
		c0,0.276-0.224,0.5-0.5,0.5H21.478z M22.978,18.026v-4h-1l0,4H22.978z M12.978,18.026v-4h-1l0,4H12.978z"/>
	<path d="M4.335,23.973c-2.469-0.063-4.402-3.028-4.31-6.608c0.09-3.518,2.133-6.379,4.553-6.379c0.03,0,0.06,0,0.089,0.001
		c1.234,0.032,2.362,0.764,3.176,2.062c0.773,1.234,1.175,2.848,1.131,4.546c-0.09,3.518-2.136,6.379-4.56,6.379L4.335,23.973z
		 M3.857,22.901c0.167,0.044,0.336,0.068,0.502,0.073l0.057,0.001c0.14,0,0.282-0.014,0.425-0.042
		c1.479-3.498,1.439-7.469-0.109-10.938c-0.03-0.003-0.06-0.005-0.09-0.006l-0.036,0c-0.03,0-0.06,0.001-0.09,0.002
		C2.791,15.374,2.553,19.336,3.857,22.901z M6.01,12.488c1.166,3.148,1.223,6.552,0.163,9.734c1.052-0.96,1.752-2.72,1.802-4.652
		c0.038-1.504-0.309-2.92-0.979-3.989C6.71,13.125,6.376,12.756,6.01,12.488z M3.201,12.443c-1.254,0.848-2.12,2.763-2.176,4.948
		c-0.049,1.906,0.547,3.684,1.528,4.704C1.665,18.884,1.891,15.509,3.201,12.443z"/>
</g>
</svg>
