<?xml version="1.0" encoding="utf-8"?>
<!-- Generator: Adobe Illustrator 22.1.0, SVG Export Plug-In . SVG Version: 6.00 Build 0)  -->
<svg version="1.1" id="Light" xmlns="http://www.w3.org/2000/svg" xmlns:xlink="http://www.w3.org/1999/xlink" x="0px" y="0px"
	 viewBox="0 0 24 24" style="enable-background:new 0 0 24 24;" xml:space="preserve">
<g>
	<title>american-football-run-ball</title>
	<path d="M11.75,6c-1.654,0-3-1.346-3-3s1.346-3,3-3s3,1.346,3,3S13.405,6,11.75,6z M11.75,1c-1.103,0-2,0.897-2,2s0.897,2,2,2
		c1.103,0,2-0.897,2-2S12.853,1,11.75,1z"/>
	<path d="M6.749,24c-1.103,0-2-0.897-2-2v-1.648c-0.007-1.881,1.079-3.637,2.766-4.473l2.242-1.117v-2.934l-0.612,0.186
		c-0.474,0.145-0.965,0.218-1.46,0.218c-0.938,0-1.855-0.263-2.651-0.761L2.19,9.696C1.736,9.413,1.421,8.971,1.3,8.45
		C1.18,7.93,1.269,7.393,1.552,6.94c0.283-0.453,0.725-0.769,1.246-0.889C2.947,6.016,3.1,5.999,3.252,5.999
		c0.372,0,0.737,0.105,1.056,0.304l2.843,1.773C7.312,8.177,7.496,8.23,7.685,8.23c0.097,0,0.194-0.014,0.288-0.042l7.164-2.18
		c0.148-0.045,0.299-0.082,0.449-0.11c0.27-0.051,0.546-0.078,0.819-0.078c0.87,0,1.714,0.261,2.44,0.756
		c0.961,0.654,1.609,1.643,1.825,2.785c0.216,1.14-0.025,2.297-0.68,3.258c-0.655,0.961-1.643,1.61-2.783,1.826
		c-0.14,0.033-0.293,0.051-0.446,0.051c-0.899,0-1.689-0.612-1.923-1.489c-0.049-0.184-0.071-0.369-0.068-0.554
		c-0.238,0.032-0.479,0.048-0.718,0.048c-0.284,0-0.569-0.023-0.847-0.067c-0.264-0.042-0.495-0.185-0.651-0.402
		c-0.156-0.216-0.219-0.481-0.177-0.745c0.007-0.042,0.016-0.081,0.027-0.12c0.271-1.046,0.906-1.981,1.784-2.629
		c0.018-0.013,0.038-0.026,0.059-0.037c0.698-0.382,1.492-0.584,2.294-0.584c0.287,0,0.574,0.026,0.855,0.077
		c0.241,0.033,0.477,0.172,0.635,0.381c0.16,0.212,0.229,0.473,0.192,0.736c-0.006,0.048-0.018,0.101-0.033,0.152
		c-0.209,0.736-0.586,1.436-1.087,2.022c-0.067,0.079-0.157,0.135-0.259,0.16l-0.337,0.084c-0.252,0.067-0.467,0.232-0.601,0.463
		c-0.134,0.231-0.17,0.501-0.101,0.759c0.116,0.438,0.511,0.744,0.961,0.744c0.078,0,0.156-0.009,0.234-0.027
		c0.896-0.17,1.662-0.67,2.166-1.41c0.504-0.74,0.689-1.631,0.522-2.51c-0.167-0.879-0.666-1.641-1.405-2.144
		c-0.559-0.381-1.209-0.582-1.879-0.582c-0.21,0-0.422,0.02-0.631,0.059c-0.115,0.022-0.231,0.05-0.344,0.084L8.262,9.145
		C8.074,9.202,7.88,9.23,7.685,9.23c-0.377,0-0.746-0.106-1.065-0.307L3.779,7.151c-0.16-0.1-0.342-0.153-0.528-0.153
		c-0.076,0-0.152,0.009-0.227,0.026C2.763,7.085,2.542,7.243,2.4,7.47C2.259,7.696,2.214,7.964,2.274,8.225
		c0.06,0.26,0.218,0.481,0.445,0.623l2.845,1.775c0.637,0.399,1.371,0.609,2.121,0.609c0.396,0,0.789-0.059,1.168-0.174l1.258-0.383
		c0.047-0.014,0.096-0.022,0.146-0.022c0.106,0,0.212,0.035,0.298,0.098c0.127,0.094,0.202,0.244,0.202,0.402v3.918
		c0,0.191-0.106,0.363-0.277,0.448l-2.52,1.256c-1.349,0.668-2.216,2.072-2.211,3.576V22c0,0.552,0.449,1,1,1s1-0.448,1-1v-1.646
		c-0.003-0.752,0.431-1.455,1.107-1.79l2.639-1.319c0.069-0.034,0.146-0.053,0.223-0.053c0.083,0,0.166,0.021,0.239,0.061
		l2.995,1.634c0.579,0.314,1.239,0.48,1.907,0.48c0.963,0,1.891-0.339,2.614-0.955l1.928-1.652c0.208-0.174,0.334-0.416,0.357-0.682
		c0.023-0.266-0.059-0.525-0.23-0.73c-0.172-0.205-0.413-0.33-0.679-0.354c-0.029-0.002-0.059-0.004-0.088-0.004
		c-0.238,0-0.46,0.081-0.642,0.234l-1.95,1.671c-0.361,0.309-0.824,0.479-1.304,0.479c-0.333,0-0.663-0.083-0.954-0.242l-2.9-1.583
		c-0.161-0.088-0.26-0.256-0.26-0.439V14c0-0.276,0.224-0.5,0.5-0.5s0.5,0.224,0.5,0.5v0.813l2.64,1.441
		c0.144,0.079,0.309,0.12,0.475,0.12c0.24,0,0.472-0.085,0.653-0.24l1.957-1.677c0.361-0.302,0.815-0.468,1.281-0.468
		c0.059,0,0.119,0.002,0.179,0.008c0.532,0.047,1.014,0.298,1.358,0.707c0.344,0.409,0.507,0.927,0.46,1.46
		s-0.298,1.014-0.707,1.358l-1.925,1.65c-0.903,0.77-2.062,1.194-3.264,1.194c0,0,0,0,0,0c-0.834,0-1.658-0.208-2.384-0.601
		l-2.766-1.509l-2.407,1.203c-0.338,0.167-0.554,0.518-0.553,0.893V22C8.749,23.103,7.852,24,6.749,24z M14.754,9.363
		c-0.68,0.511-1.172,1.245-1.386,2.068c0.222,0.052,0.453,0.07,0.685,0.07c0.36,0,0.717-0.044,1.062-0.13
		c0.27-0.399,0.672-0.685,1.142-0.81l0.185-0.046c0.359-0.452,0.63-0.98,0.788-1.533C17,8.937,16.77,8.916,16.54,8.916
		C15.916,8.916,15.299,9.071,14.754,9.363z"/>
</g>
</svg>
