<?xml version="1.0" encoding="utf-8"?>
<!-- Generator: Adobe Illustrator 22.1.0, SVG Export Plug-In . SVG Version: 6.00 Build 0)  -->
<svg version="1.1" id="Light" xmlns="http://www.w3.org/2000/svg" xmlns:xlink="http://www.w3.org/1999/xlink" x="0px" y="0px"
	 viewBox="0 0 24 24" style="enable-background:new 0 0 24 24;" xml:space="preserve">
<g>
	<title>american-football-ball-1</title>
	<path d="M4.198,22.178c-0.367,0-0.7-0.014-0.988-0.043c-0.713-0.068-1.28-0.636-1.349-1.35c-0.258-2.642,0.606-9.864,4.851-14.11
		c3.59-3.591,9.258-4.865,13.021-4.865c0.391,0,0.749,0.016,1.064,0.046c0.713,0.069,1.281,0.636,1.35,1.35
		c0.271,2.75-0.55,9.812-4.82,14.081c-2.611,2.611-6.179,3.819-8.712,4.373l-0.031,0.006C7.05,21.998,5.501,22.178,4.198,22.178z
		 M3.123,16.55c-0.315,1.809-0.348,3.306-0.267,4.139c0.023,0.239,0.212,0.428,0.45,0.451c0.264,0.026,0.569,0.039,0.906,0.039
		c0.967,0,2.101-0.107,3.236-0.304L3.123,16.55z M8.627,20.638c2.359-0.539,5.613-1.678,7.993-4.058
		c2.07-2.07,3.176-4.831,3.745-6.832l-6.111-6.11C12.25,4.208,9.488,5.313,7.42,7.382c-2.379,2.379-3.519,5.632-4.059,7.99
		L8.627,20.638z M20.653,8.622c0.525-2.299,0.601-4.281,0.499-5.32c-0.023-0.239-0.212-0.429-0.45-0.451
		c-0.007-0.001-0.015-0.002-0.022-0.003c-0.277-0.024-0.569-0.036-0.891-0.036c-1.312,0-2.896,0.195-4.408,0.539L20.653,8.622z"/>
	<path d="M10.591,15.324c-0.134,0-0.259-0.052-0.354-0.146l-0.707-0.707l-0.707,0.707c-0.094,0.094-0.22,0.146-0.354,0.146
		s-0.259-0.052-0.354-0.146c-0.195-0.195-0.195-0.512,0-0.707l0.707-0.707l-0.707-0.707c-0.195-0.195-0.195-0.512,0-0.707
		c0.094-0.094,0.22-0.146,0.354-0.146s0.259,0.052,0.354,0.146l0.707,0.707l1.414-1.414l-0.707-0.708
		c-0.094-0.094-0.146-0.22-0.146-0.354c0-0.134,0.052-0.259,0.147-0.354c0.094-0.094,0.22-0.146,0.354-0.146
		s0.259,0.052,0.354,0.147l0.707,0.707l1.414-1.414l-0.707-0.707c-0.094-0.094-0.146-0.22-0.146-0.354
		c0-0.134,0.052-0.259,0.146-0.354s0.22-0.146,0.354-0.146s0.259,0.052,0.354,0.146l0.707,0.707l0.707-0.707
		c0.094-0.094,0.22-0.146,0.354-0.146s0.259,0.052,0.354,0.146c0.195,0.195,0.195,0.512,0,0.707L14.48,9.522l0.707,0.706
		c0.094,0.094,0.146,0.22,0.146,0.354c0,0.134-0.052,0.259-0.146,0.354s-0.22,0.146-0.354,0.146s-0.259-0.052-0.354-0.146
		l-0.707-0.706l-1.414,1.414l0.707,0.707c0.195,0.195,0.195,0.512,0,0.707c-0.094,0.094-0.22,0.146-0.354,0.146
		s-0.259-0.052-0.354-0.146l-0.707-0.707l-1.414,1.414l0.707,0.707c0.195,0.195,0.195,0.512,0,0.707
		C10.85,15.272,10.725,15.324,10.591,15.324z"/>
</g>
</svg>
