<?xml version="1.0" encoding="utf-8"?>
<!-- Generator: Adobe Illustrator 22.1.0, SVG Export Plug-In . SVG Version: 6.00 Build 0)  -->
<svg version="1.1" id="Light" xmlns="http://www.w3.org/2000/svg" xmlns:xlink="http://www.w3.org/1999/xlink" x="0px" y="0px"
	 viewBox="0 0 24 24" style="enable-background:new 0 0 24 24;" xml:space="preserve">
<g>
	<title>american-football-helmet</title>
	<path d="M16.989,23.997c-1.739,0-3.372-0.677-4.6-1.906l-2.873-2.872c-0.307,0.183-0.654,0.279-1.014,0.279c-1.103,0-2-0.897-2-2
		c0-0.913,0.631-1.709,1.5-1.934v-1.066c0-3.584,2.916-6.5,6.5-6.5h6.893c-1.202-3.373-4.069-5.938-7.557-6.733
		c-0.776-0.177-1.569-0.267-2.356-0.267c-1.962,0-3.887,0.558-5.567,1.614c-2.375,1.492-4.026,3.82-4.65,6.555
		C-0.022,14.81,3.522,20.45,9.167,21.738c0.13,0.029,0.241,0.108,0.312,0.221c0.071,0.113,0.094,0.247,0.064,0.377
		c-0.052,0.229-0.253,0.389-0.487,0.389c-0.038,0-0.076-0.004-0.113-0.013C2.762,21.302-1.12,15.125,0.29,8.943
		c0.683-2.995,2.492-5.544,5.093-7.179c1.84-1.156,3.948-1.767,6.098-1.767c0.862,0,1.73,0.098,2.58,0.292
		c3.949,0.901,7.149,3.846,8.392,7.708h1.049c0.276,0,0.5,0.224,0.5,0.5s-0.224,0.5-0.5,0.5h-0.778
		c0.145,0.644,0.234,1.299,0.265,1.952c0.026,0.551-0.4,1.02-0.951,1.047l-0.049,0.001h-6.488c-1.93,0-3.5,1.57-3.5,3.5
		c0,0.276-0.224,0.5-0.5,0.5s-0.5-0.224-0.5-0.5c0-2.481,2.019-4.5,4.5-4.5h6.488c-0.032-0.671-0.13-1.343-0.292-2h-7.196
		c-3.033,0-5.5,2.467-5.5,5.5v1.066c0.699,0.182,1.253,0.736,1.434,1.434h13.066c0.276,0,0.5,0.224,0.5,0.5v4
		c0,1.378-1.122,2.5-2.5,2.5H16.989z M21.502,22.997c0.827,0,1.5-0.673,1.5-1.5v-0.5h-2v0.5c0,0.549-0.178,1.072-0.501,1.5H21.502z
		 M16.518,22.975c0.161,0.015,0.317,0.022,0.47,0.022h1.514c0.827,0,1.5-0.673,1.5-1.5v-0.5h-3v0.5
		C17.002,22.033,16.829,22.551,16.518,22.975z M13.096,21.384c0.625,0.626,1.396,1.094,2.235,1.358
		c0.422-0.278,0.67-0.737,0.671-1.245v-0.5H12.71L13.096,21.384z M23.002,19.997v-2h-2v2H23.002z M20.002,19.997v-2h-3v2H20.002z
		 M16.002,19.997v-2h-5.566c-0.047,0.18-0.119,0.354-0.213,0.514l1.487,1.486H16.002z M8.502,16.497c-0.551,0-1,0.448-1,1
		s0.449,1,1,1c0.23,0,0.454-0.083,0.635-0.235c0.014-0.023,0.032-0.048,0.057-0.073c0.025-0.025,0.051-0.044,0.073-0.057
		c0.151-0.181,0.234-0.406,0.234-0.635C9.502,16.946,9.053,16.497,8.502,16.497z"/>
</g>
</svg>
