<?xml version="1.0" encoding="utf-8"?>
<!-- Generator: Adobe Illustrator 22.1.0, SVG Export Plug-In . SVG Version: 6.00 Build 0)  -->
<svg version="1.1" id="Layer_1" xmlns="http://www.w3.org/2000/svg" xmlns:xlink="http://www.w3.org/1999/xlink" x="0px" y="0px"
	 viewBox="0 0 24 24" style="enable-background:new 0 0 24 24;" xml:space="preserve">
<g>
	<title>developer-community-www</title>
	<path d="M19.469,21.064c-1.642,0-3.07-1.073-3.818-2.869c-0.052-0.123-0.052-0.259-0.001-0.383c0.051-0.124,0.147-0.22,0.27-0.271
		c0.061-0.025,0.126-0.038,0.192-0.038c0.202,0,0.384,0.121,0.462,0.307c0.588,1.411,1.673,2.253,2.903,2.253
		c0.177,0,0.357-0.018,0.534-0.054c1.719-0.344,2.488-2.072,2.488-3.632c0.153-2.343-1.456-4.402-3.743-4.805
		c-0.165-0.029-0.303-0.138-0.37-0.29c-0.068-0.152-0.055-0.328,0.034-0.469l3.671-5.81h-4.714l-4.42,15.695
		c-0.061,0.215-0.259,0.364-0.481,0.364c-0.224,0-0.422-0.15-0.482-0.365L8.978,9.903L5.98,20.696
		c-0.06,0.216-0.258,0.366-0.482,0.366c-0.224,0-0.422-0.151-0.482-0.366L0.549,4.637C0.513,4.508,0.53,4.373,0.595,4.257
		c0.066-0.116,0.173-0.2,0.301-0.236c0.044-0.012,0.089-0.018,0.134-0.018c0.224,0,0.422,0.151,0.482,0.366l3.985,14.326
		l2.96-10.654L7.506,4.638c-0.036-0.129-0.02-0.263,0.046-0.38c0.066-0.116,0.172-0.2,0.301-0.236
		c0.043-0.012,0.089-0.019,0.135-0.019c0.223,0,0.42,0.15,0.481,0.366l0.945,3.379c0.044,0.074,0.068,0.159,0.069,0.247
		l2.996,10.717l4.04-14.344C16.579,4.153,16.777,4.003,17,4.003h6c0.182,0,0.35,0.099,0.438,0.259
		c0.088,0.159,0.082,0.354-0.015,0.508l-3.785,5.99c2.423,0.761,4.03,3.084,3.861,5.65c0.001,2.704-1.652,4.252-3.291,4.579
		C19.963,21.039,19.714,21.064,19.469,21.064L19.469,21.064z"/>
</g>
</svg>
