<?xml version="1.0" encoding="utf-8"?>
<!-- Generator: Adobe Illustrator 22.1.0, SVG Export Plug-In . SVG Version: 6.00 Build 0)  -->
<svg version="1.1" id="Light" xmlns="http://www.w3.org/2000/svg" xmlns:xlink="http://www.w3.org/1999/xlink" x="0px" y="0px"
	 viewBox="0 0 24 24" style="enable-background:new 0 0 24 24;" xml:space="preserve">
<g>
	<title>museum-art</title>
	<path d="M16,24c-0.276,0-0.5-0.224-0.5-0.5V20h-7v3.5C8.5,23.775,8.276,24,8,24s-0.5-0.224-0.5-0.5v-3.586
		c-0.59-0.209-1-0.774-1-1.414c0-0.172,0.03-0.34,0.088-0.5H6c-0.827,0-1.5-0.673-1.5-1.5S5.173,15,6,15h2.485l0.433-1.731
		c-1.501-0.826-2.422-2.383-2.417-4.11c0.001-0.037,0.003-0.065,0.005-0.093l0-0.007C6.503,9.045,6.5,9.024,6.5,9
		c0-0.047,0.008-0.088,0.019-0.124c0.134-1.486,0.893-2.833,2.089-3.71C9.306,3.736,8.895,3.499,8.22,3.108
		C7.758,2.84,7.125,2.474,7.125,1.654c0.038-0.932,0.791-1.655,1.714-1.655L8.892,0l6.233,0c0.012-0.001,0.034-0.001,0.056-0.001
		c0.911,0,1.655,0.718,1.693,1.634c0,0.841-0.632,1.208-1.094,1.475c-0.676,0.391-1.087,0.629-0.388,2.057
		c1.199,0.879,1.958,2.227,2.09,3.712C17.492,8.913,17.5,8.953,17.5,9c0,0.013-0.003,0.035-0.006,0.055c0,0,0.004,0.06,0.005,0.087
		c0.005,1.74-0.916,3.3-2.417,4.127L15.515,15H18c0.827,0,1.5,0.673,1.5,1.5S18.827,18,18,18h-0.588
		c0.058,0.16,0.088,0.328,0.088,0.5c0,0.64-0.41,1.205-1,1.414V23.5C16.5,23.775,16.276,24,16,24z M8,18c-0.276,0-0.5,0.224-0.5,0.5
		S7.724,19,8,19h8c0.276,0,0.5-0.224,0.5-0.5S16.276,18,16,18H8z M6,16c-0.276,0-0.5,0.224-0.5,0.5S5.724,17,6,17h12
		c0.276,0,0.5-0.224,0.5-0.5S18.276,16,18,16H6z M14.485,15l-0.375-1.5H13.5c-0.276,0-0.5-0.224-0.5-0.5s0.224-0.5,0.5-0.5h0.888
		c1.109-0.523,1.886-1.581,2.068-2.781c-0.102,0.09-0.203,0.208-0.323,0.352C15.788,10.484,15.358,11,14.5,11
		c-0.858,0-1.287-0.515-1.632-0.929C12.556,9.695,12.375,9.5,12,9.5c-0.375,0-0.555,0.196-0.867,0.57
		C10.788,10.484,10.359,11,9.5,11c-0.86,0-1.29-0.516-1.635-0.93c-0.12-0.144-0.221-0.261-0.322-0.351
		C7.723,10.917,8.5,11.976,9.612,12.5H10.5c0.276,0,0.5,0.224,0.5,0.5s-0.224,0.5-0.5,0.5H9.89L14.485,15z M12,8.5
		c0.862,0,1.291,0.516,1.636,0.931C13.948,9.805,14.128,10,14.5,10c0.373,0,0.553-0.195,0.865-0.57
		c0.255-0.306,0.563-0.677,1.07-0.842C16.248,7.559,15.675,6.629,14.836,6H9.164C8.327,6.628,7.754,7.558,7.566,8.588
		c0.505,0.166,0.813,0.536,1.067,0.841C8.945,9.804,9.126,10,9.5,10c0.373,0,0.553-0.195,0.864-0.569
		C10.709,9.016,11.139,8.5,12,8.5z M14.24,5c-0.628-1.792,0.407-2.391,1.04-2.758c0.469-0.271,0.595-0.375,0.595-0.588
		c-0.015-0.362-0.326-0.655-0.707-0.655l-6.327,0c-0.386,0-0.701,0.297-0.717,0.675c0,0.193,0.135,0.301,0.596,0.568
		C9.354,2.608,10.389,3.207,9.76,5H14.24z"/>
</g>
</svg>
