<?xml version="1.0" encoding="utf-8"?>
<!-- Generator: Adobe Illustrator 22.1.0, SVG Export Plug-In . SVG Version: 6.00 Build 0)  -->
<svg version="1.1" id="Light" xmlns="http://www.w3.org/2000/svg" xmlns:xlink="http://www.w3.org/1999/xlink" x="0px" y="0px"
	 viewBox="0 0 24 24" style="enable-background:new 0 0 24 24;" xml:space="preserve">
<g>
	<title>museum-painting</title>
	<path d="M2.5,12C1.673,12,1,11.327,1,10.5v-9C1,0.673,1.673,0,2.5,0h19C22.327,0,23,0.673,23,1.5v9c0,0.827-0.673,1.5-1.5,1.5H2.5z
		 M2.5,1C2.224,1,2,1.224,2,1.5v9C2,10.776,2.224,11,2.5,11h19c0.276,0,0.5-0.224,0.5-0.5v-9C22,1.224,21.776,1,21.5,1H2.5z"/>
	<path d="M4.5,10C3.673,10,3,9.327,3,8.5v-5C3,2.673,3.673,2,4.5,2h15C20.327,2,21,2.673,21,3.5v5c0,0.827-0.673,1.5-1.5,1.5H4.5z
		 M18.688,9l-1.93-3.867c-0.052-0.103-0.131-0.187-0.23-0.245c-0.09-0.053-0.192-0.081-0.295-0.081c-0.051,0-0.101,0.007-0.151,0.02
		c-0.152,0.04-0.279,0.137-0.358,0.272L13.77,8.452c-0.088,0.15-0.243,0.242-0.417,0.248c0,0-0.001,0-0.001,0
		c-0.183,0-0.337-0.083-0.43-0.221c-0.012-0.017-1.179-1.722-2.504-1.722c-0.74,0-1.575,1.14-2.138,2.243H18.688z M4.5,3
		C4.224,3,4,3.224,4,3.5v5C4,8.776,4.224,9,4.5,9h2.672c0.423-0.929,1.639-3.243,3.247-3.243c1.231,0,2.252,0.88,2.855,1.559
		l1.586-2.72c0.284-0.486,0.81-0.787,1.374-0.787c0.28,0,0.555,0.075,0.798,0.216c0.267,0.156,0.481,0.385,0.62,0.662l2.114,4.236
		C19.908,8.832,20,8.675,20,8.5v-5C20,3.224,19.776,3,19.5,3H4.5z"/>
	<path d="M22.5,24c-0.276,0-0.5-0.224-0.5-0.5v-4.466C20.939,20.247,19.161,21,17.25,21c-1.912,0-3.69-0.754-4.75-1.97v4.47
		c0,0.276-0.224,0.5-0.5,0.5c-0.276,0-0.5-0.224-0.5-0.5v-4.47C10.44,20.246,8.662,21,6.75,21C4.839,21,3.061,20.247,2,19.034V23.5
		C2,23.776,1.776,24,1.5,24S1,23.776,1,23.5v-6.586C0.41,16.705,0,16.14,0,15.5C0,14.673,0.673,14,1.5,14S3,14.673,3,15.5
		c0,0.623-0.394,1.179-0.963,1.399C2.309,18.653,4.329,20,6.75,20s4.441-1.347,4.713-3.101c-0.569-0.22-0.963-0.776-0.963-1.399
		c0-0.827,0.673-1.5,1.5-1.5s1.5,0.673,1.5,1.5c0,0.623-0.394,1.179-0.963,1.399C12.809,18.653,14.829,20,17.25,20
		s4.441-1.347,4.713-3.101C21.394,16.679,21,16.123,21,15.5c0-0.827,0.673-1.5,1.5-1.5s1.5,0.673,1.5,1.5c0,0.64-0.41,1.205-1,1.414
		V23.5C23,23.776,22.776,24,22.5,24z M22.5,15c-0.276,0-0.5,0.224-0.5,0.5s0.224,0.5,0.5,0.5s0.5-0.224,0.5-0.5S22.776,15,22.5,15z
		 M12,15c-0.276,0-0.5,0.224-0.5,0.5S11.724,16,12,16c0.276,0,0.5-0.224,0.5-0.5S12.276,15,12,15z M1.5,15C1.224,15,1,15.224,1,15.5
		S1.224,16,1.5,16S2,15.776,2,15.5S1.776,15,1.5,15z"/>
	<circle cx="6.75" cy="4.75" r="0.75"/>
</g>
</svg>
