<?xml version="1.0" encoding="utf-8"?>
<!-- Generator: Adobe Illustrator 22.1.0, SVG Export Plug-In . SVG Version: 6.00 Build 0)  -->
<svg version="1.1" id="Layer_1" xmlns="http://www.w3.org/2000/svg" xmlns:xlink="http://www.w3.org/1999/xlink" x="0px" y="0px"
	 viewBox="0 0 24 24" style="enable-background:new 0 0 24 24;" xml:space="preserve">
<g>
	<title>business-deal-negotiate</title>
	<path d="M10,13.5c-0.075,0-0.15-0.017-0.217-0.05C9.611,13.368,9.5,13.191,9.5,13v-1.5h-1C7.673,11.5,7,10.827,7,10V2
		c0-0.827,0.673-1.5,1.5-1.5h12C21.327,0.5,22,1.173,22,2v2.5C22,4.776,21.776,5,21.5,5S21,4.776,21,4.5V2
		c0-0.276-0.224-0.5-0.5-0.5h-12C8.224,1.5,8,1.724,8,2v8c0,0.276,0.224,0.5,0.5,0.5H10c0.276,0,0.5,0.224,0.5,0.5v0.96l1.688-1.35
		c0.088-0.071,0.199-0.11,0.312-0.11H16c0.276,0,0.5,0.224,0.5,0.5s-0.224,0.5-0.5,0.5h-3.325l-2.363,1.891
		C10.224,13.461,10.113,13.5,10,13.5z"/>
	<path d="M0.5,23.5c-0.254,0-0.467-0.19-0.496-0.442c-0.016-0.133,0.022-0.263,0.105-0.368c0.083-0.105,0.202-0.171,0.334-0.186
		c1.117-0.13,2.172-0.679,2.922-1.518L2.1,19.3c-0.115-0.152-0.133-0.353-0.047-0.523C2.138,18.606,2.309,18.5,2.5,18.5H5V17
		c0-0.276,0.224-0.5,0.5-0.5h1.191l-1.212-2.425c-0.035-0.069-0.053-0.146-0.053-0.224C5.426,9.637,3.769,7.5,0.5,7.5
		C0.224,7.5,0,7.276,0,7s0.224-0.5,0.5-0.5c2.682,0,5.883,1.256,5.926,7.232l1.16,2.32c0.069,0.138,0.106,0.293,0.106,0.448
		c0,0.552-0.449,1-1,1H6v1c0,0.552-0.449,1-1,1H3.5l0.9,1.2c0.133,0.177,0.133,0.425-0.001,0.602
		c-0.922,1.219-2.323,2.019-3.841,2.195C0.54,23.499,0.519,23.5,0.5,23.5z"/>
	<circle cx="2.75" cy="13.75" r="0.75"/>
	<path d="M23.5,23.5c-0.02,0-0.04-0.001-0.06-0.004c-1.517-0.176-2.917-0.976-3.839-2.195c-0.134-0.177-0.135-0.424-0.001-0.602
		l0.9-1.2H19c-0.552,0-1-0.448-1-1v-1h-0.691c-0.552,0-1-0.448-1-1c0-0.155,0.037-0.31,0.106-0.448l1.159-2.319
		C17.617,7.756,20.818,6.5,23.5,6.5C23.776,6.5,24,6.724,24,7s-0.224,0.5-0.5,0.5c-3.269,0-4.926,2.137-4.926,6.351
		c0,0.077-0.018,0.155-0.053,0.224L17.309,16.5l1.191,0c0.276,0,0.5,0.224,0.5,0.5v1.5h2.5c0.19,0,0.362,0.106,0.447,0.276
		c0.085,0.171,0.067,0.372-0.047,0.524l-1.264,1.686c0.75,0.838,1.805,1.388,2.922,1.518c0.133,0.015,0.251,0.082,0.334,0.186
		c0.083,0.105,0.12,0.235,0.105,0.368C23.968,23.31,23.754,23.5,23.5,23.5z"/>
	<circle cx="21.25" cy="13.75" r="0.75"/>
	<path d="M14.5,9.5C14.224,9.5,14,9.276,14,9V8.5h-1.5C12.224,8.5,12,8.276,12,8s0.224-0.5,0.5-0.5h3C15.776,7.5,16,7.276,16,7
		s-0.224-0.5-0.5-0.5h-2C12.673,6.5,12,5.827,12,5s0.673-1.5,1.5-1.5H14V3c0-0.276,0.224-0.5,0.5-0.5S15,2.724,15,3v0.5h1.5
		C16.776,3.5,17,3.724,17,4s-0.224,0.5-0.5,0.5h-3C13.224,4.5,13,4.724,13,5s0.224,0.5,0.5,0.5h2C16.327,5.5,17,6.173,17,7
		s-0.673,1.5-1.5,1.5H15V9C15,9.276,14.776,9.5,14.5,9.5z"/>
</g>
</svg>
