<?xml version="1.0" encoding="utf-8"?>
<!-- Generator: Adobe Illustrator 22.1.0, SVG Export Plug-In . SVG Version: 6.00 Build 0)  -->
<svg version="1.1" id="Layer_1" xmlns="http://www.w3.org/2000/svg" xmlns:xlink="http://www.w3.org/1999/xlink" x="0px" y="0px"
	 viewBox="0 0 24 24" style="enable-background:new 0 0 24 24;" xml:space="preserve">
<g>
	<title>business-deal-handshake</title>
	<path d="M10.394,18.605c-0.396,0-0.783-0.16-1.062-0.44l-3.476-3.477l-1.859-0.357c-0.054,0.778-0.704,1.395-1.496,1.395h-2
		c-0.276,0-0.5-0.224-0.5-0.5v-9c0-0.276,0.224-0.5,0.5-0.5h2c0.79,0,1.44,0.615,1.496,1.391l1.858-0.372L8.809,5.52
		c0.184-0.076,0.378-0.115,0.575-0.115c0.4,0,0.777,0.157,1.061,0.442l1.158,1.157l1.399-1.151c0.357-0.294,0.809-0.456,1.272-0.456
		c0.25,0,0.495,0.046,0.728,0.137l5.045,1.977c0.038,0.015,0.075,0.031,0.111,0.049c0.248-0.504,0.761-0.834,1.341-0.834h2
		c0.276,0,0.5,0.224,0.5,0.5v9c0,0.276-0.224,0.5-0.5,0.5h-2c-0.642,0-1.203-0.42-1.41-1.006c-0.103,0.045-0.21,0.078-0.321,0.098
		l-2.179,0.4c-0.05,0.008-0.072,0.011-1.198,0.011c-0.502,0-1.226-0.001-2.273-0.003c-0.072,0.075-0.167,0.127-0.273,0.145
		l-1.361,0.235l-0.114,0.665c-0.108,0.625-0.6,1.117-1.224,1.224l-0.499,0.087C10.564,18.597,10.479,18.604,10.394,18.605
		C10.394,18.605,10.394,18.605,10.394,18.605z M6.194,13.735c0.099,0.019,0.189,0.067,0.259,0.138l3.585,3.585
		c0.093,0.093,0.223,0.147,0.356,0.147c0.028,0,0.056-0.002,0.084-0.007l0.498-0.087c0.209-0.036,0.373-0.2,0.409-0.408l0.174-1.012
		c0.035-0.208,0.199-0.372,0.407-0.408l1.362-0.235l0.235-1.36c0.036-0.208,0.2-0.372,0.407-0.408l1.361-0.235l0.19-1.106
		l-2.199-2.198l-2.783,0.915c-0.127,0.042-0.26,0.063-0.395,0.063c-0.385,0-0.744-0.169-0.985-0.464
		c-0.215-0.262-0.314-0.593-0.281-0.93s0.197-0.641,0.459-0.856l1.489-1.225L9.737,6.554C9.642,6.458,9.516,6.406,9.383,6.406
		c-0.066,0-0.13,0.013-0.192,0.038l-3,1.244C6.161,7.701,6.13,7.71,6.098,7.717L4,8.136v5.177L6.194,13.735z M21.5,7.726
		c-0.276,0-0.5,0.224-0.5,0.5v7c0,0.276,0.224,0.5,0.5,0.5H23v-8H21.5z M16.614,15.229c0.417,0,0.731,0,0.834-0.002l2.142-0.393
		c0.238-0.043,0.411-0.25,0.41-0.492V8.908c0-0.207-0.125-0.39-0.318-0.465l-5.045-1.977c-0.116-0.045-0.239-0.068-0.364-0.068
		c-0.232,0-0.458,0.081-0.636,0.228L9.973,9.641c-0.056,0.046-0.091,0.11-0.098,0.182C9.868,9.894,9.889,9.964,9.934,10.02
		c0.05,0.062,0.129,0.098,0.209,0.098c0.028,0,0.056-0.005,0.083-0.013l4.117-1.354c0.051-0.017,0.103-0.025,0.156-0.025
		c0.217,0,0.407,0.138,0.475,0.344c0.086,0.262-0.057,0.545-0.319,0.631l-0.268,0.088l2.024,2.024
		c0.115,0.115,0.167,0.279,0.139,0.439l-0.294,1.709c-0.035,0.208-0.199,0.372-0.407,0.408l-1.362,0.235l-0.107,0.623
		C15.124,15.228,15.986,15.229,16.614,15.229z M2.5,14.726c0.276,0,0.5-0.224,0.5-0.5v-7c0-0.276-0.224-0.5-0.5-0.5H1v8H2.5z"/>
</g>
</svg>
