<?xml version="1.0" encoding="utf-8"?>
<!-- Generator: Adobe Illustrator 22.1.0, SVG Export Plug-In . SVG Version: 6.00 Build 0)  -->
<svg version="1.1" id="Layer_1" xmlns="http://www.w3.org/2000/svg" xmlns:xlink="http://www.w3.org/1999/xlink" x="0px" y="0px"
	 viewBox="0 0 24 24" style="enable-background:new 0 0 24 24;" xml:space="preserve">
<g>
	<title>business-deal-cash-exchange</title>
	<path d="M20.5,10.501c-1.516,0-2.75-1.234-2.75-2.75s1.234-2.75,2.75-2.75s2.75,1.234,2.75,2.75S22.016,10.501,20.5,10.501z
		 M20.5,6.001c-0.965,0-1.75,0.785-1.75,1.75s0.785,1.75,1.75,1.75s1.75-0.785,1.75-1.75S21.465,6.001,20.5,6.001z"/>
	<path d="M19.5,21.5c-0.255,0-0.469-0.191-0.497-0.445L18.552,17H17.5c-0.276,0-0.5-0.224-0.5-0.5V14c0-1.93,1.57-3.5,3.5-3.5
		S24,12.07,24,14v2.5c0,0.276-0.224,0.5-0.5,0.5h-1.052l-0.451,4.055C21.969,21.309,21.755,21.5,21.5,21.5H19.5z M21.052,20.5
		l0.451-4.055C21.531,16.191,21.745,16,22,16h1v-2c0-1.378-1.122-2.5-2.5-2.5S18,12.622,18,14v2h1c0.255,0,0.469,0.191,0.497,0.445
		l0.451,4.055H21.052z"/>
	<path d="M3.5,10.501c-1.516,0-2.75-1.234-2.75-2.75s1.234-2.75,2.75-2.75s2.75,1.234,2.75,2.75S5.016,10.501,3.5,10.501z
		 M3.5,6.001c-0.965,0-1.75,0.785-1.75,1.75s0.785,1.75,1.75,1.75s1.75-0.785,1.75-1.75S4.465,6.001,3.5,6.001z"/>
	<path d="M2.5,21.5c-0.255,0-0.469-0.191-0.497-0.445L1.552,17H0.5C0.224,17,0,16.776,0,16.5V14c0-1.93,1.57-3.5,3.5-3.5
		S7,12.07,7,14v2.5C7,16.776,6.776,17,6.5,17H5.448l-0.451,4.055C4.969,21.309,4.755,21.5,4.5,21.5H2.5z M4.052,20.5l0.451-4.055
		C4.531,16.191,4.745,16,5,16h1v-2c0-1.378-1.121-2.5-2.5-2.5S1,12.622,1,14v2h1c0.255,0,0.469,0.191,0.497,0.445L2.948,20.5H4.052z
		"/>
	<path d="M11.5,7c-0.113,0-0.224-0.039-0.312-0.11c-0.104-0.083-0.17-0.202-0.185-0.335s0.023-0.263,0.107-0.368L12.46,4.5H9.5
		C9.224,4.5,9,4.276,9,4s0.224-0.5,0.5-0.5h2.96l-1.35-1.688c-0.083-0.104-0.121-0.235-0.107-0.368s0.08-0.252,0.185-0.335
		C11.276,1.039,11.387,1,11.5,1c0.153,0,0.295,0.068,0.391,0.188l2,2.5c0.024,0.03,0.038,0.059,0.045,0.074
		c0.01,0.016,0.021,0.035,0.029,0.056c0.046,0.118,0.046,0.246,0.001,0.362c-0.006,0.014-0.023,0.049-0.031,0.062
		c-0.005,0.012-0.019,0.041-0.044,0.072L11.89,6.812C11.795,6.932,11.653,7,11.5,7z"/>
	<path d="M11.5,23c-0.153,0-0.295-0.068-0.391-0.188l-2-2.5c-0.024-0.03-0.037-0.058-0.045-0.073
		c-0.008-0.012-0.024-0.044-0.029-0.058c-0.045-0.118-0.045-0.246-0.001-0.361c0.005-0.014,0.023-0.047,0.031-0.06
		c0.007-0.015,0.02-0.042,0.044-0.073l2-2.5C11.205,17.068,11.348,17,11.5,17c0.113,0,0.224,0.039,0.312,0.109
		c0.215,0.173,0.25,0.488,0.078,0.703L10.54,19.5h2.96c0.276,0,0.5,0.224,0.5,0.5s-0.224,0.5-0.5,0.5h-2.96l1.35,1.688
		c0.172,0.215,0.137,0.531-0.078,0.703C11.724,22.961,11.613,23,11.5,23z"/>
	<path d="M11.5,16.248c-0.276,0-0.5-0.224-0.5-0.5v-0.616c-0.759-0.219-1.29-0.911-1.289-1.718c0-0.275,0.224-0.5,0.5-0.5
		c0.134,0,0.259,0.052,0.354,0.147c0.094,0.094,0.146,0.22,0.146,0.354c0,0.429,0.345,0.78,0.772,0.789c0.006,0,0.027,0,0.033,0
		c0.426-0.009,0.772-0.359,0.772-0.788c0-0.21-0.082-0.408-0.231-0.558c-0.149-0.149-0.347-0.232-0.558-0.232
		c-0.987,0-1.79-0.802-1.791-1.787c0-0.808,0.531-1.5,1.29-1.718V8.5C11,8.224,11.224,8,11.5,8S12,8.224,12,8.5v0.622
		c0.757,0.219,1.287,0.909,1.288,1.714c0,0.138-0.111,0.25-0.249,0.25c0,0-0.5,0.001-0.501,0.001c-0.066,0-0.13-0.026-0.177-0.073
		c-0.047-0.047-0.073-0.111-0.073-0.177c0-0.429-0.346-0.78-0.773-0.789c-0.005,0-0.027,0-0.033,0
		c-0.427,0.009-0.772,0.36-0.772,0.789c0,0.435,0.354,0.788,0.789,0.788c0.988,0.001,1.791,0.804,1.79,1.791
		c-0.001,0.806-0.532,1.496-1.289,1.715v0.616C12,16.024,11.776,16.248,11.5,16.248z"/>
</g>
</svg>
