<?xml version="1.0" encoding="utf-8"?>
<!-- Generator: Adobe Illustrator 22.1.0, SVG Export Plug-In . SVG Version: 6.00 Build 0)  -->
<svg version="1.1" id="Layer_1" xmlns="http://www.w3.org/2000/svg" xmlns:xlink="http://www.w3.org/1999/xlink" x="0px" y="0px"
	 viewBox="0 0 24 24" style="enable-background:new 0 0 24 24;" xml:space="preserve">
<g>
	<title>business-deal-men-cash-1</title>
	<path d="M10.771,12c-0.074,0-0.149-0.017-0.216-0.049c-0.172-0.083-0.284-0.26-0.284-0.451V10h-1c-0.827,0-1.5-0.673-1.5-1.5v-7
		c0-0.827,0.673-1.5,1.5-1.5h3.5c0.276,0,0.5,0.224,0.5,0.5S13.046,1,12.771,1h-3.5c-0.276,0-0.5,0.224-0.5,0.5v7
		c0,0.276,0.224,0.5,0.5,0.5h1.5c0.276,0,0.5,0.224,0.5,0.5v0.96l1.688-1.35C13.047,9.039,13.158,9,13.271,9h8
		c0.276,0,0.5-0.224,0.5-0.5v-7c0-0.276-0.224-0.5-0.5-0.5h-3.5c-0.276,0-0.5-0.224-0.5-0.5s0.224-0.5,0.5-0.5h3.5
		c0.827,0,1.5,0.673,1.5,1.5v7c0,0.827-0.673,1.5-1.5,1.5h-7.825l-2.363,1.89C10.995,11.961,10.884,12,10.771,12z"/>
	<path d="M6.042,23.312c-0.276,0-0.5-0.224-0.5-0.5v-0.875c0-0.276,0.224-0.5,0.5-0.5s0.5,0.224,0.5,0.5v0.875
		C6.542,23.088,6.317,23.312,6.042,23.312z"/>
	<path d="M10.812,24c-0.219,0-0.411-0.141-0.477-0.35c-0.36-1.147-1.145-2.085-2.21-2.641c-0.643-0.336-1.361-0.513-2.077-0.513
		c-0.456,0-0.912,0.07-1.354,0.209c-1.404,0.441-2.505,1.542-2.946,2.946C1.682,23.859,1.49,24,1.27,24
		c-0.051,0-0.101-0.008-0.149-0.023c-0.127-0.04-0.232-0.127-0.294-0.246c-0.062-0.118-0.074-0.254-0.034-0.381
		c0.538-1.716,1.885-3.062,3.6-3.6c0.539-0.169,1.096-0.255,1.654-0.255c0.876,0,1.754,0.217,2.539,0.627
		c1.302,0.68,2.262,1.826,2.702,3.228c0.04,0.127,0.028,0.263-0.034,0.381c-0.062,0.118-0.166,0.206-0.294,0.246
		C10.913,23.992,10.862,24,10.812,24z"/>
	<path d="M6.042,19.5c-2.206,0-4-1.794-4-4c0-1.825,1.237-3.417,3.009-3.871l0.059-0.015c0.115-0.028,0.237-0.051,0.361-0.069
		c0.028-0.006,0.045-0.009,0.062-0.012c0.006-0.001,0.027-0.003,0.033-0.003c0.073-0.009,0.147-0.013,0.221-0.018
		c0.083-0.005,0.141-0.009,0.199-0.01c0.025-0.002,0.04-0.003,0.055-0.003c0.026,0,0.051,0.002,0.076,0.003l0.035,0.002
		c0.083,0.002,0.166,0.005,0.249,0.013c0.036,0.003,0.134,0.016,0.134,0.016c0.088,0.011,0.176,0.024,0.264,0.041
		c0.033,0.006,0.125,0.027,0.125,0.027c0.085,0.019,0.169,0.04,0.253,0.065c0.042,0.012,0.083,0.026,0.124,0.04
		c0.087,0.029,0.161,0.056,0.234,0.086c0.054,0.022,0.107,0.046,0.16,0.07c0.06,0.028,0.12,0.056,0.179,0.086
		c0.065,0.033,0.128,0.07,0.191,0.107c0.057,0.034,0.094,0.056,0.13,0.079c0.075,0.048,0.147,0.099,0.219,0.152
		c0.03,0.021,0.046,0.031,0.06,0.042c0.005,0.003,0.023,0.019,0.027,0.023c0.08,0.063,0.156,0.128,0.229,0.195l0.063,0.057
		c0.078,0.075,0.153,0.153,0.225,0.233l0.038,0.042c0.635,0.729,0.984,1.66,0.984,2.62C10.042,17.706,8.247,19.5,6.042,19.5z
		 M3.196,14.558c-0.103,0.305-0.154,0.62-0.154,0.942c0,1.654,1.346,3,3,3c1.576,0,2.873-1.222,2.991-2.769
		C8.442,15.91,7.83,16,7.209,16C5.761,16,4.318,15.478,3.196,14.558z M3.685,13.662C4.65,14.515,5.922,15,7.209,15
		c0.588,0,1.164-0.095,1.716-0.283c-0.119-0.45-0.342-0.867-0.652-1.215l-0.024-0.026c-0.05-0.054-0.104-0.11-0.161-0.163
		l-0.033-0.03c-0.061-0.055-0.116-0.102-0.174-0.147l-0.037-0.028c-0.075-0.056-0.134-0.097-0.193-0.135
		c-0.029-0.019-0.06-0.037-0.09-0.055c-0.05-0.03-0.099-0.058-0.149-0.084c-0.042-0.022-0.086-0.043-0.131-0.063
		c-0.041-0.019-0.081-0.037-0.122-0.053c-0.053-0.021-0.108-0.041-0.164-0.06c-0.035-0.012-0.069-0.023-0.103-0.033
		c-0.063-0.019-0.125-0.034-0.188-0.049l-0.097-0.021c-0.063-0.012-0.128-0.021-0.193-0.03c-0.05-0.006-0.076-0.01-0.103-0.012
		c-0.061-0.005-0.122-0.007-0.183-0.009L6.02,12.502v-0.25l-0.019,0.25c-0.039,0-0.075,0.003-0.112,0.005L5.862,12.51
		c-0.067,0.004-0.123,0.007-0.179,0.014l-0.072,0.011c-0.083,0.012-0.169,0.027-0.254,0.047l-0.092-0.234l0.061,0.242
		C4.68,12.752,4.092,13.138,3.685,13.662z"/>
	<path d="M18.042,23.312c-0.276,0-0.5-0.224-0.5-0.5v-0.875c0-0.276,0.224-0.5,0.5-0.5s0.5,0.224,0.5,0.5v0.875
		C18.542,23.088,18.317,23.312,18.042,23.312z"/>
	<path d="M22.729,24c-0.22,0-0.411-0.141-0.477-0.35c-0.36-1.147-1.145-2.085-2.21-2.641c-0.643-0.336-1.362-0.513-2.077-0.513
		c-0.457,0-0.912,0.07-1.353,0.209c-1.404,0.441-2.505,1.542-2.946,2.946C13.599,23.859,13.407,24,13.187,24
		c-0.05,0-0.1-0.008-0.149-0.023c-0.264-0.083-0.411-0.364-0.328-0.627c0.539-1.716,1.885-3.062,3.6-3.6
		c0.54-0.169,1.096-0.255,1.654-0.255c0.875,0,1.754,0.217,2.539,0.627c1.302,0.68,2.262,1.826,2.702,3.228
		c0.083,0.263-0.064,0.545-0.327,0.627C22.83,23.992,22.779,24,22.729,24z"/>
	<path d="M17.959,19.499c-2.206,0-4-1.794-4-4c0-1.655,1.044-3.158,2.599-3.742c0,0,0.026-0.01,0.026-0.01
		c0.121-0.044,0.245-0.083,0.37-0.116l0.088-0.023c0.107-0.025,0.214-0.045,0.322-0.061c0.046-0.01,0.068-0.014,0.09-0.017
		c0.006-0.001,0.033-0.003,0.039-0.003c0.059-0.007,0.115-0.01,0.17-0.014l0.033-0.002c0.086-0.006,0.153-0.01,0.221-0.011
		c0.014-0.001,0.027-0.002,0.04-0.002c0.026,0,0.051,0.002,0.076,0.003l0.035,0.002c0.086,0.002,0.173,0.005,0.258,0.013
		c0.034,0.003,0.068,0.008,0.103,0.012l0.039,0.005c0.084,0.011,0.167,0.022,0.249,0.038c0.042,0.008,0.084,0.018,0.127,0.028
		l0.031,0.007c0.073,0.017,0.145,0.035,0.217,0.056c0.056,0.016,0.111,0.036,0.167,0.055l-0.053,0.246l0.083-0.236
		c0.054,0.019,0.107,0.038,0.16,0.059c0.068,0.028,0.135,0.058,0.201,0.089l0.027,0.013c0.038,0.018,0.076,0.036,0.113,0.055
		c0.074,0.038,0.146,0.08,0.217,0.122c0,0,0.08,0.048,0.106,0.065c0.078,0.05,0.154,0.104,0.229,0.16c0,0,0.057,0.042,0.076,0.057
		c0.081,0.063,0.159,0.131,0.237,0.201l0.04,0.036c0.088,0.083,0.171,0.169,0.25,0.257c0.657,0.742,1.014,1.681,1.014,2.653
		C21.959,17.705,20.164,19.499,17.959,19.499z M15.113,14.558c-0.102,0.304-0.154,0.62-0.154,0.941c0,1.654,1.346,3,3,3
		c1.576,0,2.872-1.221,2.991-2.767C20.36,15.91,19.75,16,19.13,16c-0.008,0-0.034-0.001-0.036-0.001
		C17.672,15.999,16.233,15.477,15.113,14.558z M15.601,13.662C16.566,14.515,17.838,15,19.124,15c0.592,0,1.167-0.095,1.718-0.283
		c-0.173-0.656-0.565-1.232-1.12-1.639c-0.077-0.056-0.145-0.1-0.215-0.143l-0.039-0.024c-0.063-0.037-0.126-0.07-0.191-0.102
		l-0.07-0.034c-0.056-0.026-0.115-0.05-0.174-0.073c-0.034-0.013-0.068-0.026-0.102-0.038c-0.051-0.018-0.102-0.034-0.154-0.049
		c-0.045-0.013-0.09-0.024-0.135-0.035c-0.046-0.011-0.091-0.021-0.136-0.029c-0.054-0.01-0.11-0.018-0.167-0.025
		c-0.04-0.005-0.079-0.01-0.118-0.014c-0.061-0.005-0.123-0.008-0.186-0.009l-0.101-0.002v-0.25l-0.012,0.25
		c-0.053,0.001-0.106,0.004-0.159,0.008l-0.052,0.004c-0.032,0.002-0.065,0.004-0.098,0.008c-0.023,0.002-0.044,0.006-0.065,0.01
		l-0.045,0.007c-0.071,0.011-0.144,0.023-0.215,0.04c0,0-0.062,0.016-0.063,0.016c-0.088,0.022-0.175,0.047-0.26,0.078
		C16.42,12.87,15.946,13.217,15.601,13.662z"/>
	<path d="M15.271,8c-0.276,0-0.5-0.224-0.5-0.5V7h-1.5c-0.276,0-0.5-0.224-0.5-0.5s0.224-0.5,0.5-0.5h3c0.276,0,0.5-0.224,0.5-0.5
		S16.546,5,16.271,5h-2c-0.827,0-1.5-0.673-1.5-1.5s0.673-1.5,1.5-1.5h0.5V1.5c0-0.276,0.224-0.5,0.5-0.5s0.5,0.224,0.5,0.5V2h1.5
		c0.276,0,0.5,0.224,0.5,0.5S17.546,3,17.271,3h-3c-0.276,0-0.5,0.224-0.5,0.5s0.224,0.5,0.5,0.5h2c0.827,0,1.5,0.673,1.5,1.5
		S17.098,7,16.271,7h-0.5v0.5C15.771,7.776,15.546,8,15.271,8z"/>
</g>
</svg>
