<?xml version="1.0" encoding="utf-8"?>
<!-- Generator: Adobe Illustrator 22.1.0, SVG Export Plug-In . SVG Version: 6.00 Build 0)  -->
<svg version="1.1" id="Layer_1" xmlns="http://www.w3.org/2000/svg" xmlns:xlink="http://www.w3.org/1999/xlink" x="0px" y="0px"
	 viewBox="0 0 24 24" style="enable-background:new 0 0 24 24;" xml:space="preserve">
<g>
	<title>business-deal-handshake-circle</title>
	<path d="M10.74,17.062c-0.318,0-0.627-0.131-0.849-0.36L7.727,15H6.914C6.705,15.59,6.14,16,5.5,16H4c-0.276,0-0.5-0.224-0.5-0.5
		S3.724,15,4,15h1.5C5.776,15,6,14.776,6,14.5V9.501C6,9.224,5.776,9,5.5,9H4C3.724,9,3.5,8.776,3.5,8.5S3.724,8,4,8h1.5
		c0.572,0,1.077,0.319,1.329,0.816l2.32-0.987c0.24-0.097,0.487-0.145,0.738-0.145c0.425,0,0.828,0.132,1.169,0.382l0.003,0.002
		l1.74-0.845C13.091,7.077,13.423,7,13.756,7c0.254,0,0.504,0.044,0.741,0.131l3.091,1.182C17.85,8.11,18.168,8,18.5,8H20
		c0.276,0,0.5,0.224,0.5,0.5S20.276,9,20,9h-1.5C18.224,9,18,9.224,18,9.5v5c0,0.276,0.224,0.5,0.5,0.5H20
		c0.276,0,0.5,0.224,0.5,0.5S20.276,16,20,16h-1.5c-0.827,0-1.5-0.673-1.5-1.5v-0.238l-3.202,0.641l-2.307,1.89
		C11.279,16.967,11.012,17.062,10.74,17.062z M7.9,14c0.112,0,0.221,0.038,0.309,0.107l2.33,1.833
		c0.024,0.019,0.045,0.039,0.065,0.062c0.034,0.038,0.083,0.061,0.136,0.061c0.03,0,0.074-0.007,0.116-0.042l3.501-2.869
		c0.078-0.064,0.09-0.174,0.028-0.255l-1.663-1.831l-0.385,0.158c-0.207,0.083-0.422,0.125-0.64,0.125
		c-0.228,0-0.452-0.046-0.664-0.136c-0.418-0.177-0.742-0.507-0.912-0.928c-0.203-0.502-0.147-1.076,0.134-1.532
		c-0.112-0.044-0.237-0.069-0.365-0.069l-0.002-0.25v0.25c-0.123,0-0.242,0.023-0.356,0.069L7,9.831V14H7.9z M15.149,12.253
		c0.319,0.406,0.35,0.928,0.124,1.334L17,13.242V9.5c0-0.111,0.012-0.22,0.036-0.328l-2.89-1.105C14.025,8.023,13.893,8,13.757,8
		c-0.179,0-0.358,0.042-0.517,0.121l-1.858,0.902c-0.023,0.012-0.046,0.028-0.069,0.044c-0.013,0.01-0.035,0.027-0.064,0.044
		c-0.232,0.194-0.315,0.52-0.202,0.8c0.107,0.266,0.363,0.438,0.65,0.438c0.089,0,0.177-0.017,0.261-0.051l1.851-0.76
		C13.871,9.513,13.935,9.5,14,9.5c0.204,0,0.386,0.122,0.463,0.311c0.104,0.255-0.018,0.547-0.273,0.652l-0.485,0.199L15.149,12.253
		z"/>
	<path d="M12,24C5.383,24,0,18.617,0,12C0,5.383,5.383,0,12,0c6.617,0,12,5.383,12,12C24,18.617,18.617,24,12,24z M12,1
		C5.935,1,1,5.935,1,12s4.935,11,11,11s11-4.935,11-11S18.065,1,12,1z"/>
</g>
</svg>
