<?xml version="1.0" encoding="utf-8"?>
<!-- Generator: Adobe Illustrator 22.1.0, SVG Export Plug-In . SVG Version: 6.00 Build 0)  -->
<svg version="1.1" id="Layer_1" xmlns="http://www.w3.org/2000/svg" xmlns:xlink="http://www.w3.org/1999/xlink" x="0px" y="0px"
	 viewBox="0 0 24 24" style="enable-background:new 0 0 24 24;" xml:space="preserve">
<g>
	<title>business-contract-approve</title>
	<path d="M19.5,24c-0.167,0-0.322-0.083-0.415-0.221c-0.55-0.818-0.912-1.724-1.078-2.695C18.002,21.057,18,21.029,18,21v-1.296
		l-2.673-2.724c-0.33-0.343-0.506-0.789-0.499-1.256c0.007-0.467,0.197-0.903,0.533-1.226c0.327-0.314,0.764-0.487,1.233-0.487
		c0.477,0.01,0.912,0.2,1.235,0.536L18,14.722V10c0-0.276,0.224-0.5,0.5-0.5S19,9.724,19,10v0.268
		c0.133,0.113,0.267,0.226,0.401,0.339c1.873,1.576,3.642,3.064,3.599,4.905v4.433l0.944,1.826c0.126,0.245,0.03,0.547-0.215,0.674
		c-0.071,0.037-0.15,0.056-0.229,0.056c-0.188,0-0.358-0.104-0.445-0.271l-1-1.934C22.019,20.225,22,20.146,22,20.066V15.5
		c0.031-1.303-1.47-2.633-3-3.923v4.167l1.376,1.406c0.193,0.197,0.189,0.514-0.008,0.707C20.275,17.949,20.15,18,20.019,18
		c-0.136,0-0.263-0.053-0.358-0.151l-2.551-2.607c-0.14-0.146-0.327-0.228-0.526-0.232l-0.029-0.001
		c-0.184,0-0.362,0.074-0.501,0.208c-0.296,0.285-0.306,0.758-0.021,1.054l2.824,2.878C18.949,19.243,19,19.368,19,19.5v1.457
		c0.145,0.815,0.453,1.577,0.915,2.265c0.154,0.229,0.093,0.54-0.136,0.694C19.696,23.97,19.6,24,19.5,24z"/>
	<path d="M6,24c-0.551,0-1-0.448-1-1v-9.268c-0.133-0.113-0.267-0.226-0.401-0.338C2.726,11.817,0.956,10.328,1,8.488l0-4.433
		L0.056,2.23c-0.061-0.119-0.073-0.254-0.032-0.381C0.064,1.721,0.151,1.617,0.27,1.556C0.34,1.519,0.42,1.5,0.5,1.5
		c0.187,0,0.357,0.104,0.444,0.27l1,1.934C1.98,3.775,2,3.854,2,3.934V8.5c-0.031,1.303,1.47,2.632,3,3.923V8.256L3.623,6.85
		C3.53,6.754,3.479,6.628,3.481,6.495s0.055-0.259,0.15-0.352C3.724,6.051,3.849,6,3.98,6c0.136,0,0.263,0.053,0.358,0.15
		l2.551,2.607c0.144,0.15,0.336,0.231,0.541,0.231c0.193,0,0.376-0.074,0.515-0.207C8.089,8.644,8.17,8.458,8.174,8.259
		c0.004-0.199-0.07-0.388-0.208-0.531L5.143,4.85C5.05,4.756,5,4.632,5,4.5V3.043C4.854,2.229,4.547,1.467,4.085,0.779
		C3.931,0.55,3.992,0.239,4.221,0.085C4.303,0.029,4.4,0,4.499,0c0.167,0,0.322,0.083,0.415,0.221
		c0.549,0.817,0.912,1.724,1.078,2.694C5.997,2.944,6,2.972,6,3v1.296L8.673,7.02c0.333,0.347,0.511,0.793,0.501,1.259
		C9.165,8.745,8.975,9.18,8.638,9.503C8.312,9.816,7.883,9.989,7.43,9.989c-0.48,0-0.927-0.19-1.259-0.535L6,9.278V23h11
		c0.276,0,0.5,0.224,0.5,0.5S17.275,24,17,24H6z"/>
	<path d="M7.5,3C7.224,3,7,2.776,7,2.5S7.224,2,7.5,2H11c0.276,0,0.5,0.224,0.5,0.5S11.275,3,11,3H7.5z"/>
	<path d="M7.5,16C7.224,16,7,15.776,7,15.5S7.224,15,7.5,15H13c0.276,0,0.5,0.224,0.5,0.5S13.275,16,13,16H7.5z"/>
	<path d="M7.5,13C7.224,13,7,12.776,7,12.5C7,12.224,7.224,12,7.5,12h9c0.276,0,0.5,0.224,0.5,0.5c0,0.276-0.224,0.5-0.5,0.5H7.5z"
		/>
	<path d="M7.5,19C7.224,19,7,18.776,7,18.5S7.224,18,7.5,18H12c0.276,0,0.5,0.224,0.5,0.5S12.275,19,12,19H7.5z"/>
	<path d="M16.5,9C14.018,9,12,6.981,12,4.5S14.018,0,16.5,0C16.775,0,17,0.224,17,0.5S16.775,1,16.5,1C14.57,1,13,2.57,13,4.5
		S14.57,8,16.5,8S20,6.43,20,4.5C20,4.224,20.224,4,20.5,4S21,4.224,21,4.5C21,6.981,18.981,9,16.5,9z"/>
	<path d="M16.5,5.793c-0.264,0-0.512-0.102-0.7-0.286c-0.003-0.003-1.153-1.153-1.153-1.153C14.552,4.259,14.5,4.134,14.5,4
		s0.052-0.259,0.146-0.354S14.866,3.5,15,3.5s0.259,0.052,0.354,0.146l1.142,1.142l3.651-3.642C20.241,1.052,20.366,1,20.5,1
		s0.259,0.052,0.354,0.146S21,1.366,21,1.5s-0.052,0.259-0.146,0.354L17.207,5.5c-0.188,0.189-0.439,0.293-0.706,0.293H16.5z"/>
</g>
</svg>
