<?xml version="1.0" encoding="utf-8"?>
<!-- Generator: Adobe Illustrator 22.1.0, SVG Export Plug-In . SVG Version: 6.00 Build 0)  -->
<svg version="1.1" id="Layer_1" xmlns="http://www.w3.org/2000/svg" xmlns:xlink="http://www.w3.org/1999/xlink" x="0px" y="0px"
	 viewBox="0 0 24 24" style="enable-background:new 0 0 24 24;" xml:space="preserve">
<g>
	<title>project-blueprint-home</title>
	<path d="M12,18c-0.551,0-1-0.448-1-1v-4.188L9.836,13.87C9.744,13.954,9.624,14,9.5,14c0,0,0,0,0,0c-0.14,0-0.275-0.06-0.37-0.164
		c-0.185-0.204-0.17-0.521,0.033-0.706l5.164-4.694C14.513,8.268,14.752,8.175,15,8.175s0.487,0.093,0.672,0.261l5.164,4.694
		c0.204,0.186,0.219,0.502,0.034,0.706C20.775,13.94,20.641,14,20.5,14c-0.125,0-0.244-0.046-0.336-0.13L19,12.812V17
		c0,0.552-0.448,1-1,1H12z M18,17v-5.097l-3-2.727l-3,2.727V17h1v-2c0-1.103,0.897-2,2-2s2,0.897,2,2v2H18z M16,17v-2
		c0-0.552-0.448-1-1-1s-1,0.448-1,1v2H16z"/>
	<path d="M4,22c-1.103,0-2-0.897-2-2s0.897-2,2-2s2,0.897,2,2S5.103,22,4,22z M4,19c-0.551,0-1,0.448-1,1s0.449,1,1,1s1-0.448,1-1
		S4.551,19,4,19z"/>
	<path d="M4,24c-2.206,0-4-1.794-4-4V4c0-2.206,1.794-4,4-4s4,1.794,4,4v16c0,1.155-0.507,2.247-1.362,3H22.5
		c0.276,0,0.5-0.224,0.5-0.5v-18C23,4.224,22.776,4,22.5,4H10C9.724,4,9.5,3.776,9.5,3.5S9.724,3,10,3h12.5
		C23.327,3,24,3.673,24,4.5v18c0,0.827-0.673,1.5-1.5,1.5H4z M4,17c-1.654,0-3,1.346-3,3s1.346,3,3,3s3-1.346,3-3S5.654,17,4,17z
		 M4,1C2.346,1,1,2.346,1,4v13.362C1.753,16.508,2.845,16,4,16s2.247,0.508,3,1.362V4C7,2.346,5.654,1,4,1z"/>
</g>
</svg>
