<?xml version="1.0" encoding="utf-8"?>
<!-- Generator: Adobe Illustrator 22.1.0, SVG Export Plug-In . SVG Version: 6.00 Build 0)  -->
<svg version="1.1" id="Layer_1" xmlns="http://www.w3.org/2000/svg" xmlns:xlink="http://www.w3.org/1999/xlink" x="0px" y="0px"
	 viewBox="0 0 24 24" style="enable-background:new 0 0 24 24;" xml:space="preserve">
<g>
	<title>project-blueprint-buildings</title>
	<path d="M4,22c-1.103,0-2-0.897-2-2s0.897-2,2-2s2,0.897,2,2S5.103,22,4,22z M4,19c-0.551,0-1,0.448-1,1s0.449,1,1,1s1-0.448,1-1
		S4.551,19,4,19z"/>
	<path d="M4,24c-2.206,0-4-1.794-4-4V4c0-2.206,1.794-4,4-4c1.824,0,3.421,1.25,3.873,3H22.5C23.327,3,24,3.673,24,4.5v18
		c0,0.827-0.673,1.5-1.5,1.5H4z M22.5,23c0.276,0,0.5-0.224,0.5-0.5v-18C23,4.224,22.776,4,22.5,4H8v16c0,1.155-0.507,2.247-1.362,3
		H22.5z M4,17c-1.654,0-3,1.346-3,3s1.346,3,3,3s3-1.346,3-3S5.654,17,4,17z M4,1C2.346,1,1,2.346,1,4v13.362
		C1.753,16.508,2.845,16,4,16s2.247,0.508,3,1.362V4C7,2.346,5.654,1,4,1z"/>
	<path d="M11,19c-0.551,0-1-0.448-1-1V9.309c0-0.551,0.449-1,1-1c0.155,0,0.31,0.037,0.448,0.106L15,10.191V8.5
		C15,8.224,15.224,8,15.5,8S16,8.224,16,8.5V12h3v-2c0-0.276,0.224-0.5,0.5-0.5S20,9.724,20,10v2c0.552,0,1,0.448,1,1v5
		c0,0.552-0.448,1-1,1H11z M20,18v-5h-4v1h2c0.276,0,0.5,0.224,0.5,0.5S18.276,15,18,15h-2v1h2c0.276,0,0.5,0.224,0.5,0.5
		S18.276,17,18,17h-2v1H20z M11,18h4v-6.691l-4-2L11,12h2c0.276,0,0.5,0.224,0.5,0.5c0,0.276-0.224,0.5-0.5,0.5h-2v1h2
		c0.276,0,0.5,0.224,0.5,0.5S13.276,15,13,15h-2V18z"/>
</g>
</svg>
