<?xml version="1.0" encoding="utf-8"?>
<!-- Generator: Adobe Illustrator 22.1.0, SVG Export Plug-In . SVG Version: 6.00 Build 0)  -->
<svg version="1.1" id="Layer_1" xmlns="http://www.w3.org/2000/svg" xmlns:xlink="http://www.w3.org/1999/xlink" x="0px" y="0px"
	 viewBox="0 0 24 24" style="enable-background:new 0 0 24 24;" xml:space="preserve">
<g>
	<title>project-book-house</title>
	<path d="M5.5,24C4.121,24,3,22.878,3,21.5V20H2.5C2.224,20,2,19.776,2,19.5S2.224,19,2.5,19H3v-2H2.5C2.224,17,2,16.776,2,16.5
		S2.224,16,2.5,16H3v-2H2.5C2.224,14,2,13.776,2,13.5S2.224,13,2.5,13H3v-2H2.5C2.224,11,2,10.776,2,10.5S2.224,10,2.5,10H3V8H2.5
		C2.224,8,2,7.776,2,7.5S2.224,7,2.5,7H3V2.5C3,1.121,4.121,0,5.5,0h16C21.776,0,22,0.224,22,0.5S21.776,1,21.5,1h-16
		C4.673,1,4,1.673,4,2.5S4.673,4,5.5,4H21c0.552,0,1,0.449,1,1v18c0,0.552-0.448,1-1,1H5.5z M4,21.5C4,22.327,4.673,23,5.5,23H21V5
		H5.5C4.951,5,4.428,4.822,4,4.5V7h0.5C4.776,7,5,7.224,5,7.5S4.776,8,4.5,8H4v2h0.5C4.776,10,5,10.224,5,10.5S4.776,11,4.5,11H4v2
		h0.5C4.776,13,5,13.224,5,13.5S4.776,14,4.5,14H4v2h0.5C4.776,16,5,16.224,5,16.5S4.776,17,4.5,17H4v2h0.5
		C4.776,19,5,19.224,5,19.5S4.776,20,4.5,20H4V21.5z"/>
	<path d="M5.5,3C5.224,3,5,2.776,5,2.5S5.224,2,5.5,2h15C20.776,2,21,2.224,21,2.5S20.776,3,20.5,3H5.5z"/>
	<path d="M10.5,19C9.673,19,9,18.327,9,17.5v-4.293l-0.646,0.646C8.259,13.948,8.134,14,8,14s-0.259-0.052-0.354-0.146
		S7.5,13.634,7.5,13.5s0.052-0.259,0.146-0.354L12.292,8.5C12.488,8.309,12.736,8.207,13,8.207c0.268,0,0.519,0.105,0.708,0.294
		l4.646,4.646c0.094,0.094,0.146,0.22,0.146,0.354s-0.052,0.259-0.146,0.354S18.134,14,18,14s-0.259-0.052-0.354-0.146L17,13.207
		V17.5c0,0.827-0.673,1.5-1.5,1.5H10.5z M10,17.5c0,0.276,0.224,0.5,0.5,0.5h5c0.276,0,0.5-0.224,0.5-0.5v-5.293l-3-3l0-0.25
		L13,9.207l-3,3V17.5z"/>
</g>
</svg>
