<?xml version="1.0" encoding="utf-8"?>
<!-- Generator: Adobe Illustrator 22.1.0, SVG Export Plug-In . SVG Version: 6.00 Build 0)  -->
<svg version="1.1" id="Layer_1" xmlns="http://www.w3.org/2000/svg" xmlns:xlink="http://www.w3.org/1999/xlink" x="0px" y="0px"
	 viewBox="0 0 24 24" style="enable-background:new 0 0 24 24;" xml:space="preserve">
<g>
	<title>project-blueprint-create</title>
	<path d="M11,11.9c-0.134,0-0.259-0.052-0.354-0.147c-0.128-0.128-0.177-0.316-0.127-0.491l1-3.5
		c0.002-0.008,0.005-0.017,0.009-0.026c0.01-0.027,0.02-0.052,0.034-0.076c0.005-0.009,0.022-0.036,0.028-0.044
		c0.006-0.011,0.023-0.042,0.055-0.073c0.009-0.009,0.021-0.019,0.034-0.028l7.114-7.12c0.188-0.189,0.439-0.293,0.706-0.293
		c0.265,0,0.513,0.102,0.701,0.286C20.204,0.391,22,2.188,22,2.188c0.189,0.189,0.293,0.44,0.293,0.707
		c0,0.267-0.104,0.518-0.293,0.707l-7.146,7.151c-0.06,0.06-0.135,0.104-0.217,0.127l-3.499,1C11.093,11.893,11.046,11.9,11,11.9z
		 M11.728,10.672l1.818-0.52l-1.299-1.299L11.728,10.672z M14.5,9.692l4.792-4.796L17.5,3.103l-4.793,4.796L14.5,9.692z M20,4.189
		l1.292-1.293l-1.788-1.789L19.5,0.852l0,0.25l-1.292,1.294L20,4.189z"/>
	<path d="M1,23.9c-0.551,0-1-0.448-1-1v-17c0-0.551,0.449-1,1-1h11c0.276,0,0.5,0.224,0.5,0.5S12.276,5.9,12,5.9H1v17h22v-17h-1
		c-0.276,0-0.5-0.224-0.5-0.5s0.224-0.5,0.5-0.5h1c0.552,0,1,0.449,1,1v17c0,0.552-0.448,1-1,1H1z"/>
	<path d="M17.5,20.9c-0.012,0-0.025-0.001-0.039-0.003l-4.924,0C12.524,20.899,12.511,20.9,12.5,20.9H4c-0.551,0-1-0.448-1-1v-11
		c0-0.551,0.449-1,1-1h4c0.276,0,0.5,0.224,0.5,0.5S8.276,8.9,8,8.9H4v3.997h4c0.276,0,0.5,0.224,0.5,0.5s-0.224,0.5-0.5,0.5H4V15.9
		h3c0.551,0,1,0.448,1,1v3h4v-3c0-0.552,0.448-1,1-1h4c0.552,0,1,0.448,1,1v3h2v-5.003h-4c-0.276,0-0.5-0.224-0.5-0.5
		s0.224-0.5,0.5-0.5h4v-1h-4c-0.276,0-0.5-0.224-0.5-0.5c0-0.276,0.224-0.5,0.5-0.5h4V8.9c0-0.276,0.224-0.5,0.5-0.5
		S21,8.624,21,8.9v11c0,0.552-0.448,1-1,1H17.5z M4,19.9h3v-3H4V19.9z M17,19.897v-1h-4v1H17z M17,17.897V16.9h-4l0,0.997H17z"/>
</g>
</svg>
