<?xml version="1.0" encoding="utf-8"?>
<!-- Generator: Adobe Illustrator 22.1.0, SVG Export Plug-In . SVG Version: 6.00 Build 0)  -->
<svg version="1.1" id="Layer_1" xmlns="http://www.w3.org/2000/svg" xmlns:xlink="http://www.w3.org/1999/xlink" x="0px" y="0px"
	 viewBox="0 0 24 24" style="enable-background:new 0 0 24 24;" xml:space="preserve">
<g>
	<title>project-home-shopping</title>
	<path d="M16,22.5c-1.103,0-2-0.897-2-2s0.897-2,2-2s2,0.897,2,2S17.103,22.5,16,22.5z M16,19.5c-0.552,0-1,0.448-1,1s0.448,1,1,1
		s1-0.448,1-1S16.552,19.5,16,19.5z"/>
	<path d="M5,22.5c-1.103,0-2-0.897-2-2s0.897-2,2-2s2,0.897,2,2S6.103,22.5,5,22.5z M5,19.5c-0.551,0-1,0.448-1,1s0.449,1,1,1
		s1-0.448,1-1S5.551,19.5,5,19.5z"/>
	<path d="M0.5,17.5C0.224,17.5,0,17.276,0,17s0.224-0.5,0.5-0.5h19.062l1.942-14.566C21.538,1.687,21.75,1.5,22,1.5h1.5
		C23.776,1.5,24,1.724,24,2s-0.224,0.5-0.5,0.5h-1.062l-1.942,14.566C20.463,17.313,20.25,17.5,20,17.5H0.5z"/>
	<path d="M6,14.5c-0.551,0-1-0.448-1-1V9c0-0.276,0.224-0.5,0.5-0.5S6,8.724,6,9v4.5h2v-3c0-0.551,0.449-1,1-1h2
		c0.551,0,1,0.449,1,1v3h2V9c0-0.276,0.224-0.5,0.5-0.5S15,8.724,15,9v4.5c0,0.552-0.448,1-1,1H6z M11,13.5v-3H9l0,3H11z"/>
	<path d="M2.5,9C2.355,9,2.217,8.937,2.122,8.827c-0.18-0.208-0.158-0.525,0.051-0.705L9.018,2.19C9.289,1.955,9.638,1.826,10,1.826
		c0.362,0,0.711,0.129,0.983,0.365l6.845,5.932c0.208,0.181,0.231,0.497,0.05,0.705C17.783,8.937,17.645,9,17.5,9
		c-0.12,0-0.236-0.043-0.327-0.122l-6.845-5.932C10.238,2.868,10.121,2.825,10,2.825c-0.121,0-0.238,0.043-0.328,0.121L2.827,8.878
		C2.737,8.957,2.62,9,2.5,9L2.5,9z"/>
</g>
</svg>
