<?xml version="1.0" encoding="utf-8"?>
<!-- Generator: Adobe Illustrator 22.1.0, SVG Export Plug-In . SVG Version: 6.00 Build 0)  -->
<svg version="1.1" id="Light" xmlns="http://www.w3.org/2000/svg" xmlns:xlink="http://www.w3.org/1999/xlink" x="0px" y="0px"
	 viewBox="0 0 24 24" style="enable-background:new 0 0 24 24;" xml:space="preserve">
<g>
	<title>tea-pot</title>
	<path d="M6.266,20c-0.326,0-0.632-0.159-0.819-0.426c-0.845-1.207-1.334-2.624-1.422-4.11C2.312,15.23,1,13.75,1,12v-1.5
		C1,10.224,0.776,10,0.5,10S0,9.776,0,9.5S0.224,9,0.5,9C1.327,9,2,9.673,2,10.5V12c0,1.199,0.872,2.23,2.029,2.453
		c0.096-1.466,0.584-2.863,1.418-4.054c1.178-1.684,2.919-2.829,4.923-3.245C10.131,6.819,10,6.417,10,6c0-1.103,0.897-2,2-2
		s2,0.897,2,2c0,0.416-0.131,0.818-0.368,1.152c1.062,0.219,2.054,0.649,2.955,1.28c0.941,0.659,1.71,1.489,2.291,2.471
		c0.503-0.265,1.061-0.403,1.628-0.403c0.941,0.002,1.819,0.368,2.479,1.032s1.023,1.543,1.021,2.476
		c-0.004,1.926-1.574,3.492-3.5,3.492c-0.301,0-0.592-0.037-0.877-0.112c-0.245,0.78-0.606,1.514-1.075,2.185
		C18.367,19.841,18.061,20,17.736,20H6.266z M6.247,11c-1.661,2.398-1.655,5.609,0.019,8l11.469,0c1.679-2.398,1.681-5.596,0.018-8
		H6.247z M19.871,16.417c0.206,0.055,0.415,0.083,0.624,0.083c1.387,0,2.509-1.119,2.512-2.494c0.001-0.667-0.258-1.295-0.729-1.769
		s-1.099-0.736-1.765-0.737l-0.006-0.25v0.25c-0.404,0-0.814,0.104-1.175,0.295C19.959,13.244,20.149,14.868,19.871,16.417z
		 M16.914,10c-0.278-0.274-0.579-0.524-0.899-0.748c-1.127-0.789-2.442-1.226-3.803-1.264C12.142,7.995,12.072,8,12,8
		c-0.071,0-0.14-0.004-0.209-0.012c-0.337,0.011-0.675,0.046-1.008,0.105C9.36,8.344,8.092,9,7.085,10H16.914z M12,5
		c-0.551,0-1,0.449-1,1c0,0.506,0.379,0.928,0.884,0.987c0.051-0.001,0.102-0.001,0.154-0.001l0.086,0.001
		C12.624,6.924,13,6.502,13,6C13,5.449,12.552,5,12,5z"/>
</g>
</svg>
