<?xml version="1.0" encoding="utf-8"?>
<!-- Generator: Adobe Illustrator 22.1.0, SVG Export Plug-In . SVG Version: 6.00 Build 0)  -->
<svg version="1.1" id="Light" xmlns="http://www.w3.org/2000/svg" xmlns:xlink="http://www.w3.org/1999/xlink" x="0px" y="0px"
	 viewBox="0 0 24 24" style="enable-background:new 0 0 24 24;" xml:space="preserve">
<g>
	<title>tea-cup-herbal</title>
	<path d="M0.5,20.5C0.224,20.5,0,20.276,0,20s0.224-0.5,0.5-0.5h5.634C3.622,18.104,2,15.418,2,12.5v-8c0-0.551,0.449-1,1-1h14
		c0.552,0,1,0.449,1,1h2c1.995,0,3.5,1.72,3.5,4C23.5,8.776,23.276,9,23,9s-0.5-0.224-0.5-0.5c0-1.454-0.876-3-2.5-3h-2V9
		c0,0.276-0.224,0.5-0.5,0.5S17,9.276,17,9V4.5h-6v2h0.5C12.327,6.5,13,7.173,13,8v4c0,0.827-0.673,1.5-1.5,1.5h-2
		C8.673,13.5,8,12.827,8,12V8c0-0.827,0.673-1.5,1.5-1.5H10v-2H3v8c0,3.86,3.14,7,7,7h1.293L13,17.793V14.5
		c0-0.276,0.224-0.5,0.5-0.5s0.5,0.224,0.5,0.5v2.293l2-2V11.5c0-0.276,0.224-0.5,0.5-0.5s0.5,0.224,0.5,0.5v2.293l2-2V8.5
		C19,8.224,19.224,8,19.5,8S20,8.224,20,8.5v2.293l1.146-1.146C21.241,9.552,21.366,9.5,21.5,9.5s0.259,0.052,0.354,0.146
		c0.195,0.195,0.195,0.512,0,0.707L20.707,11.5H23c0.276,0,0.5,0.224,0.5,0.5c0,0.276-0.224,0.5-0.5,0.5h-3.293l-2,2H20
		c0.276,0,0.5,0.224,0.5,0.5s-0.224,0.5-0.5,0.5h-3.293l-2,2H17c0.276,0,0.5,0.224,0.5,0.5s-0.224,0.5-0.5,0.5h-3.293l-1,1H23.5
		c0.276,0,0.5,0.224,0.5,0.5s-0.224,0.5-0.5,0.5H0.5z M9.5,7.5C9.224,7.5,9,7.724,9,8v4c0,0.276,0.224,0.5,0.5,0.5h2
		c0.276,0,0.5-0.224,0.5-0.5V8c0-0.276-0.224-0.5-0.5-0.5H9.5z"/>
</g>
</svg>
