<?xml version="1.0" encoding="utf-8"?>
<!-- Generator: Adobe Illustrator 22.1.0, SVG Export Plug-In . SVG Version: 6.00 Build 0)  -->
<svg version="1.1" id="Light" xmlns="http://www.w3.org/2000/svg" xmlns:xlink="http://www.w3.org/1999/xlink" x="0px" y="0px"
	 viewBox="0 0 24 24" style="enable-background:new 0 0 24 24;" xml:space="preserve">
<g>
	<title>tea-bottle-herbal</title>
	<path d="M10.75,24c-0.134,0-0.259-0.052-0.354-0.146s-0.146-0.22-0.146-0.354s0.052-0.259,0.146-0.354l1.854-1.854V18
		c0-0.276,0.224-0.5,0.5-0.5s0.5,0.224,0.5,0.5v2.293l2-2V15c0-0.276,0.224-0.5,0.5-0.5s0.5,0.224,0.5,0.5v2.293l2-2V12
		c0-0.276,0.224-0.5,0.5-0.5s0.5,0.224,0.5,0.5v2.293l1.146-1.146C20.491,13.052,20.616,13,20.75,13s0.259,0.052,0.354,0.146
		c0.195,0.195,0.195,0.512,0,0.707L19.957,15h2.293c0.276,0,0.5,0.224,0.5,0.5s-0.224,0.5-0.5,0.5h-3.293l-2,2h2.293
		c0.276,0,0.5,0.224,0.5,0.5s-0.224,0.5-0.5,0.5h-3.293l-2,2h2.293c0.276,0,0.5,0.224,0.5,0.5s-0.224,0.5-0.5,0.5h-3.293
		l-1.854,1.854C11.009,23.948,10.884,24,10.75,24z"/>
	<path d="M2.75,24c-0.827,0-1.5-0.673-1.5-1.5v-8c0-3.517,1.346-5.821,4-6.851V4c-0.551,0-1-0.449-1-1V1c0-0.551,0.449-1,1-1h5
		c0.551,0,1,0.449,1,1v2c0,0.551-0.449,1-1,1v3.649c2.654,1.03,4,3.334,4,6.851c0,0.276-0.224,0.5-0.5,0.5s-0.5-0.224-0.5-0.5
		c0-3.234-1.197-5.205-3.658-6.026C9.387,8.406,9.25,8.215,9.25,8V4h-3v4c0,0.215-0.137,0.406-0.342,0.474
		C3.447,9.295,2.25,11.266,2.25,14.5v8c0,0.276,0.224,0.5,0.5,0.5h5.5c0.276,0,0.5,0.224,0.5,0.5S8.526,24,8.25,24H2.75z M5.25,3h5
		V1h-5L5.25,3z"/>
	<path d="M7.75,17c-1.31,0-2.375-1.065-2.375-2.375c0-0.043,0.006-0.087,0.017-0.129c0.286-1.076,0.842-2.073,1.607-2.882
		c0.145-0.181,0.386-0.309,0.649-0.336c0.035-0.004,0.069-0.005,0.104-0.005c0.232,0,0.449,0.077,0.63,0.224
		c0.052,0.042,0.102,0.091,0.145,0.145c0.744,0.785,1.296,1.777,1.582,2.854c0.011,0.042,0.017,0.085,0.017,0.128
		C10.125,15.935,9.06,17,7.75,17z M6.376,14.687C6.409,15.414,7.018,16,7.75,16s1.341-0.586,1.374-1.313
		c-0.248-0.89-0.714-1.714-1.349-2.385l-0.025-0.028C7.095,12.968,6.625,13.797,6.376,14.687z"/>
</g>
</svg>
