<?xml version="1.0" encoding="utf-8"?>
<!-- Generator: Adobe Illustrator 22.1.0, SVG Export Plug-In . SVG Version: 6.00 Build 0)  -->
<svg version="1.1" id="Light" xmlns="http://www.w3.org/2000/svg" xmlns:xlink="http://www.w3.org/1999/xlink" x="0px" y="0px"
	 viewBox="0 0 24 24" style="enable-background:new 0 0 24 24;" xml:space="preserve">
<g>
	<title>tea-glass-herbal</title>
	<path d="M10.251,23.999c-0.134,0-0.259-0.052-0.354-0.146s-0.146-0.22-0.146-0.354s0.052-0.259,0.146-0.354l1.854-1.854v-3.293
		c0-0.276,0.224-0.5,0.5-0.5c0.276,0,0.5,0.224,0.5,0.5v2.293l2-2v-3.293c0-0.276,0.224-0.5,0.5-0.5s0.5,0.224,0.5,0.5v2.293l2-2
		v-3.293c0-0.276,0.224-0.5,0.5-0.5s0.5,0.224,0.5,0.5v2.293l1.146-1.146c0.094-0.094,0.22-0.146,0.354-0.146
		s0.259,0.052,0.354,0.146c0.195,0.195,0.195,0.512,0,0.707l-1.146,1.146h2.293c0.276,0,0.5,0.224,0.5,0.5s-0.224,0.5-0.5,0.5
		h-3.293l-2,2h2.293c0.276,0,0.5,0.224,0.5,0.5s-0.224,0.5-0.5,0.5h-3.293l-2,2h2.293c0.276,0,0.5,0.224,0.5,0.5s-0.224,0.5-0.5,0.5
		h-3.293l-1.854,1.854C10.51,23.947,10.385,23.999,10.251,23.999z"/>
	<path d="M4.66,23.999c-0.517,0-0.954-0.402-0.998-0.914l-1.913-22c-0.003-0.03-0.004-0.059-0.004-0.088
		c0.001-0.269,0.106-0.52,0.295-0.708c0.183-0.182,0.44-0.291,0.686-0.291c0.003,0,14.021,0,14.021,0
		c0.029,0,0.057,0.001,0.086,0.004c0.55,0.048,0.959,0.533,0.912,1.082l-0.953,10.957c-0.022,0.256-0.239,0.457-0.493,0.457
		c-0.018,0-0.036-0.001-0.055-0.003c-0.127-0.011-0.247-0.074-0.333-0.176s-0.127-0.232-0.115-0.365l0.257-2.957H3.441l1.217,14
		l3.593,0c0.276,0,0.5,0.224,0.5,0.5s-0.224,0.5-0.5,0.5H4.66z M16.14,7.999l0.609-7l-14.002,0l-0.001-0.25l-0.001,0.25l0.609,7
		H16.14z"/>
</g>
</svg>
