<?xml version="1.0" encoding="utf-8"?>
<!-- Generator: Adobe Illustrator 22.1.0, SVG Export Plug-In . SVG Version: 6.00 Build 0)  -->
<svg version="1.1" id="Light" xmlns="http://www.w3.org/2000/svg" xmlns:xlink="http://www.w3.org/1999/xlink" x="0px" y="0px"
	 viewBox="0 0 24 24" style="enable-background:new 0 0 24 24;" xml:space="preserve">
<g>
	<title>giraffe</title>
	<path d="M8.751,12.083c-0.413,0-0.749-0.335-0.751-0.746c0-0.001,0-0.004,0-0.004c0-0.414,0.336-0.75,0.75-0.75
		c0.408,0,0.742,0.329,0.75,0.735c0,0.005,0,0.022,0,0.026c-0.005,0.406-0.338,0.737-0.745,0.739
		C8.753,12.083,8.751,12.083,8.751,12.083z"/>
	<path d="M15.232,12.083c-0.406-0.012-0.733-0.345-0.732-0.749c0.001-0.415,0.338-0.75,0.75-0.75c0.414,0,0.75,0.336,0.75,0.75
		c-0.001,0.203-0.079,0.391-0.221,0.533c-0.142,0.14-0.329,0.217-0.528,0.217C15.251,12.083,15.238,12.083,15.232,12.083z"/>
	<path d="M11,20.583c-0.216,0-0.406-0.137-0.474-0.342l-0.5-1.5c-0.042-0.127-0.033-0.263,0.027-0.382s0.163-0.208,0.289-0.25
		c0.051-0.017,0.104-0.026,0.158-0.026c0.215,0,0.406,0.137,0.474,0.342l0.5,1.5c0.042,0.127,0.033,0.263-0.027,0.382
		s-0.163,0.208-0.289,0.25C11.107,20.574,11.053,20.583,11,20.583z"/>
	<path d="M13,20.583c-0.054,0-0.107-0.009-0.158-0.026c-0.126-0.042-0.229-0.131-0.289-0.25s-0.07-0.255-0.027-0.382l0.5-1.5
		c0.068-0.204,0.258-0.342,0.473-0.342c0.054,0,0.108,0.009,0.159,0.026c0.126,0.042,0.229,0.131,0.289,0.25s0.07,0.255,0.027,0.382
		l-0.5,1.5C13.406,20.446,13.215,20.583,13,20.583z"/>
	<path d="M12,24.083c-1.825,0-4-0.867-4-5c0-1.793-1.416-3.209-2.354-4.146C4.874,14.165,4,13.29,4,10.583
		C3.971,9.819,4.077,9.057,4.315,8.32c-1.266-0.5-3.15-1.952-3.305-6.168c-0.002-0.054,0-0.11,0.008-0.165
		c0.034-0.264,0.169-0.5,0.38-0.663c0.177-0.137,0.388-0.209,0.61-0.209c0.043,0,0.086,0.003,0.129,0.008
		c2.54,0.323,3.834,2.511,4.426,3.996C6.707,5.007,6.853,4.902,7,4.806V1.583c0-0.827,0.673-1.5,1.5-1.5s1.5,0.673,1.5,1.5v2.5
		C9.994,4.186,9.994,4.262,9.999,4.337c0.03,0.497,0.252,0.952,0.624,1.281c0.346,0.307,0.772,0.469,1.234,0.469
		c0.038,0,0.076-0.001,0.114-0.003c0.005,0,0.025-0.001,0.03-0.001l0.033,0.001c0.034,0.002,0.072,0.003,0.109,0.003
		c0.037,0,0.075-0.001,0.112-0.003c1.025-0.062,1.809-0.946,1.747-1.971L14,1.583c0-0.827,0.673-1.5,1.5-1.5s1.5,0.673,1.5,1.5
		v3.222c0.147,0.096,0.293,0.201,0.437,0.314c0.593-1.485,1.886-3.673,4.427-3.996c0.043-0.005,0.085-0.008,0.127-0.008
		c0.223,0,0.434,0.072,0.611,0.209c0.211,0.163,0.346,0.399,0.38,0.664c0.007,0.055,0.009,0.109,0.007,0.163
		c-0.155,4.217-2.039,5.669-3.306,6.169c0.239,0.739,0.345,1.505,0.316,2.281c0,2.689-0.874,3.563-1.646,4.335
		C17.416,15.874,16,17.29,16,19.083C16,21.364,15.306,24.083,12,24.083z M5.394,8.279C5.103,9.012,4.97,9.781,4.999,10.564
		c0,2.312,0.658,2.969,1.354,3.665C7.407,15.283,9,16.876,9,19.083c0,2.729,0.953,4,3,4c2.047,0,3-1.271,3-4
		c0-2.207,1.593-3.8,2.646-4.854C18.342,13.533,19,12.876,19,10.583c0.03-0.798-0.104-1.571-0.396-2.307
		c-0.032-0.049-0.054-0.099-0.067-0.153c-0.001-0.004-0.002-0.008-0.003-0.013c-0.475-1.094-1.266-1.991-2.289-2.597
		C16.094,5.423,16,5.259,16,5.083v-3.5c0-0.276-0.224-0.5-0.5-0.5S15,1.307,15,1.583v2.5c0.045,0.74-0.209,1.471-0.717,2.042
		c-0.508,0.571-1.207,0.911-1.968,0.957c-0.058,0.004-0.116,0.005-0.174,0.005c-0.047,0-0.094-0.001-0.141-0.004
		c-0.049,0.002-0.098,0.004-0.147,0.004c-0.697,0-1.37-0.256-1.893-0.72C9.387,5.86,9.047,5.161,9.001,4.398
		c-0.007-0.114-0.007-0.23,0-0.345L9,1.583c0-0.276-0.224-0.5-0.5-0.5S8,1.307,8,1.583v3.5c0,0.176-0.094,0.34-0.245,0.43
		C6.732,6.119,5.942,7.015,5.466,8.107C5.465,8.113,5.464,8.118,5.463,8.123C5.45,8.177,5.427,8.229,5.394,8.279z M2.01,2.115
		C2.058,3.439,2.42,6.542,4.691,7.397c0.281-0.564,0.642-1.083,1.076-1.55C5.372,4.718,4.291,2.405,2.01,2.115z M18.232,5.848
		c0.433,0.465,0.793,0.984,1.074,1.547c1.028-0.402,2.549-1.617,2.684-5.279l-0.003,0C19.708,2.405,18.627,4.719,18.232,5.848z"/>
</g>
</svg>
