<?xml version="1.0" encoding="utf-8"?>
<!-- Generator: Adobe Illustrator 22.1.0, SVG Export Plug-In . SVG Version: 6.00 Build 0)  -->
<svg version="1.1" id="Light" xmlns="http://www.w3.org/2000/svg" xmlns:xlink="http://www.w3.org/1999/xlink" x="0px" y="0px"
	 viewBox="0 0 24 24" style="enable-background:new 0 0 24 24;" xml:space="preserve">
<g>
	<title>chair-1</title>
	<path d="M17.5,24c-0.827,0-1.5-0.673-1.5-1.5V17H8v5.5C8,23.327,7.327,24,6.5,24S5,23.327,5,22.5V17H3.5c-0.551,0-1-0.448-1-1v-1
		c0-0.552,0.449-1,1-1H5V9C4.449,9,4,8.551,4,8V4c0-0.551,0.449-1,1-1V1.5C5,0.673,5.673,0,6.5,0S8,0.673,8,1.5V3h8V1.5
		C16,0.673,16.673,0,17.5,0S19,0.673,19,1.5V3c0.552,0,1,0.449,1,1v4c0,0.551-0.448,1-1,1v5h1.5c0.552,0,1,0.448,1,1v1
		c0,0.552-0.448,1-1,1H19v5.5C19,23.327,18.327,24,17.5,24z M17,22.5c0,0.276,0.224,0.5,0.5,0.5s0.5-0.224,0.5-0.5V17h-1V22.5z
		 M6,22.5C6,22.776,6.224,23,6.5,23S7,22.776,7,22.5V17H6V22.5z M3.5,16h17v-1h-17h0L3.5,16z M18,14V9h-1v5H18z M16,14V9H8v5H16z
		 M7,14V9H6v5H7z M5,8h14V4H5h0L5,8z M18,3V1.5C18,1.224,17.776,1,17.5,1S17,1.224,17,1.5V3H18z M7,3V1.5C7,1.224,6.776,1,6.5,1
		S6,1.224,6,1.5V3H7z"/>
</g>
</svg>
