<?xml version="1.0" encoding="utf-8"?>
<!-- Generator: Adobe Illustrator 22.1.0, SVG Export Plug-In . SVG Version: 6.00 Build 0)  -->
<svg version="1.1" id="Light" xmlns="http://www.w3.org/2000/svg" xmlns:xlink="http://www.w3.org/1999/xlink" x="0px" y="0px"
	 viewBox="0 0 24 24" style="enable-background:new 0 0 24 24;" xml:space="preserve">
<g>
	<title>chair-retro</title>
	<path d="M19,24c-0.525,0-0.913-0.168-1.152-0.499c-0.485-0.673-0.136-1.718,0.232-2.824C18.287,20.056,18.5,19.419,18.5,19
		c-0.015-0.721-0.275-1.428-0.734-2H6.234c-0.459,0.572-0.719,1.281-0.734,2.01c0,0.409,0.213,1.048,0.419,1.665
		c0.369,1.107,0.718,2.153,0.233,2.826C5.913,23.832,5.526,24,5,24c-0.276,0-0.5-0.224-0.5-0.5S4.724,23,5,23
		c0.175,0,0.303-0.031,0.34-0.084c0.185-0.257-0.162-1.301-0.37-1.925C4.739,20.298,4.5,19.582,4.5,19
		c0.016-0.784,0.239-1.534,0.647-2.193C4.458,16.481,4,15.779,4,15c0-0.996,0.748-1.843,1.724-1.979
		c0.596-0.874,0.872-1.926,0.778-2.976C6.5,8.823,5.987,7.993,5.491,7.19C4.981,6.365,4.5,5.586,4.5,4.5
		C4.483,3.319,4.929,2.198,5.757,1.346C6.584,0.495,7.693,0.017,8.88,0l6.181,0c2.413,0,4.405,1.965,4.439,4.381
		c0,0.043,0,0.084,0,0.126c0,1.08-0.481,1.859-0.991,2.683C18.013,7.992,17.5,8.822,17.5,10c-0.095,1.085,0.18,2.146,0.776,3.021
		C19.252,13.157,20,14.004,20,15c0,0.779-0.458,1.481-1.147,1.807c0.408,0.658,0.631,1.406,0.647,2.183
		c0,0.592-0.239,1.309-0.47,2.002c-0.208,0.624-0.556,1.667-0.37,1.925C18.697,22.969,18.825,23,19,23c0.276,0,0.5,0.224,0.5,0.5
		S19.276,24,19,24z M6,14c-0.551,0-1,0.448-1,1s0.449,1,1,1h12c0.552,0,1-0.448,1-1s-0.448-1-1-1H6z M17.097,13
		c-0.485-0.938-0.69-1.981-0.595-3.045c-0.002-1.417,0.613-2.413,1.156-3.291C18.091,5.964,18.5,5.302,18.5,4.5
		c0-0.04,0-0.073,0-0.106C18.473,2.522,16.927,1,15.053,1L8.896,1C7.974,1.013,7.115,1.384,6.474,2.043
		c-0.641,0.66-0.987,1.53-0.974,2.45c0,0.809,0.409,1.471,0.842,2.171C6.885,7.543,7.5,8.538,7.5,10c0.093,1.015-0.118,2.07-0.598,3
		H17.097z"/>
</g>
</svg>
