<?xml version="1.0" encoding="utf-8"?>
<!-- Generator: Adobe Illustrator 22.1.0, SVG Export Plug-In . SVG Version: 6.00 Build 0)  -->
<svg version="1.1" id="Light" xmlns="http://www.w3.org/2000/svg" xmlns:xlink="http://www.w3.org/1999/xlink" x="0px" y="0px"
	 viewBox="0 0 24 24" style="enable-background:new 0 0 24 24;" xml:space="preserve">
<g>
	<title>chair</title>
	<path d="M19.5,24c-0.276,0-0.5-0.224-0.5-0.5V18h-1v1.5c0,0.276-0.224,0.5-0.5,0.5S17,19.776,17,19.5V18H7v1.5
		C7,19.776,6.776,20,6.5,20S6,19.776,6,19.5V18H5v5.5C5,23.776,4.776,24,4.5,24S4,23.776,4,23.5v-7
		c0.018-0.398,0.087-0.783,0.206-1.158c0.001-0.004,0.004-0.013,0.008-0.023h0c0.105-0.323,0.244-0.629,0.413-0.91L6,12.349V0.5
		C6,0.224,6.224,0,6.5,0S7,0.224,7,0.5V1h10V0.5C17,0.224,17.224,0,17.5,0S18,0.224,18,0.5v11.849l1.361,2.042
		c0.177,0.293,0.318,0.602,0.424,0.926c0.003,0.009,0.006,0.017,0.008,0.022c0.12,0.376,0.189,0.758,0.207,1.138l0,7.023
		C20,23.776,19.776,24,19.5,24z M19,17v-0.5c-0.008-0.159-0.03-0.328-0.065-0.5H5.066C5.03,16.176,5.007,16.351,5,16.523L5,17H19z
		 M18.56,15c-0.014-0.025-0.029-0.05-0.043-0.074L17.232,13H6.768l-1.297,1.945C5.46,14.963,5.45,14.981,5.439,15H18.56z M17,12v-2
		H7v2H17z M17,9V7H7v2H17z M17,6V5H7v1H17z M17,4V2H7v2H17z"/>
</g>
</svg>
