<?xml version="1.0" encoding="utf-8"?>
<!-- Generator: Adobe Illustrator 22.1.0, SVG Export Plug-In . SVG Version: 6.00 Build 0)  -->
<svg version="1.1" id="Light" xmlns="http://www.w3.org/2000/svg" xmlns:xlink="http://www.w3.org/1999/xlink" x="0px" y="0px"
	 viewBox="0 0 24 24" style="enable-background:new 0 0 24 24;" xml:space="preserve">
<g>
	<title>chair-bar</title>
	<path d="M18.5,24c-0.239,0-0.445-0.17-0.49-0.405L17.31,20H12.5v3.5c0,0.276-0.224,0.5-0.5,0.5c-0.276,0-0.5-0.224-0.5-0.5V20H6.69
		l-0.699,3.595C5.945,23.83,5.739,24,5.5,24c-0.032,0-0.064-0.003-0.096-0.009c-0.27-0.053-0.447-0.316-0.395-0.586L8.393,6H8
		C7.173,6,6.5,5.327,6.5,4.5V4c-1.103,0-2-0.897-2-2s0.897-2,2-2h11c1.103,0,2,0.897,2,2s-0.897,2-2,2v0.5C17.5,5.327,16.827,6,16,6
		h-0.394l3.384,17.405c0.026,0.131-0.001,0.264-0.076,0.375c-0.075,0.111-0.188,0.186-0.319,0.211C18.563,23.997,18.532,24,18.5,24z
		 M17.116,19l-0.194-1H12.5v1H17.116z M11.5,19v-1H7.079l-0.194,1H11.5z M16.727,17L14.588,6H12.5v11H16.727z M11.5,17V6H9.412
		L7.273,17H11.5z M7.5,4.5C7.5,4.776,7.724,5,8,5h8c0.276,0,0.5-0.224,0.5-0.5V4h-9V4.5z M6.5,1c-0.551,0-1,0.449-1,1s0.449,1,1,1
		h11c0.552,0,1-0.449,1-1s-0.448-1-1-1H6.5z"/>
</g>
</svg>
