<?xml version="1.0" encoding="utf-8"?>
<!-- Generator: Adobe Illustrator 22.1.0, SVG Export Plug-In . SVG Version: 6.00 Build 0)  -->
<svg version="1.1" id="Light" xmlns="http://www.w3.org/2000/svg" xmlns:xlink="http://www.w3.org/1999/xlink" x="0px" y="0px"
	 viewBox="0 0 24 24" style="enable-background:new 0 0 24 24;" xml:space="preserve">
<g>
	<title>chair-3</title>
	<path d="M19,24c-0.24,0-0.447-0.172-0.491-0.408L17.648,19H6.353l-0.861,4.592C5.447,23.829,5.24,24,5,24
		c-0.031,0-0.062-0.003-0.093-0.009c-0.131-0.024-0.245-0.099-0.32-0.209c-0.075-0.11-0.103-0.243-0.079-0.374l0.922-4.915
		c0.001-0.055,0.011-0.11,0.031-0.164l0.437-2.333C5.118,15.944,4.5,15.293,4.5,14.5C4.5,13.673,5.173,13,6,13h1.053l0.889-8H7
		C6.173,5,5.5,4.327,5.5,3.5S6.173,2,7,2h2.55C9.784,0.845,10.8,0,12,0c1.2,0,2.216,0.845,2.45,2H17c0.827,0,1.5,0.673,1.5,1.5
		S17.827,5,17,5h-0.941l0.889,8H18c0.827,0,1.5,0.673,1.5,1.5c0,0.793-0.618,1.444-1.398,1.497l1.39,7.411
		c0.025,0.131-0.003,0.264-0.078,0.375s-0.189,0.185-0.321,0.209C19.061,23.997,19.03,24,19,24z M17.46,18l-0.375-2H6.915L6.54,18
		H17.46z M6,14c-0.276,0-0.5,0.224-0.5,0.5S5.724,15,6,15h12c0.276,0,0.5-0.224,0.5-0.5S18.276,14,18,14H6z M15.941,13l-0.889-8
		h-1.274l0.445,8H15.941z M13.222,13l-0.445-8h-1.554l-0.444,8H13.222z M9.777,13l0.444-8H8.947l-0.889,8H9.777z M7,3
		C6.724,3,6.5,3.224,6.5,3.5S6.724,4,7,4h10c0.276,0,0.5-0.224,0.5-0.5S17.276,3,17,3h-3c-0.276,0-0.5-0.224-0.5-0.5
		C13.5,1.673,12.827,1,12,1s-1.5,0.673-1.5,1.5C10.5,2.776,10.276,3,10,3H7z"/>
</g>
</svg>
