<?xml version="1.0" encoding="utf-8"?>
<!-- Generator: Adobe Illustrator 22.1.0, SVG Export Plug-In . SVG Version: 6.00 Build 0)  -->
<svg version="1.1" id="Layer_1" xmlns="http://www.w3.org/2000/svg" xmlns:xlink="http://www.w3.org/1999/xlink" x="0px" y="0px"
	 viewBox="0 0 24 24" style="enable-background:new 0 0 24 24;" xml:space="preserve">
<g>
	<title>plane-take-off</title>
	<path d="M10.261,20.339c-0.121,0-0.239-0.021-0.35-0.063c-0.25-0.093-0.449-0.279-0.56-0.522c-0.111-0.243-0.12-0.515-0.026-0.765
		l2.156-5.748l-6.143,2.457c-0.119,0.048-0.244,0.072-0.372,0.072c-0.267,0-0.518-0.104-0.707-0.293l-3.744-3.745
		c-0.09-0.089-0.161-0.194-0.212-0.312c-0.106-0.246-0.109-0.517-0.01-0.766c0.099-0.248,0.288-0.443,0.534-0.548l2.608-1.122
		C3.56,8.93,3.693,8.903,3.829,8.903c0.155,0,0.31,0.037,0.449,0.107l2.583,1.295l4.262-1.854L6.589,6.575
		c-0.244-0.1-0.441-0.298-0.542-0.542c-0.102-0.246-0.102-0.518,0-0.765s0.295-0.439,0.541-0.541l2.389-0.99
		C9.101,3.687,9.229,3.661,9.36,3.661c0.131,0,0.259,0.026,0.382,0.076l6.271,2.587l4.301-1.871c0.016-0.007,0.033-0.013,0.05-0.019
		l0.045-0.018c0.291-0.114,0.597-0.172,0.909-0.172c1.022,0,1.959,0.639,2.331,1.589c0.243,0.621,0.229,1.3-0.039,1.913
		c-0.268,0.612-0.758,1.083-1.379,1.327l-4.523,1.684l-3.838,7.675c-0.096,0.192-0.255,0.351-0.446,0.447l-2.717,1.357
		C10.57,20.303,10.416,20.339,10.261,20.339z M12.346,11.856c0.131,0,0.255,0.051,0.35,0.142c0.141,0.139,0.188,0.348,0.119,0.533
		l-2.553,6.808l2.715-1.357l3.925-7.85c0.057-0.114,0.154-0.201,0.273-0.245l4.7-1.75c0.367-0.144,0.659-0.426,0.819-0.793
		c0.16-0.368,0.168-0.775,0.023-1.148c-0.223-0.57-0.785-0.953-1.399-0.953c-0.187,0-0.37,0.035-0.545,0.103l-0.054,0.022
		c-0.013,0.006-0.029,0.012-0.045,0.017L7.046,11.315c-0.064,0.028-0.131,0.041-0.199,0.041c-0.077,0-0.154-0.018-0.224-0.052
		l-2.794-1.4l-2.607,1.121l3.744,3.745l7.195-2.878C12.22,11.868,12.282,11.856,12.346,11.856z M6.972,5.651l5.426,2.245
		l2.339-1.017L9.36,4.661L6.972,5.651z"/>
</g>
</svg>
