<?xml version="1.0" encoding="utf-8"?>
<!-- Generator: Adobe Illustrator 22.1.0, SVG Export Plug-In . SVG Version: 6.00 Build 0)  -->
<svg version="1.1" id="Layer_1" xmlns="http://www.w3.org/2000/svg" xmlns:xlink="http://www.w3.org/1999/xlink" x="0px" y="0px"
	 viewBox="0 0 24 24" style="enable-background:new 0 0 24 24;" xml:space="preserve">
<g>
	<title>plane-trip-return-1</title>
	<path d="M22.5,7.499c-0.276,0-0.5-0.224-0.5-0.5s0.224-0.5,0.5-0.5h1c0.276,0,0.5,0.224,0.5,0.5s-0.224,0.5-0.5,0.5H22.5z"/>
	<path d="M19.5,7.499c-0.276,0-0.5-0.224-0.5-0.5s0.224-0.5,0.5-0.5h1c0.276,0,0.5,0.224,0.5,0.5s-0.224,0.5-0.5,0.5H19.5z"/>
	<path d="M16.5,7.499c-0.276,0-0.5-0.224-0.5-0.5s0.224-0.5,0.5-0.5h1c0.276,0,0.5,0.224,0.5,0.5s-0.224,0.5-0.5,0.5H16.5z"/>
	<path d="M8.449,11.997c-0.289,0-0.567-0.125-0.761-0.342L5.004,8.524C4.998,8.518,4.96,8.5,4.915,8.499L2,8.499
		c-1.103,0-2-0.897-2-2s0.897-2,2-2h2.927C4.958,4.498,4.996,4.48,5.025,4.451l2.656-3.103c0.203-0.227,0.476-0.35,0.772-0.35
		l1.519,0c0.298,0,0.591,0.146,0.784,0.392c0.211,0.276,0.245,0.649,0.088,0.953L9.537,4.499l1.863,0l0.026-0.006L12.108,3.3
		c0.198-0.313,0.524-0.495,0.879-0.495c0.067,0,0.133,0.007,0.198,0.02l1.501,0.262c0.279,0.045,0.528,0.211,0.681,0.454
		c0.162,0.268,0.174,0.602,0.034,0.874l-0.86,2.084l0.88,2.122c0.125,0.236,0.11,0.57-0.047,0.829
		c-0.157,0.25-0.41,0.418-0.696,0.463l-1.509,0.263c-0.058,0.011-0.123,0.018-0.188,0.018c-0.348,0-0.68-0.182-0.866-0.476
		l-0.703-1.229l-1.877,0.01l1.289,2.123c0.173,0.333,0.144,0.703-0.067,0.979c-0.195,0.249-0.493,0.393-0.818,0.397L8.449,11.997z
		 M8.457,1.998c-0.015,0-0.021,0.006-0.023,0.009l-2.67,3.118c-0.23,0.239-0.519,0.368-0.825,0.375L2,5.499c-0.551,0-1,0.449-1,1
		s0.449,1,1,1h2.927C5.243,7.506,5.53,7.631,5.743,7.851l2.698,3.145l1.444,0l-1.29-2.124C8.425,8.539,8.454,8.171,8.663,7.896
		c0.195-0.25,0.499-0.397,0.815-0.397l1.949-0.001c0.337,0,0.66,0.183,0.844,0.479l0.701,1.225l1.498-0.268L13.538,6.69
		c-0.05-0.122-0.051-0.261,0-0.383l0.931-2.25l-1.468-0.25l-0.248-0.126l0.217,0.124l-0.685,1.199
		c-0.193,0.312-0.517,0.494-0.871,0.494c-0.002,0-1.961,0-1.961,0c-0.3,0-0.594-0.147-0.786-0.393
		c-0.209-0.274-0.244-0.646-0.09-0.95l1.309-2.159H8.457z"/>
	<path d="M0.5,18.499c-0.276,0-0.5-0.224-0.5-0.5s0.224-0.5,0.5-0.5h1c0.276,0,0.5,0.224,0.5,0.5s-0.224,0.5-0.5,0.5H0.5z"/>
	<path d="M3.5,18.499c-0.276,0-0.5-0.224-0.5-0.5s0.224-0.5,0.5-0.5h1c0.276,0,0.5,0.224,0.5,0.5s-0.224,0.5-0.5,0.5H3.5z"/>
	<path d="M6.5,18.499c-0.276,0-0.5-0.224-0.5-0.5s0.224-0.5,0.5-0.5h1c0.276,0,0.5,0.224,0.5,0.5s-0.224,0.5-0.5,0.5H6.5z"/>
	<path d="M14.059,22.997c-0.321,0-0.62-0.146-0.813-0.391c-0.212-0.274-0.246-0.648-0.089-0.954l1.305-2.157l-1.863,0l-0.704,1.199
		c-0.198,0.313-0.525,0.495-0.879,0.495c-0.067,0-0.133-0.007-0.198-0.02l-1.503-0.258c-0.28-0.044-0.531-0.209-0.685-0.455
		c-0.162-0.268-0.175-0.602-0.034-0.875l0.862-2.083l-0.878-2.122c-0.125-0.237-0.11-0.571,0.047-0.83
		c0.156-0.249,0.408-0.417,0.692-0.462l1.507-0.263c0.057-0.011,0.122-0.018,0.187-0.018c0.348,0,0.679,0.182,0.866,0.475
		l0.703,1.229l1.881-0.01l-1.292-2.126c-0.174-0.334-0.145-0.705,0.07-0.981c0.196-0.251,0.49-0.394,0.808-0.394l1.487,0
		c0.299,0.002,0.58,0.126,0.772,0.341l2.687,3.135c0.006,0.006,0.044,0.024,0.089,0.025H22c1.103,0,2,0.897,2,2s-0.897,2-2,2h-2.927
		c-0.03,0.001-0.071,0.02-0.098,0.048l-2.656,3.1c-0.199,0.223-0.484,0.349-0.783,0.35H14.059z M15.539,21.997
		c0.014,0,0.022-0.003,0.027-0.009l2.67-3.115c0.229-0.239,0.519-0.368,0.825-0.375H22c0.552,0,1-0.448,1-1s-0.448-1-1-1h-2.927
		c-0.316-0.008-0.604-0.133-0.816-0.353l-2.699-3.148c0.001,0.002,0,0.003-0.002,0.003c-0.004,0-0.013-0.002-0.019-0.003h-1.423
		l1.291,2.125c0.173,0.335,0.143,0.704-0.069,0.98c-0.193,0.246-0.498,0.393-0.818,0.396l-1.943,0c-0.341,0-0.667-0.184-0.85-0.479
		l-0.7-1.225l-1.492,0.267l0.93,2.244c0.051,0.124,0.051,0.259,0,0.383l-0.932,2.249l1.472,0.247c0.005,0,0.009,0,0.012,0
		c0.016,0,0.023-0.004,0.026-0.009l0.679-1.189c0.194-0.312,0.522-0.494,0.881-0.494c0.001,0,1.92,0,1.92,0
		c0.322,0,0.621,0.146,0.813,0.392c0.21,0.274,0.245,0.647,0.089,0.951l-1.303,2.154C14.119,21.992,15.539,21.997,15.539,21.997z"/>
</g>
</svg>
