<?xml version="1.0" encoding="utf-8"?>
<!-- Generator: Adobe Illustrator 22.1.0, SVG Export Plug-In . SVG Version: 6.00 Build 0)  -->
<svg version="1.1" id="Layer_1" xmlns="http://www.w3.org/2000/svg" xmlns:xlink="http://www.w3.org/1999/xlink" x="0px" y="0px"
	 viewBox="0 0 24 24" style="enable-background:new 0 0 24 24;" xml:space="preserve">
<g>
	<title>plane-trip-take-off-cancel</title>
	<path d="M9.124,17.578c-0.06,0-0.119-0.01-0.175-0.031c-0.259-0.097-0.39-0.386-0.293-0.644l2.603-6.94l-6.448,2.579
		c-0.06,0.024-0.122,0.036-0.186,0.036c-0.134,0-0.26-0.052-0.354-0.147L0.292,8.453C0.205,8.365,0.136,8.264,0.086,8.151
		c-0.108-0.244-0.114-0.516-0.017-0.765c0.097-0.249,0.285-0.446,0.529-0.553l2.615-1.124c0.126-0.054,0.259-0.081,0.394-0.081
		c0.155,0,0.31,0.037,0.449,0.107L6.638,7.03L10.9,5.175L6.366,3.298c-0.247-0.102-0.44-0.295-0.542-0.542
		c-0.102-0.247-0.102-0.518,0-0.765C5.927,1.745,6.12,1.552,6.367,1.45l2.39-0.991c0.123-0.051,0.251-0.076,0.382-0.076
		c0.131,0,0.259,0.026,0.382,0.076l6.27,2.587l4.303-1.873c0.314-0.13,0.637-0.194,0.966-0.194c0.328,0,0.651,0.065,0.958,0.192
		c0.617,0.256,1.098,0.738,1.353,1.355c0.256,0.618,0.255,1.298-0.001,1.915c-0.256,0.617-0.737,1.098-1.355,1.353l-4.532,1.688
		l-1.121,2.242C16.276,9.894,16.105,10,15.915,10c-0.077,0-0.154-0.018-0.224-0.053c-0.247-0.123-0.347-0.424-0.224-0.671
		l1.209-2.418c0.057-0.114,0.154-0.201,0.273-0.245l4.7-1.75c0.357-0.148,0.643-0.435,0.797-0.806
		c0.154-0.37,0.154-0.779,0.001-1.15c-0.154-0.371-0.442-0.66-0.812-0.813c-0.185-0.077-0.379-0.116-0.576-0.116
		c-0.196,0-0.389,0.039-0.574,0.115l-4.476,1.948c-0.006,0.003-0.023,0.011-0.042,0.018L6.823,8.04
		C6.76,8.068,6.693,8.081,6.624,8.081c-0.077,0-0.155-0.018-0.224-0.053l-2.792-1.4L0.997,7.75l3.747,3.741l7.194-2.878
		c0.059-0.024,0.122-0.036,0.186-0.036c0.132,0,0.256,0.051,0.35,0.143c0.141,0.138,0.188,0.347,0.119,0.533l-3,8
		C9.519,17.447,9.331,17.578,9.124,17.578z M6.749,2.374l5.426,2.246l2.34-1.019L9.139,1.384L6.749,2.374z"/>
	<path d="M17.091,24c-1.722,0-3.344-0.668-4.57-1.882c-0.01-0.007-0.018-0.015-0.026-0.022c-0.008-0.008-0.016-0.017-0.023-0.027
		c-1.211-1.219-1.881-2.844-1.881-4.568c0-3.584,2.916-6.5,6.5-6.5c1.717,0,3.335,0.665,4.561,1.874
		c0.014,0.01,0.027,0.021,0.036,0.03c0.015,0.015,0.027,0.03,0.035,0.043c1.2,1.211,1.868,2.833,1.868,4.554
		C23.591,21.084,20.675,24,17.091,24z M13.573,21.724C14.561,22.548,15.8,23,17.091,23c3.033,0,5.5-2.467,5.5-5.5
		c0-1.29-0.451-2.529-1.275-3.517L13.573,21.724z M17.091,12c-3.033,0-5.5,2.467-5.5,5.5c0,1.29,0.451,2.529,1.276,3.517
		l7.742-7.741C19.62,12.451,18.381,12,17.091,12z"/>
</g>
</svg>
