<?xml version="1.0" encoding="utf-8"?>
<!-- Generator: Adobe Illustrator 22.1.0, SVG Export Plug-In . SVG Version: 6.00 Build 0)  -->
<svg version="1.1" id="Layer_1" xmlns="http://www.w3.org/2000/svg" xmlns:xlink="http://www.w3.org/1999/xlink" x="0px" y="0px"
	 viewBox="0 0 24 24" style="enable-background:new 0 0 24 24;" xml:space="preserve">
<g>
	<title>plane-trip-time</title>
	<path d="M4,24c-0.187,0-0.357-0.103-0.444-0.269c-0.086-0.166-0.073-0.365,0.034-0.518l2-2.858L1.898,19.74
		C0.798,19.556,0,18.614,0,17.5V14c0-0.552,0.449-1,1-1h0.623c0.746,0,1.394,0.506,1.575,1.229l0.355,1.421
		C3.604,15.856,3.788,16,4,16h10.7c1.195,0.001,2.328,0.56,3.056,1.5h0.494c0.965,0,1.75,0.785,1.75,1.75S19.215,21,18.25,21h-7.757
		l-2.341,2.128C7.535,23.69,6.735,24,5.9,24H4z M5.9,23c0.586,0,1.147-0.218,1.58-0.612l4.684-4.259
		C12.256,18.046,12.376,18,12.5,18c0.14,0,0.275,0.06,0.37,0.163c0.185,0.204,0.17,0.521-0.033,0.707L11.593,20h6.657
		c0.414,0,0.75-0.336,0.75-0.75s-0.336-0.75-0.75-0.75H17.5c-0.167,0-0.323-0.083-0.416-0.223c-0.533-0.799-1.424-1.276-2.385-1.277
		H4c-0.672,0-1.254-0.456-1.417-1.107l-0.355-1.421C2.158,14.194,1.91,14,1.623,14H1v3.5c0,0.624,0.447,1.151,1.062,1.254
		l4.164,0.694l0.864-1.235C7.184,18.08,7.337,18,7.5,18c0.103,0,0.202,0.031,0.286,0.09c0.109,0.076,0.182,0.191,0.206,0.323
		c0.023,0.132-0.006,0.264-0.083,0.374L4.96,23H5.9z"/>
	<path d="M17.5,13c-3.584,0-6.5-2.916-6.5-6.5S13.916,0,17.5,0S24,2.916,24,6.5S21.084,13,17.5,13z M17.5,1
		C14.467,1,12,3.467,12,6.5s2.467,5.5,5.5,5.5S23,9.533,23,6.5S20.533,1,17.5,1z"/>
	<path d="M17.5,7C17.224,7,17,6.776,17,6.5v-3C17,3.224,17.224,3,17.5,3S18,3.224,18,3.5V6h1.5C19.776,6,20,6.224,20,6.5
		S19.776,7,19.5,7H17.5z"/>
</g>
</svg>
