<?xml version="1.0" encoding="utf-8"?>
<!-- Generator: Adobe Illustrator 22.1.0, SVG Export Plug-In . SVG Version: 6.00 Build 0)  -->
<svg version="1.1" id="Layer_1" xmlns="http://www.w3.org/2000/svg" xmlns:xlink="http://www.w3.org/1999/xlink" x="0px" y="0px"
	 viewBox="0 0 24 24" style="enable-background:new 0 0 24 24;" xml:space="preserve">
<g>
	<title>plane-trip-land-time</title>
	<path d="M20.391,21.159c-0.098,0-0.196-0.015-0.291-0.043l-5.223-1.528l-3.361,1.306c-0.204,0.077-0.416,0.116-0.63,0.116
		c-0.736,0-1.406-0.462-1.665-1.149c-0.333-0.884,0.082-1.874,0.946-2.255l3.404-1.463l0.954-4.153
		c0.08-0.343,0.336-0.622,0.671-0.729l1.1-0.351c0.099-0.031,0.201-0.047,0.303-0.047c0.438,0,0.821,0.28,0.953,0.697
		c0.051,0.16,0.061,0.333,0.028,0.499l-0.52,2.584l2.834-1.218l0.871-2.282c0.118-0.298,0.37-0.524,0.676-0.605l1.199-0.322
		c0.084-0.023,0.172-0.035,0.26-0.035c0.451,0,0.848,0.304,0.966,0.74c0.041,0.153,0.045,0.315,0.012,0.47l-0.917,4.255
		c-0.068,0.315-0.284,0.579-0.58,0.707l-3.198,1.389l2.649,1.176c0.244,0.108,0.432,0.305,0.528,0.554
		c0.096,0.249,0.09,0.521-0.019,0.765c-0.116,0.262-0.339,0.462-0.613,0.548l-1.039,0.328C20.589,21.144,20.49,21.159,20.391,21.159
		z M14.854,18.56c0.047,0,0.094,0.007,0.139,0.02l5.393,1.577l1.04-0.325l-3.69-1.638c-0.182-0.081-0.298-0.261-0.297-0.459
		c0.001-0.198,0.119-0.377,0.301-0.456l4.243-1.843l0.917-4.255l-1.201,0.322l-0.946,2.475c-0.048,0.126-0.147,0.229-0.271,0.281
		l-9.916,4.262c-0.375,0.165-0.556,0.598-0.41,0.985c0.114,0.301,0.406,0.503,0.729,0.503c0.093,0,0.186-0.017,0.274-0.05
		l3.515-1.365C14.731,18.571,14.792,18.56,14.854,18.56z M15.498,12.212l-0.79,3.44l1.234-0.531l0.656-3.26L15.498,12.212z"/>
	<path d="M6.087,11.98c-3.303,0-5.99-2.687-5.99-5.99S2.784,0,6.087,0c3.303,0,5.99,2.687,5.99,5.99S9.39,11.98,6.087,11.98z
		 M6.087,1c-2.751,0-4.99,2.239-4.99,4.99s2.239,4.99,4.99,4.99c2.752,0,4.99-2.238,4.99-4.99S8.838,1,6.087,1z"/>
	<path d="M6.087,6.49c-0.276,0-0.5-0.224-0.5-0.5V2.461c0-0.276,0.224-0.5,0.5-0.5s0.5,0.224,0.5,0.5V5.49h2.246
		c0.276,0,0.5,0.224,0.5,0.5s-0.224,0.5-0.5,0.5H6.087z"/>
</g>
</svg>
