<?xml version="1.0" encoding="utf-8"?>
<!-- Generator: Adobe Illustrator 22.1.0, SVG Export Plug-In . SVG Version: 6.00 Build 0)  -->
<svg version="1.1" id="Layer_1" xmlns="http://www.w3.org/2000/svg" xmlns:xlink="http://www.w3.org/1999/xlink" x="0px" y="0px"
	 viewBox="0 0 24 24" style="enable-background:new 0 0 24 24;" xml:space="preserve">
<g>
	<title>plane-trip-take-off-time</title>
	<path d="M15.167,23.503c-0.125,0-0.248-0.023-0.365-0.069c-0.249-0.097-0.444-0.286-0.551-0.531
		c-0.107-0.245-0.113-0.517-0.015-0.765l1.039-2.704l-3.241,1.281c-0.117,0.046-0.24,0.07-0.366,0.07
		c-0.194,0-0.382-0.056-0.545-0.161l-3.655-2.36c-0.132-0.085-0.244-0.203-0.324-0.341c-0.275-0.478-0.111-1.09,0.367-1.365
		l1.293-0.745c0.076-0.044,0.162-0.067,0.25-0.067c0.07,0,0.139,0.014,0.203,0.043l2.464,1.103l2.866-1.142l-2.2-1.463
		c-0.142-0.094-0.258-0.224-0.336-0.376c-0.122-0.237-0.144-0.508-0.063-0.762c0.081-0.255,0.257-0.462,0.495-0.584l1.025-0.53
		c0.141-0.073,0.299-0.111,0.458-0.111c0.189,0,0.372,0.053,0.531,0.152l3.617,2.268l3.443-1.372
		c0.21-0.082,0.428-0.123,0.649-0.123c0.698,0,1.334,0.411,1.621,1.048c0.195,0.433,0.209,0.916,0.041,1.36
		c-0.168,0.444-0.5,0.796-0.933,0.991l-3.304,1.455l-2.618,4.78c-0.099,0.176-0.244,0.315-0.419,0.405l-0.965,0.499
		C15.49,23.463,15.329,23.503,15.167,23.503z M16.15,18.05c0.132,0,0.257,0.051,0.351,0.144c0.142,0.141,0.187,0.351,0.115,0.535
		l-1.449,3.77l0.971-0.5l2.699-4.925c0.052-0.095,0.136-0.173,0.237-0.217l3.456-1.522c0.187-0.084,0.331-0.238,0.405-0.432
		c0.073-0.194,0.067-0.406-0.018-0.595c-0.125-0.279-0.404-0.459-0.709-0.459c-0.097,0-0.192,0.018-0.283,0.053l-10.03,3.996
		c-0.059,0.024-0.121,0.036-0.185,0.036c-0.071,0-0.139-0.015-0.203-0.043l-2.424-1.084L8.01,17.424l3.656,2.36l4.3-1.699
		C16.024,18.062,16.086,18.05,16.15,18.05z M12.941,13.454l2.775,1.846l1.247-0.497l-2.997-1.879L12.941,13.454z"/>
	<path d="M5.991,11.98c-3.303,0-5.99-2.687-5.99-5.99S2.688,0,5.991,0s5.99,2.687,5.99,5.99S9.294,11.98,5.991,11.98z M5.991,1
		c-2.751,0-4.99,2.239-4.99,4.99s2.239,4.99,4.99,4.99s4.99-2.239,4.99-4.99S8.742,1,5.991,1z"/>
	<path d="M5.991,6.49c-0.276,0-0.5-0.224-0.5-0.5V2.461c0-0.276,0.224-0.5,0.5-0.5s0.5,0.224,0.5,0.5V5.49h2.245
		c0.276,0,0.5,0.224,0.5,0.5s-0.224,0.5-0.5,0.5H5.991z"/>
</g>
</svg>
