<?xml version="1.0" encoding="utf-8"?>
<!-- Generator: Adobe Illustrator 22.1.0, SVG Export Plug-In . SVG Version: 6.00 Build 0)  -->
<svg version="1.1" id="Layer_1" xmlns="http://www.w3.org/2000/svg" xmlns:xlink="http://www.w3.org/1999/xlink" x="0px" y="0px"
	 viewBox="0 0 24 24" style="enable-background:new 0 0 24 24;" xml:space="preserve">
<g>
	<title>plane-trip-round</title>
	<path d="M4.868,16.419c-0.331,0-0.643-0.129-0.877-0.362c-0.21-0.211-0.352-0.476-0.41-0.766l-0.163-0.818
		c-0.04-0.199-0.194-0.353-0.393-0.393l-0.817-0.163c-0.291-0.059-0.556-0.2-0.766-0.409c-0.137-0.138-0.24-0.307-0.3-0.489
		c-0.214-0.65,0.142-1.353,0.792-1.567l1.798-0.599c0.08-0.027,0.153-0.074,0.211-0.137l0.836-0.906L1.831,8.042
		C1.397,7.784,1.14,7.308,1.16,6.802c0.029-0.731,0.648-1.326,1.38-1.326l0.055,0.001L8.601,5.7l2.925-2.654
		c0.379-0.349,0.877-0.541,1.401-0.541c0.524,0,1.023,0.193,1.404,0.543c0.408,0.375,0.646,0.886,0.669,1.44
		c0.023,0.554-0.17,1.083-0.545,1.491l-2.652,2.923l0.223,6.008c0.02,0.505-0.238,0.98-0.673,1.24
		c-0.214,0.127-0.458,0.194-0.705,0.194c-0.485,0-0.94-0.258-1.188-0.673l-1.772-2.946l-0.907,0.837
		c-0.062,0.058-0.109,0.131-0.136,0.211l-0.599,1.799c-0.061,0.181-0.164,0.348-0.298,0.483C5.512,16.29,5.2,16.419,4.868,16.419z
		 M2.54,6.476c-0.205,0-0.373,0.161-0.381,0.366c-0.005,0.14,0.066,0.271,0.186,0.342L5.821,9.27
		c0.13,0.078,0.216,0.208,0.238,0.358c0.022,0.149-0.025,0.299-0.128,0.41l-1.254,1.358c-0.172,0.185-0.388,0.325-0.627,0.406
		l-1.801,0.6c-0.128,0.042-0.198,0.179-0.156,0.305c0.012,0.035,0.032,0.068,0.058,0.094c0.069,0.068,0.157,0.115,0.255,0.135
		l0.816,0.163c0.596,0.119,1.059,0.581,1.177,1.178l0.163,0.817c0.02,0.097,0.067,0.185,0.137,0.256
		c0.044,0.044,0.105,0.069,0.169,0.069c0.065,0,0.125-0.025,0.171-0.071c0.026-0.026,0.046-0.059,0.058-0.094l0.6-1.799
		C5.777,13.216,5.917,13,6.101,12.828l1.359-1.255c0.093-0.086,0.213-0.133,0.338-0.133c0.024,0,0.049,0.002,0.073,0.005
		c0.148,0.021,0.278,0.107,0.356,0.237l2.089,3.473c0.069,0.116,0.195,0.188,0.329,0.188c0.068,0,0.135-0.019,0.194-0.054
		c0.12-0.072,0.191-0.203,0.186-0.342l-0.23-6.214c-0.005-0.132,0.041-0.257,0.129-0.354l2.791-3.076
		c0.196-0.213,0.296-0.488,0.284-0.774c-0.012-0.287-0.135-0.551-0.346-0.745c-0.197-0.181-0.455-0.28-0.727-0.28
		s-0.53,0.1-0.727,0.28L9.122,6.577C9.03,6.661,8.91,6.707,8.783,6.707l-6.227-0.23L2.54,6.226V6.476z"/>
	<path d="M3.087,24.006c-0.969,0-1.734-0.274-2.275-0.816c-1.251-1.251-1.057-3.694,0.546-6.878
		c0.085-0.169,0.256-0.275,0.447-0.275c0.077,0,0.155,0.018,0.224,0.053c0.247,0.125,0.346,0.426,0.222,0.672
		c-1.353,2.688-1.627,4.827-0.732,5.722c0.345,0.345,0.873,0.52,1.569,0.52c0.999,0,2.3-0.367,3.763-1.061
		c2.725-1.293,5.797-3.576,8.65-6.429c2.853-2.854,5.136-5.925,6.429-8.649c1.184-2.495,1.386-4.488,0.542-5.333
		c-0.344-0.344-0.871-0.518-1.568-0.518c-1.231,0-2.868,0.537-4.735,1.554c-0.073,0.04-0.156,0.061-0.239,0.061
		c-0.184,0-0.352-0.1-0.439-0.261c-0.064-0.117-0.078-0.252-0.04-0.38c0.038-0.128,0.123-0.234,0.24-0.298
		c2.013-1.096,3.816-1.676,5.212-1.676c0.972,0,1.738,0.273,2.275,0.812c1.191,1.191,1.069,3.488-0.345,6.469
		c-1.341,2.825-3.694,5.995-6.626,8.927c-2.932,2.932-6.102,5.285-8.928,6.626C5.657,23.615,4.246,24.006,3.087,24.006z"/>
</g>
</svg>
