<?xml version="1.0" encoding="utf-8"?>
<!-- Generator: Adobe Illustrator 22.1.0, SVG Export Plug-In . SVG Version: 6.00 Build 0)  -->
<svg version="1.1" id="Layer_1" xmlns="http://www.w3.org/2000/svg" xmlns:xlink="http://www.w3.org/1999/xlink" x="0px" y="0px"
	 viewBox="0 0 24 24" style="enable-background:new 0 0 24 24;" xml:space="preserve">
<g>
	<title>plane-1</title>
	<path d="M6.554,20.044c-0.265,0-0.523-0.107-0.709-0.294c-0.189-0.189-0.292-0.44-0.292-0.707c0-0.267,0.105-0.518,0.293-0.707
		l4.291-4.292H3.655c-0.382,0-0.725-0.212-0.895-0.552l-2.5-5c-0.07-0.139-0.106-0.295-0.106-0.45c0-0.267,0.105-0.517,0.294-0.706
		c0.189-0.188,0.439-0.292,0.706-0.292h2.984c0.268,0,0.519,0.104,0.707,0.292l1.707,1.708h4.584l-3.29-3.291
		C7.658,5.568,7.55,5.307,7.551,5.04c0.002-0.549,0.451-0.996,1-0.996h2.587c0.268,0,0.519,0.104,0.707,0.292l4.707,4.708h4.794
		c1.378,0,2.5,1.121,2.5,2.5c0,1.378-1.122,2.5-2.5,2.5h-4.793l-5.706,5.707c-0.189,0.189-0.44,0.293-0.708,0.293H6.554z
		 M11.345,13.044c0.203,0,0.384,0.121,0.462,0.309c0.078,0.188,0.035,0.401-0.108,0.545l-5.145,5.146l3.586,0l5.853-5.854
		c0.094-0.094,0.22-0.146,0.354-0.146h5c0.827,0,1.5-0.673,1.5-1.5s-0.673-1.5-1.5-1.5h-8.962c-0.013,0.002-0.026,0.003-0.038,0.003
		c-0.012,0-0.027-0.001-0.042-0.004l-5.959,0.001c-0.133,0-0.259-0.052-0.353-0.146L4.138,8.043l-2.984,0l2.5,5L11.345,13.044z
		 M15.138,9.044l-4-4l-2.596,0v-0.25l0,0.25l4.008,4H15.138z"/>
</g>
</svg>
