<?xml version="1.0" encoding="utf-8"?>
<!-- Generator: Adobe Illustrator 22.1.0, SVG Export Plug-In . SVG Version: 6.00 Build 0)  -->
<svg version="1.1" id="Layer_1" xmlns="http://www.w3.org/2000/svg" xmlns:xlink="http://www.w3.org/1999/xlink" x="0px" y="0px"
	 viewBox="0 0 24 24" style="enable-background:new 0 0 24 24;" xml:space="preserve">
<g>
	<title>plane-trip-take-off-check</title>
	<path d="M9.123,17.2c-0.06,0-0.119-0.01-0.175-0.031c-0.259-0.097-0.39-0.386-0.293-0.644l2.603-6.94L5.112,12.04
		c-0.119,0.047-0.244,0.071-0.371,0.071c-0.267,0-0.518-0.104-0.707-0.293L0.289,8.073C0.198,7.983,0.127,7.877,0.077,7.76
		c-0.105-0.246-0.109-0.518-0.009-0.766c0.099-0.248,0.289-0.442,0.535-0.547l2.611-1.12c0.125-0.054,0.258-0.081,0.394-0.081
		c0.155,0,0.31,0.037,0.449,0.107l2.582,1.295l4.265-1.856L6.367,2.915C6.12,2.813,5.927,2.62,5.825,2.373
		c-0.102-0.246-0.102-0.518,0-0.765S6.12,1.169,6.367,1.067l2.389-0.991C8.879,0.025,9.007,0,9.138,0S9.398,0.025,9.52,0.076
		l6.273,2.588l4.301-1.872c0.311-0.128,0.633-0.193,0.962-0.193c1.018,0,1.927,0.607,2.315,1.545
		c0.527,1.275-0.081,2.741-1.356,3.268L17.482,7.1l-1.38,2.759c-0.086,0.171-0.257,0.276-0.448,0.276
		c-0.077,0-0.154-0.018-0.223-0.053c-0.119-0.06-0.208-0.162-0.251-0.289s-0.033-0.262,0.027-0.382l1.468-2.935
		c0.057-0.114,0.154-0.201,0.273-0.245l4.7-1.75c0.752-0.312,1.114-1.19,0.798-1.956c-0.233-0.564-0.779-0.928-1.391-0.928
		c-0.197,0-0.389,0.038-0.571,0.114L6.823,7.658C6.759,7.686,6.692,7.7,6.623,7.7c-0.077,0-0.155-0.018-0.224-0.053l-2.792-1.4
		l-2.611,1.12l3.745,3.745l7.197-2.876C11.997,8.212,12.059,8.2,12.123,8.2c0.132,0,0.256,0.051,0.35,0.143
		c0.141,0.139,0.188,0.348,0.119,0.533l-3,8C9.518,17.069,9.33,17.2,9.123,17.2z M6.75,1.991l5.428,2.246l2.339-1.018L9.138,1
		L6.75,1.991z"/>
	<path d="M17.092,23.616c-3.584,0-6.5-2.916-6.5-6.5s2.916-6.5,6.5-6.5s6.5,2.916,6.5,6.5S20.676,23.616,17.092,23.616z
		 M17.092,11.616c-3.033,0-5.5,2.467-5.5,5.5s2.467,5.5,5.5,5.5s5.5-2.467,5.5-5.5S20.125,11.616,17.092,11.616z"/>
	<path d="M16.258,20.045c-0.271,0-0.529-0.086-0.748-0.25c-0.047-0.036-0.091-0.073-0.132-0.114l-1.502-1.502
		c-0.195-0.195-0.195-0.512,0-0.707c0.094-0.094,0.22-0.146,0.354-0.146s0.259,0.052,0.354,0.146l1.5,1.5
		c0.007,0.007,0.017,0.016,0.027,0.023c0.043,0.033,0.094,0.05,0.148,0.05c0.012,0,0.025-0.001,0.037-0.003
		c0.066-0.009,0.124-0.044,0.165-0.098l2.906-3.873c0.094-0.125,0.243-0.199,0.4-0.199c0.109,0,0.212,0.034,0.3,0.099
		c0.221,0.166,0.266,0.48,0.101,0.7l-2.906,3.873c-0.2,0.267-0.492,0.44-0.823,0.488C16.377,20.041,16.317,20.045,16.258,20.045z"/>
</g>
</svg>
