<?xml version="1.0" encoding="utf-8"?>
<!-- Generator: Adobe Illustrator 22.1.0, SVG Export Plug-In . SVG Version: 6.00 Build 0)  -->
<svg version="1.1" id="Layer_1" xmlns="http://www.w3.org/2000/svg" xmlns:xlink="http://www.w3.org/1999/xlink" x="0px" y="0px"
	 viewBox="0 0 24 24" style="enable-background:new 0 0 24 24;" xml:space="preserve">
<g>
	<title>plane-trip-cloud</title>
	<path d="M6.554,15.999c-0.265,0-0.523-0.107-0.709-0.294c-0.189-0.189-0.292-0.44-0.292-0.707c0-0.267,0.105-0.518,0.293-0.707
		l4.292-4.292H3.655c-0.381,0-0.724-0.212-0.894-0.552l-2.5-5C0.192,4.309,0.155,4.154,0.155,3.999c0-0.551,0.449-1,1-1h1.984
		c0.267,0,0.518,0.104,0.706,0.292l1.708,1.708h5.586L7.846,1.707C7.659,1.521,7.552,1.262,7.553,0.998
		c0-0.267,0.105-0.518,0.294-0.706c0.189-0.188,0.432-0.292,0.685-0.292c0.003,0,2.608,0,2.608,0c0.267,0,0.518,0.104,0.706,0.292
		l4.708,4.708l4.729,0c1.222,0,2.285,0.869,2.526,2.066c0.026,0.153,0.038,0.293,0.038,0.436c0,0.667-0.26,1.295-0.732,1.767
		c-0.472,0.472-1.1,0.732-1.767,0.732h-4.793l-5.707,5.708c-0.189,0.189-0.44,0.292-0.707,0.292H6.554z M11.346,8.999
		c0.203,0,0.384,0.121,0.462,0.309c0.078,0.188,0.035,0.401-0.108,0.545l-5.146,5.146l3.587,0l5.853-5.854
		c0.094-0.094,0.22-0.146,0.354-0.146h5c0.401,0,0.778-0.156,1.061-0.439c0.283-0.283,0.439-0.66,0.439-1.061
		c0-0.084-0.007-0.169-0.021-0.252c-0.146-0.72-0.798-1.249-1.55-1.249l-15.929,0c-0.134,0-0.259-0.052-0.354-0.146L3.139,3.999
		l-1.983,0l2.5,5L11.346,8.999z M15.139,4.999l-4.001-4c0,0-2.587,0-2.587,0l4.002,4H15.139z"/>
	<path d="M16.845,23.999c-1.929,0-3.499-1.57-3.5-3.499c0-0.935,0.364-1.814,1.024-2.475c0.661-0.661,1.54-1.026,2.475-1.026
		c1.494,0,2.803,0.936,3.295,2.313C20.508,19.11,20.928,19,21.352,19c0.595,0,1.172,0.213,1.624,0.599
		c0.507,0.434,0.815,1.039,0.867,1.705c0.052,0.666-0.159,1.312-0.593,1.82c-0.475,0.556-1.168,0.875-1.899,0.875H16.845z
		 M16.844,17.999c-0.668,0-1.295,0.26-1.768,0.733c-0.472,0.473-0.732,1.101-0.731,1.768c0,1.378,1.122,2.499,2.5,2.499h4.501
		c0.443,0,0.858-0.191,1.144-0.525c0.26-0.304,0.387-0.692,0.355-1.091c-0.031-0.4-0.216-0.763-0.521-1.023
		C22.054,20.128,21.708,20,21.351,20c-0.44,0-0.856,0.191-1.141,0.524c-0.095,0.111-0.234,0.175-0.38,0.175
		c-0.051,0-0.101-0.008-0.15-0.023c-0.191-0.06-0.328-0.228-0.348-0.427C19.204,18.967,18.135,17.999,16.844,17.999v-0.25V17.999z"
		/>
</g>
</svg>
