<?xml version="1.0" encoding="utf-8"?>
<!-- Generator: Adobe Illustrator 22.1.0, SVG Export Plug-In . SVG Version: 6.00 Build 0)  -->
<svg version="1.1" id="Layer_1" xmlns="http://www.w3.org/2000/svg" xmlns:xlink="http://www.w3.org/1999/xlink" x="0px" y="0px"
	 viewBox="0 0 24 24" style="enable-background:new 0 0 24 24;" xml:space="preserve">
<g>
	<title>plane-trip-international</title>
	<path d="M15.138,23.721c-0.125,0-0.246-0.023-0.362-0.068c-0.514-0.2-0.77-0.781-0.571-1.294l1.041-2.703l-3.24,1.281
		c-0.117,0.046-0.24,0.07-0.366,0.07c-0.193,0-0.38-0.055-0.542-0.159L7.44,18.487c-0.133-0.086-0.246-0.204-0.325-0.342
		c-0.133-0.231-0.167-0.501-0.098-0.759c0.07-0.258,0.236-0.473,0.467-0.606l1.073-0.617c0.152-0.087,0.324-0.132,0.499-0.132
		c0.142,0,0.279,0.029,0.407,0.086l2.23,0.998l2.861-1.142l-2.2-1.463c-0.142-0.095-0.258-0.224-0.336-0.376
		c-0.252-0.49-0.059-1.094,0.431-1.346l1.026-0.53c0.14-0.073,0.3-0.112,0.461-0.112c0.191,0,0.376,0.054,0.536,0.155l3.609,2.263
		l3.442-1.374c0.214-0.09,0.444-0.136,0.679-0.136c0.231,0,0.457,0.045,0.674,0.133c0.44,0.18,0.783,0.52,0.967,0.958
		c0.379,0.904-0.048,1.948-0.952,2.327l-3.288,1.453l-2.619,4.78c-0.099,0.176-0.243,0.315-0.419,0.405l-0.965,0.499
		C15.461,23.681,15.3,23.721,15.138,23.721z M16.122,18.272c0.133,0,0.258,0.052,0.352,0.145c0.141,0.14,0.186,0.35,0.115,0.535
		l-1.451,3.768l0.97-0.501l2.699-4.924c0.052-0.096,0.136-0.173,0.236-0.217l3.452-1.525c0.402-0.169,0.591-0.627,0.425-1.022
		c-0.122-0.29-0.404-0.477-0.719-0.477c-0.103,0-0.204,0.021-0.3,0.061l-10.035,4.007c-0.059,0.024-0.121,0.036-0.185,0.036
		c-0.071,0-0.139-0.015-0.204-0.043l-2.424-1.084l-1.073,0.617l3.657,2.361l4.299-1.7C15.996,18.284,16.058,18.272,16.122,18.272z
		 M12.908,13.675l2.774,1.846l1.249-0.499l-2.992-1.877l-0.003-0.251v0.25c0,0,0.001,0,0.001,0L12.908,13.675z"/>
	<path d="M6.539,16.127c-0.032,0-0.064-0.003-0.096-0.009c-2.098-0.426-3.901-1.641-5.081-3.423c-1.18-1.781-1.596-3.916-1.17-6.01
		s1.641-3.897,3.422-5.077c1.316-0.872,2.838-1.333,4.402-1.333c0.536,0,1.077,0.055,1.608,0.162
		c3.712,0.754,6.406,4.05,6.407,7.838c0,0.276-0.224,0.5-0.5,0.5s-0.5-0.224-0.5-0.5c0-1.436-0.438-2.816-1.267-4h-2.452
		c-0.23,0-0.429,0.156-0.485,0.379l-0.5,2c-0.032,0.129-0.012,0.263,0.057,0.378c0.069,0.115,0.178,0.196,0.307,0.228
		c0.04,0.01,0.08,0.015,0.121,0.015h1.053c0.246,0,0.453,0.176,0.493,0.418l0.527,3.165c0.022,0.132-0.009,0.264-0.086,0.373
		s-0.193,0.181-0.325,0.203c-0.028,0.005-0.055,0.007-0.082,0.007c-0.245,0-0.453-0.176-0.493-0.418l-0.458-2.747h-0.629
		c-0.122,0-0.244-0.015-0.363-0.045c-0.389-0.097-0.716-0.339-0.923-0.683C9.321,7.204,9.261,6.8,9.358,6.412l0.5-2
		c0.167-0.669,0.765-1.136,1.455-1.137h1.604c-0.961-0.939-2.182-1.592-3.492-1.858C8.96,1.323,8.487,1.275,8.017,1.275
		c-1.367,0-2.699,0.403-3.85,1.166C2.792,3.352,1.791,4.704,1.325,6.275h2.927c0.69,0,1.288,0.468,1.455,1.137l0.5,2
		c0.03,0.119,0.045,0.241,0.045,0.363c0,0.4-0.156,0.777-0.439,1.061s-0.66,0.44-1.061,0.44h-0.31l-0.532,2.663
		c0.813,0.593,1.73,0.996,2.729,1.199c0.27,0.055,0.445,0.32,0.39,0.59C6.982,15.958,6.776,16.127,6.539,16.127z M1.106,7.275
		c-0.249,1.705,0.135,3.426,1.09,4.867c0.248,0.374,0.531,0.724,0.844,1.043l0.502-2.509c0.046-0.233,0.253-0.402,0.49-0.402h0.72
		c0.133,0,0.259-0.052,0.353-0.147c0.094-0.094,0.146-0.22,0.146-0.354c0-0.041-0.005-0.081-0.015-0.121l-0.5-2
		C4.681,7.431,4.482,7.275,4.252,7.275H1.106z"/>
</g>
</svg>
