<?xml version="1.0" encoding="utf-8"?>
<!-- Generator: Adobe Illustrator 22.1.0, SVG Export Plug-In . SVG Version: 6.00 Build 0)  -->
<svg version="1.1" id="Light" xmlns="http://www.w3.org/2000/svg" xmlns:xlink="http://www.w3.org/1999/xlink" x="0px" y="0px"
	 viewBox="0 0 24 24" style="enable-background:new 0 0 24 24;" xml:space="preserve">
<g>
	<title>shark-swordfish-fish</title>
	<path d="M20.839,23.744c-0.486,0-0.809-0.053-1.094-0.099c-0.251-0.041-0.465-0.076-0.768-0.076c-0.361,0-0.802,0.051-1.386,0.16
		c-0.032,0.006-0.062,0.008-0.09,0.008c-0.179,0-0.345-0.095-0.434-0.249c-0.106-0.183-0.086-0.413,0.051-0.574
		c0.752-0.889,1.725-1.58,2.812-1.998c0.377-0.144,0.732-0.218,1.056-0.218c0.615,0,0.998,0.256,1.211,0.47
		c0.416,0.419,0.549,1.074,0.332,1.631c-0.218,0.559-0.729,0.909-1.366,0.937C21.047,23.741,20.94,23.744,20.839,23.744z
		 M18.983,22.568c0.38,0,0.654,0.045,0.92,0.088c0.277,0.045,0.533,0.087,0.934,0.087c0.087,0,0.181-0.002,0.282-0.007
		c0.244-0.01,0.405-0.112,0.479-0.302c0.074-0.191,0.03-0.422-0.11-0.562c-0.115-0.116-0.283-0.174-0.5-0.174
		c-0.203,0-0.438,0.051-0.699,0.151c-0.476,0.183-0.922,0.424-1.333,0.719C18.965,22.568,18.974,22.568,18.983,22.568z"/>
	<path d="M16.5,21.237c-0.032,0-0.064-0.003-0.096-0.009c-0.206-0.04-0.366-0.208-0.398-0.416c-0.173-1.153-0.051-2.34,0.353-3.433
		c0.474-1.276,1.261-1.511,1.688-1.537c0.03-0.002,0.061-0.003,0.092-0.003c0.561,0,1.092,0.326,1.353,0.831
		c0.275,0.533,0.201,1.148-0.199,1.645c-0.424,0.526-0.733,0.781-1.006,1.004c-0.381,0.313-0.709,0.583-1.356,1.673
		C16.84,21.143,16.676,21.237,16.5,21.237z M18.108,16.84c-0.314,0.019-0.61,0.342-0.812,0.886c-0.177,0.479-0.29,0.973-0.339,1.477
		c0.26-0.3,0.479-0.48,0.693-0.656c0.248-0.204,0.504-0.414,0.863-0.86c0.153-0.19,0.183-0.378,0.09-0.558
		c-0.09-0.174-0.277-0.29-0.467-0.29L18.108,16.84z"/>
	<path d="M11.205,23.216c-0.027,0-0.054-0.002-0.081-0.007c-1.417-0.239-2.657-1.186-3.265-2.485C3.153,19.5,0,16.301,0,12.737
		c0-3.063,0.528-6.046,1.528-8.626c0.754-1.947,1.541-3.048,1.628-3.168C3.247,0.814,3.4,0.735,3.562,0.735
		c3.357,0,4.74,2.672,5.172,3.796l14.641-3.778c0.041-0.01,0.083-0.016,0.125-0.016c0.228,0,0.427,0.154,0.484,0.375
		c0.069,0.267-0.092,0.54-0.359,0.609l-8.49,2.191c0.039,1.086-0.086,2.164-0.372,3.207c-0.469,1.408-1.193,2.211-2.718,2.979
		c0.351,0.45,0.631,0.959,0.817,1.489c0.337,1.1,0.174,2.27-0.444,3.22c-0.089,0.137-0.24,0.223-0.405,0.228c0,0,0,0,0,0
		c-0.173,0-0.323-0.076-0.417-0.204l-2.568-3.492c-0.651,0.283-1.272,0.594-1.85,0.926c-0.364,0.709-0.814,1.288-1.339,1.723
		c-0.064,0.257-0.095,0.518-0.093,0.775c-0.025,1.499,1.166,2.733,2.655,2.757l0.036,0c0.044,0,0.088-0.001,0.133-0.003
		c0.151-0.019,0.598-0.468,0.838-0.709c0.575-0.579,1.168-1.176,1.861-1.176c0.379,0,0.574,0.197,0.656,0.314
		c0.294,0.42,0.095,0.968-0.206,1.798c-0.225,0.619-0.504,1.387-0.512,2.04c-0.009,0.716,0.248,1.368,0.436,1.845
		c0.201,0.51,0.346,0.877,0.157,1.225c-0.098,0.181-0.272,0.306-0.492,0.351C11.273,23.212,11.239,23.216,11.205,23.216z
		 M8.395,5.651C3.97,6.706,1,9.554,1,12.737c0,3.166,2.949,6.01,7.338,7.077c0.158,0.039,0.287,0.151,0.347,0.302
		c0.364,0.92,1.132,1.644,2.06,1.967c-0.012-0.031-0.023-0.06-0.034-0.086c-0.218-0.554-0.517-1.312-0.505-2.225
		c0.011-0.822,0.322-1.679,0.572-2.367c0.061-0.169,0.164-0.453,0.23-0.674c-0.277,0.165-0.62,0.51-0.89,0.782
		c-0.523,0.527-0.975,0.982-1.505,1.005c-0.054,0.003-0.11,0.004-0.166,0.004l-0.06,0c-2.041-0.034-3.673-1.721-3.639-3.761
		c0-0.039,0-0.078,0.001-0.117c-0.313,0.131-0.725,0.277-1.083,0.277c-0.427,0-0.642-0.203-0.748-0.374
		c-0.081-0.131-0.097-0.295-0.043-0.439l1.6-4.264c0.073-0.194,0.261-0.324,0.468-0.324c0.06,0,0.119,0.011,0.175,0.032
		c0.125,0.047,0.225,0.14,0.28,0.261c0.055,0.122,0.06,0.258,0.013,0.383L4.042,13.84c0.111-0.037,0.251-0.089,0.425-0.165
		c2.034-0.89,2.492-3.895,2.496-3.925c0.035-0.245,0.248-0.43,0.496-0.43c0.022,0,0.044,0.001,0.066,0.004
		C7.8,9.363,7.991,9.616,7.953,9.889c-0.007,0.053-0.062,0.424-0.213,0.945c0.854-0.425,1.728-0.785,2.604-1.072
		c0.192-0.077,0.38-0.157,0.561-0.236c0.065-0.052,0.143-0.086,0.226-0.1c1.823-0.827,2.3-1.472,2.676-2.597
		c0.234-0.855,0.347-1.752,0.335-2.661L8.574,5.605C8.559,5.611,8.545,5.616,8.533,5.62C8.516,5.624,8.5,5.626,8.484,5.627
		L8.395,5.651z M11.909,13.566c0.169-0.539,0.172-1.118,0.004-1.668c-0.173-0.49-0.451-0.963-0.808-1.37
		c-0.134,0.057-0.273,0.114-0.419,0.173c-0.236,0.078-0.467,0.159-0.703,0.247L11.909,13.566z M3.821,1.741
		C3.367,2.439,1.924,4.903,1.297,8.883c1.346-1.89,3.631-3.35,6.468-4.103C7.399,3.853,6.327,1.869,3.821,1.741z"/>
	<circle cx="11.5" cy="6.737" r="0.75"/>
</g>
</svg>
