<?xml version="1.0" encoding="utf-8"?>
<!-- Generator: Adobe Illustrator 22.1.0, SVG Export Plug-In . SVG Version: 6.00 Build 0)  -->
<svg version="1.1" id="Light" xmlns="http://www.w3.org/2000/svg" xmlns:xlink="http://www.w3.org/1999/xlink" x="0px" y="0px"
	 viewBox="0 0 24 24" style="enable-background:new 0 0 24 24;" xml:space="preserve">
<g>
	<title>shark-hammer-fish</title>
	<path d="M13.404,23.957c-0.195,0-0.383-0.056-0.546-0.163c-0.224-0.146-0.377-0.371-0.431-0.632
		c-0.055-0.261-0.005-0.529,0.142-0.752c0.649-0.901,0.909-1.985,0.739-3.063c-0.045-0.247,0.009-0.506,0.154-0.724
		c0.147-0.222,0.373-0.373,0.635-0.425c0.065-0.013,0.132-0.02,0.198-0.02c0.196,0,0.387,0.058,0.553,0.168l1.817,1.212
		c0.375,0.254,0.813,0.387,1.266,0.387c0.269,0,0.532-0.047,0.783-0.14c0.665-0.253,2.194-0.933,1.989-1.754
		c-0.175-0.7-0.442-0.741-1.546-0.804c-1.104-0.062-2.763-0.156-4.898-1.493l-4.54,2.18c-0.068,0.032-0.142,0.049-0.217,0.049
		c-0.071,0-0.14-0.015-0.205-0.044c-0.135-0.061-0.236-0.177-0.276-0.32c-0.809-2.845,0.903-5.071,1.801-5.997
		c-0.417-1.24-0.426-2.491-0.025-3.637l-0.012-0.012c-0.51,0.813-0.875,1.702-1.086,2.646c-0.058,0.278-0.196,0.536-0.4,0.742
		c-0.282,0.285-0.658,0.443-1.058,0.446c-0.406,0-0.781-0.154-1.063-0.433l-1.228-1.227c-0.297-0.292-0.46-0.701-0.446-1.12
		c0.24-4.913,4.12-8.794,9.026-9.034l0.05-0.001c0.412,0,0.796,0.16,1.081,0.45l1.222,1.221c0.206,0.209,0.345,0.468,0.404,0.752
		c0.167,0.811-0.355,1.606-1.165,1.773c-0.753,0.17-1.48,0.443-2.161,0.813l0.034,0.04c0.378-0.078,0.781-0.117,1.199-0.117
		c1.003,0,2.039,0.229,3.007,0.665c1.105-0.953,2.503-1.476,3.955-1.476c0.492,0,0.986,0.06,1.468,0.179
		c0.147,0.036,0.268,0.136,0.333,0.273c0.064,0.136,0.064,0.293-0.002,0.43l-1.922,4.001c1.308,2.073,1.971,4.765,1.971,8.003
		c0,6.03-8.078,6.848-10.553,6.956L13.404,23.957z M14.296,19.18c0.209,1.341-0.106,2.677-0.887,3.773
		c2.256-0.094,9.594-0.814,9.594-5.953c0-3.147-0.652-5.723-1.938-7.656c0,0-0.014-0.02-0.018-0.028
		c-0.515-0.769-1.132-1.431-1.829-1.963c-0.359-0.274-0.743-0.515-1.14-0.717c-0.008-0.004-0.016-0.009-0.023-0.013
		c-1.142-0.577-2.184-0.701-2.853-0.701c-0.444,0-0.878,0.055-1.256,0.158C13.902,6.094,13.857,6.1,13.812,6.1
		c-0.146,0-0.284-0.064-0.379-0.175l-0.621-0.725c-0.094-0.11-0.136-0.256-0.115-0.399c0.022-0.144,0.104-0.271,0.227-0.348
		c0.919-0.583,1.924-1.001,2.986-1.241c0.277-0.057,0.453-0.323,0.397-0.593c-0.02-0.095-0.066-0.181-0.134-0.251l-1.223-1.222
		c-0.097-0.099-0.225-0.155-0.353-0.155c-4.409,0.214-7.88,3.686-8.094,8.075c-0.004,0.134,0.051,0.27,0.151,0.369l1.229,1.227
		c0.093,0.092,0.216,0.142,0.355,0.142c0.131-0.001,0.256-0.054,0.35-0.148c0.068-0.069,0.114-0.155,0.134-0.25
		c0.285-1.277,0.818-2.457,1.585-3.511c0.086-0.118,0.219-0.193,0.365-0.204c0.007,0,0.032-0.001,0.038-0.001
		c0.134,0,0.26,0.052,0.354,0.146l0.67,0.67c0.145,0.145,0.187,0.36,0.107,0.549c-0.952,2.245,0.151,4.992,2.683,6.68
		c2.041,1.361,3.572,1.448,4.69,1.512c1.079,0.061,2.099,0.119,2.459,1.56c0.202,0.807-0.086,1.971-2.607,2.932
		c-0.366,0.136-0.747,0.204-1.135,0.204c-0.654,0-1.284-0.193-1.823-0.557L14.296,19.18z M11.255,12.627
		c-0.741,0.851-1.667,2.318-1.399,4.131l3.47-1.667C12.449,14.388,11.742,13.547,11.255,12.627z M19.158,6.102
		c0.233,0.144,0.453,0.295,0.666,0.458c0.564,0.43,1.083,0.937,1.544,1.509l1.401-2.916c-0.205-0.025-0.411-0.037-0.616-0.037
		C21.076,5.115,20.025,5.463,19.158,6.102z"/>
	<path d="M1.8,23.989c-0.101,0-0.209-0.002-0.325-0.007c-0.638-0.028-1.149-0.379-1.368-0.938c-0.217-0.557-0.084-1.212,0.331-1.63
		c0.213-0.214,0.596-0.47,1.211-0.47c0.324,0,0.679,0.073,1.056,0.217c1.088,0.417,2.06,1.108,2.813,1.998
		c0.136,0.161,0.157,0.391,0.051,0.574c-0.089,0.153-0.255,0.248-0.434,0.248l0,0c-0.029,0-0.058-0.002-0.087-0.008
		c-0.585-0.11-1.024-0.16-1.385-0.16c-0.303,0-0.517,0.035-0.765,0.076C2.611,23.936,2.288,23.989,1.8,23.989z M1.649,21.944
		c-0.218,0-0.386,0.059-0.501,0.174c-0.141,0.142-0.185,0.368-0.109,0.562c0.074,0.19,0.236,0.292,0.48,0.303
		c0.101,0.004,0.195,0.007,0.282,0.007c0.403,0,0.66-0.042,0.932-0.087c0.269-0.044,0.545-0.089,0.925-0.089
		c0.008,0,0.016,0,0.023,0c-0.411-0.296-0.858-0.536-1.334-0.719C2.087,21.995,1.852,21.944,1.649,21.944z"/>
	<path d="M6.251,21.481c-0.176,0-0.34-0.094-0.43-0.245c-0.646-1.088-0.974-1.357-1.354-1.668c-0.273-0.224-0.583-0.478-1.008-1.006
		c-0.4-0.497-0.474-1.112-0.198-1.645c0.26-0.504,0.792-0.83,1.355-0.83c0.03,0,0.06,0.001,0.089,0.003
		c0.427,0.026,1.213,0.26,1.687,1.537c0.404,1.092,0.526,2.278,0.354,3.429c-0.031,0.209-0.191,0.376-0.398,0.417
		C6.315,21.479,6.282,21.481,6.251,21.481z M4.615,17.087c-0.189,0-0.377,0.116-0.466,0.289c-0.094,0.181-0.063,0.369,0.09,0.559
		c0.358,0.446,0.613,0.655,0.86,0.858c0.215,0.176,0.434,0.355,0.694,0.655c-0.049-0.503-0.163-0.997-0.339-1.474
		c-0.202-0.544-0.497-0.866-0.81-0.885L4.615,17.087z"/>
</g>
</svg>
