<?xml version="1.0" encoding="utf-8"?>
<!-- Generator: Adobe Illustrator 22.1.0, SVG Export Plug-In . SVG Version: 6.00 Build 0)  -->
<svg version="1.1" id="Light" xmlns="http://www.w3.org/2000/svg" xmlns:xlink="http://www.w3.org/1999/xlink" x="0px" y="0px"
	 viewBox="0 0 24 24" style="enable-background:new 0 0 24 24;" xml:space="preserve">
<g>
	<title>temperature-celsius-high</title>
	<path d="M2.5,16.5C2.224,16.5,2,16.276,2,16V5.207L0.854,6.354C0.759,6.448,0.634,6.5,0.5,6.5S0.241,6.448,0.146,6.354S0,6.134,0,6
		s0.052-0.259,0.146-0.354l2-2C2.193,3.6,2.247,3.564,2.308,3.538C2.37,3.513,2.434,3.5,2.5,3.5s0.13,0.013,0.191,0.038
		C2.753,3.564,2.807,3.6,2.854,3.647l2,2C4.948,5.741,5,5.866,5,6S4.948,6.259,4.854,6.354S4.634,6.5,4.5,6.5
		S4.241,6.448,4.146,6.354L3,5.207V16C3,16.276,2.776,16.5,2.5,16.5z"/>
	<path d="M0.5,3.5C0.224,3.5,0,3.276,0,3s0.224-0.5,0.5-0.5h4C4.776,2.5,5,2.724,5,3S4.776,3.5,4.5,3.5H0.5z"/>
	<path d="M14.5,21.5C9.262,21.5,5,17.238,5,12s4.262-9.5,9.5-9.5S24,6.762,24,12S19.738,21.5,14.5,21.5z M14.5,3.5
		C9.813,3.5,6,7.313,6,12c0,4.687,3.813,8.5,8.5,8.5c4.687,0,8.5-3.813,8.5-8.5C23,7.313,19.187,3.5,14.5,3.5z"/>
	<path d="M11,9.5c-0.827,0-1.5-0.673-1.5-1.5s0.673-1.5,1.5-1.5s1.5,0.673,1.5,1.5S11.827,9.5,11,9.5z M11,7.5
		c-0.276,0-0.5,0.224-0.5,0.5s0.224,0.5,0.5,0.5s0.5-0.224,0.5-0.5S11.276,7.5,11,7.5z"/>
	<path d="M16,17.5c-2.481,0-4.5-2.019-4.5-4.5c0-2.481,2.019-4.5,4.5-4.5h1.5C17.776,8.5,18,8.724,18,9s-0.224,0.5-0.5,0.5H16
		c-1.93,0-3.5,1.57-3.5,3.5s1.57,3.5,3.5,3.5h1.5c0.276,0,0.5,0.224,0.5,0.5s-0.224,0.5-0.5,0.5H16z"/>
</g>
</svg>
