<?xml version="1.0" encoding="utf-8"?>
<!-- Generator: Adobe Illustrator 22.1.0, SVG Export Plug-In . SVG Version: 6.00 Build 0)  -->
<svg version="1.1" id="Layer_1" xmlns="http://www.w3.org/2000/svg" xmlns:xlink="http://www.w3.org/1999/xlink" x="0px" y="0px"
	 viewBox="0 0 24 24" style="enable-background:new 0 0 24 24;" xml:space="preserve">
<g>
	<title>crypto-currency-bitcoin-bubble</title>
	<path d="M12.005,17.997c-0.276,0-0.5-0.224-0.5-0.5v-0.5h-1.004c-0.276,0-0.5-0.224-0.5-0.5v-8c0-0.276,0.224-0.5,0.5-0.5h1.004
		v-0.5c0-0.276,0.224-0.5,0.5-0.5c0.276,0,0.5,0.224,0.5,0.5v0.5h0.496c1.378,0,2.5,1.121,2.5,2.5c0,0.798-0.376,1.532-1.003,2
		c0.627,0.468,1.003,1.202,1.003,2c0,1.378-1.122,2.5-2.5,2.5h-0.496v0.5C12.505,17.772,12.28,17.997,12.005,17.997z M13.001,15.997
		c0.827,0,1.5-0.673,1.5-1.5s-0.673-1.5-1.5-1.5h-2v3H13.001z M13.001,11.997c0.827,0,1.5-0.673,1.5-1.5s-0.673-1.5-1.5-1.5h-2v3
		H13.001z"/>
	<path d="M12.009,23.998c-1.67,0-3.209-0.934-3.983-2.396C7.598,21.734,7.152,21.8,6.7,21.8c-0.62,0-1.221-0.124-1.786-0.368
		c-1.103-0.477-1.955-1.355-2.398-2.473c-0.38-0.958-0.419-2.009-0.117-2.986c-0.937-0.498-1.688-1.332-2.079-2.318
		c-0.85-2.143,0.062-4.575,2.08-5.639C2.09,7.004,2.149,5.885,2.568,4.913C3.043,3.809,3.92,2.956,5.037,2.512
		c0.536-0.213,1.095-0.321,1.664-0.321c0.448,0,0.892,0.067,1.322,0.201c0.498-0.937,1.332-1.688,2.318-2.079
		c0.534-0.212,1.093-0.319,1.661-0.319c0.613,0,1.213,0.125,1.783,0.371c0.946,0.408,1.718,1.124,2.195,2.028
		c0.428-0.132,0.874-0.199,1.327-0.199c0.62,0,1.221,0.124,1.786,0.368c2.116,0.915,3.189,3.28,2.514,5.458
		c1.483,0.779,2.395,2.284,2.394,3.978c0.001,1.694-0.909,3.198-2.391,3.978c0.311,1.016,0.253,2.138-0.169,3.113
		c-0.713,1.649-2.336,2.714-4.136,2.714c0,0,0,0,0,0c-0.45,0-0.894-0.067-1.322-0.2c-0.498,0.937-1.332,1.688-2.318,2.079
		C13.134,23.892,12.577,23.998,12.009,23.998L12.009,23.998z M8.287,20.474c0.066,0,0.13,0.013,0.191,0.038
		c0.124,0.051,0.224,0.152,0.273,0.277c0.533,1.342,1.811,2.209,3.258,2.209c0.441,0,0.873-0.083,1.286-0.247
		c0.893-0.354,1.608-1.069,1.962-1.962c0.05-0.125,0.149-0.226,0.273-0.278c0.062-0.025,0.126-0.038,0.192-0.038
		c0.069,0,0.135,0.014,0.198,0.041c0.441,0.191,0.907,0.288,1.385,0.288c1.4,0,2.663-0.829,3.218-2.111
		c0.382-0.883,0.382-1.896,0-2.779c-0.053-0.123-0.054-0.265-0.003-0.389c0.051-0.124,0.152-0.224,0.277-0.273
		c1.34-0.534,2.205-1.811,2.204-3.253c0-1.444-0.866-2.721-2.208-3.254c-0.125-0.049-0.226-0.149-0.277-0.273
		c-0.052-0.124-0.05-0.266,0.003-0.39c0.766-1.771-0.052-3.836-1.823-4.602c-0.439-0.19-0.907-0.286-1.389-0.286
		c-0.482,0-0.95,0.096-1.389,0.286c-0.063,0.027-0.129,0.041-0.198,0.041c-0.066,0-0.13-0.013-0.191-0.038
		c-0.125-0.052-0.224-0.153-0.274-0.278c-0.345-0.869-1.007-1.551-1.865-1.922c-0.444-0.192-0.91-0.289-1.387-0.289
		c-0.441,0-0.876,0.084-1.292,0.249C9.817,1.596,9.102,2.311,8.748,3.204C8.698,3.329,8.598,3.43,8.475,3.481
		C8.413,3.507,8.349,3.519,8.283,3.519c-0.068,0-0.134-0.014-0.197-0.04C7.642,3.288,7.177,3.191,6.701,3.191
		c-0.442,0-0.878,0.084-1.295,0.25C4.538,3.787,3.856,4.45,3.486,5.308C3.107,6.189,3.107,7.2,3.487,8.08
		C3.54,8.204,3.541,8.346,3.49,8.47S3.337,8.694,3.212,8.743C2.345,9.088,1.663,9.75,1.292,10.61s-0.386,1.81-0.042,2.678
		c0.354,0.893,1.069,1.608,1.962,1.962c0.125,0.05,0.226,0.149,0.278,0.273c0.052,0.125,0.05,0.267-0.003,0.39
		c-0.371,0.858-0.386,1.809-0.041,2.678c0.344,0.869,1.007,1.552,1.865,1.923c0.439,0.19,0.906,0.286,1.389,0.286
		s0.95-0.096,1.389-0.286C8.151,20.487,8.218,20.474,8.287,20.474z"/>
</g>
</svg>
