<?xml version="1.0" encoding="utf-8"?>
<!-- Generator: Adobe Illustrator 22.1.0, SVG Export Plug-In . SVG Version: 6.00 Build 0)  -->
<svg version="1.1" id="Layer_1" xmlns="http://www.w3.org/2000/svg" xmlns:xlink="http://www.w3.org/1999/xlink" x="0px" y="0px"
	 viewBox="0 0 24 24" style="enable-background:new 0 0 24 24;" xml:space="preserve">
<g>
	<title>crypto-currency-nxtcoin</title>
	<path d="M13.5,15.5c-0.191,0-0.362-0.106-0.447-0.277l-2.853-5.724L5,9.5C4.724,9.5,4.5,9.276,4.5,9S4.724,8.5,5,8.5h5.2
		c0.381,0,0.723,0.211,0.894,0.552L13.81,14.5H19c0.276,0,0.5,0.224,0.5,0.5s-0.224,0.5-0.5,0.5H13.5z"/>
	<path d="M12.004,23.5c-6.341,0-11.5-5.159-11.5-11.5c0-1.092,0.157-2.18,0.466-3.232c0.001-0.009,0.007-0.029,0.015-0.051
		C2.428,3.878,6.958,0.5,12.004,0.5c6.341,0,11.5,5.159,11.5,11.5c0,1.07-0.151,2.136-0.448,3.17
		c-0.006,0.051-0.021,0.099-0.042,0.146C21.56,20.135,17.035,23.5,12.004,23.5z M1.632,10.374C1.547,10.915,1.504,11.459,1.504,12
		c0,5.79,4.71,10.5,10.5,10.5c4.549,0,8.654-3.02,10.018-7.357L19.2,9.5l-5.2,0c-0.276,0-0.5-0.224-0.5-0.5s0.224-0.5,0.5-0.5h5.2
		c0.381,0,0.724,0.212,0.894,0.552l2.283,4.565c0.084-0.538,0.127-1.079,0.127-1.617c0-5.79-4.71-10.5-10.5-10.5
		c-4.545,0-8.649,3.017-10.016,7.349L4.813,14.5l5.187,0c0.276,0,0.5,0.224,0.5,0.5s-0.224,0.5-0.5,0.5H4.813
		c-0.381,0-0.723-0.211-0.894-0.552L1.632,10.374z"/>
</g>
</svg>
