<?xml version="1.0" encoding="utf-8"?>
<!-- Generator: Adobe Illustrator 22.1.0, SVG Export Plug-In . SVG Version: 6.00 Build 0)  -->
<svg version="1.1" id="Layer_1" xmlns="http://www.w3.org/2000/svg" xmlns:xlink="http://www.w3.org/1999/xlink" x="0px" y="0px"
	 viewBox="0 0 24 24" style="enable-background:new 0 0 24 24;" xml:space="preserve">
<g>
	<title>crypto-currency-bitcoin-increase</title>
	<path d="M1.996,23.98c-0.143,0-0.279-0.061-0.374-0.168c-0.089-0.1-0.133-0.228-0.125-0.362c0.008-0.133,0.067-0.256,0.167-0.344
		l8.37-7.439c0.275-0.245,0.629-0.38,0.996-0.38c0.338,0,0.671,0.117,0.937,0.329l3.667,2.935c0.087,0.07,0.198,0.108,0.312,0.108
		c0.128,0,0.249-0.047,0.34-0.133l5.937-5.515h-2.661c-0.276,0-0.5-0.224-0.5-0.5c0-0.276,0.224-0.5,0.5-0.5H23.5
		c0.018,0,0.036,0.002,0.053,0.006c0.012,0.002,0.024,0.005,0.032,0.007C23.818,12.055,24,12.262,24,12.512v3.976
		c0,0.276-0.224,0.5-0.5,0.5s-0.5-0.224-0.5-0.5v-2.833l-6.032,5.604c-0.277,0.258-0.64,0.399-1.022,0.399
		c-0.341,0-0.673-0.116-0.936-0.326l-3.667-2.935c-0.09-0.072-0.198-0.11-0.312-0.11c-0.122,0-0.24,0.045-0.332,0.127l-8.37,7.439
		C2.237,23.935,2.119,23.98,1.996,23.98z"/>
	<path d="M5.011,17.019c-0.082,0-0.163-0.02-0.235-0.059c-2.122-1.128-3.678-3.015-4.381-5.314
		c-0.703-2.299-0.469-4.734,0.659-6.857C2.182,2.667,4.069,1.11,6.368,0.407C7.231,0.143,8.12,0.009,9.011,0.009
		c1.455,0,2.912,0.366,4.214,1.057c4.382,2.329,6.052,7.789,3.723,12.172c-0.178,0.334-0.379,0.66-0.597,0.97
		c-0.094,0.132-0.246,0.211-0.409,0.211c-0.104,0-0.204-0.032-0.288-0.092c-0.109-0.077-0.181-0.192-0.204-0.323
		c-0.022-0.132,0.008-0.264,0.085-0.374c0.194-0.274,0.373-0.565,0.531-0.862c2.07-3.895,0.586-8.748-3.31-10.819
		c-1.15-0.611-2.444-0.934-3.741-0.934c-2.975,0-5.687,1.626-7.078,4.244C0.933,7.146,0.725,9.31,1.35,11.354
		c0.625,2.043,2.009,3.721,3.895,4.724c0.118,0.062,0.204,0.167,0.244,0.295c0.039,0.128,0.026,0.263-0.037,0.381
		C5.366,16.918,5.196,17.019,5.011,17.019z"/>
	<path d="M8.25,14.513c-0.276,0-0.5-0.224-0.5-0.5v-0.5h-1c-0.276,0-0.5-0.224-0.5-0.5v-8c0-0.276,0.224-0.5,0.5-0.5h1v-0.5
		c0-0.276,0.224-0.5,0.5-0.5c0.276,0,0.5,0.224,0.5,0.5v0.5h0.5c1.379,0,2.5,1.121,2.5,2.5c0,0.798-0.376,1.532-1.003,2
		c0.627,0.468,1.003,1.202,1.003,2c0,1.378-1.121,2.5-2.5,2.5h-0.5v0.5C8.75,14.289,8.526,14.513,8.25,14.513z M9.25,12.513
		c0.827,0,1.5-0.673,1.5-1.5s-0.673-1.5-1.5-1.5h-2v3H9.25z M9.25,8.513c0.827,0,1.5-0.673,1.5-1.5s-0.673-1.5-1.5-1.5h-2v3H9.25z"
		/>
</g>
</svg>
