<?xml version="1.0" encoding="utf-8"?>
<!-- Generator: Adobe Illustrator 22.1.0, SVG Export Plug-In . SVG Version: 6.00 Build 0)  -->
<svg version="1.1" id="Layer_1" xmlns="http://www.w3.org/2000/svg" xmlns:xlink="http://www.w3.org/1999/xlink" x="0px" y="0px"
	 viewBox="0 0 24 24" style="enable-background:new 0 0 24 24;" xml:space="preserve">
<g>
	<title>crypto-currency-litecoin</title>
	<path d="M12.004,23.5c-6.341,0-11.5-5.159-11.5-11.5s5.159-11.5,11.5-11.5s11.5,5.159,11.5,11.5S18.345,23.5,12.004,23.5z
		 M12.004,1.5c-5.79,0-10.5,4.71-10.5,10.5c0,5.79,4.71,10.5,10.5,10.5c5.79,0,10.5-4.71,10.5-10.5
		C22.504,6.21,17.794,1.5,12.004,1.5z"/>
	<path d="M9.114,17.5c-0.066,0-0.132-0.007-0.198-0.02c-0.542-0.111-0.892-0.64-0.782-1.18l0.697-3.491l-2.627,1.149
		C6.142,13.986,6.074,14,6.004,14c-0.199,0-0.379-0.118-0.458-0.3c-0.053-0.122-0.056-0.258-0.007-0.383
		c0.049-0.124,0.143-0.222,0.265-0.276l3.266-1.429l1.44-7.211C10.556,4.169,10.762,4,10.999,4c0.033,0,0.066,0.003,0.099,0.01
		c0.13,0.026,0.243,0.102,0.317,0.213c0.074,0.111,0.101,0.245,0.074,0.375l-1.303,6.526l3.617-1.582
		c0.063-0.028,0.131-0.042,0.2-0.042c0.199,0,0.379,0.118,0.458,0.3c0.054,0.122,0.056,0.258,0.008,0.383
		c-0.049,0.124-0.143,0.222-0.265,0.276L9.948,12.32l-0.834,4.177L17.5,16.5c0.276,0,0.5,0.224,0.5,0.5s-0.224,0.5-0.5,0.5H9.114z"
		/>
</g>
</svg>
