<?xml version="1.0" encoding="utf-8"?>
<!-- Generator: Adobe Illustrator 22.1.0, SVG Export Plug-In . SVG Version: 6.00 Build 0)  -->
<svg version="1.1" id="Layer_1" xmlns="http://www.w3.org/2000/svg" xmlns:xlink="http://www.w3.org/1999/xlink" x="0px" y="0px"
	 viewBox="0 0 24 24" style="enable-background:new 0 0 24 24;" xml:space="preserve">
<g>
	<title>crypto-currency-ripple</title>
	<path d="M12.004,23.5c-6.341,0-11.5-5.159-11.5-11.5s5.159-11.5,11.5-11.5s11.5,5.159,11.5,11.5S18.345,23.5,12.004,23.5z
		 M12.004,1.5c-5.79,0-10.5,4.71-10.5,10.5c0,5.79,4.71,10.5,10.5,10.5c5.79,0,10.5-4.71,10.5-10.5
		C22.504,6.21,17.794,1.5,12.004,1.5z"/>
	<path d="M14.504,18.964c-1.244,0-2.374-0.781-2.811-1.944c-0.26-0.699-0.24-1.48,0.05-2.163l-0.255-0.52
		c-0.25-0.509-0.779-0.837-1.346-0.837h-0.039c-0.531,0.944-1.517,1.525-2.61,1.525c-0.292,0-0.583-0.043-0.865-0.127
		c-1.585-0.476-2.486-2.152-2.01-3.736C4.89,10.18,5.641,9.418,6.625,9.126c0.282-0.086,0.576-0.13,0.871-0.13
		c1.084,0,2.068,0.572,2.604,1.504h0.235c0.524,0,1-0.264,1.275-0.707l0.32-0.515c-0.438-0.724-0.547-1.592-0.297-2.407
		c0.392-1.268,1.543-2.117,2.865-2.118c1.655,0,3.001,1.345,3.002,2.998c0.001,1.639-1.32,2.977-2.954,3.002l-0.39,0.627
		c-0.277,0.443-0.305,0.988-0.076,1.456l0.093,0.189c0.102-0.011,0.204-0.017,0.306-0.017c0.812,0,1.575,0.356,2.096,0.978
		c0.565,0.523,0.901,1.262,0.923,2.031c-0.033,1.247-0.795,2.323-1.943,2.755C15.218,18.899,14.864,18.964,14.504,18.964z
		 M10.137,12.5c0.951,0,1.831,0.548,2.249,1.396l0.362,0.738c0.071,0.145,0.068,0.316-0.009,0.458
		c-0.262,0.486-0.302,1.061-0.109,1.578c0.188,0.499,0.559,0.895,1.046,1.115c0.263,0.119,0.54,0.18,0.824,0.18
		c0.24,0,0.477-0.043,0.705-0.129c0.765-0.288,1.273-1.001,1.295-1.818c-0.014-0.489-0.24-0.973-0.621-1.315
		c-0.019-0.017-0.038-0.036-0.054-0.057c-0.33-0.405-0.821-0.638-1.345-0.638c-0.154,0-0.306,0.021-0.455,0.061
		c-0.043,0.012-0.087,0.017-0.131,0.017c-0.189,0-0.366-0.109-0.449-0.278l-0.261-0.53c-0.383-0.782-0.336-1.688,0.125-2.426
		l0.549-0.884c0.091-0.146,0.254-0.236,0.425-0.236c0.007,0,0.034,0.001,0.041,0.002c0.037,0.003,0.074,0.008,0.11,0.013
		c0.03,0.004,0.049,0.008,0.068,0.008c0.533,0,1.035-0.209,1.413-0.588s0.586-0.881,0.585-1.414c-0.001-1.102-0.898-1.999-2-1.999
		c-0.88,0-1.647,0.564-1.909,1.403c-0.001,0.005-0.003,0.01-0.005,0.015c-0.183,0.627-0.057,1.286,0.334,1.786
		c0.129,0.165,0.141,0.395,0.03,0.572l-0.492,0.792C12,11.059,11.207,11.5,10.337,11.5H9.793c-0.199,0-0.379-0.118-0.458-0.3
		c-0.32-0.731-1.041-1.204-1.839-1.204c-0.197,0-0.393,0.029-0.584,0.087c-0.654,0.194-1.152,0.7-1.333,1.355
		c-0.319,1.064,0.281,2.184,1.337,2.501c0.189,0.057,0.383,0.086,0.578,0.086c0.802,0,1.524-0.479,1.838-1.22
		C9.411,12.62,9.592,12.5,9.793,12.5H10.137z"/>
</g>
</svg>
