<?xml version="1.0" encoding="utf-8"?>
<!-- Generator: Adobe Illustrator 22.1.0, SVG Export Plug-In . SVG Version: 6.00 Build 0)  -->
<svg version="1.1" id="Layer_1" xmlns="http://www.w3.org/2000/svg" xmlns:xlink="http://www.w3.org/1999/xlink" x="0px" y="0px"
	 viewBox="0 0 24 24" style="enable-background:new 0 0 24 24;" xml:space="preserve">
<g>
	<title>crypto-currency-bitcoin-exhcange</title>
	<path d="M12.504,13c-3.584,0-6.5-2.916-6.5-6.5S8.92,0,12.504,0c3.584,0,6.5,2.916,6.5,6.5S16.088,13,12.504,13z M12.504,1
		c-3.033,0-5.5,2.467-5.5,5.5s2.467,5.5,5.5,5.5s5.5-2.467,5.5-5.5S15.537,1,12.504,1z"/>
	<path d="M12.004,11c-0.276,0-0.5-0.224-0.5-0.5V10H10.5C10.224,10,10,9.776,10,9.5v-6C10,3.224,10.224,3,10.5,3h1.004V2.5
		c0-0.276,0.224-0.5,0.5-0.5c0.276,0,0.5,0.224,0.5,0.5V3H13c1.103,0,2,0.897,2,2c0,0.575-0.255,1.123-0.682,1.5
		C14.745,6.877,15,7.425,15,8c0,1.103-0.897,2-2,2h-0.496v0.5C12.504,10.776,12.28,11,12.004,11z M13,9c0.552,0,1-0.449,1-1
		s-0.448-1-1-1h-2v2H13z M13,6c0.552,0,1-0.449,1-1s-0.448-1-1-1h-2v2H13z"/>
	<path d="M3.504,24c-0.276,0-0.5-0.224-0.5-0.5s0.224-0.5,0.5-0.5h1.5v-1h-3.5c-0.827,0-1.5-0.673-1.5-1.5v-6
		c0-0.827,0.673-1.5,1.5-1.5h8c0.827,0,1.5,0.673,1.5,1.5v6c0,0.827-0.673,1.5-1.5,1.5h-3.5v1h1.5c0.276,0,0.5,0.224,0.5,0.5
		S7.78,24,7.504,24H3.504z M1.004,20.5c0,0.276,0.224,0.5,0.5,0.5h8c0.276,0,0.5-0.224,0.5-0.5V20h-9V20.5z M10.004,19v-4.5
		c0-0.276-0.224-0.5-0.5-0.5h-8c-0.276,0-0.5,0.224-0.5,0.5V19H10.004z"/>
	<path d="M16.504,24c-0.276,0-0.5-0.224-0.5-0.5s0.224-0.5,0.5-0.5h1.5v-1h-3.5c-0.827,0-1.5-0.673-1.5-1.5v-6
		c0-0.827,0.673-1.5,1.5-1.5h8c0.827,0,1.5,0.673,1.5,1.5v6c0,0.827-0.673,1.5-1.5,1.5h-3.5v1h1.5c0.276,0,0.5,0.224,0.5,0.5
		s-0.224,0.5-0.5,0.5H16.504z M14.004,20.5c0,0.276,0.224,0.5,0.5,0.5h8c0.276,0,0.5-0.224,0.5-0.5V20h-9V20.5z M23.004,19v-4.5
		c0-0.276-0.224-0.5-0.5-0.5h-8c-0.276,0-0.5,0.224-0.5,0.5V19H23.004z"/>
</g>
</svg>
