<?xml version="1.0" encoding="utf-8"?>
<!-- Generator: Adobe Illustrator 22.1.0, SVG Export Plug-In . SVG Version: 6.00 Build 0)  -->
<svg version="1.1" id="Layer_1" xmlns="http://www.w3.org/2000/svg" xmlns:xlink="http://www.w3.org/1999/xlink" x="0px" y="0px"
	 viewBox="0 0 24 24" style="enable-background:new 0 0 24 24;" xml:space="preserve">
<g>
	<title>crypto-currency-namecoin</title>
	<path d="M12.004,23.5c-6.341,0-11.5-5.159-11.5-11.5s5.159-11.5,11.5-11.5s11.5,5.159,11.5,11.5S18.345,23.5,12.004,23.5z
		 M12.004,1.5c-5.79,0-10.5,4.71-10.5,10.5c0,5.79,4.71,10.5,10.5,10.5c5.79,0,10.5-4.71,10.5-10.5
		C22.504,6.21,17.794,1.5,12.004,1.5z"/>
	<path d="M14.504,17.5c-0.067,0-0.132-0.013-0.193-0.039v0c-0.016-0.007-0.031-0.015-0.046-0.025
		c-0.004-0.003-0.008-0.005-0.011-0.008c-0.031-0.017-0.065-0.039-0.097-0.071c-0.004-0.004-0.009-0.008-0.012-0.012l-5.661-6.132
		l-2.518,5.98C5.886,17.38,5.706,17.5,5.504,17.5c-0.066,0-0.131-0.013-0.193-0.039c-0.255-0.108-0.375-0.401-0.268-0.655l4-9.5
		c0.004-0.008,0.008-0.017,0.012-0.025c0.014-0.027,0.03-0.048,0.04-0.061c0.012-0.019,0.027-0.043,0.05-0.068
		C9.149,7.148,9.153,7.144,9.158,7.14c0.019-0.019,0.056-0.044,0.079-0.056c0.008-0.007,0.042-0.032,0.089-0.05
		C9.363,7.02,9.394,7.016,9.41,7.013c0.026-0.005,0.058-0.012,0.097-0.012C9.56,7.002,9.594,7.012,9.615,7.017
		C9.638,7.02,9.677,7.03,9.698,7.039C9.706,7.043,9.713,7.046,9.72,7.05c0.025,0.011,0.05,0.031,0.064,0.041
		C9.802,7.103,9.826,7.118,9.85,7.141c0.01,0.008,0.019,0.018,0.027,0.027l5.648,6.118l2.518-5.98C18.121,7.12,18.302,7,18.504,7
		c0.067,0,0.132,0.013,0.194,0.039c0.254,0.107,0.374,0.4,0.267,0.655l-4,9.5c-0.005,0.012-0.012,0.025-0.019,0.037
		c-0.002,0.003-0.003,0.006-0.005,0.008c-0.02,0.036-0.042,0.067-0.068,0.095c-0.009,0.012-0.02,0.024-0.03,0.033
		c-0.01,0.01-0.024,0.02-0.038,0.029c-0.023,0.018-0.055,0.038-0.09,0.054c-0.015,0.007-0.029,0.014-0.043,0.019
		C14.611,17.491,14.558,17.5,14.504,17.5z M14.344,16.09l0.754-1.792L9.663,8.41l-0.754,1.792L14.344,16.09z"/>
</g>
</svg>
