<?xml version="1.0" encoding="utf-8"?>
<!-- Generator: Adobe Illustrator 22.1.0, SVG Export Plug-In . SVG Version: 6.00 Build 0)  -->
<svg version="1.1" id="Layer_1" xmlns="http://www.w3.org/2000/svg" xmlns:xlink="http://www.w3.org/1999/xlink" x="0px" y="0px"
	 viewBox="0 0 24 24" style="enable-background:new 0 0 24 24;" xml:space="preserve">
<g>
	<title>crypto-currency-bitcoin-coins</title>
	<path d="M17.504,24c-3.584,0-6.5-2.916-6.5-6.5s2.916-6.5,6.5-6.5s6.5,2.916,6.5,6.5S21.088,24,17.504,24z M17.504,12
		c-3.033,0-5.5,2.467-5.5,5.5s2.467,5.5,5.5,5.5s5.5-2.467,5.5-5.5S20.537,12,17.504,12z"/>
	<path d="M8,21c-2.767,0-8-0.522-8-2.5V13c0-0.014,0.002-0.031,0.005-0.047L0.004,6.546C0.002,6.537,0,6.519,0,6.5v-1
		c0-0.014,0.002-0.031,0.005-0.047L0.004,2.5c0-1.978,5.233-2.5,8-2.5s8,0.522,8,2.5v3c0,0.014-0.002,0.031-0.005,0.047L16,6.457
		c0.002,0.015,0.004,0.031,0.004,0.043V8c0,0.276-0.224,0.5-0.5,0.5s-0.5-0.224-0.5-0.5V7.797C13.429,8.679,10.331,9,8,9
		C5.675,9,2.582,8.68,1.004,7.802V10.5c0,0.435,2.453,1.5,7,1.5c0.653,0,1.306-0.023,1.942-0.069c0.006,0,0.026-0.001,0.032-0.001
		c0.263,0,0.484,0.204,0.503,0.464c0.01,0.133-0.033,0.262-0.121,0.363c-0.088,0.101-0.209,0.162-0.342,0.171
		C9.359,12.976,8.682,13,8.004,13c-2.328,0-5.424-0.32-7-1.201V13c0,0.014-0.002,0.031-0.005,0.047L1,14.5C1,14.935,3.453,16,8,16
		h0.5C8.776,16,9,16.224,9,16.5S8.776,17,8.5,17H8c-2.328,0-5.424-0.32-7-1.201V18.5C1,18.935,3.453,20,8,20h0.5
		C8.776,20,9,20.224,9,20.5S8.776,21,8.5,21H8z M1.004,6.516C1.085,6.935,3.309,8,8,8c4.547,0,7-1.065,7-1.5v-1
		c0-0.014,0.002-0.031,0.005-0.047l0-1.654C13.428,4.68,10.332,5,8.004,5c-2.328,0-5.424-0.32-7-1.201V5.5
		c0,0.014-0.002,0.031-0.005,0.047L1,6.457C1.002,6.472,1.004,6.488,1.004,6.5V6.516z M8.004,1c-4.547,0-7,1.065-7,1.5
		s2.453,1.5,7,1.5c4.547,0,7-1.065,7-1.5S12.551,1,8.004,1z"/>
	<path d="M17.004,22c-0.276,0-0.5-0.224-0.5-0.5V21H15.5c-0.276,0-0.5-0.224-0.5-0.5v-6c0-0.276,0.224-0.5,0.5-0.5h1.004v-0.5
		c0-0.276,0.224-0.5,0.5-0.5s0.5,0.224,0.5,0.5V14H18c1.103,0,2,0.897,2,2c0,0.575-0.255,1.123-0.682,1.5
		C19.745,17.877,20,18.425,20,19c0,1.103-0.897,2-2,2h-0.496v0.5C17.504,21.776,17.28,22,17.004,22z M18,20c0.552,0,1-0.448,1-1
		s-0.448-1-1-1h-2v2H18z M18,17c0.552,0,1-0.448,1-1s-0.448-1-1-1h-2v2H18z"/>
</g>
</svg>
