<?xml version="1.0" encoding="utf-8"?>
<!-- Generator: Adobe Illustrator 22.1.0, SVG Export Plug-In . SVG Version: 6.00 Build 0)  -->
<svg version="1.1" id="Layer_1" xmlns="http://www.w3.org/2000/svg" xmlns:xlink="http://www.w3.org/1999/xlink" x="0px" y="0px"
	 viewBox="0 0 24 24" style="enable-background:new 0 0 24 24;" xml:space="preserve">
<g>
	<title>crypto-currency-bitcoin-dollar-exchange</title>
	<path d="M8.504,22c-0.276,0-0.5-0.224-0.5-0.5V20h-1v1.5c0,0.276-0.224,0.5-0.5,0.5s-0.5-0.224-0.5-0.5V20H5.5
		C5.224,20,5,19.776,5,19.5v-6C5,13.224,5.224,13,5.5,13h0.504v-1.48c0-0.276,0.224-0.5,0.5-0.5s0.5,0.224,0.5,0.5V13h1v-1.48
		c0-0.276,0.224-0.5,0.5-0.5s0.5,0.224,0.5,0.5V13C10.105,13.002,11,13.898,11,15c0,0.575-0.255,1.123-0.682,1.5
		C10.745,16.877,11,17.425,11,18c0,1.102-0.895,1.998-1.996,2v1.5C9.004,21.776,8.78,22,8.504,22z M9,19c0.551,0,1-0.448,1-1
		s-0.449-1-1-1H6v2H9z M9,16c0.551,0,1-0.448,1-1s-0.449-1-1-1H6v2H9z"/>
	<path d="M18.504,11c-3.033,0-5.5-2.467-5.5-5.5s2.467-5.5,5.5-5.5s5.5,2.467,5.5,5.5S21.537,11,18.504,11z M18.504,1
		c-2.481,0-4.5,2.019-4.5,4.5s2.019,4.5,4.5,4.5s4.5-2.019,4.5-4.5S20.985,1,18.504,1z"/>
	<path d="M7.504,24c-4.135,0-7.5-3.365-7.5-7.5S3.368,9,7.504,9s7.5,3.365,7.5,7.5S11.639,24,7.504,24z M7.504,10
		c-3.584,0-6.5,2.916-6.5,6.5S3.92,23,7.504,23s6.5-2.916,6.5-6.5S11.088,10,7.504,10z"/>
	<path d="M18.504,9.091c-0.276,0-0.5-0.224-0.5-0.5V8.24c-0.683-0.215-1.159-0.849-1.159-1.581c0-0.276,0.224-0.5,0.5-0.5
		s0.5,0.224,0.5,0.5c0,0.363,0.296,0.659,0.659,0.659s0.659-0.296,0.659-0.659C19.163,6.296,18.867,6,18.504,6
		c-0.917,0-1.663-0.744-1.663-1.659c0-0.734,0.478-1.369,1.163-1.582v-0.35c0-0.276,0.224-0.5,0.5-0.5s0.5,0.224,0.5,0.5v0.352
		c0.68,0.216,1.155,0.85,1.155,1.58c0,0.276-0.224,0.5-0.5,0.5s-0.5-0.224-0.5-0.5c0-0.357-0.288-0.651-0.645-0.658
		c-0.003,0-0.022,0-0.029,0c-0.357,0.007-0.645,0.3-0.645,0.659C17.841,4.704,18.136,5,18.5,5c0.917,0,1.663,0.744,1.663,1.659
		c0,0.732-0.476,1.366-1.159,1.581v0.351C19.004,8.867,18.78,9.091,18.504,9.091z"/>
	<path d="M4,7.5c-0.141,0-0.277-0.062-0.372-0.17L1.65,5.354C1.556,5.259,1.504,5.134,1.504,5S1.556,4.741,1.65,4.646
		S1.87,4.5,2.004,4.5s0.259,0.052,0.354,0.146l1.146,1.146C3.613,2.856,6.037,0.5,9,0.5c0.276,0,0.5,0.224,0.5,0.5S9.276,1.5,9,1.5
		c-2.412,0-4.386,1.907-4.495,4.292L5.65,4.646C5.745,4.552,5.87,4.5,6.004,4.5s0.259,0.052,0.354,0.146S6.504,4.866,6.504,5
		S6.452,5.259,6.357,5.354l-2,2C4.263,7.448,4.137,7.5,4.004,7.5C4.003,7.5,4,7.5,4,7.5z"/>
	<path d="M16,21.5c-0.276,0-0.5-0.224-0.5-0.5s0.224-0.5,0.5-0.5c2.409,0,4.382-1.903,4.495-4.284l-1.137,1.137
		c-0.094,0.094-0.22,0.146-0.354,0.146s-0.259-0.052-0.354-0.146s-0.146-0.22-0.146-0.354s0.052-0.259,0.146-0.354l1.988-1.988
		C20.723,14.562,20.859,14.5,21,14.5c0.006,0,0.013,0,0.019,0.001c0.129,0.004,0.248,0.056,0.338,0.146l2,2
		c0.195,0.195,0.195,0.512,0,0.707c-0.094,0.094-0.22,0.146-0.354,0.146s-0.259-0.052-0.354-0.146L21.496,16.2
		C21.391,19.14,18.966,21.5,16,21.5z"/>
</g>
</svg>
