<?xml version="1.0" encoding="utf-8"?>
<!-- Generator: Adobe Illustrator 22.1.0, SVG Export Plug-In . SVG Version: 6.00 Build 0)  -->
<svg version="1.1" id="Layer_1" xmlns="http://www.w3.org/2000/svg" xmlns:xlink="http://www.w3.org/1999/xlink" x="0px" y="0px"
	 viewBox="0 0 24 24" style="enable-background:new 0 0 24 24;" xml:space="preserve">
<g>
	<title>crypto-currency-bitcoin-world</title>
	<path d="M13.004,17.5c-0.276,0-0.5-0.224-0.5-0.5v-1.5h-1V17c0,0.276-0.224,0.5-0.5,0.5s-0.5-0.224-0.5-0.5v-1.5H10
		c-0.276,0-0.5-0.224-0.5-0.5V9c0-0.276,0.224-0.5,0.5-0.5h0.504V7.02c0-0.276,0.224-0.5,0.5-0.5s0.5,0.224,0.5,0.5V8.5h1V7.02
		c0-0.276,0.224-0.5,0.5-0.5s0.5,0.224,0.5,0.5V8.5c1.101,0.002,1.996,0.898,1.996,2c0,0.575-0.255,1.123-0.682,1.5
		c0.427,0.377,0.682,0.925,0.682,1.5c0,1.102-0.895,1.998-1.996,2V17C13.504,17.276,13.28,17.5,13.004,17.5z M13.5,14.5
		c0.552,0,1-0.448,1-1s-0.448-1-1-1h-3v2H13.5z M13.5,11.5c0.552,0,1-0.449,1-1s-0.448-1-1-1h-3v2H13.5z"/>
	<path d="M12.004,23.5c-0.148,0-0.295-0.005-0.442-0.011c-0.007,0-0.013,0.001-0.019,0.001c-0.012,0-0.026-0.001-0.039-0.003
		c-4.094-0.173-7.818-2.553-9.715-6.214c-0.022-0.033-0.039-0.066-0.052-0.101C0.919,15.553,0.504,13.814,0.504,12
		c0-2.204,0.631-4.349,1.824-6.204c0.022-0.049,0.05-0.093,0.085-0.131c2.034-3.069,5.431-4.995,9.091-5.152
		c0.004,0,0.023-0.001,0.026-0.001C11.688,0.506,11.845,0.5,12.004,0.5c0.158,0,0.315,0.006,0.472,0.012
		c0.002,0,0.033,0.001,0.046,0.002c3.642,0.156,7.039,2.082,9.073,5.151c0.035,0.038,0.063,0.083,0.085,0.132
		c1.193,1.855,1.824,4,1.824,6.204c0,1.813-0.415,3.553-1.233,5.171c-0.013,0.036-0.031,0.07-0.052,0.102
		c-1.896,3.659-5.617,6.038-9.717,6.214c-0.013,0.002-0.025,0.003-0.037,0.003c-0.007,0-0.014,0-0.021-0.001
		C12.304,23.495,12.155,23.5,12.004,23.5z M11.78,22.495c0.074,0.003,0.149,0.005,0.224,0.005c0.075,0,0.149-0.002,0.224-0.005
		c0.9-1.067,1.687-2.224,2.344-3.448c-0.82,0.301-1.681,0.453-2.568,0.453s-1.748-0.152-2.568-0.453
		C10.094,20.271,10.88,21.428,11.78,22.495z M3.066,17.5c1.621,2.627,4.307,4.41,7.337,4.876c-0.967-1.261-1.789-2.627-2.448-4.068
		C7.586,18.071,7.236,17.8,6.913,17.5H3.066z M16.053,18.308c-0.658,1.442-1.48,2.807-2.448,4.068
		c3.029-0.467,5.715-2.249,7.337-4.876h-3.847C16.772,17.799,16.422,18.071,16.053,18.308z M12.004,5.5c-3.584,0-6.5,2.916-6.5,6.5
		c0,3.584,2.916,6.5,6.5,6.5c3.584,0,6.5-2.916,6.5-6.5C18.504,8.416,15.588,5.5,12.004,5.5z M21.488,16.5
		c0.599-1.258,0.936-2.601,1.001-4h-3.004c-0.097,1.446-0.617,2.841-1.488,4H21.488z M6.01,16.5c-0.87-1.159-1.391-2.554-1.488-4
		H1.519c0.065,1.399,0.401,2.743,1.001,4H6.01z M22.489,11.5c-0.084-1.772-0.616-3.493-1.547-5h-3.845
		c1.407,1.302,2.262,3.081,2.389,5H22.489z M4.522,11.5c0.127-1.919,0.982-3.698,2.389-5H3.066c-0.931,1.508-1.463,3.228-1.547,5
		H4.522z M20.241,5.5c-1.652-2.09-4.023-3.474-6.635-3.876c0.922,1.203,1.712,2.503,2.357,3.876H20.241z M8.046,5.5
		c0.644-1.373,1.435-2.674,2.357-3.876C7.79,2.026,5.418,3.41,3.767,5.5H8.046z M12.004,4.5c0.886,0,1.747,0.152,2.567,0.453
		c-0.658-1.224-1.444-2.381-2.343-3.448C12.154,1.502,12.079,1.5,12.004,1.5c-0.075,0-0.15,0.002-0.224,0.005
		c-0.899,1.067-1.685,2.224-2.343,3.448C10.257,4.652,11.118,4.5,12.004,4.5z"/>
</g>
</svg>
