<?xml version="1.0" encoding="utf-8"?>
<!-- Generator: Adobe Illustrator 22.1.0, SVG Export Plug-In . SVG Version: 6.00 Build 0)  -->
<svg version="1.1" id="Layer_1" xmlns="http://www.w3.org/2000/svg" xmlns:xlink="http://www.w3.org/1999/xlink" x="0px" y="0px"
	 viewBox="0 0 24 24" style="enable-background:new 0 0 24 24;" xml:space="preserve">
<g>
	<title>crypto-currency-bitcoin-monitor</title>
	<path d="M7.404,24c-0.276,0-0.5-0.224-0.5-0.5s0.224-0.5,0.5-0.5h1.46l0.093-0.15c0.566-0.856,0.93-1.835,1.064-2.85H2.004
		c-1.103,0-2-0.897-2-2V2c0-1.103,0.897-2,2-2h20c1.103,0,2,0.897,2,2v16c0,1.103-0.897,2-2,2h-8.018
		c0.133,1.015,0.496,1.991,1.057,2.838L15.144,23h1.46c0.276,0,0.5,0.224,0.5,0.5s-0.224,0.5-0.5,0.5H7.404z M13.968,23
		c-0.533-0.921-0.872-1.945-0.992-3h-1.942c-0.121,1.056-0.46,2.081-0.992,3H13.968z M1.004,18c0,0.552,0.449,1,1,1h20
		c0.552,0,1-0.448,1-1v-1h-22V18z M23.004,16V2c0-0.551-0.448-1-1-1h-20c-0.551,0-1,0.449-1,1v14H23.004z"/>
	<path d="M11.004,14c-0.276,0-0.5-0.224-0.5-0.5V13H9.5C9.224,13,9,12.776,9,12.5v-8C9,4.224,9.224,4,9.5,4h1.004V3.5
		c0-0.276,0.224-0.5,0.5-0.5s0.5,0.224,0.5,0.5V4H12c1.379,0,2.5,1.121,2.5,2.5c0,0.797-0.376,1.532-1.003,2
		c0.627,0.468,1.003,1.203,1.003,2c0,1.379-1.122,2.5-2.5,2.5h-0.496v0.5C11.504,13.776,11.28,14,11.004,14z M12,12
		c0.827,0,1.5-0.673,1.5-1.5S12.827,9,12,9h-2v3H12z M12,8c0.827,0,1.5-0.673,1.5-1.5S12.827,5,12,5h-2v3H12z"/>
</g>
</svg>
