<?xml version="1.0" encoding="utf-8"?>
<!-- Generator: Adobe Illustrator 22.1.0, SVG Export Plug-In . SVG Version: 6.00 Build 0)  -->
<svg version="1.1" id="Layer_1" xmlns="http://www.w3.org/2000/svg" xmlns:xlink="http://www.w3.org/1999/xlink" x="0px" y="0px"
	 viewBox="0 0 24 24" style="enable-background:new 0 0 24 24;" xml:space="preserve">
<g>
	<title>crypto-currency-bitcoin-dollar-unequal</title>
	<path d="M7.752,23.75c-0.191,0-0.368-0.111-0.451-0.283s-0.059-0.38,0.06-0.529l4-5c0.093-0.116,0.235-0.183,0.39-0.183
		s0.298,0.067,0.391,0.183l4,5c0.119,0.149,0.143,0.357,0.06,0.529c-0.083,0.173-0.26,0.284-0.451,0.284H7.752z M14.712,22.75
		l-2.96-3.7l-2.96,3.7H14.712z"/>
	<path d="M1.252,21.75c-0.203,0-0.384-0.121-0.462-0.309c-0.051-0.124-0.051-0.26,0-0.383c0.051-0.124,0.147-0.219,0.271-0.271
		l21.249-8.802c0.062-0.025,0.125-0.038,0.191-0.038c0.203,0,0.385,0.121,0.462,0.309c0.105,0.255-0.016,0.548-0.271,0.653
		L1.444,21.712C1.382,21.737,1.318,21.75,1.252,21.75z"/>
	<path d="M2.752,18.75c-0.276,0-0.5-0.224-0.5-0.5v-0.5h-1c-0.276,0-0.5-0.224-0.5-0.5v-8c0-0.276,0.224-0.5,0.5-0.5h1v-0.5
		c0-0.276,0.224-0.5,0.5-0.5s0.5,0.224,0.5,0.5v0.5h0.5c1.379,0,2.5,1.121,2.5,2.5c0,0.798-0.376,1.532-1.003,2
		c0.627,0.468,1.003,1.202,1.003,2c0,1.378-1.121,2.5-2.5,2.5h-0.5v0.5C3.252,18.526,3.028,18.75,2.752,18.75z M3.752,16.75
		c0.827,0,1.5-0.673,1.5-1.5s-0.673-1.5-1.5-1.5h-2v3H3.752z M3.752,12.75c0.827,0,1.5-0.673,1.5-1.5s-0.673-1.5-1.5-1.5h-2v3H3.752
		z"/>
	<path d="M20.252,12.25c-0.276,0-0.5-0.224-0.5-0.5v-1h-1c-0.276,0-0.5-0.224-0.5-0.5s0.224-0.5,0.5-0.5h2.146
		c0.518,0,0.982-0.287,1.213-0.75c0.161-0.324,0.187-0.691,0.073-1.034c-0.115-0.343-0.356-0.621-0.68-0.782l-1.95-0.975
		c-0.802-0.401-1.301-1.208-1.301-2.104c0-1.298,1.055-2.354,2.353-2.355h0.146v-1c0-0.276,0.224-0.5,0.5-0.5s0.5,0.224,0.5,0.5v1h1
		c0.276,0,0.5,0.224,0.5,0.5s-0.224,0.5-0.5,0.5h-2.146c-0.746,0-1.354,0.608-1.353,1.354c0,0.516,0.287,0.979,0.748,1.21
		l1.95,0.975c1.161,0.579,1.634,1.995,1.055,3.157c-0.401,0.804-1.208,1.303-2.106,1.303h-0.147v1
		C20.752,12.026,20.528,12.25,20.252,12.25z"/>
</g>
</svg>
