<?xml version="1.0" encoding="utf-8"?>
<!-- Generator: Adobe Illustrator 22.1.0, SVG Export Plug-In . SVG Version: 6.00 Build 0)  -->
<svg version="1.1" id="Layer_1" xmlns="http://www.w3.org/2000/svg" xmlns:xlink="http://www.w3.org/1999/xlink" x="0px" y="0px"
	 viewBox="0 0 24 24" style="enable-background:new 0 0 24 24;" xml:space="preserve">
<g>
	<title>cryptho-currency-megacoin</title>
	<path d="M12.004,23.5c-6.341,0-11.5-5.159-11.5-11.5s5.159-11.5,11.5-11.5s11.5,5.159,11.5,11.5S18.345,23.5,12.004,23.5z
		 M12.004,1.5c-5.79,0-10.5,4.71-10.5,10.5c0,5.79,4.71,10.5,10.5,10.5c5.79,0,10.5-4.71,10.5-10.5
		C22.504,6.21,17.794,1.5,12.004,1.5z"/>
	<path d="M4.5,15.5c-0.551,0-1-0.448-1-1V11c0-1.379,1.121-2.5,2.5-2.5S8.5,9.621,8.5,11v3.5c0,0.552-0.449,1-1,1H4.5z M6,9.5
		c-0.827,0-1.5,0.673-1.5,1.5v3.5h3V11C7.5,10.173,6.827,9.5,6,9.5z"/>
	<path d="M10.5,15.5c-0.551,0-1-0.448-1-1V11c0-1.379,1.121-2.5,2.5-2.5s2.5,1.121,2.5,2.5v3.5c0,0.552-0.448,1-1,1H10.5z M12,9.5
		c-0.827,0-1.5,0.673-1.5,1.5v3.5h3V11C13.5,10.173,12.827,9.5,12,9.5z"/>
	<path d="M16.5,15.5c-0.552,0-1-0.448-1-1V11c0-1.379,1.122-2.5,2.5-2.5s2.5,1.121,2.5,2.5v3.5c0,0.552-0.448,1-1,1H16.5z M18,9.5
		c-0.827,0-1.5,0.673-1.5,1.5v3.5h3V11C19.5,10.173,18.827,9.5,18,9.5z"/>
</g>
</svg>
