<?xml version="1.0" encoding="utf-8"?>
<!-- Generator: Adobe Illustrator 22.1.0, SVG Export Plug-In . SVG Version: 6.00 Build 0)  -->
<svg version="1.1" id="Layer_1" xmlns="http://www.w3.org/2000/svg" xmlns:xlink="http://www.w3.org/1999/xlink" x="0px" y="0px"
	 viewBox="0 0 24 24" style="enable-background:new 0 0 24 24;" xml:space="preserve">
<g>
	<title>crypto-currency-bitcoin-code</title>
	<path d="M8.004,24c-4.411,0-8-3.589-8-8c0-4.411,3.589-8,8-8c4.411,0,8,3.589,8,8C16.004,20.411,12.415,24,8.004,24z M8.004,9
		c-3.86,0-7,3.14-7,7s3.14,7,7,7s7-3.14,7-7S11.864,9,8.004,9z"/>
	<path d="M1.504,7c-0.276,0-0.5-0.224-0.5-0.5S1.228,6,1.504,6H3V1.211L1.853,2.354C1.758,2.448,1.633,2.5,1.5,2.5c0,0,0,0,0,0
		c-0.134,0-0.26-0.052-0.354-0.147C1.052,2.259,1,2.133,1,1.999S1.052,1.74,1.147,1.646l1.327-1.323C2.678,0.118,2.962,0,3.253,0
		C3.668,0.007,4,0.343,4,0.75V6h1.504c0.276,0,0.5,0.224,0.5,0.5S5.78,7,5.504,7H1.504z"/>
	<path d="M9.5,7C8.121,7,7,5.879,7,4.5v-2C7,1.121,8.121,0,9.5,0S12,1.121,12,2.5v2C12,5.879,10.878,7,9.5,7z M9.5,1
		C8.673,1,8,1.673,8,2.5v2C8,5.327,8.673,6,9.5,6S11,5.327,11,4.5v-2C11,1.673,10.327,1,9.5,1z"/>
	<path d="M13.504,7c-0.276,0-0.5-0.224-0.5-0.5s0.224-0.5,0.5-0.5h1.5V1.207l-1.151,1.147C13.759,2.448,13.633,2.5,13.5,2.5
		c-0.134,0-0.259-0.052-0.354-0.147c-0.195-0.195-0.194-0.513,0.001-0.707l1.327-1.323C14.675,0.121,14.942,0.009,15.247,0l0,0
		c0.421,0,0.757,0.336,0.757,0.75V6h1.5c0.276,0,0.5,0.224,0.5,0.5S17.78,7,17.504,7H13.504z"/>
	<path d="M21.5,7C20.122,7,19,5.879,19,4.5v-2C19,1.121,20.122,0,21.5,0S24,1.121,24,2.5v2C24,5.879,22.878,7,21.5,7z M21.5,1
		C20.673,1,20,1.673,20,2.5v2C20,5.327,20.673,6,21.5,6S23,5.327,23,4.5v-2C23,1.673,22.327,1,21.5,1z"/>
	<path d="M19.504,15c-0.276,0-0.5-0.224-0.5-0.5s0.224-0.5,0.5-0.5H21V9.207l-1.146,1.146c-0.094,0.094-0.22,0.146-0.354,0.146
		s-0.259-0.052-0.354-0.146c-0.195-0.195-0.195-0.512,0-0.707l1.323-1.323C20.677,8.115,20.954,8,21.249,8
		C21.664,8,22,8.336,22,8.75V14h1.504c0.276,0,0.5,0.224,0.5,0.5s-0.224,0.5-0.5,0.5H19.504z"/>
	<path d="M17.225,14.02c-0.089,0-0.177-0.024-0.253-0.069c-0.237-0.14-0.317-0.447-0.177-0.684c0.136-0.231,0.208-0.496,0.206-0.764
		V10.5C17,9.673,16.327,9,15.5,9c-0.001,0-0.002,0-0.002,0c-0.141,0-0.255,0.016-0.383,0.05c-0.042,0.011-0.085,0.017-0.129,0.017
		c-0.226,0-0.425-0.153-0.483-0.371c-0.035-0.129-0.017-0.264,0.05-0.379c0.067-0.116,0.175-0.198,0.304-0.233
		C15.065,8.028,15.281,8,15.497,8C16.879,8,18,9.121,18,10.5v2c0.002,0.446-0.117,0.887-0.344,1.273
		C17.567,13.926,17.401,14.02,17.225,14.02z"/>
	<path d="M15.504,23c-0.276,0-0.5-0.224-0.5-0.5v-1c0-0.276,0.224-0.5,0.5-0.5s0.5,0.224,0.5,0.5V22h1.5c0.276,0,0.5,0.224,0.5,0.5
		s-0.224,0.5-0.5,0.5H15.504z"/>
	<path d="M21.5,23c-1.378,0-2.5-1.122-2.5-2.5v-2c0-1.378,1.122-2.5,2.5-2.5s2.5,1.122,2.5,2.5v2C24,21.878,22.878,23,21.5,23z
		 M21.5,17c-0.827,0-1.5,0.673-1.5,1.5v2c0,0.827,0.673,1.5,1.5,1.5s1.5-0.673,1.5-1.5v-2C23,17.673,22.327,17,21.5,17z"/>
	<path d="M8.004,22c-0.276,0-0.5-0.224-0.5-0.5V21H6.5C6.224,21,6,20.776,6,20.5v-8C6,12.224,6.224,12,6.5,12h1.004v-0.5
		c0-0.276,0.224-0.5,0.5-0.5s0.5,0.224,0.5,0.5V12H9c1.379,0,2.5,1.122,2.5,2.5c0,0.798-0.376,1.532-1.003,2
		c0.627,0.468,1.003,1.202,1.003,2c0,1.378-1.121,2.5-2.5,2.5H8.504v0.5C8.504,21.776,8.28,22,8.004,22z M9,20
		c0.827,0,1.5-0.673,1.5-1.5S9.827,17,9,17H7v3H9z M9,16c0.827,0,1.5-0.673,1.5-1.5S9.827,13,9,13H7v3H9z"/>
</g>
</svg>
