<?xml version="1.0" encoding="utf-8"?>
<!-- Generator: Adobe Illustrator 22.1.0, SVG Export Plug-In . SVG Version: 6.00 Build 0)  -->
<svg version="1.1" id="Layer_1" xmlns="http://www.w3.org/2000/svg" xmlns:xlink="http://www.w3.org/1999/xlink" x="0px" y="0px"
	 viewBox="0 0 24 24" style="enable-background:new 0 0 24 24;" xml:space="preserve">
<g>
	<title>crypto-currency-bitcoin-browser</title>
	<path d="M12.504,20c-0.276,0-0.5-0.224-0.5-0.5V18h-1v1.5c0,0.276-0.224,0.5-0.5,0.5s-0.5-0.224-0.5-0.5V18H9.5
		C9.224,18,9,17.776,9,17.5v-6C9,11.224,9.224,11,9.5,11h0.504V9.52c0-0.276,0.224-0.5,0.5-0.5s0.5,0.224,0.5,0.5V11h1V9.52
		c0-0.276,0.224-0.5,0.5-0.5c0.276,0,0.5,0.224,0.5,0.5V11C14.105,11.002,15,11.898,15,13c0,0.575-0.255,1.123-0.682,1.5
		C14.745,14.877,15,15.425,15,16c0,1.102-0.895,1.998-1.996,2v1.5C13.004,19.776,12.78,20,12.504,20z M13,17c0.552,0,1-0.448,1-1
		s-0.448-1-1-1h-3v2H13z M13,14c0.552,0,1-0.448,1-1s-0.448-1-1-1h-3v2H13z"/>
	<path d="M2.504,22c-1.379,0-2.5-1.122-2.5-2.5v-15c0-1.379,1.121-2.5,2.5-2.5h19c1.378,0,2.5,1.121,2.5,2.5v15
		c0,1.378-1.122,2.5-2.5,2.5H2.504z M1.004,19.5c0,0.827,0.673,1.5,1.5,1.5h19c0.827,0,1.5-0.673,1.5-1.5V8h-22V19.5z M23.004,7V4.5
		c0-0.827-0.673-1.5-1.5-1.5h-19c-0.827,0-1.5,0.673-1.5,1.5V7H23.004z"/>
	<circle cx="3.5" cy="5" r="0.75"/>
	<path d="M6.242,5.75C5.831,5.744,5.5,5.407,5.5,5c0-0.412,0.333-0.747,0.744-0.75c0.003,0,0.019,0,0.024,0
		c0.203,0.006,0.385,0.087,0.522,0.228C6.928,4.622,7.003,4.812,7,5.012C6.997,5.213,6.916,5.4,6.772,5.539
		C6.631,5.675,6.446,5.75,6.25,5.75H6.242z"/>
	<path d="M9.242,5.75C8.831,5.744,8.5,5.407,8.5,5c0-0.414,0.336-0.75,0.75-0.75c0.001,0,0.004,0,0.004,0
		C9.463,4.253,9.65,4.334,9.789,4.478C9.928,4.622,10.003,4.812,10,5.012C9.997,5.213,9.916,5.4,9.772,5.539
		C9.631,5.675,9.446,5.75,9.25,5.75H9.242z"/>
</g>
</svg>
