<?xml version="1.0" encoding="utf-8"?>
<!-- Generator: Adobe Illustrator 22.1.0, SVG Export Plug-In . SVG Version: 6.00 Build 0)  -->
<svg version="1.1" id="Layer_1" xmlns="http://www.w3.org/2000/svg" xmlns:xlink="http://www.w3.org/1999/xlink" x="0px" y="0px"
	 viewBox="0 0 24 24" style="enable-background:new 0 0 24 24;" xml:space="preserve">
<g>
	<title>crypto-currency-bitcoin-lock</title>
	<path d="M5.5,24C4.121,24,3,22.878,3,21.5v-10C3,10.121,4.121,9,5.5,9H6V6c0-3.308,2.692-6,6-6c3.308,0,6,2.692,6,6v3h0.5
		c1.378,0,2.5,1.121,2.5,2.5v10c0,1.378-1.122,2.5-2.5,2.5H5.5z M5.5,10C4.673,10,4,10.673,4,11.5v10C4,22.327,4.673,23,5.5,23h13
		c0.827,0,1.5-0.673,1.5-1.5v-10c0-0.827-0.673-1.5-1.5-1.5H5.5z M17,9V6c0-2.757-2.243-5-5-5C9.243,1,7,3.243,7,6v3H17z"/>
	<path d="M12,22c-0.276,0-0.5-0.224-0.5-0.5V21h-1c-0.276,0-0.5-0.224-0.5-0.5v-8c0-0.276,0.224-0.5,0.5-0.5h1v-0.5
		c0-0.276,0.224-0.5,0.5-0.5c0.276,0,0.5,0.224,0.5,0.5V12H13c1.378,0,2.5,1.122,2.5,2.5c0,0.798-0.376,1.532-1.003,2
		c0.627,0.468,1.003,1.202,1.003,2c0,1.378-1.122,2.5-2.5,2.5h-0.5v0.5C12.5,21.776,12.276,22,12,22z M13,20
		c0.827,0,1.5-0.673,1.5-1.5S13.827,17,13,17h-2v3H13z M13,16c0.827,0,1.5-0.673,1.5-1.5S13.827,13,13,13h-2v3H13z"/>
</g>
</svg>
