<?xml version="1.0" encoding="utf-8"?>
<!-- Generator: Adobe Illustrator 22.1.0, SVG Export Plug-In . SVG Version: 6.00 Build 0)  -->
<svg version="1.1" id="Layer_1" xmlns="http://www.w3.org/2000/svg" xmlns:xlink="http://www.w3.org/1999/xlink" x="0px" y="0px"
	 viewBox="0 0 24 24" style="enable-background:new 0 0 24 24;" xml:space="preserve">
<g>
	<title>online-reading-readernaut</title>
	<path d="M12,24c-0.132,0-0.257-0.051-0.351-0.144c-2.907-2.872-6.919-4.519-11.007-4.519c0,0-0.138,0.001-0.139,0.001
		c-0.142,0-0.259-0.05-0.354-0.145C0.054,19.1,0,18.97,0,18.838v-3.05c0-0.135,0.055-0.265,0.151-0.358
		c0.094-0.091,0.219-0.142,0.352-0.142C0.838,15.297,8.395,15.539,12,19.252c3.604-3.714,11.161-3.957,11.487-3.965c0,0,0,0,0,0
		c0.14,0,0.269,0.052,0.361,0.142C23.945,15.523,24,15.653,24,15.787v3.051c0,0.133-0.054,0.262-0.148,0.355
		c-0.096,0.095-0.213,0.145-0.339,0.145l-0.157-0.001c-4.088,0-8.099,1.647-11.004,4.518C12.257,23.949,12.132,24,12,24z M1,18.341
		c4.051,0.09,8.033,1.707,11,4.466c2.966-2.76,6.949-4.377,11-4.466v-2.026c-1.783,0.125-7.947,0.786-10.615,4.004
		c-0.093,0.112-0.234,0.176-0.385,0.176c-0.151,0-0.292-0.064-0.384-0.176C8.946,17.102,2.782,16.441,1,16.316V18.341z"/>
	<path d="M6.011,15c-0.202,0-0.382-0.12-0.461-0.306c-0.726-1.723-0.738-3.626-0.033-5.358c0.705-1.732,2.042-3.086,3.765-3.812
		c0.865-0.365,1.776-0.55,2.709-0.55c2.828,0,5.364,1.68,6.46,4.281c0.724,1.719,0.728,3.692,0.01,5.413
		c-0.078,0.187-0.259,0.308-0.461,0.308l0,0c-0.066,0-0.131-0.013-0.193-0.039c-0.123-0.052-0.219-0.148-0.27-0.271
		s-0.051-0.26,0.001-0.383c0.615-1.475,0.612-3.166-0.009-4.64c-0.939-2.229-3.113-3.669-5.537-3.669
		c-0.799,0-1.58,0.158-2.322,0.471c-3.049,1.285-4.483,4.811-3.198,7.859c0.052,0.123,0.053,0.259,0.002,0.383
		c-0.05,0.124-0.146,0.22-0.269,0.272C6.143,14.987,6.078,15,6.011,15z"/>
	<path d="M21.5,13.968c-0.276,0-0.5-0.224-0.5-0.5v-1.5c0-4.963-4.037-9-9-9s-9,4.037-9,9v1.5c0,0.276-0.224,0.5-0.5,0.5
		c-1.379,0-2.5-1.122-2.5-2.5v-1c0-1.379,1.121-2.5,2.5-2.5c0.11,0,0.213,0.036,0.296,0.097C4.354,4.387,7.958,1.968,12,1.968
		s7.646,2.419,9.205,6.097c0.083-0.061,0.185-0.097,0.295-0.097V3.934C20.631,3.709,20,2.913,20,2c0-1.103,0.897-2,2-2s2,0.897,2,2
		c0,0.913-0.631,1.709-1.5,1.934V8.18c0.904,0.396,1.5,1.294,1.5,2.288v1C24,12.846,22.878,13.968,21.5,13.968z M22,12.882
		c0.586-0.209,1-0.773,1-1.414v-1c0-0.641-0.414-1.205-1-1.414V12.882z M2,9.054c-0.586,0.209-1,0.773-1,1.414v1
		c0,0.641,0.414,1.206,1,1.414V9.054z M22,1c-0.552,0-1,0.449-1,1s0.448,1,1,1s1-0.449,1-1S22.552,1,22,1z"/>
</g>
</svg>
