<?xml version="1.0" encoding="utf-8"?>
<!-- Generator: Adobe Illustrator 22.1.0, SVG Export Plug-In . SVG Version: 6.00 Build 0)  -->
<svg version="1.1" id="Light" xmlns="http://www.w3.org/2000/svg" xmlns:xlink="http://www.w3.org/1999/xlink" x="0px" y="0px"
	 viewBox="0 0 24 24" style="enable-background:new 0 0 24 24;" xml:space="preserve">
<g>
	<title>medical-app-smartphone-listen</title>
	<path d="M12.5,24c-1.379,0-2.5-1.122-2.5-2.5v-3.518C5.775,17.723,2.5,14.262,2.5,10V6.5C2.5,5.673,3.173,5,4,5
		c0.276,0,0.5,0.224,0.5,0.5S4.276,6,4,6S3.5,6.224,3.5,6.5V10c0,3.86,3.14,7,7,7s7-3.14,7-7V6.5C17.5,6.224,17.276,6,17,6
		s-0.5-0.224-0.5-0.5S16.724,5,17,5c0.827,0,1.5,0.673,1.5,1.5V10c0,4.262-3.275,7.723-7.5,7.982V21.5c0,0.827,0.673,1.5,1.5,1.5
		s1.5-0.673,1.5-1.5V21c0-1.476,1.102-2.741,2.543-2.963C16.762,16.862,17.785,16,19,16c1.378,0,2.5,1.122,2.5,2.5S20.378,21,19,21
		c-1.18,0-2.186-0.823-2.438-1.952C15.657,19.249,15,20.051,15,21v0.5C15,22.878,13.878,24,12.5,24z M19,17
		c-0.827,0-1.5,0.673-1.5,1.5S18.173,20,19,20s1.5-0.673,1.5-1.5S19.827,17,19,17z"/>
	<circle cx="10.5" cy="10.5" r="0.75"/>
	<path d="M7,14c-0.827,0-1.5-0.673-1.5-1.5v-11C5.5,0.673,6.173,0,7,0h7c0.827,0,1.5,0.673,1.5,1.5v11c0,0.827-0.673,1.5-1.5,1.5H7z
		 M7,1C6.724,1,6.5,1.224,6.5,1.5v11C6.5,12.776,6.724,13,7,13h7c0.276,0,0.5-0.224,0.5-0.5v-11C14.5,1.224,14.276,1,14,1H7z"/>
</g>
</svg>
