<?xml version="1.0" encoding="utf-8"?>
<!-- Generator: Adobe Illustrator 22.1.0, SVG Export Plug-In . SVG Version: 6.00 Build 0)  -->
<svg version="1.1" id="Layer_1" xmlns="http://www.w3.org/2000/svg" xmlns:xlink="http://www.w3.org/1999/xlink" x="0px" y="0px"
	 viewBox="0 0 24 24" style="enable-background:new 0 0 24 24;" xml:space="preserve">
<g>
	<title>discount-coupon</title>
	<path d="M1.5,20C0.673,20,0,19.327,0,18.5V15c0-0.276,0.224-0.5,0.5-0.5C1.879,14.5,3,13.378,3,12c0-1.379-1.121-2.5-2.5-2.5
		C0.224,9.5,0,9.276,0,9V5.5C0,4.673,0.673,4,1.5,4h21C23.327,4,24,4.673,24,5.5V9c0,0.276-0.224,0.5-0.5,0.5
		c-1.378,0-2.5,1.121-2.5,2.5c0,1.378,1.122,2.5,2.5,2.5c0.276,0,0.5,0.224,0.5,0.5v3.5c0,0.827-0.673,1.5-1.5,1.5H1.5z M1,18.5
		C1,18.776,1.224,19,1.5,19h21c0.276,0,0.5-0.224,0.5-0.5v-3.036c-1.7-0.245-3-1.724-3-3.464c0-1.74,1.3-3.219,3-3.464V5.5
		C23,5.224,22.776,5,22.5,5h-21C1.224,5,1,5.224,1,5.5v3.036C2.7,8.781,4,10.26,4,12c0,1.74-1.3,3.219-3,3.464V18.5z"/>
	<path d="M8,16.5c-0.134,0-0.259-0.052-0.354-0.146S7.5,16.134,7.5,16s0.052-0.259,0.146-0.354l8-8C15.741,7.552,15.866,7.5,16,7.5
		s0.259,0.052,0.354,0.146S16.5,7.866,16.5,8s-0.052,0.259-0.146,0.354l-8,8C8.259,16.448,8.134,16.5,8,16.5z"/>
	<path d="M9,11c-1.103,0-2-0.897-2-2s0.897-2,2-2s2,0.897,2,2S10.103,11,9,11z M9,8C8.449,8,8,8.449,8,9s0.449,1,1,1s1-0.449,1-1
		S9.551,8,9,8z"/>
	<path d="M15,17c-1.103,0-2-0.897-2-2s0.897-2,2-2s2,0.897,2,2S16.103,17,15,17z M15,14c-0.552,0-1,0.448-1,1s0.448,1,1,1
		s1-0.448,1-1S15.552,14,15,14z"/>
</g>
</svg>
