<?xml version="1.0" encoding="utf-8"?>
<!-- Generator: Adobe Illustrator 22.1.0, SVG Export Plug-In . SVG Version: 6.00 Build 0)  -->
<svg version="1.1" id="Layer_1" xmlns="http://www.w3.org/2000/svg" xmlns:xlink="http://www.w3.org/1999/xlink" x="0px" y="0px"
	 viewBox="0 0 24 24" style="enable-background:new 0 0 24 24;" xml:space="preserve">
<g>
	<title>discount-parking-2</title>
	<path d="M12,24C5.383,24,0,18.617,0,12C0,5.383,5.383,0,12,0c6.617,0,12,5.383,12,12C24,18.617,18.617,24,12,24z M12,1
		C5.935,1,1,5.935,1,12s4.935,11,11,11s11-4.935,11-11S18.065,1,12,1z"/>
	<path d="M10,19c-0.276,0-0.5-0.224-0.5-0.5v-12C9.5,6.224,9.724,6,10,6h3c1.93,0,3.5,1.57,3.5,3.5S14.93,13,13,13h-2.5v5.5
		C10.5,18.776,10.276,19,10,19z M13,12c1.378,0,2.5-1.121,2.5-2.5S14.378,7,13,7h-2.5v5H13z"/>
</g>
</svg>
