<?xml version="1.0" encoding="utf-8"?>
<!-- Generator: Adobe Illustrator 22.1.0, SVG Export Plug-In . SVG Version: 6.00 Build 0)  -->
<svg version="1.1" id="Layer_1" xmlns="http://www.w3.org/2000/svg" xmlns:xlink="http://www.w3.org/1999/xlink" x="0px" y="0px"
	 viewBox="0 0 24 24" style="enable-background:new 0 0 24 24;" xml:space="preserve">
<g>
	<title>discount</title>
	<path d="M3,23.586c-0.401,0-0.777-0.156-1.061-0.439l-1.086-1.086C0.57,21.777,0.414,21.401,0.414,21s0.156-0.777,0.439-1.061
		L19.939,0.854c0.283-0.283,0.66-0.439,1.061-0.439s0.777,0.156,1.061,0.439l1.086,1.086c0.283,0.283,0.439,0.66,0.439,1.061
		c0,0.401-0.156,0.777-0.439,1.061L4.06,23.147C3.777,23.43,3.4,23.586,3,23.586z M20.999,1.415c-0.134,0-0.259,0.052-0.354,0.146
		L1.56,20.647C1.466,20.741,1.414,20.867,1.414,21s0.052,0.259,0.146,0.354l1.086,1.086C2.735,22.528,2.864,22.579,3,22.579
		c0.136,0,0.265-0.051,0.354-0.139L22.439,3.354c0.094-0.095,0.146-0.22,0.146-0.354s-0.052-0.259-0.146-0.354l-1.086-1.086
		C21.258,1.467,21.133,1.415,20.999,1.415z"/>
	<path d="M4.5,8.5c-2.206,0-4-1.794-4-4s1.794-4,4-4s4,1.794,4,4S6.706,8.5,4.5,8.5z M4.5,1.5c-1.654,0-3,1.346-3,3s1.346,3,3,3
		s3-1.346,3-3S6.154,1.5,4.5,1.5z"/>
	<path d="M19.5,23.5c-2.206,0-4-1.794-4-4s1.794-4,4-4s4,1.794,4,4S21.706,23.5,19.5,23.5z M19.5,16.5c-1.654,0-3,1.346-3,3
		s1.346,3,3,3s3-1.346,3-3S21.154,16.5,19.5,16.5z"/>
</g>
</svg>
