<?xml version="1.0" encoding="utf-8"?>
<!-- Generator: Adobe Illustrator 22.1.0, SVG Export Plug-In . SVG Version: 6.00 Build 0)  -->
<svg version="1.1" id="Layer_1" xmlns="http://www.w3.org/2000/svg" xmlns:xlink="http://www.w3.org/1999/xlink" x="0px" y="0px"
	 viewBox="0 0 24 24" style="enable-background:new 0 0 24 24;" xml:space="preserve">
<g>
	<title>discount-star-premium</title>
	<path d="M15.02,17.141c-0.215,0-0.429-0.071-0.601-0.201L12,15.125L9.581,16.94c-0.174,0.131-0.382,0.2-0.6,0.2
		c-0.313,0-0.612-0.149-0.8-0.398c-0.198-0.263-0.254-0.606-0.149-0.919l0.877-2.631l-1.93-1.379
		c-0.217-0.155-0.361-0.385-0.405-0.649c-0.044-0.263,0.017-0.528,0.172-0.746C6.933,10.157,7.238,10,7.56,10h2.568l0.914-3.044
		c0.126-0.42,0.52-0.713,0.958-0.713c0.097,0,0.193,0.014,0.286,0.042c0.323,0.097,0.574,0.348,0.671,0.671L13.872,10h2.568
		c0.552,0,1,0.449,1,1.001c0,0.322-0.156,0.626-0.419,0.813l-1.929,1.378l0.877,2.631c0.085,0.253,0.066,0.524-0.054,0.763
		c-0.119,0.239-0.324,0.418-0.577,0.502C15.235,17.123,15.128,17.141,15.02,17.141z M12,14c0.108,0,0.214,0.036,0.3,0.1l2.719,2.04
		l-0.993-2.982c-0.07-0.209,0.004-0.437,0.184-0.565L16.439,11L13.5,11c-0.222,0-0.415-0.143-0.479-0.356L12,7.244l-1.021,3.4
		C10.915,10.857,10.722,11,10.5,11H7.56l2.23,1.593c0.18,0.128,0.254,0.355,0.184,0.565L8.98,16.14l2.72-2.04
		C11.786,14.036,11.892,14,12,14z"/>
	<path d="M12,24C5.383,24,0,18.617,0,12C0,5.383,5.383,0,12,0c6.617,0,12,5.383,12,12C24,18.617,18.617,24,12,24z M12,1
		C5.935,1,1,5.935,1,12s4.935,11,11,11s11-4.935,11-11S18.065,1,12,1z"/>
	<path d="M12,21c-4.963,0-9-4.037-9-9s4.037-9,9-9s9,4.037,9,9S16.963,21,12,21z M12,4c-4.411,0-8,3.589-8,8c0,4.411,3.589,8,8,8
		c4.411,0,8-3.589,8-8C20,7.589,16.411,4,12,4z"/>
</g>
</svg>
