<?xml version="1.0" encoding="utf-8"?>
<!-- Generator: Adobe Illustrator 22.1.0, SVG Export Plug-In . SVG Version: 6.00 Build 0)  -->
<svg version="1.1" id="Layer_1" xmlns="http://www.w3.org/2000/svg" xmlns:xlink="http://www.w3.org/1999/xlink" x="0px" y="0px"
	 viewBox="0 0 24 24" style="enable-background:new 0 0 24 24;" xml:space="preserve">
<g>
	<title>discount-circle</title>
	<path d="M8,16.5c-0.134,0-0.259-0.052-0.354-0.146S7.5,16.134,7.5,16s0.052-0.259,0.146-0.354l8-8C15.741,7.552,15.866,7.5,16,7.5
		s0.259,0.052,0.354,0.146S16.5,7.866,16.5,8s-0.052,0.259-0.146,0.354l-8,8C8.259,16.448,8.134,16.5,8,16.5z"/>
	<path d="M9,11c-1.103,0-2-0.897-2-2s0.897-2,2-2s2,0.897,2,2S10.103,11,9,11z M9,8C8.449,8,8,8.449,8,9s0.449,1,1,1s1-0.449,1-1
		S9.551,8,9,8z"/>
	<path d="M15,17c-1.103,0-2-0.897-2-2s0.897-2,2-2s2,0.897,2,2S16.103,17,15,17z M15,14c-0.552,0-1,0.448-1,1s0.448,1,1,1
		s1-0.448,1-1S15.552,14,15,14z"/>
	<path d="M12,23.5C5.659,23.5,0.5,18.341,0.5,12S5.659,0.5,12,0.5S23.5,5.659,23.5,12S18.341,23.5,12,23.5z M12,1.5
		C6.21,1.5,1.5,6.21,1.5,12c0,5.79,4.71,10.5,10.5,10.5c5.79,0,10.5-4.71,10.5-10.5C22.5,6.21,17.79,1.5,12,1.5z"/>
</g>
</svg>
