<?xml version="1.0" encoding="utf-8"?>
<!-- Generator: Adobe Illustrator 22.1.0, SVG Export Plug-In . SVG Version: 6.00 Build 0)  -->
<svg version="1.1" id="Layer_1" xmlns="http://www.w3.org/2000/svg" xmlns:xlink="http://www.w3.org/1999/xlink" x="0px" y="0px"
	 viewBox="0 0 24 24" style="enable-background:new 0 0 24 24;" xml:space="preserve">
<g>
	<title>discount-arrow</title>
	<path d="M0.5,24c-0.134,0-0.259-0.052-0.354-0.146S0,23.634,0,23.5s0.052-0.259,0.146-0.354L22.293,1H17
		c-0.276,0-0.5-0.224-0.5-0.5S16.724,0,17,0h6.5c0.066,0,0.13,0.013,0.191,0.038c0.123,0.051,0.219,0.147,0.27,0.27
		C23.987,0.37,24,0.434,24,0.5V7c0,0.276-0.224,0.5-0.5,0.5S23,7.276,23,7V1.707L0.854,23.854C0.759,23.948,0.634,24,0.5,24z"/>
	<path d="M5,9C2.794,9,1,7.206,1,5s1.794-4,4-4s4,1.794,4,4S7.206,9,5,9z M5,2C3.346,2,2,3.346,2,5s1.346,3,3,3s3-1.346,3-3
		S6.654,2,5,2z"/>
	<path d="M19,23c-2.206,0-4-1.794-4-4s1.794-4,4-4s4,1.794,4,4S21.206,23,19,23z M19,16c-1.654,0-3,1.346-3,3s1.346,3,3,3
		s3-1.346,3-3S20.654,16,19,16z"/>
</g>
</svg>
