<?xml version="1.0" encoding="utf-8"?>
<!-- Generator: Adobe Illustrator 22.1.0, SVG Export Plug-In . SVG Version: 6.00 Build 0)  -->
<svg version="1.1" id="Layer_1" xmlns="http://www.w3.org/2000/svg" xmlns:xlink="http://www.w3.org/1999/xlink" x="0px" y="0px"
	 viewBox="0 0 24 24" style="enable-background:new 0 0 24 24;" xml:space="preserve">
<g>
	<title>discount-parking</title>
	<path d="M12,24C5.383,24,0,18.617,0,12C0,5.383,5.383,0,12,0c6.617,0,12,5.383,12,12C24,18.617,18.617,24,12,24z M12,1
		C5.935,1,1,5.935,1,12s4.935,11,11,11s11-4.935,11-11S18.065,1,12,1z"/>
	<path d="M12,21c-4.963,0-9-4.037-9-9s4.037-9,9-9s9,4.037,9,9S16.963,21,12,21z M12,4c-4.411,0-8,3.589-8,8c0,4.411,3.589,8,8,8
		c4.411,0,8-3.589,8-8C20,7.589,16.411,4,12,4z"/>
	<path d="M10.5,17c-0.276,0-0.5-0.224-0.5-0.5v-8C10,8.224,10.224,8,10.5,8h2c1.378,0,2.5,1.121,2.5,2.5S13.878,13,12.5,13H11v3.5
		C11,16.776,10.776,17,10.5,17z M12.5,12c0.827,0,1.5-0.673,1.5-1.5S13.327,9,12.5,9H11v3H12.5z"/>
</g>
</svg>
