<?xml version="1.0" encoding="utf-8"?>
<!-- Generator: Adobe Illustrator 22.1.0, SVG Export Plug-In . SVG Version: 6.00 Build 0)  -->
<svg version="1.1" id="Layer_1" xmlns="http://www.w3.org/2000/svg" xmlns:xlink="http://www.w3.org/1999/xlink" x="0px" y="0px"
	 viewBox="0 0 24 24" style="enable-background:new 0 0 24 24;" xml:space="preserve">
<g>
	<title>electricity-tower</title>
	<path d="M19.5,24c-0.213,0-0.403-0.135-0.472-0.336L18,20.696l-6-3.301l-6,3.301l-1.027,2.967C4.903,23.865,4.713,24,4.499,24
		c-0.055,0-0.109-0.009-0.162-0.027c-0.127-0.044-0.229-0.134-0.287-0.255c-0.058-0.12-0.066-0.256-0.023-0.382L7.951,12H3.691
		c-0.225,0-0.434-0.098-0.577-0.27c-0.128-0.153-0.189-0.348-0.171-0.548c0.018-0.199,0.113-0.38,0.267-0.508L8.5,6.266V6H3.691
		C3.466,6,3.257,5.902,3.114,5.73C2.986,5.577,2.925,5.382,2.943,5.182c0.018-0.199,0.113-0.38,0.267-0.508l5.47-4.558
		C8.688,0.109,8.7,0.101,8.711,0.094c0.01-0.009,0.021-0.016,0.031-0.022c0.013-0.008,0.031-0.016,0.048-0.022
		c0.014-0.007,0.027-0.013,0.042-0.018c0.019-0.007,0.041-0.012,0.064-0.017C8.912,0.01,8.929,0.008,8.947,0.006
		C8.965,0.002,8.984,0,9,0h6c0.016,0,0.035,0.002,0.053,0.006c0.018,0.002,0.036,0.005,0.054,0.009
		c0.019,0.004,0.041,0.009,0.063,0.018c0.013,0.005,0.027,0.011,0.04,0.017c0.016,0.006,0.033,0.014,0.046,0.021
		c0.012,0.007,0.023,0.015,0.033,0.023c0.01,0.007,0.022,0.015,0.033,0.025l5.468,4.556c0.172,0.144,0.27,0.355,0.27,0.579
		c-0.001,0.2-0.079,0.388-0.221,0.53C20.697,5.923,20.509,6,20.31,6H15.5v0.266l5.29,4.408c0.172,0.144,0.27,0.355,0.27,0.579
		c-0.001,0.2-0.079,0.388-0.221,0.53C20.697,11.923,20.509,12,20.31,12h-4.262l3.924,11.336c0.09,0.26-0.048,0.546-0.309,0.636
		C19.61,23.991,19.555,24,19.5,24z M17.512,19.287l-1.432-4.136l-3.043,1.674L17.512,19.287z M6.487,19.287l4.475-2.462
		l-3.043-1.674L6.487,19.287z M12,16.254l3.749-2.062L14.99,12h-5.98l-0.759,2.192L12,16.254z M19.618,11L15.5,7.568v2.848
		L15.702,11H19.618z M14.644,11l-0.1-0.288L12,6.472l-2.545,4.241L9.356,11H14.644z M8.298,11L8.5,10.416V7.567L4.38,11H8.298z
		 M14.5,8.695v-6.39L12.583,5.5L14.5,8.695z M9.5,8.695L11.417,5.5L9.5,2.305V8.695z M19.618,5L15.5,1.568V5H19.618z M8.5,5V1.567
		L4.38,5H8.5z M12,4.528L14.116,1H9.883L12,4.528z"/>
</g>
</svg>
