<?xml version="1.0" encoding="utf-8"?>
<!-- Generator: Adobe Illustrator 22.1.0, SVG Export Plug-In . SVG Version: 6.00 Build 0)  -->
<svg version="1.1" id="Layer_1" xmlns="http://www.w3.org/2000/svg" xmlns:xlink="http://www.w3.org/1999/xlink" x="0px" y="0px"
	 viewBox="0 0 24 24" style="enable-background:new 0 0 24 24;" xml:space="preserve">
<g>
	<title>electricity-tower-1</title>
	<path d="M0.5,24C0.224,24,0,23.776,0,23.5S0.224,23,0.5,23h6.928l0.238-5H3.434c-0.552-0.001-1-0.449-1-1
		c0-0.198,0.058-0.389,0.167-0.553l3.335-5.001C6.121,11.167,6.432,11,6.768,11H8l0.238-5H6C5.724,6,5.5,5.776,5.5,5.5S5.724,5,6,5
		h2.285l0.19-4H6C5.724,1,5.5,0.776,5.5,0.5S5.724,0,6,0h14c0.276,0,0.5,0.224,0.5,0.5S20.276,1,20,1h-2.476l0.19,4H20
		c0.276,0,0.5,0.224,0.5,0.5S20.276,6,20,6h-2.238L18,11h1.231c0.336,0,0.647,0.167,0.833,0.446l3.333,4.999
		c0.148,0.222,0.2,0.489,0.148,0.751c-0.053,0.262-0.204,0.488-0.426,0.636C22.955,17.942,22.763,18,22.566,18h-4.232l0.238,5H23.5
		c0.276,0,0.5,0.224,0.5,0.5S23.776,24,23.5,24H0.5z M17.571,23l-0.238-5H8.667l-0.238,5H17.571z M3.434,17l3.36,0l-2.016-2.016
		L3.434,17z M22.566,17l-1.344-2.015L19.207,17H22.566z M16.272,17l-3.271-2.066L9.729,17H16.272z M18.264,16.529l2.393-2.393
		L19.232,12l-1.184,0L18.264,16.529z M7.736,16.528L7.952,12H6.768l-1.424,2.136L7.736,16.528z M8.742,16.441l3.323-2.099
		l-3.129-1.976L8.742,16.441z M17.258,16.44l-0.194-4.073l-3.127,1.975L17.258,16.44z M13.001,13.751L15.772,12h-5.543
		L13.001,13.751z M16.999,11l-0.092-1.931L14.447,11H16.999z M11.553,11l-2.46-1.931L9.001,11H11.553z M13,10.865l3.672-2.881
		L13,4.689L9.328,7.983L13,10.865z M16.797,6.752l-0.25-5.244l-2.799,2.51L16.797,6.752z M9.203,6.752l3.048-2.734l-2.798-2.51
		L9.203,6.752z M13,3.346L15.616,1h-5.231L13,3.346z"/>
</g>
</svg>
