<?xml version="1.0" encoding="utf-8"?>
<!-- Generator: Adobe Illustrator 22.1.0, SVG Export Plug-In . SVG Version: 6.00 Build 0)  -->
<svg version="1.1" id="Layer_1" xmlns="http://www.w3.org/2000/svg" xmlns:xlink="http://www.w3.org/1999/xlink" x="0px" y="0px"
	 viewBox="0 0 24 24" style="enable-background:new 0 0 24 24;" xml:space="preserve">
<g>
	<title>street-light</title>
	<path d="M0.5,7.5c-0.099,0-0.195-0.029-0.277-0.084c-0.229-0.153-0.292-0.464-0.139-0.693l1-1.5C1.177,5.083,1.333,5,1.5,5
		c0.099,0,0.195,0.029,0.277,0.084c0.229,0.153,0.292,0.464,0.139,0.693l-1,1.5C0.823,7.417,0.668,7.5,0.5,7.5z"/>
	<path d="M8.501,7.5c-0.168,0-0.323-0.083-0.416-0.223l-1-1.5C6.931,5.548,6.994,5.237,7.223,5.084C7.305,5.029,7.401,5,7.5,5
		c0.168,0,0.323,0.083,0.416,0.223l1,1.5c0.153,0.229,0.091,0.541-0.139,0.693C8.695,7.471,8.6,7.5,8.501,7.5z"/>
	<path d="M4.5,7.5C4.225,7.5,4,7.276,4,7V5.5C4,5.224,4.225,5,4.5,5S5,5.224,5,5.5V7C5,7.276,4.776,7.5,4.5,7.5z"/>
	<path d="M23.501,7.5c-0.168,0-0.323-0.083-0.416-0.223l-1-1.5c-0.074-0.111-0.101-0.245-0.074-0.375
		c0.026-0.131,0.102-0.244,0.213-0.318C22.305,5.029,22.401,5,22.5,5c0.168,0,0.323,0.083,0.416,0.223l1,1.5
		c0.074,0.111,0.101,0.245,0.074,0.375c-0.026,0.131-0.102,0.244-0.213,0.318C23.695,7.471,23.599,7.5,23.501,7.5z"/>
	<path d="M15.5,7.5c-0.099,0-0.195-0.029-0.277-0.084c-0.111-0.074-0.187-0.187-0.213-0.318c-0.026-0.131,0-0.264,0.074-0.376l1-1.5
		C16.177,5.083,16.333,5,16.5,5c0.099,0,0.195,0.029,0.277,0.084c0.111,0.074,0.187,0.187,0.213,0.318
		c0.026,0.131,0,0.264-0.074,0.376l-1,1.5C15.824,7.417,15.668,7.5,15.5,7.5z"/>
	<path d="M19.5,7.5C19.225,7.5,19,7.276,19,7V5.5C19,5.224,19.225,5,19.5,5S20,5.224,20,5.5V7C20,7.276,19.776,7.5,19.5,7.5z"/>
	<path d="M0.5,24C0.225,24,0,23.776,0,23.5S0.225,23,0.5,23h8.11l0.716-2.864C9.494,19.467,10.092,19,10.781,19H11.5V4.5
		C11.5,2.57,9.93,1,8,1v1.5C8,3.327,7.327,4,6.5,4h-4C1.673,4,1,3.327,1,2.5v-1C1,0.673,1.673,0,2.5,0H8c1.693,0,3.235,0.96,4,2.439
		C12.765,0.96,14.307,0,16,0h5.5C22.327,0,23,0.673,23,1.5v1C23,3.327,22.327,4,21.5,4h-4C16.673,4,16,3.327,16,2.5V1
		c-1.93,0-3.5,1.57-3.5,3.5V19h0.719c0.689,0,1.288,0.467,1.455,1.136L15.39,23h8.11c0.276,0,0.5,0.224,0.5,0.5S23.776,24,23.5,24
		H0.5z M14.36,23l-0.655-2.622C13.648,20.156,13.449,20,13.219,20h-2.438c-0.23,0-0.429,0.156-0.485,0.378L9.641,23H14.36z M17,2.5
		C17,2.776,17.225,3,17.5,3h4C21.776,3,22,2.776,22,2.5v-1C22,1.224,21.776,1,21.5,1H17V2.5z M2.5,1C2.225,1,2,1.224,2,1.5v1
		C2,2.776,2.225,3,2.5,3h4C6.776,3,7,2.776,7,2.5V1H2.5z"/>
</g>
</svg>
