<?xml version="1.0" encoding="utf-8"?>
<!-- Generator: Adobe Illustrator 22.1.0, SVG Export Plug-In . SVG Version: 6.00 Build 0)  -->
<svg version="1.1" id="Light" xmlns="http://www.w3.org/2000/svg" xmlns:xlink="http://www.w3.org/1999/xlink" x="0px" y="0px"
	 viewBox="0 0 24 24" style="enable-background:new 0 0 24 24;" xml:space="preserve">
<g>
	<title>spirits</title>
	<path d="M7.2,24.006c-0.764-0.002-1.464-0.388-1.874-1.031c-2.273-3.243-3.595-7.062-3.819-11.034
		C1.43,10.369,2.291,8.905,3.7,8.21l5.165-2.017C9.243,6.002,9.5,5.576,9.5,5.117V4H9.333C8.687,3.999,8.115,3.587,7.911,2.974
		l-0.334-1C7.526,1.82,7.5,1.661,7.5,1.5c0-0.401,0.156-0.778,0.44-1.061C8.223,0.156,8.599,0,9,0h6c0.48,0,0.935,0.233,1.216,0.622
		c0.281,0.39,0.359,0.895,0.207,1.352l-0.334,1.001C15.885,3.587,15.314,3.999,14.668,4H14.5v1.117c0,0.467,0.259,0.887,0.677,1.096
		l5.084,1.981c0.493,0.242,0.91,0.562,1.26,0.961c0,0,0.013,0.014,0.016,0.019c0.666,0.768,1.006,1.75,0.957,2.765
		c-0.224,3.974-1.55,7.797-3.833,11.055c-0.401,0.628-1.099,1.01-1.861,1.013C16.799,24.006,7.2,24.006,7.2,24.006z M5.248,21
		c0.284,0.486,0.588,0.961,0.909,1.419c0.236,0.369,0.625,0.585,1.045,0.587h9.596c0.419-0.001,0.805-0.214,1.031-0.569
		c0.328-0.469,0.636-0.949,0.921-1.437H5.248z M19.276,20l-2.947-3.916L13.067,20H19.276z M10.933,20l-3.239-3.889L4.795,20H10.933z
		 M12,19.719l3.711-4.456l-3.709-4.929l-3.693,4.953L12,19.719z M2.871,10.319c-0.263,0.478-0.392,1.024-0.365,1.569
		c0.14,2.488,0.727,4.898,1.745,7.169l2.786-3.736L2.871,10.319z M19.775,19c1.002-2.254,1.581-4.645,1.72-7.114
		c0.026-0.543-0.103-1.089-0.366-1.565l-4.142,4.974L19.775,19z M7.651,14.497L11.004,10H3.906L7.651,14.497z M16.369,14.473
		L20.094,10h-7.092L16.369,14.473z M19.58,9l-4.809-1.874C13.979,6.732,13.5,5.966,13.5,5.117V4h-3v1.117
		c0,0.848-0.471,1.61-1.229,1.989L4.422,9H19.58z M9,1C8.866,1,8.741,1.052,8.647,1.146C8.552,1.241,8.5,1.366,8.5,1.5
		c0,0.054,0.009,0.107,0.026,0.158l0.334,1C8.928,2.862,9.118,3,9.334,3h5.333c0.215,0,0.406-0.138,0.473-0.342l0.334-1
		c0.051-0.152,0.025-0.32-0.069-0.45C15.312,1.078,15.16,1,15,1H9z"/>
</g>
</svg>
