<?xml version="1.0" encoding="utf-8"?>
<!-- Generator: Adobe Illustrator 22.1.0, SVG Export Plug-In . SVG Version: 6.00 Build 0)  -->
<svg version="1.1" id="Light" xmlns="http://www.w3.org/2000/svg" xmlns:xlink="http://www.w3.org/1999/xlink" x="0px" y="0px"
	 viewBox="0 0 24 24" style="enable-background:new 0 0 24 24;" xml:space="preserve">
<g>
	<title>spirits-glass</title>
	<path d="M2.723,24c-0.973,0-1.802-0.695-1.97-1.653c-0.427-2.585-0.68-5.219-0.752-7.833c0-1.951,1.659-2.929,3.123-3.793
		C4.131,10.126,5,9.613,5,9V1c0-0.551,0.449-1,1-1h2c0.551,0,1,0.449,1,1v8c0,0.557,0.769,1.061,1.625,1.57
		c0.237,0.141,0.315,0.448,0.174,0.685c-0.09,0.151-0.254,0.244-0.43,0.244c-0.09,0-0.178-0.024-0.255-0.07
		C8.958,10.741,8,10.084,8,9V4H6v5c0,1.185-1.151,1.863-2.368,2.582C2.338,12.345,1,13.134,1,14.5
		c0.071,2.558,0.319,5.144,0.738,7.678C1.822,22.653,2.236,23,2.723,23H10c0.276,0,0.5,0.224,0.5,0.5S10.276,24,10,24H2.723z M8,3V1
		h-2l0,2H8z"/>
	<path d="M4,21c-0.551,0-1-0.448-1-1v-4c0-0.552,0.449-1,1-1h6c0.551,0,1,0.448,1,1v4c0,0.552-0.449,1-1,1H4z M4,20h6v-4h-6L4,20z"
		/>
	<path d="M14.68,24C13.613,24,12,23.141,12,21.847V13c0-0.552,0.448-1,1-1h10c0.552,0,1,0.448,1,1v8.847
		C24,23.06,22.587,24,21.371,24H14.68z M13,21.847C13,22.375,13.911,23,14.68,23h6.691C22.117,23,23,22.375,23,21.847V17H13V21.847z
		 M23,16v-3H13v3H23z"/>
	<circle cx="15.25" cy="18.75" r="0.75"/>
	<circle cx="20.75" cy="18.75" r="0.75"/>
	<path d="M18,22c-0.414,0-0.75-0.336-0.75-0.75c0-0.396,0.31-0.723,0.706-0.747c0.002,0,0.028-0.003,0.031-0.003
		c0,0-0.01,0-0.018,0.001C17.98,20.501,17.991,20.5,18,20.5c0.021,0,0.041,0.002,0.061,0.005c0.011,0,0.018,0.001,0.027,0.003
		c0.378,0.045,0.662,0.362,0.662,0.742C18.75,21.664,18.414,22,18,22z"/>
</g>
</svg>
