<?xml version="1.0" encoding="utf-8"?>
<!-- Generator: Adobe Illustrator 22.1.0, SVG Export Plug-In . SVG Version: 6.00 Build 0)  -->
<svg version="1.1" id="Light" xmlns="http://www.w3.org/2000/svg" xmlns:xlink="http://www.w3.org/1999/xlink" x="0px" y="0px"
	 viewBox="0 0 24 24" style="enable-background:new 0 0 24 24;" xml:space="preserve">
<g>
	<title>anteater</title>
	<path d="M2.958,22.072c-0.18,0-0.36-0.021-0.535-0.063C1.715,21.843,1,21.32,1,20.529v-2.245c-0.047-0.013-0.092-0.028-0.136-0.046
		C0.541,18.104,0,17.704,0,16.529c0.142-1.863,0.468-3.696,0.97-5.466c-0.561-1.36-0.535-2.9,0.075-4.241
		c1.395-2.79,3.977-4.354,7.9-4.79c0.741-0.096,1.499-0.145,2.249-0.145c3.634,0,7.125,1.119,10.097,3.235
		C24,7.289,24,11.986,24,16.529v5c0,0.276-0.224,0.5-0.5,0.5h-3c-0.276,0-0.5-0.224-0.5-0.5s0.224-0.5,0.5-0.5h0.551
		c0.016-0.628-0.126-2.044-1.441-3.688c-0.639-0.809-1.4-1.493-2.264-2.036l-1.356,6.328c-0.049,0.229-0.254,0.395-0.489,0.395h-3
		c-0.276,0-0.5-0.224-0.5-0.5s0.224-0.5,0.5-0.5H13v-5c0-2.567-1.155-3.024-1.167-3.029c-0.257-0.093-0.394-0.377-0.304-0.635
		c0.07-0.202,0.259-0.337,0.471-0.337c0.054,0,0.107,0.009,0.159,0.026C12.233,12.08,14,12.706,14,16.029v5h1.096l1.416-6.605
		c0.033-0.153,0.136-0.283,0.278-0.348c0.067-0.031,0.138-0.047,0.211-0.047c0.081,0,0.162,0.02,0.234,0.058
		c1.232,0.653,2.295,1.539,3.158,2.632c1.49,1.863,1.684,3.492,1.663,4.31H23v-4.5c0-4.307,0-8.76-2.312-10.609
		c-2.782-1.981-6.069-3.032-9.495-3.032c-0.708,0-1.424,0.046-2.129,0.138C5.498,3.421,3.172,4.804,1.947,7.253
		c-0.512,1.126-0.511,2.43,0.008,3.569c0.049,0.109,0.058,0.231,0.025,0.346c-0.511,1.758-0.841,3.574-0.982,5.399
		C1,17.007,1.124,17.263,1.246,17.314c0.022,0.009,0.048,0.014,0.077,0.014c0.106,0,0.229-0.058,0.323-0.152
		c0.216-0.215,0.445-0.992,0.667-1.743c0.429-1.451,1.016-3.439,2.333-4.757c0.692-0.707,1.621-1.103,2.615-1.113l0.028,0
		c0.985,0,1.913,0.377,2.613,1.062c0.195,0.191,0.369,0.403,0.517,0.632c0.136,0.209,0.095,0.489-0.094,0.652
		c-1.252,1.075-2.08,2.566-2.332,4.197c-0.418,2.508,0.663,2.949,0.674,2.953c0.256,0.093,0.392,0.377,0.302,0.635
		C8.9,19.894,8.711,20.029,8.5,20.029c-0.054,0-0.107-0.009-0.158-0.026c-0.077-0.025-1.899-0.669-1.335-4.056
		c0.262-1.699,1.082-3.281,2.319-4.479c-0.04-0.044-0.081-0.088-0.123-0.129c-0.51-0.5-1.186-0.775-1.902-0.775
		c-0.738,0-1.428,0.289-1.943,0.815c-1.141,1.141-1.665,2.913-2.085,4.337c-0.292,0.99-0.523,1.772-0.919,2.167
		C2.249,17.987,2.129,18.077,2,18.147v2.382c0,0.221,0.332,0.432,0.652,0.508c0.102,0.024,0.21,0.037,0.312,0.037
		c0.137,0,0.468-0.026,0.589-0.268c0.085-0.17,0.257-0.276,0.448-0.276c0.077,0,0.153,0.018,0.222,0.052
		c0.248,0.124,0.348,0.425,0.225,0.671C4.187,21.774,3.644,22.072,2.958,22.072z"/>
	<circle cx="3.25" cy="8.779" r="0.75"/>
	<path d="M7,7.029c-0.134,0-0.259-0.052-0.354-0.146S6.5,6.663,6.5,6.529S6.552,6.27,6.646,6.176
		C6.782,6.039,6.965,5.754,6.943,5.62c-0.01-0.061-0.13-0.125-0.167-0.144C6.711,5.444,6.653,5.427,6.602,5.427
		c-0.031,0-0.062,0.006-0.092,0.019C6.282,5.541,6.055,5.944,5.974,6.187C5.906,6.392,5.716,6.529,5.5,6.529
		c-0.054,0-0.107-0.009-0.158-0.026C5.08,6.416,4.938,6.132,5.026,5.871c0.035-0.106,0.365-1.043,1.102-1.349
		C6.279,4.46,6.438,4.428,6.601,4.428c0.208,0,0.418,0.052,0.623,0.154C7.731,4.836,7.888,5.2,7.93,5.46
		c0.113,0.694-0.461,1.307-0.577,1.423C7.259,6.977,7.134,7.029,7,7.029z"/>
</g>
</svg>
