<?xml version="1.0" encoding="utf-8"?>
<!-- Generator: Adobe Illustrator 22.1.0, SVG Export Plug-In . SVG Version: 6.00 Build 0)  -->
<svg version="1.1" id="Light" xmlns="http://www.w3.org/2000/svg" xmlns:xlink="http://www.w3.org/1999/xlink" x="0px" y="0px"
	 viewBox="0 0 24 24" style="enable-background:new 0 0 24 24;" xml:space="preserve">
<g>
	<title>bat-fly</title>
	<path d="M12,21.5c-0.252,0-0.465-0.188-0.496-0.438c-0.189-1.507-0.818-3.755-1.632-4.076c-0.104-0.017-0.211-0.025-0.317-0.025
		c-0.45,0-0.893,0.154-1.246,0.432C8.222,17.462,8.112,17.5,8.001,17.5c-0.023,0-0.046-0.002-0.069-0.005
		c-0.129-0.017-0.251-0.088-0.332-0.195c-0.033-0.044-0.828-1.081-1.704-1.081c-0.219,0-0.421,0.064-0.619,0.196
		c-1.197,0.798-0.791,2.965-0.787,2.987c0.043,0.217-0.059,0.433-0.255,0.538C4.163,19.979,4.082,20,4,20
		c-0.134,0-0.259-0.052-0.354-0.146C3.518,19.725,0.5,16.636,0.5,10.5c0-2.557,0.35-4.642,1.039-6.198
		C2.076,3.091,2.638,2.647,2.7,2.6C2.786,2.536,2.893,2.5,3,2.5c0.05,0,0.1,0.008,0.148,0.022C3.302,2.57,3.424,2.69,3.474,2.842
		c0.015,0.042,0.377,1.085,1.179,2.113c0.965,1.235,2.124,1.917,3.449,2.029l0.909-4.092C9.052,2.714,9.185,2.571,9.36,2.52
		C9.406,2.507,9.453,2.5,9.5,2.5c0.134,0,0.259,0.052,0.354,0.146L11.207,4h1.586l1.354-1.354C14.239,2.554,14.368,2.5,14.5,2.5
		c0.048,0,0.095,0.007,0.14,0.02c0.175,0.051,0.309,0.193,0.348,0.371l0.909,4.092c1.325-0.112,2.484-0.794,3.449-2.029
		c0.81-1.037,1.176-2.103,1.179-2.113c0.051-0.151,0.172-0.271,0.325-0.318C20.899,2.508,20.949,2.5,21,2.5
		c0.108,0,0.214,0.036,0.3,0.1c0.089,0.067,2.2,1.715,2.2,7.9c0,6.136-3.018,9.225-3.146,9.354C20.259,19.948,20.134,20,20,20l0,0
		c-0.082,0-0.163-0.021-0.235-0.059c-0.196-0.105-0.299-0.321-0.255-0.539c0.004-0.021,0.407-2.19-0.787-2.986
		c-0.194-0.129-0.393-0.192-0.608-0.192c-0.88,0-1.708,1.067-1.716,1.077c-0.079,0.105-0.201,0.177-0.335,0.194
		C16.044,17.499,16.021,17.5,16,17.5c-0.111,0-0.221-0.038-0.309-0.107c-0.354-0.279-0.796-0.432-1.247-0.432
		c-0.105,0-0.212,0.009-0.316,0.025c-0.814,0.322-1.443,2.57-1.632,4.076C12.465,21.312,12.252,21.5,12,21.5z M9.556,15.96
		c0.177,0,0.357,0.016,0.532,0.047c0.025,0.005,0.048,0.011,0.071,0.019c0.761,0.254,1.381,1.138,1.84,2.63
		c0.459-1.492,1.079-2.376,1.842-2.631c0.022-0.007,0.045-0.013,0.069-0.018c0.177-0.031,0.355-0.047,0.533-0.047
		c0.515,0,1.017,0.13,1.464,0.379c0.375-0.391,1.206-1.116,2.213-1.116c0.409,0,0.798,0.121,1.157,0.361
		c0.854,0.569,1.177,1.492,1.272,2.346c0.181-0.292,0.353-0.602,0.514-0.926C21.719,15.688,22.5,13.49,22.5,10.5
		c0-3.803-0.825-5.712-1.365-6.554C20.484,5.265,18.74,8,15.5,8c-0.236,0-0.437-0.161-0.488-0.392l-0.802-3.611l-0.856,0.856
		C13.259,4.948,13.134,5,13,5h-2c-0.134,0-0.259-0.052-0.354-0.146L9.791,3.998L8.988,7.608C8.937,7.839,8.736,8,8.5,8
		C5.261,8,3.516,5.264,2.865,3.946C2.325,4.787,1.5,6.697,1.5,10.5c0,2.99,0.781,5.188,1.437,6.505
		c0.161,0.324,0.333,0.633,0.514,0.925c0.095-0.854,0.418-1.777,1.272-2.346c0.359-0.24,0.748-0.361,1.157-0.361
		c1.006,0,1.838,0.726,2.213,1.116C8.539,16.091,9.041,15.96,9.556,15.96z"/>
	<circle cx="10.75" cy="6.75" r="0.75"/>
	<circle cx="13.25" cy="6.75" r="0.75"/>
	<path d="M13,10c-0.134,0-0.259-0.052-0.354-0.146l-0.642-0.642l-0.651,0.642C11.259,9.948,11.134,10,11,10
		s-0.259-0.052-0.354-0.146S10.5,9.634,10.5,9.5s0.052-0.259,0.146-0.354L11.292,8.5c0.188-0.189,0.439-0.293,0.706-0.293
		c0.265,0,0.514,0.102,0.702,0.286c0.003,0.003,0.653,0.653,0.653,0.653C13.448,9.241,13.5,9.366,13.5,9.5s-0.052,0.259-0.146,0.354
		S13.134,10,13,10z"/>
</g>
</svg>
