<?xml version="1.0" encoding="utf-8"?>
<!-- Generator: Adobe Illustrator 22.1.0, SVG Export Plug-In . SVG Version: 6.00 Build 0)  -->
<svg version="1.1" id="Light" xmlns="http://www.w3.org/2000/svg" xmlns:xlink="http://www.w3.org/1999/xlink" x="0px" y="0px"
	 viewBox="0 0 24 24" style="enable-background:new 0 0 24 24;" xml:space="preserve">
<g>
	<title>duck-bill-platypus</title>
	<path d="M10.785,24c-0.827,0-1.5-0.673-1.5-1.5v-2.76C8.048,18.911,7.284,17.491,7.284,16c0-0.009,0.001-0.019,0.002-0.029
		c0.004-1.15,0.445-2.234,1.245-3.071c-0.339-0.417-0.614-0.875-0.818-1.365c-0.596,0.136-1.035,0.657-1.05,1.276
		c-0.004,0.175,0.026,0.347,0.089,0.51c0.048,0.125,0.044,0.26-0.01,0.382c-0.054,0.122-0.153,0.216-0.278,0.263
		C6.406,13.989,6.346,14,6.285,14c-0.206,0-0.393-0.129-0.467-0.321c-0.109-0.285-0.161-0.585-0.154-0.89
		c0.024-1.043,0.757-1.949,1.747-2.211C7.311,10.122,7.269,9.66,7.286,9.2c-0.02-0.76,0.128-1.538,0.432-2.262
		C7.318,6.999,6.773,7.223,6.143,7.854C6.048,7.948,5.923,8,5.789,8S5.53,7.948,5.436,7.854c-0.195-0.195-0.195-0.512,0-0.707
		C6.45,6.132,7.371,5.919,7.965,5.919c0.101,0,0.2,0.006,0.296,0.018c0.296-0.434,0.645-0.819,1.042-1.149
		C10.073,1.965,12.64,0,15.574,0c0.576,0.001,1.147,0.08,1.7,0.234c0.139,0.038,0.275,0.093,0.403,0.162
		c0.462,0.247,0.8,0.66,0.951,1.162C18.78,2.06,18.727,2.59,18.48,3.052c-0.365,0.624-1.028,1.006-1.735,1.006
		c-0.132,0-0.264-0.013-0.394-0.039c-0.045-0.007-0.103-0.009-0.166-0.012c-0.042-0.002-0.085-0.004-0.131-0.008
		C15.45,4,14.866,4.289,14.489,4.779l0.035,0.229c0.296,0.281,0.561,0.593,0.79,0.931c0.096-0.012,0.195-0.018,0.297-0.018
		c0.594,0,1.515,0.213,2.529,1.227c0.195,0.195,0.195,0.512,0,0.707C18.045,7.948,17.92,8,17.786,8s-0.259-0.052-0.354-0.146
		c-0.632-0.632-1.18-0.856-1.58-0.916c0.301,0.724,0.449,1.508,0.433,2.292c0.016,0.441-0.026,0.897-0.125,1.349
		c0.99,0.262,1.723,1.169,1.746,2.212c0.007,0.305-0.045,0.604-0.154,0.888C17.679,13.871,17.491,14,17.285,14
		c-0.062,0-0.122-0.011-0.179-0.033c-0.257-0.098-0.386-0.388-0.289-0.645c0.062-0.164,0.092-0.335,0.088-0.51
		c-0.014-0.625-0.453-1.147-1.048-1.279c-0.205,0.491-0.479,0.949-0.819,1.367c0.805,0.842,1.246,1.934,1.246,3.1
		c0,1.49-0.763,2.911-2,3.74v2.76c0,0.827-0.673,1.5-1.5,1.5H10.785z M10.285,22.5c0,0.276,0.224,0.5,0.5,0.5h2
		c0.276,0,0.5-0.224,0.5-0.5v-2.691l-1.276-0.638c-0.068-0.034-0.146-0.052-0.224-0.052s-0.155,0.018-0.223,0.052l-1.277,0.638V22.5
		z M8.284,16.021c0.007,1.156,0.601,2.25,1.561,2.89l1.27-0.634c0.206-0.103,0.438-0.157,0.67-0.157c0.232,0,0.464,0.054,0.67,0.157
		l1.27,0.634c0.966-0.645,1.56-1.748,1.56-2.911c0-1.93-1.57-3.5-3.5-3.5s-3.5,1.57-3.5,3.5C8.285,16.007,8.285,16.014,8.284,16.021
		z M15.574,1c-2.509,0-4.699,1.696-5.326,4.125c-0.001,0.015-0.005,0.033-0.008,0.051c-0.025,0.115-0.09,0.217-0.182,0.289
		c-1.147,0.89-1.81,2.288-1.772,3.74c-0.04,1.122,0.319,2.193,1.012,3.052c0.742-0.496,1.597-0.758,2.488-0.758
		s1.747,0.261,2.488,0.758c0.683-0.851,1.051-1.94,1.012-3.022c0.029-1.389-0.54-2.698-1.561-3.605
		c-0.087-0.077-0.144-0.182-0.162-0.297L13.47,4.734c-0.019-0.12,0.007-0.242,0.072-0.345C14.096,3.519,15.042,3,16.073,3
		l0.129,0.007c0.105,0.005,0.213,0.011,0.325,0.028c0.078,0.015,0.146,0.022,0.214,0.022c0.356,0,0.688-0.189,0.866-0.494
		c0.114-0.213,0.138-0.47,0.064-0.716c-0.074-0.246-0.24-0.448-0.467-0.57c-0.063-0.034-0.13-0.06-0.199-0.08
		C16.54,1.067,16.058,1.001,15.574,1z"/>
	<circle cx="10.035" cy="16.75" r="0.75"/>
	<circle cx="13.535" cy="16.75" r="0.75"/>
</g>
</svg>
