<?xml version="1.0" encoding="utf-8"?>
<!-- Generator: Adobe Illustrator 22.1.0, SVG Export Plug-In . SVG Version: 6.00 Build 0)  -->
<svg version="1.1" id="Light" xmlns="http://www.w3.org/2000/svg" xmlns:xlink="http://www.w3.org/1999/xlink" x="0px" y="0px"
	 viewBox="0 0 24 24" style="enable-background:new 0 0 24 24;" xml:space="preserve">
<g>
	<title>pelican</title>
	<path d="M20.047,19.32c-0.104,0-0.203-0.032-0.288-0.092c-0.225-0.16-0.279-0.472-0.12-0.698c0.888-1.254,1.523-2.704,1.846-4.211
		h-1.674c-1.118,2.237-2.68,3.616-4.525,3.99c-0.492,0.099-0.965,0.15-1.406,0.15c-1.676,0-2.421-0.708-2.5-0.789
		c-0.193-0.196-0.191-0.514,0.005-0.707c0.095-0.093,0.219-0.144,0.351-0.144c0.135,0,0.261,0.053,0.356,0.149l0,0
		c0,0,0.546,0.49,1.798,0.49c0.373,0,0.775-0.043,1.196-0.129c3.16-0.641,4.462-4.664,4.877-6.378l-7.052,1.341l-0.714,1.719
		c-0.078,0.187-0.259,0.308-0.462,0.308c-0.066,0-0.13-0.013-0.191-0.038c-0.255-0.106-0.376-0.399-0.271-0.654l3.851-9.279
		c-0.35-0.605-1.606-2.53-3.389-2.53c-0.083-0.006-0.147-0.008-0.21-0.008c-1.045,0-1.958,0.667-2.271,1.659
		C9.203,3.637,9.07,3.761,8.901,3.804l-7.886,2C0.976,5.814,0.934,5.82,0.893,5.82c-0.229,0-0.429-0.155-0.485-0.377
		C0.375,5.313,0.395,5.178,0.463,5.064S0.64,4.868,0.77,4.835L8.399,2.9c0.516-1.255,1.752-2.089,3.116-2.089
		c0.086,0,0.172,0.003,0.258,0.01c0,0,0.001,0,0.001,0c2.711,0,4.287,3.144,4.353,3.278c0.064,0.129,0.069,0.279,0.013,0.412
		l-2.771,6.676l7.145-1.359c0.031-0.006,0.062-0.009,0.093-0.009c0.131,0,0.255,0.05,0.348,0.14
		c0.117,0.114,0.171,0.277,0.146,0.438c-0.009,0.059-0.219,1.366-0.842,2.922h1.827c0.147,0,0.286,0.064,0.381,0.176
		c0.095,0.111,0.136,0.258,0.113,0.403c-0.299,1.865-1.034,3.667-2.125,5.209C20.362,19.241,20.209,19.32,20.047,19.32z"/>
	<path d="M7.495,19.822c-0.171,0-0.329-0.086-0.421-0.23c-0.535-0.833-0.8-1.797-0.766-2.787c-0.01-1.192,0.231-2.402,0.698-3.519
		c-0.227,0.023-0.456,0.034-0.691,0.034c-4.801,0-5.905-6.355-5.915-6.419C0.375,6.755,0.416,6.608,0.511,6.496
		C0.607,6.384,0.746,6.32,0.893,6.32h7.393c0.276,0,0.5,0.224,0.5,0.5s-0.224,0.5-0.5,0.5H1.517c0.387,1.495,1.634,5,4.798,5
		c1.838,0,3.138-0.747,3.865-2.221c0.553-1.121,0.565-2.268,0.565-2.28c0-0.275,0.224-0.499,0.5-0.499s0.5,0.224,0.5,0.5
		c0,0.041-0.041,4.098-3.516,5.219c-0.612,1.165-0.93,2.469-0.92,3.779c-0.027,0.803,0.183,1.572,0.608,2.234
		c0.149,0.232,0.081,0.542-0.15,0.691C7.684,19.794,7.591,19.822,7.495,19.822z"/>
	<path d="M11.737,5.074c-0.205-0.002-0.393-0.081-0.534-0.224c-0.134-0.136-0.21-0.316-0.215-0.507
		c-0.001-0.007-0.001-0.014-0.001-0.021c0-0.006,0-0.013,0.001-0.02c0.004-0.194,0.08-0.374,0.215-0.511
		c0.141-0.143,0.329-0.223,0.53-0.224c0.001,0,0.007,0,0.008,0c0.201,0.002,0.389,0.081,0.53,0.224
		c0.134,0.136,0.21,0.316,0.215,0.507c0,0.007,0.001,0.014,0.001,0.021c0,0.006,0,0.013-0.001,0.02
		c-0.004,0.194-0.081,0.374-0.215,0.511c-0.141,0.143-0.329,0.223-0.53,0.224c-0.001,0-0.001,0-0.002,0H11.737z"/>
	<path d="M12.136,23.179c-0.447,0-0.867-0.197-1.153-0.539l-0.964-1.156C10,21.461,9.978,21.439,9.955,21.42
		c-0.09-0.075-0.201-0.115-0.319-0.115c-0.149,0-0.29,0.065-0.385,0.179L8.287,22.64c-0.057,0.068-0.121,0.133-0.191,0.191
		c-0.269,0.224-0.609,0.348-0.96,0.348c-0.447,0-0.867-0.196-1.153-0.539l-0.964-1.156C5,21.461,4.978,21.439,4.955,21.42
		c-0.09-0.075-0.201-0.115-0.319-0.115c-0.149,0-0.29,0.065-0.385,0.179L3.287,22.64c-0.057,0.068-0.121,0.133-0.191,0.191
		c-0.269,0.224-0.609,0.348-0.96,0.348c-0.447,0-0.867-0.196-1.153-0.539l-0.866-1.039c-0.177-0.212-0.148-0.528,0.064-0.705
		c0.09-0.075,0.203-0.116,0.32-0.116c0.149,0,0.289,0.065,0.384,0.18l0.866,1.039c0.095,0.114,0.235,0.179,0.385,0.179
		c0.117,0,0.23-0.041,0.32-0.116c0.023-0.019,0.044-0.04,0.063-0.063l0.964-1.157c0.286-0.342,0.706-0.538,1.153-0.538
		c0.35,0,0.691,0.123,0.959,0.347c0.069,0.057,0.133,0.122,0.191,0.191l0.964,1.156c0.095,0.114,0.235,0.179,0.385,0.179
		c0.117,0,0.23-0.041,0.32-0.116c0.023-0.019,0.044-0.04,0.063-0.063l0.964-1.157c0.286-0.342,0.706-0.538,1.153-0.538
		c0.35,0,0.691,0.123,0.959,0.347c0.069,0.057,0.133,0.122,0.191,0.191l0.964,1.156c0.095,0.114,0.235,0.179,0.384,0.179
		c0.117,0,0.23-0.041,0.32-0.115c0.024-0.02,0.045-0.042,0.065-0.065l0.963-1.155c0.286-0.342,0.706-0.539,1.153-0.539
		c0.35,0,0.691,0.124,0.96,0.347c0.067,0.056,0.132,0.12,0.19,0.19l0.965,1.157c0.095,0.114,0.235,0.179,0.385,0.179
		c0.117,0,0.23-0.041,0.32-0.115c0.024-0.02,0.045-0.042,0.065-0.065l0.963-1.155c0.256-0.307,0.617-0.497,1.016-0.533
		c0.046-0.004,0.091-0.006,0.136-0.006c0.355,0,0.687,0.12,0.96,0.348c0.067,0.056,0.132,0.12,0.19,0.189l0.965,1.157
		c0.085,0.103,0.206,0.166,0.339,0.178c0.014,0.001,0.029,0.002,0.044,0.002c0.117,0,0.231-0.041,0.321-0.116
		c0.024-0.02,0.045-0.042,0.065-0.065l0.599-0.716c0.095-0.114,0.235-0.179,0.384-0.179c0.117,0,0.231,0.042,0.321,0.117
		c0.102,0.085,0.165,0.205,0.177,0.338c0.012,0.133-0.029,0.263-0.115,0.366l-0.6,0.717c-0.058,0.07-0.123,0.134-0.191,0.191
		c-0.268,0.224-0.609,0.347-0.959,0.347c-0.448,0-0.868-0.196-1.153-0.539l-0.964-1.156c-0.018-0.022-0.04-0.043-0.063-0.063
		c-0.092-0.076-0.204-0.116-0.324-0.116c-0.014,0-0.029,0.001-0.044,0.002c-0.131,0.012-0.251,0.075-0.337,0.177l-0.964,1.156
		c-0.059,0.07-0.123,0.135-0.192,0.192c-0.268,0.224-0.609,0.347-0.959,0.347c-0.447,0-0.868-0.196-1.153-0.539l-0.964-1.156
		c-0.018-0.022-0.04-0.043-0.063-0.063c-0.092-0.076-0.203-0.116-0.321-0.116c-0.149,0-0.289,0.065-0.385,0.179l-0.964,1.156
		c-0.059,0.07-0.123,0.135-0.192,0.192C12.827,23.055,12.486,23.179,12.136,23.179z"/>
</g>
</svg>
