<?xml version="1.0" encoding="utf-8"?>
<!-- Generator: Adobe Illustrator 22.1.0, SVG Export Plug-In . SVG Version: 6.00 Build 0)  -->
<svg version="1.1" id="Light" xmlns="http://www.w3.org/2000/svg" xmlns:xlink="http://www.w3.org/1999/xlink" x="0px" y="0px"
	 viewBox="0 0 24 24" style="enable-background:new 0 0 24 24;" xml:space="preserve">
<g>
	<title>wild-pig-body</title>
	<path d="M18.032,11.418c-0.199,0-0.386-0.077-0.528-0.217c-0.142-0.141-0.22-0.328-0.221-0.529c0-0.001,0-0.002,0-0.003
		c-0.001-0.199,0.076-0.388,0.217-0.53c0.14-0.142,0.328-0.221,0.528-0.222c0,0,0.004,0,0.005,0c0.414,0,0.75,0.336,0.75,0.75
		c0,0.408-0.329,0.742-0.735,0.75c-0.005,0-0.009,0-0.014,0H18.032z"/>
	<path d="M14.281,21c-0.276,0-0.5-0.224-0.5-0.5v-1c0-0.827-0.673-1.5-1.5-1.5h-3c-0.827,0-1.5,0.673-1.5,1.5v1
		c0,0.276-0.224,0.5-0.5,0.5h-2c-0.275,0-0.5-0.224-0.5-0.499c0-0.022-0.026-2.25-1.277-3.085C2.014,16.423,0.781,15.33,0.781,12
		c0-1.579,0.629-3.097,1.737-4.217C1.689,7.279,0.412,6.06,0.788,3.429c0.035-0.245,0.247-0.429,0.493-0.429
		c0.024,0,0.049,0.002,0.074,0.005C1.626,3.044,1.817,3.297,1.778,3.57c-0.351,2.456,0.976,3.281,1.558,3.52
		C4.35,6.376,5.538,6,6.781,6h7c1.823,0,4.694-1.897,4.723-1.916C18.586,4.029,18.682,4,18.781,4c0.097,0,0.191,0.028,0.272,0.08
		c0.167,0.108,0.254,0.305,0.221,0.502l-0.453,2.721c0.592,0.53,1.078,1.186,1.412,1.904c0.461,1.02,1.266,1.852,2.267,2.344
		c0.172,0.085,0.279,0.257,0.279,0.449v3c0,0.129-0.049,0.252-0.138,0.345c-0.03,0.031-0.629,0.653-1.377,1.052
		c0.511,0.281,1.058,0.488,1.629,0.615c0.195,0.043,0.345,0.198,0.382,0.395s-0.046,0.395-0.211,0.507
		c-0.891,0.602-1.931,0.92-3.006,0.92c-0.672,0-1.33-0.124-1.956-0.369c-1.264-0.447-2.154-1.562-2.314-2.907
		c-0.002-0.019-0.003-0.039-0.003-0.059c0-0.971,0.277-1.634,0.824-1.972c0.242-0.149,0.525-0.225,0.841-0.225
		c0.562,0,1.04,0.24,1.06,0.251c0.094,0.047,0.173,0.126,0.221,0.221c0.378,0.749,0.895,1.401,1.536,1.94
		c0.519-0.096,1.156-0.588,1.513-0.923v-2.489c-1.078-0.605-1.946-1.551-2.456-2.678c-0.31-0.668-0.78-1.269-1.357-1.735
		c-0.14-0.113-0.209-0.294-0.179-0.471l0.321-1.924C16.952,6.151,15.186,7,13.781,7h-7c-2.757,0-5,2.243-5,5
		c0,2.853,0.902,3.667,2.277,4.584C5.331,17.432,5.665,19.113,5.752,20h1.029v-0.5c0-1.378,1.121-2.5,2.5-2.5h3
		c1.378,0,2.5,1.122,2.5,2.5V20h1.005c0.006-0.322,0.019-0.615,0.039-0.873c0.02-0.264,0.233-0.463,0.496-0.463
		c0.007,0,0.034,0.001,0.041,0.002c0.132,0.01,0.253,0.071,0.34,0.172c0.087,0.101,0.13,0.23,0.12,0.364
		c-0.027,0.363-0.041,0.8-0.041,1.299c0,0.276-0.224,0.5-0.5,0.5H14.281z M16.783,15.47c0.124,0.95,0.762,1.739,1.667,2.059
		c0.521,0.203,1.06,0.305,1.609,0.305c0.476,0,0.952-0.079,1.402-0.231c-0.59-0.247-1.144-0.572-1.652-0.97
		c-0.008-0.005-0.033-0.021-0.06-0.048c-0.754-0.604-1.367-1.341-1.825-2.191c-0.114-0.04-0.294-0.091-0.475-0.091
		c-0.128,0-0.235,0.026-0.318,0.077C16.908,14.518,16.787,14.895,16.783,15.47z"/>
</g>
</svg>
