<?xml version="1.0" encoding="utf-8"?>
<!-- Generator: Adobe Illustrator 22.1.0, SVG Export Plug-In . SVG Version: 6.00 Build 0)  -->
<svg version="1.1" id="Light" xmlns="http://www.w3.org/2000/svg" xmlns:xlink="http://www.w3.org/1999/xlink" x="0px" y="0px"
	 viewBox="0 0 24 24" style="enable-background:new 0 0 24 24;" xml:space="preserve">
<g>
	<title>radiology-scan</title>
	<path d="M12,20.5c-0.276,0-0.5-0.224-0.5-0.5v-5.493C7.276,14.614,4.944,16.033,4.944,17c0,0.276-0.224,0.5-0.5,0.5
		s-0.5-0.224-0.5-0.5c0-1.902,3.231-3.386,7.556-3.493v-3c-4.51,0.101-7,1.524-7,2.493c0,0.276-0.224,0.5-0.5,0.5S3.5,13.276,3.5,13
		c0-1.907,3.422-3.392,8-3.493v-2.5C7.333,7.102,5.033,8.35,5.033,9.2c0,0.276-0.224,0.5-0.5,0.5s-0.5-0.224-0.5-0.5
		c0-1.738,3.193-3.095,7.467-3.193V3c0-0.276,0.224-0.5,0.5-0.5c0.276,0,0.5,0.224,0.5,0.5v3.007
		c4.274,0.099,7.467,1.455,7.467,3.193c0,0.276-0.224,0.5-0.5,0.5s-0.5-0.224-0.5-0.5c0-0.85-2.3-2.098-6.467-2.193v2.5
		c4.578,0.102,8,1.586,8,3.493c0,0.276-0.224,0.5-0.5,0.5s-0.5-0.224-0.5-0.5c0-0.97-2.49-2.393-7-2.493v3
		c4.325,0.107,7.556,1.591,7.556,3.493c0,0.276-0.224,0.5-0.5,0.5s-0.5-0.224-0.5-0.5c0-0.967-2.332-2.386-6.556-2.493V20
		C12.5,20.276,12.276,20.5,12,20.5z"/>
	<path d="M1.5,24C0.673,24,0,23.327,0,22.5v-21C0,0.673,0.673,0,1.5,0h21C23.327,0,24,0.673,24,1.5v21c0,0.827-0.673,1.5-1.5,1.5
		H1.5z M1.5,1C1.224,1,1,1.224,1,1.5v21C1,22.776,1.224,23,1.5,23h21c0.276,0,0.5-0.224,0.5-0.5v-21C23,1.224,22.776,1,22.5,1H1.5z"
		/>
</g>
</svg>
