<?xml version="1.0" encoding="utf-8"?>
<!-- Generator: Adobe Illustrator 22.1.0, SVG Export Plug-In . SVG Version: 6.00 Build 0)  -->
<svg version="1.1" id="Light" xmlns="http://www.w3.org/2000/svg" xmlns:xlink="http://www.w3.org/1999/xlink" x="0px" y="0px"
	 viewBox="0 0 24 24" style="enable-background:new 0 0 24 24;" xml:space="preserve">
<g>
	<title>radiology-scan-doctor</title>
	<path d="M18.5,11c-0.276,0-0.5-0.224-0.5-0.5s0.224-0.5,0.5-0.5h4c0.276,0,0.5-0.224,0.5-0.5v-8C23,1.224,22.776,1,22.5,1h-10
		C12.224,1,12,1.224,12,1.5v8c0,0.276,0.224,0.5,0.5,0.5H14c0.276,0,0.5,0.224,0.5,0.5S14.276,11,14,11h-1.5
		c-0.827,0-1.5-0.673-1.5-1.5v-8C11,0.673,11.673,0,12.5,0h10C23.327,0,24,0.673,24,1.5v8c0,0.827-0.673,1.5-1.5,1.5H18.5z"/>
	<path d="M16,9c-0.276,0-0.5-0.224-0.5-0.5S15.724,8,16,8h1V6h-0.252c-0.381,0-0.757,0.062-1.118,0.184
		c-0.052,0.018-0.102,0.044-0.146,0.079l-0.886,0.683c-0.087,0.067-0.195,0.104-0.305,0.104c-0.157,0-0.301-0.071-0.396-0.195
		c-0.081-0.105-0.117-0.237-0.1-0.369s0.085-0.25,0.191-0.332l0.887-0.683c0.132-0.101,0.278-0.18,0.435-0.233
		C15.774,5.08,16.258,5,16.747,5H17V3h-1.229c-0.381,0-0.757,0.062-1.118,0.183c-0.064,0.022-0.123,0.057-0.174,0.103L13.836,3.87
		C13.744,3.954,13.625,4,13.5,4c-0.141,0-0.276-0.06-0.37-0.164c-0.09-0.099-0.136-0.227-0.129-0.36
		c0.006-0.134,0.064-0.256,0.163-0.346l0.642-0.583c0.152-0.139,0.33-0.244,0.527-0.311C14.798,2.079,15.282,2,15.771,2h3.458
		c0.49,0,0.973,0.079,1.436,0.235c0.198,0.067,0.376,0.172,0.53,0.313l0.641,0.582c0.099,0.09,0.157,0.213,0.163,0.346
		c0.007,0.133-0.039,0.261-0.129,0.36C21.776,3.94,21.641,4,21.5,4c-0.125,0-0.244-0.046-0.336-0.13l-0.642-0.583
		c-0.052-0.047-0.111-0.083-0.177-0.105C19.986,3.061,19.61,3,19.229,3H18v2h0.252c0.49,0,0.974,0.079,1.438,0.236
		c0.158,0.054,0.305,0.132,0.436,0.234l0.887,0.683c0.106,0.082,0.174,0.199,0.191,0.332s-0.018,0.264-0.1,0.369
		c-0.095,0.124-0.24,0.195-0.396,0.195c-0.11,0-0.218-0.037-0.305-0.104l-0.887-0.683c-0.044-0.034-0.094-0.061-0.147-0.079
		C19.009,6.062,18.634,6,18.253,6H18v2h1c0.276,0,0.5,0.224,0.5,0.5S19.276,9,19,9H16z"/>
	<path d="M3,24c-0.258,0-0.477-0.201-0.498-0.458L2.04,18H0.5C0.224,18,0,17.776,0,17.5V14c0-3.033,2.467-5.5,5.5-5.5
		S11,10.967,11,14v3.5c0,0.276-0.224,0.5-0.5,0.5H8.96l-0.462,5.542C8.477,23.799,8.258,24,8,24H3z M7.54,23l0.417-5H3.043l0.417,5
		H5v-3.5C5,19.224,5.224,19,5.5,19S6,19.224,6,19.5V23H7.54z M10,17v-3c0-2.303-1.737-4.216-4-4.466V14c0,0.276-0.224,0.5-0.5,0.5
		S5,14.276,5,14V9.534C2.737,9.784,1,11.697,1,14v3h1v-2.5C2,14.224,2.224,14,2.5,14S3,14.224,3,14.5V17h5v-2.5
		C8,14.224,8.224,14,8.5,14S9,14.224,9,14.5V17H10z"/>
	<path d="M5.5,8c-2.206,0-4-1.794-4-4c0-0.637,0.149-1.25,0.443-1.822C2.637,0.833,3.999,0,5.5,0c1.951,0,3.649,1.456,3.948,3.386
		c0.003,0.013,0.009,0.039,0.011,0.072C9.487,3.661,9.5,3.834,9.5,4C9.5,6.206,7.706,8,5.5,8z M2.61,3.198
		C2.537,3.46,2.5,3.728,2.5,4c0,1.654,1.346,3,3,3c1.591,0,2.896-1.245,2.994-2.812C7.854,4.395,7.188,4.5,6.509,4.5
		C5.097,4.5,3.73,4.04,2.61,3.198z M6.514,3.5c0.636,0,1.265-0.112,1.867-0.332C8.015,1.9,6.835,1,5.5,1
		C4.515,1,3.615,1.473,3.051,2.275C4.026,3.067,5.241,3.5,6.494,3.5l0.007,0C6.503,3.5,6.512,3.5,6.514,3.5z"/>
	<path d="M12.5,17c-0.098,0-0.194-0.029-0.277-0.083c-0.23-0.154-0.292-0.464-0.139-0.694l4-6C16.177,10.083,16.332,10,16.5,10
		c0.099,0,0.195,0.029,0.277,0.084c0.111,0.074,0.187,0.187,0.213,0.318c0.026,0.131,0,0.264-0.074,0.376l-4,6
		C12.823,16.917,12.668,17,12.5,17z"/>
</g>
</svg>
