<?xml version="1.0" encoding="utf-8"?>
<!-- Generator: Adobe Illustrator 22.1.0, SVG Export Plug-In . SVG Version: 6.00 Build 0)  -->
<svg version="1.1" id="Light" xmlns="http://www.w3.org/2000/svg" xmlns:xlink="http://www.w3.org/1999/xlink" x="0px" y="0px"
	 viewBox="0 0 24 24" style="enable-background:new 0 0 24 24;" xml:space="preserve">
<g>
	<title>radiology-scan-mri</title>
	<path d="M16.5,24c-0.276,0-0.5-0.224-0.5-0.5V23H8v0.5C8,23.776,7.776,24,7.5,24S7,23.776,7,23.5V23H6.5C5.673,23,5,22.327,5,21.5
		v-0.667c0-0.322,0.106-0.642,0.3-0.9L7.8,16.6C8.082,16.224,8.53,16,9,16h6c0.469,0,0.918,0.224,1.2,0.6l2.5,3.333
		c0.194,0.258,0.3,0.577,0.3,0.9V21.5c0,0.827-0.673,1.5-1.5,1.5H17v0.5C17,23.776,16.776,24,16.5,24z M9,17
		c-0.157,0-0.306,0.075-0.4,0.2l-2.5,3.333c-0.064,0.086-0.1,0.193-0.1,0.3V21.5C6,21.776,6.224,22,6.5,22h11
		c0.276,0,0.5-0.224,0.5-0.5v-0.667c0-0.107-0.035-0.214-0.1-0.3L15.4,17.2C15.306,17.075,15.156,17,15,17H9z"/>
	<path d="M23.5,24c-0.276,0-0.5-0.224-0.5-0.5V4.511c0-0.827-0.673-1.5-1.5-1.5c-1.257,0.006-2.135,0.01-2.753,0.01
		c-1.485,0-1.542-0.013-1.695-0.156c-1.319-1.205-3.027-1.87-4.809-1.87c-0.076,0-0.152,0.001-0.228,0.004
		c-0.081-0.002-0.148-0.003-0.214-0.003c-1.8,0-3.523,0.665-4.853,1.873C6.856,2.954,6.737,3,6.612,3H2.5C1.673,3,1,3.673,1,4.5v19
		C1,23.776,0.776,24,0.5,24S0,23.776,0,23.5v-19C0,3.122,1.121,2,2.5,2h3.922c1.492-1.292,3.392-2.003,5.363-2.003
		c0.076,0,0.152,0.001,0.228,0.003c0.068-0.002,0.149-0.004,0.23-0.004c1.969,0,3.866,0.715,5.352,2.014
		c0.183,0.004,0.571,0.008,1.386,0.008c0.587,0,1.396-0.002,2.508-0.008c1.384,0,2.51,1.121,2.51,2.5V23.5
		C24,23.776,23.776,24,23.5,24z"/>
	<path d="M5.274,17.7c-0.156,0-0.3-0.071-0.396-0.194C1.844,13.579,2.57,7.915,6.497,4.881c1.587-1.227,3.487-1.875,5.493-1.875
		c1.105,0,2.189,0.199,3.22,0.591c0.001,0,0.001,0,0.002,0c0.057,0.013,0.109,0.034,0.157,0.064c1.48,0.595,2.777,1.576,3.752,2.839
		c2.504,3.24,2.504,7.766,0,11.006c-0.095,0.124-0.24,0.194-0.396,0.194l0,0c-0.11,0-0.219-0.037-0.306-0.105
		c-0.105-0.081-0.173-0.199-0.19-0.331c-0.017-0.133,0.019-0.264,0.1-0.37c2.225-2.88,2.225-6.903,0-9.783
		c-0.762-0.986-1.749-1.782-2.869-2.318l-0.464,2.099c0.783,0.476,1.451,1.137,1.939,1.921c1.187,1.905,1.197,4.279,0.027,6.195
		c-0.092,0.15-0.251,0.24-0.427,0.24c-0.092,0-0.182-0.025-0.261-0.073c-0.235-0.144-0.31-0.452-0.166-0.688
		c0.972-1.591,0.963-3.562-0.022-5.145c-0.9-1.445-2.458-2.308-4.168-2.308c-0.912,0-1.805,0.256-2.582,0.739
		c-2.293,1.429-2.997,4.457-1.569,6.75c0.071,0.113,0.093,0.247,0.063,0.377c-0.03,0.13-0.109,0.24-0.223,0.311
		c-0.079,0.05-0.171,0.076-0.264,0.076c-0.174,0-0.333-0.088-0.425-0.236c-0.832-1.335-1.093-2.917-0.736-4.454
		C6.542,9.06,7.474,7.755,8.809,6.923c0.058-0.036,0.118-0.07,0.177-0.103l-0.449-2.03C8.033,5.033,7.553,5.329,7.109,5.673
		C3.618,8.37,2.973,13.404,5.67,16.894c0.082,0.106,0.117,0.237,0.1,0.369c-0.017,0.133-0.085,0.25-0.19,0.332
		C5.491,17.664,5.386,17.7,5.274,17.7z M11.933,6.031c0.446,0,0.894,0.052,1.332,0.153c0.275,0.064,0.546,0.148,0.81,0.25
		l0.447-2.019c-0.818-0.271-1.668-0.408-2.532-0.408c-0.859,0-1.702,0.136-2.511,0.404L9.916,6.39
		C10.566,6.152,11.243,6.031,11.933,6.031z"/>
	<circle cx="3.5" cy="5" r="0.75"/>
	<circle cx="20.5" cy="5" r="0.75"/>
</g>
</svg>
