<?xml version="1.0" encoding="utf-8"?>
<!-- Generator: Adobe Illustrator 22.1.0, SVG Export Plug-In . SVG Version: 6.00 Build 0)  -->
<svg version="1.1" id="Layer_1" xmlns="http://www.w3.org/2000/svg" xmlns:xlink="http://www.w3.org/1999/xlink" x="0px" y="0px"
	 viewBox="0 0 24 24" style="enable-background:new 0 0 24 24;" xml:space="preserve">
<g>
	<title>pin-location-2</title>
	<path d="M11.5,21c-0.276,0-0.5-0.224-0.5-0.5V8.967C8.739,8.716,7,6.798,7,4.5C7,2.019,9.019,0,11.5,0C13.981,0,16,2.019,16,4.5
		c0,2.298-1.739,4.216-4,4.467V20.5C12,20.776,11.776,21,11.5,21z M11.5,1C9.57,1,8,2.57,8,4.5S9.57,8,11.5,8S15,6.43,15,4.5
		S13.43,1,11.5,1z"/>
	<path d="M12,24c-2.712,0-5.584-0.19-7.684-0.509C1.412,23.051,0,22.399,0,21.5c0-1.684,5.295-2.226,8.451-2.399
		c0.005,0,0.031-0.001,0.036-0.001c0.261,0,0.477,0.208,0.491,0.473c0.015,0.275-0.197,0.511-0.472,0.526
		c-5.233,0.287-7.29,1.116-7.5,1.412C1.245,21.919,4.901,23,12,23c7.042,0,10.695-1.063,10.991-1.498
		c-0.238-0.321-2.634-1.228-8.51-1.456c-0.133-0.005-0.257-0.062-0.347-0.16c-0.091-0.098-0.138-0.225-0.133-0.359
		c0.01-0.265,0.233-0.48,0.497-0.48c0.004,0,0.021,0,0.025,0C17.37,19.158,24,19.618,24,21.5c0,0.899-1.412,1.551-4.316,1.991
		C17.584,23.81,14.712,24,12,24z"/>
</g>
</svg>
