<?xml version="1.0" encoding="utf-8"?>
<!-- Generator: Adobe Illustrator 22.1.0, SVG Export Plug-In . SVG Version: 6.00 Build 0)  -->
<svg version="1.1" id="Layer_1" xmlns="http://www.w3.org/2000/svg" xmlns:xlink="http://www.w3.org/1999/xlink" x="0px" y="0px"
	 viewBox="0 0 24 24" style="enable-background:new 0 0 24 24;" xml:space="preserve">
<g>
	<title>pin-map-1</title>
	<path d="M7,24c-0.276,0-0.5-0.224-0.5-0.5S6.724,23,7,23h2.61l0.75-3H6c-0.827,0-1.5-0.673-1.5-1.5v-17C4.5,0.673,5.173,0,6,0h12
		c0.827,0,1.5,0.673,1.5,1.5v17c0,0.827-0.673,1.5-1.5,1.5h-4.36l0.75,3H17c0.276,0,0.5,0.224,0.5,0.5S17.276,24,17,24H7z
		 M13.359,23l-0.75-3H11.39l-0.75,3H13.359z M18,19c0.276,0,0.5-0.224,0.5-0.5v-1.227l-4-2.578V19H18z M5.5,18.5
		C5.5,18.776,5.724,19,6,19h7.5v-4.95l-4.607-2.969L5.5,15.18V18.5z M18.5,16.083V1.5C18.5,1.224,18.276,1,18,1H6
		C5.724,1,5.5,1.224,5.5,1.5v12.112L9.681,8.56c0.095-0.115,0.236-0.181,0.385-0.181c0.116,0,0.229,0.041,0.319,0.115
		c0.212,0.176,0.242,0.492,0.066,0.704l-0.916,1.107L18.5,16.083z"/>
	<circle cx="14" cy="5.549" r="0.875"/>
	<path d="M13.999,11.019c-0.219,0-0.427-0.072-0.599-0.209c-0.059-0.046-0.114-0.101-0.161-0.161C11.989,9.057,10.5,6.88,10.5,5.549
		c0-1.93,1.57-3.5,3.5-3.5s3.5,1.57,3.5,3.5c0,1.328-1.489,3.506-2.738,5.099c-0.161,0.204-0.391,0.333-0.649,0.364
		C14.075,11.017,14.037,11.019,13.999,11.019z M14,3.049c-1.378,0-2.5,1.121-2.5,2.5c0,0.777,0.957,2.48,2.5,4.451
		c1.543-1.973,2.5-3.676,2.5-4.451C16.5,4.17,15.378,3.049,14,3.049z"/>
</g>
</svg>
