<?xml version="1.0" encoding="utf-8"?>
<!-- Generator: Adobe Illustrator 22.1.0, SVG Export Plug-In . SVG Version: 6.00 Build 0)  -->
<svg version="1.1" id="Layer_1" xmlns="http://www.w3.org/2000/svg" xmlns:xlink="http://www.w3.org/1999/xlink" x="0px" y="0px"
	 viewBox="0 0 24 24" style="enable-background:new 0 0 24 24;" xml:space="preserve">
<g>
	<title>pin-4</title>
	<path d="M12,20.25c-0.276,0-0.5-0.224-0.5-0.5v-6.521C8.397,12.974,6,10.392,6,7.25c0-3.308,2.692-6,6-6s6,2.692,6,6
		c0,3.142-2.397,5.724-5.5,5.979v6.521C12.5,20.026,12.276,20.25,12,20.25z M12,2.25c-2.757,0-5,2.243-5,5s2.243,5,5,5
		c2.757,0,5-2.243,5-5S14.757,2.25,12,2.25z"/>
	<path d="M1,22.75c-0.276,0-0.5-0.224-0.5-0.5s0.224-0.5,0.5-0.5h22c0.276,0,0.5,0.224,0.5,0.5s-0.224,0.5-0.5,0.5H1z"/>
</g>
</svg>
