<?xml version="1.0" encoding="utf-8"?>
<!-- Generator: Adobe Illustrator 22.1.0, SVG Export Plug-In . SVG Version: 6.00 Build 0)  -->
<svg version="1.1" id="Layer_1" xmlns="http://www.w3.org/2000/svg" xmlns:xlink="http://www.w3.org/1999/xlink" x="0px" y="0px"
	 viewBox="0 0 24 24" style="enable-background:new 0 0 24 24;" xml:space="preserve">
<g>
	<title>pin-x-mark</title>
	<path d="M11.998,19.64c-0.206,0-0.404-0.063-0.574-0.183c-0.094-0.067-0.176-0.148-0.242-0.242C9.323,16.572,5,10.092,5,7
		c0-3.86,3.14-7,7-7s7,3.14,7,7c0,3.093-4.323,9.572-6.182,12.215c-0.154,0.219-0.383,0.364-0.646,0.41
		C12.114,19.635,12.056,19.64,11.998,19.64z M12,1C8.692,1,6,3.692,6,7c0,2.886,4.592,9.638,6,11.639C13.407,16.638,18,9.885,18,7
		C18,3.692,15.308,1,12,1z"/>
	<path d="M18.5,24c-0.05,0-0.1-0.008-0.147-0.022L12,22.023l-6.353,1.955C5.6,23.992,5.55,24,5.5,24
		c-0.221,0-0.413-0.142-0.478-0.353c-0.081-0.263,0.067-0.543,0.331-0.625L10.3,21.5l-4.947-1.522
		c-0.264-0.082-0.412-0.362-0.331-0.625C5.087,19.142,5.279,19,5.5,19c0.05,0,0.1,0.008,0.149,0.023L12,20.977l6.353-1.955
		C18.4,19.007,18.45,19,18.501,19c0.22,0,0.412,0.142,0.477,0.353c0.081,0.264-0.067,0.544-0.331,0.625L13.7,21.5l4.947,1.522
		c0.264,0.081,0.412,0.362,0.331,0.625C18.913,23.858,18.721,24,18.5,24z"/>
	<path d="M12,10c-1.654,0-3-1.346-3-3s1.346-3,3-3c1.654,0,3,1.346,3,3S13.654,10,12,10z M12,5c-1.103,0-2,0.897-2,2s0.897,2,2,2
		s2-0.897,2-2S13.103,5,12,5z"/>
</g>
</svg>
