<?xml version="1.0" encoding="utf-8"?>
<!-- Generator: Adobe Illustrator 22.1.0, SVG Export Plug-In . SVG Version: 6.00 Build 0)  -->
<svg version="1.1" id="Layer_1" xmlns="http://www.w3.org/2000/svg" xmlns:xlink="http://www.w3.org/1999/xlink" x="0px" y="0px"
	 viewBox="0 0 24 24" style="enable-background:new 0 0 24 24;" xml:space="preserve">
<g>
	<title>pin-location-1</title>
	<path d="M12,11c-2.206,0-4-1.794-4-4s1.794-4,4-4s4,1.794,4,4S14.206,11,12,11z M12,4c-1.654,0-3,1.346-3,3s1.346,3,3,3
		c1.654,0,3-1.346,3-3S13.654,4,12,4z"/>
	<path d="M11.999,21.604c-0.19,0-0.376-0.055-0.538-0.158c-0.121-0.077-0.225-0.182-0.302-0.302
		C9.63,18.754,4.645,10.702,4.645,7.356c0-1.961,0.765-3.808,2.156-5.199S10.037,0,11.999,0c4.057,0.001,7.356,3.301,7.356,7.356
		c0,3.348-4.985,11.399-6.513,13.787c-0.144,0.225-0.367,0.38-0.628,0.438C12.143,21.596,12.07,21.604,11.999,21.604z M11.999,1
		C8.495,1.001,5.644,3.852,5.645,7.356c0,3.075,4.864,10.917,6.355,13.248c1.491-2.33,6.355-10.172,6.355-13.248
		C18.355,3.852,15.504,1.001,11.999,1V0.75V1z"/>
	<path d="M12,24c-2.712,0-5.584-0.19-7.684-0.509C1.412,23.051,0,22.399,0,21.5c0-1.132,2.327-1.906,6.915-2.298
		c0.012-0.001,0.031-0.002,0.049-0.002c0.258,0,0.469,0.197,0.492,0.458c0.011,0.134-0.03,0.263-0.116,0.365
		c-0.086,0.102-0.207,0.165-0.34,0.176c-4.483,0.384-5.829,1.105-5.994,1.315C1.257,21.922,4.912,23,12,23
		c7.02,0,10.673-1.057,10.988-1.493c-0.187-0.219-1.559-0.932-6.03-1.309c-0.133-0.011-0.254-0.073-0.34-0.176
		c-0.086-0.102-0.127-0.231-0.116-0.365c0.022-0.257,0.24-0.458,0.497-0.458c0.008,0,0.038,0.001,0.046,0.002
		C21.659,19.59,24,20.364,24,21.5c0,0.899-1.412,1.551-4.316,1.991C17.584,23.81,14.712,24,12,24z"/>
</g>
</svg>
