<?xml version="1.0" encoding="utf-8"?>
<!-- Generator: Adobe Illustrator 22.1.0, SVG Export Plug-In . SVG Version: 6.00 Build 0)  -->
<svg version="1.1" id="Layer_1" xmlns="http://www.w3.org/2000/svg" xmlns:xlink="http://www.w3.org/1999/xlink" x="0px" y="0px"
	 viewBox="0 0 24 24" style="enable-background:new 0 0 24 24;" xml:space="preserve">
<g>
	<title>pin-location</title>
	<path d="M12,19.5c-0.121,0-0.238-0.044-0.329-0.124C11.378,19.12,4.5,13.049,4.5,9c0-4.135,3.365-7.5,7.5-7.5s7.5,3.365,7.5,7.5
		c0,4.049-6.878,10.12-7.17,10.376C12.238,19.456,12.121,19.5,12,19.5z M12,2.5C8.416,2.5,5.5,5.416,5.5,9
		c0,3.143,5.318,8.232,6.5,9.325c1.182-1.093,6.5-6.182,6.5-9.325C18.5,5.416,15.584,2.5,12,2.5z"/>
	<path d="M4,22.5c-0.276,0-0.5-0.224-0.5-0.5s0.224-0.5,0.5-0.5h16c0.276,0,0.5,0.224,0.5,0.5s-0.224,0.5-0.5,0.5H4z"/>
</g>
</svg>
