<?xml version="1.0" encoding="utf-8"?>
<!-- Generator: Adobe Illustrator 22.1.0, SVG Export Plug-In . SVG Version: 6.00 Build 0)  -->
<svg version="1.1" id="Layer_1" xmlns="http://www.w3.org/2000/svg" xmlns:xlink="http://www.w3.org/1999/xlink" x="0px" y="0px"
	 viewBox="0 0 24 24" style="enable-background:new 0 0 24 24;" xml:space="preserve">
<g>
	<title>pin-3</title>
	<path d="M12,21c-0.276,0-0.5-0.224-0.5-0.5v-8.533c-2.261-0.251-4-2.169-4-4.467C7.5,5.019,9.519,3,12,3c2.481,0,4.5,2.019,4.5,4.5
		c0,2.298-1.739,4.216-4,4.467V20.5C12.5,20.776,12.276,21,12,21z M12,4c-1.93,0-3.5,1.57-3.5,3.5S10.07,11,12,11s3.5-1.57,3.5-3.5
		S13.93,4,12,4z"/>
</g>
</svg>
