<?xml version="1.0" encoding="utf-8"?>
<!-- Generator: Adobe Illustrator 22.1.0, SVG Export Plug-In . SVG Version: 6.00 Build 0)  -->
<svg version="1.1" id="Layer_1" xmlns="http://www.w3.org/2000/svg" xmlns:xlink="http://www.w3.org/1999/xlink" x="0px" y="0px"
	 viewBox="0 0 24 24" style="enable-background:new 0 0 24 24;" xml:space="preserve">
<g>
	<title>align-middle</title>
	<path d="M7,20.5c-0.827,0-1.5-0.673-1.5-1.5v-6.5H2c-0.276,0-0.5-0.224-0.5-0.5c0-0.276,0.224-0.5,0.5-0.5h3.5V5
		c0-0.827,0.673-1.5,1.5-1.5h3c0.827,0,1.5,0.673,1.5,1.5v6.5h2V8c0-0.827,0.673-1.5,1.5-1.5h3c0.827,0,1.5,0.673,1.5,1.5v3.5H22
		c0.276,0,0.5,0.224,0.5,0.5c0,0.276-0.224,0.5-0.5,0.5h-2.5V16c0,0.827-0.673,1.5-1.5,1.5h-3c-0.827,0-1.5-0.673-1.5-1.5v-3.5h-2
		V19c0,0.827-0.673,1.5-1.5,1.5H7z M7,4.5C6.724,4.5,6.5,4.724,6.5,5v14c0,0.276,0.224,0.5,0.5,0.5h3c0.276,0,0.5-0.224,0.5-0.5V5
		c0-0.276-0.224-0.5-0.5-0.5H7z M15,7.5c-0.276,0-0.5,0.224-0.5,0.5v8c0,0.276,0.224,0.5,0.5,0.5h3c0.276,0,0.5-0.224,0.5-0.5V8
		c0-0.276-0.224-0.5-0.5-0.5H15z"/>
</g>
</svg>
