<?xml version="1.0" encoding="utf-8"?>
<!-- Generator: Adobe Illustrator 22.1.0, SVG Export Plug-In . SVG Version: 6.00 Build 0)  -->
<svg version="1.1" id="Layer_1" xmlns="http://www.w3.org/2000/svg" xmlns:xlink="http://www.w3.org/1999/xlink" x="0px" y="0px"
	 viewBox="0 0 24 24" style="enable-background:new 0 0 24 24;" xml:space="preserve">
<g>
	<title>align-middle-move-horizontal</title>
	<path d="M12,24c-0.276,0-0.5-0.224-0.5-0.5V18H6c-0.827,0-1.5-0.673-1.5-1.5v-2C4.5,13.673,5.173,13,6,13h5.5v-1H8
		c-0.827,0-1.5-0.673-1.5-1.5v-2C6.5,7.673,7.173,7,8,7h3.5V0.5C11.5,0.224,11.724,0,12,0c0.276,0,0.5,0.224,0.5,0.5V7H16
		c0.827,0,1.5,0.673,1.5,1.5v2c0,0.827-0.673,1.5-1.5,1.5h-3.5v1H18c0.827,0,1.5,0.673,1.5,1.5v2c0,0.827-0.673,1.5-1.5,1.5h-5.5
		v5.5C12.5,23.776,12.276,24,12,24z M6,14c-0.276,0-0.5,0.224-0.5,0.5v2C5.5,16.776,5.724,17,6,17h12c0.276,0,0.5-0.224,0.5-0.5v-2
		c0-0.276-0.224-0.5-0.5-0.5H6z M8,8C7.724,8,7.5,8.224,7.5,8.5v2C7.5,10.776,7.724,11,8,11h8c0.276,0,0.5-0.224,0.5-0.5v-2
		C16.5,8.224,16.276,8,16,8H8z"/>
	<path d="M17,5c-0.134,0-0.259-0.052-0.354-0.146l-2-2c-0.046-0.046-0.083-0.101-0.109-0.163c-0.05-0.121-0.05-0.261,0-0.382
		c0.025-0.061,0.062-0.116,0.109-0.163l1.999-1.999C16.741,0.052,16.866,0,17,0s0.259,0.052,0.354,0.146S17.5,0.366,17.5,0.5
		s-0.052,0.259-0.146,0.354L16.207,2H21c0.276,0,0.5,0.224,0.5,0.5S21.276,3,21,3h-4.793l1.146,1.146
		C17.448,4.241,17.5,4.366,17.5,4.5s-0.052,0.259-0.146,0.354S17.134,5,17,5z"/>
	<path d="M7,24c-0.134,0-0.259-0.052-0.354-0.146c-0.195-0.195-0.195-0.512,0-0.707L7.793,22H3c-0.276,0-0.5-0.224-0.5-0.5
		S2.724,21,3,21h4.793l-1.146-1.146c-0.195-0.195-0.195-0.512,0-0.707C6.741,19.052,6.866,19,7,19s0.259,0.052,0.354,0.146l2,2
		c0.047,0.047,0.083,0.101,0.109,0.163c0.05,0.121,0.05,0.26,0,0.382c-0.025,0.061-0.062,0.116-0.108,0.163l-2,2
		C7.259,23.948,7.134,24,7,24z"/>
</g>
</svg>
