<?xml version="1.0" encoding="utf-8"?>
<!-- Generator: Adobe Illustrator 22.1.0, SVG Export Plug-In . SVG Version: 6.00 Build 0)  -->
<svg version="1.1" id="Layer_1" xmlns="http://www.w3.org/2000/svg" xmlns:xlink="http://www.w3.org/1999/xlink" x="0px" y="0px"
	 viewBox="0 0 24 24" style="enable-background:new 0 0 24 24;" xml:space="preserve">
<g>
	<title>align-top</title>
	<path d="M2,3.5C1.724,3.5,1.5,3.276,1.5,3S1.724,2.5,2,2.5h20c0.276,0,0.5,0.224,0.5,0.5S22.276,3.5,22,3.5H2z"/>
	<path d="M15,15.5c-0.827,0-1.5-0.673-1.5-1.5V6c0-0.827,0.673-1.5,1.5-1.5h3c0.827,0,1.5,0.673,1.5,1.5v8
		c0,0.827-0.673,1.5-1.5,1.5H15z M15,5.5c-0.276,0-0.5,0.224-0.5,0.5v8c0,0.276,0.224,0.5,0.5,0.5h3c0.276,0,0.5-0.224,0.5-0.5V6
		c0-0.276-0.224-0.5-0.5-0.5H15z"/>
	<path d="M7,21.5c-0.827,0-1.5-0.673-1.5-1.5V6c0-0.827,0.673-1.5,1.5-1.5h3c0.827,0,1.5,0.673,1.5,1.5v14
		c0,0.827-0.673,1.5-1.5,1.5H7z M7,5.5C6.724,5.5,6.5,5.724,6.5,6v14c0,0.276,0.224,0.5,0.5,0.5h3c0.276,0,0.5-0.224,0.5-0.5V6
		c0-0.276-0.224-0.5-0.5-0.5H7z"/>
</g>
</svg>
