<?xml version="1.0" encoding="utf-8"?>
<!-- Generator: Adobe Illustrator 22.1.0, SVG Export Plug-In . SVG Version: 6.00 Build 0)  -->
<svg version="1.1" id="Layer_1" xmlns="http://www.w3.org/2000/svg" xmlns:xlink="http://www.w3.org/1999/xlink" x="0px" y="0px"
	 viewBox="0 0 24 24" style="enable-background:new 0 0 24 24;" xml:space="preserve">
<g>
	<title>align-middle-move-vertical</title>
	<path d="M14.5,19.5c-0.827,0-1.5-0.673-1.5-1.5v-5.5h-1V16c0,0.827-0.673,1.5-1.5,1.5h-2C7.673,17.5,7,16.827,7,16v-3.5H0.5
		C0.224,12.5,0,12.276,0,12c0-0.276,0.224-0.5,0.5-0.5H7V8c0-0.827,0.673-1.5,1.5-1.5h2C11.327,6.5,12,7.173,12,8v3.5h1V6
		c0-0.827,0.673-1.5,1.5-1.5h2C17.327,4.5,18,5.173,18,6v5.5h5.5c0.276,0,0.5,0.224,0.5,0.5c0,0.276-0.224,0.5-0.5,0.5H18V18
		c0,0.827-0.673,1.5-1.5,1.5H14.5z M14.5,5.5C14.224,5.5,14,5.724,14,6v12c0,0.276,0.224,0.5,0.5,0.5h2c0.276,0,0.5-0.224,0.5-0.5V6
		c0-0.276-0.224-0.5-0.5-0.5H14.5z M8.5,7.5C8.224,7.5,8,7.724,8,8v8c0,0.276,0.224,0.5,0.5,0.5h2c0.276,0,0.5-0.224,0.5-0.5V8
		c0-0.276-0.224-0.5-0.5-0.5H8.5z"/>
	<path d="M2.5,9.5c-0.066,0-0.13-0.013-0.191-0.038C2.247,9.436,2.193,9.4,2.146,9.353l-2-2C0.052,7.259,0,7.134,0,7
		s0.052-0.259,0.146-0.354S0.366,6.5,0.5,6.5s0.259,0.052,0.354,0.146L2,7.793V3c0-0.276,0.224-0.5,0.5-0.5S3,2.724,3,3v4.793
		l1.146-1.146C4.241,6.552,4.366,6.5,4.5,6.5s0.259,0.052,0.354,0.146S5,6.866,5,7S4.948,7.259,4.854,7.354l-2,2
		C2.807,9.4,2.753,9.436,2.692,9.462C2.63,9.487,2.566,9.5,2.5,9.5z"/>
	<path d="M21.5,21.5c-0.276,0-0.5-0.224-0.5-0.5v-4.793l-1.146,1.146c-0.094,0.094-0.22,0.146-0.354,0.146s-0.259-0.052-0.354-0.146
		S19,17.134,19,17s0.052-0.259,0.146-0.354l2-2c0.045-0.046,0.101-0.083,0.163-0.109c0.06-0.025,0.125-0.038,0.191-0.038
		s0.131,0.013,0.191,0.038c0.062,0.025,0.117,0.062,0.163,0.109l1.999,1.999C23.948,16.741,24,16.866,24,17
		s-0.052,0.259-0.146,0.354S23.634,17.5,23.5,17.5s-0.259-0.052-0.354-0.146L22,16.207V21C22,21.276,21.776,21.5,21.5,21.5z"/>
</g>
</svg>
