<?xml version="1.0" encoding="utf-8"?>
<!-- Generator: Adobe Illustrator 22.1.0, SVG Export Plug-In . SVG Version: 6.00 Build 0)  -->
<svg version="1.1" id="Layer_1" xmlns="http://www.w3.org/2000/svg" xmlns:xlink="http://www.w3.org/1999/xlink" x="0px" y="0px"
	 viewBox="0 0 24 24" style="enable-background:new 0 0 24 24;" xml:space="preserve">
<g>
	<title>align-left-move</title>
	<path d="M3.5,24C3.224,24,3,23.776,3,23.5v-23C3,0.224,3.224,0,3.5,0S4,0.224,4,0.5v23C4,23.776,3.776,24,3.5,24z"/>
	<path d="M7.5,11C6.673,11,6,10.327,6,9.5v-2C6,6.673,6.673,6,7.5,6h12C20.327,6,21,6.673,21,7.5v2c0,0.827-0.673,1.5-1.5,1.5H7.5z
		 M7.5,7C7.224,7,7,7.224,7,7.5v2C7,9.776,7.224,10,7.5,10h12c0.276,0,0.5-0.224,0.5-0.5v-2C20,7.224,19.776,7,19.5,7H7.5z"/>
	<path d="M7.5,17C6.673,17,6,16.327,6,15.5v-2C6,12.673,6.673,12,7.5,12h7c0.827,0,1.5,0.673,1.5,1.5v2c0,0.827-0.673,1.5-1.5,1.5
		H7.5z M7.5,13C7.224,13,7,13.224,7,13.5v2C7,15.776,7.224,16,7.5,16h7c0.276,0,0.5-0.224,0.5-0.5v-2c0-0.276-0.224-0.5-0.5-0.5H7.5
		z"/>
	<path d="M8.5,5C8.366,5,8.241,4.948,8.146,4.854l-2-2C6.1,2.807,6.064,2.753,6.038,2.692c-0.05-0.122-0.05-0.261,0-0.383
		C6.064,2.247,6.1,2.193,6.147,2.146l2-2C8.241,0.052,8.366,0,8.5,0s0.259,0.052,0.354,0.146S9,0.366,9,0.5S8.948,0.759,8.854,0.854
		L7.707,2H12.5C12.776,2,13,2.224,13,2.5S12.776,3,12.5,3H7.707l1.146,1.146C8.948,4.241,9,4.366,9,4.5S8.948,4.759,8.854,4.854
		S8.634,5,8.5,5z"/>
	<path d="M8.5,24c-0.134,0-0.259-0.052-0.354-0.146l-2-2c-0.047-0.047-0.083-0.101-0.109-0.163c-0.05-0.121-0.05-0.26,0-0.382
		c0.025-0.061,0.062-0.116,0.108-0.163l2-2C8.241,19.052,8.366,19,8.5,19s0.259,0.052,0.354,0.146S9,19.366,9,19.5
		s-0.052,0.259-0.146,0.354L7.707,21H12.5c0.276,0,0.5,0.224,0.5,0.5S12.776,22,12.5,22H7.707l1.146,1.146
		C8.948,23.241,9,23.366,9,23.5s-0.052,0.259-0.146,0.354S8.634,24,8.5,24z"/>
</g>
</svg>
