<?xml version="1.0" encoding="utf-8"?>
<!-- Generator: Adobe Illustrator 22.1.0, SVG Export Plug-In . SVG Version: 6.00 Build 0)  -->
<svg version="1.1" id="Light" xmlns="http://www.w3.org/2000/svg" xmlns:xlink="http://www.w3.org/1999/xlink" x="0px" y="0px"
	 viewBox="0 0 24 24" style="enable-background:new 0 0 24 24;" xml:space="preserve">
<g>
	<title>real-estate-search-house</title>
	<path d="M23.519,24.007c-0.134,0-0.259-0.052-0.354-0.146l-5.615-5.614c-1.942,1.773-4.442,2.747-7.069,2.747
		c-5.79,0-10.5-4.71-10.5-10.5s4.71-10.5,10.5-10.5c5.79,0,10.5,4.71,10.5,10.5c0,2.615-0.966,5.107-2.725,7.045l5.616,5.615
		c0.195,0.195,0.195,0.512,0,0.707C23.778,23.955,23.652,24.007,23.519,24.007z M10.481,0.993c-5.238,0-9.5,4.262-9.5,9.5
		c0,5.238,4.262,9.5,9.5,9.5s9.5-4.262,9.5-9.5C19.981,5.255,15.719,0.993,10.481,0.993z"/>
	<path d="M7.981,14.993c-0.551,0-1-0.448-1-1v-4c0-0.276,0.224-0.5,0.5-0.5s0.5,0.224,0.5,0.5v4h5v-4c0-0.276,0.224-0.5,0.5-0.5
		s0.5,0.224,0.5,0.5v4c0,0.552-0.448,1-1,1H7.981z"/>
	<path d="M15.459,10.493c-0.126,0-0.247-0.047-0.339-0.133L10.51,6.109l-4.651,4.253c-0.092,0.084-0.212,0.131-0.337,0.131
		c-0.14,0-0.275-0.059-0.369-0.163c-0.09-0.099-0.136-0.226-0.13-0.36s0.064-0.257,0.162-0.347l4.99-4.563
		c0.093-0.084,0.212-0.131,0.337-0.131c0.126,0,0.246,0.047,0.339,0.132l4.947,4.563c0.098,0.09,0.155,0.214,0.161,0.347
		c0.005,0.133-0.041,0.261-0.132,0.359C15.732,10.435,15.598,10.493,15.459,10.493z"/>
</g>
</svg>
