<?xml version="1.0" encoding="utf-8"?>
<!-- Generator: Adobe Illustrator 22.1.0, SVG Export Plug-In . SVG Version: 6.00 Build 0)  -->
<svg version="1.1" id="Light" xmlns="http://www.w3.org/2000/svg" xmlns:xlink="http://www.w3.org/1999/xlink" x="0px" y="0px"
	 viewBox="0 0 24 24" style="enable-background:new 0 0 24 24;" xml:space="preserve">
<g>
	<title>moving-walkway-luggage</title>
	<path d="M17,5c-1.378,0-2.5-1.121-2.5-2.5S15.622,0,17,0s2.5,1.121,2.5,2.5S18.378,5,17,5z M17,1c-0.827,0-1.5,0.673-1.5,1.5
		S16.173,4,17,4s1.5-0.673,1.5-1.5S17.827,1,17,1z"/>
	<path d="M0.5,14C0.224,14,0,13.776,0,13.5S0.224,13,0.5,13H8c0.276,0,0.5,0.224,0.5,0.5S8.276,14,8,14H0.5z"/>
	<path d="M0.5,24C0.224,24,0,23.776,0,23.5S0.224,23,0.5,23H3v-5c0-0.552,0.449-1,1-1h2c0-1.103,0.897-2,2-2s2,0.897,2,2h2
		c0.552,0,1,0.448,1,1v5h2.268C15.093,22.699,15,22.357,15,22V11.927l-2.324,1.69c-0.344,0.26-0.758,0.398-1.194,0.398
		c-0.626,0-1.224-0.297-1.6-0.795c-0.664-0.88-0.488-2.137,0.392-2.801l5.55-4.036c0.343-0.25,0.749-0.382,1.174-0.382
		c0.64,0,1.245,0.308,1.62,0.823C18.868,7.168,19,7.575,19,8v14c0,0.357-0.093,0.699-0.268,1H23.5c0.276,0,0.5,0.224,0.5,0.5
		S23.776,24,23.5,24H0.5z M15.5,10.445c0.078,0,0.156,0.019,0.227,0.054C15.895,10.585,16,10.756,16,10.945V22c0,0.552,0.448,1,1,1
		s1-0.448,1-1V8c0-0.213-0.066-0.416-0.191-0.588c-0.188-0.257-0.49-0.411-0.811-0.411c-0.212,0-0.415,0.066-0.586,0.191
		l-5.54,4.029c-0.436,0.329-0.524,0.958-0.192,1.398c0.19,0.252,0.482,0.397,0.8,0.397c0.219,0,0.426-0.07,0.601-0.201l3.125-2.273
		C15.292,10.478,15.393,10.445,15.5,10.445z M12,23v-5h-1.5v5H12z M9.5,23v-5h-3v5H9.5z M4,23h1.5v-5H4L4,23z M9,17
		c0-0.552-0.449-1-1-1s-1,0.448-1,1H9z"/>
	<path d="M20.5,14c-0.276,0-0.5-0.224-0.5-0.5s0.224-0.5,0.5-0.5h3c0.276,0,0.5,0.224,0.5,0.5S23.776,14,23.5,14H20.5z"/>
</g>
</svg>
