<?xml version="1.0" encoding="utf-8"?>
<!-- Generator: Adobe Illustrator 22.1.0, SVG Export Plug-In . SVG Version: 6.00 Build 0)  -->
<svg version="1.1" id="Light" xmlns="http://www.w3.org/2000/svg" xmlns:xlink="http://www.w3.org/1999/xlink" x="0px" y="0px"
	 viewBox="0 0 24 24" style="enable-background:new 0 0 24 24;" xml:space="preserve">
<g>
	<title>diving-fins</title>
	<path d="M9.5,24.03c-0.082,0-0.162-0.021-0.234-0.06H3.735c-0.072,0.039-0.153,0.06-0.234,0.06c-0.009,0-0.038-0.001-0.047-0.002
		c-0.063-0.005-0.125-0.025-0.184-0.058H2.591c-0.403,0-0.778-0.155-1.06-0.435c-0.284-0.282-0.442-0.658-0.443-1.059
		c0-0.046,0.002-0.092,0.006-0.137L2.741,3.445C2.833,2.44,3.31,1.531,4.085,0.886c0.677-0.563,1.531-0.874,2.406-0.874
		c0.117,0,0.234,0.005,0.352,0.016c1.808,0.165,3.243,1.597,3.413,3.405l1.646,18.906c0.035,0.399-0.088,0.788-0.345,1.095
		c-0.258,0.307-0.62,0.495-1.019,0.53c-0.045,0.004-0.086,0.006-0.128,0.006H9.731c-0.06,0.033-0.123,0.053-0.189,0.058
		C9.535,24.028,9.507,24.03,9.5,24.03z M10.405,22.97l0.052-0.002c0.129-0.011,0.249-0.074,0.335-0.176
		c0.086-0.102,0.127-0.232,0.115-0.365L9.261,3.524c-0.125-1.326-1.18-2.378-2.509-2.5c-0.085-0.008-0.17-0.011-0.255-0.011
		c-0.655,0-1.267,0.222-1.772,0.642c-0.569,0.474-0.92,1.141-0.988,1.879L2.089,22.426c-0.001,0.016-0.002,0.031-0.002,0.045
		c0,0.134,0.053,0.259,0.148,0.353c0.094,0.094,0.219,0.145,0.352,0.145h0.458l0.957-11.481C4.023,11.227,4.237,11.03,4.5,11.03
		c0.007,0,0.035,0.001,0.042,0.002c0.275,0.023,0.48,0.265,0.457,0.54L4.048,22.97h4.903l-0.95-11.398
		c-0.011-0.133,0.03-0.263,0.117-0.365s0.207-0.164,0.34-0.175c0.007-0.001,0.035-0.002,0.042-0.002
		c0.258,0,0.476,0.201,0.498,0.458L9.955,22.97H10.405z"/>
	<path d="M6.5,8.03c-1.103,0-2-0.897-2-2v-2c0-1.103,0.897-2,2-2s2,0.897,2,2v2C8.5,7.132,7.603,8.03,6.5,8.03z M6.5,3.03
		c-0.551,0-1,0.449-1,1v2c0,0.551,0.449,1,1,1s1-0.449,1-1v-2C7.5,3.478,7.051,3.03,6.5,3.03z"/>
	<path d="M17.489,24.021c-0.892,0-1.759-0.32-2.44-0.901c-0.766-0.653-1.232-1.566-1.312-2.57L12.092,1.599
		c-0.004-0.044-0.006-0.09-0.006-0.137c0.001-0.399,0.159-0.775,0.443-1.057c0.283-0.281,0.65-0.436,1.034-0.436
		c0,0,7.843,0,7.844,0c0.051,0,0.091,0.002,0.131,0.006c0.398,0.034,0.76,0.222,1.018,0.529c0.258,0.307,0.381,0.696,0.346,1.095
		l-1.65,18.947c-0.143,1.857-1.598,3.315-3.459,3.463C17.692,24.017,17.59,24.021,17.489,24.021z M13.587,0.97
		c-0.133,0-0.259,0.052-0.353,0.145c-0.095,0.094-0.147,0.219-0.148,0.353c0,0.016,0,0.03,0.002,0.043l1.645,18.956
		c0.059,0.741,0.401,1.412,0.964,1.892c0.501,0.427,1.137,0.662,1.792,0.662c0.075,0,0.15-0.003,0.225-0.009
		c1.368-0.109,2.437-1.18,2.542-2.548l1.65-18.952c0.011-0.133-0.03-0.262-0.115-0.364c-0.086-0.102-0.207-0.165-0.34-0.177
		c-0.013-0.001-0.026-0.002-0.038-0.002l-0.449,0l-0.967,11.602c-0.021,0.257-0.24,0.458-0.498,0.458
		c-0.009,0-0.038-0.001-0.047-0.002c-0.27-0.022-0.475-0.265-0.452-0.539l0.96-11.519h-4.923l0.96,11.519
		c0.023,0.275-0.182,0.517-0.457,0.54c-0.007,0.001-0.035,0.002-0.042,0.002c-0.258,0-0.477-0.201-0.498-0.459L14.035,0.97H13.587z"
		/>
	<path d="M17.5,22.03c-1.103,0-2-0.897-2-2v-2c0-1.103,0.897-2,2-2s2,0.897,2,2v2C19.5,21.132,18.603,22.03,17.5,22.03z M17.5,17.03
		c-0.552,0-1,0.448-1,1v2c0,0.552,0.448,1,1,1s1-0.448,1-1v-2C18.5,17.478,18.052,17.03,17.5,17.03z"/>
</g>
</svg>
