<?xml version="1.0" encoding="utf-8"?>
<!-- Generator: Adobe Illustrator 22.1.0, SVG Export Plug-In . SVG Version: 6.00 Build 0)  -->
<svg version="1.1" id="Light" xmlns="http://www.w3.org/2000/svg" xmlns:xlink="http://www.w3.org/1999/xlink" x="0px" y="0px"
	 viewBox="0 0 24 24" style="enable-background:new 0 0 24 24;" xml:space="preserve">
<g>
	<title>diving-oxygen</title>
	<path d="M8.5,6C7.868,6,7.349,5.754,7,5.298C6.651,5.754,6.132,6,5.5,6H4C2.897,6,2,5.103,2,4V3c0-1.654,1.346-3,3-3h4
		c1.654,0,3,1.346,3,3v1c0,1.103-0.897,2-2,2H8.5z M7.5,3.5c0,1.344,0.571,1.5,1,1.5H10c0.551,0,1-0.449,1-1V3c0-1.103-0.897-2-2-2
		H7.5V3.5z M5,1C3.897,1,3,1.897,3,3v1c0,0.551,0.449,1,1,1h1.5c0.429,0,1-0.156,1-1.5V1H5z"/>
	<path d="M18.5,24c-1.103,0-2-0.897-2-2v-9.5c0-1.359,0.78-2.582,2-3.161V8.5c0-0.61,0.38-1.158,0.932-1.386
		C19.239,6.479,18.66,6.023,17.983,6L17,6c-1.298,0-2.5,0.363-2.5,3v7.75c0,4.743-2.334,7.25-6.75,7.25
		c-3.997,0-7.249-3.251-7.25-7.248V13c0-2.321,1.767-4.249,4.059-4.473C4.774,7.644,5.575,7,6.5,7c1.103,0,2,0.897,2,2s-0.897,2-2,2
		c-0.9,0-1.69-0.617-1.926-1.469C2.834,9.742,1.5,11.227,1.5,13v3.75C1.501,20.196,4.304,23,7.749,23
		c3.816,0,5.751-2.103,5.751-6.25V9c0-4,2.634-4,3.5-4h1c1.22,0.041,2.223,0.901,2.452,2.072C21.069,7.266,21.5,7.841,21.5,8.5
		v0.839c1.22,0.58,2,1.803,2,3.161V22c0,1.103-0.897,2-2,2H18.5z M17.5,22c0,0.552,0.448,1,1,1h3c0.552,0,1-0.448,1-1H17.5z
		 M22.5,21v-8h-5v8H22.5z M22.448,12c-0.235-1.141-1.261-2-2.448-2s-2.213,0.859-2.448,2H22.448z M6.5,8c-0.551,0-1,0.449-1,1
		s0.449,1,1,1s1-0.449,1-1S7.051,8,6.5,8z M20,9c0.164,0,0.331,0.013,0.5,0.038V8.5C20.5,8.224,20.276,8,20,8s-0.5,0.224-0.5,0.5
		v0.538C19.669,9.013,19.836,9,20,9z"/>
</g>
</svg>
