<?xml version="1.0" encoding="utf-8"?>
<!-- Generator: Adobe Illustrator 22.1.0, SVG Export Plug-In . SVG Version: 6.00 Build 0)  -->
<svg version="1.1" id="Light" xmlns="http://www.w3.org/2000/svg" xmlns:xlink="http://www.w3.org/1999/xlink" x="0px" y="0px"
	 viewBox="0 0 24 24" style="enable-background:new 0 0 24 24;" xml:space="preserve">
<g>
	<title>diving-diver</title>
	<path d="M20.499,16.238c-1.654,0-3-1.346-3-3c0-1.654,1.346-3,3-3s3,1.346,3,3C23.499,14.892,22.153,16.238,20.499,16.238z
		 M20.499,11.238c-1.103,0-2,0.897-2,2s0.897,2,2,2s2-0.897,2-2S21.602,11.238,20.499,11.238z"/>
	<path d="M21.961,22.483c-0.332,0-0.662-0.084-0.955-0.244l-4.6-2.512c-0.29-0.156-0.619-0.239-0.951-0.239h-4.42
		c-1.488,0-2.912-0.547-4.015-1.541l-5.868-5.211c-0.214-0.19-0.336-0.462-0.336-0.748c0-0.551,0.449-1,1-1l2.422,0.002
		c0.611,0,1.198,0.222,1.655,0.625l3.8,3.357c0.37,0.333,0.846,0.516,1.341,0.516h4.412c1,0.001,1.993,0.254,2.872,0.731
		l4.606,2.508c0.968,0.529,1.326,1.746,0.798,2.714C23.369,22.084,22.695,22.483,21.961,22.483z M7.686,17.202
		c0.921,0.83,2.108,1.286,3.344,1.286h4.415c0.506,0,0.999,0.124,1.437,0.36l4.603,2.513c0.146,0.08,0.311,0.122,0.477,0.122
		c0.367,0,0.705-0.199,0.88-0.521c0.264-0.484,0.085-1.094-0.399-1.358l-4.605-2.507c-0.732-0.398-1.56-0.609-2.394-0.61h-4.411
		c-0.743,0-1.456-0.273-2.007-0.77l-2.504-2.211l-2.18,0.727L7.686,17.202z M3.481,13.467l2.176-0.725L5.23,12.365
		c-0.274-0.242-0.626-0.375-0.992-0.375l-2.422-0.002L3.481,13.467z"/>
	<path d="M11,14.488c-0.551,0-1-0.448-1-1v-1.5c0-0.551,0.449-1,1-1h3.75c0.965,0,1.75,0.785,1.75,1.75
		c0,0.965-0.785,1.75-1.75,1.75H11z M14.75,13.488c0.414,0,0.75-0.336,0.75-0.75s-0.336-0.75-0.75-0.75h-0.251v1.5H14.75z
		 M11,13.488h2.499v-1.5H11L11,13.488z"/>
	<path d="M1.18,4.601c-0.263,0-0.526-0.028-0.784-0.083C0.265,4.49,0.153,4.413,0.081,4.301s-0.097-0.246-0.07-0.376
		C0.06,3.696,0.266,3.529,0.5,3.529c0.035,0,0.069,0.004,0.104,0.011c0.185,0.039,0.375,0.059,0.565,0.059c0,0,0,0,0,0
		c1.864,0,3.384-1.881,3.399-1.9c0.095-0.12,0.237-0.19,0.39-0.19C5.14,1.516,5.288,1.6,5.377,1.733
		c0.718,1.085,1.922,1.77,3.222,1.833c1.363-0.07,2.649-0.749,3.505-1.861c0.094-0.122,0.243-0.195,0.398-0.195
		c0.007,0,0.034,0.001,0.041,0.002c0.172,0.015,0.322,0.115,0.401,0.267c0.562,1.079,1.668,1.764,2.885,1.787
		c1.294-0.031,2.49-0.712,3.188-1.822c0.093-0.146,0.251-0.234,0.423-0.234c0.173,0,0.332,0.088,0.424,0.235
		c0.011,0.017,1.178,1.815,2.963,1.815c0.188,0,0.381-0.02,0.571-0.06c0.034-0.007,0.068-0.011,0.103-0.011
		c0.235,0,0.441,0.167,0.489,0.398c0.027,0.13,0.002,0.264-0.071,0.376c-0.073,0.112-0.186,0.188-0.316,0.216
		c-0.266,0.055-0.533,0.083-0.796,0.083c-1.62,0-2.79-1.06-3.359-1.718c-0.903,1.065-2.204,1.688-3.616,1.721
		c-1.354-0.025-2.598-0.663-3.395-1.722C11.426,3.87,10.045,4.493,8.6,4.564C7.155,4.497,5.84,3.855,4.925,2.791
		C4.258,3.463,2.876,4.6,1.18,4.601L1.18,4.601z"/>
</g>
</svg>
