<?xml version="1.0" encoding="utf-8"?>
<!-- Generator: Adobe Illustrator 22.1.0, SVG Export Plug-In . SVG Version: 6.00 Build 0)  -->
<svg version="1.1" id="Layer_1" xmlns="http://www.w3.org/2000/svg" xmlns:xlink="http://www.w3.org/1999/xlink" x="0px" y="0px"
	 viewBox="0 0 24 24" style="enable-background:new 0 0 24 24;" xml:space="preserve">
<g>
	<title>earth-pin-2</title>
	<path d="M12,23.985c-0.106,0-0.207-0.033-0.292-0.094c-0.023-0.016-2.309-1.673-4.579-4.196C5.017,17.349,2.5,13.76,2.5,9.985
		c0-5.701,4.084-10,9.5-10c5.416,0,9.5,4.299,9.5,10c0,2.083-0.803,5.459-4.628,9.71c-2.271,2.523-4.556,4.18-4.579,4.196
		C12.207,23.952,12.106,23.985,12,23.985z M12,0.985c-4.846,0-8.5,3.869-8.5,9c0,5.976,7.113,11.795,8.5,12.873
		c1.387-1.078,8.5-6.897,8.5-12.873C20.5,4.854,16.846,0.985,12,0.985z"/>
	<path d="M12,15.985c-2.06,0-4.019-0.996-5.243-2.664c-0.016-0.019-0.027-0.036-0.033-0.047c-0.8-1.11-1.224-2.421-1.224-3.79
		c0-0.933,0.196-1.836,0.583-2.686c0-0.003,0.01-0.025,0.022-0.047C7.161,4.469,9.477,2.985,12,2.985
		c1.575,0,3.096,0.574,4.284,1.617c0.011,0.008,0.028,0.022,0.045,0.039c1.38,1.235,2.172,3,2.172,4.844
		C18.5,13.069,15.584,15.985,12,15.985z M8.231,13.485c1.017,0.959,2.362,1.5,3.769,1.5c2.284,0,4.302-1.393,5.123-3.5H17
		c-1.103,0-2-0.897-2-2c0-0.276-0.224-0.5-0.5-0.5c-0.827,0-1.5-0.673-1.5-1.5c-0.013-1.19,0.709-2.272,1.776-2.745
		C13.935,4.245,12.985,3.985,12,3.985c-1.866,0-3.595,0.948-4.608,2.5H7.5c1.103,0,2,0.897,2,2c0,0.276,0.224,0.5,0.5,0.5
		c0.827,0,1.5,0.673,1.5,1.5c0,1.654-1.346,3-3,3H8.231z M8.5,12.485c1.103,0,2-0.897,2-2c0-0.276-0.224-0.5-0.5-0.5
		c-0.827,0-1.5-0.673-1.5-1.5c0-0.551-0.449-1-1-1H6.877c-0.25,0.637-0.377,1.309-0.377,2c0,1.071,0.308,2.106,0.893,3H8.5z
		 M15.785,5.498C14.765,5.603,13.989,6.454,14,7.48c0,0.28,0.224,0.505,0.5,0.505c0.827,0,1.5,0.673,1.5,1.5c0,0.551,0.448,1,1,1
		h0.407c0.062-0.332,0.093-0.667,0.093-1C17.5,7.982,16.876,6.535,15.785,5.498z"/>
</g>
</svg>
