<?xml version="1.0" encoding="utf-8"?>
<!-- Generator: Adobe Illustrator 22.1.0, SVG Export Plug-In . SVG Version: 6.00 Build 0)  -->
<svg version="1.1" id="Layer_1" xmlns="http://www.w3.org/2000/svg" xmlns:xlink="http://www.w3.org/1999/xlink" x="0px" y="0px"
	 viewBox="0 0 24 24" style="enable-background:new 0 0 24 24;" xml:space="preserve">
<g>
	<title>earth-edit</title>
	<path d="M9.483,23.706c-0.037,0-0.074-0.004-0.11-0.012c-0.513-0.115-1.035-0.27-1.55-0.46c-0.005-0.002-0.024-0.009-0.028-0.011
		c-2.457-0.909-4.513-2.577-5.932-4.815c-1.595-2.518-2.196-5.516-1.692-8.445c0.002-0.051,0.011-0.1,0.028-0.148
		C0.228,9.663,0.257,9.51,0.291,9.359c0.701-3.128,2.579-5.795,5.287-7.51c1.928-1.222,4.141-1.867,6.399-1.867
		c0.885,0,1.776,0.099,2.65,0.295c4.739,1.063,8.347,4.84,9.191,9.623c0.023,0.131-0.006,0.264-0.083,0.374
		c-0.077,0.109-0.191,0.182-0.323,0.206c-0.03,0.005-0.058,0.008-0.087,0.008c-0.243,0-0.45-0.174-0.492-0.413
		c-0.372-2.106-1.333-4.037-2.782-5.592h-5.592c-0.965,0-1.75,0.785-1.75,1.75s0.785,1.75,1.75,1.75h0.432
		c1.177,0,2.265,0.583,2.916,1.559l0.593,0.89c0.153,0.229,0.091,0.54-0.139,0.693c-0.083,0.055-0.178,0.084-0.277,0.084
		c-0.168,0-0.323-0.083-0.416-0.223l-0.593-0.89c-0.465-0.697-1.242-1.113-2.08-1.113h-0.436c-1.516,0-2.75-1.234-2.75-2.75
		s1.234-2.75,2.75-2.75h4.524c-1.324-1.086-2.894-1.852-4.576-2.229c-0.801-0.18-1.618-0.271-2.429-0.271
		c-2.069,0-4.098,0.592-5.866,1.712C3.659,4.248,1.949,6.656,1.289,9.481h5.466c0.935,0,1.814,0.364,2.475,1.026l1.121,1.121
		c1.309,1.309,1.371,3.417,0.141,4.801L9.13,17.961c-0.407,0.458-0.631,1.048-0.632,1.661v2.789
		c0.371,0.125,0.738,0.228,1.094,0.308c0.13,0.029,0.241,0.107,0.313,0.22S10,23.185,9.971,23.316
		C9.92,23.542,9.715,23.706,9.483,23.706z M1.105,10.481c-0.359,2.572,0.207,5.188,1.603,7.391c1.167,1.843,2.818,3.271,4.79,4.15
		v-2.4c0-0.858,0.314-1.684,0.884-2.325l1.363-1.533c0.878-0.988,0.834-2.495-0.101-3.429l-1.121-1.121
		c-0.472-0.472-1.1-0.733-1.768-0.733H1.105z"/>
	<path d="M11.498,23.982c-0.134,0-0.259-0.052-0.354-0.147c-0.128-0.128-0.177-0.316-0.127-0.491l1.2-4.199
		c0.004-0.014,0.013-0.038,0.02-0.051c-0.001,0.001-0.001,0.002-0.001,0.002c0,0,0.004-0.01,0.009-0.021
		c0.028-0.06,0.06-0.108,0.1-0.147l7.179-7.179c0.494-0.494,1.153-0.767,1.854-0.767c0.701,0,1.359,0.272,1.854,0.767
		c1.022,1.022,1.022,2.685,0,3.707l-7.179,7.179c-0.04,0.04-0.087,0.072-0.145,0.099c-0.008,0.003-0.034,0.014-0.042,0.017
		c-0.013,0.006-0.014,0.007-0.028,0.011l-4.201,1.2C11.59,23.976,11.544,23.982,11.498,23.982z M12.226,22.754l2.517-0.719
		l-1.798-1.798L12.226,22.754z M15.698,21.575l5.572-5.572l-2.293-2.293l-5.572,5.572L15.698,21.575z M21.977,15.296l0.547-0.546
		c0.632-0.632,0.632-1.661,0-2.293c-0.306-0.306-0.713-0.474-1.147-0.474s-0.841,0.168-1.146,0.474l-0.547,0.546L21.977,15.296z"/>
</g>
</svg>
