<?xml version="1.0" encoding="utf-8"?>
<!-- Generator: Adobe Illustrator 22.1.0, SVG Export Plug-In . SVG Version: 6.00 Build 0)  -->
<svg version="1.1" id="Layer_1" xmlns="http://www.w3.org/2000/svg" xmlns:xlink="http://www.w3.org/1999/xlink" x="0px" y="0px"
	 viewBox="0 0 24 24" style="enable-background:new 0 0 24 24;" xml:space="preserve">
<g>
	<title>earth-share</title>
	<path d="M12.022,23.99c-1.409,0-2.801-0.249-4.138-0.739c-0.037-0.01-0.07-0.022-0.102-0.038c-3.258-1.229-5.818-3.798-7.024-7.049
		c-0.73-1.968-0.929-4.101-0.576-6.171c0-0.002,0-0.004,0-0.006c0-0.058,0.01-0.115,0.03-0.17c0.77-4.141,3.689-7.619,7.623-9.078
		c1.34-0.497,2.739-0.749,4.158-0.749c3.214,0,6.348,1.32,8.601,3.621c0.023,0.02,0.044,0.042,0.064,0.067
		c1.141,1.178,2.022,2.576,2.602,4.138c0.493,1.328,0.745,2.719,0.749,4.135c0,0.133-0.051,0.259-0.145,0.354
		s-0.219,0.147-0.353,0.148c-0.276,0-0.501-0.224-0.502-0.498c-0.004-1.298-0.235-2.573-0.687-3.791
		c-0.51-1.375-1.274-2.611-2.271-3.677H14.47c-0.965,0-1.75,0.786-1.749,1.751c0,0.964,0.785,1.749,1.749,1.749h0.432
		c1.177,0,2.265,0.582,2.916,1.557l1.6,2.4c0.074,0.111,0.101,0.244,0.074,0.375c-0.026,0.131-0.102,0.244-0.213,0.318
		c-0.083,0.055-0.179,0.084-0.277,0.084c-0.168,0-0.323-0.083-0.416-0.223l-1.6-2.4c-0.465-0.696-1.242-1.112-2.079-1.112H14.47
		c-1.516,0-2.749-1.234-2.749-2.749c0-0.734,0.286-1.424,0.806-1.944s1.21-0.807,1.944-0.807h4.509
		c-1.972-1.615-4.428-2.497-6.985-2.497c-1.3,0-2.583,0.231-3.811,0.687c-3.479,1.291-6.032,4.197-6.88,7.81h5.463
		c0.936,0,1.814,0.364,2.475,1.024l1.121,1.121c1.309,1.309,1.371,3.417,0.141,4.801l-1.363,1.533
		c-0.407,0.458-0.631,1.048-0.632,1.661v2.785c1.138,0.384,2.32,0.578,3.515,0.578c1.301,0,2.583-0.231,3.812-0.687
		c0.055-0.021,0.114-0.031,0.174-0.031c0.208,0,0.396,0.131,0.469,0.326c0.096,0.258-0.036,0.547-0.295,0.643
		C14.842,23.737,13.442,23.99,12.022,23.99z M1.117,10.486c-0.25,1.792-0.051,3.63,0.579,5.329c1.022,2.756,3.13,4.999,5.813,6.204
		v-2.393c0-0.858,0.314-1.684,0.884-2.325l1.363-1.533c0.878-0.988,0.834-2.495-0.101-3.429l-1.121-1.121
		c-0.472-0.472-1.1-0.731-1.767-0.731H1.117z"/>
	<path d="M21.51,23.986c-1.378,0-2.5-1.122-2.5-2.5c0-0.16,0.016-0.321,0.048-0.481l-1.48-0.616
		c-0.464,0.682-1.237,1.097-2.067,1.097c-1.378,0-2.5-1.122-2.5-2.5s1.122-2.5,2.5-2.5c0.719,0,1.386,0.302,1.861,0.835l1.772-1.034
		c-0.088-0.259-0.133-0.527-0.133-0.801c0-1.378,1.122-2.5,2.5-2.5s2.5,1.122,2.5,2.5s-1.122,2.5-2.5,2.5
		c-0.72,0-1.387-0.302-1.862-0.836l-1.772,1.034c0.089,0.259,0.133,0.528,0.133,0.802c0,0.16-0.016,0.321-0.048,0.48l1.481,0.616
		c0.464-0.681,1.237-1.096,2.067-1.096c1.378,0,2.5,1.122,2.5,2.5S22.888,23.986,21.51,23.986z M21.51,19.986
		c-0.827,0-1.5,0.673-1.5,1.5s0.673,1.5,1.5,1.5s1.5-0.673,1.5-1.5S22.337,19.986,21.51,19.986z M15.51,17.486
		c-0.827,0-1.5,0.673-1.5,1.5s0.673,1.5,1.5,1.5c0.827,0,1.5-0.673,1.5-1.5c0-0.254-0.066-0.505-0.191-0.729
		c-0.007-0.009-0.013-0.018-0.017-0.026c-0.004-0.007-0.008-0.015-0.011-0.023C16.518,17.762,16.029,17.486,15.51,17.486z
		 M21.51,13.986c-0.827,0-1.5,0.673-1.5,1.5s0.673,1.5,1.5,1.5s1.5-0.673,1.5-1.5S22.337,13.986,21.51,13.986z"/>
</g>
</svg>
