<?xml version="1.0" encoding="utf-8"?>
<!-- Generator: Adobe Illustrator 22.1.0, SVG Export Plug-In . SVG Version: 6.00 Build 0)  -->
<svg version="1.1" id="Layer_1" xmlns="http://www.w3.org/2000/svg" xmlns:xlink="http://www.w3.org/1999/xlink" x="0px" y="0px"
	 viewBox="0 0 24 24" style="enable-background:new 0 0 24 24;" xml:space="preserve">
<g>
	<title>earth-star</title>
	<path d="M12,23.985c-1.417-0.001-2.805-0.249-4.127-0.737c-0.039-0.01-0.074-0.024-0.108-0.042
		c-4.637-1.762-7.748-6.269-7.744-11.221c0.001-0.635,0.054-1.284,0.159-1.929c-0.004-0.021-0.007-0.044-0.007-0.071
		c0-0.078,0.02-0.154,0.059-0.227c0.446-2.371,1.589-4.531,3.309-6.248c2.263-2.26,5.271-3.504,8.469-3.504
		c3.222,0.003,6.236,1.263,8.505,3.548c0.079,0.047,0.144,0.114,0.187,0.195c2.13,2.244,3.301,5.174,3.298,8.257
		c0,0.724-0.068,1.454-0.2,2.169c-0.044,0.237-0.251,0.409-0.492,0.409c-0.03,0-0.06-0.003-0.091-0.008
		c-0.271-0.05-0.451-0.312-0.401-0.583c0.121-0.655,0.183-1.323,0.183-1.988c0.002-2.804-1.055-5.471-2.979-7.521h-5.559
		c-0.467,0-0.907,0.182-1.237,0.513c-0.33,0.331-0.512,0.77-0.512,1.238c0,0.964,0.785,1.749,1.749,1.75h0.432
		c1.177,0,2.265,0.582,2.916,1.557l0.772,1.16c0.074,0.111,0.101,0.244,0.074,0.375c-0.026,0.131-0.102,0.244-0.213,0.318
		c-0.083,0.055-0.178,0.084-0.277,0.084c-0.168,0-0.324-0.083-0.417-0.223l-0.772-1.159c-0.465-0.696-1.242-1.112-2.079-1.112
		h-0.437c-1.516,0-2.749-1.234-2.749-2.749c0-0.735,0.286-1.425,0.805-1.945c0.519-0.52,1.209-0.806,1.944-0.806h4.491
		c-1.957-1.6-4.394-2.476-6.932-2.478c-2.942,0-5.699,1.141-7.773,3.211C2.784,5.679,1.772,7.495,1.309,9.485h5.448
		c0.936,0,1.814,0.364,2.475,1.024l1.121,1.121c1.309,1.309,1.371,3.417,0.141,4.801l-1.363,1.533
		C8.724,18.422,8.5,19.012,8.5,19.625v2.783c1.129,0.382,2.306,0.576,3.5,0.577c0.317,0,0.63-0.013,0.957-0.041
		c0.007-0.001,0.038-0.002,0.044-0.002c0.257,0,0.474,0.201,0.496,0.458c0.011,0.133-0.03,0.262-0.116,0.364
		c-0.086,0.102-0.207,0.165-0.34,0.176C12.686,23.97,12.345,23.985,12,23.985C12,23.985,12,23.985,12,23.985z M1.125,10.485
		c-0.069,0.5-0.104,1.004-0.104,1.501c-0.004,4.35,2.526,8.246,6.479,10.028v-2.389c0-0.858,0.314-1.684,0.884-2.325l1.363-1.533
		c0.878-0.988,0.834-2.495-0.101-3.429l-1.121-1.121c-0.472-0.472-1.1-0.731-1.767-0.731H1.125z"/>
	<path d="M15.274,23.488c-0.412,0-0.795-0.221-1.001-0.576c-0.179-0.31-0.204-0.692-0.066-1.022l1.066-2.453l-1.925-1.899
		c-0.203-0.18-0.335-0.456-0.352-0.748c-0.018-0.296,0.081-0.582,0.279-0.804c0.211-0.237,0.514-0.373,0.831-0.373l2.198,0
		l1.151-2.479c0.205-0.405,0.605-0.651,1.046-0.651c0.181,0,0.362,0.044,0.524,0.126c0.221,0.112,0.397,0.288,0.509,0.509
		c0.003,0.006,1.156,2.496,1.156,2.496l2.215-0.001c0.274,0,0.539,0.105,0.745,0.295c0.218,0.202,0.345,0.476,0.357,0.773
		c0.014,0.334-0.122,0.653-0.373,0.876l-1.903,1.877l1.063,2.447c0.121,0.289,0.122,0.603,0.005,0.889
		c-0.117,0.286-0.338,0.508-0.623,0.627c-0.14,0.059-0.289,0.088-0.443,0.088l0,0c-0.204,0-0.404-0.053-0.579-0.155l-2.65-1.493
		l-2.659,1.5C15.674,23.435,15.476,23.488,15.274,23.488z M14.114,16.612c-0.038,0-0.069,0.013-0.092,0.038
		c-0.02,0.022-0.03,0.05-0.028,0.081s0.015,0.057,0.038,0.078l2.188,2.157c0.146,0.144,0.189,0.367,0.107,0.555l-1.2,2.761
		c-0.016,0.037-0.011,0.09,0.012,0.13c0.027,0.047,0.079,0.077,0.134,0.077c0.027,0,0.052-0.007,0.076-0.021l2.91-1.641
		c0.075-0.042,0.16-0.064,0.246-0.064s0.171,0.022,0.246,0.064l2.9,1.634c0.027,0.016,0.055,0.023,0.083,0.023
		c0.02,0,0.04-0.004,0.057-0.011c0.039-0.016,0.068-0.046,0.084-0.084c0.016-0.038,0.016-0.08,0-0.118l-1.197-2.754
		c-0.082-0.188-0.039-0.411,0.107-0.555l2.166-2.136c0.042-0.038,0.058-0.07,0.057-0.106c-0.001-0.03-0.014-0.057-0.036-0.078
		c-0.021-0.019-0.047-0.03-0.071-0.03l-2.529,0.001c-0.194,0-0.373-0.114-0.454-0.29l-1.28-2.764
		c-0.01-0.018-0.036-0.044-0.065-0.059c-0.023-0.012-0.048-0.018-0.073-0.018c-0.062,0-0.117,0.034-0.145,0.088l-1.277,2.753
		c-0.082,0.176-0.26,0.29-0.454,0.29L14.114,16.612z"/>
</g>
</svg>
