<?xml version="1.0" encoding="utf-8"?>
<!-- Generator: Adobe Illustrator 22.1.0, SVG Export Plug-In . SVG Version: 6.00 Build 0)  -->
<svg version="1.1" id="Layer_1" xmlns="http://www.w3.org/2000/svg" xmlns:xlink="http://www.w3.org/1999/xlink" x="0px" y="0px"
	 viewBox="0 0 24 24" style="enable-background:new 0 0 24 24;" xml:space="preserve">
<g>
	<title>earth-1</title>
	<path d="M12,23.985c-1.429,0-2.831-0.251-4.165-0.747c-0.011-0.004-0.027-0.009-0.043-0.017C3.131,21.471,0,16.956,0,11.985
		c0-0.668,0.059-1.351,0.175-2.03c0.002-0.021,0.007-0.043,0.01-0.057C1.192,4.158,6.162-0.015,12-0.015
		c3.249,0,6.293,1.284,8.573,3.615c0.031,0.026,0.06,0.055,0.084,0.088C22.813,5.937,24,8.882,24,11.985
		c0,0.841-0.09,1.688-0.269,2.519c-0.002,0.057-0.015,0.115-0.039,0.171C22.451,20.071,17.538,23.985,12,23.985z M8.5,22.412
		c1.129,0.38,2.306,0.573,3.5,0.573c4.938,0,9.244-3.274,10.583-8h-0.472c-1.177,0-2.265-0.583-2.916-1.559l-2.218-3.329
		c-0.465-0.697-1.237-1.112-2.067-1.112h-0.449c-1.516,0-2.749-1.234-2.749-2.749c0-0.735,0.286-1.425,0.805-1.945
		c0.519-0.52,1.209-0.806,1.944-0.806h4.511c-1.966-1.617-4.417-2.5-6.972-2.5c-5.104,0-9.56,3.556-10.713,8.5h5.47
		c0.936,0,1.814,0.364,2.476,1.024l1.121,1.121c1.309,1.308,1.371,3.417,0.141,4.801l-1.363,1.533
		C8.724,18.422,8.5,19.012,8.5,19.625V22.412z M1.103,10.485C1.035,10.983,1,11.486,1,11.985c0,4.357,2.539,8.256,6.5,10.035v-2.395
		c0-0.858,0.314-1.684,0.885-2.325l1.363-1.533c0.879-0.988,0.834-2.495-0.101-3.429l-1.121-1.121
		c-0.472-0.472-1.1-0.732-1.767-0.732H1.103z M14.461,4.485c-0.468,0-0.907,0.182-1.237,0.513c-0.331,0.331-0.512,0.77-0.512,1.238
		c0,0.964,0.785,1.749,1.749,1.75h0.432c1.177,0,2.265,0.582,2.916,1.557l2.218,3.329c0.465,0.697,1.242,1.114,2.08,1.114h0.71
		c0.121-0.657,0.182-1.329,0.182-2c0-2.794-1.052-5.453-2.965-7.5H14.461z"/>
</g>
</svg>
