<?xml version="1.0" encoding="utf-8"?>
<!-- Generator: Adobe Illustrator 22.1.0, SVG Export Plug-In . SVG Version: 6.00 Build 0)  -->
<svg version="1.1" id="Layer_1" xmlns="http://www.w3.org/2000/svg" xmlns:xlink="http://www.w3.org/1999/xlink" x="0px" y="0px"
	 viewBox="0 0 24 24" style="enable-background:new 0 0 24 24;" xml:space="preserve">
<g>
	<title>earth-warning</title>
	<path d="M9.471,23.707c-0.037,0-0.074-0.004-0.11-0.012c-0.499-0.113-1.01-0.265-1.519-0.453c-0.014-0.004-0.028-0.009-0.042-0.016
		C2.404,21.21-0.798,15.637,0.177,9.964c0.002-0.049,0.011-0.096,0.027-0.142C0.233,9.663,0.264,9.504,0.3,9.345
		c1.225-5.422,6.147-9.357,11.704-9.357c0.885,0,1.776,0.1,2.646,0.296c3.126,0.707,5.791,2.588,7.502,5.299
		c1.711,2.71,2.264,5.925,1.558,9.051c-0.157,0.695-0.377,1.378-0.654,2.032c-0.078,0.185-0.26,0.305-0.461,0.305
		c-0.067,0-0.132-0.013-0.193-0.039c-0.254-0.107-0.374-0.401-0.266-0.655c0.254-0.601,0.456-1.228,0.599-1.864
		c0.648-2.866,0.14-5.812-1.428-8.297c-0.367-0.581-0.788-1.129-1.253-1.63h-5.589c-0.467,0-0.907,0.182-1.237,0.513
		c-0.33,0.331-0.512,0.77-0.512,1.237c0,0.964,0.785,1.749,1.749,1.75h0.432c1.177,0,2.265,0.582,2.916,1.557l0.119,0.179
		c0.074,0.111,0.1,0.245,0.073,0.376c-0.026,0.131-0.102,0.244-0.214,0.317c-0.082,0.054-0.177,0.083-0.276,0.083
		c-0.168,0-0.324-0.083-0.417-0.224l-0.118-0.178c-0.464-0.696-1.237-1.112-2.067-1.112h-0.449c-1.516,0-2.749-1.234-2.749-2.749
		c0-0.735,0.286-1.425,0.805-1.945c0.519-0.52,1.209-0.806,1.944-0.806h4.524c-1.316-1.082-2.879-1.847-4.559-2.227
		c-0.798-0.18-1.614-0.272-2.425-0.272c-5.067,0-9.558,3.569-10.71,8.499H6.76c0.936,0,1.814,0.364,2.476,1.024l1.121,1.121
		c1.309,1.309,1.371,3.417,0.141,4.801l-1.363,1.533c-0.407,0.458-0.632,1.048-0.632,1.661v2.788
		c0.367,0.124,0.721,0.224,1.077,0.304c0.269,0.061,0.438,0.329,0.378,0.598C9.906,23.546,9.706,23.707,9.471,23.707z M1.111,10.487
		c-0.662,4.793,1.988,9.56,6.393,11.538v-2.398c0-0.859,0.314-1.684,0.885-2.325l1.363-1.533c0.879-0.988,0.834-2.495-0.101-3.429
		l-1.121-1.121c-0.472-0.472-1.1-0.732-1.768-0.732H1.111z"/>
	<path d="M17.504,21.487c-0.408,0-0.742-0.329-0.75-0.735c0-0.005,0-0.022,0-0.026c0.005-0.406,0.337-0.737,0.745-0.739
		c0,0,0.003,0,0.004,0c0.42,0.005,0.749,0.333,0.751,0.746c0,0.001,0,0.004,0,0.004C18.254,21.15,17.917,21.487,17.504,21.487z"/>
	<path d="M17.504,18.986c-0.276,0-0.5-0.224-0.5-0.5v-2.999c0-0.276,0.224-0.5,0.5-0.5s0.5,0.224,0.5,0.5v2.999
		C18.004,18.761,17.779,18.986,17.504,18.986z"/>
	<path d="M12.447,23.987c-0.499,0-0.971-0.263-1.232-0.686c-0.263-0.427-0.281-0.967-0.048-1.41l5.056-9.633
		c0.137-0.257,0.344-0.463,0.598-0.599c0.21-0.112,0.446-0.172,0.681-0.172c0.143,0,0.285,0.021,0.423,0.063
		c0.368,0.112,0.671,0.36,0.854,0.698c0.003,0.004,5.061,9.643,5.061,9.643c0.233,0.443,0.214,0.982-0.048,1.409
		c-0.266,0.43-0.726,0.687-1.231,0.687H12.447z M17.503,12.487c-0.074,0-0.145,0.018-0.211,0.053
		c-0.079,0.042-0.143,0.106-0.186,0.185l-5.054,9.631c-0.069,0.132-0.064,0.293,0.014,0.419c0.08,0.13,0.226,0.211,0.38,0.211
		h10.114c0.155,0,0.301-0.081,0.382-0.212c0.078-0.126,0.083-0.287,0.014-0.418l-5.056-9.633c-0.056-0.104-0.15-0.182-0.265-0.217
		C17.591,12.493,17.547,12.487,17.503,12.487z"/>
</g>
</svg>
