<?xml version="1.0" encoding="utf-8"?>
<!-- Generator: Adobe Illustrator 22.1.0, SVG Export Plug-In . SVG Version: 6.00 Build 0)  -->
<svg version="1.1" id="Layer_1" xmlns="http://www.w3.org/2000/svg" xmlns:xlink="http://www.w3.org/1999/xlink" x="0px" y="0px"
	 viewBox="0 0 24 24" style="enable-background:new 0 0 24 24;" xml:space="preserve">
<g>
	<title>earth-question</title>
	<path d="M12,23.985c-1.429,0-2.831-0.251-4.165-0.747c-0.011-0.004-0.027-0.009-0.043-0.017C3.131,21.471,0,16.956,0,11.985
		c0-0.668,0.059-1.351,0.175-2.03c0.002-0.021,0.007-0.043,0.01-0.057C1.192,4.158,6.162-0.015,12-0.015
		c3.249,0,6.293,1.284,8.573,3.615c0.031,0.026,0.06,0.055,0.084,0.088C22.813,5.937,24,8.882,24,11.985c0,0.276-0.224,0.5-0.5,0.5
		s-0.5-0.224-0.5-0.5c0-2.794-1.052-5.453-2.965-7.5h-5.574c-0.468,0-0.907,0.182-1.237,0.513c-0.331,0.331-0.512,0.77-0.512,1.238
		c0,0.964,0.785,1.749,1.749,1.749h0.432c0.994,0.001,1.943,0.427,2.604,1.167c0.184,0.205,0.166,0.522-0.039,0.706
		c-0.092,0.082-0.211,0.127-0.333,0.127c-0.142,0-0.278-0.061-0.373-0.167c-0.473-0.528-1.15-0.832-1.86-0.833h-0.432
		c-1.516,0-2.749-1.234-2.749-2.749c0-0.735,0.286-1.425,0.805-1.945c0.519-0.52,1.209-0.806,1.944-0.806h4.511
		c-1.966-1.617-4.417-2.5-6.972-2.5c-5.104,0-9.56,3.556-10.713,8.5h5.47c0.936,0,1.814,0.364,2.476,1.024l1.656,1.656
		c0.195,0.195,0.195,0.512,0,0.707c-0.094,0.094-0.22,0.146-0.354,0.146s-0.259-0.052-0.354-0.146l-1.656-1.656
		c-0.472-0.472-1.1-0.732-1.767-0.732H1.103C1.035,10.983,1,11.486,1,11.985c0,4.357,2.539,8.256,6.5,10.035v-2.395
		c-0.001-0.857,0.311-1.683,0.88-2.324l0.746-0.84c0.095-0.107,0.231-0.168,0.374-0.168c0.123,0,0.241,0.045,0.333,0.127
		c0.099,0.088,0.159,0.21,0.167,0.344c0.008,0.134-0.037,0.262-0.125,0.362l-0.746,0.839c-0.406,0.458-0.629,1.048-0.628,1.66v2.788
		c1.129,0.38,2.306,0.573,3.5,0.573c0.15,0,0.3-0.004,0.447-0.01c0.003,0,0.027-0.001,0.03-0.001c0.259,0,0.478,0.216,0.489,0.481
		c0.005,0.134-0.042,0.261-0.133,0.359c-0.091,0.098-0.214,0.155-0.348,0.16C12.325,23.981,12.162,23.985,12,23.985z"/>
	<path d="M17.5,23.985c-3.584,0-6.5-2.916-6.5-6.5s2.916-6.5,6.5-6.5s6.5,2.916,6.5,6.5S21.084,23.985,17.5,23.985z M17.5,11.985
		c-3.033,0-5.5,2.467-5.5,5.5s2.467,5.5,5.5,5.5s5.5-2.467,5.5-5.5S20.533,11.985,17.5,11.985z"/>
	<path d="M17.5,19.4c-0.276,0-0.5-0.224-0.5-0.5v-1c0-0.276,0.224-0.5,0.5-0.5c0.368,0,0.713-0.143,0.973-0.403
		c0.26-0.26,0.403-0.605,0.402-0.973s-0.143-0.712-0.403-0.972c-0.26-0.259-0.605-0.402-0.972-0.402
		c-0.759,0.001-1.375,0.618-1.375,1.376c0,0.276-0.224,0.5-0.5,0.5s-0.5-0.224-0.5-0.5c0-1.309,1.064-2.375,2.374-2.376
		c0.635,0,1.231,0.247,1.68,0.695c0.449,0.449,0.696,1.045,0.697,1.679s-0.246,1.231-0.695,1.68
		c-0.329,0.329-0.733,0.549-1.18,0.644V18.9C18,19.176,17.776,19.4,17.5,19.4z"/>
	<path d="M17.5,21.901c-0.012,0-0.026-0.001-0.04-0.003c-0.39-0.017-0.702-0.335-0.71-0.733c0-0.005,0-0.023,0-0.028
		c0.008-0.396,0.316-0.713,0.709-0.734c0.014-0.002,0.028-0.003,0.04-0.003c0.414,0,0.75,0.336,0.75,0.75
		C18.25,21.565,17.914,21.901,17.5,21.901z"/>
</g>
</svg>
