<?xml version="1.0" encoding="utf-8"?>
<!-- Generator: Adobe Illustrator 22.1.0, SVG Export Plug-In . SVG Version: 6.00 Build 0)  -->
<svg version="1.1" id="Layer_1" xmlns="http://www.w3.org/2000/svg" xmlns:xlink="http://www.w3.org/1999/xlink" x="0px" y="0px"
	 viewBox="0 0 24 24" style="enable-background:new 0 0 24 24;" xml:space="preserve">
<g>
	<title>earth-lock</title>
	<path d="M12,23.985c-1.43-0.001-2.829-0.252-4.16-0.746c-0.011-0.003-0.03-0.01-0.051-0.02c-1.606-0.604-3.04-1.53-4.262-2.755
		c-2.262-2.266-3.506-5.278-3.502-8.48c0.001-0.632,0.054-1.276,0.158-1.915c-0.005-0.025-0.009-0.052-0.009-0.084
		c0-0.084,0.023-0.168,0.068-0.244C1.32,4.099,6.262,0.009,12.012,0.009c3.215,0.004,6.224,1.254,8.486,3.52l0.047,0.049
		c0.058,0.04,0.107,0.091,0.143,0.15c2.14,2.243,3.316,5.183,3.313,8.282c0,0.687-0.061,1.381-0.18,2.062
		c-0.043,0.24-0.25,0.413-0.494,0.413c-0.028,0-0.055-0.002-0.083-0.007c-0.273-0.048-0.455-0.308-0.408-0.579
		C22.944,13.276,23,12.64,23,12.009c0.003-2.81-1.052-5.477-2.973-7.524h-5.566c-0.466,0-0.906,0.183-1.236,0.514
		s-0.513,0.77-0.513,1.237c0,0.964,0.785,1.749,1.749,1.75h0.432c1.177,0,2.265,0.582,2.916,1.557l0.607,0.913
		c0.074,0.111,0.1,0.244,0.074,0.375c-0.026,0.131-0.102,0.244-0.213,0.318c-0.082,0.055-0.178,0.084-0.277,0.084
		c-0.168,0-0.323-0.083-0.416-0.223l-0.607-0.912c-0.465-0.696-1.242-1.112-2.079-1.112h-0.437c-1.516,0-2.749-1.234-2.749-2.749
		c0-1.516,1.233-2.751,2.749-2.751h4.499c-1.953-1.599-4.391-2.473-6.936-2.476c-5.103,0-9.553,3.546-10.71,8.476h5.443
		c0.936,0,1.814,0.364,2.475,1.024l1.121,1.121c1.309,1.308,1.371,3.417,0.141,4.801l-1.363,1.533
		C8.724,18.422,8.5,19.012,8.5,19.625v2.789c1.124,0.378,2.3,0.57,3.5,0.572c0.156,0,0.311-0.004,0.466-0.01c0,0,0.001,0,0.001,0
		c0.281,0,0.507,0.22,0.516,0.482c0.005,0.133-0.042,0.26-0.133,0.358s-0.215,0.154-0.348,0.159
		C12.335,23.981,12.168,23.985,12,23.985C12,23.985,12,23.985,12,23.985z M1.129,10.485c-0.069,0.498-0.104,1.002-0.105,1.5
		c-0.003,2.935,1.137,5.695,3.21,7.773c0.954,0.956,2.051,1.716,3.266,2.263v-2.396c0-0.858,0.314-1.684,0.884-2.325l1.363-1.533
		c0.878-0.988,0.834-2.495-0.101-3.429l-1.121-1.121c-0.472-0.472-1.1-0.731-1.767-0.731H1.129z"/>
	<path d="M15.5,23.985c-0.827,0-1.5-0.673-1.5-1.5v-5c0-0.827,0.673-1.5,1.5-1.5H16v-1c0-1.654,1.346-3,3-3s3,1.346,3,3v1h0.5
		c0.827,0,1.5,0.673,1.5,1.5v5c0,0.827-0.673,1.5-1.5,1.5H15.5z M15.5,16.985c-0.276,0-0.5,0.224-0.5,0.5v5
		c0,0.276,0.224,0.5,0.5,0.5h7c0.276,0,0.5-0.224,0.5-0.5v-5c0-0.276-0.224-0.5-0.5-0.5H15.5z M21,15.985v-1c0-1.103-0.897-2-2-2
		s-2,0.897-2,2v1H21z"/>
	<path d="M19,21.485c-0.827,0-1.5-0.673-1.5-1.5s0.673-1.5,1.5-1.5s1.5,0.673,1.5,1.5S19.827,21.485,19,21.485z M19,19.485
		c-0.276,0-0.5,0.224-0.5,0.5s0.224,0.5,0.5,0.5s0.5-0.224,0.5-0.5S19.276,19.485,19,19.485z"/>
</g>
</svg>
