<?xml version="1.0" encoding="utf-8"?>
<!-- Generator: Adobe Illustrator 22.1.0, SVG Export Plug-In . SVG Version: 6.00 Build 0)  -->
<svg version="1.1" id="Layer_1" xmlns="http://www.w3.org/2000/svg" xmlns:xlink="http://www.w3.org/1999/xlink" x="0px" y="0px"
	 viewBox="0 0 24 24" style="enable-background:new 0 0 24 24;" xml:space="preserve">
<g>
	<title>earth-sync</title>
	<path d="M12,23.982c-1.429,0-2.829-0.25-4.161-0.745c-0.013-0.004-0.032-0.011-0.051-0.02C3.129,21.466,0,16.952,0,11.983
		c0-3.205,1.248-6.219,3.514-8.485c2.266-2.267,5.28-3.515,8.485-3.515c3.201,0,6.326,1.318,8.578,3.618
		c0.027,0.022,0.051,0.047,0.072,0.073c1.396,1.45,2.41,3.239,2.934,5.173c0.072,0.266-0.085,0.541-0.352,0.613
		c-0.044,0.012-0.087,0.017-0.13,0.017c-0.226,0-0.425-0.152-0.483-0.37c-0.466-1.721-1.357-3.318-2.578-4.625h-5.578
		c-0.965,0-1.75,0.785-1.75,1.75s0.785,1.75,1.75,1.75h0.432c0.994,0.001,1.944,0.426,2.606,1.167
		c0.184,0.205,0.166,0.522-0.039,0.706c-0.092,0.082-0.211,0.127-0.333,0.127c-0.142,0-0.278-0.061-0.373-0.167
		c-0.473-0.529-1.151-0.832-1.861-0.833h-0.431c-1.516,0-2.75-1.234-2.75-2.75s1.234-2.75,2.75-2.75h4.509
		c-1.969-1.617-4.42-2.5-6.971-2.5c-2.938,0-5.701,1.144-7.779,3.222C2.757,5.669,1.745,7.489,1.284,9.482h5.473
		c0.935,0,1.814,0.364,2.475,1.025l1.621,1.624c0.195,0.195,0.194,0.512-0.001,0.707c-0.095,0.094-0.22,0.146-0.353,0.146
		c-0.134,0-0.26-0.052-0.354-0.147l-1.621-1.624c-0.472-0.472-1.1-0.732-1.768-0.732H1.102C1.034,10.983,1,11.486,1,11.983
		c0,2.938,1.144,5.7,3.222,7.778c0.958,0.958,2.06,1.719,3.278,2.265v-2.402c0-0.858,0.314-1.684,0.884-2.325l0.726-0.817
		c0.095-0.107,0.231-0.168,0.374-0.168c0.123,0,0.241,0.045,0.332,0.127c0.099,0.088,0.159,0.21,0.167,0.344
		c0.008,0.133-0.037,0.262-0.125,0.362l-0.726,0.817C8.725,18.421,8.5,19.01,8.5,19.623v2.792c1.124,0.376,2.301,0.567,3.5,0.567
		c0.151,0,0.301-0.003,0.451-0.009c0,0,0.001,0,0.001,0c0.291,0,0.507,0.211,0.517,0.481c0.005,0.133-0.042,0.26-0.133,0.358
		c-0.091,0.098-0.215,0.155-0.348,0.16C12.326,23.979,12.164,23.982,12,23.982z"/>
	<path d="M17.507,23.982c-2.752,0-5.218-1.742-6.134-4.334c-0.579-1.637-0.485-3.401,0.263-4.968
		c0.748-1.567,2.062-2.748,3.699-3.327c0.703-0.249,1.434-0.375,2.17-0.375c0.969,0,1.911,0.215,2.797,0.638
		c1.115,0.533,2.048,1.37,2.697,2.409v-3.044c0-0.276,0.224-0.5,0.5-0.5s0.5,0.224,0.5,0.5v4.5c0,0.276-0.224,0.5-0.5,0.5H19
		c-0.276,0-0.5-0.224-0.5-0.5s0.224-0.5,0.5-0.5h3.394c-0.547-1.076-1.431-1.942-2.522-2.463c-0.751-0.358-1.547-0.54-2.367-0.54
		c-0.623,0-1.241,0.107-1.837,0.318c-1.385,0.49-2.497,1.489-3.13,2.815c-0.633,1.326-0.712,2.819-0.223,4.204
		c0.776,2.194,2.862,3.667,5.191,3.667c0.622,0,1.237-0.106,1.827-0.315c0.97-0.343,1.823-0.95,2.465-1.754
		c0.095-0.119,0.238-0.188,0.391-0.188c0.113,0,0.224,0.039,0.312,0.109c0.104,0.083,0.17,0.202,0.185,0.335
		c0.015,0.133-0.023,0.263-0.106,0.368c-0.759,0.951-1.767,1.668-2.914,2.073C18.969,23.857,18.243,23.982,17.507,23.982
		L17.507,23.982z"/>
</g>
</svg>
