<?xml version="1.0" encoding="utf-8"?>
<!-- Generator: Adobe Illustrator 22.1.0, SVG Export Plug-In . SVG Version: 6.00 Build 0)  -->
<svg version="1.1" id="Layer_1" xmlns="http://www.w3.org/2000/svg" xmlns:xlink="http://www.w3.org/1999/xlink" x="0px" y="0px"
	 viewBox="0 0 24 24" style="enable-background:new 0 0 24 24;" xml:space="preserve">
<g>
	<title>earth-3</title>
	<path d="M11.964,23.985c-0.107-0.002-0.213-0.007-0.318-0.013l-0.044-0.002c-0.032,0.007-0.065,0.01-0.096,0.01
		c-0.05,0-0.093-0.011-0.124-0.02C4.946,23.545-0.05,18.179,0,11.73c0-0.049,0.002-0.099,0.003-0.15l0.002-0.065
		c-0.001-0.011-0.002-0.022-0.002-0.031c0-0.013,0.002-0.03,0.004-0.046c0.054-2.195,0.718-4.323,1.92-6.146
		C1.954,5.23,1.993,5.174,2.042,5.126C2.436,4.55,2.878,4.011,3.355,3.524C5.516,1.318,8.407,0.066,11.494,0
		c0.176-0.007,0.363-0.01,0.552-0.01c0.175,0,0.326,0.005,0.476,0.011c2.991,0.112,5.808,1.333,7.937,3.439
		c2.14,2.117,3.391,4.935,3.526,7.938C23.993,11.407,24,11.442,24,11.484c0,0.031-0.004,0.057-0.009,0.076l0.002,0.053
		C23.997,11.695,24,11.776,24,11.858l0,0.082c0.001,2.009-0.505,3.999-1.464,5.756c0,0-0.014,0.024-0.019,0.032
		c-1.999,3.641-5.809,6.033-9.945,6.241c-0.019,0.005-0.041,0.008-0.067,0.008c-0.011,0-0.03-0.002-0.047-0.004
		c-0.163,0.007-0.325,0.012-0.49,0.012C11.967,23.985,11.965,23.985,11.964,23.985z M11.756,22.977
		c0.073,0.004,0.146,0.007,0.22,0.008c0.09,0,0.182-0.003,0.274-0.006c1.197-1.626,2.158-3.304,2.862-4.995H8.897
		C9.6,19.674,10.561,21.352,11.756,22.977z M16.192,17.984c-0.648,1.646-1.534,3.286-2.637,4.885
		c3.108-0.453,5.908-2.241,7.643-4.885H16.192z M2.87,17.984c1.736,2.603,4.509,4.383,7.571,4.866
		c-1.097-1.592-1.978-3.225-2.623-4.866H2.87z M21.78,16.984c0.793-1.54,1.214-3.265,1.22-5h-5.51c-0.058,1.64-0.372,3.319-0.936,5
		H21.78z M15.499,16.984c0.596-1.682,0.929-3.362,0.991-5H7.52c0.062,1.638,0.394,3.318,0.99,5H15.499z M7.454,16.984
		c-0.563-1.681-0.877-3.36-0.935-5H1.001c0.026,1.738,0.464,3.458,1.274,5H7.454z M22.959,10.984c-0.152-1.778-0.743-3.499-1.719-5
		h-4.726c0.603,1.615,0.932,3.294,0.981,5H22.959z M16.495,10.984c-0.052-1.713-0.405-3.393-1.051-5H8.566
		c-0.646,1.607-0.999,3.287-1.051,5H16.495z M6.515,10.984c0.049-1.707,0.378-3.385,0.981-5H2.671c-0.954,1.498-1.519,3.219-1.644,5
		H6.515z M20.509,4.984c-1.721-2.089-4.156-3.471-6.816-3.871c0.988,1.216,1.796,2.516,2.408,3.871H20.509z M14.998,4.984
		c-0.686-1.408-1.6-2.748-2.721-3.99c-0.069-0.002-0.139-0.005-0.209-0.005c-0.112,0-0.224,0.002-0.335,0.005
		c-1.121,1.241-2.034,2.581-2.72,3.989H14.998z M7.909,4.984c0.616-1.363,1.43-2.67,2.426-3.893C7.961,1.404,5.756,2.502,4.07,4.223
		c-0.236,0.241-0.462,0.495-0.677,0.76H7.909z"/>
</g>
</svg>
