<?xml version="1.0" encoding="utf-8"?>
<!-- Generator: Adobe Illustrator 22.1.0, SVG Export Plug-In . SVG Version: 6.00 Build 0)  -->
<svg version="1.1" id="Layer_1" xmlns="http://www.w3.org/2000/svg" xmlns:xlink="http://www.w3.org/1999/xlink" x="0px" y="0px"
	 viewBox="0 0 24 24" style="enable-background:new 0 0 24 24;" xml:space="preserve">
<g>
	<title>earth-heart</title>
	<path d="M11.997,23.989c-1.409,0-2.8-0.25-4.135-0.743c-0.031-0.009-0.059-0.019-0.085-0.032c-3.815-1.441-6.616-4.666-7.494-8.629
		c-0.694-3.13-0.127-6.342,1.595-9.045C3.6,2.837,6.272,0.966,9.402,0.272c0.855-0.19,1.729-0.286,2.598-0.286
		c3.199,0,6.325,1.319,8.579,3.619c0.023,0.019,0.043,0.04,0.062,0.063c1.532,1.587,2.595,3.565,3.073,5.723
		c0.188,0.852,0.284,1.725,0.284,2.594c0,0.276-0.224,0.5-0.5,0.5s-0.5-0.224-0.5-0.5c0-0.798-0.088-1.598-0.261-2.378
		c-0.426-1.921-1.358-3.69-2.699-5.122H14.46c-0.965,0-1.75,0.786-1.75,1.751c0,0.964,0.785,1.749,1.75,1.749h0.432
		c1.177,0,2.265,0.582,2.916,1.557l0.766,1.149c0.074,0.111,0.101,0.244,0.074,0.375c-0.026,0.131-0.102,0.244-0.213,0.318
		c-0.082,0.055-0.178,0.084-0.277,0.084c-0.168,0-0.323-0.083-0.416-0.223l-0.766-1.149c-0.465-0.697-1.239-1.112-2.073-1.112H14.46
		c-1.516,0-2.749-1.234-2.749-2.749c0-1.516,1.233-2.75,2.749-2.751h4.507c-1.972-1.616-4.422-2.498-6.969-2.498
		c-0.796,0-1.596,0.088-2.38,0.262C6.749,1.884,4.3,3.599,2.721,6.077C2.05,7.132,1.567,8.277,1.284,9.485h5.471
		c0.936,0,1.814,0.364,2.475,1.024l1.572,1.573c0.094,0.095,0.146,0.22,0.146,0.354s-0.052,0.259-0.147,0.354
		c-0.094,0.094-0.22,0.146-0.353,0.146c-0.134,0-0.259-0.052-0.354-0.146l-1.572-1.573c-0.472-0.472-1.099-0.732-1.767-0.732H1.099
		c-0.178,1.293-0.124,2.599,0.16,3.883c0.751,3.39,3.071,6.224,6.239,7.649v-2.393c0-0.858,0.313-1.683,0.882-2.325l0.701-0.786
		c0.095-0.106,0.231-0.167,0.373-0.167c0.123,0,0.241,0.045,0.333,0.127c0.1,0.089,0.159,0.211,0.166,0.344
		c0.008,0.133-0.037,0.261-0.126,0.361l-0.7,0.785c-0.406,0.458-0.63,1.047-0.629,1.66v2.786c1.134,0.384,2.312,0.578,3.504,0.578
		c0.795,0,1.594-0.088,2.376-0.261c0.036-0.008,0.073-0.012,0.109-0.012c0.236,0,0.437,0.161,0.488,0.391
		c0.06,0.27-0.111,0.537-0.379,0.597C13.74,23.893,12.866,23.989,11.997,23.989z"/>
	<path d="M17.499,23.985c-0.135,0-0.267-0.056-0.361-0.154l-5.114-5.335c-1.069-1.069-1.333-2.703-0.653-4.063
		c0.601-1.202,1.812-1.948,3.159-1.948c0.55,0,1.078,0.125,1.572,0.372c0.34,0.17,0.648,0.393,0.916,0.66l0.481,0.481l0.481-0.481
		c0.666-0.666,1.552-1.033,2.493-1.033s1.827,0.367,2.493,1.033c0.268,0.268,0.49,0.576,0.66,0.916
		c0.679,1.36,0.414,2.996-0.661,4.07l-5.107,5.328C17.765,23.929,17.634,23.985,17.499,23.985z M14.528,13.485
		c-0.966,0-1.833,0.535-2.263,1.396c-0.487,0.974-0.297,2.146,0.473,2.916l4.76,4.966l4.753-4.958
		c0.776-0.776,0.968-1.949,0.481-2.923c-0.121-0.243-0.281-0.464-0.473-0.656c-0.477-0.477-1.112-0.74-1.786-0.74
		c-0.675,0-1.309,0.263-1.786,0.74l-0.835,0.835c-0.094,0.094-0.22,0.146-0.354,0.146s-0.259-0.052-0.354-0.146l-0.835-0.835
		c-0.192-0.192-0.413-0.352-0.656-0.473C15.301,13.575,14.922,13.485,14.528,13.485z"/>
</g>
</svg>
