<?xml version="1.0" encoding="utf-8"?>
<!-- Generator: Adobe Illustrator 22.1.0, SVG Export Plug-In . SVG Version: 6.00 Build 0)  -->
<svg version="1.1" id="Light" xmlns="http://www.w3.org/2000/svg" xmlns:xlink="http://www.w3.org/1999/xlink" x="0px" y="0px"
	 viewBox="0 0 24 24" style="enable-background:new 0 0 24 24;" xml:space="preserve">
<g>
	<title>pasta-noodles</title>
	<path d="M8.5,8C8.224,8,8,7.776,8,7.5v-7C8,0.224,8.224,0,8.5,0S9,0.224,9,0.5v7C9,7.776,8.776,8,8.5,8z"/>
	<path d="M10.5,9C10.224,9,10,8.776,10,8.5v-7C10,1.224,10.224,1,10.5,1S11,1.224,11,1.5v7C11,8.776,10.776,9,10.5,9z"/>
	<path d="M12.5,4C12.224,4,12,3.776,12,3.5S12.224,3,12.5,3h10C22.776,3,23,3.224,23,3.5S22.776,4,22.5,4H12.5z"/>
	<path d="M2.5,4C2.224,4,2,3.776,2,3.5S2.224,3,2.5,3h2C4.776,3,5,3.224,5,3.5S4.776,4,4.5,4H2.5z"/>
	<path d="M8.5,21c-0.134,0-0.259-0.052-0.354-0.146S8,20.634,8,20.5s0.052-0.259,0.146-0.354c0.95-0.95,0.573-1.479-0.053-2.356
		c-0.596-0.834-1.496-2.095,0.053-3.644C8.241,14.052,8.367,14,8.5,14s0.259,0.052,0.354,0.146S9,14.366,9,14.5
		s-0.052,0.259-0.146,0.354c-0.95,0.95-0.573,1.479,0.053,2.356c0.596,0.834,1.496,2.095-0.053,3.644C8.759,20.948,8.634,21,8.5,21z
		"/>
	<path d="M3.833,24c-0.491,0-0.906-0.352-0.986-0.836l-1.833-11c-0.044-0.264,0.018-0.529,0.173-0.746
		c0.155-0.217,0.386-0.361,0.65-0.405C1.891,11.005,1.946,11,2,11h4V1.5C6,1.224,6.224,1,6.5,1S7,1.224,7,1.5V11h8
		c0.551,0,1,0.449,1,1c0,0.054-0.004,0.108-0.013,0.162l-1.833,11.002C14.073,23.648,13.658,24,13.167,24H3.833z M3.833,23h9.334
		L15,12L2,12h0L3.833,23z"/>
	<path d="M22.5,8c-0.017,0-0.033-0.001-0.05-0.002l-10-1c-0.274-0.028-0.475-0.273-0.448-0.547C12.029,6.193,12.242,6,12.5,6
		c0.016,0,0.033,0.001,0.049,0.002l10.001,1c0.274,0.028,0.475,0.273,0.448,0.547C22.972,7.807,22.758,8,22.5,8z"/>
	<path d="M4.5,6.2c-0.016,0-0.033-0.001-0.05-0.002l-2-0.2C2.176,5.97,1.975,5.724,2.003,5.45C2.028,5.193,2.242,5,2.499,5
		C2.516,5,2.533,5.001,2.55,5.003l2,0.2C4.824,5.23,5.025,5.475,4.998,5.75C4.972,6.006,4.758,6.2,4.5,6.2z"/>
</g>
</svg>
