<?xml version="1.0" encoding="utf-8"?>
<!-- Generator: Adobe Illustrator 22.1.0, SVG Export Plug-In . SVG Version: 6.00 Build 0)  -->
<svg version="1.1" id="Light" xmlns="http://www.w3.org/2000/svg" xmlns:xlink="http://www.w3.org/1999/xlink" x="0px" y="0px"
	 viewBox="0 0 24 24" style="enable-background:new 0 0 24 24;" xml:space="preserve">
<g>
	<title>golf-player</title>
	<path d="M6.98,24.022c-0.436,0-0.851-0.14-1.201-0.404c-0.426-0.322-0.702-0.79-0.776-1.319c-0.074-0.529,0.062-1.055,0.384-1.482
		l3.477-4.784l-0.828-4.141c-0.005-0.026-0.008-0.052-0.009-0.079c-0.163-1.001,0.446-1.96,1.425-2.237l6.807-1.945l-5.568-5.568
		c-0.034,0.054-0.072,0.107-0.114,0.159C10.303,2.565,9.89,2.836,9.415,2.986C9.148,3.071,8.88,3.114,8.617,3.114
		c-0.777,0-1.375-0.365-1.561-0.953C6.923,1.741,7.026,1.29,7.348,0.89c0.274-0.342,0.687-0.613,1.162-0.763
		C8.773,0.043,9.04,0.001,9.303,0.001c0.209,0,0.41,0.027,0.596,0.081c0.395,0.114,0.704,0.344,0.875,0.651l6.879,6.88
		c0.618,0.214,1.09,0.71,1.27,1.339c0,0.002,0.001,0.004,0.001,0.006c0.146,0.514,0.082,1.053-0.178,1.521
		c-0.26,0.467-0.687,0.805-1.2,0.95l-4.201,1.2l2.154,2.873c0.75,1.004,0.989,2.322,0.638,3.525l-0.833,2.828
		c-0.004,0.019-0.016,0.058-0.029,0.096c-0.164,0.506-0.517,0.92-0.993,1.162c-0.281,0.143-0.595,0.219-0.906,0.219l0,0
		c-0.209,0-0.418-0.033-0.62-0.099c-0.508-0.165-0.921-0.518-1.164-0.994c-0.242-0.476-0.285-1.018-0.12-1.526l0.724-2.464
		c-0.029,0.044-0.059,0.089-0.089,0.132c0,0-3.513,4.827-3.528,4.847c-0.322,0.426-0.79,0.701-1.319,0.775
		C7.169,24.016,7.075,24.022,6.98,24.022z M9.845,15.836c0.055,0.273-0.008,0.56-0.172,0.785l-3.482,4.791
		c-0.165,0.219-0.235,0.483-0.198,0.748c0.037,0.265,0.175,0.499,0.388,0.66c0.175,0.132,0.382,0.202,0.598,0.202
		c0.047,0,0.095-0.003,0.142-0.01c0.265-0.037,0.499-0.175,0.66-0.388l3.513-4.827c0.204-0.289,0.355-0.612,0.447-0.959
		c0.049-0.184,0.201-0.326,0.388-0.363c0.032-0.006,0.064-0.009,0.096-0.009c0.156,0,0.306,0.075,0.4,0.2l0.474,0.632
		c0.187,0.251,0.247,0.58,0.161,0.88l-0.832,2.83c-0.086,0.265-0.065,0.538,0.056,0.776c0.121,0.238,0.328,0.415,0.582,0.497
		c0.101,0.033,0.205,0.05,0.31,0.05c0.158,0,0.31-0.037,0.453-0.11c0.238-0.121,0.415-0.328,0.497-0.582
		c0.006-0.018,0.852-2.895,0.852-2.895c0.263-0.902,0.084-1.891-0.479-2.645l-2.589-3.453c-0.099-0.131-0.126-0.303-0.074-0.459
		c0.053-0.157,0.179-0.277,0.337-0.322l4.9-1.4c0.53-0.151,0.839-0.704,0.69-1.233c-0.124-0.434-0.52-0.732-0.964-0.732
		c-0.092,0-0.184,0.013-0.274,0.039l-7,2c-0.498,0.141-0.802,0.63-0.707,1.137c0.004,0.021,0.007,0.043,0.008,0.064L9.845,15.836z
		 M8.811,1.08C8.522,1.171,8.279,1.326,8.127,1.515C8.078,1.576,7.969,1.732,8.009,1.858C8.056,2.008,8.307,2.112,8.62,2.112
		c0.16,0,0.331-0.027,0.494-0.079c0.289-0.092,0.531-0.246,0.683-0.436c0.049-0.061,0.159-0.217,0.119-0.343
		c-0.04-0.126-0.219-0.19-0.295-0.212C9.524,1.014,9.417,1,9.302,1C9.143,1,8.978,1.027,8.811,1.08L8.736,0.841L8.811,1.08z"/>
	<path d="M8,9C6.621,9,5.5,7.879,5.5,6.5S6.621,4,8,4s2.5,1.121,2.5,2.5S9.378,9,8,9z M8,5C7.172,5,6.5,5.673,6.5,6.5S7.172,8,8,8
		s1.5-0.673,1.5-1.5S8.827,5,8,5z"/>
</g>
</svg>
