<?xml version="1.0" encoding="utf-8"?>
<!-- Generator: Adobe Illustrator 22.1.0, SVG Export Plug-In . SVG Version: 6.00 Build 0)  -->
<svg version="1.1" id="Light" xmlns="http://www.w3.org/2000/svg" xmlns:xlink="http://www.w3.org/1999/xlink" x="0px" y="0px"
	 viewBox="0 0 24 24" style="enable-background:new 0 0 24 24;" xml:space="preserve">
<g>
	<title>golf-hole-aim</title>
	<path d="M6.982,18C3.002,18,0,16.518,0,14.554c0-0.879,0.625-1.705,1.76-2.325c0.074-0.04,0.156-0.061,0.239-0.061
		c0.183,0,0.351,0.099,0.439,0.26c0.132,0.242,0.043,0.547-0.199,0.679C1.44,13.543,1,14.057,1,14.554C1,15.857,3.795,17,6.982,17
		s5.982-1.143,5.982-2.446c0-1.303-2.795-2.447-5.982-2.447c-0.276,0-0.5-0.224-0.5-0.5s0.224-0.5,0.5-0.5
		c3.98,0,6.982,1.482,6.982,3.447C13.964,16.518,10.963,18,6.982,18z"/>
	<path d="M4.533,14.464c-0.276,0-0.5-0.224-0.5-0.5V1c0-0.17,0.085-0.327,0.228-0.42C4.342,0.528,4.436,0.5,4.533,0.5
		c0.071,0,0.139,0.015,0.204,0.044l4.282,1.915c0.217,0.097,0.393,0.268,0.495,0.483c0.237,0.498,0.025,1.096-0.473,1.333
		l-4.008,1.91v7.779C5.033,14.24,4.809,14.464,4.533,14.464z M5.033,5.077l3.578-1.705l-3.578-1.6V5.077z"/>
	<path d="M10.75,23.5C9.785,23.5,9,22.715,9,21.75S9.785,20,10.75,20s1.75,0.785,1.75,1.75S11.715,23.5,10.75,23.5z M10.75,21
		C10.336,21,10,21.336,10,21.75s0.336,0.75,0.75,0.75s0.75-0.336,0.75-0.75S11.164,21,10.75,21z"/>
	<path d="M15.2,23.5c-0.062,0-0.123-0.011-0.181-0.034c-0.498-0.193-0.891-0.57-1.107-1.059c-0.216-0.49-0.228-1.033-0.034-1.532
		c0.297-0.764,1.048-1.277,1.869-1.277c0.247,0,0.49,0.046,0.722,0.135l1.733,0.627l4.818-16.5c0.062-0.212,0.26-0.36,0.48-0.36
		c0.047,0,0.094,0.007,0.14,0.02c0.265,0.077,0.417,0.355,0.34,0.62l-5.358,18.344c-0.235,0.608-0.78,0.991-1.397,0.997
		c0,0-2.022,0.019-2.022,0.019H15.2z M15.746,20.599c-0.418,0-0.785,0.25-0.936,0.638c-0.097,0.249-0.091,0.522,0.017,0.767
		c0.096,0.218,0.263,0.392,0.474,0.495l1.914-0.018c0.206-0.002,0.386-0.127,0.461-0.319l0.244-0.84l-1.802-0.652
		C15.994,20.622,15.871,20.599,15.746,20.599z"/>
</g>
</svg>
