<?xml version="1.0" encoding="utf-8"?>
<!-- Generator: Adobe Illustrator 22.1.0, SVG Export Plug-In . SVG Version: 6.00 Build 0)  -->
<svg version="1.1" id="Light" xmlns="http://www.w3.org/2000/svg" xmlns:xlink="http://www.w3.org/1999/xlink" x="0px" y="0px"
	 viewBox="0 0 24 24" style="enable-background:new 0 0 24 24;" xml:space="preserve">
<g>
	<title>golf-hole-ball</title>
	<path d="M18.5,22.5c-1.103,0-2-0.897-2-2s0.897-2,2-2s2,0.897,2,2S19.603,22.5,18.5,22.5z M18.5,19.5c-0.552,0-1,0.448-1,1
		s0.448,1,1,1s1-0.448,1-1S19.052,19.5,18.5,19.5z"/>
	<path d="M5.5,19.5c-1.995,0-3.5-0.86-3.5-2c0-1.034,1.248-1.847,3-1.979V14.5H0.5C0.224,14.5,0,14.276,0,14s0.224-0.5,0.5-0.5H5V2
		c0-0.163,0.08-0.316,0.213-0.41C5.298,1.531,5.397,1.5,5.5,1.5c0.058,0,0.115,0.01,0.17,0.03l5.501,2
		c0.192,0.07,0.321,0.247,0.329,0.451c0.008,0.204-0.107,0.39-0.293,0.475L6,6.822V13.5h17.5c0.276,0,0.5,0.224,0.5,0.5
		s-0.224,0.5-0.5,0.5H6v1.021c1.752,0.133,3,0.945,3,1.979C9,18.64,7.495,19.5,5.5,19.5z M6,18.476c1.229-0.114,2-0.634,2-0.976
		s-0.771-0.862-2-0.976V18.476z M5,16.524c-1.229,0.114-2,0.634-2,0.976s0.771,0.862,2,0.976V16.524z M6,5.723l3.678-1.672L6,2.714
		V5.723z"/>
</g>
</svg>
