<?xml version="1.0" encoding="utf-8"?>
<!-- Generator: Adobe Illustrator 22.1.0, SVG Export Plug-In . SVG Version: 6.00 Build 0)  -->
<svg version="1.1" id="Light" xmlns="http://www.w3.org/2000/svg" xmlns:xlink="http://www.w3.org/1999/xlink" x="0px" y="0px"
	 viewBox="0 0 24 24" style="enable-background:new 0 0 24 24;" xml:space="preserve">
<g>
	<title>golf-cart</title>
	<path d="M20,22c-1.269,0-2.405-0.813-2.826-2H7.326c-0.421,1.187-1.557,2-2.826,2s-2.405-0.813-2.826-2H1c-0.551,0-1-0.448-1-1
		v-4.5C0,13.122,1.121,12,2.5,12H3V5H1C0.733,5,0.482,4.896,0.293,4.707C0.104,4.517,0,4.266,0,4c0-0.114,0.02-0.227,0.058-0.334
		C0.41,2.669,1.357,2,2.414,2h15.171c1.058,0,2.005,0.67,2.357,1.666c0.089,0.251,0.075,0.523-0.04,0.764s-0.317,0.423-0.568,0.512
		C19.226,4.981,19.114,5,19,5h-2.278l2.625,7H20.5c1.93,0,3.5,1.57,3.5,3.5v4c0,0.276-0.224,0.5-0.5,0.5h-0.674
		C22.405,21.187,21.269,22,20,22z M20,17c-1.103,0-2,0.897-2,2s0.897,2,2,2s2-0.897,2-2S21.103,17,20,17z M4.5,17
		c-1.103,0-2,0.897-2,2s0.897,2,2,2s2-0.897,2-2S5.603,17,4.5,17z M23,15.5c0-1.378-1.122-2.5-2.5-2.5h-1.266L17,15.681V19
		c0-1.654,1.346-3,3-3s3,1.346,3,3V15.5z M16,19v-3.5c0-0.117,0.041-0.23,0.116-0.32l0.617-0.74L15.5,13.207l-0.646,0.646
		C14.759,13.948,14.634,14,14.5,14s-0.259-0.052-0.354-0.146c-0.195-0.195-0.195-0.512,0-0.707l2-2C16.241,11.052,16.366,11,16.5,11
		s0.259,0.052,0.354,0.146c0.195,0.195,0.195,0.512,0,0.707L16.207,12.5l1.168,1.168l1.054-1.265L15.653,5H4v7h1.5
		C6.327,12,7,12.673,7,13.5V15h2.5c0.827,0,1.5,0.673,1.5,1.5V19H16z M10,19v-2.5c0-0.276-0.224-0.5-0.5-0.5h-3
		C6.224,16,6,15.776,6,15.5v-2C6,13.224,5.776,13,5.5,13h-3C1.673,13,1,13.673,1,14.5V19h0.5c0-1.654,1.346-3,3-3s3,1.346,3,3H10z
		 M2.415,3C1.78,3,1.212,3.402,1,4l18,0c-0.212-0.598-0.78-1-1.415-1H2.415z"/>
</g>
</svg>
