<?xml version="1.0" encoding="utf-8"?>
<!-- Generator: Adobe Illustrator 22.1.0, SVG Export Plug-In . SVG Version: 6.00 Build 0)  -->
<svg version="1.1" id="Layer_1" xmlns="http://www.w3.org/2000/svg" xmlns:xlink="http://www.w3.org/1999/xlink" x="0px" y="0px"
	 viewBox="0 0 24 24" style="enable-background:new 0 0 24 24;" xml:space="preserve">
<g>
	<title>design-shape-monitor</title>
	<path d="M5.5,22.5C5.224,22.5,5,22.276,5,22s0.224-0.5,0.5-0.5h6v-1h-9c-0.558-0.016-1.068-0.243-1.443-0.64
		S0.484,18.943,0.5,18.397l0-14.808C0.468,2.474,1.359,1.533,2.485,1.5l19.015,0c1.138,0.033,2.031,0.977,2,2.103v14.804
		c0.03,1.118-0.86,2.06-1.985,2.093H12.5v1h6c0.276,0,0.5,0.224,0.5,0.5s-0.224,0.5-0.5,0.5H5.5z M1.5,18.411
		c-0.008,0.291,0.093,0.559,0.285,0.762c0.192,0.203,0.451,0.319,0.73,0.327H21.5c0.267-0.008,0.524-0.124,0.716-0.327
		c0.191-0.203,0.292-0.468,0.284-0.747V16.5h-21V18.411z M22.5,15.5V3.589c0.016-0.586-0.437-1.07-1.011-1.089L2.5,2.5
		c-0.564,0.017-1.016,0.499-1,1.075l0,11.925H22.5z"/>
	<path d="M9,14.5c-2.481,0-4.5-2.019-4.5-4.5c0-2.481,2.019-4.5,4.5-4.5c0.276,0,0.5,0.224,0.5,0.5S9.276,6.5,9,6.5
		c-1.93,0-3.5,1.57-3.5,3.5s1.57,3.5,3.5,3.5s3.5-1.57,3.5-3.5c0-0.276,0.224-0.5,0.5-0.5s0.5,0.224,0.5,0.5
		C13.5,12.481,11.481,14.5,9,14.5z"/>
	<path d="M12.293,8.229c-0.164,0-0.318-0.081-0.411-0.216c-0.26-0.377-0.586-0.694-0.969-0.945
		c-0.112-0.073-0.188-0.185-0.216-0.316c-0.027-0.131-0.002-0.264,0.071-0.376c0.093-0.141,0.249-0.226,0.418-0.226
		c0.097,0,0.192,0.028,0.274,0.082c0.491,0.322,0.91,0.73,1.243,1.213c0.076,0.11,0.104,0.243,0.08,0.374
		c-0.024,0.131-0.098,0.246-0.208,0.322C12.493,8.198,12.395,8.229,12.293,8.229z"/>
	<path d="M14.5,13.5c-0.276,0-0.5-0.224-0.5-0.5s0.224-0.5,0.5-0.5H18c0.276,0,0.5-0.224,0.5-0.5V5c0-0.276-0.224-0.5-0.5-0.5h-6
		c-0.276,0-0.5,0.224-0.5,0.5S11.276,5.5,11,5.5S10.5,5.276,10.5,5c0-0.827,0.673-1.5,1.5-1.5h6c0.827,0,1.5,0.673,1.5,1.5v7
		c0,0.827-0.673,1.5-1.5,1.5H14.5z"/>
	<circle cx="12" cy="18" r="0.75"/>
</g>
</svg>
