<?xml version="1.0" encoding="utf-8"?>
<!-- Generator: Adobe Illustrator 22.1.0, SVG Export Plug-In . SVG Version: 6.00 Build 0)  -->
<svg version="1.1" id="Layer_1" xmlns="http://www.w3.org/2000/svg" xmlns:xlink="http://www.w3.org/1999/xlink" x="0px" y="0px"
	 viewBox="0 0 24 24" style="enable-background:new 0 0 24 24;" xml:space="preserve">
<g>
	<title>design-tool-fibonacci</title>
	<path d="M5.502,24c-0.827,0-1.5-0.673-1.5-1.5v-21c0-0.827,0.673-1.5,1.5-1.5h13c0.827,0,1.5,0.673,1.5,1.5v21
		c0,0.827-0.673,1.5-1.5,1.5H5.502z M18.502,23c0.276,0,0.5-0.224,0.5-0.5v-3.135c-0.418,0.881-0.964,1.656-1.629,2.312
		c-0.533,0.525-1.135,0.968-1.798,1.323H18.502z M5.002,22.5c0,0.276,0.224,0.5,0.5,0.5h1.762c-0.641-0.335-1.209-0.744-1.676-1.209
		c-0.215-0.214-0.411-0.445-0.585-0.688V22.5z M7.814,15c-0.774,0.023-1.493,0.346-2.024,0.91c-0.529,0.562-0.809,1.297-0.788,2.069
		c0.001,1.211,0.435,2.25,1.292,3.104c1.101,1.098,2.846,1.8,4.708,1.902v-3.132c-0.503,0.417-1.141,0.655-1.799,0.655
		c-0.08,0-0.162-0.003-0.243-0.01c-0.001,0-0.002,0-0.003,0c-0.899,0-1.462-0.426-1.773-0.782c-0.379-0.436-0.597-1.032-0.597-1.638
		C6.588,17.077,7.187,16,8.502,16c0.276,0,0.5,0.224,0.5,0.5S8.778,17,8.502,17c-0.675,0-0.915,0.581-0.915,1.078
		c0,0.367,0.128,0.725,0.351,0.981C8.19,19.347,8.558,19.5,9.002,19.5c0.076,0.006,0.13,0.008,0.184,0.008
		c0.916,0,1.677-0.649,1.816-1.545v-0.126c-0.02-0.772-0.341-1.496-0.905-2.033c-0.545-0.519-1.258-0.804-2.009-0.804L8.014,15
		c-0.048-0.001-0.081-0.001-0.112-0.001C7.872,14.999,7.843,14.999,7.814,15z M12.002,22.982c3.315-0.209,6.791-2.405,6.988-7.982
		h-6.988V22.982z M8.094,13.999c1.005,0,1.962,0.384,2.693,1.08c0.075,0.071,0.146,0.145,0.215,0.222V14.5
		c0-0.276,0.224-0.5,0.5-0.5h7.49c-0.158-4.79-2.565-7.798-4.576-9.486C11.952,2.446,8.613,1.136,5.482,1.01
		c-0.01,0-0.021-0.002-0.034-0.004C5.196,1.033,5.002,1.244,5.002,1.5v13.789c0.02-0.022,0.04-0.043,0.06-0.065
		C5.776,14.466,6.743,14.031,7.784,14c0.039-0.001,0.078-0.002,0.116-0.002c0.039,0,0.078,0.001,0.116,0.002L8.094,13.999z
		 M10.286,1c1.754,0.654,3.409,1.603,4.772,2.748c1.286,1.079,2.918,2.838,3.944,5.384V1.5c0-0.276-0.224-0.5-0.5-0.5H10.286z"/>
</g>
</svg>
