<?xml version="1.0" encoding="utf-8"?>
<!-- Generator: Adobe Illustrator 22.1.0, SVG Export Plug-In . SVG Version: 6.00 Build 0)  -->
<svg version="1.1" id="Layer_1" xmlns="http://www.w3.org/2000/svg" xmlns:xlink="http://www.w3.org/1999/xlink" x="0px" y="0px"
	 viewBox="0 0 24 24" style="enable-background:new 0 0 24 24;" xml:space="preserve">
<g>
	<title>spa-hand-flower-1</title>
	<path d="M1,23c-0.276,0-0.5-0.224-0.5-0.5v-10C0.5,12.224,0.724,12,1,12s0.5,0.224,0.5,0.5V13H8c2.298,0,4.216,1.739,4.467,4H15
		c2.481,0,4.5,2.019,4.5,4.5c0,0.276-0.224,0.5-0.5,0.5H1.5v0.5C1.5,22.776,1.276,23,1,23z M18.465,21c-0.245-1.702-1.718-3-3.464-3
		H7.5C7.224,18,7,17.776,7,17.5S7.224,17,7.5,17h3.964C11.22,15.298,9.747,14,8,14H1.5v7H18.465z"/>
	<path d="M17.355,9.588c-1.252,0-2.271-1.019-2.271-2.271c0-1.252,1.019-2.271,2.271-2.271s2.271,1.019,2.271,2.271
		C19.626,8.57,18.607,9.588,17.355,9.588z M17.355,6.046c-0.701,0-1.271,0.57-1.271,1.271c0,0.701,0.57,1.271,1.271,1.271
		s1.271-0.57,1.271-1.271C18.626,6.616,18.056,6.046,17.355,6.046z"/>
	<path d="M19.44,12.959c-0.805,0-1.563-0.346-2.086-0.94c-0.072,0.082-0.149,0.159-0.231,0.232c-0.509,0.455-1.166,0.706-1.85,0.706
		c-0.79,0-1.545-0.337-2.07-0.924c-0.814-0.91-0.93-2.235-0.322-3.264c-0.099-0.043-0.197-0.092-0.291-0.147
		c-1.323-0.769-1.774-2.472-1.005-3.795c0.373-0.641,0.973-1.099,1.689-1.289c0.234-0.062,0.475-0.094,0.715-0.094
		c0.203,0,0.405,0.022,0.602,0.067c0.01-0.106,0.027-0.211,0.049-0.315c0.272-1.272,1.414-2.195,2.715-2.195
		c0.194,0,0.39,0.021,0.581,0.062c1.195,0.256,2.069,1.259,2.182,2.45c0.199-0.045,0.401-0.067,0.604-0.067
		c1.208,0,2.269,0.771,2.641,1.92c0.061,0.188,0.102,0.381,0.122,0.575c0.124,1.215-0.561,2.355-1.659,2.829
		c0.055,0.094,0.105,0.191,0.15,0.291c0.618,1.401-0.019,3.043-1.419,3.661C20.202,12.88,19.826,12.959,19.44,12.959z
		 M17.354,10.602c0.198,0,0.377,0.117,0.458,0.298c0.284,0.644,0.923,1.059,1.627,1.059c0.247,0,0.487-0.051,0.714-0.151
		c0.896-0.396,1.303-1.446,0.908-2.342c-0.103-0.233-0.251-0.437-0.44-0.606c-0.147-0.132-0.203-0.339-0.142-0.527
		c0.062-0.188,0.228-0.323,0.425-0.343c0.974-0.099,1.686-0.973,1.587-1.947c-0.013-0.125-0.039-0.249-0.078-0.368
		c-0.238-0.735-0.917-1.228-1.69-1.228c-0.185,0-0.368,0.029-0.546,0.087c-0.12,0.039-0.236,0.091-0.345,0.154
		c-0.076,0.044-0.163,0.068-0.252,0.068c-0.106,0-0.208-0.033-0.294-0.096c-0.16-0.116-0.236-0.316-0.195-0.509
		c0.205-0.958-0.407-1.904-1.365-2.109c-0.123-0.026-0.248-0.04-0.372-0.04c-0.832,0-1.562,0.591-1.736,1.404
		c-0.052,0.247-0.052,0.497,0,0.745c0.042,0.193-0.035,0.393-0.195,0.509c-0.086,0.062-0.187,0.095-0.293,0.095
		c-0.088,0-0.175-0.023-0.251-0.067c-0.272-0.158-0.579-0.242-0.889-0.242c-0.153,0-0.308,0.02-0.458,0.06
		c-0.458,0.121-0.842,0.414-1.081,0.824c-0.238,0.409-0.302,0.888-0.18,1.347c0.122,0.459,0.414,0.843,0.823,1.081
		c0.22,0.128,0.459,0.206,0.712,0.231c0.197,0.02,0.364,0.155,0.425,0.343s0.005,0.395-0.142,0.527
		c-0.73,0.653-0.792,1.778-0.139,2.508c0.336,0.375,0.819,0.591,1.324,0.591c0.438,0,0.858-0.16,1.183-0.452
		c0.19-0.17,0.338-0.374,0.44-0.606C16.977,10.719,17.156,10.602,17.354,10.602z"/>
</g>
</svg>
