<?xml version="1.0" encoding="utf-8"?>
<!-- Generator: Adobe Illustrator 22.1.0, SVG Export Plug-In . SVG Version: 6.00 Build 0)  -->
<svg version="1.1" id="Layer_1" xmlns="http://www.w3.org/2000/svg" xmlns:xlink="http://www.w3.org/1999/xlink" x="0px" y="0px"
	 viewBox="0 0 24 24" style="enable-background:new 0 0 24 24;" xml:space="preserve">
<g>
	<title>spa-bamboo</title>
	<path d="M9.271,24c-0.468,0-0.879-0.332-0.978-0.788l-4.782-22C3.497,1.144,3.489,1.075,3.489,1.006
		C3.486,0.454,3.932,0.003,4.484,0h3.98C8.93,0,9.341,0.332,9.44,0.788l1.806,8.304c0.065-0.253,0.14-0.501,0.224-0.743
		c0.697-1.692,1.827-3.152,3.272-4.235c0.168-0.132,0.385-0.207,0.607-0.207c0.04,0,0.081,0.002,0.121,0.007
		c0.265,0.032,0.502,0.165,0.667,0.375c0.099,0.125,0.166,0.275,0.196,0.431c0.378,1.757,0.273,3.595-0.305,5.308
		c-0.765,1.82-2.007,3.364-3.602,4.489l0.023,0.105c0.724,0.212,1.469,0.319,2.217,0.319c0.689,0,1.376-0.092,2.044-0.272
		c1.093-0.431,2.061-1.141,2.801-2.054c-0.473-0.1-0.959-0.148-1.441-0.148c-0.362,0-0.728,0.027-1.087,0.08
		c-0.026,0.004-0.049,0.005-0.072,0.005c-0.25,0-0.459-0.179-0.496-0.426c-0.02-0.133,0.013-0.264,0.093-0.372
		s0.196-0.177,0.328-0.197c0.408-0.06,0.823-0.091,1.233-0.091c0.547,0,1.098,0.054,1.637,0.161c0.26,0.05,0.486,0.199,0.636,0.42
		c0.15,0.221,0.205,0.487,0.155,0.75c-0.032,0.166-0.106,0.322-0.214,0.451c-0.85,1.05-1.969,1.867-3.234,2.361
		c-0.015,0.006-0.031,0.011-0.047,0.016c-0.769,0.21-1.557,0.316-2.346,0.316c-0.651,0-1.312-0.077-1.969-0.228l1.538,7.072
		c0.015,0.072,0.023,0.143,0.023,0.213c0,0.268-0.104,0.519-0.294,0.708C13.765,23.896,13.514,24,13.248,24H9.271z M9.271,23
		l3.976,0l-0.652-3H8.619L9.271,23z M12.377,19l-0.217-1H8.184l0.217,1H12.377z M11.943,17l-1.74-8H6.228l1.739,8H11.943z
		 M15.351,4.907c-1.309,0.981-2.326,2.293-2.947,3.797c-0.428,1.228-0.567,2.577-0.398,3.889l0.186,0.851
		c1.277-0.99,2.276-2.286,2.901-3.77c0.51-1.515,0.602-3.165,0.26-4.756L15.351,4.907L15.351,4.907z M9.985,8L9.768,7H5.793l0.217,1
		H9.985z M9.55,6L8.463,1L4.49,1l1.086,5H9.55z"/>
</g>
</svg>
