<?xml version="1.0" encoding="utf-8"?>
<!-- Generator: Adobe Illustrator 22.1.0, SVG Export Plug-In . SVG Version: 6.00 Build 0)  -->
<svg version="1.1" id="Layer_1" xmlns="http://www.w3.org/2000/svg" xmlns:xlink="http://www.w3.org/1999/xlink" x="0px" y="0px"
	 viewBox="0 0 24 24" style="enable-background:new 0 0 24 24;" xml:space="preserve">
<g>
	<title>spa-therapist-robe</title>
	<path d="M3.5,22.5C2.121,22.5,1,21.378,1,20V8c0-3.584,2.916-6.5,6.5-6.5h9C20.084,1.5,23,4.416,23,8v12c0,1.378-1.122,2.5-2.5,2.5
		H3.5z M20.5,21.5c0.827,0,1.5-0.673,1.5-1.5V8c0-2.459-1.674-4.64-4.022-5.297c-0.14,3.418-1.039,5.913-2.674,7.42
		c-0.479,0.441-1.009,0.786-1.582,1.03c0.774,0.431,1.275,1.25,1.277,2.176V21.5H20.5z M6.012,2.706C3.67,3.366,2,5.545,2,8v12
		c0,0.827,0.673,1.5,1.5,1.5H14v-8.17c-0.001-0.728-0.523-1.348-1.24-1.474C8.255,11.064,6.189,9.541,6.012,2.706z M7.008,2.523
		c0.125,5.888,1.585,7.327,4.577,8.069c0.054-0.02,0.109-0.03,0.166-0.03c0.006,0,0.051,0.002,0.08,0.002
		c0.255,0,1.587-0.057,2.805-1.185c1.449-1.343,2.239-3.649,2.348-6.856C16.819,2.508,16.657,2.5,16.5,2.5h-9
		C7.34,2.5,7.176,2.508,7.008,2.523z"/>
	<path d="M10.216,19.581c-0.781,0-1.544-0.214-2.216-0.619c-0.672,0.406-1.435,0.619-2.216,0.619c-0.157,0-0.316-0.009-0.472-0.026
		c-0.031-0.003-0.064-0.01-0.095-0.02c-1.015-0.32-1.871-1.001-2.412-1.917c-0.132-0.224-0.073-0.508,0.139-0.66
		c0.734-0.527,1.599-0.805,2.502-0.805c0.159,0,0.32,0.009,0.478,0.026c0.034,0.004,0.065,0.011,0.095,0.021
		c0.104,0.032,0.208,0.07,0.311,0.112c-0.02-0.11-0.035-0.22-0.046-0.329c-0.003-0.032-0.003-0.065,0-0.097
		c0.103-1.058,0.592-2.036,1.377-2.754C7.755,13.046,7.875,13,8,13s0.245,0.046,0.338,0.131c0.785,0.718,1.274,1.696,1.377,2.754
		c0.003,0.033,0.003,0.066,0,0.098c-0.011,0.109-0.026,0.218-0.046,0.329c0.104-0.042,0.208-0.08,0.313-0.113
		c0.029-0.009,0.06-0.016,0.091-0.02c0.161-0.018,0.323-0.027,0.482-0.027c0.903,0,1.768,0.279,2.501,0.805
		c0.211,0.153,0.271,0.436,0.139,0.66c-0.54,0.916-1.396,1.597-2.411,1.917c-0.032,0.01-0.064,0.017-0.097,0.02
		C10.532,19.572,10.373,19.581,10.216,19.581z M5.47,18.566c0.103,0.01,0.206,0.014,0.309,0.014c0.497,0,0.987-0.113,1.433-0.327
		c-0.11-0.137-0.212-0.281-0.304-0.43c-0.335-0.295-0.72-0.516-1.143-0.655c-0.107-0.01-0.215-0.016-0.322-0.016
		c-0.522,0-1.034,0.125-1.496,0.362C4.343,18,4.874,18.368,5.47,18.566z M8.788,18.253c0.446,0.215,0.936,0.327,1.433,0.327
		c0.103,0,0.207-0.005,0.309-0.014c0.596-0.198,1.128-0.567,1.523-1.052c-0.462-0.237-0.975-0.361-1.497-0.361
		c-0.106,0-0.214,0.005-0.321,0.016c-0.423,0.139-0.807,0.36-1.143,0.655C9,17.972,8.898,18.116,8.788,18.253z M7.693,17.186
		C7.801,17.29,7.904,17.398,8,17.51c0.096-0.113,0.199-0.221,0.307-0.324c0.22-0.389,0.357-0.81,0.407-1.252
		C8.644,15.31,8.393,14.714,8,14.228c-0.393,0.487-0.644,1.083-0.714,1.707C7.336,16.376,7.472,16.797,7.693,17.186z"/>
</g>
</svg>
