<?xml version="1.0" encoding="utf-8"?>
<!-- Generator: Adobe Illustrator 22.1.0, SVG Export Plug-In . SVG Version: 6.00 Build 0)  -->
<svg version="1.1" id="Layer_1" xmlns="http://www.w3.org/2000/svg" xmlns:xlink="http://www.w3.org/1999/xlink" x="0px" y="0px"
	 viewBox="0 0 24 24" style="enable-background:new 0 0 24 24;" xml:space="preserve">
<g>
	<title>spa-stone</title>
	<path d="M11.496,23.25c-5.607,0-10-2.306-10-5.25c0-1.881,1.773-3.542,4.765-4.487c-0.502-0.621-0.765-1.31-0.765-2.013
		c0-1.536,1.275-2.947,3.435-3.833C8.002,6.915,7.496,5.981,7.496,5c0-2.344,2.916-4.25,6.5-4.25c3.584,0,6.5,1.906,6.5,4.25
		s-2.916,4.25-6.5,4.25c-1.453,0-2.872-0.32-4.011-0.903C7.83,9.047,6.496,10.249,6.496,11.5c0,2.033,3.435,3.75,7.5,3.75
		s7.5-1.717,7.5-3.75c-0.098-0.978-0.732-1.877-1.652-2.321c-0.248-0.12-0.353-0.42-0.233-0.668c0.083-0.172,0.26-0.283,0.45-0.283
		c0.075,0,0.148,0.017,0.217,0.049c1.234,0.595,2.083,1.811,2.216,3.173c0.002,1.331-0.903,2.545-2.547,3.446
		c-1.594,0.873-3.707,1.353-5.951,1.353c-2.773,0-5.342-0.723-6.91-1.938c-2.793,0.761-4.59,2.202-4.59,3.688
		c0,2.304,4.121,4.25,9,4.25c4.878,0,9-1.946,9-4.25c-0.005-0.406-0.126-0.803-0.35-1.146c-0.073-0.112-0.098-0.245-0.07-0.376
		c0.028-0.131,0.104-0.243,0.216-0.316c0.082-0.053,0.176-0.081,0.273-0.081c0.169,0,0.326,0.085,0.419,0.227
		c0.328,0.503,0.505,1.086,0.512,1.686C21.496,20.943,17.104,23.25,11.496,23.25z M13.996,1.75c-3.033,0-5.5,1.458-5.5,3.25
		s2.467,3.25,5.5,3.25s5.5-1.458,5.5-3.25S17.029,1.75,13.996,1.75z"/>
</g>
</svg>
