<?xml version="1.0" encoding="utf-8"?>
<!-- Generator: Adobe Illustrator 22.1.0, SVG Export Plug-In . SVG Version: 6.00 Build 0)  -->
<svg version="1.1" id="Layer_1" xmlns="http://www.w3.org/2000/svg" xmlns:xlink="http://www.w3.org/1999/xlink" x="0px" y="0px"
	 viewBox="0 0 24 24" style="enable-background:new 0 0 24 24;" xml:space="preserve">
<g>
	<title>spa-towel</title>
	<path d="M4,24c-2.206,0-4-1.794-4-4c0-0.399,0.059-0.792,0.175-1.17l2.31-15.014C2.825,1.605,4.695,0,6.932,0h10.136
		c2.237,0,4.107,1.605,4.447,3.816l2.479,16.108C23.998,19.949,24,19.975,24,20c0,2.206-1.794,4-4,4H4z M4,17
		c-1.309,0-2.458,0.838-2.858,2.086c-0.001,0.003-0.009,0.027-0.01,0.03C1.046,19.393,1,19.695,1,20c0,1.654,1.346,3,3,3h16
		c1.638,0,2.98-1.328,3-2.963L20.527,3.968C20.262,2.249,18.808,1,17.068,1H6.932c-1.74,0-3.194,1.248-3.459,2.968L1.485,16.891
		C2.191,16.318,3.075,16,4,16h14c1.654,0,3,1.346,3,3s-1.346,3-3,3H5c-1.103,0-2-0.897-2-2s0.897-2,2-2h12
		c0.276,0,0.5,0.224,0.5,0.5S17.276,19,17,19H5c-0.551,0-1,0.448-1,1s0.449,1,1,1h13c1.103,0,2-0.897,2-2s-0.897-2-2-2H4z"/>
	<path d="M12,13c-2.206,0-4-1.794-4-4c0-1.542,1.752-4.03,3.222-5.846c0.191-0.236,0.474-0.371,0.779-0.371
		c0.228,0,0.451,0.079,0.628,0.222c0.056,0.045,0.106,0.095,0.15,0.15C14.248,4.97,16,7.458,16,9c0,0.926-0.325,1.829-0.915,2.543
		c-0.007,0.009-0.02,0.024-0.034,0.038C14.299,12.478,13.183,13,12,13z M9.653,7.173C9.119,8.151,9,8.702,9,9c0,1.654,1.346,3,3,3
		c0.671,0,1.312-0.222,1.836-0.63c-0.733-0.401-1.456-0.955-2.151-1.651C11.673,9.71,11.66,9.7,11.652,9.692
		c-0.016-0.015-0.027-0.031-0.036-0.043C10.791,8.814,10.12,7.891,9.653,7.173z M12.699,9.31c0.598,0.553,1.213,0.987,1.831,1.294
		C14.838,10.122,15,9.571,15,9c0-0.298-0.12-0.851-0.655-1.831C13.853,7.928,13.301,8.646,12.699,9.31z M10.229,6.21
		c0.399,0.654,1.002,1.544,1.766,2.387c0.668-0.741,1.264-1.542,1.775-2.388C13.086,5.148,12.31,4.167,12,3.784c0,0,0,0-0.001,0
		C11.69,4.166,10.914,5.147,10.229,6.21z"/>
</g>
</svg>
