<?xml version="1.0" encoding="utf-8"?>
<!-- Generator: Adobe Illustrator 22.1.0, SVG Export Plug-In . SVG Version: 6.00 Build 0)  -->
<svg version="1.1" id="Layer_1" xmlns="http://www.w3.org/2000/svg" xmlns:xlink="http://www.w3.org/1999/xlink" x="0px" y="0px"
	 viewBox="0 0 24 24" style="enable-background:new 0 0 24 24;" xml:space="preserve">
<g>
	<title>spa-soap</title>
	<path d="M15.209,23.958c-0.545,0-1.059-0.183-1.484-0.529c-0.023-0.019-0.045-0.041-0.065-0.064
		c-0.063-0.074-0.122-0.152-0.174-0.231c-0.336-0.511-0.453-1.123-0.329-1.722c0.054-0.262,0.153-0.512,0.292-0.738
		c-0.012-0.005-0.025-0.011-0.037-0.017c-0.575-0.267-1.012-0.742-1.229-1.337s-0.191-1.24,0.076-1.814
		c0.015-0.031,0.031-0.058,0.049-0.083c0.064-0.09,0.137-0.177,0.216-0.257c0.428-0.441,1.002-0.689,1.616-0.698c0,0,0,0,0,0
		c0.25,0,0.484,0.033,0.705,0.1c0.14-1.058,1.002-1.91,2.096-2.008c0.007-0.001,0.037-0.002,0.044-0.002
		c0.016,0,0.031,0.001,0.047,0.002c0.2,0.018,0.399,0.062,0.589,0.132c0.583,0.213,1.049,0.641,1.31,1.204
		c0.1,0.216,0.167,0.446,0.198,0.68c0.221-0.069,0.45-0.104,0.686-0.104c0.12,0,0.241,0.009,0.361,0.028
		c0.611,0.095,1.149,0.423,1.514,0.923c0.019,0.025,0.036,0.055,0.05,0.085c0.144,0.311,0.22,0.658,0.22,1.002
		c-0.001,0.634-0.25,1.23-0.699,1.677c-0.206,0.205-0.448,0.371-0.711,0.488c0.519,0.837,0.448,1.92-0.211,2.691
		c-0.02,0.023-0.042,0.045-0.067,0.065c-0.244,0.198-0.524,0.345-0.83,0.433c-0.214,0.062-0.434,0.093-0.654,0.093c0,0,0,0,0,0
		c-0.686,0-1.343-0.307-1.788-0.819c-0.395,0.458-0.941,0.744-1.545,0.807C15.373,23.953,15.291,23.958,15.209,23.958z
		 M14.391,22.681c0.238,0.181,0.521,0.276,0.822,0.276c0.047,0,0.094-0.002,0.141-0.007c0.361-0.037,0.686-0.213,0.914-0.495
		c0.116-0.143,0.2-0.304,0.251-0.481c0.062-0.213,0.259-0.361,0.48-0.361s0.419,0.148,0.48,0.361
		c0.167,0.579,0.705,0.983,1.307,0.983c0.127,0,0.254-0.018,0.377-0.054c0.161-0.047,0.31-0.122,0.443-0.222
		c0.43-0.54,0.356-1.336-0.171-1.787c-0.041-0.035-0.085-0.068-0.131-0.098c-0.183-0.121-0.266-0.352-0.203-0.562
		c0.063-0.209,0.26-0.355,0.479-0.355c0.37,0,0.714-0.142,0.973-0.4c0.26-0.259,0.404-0.604,0.405-0.971
		c0-0.182-0.037-0.366-0.107-0.535c-0.206-0.262-0.5-0.434-0.83-0.485c-0.067-0.01-0.136-0.016-0.204-0.016
		c-0.28,0-0.548,0.087-0.775,0.253c-0.054,0.039-0.106,0.083-0.155,0.132c-0.094,0.094-0.219,0.145-0.352,0.145
		c-0.096,0-0.189-0.027-0.27-0.079c-0.195-0.125-0.279-0.374-0.199-0.592c0.122-0.333,0.106-0.692-0.043-1.014
		c-0.149-0.321-0.414-0.564-0.747-0.686c-0.094-0.034-0.193-0.058-0.293-0.07c-0.702,0.086-1.219,0.723-1.155,1.431
		c0.01,0.109,0.033,0.216,0.069,0.32c0.077,0.219-0.006,0.461-0.202,0.586c-0.081,0.052-0.174,0.079-0.27,0.079
		c-0.131,0-0.255-0.05-0.348-0.141c-0.243-0.236-0.565-0.366-0.906-0.366c-0.355,0-0.686,0.14-0.933,0.393
		c-0.033,0.034-0.065,0.071-0.094,0.109c-0.136,0.321-0.145,0.677-0.025,1.006c0.126,0.344,0.378,0.619,0.711,0.773
		c0.18,0.084,0.38,0.128,0.578,0.128c0,0,0.01,0,0.013,0c0.219,0.003,0.409,0.145,0.472,0.356c0.063,0.21-0.021,0.441-0.204,0.562
		c-0.288,0.19-0.486,0.48-0.555,0.818c-0.07,0.338-0.004,0.683,0.186,0.971C14.344,22.619,14.367,22.651,14.391,22.681z"/>
	<path d="M16.999,21.488c-1.096,0-1.988-0.892-1.988-1.988s0.892-1.988,1.988-1.988s1.988,0.892,1.988,1.988
		S18.095,21.488,16.999,21.488z M16.999,18.512c-0.545,0-0.988,0.443-0.988,0.988s0.443,0.988,0.988,0.988s0.988-0.443,0.988-0.988
		S17.544,18.512,16.999,18.512z"/>
	<path d="M4.5,24C3.122,24,2,22.878,2,21.5v-13C2,7.121,3.122,6,4.5,6h1.661l0.747-1.871C7.062,3.747,7.426,3.5,7.837,3.5h0.162V1
		H5.471c-0.15,0-0.29,0.066-0.385,0.182L3.323,3.318C3.228,3.434,3.087,3.5,2.937,3.5c-0.116,0-0.229-0.041-0.318-0.115
		C2.406,3.21,2.376,2.895,2.551,2.682l1.763-2.136C4.6,0.199,5.021,0,5.471,0H12c0.276,0,0.5,0.224,0.5,0.5S12.276,1,12,1H8.999v2.5
		h0.162c0.411,0,0.775,0.246,0.928,0.628L10.839,6H12.5C13.879,6,15,7.121,15,8.5V14c0,0.276-0.224,0.5-0.5,0.5S14,14.276,14,14V8.5
		C14,7.673,13.327,7,12.5,7h-8C3.673,7,3,7.673,3,8.5v13C3,22.327,3.673,23,4.5,23H12c0.276,0,0.5,0.224,0.5,0.5S12.276,24,12,24
		H4.5z M9.761,6l-0.6-1.5l-1.324,0L7.238,6H9.761z"/>
</g>
</svg>
