<?xml version="1.0" encoding="utf-8"?>
<!-- Generator: Adobe Illustrator 22.1.0, SVG Export Plug-In . SVG Version: 6.00 Build 0)  -->
<svg version="1.1" id="Layer_1" xmlns="http://www.w3.org/2000/svg" xmlns:xlink="http://www.w3.org/1999/xlink" x="0px" y="0px"
	 viewBox="0 0 24 24" style="enable-background:new 0 0 24 24;" xml:space="preserve">
<g>
	<title>spa-stone-1</title>
	<path d="M3.074,23.471c-1.283-0.003-2.426-0.867-2.78-2.099c-0.432-1.493-0.132-3.078,0.822-4.346
		c0.745-0.99,2.251-2.248,5.266-2.959c-1.886-0.44-2.681-1.262-2.681-2.68c0-2.32,2.031-3.516,3.521-4.08
		C5.187,7.039,3.901,6.405,3.901,4.75c0-0.997,0.55-4.25,7.625-4.25c1.789,0,7.625,0.307,7.625,4.25
		c0,1.306-0.846,1.918-1.839,2.241c0.997,0.255,1.842,0.609,2.521,1.058c1.269,0.838,1.968,2.023,1.968,3.337
		c0,1.603-1.019,2.452-3.547,2.843c2.631,0.739,3.977,1.913,4.656,2.831c0.952,1.286,1.235,2.885,0.776,4.386
		c-0.375,1.229-1.489,2.054-2.773,2.054L3.074,23.471z M20.91,22.5c0.845,0,1.575-0.541,1.821-1.346
		c0.173-0.565,0.458-2.038-0.624-3.499c-0.986-1.333-3.358-2.959-9.056-3.138l-0.3,0.001c-0.494,0-0.96-0.004-1.405-0.012
		c-5.937,0.112-8.406,1.759-9.43,3.12c-0.763,1.015-1.004,2.279-0.66,3.469c0.232,0.808,0.981,1.373,1.821,1.376l0,0L20.91,22.5z
		 M12.001,13.5c0.345,0,0.691,0.006,1.056,0.017c7.16-0.025,7.744-0.98,7.744-2.131c0-0.912-0.581-3.886-8.05-3.886
		c-1.888,0-8.05,0.28-8.05,3.886c0,1.297,1.063,2.019,6.669,2.12C11.57,13.502,11.784,13.5,12.001,13.5z M11.526,1.5
		c-4.148,0-6.625,1.215-6.625,3.25c0,0.957,0.499,1.75,6.625,1.75s6.625-0.793,6.625-1.75C18.151,2.715,15.674,1.5,11.526,1.5z"/>
</g>
</svg>
