<?xml version="1.0" encoding="utf-8"?>
<!-- Generator: Adobe Illustrator 22.1.0, SVG Export Plug-In . SVG Version: 6.00 Build 0)  -->
<svg version="1.1" id="Layer_1" xmlns="http://www.w3.org/2000/svg" xmlns:xlink="http://www.w3.org/1999/xlink" x="0px" y="0px"
	 viewBox="0 0 24 24" style="enable-background:new 0 0 24 24;" xml:space="preserve">
<g>
	<title>spa-sign</title>
	<path d="M23.5,24c-0.276,0-0.5-0.224-0.5-0.5v-22C23,1.224,22.776,1,22.5,1H16v3h3.5C20.327,4,21,4.673,21,5.5v11
		c0,0.827-0.673,1.5-1.5,1.5h-18C0.673,18,0,17.327,0,16.5v-11C0,4.673,0.673,4,1.5,4H4V1H1.437c-0.276,0-0.5-0.224-0.5-0.5
		S1.161,0,1.437,0H22.5C23.327,0,24,0.673,24,1.5v22C24,23.776,23.776,24,23.5,24z M1.5,5C1.224,5,1,5.224,1,5.5v11
		C1,16.776,1.224,17,1.5,17h18c0.276,0,0.5-0.224,0.5-0.5v-11C20,5.224,19.776,5,19.5,5H1.5z M15,4V1H5v3H15z"/>
	<path d="M9.5,14C9.224,14,9,13.776,9,13.5v-5C9,8.224,9.224,8,9.5,8H10c1.103,0,2,0.897,2,2s-0.897,2-2,2v1.5
		C10,13.776,9.776,14,9.5,14z M10,11c0.551,0,1-0.449,1-1s-0.449-1-1-1V11z"/>
	<path d="M5.5,14C5.224,14,5,13.776,5,13.5S5.224,13,5.5,13h1C6.776,13,7,12.776,7,12.5c0-0.477-0.289-0.717-0.8-1.1
		C5.665,10.999,5,10.5,5,9.5C5,8.673,5.673,8,6.5,8h1C7.776,8,8,8.224,8,8.5S7.776,9,7.5,9h-1C6.224,9,6,9.224,6,9.5
		c0,0.477,0.289,0.717,0.8,1.1C7.335,11.001,8,11.5,8,12.5C8,13.327,7.327,14,6.5,14H5.5z"/>
	<path d="M15.5,14c-0.276,0-0.5-0.224-0.5-0.5V12h-1v1.5c0,0.276-0.224,0.5-0.5,0.5S13,13.776,13,13.5v-4C13,8.673,13.673,8,14.5,8
		S16,8.673,16,9.5v4C16,13.776,15.776,14,15.5,14z M15,11V9.5C15,9.224,14.776,9,14.5,9S14,9.224,14,9.5V11H15z"/>
</g>
</svg>
