<?xml version="1.0" encoding="utf-8"?>
<!-- Generator: Adobe Illustrator 22.1.0, SVG Export Plug-In . SVG Version: 6.00 Build 0)  -->
<svg version="1.1" id="Light" xmlns="http://www.w3.org/2000/svg" xmlns:xlink="http://www.w3.org/1999/xlink" x="0px" y="0px"
	 viewBox="0 0 24 24" style="enable-background:new 0 0 24 24;" xml:space="preserve">
<g>
	<title>ticket-concert</title>
	<path d="M18.487,3.002c-0.276,0-0.5-0.224-0.5-0.5v-0.5h-0.5c-0.276,0-0.5-0.224-0.5-0.5s0.224-0.5,0.5-0.5h0.5v-0.5
		c0-0.276,0.224-0.5,0.5-0.5s0.5,0.224,0.5,0.5v0.5h0.5c0.276,0,0.5,0.224,0.5,0.5s-0.224,0.5-0.5,0.5h-0.5v0.5
		C18.987,2.778,18.762,3.002,18.487,3.002z"/>
	<path d="M8.486,24.002c-5.123,0-8.207-4.264-8.478-7.36c-0.014-0.047-0.021-0.094-0.021-0.14v-0.286l-0.001-0.036
		c0-0.006,0-0.015,0.001-0.023V2.502c0-1.379,1.121-2.5,2.5-2.5s2.5,1.121,2.5,2.5v5.001c0.428-0.323,0.952-0.501,1.5-0.501
		c0.798,0,1.532,0.376,2,1.003c0.468-0.627,1.202-1.003,2-1.003c0.548,0,1.071,0.178,1.5,0.501V4.502c0-1.379,1.122-2.5,2.5-2.5
		s2.5,1.121,2.5,2.5v8.5c0,0.276-0.224,0.5-0.5,0.5s-0.5-0.224-0.5-0.5v-8.5c0-0.827-0.673-1.5-1.5-1.5s-1.5,0.673-1.5,1.5v8.5
		c0,0.231-0.032,0.46-0.095,0.681c-0.182,0.642-0.603,1.175-1.186,1.501c-0.373,0.208-0.793,0.318-1.216,0.318
		c-0.067,0-0.136-0.003-0.21-0.011c-0.393,0.911-1.29,1.51-2.294,1.51H7.314c1.048,0.846,1.673,2.125,1.673,3.5
		c0,0.276-0.224,0.5-0.5,0.5s-0.5-0.224-0.5-0.5c0-1.93-1.57-3.5-3.5-3.5c-0.276,0-0.5-0.224-0.5-0.5s0.224-0.5,0.5-0.5h3.5
		c0.827,0,1.5-0.673,1.5-1.5s-0.673-1.5-1.5-1.5H4.459c-0.751,0.001-1.471,0.234-2.08,0.673c-0.836,0.571-1.354,1.508-1.392,2.51
		l0,0.043c0.025,2.827,2.89,6.774,7.499,6.774c0.27,0,0.543-0.015,0.813-0.043c0.009-0.001,0.042-0.003,0.051-0.003
		c0.257,0,0.472,0.192,0.499,0.447c0.014,0.133-0.024,0.263-0.108,0.367c-0.084,0.104-0.203,0.169-0.336,0.183
		C9.1,23.985,8.791,24.002,8.486,24.002C8.486,24.002,8.486,24.002,8.486,24.002z M10.492,14.501c0.253,0,0.504-0.066,0.726-0.19
		c0.35-0.195,0.602-0.515,0.711-0.901c0.038-0.133,0.057-0.27,0.057-0.408v-3.5c0-0.827-0.673-1.5-1.5-1.5
		c-0.827,0-1.5,0.673-1.5,1.5v2.712c0.904,0.396,1.5,1.293,1.5,2.287C10.489,14.501,10.49,14.501,10.492,14.501z M2.487,1.002
		c-0.827,0-1.5,0.673-1.5,1.5v11.092c0.239-0.281,0.515-0.531,0.817-0.737c0.639-0.461,1.391-0.746,2.183-0.828V2.502
		C3.987,1.675,3.314,1.002,2.487,1.002z M7.987,12.002v-2.5c0-0.827-0.673-1.5-1.5-1.5s-1.5,0.673-1.5,1.5v2.5H7.987z"/>
	<path d="M20.487,9.002c-0.827,0-1.5-0.673-1.5-1.5s0.673-1.5,1.5-1.5c0.172,0,0.34,0.03,0.5,0.088V4.502
		c0-0.185,0.101-0.354,0.264-0.441c0.073-0.039,0.154-0.059,0.236-0.059c0.099,0,0.195,0.029,0.278,0.084l1.5,1
		c0.111,0.074,0.187,0.187,0.213,0.318c0.026,0.131,0,0.264-0.074,0.376c-0.093,0.139-0.249,0.222-0.416,0.222
		c-0.099,0-0.194-0.029-0.277-0.083l-0.723-0.482v2.066C21.987,8.329,21.314,9.002,20.487,9.002z M20.487,7.002
		c-0.276,0-0.5,0.224-0.5,0.5s0.224,0.5,0.5,0.5s0.5-0.224,0.5-0.5S20.762,7.002,20.487,7.002z"/>
	<path d="M13.216,24.016c-0.539,0-1.028-0.295-1.278-0.771l-0.179-0.417c-0.183-0.433-0.046-0.926,0.334-1.201
		c0.013-0.01,0.026-0.018,0.039-0.026c0.302-0.175,0.445-0.526,0.35-0.857c-0.091-0.321-0.388-0.545-0.721-0.545
		c-0.069,0-0.138,0.01-0.205,0.029l-0.044,0.01c-0.065,0.011-0.124,0.017-0.182,0.017c-0.403,0-0.765-0.242-0.92-0.616l-0.161-0.377
		c-0.257-0.773,0.142-1.594,0.883-1.848l9.167-3.901c0.177-0.091,0.396-0.143,0.615-0.143c0.539,0,1.029,0.295,1.279,0.771
		l0.179,0.417c0.183,0.433,0.046,0.926-0.334,1.201c-0.344,0.222-0.486,0.61-0.368,0.977c0.146,0.272,0.425,0.44,0.732,0.44
		c0.065,0,0.131-0.008,0.195-0.023c0.076-0.014,0.138-0.019,0.199-0.019c0.406,0,0.769,0.241,0.925,0.614l0.16,0.377
		c0.258,0.772-0.14,1.593-0.882,1.847l-9.167,3.901C13.655,23.964,13.437,24.016,13.216,24.016L13.216,24.016z M12.842,22.817
		c0.061,0.113,0.209,0.198,0.369,0.198c0.07,0,0.137-0.016,0.199-0.048l5.574-2.372l-2.071-4.556l-5.422,2.307
		c-0.255,0.089-0.382,0.333-0.306,0.563l0.147,0.344c0.141-0.036,0.286-0.054,0.43-0.054c0.778,0,1.47,0.522,1.683,1.271
		c0.215,0.755-0.099,1.56-0.765,1.97L12.842,22.817z M19.904,20.203l2.737-1.165c0.254-0.089,0.381-0.333,0.305-0.562L22.8,18.134
		c-0.124,0.026-0.264,0.043-0.404,0.043c-0.696,0-1.323-0.393-1.635-1.025c-0.009-0.019-0.017-0.036-0.023-0.054
		c-0.287-0.8,0.005-1.68,0.712-2.15l-0.16-0.381c-0.06-0.113-0.209-0.197-0.369-0.197c-0.07,0-0.137,0.016-0.199,0.047l-2.889,1.229
		L19.904,20.203z"/>
	<path d="M14.207,19.412c-0.201,0-0.382-0.119-0.46-0.304c-0.108-0.254,0.011-0.548,0.265-0.656l1.742-0.74
		c0.062-0.026,0.128-0.04,0.195-0.04c0.201,0,0.382,0.12,0.461,0.304c0.108,0.254-0.011,0.548-0.265,0.656l-1.742,0.74
		C14.34,19.399,14.274,19.412,14.207,19.412z"/>
	<path d="M14.996,21.002c-0.201,0-0.382-0.12-0.46-0.304c-0.052-0.123-0.053-0.259-0.003-0.383c0.05-0.124,0.145-0.221,0.268-0.273
		l1.742-0.741c0.062-0.027,0.128-0.04,0.196-0.04c0.201,0,0.382,0.12,0.46,0.305c0.052,0.122,0.053,0.258,0.003,0.382
		c-0.05,0.124-0.145,0.221-0.268,0.273l-1.742,0.741C15.13,20.989,15.064,21.002,14.996,21.002z"/>
</g>
</svg>
