<?xml version="1.0" encoding="utf-8"?>
<!-- Generator: Adobe Illustrator 22.1.0, SVG Export Plug-In . SVG Version: 6.00 Build 0)  -->
<svg version="1.1" id="Light" xmlns="http://www.w3.org/2000/svg" xmlns:xlink="http://www.w3.org/1999/xlink" x="0px" y="0px"
	 viewBox="0 0 24 24" style="enable-background:new 0 0 24 24;" xml:space="preserve">
<g>
	<title>ticket-basketball-game</title>
	<path d="M11.222,24.016c-0.606,0-1.157-0.332-1.439-0.866l-0.242-0.565c-0.187-0.439-0.036-0.951,0.358-1.219
		c0.02-0.014,0.041-0.026,0.062-0.036c0.459-0.225,0.674-0.758,0.499-1.24c-0.143-0.394-0.521-0.658-0.941-0.658
		c-0.116,0-0.231,0.02-0.341,0.06c-0.02,0.007-0.043,0.014-0.067,0.019c-0.068,0.014-0.137,0.021-0.205,0.021
		c-0.403,0-0.764-0.238-0.922-0.607L7.76,18.398c-0.288-0.868,0.162-1.793,0.998-2.079c0,0,6.983-2.973,6.991-2.976
		c0.004-0.001,0.008-0.003,0.011-0.004l3.964-1.687c0.203-0.104,0.45-0.163,0.698-0.163c0.606,0,1.158,0.331,1.44,0.865l0.242,0.566
		c0.186,0.438,0.035,0.95-0.358,1.218c-0.464,0.277-0.672,0.824-0.513,1.313c0.191,0.357,0.575,0.587,0.982,0.587
		c0.098,0,0.196-0.013,0.291-0.039c0.086-0.019,0.158-0.026,0.23-0.026c0.405,0,0.768,0.238,0.925,0.606l0.225,0.528
		c0.288,0.869-0.162,1.793-0.997,2.08l-10.967,4.666C11.718,23.957,11.471,24.016,11.222,24.016z M10.686,22.721
		c0.091,0.171,0.303,0.294,0.53,0.294c0.099,0,0.194-0.023,0.282-0.068l6.745-2.87l-2.556-5.622l-6.571,2.796
		c-0.351,0.122-0.529,0.468-0.421,0.794l0.208,0.485c0.201-0.065,0.409-0.099,0.619-0.099c0.292,0,0.577,0.063,0.845,0.189
		c0.484,0.226,0.851,0.627,1.034,1.129c0.341,0.938-0.062,1.981-0.938,2.448L10.686,22.721z M19.163,19.686l3.367-1.433
		c0.351-0.122,0.529-0.468,0.421-0.794l-0.21-0.488c-0.162,0.045-0.344,0.069-0.528,0.069c-0.792,0-1.534-0.459-1.889-1.169
		c-0.008-0.016-0.017-0.036-0.024-0.055c-0.333-0.937,0.037-1.984,0.881-2.504l-0.222-0.529c-0.091-0.17-0.303-0.292-0.531-0.292
		c-0.099,0-0.194,0.023-0.281,0.067l-3.54,1.506L19.163,19.686z"/>
	<path d="M12.496,18.503c-0.201,0-0.382-0.12-0.46-0.304c-0.052-0.123-0.054-0.259-0.004-0.383s0.145-0.221,0.268-0.273l2.354-1.001
		c0.062-0.027,0.128-0.04,0.196-0.04c0.201,0,0.382,0.119,0.46,0.304c0.052,0.123,0.054,0.259,0.004,0.383
		c-0.05,0.124-0.145,0.221-0.268,0.273l-2.354,1.001C12.63,18.49,12.564,18.503,12.496,18.503z"/>
	<path d="M13.562,20.652c-0.201,0-0.382-0.12-0.46-0.304c-0.052-0.123-0.053-0.259-0.003-0.383c0.05-0.124,0.145-0.221,0.268-0.273
		l2.355-1.001c0.062-0.027,0.128-0.04,0.196-0.04c0.201,0,0.382,0.119,0.46,0.304c0.052,0.123,0.054,0.259,0.004,0.383
		c-0.05,0.124-0.145,0.221-0.268,0.273l-2.355,1.001C13.696,20.639,13.63,20.652,13.562,20.652z"/>
	<path d="M5.996,17.418c-0.061,0-0.12-0.011-0.177-0.032c-1.298-0.489-2.434-1.246-3.375-2.25c-0.018-0.017-0.031-0.033-0.039-0.042
		c-0.657-0.71-1.195-1.52-1.596-2.405c-0.803-1.775-1.009-3.71-0.595-5.6C0.212,7.064,0.211,7.035,0.216,7.003
		c0.008-0.058,0.028-0.115,0.059-0.17c0.088-0.352,0.193-0.691,0.312-1.008c0.376-0.997,0.917-1.908,1.609-2.708
		c0.038-0.074,0.095-0.138,0.165-0.185c0.822-0.899,1.805-1.611,2.923-2.117C6.047,0.469,6.852,0.232,7.679,0.11
		c0.052-0.021,0.105-0.033,0.16-0.035c0.001,0,0.003,0,0.004,0c0.025,0,0.045,0.002,0.06,0.004c0.357-0.044,0.72-0.066,1.08-0.066
		c1.079,0,2.144,0.195,3.166,0.58c1.317,0.496,2.468,1.271,3.421,2.303c0.022,0.02,0.047,0.045,0.07,0.078
		c2.004,2.22,2.772,5.273,2.055,8.171c-0.055,0.224-0.255,0.38-0.485,0.38c-0.041,0-0.081-0.005-0.12-0.015
		c-0.268-0.066-0.432-0.338-0.365-0.605c0.145-0.584,0.222-1.186,0.232-1.792c-0.881-0.501-1.852-0.765-2.817-0.765
		c-0.96,0-1.915,0.26-2.779,0.754c0.839,1.159,1.513,2.432,2.007,3.789c0.046,0.125,0.04,0.261-0.017,0.382
		c-0.056,0.121-0.157,0.213-0.282,0.259c-0.054,0.02-0.112,0.03-0.171,0.03c-0.209,0-0.398-0.132-0.47-0.329
		c-0.465-1.277-1.101-2.476-1.893-3.565c-1.588,1.288-2.411,3.247-2.158,5.171c0.017,0.132-0.018,0.263-0.099,0.369
		c-0.081,0.106-0.199,0.174-0.332,0.191c-0.022,0.003-0.044,0.004-0.065,0.004c-0.25,0-0.463-0.187-0.495-0.435
		c-0.299-2.273,0.669-4.583,2.534-6.089C9.413,8.276,8.851,7.704,8.242,7.172c-2.85,2.509-4.274,5.684-4.894,7.463
		c0.8,0.8,1.75,1.411,2.825,1.816c0.125,0.047,0.224,0.14,0.279,0.261c0.055,0.122,0.06,0.258,0.012,0.383
		C6.391,17.288,6.203,17.418,5.996,17.418z M1.129,7.618C0.85,9.196,1.053,10.802,1.72,12.277c0.238,0.527,0.533,1.026,0.88,1.49
		c0.697-1.821,2.157-4.811,4.857-7.239C7.094,6.249,6.712,5.979,6.316,5.723C5.131,6.876,3.578,7.552,1.92,7.63
		C1.814,7.635,1.708,7.638,1.602,7.638C1.453,7.638,1.299,7.631,1.129,7.618z M9.024,6.529c0.623,0.554,1.198,1.15,1.716,1.775
		c1.053-0.63,2.222-0.96,3.4-0.96c0.946,0,1.868,0.204,2.749,0.608c-0.202-1.52-0.848-2.972-1.847-4.143
		C12.798,4.274,10.776,5.189,9.024,6.529z M1.368,6.628c0.101,0.005,0.197,0.008,0.289,0.008c0.072,0,0.144-0.002,0.216-0.005
		C3.197,6.569,4.448,6.057,5.43,5.184C4.595,4.707,3.715,4.289,2.809,3.94C2.263,4.609,1.831,5.36,1.523,6.178
		C1.468,6.325,1.416,6.476,1.368,6.628z M6.988,4.967c0.433,0.286,0.853,0.589,1.25,0.902c1.745-1.375,3.753-2.348,5.978-2.897
		c-0.713-0.621-1.525-1.106-2.421-1.443c-0.906-0.341-1.851-0.514-2.81-0.514c-0.206,0-0.414,0.008-0.62,0.024
		C8.331,2.46,7.848,3.838,6.988,4.967z M3.545,3.157C4.44,3.522,5.309,3.951,6.133,4.435c0.735-0.933,1.164-2.071,1.228-3.253
		c-0.573,0.12-1.131,0.302-1.664,0.544C4.9,2.086,4.178,2.567,3.545,3.157z"/>
	<path d="M20.996,6.002c-1.654,0-3-1.346-3-3s1.346-3,3-3s3,1.346,3,3S22.65,6.002,20.996,6.002z M20.996,1.002
		c-1.103,0-2,0.897-2,2s0.897,2,2,2s2-0.897,2-2S22.099,1.002,20.996,1.002z"/>
</g>
</svg>
