<?xml version="1.0" encoding="utf-8"?>
<!-- Generator: Adobe Illustrator 22.1.0, SVG Export Plug-In . SVG Version: 6.00 Build 0)  -->
<svg version="1.1" id="Light" xmlns="http://www.w3.org/2000/svg" xmlns:xlink="http://www.w3.org/1999/xlink" x="0px" y="0px"
	 viewBox="0 0 24 24" style="enable-background:new 0 0 24 24;" xml:space="preserve">
<g>
	<title>ticket</title>
	<path d="M1,20c-0.551,0-1-0.448-1-1v-3.536c0.001-0.494,0.37-0.919,0.858-0.989c1.094-0.156,1.967-1.028,2.123-2.122
		c0.094-0.661-0.075-1.32-0.475-1.854C2.105,9.965,1.52,9.619,0.859,9.525C0.37,9.455,0.001,9.03,0,8.537V5c0-0.551,0.449-1,1-1h22
		c0.552,0,1,0.449,1,1v3.525c0.015,0.478-0.338,0.908-0.821,0.992c-1.127,0.153-2.012,1.034-2.162,2.146
		c-0.09,0.662,0.084,1.319,0.489,1.85s0.992,0.873,1.654,0.962c0.495,0.087,0.851,0.519,0.84,1.005V19c0,0.552-0.448,1-1,1H1z
		 M1,8.536c0.925,0.131,1.744,0.615,2.305,1.363c0.561,0.748,0.798,1.669,0.666,2.594C3.753,14.025,2.531,15.247,1,15.465L1,19h22
		v-3.529c-0.904-0.13-1.723-0.608-2.289-1.352s-0.81-1.663-0.685-2.59c0.209-1.547,1.43-2.776,2.975-2.997l0-3.533H1h0L1,8.536z"/>
	<path d="M7,17c-0.551,0-1-0.448-1-1V8c0-0.551,0.449-1,1-1h8c0.552,0,1,0.449,1,1v8c0,0.552-0.448,1-1,1H7z M7,16h8V8l-8,0L7,16z"
		/>
	<path d="M9.5,11C9.225,11,9,10.776,9,10.5S9.225,10,9.5,10h3c0.276,0,0.5,0.224,0.5,0.5s-0.224,0.5-0.5,0.5H9.5z"/>
	<path d="M9.5,14C9.225,14,9,13.776,9,13.5S9.225,13,9.5,13h3c0.276,0,0.5,0.224,0.5,0.5s-0.224,0.5-0.5,0.5H9.5z"/>
	<circle cx="18.751" cy="7" r="0.75"/>
	<circle cx="18.751" cy="10" r="0.75"/>
	<circle cx="18.751" cy="14" r="0.75"/>
	<circle cx="18.751" cy="17" r="0.75"/>
</g>
</svg>
