<?xml version="1.0" encoding="utf-8"?>
<!-- Generator: Adobe Illustrator 22.1.0, SVG Export Plug-In . SVG Version: 6.00 Build 0)  -->
<svg version="1.1" id="Light" xmlns="http://www.w3.org/2000/svg" xmlns:xlink="http://www.w3.org/1999/xlink" x="0px" y="0px"
	 viewBox="0 0 24 24" style="enable-background:new 0 0 24 24;" xml:space="preserve">
<g>
	<title>ticket-1</title>
	<path d="M8.373,14.006c-0.134,0-0.259-0.052-0.354-0.146c-0.195-0.195-0.195-0.512,0-0.707l6.364-6.364
		c0.094-0.094,0.22-0.146,0.354-0.146s0.259,0.052,0.354,0.146c0.195,0.195,0.195,0.512,0,0.707l-6.364,6.364
		C8.632,13.954,8.506,14.006,8.373,14.006z"/>
	<path d="M12.262,14.358c-0.134,0-0.259-0.052-0.354-0.146s-0.146-0.22-0.146-0.354s0.052-0.259,0.146-0.354l2.828-2.828
		c0.094-0.094,0.22-0.146,0.354-0.146s0.259,0.052,0.354,0.146s0.146,0.22,0.146,0.354s-0.052,0.259-0.146,0.354l-2.828,2.828
		C12.521,14.306,12.395,14.358,12.262,14.358z"/>
	<path d="M10.494,19.539c-0.669,0-1.296-0.26-1.768-0.731l-3.536-3.535c-0.472-0.472-0.732-1.1-0.732-1.768s0.26-1.296,0.732-1.768
		l7.778-7.778c0.471-0.471,1.099-0.731,1.768-0.731c0.669,0,1.296,0.26,1.768,0.731l3.535,3.536c0.975,0.975,0.975,2.561,0,3.536
		l-7.778,7.778C11.791,19.279,11.163,19.539,10.494,19.539z M14.737,4.227c-0.401,0-0.778,0.156-1.061,0.438l-7.778,7.778
		c-0.283,0.283-0.439,0.66-0.439,1.061s0.156,0.777,0.439,1.061l3.536,3.535c0.283,0.283,0.66,0.438,1.061,0.438
		s0.778-0.156,1.061-0.438l7.778-7.778c0.585-0.585,0.585-1.537,0-2.121l-3.535-3.536C15.515,4.383,15.138,4.227,14.737,4.227z"/>
	<path d="M11.105,24.002c-0.134,0-0.259-0.052-0.354-0.146c-0.094-0.094-0.22-0.146-0.354-0.146c-0.134,0-0.26,0.052-0.354,0.146
		c-0.091,0.091-0.22,0.144-0.353,0.144c-0.134,0-0.262-0.052-0.354-0.144l-9.192-9.192C0.038,14.557-0.015,14.41,0,14.261
		c0.012-0.119,0.066-0.23,0.152-0.312c0.187-0.19,0.186-0.506-0.008-0.7c-0.094-0.094-0.147-0.22-0.147-0.354
		c0-0.132,0.053-0.26,0.146-0.354L12.391,0.295c0.188-0.188,0.44-0.292,0.708-0.292c0.218,0,0.425,0.068,0.598,0.198
		c0.426,0.318,0.958,0.494,1.497,0.494c0.54,0,1.071-0.176,1.497-0.494c0.173-0.13,0.38-0.198,0.598-0.198
		c0.269,0,0.52,0.104,0.708,0.292l5.707,5.707c0.349,0.349,0.39,0.911,0.094,1.306c-0.659,0.881-0.659,2.113,0,2.994
		c0.296,0.395,0.256,0.957-0.094,1.306L11.458,23.855C11.364,23.95,11.238,24.002,11.105,24.002z M10.397,22.709
		c0.226,0,0.446,0.05,0.647,0.146l11.953-11.954c-0.923-1.234-0.923-2.958,0-4.192L17.29,1.002
		c-0.597,0.447-1.342,0.692-2.096,0.692s-1.499-0.246-2.096-0.693L1.144,12.955c0.196,0.409,0.196,0.885,0,1.294l8.606,8.605
		C9.951,22.759,10.171,22.709,10.397,22.709z"/>
</g>
</svg>
