<?xml version="1.0" encoding="utf-8"?>
<!-- Generator: Adobe Illustrator 22.1.0, SVG Export Plug-In . SVG Version: 6.00 Build 0)  -->
<svg version="1.1" id="Light" xmlns="http://www.w3.org/2000/svg" xmlns:xlink="http://www.w3.org/1999/xlink" x="0px" y="0px"
	 viewBox="0 0 24 24" style="enable-background:new 0 0 24 24;" xml:space="preserve">
<g>
	<title>gardening-house-1</title>
	<path d="M2,23.778c-0.827,0-1.5-0.673-1.5-1.5v-10.1c0-0.388,0.148-0.756,0.416-1.037l10-10.455
		c0.277-0.29,0.652-0.453,1.056-0.461c0.01-0.001,0.019-0.002,0.028-0.002c0.013,0,0.028,0.001,0.043,0.004
		c0.366,0.006,0.723,0.152,0.993,0.411c0.017,0.017,0.034,0.033,0.05,0.05l9.998,10.453c0.268,0.28,0.416,0.648,0.416,1.037v10.1
		c0,0.827-0.673,1.5-1.5,1.5H2z M22,22.778c0.276,0,0.5-0.224,0.5-0.5v-2.5h-2v3H22z M19.5,22.778v-3h-3v3H19.5z M15.5,22.778v-10
		h-7v10H15.5z M7.5,22.778v-3h-3v3H7.5z M1.5,22.278c0,0.276,0.224,0.5,0.5,0.5h1.5v-3h-2V22.278z M22.5,18.778v-6h-2v6H22.5z
		 M19.5,18.778v-6h-3v6H19.5z M7.5,18.778v-6h-3v6H7.5z M3.5,18.778v-6h-2v6H3.5z M22.309,11.778L20.5,9.887v1.891H22.309z
		 M19.5,11.778V8.842l-3-3.136v6.073H19.5z M15.5,11.778V4.66l-3-3.136v10.255H15.5z M11.5,11.778V1.523l-3,3.137v7.119H11.5z
		 M7.5,11.778V5.705l-3,3.137v2.937H7.5z M3.5,11.778V9.887l-1.809,1.892H3.5z"/>
</g>
</svg>
