<?xml version="1.0" encoding="utf-8"?>
<!-- Generator: Adobe Illustrator 22.1.0, SVG Export Plug-In . SVG Version: 6.00 Build 0)  -->
<svg version="1.1" id="Light" xmlns="http://www.w3.org/2000/svg" xmlns:xlink="http://www.w3.org/1999/xlink" x="0px" y="0px"
	 viewBox="0 0 24 24" style="enable-background:new 0 0 24 24;" xml:space="preserve">
<g>
	<title>gardening-glove</title>
	<path d="M9.899,23.865c-0.202,0-0.396-0.06-0.563-0.174c-0.045-0.031-0.09-0.067-0.132-0.107l-8.134-7.833
		c-0.397-0.384-0.408-1.018-0.025-1.415c0.046-0.047,0.096-0.09,0.15-0.128l3.934-2.723C5.804,8.541,7.1,4.469,7.269,3.942
		c0.087-0.432,0.333-0.808,0.696-1.06c0.286-0.199,0.621-0.305,0.967-0.305c0.101,0,0.203,0.009,0.304,0.027
		c0.757,0.136,1.33,0.766,1.394,1.533c0.002,0.026,0.002,0.053,0,0.079l-0.21,2.723l6.291-6.292c0.33-0.33,0.77-0.512,1.238-0.512
		s0.907,0.182,1.238,0.512c0.185,0.185,0.323,0.408,0.408,0.654l0.299-0.299c0.33-0.331,0.77-0.513,1.237-0.513
		c0.468,0,0.907,0.182,1.238,0.513c0.33,0.33,0.512,0.77,0.512,1.238s-0.182,0.907-0.512,1.238l-0.299,0.299
		C22.314,3.861,22.537,4,22.721,4.184c0.682,0.682,0.682,1.793,0,2.475l-1.003,1.004c0.243,0.086,0.465,0.225,0.65,0.41
		c0.331,0.33,0.513,0.77,0.513,1.237c0,0.468-0.182,0.907-0.513,1.238l-8.982,8.982l-2.661,3.899
		C10.539,23.703,10.23,23.865,9.899,23.865z M8.934,3.577c-0.142,0-0.279,0.043-0.398,0.126C8.383,3.81,8.28,3.97,8.247,4.154
		C8.243,4.176,8.237,4.198,8.231,4.219c-0.015,0.046-1.482,4.603-2.168,7.676c-0.027,0.123-0.1,0.23-0.203,0.302l-4.094,2.834
		l8.134,7.834l2.687-3.937c0.017-0.026,0.037-0.05,0.06-0.072l9.015-9.015c0.142-0.142,0.22-0.33,0.22-0.531
		c0-0.2-0.078-0.389-0.22-0.53c-0.142-0.142-0.33-0.22-0.53-0.22c-0.2,0-0.389,0.078-0.531,0.22l-3.358,3.359
		c-0.094,0.094-0.22,0.146-0.354,0.146s-0.259-0.052-0.354-0.146c-0.094-0.094-0.146-0.22-0.146-0.354
		c0-0.134,0.052-0.259,0.146-0.354l5.479-5.48c0.292-0.292,0.292-0.769,0-1.061c-0.141-0.141-0.33-0.219-0.53-0.219
		s-0.389,0.078-0.53,0.219L16.534,9.31c-0.094,0.094-0.22,0.146-0.354,0.146s-0.259-0.052-0.354-0.146S15.68,9.09,15.68,8.957
		s0.052-0.259,0.146-0.354l5.834-5.833c0.292-0.292,0.292-0.768,0-1.061c-0.142-0.142-0.33-0.22-0.531-0.22
		c-0.2,0-0.389,0.078-0.53,0.22l-1.414,1.414c-0.006,0.006-0.012,0.011-0.018,0.017l-4.401,4.402
		c-0.094,0.094-0.22,0.146-0.354,0.146s-0.259-0.052-0.354-0.146c-0.094-0.094-0.146-0.22-0.146-0.354
		c0-0.134,0.052-0.259,0.146-0.354l4.419-4.42c0.292-0.292,0.292-0.769,0-1.061c-0.141-0.141-0.33-0.219-0.531-0.219
		s-0.389,0.078-0.531,0.219l-6.291,6.292c-0.189,0.189-0.439,0.293-0.704,0.293c-0.027,0-0.053-0.001-0.08-0.003
		c-0.266-0.02-0.508-0.143-0.682-0.346C9.487,7.387,9.403,7.129,9.423,6.862L9.63,4.185c-0.04-0.299-0.272-0.543-0.57-0.597
		C9.017,3.581,8.975,3.577,8.934,3.577z"/>
	<path d="M11.677,18.388c-0.134,0-0.259-0.052-0.354-0.146l-4.95-4.95c-0.094-0.094-0.146-0.22-0.146-0.354s0.052-0.259,0.146-0.354
		s0.22-0.146,0.354-0.146s0.259,0.052,0.354,0.146l4.95,4.95c0.094,0.094,0.146,0.22,0.146,0.354s-0.052,0.259-0.146,0.354
		S11.81,18.388,11.677,18.388z"/>
</g>
</svg>
