<?xml version="1.0" encoding="utf-8"?>
<!-- Generator: Adobe Illustrator 22.1.0, SVG Export Plug-In . SVG Version: 6.00 Build 0)  -->
<svg version="1.1" id="Light" xmlns="http://www.w3.org/2000/svg" xmlns:xlink="http://www.w3.org/1999/xlink" x="0px" y="0px"
	 viewBox="0 0 24 24" style="enable-background:new 0 0 24 24;" xml:space="preserve">
<g>
	<title>gardening-scissors</title>
	<path d="M9.687,23.992c-0.134,0-0.259-0.052-0.354-0.146c-1.702-1.702,0.207-4.115,2.053-6.448
		c0.524-0.663,1.065-1.345,1.514-2.004l-2.899-2.898c-0.662,0.452-1.345,0.994-2.008,1.519c-1.679,1.33-3.414,2.705-4.896,2.705
		c-0.591,0-1.111-0.219-1.543-0.652c-0.195-0.195-0.195-0.512,0-0.707l6.55-6.551c1.089-1.17,2.58-1.849,4.193-1.906
		c0.069-0.002,0.137-0.004,0.205-0.004c0.317,0,0.642,0.026,0.968,0.079l6.822-6.819C20.3,0.15,20.31,0.142,20.32,0.134
		c0.009-0.007,0.018-0.014,0.027-0.02c0.022-0.017,0.047-0.033,0.074-0.047c0.014-0.008,0.029-0.016,0.042-0.021
		c0.012-0.005,0.027-0.009,0.042-0.012c0.029-0.009,0.062-0.015,0.096-0.018c0.008-0.001,0.043-0.003,0.044-0.003
		c0.056,0,0.105,0.007,0.151,0.022c0.049,0.015,0.094,0.038,0.139,0.07c0.01,0.007,0.03,0.024,0.038,0.031
		c0.022,0.018,0.044,0.042,0.064,0.067c0.01,0.011,0.019,0.022,0.026,0.032c0.696,1.058,1.154,2.226,1.361,3.473
		c0,0,0.01,0.033,0.011,0.042c0.689,3.488-0.895,6.992-3.948,8.772c0.014,0.211,0.018,0.399,0.011,0.581
		c-0.057,1.612-0.739,3.105-1.919,4.204l-6.538,6.539C9.946,23.94,9.821,23.992,9.687,23.992z M14.985,12.63
		c0.15,1.642-1.355,3.543-2.813,5.387c-1.454,1.837-2.832,3.58-2.412,4.696l6.125-6.125c0.995-0.927,1.566-2.175,1.614-3.52
		c0.019-0.546-0.049-1.082-0.203-1.6c-0.109,0.202-0.249,0.387-0.417,0.55c-0.424,0.41-0.982,0.635-1.571,0.635
		C15.2,12.652,15.092,12.645,14.985,12.63z M2.688,15.642c0.133,0.051,0.277,0.075,0.435,0.075c1.112,0,2.636-1.208,4.249-2.486
		c1.759-1.393,3.574-2.831,5.161-2.831c0.657,0,1.239,0.248,1.728,0.736l0.185,0.18c0.231,0.217,0.537,0.338,0.858,0.338
		c0.33,0,0.642-0.127,0.879-0.356c0.242-0.234,0.379-0.549,0.385-0.887c0.004-0.245-0.062-0.483-0.19-0.688
		c-0.079-0.099-0.15-0.186-0.227-0.269c-0.033-0.035-0.067-0.071-0.102-0.106c-0.032-0.032-0.067-0.066-0.103-0.099
		c-0.936-0.871-2.152-1.351-3.424-1.351c-0.062,0-0.125,0.001-0.188,0.004C10.988,7.95,9.742,8.519,8.825,9.504L2.688,15.642z
		 M13.444,14.522c0.685-1.239,0.717-2.071,0.112-2.676c-0.289-0.289-0.626-0.43-1.031-0.43c-0.454,0-0.996,0.176-1.651,0.537
		L13.444,14.522z M16.926,8.811c0.096,0.099,0.183,0.208,0.261,0.325c0.538,0.669,0.93,1.465,1.138,2.309
		c2.49-1.634,3.716-4.534,3.133-7.485l-0.007-0.022c-0.002-0.008-0.004-0.017-0.005-0.025c-0.054-0.327-0.127-0.649-0.219-0.963
		c-0.007,0.069-0.016,0.138-0.024,0.207l-0.02,0.151c-0.023,0.16-0.05,0.319-0.081,0.477c-0.447,1.915-1.824,4.271-4.269,4.935
		L16.926,8.811z M14.593,7.27c0.425,0.157,0.833,0.363,1.218,0.615c2.323-0.178,3.838-2.282,4.312-4.31
		c0.034-0.174,0.062-0.348,0.087-0.545l0.016-0.122c0.02-0.174,0.034-0.352,0.042-0.527l0.004-0.121
		c0.007-0.212,0.007-0.387,0-0.552c0,0-0.004-0.087-0.006-0.111L14.593,7.27z"/>
	<path d="M15.159,11.011c-0.199,0-0.387-0.077-0.528-0.218c0,0-0.022-0.023-0.025-0.026c-0.007-0.008-0.013-0.016-0.019-0.025
		c-0.25-0.278-0.239-0.728,0.04-1.009c0.002-0.002,0.004-0.004,0.005-0.005c0.141-0.139,0.327-0.216,0.525-0.216
		c0.196,0,0.38,0.074,0.52,0.208c0.001,0.001,0.009,0.008,0.012,0.011c0.287,0.286,0.292,0.757,0.011,1.049
		c-0.001,0.001-0.009,0.009-0.01,0.011C15.548,10.933,15.359,11.011,15.159,11.011z"/>
</g>
</svg>
