<?xml version="1.0" encoding="utf-8"?>
<!-- Generator: Adobe Illustrator 22.1.0, SVG Export Plug-In . SVG Version: 6.00 Build 0)  -->
<svg version="1.1" id="Light" xmlns="http://www.w3.org/2000/svg" xmlns:xlink="http://www.w3.org/1999/xlink" x="0px" y="0px"
	 viewBox="0 0 24 24" style="enable-background:new 0 0 24 24;" xml:space="preserve">
<g>
	<title>gardening-boots</title>
	<path d="M16.5,24.014c-0.552,0-1-0.448-1-1v-0.242l-2.237,0.958c-0.438,0.188-0.902,0.283-1.379,0.283H4.5
		c-0.827,0-1.5-0.673-1.5-1.5v-3.325c-0.001-1.211,0.864-2.246,2.055-2.461l3.689-0.413C9.468,16.205,10,15.582,10,14.835
		L9.557,1.589C9.55,1.426,9.571,1.261,9.619,1.101c0.189-0.63,0.78-1.07,1.438-1.07c0.145,0,0.29,0.021,0.429,0.063l3.109,0.929
		c0.14,0.042,0.284,0.063,0.429,0.063c0.134,0,0.267-0.018,0.396-0.053l3.686-1c0.097-0.026,0.212-0.055,0.342-0.055
		c0.024,0,0.049,0.001,0.074,0.003c0.001,0,0.002,0,0.003,0c0.377,0,0.752,0.156,1.035,0.438C20.844,0.701,21,1.078,21,1.478v21.036
		c0,0.827-0.673,1.5-1.5,1.5H16.5z M16,21.514c0.098,0,0.193,0.029,0.275,0.083c0.141,0.093,0.225,0.249,0.225,0.417v1h3
		c0.276,0,0.5-0.224,0.5-0.5v-1.999h-4.384c-0.342,0-0.672,0.068-0.985,0.202l-2.368,1.015c-0.439,0.188-0.903,0.283-1.379,0.283H4
		v0.499c0,0.276,0.224,0.5,0.5,0.5h7.384c0.34,0,0.672-0.068,0.985-0.202l2.935-1.257C15.865,21.527,15.931,21.514,16,21.514z
		 M10.884,21.015c0.34,0,0.672-0.068,0.985-0.202l2.368-1.015c0.437-0.188,0.9-0.282,1.377-0.282H20V1.479
		c0-0.275-0.224-0.499-0.5-0.499c-0.045,0-0.089,0.006-0.131,0.018l-3.686,1c-0.214,0.058-0.436,0.088-0.658,0.088
		c-0.242,0-0.483-0.035-0.716-0.105L11.2,1.052c-0.047-0.014-0.095-0.021-0.143-0.021c-0.22,0-0.417,0.147-0.48,0.357
		c-0.016,0.053-0.023,0.109-0.021,0.165L11,14.818c0,1.258-0.894,2.301-2.125,2.488l-3.676,0.411C4.511,17.842,4,18.462,4,19.189
		v1.826H10.884z"/>
	<path d="M15.5,9.808c-0.267,0-0.519-0.104-0.707-0.293L13.379,8.1c-0.189-0.189-0.292-0.44-0.292-0.707
		c0-0.267,0.104-0.519,0.292-0.707l1.414-1.414c0.181-0.182,0.439-0.286,0.707-0.286s0.526,0.104,0.707,0.286l1.414,1.414
		c0.189,0.189,0.293,0.44,0.293,0.707c0,0.267-0.104,0.518-0.293,0.707l-1.414,1.414C16.018,9.703,15.767,9.808,15.5,9.808z
		 M15.5,5.982c-0.002,0-0.003,0-0.004,0l-1.41,1.411L15.5,8.808l1.414-1.414L15.5,5.979V5.982z"/>
</g>
</svg>
