<?xml version="1.0" encoding="utf-8"?>
<!-- Generator: Adobe Illustrator 22.1.0, SVG Export Plug-In . SVG Version: 6.00 Build 0)  -->
<svg version="1.1" id="Light" xmlns="http://www.w3.org/2000/svg" xmlns:xlink="http://www.w3.org/1999/xlink" x="0px" y="0px"
	 viewBox="0 0 24 24" style="enable-background:new 0 0 24 24;" xml:space="preserve">
<g>
	<title>gardening-sprinkle-bottle-1</title>
	<path d="M9.75,24c-0.827,0-1.5-0.673-1.5-1.5v-10c0-1.738,1.3-3.216,3-3.461V8.441l-3.124-0.39c-0.503-0.063-0.88-0.493-0.876-1
		v-0.61C7.246,5.937,7.623,5.508,8.126,5.445l3.562-0.441C11.708,5.001,11.729,5,11.75,5h1.5V1H9.249c-0.276,0-0.5-0.224-0.5-0.5
		S8.973,0,9.249,0h6.501c0.276,0,0.5,0.224,0.5,0.5S16.026,1,15.75,1h-1.5v4h4.291c2.125,0,3.932,1.449,4.393,3.524l1.04,4.68
		c0.176,0.794-0.326,1.585-1.12,1.761C22.748,14.989,22.64,15,22.533,15c-0.686,0-1.292-0.486-1.441-1.156l-1.038-4.67
		C19.9,8.483,19.298,8,18.59,8h-2.34v1.039c1.7,0.245,3,1.723,3,3.461v10c0,0.827-0.673,1.5-1.5,1.5H9.75z M11.75,10
		c-1.379,0-2.5,1.121-2.5,2.5v10c0,0.276,0.224,0.5,0.5,0.5h8c0.276,0,0.5-0.224,0.5-0.5v-10c0-1.379-1.122-2.5-2.5-2.5H11.75z
		 M18.59,7c1.18,0,2.184,0.805,2.44,1.958l1.038,4.67c0.048,0.216,0.243,0.373,0.463,0.373c0.035,0,0.07-0.004,0.105-0.012
		c0.257-0.057,0.419-0.312,0.362-0.569l-1.04-4.68C21.599,7.127,20.194,6,18.541,6h-2.792c0.222,0.295,0.376,0.635,0.45,1H18.59z
		 M15.25,9V7.5c0-0.827-0.673-1.5-1.5-1.5s-1.5,0.673-1.5,1.5V9H15.25z M8.25,6.437l0,0.618l3.001,0.378
		c0.014-0.522,0.189-1.019,0.497-1.429L8.25,6.437z"/>
	<circle cx="3.741" cy="4.5" r="0.75"/>
	<circle cx="3.741" cy="7.5" r="0.75"/>
	<circle cx="1.241" cy="3" r="0.75"/>
	<circle cx="1.241" cy="6" r="0.75"/>
	<circle cx="1.241" cy="9" r="0.75"/>
</g>
</svg>
