<?xml version="1.0" encoding="utf-8"?>
<!-- Generator: Adobe Illustrator 22.1.0, SVG Export Plug-In . SVG Version: 6.00 Build 0)  -->
<svg version="1.1" id="Light" xmlns="http://www.w3.org/2000/svg" xmlns:xlink="http://www.w3.org/1999/xlink" x="0px" y="0px"
	 viewBox="0 0 24 24" style="enable-background:new 0 0 24 24;" xml:space="preserve">
<g>
	<title>gardening-seed-bag</title>
	<path d="M11.947,17.478c-0.419,0-0.797-0.264-0.94-0.656l-0.517-1.41l-1.407,0.517c-0.111,0.041-0.227,0.061-0.344,0.061
		c-0.418,0-0.796-0.264-0.94-0.657l-0.516-1.407c0,0-0.94,0.349-0.942,0.35c-0.111,0.04-0.226,0.061-0.342,0.061
		c-0.146,0-0.288-0.031-0.421-0.094c-0.241-0.112-0.425-0.312-0.517-0.562L2.82,7.577C2.535,6.8,2.935,5.937,3.711,5.652
		l12.627-4.634l1.092-0.668c0.237-0.145,0.507-0.221,0.781-0.221c0.118,0,0.237,0.014,0.353,0.042
		c0.389,0.094,0.719,0.333,0.928,0.675c0.052,0.084,0.095,0.174,0.129,0.267l3.983,10.852c0.138,0.376,0.121,0.784-0.047,1.147
		c-0.169,0.364-0.469,0.64-0.845,0.778c-0.092,0.034-0.187,0.058-0.284,0.073l-1.265,0.197l-8.873,3.256
		C12.179,17.457,12.064,17.478,11.947,17.478z M10.787,14.269c0.072,0,0.144,0.016,0.21,0.046c0.121,0.056,0.214,0.156,0.26,0.281
		l0.689,1.878l8.919-3.27c0.03-0.011,0.062-0.019,0.093-0.024l1.315-0.205c0.032-0.005,0.065-0.013,0.095-0.024
		c0.125-0.046,0.225-0.138,0.281-0.259c0.056-0.121,0.062-0.257,0.016-0.382L18.682,1.457c-0.011-0.031-0.026-0.061-0.043-0.089
		c-0.07-0.114-0.179-0.194-0.309-0.225c-0.039-0.009-0.079-0.014-0.118-0.014c-0.091,0-0.181,0.026-0.26,0.074l-1.134,0.694
		c-0.029,0.017-0.058,0.031-0.088,0.042L4.056,6.591C3.931,6.637,3.831,6.729,3.775,6.85S3.713,7.107,3.759,7.232l2.239,6.099
		l1.407-0.519c0.056-0.021,0.115-0.031,0.174-0.031c0.072,0,0.145,0.016,0.21,0.046c0.119,0.055,0.214,0.157,0.259,0.281
		l0.689,1.877l1.877-0.686C10.67,14.28,10.728,14.269,10.787,14.269z"/>
	<path d="M1.555,23.369c-0.199,0-0.386-0.077-0.528-0.218c-0.142-0.14-0.221-0.328-0.221-0.529c0-0.001,0-0.002,0-0.003
		c-0.001-0.199,0.076-0.388,0.217-0.53c0.141-0.142,0.329-0.221,0.529-0.221c0,0,0.003,0,0.004,0c0.414,0,0.75,0.336,0.75,0.75
		c0,0.408-0.329,0.742-0.735,0.75c-0.005,0-0.009,0-0.014,0H1.555z"/>
	<path d="M4.555,23.369c-0.199,0-0.386-0.077-0.528-0.218c-0.142-0.14-0.221-0.328-0.221-0.529c0-0.001,0-0.002,0-0.003
		c-0.001-0.199,0.076-0.388,0.217-0.53c0.141-0.142,0.329-0.221,0.529-0.221c0,0,0.003,0,0.004,0c0.414,0,0.75,0.336,0.75,0.75
		c0,0.408-0.329,0.742-0.735,0.75c-0.005,0-0.009,0-0.014,0H4.555z"/>
	<path d="M7.555,23.369c-0.199,0-0.386-0.077-0.528-0.218c-0.142-0.14-0.221-0.328-0.221-0.529c0-0.001,0-0.002,0-0.003
		c-0.001-0.199,0.076-0.388,0.217-0.53c0.141-0.142,0.329-0.221,0.529-0.221c0,0,0.003,0,0.004,0c0.414,0,0.75,0.336,0.75,0.75
		c0,0.408-0.329,0.742-0.735,0.75c-0.005,0-0.009,0-0.014,0H7.555z"/>
	<path d="M3.555,20.869c-0.199,0-0.386-0.077-0.528-0.218c-0.142-0.14-0.221-0.328-0.221-0.529c0-0.001,0-0.002,0-0.003
		c-0.001-0.199,0.076-0.388,0.217-0.53c0.141-0.142,0.329-0.221,0.529-0.221c0,0,0.003,0,0.004,0c0.414,0,0.75,0.336,0.75,0.75
		c0,0.408-0.329,0.742-0.735,0.75c-0.005,0-0.009,0-0.014,0H3.555z"/>
	<path d="M6.555,20.869c-0.199,0-0.386-0.077-0.528-0.218c-0.142-0.14-0.221-0.328-0.221-0.529c0-0.001,0-0.002,0-0.003
		c-0.001-0.199,0.076-0.388,0.217-0.53c0.141-0.142,0.329-0.221,0.529-0.221c0,0,0.003,0,0.004,0c0.414,0,0.75,0.336,0.75,0.75
		c0,0.408-0.329,0.742-0.735,0.75c-0.005,0-0.009,0-0.014,0H6.555z"/>
	<path d="M5.555,18.369c-0.199,0-0.386-0.077-0.528-0.218c-0.142-0.14-0.221-0.328-0.221-0.529c0-0.001,0-0.002,0-0.003
		c-0.001-0.199,0.076-0.388,0.217-0.53c0.141-0.142,0.329-0.221,0.529-0.221c0,0,0.003,0,0.004,0c0.414,0,0.75,0.336,0.75,0.75
		c0,0.408-0.329,0.742-0.735,0.75c-0.005,0-0.009,0-0.014,0H5.555z"/>
	<path d="M10.456,13.299c-0.04,0-0.08-0.005-0.119-0.014c-0.131-0.032-0.24-0.113-0.309-0.228c-0.069-0.115-0.089-0.249-0.057-0.378
		c0.153-0.615,0.388-1.209,0.7-1.768c-0.443-0.605-0.677-1.342-0.664-2.095c0.034-1.862,1.52-3.347,3.382-3.382
		c1.141-0.069,2.251-0.366,3.29-0.883c0.146-0.068,0.287-0.099,0.432-0.099c0.118,0,0.234,0.021,0.345,0.062
		c0.251,0.092,0.451,0.276,0.563,0.519c0.074,0.159,0.104,0.336,0.088,0.512c-0.168,2.037-0.963,6.781-4.709,6.781
		c-0.721-0.013-1.415-0.25-1.987-0.672c-0.205,0.409-0.362,0.833-0.469,1.266C10.885,13.143,10.686,13.299,10.456,13.299z
		 M11.93,10.79c0.421,0.337,0.938,0.526,1.477,0.536c2.906,0,3.558-4.103,3.703-5.867c-1.149,0.566-2.391,0.897-3.682,0.975
		c-1.338,0.025-2.397,1.08-2.422,2.401c-0.008,0.407,0.086,0.802,0.272,1.16c0.766-0.988,1.766-1.757,2.911-2.237
		c0.062-0.026,0.127-0.039,0.193-0.039c0.202,0,0.383,0.12,0.461,0.307C14.95,8.28,14.83,8.574,14.576,8.68
		C13.516,9.124,12.605,9.851,11.93,10.79z"/>
</g>
</svg>
