<?xml version="1.0" encoding="utf-8"?>
<!-- Generator: Adobe Illustrator 22.1.0, SVG Export Plug-In . SVG Version: 6.00 Build 0)  -->
<svg version="1.1" id="Light" xmlns="http://www.w3.org/2000/svg" xmlns:xlink="http://www.w3.org/1999/xlink" x="0px" y="0px"
	 viewBox="0 0 24 24" style="enable-background:new 0 0 24 24;" xml:space="preserve">
<g>
	<title>bear-paw</title>
	<path d="M8.802,17.04c-0.746,0-1.472-0.219-2.101-0.633c-0.38-0.25-0.71-0.564-0.981-0.933c-1.172-0.526-2.3-1.152-3.353-1.862
		c-0.025-0.017-0.048-0.035-0.07-0.057c-1.286-1.24-2.014-2.909-2.047-4.698C0.222,7.348,0.683,5.92,1.583,4.722V2.533
		C1.662,1.18,2.724,0.112,4.054,0.034c0,0,0,0,0.001,0c1.314,0,2.059,1.293,2.368,1.999h4.655c0.308-0.707,1.05-2,2.34-2
		c1.353,0.079,2.421,1.141,2.499,2.471l0.001,2.312c0.026,0.033,0.051,0.065,0.075,0.1c1.674,2.417,1.587,5.601-0.216,7.924
		c-0.018,0.023-0.038,0.044-0.059,0.063c-1.19,1.087-2.524,2.014-3.964,2.755c-0.554,0.667-1.323,1.128-2.172,1.303
		C9.325,17.013,9.062,17.04,8.802,17.04z M6.535,14.891c0.535,0.72,1.384,1.148,2.276,1.148c0.19,0,0.382-0.02,0.57-0.058
		c0.633-0.13,1.207-0.478,1.617-0.978c0.017-0.027,0.034-0.05,0.054-0.072c0.285-0.371,0.473-0.801,0.549-1.257
		c-1.226-0.106-2.23-0.554-2.792-1.24c-0.562,0.686-1.567,1.135-2.795,1.24c0.006,0.035,0.012,0.069,0.019,0.103
		c0.07,0.341,0.203,0.664,0.394,0.96C6.473,14.781,6.51,14.834,6.535,14.891z M8.808,6.031c0.283,0,0.563,0.048,0.833,0.144
		c0.717,0.253,1.273,0.809,1.526,1.526l1.387,4.691c0.003,0.009,0.01,0.039,0.011,0.049c0.11,0.536,0.103,1.085-0.02,1.616
		c0.88-0.549,1.707-1.174,2.467-1.864c1.509-1.972,1.573-4.664,0.158-6.707c-0.376-0.541-0.841-1.011-1.379-1.396
		c-0.109-0.078-0.181-0.193-0.203-0.325c-0.022-0.132,0.009-0.264,0.086-0.373c0.093-0.131,0.246-0.209,0.407-0.209
		c0.105,0,0.205,0.032,0.29,0.093c0.186,0.133,0.368,0.279,0.545,0.437v-1.18c-0.048-0.801-0.706-1.452-1.529-1.501
		c-0.763,0.001-1.34,1.198-1.496,1.66c-0.068,0.204-0.259,0.341-0.474,0.341H6.083c-0.215,0-0.406-0.137-0.474-0.341
		C5.452,2.23,4.873,1.033,4.083,1.033c-0.801,0.048-1.452,0.706-1.501,1.53l0.001,1.091C2.76,3.5,2.944,3.357,3.133,3.227
		c0.083-0.058,0.182-0.089,0.284-0.089c0.164,0,0.318,0.081,0.411,0.216c0.076,0.109,0.105,0.242,0.081,0.374
		C3.886,3.858,3.812,3.972,3.702,4.049C3.394,4.262,3.105,4.508,2.845,4.778C1.788,5.874,1.222,7.316,1.25,8.838
		c0.028,1.507,0.636,2.916,1.713,3.969c0.665,0.446,1.371,0.862,2.106,1.241c-0.005-0.024-0.01-0.047-0.015-0.071
		c-0.106-0.513-0.106-1.033,0-1.546l1.39-4.707c0.229-0.65,0.684-1.16,1.287-1.448C8.072,6.114,8.434,6.031,8.808,6.031z
		 M6.027,12.662c0.701-0.086,2.283-0.416,2.283-1.639c0-0.276,0.224-0.5,0.5-0.5s0.5,0.224,0.5,0.5c0,1.222,1.58,1.553,2.281,1.639
		c-0.001-0.006-0.002-0.012-0.004-0.019l-1.013-3.425c-0.551,0.225-1.117,0.385-1.686,0.474C8.862,9.695,8.836,9.697,8.809,9.697
		c-0.026,0-0.052-0.002-0.079-0.006C8.163,9.602,7.596,9.444,7.045,9.219L6.027,12.662z M7.329,8.255
		c0.483,0.205,0.979,0.351,1.48,0.436c0.5-0.085,0.997-0.232,1.479-0.437l-0.073-0.245c-0.145-0.41-0.477-0.739-0.907-0.891
		c-0.162-0.057-0.331-0.086-0.5-0.086c-0.224,0-0.441,0.05-0.646,0.148C7.801,7.352,7.528,7.655,7.395,8.033L7.329,8.255z"/>
	<path d="M12.492,6.54c-0.413,0-0.75-0.336-0.75-0.75s0.336-0.75,0.75-0.75c0.414,0,0.75,0.336,0.75,0.75S12.906,6.54,12.492,6.54z"
		/>
	<path d="M5.001,6.533c-0.201,0-0.388-0.077-0.529-0.217C4.33,6.174,4.251,5.987,4.25,5.786c0-0.001,0-0.003,0-0.004
		c0-0.019,0.002-0.038,0.004-0.057C4.256,5.712,4.257,5.698,4.26,5.684C4.295,5.323,4.615,5.033,5,5.033
		c0.409,0,0.744,0.331,0.75,0.739c0,0.003,0,0.016,0,0.019c-0.004,0.408-0.337,0.74-0.746,0.742
		C5.004,6.533,5.002,6.533,5.001,6.533z"/>
	<path d="M16.351,23.956c-0.423,0-0.826-0.178-1.106-0.489c-0.627-0.648-0.982-1.512-0.995-2.428c0-2.211,2.131-4.007,4.75-4.007
		c1.408,0,2.734,0.519,3.638,1.424c0.717,0.718,1.11,1.632,1.109,2.574c-0.005,0.753-0.257,1.496-0.71,2.095
		c-0.27,0.382-0.722,0.613-1.205,0.613l0,0c-0.268,0-0.53-0.072-0.758-0.208c-0.532-0.329-1.134-0.501-1.743-0.501l-0.074,0.001
		l-0.1-0.001c-0.685,0-1.365,0.223-1.913,0.628C16.994,23.849,16.676,23.956,16.351,23.956z M19,18.032c-2.068,0-3.75,1.346-3.75,3
		c0.009,0.655,0.267,1.278,0.725,1.752c0.101,0.111,0.235,0.171,0.375,0.171c0.107,0,0.208-0.034,0.292-0.098
		c0.725-0.536,1.623-0.829,2.531-0.829l0.131,0c0.813,0,1.604,0.223,2.288,0.646c0.069,0.041,0.153,0.064,0.239,0.064
		c0.159,0,0.308-0.076,0.399-0.204c0.331-0.439,0.513-0.972,0.517-1.509c0.001-0.672-0.289-1.334-0.817-1.863
		C21.213,18.445,20.145,18.032,19,18.032z"/>
	<path d="M14.751,17.532c-0.19,0-0.362-0.106-0.447-0.276l-0.5-1c-0.06-0.119-0.069-0.255-0.027-0.382s0.131-0.229,0.251-0.289
		c0.07-0.035,0.147-0.053,0.223-0.053c0.19,0,0.362,0.106,0.447,0.276l0.5,1c0.06,0.119,0.069,0.255,0.027,0.382
		s-0.131,0.229-0.251,0.289C14.904,17.514,14.827,17.532,14.751,17.532z"/>
	<path d="M17.751,16.532c-0.19,0-0.362-0.106-0.447-0.276l-0.5-1c-0.06-0.119-0.069-0.255-0.027-0.382s0.131-0.229,0.251-0.289
		c0.07-0.035,0.147-0.053,0.223-0.053c0.19,0,0.362,0.106,0.447,0.276l0.5,1c0.06,0.119,0.069,0.255,0.027,0.382
		s-0.131,0.229-0.251,0.289C17.904,16.514,17.827,16.532,17.751,16.532z"/>
	<path d="M20.25,16.532c-0.077,0-0.154-0.018-0.223-0.052c-0.12-0.06-0.209-0.163-0.251-0.289s-0.033-0.262,0.027-0.382l0.5-1
		c0.086-0.17,0.257-0.276,0.448-0.276c0.077,0,0.154,0.018,0.223,0.052c0.12,0.06,0.209,0.163,0.251,0.289s0.033,0.262-0.027,0.382
		l-0.5,1C20.612,16.427,20.44,16.532,20.25,16.532z"/>
	<path d="M22.75,17.532c-0.077,0-0.154-0.018-0.223-0.052c-0.12-0.06-0.209-0.163-0.251-0.289s-0.033-0.262,0.027-0.382l0.5-1
		c0.085-0.17,0.257-0.276,0.448-0.276c0.077,0,0.154,0.018,0.223,0.052c0.12,0.06,0.209,0.163,0.251,0.289s0.033,0.262-0.027,0.382
		l-0.5,1C23.112,17.427,22.94,17.532,22.75,17.532z"/>
</g>
</svg>
