<?xml version="1.0" encoding="utf-8"?>
<!-- Generator: Adobe Illustrator 22.1.0, SVG Export Plug-In . SVG Version: 6.00 Build 0)  -->
<svg version="1.1" id="Light" xmlns="http://www.w3.org/2000/svg" xmlns:xlink="http://www.w3.org/1999/xlink" x="0px" y="0px"
	 viewBox="0 0 24 24" style="enable-background:new 0 0 24 24;" xml:space="preserve">
<g>
	<title>bear-body</title>
	<path d="M19.6,12c-0.414,0-0.75-0.336-0.75-0.75c0-0.018,0.004-0.045,0.008-0.067c0.026-0.377,0.352-0.683,0.745-0.683
		c0.388,0.005,0.707,0.302,0.742,0.682c0.004,0.016,0.008,0.04,0.008,0.068c0,0.414-0.336,0.75-0.75,0.75
		C19.603,12,19.601,12,19.6,12z"/>
	<path d="M16.703,20c-0.617,0-1.164-0.37-1.393-0.942L13.688,15h-0.252l-0.68,3.398c-0.055,0.271,0.12,0.537,0.39,0.592
		c0.033,0.007,0.067,0.01,0.1,0.01h0.781c0.276,0,0.5,0.224,0.5,0.5s-0.224,0.5-0.5,0.5h-0.781c-0.1,0-0.201-0.01-0.3-0.031
		c-0.81-0.166-1.335-0.959-1.17-1.77l0.641-3.2h-2.53l-0.715,2.146l0.718,0.18c0.669,0.167,1.137,0.765,1.137,1.455V19.5
		c0,0.276-0.224,0.5-0.5,0.5h-4c-0.14,0-0.275-0.06-0.37-0.163c-0.052-0.058-1.295-1.431-2.558-3.515
		c-0.76-1.255-1.362-2.501-1.793-3.714c-0.584,1.936-0.745,3.992-0.466,5.991C1.38,18.828,1.586,19,1.831,19h1.69
		c0.276,0,0.5,0.224,0.5,0.5S3.797,20,3.521,20h-1.69c-0.734,0-1.355-0.525-1.479-1.248c-0.369-2.639-0.032-5.325,0.973-7.781
		C1.127,10.108,1.026,9.277,1.026,8.5c-0.001-0.035-0.001-0.078,0-0.121c0.017-1.186,0.495-2.296,1.347-3.123
		C3.207,4.446,4.306,4,5.468,4l0.063,0c6.706,0,10.596,1.21,12.678,2.226c2.274,1.109,3.652,2.566,3.804,4.013
		c0.181,0.134,0.344,0.253,0.492,0.36l0.039,0.028c0.793,0.576,1.191,0.865,1.252,1.341c0.058,0.449-0.222,0.791-0.685,1.357
		c-0.098,0.119-0.192,0.234-0.294,0.362c-0.102,0.127-0.187,0.243-0.264,0.349C22.173,14.553,21.845,15,20.85,15h-2.234l0.349,2.095
		l0.924,0.231c0.669,0.167,1.136,0.765,1.136,1.455V19.5c0,0.276-0.224,0.5-0.5,0.5H16.703z M14.026,14
		c0.206,0,0.388,0.123,0.464,0.314l1.748,4.372C16.315,18.877,16.497,19,16.702,19h3.324v-0.219c0-0.23-0.156-0.429-0.379-0.485
		l-1.243-0.311c-0.193-0.048-0.339-0.207-0.372-0.403l-0.5-3c-0.024-0.145,0.016-0.293,0.112-0.405
		C17.739,14.065,17.878,14,18.026,14h2.824c0.488,0,0.566-0.107,0.896-0.556c0.086-0.117,0.18-0.245,0.291-0.383
		c0.103-0.128,0.198-0.245,0.284-0.35l0.016-0.02c0.177-0.216,0.392-0.478,0.453-0.598c-0.107-0.13-0.491-0.409-0.834-0.658
		c-0.209-0.152-0.452-0.328-0.729-0.536c-0.125-0.094-0.2-0.243-0.2-0.4c0-0.825-0.854-2.204-3.256-3.376
		C15.784,6.155,12.046,5,5.526,5c0,0-0.044,0-0.044,0C3.597,5,2.053,6.523,2.026,8.394c-0.001,0.033-0.001,0.065,0,0.097
		c0,4.743,3.982,9.635,4.727,10.509h3.273v-0.219c0-0.23-0.156-0.429-0.379-0.485l-1.242-0.311c-0.135-0.033-0.25-0.123-0.317-0.244
		c-0.067-0.121-0.08-0.267-0.036-0.398l1-3C9.12,14.138,9.311,14,9.526,14H14.026z"/>
</g>
</svg>
