<?xml version="1.0" encoding="utf-8"?>
<!-- Generator: Adobe Illustrator 22.1.0, SVG Export Plug-In . SVG Version: 6.00 Build 0)  -->
<svg version="1.1" id="Light" xmlns="http://www.w3.org/2000/svg" xmlns:xlink="http://www.w3.org/1999/xlink" x="0px" y="0px"
	 viewBox="0 0 24 24" style="enable-background:new 0 0 24 24;" xml:space="preserve">
<g>
	<title>video-game-wii-rating</title>
	<path d="M9.405,9.002c-0.363,0-0.703-0.194-0.885-0.507C8.359,8.218,8.336,7.877,8.46,7.582l0.827-1.9l-1.49-1.468
		C7.618,4.06,7.5,3.817,7.482,3.557C7.464,3.293,7.549,3.039,7.723,2.839c0.188-0.215,0.46-0.339,0.747-0.339l0.042,0.001l1.66,0
		l0.895-1.924c0.185-0.359,0.539-0.575,0.928-0.575c0.163,0,0.326,0.04,0.471,0.115c0.19,0.099,0.343,0.251,0.442,0.442l0.902,1.943
		l1.707,0c0.245,0,0.481,0.093,0.664,0.263c0.195,0.179,0.307,0.424,0.318,0.688c0.012,0.296-0.108,0.58-0.33,0.778l-1.475,1.453
		l0.825,1.894c0.22,0.525-0.025,1.127-0.545,1.345c-0.125,0.053-0.258,0.079-0.395,0.079c-0.182,0-0.361-0.048-0.517-0.139
		l-2.071-1.165L9.912,8.866C9.761,8.954,9.585,9.002,9.405,9.002z M11.991,6.623c0.086,0,0.17,0.022,0.245,0.064l2.323,1.307
		l0.124,0.236l-0.097-0.23c0.011-0.005,0.017-0.019,0.012-0.031l-0.959-2.202c-0.082-0.189-0.039-0.412,0.108-0.556l1.737-1.71
		L13.49,3.501c-0.194,0-0.372-0.114-0.454-0.289l-1.025-2.208C12.006,1.003,12,1.003,11.995,1.003c-0.014,0-0.025,0.004-0.031,0.015
		l-1.02,2.194c-0.082,0.176-0.26,0.289-0.453,0.289l-2.02,0l1.763,1.709c0.146,0.144,0.19,0.367,0.108,0.556L9.379,7.975
		l0.024,0.026l2.342-1.314C11.821,6.645,11.905,6.623,11.991,6.623z"/>
	<path d="M1.919,13c-0.363,0-0.703-0.195-0.885-0.508c-0.161-0.276-0.183-0.616-0.06-0.911l0.828-1.9L0.31,8.212
		C0.126,8.05,0.011,7.811-0.003,7.548C-0.018,7.285,0.07,7.031,0.244,6.835C0.432,6.622,0.698,6.5,0.974,6.5
		c0.018,0,0.036,0,0.054,0.001l1.657-0.001l0.896-1.926C3.766,4.216,4.12,4,4.508,4c0.163,0,0.326,0.04,0.471,0.115
		c0.19,0.099,0.343,0.251,0.441,0.441l0.902,1.945h0.675c0.276,0,0.5,0.224,0.5,0.5s-0.224,0.5-0.5,0.5H6.004
		c-0.194,0-0.372-0.114-0.454-0.29L4.523,4.996L4.42,4.762l0.076,0.238L3.457,7.212c-0.082,0.176-0.26,0.289-0.453,0.289h-2
		l1.745,1.708c0.147,0.144,0.19,0.368,0.108,0.556l-0.963,2.209l0.025,0.026l2.342-1.314c0.075-0.042,0.16-0.064,0.245-0.064
		s0.17,0.022,0.245,0.064l2.325,1.307c0.001,0,0.027,0.005,0.027,0.005c0.01-0.004,0.017-0.02,0.013-0.03l-0.96-2.203
		C6.073,9.576,6.117,9.352,6.264,9.208l0.584-0.574c0.094-0.092,0.218-0.143,0.35-0.143c0.135,0,0.262,0.053,0.357,0.15
		c0.094,0.095,0.145,0.221,0.143,0.355s-0.054,0.259-0.15,0.352L7.21,9.68l0.825,1.894c0.108,0.257,0.11,0.536,0.006,0.789
		c-0.103,0.253-0.299,0.45-0.551,0.556c-0.125,0.053-0.258,0.079-0.395,0.079c-0.182,0-0.36-0.048-0.516-0.139l-2.073-1.165
		l-2.079,1.169C2.275,12.952,2.098,13,1.919,13z"/>
	<path d="M22.077,12.999c-0.18,0-0.358-0.048-0.514-0.139l-2.072-1.165l-2.08,1.169c-0.151,0.088-0.328,0.135-0.509,0.135
		c-0.137,0-0.271-0.027-0.396-0.079c-0.52-0.219-0.765-0.819-0.547-1.339l0.827-1.9l-0.339-0.333
		c-0.095-0.094-0.148-0.219-0.149-0.352s0.05-0.26,0.144-0.355c0.094-0.096,0.221-0.149,0.356-0.149c0.132,0,0.256,0.051,0.35,0.143
		l0.584,0.574c0.146,0.144,0.19,0.368,0.108,0.556l-0.962,2.209c-0.002,0.004,0.002,0.019,0.015,0.024l2.352-1.312
		c0.075-0.042,0.16-0.064,0.245-0.064s0.17,0.022,0.245,0.064l2.324,1.307c0,0,0.038-0.004,0.039-0.005l-0.959-2.223
		c-0.082-0.189-0.039-0.413,0.108-0.557L22.982,7.5l-1.99,0.001c-0.194,0-0.372-0.113-0.453-0.289l-1.03-2.215
		c0,0-0.032,0.006-0.032,0.006l-1.031,2.209c-0.082,0.176-0.26,0.29-0.454,0.29h-0.994c-0.276,0-0.5-0.224-0.5-0.5
		s0.224-0.5,0.5-0.5h0.675l0.893-1.926c0.106-0.206,0.26-0.362,0.451-0.461c0.146-0.076,0.309-0.116,0.473-0.116
		c0.106,0,0.211,0.016,0.313,0.049c0.263,0.083,0.477,0.264,0.604,0.509l0.905,1.945L23.02,6.5c0.276,0,0.543,0.122,0.73,0.334
		c0.362,0.409,0.323,1.035-0.085,1.396l-1.471,1.45l0.826,1.894c0.126,0.301,0.104,0.643-0.058,0.918
		C22.78,12.805,22.441,12.999,22.077,12.999z"/>
	<path d="M5.498,21.501c-0.276,0-0.5-0.224-0.5-0.5v-1.5h-1.5c-0.276,0-0.5-0.224-0.5-0.5s0.224-0.5,0.5-0.5h1.5v-1.5
		c0-0.276,0.224-0.5,0.5-0.5s0.5,0.224,0.5,0.5v1.5h1.5c0.276,0,0.5,0.224,0.5,0.5s-0.224,0.5-0.5,0.5h-1.5v1.5
		C5.998,21.277,5.774,21.501,5.498,21.501z"/>
	<circle cx="17.748" cy="17.001" r="0.75"/>
	<circle cx="15.748" cy="19.001" r="0.75"/>
	<circle cx="17.748" cy="21.001" r="0.75"/>
	<circle cx="19.748" cy="19.001" r="0.75"/>
	<path d="M2.498,24.001c-0.827,0-1.5-0.673-1.5-1.5v-7c0-0.827,0.673-1.5,1.5-1.5h19c0.827,0,1.5,0.673,1.5,1.5v7
		c0,0.827-0.673,1.5-1.5,1.5H2.498z M2.498,15.001c-0.276,0-0.5,0.224-0.5,0.5v7c0,0.276,0.224,0.5,0.5,0.5h19
		c0.276,0,0.5-0.224,0.5-0.5v-7c0-0.276-0.224-0.5-0.5-0.5H2.498z"/>
</g>
</svg>
