<?xml version="1.0" encoding="utf-8"?>
<!-- Generator: Adobe Illustrator 22.1.0, SVG Export Plug-In . SVG Version: 6.00 Build 0)  -->
<svg version="1.1" id="Light" xmlns="http://www.w3.org/2000/svg" xmlns:xlink="http://www.w3.org/1999/xlink" x="0px" y="0px"
	 viewBox="0 0 24 24" style="enable-background:new 0 0 24 24;" xml:space="preserve">
<g>
	<title>video-game-tetris</title>
	<circle cx="17.5" cy="18.5" r="0.75"/>
	<circle cx="14.5" cy="20.5" r="0.75"/>
	<path d="M4.5,24C3.121,24,2,22.878,2,21.5v-19C2,1.121,3.121,0,4.5,0h15C20.878,0,22,1.121,22,2.5v19c0,1.378-1.122,2.5-2.5,2.5
		H4.5z M4.5,1C3.673,1,3,1.673,3,2.5v19C3,22.327,3.673,23,4.5,23h15c0.827,0,1.5-0.673,1.5-1.5v-19C21,1.673,20.327,1,19.5,1H4.5z"
		/>
	<path d="M6,16c-0.551,0-1-0.448-1-1V4c0-0.551,0.449-1,1-1h12c0.552,0,1,0.449,1,1v11c0,0.552-0.448,1-1,1H6z M18,15V4H6v11h3v-3
		c0-0.551,0.449-1,1-1h5V7h-3c-0.276,0-0.5-0.224-0.5-0.5S11.724,6,12,6h3c0.552,0,1,0.449,1,1v4c0,0.551-0.448,1-1,1h-5L18,15z"/>
	<path d="M7.5,21.984c-0.276,0-0.5-0.224-0.5-0.5V20H5.5C5.224,20,5,19.776,5,19.5S5.224,19,5.5,19H7v-1.484
		c0-0.276,0.224-0.5,0.5-0.5S8,17.24,8,17.516V19h1.5c0.276,0,0.5,0.224,0.5,0.5S9.776,20,9.5,20H8v1.484
		C8,21.76,7.776,21.984,7.5,21.984z"/>
	<circle cx="9.5" cy="6.5" r="0.75"/>
</g>
</svg>
