<?xml version="1.0" encoding="utf-8"?>
<!-- Generator: Adobe Illustrator 22.1.0, SVG Export Plug-In . SVG Version: 6.00 Build 0)  -->
<svg version="1.1" id="Light" xmlns="http://www.w3.org/2000/svg" xmlns:xlink="http://www.w3.org/1999/xlink" x="0px" y="0px"
	 viewBox="0 0 24 24" style="enable-background:new 0 0 24 24;" xml:space="preserve">
<g>
	<title>video-game-monitor</title>
	<path d="M7.5,23.5C7.224,23.5,7,23.276,7,23s0.224-0.5,0.5-0.5h4v-2h-10C0.673,20.5,0,19.827,0,19V2c0-0.827,0.673-1.5,1.5-1.5h21
		C23.327,0.5,24,1.173,24,2v17c0,0.827-0.673,1.5-1.5,1.5h-10v2h4c0.276,0,0.5,0.224,0.5,0.5s-0.224,0.5-0.5,0.5H7.5z M1,19
		c0,0.276,0.224,0.5,0.5,0.5h21c0.276,0,0.5-0.224,0.5-0.5v-2.5H1V19z M23,15.5V2c0-0.276-0.224-0.5-0.5-0.5h-21
		C1.224,1.5,1,1.724,1,2v13.5H23z"/>
	<circle cx="12" cy="18" r="0.75"/>
	<circle cx="9" cy="7" r="0.75"/>
	<circle cx="14.5" cy="8.5" r="0.75"/>
	<circle cx="17.5" cy="8.5" r="0.75"/>
	<path d="M10.501,13.5c-1.104,0-2.193-0.373-3.066-1.051c-1.053-0.818-1.726-1.998-1.893-3.325C5.375,7.799,5.733,6.488,6.551,5.434
		c0.953-1.228,2.395-1.932,3.955-1.932c1.119,0,2.177,0.362,3.06,1.048c0.035,0.028,0.066,0.055,0.095,0.085
		c0.188,0.189,0.292,0.44,0.291,0.707s-0.105,0.518-0.294,0.706L11.207,8.5l2.452,2.453c0.028,0.028,0.057,0.06,0.084,0.095
		c0.337,0.434,0.259,1.064-0.177,1.402C12.694,13.127,11.605,13.5,10.501,13.5z M10.51,4.499c-0.168,0-0.34,0.011-0.509,0.032
		c-1.06,0.134-2.004,0.672-2.659,1.516C6.687,6.89,6.401,7.939,6.534,9c0.134,1.061,0.672,2.006,1.514,2.66
		c0.698,0.542,1.569,0.841,2.452,0.841s1.754-0.299,2.452-0.841l-2.807-2.807C10.052,8.759,10,8.634,10,8.5s0.052-0.259,0.146-0.354
		l2.806-2.806C12.244,4.79,11.4,4.499,10.51,4.499z"/>
</g>
</svg>
