<?xml version="1.0" encoding="utf-8"?>
<!-- Generator: Adobe Illustrator 22.1.0, SVG Export Plug-In . SVG Version: 6.00 Build 0)  -->
<svg version="1.1" id="Light" xmlns="http://www.w3.org/2000/svg" xmlns:xlink="http://www.w3.org/1999/xlink" x="0px" y="0px"
	 viewBox="0 0 24 24" style="enable-background:new 0 0 24 24;" xml:space="preserve">
<g>
	<title>video-game-smartphone-portrait</title>
	<path d="M7,22.25c-0.414,0-0.75-0.336-0.75-0.75c0-0.396,0.31-0.723,0.706-0.747C6.97,20.751,6.985,20.75,7,20.75
		c0.022,0,0.043,0.002,0.065,0.005c0.003,0,0.007,0.001,0.01,0.001v0C7.46,20.795,7.75,21.115,7.75,21.5
		C7.75,21.914,7.414,22.25,7,22.25z"/>
	<path d="M2.5,24C1.121,24,0,22.878,0,21.5v-19C0,1.121,1.121,0,2.5,0h9C12.878,0,14,1.121,14,2.5v0.977c0,0.276-0.224,0.5-0.5,0.5
		S13,3.753,13,3.477V2.5C13,1.673,12.327,1,11.5,1h-9C1.673,1,1,1.673,1,2.5V19h12v-0.459c0-0.276,0.224-0.5,0.5-0.5
		s0.5,0.224,0.5,0.5V21.5c0,1.378-1.122,2.5-2.5,2.5H2.5z M1,21.5C1,22.327,1.673,23,2.5,23h9c0.827,0,1.5-0.673,1.5-1.5V20H1V21.5z
		"/>
	<path d="M6.5,17C5.673,17,5,16.327,5,15.5v-9C5,5.673,5.673,5,6.5,5h16C23.327,5,24,5.673,24,6.5v9c0,0.827-0.673,1.5-1.5,1.5H6.5z
		 M6.5,6C6.224,6,6,6.224,6,6.5v9C6,15.776,6.224,16,6.5,16h16c0.276,0,0.5-0.224,0.5-0.5v-9C23,6.224,22.776,6,22.5,6H6.5z"/>
	<path d="M11.001,14.999c-0.836,0-1.637-0.255-2.317-0.739c-0.871-0.619-1.449-1.54-1.627-2.594
		C6.878,10.614,7.121,9.554,7.74,8.683c0.748-1.053,1.969-1.682,3.266-1.682c0.833,0,1.632,0.255,2.312,0.738
		c0.047,0.034,0.09,0.07,0.13,0.11c0.188,0.189,0.292,0.441,0.291,0.708c0,0.267-0.105,0.517-0.294,0.706L11.707,11l1.738,1.738
		c0.04,0.04,0.075,0.082,0.108,0.127c0.156,0.219,0.216,0.484,0.172,0.747c-0.045,0.264-0.189,0.494-0.407,0.649
		C12.638,14.744,11.837,14.999,11.001,14.999C11.001,14.999,11.001,14.999,11.001,14.999z M11.005,8.001
		c-0.973,0-1.889,0.471-2.45,1.261C8.091,9.915,7.909,10.71,8.042,11.5c0.134,0.79,0.567,1.481,1.22,1.945
		c0.51,0.363,1.111,0.554,1.738,0.554c0.627,0,1.228-0.191,1.738-0.554l-2.092-2.092C10.552,11.259,10.5,11.134,10.5,11
		s0.052-0.259,0.146-0.354l2.091-2.091C12.229,8.192,11.63,8.001,11.005,8.001z"/>
	<circle cx="16" cy="11" r="0.75"/>
	<circle cx="19.5" cy="11" r="0.75"/>
</g>
</svg>
