<?xml version="1.0" encoding="utf-8"?>
<!-- Generator: Adobe Illustrator 22.1.0, SVG Export Plug-In . SVG Version: 6.00 Build 0)  -->
<svg version="1.1" id="Light" xmlns="http://www.w3.org/2000/svg" xmlns:xlink="http://www.w3.org/1999/xlink" x="0px" y="0px"
	 viewBox="0 0 24 24" style="enable-background:new 0 0 24 24;" xml:space="preserve">
<g>
	<title>video-game-nintendo-1</title>
	<path d="M1.5,24C0.673,24,0,23.327,0,22.5v-21C0,0.673,0.673,0,1.5,0h21C23.327,0,24,0.673,24,1.5v21c0,0.827-0.673,1.5-1.5,1.5
		H1.5z M1,22.5C1,22.776,1.224,23,1.5,23h21c0.276,0,0.5-0.224,0.5-0.5v-10H1V22.5z M23,11.5v-10C23,1.224,22.776,1,22.5,1h-21
		C1.224,1,1,1.224,1,1.5v10H23z"/>
	<path d="M8,22c-0.551,0-1-0.448-1-1v-6.5c0-0.552,0.449-1,1-1h8c0.552,0,1,0.448,1,1V21c0,0.552-0.448,1-1,1H8z M8,21h8v-6.5l-8,0
		L8,21z"/>
	<path d="M6,10.5c-0.551,0-1-0.449-1-1V3c0-0.551,0.449-1,1-1h12c0.552,0,1,0.449,1,1v6.5c0,0.551-0.448,1-1,1H6z M6,9.5h12V3L6,3
		L6,9.5z"/>
	<circle cx="20" cy="16" r="0.75"/>
	<circle cx="20" cy="19" r="0.75"/>
	<circle cx="18.5" cy="17.5" r="0.75"/>
	<circle cx="21.5" cy="17.5" r="0.75"/>
	<path d="M4,19.5c-0.276,0-0.5-0.224-0.5-0.5v-1h-1C2.224,18,2,17.776,2,17.5S2.224,17,2.5,17h1v-1c0-0.276,0.224-0.5,0.5-0.5
		s0.5,0.224,0.5,0.5v1h1C5.776,17,6,17.224,6,17.5S5.776,18,5.5,18h-1v1C4.5,19.276,4.276,19.5,4,19.5z"/>
</g>
</svg>
