<?xml version="1.0" encoding="utf-8"?>
<!-- Generator: Adobe Illustrator 22.1.0, SVG Export Plug-In . SVG Version: 6.00 Build 0)  -->
<svg version="1.1" id="Light" xmlns="http://www.w3.org/2000/svg" xmlns:xlink="http://www.w3.org/1999/xlink" x="0px" y="0px"
	 viewBox="0 0 24 24" style="enable-background:new 0 0 24 24;" xml:space="preserve">
<g>
	<title>insect-centipede-1</title>
	<path d="M16.164,21.518c-1.378,0-2.5-1.122-2.5-2.5s1.122-2.5,2.5-2.5s2.5,1.122,2.5,2.5S17.542,21.518,16.164,21.518z
		 M16.164,17.518c-0.827,0-1.5,0.673-1.5,1.5s0.673,1.5,1.5,1.5s1.5-0.673,1.5-1.5S16.991,17.518,16.164,17.518z"/>
	<path d="M16.164,23.5c-0.958,0-1.884-0.271-2.688-0.786c-0.704,0.309-1.447,0.466-2.209,0.466c-0.968,0-1.925-0.258-2.767-0.747
		c-0.238-0.138-0.32-0.445-0.182-0.684C8.407,21.595,8.573,21.5,8.751,21.5c0.088,0,0.174,0.023,0.25,0.067
		c0.689,0.399,1.471,0.611,2.263,0.611c0.449,0,0.891-0.066,1.319-0.198c-0.406-0.418-0.739-0.905-0.977-1.431
		c-0.035,0.001-0.071,0.003-0.106,0.003c-1.694,0-3.253-0.853-4.171-2.282c-0.149-0.232-0.081-0.542,0.151-0.691
		c0.081-0.052,0.174-0.08,0.27-0.08c0.171,0,0.329,0.086,0.421,0.23c0.692,1.077,1.841,1.745,3.106,1.816
		c-0.076-0.348-0.114-0.699-0.114-1.046v-1.422c-0.082,0.002-0.166,0.003-0.253,0.003c-1.271,0-2.999-0.213-4.013-1.227
		c-0.195-0.195-0.195-0.512,0-0.707C6.992,15.052,7.117,15,7.251,15s0.259,0.052,0.354,0.146c0.812,0.812,2.434,0.933,3.328,0.933
		c0.08,0,0.157-0.001,0.231-0.002V16c0-1.202-0.623-2.319-1.637-2.96c-0.789,0.767-1.854,1.203-2.952,1.203
		c-0.515,0-1.02-0.093-1.501-0.276c-0.257-0.098-0.388-0.387-0.29-0.645C4.857,13.129,5.044,13,5.25,13
		c0.061,0,0.121,0.011,0.178,0.033c0.367,0.139,0.752,0.21,1.144,0.21c0.704,0,1.376-0.224,1.932-0.638
		C8.228,12.535,7.947,12.5,7.664,12.5c-0.863,0-1.696-0.245-2.421-0.71c-0.633,0.319-1.33,0.487-2.027,0.487
		c-0.562,0-1.115-0.105-1.645-0.311c-0.125-0.048-0.223-0.142-0.276-0.265c-0.054-0.122-0.057-0.258-0.008-0.383
		C1.36,11.125,1.543,11,1.75,11c0.062,0,0.123,0.011,0.181,0.034c0.411,0.16,0.84,0.241,1.276,0.241
		c0.403,0,0.798-0.068,1.176-0.204c-0.358-0.383-0.649-0.827-0.855-1.308c-0.237,0.05-0.475,0.075-0.712,0.075
		c-0.9,0-1.757-0.347-2.413-0.977C0.205,8.669,0.199,8.352,0.39,8.154C0.484,8.056,0.615,8,0.751,8c0.13,0,0.253,0.049,0.346,0.139
		C1.561,8.585,2.17,8.831,2.81,8.831c0.143,0,0.286-0.012,0.428-0.037C3.188,8.526,3.164,8.26,3.164,8
		c0-1.063,0.37-2.074,1.05-2.884c-0.363-0.138-0.752-0.21-1.141-0.21c-0.24,0-0.478,0.027-0.709,0.081C2.327,4.996,2.289,5,2.25,5
		C2.016,5,1.816,4.841,1.764,4.612c-0.062-0.269,0.106-0.538,0.374-0.6c0.302-0.07,0.614-0.105,0.927-0.105
		C3.738,3.907,4.404,4.07,5,4.378c0.41-0.302,0.871-0.534,1.356-0.682C5.922,3.112,5.313,2.685,4.61,2.48
		c-0.265-0.078-0.417-0.356-0.34-0.62C4.333,1.648,4.53,1.5,4.751,1.5c0.047,0,0.094,0.007,0.139,0.02
		c1.059,0.31,1.974,1.03,2.534,1.988C7.51,3.502,7.588,3.5,7.664,3.5c0.548,0,1.106,0.035,1.662,0.104
		C9.266,2.76,8.935,1.962,8.376,1.331c-0.089-0.1-0.133-0.228-0.125-0.362c0.008-0.133,0.068-0.256,0.168-0.344
		C8.51,0.544,8.628,0.5,8.75,0.5c0.143,0,0.28,0.062,0.375,0.169c0.747,0.843,1.181,1.963,1.207,3.1
		c0.609,0.123,1.208,0.286,1.786,0.488c0.164-0.86,0.053-1.754-0.32-2.544c-0.057-0.121-0.064-0.256-0.018-0.382
		c0.045-0.126,0.136-0.226,0.257-0.283C12.105,1.016,12.176,1,12.25,1c0.192,0,0.37,0.112,0.452,0.286
		c0.49,1.04,0.616,2.218,0.359,3.342c0.504,0.221,1.001,0.477,1.483,0.765c0.161-0.783,0.23-1.581,0.206-2.377
		C14.743,2.739,14.96,2.508,15.235,2.5c0,0,0,0,0,0c0.286,0,0.506,0.213,0.515,0.485c0.03,1.003-0.075,2.006-0.312,2.987
		c0.506,0.358,0.989,0.751,1.44,1.173c0.287-0.842,0.415-1.74,0.373-2.62c-0.013-0.275,0.2-0.51,0.475-0.524c0,0,0,0,0.001,0
		c0.284,0,0.51,0.213,0.523,0.475c0.056,1.171-0.151,2.361-0.6,3.454c0.461,0.507,0.885,1.051,1.264,1.622
		c0.522-0.752,0.817-1.65,0.836-2.562c0.006-0.267,0.224-0.482,0.498-0.49c0.288,0.006,0.507,0.234,0.502,0.51
		c-0.026,1.259-0.479,2.481-1.278,3.46c0.381,0.685,0.7,1.398,0.953,2.126c0.714-0.851,1.594-2.208,1.335-3.498
		c-0.054-0.27,0.122-0.534,0.392-0.589c0.033-0.007,0.066-0.01,0.098-0.01c0.237,0,0.443,0.169,0.49,0.401
		c0.391,1.949-1.027,3.82-1.98,4.821c0.217,0.869,0.347,1.765,0.387,2.67c0.788-0.653,1.356-1.533,1.619-2.521
		c0.058-0.219,0.258-0.371,0.485-0.371c0.042,0,0.084,0.005,0.125,0.016c0.269,0.072,0.427,0.346,0.357,0.612
		c-0.38,1.428-1.313,2.69-2.57,3.483V18.5c0,0.659-0.132,1.314-0.383,1.919c0.806-0.209,1.54-0.646,2.102-1.258
		C22.977,19.059,23.111,19,23.251,19c0.126,0,0.246,0.047,0.338,0.132c0.203,0.187,0.216,0.504,0.03,0.707
		c-0.896,0.975-2.163,1.59-3.492,1.699C19.181,22.768,17.708,23.5,16.164,23.5z M9.698,11.991c1.521,0.775,2.465,2.31,2.465,4.009
		v2.5c0,2.206,1.795,4,4,4s4-1.794,4-4V17c0-6.893-5.607-12.5-12.5-12.5c-1.93,0-3.5,1.57-3.5,3.5s1.57,3.5,3.5,3.5
		c0.667,0,1.316,0.148,1.927,0.439C9.635,11.954,9.671,11.974,9.698,11.991z"/>
</g>
</svg>
