<?xml version="1.0" encoding="utf-8"?>
<!-- Generator: Adobe Illustrator 22.1.0, SVG Export Plug-In . SVG Version: 6.00 Build 0)  -->
<svg version="1.1" id="Light" xmlns="http://www.w3.org/2000/svg" xmlns:xlink="http://www.w3.org/1999/xlink" x="0px" y="0px"
	 viewBox="0 0 24 24" style="enable-background:new 0 0 24 24;" xml:space="preserve">
<g>
	<title>insect-colony</title>
	<path d="M2.948,13.111c-0.234,0-0.458-0.049-0.665-0.146c-1.016-0.474-1.302-1.94-0.651-3.337c0.117-0.251,0.256-0.483,0.416-0.694
		C1.38,8.727,0.825,8.251,0.517,7.602C0.459,7.482,0.452,7.346,0.497,7.22c0.045-0.126,0.136-0.227,0.257-0.284
		c0.067-0.032,0.139-0.048,0.214-0.048C1.16,6.888,1.338,7,1.42,7.174c0.255,0.538,0.781,0.872,1.372,0.872
		c0.154,0,0.308-0.023,0.457-0.07c0.04-0.017,0.083-0.032,0.127-0.047C3.337,7.797,3.317,7.663,3.317,7.527
		c0-0.017,0-0.034,0.001-0.052c-0.873-0.252-1.579-0.859-1.96-1.693C1.303,5.661,1.298,5.525,1.345,5.4s0.139-0.225,0.261-0.28
		c0.065-0.03,0.135-0.045,0.207-0.045c0.195,0,0.374,0.115,0.455,0.292c0.269,0.59,0.794,1.02,1.422,1.173
		c0.12-0.135,0.263-0.248,0.424-0.333C4.086,6.157,4.061,6.105,4.038,6.051c-0.457-0.302-1.581-1.199-1.26-2.523
		c0.055-0.225,0.254-0.382,0.486-0.382c0.04,0,0.079,0.005,0.118,0.014c0.129,0.031,0.239,0.112,0.309,0.226
		C3.761,3.5,3.782,3.634,3.75,3.764c-0.08,0.332,0.041,0.633,0.223,0.88C4.15,4.101,4.554,3.652,5.086,3.423l-0.253-1.65
		C4.806,1.596,4.876,1.417,5.017,1.305L5.893,0.61c0.088-0.07,0.198-0.108,0.311-0.108c0.154,0,0.296,0.069,0.392,0.189
		C6.766,0.907,6.73,1.222,6.514,1.394L5.866,1.908l0.209,1.364c0.454,0.047,0.871,0.242,1.193,0.555l1.178-0.717L8.423,2.283
		C8.419,2.15,8.467,2.022,8.559,1.925c0.092-0.097,0.216-0.152,0.349-0.156c0,0,0,0,0.001,0c0.288,0,0.505,0.213,0.513,0.486
		l0.031,1.118c0.005,0.179-0.087,0.348-0.24,0.441L7.788,4.682c0.057,0.187,0.086,0.381,0.086,0.579
		c0,0.373-0.101,0.729-0.291,1.038c0.335-0.031,0.59-0.163,0.76-0.395C8.435,5.776,8.586,5.7,8.745,5.7
		c0.107,0,0.209,0.033,0.295,0.097c0.108,0.079,0.178,0.195,0.199,0.327S9.228,6.388,9.148,6.495
		C8.758,7.029,8.165,7.311,7.433,7.311c-0.396,0-0.746-0.082-0.957-0.145c-0.063,0.02-0.128,0.037-0.193,0.051
		c0.022,0.102,0.034,0.206,0.034,0.311c0,0.077-0.007,0.155-0.022,0.237C6.65,8.011,7.072,8.146,7.5,8.146
		c0.19,0,0.381-0.026,0.567-0.078C8.11,8.056,8.156,8.05,8.201,8.05c0.223,0,0.421,0.151,0.481,0.366
		C8.756,8.682,8.6,8.958,8.334,9.032C8.059,9.108,7.775,9.147,7.492,9.147c-0.603,0-1.182-0.173-1.685-0.501
		C5.695,8.746,5.57,8.828,5.436,8.89c0.019,0.046,0.036,0.094,0.052,0.142C5.7,9.567,6.244,9.936,6.835,9.936
		c0.13,0,0.26-0.018,0.387-0.053C7.266,9.871,7.31,9.865,7.356,9.865c0.224,0,0.422,0.151,0.482,0.366
		c0.036,0.129,0.019,0.263-0.047,0.38c-0.066,0.116-0.173,0.2-0.302,0.236c-0.213,0.059-0.434,0.089-0.655,0.089
		c-0.467,0-0.921-0.134-1.313-0.384c-0.058,0.258-0.147,0.514-0.264,0.765C4.749,12.407,3.843,13.111,2.948,13.111z M3.951,8.837
		c-0.421,0-1.042,0.417-1.413,1.213c-0.394,0.845-0.316,1.784,0.167,2.009c0.07,0.032,0.148,0.049,0.233,0.049
		c0.421,0,1.042-0.417,1.413-1.213c0.394-0.845,0.316-1.784-0.167-2.009C4.114,8.854,4.035,8.837,3.951,8.837z M4.817,7.027
		c-0.276,0-0.5,0.224-0.5,0.5s0.224,0.5,0.5,0.5s0.5-0.224,0.5-0.5S5.093,7.027,4.817,7.027z M5.873,4.261c-0.551,0-1,0.449-1,1
		s0.449,1,1,1c0.133,0,0.262-0.026,0.385-0.078C6.261,6.182,6.263,6.181,6.265,6.18c0.371-0.162,0.608-0.521,0.608-0.919
		C6.873,4.71,6.425,4.261,5.873,4.261z"/>
	<path d="M20.27,13.564c-1,0-1.912-0.937-2.216-2.278c-0.062-0.271-0.094-0.541-0.096-0.807c-0.283,0.107-0.582,0.163-0.882,0.163
		c-0.398,0-0.782-0.092-1.142-0.273c-0.246-0.124-0.345-0.425-0.222-0.671c0.085-0.17,0.257-0.276,0.447-0.276
		c0.078,0,0.156,0.019,0.225,0.054c0.217,0.109,0.449,0.165,0.689,0.165c0.496,0,0.964-0.245,1.25-0.656
		c0.021-0.037,0.044-0.074,0.069-0.111c-0.121-0.091-0.229-0.201-0.319-0.325c-0.371,0.149-0.754,0.225-1.142,0.225
		c-0.5,0-1-0.124-1.448-0.359c-0.118-0.062-0.206-0.166-0.245-0.294c-0.04-0.128-0.028-0.263,0.034-0.381
		c0.086-0.165,0.256-0.268,0.443-0.268c0.081,0,0.161,0.02,0.232,0.057c0.302,0.158,0.64,0.242,0.977,0.242
		c0.295,0,0.591-0.064,0.864-0.186c0.011-0.182,0.055-0.358,0.131-0.524c-0.036-0.016-0.071-0.033-0.106-0.051
		c-0.062,0.004-0.14,0.007-0.231,0.007c-0.671,0-1.869-0.163-2.359-1.257c-0.054-0.122-0.058-0.258-0.011-0.383
		c0.048-0.125,0.141-0.224,0.263-0.278c0.065-0.029,0.134-0.044,0.204-0.044c0.196,0,0.375,0.116,0.456,0.295
		c0.137,0.306,0.418,0.474,0.716,0.564c-0.079-0.216-0.12-0.445-0.12-0.68c0-0.342,0.087-0.673,0.252-0.97l-1.212-1.151
		c-0.13-0.123-0.184-0.308-0.141-0.482l0.267-1.086c0.055-0.224,0.255-0.38,0.486-0.38c0.04,0,0.079,0.005,0.118,0.014
		c0.269,0.066,0.433,0.338,0.367,0.605l-0.198,0.804l1.001,0.951c0.318-0.2,0.68-0.305,1.059-0.305c0.074,0,0.148,0.004,0.223,0.013
		l0.492-1.288l-0.525-0.641c-0.175-0.214-0.143-0.529,0.07-0.704c0.089-0.073,0.201-0.113,0.316-0.113
		c0.151,0,0.292,0.067,0.387,0.183l0.709,0.865c0.113,0.138,0.144,0.328,0.081,0.495l-0.596,1.56c0.464,0.33,0.767,0.844,0.83,1.408
		c0.206-0.2,0.366-0.46,0.357-0.782c-0.007-0.276,0.212-0.506,0.487-0.513c0,0,0,0,0.001,0c0.284,0,0.505,0.218,0.512,0.487
		c0.035,1.361-1.233,2.009-1.732,2.211c-0.03,0.04-0.061,0.079-0.094,0.117c0.141,0.119,0.259,0.262,0.348,0.422
		c0.633-0.03,1.208-0.334,1.588-0.843c0.094-0.126,0.244-0.201,0.401-0.201c0.109,0,0.212,0.034,0.299,0.099
		c0.107,0.08,0.177,0.197,0.196,0.329s-0.014,0.264-0.094,0.371c-0.54,0.723-1.345,1.167-2.233,1.24
		c-0.028,0.148-0.078,0.289-0.149,0.422c0.024,0.014,0.048,0.029,0.072,0.044c0.234,0.151,0.505,0.23,0.784,0.23
		c0.458,0,0.895-0.218,1.167-0.584c0.094-0.126,0.244-0.201,0.401-0.201c0.108,0,0.212,0.034,0.299,0.099
		c0.221,0.165,0.267,0.479,0.102,0.7c-0.414,0.555-1.051,0.909-1.737,0.975c0.112,0.24,0.2,0.498,0.261,0.764
		c0.155,0.681,0.12,1.37-0.097,1.938c-0.244,0.638-0.686,1.06-1.245,1.187C20.501,13.551,20.385,13.564,20.27,13.564z M19.732,9.124
		c-0.039,0-0.078,0.004-0.115,0.013c-0.52,0.118-0.794,1.019-0.588,1.928c0.21,0.925,0.811,1.498,1.248,1.498
		c0.039,0,0.077-0.004,0.114-0.013c0.223-0.051,0.412-0.252,0.533-0.568c0.147-0.386,0.167-0.869,0.055-1.36
		c-0.111-0.491-0.337-0.918-0.637-1.203C20.138,9.227,19.928,9.124,19.732,9.124z M19.285,7.175c-0.276,0-0.5,0.224-0.5,0.5
		s0.224,0.5,0.5,0.5s0.5-0.224,0.5-0.5S19.561,7.175,19.285,7.175z M18.732,4.237c-0.552,0-1,0.449-1,1s0.448,1,1,1s1-0.449,1-1
		S19.284,4.237,18.732,4.237z"/>
	<path d="M7.727,23.5c-0.072,0-0.142-0.015-0.208-0.045c-0.641-0.293-1.112-0.836-1.318-1.495c-0.211,0.159-0.443,0.298-0.693,0.414
		c-0.484,0.225-0.998,0.344-1.485,0.344c-0.147,0-0.291-0.011-0.43-0.032c-0.675-0.104-1.18-0.448-1.421-0.969
		c-0.235-0.507-0.183-1.097,0.145-1.663c0.312-0.537,0.848-1.002,1.509-1.308c0.248-0.115,0.507-0.203,0.766-0.261
		c-0.379-0.589-0.497-1.313-0.313-2.01C4.338,16.253,4.536,16.1,4.763,16.1c0.043,0,0.086,0.006,0.128,0.017
		c0.129,0.034,0.237,0.116,0.304,0.232s0.085,0.25,0.051,0.379c-0.201,0.761,0.203,1.543,0.94,1.819
		c0.022,0.008,0.044,0.017,0.066,0.025c0.064-0.138,0.149-0.267,0.253-0.381c-0.508-0.756-0.659-1.677-0.413-2.562
		c0.06-0.216,0.258-0.366,0.482-0.366c0.045,0,0.089,0.006,0.132,0.018c0.267,0.074,0.423,0.351,0.349,0.616
		c-0.174,0.625-0.049,1.293,0.334,1.815c0.078-0.013,0.152-0.02,0.225-0.02c0.105,0,0.209,0.011,0.312,0.034
		c0.02-0.095,0.046-0.188,0.079-0.278c-0.167-0.511-0.459-1.832,0.628-2.629c0.086-0.063,0.188-0.097,0.296-0.097
		c0.159,0,0.31,0.077,0.404,0.205c0.163,0.222,0.115,0.536-0.108,0.698c-0.283,0.208-0.376,0.511-0.384,0.806
		c0.311-0.191,0.668-0.293,1.041-0.293c0.199,0,0.395,0.029,0.583,0.087l0.87-1.424c0.089-0.145,0.249-0.234,0.427-0.239
		l1.132,0.033c0.275,0.008,0.493,0.239,0.485,0.514c-0.009,0.272-0.228,0.486-0.5,0.486l-0.843-0.025l-0.719,1.177
		c0.315,0.325,0.51,0.744,0.554,1.194l1.363,0.211l0.516-0.647c0.096-0.12,0.239-0.188,0.392-0.188c0.112,0,0.223,0.038,0.311,0.108
		c0.216,0.172,0.251,0.487,0.08,0.703l-0.698,0.874c-0.095,0.12-0.238,0.188-0.391,0.188c-0.025,0-0.05-0.002-0.076-0.006
		l-1.651-0.256c-0.226,0.523-0.668,0.923-1.201,1.102c0.178,0.124,0.389,0.216,0.621,0.216c0.072,0,0.144-0.009,0.217-0.026
		c0.038-0.009,0.077-0.014,0.116-0.014c0.233,0,0.433,0.158,0.487,0.384c0.031,0.129,0.01,0.264-0.06,0.378s-0.18,0.194-0.31,0.225
		c-0.155,0.037-0.311,0.056-0.464,0.056c-1.066,0-1.769-0.896-2.016-1.27c-0.06-0.025-0.119-0.053-0.177-0.084
		c-0.087,0.164-0.202,0.31-0.341,0.431c0.162,0.612,0.577,1.108,1.157,1.375c0.251,0.115,0.361,0.413,0.246,0.663
		c-0.081,0.177-0.26,0.292-0.454,0.292c-0.072,0-0.142-0.015-0.208-0.045c-0.819-0.376-1.42-1.069-1.678-1.922
		c-0.013,0-0.027,0.001-0.04,0.001c-0.137,0-0.273-0.02-0.406-0.059c-0.013,0.04-0.027,0.079-0.043,0.118
		c-0.247,0.704,0.081,1.48,0.768,1.794c0.251,0.115,0.361,0.412,0.246,0.663C8.101,23.385,7.922,23.5,7.727,23.5z M5.311,19.4
		c-0.342,0-0.709,0.087-1.064,0.251c-0.846,0.392-1.391,1.16-1.167,1.643c0.096,0.207,0.333,0.35,0.667,0.402
		c0.089,0.014,0.183,0.021,0.279,0.021c0.341,0,0.708-0.087,1.062-0.251c0.427-0.198,0.798-0.504,1.016-0.838
		c0.195-0.299,0.25-0.592,0.151-0.805c-0.084-0.181-0.264-0.281-0.4-0.332c-0.004-0.002-0.02-0.008-0.024-0.01
		c-0.07-0.025-0.154-0.046-0.244-0.06C5.5,19.407,5.406,19.4,5.311,19.4z M7.616,18.692c-0.276,0-0.5,0.224-0.5,0.5
		s0.224,0.5,0.5,0.5s0.5-0.224,0.5-0.5S7.892,18.692,7.616,18.692z M9.884,17.14c-0.551,0-1,0.448-1,1s0.449,1,1,1s1-0.448,1-1
		S10.436,17.14,9.884,17.14z"/>
</g>
</svg>
