<?xml version="1.0" encoding="utf-8"?>
<!-- Generator: Adobe Illustrator 22.1.0, SVG Export Plug-In . SVG Version: 6.00 Build 0)  -->
<svg version="1.1" id="Light" xmlns="http://www.w3.org/2000/svg" xmlns:xlink="http://www.w3.org/1999/xlink" x="0px" y="0px"
	 viewBox="0 0 24 24" style="enable-background:new 0 0 24 24;" xml:space="preserve">
<g>
	<title>insect-ant</title>
	<path d="M18.5,24c-0.276,0-0.5-0.224-0.5-0.5c0-3.884-2.093-5.048-3.067-5.378C14.633,19.75,13.334,23,12,23
		c-1.334,0-2.633-3.25-2.932-4.878C8.092,18.452,6,19.616,6,23.5C6,23.776,5.776,24,5.5,24S5,23.776,5,23.5
		c0-3.038,1.188-4.641,2.185-5.451c0.706-0.573,1.408-0.839,1.846-0.958c0.073-0.53,0.288-1.03,0.618-1.447
		c-2.06,0.295-5.027,1.295-6.177,4.524C3.4,20.367,3.211,20.5,3,20.5c-0.057,0-0.113-0.01-0.167-0.029
		c-0.261-0.093-0.397-0.38-0.304-0.639c1.754-4.921,7.091-5.303,8.685-5.303c0.123,0,0.219,0.002,0.286,0.005v-1.619
		c-0.448-0.16-0.799-0.531-0.936-0.99c-0.537-0.129-1.596-0.474-2.557-1.331C6.675,9.405,6,7.692,6,5.5C6,5.224,6.224,5,6.5,5
		S7,5.224,7,5.5c0,3.904,2.387,5.058,3.5,5.382v-0.696c-0.646-0.334-1-0.927-1-1.686c0-0.531,0.185-1.314,0.475-2.017L9.061,3.285
		L6.18,0.884C5.968,0.708,5.939,0.392,6.116,0.18C6.211,0.066,6.351,0,6.5,0c0.117,0,0.23,0.041,0.32,0.116l3,2.5
		c0.077,0.064,0.133,0.15,0.161,0.247l0.687,2.404C11.073,4.763,11.527,4.5,12,4.5c0.473,0,0.927,0.263,1.332,0.766l0.687-2.404
		c0.028-0.097,0.083-0.182,0.16-0.246l3-2.5C17.269,0.041,17.383,0,17.5,0c0.149,0,0.289,0.066,0.384,0.18
		c0.177,0.212,0.148,0.528-0.064,0.704l-2.882,2.401l-0.914,3.198C14.315,7.186,14.5,7.969,14.5,8.5c0,0.759-0.354,1.352-1,1.686
		v0.694C14.613,10.552,17,9.392,17,5.5C17,5.224,17.224,5,17.5,5S18,5.224,18,5.5c0,2.192-0.675,3.905-2.008,5.093
		c-0.96,0.856-2.02,1.202-2.557,1.331c-0.136,0.459-0.488,0.83-0.936,0.99v1.619c0.067-0.002,0.164-0.005,0.288-0.005
		c1.593,0,6.928,0.382,8.683,5.304c0.092,0.26-0.044,0.547-0.303,0.639C21.113,20.49,21.057,20.5,21,20.5
		c-0.211,0-0.4-0.133-0.471-0.332c-1.151-3.229-4.118-4.228-6.177-4.524c0.33,0.418,0.545,0.919,0.618,1.451
		C16.111,17.417,19,18.709,19,23.5C19,23.776,18.776,24,18.5,24z M12,15.5c-1.103,0-2,0.897-2,2c0,1.448,1.529,4.447,2.002,4.5
		C12.471,21.946,14,18.948,14,17.5C14,16.397,13.103,15.5,12,15.5z M11.5,11.5c0,0.276,0.224,0.5,0.5,0.5c0.276,0,0.5-0.224,0.5-0.5
		v-1.027C12.34,10.491,12.173,10.5,12,10.5s-0.34-0.009-0.5-0.027V11.5z M11.206,9.399C11.427,9.466,11.694,9.5,12,9.5
		c0.306,0,0.573-0.034,0.794-0.101c0.028-0.012,0.055-0.021,0.078-0.026C13.3,9.219,13.5,8.941,13.5,8.5
		c0-0.552-0.156-1.179-0.44-1.765C12.665,5.924,12.192,5.5,12,5.5c-0.192,0-0.665,0.424-1.053,1.219
		c-0.003,0.006-0.014,0.028-0.017,0.034C10.656,7.321,10.5,7.948,10.5,8.5c0,0.441,0.2,0.719,0.628,0.873
		C11.152,9.379,11.178,9.386,11.206,9.399z"/>
</g>
</svg>
