<?xml version="1.0" encoding="utf-8"?>
<!-- Generator: Adobe Illustrator 22.1.0, SVG Export Plug-In . SVG Version: 6.00 Build 0)  -->
<svg version="1.1" id="Light" xmlns="http://www.w3.org/2000/svg" xmlns:xlink="http://www.w3.org/1999/xlink" x="0px" y="0px"
	 viewBox="0 0 24 24" style="enable-background:new 0 0 24 24;" xml:space="preserve">
<g>
	<title>insect-head</title>
	<path d="M12,24c-2.481,0-4.5-1.57-4.5-3.5v-2c-1.402,0-2.5-1.757-2.5-4s1.098-4,2.5-4c0.127,0,0.255,0.015,0.382,0.045
		c0.185-0.255,0.395-0.492,0.626-0.708C8.553,8.92,8.783,2.566,6.688,0.89c-0.104-0.083-0.17-0.202-0.185-0.335
		S6.526,0.292,6.61,0.187C6.705,0.068,6.847,0,7,0c0.113,0,0.224,0.039,0.313,0.11c2.143,1.715,2.27,6.843,2.224,8.987
		c0.723-0.393,1.526-0.598,2.349-0.598c0.042,0,0.085,0.001,0.127,0.002c0.03-0.001,0.073-0.002,0.116-0.002
		c0.816,0,1.615,0.205,2.335,0.597c-0.046-2.144,0.081-7.271,2.224-8.986C16.776,0.039,16.887,0,17,0
		c0.153,0,0.295,0.068,0.391,0.187c0.172,0.216,0.137,0.531-0.078,0.703c-2.093,1.674-1.865,8.03-1.821,8.947
		c0.23,0.216,0.439,0.453,0.624,0.708c0.128-0.03,0.257-0.046,0.384-0.046c1.402,0,2.5,1.757,2.5,4s-1.098,4-2.5,4v2
		C16.5,22.43,14.481,24,12,24z M12.5,22.971c1.702-0.175,3-1.227,3-2.471v-2.321c-0.275-0.184-0.521-0.441-0.735-0.766
		C14.031,17.16,13.271,17.021,12.5,17v3h1c0.276,0,0.5,0.224,0.5,0.5S13.776,21,13.5,21h-1V22.971z M8.5,20.5
		c0,1.245,1.298,2.296,3,2.471V21h-1c-0.276,0-0.5-0.224-0.5-0.5s0.224-0.5,0.5-0.5h1v-3c-0.775,0.022-1.536,0.161-2.266,0.413
		c-0.213,0.325-0.46,0.582-0.734,0.766V20.5z M16.5,11.5c-0.799,0-1.5,1.402-1.5,3s0.701,3,1.5,3s1.5-1.402,1.5-3
		S17.299,11.5,16.5,11.5z M7.5,11.5c-0.799,0-1.5,1.402-1.5,3s0.701,3,1.5,3s1.5-1.402,1.5-3S8.299,11.5,7.5,11.5z M8.767,11.03
		C9.533,11.729,10,13.028,10,14.5c0,0.604-0.08,1.19-0.233,1.721c0.641-0.15,1.295-0.225,1.95-0.225c0.097,0,0.193,0.001,0.29,0.005
		c0.091-0.004,0.189-0.005,0.288-0.005c0.648,0,1.298,0.076,1.937,0.225C14.08,15.689,14,15.103,14,14.5
		c0-1.47,0.467-2.77,1.232-3.469c-0.744-0.964-1.896-1.533-3.124-1.533L12.013,9.5l-0.112-0.001
		C10.669,9.498,9.514,10.067,8.767,11.03z"/>
</g>
</svg>
