<?xml version="1.0" encoding="utf-8"?>
<!-- Generator: Adobe Illustrator 22.1.0, SVG Export Plug-In . SVG Version: 6.00 Build 0)  -->
<svg version="1.1" id="Light" xmlns="http://www.w3.org/2000/svg" xmlns:xlink="http://www.w3.org/1999/xlink" x="0px" y="0px"
	 viewBox="0 0 24 24" style="enable-background:new 0 0 24 24;" xml:space="preserve">
<g>
	<title>insect-scorpion</title>
	<path d="M8.497,24c-3.203,0-5.054-1.849-5.232-5.214c-1.151-0.224-2.001-1.227-2.018-2.417c-0.019-0.151-0.017-0.304,0.005-0.455
		c0.112-0.751,0.727-1.332,1.468-1.416l0.552-1.656C3.341,12.637,3.531,12.5,3.747,12.5c1.589,0,2.5,1.397,2.5,3.833
		c0,1.192-0.838,2.205-1.984,2.446C4.421,21.58,5.844,23,8.497,23c2.82,0,4.25-1.598,4.25-4.75v-0.36
		c-0.904-0.393-1.431-1.781-1.492-3.017c-0.608-0.422-1.063-1.02-1.307-1.714c-0.392,0.134-0.98,0.288-1.625,0.288
		c-0.702,0-1.326-0.178-1.854-0.531c-0.229-0.153-0.291-0.464-0.139-0.693C6.423,12.083,6.579,12,6.747,12
		c0.099,0,0.194,0.029,0.277,0.084c0.359,0.239,0.795,0.361,1.297,0.361c0.583,0,1.122-0.163,1.43-0.278
		C9.748,12.11,9.747,12.055,9.747,12v-1.276c-0.388,0.117-0.885,0.222-1.423,0.222c-0.702,0-1.326-0.179-1.854-0.531
		c-0.111-0.074-0.187-0.187-0.213-0.318c-0.026-0.131,0-0.264,0.074-0.375C6.424,9.583,6.579,9.5,6.747,9.5
		c0.099,0,0.195,0.029,0.277,0.084c0.359,0.239,0.795,0.36,1.297,0.36c0.582,0,1.122-0.164,1.426-0.277v-3.01
		C8.866,7.88,8.096,8.499,7.452,8.499c-0.151,0-0.295-0.034-0.429-0.1C6.056,7.914,5.82,6.319,5.764,5.463
		c-0.608-0.095-1.09-0.375-1.436-0.834C3.264,3.216,3.96,0.65,4.042,0.362c0.048-0.168,0.183-0.301,0.353-0.345
		C4.437,0.005,4.48,0,4.523,0c0.132,0,0.256,0.051,0.35,0.143l1.374,1.346l1.374-1.345C7.715,0.05,7.839,0,7.971,0
		c0.043,0,0.086,0.006,0.127,0.016c0.17,0.045,0.305,0.177,0.353,0.345C8.534,0.65,9.229,3.216,8.166,4.629
		c-0.339,0.45-0.809,0.728-1.399,0.828C6.835,6.345,7.072,7.305,7.47,7.504c0.297-0.003,1.305-1.023,2.276-2.688V4.5
		c0-0.651,0.422-1.221,1.027-1.423c0.054-0.463,0.213-1.132,0.673-1.477c0.088-0.066,0.191-0.1,0.3-0.1c0.157,0,0.306,0.075,0.4,0.2
		c0.08,0.107,0.114,0.239,0.095,0.371C12.223,2.203,12.154,2.32,12.047,2.4c-0.103,0.077-0.194,0.302-0.249,0.6h2.898
		c-0.055-0.299-0.146-0.523-0.248-0.6c-0.107-0.08-0.176-0.197-0.195-0.329c-0.019-0.132,0.015-0.264,0.095-0.371
		c0.094-0.125,0.244-0.2,0.4-0.2c0.109,0,0.213,0.035,0.3,0.1c0.461,0.345,0.619,1.015,0.673,1.477
		c0.605,0.201,1.027,0.772,1.027,1.422v0.316c0.972,1.666,1.979,2.685,2.281,2.685c0.395-0.197,0.632-1.157,0.7-2.044
		c-0.59-0.1-1.06-0.378-1.399-0.828c-1.084-1.44-0.319-4.153-0.286-4.268c0.049-0.168,0.184-0.3,0.353-0.345
		C18.436,0.005,18.479,0,18.523,0c0.132,0,0.256,0.051,0.35,0.143l1.374,1.345l1.375-1.345C21.714,0.051,21.839,0,21.971,0
		c0.043,0,0.086,0.006,0.128,0.017c0.168,0.044,0.304,0.177,0.352,0.345c0.033,0.115,0.799,2.828-0.286,4.268
		c-0.346,0.459-0.828,0.739-1.436,0.834c-0.056,0.856-0.292,2.452-1.259,2.936c-0.133,0.067-0.278,0.1-0.429,0.1
		c-0.644,0-1.414-0.619-2.295-1.841v3.01c0.305,0.113,0.845,0.276,1.427,0.276c0.502,0,0.938-0.121,1.295-0.359
		C19.552,9.529,19.648,9.5,19.747,9.5c0.168,0,0.323,0.083,0.416,0.223c0.074,0.111,0.1,0.244,0.074,0.375
		c-0.026,0.131-0.102,0.244-0.213,0.318c-0.528,0.352-1.152,0.531-1.854,0.531c-0.538,0-1.035-0.105-1.423-0.222V12
		c0,0.055-0.001,0.111-0.004,0.166c0.309,0.115,0.848,0.277,1.431,0.277c0.502,0,0.938-0.121,1.295-0.359
		C19.552,12.029,19.648,12,19.747,12c0.168,0,0.323,0.083,0.416,0.223c0.074,0.111,0.1,0.244,0.074,0.375
		c-0.026,0.131-0.102,0.244-0.213,0.318c-0.528,0.352-1.152,0.531-1.854,0.531c-0.645,0-1.233-0.153-1.625-0.288
		c-0.243,0.693-0.699,1.292-1.307,1.714c-0.061,1.235-0.588,2.624-1.492,3.017v0.36C13.747,23.253,10.458,24,8.497,24z
		 M2.906,15.487c-0.33,0-0.616,0.247-0.665,0.574c-0.01,0.066-0.01,0.133,0,0.198c0.004,0.025,0.005,0.049,0.005,0.074
		c0,0.827,0.673,1.5,1.5,1.5s1.5-0.673,1.5-1.5c0-0.76-0.117-2.483-1.155-2.786l-0.537,1.612C3.486,15.362,3.295,15.5,3.078,15.5
		c-0.023,0-0.046-0.001-0.069-0.005C2.973,15.489,2.939,15.487,2.906,15.487z M12.318,15.374C12.495,16.337,12.962,17,13.247,17
		c0.285,0,0.752-0.663,0.929-1.626c-0.302,0.084-0.614,0.126-0.929,0.126S12.62,15.457,12.318,15.374z M11.247,4
		c-0.276,0-0.5,0.224-0.5,0.5V12c0,1.378,1.121,2.5,2.5,2.5c1.378,0,2.5-1.122,2.5-2.5V4.5c0-0.276-0.224-0.5-0.5-0.5H11.247z
		 M18.827,1.498c-0.113,0.752-0.178,1.895,0.3,2.53C19.37,4.35,19.726,4.5,20.247,4.5s0.877-0.15,1.12-0.472
		c0.479-0.635,0.413-1.778,0.3-2.53l-1.07,1.047c-0.094,0.092-0.218,0.143-0.35,0.143s-0.256-0.051-0.35-0.143L18.827,1.498z
		 M4.827,1.497c-0.113,0.752-0.179,1.895,0.3,2.53C5.37,4.35,5.726,4.5,6.247,4.5s0.877-0.15,1.12-0.472
		c0.479-0.635,0.413-1.778,0.3-2.53l-1.07,1.047c-0.094,0.092-0.218,0.143-0.35,0.143s-0.256-0.051-0.35-0.143L4.827,1.497z"/>
	<path d="M12.247,6.5c-0.276,0-0.5-0.224-0.5-0.5s0.224-0.5,0.5-0.5h2c0.276,0,0.5,0.224,0.5,0.5s-0.224,0.5-0.5,0.5H12.247z"/>
</g>
</svg>
