<?xml version="1.0" encoding="utf-8"?>
<!-- Generator: Adobe Illustrator 22.1.0, SVG Export Plug-In . SVG Version: 6.00 Build 0)  -->
<svg version="1.1" id="Light" xmlns="http://www.w3.org/2000/svg" xmlns:xlink="http://www.w3.org/1999/xlink" x="0px" y="0px"
	 viewBox="0 0 24 24" style="enable-background:new 0 0 24 24;" xml:space="preserve">
<g>
	<title>insect-cricket-body</title>
	<path d="M19.5,19.75c-0.276,0-0.5-0.224-0.5-0.5s0.224-0.5,0.5-0.5h0.934l-0.167-1.331c-0.694,0.22-1.455,0.331-2.267,0.331
		c-2.185,0-4.695-0.421-6.619-1.105l-0.917,2.291C10.387,19.126,10.205,19.25,10,19.25H8.5c-0.276,0-0.5-0.224-0.5-0.5
		s0.224-0.5,0.5-0.5h1.162l0.791-1.977c-0.636-0.285-1.169-0.597-1.589-0.929L6.9,16.128l-0.927,2.78
		C5.906,19.113,5.715,19.25,5.5,19.25H4c-0.276,0-0.5-0.224-0.5-0.5s0.224-0.5,0.5-0.5h1.14l0.886-2.658
		c0.047-0.14,0.152-0.251,0.289-0.306l1.797-0.718c-0.009-0.013-0.019-0.027-0.027-0.04c-0.124-0.186-0.222-0.402-0.292-0.647
		c-0.371,0.094-0.924,0.2-1.528,0.2c-1.089,0-1.969-0.329-2.617-0.977c-1.031-0.933-1.369-2.439-0.86-3.735
		C0.836,8.51,0,7.569,0,6.25c-0.032-0.651,0.187-1.301,0.615-1.819C0.71,4.316,0.85,4.25,1,4.25c0.116,0,0.229,0.041,0.318,0.115
		C1.421,4.45,1.485,4.57,1.497,4.703C1.51,4.836,1.47,4.966,1.385,5.069C1.116,5.394,0.979,5.805,0.999,6.226
		c0,0.967,0.78,1.685,2.608,2.412c0.031,0.008,0.071,0.021,0.114,0.045c1.174,0.456,2.792,0.93,5.4,1.582
		c0.636,0.159,2.151,0.488,3.369,0.753c0.398,0.086,0.76,0.165,1.057,0.23c0.399-0.768,1.118-1.571,2.14-2.389
		c2.51-2.008,3.616-2.11,3.812-2.11c0.252,0,0.465,0.188,0.496,0.438l0.719,5.75c0.95,0.137,1.899,0.242,2.824,0.314
		c0.15,0.012,0.286,0.089,0.372,0.213c0.086,0.125,0.112,0.279,0.071,0.423c-0.006,0.021-0.605,2.025-2.755,3.137l0.216,1.726H22.5
		c0.276,0,0.5,0.224,0.5,0.5s-0.224,0.5-0.5,0.5H19.5z M11.329,15.562c1.858,0.73,4.421,1.188,6.67,1.188
		c0.774,0,1.493-0.117,2.14-0.347l-0.324-2.59c-0.983-0.159-1.968-0.353-2.93-0.576c-0.268-0.062-0.436-0.332-0.374-0.6
		c0.053-0.228,0.252-0.387,0.486-0.387c0.039,0,0.078,0.005,0.117,0.014c0.832,0.193,1.696,0.366,2.572,0.513l-0.612-4.896
		C18.6,8.069,17.702,8.528,16.312,9.64c-1.447,1.157-2.188,2.231-2.144,3.104c0.035,0.709,0.579,1.07,0.602,1.085
		c0.231,0.149,0.298,0.458,0.15,0.69c-0.092,0.144-0.25,0.23-0.421,0.23c-0.095,0-0.187-0.027-0.267-0.077
		c-0.041-0.026-0.995-0.646-1.062-1.866c-0.011-0.197,0.003-0.4,0.042-0.608c-0.271-0.059-0.587-0.128-0.925-0.201
		c-1.226-0.266-2.752-0.598-3.408-0.762l-0.023-0.006c-0.157,0.669-0.401,2.05,0.061,2.743c0.088,0.132,0.204,0.266,0.346,0.4
		c0.026,0.02,0.048,0.04,0.068,0.062c0.441,0.393,1.085,0.76,1.914,1.092c0.016,0.004,0.031,0.008,0.043,0.013
		C11.303,15.546,11.317,15.554,11.329,15.562z M21.091,15.949c0.897-0.554,1.409-1.28,1.672-1.76
		c-0.629-0.059-1.272-0.134-1.92-0.223L21.091,15.949z M3.715,9.741c-0.356,0.914-0.116,1.971,0.62,2.639
		c0.464,0.464,1.112,0.695,1.933,0.695c0.562,0,1.081-0.112,1.387-0.194c-0.014-0.716,0.116-1.425,0.229-1.897
		C6.05,10.509,4.743,10.12,3.715,9.741z"/>
	<circle cx="5.75" cy="11.5" r="0.75"/>
</g>
</svg>
