<?xml version="1.0" encoding="utf-8"?>
<!-- Generator: Adobe Illustrator 22.1.0, SVG Export Plug-In . SVG Version: 6.00 Build 0)  -->
<svg version="1.1" id="Light" xmlns="http://www.w3.org/2000/svg" xmlns:xlink="http://www.w3.org/1999/xlink" x="0px" y="0px"
	 viewBox="0 0 24 24" style="enable-background:new 0 0 24 24;" xml:space="preserve">
<g>
	<title>insect-catch</title>
	<path d="M22,24.01c-0.134,0-0.259-0.052-0.354-0.146l-1.854-1.854H18v1.5c0,0.276-0.224,0.5-0.5,0.5s-0.5-0.224-0.5-0.5v-1.5
		h-1.793l-1.854,1.854c-0.094,0.094-0.22,0.146-0.354,0.146s-0.259-0.052-0.354-0.146S12.5,23.643,12.5,23.51
		s0.052-0.259,0.146-0.354l1.146-1.146H13.08c-0.293,0.092-0.597,0.139-0.905,0.139c-0.742,0-1.456-0.272-2.009-0.767
		c-0.1-0.089-0.158-0.211-0.166-0.345c-0.007-0.133,0.037-0.261,0.127-0.361c0.095-0.106,0.23-0.167,0.373-0.167
		c0.123,0,0.242,0.045,0.333,0.127c0.369,0.33,0.846,0.512,1.342,0.512c0.225,0,0.448-0.037,0.66-0.111
		c0.052-0.018,0.108-0.028,0.164-0.028h2.559l0.397-3.179l-1.649-0.66l-0.833,2.497C13.406,19.872,13.215,20.01,13,20.01
		c-0.054,0-0.107-0.009-0.158-0.026c-0.126-0.042-0.229-0.131-0.289-0.25s-0.07-0.255-0.027-0.382l0.835-2.506
		c-0.323-0.077-0.632-0.116-0.92-0.116c-1.45,0-1.973,0.964-1.995,1.006c-0.084,0.168-0.256,0.274-0.446,0.274
		c-0.077,0-0.154-0.018-0.223-0.052c-0.12-0.06-0.209-0.163-0.251-0.289s-0.033-0.262,0.027-0.382
		c0.008-0.016,0.801-1.554,2.889-1.554c0.534,0,1.112,0.102,1.717,0.304l2.438,0.974h3.668c1.334,0,2.533,0.741,3.13,1.934
		l0.447,0.895c0.37,0.74,0.069,1.642-0.671,2.012c-0.208,0.103-0.439,0.158-0.669,0.158h-1.294l1.146,1.146
		c0.094,0.094,0.146,0.22,0.146,0.354s-0.052,0.259-0.146,0.354S22.133,24.01,22,24.01z M22.5,21.01
		c0.077,0,0.154-0.019,0.223-0.053c0.247-0.123,0.347-0.424,0.224-0.67l-0.447-0.895c-0.426-0.852-1.283-1.382-2.236-1.382h-3.323
		l-0.375,3H22.5z"/>
	<path d="M0.5,19.517c-0.134,0-0.259-0.052-0.354-0.146c-0.195-0.195-0.195-0.512,0-0.707L11.332,7.477
		c-0.954-1.448-0.38-3.862,1.375-5.618c1.154-1.154,2.633-1.844,3.954-1.844c0.833,0,1.544,0.271,2.056,0.783
		c0.006,0.006,0.015,0.016,0.02,0.023c0.121,0.12,3.291,3.336,3.659,6.64C22.399,7.482,22.4,7.5,22.4,7.518
		c-0.005,0.82,0.335,1.61,0.932,2.169c0.409,0.314,0.497,0.935,0.176,1.37c-0.111,0.15-0.261,0.266-0.435,0.336
		c-0.966,0.383-1.992,0.577-3.049,0.577c-2.709,0-5.406-1.262-8.019-3.752L0.853,19.37C0.759,19.465,0.633,19.517,0.5,19.517z
		 M14.021,8.64c1.993,1.545,4.014,2.327,6.014,2.327c0.928,0,1.826-0.169,2.669-0.503c-0.017-0.012-0.032-0.024-0.046-0.038
		C21.86,9.685,21.402,8.635,21.4,7.545c-0.179-1.531-1.069-3.088-1.924-4.272c-0.126,1.203-0.783,2.501-1.819,3.536
		C16.595,7.872,15.258,8.54,14.021,8.64z M16.654,1.006c-1.051,0-2.262,0.583-3.239,1.56c-1.559,1.56-2.035,3.622-1.061,4.596
		c0.327,0.327,0.796,0.5,1.357,0.5c1.051,0,2.262-0.583,3.239-1.561c1.554-1.555,2.032-3.614,1.065-4.591
		c-0.003-0.003-0.006-0.006-0.01-0.01C17.679,1.178,17.212,1.006,16.654,1.006z"/>
</g>
</svg>
