<?xml version="1.0" encoding="utf-8"?>
<!-- Generator: Adobe Illustrator 22.1.0, SVG Export Plug-In . SVG Version: 6.00 Build 0)  -->
<svg version="1.1" id="Layer_1" xmlns="http://www.w3.org/2000/svg" xmlns:xlink="http://www.w3.org/1999/xlink" x="0px" y="0px"
	 viewBox="0 0 24 24" style="enable-background:new 0 0 24 24;" xml:space="preserve">
<g>
	<title>crime-woman-riot</title>
	<circle cx="14" cy="8.499" r="0.75"/>
	<circle cx="10" cy="8.499" r="0.75"/>
	<path d="M23,24c-0.276,0-0.5-0.224-0.5-0.5v-3.107c0.003-0.461-0.212-0.903-0.575-1.183c-1.63-1.161-3.546-1.959-5.546-2.311
		c-0.403,1.211-0.972,2.308-1.692,3.263c-1.195,1.583-2.396,2.25-2.446,2.277C12.166,22.479,12.083,22.5,12,22.5
		s-0.166-0.021-0.239-0.061c-0.03-0.016-2.805-1.582-4.134-5.54c-2.001,0.352-3.92,1.153-5.562,2.322
		c-0.353,0.271-0.566,0.71-0.564,1.169V23.5C1.5,23.776,1.276,24,1,24s-0.5-0.224-0.5-0.5v-3.107
		c-0.004-0.768,0.359-1.507,0.97-1.976c1.742-1.241,3.766-2.095,5.876-2.483c-0.101-0.404-0.184-0.819-0.248-1.238
		c-0.501,0.163-1.02,0.245-1.547,0.245c-0.707,0-1.393-0.146-2.04-0.433c-0.188-0.096-0.327-0.224-0.424-0.384
		C2.8,13.649,2.952,13.03,3.426,12.742C5.061,11.662,5.5,8.624,5.5,7V6.5C5.5,2.916,8.416,0,12,0c3.584,0,6.5,2.916,6.5,6.5V7
		c0,1.624,0.44,4.663,2.09,5.753c0.218,0.132,0.377,0.351,0.44,0.612s0.021,0.531-0.117,0.759c-0.096,0.159-0.234,0.287-0.398,0.372
		c-0.668,0.297-1.361,0.445-2.071,0.445c-0.524,0-1.041-0.082-1.541-0.244c-0.063,0.417-0.146,0.832-0.247,1.237
		c2.109,0.387,4.131,1.239,5.863,2.473c0.621,0.479,0.985,1.22,0.98,1.99V23.5C23.5,23.776,23.276,24,23,24z M8.468,16.255
		c0.947,3.139,2.891,4.706,3.532,5.151c0.917-0.636,3.987-3.183,4.072-8.785c-1.186-0.94-2.473-1.757-3.827-2.43
		c-0.081-0.043-0.164-0.064-0.247-0.064c-0.081,0-0.161,0.02-0.233,0.058c-1.363,0.678-2.652,1.496-3.838,2.436
		c0.019,1.264,0.195,2.465,0.522,3.572c0,0,0,0,0,0C8.451,16.193,8.462,16.219,8.468,16.255z M3.942,13.606
		c0.495,0.22,1.035,0.334,1.594,0.334c0.496,0,0.981-0.09,1.444-0.266c-0.03-0.37-0.047-0.745-0.051-1.119
		c-0.437-0.544-0.784-1.162-1.026-1.822c-0.355,1.054-0.951,2.199-1.942,2.854l-0.232,0.149L3.942,13.606z M17.021,13.673
		c0.462,0.176,0.945,0.266,1.439,0.266c0.551,0,1.085-0.111,1.59-0.33c-0.999-0.673-1.597-1.823-1.953-2.878
		c-0.242,0.659-0.589,1.278-1.026,1.823C17.068,12.93,17.051,13.305,17.021,13.673z M11.998,9.127c0.244,0,0.487,0.06,0.703,0.175
		c1.322,0.657,2.594,1.455,3.779,2.372c0.659-0.927,1.02-2.044,1.019-3.174V7.009c-0.182,0.004-0.378,0.008-0.586,0.008
		c-1.477,0-3.354-0.207-4.914-1.775C10.44,6.81,8.563,7.017,7.085,7.017c-0.207,0-0.403-0.004-0.585-0.008V8.5
		c-0.001,1.13,0.359,2.248,1.019,3.175c1.186-0.918,2.46-1.717,3.791-2.378C11.516,9.187,11.756,9.127,11.998,9.127z M6.523,6.009
		c0.169,0.004,0.351,0.008,0.543,0.008c1.408,0,3.197-0.209,4.549-1.836C11.708,4.069,11.849,4.005,12,4.005
		s0.292,0.064,0.385,0.176c1.352,1.627,3.143,1.836,4.552,1.836c0.191,0,0.372-0.004,0.54-0.008C17.228,3.18,14.87,1,12,1
		C9.13,1,6.772,3.18,6.523,6.009z"/>
</g>
</svg>
