<?xml version="1.0" encoding="utf-8"?>
<!-- Generator: Adobe Illustrator 22.1.0, SVG Export Plug-In . SVG Version: 6.00 Build 0)  -->
<svg version="1.1" id="Layer_1" xmlns="http://www.w3.org/2000/svg" xmlns:xlink="http://www.w3.org/1999/xlink" x="0px" y="0px"
	 viewBox="0 0 24 24" style="enable-background:new 0 0 24 24;" xml:space="preserve">
<g>
	<title>police-woman-1</title>
	<path d="M12,12.975c-0.648,0-1.287-0.212-1.8-0.596c-0.107-0.08-0.176-0.197-0.195-0.329c-0.019-0.132,0.015-0.264,0.095-0.371
		c0.094-0.125,0.244-0.2,0.4-0.2c0.109,0,0.213,0.035,0.3,0.1c0.341,0.256,0.767,0.397,1.2,0.397c0.432,0,0.859-0.141,1.2-0.397
		c0.086-0.065,0.19-0.1,0.3-0.1c0.157,0,0.306,0.075,0.4,0.2c0.08,0.107,0.114,0.238,0.095,0.371
		c-0.019,0.132-0.088,0.249-0.195,0.329C13.287,12.763,12.648,12.975,12,12.975z"/>
	<path d="M23,23.978c-0.276,0-0.5-0.224-0.5-0.5v-2.107c0.003-0.461-0.212-0.903-0.575-1.183c-1.271-0.974-4.175-2.605-9.425-2.704
		v5.994c0,0.276-0.224,0.5-0.5,0.5c-0.276,0-0.5-0.224-0.5-0.5v-5.994c-5.225,0.099-8.144,1.731-9.427,2.706
		C1.712,20.469,1.497,20.91,1.5,21.368v2.11c0,0.276-0.224,0.5-0.5,0.5s-0.5-0.224-0.5-0.5v-2.107
		c-0.005-0.766,0.356-1.505,0.965-1.975c1.436-1.09,4.712-2.918,10.535-2.918c5.852,0,9.112,1.828,10.534,2.917
		c0.61,0.471,0.971,1.21,0.966,1.979v2.104C23.5,23.754,23.276,23.978,23,23.978z"/>
	<path d="M14,10.228c-0.414,0-0.75-0.336-0.75-0.75c-0.001-0.412,0.333-0.749,0.746-0.75c0.417,0,0.754,0.336,0.754,0.75
		S14.414,10.228,14,10.228z"/>
	<path d="M10,10.228c-0.414,0-0.75-0.336-0.75-0.75C9.249,9.28,9.326,9.092,9.467,8.95c0.141-0.142,0.329-0.221,0.529-0.221
		c0.417,0,0.754,0.336,0.754,0.75S10.414,10.228,10,10.228z"/>
	<path d="M12,3.728c-0.414,0-0.75-0.336-0.75-0.75c-0.001-0.198,0.076-0.386,0.217-0.529c0.141-0.142,0.329-0.221,0.529-0.221
		c0.417,0,0.754,0.336,0.754,0.75S12.414,3.728,12,3.728z"/>
	<path d="M16.5,23.878c-0.197,0-0.388-0.058-0.553-0.167l-1.001-0.668c-0.279-0.186-0.446-0.497-0.446-0.832v-1.732
		c0-0.276,0.224-0.5,0.5-0.5h2.5c0.552,0,1,0.448,1,1v1.232c0,0.335-0.167,0.646-0.446,0.832l-1,0.667
		C16.889,23.819,16.697,23.878,16.5,23.878z M15.5,22.211l1,0.667l1-0.667l0-1.232h-2V22.211z"/>
	<path d="M12,15.978c-2.73,0-5.171-1.747-6.1-4.26c-0.355,1.05-0.95,2.193-1.939,2.846c0,0-0.018,0.02-0.018,0.02
		c0.502,0.225,1.047,0.342,1.608,0.342c0.288,0,0.578-0.031,0.862-0.093c0.035-0.008,0.071-0.011,0.106-0.011
		c0.234,0,0.439,0.166,0.489,0.394c0.059,0.269-0.113,0.536-0.382,0.595c-0.354,0.077-0.715,0.116-1.073,0.116
		c-0.705,0-1.392-0.148-2.043-0.439c-0.187-0.096-0.325-0.224-0.422-0.384c-0.288-0.474-0.137-1.095,0.338-1.383
		C5.061,12.639,5.5,9.602,5.5,7.978V5.964C4.947,5.882,4.476,5.494,4.298,4.957L3.773,3.378c-0.038-0.119-0.055-0.24-0.049-0.36
		c0.013-0.267,0.129-0.512,0.327-0.692c0.184-0.167,0.422-0.26,0.669-0.26c0.017,0,0.035,0,0.053,0.001
		C4.946,2.08,5.116,2.086,5.284,2.086c1.773,0,3.296-0.668,5.058-1.443c0.417-0.183,0.833-0.366,1.265-0.546
		C11.734,0.046,11.866,0.019,12,0.019c0.134,0,0.266,0.026,0.391,0.078c0.431,0.18,0.846,0.362,1.25,0.539
		c1.786,0.784,3.31,1.454,5.083,1.454c0.163,0,0.329-0.006,0.493-0.017c0.023-0.001,0.041-0.002,0.059-0.002
		c0.105,0,0.208,0.016,0.307,0.048c0.254,0.082,0.461,0.258,0.583,0.496c0.122,0.238,0.144,0.509,0.061,0.763l-0.525,1.578
		c-0.179,0.536-0.65,0.924-1.203,1.007v2.014c0,1.624,0.44,4.662,2.09,5.752c0.213,0.129,0.377,0.354,0.44,0.611
		c0.064,0.262,0.022,0.532-0.118,0.762c-0.096,0.157-0.233,0.286-0.396,0.371c-0.672,0.301-1.365,0.451-2.072,0.451
		c-0.351,0-0.705-0.038-1.053-0.112c-0.131-0.028-0.243-0.105-0.315-0.217c-0.073-0.112-0.097-0.246-0.069-0.376
		c0.048-0.229,0.254-0.396,0.488-0.396c0.036,0,0.072,0.004,0.107,0.012c0.277,0.059,0.562,0.09,0.844,0.09
		c0.553,0,1.092-0.114,1.604-0.338c-0.996-0.672-1.594-1.819-1.95-2.87C17.172,14.231,14.731,15.978,12,15.978z M6.5,9.478
		c0,3.033,2.467,5.5,5.5,5.5s5.5-2.467,5.5-5.5V6.727c-1.606,1.148-3.493,1.751-5.489,1.751c-2.016,0-3.905-0.604-5.511-1.751V9.478
		z M7.182,5.983c1.405,0.969,3.087,1.495,4.808,1.495c1.739,0,3.423-0.527,4.829-1.495H7.182z M5.246,4.642
		c0.068,0.204,0.259,0.342,0.474,0.342C5.737,4.98,5.758,4.978,5.775,4.978h12.45c0.012,0,0.033,0.002,0.051,0.005
		c0.229-0.007,0.411-0.142,0.478-0.342l0.524-1.574c-0.184,0.017-0.374,0.024-0.56,0.024c-1.975,0-3.589-0.709-5.458-1.53
		c-0.418-0.183-0.827-0.363-1.252-0.54c-0.445,0.18-0.86,0.361-1.263,0.539C8.876,2.38,7.266,3.087,5.295,3.087
		c-0.193,0-0.389-0.007-0.584-0.021L5.246,4.642z"/>
</g>
</svg>
