<?xml version="1.0" encoding="utf-8"?>
<!-- Generator: Adobe Illustrator 22.1.0, SVG Export Plug-In . SVG Version: 6.00 Build 0)  -->
<svg version="1.1" id="Layer_1" xmlns="http://www.w3.org/2000/svg" xmlns:xlink="http://www.w3.org/1999/xlink" x="0px" y="0px"
	 viewBox="0 0 24 24" style="enable-background:new 0 0 24 24;" xml:space="preserve">
<g>
	<title>police-woman-2</title>
	<path d="M23,24c-0.276,0-0.5-0.224-0.5-0.5v-2.106c0.003-0.461-0.212-0.903-0.575-1.183c-1.277-0.974-4.187-2.606-9.425-2.705V23.5
		c0,0.276-0.224,0.5-0.5,0.5c-0.276,0-0.5-0.224-0.5-0.5v-5.994c-5.227,0.099-8.145,1.732-9.427,2.707
		c-0.361,0.278-0.576,0.719-0.573,1.177V23.5C1.5,23.776,1.276,24,1,24s-0.5-0.224-0.5-0.5v-2.106
		c-0.005-0.767,0.355-1.505,0.965-1.975C2.899,18.328,6.173,16.5,12,16.5c5.839,0,9.106,1.828,10.533,2.918
		c0.611,0.471,0.972,1.21,0.967,1.98V23.5C23.5,23.776,23.276,24,23,24z"/>
	<path d="M16.5,24c-0.099,0-0.195-0.029-0.278-0.084l-0.609-0.406c-0.697-0.464-1.114-1.242-1.114-2.08V21c0-0.552,0.448-1,1-1h2
		c0.552,0,1,0.448,1,1v0.43c0,0.838-0.417,1.616-1.114,2.08l-0.608,0.406C16.695,23.971,16.599,24,16.5,24z M15.5,21.43
		c0,0.503,0.25,0.969,0.668,1.248l0.332,0.221l0.332-0.221c0.418-0.279,0.668-0.745,0.668-1.248V21h-2L15.5,21.43z"/>
	<path d="M12,12.997c-0.648,0-1.287-0.212-1.8-0.596c-0.107-0.08-0.176-0.197-0.195-0.329C9.986,11.939,10.02,11.807,10.1,11.7
		c0.094-0.125,0.244-0.2,0.4-0.2c0.109,0,0.213,0.035,0.3,0.1c0.341,0.256,0.768,0.397,1.2,0.397c0.432,0,0.859-0.141,1.2-0.397
		c0.086-0.065,0.19-0.1,0.3-0.1c0.157,0,0.306,0.075,0.4,0.2c0.08,0.107,0.114,0.238,0.095,0.371
		c-0.019,0.132-0.088,0.249-0.195,0.329C13.287,12.785,12.648,12.997,12,12.997z"/>
	<path d="M12,5.5c-0.067,0-0.132-0.013-0.193-0.039c-0.953-0.4-1.626-1.284-1.756-2.309c-0.041-0.254,0.023-0.518,0.181-0.736
		c0.158-0.218,0.391-0.361,0.656-0.403C10.94,2.005,10.994,2,11.047,2h1.91c0.56,0.006,1.008,0.463,1.002,1.019
		c0,0.047-0.004,0.096-0.012,0.145c-0.131,1.016-0.803,1.899-1.754,2.298C12.132,5.487,12.067,5.5,12,5.5z M11.047,3
		C11.119,3.624,11.474,4.15,12,4.445c0.519-0.292,0.882-0.825,0.957-1.418L12.954,2.75V3H11.047z"/>
	<path d="M12,16c-2.733,0-5.173-1.748-6.101-4.262c-0.444,1.334-1.093,2.29-1.935,2.847l-0.021,0.015
		c0.502,0.232,1.046,0.348,1.607,0.348c0.275,0,0.552-0.029,0.823-0.085c0.032-0.007,0.068-0.011,0.103-0.011
		c0.235,0,0.44,0.167,0.488,0.398c0.027,0.131,0.002,0.264-0.071,0.376c-0.073,0.112-0.186,0.188-0.317,0.215
		c-0.337,0.07-0.682,0.106-1.025,0.106c-0.705,0-1.392-0.148-2.042-0.44c-0.187-0.097-0.325-0.224-0.422-0.385
		c-0.139-0.231-0.18-0.502-0.116-0.763C3.037,14.1,3.199,13.879,3.43,13.74c1.408-0.933,1.856-3.308,1.994-4.498
		C5.408,9.239,5.341,9.223,5.341,9.223C4.959,9.127,4.632,8.885,4.427,8.541C4.221,8.198,4.161,7.794,4.258,7.406l0.256-1.025
		c0.51-3.25,3.055-5.788,6.328-6.294c0.385-0.059,0.776-0.09,1.163-0.09c3.696,0,6.914,2.756,7.486,6.412
		c0,0,0.257,1.024,0.257,1.025c0.09,0.388,0.023,0.789-0.189,1.129c-0.212,0.34-0.544,0.577-0.934,0.668
		c-0.018,0.004-0.035,0.008-0.053,0.012c0.138,1.19,0.588,3.566,2.012,4.508c0.14,0.083,0.269,0.222,0.354,0.384
		c0.125,0.239,0.15,0.512,0.069,0.769c-0.08,0.257-0.256,0.467-0.495,0.592c-0.674,0.302-1.366,0.451-2.073,0.451
		c-0.354,0-0.712-0.039-1.064-0.115c-0.27-0.059-0.441-0.325-0.383-0.594c0.05-0.229,0.255-0.395,0.489-0.395
		c0.035,0,0.071,0.004,0.106,0.011c0.282,0.061,0.57,0.092,0.855,0.092c0.552,0,1.092-0.114,1.604-0.337
		c-0.85-0.578-1.502-1.536-1.948-2.869C17.171,14.253,14.731,16,12,16z M6.5,9.5c0,3.033,2.467,5.5,5.5,5.5s5.5-2.467,5.5-5.5V9.464
		c-1.811,0.34-3.658,0.52-5.496,0.536C10.16,9.984,8.311,9.803,6.5,9.464V9.5z M5.228,7.648c-0.067,0.267,0.096,0.54,0.364,0.606
		C7.693,8.73,9.852,8.981,12.004,9c2.145-0.019,4.299-0.27,6.398-0.744c0.128-0.03,0.238-0.109,0.309-0.222
		c0.071-0.113,0.093-0.247,0.063-0.377L18.61,7H5.39L5.228,7.648z M18.389,6c-0.72-2.916-3.358-5.002-6.386-5.002
		c-0.335,0-0.674,0.026-1.008,0.078C8.331,1.487,6.25,3.405,5.615,6H18.389z"/>
</g>
</svg>
