<?xml version="1.0" encoding="utf-8"?>
<!-- Generator: Adobe Illustrator 22.1.0, SVG Export Plug-In . SVG Version: 6.00 Build 0)  -->
<svg version="1.1" id="Layer_1" xmlns="http://www.w3.org/2000/svg" xmlns:xlink="http://www.w3.org/1999/xlink" x="0px" y="0px"
	 viewBox="0 0 24 24" style="enable-background:new 0 0 24 24;" xml:space="preserve">
<g>
	<title>police-woman-4</title>
	<path d="M23,23.662c-0.276,0-0.5-0.224-0.5-0.5v-2.107c0.003-0.461-0.212-0.903-0.575-1.183c-1.271-0.974-4.173-2.605-9.425-2.704
		v5.994c0,0.276-0.224,0.5-0.5,0.5c-0.276,0-0.5-0.224-0.5-0.5v-5.994c-5.24,0.099-8.15,1.731-9.427,2.706
		c-0.362,0.279-0.576,0.719-0.573,1.178v2.11c0,0.276-0.224,0.5-0.5,0.5s-0.5-0.224-0.5-0.5v-2.107
		c-0.005-0.767,0.356-1.505,0.965-1.975C2.893,17.99,6.16,16.162,12,16.162c5.852,0,9.112,1.828,10.534,2.917
		c0.61,0.47,0.971,1.21,0.966,1.979v2.104C23.5,23.438,23.276,23.662,23,23.662z"/>
	<path d="M16.5,23.662c-0.099,0-0.195-0.029-0.278-0.084l-0.609-0.407c-0.697-0.464-1.113-1.241-1.113-2.08v-0.429
		c0-0.552,0.448-1,1-1h2c0.552,0,1,0.448,1,1v0.429c0,0.838-0.417,1.616-1.114,2.08l-0.608,0.406
		C16.695,23.633,16.599,23.662,16.5,23.662z M15.5,21.091c0,0.503,0.25,0.969,0.668,1.248l0.332,0.221l0.331-0.221
		c0.419-0.279,0.669-0.746,0.669-1.249v-0.429h-2L15.5,21.091z"/>
	<path d="M12,12.658c-0.648,0-1.287-0.212-1.8-0.597c-0.107-0.08-0.176-0.197-0.195-0.329C9.986,11.6,10.02,11.469,10.1,11.362
		c0.094-0.125,0.244-0.2,0.4-0.2c0.109,0,0.213,0.035,0.3,0.1c0.341,0.256,0.767,0.397,1.2,0.397c0.432,0,0.859-0.141,1.2-0.397
		c0.086-0.065,0.19-0.1,0.299-0.1c0.157,0,0.306,0.075,0.4,0.2c0.08,0.107,0.114,0.238,0.095,0.371
		c-0.019,0.132-0.088,0.249-0.195,0.329C13.287,12.447,12.648,12.658,12,12.658z"/>
	<path d="M12,4.662c-0.414,0-0.75-0.336-0.75-0.75c-0.001-0.198,0.076-0.386,0.217-0.529c0.141-0.142,0.328-0.22,0.529-0.221
		c0.418,0,0.754,0.336,0.754,0.75S12.414,4.662,12,4.662z"/>
	<path d="M12,15.662c-2.711,0-5.149-1.735-6.088-4.229c-0.45,1.309-1.104,2.254-1.948,2.813l-0.235,0.15l0.214-0.129
		c0.501,0.225,1.046,0.341,1.607,0.341c0.275,0,0.552-0.029,0.823-0.085c0.034-0.007,0.068-0.01,0.101-0.01
		c0.236,0,0.443,0.168,0.49,0.398c0.056,0.27-0.118,0.535-0.388,0.591c-0.339,0.07-0.683,0.105-1.024,0.105
		c-0.705,0-1.392-0.147-2.042-0.438c-0.188-0.097-0.327-0.225-0.424-0.386C2.8,14.308,2.955,13.688,3.43,13.402
		c1.307-0.867,1.928-3.113,2.071-4.924L5.5,6.472C5.17,6.291,4.92,5.994,4.801,5.636l-1-2.992C3.748,2.484,3.736,2.312,3.767,2.148
		c0.088-0.474,0.501-0.818,0.983-0.818c0.061,0,0.122,0.006,0.183,0.017c0.813,0.16,1.875,0.343,2.913,0.343
		c1.457,0,2.606-0.366,3.513-1.118c0.179-0.151,0.409-0.235,0.645-0.235c0.237,0,0.468,0.085,0.649,0.238
		c0.906,0.751,2.054,1.117,3.508,1.117c0.809,0,1.705-0.106,2.905-0.344c0.063-0.012,0.126-0.018,0.188-0.018
		c0.106,0,0.211,0.017,0.312,0.05c0.254,0.084,0.46,0.261,0.581,0.5c0.12,0.238,0.141,0.509,0.057,0.763l-1.001,2.994
		c-0.119,0.359-0.371,0.657-0.702,0.838v2.023c0.142,1.791,0.765,4.038,2.086,4.916c0.141,0.084,0.271,0.224,0.355,0.386
		c0.124,0.238,0.148,0.51,0.067,0.767c-0.081,0.257-0.257,0.466-0.495,0.591c-0.673,0.302-1.365,0.452-2.072,0.452
		c-0.355,0-0.714-0.039-1.066-0.115c-0.131-0.028-0.242-0.106-0.315-0.218c-0.072-0.112-0.096-0.246-0.068-0.377
		c0.05-0.228,0.255-0.394,0.489-0.394c0.036,0,0.072,0.004,0.107,0.012c0.282,0.061,0.57,0.093,0.856,0.093
		c0.552,0,1.091-0.114,1.603-0.338c-0.853-0.581-1.508-1.529-1.959-2.839C17.15,13.927,14.712,15.662,12,15.662z M6.5,9.162
		c0,3.033,2.467,5.5,5.5,5.5s5.5-2.467,5.5-5.5V8.067c-1.161,0.995-3.193,1.595-5.5,1.595c-2.307,0-4.339-0.6-5.5-1.595V9.162z
		 M6.623,6.662c0.545,1.127,2.829,2,5.377,2c2.548,0,4.832-0.873,5.377-2H6.623z M5.749,5.32c0.068,0.205,0.259,0.342,0.475,0.342
		h11.555c0.216,0,0.406-0.137,0.474-0.342l1-2.993c-0.767,0.154-1.923,0.357-3.07,0.357c-1.719,0-3.084-0.439-4.174-1.344
		c-1.107,0.908-2.463,1.35-4.156,1.35C6.977,2.691,6.02,2.58,4.75,2.33L5.749,5.32z"/>
</g>
</svg>
