<?xml version="1.0" encoding="utf-8"?>
<!-- Generator: Adobe Illustrator 22.1.0, SVG Export Plug-In . SVG Version: 6.00 Build 0)  -->
<svg version="1.1" id="Layer_1" xmlns="http://www.w3.org/2000/svg" xmlns:xlink="http://www.w3.org/1999/xlink" x="0px" y="0px"
	 viewBox="0 0 24 24" style="enable-background:new 0 0 24 24;" xml:space="preserve">
<g>
	<title>police-woman-spy-1</title>
	<path d="M12,12.996c-0.648,0-1.287-0.212-1.8-0.597c-0.107-0.08-0.176-0.197-0.195-0.329C9.986,11.938,10.02,11.807,10.1,11.7
		c0.094-0.125,0.244-0.2,0.4-0.2c0.109,0,0.213,0.035,0.3,0.1c0.341,0.256,0.768,0.397,1.2,0.397c0.432,0,0.859-0.141,1.2-0.397
		c0.086-0.065,0.19-0.1,0.299-0.1c0.157,0,0.306,0.075,0.4,0.2c0.08,0.107,0.114,0.238,0.095,0.371
		c-0.019,0.132-0.088,0.249-0.195,0.329C13.287,12.784,12.648,12.996,12,12.996z"/>
	<path d="M12,16c-2.73,0-5.171-1.747-6.1-4.259c-0.355,1.05-0.95,2.193-1.94,2.847l-0.019,0.018
		c0.504,0.228,1.051,0.345,1.615,0.345c0.279,0,0.561-0.03,0.837-0.088c0.034-0.007,0.069-0.011,0.103-0.011
		c0.235,0,0.441,0.167,0.489,0.397c0.057,0.27-0.116,0.535-0.386,0.593c-0.344,0.073-0.694,0.109-1.041,0.109
		c-0.708,0-1.397-0.149-2.05-0.442c-0.187-0.096-0.325-0.223-0.422-0.384c-0.287-0.475-0.135-1.095,0.34-1.382
		C5.061,12.662,5.5,9.624,5.5,8H4C3.724,8,3.5,7.776,3.5,7.5S3.724,7,4,7h1.517c0.135-2.172,1.094-5.567,2.666-6.705
		c0.02-0.014,0.04-0.028,0.061-0.042C8.492,0.09,8.781,0.004,9.078,0.004c0.519,0,0.997,0.258,1.281,0.691
		C10.726,1.23,11.341,1.553,12,1.553s1.275-0.324,1.648-0.867c0.006-0.009,0.02-0.03,0.036-0.052c0.24-0.33,0.594-0.547,0.997-0.611
		c0.08-0.013,0.161-0.019,0.242-0.019c0.323,0,0.633,0.101,0.896,0.292C17.389,1.433,18.348,4.827,18.483,7H20
		c0.276,0,0.5,0.224,0.5,0.5S20.276,8,20,8h-1.5c0,1.624,0.44,4.663,2.09,5.753c0.218,0.132,0.377,0.351,0.44,0.612
		c0.063,0.261,0.021,0.531-0.117,0.759c-0.096,0.158-0.233,0.287-0.398,0.372c-0.673,0.303-1.367,0.454-2.077,0.454
		c-0.344,0-0.693-0.036-1.035-0.108c-0.27-0.056-0.443-0.322-0.386-0.592c0.048-0.23,0.254-0.397,0.49-0.397
		c0.034,0,0.069,0.004,0.102,0.011c0.275,0.058,0.555,0.087,0.833,0.087c0.555,0,1.097-0.115,1.611-0.341
		c-0.998-0.671-1.596-1.818-1.952-2.87C17.172,14.252,14.731,16,12,16z M6.5,9.5c0,3.033,2.467,5.5,5.5,5.5s5.5-2.467,5.5-5.5V8
		c0,0.966-0.266,1.725-0.79,2.256c-0.467,0.473-1.102,0.722-1.838,0.722c-1.132,0-2.253-0.582-2.872-1.455
		c-0.619,0.873-1.74,1.455-2.872,1.455c-0.736,0-1.371-0.25-1.838-0.722C6.766,9.725,6.5,8.966,6.5,8V9.5z M12.5,8
		c0,1.132,1.252,1.978,2.372,1.978c0.322,0,0.78-0.074,1.126-0.425C16.331,9.216,16.5,8.693,16.5,8H12.5z M7.5,8
		c0,0.693,0.169,1.216,0.502,1.553c0.347,0.351,0.804,0.425,1.126,0.425c1.12,0,2.372-0.846,2.372-1.978H7.5z M17.481,7
		c-0.022-0.31-0.062-0.649-0.12-1H6.639c-0.057,0.351-0.098,0.69-0.12,1H17.481z M17.159,5c-0.363-1.514-1.037-3.25-1.928-3.895
		c-0.091-0.066-0.198-0.101-0.309-0.101c-0.028,0-0.056,0.002-0.084,0.007c-0.139,0.022-0.262,0.097-0.344,0.211l-0.017,0.025
		C13.914,2.065,12.988,2.553,12,2.553c-0.988,0-1.912-0.486-2.472-1.301c-0.103-0.157-0.27-0.248-0.45-0.248
		c-0.102,0-0.201,0.03-0.287,0.086L8.765,1.108C7.879,1.75,7.204,3.486,6.841,5H17.159z"/>
	<path d="M23,24c-0.276,0-0.5-0.224-0.5-0.5v-2.106c0.003-0.461-0.212-0.903-0.575-1.183c-0.419-0.32-1.09-0.765-2.035-1.199
		l0.896,1.923c0.194,0.419,0.079,0.913-0.28,1.201l-2.194,1.755C18.224,23.961,18.113,24,18,24c-0.152,0-0.295-0.068-0.39-0.187
		c-0.173-0.216-0.137-0.531,0.077-0.703l2.193-1.754l-1.344-2.881c-0.318-0.108-0.648-0.208-0.986-0.299l-2.083,5.501
		C15.395,23.87,15.207,24,15,24c-0.06,0-0.12-0.011-0.177-0.032c-0.258-0.098-0.389-0.387-0.291-0.645l2.038-5.381
		C15.164,17.648,13.628,17.5,12,17.5c-1.627,0-3.163,0.149-4.57,0.443l2.037,5.38c0.098,0.258-0.033,0.547-0.29,0.645
		C9.12,23.989,9.061,24,9,24c-0.207,0-0.394-0.13-0.468-0.323l-2.083-5.5c-0.336,0.091-0.665,0.19-0.981,0.297L4.12,21.358
		l2.192,1.751c0.215,0.173,0.25,0.488,0.078,0.703C6.295,23.931,6.152,24,6,24c-0.113,0-0.224-0.039-0.312-0.11l-2.193-1.754
		c-0.36-0.29-0.475-0.783-0.281-1.201l0.9-1.923c-0.945,0.434-1.619,0.88-2.041,1.201C1.711,20.491,1.497,20.932,1.5,21.39V23.5
		C1.5,23.775,1.276,24,1,24s-0.5-0.224-0.5-0.5v-2.106c-0.005-0.766,0.355-1.505,0.965-1.975C2.9,18.328,6.174,16.5,12,16.5
		c2.626,0,5.001,0.37,7.06,1.099c0.005,0.002,0.028,0.01,0.033,0.012c1.658,0.589,2.787,1.308,3.44,1.806
		c0.611,0.471,0.972,1.211,0.967,1.98V23.5C23.5,23.775,23.276,24,23,24z"/>
	<path d="M10.5,24c-0.037,0-0.074-0.004-0.11-0.012c-0.269-0.061-0.438-0.329-0.377-0.598l1.018-4.5
		c0.099-0.361,0.361-0.626,0.704-0.721c0.087-0.024,0.176-0.036,0.265-0.036c0.449,0,0.846,0.302,0.964,0.734l1.024,4.522
		c0.03,0.13,0.006,0.264-0.065,0.377s-0.182,0.191-0.312,0.221C13.574,23.996,13.537,24,13.5,24c-0.235,0-0.435-0.16-0.488-0.389
		l-1.01-4.467l-1.014,4.467C10.936,23.836,10.731,24,10.5,24z"/>
</g>
</svg>
