<?xml version="1.0" encoding="utf-8"?>
<!-- Generator: Adobe Illustrator 22.1.0, SVG Export Plug-In . SVG Version: 6.00 Build 0)  -->
<svg version="1.1" id="Layer_1" xmlns="http://www.w3.org/2000/svg" xmlns:xlink="http://www.w3.org/1999/xlink" x="0px" y="0px"
	 viewBox="0 0 24 24" style="enable-background:new 0 0 24 24;" xml:space="preserve">
<g>
	<title>police-woman-3</title>
	<path d="M23,24c-0.276,0-0.5-0.224-0.5-0.5v-2.106c0.003-0.461-0.212-0.903-0.575-1.183c-1.277-0.974-4.187-2.606-9.425-2.705V23.5
		c0,0.276-0.224,0.5-0.5,0.5c-0.276,0-0.5-0.224-0.5-0.5v-5.994c-5.227,0.099-8.145,1.732-9.427,2.707
		c-0.361,0.278-0.576,0.719-0.573,1.178V23.5C1.5,23.776,1.276,24,1,24s-0.5-0.224-0.5-0.5v-2.106
		c-0.005-0.766,0.355-1.505,0.965-1.975C2.9,18.328,6.174,16.5,12,16.5c5.839,0,9.105,1.828,10.533,2.917
		c0.611,0.471,0.972,1.211,0.967,1.98V23.5C23.5,23.776,23.276,24,23,24z"/>
	<path d="M16.5,24c-0.099,0-0.195-0.029-0.278-0.084l-0.609-0.406c-0.697-0.464-1.114-1.242-1.114-2.08V20.5
		c0-0.276,0.224-0.5,0.5-0.5h3c0.276,0,0.5,0.224,0.5,0.5v0.93c0,0.838-0.417,1.616-1.114,2.08l-0.609,0.406
		C16.695,23.971,16.599,24,16.5,24z M15.5,21.43c0,0.503,0.25,0.969,0.668,1.248l0.332,0.221l0.332-0.221
		c0.418-0.279,0.668-0.745,0.668-1.248V21h-2V21.43z"/>
	<path d="M12,13.997c-0.648,0-1.287-0.212-1.8-0.597c-0.107-0.08-0.176-0.197-0.195-0.329C9.986,12.938,10.02,12.807,10.1,12.7
		c0.094-0.125,0.243-0.2,0.4-0.2c0.109,0,0.212,0.035,0.3,0.1c0.342,0.256,0.768,0.397,1.2,0.397c0.432,0,0.859-0.141,1.2-0.397
		c0.087-0.065,0.19-0.1,0.3-0.1c0.157,0,0.307,0.075,0.4,0.201c0.08,0.106,0.114,0.238,0.095,0.37
		c-0.019,0.132-0.088,0.25-0.195,0.33C13.287,13.785,12.648,13.997,12,13.997z"/>
	<path d="M12,16c-2.73,0-5.171-1.747-6.1-4.26c-0.358,1.06-0.961,2.212-1.965,2.863c0.505,0.227,1.052,0.345,1.617,0.345
		c0.28,0,0.563-0.03,0.84-0.089c0.034-0.007,0.069-0.011,0.104-0.011c0.234,0,0.44,0.167,0.489,0.396
		c0.057,0.27-0.115,0.536-0.385,0.593c-0.345,0.073-0.697,0.11-1.046,0.11c-0.708,0-1.399-0.149-2.052-0.443
		c-0.177-0.09-0.31-0.208-0.407-0.358c-0.145-0.224-0.194-0.491-0.138-0.753c0.056-0.261,0.211-0.485,0.435-0.63
		C5.059,12.683,5.5,9.521,5.5,8V7.539c-1.057-0.151-2.1-0.336-3.104-0.55C2.265,6.961,2.153,6.884,2.081,6.772
		s-0.097-0.246-0.07-0.376C2.06,6.166,2.265,6,2.5,6C2.535,6,2.57,6.004,2.605,6.011c0.964,0.205,1.968,0.383,2.988,0.531
		l0.883-3.829C6.845,1.115,8.247,0,9.886,0h4.227c1.64,0,3.042,1.115,3.411,2.712l0.883,3.829c1.02-0.147,2.024-0.325,2.989-0.531
		C21.429,6.004,21.465,6,21.5,6c0.234,0,0.439,0.167,0.489,0.396c0.057,0.27-0.115,0.536-0.385,0.594
		c-1.005,0.214-2.048,0.399-3.104,0.55V8c0,1.521,0.441,4.683,2.109,5.765c0.224,0.145,0.378,0.368,0.434,0.629
		c0.056,0.261,0.007,0.529-0.138,0.753c-0.095,0.147-0.228,0.267-0.384,0.347c-0.67,0.302-1.364,0.453-2.074,0.453
		c-0.345,0-0.694-0.037-1.036-0.109c-0.131-0.028-0.243-0.104-0.316-0.216s-0.098-0.246-0.07-0.376
		c0.049-0.23,0.254-0.397,0.489-0.397c0.034,0,0.069,0.004,0.103,0.011c0.275,0.058,0.555,0.087,0.832,0.087
		c0.556,0,1.097-0.115,1.611-0.342c-1.001-0.654-1.603-1.805-1.96-2.865C17.171,14.253,14.73,16,12,16z M7.215,12.21
		C8.182,13.908,10.009,15,12,15c1.991,0,3.818-1.092,4.785-2.79C16.387,12.4,15.95,12.5,15.5,12.5c-1.59,0-2.885-1.221-2.99-2.797
		c-0.019-0.018-0.038-0.034-0.056-0.049c-0.132-0.1-0.288-0.152-0.45-0.152c-0.035,0-0.071,0.002-0.107,0.008
		c-0.154,0.021-0.293,0.089-0.407,0.197C11.383,11.281,10.088,12.5,8.5,12.5C8.05,12.5,7.613,12.4,7.215,12.21z M15.5,8.5
		c-1.698,0-2,0.262-2,1c0,1.103,0.897,2,2,2s2-0.897,2-2C17.5,8.762,17.198,8.5,15.5,8.5z M8.5,8.5c-1.698,0-2,0.262-2,1
		c0,1.103,0.897,2,2,2s2-0.897,2-2C10.5,8.762,10.198,8.5,8.5,8.5z M12.002,8.502c0.228,0,0.453,0.045,0.662,0.132
		c0.118-0.276,0.294-0.485,0.505-0.643c-0.391,0.01-0.781,0.016-1.17,0.016s-0.779-0.005-1.17-0.016
		c0.211,0.158,0.387,0.367,0.505,0.643c0.135-0.056,0.276-0.094,0.423-0.114C11.838,8.507,11.921,8.502,12.002,8.502z M17.268,7.699
		c0.079,0.027,0.157,0.059,0.232,0.094V7.671C17.423,7.681,17.345,7.69,17.268,7.699z M6.5,7.793
		c0.075-0.036,0.153-0.067,0.232-0.094C6.655,7.69,6.577,7.681,6.5,7.671V7.793z M6.588,6.675C8.383,6.893,10.202,7.004,12,7.004
		s3.617-0.111,5.412-0.329L16.55,2.937C16.286,1.797,15.285,1,14.114,1H9.886C8.715,1,7.714,1.797,7.45,2.938L6.588,6.675z"/>
	<path d="M12,6c-0.054,0-0.107-0.009-0.158-0.026C11.767,5.949,10,5.329,10,2.5C10,2.224,10.224,2,10.5,2h3
		C13.776,2,14,2.224,14,2.5c0,2.829-1.767,3.449-1.842,3.474C12.107,5.991,12.054,6,12,6z M11.024,3
		c0.122,1.241,0.684,1.755,0.978,1.942C12.294,4.757,12.856,4.246,12.977,3H11.024z"/>
</g>
</svg>
