<?xml version="1.0" encoding="utf-8"?>
<!-- Generator: Adobe Illustrator 22.1.0, SVG Export Plug-In . SVG Version: 6.00 Build 0)  -->
<svg version="1.1" id="Layer_1" xmlns="http://www.w3.org/2000/svg" xmlns:xlink="http://www.w3.org/1999/xlink" x="0px" y="0px"
	 viewBox="0 0 24 24" style="enable-background:new 0 0 24 24;" xml:space="preserve">
<g>
	<title>passport-globe</title>
	<path d="M7.984,16.008c-1.551,0-3.063-0.454-4.374-1.314c-1.786-1.172-3.009-2.97-3.444-5.063C-0.267,7.539,0.14,5.403,1.312,3.617
		c1.172-1.786,2.97-3.009,5.063-3.444c0.536-0.112,1.084-0.168,1.628-0.168c3.77,0,7.063,2.681,7.831,6.376
		c0.055,0.268-0.114,0.535-0.377,0.595c-0.037,0.009-0.076,0.013-0.114,0.013c-0.229,0-0.427-0.153-0.481-0.373
		c-0.001-0.003-0.008-0.035-0.01-0.044c-0.192-0.924-0.567-1.791-1.113-2.57h-2.46c-0.23,0-0.429,0.156-0.485,0.379l-0.5,2
		c-0.032,0.129-0.012,0.264,0.056,0.379s0.178,0.196,0.307,0.228c0.04,0.01,0.081,0.015,0.122,0.015h0.219
		c0.276,0,0.5,0.224,0.5,0.5s-0.224,0.5-0.5,0.5h-0.219c-0.123,0-0.245-0.015-0.364-0.045C9.613,7.755,9.123,6.938,9.324,6.136
		l0.5-2c0.168-0.669,0.766-1.136,1.455-1.136h1.61C11.582,1.726,9.83,1.005,8.001,1.005c-0.475,0-0.954,0.049-1.423,0.147
		c-1.831,0.38-3.404,1.45-4.43,3.013C1.773,4.737,1.486,5.353,1.291,6.001h2.926c0.689,0,1.287,0.467,1.455,1.135l0.5,2
		c0.03,0.119,0.045,0.241,0.045,0.364c0,0.827-0.673,1.5-1.5,1.5H4.408l-0.532,2.66c0.101,0.074,0.193,0.139,0.283,0.198
		c1.147,0.753,2.47,1.15,3.825,1.15c0.479,0,0.963-0.05,1.438-0.149c0.035-0.007,0.068-0.01,0.101-0.01
		c0.236,0,0.442,0.168,0.49,0.399c0.027,0.131,0.002,0.264-0.072,0.376c-0.073,0.112-0.186,0.188-0.317,0.215
		C9.085,15.951,8.532,16.008,7.984,16.008z M1.071,7.001C0.954,7.807,0.979,8.622,1.146,9.428c0.277,1.335,0.917,2.531,1.859,3.486
		l0.502-2.512c0.046-0.233,0.253-0.402,0.49-0.402h0.719c0.276,0,0.5-0.224,0.5-0.5c0-0.041-0.005-0.082-0.015-0.122l-0.5-2
		C4.646,7.156,4.447,7.001,4.217,7.001H1.071z"/>
	<path d="M13.498,24.001c-1.379,0-2.5-1.122-2.5-2.5v-11c0-1.379,1.121-2.5,2.5-2.5h8c1.378,0,2.5,1.121,2.5,2.5v11
		c0,1.378-1.122,2.5-2.5,2.5H13.498z M13.498,9.001c-0.827,0-1.5,0.673-1.5,1.5v11c0,0.827,0.673,1.5,1.5,1.5h8
		c0.827,0,1.5-0.673,1.5-1.5v-11c0-0.827-0.673-1.5-1.5-1.5H13.498z"/>
	<path d="M17.498,20.001c-2.481,0-4.5-2.019-4.5-4.5s2.019-4.5,4.5-4.5s4.5,2.019,4.5,4.5S19.979,20.001,17.498,20.001z
		 M16.512,16.001c0.096,1.98,0.723,3,0.986,3s0.89-1.02,0.986-3H16.512z M19.485,16.001c-0.047,1.03-0.237,1.975-0.53,2.678
		c1.073-0.491,1.833-1.495,2.003-2.678H19.485z M14.038,16.001c0.169,1.183,0.93,2.187,2.003,2.678
		c-0.293-0.703-0.482-1.648-0.53-2.678H14.038z M20.958,15.001c-0.169-1.183-0.93-2.187-2.003-2.678
		c0.293,0.703,0.482,1.648,0.53,2.678H20.958z M18.484,15.001c-0.096-1.98-0.723-3-0.986-3s-0.89,1.02-0.986,3H18.484z
		 M15.511,15.001c0.047-1.03,0.237-1.975,0.53-2.678c-1.073,0.491-1.833,1.495-2.003,2.678H15.511z"/>
</g>
</svg>
