<?xml version="1.0" encoding="utf-8"?>
<!-- Generator: Adobe Illustrator 22.1.0, SVG Export Plug-In . SVG Version: 6.00 Build 0)  -->
<svg version="1.1" id="Light" xmlns="http://www.w3.org/2000/svg" xmlns:xlink="http://www.w3.org/1999/xlink" x="0px" y="0px"
	 viewBox="0 0 24 24" style="enable-background:new 0 0 24 24;" xml:space="preserve">
<g>
	<title>natural-disaster-hurricane-radar</title>
	<path d="M10.487,21.031c-1.669,0-3.344-0.413-4.843-1.195c-2.487-1.297-4.32-3.484-5.161-6.16c-0.84-2.671-0.588-5.513,0.711-8.003
		c1.298-2.49,3.484-4.323,6.156-5.163C8.38,0.185,9.444,0.02,10.511,0.02c1.669,0,3.344,0.413,4.843,1.195
		c2.487,1.297,4.32,3.485,5.161,6.16c0.321,1.019,0.483,2.078,0.484,3.147c0,0.201-0.12,0.382-0.305,0.461
		c-0.062,0.026-0.127,0.039-0.195,0.039H17.53c-0.011,0.001-0.021,0.002-0.031,0.002c-0.01,0-0.021-0.001-0.032-0.002l-3.005,0
		c-0.201,1.556-1.31,2.874-2.82,3.323c-0.21,0.062-0.425,0.107-0.643,0.134v2.524c0.793-0.06,1.561-0.263,2.286-0.607
		c0.068-0.032,0.14-0.048,0.214-0.048c0.192,0,0.37,0.112,0.452,0.286c0.057,0.12,0.064,0.256,0.019,0.382
		c-0.045,0.126-0.136,0.227-0.257,0.284c-0.858,0.407-1.77,0.643-2.714,0.704v2.009c0.799-0.043,1.588-0.186,2.35-0.426
		c0.049-0.015,0.099-0.023,0.15-0.023c0.219,0,0.41,0.141,0.477,0.35c0.04,0.127,0.028,0.263-0.034,0.381s-0.166,0.206-0.293,0.246
		C12.618,20.866,11.554,21.031,10.487,21.031z M1.014,11.023c0.042,0.801,0.183,1.591,0.423,2.353c0.761,2.421,2.42,4.4,4.669,5.573
		c1.224,0.638,2.532,0.997,3.893,1.066v-2.014C7.28,17.817,4.891,16.2,3.723,13.737c-0.408-0.861-0.646-1.773-0.708-2.714H1.014z
		 M4.017,11.023c0.061,0.792,0.265,1.559,0.61,2.285c1.002,2.114,3.045,3.511,5.372,3.693v-2.524
		c-1.555-0.201-2.874-1.311-3.323-2.823c-0.06-0.203-0.104-0.414-0.131-0.631H4.017z M10.999,13.469
		c0.122-0.02,0.242-0.047,0.358-0.082c1.087-0.323,1.901-1.254,2.094-2.364h-2.453V13.469z M7.554,11.023
		c0.02,0.118,0.047,0.234,0.08,0.347c0.323,1.087,1.255,1.901,2.364,2.094v-2.441H7.554z M19.979,10.023
		c-0.042-0.808-0.182-1.597-0.418-2.347c-0.344-1.092-0.869-2.097-1.564-2.989l-6.158,5.337h1.617
		c-0.02-0.122-0.048-0.242-0.082-0.359c-0.038-0.128-0.024-0.263,0.04-0.381c0.064-0.117,0.169-0.203,0.297-0.241
		c0.047-0.014,0.095-0.021,0.144-0.021c0.222,0,0.414,0.144,0.478,0.357c0.061,0.206,0.105,0.421,0.133,0.644h2.508
		c-0.047-0.633-0.181-1.244-0.401-1.819c-0.098-0.258,0.031-0.547,0.289-0.646c0.057-0.022,0.117-0.033,0.178-0.033
		c0.206,0,0.394,0.129,0.467,0.322c0.267,0.698,0.426,1.429,0.474,2.176H19.979z M9.999,10.023V7.566
		c-0.118,0.02-0.234,0.047-0.347,0.08c-0.767,0.228-1.399,0.74-1.78,1.444c-0.159,0.293-0.266,0.605-0.32,0.932H9.999z
		 M6.546,10.023c0.197-1.561,1.306-2.884,2.821-3.334c0.206-0.061,0.418-0.106,0.632-0.133v-2.51
		C9.202,4.106,8.435,4.309,7.715,4.65C6.146,5.394,4.961,6.704,4.378,8.34c-0.194,0.545-0.315,1.11-0.36,1.683H6.546z M3.015,10.023
		c0.047-0.688,0.188-1.366,0.421-2.019c0.673-1.887,2.041-3.399,3.851-4.257c0.854-0.405,1.765-0.641,2.712-0.704V1.037
		C9.201,1.08,8.411,1.223,7.649,1.463c-3.784,1.19-6.422,4.61-6.634,8.56H3.015z M10.999,9.428l6.343-5.497
		c-0.71-0.736-1.533-1.35-2.45-1.828c-1.224-0.638-2.532-0.996-3.893-1.067v2.006c1.142,0.077,2.261,0.415,3.25,0.986
		c0.239,0.138,0.321,0.444,0.183,0.683c-0.09,0.154-0.256,0.25-0.434,0.25c-0.087,0-0.173-0.023-0.249-0.067
		c-0.839-0.484-1.784-0.776-2.75-0.851v2.51c0.22,0.027,0.437,0.073,0.648,0.135c0.264,0.079,0.415,0.358,0.336,0.622
		c-0.062,0.21-0.259,0.357-0.479,0.357c-0.048,0-0.097-0.007-0.143-0.021c-0.118-0.035-0.239-0.063-0.362-0.084V9.428z"/>
	<path d="M19.499,16.023c-2.236,0-4.5-0.687-4.5-2s2.264-2,4.5-2s4.5,0.687,4.5,2S21.735,16.023,19.499,16.023z M19.499,13.023
		c-2.273,0-3.5,0.71-3.5,1s1.227,1,3.5,1s3.5-0.71,3.5-1S21.772,13.023,19.499,13.023z"/>
	<path d="M19.499,18.023c-1.995,0-3.5-0.86-3.5-2c0-0.276,0.224-0.5,0.5-0.5s0.5,0.224,0.5,0.5c0,0.398,0.997,1,2.5,1
		s2.5-0.602,2.5-1c0-0.276,0.224-0.5,0.5-0.5s0.5,0.224,0.5,0.5C22.999,17.163,21.494,18.023,19.499,18.023z"/>
	<path d="M19.499,20.023c-1.402,0-2.5-0.769-2.5-1.75c0-0.276,0.224-0.5,0.5-0.5s0.5,0.224,0.5,0.5c0,0.354,0.642,0.75,1.5,0.75
		s1.5-0.396,1.5-0.75c0-0.276,0.224-0.5,0.5-0.5s0.5,0.224,0.5,0.5C21.999,19.254,20.9,20.023,19.499,20.023z"/>
	<path d="M19.499,22.023c-1.122,0-2-0.659-2-1.5c0-0.276,0.224-0.5,0.5-0.5s0.5,0.224,0.5,0.5c0,0.231,0.437,0.5,1,0.5
		s1-0.269,1-0.5c0-0.276,0.224-0.5,0.5-0.5s0.5,0.224,0.5,0.5C21.499,21.364,20.62,22.023,19.499,22.023z"/>
	<path d="M19.501,23.969c-0.105,0-0.212-0.011-0.316-0.033c-0.59-0.125-1.051-0.586-1.175-1.175c-0.028-0.13-0.003-0.264,0.07-0.376
		s0.185-0.189,0.316-0.216c0.034-0.007,0.069-0.011,0.104-0.011c0.235,0,0.44,0.167,0.489,0.397
		c0.042,0.202,0.201,0.361,0.403,0.403c0.035,0.007,0.072,0.011,0.107,0.011c0.246,0,0.461-0.174,0.511-0.414
		c0.049-0.23,0.254-0.397,0.489-0.397c0.035,0,0.07,0.004,0.104,0.011c0.13,0.028,0.242,0.104,0.315,0.216s0.098,0.246,0.07,0.376
		c-0.084,0.397-0.318,0.739-0.658,0.961C20.081,23.884,19.795,23.969,19.501,23.969z"/>
</g>
</svg>
