<?xml version="1.0" encoding="utf-8"?>
<!-- Generator: Adobe Illustrator 22.1.0, SVG Export Plug-In . SVG Version: 6.00 Build 0)  -->
<svg version="1.1" id="Light" xmlns="http://www.w3.org/2000/svg" xmlns:xlink="http://www.w3.org/1999/xlink" x="0px" y="0px"
	 viewBox="0 0 24 24" style="enable-background:new 0 0 24 24;" xml:space="preserve">
<g>
	<title>natural-disaster-flood-house-indoor</title>
	<path d="M4.5,23.878c-1.379,0-2.5-1.122-2.5-2.5V8.388L0.797,9.277C0.71,9.341,0.608,9.375,0.5,9.375
		c-0.158,0-0.308-0.076-0.402-0.203C0.019,9.064-0.014,8.932,0.005,8.8c0.02-0.132,0.09-0.249,0.197-0.328l10.906-8.061
		C11.37,0.219,11.678,0.116,12,0.116s0.63,0.102,0.891,0.295l10.906,8.061c0.107,0.079,0.177,0.196,0.197,0.328
		c0.02,0.132-0.013,0.264-0.093,0.372c-0.093,0.126-0.244,0.203-0.402,0.203c-0.108,0-0.211-0.034-0.297-0.098L22,8.388v12.99
		c0,1.378-1.122,2.5-2.5,2.5H4.5z M3,21.378c0,0.827,0.673,1.5,1.5,1.5h15c0.827,0,1.5-0.673,1.5-1.5v-1.538
		c-0.044,0.002-0.088,0.003-0.132,0.003c-1.29,0-2.228-0.771-2.758-1.362c-0.755,0.845-1.82,1.339-2.966,1.367
		c-1.102-0.022-2.122-0.528-2.793-1.369c-0.843,0.825-1.945,1.308-3.134,1.368c-1.182-0.055-2.262-0.568-3.026-1.416
		c-0.567,0.551-1.7,1.446-3.075,1.446c-0.038,0-0.077-0.001-0.117-0.002V21.378z M3,18.865c0.036,0.002,0.073,0.003,0.109,0.003
		c1.489,0,2.712-1.505,2.724-1.52c0.095-0.12,0.236-0.189,0.387-0.189c0.006,0,0.026,0.001,0.032,0.001
		c0.153,0.007,0.301,0.09,0.389,0.223c0.574,0.867,1.537,1.414,2.576,1.465c1.084-0.057,2.113-0.601,2.799-1.493
		c0.095-0.123,0.242-0.196,0.394-0.196c0.009,0,0.042,0.002,0.05,0.002c0.167,0.015,0.317,0.115,0.396,0.267
		c0.446,0.855,1.322,1.399,2.287,1.419c1.028-0.025,1.982-0.569,2.539-1.455c0.093-0.146,0.251-0.233,0.423-0.233
		c0.174,0,0.332,0.088,0.424,0.235c0.037,0.059,0.919,1.442,2.344,1.442c0.042,0,0.084-0.001,0.126-0.004v-2.993
		c-0.044,0.002-0.088,0.003-0.132,0.003c-1.29,0-2.228-0.771-2.757-1.362c-0.755,0.845-1.82,1.339-2.966,1.366
		c-1.102-0.022-2.122-0.528-2.793-1.369c-0.843,0.825-1.945,1.308-3.134,1.368c-1.182-0.055-2.262-0.568-3.026-1.416
		c-0.567,0.551-1.7,1.446-3.075,1.446c-0.038,0-0.077-0.001-0.117-0.002V18.865z M3,14.865c0.036,0.002,0.073,0.003,0.109,0.003
		c1.488,0,2.712-1.505,2.724-1.52c0.095-0.12,0.235-0.19,0.383-0.19c0.008,0,0.035,0.001,0.042,0.002
		c0.147,0.006,0.295,0.09,0.383,0.222c0.574,0.867,1.537,1.414,2.576,1.465c1.084-0.057,2.113-0.601,2.799-1.493
		c0.095-0.123,0.242-0.196,0.395-0.196c0.009,0,0.041,0.002,0.049,0.002c0.168,0.015,0.317,0.115,0.396,0.267
		c0.446,0.855,1.322,1.399,2.287,1.419c1.028-0.025,1.982-0.569,2.539-1.455c0.093-0.146,0.251-0.233,0.423-0.233
		c0.174,0,0.332,0.088,0.424,0.235c0.037,0.059,0.919,1.442,2.343,1.442c0.042,0,0.084-0.001,0.127-0.004V7.649l-8.703-6.433
		C12.209,1.151,12.107,1.117,12,1.117s-0.209,0.034-0.297,0.099L3,7.649V14.865z"/>
</g>
</svg>
