<?xml version="1.0" encoding="utf-8"?>
<!-- Generator: Adobe Illustrator 22.1.0, SVG Export Plug-In . SVG Version: 6.00 Build 0)  -->
<svg version="1.1" id="Light" xmlns="http://www.w3.org/2000/svg" xmlns:xlink="http://www.w3.org/1999/xlink" x="0px" y="0px"
	 viewBox="0 0 24 24" style="enable-background:new 0 0 24 24;" xml:space="preserve">
<g>
	<title>natural-disaster-flood-building</title>
	<path d="M0.5,22.261c-0.276,0-0.5-0.224-0.5-0.5v-6.98c0-0.151,0.068-0.293,0.185-0.388c0.088-0.072,0.2-0.112,0.315-0.112
		c0.035,0,0.07,0.004,0.104,0.011c0.183,0.039,0.372,0.059,0.561,0.059c1.862,0,3.391-1.881,3.406-1.9
		c0.094-0.118,0.242-0.189,0.396-0.189c0.005,0,0.023,0,0.028,0.001c0.163,0.011,0.311,0.101,0.396,0.24
		c0.524,0.869,1.392,1.495,2.382,1.718c0.13,0.029,0.241,0.108,0.313,0.22s0.095,0.247,0.065,0.377
		c-0.052,0.23-0.252,0.391-0.487,0.391l0,0c-0.037,0-0.075-0.004-0.111-0.013c-1.041-0.234-1.968-0.812-2.639-1.638
		c-0.669,0.669-2.047,1.794-3.737,1.794c-0.058,0-0.117-0.001-0.176-0.004v2.997c0.055,0.003,0.11,0.005,0.166,0.005
		c1.867,0,3.39-1.88,3.405-1.899c0.096-0.12,0.241-0.189,0.398-0.189c0.005,0,0.021,0,0.026,0.001
		c0.163,0.011,0.311,0.101,0.396,0.24c0.51,0.846,1.353,1.466,2.312,1.702c0.129,0.031,0.239,0.112,0.308,0.226
		c0.069,0.114,0.09,0.249,0.058,0.379c-0.055,0.224-0.255,0.381-0.485,0.381c-0.041,0-0.082-0.005-0.122-0.015
		c-1.003-0.246-1.898-0.816-2.549-1.618c-0.67,0.669-2.047,1.794-3.738,1.794c-0.059,0-0.117-0.001-0.176-0.004v2.413
		C1,22.037,0.776,22.261,0.5,22.261z"/>
	<path d="M23.5,22.261c-0.276,0-0.5-0.224-0.5-0.5v-2.454c-0.064,0.003-0.129,0.005-0.193,0.005c-1.612,0-2.778-1.048-3.348-1.703
		c-0.475,0.582-1.084,1.037-1.779,1.325c-0.061,0.025-0.125,0.038-0.191,0.038c-0.203,0-0.384-0.121-0.462-0.308
		c-0.106-0.254,0.015-0.548,0.269-0.654c0.716-0.298,1.324-0.831,1.712-1.501c0.087-0.151,0.25-0.246,0.424-0.249c0,0,0,0,0.001,0
		c0.181,0,0.341,0.09,0.432,0.235c0.011,0.017,1.176,1.813,2.962,1.813c0.057,0,0.115-0.002,0.173-0.006v-2.996
		c-0.065,0.003-0.129,0.005-0.193,0.005c-1.611,0-2.776-1.048-3.346-1.702c-0.465,0.571-1.059,1.02-1.735,1.31
		c-0.063,0.027-0.129,0.041-0.197,0.041c-0.2,0-0.381-0.119-0.459-0.303c-0.109-0.253,0.009-0.548,0.262-0.656
		c0.701-0.301,1.297-0.83,1.677-1.49c0.087-0.151,0.249-0.247,0.424-0.25l0,0c0.182,0,0.341,0.088,0.433,0.235
		c0.011,0.017,1.176,1.813,2.963,1.813c0.188,0,0.38-0.02,0.57-0.06c0.033-0.007,0.068-0.01,0.102-0.01
		c0.115,0,0.227,0.04,0.315,0.112C23.933,14.447,24,14.588,24,14.739v7.022C24,22.037,23.776,22.261,23.5,22.261z"/>
	<path d="M15.5,22.239c-0.276,0-0.5-0.224-0.5-0.5v-3.978h-1.998c-0.276,0-0.5-0.224-0.5-0.5s0.224-0.5,0.5-0.5H15v-2h-1.998
		c-0.276,0-0.5-0.224-0.5-0.5s0.224-0.5,0.5-0.5H15v-1.979h-1.998c-0.276,0-0.5-0.224-0.5-0.5s0.224-0.5,0.5-0.5H15v-2h-1.998
		c-0.276,0-0.5-0.224-0.5-0.5s0.224-0.5,0.5-0.5H15v-2h-1.998c-0.276,0-0.5-0.224-0.5-0.5s0.224-0.5,0.5-0.5H15V3.239
		c0-0.276-0.224-0.5-0.5-0.5h-4c-0.276,0-0.5,0.224-0.5,0.5v18.5c0,0.276-0.224,0.5-0.5,0.5S9,22.015,9,21.739v-18.5
		c0-0.827,0.673-1.5,1.5-1.5h4c0.827,0,1.5,0.673,1.5,1.5v2.013c0.001,0.01,0.002,0.021,0.002,0.03c0,0.011-0.001,0.023-0.003,0.035
		L16,8.252c0.001,0.01,0.002,0.021,0.002,0.03c0,0.011-0.001,0.023-0.003,0.035L16,11.252c0.001,0.01,0.002,0.021,0.002,0.03
		c0,0.011-0.001,0.023-0.003,0.035L16,14.231c0.001,0.01,0.002,0.021,0.002,0.03c0,0.011-0.001,0.023-0.003,0.035L16,17.231
		c0.001,0.01,0.002,0.021,0.002,0.03c0,0.011-0.001,0.023-0.003,0.035L16,21.739C16,22.015,15.776,22.239,15.5,22.239z"/>
</g>
</svg>
