<?xml version="1.0" encoding="utf-8"?>
<!-- Generator: Adobe Illustrator 22.1.0, SVG Export Plug-In . SVG Version: 6.00 Build 0)  -->
<svg version="1.1" id="Light" xmlns="http://www.w3.org/2000/svg" xmlns:xlink="http://www.w3.org/1999/xlink" x="0px" y="0px"
	 viewBox="0 0 24 24" style="enable-background:new 0 0 24 24;" xml:space="preserve">
<g>
	<title>natural-disaster-flood-house</title>
	<path d="M20.5,14.366c-0.276,0-0.5-0.224-0.5-0.5V9.982l-8-7.304L4,9.982v3.884c0,0.276-0.224,0.5-0.5,0.5S3,14.141,3,13.866
		v-2.971L0.837,12.87c-0.092,0.084-0.212,0.131-0.337,0.131l0,0c-0.141,0-0.275-0.06-0.37-0.164
		c-0.089-0.098-0.136-0.226-0.13-0.359c0.006-0.134,0.064-0.257,0.162-0.347l11.5-10.5C11.755,1.547,11.875,1.501,12,1.501
		s0.245,0.046,0.337,0.131l11.5,10.5c0.099,0.09,0.156,0.213,0.163,0.347s-0.04,0.261-0.131,0.36
		c-0.094,0.103-0.229,0.163-0.369,0.163c-0.125,0-0.245-0.047-0.338-0.131L21,10.895v2.971C21,14.141,20.776,14.366,20.5,14.366z"/>
	<path d="M11,10.501c-0.551,0-1-0.449-1-1v-2c0-0.551,0.449-1,1-1h2c0.552,0,1,0.449,1,1v2c0,0.551-0.448,1-1,1H11z M11,9.501h2v-2
		h-2L11,9.501z"/>
	<path d="M0.501,18.501c-0.263,0-0.488-0.214-0.5-0.476c-0.013-0.275,0.2-0.51,0.476-0.523c1.365-0.065,2.626-0.724,3.461-1.806
		c0.093-0.121,0.237-0.19,0.396-0.19c0.159,0,0.303,0.069,0.396,0.189c0.835,1.082,2.097,1.74,3.463,1.806
		c1.326-0.066,2.578-0.724,3.413-1.806c0.094-0.122,0.242-0.195,0.396-0.195s0.302,0.073,0.396,0.195
		c0.834,1.082,2.096,1.74,3.461,1.806c1.326-0.066,2.58-0.724,3.414-1.806c0.094-0.122,0.242-0.194,0.396-0.194
		c0.156,0,0.301,0.071,0.396,0.195c0.834,1.082,2.096,1.74,3.461,1.806c0.275,0.013,0.489,0.248,0.476,0.523
		c-0.013,0.267-0.232,0.476-0.499,0.476c-0.005,0-0.022,0-0.027-0.001c-1.439-0.069-2.812-0.697-3.806-1.734
		c-0.995,1.036-2.368,1.665-3.81,1.734c-1.5-0.07-2.852-0.683-3.857-1.734c-0.995,1.037-2.368,1.665-3.809,1.734
		c-1.501-0.07-2.853-0.684-3.858-1.734c-0.995,1.037-2.368,1.665-3.809,1.734C0.52,18.5,0.505,18.501,0.501,18.501z"/>
	<path d="M0.499,22.501c-0.262,0-0.486-0.214-0.498-0.476c-0.013-0.275,0.2-0.51,0.476-0.523c1.365-0.065,2.626-0.724,3.461-1.806
		c0.093-0.121,0.237-0.19,0.396-0.19c0.159,0,0.303,0.069,0.396,0.189c0.835,1.082,2.097,1.74,3.463,1.806
		c1.326-0.066,2.578-0.724,3.413-1.806c0.094-0.122,0.242-0.195,0.396-0.195s0.302,0.073,0.396,0.195
		c0.834,1.082,2.096,1.74,3.461,1.806c1.326-0.066,2.58-0.724,3.414-1.806c0.094-0.122,0.242-0.194,0.396-0.194
		c0.156,0,0.301,0.071,0.396,0.195c0.834,1.082,2.096,1.74,3.461,1.806c0.275,0.013,0.489,0.248,0.476,0.523
		c-0.013,0.267-0.232,0.476-0.499,0.476c-0.005,0-0.022,0-0.027-0.001c-1.439-0.069-2.812-0.697-3.806-1.734
		c-0.995,1.036-2.368,1.665-3.81,1.734c-1.5-0.07-2.852-0.683-3.857-1.734c-0.995,1.037-2.368,1.665-3.809,1.734
		c-1.501-0.07-2.853-0.684-3.858-1.734c-0.995,1.037-2.368,1.665-3.809,1.734C0.52,22.5,0.503,22.501,0.499,22.501z"/>
</g>
</svg>
