<?xml version="1.0" encoding="utf-8"?>
<!-- Generator: Adobe Illustrator 22.1.0, SVG Export Plug-In . SVG Version: 6.00 Build 0)  -->
<svg version="1.1" id="Light" xmlns="http://www.w3.org/2000/svg" xmlns:xlink="http://www.w3.org/1999/xlink" x="0px" y="0px"
	 viewBox="0 0 24 24" style="enable-background:new 0 0 24 24;" xml:space="preserve">
<g>
	<title>natural-disaster-flood</title>
	<path d="M17.5,21.5c-2.515,0-4.143-0.788-5.718-1.55C10.241,19.204,8.785,18.5,6.5,18.5c-2.749,0-5.618,2.825-5.647,2.854
		C0.759,21.448,0.633,21.5,0.5,21.5s-0.259-0.052-0.354-0.146c-0.195-0.195-0.195-0.512,0-0.707C0.275,20.518,3.329,17.5,6.5,17.5
		c2.515,0,4.143,0.788,5.718,1.55c1.541,0.746,2.997,1.45,5.282,1.45c2.749,0,5.618-2.825,5.646-2.854
		c0.094-0.094,0.22-0.146,0.354-0.146s0.259,0.052,0.354,0.146c0.195,0.195,0.195,0.512,0,0.707C23.725,18.482,20.67,21.5,17.5,21.5
		z"/>
	<path d="M17.5,18.5c-2.515,0-4.143-0.788-5.718-1.55C10.241,16.204,8.785,15.5,6.5,15.5c-2.773,0-5.651,2.361-5.68,2.384
		C0.729,17.959,0.616,18,0.5,18l0,0c-0.149,0-0.289-0.065-0.384-0.18c-0.085-0.103-0.126-0.232-0.114-0.365s0.075-0.253,0.178-0.339
		C0.308,17.009,3.361,14.5,6.5,14.5c2.515,0,4.143,0.788,5.718,1.55c1.541,0.746,2.997,1.45,5.282,1.45
		c2.001,0,4.107-1.809,5.031-2.711c-1.583-0.562-2.628-2.103-2.53-3.818C20,6.858,16.635,3.5,12.5,3.5
		c-1.86,0-3.628,0.795-4.857,2.181c-0.057,0.065-0.08,0.153-0.062,0.237c0.016,0.07,0.057,0.13,0.118,0.168
		c0.043,0.028,0.093,0.042,0.143,0.042c0.02,0,0.04-0.002,0.059-0.007C8.261,6.041,8.63,6,9,6c1.155,0,2.283,0.404,3.176,1.138
		c2.129,1.751,2.438,4.908,0.687,7.037c-0.095,0.116-0.236,0.183-0.387,0.183c-0.116,0-0.229-0.041-0.318-0.115
		c-0.103-0.084-0.167-0.204-0.179-0.337c-0.013-0.133,0.027-0.263,0.111-0.366c1.401-1.703,1.154-4.229-0.549-5.63
		C10.826,7.323,9.924,7,9,7C8.704,7,8.407,7.033,8.119,7.097C8.027,7.118,7.934,7.128,7.84,7.128c-0.239,0-0.474-0.069-0.678-0.198
		C6.877,6.748,6.679,6.466,6.605,6.135c-0.089-0.397,0.02-0.815,0.29-1.119C8.313,3.417,10.353,2.5,12.492,2.5
		C17.187,2.5,21,6.313,21,11c-0.087,1.542,1.033,2.855,2.548,3.002c0.018,0.002,0.045,0.008,0.066,0.015
		c0.03,0.007,0.057,0.016,0.082,0.027c0.024,0.01,0.05,0.024,0.075,0.041c0.02,0.011,0.042,0.026,0.056,0.038
		c0.017,0.014,0.03,0.03,0.04,0.043c0.018,0.02,0.034,0.041,0.05,0.067c0.013,0.02,0.03,0.048,0.044,0.084
		c0.01,0.025,0.018,0.054,0.025,0.086c0.006,0.03,0.009,0.058,0.01,0.085c0.002,0.021,0.003,0.045,0.001,0.062
		c-0.003,0.029-0.01,0.052-0.015,0.066c-0.005,0.024-0.012,0.046-0.021,0.069c-0.012,0.031-0.027,0.058-0.046,0.087
		c-0.01,0.019-0.024,0.04-0.035,0.053C23.751,14.975,20.695,18.5,17.5,18.5z"/>
</g>
</svg>
