<?xml version="1.0" encoding="utf-8"?>
<!-- Generator: Adobe Illustrator 22.1.0, SVG Export Plug-In . SVG Version: 6.00 Build 0)  -->
<svg version="1.1" id="Light" xmlns="http://www.w3.org/2000/svg" xmlns:xlink="http://www.w3.org/1999/xlink" x="0px" y="0px"
	 viewBox="0 0 24 24" style="enable-background:new 0 0 24 24;" xml:space="preserve">
<g>
	<title>natural-disaster-draught</title>
	<path d="M0.5,24C0.225,24,0,23.776,0,23.5S0.225,23,0.5,23h3.396c0.343-0.521,1.236-1.68,3.402-4.418L5.599,17.24l-4.824,3.177
		C0.693,20.471,0.598,20.5,0.501,20.5c-0.169,0-0.325-0.084-0.418-0.225c-0.151-0.23-0.088-0.541,0.143-0.692l4.547-2.995L2.764,15
		H0.5C0.225,15,0,14.776,0,14.5S0.225,14,0.5,14H18v-3.691l-1.724-0.862c-0.008-0.004-0.016-0.009-0.024-0.014
		c-0.009-0.005-0.02-0.01-0.031-0.018l-2.999-1.999c-0.111-0.074-0.187-0.187-0.213-0.318c-0.026-0.131,0-0.264,0.074-0.376
		C13.177,6.583,13.332,6.5,13.5,6.5c0.099,0,0.195,0.029,0.278,0.084l1.924,1.283l-0.686-2.745
		c-0.033-0.129-0.013-0.264,0.056-0.378c0.069-0.115,0.178-0.196,0.308-0.228c0.039-0.01,0.08-0.015,0.121-0.015
		c0.23,0,0.429,0.156,0.485,0.379l0.944,3.777L18,9.191V1c0-0.276,0.224-0.5,0.5-0.5S19,0.724,19,1v5.191l1.071-0.535l0.944-3.777
		C21.071,1.656,21.27,1.5,21.5,1.5c0.041,0,0.082,0.005,0.123,0.015c0.129,0.032,0.238,0.113,0.307,0.228
		c0.069,0.115,0.089,0.249,0.056,0.379l-0.686,2.745l1.924-1.283C23.305,3.529,23.401,3.5,23.5,3.5c0.168,0,0.323,0.083,0.416,0.223
		c0.074,0.111,0.1,0.244,0.074,0.375c-0.026,0.131-0.102,0.244-0.213,0.318l-3,2c-0.007,0.005-0.043,0.026-0.054,0.031L19,7.309V14
		h4.5c0.276,0,0.5,0.224,0.5,0.5S23.776,15,23.5,15h-1.223l-2.146,2.262l3.791,5.97c0.009,0.014,0.018,0.034,0.025,0.052
		c0.014,0.03,0.023,0.057,0.029,0.078c0.008,0.027,0.014,0.053,0.017,0.079C23.998,23.461,24,23.483,24,23.5
		c0,0.029-0.004,0.053-0.009,0.072c-0.004,0.029-0.01,0.054-0.018,0.079c-0.011,0.035-0.024,0.064-0.041,0.093
		c-0.013,0.024-0.03,0.05-0.051,0.075c-0.018,0.022-0.038,0.042-0.06,0.06c-0.013,0.013-0.03,0.029-0.052,0.044
		c-0.014,0.009-0.044,0.024-0.06,0.03c-0.002,0.002-0.018,0.009-0.036,0.016C23.613,23.989,23.556,24,23.501,24H0.5z M22.591,23
		l-2.938-4.626L18.184,23H22.591z M17.135,23l1.552-4.89l-2.983,1.328l-3.019,2.09c-0.25,0.175-0.547,0.267-0.856,0.267
		c-0.343,0-0.678-0.117-0.943-0.331L8.08,19.206C7.016,20.552,5.804,22.104,5.127,23H17.135z M11.514,20.685
		c0.088,0.072,0.2,0.111,0.315,0.111c0.103,0,0.202-0.031,0.285-0.089l2.738-1.896L13.405,15H9.847l-1.251,3.337L11.514,20.685z
		 M15.738,18.328l3.468-1.544L20.899,15h-6.424L15.738,18.328z M7.773,17.683L8.779,15H4.377L7.773,17.683z"/>
	<path d="M6,10c-2.757,0-5-2.243-5-5s2.243-5,5-5s5,2.243,5,5S8.757,10,6,10z M6,1C3.795,1,2,2.794,2,5s1.794,4,4,4s4-1.794,4-4
		S8.206,1,6,1z"/>
</g>
</svg>
