<?xml version="1.0" encoding="utf-8"?>
<!-- Generator: Adobe Illustrator 22.1.0, SVG Export Plug-In . SVG Version: 6.00 Build 0)  -->
<svg version="1.1" id="Light" xmlns="http://www.w3.org/2000/svg" xmlns:xlink="http://www.w3.org/1999/xlink" x="0px" y="0px"
	 viewBox="0 0 24 24" style="enable-background:new 0 0 24 24;" xml:space="preserve">
<g>
	<title>natural-disaster-hurricane-house</title>
	<path d="M3.5,24C2.673,24,2,23.327,2,22.5v-4C2,18.224,2.224,18,2.5,18S3,18.224,3,18.5v4C3,22.776,3.224,23,3.5,23H5v-3
		c0-1.103,0.897-2,2-2s2,0.897,2,2v3h1.5c0.276,0,0.5-0.224,0.5-0.5v-4c0-0.276,0.224-0.5,0.5-0.5s0.5,0.224,0.5,0.5v4
		c0,0.827-0.673,1.5-1.5,1.5H3.5z M8,23v-3c0-0.552-0.449-1-1-1s-1,0.448-1,1v3H8z"/>
	<path d="M0.5,18c-0.157,0-0.301-0.071-0.397-0.196c-0.168-0.218-0.127-0.532,0.092-0.7l5.89-4.531
		c0.261-0.2,0.586-0.311,0.915-0.311s0.654,0.111,0.915,0.311l5.89,4.531c0.219,0.168,0.26,0.482,0.092,0.701
		C13.801,17.929,13.657,18,13.5,18c-0.111,0-0.216-0.036-0.304-0.104l-5.89-4.531C7.217,13.297,7.112,13.261,7,13.261
		c-0.111,0-0.217,0.036-0.305,0.104l-5.89,4.531C0.717,17.964,0.611,18,0.5,18z"/>
	<path d="M4.5,1C4.224,1,4,0.776,4,0.5S4.224,0,4.5,0h19C23.776,0,24,0.224,24,0.5S23.776,1,23.5,1H4.5z"/>
	<path d="M6,4C5.724,4,5.5,3.776,5.5,3.5S5.724,3,6,3h17.5C23.776,3,24,3.224,24,3.5S23.776,4,23.5,4H6z"/>
	<path d="M8.5,7C8.224,7,8,6.776,8,6.5S8.224,6,8.5,6h13C21.776,6,22,6.224,22,6.5S21.776,7,21.5,7H8.5z"/>
	<path d="M8.5,10C8.224,10,8,9.776,8,9.5S8.224,9,8.5,9H21c0.276,0,0.5,0.224,0.5,0.5S21.276,10,21,10H8.5z"/>
	<path d="M12,13c-0.276,0-0.5-0.224-0.5-0.5c0-0.276,0.224-0.5,0.5-0.5h9.5c0.276,0,0.5,0.224,0.5,0.5c0,0.276-0.224,0.5-0.5,0.5H12
		z"/>
	<path d="M15.5,16c-0.276,0-0.5-0.224-0.5-0.5s0.224-0.5,0.5-0.5H23c0.276,0,0.5,0.224,0.5,0.5S23.276,16,23,16H15.5z"/>
	<path d="M17,19c-0.276,0-0.5-0.224-0.5-0.5S16.725,18,17,18h6.5c0.276,0,0.5,0.224,0.5,0.5S23.776,19,23.5,19H17z"/>
	<path d="M18.5,22c-0.276,0-0.5-0.224-0.5-0.5s0.224-0.5,0.5-0.5H22c0.276,0,0.5,0.224,0.5,0.5S22.276,22,22,22H18.5z"/>
	<path d="M18.5,24c-0.276,0-0.5-0.224-0.5-0.5s0.224-0.5,0.5-0.5h2c0.276,0,0.5,0.224,0.5,0.5S20.776,24,20.5,24H18.5z"/>
</g>
</svg>
