<?xml version="1.0" encoding="utf-8"?>
<!-- Generator: Adobe Illustrator 22.1.0, SVG Export Plug-In . SVG Version: 6.00 Build 0)  -->
<svg version="1.1" id="Light" xmlns="http://www.w3.org/2000/svg" xmlns:xlink="http://www.w3.org/1999/xlink" x="0px" y="0px"
	 viewBox="0 0 24 24" style="enable-background:new 0 0 24 24;" xml:space="preserve">
<g>
	<title>natural-disaster-hurricane-map</title>
	<path d="M17,5c-2.236,0-4.5-0.687-4.5-2s2.264-2,4.5-2s4.5,0.687,4.5,2S19.236,5,17,5z M17,2c-2.273,0-3.5,0.71-3.5,1
		s1.227,1,3.5,1s3.5-0.71,3.5-1S19.274,2,17,2z"/>
	<path d="M17,7c-1.995,0-3.5-0.86-3.5-2c0-0.276,0.224-0.5,0.5-0.5s0.5,0.224,0.5,0.5c0,0.398,0.997,1,2.5,1s2.5-0.602,2.5-1
		c0-0.276,0.224-0.5,0.5-0.5s0.5,0.224,0.5,0.5C20.5,6.14,18.995,7,17,7z"/>
	<path d="M17,9c-1.402,0-2.5-0.769-2.5-1.75c0-0.276,0.224-0.5,0.5-0.5s0.5,0.224,0.5,0.5C15.5,7.604,16.142,8,17,8
		s1.5-0.396,1.5-0.75c0-0.276,0.224-0.5,0.5-0.5s0.5,0.224,0.5,0.5C19.5,8.231,18.402,9,17,9z"/>
	<path d="M17,11c-1.122,0-2-0.659-2-1.5C15,9.224,15.224,9,15.5,9S16,9.224,16,9.5c0,0.231,0.437,0.5,1,0.5s1-0.269,1-0.5
		C18,9.224,18.224,9,18.5,9S19,9.224,19,9.5C19,10.341,18.122,11,17,11z"/>
	<path d="M17.003,12.947c-0.105,0-0.212-0.011-0.316-0.033c-0.59-0.125-1.051-0.586-1.175-1.175c-0.028-0.13-0.003-0.264,0.07-0.376
		s0.185-0.189,0.316-0.216c0.034-0.007,0.069-0.011,0.103-0.011c0.235,0,0.44,0.167,0.489,0.397c0.042,0.202,0.201,0.36,0.403,0.403
		c0.036,0.008,0.072,0.011,0.108,0.011c0.245,0,0.46-0.174,0.51-0.415c0.049-0.23,0.254-0.397,0.489-0.397
		c0.034,0,0.069,0.004,0.103,0.011c0.131,0.028,0.243,0.104,0.316,0.216s0.098,0.246,0.07,0.376
		c-0.084,0.397-0.318,0.739-0.658,0.961C17.583,12.861,17.296,12.947,17.003,12.947z"/>
	<path d="M0.5,23c-0.163,0-0.316-0.08-0.41-0.213c-0.093-0.133-0.116-0.304-0.06-0.457l4-11C4.102,11.132,4.291,11,4.5,11H14
		c0.276,0,0.5,0.224,0.5,0.5S14.276,12,14,12H4.85L1.214,22h21.542l-3.4-8.312c-0.104-0.255,0.019-0.548,0.273-0.652
		c0.06-0.025,0.124-0.037,0.189-0.037c0.204,0,0.386,0.122,0.463,0.311l3.682,9.002c0.063,0.155,0.045,0.33-0.048,0.468
		C23.822,22.917,23.667,23,23.5,23H0.5z"/>
	<path d="M5,20c-0.276,0-0.5-0.224-0.5-0.5S4.724,19,5,19h6.5c3.713,0,4-0.622,4-1.5c0-0.541-0.788-0.755-2.341-0.982
		C11.852,16.326,10.5,16.128,10.5,15c0-2,1.734-2,3-2c0.276,0,0.5,0.224,0.5,0.5S13.776,14,13.5,14c-1.664,0-2,0.168-2,1
		c0,0.264,1.218,0.442,1.803,0.528c1.425,0.209,3.197,0.469,3.197,1.972c0,2.312-2.264,2.5-5,2.5H5z"/>
</g>
</svg>
