<?xml version="1.0" encoding="utf-8"?>
<!-- Generator: Adobe Illustrator 22.1.0, SVG Export Plug-In . SVG Version: 6.00 Build 0)  -->
<svg version="1.1" id="Light" xmlns="http://www.w3.org/2000/svg" xmlns:xlink="http://www.w3.org/1999/xlink" x="0px" y="0px"
	 viewBox="0 0 24 24" style="enable-background:new 0 0 24 24;" xml:space="preserve">
<g>
	<title>weather-cloudy-thunder</title>
	<path d="M3,3.5c-0.134,0-0.259-0.052-0.354-0.147L1.87,2.576c-0.094-0.094-0.146-0.22-0.146-0.354c0-0.134,0.052-0.259,0.147-0.354
		c0.095-0.094,0.22-0.146,0.353-0.146c0.134,0,0.259,0.052,0.354,0.147l0.776,0.777C3.448,2.741,3.5,2.867,3.5,3
		c0,0.134-0.052,0.259-0.147,0.354C3.259,3.448,3.133,3.5,3,3.5z"/>
	<path d="M12,3.5c-0.133,0-0.259-0.052-0.353-0.146C11.552,3.26,11.5,3.134,11.5,3c0-0.134,0.052-0.259,0.146-0.354l0.776-0.777
		c0.094-0.094,0.219-0.147,0.353-0.147c0.134,0,0.259,0.052,0.354,0.146c0.095,0.094,0.147,0.22,0.147,0.354
		c0,0.134-0.052,0.259-0.146,0.354l-0.776,0.777C12.259,3.448,12.134,3.5,12,3.5z"/>
	<path d="M4.174,10.223c-0.167,0-0.322-0.083-0.415-0.221C2.375,7.943,2.924,5.141,4.983,3.757c0.751-0.505,1.62-0.772,2.513-0.772
		c1.032,0,2.045,0.365,2.853,1.028c0.103,0.085,0.167,0.205,0.18,0.338s-0.026,0.263-0.111,0.366
		C10.323,4.833,10.182,4.9,10.032,4.9c-0.115,0-0.228-0.04-0.317-0.114C9.086,4.27,8.298,3.986,7.496,3.986
		c-0.694,0-1.37,0.208-1.955,0.601c-0.775,0.521-1.3,1.313-1.48,2.232C3.881,7.737,4.068,8.67,4.589,9.444
		c0.154,0.229,0.093,0.54-0.136,0.694C4.37,10.194,4.274,10.223,4.174,10.223z"/>
	<path d="M0.5,7C0.224,7,0,6.776,0,6.5S0.224,6,0.5,6h1C1.776,6,2,6.224,2,6.5S1.776,7,1.5,7H0.5z"/>
	<path d="M7.5,2C7.224,2,7,1.776,7,1.5v-1C7,0.224,7.224,0,7.5,0S8,0.224,8,0.5v1C8,1.776,7.776,2,7.5,2z"/>
	<path d="M19.5,21c-0.276,0-0.5-0.224-0.5-0.5s0.224-0.5,0.5-0.5c0.935,0,1.814-0.365,2.475-1.026
		c0.661-0.661,1.025-1.54,1.025-2.475c0-1.159-0.572-2.24-1.53-2.892c-0.198-0.135-0.273-0.392-0.178-0.612
		c0.548-1.265-0.036-2.74-1.301-3.288c-0.315-0.136-0.65-0.206-0.994-0.206c-0.103,0-0.206,0.006-0.308,0.019
		c-0.019,0.003-0.041,0.004-0.063,0.004c-0.204,0-0.39-0.128-0.464-0.319c-0.486-1.244-1.427-2.224-2.65-2.76
		c-0.641-0.281-1.316-0.423-2.005-0.423c-0.621,0-1.234,0.116-1.821,0.346c-1.775,0.694-2.986,2.303-3.16,4.201
		c-0.022,0.238-0.21,0.428-0.448,0.452c-2.469,0.247-4.276,2.457-4.029,4.926c0.23,2.297,2.145,4.039,4.453,4.051H9.5
		c0.276,0,0.5,0.224,0.5,0.5S9.776,21,9.5,21h-1c-2.824-0.015-5.164-2.144-5.446-4.951c-0.29-2.89,1.687-5.474,4.526-5.967
		c0.332-2.098,1.752-3.866,3.742-4.644c0.704-0.275,1.439-0.414,2.185-0.414c0.828,0,1.638,0.171,2.406,0.507
		c1.349,0.591,2.421,1.642,3.035,2.972c0.016,0,0.032,0,0.049,0c0.482,0,0.95,0.097,1.391,0.288c1.637,0.709,2.472,2.539,1.96,4.226
		c1.037,0.849,1.651,2.137,1.651,3.483c0,1.202-0.468,2.332-1.317,3.182S20.702,21,19.5,21L19.5,21z"/>
	<path d="M13.5,24c-0.06,0-0.118-0.01-0.174-0.031C13.131,23.896,13,23.708,13,23.5V20h-1.25c-0.291-0.001-0.558-0.171-0.68-0.434
		c-0.124-0.266-0.08-0.582,0.112-0.805l3.939-4.587C15.216,14.063,15.354,14,15.5,14c0.06,0,0.118,0.01,0.174,0.031
		C15.869,14.104,16,14.292,16,14.5V18h1.25c0.291,0.001,0.558,0.171,0.68,0.434c0.125,0.267,0.081,0.583-0.112,0.806l-3.939,4.586
		C13.784,23.937,13.646,24,13.5,24z M13.5,19c0.276,0,0.5,0.224,0.5,0.5v2.65L16.706,19L15.5,19c-0.276,0-0.5-0.224-0.5-0.5v-2.65
		L12.294,19L13.5,19z"/>
</g>
</svg>
