<?xml version="1.0" encoding="utf-8"?>
<!-- Generator: Adobe Illustrator 22.1.0, SVG Export Plug-In . SVG Version: 6.00 Build 0)  -->
<svg version="1.1" id="Light" xmlns="http://www.w3.org/2000/svg" xmlns:xlink="http://www.w3.org/1999/xlink" x="0px" y="0px"
	 viewBox="0 0 24 24" style="enable-background:new 0 0 24 24;" xml:space="preserve">
<g>
	<title>weather-cloud-hurricane</title>
	<path d="M5.499,15.998c-2.826-0.012-5.169-2.141-5.451-4.951c-0.29-2.89,1.686-5.474,4.524-5.967
		C4.902,2.97,6.328,1.195,8.331,0.418c0.7-0.271,1.431-0.409,2.172-0.409c0.833,0,1.647,0.173,2.419,0.513
		c1.347,0.594,2.416,1.647,3.027,2.977c0.023,0,0.045-0.001,0.068-0.001c1.457,0,2.771,0.925,3.27,2.303
		c0.094,0.259-0.041,0.546-0.3,0.64c-0.055,0.02-0.112,0.03-0.17,0.03c-0.21,0-0.399-0.133-0.47-0.33
		c-0.361-0.998-1.276-1.643-2.331-1.643c-0.108,0-0.217,0.007-0.324,0.021c-0.021,0.003-0.042,0.004-0.063,0.004
		c-0.205,0-0.392-0.128-0.466-0.319c-0.483-1.246-1.422-2.228-2.644-2.767c-0.644-0.284-1.322-0.428-2.016-0.428
		c-0.617,0-1.226,0.115-1.81,0.341C6.906,2.043,5.691,3.659,5.52,5.567C5.499,5.806,5.311,5.996,5.072,6.02
		c-2.469,0.248-4.276,2.458-4.028,4.927c0.23,2.299,2.147,4.041,4.458,4.051h3.498c0.276,0,0.5,0.224,0.5,0.5s-0.224,0.5-0.5,0.5
		H5.499z"/>
	<path d="M10.499,9.998c-0.276,0-0.5-0.224-0.5-0.5s0.224-0.5,0.5-0.5h11c0.276,0,0.5,0.224,0.5,0.5s-0.224,0.5-0.5,0.5H10.499z"/>
	<path d="M12.499,11.998c-0.276,0-0.5-0.224-0.5-0.5s0.224-0.5,0.5-0.5h10c0.276,0,0.5,0.224,0.5,0.5s-0.224,0.5-0.5,0.5H12.499z"/>
	<path d="M14.499,13.998c-0.276,0-0.5-0.224-0.5-0.5s0.224-0.5,0.5-0.5h9c0.276,0,0.5,0.224,0.5,0.5s-0.224,0.5-0.5,0.5H14.499z"/>
	<path d="M11.499,15.998c-0.276,0-0.5-0.224-0.5-0.5s0.224-0.5,0.5-0.5h10c0.276,0,0.5,0.224,0.5,0.5s-0.224,0.5-0.5,0.5H11.499z"/>
	<path d="M12.499,17.998c-0.276,0-0.5-0.224-0.5-0.5s0.224-0.5,0.5-0.5h7c0.276,0,0.5,0.224,0.5,0.5s-0.224,0.5-0.5,0.5H12.499z"/>
	<path d="M15.499,19.998c-0.276,0-0.5-0.224-0.5-0.5s0.224-0.5,0.5-0.5h6c0.276,0,0.5,0.224,0.5,0.5s-0.224,0.5-0.5,0.5H15.499z"/>
	<path d="M18.499,21.998c-0.276,0-0.5-0.224-0.5-0.5s0.224-0.5,0.5-0.5h4c0.276,0,0.5,0.224,0.5,0.5s-0.224,0.5-0.5,0.5H18.499z"/>
	<path d="M19.999,23.998c-0.276,0-0.5-0.224-0.5-0.5s0.224-0.5,0.5-0.5h1c0.276,0,0.5,0.224,0.5,0.5s-0.224,0.5-0.5,0.5H19.999z"/>
</g>
</svg>
