<?xml version="1.0" encoding="utf-8"?>
<!-- Generator: Adobe Illustrator 22.1.0, SVG Export Plug-In . SVG Version: 6.00 Build 0)  -->
<svg version="1.1" id="Light" xmlns="http://www.w3.org/2000/svg" xmlns:xlink="http://www.w3.org/1999/xlink" x="0px" y="0px"
	 viewBox="0 0 24 24" style="enable-background:new 0 0 24 24;" xml:space="preserve">
<g>
	<title>weather-cloud-hail</title>
	<path d="M7.5,15.998c-2.826-0.012-5.169-2.141-5.451-4.951c-0.146-1.462,0.285-2.893,1.215-4.03c0.84-1.028,2.01-1.71,3.31-1.936
		c0.329-2.109,1.755-3.885,3.758-4.662c0.7-0.271,1.431-0.409,2.172-0.409c0.833,0,1.647,0.173,2.419,0.513
		C16.27,1.116,17.339,2.17,17.951,3.5c0.015,0,0.03,0,0.045,0c0.484,0,0.953,0.097,1.394,0.288c1.637,0.708,2.472,2.538,1.959,4.226
		C22.386,8.863,23,10.152,23,11.498c0,2.481-2.019,4.5-4.5,4.5H7.5z M12.503,1.009c-0.617,0-1.226,0.115-1.81,0.341
		C8.907,2.043,7.691,3.659,7.521,5.567C7.5,5.806,7.311,5.996,7.073,6.02C5.877,6.14,4.799,6.719,4.038,7.649
		C3.278,8.58,2.924,9.751,3.044,10.947c0.23,2.299,2.147,4.041,4.458,4.051H18.5c1.93,0,3.5-1.57,3.5-3.5
		c0-1.159-0.572-2.241-1.53-2.893c-0.198-0.135-0.273-0.392-0.178-0.612c0.265-0.613,0.276-1.292,0.031-1.913
		c-0.246-0.621-0.719-1.109-1.332-1.374C18.677,4.569,18.342,4.5,17.998,4.5c-0.103,0-0.206,0.006-0.308,0.019
		c-0.02,0.003-0.041,0.004-0.062,0.004c-0.204,0-0.391-0.128-0.465-0.319c-0.483-1.245-1.422-2.228-2.644-2.767
		C13.875,1.153,13.197,1.009,12.503,1.009z"/>
	<circle cx="1.75" cy="23.248" r="0.75"/>
	<path d="M3.25,22.248c-0.134,0-0.259-0.052-0.354-0.146s-0.146-0.22-0.146-0.354s0.052-0.259,0.146-0.354l3.5-3.5
		c0.094-0.094,0.22-0.146,0.354-0.146s0.259,0.052,0.354,0.146s0.146,0.22,0.146,0.354s-0.052,0.259-0.146,0.354l-3.5,3.5
		C3.509,22.196,3.384,22.248,3.25,22.248z"/>
	<path d="M11.75,23.998c-0.414,0-0.75-0.336-0.75-0.75s0.336-0.75,0.75-0.75s0.75,0.336,0.75,0.75S12.164,23.998,11.75,23.998z"/>
	<path d="M13.25,22.248c-0.134,0-0.259-0.052-0.354-0.146s-0.146-0.22-0.146-0.354s0.052-0.259,0.146-0.354l3.5-3.5
		c0.094-0.094,0.22-0.146,0.354-0.146s0.259,0.052,0.354,0.146s0.146,0.22,0.146,0.354s-0.052,0.259-0.146,0.354l-3.5,3.5
		C13.509,22.196,13.384,22.248,13.25,22.248z"/>
	<circle cx="7.75" cy="22.248" r="0.75"/>
	<path d="M9.25,21.248c-0.134,0-0.259-0.052-0.354-0.146s-0.146-0.22-0.146-0.354s0.052-0.259,0.146-0.354l2.25-2.25
		c0.094-0.094,0.22-0.146,0.354-0.146s0.259,0.052,0.354,0.146S12,18.364,12,18.498s-0.052,0.259-0.146,0.354l-2.25,2.25
		C9.509,21.196,9.384,21.248,9.25,21.248z"/>
</g>
</svg>
