<?xml version="1.0" encoding="utf-8"?>
<!-- Generator: Adobe Illustrator 22.1.0, SVG Export Plug-In . SVG Version: 6.00 Build 0)  -->
<svg version="1.1" id="Light" xmlns="http://www.w3.org/2000/svg" xmlns:xlink="http://www.w3.org/1999/xlink" x="0px" y="0px"
	 viewBox="0 0 24 24" style="enable-background:new 0 0 24 24;" xml:space="preserve">
<g>
	<title>weather-night-hail</title>
	<path d="M22.265,12.489c-0.235,0-0.436-0.16-0.488-0.39c-0.061-0.269,0.109-0.537,0.378-0.598c0.06-0.014,0.12-0.028,0.18-0.044
		c-2.45-1.744-3.354-5.083-2.045-7.844c0.465-0.98,1.166-1.813,2.045-2.437c-0.432-0.113-0.875-0.169-1.324-0.169
		c-2.037,0-3.918,1.185-4.793,3.019c-0.172,0.36-0.302,0.74-0.389,1.128c-0.052,0.231-0.252,0.392-0.488,0.392
		c-0.037,0-0.074-0.004-0.11-0.012c-0.268-0.06-0.438-0.327-0.379-0.596c0.104-0.464,0.259-0.915,0.463-1.342
		c1.039-2.18,3.275-3.589,5.696-3.589c0.94,0,1.849,0.206,2.702,0.613c0.173,0.083,0.285,0.26,0.285,0.452
		c0,0.192-0.112,0.369-0.286,0.451c-1.102,0.523-1.997,1.418-2.519,2.519c-0.607,1.28-0.68,2.721-0.204,4.056
		c0.476,1.335,1.443,2.405,2.723,3.012c0.174,0.082,0.286,0.26,0.286,0.451s-0.112,0.369-0.285,0.452
		c-0.426,0.203-0.877,0.359-1.339,0.463C22.34,12.485,22.303,12.489,22.265,12.489z"/>
	<circle cx="2.749" cy="23.253" r="0.75"/>
	<path d="M4.249,22.253c-0.134,0-0.259-0.052-0.354-0.146s-0.146-0.22-0.146-0.354s0.052-0.259,0.146-0.354l3.5-3.5
		c0.094-0.094,0.22-0.146,0.354-0.146s0.259,0.052,0.354,0.146s0.146,0.22,0.146,0.354s-0.052,0.259-0.146,0.354l-3.5,3.5
		C4.508,22.201,4.383,22.253,4.249,22.253z"/>
	<circle cx="12.749" cy="23.253" r="0.75"/>
	<path d="M14.249,22.253c-0.134,0-0.259-0.052-0.354-0.146s-0.146-0.22-0.146-0.354s0.052-0.259,0.146-0.354l3.5-3.5
		c0.094-0.094,0.22-0.146,0.354-0.146s0.259,0.052,0.354,0.146s0.146,0.22,0.146,0.354s-0.052,0.259-0.146,0.354l-3.5,3.5
		C14.508,22.201,14.383,22.253,14.249,22.253z"/>
	<circle cx="8.749" cy="22.253" r="0.75"/>
	<path d="M10.249,21.253c-0.134,0-0.259-0.052-0.354-0.146s-0.146-0.22-0.146-0.354s0.052-0.259,0.146-0.354l2.5-2.5
		c0.094-0.094,0.22-0.146,0.354-0.146s0.259,0.052,0.354,0.146s0.146,0.22,0.146,0.354s-0.052,0.259-0.146,0.354l-2.5,2.5
		C10.508,21.201,10.383,21.253,10.249,21.253z"/>
	<path d="M2.95,20.303c-0.09,0-0.178-0.024-0.256-0.071c-1.5-0.891-2.496-2.46-2.664-4.197c-0.28-2.89,1.704-5.468,4.543-5.951
		C4.903,7.975,6.328,6.2,8.331,5.423c0.695-0.27,1.423-0.406,2.163-0.406c2.355,0,4.478,1.364,5.456,3.489c0.016,0,0.033,0,0.049,0
		c0.481,0,0.949,0.097,1.39,0.288c1.637,0.709,2.472,2.538,1.959,4.226c0.249,0.204,0.476,0.434,0.676,0.686
		c0.747,0.941,1.083,2.118,0.946,3.312s-0.731,2.263-1.672,3.011c-0.089,0.07-0.199,0.108-0.311,0.108l0,0
		c-0.153,0-0.296-0.069-0.391-0.189c-0.083-0.104-0.12-0.235-0.105-0.368c0.015-0.133,0.081-0.251,0.186-0.335
		c0.732-0.581,1.194-1.413,1.301-2.342c0.107-0.929-0.155-1.844-0.736-2.576c-0.22-0.277-0.48-0.519-0.771-0.717
		c-0.198-0.135-0.272-0.392-0.177-0.612c0.265-0.612,0.275-1.291,0.029-1.913s-0.719-1.11-1.33-1.375
		c-0.315-0.136-0.649-0.206-0.994-0.206c-0.103,0-0.206,0.006-0.308,0.019c-0.019,0.003-0.041,0.004-0.063,0.004
		c-0.203,0-0.39-0.128-0.464-0.319c-0.741-1.91-2.617-3.193-4.668-3.193c-0.616,0-1.223,0.114-1.802,0.338
		C6.906,7.048,5.691,8.664,5.52,10.572c-0.021,0.24-0.211,0.43-0.45,0.453c-2.47,0.239-4.284,2.443-4.045,4.913
		c0.138,1.421,0.953,2.705,2.18,3.435c0.237,0.141,0.315,0.448,0.175,0.685C3.29,20.209,3.126,20.303,2.95,20.303z"/>
</g>
</svg>
