<?xml version="1.0" encoding="utf-8"?>
<!-- Generator: Adobe Illustrator 22.1.0, SVG Export Plug-In . SVG Version: 6.00 Build 0)  -->
<svg version="1.1" id="Light" xmlns="http://www.w3.org/2000/svg" xmlns:xlink="http://www.w3.org/1999/xlink" x="0px" y="0px"
	 viewBox="0 0 24 24" style="enable-background:new 0 0 24 24;" xml:space="preserve">
<g>
	<title>weather-night-rain-drops</title>
	<path d="M22.266,12.489c-0.235,0-0.436-0.16-0.488-0.39c-0.061-0.269,0.109-0.537,0.378-0.598c0.06-0.014,0.12-0.028,0.18-0.044
		c-2.45-1.744-3.354-5.083-2.045-7.844c0.465-0.98,1.166-1.814,2.045-2.437c-0.431-0.112-0.875-0.169-1.323-0.169
		c-2.038,0-3.919,1.185-4.793,3.019c-0.171,0.36-0.302,0.74-0.388,1.129c-0.052,0.231-0.252,0.391-0.488,0.391
		c-0.037,0-0.074-0.004-0.11-0.012c-0.268-0.06-0.438-0.327-0.379-0.596c0.103-0.462,0.259-0.913,0.462-1.342
		c1.04-2.18,3.276-3.589,5.697-3.589c0.94,0,1.848,0.206,2.701,0.612C23.888,0.702,24,0.88,24,1.071
		c0,0.192-0.112,0.369-0.286,0.452c-1.102,0.523-1.997,1.417-2.519,2.519c-1.254,2.643-0.124,5.814,2.52,7.068
		C23.888,11.193,24,11.37,24,11.562s-0.112,0.369-0.285,0.452c-0.427,0.203-0.878,0.359-1.339,0.463
		C22.339,12.485,22.302,12.489,22.266,12.489z"/>
	<path d="M3.5,20.581c-0.07,0-0.137-0.014-0.201-0.042c-1.818-0.8-3.066-2.524-3.259-4.5c-0.143-1.462,0.292-2.892,1.226-4.027
		c0.843-1.025,2.014-1.705,3.315-1.927c0.333-2.097,1.752-3.866,3.742-4.643c0.699-0.273,1.431-0.412,2.177-0.412
		c2.349,0,4.47,1.359,5.45,3.476c0.016,0,0.032,0,0.048,0c0.482,0,0.95,0.097,1.392,0.288c1.637,0.708,2.472,2.538,1.96,4.226
		c0.424,0.346,0.787,0.773,1.057,1.244c0.596,1.039,0.752,2.247,0.439,3.402c-0.313,1.156-1.057,2.12-2.095,2.716
		c-0.076,0.043-0.162,0.066-0.249,0.066l0,0c-0.178,0-0.345-0.096-0.434-0.25c-0.067-0.116-0.084-0.251-0.049-0.38
		c0.035-0.129,0.118-0.237,0.234-0.303c1.665-0.956,2.243-3.088,1.287-4.753c-0.262-0.457-0.632-0.855-1.068-1.15
		c-0.199-0.134-0.274-0.392-0.179-0.613c0.265-0.612,0.275-1.291,0.029-1.913s-0.719-1.11-1.33-1.375
		c-0.315-0.136-0.649-0.206-0.994-0.206c-0.103,0-0.206,0.006-0.308,0.019c-0.02,0.003-0.041,0.004-0.062,0.004
		c-0.204,0-0.39-0.128-0.465-0.318c-0.743-1.903-2.617-3.181-4.663-3.181c-0.621,0-1.231,0.115-1.814,0.343
		C6.91,7.066,5.7,8.676,5.526,10.574c-0.022,0.239-0.211,0.429-0.449,0.452c-1.196,0.117-2.276,0.693-3.039,1.621
		c-0.763,0.928-1.12,2.099-1.003,3.295c0.158,1.617,1.18,3.027,2.667,3.682c0.252,0.111,0.367,0.407,0.256,0.659
		C3.878,20.464,3.698,20.581,3.5,20.581z"/>
	<path d="M11,20.003c-1.103,0-2-0.897-2-2c0-0.936,1.323-2.9,1.589-3.284c0.09-0.131,0.244-0.209,0.411-0.209
		s0.321,0.078,0.411,0.209C11.676,15.103,13,17.066,13,18.003C13,19.106,12.103,20.003,11,20.003z M11,15.915
		c-0.59,0.944-1,1.792-1,2.088c0,0.552,0.449,1,1,1c0.552,0,1-0.448,1-1C12,17.707,11.59,16.859,11,15.915z"/>
	<path d="M7,24.003c-1.103,0-2-0.897-2-2c0-0.936,1.323-2.9,1.589-3.284C6.679,18.588,6.833,18.51,7,18.51s0.321,0.078,0.411,0.209
		C7.677,19.103,9,21.068,9,22.003C9,23.106,8.103,24.003,7,24.003z M7,19.915c-0.59,0.944-1,1.792-1,2.088c0,0.552,0.449,1,1,1
		s1-0.448,1-1C8,21.707,7.59,20.859,7,19.915z"/>
	<path d="M15,24.003c-1.103,0-2-0.897-2-2c0-0.934,1.323-2.899,1.588-3.284c0.091-0.131,0.245-0.209,0.412-0.209
		s0.321,0.078,0.411,0.209C15.677,19.104,17,21.069,17,22.003C17,23.106,16.103,24.003,15,24.003z M15,19.915
		c-0.59,0.944-1,1.792-1,2.088c0,0.552,0.448,1,1,1s1-0.448,1-1C16,21.707,15.59,20.859,15,19.915z"/>
</g>
</svg>
