<?xml version="1.0" encoding="utf-8"?>
<!-- Generator: Adobe Illustrator 22.1.0, SVG Export Plug-In . SVG Version: 6.00 Build 0)  -->
<svg version="1.1" id="Light" xmlns="http://www.w3.org/2000/svg" xmlns:xlink="http://www.w3.org/1999/xlink" x="0px" y="0px"
	 viewBox="0 0 24 24" style="enable-background:new 0 0 24 24;" xml:space="preserve">
<g>
	<title>weather-rain-thunder</title>
	<path d="M15.001,23.971c-0.134,0-0.259-0.052-0.354-0.146s-0.146-0.22-0.146-0.354s0.052-0.259,0.146-0.354l5-5
		c0.094-0.094,0.22-0.146,0.354-0.146s0.259,0.052,0.354,0.146s0.146,0.22,0.146,0.354s-0.052,0.259-0.146,0.354l-5,5
		C15.26,23.919,15.134,23.971,15.001,23.971z"/>
	<path d="M5,23.971c-0.134,0-0.259-0.052-0.354-0.146S4.5,23.604,4.5,23.471s0.052-0.259,0.146-0.354l5-5
		c0.094-0.094,0.22-0.146,0.354-0.146s0.259,0.052,0.354,0.146s0.146,0.22,0.146,0.354s-0.052,0.259-0.146,0.354l-5,5
		C5.26,23.919,5.134,23.971,5,23.971z"/>
	<path d="M3,3.5c-0.134,0-0.259-0.052-0.354-0.147L1.871,2.576c-0.094-0.094-0.146-0.22-0.146-0.354
		c0-0.134,0.052-0.259,0.147-0.354c0.095-0.094,0.22-0.146,0.353-0.146c0.134,0,0.259,0.052,0.354,0.147l0.776,0.777
		C3.449,2.741,3.501,2.867,3.5,3c0,0.134-0.052,0.259-0.147,0.354C3.259,3.448,3.134,3.5,3,3.5z"/>
	<path d="M12,3.5c-0.133,0-0.259-0.052-0.353-0.146C11.553,3.26,11.501,3.134,11.5,3c0-0.134,0.052-0.259,0.146-0.354l0.776-0.777
		c0.094-0.095,0.22-0.147,0.354-0.147c0.133,0,0.259,0.052,0.353,0.146c0.195,0.195,0.195,0.512,0.001,0.707l-0.776,0.777
		C12.26,3.448,12.134,3.5,12,3.5z"/>
	<path d="M5.952,20.3c-0.09,0-0.179-0.024-0.256-0.071c-1.498-0.891-2.494-2.459-2.662-4.194c-0.281-2.89,1.701-5.468,4.54-5.953
		c0.329-2.109,1.755-3.884,3.758-4.661c0.7-0.271,1.431-0.409,2.172-0.409c0.833,0,1.647,0.173,2.419,0.513
		c1.347,0.594,2.417,1.648,3.028,2.978c0.016,0,0.033,0,0.049,0c0.481,0,0.948,0.097,1.39,0.288
		c1.637,0.709,2.472,2.539,1.959,4.226c0.249,0.203,0.475,0.433,0.675,0.684c0.748,0.941,1.084,2.117,0.947,3.311
		c-0.137,1.195-0.731,2.264-1.672,3.011c-0.088,0.07-0.199,0.108-0.311,0.108l0,0c-0.154,0-0.296-0.069-0.392-0.188
		c-0.083-0.105-0.121-0.236-0.105-0.368c0.015-0.133,0.081-0.251,0.186-0.335c0.731-0.58,1.192-1.412,1.299-2.342
		c0.106-0.93-0.155-1.844-0.735-2.575c-0.219-0.276-0.478-0.517-0.77-0.716c-0.198-0.135-0.272-0.392-0.177-0.612
		c0.265-0.612,0.275-1.291,0.029-1.913c-0.246-0.622-0.719-1.11-1.33-1.375c-0.315-0.136-0.649-0.205-0.994-0.205
		c-0.103,0-0.206,0.006-0.308,0.019c-0.019,0.003-0.041,0.004-0.062,0.004c-0.204,0-0.391-0.128-0.465-0.319
		C17.68,7.962,16.742,6.979,15.52,6.44c-0.644-0.284-1.323-0.428-2.016-0.428c-0.617,0-1.226,0.115-1.81,0.341
		C9.907,7.046,8.692,8.662,8.522,10.57C8.5,10.81,8.311,11,8.072,11.024c-2.47,0.241-4.283,2.445-4.043,4.915
		c0.138,1.419,0.953,2.702,2.179,3.432c0.237,0.141,0.315,0.448,0.174,0.685C6.292,20.206,6.128,20.3,5.952,20.3z"/>
	<path d="M4.175,10.223c-0.167,0-0.322-0.083-0.415-0.221C3.089,9.004,2.847,7.805,3.078,6.626c0.231-1.18,0.908-2.198,1.905-2.869
		c0.751-0.505,1.62-0.772,2.513-0.772c1.032,0,2.045,0.365,2.853,1.028c0.213,0.175,0.244,0.491,0.069,0.704
		C10.323,4.833,10.183,4.9,10.032,4.9c-0.115,0-0.228-0.04-0.317-0.114C9.086,4.27,8.298,3.986,7.496,3.986
		c-0.694,0-1.37,0.208-1.955,0.601C4.766,5.108,4.239,5.901,4.06,6.818c-0.18,0.917,0.008,1.85,0.53,2.626
		c0.154,0.229,0.093,0.54-0.136,0.694C4.37,10.194,4.274,10.223,4.175,10.223z"/>
	<path d="M0.5,7C0.225,7,0,6.776,0,6.5S0.225,6,0.5,6h1C1.776,6,2,6.224,2,6.5S1.776,7,1.5,7H0.5z"/>
	<path d="M7.5,2C7.225,2,7,1.776,7,1.5v-1C7,0.224,7.225,0,7.5,0S8,0.224,8,0.5v1C8,1.776,7.776,2,7.5,2z"/>
	<path d="M11.5,24c-0.134,0-0.259-0.052-0.354-0.146c-0.195-0.195-0.195-0.512,0-0.707l1.647-1.646H11.5
		c-0.203,0-0.384-0.121-0.462-0.309c-0.078-0.188-0.035-0.401,0.108-0.545l2.5-2.5C13.742,18.052,13.867,18,14.001,18
		s0.259,0.052,0.354,0.146s0.146,0.22,0.146,0.354s-0.052,0.259-0.146,0.354L12.708,20.5h1.293c0.203,0,0.385,0.121,0.462,0.309
		c0.078,0.187,0.035,0.401-0.109,0.545l-2.5,2.5C11.76,23.948,11.634,24,11.5,24z"/>
</g>
</svg>
