<?xml version="1.0" encoding="utf-8"?>
<!-- Generator: Adobe Illustrator 22.1.0, SVG Export Plug-In . SVG Version: 6.00 Build 0)  -->
<svg version="1.1" id="Light" xmlns="http://www.w3.org/2000/svg" xmlns:xlink="http://www.w3.org/1999/xlink" x="0px" y="0px"
	 viewBox="0 0 24 24" style="enable-background:new 0 0 24 24;" xml:space="preserve">
<g>
	<title>weather-clouds-rainbow</title>
	<path d="M0.5,21.005c-0.276,0-0.5-0.224-0.5-0.5s0.224-0.5,0.5-0.5h4.229C6.004,19.832,6.98,18.736,7,17.448
		c0.001-1.394-1.138-2.531-2.537-2.531c-0.032,0-0.121,0.003-0.124,0.003c-0.187,0-0.361-0.112-0.443-0.286
		c-0.616-1.293-1.938-2.129-3.369-2.129c-0.001,0-0.025,0-0.025,0c-0.276,0-0.5-0.223-0.501-0.497
		c-0.001-0.134,0.051-0.259,0.145-0.354c0.094-0.095,0.219-0.148,0.353-0.148c0,0,0.026,0,0.026,0c1.694,0,3.299,0.944,4.129,2.417
		c1.86,0.1,3.349,1.655,3.348,3.534c-0.028,1.803-1.395,3.325-3.178,3.545c-0.021,0.003-0.041,0.004-0.061,0.004H0.5z"/>
	<path d="M19.239,21.005c-0.021,0-0.041-0.001-0.061-0.004c-1.783-0.22-3.15-1.74-3.178-3.537c0-0.951,0.367-1.841,1.035-2.51
		c0.622-0.623,1.439-0.986,2.313-1.032c0.829-1.473,2.434-2.417,4.128-2.417c0,0,0.026,0,0.026,0
		c0.276,0.001,0.499,0.227,0.497,0.503c-0.001,0.274-0.226,0.497-0.5,0.497h0c-1.456,0-2.78,0.835-3.395,2.129
		c-0.084,0.177-0.254,0.286-0.442,0.286c-0.007,0-0.033-0.001-0.04-0.002c-0.017,0-0.047-0.001-0.077-0.001
		c-0.684,0-1.324,0.264-1.803,0.744C17.263,16.14,17,16.777,17,17.456c0.02,1.282,0.996,2.377,2.271,2.549H23.5
		c0.276,0,0.5,0.224,0.5,0.5s-0.224,0.5-0.5,0.5H19.239z"/>
	<path d="M2.511,10.005c-0.075,0-0.147-0.016-0.215-0.048C2.047,9.838,1.941,9.539,2.059,9.29c1.815-3.812,5.724-6.276,9.958-6.276
		c1.641,0,3.228,0.36,4.717,1.069c2.274,1.083,4.124,2.932,5.207,5.207c0.058,0.121,0.064,0.257,0.02,0.382
		s-0.136,0.227-0.256,0.284c-0.067,0.032-0.141,0.048-0.215,0.048c-0.192,0-0.369-0.112-0.452-0.285
		c-0.985-2.068-2.666-3.75-4.734-4.734c-1.363-0.649-2.808-0.978-4.297-0.978c-1.138,0-2.267,0.196-3.355,0.582
		c-2.52,0.894-4.541,2.716-5.69,5.13C2.88,9.893,2.703,10.005,2.511,10.005L2.511,10.005z"/>
	<path d="M5.459,12.005c-0.062,0-0.122-0.011-0.18-0.034c-0.124-0.048-0.223-0.141-0.277-0.264s-0.058-0.258-0.01-0.383
		c1.108-2.877,3.927-4.81,7.016-4.81c0.92,0,1.826,0.169,2.691,0.502c1.976,0.761,3.547,2.331,4.308,4.308
		c0.048,0.125,0.044,0.26-0.01,0.383c-0.054,0.122-0.153,0.216-0.278,0.264c-0.058,0.022-0.118,0.033-0.179,0.033
		c-0.205,0-0.393-0.129-0.467-0.32c-0.66-1.713-2.021-3.074-3.734-3.734c-0.756-0.291-1.544-0.439-2.342-0.439
		c-0.908,0-1.796,0.19-2.638,0.563c-1.589,0.705-2.808,1.987-3.433,3.61C5.852,11.876,5.664,12.005,5.459,12.005z"/>
	<path d="M15.5,14.505c-0.276,0-0.5-0.224-0.5-0.5c0-0.925-0.32-1.695-0.924-2.228c-0.543-0.479-1.28-0.742-2.075-0.742
		c-1.445,0-3.001,0.929-3.001,2.97c0,0.276-0.224,0.5-0.5,0.5S8,14.28,8,14.005c0-1.219,0.437-2.249,1.264-2.978
		c0.726-0.64,1.698-0.993,2.737-0.993c1.987,0,3.999,1.364,3.999,3.97C16,14.28,15.776,14.505,15.5,14.505z"/>
</g>
</svg>
