<?xml version="1.0" encoding="utf-8"?>
<!-- Generator: Adobe Illustrator 22.1.0, SVG Export Plug-In . SVG Version: 6.00 Build 0)  -->
<svg version="1.1" id="Light" xmlns="http://www.w3.org/2000/svg" xmlns:xlink="http://www.w3.org/1999/xlink" x="0px" y="0px"
	 viewBox="0 0 24 24" style="enable-background:new 0 0 24 24;" xml:space="preserve">
<g>
	<title>weather-clouds</title>
	<path d="M5.496,23.998c-2.824-0.015-5.165-2.144-5.446-4.951c-0.29-2.89,1.687-5.474,4.526-5.967
		c0.332-2.098,1.752-3.866,3.742-4.644c0.699-0.273,1.431-0.412,2.177-0.412c2.349,0,4.47,1.359,5.45,3.476c0.017,0,0.033,0,0.05,0
		c0.481,0,0.948,0.097,1.39,0.288c1.637,0.708,2.472,2.538,1.959,4.226c1.037,0.849,1.651,2.137,1.651,3.483
		c0,1.202-0.468,2.332-1.317,3.182c-0.85,0.85-1.98,1.318-3.182,1.319H5.496z M10.495,9.024c-0.621,0-1.231,0.115-1.813,0.343
		c-1.775,0.693-2.986,2.303-3.16,4.201c-0.022,0.238-0.21,0.428-0.448,0.452c-2.469,0.248-4.276,2.458-4.029,4.927
		c0.23,2.297,2.145,4.039,4.454,4.051h10.997c0.935,0,1.814-0.365,2.475-1.026c0.661-0.661,1.025-1.54,1.025-2.475
		c0-1.159-0.572-2.24-1.53-2.892c-0.198-0.135-0.272-0.392-0.177-0.612c0.265-0.613,0.276-1.292,0.031-1.913
		c-0.246-0.621-0.719-1.109-1.332-1.374c-0.315-0.137-0.649-0.206-0.994-0.206c-0.103,0-0.206,0.006-0.308,0.019
		c-0.021,0.002-0.041,0.004-0.06,0.004c-0.205,0-0.392-0.128-0.467-0.318C14.415,10.302,12.541,9.024,10.495,9.024z"/>
	<path d="M22.02,15.098c-0.151,0-0.293-0.067-0.388-0.185c-0.084-0.103-0.123-0.233-0.109-0.366
		c0.014-0.133,0.078-0.252,0.182-0.337c1.497-1.218,1.724-3.427,0.506-4.924c-0.214-0.263-0.464-0.493-0.744-0.683
		c-0.198-0.135-0.272-0.392-0.177-0.612c0.265-0.612,0.275-1.291,0.029-1.913s-0.719-1.11-1.33-1.375
		c-0.315-0.136-0.649-0.205-0.994-0.205c-0.102,0-0.206,0.006-0.307,0.019c-0.019,0.003-0.041,0.004-0.062,0.004
		c-0.204,0-0.391-0.128-0.465-0.319c-0.484-1.245-1.423-2.227-2.645-2.766c-0.643-0.283-1.321-0.427-2.014-0.427
		c-0.618,0-1.228,0.115-1.812,0.342c-1.784,0.693-2.999,2.308-3.17,4.215c-0.021,0.24-0.211,0.43-0.45,0.453
		C5.747,6.24,3.996,8.166,3.996,10.498c0,0.276-0.224,0.5-0.5,0.5s-0.5-0.224-0.5-0.5c0-2.724,1.913-4.975,4.575-5.422
		c0.33-2.107,1.755-3.88,3.755-4.657c0.7-0.272,1.432-0.41,2.174-0.41c0.833,0,1.646,0.172,2.417,0.512
		c1.347,0.594,2.417,1.647,3.03,2.977c0.016,0,0.032,0,0.049,0c0.481,0,0.949,0.097,1.39,0.288c1.637,0.709,2.472,2.539,1.959,4.226
		c0.234,0.192,0.449,0.407,0.641,0.643c1.566,1.925,1.274,4.765-0.65,6.331C22.247,15.058,22.135,15.098,22.02,15.098z"/>
</g>
</svg>
