<?xml version="1.0" encoding="utf-8"?>
<!-- Generator: Adobe Illustrator 22.1.0, SVG Export Plug-In . SVG Version: 6.00 Build 0)  -->
<svg version="1.1" id="Light" xmlns="http://www.w3.org/2000/svg" xmlns:xlink="http://www.w3.org/1999/xlink" x="0px" y="0px"
	 viewBox="0 0 24 24" style="enable-background:new 0 0 24 24;" xml:space="preserve">
<g>
	<title>weather-night-rain</title>
	<path d="M18.988,20.136c-0.154,0-0.296-0.069-0.392-0.189c-0.083-0.104-0.121-0.235-0.105-0.368
		c0.015-0.133,0.081-0.251,0.186-0.335c0.732-0.581,1.194-1.413,1.301-2.342c0.107-0.928-0.155-1.843-0.736-2.575
		c-0.219-0.277-0.479-0.518-0.771-0.717c-0.198-0.135-0.272-0.392-0.177-0.612c0.265-0.613,0.276-1.292,0.031-1.913
		c-0.246-0.621-0.719-1.109-1.332-1.374c-0.315-0.136-0.65-0.206-0.994-0.206c-0.103,0-0.206,0.006-0.307,0.019
		c-0.02,0.003-0.041,0.004-0.062,0.004c-0.204,0-0.391-0.128-0.465-0.319c-0.483-1.246-1.422-2.228-2.644-2.767
		c-0.644-0.284-1.322-0.428-2.016-0.428c-0.617,0-1.226,0.115-1.81,0.341c-1.786,0.693-3.002,2.309-3.172,4.217
		c-0.021,0.24-0.211,0.43-0.45,0.453c-1.194,0.114-2.274,0.688-3.04,1.617c-0.766,0.928-1.125,2.097-1.01,3.292
		c0.12,1.261,0.772,2.418,1.786,3.177c0.107,0.08,0.176,0.197,0.196,0.329c0.019,0.132-0.014,0.264-0.094,0.371
		c-0.094,0.126-0.244,0.201-0.401,0.201c-0.109,0-0.212-0.035-0.299-0.1c-1.24-0.926-2.035-2.341-2.183-3.882
		c-0.276-2.891,1.71-5.466,4.55-5.946c0.33-2.109,1.755-3.884,3.757-4.66c0.7-0.271,1.431-0.409,2.172-0.409
		c0.833,0,1.647,0.173,2.419,0.513c1.347,0.594,2.417,1.648,3.028,2.978c0.016,0,0.033,0,0.049,0c0.48,0,0.948,0.097,1.39,0.288
		c1.637,0.708,2.472,2.538,1.959,4.226c0.249,0.204,0.476,0.434,0.676,0.686c0.748,0.942,1.083,2.118,0.946,3.312
		c-0.137,1.194-0.731,2.264-1.672,3.011C19.21,20.098,19.1,20.136,18.988,20.136z"/>
	<path d="M2,24.003c-0.134,0-0.259-0.052-0.354-0.146S1.5,23.636,1.5,23.503s0.052-0.259,0.146-0.354l5-5
		c0.094-0.094,0.22-0.146,0.354-0.146s0.259,0.052,0.354,0.146S7.5,18.369,7.5,18.503s-0.052,0.259-0.146,0.354l-5,5
		C2.259,23.951,2.133,24.003,2,24.003z"/>
	<path d="M7,24.003c-0.134,0-0.259-0.052-0.354-0.146S6.5,23.636,6.5,23.503s0.052-0.259,0.146-0.354l5-5
		c0.094-0.094,0.22-0.146,0.354-0.146s0.259,0.052,0.354,0.146c0.195,0.195,0.195,0.512,0,0.707l-5,5
		C7.259,23.951,7.133,24.003,7,24.003z"/>
	<path d="M12,24.003c-0.134,0-0.259-0.052-0.354-0.146c-0.195-0.195-0.195-0.512,0-0.707l5-5c0.094-0.094,0.22-0.146,0.354-0.146
		s0.259,0.052,0.354,0.146s0.146,0.22,0.146,0.354s-0.052,0.259-0.146,0.354l-5,5C12.259,23.951,12.133,24.003,12,24.003z"/>
	<path d="M21,12.628c-0.276,0-0.5-0.224-0.5-0.5c0-0.276,0.224-0.5,0.5-0.5c0.444,0,0.897-0.059,1.333-0.172
		c-1.047-0.744-1.849-1.8-2.285-3.023c-0.565-1.587-0.479-3.299,0.243-4.821c0.465-0.98,1.167-1.814,2.045-2.438
		c-0.431-0.112-0.874-0.169-1.322-0.169c-2.038,0-3.92,1.185-4.794,3.019c-0.172,0.361-0.303,0.741-0.389,1.13
		c-0.052,0.231-0.252,0.391-0.488,0.391c-0.036,0-0.073-0.004-0.108-0.012c-0.27-0.06-0.44-0.328-0.38-0.596
		c0.103-0.463,0.259-0.915,0.463-1.343c1.04-2.18,3.276-3.589,5.698-3.589c0.939,0,1.848,0.206,2.7,0.612
		C23.888,0.7,24,0.877,24,1.069c0,0.192-0.112,0.369-0.286,0.452c-1.102,0.523-1.997,1.418-2.52,2.52
		c-0.608,1.281-0.68,2.721-0.204,4.057c0.476,1.335,1.443,2.405,2.724,3.013C23.887,11.192,24,11.37,24,11.562
		c0,0.192-0.112,0.369-0.284,0.451C22.872,12.415,21.933,12.628,21,12.628L21,12.628z"/>
</g>
</svg>
