<?xml version="1.0" encoding="utf-8"?>
<!-- Generator: Adobe Illustrator 22.1.0, SVG Export Plug-In . SVG Version: 6.00 Build 0)  -->
<svg version="1.1" id="Light" xmlns="http://www.w3.org/2000/svg" xmlns:xlink="http://www.w3.org/1999/xlink" x="0px" y="0px"
	 viewBox="0 0 24 24" style="enable-background:new 0 0 24 24;" xml:space="preserve">
<g>
	<title>weather-rain</title>
	<circle cx="5.751" cy="23.25" r="0.75"/>
	<path d="M7.251,22.25c-0.134,0-0.259-0.052-0.354-0.146s-0.146-0.22-0.146-0.354s0.052-0.259,0.146-0.354l3.5-3.5
		c0.094-0.094,0.22-0.146,0.354-0.146s0.259,0.052,0.354,0.146s0.146,0.22,0.146,0.354s-0.052,0.259-0.146,0.354l-3.5,3.5
		C7.51,22.198,7.384,22.25,7.251,22.25z"/>
	<circle cx="15.751" cy="23.25" r="0.75"/>
	<path d="M17.251,22.25c-0.134,0-0.259-0.052-0.354-0.146s-0.146-0.22-0.146-0.354s0.052-0.259,0.146-0.354l3.5-3.5
		c0.094-0.094,0.22-0.146,0.354-0.146s0.259,0.052,0.354,0.146s0.146,0.22,0.146,0.354s-0.052,0.259-0.146,0.354l-3.5,3.5
		C17.51,22.198,17.384,22.25,17.251,22.25z"/>
	<path d="M11.751,23c-0.414,0-0.75-0.336-0.75-0.75s0.336-0.75,0.75-0.75s0.75,0.336,0.75,0.75S12.164,23,11.751,23z"/>
	<path d="M13.251,21.25c-0.134,0-0.259-0.052-0.354-0.146s-0.146-0.22-0.146-0.354s0.052-0.259,0.146-0.354l2.25-2.25
		C15.242,18.052,15.367,18,15.501,18s0.259,0.052,0.354,0.146s0.146,0.22,0.146,0.354s-0.052,0.259-0.146,0.354l-2.25,2.25
		C13.51,21.198,13.384,21.25,13.251,21.25z"/>
	<path d="M3.001,3.5c-0.134,0-0.259-0.052-0.354-0.147L1.871,2.576c-0.094-0.094-0.146-0.22-0.146-0.354
		c0-0.134,0.052-0.259,0.147-0.354c0.095-0.094,0.22-0.146,0.353-0.146c0.134,0,0.259,0.052,0.354,0.147l0.776,0.777
		C3.449,2.741,3.501,2.867,3.501,3c0,0.134-0.052,0.259-0.147,0.354C3.259,3.448,3.134,3.5,3.001,3.5z"/>
	<path d="M12.001,3.5c-0.133,0-0.259-0.052-0.353-0.146C11.553,3.26,11.501,3.134,11.501,3c0-0.134,0.052-0.259,0.146-0.354
		l0.776-0.777c0.094-0.095,0.22-0.147,0.354-0.147c0.133,0,0.259,0.052,0.353,0.146c0.195,0.195,0.195,0.512,0.001,0.707
		l-0.776,0.777C12.26,3.448,12.134,3.5,12.001,3.5z"/>
	<path d="M5.951,20.3c-0.09,0-0.178-0.024-0.256-0.071c-1.5-0.891-2.496-2.46-2.664-4.197c-0.28-2.89,1.704-5.468,4.543-5.951
		c0.33-2.109,1.755-3.884,3.758-4.661c0.7-0.271,1.431-0.409,2.172-0.409c0.833,0,1.647,0.173,2.419,0.513
		c1.347,0.594,2.417,1.648,3.028,2.978c0.016,0,0.033,0,0.049,0c0.48,0,0.948,0.097,1.39,0.288c1.637,0.709,2.472,2.539,1.959,4.226
		c0.249,0.204,0.476,0.434,0.676,0.686c0.748,0.942,1.083,2.118,0.946,3.312c-0.137,1.194-0.731,2.263-1.672,3.011
		c-0.089,0.07-0.199,0.108-0.311,0.108l0,0c-0.153,0-0.296-0.069-0.391-0.188c-0.172-0.216-0.135-0.531,0.08-0.703
		c0.732-0.581,1.194-1.413,1.301-2.342c0.107-0.928-0.155-1.843-0.736-2.575c-0.22-0.277-0.479-0.518-0.771-0.717
		c-0.198-0.135-0.273-0.392-0.178-0.612c0.548-1.265-0.036-2.74-1.301-3.288c-0.315-0.136-0.649-0.205-0.994-0.205
		c-0.102,0-0.206,0.006-0.307,0.019c-0.02,0.003-0.041,0.004-0.062,0.004c-0.204,0-0.391-0.128-0.466-0.318
		c-0.483-1.246-1.422-2.228-2.644-2.767c-0.644-0.284-1.322-0.428-2.016-0.428c-0.617,0-1.226,0.115-1.81,0.341
		c-1.786,0.693-3.002,2.309-3.172,4.217C8.5,10.809,8.311,11,8.072,11.023c-2.47,0.239-4.284,2.443-4.045,4.913
		c0.138,1.421,0.953,2.705,2.18,3.435c0.237,0.141,0.315,0.448,0.175,0.685C6.292,20.206,6.127,20.3,5.951,20.3z"/>
	<path d="M4.175,10.223c-0.167,0-0.322-0.083-0.415-0.221c-0.67-0.998-0.911-2.197-0.68-3.377c0.232-1.179,0.909-2.198,1.907-2.868
		c0.75-0.504,1.619-0.77,2.511-0.77c1.031,0,2.043,0.365,2.851,1.026c0.213,0.175,0.244,0.491,0.07,0.704
		C10.323,4.833,10.182,4.9,10.031,4.9c-0.115,0-0.228-0.04-0.317-0.114C9.086,4.271,8.299,3.988,7.498,3.988
		c-0.693,0-1.369,0.207-1.953,0.6C4.768,5.109,4.241,5.901,4.061,6.818c-0.18,0.917,0.007,1.85,0.528,2.626
		c0.074,0.111,0.101,0.244,0.076,0.375c-0.026,0.131-0.101,0.244-0.212,0.319C4.371,10.194,4.274,10.223,4.175,10.223z"/>
	<path d="M0.501,7c-0.276,0-0.5-0.224-0.5-0.5S0.225,6,0.501,6h1c0.276,0,0.5,0.224,0.5,0.5S1.776,7,1.501,7H0.501z"/>
	<path d="M7.501,2c-0.276,0-0.5-0.224-0.5-0.5v-1c0-0.276,0.224-0.5,0.5-0.5s0.5,0.224,0.5,0.5v1C8.001,1.776,7.776,2,7.501,2z"/>
</g>
</svg>
