<?xml version="1.0" encoding="utf-8"?>
<!-- Generator: Adobe Illustrator 22.1.0, SVG Export Plug-In . SVG Version: 6.00 Build 0)  -->
<svg version="1.1" id="Light" xmlns="http://www.w3.org/2000/svg" xmlns:xlink="http://www.w3.org/1999/xlink" x="0px" y="0px"
	 viewBox="0 0 24 24" style="enable-background:new 0 0 24 24;" xml:space="preserve">
<g>
	<title>weather-sun</title>
	<path d="M12,19.5c-4.135,0-7.5-3.365-7.5-7.5S7.865,4.5,12,4.5s7.5,3.365,7.5,7.5S16.135,19.5,12,19.5z M12,5.5
		c-3.584,0-6.5,2.916-6.5,6.5c0,3.584,2.916,6.5,6.5,6.5c3.584,0,6.5-2.916,6.5-6.5C18.5,8.416,15.584,5.5,12,5.5z"/>
	<path d="M12,23.5c-0.276,0-0.5-0.224-0.5-0.5v-2c0-0.276,0.224-0.5,0.5-0.5c0.276,0,0.5,0.224,0.5,0.5v2
		C12.5,23.276,12.276,23.5,12,23.5z"/>
	<path d="M21,12.5c-0.276,0-0.5-0.224-0.5-0.5c0-0.276,0.224-0.5,0.5-0.5h2c0.276,0,0.5,0.224,0.5,0.5c0,0.276-0.224,0.5-0.5,0.5H21
		z"/>
	<path d="M12,3.5c-0.276,0-0.5-0.224-0.5-0.5V1c0-0.276,0.224-0.5,0.5-0.5c0.276,0,0.5,0.224,0.5,0.5v2
		C12.5,3.276,12.276,3.5,12,3.5z"/>
	<path d="M1,12.5c-0.276,0-0.5-0.224-0.5-0.5c0-0.276,0.224-0.5,0.5-0.5h2c0.276,0,0.5,0.224,0.5,0.5c0,0.276-0.224,0.5-0.5,0.5H1z"
		/>
	<path d="M4.222,20.279c-0.134,0-0.259-0.052-0.354-0.146s-0.146-0.22-0.146-0.354s0.052-0.259,0.146-0.354l1.415-1.415
		c0.094-0.094,0.22-0.146,0.354-0.146s0.259,0.052,0.354,0.146s0.146,0.22,0.146,0.354s-0.052,0.259-0.146,0.354l-1.415,1.415
		C4.481,20.227,4.356,20.279,4.222,20.279z"/>
	<path d="M19.778,20.278c-0.134,0-0.259-0.052-0.354-0.146l-1.414-1.414c-0.195-0.195-0.195-0.512,0-0.707
		c0.094-0.094,0.22-0.146,0.354-0.146s0.259,0.052,0.354,0.146l1.414,1.414c0.195,0.195,0.195,0.512,0,0.707
		C20.037,20.226,19.912,20.278,19.778,20.278z"/>
	<path d="M18.365,6.137c-0.134,0-0.259-0.052-0.354-0.146c-0.195-0.195-0.195-0.512,0-0.707l1.414-1.414
		c0.094-0.094,0.22-0.146,0.354-0.146s0.259,0.052,0.354,0.146c0.195,0.195,0.195,0.512,0,0.707L18.719,5.99
		C18.624,6.085,18.499,6.137,18.365,6.137z"/>
	<path d="M5.636,6.137c-0.134,0-0.259-0.052-0.354-0.146L3.869,4.577c-0.195-0.195-0.195-0.512,0-0.707
		c0.094-0.094,0.22-0.146,0.354-0.146S4.481,3.775,4.576,3.87L5.99,5.283c0.195,0.195,0.195,0.512,0,0.707
		C5.895,6.085,5.77,6.137,5.636,6.137z"/>
</g>
</svg>
