<?xml version="1.0" encoding="utf-8"?>
<!-- Generator: Adobe Illustrator 22.1.0, SVG Export Plug-In . SVG Version: 6.00 Build 0)  -->
<svg version="1.1" id="Light" xmlns="http://www.w3.org/2000/svg" xmlns:xlink="http://www.w3.org/1999/xlink" x="0px" y="0px"
	 viewBox="0 0 24 24" style="enable-background:new 0 0 24 24;" xml:space="preserve">
<g>
	<title>weather-cloud-rain</title>
	<path d="M2,23.748c-0.134,0-0.259-0.052-0.354-0.146S1.5,23.381,1.5,23.248s0.052-0.259,0.146-0.354l5-5
		C6.741,17.8,6.867,17.748,7,17.748s0.259,0.052,0.354,0.146S7.5,18.114,7.5,18.248s-0.052,0.259-0.146,0.354l-5,5
		C2.259,23.696,2.134,23.748,2,23.748z"/>
	<path d="M7,23.748c-0.134,0-0.259-0.052-0.354-0.146S6.5,23.381,6.5,23.248s0.052-0.259,0.146-0.354l5-5
		c0.094-0.094,0.22-0.146,0.354-0.146s0.259,0.052,0.354,0.146c0.195,0.195,0.195,0.512,0,0.707l-5,5
		C7.259,23.696,7.134,23.748,7,23.748z"/>
	<path d="M12,23.748c-0.134,0-0.259-0.052-0.354-0.146c-0.195-0.195-0.195-0.512,0-0.707l5-5c0.094-0.094,0.22-0.146,0.354-0.146
		s0.259,0.052,0.354,0.146s0.146,0.22,0.146,0.354s-0.052,0.259-0.146,0.354l-5,5C12.259,23.696,12.134,23.748,12,23.748z"/>
	<path d="M7,16.248c-2.826-0.012-5.169-2.141-5.451-4.951c-0.146-1.462,0.285-2.893,1.215-4.03c0.84-1.028,2.01-1.71,3.31-1.936
		C6.403,3.22,7.828,1.445,9.831,0.668c0.7-0.271,1.431-0.409,2.172-0.409c0.833,0,1.647,0.173,2.419,0.513
		c1.347,0.594,2.417,1.648,3.028,2.978c0.015,0,0.031,0,0.046,0c0.483,0,0.952,0.097,1.393,0.288
		c1.637,0.708,2.472,2.538,1.959,4.226c1.037,0.849,1.651,2.138,1.651,3.484c0,2.481-2.019,4.5-4.5,4.5H7z M12.003,1.259
		c-0.617,0-1.226,0.115-1.81,0.341C8.407,2.293,7.191,3.909,7.021,5.817C7,6.056,6.811,6.246,6.573,6.27
		C5.377,6.39,4.299,6.969,3.538,7.899c-0.761,0.931-1.114,2.102-0.994,3.298c0.23,2.299,2.147,4.041,4.458,4.051H18
		c1.93,0,3.5-1.57,3.5-3.5c0-1.159-0.572-2.241-1.53-2.893c-0.198-0.135-0.273-0.392-0.178-0.612
		c0.265-0.613,0.276-1.292,0.031-1.913c-0.246-0.621-0.719-1.109-1.332-1.374c-0.315-0.136-0.649-0.206-0.993-0.206
		c-0.103,0-0.206,0.006-0.308,0.019c-0.019,0.003-0.041,0.004-0.063,0.004c-0.204,0-0.391-0.128-0.465-0.319
		c-0.483-1.245-1.422-2.228-2.644-2.767C13.375,1.403,12.697,1.259,12.003,1.259z"/>
</g>
</svg>
