<?xml version="1.0" encoding="utf-8"?>
<!-- Generator: Adobe Illustrator 22.1.0, SVG Export Plug-In . SVG Version: 6.00 Build 0)  -->
<svg version="1.1" id="Light" xmlns="http://www.w3.org/2000/svg" xmlns:xlink="http://www.w3.org/1999/xlink" x="0px" y="0px"
	 viewBox="0 0 24 24" style="enable-background:new 0 0 24 24;" xml:space="preserve">
<g>
	<title>weather-night-wind-1</title>
	<path d="M22.266,12.483c-0.235,0-0.436-0.16-0.488-0.39c-0.061-0.269,0.109-0.537,0.378-0.598c0.06-0.014,0.12-0.028,0.18-0.044
		c-2.45-1.744-3.354-5.083-2.045-7.844c0.465-0.98,1.167-1.814,2.046-2.438c-0.434-0.114-0.88-0.172-1.329-0.172
		c-0.602,0-1.199,0.104-1.774,0.307C17.9,1.778,16.829,2.742,16.22,4.02c-0.172,0.36-0.302,0.74-0.389,1.128
		C15.78,5.376,15.575,5.54,15.344,5.54c-0.037,0-0.074-0.004-0.11-0.012c-0.268-0.06-0.438-0.327-0.379-0.596
		c0.104-0.464,0.259-0.915,0.463-1.342c0.724-1.519,1.996-2.665,3.582-3.227c0.683-0.242,1.393-0.365,2.109-0.365
		c0.938,0,1.849,0.207,2.707,0.616C23.888,0.696,24,0.874,24,1.065c0,0.192-0.112,0.369-0.286,0.452
		c-1.102,0.523-1.996,1.417-2.519,2.519c-0.607,1.28-0.68,2.721-0.204,4.056c0.476,1.335,1.443,2.405,2.723,3.012
		C23.888,11.187,24,11.364,24,11.556s-0.112,0.369-0.285,0.452c-0.426,0.203-0.877,0.359-1.339,0.463
		C22.34,12.479,22.303,12.483,22.266,12.483z"/>
	<path d="M15.5,20.997c-0.276,0-0.5-0.224-0.5-0.5s0.224-0.5,0.5-0.5h1c0.935,0,1.814-0.365,2.475-1.026
		c0.661-0.661,1.025-1.54,1.025-2.475c0-1.158-0.572-2.24-1.53-2.892c-0.198-0.135-0.272-0.392-0.177-0.612
		c0.265-0.612,0.275-1.291,0.029-1.913c-0.246-0.622-0.719-1.11-1.33-1.375c-0.315-0.136-0.65-0.205-0.994-0.205
		c-0.102,0-0.206,0.006-0.308,0.019c-0.02,0.003-0.041,0.004-0.062,0.004c-0.204,0-0.391-0.128-0.465-0.318
		c-0.486-1.244-1.427-2.224-2.65-2.76c-0.641-0.281-1.316-0.423-2.005-0.423c-0.621,0-1.234,0.116-1.821,0.346
		C6.91,7.06,5.7,8.67,5.526,10.568c-0.022,0.239-0.211,0.429-0.451,0.452C2.753,11.24,1.001,13.165,1,15.498
		c0.002,0.298,0.035,0.599,0.099,0.894c0.028,0.13,0.004,0.264-0.069,0.376c-0.072,0.112-0.184,0.19-0.315,0.218
		c-0.034,0.008-0.07,0.011-0.106,0.011c-0.233,0-0.439-0.166-0.488-0.395C0.043,16.241,0.003,15.87,0,15.501
		c0.001-2.729,1.916-4.979,4.58-5.424C4.913,7.98,6.332,6.212,8.322,5.435c0.704-0.275,1.439-0.414,2.185-0.414
		c0.828,0,1.638,0.171,2.407,0.507c1.349,0.591,2.421,1.643,3.036,2.972c0.015,0,0.03,0,0.045,0c0.484,0,0.953,0.097,1.395,0.288
		c1.637,0.709,2.472,2.539,1.96,4.226c1.037,0.849,1.651,2.137,1.651,3.483c0,1.202-0.468,2.332-1.317,3.182
		c-0.85,0.85-1.98,1.318-3.182,1.319H15.5z"/>
	<path d="M0.5,18.997c-0.276,0-0.5-0.224-0.5-0.5s0.224-0.5,0.5-0.5H13c0.555,0,1.004-0.447,1.006-0.996
		c0.002-0.551-0.444-1.002-0.996-1.004c-0.427,0-0.806,0.268-0.947,0.667c-0.07,0.199-0.26,0.333-0.472,0.333
		c-0.057,0-0.113-0.01-0.166-0.028c-0.126-0.044-0.227-0.135-0.285-0.256s-0.065-0.256-0.02-0.382
		c0.282-0.798,1.04-1.333,1.885-1.333c0.543,0.002,1.044,0.212,1.42,0.592c0.376,0.379,0.582,0.883,0.58,1.417
		c-0.004,1.098-0.902,1.992-2,1.992H0.5z"/>
	<path d="M8.006,23.997c-0.846,0-1.603-0.536-1.885-1.333c-0.045-0.126-0.037-0.261,0.02-0.382S6.3,22.07,6.426,22.026
		c0.053-0.019,0.11-0.029,0.167-0.029c0.212,0,0.401,0.134,0.472,0.334c0.141,0.398,0.52,0.666,0.943,0.666
		c0.271-0.001,0.522-0.106,0.71-0.296c0.188-0.19,0.291-0.441,0.29-0.708C9.005,21.726,8.9,21.475,8.71,21.287
		c-0.182-0.18-0.436-0.283-0.715-0.29H0.5c-0.276,0-0.5-0.224-0.5-0.5s0.224-0.5,0.5-0.5H8c0.538,0,1.038,0.206,1.415,0.58
		c0.379,0.376,0.589,0.877,0.592,1.412c0.002,0.533-0.204,1.036-0.581,1.416c-0.377,0.38-0.878,0.59-1.411,0.592
		c0,0-0.001,0-0.001,0H8.006z"/>
</g>
</svg>
