<?xml version="1.0" encoding="utf-8"?>
<!-- Generator: Adobe Illustrator 22.1.0, SVG Export Plug-In . SVG Version: 6.00 Build 0)  -->
<svg version="1.1" id="Light" xmlns="http://www.w3.org/2000/svg" xmlns:xlink="http://www.w3.org/1999/xlink" x="0px" y="0px"
	 viewBox="0 0 24 24" style="enable-background:new 0 0 24 24;" xml:space="preserve">
<g>
	<title>weather-cloud-rain-thunder</title>
	<path d="M12.5,23.998c-0.134,0-0.259-0.052-0.354-0.146S12,23.631,12,23.498s0.052-0.259,0.146-0.354l5-5
		c0.094-0.094,0.22-0.146,0.354-0.146s0.259,0.052,0.354,0.146S18,18.364,18,18.498s-0.052,0.259-0.146,0.354l-5,5
		C12.759,23.946,12.633,23.998,12.5,23.998z"/>
	<path d="M2.5,23.998c-0.134,0-0.259-0.052-0.354-0.146S2,23.631,2,23.498s0.052-0.259,0.146-0.354l5-5
		c0.094-0.094,0.22-0.146,0.354-0.146s0.259,0.052,0.354,0.146S8,18.364,8,18.498s-0.052,0.259-0.146,0.354l-5,5
		C2.759,23.946,2.633,23.998,2.5,23.998z"/>
	<path d="M7,15.998c-2.826-0.012-5.169-2.141-5.451-4.951c-0.146-1.462,0.285-2.893,1.215-4.03c0.84-1.028,2.01-1.71,3.31-1.936
		C6.403,2.97,7.828,1.195,9.831,0.418c0.7-0.271,1.431-0.409,2.172-0.409c0.833,0,1.647,0.173,2.419,0.513
		c1.347,0.594,2.417,1.648,3.028,2.979c0.015,0,0.03,0,0.045,0c0.484,0,0.953,0.097,1.394,0.288
		c1.637,0.708,2.472,2.538,1.959,4.226c1.037,0.849,1.651,2.138,1.651,3.484c0,2.481-2.019,4.5-4.5,4.5H7z M12.003,1.009
		c-0.617,0-1.226,0.115-1.81,0.341C8.407,2.043,7.191,3.659,7.021,5.567C7,5.806,6.811,5.996,6.573,6.02
		C5.377,6.14,4.299,6.719,3.538,7.649C2.777,8.58,2.424,9.751,2.544,10.947c0.23,2.299,2.147,4.041,4.458,4.051H18
		c1.93,0,3.5-1.57,3.5-3.5c0-1.159-0.572-2.241-1.53-2.893c-0.198-0.135-0.273-0.392-0.178-0.612
		c0.265-0.613,0.276-1.292,0.031-1.913c-0.246-0.621-0.719-1.109-1.332-1.374C18.177,4.569,17.842,4.5,17.498,4.5
		c-0.103,0-0.206,0.006-0.308,0.019c-0.02,0.003-0.041,0.004-0.062,0.004c-0.204,0-0.391-0.128-0.465-0.319
		c-0.483-1.245-1.422-2.228-2.644-2.767C13.375,1.153,12.697,1.009,12.003,1.009z"/>
	<path d="M9,23.998c-0.134,0-0.259-0.052-0.354-0.146S8.5,23.631,8.5,23.498s0.052-0.259,0.146-0.354l1.646-1.646H9
		c-0.203,0-0.384-0.121-0.462-0.309c-0.078-0.188-0.035-0.401,0.108-0.545l2.5-2.5c0.094-0.094,0.22-0.146,0.354-0.146
		s0.259,0.052,0.354,0.146S12,18.364,12,18.498s-0.052,0.259-0.146,0.354l-1.646,1.646H11.5c0.203,0,0.384,0.121,0.462,0.309
		c0.078,0.188,0.035,0.401-0.108,0.545l-2.5,2.5C9.259,23.946,9.133,23.998,9,23.998z"/>
</g>
</svg>
