<?xml version="1.0" encoding="utf-8"?>
<!-- Generator: Adobe Illustrator 22.1.0, SVG Export Plug-In . SVG Version: 6.00 Build 0)  -->
<svg version="1.1" id="Light" xmlns="http://www.w3.org/2000/svg" xmlns:xlink="http://www.w3.org/1999/xlink" x="0px" y="0px"
	 viewBox="0 0 24 24" style="enable-background:new 0 0 24 24;" xml:space="preserve">
<g>
	<title>weather-thunder</title>
	<path d="M3.001,3.5c-0.134,0-0.259-0.052-0.354-0.147L1.871,2.576c-0.094-0.094-0.146-0.22-0.146-0.354
		c0-0.134,0.052-0.259,0.147-0.354c0.095-0.094,0.22-0.146,0.353-0.146c0.134,0,0.259,0.052,0.354,0.147l0.776,0.777
		C3.449,2.741,3.501,2.867,3.501,3c0,0.134-0.052,0.259-0.147,0.354C3.259,3.448,3.134,3.5,3.001,3.5z"/>
	<path d="M12.001,3.5c-0.133,0-0.259-0.052-0.353-0.146C11.553,3.26,11.501,3.134,11.501,3c0-0.134,0.052-0.259,0.146-0.354
		l0.776-0.777c0.094-0.095,0.22-0.147,0.354-0.147c0.133,0,0.259,0.052,0.353,0.146c0.195,0.195,0.195,0.512,0.001,0.707
		l-0.776,0.777C12.26,3.448,12.134,3.5,12.001,3.5z"/>
	<path d="M5.952,20.3c-0.09,0-0.178-0.024-0.256-0.071c-1.499-0.891-2.495-2.46-2.664-4.196c-0.142-1.462,0.294-2.892,1.228-4.027
		c0.843-1.025,2.015-1.704,3.314-1.926c0.33-2.109,1.755-3.884,3.758-4.661c0.7-0.271,1.431-0.409,2.172-0.409
		c0.833,0,1.647,0.173,2.419,0.513c1.347,0.594,2.417,1.648,3.028,2.978c0.016,0,0.033,0,0.049,0c0.48,0,0.948,0.097,1.39,0.288
		c1.637,0.709,2.472,2.539,1.959,4.226c0.249,0.204,0.476,0.434,0.676,0.686c0.748,0.942,1.083,2.118,0.946,3.312
		c-0.137,1.194-0.731,2.263-1.672,3.011c-0.089,0.07-0.199,0.108-0.311,0.108l0,0c-0.153,0-0.296-0.069-0.391-0.188
		c-0.172-0.216-0.135-0.531,0.08-0.703c0.732-0.581,1.194-1.413,1.301-2.342c0.107-0.928-0.155-1.843-0.736-2.575
		c-0.22-0.277-0.479-0.518-0.771-0.717c-0.198-0.135-0.273-0.392-0.178-0.612c0.548-1.265-0.036-2.74-1.301-3.288
		c-0.315-0.136-0.649-0.205-0.994-0.205c-0.102,0-0.206,0.006-0.307,0.019c-0.02,0.003-0.041,0.004-0.062,0.004
		c-0.204,0-0.391-0.128-0.466-0.318c-0.483-1.246-1.422-2.228-2.644-2.767c-0.644-0.284-1.322-0.428-2.016-0.428
		c-0.617,0-1.226,0.115-1.81,0.341c-1.786,0.693-3.002,2.309-3.172,4.217C8.5,10.809,8.311,11,8.072,11.023
		c-2.47,0.24-4.284,2.444-4.044,4.914c0.138,1.421,0.953,2.705,2.18,3.434c0.237,0.141,0.315,0.448,0.175,0.685
		C6.293,20.206,6.128,20.3,5.952,20.3z"/>
	<path d="M4.175,10.223c-0.167,0-0.322-0.083-0.415-0.221C2.375,7.943,2.924,5.141,4.983,3.757c0.751-0.505,1.62-0.772,2.513-0.772
		c1.032,0,2.045,0.365,2.853,1.029c0.103,0.085,0.167,0.205,0.18,0.338s-0.026,0.263-0.111,0.366
		C10.324,4.833,10.183,4.9,10.032,4.9c-0.115,0-0.228-0.04-0.317-0.114C9.086,4.27,8.299,3.986,7.497,3.986
		c-0.694,0-1.37,0.208-1.955,0.601c-0.775,0.521-1.3,1.313-1.48,2.232C3.881,7.737,4.069,8.67,4.59,9.444
		c0.154,0.229,0.093,0.54-0.136,0.694C4.37,10.194,4.274,10.223,4.175,10.223z"/>
	<path d="M0.501,7c-0.276,0-0.5-0.224-0.5-0.5S0.225,6,0.501,6h1c0.276,0,0.5,0.224,0.5,0.5S1.776,7,1.501,7H0.501z"/>
	<path d="M7.501,2c-0.276,0-0.5-0.224-0.5-0.5v-1c0-0.276,0.224-0.5,0.5-0.5s0.5,0.224,0.5,0.5v1C8.001,1.776,7.776,2,7.501,2z"/>
	<path d="M7.501,24c-0.134,0-0.259-0.052-0.354-0.146s-0.146-0.22-0.146-0.354s0.052-0.259,0.146-0.354L8.794,21.5H7.501
		c-0.203,0-0.384-0.121-0.462-0.309c-0.078-0.188-0.035-0.401,0.108-0.545l2.5-2.5C9.742,18.052,9.867,18,10.001,18
		s0.259,0.052,0.354,0.146s0.146,0.22,0.146,0.354s-0.052,0.259-0.146,0.354L8.708,20.5h1.293c0.203,0,0.384,0.121,0.462,0.309
		c0.078,0.188,0.035,0.401-0.108,0.545l-2.5,2.5C7.76,23.948,7.634,24,7.501,24z"/>
	<path d="M12.501,24c-0.134,0-0.259-0.052-0.354-0.146s-0.146-0.22-0.146-0.354s0.052-0.259,0.146-0.354l1.646-1.646h-1.293
		c-0.203,0-0.385-0.121-0.462-0.309c-0.078-0.187-0.035-0.401,0.109-0.545l2.5-2.5C14.742,18.052,14.867,18,15.001,18
		s0.259,0.052,0.354,0.146s0.146,0.22,0.146,0.354s-0.052,0.259-0.146,0.354L13.708,20.5h1.293c0.203,0,0.385,0.121,0.462,0.309
		c0.078,0.187,0.035,0.401-0.109,0.545l-2.5,2.5C12.76,23.948,12.634,24,12.501,24z"/>
	<path d="M17.501,24c-0.134,0-0.259-0.052-0.354-0.146s-0.146-0.22-0.146-0.354s0.052-0.259,0.146-0.354l1.646-1.646h-1.293
		c-0.203,0-0.385-0.121-0.462-0.309c-0.078-0.187-0.035-0.401,0.109-0.545l2.5-2.5C19.742,18.052,19.867,18,20.001,18
		s0.259,0.052,0.354,0.146s0.146,0.22,0.146,0.354s-0.052,0.259-0.146,0.354L18.708,20.5h1.293c0.203,0,0.385,0.121,0.462,0.309
		c0.078,0.187,0.035,0.401-0.109,0.545l-2.5,2.5C17.76,23.948,17.634,24,17.501,24z"/>
</g>
</svg>
