<?xml version="1.0" encoding="utf-8"?>
<!-- Generator: Adobe Illustrator 22.1.0, SVG Export Plug-In . SVG Version: 6.00 Build 0)  -->
<svg version="1.1" id="Light" xmlns="http://www.w3.org/2000/svg" xmlns:xlink="http://www.w3.org/1999/xlink" x="0px" y="0px"
	 viewBox="0 0 24 24" style="enable-background:new 0 0 24 24;" xml:space="preserve">
<g>
	<title>weather-wind</title>
	<path d="M3,3.5c-0.134,0-0.259-0.052-0.354-0.147L1.87,2.576c-0.094-0.094-0.146-0.22-0.146-0.354c0-0.134,0.052-0.259,0.147-0.354
		c0.095-0.094,0.22-0.146,0.353-0.146c0.134,0,0.259,0.052,0.354,0.147l0.776,0.777C3.448,2.741,3.5,2.867,3.5,3
		c0,0.134-0.052,0.259-0.147,0.354C3.259,3.448,3.133,3.5,3,3.5z"/>
	<path d="M12,3.5c-0.133,0-0.259-0.052-0.353-0.146C11.552,3.26,11.5,3.134,11.5,3c0-0.134,0.052-0.259,0.146-0.354l0.776-0.777
		c0.094-0.095,0.22-0.147,0.354-0.147c0.133,0,0.259,0.052,0.353,0.146c0.195,0.195,0.195,0.512,0.001,0.707l-0.776,0.777
		C12.259,3.448,12.134,3.5,12,3.5z"/>
	<path d="M4.174,10.223c-0.167,0-0.322-0.083-0.415-0.221C3.089,9.004,2.846,7.805,3.078,6.626c0.231-1.179,0.908-2.198,1.905-2.869
		c0.751-0.505,1.62-0.772,2.513-0.772c1.032,0,2.045,0.365,2.853,1.028c0.213,0.175,0.244,0.491,0.069,0.704
		C10.323,4.833,10.182,4.9,10.032,4.9c-0.115,0-0.228-0.04-0.317-0.114C9.086,4.27,8.298,3.986,7.496,3.986
		c-0.694,0-1.37,0.208-1.955,0.601C4.765,5.108,4.239,5.901,4.059,6.818c-0.18,0.917,0.008,1.85,0.53,2.626
		c0.154,0.229,0.093,0.54-0.136,0.694C4.37,10.194,4.274,10.223,4.174,10.223z"/>
	<path d="M0.5,7C0.224,7,0,6.776,0,6.5S0.224,6,0.5,6h1C1.776,6,2,6.224,2,6.5S1.776,7,1.5,7H0.5z"/>
	<path d="M7.5,2C7.224,2,7,1.776,7,1.5v-1C7,0.224,7.224,0,7.5,0S8,0.224,8,0.5v1C8,1.776,7.776,2,7.5,2z"/>
	<path d="M0.5,20C0.224,20,0,19.776,0,19.5S0.224,19,0.5,19h11c0.276,0,0.5,0.224,0.5,0.5S11.776,20,11.5,20H0.5z"/>
	<path d="M3.5,22C3.224,22,3,21.776,3,21.5S3.224,21,3.5,21h11c0.276,0,0.5,0.224,0.5,0.5S14.776,22,14.5,22H3.5z"/>
	<path d="M0.5,24C0.224,24,0,23.776,0,23.5S0.224,23,0.5,23h11c0.276,0,0.5,0.224,0.5,0.5S11.776,24,11.5,24H0.5z"/>
	<path d="M16.5,21c-0.276,0-0.5-0.224-0.5-0.5s0.224-0.5,0.5-0.5h3c0.935,0,1.814-0.364,2.475-1.025
		C22.636,18.314,23,17.435,23,16.5c0-1.159-0.572-2.24-1.53-2.893c-0.198-0.135-0.273-0.392-0.178-0.612
		c0.265-0.612,0.275-1.291,0.029-1.913c-0.246-0.622-0.719-1.11-1.33-1.375c-0.315-0.136-0.649-0.205-0.994-0.205
		c-0.103,0-0.206,0.006-0.308,0.019c-0.02,0.003-0.041,0.004-0.062,0.004c-0.204,0-0.392-0.128-0.466-0.319
		c-0.483-1.245-1.422-2.228-2.644-2.767c-0.644-0.284-1.322-0.428-2.016-0.428c-0.617,0-1.226,0.115-1.81,0.341
		c-1.786,0.693-3.002,2.309-3.172,4.217C8.5,10.809,8.31,11,8.07,11.023c-2.465,0.232-4.281,2.427-4.049,4.891
		c0.045,0.479,0.166,0.945,0.36,1.385c0.054,0.122,0.057,0.258,0.008,0.383c-0.048,0.125-0.143,0.223-0.265,0.276
		c-0.063,0.028-0.131,0.042-0.201,0.042c-0.198,0-0.378-0.117-0.458-0.299c-0.237-0.538-0.385-1.108-0.44-1.694
		c-0.272-2.885,1.714-5.452,4.549-5.928c0.33-2.109,1.755-3.883,3.757-4.66c0.7-0.271,1.431-0.409,2.172-0.409
		c0.833,0,1.647,0.173,2.419,0.513c1.347,0.594,2.417,1.648,3.028,2.978c0.016,0,0.033,0,0.049,0c0.481,0,0.949,0.097,1.39,0.288
		c1.637,0.709,2.472,2.538,1.96,4.226C23.386,13.865,24,15.154,24,16.5c0,1.202-0.469,2.332-1.318,3.182
		C21.832,20.532,20.703,21,19.501,21H16.5z"/>
</g>
</svg>
