<?xml version="1.0" encoding="utf-8"?>
<!-- Generator: Adobe Illustrator 22.1.0, SVG Export Plug-In . SVG Version: 6.00 Build 0)  -->
<svg version="1.1" id="Layer_1" xmlns="http://www.w3.org/2000/svg" xmlns:xlink="http://www.w3.org/1999/xlink" x="0px" y="0px"
	 viewBox="0 0 24 24" style="enable-background:new 0 0 24 24;" xml:space="preserve">
<g>
	<title>famous-people-man-charlie-chaplin</title>
	<circle cx="13.5" cy="8.5" r="0.75"/>
	<circle cx="9.5" cy="8.5" r="0.75"/>
	<path d="M10.14,13c-0.551,0-1-0.449-1-1c0-0.081,0.01-0.163,0.03-0.242l0.156-0.623C9.493,10.467,10.092,10,10.781,10h1.438
		c0.689,0,1.288,0.467,1.455,1.136l0.156,0.622c0.065,0.259,0.025,0.528-0.113,0.757c-0.138,0.229-0.356,0.391-0.615,0.456
		C13.025,12.99,12.943,13,12.86,13H10.14z M10.781,11c-0.23,0-0.429,0.156-0.485,0.379l-0.156,0.622L12.86,12l-0.156-0.621
		C12.648,11.156,12.449,11,12.219,11H10.781z"/>
	<path d="M11.5,15C7.916,15,5,12.084,5,8.5V6.511C4.458,6.429,3.955,6.345,3.468,6.253L3.41,6.243
		c-0.271-0.05-0.452-0.311-0.402-0.582c0.044-0.238,0.251-0.41,0.493-0.41c0.028,0,0.057,0.002,0.087,0.007L3.65,5.27
		c0.451,0.085,0.919,0.164,1.426,0.241C5.559,2.351,8.276,0,11.5,0c3.224,0,5.941,2.351,6.424,5.511
		c0.505-0.077,0.974-0.156,1.424-0.24l0.062-0.011c0.031-0.005,0.06-0.008,0.089-0.008c0.243,0,0.45,0.172,0.493,0.41
		c0.024,0.131-0.004,0.264-0.08,0.374c-0.076,0.11-0.19,0.184-0.322,0.208l-0.06,0.011C19.042,6.345,18.54,6.43,18,6.511V8.5
		C18,12.084,15.084,15,11.5,15z M6,8.5c0,3.033,2.467,5.5,5.5,5.5S17,11.533,17,8.5V6.65c-1.832,0.234-3.681,0.353-5.5,0.353
		S7.832,6.884,6,6.65V8.5z M6.066,5.651c1.801,0.232,3.627,0.35,5.434,0.35c1.807,0,3.633-0.118,5.434-0.35
		C16.521,2.983,14.226,1,11.5,1S6.479,2.983,6.066,5.651z"/>
	<path d="M16,24c-0.134,0-0.259-0.052-0.354-0.146c-0.195-0.195-0.195-0.512,0-0.707l2.71-2.71l-2.107-3.161l-4.334,6.501
		C11.823,23.917,11.668,24,11.5,24s-0.323-0.083-0.416-0.223L6.75,17.276l-2.107,3.16l2.71,2.71c0.195,0.195,0.195,0.512,0,0.707
		C7.259,23.948,7.133,24,7,24s-0.259-0.052-0.354-0.146l-2.71-2.71c-0.336-0.335-0.389-0.866-0.126-1.262l1.724-2.586
		c-1.936,0.575-3.211,1.346-3.963,1.917C1.211,19.491,0.997,19.932,1,20.391V23.5C1,23.776,0.776,24,0.5,24S0,23.776,0,23.5v-3.106
		c-0.005-0.766,0.355-1.505,0.965-1.975c1.008-0.766,2.796-1.806,5.6-2.418C6.569,16,6.723,15.966,6.727,15.965
		C8.192,15.657,9.802,15.5,11.5,15.5c0.24-0.01,0.49-0.015,0.739-0.015c3.113,0,6.196,0.807,8.915,2.334
		c0.116,0.065,0.201,0.172,0.237,0.301s0.02,0.264-0.045,0.38c-0.089,0.157-0.256,0.255-0.437,0.255l0,0
		c-0.085,0-0.169-0.022-0.244-0.064c-1.017-0.571-2.09-1.037-3.198-1.391l1.722,2.582c0.263,0.396,0.21,0.926-0.125,1.262
		l-2.71,2.71C16.259,23.948,16.133,24,16,24z M11.5,22.599l1.474-2.211L11.5,17.193l-1.474,3.194L11.5,22.599z M13.625,19.411
		l1.757-2.635c-1.02-0.189-2.062-0.286-3.106-0.289L13.625,19.411z M9.375,19.411l1.337-2.898c-1.071,0.033-2.101,0.133-3.071,0.297
		L9.375,19.411z"/>
	<path d="M23.5,24c-0.276,0-0.5-0.224-0.5-0.5v-9.75c0-0.965-0.785-1.75-1.75-1.75s-1.75,0.785-1.75,1.75v0.75
		c0,0.276-0.224,0.5-0.5,0.5s-0.5-0.224-0.5-0.5v-0.75c0-1.516,1.234-2.75,2.75-2.75S24,12.234,24,13.75v9.75
		C24,23.776,23.776,24,23.5,24z"/>
</g>
</svg>
