<?xml version="1.0" encoding="utf-8"?>
<!-- Generator: Adobe Illustrator 22.1.0, SVG Export Plug-In . SVG Version: 6.00 Build 0)  -->
<svg version="1.1" id="Layer_1" xmlns="http://www.w3.org/2000/svg" xmlns:xlink="http://www.w3.org/1999/xlink" x="0px" y="0px"
	 viewBox="0 0 24 24" style="enable-background:new 0 0 24 24;" xml:space="preserve">
<g>
	<title>famous-people-man-merlin-1</title>
	<circle cx="14" cy="8.5" r="0.75"/>
	<circle cx="10" cy="8.5" r="0.75"/>
	<path d="M23,24c-0.276,0-0.5-0.224-0.5-0.5v-3.106c0.003-0.462-0.212-0.904-0.575-1.184c-1.46-1.027-3.098-1.765-4.858-2.189
		c-0.02,0.004-0.042,0.006-0.066,0.006c-0.099,0-0.196-0.03-0.278-0.086c-0.451-0.097-0.915-0.172-1.384-0.226
		c-0.52,1.512-1.335,3.521-2.424,5.977c-0.16,0.361-0.52,0.594-0.915,0.594c-0.14,0-0.276-0.029-0.405-0.086
		c-0.227-0.101-0.408-0.281-0.508-0.508c-1.09-2.457-1.905-4.467-2.425-5.977c-0.469,0.053-0.933,0.129-1.384,0.226
		C7.195,16.997,7.099,17.027,7,17.027c-0.025,0-0.047-0.002-0.066-0.006c-1.761,0.424-3.402,1.165-4.876,2.202
		c-0.349,0.27-0.561,0.709-0.558,1.168V23.5C1.5,23.775,1.276,24,1,24s-0.5-0.224-0.5-0.5v-3.106
		c-0.005-0.767,0.356-1.506,0.964-1.976C3,17.338,4.69,16.559,6.5,16.098V15.09l-1.185,0.198c-0.055,0.009-0.11,0.014-0.165,0.014
		c-0.177,0-0.352-0.047-0.504-0.136c-0.231-0.135-0.396-0.351-0.464-0.609c-0.068-0.259-0.031-0.528,0.103-0.759
		c0.778-1.627,1.202-3.466,1.215-5.302V7.068c-1.072-0.143-2.134-0.32-3.16-0.525C2.209,6.517,2.096,6.441,2.022,6.33
		c-0.074-0.111-0.1-0.244-0.074-0.375C1.994,5.722,2.2,5.553,2.438,5.553c0.032,0,0.065,0.003,0.098,0.01
		c0.99,0.198,2.017,0.369,3.056,0.509l1.423-5.693C7.071,0.155,7.27,0,7.5,0c0.041,0,0.082,0.005,0.122,0.015
		c0.267,0.067,0.43,0.339,0.363,0.606L6.591,6.195c1.795,0.204,3.614,0.307,5.411,0.307c1.796,0,3.613-0.103,5.406-0.306
		l-1.394-5.575c-0.033-0.129-0.013-0.264,0.056-0.378c0.069-0.115,0.178-0.196,0.308-0.228c0.039-0.01,0.08-0.015,0.122-0.015
		c0.229,0,0.428,0.156,0.484,0.379l1.424,5.694c1.042-0.14,2.071-0.311,3.062-0.51c0.033-0.007,0.066-0.01,0.099-0.01
		c0.237,0,0.443,0.169,0.489,0.402c0.054,0.27-0.122,0.534-0.392,0.589c-1.028,0.206-2.092,0.382-3.166,0.526v1.429
		c0.013,1.834,0.439,3.68,1.233,5.336c0.117,0.197,0.152,0.468,0.084,0.723c-0.068,0.258-0.233,0.474-0.464,0.609
		c-0.153,0.089-0.327,0.136-0.504,0.136c-0.055,0-0.109-0.004-0.164-0.013l-1.187-0.2l0.001,1.01
		c1.809,0.461,3.497,1.236,5.018,2.306c0.623,0.481,0.987,1.223,0.982,1.992V23.5C23.5,23.775,23.276,24,23,24z M9.04,13.534
		C9.013,13.705,9,13.857,9,14c0,0.969,1.094,3.989,3,8.287c1.906-4.301,3-7.321,3-8.287c0-0.142-0.013-0.294-0.04-0.465
		c-0.008-0.031-0.011-0.059-0.013-0.082C14.684,12.031,13.447,11,12,11c-1.447,0-2.684,1.031-2.947,2.454
		C9.051,13.476,9.048,13.504,9.04,13.534z M6.499,14.088c0.491,0,0.907,0.352,0.987,0.836C7.496,14.98,7.5,15.036,7.5,15.091v0.787
		c0.282-0.052,0.565-0.096,0.848-0.132C8.114,14.962,8,14.389,8,14c0-0.116,0.006-0.236,0.02-0.368
		c-0.788-0.609-1.417-1.381-1.851-2.267c-0.225,1.011-0.56,1.984-1,2.902c-0.018,0.032-0.019,0.04-0.019,0.04l1.186-0.204
		C6.391,14.092,6.445,14.088,6.499,14.088z M15.652,15.746c0.284,0.036,0.568,0.08,0.848,0.132V15.09
		c0-0.056,0.005-0.111,0.014-0.166c0.044-0.263,0.187-0.494,0.405-0.649c0.171-0.122,0.372-0.187,0.581-0.187
		c0.055,0,0.11,0.004,0.165,0.014l1.187,0.2c-0.453-0.94-0.792-1.922-1.019-2.938c-0.434,0.886-1.064,1.659-1.852,2.268
		C15.994,13.764,16,13.883,16,14C16,14.388,15.886,14.961,15.652,15.746z M12,10c1.648,0,3.128,1.029,3.722,2.545
		c1.135-1.039,1.779-2.493,1.778-4.044V7.192c-1.837,0.208-3.684,0.313-5.497,0.313c-1.816,0-3.666-0.105-5.503-0.314V8.5
		c0,1.551,0.643,3.006,1.778,4.045C8.872,11.029,10.352,10,12,10z"/>
</g>
</svg>
