<?xml version="1.0" encoding="utf-8"?>
<!-- Generator: Adobe Illustrator 22.1.0, SVG Export Plug-In . SVG Version: 6.00 Build 0)  -->
<svg version="1.1" id="Layer_1" xmlns="http://www.w3.org/2000/svg" xmlns:xlink="http://www.w3.org/1999/xlink" x="0px" y="0px"
	 viewBox="0 0 24 24" style="enable-background:new 0 0 24 24;" xml:space="preserve">
<g>
	<title>famous-people-man-merlin-2</title>
	<circle cx="14" cy="16.115" r="0.75"/>
	<circle cx="10" cy="16.115" r="0.75"/>
	<path d="M8.795,23.616c-0.216,0-0.406-0.138-0.474-0.344c-0.174-0.525-0.281-1.071-0.319-1.623c0-0.134,0.006-0.262,0.021-0.401
		c-0.789-0.609-1.419-1.382-1.854-2.269c-0.226,1.017-0.564,1.995-1.009,2.917l1.176-0.179c0.055-0.009,0.11-0.013,0.164-0.013
		c0.492,0,0.907,0.351,0.987,0.836c0.009,0.054,0.014,0.11,0.014,0.166v0.409c0,0.276-0.224,0.5-0.5,0.5s-0.5-0.224-0.5-0.5v-0.409
		l-1.19,0.198c-0.055,0.009-0.107,0.012-0.159,0.012c-0.167,0-0.332-0.041-0.476-0.119c-0.235-0.126-0.406-0.337-0.483-0.593
		c-0.077-0.256-0.049-0.526,0.077-0.761c0.791-1.643,1.219-3.49,1.231-5.331v-1.437c-1.056-0.143-2.097-0.316-3.098-0.516
		c-0.27-0.054-0.446-0.318-0.392-0.588c0.046-0.233,0.252-0.402,0.489-0.402c0.034,0,0.068,0.003,0.101,0.01
		c0.979,0.196,2.001,0.366,3.041,0.506l5.44-12.693c0.101-0.238,0.289-0.425,0.528-0.527c0.125-0.053,0.257-0.08,0.392-0.08
		c0.128,0,0.254,0.025,0.374,0.073c0.248,0.1,0.442,0.29,0.546,0.536l5.447,12.709c1.071-0.142,2.135-0.318,3.165-0.524
		c0.032-0.007,0.066-0.01,0.1-0.01c0.237,0,0.442,0.169,0.489,0.403c0.054,0.27-0.122,0.534-0.392,0.588
		c-1.053,0.211-2.138,0.39-3.228,0.535v1.42c0.013,1.84,0.442,3.691,1.241,5.35c0.117,0.215,0.143,0.489,0.067,0.741
		c-0.077,0.256-0.249,0.467-0.484,0.593c-0.144,0.078-0.308,0.119-0.474,0.119c0,0,0,0,0,0c-0.052,0-0.104-0.004-0.155-0.012
		l-1.196-0.2l0.001,0.41c0,0.276-0.224,0.5-0.5,0.5s-0.5-0.224-0.5-0.5v-0.409c0-0.055,0.005-0.111,0.014-0.166
		c0.081-0.484,0.496-0.835,0.987-0.835c0.054,0,0.109,0.004,0.163,0.013l1.192,0.2c-0.455-0.936-0.796-1.919-1.024-2.939
		c-0.434,0.886-1.064,1.658-1.852,2.268c0.013,0.133,0.02,0.252,0.02,0.369c-0.039,0.579-0.146,1.131-0.32,1.657
		c-0.068,0.205-0.258,0.343-0.475,0.343c-0.055,0-0.108-0.009-0.159-0.026c-0.125-0.041-0.228-0.13-0.288-0.25
		c-0.06-0.12-0.07-0.255-0.028-0.382c0.147-0.445,0.238-0.908,0.271-1.377c0-0.116-0.012-0.259-0.037-0.421
		c-0.01-0.036-0.016-0.072-0.017-0.11c-0.267-1.412-1.503-2.435-2.946-2.435c-1.447,0-2.685,1.031-2.947,2.455
		c-0.002,0.022-0.005,0.05-0.013,0.08C9.013,21.321,9,21.473,9,21.615c0.031,0.44,0.122,0.898,0.27,1.343
		c0.042,0.126,0.032,0.262-0.028,0.381c-0.06,0.119-0.163,0.208-0.29,0.25C8.902,23.607,8.849,23.616,8.795,23.616z M6.5,16.115
		c-0.001,1.552,0.644,3.008,1.78,4.047c0.595-1.517,2.074-2.547,3.72-2.547c1.648,0,3.128,1.029,3.722,2.545
		c1.135-1.039,1.778-2.494,1.778-4.045v-1.301c-1.818,0.203-3.645,0.306-5.435,0.306c-1.839,0-3.71-0.108-5.565-0.32V16.115z
		 M6.674,13.814c1.786,0.202,3.596,0.304,5.386,0.304c1.751,0,3.523-0.098,5.273-0.291c0,0-5.332-12.441-5.332-12.441L6.674,13.814z
		"/>
	<path d="M12,22.112c-0.648,0-1.287-0.212-1.8-0.597c-0.107-0.08-0.176-0.197-0.195-0.329c-0.019-0.132,0.015-0.264,0.095-0.371
		c0.094-0.125,0.243-0.2,0.4-0.2c0.109,0,0.213,0.035,0.3,0.1c0.341,0.256,0.767,0.397,1.2,0.397s0.859-0.141,1.2-0.397
		c0.087-0.065,0.191-0.1,0.3-0.1c0.156,0,0.306,0.075,0.4,0.2c0.08,0.106,0.114,0.238,0.095,0.37
		c-0.019,0.132-0.088,0.25-0.195,0.33C13.287,21.9,12.648,22.112,12,22.112z"/>
</g>
</svg>
