<?xml version="1.0" encoding="utf-8"?>
<!-- Generator: Adobe Illustrator 22.1.0, SVG Export Plug-In . SVG Version: 6.00 Build 0)  -->
<svg version="1.1" id="Light" xmlns="http://www.w3.org/2000/svg" xmlns:xlink="http://www.w3.org/1999/xlink" x="0px" y="0px"
	 viewBox="0 0 24 24" style="enable-background:new 0 0 24 24;" xml:space="preserve">
<g>
	<title>asian-food-soup</title>
	<path d="M11.5,13c-0.053,0-0.106-0.009-0.156-0.025c-0.128-0.042-0.23-0.131-0.29-0.25c-0.06-0.12-0.07-0.255-0.028-0.382
		C15.032,0.26,15.032,0.26,15.146,0.146C15.241,0.052,15.366,0,15.5,0s0.259,0.052,0.354,0.146c0.146,0.146,0.188,0.372,0.102,0.56
		c-0.11,0.293-2.442,7.309-3.981,11.951C11.907,12.862,11.716,13,11.5,13z"/>
	<path d="M13.5,13.5c-0.123,0-0.241-0.045-0.333-0.127c-0.099-0.088-0.159-0.21-0.167-0.344c-0.008-0.133,0.037-0.262,0.125-0.362
		l8-9C21.221,3.561,21.357,3.5,21.5,3.5c0.123,0,0.24,0.045,0.332,0.127c0.206,0.183,0.225,0.5,0.041,0.706l-8,9
		C13.779,13.439,13.643,13.5,13.5,13.5z"/>
	<path d="M12,24c-3.044,0-6.08-1.139-8.331-3.125C1.303,18.787,0,15.99,0,13c0-0.951,1.498-1.6,4.713-2.043
		c2.332-0.321,4.8-0.41,5.271-0.425c0.003,0,0.023-0.001,0.025-0.001c0.266,0,0.482,0.213,0.49,0.485
		c0.009,0.276-0.209,0.507-0.484,0.515c-6.274,0.195-8.754,1.132-9.009,1.481C1.256,13.422,4.911,14.5,12,14.5
		c6.969,0,10.62-1.042,10.98-1.484c-0.147-0.144-0.96-0.741-4.54-1.169c-0.133-0.016-0.251-0.082-0.334-0.187
		c-0.083-0.105-0.119-0.236-0.104-0.369c0.03-0.251,0.244-0.441,0.498-0.441c0.018,0,0.037,0.001,0.055,0.003
		C24,11.504,24,12.63,24,13c0,2.99-1.303,5.787-3.669,7.875C18.08,22.861,15.044,24,12,24z M1.079,14.173
		c0.293,2.251,1.436,4.35,3.252,5.952C6.401,21.952,9.197,23,12,23c2.803,0,5.599-1.048,7.669-2.875
		c1.816-1.602,2.959-3.701,3.252-5.953C20.637,15.214,15.094,15.5,12,15.5S3.363,15.214,1.079,14.173z"/>
</g>
</svg>
