<?xml version="1.0" encoding="utf-8"?>
<!-- Generator: Adobe Illustrator 22.1.0, SVG Export Plug-In . SVG Version: 6.00 Build 0)  -->
<svg version="1.1" id="Light" xmlns="http://www.w3.org/2000/svg" xmlns:xlink="http://www.w3.org/1999/xlink" x="0px" y="0px"
	 viewBox="0 0 24 24" style="enable-background:new 0 0 24 24;" xml:space="preserve">
<g>
	<title>asian-food-pork-bun</title>
	<path d="M12,24c-7.963,0-12-2.523-12-7.5c0-3.614,3.771-6.232,7.097-8.542c1.52-1.055,2.955-2.052,3.773-2.987
		c0.285-0.326,0.697-0.513,1.131-0.513c0.363,0,0.713,0.131,0.985,0.369c0.051,0.044,0.099,0.093,0.144,0.144
		c0.817,0.934,2.251,1.93,3.77,2.985c3.329,2.312,7.1,4.93,7.1,8.544C24,21.477,19.963,24,12,24z M12.001,5.458
		c-0.145,0-0.282,0.062-0.377,0.171c-0.9,1.028-2.384,2.059-3.956,3.151C4.542,10.95,1,13.409,1,16.5C1,20.813,4.701,23,12,23
		s11-2.187,11-6.5c0-3.091-3.542-5.551-6.667-7.721c-1.571-1.091-3.055-2.122-3.955-3.15c-0.015-0.018-0.031-0.033-0.048-0.048
		C12.238,5.501,12.122,5.458,12.001,5.458z"/>
	<path d="M7.441,12.494c-0.173,0-0.331-0.087-0.423-0.233c-0.071-0.113-0.094-0.246-0.065-0.377c0.029-0.13,0.108-0.241,0.22-0.313
		C8.077,11,8.905,10.314,9.635,9.533C9.729,9.432,9.862,9.374,10,9.374c0.127,0,0.248,0.048,0.341,0.135
		C10.439,9.6,10.495,9.724,10.5,9.857s-0.043,0.261-0.135,0.358c-0.788,0.843-1.682,1.584-2.657,2.201
		C7.629,12.467,7.536,12.494,7.441,12.494z"/>
	<path d="M16.559,12.494c-0.095,0-0.187-0.027-0.267-0.078c-0.975-0.617-1.869-1.358-2.657-2.201
		c-0.091-0.098-0.139-0.225-0.135-0.358c0.005-0.133,0.061-0.257,0.158-0.348C13.751,9.422,13.873,9.374,14,9.374
		c0.138,0,0.272,0.058,0.366,0.159c0.729,0.781,1.558,1.467,2.461,2.038c0.233,0.148,0.302,0.457,0.155,0.69
		C16.889,12.407,16.731,12.494,16.559,12.494z"/>
	<path d="M12,13c-0.276,0-0.5-0.224-0.5-0.5v-2c0-0.276,0.224-0.5,0.5-0.5c0.276,0,0.5,0.224,0.5,0.5v2C12.5,12.776,12.276,13,12,13
		z"/>
	<path d="M6,5C5.866,5,5.741,4.948,5.646,4.854S5.5,4.634,5.5,4.5s0.052-0.259,0.146-0.354c0.427-0.427,0.363-0.659-0.075-1.389
		C5.193,2.126,4.62,1.173,5.646,0.146C5.741,0.052,5.866,0,6,0s0.259,0.052,0.354,0.146S6.5,0.366,6.5,0.5S6.448,0.759,6.354,0.854
		C5.926,1.281,5.991,1.513,6.429,2.243C6.807,2.874,7.38,3.827,6.354,4.854C6.259,4.948,6.134,5,6,5z"/>
	<path d="M18,5c-0.134,0-0.259-0.052-0.354-0.146c-1.026-1.026-0.454-1.98-0.075-2.611c0.438-0.73,0.502-0.962,0.075-1.389
		C17.552,0.759,17.5,0.634,17.5,0.5s0.052-0.259,0.146-0.354S17.866,0,18,0s0.259,0.052,0.354,0.146
		c1.026,1.026,0.454,1.98,0.075,2.611c-0.438,0.73-0.502,0.962-0.075,1.389C18.448,4.241,18.5,4.366,18.5,4.5
		s-0.052,0.259-0.146,0.354S18.134,5,18,5z"/>
</g>
</svg>
