<?xml version="1.0" encoding="utf-8"?>
<!-- Generator: Adobe Illustrator 22.1.0, SVG Export Plug-In . SVG Version: 6.00 Build 0)  -->
<svg version="1.1" id="Layer_1" xmlns="http://www.w3.org/2000/svg" xmlns:xlink="http://www.w3.org/1999/xlink" x="0px" y="0px"
	 viewBox="0 0 24 24" style="enable-background:new 0 0 24 24;" xml:space="preserve">
<g>
	<title>breakup-couple-man-woman-1</title>
	<path d="M5.437,16.003c-1.93,0-3.5-1.57-3.5-3.5c0-0.604,0.16-1.202,0.462-1.73c0.011-0.022,0.022-0.039,0.029-0.048
		c0.629-1.061,1.782-1.721,3.01-1.721c1.743,0,3.233,1.304,3.465,3.032c0.001,0.005,0.005,0.021,0.006,0.044
		c0.019,0.158,0.028,0.292,0.028,0.424C8.937,14.433,7.367,16.003,5.437,16.003z M3.036,11.81c-0.066,0.225-0.099,0.457-0.099,0.692
		c0,1.378,1.121,2.5,2.5,2.5c1.281,0,2.339-0.968,2.483-2.21c-0.484,0.137-0.977,0.206-1.469,0.206
		C5.206,12.998,4.006,12.579,3.036,11.81z M3.512,10.911c0.813,0.701,1.848,1.084,2.938,1.084c0.472,0,0.935-0.073,1.38-0.218
		c-0.316-1.041-1.289-1.775-2.392-1.775C4.691,10.003,3.986,10.339,3.512,10.911z"/>
	<path d="M9.437,24.003c-0.276,0-0.5-0.224-0.5-0.5v-2.5c0-1.93-1.57-3.5-3.5-3.5s-3.5,1.57-3.5,3.5v2.5c0,0.276-0.224,0.5-0.5,0.5
		s-0.5-0.224-0.5-0.5v-2.5c0-2.481,2.019-4.5,4.5-4.5s4.5,2.019,4.5,4.5v2.5C9.937,23.778,9.713,24.003,9.437,24.003z"/>
	<path d="M18.437,16.003c-1.93,0-3.5-1.57-3.5-3.5s1.57-3.5,3.5-3.5s3.5,1.57,3.5,3.5S20.367,16.003,18.437,16.003z M16.122,13.439
		c0.378,0.934,1.292,1.563,2.315,1.563c1.023,0,1.937-0.63,2.315-1.563c-0.864-0.135-1.67-0.518-2.315-1.102
		C17.793,12.921,16.987,13.305,16.122,13.439z M18.437,10.003c-1.363,0-2.474,1.096-2.5,2.452c0.82-0.121,1.582-0.535,2.121-1.159
		c0.093-0.108,0.231-0.169,0.379-0.169c0.147,0,0.285,0.062,0.378,0.169c0.54,0.624,1.302,1.038,2.121,1.159
		C20.911,11.098,19.8,10.003,18.437,10.003z"/>
	<path d="M14.438,24.003c-0.038,0-0.076-0.004-0.114-0.013c-0.129-0.03-0.24-0.109-0.311-0.222
		c-0.071-0.113-0.094-0.247-0.063-0.377l0.938-4.064c0.188-0.812,0.657-1.543,1.324-2.06c0.014-0.013,0.03-0.028,0.042-0.036
		c0.008-0.005,0.015-0.009,0.022-0.013c0.405-0.301,0.857-0.51,1.343-0.622c0.269-0.062,0.544-0.093,0.818-0.093
		c1.707,0,3.167,1.161,3.551,2.824l0.938,4.064c0.03,0.13,0.008,0.264-0.063,0.377c-0.071,0.113-0.181,0.192-0.312,0.222
		c-0.036,0.008-0.074,0.013-0.113,0.013c-0.234,0-0.434-0.159-0.487-0.387l-0.938-4.064c-0.099-0.428-0.299-0.818-0.585-1.144
		l-1.578,2.373c-0.093,0.14-0.249,0.223-0.417,0.223c-0.168,0-0.323-0.083-0.416-0.223l-1.57-2.361
		c-0.288,0.329-0.489,0.715-0.585,1.132l-0.938,4.064C14.872,23.843,14.672,24.003,14.438,24.003z M18.434,19.6l1.204-1.81
		c-0.369-0.189-0.778-0.288-1.194-0.288c-0.201,0-0.403,0.023-0.601,0.069c-0.205,0.047-0.409,0.124-0.607,0.229L18.434,19.6z"/>
	<path d="M13.182,9.674c-0.202-0.002-0.389-0.081-0.53-0.224c-0.141-0.143-0.217-0.332-0.215-0.532V2.638
		c0-0.051,0.008-0.101,0.023-0.149c0.713-2.305,2.43-2.485,2.939-2.485c0.134,0,0.268,0.01,0.398,0.03
		c1.228,0.185,2.55,1.262,2.55,3.189c0,2.355-3.289,5.186-4.703,6.293c-0.133,0.102-0.295,0.157-0.459,0.157H13.182z M13.437,8.402
		c1.96-1.604,3.911-3.716,3.911-5.179c0-1.336-0.881-2.077-1.699-2.201c-0.086-0.013-0.175-0.02-0.262-0.02
		c-0.419,0-1.443,0.168-1.949,1.713V8.402z"/>
	<path d="M10.69,9.675c-0.166,0-0.329-0.056-0.46-0.157C8.815,8.409,5.526,5.578,5.526,3.223C5.527,1.295,6.85,0.218,8.078,0.033
		c0.13-0.02,0.263-0.03,0.397-0.03c0.51,0,2.228,0.179,2.94,2.486c0.015,0.048,0.022,0.098,0.022,0.147v6.285
		c0.007,0.406-0.323,0.745-0.735,0.752c-0.001,0-0.003,0-0.004,0H10.69z M8.488,1.002c-0.087,0-0.175,0.007-0.261,0.02
		C7.409,1.145,6.527,1.887,6.526,3.223c0,1.464,1.953,3.576,3.915,5.182l-0.004-5.69C9.932,1.17,8.908,1.002,8.488,1.002z"/>
</g>
</svg>
