<?xml version="1.0" encoding="utf-8"?>
<!-- Generator: Adobe Illustrator 22.1.0, SVG Export Plug-In . SVG Version: 6.00 Build 0)  -->
<svg version="1.1" id="Layer_1" xmlns="http://www.w3.org/2000/svg" xmlns:xlink="http://www.w3.org/1999/xlink" x="0px" y="0px"
	 viewBox="0 0 24 24" style="enable-background:new 0 0 24 24;" xml:space="preserve">
<g>
	<title>breakup-couple-man-woman</title>
	<path d="M13,11.442c-0.076,0-0.152-0.018-0.22-0.051c-0.196-0.096-0.306-0.305-0.275-0.521l0.483-3.327l-0.462-1.387
		c-0.061-0.181-0.014-0.377,0.121-0.512l1.212-1.212l-1.277-1.947c-0.13-0.198-0.102-0.462,0.065-0.629l0.835-0.831
		c0.262-0.261,0.563-0.478,0.894-0.646c0.502-0.254,1.038-0.383,1.594-0.383c0.373,0,0.745,0.06,1.104,0.177
		c0.897,0.294,1.626,0.92,2.053,1.762c0.681,1.357,0.415,2.986-0.661,4.055l-5.107,5.298C13.267,11.387,13.135,11.442,13,11.442z
		 M13.974,7.34c0.025,0.073,0.032,0.153,0.021,0.23l-0.277,1.907l4.036-4.188c0.774-0.77,0.966-1.934,0.48-2.902
		c-0.306-0.603-0.828-1.052-1.472-1.262c-0.258-0.084-0.524-0.127-0.791-0.127c-0.398,0-0.783,0.093-1.144,0.275
		c-0.237,0.12-0.452,0.276-0.64,0.463l-0.546,0.543l1.276,1.946c0.129,0.197,0.102,0.461-0.064,0.628l-1.281,1.281L13.974,7.34z"/>
	<path d="M11,11.442c-0.135,0-0.266-0.056-0.36-0.153L5.526,5.983c-1.07-1.062-1.334-2.69-0.654-4.045
		c0.606-1.197,1.817-1.939,3.16-1.939c0.557,0,1.093,0.128,1.592,0.381c0.33,0.167,0.631,0.384,0.893,0.645l0.835,0.831
		c0.045,0.045,0.08,0.097,0.105,0.154l1,2.287c0.083,0.19,0.042,0.407-0.104,0.554l-1.245,1.245l0.839,1.678
		c0.048,0.096,0.064,0.202,0.046,0.307l-0.5,2.944c-0.032,0.187-0.164,0.338-0.345,0.394C11.099,11.435,11.05,11.442,11,11.442z
		 M8.031,0.999c-0.964,0-1.832,0.532-2.266,1.389C5.28,3.355,5.47,4.518,6.238,5.282l4.435,4.601l0.307-1.807l-0.927-1.854
		c-0.096-0.193-0.059-0.425,0.094-0.577l1.259-1.259L10.58,2.499L9.812,1.735c-0.188-0.187-0.404-0.342-0.64-0.462
		C8.814,1.091,8.43,0.999,8.031,0.999z"/>
	<path d="M5.5,17.998c-1.93,0-3.5-1.57-3.5-3.5c0-0.604,0.159-1.201,0.461-1.73c0.011-0.023,0.023-0.039,0.029-0.049
		c0.629-1.061,1.782-1.721,3.009-1.721c1.743,0,3.233,1.304,3.465,3.033c0.001,0.005,0.005,0.021,0.006,0.042
		C8.991,14.23,9,14.368,9,14.498C9,16.428,7.43,17.998,5.5,17.998z M3.099,13.806C3.033,14.031,3,14.263,3,14.498
		c0,1.378,1.121,2.5,2.5,2.5c1.281,0,2.339-0.968,2.483-2.21c-0.484,0.137-0.977,0.206-1.468,0.206
		C5.269,14.994,4.069,14.575,3.099,13.806z M3.575,12.907c0.814,0.701,1.848,1.084,2.938,1.084c0.472,0,0.935-0.073,1.379-0.218
		c-0.316-1.041-1.289-1.775-2.392-1.775C4.754,11.998,4.049,12.334,3.575,12.907z"/>
	<path d="M22.142,18.142c-0.176,0-0.335-0.09-0.427-0.24c-0.254-0.416-0.436-0.872-0.541-1.347c-0.523,0.793-1.38,1.327-2.354,1.424
		c-0.108,0.011-0.216,0.016-0.322,0.016c-1.082,0-2.086-0.564-2.671-1.442c-0.105,0.475-0.287,0.931-0.542,1.348
		c-0.091,0.148-0.254,0.24-0.427,0.24l0,0c-0.092,0-0.182-0.025-0.26-0.073C14.484,18,14.404,17.89,14.372,17.76
		c-0.031-0.13-0.01-0.264,0.059-0.378c0.349-0.573,0.522-1.232,0.5-1.904l0-0.909c0-1.968,1.601-3.569,3.569-3.569
		s3.569,1.601,3.569,3.569v0.892c-0.023,0.686,0.15,1.347,0.5,1.921c0.07,0.114,0.091,0.248,0.059,0.378
		c-0.031,0.13-0.112,0.24-0.226,0.309C22.325,18.117,22.235,18.142,22.142,18.142z M16.399,15.466c0.29,0.9,1.135,1.531,2.097,1.531
		c0.074,0,0.149-0.004,0.224-0.011c0.871-0.087,1.612-0.698,1.88-1.519c-0.79-0.171-1.508-0.541-2.101-1.081
		C17.907,14.926,17.19,15.295,16.399,15.466z M18.5,12c-1.405,0-2.551,1.134-2.569,2.535c0.854-0.121,1.625-0.538,2.19-1.193
		c0.093-0.107,0.231-0.169,0.378-0.169s0.285,0.062,0.378,0.169c0.566,0.655,1.336,1.072,2.191,1.193
		C21.051,13.134,19.905,12,18.5,12z"/>
	<path d="M0.5,23.998c-0.276,0-0.5-0.224-0.5-0.5c0-3.033,2.467-5.5,5.5-5.5s5.5,2.467,5.5,5.5c0,0.276-0.224,0.5-0.5,0.5H0.5z
		 M9.973,22.998c-0.25-2.263-2.166-4-4.473-4s-4.223,1.737-4.473,4H9.973z"/>
	<path d="M13.5,23.998c-0.276,0-0.5-0.224-0.5-0.5c0-3.033,2.467-5.5,5.5-5.5s5.5,2.467,5.5,5.5c0,0.276-0.224,0.5-0.5,0.5H13.5z
		 M22.972,22.998c-0.25-2.263-2.166-4-4.472-4s-4.223,1.737-4.472,4H22.972z"/>
</g>
</svg>
