<?xml version="1.0" encoding="utf-8"?>
<!-- Generator: Adobe Illustrator 22.1.0, SVG Export Plug-In . SVG Version: 6.00 Build 0)  -->
<svg version="1.1" id="Layer_1" xmlns="http://www.w3.org/2000/svg" xmlns:xlink="http://www.w3.org/1999/xlink" x="0px" y="0px"
	 viewBox="0 0 24 24" style="enable-background:new 0 0 24 24;" xml:space="preserve">
<g>
	<title>breakup-divorce</title>
	<path d="M5.5,13.002c-1.516,0-2.75-1.234-2.75-2.75s1.234-2.75,2.75-2.75s2.75,1.234,2.75,2.75S7.016,13.002,5.5,13.002z
		 M5.5,8.502c-0.965,0-1.75,0.785-1.75,1.75s0.785,1.75,1.75,1.75s1.75-0.785,1.75-1.75S6.465,8.502,5.5,8.502z"/>
	<path d="M4.5,24.002c-0.255,0-0.469-0.191-0.497-0.445l-0.451-4.055H2.5c-0.276,0-0.5-0.224-0.5-0.5v-2.5c0-1.93,1.57-3.5,3.5-3.5
		l0.042,0c0.19,0,0.387,0.019,0.604,0.059c0.131,0.024,0.246,0.097,0.322,0.207c0.076,0.11,0.105,0.243,0.081,0.374
		c-0.043,0.238-0.249,0.411-0.489,0.411c-0.032,0-0.064-0.003-0.097-0.01C5.804,14.014,5.677,14,5.568,14
		c-0.019,0-0.037,0-0.055,0.001c-1.391,0-2.513,1.122-2.513,2.5v2h1c0.255,0,0.469,0.191,0.497,0.445l0.451,4.055h1.105l0.311-2.807
		c0.028-0.254,0.242-0.445,0.498-0.445c0.018,0,0.036,0.001,0.054,0.003c0.275,0.031,0.473,0.279,0.443,0.552l-0.361,3.252
		C6.969,23.81,6.755,24.002,6.5,24.002H4.5z"/>
	<path d="M18.5,13.002c-1.516,0-2.75-1.234-2.75-2.75s1.234-2.75,2.75-2.75s2.75,1.234,2.75,2.75S20.016,13.002,18.5,13.002z
		 M18.5,8.502c-0.965,0-1.75,0.785-1.75,1.75s0.785,1.75,1.75,1.75s1.75-0.785,1.75-1.75S19.465,8.502,18.5,8.502z"/>
	<path d="M17.5,24.002c-0.255,0-0.469-0.191-0.497-0.445l-0.32-2.877c-0.03-0.274,0.168-0.521,0.442-0.552
		c0.019-0.002,0.037-0.003,0.055-0.003c0.255,0,0.469,0.191,0.498,0.445l0.27,2.432h1.105l0.451-4.055
		c0.028-0.254,0.242-0.445,0.497-0.445h1v-2c0-1.378-1.122-2.5-2.5-2.5c-0.243,0.012-0.453,0.031-0.651,0.083
		c-0.042,0.011-0.084,0.017-0.127,0.017c-0.227,0-0.426-0.153-0.484-0.373c-0.07-0.266,0.09-0.541,0.356-0.611
		c0.293-0.077,0.596-0.117,0.901-0.117c1.936,0,3.506,1.57,3.506,3.5v2.5c0,0.276-0.224,0.5-0.5,0.5h-1.052l-0.451,4.055
		c-0.028,0.254-0.242,0.445-0.497,0.445H17.5z"/>
	<path d="M23.5,24.002c-0.276,0-0.5-0.224-0.5-0.5v-14.7c0-0.164-0.08-0.317-0.215-0.411l-10.5-7.3
		C12.202,1.033,12.103,1.002,12,1.002c-0.103,0-0.202,0.031-0.286,0.089l-10.5,7.3C1.08,8.485,1,8.638,1,8.802v14.7
		c0,0.276-0.224,0.5-0.5,0.5S0,23.777,0,23.502v-14.7C0,8.311,0.24,7.851,0.643,7.57l10.5-7.3C11.395,0.095,11.691,0.003,12,0.003
		c0.309,0,0.605,0.093,0.857,0.268l10.5,7.3C23.76,7.851,24,8.311,24,8.802v14.7C24,23.777,23.776,24.002,23.5,24.002z"/>
	<path d="M13.504,22.002c-0.064,0-0.127-0.012-0.187-0.036c-0.19-0.077-0.313-0.259-0.313-0.464v-1.85
		c0.001-0.199,0.059-0.39,0.168-0.554l0.689-1.033L13.296,17.5c-0.189-0.19-0.292-0.44-0.292-0.707V15.65
		c0-0.134,0.052-0.259,0.146-0.354l0.486-0.486c0.019-0.02,0.046-0.047,0.073-0.073c0.481-0.457,1.106-0.709,1.758-0.709
		c0.028,0,0.056,0,0.084,0.001c0.686,0.017,1.326,0.301,1.8,0.8c0.006,0.006,0.016,0.019,0.021,0.025
		c0.876,0.982,0.834,2.5-0.107,3.444l-3.402,3.549C13.771,21.946,13.639,22.002,13.504,22.002z M14.004,16.794l0.564,0.563
		c0.336,0.335,0.389,0.866,0.126,1.261l-0.69,1.033v0.605l2.548-2.658c0.571-0.573,0.599-1.49,0.067-2.089
		c-0.283-0.297-0.674-0.47-1.094-0.481l-0.043-0.001c-0.41,0-0.784,0.15-1.083,0.434c-0.018,0.017-0.394,0.394-0.394,0.394V16.794z"
		/>
	<path d="M10.496,22.002c-0.136,0-0.267-0.056-0.361-0.154L6.73,18.291c-0.936-0.937-0.979-2.453-0.094-3.449
		c0.502-0.529,1.166-0.813,1.88-0.813c0.664,0,1.295,0.252,1.775,0.708c0.026,0.025,0.053,0.052,0.079,0.078l0.48,0.479
		c0.094,0.094,0.146,0.22,0.146,0.354v1.2l0.689,1.033c0.263,0.396,0.21,0.927-0.126,1.262l-0.564,0.564l0,1.793
		c0,0.205-0.123,0.387-0.314,0.464C10.623,21.989,10.56,22.002,10.496,22.002z M8.516,15.03c-0.436,0-0.841,0.173-1.141,0.487
		c-0.525,0.594-0.497,1.509,0.07,2.076l2.551,2.664v-0.549c0-0.266,0.104-0.517,0.292-0.706l0.565-0.565l-0.689-1.033
		c-0.109-0.164-0.168-0.356-0.168-0.554v-0.994c0,0-0.377-0.378-0.394-0.393C9.308,15.184,8.922,15.03,8.516,15.03z"/>
</g>
</svg>
