<?xml version="1.0" encoding="utf-8"?>
<!-- Generator: Adobe Illustrator 22.1.0, SVG Export Plug-In . SVG Version: 6.00 Build 0)  -->
<svg version="1.1" id="Layer_1" xmlns="http://www.w3.org/2000/svg" xmlns:xlink="http://www.w3.org/1999/xlink" x="0px" y="0px"
	 viewBox="0 0 24 24" style="enable-background:new 0 0 24 24;" xml:space="preserve">
<g>
	<title>breakup-heart-skull</title>
	<path d="M11.997,22.497c-0.261,0-0.508-0.1-0.696-0.282c-0.003-0.003-9.463-9.743-9.463-9.743C-0.082,10.587-0.556,7.7,0.664,5.29
		c0.777-1.508,2.093-2.622,3.706-3.138c0.631-0.202,1.284-0.305,1.938-0.305c0.997,0,1.999,0.245,2.897,0.707
		c0.568,0.293,1.088,0.669,1.543,1.117l1.249,1.138l1.263-1.151c1.182-1.164,2.756-1.808,4.425-1.808l0.058,0
		c1.693,0.013,3.28,0.685,4.468,1.892c0.449,0.456,0.825,0.976,1.118,1.544c1.221,2.412,0.746,5.302-1.181,7.193l-9.432,9.713
		c-0.186,0.192-0.435,0.3-0.702,0.304c-0.001,0-0.003,0-0.004,0H11.997z M6.307,2.848c-0.551,0-1.101,0.086-1.633,0.257
		c-1.359,0.435-2.467,1.372-3.12,2.64c-1.021,2.016-0.622,4.437,0.994,6.021l9.45,9.731l9.441-9.722
		c1.622-1.591,2.021-4.014,1-6.033c-0.245-0.476-0.562-0.913-0.94-1.297c-1-1.016-2.336-1.582-3.763-1.593l-0.043,0
		c-1.409,0-2.739,0.545-3.744,1.534l-1.614,1.471c-0.092,0.084-0.212,0.13-0.337,0.13s-0.245-0.046-0.337-0.13l-1.6-1.458
		C9.665,4.01,9.226,3.691,8.747,3.445C7.98,3.049,7.159,2.848,6.307,2.848z"/>
	<path d="M10.498,17.851c-0.827,0-1.5-0.673-1.5-1.5v-0.233c-1.217-0.375-1.322-1.249-1.464-2.436l-0.033-0.271
		c-0.015-0.12-0.016-0.44-0.006-1.317l0.002-0.244c0-2.481,2.019-4.5,4.5-4.5s4.5,2.019,4.5,4.5l0.002,0.246
		c0.011,0.875,0.009,1.195-0.006,1.317L16.46,13.69c-0.143,1.182-0.248,2.053-1.462,2.428v0.233c0,0.827-0.673,1.5-1.5,1.5H10.498z
		 M11.998,8.351c-1.93,0-3.5,1.57-3.5,3.5l-0.002,0.255c-0.011,0.936-0.005,1.144-0.001,1.185l0.033,0.273
		c0.149,1.247,0.18,1.506,1.062,1.67c0.237,0.044,0.408,0.251,0.408,0.492v0.625c0,0.276,0.224,0.5,0.5,0.5h3
		c0.276,0,0.5-0.224,0.5-0.5v-0.625c0-0.241,0.172-0.448,0.408-0.491c0.88-0.165,0.911-0.424,1.061-1.666l0.034-0.279
		c0.004-0.042,0.01-0.25-0.001-1.181l-0.003-0.258C15.498,9.921,13.928,8.351,11.998,8.351z"/>
	<path d="M10.498,13.601c-0.019,0-0.055-0.005-0.079-0.01c-0.372-0.039-0.655-0.341-0.67-0.714c-0.001-0.009-0.001-0.029-0.001-0.03
		c0-0.01,0.001-0.02,0.002-0.03c0.008-0.362,0.292-0.67,0.668-0.71c0.019-0.005,0.046-0.011,0.08-0.011
		c0.414,0,0.75,0.336,0.75,0.75c0,0.001,0,0.003,0,0.004C11.248,13.265,10.911,13.601,10.498,13.601z"/>
	<path d="M13.498,13.601c-0.019,0-0.055-0.005-0.079-0.01c-0.372-0.039-0.656-0.342-0.67-0.716
		c-0.001-0.008-0.001-0.027-0.001-0.028c0-0.009,0-0.017,0.001-0.026c0.016-0.374,0.299-0.674,0.668-0.714
		c0.019-0.005,0.046-0.011,0.081-0.011c0.414,0,0.75,0.336,0.75,0.75c0,0.001,0,0.003,0,0.004
		C14.248,13.265,13.911,13.601,13.498,13.601z"/>
</g>
</svg>
