<?xml version="1.0" encoding="utf-8"?>
<!-- Generator: Adobe Illustrator 22.1.0, SVG Export Plug-In . SVG Version: 6.00 Build 0)  -->
<svg version="1.1" id="Layer_1" xmlns="http://www.w3.org/2000/svg" xmlns:xlink="http://www.w3.org/1999/xlink" x="0px" y="0px"
	 viewBox="0 0 24 24" style="enable-background:new 0 0 24 24;" xml:space="preserve">
<g>
	<title>3d-drawing-3</title>
	<path d="M12,24.087c-1.325,0-2.578-0.675-3.318-1.776c-0.444,0.165-0.908,0.248-1.384,0.248c-2.206,0-4-1.794-4-4
		c0-0.05,0.001-0.101,0.004-0.154c-1.698-0.484-2.91-2.067-2.91-3.846c0-0.897,0.305-1.766,0.862-2.472
		c-0.557-0.705-0.862-1.575-0.862-2.472c0-1.779,1.211-3.362,2.91-3.846C3.299,5.716,3.298,5.665,3.298,5.615c0-2.206,1.794-4,4-4
		c0.476,0,0.94,0.083,1.384,0.248C9.422,0.762,10.674,0.087,12,0.087s2.578,0.675,3.318,1.776c0.444-0.165,0.908-0.248,1.384-0.248
		c2.206,0,4,1.794,4,4c0,0.05-0.001,0.101-0.004,0.154c1.698,0.483,2.91,2.067,2.91,3.846c0,0.896-0.305,1.766-0.862,2.472
		c0.557,0.706,0.862,1.575,0.862,2.472c0,1.779-1.211,3.363-2.91,3.846c0.002,0.053,0.004,0.104,0.004,0.154c0,2.206-1.794,4-4,4
		c-0.476,0-0.94-0.083-1.384-0.248C14.577,23.412,13.325,24.087,12,24.087z M9.573,21.843c0.565,0.783,1.456,1.244,2.427,1.244
		c0.971,0,1.862-0.461,2.427-1.244c-1.085-0.75-1.725-1.959-1.725-3.284c0-0.455,0.076-0.899,0.226-1.325
		c-0.299-0.098-0.61-0.147-0.928-0.147c-0.318,0-0.629,0.049-0.928,0.147c0.15,0.425,0.226,0.87,0.226,1.325
		C11.298,19.883,10.658,21.093,9.573,21.843z M15.774,21.412c0.299,0.098,0.61,0.147,0.928,0.147c1.654,0,3-1.346,3-3
		c0,0,0-0.001,0-0.001c-0.031,0.001-0.062,0.001-0.094,0.001c-1.786,0-3.324-1.16-3.829-2.851c-0.6,0.196-1.13,0.582-1.504,1.095
		C15.36,17.553,16,18.762,16,20.087C16,20.542,15.924,20.986,15.774,21.412z M4.298,18.559c0,1.654,1.346,3,3,3
		c0.318,0,0.629-0.049,0.928-0.147C8.076,20.986,8,20.542,8,20.087c0-1.324,0.64-2.534,1.725-3.283
		c-0.373-0.513-0.904-0.9-1.504-1.096c-0.504,1.691-2.043,2.851-3.829,2.851c-0.031,0-0.063,0-0.094-0.001
		C4.298,18.558,4.298,18.558,4.298,18.559z M10.175,17.711C9.434,18.279,9,19.146,9,20.087c0,0.289,0.041,0.573,0.123,0.847
		c0.741-0.567,1.175-1.434,1.175-2.375C10.298,18.27,10.257,17.986,10.175,17.711z M13.825,17.711
		c-0.082,0.275-0.123,0.559-0.123,0.848c0,0.941,0.434,1.808,1.175,2.375C14.959,20.66,15,20.376,15,20.087
		C15,19.146,14.566,18.279,13.825,17.711z M16.783,15.56c0.411,1.166,1.494,1.965,2.744,1.998
		C19.116,16.392,18.033,15.593,16.783,15.56z M7.217,15.56c-1.25,0.033-2.333,0.832-2.744,1.998
		C5.723,17.525,6.806,16.726,7.217,15.56z M1.971,12.793c-0.375,0.513-0.579,1.131-0.579,1.766c0,1.314,0.843,2.455,2.077,2.852
		c0.504-1.692,2.043-2.852,3.829-2.852c0.031,0,0.063,0,0.094,0.001c0,0,0-0.001,0-0.001c0-0.635-0.204-1.253-0.579-1.766
		c-0.696,0.532-1.546,0.822-2.421,0.822S2.667,13.325,1.971,12.793z M16.702,14.559c1.786,0,3.325,1.16,3.829,2.852
		c1.235-0.397,2.077-1.537,2.077-2.852c0-0.635-0.204-1.253-0.579-1.766c-0.696,0.532-1.546,0.822-2.421,0.822
		s-1.725-0.29-2.421-0.822c-0.375,0.512-0.579,1.131-0.579,1.766c0,0,0,0.001,0,0.001C16.639,14.559,16.67,14.559,16.702,14.559z
		 M8.388,14.713c0.905,0.258,1.699,0.836,2.228,1.622c0.444-0.165,0.908-0.248,1.384-0.248s0.94,0.083,1.384,0.248
		c0.529-0.786,1.323-1.364,2.228-1.622c-0.002-0.053-0.004-0.105-0.004-0.154c0-0.896,0.305-1.766,0.862-2.472
		c-0.557-0.706-0.862-1.575-0.862-2.472c0-0.05,0.001-0.101,0.004-0.154c-0.905-0.258-1.699-0.836-2.228-1.622
		C12.94,8.004,12.475,8.087,12,8.087s-0.94-0.083-1.384-0.248c-0.528,0.786-1.323,1.364-2.228,1.622
		c0.002,0.053,0.004,0.104,0.004,0.154c0,0.897-0.305,1.766-0.862,2.472c0.557,0.706,0.862,1.575,0.862,2.472
		C8.392,14.609,8.391,14.66,8.388,14.713z M17.914,12.087c0.498,0.342,1.089,0.528,1.694,0.528s1.196-0.186,1.694-0.528
		c-0.498-0.342-1.089-0.528-1.694-0.528S18.411,11.745,17.914,12.087z M2.697,12.087c0.498,0.342,1.089,0.528,1.694,0.528
		s1.197-0.186,1.694-0.528c-0.498-0.342-1.089-0.528-1.694-0.528S3.195,11.745,2.697,12.087z M4.392,10.559
		c0.875,0,1.725,0.29,2.421,0.822c0.375-0.513,0.579-1.131,0.579-1.766c0,0,0-0.001,0-0.001C7.361,9.615,7.329,9.615,7.298,9.615
		c-1.786,0-3.325-1.16-3.829-2.852C2.234,7.16,1.392,8.301,1.392,9.615c0,0.635,0.204,1.253,0.579,1.766
		C2.667,10.849,3.517,10.559,4.392,10.559z M16.608,9.615c0,0.635,0.204,1.253,0.579,1.766c0.696-0.531,1.546-0.822,2.421-0.822
		s1.725,0.29,2.421,0.822c0.375-0.512,0.579-1.131,0.579-1.766c0-1.314-0.843-2.455-2.077-2.852
		c-0.504,1.692-2.043,2.852-3.829,2.852c-0.031,0-0.063,0-0.094-0.001C16.608,9.614,16.608,9.615,16.608,9.615z M19.527,6.616
		c-1.25,0.033-2.333,0.832-2.744,1.998C18.033,8.581,19.116,7.782,19.527,6.616z M4.473,6.616c0.411,1.166,1.494,1.965,2.744,1.998
		C6.806,7.448,5.723,6.649,4.473,6.616z M4.392,5.615c1.786,0,3.324,1.16,3.829,2.851c0.6-0.196,1.131-0.582,1.504-1.096
		C8.64,6.62,8,5.411,8,4.087c0-0.455,0.076-0.899,0.226-1.325c-0.299-0.098-0.61-0.147-0.928-0.147c-1.654,0-3,1.346-3,3
		c0,0,0,0.001,0,0.001C4.329,5.615,4.36,5.615,4.392,5.615z M14.275,7.37c0.373,0.513,0.904,0.9,1.504,1.096
		c0.504-1.692,2.043-2.851,3.829-2.851c0.031,0,0.063,0,0.094,0.001c0,0,0-0.001,0-0.001c0-1.654-1.346-3-3-3
		c-0.318,0-0.629,0.049-0.928,0.147C15.924,3.188,16,3.632,16,4.087C16,5.411,15.36,6.62,14.275,7.37z M11.072,6.94
		c0.299,0.098,0.61,0.147,0.928,0.147s0.629-0.049,0.928-0.147c-0.15-0.425-0.226-0.87-0.226-1.325c0-1.325,0.64-2.534,1.725-3.284
		C13.862,1.548,12.971,1.087,12,1.087c-0.971,0-1.862,0.461-2.427,1.244c1.085,0.75,1.725,1.959,1.725,3.284
		C11.298,6.07,11.222,6.515,11.072,6.94z M9.123,3.239C9.041,3.514,9,3.798,9,4.087c0,0.941,0.434,1.808,1.175,2.376
		c0.082-0.275,0.123-0.559,0.123-0.848C10.298,4.674,9.864,3.807,9.123,3.239z M14.877,3.24c-0.741,0.567-1.175,1.434-1.175,2.375
		c0,0.289,0.041,0.573,0.123,0.848C14.566,5.895,15,5.028,15,4.087C15,3.798,14.959,3.514,14.877,3.24z"/>
</g>
</svg>
