<?xml version="1.0" encoding="utf-8"?>
<!-- Generator: Adobe Illustrator 22.1.0, SVG Export Plug-In . SVG Version: 6.00 Build 0)  -->
<svg version="1.1" id="Layer_1" xmlns="http://www.w3.org/2000/svg" xmlns:xlink="http://www.w3.org/1999/xlink" x="0px" y="0px"
	 viewBox="0 0 24 24" style="enable-background:new 0 0 24 24;" xml:space="preserve">
<g>
	<title>3d-drawing-1</title>
	<path d="M12.002,24.085c-0.344,0-0.678-0.118-0.943-0.331l-2.256-1.823l-2.898,0.148c-0.026,0.001-0.051,0.002-0.076,0.002
		c-0.677,0-1.273-0.457-1.449-1.11l-0.755-2.803l-2.43-1.578c-0.592-0.385-0.837-1.142-0.582-1.8l1.036-2.702L0.612,9.379
		C0.358,8.722,0.603,7.965,1.195,7.58l2.43-1.577L4.38,3.202C4.556,2.549,5.15,2.093,5.825,2.093c0.027,0,0.054,0.001,0.081,0.002
		l2.896,0.148l2.254-1.823c0.265-0.214,0.6-0.332,0.943-0.332c0.343,0,0.678,0.118,0.943,0.331l2.255,1.823l2.896-0.148
		c0.026-0.001,0.052-0.002,0.078-0.002c0.676,0,1.271,0.456,1.448,1.109l0.754,2.802l2.43,1.577c0.593,0.385,0.837,1.142,0.582,1.8
		l-1.033,2.714l1.03,2.698c0.254,0.656,0.009,1.413-0.583,1.798l-2.425,1.577l-0.755,2.803c-0.176,0.654-0.772,1.11-1.449,1.11
		c-0.025,0-0.05,0-0.075-0.002l-2.897-0.148l-2.253,1.823C12.68,23.968,12.345,24.085,12.002,24.085z M11.688,22.976
		c0.088,0.071,0.2,0.11,0.315,0.11c0.115,0,0.226-0.039,0.314-0.11l1.723-1.394c-1.003-0.592-1.479-1.813-1.093-2.952l0.268-0.788
		l-0.924-0.653c-0.085-0.06-0.184-0.091-0.288-0.091s-0.204,0.032-0.289,0.092l-0.928,0.655l0.267,0.786
		c0.215,0.632,0.17,1.31-0.125,1.909c-0.215,0.437-0.551,0.796-0.965,1.041L11.688,22.976z M5.345,20.711
		c0.059,0.218,0.256,0.37,0.48,0.37l2.244-0.114c-0.192-0.442-0.252-0.93-0.17-1.41c0.113-0.658,0.475-1.233,1.02-1.619l0.679-0.479
		l-0.364-1.074c-0.068-0.2-0.256-0.337-0.467-0.34l-1.131-0.014l-0.245,0.793c-0.327,1.052-1.287,1.759-2.389,1.759
		c-0.076,0-0.154-0.004-0.234-0.013L5.345,20.711z M18.172,21.081c0.221,0,0.424-0.156,0.482-0.37l0.577-2.141
		c-0.08,0.009-0.158,0.013-0.234,0.013c-1.102,0-2.062-0.706-2.389-1.758l-0.245-0.794l-1.131,0.014
		c-0.211,0.003-0.399,0.139-0.467,0.34l-0.364,1.073l0.68,0.481c0.188,0.133,0.357,0.292,0.502,0.471
		c0.419,0.52,0.611,1.172,0.54,1.836c-0.027,0.252-0.091,0.494-0.189,0.723L18.172,21.081z M13.894,18.952
		c-0.129,0.379-0.102,0.785,0.076,1.145c0.177,0.36,0.484,0.628,0.863,0.757c0.006,0.002,0.011,0.004,0.017,0.006
		c0.155-0.211,0.25-0.458,0.279-0.721c0.042-0.398-0.073-0.79-0.324-1.101c-0.086-0.107-0.188-0.202-0.301-0.282l-0.438-0.309
		L13.894,18.952z M9.497,18.754c-0.326,0.231-0.544,0.576-0.611,0.971c-0.068,0.395,0.023,0.792,0.255,1.119
		c0.003,0.005,0.007,0.01,0.01,0.014c0.005-0.002,0.01-0.003,0.016-0.005c0.38-0.129,0.687-0.398,0.864-0.757
		c0.177-0.359,0.204-0.766,0.075-1.146l-0.172-0.506L9.497,18.754z M17.563,16.529c0.196,0.63,0.772,1.054,1.433,1.054
		c0.15,0,0.3-0.023,0.445-0.068c0.007-0.002,0.014-0.004,0.021-0.007c0.001-0.262-0.067-0.517-0.199-0.746
		c-0.2-0.347-0.523-0.596-0.91-0.7c-0.127-0.034-0.259-0.052-0.39-0.052v-0.25l-0.015,0.25l-0.543,0.007L17.563,16.529z
		 M4.558,17.514c0.145,0.045,0.294,0.068,0.444,0.068c0.662,0,1.238-0.424,1.434-1.054l0.158-0.511L6.02,16.01
		c-0.119,0-0.245,0.017-0.373,0.052c-0.662,0.178-1.109,0.773-1.108,1.447C4.545,17.51,4.551,17.512,4.558,17.514z M1.546,15.149
		C1.461,15.37,1.542,15.622,1.74,15.75l1.86,1.208c0.202-0.895,0.881-1.619,1.787-1.863c0.212-0.057,0.44-0.086,0.679-0.086
		l0.836,0.011l0.334-1.08c0.064-0.204-0.008-0.425-0.178-0.552L6.149,12.71l-0.665,0.497c-0.435,0.324-0.951,0.496-1.493,0.496
		c-0.615,0-1.198-0.224-1.651-0.624L1.546,15.149z M17.953,15.01c0.226,0,0.447,0.029,0.659,0.086
		c0.645,0.174,1.184,0.588,1.517,1.167c0.126,0.219,0.217,0.452,0.271,0.695l1.854-1.206c0.198-0.128,0.279-0.381,0.194-0.6
		l-0.789-2.067c-0.453,0.398-1.034,0.62-1.647,0.62c-0.542,0-1.058-0.171-1.492-0.495l-0.669-0.499l-0.91,0.679
		c-0.17,0.127-0.242,0.348-0.179,0.55l0.334,1.082C17.097,15.021,17.952,15.01,17.953,15.01z M8.78,15.045
		c0.635,0.009,1.198,0.418,1.401,1.018l0.269,0.794l0.686-0.484c0.254-0.179,0.553-0.274,0.865-0.274
		c0.312,0,0.612,0.095,0.866,0.275l0.682,0.482l0.269-0.792c0.204-0.601,0.767-1.01,1.401-1.018l0.836-0.011l-0.247-0.799
		c-0.189-0.606,0.026-1.269,0.536-1.648l0.672-0.502l-0.667-0.498c-0.51-0.38-0.725-1.043-0.535-1.65L16.06,9.14l-0.841-0.011
		c-0.635-0.008-1.198-0.417-1.401-1.019l-0.269-0.792l-0.684,0.483C12.611,7.981,12.312,8.076,12,8.076
		c-0.312,0-0.611-0.095-0.865-0.274L10.45,7.318l-0.269,0.793C9.978,8.711,9.415,9.121,8.78,9.129L7.939,9.14l0.247,0.799
		c0.189,0.606-0.026,1.269-0.536,1.649l-0.667,0.498l0.672,0.501c0.51,0.38,0.725,1.043,0.535,1.65l-0.246,0.797L8.78,15.045z
		 M19.118,12.407c0.261,0.195,0.57,0.297,0.895,0.297c0.48,0,0.919-0.219,1.204-0.602c0.003-0.004,0.005-0.007,0.008-0.011
		c-0.28-0.387-0.734-0.621-1.217-0.621c-0.182,0-0.362,0.033-0.534,0.099c-0.129,0.049-0.25,0.116-0.361,0.199l-0.426,0.318
		L19.118,12.407z M2.786,12.101c0.286,0.383,0.725,0.602,1.204,0.602c0.325,0,0.634-0.103,0.895-0.297l0.427-0.319l-0.427-0.319
		c-0.111-0.083-0.232-0.149-0.361-0.199C4.353,11.503,4.173,11.47,3.99,11.47c-0.481,0-0.934,0.234-1.214,0.618
		C2.78,12.092,2.783,12.097,2.786,12.101z M3.993,10.47c0.304,0,0.603,0.055,0.889,0.165c0.216,0.083,0.418,0.194,0.602,0.331
		l0.664,0.496l0.904-0.676c0.17-0.127,0.242-0.348,0.179-0.55L6.896,9.153L6.036,9.164c-0.655,0-1.275-0.252-1.744-0.709
		c-0.349-0.34-0.588-0.771-0.693-1.242L1.74,8.419C1.542,8.547,1.461,8.8,1.546,9.019l0.794,2.073
		C2.793,10.693,3.377,10.47,3.993,10.47z M16.768,10.235c-0.063,0.203,0.008,0.425,0.178,0.551l0.905,0.676l0.664-0.495
		c0.184-0.137,0.386-0.249,0.601-0.331c0.287-0.11,0.586-0.165,0.891-0.165c0.617,0,1.202,0.224,1.656,0.625l0.789-2.073
		c0.086-0.222,0.005-0.474-0.193-0.603L20.4,7.212c-0.105,0.471-0.343,0.902-0.692,1.242c-0.47,0.458-1.089,0.709-1.744,0.709
		l-0.861-0.011L16.768,10.235z M4.537,6.683C4.542,7.084,4.703,7.459,4.99,7.739c0.286,0.278,0.646,0.426,1.041,0.426l0.557-0.007
		l-0.158-0.51C6.39,7.516,6.331,7.391,6.256,7.275C6.038,6.939,5.702,6.708,5.31,6.625C5.206,6.603,5.1,6.592,4.995,6.592
		c-0.155,0-0.309,0.025-0.458,0.074C4.537,6.672,4.537,6.678,4.537,6.683z M17.943,8.164c0.413,0,0.784-0.151,1.066-0.426
		c0.287-0.28,0.448-0.654,0.453-1.055c0-0.005,0-0.011,0-0.017c-0.149-0.049-0.303-0.074-0.459-0.074
		c-0.511,0-0.983,0.255-1.261,0.682c-0.075,0.115-0.134,0.24-0.174,0.372l-0.158,0.51C17.41,8.157,17.943,8.164,17.943,8.164z
		 M5,5.593c0.173,0,0.347,0.018,0.517,0.054C6.171,5.786,6.731,6.17,7.095,6.73C7.22,6.922,7.318,7.131,7.386,7.35l0.245,0.793
		l1.136-0.015C8.979,8.126,9.166,7.99,9.234,7.79l0.364-1.074L8.92,6.236C8.375,5.85,8.013,5.275,7.9,4.617
		c-0.082-0.48-0.022-0.968,0.17-1.41L5.828,3.093c-0.226,0-0.424,0.152-0.483,0.37L4.769,5.604C4.846,5.596,4.923,5.593,5,5.593z
		 M14.765,7.789c0.068,0.2,0.255,0.337,0.467,0.34l1.136,0.015l0.245-0.792c0.068-0.22,0.166-0.429,0.292-0.621
		c0.462-0.711,1.247-1.135,2.098-1.135c0.076,0,0.152,0.003,0.228,0.01l-0.577-2.144c-0.058-0.214-0.261-0.369-0.483-0.369
		l-2.239,0.114c0.364,0.843,0.241,1.828-0.349,2.559c-0.145,0.179-0.313,0.338-0.501,0.471l-0.681,0.481L14.765,7.789z
		 M11.711,6.985c0.085,0.06,0.184,0.091,0.289,0.091c0.104,0,0.204-0.032,0.288-0.091l0.926-0.654l-0.267-0.787
		c-0.074-0.219-0.117-0.446-0.129-0.676c-0.034-0.667,0.194-1.307,0.641-1.803c0.17-0.188,0.364-0.347,0.579-0.474l-1.724-1.393
		c-0.088-0.071-0.199-0.11-0.314-0.11s-0.227,0.039-0.314,0.11L9.962,2.591c0.215,0.127,0.408,0.285,0.578,0.474
		c0.447,0.496,0.675,1.136,0.641,1.803c-0.012,0.23-0.055,0.457-0.129,0.676L10.785,6.33L11.711,6.985z M14.849,3.315
		c-0.249,0.08-0.471,0.224-0.648,0.42c-0.269,0.297-0.405,0.682-0.385,1.082c0.007,0.138,0.033,0.275,0.077,0.406l0.172,0.506
		l0.438-0.309c0.113-0.08,0.214-0.175,0.301-0.282C15.235,4.603,15.247,3.859,14.849,3.315z M9.14,3.329
		c-0.232,0.327-0.322,0.725-0.255,1.12C8.953,4.843,9.17,5.188,9.497,5.42l0.436,0.308l0.172-0.506
		c0.044-0.131,0.07-0.267,0.078-0.406c0.02-0.4-0.116-0.784-0.385-1.082C9.621,3.539,9.399,3.396,9.15,3.315
		C9.147,3.32,9.143,3.324,9.14,3.329z"/>
</g>
</svg>
