<?xml version="1.0" encoding="utf-8"?>
<!-- Generator: Adobe Illustrator 22.1.0, SVG Export Plug-In . SVG Version: 6.00 Build 0)  -->
<svg version="1.1" id="Layer_1" xmlns="http://www.w3.org/2000/svg" xmlns:xlink="http://www.w3.org/1999/xlink" x="0px" y="0px"
	 viewBox="0 0 24 24" style="enable-background:new 0 0 24 24;" xml:space="preserve">
<g>
	<title>3d-print-tshirt</title>
	<path d="M11.495,24.001c-4.163,0-7.773-3.106-8.398-7.226c-0.341-2.245,0.213-4.488,1.56-6.316
		c1.346-1.828,3.324-3.022,5.569-3.363C10.481,7.057,10.74,7.03,11,7.015V4.948C10.027,4.748,9.251,3.973,9.051,3H0.5
		C0.224,3,0,2.776,0,2.5S0.224,2,0.5,2H9V0.5C9,0.224,9.224,0,9.5,0h4C13.776,0,14,0.224,14,0.5V2h9.5C23.776,2,24,2.224,24,2.5
		S23.776,3,23.5,3h-9.551c-0.2,0.973-0.976,1.749-1.949,1.949V7.5C12,7.776,11.776,8,11.5,8c-0.375,0-0.753,0.029-1.125,0.085
		c-1.981,0.3-3.726,1.354-4.914,2.967c-1.188,1.613-1.677,3.592-1.376,5.573C4.637,20.259,7.824,23,11.498,23c0,0,0,0,0,0
		c0.375,0,0.754-0.029,1.127-0.085c1.98-0.301,3.726-1.354,4.914-2.968c1.188-1.613,1.677-3.592,1.376-5.573
		c-0.02-0.132,0.012-0.265,0.092-0.372s0.196-0.177,0.328-0.198c0.025-0.004,0.05-0.006,0.075-0.006
		c0.245,0,0.457,0.183,0.494,0.425c0.341,2.245-0.213,4.488-1.56,6.316c-1.346,1.828-3.324,3.022-5.569,3.363
		C12.354,23.968,11.923,24,11.495,24.001L11.495,24.001z M10,2.5C10,3.327,10.673,4,11.5,4S13,3.327,13,2.5V1h-3V2.5z"/>
	<path d="M8.5,21C8.224,21,8,20.775,8,20.5v-5.066l-0.723,0.482C7.195,15.971,7.099,16,7,16c-0.043,0-0.087-0.006-0.129-0.017
		c-0.139-0.037-0.255-0.132-0.319-0.26l-1-2C5.45,13.518,5.5,13.269,5.675,13.12l3.5-3C9.265,10.043,9.381,10,9.5,10
		c0.142,0,0.278,0.061,0.373,0.167c0.421,0.473,0.998,0.767,1.627,0.831c0.628-0.064,1.206-0.358,1.627-0.831
		C13.222,10.061,13.358,10,13.5,10c0.119,0,0.235,0.043,0.325,0.12l3.5,3c0.175,0.149,0.225,0.397,0.122,0.603l-1,2
		c-0.064,0.128-0.18,0.222-0.318,0.26C16.086,15.994,16.043,16,16,16c-0.099,0-0.195-0.029-0.277-0.084L15,15.434V20.5
		c0,0.276-0.224,0.5-0.5,0.5H8.5z M14,20v-5.5c0-0.185,0.101-0.354,0.264-0.441C14.336,14.02,14.418,14,14.5,14
		c0.099,0,0.195,0.029,0.277,0.084l1.029,0.686l0.572-1.144l-2.857-2.449c-0.438,0.372-0.957,0.628-1.521,0.751V14.5
		c0,0.276-0.224,0.5-0.5,0.5S11,14.775,11,14.5v-2.572c-0.564-0.123-1.083-0.379-1.521-0.751l-2.857,2.449l0.572,1.144l1.029-0.686
		C8.305,14.029,8.401,14,8.5,14c0.082,0,0.164,0.021,0.236,0.059C8.899,14.146,9,14.315,9,14.5V20H14z"/>
	<path d="M18.7,12.5c-0.192,0-0.365-0.107-0.449-0.28c-0.333-0.68-0.765-1.303-1.283-1.853c-0.092-0.097-0.14-0.224-0.136-0.358
		s0.06-0.257,0.157-0.349c0.093-0.088,0.215-0.136,0.343-0.136c0.137,0,0.27,0.057,0.364,0.157c0.587,0.623,1.076,1.329,1.453,2.099
		c0.121,0.248,0.018,0.547-0.229,0.669C18.852,12.482,18.776,12.5,18.7,12.5z"/>
	<path d="M15.442,9.037c-0.086,0-0.171-0.022-0.246-0.065c-0.327-0.185-0.671-0.347-1.023-0.482
		c-0.125-0.048-0.223-0.141-0.278-0.263c-0.054-0.122-0.058-0.258-0.01-0.383c0.073-0.192,0.261-0.321,0.467-0.321
		c0.061,0,0.122,0.011,0.179,0.033c0.399,0.153,0.788,0.337,1.157,0.546c0.116,0.066,0.2,0.173,0.235,0.302
		c0.036,0.129,0.019,0.264-0.047,0.38C15.788,8.94,15.621,9.037,15.442,9.037z"/>
</g>
</svg>
