<?xml version="1.0" encoding="utf-8"?>
<!-- Generator: Adobe Illustrator 22.1.0, SVG Export Plug-In . SVG Version: 6.00 Build 0)  -->
<svg version="1.1" id="Layer_1" xmlns="http://www.w3.org/2000/svg" xmlns:xlink="http://www.w3.org/1999/xlink" x="0px" y="0px"
	 viewBox="0 0 24 24" style="enable-background:new 0 0 24 24;" xml:space="preserve">
<g>
	<title>3d-print-reel</title>
	<path d="M20.116,23.965c-0.413,0-0.816-0.117-1.167-0.338c-0.494-0.312-0.838-0.798-0.967-1.37s-0.029-1.158,0.283-1.653
		l2.272-3.405c0.042-0.062,0.079-0.129,0.109-0.197c0.141-0.317,0.149-0.67,0.025-0.994c-0.125-0.324-0.368-0.58-0.685-0.721
		c-0.157-0.064-0.33-0.098-0.507-0.098c-0.471,0-0.903,0.238-1.157,0.636l-2.944,4.419c-0.068,0.102-0.145,0.2-0.23,0.292
		c-0.438,0.47-1.057,0.739-1.7,0.739c-0.588,0-1.149-0.22-1.58-0.621c-0.825-0.817-0.952-2.096-0.308-3.047l1.088-1.691
		C11.383,16.625,9.951,17,8.5,17c-1.473,0-2.927-0.386-4.206-1.118c-0.014-0.005-0.03-0.013-0.047-0.022
		c-0.011-0.006-0.023-0.015-0.035-0.025c-1.249-0.729-2.306-1.784-3.046-3.044c-0.009-0.011-0.019-0.025-0.028-0.041
		c-0.007-0.012-0.014-0.028-0.02-0.044C0.391,11.441,0,9.98,0,8.5c0-1.475,0.387-2.931,1.121-4.211
		C1.127,4.275,1.133,4.26,1.14,4.249c0.009-0.016,0.019-0.029,0.028-0.04c0.728-1.248,1.785-2.305,3.047-3.045
		c0.012-0.01,0.024-0.018,0.035-0.025c0.017-0.01,0.033-0.017,0.046-0.021C5.562,0.39,7.021,0,8.5,0c1.475,0,2.93,0.387,4.211,1.121
		c0.015,0.006,0.029,0.012,0.04,0.019c0.017,0.01,0.03,0.02,0.041,0.03c1.246,0.727,2.304,1.783,3.044,3.046
		c0.009,0.011,0.017,0.023,0.023,0.032c0.01,0.018,0.017,0.034,0.022,0.048C16.611,5.561,17,7.021,17,8.5
		c0,1.475-0.387,2.931-1.121,4.211c-0.006,0.015-0.012,0.029-0.018,0.04c-0.008,0.013-0.017,0.027-0.028,0.04
		c-0.053,0.09-0.107,0.179-0.163,0.267c-0.007,0.017-0.016,0.033-0.023,0.045l-3.252,5.054c-0.379,0.561-0.308,1.305,0.167,1.774
		c0.236,0.219,0.552,0.343,0.885,0.343c0.367,0,0.72-0.153,0.969-0.421c0.048-0.052,0.092-0.107,0.131-0.165l2.938-4.41
		c0.433-0.68,1.179-1.089,1.992-1.089c0.31,0,0.613,0.06,0.902,0.178c0.57,0.253,1.002,0.707,1.224,1.281
		c0.222,0.574,0.207,1.199-0.042,1.76c-0.053,0.12-0.117,0.236-0.191,0.347l-2.264,3.394c-0.345,0.547-0.177,1.282,0.378,1.632
		c0.191,0.121,0.411,0.184,0.635,0.184c0.387,0,0.751-0.189,0.974-0.505l1.993-2.989c0.093-0.139,0.248-0.223,0.416-0.223
		c0.098,0,0.194,0.029,0.277,0.083c0.112,0.075,0.188,0.188,0.214,0.318c0.026,0.131,0,0.264-0.074,0.375l-2,3
		C21.5,23.616,20.828,23.965,20.116,23.965z M9,15.981c0.986-0.064,1.928-0.317,2.808-0.752l-2.011-3.483
		C9.541,11.85,9.274,11.922,9,11.961V15.981z M5.192,15.229c0.88,0.435,1.822,0.687,2.808,0.752v-4.02
		c-0.273-0.039-0.54-0.111-0.797-0.214L5.192,15.229z M12.673,14.727c0.808-0.544,1.511-1.247,2.054-2.054l-3.479-2.009
		c-0.171,0.217-0.367,0.413-0.584,0.584L12.673,14.727z M2.273,12.673c0.543,0.807,1.247,1.511,2.054,2.054l2.009-3.479
		c-0.217-0.171-0.413-0.367-0.584-0.584L2.273,12.673z M15.23,11.808c0.435-0.88,0.687-1.822,0.752-2.808h-4.02
		c-0.039,0.273-0.111,0.54-0.214,0.797L15.23,11.808z M1.019,9c0.064,0.985,0.317,1.928,0.752,2.808l3.483-2.011
		C5.15,9.54,5.078,9.273,5.039,9H1.019z M8.5,6C7.122,6,6,7.121,6,8.5S7.122,11,8.5,11S11,9.879,11,8.5S9.879,6,8.5,6z M15.982,8
		c-0.064-0.986-0.317-1.928-0.752-2.808l-3.483,2.011C11.85,7.46,11.922,7.727,11.961,8H15.982z M5.039,8
		C5.078,7.727,5.15,7.46,5.253,7.203L1.771,5.192C1.336,6.072,1.083,7.015,1.019,8H5.039z M5.752,6.336
		c0.171-0.217,0.367-0.413,0.584-0.584L4.327,2.273C3.52,2.816,2.817,3.52,2.273,4.327L5.752,6.336z M10.664,5.752
		c0.217,0.171,0.413,0.367,0.584,0.584l3.479-2.009c-0.544-0.808-1.247-1.511-2.054-2.054L10.664,5.752z M7.203,5.253
		C7.46,5.15,7.727,5.078,8,5.039v-4.02C7.015,1.083,6.073,1.335,5.192,1.771L7.203,5.253z M9,5.039
		c0.273,0.039,0.54,0.111,0.797,0.214l2.011-3.483C10.928,1.335,9.986,1.083,9,1.019V5.039z"/>
</g>
</svg>
