<?xml version="1.0" encoding="utf-8"?>
<!-- Generator: Adobe Illustrator 22.1.0, SVG Export Plug-In . SVG Version: 6.00 Build 0)  -->
<svg version="1.1" id="Layer_1" xmlns="http://www.w3.org/2000/svg" xmlns:xlink="http://www.w3.org/1999/xlink" x="0px" y="0px"
	 viewBox="0 0 24 24" style="enable-background:new 0 0 24 24;" xml:space="preserve">
<g>
	<title>3d-print-ball</title>
	<path d="M2.5,24C1.121,24,0,22.878,0,21.5v-19C0,1.121,1.121,0,2.5,0h19C22.878,0,24,1.121,24,2.5v19c0,1.378-1.122,2.5-2.5,2.5
		H2.5z M21.5,23c0.827,0,1.5-0.673,1.5-1.5V7h-9.5C13.224,7,13,6.776,13,6.5S13.224,6,13.5,6H23V2.5C23,1.673,22.327,1,21.5,1H18
		v2.5C18,4.327,17.327,5,16.5,5h-5.588C10.97,5.16,11,5.328,11,5.5v2c0,0.09-0.025,0.179-0.071,0.257l-1.5,2.5
		C9.339,10.407,9.175,10.5,9,10.5s-0.339-0.093-0.429-0.243l-1.5-2.5C7.025,7.679,7,7.59,7,7.5v-2C7,4.673,7.673,4,8.5,4h8
		C16.776,4,17,3.776,17,3.5V1H2.5C1.673,1,1,1.673,1,2.5V6h4.5C5.776,6,6,6.224,6,6.5S5.776,7,5.5,7H1v14.5
		C1,22.327,1.673,23,2.5,23H5v-2H3.5C3.224,21,3,20.776,3,20.5S3.224,20,3.5,20h5.508C7.751,19.066,7,17.6,7,16c0-2.757,2.243-5,5-5
		c2.757,0,5,2.243,5,5c0,1.6-0.751,3.066-2.008,4H20.5c0.276,0,0.5,0.224,0.5,0.5S20.776,21,20.5,21H19v2H21.5z M18,23v-2H6v2H18z
		 M12,12c-2.206,0-4,1.794-4,4s1.794,4,4,4s4-1.794,4-4S14.206,12,12,12z M9,9.028l1-1.667V5.5C10,5.224,9.776,5,9.5,5h-1
		C8.224,5,8,5.224,8,5.5v1.862L9,9.028z"/>
	<path d="M9.5,16.5C9.224,16.5,9,16.276,9,16c0-1.654,1.346-3,3-3c0.276,0,0.5,0.224,0.5,0.5S12.276,14,12,14c-1.103,0-2,0.897-2,2
		C10,16.276,9.776,16.5,9.5,16.5z"/>
	<path d="M7.5,11.5c-0.134,0-0.259-0.052-0.354-0.146l-0.75-0.75c-0.094-0.094-0.146-0.22-0.146-0.354s0.052-0.259,0.146-0.354
		S6.616,9.75,6.75,9.75s0.259,0.052,0.354,0.146l0.75,0.75C7.948,10.741,8,10.866,8,11s-0.052,0.259-0.146,0.354
		S7.634,11.5,7.5,11.5z"/>
	<path d="M5.5,13C5.224,13,5,12.776,5,12.5C5,12.224,5.224,12,5.5,12h1C6.776,12,7,12.224,7,12.5C7,12.776,6.776,13,6.5,13H5.5z"/>
</g>
</svg>
