<?xml version="1.0" encoding="utf-8"?>
<!-- Generator: Adobe Illustrator 22.1.0, SVG Export Plug-In . SVG Version: 6.00 Build 0)  -->
<svg version="1.1" id="Layer_1" xmlns="http://www.w3.org/2000/svg" xmlns:xlink="http://www.w3.org/1999/xlink" x="0px" y="0px"
	 viewBox="0 0 24 24" style="enable-background:new 0 0 24 24;" xml:space="preserve">
<g>
	<title>3d-print-triangle</title>
	<path d="M2.5,24C1.121,24,0,22.878,0,21.5v-19C0,1.121,1.121,0,2.5,0h19C22.878,0,24,1.121,24,2.5v19c0,1.378-1.122,2.5-2.5,2.5
		H2.5z M21.5,23c0.827,0,1.5-0.673,1.5-1.5V7h-8.5C14.224,7,14,6.776,14,6.5S14.224,6,14.5,6H23V2.5C23,1.673,22.327,1,21.5,1h-5
		v2.5C16.5,4.327,15.827,5,15,5h-3.088C11.97,5.16,12,5.328,12,5.5v2c0,0.09-0.025,0.179-0.071,0.257l-1.5,2.5
		C10.339,10.407,10.175,10.5,10,10.5s-0.339-0.093-0.429-0.243l-1.5-2.5C8.025,7.679,8,7.59,8,7.5v-2C8,4.673,8.673,4,9.5,4H15
		c0.276,0,0.5-0.224,0.5-0.5V1h-13C1.673,1,1,1.673,1,2.5V6h5.5C6.776,6,7,6.224,7,6.5S6.776,7,6.5,7H1v14.5
		C1,22.327,1.673,23,2.5,23H5v-2H3.5C3.224,21,3,20.776,3,20.5S3.224,20,3.5,20h17c0.276,0,0.5,0.224,0.5,0.5S20.776,21,20.5,21H19
		v2H21.5z M18,23v-2H6v2H18z M10,9.028l1-1.667V5.5C11,5.224,10.776,5,10.5,5h-1C9.224,5,9,5.224,9,5.5v1.862L10,9.028z"/>
	<path d="M8,11.5c-0.134,0-0.259-0.052-0.354-0.146l-0.75-0.75c-0.094-0.094-0.146-0.22-0.146-0.354s0.052-0.259,0.146-0.354
		S7.116,9.75,7.25,9.75s0.259,0.052,0.354,0.146l0.75,0.75C8.448,10.741,8.5,10.866,8.5,11s-0.052,0.259-0.146,0.354
		S8.134,11.5,8,11.5z"/>
	<path d="M6,13c-0.276,0-0.5-0.224-0.5-0.5C5.5,12.224,5.724,12,6,12h1c0.276,0,0.5,0.224,0.5,0.5C7.5,12.776,7.276,13,7,13H6z"/>
	<path d="M12,11.5c-0.134,0-0.259-0.052-0.354-0.146S11.5,11.134,11.5,11s0.052-0.259,0.146-0.354l0.75-0.75
		c0.094-0.094,0.22-0.146,0.354-0.146s0.259,0.052,0.354,0.146s0.146,0.22,0.146,0.354s-0.052,0.259-0.146,0.354l-0.75,0.75
		C12.259,11.448,12.134,11.5,12,11.5z"/>
	<path d="M13,13c-0.276,0-0.5-0.224-0.5-0.5c0-0.276,0.224-0.5,0.5-0.5h1c0.276,0,0.5,0.224,0.5,0.5c0,0.276-0.224,0.5-0.5,0.5H13z"
		/>
	<path d="M6.25,19c-0.182,0-0.349-0.099-0.437-0.258c-0.088-0.158-0.083-0.353,0.013-0.507l3.75-6
		c0.089-0.142,0.248-0.227,0.424-0.227s0.335,0.085,0.424,0.227l3.75,6c0.096,0.154,0.102,0.348,0.014,0.507
		C14.099,18.901,13.932,19,13.75,19H6.25z M12.848,18L10,13.443L7.152,18H12.848z"/>
</g>
</svg>
