<?xml version="1.0" encoding="utf-8"?>
<!-- Generator: Adobe Illustrator 22.1.0, SVG Export Plug-In . SVG Version: 6.00 Build 0)  -->
<svg version="1.1" id="Layer_1" xmlns="http://www.w3.org/2000/svg" xmlns:xlink="http://www.w3.org/1999/xlink" x="0px" y="0px"
	 viewBox="0 0 24 24" style="enable-background:new 0 0 24 24;" xml:space="preserve">
<g>
	<title>3d-print-candy</title>
	<path d="M11.495,24.001c-4.163,0-7.773-3.106-8.398-7.226c-0.341-2.245,0.213-4.488,1.56-6.316
		c1.346-1.828,3.324-3.022,5.569-3.363C10.481,7.057,10.74,7.03,11,7.015V4.948C10.027,4.748,9.251,3.973,9.051,3H0.5
		C0.224,3,0,2.776,0,2.5S0.224,2,0.5,2H9V0.5C9,0.224,9.224,0,9.5,0h4C13.776,0,14,0.224,14,0.5V2h9.5C23.776,2,24,2.224,24,2.5
		S23.776,3,23.5,3h-9.551c-0.2,0.973-0.976,1.749-1.949,1.949V7.5C12,7.776,11.776,8,11.5,8c-0.375,0-0.753,0.029-1.125,0.085
		c-1.981,0.3-3.726,1.354-4.914,2.967c-1.188,1.613-1.677,3.592-1.376,5.573C4.637,20.259,7.824,23,11.498,23c0,0,0,0,0,0
		c0.375,0,0.754-0.029,1.127-0.085c1.98-0.301,3.726-1.354,4.914-2.968c1.188-1.613,1.677-3.592,1.376-5.573
		c-0.02-0.132,0.012-0.265,0.092-0.372s0.196-0.177,0.328-0.198c0.025-0.004,0.05-0.006,0.075-0.006
		c0.245,0,0.457,0.183,0.494,0.425c0.341,2.245-0.213,4.488-1.56,6.316c-1.346,1.828-3.324,3.022-5.569,3.363
		C12.354,23.968,11.923,24,11.495,24.001L11.495,24.001z M10,2.5C10,3.327,10.673,4,11.5,4S13,3.327,13,2.5V1h-3V2.5z"/>
	<path d="M9.44,21.325c-0.135,0-0.261-0.052-0.355-0.148c-0.094-0.094-0.145-0.22-0.145-0.354c0-0.134,0.053-0.259,0.148-0.353
		c0.269-0.267,0.38-0.647,0.297-1.017l-0.213-1.62l-1.577-0.211C7.489,17.6,7.401,17.59,7.315,17.59
		c-0.296,0-0.573,0.115-0.78,0.323C6.44,18.008,6.314,18.06,6.181,18.06c-0.133,0-0.258-0.052-0.352-0.145
		c-0.195-0.195-0.196-0.512-0.002-0.707c0.397-0.399,0.925-0.619,1.485-0.619c0.153,0,0.308,0.017,0.459,0.05l1.267,0.169
		L8.866,15.5c-0.11-0.534,0.002-1.103,0.32-1.583c0.317-0.48,0.802-0.807,1.366-0.922c0.141-0.029,0.286-0.044,0.43-0.044
		c0.143,0,0.287,0.014,0.429,0.043l1.273,0.171l-0.168-1.316c-0.151-0.662,0.059-1.376,0.564-1.886
		c0.094-0.095,0.22-0.148,0.355-0.148c0.133,0,0.258,0.051,0.352,0.145c0.095,0.094,0.148,0.219,0.148,0.353
		c0,0.133-0.051,0.259-0.145,0.354c-0.264,0.266-0.372,0.643-0.29,1.009l0.209,1.627l1.556,0.209
		c0.106,0.023,0.193,0.032,0.279,0.032c0.292,0,0.566-0.112,0.773-0.316c0.094-0.093,0.218-0.144,0.351-0.144
		c0.135,0,0.261,0.053,0.356,0.149c0.094,0.095,0.145,0.221,0.144,0.355c-0.001,0.134-0.054,0.259-0.149,0.353
		c-0.396,0.39-0.919,0.605-1.473,0.605l0,0c-0.153,0-0.307-0.017-0.457-0.05L13.84,14.33l0.167,1.307
		c0.11,0.533-0.003,1.101-0.321,1.581c-0.318,0.48-0.803,0.807-1.366,0.921c-0.141,0.029-0.285,0.043-0.429,0.043
		c-0.143,0-0.287-0.014-0.428-0.043l-1.265-0.169l0.171,1.308c0.153,0.671-0.062,1.39-0.577,1.901
		C9.698,21.273,9.573,21.325,9.44,21.325z M11.628,17.153c0.103,0.02,0.185,0.029,0.266,0.029c0.077,0,0.151-0.008,0.226-0.023
		c0.302-0.061,0.561-0.237,0.732-0.493c0.17-0.257,0.23-0.564,0.168-0.866l-0.206-1.608l-1.57-0.211
		c-0.102-0.02-0.184-0.029-0.265-0.029c-0.077,0-0.151,0.008-0.228,0.023c-0.302,0.062-0.562,0.237-0.731,0.494
		c-0.17,0.257-0.23,0.564-0.168,0.866l0.211,1.609L11.628,17.153z"/>
	<path d="M18.7,12.5c-0.192,0-0.365-0.107-0.449-0.28c-0.333-0.68-0.765-1.303-1.283-1.853c-0.092-0.097-0.14-0.224-0.136-0.358
		s0.06-0.257,0.157-0.349c0.093-0.088,0.215-0.136,0.343-0.136c0.137,0,0.27,0.057,0.364,0.157c0.587,0.623,1.076,1.329,1.453,2.099
		c0.121,0.248,0.018,0.547-0.229,0.669C18.852,12.482,18.776,12.5,18.7,12.5z"/>
	<path d="M15.442,9.037c-0.086,0-0.171-0.022-0.246-0.065c-0.327-0.185-0.671-0.347-1.023-0.482
		c-0.125-0.048-0.223-0.141-0.278-0.263c-0.054-0.122-0.058-0.258-0.01-0.383c0.073-0.192,0.261-0.321,0.467-0.321
		c0.061,0,0.122,0.011,0.179,0.033c0.399,0.153,0.788,0.337,1.157,0.546c0.116,0.066,0.2,0.173,0.235,0.302
		c0.036,0.129,0.019,0.264-0.047,0.38C15.788,8.94,15.621,9.037,15.442,9.037z"/>
</g>
</svg>
