<?xml version="1.0" encoding="utf-8"?>
<!-- Generator: Adobe Illustrator 22.1.0, SVG Export Plug-In . SVG Version: 6.00 Build 0)  -->
<svg version="1.1" id="Layer_1" xmlns="http://www.w3.org/2000/svg" xmlns:xlink="http://www.w3.org/1999/xlink" x="0px" y="0px"
	 viewBox="0 0 24 24" style="enable-background:new 0 0 24 24;" xml:space="preserve">
<g>
	<title>3d-print-triangle-1</title>
	<path d="M2.5,21C1.121,21,0,19.878,0,18.5v-16C0,1.121,1.121,0,2.5,0h16C19.878,0,21,1.121,21,2.5v10c0,0.276-0.224,0.5-0.5,0.5
		S20,12.776,20,12.5V7h-6c-0.276,0-0.5-0.224-0.5-0.5S13.724,6,14,6h6V2.5C20,1.673,19.327,1,18.5,1H15v2.5
		C15,4.327,14.327,5,13.5,5h-3.088C10.47,5.16,10.5,5.328,10.5,5.5V7c0,0.09-0.025,0.179-0.071,0.257l-1.5,2.5
		C8.839,9.907,8.675,10,8.5,10S8.161,9.907,8.071,9.757l-1.5-2.5C6.525,7.179,6.5,7.09,6.5,7V5.5C6.5,4.673,7.173,4,8,4h5.5
		C13.776,4,14,3.776,14,3.5V1H2.5C1.673,1,1,1.673,1,2.5V6h4c0.276,0,0.5,0.224,0.5,0.5S5.276,7,5,7H1v11.5
		C1,19.327,1.673,20,2.5,20h9c0.276,0,0.5,0.224,0.5,0.5S11.776,21,11.5,21H2.5z M8.5,8.528l1-1.667V5.5C9.5,5.224,9.276,5,9,5H8
		C7.724,5,7.5,5.224,7.5,5.5v1.362L8.5,8.528z"/>
	<path d="M6.5,11.25c-0.134,0-0.259-0.052-0.354-0.146l-0.75-0.75C5.302,10.259,5.25,10.134,5.25,10s0.052-0.259,0.146-0.354
		S5.616,9.5,5.75,9.5s0.259,0.052,0.354,0.146l0.75,0.75C6.948,10.491,7,10.616,7,10.75s-0.052,0.259-0.146,0.354
		S6.634,11.25,6.5,11.25z"/>
	<path d="M4.5,12.75c-0.276,0-0.5-0.224-0.5-0.5c0-0.276,0.224-0.5,0.5-0.5h1c0.276,0,0.5,0.224,0.5,0.5c0,0.276-0.224,0.5-0.5,0.5
		H4.5z"/>
	<path d="M10.5,11.25c-0.134,0-0.259-0.052-0.354-0.146S10,10.884,10,10.75s0.052-0.259,0.146-0.354l0.75-0.75
		C10.991,9.552,11.116,9.5,11.25,9.5s0.259,0.052,0.354,0.146S11.75,9.866,11.75,10s-0.052,0.259-0.146,0.354l-0.75,0.75
		C10.759,11.198,10.634,11.25,10.5,11.25z"/>
	<path d="M11.5,12.75c-0.276,0-0.5-0.224-0.5-0.5c0-0.276,0.224-0.5,0.5-0.5h1c0.276,0,0.5,0.224,0.5,0.5c0,0.276-0.224,0.5-0.5,0.5
		H11.5z"/>
	<path d="M5.375,17c-0.182,0-0.349-0.099-0.437-0.258c-0.088-0.158-0.083-0.353,0.013-0.507l3.125-5
		c0.089-0.142,0.248-0.227,0.424-0.227s0.335,0.085,0.424,0.227l3.125,5c0.096,0.155,0.101,0.349,0.013,0.508
		C11.974,16.901,11.807,17,11.625,17H5.375z M10.723,16L8.5,12.443L6.277,16H10.723z"/>
	<path d="M4,19c-0.276,0-0.5-0.224-0.5-0.5S3.724,18,4,18h7.5c0.276,0,0.5,0.224,0.5,0.5S11.776,19,11.5,19H4z"/>
	<path d="M20.5,24c-0.276,0-0.5-0.224-0.5-0.5v-6c0-0.276,0.224-0.5,0.5-0.5c1.93,0,3.5,1.57,3.5,3.5S22.43,24,20.5,24z M21,22.949
		c1.141-0.235,2-1.261,2-2.449s-0.859-2.215-2-2.449V22.949z"/>
	<path d="M15,24c-0.276,0-0.5-0.224-0.5-0.5S14.724,23,15,23h1.5c0.552,0,1-0.448,1-1s-0.448-1-1-1H16c-0.276,0-0.5-0.224-0.5-0.5
		S15.724,20,16,20h0.5c0.552,0,1-0.448,1-1s-0.448-1-1-1H15c-0.276,0-0.5-0.224-0.5-0.5S14.724,17,15,17h1.5c1.103,0,2,0.897,2,2
		c0,0.575-0.253,1.123-0.679,1.5c0.426,0.377,0.679,0.925,0.679,1.5c0,1.103-0.897,2-2,2H15z"/>
</g>
</svg>
