<?xml version="1.0" encoding="utf-8"?>
<!-- Generator: Adobe Illustrator 22.1.0, SVG Export Plug-In . SVG Version: 6.00 Build 0)  -->
<svg version="1.1" id="Layer_1" xmlns="http://www.w3.org/2000/svg" xmlns:xlink="http://www.w3.org/1999/xlink" x="0px" y="0px"
	 viewBox="0 0 24 24" style="enable-background:new 0 0 24 24;" xml:space="preserve">
<g>
	<title>hand-hold-3d-box</title>
	<path d="M0.5,24C0.224,24,0,23.776,0,23.5S0.224,23,0.5,23h17.464c-0.245-1.702-1.718-3-3.464-3h-8C6.224,20,6,19.776,6,19.5
		S6.224,19,6.5,19h2.95C9.215,17.859,8.188,17,7,17H2.5c-0.623,0.004-1.223,0.304-1.602,0.803C0.803,17.928,0.657,18,0.5,18
		c-0.11,0-0.215-0.035-0.302-0.102c-0.106-0.081-0.175-0.198-0.193-0.331c-0.018-0.132,0.017-0.264,0.098-0.37
		C0.667,16.454,1.562,16.006,2.496,16H7c1.738,0,3.216,1.3,3.461,3H14.5c2.481,0,4.5,2.019,4.5,4.5c0,0.276-0.224,0.5-0.5,0.5H0.5z"
		/>
	<path d="M17.5,17.5c-0.067,0-0.132-0.013-0.193-0.039l-5.999-2.5C11.121,14.884,11,14.702,11,14.5v-7
		c0-0.058,0.011-0.115,0.034-0.175c0.004-0.009,0.017-0.039,0.022-0.047c0.019-0.037,0.042-0.072,0.07-0.104
		c0.012-0.015,0.022-0.026,0.034-0.037c0.039-0.036,0.08-0.064,0.123-0.085c0.009-0.005,0.019-0.01,0.028-0.013L17,4.667V4.5
		C17,3.673,17.673,3,18.5,3h4C22.775,3,23,2.776,23,2.5S22.775,2,22.5,2h-8C13.673,2,13,1.327,13,0.5C13,0.224,13.224,0,13.5,0
		S14,0.224,14,0.5S14.224,1,14.5,1h8C23.327,1,24,1.673,24,2.5S23.327,4,22.5,4h-4C18.224,4,18,4.224,18,4.5v0.167l5.692,2.372
		c0.009,0.004,0.018,0.008,0.027,0.013c0.043,0.021,0.083,0.049,0.119,0.082c0.008,0.007,0.028,0.029,0.034,0.036
		c0.029,0.033,0.052,0.067,0.071,0.105c0.009,0.017,0.016,0.033,0.023,0.05C23.989,7.384,24,7.442,24,7.5v7
		c0,0.202-0.121,0.384-0.308,0.461l-5.998,2.499C17.632,17.487,17.567,17.5,17.5,17.5z M18,16.25l5-2.083V8.25l-5,2.083V16.25z
		 M17,16.25v-5.917L12,8.25v5.917L17,16.25z M17.5,9.458L22.2,7.5l-4.7-1.958L12.8,7.5L17.5,9.458z"/>
</g>
</svg>
