<?xml version="1.0" encoding="utf-8"?>
<!-- Generator: Adobe Illustrator 22.1.0, SVG Export Plug-In . SVG Version: 6.00 Build 0)  -->
<svg version="1.1" id="Light" xmlns="http://www.w3.org/2000/svg" xmlns:xlink="http://www.w3.org/1999/xlink" x="0px" y="0px"
	 viewBox="0 0 24 24" style="enable-background:new 0 0 24 24;" xml:space="preserve">
<g>
	<title>pollution-pm10</title>
	<path d="M2.453,22.848c-0.117,0-0.233-0.021-0.344-0.061c-0.251-0.092-0.451-0.275-0.563-0.518
		c-0.129-0.278-0.125-0.595,0.012-0.869l1.762-3.52c-2.053-1.686-3.26-4.163-3.32-6.83c0-2.653,1.256-5.142,3.537-7.012
		C5.803,2.179,8.809,1.155,12,1.155c6.617,0,12,4.433,12,9.883c-0.001,1.231-0.282,2.469-0.811,3.581
		c-0.083,0.173-0.26,0.285-0.452,0.285c-0.074,0-0.146-0.016-0.214-0.048c-0.25-0.119-0.356-0.418-0.237-0.667
		c0.466-0.979,0.713-2.068,0.714-3.152c0-4.898-4.935-8.882-11-8.882S1,6.14,1,11.038c0.056,2.499,1.241,4.797,3.25,6.3
		c0.194,0.145,0.256,0.408,0.147,0.624l-1.945,3.885l5.308-2.469c0.066-0.031,0.137-0.047,0.211-0.047
		c0.049,0,0.097,0.007,0.144,0.021c1.22,0.369,2.527,0.561,3.886,0.57c0.979,0,1.948-0.104,2.892-0.31
		c0.033-0.008,0.071-0.012,0.108-0.012c0.232,0,0.437,0.166,0.487,0.394c0.028,0.13,0.004,0.264-0.068,0.376
		c-0.072,0.113-0.184,0.19-0.314,0.219c-1.015,0.221-2.026,0.334-3.007,0.334l-0.135,0c-1.338,0-2.668-0.188-3.954-0.558
		l-5.137,2.389C2.74,22.816,2.599,22.848,2.453,22.848z"/>
	<path d="M17.5,22.404c-0.276,0-0.5-0.224-0.5-0.5s0.224-0.5,0.5-0.5H18v-4.004l-1.2,0.9c-0.088,0.065-0.191,0.1-0.3,0.1
		c-0.157,0-0.306-0.075-0.4-0.2c-0.08-0.106-0.114-0.238-0.095-0.37c0.019-0.132,0.088-0.25,0.195-0.33l1.2-0.9
		c0.172-0.129,0.385-0.2,0.6-0.2c0.552,0,1,0.448,1,1v4.004h0.5c0.276,0,0.5,0.224,0.5,0.5s-0.224,0.5-0.5,0.5H17.5z"/>
	<path d="M22,22.401c-1.103,0-2-0.897-2-2v-2c0-1.103,0.897-2,2-2s2,0.897,2,2v2C24,21.503,23.103,22.401,22,22.401z M22,17.401
		c-0.552,0-1,0.448-1,1v2c0,0.552,0.448,1,1,1s1-0.448,1-1v-2C23,17.849,22.552,17.401,22,17.401z"/>
	<path d="M16.5,15.404c-0.276,0-0.5-0.224-0.5-0.5V9.022l-1.053,2.106c-0.082,0.164-0.253,0.265-0.447,0.265
		s-0.365-0.102-0.447-0.265L13,9.022v5.882c0,0.276-0.224,0.5-0.5,0.5c-0.276,0-0.5-0.224-0.5-0.5v-8
		c0-0.233,0.158-0.433,0.385-0.487c0.037-0.009,0.076-0.014,0.115-0.014c0.188,0,0.363,0.109,0.447,0.277L14.5,9.786l1.553-3.106
		c0.085-0.171,0.256-0.276,0.447-0.276c0.039,0,0.078,0.005,0.116,0.014C16.842,6.471,17,6.671,17,6.904v8
		C17,15.18,16.776,15.404,16.5,15.404z"/>
	<path d="M6.5,15.404c-0.276,0-0.5-0.224-0.5-0.5V6.901c0-0.276,0.224-0.5,0.5-0.5h2c1.379,0,2.5,1.121,2.5,2.5s-1.121,2.5-2.5,2.5
		H7v3.504C7,15.18,6.776,15.404,6.5,15.404z M8.5,10.401c0.827,0,1.5-0.673,1.5-1.5s-0.673-1.5-1.5-1.5H7v3H8.5z"/>
</g>
</svg>
