<?xml version="1.0" encoding="utf-8"?>
<!-- Generator: Adobe Illustrator 22.1.0, SVG Export Plug-In . SVG Version: 6.00 Build 0)  -->
<svg version="1.1" id="Light" xmlns="http://www.w3.org/2000/svg" xmlns:xlink="http://www.w3.org/1999/xlink" x="0px" y="0px"
	 viewBox="0 0 24 24" style="enable-background:new 0 0 24 24;" xml:space="preserve">
<g>
	<title>pollution-fish</title>
	<path d="M6.474,23.052c-0.155,0-0.305-0.035-0.444-0.104c-0.21-0.105-0.377-0.281-0.471-0.495L4.43,19.878l-2.933-1.407
		c-0.24-0.114-0.422-0.315-0.511-0.567c-0.09-0.251-0.076-0.523,0.039-0.764c0.096-0.202,0.259-0.369,0.461-0.468l4.481-2.245
		c0.049-0.666,0.141-1.339,0.275-2.004l-2.411-2.406C3.552,9.738,3.463,9.32,3.604,8.953c0.379-0.997,1.978-4.245,6.713-4.441
		l0.006-0.007c3.194-3.194,7.243-3.538,8.836-3.538c1.491,0,2.775,0.28,3.195,0.697c0.001,0.001,0.002,0.002,0.002,0.002
		c1.021,1.024,1.313,6.404-1.55,10.51c-0.062,0.707-0.554,3.623-4.45,7.663c-0.188,0.193-0.439,0.3-0.706,0.303
		c-0.275,0-0.523-0.101-0.711-0.285l-2.286-2.306c-0.994,0.265-2.022,0.435-3.061,0.504L7.37,22.499
		C7.2,22.84,6.857,23.052,6.474,23.052z M1.931,17.568l3.099,1.489c0.108,0.052,0.194,0.141,0.242,0.25l1.203,2.745l2.189-4.377
		l-2.318-2.319L1.931,17.568z M15.635,19.14c2.08-2.153,3.121-3.964,3.642-5.202c-1.6,1.451-3.503,2.577-5.546,3.281L15.635,19.14z
		 M9.467,17.064c3.5-0.219,6.824-1.666,9.37-4.082c0.372-0.372,0.727-0.788,1.05-1.232c0.015-0.026,0.034-0.056,0.061-0.086
		c2.744-3.851,2.254-8.733,1.699-9.292c-0.172-0.17-1.062-0.423-2.423-0.423c-1.483,0-5.249,0.317-8.184,3.251
		c-2.391,2.542-3.84,5.861-4.083,9.352L9.467,17.064z M9.379,5.606c-3.376,0.53-4.552,2.942-4.841,3.703l1.975,1.973
		C7.085,9.226,8.066,7.282,9.379,5.606z"/>
	<path d="M18.576,6.96c-0.134,0-0.259-0.052-0.354-0.146l-0.896-0.896l-0.896,0.896c-0.094,0.094-0.22,0.146-0.354,0.146
		s-0.259-0.052-0.354-0.146s-0.146-0.22-0.146-0.354s0.052-0.259,0.146-0.354l0.896-0.896l-0.896-0.896
		c-0.094-0.094-0.146-0.22-0.146-0.354s0.052-0.259,0.146-0.354s0.22-0.146,0.354-0.146s0.259,0.052,0.354,0.146l0.896,0.896
		l0.896-0.896c0.094-0.094,0.22-0.146,0.354-0.146s0.259,0.052,0.354,0.146s0.146,0.22,0.146,0.354s-0.052,0.259-0.146,0.354
		L18.033,5.21l0.896,0.896c0.094,0.094,0.146,0.22,0.146,0.354s-0.052,0.259-0.146,0.354S18.709,6.96,18.576,6.96z"/>
</g>
</svg>
