<?xml version="1.0" encoding="utf-8"?>
<!-- Generator: Adobe Illustrator 22.1.0, SVG Export Plug-In . SVG Version: 6.00 Build 0)  -->
<svg version="1.1" id="Light" xmlns="http://www.w3.org/2000/svg" xmlns:xlink="http://www.w3.org/1999/xlink" x="0px" y="0px"
	 viewBox="0 0 24 24" style="enable-background:new 0 0 24 24;" xml:space="preserve">
<g>
	<title>pollution-skull</title>
	<path d="M9.5,17C8.673,17,8,16.327,8,15.5v-0.586C7.41,14.705,7,14.14,7,13.5v-4C7,8.121,8.121,7,9.5,7h5C15.878,7,17,8.121,17,9.5
		v4c0,0.64-0.41,1.205-1,1.414V15.5c0,0.827-0.673,1.5-1.5,1.5H9.5z M14.5,16c0.276,0,0.5-0.224,0.5-0.5v-1
		c0-0.276,0.224-0.5,0.5-0.5s0.5-0.224,0.5-0.5v-4C16,8.673,15.327,8,14.5,8h-5C8.673,8,8,8.673,8,9.5v4C8,13.776,8.224,14,8.5,14
		S9,14.224,9,14.5v1C9,15.776,9.224,16,9.5,16H10v-2c0-0.276,0.224-0.5,0.5-0.5S11,13.724,11,14v2h2v-2c0-0.276,0.224-0.5,0.5-0.5
		S14,13.724,14,14v2H14.5z"/>
	<path d="M10,11.75c-0.408,0-0.742-0.329-0.75-0.735c0-0.005,0-0.022,0-0.026c0.005-0.406,0.338-0.737,0.745-0.739
		c0,0,0.003,0,0.003,0c0.413,0,0.749,0.335,0.751,0.746c0,0.001,0,0.004,0,0.004C10.75,11.414,10.414,11.75,10,11.75z"/>
	<path d="M14,11.75c-0.412,0-0.748-0.335-0.75-0.747c0-0.415,0.334-0.751,0.745-0.753c0,0,0.003,0,0.003,0
		c0.201,0,0.388,0.077,0.53,0.217c0.142,0.142,0.221,0.329,0.222,0.529c0,0.001,0,0.003,0,0.004C14.75,11.414,14.414,11.75,14,11.75
		z"/>
	<path d="M12,24c-3.178,0-6.174-1.235-8.439-3.477c-0.013-0.009-0.03-0.021-0.046-0.037c-0.01-0.01-0.024-0.027-0.035-0.043
		C1.236,18.178,0,15.18,0,12c0-3.178,1.234-6.173,3.476-8.437c0.006-0.01,0.019-0.029,0.039-0.048
		c0.011-0.011,0.029-0.025,0.047-0.037C5.826,1.235,8.822,0,12,0c3.178,0,6.173,1.234,8.437,3.476
		c0.009,0.005,0.029,0.019,0.048,0.039c0.011,0.011,0.026,0.03,0.038,0.047C22.766,5.826,24,8.822,24,12
		c0,3.179-1.235,6.175-3.478,8.44c-0.006,0.009-0.019,0.027-0.037,0.046c-0.01,0.01-0.027,0.024-0.043,0.035
		C18.177,22.765,15.18,24,12,24z M4.59,20.118C6.625,21.979,9.246,23,12,23c2.754,0,5.375-1.021,7.41-2.882l-2.764-2.765
		C16.552,17.259,16.5,17.134,16.5,17s0.052-0.259,0.146-0.354S16.866,16.5,17,16.5s0.259,0.052,0.354,0.146l2.764,2.765
		C21.978,17.376,23,14.755,23,12c0-2.754-1.021-5.376-2.882-7.411l-2.764,2.764C17.259,7.448,17.134,7.5,17,7.5
		s-0.259-0.052-0.354-0.146S16.5,7.134,16.5,7s0.052-0.259,0.146-0.354l2.764-2.764C17.376,2.021,14.754,1,12,1
		C9.246,1,6.624,2.021,4.589,3.882l2.764,2.764C7.448,6.741,7.5,6.866,7.5,7S7.448,7.259,7.354,7.354S7.134,7.5,7,7.5
		S6.741,7.448,6.646,7.354L3.882,4.589C2.021,6.624,1,9.246,1,12c0,2.755,1.022,5.376,2.883,7.411l2.764-2.765
		C6.741,16.552,6.866,16.5,7,16.5s0.259,0.052,0.354,0.146S7.5,16.866,7.5,17s-0.052,0.259-0.146,0.354L4.59,20.118z"/>
</g>
</svg>
