<?xml version="1.0" encoding="utf-8"?>
<!-- Generator: Adobe Illustrator 22.1.0, SVG Export Plug-In . SVG Version: 6.00 Build 0)  -->
<svg version="1.1" id="Light" xmlns="http://www.w3.org/2000/svg" xmlns:xlink="http://www.w3.org/1999/xlink" x="0px" y="0px"
	 viewBox="0 0 24 24" style="enable-background:new 0 0 24 24;" xml:space="preserve">
<g>
	<title>pollution-o2-message</title>
	<path d="M1.363,23.124c-0.134,0-0.265-0.055-0.359-0.151C0.856,22.82,0.82,22.59,0.915,22.4l2.405-4.8
		c-2.052-1.686-3.259-4.164-3.32-6.83c0-2.653,1.256-5.142,3.537-7.012C5.803,1.9,8.809,0.876,12,0.876c6.617,0,12,4.433,12,9.882
		s-5.383,9.882-12,9.882c-1.37-0.003-2.711-0.191-3.989-0.559l-6.438,2.996C1.507,23.108,1.436,23.124,1.363,23.124z M12,1.876
		c-6.065,0-11,3.985-11,8.883c0.057,2.498,1.241,4.797,3.25,6.3c0.194,0.145,0.256,0.408,0.147,0.625l-1.945,3.882l5.308-2.47
		c0.065-0.031,0.136-0.047,0.21-0.047c0.049,0,0.097,0.007,0.144,0.021c1.251,0.379,2.547,0.571,3.853,0.571H12
		C18.066,19.64,23,15.656,23,10.758C23,5.86,18.066,1.876,12,1.876z"/>
	<path d="M14,16.124c-0.191,0-0.367-0.111-0.45-0.283c-0.083-0.173-0.059-0.38,0.06-0.529l1.688-2.11
		c0.131-0.163,0.202-0.368,0.203-0.578c0-0.275-0.224-0.5-0.5-0.5s-0.5,0.224-0.5,0.5s-0.224,0.5-0.5,0.5s-0.5-0.224-0.5-0.5
		c0-0.827,0.673-1.5,1.5-1.5s1.5,0.673,1.5,1.5c0,0.435-0.15,0.862-0.421,1.202l-1.038,1.298H16c0.276,0,0.5,0.224,0.5,0.5
		s-0.224,0.5-0.5,0.5H14z"/>
	<path d="M10.5,14.124c-1.379,0-2.5-1.122-2.5-2.5v-4c0-1.379,1.121-2.5,2.5-2.5s2.5,1.121,2.5,2.5v4
		C13,13.002,11.879,14.124,10.5,14.124z M10.5,6.124c-0.827,0-1.5,0.673-1.5,1.5v4c0,0.827,0.673,1.5,1.5,1.5s1.5-0.673,1.5-1.5v-4
		C12,6.797,11.328,6.124,10.5,6.124z"/>
</g>
</svg>
