<?xml version="1.0" encoding="utf-8"?>
<!-- Generator: Adobe Illustrator 22.1.0, SVG Export Plug-In . SVG Version: 6.00 Build 0)  -->
<svg version="1.1" id="Light" xmlns="http://www.w3.org/2000/svg" xmlns:xlink="http://www.w3.org/1999/xlink" x="0px" y="0px"
	 viewBox="0 0 24 24" style="enable-background:new 0 0 24 24;" xml:space="preserve">
<g>
	<title>beach-palm-water</title>
	<path d="M8.356,16.976c-0.131-0.009-0.253-0.07-0.34-0.171c-0.087-0.101-0.13-0.23-0.121-0.363
		c0.021-0.286,0.014-0.623,0.006-1.012c-0.032-1.524-0.079-3.826,1.404-7.47l0.384-0.942L9.675,7.006H9.449l-0.38,0.133L8.496,7.743
		c-1.639,1.725-2.685,4.327-3.2,7.955c-0.035,0.245-0.247,0.43-0.495,0.43c-0.023,0-0.047-0.001-0.071-0.005
		c-0.273-0.039-0.463-0.293-0.425-0.565c0.476-3.349,1.399-5.891,2.813-7.735L3.846,8.968C3.74,9.005,3.629,9.024,3.515,9.024l0,0
		c-0.042,0-0.084-0.003-0.126-0.008c-0.266-0.034-0.502-0.17-0.665-0.381c-0.163-0.211-0.234-0.474-0.2-0.739
		c0.35-1.548,1.419-2.792,2.864-3.35c0.558-0.274,1.192-0.442,1.84-0.488L4.684,1.829c-0.15-0.131-0.257-0.302-0.308-0.496
		C4.308,1.076,4.344,0.806,4.478,0.575c0.134-0.231,0.35-0.396,0.608-0.465c0.288-0.05,0.558-0.073,0.827-0.073
		c1.242,0,2.412,0.474,3.295,1.334c0.537,0.453,0.983,1.028,1.298,1.675c0.449-0.563,1.014-1.031,1.655-1.369
		c0.719-0.447,1.571-0.688,2.449-0.688c0.613,0,1.209,0.116,1.773,0.345c0.214,0.107,0.363,0.248,0.461,0.428
		c0.265,0.484,0.087,1.093-0.397,1.358l-3.653,2.005c0.594,0.285,1.134,0.682,1.583,1.167c1.111,1.03,1.64,2.566,1.403,4.094
		c-0.046,0.194-0.119,0.338-0.228,0.461c-0.19,0.216-0.464,0.34-0.752,0.34c-0.243,0-0.478-0.088-0.66-0.249l-3.658-3.22
		l-0.252,0.619c-1.405,3.453-1.36,5.63-1.33,7.071c0.009,0.416,0.016,0.773-0.008,1.105c-0.019,0.26-0.238,0.464-0.499,0.464
		C8.388,16.977,8.363,16.976,8.356,16.976z M14.801,10.187c0.178-1.162-0.244-2.363-1.132-3.188
		c-0.609-0.655-1.368-1.094-2.21-1.284c-0.201-0.046-0.356-0.214-0.385-0.418c-0.029-0.205,0.073-0.409,0.255-0.508l4.636-2.545
		c-0.412-0.167-0.873-0.256-1.347-0.256c-0.696,0-1.374,0.193-1.961,0.557c-0.801,0.424-1.428,1.056-1.828,1.837
		c-0.086,0.168-0.256,0.272-0.444,0.272c-0.019,0-0.038-0.001-0.057-0.003C10.124,4.628,9.952,4.479,9.9,4.279
		c-0.221-0.851-0.693-1.6-1.365-2.168C7.817,1.412,6.891,1.034,5.914,1.034c-0.196,0-0.393,0.016-0.586,0.047l3.696,3.221
		c0.174,0.152,0.221,0.402,0.114,0.607C9.052,5.075,8.882,5.178,8.695,5.178c-0.041,0-0.081-0.005-0.12-0.015
		c-0.319-0.078-0.649-0.118-0.98-0.118c-0.624,0-1.249,0.144-1.807,0.416C4.64,5.907,3.804,6.856,3.521,8.015l5.678-1.981
		c0.054-0.019,0.109-0.028,0.165-0.028h0.5c0.122,0,0.239,0.044,0.33,0.125l0.435,0.384L14.801,10.187z"/>
	<path d="M1.182,20.098c-0.26,0-0.522-0.028-0.78-0.082c-0.27-0.058-0.443-0.323-0.385-0.593c0.048-0.23,0.254-0.396,0.489-0.396
		c0.035,0,0.07,0.004,0.104,0.011c0.185,0.039,0.376,0.059,0.566,0.059c1.865,0,3.377-1.882,3.392-1.901
		c0.094-0.119,0.239-0.191,0.388-0.191c0.005,0,0.025,0.001,0.031,0.001c0.154,0.006,0.302,0.09,0.391,0.223
		C6.097,18.315,7.303,19,8.603,19.063c1.282-0.032,2.475-0.714,3.174-1.823c0.091-0.144,0.247-0.231,0.417-0.233
		c0,0,0.001,0,0.001,0c0.174,0,0.33,0.086,0.421,0.223c0.719,1.086,1.926,1.771,3.226,1.833c1.282-0.031,2.476-0.713,3.174-1.823
		c0.092-0.146,0.25-0.234,0.423-0.234c0.174,0,0.332,0.088,0.424,0.235c0.011,0.017,1.176,1.816,2.965,1.816
		c0.188,0,0.38-0.02,0.569-0.059c0.034-0.007,0.068-0.01,0.101-0.01c0.236,0,0.442,0.167,0.49,0.398
		c0.056,0.271-0.118,0.536-0.388,0.592c-0.264,0.055-0.53,0.082-0.791,0.082c0,0,0,0,0,0c-1.624,0-2.794-1.061-3.364-1.719
		c-0.903,1.065-2.204,1.688-3.616,1.722c-1.411-0.067-2.709-0.691-3.622-1.725c-0.904,1.066-2.205,1.69-3.618,1.725
		c-1.435-0.068-2.749-0.71-3.664-1.774c-0.666,0.672-2.045,1.81-3.742,1.81H1.182z"/>
	<path d="M1.179,24.008c-0.262,0-0.526-0.028-0.783-0.082c-0.27-0.058-0.443-0.324-0.385-0.593c0.049-0.229,0.255-0.396,0.489-0.396
		c0.035,0,0.069,0.004,0.103,0.011c0.185,0.039,0.375,0.059,0.565,0.059c1.861,0,3.389-1.883,3.404-1.902
		c0.093-0.118,0.24-0.189,0.391-0.189c0.181,0.007,0.329,0.091,0.417,0.224c0.719,1.084,1.923,1.77,3.223,1.834
		c1.282-0.032,2.475-0.714,3.173-1.824c0.091-0.144,0.247-0.232,0.417-0.234c0.001,0,0.001,0,0.002,0
		c0.175,0,0.329,0.086,0.421,0.223c0.719,1.086,1.926,1.771,3.226,1.834c1.283-0.031,2.476-0.713,3.174-1.823
		c0.092-0.146,0.25-0.234,0.423-0.234c0.174,0,0.332,0.088,0.424,0.235c0.011,0.017,1.177,1.815,2.963,1.815
		c0.189,0,0.381-0.02,0.571-0.06c0.035-0.007,0.069-0.01,0.102-0.01c0.236,0,0.442,0.167,0.49,0.398
		c0.056,0.27-0.118,0.535-0.387,0.592c-0.265,0.055-0.532,0.083-0.793,0.083h0c-1.623,0-2.793-1.06-3.362-1.718
		c-0.903,1.065-2.204,1.689-3.616,1.722c-1.412-0.067-2.709-0.691-3.622-1.726c-0.904,1.066-2.205,1.691-3.618,1.726
		c-1.435-0.069-2.748-0.712-3.662-1.776C4.261,22.869,2.877,24.008,1.179,24.008z"/>
	<path d="M0.5,16.546c-0.144,0-0.281-0.062-0.376-0.171c-0.088-0.101-0.132-0.23-0.123-0.363s0.069-0.255,0.17-0.343
		c0.802-0.701,1.714-1.247,2.71-1.623c0.057-0.021,0.116-0.032,0.177-0.032c0.207,0,0.395,0.13,0.468,0.323
		c0.047,0.125,0.043,0.261-0.012,0.383c-0.055,0.122-0.154,0.215-0.279,0.262c-0.884,0.334-1.694,0.819-2.406,1.441
		C0.738,16.502,0.621,16.546,0.5,16.546z"/>
	<path d="M23.5,16.546c-0.128,0-0.249-0.048-0.342-0.135c-1.882-1.764-6.262-2.905-11.158-2.905c-0.423,0-0.85,0.009-1.27,0.026
		c-0.003,0-0.024,0.001-0.028,0.001c-0.265,0-0.481-0.211-0.492-0.48c-0.011-0.276,0.204-0.509,0.479-0.52
		c0.429-0.018,0.87-0.027,1.31-0.027c5.136,0,9.784,1.246,11.842,3.175c0.098,0.091,0.154,0.215,0.158,0.349
		s-0.044,0.26-0.135,0.358C23.77,16.489,23.637,16.546,23.5,16.546z"/>
</g>
</svg>
