<?xml version="1.0" encoding="utf-8"?>
<!-- Generator: Adobe Illustrator 22.1.0, SVG Export Plug-In . SVG Version: 6.00 Build 0)  -->
<svg version="1.1" id="Light" xmlns="http://www.w3.org/2000/svg" xmlns:xlink="http://www.w3.org/1999/xlink" x="0px" y="0px"
	 viewBox="0 0 24 24" style="enable-background:new 0 0 24 24;" xml:space="preserve">
<g>
	<title>beach-palm-sunbed</title>
	<path d="M7.5,24.003c-0.263,0-0.482-0.206-0.499-0.468l-0.16-2.531H3.257c-0.016,0.142-0.033,0.285-0.047,0.43l-0.212,2.118
		c-0.026,0.257-0.24,0.45-0.497,0.45c-0.015,0-0.031-0.001-0.047-0.002c-0.277-0.028-0.478-0.273-0.451-0.547l0.212-2.118
		c0.028-0.282,0.06-0.558,0.093-0.832c0-0.018,0.003-0.042,0.008-0.063c0.181-1.479,0.44-2.852,0.771-4.089
		C3.087,16.349,3.09,16.34,3.09,16.34c0.409-1.524,0.94-2.879,1.578-4.029c0.017-0.039,0.037-0.071,0.054-0.095
		c0.347-0.614,0.73-1.181,1.144-1.696l-4.453,2.027c-0.13,0.059-0.273,0.09-0.415,0.09c-0.021,0-0.043-0.001-0.065-0.002
		c-0.269-0.018-0.513-0.139-0.688-0.341c-0.176-0.201-0.262-0.459-0.244-0.725c0.001-0.018,0.003-0.036,0.007-0.054
		C0.355,9.534,1.74,7.86,3.623,7.148C4.548,6.727,5.547,6.5,6.496,6.5c0.239,0,0.472,0.014,0.698,0.042L1.929,1.93
		C1.514,1.566,1.473,0.933,1.837,0.518c0.109-0.124,0.248-0.22,0.402-0.277c0.016-0.006,0.033-0.011,0.05-0.016
		C2.749,0.108,3.223,0.048,3.7,0.048c1.516,0,2.996,0.611,4.061,1.676c0.978,0.856,1.699,1.943,2.032,3.048
		c0.578-0.874,1.431-1.644,2.457-2.207c0.896-0.573,1.957-0.88,3.052-0.88c0.898,0,1.792,0.212,2.586,0.614
		c0.018,0.009,0.034,0.018,0.049,0.028c0.135,0.087,0.25,0.211,0.33,0.355c0.129,0.234,0.158,0.505,0.084,0.762
		s-0.245,0.469-0.479,0.597L11.424,7.58c1.235,0.226,2.497,0.934,3.51,1.989c1.468,1.341,2.13,3.405,1.717,5.377
		c-0.003,0.016-0.008,0.034-0.013,0.051c-0.051,0.157-0.14,0.3-0.259,0.415c-0.188,0.179-0.433,0.278-0.692,0.278
		c-0.275,0-0.532-0.109-0.722-0.308l-5.093-5.315l-0.428,1c-1.268,2.96-1.832,6.223-1.631,9.437l0.188,2.968
		c0.017,0.275-0.192,0.513-0.467,0.531C7.527,24.002,7.505,24.003,7.5,24.003z M6.788,20.004c-0.036-1-0.003-2.007,0.099-3H3.949
		c-0.23,0.924-0.421,1.931-0.569,3H6.788z M7.014,16.004c0.152-1.01,0.376-2.017,0.669-3H5.427c-0.467,0.88-0.872,1.887-1.205,3
		H7.014z M15.684,14.688c0.317-1.611-0.235-3.294-1.448-4.403c-1.075-1.118-2.433-1.779-3.645-1.779
		c-0.224,0-0.44,0.024-0.641,0.071c-0.016,0.025-0.035,0.048-0.055,0.07L15.684,14.688z M8.008,12.004
		c0.163-0.465,0.337-0.912,0.516-1.331l0.596-1.39L8.957,9.114l-0.67,0.305l-0.933,0.937c-0.482,0.481-0.929,1.034-1.333,1.648
		H8.008z M6.495,7.508c-0.818,0-1.679,0.195-2.488,0.563c-1.561,0.591-2.703,1.952-3.005,3.565l7.675-3.494
		C8.138,7.731,7.378,7.508,6.495,7.508z M15.306,2.686c-0.908,0-1.789,0.255-2.546,0.739c-1.672,0.919-2.771,2.461-2.762,3.798
		l7.39-4.056C16.747,2.852,16.028,2.686,15.306,2.686z M8.931,6.734c0.299-1.301-0.436-3.038-1.854-4.28
		C6.179,1.557,4.952,1.048,3.699,1.048c-0.374,0-0.747,0.045-1.109,0.133L8.931,6.734z"/>
	<path d="M22.497,24.004c-0.19,0-0.362-0.106-0.447-0.276l-0.863-1.725h-7.381l-0.862,1.725c-0.085,0.171-0.257,0.276-0.448,0.276
		c-0.077,0-0.154-0.018-0.223-0.052c-0.247-0.124-0.348-0.425-0.224-0.671l0.639-1.277h-0.316c-0.439,0-0.833-0.293-0.958-0.714
		l-1.393-4.643c-0.079-0.264,0.071-0.543,0.335-0.623c0.048-0.014,0.095-0.021,0.144-0.021c0.223,0,0.415,0.143,0.479,0.356
		l0.494,1.645h3.525c0.276,0,0.5,0.224,0.5,0.5s-0.224,0.5-0.5,0.5h-3.225l0.599,1.999l11.128,0c0.276,0,0.5,0.224,0.5,0.5
		s-0.224,0.5-0.5,0.5h-1.194l0.639,1.277c0.123,0.247,0.023,0.548-0.224,0.671C22.651,23.986,22.574,24.004,22.497,24.004z"/>
</g>
</svg>
