<?xml version="1.0" encoding="utf-8"?>
<!-- Generator: Adobe Illustrator 22.1.0, SVG Export Plug-In . SVG Version: 6.00 Build 0)  -->
<svg version="1.1" id="Light" xmlns="http://www.w3.org/2000/svg" xmlns:xlink="http://www.w3.org/1999/xlink" x="0px" y="0px"
	 viewBox="0 0 24 24" style="enable-background:new 0 0 24 24;" xml:space="preserve">
<g>
	<title>beach-palm</title>
	<path d="M1.396,22.446c-0.061,0-0.122-0.006-0.182-0.017c-0.263-0.049-0.491-0.197-0.642-0.417
		c-0.151-0.22-0.208-0.486-0.159-0.749c0.356-1.935,2.485-3.432,5.706-4.017l4.89-8.897C8.513,9.635,6.1,9.82,4.035,9.82
		c-0.83,0-1.664-0.036-2.297-0.067C1.522,9.743,1.323,9.649,1.179,9.489S0.961,9.122,0.971,8.907
		c0.006-0.115,0.037-0.229,0.09-0.331C1.777,7.192,3.632,4.894,8.07,4.774L5.244,3.643C5.044,3.564,4.887,3.411,4.801,3.214
		c-0.086-0.198-0.09-0.417-0.011-0.618c0.072-0.181,0.206-0.33,0.378-0.42c0.806-0.417,1.655-0.629,2.525-0.629
		c0.977,0,1.953,0.28,2.823,0.808c0.784,0.477,1.42,1.119,1.831,1.842c0.419-0.738,1.073-1.39,1.883-1.872
		c0.857-0.509,1.816-0.779,2.773-0.779c0.909,0,1.795,0.231,2.633,0.687c0.155,0.083,0.276,0.22,0.343,0.385
		c0.075,0.189,0.072,0.395-0.008,0.58c-0.08,0.186-0.228,0.329-0.416,0.404L16.612,4.78c1.979,0.057,5.18,0.628,6.854,3.488
		c0.079,0.134,0.125,0.287,0.135,0.443c0.017,0.267-0.072,0.524-0.248,0.724c-0.177,0.2-0.421,0.32-0.688,0.336l-0.092,0.005
		c-1.063,0.062-2.163,0.127-3.231,0.127c-2.063,0-4.629-0.215-6.546-1.809L12.388,17.1c1.25,0.151,2.367,0.407,3.324,0.761
		c2.18,0.806,3.402,2.111,3.536,3.774c0.001,0.011,0.002,0.05,0.002,0.06c0,0.2-0.077,0.388-0.219,0.53
		c-0.142,0.142-0.33,0.22-0.531,0.22H1.396z M9.804,17.946c-5.731,0-8.111,1.885-8.408,3.5l16.82,0
		c-0.472-2.534-4.562-3.22-6.364-3.399c-0.016,0-0.033-0.002-0.049-0.006C11.129,17.978,10.464,17.946,9.804,17.946z M7.356,17.071
		c0.77-0.083,1.592-0.125,2.448-0.125c0.526,0,1.059,0.019,1.587,0.058l0.048-1.058h-1.09c-0.276,0-0.5-0.224-0.5-0.5
		s0.224-0.5,0.5-0.5h1.136l0.046-1h-0.681c-0.276,0-0.5-0.224-0.5-0.5s0.224-0.5,0.5-0.5h0.727l0.176-3.874L7.356,17.071z
		 M12.849,6.759c1.69,1.898,4.367,2.144,6.52,2.144c1.033,0,2.108-0.063,3.148-0.124l0.089-0.005
		c-1.197-2.041-3.364-2.709-4.971-2.909c-0.434-0.054-0.888-0.081-1.351-0.081c-1.209,0-2.477,0.191-3.435,0.514V6.759z M2.097,8.77
		c0.566,0.026,1.246,0.05,1.922,0.05c2.335,0,5.087-0.256,7.83-2.133V6.296c-0.954-0.324-2.167-0.508-3.363-0.508
		C4.557,5.788,2.825,7.547,2.097,8.77z M11.694,5.148c-0.272-0.732-0.889-1.446-1.698-1.938C9.286,2.778,8.489,2.549,7.693,2.549
		c-0.567,0-1.125,0.111-1.664,0.331L11.694,5.148z M17,2.549c-0.79,0-1.55,0.214-2.26,0.636c-0.825,0.49-1.457,1.213-1.736,1.961
		l5.663-2.266C18.127,2.661,17.568,2.549,17,2.549z"/>
</g>
</svg>
