<?xml version="1.0" encoding="utf-8"?>
<!-- Generator: Adobe Illustrator 22.1.0, SVG Export Plug-In . SVG Version: 6.00 Build 0)  -->
<svg version="1.1" id="Light" xmlns="http://www.w3.org/2000/svg" xmlns:xlink="http://www.w3.org/1999/xlink" x="0px" y="0px"
	 viewBox="0 0 24 24" style="enable-background:new 0 0 24 24;" xml:space="preserve">
<g>
	<title>beach-person-water-parasol</title>
	<path d="M12.001,12.008c-1.379,0-2.5-1.121-2.5-2.5s1.121-2.5,2.5-2.5s2.5,1.121,2.5,2.5S13.38,12.008,12.001,12.008z
		 M12.001,8.008c-0.827,0-1.5,0.673-1.5,1.5s0.673,1.5,1.5,1.5c0.827,0,1.5-0.673,1.5-1.5S12.828,8.008,12.001,8.008z"/>
	<path d="M1.186,24.008c-0.263,0-0.527-0.028-0.784-0.082c-0.27-0.058-0.442-0.324-0.385-0.593c0.048-0.229,0.255-0.396,0.49-0.396
		c0.033,0,0.067,0.003,0.101,0.01c0.188,0.04,0.378,0.06,0.569,0.06c0,0,0,0,0,0c1.863,0,3.376-1.881,3.391-1.9
		c0.094-0.119,0.239-0.191,0.388-0.191c0.006,0,0.027,0.001,0.033,0.001c0.152,0.006,0.3,0.089,0.389,0.223
		c0.719,1.086,1.924,1.771,3.225,1.833c1.362-0.071,2.647-0.749,3.502-1.861c0.095-0.123,0.243-0.195,0.397-0.195
		c0.008,0,0.037,0.001,0.044,0.002c0.171,0.015,0.32,0.115,0.399,0.267c0.562,1.079,1.667,1.764,2.885,1.787
		c1.294-0.031,2.49-0.712,3.188-1.822c0.092-0.146,0.25-0.234,0.423-0.234c0.173,0,0.332,0.088,0.424,0.234
		c0.011,0.017,1.178,1.815,2.963,1.815c0.189,0,0.381-0.02,0.571-0.06c0.033-0.007,0.069-0.011,0.104-0.011
		c0.234,0,0.439,0.167,0.488,0.398c0.027,0.13,0.002,0.264-0.071,0.376c-0.073,0.112-0.186,0.188-0.316,0.216
		c-0.266,0.055-0.534,0.084-0.797,0.084l0,0c-1.62,0-2.789-1.06-3.357-1.718c-0.904,1.065-2.205,1.688-3.616,1.722
		c-1.355-0.025-2.598-0.663-3.395-1.723c-1.01,1.026-2.389,1.649-3.833,1.722c-1.445-0.066-2.762-0.708-3.677-1.773
		C4.26,22.871,2.882,24.008,1.186,24.008z"/>
	<path d="M5.88,17.293c-0.022,0-0.044-0.001-0.066-0.004C5.54,17.252,5.347,17,5.384,16.727L6.938,5.049L0.944,4.367
		c-0.229-0.029-0.44-0.133-0.598-0.294C0.158,3.881,0.055,3.628,0.058,3.359C0.06,3.09,0.167,2.839,0.359,2.65
		C0.772,2.256,1.219,1.9,1.69,1.59c1.56-1.029,3.37-1.573,5.236-1.573c3.222,0,6.202,1.6,7.97,4.279
		c0.127,0.195,0.183,0.428,0.159,0.658c-0.055,0.513-0.485,0.9-1,0.9c-0.034,0-0.068-0.002-0.103-0.005
		c-0.003,0-6.019-0.685-6.019-0.685L6.375,16.859C6.342,17.106,6.129,17.293,5.88,17.293z M14.056,4.853
		c-1.577-2.405-4.244-3.837-7.129-3.837c-1.67,0-3.29,0.487-4.686,1.408C1.819,2.702,1.42,3.02,1.054,3.369
		c0,0,6.512,0.745,6.514,0.745L14.056,4.853z"/>
	<path d="M22.366,20.446c-0.085,0-0.171-0.007-0.256-0.02c-0.434-0.068-0.815-0.3-1.073-0.654c-0.008-0.011-0.015-0.021-0.022-0.032
		l-1.462-2.036c-0.109-0.083-0.244-0.128-0.382-0.128c-0.094,0-0.187,0.021-0.272,0.061l-2.92,2.418
		c-0.298,0.248-0.658,0.379-1.042,0.379c-0.053,0-0.106-0.003-0.159-0.008c-0.436-0.04-0.831-0.248-1.111-0.586
		c-0.08-0.096-0.149-0.203-0.206-0.315l-1.192-2.383l-2.394,2.732c-0.311,0.356-0.762,0.56-1.237,0.56
		c-0.398,0-0.782-0.144-1.081-0.406c-0.682-0.596-0.752-1.636-0.155-2.319l4-4.571c0.311-0.357,0.762-0.561,1.237-0.561
		c0.397,0,0.781,0.144,1.079,0.405c0.162,0.141,0.293,0.311,0.389,0.503l1.361,2.723l1.441-1.189
		c0.052-0.045,0.118-0.093,0.186-0.133c0.624-0.393,1.344-0.602,2.079-0.602c1.044,0,2.029,0.413,2.774,1.163
		c0.063,0.064,0.121,0.132,0.172,0.203l1.571,2.188c0.532,0.729,0.37,1.757-0.361,2.291C23.048,20.337,22.714,20.446,22.366,20.446z
		 M21.848,19.188c0.107,0.138,0.25,0.225,0.415,0.25c0.034,0.005,0.068,0.008,0.101,0.008c0.135,0,0.266-0.043,0.376-0.124
		c0.286-0.209,0.349-0.611,0.141-0.897l-1.573-2.191c-0.021-0.03-0.044-0.057-0.069-0.082c-0.554-0.558-1.287-0.865-2.063-0.865
		c-0.548,0-1.086,0.156-1.557,0.453c-0.027,0.016-0.045,0.03-0.062,0.044l-1.935,1.597c-0.089,0.074-0.202,0.114-0.319,0.114l0,0
		c-0.035,0-0.069-0.004-0.103-0.011c-0.15-0.032-0.275-0.129-0.344-0.265l-1.642-3.285c-0.038-0.076-0.089-0.142-0.152-0.197
		c-0.118-0.104-0.267-0.158-0.429-0.158l-0.04,0.001c-0.168,0.011-0.325,0.089-0.437,0.218l-4,4.572
		c-0.233,0.267-0.206,0.674,0.061,0.907c0.117,0.102,0.267,0.159,0.423,0.159c0.186,0,0.363-0.08,0.485-0.219l2.884-3.292
		c0.095-0.108,0.232-0.17,0.377-0.17c0.019,0,0.039,0.001,0.059,0.003c0.169,0.022,0.312,0.124,0.387,0.273l1.525,3.049
		c0.022,0.044,0.049,0.085,0.08,0.123c0.11,0.132,0.264,0.214,0.435,0.229c0.021,0.002,0.042,0.003,0.062,0.003
		c0.149,0,0.29-0.051,0.407-0.148l2.961-2.453c0.023-0.02,0.05-0.038,0.078-0.053c0.24-0.133,0.513-0.204,0.79-0.204
		c0.399,0,0.783,0.145,1.082,0.408c0.029,0.026,0.054,0.054,0.076,0.084l1.508,2.099C21.838,19.172,21.843,19.18,21.848,19.188z"/>
</g>
</svg>
