<?xml version="1.0" encoding="utf-8"?>
<!-- Generator: Adobe Illustrator 22.1.0, SVG Export Plug-In . SVG Version: 6.00 Build 0)  -->
<svg version="1.1" id="Light" xmlns="http://www.w3.org/2000/svg" xmlns:xlink="http://www.w3.org/1999/xlink" x="0px" y="0px"
	 viewBox="0 0 24 24" style="enable-background:new 0 0 24 24;" xml:space="preserve">
<g>
	<title>beach-palm-water-1</title>
	<path d="M15.82,19.411c-1.346-0.025-2.589-0.664-3.385-1.725c-0.351,0.357-0.744,0.671-1.172,0.935
		c-0.079,0.049-0.17,0.074-0.262,0.074c-0.175,0-0.334-0.089-0.426-0.238c-0.07-0.114-0.092-0.248-0.061-0.378
		c0.031-0.13,0.11-0.24,0.224-0.31c0.527-0.325,0.988-0.737,1.369-1.223c0.095-0.122,0.238-0.192,0.391-0.192
		c0.017,0,0.034,0.001,0.052,0.003c0.167,0.015,0.315,0.115,0.394,0.267c0.562,1.08,1.668,1.764,2.885,1.787
		c1.294-0.031,2.49-0.712,3.188-1.822c0.092-0.146,0.25-0.234,0.423-0.234c0.174,0,0.332,0.088,0.424,0.235
		c0.011,0.018,1.171,1.814,2.963,1.814c0.189,0,0.381-0.02,0.571-0.06c0.035-0.007,0.069-0.01,0.102-0.01
		c0.235,0,0.441,0.167,0.49,0.398c0.056,0.27-0.118,0.535-0.387,0.592c-0.266,0.055-0.534,0.083-0.796,0.083
		c-1.623,0-2.792-1.06-3.36-1.717c-0.903,1.064-2.204,1.688-3.615,1.721c-0.002,0-0.004,0-0.006,0
		C15.824,19.411,15.822,19.411,15.82,19.411z"/>
	<path d="M0.5,22.446c-0.276,0-0.5-0.224-0.5-0.5s0.224-0.5,0.5-0.5h2.1L7.423,7.529l-6.447,5.789
		c-0.092,0.083-0.211,0.128-0.334,0.128c-0.059,0-0.118-0.01-0.174-0.031c-0.175-0.065-0.298-0.219-0.322-0.404
		c-0.353-2.715,0.679-5.156,2.832-6.697c0.715-0.512,1.526-0.889,2.348-1.099L0.814,3.409C0.642,3.34,0.522,3.182,0.503,2.997
		c-0.019-0.185,0.065-0.365,0.22-0.468c0.965-0.644,2.045-0.984,3.122-0.984c0.883,0,1.742,0.22,2.554,0.655
		C7.297,2.68,8.04,3.393,8.5,4.201c0.46-0.807,1.203-1.52,2.101-2.001c0.812-0.435,1.671-0.655,2.554-0.655
		c1.077,0,2.157,0.34,3.123,0.984c0.155,0.104,0.24,0.283,0.22,0.468c-0.019,0.185-0.138,0.343-0.312,0.412L11.67,5.214
		c0.823,0.21,1.635,0.588,2.351,1.1c2.153,1.542,3.185,3.982,2.832,6.697c-0.024,0.185-0.147,0.34-0.322,0.404
		c-0.056,0.021-0.114,0.031-0.174,0.031c-0.123,0-0.242-0.045-0.334-0.128L9,7.01v14.436h14.5c0.276,0,0.5,0.224,0.5,0.5
		s-0.224,0.5-0.5,0.5H0.5z M8,21.446v-1.174H6.423c-0.276,0-0.5-0.224-0.5-0.5s0.224-0.5,0.5-0.5H8v-1H6.923
		c-0.276,0-0.5-0.224-0.5-0.5s0.224-0.5,0.5-0.5H8V8.916l-4.342,12.53H8z M6.786,6.018c-1.066,0-2.242,0.404-3.226,1.109
		c-1.586,1.136-2.455,2.81-2.481,4.755L7.53,6.088C7.294,6.042,7.046,6.018,6.786,6.018z M15.921,11.882
		c-0.026-1.945-0.895-3.619-2.481-4.755c-0.984-0.705-2.16-1.109-3.226-1.109c-0.26,0-0.508,0.024-0.744,0.07L15.921,11.882z
		 M13.153,2.547c-0.718,0-1.418,0.18-2.08,0.534c-0.917,0.491-1.62,1.252-1.918,2.055c0.01-0.002,0.02-0.004,0.029-0.006
		l5.633-2.251C14.277,2.659,13.719,2.547,13.153,2.547z M7.844,5.136c-0.298-0.802-1-1.563-1.917-2.054
		c-0.662-0.355-1.362-0.534-2.08-0.534c-0.566,0-1.124,0.111-1.665,0.332l5.609,2.245C7.809,5.128,7.826,5.132,7.844,5.136z"/>
</g>
</svg>
