<?xml version="1.0" encoding="utf-8"?>
<!-- Generator: Adobe Illustrator 22.1.0, SVG Export Plug-In . SVG Version: 6.00 Build 0)  -->
<svg version="1.1" id="Light" xmlns="http://www.w3.org/2000/svg" xmlns:xlink="http://www.w3.org/1999/xlink" x="0px" y="0px"
	 viewBox="0 0 24 24" style="enable-background:new 0 0 24 24;" xml:space="preserve">
<g>
	<title>weather-app-cloudy</title>
	<path d="M7,24c-1.379,0-2.5-1.122-2.5-2.5v-19C4.5,1.121,5.621,0,7,0h10c1.378,0,2.5,1.121,2.5,2.5v19c0,1.378-1.122,2.5-2.5,2.5H7
		z M5.5,21.5C5.5,22.327,6.173,23,7,23h10c0.827,0,1.5-0.673,1.5-1.5V20h-13V21.5z M18.5,19V2.5C18.5,1.673,17.827,1,17,1H7
		C6.173,1,5.5,1.673,5.5,2.5V19H18.5z"/>
	<path d="M11,22c-0.276,0-0.5-0.224-0.5-0.5S10.724,21,11,21h2c0.276,0,0.5,0.224,0.5,0.5S13.276,22,13,22H11z"/>
	<path d="M8.749,14c-1.147-0.013-2.102-0.879-2.223-2.016c-0.064-0.599,0.109-1.187,0.488-1.656C7.31,9.961,7.699,9.704,8.146,9.577
		c0.19-0.771,0.751-1.411,1.499-1.693c0.277-0.104,0.565-0.157,0.857-0.157c0.344,0,0.68,0.073,0.997,0.216
		c0.477,0.216,0.871,0.58,1.123,1.035c0.144,0.018,0.283,0.057,0.417,0.115c0.38,0.164,0.674,0.466,0.826,0.851
		c0.104,0.262,0.135,0.541,0.091,0.814c0.345,0.353,0.542,0.828,0.545,1.325c0.005,1.051-0.846,1.911-1.898,1.916
		c0,0-0.001,0-0.001,0H8.749z M10.501,8.728c-0.171,0-0.341,0.031-0.504,0.093C9.484,9.014,9.124,9.493,9.081,10.04
		c-0.019,0.24-0.207,0.432-0.446,0.458c-0.333,0.036-0.633,0.199-0.843,0.46c-0.211,0.261-0.307,0.588-0.272,0.921
		C7.588,12.511,8.118,12.993,8.754,13H12.6c0.498-0.002,0.902-0.411,0.9-0.911c-0.001-0.298-0.149-0.576-0.395-0.744
		c-0.197-0.135-0.271-0.392-0.177-0.611c0.058-0.135,0.061-0.285,0.006-0.421s-0.158-0.244-0.293-0.302
		c-0.069-0.03-0.143-0.045-0.219-0.045c-0.021,0-0.043,0.001-0.065,0.004c-0.02,0.002-0.039,0.003-0.057,0.003
		c-0.208,0-0.396-0.13-0.469-0.323c-0.134-0.356-0.399-0.638-0.746-0.795C10.9,8.77,10.703,8.728,10.501,8.728z"/>
	<path d="M16,14c-0.274,0-0.499-0.223-0.5-0.498c-0.001-0.276,0.222-0.501,0.498-0.502c0.242-0.001,0.47-0.097,0.64-0.269
		c0.17-0.172,0.263-0.4,0.262-0.643c-0.001-0.298-0.149-0.576-0.395-0.744c-0.197-0.135-0.271-0.392-0.177-0.611
		c0.058-0.135,0.06-0.284,0.006-0.421c-0.054-0.137-0.158-0.244-0.293-0.302c-0.068-0.029-0.144-0.045-0.219-0.045
		c-0.021,0-0.043,0.001-0.064,0.004C15.74,9.972,15.72,9.973,15.7,9.973c-0.206,0-0.393-0.129-0.467-0.32
		c-0.21-0.547-0.745-0.914-1.33-0.914c0,0-0.002,0-0.003,0c-0.275,0-0.5-0.224-0.5-0.499c0-0.27,0.223-0.495,0.498-0.501
		c0.879,0,1.694,0.482,2.121,1.239c0.145,0.018,0.286,0.057,0.421,0.115c0.38,0.164,0.673,0.466,0.826,0.851
		c0.104,0.262,0.135,0.541,0.091,0.815c0.345,0.353,0.542,0.828,0.544,1.325c0.002,0.509-0.193,0.989-0.552,1.351
		c-0.358,0.362-0.836,0.562-1.346,0.565c0,0-0.001,0-0.001,0H16z"/>
</g>
</svg>
