<?xml version="1.0" encoding="utf-8"?>
<!-- Generator: Adobe Illustrator 22.1.0, SVG Export Plug-In . SVG Version: 6.00 Build 0)  -->
<svg version="1.1" id="Light" xmlns="http://www.w3.org/2000/svg" xmlns:xlink="http://www.w3.org/1999/xlink" x="0px" y="0px"
	 viewBox="0 0 24 24" style="enable-background:new 0 0 24 24;" xml:space="preserve">
<g>
	<title>weather-app-rain</title>
	<path d="M8.228,12.716c-0.089,0-0.176-0.024-0.252-0.069c-0.834-0.486-1.381-1.352-1.463-2.315C6.387,8.85,7.394,7.501,8.828,7.183
		c0.233-1.057,0.962-1.915,1.98-2.317c0.385-0.152,0.788-0.229,1.196-0.229c0.445,0,0.88,0.091,1.293,0.27
		c0.681,0.295,1.238,0.812,1.582,1.464c0.226,0.014,0.453,0.068,0.663,0.158c0.488,0.21,0.866,0.597,1.062,1.09
		c0.148,0.37,0.182,0.763,0.1,1.146c0.098,0.09,0.188,0.188,0.27,0.293c0.406,0.519,0.586,1.166,0.507,1.821
		c-0.08,0.655-0.41,1.24-0.93,1.646c-0.088,0.069-0.197,0.106-0.308,0.106c-0.155,0-0.299-0.07-0.394-0.192
		c-0.169-0.217-0.131-0.532,0.086-0.702c0.309-0.242,0.506-0.59,0.553-0.98c0.047-0.39-0.06-0.775-0.302-1.084
		c-0.096-0.123-0.21-0.229-0.339-0.315c-0.2-0.134-0.276-0.392-0.181-0.613c0.104-0.243,0.108-0.511,0.01-0.757
		c-0.098-0.245-0.286-0.438-0.528-0.542c-0.124-0.053-0.255-0.08-0.391-0.08c-0.043,0-0.086,0.003-0.129,0.008
		c-0.023,0.003-0.042,0.004-0.061,0.004c-0.206,0-0.394-0.127-0.469-0.316c-0.221-0.559-0.647-1-1.199-1.239
		c-0.287-0.124-0.588-0.187-0.895-0.187c-0.283,0-0.562,0.054-0.829,0.159c-0.789,0.312-1.331,1.03-1.414,1.874
		C9.738,7.91,9.547,8.099,9.306,8.119c-1.083,0.092-1.889,1.047-1.797,2.129c0.054,0.639,0.417,1.213,0.971,1.536
		c0.115,0.067,0.198,0.175,0.232,0.304c0.034,0.129,0.016,0.264-0.052,0.379C8.571,12.621,8.405,12.716,8.228,12.716z"/>
	<path d="M9.5,14.5c-0.049,0-0.098-0.007-0.145-0.021c-0.127-0.038-0.232-0.125-0.296-0.242c-0.063-0.118-0.077-0.253-0.038-0.381
		l0.549-1.817c0.064-0.213,0.256-0.355,0.479-0.355c0.049,0,0.097,0.007,0.144,0.021c0.128,0.039,0.233,0.125,0.296,0.243
		c0.063,0.118,0.077,0.253,0.038,0.381l-0.549,1.817C9.915,14.357,9.722,14.5,9.5,14.5z"/>
	<path d="M11.9,14.5c-0.049,0-0.098-0.007-0.145-0.021c-0.127-0.038-0.232-0.125-0.296-0.242c-0.063-0.118-0.077-0.253-0.038-0.381
		l0.549-1.817c0.064-0.213,0.256-0.355,0.478-0.355c0.049,0,0.098,0.007,0.145,0.021c0.128,0.038,0.233,0.125,0.296,0.242
		c0.063,0.118,0.077,0.253,0.038,0.381l-0.549,1.817C12.314,14.357,12.122,14.5,11.9,14.5z"/>
	<path d="M14,14.5c-0.049,0-0.098-0.007-0.145-0.021c-0.127-0.038-0.233-0.125-0.296-0.242c-0.063-0.118-0.077-0.253-0.038-0.381
		l0.549-1.817c0.064-0.213,0.257-0.355,0.478-0.355c0.049,0,0.098,0.007,0.145,0.021c0.128,0.038,0.233,0.125,0.296,0.242
		c0.063,0.118,0.077,0.253,0.038,0.381l-0.549,1.817C14.414,14.357,14.222,14.5,14,14.5z"/>
	<path d="M7,24c-1.379,0-2.5-1.122-2.5-2.5v-19C4.5,1.121,5.621,0,7,0h10c1.378,0,2.5,1.121,2.5,2.5v19c0,1.378-1.122,2.5-2.5,2.5H7
		z M5.5,21.5C5.5,22.327,6.173,23,7,23h10c0.827,0,1.5-0.673,1.5-1.5V20h-13V21.5z M18.5,19V2.5C18.5,1.673,17.827,1,17,1H7
		C6.173,1,5.5,1.673,5.5,2.5V19H18.5z"/>
	<path d="M11,22c-0.276,0-0.5-0.224-0.5-0.5S10.724,21,11,21h2c0.276,0,0.5,0.224,0.5,0.5S13.276,22,13,22H11z"/>
</g>
</svg>
