<?xml version="1.0" encoding="utf-8"?>
<!-- Generator: Adobe Illustrator 22.1.0, SVG Export Plug-In . SVG Version: 6.00 Build 0)  -->
<svg version="1.1" id="Light" xmlns="http://www.w3.org/2000/svg" xmlns:xlink="http://www.w3.org/1999/xlink" x="0px" y="0px"
	 viewBox="0 0 24 24" style="enable-background:new 0 0 24 24;" xml:space="preserve">
<g>
	<title>weather-app-sun-location</title>
	<path d="M20,23.5c-0.134,0-0.259-0.052-0.354-0.146c-1.307-1.306-3.146-4.162-3.146-6.418c-0.002-0.07-0.001-0.153,0.003-0.235
		c0.043-0.897,0.433-1.724,1.098-2.329c0.621-0.564,1.424-0.874,2.263-0.874c0.048,0,0.097,0.001,0.145,0.003
		c0.036-0.002,0.079-0.003,0.125-0.003c0.03,0,0.06,0,0.091,0.001c0.898,0.024,1.733,0.395,2.351,1.047
		c0.618,0.651,0.946,1.503,0.923,2.4c-0.002,3.03-2.409,5.672-3.146,6.409C20.259,23.448,20.133,23.5,20,23.5z M19.88,14.497
		c-0.608,0-1.164,0.212-1.606,0.615c-0.467,0.425-0.741,1.006-0.771,1.637c-0.003,0.058-0.004,0.116-0.002,0.175
		c0,1.859,1.435,4.132,2.503,5.349c0.771-0.85,2.497-3.013,2.497-5.336c0.017-0.644-0.214-1.244-0.648-1.702
		c-0.435-0.458-1.022-0.719-1.653-0.735l-0.062-0.001c-0.038,0-0.075,0.001-0.113,0.003C19.959,14.498,19.92,14.497,19.88,14.497z"
		/>
	<path d="M20,18.5c-0.827,0-1.5-0.673-1.5-1.5s0.673-1.5,1.5-1.5s1.5,0.673,1.5,1.5S20.827,18.5,20,18.5z M20,16.5
		c-0.276,0-0.5,0.224-0.5,0.5s0.224,0.5,0.5,0.5s0.5-0.224,0.5-0.5S20.275,16.5,20,16.5z"/>
	<path d="M12.005,19.505c-0.857,0-1.706-0.148-2.524-0.44c-1.887-0.673-3.399-2.04-4.257-3.85c-0.859-1.81-0.961-3.846-0.288-5.733
		c0.673-1.887,2.04-3.399,3.85-4.257c1.012-0.48,2.089-0.724,3.203-0.724c2.889,0,5.553,1.682,6.787,4.285
		C19.25,9.785,19.5,10.896,19.5,12c0,0.276-0.224,0.5-0.5,0.5s-0.5-0.224-0.5-0.5c0-0.957-0.217-1.92-0.627-2.784
		c-1.07-2.256-3.38-3.714-5.884-3.714c-0.965,0-1.898,0.211-2.775,0.627c-3.238,1.536-4.623,5.42-3.087,8.659
		c0.744,1.569,2.055,2.754,3.69,3.337c0.709,0.253,1.445,0.381,2.187,0.381c0.963,0,1.899-0.212,2.781-0.631
		c0.068-0.032,0.14-0.048,0.214-0.048c0.192,0,0.37,0.112,0.452,0.286c0.057,0.121,0.064,0.256,0.019,0.382
		c-0.045,0.126-0.136,0.227-0.257,0.284C14.196,19.26,13.117,19.505,12.005,19.505z"/>
	<path d="M12,3.5c-0.276,0-0.5-0.224-0.5-0.5V1c0-0.276,0.224-0.5,0.5-0.5s0.5,0.224,0.5,0.5v2C12.5,3.276,12.276,3.5,12,3.5z"/>
	<path d="M12,23.5c-0.276,0-0.5-0.224-0.5-0.5v-2c0-0.276,0.224-0.5,0.5-0.5s0.5,0.224,0.5,0.5v2C12.5,23.276,12.276,23.5,12,23.5z"
		/>
	<path d="M5.636,6.136c-0.134,0-0.259-0.052-0.354-0.146L3.869,4.576c-0.195-0.195-0.195-0.512,0-0.707
		c0.094-0.094,0.22-0.146,0.354-0.146s0.259,0.052,0.354,0.146l1.414,1.414c0.195,0.195,0.195,0.512,0,0.707
		C5.895,6.084,5.77,6.136,5.636,6.136z"/>
	<path d="M1,12.5c-0.276,0-0.5-0.224-0.5-0.5c0-0.276,0.224-0.5,0.5-0.5h2c0.276,0,0.5,0.224,0.5,0.5c0,0.276-0.224,0.5-0.5,0.5H1z"
		/>
	<path d="M21,12.5c-0.276,0-0.5-0.224-0.5-0.5c0-0.276,0.224-0.5,0.5-0.5h2c0.276,0,0.5,0.224,0.5,0.5c0,0.276-0.224,0.5-0.5,0.5H21
		z"/>
	<path d="M4.222,20.278c-0.134,0-0.259-0.052-0.354-0.146c-0.195-0.195-0.195-0.512,0-0.707l1.414-1.414
		c0.094-0.094,0.22-0.146,0.354-0.146s0.259,0.052,0.354,0.146c0.195,0.195,0.195,0.512,0,0.707l-1.414,1.414
		C4.481,20.226,4.356,20.278,4.222,20.278z"/>
	<path d="M18.364,6.136c-0.134,0-0.259-0.052-0.354-0.146c-0.195-0.195-0.195-0.512,0-0.707l1.414-1.414
		c0.094-0.094,0.22-0.146,0.354-0.146s0.259,0.052,0.354,0.146c0.195,0.195,0.195,0.512,0,0.707L18.717,5.99
		C18.623,6.084,18.497,6.136,18.364,6.136z"/>
</g>
</svg>
