<?xml version="1.0" encoding="utf-8"?>
<!-- Generator: Adobe Illustrator 22.1.0, SVG Export Plug-In . SVG Version: 6.00 Build 0)  -->
<svg version="1.1" id="Light" xmlns="http://www.w3.org/2000/svg" xmlns:xlink="http://www.w3.org/1999/xlink" x="0px" y="0px"
	 viewBox="0 0 24 24" style="enable-background:new 0 0 24 24;" xml:space="preserve">
<g>
	<title>weather-app-sun-coudy</title>
	<path d="M7,24c-1.379,0-2.5-1.122-2.5-2.5v-19C4.5,1.121,5.621,0,7,0h10c1.378,0,2.5,1.121,2.5,2.5v19c0,1.378-1.122,2.5-2.5,2.5H7
		z M5.5,21.5C5.5,22.327,6.173,23,7,23h10c0.827,0,1.5-0.673,1.5-1.5V20h-13V21.5z M18.5,19V2.5C18.5,1.673,17.827,1,17,1H7
		C6.173,1,5.5,1.673,5.5,2.5V19H18.5z"/>
	<path d="M11,22c-0.276,0-0.5-0.224-0.5-0.5S10.724,21,11,21h2c0.276,0,0.5,0.224,0.5,0.5S13.276,22,13,22H11z"/>
	<path d="M11.749,15c-1.147-0.013-2.102-0.879-2.223-2.016c-0.064-0.599,0.109-1.187,0.488-1.656
		c0.296-0.367,0.685-0.625,1.132-0.751c0.189-0.771,0.751-1.411,1.498-1.693c0.275-0.104,0.562-0.156,0.854-0.156
		c0.881,0,1.699,0.486,2.122,1.25c0.144,0.018,0.284,0.057,0.418,0.115c0.38,0.164,0.673,0.466,0.826,0.851
		c0.104,0.262,0.135,0.541,0.091,0.814c0.345,0.353,0.542,0.828,0.545,1.325c0.005,1.052-0.846,1.911-1.898,1.916
		c0,0-0.001,0-0.001,0H11.749z M13.501,9.728c-0.171,0-0.341,0.031-0.503,0.093c-0.514,0.194-0.873,0.672-0.917,1.219
		c-0.019,0.24-0.207,0.432-0.446,0.458c-0.333,0.036-0.633,0.199-0.843,0.46c-0.211,0.261-0.307,0.588-0.272,0.921
		c0.068,0.633,0.598,1.115,1.234,1.122H15.6c0.498-0.002,0.902-0.411,0.9-0.911c-0.001-0.298-0.149-0.576-0.395-0.744
		c-0.197-0.135-0.271-0.392-0.177-0.611c0.058-0.135,0.061-0.285,0.006-0.421s-0.158-0.244-0.293-0.302
		c-0.069-0.03-0.143-0.045-0.218-0.045c-0.021,0-0.043,0.001-0.065,0.004c-0.021,0.002-0.04,0.003-0.058,0.003
		c-0.208,0-0.396-0.13-0.469-0.323c-0.134-0.356-0.399-0.638-0.746-0.795C13.9,9.77,13.703,9.728,13.501,9.728z"/>
	<path d="M9.268,11c-0.178,0-0.344-0.096-0.433-0.25C8.146,9.556,8.557,8.024,9.75,7.335c0.378-0.218,0.811-0.334,1.25-0.334
		s0.871,0.115,1.25,0.334c0.239,0.138,0.321,0.444,0.183,0.683c-0.09,0.154-0.256,0.25-0.433,0.25c-0.087,0-0.173-0.023-0.249-0.067
		c-0.227-0.131-0.487-0.2-0.75-0.2s-0.523,0.069-0.75,0.2c-0.346,0.2-0.594,0.523-0.698,0.911S9.501,9.904,9.701,10.25
		c0.138,0.239,0.056,0.545-0.183,0.683C9.442,10.977,9.356,11,9.268,11z"/>
	<path d="M11,6.5c-0.276,0-0.5-0.224-0.5-0.5V5c0-0.276,0.224-0.5,0.5-0.5s0.5,0.224,0.5,0.5v1C11.5,6.276,11.276,6.5,11,6.5z"/>
	<path d="M8.525,7.525c-0.134,0-0.259-0.052-0.354-0.146L7.464,6.672c-0.195-0.195-0.195-0.512,0-0.707
		c0.094-0.094,0.22-0.146,0.354-0.146S8.077,5.87,8.172,5.964l0.707,0.707c0.094,0.094,0.146,0.22,0.146,0.354
		S8.973,7.284,8.879,7.379S8.659,7.525,8.525,7.525z"/>
	<path d="M7.818,13.182c-0.134,0-0.259-0.052-0.354-0.146s-0.146-0.22-0.146-0.354s0.052-0.259,0.146-0.354l0.707-0.707
		c0.094-0.094,0.22-0.146,0.354-0.146s0.259,0.052,0.354,0.146s0.146,0.22,0.146,0.354c0,0.134-0.052,0.259-0.147,0.354
		l-0.707,0.707C8.077,13.13,7.952,13.182,7.818,13.182z"/>
	<path d="M13.475,7.525c-0.134,0-0.259-0.052-0.354-0.146c-0.094-0.094-0.146-0.22-0.146-0.354c0-0.134,0.052-0.259,0.146-0.354
		l0.707-0.707c0.094-0.094,0.22-0.146,0.354-0.146s0.259,0.052,0.354,0.146c0.094,0.094,0.146,0.22,0.146,0.354
		c0,0.134-0.052,0.259-0.146,0.354l-0.707,0.707C13.734,7.473,13.609,7.525,13.475,7.525z"/>
	<path d="M6.5,10C6.224,10,6,9.776,6,9.5S6.224,9,6.5,9h1C7.776,9,8,9.224,8,9.5S7.776,10,7.5,10H6.5z"/>
</g>
</svg>
