<?xml version="1.0" encoding="utf-8"?>
<!-- Generator: Adobe Illustrator 22.1.0, SVG Export Plug-In . SVG Version: 6.00 Build 0)  -->
<svg version="1.1" id="Light" xmlns="http://www.w3.org/2000/svg" xmlns:xlink="http://www.w3.org/1999/xlink" x="0px" y="0px"
	 viewBox="0 0 24 24" style="enable-background:new 0 0 24 24;" xml:space="preserve">
<g>
	<title>seafood-fish</title>
	<path d="M5.484,24.003c-0.252,0-0.495-0.058-0.723-0.172C4.422,23.662,4.151,23.377,4,23.03l-0.8-1.932l-2.276-1.085
		c-0.807-0.386-1.149-1.356-0.763-2.162c0.155-0.323,0.417-0.59,0.738-0.75l4.037-2.019c0.055-0.766,0.161-1.541,0.317-2.306
		l-2.48-2.481C2.31,9.831,2.171,9.14,2.419,8.533c1.636-3.978,5.619-4.521,7.376-4.558L9.808,3.96
		c3.571-3.571,8.084-3.956,9.86-3.956c1.657,0,3.082,0.311,3.544,0.773c0.99,0.991,1.635,6.935-1.758,11.737
		c-0.069,0.741-0.593,3.836-4.555,8.109c-0.294,0.318-0.695,0.502-1.128,0.518c-0.021,0.001-0.042,0.001-0.063,0.001
		c-0.409,0-0.801-0.154-1.101-0.432c-0.015-0.014-0.033-0.031-0.051-0.049l-2.162-2.182c-1.131,0.304-2.302,0.497-3.485,0.573
		l-1.973,4.048c-0.195,0.391-0.529,0.68-0.939,0.817C5.83,23.975,5.657,24.003,5.484,24.003z M1.346,17.995
		c-0.123,0.062-0.224,0.164-0.283,0.287c-0.148,0.309-0.017,0.68,0.292,0.828l2.448,1.168c0.112,0.053,0.199,0.146,0.247,0.26
		l0.869,2.1c0.055,0.126,0.158,0.233,0.287,0.298c0.088,0.044,0.181,0.066,0.277,0.066c0.067,0,0.133-0.011,0.197-0.032
		c0.157-0.053,0.285-0.163,0.359-0.312l1.942-3.984L5.316,16.01L1.346,17.995z M15.293,19.983c0.107,0.099,0.261,0.16,0.417,0.16
		c0.19-0.007,0.343-0.077,0.456-0.199c2.196-2.368,3.269-4.342,3.792-5.67c-1.85,1.73-4.081,3.062-6.482,3.876L15.293,19.983z
		 M8.783,18.062c3.949-0.24,7.7-1.869,10.571-4.594c4.429-4.431,3.884-11.25,3.15-11.984c-0.204-0.204-1.198-0.492-2.766-0.492
		c-1.668,0-5.905,0.357-9.212,3.664c-2.698,2.868-4.33,6.613-4.599,10.552L8.783,18.062z M8.877,5.033
		c-3.568,0.385-4.993,2.568-5.533,3.88C3.249,9.144,3.303,9.41,3.48,9.588l2.043,2.044C6.176,9.23,7.326,6.968,8.877,5.033z"/>
	<path d="M16.482,6.681c-0.433,0-0.84-0.168-1.146-0.474c-0.306-0.306-0.475-0.713-0.475-1.146c0-0.433,0.168-0.84,0.475-1.146
		c0.306-0.306,0.713-0.474,1.146-0.474c0.433,0,0.84,0.168,1.146,0.474c0.306,0.306,0.475,0.713,0.475,1.146
		c0,0.433-0.168,0.84-0.475,1.146C17.323,6.513,16.916,6.681,16.482,6.681z M16.482,4.44c-0.166,0-0.322,0.064-0.439,0.181
		c-0.117,0.117-0.182,0.273-0.182,0.439c0,0.166,0.065,0.322,0.182,0.439c0.117,0.117,0.273,0.181,0.439,0.181
		s0.322-0.065,0.439-0.182c0.117-0.117,0.182-0.273,0.182-0.439c0-0.166-0.065-0.322-0.182-0.439
		C16.804,4.505,16.648,4.44,16.482,4.44z"/>
</g>
</svg>
