<?xml version="1.0" encoding="utf-8"?>
<!-- Generator: Adobe Illustrator 22.1.0, SVG Export Plug-In . SVG Version: 6.00 Build 0)  -->
<svg version="1.1" id="Light" xmlns="http://www.w3.org/2000/svg" xmlns:xlink="http://www.w3.org/1999/xlink" x="0px" y="0px"
	 viewBox="0 0 24 24" style="enable-background:new 0 0 24 24;" xml:space="preserve">
<g>
	<title>seafood-crab</title>
	<path d="M20.909,23.507c-0.167,0-0.322-0.082-0.415-0.22c-0.019-0.027-1.901-2.75-4.261-2.817
		c-0.795,0.761-1.697,1.375-2.751,1.875c-0.197,0.095-0.42,0.146-0.643,0.148h-1.676c-0.225-0.001-0.449-0.053-0.649-0.15
		c-1.052-0.498-1.953-1.112-2.748-1.872c-2.365,0.074-4.243,2.79-4.261,2.818c-0.093,0.137-0.248,0.219-0.414,0.219
		c-0.1,0-0.197-0.03-0.28-0.086c-0.228-0.155-0.288-0.466-0.134-0.694c0.076-0.113,1.793-2.62,4.256-3.156
		c-0.337-0.411-0.654-0.862-0.962-1.367c-2.241,0.164-3.719,2.745-3.734,2.771c-0.088,0.158-0.255,0.257-0.437,0.257
		c-0.084,0-0.168-0.022-0.242-0.063c-0.241-0.134-0.328-0.439-0.195-0.68c0.065-0.118,1.56-2.762,4.079-3.225
		c-0.208-0.397-0.416-0.829-0.64-1.328c-2.244,0.224-3.862,2.76-3.878,2.786c-0.093,0.147-0.251,0.235-0.424,0.235
		c-0.094,0-0.186-0.026-0.265-0.076c-0.112-0.07-0.191-0.181-0.222-0.311c-0.03-0.13-0.008-0.264,0.063-0.377
		c0.074-0.117,1.757-2.762,4.311-3.208l-0.11-0.256c-0.148-0.345-0.296-0.69-0.449-1.033c-0.321-0.719-0.044-1.55,0.645-1.933
		c0.067-0.036,0.133-0.072,0.2-0.106C2.8,10.565,1.495,8.686,1.143,6.541C0.682,5.16,1.462,3.417,3.138,2.09
		c1.267-1.003,2.82-1.578,4.261-1.578c1.002,0,1.912,0.271,2.705,0.807c0.223,0.151,0.374,0.379,0.424,0.643
		c0.051,0.264-0.004,0.532-0.155,0.754c-0.104,0.154-0.249,0.276-0.418,0.353c-0.924,0.37-1.737,0.942-2.384,1.67
		c0.141,0.006,0.281,0.009,0.421,0.009c0.225,0,0.452-0.007,0.674-0.022l0.052-0.001c0.539,0,0.983,0.419,1.009,0.955
		c0.013,0.259-0.073,0.511-0.244,0.708c-1.183,1.37-3.193,2.29-5.001,2.29c-0.287,0-0.566-0.024-0.829-0.07
		C3.353,8.552,3.072,8.469,2.814,8.357c0.667,1.22,1.726,2.201,2.999,2.759c1.91-0.811,4.002-1.239,6.058-1.239l0.3,0
		c2.035,0,4.113,0.428,6.017,1.239c1.271-0.557,2.329-1.536,2.996-2.755c-0.256,0.11-0.535,0.192-0.834,0.245
		c-0.263,0.047-0.542,0.07-0.829,0.07c-1.808,0-3.818-0.92-5.001-2.29c-0.17-0.196-0.257-0.448-0.244-0.708
		c0.027-0.536,0.465-0.955,0.998-0.955c0.02,0,0.039,0.001,0.059,0.002c0.225,0.015,0.451,0.022,0.676,0.022
		c0.139,0,0.28-0.003,0.42-0.009c-0.646-0.727-1.454-1.297-2.363-1.661c-0.188-0.085-0.332-0.205-0.438-0.361
		c-0.151-0.223-0.205-0.49-0.155-0.755c0.051-0.264,0.201-0.492,0.424-0.643c0.793-0.536,1.703-0.807,2.705-0.807
		c1.44,0,2.992,0.574,4.259,1.575c1.698,1.343,2.477,3.103,1.99,4.491c-0.361,2.129-1.662,3.993-3.522,5.077
		c0.066,0.034,0.2,0.106,0.2,0.106c0.689,0.383,0.966,1.214,0.645,1.934c-0.159,0.355-0.312,0.713-0.466,1.072l-0.093,0.217
		c2.566,0.446,4.238,3.092,4.311,3.209c0.146,0.233,0.074,0.542-0.159,0.688c-0.081,0.05-0.172,0.076-0.265,0.076
		c-0.174,0-0.332-0.088-0.424-0.235c-0.017-0.026-1.638-2.562-3.88-2.787c-0.224,0.498-0.432,0.929-0.639,1.327
		c2.523,0.46,4.02,3.108,4.085,3.226c0.134,0.241,0.046,0.546-0.194,0.68c-0.074,0.041-0.158,0.063-0.243,0.063
		c-0.182,0-0.349-0.099-0.437-0.257c-0.014-0.026-1.498-2.608-3.74-2.771c-0.307,0.504-0.624,0.955-0.961,1.367
		c2.461,0.536,4.181,3.044,4.257,3.157c0.154,0.229,0.094,0.54-0.135,0.694C21.105,23.477,21.009,23.507,20.909,23.507z
		 M6.71,17.504c0.486,0.83,1.012,1.522,1.608,2.115c0.005,0.005,0.016,0.017,0.02,0.022c0.73,0.723,1.587,1.317,2.607,1.799
		c0.07,0.034,0.145,0.052,0.219,0.052h1.672c0.072,0,0.147-0.018,0.214-0.05c1.023-0.484,1.881-1.079,2.626-1.82
		c1.494-1.485,2.279-3.313,3.11-5.249c0.156-0.363,0.312-0.725,0.472-1.085c0.108-0.242,0.015-0.522-0.217-0.651
		c-2.116-1.151-4.512-1.76-6.925-1.76h-0.232c-2.416,0-4.813,0.609-6.932,1.762c-0.229,0.127-0.321,0.407-0.213,0.65
		c0.155,0.347,0.305,0.698,0.455,1.048l0.01,0.024c0.124,0.289,0.248,0.576,0.372,0.86c0.289,0.657,0.639,1.426,1.062,2.165
		C6.669,17.42,6.692,17.46,6.71,17.504z M15.279,5.723c0.986,1.153,2.736,1.952,4.253,1.952c0.225,0,0.441-0.018,0.643-0.054
		c0.594-0.105,1.374-0.423,1.72-1.339c0.366-0.968-0.3-2.338-1.656-3.41c-1.094-0.865-2.418-1.361-3.634-1.361
		c-0.801,0-1.525,0.214-2.15,0.636c1.362,0.555,2.521,1.499,3.343,2.736c0.096,0.145,0.111,0.327,0.038,0.485
		c-0.072,0.158-0.218,0.266-0.391,0.288c-0.475,0.06-0.958,0.091-1.437,0.091C15.765,5.747,15.52,5.739,15.279,5.723z M7.394,1.51
		c-1.216,0-2.541,0.497-3.635,1.363C2.384,3.962,1.736,5.299,2.109,6.281c0.347,0.917,1.127,1.235,1.721,1.34
		c0.201,0.036,0.417,0.054,0.641,0.054c1.518,0,3.269-0.799,4.257-1.943c-0.243,0.007-0.49,0.015-0.736,0.015
		c-0.479,0-0.963-0.031-1.438-0.091c-0.173-0.022-0.319-0.13-0.391-0.288C6.09,5.209,6.105,5.028,6.201,4.883
		c0.821-1.237,1.984-2.182,3.361-2.734C8.918,1.725,8.195,1.51,7.394,1.51z"/>
	<path d="M11.999,15.209c-0.276,0-0.5-0.224-0.5-0.5v-2.022c0-0.276,0.224-0.5,0.5-0.5c0.276,0,0.5,0.224,0.5,0.5v2.022
		C12.499,14.984,12.275,15.209,11.999,15.209z"/>
	<path d="M9.635,15.539c-0.193,0-0.37-0.113-0.452-0.287L8.32,13.424c-0.057-0.121-0.064-0.257-0.018-0.382s0.137-0.226,0.258-0.283
		c0.066-0.032,0.138-0.048,0.213-0.048c0.192,0,0.37,0.113,0.452,0.287l0.862,1.828c0.057,0.121,0.064,0.257,0.018,0.382
		s-0.137,0.226-0.258,0.283C9.781,15.523,9.709,15.539,9.635,15.539z"/>
	<path d="M14.364,15.539c-0.075,0-0.146-0.016-0.214-0.048c-0.248-0.117-0.355-0.416-0.238-0.665l0.862-1.828
		c0.082-0.174,0.259-0.287,0.452-0.287c0.074,0,0.147,0.016,0.214,0.049c0.248,0.117,0.355,0.416,0.238,0.665l-0.862,1.828
		C14.735,15.426,14.557,15.539,14.364,15.539z"/>
</g>
</svg>
