<?xml version="1.0" encoding="utf-8"?>
<!-- Generator: Adobe Illustrator 22.1.0, SVG Export Plug-In . SVG Version: 6.00 Build 0)  -->
<svg version="1.1" id="Light" xmlns="http://www.w3.org/2000/svg" xmlns:xlink="http://www.w3.org/1999/xlink" x="0px" y="0px"
	 viewBox="0 0 24 24" style="enable-background:new 0 0 24 24;" xml:space="preserve">
<g>
	<title>seafood-tuna</title>
	<path d="M9.315,23.811c-3.522,0-6.872-1.52-9.191-4.171c-0.109-0.124-0.149-0.294-0.108-0.454c0.041-0.16,0.158-0.289,0.314-0.345
		c0.647-0.235,1.327-0.436,2.021-0.597c0.055-0.024,0.114-0.037,0.176-0.04c0.937-0.208,1.886-0.34,2.82-0.392l10.645-0.001
		c0.007,0,0.031,0,0.038,0.001l6.47-0.001c0.827,0,1.5,0.673,1.5,1.5v1.357c0,0.401-0.156,0.777-0.439,1.061s-0.66,0.44-1.062,0.44
		c0,0,0,0,0,0c-0.065,0-0.131-0.004-0.196-0.013L16.5,21.383v1.429c0,0.552-0.448,1-1,1H9.315z M1.396,19.537
		c2.092,2.086,4.956,3.275,7.919,3.275H15.5v-1H11c-3.046-0.001-5.995-0.889-8.536-2.569C2.104,19.329,1.746,19.428,1.396,19.537z
		 M22.434,21.165c0.021,0.003,0.043,0.004,0.065,0.004c0.134,0,0.26-0.052,0.354-0.146C22.948,20.928,23,20.802,23,20.669v-1.357
		c0-0.276-0.224-0.5-0.5-0.5h-6v1.562L22.434,21.165z M3.92,18.961c2.159,1.211,4.592,1.849,7.08,1.85h4.5v-2H5.381
		C4.898,18.839,4.409,18.889,3.92,18.961z"/>
	<circle cx="18.25" cy="6.311" r="0.75"/>
	<path d="M13.712,10.071c-0.726,0-1.416-0.318-1.892-0.873l-1.729-2.012C9.941,7.009,9.881,6.779,9.926,6.553
		c0.039-0.196,0.152-0.366,0.318-0.477c0.124-0.083,0.268-0.127,0.417-0.127c0.048,0,0.097,0.005,0.146,0.014l4.291,0.858
		c0.27,0.054,0.446,0.318,0.392,0.588C15.444,7.642,15.237,7.811,15,7.811c-0.032,0-0.064-0.003-0.097-0.009l-3.579-0.716
		l1.256,1.46c0.286,0.334,0.699,0.525,1.134,0.525c0.123,0,0.246-0.015,0.366-0.045l0.8-0.2c0.038-0.01,0.08-0.015,0.122-0.015
		c0.229,0,0.428,0.156,0.484,0.379c0.033,0.129,0.013,0.264-0.056,0.378c-0.069,0.115-0.178,0.196-0.308,0.228l-0.8,0.2
		C14.121,10.046,13.916,10.071,13.712,10.071z"/>
	<path d="M7.846,15.108c-0.089,0-0.178-0.012-0.264-0.035c-0.258-0.07-0.473-0.237-0.605-0.469
		c-0.132-0.232-0.167-0.502-0.096-0.759l1.007-3.713L5.601,8.943C5.198,8.734,4.869,8.504,4.618,8.257L1.816,9.693
		C1.672,9.766,1.521,9.802,1.364,9.802c-0.104,0-0.207-0.016-0.306-0.048C0.804,9.672,0.597,9.496,0.475,9.258
		C0.352,9.021,0.33,8.75,0.412,8.495l0.57-1.711L0.311,3.761C0.25,3.471,0.317,3.174,0.494,2.942
		C0.656,2.73,0.891,2.594,1.156,2.558c0.045-0.006,0.089-0.009,0.134-0.009c0.221,0,0.43,0.071,0.606,0.206l3.222,2.483
		c1.137-0.846,3.057-1.426,4.76-1.426h0.232l0.716-2.865c0.063-0.257,0.224-0.476,0.452-0.615c0.157-0.095,0.335-0.146,0.517-0.146
		c0.081,0,0.161,0.01,0.24,0.029c0.141,0.034,0.276,0.101,0.39,0.193l4.25,3.403H23c0.289,0.003,0.56,0.128,0.747,0.341
		c0.176,0.2,0.263,0.458,0.246,0.724c-0.018,0.267-0.138,0.511-0.339,0.687l-2.019,1.731L23,8.388
		c0.132,0.105,0.236,0.244,0.3,0.401c0.102,0.247,0.101,0.519-0.002,0.765c-0.103,0.246-0.296,0.438-0.543,0.54l-6.373,2.274
		c-0.655,0.27-1.355,0.409-2.072,0.409c-0.757,0-1.492-0.154-2.188-0.458l-3.701,2.607C8.253,15.045,8.053,15.108,7.846,15.108z
		 M7.846,14.107l3.267-2.3l-2.317-1.204L7.846,14.107z M9.878,4.811c-2.333,0-4.606,1.128-4.832,2.052
		C4.921,7.377,5.628,7.831,6.061,8.056l6.07,3.154c0.674,0.371,1.426,0.565,2.179,0.565c0.588,0,1.165-0.115,1.714-0.341
		l6.346-2.264l-1.833-1.471c-0.117-0.093-0.185-0.233-0.188-0.382s0.061-0.291,0.174-0.388l2.473-2.121L9.878,4.811z M1.958,6.567
		c0.039,0.177,0.03,0.362-0.028,0.534L1.362,8.806l2.724-1.4C4.015,7.151,4.01,6.89,4.075,6.626c0.057-0.231,0.165-0.459,0.324-0.68
		l-3.11-2.397L1.958,6.567z M15.075,3.811l-3.278-2.625L11.14,3.811H15.075z"/>
</g>
</svg>
