<?xml version="1.0" encoding="utf-8"?>
<!-- Generator: Adobe Illustrator 22.1.0, SVG Export Plug-In . SVG Version: 6.00 Build 0)  -->
<svg version="1.1" id="Light" xmlns="http://www.w3.org/2000/svg" xmlns:xlink="http://www.w3.org/1999/xlink" x="0px" y="0px"
	 viewBox="0 0 24 24" style="enable-background:new 0 0 24 24;" xml:space="preserve">
<g>
	<title>seafood-sardine-can-1</title>
	<path d="M1.5,24C0.673,24,0,23.327,0,22.5v-21C0,0.673,0.673,0,1.5,0h14C16.327,0,17,0.673,17,1.5v8.551
		c0.973,0.2,1.749,0.976,1.949,1.949H19.5c0.276,0,0.5-0.224,0.5-0.5c0-0.827,0.673-1.5,1.5-1.5h1c0.827,0,1.5,0.673,1.5,1.5v3
		c0,0.827-0.673,1.5-1.5,1.5h-1c-0.276,0-0.5-0.224-0.5-0.5s0.224-0.5,0.5-0.5h1c0.276,0,0.5-0.224,0.5-0.5v-3
		c0-0.276-0.224-0.5-0.5-0.5h-1c-0.276,0-0.5,0.224-0.5,0.5c0,0.827-0.673,1.5-1.5,1.5h-0.551c-0.2,0.973-0.976,1.749-1.949,1.949
		V22.5c0,0.827-0.673,1.5-1.5,1.5H1.5z M1.5,1C1.224,1,1,1.224,1,1.5v21C1,22.776,1.224,23,1.5,23h14c0.276,0,0.5-0.224,0.5-0.5V15
		h-1v6c0,0.552-0.448,1-1,1H3c-0.551,0-1-0.448-1-1V3c0-0.551,0.449-1,1-1h11c0.552,0,1,0.449,1,1v7h1V1.5C16,1.224,15.776,1,15.5,1
		H1.5z M4.494,11C3.67,11.003,3,11.676,3,12.5V21h11v-6H6.491c-0.233-0.004-0.455-0.085-0.63-0.23
		c-0.425-0.352-0.484-0.984-0.132-1.408C5.9,13.126,6,12.816,6,12.5c0-0.817-0.665-1.49-1.482-1.5l-0.025-0.25L4.494,11z M6.5,11
		C6.822,11.428,7,11.951,7,12.5c0,0.535-0.167,1.045-0.482,1.477l-0.019,0.027L16.5,14c0.827,0,1.5-0.673,1.5-1.5S17.327,11,16.5,11
		H6.5z M5.5,4.136C4.064,5.33,3.156,7.068,2.999,8.934L3,10.502C3.428,10.178,3.951,10,4.5,10C4.501,10,8,10,8,10V8.9
		C7.846,7.064,6.938,5.332,5.5,4.136z M14,10V8.912c-0.156-1.845-1.064-3.582-2.5-4.776c-1.438,1.196-2.347,2.936-2.502,4.805L9,10
		H14z M5.5,3c0.108,0,0.211,0.034,0.298,0.098c1.221,0.908,2.162,2.16,2.703,3.58c0.541-1.421,1.481-2.674,2.701-3.58
		C11.289,3.034,11.392,3,11.5,3s0.211,0.034,0.298,0.098C12.704,3.772,13.452,4.626,14,5.605V3H3v2.604
		c0.548-0.979,1.296-1.833,2.202-2.506C5.289,3.034,5.392,3,5.5,3z"/>
	<circle cx="5.5" cy="6.75" r="0.75"/>
	<circle cx="11.5" cy="6.75" r="0.75"/>
</g>
</svg>
