<?xml version="1.0" encoding="utf-8"?>
<!-- Generator: Adobe Illustrator 22.1.0, SVG Export Plug-In . SVG Version: 6.00 Build 0)  -->
<svg version="1.1" id="Light" xmlns="http://www.w3.org/2000/svg" xmlns:xlink="http://www.w3.org/1999/xlink" x="0px" y="0px"
	 viewBox="0 0 24 24" style="enable-background:new 0 0 24 24;" xml:space="preserve">
<g>
	<title>board-game-deuce</title>
	<path d="M8.363,23.997c-0.668,0-1.296-0.26-1.768-0.731l-5.863-5.863c-0.974-0.975-0.974-2.561,0-3.535L13.871,0.731
		c0.472-0.472,1.1-0.732,1.767-0.732c0.667,0,1.295,0.26,1.768,0.732l5.862,5.862c0.974,0.975,0.974,2.56,0,3.535L10.131,23.266
		C9.659,23.737,9.031,23.997,8.363,23.997z M1.44,14.575c-0.585,0.585-0.585,1.536,0,2.121l5.863,5.863
		c0.283,0.282,0.659,0.438,1.061,0.438c0.401,0,0.778-0.156,1.06-0.438l6.215-6.215L7.655,8.36L1.44,14.575z M16.345,15.637
		l6.215-6.216c0.584-0.585,0.584-1.536,0-2.121l-5.862-5.862c-0.283-0.283-0.66-0.439-1.061-0.439s-0.777,0.156-1.06,0.439
		L8.362,7.653L16.345,15.637z"/>
	<path d="M8.159,13.628c-0.408,0-0.742-0.329-0.75-0.735c0-0.005,0-0.024,0-0.028c0.006-0.405,0.338-0.735,0.745-0.737
		c0,0,0.004,0,0.004,0c0.413,0,0.749,0.334,0.751,0.746c0,0.001,0,0.004,0,0.004C8.909,13.292,8.573,13.628,8.159,13.628z"/>
	<circle cx="4.828" cy="16.208" r="0.75"/>
	<circle cx="7.789" cy="19.169" r="0.75"/>
	<circle cx="11.12" cy="15.838" r="0.75"/>
	<path d="M13.343,8.448c-0.012,0-0.025-0.001-0.037-0.003c-0.389-0.018-0.704-0.336-0.715-0.728c0-0.007,0-0.032,0-0.039
		c0.011-0.386,0.312-0.7,0.696-0.727c0.018-0.003,0.037-0.005,0.052-0.005c0.413,0,0.749,0.334,0.751,0.745c0,0.001,0,0.005,0,0.006
		C14.092,8.11,13.757,8.447,13.343,8.448C13.344,8.448,13.343,8.448,13.343,8.448z"/>
	<circle cx="18.892" cy="8.066" r="0.75"/>
</g>
</svg>
