<?xml version="1.0" encoding="utf-8"?>
<!-- Generator: Adobe Illustrator 22.1.0, SVG Export Plug-In . SVG Version: 6.00 Build 0)  -->
<svg version="1.1" id="Light" xmlns="http://www.w3.org/2000/svg" xmlns:xlink="http://www.w3.org/1999/xlink" x="0px" y="0px"
	 viewBox="0 0 24 24" style="enable-background:new 0 0 24 24;" xml:space="preserve">
<g>
	<title>board-game-tic-tac-toe</title>
	<path d="M16.5,24c-0.276,0-0.5-0.224-0.5-0.5V17H8v6.5C8,23.776,7.776,24,7.5,24S7,23.776,7,23.5v-5.793l-1.556,1.556
		C5.804,19.769,6,20.377,6,21c0,1.654-1.346,3-3,3c-0.798,0-1.55-0.311-2.117-0.876c-0.002-0.002-0.005-0.004-0.007-0.007
		C0.311,22.551,0,21.799,0,21c0-1.654,1.346-3,3-3c0.623,0,1.231,0.196,1.737,0.556L6.293,17H0.5C0.224,17,0,16.776,0,16.5
		S0.224,16,0.5,16H7V8H0.5C0.224,8,0,7.776,0,7.5S0.224,7,0.5,7H7V0.5C7,0.224,7.224,0,7.5,0S8,0.224,8,0.5V7h8V0.5
		C16,0.224,16.224,0,16.5,0S17,0.224,17,0.5v5.793l1.556-1.556C18.196,4.231,18,3.623,18,3c0-1.654,1.346-3,3-3
		c0.796,0,1.545,0.309,2.112,0.871c0.006,0.006,0.012,0.012,0.018,0.018C23.691,1.455,24,2.204,24,3c0,1.654-1.346,3-3,3
		c-0.623,0-1.231-0.196-1.737-0.556L17.707,7H23.5C23.776,7,24,7.224,24,7.5S23.776,8,23.5,8H17v8h6.5c0.276,0,0.5,0.224,0.5,0.5
		S23.776,17,23.5,17H17v6.5C17,23.776,16.776,24,16.5,24z M1.985,22.722C2.292,22.905,2.638,23,3,23c1.103,0,2-0.897,2-2
		c0-0.362-0.095-0.708-0.278-1.015L1.985,22.722z M3,19c-1.103,0-2,0.897-2,2c0,0.362,0.095,0.708,0.278,1.015l2.737-2.737
		C3.708,19.095,3.362,19,3,19z M16,16V8.707l-1.556,1.556C14.804,10.769,15,11.378,15,12c0,1.654-1.346,3-3,3
		c-0.622,0-1.231-0.196-1.737-0.556L8.707,16H16z M8,15.293l1.556-1.556C9.196,13.231,9,12.623,9,12c0-1.654,1.346-3,3-3
		c0.623,0,1.231,0.196,1.737,0.556L15.293,8H8V15.293z M10.985,13.722C11.292,13.905,11.638,14,12,14c1.103,0,2-0.897,2-2
		c0-0.362-0.095-0.708-0.278-1.015L10.985,13.722z M12,10c-1.103,0-2,0.897-2,2c0,0.362,0.095,0.708,0.278,1.015l2.737-2.737
		C12.708,10.095,12.362,10,12,10z M19.985,4.722C20.292,4.905,20.638,5,21,5c1.103,0,2-0.897,2-2c0-0.362-0.095-0.708-0.278-1.015
		L19.985,4.722z M21,1c-1.103,0-2,0.897-2,2c0,0.362,0.095,0.708,0.278,1.015l2.737-2.737C21.708,1.095,21.362,1,21,1z"/>
	<path d="M14,6c-0.134,0-0.259-0.052-0.354-0.146L12,4.207l-1.646,1.646C10.259,5.948,10.134,6,10,6S9.741,5.948,9.646,5.854
		S9.5,5.634,9.5,5.5s0.052-0.259,0.146-0.354L11.293,3.5L9.646,1.854C9.552,1.759,9.5,1.634,9.5,1.5s0.052-0.259,0.146-0.354
		S9.866,1,10,1s0.259,0.052,0.354,0.146L12,2.793l1.646-1.646C13.741,1.052,13.866,1,14,1s0.259,0.052,0.354,0.146
		S14.5,1.366,14.5,1.5s-0.052,0.259-0.146,0.354L12.707,3.5l1.646,1.646C14.448,5.241,14.5,5.366,14.5,5.5s-0.052,0.259-0.146,0.354
		S14.134,6,14,6z"/>
	<path d="M5.5,14.5c-0.134,0-0.259-0.052-0.354-0.146L3.5,12.707l-1.646,1.646C1.759,14.448,1.634,14.5,1.5,14.5
		s-0.259-0.052-0.354-0.146S1,14.134,1,14s0.052-0.259,0.146-0.354L2.793,12l-1.646-1.646C1.052,10.259,1,10.134,1,10
		s0.052-0.259,0.146-0.354S1.366,9.5,1.5,9.5s0.259,0.052,0.354,0.146L3.5,11.293l1.646-1.646C5.241,9.552,5.366,9.5,5.5,9.5
		s0.259,0.052,0.354,0.146S6,9.866,6,10s-0.052,0.259-0.146,0.354L4.207,12l1.646,1.646C5.948,13.741,6,13.866,6,14
		s-0.052,0.259-0.146,0.354S5.634,14.5,5.5,14.5z"/>
	<path d="M22.5,23c-0.134,0-0.259-0.052-0.354-0.146L20.5,21.207l-1.646,1.646C18.759,22.948,18.634,23,18.5,23
		s-0.259-0.052-0.354-0.146S18,22.634,18,22.5s0.052-0.259,0.146-0.354l1.646-1.646l-1.646-1.646C18.052,18.759,18,18.634,18,18.5
		s0.052-0.259,0.146-0.354S18.366,18,18.5,18s0.259,0.052,0.354,0.146l1.646,1.646l1.646-1.646C22.241,18.052,22.366,18,22.5,18
		s0.259,0.052,0.354,0.146S23,18.366,23,18.5s-0.052,0.259-0.146,0.354L21.207,20.5l1.646,1.646C22.948,22.241,23,22.366,23,22.5
		s-0.052,0.259-0.146,0.354S22.634,23,22.5,23z"/>
	<path d="M3,6C1.346,6,0,4.654,0,3s1.346-3,3-3s3,1.346,3,3S4.654,6,3,6z M3,1C1.897,1,1,1.897,1,3s0.897,2,2,2s2-0.897,2-2
		S4.103,1,3,1z"/>
</g>
</svg>
