<?xml version="1.0" encoding="utf-8"?>
<!-- Generator: Adobe Illustrator 22.1.0, SVG Export Plug-In . SVG Version: 6.00 Build 0)  -->
<svg version="1.1" id="Light" xmlns="http://www.w3.org/2000/svg" xmlns:xlink="http://www.w3.org/1999/xlink" x="0px" y="0px"
	 viewBox="0 0 24 24" style="enable-background:new 0 0 24 24;" xml:space="preserve">
<g>
	<title>board-game-geometry</title>
	<path d="M6.5,24.002c-0.073,0-0.143-0.015-0.208-0.045c-0.131-0.06-0.229-0.174-0.271-0.311l-0.003-0.01
		c-0.042-0.047-0.08-0.098-0.112-0.151l-5.712-9.525c-0.022-0.037-0.043-0.078-0.062-0.123C0.047,13.744,0,13.625,0,13.502
		c0-0.087,0.024-0.172,0.07-0.249c0.01-0.051,0.024-0.101,0.041-0.149l3.82-10.501c0.018-0.049,0.041-0.097,0.071-0.149
		c0.016-0.161,0.109-0.305,0.249-0.386c0.075-0.043,0.16-0.065,0.246-0.065c0.012,0,0.024,0,0.036,0.001
		c0.055-0.02,0.111-0.036,0.165-0.045L15.62,0.06c0.057-0.01,0.114-0.015,0.17-0.015c0.004,0,0.009,0,0.013,0
		c0.064-0.028,0.132-0.043,0.202-0.043c0.076,0,0.15,0.017,0.218,0.052c0.102,0.051,0.182,0.136,0.229,0.24
		c0.046,0.04,0.088,0.084,0.125,0.132l7.155,9.066c0.029,0.036,0.055,0.076,0.08,0.121c0.082,0.065,0.14,0.152,0.169,0.253
		c0.036,0.128,0.019,0.263-0.044,0.377c-0.006,0.05-0.016,0.097-0.028,0.142l-3.336,11.436c-0.018,0.063-0.043,0.125-0.075,0.185
		c0,0.083-0.02,0.164-0.061,0.237c-0.088,0.159-0.256,0.257-0.437,0.257c-0.027,0-0.054-0.002-0.082-0.008
		c-0.063,0.02-0.128,0.034-0.193,0.042L6.874,23.964C6.837,23.968,6.8,23.97,6.764,23.97c-0.025,0-0.05-0.002-0.075-0.006
		C6.629,23.989,6.566,24.002,6.5,24.002z M6.815,22.814l7.513-3.339L4.311,14.466L6.815,22.814z M9.649,22.649l8.739-0.971
		l-2.913-1.618L9.649,22.649z M19.695,21.26l2.662-9.125l-6.083,7.224L19.695,21.26z M4.872,19.815l-1.744-5.813H1.386L4.872,19.815
		z M14.818,18.602L12.658,7.374L4.454,13.42L14.818,18.602z M15.793,18.378l6.85-8.135l-8.991-2.997L15.793,18.378z M3.043,13.002
		l0.61-6.711l-2.441,6.711H3.043z M4.098,12.44l7.929-5.843L4.933,3.258L4.098,12.44z M22.068,8.997l-5.973-7.568l-2.39,4.781
		L22.068,8.997z M12.771,5.841l2.339-4.677L6.144,2.723L12.771,5.841z"/>
</g>
</svg>
