<?xml version="1.0" encoding="utf-8"?>
<!-- Generator: Adobe Illustrator 22.1.0, SVG Export Plug-In . SVG Version: 6.00 Build 0)  -->
<svg version="1.1" id="Layer_1" xmlns="http://www.w3.org/2000/svg" xmlns:xlink="http://www.w3.org/1999/xlink" x="0px" y="0px"
	 viewBox="0 0 24 24" style="enable-background:new 0 0 24 24;" xml:space="preserve">
<g>
	<title>presentation-board-graph</title>
	<path d="M16.5,24c-0.134,0-0.26-0.052-0.354-0.147L11.86,19.56c-0.092-0.091-0.213-0.143-0.343-0.146c-0.005,0-0.019,0-0.021,0
		c-0.13,0.003-0.251,0.055-0.343,0.146l-4.3,4.293C6.758,23.948,6.633,24,6.5,24c-0.134,0-0.26-0.052-0.354-0.147
		c-0.194-0.195-0.194-0.512,0.001-0.707l4.3-4.293c0.158-0.158,0.348-0.277,0.557-0.351V16h-9.5c-0.827,0-1.5-0.673-1.5-1.5v-13
		c0-0.827,0.673-1.5,1.5-1.5h21c0.827,0,1.5,0.673,1.5,1.5v13c0,0.827-0.673,1.5-1.5,1.5h-10.5v2.5
		c0.212,0.074,0.404,0.194,0.563,0.354l4.287,4.293c0.195,0.195,0.194,0.512-0.001,0.707C16.759,23.948,16.634,24,16.5,24z
		 M1.004,14.5c0,0.276,0.224,0.5,0.5,0.5h21c0.276,0,0.5-0.224,0.5-0.5v-13c0-0.276-0.224-0.5-0.5-0.5h-21
		c-0.276,0-0.5,0.224-0.5,0.5V8h5.17L7.06,5.933c0.105-0.245,0.299-0.436,0.547-0.535C7.726,5.35,7.852,5.326,7.98,5.326
		c0.135,0,0.267,0.027,0.393,0.081C8.62,5.512,8.818,5.718,8.914,5.97l1.67,4.342l2.073-3.8c0.176-0.322,0.512-0.521,0.879-0.521
		c0.166,0,0.331,0.042,0.477,0.122c0.15,0.082,0.278,0.202,0.369,0.347l1.552,2.486l2.109-4.652C18.126,4.115,18.305,4,18.5,4
		c0.072,0,0.142,0.015,0.207,0.045c0.25,0.113,0.362,0.41,0.248,0.661l-2.109,4.652c-0.082,0.181-0.214,0.332-0.383,0.436
		c-0.16,0.099-0.342,0.151-0.527,0.151c-0.076,0-0.153-0.009-0.228-0.026c-0.26-0.06-0.48-0.219-0.622-0.446L13.535,6.99
		l-2.073,3.801c-0.114,0.208-0.298,0.37-0.52,0.455c-0.114,0.044-0.235,0.066-0.357,0.066c-0.412,0-0.787-0.258-0.934-0.642
		L7.98,6.327L7.094,8.397C6.933,8.764,6.573,9,6.176,9H1.004V14.5z"/>
</g>
</svg>
