<?xml version="1.0" encoding="utf-8"?>
<!-- Generator: Adobe Illustrator 22.1.0, SVG Export Plug-In . SVG Version: 6.00 Build 0)  -->
<svg version="1.1" id="Layer_1" xmlns="http://www.w3.org/2000/svg" xmlns:xlink="http://www.w3.org/1999/xlink" x="0px" y="0px"
	 viewBox="0 0 24 24" style="enable-background:new 0 0 24 24;" xml:space="preserve">
<g>
	<title>presentation-projector</title>
	<path d="M21.504,20.75c-0.276,0-0.5-0.224-0.5-0.5v-1.5h-18v1.5c0,0.276-0.224,0.5-0.5,0.5s-0.5-0.224-0.5-0.5v-1.5H1.5
		c-0.827,0-1.5-0.673-1.5-1.5v-7c0-0.827,0.673-1.5,1.5-1.5h7.526c0.255-3.103,2.836-5.5,5.978-5.5c3.142,0,5.724,2.397,5.979,5.5
		H22.5c0.827,0,1.5,0.673,1.5,1.5v7c0,0.827-0.673,1.5-1.5,1.5h-0.496v1.5C22.004,20.526,21.78,20.75,21.504,20.75z M1.5,9.75
		c-0.276,0-0.5,0.224-0.5,0.5v7c0,0.276,0.224,0.5,0.5,0.5h21c0.276,0,0.5-0.224,0.5-0.5v-7c0-0.276-0.224-0.5-0.5-0.5h-1.518
		c-0.255,3.103-2.836,5.5-5.979,5.5c-3.142,0-5.723-2.397-5.978-5.5H1.5z M15.004,4.25c-2.757,0-5,2.243-5,5s2.243,5,5,5
		c2.741,0,4.979-2.224,4.999-4.962C20.001,9.274,20,9.261,20,9.25c0-0.013,0.001-0.029,0.004-0.045
		C19.991,6.482,17.75,4.25,15.004,4.25z"/>
	<path d="M2.504,15.25c-0.276,0-0.5-0.224-0.5-0.5v-3.5c0-0.276,0.224-0.5,0.5-0.5s0.5,0.224,0.5,0.5v3.5
		C3.004,15.026,2.78,15.25,2.504,15.25z"/>
	<path d="M4.504,15.25c-0.276,0-0.5-0.224-0.5-0.5v-3.5c0-0.276,0.224-0.5,0.5-0.5s0.5,0.224,0.5,0.5v3.5
		C5.004,15.026,4.78,15.25,4.504,15.25z"/>
	<path d="M6.504,15.25c-0.276,0-0.5-0.224-0.5-0.5v-3.5c0-0.276,0.224-0.5,0.5-0.5s0.5,0.224,0.5,0.5v3.5
		C7.004,15.026,6.78,15.25,6.504,15.25z"/>
	<path d="M12.5,9.75c-0.276,0-0.5-0.224-0.5-0.5c0-1.654,1.346-3,3-3c0.276,0,0.5,0.224,0.5,0.5s-0.224,0.5-0.5,0.5
		c-1.103,0-2,0.897-2,2C13,9.526,12.776,9.75,12.5,9.75z"/>
</g>
</svg>
