<?xml version="1.0" encoding="utf-8"?>
<!-- Generator: Adobe Illustrator 22.1.0, SVG Export Plug-In . SVG Version: 6.00 Build 0)  -->
<svg version="1.1" id="Layer_1" xmlns="http://www.w3.org/2000/svg" xmlns:xlink="http://www.w3.org/1999/xlink" x="0px" y="0px"
	 viewBox="0 0 24 24" style="enable-background:new 0 0 24 24;" xml:space="preserve">
<g>
	<title>presentation-projector-screen-hierarchy</title>
	<path d="M17.504,16.5c-1.103,0-2-0.897-2-2c0-0.911,0.63-1.707,1.496-1.933V8.5C17,8.224,16.776,8,16.5,8h-2.496
		c0,0.551-0.448,1-1,1h-0.5v3.566c0.869,0.225,1.5,1.021,1.5,1.934c0,1.103-0.897,2-2,2c-1.103,0-2-0.897-2-2
		c0-0.913,0.631-1.709,1.5-1.934V9h-0.5c-0.551,0-1-0.449-1-1H7.5C7.224,8,7,8.224,7,8.5v4.064c0.871,0.224,1.504,1.021,1.504,1.936
		c0,1.103-0.897,2-2,2s-2-0.897-2-2c0-0.911,0.63-1.707,1.496-1.933V8.5C6,7.673,6.673,7,7.5,7h2.504V6c0-0.551,0.449-1,1-1h2
		c0.552,0,1,0.449,1,1v1H16.5C17.327,7,18,7.673,18,8.5v4.064c0.871,0.224,1.504,1.021,1.504,1.936
		C19.504,15.603,18.607,16.5,17.504,16.5z M17.504,13.5c-0.552,0-1,0.448-1,1s0.448,1,1,1s1-0.448,1-1S18.055,13.5,17.504,13.5z
		 M12.004,13.5c-0.551,0-1,0.448-1,1s0.449,1,1,1s1-0.448,1-1S12.555,13.5,12.004,13.5z M6.504,13.5c-0.551,0-1,0.448-1,1
		s0.449,1,1,1s1-0.448,1-1S7.055,13.5,6.504,13.5z M11.004,8h2V7.543C13.001,7.528,13,7.512,13,7.5c0-0.019,0.002-0.036,0.005-0.05
		L13.004,6h-2L11.004,8z"/>
	<path d="M12.004,24c-0.827,0-1.5-0.673-1.5-1.5c0-0.64,0.41-1.205,1-1.414V20h-10c-0.276,0-0.5-0.224-0.5-0.5s0.224-0.5,0.5-0.5
		h0.5V3H1.5C0.673,3,0,2.327,0,1.5S0.673,0,1.5,0h21C23.327,0,24,0.673,24,1.5S23.327,3,22.5,3h-0.496v16h0.5
		c0.276,0,0.5,0.224,0.5,0.5s-0.224,0.5-0.5,0.5h-10v1.086c0.59,0.209,1,0.774,1,1.414C13.504,23.327,12.831,24,12.004,24z
		 M12.004,22c-0.276,0-0.5,0.224-0.5,0.5s0.224,0.5,0.5,0.5c0.276,0,0.5-0.224,0.5-0.5S12.28,22,12.004,22z M21.004,19V3h-18v16
		H21.004z M1.5,1C1.224,1,1,1.224,1,1.5S1.224,2,1.5,2h21C22.776,2,23,1.776,23,1.5S22.776,1,22.5,1H1.5z"/>
</g>
</svg>
