<?xml version="1.0" encoding="utf-8"?>
<!-- Generator: Adobe Illustrator 22.1.0, SVG Export Plug-In . SVG Version: 6.00 Build 0)  -->
<svg version="1.1" id="Layer_1" xmlns="http://www.w3.org/2000/svg" xmlns:xlink="http://www.w3.org/1999/xlink" x="0px" y="0px"
	 viewBox="0 0 24 24" style="enable-background:new 0 0 24 24;" xml:space="preserve">
<g>
	<title>presentation-analytics</title>
	<path d="M3.516,24c-0.258,0-0.477-0.201-0.498-0.458L2.556,18h-2.04c-0.276,0-0.5-0.224-0.5-0.5V14c0-3.033,2.467-5.5,5.5-5.5
		s5.5,2.467,5.5,5.5v3.5c0,0.276-0.224,0.5-0.5,0.5h-2.04l-0.462,5.542C7.993,23.799,7.774,24,7.516,24H3.516z M7.056,23
		l0.462-5.542C7.539,17.201,7.758,17,8.016,17h2v-3c0-2.481-2.019-4.5-4.5-4.5s-4.5,2.019-4.5,4.5v3h2
		c0.258,0,0.477,0.201,0.498,0.458L3.976,23H7.056z"/>
	<path d="M5.516,8c-2.206,0-4-1.794-4-4s1.794-4,4-4s4,1.794,4,4S7.721,8,5.516,8z M5.516,1c-1.654,0-3,1.346-3,3s1.346,3,3,3
		s3-1.346,3-3S7.17,1,5.516,1z"/>
	<path d="M17.947,20.5c-0.105,0-0.205-0.032-0.291-0.094l-2.174-1.553l-2.176,1.553c-0.085,0.061-0.185,0.093-0.29,0.093
		c-0.161,0-0.313-0.078-0.407-0.209c-0.078-0.108-0.108-0.241-0.086-0.373s0.094-0.247,0.203-0.325l2.291-1.635V14h-2.5
		c-0.276,0-0.5-0.224-0.5-0.5s0.224-0.5,0.5-0.5h10c0.276,0,0.5-0.224,0.5-0.5v-9c0-0.276-0.224-0.5-0.5-0.5h-11.5
		c-0.276,0-0.5-0.224-0.5-0.5S10.74,2,11.016,2h4V0.5c0-0.276,0.224-0.5,0.5-0.5s0.5,0.224,0.5,0.5V2h6.5c0.827,0,1.5,0.673,1.5,1.5
		v9c0,0.827-0.673,1.5-1.5,1.5h-6.5v4.006l2.222,1.587c0.224,0.16,0.277,0.473,0.116,0.698C18.26,20.422,18.108,20.5,17.947,20.5z"
		/>
	<path d="M12.016,9.132c-0.134,0-0.259-0.052-0.354-0.146s-0.146-0.22-0.146-0.354s0.052-0.259,0.146-0.354l1.055-1.055
		c0.182-0.182,0.439-0.286,0.707-0.286s0.525,0.104,0.707,0.286l0.7,0.7l1.586-1.578c0.188-0.188,0.439-0.292,0.706-0.292
		c0.267,0,0.518,0.104,0.707,0.292l1.231,1.231l2.112-2.113c0.094-0.094,0.22-0.146,0.354-0.146c0.133,0,0.259,0.052,0.353,0.146
		c0.195,0.195,0.195,0.512,0,0.707l-2.112,2.113c-0.189,0.189-0.44,0.292-0.707,0.292c-0.267,0-0.518-0.104-0.707-0.292
		l-1.231-1.231l-1.586,1.578c-0.181,0.181-0.438,0.285-0.706,0.285c-0.268,0-0.526-0.104-0.707-0.286l-0.7-0.7L12.37,8.985
		C12.275,9.08,12.149,9.132,12.016,9.132z"/>
</g>
</svg>
