<?xml version="1.0" encoding="utf-8"?>
<!-- Generator: Adobe Illustrator 22.1.0, SVG Export Plug-In . SVG Version: 6.00 Build 0)  -->
<svg version="1.1" id="Layer_1" xmlns="http://www.w3.org/2000/svg" xmlns:xlink="http://www.w3.org/1999/xlink" x="0px" y="0px"
	 viewBox="0 0 24 24" style="enable-background:new 0 0 24 24;" xml:space="preserve">
<g>
	<title>presentation-microphone-1</title>
	<path d="M11.011,5c-0.276,0-0.5-0.224-0.5-0.5s0.224-0.5,0.5-0.5h2c0.276,0,0.5,0.224,0.5,0.5S13.287,5,13.011,5H11.011z"/>
	<path d="M11.011,3c-0.276,0-0.5-0.224-0.5-0.5s0.224-0.5,0.5-0.5h2c0.276,0,0.5,0.224,0.5,0.5S13.287,3,13.011,3H11.011z"/>
	<path d="M14.011,24c-0.276,0-0.5-0.224-0.5-0.5v-6.956c-0.002-0.016-0.004-0.031-0.004-0.044c0-0.019,0.002-0.036,0.005-0.051
		l0-1.449h-3v8.5c0,0.276-0.224,0.5-0.5,0.5s-0.5-0.224-0.5-0.5V17H7.007c-0.783-0.043-1.499-0.445-1.928-1.076l-1.983-3.311
		c-0.23-0.383-0.258-0.787-0.076-1.108C3.202,11.184,3.563,11,4.011,11h0.353L2.718,9.354C1.666,8.11,1.558,6.376,2.416,5.05
		c-0.575-0.585-0.571-1.529,0.01-2.111l0.792-0.793c0.02-0.022,0.058-0.061,0.098-0.097C3.659,1.734,4.106,1.56,4.574,1.56
		c0.026,0,0.051,0,0.077,0.002c0.492,0.021,0.946,0.231,1.28,0.59c0.024,0.022,0.058,0.056,0.091,0.092
		c0.69,0.752,0.642,1.928-0.108,2.62L5.133,5.646c-0.284,0.284-0.661,0.44-1.061,0.44c-0.339,0-0.66-0.112-0.922-0.317
		c-0.5,0.928-0.39,2.087,0.304,2.908L5.778,11h5.733V9.962C9.809,9.718,8.507,8.24,8.507,6.5v-3c0-1.93,1.57-3.5,3.5-3.5
		s3.5,1.57,3.5,3.5v2.956c0.002,0.016,0.004,0.032,0.004,0.044c0,0.022-0.003,0.042-0.006,0.058
		c-0.028,1.708-1.321,3.158-2.994,3.402V11h5.732l2.354-2.354c0.673-0.799,0.777-1.95,0.276-2.877
		c-0.262,0.205-0.583,0.316-0.922,0.316c-0.401,0-0.777-0.156-1.06-0.438L18.1,4.857c-0.742-0.687-0.79-1.862-0.1-2.614
		c0.035-0.039,0.073-0.076,0.112-0.112c0.304-0.335,0.769-0.548,1.258-0.569c0.027-0.001,0.052-0.002,0.079-0.002
		c0.467,0,0.913,0.173,1.257,0.489c0.039,0.036,0.077,0.073,0.113,0.113l0.779,0.778C21.88,3.222,22.035,3.599,22.035,4
		c0,0.396-0.152,0.769-0.429,1.051c0.857,1.325,0.756,3.052-0.274,4.271L19.657,11h0.351c0.447,0,0.808,0.184,0.99,0.506
		s0.154,0.725-0.076,1.109L18.95,15.9c-0.441,0.65-1.154,1.056-1.915,1.099L14.511,17v6.5C14.511,23.776,14.287,24,14.011,24z
		 M3.911,12.01c0.008,0.022,0.021,0.053,0.043,0.09l1.967,3.287c0.242,0.354,0.662,0.589,1.114,0.615L9.511,16v-1.5
		c0-0.276,0.224-0.5,0.5-0.5h4c0.276,0,0.5,0.224,0.5,0.5V16h2.496c0.429-0.025,0.846-0.264,1.101-0.638l1.956-3.262
		c0.022-0.037,0.036-0.068,0.043-0.09C20.084,12.004,20.051,12,20.007,12H4.011C3.967,12,3.934,12.004,3.911,12.01z M9.559,7
		c0.235,1.141,1.261,2,2.448,2s2.213-0.859,2.448-2H9.559z M14.507,6V3.5c0-1.379-1.122-2.5-2.5-2.5c-1.379,0-2.5,1.121-2.5,2.5V6
		H14.507z M19.412,2.561c-0.228,0.01-0.439,0.108-0.594,0.277c-0.045,0.044-0.064,0.062-0.082,0.082
		c-0.155,0.168-0.235,0.387-0.225,0.617c0.01,0.229,0.108,0.441,0.276,0.596c0.004,0.004,0.808,0.808,0.808,0.808
		c0.097,0.095,0.221,0.146,0.354,0.146c0.134,0,0.26-0.052,0.354-0.146l0.584-0.586c0.195-0.195,0.195-0.512,0-0.707l-0.793-0.793
		c-0.03-0.032-0.048-0.05-0.067-0.067c-0.159-0.146-0.366-0.226-0.584-0.226L19.412,2.561z M4.57,2.56
		c-0.214,0-0.42,0.08-0.578,0.225C3.974,2.802,3.956,2.82,3.939,2.838L3.133,3.646c-0.195,0.195-0.195,0.512,0,0.707L3.718,4.94
		c0.094,0.094,0.22,0.146,0.354,0.146c0.134,0,0.259-0.052,0.353-0.146l0.792-0.793c0.364-0.335,0.387-0.878,0.068-1.226
		C5.269,2.903,5.251,2.885,5.233,2.868C5.051,2.672,4.84,2.571,4.608,2.561L4.57,2.56z"/>
</g>
</svg>
