<?xml version="1.0" encoding="utf-8"?>
<!-- Generator: Adobe Illustrator 22.1.0, SVG Export Plug-In . SVG Version: 6.00 Build 0)  -->
<svg version="1.1" id="Layer_1" xmlns="http://www.w3.org/2000/svg" xmlns:xlink="http://www.w3.org/1999/xlink" x="0px" y="0px"
	 viewBox="0 0 24 24" style="enable-background:new 0 0 24 24;" xml:space="preserve">
<g>
	<title>presentation-projector-screen-image</title>
	<path d="M6,16c-0.179,0-0.345-0.096-0.434-0.252c-0.089-0.154-0.088-0.346,0.002-0.5l2.663-4.551
		c0.225-0.45,0.717-0.749,1.245-0.749c0.219,0,0.438,0.052,0.635,0.151c0.089,0.045,0.174,0.099,0.251,0.161
		c0.014,0.011,0.028,0.024,0.041,0.037l1.474,1.497l1.481-2.527c0.257-0.471,0.76-0.767,1.308-0.767c0,0,0,0,0,0
		c0.02,0,0.041,0.001,0.06,0.003c0.543,0.06,1.02,0.408,1.245,0.906l2.975,5.864c0.078,0.154,0.071,0.341-0.02,0.488
		C18.834,15.911,18.675,16,18.5,16H6z M17.686,15l-2.616-5.159c-0.085-0.188-0.242-0.311-0.428-0.34
		c-0.173,0.009-0.33,0.107-0.414,0.26l-1.818,3.103c-0.078,0.133-0.216,0.224-0.37,0.243c-0.021,0.003-0.041,0.004-0.061,0.004
		c-0.135,0-0.262-0.053-0.357-0.149l-1.906-1.936c-0.017-0.012-0.035-0.023-0.054-0.033c-0.058-0.029-0.12-0.044-0.184-0.044
		c-0.157,0-0.298,0.087-0.368,0.226L6.872,15H17.686z"/>
	<path d="M8.504,9c-1.103,0-2-0.897-2-2s0.897-2,2-2s2,0.897,2,2S9.607,9,8.504,9z M8.504,6c-0.551,0-1,0.449-1,1s0.449,1,1,1
		s1-0.449,1-1S9.055,6,8.504,6z"/>
	<path d="M12.004,24c-0.827,0-1.5-0.673-1.5-1.5c0-0.64,0.41-1.205,1-1.414V20h-10c-0.276,0-0.5-0.224-0.5-0.5s0.224-0.5,0.5-0.5
		h0.5V3H1.5C0.673,3,0,2.327,0,1.5S0.673,0,1.5,0h21C23.327,0,24,0.673,24,1.5S23.327,3,22.5,3h-0.496v16h0.5
		c0.276,0,0.5,0.224,0.5,0.5s-0.224,0.5-0.5,0.5h-10v1.086c0.59,0.209,1,0.774,1,1.414C13.504,23.327,12.831,24,12.004,24z
		 M12.004,22c-0.276,0-0.5,0.224-0.5,0.5s0.224,0.5,0.5,0.5c0.276,0,0.5-0.224,0.5-0.5S12.28,22,12.004,22z M21.004,19V3h-18v16
		H21.004z M1.5,1C1.224,1,1,1.224,1,1.5S1.224,2,1.5,2h21C22.776,2,23,1.776,23,1.5S22.776,1,22.5,1H1.5z"/>
</g>
</svg>
