<?xml version="1.0" encoding="utf-8"?>
<!-- Generator: Adobe Illustrator 22.1.0, SVG Export Plug-In . SVG Version: 6.00 Build 0)  -->
<svg version="1.1" id="Layer_1" xmlns="http://www.w3.org/2000/svg" xmlns:xlink="http://www.w3.org/1999/xlink" x="0px" y="0px"
	 viewBox="0 0 24 24" style="enable-background:new 0 0 24 24;" xml:space="preserve">
<g>
	<title>presentation-statistics</title>
	<path d="M13,15.003c-0.276,0-0.5-0.224-0.5-0.5s0.224-0.5,0.5-0.5h9.5c0.276,0,0.5-0.224,0.5-0.5v-12c0-0.276-0.224-0.5-0.5-0.5
		h-12c-0.276,0-0.5-0.224-0.5-0.5s0.224-0.5,0.5-0.5h12c0.827,0,1.5,0.673,1.5,1.5v12c0,0.827-0.673,1.5-1.5,1.5H13z"/>
	<path d="M19,11.503c-0.552,0-1-0.449-1-1v-6.5c0-0.551,0.448-1,1-1h1c0.552,0,1,0.449,1,1v6.5c0,0.551-0.448,1-1,1H19z M19,10.503
		h1v-6.5l-1,0L19,10.503z"/>
	<path d="M3.5,24.003c-0.258,0-0.477-0.201-0.498-0.458L2.54,18.003H0.5c-0.276,0-0.5-0.224-0.5-0.5v-3.5c0-3.033,2.467-5.5,5.5-5.5
		s5.5,2.467,5.5,5.5c0,0.276-0.224,0.5-0.5,0.5s-0.5-0.224-0.5-0.5c0-2.481-2.019-4.5-4.5-4.5S1,11.521,1,14.003v3h2
		c0.258,0,0.477,0.201,0.498,0.458l0.462,5.542h3.08l0.462-5.542c0.022-0.261,0.234-0.459,0.494-0.459
		c0.017,0,0.034,0.001,0.051,0.002c0.27,0.022,0.475,0.265,0.452,0.539l-0.5,6c-0.022,0.257-0.24,0.458-0.498,0.458H3.5z"/>
	<path d="M5.504,8.003c-2.206,0-4-1.794-4-4s1.794-4,4-4s4,1.794,4,4S7.71,8.003,5.504,8.003z M5.504,1.003c-1.654,0-3,1.346-3,3
		s1.346,3,3,3s3-1.346,3-3S7.158,1.003,5.504,1.003z"/>
	<path d="M15,11.503c-0.552,0-1-0.449-1-1v-4.5c0-0.551,0.448-1,1-1h1c0.552,0,1,0.449,1,1v4.5c0,0.551-0.448,1-1,1H15z M15,10.503
		h1v-4.5h-1L15,10.503z"/>
	<path d="M12.59,21.203c-1.572,0-2.85-1.278-2.85-2.85s1.279-2.85,2.85-2.85s2.85,1.279,2.85,2.85S14.162,21.203,12.59,21.203z
		 M12.59,16.503c-1.02,0-1.85,0.83-1.85,1.85c0,1.02,0.83,1.85,1.85,1.85c1.02,0,1.85-0.83,1.85-1.85
		C14.44,17.332,13.61,16.503,12.59,16.503z"/>
	<path d="M19.818,21.203c-1.572,0-2.85-1.278-2.85-2.85s1.279-2.85,2.85-2.85s2.85,1.279,2.85,2.85S21.39,21.203,19.818,21.203z
		 M19.818,16.503c-1.02,0-1.85,0.83-1.85,1.85c0,1.02,0.83,1.85,1.85,1.85c1.02,0,1.85-0.83,1.85-1.85
		C21.668,17.332,20.838,16.503,19.818,16.503z"/>
	<path d="M16.188,24.004c-0.133,0-0.269-0.068-0.364-0.181c-0.826-0.986-2.039-1.555-3.326-1.561
		c-0.968,0.001-1.919,0.333-2.677,0.936c-0.088,0.07-0.199,0.109-0.311,0.109c-0.153,0-0.296-0.069-0.392-0.189
		c-0.083-0.104-0.12-0.235-0.105-0.368c0.015-0.133,0.081-0.251,0.186-0.334c0.934-0.743,2.107-1.153,3.301-1.154
		c1.381,0.005,2.715,0.55,3.703,1.501c0.126-0.125,0.259-0.245,0.397-0.356c0.932-0.752,2.055-1.149,3.248-1.149
		c0.185,0,0.373,0.01,0.559,0.03c1.377,0.147,2.614,0.822,3.483,1.9c0.084,0.104,0.122,0.234,0.108,0.367
		c-0.014,0.133-0.079,0.252-0.183,0.336c-0.089,0.072-0.2,0.111-0.314,0.111c-0.152,0-0.294-0.068-0.39-0.186
		c-0.702-0.87-1.7-1.415-2.811-1.533c-0.151-0.016-0.303-0.024-0.454-0.024c-0.96,0-1.866,0.321-2.618,0.928
		c-0.231,0.186-0.443,0.398-0.63,0.63c-0.093,0.115-0.229,0.182-0.375,0.186C16.209,24.004,16.195,24.004,16.188,24.004z"/>
</g>
</svg>
