<?xml version="1.0" encoding="utf-8"?>
<!-- Generator: Adobe Illustrator 22.1.0, SVG Export Plug-In . SVG Version: 6.00 Build 0)  -->
<svg version="1.1" id="Layer_1" xmlns="http://www.w3.org/2000/svg" xmlns:xlink="http://www.w3.org/1999/xlink" x="0px" y="0px"
	 viewBox="0 0 24 24" style="enable-background:new 0 0 24 24;" xml:space="preserve">
<g>
	<title>presentation-projector-screen-clock</title>
	<path d="M12.004,24c-0.827,0-1.5-0.673-1.5-1.5c0-0.64,0.41-1.205,1-1.414V20h-10c-0.276,0-0.5-0.224-0.5-0.5s0.224-0.5,0.5-0.5
		h0.5V3H1.5C0.673,3,0,2.327,0,1.5S0.673,0,1.5,0h21C23.327,0,24,0.673,24,1.5S23.327,3,22.5,3h-0.496v16h0.5
		c0.276,0,0.5,0.224,0.5,0.5s-0.224,0.5-0.5,0.5h-10v1.086c0.59,0.209,1,0.774,1,1.414C13.504,23.327,12.831,24,12.004,24z
		 M12.004,22c-0.276,0-0.5,0.224-0.5,0.5s0.224,0.5,0.5,0.5c0.276,0,0.5-0.224,0.5-0.5S12.28,22,12.004,22z M21.004,19V3h-18v16
		H21.004z M1.5,1C1.224,1,1,1.224,1,1.5S1.224,2,1.5,2h21C22.776,2,23,1.776,23,1.5S22.776,1,22.5,1H1.5z"/>
	<path d="M12.004,16.5c-3.033,0-5.5-2.467-5.5-5.5s2.467-5.5,5.5-5.5c3.033,0,5.5,2.467,5.5,5.5S15.037,16.5,12.004,16.5z
		 M12.004,6.5c-2.481,0-4.5,2.019-4.5,4.5c0,2.481,2.019,4.5,4.5,4.5s4.5-2.019,4.5-4.5C16.504,8.519,14.485,6.5,12.004,6.5z"/>
	<path d="M12.004,11.5c-0.276,0-0.5-0.224-0.5-0.5V8c0-0.276,0.224-0.5,0.5-0.5s0.5,0.224,0.5,0.5v2.5h1.5
		c0.276,0,0.5,0.224,0.5,0.5s-0.224,0.5-0.5,0.5H12.004z"/>
</g>
</svg>
