<?xml version="1.0" encoding="utf-8"?>
<!-- Generator: Adobe Illustrator 22.1.0, SVG Export Plug-In . SVG Version: 6.00 Build 0)  -->
<svg version="1.1" id="Layer_1" xmlns="http://www.w3.org/2000/svg" xmlns:xlink="http://www.w3.org/1999/xlink" x="0px" y="0px"
	 viewBox="0 0 24 24" style="enable-background:new 0 0 24 24;" xml:space="preserve">
<g>
	<title>presentation-microphone</title>
	<path d="M13.254,24c-0.276,0-0.5-0.224-0.5-0.5v-7c0-0.276,0.224-0.5,0.5-0.5s0.5,0.224,0.5,0.5v2.499h5.837
		c0.201,0,0.382-0.119,0.46-0.303l2.144-5c0.027-0.062,0.04-0.128,0.04-0.195c0-0.134-0.052-0.26-0.146-0.354
		C21.994,13.052,21.869,13,21.735,13H1.754c-0.068,0-0.134,0.014-0.196,0.04c-0.253,0.109-0.371,0.404-0.263,0.657l2.144,5
		C3.518,18.881,3.699,19,3.899,19h5.855v-2.5c0-0.276,0.224-0.5,0.5-0.5s0.5,0.224,0.5,0.5v7c0,0.276-0.224,0.5-0.5,0.5
		s-0.5-0.224-0.5-0.5V20H3.9c-0.602,0-1.143-0.357-1.38-0.909l-2.144-5c-0.326-0.76,0.028-1.644,0.788-1.97
		C1.35,12.041,1.548,12,1.753,12h1.584L1.964,9.804C1.463,9.003,1.454,8.003,1.94,7.193L2.472,6.31L1.494,5.766
		c-0.115-0.064-0.202-0.173-0.238-0.3s-0.02-0.265,0.044-0.38l1.705-3.058C3.358,1.394,4.029,1,4.756,1
		c0.338,0,0.673,0.087,0.97,0.252c0.467,0.26,0.805,0.686,0.951,1.2c0.146,0.514,0.084,1.054-0.176,1.521L4.797,7.031
		C4.709,7.19,4.542,7.288,4.36,7.288c-0.084,0-0.168-0.022-0.242-0.063L3.346,6.796l-0.55,0.912
		C2.506,8.193,2.511,8.793,2.812,9.274L4.516,12h6.237V9.962c-1.68-0.24-2.978-1.691-3.005-3.405C7.745,6.541,7.742,6.522,7.742,6.5
		c0-0.014,0.002-0.033,0.005-0.05L7.746,3.544C7.744,3.528,7.742,3.512,7.742,3.5c0-0.024,0.003-0.045,0.007-0.062
		C7.768,1.552,9.336,0,11.246,0c1.93,0,3.5,1.57,3.5,3.5v3c0,1.735-1.297,3.212-2.993,3.46V12h5.212l2.688-4.476l-1.001-1
		c-0.201,0.096-0.421,0.146-0.647,0.146c-0.401,0-0.777-0.156-1.06-0.438l-0.708-0.708c-0.975-0.975-0.974-2.562,0.001-3.536
		c0.472-0.472,1.1-0.732,1.768-0.732c0.669,0,1.297,0.261,1.769,0.733l0.707,0.707c0.452,0.452,0.562,1.142,0.293,1.706l2.538,2.536
		c0.585,0.585,0.584,1.537,0,2.122C23.029,9.344,22.652,9.5,22.252,9.5c-0.401,0-0.778-0.156-1.061-0.44l-0.808-0.807L18.132,12
		h3.603c0.4,0,0.777,0.156,1.06,0.44s0.439,0.66,0.439,1.06c0,0.203-0.041,0.401-0.121,0.589L20.97,19.09
		c-0.237,0.552-0.778,0.909-1.379,0.909h-5.838V23.5C13.754,23.776,13.529,24,13.254,24z M8.798,7c0.235,1.141,1.261,2,2.448,2
		s2.213-0.859,2.448-2h-1.449c-0.276,0-0.5-0.224-0.5-0.5S11.97,6,12.245,6h1.501V4h-1.501c-0.276,0-0.5-0.224-0.5-0.5
		S11.97,3,12.245,3h1.449c-0.235-1.141-1.261-2-2.448-2S9.033,1.859,8.798,3h1.445c0.276,0,0.5,0.224,0.5,0.5S10.519,4,10.244,4
		H8.746v2h1.497c0.276,0,0.5,0.224,0.5,0.5S10.519,7,10.244,7H8.798z M21.898,8.353c0.094,0.095,0.22,0.147,0.354,0.147
		c0.134,0,0.259-0.052,0.354-0.146c0.195-0.195,0.195-0.512,0-0.708L20.13,5.172l-0.708,0.707L21.898,8.353z M4.167,6.108
		l1.461-2.622c0.13-0.233,0.161-0.503,0.088-0.76s-0.242-0.47-0.476-0.6C5.092,2.044,4.924,2,4.755,2
		c-0.364,0-0.7,0.197-0.876,0.514L2.418,5.135l0.978,0.544c0.01,0.004,0.02,0.009,0.029,0.015c0.006,0.004,0.012,0.008,0.018,0.012
		L4.167,6.108z M18.006,2.257c-0.401,0-0.778,0.156-1.061,0.438c-0.585,0.585-0.585,1.537-0.001,2.122l0.707,0.707
		c0.094,0.094,0.22,0.146,0.354,0.146s0.26-0.052,0.354-0.146l1.415-1.414c0.195-0.195,0.195-0.512,0-0.707l-0.707-0.707
		C18.785,2.413,18.408,2.257,18.006,2.257z"/>
</g>
</svg>
