<?xml version="1.0" encoding="utf-8"?>
<!-- Generator: Adobe Illustrator 22.1.0, SVG Export Plug-In . SVG Version: 6.00 Build 0)  -->
<svg version="1.1" id="Layer_1" xmlns="http://www.w3.org/2000/svg" xmlns:xlink="http://www.w3.org/1999/xlink" x="0px" y="0px"
	 viewBox="0 0 24 24" style="enable-background:new 0 0 24 24;" xml:space="preserve">
<g>
	<title>presentation-projector-screen-budget-analytics</title>
	<path d="M7.504,13.5c-0.276,0-0.5-0.224-0.5-0.5v-0.5H6c-0.276,0-0.5-0.224-0.5-0.5c0-0.276,0.224-0.5,0.5-0.5h2.037
		c0.344-0.001,0.65-0.208,0.778-0.528c0.084-0.209,0.082-0.438-0.006-0.644c-0.088-0.207-0.252-0.367-0.46-0.451L6.285,9.051
		C5.584,8.769,5.131,8.099,5.13,7.343c0-0.492,0.191-0.955,0.539-1.303C6.016,5.692,6.479,5.5,6.971,5.5h0.033V5
		c0-0.276,0.224-0.5,0.5-0.5s0.5,0.224,0.5,0.5v0.5H9c0.276,0,0.5,0.224,0.5,0.5S9.276,6.5,9,6.5H6.971
		c-0.224,0-0.436,0.088-0.595,0.247C6.217,6.906,6.13,7.118,6.13,7.343c0,0.345,0.207,0.652,0.528,0.781l2.063,0.826
		c0.457,0.184,0.815,0.534,1.008,0.987c0.193,0.453,0.198,0.953,0.014,1.41c-0.281,0.699-0.951,1.153-1.705,1.154H8.004V13
		C8.004,13.276,7.78,13.5,7.504,13.5z"/>
	<path d="M8.504,16c-0.276,0-0.5-0.224-0.5-0.5s0.224-0.5,0.5-0.5H11v-2c0-0.552,0.449-1,1-1h1c0.552,0,1,0.448,1,1v2h1v-5
		c0-0.551,0.448-1,1-1h1c0.552,0,1,0.449,1,1v5h1.004c0.276,0,0.5,0.224,0.5,0.5s-0.224,0.5-0.5,0.5H8.504z M17,15v-5h-1L17,15z
		 M13,15v-2h-1L13,15z"/>
	<path d="M12.004,24c-0.827,0-1.5-0.673-1.5-1.5c0-0.64,0.41-1.205,1-1.414V20h-10c-0.276,0-0.5-0.224-0.5-0.5s0.224-0.5,0.5-0.5
		h0.5V3H1.5C0.673,3,0,2.327,0,1.5S0.673,0,1.5,0h21C23.327,0,24,0.673,24,1.5S23.327,3,22.5,3h-0.496v16h0.5
		c0.276,0,0.5,0.224,0.5,0.5s-0.224,0.5-0.5,0.5h-10v1.086c0.59,0.209,1,0.774,1,1.414C13.504,23.327,12.831,24,12.004,24z
		 M12.004,22c-0.276,0-0.5,0.224-0.5,0.5s0.224,0.5,0.5,0.5c0.276,0,0.5-0.224,0.5-0.5S12.28,22,12.004,22z M21.004,19V3h-18v16
		H21.004z M1.5,1C1.224,1,1,1.224,1,1.5S1.224,2,1.5,2h21C22.776,2,23,1.776,23,1.5S22.776,1,22.5,1H1.5z"/>
</g>
</svg>
