<?xml version="1.0" encoding="utf-8"?>
<!-- Generator: Adobe Illustrator 22.1.0, SVG Export Plug-In . SVG Version: 6.00 Build 0)  -->
<svg version="1.1" id="Layer_1" xmlns="http://www.w3.org/2000/svg" xmlns:xlink="http://www.w3.org/1999/xlink" x="0px" y="0px"
	 viewBox="0 0 24 24" style="enable-background:new 0 0 24 24;" xml:space="preserve">
<g>
	<title>presentation-projector-screen-bars</title>
	<path d="M5.004,17c-0.276,0-0.5-0.224-0.5-0.5c0-0.274,0.222-0.498,0.496-0.5v-3c0-0.552,0.449-1,1-1h2c0.551,0,1,0.448,1,1v3h1v-6
		c0-0.551,0.449-1,1-1h2c0.552,0,1,0.449,1,1v6h1V7c0-0.551,0.448-1,1-1h2c0.552,0,1,0.449,1,1v9h0.004c0.276,0,0.5,0.224,0.5,0.5
		s-0.224,0.5-0.5,0.5H5.004z M18,16V7h-2l0,9H18z M13,16v-6h-2l0,6H13z M8,16v-3H6l0,3H8z"/>
	<path d="M12.004,24c-0.827,0-1.5-0.673-1.5-1.5c0-0.64,0.41-1.205,1-1.414V20h-10c-0.276,0-0.5-0.224-0.5-0.5s0.224-0.5,0.5-0.5
		h0.5V3H1.5C0.673,3,0,2.327,0,1.5S0.673,0,1.5,0h21C23.327,0,24,0.673,24,1.5S23.327,3,22.5,3h-0.496v16h0.5
		c0.276,0,0.5,0.224,0.5,0.5s-0.224,0.5-0.5,0.5h-10v1.086c0.59,0.209,1,0.774,1,1.414C13.504,23.327,12.831,24,12.004,24z
		 M12.004,22c-0.276,0-0.5,0.224-0.5,0.5s0.224,0.5,0.5,0.5c0.276,0,0.5-0.224,0.5-0.5S12.28,22,12.004,22z M21.004,19V3h-18v16
		H21.004z M1.5,1C1.224,1,1,1.224,1,1.5S1.224,2,1.5,2h21C22.776,2,23,1.776,23,1.5S22.776,1,22.5,1H1.5z"/>
</g>
</svg>
