<?xml version="1.0" encoding="utf-8"?>
<!-- Generator: Adobe Illustrator 22.1.0, SVG Export Plug-In . SVG Version: 6.00 Build 0)  -->
<svg version="1.1" id="Layer_1" xmlns="http://www.w3.org/2000/svg" xmlns:xlink="http://www.w3.org/1999/xlink" x="0px" y="0px"
	 viewBox="0 0 24 24" style="enable-background:new 0 0 24 24;" xml:space="preserve">
<g>
	<title>presentation-projector-screen-play</title>
	<path d="M9.54,15.503c-0.089,0-0.179-0.011-0.265-0.034c-0.268-0.07-0.493-0.241-0.633-0.48c-0.094-0.161-0.143-0.344-0.142-0.53
		V7.693c0-0.277,0.108-0.538,0.304-0.735C9,6.762,9.261,6.654,9.538,6.654c0.182,0,0.36,0.047,0.517,0.137l5.921,3.384
		c0.497,0.284,0.671,0.92,0.387,1.417c-0.092,0.161-0.225,0.295-0.386,0.387l-5.917,3.384C9.903,15.454,9.722,15.503,9.54,15.503z
		 M9.539,7.654c-0.011,0-0.02,0.004-0.028,0.011C9.504,7.673,9.5,7.682,9.5,7.692v6.769c0.011,0.032,0.019,0.038,0.029,0.04
		c0.002-0.001,0.035-0.007,0.037-0.008l5.914-3.382c0.025-0.033,0.018-0.057,0-0.068L9.559,7.659L9.539,7.654z"/>
	<path d="M12.004,24c-0.827,0-1.5-0.673-1.5-1.5c0-0.64,0.41-1.205,1-1.414V20h-10c-0.276,0-0.5-0.224-0.5-0.5s0.224-0.5,0.5-0.5
		h0.5V3H1.5C0.673,3,0,2.327,0,1.5S0.673,0,1.5,0h21C23.327,0,24,0.673,24,1.5S23.327,3,22.5,3h-0.496v16h0.5
		c0.276,0,0.5,0.224,0.5,0.5s-0.224,0.5-0.5,0.5h-10v1.086c0.59,0.209,1,0.774,1,1.414C13.504,23.327,12.831,24,12.004,24z
		 M12.004,22c-0.276,0-0.5,0.224-0.5,0.5s0.224,0.5,0.5,0.5c0.276,0,0.5-0.224,0.5-0.5S12.28,22,12.004,22z M21.004,19V3h-18v16
		H21.004z M1.5,1C1.224,1,1,1.224,1,1.5S1.224,2,1.5,2h21C22.776,2,23,1.776,23,1.5S22.776,1,22.5,1H1.5z"/>
</g>
</svg>
