<?xml version="1.0" encoding="utf-8"?>
<!-- Generator: Adobe Illustrator 22.1.0, SVG Export Plug-In . SVG Version: 6.00 Build 0)  -->
<svg version="1.1" id="Light" xmlns="http://www.w3.org/2000/svg" xmlns:xlink="http://www.w3.org/1999/xlink" x="0px" y="0px"
	 viewBox="0 0 24 24" style="enable-background:new 0 0 24 24;" xml:space="preserve">
<g>
	<title>real-estate-sign-board-sale</title>
	<path d="M4,20.544c-1.379,0-2.5-1.122-2.5-2.5v-7c0-1.379,1.121-2.5,2.5-2.5h2.293l4.647-4.647c0.283-0.283,0.66-0.439,1.061-0.439
		s0.777,0.156,1.06,0.438l4.646,4.647H20c1.378,0,2.5,1.121,2.5,2.5v7c0,1.378-1.122,2.5-2.5,2.5H4z M4,9.544
		c-0.827,0-1.5,0.673-1.5,1.5v7c0,0.827,0.673,1.5,1.5,1.5h16c0.827,0,1.5-0.673,1.5-1.5v-7c0-0.827-0.673-1.5-1.5-1.5H4z
		 M16.293,8.544l-3.938-3.94c-0.094-0.094-0.22-0.146-0.354-0.146c-0.134,0-0.259,0.052-0.353,0.146l-3.94,3.94H16.293z"/>
	<path d="M14,17.544c-0.827,0-1.5-0.673-1.5-1.5v-4c0-0.276,0.224-0.5,0.5-0.5s0.5,0.224,0.5,0.5v4c0,0.276,0.224,0.5,0.5,0.5h1
		c0.276,0,0.5,0.224,0.5,0.5s-0.224,0.5-0.5,0.5H14z"/>
	<path d="M5,17.544c-0.276,0-0.5-0.224-0.5-0.5s0.224-0.5,0.5-0.5h1c0.276,0,0.5-0.224,0.5-0.5c0-0.477-0.289-0.717-0.8-1.1
		c-0.535-0.401-1.2-0.9-1.2-1.9c0-0.827,0.673-1.5,1.5-1.5h1c0.276,0,0.5,0.224,0.5,0.5c0,0.276-0.224,0.5-0.5,0.5H6
		c-0.276,0-0.5,0.224-0.5,0.5c0,0.477,0.289,0.717,0.8,1.1c0.535,0.401,1.2,0.9,1.2,1.9c0,0.827-0.673,1.5-1.5,1.5H5z"/>
	<path d="M11,17.544c-0.276,0-0.5-0.224-0.5-0.5v-1.5h-1v1.5c0,0.276-0.224,0.5-0.5,0.5s-0.5-0.224-0.5-0.5v-4
		c0-0.827,0.673-1.5,1.5-1.5s1.5,0.673,1.5,1.5v1.979c0.001,0.007,0.001,0.014,0.001,0.021s0,0.014-0.001,0.021v1.979
		C11.5,17.32,11.276,17.544,11,17.544z M10.5,14.544v-1.5c0-0.276-0.224-0.5-0.5-0.5s-0.5,0.224-0.5,0.5v1.5H10.5z"/>
	<path d="M18,17.544c-0.827,0-1.5-0.673-1.5-1.5v-3c0-0.827,0.673-1.5,1.5-1.5h1c0.276,0,0.5,0.224,0.5,0.5
		c0,0.276-0.224,0.5-0.5,0.5h-1c-0.276,0-0.5,0.224-0.5,0.5v1.5h1.501c0.276,0,0.5,0.224,0.5,0.5s-0.224,0.5-0.5,0.5H17.5v0.5
		c0,0.276,0.224,0.5,0.5,0.5h1c0.276,0,0.5,0.224,0.5,0.5s-0.224,0.5-0.5,0.5H18z"/>
</g>
</svg>
