<?xml version="1.0" encoding="utf-8"?>
<!-- Generator: Adobe Illustrator 22.1.0, SVG Export Plug-In . SVG Version: 6.00 Build 0)  -->
<svg version="1.1" id="Light" xmlns="http://www.w3.org/2000/svg" xmlns:xlink="http://www.w3.org/1999/xlink" x="0px" y="0px"
	 viewBox="0 0 24 24" style="enable-background:new 0 0 24 24;" xml:space="preserve">
<g>
	<title>real-estate-sign-house-rent</title>
	<path d="M3.5,15.82c-0.276,0-0.5-0.224-0.5-0.5v-3.5c0-0.276,0.224-0.5,0.5-0.5S4,11.544,4,11.82v3.5
		C4,15.595,3.776,15.82,3.5,15.82z"/>
	<path d="M0.5,11.82c-0.14,0-0.275-0.059-0.369-0.163c-0.09-0.099-0.136-0.226-0.13-0.36c0.006-0.133,0.064-0.256,0.162-0.347
		l10.826-9.884C11.267,0.812,11.626,0.672,12,0.672s0.733,0.14,1.011,0.394l10.826,9.884c0.099,0.09,0.156,0.213,0.163,0.347
		s-0.04,0.261-0.131,0.36C23.775,11.76,23.64,11.82,23.5,11.82c-0.125,0-0.245-0.047-0.337-0.131L12.337,1.805
		C12.244,1.72,12.124,1.673,12,1.673c-0.124,0-0.243,0.047-0.337,0.132L0.837,11.689C0.745,11.773,0.625,11.82,0.5,11.82L0.5,11.82z
		"/>
	<path d="M11,9.32c-0.551,0-1-0.449-1-1v-2c0-0.551,0.449-1,1-1h2c0.552,0,1,0.449,1,1v2c0,0.551-0.448,1-1,1H11z M11,8.32h2v-2h-2
		L11,8.32z"/>
	<path d="M20.5,15.32c-0.276,0-0.5-0.224-0.5-0.5v-3c0-0.276,0.224-0.5,0.5-0.5s0.5,0.224,0.5,0.5v3
		C21,15.095,20.776,15.32,20.5,15.32z"/>
	<path d="M18.5,23.32c-0.191,0-0.362-0.106-0.447-0.277L16,18.938v3.882c0,0.276-0.224,0.5-0.5,0.5s-0.5-0.224-0.5-0.5v-6
		c0-0.233,0.158-0.433,0.385-0.487c0.038-0.009,0.076-0.013,0.114-0.013c0.188,0,0.365,0.108,0.448,0.276L18,20.702V16.82
		c0-0.276,0.224-0.5,0.5-0.5s0.5,0.224,0.5,0.5v6c0,0.233-0.158,0.433-0.385,0.487C18.576,23.315,18.538,23.32,18.5,23.32z"/>
	<path d="M11.5,23.32c-0.827,0-1.5-0.673-1.5-1.5v-4c0-0.827,0.673-1.5,1.5-1.5h2c0.276,0,0.5,0.224,0.5,0.5s-0.224,0.5-0.5,0.5h-2
		c-0.276,0-0.5,0.224-0.5,0.5v1.5h1.5c0.276,0,0.5,0.224,0.5,0.5s-0.224,0.5-0.5,0.5H11v1.5c0,0.276,0.224,0.5,0.5,0.5h2
		c0.276,0,0.5,0.224,0.5,0.5s-0.224,0.5-0.5,0.5H11.5z"/>
	<path d="M8.5,23.32c-0.134,0-0.259-0.052-0.354-0.146L6,21.027v1.793c0,0.276-0.224,0.5-0.5,0.5S5,23.095,5,22.82v-6
		c0-0.276,0.224-0.5,0.5-0.5H7c1.103,0,2,0.897,2,2s-0.897,2-2,2H6.707l2.146,2.146C8.948,22.561,9,22.686,9,22.82
		s-0.052,0.259-0.146,0.354S8.634,23.32,8.5,23.32z M7,19.32c0.551,0,1-0.448,1-1s-0.449-1-1-1H6v2H7z"/>
	<path d="M22,23.32c-0.276,0-0.5-0.224-0.5-0.5v-5.5h-1c-0.276,0-0.5-0.224-0.5-0.5s0.224-0.5,0.5-0.5h3c0.276,0,0.5,0.224,0.5,0.5
		s-0.224,0.5-0.5,0.5h-1v5.5C22.5,23.095,22.276,23.32,22,23.32z"/>
</g>
</svg>
