<?xml version="1.0" encoding="utf-8"?>
<!-- Generator: Adobe Illustrator 22.1.0, SVG Export Plug-In . SVG Version: 6.00 Build 0)  -->
<svg version="1.1" id="Layer_1" xmlns="http://www.w3.org/2000/svg" xmlns:xlink="http://www.w3.org/1999/xlink" x="0px" y="0px"
	 viewBox="0 0 24 24" style="enable-background:new 0 0 24 24;" xml:space="preserve">
<g>
	<title>share-location-hand-1</title>
	<path d="M0.498,24c-0.276,0-0.5-0.224-0.5-0.5v-7c0-0.276,0.224-0.5,0.5-0.5h4c0.276,0,0.5,0.224,0.5,0.5V17H8
		c1.642,0.03,3.177,0.757,4.235,2H14c4.262,0,8,1.635,8,3.5c0,0.276-0.224,0.5-0.5,0.5H4.998v0.5c0,0.276-0.224,0.5-0.5,0.5H0.498z
		 M3.998,23v-6h-3v6H3.998z M20.781,22c-0.75-0.923-3.352-2-6.781-2H7c-0.276,0-0.5-0.224-0.5-0.5S6.724,19,7,19h3.803
		c-0.798-0.63-1.776-0.981-2.813-1H4.998v4H20.781z"/>
	<path d="M17.498,17.767c-0.305,0-0.6-0.092-0.851-0.266c-0.149-0.103-0.278-0.231-0.381-0.381C14.299,14.269,11,9.097,11,6.5
		C11,2.916,13.916,0,17.5,0S24,2.916,24,6.5c0,2.604-3.3,7.771-5.266,10.62C18.453,17.525,17.991,17.767,17.498,17.767z M17.5,1
		C14.467,1,12,3.467,12,6.5c0,2.413,3.559,7.833,5.089,10.052c0.034,0.049,0.077,0.092,0.127,0.126
		c0.083,0.058,0.181,0.088,0.283,0.088c0.165,0,0.32-0.081,0.413-0.215C19.441,14.336,23,8.92,23,6.5C23,3.467,20.533,1,17.5,1z"/>
	<path d="M17.502,9c-1.378,0-2.5-1.121-2.5-2.5s1.122-2.5,2.5-2.5s2.5,1.121,2.5,2.5S18.88,9,17.502,9z M17.502,5
		c-0.827,0-1.5,0.673-1.5,1.5s0.673,1.5,1.5,1.5s1.5-0.673,1.5-1.5S18.329,5,17.502,5z"/>
</g>
</svg>
