<?xml version="1.0" encoding="utf-8"?>
<!-- Generator: Adobe Illustrator 22.1.0, SVG Export Plug-In . SVG Version: 6.00 Build 0)  -->
<svg version="1.1" id="Light" xmlns="http://www.w3.org/2000/svg" xmlns:xlink="http://www.w3.org/1999/xlink" x="0px" y="0px"
	 viewBox="0 0 24 24" style="enable-background:new 0 0 24 24;" xml:space="preserve">
<g>
	<title>chef-gear-hat</title>
	<path d="M6,24.002c-0.276,0-0.5-0.224-0.5-0.5V10.471C3.519,10.222,2,8.522,2,6.502c0-2.206,1.794-4,4-4
		c0.468,0.003,0.94,0.092,1.379,0.257c0.567-1.054,1.48-1.883,2.592-2.349c0.646-0.271,1.326-0.408,2.022-0.408
		c1.928,0,3.718,1.075,4.627,2.757c0.439-0.166,0.91-0.254,1.376-0.257c2.209,0,4.003,1.794,4.003,4c0,2.021-1.519,3.721-3.5,3.969
		v13.031c0,0.276-0.224,0.5-0.5,0.5H6z M17.5,23.002v-3h-11v3H17.5z M17.5,19.002v-9c0-0.276,0.224-0.5,0.5-0.5c1.654,0,3-1.346,3-3
		c0-1.654-1.345-3-2.999-3c-0.48,0.003-0.958,0.126-1.382,0.355c-0.073,0.039-0.156,0.06-0.238,0.06
		c-0.057,0-0.113-0.01-0.167-0.029c-0.133-0.047-0.24-0.148-0.295-0.279c-0.664-1.584-2.205-2.607-3.926-2.607
		c-0.563,0-1.114,0.111-1.636,0.33C9.323,1.766,8.514,2.575,8.08,3.61C8.026,3.74,7.918,3.841,7.785,3.888
		C7.733,3.907,7.676,3.917,7.619,3.917c-0.083,0-0.165-0.021-0.238-0.06C6.958,3.628,6.479,3.505,5.997,3.502
		C4.345,3.502,3,4.848,3,6.502s1.346,3,3,3c0.276,0,0.5,0.224,0.5,0.5v9h2v-3.5c0-0.276,0.224-0.5,0.5-0.5s0.5,0.224,0.5,0.5v3.5h2
		v-4.5c0-0.276,0.224-0.5,0.5-0.5c0.276,0,0.5,0.224,0.5,0.5v4.5h2v-3.5c0-0.276,0.224-0.5,0.5-0.5s0.5,0.224,0.5,0.5v3.5H17.5z"/>
</g>
</svg>
