<?xml version="1.0" encoding="utf-8"?>
<!-- Generator: Adobe Illustrator 22.1.0, SVG Export Plug-In . SVG Version: 6.00 Build 0)  -->
<svg version="1.1" id="Light" xmlns="http://www.w3.org/2000/svg" xmlns:xlink="http://www.w3.org/1999/xlink" x="0px" y="0px"
	 viewBox="0 0 24 24" style="enable-background:new 0 0 24 24;" xml:space="preserve">
<g>
	<title>chef-gear-cookies</title>
	<path d="M13.666,11.514c-0.245,0-0.453-0.176-0.493-0.418l-0.334-2.004c-0.045-0.272,0.139-0.53,0.411-0.575
		c0.027-0.005,0.055-0.007,0.083-0.007c0.246,0,0.453,0.176,0.493,0.418l0.334,2.004c0.045,0.272-0.139,0.53-0.411,0.575
		C13.72,11.512,13.693,11.514,13.666,11.514z"/>
	<path d="M16.675,11.564c-0.246,0-0.453-0.176-0.493-0.418l-0.377-2.26c-0.022-0.132,0.009-0.264,0.086-0.373
		s0.193-0.181,0.325-0.203c0.028-0.005,0.055-0.007,0.082-0.007c0.246,0,0.453,0.176,0.493,0.418l0.377,2.26
		c0.045,0.272-0.139,0.53-0.411,0.575C16.729,11.562,16.702,11.564,16.675,11.564z"/>
	<path d="M12,18.511c-6.617,0-12-3.365-12-7.5v-0.5C0.029,9.962,0.274,9.457,0.672,9.11C0.763,9.031,0.88,8.987,1,8.987
		c0.145,0,0.282,0.063,0.377,0.172c0.088,0.1,0.131,0.229,0.122,0.362s-0.07,0.255-0.17,0.343C1.134,10.034,1.014,10.279,1,10.536
		c0.004,0.622,1.153,1.504,3.637,2.154c-0.843-0.658-1.511-1.52-1.939-2.519C2.345,9.08,2.49,8.03,3.098,7.194
		c0.782-1.077,2.227-1.698,3.963-1.705c1.236,0.013,2.482,0.289,3.613,0.799c0.78-0.462,1.762-0.708,2.851-0.713
		c0,0,0.032,0,0.033,0c3.02,0,6.35,1.907,7.424,4.252c0.379,0.683,0.447,1.505,0.204,2.25C22.333,11.583,23,11.014,23,10.511
		c0-0.405-0.439-0.862-1.236-1.288c-0.118-0.063-0.204-0.168-0.243-0.296c-0.039-0.128-0.025-0.263,0.038-0.381
		C21.646,8.384,21.814,8.282,22,8.282c0.081,0,0.163,0.02,0.235,0.058C23.406,8.967,24,9.697,24,10.511v0.5
		C24,15.146,18.617,18.511,12,18.511z M1.245,12.368C2.321,15.303,6.827,17.511,12,17.511c5.171,0,9.677-2.206,10.755-5.141
		c-0.644,0.431-1.529,0.812-2.645,1.136c-0.029,0.011-0.058,0.019-0.087,0.024c-1.37,0.39-3.042,0.681-4.839,0.84
		c-0.027,0.007-0.062,0.013-0.103,0.013c-0.012,0-0.025-0.001-0.037-0.002c-1.01,0.085-2.034,0.129-3.044,0.129
		c-1.698,0-3.433-0.123-5.02-0.355c-0.008,0.001-0.015,0.001-0.025,0.001c-0.062,0-0.115-0.014-0.155-0.028
		C4.324,13.751,2.396,13.136,1.245,12.368z M7.24,13.198c1.483,0.208,3.083,0.312,4.76,0.312c0.119,0,0.238,0,0.357-0.002
		c-1.612-0.808-2.804-2.012-3.215-3.297C8.965,9.659,8.923,9.097,9.018,8.566c-1.131,0.269-1.969,0.871-2.327,1.686
		C6.311,11.118,6.506,12.161,7.24,13.198z M13.546,6.575c-1.432,0.007-2.584,0.479-3.177,1.295
		c-0.421,0.579-0.516,1.283-0.274,2.037c0.514,1.604,2.577,3.03,5.023,3.474c1.696-0.144,3.271-0.413,4.562-0.779
		c0.666-0.58,0.841-1.55,0.411-2.326c-0.94-2.049-3.866-3.702-6.531-3.702v-0.25L13.546,6.575z M7.06,6.489
		C5.649,6.495,4.5,6.966,3.907,7.782c-0.421,0.58-0.516,1.285-0.274,2.04c0.411,0.955,1.114,1.779,2.007,2.357
		c-0.226-0.814-0.181-1.608,0.135-2.329c0.554-1.261,1.916-2.143,3.656-2.375c0.042-0.068,0.084-0.131,0.128-0.192
		c0.07-0.097,0.147-0.191,0.228-0.281C8.916,6.675,7.98,6.499,7.06,6.489z"/>
</g>
</svg>
