<?xml version="1.0" encoding="utf-8"?>
<!-- Generator: Adobe Illustrator 22.1.0, SVG Export Plug-In . SVG Version: 6.00 Build 0)  -->
<svg version="1.1" id="Light" xmlns="http://www.w3.org/2000/svg" xmlns:xlink="http://www.w3.org/1999/xlink" x="0px" y="0px"
	 viewBox="0 0 24 24" style="enable-background:new 0 0 24 24;" xml:space="preserve">
<g>
	<title>chef-gear-hat-1</title>
	<path d="M16.5,19.5c-0.276,0-0.5-0.224-0.5-0.5v-3c0-0.276,0.224-0.5,0.5-0.5S17,15.724,17,16v3C17,19.276,16.776,19.5,16.5,19.5z"
		/>
	<path d="M13.5,19.5c-0.276,0-0.5-0.224-0.5-0.5v-3c0-0.276,0.224-0.5,0.5-0.5S14,15.724,14,16v3C14,19.276,13.776,19.5,13.5,19.5z"
		/>
	<path d="M10.5,19.5c-0.276,0-0.5-0.224-0.5-0.5v-3c0-0.276,0.224-0.5,0.5-0.5S11,15.724,11,16v3C11,19.276,10.776,19.5,10.5,19.5z"
		/>
	<path d="M7.5,19.5C7.224,19.5,7,19.276,7,19v-3c0-0.276,0.224-0.5,0.5-0.5S8,15.724,8,16v3C8,19.276,7.776,19.5,7.5,19.5z"/>
	<path d="M5.5,21.5C4.673,21.5,4,20.827,4,20v-5.696c-2.124-1.134-3.493-3.394-3.5-5.803c0-2.413,1.864-6.001,7-6.001
		c1.688,0,3.206,0.904,4.482,1.824c1.287-1.038,2.829-1.667,4.471-1.822c0.008-0.001,0.018-0.001,0.026-0.001
		c5.151,0,7.021,3.588,7.021,5.999c-0.007,2.41-1.376,4.67-3.5,5.804V20c0,0.827-0.673,1.5-1.5,1.5H5.5z M5,20
		c0,0.276,0.224,0.5,0.5,0.5h13c0.276,0,0.5-0.224,0.5-0.5v-5.5H5V20z M19.382,13.5c1.89-0.936,3.112-2.892,3.118-5.001
		c0-2.484-2.061-4.999-6-4.999c-1.322,0.127-2.597,0.625-3.687,1.445c0.151,0.116,0.301,0.232,0.451,0.348
		c1.337,1.034,2.6,2.011,3.818,2.214c0.272,0.045,0.457,0.303,0.411,0.575C17.453,8.324,17.246,8.5,17.001,8.5
		c-0.028,0-0.055-0.002-0.083-0.007c-1.466-0.244-2.826-1.296-4.265-2.41C11.01,4.813,9.313,3.5,7.5,3.5c-3.939,0-6,2.515-6,5
		c0.006,2.108,1.228,4.064,3.118,5H19.382z"/>
</g>
</svg>
