<?xml version="1.0" encoding="utf-8"?>
<!-- Generator: Adobe Illustrator 22.1.0, SVG Export Plug-In . SVG Version: 6.00 Build 0)  -->
<svg version="1.1" id="Light" xmlns="http://www.w3.org/2000/svg" xmlns:xlink="http://www.w3.org/1999/xlink" x="0px" y="0px"
	 viewBox="0 0 24 24" style="enable-background:new 0 0 24 24;" xml:space="preserve">
<g>
	<title>chef-gear-hat-moustache</title>
	<path d="M6,16.499c-0.551,0-1-0.448-1-1V7.357c-1.127-0.782-1.689-2.14-1.437-3.498c0.273-1.429,1.371-2.527,2.798-2.8
		C6.575,1.02,6.792,1,7.006,1c0.731,0,1.442,0.232,2.03,0.658c0.411-0.668,1.032-1.177,1.778-1.447C11.2,0.071,11.6,0,12.005,0
		c0.51,0,1.006,0.111,1.474,0.33c0.627,0.293,1.137,0.749,1.492,1.328C15.56,1.232,16.269,1,17,1c0.214,0,0.43,0.02,0.643,0.059
		c1.429,0.273,2.528,1.371,2.8,2.798c0,0.002,0.001,0.004,0.001,0.005c0.25,1.359-0.314,2.715-1.443,3.496v8.141
		c0,0.552-0.448,1-1,1H6z M6,15.499h12v-2H6V15.499z M18,12.499V7.083c0-0.179,0.096-0.345,0.251-0.434
		c0.914-0.524,1.399-1.571,1.208-2.607c-0.195-1.019-0.981-1.805-2.002-2C17.307,2.014,17.152,2,16.999,2
		c-0.698,0-1.345,0.286-1.822,0.807c-0.094,0.103-0.229,0.162-0.368,0.162c-0.032,0-0.064-0.003-0.097-0.009
		c-0.171-0.034-0.314-0.156-0.373-0.32c-0.226-0.624-0.682-1.123-1.284-1.404c-0.334-0.156-0.687-0.235-1.051-0.235
		c-0.288,0-0.574,0.051-0.849,0.15c-0.694,0.252-1.237,0.795-1.488,1.488c-0.059,0.163-0.202,0.286-0.372,0.32
		C9.261,2.966,9.229,2.969,9.198,2.969c-0.14,0-0.275-0.059-0.369-0.162C8.359,2.294,7.695,2,7.005,2
		C6.853,2,6.698,2.014,6.546,2.042c-1.019,0.195-1.805,0.981-2,2.002C4.354,5.077,4.838,6.124,5.75,6.649
		C5.904,6.739,6,6.905,6,7.083v5.416h2v-2.5c0-0.276,0.224-0.5,0.5-0.5S9,9.723,9,9.999v2.5h2.5v-2.5c0-0.276,0.224-0.5,0.5-0.5
		s0.5,0.224,0.5,0.5v2.5H15v-2.5c0-0.276,0.224-0.5,0.5-0.5s0.5,0.224,0.5,0.5v2.5H18z"/>
	<path d="M15.798,23.999c-1.923,0-3.177-0.838-3.798-1.732c-0.621,0.894-1.875,1.732-3.798,1.732c-0.863,0-1.616-0.215-2.178-0.623
		C5.354,22.891,5,22.166,5,21.28c-0.001-0.287,0.05-0.569,0.152-0.838c0.073-0.193,0.261-0.323,0.468-0.323
		c0.06,0,0.118,0.011,0.174,0.032c0.227,0.085,0.465,0.128,0.707,0.129c0.967,0,1.196-0.351,1.512-0.838
		C8.352,18.924,8.772,18.28,10,18.28c0.798,0.002,1.532,0.38,2,1.008c0.468-0.628,1.202-1.006,1.999-1.008
		c1.229,0,1.649,0.645,1.986,1.162c0.317,0.487,0.546,0.838,1.515,0.838c0.24-0.001,0.478-0.045,0.705-0.129
		c0.056-0.021,0.115-0.032,0.175-0.032c0.206,0,0.394,0.13,0.467,0.323c0.102,0.269,0.154,0.551,0.153,0.84
		c0,0.885-0.354,1.609-1.024,2.095C17.414,23.784,16.661,23.999,15.798,23.999z M14.001,19.28c-0.825,0.002-1.499,0.675-1.501,1.501
		c0,1.327,1.705,2.219,3.298,2.219c0.642,0,1.207-0.154,1.591-0.432C17.8,22.269,18,21.848,18,21.28c0-0.014,0-0.029,0-0.043
		c-0.164,0.028-0.33,0.042-0.497,0.043c-1.513,0-2-0.747-2.355-1.292C14.86,19.547,14.686,19.28,14.001,19.28L14.001,19.28z
		 M6,21.278c0,0.569,0.2,0.99,0.611,1.289c0.385,0.279,0.95,0.432,1.591,0.432c1.593,0,3.298-0.892,3.298-2.219
		c-0.002-0.825-0.676-1.498-1.501-1.5c-0.685,0-0.859,0.267-1.146,0.708C8.497,20.533,8.011,21.28,6.5,21.28
		c-0.168-0.001-0.335-0.015-0.5-0.043C6,21.251,6,21.264,6,21.278z"/>
</g>
</svg>
