<?xml version="1.0" encoding="utf-8"?>
<!-- Generator: Adobe Illustrator 22.1.0, SVG Export Plug-In . SVG Version: 6.00 Build 0)  -->
<svg version="1.1" id="Light" xmlns="http://www.w3.org/2000/svg" xmlns:xlink="http://www.w3.org/1999/xlink" x="0px" y="0px"
	 viewBox="0 0 24 24" style="enable-background:new 0 0 24 24;" xml:space="preserve">
<g>
	<title>chef-gear-cookie-bowl</title>
	<path d="M7.258,24.006c-0.139,0-0.274-0.028-0.401-0.084c-0.505-0.221-0.736-0.811-0.516-1.316L6.61,21.98
		c0.111-0.254-0.003-0.549-0.253-0.661c-3.7-1.599-6.196-5.238-6.357-9.27l-0.001-0.045c0.001-0.551,0.449-0.999,1-0.999h1.054
		c-1.765-3.295-0.81-7.453,2.281-9.635C5.6,0.477,7.092,0.005,8.651,0.005c1.318,0,2.613,0.347,3.747,1.004
		c0.116,0.067,0.198,0.175,0.233,0.304c0.034,0.129,0.016,0.264-0.051,0.38c-0.089,0.154-0.255,0.249-0.433,0.249
		c-0.088,0-0.174-0.023-0.25-0.067c-0.982-0.569-2.104-0.87-3.246-0.87c-1.35,0-2.644,0.409-3.74,1.183
		c-2.827,1.996-3.573,5.927-1.696,8.818h2.879c-0.001-0.026-0.001-0.052-0.001-0.078c0-4.497,3.659-8.156,8.156-8.156
		c0.457,0,0.916,0.041,1.366,0.121c0.025,0.005,0.05,0.01,0.074,0.016c0.272,0.07,0.5,0.24,0.643,0.481
		c0.143,0.241,0.184,0.523,0.114,0.794c-0.038,0.149-0.057,0.302-0.057,0.456c0,1.081,0.88,1.96,1.961,1.96
		c0.058,0,0.116-0.003,0.174-0.009c0.023-0.002,0.044-0.003,0.067-0.004l0.027-0.001c0.292,0.002,0.555,0.112,0.751,0.312
		s0.304,0.463,0.302,0.742c0,0.631,0.512,1.147,1.141,1.147c0.078,0,0.154-0.008,0.229-0.024c0.001,0,0.044-0.008,0.05-0.009
		c0.052-0.009,0.112-0.014,0.172-0.014c0.217,0,0.426,0.067,0.604,0.194c0.228,0.162,0.38,0.403,0.427,0.679
		c0.074,0.432,0.112,0.875,0.113,1.315c0,0.026,0,0.053-0.001,0.079H23l0.044,0.001c0.554,0.027,0.981,0.495,0.956,1.045
		c-0.16,4.03-2.656,7.67-6.359,9.271c-0.246,0.11-0.359,0.404-0.249,0.655l0.275,0.627c0.056,0.127,0.084,0.261,0.084,0.4
		c0,0.266-0.104,0.518-0.293,0.707c-0.189,0.189-0.44,0.293-0.707,0.293C16.75,24.006,7.258,24.006,7.258,24.006z M0.999,12.006
		c0.145,3.649,2.406,6.949,5.76,8.398c0.755,0.336,1.099,1.222,0.769,1.975l-0.268,0.625l9.49,0.003l-0.275-0.626
		c-0.33-0.753,0.012-1.638,0.763-1.972c3.356-1.452,5.617-4.748,5.762-8.397L0.999,12.006L1,11.756L0.999,12.006z M21.405,11.006
		c0.001-0.026,0.001-0.052,0.001-0.078c-0.001-0.383-0.034-0.769-0.099-1.148c-0.002-0.014-0.009-0.024-0.02-0.032
		c-0.009-0.006-0.017-0.009-0.026-0.009c-0.16,0.033-0.288,0.048-0.415,0.048l-0.041-0.001c-1.173,0-2.134-0.96-2.134-2.14
		c0-0.036-0.019-0.061-0.047-0.061C18.53,7.595,18.44,7.6,18.35,7.6c-1.633,0-2.961-1.328-2.961-2.961
		c0-0.238,0.03-0.474,0.089-0.703c0.003-0.013,0.001-0.025-0.005-0.036c-0.007-0.011-0.017-0.019-0.03-0.022
		c-0.393-0.07-0.79-0.105-1.195-0.106c-3.945,0-7.156,3.21-7.156,7.156c0,0.026,0,0.052,0.001,0.078H21.405z"/>
	<circle cx="8" cy="3.006" r="0.75"/>
	<circle cx="4.75" cy="5.756" r="0.75"/>
	<circle cx="10.25" cy="9.256" r="0.75"/>
	<circle cx="12.25" cy="6.756" r="0.75"/>
	<circle cx="15.75" cy="9.256" r="0.75"/>
</g>
</svg>
