<?xml version="1.0" encoding="utf-8"?>
<!-- Generator: Adobe Illustrator 22.1.0, SVG Export Plug-In . SVG Version: 6.00 Build 0)  -->
<svg version="1.1" id="Light" xmlns="http://www.w3.org/2000/svg" xmlns:xlink="http://www.w3.org/1999/xlink" x="0px" y="0px"
	 viewBox="0 0 24 24" style="enable-background:new 0 0 24 24;" xml:space="preserve">
<g>
	<title>chef-gear-mug</title>
	<path d="M11.64,24.001c-4.276,0-7.5-1.505-7.5-3.5c0-1.115,0.966-2.079,2.729-2.732c-0.145-0.252-0.267-0.512-0.367-0.777
		c-0.369-0.983-0.448-2.045-0.228-3.071l0.4-1.849c0.05-0.229,0.256-0.394,0.49-0.394c0.035,0,0.07,0.004,0.104,0.011
		c0.271,0.059,0.443,0.325,0.384,0.595l-0.4,1.848c-0.18,0.838-0.115,1.706,0.186,2.509c0.652,1.738,2.338,2.906,4.194,2.906
		c1.863,0,3.547-1.166,4.2-2.901c0.301-0.803,0.365-1.671,0.185-2.51l-0.944-4.407c-0.105-0.492-0.143-0.993-0.11-1.495
		c-0.423,0.166-0.873,0.253-1.324,0.254v5.514c0,1.103-0.897,2-2,2s-2-0.897-2-2v-3.644c-0.43,0.256-0.917,0.399-1.431,0.419
		c0,0-0.001,0-0.001,0c-0.76,0-1.465-0.291-1.996-0.82C5.682,9.426,5.39,8.723,5.39,7.975c0.002-0.156,0.017-0.31,0.044-0.461
		C4.701,6.928,4.268,6.063,4.238,5.116c-0.001-0.021,0-0.044,0.002-0.066c0.184-1.87,1.803-3.336,3.685-3.336
		c0.092,0,0.186,0.004,0.279,0.011c0.751-1.084,1.974-1.727,3.302-1.727c0.05,0,0.1,0.001,0.15,0.003
		c0.036-0.002,0.093-0.004,0.149-0.004c1.471,0,2.83,0.846,3.489,2.163c1.166,0.506,1.954,1.64,2.018,2.915
		c0.001,0.026,0,0.05-0.002,0.074c0,0.006-0.001,0.012-0.002,0.018c0.064-0.005,0.129-0.008,0.194-0.008
		c0.27,0,0.537,0.046,0.793,0.138c0.595,0.212,1.073,0.644,1.344,1.215c0.021,0.044,0.041,0.09,0.06,0.137
		c0.351,0.879,0.146,1.88-0.524,2.55l-1.221,1.217c-0.104,0.104-0.19,0.223-0.256,0.354L16.733,12.7l0.262,1.225
		c0.22,1.026,0.142,2.088-0.227,3.071c-0.099,0.262-0.22,0.52-0.364,0.771c1.767,0.655,2.735,1.619,2.735,2.734
		C19.14,22.496,15.915,24.001,11.64,24.001z M7.467,18.618c-1.44,0.486-2.328,1.2-2.328,1.882c0,1.182,2.669,2.5,6.5,2.5
		s6.5-1.318,6.5-2.5c0-0.681-0.889-1.396-2.332-1.884c-1.037,1.211-2.582,1.928-4.166,1.928C10.05,20.545,8.505,19.828,7.467,18.618
		z M10.14,8.738c0.053,0,0.105,0.008,0.155,0.025c0.207,0.068,0.345,0.259,0.345,0.475v4.762c0,0.552,0.449,1,1,1s1-0.448,1-1V7.966
		c0-0.276,0.224-0.5,0.5-0.5c0.047,0,0.094,0.002,0.141,0.005c0.031,0.002,0.058,0.004,0.084,0.004
		c0.097,0.007,0.174,0.01,0.249,0.01c1.388,0,2.543-1.029,2.697-2.397c-0.061-0.938-0.67-1.747-1.555-2.066
		c-0.129-0.047-0.235-0.146-0.289-0.272c-0.462-1.065-1.512-1.753-2.674-1.753c-0.044,0-0.088,0.001-0.132,0.003
		C11.6,0.998,11.56,0.998,11.52,0.998c-1.096,0-2.077,0.562-2.624,1.502C8.807,2.653,8.641,2.748,8.463,2.748
		c-0.005,0-0.025-0.001-0.03-0.001C8.386,2.744,8.342,2.74,8.298,2.735C8.253,2.73,8.221,2.725,8.188,2.725
		c-0.096-0.007-0.17-0.01-0.245-0.01c-1.393,0-2.552,1.031-2.704,2.401c0.033,0.721,0.417,1.38,1.028,1.766
		c0.194,0.122,0.28,0.36,0.209,0.578C6.421,7.629,6.392,7.805,6.39,7.982c0,0.988,0.807,1.794,1.8,1.794
		C8.8,9.752,9.367,9.448,9.736,8.943C9.83,8.815,9.981,8.738,10.14,8.738z M16.072,7.558c-0.15,0.643-0.157,1.319-0.02,1.959
		l0.346,1.616l0.406-0.811c0.115-0.229,0.264-0.436,0.444-0.615l1.221-1.216c0.386-0.386,0.505-0.964,0.302-1.472
		c-0.01-0.027-0.022-0.052-0.034-0.078c-0.225-0.474-0.71-0.78-1.237-0.78c-0.164,0-0.323,0.029-0.476,0.086
		C16.807,6.748,16.48,7.198,16.072,7.558z"/>
</g>
</svg>
