<?xml version="1.0" encoding="utf-8"?>
<!-- Generator: Adobe Illustrator 22.1.0, SVG Export Plug-In . SVG Version: 6.00 Build 0)  -->
<svg version="1.1" id="Light" xmlns="http://www.w3.org/2000/svg" xmlns:xlink="http://www.w3.org/1999/xlink" x="0px" y="0px"
	 viewBox="0 0 24 24" style="enable-background:new 0 0 24 24;" xml:space="preserve">
<g>
	<title>chef-gear-biscuits-cup</title>
	<path d="M9.001,24.001c-0.827,0-1.5-0.673-1.5-1.5v-0.436L4.68,11.253c-0.021-0.082-0.032-0.167-0.032-0.252c0-0.551,0.449-1,1-1
		h1.231L4.899,3.932C4.386,2.359,5.248,0.663,6.821,0.15c0.302-0.098,0.614-0.148,0.929-0.148c1.303,0,2.449,0.831,2.854,2.068
		l1.445,4.429l1.178-3.566c0.252-0.761,0.784-1.378,1.5-1.738c0.424-0.213,0.876-0.321,1.345-0.321c0.32,0,0.638,0.052,0.945,0.153
		c1.571,0.519,2.426,2.219,1.907,3.79l-1.713,5.185h1.143c0.085,0,0.169,0.011,0.251,0.032c0.259,0.067,0.476,0.231,0.611,0.462
		c0.135,0.231,0.173,0.5,0.105,0.758l-2.821,10.812v0.436c0,0.827-0.673,1.5-1.5,1.5H9.001z M8.484,21.874
		c0.011,0.042,0.016,0.084,0.016,0.126v0.5c0,0.276,0.224,0.5,0.5,0.5h6c0.276,0,0.5-0.224,0.5-0.5v-0.5
		c0-0.043,0.005-0.085,0.016-0.126l2.837-10.874l-12.706,0v0L8.484,21.874z M16.157,10.001l1.817-5.499
		c0.346-1.047-0.224-2.181-1.271-2.527c-0.204-0.067-0.414-0.101-0.627-0.101c-0.865,0-1.629,0.551-1.901,1.372l-2.23,6.755H16.157z
		 M10.892,10.001l0.627-1.9L9.652,2.38C9.383,1.555,8.618,1.001,7.75,1.001c-0.21,0-0.418,0.033-0.619,0.099
		C6.083,1.442,5.508,2.574,5.85,3.622l2.08,6.379H10.892z"/>
	<path d="M9.447,8.702c-0.217,0-0.408-0.139-0.475-0.345L7.121,2.681C7.08,2.554,7.09,2.419,7.151,2.299
		c0.06-0.119,0.164-0.207,0.291-0.249c0.051-0.016,0.103-0.025,0.155-0.025c0.217,0,0.408,0.139,0.475,0.345l1.851,5.676
		c0.086,0.262-0.058,0.545-0.32,0.63C9.552,8.694,9.5,8.702,9.447,8.702z"/>
	<path d="M14.617,8.79c-0.053,0-0.105-0.008-0.156-0.025c-0.128-0.042-0.23-0.131-0.291-0.25c-0.06-0.119-0.07-0.255-0.028-0.382
		l1.615-4.892c0.068-0.205,0.258-0.343,0.474-0.343c0.053,0,0.106,0.008,0.156,0.025c0.128,0.042,0.23,0.131,0.291,0.25
		c0.06,0.119,0.07,0.255,0.028,0.382l-1.615,4.892C15.024,8.652,14.833,8.79,14.617,8.79z"/>
</g>
</svg>
