<?xml version="1.0" encoding="utf-8"?>
<!-- Generator: Adobe Illustrator 22.1.0, SVG Export Plug-In . SVG Version: 6.00 Build 0)  -->
<svg version="1.1" id="Light" xmlns="http://www.w3.org/2000/svg" xmlns:xlink="http://www.w3.org/1999/xlink" x="0px" y="0px"
	 viewBox="0 0 24 24" style="enable-background:new 0 0 24 24;" xml:space="preserve">
<g>
	<title>peacock-feathers-up</title>
	<path d="M13.496,24.012c-0.276,0-0.5-0.224-0.5-0.5s0.224-0.5,0.5-0.5h0.39l-0.259-1.294c-0.528,0.193-1.086,0.294-1.631,0.294
		c-0.545,0-1.104-0.101-1.631-0.294l-0.259,1.294h0.39c0.276,0,0.5,0.224,0.5,0.5s-0.224,0.5-0.5,0.5h-2c-0.276,0-0.5-0.224-0.5-0.5
		s0.224-0.5,0.5-0.5h0.59l0.35-1.749c-0.386-0.244-0.729-0.537-1.02-0.873c-0.74-0.853-1.064-1.9-0.915-2.949
		c0.487-2.573,1.303-5.059,2.427-7.403L9.323,9.035C9.311,9.014,9.3,8.993,9.291,8.97C8.903,8.051,8.997,7.004,9.542,6.168
		c0.438-0.671,1.11-1.132,1.895-1.297c0.206-0.043,0.416-0.065,0.625-0.065c0.578,0,1.143,0.169,1.632,0.488
		c0.019,0.012,0.036,0.026,0.053,0.04l3.293,2.839c0.135,0.117,0.198,0.298,0.165,0.473c-0.034,0.175-0.159,0.32-0.327,0.378
		l-2.702,0.937c1.043,2.39,1.82,4.898,2.313,7.458c0.153,1.069-0.171,2.12-0.911,2.973c-0.292,0.336-0.634,0.629-1.02,0.873
		l0.35,1.749h0.59c0.276,0,0.5,0.224,0.5,0.5s-0.224,0.5-0.5,0.5H13.496z M10.924,9.754c0.088,0.146,0.096,0.325,0.021,0.478
		c-1.146,2.336-1.973,4.816-2.458,7.373c-0.105,0.739,0.137,1.5,0.684,2.13c0.683,0.787,1.766,1.277,2.825,1.277
		s2.141-0.489,2.825-1.277c0.547-0.631,0.788-1.395,0.68-2.153c-0.48-2.495-1.246-4.951-2.274-7.295l-0.567,0.197
		c-0.053,0.018-0.108,0.028-0.164,0.028c-0.213,0-0.403-0.135-0.473-0.336c-0.044-0.126-0.036-0.262,0.023-0.382
		s0.16-0.21,0.286-0.254l3.397-1.177l-2.608-2.248c-0.32-0.202-0.687-0.308-1.061-0.308c-0.139,0-0.279,0.015-0.417,0.044
		c-0.523,0.11-0.971,0.417-1.263,0.865C10.024,7.261,9.956,7.946,10.2,8.551L10.924,9.754z"/>
	<path d="M11.996,8.262c-0.414,0-0.75-0.336-0.75-0.75s0.336-0.75,0.75-0.75c0.413,0,0.75,0.336,0.75,0.75
		S12.409,8.262,11.996,8.262z"/>
	<path d="M17.996,19.012c-0.276,0-0.5-0.224-0.5-0.5s0.224-0.5,0.5-0.5h3.216c1.055-1.619,1.661-3.482,1.762-5.414l-5.902,0.908
		c-0.026,0.004-0.052,0.006-0.076,0.006c-0.248,0-0.456-0.178-0.494-0.424c-0.02-0.132,0.012-0.264,0.091-0.372
		c0.079-0.108,0.195-0.178,0.327-0.198l6.061-0.932c-0.085-2.168-0.789-4.228-2.045-5.984l-2.716,1.358
		c-0.069,0.035-0.146,0.053-0.223,0.053c-0.191,0-0.363-0.106-0.448-0.277c-0.123-0.246-0.023-0.547,0.224-0.671l2.531-1.266
		c-0.614-0.709-1.314-1.335-2.085-1.863c-0.765-0.525-1.596-0.951-2.475-1.269l-1.302,2.571c-0.086,0.169-0.257,0.274-0.447,0.274
		c-0.078,0-0.156-0.019-0.225-0.054c-0.246-0.125-0.345-0.426-0.221-0.672l1.226-2.42c-0.903-0.235-1.833-0.354-2.77-0.354
		c-0.941,0-1.878,0.12-2.788,0.357l1.224,2.417c0.06,0.119,0.071,0.255,0.029,0.382c-0.042,0.127-0.13,0.23-0.249,0.29
		c-0.07,0.035-0.148,0.054-0.226,0.054c-0.19,0-0.361-0.105-0.446-0.274L8.248,1.668C6.471,2.31,4.895,3.397,3.663,4.829l4.59,2.754
		C8.367,7.652,8.448,7.761,8.481,7.89s0.012,0.264-0.056,0.379c-0.09,0.15-0.254,0.243-0.429,0.243c-0.09,0-0.179-0.025-0.257-0.071
		L3.04,5.621C3.001,5.675,2.963,5.729,2.925,5.783c-1.179,1.719-1.841,3.72-1.919,5.801l6.066,0.933
		c0.132,0.02,0.248,0.091,0.327,0.198s0.111,0.24,0.091,0.372c-0.038,0.246-0.245,0.424-0.494,0.424
		c-0.025,0-0.051-0.002-0.076-0.006l-5.908-0.909c0.1,1.932,0.708,3.795,1.767,5.415h3.217c0.276,0,0.5,0.224,0.5,0.5
		s-0.224,0.5-0.5,0.5H2.513c-0.164,0-0.318-0.081-0.412-0.216c-1.38-2.005-2.108-4.351-2.105-6.784
		C-0.006,9.576,0.722,7.226,2.1,5.218c1.501-2.188,3.629-3.78,6.155-4.606c0.005-0.003,0.011-0.006,0.016-0.009
		c0.051-0.026,0.107-0.042,0.167-0.049c1.16-0.359,2.363-0.541,3.576-0.541c1.247,0,2.479,0.193,3.661,0.573
		c0.007,0.002,0.014,0.004,0.021,0.007c1.099,0.356,2.138,0.867,3.087,1.518c3.23,2.216,5.175,5.885,5.205,9.819
		c0.001,0.003,0.001,0.006,0.001,0.009c0.007,0.042,0.002,0.079,0,0.1c-0.001,2.414-0.727,4.755-2.099,6.755
		c-0.093,0.136-0.247,0.217-0.412,0.217H17.996z"/>
</g>
</svg>
