<?xml version="1.0" encoding="utf-8"?>
<!-- Generator: Adobe Illustrator 22.1.0, SVG Export Plug-In . SVG Version: 6.00 Build 0)  -->
<svg version="1.1" id="Light" xmlns="http://www.w3.org/2000/svg" xmlns:xlink="http://www.w3.org/1999/xlink" x="0px" y="0px"
	 viewBox="0 0 24 24" style="enable-background:new 0 0 24 24;" xml:space="preserve">
<g>
	<title>peacock-feather</title>
	<path d="M22.499,24c-0.234,0-0.434-0.159-0.487-0.387c-0.481-2.084-1.129-4.042-1.927-5.826c-0.366,0.221-0.755,0.394-1.16,0.514
		c-0.459,0.136-0.937,0.205-1.421,0.205c-0.615,0-1.214-0.11-1.782-0.326c-0.258-0.098-0.387-0.388-0.289-0.645
		c0.073-0.193,0.261-0.323,0.467-0.323c0.061,0,0.122,0.011,0.179,0.034c0.454,0.173,0.934,0.261,1.425,0.261
		c0.387,0,0.77-0.055,1.136-0.164c0.356-0.106,0.697-0.263,1.016-0.468c-0.529-1.073-1.119-2.084-1.757-3.014
		c-0.378,0.361-0.806,0.657-1.277,0.884c-0.672,0.324-1.425,0.495-2.177,0.495c-0.338,0-0.675-0.034-1.003-0.102
		c-0.131-0.027-0.243-0.103-0.317-0.215c-0.073-0.112-0.099-0.245-0.072-0.376c0.048-0.231,0.254-0.399,0.49-0.399
		c0.033,0,0.066,0.003,0.099,0.01c0.264,0.054,0.533,0.082,0.803,0.082c0.603,0,1.205-0.137,1.742-0.396
		c0.421-0.203,0.798-0.473,1.12-0.802c-0.631-0.835-1.308-1.603-2.017-2.289c-0.329,0.386-0.708,0.715-1.129,0.981
		c-0.801,0.504-1.719,0.771-2.655,0.771c-0.373,0-0.749-0.042-1.117-0.126c-1.302-0.296-2.411-1.081-3.123-2.212L1.082,0.775
		C0.969,0.603,0.972,0.382,1.09,0.213C1.184,0.08,1.337,0,1.5,0c0.039,0,0.078,0.005,0.116,0.014l10.811,2.571
		c0.015,0.004,0.031,0.008,0.046,0.013C13.814,2.864,15,3.68,15.73,4.838c0.977,1.551,1.025,3.481,0.139,5.083
		c0.722,0.687,1.414,1.455,2.062,2.289c0.12-0.211,0.219-0.428,0.297-0.65c0.352-1.009,0.291-2.094-0.173-3.057
		c-0.12-0.248-0.015-0.547,0.233-0.667c0.07-0.033,0.142-0.05,0.218-0.05c0.191,0,0.368,0.111,0.45,0.283
		c0.58,1.203,0.657,2.559,0.217,3.82c-0.147,0.42-0.349,0.818-0.601,1.186c0.682,0.97,1.311,2.023,1.874,3.138
		c0.226-0.244,0.418-0.512,0.574-0.8c0.509-0.939,0.622-2.021,0.318-3.045c-0.078-0.264,0.073-0.543,0.337-0.622
		c0.047-0.014,0.095-0.021,0.143-0.021c0.223,0,0.415,0.144,0.479,0.358c0.38,1.281,0.239,2.632-0.398,3.806
		c-0.259,0.477-0.592,0.906-0.994,1.279c0.868,1.898,1.569,3.989,2.083,6.219c0.03,0.13,0.008,0.264-0.063,0.377
		c-0.071,0.113-0.181,0.192-0.312,0.222C22.576,23.996,22.538,24,22.499,24z M8.108,9.625c0.741,1.176,2.01,1.876,3.398,1.876
		c0.752,0,1.486-0.212,2.123-0.614c0.903-0.568,1.53-1.456,1.767-2.499c0.237-1.043,0.055-2.115-0.514-3.017
		c-0.594-0.944-1.565-1.601-2.663-1.803c-0.031-0.006-0.063-0.015-0.092-0.026L2.611,1.278L8.108,9.625z"/>
	<circle cx="11.5" cy="7.5" r="0.75"/>
	<path d="M11.5,10.5c-1.654,0-3-1.346-3-3s1.346-3,3-3c1.654,0,3,1.346,3,3S13.154,10.5,11.5,10.5z M11.5,5.5c-1.103,0-2,0.897-2,2
		s0.897,2,2,2s2-0.897,2-2S12.602,5.5,11.5,5.5z"/>
</g>
</svg>
