<?xml version="1.0" encoding="utf-8"?>
<!-- Generator: Adobe Illustrator 22.1.0, SVG Export Plug-In . SVG Version: 6.00 Build 0)  -->
<svg version="1.1" id="Light" xmlns="http://www.w3.org/2000/svg" xmlns:xlink="http://www.w3.org/1999/xlink" x="0px" y="0px"
	 viewBox="0 0 24 24" style="enable-background:new 0 0 24 24;" xml:space="preserve">
<g>
	<title>peacock-head</title>
	<path d="M12.5,24c-0.276,0-0.5-0.224-0.5-0.5V19c0-0.869,0.096-2.553,0.741-4.064c0.818-1.917,2.288-2.933,4.25-2.936
		c0.07-0.032,0.259-0.38,0.259-1s-0.189-0.968-0.264-1.002c-0.001,0-0.002,0-0.004,0c-0.849,0-1.497-0.662-2.183-1.363
		C14.048,7.868,13.198,7,12,7c-1.396,0-2.398,0.15-3.072,0.896C8.923,7.902,8.911,7.914,8.91,7.915C8.301,8.597,8,9.772,8,11.5
		c0,7.455-1.468,11.654-4.363,12.481C3.591,23.994,3.545,24,3.5,24c-0.222,0-0.42-0.149-0.481-0.363
		c-0.076-0.265,0.078-0.542,0.343-0.618C5.776,22.33,7,18.454,7,11.5c0-1.462,0.208-2.597,0.634-3.452L4,8.006
		C3.997,8.83,3.325,9.5,2.5,9.5C1.673,9.5,1,8.827,1,8c0-4.411,3.589-8,8-8c0.827,0,1.5,0.673,1.5,1.5c0,0.825-0.67,1.497-1.494,1.5
		l0.042,3.548C9.925,6.073,10.978,6,12,6c1.619,0,2.668,1.072,3.512,1.934C16.072,8.506,16.556,9,17,9c0.06,0,6,0.052,6,4.5
		c0,0.167-0.083,0.323-0.222,0.416C22.696,13.971,22.6,14,22.5,14c-0.066,0-0.13-0.013-0.191-0.038
		c-1.555-0.643-3.196-0.969-4.875-0.969c-0.139,0-0.278,0.002-0.418,0.007c-0.002,0-0.013,0-0.016,0c-3.61,0-4,4.196-4,6v4.5
		C13,23.776,12.776,24,12.5,24z M18.104,12.01c1.3,0.062,2.579,0.308,3.812,0.734c-0.244-1.032-1.025-1.794-2.327-2.27
		c-0.511-0.187-1.028-0.299-1.451-0.366c0.073,0.269,0.111,0.574,0.111,0.892C18.25,11.367,18.199,11.714,18.104,12.01z M9,1
		C5.14,1,2,4.14,2,8c0,0.276,0.224,0.5,0.5,0.5S3,8.276,3,8c0-0.157,0.007-0.32,0.022-0.498c0-0.002,0-0.004,0-0.005
		c0-0.016,0.002-0.033,0.005-0.05c0.13-1.384,0.735-2.677,1.706-3.661c0.008-0.011,0.016-0.021,0.024-0.029
		c0.009-0.008,0.019-0.017,0.03-0.026c0.98-0.972,2.283-1.58,3.664-1.706c0.016-0.003,0.031-0.004,0.046-0.004
		c0.004,0,0.008,0,0.012,0C8.672,2.008,8.84,2,9,2c0.276,0,0.5-0.224,0.5-0.5S9.276,1,9,1z M7.338,7.045L5.134,4.842
		c-0.517,0.63-0.868,1.37-1.029,2.165L7.338,7.045z M8.045,6.338L8.007,3.106C7.212,3.266,6.472,3.618,5.842,4.134L8.045,6.338z"/>
	<circle cx="13.5" cy="10.5" r="0.75"/>
</g>
</svg>
