<?xml version="1.0" encoding="utf-8"?>
<!-- Generator: Adobe Illustrator 22.1.0, SVG Export Plug-In . SVG Version: 6.00 Build 0)  -->
<svg version="1.1" id="Layer_1" xmlns="http://www.w3.org/2000/svg" xmlns:xlink="http://www.w3.org/1999/xlink" x="0px" y="0px"
	 viewBox="0 0 24 24" style="enable-background:new 0 0 24 24;" xml:space="preserve">
<g>
	<title>launch-go</title>
	<path d="M23.501,24c-0.276,0-0.5-0.224-0.5-0.5V16H1v7.5C1,23.776,0.776,24,0.5,24S0,23.776,0,23.5v-23C0,0.224,0.224,0,0.5,0
		S1,0.224,1,0.5V1h22.001V0.5c0-0.276,0.224-0.5,0.5-0.5s0.5,0.224,0.5,0.5v23C24.001,23.776,23.777,24,23.501,24z M23.001,15V2H1
		v13H23.001z"/>
	<path d="M15,12c-1.103,0-2-0.897-2-2V7c0-1.103,0.897-2,2-2s2,0.897,2,2v3C17,11.103,16.103,12,15,12z M15,6c-0.552,0-1,0.449-1,1
		v3c0,0.551,0.448,1,1,1s1-0.449,1-1V7C16,6.449,15.552,6,15,6z"/>
	<path d="M9,12c-1.103,0-2-0.897-2-2V7c0-1.103,0.897-2,2-2s2,0.897,2,2v0.5C11,7.776,10.776,8,10.5,8S10,7.776,10,7.5V7
		c0-0.551-0.449-1-1-1S8,6.449,8,7v3c0,0.551,0.449,1,1,1s1-0.449,1-1H9.5C9.224,10,9,9.776,9,9.5S9.224,9,9.5,9h1
		C10.776,9,11,9.224,11,9.5V10C11,11.103,10.103,12,9,12z"/>
</g>
</svg>
