<?xml version="1.0" encoding="utf-8"?>
<!-- Generator: Adobe Illustrator 22.1.0, SVG Export Plug-In . SVG Version: 6.00 Build 0)  -->
<svg version="1.1" id="Light" xmlns="http://www.w3.org/2000/svg" xmlns:xlink="http://www.w3.org/1999/xlink" x="0px" y="0px"
	 viewBox="0 0 24 24" style="enable-background:new 0 0 24 24;" xml:space="preserve">
<g>
	<title>stove-pan</title>
	<path d="M10,10c-1.103,0-2-0.897-2-2V5H0.5C0.224,5,0,4.776,0,4.5S0.224,4,0.5,4H23c0.552,0,1,0.449,1,1v3c0,1.103-0.897,2-2,2H10z
		 M9,8c0,0.551,0.449,1,1,1h12c0.552,0,1-0.449,1-1V5H9V8z"/>
	<path d="M13.5,20c-1.103,0-2-0.897-2-2c0-0.912,1.303-3.279,1.564-3.745c0.084-0.151,0.244-0.249,0.417-0.255
		C13.484,14,13.504,14,13.507,14c0.164,0,0.316,0.084,0.409,0.224l0.562,0.842l1.094-1.823c0.088-0.147,0.248-0.234,0.429-0.234
		s0.341,0.087,0.429,0.234l1.094,1.823l0.562-0.843C18.177,14.083,18.329,14,18.491,14c0.007,0,0.033,0.001,0.04,0.002
		c0.16,0.006,0.32,0.103,0.405,0.254C19.197,14.721,20.5,17.088,20.5,18c0,1.103-0.897,2-2,2H13.5z M13.545,15.469
		C12.921,16.665,12.5,17.678,12.5,18c0,0.552,0.448,1,1,1h5c0.552,0,1-0.448,1-1c0-0.322-0.421-1.335-1.045-2.531l-0.539,0.809
		c-0.092,0.138-0.249,0.222-0.42,0.223c-0.18-0.004-0.336-0.095-0.424-0.242L16,14.472l-1.071,1.786
		c-0.089,0.147-0.244,0.238-0.417,0.243c-0.183-0.002-0.336-0.083-0.428-0.223L13.545,15.469z"/>
</g>
</svg>
