<?xml version="1.0" encoding="utf-8"?>
<!-- Generator: Adobe Illustrator 22.1.0, SVG Export Plug-In . SVG Version: 6.00 Build 0)  -->
<svg version="1.1" id="Light" xmlns="http://www.w3.org/2000/svg" xmlns:xlink="http://www.w3.org/1999/xlink" x="0px" y="0px"
	 viewBox="0 0 24 24" style="enable-background:new 0 0 24 24;" xml:space="preserve">
<g>
	<title>stove-induction</title>
	<path d="M3.118,20.5c-0.572,0-1.086-0.318-1.341-0.829L1.17,18.457C0.494,18.305,0,17.7,0,17v-4c0-0.062,0.011-0.124,0.034-0.181
		l3.252-8.362C3.512,3.876,4.06,3.5,4.684,3.5h14.632c0.624,0,1.173,0.376,1.398,0.957l3.184,8.187C23.966,12.817,24,13,24,13.188
		V17c0,0.7-0.494,1.305-1.17,1.458l-0.607,1.213c-0.256,0.511-0.769,0.829-1.341,0.829C20.882,20.5,3.118,20.5,3.118,20.5z
		 M2.671,19.223c0.085,0.17,0.257,0.276,0.447,0.277h17.764c0.19,0,0.361-0.106,0.447-0.277l0.362-0.723H2.309L2.671,19.223z
		 M22.5,17.5c0.276,0,0.5-0.224,0.5-0.5v-3.5h-8v4H22.5z M14,17.5v-4h-4v4H14z M1,17c0,0.276,0.224,0.5,0.5,0.5H9v-4H1V17z
		 M22.769,12.5l-2.987-7.681C19.707,4.625,19.524,4.5,19.316,4.5H4.684h0c-0.208,0-0.391,0.125-0.466,0.319L1.231,12.5H22.769z"/>
	<circle cx="17" cy="15.5" r="0.75"/>
	<circle cx="7" cy="15.5" r="0.75"/>
	<circle cx="12" cy="8.5" r="0.75"/>
	<circle cx="4" cy="15.5" r="0.75"/>
	<circle cx="20" cy="15.5" r="0.75"/>
	<path d="M12,11.5c-3.421,0-6-1.29-6-3s2.579-3,6-3c3.421,0,6,1.29,6,3S15.421,11.5,12,11.5z M12,6.5c-2.36,0-5,0.855-5,2
		s2.64,2,5,2c2.36,0,5-0.855,5-2S14.36,6.5,12,6.5z"/>
</g>
</svg>
