<?xml version="1.0" encoding="utf-8"?>
<!-- Generator: Adobe Illustrator 22.1.0, SVG Export Plug-In . SVG Version: 6.00 Build 0)  -->
<svg version="1.1" id="Light" xmlns="http://www.w3.org/2000/svg" xmlns:xlink="http://www.w3.org/1999/xlink" x="0px" y="0px"
	 viewBox="0 0 24 24" style="enable-background:new 0 0 24 24;" xml:space="preserve">
<g>
	<title>stove-gas-1</title>
	<path d="M18.5,19.805c-1.103,0-2-0.897-2-2s0.897-2,2-2s2,0.897,2,2S19.603,19.805,18.5,19.805z M18.5,16.805c-0.552,0-1,0.448-1,1
		s0.448,1,1,1s1-0.448,1-1S19.052,16.805,18.5,16.805z"/>
	<path d="M5.5,19.805c-1.103,0-2-0.897-2-2s0.897-2,2-2s2,0.897,2,2S6.603,19.805,5.5,19.805z M5.5,16.805c-0.551,0-1,0.448-1,1
		s0.449,1,1,1s1-0.448,1-1S6.051,16.805,5.5,16.805z"/>
	<path d="M1.5,21.805c-0.827,0-1.5-0.673-1.5-1.5v-5c0-0.827,0.673-1.5,1.5-1.5H2v-0.5c0-0.827,0.673-1.5,1.5-1.5
		c0.276,0,0.5,0.224,0.5,0.5c0,0.276-0.224,0.5-0.5,0.5S3,13.029,3,13.305v0.5h2v-1.5c0-0.276,0.224-0.5,0.5-0.5s0.5,0.224,0.5,0.5
		v1.5h2v-0.5c0-0.276-0.224-0.5-0.5-0.5S7,12.58,7,12.305c0-0.276,0.224-0.5,0.5-0.5c0.827,0,1.5,0.673,1.5,1.5v0.5h6v-0.5
		c0-0.827,0.673-1.5,1.5-1.5c0.276,0,0.5,0.224,0.5,0.5c0,0.276-0.224,0.5-0.5,0.5s-0.5,0.224-0.5,0.5v0.5h2v-1.5
		c0-0.276,0.224-0.5,0.5-0.5s0.5,0.224,0.5,0.5v1.5h2v-0.5c0-0.276-0.224-0.5-0.5-0.5s-0.5-0.224-0.5-0.5c0-0.276,0.224-0.5,0.5-0.5
		c0.827,0,1.5,0.673,1.5,1.5v0.5h0.5c0.827,0,1.5,0.673,1.5,1.5v5c0,0.827-0.673,1.5-1.5,1.5H1.5z M1.5,14.805
		c-0.276,0-0.5,0.224-0.5,0.5v5c0,0.276,0.224,0.5,0.5,0.5h21c0.276,0,0.5-0.224,0.5-0.5v-5c0-0.276-0.224-0.5-0.5-0.5H1.5z"/>
	<path d="M18.5,10.803c-1.862,0-3.378-1.515-3.379-3.377c-0.019-1.22,0.69-2.339,1.806-2.847c0,0,0.028-0.013,0.057-0.024
		c0.086-0.031,0.173-0.047,0.261-0.047c0.314,0,0.598,0.198,0.706,0.492c0.092-0.57-0.018-1.165-0.32-1.664
		c-0.133-0.211-0.148-0.477-0.04-0.709c0.085-0.182,0.236-0.32,0.425-0.388c0.082-0.03,0.168-0.045,0.255-0.045
		c0.11,0,0.217,0.024,0.318,0.071c2.002,0.963,3.261,2.937,3.29,5.153c-0.001,1.867-1.516,3.383-3.377,3.384
		C18.501,10.803,18.5,10.803,18.5,10.803z M17.141,5.608c-0.638,0.369-1.031,1.056-1.02,1.809c0.001,1.317,1.068,2.385,2.379,2.385
		c1.312-0.001,2.378-1.067,2.379-2.378c-0.021-1.572-0.794-2.999-2.061-3.874c0.279,0.875,0.202,1.843-0.235,2.669
		c-0.068,0.127-0.186,0.219-0.325,0.252c-0.037,0.009-0.077,0.014-0.117,0.014c-0.104,0-0.203-0.032-0.288-0.092
		C17.559,6.187,17.317,5.919,17.141,5.608z"/>
	<path d="M5.499,10.806c-1.863-0.001-3.378-1.517-3.378-3.38c-0.019-1.22,0.69-2.339,1.806-2.847
		c0.003-0.002,0.03-0.014,0.058-0.024C4.07,4.523,4.157,4.508,4.245,4.508c0.11,0,0.217,0.024,0.317,0.071
		C4.744,4.663,4.882,4.813,4.951,5c0.092-0.57-0.018-1.165-0.32-1.664c-0.133-0.211-0.148-0.478-0.039-0.71
		C4.677,2.445,4.827,2.308,5.016,2.24c0.082-0.03,0.168-0.045,0.255-0.045c0.11,0,0.218,0.024,0.318,0.071
		c2.002,0.963,3.261,2.937,3.29,5.153C8.878,9.288,7.363,10.806,5.499,10.806L5.499,10.806z M4.141,5.608
		c-0.638,0.369-1.031,1.056-1.02,1.809c0,1.318,1.066,2.387,2.378,2.388c1.312,0,2.379-1.067,2.38-2.378
		C7.859,5.854,7.085,4.426,5.818,3.551C6.097,4.426,6.021,5.395,5.583,6.22C5.515,6.347,5.397,6.439,5.257,6.472
		C5.22,6.481,5.18,6.486,5.141,6.486c-0.104,0-0.203-0.032-0.288-0.092C4.559,6.187,4.317,5.919,4.141,5.608z"/>
</g>
</svg>
