<?xml version="1.0" encoding="utf-8"?>
<!-- Generator: Adobe Illustrator 22.1.0, SVG Export Plug-In . SVG Version: 6.00 Build 0)  -->
<svg version="1.1" id="Layer_1" xmlns="http://www.w3.org/2000/svg" xmlns:xlink="http://www.w3.org/1999/xlink" x="0px" y="0px"
	 viewBox="0 0 24 24" style="enable-background:new 0 0 24 24;" xml:space="preserve">
<g>
	<title>historical-building-castle</title>
	<path d="M12.001,17c-0.276,0-0.5-0.224-0.5-0.5v-2c0-0.276,0.224-0.5,0.5-0.5c0.276,0,0.5,0.224,0.5,0.5v2
		C12.501,16.776,12.277,17,12.001,17z"/>
	<path d="M12,7c-0.276,0-0.5-0.224-0.5-0.5l0.001-6c0-0.276,0.224-0.5,0.5-0.5h5c0.203,0,0.385,0.121,0.462,0.309
		c0.078,0.187,0.035,0.401-0.108,0.545L16.208,2l1.146,1.146c0.144,0.144,0.186,0.358,0.108,0.545C17.385,3.879,17.204,4,17.001,4
		h-4.5l0,2.5C12.5,6.776,12.276,7,12,7z M15.794,3l-0.646-0.646C15.053,2.259,15.001,2.134,15.001,2s0.052-0.259,0.146-0.354
		L15.794,1h-3.293l0,2H15.794z"/>
	<path d="M13.5,24c-0.276,0-0.5-0.224-0.5-0.5v-3c0-0.552-0.448-1-1-1c-0.551,0-1,0.448-1,1v3c0,0.276-0.224,0.5-0.5,0.5h-10
		C0.224,24,0,23.776,0,23.5S0.224,23,0.5,23h3.576L5.91,12H5c-1.103,0-2-0.897-2-2V7c0-0.551,0.449-1,1-1h1.5C5.776,6,6,6.224,6,6.5
		V7C5.956,7.497,6.274,7.919,6.727,7.996c0.465-0.064,0.81-0.488,0.775-0.959L7.5,6.5C7.5,6.224,7.724,6,8,6h2
		c0.276,0,0.5,0.224,0.5,0.5v0.491c0.042,0.559,0.527,1.012,1.104,1.012C11.626,8.003,11.696,8,11.701,8
		c0.015,0,0.03,0.001,0.044,0.002c0.03,0.002,0.062,0.004,0.094,0.004c0.59,0,1.099-0.457,1.162-1.043L13,6.501
		C13,6.224,13.224,6,13.5,6h2C15.776,6,16,6.224,16,6.5V7c0,0.551,0.448,1,1,1s1-0.449,1-1V6.5C18,6.224,18.224,6,18.5,6H20
		c0.552,0,1,0.449,1,1v3c0,1.103-0.897,2-2,2h-0.91l1.833,11H23.5c0.276,0,0.5,0.224,0.5,0.5S23.776,24,23.5,24H13.5z M18.91,23
		l-1.833-11H6.924L5.09,23H10v-2.5c0-1.103,0.897-2,2-2s2,0.897,2,2V23H18.91z M4,10c0,0.551,0.449,1,1,1h14c0.552,0,1-0.449,1-1V7
		h-1c0,1.103-0.897,2-2,2s-2-0.897-2-2h-1c-0.111,1.154-1.039,2.006-2.161,2.006c-0.048,0-0.097-0.002-0.146-0.005
		c-0.029,0.001-0.057,0.002-0.086,0.002c-1.107,0-2.032-0.865-2.106-1.969C9.501,7.028,9.5,7.006,9.5,7h-1
		c0.077,1.008-0.703,1.913-1.74,1.998C6.753,8.999,6.726,9,6.719,9C6.699,9,6.68,8.999,6.66,8.997C5.668,8.884,4.931,7.993,4.998,7
		H4L4,10z"/>
</g>
</svg>
