<?xml version="1.0" encoding="utf-8"?>
<!-- Generator: Adobe Illustrator 22.1.0, SVG Export Plug-In . SVG Version: 6.00 Build 0)  -->
<svg version="1.1" id="Layer_1" xmlns="http://www.w3.org/2000/svg" xmlns:xlink="http://www.w3.org/1999/xlink" x="0px" y="0px"
	 viewBox="0 0 24 24" style="enable-background:new 0 0 24 24;" xml:space="preserve">
<g>
	<title>lab-whisk-cup</title>
	<path d="M7.231,24.126c-1.379,0-2.5-1.122-2.5-2.5V9.476c0-0.113-0.039-0.224-0.109-0.313L3.491,7.749
		C3.324,7.541,3.248,7.28,3.278,7.014c0.03-0.266,0.161-0.504,0.369-0.67c0.176-0.141,0.397-0.218,0.623-0.219h12.136
		c0.276,0,0.5,0.224,0.5,0.5s-0.224,0.5-0.5,0.5H4.271l1.131,1.414c0.212,0.265,0.329,0.598,0.329,0.938v1.149h1.5
		c0.276,0,0.5,0.224,0.5,0.5s-0.224,0.5-0.5,0.5h-1.5v3.5h1.5c0.276,0,0.5,0.224,0.5,0.5s-0.224,0.5-0.5,0.5h-1.5v3.5h1.5
		c0.276,0,0.5,0.224,0.5,0.5s-0.224,0.5-0.5,0.5h-1.5v1.001c0,0.827,0.673,1.5,1.5,1.5h10c0.827,0,1.5-0.673,1.5-1.5v-5.501h-3.062
		l-0.823,2.342c0.55,0.37,0.884,0.988,0.884,1.658c0,1.103-0.897,2-2,2s-2-0.897-2-2s0.897-2,2-2c0.058,0,0.115,0.003,0.173,0.008
		l0.705-2.008H9.231c-0.276,0-0.5-0.224-0.5-0.5s0.224-0.5,0.5-0.5h5.729l4.799-13.666c0.07-0.2,0.26-0.334,0.471-0.334
		c0.057,0,0.113,0.01,0.167,0.029c0.125,0.044,0.226,0.135,0.284,0.255s0.065,0.256,0.021,0.382L16.02,15.125h2.711v-3.999
		c0-0.276,0.224-0.5,0.5-0.5s0.5,0.224,0.5,0.5v10.5c0,1.378-1.122,2.5-2.5,2.5H7.231z M13.731,19.125c-0.552,0-1,0.448-1,1
		s0.448,1,1,1s1-0.448,1-1S14.282,19.125,13.731,19.125z"/>
	<path d="M10.731,12.875c-0.414,0-0.75-0.336-0.75-0.75c0-0.414,0.336-0.75,0.75-0.75s0.75,0.336,0.75,0.75
		C11.481,12.539,11.144,12.875,10.731,12.875z"/>
	<circle cx="12.231" cy="8.625" r="0.75"/>
	<circle cx="11.731" cy="1.125" r="0.75"/>
	<circle cx="9.731" cy="4.125" r="0.75"/>
</g>
</svg>
