<?xml version="1.0" encoding="utf-8"?>
<!-- Generator: Adobe Illustrator 22.1.0, SVG Export Plug-In . SVG Version: 6.00 Build 0)  -->
<svg version="1.1" id="Layer_1" xmlns="http://www.w3.org/2000/svg" xmlns:xlink="http://www.w3.org/1999/xlink" x="0px" y="0px"
	 viewBox="0 0 24 24" style="enable-background:new 0 0 24 24;" xml:space="preserve">
<g>
	<title>lab-protection-glasses</title>
	<path d="M17.797,22.382c-0.306,0-0.607-0.031-0.894-0.091c-1.957-0.408-2.961-2.057-3.769-3.383
		c-0.395-0.648-0.842-1.382-1.134-1.382c-0.183,0.029-0.651,0.756-0.93,1.191c-0.835,1.299-1.979,3.077-4.079,3.489
		c-0.292,0.058-0.597,0.087-0.905,0.087c-1.479,0-3.129-0.654-5.045-1.999C0.383,19.822-0.006,19.059,0,18.253v-6.164
		c0-0.521,0.277-1.013,0.723-1.283l10.313-6.25L8.192,2.833C7.957,2.691,7.688,2.616,7.416,2.616c-0.436,0-0.851,0.191-1.137,0.524
		l-1.22,1.419C4.964,4.67,4.826,4.733,4.68,4.733c-0.12,0-0.235-0.043-0.326-0.121C4.253,4.525,4.192,4.404,4.182,4.271
		c-0.01-0.133,0.032-0.262,0.119-0.364l1.22-1.419c0.476-0.555,1.167-0.873,1.895-0.873c0.454,0,0.902,0.125,1.294,0.362L12,3.972
		l3.29-1.994c0.393-0.238,0.842-0.364,1.297-0.364c0.729,0,1.42,0.319,1.896,0.875L19.7,3.908c0.087,0.102,0.129,0.231,0.119,0.364
		s-0.072,0.254-0.173,0.341c-0.09,0.077-0.206,0.12-0.325,0.12c-0.146,0-0.284-0.064-0.38-0.174L17.724,3.14
		c-0.286-0.334-0.701-0.526-1.137-0.526c-0.273,0-0.542,0.076-0.778,0.219L12.331,4.94c-0.038,0.032-0.082,0.059-0.13,0.079
		L2.29,11.026h19.419l-7.968-4.829c-0.236-0.143-0.311-0.451-0.168-0.687C13.663,5.362,13.827,5.27,14,5.27
		c0.091,0,0.181,0.025,0.259,0.073l9.016,5.464c0.445,0.27,0.722,0.761,0.723,1.282v1.407c0.001,0.01,0.002,0.021,0.002,0.03v4.73
		c0.005,0.804-0.383,1.565-1.038,2.034C20.958,21.698,19.269,22.382,17.797,22.382z M12,16.526c0.853,0,1.379,0.863,1.988,1.862
		c0.707,1.16,1.587,2.605,3.119,2.925c0.212,0.044,0.437,0.066,0.67,0.066c1.258,0,2.808-0.641,4.608-1.904
		c0.388-0.278,0.62-0.733,0.616-1.215v-4.233H1v4.23c-0.003,0.485,0.229,0.941,0.62,1.222c1.712,1.202,3.223,1.812,4.49,1.812
		c0.237,0,0.469-0.022,0.689-0.065c1.682-0.33,2.651-1.837,3.43-3.049C10.845,17.218,11.289,16.526,12,16.526z M22.998,13.026
		v-0.937c0-0.02-0.002-0.042-0.005-0.063H1.005C1.002,12.048,1,12.069,1,12.09v0.937H22.998z"/>
</g>
</svg>
