<?xml version="1.0" encoding="utf-8"?>
<!-- Generator: Adobe Illustrator 22.1.0, SVG Export Plug-In . SVG Version: 6.00 Build 0)  -->
<svg version="1.1" id="Layer_1" xmlns="http://www.w3.org/2000/svg" xmlns:xlink="http://www.w3.org/1999/xlink" x="0px" y="0px"
	 viewBox="0 0 24 24" style="enable-background:new 0 0 24 24;" xml:space="preserve">
<g>
	<title>lab-tube-experiment</title>
	<path d="M11,15c-0.827,0-1.5-0.673-1.5-1.5S10.173,12,11,12s1.5,0.673,1.5,1.5S11.827,15,11,15z M11,13c-0.276,0-0.5,0.224-0.5,0.5
		S10.724,14,11,14s0.5-0.224,0.5-0.5S11.276,13,11,13z"/>
	<path d="M13,11.5c-0.827,0-1.5-0.673-1.5-1.5s0.673-1.5,1.5-1.5s1.5,0.673,1.5,1.5S13.827,11.5,13,11.5z M13,9.5
		c-0.276,0-0.5,0.224-0.5,0.5s0.224,0.5,0.5,0.5s0.5-0.224,0.5-0.5S13.275,9.5,13,9.5z"/>
	<path d="M12,20.5c-0.827,0-1.5-0.673-1.5-1.5s0.673-1.5,1.5-1.5s1.5,0.673,1.5,1.5S12.827,20.5,12,20.5z M12,18.5
		c-0.276,0-0.5,0.224-0.5,0.5s0.224,0.5,0.5,0.5c0.276,0,0.5-0.224,0.5-0.5S12.275,18.5,12,18.5z"/>
	<path d="M12.003,24c-0.147,0-0.297-0.007-0.445-0.022c-2.355-0.293-4.097-2.296-4.058-4.659V5.692c0-1.487-0.244-2.954-0.725-4.361
		c-0.036-0.1-0.055-0.21-0.056-0.322C6.713,0.458,7.158,0.005,7.709,0h8.577c0.116,0.001,0.227,0.021,0.333,0.059
		c0.519,0.187,0.79,0.76,0.604,1.279C16.744,2.739,16.5,4.205,16.5,5.692V19.5c0,0.146-0.007,0.295-0.022,0.442
		C16.249,22.256,14.325,24,12.003,24z M8.5,19.328c-0.031,1.858,1.331,3.428,3.169,3.657c0.109,0.011,0.225,0.017,0.34,0.017
		c1.773,0,3.3-1.387,3.475-3.157c0.011-0.115,0.017-0.231,0.017-0.344V7h-7V19.328z M15.5,6V5.692c0-1.597,0.262-3.173,0.779-4.685
		L7.719,1C8.237,2.518,8.499,4.095,8.5,5.692V6H15.5z"/>
</g>
</svg>
