<?xml version="1.0" encoding="utf-8"?>
<!-- Generator: Adobe Illustrator 22.1.0, SVG Export Plug-In . SVG Version: 6.00 Build 0)  -->
<svg version="1.1" id="Layer_1" xmlns="http://www.w3.org/2000/svg" xmlns:xlink="http://www.w3.org/1999/xlink" x="0px" y="0px"
	 viewBox="0 0 24 24" style="enable-background:new 0 0 24 24;" xml:space="preserve">
<g>
	<title>lab-flame-experiment</title>
	<path d="M18.112,23.852c-0.276,0-0.5-0.224-0.5-0.5v-8.5h-2v0.5c0,0.276-0.224,0.5-0.5,0.5s-0.5-0.224-0.5-0.5v-0.5h-3.811
		l3.354,4.092c0.444,0.538,0.688,1.22,0.685,1.919c-0.006,1.648-1.352,2.989-3,2.989H4.4c-0.708,0-1.385-0.244-1.922-0.686
		c-0.618-0.51-1.001-1.23-1.077-2.028s0.162-1.577,0.672-2.196l3.35-4.091H5.112c-0.827,0-1.5-0.673-1.5-1.5s0.673-1.5,1.5-1.5h0.5
		v-2h-1.5c-0.276,0-0.5-0.224-0.5-0.5s0.224-0.5,0.5-0.5h1.55c-0.776-0.704-1.23-1.694-1.244-2.767
		c-0.013-1.41,0.82-2.67,2.121-3.21c0.099-0.039,0.199-0.058,0.299-0.058c0.311,0,0.585,0.185,0.698,0.471
		c0.038,0.093,0.083,0.182,0.137,0.265c0.194-0.76,0.057-1.571-0.393-2.235C7.141,1.109,7.114,0.849,7.206,0.62
		C7.32,0.335,7.593,0.15,7.901,0.15c0.096,0,0.189,0.018,0.278,0.054c2.356,1.013,3.903,3.313,3.952,5.866
		c-0.014,1.084-0.468,2.078-1.245,2.782h1.225c0.276,0,0.5,0.224,0.5,0.5s-0.224,0.5-0.5,0.5h-1.5v2h4v-0.5
		c0-0.276,0.224-0.5,0.5-0.5s0.5,0.224,0.5,0.5v0.5h2v-10.5c0-0.276,0.224-0.5,0.5-0.5s0.5,0.224,0.5,0.5v10.5h3.5
		c0.276,0,0.5,0.224,0.5,0.5c0,0.276-0.224,0.5-0.5,0.5h-6.5v1h6.5c0.276,0,0.5,0.224,0.5,0.5s-0.224,0.5-0.5,0.5h-3.5v8.5
		C18.612,23.628,18.387,23.852,18.112,23.852z M2.419,20.494c-0.033,0.18-0.041,0.364-0.023,0.549
		c0.051,0.532,0.306,1.012,0.718,1.352c0.358,0.295,0.81,0.458,1.273,0.458h7.443c1.108,0,2.005-0.894,2.01-1.992
		c0.001-0.304-0.069-0.608-0.205-0.885c-0.973-0.382-1.994-0.592-3.035-0.622c-1.208,0-2.191,0.395-3.142,0.776
		c-0.927,0.372-1.802,0.724-2.844,0.724C3.866,20.846,3.129,20.725,2.419,20.494z M2.844,19.58c0.576,0.176,1.172,0.267,1.775,0.272
		c0.843,0,1.631-0.316,2.465-0.651c1.041-0.417,2.115-0.849,3.53-0.849c0.668,0.02,1.326,0.104,1.968,0.251l-2.857-3.486
		c-0.062-0.076-0.1-0.168-0.111-0.265H6.609c-0.01,0.096-0.048,0.189-0.11,0.265C6.499,15.117,2.844,19.579,2.844,19.58z
		 M5.112,12.852c-0.276,0-0.5,0.224-0.5,0.5s0.224,0.5,0.5,0.5h9.5v-1H5.112z M9.612,11.852v-2h-3v2H9.612z M6.718,3.898
		c-0.805,0.426-1.308,1.257-1.3,2.177c0.009,0.75,0.311,1.453,0.849,1.978c0.529,0.516,1.22,0.8,1.944,0.8l0.094,0
		c1.538,0,2.806-1.247,2.826-2.78c-0.036-1.884-1.049-3.612-2.637-4.584C8.902,2.517,8.84,3.682,8.293,4.682
		C8.226,4.805,8.109,4.895,7.972,4.928c-0.04,0.009-0.078,0.014-0.117,0.014c-0.101,0-0.198-0.03-0.281-0.086
		C7.212,4.61,6.919,4.282,6.718,3.898z"/>
</g>
</svg>
