<?xml version="1.0" encoding="utf-8"?>
<!-- Generator: Adobe Illustrator 22.1.0, SVG Export Plug-In . SVG Version: 6.00 Build 0)  -->
<svg version="1.1" id="Layer_1" xmlns="http://www.w3.org/2000/svg" xmlns:xlink="http://www.w3.org/1999/xlink" x="0px" y="0px"
	 viewBox="0 0 24 24" style="enable-background:new 0 0 24 24;" xml:space="preserve">
<g>
	<title>lab-bottle-experiment</title>
	<path d="M17.501,4c-0.276,0-0.5-0.224-0.5-0.5V1h-2v2.5c0,0.276-0.224,0.5-0.5,0.5s-0.5-0.224-0.5-0.5V1c0-0.551,0.448-1,1-1h2
		c0.552,0,1,0.449,1,1v2.5C18.001,3.776,17.777,4,17.501,4z"/>
	<path d="M15.992,20.007c-1.012,0-2.021-0.264-2.916-0.764c-1.399-0.781-2.411-2.061-2.848-3.603
		c-0.303-1.067-0.302-2.196,0.002-3.266c0.002-0.012,0.007-0.035,0.017-0.062c0.13-0.441,0.303-0.856,0.514-1.233
		c0.716-1.282,1.861-2.247,3.239-2.732V7.5c0-0.276,0.224-0.5,0.5-0.5s0.5,0.224,0.5,0.5v1.213c0,0.223-0.15,0.421-0.364,0.481
		c-1.285,0.364-2.351,1.207-3.002,2.373c-0.076,0.136-0.146,0.279-0.212,0.433h9.16c-0.595-1.377-1.751-2.39-3.218-2.806
		c-0.214-0.06-0.364-0.258-0.364-0.481V7.5c0-0.276,0.224-0.5,0.5-0.5s0.5,0.224,0.5,0.5v0.847c1.822,0.642,3.22,2.119,3.761,3.985
		l0.011,0.036c0.437,1.539,0.246,3.158-0.536,4.56c-0.782,1.401-2.061,2.413-3.6,2.849C17.099,19.93,16.546,20.007,15.992,20.007z
		 M11.105,13c-0.162,0.784-0.133,1.598,0.085,2.368c0.364,1.285,1.207,2.351,2.373,3.002c0.746,0.416,1.586,0.636,2.429,0.636
		c0.461,0,0.922-0.065,1.372-0.192c2.54-0.72,4.059-3.25,3.528-5.815H11.105z"/>
	<path d="M18.501,17c-0.827,0-1.5-0.673-1.5-1.5s0.673-1.5,1.5-1.5s1.5,0.673,1.5,1.5S19.328,17,18.501,17z M18.501,15
		c-0.276,0-0.5,0.224-0.5,0.5s0.224,0.5,0.5,0.5s0.5-0.224,0.5-0.5S18.777,15,18.501,15z"/>
	<path d="M2.501,24c-0.276,0-0.5-0.224-0.5-0.5v-20c0-0.276,0.224-0.5,0.5-0.5h5.5c0-0.551,0.449-1,1-1h3c0.276,0,0.5,0.224,0.5,0.5
		S12.277,3,12.001,3h-3v2h11.5c0.276,0,0.5,0.224,0.5,0.5S20.777,6,20.501,6h-11.5c-0.551,0-1-0.449-1-1V4h-5v17h6
		c0.783,0,1.53,0.374,2,1l0.3,0.4c0.16,0.213,0.228,0.477,0.19,0.741c-0.038,0.264-0.176,0.498-0.39,0.659
		c-0.172,0.129-0.385,0.2-0.6,0.2H2.501z M10.501,23l-0.3-0.4c-0.282-0.375-0.73-0.6-1.2-0.6h-6v1H10.501z"/>
	<circle cx="15.501" cy="17" r="0.75"/>
	<circle cx="13.501" cy="14.5" r="0.75"/>
</g>
</svg>
