<?xml version="1.0" encoding="utf-8"?>
<!-- Generator: Adobe Illustrator 22.1.0, SVG Export Plug-In . SVG Version: 6.00 Build 0)  -->
<svg version="1.1" id="Light" xmlns="http://www.w3.org/2000/svg" xmlns:xlink="http://www.w3.org/1999/xlink" x="0px" y="0px"
	 viewBox="0 0 24 24" style="enable-background:new 0 0 24 24;" xml:space="preserve">
<g>
	<title>real-estate-app-house-smartphone</title>
	<path d="M6.5,24C5.121,24,4,22.878,4,21.5v-19C4,1.121,5.121,0,6.5,0h11C18.878,0,20,1.121,20,2.5v19c0,1.378-1.122,2.5-2.5,2.5
		H6.5z M5,21.5C5,22.327,5.673,23,6.5,23h11c0.827,0,1.5-0.673,1.5-1.5V20H5V21.5z M19,19V2.5C19,1.673,18.327,1,17.5,1h-11
		C5.673,1,5,1.673,5,2.5V19H19z"/>
	<path d="M9,16c-0.551,0-1-0.448-1-1v-4.188L6.836,11.87C6.744,11.954,6.625,12,6.5,12c-0.141,0-0.275-0.06-0.37-0.164
		c-0.09-0.099-0.136-0.227-0.13-0.36c0.006-0.134,0.064-0.256,0.163-0.346l5.164-4.694C11.513,6.268,11.752,6.175,12,6.175
		s0.487,0.093,0.672,0.261l5.164,4.694c0.204,0.185,0.219,0.502,0.034,0.706C17.776,11.94,17.641,12,17.5,12
		c-0.125,0-0.244-0.046-0.337-0.13L16,10.812V15c0,0.552-0.448,1-1,1H9z M15,15V9.903l-3-2.727L9,9.903V15h1v-2c0-1.103,0.897-2,2-2
		s2,0.897,2,2L15,15z M13,15v-2c0-0.552-0.448-1-1-1c-0.551,0-1,0.448-1,1L13,15z"/>
</g>
</svg>
