<?xml version="1.0" encoding="utf-8"?>
<!-- Generator: Adobe Illustrator 22.1.0, SVG Export Plug-In . SVG Version: 6.00 Build 0)  -->
<svg version="1.1" id="Light" xmlns="http://www.w3.org/2000/svg" xmlns:xlink="http://www.w3.org/1999/xlink" x="0px" y="0px"
	 viewBox="0 0 24 24" style="enable-background:new 0 0 24 24;" xml:space="preserve">
<g>
	<title>real-estate-app-building-laptop</title>
	<path d="M3.5,24C1.57,24,0,22.43,0,20.5C0,20.224,0.224,20,0.5,20H3V9.167C3,7.972,3.972,7,5.167,7H7.5C7.776,7,8,7.224,8,7.5
		S7.776,8,7.5,8H5.167C4.524,8,4,8.524,4,9.167V20h16v-4.5c0-0.276,0.224-0.5,0.5-0.5s0.5,0.224,0.5,0.5V20h2.5
		c0.276,0,0.5,0.224,0.5,0.5c0,1.93-1.57,3.5-3.5,3.5H3.5z M1.05,21c0.235,1.141,1.262,2,2.45,2h17c1.188,0,2.215-0.859,2.449-2
		H1.05z"/>
	<path d="M9.058,15.692c-0.117,0-0.234-0.028-0.339-0.08c-0.369-0.188-0.517-0.64-0.331-1.009l1.649-3.296
		c-0.68-1.153-1.038-2.467-1.038-3.808C9,3.364,12.364,0,16.499,0c1.439,0,2.84,0.411,4.051,1.188
		c3.48,2.234,4.495,6.883,2.261,10.363c-1.385,2.158-3.75,3.447-6.323,3.447c-1.336,0-2.645-0.358-3.795-1.036l-3.298,1.65
		C9.292,15.664,9.175,15.692,9.058,15.692z M16.499,1c-3.584,0-6.5,2.916-6.5,6.499c0,1.248,0.356,2.462,1.03,3.512
		c0.095,0.148,0.105,0.337,0.027,0.494l-1.439,2.876l2.877-1.438c0.069-0.035,0.147-0.053,0.224-0.053
		c0.096,0,0.189,0.027,0.27,0.079c1.047,0.672,2.258,1.028,3.499,1.028c0,0,0,0,0,0c2.231,0,4.281-1.117,5.481-2.987
		c1.936-3.016,1.057-7.045-1.959-8.981C18.961,1.356,17.747,1,16.499,1V0.75V1z"/>
	<path d="M14,11c-0.552,0-1-0.449-1-1V4.309c0-0.551,0.448-1,1-1c0.155,0,0.31,0.037,0.448,0.106L17,4.691V3.5
		C17,3.224,17.224,3,17.5,3S18,3.224,18,3.5V6h2c0.552,0,1,0.449,1,1v3c0,0.551-0.448,1-1,1H14z M20,10V7h-2v3H20z M14,10h3V5.809
		l-3-1.5L14,6h1c0.276,0,0.5,0.224,0.5,0.5S15.276,7,15,7h-1v1h1c0.276,0,0.5,0.224,0.5,0.5S15.276,9,15,9h-1V10z"/>
</g>
</svg>
