<?xml version="1.0" encoding="utf-8"?>
<!-- Generator: Adobe Illustrator 22.1.0, SVG Export Plug-In . SVG Version: 6.00 Build 0)  -->
<svg version="1.1" id="Light" xmlns="http://www.w3.org/2000/svg" xmlns:xlink="http://www.w3.org/1999/xlink" x="0px" y="0px"
	 viewBox="0 0 24 24" style="enable-background:new 0 0 24 24;" xml:space="preserve">
<g>
	<title>real-estate-app-building-smartphone</title>
	<path d="M6.5,24C5.121,24,4,22.878,4,21.5v-19C4,1.121,5.121,0,6.5,0h11C18.878,0,20,1.121,20,2.5v19c0,1.378-1.122,2.5-2.5,2.5
		H6.5z M5,21.5C5,22.327,5.673,23,6.5,23h11c0.827,0,1.5-0.673,1.5-1.5V20H5V21.5z M19,19V2.5C19,1.673,18.327,1,17.5,1h-11
		C5.673,1,5,1.673,5,2.5V19H19z"/>
	<path d="M8,16c-0.551,0-1-0.448-1-1V6.309c0-0.551,0.449-1,1-1c0.155,0,0.31,0.037,0.448,0.106L12,7.191V5.5
		C12,5.224,12.224,5,12.5,5C12.776,5,13,5.224,13,5.5V9h2V7c0-0.276,0.224-0.5,0.5-0.5S16,6.724,16,7v2c0.552,0,1,0.449,1,1v5
		c0,0.552-0.448,1-1,1H8z M16,15v-5h-3v1h1c0.276,0,0.5,0.224,0.5,0.5S14.276,12,14,12h-1v1h1c0.276,0,0.5,0.224,0.5,0.5
		S14.276,14,14,14h-1L16,15z M8,15h4V8.309l-4-2L8,9h2c0.276,0,0.5,0.224,0.5,0.5S10.276,10,10,10H8v1h2c0.276,0,0.5,0.224,0.5,0.5
		S10.276,12,10,12H8V15z"/>
</g>
</svg>
