<svg xmlns="http://www.w3.org/2000/svg" viewBox="0 0 24 24"><title>tools-crescent-wench</title><path d="M22.16,1.84A6.281,6.281,0,0,0,12.212,9.3L7.657,13.857a1.008,1.008,0,0,0-.949.239L.662,20.143A2.26,2.26,0,0,0,2.26,24a2.242,2.242,0,0,0,1.6-.662L9.9,17.291a.988.988,0,0,0,.243-.955L14.7,11.788A6.281,6.281,0,0,0,22.16,1.84ZM3.15,22.631a1.289,1.289,0,0,1-1.781,0,1.259,1.259,0,0,1,0-1.781L7.416,14.8h0v0L9.2,16.583h0Zm18.3-12.613a5.312,5.312,0,0,1-6.567.721.5.5,0,0,0-.622.068L9.549,15.522,8.478,14.451l4.715-4.715a.5.5,0,0,0,.068-.622,5.281,5.281,0,1,1,8.192.9Z"/><path d="M20.382,3.618a3.767,3.767,0,1,0,0,5.329A3.773,3.773,0,0,0,20.382,3.618Zm-.707.707a2.77,2.77,0,0,1,.318,3.526L16.149,4.007a2.763,2.763,0,0,1,3.526.318ZM15.76,8.24a2.77,2.77,0,0,1-.318-3.526l3.844,3.844A2.77,2.77,0,0,1,15.76,8.24Z"/></svg>