<svg xmlns="http://www.w3.org/2000/svg" viewBox="0 0 24 24"><title>tools-wench-screwdriver</title><path d="M9.279,15.428,19.91,4.808l.013.013a1.5,1.5,0,0,0,1.059.439c.036,0,.072,0,.108,0a1.5,1.5,0,0,0,1.095-.6L23.8,2.5a1.006,1.006,0,0,0-.094-1.306l-.9-.9A1,1,0,0,0,21.531.179L19.317,1.718a1.5,1.5,0,0,0-.206,2.293l.091.09L8.572,14.721,6.805,12.953a.5.5,0,1,0-.707.707l.706.706L.585,20.586a2,2,0,0,0,0,2.827A1.982,1.982,0,0,0,2,24H2a1.986,1.986,0,0,0,1.414-.586L9.631,17.2l.707.707a.5.5,0,0,0,.707-.707ZM19.887,2.539,22.1,1l.9.9L21.384,4.06a.5.5,0,0,1-.365.2.5.5,0,0,1-.389-.145L19.818,3.3a.5.5,0,0,1,.069-.764ZM2.707,22.707A.993.993,0,0,1,2,23H2a.989.989,0,0,1-.706-.293,1,1,0,0,1,0-1.414L7.51,15.074l1.414,1.414Z"/><path d="M4.5,9a4.461,4.461,0,0,0,1.527-.266l3.2,3.205a.5.5,0,0,0,.707-.707L6.5,7.793a.5.5,0,0,0-.559-.1A3.5,3.5,0,0,1,1,4.5a3.53,3.53,0,0,1,.074-.719L2.5,5.207a1.008,1.008,0,0,0,.707.293H4.5a1,1,0,0,0,1-1V3.207A1.008,1.008,0,0,0,5.207,2.5L3.781,1.074A3.5,3.5,0,0,1,7.691,5.94a.5.5,0,0,0,.1.56l3.439,3.439a.5.5,0,0,0,.707-.707l-3.2-3.2A4.457,4.457,0,0,0,9,4.5,4.5,4.5,0,0,0,3.576.1a1,1,0,0,0-.5,1.686L4.5,3.207V4.5H3.207L1.781,3.074a1,1,0,0,0-1.686.5A4.5,4.5,0,0,0,4.5,9Z"/><path d="M19.5,15a4.457,4.457,0,0,0-1.527.266l-3.2-3.2a.5.5,0,0,0-.707.707L17.5,16.207a.5.5,0,0,0,.56.1,3.5,3.5,0,0,1,4.866,3.91L21.5,18.793a1.008,1.008,0,0,0-.707-.293H19.5a1,1,0,0,0-1,1v1.293a1.008,1.008,0,0,0,.293.707l1.427,1.426A3.547,3.547,0,0,1,19.5,23a3.5,3.5,0,0,1-3.191-4.941.5.5,0,0,0-.1-.559l-3.439-3.439a.5.5,0,0,0-.707.707l3.205,3.2A4.5,4.5,0,0,0,19.5,24a4.549,4.549,0,0,0,.924-.095,1,1,0,0,0,.5-1.686L19.5,20.793V19.5h1.293l1.426,1.426a1,1,0,0,0,1.686-.5A4.5,4.5,0,0,0,19.5,15Z"/></svg>