<svg xmlns="http://www.w3.org/2000/svg" viewBox="0 0 24 24"><title>tools-gasket-1</title><path d="M22.5,0H1.5A1.5,1.5,0,0,0,0,1.5v1A1.5,1.5,0,0,0,1.5,4h8a.5.5,0,0,1,.5.5V17.382l-.736,1.472A2.511,2.511,0,0,0,9,19.972V23a1,1,0,0,0,1,1h4a1,1,0,0,0,1-1V19.972a2.511,2.511,0,0,0-.264-1.118L14,17.382V4.5a.5.5,0,0,1,.5-.5h8A1.5,1.5,0,0,0,24,2.5v-1A1.5,1.5,0,0,0,22.5,0ZM13,17H11v-.982h2Zm1,6H10V19.972a1.518,1.518,0,0,1,.158-.671l.651-1.3h2.382l.651,1.3a1.518,1.518,0,0,1,.158.671ZM23,2.5a.5.5,0,0,1-.5.5h-8A1.5,1.5,0,0,0,13,4.5V15.018H11V4.5A1.5,1.5,0,0,0,9.5,3h-8A.5.5,0,0,1,1,2.5v-1A.5.5,0,0,1,1.5,1h21a.5.5,0,0,1,.5.5Z"/></svg>