<svg xmlns="http://www.w3.org/2000/svg" viewBox="0 0 24 24"><title>tools-hammer-hold</title><path d="M21.555,5.847l-2.02-2.021a1.461,1.461,0,0,0-.011-2.044h0L18.167.426a1.46,1.46,0,0,0-2.062,0L12.041,4.492a1.456,1.456,0,0,0,0,2.062L13.4,7.909a1.454,1.454,0,0,0,2.044.012l.039.039L14.091,9.351c-.028,0-.055-.009-.084-.009H14a1.92,1.92,0,0,0-1.155.391l-.873-.884a2.031,2.031,0,0,0-2.8-.01A1.917,1.917,0,0,0,8.6,10.021a2.024,2.024,0,0,0-2.015.459,1.951,1.951,0,0,0-.588,1.395,1.717,1.717,0,0,0,.016.176,1.978,1.978,0,0,0-2.1,1.973,2,2,0,0,0,.335,1.115,1.832,1.832,0,0,0-.963.509,1.951,1.951,0,0,0-.589,1.4,1.987,1.987,0,0,0,.587,1.427l.855.846L.36,23.1a.5.5,0,1,0,.708.707l3.817-3.821a1.957,1.957,0,0,0,1.032.3h.012a1.994,1.994,0,0,0,2-1.992c0-.044-.01-.086-.012-.13.053,0,.105.015.159.015a1.964,1.964,0,0,0,2-1.98c0-.051-.011-.1-.014-.15.035,0,.068.011.1.011a1.968,1.968,0,0,0,1.886-2.6,2.038,2.038,0,0,0,.557-.137A1.158,1.158,0,0,0,13,13.023l.935.935L6.784,21.011h0L4.662,23.1a.5.5,0,1,0,.7.712L7.135,22.07l1.736,1.735a.5.5,0,0,0,.707,0,.5.5,0,0,0,0-.707L7.847,21.367l7.147-7.051a.5.5,0,0,0,0-.709l-1.663-1.663a.936.936,0,0,1-.277-.67.914.914,0,0,1,.277-.654A.938.938,0,0,1,14,10.342a.951.951,0,0,1,.659.278l2.031,2.031a3.335,3.335,0,0,1,0,4.718l-.334.334a3.372,3.372,0,0,0-.02,4.749l1.237,1.381a.5.5,0,0,0,.745-.667l-1.255-1.4a2.372,2.372,0,0,1,0-3.355l.334-.334a4.335,4.335,0,0,0,0-6.132l-.015-.015.981-.982a7.237,7.237,0,0,1,1.449,3.375,1.467,1.467,0,0,0,1.126,1.218,1.51,1.51,0,0,0,.314.034,1.457,1.457,0,0,0,1.218-.652A7.225,7.225,0,0,0,21.555,5.847ZM6.634,19a.99.99,0,0,1-1.4,0l-.03-.03v0l0,0-1.21-1.2a.994.994,0,0,1-.292-.712.974.974,0,0,1,.3-.7.949.949,0,0,1,.7-.283.934.934,0,0,1,.7.293l1.244,1.232A.992.992,0,0,1,6.634,19ZM8.783,16.9a1.043,1.043,0,0,1-1.406,0L5.2,14.731l-.008-.008a.965.965,0,0,1-.283-.7.943.943,0,0,1,.291-.695.974.974,0,0,1,.694-.291,1.024,1.024,0,0,1,.708.291L8.779,15.5a.976.976,0,0,1,.291.7A1,1,0,0,1,8.783,16.9Zm2.078-2.134a1.012,1.012,0,0,1-1.4,0L7.284,12.593a.985.985,0,0,1-.291-.712.994.994,0,0,1,.985-.981.994.994,0,0,1,.708.292l.443.444c.009.008.014.018.023.026l1.232,1.251c.036.036.08.062.119.095l.358.358a.99.99,0,0,1,0,1.4ZM12.213,12.4a1.054,1.054,0,0,1-1.041-.133L9.845,10.937a.928.928,0,0,1-.273-.674.961.961,0,0,1,.293-.707,1.04,1.04,0,0,1,1.4,0l.948.962a1.892,1.892,0,0,0,.1,1.705v.016A.161.161,0,0,1,12.213,12.4ZM14.1,7.2,12.748,5.847a.456.456,0,0,1,0-.648l4.064-4.065a.46.46,0,0,1,.648,0l1.355,1.354a.46.46,0,0,1,0,.649l-.67.67-.009.006L15.426,6.523l-.006.009-.67.67A.47.47,0,0,1,14.1,7.2Zm1.266,2.714a1.867,1.867,0,0,0-.233-.2l1.052-1.053,1.521,1.52-1.034,1.034Zm6.268,4.454a.482.482,0,0,1-.482.193.458.458,0,0,1-.353-.382A8.243,8.243,0,0,0,18.86,9.993a.492.492,0,0,0-.1-.15A.55.55,0,0,0,18.7,9.8c-.075-.081-.136-.173-.214-.251l-1.894-1.87a.417.417,0,0,0-.048-.073.483.483,0,0,0-.077-.05l-.328-.324,2.7-2.7,2.017,2.018A6.223,6.223,0,0,1,21.636,14.37Z"/></svg>