<svg xmlns="http://www.w3.org/2000/svg" viewBox="0 0 24 24"><title>tools-palette-spatula</title><path d="M23.977,3.968A5.187,5.187,0,0,0,20.033.023a.991.991,0,0,0-.922.27L8.71,10.7h0l-.726.725a1.5,1.5,0,0,0,0,2.121L6.806,14.72a1.017,1.017,0,0,0-.943.236l-5.2,5.2a2.25,2.25,0,0,0,3.182,3.182l5.2-5.2a.986.986,0,0,0,.244-.951l1.169-1.17a1.5,1.5,0,0,0,2.122,0L23.707,4.889A1,1,0,0,0,23.977,3.968ZM19.9,7.284,15.56,5.259l2.077-2.076,4.338,2.024ZM17.07,10.112,12.732,8.087l2.076-2.076,4.338,2.025ZM14.242,12.94,9.9,10.916,11.98,8.84l4.338,2.024ZM3.134,22.634a1.281,1.281,0,0,1-1.768,0,1.251,1.251,0,0,1,0-1.768l5.2-5.2,1.767,1.768h0Zm8.739-7.325a.5.5,0,0,1-.707,0l-.354-.353a.514.514,0,0,0-.707,0L8.691,16.37l-1.06-1.061L9.044,13.9a.5.5,0,0,0,0-.707l-.353-.353a.5.5,0,0,1,0-.707l.46-.46,4.338,2.025ZM23,4.182l-.273.273L18.389,2.43,19.819,1A4.185,4.185,0,0,1,23,4.182l.354.354Z"/></svg>