<svg xmlns="http://www.w3.org/2000/svg" viewBox="0 0 24 24"><title>tools-screwdriver-1</title><path d="M8.45,14.136a.5.5,0,0,0-.707,0l-4.95,4.95a.5.5,0,0,0,.707.707l4.95-4.95A.5.5,0,0,0,8.45,14.136Z"/><path d="M9.157,15.55,4.207,20.5a.5.5,0,1,0,.707.707l4.95-4.95a.5.5,0,0,0-.707-.707Z"/><path d="M23.707.293A.992.992,0,0,0,22.684.052L19.225,1.2a4.527,4.527,0,0,0-1.759,1.088L16.012,3.745a1,1,0,0,0,0,1.414L17.073,6.22l-6.148,6.148-.748-.747a1.943,1.943,0,0,0-2.747,0l-6.4,6.4a3.5,3.5,0,0,0,4.95,4.95l6.4-6.405a1.943,1.943,0,0,0,0-2.747l-.747-.748L17.78,6.927l1.061,1.06a1,1,0,0,0,1.414,0l1.453-1.453A4.513,4.513,0,0,0,22.8,4.775l1.153-3.458A.993.993,0,0,0,23.707.293ZM11.672,15.863l-6.4,6.405a2.562,2.562,0,0,1-3.536,0,2.5,2.5,0,0,1,0-3.536l6.405-6.4a.943.943,0,0,1,1.333,0l1.089,1.089s.006.01.01.014.01.006.014.01l1.089,1.089A.943.943,0,0,1,11.672,15.863ZM16.719,4.452,18.173,3a3.518,3.518,0,0,1,1.369-.846l2.4-.8L17.78,5.513h0ZM21,5.827,19.548,7.28,18.487,6.22h0l4.159-4.159-.8,2.4A3.518,3.518,0,0,1,21,5.827Z"/></svg>