<svg xmlns="http://www.w3.org/2000/svg" viewBox="0 0 24 24"><title>tools-wench-1</title><path d="M21.961,11.932a6.994,6.994,0,0,0,1.493-7.645,1,1,0,0,0-1.629-.32L19.293,6.5H17.5V4.707l2.533-2.533a1,1,0,0,0-.32-1.628,7,7,0,0,0-9.106,9.311L.732,19.732a2.5,2.5,0,0,0,3.536,3.536l9.876-9.876a6.994,6.994,0,0,0,7.788-1.431c.006-.005.013-.006.018-.011S21.956,11.938,21.961,11.932ZM20,7.207l2.532-2.532a5.986,5.986,0,0,1-.955,6.195L18.207,7.5h1.086A1.008,1.008,0,0,0,20,7.207Zm-5.732,5.136a.5.5,0,0,0-.581.092L3.561,22.561a1.538,1.538,0,0,1-2.122,0,1.5,1.5,0,0,1,0-2.122L11.565,10.313a.5.5,0,0,0,.091-.581A5.946,5.946,0,0,1,11,7a6,6,0,0,1,8.325-5.532L16.793,4a1.008,1.008,0,0,0-.293.707V7a.5.5,0,0,0,.038.191.518.518,0,0,0,.109.163l4.223,4.223a5.988,5.988,0,0,1-6.6.766Z"/><path d="M14.674,6.834a.5.5,0,0,0-.707,0l-1.5,1.5a.5.5,0,1,0,.707.707l1.5-1.5A.5.5,0,0,0,14.674,6.834Z"/><path d="M15.924,8.084a.5.5,0,0,0-.707,0l-1.5,1.5a.5.5,0,1,0,.707.707l1.5-1.5A.5.5,0,0,0,15.924,8.084Z"/><path d="M17.174,9.334a.5.5,0,0,0-.707,0l-1.5,1.5a.5.5,0,1,0,.707.707l1.5-1.5A.5.5,0,0,0,17.174,9.334Z"/></svg>