<svg xmlns="http://www.w3.org/2000/svg" viewBox="0 0 24 24"><title>tools-crescent-double</title><path d="M21.144,2.266a1.756,1.756,0,1,0,.59,2.414h0A1.759,1.759,0,0,0,21.144,2.266Zm-.265,1.895A.757.757,0,0,1,19.5,3.947a.75.75,0,0,1,.088-.572.76.76,0,0,1,.648-.364.749.749,0,0,1,.392.11A.758.758,0,0,1,20.879,4.161Z"/><path d="M23.892,2.873a3.767,3.767,0,0,0-7.293-.1l-2.01.939a2.509,2.509,0,0,0-1.083.972L6.6,16.062l-1.434.67A3.768,3.768,0,1,0,3.761,24a3.8,3.8,0,0,0,.9-.109A3.769,3.769,0,0,0,7.4,21.228l2.01-.938a2.509,2.509,0,0,0,1.083-.972L17.4,7.938l1.434-.67a3.768,3.768,0,0,0,5.054-4.395ZM22.6,5.2A2.758,2.758,0,0,1,19.21,6.34a1.009,1.009,0,0,0-.8.022l-1.433.669a1.006,1.006,0,0,0-.432.388L9.639,18.8a1.5,1.5,0,0,1-.651.584L6.76,20.424a.5.5,0,0,0-.279.355A2.774,2.774,0,1,1,4.79,17.66a1,1,0,0,0,.8-.022l1.433-.669a1.006,1.006,0,0,0,.432-.388L14.361,5.2a1.5,1.5,0,0,1,.652-.584l2.228-1.042a.5.5,0,0,0,.278-.354,2.743,2.743,0,0,1,.348-.889A2.767,2.767,0,0,1,22.6,5.2Z"/><path d="M4.68,18.731a1.756,1.756,0,1,0,.589,2.413A1.759,1.759,0,0,0,4.68,18.731Zm-.265,1.894A.757.757,0,1,1,3.588,19.5a.741.741,0,0,1,.181-.022.758.758,0,0,1,.646,1.15Z"/></svg>