<svg xmlns="http://www.w3.org/2000/svg" viewBox="0 0 24 24"><title>tools-hammer-3</title><path d="M22.137,10.906,16.97,5.71a3.755,3.755,0,0,0-3.18-1.072L12.615,3.456,12.97,3.1a1,1,0,0,0,0-1.415L11.565.271a1,1,0,0,0-.706-.3h0a.993.993,0,0,0-.7.291L6.6,3.791a1,1,0,0,0,0,1.415L8.009,6.624a1,1,0,0,0,1.415,0l.354-.352,1.165,1.172c-.018.1-.051.195-.06.3a3.481,3.481,0,0,0,.869,2.612L1.434,20.605a2,2,0,0,0,2.82,2.837l10.3-10.234.671.674a1,1,0,0,0,1.087.211c1.733-.7,2.48-.872,3.454.107l1.255,1.263a1,1,0,0,0,.713.3c.033,0,.066,0,.1,0a1,1,0,0,0,.737-.44A3.512,3.512,0,0,0,22.137,10.906ZM8.719,5.919h0L7.309,4.5,10.855.976,12.265,2.4l-.709.7h0L9.429,5.214h0v0l-.708.7Zm1.768-.348,1.419-1.41.817.822a3.109,3.109,0,0,0-.342.192A3.543,3.543,0,0,0,11.3,6.391ZM3.549,22.733a1,1,0,1,1-1.41-1.419l10.3-10.232L13.851,12.5Zm18.183-7.975L20.477,13.5a2.9,2.9,0,0,0-2.129-.978,6.6,6.6,0,0,0-2.412.66L12.8,10.025l0,0,0,0-.2-.2a2.5,2.5,0,0,1,.359-3.826,2.244,2.244,0,0,1,.777-.342c.022-.006.045,0,.066-.013a2.741,2.741,0,0,1,2.463.777l5.167,5.2A2.5,2.5,0,0,1,21.732,14.758Z"/></svg>