<svg xmlns="http://www.w3.org/2000/svg" viewBox="0 0 24 24"><title>tools-hammer-2</title><path d="M23.7,11.607l-1.414-1.414a2.483,2.483,0,0,0-1.768-.733h0c-.028,0-.055.007-.084.008a2.5,2.5,0,0,0-.3-2.068l.743-.742a1.008,1.008,0,0,0,.293-.707,1,1,0,0,0-.293-.708L19.1,3.475a1.023,1.023,0,0,0-1.414,0l-.707.707a2.492,2.492,0,0,0-2.458-.622c0-.028.009-.056.009-.084A2.485,2.485,0,0,0,13.8,1.708L12.387.293a1.023,1.023,0,0,0-1.414,0L6.023,5.244a1,1,0,0,0,0,1.414L7.437,8.071A2.481,2.481,0,0,0,9.205,8.8a2.453,2.453,0,0,0,.365-.036,2.491,2.491,0,0,0,.69,2.125L.666,20.159A2.25,2.25,0,0,0,2.256,24a2.237,2.237,0,0,0,1.588-.656l9.634-9.3a2.358,2.358,0,0,0,1.748.383,2.38,2.38,0,0,0,.7,2.133l1.414,1.414a1,1,0,0,0,1.414,0l4.95-4.95a1,1,0,0,0,0-1.414ZM18.4,4.182l1.769,1.769-.708.706-.589-.589L17.69,4.889ZM8.144,7.364,6.73,5.95,11.68,1l1.414,1.415a1.5,1.5,0,0,1,0,2.121L10.266,7.364A1.534,1.534,0,0,1,8.144,7.364Zm-5,15.263-.006.007a1.279,1.279,0,0,1-1.767,0,1.248,1.248,0,0,1-.007-1.761l9.6-9.272,1.767,1.768ZM13.8,13.021l-2.474-2.475h0l-.353-.353a1.5,1.5,0,0,1,0-2.122L13.8,5.243l.354-.353a1.5,1.5,0,0,1,2.121,0L19.1,7.718a1.5,1.5,0,0,1,0,2.121l-3.183,3.182A1.5,1.5,0,0,1,13.8,13.021Zm4.242,4.243L16.629,15.85a1.5,1.5,0,0,1,0-2.121l2.83-2.83a1.488,1.488,0,0,1,1.059-.439h0a1.491,1.491,0,0,1,1.061.44l1.414,1.414Z"/></svg>