<svg xmlns="http://www.w3.org/2000/svg" viewBox="0 0 24 24"><title>tools-glue-gun</title><path d="M23.714,15.448,17,12.266a4.489,4.489,0,0,0-2.724-.358.523.523,0,0,0-.1.025,4.488,4.488,0,0,0-2.284,1.217,5.862,5.862,0,0,1-3.3,1.649l-.139.02L6.684,13.051l.02-.139a5.858,5.858,0,0,1,1.649-3.3L13.765,4.2A1.5,1.5,0,0,1,15.3,3.84l1.89.6a.5.5,0,0,0,.277.1l.015,0,2.3.728a2.5,2.5,0,0,0,.7,4.027l2.811,1.332a.5.5,0,0,0,.428-.9L20.9,8.385a1.5,1.5,0,0,1-.418-2.417.96.96,0,0,0,.254-.893.946.946,0,0,0-.626-.685l-1.719-.573L21.356.854a.5.5,0,0,0-.707-.708L17.332,3.464l-1.716-.572a2.483,2.483,0,0,0-2.558.6L7.646,8.908a6.863,6.863,0,0,0-1.932,3.863l-.039.274L3.187,16.777a1.11,1.11,0,0,0,1.539,1.539l3.732-2.488.274-.039A6.869,6.869,0,0,0,12.6,13.857a3.493,3.493,0,0,1,1.457-.866,4.477,4.477,0,0,1,.406,2.872A1,1,0,0,0,15.774,17a5.276,5.276,0,0,0,3.06-2.755l4.452,2.109a.494.494,0,0,0,.214.048.5.5,0,0,0,.214-.951ZM4.171,17.484a.11.11,0,0,1-.139-.013.112.112,0,0,1-.013-.139l2.212-3.319L7.49,15.271ZM17.114,15a4.457,4.457,0,0,1-1.674,1.058,5.475,5.475,0,0,0-.355-3.215,3.488,3.488,0,0,1,1.483.33l1.367.647A4.468,4.468,0,0,1,17.114,15Z"/><path d="M16.152,5.427h0l-1.06-.354a.99.99,0,0,0-1.024.242L11.1,8.278a1,1,0,0,0,.565,1.7l1.238.176a.925.925,0,0,0,.138.01,1.008,1.008,0,0,0,.71-.293l2.787-2.786a1,1,0,0,0-.39-1.656Zm-3.1,3.735-1.237-.177,2.963-2.964,1.06.354Z"/><path d="M13.11,21.938a.806.806,0,0,1-1.22,0,1.836,1.836,0,0,0-2.78,0,.806.806,0,0,1-1.22,0,1.835,1.835,0,0,0-2.775-.007A3.018,3.018,0,0,1,2.5,23a1.5,1.5,0,0,1,0-3,.5.5,0,0,0,0-1,2.5,2.5,0,0,0,0,5,4.014,4.014,0,0,0,3.385-1.431.8.8,0,0,1,1.225-.007,1.836,1.836,0,0,0,2.78,0,.806.806,0,0,1,1.22,0,1.836,1.836,0,0,0,2.78,0,.806.806,0,0,1,1.22,0,.5.5,0,1,0,.78-.624A1.836,1.836,0,0,0,13.11,21.938Z"/></svg>