<?xml version="1.0" encoding="utf-8"?>
<!-- Generator: Adobe Illustrator 22.1.0, SVG Export Plug-In . SVG Version: 6.00 Build 0)  -->
<svg version="1.1" id="Layer_1" xmlns="http://www.w3.org/2000/svg" xmlns:xlink="http://www.w3.org/1999/xlink" x="0px" y="0px"
	 viewBox="0 0 24 24" style="enable-background:new 0 0 24 24;" xml:space="preserve">
<g>
	<title>warehouse-cart-package-ribbon</title>
	<path d="M4,24c-1.379,0-2.5-1.122-2.5-2.5S2.621,19,4,19s2.5,1.122,2.5,2.5S5.379,24,4,24z M4,20c-0.827,0-1.5,0.673-1.5,1.5
		S3.173,23,4,23s1.5-0.673,1.5-1.5S4.827,20,4,20z"/>
	<path d="M14,24c-1.378,0-2.5-1.122-2.5-2.5S12.622,19,14,19s2.5,1.122,2.5,2.5S15.378,24,14,24z M14,20c-0.827,0-1.5,0.673-1.5,1.5
		S13.173,23,14,23s1.5-0.673,1.5-1.5S14.827,20,14,20z"/>
	<path d="M0.5,18C0.224,18,0,17.776,0,17.5S0.224,17,0.5,17h1V8.5C1.5,7.673,2.173,7,3,7h1V2.5C4,1.673,4.673,1,5.5,1h5
		C11.327,1,12,1.673,12,2.5V7h1c0.827,0,1.5,0.673,1.5,1.5v8.494c0.654-0.057,1.206-0.542,1.339-1.195l2.842-13.801
		C18.918,0.841,19.948,0,21.13,0h2.37C23.776,0,24,0.224,24,0.5S23.776,1,23.5,1h-2.37c-0.709,0-1.327,0.505-1.469,1.2
		l-2.842,13.801C16.582,17.159,15.552,18,14.37,18H0.5z M13.5,17V8.5C13.5,8.224,13.276,8,13,8h-2.5v5
		c0,0.19-0.106,0.362-0.276,0.447C10.154,13.482,10.077,13.5,10,13.5c-0.109,0-0.213-0.035-0.3-0.1L8,12.125L6.3,13.4
		c-0.087,0.065-0.191,0.1-0.3,0.1c-0.077,0-0.154-0.018-0.222-0.052C5.606,13.362,5.5,13.19,5.5,13V8H3C2.724,8,2.5,8.224,2.5,8.5
		V17H13.5z M8,11c0.109,0,0.213,0.035,0.3,0.1L9.5,12V8h-3v4l1.2-0.9C7.787,11.035,7.891,11,8,11z M11,7V2.5
		C11,2.224,10.776,2,10.5,2h-5C5.224,2,5,2.224,5,2.5V7H11z"/>
</g>
</svg>
