<?xml version="1.0" encoding="utf-8"?>
<!-- Generator: Adobe Illustrator 22.1.0, SVG Export Plug-In . SVG Version: 6.00 Build 0)  -->
<svg version="1.1" id="Layer_1" xmlns="http://www.w3.org/2000/svg" xmlns:xlink="http://www.w3.org/1999/xlink" x="0px" y="0px"
	 viewBox="0 0 24 24" style="enable-background:new 0 0 24 24;" xml:space="preserve">
<g>
	<title>warehouse-cart</title>
	<path d="M19.5,24c-1.199,0-2.215-0.845-2.449-2H4.949c-0.234,1.155-1.25,2-2.449,2C1.121,24,0,22.878,0,21.5
		c0-1.199,0.845-2.215,2-2.449V15.5c0-1.199,0.845-2.215,2-2.449V6H3.909C3.513,6,3.141,5.849,2.86,5.574l-2.369-2.31
		C0.478,3.252,0.467,3.239,0.456,3.226C0.162,2.873,0,2.426,0,1.967c0-0.525,0.204-1.019,0.576-1.391C0.948,0.205,1.442,0,1.967,0
		h5.064c0.462,0,0.91,0.162,1.263,0.458C9.127,1.153,9.238,2.397,8.543,3.23C8.531,3.244,8.519,3.257,8.507,3.268L6.142,5.574
		C5.86,5.849,5.488,6,5.095,6H5v7.001c1.124,0.027,2.09,0.798,2.364,1.893L8.141,18H22c1.103,0,2,0.897,2,2s-0.897,2-2,2h-0.051
		C21.715,23.155,20.699,24,19.5,24z M18.088,22c0.209,0.586,0.772,1,1.412,1s1.203-0.414,1.412-1H18.088z M2.5,20
		C1.673,20,1,20.673,1,21.5S1.673,23,2.5,23S4,22.327,4,21.5S3.327,20,2.5,20z M22,21c0.552,0,1-0.448,1-1s-0.448-1-1-1H8.391l0.5,2
		H22z M7.86,21l-1.466-5.864C6.227,14.467,5.628,14,4.938,14H4.5C3.673,14,3,14.673,3,15.5v3.551c0.973,0.2,1.749,0.976,1.949,1.949
		H7.86z M3.558,4.858C3.648,4.946,3.779,5,3.901,5H4V1H1.967C1.709,1,1.466,1.101,1.283,1.283C1.101,1.466,1,1.709,1,1.967
		c0,0.218,0.074,0.43,0.209,0.601L3.558,4.858z M5.093,5c0.138-0.005,0.259-0.053,0.351-0.142L7.79,2.571
		c0.156-0.195,0.229-0.44,0.206-0.689C7.973,1.624,7.851,1.391,7.653,1.225C7.479,1.08,7.259,1,7.032,1H5v4H5.093z"/>
</g>
</svg>
