<?xml version="1.0" encoding="utf-8"?>
<!-- Generator: Adobe Illustrator 22.1.0, SVG Export Plug-In . SVG Version: 6.00 Build 0)  -->
<svg version="1.1" id="Layer_1" xmlns="http://www.w3.org/2000/svg" xmlns:xlink="http://www.w3.org/1999/xlink" x="0px" y="0px"
	 viewBox="0 0 24 24" style="enable-background:new 0 0 24 24;" xml:space="preserve">
<g>
	<title>warehouse-delivery</title>
	<path d="M7.5,15.5C7.224,15.5,7,15.275,7,15v-1c0-0.276,0.224-0.5,0.5-0.5S8,13.724,8,14v1C8,15.275,7.775,15.5,7.5,15.5z"/>
	<path d="M7.5,12.5C7.224,12.5,7,12.275,7,12v-1c0-0.276,0.224-0.5,0.5-0.5S8,10.724,8,11v1C8,12.275,7.775,12.5,7.5,12.5z"/>
	<path d="M7.5,18.5C7.224,18.5,7,18.275,7,18v-1c0-0.276,0.224-0.5,0.5-0.5S8,16.724,8,17v1C8,18.275,7.775,18.5,7.5,18.5z"/>
	<path d="M8.5,22C7.673,22,7,21.327,7,20.5C7,20.224,7.224,20,7.5,20S8,20.224,8,20.5S8.224,21,8.5,21S9,21.224,9,21.5
		S8.775,22,8.5,22z"/>
	<path d="M20.5,24c-1.103,0-2-0.897-2-2H16c0,1.103-0.897,2-2,2s-2-0.897-2-2c-0.551,0-1-0.448-1-1v-6c0-0.552,0.449-1,1-1h8
		c0.552,0,1,0.448,1,1v0.687l1.279,0.426C23.309,16.455,24,17.415,24,18.5V21c0,0.552-0.448,1-1,1h-0.5
		C22.5,23.103,21.602,24,20.5,24z M19.5,22c0,0.552,0.448,1,1,1s1-0.448,1-1H19.5z M13,22c0,0.552,0.448,1,1,1s1-0.448,1-1H13z
		 M23,21v-2.5c0-0.654-0.416-1.232-1.037-1.438L21,16.74V21H23z M12,21h8v-6l-8,0L12,21z"/>
	<path d="M11.5,11c-0.276,0-0.5-0.224-0.5-0.5V6H5v4.5C5,10.776,4.775,11,4.5,11S4,10.776,4,10.5V6c0-0.551,0.449-1,1-1h6
		c0.551,0,1,0.449,1,1v4.5C12,10.776,11.775,11,11.5,11z"/>
	<path d="M13.5,11c-0.276,0-0.5-0.224-0.5-0.5V4.083l-5-3l-5,3L3.002,10.5c0,0.276-0.224,0.5-0.5,0.5c-0.276,0-0.5-0.224-0.5-0.5
		L2,4.683L0.757,5.429C0.679,5.475,0.59,5.5,0.5,5.5c-0.175,0-0.339-0.093-0.429-0.243C0.002,5.143-0.018,5.008,0.015,4.879
		S0.128,4.64,0.242,4.571l7.5-4.5C7.82,0.024,7.909,0,8,0s0.18,0.025,0.257,0.071l7.5,4.5c0.115,0.069,0.195,0.178,0.228,0.307
		s0.012,0.264-0.056,0.379c-0.09,0.15-0.254,0.243-0.429,0.243c-0.09,0-0.179-0.025-0.257-0.071L14,4.683V10.5
		C14,10.776,13.775,11,13.5,11z"/>
</g>
</svg>
