<?xml version="1.0" encoding="utf-8"?>
<!-- Generator: Adobe Illustrator 22.1.0, SVG Export Plug-In . SVG Version: 6.00 Build 0)  -->
<svg version="1.1" id="Layer_1" xmlns="http://www.w3.org/2000/svg" xmlns:xlink="http://www.w3.org/1999/xlink" x="0px" y="0px"
	 viewBox="0 0 24 24" style="enable-background:new 0 0 24 24;" xml:space="preserve">
<g>
	<title>warehouse-truck-delivery-1</title>
	<path d="M21.25,20.5c-1.199,0-2.215-0.845-2.449-2h-2.225c-0.421,1.187-1.557,2-2.826,2c-1.654,0-3-1.346-3-3
		c0-0.591,0.173-1.16,0.5-1.653v-2.901c0-0.722,0.218-1.416,0.632-2.008l2.062-2.945C14.599,7.058,15.671,6.5,16.812,6.5h2.938
		c0.827,0,1.5,0.673,1.5,1.5v3.5h0.5c0.827,0,1.5,0.673,1.5,1.5v3.503c0.323,0.431,0.5,0.959,0.5,1.497
		C23.75,19.378,22.628,20.5,21.25,20.5z M21.25,16.5c-0.827,0-1.5,0.673-1.5,1.5s0.673,1.5,1.5,1.5s1.5-0.673,1.5-1.5
		S22.077,16.5,21.25,16.5z M13.75,15.5c-1.103,0-2,0.897-2,2s0.897,2,2,2s2-0.897,2-2S14.853,15.5,13.75,15.5z M18.801,17.5
		c0.234-1.155,1.25-2,2.449-2c0.347,0,0.686,0.072,1,0.209V13c0-0.276-0.224-0.5-0.5-0.5h-3.085
		c-0.133,0.001-0.266,0.055-0.356,0.145l-2.594,2.594c0.653,0.568,1.035,1.394,1.035,2.262H18.801z M16.812,7.5
		c-0.815,0-1.581,0.399-2.048,1.067l-2.062,2.945c-0.296,0.422-0.452,0.918-0.452,1.434v1.957c0.454-0.262,0.972-0.403,1.5-0.403
		c0.372,0,0.736,0.069,1.084,0.205l2.77-2.77c0.277-0.274,0.663-0.433,1.06-0.436h1.587V8c0-0.276-0.224-0.5-0.5-0.5H16.812z"/>
	<path d="M2.75,20.5c-0.276,0-0.5-0.224-0.5-0.5s0.224-0.5,0.5-0.5h5c0.276,0,0.5-0.224,0.5-0.5V4c0-0.276,0.224-0.5,0.5-0.5
		s0.5,0.224,0.5,0.5v15c0,0.827-0.673,1.5-1.5,1.5H2.75z"/>
	<path d="M1.75,18.5c-0.827,0-1.5-0.673-1.5-1.5v-4c0-0.827,0.673-1.5,1.5-1.5h4c0.827,0,1.5,0.673,1.5,1.5v4
		c0,0.827-0.673,1.5-1.5,1.5H1.75z M1.75,12.5c-0.276,0-0.5,0.224-0.5,0.5v4c0,0.276,0.224,0.5,0.5,0.5h4c0.276,0,0.5-0.224,0.5-0.5
		v-4c0-0.276-0.224-0.5-0.5-0.5H1.75z"/>
	<path d="M3.75,16.5c-0.276,0-0.5-0.224-0.5-0.5s0.224-0.5,0.5-0.5h1.5c0.276,0,0.5,0.224,0.5,0.5s-0.224,0.5-0.5,0.5H3.75z"/>
</g>
</svg>
