<?xml version="1.0" encoding="utf-8"?>
<!-- Generator: Adobe Illustrator 22.1.0, SVG Export Plug-In . SVG Version: 6.00 Build 0)  -->
<svg version="1.1" id="Layer_1" xmlns="http://www.w3.org/2000/svg" xmlns:xlink="http://www.w3.org/1999/xlink" x="0px" y="0px"
	 viewBox="0 0 24 24" style="enable-background:new 0 0 24 24;" xml:space="preserve">
<g>
	<title>warehouse</title>
	<path d="M7.5,14.5C7.224,14.5,7,14.276,7,14s0.224-0.5,0.5-0.5h9c0.276,0,0.5,0.224,0.5,0.5s-0.224,0.5-0.5,0.5H7.5z"/>
	<path d="M7.5,16.5C7.224,16.5,7,16.276,7,16s0.224-0.5,0.5-0.5h9c0.276,0,0.5,0.224,0.5,0.5s-0.224,0.5-0.5,0.5H7.5z"/>
	<path d="M7.5,18.5C7.224,18.5,7,18.276,7,18s0.224-0.5,0.5-0.5h9c0.276,0,0.5,0.224,0.5,0.5s-0.224,0.5-0.5,0.5H7.5z"/>
	<path d="M2,21.5c-0.827,0-1.5-0.673-1.5-1.5V9c0-0.065,0.131-6.5,11.5-6.5c4.708,0,8.07,1.064,9.994,3.162
		C23.483,7.287,23.5,8.931,23.5,9v11c0,0.827-0.673,1.5-1.5,1.5H2z M22,20.5c0.276,0,0.5-0.224,0.5-0.5V9.5h-21V20
		c0,0.276,0.224,0.5,0.5,0.5h2.5V12c0-0.276,0.224-0.5,0.5-0.5h14c0.276,0,0.5,0.224,0.5,0.5v8.5H22z M18.5,20.5v-8h-13v8H18.5z
		 M22.436,8.5c-0.303-1.475-1.924-5-10.436-5c-8.511,0-10.133,3.525-10.436,5H22.436z"/>
	<path d="M10.5,6.5C10.224,6.5,10,6.276,10,6s0.224-0.5,0.5-0.5h3C13.776,5.5,14,5.724,14,6s-0.224,0.5-0.5,0.5H10.5z"/>
</g>
</svg>
