<?xml version="1.0" encoding="utf-8"?>
<!-- Generator: Adobe Illustrator 22.1.0, SVG Export Plug-In . SVG Version: 6.00 Build 0)  -->
<svg version="1.1" id="Layer_1" xmlns="http://www.w3.org/2000/svg" xmlns:xlink="http://www.w3.org/1999/xlink" x="0px" y="0px"
	 viewBox="0 0 24 24" style="enable-background:new 0 0 24 24;" xml:space="preserve">
<g>
	<title>warehouse-packages</title>
	<path d="M1,23.5c-0.276,0-0.5-0.224-0.5-0.5s0.224-0.5,0.5-0.5h1.5v-3H1c-0.276,0-0.5-0.224-0.5-0.5s0.224-0.5,0.5-0.5h22
		c0.276,0,0.5,0.224,0.5,0.5s-0.224,0.5-0.5,0.5h-1.5v3H23c0.276,0,0.5,0.224,0.5,0.5s-0.224,0.5-0.5,0.5H1z M20.5,22.5v-3h-1v3
		H20.5z M18.5,22.5v-3h-5v3H18.5z M12.5,22.5v-3h-1v3H12.5z M10.5,22.5v-3h-5v3H10.5z M4.5,22.5v-3h-1v3H4.5z"/>
	<path d="M4,17.5c-0.827,0-1.5-0.673-1.5-1.5v-6c0-0.827,0.673-1.5,1.5-1.5h3.5V2c0-0.827,0.673-1.5,1.5-1.5h7
		c0.827,0,1.5,0.673,1.5,1.5v6.5H20c0.827,0,1.5,0.673,1.5,1.5v6c0,0.827-0.673,1.5-1.5,1.5H4z M20,16.5c0.276,0,0.5-0.224,0.5-0.5
		v-6c0-0.276-0.224-0.5-0.5-0.5h-1.5v2c0,0.551-0.448,1-1,1h-2c-0.552,0-1-0.449-1-1v-2h-2v7H20z M4,9.5c-0.276,0-0.5,0.224-0.5,0.5
		v6c0,0.276,0.224,0.5,0.5,0.5h7.5v-7h-2v2c0,0.551-0.449,1-1,1h-2c-0.551,0-1-0.449-1-1v-2H4z M15.5,11.5h2v-2h-2V11.5z M6.5,11.5
		h2v-2h-2V11.5z M16.5,8.5V2c0-0.276-0.224-0.5-0.5-0.5h-1.5v2c0,0.551-0.448,1-1,1h-2c-0.551,0-1-0.449-1-1v-2H9
		C8.724,1.5,8.5,1.724,8.5,2v6.5H16.5z M11.5,3.5h2v-2h-2V3.5z"/>
</g>
</svg>
