<?xml version="1.0" encoding="utf-8"?>
<!-- Generator: Adobe Illustrator 22.1.0, SVG Export Plug-In . SVG Version: 6.00 Build 0)  -->
<svg version="1.1" id="Layer_1" xmlns="http://www.w3.org/2000/svg" xmlns:xlink="http://www.w3.org/1999/xlink" x="0px" y="0px"
	 viewBox="0 0 24 24" style="enable-background:new 0 0 24 24;" xml:space="preserve">
<g>
	<title>warehouse-cart-packages-1</title>
	<path d="M5.5,23.876c-1.103,0-2-0.897-2-2s0.897-2,2-2s2,0.897,2,2S6.603,23.876,5.5,23.876z M5.5,20.876c-0.551,0-1,0.448-1,1
		s0.449,1,1,1s1-0.448,1-1S6.051,20.876,5.5,20.876z"/>
	<path d="M19.5,23.876c-1.103,0-2-0.897-2-2s0.897-2,2-2s2,0.897,2,2S20.603,23.876,19.5,23.876z M19.5,20.876c-0.552,0-1,0.448-1,1
		s0.448,1,1,1s1-0.448,1-1S20.052,20.876,19.5,20.876z"/>
	<path d="M4.694,18.876c-0.108,0-0.215-0.017-0.317-0.052c-0.253-0.084-0.458-0.262-0.578-0.501c-0.12-0.239-0.139-0.51-0.054-0.764
		l0.228-0.684H3c-0.276,0-0.5-0.224-0.5-0.5s0.224-0.5,0.5-0.5h1.306l1-3H4c-0.276,0-0.5-0.224-0.5-0.5c0-0.276,0.224-0.5,0.5-0.5
		h1.639l1-3H5.5c-0.276,0-0.5-0.224-0.5-0.5s0.224-0.5,0.5-0.5h1.473l1-3H7c-0.276,0-0.5-0.224-0.5-0.5s0.224-0.5,0.5-0.5h1.306
		l0.216-0.649L8.7,2.514c0.126-0.51-0.114-1.03-0.584-1.266C7.962,1.171,7.79,1.13,7.617,1.13c-0.222,0-0.437,0.065-0.621,0.187
		l-0.72,0.476C6.193,1.848,6.098,1.876,6,1.876c-0.168,0-0.324-0.084-0.417-0.224c-0.152-0.23-0.088-0.541,0.141-0.693l0.719-0.475
		c0.347-0.231,0.753-0.353,1.173-0.353c0.328,0,0.655,0.077,0.947,0.223C9.455,0.801,9.91,1.788,9.67,2.755L9.64,2.876H20
		c0.827,0,1.5,0.673,1.5,1.5v13c0,0.827-0.673,1.5-1.5,1.5H4.694z M4.693,17.876l3.807,0v-5c0-0.552,0.449-1,1-1h1v-3
		c0-0.551,0.449-1,1-1h3c0.552,0,1,0.449,1,1v2h3c0.552,0,1,0.449,1,1v6H20c0.276,0,0.5-0.224,0.5-0.5v-13
		c0-0.276-0.224-0.5-0.5-0.5H9.36L4.693,17.876z M18.5,17.876v-1h-1c-0.276,0-0.5-0.224-0.5-0.5s0.224-0.5,0.5-0.5h1v-4h-3v6H18.5z
		 M14.5,17.876v-5h-5l0,5H14.5z M14.5,11.876v-3h-3l0,3H14.5z"/>
	<path d="M12.5,16.876c-0.276,0-0.5-0.224-0.5-0.5s0.224-0.5,0.5-0.5h1c0.276,0,0.5,0.224,0.5,0.5s-0.224,0.5-0.5,0.5H12.5z"/>
</g>
</svg>
