<?xml version="1.0" encoding="utf-8"?>
<!-- Generator: Adobe Illustrator 22.1.0, SVG Export Plug-In . SVG Version: 6.00 Build 0)  -->
<svg version="1.1" id="Layer_1" xmlns="http://www.w3.org/2000/svg" xmlns:xlink="http://www.w3.org/1999/xlink" x="0px" y="0px"
	 viewBox="0 0 24 24" style="enable-background:new 0 0 24 24;" xml:space="preserve">
<g>
	<title>warehouse-truck-delivery</title>
	<path d="M0.5,21.5C0.224,21.5,0,21.276,0,21s0.224-0.5,0.5-0.5H4v-4H1.5C1.224,16.5,1,16.276,1,16s0.224-0.5,0.5-0.5H4V4
		c0-0.827,0.673-1.5,1.5-1.5S7,3.173,7,4v16c0,0.827-0.673,1.5-1.5,1.5H0.5z M5.5,20.5C5.776,20.5,6,20.276,6,20V4
		c0-0.276-0.224-0.5-0.5-0.5S5,3.724,5,4v16.5H5.5z"/>
	<path d="M20.5,21.5c-1.199,0-2.215-0.845-2.449-2h-1.39c-0.58,1.22-1.803,2-3.161,2s-2.582-0.78-3.161-2H9.5
		C8.673,19.5,8,18.827,8,18v-4c0-5.238,4.262-9.5,9.5-9.5h2C20.878,4.5,22,5.621,22,7v5.691l1.171,0.586
		C23.682,13.532,24,14.046,24,14.617V18c0,0.654-0.426,1.227-1.036,1.425C22.76,20.62,21.73,21.5,20.5,21.5z M20.5,17.5
		c-0.827,0-1.5,0.673-1.5,1.5s0.673,1.5,1.5,1.5S22,19.827,22,19S21.327,17.5,20.5,17.5z M13.5,15.5c-1.379,0-2.5,1.122-2.5,2.5
		s1.121,2.5,2.5,2.5c1.378,0,2.5-1.122,2.5-2.5S14.878,15.5,13.5,15.5z M18.051,18.5c0.234-1.155,1.25-2,2.449-2
		c1.121,0,2.092,0.751,2.398,1.8C22.963,18.216,23,18.111,23,18v-3.382c0-0.19-0.106-0.361-0.277-0.447L21.382,13.5h-5.031
		c-0.113,0-0.224,0.039-0.312,0.109l-1.366,1.093C16.047,15.192,17,16.507,17,18c0,0.164-0.013,0.332-0.038,0.5H18.051z M9,18
		c0,0.276,0.224,0.5,0.5,0.5h0.538C10.013,18.331,10,18.164,10,18c0-1.877,1.449-3.394,3.314-3.492l2.099-1.68
		c0.265-0.212,0.598-0.328,0.938-0.328H17.5l1.015-4.12C18.57,8.157,18.77,8,19.001,8c0.039,0,0.079,0.005,0.117,0.014
		c0.131,0.032,0.241,0.113,0.31,0.227c0.069,0.114,0.09,0.249,0.057,0.379l-0.956,3.88H21V7c0-0.827-0.673-1.5-1.5-1.5h-2
		C12.813,5.5,9,9.313,9,14v0.293L12.293,11l-0.146-0.146C12.052,10.759,12,10.634,12,10.5s0.052-0.259,0.146-0.354
		S12.366,10,12.5,10s0.259,0.052,0.354,0.146l1,1C13.948,11.241,14,11.366,14,11.5s-0.052,0.259-0.146,0.354S13.634,12,13.5,12
		s-0.259-0.052-0.354-0.146L13,11.707L9,18z"/>
</g>
</svg>
