<?xml version="1.0" encoding="utf-8"?>
<!-- Generator: Adobe Illustrator 22.1.0, SVG Export Plug-In . SVG Version: 6.00 Build 0)  -->
<svg version="1.1" id="Light" xmlns="http://www.w3.org/2000/svg" xmlns:xlink="http://www.w3.org/1999/xlink" x="0px" y="0px"
	 viewBox="0 0 24 24" style="enable-background:new 0 0 24 24;" xml:space="preserve">
<g>
	<title>video-game-sling</title>
	<path d="M3.68,24.004c-0.284,0-0.564-0.048-0.833-0.144c-0.628-0.223-1.133-0.678-1.42-1.281c-0.288-0.604-0.323-1.282-0.1-1.91
		l2.229-6.286l-0.989-0.895c-1.35-1.222-1.829-3.121-1.221-4.838l1.052-2.96c0.002-0.008,0.004-0.016,0.007-0.024
		c0.003-0.01,0.008-0.019,0.012-0.029l0.156-0.44C2.579,5.175,2.593,5.137,2.607,5.1c0.194-0.5,0.569-0.893,1.058-1.108
		c0.257-0.114,0.529-0.171,0.807-0.171c0.247,0,0.491,0.046,0.724,0.136c0.497,0.193,0.89,0.568,1.106,1.058s0.229,1.033,0.036,1.53
		L6.174,7.004C7.04,6.85,7.843,6.433,8.467,5.808l1.385-1.385c1.688-1.688,3.918-2.705,6.297-2.877
		c0.305-0.936,1.351-1.54,2.67-1.54c0.468,0,0.944,0.075,1.413,0.222c1.814,0.571,2.968,2.076,2.605,3.378
		c0.045,0.329,0.068,0.654,0.068,0.967c-0.003,3.86-3.145,7-7.005,7c-0.575,0-1.152-0.074-1.722-0.22l-0.582,1.639
		c-0.609,1.717-2.179,2.89-3.998,2.989l-1.333,0.071l-2.229,6.286C5.685,23.335,4.737,24.004,3.68,24.004
		C3.68,24.004,3.68,24.004,3.68,24.004z M2.288,8.983c-0.473,1.334-0.1,2.811,0.95,3.762l1.236,1.119
		c0.15,0.136,0.203,0.347,0.135,0.538l-2.341,6.6c-0.276,0.78,0.133,1.639,0.912,1.915c0.162,0.058,0.33,0.087,0.5,0.087
		c0.634,0,1.203-0.402,1.415-0.999l2.341-6.6c0.067-0.191,0.242-0.321,0.444-0.332l1.666-0.089c1.415-0.076,2.635-0.989,3.109-2.324
		l0.222-0.625l-1.886-0.669c-0.41,1.034-1.311,1.557-2.68,1.557l-0.074,0c-0.968-0.019-1.921-0.357-2.683-0.952
		c-1.367-1.066-1.398-2.173-1.156-2.945l-1.888-0.67L2.288,8.983z M5.375,9.259c-0.099,0.279-0.362,1.019,0.795,1.923
		c0.593,0.463,1.334,0.726,2.086,0.74l0.083,0.001c1.394,0,1.65-0.719,1.747-0.99l0.125-0.352c0.002-0.007,0.004-0.014,0.006-0.021
		c0.003-0.008,0.006-0.017,0.01-0.025l0.652-1.839c0.001-0.005,0.003-0.011,0.005-0.016c0.003-0.008,0.006-0.017,0.01-0.025
		l0.159-0.447c0.297-0.798,1.031-1.311,1.872-1.311c0.217,0,0.432,0.035,0.641,0.105c1.046,0.35,1.611,1.486,1.261,2.532
		l-0.311,0.875c0.46,0.11,0.924,0.167,1.381,0.167c3.242,0,5.891-2.578,6.005-5.79c-0.203,0.123-0.43,0.222-0.681,0.294
		c-0.33,0.096-0.687,0.145-1.061,0.145c-0.471,0-0.951-0.076-1.427-0.226c-1.374-0.432-2.395-1.396-2.623-2.447
		c-2.097,0.177-4.06,1.088-5.55,2.578L9.174,6.515c-0.903,0.904-2.095,1.448-3.373,1.54L5.375,9.259z M13.212,11.092l0.335-0.943
		l-1.884-0.669l-0.334,0.943L13.212,11.092z M13.882,9.207c0.171-0.517-0.112-1.083-0.633-1.258
		c-0.105-0.035-0.214-0.053-0.323-0.053c-0.415,0-0.778,0.252-0.928,0.642L13.882,9.207z M4.731,8.082l0.242-0.683
		c0.003-0.007,0.007-0.019,0.01-0.026l0.082-0.233L3.181,6.471L2.846,7.413L4.731,8.082z M5.4,6.197
		c0.203-0.525-0.052-1.108-0.566-1.307C4.717,4.844,4.595,4.821,4.472,4.821c-0.139,0-0.274,0.029-0.403,0.086
		C3.824,5.015,3.636,5.211,3.54,5.46C3.533,5.477,3.516,5.528,3.516,5.528L5.4,6.197z M18.795,1.002
		c-0.866,0-1.532,0.338-1.697,0.862c-0.114,0.361,0.011,0.782,0.351,1.186c0.366,0.436,0.929,0.789,1.583,0.995
		c0.38,0.12,0.759,0.18,1.127,0.18c0.279,0,0.542-0.035,0.782-0.105c0.489-0.142,0.817-0.41,0.926-0.755
		c0.114-0.361-0.011-0.782-0.351-1.186c-0.366-0.436-0.929-0.789-1.583-0.995C19.551,1.063,19.168,1.002,18.795,1.002z"/>
</g>
</svg>
