<?xml version="1.0" encoding="utf-8"?>
<!-- Generator: Adobe Illustrator 22.1.0, SVG Export Plug-In . SVG Version: 6.00 Build 0)  -->
<svg version="1.1" id="Light" xmlns="http://www.w3.org/2000/svg" xmlns:xlink="http://www.w3.org/1999/xlink" x="0px" y="0px"
	 viewBox="0 0 24 24" style="enable-background:new 0 0 24 24;" xml:space="preserve">
<g>
	<title>video-game-mario-flower</title>
	<path d="M8.501,14.001c-0.276,0-0.5-0.224-0.5-0.5v-3c0-0.276,0.224-0.5,0.5-0.5s0.5,0.224,0.5,0.5v3
		C9.001,13.777,8.777,14.001,8.501,14.001z"/>
	<path d="M14.501,14.001c-0.276,0-0.5-0.224-0.5-0.5v-3c0-0.276,0.224-0.5,0.5-0.5s0.5,0.224,0.5,0.5v3
		C15.001,13.777,14.777,14.001,14.501,14.001z"/>
	<path d="M15.251,16.751c-1.361,0-2.587-0.722-3.25-1.878c-0.663,1.156-1.889,1.878-3.25,1.878c-2.068,0-3.75-1.682-3.75-3.75v-2
		c0-2.068,1.682-3.75,3.75-3.75c1.361,0,2.587,0.722,3.25,1.878c0.663-1.156,1.889-1.878,3.25-1.878c2.068,0,3.75,1.682,3.75,3.75v2
		C19.001,15.069,17.319,16.751,15.251,16.751z M12.001,12.501c0.276,0,0.5,0.224,0.5,0.5c0,1.516,1.234,2.75,2.75,2.75
		s2.75-1.234,2.75-2.75v-2c0-1.516-1.234-2.75-2.75-2.75s-2.75,1.234-2.75,2.75c0,0.276-0.224,0.5-0.5,0.5
		c-0.276,0-0.5-0.224-0.5-0.5c0-1.516-1.234-2.75-2.75-2.75s-2.75,1.234-2.75,2.75v2c0,1.516,1.234,2.75,2.75,2.75
		s2.75-1.234,2.75-2.75C11.501,12.725,11.725,12.501,12.001,12.501z"/>
	<path d="M12.001,24.001c-0.065,0-0.132-0.007-0.197-0.019c-0.263-0.053-0.488-0.204-0.637-0.426L9.591,21.19
		c-0.834-0.219-1.634-0.551-2.38-0.988l-2.792,0.558c-0.064,0.013-0.13,0.019-0.196,0.019c-0.065,0-0.13-0.006-0.194-0.019
		c-0.541-0.108-0.894-0.636-0.786-1.177l0.558-2.792c-0.437-0.746-0.77-1.546-0.988-2.38l-2.366-1.578
		c-0.11-0.074-0.204-0.167-0.277-0.277c-0.306-0.459-0.181-1.081,0.277-1.387l2.365-1.578c0.219-0.834,0.551-1.634,0.989-2.38
		L3.243,4.419c-0.026-0.13-0.026-0.261,0-0.391C3.295,3.766,3.446,3.54,3.668,3.392c0.165-0.11,0.357-0.168,0.554-0.168
		c0.065,0,0.131,0.006,0.196,0.019L7.211,3.8c0.746-0.437,1.546-0.77,2.38-0.989l1.578-2.366c0.074-0.11,0.167-0.204,0.277-0.277
		C11.611,0.06,11.802,0.002,12,0.002c0.336,0,0.647,0.166,0.833,0.445l1.578,2.366c0.834,0.219,1.634,0.551,2.38,0.988l2.792-0.558
		c0.064-0.013,0.13-0.02,0.196-0.02s0.131,0.007,0.196,0.02c0.261,0.052,0.487,0.203,0.635,0.425
		c0.149,0.222,0.202,0.489,0.149,0.751l-0.558,2.792c0.437,0.746,0.77,1.546,0.988,2.38l2.366,1.579
		c0.11,0.074,0.203,0.167,0.277,0.277c0.148,0.222,0.201,0.489,0.149,0.751c-0.052,0.262-0.204,0.488-0.426,0.636l-2.365,1.577
		c-0.219,0.834-0.551,1.634-0.988,2.38l0.558,2.792c0.026,0.13,0.026,0.261,0,0.39c-0.094,0.468-0.506,0.806-0.981,0.806
		c-0.064,0-0.13-0.007-0.195-0.019l-2.793-0.558c-0.746,0.438-1.546,0.77-2.38,0.988l-1.579,2.366
		c-0.075,0.111-0.168,0.204-0.278,0.277C12.39,23.943,12.199,24.001,12.001,24.001z M12,23.001l1.04-1.558
		c-0.349,0.039-0.696,0.058-1.039,0.058c-0.343,0-0.691-0.02-1.04-0.059L12,23.001z M12.001,3.501c-4.687,0-8.5,3.813-8.5,8.5
		c0,4.687,3.813,8.5,8.5,8.5c4.687,0,8.5-3.813,8.5-8.5C20.501,7.314,16.688,3.501,12.001,3.501z M4.223,19.779l1.843-0.368
		c-0.545-0.437-1.038-0.93-1.474-1.475L4.223,19.779z M19.779,19.779l-0.368-1.843c-0.437,0.544-0.93,1.038-1.475,1.475
		L19.779,19.779z M21.443,10.962c0.039,0.349,0.058,0.696,0.058,1.039c0,0.343-0.02,0.691-0.059,1.04l1.558-1.039L21.443,10.962z
		 M1.002,12.001l1.558,1.04c-0.039-0.349-0.058-0.697-0.058-1.04s0.02-0.691,0.058-1.039L1.002,12.001z M17.936,4.591
		c0.544,0.437,1.038,0.93,1.475,1.474l0.368-1.842L17.936,4.591z M4.591,6.066c0.437-0.544,0.93-1.038,1.474-1.474L4.223,4.223
		L4.591,6.066z M12.001,2.501c0.343,0,0.691,0.02,1.04,0.058l-1.04-1.558l-1.039,1.558C11.31,2.52,11.658,2.501,12.001,2.501z"/>
</g>
</svg>
