<?xml version="1.0" encoding="utf-8"?>
<!-- Generator: Adobe Illustrator 22.1.0, SVG Export Plug-In . SVG Version: 6.00 Build 0)  -->
<svg version="1.1" id="Light" xmlns="http://www.w3.org/2000/svg" xmlns:xlink="http://www.w3.org/1999/xlink" x="0px" y="0px"
	 viewBox="0 0 24 24" style="enable-background:new 0 0 24 24;" xml:space="preserve">
<g>
	<title>video-game-mario</title>
	<path d="M4,24c-0.276,0-0.5-0.224-0.5-0.5S3.724,23,4,23h1V9H4C3.724,9,3.5,8.775,3.5,8.5S3.724,8,4,8h1.712
		c1.295-2.253,1.231-3.801-0.2-5.01c-0.421-0.355-0.475-0.988-0.12-1.409c0.191-0.226,0.47-0.355,0.766-0.355
		c0.002,0,0.023,0,0.025,0c1.684,0.107,3.146,1.052,3.932,2.479c0.033-0.758-0.14-1.513-0.51-2.188
		c-0.13-0.193-0.18-0.451-0.129-0.708C9.53,0.544,9.682,0.316,9.906,0.167c0.165-0.11,0.356-0.168,0.553-0.168
		c0.056,0,0.113,0.005,0.169,0.015c2.668,0.501,4.76,2.617,5.263,5.244l0.341-0.409c0.19-0.228,0.47-0.359,0.769-0.359
		c0.233,0,0.461,0.082,0.64,0.232C17.869,4.911,18,5.191,18,5.489V8h2c0.276,0,0.5,0.224,0.5,0.5S20.276,9,20,9h-1v14h1
		c0.276,0,0.5,0.224,0.5,0.5S20.276,24,20,24H4z M18,23v-2H6v2H18z M18,20v-2H6v2H18z M18,17v-2H6v2H18z M18,14v-2H6v2H18z M18,11V9
		H6v2H18z M17,8V5.489L15.891,6.82C15.796,6.934,15.656,7,15.507,7c-0.058,0-0.116-0.01-0.171-0.03
		c-0.197-0.071-0.33-0.261-0.329-0.471c0.005-2.69-1.911-5.004-4.555-5.5c0.004,0.006,0.016,0.013,0.02,0.02
		c0.797,1.45,0.859,3.205,0.165,4.693C10.555,5.886,10.377,6,10.183,6c-0.026,0-0.051-0.002-0.077-0.006
		C9.887,5.959,9.715,5.782,9.687,5.562C9.46,3.755,7.983,2.356,6.168,2.227C7.841,3.651,8.07,5.591,6.848,8H17z"/>
	<path d="M2,6C1.724,6,1.5,5.775,1.5,5.5v-1h-1C0.224,4.5,0,4.275,0,4s0.224-0.5,0.5-0.5h1v-1C1.5,2.224,1.724,2,2,2
		s0.5,0.224,0.5,0.5v1h1C3.776,3.5,4,3.724,4,4S3.776,4.5,3.5,4.5h-1v1C2.5,5.775,2.276,6,2,6z"/>
	<path d="M22,4c-0.276,0-0.5-0.224-0.5-0.5v-1h-1C20.224,2.5,20,2.275,20,2s0.224-0.5,0.5-0.5h1v-1C21.5,0.224,21.724,0,22,0
		s0.5,0.224,0.5,0.5v1h1C23.776,1.5,24,1.724,24,2s-0.224,0.5-0.5,0.5h-1v1C22.5,3.775,22.276,4,22,4z"/>
</g>
</svg>
