<?xml version="1.0" encoding="utf-8"?>
<!-- Generator: Adobe Illustrator 22.1.0, SVG Export Plug-In . SVG Version: 6.00 Build 0)  -->
<svg version="1.1" id="Light" xmlns="http://www.w3.org/2000/svg" xmlns:xlink="http://www.w3.org/1999/xlink" x="0px" y="0px"
	 viewBox="0 0 24 24" style="enable-background:new 0 0 24 24;" xml:space="preserve">
<g>
	<title>video-game-gamasutra-1</title>
	<path d="M19,17c-0.552,0-1-0.448-1-1v-2h-3v2c0,0.552-0.448,1-1,1h-4c-0.551,0-1-0.448-1-1v-2H6v2c0,0.552-0.449,1-1,1H1
		c-0.551,0-1-0.448-1-1v-6c0-0.551,0.449-1,1-1h2V5c0-0.551,0.449-1,1-1h4V2c0-0.551,0.449-1,1-1h6c0.552,0,1,0.449,1,1v2h4
		c0.552,0,1,0.449,1,1v4h2c0.552,0,1,0.449,1,1v6c0,0.552-0.448,1-1,1H19z M18,13c0.552,0,1,0.448,1,1v2h4v-6h-2
		c-0.552,0-1-0.449-1-1V5h-4c-0.552,0-1-0.449-1-1V2H9v2c0,0.551-0.449,1-1,1H4v4c0,0.551-0.449,1-1,1H1v6h4v-2c0-0.552,0.449-1,1-1
		h3c0.551,0,1,0.448,1,1v2h4v-2c0-0.552,0.448-1,1-1H18z"/>
	<path d="M7,11c-0.551,0-1-0.449-1-1V8c0-0.551,0.449-1,1-1h3c0.551,0,1,0.449,1,1v2c0,0.551-0.449,1-1,1H7z M7,10h3V8H7L7,10z"/>
	<path d="M14,11c-0.552,0-1-0.449-1-1V8c0-0.551,0.448-1,1-1h3c0.552,0,1,0.449,1,1v2c0,0.551-0.448,1-1,1H14z M14,10h3V8h-3L14,10z
		"/>
	<path d="M11,23c-0.551,0-1-0.448-1-1v-2c0-0.552,0.449-1,1-1h2c0.552,0,1,0.448,1,1v2c0,0.552-0.448,1-1,1H11z M11,22h2v-2h-2
		L11,22z"/>
</g>
</svg>
