<?xml version="1.0" encoding="utf-8"?>
<!-- Generator: Adobe Illustrator 22.1.0, SVG Export Plug-In . SVG Version: 6.00 Build 0)  -->
<svg version="1.1" id="Light" xmlns="http://www.w3.org/2000/svg" xmlns:xlink="http://www.w3.org/1999/xlink" x="0px" y="0px"
	 viewBox="0 0 24 24" style="enable-background:new 0 0 24 24;" xml:space="preserve">
<g>
	<title>video-game-mario-question-box</title>
	<path d="M1.5,24C0.673,24,0,23.327,0,22.5v-21C0,0.673,0.673,0,1.5,0h21C23.327,0,24,0.673,24,1.5v21c0,0.827-0.673,1.5-1.5,1.5
		H1.5z M1.5,1C1.224,1,1,1.224,1,1.5v21C1,22.776,1.224,23,1.5,23h21c0.276,0,0.5-0.224,0.5-0.5v-21C23,1.224,22.776,1,22.5,1H1.5z"
		/>
	<path d="M11,17c-0.551,0-1-0.448-1-1v-3.5c0-0.827,0.673-1.5,1.5-1.5H12c0.198-0.004,0.375-0.028,0.538-0.072
		c1.062-0.294,1.688-1.398,1.395-2.461c-0.182-0.682-0.717-1.217-1.395-1.398c-0.072-0.02-0.143-0.035-0.213-0.047
		c-0.107-0.017-0.216-0.026-0.323-0.026c-0.421,0-0.826,0.132-1.171,0.381c-0.434,0.314-0.72,0.778-0.805,1.307
		C9.933,9.161,9.526,9.5,9.054,9.5c0,0-2.034,0-2.036,0c-0.025,0-0.043-0.001-0.062-0.002C6.689,9.481,6.447,9.363,6.272,9.164
		C6.097,8.964,6.009,8.709,6.026,8.444c0.239-2.499,1.946-4.547,4.35-5.224c0.537-0.151,1.088-0.228,1.639-0.228
		c1.017,0,2.028,0.266,2.926,0.769c1.4,0.784,2.41,2.066,2.846,3.61c0.435,1.544,0.243,3.165-0.541,4.565
		c-0.719,1.283-1.866,2.247-3.246,2.73V16c0,0.552-0.448,1-1,1H11z M11.5,12c-0.276,0-0.5,0.224-0.5,0.5V16h2v-1.7
		c0-0.223,0.15-0.42,0.364-0.481c1.285-0.362,2.353-1.205,3.007-2.373s0.815-2.519,0.453-3.803
		c-0.363-1.287-1.205-2.356-2.371-3.009c-0.749-0.419-1.592-0.641-2.439-0.641c-0.459,0-0.919,0.064-1.366,0.19
		C8.652,4.745,7.232,6.438,7.025,8.5l2.019,0c0.226-1.419,1.5-2.503,2.959-2.503c0.16,0,0.321,0.013,0.479,0.039
		c0.108,0.017,0.214,0.04,0.316,0.068c1.021,0.273,1.825,1.078,2.099,2.101c0.44,1.591-0.499,3.246-2.093,3.687
		C12.542,11.964,12.276,12,12.013,12H11.5z"/>
	<path d="M12,22c-1.103,0-2-0.897-2-2s0.897-2,2-2s2,0.897,2,2S13.103,22,12,22z M12,19c-0.551,0-1,0.448-1,1s0.449,1,1,1
		c0.552,0,1-0.448,1-1S12.552,19,12,19z"/>
	<path d="M4.5,5C4.366,5,4.241,4.948,4.146,4.854L3.5,4.207L2.854,4.854C2.759,4.948,2.634,5,2.5,5S2.241,4.948,2.146,4.854
		S2,4.634,2,4.5s0.052-0.259,0.146-0.354L2.793,3.5L2.146,2.854C2.052,2.759,2,2.634,2,2.5s0.052-0.259,0.146-0.354S2.366,2,2.5,2
		s0.259,0.052,0.354,0.146L3.5,2.793l0.646-0.646C4.241,2.052,4.366,2,4.5,2s0.259,0.052,0.354,0.146S5,2.366,5,2.5
		S4.948,2.759,4.854,2.854L4.207,3.5l0.646,0.646C4.948,4.241,5,4.366,5,4.5S4.948,4.759,4.854,4.854S4.634,5,4.5,5z"/>
	<path d="M21.5,5c-0.134,0-0.259-0.052-0.354-0.146L20.5,4.207l-0.646,0.646C19.759,4.948,19.634,5,19.5,5s-0.259-0.052-0.354-0.146
		S19,4.634,19,4.5s0.052-0.259,0.146-0.354L19.793,3.5l-0.646-0.646C19.052,2.759,19,2.634,19,2.5s0.052-0.259,0.146-0.354
		S19.366,2,19.5,2s0.259,0.052,0.354,0.146L20.5,2.793l0.646-0.646C21.241,2.052,21.366,2,21.5,2s0.259,0.052,0.354,0.146
		S22,2.366,22,2.5s-0.052,0.259-0.146,0.354L21.207,3.5l0.646,0.646C21.948,4.241,22,4.366,22,4.5s-0.052,0.259-0.146,0.354
		S21.634,5,21.5,5z"/>
	<path d="M21.5,22c-0.134,0-0.259-0.052-0.354-0.146L20.5,21.207l-0.646,0.646C19.759,21.948,19.634,22,19.5,22
		s-0.259-0.052-0.354-0.146S19,21.634,19,21.5s0.052-0.259,0.146-0.354l0.646-0.646l-0.646-0.646C19.052,19.759,19,19.634,19,19.5
		s0.052-0.259,0.146-0.354S19.366,19,19.5,19s0.259,0.052,0.354,0.146l0.646,0.646l0.646-0.646C21.241,19.052,21.366,19,21.5,19
		s0.259,0.052,0.354,0.146S22,19.366,22,19.5s-0.052,0.259-0.146,0.354L21.207,20.5l0.646,0.646C21.948,21.241,22,21.366,22,21.5
		s-0.052,0.259-0.146,0.354S21.634,22,21.5,22z"/>
	<path d="M4.5,22c-0.134,0-0.259-0.052-0.354-0.146L3.5,21.207l-0.646,0.646C2.759,21.948,2.634,22,2.5,22s-0.259-0.052-0.354-0.146
		S2,21.634,2,21.5s0.052-0.259,0.146-0.354L2.793,20.5l-0.646-0.646C2.052,19.759,2,19.634,2,19.5s0.052-0.259,0.146-0.354
		S2.366,19,2.5,19s0.259,0.052,0.354,0.146L3.5,19.793l0.646-0.646C4.241,19.052,4.366,19,4.5,19s0.259,0.052,0.354,0.146
		S5,19.366,5,19.5s-0.052,0.259-0.146,0.354L4.207,20.5l0.646,0.646C4.948,21.241,5,21.366,5,21.5s-0.052,0.259-0.146,0.354
		S4.634,22,4.5,22z"/>
</g>
</svg>
