<?xml version="1.0" encoding="utf-8"?>
<!-- Generator: Adobe Illustrator 22.1.0, SVG Export Plug-In . SVG Version: 6.00 Build 0)  -->
<svg version="1.1" id="Light" xmlns="http://www.w3.org/2000/svg" xmlns:xlink="http://www.w3.org/1999/xlink" x="0px" y="0px"
	 viewBox="0 0 24 24" style="enable-background:new 0 0 24 24;" xml:space="preserve">
<g>
	<title>video-game-sonic</title>
	<path d="M10.073,22c-0.263,0-0.482-0.206-0.499-0.468c-0.018-0.275,0.192-0.513,0.467-0.531c1.086-0.07,2.046-0.726,2.506-1.712
		C12.629,19.113,12.807,19,13.001,19c0.073,0,0.144,0.016,0.21,0.047c0.25,0.117,0.359,0.415,0.242,0.665
		c-0.615,1.318-1.897,2.194-3.348,2.288C10.1,21.999,10.078,22,10.073,22z"/>
	<path d="M5.5,14.5C5.224,14.5,5,14.276,5,14v-1c0-0.276,0.224-0.5,0.5-0.5S6,12.724,6,13v1C6,14.276,5.776,14.5,5.5,14.5z"/>
	<path d="M11.5,16c-0.276,0-0.5-0.224-0.5-0.5v-3c0-0.276,0.224-0.5,0.5-0.5s0.5,0.224,0.5,0.5v3C12,15.776,11.776,16,11.5,16z"/>
	<path d="M17.5,9.5C17.224,9.5,17,9.276,17,9c0-2.91-1.408-4.383-2.022-4.886c-1.225,0.819-2.13,2.092-2.494,3.519
		c-0.056,0.222-0.255,0.377-0.483,0.377c-0.042,0-0.084-0.005-0.126-0.016c-0.128-0.033-0.237-0.114-0.305-0.229
		s-0.088-0.25-0.054-0.379c0.458-1.795,1.635-3.365,3.23-4.307C14.823,3.034,14.911,3.01,15,3.01c0.09,0,0.179,0.025,0.256,0.071
		C15.368,3.147,18,4.761,18,9C18,9.276,17.776,9.5,17.5,9.5z"/>
	<path d="M9.5,24c-4.075,0-7.367-2.314-7.916-5.531C0.655,18.329,0,17.733,0,17c0-0.841,0.879-1.5,2-1.5
		c0.438,0,0.849,0.1,1.188,0.285C3.059,15.198,2.996,14.598,3,13.996c0-0.77,0.1-1.525,0.289-2.189
		c-0.183-0.414-0.283-0.861-0.289-1.3c0-1.253,0.224-2.006,0.792-2.628L2.768,4.466C2.609,3.938,2.91,3.379,3.438,3.22
		c0.094-0.028,0.191-0.042,0.288-0.042c0.081,0,0.163,0.01,0.242,0.029C5.006,3.485,6.03,3.859,7.018,4.323
		c0.696-0.821,1.529-1.5,2.542-2.072C12.206,0.757,16.094,0,21.115,0c0.174,0.003,0.34,0.048,0.485,0.13
		c0.233,0.132,0.4,0.347,0.47,0.604c0.071,0.258,0.037,0.528-0.095,0.76c-0.836,1.462-1.59,2.988-2.244,4.542
		c2.011,0.234,3.796,1.541,4.234,3.144c0.017,0.067,0.025,0.122,0.03,0.178c0.04,0.551-0.375,1.031-0.924,1.072
		c-0.503,0.022-1.403,0.351-1.971,2.263c1.93,0.838,3.076,2.778,2.87,4.897c-0.049,0.492-0.458,0.877-0.951,0.894
		c-0.923,0.073-1.826,0.311-2.678,0.706c-0.535,1.955-2.303,3.31-4.34,3.31c-0.06,0-0.121-0.002-0.181-0.006
		C14.267,23.452,11.97,24,9.5,24z M2.593,18.435C3.13,21.135,5.929,23,9.5,23c5.153,0,7.5-2.073,7.5-4
		c0.054-1.279-0.896-2.366-2.14-2.491c-0.758,1.247-2.059,2.04-3.509,2.13c-0.001,0-0.003,0-0.005,0
		c-1.381,0-2.886-0.221-3.755-1.841c-0.112-0.061-0.611-0.233-1.48-0.306c-0.241-0.02-0.479-0.031-0.708-0.031
		c-0.59,0-1.103,0.069-1.455,0.193C3.983,16.766,4,16.882,4,17C4,17.684,3.433,18.249,2.593,18.435z M15.291,15.569
		c1.611,0.328,2.78,1.787,2.708,3.452c0,0.832-0.263,1.591-0.785,2.259c1.106-0.409,1.953-1.358,2.208-2.543
		c0.032-0.149,0.129-0.273,0.265-0.342c1.027-0.512,2.128-0.818,3.273-0.908c0.189-1.798-0.892-3.45-2.616-4.011
		c-0.247-0.081-0.392-0.341-0.331-0.593c0.706-2.918,2.181-3.415,2.998-3.451c-0.374-1.316-2.155-2.433-3.902-2.433L19.011,7
		c-0.186-0.008-0.333-0.087-0.423-0.216c-0.095-0.138-0.115-0.314-0.052-0.47c0.73-1.821,1.595-3.609,2.571-5.315
		C10.154,1,7.505,4.528,6.465,7.182C6.42,7.298,6.335,7.392,6.224,7.447c-1.831,0.915-2.194,1.347-2.222,2.846
		C4.395,9.777,4.87,9.5,5.382,9.5c0.972,0,1.711,1.074,2.144,2.236C8.379,10.337,9.876,9,11.5,9c2.393,0,4,2.585,4,5
		C15.529,14.525,15.459,15.054,15.291,15.569z M5.406,15.461c0.391,0,0.805,0.027,1.195,0.077c0.984,0.128,1.595,0.357,1.814,0.682
		c0.01,0.016,0.02,0.032,0.029,0.049c0.512,1,1.292,1.371,2.876,1.371c1.131-0.071,2.155-0.718,2.733-1.731
		c0.019-0.093,0.063-0.176,0.129-0.244c0.24-0.511,0.35-1.076,0.32-1.637C14.5,12.075,13.294,10,11.5,10
		c-1.382,0-3.042,1.526-3.624,3.333c-0.067,0.207-0.26,0.346-0.482,0.346c-0.006,0-0.023,0-0.028-0.001
		c-0.23-0.016-0.418-0.186-0.458-0.413c-0.294-1.688-1.1-2.766-1.525-2.766c-0.315,0-0.773,0.432-1.083,1.398
		c0,0.004-0.007,0.029-0.018,0.055C4.1,12.536,4,13.25,4,14c-0.004,0.528,0.051,1.053,0.164,1.566
		C4.529,15.497,4.945,15.461,5.406,15.461z M2,16.5c-0.563,0-1,0.269-1,0.5s0.437,0.5,1,0.5s1-0.269,1-0.5S2.563,16.5,2,16.5z
		 M4.629,7.192c0.265-0.172,0.58-0.35,0.977-0.553c0.218-0.523,0.484-1.025,0.796-1.497C5.526,4.743,4.627,4.419,3.726,4.178
		L4.629,7.192z"/>
</g>
</svg>
