<?xml version="1.0" encoding="utf-8"?>
<!-- Generator: Adobe Illustrator 22.1.0, SVG Export Plug-In . SVG Version: 6.00 Build 0)  -->
<svg version="1.1" id="Light" xmlns="http://www.w3.org/2000/svg" xmlns:xlink="http://www.w3.org/1999/xlink" x="0px" y="0px"
	 viewBox="0 0 24 24" style="enable-background:new 0 0 24 24;" xml:space="preserve">
<g>
	<title>video-game-mario-character</title>
	<path d="M7,24c-3.86,0-7-3.14-7-7v-5.5c-0.001-4.46,3.484-8.186,7.934-8.483c0.022-0.002,0.045-0.002,0.067-0.002
		C8.269,3.016,8.52,3.12,8.708,3.31S9.001,3.75,9,4.017v1.997c1.065-1.686,2.868-2.804,4.91-2.99
		c0.033-0.003,0.065-0.004,0.093-0.004c0.269,0.001,0.519,0.106,0.708,0.296c0.188,0.19,0.291,0.442,0.29,0.709v4.303
		c0.896-1.28,2.295-2.119,3.888-2.297c0.031-0.004,0.065-0.007,0.099-0.007c0.005,0,0.027,0.001,0.032,0.001
		C19.557,6.028,20.003,6.479,20,7.03V17c0,3.86-3.14,7-7,7H7z M8,4.016C4.073,4.286,0.999,7.57,1,11.5V17c0,3.308,2.692,6,6,6h6
		c3.308,0,6-2.692,6-6V7.027c-2.279,0.252-3.998,2.173-4,4.466C15,11.776,14.776,12,14.5,12S14,11.776,14,11.5V4.022
		c-2.839,0.257-4.999,2.611-5,5.473C9,9.776,8.776,10,8.5,10C8.224,10,8,9.776,8,9.5V4.016z"/>
	<path d="M7.507,22.002c-0.229,0-0.461-0.018-0.69-0.053c-1.973-0.302-3.501-1.83-3.803-3.802c-0.039-0.268,0.028-0.532,0.189-0.746
		s0.394-0.353,0.659-0.39C3.906,17.004,3.95,17.001,3.994,17h7.005c0.552,0,1,0.444,1.006,0.99c0,0.051-0.003,0.103-0.01,0.153
		C11.658,20.344,9.729,22.002,7.507,22.002z M4.006,18c0.233,1.535,1.424,2.726,2.963,2.961c0.178,0.027,0.359,0.041,0.538,0.041
		c1.732,0,3.236-1.292,3.499-3.007L4.006,18z"/>
	<path d="M4.5,16C4.224,16,4,15.776,4,15.5v-3C4,12.224,4.224,12,4.5,12S5,12.224,5,12.5v3C5,15.776,4.776,16,4.5,16z"/>
	<path d="M9.5,16C9.224,16,9,15.776,9,15.5v-3C9,12.224,9.224,12,9.5,12s0.5,0.224,0.5,0.5v3C10,15.776,9.776,16,9.5,16z"/>
	<path d="M20,4.5c-0.276,0-0.5-0.224-0.5-0.5c0-2.206,1.794-4,4-4C23.776,0,24,0.224,24,0.5S23.776,1,23.5,1c-1.654,0-3,1.346-3,3
		C20.5,4.276,20.276,4.5,20,4.5z"/>
	<path d="M14.489,2.062c-0.13,0-0.254-0.05-0.348-0.141c-0.096-0.093-0.15-0.217-0.152-0.351c-0.002-0.134,0.048-0.26,0.141-0.356
		C14.877,0.443,15.921,0,16.996,0C17.287,0.01,17.5,0.225,17.5,0.501C17.5,0.776,17.275,1,17,1c-0.809,0-1.592,0.332-2.152,0.91
		C14.753,2.008,14.625,2.062,14.489,2.062z"/>
	<path d="M9.009,2.042c-0.132,0-0.256-0.051-0.35-0.143C8.462,1.705,8.459,1.388,8.653,1.191C9.397,0.434,10.433,0,11.496,0
		c0.139,0,0.264,0.052,0.359,0.147C11.948,0.241,12,0.367,12,0.501C12,0.776,11.776,1,11.5,1c-0.005,0-0.011,0-0.017-0.001
		C10.68,1.008,9.916,1.333,9.365,1.893C9.271,1.989,9.144,2.042,9.009,2.042z"/>
</g>
</svg>
