<?xml version="1.0" encoding="utf-8"?>
<!-- Generator: Adobe Illustrator 22.1.0, SVG Export Plug-In . SVG Version: 6.00 Build 0)  -->
<svg version="1.1" id="Light" xmlns="http://www.w3.org/2000/svg" xmlns:xlink="http://www.w3.org/1999/xlink" x="0px" y="0px"
	 viewBox="0 0 24 24" style="enable-background:new 0 0 24 24;" xml:space="preserve">
<g>
	<title>video-game-mario-flame</title>
	<path d="M13.002,23.25c-4.352,0-7.865-3.407-7.998-7.756C5.001,15.413,5,15.331,5,15.249c0.098-1.856,0.64-3.668,1.569-5.253
		c0.279-0.592,0.434-1.279,0.437-1.969C6.844,6.663,6.092,5.45,4.941,4.698C4.699,4.511,4.562,4.276,4.53,4.007
		C4.497,3.741,4.57,3.479,4.735,3.269C4.856,3.115,5.019,3,5.206,2.937C5.533,2.82,5.883,2.756,6.241,2.749
		C8.919,2.88,11.003,5.062,11,7.718c-0.004,0.136,0.074,0.244,0.195,0.276C11.209,7.997,11.231,8,11.25,8
		c0.041,0,0.073-0.012,0.108-0.04c0.254-0.203,0.439-0.975,0.439-1.834c0.026-1.154-0.29-2.268-0.913-3.228
		c-0.146-0.227-0.194-0.495-0.136-0.756c0.057-0.261,0.213-0.484,0.438-0.628c0.161-0.103,0.348-0.158,0.539-0.158
		c0.04,0,0.081,0.002,0.121,0.007c0.004,0.001,0.021,0.003,0.025,0.004c3.389,0.589,6.001,3.27,6.531,6.62l0.831-0.997
		c0.191-0.229,0.471-0.359,0.769-0.359c0.233,0,0.46,0.082,0.64,0.232C20.869,7.053,21,7.333,21,7.63v7.305
		c0.065,4.408-3.335,8.06-7.743,8.31C13.168,23.248,13.085,23.25,13.002,23.25L13.002,23.25z M5.527,3.888
		c1.387,0.914,2.288,2.39,2.475,4.055C8.005,7.961,8.006,7.98,8.006,7.999c0.001,0.847-0.191,1.699-0.554,2.465
		c-0.865,1.48-1.363,3.137-1.452,4.812C6,15.32,6.001,15.392,6.003,15.464c0.114,3.742,3.247,6.786,6.984,6.786
		c0.075,0,0.151-0.001,0.226-0.003c3.861-0.219,6.844-3.428,6.787-7.304V7.63l-1.616,1.939c-0.096,0.115-0.236,0.18-0.385,0.18
		c-0.058,0-0.115-0.01-0.17-0.03c-0.198-0.072-0.33-0.261-0.33-0.47c0-3.409-2.437-6.309-5.794-6.896
		c0.751,1.129,1.122,2.437,1.091,3.784c0,0.583-0.079,2.016-0.815,2.604c-0.211,0.169-0.465,0.258-0.734,0.258
		c-0.096,0-0.194-0.011-0.293-0.033C10.372,8.81,9.983,8.291,10,7.703c0.002-2.107-1.652-3.845-3.766-3.953
		C6.002,3.755,5.76,3.801,5.532,3.882L5.527,3.888z"/>
	<path d="M13,20.749c-3.033,0-5.5-2.467-5.5-5.5s2.467-5.5,5.5-5.5s5.5,2.467,5.5,5.5S16.033,20.749,13,20.749z M13,10.749
		c-2.481,0-4.5,2.019-4.5,4.5s2.019,4.5,4.5,4.5c2.481,0,4.5-2.019,4.5-4.5S15.481,10.749,13,10.749z"/>
	<path d="M11.5,16.749c-0.276,0-0.5-0.224-0.5-0.5v-2c0-0.276,0.224-0.5,0.5-0.5s0.5,0.224,0.5,0.5v2
		C12,16.525,11.776,16.749,11.5,16.749z"/>
	<path d="M14.5,16.749c-0.276,0-0.5-0.224-0.5-0.5v-2c0-0.276,0.224-0.5,0.5-0.5s0.5,0.224,0.5,0.5v2
		C15,16.525,14.776,16.749,14.5,16.749z"/>
	<path d="M2.5,10.749c-0.276,0-0.5-0.224-0.5-0.5v-1H1c-0.276,0-0.5-0.224-0.5-0.5s0.224-0.5,0.5-0.5h1v-1
		c0-0.276,0.224-0.5,0.5-0.5S3,6.974,3,7.249v1h1c0.276,0,0.5,0.224,0.5,0.5s-0.224,0.5-0.5,0.5H3v1
		C3,10.525,2.776,10.749,2.5,10.749z"/>
	<path d="M21.5,4.749c-0.276,0-0.5-0.224-0.5-0.5v-1h-1c-0.276,0-0.5-0.224-0.5-0.5s0.224-0.5,0.5-0.5h1v-1
		c0-0.276,0.224-0.5,0.5-0.5s0.5,0.224,0.5,0.5v1h1c0.276,0,0.5,0.224,0.5,0.5s-0.224,0.5-0.5,0.5h-1v1
		C22,4.525,21.776,4.749,21.5,4.749z"/>
</g>
</svg>
