<?xml version="1.0" encoding="utf-8"?>
<!-- Generator: Adobe Illustrator 22.1.0, SVG Export Plug-In . SVG Version: 6.00 Build 0)  -->
<svg version="1.1" id="Light" xmlns="http://www.w3.org/2000/svg" xmlns:xlink="http://www.w3.org/1999/xlink" x="0px" y="0px"
	 viewBox="0 0 24 24" style="enable-background:new 0 0 24 24;" xml:space="preserve">
<g>
	<title>video-game-mario-plant-maneater</title>
	<path d="M22.5,23.997c-0.276,0-0.5-0.224-0.5-0.5v-0.5H11.5v0.5c0,0.276-0.224,0.5-0.5,0.5s-0.5-0.224-0.5-0.5v-0.5
		c-0.551,0-1-0.448-1-1v-2c0-0.552,0.449-1,1-1h4.175C13.626,18.151,13,16.873,13,15.497v-0.5c0-0.552,0.448-1,1-1h0.5
		c1.578,0,3.036,0.837,3.845,2.172l2.878-5.964C21.405,9.831,21.5,9.414,21.5,8.998c0-0.934-0.639-1.728-1.525-1.943
		c-0.043,0.505-0.146,1.004-0.305,1.486c-0.88,2.67-3.364,4.463-6.179,4.464c-0.428,0-0.864-0.045-1.299-0.135l-0.425,0.553
		c-0.031,0.041-0.065,0.082-0.102,0.123c-0.348,0.387-0.826,0.615-1.345,0.642c-0.034,0.002-0.069,0.003-0.104,0.003
		c-0.481,0-0.942-0.177-1.301-0.5c-0.386-0.347-0.614-0.825-0.641-1.345c-0.027-0.52,0.149-1.019,0.496-1.405l2.615-2.943H7.45
		c-0.041,0-0.079-0.001-0.117-0.004C6.814,7.96,6.339,7.727,5.996,7.336c-0.343-0.39-0.514-0.891-0.481-1.41
		c0.066-1.021,0.92-1.821,1.945-1.821c0.001,0,0.002,0,0.004,0C8.052,2.622,9.15,1.417,10.573,0.7
		c0.92-0.464,1.902-0.699,2.919-0.699c0.691,0,1.378,0.111,2.042,0.33c1.649,0.544,2.987,1.697,3.768,3.248
		c0.391,0.776,0.62,1.602,0.681,2.459C21.411,6.272,22.5,7.532,22.5,8.997c0,0.566-0.13,1.134-0.376,1.643l-1.926,3.991
		c0.69-0.413,1.48-0.634,2.302-0.634H23c0.552,0,1,0.448,1,1v0.5c0,1.375-0.626,2.654-1.675,3.5H23c0.552,0,1,0.448,1,1v2
		c0,0.552-0.448,1-1,1v0.5C23,23.773,22.776,23.997,22.5,23.997z M10.5,21.997H23v-2H10.5L10.5,21.997z M19.5,18.997
		c1.93,0,3.5-1.57,3.5-3.5v-0.5h-0.5c-1.93,0-3.5,1.57-3.5,3.5v0.5H19.5z M14,15.497c0,1.93,1.57,3.5,3.5,3.5H18v-0.5
		c0-1.93-1.57-3.5-3.5-3.5H14L14,15.497z M12.5,6.997c0.197,0,0.376,0.116,0.456,0.295c0.081,0.179,0.048,0.39-0.083,0.537
		l-3.357,3.777c-0.17,0.189-0.256,0.432-0.243,0.685c0.013,0.253,0.124,0.485,0.312,0.654c0.174,0.157,0.397,0.243,0.627,0.243
		c0.018,0,0.036,0,0.055-0.001c0.254-0.013,0.486-0.124,0.656-0.312c0.018-0.02,0.035-0.041,0.051-0.062l3.735-4.861
		c0.244-0.318,0.35-0.712,0.299-1.109c-0.052-0.397-0.255-0.751-0.573-0.995c-0.234-0.18-0.512-0.286-0.806-0.307L7.514,5.107
		c-0.02-0.001-0.04-0.002-0.061-0.002c-0.227,0-0.448,0.084-0.621,0.236c-0.19,0.167-0.303,0.398-0.319,0.65
		C6.497,6.243,6.58,6.486,6.747,6.676c0.167,0.19,0.398,0.303,0.65,0.319c0.019,0.001,0.038,0.002,0.056,0.002H12.5z M12.887,11.965
		c0.202,0.023,0.405,0.034,0.607,0.034c2.382,0,4.482-1.516,5.227-3.771c0.46-1.395,0.349-2.886-0.312-4.198
		c-0.661-1.312-1.794-2.288-3.189-2.748c-0.563-0.186-1.144-0.28-1.729-0.28c-0.86,0-1.691,0.199-2.469,0.591
		C9.92,2.149,9.043,3.058,8.522,4.177L13.7,4.546c0.49,0.036,0.955,0.213,1.344,0.512c0.529,0.407,0.869,0.996,0.955,1.658
		c0.086,0.662-0.09,1.318-0.497,1.848L12.887,11.965z"/>
	<path d="M4.5,15.497c-0.134,0-0.259-0.052-0.354-0.146l-0.632-0.632C3.207,14.902,2.86,14.997,2.5,14.997s-0.707-0.096-1.014-0.279
		l-0.632,0.632c-0.094,0.094-0.22,0.146-0.354,0.146s-0.259-0.052-0.354-0.146S0,15.131,0,14.997s0.052-0.259,0.146-0.354
		l0.632-0.632C0.596,13.704,0.5,13.358,0.5,12.997s0.096-0.707,0.279-1.014l-0.632-0.632C0.052,11.256,0,11.131,0,10.997
		s0.052-0.259,0.146-0.354s0.22-0.146,0.354-0.146s0.259,0.052,0.354,0.146l0.632,0.632c0.307-0.183,0.654-0.279,1.014-0.279
		s0.707,0.096,1.014,0.279l0.632-0.632c0.094-0.094,0.22-0.146,0.354-0.146s0.259,0.052,0.354,0.146S5,10.864,5,10.997
		s-0.052,0.259-0.146,0.354l-0.632,0.632C4.404,12.291,4.5,12.637,4.5,12.997s-0.096,0.707-0.279,1.014l0.632,0.632
		C4.948,14.738,5,14.864,5,14.997s-0.052,0.259-0.146,0.354S4.634,15.497,4.5,15.497z M2.5,11.997c-0.551,0-1,0.448-1,1s0.449,1,1,1
		s1-0.448,1-1S3.051,11.997,2.5,11.997z"/>
</g>
</svg>
