<?xml version="1.0" encoding="utf-8"?>
<!-- Generator: Adobe Illustrator 22.1.0, SVG Export Plug-In . SVG Version: 6.00 Build 0)  -->
<svg version="1.1" id="Light" xmlns="http://www.w3.org/2000/svg" xmlns:xlink="http://www.w3.org/1999/xlink" x="0px" y="0px"
	 viewBox="0 0 24 24" style="enable-background:new 0 0 24 24;" xml:space="preserve">
<g>
	<title>video-game-mario-plant</title>
	<path d="M5.994,12.481c-0.133,0-0.259-0.052-0.353-0.146L5.144,11.84c-0.195-0.195-0.195-0.512-0.001-0.707
		c0.094-0.095,0.22-0.147,0.354-0.147c0.133,0,0.259,0.052,0.353,0.146l0.496,0.495c0.195,0.195,0.195,0.512,0.001,0.707
		C6.253,12.429,6.127,12.481,5.994,12.481z"/>
	<path d="M5,23.981c-1.93,0-3.5-1.57-3.5-3.5v-0.5c0-0.552,0.449-1,1-1H3c0.941,0,1.825,0.375,2.476,1.03
		c-0.004-0.973,0-1.982,0.03-2.995l-1.073,1.645c-0.092,0.142-0.249,0.227-0.42,0.227c-0.032,0-0.064-0.003-0.096-0.009
		c-0.204-0.041-0.358-0.199-0.395-0.402l-0.468-2.586l-2.632-0.413c-0.204-0.032-0.37-0.19-0.412-0.392
		c-0.042-0.202,0.047-0.413,0.221-0.524l3.264-2.077l-3.263-2.077c-0.174-0.111-0.263-0.321-0.222-0.523
		c0.042-0.202,0.207-0.36,0.41-0.393l2.657-0.428l0.428-2.656C3.54,6.205,3.698,6.04,3.9,5.998c0.033-0.007,0.067-0.01,0.101-0.01
		c0.172,0,0.329,0.087,0.422,0.232l2.049,3.221C6.48,9.454,6.489,9.469,6.497,9.486l0.781-1.23c0.092-0.145,0.25-0.232,0.422-0.232
		c0.095,0,0.188,0.027,0.268,0.078C8.201,8.25,8.27,8.559,8.123,8.792L7.356,9.999c-0.085,0.154-0.234,0.294-0.413,0.383
		c-0.14,0.069-0.289,0.104-0.444,0.104c-0.375,0-0.715-0.206-0.888-0.538L4.285,7.866L4.008,9.579
		c-0.035,0.213-0.201,0.38-0.414,0.414L1.879,10.27l2.126,1.352c0.107,0.057,0.223,0.161,0.31,0.285
		c0.318,0.45,0.21,1.075-0.24,1.393l-2.191,1.395l1.676,0.263c0.21,0.033,0.377,0.196,0.415,0.405l0.307,1.698l1.39-2.132
		c0.093-0.142,0.25-0.227,0.419-0.227c0.054,0,0.107,0.009,0.159,0.026c0.215,0.072,0.355,0.28,0.34,0.507
		c-0.142,2.135-0.122,4.252-0.103,6.3l0.007,0.84l0.002,0.028C6.499,22.429,6.5,22.455,6.5,22.481v1c0,0.276-0.224,0.5-0.5,0.5H5z
		 M2.5,20.481c0,1.378,1.121,2.5,2.5,2.5h0.498c-0.001-0.198-0.002-0.398-0.003-0.601C5.445,21.038,4.349,19.981,3,19.981h-0.5
		L2.5,20.481z"/>
	<path d="M13.496,24c-1.93,0-3.5-1.57-3.5-3.5V20c0-0.552,0.449-1,1-1h0.5c1.256,0,2.407,0.688,3.025,1.746
		c0.513-2.628,1.054-5.713,0.868-8.589l-2.809,3.934c-0.152,0.216-0.381,0.361-0.644,0.407c-0.058,0.01-0.116,0.015-0.174,0.015
		c-0.205,0-0.404-0.063-0.573-0.182c-0.213-0.15-0.358-0.373-0.407-0.628l-0.414-2.07l-2.073-0.416
		c-0.26-0.051-0.486-0.2-0.635-0.422c-0.149-0.222-0.203-0.488-0.152-0.75c0.049-0.255,0.194-0.478,0.407-0.628l4.427-3.161
		L7.91,5.095C7.694,4.943,7.549,4.714,7.503,4.451C7.457,4.188,7.516,3.923,7.669,3.704c0.15-0.213,0.373-0.357,0.628-0.407
		l2.07-0.414l0.415-2.073c0.091-0.467,0.503-0.807,0.98-0.807c0.064,0,0.129,0.006,0.192,0.019c0.255,0.049,0.478,0.194,0.627,0.407
		l3.161,4.427l3.163-4.43c0.152-0.216,0.381-0.361,0.644-0.407c0.058-0.01,0.115-0.015,0.173-0.015c0.206,0,0.405,0.063,0.574,0.182
		c0.213,0.15,0.357,0.372,0.407,0.628l0.414,2.07l2.073,0.415c0.539,0.105,0.893,0.63,0.788,1.172
		c-0.049,0.255-0.194,0.479-0.407,0.628l-4.427,3.161l4.43,3.163c0.216,0.152,0.361,0.381,0.407,0.644
		c0.046,0.263-0.013,0.528-0.167,0.747c-0.149,0.213-0.372,0.357-0.628,0.407l-2.071,0.415l-0.415,2.073
		c-0.05,0.26-0.2,0.486-0.422,0.636c-0.166,0.112-0.358,0.171-0.557,0.171c-0.065,0-0.13-0.007-0.194-0.019
		c-0.254-0.049-0.478-0.194-0.627-0.407l-2.493-3.491c0.073,1.947-0.151,3.888-0.386,5.407c0.623-0.515,1.416-0.807,2.24-0.807
		c0.64,0,1.267,0.177,1.815,0.51l0.427,0.261c0.47,0.287,0.618,0.903,0.331,1.374l-0.261,0.427c-0.64,1.047-1.759,1.672-2.991,1.672
		c-0.641,0-1.27-0.177-1.818-0.511l-0.237-0.145c-0.073,0.377-0.146,0.75-0.219,1.118c-0.114,0.577-0.225,1.139-0.326,1.681
		c-0.002,0.009-0.004,0.019-0.008,0.029C14.924,23.839,14.725,24,14.496,24H13.496z M10.995,20.5c0,1.378,1.122,2.5,2.5,2.5h0.5
		v-0.5c0-1.378-1.122-2.5-2.5-2.5h-0.5L10.995,20.5z M16.289,20.075c0.391,0.239,0.84,0.365,1.297,0.365
		c0.881,0,1.68-0.446,2.138-1.194l0.261-0.426l-0.427-0.26c-0.391-0.238-0.839-0.364-1.296-0.364c-0.882,0-1.682,0.448-2.139,1.198
		l-0.259,0.422L16.289,20.075z M11.283,3.406c-0.04,0.198-0.194,0.352-0.392,0.392l-2.4,0.48l5,3.573
		C13.622,7.945,13.7,8.097,13.7,8.258s-0.078,0.313-0.209,0.407l-5,3.57l2.4,0.484c0.198,0.04,0.352,0.194,0.392,0.392l0.48,2.4
		l3.573-5c0.028-0.039,0.059-0.063,0.077-0.075c0.021-0.02,0.051-0.047,0.091-0.069c0.01-0.005,0.021-0.011,0.033-0.016
		c0.027-0.014,0.077-0.036,0.139-0.045c0.024-0.004,0.049-0.005,0.074-0.005c0.179,0,0.343,0.097,0.432,0.255l3.538,4.955l0.483-2.4
		c0.04-0.198,0.194-0.352,0.392-0.392l2.4-0.481l-5-3.573c-0.131-0.094-0.209-0.246-0.209-0.407s0.078-0.313,0.209-0.407l5-3.57
		l-2.4-0.483c-0.198-0.04-0.352-0.194-0.392-0.392l-0.48-2.4l-3.573,5c-0.091,0.127-0.243,0.203-0.407,0.203
		s-0.316-0.076-0.407-0.203l-3.57-5L11.283,3.406z"/>
	<path d="M17.868,10.878c-0.134,0-0.259-0.052-0.354-0.146l-1.767-1.766l-1.766,1.766c-0.094,0.094-0.22,0.146-0.354,0.146
		s-0.259-0.052-0.354-0.146s-0.146-0.22-0.146-0.354s0.052-0.259,0.146-0.354l1.766-1.766l-1.766-1.767
		c-0.094-0.094-0.146-0.22-0.146-0.354s0.052-0.259,0.146-0.354s0.22-0.146,0.354-0.146s0.259,0.052,0.354,0.146l1.766,1.767
		l1.767-1.767c0.094-0.094,0.22-0.146,0.354-0.146s0.259,0.052,0.354,0.146s0.146,0.22,0.146,0.354s-0.052,0.259-0.146,0.354
		l-1.767,1.767l1.767,1.766c0.094,0.094,0.146,0.22,0.146,0.354s-0.052,0.259-0.146,0.354S18.002,10.878,17.868,10.878z"/>
</g>
</svg>
