<?xml version="1.0" encoding="utf-8"?>
<!-- Generator: Adobe Illustrator 22.1.0, SVG Export Plug-In . SVG Version: 6.00 Build 0)  -->
<svg version="1.1" id="Light" xmlns="http://www.w3.org/2000/svg" xmlns:xlink="http://www.w3.org/1999/xlink" x="0px" y="0px"
	 viewBox="0 0 24 24" style="enable-background:new 0 0 24 24;" xml:space="preserve">
<g>
	<title>video-game-kirby-1</title>
	<path d="M12,15.667c-0.623,0-3.567-1.604-3.567-2.545c0-1.967,1.6-3.567,3.567-3.567s3.567,1.6,3.567,3.567
		C15.567,14.063,12.623,15.667,12,15.667z M9.434,13.059c0.274,0.364,2.168,1.608,2.566,1.608c0.407,0,2.297-1.25,2.566-1.617
		c-0.038-1.381-1.177-2.495-2.566-2.495C10.605,10.555,9.467,11.673,9.434,13.059z"/>
	<path d="M9.5,8.555c-0.276,0-0.5-0.224-0.5-0.5v-1.5c0-0.276,0.224-0.5,0.5-0.5s0.5,0.224,0.5,0.5v1.5
		C10,8.331,9.776,8.555,9.5,8.555z"/>
	<path d="M14.5,8.555c-0.276,0-0.5-0.224-0.5-0.5v-1.5c0-0.276,0.224-0.5,0.5-0.5s0.5,0.224,0.5,0.5v1.5
		C15,8.331,14.775,8.555,14.5,8.555z"/>
	<path d="M15.979,22.942c-0.127,0-0.251-0.024-0.369-0.071l-1.982-0.792c-0.383-0.154-0.629-0.519-0.628-0.93v-1.094h-2v1.095
		c0.001,0.411-0.246,0.776-0.628,0.929L8.39,22.871c-0.118,0.047-0.242,0.071-0.37,0.071c-0.216,0-0.429-0.071-0.6-0.198
		l-1.817-1.366c-0.762-0.573-1.219-1.484-1.221-2.437c-0.002-1.102,0.598-2.12,1.549-2.661c-0.119-0.236-0.22-0.478-0.304-0.724H1
		c-0.268,0-0.519-0.105-0.707-0.294C0.104,15.072,0,14.821,0,14.554c0-0.225,0.077-0.445,0.217-0.621
		c1.251-1.561,2.901-2.73,4.783-3.39V8.055c0-3.86,3.14-7,7-7c3.86,0,7,3.14,7,7v0.241l3.488-2.094C22.643,6.109,22.82,6.06,23,6.06
		c0.029,0,0.058,0.001,0.087,0.004c0.266,0.023,0.507,0.148,0.679,0.353c0.172,0.204,0.254,0.464,0.231,0.73
		c-0.243,3.563-2.345,6.816-5.494,8.51c-0.09,0.235-0.195,0.468-0.313,0.696c0.889,0.56,1.43,1.531,1.427,2.589
		c-0.002,0.954-0.458,1.865-1.221,2.437l-1.816,1.365C16.408,22.871,16.195,22.942,15.979,22.942z M7.434,16.878
		C6.3,16.881,5.38,17.805,5.383,18.939c0.001,0.641,0.309,1.254,0.822,1.639l1.816,1.365L10,21.151l0-2.673
		C9.779,17.589,8.425,16.878,7.434,16.878L7.434,16.878z M14,21.15l1.981,0.793l1.815-1.365c0.513-0.385,0.82-0.998,0.822-1.639
		c0.003-1.134-0.918-2.058-2.051-2.061c-0.991,0-2.345,0.711-2.566,1.599V21.15z M13,19.055v-0.633c0-0.034,0.003-0.067,0.01-0.1
		c0.294-1.44,2.11-2.444,3.557-2.444c0.236,0,0.469,0.028,0.698,0.082c0.145-0.268,0.266-0.543,0.363-0.821
		c0.042-0.122,0.129-0.222,0.244-0.281c2.939-1.508,4.905-4.493,5.129-7.789L19,9.462v1.093c0,0.276-0.224,0.5-0.5,0.5
		s-0.5-0.224-0.5-0.5v-2.5c0-3.308-2.692-6-6-6c-3.308,0-6,2.692-6,6v2.849c0,0.22-0.141,0.411-0.351,0.477
		c-1.838,0.575-3.446,1.673-4.65,3.175L6,14.555c0.228,0,0.426,0.154,0.484,0.374c0.09,0.343,0.223,0.68,0.396,1.003
		c0.186-0.036,0.371-0.054,0.552-0.054c0,0,0,0,0,0c1.447,0,3.264,1.004,3.558,2.444c0.007,0.034,0.01,0.067,0.01,0.1v0.633H13z"/>
</g>
</svg>
