<?xml version="1.0" encoding="utf-8"?>
<!-- Generator: Adobe Illustrator 22.1.0, SVG Export Plug-In . SVG Version: 6.00 Build 0)  -->
<svg version="1.1" id="Light" xmlns="http://www.w3.org/2000/svg" xmlns:xlink="http://www.w3.org/1999/xlink" x="0px" y="0px"
	 viewBox="0 0 24 24" style="enable-background:new 0 0 24 24;" xml:space="preserve">
<g>
	<title>video-game-sonic-1</title>
	<path d="M11.001,21.545c-3.019,0-9.275,0-9.491-5.226l-1.287-0.858c-0.229-0.153-0.291-0.464-0.139-0.693
		c0.093-0.14,0.248-0.223,0.416-0.223c0.099,0,0.195,0.029,0.277,0.084l1.374,0.916h1.849v-1.5c0-3.898,2.263-8.068,5.504-10.139
		c1.512-0.967,3.168-1.457,4.921-1.457c1.508,0,3.076,0.372,4.662,1.105c0.201,0.092,0.369,0.252,0.472,0.45
		c0.124,0.238,0.148,0.51,0.067,0.767c-0.081,0.256-0.257,0.466-0.495,0.59c-0.635,0.315-1.224,0.737-1.727,1.237
		c3.219,0.599,5.422,2.744,6.551,6.385c0.086,0.276,0.049,0.576-0.103,0.823c-0.183,0.298-0.502,0.475-0.853,0.475l0,0
		c-0.185,0-0.365-0.051-0.523-0.148c-0.284-0.183-0.577-0.347-0.878-0.49c0.796,1.721,0.892,3.794,0.282,6.174
		c-0.047,0.204-0.166,0.396-0.335,0.536c-0.182,0.15-0.402,0.229-0.636,0.229c-0.031,0-0.063-0.001-0.095-0.004
		c-0.267-0.026-0.507-0.153-0.677-0.359c-0.727-1.001-1.863-1.649-3.071-1.761c-1.406,1.938-3.662,3.09-6.063,3.09
		C11.004,21.545,11.002,21.545,11.001,21.545z M2.524,16.545c0.393,4,5.634,4,8.476,4c1.103,0,2-0.897,2-2s-0.897-2-2-2H2.524z
		 M11.001,15.545c1.654,0,3,1.346,3,3c0,0.514-0.129,1.007-0.371,1.444c1.12-0.495,2.086-1.302,2.772-2.328
		c0.092-0.139,0.249-0.222,0.419-0.222c1.614,0.046,3.134,0.843,4.084,2.134c0.694-2.695,0.403-4.91-0.858-6.587
		c-0.128-0.17-0.134-0.404-0.015-0.58c0.093-0.138,0.247-0.22,0.414-0.22c0.044,0,0.089,0.006,0.132,0.018
		c0.862,0.232,1.681,0.596,2.433,1.083c-1.116-3.572-3.346-5.528-6.638-5.821c-0.181-0.016-0.339-0.13-0.413-0.296
		c-0.073-0.167-0.051-0.361,0.06-0.505c0.702-0.921,1.621-1.68,2.659-2.195c-1.459-0.677-2.885-1.017-4.25-1.017
		c-1.563,0-3.039,0.436-4.385,1.296c-2.003,1.281-3.603,3.435-4.45,5.971c0.291-0.114,0.602-0.174,0.914-0.174
		c0.346,0,0.684,0.071,1.002,0.212c0.906,0.4,1.491,1.298,1.491,2.288v2.5H11.001z M8.001,15.545v-2.5
		c0-0.594-0.351-1.133-0.895-1.373c-0.192-0.084-0.394-0.127-0.602-0.127c-0.566,0-1.089,0.323-1.342,0.827
		c-0.107,0.589-0.162,1.152-0.162,1.673v1.5H8.001z"/>
	<path d="M7.501,20.045c-0.261,0-0.48-0.204-0.499-0.464c-0.01-0.133,0.033-0.262,0.121-0.363c0.088-0.101,0.209-0.162,0.343-0.171
		c0.862-0.062,1.652-0.536,2.113-1.268c0.092-0.146,0.25-0.233,0.423-0.233c0.094,0,0.186,0.027,0.266,0.077
		c0.113,0.071,0.192,0.182,0.221,0.312c0.03,0.13,0.007,0.264-0.064,0.377c-0.629,1-1.709,1.647-2.887,1.732
		C7.531,20.044,7.506,20.045,7.501,20.045z"/>
	<path d="M13.001,10.545c-0.198,0-0.378-0.117-0.458-0.298c-0.559-1.267-1.436-2.382-2.536-3.224l-0.007,3.022
		c0,0.276-0.224,0.5-0.5,0.5s-0.5-0.224-0.5-0.5V7.016c0-0.559,0.44-0.998,1-1c0.226,0,0.446,0.077,0.622,0.217
		c1.226,0.94,2.208,2.188,2.835,3.608c0.111,0.252-0.003,0.548-0.255,0.659C13.139,10.53,13.071,10.544,13.001,10.545
		C13.001,10.545,13.001,10.545,13.001,10.545z"/>
	<path d="M6.501,14.545c-0.276,0-0.5-0.224-0.5-0.5v-1c0-0.276,0.224-0.5,0.5-0.5s0.5,0.224,0.5,0.5v1
		C7.001,14.32,6.777,14.545,6.501,14.545z"/>
</g>
</svg>
