<?xml version="1.0" encoding="utf-8"?>
<!-- Generator: Adobe Illustrator 22.1.0, SVG Export Plug-In . SVG Version: 6.00 Build 0)  -->
<svg version="1.1" id="Light" xmlns="http://www.w3.org/2000/svg" xmlns:xlink="http://www.w3.org/1999/xlink" x="0px" y="0px"
	 viewBox="0 0 24 24" style="enable-background:new 0 0 24 24;" xml:space="preserve">
<g>
	<title>video-game-mario-mushroom-1</title>
	<path d="M9.5,23.993c-2.32,0-4.246-1.764-4.472-4.053C1.921,19.411,0,16.783,0,13.03c0-3.1,1.066-6.25,2.926-8.64
		c1.556-2,4.393-4.383,9.074-4.383c4.682,0,7.519,2.384,9.074,4.383C22.934,6.78,24,9.929,24,13.03c0,3.753-1.92,6.382-5.028,6.91
		c-0.227,2.289-2.153,4.053-4.472,4.053H9.5z M12,15.993c-3.756,0-6,0.763-6,1.5v2c0,1.93,1.57,3.5,3.5,3.5h5
		c1.93,0,3.5-1.57,3.5-3.5v-2C18,16.755,15.756,15.993,12,15.993z M12,14.993c1.642,0,7,0.18,7,2.5v1.426
		c2.547-0.519,4-2.648,4-5.889c0-3.385-0.984-6.188-2.926-8.339c-0.575,1.093-1.726,1.803-2.975,1.803
		c-0.039,0-0.117-0.002-0.117-0.002c-0.921,0-1.797-0.364-2.457-1.026C13.864,4.804,13.5,3.926,13.5,2.993
		c0.026-0.629,0.202-1.229,0.511-1.764C13.316,1.081,12.641,1.007,12,1.007c-4.253,0-11,3.264-11,12.023c0,3.241,1.453,5.37,4,5.889
		v-1.426C5,15.173,10.358,14.993,12,14.993z M15.027,1.494c-0.318,0.444-0.504,0.978-0.527,1.521c0,1.362,1.122,2.479,2.5,2.479
		c0.04,0.001,0.07,0.002,0.1,0.002c0.993,0,1.885-0.635,2.219-1.562C18.107,2.831,16.629,1.991,15.027,1.494z"/>
	<path d="M18.002,14.493c-1.378,0-2.5-1.121-2.5-2.5s1.122-2.5,2.5-2.5s2.5,1.121,2.5,2.5S19.38,14.493,18.002,14.493z
		 M18.002,10.493c-0.827,0-1.5,0.673-1.5,1.5c0,0.827,0.673,1.5,1.5,1.5s1.5-0.673,1.5-1.5
		C19.502,11.166,18.829,10.493,18.002,10.493z"/>
	<path d="M7.502,14.493c-2.206,0-4-1.794-4-4c0-2.206,1.794-4,4-4s4,1.794,4,4C11.502,12.698,9.708,14.493,7.502,14.493z
		 M7.502,7.493c-1.654,0-3,1.346-3,3s1.346,3,3,3s3-1.346,3-3S9.156,7.493,7.502,7.493z"/>
	<path d="M9.505,20.493c-0.276,0-0.5-0.224-0.5-0.5v-2c0-0.276,0.224-0.5,0.5-0.5s0.5,0.224,0.5,0.5v2
		C10.005,20.268,9.781,20.493,9.505,20.493z"/>
	<path d="M14.505,20.493c-0.276,0-0.5-0.224-0.5-0.5v-2c0-0.276,0.224-0.5,0.5-0.5s0.5,0.224,0.5,0.5v2
		C15.005,20.268,14.781,20.493,14.505,20.493z"/>
</g>
</svg>
