<?xml version="1.0" encoding="utf-8"?>
<!-- Generator: Adobe Illustrator 22.1.0, SVG Export Plug-In . SVG Version: 6.00 Build 0)  -->
<svg version="1.1" id="Light" xmlns="http://www.w3.org/2000/svg" xmlns:xlink="http://www.w3.org/1999/xlink" x="0px" y="0px"
	 viewBox="0 0 24 24" style="enable-background:new 0 0 24 24;" xml:space="preserve">
<g>
	<title>video-game-kirby-enemy-kracko</title>
	<path d="M7.498,15.5c-1.93,0-3.5-1.57-3.5-3.5s1.57-3.5,3.5-3.5s3.5,1.57,3.5,3.5S9.428,15.5,7.498,15.5z M7.498,9.5
		c-1.379,0-2.5,1.121-2.5,2.5c0,1.378,1.121,2.5,2.5,2.5s2.5-1.122,2.5-2.5C9.998,10.621,8.877,9.5,7.498,9.5z"/>
	<path d="M6.498,13c-0.276,0-0.5-0.224-0.5-0.5v-1c0-0.276,0.224-0.5,0.5-0.5s0.5,0.224,0.5,0.5v1C6.998,12.776,6.774,13,6.498,13z"
		/>
	<path d="M6.058,23.504c-0.166,0-0.331-0.042-0.478-0.123c-0.198-0.108-0.355-0.282-0.443-0.49l-1.802-4.2l-0.01-0.009
		c-0.032-0.03-0.064-0.06-0.095-0.092c-0.725-0.766-1.157-1.759-1.223-2.808c-0.924-0.623-1.583-1.555-1.864-2.64
		c-0.305-1.18-0.132-2.408,0.487-3.458c0.343-0.581,0.817-1.085,1.376-1.463c0.068-1.095,0.532-2.121,1.313-2.9
		c0.006-0.006,0.012-0.012,0.018-0.017l1.8-4.196C5.225,0.9,5.382,0.727,5.58,0.619c0.147-0.08,0.312-0.122,0.478-0.122
		c0.095,0,0.191,0.014,0.283,0.041c0.256,0.075,0.468,0.246,0.596,0.48l2.088,3.768c0.006,0.004,0.012,0.008,0.018,0.012
		l2.085-3.753c0.13-0.233,0.343-0.402,0.599-0.476c0.09-0.026,0.183-0.039,0.275-0.039c0.169,0,0.336,0.044,0.485,0.126
		c0.163,0.091,0.298,0.225,0.388,0.389l2.079,3.753c0.044-0.03,0.088-0.059,0.133-0.088l1.978-3.562
		c0.174-0.319,0.51-0.518,0.877-0.518c0.166,0,0.331,0.042,0.478,0.122c0.198,0.108,0.356,0.282,0.443,0.491l1.697,3.969
		c0.07,0.064,0.139,0.129,0.205,0.198c0.725,0.766,1.156,1.758,1.223,2.806c1.256,0.836,2.022,2.275,2.009,3.788
		c0.001,1.5-0.765,2.936-2.009,3.777c-0.072,1.147-0.574,2.206-1.425,2.999l-1.701,3.979c-0.086,0.205-0.243,0.379-0.442,0.488
		c-0.147,0.08-0.312,0.122-0.478,0.122c-0.367,0-0.704-0.2-0.879-0.521l-1.974-3.555c-0.043-0.028-0.087-0.057-0.13-0.087
		l-2.083,3.749c-0.091,0.164-0.225,0.298-0.389,0.389c-0.147,0.083-0.315,0.126-0.484,0.126c-0.093,0-0.185-0.013-0.276-0.039
		c-0.257-0.073-0.47-0.242-0.599-0.476l-2.085-3.753c-0.006,0.004-0.012,0.008-0.018,0.012l-2.09,3.77
		c-0.126,0.232-0.338,0.402-0.594,0.478C6.249,23.49,6.153,23.504,6.058,23.504z M6.058,22.5l1.458-2.626
		C7.182,19.951,6.84,19.99,6.493,19.99c-0.566,0-1.125-0.106-1.646-0.31L6.058,22.5z M12.002,22.47l1.524-2.742
		c-0.487,0.175-1.004,0.266-1.527,0.266c-0.519,0-1.034-0.09-1.519-0.263L12.002,22.47z M17.94,22.366l1.141-2.662
		c-0.506,0.191-1.043,0.291-1.583,0.291c-0.314,0-0.625-0.033-0.928-0.097L17.94,22.366z M6.498,5.005
		c-0.933,0-1.811,0.363-2.472,1.022c-0.662,0.66-1.027,1.539-1.028,2.474c0,0.176-0.094,0.341-0.246,0.43
		c-0.518,0.306-0.954,0.741-1.26,1.26c-0.483,0.82-0.618,1.779-0.38,2.7c0.238,0.921,0.82,1.695,1.64,2.178
		c0.152,0.089,0.246,0.254,0.246,0.43c0.001,0.897,0.341,1.75,0.958,2.402c0.643,0.679,1.512,1.067,2.446,1.092
		c0.035,0.001,0.07,0.002,0.105,0.002c0.893,0,1.744-0.341,2.397-0.959C8.998,17.948,9.12,17.9,9.248,17.9
		c0.128,0,0.25,0.049,0.344,0.137c0.653,0.618,1.507,0.958,2.406,0.958s1.754-0.34,2.406-0.958c0.093-0.088,0.215-0.137,0.344-0.137
		s0.251,0.049,0.344,0.137c0.651,0.617,1.505,0.957,2.402,0.958c1.932,0,3.502-1.568,3.504-3.496c0-0.176,0.094-0.341,0.247-0.431
		c1.083-0.636,1.755-1.812,1.753-3.068c0.011-1.263-0.659-2.438-1.75-3.067c-0.154-0.089-0.25-0.255-0.25-0.433
		c-0.001-0.897-0.342-1.75-0.958-2.402c-0.667-0.704-1.57-1.092-2.542-1.092c-0.899,0-1.754,0.34-2.405,0.956
		C14.999,6.051,14.877,6.1,14.748,6.1s-0.251-0.049-0.344-0.137c-0.652-0.618-1.507-0.958-2.406-0.958
		c-0.899,0-1.754,0.34-2.406,0.958C9.499,6.051,9.377,6.1,9.248,6.1s-0.25-0.049-0.344-0.137C8.253,5.346,7.4,5.006,6.502,5.005
		l-0.005-0.25V5.005z M4.848,4.321c0.524-0.208,1.085-0.316,1.65-0.316c0.345,0,0.684,0.04,1.016,0.117L6.061,1.499L6.059,1.247
		l0,0.25L4.848,4.321z M17.5,4.01c0.542,0,1.078,0.098,1.582,0.286l-1.138-2.662l-1.376,2.473C16.873,4.042,17.185,4.01,17.5,4.01z
		 M11.998,4.006c0.52,0,1.036,0.09,1.521,0.264l-1.518-2.741l-1.521,2.74C10.965,4.096,11.479,4.006,11.998,4.006z"/>
</g>
</svg>
