<?xml version="1.0" encoding="utf-8"?>
<!-- Generator: Adobe Illustrator 22.1.0, SVG Export Plug-In . SVG Version: 6.00 Build 0)  -->
<svg version="1.1" id="Light" xmlns="http://www.w3.org/2000/svg" xmlns:xlink="http://www.w3.org/1999/xlink" x="0px" y="0px"
	 viewBox="0 0 24 24" style="enable-background:new 0 0 24 24;" xml:space="preserve">
<g>
	<title>video-game-mario-tree</title>
	<path d="M12,8c-0.276,0-0.5-0.224-0.5-0.5v-2C11.5,5.224,11.724,5,12,5c0.276,0,0.5,0.224,0.5,0.5v2C12.5,7.776,12.276,8,12,8z"/>
	<path d="M14.5,8C14.224,8,14,7.776,14,7.5v-2C14,5.224,14.224,5,14.5,5S15,5.224,15,5.5v2C15,7.776,14.776,8,14.5,8z"/>
	<path d="M13.5,14.5c-1.103,0-2-0.897-2-2c0-0.276,0.224-0.5,0.5-0.5h3c0.276,0,0.5,0.224,0.5,0.5
		C15.5,13.603,14.603,14.5,13.5,14.5z M12.634,13c0.175,0.302,0.502,0.5,0.866,0.5s0.69-0.198,0.866-0.5H12.634z"/>
	<path d="M22,24c-2.206,0-4-1.794-4-4V4c-0.736,0-1.435-0.331-1.906-0.885C15.637,3.816,14.854,4.25,14,4.25
		c-0.853,0-1.637-0.434-2.094-1.135C11.435,3.669,10.736,4,10,4v6h3.5c0.276,0,0.5,0.224,0.5,0.5S13.776,11,13.5,11H10v9
		c0,2.206-1.794,4-4,4H3.5C3.224,24,3,23.776,3,23.5S3.224,23,3.5,23H6c1.654,0,3-1.346,3-3v-9H7.5C7.224,11,7,10.776,7,10.5
		S7.224,10,7.5,10H9V8C7.435,8,5.953,7.255,5.008,6H4.25C1.906,6,0,4.094,0,1.75V0.5C0,0.224,0.224,0,0.5,0S1,0.224,1,0.5v1.25
		C1,3.542,2.458,5,4.25,5h0.168C4.144,4.372,4,3.688,4,3c0-0.276,0.224-0.5,0.5-0.5S5,2.724,5,3c0,2.206,1.794,4,4,4V4H8.493
		c-0.276,0-0.5-0.224-0.5-0.5S8.217,3,8.493,3H10c0.827,0,1.5-0.673,1.5-1.5C11.5,1.224,11.724,1,12,1c0.276,0,0.5,0.224,0.5,0.5
		v0.25c0,0.827,0.673,1.5,1.5,1.5s1.5-0.673,1.5-1.5V1.5C15.5,1.224,15.724,1,16,1s0.5,0.224,0.5,0.5C16.5,2.327,17.173,3,18,3
		h1.989c0.276,0,0.5,0.224,0.5,0.5S20.265,4,19.989,4H19v3h0.5C21.43,7,23,5.43,23,3.5C23,3.224,23.224,3,23.5,3S24,3.224,24,3.5
		C24,5.981,21.981,8,19.5,8H19v12c0,1.654,1.346,3,3,3h1.5c0.276,0,0.5,0.224,0.5,0.5S23.776,24,23.5,24H22z"/>
</g>
</svg>
