<?xml version="1.0" encoding="utf-8"?>
<!-- Generator: Adobe Illustrator 22.1.0, SVG Export Plug-In . SVG Version: 6.00 Build 0)  -->
<svg version="1.1" id="Light" xmlns="http://www.w3.org/2000/svg" xmlns:xlink="http://www.w3.org/1999/xlink" x="0px" y="0px"
	 viewBox="0 0 24 24" style="enable-background:new 0 0 24 24;" xml:space="preserve">
<g>
	<title>video-game-boxing</title>
	<path d="M7.5,24C6.673,24,6,23.327,6,22.5v-2.742C3.491,17.972,1.999,15.081,2,12V5.5C2,2.467,4.467,0,7.5,0h9
		C19.533,0,22,2.467,22,5.5c0,1.14-0.345,2.23-1,3.159V12c0.001,3.082-1.491,5.972-4,7.758V22.5c0,0.827-0.673,1.5-1.5,1.5H7.5z
		 M15.5,23c0.276,0,0.5-0.224,0.5-0.5V20H7v2.5C7,22.776,7.224,23,7.5,23h6v-2c0-0.276,0.224-0.5,0.5-0.5s0.5,0.224,0.5,0.5v2H15.5z
		 M16.345,19c2.291-1.594,3.656-4.205,3.655-7v-2.26C19.016,10.557,17.793,11,16.5,11h-1.768c0.448,1.393,0.352,2.876-0.28,4.214
		C14.37,15.388,14.192,15.5,14,15.5c-0.074,0-0.146-0.016-0.213-0.048c-0.249-0.118-0.356-0.417-0.239-0.666
		c0.564-1.193,0.607-2.563,0.122-3.786H9.25C7.458,11,6,9.542,6,7.75V5.5C6,5.224,6.224,5,6.5,5S7,5.224,7,5.5v2.25
		C7,8.991,8.009,10,9.25,10h7.25c2.481,0,4.5-2.019,4.5-4.5S18.981,1,16.5,1h-9C5.019,1,3,3.019,3,5.5V12
		c-0.001,2.795,1.363,5.406,3.654,7H16.345z"/>
</g>
</svg>
