<?xml version="1.0" encoding="utf-8"?>
<!-- Generator: Adobe Illustrator 22.1.0, SVG Export Plug-In . SVG Version: 6.00 Build 0)  -->
<svg version="1.1" id="Light" xmlns="http://www.w3.org/2000/svg" xmlns:xlink="http://www.w3.org/1999/xlink" x="0px" y="0px"
	 viewBox="0 0 24 24" style="enable-background:new 0 0 24 24;" xml:space="preserve">
<g>
	<title>video-game-kirby-2</title>
	<path d="M9.5,10C9.224,10,9,9.775,9,9.5V8c0-0.276,0.224-0.5,0.5-0.5S10,7.724,10,8v1.5C10,9.775,9.776,10,9.5,10z"/>
	<path d="M14.5,10C14.225,10,14,9.775,14,9.5V8c0-0.276,0.224-0.5,0.5-0.5S15,7.724,15,8v1.5C15,9.775,14.776,10,14.5,10z"/>
	<path d="M6.505,13c-0.133,0-0.258-0.052-0.353-0.146c-0.195-0.195-0.196-0.512-0.002-0.707l0.995-1C7.24,11.052,7.366,11,7.5,11
		c0.133,0,0.258,0.052,0.353,0.145c0.196,0.195,0.196,0.512,0.002,0.708l-0.995,1C6.765,12.947,6.639,13,6.505,13z"/>
	<path d="M17.495,13c-0.134,0-0.26-0.052-0.354-0.147l-0.995-1C16.051,11.758,16,11.632,16,11.498c0-0.134,0.053-0.259,0.147-0.353
		C16.242,11.051,16.367,11,16.5,11c0.134,0,0.26,0.052,0.354,0.147l0.995,1c0.194,0.195,0.194,0.512-0.002,0.707
		C17.753,12.948,17.628,13,17.495,13z"/>
	<path d="M12,16.5c-1.654,0-3-1.346-3-3C9,13.224,9.224,13,9.5,13h5c0.276,0,0.5,0.224,0.5,0.5C15,15.154,13.654,16.5,12,16.5z
		 M10.063,14c0.223,0.872,1.012,1.5,1.937,1.5s1.714-0.628,1.937-1.5H10.063z"/>
	<path d="M5.257,23.001c-0.467,0-0.906-0.182-1.237-0.511c-0.331-0.33-0.514-0.77-0.515-1.238c-0.001-0.118,0.011-0.237,0.035-0.353
		l0.526-2.502c0.158-0.775,0.609-1.446,1.255-1.881c-1.922-2.134-2.715-5.038-2.134-7.846L0.105,2.445
		c-0.12-0.242-0.137-0.528-0.045-0.783C0.15,1.41,0.333,1.209,0.575,1.096C0.71,1.032,0.853,1,1,1C1.116,1,1.23,1.02,1.339,1.059
		l5.6,2.001c1.495-1.018,3.238-1.555,5.049-1.555c1.823,0,3.574,0.537,5.072,1.555l5.601-2.001c0.108-0.039,0.221-0.058,0.337-0.058
		c0.154,0,0.308,0.036,0.445,0.104c0.494,0.245,0.696,0.847,0.451,1.34L20.814,8.67C20.937,9.271,21,9.886,21,10.5
		c-0.001,0.668-0.076,1.337-0.224,1.989c-0.342,1.503-1.064,2.889-2.095,4.028c0.645,0.436,1.096,1.107,1.254,1.883l0.524,2.498
		c0.025,0.108,0.039,0.226,0.041,0.344C20.498,22.213,19.712,23,18.748,23c-0.189,0-0.372-0.03-0.549-0.088
		c-0.02-0.007-0.041-0.015-0.062-0.025l-2.385-1.159c-0.986-0.446-1.645-1.393-1.738-2.466c-0.663,0.153-1.338,0.231-2.013,0.231
		c-0.669,0-1.342-0.076-1.999-0.226c-0.004-0.001-0.007-0.002-0.011-0.002c-0.094,1.073-0.756,2.021-1.75,2.47l-2.373,1.153
		c-0.02,0.01-0.042,0.019-0.064,0.026C5.63,22.971,5.446,23,5.26,23.001C5.26,23.001,5.257,23.001,5.257,23.001z M6.055,17.243
		c-0.526,0.281-0.89,0.767-1.01,1.356l-0.526,2.502c-0.01,0.047-0.014,0.096-0.014,0.146c0,0.202,0.079,0.391,0.221,0.533
		c0.142,0.141,0.33,0.219,0.531,0.219c0.071,0,0.141-0.01,0.208-0.029l2.352-1.142c0.736-0.333,1.196-1.063,1.187-1.852
		C7.914,18.594,6.924,18.011,6.055,17.243z M18.54,21.97c0.067,0.019,0.137,0.029,0.207,0.029c0.415,0,0.752-0.337,0.753-0.751
		c-0.001-0.041-0.007-0.091-0.018-0.139l-0.526-2.508c-0.121-0.591-0.486-1.079-1.012-1.359c-0.857,0.752-1.868,1.346-2.942,1.728
		c-0.011,0.791,0.446,1.521,1.174,1.851L18.54,21.97z M4.16,8.383C4.211,8.486,4.225,8.604,4.2,8.715
		c-0.979,4.301,1.724,8.597,6.025,9.577c0.584,0.133,1.182,0.2,1.776,0.2c3.698,0,6.979-2.618,7.8-6.225
		c0.131-0.579,0.198-1.174,0.199-1.768c0-0.599-0.067-1.2-0.2-1.784c-0.025-0.111-0.011-0.229,0.04-0.332l3.159-6.382l-5.003,1.787
		c0.477,0.426,0.907,0.901,1.283,1.418c0.079,0.108,0.111,0.24,0.09,0.372c-0.021,0.132-0.092,0.248-0.2,0.326
		C19.083,5.966,18.981,6,18.875,6c-0.16,0-0.311-0.077-0.405-0.206c-1.499-2.061-3.922-3.291-6.481-3.291
		c-1.698,0-3.321,0.528-4.695,1.527C6.617,4.523,6.023,5.116,5.53,5.794C5.437,5.923,5.286,6,5.126,6
		C5.02,6,4.918,5.967,4.832,5.904c-0.108-0.078-0.179-0.194-0.2-0.326c-0.021-0.132,0.011-0.264,0.09-0.372
		C5.093,4.696,5.525,4.221,6.01,3.79L1.001,2L4.16,8.383z"/>
</g>
</svg>
