<?xml version="1.0" encoding="utf-8"?>
<!-- Generator: Adobe Illustrator 22.1.0, SVG Export Plug-In . SVG Version: 6.00 Build 0)  -->
<svg version="1.1" id="Light" xmlns="http://www.w3.org/2000/svg" xmlns:xlink="http://www.w3.org/1999/xlink" x="0px" y="0px"
	 viewBox="0 0 24 24" style="enable-background:new 0 0 24 24;" xml:space="preserve">
<g>
	<title>video-game-magic-wand</title>
	<path d="M22.022,23.941c-0.512,0-0.992-0.199-1.354-0.56l-9-10.125l-0.476,1.696c-0.133,0.499-0.592,0.85-1.113,0.85
		c-0.101,0-0.201-0.013-0.298-0.039c-0.346-0.092-0.634-0.345-0.769-0.677L8.03,12.589l-2.799-0.061L5.199,12.53
		c-0.269,0-0.529-0.101-0.733-0.283c-0.222-0.198-0.353-0.471-0.37-0.768c-0.019-0.331,0.11-0.65,0.352-0.876l1.535-1.529
		L5.125,6.595c-0.098-0.304-0.073-0.62,0.069-0.897c0.142-0.276,0.382-0.481,0.678-0.576c0.116-0.037,0.235-0.056,0.356-0.056
		s0.24,0.019,0.356,0.056l2.49,0.862l1.542-1.54c0.199-0.215,0.494-0.342,0.8-0.342c0.283,0,0.553,0.106,0.76,0.298
		c0.244,0.226,0.372,0.547,0.353,0.878l0.061,2.756l2.49,0.979c0.291,0.119,0.515,0.341,0.634,0.625
		c0.119,0.284,0.12,0.598,0.003,0.883c-0.136,0.332-0.424,0.585-0.77,0.677l-1.691,0.472l10.099,8.983
		c0.376,0.375,0.578,0.859,0.58,1.372c0.002,0.512-0.197,0.994-0.559,1.355C23.014,23.742,22.534,23.941,22.022,23.941z
		 M21.396,22.696c0.154,0.153,0.386,0.246,0.626,0.246c0.244,0,0.474-0.095,0.646-0.268c0.173-0.173,0.268-0.402,0.268-0.646
		s-0.095-0.474-0.268-0.646L12.11,11.99l-0.094,0.026l-0.027,0.096L21.396,22.696z M8.385,11.597
		c0.202,0.005,0.381,0.129,0.455,0.317l1.1,2.8c0.016,0.037,0.055,0.072,0.1,0.084c0.013,0.003,0.026,0.005,0.04,0.005
		c0.07,0,0.131-0.047,0.149-0.114l0.902-3.213c0.047-0.167,0.18-0.3,0.347-0.347l3.206-0.895c0.051-0.014,0.09-0.048,0.109-0.092
		c0.016-0.038,0.016-0.079,0-0.118c-0.016-0.038-0.045-0.067-0.083-0.083l-2.793-1.097c-0.188-0.074-0.313-0.252-0.317-0.454
		L11.53,5.261c0.004-0.084-0.018-0.113-0.035-0.128c-0.027-0.025-0.057-0.03-0.077-0.03c-0.018,0-0.054,0.005-0.083,0.036
		L9.558,6.913C9.463,7.008,9.338,7.059,9.205,7.059c-0.055,0-0.11-0.009-0.162-0.027l-2.773-0.96
		C6.26,6.069,6.243,6.067,6.227,6.067c-0.017,0-0.033,0.003-0.05,0.008c-0.042,0.013-0.074,0.041-0.094,0.08
		c-0.02,0.039-0.024,0.082-0.01,0.124L7.03,9.044c0.062,0.18,0.015,0.384-0.12,0.518l-1.769,1.761
		c-0.035,0.033-0.049,0.065-0.047,0.1c0.002,0.031,0.015,0.057,0.037,0.078c0.021,0.019,0.047,0.029,0.073,0.029
		c0.002,0,0.025-0.001,0.027-0.001C5.233,11.529,8.385,11.597,8.385,11.597z"/>
	<path d="M0.497,9.999c-0.276,0-0.5-0.224-0.5-0.5s0.224-0.5,0.5-0.5h2c0.276,0,0.5,0.224,0.5,0.5s-0.224,0.5-0.5,0.5H0.497z"/>
	<path d="M9.497,2.999c-0.276,0-0.5-0.224-0.5-0.5v-2c0-0.276,0.224-0.5,0.5-0.5s0.5,0.224,0.5,0.5v2
		C9.997,2.774,9.773,2.999,9.497,2.999z"/>
	<path d="M2.497,3.999c-0.276,0-0.5-0.224-0.5-0.5v-0.5h-0.5c-0.276,0-0.5-0.224-0.5-0.5s0.224-0.5,0.5-0.5h0.5v-0.5
		c0-0.276,0.224-0.5,0.5-0.5s0.5,0.224,0.5,0.5v0.5h0.5c0.276,0,0.5,0.224,0.5,0.5s-0.224,0.5-0.5,0.5h-0.5v0.5
		C2.997,3.774,2.773,3.999,2.497,3.999z"/>
	<path d="M3.497,17.499c-0.276,0-0.5-0.224-0.5-0.5v-0.5h-0.5c-0.276,0-0.5-0.224-0.5-0.5s0.224-0.5,0.5-0.5h0.5v-0.5
		c0-0.276,0.224-0.5,0.5-0.5s0.5,0.224,0.5,0.5v0.5h0.5c0.276,0,0.5,0.224,0.5,0.5s-0.224,0.5-0.5,0.5h-0.5v0.5
		C3.997,17.274,3.773,17.499,3.497,17.499z"/>
	<path d="M15.997,4.999c-0.276,0-0.5-0.224-0.5-0.5v-0.5h-0.5c-0.276,0-0.5-0.224-0.5-0.5s0.224-0.5,0.5-0.5h0.5v-0.5
		c0-0.276,0.224-0.5,0.5-0.5c0.276,0,0.5,0.224,0.5,0.5v0.5h0.5c0.276,0,0.5,0.224,0.5,0.5s-0.224,0.5-0.5,0.5h-0.5v0.5
		C16.497,4.774,16.273,4.999,15.997,4.999z"/>
</g>
</svg>
