<?xml version="1.0" encoding="utf-8"?>
<!-- Generator: Adobe Illustrator 22.1.0, SVG Export Plug-In . SVG Version: 6.00 Build 0)  -->
<svg version="1.1" id="Light" xmlns="http://www.w3.org/2000/svg" xmlns:xlink="http://www.w3.org/1999/xlink" x="0px" y="0px"
	 viewBox="0 0 24 24" style="enable-background:new 0 0 24 24;" xml:space="preserve">
<g>
	<title>video-game-mario-mushroom</title>
	<path d="M5.258,23.999c-0.552,0-1-0.448-1-0.999c0-0.278,0.117-0.546,0.321-0.735c0.821-0.729,1.325-1.727,1.425-2.812l0.931-7.454
		H3.751c-1.286,0-2.467-0.647-3.159-1.73c-0.027-0.042-0.051-0.085-0.075-0.129l-0.019-0.034c-0.024-0.035-0.039-0.067-0.048-0.086
		C0.027,9.242-0.104,8.322,0.089,7.442c0.215-0.979,0.799-1.815,1.643-2.354l7.723-4.52c0.015-0.008,0.029-0.016,0.043-0.022
		c0.793-0.363,1.635-0.546,2.504-0.546c0.869,0,1.711,0.183,2.502,0.545c0.017,0.008,0.031,0.015,0.045,0.023l7.706,4.51
		c1.097,0.701,1.747,1.884,1.747,3.169c0,0.631-0.161,1.257-0.467,1.81c-0.01,0.018-0.018,0.032-0.026,0.044
		c-0.668,1.17-1.915,1.897-3.256,1.898h-3.184l0.93,7.438c0.101,1.098,0.604,2.097,1.419,2.822c0.201,0.186,0.316,0.433,0.327,0.701
		c0.011,0.267-0.083,0.523-0.264,0.719c-0.188,0.204-0.456,0.321-0.734,0.321H5.258z M6.997,19.561
		c-0.121,1.325-0.742,2.552-1.747,3.445l13.494-0.007c-0.999-0.887-1.618-2.115-1.741-3.455l-0.943-7.545H7.943L6.997,19.561z
		 M20.251,10.999c0.899,0,1.726-0.434,2.243-1.168c-0.427-0.527-1.07-0.837-1.749-0.837c-0.067,0-0.135,0.003-0.202,0.009
		c-0.599,0.056-1.14,0.341-1.524,0.804c-0.287,0.346-0.459,0.754-0.506,1.192H20.251z M17.51,10.999
		c0.05-0.669,0.308-1.311,0.74-1.831c0.555-0.668,1.336-1.08,2.201-1.161c0.099-0.009,0.198-0.014,0.297-0.014
		c0.814,0,1.591,0.304,2.188,0.845c0.044-0.195,0.066-0.393,0.066-0.592c0-0.943-0.475-1.809-1.269-2.317l-1.469-0.86
		c-0.263,0.707-0.728,1.307-1.356,1.748c-0.635,0.446-1.377,0.682-2.147,0.682c-0.218,0-0.438-0.019-0.655-0.057
		c-2.036-0.357-3.403-2.304-3.047-4.34c0.113-0.646,0.39-1.243,0.807-1.744c-0.594-0.239-1.22-0.359-1.864-0.359
		c-0.643,0-1.269,0.121-1.864,0.359c0.417,0.501,0.693,1.098,0.807,1.744c0.173,0.986-0.049,1.981-0.624,2.801
		c-0.575,0.82-1.436,1.366-2.422,1.539C7.683,7.481,7.465,7.5,7.249,7.5c-1.564,0-2.963-0.984-3.507-2.43L2.254,5.941
		C1.648,6.328,1.224,6.94,1.066,7.657c-0.087,0.394-0.086,0.797,0,1.184c0.597-0.542,1.374-0.847,2.19-0.847
		c0.099,0,0.198,0.005,0.297,0.014C4.416,8.088,5.198,8.5,5.753,9.169c0.431,0.52,0.689,1.162,0.74,1.831H17.51z M1.505,9.834
		c0.519,0.734,1.348,1.165,2.246,1.165h1.736C5.371,9.957,4.523,9.102,3.459,9.003c-0.068-0.006-0.136-0.01-0.204-0.01
		C2.576,8.994,1.933,9.305,1.505,9.834z M14.765,1.853c-0.374,0.392-0.628,0.891-0.721,1.422c-0.262,1.494,0.741,2.922,2.234,3.183
		c0.159,0.028,0.321,0.042,0.48,0.042c0.564,0,1.108-0.173,1.574-0.5c0.502-0.352,0.869-0.861,1.047-1.447L14.765,1.853z
		 M4.625,4.553C4.974,5.691,6.051,6.5,7.25,6.5c0.158,0,0.318-0.014,0.475-0.041C8.448,6.332,9.079,5.931,9.501,5.33
		c0.422-0.601,0.585-1.331,0.458-2.054c-0.093-0.531-0.347-1.03-0.721-1.422L4.625,4.553z"/>
	<path d="M12.001,20.999c-1.103,0-2-0.897-2-2c0-0.276,0.224-0.5,0.5-0.5s0.5,0.224,0.5,0.5c0,0.552,0.449,1,1,1s1-0.448,1-1
		c0-0.276,0.224-0.5,0.5-0.5s0.5,0.224,0.5,0.5C14.001,20.102,13.104,20.999,12.001,20.999z"/>
	<path d="M10.501,15.999c-0.276,0-0.5-0.224-0.5-0.5v-1c0-0.276,0.224-0.5,0.5-0.5s0.5,0.224,0.5,0.5v1
		C11.001,15.775,10.777,15.999,10.501,15.999z"/>
	<path d="M13.501,15.999c-0.276,0-0.5-0.224-0.5-0.5v-1c0-0.276,0.224-0.5,0.5-0.5s0.5,0.224,0.5,0.5v1
		C14.001,15.775,13.777,15.999,13.501,15.999z"/>
</g>
</svg>
