<?xml version="1.0" encoding="utf-8"?>
<!-- Generator: Adobe Illustrator 22.1.0, SVG Export Plug-In . SVG Version: 6.00 Build 0)  -->
<svg version="1.1" id="Light" xmlns="http://www.w3.org/2000/svg" xmlns:xlink="http://www.w3.org/1999/xlink" x="0px" y="0px"
	 viewBox="0 0 24 24" style="enable-background:new 0 0 24 24;" xml:space="preserve">
<g>
	<title>video-game-assasin-creed</title>
	<path d="M12,14.876c-0.602,0-1.202-0.15-1.735-0.434c-0.243-0.13-0.335-0.434-0.206-0.677c0.087-0.163,0.256-0.265,0.441-0.265
		c0.081,0,0.162,0.02,0.234,0.058c0.39,0.208,0.827,0.318,1.266,0.318s0.876-0.11,1.265-0.317c0.073-0.039,0.154-0.059,0.235-0.059
		c0.185,0,0.354,0.101,0.441,0.264c0.13,0.244,0.038,0.547-0.205,0.677C13.202,14.726,12.602,14.876,12,14.876z"/>
	<path d="M12,24c-0.09,0-0.178-0.024-0.254-0.07l-7.851-4.636c-2.02-1.194-2.782-3.691-1.773-5.809l2.18-4.58
		c0.592-1.249,1.054-2.564,1.373-3.909c0.57-2.409,2.421-4.26,4.83-4.829C10.996,0.051,11.499-0.008,12-0.008
		c3.027,0,5.628,2.058,6.325,5.005c0.318,1.345,0.78,2.66,1.373,3.908l2.18,4.58c1.007,2.117,0.244,4.613-1.773,5.806l-7.851,4.639
		C12.178,23.977,12.09,24,12,24z M2.685,15.551c0.041,1.182,0.686,2.273,1.719,2.883L12,22.92l0.74-0.438
		c-1.012-2.266-2.385-4.323-4.085-6.119l-0.043-0.032c-0.053-0.04-0.107-0.08-0.158-0.123c-0.761-0.642-1.323-1.463-1.645-2.396
		c-1.211,1.285-3.464,1.644-3.739,1.683L2.685,15.551z M12.477,19.79c0.409,0.695,0.788,1.427,1.129,2.181l5.991-3.54
		c1.031-0.61,1.676-1.699,1.717-2.88l-0.385-0.055c-0.275-0.04-2.53-0.398-3.739-1.678c-0.295,0.848-0.793,1.61-1.459,2.225
		C14.767,17.12,13.422,18.64,12.477,19.79z M10.837,17.381c0.381,0.491,0.743,0.998,1.081,1.515c0.37-0.444,0.808-0.957,1.31-1.533
		c-0.252,0.058-0.507,0.099-0.762,0.12c-0.159,0.014-0.319,0.021-0.475,0.021C11.601,17.504,11.216,17.463,10.837,17.381z
		 M7.522,12.442c0.115,1.176,0.674,2.24,1.577,3.001c0.811,0.684,1.838,1.061,2.891,1.061c0.13,0,0.261-0.006,0.391-0.017
		c0.994-0.084,1.909-0.485,2.648-1.158c0.001-0.001,0.015-0.015,0.023-0.021c0.816-0.757,1.318-1.77,1.426-2.867
		c-0.258-1.289-0.587-2.561-0.979-3.78c-0.135-0.353-0.414-0.645-0.78-0.809c-0.196-0.087-0.402-0.132-0.612-0.132
		c-0.182,0-0.362,0.033-0.536,0.099c-0.199,0.076-0.376,0.191-0.526,0.342l-0.691,0.691C12.259,8.949,12.133,9.001,12,9.001
		s-0.259-0.052-0.354-0.146l-0.691-0.691c-0.283-0.284-0.66-0.44-1.061-0.44l-0.001-0.25v0.25c-0.4,0-0.777,0.156-1.06,0.438
		C8.683,8.312,8.568,8.489,8.492,8.688C8.106,9.895,7.778,11.162,7.522,12.442z M12,0.992c-0.424,0-0.85,0.05-1.266,0.148
		C8.695,1.623,7.129,3.189,6.647,5.227C6.312,6.641,5.826,8.022,5.205,9.335l-2.181,4.581c-0.094,0.197-0.169,0.4-0.225,0.608
		l0.13-0.019c0.882-0.128,3.244-0.759,3.586-2.126c0.261-1.341,0.609-2.699,1.034-4.023c0.134-0.353,0.327-0.652,0.578-0.903
		c0.472-0.471,1.099-0.731,1.766-0.731c0.67,0,1.297,0.261,1.769,0.734L12,7.794l0.338-0.338c0.251-0.251,0.546-0.443,0.878-0.569
		c0.286-0.109,0.585-0.164,0.888-0.164c1.031,0,1.971,0.646,2.339,1.609c0.432,1.343,0.783,2.709,1.049,4.073
		c0.337,1.344,2.698,1.973,3.58,2.101l0.129,0.019c-0.056-0.208-0.131-0.412-0.225-0.608l-2.18-4.58
		c-0.623-1.312-1.109-2.694-1.443-4.108C16.763,2.734,14.562,0.992,12,0.992z"/>
</g>
</svg>
