<?xml version="1.0" encoding="utf-8"?>
<!-- Generator: Adobe Illustrator 22.1.0, SVG Export Plug-In . SVG Version: 6.00 Build 0)  -->
<svg version="1.1" id="Light" xmlns="http://www.w3.org/2000/svg" xmlns:xlink="http://www.w3.org/1999/xlink" x="0px" y="0px"
	 viewBox="0 0 24 24" style="enable-background:new 0 0 24 24;" xml:space="preserve">
<g>
	<title>video-game-pacman-1</title>
	<path d="M12.001,24.007c-3.877,0-7.262-2.622-8.231-6.376c-0.568-2.198-0.245-4.486,0.908-6.442C5.761,9.352,7.469,8.005,9.5,7.382
		V5.999H8c-0.276,0-0.5-0.224-0.5-0.5s0.224-0.5,0.5-0.5h8c0.276,0,0.5,0.224,0.5,0.5s-0.224,0.5-0.5,0.5h-1.5v1.384
		c2.807,0.864,4.994,3.147,5.73,5.999c0.568,2.198,0.246,4.486-0.907,6.442s-2.999,3.345-5.197,3.913
		C13.429,23.916,12.715,24.007,12.001,24.007L12.001,24.007z M10.5,7.76c0,0.228-0.154,0.427-0.375,0.484
		c-1.94,0.501-3.568,1.727-4.586,3.453c-1.017,1.726-1.302,3.745-0.801,5.684c0.855,3.312,3.842,5.626,7.264,5.626
		c0.629,0,1.259-0.08,1.873-0.239c1.94-0.501,3.568-1.727,4.586-3.453c1.018-1.726,1.302-3.745,0.801-5.684
		c-0.682-2.641-2.746-4.705-5.387-5.387C13.654,8.188,13.5,7.989,13.5,7.76V5.999h-3V7.76z"/>
	<path d="M12.117,20.495c-2.751,0-5.047-2.236-5.117-4.984c0-2.767,2.243-5.012,5-5.012c1.105,0,2.195,0.374,3.068,1.052
		c0.211,0.165,0.345,0.402,0.378,0.667c0.033,0.265-0.04,0.527-0.205,0.738c-0.027,0.034-0.053,0.063-0.082,0.092l-2.452,2.451
		l2.452,2.452c0.189,0.189,0.293,0.44,0.293,0.707s-0.104,0.518-0.293,0.707c-0.027,0.027-0.057,0.054-0.089,0.079
		c-0.826,0.646-1.814,1.009-2.859,1.05L12.117,20.495L12.117,20.495z M12,11.499c-2.205,0-4,1.794-4,4
		c0.057,2.201,1.902,3.997,4.113,3.997l0.069-0.001c0.826-0.033,1.613-0.322,2.271-0.837l-2.806-2.806
		c-0.094-0.094-0.146-0.22-0.146-0.354s0.052-0.259,0.146-0.354l2.806-2.805C13.755,11.798,12.884,11.499,12,11.499l0-0.25
		L12,11.499z"/>
	<circle cx="12.5" cy="2.999" r="0.75"/>
	<path d="M16,2.999c-0.827,0-1.5-0.673-1.5-1.5s0.673-1.5,1.5-1.5c0.827,0,1.5,0.673,1.5,1.5S16.827,2.999,16,2.999z M16,0.999
		c-0.276,0-0.5,0.224-0.5,0.5s0.224,0.5,0.5,0.5c0.276,0,0.5-0.224,0.5-0.5S16.275,0.999,16,0.999z"/>
	<circle cx="10.5" cy="13.999" r="0.75"/>
</g>
</svg>
