<?xml version="1.0" encoding="utf-8"?>
<!-- Generator: Adobe Illustrator 22.1.0, SVG Export Plug-In . SVG Version: 6.00 Build 0)  -->
<svg version="1.1" id="Layer_1" xmlns="http://www.w3.org/2000/svg" xmlns:xlink="http://www.w3.org/1999/xlink" x="0px" y="0px"
	 viewBox="0 0 24 24" style="enable-background:new 0 0 24 24;" xml:space="preserve">
<g>
	<title>scooter-3</title>
	<path d="M12,24c-1.103,0-2-0.897-2-2v-1c-1.104,0-2.072-0.783-2.303-1.863L5.53,9.024C5.458,8.685,5.457,8.337,5.526,8H2.531
		c-0.276,0-0.5-0.224-0.5-0.5S2.255,7,2.531,7h3.447C6.243,6.645,6.594,6.37,7,6.199V5c0-2.757,2.243-5,5-5c2.757,0,5,2.243,5,5v1.2
		c0.404,0.171,0.754,0.445,1.021,0.8h3.448c0.276,0,0.5,0.224,0.5,0.5S21.745,8,21.469,8h-2.996
		c0.035,0.166,0.052,0.333,0.052,0.501c0,0.176-0.019,0.352-0.056,0.523l-2.167,10.114C16.072,20.217,15.104,21,14,21v1
		C14,23.103,13.103,24,12,24z M12,17c-0.551,0-1,0.448-1,1v4c0,0.552,0.449,1,1,1c0.552,0,1-0.448,1-1v-4C13,17.448,12.552,17,12,17
		z M14,20c0.635,0,1.192-0.451,1.325-1.072l1.477-6.896l-4.007,2.534c-0.218,0.138-0.472,0.217-0.736,0.228
		C12.044,14.797,12.024,14.8,12,14.8c-0.012,0-0.028-0.001-0.044-0.004c-0.268-0.006-0.527-0.083-0.751-0.221l-3.992-2.468
		l1.461,6.82C8.808,19.549,9.365,20,10,20v-2c0-1.103,0.897-2,2-2s2,0.897,2,2V20z M11.255,13.431l-0.639-2.442
		c-0.03-0.116-0.102-0.218-0.2-0.286L6.539,8.064C6.464,8.305,6.454,8.56,6.508,8.814l0.415,1.938L11.255,13.431z M13.591,10.703
		c-0.097,0.067-0.168,0.168-0.198,0.284l-0.64,2.422l4.343-2.745l0.396-1.85c0.022-0.103,0.033-0.209,0.033-0.314
		c0-0.15-0.022-0.295-0.064-0.435L13.591,10.703z M10.981,9.878c0.298,0.206,0.512,0.51,0.603,0.858l0.418,1.599l0.423-1.601
		c0.09-0.347,0.303-0.651,0.6-0.855l3.842-2.619C16.621,7.091,16.331,7,16.026,7H7.974C7.869,7,7.763,7.011,7.661,7.033
		C7.469,7.074,7.29,7.151,7.132,7.258L10.981,9.878z M16,6V5c0-2.206-1.794-4-4-4S8,2.794,8,5v1H16z"/>
</g>
</svg>
