<?xml version="1.0" encoding="utf-8"?>
<!-- Generator: Adobe Illustrator 22.1.0, SVG Export Plug-In . SVG Version: 6.00 Build 0)  -->
<svg version="1.1" id="Layer_1" xmlns="http://www.w3.org/2000/svg" xmlns:xlink="http://www.w3.org/1999/xlink" x="0px" y="0px"
	 viewBox="0 0 24 24" style="enable-background:new 0 0 24 24;" xml:space="preserve">
<g>
	<title>scooter-2</title>
	<path d="M12,7.75c-1.103,0-2-0.897-2-2s0.897-2,2-2s2,0.897,2,2S13.103,7.75,12,7.75z M12,4.75c-0.551,0-1,0.449-1,1s0.449,1,1,1
		c0.552,0,1-0.449,1-1S12.552,4.75,12,4.75z"/>
	<path d="M12,22.25c-1.379,0-2.5-1.122-2.5-2.5l-0.32,0.001c-1.443,0-2.646-1.177-2.68-2.623l0-4.957
		c-0.005-0.057-0.008-0.153-0.008-0.248c0.007-0.988,0.399-1.915,1.103-2.608c0.408-0.402,0.903-0.701,1.449-0.878
		C8.376,7.703,8,6.746,8,5.75c0-0.709,0.186-1.392,0.541-2H7.914c-0.209,0.59-0.774,1-1.414,1h-2C3.673,4.75,3,4.077,3,3.25
		s0.673-1.5,1.5-1.5h2c0.64,0,1.205,0.41,1.414,1h1.449c0.733-0.646,1.666-1,2.637-1c0.971,0,1.904,0.354,2.637,1h1.449
		c0.209-0.59,0.774-1,1.414-1h2c0.827,0,1.5,0.673,1.5,1.5s-0.673,1.5-1.5,1.5h-2c-0.64,0-1.205-0.41-1.414-1h-0.627
		C15.814,4.358,16,5.041,16,5.75c0,0.993-0.374,1.948-1.039,2.681c1.489,0.483,2.536,1.88,2.548,3.476c0,0.101-0.003,0.201-0.01,0.3
		l0.001,4.908c-0.035,1.455-1.24,2.635-2.686,2.635l-0.314,0C14.5,21.128,13.378,22.25,12,22.25z M12,14.25
		c-0.827,0-1.5,0.673-1.5,1.5v4c0,0.827,0.673,1.5,1.5,1.5s1.5-0.673,1.5-1.5v-4C13.5,14.923,12.827,14.25,12,14.25z M10,9.257
		c-0.635,0.039-1.235,0.309-1.703,0.77c-0.514,0.506-0.799,1.182-0.805,1.903c-0.001,0.069,0.002,0.138,0.006,0.207L7.5,17.116
		c0.022,0.899,0.768,1.635,1.665,1.635L9.5,18.75v-3c0-0.538,0.177-1.066,0.5-1.497V9.257z M14.803,18.75
		c0.93,0,1.675-0.723,1.697-1.646v-4.933c0.007-0.108,0.009-0.182,0.009-0.257c-0.01-1.402-1.123-2.566-2.509-2.657v4.996
		c0.323,0.431,0.5,0.959,0.5,1.497v3L14.803,18.75z M12,13.25c0.347,0,0.686,0.072,1,0.209V9.62c-0.33,0.087-0.665,0.13-1,0.13
		c-0.335,0-0.67-0.044-1-0.13v3.839C11.314,13.322,11.653,13.25,12,13.25z M10.424,8.297c0.034,0.016,0.06,0.035,0.078,0.048
		C10.947,8.607,11.471,8.75,12,8.75c1.654,0,3-1.346,3-3s-1.346-3-3-3c-1.654,0-3,1.346-3,3C9,6.792,9.532,7.743,10.424,8.297z
		 M17.5,2.75c-0.276,0-0.5,0.224-0.5,0.5s0.224,0.5,0.5,0.5h2c0.276,0,0.5-0.224,0.5-0.5s-0.224-0.5-0.5-0.5H17.5z M4.5,2.75
		C4.224,2.75,4,2.974,4,3.25s0.224,0.5,0.5,0.5h2c0.276,0,0.5-0.224,0.5-0.5s-0.224-0.5-0.5-0.5H4.5z"/>
</g>
</svg>
