<?xml version="1.0" encoding="utf-8"?>
<!-- Generator: Adobe Illustrator 22.1.0, SVG Export Plug-In . SVG Version: 6.00 Build 0)  -->
<svg version="1.1" id="Layer_1" xmlns="http://www.w3.org/2000/svg" xmlns:xlink="http://www.w3.org/1999/xlink" x="0px" y="0px"
	 viewBox="0 0 24 24" style="enable-background:new 0 0 24 24;" xml:space="preserve">
<g>
	<title>scooter-1</title>
	<path d="M12,24c-1.212,0-2.233-0.858-2.455-2.028C7.261,21.741,5.5,19.815,5.5,17.5v-4c0-2.647,1.632-5.029,4.046-6.017
		C7.979,6.782,7,5.469,7,4c0-0.336,0.054-0.671,0.162-1H3.5C3.224,3,3,2.776,3,2.5S3.224,2,3.5,2h4.172C8.566,0.763,10.21,0,12,0
		c1.79,0,3.434,0.763,4.328,2H20.5C20.776,2,21,2.224,21,2.5S20.776,3,20.5,3h-3.662C16.946,3.329,17,3.664,17,4
		c0,1.445-1,2.78-2.549,3.482c2.415,0.988,4.049,3.37,4.049,6.018v4c0,2.315-1.761,4.241-4.045,4.472C14.233,23.142,13.212,24,12,24
		z M12,16c-0.827,0-1.5,0.673-1.5,1.5v4c0,0.827,0.673,1.5,1.5,1.5s1.5-0.673,1.5-1.5v-4C13.5,16.673,12.827,16,12,16z M12,15
		c1.378,0,2.5,1.122,2.5,2.5v3.46c1.702-0.245,3-1.716,3-3.46v-4c0-2.45-1.664-4.626-4-5.29V12c0,0.552-0.448,1-1,1h-1
		c-0.551,0-1-0.448-1-1V8.21c-2.336,0.664-4,2.841-4,5.29v4c0,1.744,1.298,3.215,3,3.46V17.5C9.5,16.122,10.621,15,12,15z M11.5,12
		h1V8.024C12.33,8.008,12.162,8,12,8c-0.162,0-0.33,0.008-0.5,0.024V12z M12,1C9.794,1,8,2.346,8,4s1.794,3,4,3s4-1.346,4-3
		S14.206,1,12,1z"/>
	<path d="M12,6c-1.103,0-2-0.897-2-2s0.897-2,2-2s2,0.897,2,2S13.103,6,12,6z M12,3c-0.551,0-1,0.449-1,1s0.449,1,1,1
		c0.552,0,1-0.449,1-1S12.552,3,12,3z"/>
</g>
</svg>
