<?xml version="1.0" encoding="utf-8"?>
<!-- Generator: Adobe Illustrator 22.1.0, SVG Export Plug-In . SVG Version: 6.00 Build 0)  -->
<svg version="1.1" id="Light" xmlns="http://www.w3.org/2000/svg" xmlns:xlink="http://www.w3.org/1999/xlink" x="0px" y="0px"
	 viewBox="0 0 24 24" style="enable-background:new 0 0 24 24;" xml:space="preserve">
<g>
	<title>swan-couple</title>
	<path d="M15.5,20.5c-1.458,0-2.803-0.814-3.5-2.074C11.303,19.686,9.958,20.5,8.5,20.5H6c-3.308,0-6-2.692-6-6V13
		c0-0.185,0.101-0.354,0.264-0.441C0.336,12.521,0.417,12.5,0.5,12.5c0.099,0,0.195,0.029,0.277,0.083
		c0.267,0.178,0.515,0.261,0.781,0.261c0.356,0,0.725-0.144,1.193-0.326C3.374,12.275,4.082,12,5,12c1.331,0,2.602,0.635,3.4,1.7
		c0.08,0.107,0.114,0.238,0.095,0.371C8.476,14.203,8.407,14.32,8.3,14.4c-0.087,0.065-0.191,0.1-0.3,0.1
		c-0.157,0-0.306-0.075-0.4-0.201C6.99,13.486,6.017,13,5,13c-0.73,0-1.318,0.229-1.887,0.45c-0.498,0.194-1.012,0.394-1.561,0.394
		c-0.189,0-0.372-0.023-0.552-0.07V14.5c0,2.757,2.243,5,5,5h2.5c1.654,0,3-1.346,3-3c0-1.902-1.202-2.899-2.594-4.053
		C7.31,11.123,5.5,9.623,5.5,6.5c0-1.654,1.346-3,3-3s3,1.346,3,3c0,0.064-0.012,0.126-0.035,0.185
		c-0.202,0.506-0.058,1.082,0.358,1.433C11.935,8.213,11.996,8.347,12,8.486c0.004-0.139,0.065-0.273,0.177-0.368
		c0.416-0.351,0.56-0.927,0.358-1.433C12.512,6.626,12.5,6.564,12.5,6.5c0-1.654,1.346-3,3-3s3,1.346,3,3
		c0,3.123-1.81,4.623-3.406,5.947C13.702,13.601,12.5,14.598,12.5,16.5c0,1.654,1.346,3,3,3H18c2.757,0,5-2.243,5-5v-0.726
		c-0.18,0.047-0.363,0.07-0.552,0.07c-0.55,0-1.064-0.2-1.561-0.394C20.318,13.229,19.73,13,19,13c-1.018,0-1.99,0.486-2.6,1.3
		c-0.093,0.125-0.243,0.2-0.4,0.2c-0.109,0-0.213-0.035-0.3-0.1c-0.107-0.08-0.176-0.197-0.195-0.329
		c-0.019-0.132,0.015-0.264,0.095-0.371c0.798-1.064,2.069-1.7,3.4-1.7c0.918,0,1.626,0.275,2.25,0.519
		c0.469,0.182,0.837,0.326,1.193,0.326c0.266,0,0.513-0.083,0.78-0.26c0.082-0.055,0.178-0.084,0.277-0.084
		c0.082,0,0.164,0.021,0.236,0.059C23.899,12.646,24,12.815,24,13v1.5c0,3.308-2.692,6-6,6H15.5z M8.5,4.5c-1.103,0-2,0.897-2,2
		c0,2.653,1.548,3.936,3.044,5.177c0.932,0.772,1.891,1.567,2.456,2.679c0.565-1.112,1.524-1.907,2.455-2.679
		C15.952,10.436,17.5,9.153,17.5,6.5c0-1.103-0.897-2-2-2c-1.066,0-1.953,0.855-1.998,1.915c0.247,0.714,0.124,1.488-0.321,2.085
		c0.125,0.077,0.299,0.138,0.538,0.138c0.188,0,0.397-0.038,0.623-0.113c0.668-0.221,1.134-0.841,1.159-1.543
		C15.51,6.716,15.734,6.5,16.001,6.5c0.15,0.005,0.273,0.061,0.365,0.159c0.091,0.098,0.139,0.225,0.134,0.358
		c-0.039,1.119-0.78,2.106-1.843,2.457C14.329,9.584,14.014,9.64,13.72,9.64c-1.187,0-1.647-0.877-1.667-0.914
		C12.02,8.657,12.002,8.585,12,8.513c-0.002,0.071-0.019,0.143-0.053,0.211c-0.019,0.038-0.476,0.916-1.667,0.916
		c-0.294,0-0.609-0.056-0.938-0.165C8.28,9.124,7.54,8.136,7.5,7.018C7.491,6.742,7.707,6.51,7.982,6.5c0,0,0.001,0,0.001,0
		c0.29,0,0.507,0.212,0.516,0.482c0.025,0.703,0.49,1.323,1.157,1.543c0.226,0.075,0.436,0.114,0.623,0.114
		c0.239,0,0.414-0.061,0.539-0.138c-0.445-0.597-0.567-1.371-0.321-2.085C10.453,5.355,9.566,4.5,8.5,4.5z"/>
</g>
</svg>
