<?xml version="1.0" encoding="utf-8"?>
<!-- Generator: Adobe Illustrator 22.1.0, SVG Export Plug-In . SVG Version: 6.00 Build 0)  -->
<svg version="1.1" id="Light" xmlns="http://www.w3.org/2000/svg" xmlns:xlink="http://www.w3.org/1999/xlink" x="0px" y="0px"
	 viewBox="0 0 24 24" style="enable-background:new 0 0 24 24;" xml:space="preserve">
<g>
	<title>swan-1</title>
	<circle cx="21.5" cy="10.5" r="0.75"/>
	<path d="M8.5,24C3.813,24,0,20.187,0,15.5c0-2.703,1.139-3.376,1.269-3.443C1.341,12.019,1.42,12,1.5,12
		c0.074,0,0.149,0.017,0.216,0.049c0.14,0.067,0.243,0.198,0.274,0.351C2.008,12.487,2.434,14.5,4,14.5
		c0.944,0,1.656-0.391,2.344-0.769C7.029,13.355,7.676,13,8.5,13c1.474,0,2.677,0.693,3.139,1.808
		c0.415,1.001,0.121,2.139-0.785,3.045C10.759,17.948,10.634,18,10.5,18s-0.259-0.052-0.354-0.146S10,17.634,10,17.5
		s0.052-0.259,0.146-0.354c0.619-0.62,0.827-1.332,0.568-1.955C10.411,14.456,9.562,14,8.5,14c-0.568,0-1.081,0.281-1.674,0.607
		C6.063,15.026,5.2,15.5,4,15.5c-1.498,0-2.292-1.146-2.67-1.968C1.16,13.92,1,14.54,1,15.5C1,19.635,4.365,23,8.5,23
		s7.5-3.365,7.5-7.5c0-2.525-1.376-4.245-2.482-5.628C12.703,8.854,12,7.975,12,7c0-2.206,1.794-4,4-4s4,1.794,4,4v9.5
		c0,0.02-0.001,0.04-0.004,0.06c-0.033,0.276,0.166,0.529,0.444,0.562c0.021,0.003,0.042,0.004,0.062,0.004
		c0.114,0,0.221-0.038,0.312-0.109c0.106-0.084,0.174-0.204,0.19-0.338c0.005-0.04,0.005-0.08,0-0.119
		C21.001,16.54,21,16.52,21,16.5v-3c0-0.188,0.104-0.359,0.272-0.445c0.994-0.51,1.641-1.48,1.729-2.594
		c0.102-1.133-0.219-2.254-0.901-3.159C22.036,7.215,22,7.108,22,7c0-3.308-2.692-6-6-6s-6,2.692-6,6
		c0,0.908,0.43,1.861,0.846,2.782c0.331,0.735,0.643,1.427,0.753,2.105c0.044,0.272-0.142,0.529-0.414,0.573
		c-0.027,0.004-0.054,0.007-0.081,0.007c-0.246,0-0.453-0.177-0.493-0.421c-0.089-0.548-0.374-1.182-0.677-1.853
		C9.475,9.176,9,8.123,9,7c0-3.86,3.14-7,7-7c3.787,0,6.909,3.058,6.998,6.834c0.763,1.078,1.118,2.392,1,3.71
		c-0.106,1.345-0.85,2.549-1.998,3.248v2.681c0.01,0.107,0.009,0.216-0.003,0.322c-0.047,0.4-0.248,0.757-0.564,1.006
		c-0.268,0.211-0.591,0.323-0.932,0.323l0,0c-0.059,0-0.118-0.003-0.177-0.01c-0.811-0.096-1.402-0.831-1.323-1.642V7
		c0-1.654-1.346-3-3-3s-3,1.346-3,3c0,0.625,0.602,1.377,1.298,2.247C15.502,10.752,17,12.625,17,15.5C17,20.187,13.187,24,8.5,24z"
		/>
</g>
</svg>
