<?xml version="1.0" encoding="utf-8"?>
<!-- Generator: Adobe Illustrator 22.1.0, SVG Export Plug-In . SVG Version: 6.00 Build 0)  -->
<svg version="1.1" id="Layer_1" xmlns="http://www.w3.org/2000/svg" xmlns:xlink="http://www.w3.org/1999/xlink" x="0px" y="0px"
	 viewBox="0 0 24 24" style="enable-background:new 0 0 24 24;" xml:space="preserve">
<g>
	<title>billboard</title>
	<path d="M18.5,22c-0.276,0-0.5-0.224-0.5-0.5V18h-2v3.5c0,0.276-0.224,0.5-0.5,0.5S15,21.776,15,21.5V18H9v3.5
		C9,21.776,8.776,22,8.5,22S8,21.776,8,21.5V18H6v3.5C6,21.776,5.776,22,5.5,22S5,21.776,5,21.5V18H1.5C0.673,18,0,17.327,0,16.5
		v-13C0,2.673,0.673,2,1.5,2h21C23.327,2,24,2.673,24,3.5v13c0,0.827-0.673,1.5-1.5,1.5H19v3.5C19,21.776,18.776,22,18.5,22z M1.5,3
		C1.224,3,1,3.224,1,3.5v13C1,16.776,1.224,17,1.5,17h21c0.276,0,0.5-0.224,0.5-0.5v-13C23,3.224,22.776,3,22.5,3h-3v2H21
		c0.276,0,0.5,0.224,0.5,0.5S21.276,6,21,6h-4c-0.276,0-0.5-0.224-0.5-0.5S16.724,5,17,5h1.5V3h-6v2H14c0.276,0,0.5,0.224,0.5,0.5
		S14.276,6,14,6h-4C9.724,6,9.5,5.776,9.5,5.5S9.724,5,10,5h1.5V3h-6v2H7c0.276,0,0.5,0.224,0.5,0.5S7.276,6,7,6H3
		C2.724,6,2.5,5.776,2.5,5.5S2.724,5,3,5h1.5V3H1.5z"/>
	<path d="M11.5,9C11.224,9,11,8.776,11,8.5S11.224,8,11.5,8h9C20.776,8,21,8.224,21,8.5S20.776,9,20.5,9H11.5z"/>
	<path d="M11.5,12c-0.276,0-0.5-0.224-0.5-0.5s0.224-0.5,0.5-0.5h9c0.276,0,0.5,0.224,0.5,0.5S20.776,12,20.5,12H11.5z"/>
	<path d="M11.5,15c-0.276,0-0.5-0.224-0.5-0.5s0.224-0.5,0.5-0.5h6c0.276,0,0.5,0.224,0.5,0.5S17.776,15,17.5,15H11.5z"/>
</g>
</svg>
