<?xml version="1.0" encoding="utf-8"?>
<!-- Generator: Adobe Illustrator 22.1.0, SVG Export Plug-In . SVG Version: 6.00 Build 0)  -->
<svg version="1.1" id="Layer_1" xmlns="http://www.w3.org/2000/svg" xmlns:xlink="http://www.w3.org/1999/xlink" x="0px" y="0px"
	 viewBox="0 0 24 24" style="enable-background:new 0 0 24 24;" xml:space="preserve">
<g>
	<title>flyer-taken</title>
	<path d="M1,23c-0.551,0-1-0.448-1-1V2.5C0,1.673,0.673,1,1.5,1h21C23.327,1,24,1.673,24,2.5v10.277
		c0,0.179-0.097,0.345-0.252,0.434c-0.075,0.043-0.161,0.066-0.248,0.066c-0.089,0-0.177-0.024-0.255-0.07
		C23.02,13.074,22.75,13,22.487,13C21.664,13.005,21,13.672,21,14.487c0,0.287-0.224,0.512-0.498,0.513
		c-0.276,0-0.5-0.223-0.502-0.497C19.995,13.668,19.322,13,18.5,13c-0.827,0-1.5,0.673-1.5,1.5c0,0.276-0.224,0.5-0.5,0.5
		S16,14.776,16,14.5c0-0.827-0.673-1.5-1.5-1.5S13,13.673,13,14.5V22c0,0.552-0.448,1-1,1H1z M12,22v-7.5c0-0.827-0.673-1.5-1.5-1.5
		S9,13.673,9,14.5V22H12z M8,22v-7.5C8,13.673,7.327,13,6.5,13S5,13.673,5,14.5V22H8z M2.5,13C1.673,13,1,13.673,1,14.5V22h3v-7.5
		C4,13.673,3.327,13,2.5,13z M10.5,12c0.798,0,1.532,0.376,2,1.003c0.468-0.627,1.202-1.003,2-1.003c0.797,0,1.532,0.375,2,1
		c0.468-0.625,1.203-1,2-1c0.795,0,1.529,0.373,1.997,0.996c0.068-0.09,0.142-0.176,0.222-0.257c0.467-0.472,1.09-0.735,1.755-0.739
		c0.182,0,0.357,0.018,0.527,0.053V2.5C23,2.224,22.776,2,22.5,2h-21C1.224,2,1,2.224,1,2.5v10.001C1.428,12.178,1.952,12,2.5,12
		c0.798,0,1.532,0.376,2,1.003C4.968,12.376,5.702,12,6.5,12s1.532,0.376,2,1.003C8.968,12.376,9.702,12,10.5,12z"/>
	<path d="M4.5,10C3.673,10,3,9.327,3,8.5v-4C3,3.673,3.673,3,4.5,3h3C8.327,3,9,3.673,9,4.5v4C9,9.327,8.327,10,7.5,10H4.5z M4.5,4
		C4.224,4,4,4.224,4,4.5v4C4,8.776,4.224,9,4.5,9h3C7.776,9,8,8.776,8,8.5v-4C8,4.224,7.776,4,7.5,4H4.5z"/>
	<path d="M11.5,5C11.224,5,11,4.776,11,4.5S11.224,4,11.5,4h9C20.776,4,21,4.224,21,4.5S20.776,5,20.5,5H11.5z"/>
	<path d="M11.5,7C11.224,7,11,6.776,11,6.5S11.224,6,11.5,6h9C20.776,6,21,6.224,21,6.5S20.776,7,20.5,7H11.5z"/>
	<path d="M11.5,9C11.224,9,11,8.776,11,8.5S11.224,8,11.5,8h4C15.776,8,16,8.224,16,8.5S15.776,9,15.5,9H11.5z"/>
</g>
</svg>
