<?xml version="1.0" encoding="utf-8"?>
<!-- Generator: Adobe Illustrator 22.1.0, SVG Export Plug-In . SVG Version: 6.00 Build 0)  -->
<svg version="1.1" id="Layer_1" xmlns="http://www.w3.org/2000/svg" xmlns:xlink="http://www.w3.org/1999/xlink" x="0px" y="0px"
	 viewBox="0 0 24 24" style="enable-background:new 0 0 24 24;" xml:space="preserve">
<g>
	<title>invitation</title>
	<path d="M20,24c-0.276,0-0.5-0.224-0.5-0.5V19c0-0.03,0.003-0.06,0.008-0.09L20.401,14H16c-0.276,0-0.5-0.224-0.5-0.5v-3.458
		C15.5,8.668,15.009,8,14,8s-1.5,0.668-1.5,2.042V14.5c0,0.04-0.005,0.081-0.015,0.12l-0.5,2.001
		c-0.24,0.884-0.245,1.811-0.018,2.689c0.381,0.671,0.848,1.289,1.389,1.839c0.093,0.095,0.144,0.219,0.144,0.351v2
		c0,0.276-0.224,0.5-0.5,0.5s-0.5-0.224-0.5-0.5v-1.798c-0.558-0.591-1.041-1.249-1.437-1.958c-0.02-0.035-0.035-0.073-0.046-0.113
		c-0.144-0.531-0.216-1.075-0.215-1.626c-0.165,0.148-0.339,0.285-0.521,0.409c-0.019,0.013-0.038,0.024-0.058,0.034
		c-0.242,0.121-0.555,0.188-0.88,0.188c-0.285,0-0.708-0.052-1.105-0.297C7.762,18.045,7.5,17.57,7.5,17v-3H3
		c-0.827,0-1.5-0.673-1.5-1.5v-11C1.5,0.673,2.173,0,3,0h18c0.827,0,1.5,0.673,1.5,1.5v11c0,0.67-0.441,1.247-1.071,1.434
		L20.5,19.045V23.5C20.5,23.776,20.276,24,20,24z M8.5,17c0,0.222,0.084,0.377,0.263,0.488c0.155,0.095,0.362,0.148,0.584,0.148
		c0.153,0,0.298-0.026,0.403-0.071c0.623-0.432,1.107-1.03,1.401-1.73l0.349-1.396V14h-3V17z M21,13c0.276,0,0.5-0.224,0.5-0.5v-11
		C21.5,1.224,21.276,1,21,1H3C2.724,1,2.5,1.224,2.5,1.5v11C2.5,12.776,2.724,13,3,13h8.5v-2.958C11.5,7.296,13.248,7,14,7
		s2.5,0.296,2.5,3.042V13H21z"/>
	<path d="M12,4c-0.276,0-0.5-0.224-0.5-0.5S11.724,3,12,3h6c0.276,0,0.5,0.224,0.5,0.5S18.276,4,18,4H12z"/>
	<path d="M12,6c-0.276,0-0.5-0.224-0.5-0.5S11.724,5,12,5h6c0.276,0,0.5,0.224,0.5,0.5S18.276,6,18,6H12z"/>
	<path d="M7.5,9c-1.654,0-3-1.346-3-3s1.346-3,3-3s3,1.346,3,3S9.154,9,7.5,9z M7.5,4c-1.103,0-2,0.897-2,2s0.897,2,2,2s2-0.897,2-2
		S8.603,4,7.5,4z"/>
</g>
</svg>
