<?xml version="1.0" encoding="utf-8"?>
<!-- Generator: Adobe Illustrator 22.1.0, SVG Export Plug-In . SVG Version: 6.00 Build 0)  -->
<svg version="1.1" id="Layer_1" xmlns="http://www.w3.org/2000/svg" xmlns:xlink="http://www.w3.org/1999/xlink" x="0px" y="0px"
	 viewBox="0 0 24 24" style="enable-background:new 0 0 24 24;" xml:space="preserve">
<g>
	<title>laptop-announcement</title>
	<path d="M10,22c-0.276,0-0.5-0.224-0.5-0.5S9.724,21,10,21h4c0.276,0,0.5,0.224,0.5,0.5S14.276,22,14,22H10z"/>
	<path d="M1.5,5c-0.682,0-1-0.318-1-1V1c0-0.682,0.318-1,1-1h5c0.682,0,1,0.318,1,1v3c0,0.682-0.318,1-1,1H1.5z M6.5,4V2.29
		L4.43,3.272C4.298,3.335,4.15,3.369,4.002,3.369c-0.15,0-0.295-0.033-0.431-0.099L1.5,2.29V4H6.5z M4.002,2.368L6.5,1.184V1h-5
		v0.184L4.002,2.368z"/>
	<path d="M9.5,5c-0.682,0-1-0.318-1-1V1c0-0.682,0.318-1,1-1h5c0.682,0,1,0.318,1,1v3c0,0.682-0.318,1-1,1H9.5z M14.5,4V2.29
		l-2.07,0.981c-0.132,0.063-0.281,0.097-0.428,0.097c-0.15,0-0.295-0.033-0.431-0.099L9.5,2.29V4H14.5z M12.002,2.368L14.5,1.184V1
		h-5v0.184L12.002,2.368z"/>
	<path d="M17.5,5c-0.682,0-1-0.318-1-1V1c0-0.682,0.318-1,1-1h5c0.682,0,1,0.318,1,1v3c0,0.682-0.318,1-1,1H17.5z M22.5,4V2.291
		l-2.07,0.981c-0.135,0.064-0.279,0.097-0.428,0.097c-0.15,0-0.295-0.033-0.431-0.099L17.5,2.29V4H22.5z M20.002,2.368L22.5,1.184V1
		h-5v0.184L20.002,2.368z"/>
	<path d="M12,8.5c-0.276,0-0.5-0.224-0.5-0.5V6.5C11.5,6.224,11.724,6,12,6c0.276,0,0.5,0.224,0.5,0.5V8
		C12.5,8.276,12.276,8.5,12,8.5z"/>
	<path d="M6,8.5c-0.134,0-0.259-0.052-0.354-0.146l-1.5-1.5C4.052,6.759,4,6.634,4,6.5s0.052-0.259,0.146-0.354S4.366,6,4.5,6
		s0.259,0.052,0.354,0.146l1.5,1.5C6.448,7.741,6.5,7.866,6.5,8S6.448,8.259,6.354,8.354S6.134,8.5,6,8.5z"/>
	<path d="M18,8.5c-0.134,0-0.259-0.052-0.354-0.146S17.5,8.134,17.5,8s0.052-0.259,0.146-0.354l1.5-1.5
		C19.241,6.052,19.366,6,19.5,6s0.259,0.052,0.354,0.146S20,6.366,20,6.5s-0.052,0.259-0.146,0.354l-1.5,1.5
		C18.259,8.448,18.134,8.5,18,8.5z"/>
	<path d="M3.414,24c-0.401,0-0.777-0.156-1.061-0.439C2.07,23.277,1.914,22.9,1.914,22.5c0-0.401,0.156-0.777,0.439-1.06L4.5,19.293
		V11.5C4.5,10.673,5.173,10,6,10h12c0.827,0,1.5,0.673,1.5,1.5v7.793l2.146,2.146c0.585,0.585,0.584,1.537,0,2.121
		C21.363,23.844,20.986,24,20.586,24H3.414z M3.061,22.146c-0.094,0.094-0.146,0.22-0.146,0.354c0,0.133,0.052,0.259,0.146,0.354
		C3.155,22.948,3.281,23,3.414,23h17.172c0.134,0,0.259-0.052,0.353-0.146c0.094-0.094,0.146-0.22,0.146-0.354
		s-0.052-0.259-0.146-0.354L18.793,20H5.207L3.061,22.146z M18.5,19v-7.5c0-0.276-0.224-0.5-0.5-0.5H6c-0.276,0-0.5,0.224-0.5,0.5
		V19H18.5z"/>
</g>
</svg>
