<?xml version="1.0" encoding="utf-8"?>
<!-- Generator: Adobe Illustrator 22.1.0, SVG Export Plug-In . SVG Version: 6.00 Build 0)  -->
<svg version="1.1" id="Layer_1" xmlns="http://www.w3.org/2000/svg" xmlns:xlink="http://www.w3.org/1999/xlink" x="0px" y="0px"
	 viewBox="0 0 24 24" style="enable-background:new 0 0 24 24;" xml:space="preserve">
<g>
	<title>promo-mail</title>
	<path d="M1.5,18C0.673,18,0,17.327,0,16.5v-15C0,0.673,0.673,0,1.5,0h10C12.327,0,13,0.673,13,1.5v7C13,8.776,12.776,9,12.5,9
		C12.224,9,12,8.776,12,8.5v-7C12,1.224,11.776,1,11.5,1h-10C1.224,1,1,1.224,1,1.5v15C1,16.776,1.224,17,1.5,17H2
		c0.276,0,0.5,0.224,0.5,0.5S2.276,18,2,18H1.5z"/>
	<path d="M2.5,16C2.224,16,2,15.776,2,15.5v-13C2,2.224,2.224,2,2.5,2S3,2.224,3,2.5v13C3,15.776,2.776,16,2.5,16z"/>
	<path d="M7,7C5.897,7,5,6.103,5,5s0.897-2,2-2s2,0.897,2,2S8.103,7,7,7z M7,4C6.449,4,6,4.449,6,5s0.449,1,1,1s1-0.449,1-1
		S7.551,4,7,4z"/>
	<path d="M16.5,16c-1.103,0-2-0.897-2-2s0.897-2,2-2s2,0.897,2,2S17.603,16,16.5,16z M16.5,13c-0.552,0-1,0.448-1,1s0.448,1,1,1
		s1-0.448,1-1S17.052,13,16.5,13z"/>
	<path d="M16.031,20c-0.276,0-0.5-0.224-0.5-0.5s0.224-0.5,0.5-0.5H22.5c0.276,0,0.5-0.224,0.5-0.5v-7c0-0.276-0.224-0.5-0.5-0.5
		h-12c-0.276,0-0.5,0.224-0.5,0.5v2.969c0,0.276-0.224,0.5-0.5,0.5S9,14.745,9,14.469V11.5c0-0.827,0.673-1.5,1.5-1.5h12
		c0.827,0,1.5,0.673,1.5,1.5v7c0,0.827-0.673,1.5-1.5,1.5H16.031z"/>
	<path d="M5,24c-0.827,0-1.5-0.673-1.5-1.5v-5C3.5,16.673,4.173,16,5,16h8c0.827,0,1.5,0.673,1.5,1.5v5c0,0.827-0.673,1.5-1.5,1.5H5
		z M4.5,22.5C4.5,22.776,4.724,23,5,23h8c0.276,0,0.5-0.224,0.5-0.5v-3.261l-4.314,1.726C9.126,20.988,9.064,21,9,21
		s-0.126-0.012-0.186-0.036L4.5,19.239V22.5z M9,19.961l4.5-1.8V17.5c0-0.276-0.224-0.5-0.5-0.5H5c-0.276,0-0.5,0.224-0.5,0.5v0.661
		L9,19.961z"/>
</g>
</svg>
