<?xml version="1.0" encoding="utf-8"?>
<!-- Generator: Adobe Illustrator 22.1.0, SVG Export Plug-In . SVG Version: 6.00 Build 0)  -->
<svg version="1.1" id="Layer_1" xmlns="http://www.w3.org/2000/svg" xmlns:xlink="http://www.w3.org/1999/xlink" x="0px" y="0px"
	 viewBox="0 0 24 24" style="enable-background:new 0 0 24 24;" xml:space="preserve">
<g>
	<title>people-man-12</title>
	<path d="M12,14.78c-0.648,0-1.287-0.212-1.8-0.597c-0.107-0.08-0.176-0.197-0.195-0.329c-0.019-0.132,0.015-0.264,0.095-0.371
		c0.094-0.125,0.243-0.2,0.4-0.2c0.109,0,0.212,0.034,0.3,0.099c0.342,0.257,0.768,0.398,1.201,0.398c0.432,0,0.859-0.141,1.2-0.397
		c0.087-0.065,0.19-0.1,0.3-0.1c0.157,0,0.306,0.075,0.4,0.2c0.08,0.106,0.114,0.238,0.095,0.37c-0.019,0.132-0.088,0.25-0.195,0.33
		C13.287,14.568,12.648,14.78,12,14.78z"/>
	<circle cx="14" cy="11.284" r="0.75"/>
	<circle cx="10" cy="11.284" r="0.75"/>
	<path d="M12,17.784c-3.584,0-6.5-2.916-6.5-6.5v-0.774L1.77,9.509C1.513,9.44,1.309,9.236,1.24,8.978
		C1.133,8.579,1.371,8.167,1.771,8.06l4.173-1.118C6.065,6.63,6.209,6.33,6.373,6.046L4.141,2.459c-0.151-0.24-0.151-0.552,0-0.794
		c0.137-0.221,0.376-0.353,0.637-0.353c0.14,0,0.277,0.039,0.396,0.113l3.59,2.233c0.628-0.364,1.305-0.617,2.016-0.753l0.496-1.848
		c0.067-0.26,0.273-0.465,0.536-0.533C11.874,0.508,11.938,0.5,12.001,0.5c0.132,0,0.263,0.036,0.378,0.103
		c0.173,0.101,0.296,0.264,0.346,0.458l0.495,1.843c0.711,0.136,1.388,0.389,2.016,0.753l3.593-2.23
		c0.118-0.073,0.255-0.113,0.396-0.113c0.142,0,0.28,0.04,0.399,0.114c0.35,0.22,0.456,0.683,0.237,1.034L17.63,6.05
		c0.162,0.282,0.305,0.581,0.426,0.891l4.174,1.116c0.258,0.069,0.461,0.272,0.53,0.53c0.107,0.4-0.131,0.812-0.53,0.919
		L18.5,10.507v0.776C18.5,14.868,15.584,17.784,12,17.784z M10.486,4.001C9.322,4.336,8.297,5.048,7.571,6.037L7.543,6.075
		C6.86,7.021,6.5,8.13,6.5,9.284v2c0,3.033,2.467,5.5,5.5,5.5s5.5-2.467,5.5-5.5v-2c0-1.161-0.364-2.276-1.052-3.223
		c-0.735-1.006-1.764-1.723-2.934-2.059l0.335,1.249c0.125,0.381,0.124,0.814-0.007,1.207c-0.164,0.492-0.51,0.891-0.974,1.123
		c-0.269,0.135-0.569,0.206-0.867,0.206c-0.208,0-0.416-0.034-0.616-0.101c-0.492-0.164-0.891-0.51-1.123-0.974
		s-0.269-0.99-0.105-1.483L10.486,4.001z M5.5,9.474v-0.19c0-0.404,0.04-0.813,0.12-1.22L2.93,8.784L5.5,9.474z M18.38,8.063
		c0.08,0.407,0.12,0.816,0.12,1.221v0.188l2.569-0.689L18.38,8.063z M11.115,5.516c-0.088,0.266-0.072,0.52,0.043,0.748
		c0.112,0.225,0.306,0.393,0.545,0.472C11.8,6.769,11.9,6.785,12.001,6.785c0.146,0,0.287-0.034,0.421-0.1
		c0.225-0.112,0.392-0.306,0.472-0.544c0.064-0.192,0.064-0.404,0-0.596c-0.002-0.005-0.008-0.025-0.009-0.031L12,2.217
		L11.115,5.516z M16.141,4.273c0.318,0.263,0.61,0.555,0.873,0.873l1.432-2.304L16.141,4.273z M6.989,5.144
		C7.251,4.826,7.542,4.535,7.86,4.273L5.557,2.841L6.989,5.144z"/>
	<path d="M23,23.784c-0.276,0-0.5-0.224-0.5-0.5v-0.106c0.003-0.461-0.212-0.903-0.575-1.183c-0.339-0.26-0.722-0.51-1.137-0.745
		c-0.011-0.006-0.022-0.012-0.028-0.016c-0.699-0.392-1.483-0.733-2.33-1.013c-0.032-0.007-0.06-0.017-0.087-0.029
		c-0.264-0.086-0.537-0.166-0.816-0.24l-4.944,3.532C12.411,23.606,12.21,23.67,12,23.67c-0.21,0-0.411-0.064-0.582-0.187
		l-4.943-3.531c-0.282,0.075-0.559,0.157-0.828,0.244c-0.018,0.007-0.035,0.013-0.054,0.018c-0.861,0.283-1.66,0.631-2.371,1.031
		c-0.001,0.001-0.004,0.002-0.004,0.002c-0.418,0.236-0.804,0.488-1.146,0.749c-0.361,0.279-0.576,0.719-0.573,1.177v0.109
		c0,0.276-0.224,0.5-0.5,0.5s-0.5-0.224-0.5-0.5v-0.106c-0.005-0.766,0.356-1.505,0.965-1.974c0.314-0.24,0.661-0.473,1.035-0.694
		v-2.622c0-0.197,0.08-0.391,0.22-0.531c0.142-0.141,0.33-0.219,0.53-0.219c0.201,0,0.389,0.078,0.531,0.22l1.81,1.81
		c1.903-0.586,4.058-0.884,6.41-0.884c2.353,0,4.509,0.297,6.411,0.882l1.808-1.808c0.141-0.142,0.33-0.22,0.53-0.22
		c0.2,0,0.388,0.078,0.53,0.219c0.14,0.14,0.22,0.334,0.22,0.531v2.62c0.373,0.221,0.72,0.454,1.034,0.694
		c0.61,0.471,0.971,1.21,0.966,1.979v0.103C23.5,23.559,23.276,23.784,23,23.784z M12,22.67l4.221-3.014
		c-1.31-0.247-2.727-0.372-4.22-0.372c-1.493,0-2.909,0.125-4.219,0.373L12,22.67z M3.5,19.977c0.333-0.159,0.68-0.308,1.04-0.446
		l-1.04-1.04L3.5,19.977z M19.462,19.529c0.359,0.138,0.707,0.287,1.038,0.446v-1.483L19.462,19.529z"/>
</g>
</svg>
