<?xml version="1.0" encoding="utf-8"?>
<!-- Generator: Adobe Illustrator 22.1.0, SVG Export Plug-In . SVG Version: 6.00 Build 0)  -->
<svg version="1.1" id="Layer_1" xmlns="http://www.w3.org/2000/svg" xmlns:xlink="http://www.w3.org/1999/xlink" x="0px" y="0px"
	 viewBox="0 0 24 24" style="enable-background:new 0 0 24 24;" xml:space="preserve">
<g>
	<title>people-man-cap-3</title>
	<path d="M12,11.996c-0.648,0-1.287-0.212-1.8-0.597c-0.107-0.08-0.176-0.197-0.195-0.329C9.986,10.938,10.02,10.807,10.1,10.7
		c0.094-0.125,0.244-0.2,0.4-0.2c0.109,0,0.213,0.035,0.3,0.1c0.341,0.256,0.768,0.397,1.2,0.397c0.432,0,0.859-0.141,1.2-0.397
		c0.086-0.065,0.19-0.1,0.3-0.1c0.156,0,0.306,0.075,0.4,0.2c0.08,0.107,0.114,0.238,0.095,0.371
		c-0.019,0.132-0.088,0.249-0.195,0.329C13.287,11.785,12.648,11.996,12,11.996z"/>
	<path d="M23,24c-0.276,0-0.5-0.224-0.5-0.5v-3.106c0.003-0.461-0.212-0.903-0.575-1.183c-1-0.763-2.785-1.778-5.645-2.327
		c-0.496,1.544-1.768,2.693-3.368,3.024c-0.301,0.062-0.608,0.094-0.913,0.094c-1.955,0-3.682-1.271-4.277-3.117
		c-2.855,0.55-4.644,1.564-5.649,2.328c-0.361,0.278-0.576,0.719-0.573,1.178V23.5C1.5,23.776,1.276,24,1,24s-0.5-0.224-0.5-0.5
		v-3.106c-0.005-0.766,0.355-1.505,0.965-1.975c1.151-0.875,3.214-2.035,6.512-2.595c0.013-0.003,0.026-0.005,0.039-0.006
		C9.279,15.605,10.613,15.5,12,15.5c5.839,0,9.105,1.828,10.533,2.917c0.611,0.471,0.972,1.211,0.967,1.98V23.5
		C23.5,23.776,23.276,24,23,24z M8.723,16.719c0.504,1.357,1.813,2.282,3.277,2.282c0.237,0,0.475-0.024,0.709-0.073
		c1.192-0.247,2.155-1.082,2.572-2.209C14.242,16.574,13.139,16.5,12,16.5C10.864,16.5,9.763,16.574,8.723,16.719z"/>
	<circle cx="14" cy="8.5" r="0.75"/>
	<circle cx="10" cy="8.5" r="0.75"/>
	<path d="M12,15c-3.584,0-6.5-2.916-6.5-6.5v-2C5.5,2.916,8.416,0,12,0c3.422,0,6.223,2.616,6.48,6H22c0.276,0,0.5,0.224,0.5,0.5
		S22.276,7,22,7h-3.5v1.5C18.5,12.084,15.584,15,12,15z M6.5,8.5c0,3.033,2.467,5.5,5.5,5.5s5.5-2.467,5.5-5.5V7h-11V8.5z M17.477,6
		C17.223,3.176,14.866,1,12,1C9.922,1,8.039,2.166,7.102,4H8.5C8.776,4,9,4.224,9,4.5S8.776,5,8.5,5H6.709
		C6.616,5.326,6.554,5.661,6.524,6H17.477z"/>
</g>
</svg>
