<?xml version="1.0" encoding="utf-8"?>
<!-- Generator: Adobe Illustrator 22.1.0, SVG Export Plug-In . SVG Version: 6.00 Build 0)  -->
<svg version="1.1" id="Layer_1" xmlns="http://www.w3.org/2000/svg" xmlns:xlink="http://www.w3.org/1999/xlink" x="0px" y="0px"
	 viewBox="0 0 24 24" style="enable-background:new 0 0 24 24;" xml:space="preserve">
<g>
	<title>people-man-glasses-2</title>
	<path d="M23,24c-0.276,0-0.5-0.224-0.5-0.5v-3.106c0.003-0.461-0.212-0.903-0.575-1.183c-0.48-0.366-1.278-0.889-2.425-1.372V23.5
		c0,0.276-0.224,0.5-0.5,0.5s-0.5-0.224-0.5-0.5v-6.038c-0.511-0.172-1.051-0.323-1.609-0.45c-0.475,2.292-2.53,3.989-4.888,3.989
		c-0.151,0-0.307-0.007-0.462-0.021c-2.203-0.203-3.991-1.818-4.433-3.966c-0.557,0.127-1.097,0.278-1.608,0.45V23.5
		C5.5,23.776,5.276,24,5,24s-0.5-0.224-0.5-0.5v-5.658c-1.146,0.483-1.945,1.004-2.427,1.371c-0.361,0.278-0.576,0.719-0.573,1.178
		V23.5C1.5,23.776,1.276,24,1,24s-0.5-0.224-0.5-0.5v-3.106c-0.005-0.766,0.355-1.505,0.965-1.975
		c0.638-0.485,1.735-1.185,3.348-1.772c0.824-0.299,1.698-0.54,2.614-0.722c0.014-0.004,0.029-0.007,0.042-0.009
		C8.877,15.64,10.401,15.5,12,15.5c5.839,0,9.105,1.828,10.533,2.917c0.611,0.471,0.972,1.211,0.967,1.98V23.5
		C23.5,23.776,23.276,24,23,24z M8.088,16.818c0.356,1.717,1.781,3.004,3.545,3.166c0.123,0.011,0.248,0.017,0.372,0.017
		c1.885,0,3.524-1.353,3.906-3.185C14.69,16.606,13.376,16.5,12,16.5C10.625,16.5,9.31,16.607,8.088,16.818z"/>
	<path d="M11,13c-0.276,0-0.5-0.224-0.5-0.5c0-0.276,0.224-0.5,0.5-0.5h2c0.276,0,0.5,0.224,0.5,0.5c0,0.276-0.224,0.5-0.5,0.5H11z"
		/>
	<path d="M9.5,4.55c-0.131,0-0.255-0.051-0.35-0.142C9.055,4.314,9.002,4.189,9,4.056C8.999,3.922,9.049,3.796,9.143,3.7
		c0.746-0.763,1.786-1.2,2.853-1.2C12.276,2.505,12.5,2.73,12.5,3.001C12.5,3.276,12.275,3.5,12,3.5c-0.001,0-0.004,0-0.004,0
		c-0.8,0-1.579,0.328-2.138,0.9C9.763,4.497,9.636,4.55,9.5,4.55z"/>
	<path d="M12.012,15.003c-2.538,0-4.849-1.48-5.909-3.777c-0.148-0.098-0.273-0.198-0.38-0.305L5.242,10.44
		C4.775,9.978,4.504,9.335,4.5,8.675V7.5c0-0.646,0.417-1.214,1.015-1.419C5.732,2.656,8.546,0,12,0s6.268,2.656,6.485,6.081
		C19.083,6.286,19.5,6.854,19.5,7.5v1.172c0,0.668-0.26,1.295-0.732,1.768l-0.481,0.481c-0.115,0.115-0.246,0.221-0.39,0.316
		c-0.672,1.449-1.842,2.594-3.304,3.228C13.771,14.822,12.903,15.003,12.012,15.003z M7.494,11.652
		c1.021,1.461,2.709,2.35,4.518,2.35c0.753,0,1.488-0.153,2.183-0.455c0.942-0.409,1.734-1.059,2.314-1.894
		c-0.316-0.001-0.625-0.062-0.919-0.179l-3.4-1.361c-0.06-0.024-0.122-0.036-0.185-0.036s-0.125,0.012-0.184,0.036L8.42,11.474
		c-0.295,0.118-0.606,0.178-0.924,0.178C7.495,11.652,7.495,11.652,7.494,11.652z M12.005,9.077c0.192,0,0.379,0.037,0.558,0.109
		l3.399,1.36c0.178,0.071,0.366,0.107,0.557,0.107c0.4,0,0.777-0.156,1.061-0.44l0.481-0.481c0.283-0.284,0.439-0.66,0.439-1.061
		V7.5C18.5,7.224,18.276,7,18,7H6C5.724,7,5.5,7.224,5.5,7.5v1.172c0.002,0.394,0.165,0.78,0.447,1.058l0.484,0.483
		c0.284,0.284,0.66,0.44,1.06,0.44c0.191,0,0.379-0.036,0.558-0.108l3.4-1.361C11.626,9.113,11.813,9.077,12.005,9.077z M17.477,6
		C17.223,3.176,14.866,1,12,1C9.134,1,6.777,3.176,6.523,6H17.477z"/>
</g>
</svg>
