<?xml version="1.0" encoding="utf-8"?>
<!-- Generator: Adobe Illustrator 22.1.0, SVG Export Plug-In . SVG Version: 6.00 Build 0)  -->
<svg version="1.1" id="Layer_1" xmlns="http://www.w3.org/2000/svg" xmlns:xlink="http://www.w3.org/1999/xlink" x="0px" y="0px"
	 viewBox="0 0 24 24" style="enable-background:new 0 0 24 24;" xml:space="preserve">
<g>
	<title>people-man-moustache-1</title>
	<path d="M23,24c-0.276,0-0.5-0.224-0.5-0.5v-2.106c0.003-0.461-0.212-0.903-0.575-1.183c-0.822-0.627-2.255-1.48-4.48-2.063
		l0.347,2.639c0.031,0.273-0.044,0.536-0.21,0.745c-0.167,0.209-0.405,0.34-0.67,0.37c-0.037,0.004-0.075,0.006-0.112,0.006
		c-0.211,0-0.414-0.066-0.586-0.19c-1.097-0.763-2.379-1.245-3.713-1.398v3.18c0,0.276-0.224,0.5-0.5,0.5
		c-0.276,0-0.5-0.224-0.5-0.5v-3.181c-1.345,0.157-2.626,0.64-3.725,1.404c-0.163,0.118-0.37,0.184-0.578,0.184
		c-0.037,0-0.075-0.002-0.112-0.006c-0.265-0.03-0.503-0.161-0.67-0.37c-0.167-0.209-0.242-0.47-0.212-0.736l0.351-2.646
		c-2.221,0.583-3.657,1.435-4.482,2.063c-0.361,0.278-0.576,0.719-0.573,1.178V23.5C1.5,23.776,1.276,24,1,24s-0.5-0.224-0.5-0.5
		v-2.106c-0.005-0.766,0.355-1.505,0.965-1.975c1.001-0.761,2.776-1.796,5.558-2.409c0.633-0.139,1.282-0.25,1.938-0.33
		c0.012-0.002,0.024-0.004,0.036-0.004C9.954,16.559,10.964,16.5,12,16.5c5.839,0,9.105,1.828,10.533,2.917
		c0.611,0.471,0.972,1.211,0.967,1.98V23.5C23.5,23.776,23.276,24,23,24z M7.196,20.918c0.858-0.604,1.793-1.045,2.788-1.32
		c-0.633-0.455-1.105-1.116-1.325-1.87C8.297,17.78,7.94,17.841,7.595,17.91L7.196,20.918z M14.015,19.599
		c0.988,0.275,1.938,0.72,2.777,1.303l-0.388-2.994c-0.343-0.068-0.699-0.129-1.062-0.181
		C15.122,18.482,14.649,19.144,14.015,19.599z M9.665,17.609c0.354,0.964,1.295,1.639,2.336,1.641
		c1.041-0.002,1.981-0.677,2.335-1.642C13.579,17.536,12.795,17.5,12,17.5C11.205,17.5,10.421,17.537,9.665,17.609z"/>
	<circle cx="14" cy="8.5" r="0.75"/>
	<circle cx="10" cy="8.5" r="0.75"/>
	<path d="M13.994,16c-0.762-0.018-1.473-0.334-1.994-0.876c-0.52,0.541-1.229,0.856-1.988,0.875c-3.934,0-5.317-1.481-5.792-2.363
		c-0.07-0.138-0.098-0.285-0.082-0.429c0.021-0.199,0.119-0.378,0.275-0.504c0.135-0.108,0.297-0.166,0.468-0.166
		c0.028,0,0.056,0.002,0.084,0.005c0.162,0.011,0.329,0.017,0.486,0.017c0.52,0,0.958-0.064,1.329-0.195
		C5.95,11.245,5.498,9.886,5.5,8.499V6.5c0-1.127,0.296-2.24,0.856-3.218c0,0,0.009-0.015,0.012-0.021
		C7.137,1.926,8.36,0.902,9.807,0.382C9.812,0.38,9.83,0.374,9.834,0.372C10.529,0.126,11.259,0,12,0c3.584,0,6.5,2.916,6.5,6.5v2
		c0.002,1.386-0.451,2.746-1.28,3.863c0.372,0.131,0.812,0.196,1.335,0.196c0.158,0,0.327-0.006,0.501-0.018
		c0.015-0.001,0.038-0.003,0.062-0.003c0.115,0,0.231,0.028,0.335,0.08c0.37,0.187,0.52,0.639,0.334,1.008
		C19.303,14.516,17.913,16,14,16C13.998,16,13.996,16,13.994,16z M12,13.79c0.181,0,0.349,0.099,0.437,0.257
		c0.318,0.572,0.921,0.937,1.575,0.953c2.83,0,4.079-0.835,4.614-1.449c-0.022,0-0.045,0-0.067,0c-0.984,0-1.772-0.199-2.407-0.61
		c-0.018-0.009-0.029-0.017-0.042-0.028c-0.466-0.312-0.785-0.694-1.042-1.002C14.61,11.363,14.307,11,13.5,11c0,0-0.003,0-0.003,0
		c-0.429,0-0.838,0.185-1.121,0.508c-0.095,0.108-0.232,0.17-0.376,0.17c-0.144,0-0.281-0.062-0.376-0.17
		C11.341,11.185,10.933,11,10.503,11c-0.81,0-1.113,0.362-1.571,0.911c-0.261,0.312-0.585,0.7-1.058,1.013
		c-0.005,0.004-0.01,0.007-0.016,0.01c-0.64,0.418-1.434,0.621-2.429,0.621c0,0-0.03,0-0.045,0c0.508,0.578,1.748,1.443,4.615,1.443
		c0.644-0.015,1.245-0.38,1.563-0.951C11.651,13.888,11.818,13.79,12,13.79z M13.5,10c1.274,0,1.838,0.675,2.335,1.27
		c0.162,0.194,0.328,0.393,0.525,0.573c0.739-0.959,1.142-2.137,1.14-3.342V7.003l-0.198,0.001
		c-0.239,0.002-0.482,0.004-0.728,0.004c-3.185,0-6.601-0.427-7.031-5.429C8.857,1.924,8.251,2.407,7.761,3H8.5
		C8.776,3,9,3.224,9,3.5S8.776,4,8.5,4H7.102C6.939,4.319,6.807,4.654,6.709,5H9c0.276,0,0.5,0.224,0.5,0.5S9.276,6,9,6H6.524
		C6.508,6.17,6.5,6.338,6.5,6.5v2c-0.002,1.207,0.401,2.384,1.14,3.343c0.197-0.18,0.363-0.379,0.525-0.573
		C8.662,10.675,9.226,10,10.5,10c0.546,0,1.07,0.176,1.5,0.5c0.43-0.323,0.954-0.5,1.497-0.5H13.5z M10.518,1.203
		c0.256,4.44,2.879,4.805,6.019,4.805c0.251,0,0.504-0.002,0.756-0.005l0.184-0.001C17.225,3.177,14.867,1,12,1
		C11.497,1,11,1.068,10.518,1.203z"/>
</g>
</svg>
