<?xml version="1.0" encoding="utf-8"?>
<!-- Generator: Adobe Illustrator 22.1.0, SVG Export Plug-In . SVG Version: 6.00 Build 0)  -->
<svg version="1.1" id="Layer_1" xmlns="http://www.w3.org/2000/svg" xmlns:xlink="http://www.w3.org/1999/xlink" x="0px" y="0px"
	 viewBox="0 0 24 24" style="enable-background:new 0 0 24 24;" xml:space="preserve">
<g>
	<title>people-man-2</title>
	<path d="M12,12.92c-0.648,0-1.287-0.212-1.8-0.597c-0.107-0.08-0.176-0.197-0.195-0.329c-0.019-0.132,0.015-0.264,0.095-0.371
		c0.094-0.125,0.244-0.2,0.4-0.2c0.109,0,0.213,0.035,0.3,0.1c0.341,0.256,0.767,0.397,1.2,0.397c0.432,0,0.859-0.141,1.2-0.397
		c0.086-0.065,0.19-0.1,0.299-0.1c0.157,0,0.306,0.075,0.4,0.2c0.08,0.107,0.114,0.239,0.095,0.371
		c-0.019,0.132-0.088,0.249-0.195,0.329C13.287,12.708,12.648,12.92,12,12.92z"/>
	<path d="M23,23.923c-0.276,0-0.5-0.224-0.5-0.5v-2.106c0.003-0.461-0.212-0.903-0.575-1.183c-0.998-0.764-2.78-1.779-5.644-2.328
		c-0.496,1.544-1.768,2.694-3.369,3.025c-0.301,0.062-0.608,0.094-0.913,0.094c-1.955,0-3.682-1.271-4.277-3.117
		c-2.855,0.55-4.644,1.564-5.649,2.328c-0.361,0.278-0.575,0.719-0.573,1.178v2.109c0,0.276-0.224,0.5-0.5,0.5s-0.5-0.224-0.5-0.5
		v-2.106c-0.005-0.767,0.356-1.506,0.965-1.975c1.152-0.875,3.214-2.035,6.512-2.595c0.013-0.003,0.026-0.005,0.039-0.006
		c1.264-0.212,2.598-0.318,3.984-0.318c5.851,0,9.112,1.828,10.534,2.918c0.61,0.47,0.971,1.21,0.966,1.979v2.103
		C23.5,23.699,23.276,23.923,23,23.923z M8.723,17.643C9.227,19,10.536,19.925,12,19.925c0.237,0,0.475-0.024,0.709-0.073
		c1.193-0.247,2.156-1.082,2.572-2.21c-1.04-0.145-2.142-0.218-3.281-0.218C10.862,17.423,9.761,17.497,8.723,17.643z"/>
	<circle cx="14" cy="9.423" r="0.75"/>
	<circle cx="10" cy="9.423" r="0.75"/>
	<path d="M12,15.923c-3.584,0-6.5-2.916-6.5-6.5v-2C5.498,6.06,5.941,4.706,6.75,3.598C6.67,3.181,6.699,2.749,6.835,2.342
		l0.284-0.856C7.161,1.359,7.219,1.24,7.292,1.13c0.22-0.329,0.555-0.553,0.943-0.63C8.332,0.481,8.43,0.472,8.527,0.472
		c0.292,0,0.575,0.086,0.82,0.25c0.079,0.053,0.171,0.081,0.266,0.081c0.062,0,0.122-0.012,0.18-0.035l1.656-0.662
		c0.177-0.07,0.362-0.106,0.551-0.106c0.188,0,0.373,0.035,0.549,0.105l1.657,0.667c0.057,0.023,0.118,0.035,0.179,0.035
		c0.095,0,0.187-0.028,0.266-0.081c0.11-0.073,0.229-0.132,0.354-0.173c0.152-0.05,0.309-0.076,0.467-0.076
		c0.64,0,1.205,0.407,1.407,1.013l0.284,0.852c0.134,0.406,0.162,0.837,0.083,1.253c0.81,1.109,1.254,2.464,1.252,3.829v1.999
		C18.5,13.008,15.584,15.923,12,15.923z M7.234,4.681C6.751,5.516,6.499,6.456,6.5,7.423v2.001c0,3.033,2.467,5.5,5.5,5.5
		s5.5-2.467,5.5-5.5v-2c0.001-0.953-0.258-1.915-0.737-2.747L16.01,5.81c-0.462,0.7-1.24,1.119-2.079,1.121H10.07
		c-0.838,0-1.615-0.416-2.08-1.112L7.234,4.681z M8.526,1.472c-0.032,0-0.064,0.003-0.095,0.009
		C8.304,1.507,8.195,1.579,8.124,1.686C8.1,1.722,8.081,1.761,8.067,1.802L7.784,2.657C7.636,3.1,7.7,3.576,7.959,3.964l0.864,1.301
		c0.278,0.417,0.745,0.667,1.247,0.667h3.86c0.503-0.001,0.969-0.253,1.247-0.673l0.864-1.301c0.257-0.386,0.321-0.86,0.176-1.301
		l-0.283-0.851c-0.066-0.197-0.25-0.329-0.458-0.329c-0.051,0-0.102,0.008-0.151,0.025c-0.041,0.014-0.079,0.032-0.115,0.057
		c-0.244,0.163-0.528,0.249-0.822,0.249c-0.19,0-0.376-0.036-0.552-0.107l-1.655-0.666C12.122,1.011,12.062,0.999,12,0.999
		c-0.062,0-0.123,0.012-0.181,0.035l-1.654,0.661C9.99,1.766,9.804,1.802,9.614,1.802c-0.293,0-0.578-0.086-0.822-0.249
		C8.713,1.5,8.621,1.472,8.526,1.472z"/>
</g>
</svg>
