<?xml version="1.0" encoding="utf-8"?>
<!-- Generator: Adobe Illustrator 22.1.0, SVG Export Plug-In . SVG Version: 6.00 Build 0)  -->
<svg version="1.1" id="Layer_1" xmlns="http://www.w3.org/2000/svg" xmlns:xlink="http://www.w3.org/1999/xlink" x="0px" y="0px"
	 viewBox="0 0 24 24" style="enable-background:new 0 0 24 24;" xml:space="preserve">
<g>
	<title>people-man-9</title>
	<path d="M12,12.246c-0.648,0-1.287-0.212-1.8-0.597c-0.107-0.08-0.176-0.197-0.195-0.329c-0.019-0.132,0.015-0.264,0.095-0.371
		c0.094-0.125,0.244-0.2,0.4-0.2c0.109,0,0.213,0.035,0.3,0.1c0.341,0.256,0.767,0.397,1.2,0.397c0.432,0,0.859-0.141,1.2-0.397
		c0.086-0.065,0.19-0.1,0.3-0.1c0.157,0,0.306,0.075,0.4,0.2c0.08,0.107,0.114,0.238,0.095,0.371
		c-0.019,0.132-0.088,0.249-0.195,0.329C13.287,12.035,12.648,12.246,12,12.246z"/>
	<circle cx="14" cy="8.75" r="0.75"/>
	<circle cx="10" cy="8.75" r="0.75"/>
	<path d="M12,15.25c-3.584,0-6.5-2.916-6.5-6.5v-2c0-3.584,2.916-6.5,6.5-6.5c3.584,0,6.5,2.916,6.5,6.5v2
		C18.5,12.334,15.584,15.25,12,15.25z M6.5,8.75c0,3.033,2.467,5.5,5.5,5.5s5.5-2.467,5.5-5.5v-1.5H16
		c-0.131,0-0.276,0.003-0.433,0.007c-0.205,0.005-0.421,0.01-0.652,0.01c-1.479,0-3.357-0.207-4.918-1.778
		C9.052,6.421,7.826,7.014,6.5,7.182V8.75z M10.001,4.25c0.149,0,0.289,0.066,0.384,0.18c1.352,1.627,3.144,1.836,4.553,1.836
		c0.213,0,0.413-0.005,0.597-0.009C15.705,6.254,15.86,6.25,16,6.25h1.477c-0.253-2.824-2.61-5-5.477-5
		c-2.834,0-5.181,2.14-5.47,4.924c1.196-0.192,2.308-0.817,3.087-1.745C9.712,4.315,9.852,4.25,10.001,4.25L10.001,4.25z"/>
	<path d="M23,23.75c-0.276,0-0.5-0.224-0.5-0.5v-2.106c0.003-0.461-0.212-0.903-0.575-1.183c-0.82-0.628-2.252-1.482-4.479-2.065
		l0.35,2.638c0.062,0.555-0.333,1.053-0.88,1.115c-0.038,0.004-0.075,0.006-0.113,0.006c-0.212,0-0.415-0.066-0.586-0.19
		c-0.984-0.685-2.123-1.144-3.316-1.34l1.541,2.889c0.129,0.243,0.037,0.546-0.206,0.677C14.162,23.73,14.081,23.75,14,23.75
		c-0.185,0-0.354-0.101-0.441-0.264L12,20.562l-1.559,2.923C10.354,23.649,10.185,23.75,10,23.75c-0.081,0-0.162-0.02-0.234-0.058
		c-0.244-0.131-0.336-0.434-0.207-0.677l1.541-2.888c-1.195,0.198-2.336,0.658-3.324,1.345c-0.163,0.118-0.37,0.184-0.578,0.184
		c-0.037,0-0.075-0.002-0.112-0.006c-0.548-0.062-0.944-0.558-0.882-1.106L6.554,17.9c-2.221,0.583-3.656,1.435-4.482,2.063
		c-0.361,0.278-0.576,0.719-0.573,1.178v2.109c0,0.276-0.224,0.5-0.5,0.5s-0.5-0.224-0.5-0.5v-2.106
		c-0.005-0.766,0.355-1.505,0.965-1.975c1.001-0.761,2.776-1.795,5.555-2.409c0.005-0.001,0.009-0.002,0.013-0.003
		c0.62-0.136,1.27-0.247,1.927-0.328c0.012-0.002,0.024-0.004,0.036-0.004C9.954,16.309,10.964,16.25,12,16.25
		c5.851,0,9.112,1.828,10.534,2.918c0.61,0.47,0.971,1.21,0.966,1.979v2.103C23.5,23.526,23.276,23.75,23,23.75z M7.196,20.666
		c0.858-0.604,1.792-1.044,2.786-1.319c-0.632-0.455-1.104-1.116-1.323-1.868C8.297,17.53,7.94,17.591,7.595,17.66L7.196,20.666z
		 M14.03,19.35c0.984,0.276,1.93,0.719,2.766,1.3l-0.392-2.993c-0.34-0.067-0.693-0.127-1.054-0.179
		C15.13,18.242,14.665,18.897,14.03,19.35z M9.665,17.359c0.354,0.964,1.295,1.639,2.336,1.641c1.058-0.001,1.985-0.664,2.338-1.642
		C13.583,17.286,12.798,17.25,12,17.25C11.205,17.25,10.421,17.287,9.665,17.359z"/>
</g>
</svg>
