<?xml version="1.0" encoding="utf-8"?>
<!-- Generator: Adobe Illustrator 22.1.0, SVG Export Plug-In . SVG Version: 6.00 Build 0)  -->
<svg version="1.1" id="Layer_1" xmlns="http://www.w3.org/2000/svg" xmlns:xlink="http://www.w3.org/1999/xlink" x="0px" y="0px"
	 viewBox="0 0 24 24" style="enable-background:new 0 0 24 24;" xml:space="preserve">
<g>
	<title>people-man-4</title>
	<path d="M12,13.932c-0.648,0-1.287-0.212-1.8-0.597c-0.107-0.08-0.176-0.197-0.195-0.329c-0.019-0.132,0.015-0.264,0.095-0.371
		c0.094-0.125,0.243-0.2,0.4-0.2c0.109,0,0.212,0.034,0.3,0.099c0.342,0.257,0.768,0.398,1.201,0.398c0.432,0,0.859-0.141,1.2-0.397
		c0.087-0.065,0.191-0.1,0.3-0.1c0.157,0,0.306,0.075,0.4,0.2c0.08,0.106,0.114,0.238,0.095,0.37
		c-0.019,0.132-0.088,0.25-0.195,0.33C13.287,13.72,12.648,13.932,12,13.932z"/>
	<path d="M23,23.936c-0.276,0-0.5-0.224-0.5-0.5V22.33c0.003-0.461-0.212-0.903-0.575-1.183c-0.998-0.764-2.78-1.779-5.644-2.328
		c-0.496,1.544-1.768,2.694-3.369,3.025c-0.301,0.062-0.608,0.094-0.913,0.094c-1.955,0-3.682-1.271-4.277-3.117
		c-2.855,0.55-4.644,1.564-5.649,2.328c-0.361,0.278-0.576,0.719-0.573,1.178v1.109c0,0.276-0.224,0.5-0.5,0.5s-0.5-0.224-0.5-0.5
		V22.33c-0.005-0.767,0.355-1.506,0.965-1.975c1.151-0.875,3.214-2.035,6.512-2.595c0.013-0.003,0.026-0.005,0.039-0.006
		c1.264-0.212,2.598-0.318,3.984-0.318c5.851,0,9.112,1.828,10.534,2.918c0.61,0.47,0.971,1.21,0.966,1.979v1.103
		C23.5,23.711,23.276,23.936,23,23.936z M8.723,18.655c0.504,1.357,1.813,2.282,3.277,2.282c0.237,0,0.475-0.024,0.709-0.073
		c1.193-0.247,2.156-1.082,2.572-2.21c-1.04-0.145-2.142-0.218-3.281-0.218C10.864,18.436,9.763,18.509,8.723,18.655z"/>
	<circle cx="14" cy="10.436" r="0.75"/>
	<circle cx="10" cy="10.436" r="0.75"/>
	<path d="M12,16.936c-3.584,0-6.5-2.916-6.5-6.5v-2C5.499,7.153,5.874,5.913,6.588,4.843C6.53,4.605,6.5,4.363,6.5,4.12
		c0-1.998,2.077-3.571,5.421-4.107c0.053-0.008,0.101-0.011,0.149-0.011c0.464,0,0.864,0.316,0.972,0.767
		c0.13,0.474,0.699,0.597,1.616,0.757c1.2,0.21,2.842,0.497,2.842,2.593c0,0.251-0.027,0.498-0.079,0.735
		c0.708,1.068,1.081,2.303,1.079,3.582v1.999C18.5,14.02,15.584,16.936,12,16.936z M7.093,5.949C6.703,6.715,6.499,7.567,6.5,8.435
		v2c0,3.033,2.467,5.5,5.5,5.5s5.5-2.467,5.5-5.5v-2c0.001-0.852-0.195-1.688-0.571-2.444c-0.698,1.005-1.998,1.664-3.719,1.872
		l-0.103,0.011c-0.139,0.015-0.279,0.027-0.423,0.037L12.548,7.92C12.368,7.929,12.187,7.936,12,7.936
		c-0.179,0-0.355-0.006-0.528-0.016L11.346,7.91c-0.145-0.01-0.288-0.024-0.428-0.041L10.84,7.86
		C9.156,7.642,7.819,6.954,7.093,5.949z M12.07,1.002C9.863,1.355,7.5,2.36,7.5,4.12c0,0.676,0.326,1.292,0.942,1.783
		c0.089,0.07,0.167,0.125,0.247,0.178l0.073,0.048c0.061,0.039,0.125,0.074,0.189,0.11l0.042,0.024
		C9.022,6.278,9.051,6.295,9.081,6.31C9.106,6.322,9.13,6.334,9.155,6.345l0.047,0.022c0.259,0.123,0.536,0.226,0.824,0.308
		c0.002,0,0.024,0.007,0.025,0.008c0.11,0.031,0.205,0.053,0.301,0.075l0.107,0.024c0.087,0.018,0.175,0.034,0.264,0.049
		c0.053,0.009,0.107,0.017,0.161,0.025c0.079,0.011,0.158,0.022,0.239,0.031c0.077,0.008,0.156,0.015,0.235,0.021l0.056,0.005
		c0.045,0.004,0.089,0.008,0.135,0.01C11.697,6.93,11.847,6.936,12,6.936c0.126,0,0.249-0.004,0.37-0.008
		c0.83-0.035,2.86-0.254,3.74-1.516c0.05-0.072,0.092-0.143,0.131-0.216c0.018-0.033,0.036-0.069,0.053-0.105
		c0.013-0.028,0.025-0.054,0.036-0.081c0.026-0.062,0.05-0.126,0.07-0.193c0.067-0.218,0.1-0.452,0.1-0.697
		c0-1.199-0.69-1.376-2.014-1.608c-0.987-0.172-2.104-0.368-2.413-1.494L12.07,1.002z"/>
</g>
</svg>
