<?xml version="1.0" encoding="utf-8"?>
<!-- Generator: Adobe Illustrator 22.1.0, SVG Export Plug-In . SVG Version: 6.00 Build 0)  -->
<svg version="1.1" id="Layer_1" xmlns="http://www.w3.org/2000/svg" xmlns:xlink="http://www.w3.org/1999/xlink" x="0px" y="0px"
	 viewBox="0 0 24 24" style="enable-background:new 0 0 24 24;" xml:space="preserve">
<g>
	<title>people-man-6</title>
	<path d="M12,12.997c-0.648,0-1.287-0.212-1.8-0.597c-0.107-0.08-0.176-0.197-0.195-0.329C9.986,11.938,10.02,11.807,10.1,11.7
		c0.094-0.125,0.244-0.2,0.4-0.2c0.109,0,0.213,0.035,0.3,0.1c0.341,0.256,0.768,0.397,1.2,0.397c0.432,0,0.859-0.141,1.2-0.397
		c0.086-0.065,0.19-0.1,0.3-0.1c0.157,0,0.306,0.075,0.4,0.2c0.08,0.106,0.114,0.238,0.095,0.37
		c-0.019,0.132-0.088,0.249-0.195,0.329C13.287,12.785,12.648,12.997,12,12.997z"/>
	<path d="M23,24c-0.276,0-0.5-0.224-0.5-0.5v-2.106c0.003-0.461-0.212-0.903-0.575-1.183c-0.48-0.366-1.278-0.889-2.425-1.372V23.5
		c0,0.276-0.224,0.5-0.5,0.5s-0.5-0.224-0.5-0.5v-5.038c-0.698-0.235-1.442-0.429-2.22-0.578c-0.496,1.544-1.768,2.693-3.368,3.024
		c-0.301,0.062-0.608,0.094-0.913,0.094c-1.955,0-3.682-1.271-4.277-3.117c-0.776,0.15-1.522,0.344-2.222,0.58V23.5
		C5.5,23.776,5.276,24,5,24s-0.5-0.224-0.5-0.5v-4.658c-1.146,0.483-1.945,1.004-2.427,1.371c-0.361,0.278-0.576,0.719-0.573,1.178
		V23.5C1.5,23.776,1.276,24,1,24s-0.5-0.224-0.5-0.5v-2.106c-0.005-0.766,0.355-1.505,0.965-1.975
		c1.151-0.875,3.214-2.035,6.512-2.595c0.013-0.003,0.026-0.005,0.039-0.006C9.279,16.605,10.613,16.5,12,16.5
		c5.839,0,9.105,1.828,10.533,2.917c0.611,0.471,0.972,1.211,0.967,1.98V23.5C23.5,23.776,23.276,24,23,24z M8.723,17.719
		c0.504,1.357,1.813,2.282,3.277,2.282c0.237,0,0.475-0.024,0.709-0.073c1.192-0.247,2.155-1.082,2.572-2.209
		C14.242,17.574,13.139,17.5,12,17.5C10.864,17.5,9.763,17.574,8.723,17.719z"/>
	<circle cx="14" cy="9.5" r="0.75"/>
	<circle cx="10" cy="9.5" r="0.75"/>
	<path d="M12.003,16.005c-0.782,0-1.554-0.142-2.296-0.421c-0.286-0.108-0.575-0.243-0.861-0.402C8.375,15.698,7.7,16.001,7,16.001
		c-1.379,0-2.5-1.122-2.5-2.501v-6C4.5,3.365,7.865,0,12,0s7.5,3.365,7.5,7.5v6c0,0.877-0.468,1.701-1.222,2.149
		c-0.387,0.23-0.827,0.352-1.274,0.352c-0.208,0-0.417-0.026-0.62-0.078c-0.482-0.122-0.904-0.377-1.233-0.741
		c-0.167,0.094-0.32,0.173-0.471,0.241C13.827,15.81,12.927,16.005,12.003,16.005z M8.5,9.5c0,0.991-0.585,1.889-1.491,2.289
		c0.589,1.321,1.679,2.342,3.052,2.86c0.628,0.237,1.282,0.357,1.943,0.357c0.781,0,1.543-0.166,2.264-0.492
		c1.218-0.552,2.193-1.526,2.744-2.744C16.09,11.39,15.5,10.491,15.5,9.5V7.5C15.072,7.822,14.549,8,14,8c-0.797,0-1.532-0.375-2-1
		c-0.468,0.625-1.203,1-2,1C9.451,8,8.928,7.822,8.5,7.5V9.5z M16.002,14.62c0.178,0.16,0.392,0.275,0.629,0.335
		c0.123,0.031,0.248,0.047,0.373,0.047c0.267,0,0.531-0.073,0.763-0.212c0.453-0.269,0.734-0.763,0.734-1.29v-6
		C18.5,3.916,15.584,1,12,1C8.416,1,5.5,3.916,5.5,7.5v6c0,0.827,0.672,1.5,1.5,1.501c0.367,0,0.726-0.14,0.999-0.382
		c-0.827-0.645-1.488-1.483-1.92-2.438c-0.007-0.015-0.014-0.032-0.019-0.049C5.97,11.913,5.974,11.641,6.077,11.4
		c0.103-0.242,0.294-0.431,0.537-0.53C7.15,10.632,7.5,10.093,7.5,9.5v-4C7.5,5.224,7.724,5,8,5s0.5,0.224,0.5,0.5
		C8.5,6.327,9.173,7,10,7s1.5-0.673,1.5-1.5C11.5,5.224,11.724,5,12,5c0.276,0,0.5,0.224,0.5,0.5C12.5,6.327,13.173,7,14,7
		s1.5-0.673,1.5-1.5C15.5,5.224,15.724,5,16,5s0.5,0.224,0.5,0.5v4c0,0.594,0.352,1.133,0.896,1.372
		c0.238,0.097,0.428,0.287,0.531,0.531c0.102,0.245,0.104,0.515,0.003,0.76C17.493,13.13,16.83,13.972,16.002,14.62z"/>
</g>
</svg>
