<?xml version="1.0" encoding="utf-8"?>
<!-- Generator: Adobe Illustrator 22.1.0, SVG Export Plug-In . SVG Version: 6.00 Build 0)  -->
<svg version="1.1" id="Layer_1" xmlns="http://www.w3.org/2000/svg" xmlns:xlink="http://www.w3.org/1999/xlink" x="0px" y="0px"
	 viewBox="0 0 24 24" style="enable-background:new 0 0 24 24;" xml:space="preserve">
<g>
	<title>room-service-give-plate-2</title>
	<path d="M0.967,24c-0.276,0-0.5-0.224-0.5-0.5v-8c0-0.276,0.224-0.5,0.5-0.5s0.5,0.224,0.5,0.5V16h4.75c1.74,0,3.219,1.3,3.464,3
		h3.286c1.93,0,3.5,1.57,3.5,3.5c0,0.276-0.224,0.5-0.5,0.5h-14.5v0.5C1.467,23.776,1.243,24,0.967,24z M15.417,22
		c-0.235-1.141-1.261-2-2.449-2h-6.75c-0.276,0-0.5-0.224-0.5-0.5s0.224-0.5,0.5-0.5h2.448c-0.235-1.141-1.261-2-2.448-2h-4.75v5
		H15.417z"/>
	<path d="M9.467,16c-0.276,0-0.5-0.224-0.5-0.5s0.224-0.5,0.5-0.5H21.2l1.333-2L2.4,13l0.483,0.723
		c0.153,0.229,0.091,0.54-0.139,0.693C2.661,14.471,2.566,14.5,2.467,14.5c-0.168,0-0.323-0.083-0.416-0.222l-0.482-0.723
		c-0.306-0.459-0.181-1.082,0.278-1.387C2.011,12.059,2.202,12.001,2.399,12h0.585c0.233-4.391,3.535-8.098,7.847-8.853
		C10.596,2.814,10.467,2.414,10.467,2c0-1.103,0.897-2,2-2s2,0.897,2,2c0,0.414-0.129,0.814-0.364,1.147
		c4.312,0.755,7.615,4.462,7.848,8.853h0.582c0.551,0,1,0.449,1,1c-0.001,0.199-0.059,0.39-0.167,0.553l-1.333,2.001
		C21.846,15.833,21.535,16,21.2,16H9.467z M20.949,12c-0.263-4.431-4.014-7.996-8.479-7.997l-0.003-0.25v0.25
		C8,4.003,4.248,7.567,3.985,12H20.949z M12.467,1c-0.551,0-1,0.449-1,1s0.449,1,1,1c0.552,0,1-0.449,1-1S13.019,1,12.467,1z"/>
</g>
</svg>
