<?xml version="1.0" encoding="utf-8"?>
<!-- Generator: Adobe Illustrator 22.1.0, SVG Export Plug-In . SVG Version: 6.00 Build 0)  -->
<svg version="1.1" id="Layer_1" xmlns="http://www.w3.org/2000/svg" xmlns:xlink="http://www.w3.org/1999/xlink" x="0px" y="0px"
	 viewBox="0 0 24 24" style="enable-background:new 0 0 24 24;" xml:space="preserve">
<g>
	<title>room-service-cart-food</title>
	<path d="M19.5,24c-1.199,0-2.215-0.845-2.449-2h-6.102c-0.234,1.155-1.25,2-2.449,2s-2.215-0.845-2.449-2H5.5
		C4.673,22,4,21.327,4,20.5v-7.551c-1.155-0.234-2-1.25-2-2.449V10C1.991,9.183,1.316,8.509,0.495,8.5
		C0.219,8.497-0.003,8.27,0,7.995C0.003,7.722,0.224,7.5,0.493,7.5C1.866,7.515,2.985,8.634,3,9.995V10.5C3,11.327,3.673,12,4.5,12
		h17c1.378,0,2.5,1.122,2.5,2.5v6c0,0.827-0.673,1.5-1.5,1.5h-0.551C21.715,23.155,20.699,24,19.5,24z M18.088,22
		c0.209,0.586,0.772,1,1.412,1s1.203-0.414,1.412-1H18.088z M7.088,22c0.209,0.586,0.772,1,1.412,1s1.203-0.414,1.412-1H7.088z
		 M22.5,21c0.276,0,0.5-0.224,0.5-0.5v-6c0-0.827-0.673-1.5-1.5-1.5H5v7.5C5,20.776,5.224,21,5.5,21H8v-4.5
		C8,16.224,8.224,16,8.5,16S9,16.224,9,16.5V21h4v-4.5c0-0.276,0.224-0.5,0.5-0.5s0.5,0.224,0.5,0.5V21h5v-4.5
		c0-0.276,0.224-0.5,0.5-0.5s0.5,0.224,0.5,0.5V21H22.5z"/>
	<path d="M6.002,10c-0.276,0-0.5-0.224-0.5-0.5S5.726,9,6.002,9H7.52C7.777,5.616,10.578,3,14,3s6.223,2.616,6.48,6h1.522
		c0.276,0,0.5,0.224,0.5,0.5s-0.224,0.5-0.5,0.5H6.002z M19.477,9C19.223,6.176,16.866,4,14,4c-2.866,0-5.223,2.176-5.477,5H19.477z
		"/>
	<path d="M14.002,3c-0.827,0-1.5-0.673-1.5-1.5s0.673-1.5,1.5-1.5s1.5,0.673,1.5,1.5S14.829,3,14.002,3z M14.002,1
		c-0.276,0-0.5,0.224-0.5,0.5s0.224,0.5,0.5,0.5s0.5-0.224,0.5-0.5S14.278,1,14.002,1z"/>
</g>
</svg>
