<?xml version="1.0" encoding="utf-8"?>
<!-- Generator: Adobe Illustrator 22.1.0, SVG Export Plug-In . SVG Version: 6.00 Build 0)  -->
<svg version="1.1" id="Layer_1" xmlns="http://www.w3.org/2000/svg" xmlns:xlink="http://www.w3.org/1999/xlink" x="0px" y="0px"
	 viewBox="0 0 24 24" style="enable-background:new 0 0 24 24;" xml:space="preserve">
<g>
	<title>room-service-do-not-disturb</title>
	<path d="M2.514,24c-0.827,0-1.5-0.673-1.5-1.5v-5.372c0-1.811,0.891-3.504,2.383-4.531l3.151-2.166c-0.004,0-0.007,0-0.011,0
		c-1.633,0-3.019-1.223-3.223-2.845c-0.058-0.458-0.016-0.922,0.12-1.36c-0.507-0.006-0.982-0.206-1.34-0.564
		c-0.735-0.737-0.9-1.889-0.4-2.802C2.57,1.251,4.184,0.188,6.009,0.017c0.173-0.016,0.349-0.025,0.522-0.025
		c1.272,0,2.515,0.45,3.5,1.266c1.017,0.843,1.69,2.016,1.908,3.321l9.831,1.229c0.69,0.086,1.211,0.675,1.211,1.371
		c-0.001,0.695-0.521,1.285-1.21,1.372l-9.758,1.219V22.5c0,0.827-0.673,1.5-1.5,1.5H2.514z M3.963,13.421
		c-1.22,0.84-1.949,2.225-1.949,3.707V22.5c0,0.276,0.224,0.5,0.5,0.5h8c0.276,0,0.5-0.224,0.5-0.5V9.896L8.662,10.19L3.963,13.421z
		 M6.539,4.93c-0.094,0-0.188,0.006-0.281,0.018C5.662,5.023,5.13,5.325,4.761,5.8c-0.369,0.475-0.53,1.065-0.455,1.661
		c0.141,1.123,1.1,1.97,2.23,1.97c0.094,0,0.189-0.006,0.283-0.018l14.827-1.853c0.19-0.024,0.335-0.188,0.335-0.38
		c0-0.192-0.144-0.354-0.335-0.378L6.82,4.948C6.727,4.936,6.633,4.93,6.539,4.93z M6.53,0.993c-0.142,0-0.285,0.007-0.427,0.02
		c-1.493,0.14-2.813,1.009-3.531,2.326C2.283,3.865,2.377,4.53,2.801,4.954c0.175,0.175,0.408,0.271,0.657,0.271
		c0.248,0,0.482-0.096,0.657-0.271C4.201,4.868,4.293,4.786,4.387,4.71c0.04-0.032,0.085-0.058,0.135-0.076
		c0.465-0.37,1.021-0.604,1.611-0.678C6.267,3.939,6.404,3.93,6.539,3.93c0.135,0,0.272,0.009,0.406,0.025l3.95,0.494
		c-0.224-0.947-0.749-1.797-1.501-2.42C8.576,1.351,7.586,0.993,6.53,0.993z"/>
	<path d="M6.518,22c-0.856,0-1.663-0.331-2.275-0.932c-0.01-0.008-0.019-0.016-0.027-0.024c-0.005-0.005-0.01-0.011-0.015-0.018
		c-0.602-0.613-0.933-1.42-0.933-2.276c0-1.792,1.458-3.25,3.25-3.25c0.854,0,1.659,0.329,2.271,0.928
		c0.009,0.007,0.018,0.014,0.025,0.02c0.009,0.009,0.018,0.02,0.027,0.031c0.597,0.607,0.928,1.415,0.928,2.271
		C9.768,20.542,8.31,22,6.518,22z M5.322,20.654C5.679,20.878,6.094,21,6.518,21c1.241,0,2.25-1.009,2.25-2.25
		c0-0.424-0.122-0.84-0.346-1.197L5.322,20.654z M6.518,16.5c-1.241,0-2.25,1.009-2.25,2.25c0,0.424,0.122,0.84,0.347,1.197
		l3.1-3.101C7.358,16.621,6.942,16.5,6.518,16.5z"/>
</g>
</svg>
