<?xml version="1.0" encoding="utf-8"?>
<!-- Generator: Adobe Illustrator 22.1.0, SVG Export Plug-In . SVG Version: 6.00 Build 0)  -->
<svg version="1.1" id="Layer_1" xmlns="http://www.w3.org/2000/svg" xmlns:xlink="http://www.w3.org/1999/xlink" x="0px" y="0px"
	 viewBox="0 0 24 24" style="enable-background:new 0 0 24 24;" xml:space="preserve">
<g>
	<title>school-locker-1</title>
	<path d="M2.5,5C2.224,5,2,4.775,2,4.5S2.224,4,2.5,4h3C5.776,4,6,4.224,6,4.5S5.776,5,5.5,5H2.5z"/>
	<path d="M2.5,7C2.224,7,2,6.775,2,6.5S2.224,6,2.5,6h3C5.776,6,6,6.224,6,6.5S5.776,7,5.5,7H2.5z"/>
	<path d="M2.5,9C2.224,9,2,8.775,2,8.5S2.224,8,2.5,8h3C5.776,8,6,8.224,6,8.5S5.776,9,5.5,9H2.5z"/>
	<path d="M2.5,20C2.224,20,2,19.775,2,19.5S2.224,19,2.5,19h3C5.776,19,6,19.224,6,19.5S5.776,20,5.5,20H2.5z"/>
	<path d="M2.5,18C2.224,18,2,17.775,2,17.5S2.224,17,2.5,17h3C5.776,17,6,17.224,6,17.5S5.776,18,5.5,18H2.5z"/>
	<path d="M9.5,5C9.224,5,9,4.775,9,4.5S9.224,4,9.5,4h3C12.776,4,13,4.224,13,4.5S12.776,5,12.5,5H9.5z"/>
	<path d="M9.5,7C9.224,7,9,6.775,9,6.5S9.224,6,9.5,6h3C12.776,6,13,6.224,13,6.5S12.776,7,12.5,7H9.5z"/>
	<path d="M9.5,9C9.224,9,9,8.775,9,8.5S9.224,8,9.5,8h3C12.776,8,13,8.224,13,8.5S12.776,9,12.5,9H9.5z"/>
	<path d="M9.5,20C9.224,20,9,19.775,9,19.5S9.224,19,9.5,19h3c0.276,0,0.5,0.224,0.5,0.5S12.776,20,12.5,20H9.5z"/>
	<path d="M9.5,18C9.224,18,9,17.775,9,17.5S9.224,17,9.5,17h3c0.276,0,0.5,0.224,0.5,0.5S12.776,18,12.5,18H9.5z"/>
	<path d="M23.241,23.845c-0.116-0.002-0.227-0.03-0.326-0.079L21.382,23H1.5C0.673,23,0,22.327,0,21.5v-19C0,1.672,0.673,1,1.5,1
		h19.882l1.532-0.766c0.104-0.052,0.22-0.079,0.335-0.079c0.08,0,0.16,0.013,0.237,0.038c0.19,0.063,0.344,0.197,0.434,0.376
		C23.973,0.672,24,0.788,24,0.905V23.1c-0.007,0.413-0.344,0.745-0.75,0.745H23.241z M23,22.691l0-21.382l-1,0.5v20.382L23,22.691z
		 M21,22v-2.5h-3l0,2.5H21z M17,22v-2.5c0-0.552,0.448-1,1-1h1v-2h-4V22H17z M14,22V2H8v20H14z M1.5,2C1.224,2,1,2.224,1,2.5v19
		C1,21.775,1.224,22,1.5,22H7V2H1.5z M21,18.5v-8h-6v5h1.5v-1c0-0.276,0.224-0.5,0.5-0.5s0.5,0.224,0.5,0.5v1H19
		c0.552,0,1,0.448,1,1v2H21z M21,9.5V4h-1l0,5.5H21z M19,9.5V6h-1v3.5H19z M17,9.5V5h-2v4.5H17z M19,5V4c0-0.551,0.448-1,1-1h1V2h-6
		v2h2c0.552,0,1,0.449,1,1H19z"/>
</g>
</svg>
