<?xml version="1.0" encoding="utf-8"?>
<!-- Generator: Adobe Illustrator 22.1.0, SVG Export Plug-In . SVG Version: 6.00 Build 0)  -->
<svg version="1.1" id="Layer_1" xmlns="http://www.w3.org/2000/svg" xmlns:xlink="http://www.w3.org/1999/xlink" x="0px" y="0px"
	 viewBox="0 0 24 24" style="enable-background:new 0 0 24 24;" xml:space="preserve">
<g>
	<title>school-locker</title>
	<path d="M1.5,23.258c-0.827,0-1.5-0.673-1.5-1.5v-18c0-0.827,0.673-1.5,1.5-1.5h16.904l3.54-1.415
		c0.178-0.071,0.365-0.107,0.555-0.107c0.618,0,1.166,0.37,1.395,0.943C23.964,1.857,24,2.044,24,2.236v11.045
		c0,0.4-0.156,0.777-0.439,1.06s-0.66,0.44-1.06,0.44c-0.192,0-0.38-0.036-0.558-0.108L19,13.496v8.261c0,0.827-0.673,1.5-1.5,1.5
		H1.5z M17.5,22.258c0.276,0,0.5-0.224,0.5-0.5v-8.5h-8v9H17.5z M1,21.758c0,0.276,0.224,0.5,0.5,0.5H9v-9H1V21.758z M22.314,13.745
		c0.059,0.024,0.122,0.036,0.186,0.036c0.133,0,0.258-0.052,0.353-0.147C22.948,13.539,23,13.414,23,13.281V2.236
		c0-0.064-0.012-0.127-0.036-0.186c-0.075-0.188-0.262-0.314-0.466-0.314c-0.063,0-0.125,0.012-0.184,0.036L19,3.096v9.323
		L22.314,13.745z M18,12.258v-0.265l-2.968-4.626l-0.841,0.542l2.804,4.35H18z M15.805,12.258L14,9.457v2.801H15.805z M13,12.258v-5
		h-1l0,5H13z M11,12.258v-5h-1v5H11z M9,12.258v-9H1.5c-0.276,0-0.5,0.224-0.5,0.5v8.5H9z M15.031,6.366
		c0.342,0,0.656,0.171,0.841,0.458L18,10.141V5.258h-8v1h1c0.176,0,0.348,0.048,0.5,0.137c0.152-0.089,0.324-0.137,0.5-0.137h1
		c0.42,0,0.781,0.261,0.929,0.629l0.561-0.362C14.652,6.421,14.839,6.366,15.031,6.366z M18,4.258v-1h-8v1H18z"/>
	<path d="M7.5,8.758c-0.276,0-0.5-0.224-0.5-0.5v-3c0-0.276,0.224-0.5,0.5-0.5S8,4.982,8,5.258v3C8,8.533,7.776,8.758,7.5,8.758z"/>
	<path d="M7.501,11.008c-0.413,0-0.749-0.335-0.751-0.746c0-0.001,0-0.004,0-0.004c0-0.414,0.336-0.75,0.75-0.75
		c0.408,0,0.742,0.329,0.75,0.735c0,0.005,0,0.022,0,0.026c-0.002,0.195-0.079,0.379-0.217,0.517
		c-0.141,0.142-0.328,0.221-0.529,0.222c0,0-0.001,0-0.001,0S7.501,11.008,7.501,11.008z"/>
	<path d="M7.5,18.758c-0.276,0-0.5-0.224-0.5-0.5v-3c0-0.276,0.224-0.5,0.5-0.5s0.5,0.224,0.5,0.5v3
		C8,18.533,7.776,18.758,7.5,18.758z"/>
	<path d="M7.501,21.008c-0.413,0-0.749-0.334-0.751-0.746c0-0.001,0-0.004,0-0.004c0-0.414,0.336-0.75,0.75-0.75
		c0.408,0,0.742,0.329,0.75,0.735c0,0.005,0,0.022,0,0.026c-0.003,0.195-0.079,0.379-0.217,0.517
		c-0.141,0.142-0.329,0.221-0.529,0.221C7.503,21.008,7.501,21.008,7.501,21.008z"/>
	<path d="M16.5,18.758c-0.276,0-0.5-0.224-0.5-0.5v-3c0-0.276,0.224-0.5,0.5-0.5s0.5,0.224,0.5,0.5v3
		C17,18.533,16.776,18.758,16.5,18.758z"/>
	<path d="M16.501,21.008c-0.201,0-0.388-0.077-0.53-0.217c-0.142-0.141-0.221-0.329-0.221-0.529c0-0.001,0-0.003,0-0.004
		c0-0.414,0.336-0.75,0.75-0.75c0.408,0,0.742,0.329,0.75,0.735c0,0.004,0,0.022,0,0.026c-0.003,0.195-0.08,0.378-0.217,0.517
		c-0.142,0.142-0.329,0.221-0.529,0.222C16.503,21.008,16.501,21.008,16.501,21.008z"/>
</g>
</svg>
