<?xml version="1.0" encoding="utf-8"?>
<!-- Generator: Adobe Illustrator 22.1.0, SVG Export Plug-In . SVG Version: 6.00 Build 0)  -->
<svg version="1.1" id="Layer_1" xmlns="http://www.w3.org/2000/svg" xmlns:xlink="http://www.w3.org/1999/xlink" x="0px" y="0px"
	 viewBox="0 0 24 24" style="enable-background:new 0 0 24 24;" xml:space="preserve">
<g>
	<title>school-book</title>
	<path d="M5.5,24C4.121,24,3,22.879,3,21.5V2.598C2.993,2.433,3.004,2.255,3.034,2.08C3.277,0.872,4.34,0,5.562,0L18.5,0
		C19.327,0,20,0.673,20,1.5v2.586c0.59,0.209,1,0.774,1,1.414v17c0,0.827-0.673,1.5-1.5,1.5H5.5z M4,21.5C4,22.328,4.673,23,5.5,23
		h14c0.276,0,0.5-0.224,0.5-0.5v-17C20,5.225,19.775,5,19.5,5h-14C5.359,5,5.217,4.988,5.079,4.965C4.684,4.898,4.315,4.738,4,4.502
		V21.5z M19,4V1.5C19,1.225,18.775,1,18.5,1H5.607L5.551,1c-0.753,0-1.384,0.52-1.534,1.264C4.007,2.323,4,2.391,3.998,2.459
		C3.999,2.472,4,2.486,4,2.5v0.096c0.015,0.267,0.11,0.538,0.275,0.771c0.232,0.327,0.577,0.544,0.972,0.611
		C5.33,3.993,5.415,4,5.5,4H17V3.5C17,3.225,16.775,3,16.5,3h-11C5.224,3,5,2.776,5,2.5S5.224,2,5.5,2h11C17.327,2,18,2.673,18,3.5
		V4H19z"/>
	<path d="M7.5,20C7.224,20,7,19.776,7,19.5v-5C7,14.225,7.224,14,7.5,14h1c0.827,0,1.5,0.673,1.5,1.5V16
		c0,0.375-0.138,0.727-0.387,1C9.861,17.274,10,17.625,10,18v0.5c0,0.827-0.673,1.5-1.5,1.5H7.5z M8.5,19C8.775,19,9,18.776,9,18.5
		V18c0-0.276-0.224-0.5-0.5-0.5H8V19H8.5z M8.5,16.5C8.775,16.5,9,16.276,9,16v-0.5C9,15.225,8.775,15,8.5,15H8v1.5H8.5z"/>
	<path d="M16.5,20c-1.378,0-2.5-1.122-2.5-2.5v-1c0-1.378,1.122-2.5,2.5-2.5c0.276,0,0.5,0.224,0.5,0.5S16.775,15,16.5,15
		c-0.827,0-1.5,0.673-1.5,1.5v1c0,0.827,0.673,1.5,1.5,1.5c0.276,0,0.5,0.224,0.5,0.5S16.775,20,16.5,20z"/>
	<path d="M13,13c-0.276,0-0.5-0.224-0.5-0.5V11h-1v1.5c0,0.276-0.224,0.5-0.5,0.5s-0.5-0.224-0.5-0.5v-4C10.5,7.673,11.173,7,12,7
		c0.827,0,1.5,0.673,1.5,1.5v4C13.5,12.776,13.275,13,13,13z M12.5,10V8.5C12.5,8.225,12.275,8,12,8s-0.5,0.224-0.5,0.5V10H12.5z"/>
</g>
</svg>
