<?xml version="1.0" encoding="utf-8"?>
<!-- Generator: Adobe Illustrator 22.1.0, SVG Export Plug-In . SVG Version: 6.00 Build 0)  -->
<svg version="1.1" id="Layer_1" xmlns="http://www.w3.org/2000/svg" xmlns:xlink="http://www.w3.org/1999/xlink" x="0px" y="0px"
	 viewBox="0 0 24 24" style="enable-background:new 0 0 24 24;" xml:space="preserve">
<g>
	<title>school-building</title>
	<path d="M1,24c-0.551,0-1-0.448-1-1v-9c0-0.552,0.449-1,1-1h6v-2c0-2.396,1.67-4.422,4-4.894V0.5C11,0.224,11.224,0,11.5,0h4
		c0.552,0,1,0.449,1,1v2c0,0.551-0.448,1-1,1H12v2c2.757,0,5,2.243,5,5v2h6c0.552,0,1,0.448,1,1v9c0,0.552-0.448,1-1,1H1z M23,23v-9
		h-6v9H23z M16,23V11c0-2.206-1.794-4-4-4s-4,1.794-4,4v12h2v-4c0-1.103,0.897-2,2-2s2,0.897,2,2v4H16z M13,23v-4
		c0-0.552-0.448-1-1-1c-0.551,0-1,0.448-1,1v4H13z M1,23h6v-9l-6,0L1,23z M15.5,3V1H12v2H15.5z"/>
	<path d="M19,18c-0.552,0-1-0.448-1-1v-1c0-0.552,0.448-1,1-1h2c0.552,0,1,0.448,1,1v1c0,0.552-0.448,1-1,1H19z M19,17h2v-1h-2
		L19,17z"/>
	<path d="M18.5,22c-0.276,0-0.5-0.224-0.5-0.5V20c0-0.552,0.448-1,1-1h2c0.552,0,1,0.448,1,1v1.5c0,0.276-0.224,0.5-0.5,0.5H18.5z
		 M21,21v-1h-2l0,1H21z"/>
	<path d="M3,18c-0.551,0-1-0.448-1-1v-1c0-0.552,0.449-1,1-1h2c0.551,0,1,0.448,1,1v1c0,0.552-0.449,1-1,1H3z M3,17h2v-1H3L3,17z"/>
	<path d="M3,22c-0.551,0-1-0.448-1-1v-1c0-0.552,0.449-1,1-1h2c0.551,0,1,0.448,1,1v1c0,0.552-0.449,1-1,1H3z M3,21h2v-1H3L3,21z"/>
	<path d="M12,13c-1.103,0-2-0.897-2-2s0.897-2,2-2s2,0.897,2,2S13.103,13,12,13z M12,10c-0.551,0-1,0.449-1,1s0.449,1,1,1
		c0.552,0,1-0.449,1-1S12.552,10,12,10z"/>
</g>
</svg>
