<?xml version="1.0" encoding="utf-8"?>
<!-- Generator: Adobe Illustrator 22.1.0, SVG Export Plug-In . SVG Version: 6.00 Build 0)  -->
<svg version="1.1" id="Layer_1" xmlns="http://www.w3.org/2000/svg" xmlns:xlink="http://www.w3.org/1999/xlink" x="0px" y="0px"
	 viewBox="0 0 24 24" style="enable-background:new 0 0 24 24;" xml:space="preserve">
<g>
	<title>school-teacher-music</title>
	<path d="M14,13.5c-1.103,0-2-0.897-2-2s0.897-2,2-2c0.357,0,0.699,0.093,1,0.268V6.281c-0.001-0.689,0.466-1.288,1.135-1.456l4-1
		c0.12-0.03,0.243-0.045,0.366-0.045c0.27,0,0.536,0.074,0.769,0.214c0.344,0.206,0.586,0.533,0.684,0.922
		C21.985,5.035,22,5.158,22,5.281V10c0,1.103-0.897,2-2,2s-2-0.897-2-2s0.897-2,2-2c0.357,0,0.699,0.093,1,0.268V5.281
		c0-0.042-0.005-0.083-0.015-0.123c-0.032-0.129-0.114-0.239-0.228-0.307c-0.078-0.047-0.167-0.071-0.256-0.071
		c-0.041,0-0.082,0.005-0.122,0.015l-4.001,1C16.155,5.851,16,6.051,16,6.28v5.22C16,12.603,15.103,13.5,14,13.5z M14,10.5
		c-0.552,0-1,0.449-1,1s0.448,1,1,1s1-0.449,1-1S14.552,10.5,14,10.5z M20,9c-0.552,0-1,0.449-1,1s0.448,1,1,1s1-0.449,1-1
		S20.552,9,20,9z"/>
	<path d="M3,24c-0.258,0-0.477-0.201-0.498-0.458L2.04,18H0.5C0.224,18,0,17.776,0,17.5V14c0-3.033,2.467-5.5,5.5-5.5
		S11,10.967,11,14v3.5c0,0.276-0.224,0.5-0.5,0.5H8.96l-0.462,5.542C8.477,23.799,8.258,24,8,24H3z M7.54,23l0.417-5H3.043l0.417,5
		H5v-3.5C5,19.224,5.224,19,5.5,19S6,19.224,6,19.5V23H7.54z M10,17v-3c0-2.303-1.737-4.216-4-4.466V14c0,0.276-0.224,0.5-0.5,0.5
		S5,14.276,5,14V9.534C2.737,9.784,1,11.697,1,14v3h1v-2.5C2,14.224,2.224,14,2.5,14S3,14.224,3,14.5V17h5v-2.5
		C8,14.224,8.224,14,8.5,14S9,14.224,9,14.5V17H10z"/>
	<path d="M5.5,8c-2.206,0-4-1.794-4-4c0-0.637,0.149-1.25,0.443-1.822C2.637,0.833,3.999,0,5.5,0c1.951,0,3.649,1.456,3.948,3.386
		c0.003,0.013,0.009,0.039,0.011,0.072C9.487,3.661,9.5,3.834,9.5,4C9.5,6.206,7.706,8,5.5,8z M2.61,3.198
		C2.537,3.46,2.5,3.728,2.5,4c0,1.654,1.346,3,3,3c1.591,0,2.896-1.245,2.994-2.812C7.854,4.395,7.188,4.5,6.509,4.5
		C5.097,4.5,3.73,4.04,2.61,3.198z M6.514,3.5c0.636,0,1.265-0.112,1.867-0.332C8.015,1.9,6.835,1,5.5,1
		C4.515,1,3.615,1.473,3.051,2.275C4.026,3.067,5.241,3.5,6.494,3.5l0.007,0C6.503,3.5,6.512,3.5,6.514,3.5z"/>
	<path d="M13.5,18c-0.276,0-0.5-0.224-0.5-0.5s0.224-0.5,0.5-0.5h8c0.827,0,1.5-0.673,1.5-1.5v-13C23,1.673,22.327,1,21.5,1H10
		C9.724,1,9.5,0.776,9.5,0.5S9.724,0,10,0h11.5C22.878,0,24,1.121,24,2.5v13c0,1.378-1.122,2.5-2.5,2.5H13.5z"/>
</g>
</svg>
