<?xml version="1.0" encoding="utf-8"?>
<!-- Generator: Adobe Illustrator 22.1.0, SVG Export Plug-In . SVG Version: 6.00 Build 0)  -->
<svg version="1.1" id="Layer_1" xmlns="http://www.w3.org/2000/svg" xmlns:xlink="http://www.w3.org/1999/xlink" x="0px" y="0px"
	 viewBox="0 0 24 24" style="enable-background:new 0 0 24 24;" xml:space="preserve">
<g>
	<title>school-book-apple</title>
	<path d="M14.055,15.5c-1.128,0-1.484-0.234-1.777-0.495c-0.094-0.083-0.103-0.092-0.278-0.092c-0.174,0-0.184,0.009-0.277,0.092
		C11.43,15.266,11.074,15.5,9.945,15.5c-0.937,0-1.898-0.729-2.706-2.051C6.55,12.32,6.069,10.914,5.952,9.688
		c-0.041-0.544,0.347-1.01,0.883-1.064c0.737-0.091,2.005-0.62,2.151-3.131C8.987,5.468,8.99,5.442,8.993,5.417
		C9.027,5.15,9.164,4.911,9.379,4.745c0.18-0.139,0.394-0.212,0.62-0.212c0.043,0,0.087,0.003,0.13,0.008
		c0.576,0.08,0.989,0.253,1.321,0.392c0.017,0.007,0.033,0.014,0.05,0.021V4.174c-0.001-0.37-0.304-0.673-0.675-0.674H9.652
		c-0.276,0-0.5-0.224-0.5-0.5s0.224-0.5,0.5-0.5h1.174c0.921,0.002,1.672,0.753,1.674,1.673v0.7c0.34-0.173,0.845-0.35,1.848-0.35
		c2.091,0,3.728,2.025,3.728,4.609C18.076,11.588,16.236,15.5,14.055,15.5z M12,13.913c0.513,0,0.739,0.164,0.943,0.346
		c0.127,0.113,0.271,0.241,1.112,0.241c1.299,0,3.021-3.061,3.021-5.369c0-2.024-1.198-3.609-2.728-3.609
		c-0.982,0-1.297,0.181-1.574,0.341c-0.2,0.115-0.426,0.245-0.774,0.245c-0.335,0-0.626-0.122-0.934-0.251
		c-0.294-0.123-0.627-0.262-1.07-0.324C9.92,6.654,9.492,9.304,6.946,9.618C7.205,12.304,8.946,14.5,9.945,14.5
		c0.842,0,0.985-0.128,1.112-0.241C11.261,14.077,11.487,13.913,12,13.913z"/>
	<path d="M13.358,4.142c-0.134,0-0.259-0.052-0.354-0.146c-0.093-0.093-0.146-0.222-0.146-0.354C12.859,1.91,14.268,0.501,16,0.5
		c0.134,0,0.259,0.052,0.354,0.146S16.5,0.866,16.5,1C16.5,2.733,15.091,4.142,13.358,4.142z M15.42,1.581
		c-0.712,0.203-1.279,0.769-1.481,1.481C14.651,2.859,15.218,2.293,15.42,1.581z"/>
	<path d="M0.5,23.5C0.224,23.5,0,23.276,0,23s0.224-0.5,0.5-0.5h5C6.327,22.5,7,21.827,7,21v-2c0-0.827-0.673-1.5-1.5-1.5h-5
		C0.224,17.5,0,17.276,0,17s0.224-0.5,0.5-0.5H22c1.252,0,2,0.935,2,2.5v2c0,1.565-0.748,2.5-2,2.5H0.5z M22,22.5c0.247,0,1,0,1-1.5
		v-2c0-1.5-0.753-1.5-1-1.5h-2v5H22z M19,22.5v-5h-1v5H19z M17,22.5v-5h-3v5H17z M13,22.5v-5h-1v5H13z M11,22.5v-5H7.499
		C7.822,17.928,8,18.452,8,19v2c0,0.548-0.178,1.072-0.501,1.5H11z"/>
	<path d="M1.5,21.5C1.224,21.5,1,21.276,1,21s0.224-0.5,0.5-0.5h4C5.776,20.5,6,20.724,6,21s-0.224,0.5-0.5,0.5H1.5z"/>
	<path d="M1.5,19.5C1.224,19.5,1,19.276,1,19s0.224-0.5,0.5-0.5h4C5.776,18.5,6,18.724,6,19s-0.224,0.5-0.5,0.5H1.5z"/>
</g>
</svg>
