<?xml version="1.0" encoding="utf-8"?>
<!-- Generator: Adobe Illustrator 22.1.0, SVG Export Plug-In . SVG Version: 6.00 Build 0)  -->
<svg version="1.1" id="Layer_1" xmlns="http://www.w3.org/2000/svg" xmlns:xlink="http://www.w3.org/1999/xlink" x="0px" y="0px"
	 viewBox="0 0 24 24" style="enable-background:new 0 0 24 24;" xml:space="preserve">
<g>
	<title>school-bag</title>
	<path d="M3.5,24C2.121,24,1,22.878,1,21.5v-5C1,15.122,2.121,14,3.5,14H4V7.5C4,5.019,6.019,3,8.5,3h0.039C8.784,1.3,10.262,0,12,0
		s3.216,1.3,3.461,3H15.5C17.981,3,20,5.019,20,7.5V14h0.5c1.378,0,2.5,1.122,2.5,2.5v5c0,1.378-1.122,2.5-2.5,2.5H3.5z M20.5,23
		c0.827,0,1.5-0.673,1.5-1.5V18h-2v5H20.5z M19,23V7.5C19,5.57,17.43,4,15.5,4h-7C6.57,4,5,5.57,5,7.5V23H19z M2,21.5
		C2,22.327,2.673,23,3.5,23H4v-5H2V21.5z M22,17v-0.5c0-0.827-0.673-1.5-1.5-1.5H20v2H22z M4,17v-2H3.5C2.673,15,2,15.673,2,16.5V17
		H4z M14.448,3C14.213,1.859,13.187,1,12,1S9.787,1.859,9.552,3H14.448z"/>
	<path d="M8.5,22C7.121,22,6,20.878,6,19.5v-4C6,14.122,7.121,13,8.5,13h7c1.378,0,2.5,1.122,2.5,2.5v4c0,1.378-1.122,2.5-2.5,2.5
		H8.5z M7,19.5C7,20.327,7.673,21,8.5,21h7c0.827,0,1.5-0.673,1.5-1.5V17h-2v1c0,0.276-0.224,0.5-0.5,0.5S14,18.276,14,18v-1H7V19.5
		z M17,16v-0.5c0-0.827-0.673-1.5-1.5-1.5h-7C7.673,14,7,14.673,7,15.5V16H17z"/>
</g>
</svg>
