<?xml version="1.0" encoding="utf-8"?>
<!-- Generator: Adobe Illustrator 22.1.0, SVG Export Plug-In . SVG Version: 6.00 Build 0)  -->
<svg version="1.1" id="Layer_1" xmlns="http://www.w3.org/2000/svg" xmlns:xlink="http://www.w3.org/1999/xlink" x="0px" y="0px"
	 viewBox="0 0 24 24" style="enable-background:new 0 0 24 24;" xml:space="preserve">
<g>
	<title>school-exam-a</title>
	<path d="M5,24c-0.827,0-1.5-0.673-1.5-1.5v-21C3.5,0.673,4.173,0,5,0h14c0.827,0,1.5,0.673,1.5,1.5v16.532
		c0,0.233-0.057,0.467-0.164,0.678c-0.095,0.186-0.221,0.345-0.377,0.474l-5.361,4.468c-0.114,0.094-0.248,0.173-0.397,0.234
		C14.002,23.965,13.82,24,13.638,24H5z M5,1C4.724,1,4.5,1.224,4.5,1.5v21C4.5,22.776,4.724,23,5,23h8.5v-3.5
		c0-0.827,0.673-1.5,1.5-1.5h4.5V1.5C19.5,1.224,19.276,1,19,1H5z M15,19c-0.276,0-0.5,0.224-0.5,0.5v2.932L18.619,19H15z"/>
	<path d="M6,14c-0.276,0-0.5-0.224-0.5-0.5S5.724,13,6,13h10c0.276,0,0.5,0.224,0.5,0.5S16.276,14,16,14H6z"/>
	<path d="M6,18c-0.276,0-0.5-0.224-0.5-0.5S5.724,17,6,17h6c0.276,0,0.5,0.224,0.5,0.5S12.276,18,12,18H6z"/>
	<path d="M17,10c-0.276,0-0.5-0.224-0.5-0.5V7h-2v2.5c0,0.276-0.224,0.5-0.5,0.5s-0.5-0.224-0.5-0.5V5c0-1.103,0.897-2,2-2
		s2,0.897,2,2v4.5C17.5,9.776,17.276,10,17,10z M16.5,6V5c0-0.551-0.448-1-1-1s-1,0.449-1,1v1H16.5z"/>
</g>
</svg>
