<?xml version="1.0" encoding="utf-8"?>
<!-- Generator: Adobe Illustrator 22.1.0, SVG Export Plug-In . SVG Version: 6.00 Build 0)  -->
<svg version="1.1" id="Layer_1" xmlns="http://www.w3.org/2000/svg" xmlns:xlink="http://www.w3.org/1999/xlink" x="0px" y="0px"
	 viewBox="0 0 24 24" style="enable-background:new 0 0 24 24;" xml:space="preserve">
<g>
	<title>school-board-maths</title>
	<path d="M21.5,14c-0.276,0-0.5-0.224-0.5-0.5V2c0-0.276-0.224-0.5-0.5-0.5h-17C3.224,1.5,3,1.724,3,2v11.5
		C3,13.776,2.776,14,2.5,14S2,13.776,2,13.5V2c0-0.827,0.673-1.5,1.5-1.5h17C21.327,0.5,22,1.173,22,2v11.5
		C22,13.776,21.776,14,21.5,14z"/>
	<path d="M21.5,23.5c-0.276,0-0.5-0.224-0.5-0.5v-1.5H3V23c0,0.276-0.224,0.5-0.5,0.5S2,23.276,2,23v-5.5H1.5
		C0.673,17.5,0,16.827,0,16v-0.5c0-0.552,0.449-1,1-1h22c0.552,0,1,0.448,1,1V16c0,0.827-0.673,1.5-1.5,1.5H22V23
		C22,23.276,21.776,23.5,21.5,23.5z M21,20.5v-3H3v3H21z M1,16c0,0.276,0.224,0.5,0.5,0.5h21c0.276,0,0.5-0.224,0.5-0.5v-0.5H1h0
		L1,16z"/>
	<path d="M12.5,10.5c-0.276,0-0.5-0.224-0.5-0.5V8.5h-1.5C10.224,8.5,10,8.276,10,8s0.224-0.5,0.5-0.5H12V6
		c0-0.276,0.224-0.5,0.5-0.5C12.776,5.5,13,5.724,13,6v1.5h1.5C14.776,7.5,15,7.724,15,8s-0.224,0.5-0.5,0.5H13V10
		C13,10.276,12.776,10.5,12.5,10.5z"/>
	<path d="M15.5,11.5c-0.276,0-0.5-0.224-0.5-0.5s0.224-0.5,0.5-0.5H17V5.707l-1.146,1.146C15.759,6.948,15.634,7,15.5,7
		s-0.259-0.052-0.354-0.146S15,6.634,15,6.5s0.052-0.259,0.146-0.354l1.323-1.323C16.674,4.618,16.958,4.5,17.249,4.5
		C17.664,4.5,18,4.836,18,5.25v5.25h1.5c0.276,0,0.5,0.224,0.5,0.5s-0.224,0.5-0.5,0.5H15.5z"/>
	<path d="M4.5,11.5c-0.215,0-0.406-0.137-0.474-0.342C3.958,10.954,4.028,10.729,4.2,10.6l3.2-2.4C7.776,7.918,8,7.47,8,7
		c0-0.827-0.673-1.5-1.5-1.5S5,6.173,5,7c0,0.276-0.224,0.5-0.5,0.5S4,7.276,4,7c0-1.379,1.121-2.5,2.5-2.5S9,5.621,9,7
		c0,0.783-0.374,1.53-1,2l-2,1.5h2.5C8.776,10.5,9,10.724,9,11s-0.224,0.5-0.5,0.5H4.5z"/>
</g>
</svg>
