<?xml version="1.0" encoding="utf-8"?>
<!-- Generator: Adobe Illustrator 22.1.0, SVG Export Plug-In . SVG Version: 6.00 Build 0)  -->
<svg version="1.1" id="Layer_1" xmlns="http://www.w3.org/2000/svg" xmlns:xlink="http://www.w3.org/1999/xlink" x="0px" y="0px"
	 viewBox="0 0 24 24" style="enable-background:new 0 0 24 24;" xml:space="preserve">
<g>
	<title>school-exam-f-fail</title>
	<path d="M5,24c-0.827,0-1.5-0.673-1.5-1.5v-21C3.5,0.673,4.173,0,5,0h14c0.827,0,1.5,0.673,1.5,1.5v16.532
		c0,0.447-0.197,0.866-0.54,1.152l-5.361,4.468c-0.116,0.096-0.251,0.176-0.403,0.237C14.005,23.964,13.821,24,13.638,24H5z M5,1
		C4.724,1,4.5,1.224,4.5,1.5v21C4.5,22.776,4.724,23,5,23h8.5v-3.5c0-0.827,0.673-1.5,1.5-1.5h4.5V1.5C19.5,1.224,19.276,1,19,1H5z
		 M15,19c-0.276,0-0.5,0.224-0.5,0.5v2.932L18.619,19H15z"/>
	<path d="M6,14c-0.276,0-0.5-0.224-0.5-0.5S5.724,13,6,13h10c0.276,0,0.5,0.224,0.5,0.5S16.276,14,16,14H6z"/>
	<path d="M6,18c-0.276,0-0.5-0.224-0.5-0.5S5.724,17,6,17h6c0.276,0,0.5,0.224,0.5,0.5S12.276,18,12,18H6z"/>
	<path d="M14,10c-0.276,0-0.5-0.224-0.5-0.5v-5C13.5,3.673,14.173,3,15,3h2c0.276,0,0.5,0.224,0.5,0.5S17.276,4,17,4h-2
		c-0.276,0-0.5,0.224-0.5,0.5V6H16c0.276,0,0.5,0.224,0.5,0.5S16.276,7,16,7h-1.5v2.5C14.5,9.776,14.276,10,14,10z"/>
</g>
</svg>
