<?xml version="1.0" encoding="utf-8"?>
<!-- Generator: Adobe Illustrator 22.1.0, SVG Export Plug-In . SVG Version: 6.00 Build 0)  -->
<svg version="1.1" id="Light" xmlns="http://www.w3.org/2000/svg" xmlns:xlink="http://www.w3.org/1999/xlink" x="0px" y="0px"
	 viewBox="0 0 24 24" style="enable-background:new 0 0 24 24;" xml:space="preserve">
<g>
	<title>smart-light-smartphone</title>
	<path d="M17.014,22.25c-0.414,0-0.75-0.336-0.75-0.75c0-0.385,0.291-0.705,0.676-0.744c0.031-0.004,0.052-0.006,0.074-0.006
		c0.011,0,0.033,0.002,0.044,0.003l0.005,0.001c0.393,0.026,0.701,0.353,0.701,0.746C17.764,21.914,17.428,22.25,17.014,22.25z"/>
	<path d="M12.514,24c-1.379,0-2.5-1.122-2.5-2.5v-2c0-0.276,0.224-0.5,0.5-0.5h12.5V2.5c0-0.827-0.673-1.5-1.5-1.5h-9
		c-0.276,0-0.5-0.224-0.5-0.5s0.224-0.5,0.5-0.5h9c1.378,0,2.5,1.121,2.5,2.5v19c0,1.378-1.122,2.5-2.5,2.5H12.514z M11.014,21.5
		c0,0.827,0.673,1.5,1.5,1.5h9c0.827,0,1.5-0.673,1.5-1.5V20h-12V21.5z"/>
	<path d="M11.668,10.712c-0.164,0-0.317-0.08-0.41-0.214c-0.6-0.86-1.401-1.587-2.314-2.101c-0.116-0.065-0.2-0.172-0.236-0.301
		c-0.036-0.129-0.02-0.263,0.046-0.38c0.088-0.157,0.255-0.255,0.435-0.255c0.086,0,0.171,0.022,0.245,0.065
		c1.044,0.588,1.958,1.418,2.644,2.4c0.077,0.109,0.106,0.242,0.082,0.374c-0.023,0.132-0.097,0.246-0.206,0.323
		C11.87,10.681,11.771,10.712,11.668,10.712z"/>
	<path d="M14.218,10.074c-0.179,0-0.346-0.097-0.435-0.253c-0.979-1.727-2.448-3.086-4.245-3.929
		C9.417,5.835,9.325,5.734,9.28,5.609C9.234,5.483,9.241,5.347,9.297,5.226C9.379,5.052,9.557,4.939,9.75,4.939
		c0.074,0,0.146,0.016,0.213,0.048c1.986,0.932,3.608,2.433,4.69,4.341c0.136,0.24,0.052,0.546-0.188,0.682
		C14.39,10.051,14.305,10.074,14.218,10.074z"/>
	<path d="M16.714,9.45c-0.191,0-0.363-0.106-0.448-0.277c-1.292-2.599-3.479-4.645-6.158-5.761c-0.254-0.106-0.375-0.399-0.27-0.654
		C9.916,2.571,10.098,2.45,10.3,2.45c0.066,0,0.131,0.013,0.192,0.039c2.902,1.209,5.27,3.424,6.669,6.239
		c0.123,0.247,0.022,0.547-0.225,0.67C16.866,9.432,16.791,9.45,16.714,9.45z"/>
	<path d="M5.514,24c-0.276,0-0.5-0.224-0.5-0.5v-0.543c-1.419-0.241-2.5-1.498-2.5-2.957v-0.73c-1.568-1.064-2.522-2.881-2.5-4.776
		C0.014,11.466,2.481,9,5.514,9s5.5,2.467,5.5,5.5c0.022,1.889-0.933,3.705-2.5,4.77V20c0,1.459-1.081,2.716-2.5,2.957V23.5
		C6.014,23.776,5.79,24,5.514,24z M3.514,20c0,1.103,0.897,2,2,2s2-0.897,2-2v-0.5h-4V20z M7.867,18.5
		c1.345-0.869,2.166-2.393,2.147-3.994c0-2.486-2.019-4.506-4.5-4.506s-4.5,2.019-4.5,4.5c-0.019,1.606,0.802,3.131,2.147,4h0.853
		v-2h-0.5c-0.827,0-1.5-0.673-1.5-1.5s0.673-1.5,1.5-1.5s1.5,0.673,1.5,1.5v0.5h1V15c0-0.827,0.673-1.5,1.5-1.5s1.5,0.673,1.5,1.5
		s-0.673,1.5-1.5,1.5h-0.5v2H7.867z M6.014,18.5v-2h-1v2H6.014z M7.514,15.5c0.276,0,0.5-0.224,0.5-0.5s-0.224-0.5-0.5-0.5
		s-0.5,0.224-0.5,0.5v0.5H7.514z M3.514,14.5c-0.276,0-0.5,0.224-0.5,0.5s0.224,0.5,0.5,0.5h0.5V15
		C4.014,14.724,3.79,14.5,3.514,14.5z"/>
</g>
</svg>
