<?xml version="1.0" encoding="utf-8"?>
<!-- Generator: Adobe Illustrator 22.1.0, SVG Export Plug-In . SVG Version: 6.00 Build 0)  -->
<svg version="1.1" id="Light" xmlns="http://www.w3.org/2000/svg" xmlns:xlink="http://www.w3.org/1999/xlink" x="0px" y="0px"
	 viewBox="0 0 24 24" style="enable-background:new 0 0 24 24;" xml:space="preserve">
<g>
	<title>smart-light-wifi-1</title>
	<path d="M12.015,24c-0.276,0-0.5-0.224-0.5-0.5v-0.543c-1.419-0.241-2.5-1.498-2.5-2.957v-2.14c-3.719-1.306-6.177-4.932-6-8.882
		c0-2.384,0.937-4.64,2.639-6.34C7.356,0.937,9.615,0,12.015,0c4.963,0,9,4.037,9,9c0.177,3.932-2.281,7.553-6,8.86V20
		c0,1.459-1.081,2.716-2.5,2.957V23.5C12.515,23.776,12.29,24,12.015,24z M10.015,20c0,1.103,0.897,2,2,2c1.103,0,2-0.897,2-2
		H10.015z M14.015,19v-1h-4v1H14.015z M14.437,17c3.448-1.087,5.741-4.362,5.578-7.978c0-4.429-3.589-8.022-8-8.022
		c-4.411,0-8,3.589-8,8c-0.163,3.633,2.129,6.912,5.578,8H14.437z"/>
	<path d="M13.782,10.732c-0.134,0-0.259-0.052-0.354-0.146c-0.377-0.377-0.879-0.584-1.414-0.584c-0.535,0-1.037,0.208-1.414,0.584
		c-0.094,0.094-0.22,0.146-0.354,0.146s-0.259-0.052-0.354-0.146s-0.146-0.22-0.146-0.354c0-0.134,0.052-0.259,0.147-0.354
		c0.566-0.565,1.319-0.877,2.121-0.877c0.802,0,1.555,0.311,2.121,0.877c0.094,0.094,0.146,0.22,0.146,0.354
		c0,0.134-0.052,0.259-0.146,0.354S13.915,10.732,13.782,10.732z"/>
	<path d="M15.903,8.611c-0.134,0-0.259-0.052-0.354-0.146c-0.943-0.943-2.198-1.462-3.536-1.462c-1.337,0-2.593,0.519-3.536,1.462
		c-0.094,0.094-0.22,0.146-0.354,0.146c-0.134,0-0.259-0.052-0.354-0.146s-0.146-0.22-0.146-0.354s0.052-0.259,0.146-0.354
		c1.131-1.131,2.638-1.754,4.243-1.754s3.111,0.623,4.242,1.754c0.094,0.094,0.146,0.22,0.146,0.354s-0.052,0.259-0.146,0.354
		S16.036,8.611,15.903,8.611z"/>
	<circle cx="12.014" cy="12.5" r="0.75"/>
</g>
</svg>
