<?xml version="1.0" encoding="utf-8"?>
<!-- Generator: Adobe Illustrator 22.1.0, SVG Export Plug-In . SVG Version: 6.00 Build 0)  -->
<svg version="1.1" id="Light" xmlns="http://www.w3.org/2000/svg" xmlns:xlink="http://www.w3.org/1999/xlink" x="0px" y="0px"
	 viewBox="0 0 24 24" style="enable-background:new 0 0 24 24;" xml:space="preserve">
<g>
	<title>christmas-snow-globe</title>
	<path d="M3.977,24c-0.401,0-0.778-0.156-1.061-0.44c-0.283-0.283-0.439-0.66-0.439-1.061c0-0.191,0.036-0.377,0.107-0.555
		l1.333-3.334C2.019,16.553,0.957,13.786,1,10.992C1,4.933,5.935,0,12,0s11,4.935,11,11c0.031,2.828-1.004,5.525-2.918,7.608
		l1.333,3.335c0.307,0.768-0.069,1.643-0.836,1.95C20.4,23.964,20.213,24,20.023,24H3.977z M3.513,22.314
		c-0.024,0.059-0.036,0.122-0.036,0.185c0,0.134,0.052,0.26,0.146,0.354C3.718,22.948,3.844,23,3.977,23h16.046
		c0.063,0,0.126-0.012,0.186-0.036c0.255-0.102,0.38-0.394,0.278-0.65L19.162,19H4.839L3.513,22.314z M19.283,18
		c1.781-1.905,2.745-4.384,2.717-6.995C22,5.487,17.514,1,12,1C6.486,1,2,5.486,2,11c-0.04,2.58,0.949,5.124,2.716,7h4.646
		C8.508,17.247,8,16.155,8,15c0-0.601,0.138-1.197,0.401-1.739l-1.625-0.814c-0.12-0.06-0.208-0.163-0.251-0.289
		s-0.032-0.262,0.027-0.382C6.638,11.606,6.81,11.5,7,11.5c0.077,0,0.155,0.018,0.224,0.053l1.728,0.866
		c0.355-0.42,0.789-0.759,1.277-1.001C9.461,10.858,9,9.97,9,9c0-1.654,1.346-3,3-3c1.654,0,3,1.346,3,3
		c0,0.97-0.46,1.858-1.229,2.418c0.488,0.242,0.922,0.581,1.277,1l1.728-0.865C16.846,11.518,16.923,11.5,17,11.5
		c0.19,0,0.362,0.106,0.447,0.276c0.123,0.246,0.023,0.547-0.223,0.671l-1.625,0.814C15.862,13.803,16,14.399,16,15
		c0,1.155-0.508,2.247-1.362,3H19.283z M12,12c-1.654,0-3,1.346-3,3s1.346,3,3,3c1.654,0,3-1.346,3-3S13.654,12,12,12z M12,7
		c-1.103,0-2,0.897-2,2s0.897,2,2,2s2-0.897,2-2S13.103,7,12,7z"/>
	<circle cx="9.5" cy="3.5" r="0.75"/>
	<circle cx="15" cy="3.5" r="0.75"/>
	<circle cx="18" cy="6" r="0.75"/>
	<circle cx="20" cy="9.5" r="0.75"/>
	<circle cx="6.5" cy="6" r="0.75"/>
	<circle cx="7.25" cy="8.75" r="0.75"/>
	<circle cx="16.75" cy="8.75" r="0.75"/>
	<circle cx="4" cy="9.5" r="0.75"/>
</g>
</svg>
