<?xml version="1.0" encoding="utf-8"?>
<!-- Generator: Adobe Illustrator 22.1.0, SVG Export Plug-In . SVG Version: 6.00 Build 0)  -->
<svg version="1.1" id="Light" xmlns="http://www.w3.org/2000/svg" xmlns:xlink="http://www.w3.org/1999/xlink" x="0px" y="0px"
	 viewBox="0 0 24 24" style="enable-background:new 0 0 24 24;" xml:space="preserve">
<g>
	<title>christmas-candle</title>
	<path d="M8.5,24c-0.551,0-1-0.448-1-1V12.368c-0.001-0.44,0.281-0.824,0.702-0.955l7-2.187C15.3,9.195,15.4,9.18,15.501,9.18
		c0.16,0,0.32,0.04,0.463,0.115c0.237,0.124,0.411,0.333,0.49,0.588c0.03,0.095,0.045,0.196,0.045,0.298V23c0,0.552-0.448,1-1,1H8.5
		z M8.5,23h7v-3.07l-7,2.188V23z M8.5,21.07l7-2.188V16.68l-7,2.188V21.07z M8.5,17.82l7-2.188V13.43l-7,2.188V17.82z M8.5,12.367
		l0,2.203l7-2.188V10.18L8.5,12.367z"/>
	<path d="M12.003,8.711c-1.813,0-3.307-1.419-3.402-3.231c-0.097-1.288,0.633-2.52,1.816-3.06c0.005-0.003,0.036-0.017,0.067-0.028
		c0.081-0.029,0.167-0.044,0.252-0.044c0.111,0,0.219,0.024,0.32,0.072c0.181,0.085,0.318,0.237,0.386,0.426
		c0.002,0.005,0.004,0.01,0.006,0.015c0.099-0.588-0.014-1.202-0.329-1.715c-0.127-0.197-0.15-0.452-0.058-0.677
		c0.116-0.282,0.387-0.464,0.691-0.464c0.097,0,0.192,0.019,0.282,0.056c0.004,0.002,0.019,0.009,0.023,0.01
		c2.009,0.948,3.326,2.995,3.355,5.216C15.42,7.11,14,8.611,12.183,8.706C12.123,8.709,12.063,8.711,12.003,8.711z M10.63,3.45
		C9.946,3.848,9.538,4.61,9.599,5.417c0.068,1.289,1.125,2.294,2.408,2.294c0.041,0,0.083-0.001,0.125-0.003
		c1.283-0.067,2.286-1.127,2.282-2.413c-0.021-1.571-0.824-3.042-2.1-3.926c0.286,0.885,0.211,1.867-0.234,2.705
		c-0.068,0.127-0.187,0.219-0.326,0.252c-0.038,0.009-0.077,0.014-0.115,0.014c-0.104,0-0.204-0.032-0.289-0.092
		C11.052,4.037,10.808,3.764,10.63,3.45z"/>
</g>
</svg>
