<?xml version="1.0" encoding="utf-8"?>
<!-- Generator: Adobe Illustrator 22.1.0, SVG Export Plug-In . SVG Version: 6.00 Build 0)  -->
<svg version="1.1" id="Light" xmlns="http://www.w3.org/2000/svg" xmlns:xlink="http://www.w3.org/1999/xlink" x="0px" y="0px"
	 viewBox="0 0 24 24" style="enable-background:new 0 0 24 24;" xml:space="preserve">
<g>
	<title>christmas-tree-ornament</title>
	<path d="M11.999,15.793c-0.267,0-0.518-0.104-0.707-0.293l-0.793-0.793c-0.39-0.39-0.39-1.024,0-1.414l0.793-0.793
		c0.181-0.182,0.439-0.286,0.707-0.286c0.268,0,0.526,0.104,0.707,0.286l0.793,0.793c0.189,0.189,0.293,0.44,0.293,0.707
		s-0.104,0.518-0.293,0.707L12.706,15.5C12.517,15.689,12.266,15.793,11.999,15.793z M11.206,14l0.793,0.793L12.792,14l-0.793-0.793
		L11.206,14z"/>
	<path d="M6,15.792c-0.267,0-0.519-0.104-0.707-0.292L4.5,14.707c-0.39-0.39-0.39-1.024,0-1.414L5.292,12.5
		c0.189-0.188,0.44-0.292,0.707-0.292c0.267,0,0.518,0.104,0.707,0.292l0.793,0.793c0.189,0.189,0.293,0.44,0.293,0.707
		c0,0.267-0.104,0.518-0.293,0.707L6.707,15.5C6.518,15.688,6.267,15.792,6,15.792z M5.207,14l0.793,0.793L6.792,14L6,13.207
		L5.207,14z"/>
	<path d="M18,15.792c-0.267,0-0.518-0.104-0.707-0.293L16.5,14.707c-0.189-0.188-0.293-0.44-0.293-0.707
		c0-0.267,0.104-0.518,0.293-0.707l0.793-0.793c0.188-0.189,0.44-0.292,0.707-0.292s0.518,0.104,0.707,0.292l0.793,0.793
		c0.189,0.189,0.293,0.44,0.293,0.707s-0.104,0.518-0.293,0.707l-0.793,0.792C18.518,15.688,18.267,15.792,18,15.792z M17.207,14
		L18,14.792L18.792,14L18,13.207L17.207,14z"/>
	<path d="M12,24c-4.879,0-9.022-3.489-9.852-8.295c-0.003-0.014-0.006-0.029-0.008-0.044C2.047,15.106,2,14.547,2,14
		c0-0.55,0.048-1.112,0.142-1.67c0,0,0.005-0.029,0.006-0.037C2.819,8.411,5.694,5.301,9.5,4.319V3.5C9.5,2.673,10.173,2,11,2h0.5
		V0.5C11.5,0.224,11.724,0,12,0c0.276,0,0.5,0.224,0.5,0.5V2H13c0.827,0,1.5,0.673,1.5,1.5v0.819
		c3.802,0.981,6.677,4.089,7.35,7.968c0.004,0.018,0.008,0.038,0.01,0.057C21.953,12.898,22,13.455,22,14s-0.047,1.102-0.14,1.656
		c-0.002,0.021-0.006,0.042-0.011,0.063C21.017,20.515,16.875,24,12,24z M3.528,17.041C4.799,20.589,8.171,23,12,23
		c3.83,0,7.201-2.412,8.472-5.96l-1.795,1.538c-0.18,0.155-0.411,0.24-0.65,0.24c-0.268,0-0.52-0.104-0.708-0.292L15,16.207
		L12.708,18.5c-0.189,0.189-0.441,0.293-0.708,0.293c-0.268,0-0.519-0.104-0.708-0.293L9,16.207l-2.319,2.321
		c-0.188,0.188-0.439,0.292-0.708,0.292c-0.239,0-0.47-0.085-0.651-0.24L3.528,17.041z M5.973,17.821l2.673-2.674
		c0.091-0.091,0.22-0.144,0.354-0.144s0.262,0.052,0.354,0.144L12,17.792l2.647-2.646C14.741,15.052,14.866,15,15,15
		s0.259,0.052,0.354,0.146l2.673,2.673l2.869-2.46C20.965,14.906,21,14.449,21,14s-0.035-0.906-0.104-1.36l-2.869-2.459
		l-2.673,2.673C15.259,12.948,15.134,13,15,13s-0.259-0.052-0.354-0.146l-2.642-2.642l-2.651,2.642C9.259,12.948,9.134,13,9,13
		s-0.259-0.052-0.354-0.146L5.974,10.18l-2.869,2.46C3.035,13.094,3,13.551,3,14s0.035,0.906,0.104,1.36L5.973,17.821z M12,9.207
		c0.264,0,0.512,0.102,0.7,0.286c0.003,0.003,2.3,2.3,2.3,2.3l2.32-2.319c0.188-0.188,0.439-0.292,0.708-0.292
		c0.239,0,0.47,0.085,0.65,0.24l1.792,1.536c-1.041-2.879-3.534-5.093-6.553-5.75c-0.01-0.001-0.019-0.003-0.027-0.005
		C13.272,5.069,12.635,5.001,12,5c-0.635,0.001-1.273,0.069-1.894,0.204c-0.011,0.002-0.022,0.004-0.034,0.005
		C7.068,5.86,4.573,8.075,3.53,10.957L5.323,9.42c0.181-0.154,0.411-0.239,0.651-0.239c0.268,0,0.519,0.104,0.707,0.292L9,11.793
		L11.292,9.5c0.188-0.189,0.439-0.293,0.706-0.293C11.999,9.207,12,9.207,12,9.207z M11,3c-0.276,0-0.5,0.224-0.5,0.5v0.615
		c0.043-0.006,0.21-0.029,0.21-0.029c0.12-0.016,0.241-0.03,0.363-0.042c0.035-0.003,0.213-0.016,0.213-0.016
		c0.081-0.006,0.162-0.013,0.244-0.016C11.686,4.004,11.843,4,12,4c0,0,0,0,0,0c0.157,0,0.313,0.004,0.47,0.012
		c0.087,0.004,0.173,0.011,0.259,0.017l0.197,0.015c0.124,0.011,0.247,0.026,0.37,0.042c0,0,0.161,0.022,0.204,0.028V3.5
		C13.5,3.224,13.276,3,13,3H11z"/>
</g>
</svg>
