<?xml version="1.0" encoding="utf-8"?>
<!-- Generator: Adobe Illustrator 22.1.0, SVG Export Plug-In . SVG Version: 6.00 Build 0)  -->
<svg version="1.1" id="Light" xmlns="http://www.w3.org/2000/svg" xmlns:xlink="http://www.w3.org/1999/xlink" x="0px" y="0px"
	 viewBox="0 0 24 24" style="enable-background:new 0 0 24 24;" xml:space="preserve">
<g>
	<title>christmas-postcard-2</title>
	<path d="M1.5,20C0.673,20,0,19.327,0,18.5v-13C0,4.673,0.673,4,1.5,4h21C23.327,4,24,4.673,24,5.5v13c0,0.827-0.673,1.5-1.5,1.5
		H1.5z M1.5,5C1.224,5,1,5.224,1,5.5v13C1,18.776,1.224,19,1.5,19h21c0.276,0,0.5-0.224,0.5-0.5v-13C23,5.224,22.776,5,22.5,5H1.5z"
		/>
	<path d="M13.5,17c-0.276,0-0.5-0.224-0.5-0.5v-9C13,7.224,13.224,7,13.5,7S14,7.224,14,7.5v9C14,16.776,13.776,17,13.5,17z"/>
	<path d="M20,10c-1.103,0-2-0.897-2-2s0.897-2,2-2s2,0.897,2,2S21.103,10,20,10z M20,7c-0.552,0-1,0.449-1,1s0.448,1,1,1
		s1-0.449,1-1S20.552,7,20,7z"/>
	<path d="M15.5,13c-0.276,0-0.5-0.224-0.5-0.5c0-0.276,0.224-0.5,0.5-0.5h5c0.276,0,0.5,0.224,0.5,0.5c0,0.276-0.224,0.5-0.5,0.5
		H15.5z"/>
	<path d="M15.5,15c-0.276,0-0.5-0.224-0.5-0.5s0.224-0.5,0.5-0.5h5c0.276,0,0.5,0.224,0.5,0.5S20.776,15,20.5,15H15.5z"/>
	<path d="M15.5,17c-0.276,0-0.5-0.224-0.5-0.5s0.224-0.5,0.5-0.5h5c0.276,0,0.5,0.224,0.5,0.5S20.776,17,20.5,17H15.5z"/>
	<path d="M7.5,16.5c-0.134,0-0.259-0.052-0.354-0.146L6.5,15.707l-0.646,0.646C5.759,16.448,5.634,16.5,5.5,16.5
		s-0.259-0.052-0.354-0.146S5,16.134,5,16s0.052-0.259,0.146-0.354L6,14.793v-1.927L4.331,13.83l-0.312,1.166
		c-0.058,0.218-0.257,0.371-0.483,0.371c-0.044,0-0.088-0.006-0.13-0.017c-0.129-0.034-0.236-0.117-0.303-0.233
		c-0.067-0.116-0.085-0.251-0.05-0.38l0.237-0.883l-0.883-0.237C2.278,13.583,2.17,13.5,2.103,13.384
		c-0.067-0.116-0.085-0.251-0.05-0.38c0.059-0.218,0.257-0.371,0.483-0.371c0.044,0,0.087,0.006,0.129,0.017l1.166,0.312L5.5,12
		l-1.669-0.963l-1.166,0.312c-0.042,0.011-0.086,0.017-0.13,0.017c-0.226,0-0.424-0.152-0.483-0.371
		c-0.035-0.129-0.017-0.264,0.05-0.379c0.067-0.116,0.175-0.198,0.304-0.233l0.883-0.236L3.053,9.263
		C3.018,9.134,3.036,9,3.103,8.884C3.17,8.768,3.278,8.686,3.407,8.651c0.042-0.011,0.086-0.017,0.13-0.017
		c0.225,0,0.423,0.153,0.482,0.371l0.312,1.166L6,11.134V9.207L5.146,8.354C5.052,8.259,5,8.134,5,8s0.052-0.259,0.146-0.354
		S5.366,7.5,5.5,7.5s0.259,0.052,0.354,0.146L6.5,8.293l0.646-0.646C7.241,7.552,7.366,7.5,7.5,7.5s0.259,0.052,0.354,0.146
		S8,7.866,8,8S7.948,8.259,7.854,8.354L7,9.207v1.927l1.669-0.963l0.312-1.166c0.058-0.218,0.256-0.371,0.482-0.371
		c0.044,0,0.089,0.006,0.132,0.018C9.722,8.686,9.83,8.768,9.897,8.884C9.964,9,9.982,9.134,9.947,9.263L9.71,10.146l0.883,0.237
		c0.129,0.034,0.237,0.117,0.304,0.233c0.067,0.116,0.085,0.25,0.05,0.379c-0.058,0.218-0.257,0.37-0.483,0.371
		c-0.044,0-0.088-0.006-0.13-0.017l-1.166-0.312L7.5,12l1.669,0.963l1.166-0.312c0.042-0.011,0.086-0.017,0.13-0.017
		c0.225,0,0.424,0.153,0.482,0.371c0.035,0.129,0.017,0.264-0.05,0.38c-0.067,0.115-0.175,0.198-0.304,0.233L9.71,13.854
		l0.237,0.883c0.035,0.129,0.017,0.264-0.05,0.38c-0.067,0.115-0.175,0.198-0.304,0.233c-0.042,0.011-0.085,0.017-0.129,0.017
		c-0.226,0-0.424-0.152-0.483-0.371L8.669,13.83L7,12.866v1.927l0.854,0.854C7.948,15.741,8,15.866,8,16s-0.052,0.259-0.146,0.354
		S7.634,16.5,7.5,16.5z"/>
</g>
</svg>
