<?xml version="1.0" encoding="utf-8"?>
<!-- Generator: Adobe Illustrator 22.1.0, SVG Export Plug-In . SVG Version: 6.00 Build 0)  -->
<svg version="1.1" id="Light" xmlns="http://www.w3.org/2000/svg" xmlns:xlink="http://www.w3.org/1999/xlink" x="0px" y="0px"
	 viewBox="0 0 24 24" style="enable-background:new 0 0 24 24;" xml:space="preserve">
<g>
	<title>christmas-tree-ornaments-gift</title>
	<path d="M18.001,24.001c-0.552,0-1-0.448-1-1v-5c0-0.552,0.448-1,1-1h1.293l-1.146-1.146c-0.094-0.094-0.146-0.22-0.146-0.354
		s0.052-0.259,0.146-0.354s0.22-0.146,0.354-0.146s0.259,0.052,0.354,0.146l1.646,1.646l1.646-1.646
		c0.094-0.094,0.22-0.146,0.354-0.146s0.259,0.052,0.354,0.146s0.146,0.22,0.146,0.354s-0.052,0.259-0.146,0.354l-1.146,1.146h1.293
		c0.552,0,1,0.448,1,1v5c0,0.552-0.448,1-1,1H18.001z M23.001,23.001v-2h-2v2H23.001z M18.001,23.001h2v-2h-2V23.001z
		 M23.001,20.001v-2h-2v2H23.001z M20.001,20.001v-2h-2l0,2H20.001z"/>
	<path d="M21.501,7.001c-0.827,0-1.5-0.673-1.5-1.5c0-0.64,0.41-1.205,1-1.414V2.654c-1.526-0.033-3.167-0.273-5-0.733v1.666
		c0.59,0.209,1,0.774,1,1.414c0,0.827-0.673,1.5-1.5,1.5c-0.827,0-1.5-0.673-1.5-1.5c0-0.64,0.41-1.205,1-1.414V1.658
		c-0.697-0.198-1.424-0.428-2.164-0.685c-0.126-0.044-0.228-0.134-0.286-0.254c-0.058-0.12-0.066-0.256-0.022-0.382
		C12.598,0.136,12.788,0.001,13,0.001c0.056,0,0.111,0.009,0.164,0.028c3.167,1.099,5.847,1.632,8.193,1.632c0,0,0,0,0.001,0
		c0.717,0,1.412-0.052,2.065-0.154c0.026-0.004,0.052-0.006,0.078-0.006c0.248,0,0.455,0.178,0.494,0.423
		c0.021,0.132-0.011,0.264-0.09,0.372c-0.079,0.108-0.195,0.179-0.327,0.199c-0.497,0.078-1.026,0.128-1.577,0.151v1.441
		c0.59,0.209,1,0.774,1,1.414C23.001,6.328,22.328,7.001,21.501,7.001z M21.501,5.001c-0.276,0-0.5,0.224-0.5,0.5s0.224,0.5,0.5,0.5
		s0.5-0.224,0.5-0.5S21.777,5.001,21.501,5.001z M15.501,4.501c-0.276,0-0.5,0.224-0.5,0.5s0.224,0.5,0.5,0.5s0.5-0.224,0.5-0.5
		S15.777,4.501,15.501,4.501z"/>
	<path d="M7.502,24.001c-0.276,0-0.5-0.224-0.5-0.5v-4.5H1.001c-0.215,0-0.428-0.071-0.6-0.2c-0.441-0.331-0.531-0.959-0.2-1.4
		l3.3-4.4H2.436C2.237,13,2.046,12.942,1.882,12.834c-0.223-0.148-0.374-0.374-0.427-0.636c-0.053-0.262,0-0.529,0.148-0.751
		l2.963-4.446H4.401C4.183,6.988,4.014,6.939,3.871,6.85C3.402,6.559,3.258,5.941,3.549,5.473l3.099-4.999
		C6.73,0.341,6.843,0.228,6.976,0.147C7.133,0.05,7.314-0.001,7.498-0.001c0.351,0,0.67,0.178,0.854,0.476l3.099,4.999
		c0.099,0.159,0.151,0.342,0.15,0.529c0,0.267-0.104,0.518-0.293,0.706c-0.189,0.189-0.44,0.292-0.706,0.292h-0.166l2.965,4.446
		c0.11,0.165,0.168,0.356,0.168,0.554c0,0.267-0.104,0.518-0.292,0.707c-0.189,0.189-0.44,0.293-0.707,0.293h-1.067l3.3,4.4
		c0.129,0.172,0.2,0.385,0.2,0.6c0,0.552-0.448,1-1,1H8.002v4.5C8.002,23.776,7.778,24.001,7.502,24.001z M1.001,18.001l13,0
		l-3.696-4.928l-7.043,1.914L1.001,18.001z M4.501,12.001c0.191,0,0.362,0.106,0.447,0.276c0.085,0.171,0.067,0.371-0.047,0.524
		l-0.663,0.884l6.127-1.665c0.007-0.002,0.031-0.007,0.033-0.007c0.02-0.005,0.058-0.012,0.104-0.012h2.067l-2.453-3.678
		L3.71,10.089l-1.274,1.912L4.501,12.001z M5.501,6.001c0.185,0,0.354,0.101,0.441,0.264c0.087,0.163,0.078,0.36-0.025,0.513
		l-1.36,2.04l4.974-1.371L9.085,6.778C8.982,6.624,8.973,6.428,9.06,6.265c0.087-0.163,0.256-0.264,0.441-0.264h1.1
		c0,0-3.101-5.001-3.101-5.002L4.399,6c0,0,0.007,0,0.012,0.001H5.501z"/>
	<path d="M7.5,5.751c-0.413-0.001-0.748-0.338-0.748-0.75c0-0.408,0.329-0.742,0.735-0.75c0.005,0,0.023,0,0.028,0
		C7.907,4.259,8.23,4.575,8.249,4.965c0.002,0.012,0.003,0.025,0.003,0.036c0,0.414-0.336,0.75-0.75,0.75H7.5z"/>
	<path d="M6.501,12.001c-0.414,0-0.75-0.336-0.75-0.75c0-0.011,0.001-0.023,0.003-0.035c0.017-0.392,0.348-0.713,0.745-0.715
		c0.4,0,0.731,0.318,0.75,0.714c0.002,0.012,0.003,0.025,0.003,0.036C7.252,11.664,6.915,12.001,6.501,12.001L6.501,12.001z"/>
	<path d="M9.501,11.251c-0.414,0-0.75-0.336-0.75-0.75c0-0.011,0.001-0.023,0.003-0.035c0.016-0.388,0.341-0.706,0.733-0.714
		c0.005,0,0.023,0,0.028,0c0.392,0.008,0.715,0.324,0.734,0.714c0.002,0.012,0.003,0.025,0.003,0.036
		C10.252,10.914,9.915,11.251,9.501,11.251L9.501,11.251z"/>
	<path d="M10.501,17.251c-0.414,0-0.75-0.336-0.75-0.75c0-0.011,0.001-0.023,0.003-0.035c0.016-0.388,0.341-0.707,0.734-0.714
		c0.005,0,0.023,0,0.028,0c0.392,0.008,0.716,0.323,0.734,0.714c0.002,0.012,0.003,0.025,0.003,0.036
		C11.252,16.914,10.915,17.251,10.501,17.251L10.501,17.251z"/>
	<path d="M4.501,17.251c-0.414,0-0.75-0.336-0.75-0.75c0-0.011,0.001-0.023,0.003-0.035c0.016-0.388,0.341-0.707,0.734-0.714
		c0.005,0,0.023,0,0.028,0c0.392,0.008,0.716,0.323,0.734,0.714c0.002,0.012,0.003,0.025,0.003,0.036
		C5.252,16.914,4.915,17.251,4.501,17.251L4.501,17.251z"/>
	<path d="M7.501,16.751c-0.414,0-0.75-0.336-0.75-0.75c0-0.011,0.001-0.023,0.003-0.035c0.016-0.388,0.341-0.707,0.734-0.714
		c0.005,0,0.023,0,0.028,0c0.392,0.008,0.716,0.323,0.734,0.714c0.002,0.012,0.003,0.025,0.003,0.036
		C8.252,16.414,7.915,16.751,7.501,16.751L7.501,16.751z"/>
</g>
</svg>
