<?xml version="1.0" encoding="utf-8"?>
<!-- Generator: Adobe Illustrator 22.1.0, SVG Export Plug-In . SVG Version: 6.00 Build 0)  -->
<svg version="1.1" id="Light" xmlns="http://www.w3.org/2000/svg" xmlns:xlink="http://www.w3.org/1999/xlink" x="0px" y="0px"
	 viewBox="0 0 24 24" style="enable-background:new 0 0 24 24;" xml:space="preserve">
<g>
	<title>christmas-sugar-cane</title>
	<path d="M14.5,24.002c-1.378,0-2.5-1.122-2.5-2.5v-5.147c-0.235,0.08-0.482,0.122-0.732,0.122C10.017,16.477,9,15.46,9,14.209
		v-1.965c0-0.606,0.237-1.176,0.665-1.604c0.428-0.428,0.997-0.663,1.602-0.663c0.25,0,0.498,0.042,0.733,0.122V6.615
		c0.018-0.773-0.513-1.442-1.262-1.595c-0.074-0.012-0.157-0.019-0.24-0.019c-0.731,0-1.352,0.525-1.476,1.247
		C9.007,6.331,9,6.417,9,6.502v0.209c0,1.263-1.028,2.291-2.291,2.291H6.291C5.027,9.002,4,7.975,4,6.711
		C3.944,3.595,6.025,0.899,9.06,0.159C9.533,0.053,10.011,0,10.486,0c1.155,0,2.295,0.311,3.298,0.901
		c0.015,0.005,0.031,0.012,0.048,0.022c0.013,0.008,0.033,0.023,0.049,0.036c1.523,0.93,2.575,2.397,2.962,4.133
		c0.103,0.461,0.156,0.936,0.156,1.41v3.597c0.235-0.08,0.483-0.122,0.732-0.122c0.606,0,1.175,0.235,1.603,0.663
		c0.428,0.428,0.665,0.997,0.665,1.603v1.966c0,1.25-1.017,2.268-2.268,2.268c-0.25,0-0.497-0.042-0.732-0.122v5.147
		C17,22.881,15.878,24.002,14.5,24.002z M13,21.502c0,0.827,0.673,1.5,1.5,1.5s1.5-0.673,1.5-1.5v-2.108l-3-0.333V21.502z
		 M16,18.388v-2.703l-0.47-0.47c-0.311,0.189-0.664,0.288-1.03,0.288s-0.719-0.099-1.03-0.288L13,15.685v2.37L16,18.388z
		 M16.835,15.106c0.24,0.239,0.558,0.371,0.897,0.371c0.699,0,1.267-0.569,1.267-1.268v-1.965c0-0.339-0.132-0.657-0.372-0.896
		c-0.239-0.239-0.557-0.37-0.895-0.37c-0.34,0-0.658,0.132-0.898,0.371L16,12.184c0.207,0.235,0.356,0.516,0.434,0.818H17.5
		c0.276,0,0.5,0.224,0.5,0.5s-0.224,0.5-0.5,0.5h-1.066c-0.045,0.174-0.114,0.342-0.204,0.498L16.835,15.106z M11.267,10.977
		c-0.338,0-0.656,0.132-0.895,0.37C10.132,11.587,10,11.905,10,12.244v1.966c0,0.699,0.569,1.268,1.268,1.268
		c0.339,0,0.657-0.132,0.897-0.372l0.605-0.605c-0.09-0.156-0.159-0.324-0.204-0.498H11.5c-0.276,0-0.5-0.224-0.5-0.5
		s0.224-0.5,0.5-0.5h1.066c0.078-0.303,0.227-0.583,0.434-0.819l-0.835-0.836C11.925,11.109,11.606,10.977,11.267,10.977
		L11.267,10.977z M14.5,12.502c-0.552,0-1,0.448-1,1s0.448,1,1,1s1-0.448,1-1S15.051,12.502,14.5,12.502z M14.5,11.502
		c0.225,0,0.444,0.038,0.656,0.112L16,10.769V8.237l-3,0.667v1.865l0.844,0.845C14.055,11.54,14.275,11.502,14.5,11.502z
		 M6.106,3.241C5.369,4.234,4.978,5.454,5,6.703c0,0.719,0.579,1.3,1.291,1.3h0.418C7.421,8.002,8,7.423,8,6.711V6.502
		C8,6.36,8.012,6.217,8.036,6.078c0.057-0.33,0.18-0.647,0.36-0.927L6.106,3.241z M12.23,4.732C12.737,5.23,13.016,5.91,13,6.627
		v1.253l3-0.667v-0.71c0-0.401-0.045-0.802-0.132-1.192c-0.292-1.307-1.04-2.447-2.118-3.237L12.23,4.732z M9.099,4.435
		c0.414-0.281,0.904-0.433,1.401-0.433c0.141,0,0.282,0.012,0.422,0.036c0.163,0.033,0.32,0.081,0.471,0.143l1.499-2.624
		c-0.75-0.365-1.577-0.557-2.405-0.557c-0.401,0-0.805,0.045-1.2,0.133c-0.943,0.23-1.809,0.699-2.516,1.362L9.099,4.435z"/>
</g>
</svg>
