<?xml version="1.0" encoding="utf-8"?>
<!-- Generator: Adobe Illustrator 22.1.0, SVG Export Plug-In . SVG Version: 6.00 Build 0)  -->
<svg version="1.1" id="Light" xmlns="http://www.w3.org/2000/svg" xmlns:xlink="http://www.w3.org/1999/xlink" x="0px" y="0px"
	 viewBox="0 0 24 24" style="enable-background:new 0 0 24 24;" xml:space="preserve">
<g>
	<title>christmas-tree-ornaments-1</title>
	<path d="M7.5,24C4.467,24,2,21.533,2,18.5c0-2.26,1.399-4.294,3.5-5.117V13c0-0.913,0.631-1.709,1.5-1.934V6.814L3.968,7.392
		l1.588,1.715C5.743,9.31,5.731,9.626,5.529,9.814C5.436,9.9,5.315,9.947,5.189,9.947c-0.139,0-0.272-0.058-0.367-0.16L2.809,7.613
		L0.593,8.035C0.561,8.041,0.53,8.044,0.5,8.044c-0.24,0-0.446-0.171-0.491-0.406c-0.025-0.131,0.003-0.264,0.078-0.375
		c0.075-0.11,0.189-0.185,0.32-0.21l4.691-0.894L6.79,2.487c0.081-0.177,0.26-0.291,0.454-0.291c0.073,0,0.143,0.016,0.209,0.046
		c0.121,0.056,0.213,0.156,0.26,0.281c0.046,0.125,0.041,0.261-0.015,0.382L6.305,5.928l4.196-0.799l1.692-3.672
		c0.081-0.177,0.26-0.291,0.454-0.291c0.073,0,0.144,0.016,0.21,0.047c0.121,0.056,0.213,0.155,0.259,0.281
		c0.046,0.125,0.041,0.261-0.015,0.382l-1.393,3.024l4.685-0.893l1.694-3.714C18.167,0.114,18.346,0,18.541,0
		c0.072,0,0.142,0.015,0.208,0.045c0.25,0.114,0.362,0.411,0.248,0.662l-1.4,3.07l3.267-0.623l1.474-2.168
		c0.093-0.137,0.248-0.219,0.414-0.219c0.1,0,0.197,0.03,0.28,0.086c0.229,0.156,0.288,0.467,0.133,0.695l-0.912,1.341l0.78-0.149
		c0.033-0.006,0.063-0.009,0.093-0.009c0.24,0,0.447,0.171,0.492,0.406c0.052,0.271-0.127,0.533-0.397,0.585L22.44,3.872
		l1.341,0.912c0.11,0.075,0.185,0.189,0.21,0.32s-0.003,0.264-0.078,0.375C23.82,5.615,23.665,5.697,23.5,5.697
		c-0.101,0-0.198-0.03-0.281-0.087l-2.167-1.474L19,4.527v4.538c0.869,0.225,1.5,1.021,1.5,1.934c0,0.148-0.017,0.297-0.051,0.445
		c1.161,0.562,2.044,1.619,2.387,2.869c0.016,0.042,0.022,0.081,0.027,0.107C22.952,14.77,23,15.14,23,15.5s-0.048,0.73-0.142,1.101
		c0,0.008-0.006,0.043-0.022,0.085C22.301,18.638,20.521,20,18.5,20s-3.801-1.362-4.336-3.314c-0.016-0.042-0.022-0.08-0.027-0.107
		C14.048,16.229,14,15.858,14,15.5c0-0.36,0.048-0.73,0.142-1.101c0-0.008,0.006-0.043,0.022-0.085
		c0.343-1.25,1.226-2.307,2.387-2.869c-0.034-0.148-0.051-0.297-0.051-0.445c0-0.912,0.631-1.708,1.5-1.933V4.718l-2.736,0.521
		l1.982,2.141c0.091,0.098,0.138,0.225,0.133,0.359c-0.005,0.133-0.062,0.257-0.16,0.348c-0.093,0.086-0.213,0.133-0.34,0.133
		c-0.139,0-0.273-0.059-0.367-0.161L14.106,5.46L9.371,6.362l2.591,2.8c0.091,0.098,0.138,0.225,0.133,0.359
		c-0.005,0.134-0.062,0.257-0.16,0.348c-0.093,0.086-0.213,0.133-0.34,0.133c-0.139,0-0.272-0.058-0.367-0.16L8.212,6.583L8,6.623
		v4.442C8.869,11.291,9.5,12.087,9.5,13v0.383C11.601,14.206,13,16.24,13,18.5c0,0.121-0.008,0.239-0.017,0.357l-0.003,0.04
		C12.766,21.765,10.359,24,7.5,24z M3.21,19.84C3.794,21.711,5.528,23,7.5,23c1.934,0,3.62-1.219,4.244-3.016
		c-0.041,0.006-0.081,0.011-0.123,0.014c0,0-0.001,0-0.001,0c-0.895,0-1.287-0.695-1.602-1.254C9.708,18.195,9.557,18,9.328,18
		c-0.229,0-0.379,0.195-0.688,0.745C8.325,19.304,7.934,20,7.079,20c-0.856,0-1.248-0.697-1.564-1.257C5.22,18.219,5.059,18,4.83,18
		s-0.38,0.195-0.689,0.745C3.923,19.132,3.66,19.601,3.21,19.84z M15.342,17c0.576,1.209,1.803,2,3.157,2s2.582-0.791,3.157-2
		H15.342z M9.328,17c0.854,0,1.246,0.695,1.561,1.253C11.199,18.804,11.351,19,11.582,19c0.149-0.013,0.31-0.116,0.407-0.266
		l0-0.007C11.995,18.651,12,18.576,12,18.5c0-2.481-2.019-4.5-4.5-4.5S3,16.019,3,18.5c0,0.062,0.002,0.125,0.005,0.189
		c0.086-0.122,0.173-0.272,0.264-0.435C3.584,17.695,3.975,17,4.83,17c0.85,0,1.242,0.694,1.556,1.252
		C6.697,18.804,6.849,19,7.079,19c0.229,0,0.38-0.195,0.689-0.745C8.083,17.695,8.474,17,9.328,17z M21.964,16
		C21.988,15.835,22,15.667,22,15.5s-0.012-0.335-0.036-0.5h-6.928C15.012,15.165,15,15.333,15,15.5s0.012,0.335,0.036,0.5H21.964z
		 M21.657,14c-0.576-1.209-1.803-2-3.157-2s-2.582,0.791-3.157,2H21.657z M7.5,12c-0.551,0-1,0.448-1,1v0.096
		C6.838,13.032,7.173,13,7.5,13s0.662,0.032,1,0.096V13C8.5,12.448,8.051,12,7.5,12z M18.5,11c0.331,0,0.664,0.038,0.993,0.114
		c0.004-0.038,0.007-0.075,0.007-0.113c0-0.552-0.448-1.001-1-1.001s-1,0.449-1,1c0,0.038,0.002,0.076,0.007,0.114
		C17.836,11.038,18.169,11,18.5,11z"/>
</g>
</svg>
