<?xml version="1.0" encoding="utf-8"?>
<!-- Generator: Adobe Illustrator 22.1.0, SVG Export Plug-In . SVG Version: 6.00 Build 0)  -->
<svg version="1.1" id="Light" xmlns="http://www.w3.org/2000/svg" xmlns:xlink="http://www.w3.org/1999/xlink" x="0px" y="0px"
	 viewBox="0 0 24 24" style="enable-background:new 0 0 24 24;" xml:space="preserve">
<g>
	<title>christmas-snow</title>
	<circle cx="0.75" cy="0.746" r="0.75"/>
	<circle cx="3.5" cy="4.746" r="0.75"/>
	<circle cx="9.75" cy="1.746" r="0.75"/>
	<circle cx="14.25" cy="4.746" r="0.75"/>
	<circle cx="23.25" cy="3.746" r="0.75"/>
	<circle cx="7.75" cy="7.246" r="0.75"/>
	<circle cx="0.75" cy="10.496" r="0.75"/>
	<circle cx="11.75" cy="11.246" r="0.75"/>
	<circle cx="17.75" cy="0.746" r="0.75"/>
	<path d="M17.761,23.99c-1.237,0-2.467-0.156-3.656-0.465l-4.253-1.1c-1.125-0.292-2.277-0.439-3.424-0.439
		c-0.621,0-1.247,0.044-1.862,0.13h0c0.006,0-0.025,0.009-0.066,0.009c-1.06,0.154-2.108,0.436-3.115,0.838l-0.699,0.281
		c-0.059,0.024-0.122,0.036-0.186,0.036c-0.205,0-0.387-0.123-0.464-0.313c-0.103-0.256,0.021-0.548,0.277-0.651l0.7-0.282
		C1.976,21.649,2.98,21.367,4,21.193v-1.197H1.413c-0.305,0-0.597-0.123-0.807-0.338c-0.42-0.43-0.422-1.126-0.008-1.56l0.669-0.853
		c-0.067-0.042-0.13-0.092-0.188-0.148c-0.435-0.426-0.449-1.131-0.031-1.573l1.016-1.286c-0.095-0.06-0.182-0.135-0.256-0.224
		c-0.388-0.461-0.339-1.157,0.107-1.558l1.745-1.884c0.018-0.02,0.036-0.037,0.053-0.053c0.187-0.173,0.429-0.267,0.681-0.267
		c0.279,0,0.546,0.117,0.735,0.321l1.726,1.878c0.015,0.013,0.029,0.026,0.043,0.039c0.445,0.432,0.456,1.145,0.025,1.589
		c-0.059,0.061-0.125,0.115-0.196,0.161l1.044,1.291c0.41,0.417,0.408,1.123-0.02,1.556c-0.064,0.064-0.134,0.12-0.21,0.167
		l0.654,0.851c0.194,0.206,0.305,0.485,0.306,0.768c0.001,0.619-0.502,1.123-1.121,1.124H5v1.063
		c0.476-0.047,0.957-0.071,1.433-0.071c1.231,0,2.466,0.158,3.669,0.47l4.252,1.1c1.108,0.287,2.253,0.433,3.406,0.433
		c1.898,0,3.812-0.405,5.533-1.17c0.065-0.029,0.133-0.043,0.203-0.043c0.198,0,0.377,0.117,0.457,0.297
		c0.112,0.252-0.002,0.548-0.254,0.66C21.852,23.556,19.799,23.99,17.761,23.99z M2.307,16.229c0.121,0,0.239,0.044,0.33,0.124
		c0.199,0.174,0.228,0.475,0.064,0.684l-1.333,1.7c-0.015,0.018-0.028,0.034-0.043,0.049c-0.049,0.048-0.05,0.125-0.003,0.173
		c0.02,0.021,0.06,0.036,0.094,0.037h5.963c0.067,0,0.121-0.055,0.121-0.122c0-0.032-0.013-0.064-0.036-0.086
		c-0.017-0.017-0.032-0.033-0.045-0.051l-1.3-1.692c-0.16-0.208-0.131-0.506,0.066-0.679c0.092-0.081,0.209-0.125,0.331-0.125
		c0.133,0,0.257,0.051,0.352,0.145c0.031,0.031,0.067,0.035,0.086,0.035c0.019,0,0.056-0.005,0.087-0.036
		c0.031-0.031,0.035-0.068,0.035-0.087S7.07,16.241,7.039,16.21c-0.014-0.014-0.026-0.027-0.037-0.041l-1.707-2.111
		c-0.166-0.205-0.144-0.506,0.052-0.684c0.092-0.084,0.211-0.131,0.337-0.131c0.131,0,0.254,0.05,0.348,0.141
		c0.023,0.022,0.054,0.035,0.086,0.035c0.02,0,0.057-0.005,0.088-0.037c0.047-0.048,0.046-0.127-0.003-0.174
		c-0.029-0.024-0.046-0.041-0.062-0.058l-1.746-1.9l-1.763,1.904c-0.012,0.014-0.028,0.028-0.044,0.042
		c-0.051,0.043-0.058,0.121-0.015,0.173c0.023,0.027,0.057,0.043,0.093,0.043c0.02,0,0.051-0.005,0.079-0.029l0.012-0.011
		c0.089-0.085,0.212-0.134,0.341-0.134c0.125,0,0.245,0.046,0.337,0.131c0.193,0.176,0.217,0.475,0.055,0.68l-1.679,2.123
		c-0.011,0.014-0.023,0.028-0.036,0.041c-0.028,0.029-0.032,0.065-0.032,0.084s0.005,0.055,0.036,0.085
		c0.025,0.024,0.043,0.035,0.089,0.035c0.03,0,0.059-0.013,0.082-0.037C2.045,16.282,2.172,16.229,2.307,16.229z"/>
	<path d="M10.432,19.199c-0.207,0-0.395-0.13-0.468-0.323c-0.097-0.258,0.033-0.547,0.291-0.645c0.509-0.193,1.01-0.427,1.486-0.695
		l1.824-1.029c1.666-0.94,3.54-1.461,5.436-1.514v-0.997h-2.587c-0.3,0-0.581-0.117-0.793-0.329
		c-0.212-0.212-0.329-0.494-0.329-0.794c0-0.288,0.108-0.56,0.305-0.768l0.672-0.859c-0.068-0.042-0.131-0.092-0.189-0.149
		c-0.214-0.209-0.334-0.489-0.338-0.789c-0.003-0.293,0.105-0.571,0.306-0.784l1.017-1.287c-0.096-0.061-0.182-0.136-0.257-0.224
		c-0.388-0.46-0.34-1.156,0.107-1.558l1.745-1.884c0.017-0.019,0.035-0.037,0.054-0.054c0.187-0.172,0.428-0.266,0.681-0.266
		c0.279,0,0.546,0.117,0.735,0.321l1.726,1.878c0.015,0.013,0.029,0.026,0.043,0.04c0.216,0.21,0.337,0.49,0.342,0.79
		c0.005,0.3-0.108,0.583-0.317,0.799c-0.06,0.061-0.125,0.115-0.196,0.161l1.043,1.291c0.189,0.191,0.303,0.468,0.304,0.76
		c0.002,0.3-0.113,0.582-0.324,0.795c-0.064,0.064-0.134,0.12-0.21,0.167l0.654,0.851c0.194,0.206,0.305,0.486,0.305,0.769
		c0,0.299-0.116,0.581-0.328,0.793c-0.212,0.212-0.493,0.329-0.793,0.33H20v1.013c1.265,0.073,2.503,0.35,3.686,0.822
		c0.124,0.05,0.221,0.145,0.274,0.267s0.054,0.259,0.005,0.383c-0.076,0.191-0.259,0.315-0.465,0.315
		c-0.064,0-0.127-0.012-0.186-0.036c-1.206-0.482-2.476-0.74-3.776-0.766c-0.013,0.002-0.026,0.003-0.037,0.003
		c-0.021,0-0.039-0.002-0.054-0.005h-0.124c-1.838,0-3.658,0.48-5.266,1.387l-1.824,1.029c-0.52,0.293-1.067,0.549-1.624,0.759
		C10.552,19.188,10.492,19.199,10.432,19.199z M17.307,10.229c0.121,0,0.238,0.044,0.329,0.124c0.2,0.175,0.228,0.475,0.065,0.684
		l-1.333,1.705c-0.013,0.016-0.026,0.031-0.041,0.046c-0.023,0.023-0.036,0.053-0.036,0.087c0,0.032,0.012,0.062,0.036,0.086
		c0.023,0.023,0.053,0.036,0.087,0.036h5.964c0.067,0,0.121-0.055,0.121-0.122c0-0.032-0.013-0.064-0.035-0.085
		c-0.018-0.018-0.033-0.035-0.047-0.053l-1.299-1.691c-0.159-0.208-0.131-0.506,0.065-0.679c0.092-0.081,0.21-0.125,0.331-0.125
		c0.133,0,0.258,0.052,0.352,0.145c0.031,0.03,0.067,0.035,0.086,0.035s0.056-0.005,0.087-0.036s0.035-0.068,0.035-0.087
		c0-0.019-0.005-0.056-0.036-0.086c-0.013-0.012-0.025-0.026-0.037-0.041l-1.707-2.111c-0.166-0.205-0.144-0.505,0.051-0.683
		c0.093-0.085,0.212-0.131,0.337-0.131c0.131,0,0.255,0.05,0.349,0.142c0.022,0.022,0.053,0.034,0.085,0.034
		c0.02,0,0.057-0.005,0.089-0.037c0.023-0.024,0.035-0.054,0.034-0.087c0-0.034-0.013-0.064-0.037-0.087
		c-0.028-0.023-0.046-0.04-0.062-0.058l-1.746-1.9l-1.763,1.905c-0.013,0.014-0.028,0.029-0.044,0.042
		c-0.033,0.028-0.041,0.064-0.042,0.083c-0.002,0.019,0,0.056,0.028,0.089c0.023,0.027,0.057,0.043,0.093,0.043
		c0.02,0,0.05-0.005,0.078-0.028c0.081-0.081,0.214-0.135,0.349-0.135c0.123,0,0.24,0.044,0.33,0.124
		c0.201,0.18,0.229,0.47,0.067,0.675l-1.679,2.123c-0.01,0.013-0.022,0.027-0.035,0.04c-0.023,0.023-0.035,0.053-0.034,0.086
		c0,0.033,0.013,0.062,0.037,0.086c0.019,0.018,0.06,0.034,0.092,0.034c0.027,0,0.057-0.013,0.08-0.036
		C17.044,10.282,17.171,10.229,17.307,10.229z"/>
</g>
</svg>
