<?xml version="1.0" encoding="utf-8"?>
<!-- Generator: Adobe Illustrator 22.1.0, SVG Export Plug-In . SVG Version: 6.00 Build 0)  -->
<svg version="1.1" id="Light" xmlns="http://www.w3.org/2000/svg" xmlns:xlink="http://www.w3.org/1999/xlink" x="0px" y="0px"
	 viewBox="0 0 24 24" style="enable-background:new 0 0 24 24;" xml:space="preserve">
<g>
	<title>christmas-star</title>
	<path d="M18.441,24.005c-0.063,0-0.126-0.006-0.189-0.018c-0.262-0.05-0.489-0.199-0.64-0.42l-7.522-10.781
		c-0.157-0.226-0.102-0.538,0.124-0.696C10.3,12.031,10.398,12,10.5,12c0.163,0,0.317,0.08,0.41,0.214L18.436,23l0.833-3.37
		c0.044-0.181,0.185-0.321,0.366-0.366l3.37-0.829l-10.79-7.526c-0.226-0.158-0.282-0.47-0.124-0.696
		C12.184,10.08,12.338,10,12.501,10c0.103,0,0.202,0.031,0.286,0.09l10.79,7.521c0.203,0.138,0.348,0.35,0.406,0.594
		c0.127,0.536-0.206,1.076-0.743,1.203l-3.072,0.756l-0.757,3.077c-0.057,0.24-0.203,0.452-0.411,0.593
		C18.835,23.945,18.641,24.005,18.441,24.005z"/>
	<path d="M7.879,14.257c-0.378,0-0.72-0.209-0.891-0.545l-1.836-3.581l-4.005,0.59c-0.048,0.007-0.096,0.01-0.144,0.01
		c-0.265,0-0.523-0.107-0.709-0.292c-0.39-0.39-0.39-1.024-0.001-1.414L3.12,6.203L1.317,2.661c-0.144-0.284-0.144-0.622,0-0.905
		c0.12-0.238,0.327-0.415,0.581-0.498c0.102-0.033,0.207-0.05,0.312-0.05c0.155,0,0.311,0.037,0.451,0.108L6.204,3.12l2.821-2.827
		C9.21,0.106,9.469-0.001,9.734-0.001c0.048,0,0.096,0.003,0.143,0.01c0.546,0.08,0.925,0.588,0.845,1.134l-0.59,4.005l3.581,1.837
		c0.283,0.144,0.482,0.418,0.532,0.732c0.043,0.263-0.02,0.528-0.177,0.744c-0.157,0.217-0.388,0.359-0.652,0.401L9.495,9.495
		l-0.63,3.92c-0.05,0.313-0.249,0.588-0.532,0.733C8.193,14.219,8.036,14.257,7.879,14.257z M5.433,9.084
		c0.188,0,0.359,0.104,0.445,0.272l2,3.9l0.688-4.277c0.034-0.213,0.201-0.38,0.414-0.414l4.279-0.689l-3.901-2
		C9.167,5.777,9.06,5.569,9.091,5.357l0.642-4.359L6.655,4.084C6.56,4.178,6.434,4.23,6.301,4.23c-0.078,0-0.157-0.019-0.227-0.054
		L2.208,2.208l1.968,3.866c0.099,0.194,0.062,0.427-0.092,0.581L1,9.732L5.36,9.09C5.384,9.086,5.408,9.084,5.433,9.084z"/>
</g>
</svg>
