<?xml version="1.0" encoding="utf-8"?>
<!-- Generator: Adobe Illustrator 22.1.0, SVG Export Plug-In . SVG Version: 6.00 Build 0)  -->
<svg version="1.1" id="Layer_1" xmlns="http://www.w3.org/2000/svg" xmlns:xlink="http://www.w3.org/1999/xlink" x="0px" y="0px"
	 viewBox="0 0 24 24" style="enable-background:new 0 0 24 24;" xml:space="preserve">
<g>
	<title>old-people-woman-1</title>
	<path d="M12,15.5c-2.73,0-5.171-1.747-6.1-4.26c-0.355,1.05-0.95,2.193-1.94,2.846l-0.233,0.148l0.214-0.13
		c0.502,0.226,1.047,0.343,1.609,0.343c0.283,0,0.568-0.031,0.848-0.09c0.034-0.008,0.07-0.011,0.106-0.011
		c0.234,0,0.438,0.167,0.487,0.396c0.057,0.27-0.115,0.536-0.385,0.593c-0.347,0.074-0.702,0.112-1.054,0.113
		c-0.705,0-1.393-0.148-2.044-0.44c-0.187-0.096-0.326-0.223-0.423-0.384c-0.287-0.475-0.135-1.095,0.34-1.382
		C5.014,12.193,5.473,9.3,5.499,7.646C3.94,7.48,2.398,7.258,0.91,6.985C0.779,6.961,0.664,6.887,0.589,6.777
		c-0.076-0.11-0.104-0.243-0.08-0.374C0.552,6.165,0.758,5.993,1,5.993c0.03,0,0.061,0.003,0.092,0.009
		C2.52,6.264,4.002,6.478,5.5,6.641V6.493c0-0.177,0.008-0.361,0.026-0.563l0.006-0.079c0.016-0.165,0.04-0.333,0.073-0.516
		l0.02-0.109c0.031-0.158,0.07-0.319,0.118-0.491l0.033-0.114c0.047-0.154,0.101-0.313,0.163-0.472
		C5.95,4.116,5.955,4.1,5.962,4.083C5.966,4.073,5.973,4.06,5.98,4.048C6.976,1.589,9.34-0.007,12-0.007
		c2.657,0,5.019,1.592,6.022,4.057c0.007,0.012,0.013,0.025,0.017,0.035c0.006,0.015,0.011,0.031,0.017,0.048
		c0.068,0.177,0.123,0.335,0.168,0.487l0.033,0.115c0.048,0.171,0.087,0.331,0.118,0.489l0.02,0.112
		c0.033,0.183,0.057,0.351,0.073,0.513l0.006,0.081C18.492,6.132,18.5,6.316,18.5,6.493v0.148c1.498-0.162,2.98-0.377,4.41-0.64
		c0.031-0.006,0.061-0.008,0.091-0.008c0.241,0,0.448,0.172,0.491,0.41c0.024,0.131-0.005,0.264-0.08,0.374
		c-0.076,0.11-0.19,0.184-0.321,0.208c-1.488,0.273-3.031,0.495-4.589,0.662c0.026,1.654,0.487,4.548,2.089,5.607
		c0.218,0.132,0.377,0.351,0.44,0.612s0.021,0.531-0.117,0.759c-0.095,0.158-0.232,0.286-0.397,0.372
		c-0.673,0.304-1.368,0.455-2.078,0.455c-0.345,0-0.695-0.037-1.038-0.109c-0.131-0.028-0.243-0.104-0.316-0.216
		s-0.098-0.246-0.07-0.376c0.049-0.23,0.254-0.397,0.49-0.397c0.034,0,0.069,0.004,0.103,0.011c0.276,0.058,0.556,0.088,0.834,0.088
		c0.555,0,1.097-0.115,1.61-0.341c-0.997-0.671-1.595-1.818-1.951-2.87C17.172,13.753,14.731,15.5,12,15.5z M6.5,9
		c0,3.033,2.467,5.5,5.5,5.5s5.5-2.467,5.5-5.5V7.772c-0.994,0.079-2.02,0.137-3.053,0.173C13.577,7.98,12.776,7.997,12,7.997
		c-0.776,0-1.577-0.017-2.45-0.052C8.519,7.909,7.494,7.851,6.5,7.772V9z M6.5,6.742c1.096,0.1,2.219,0.172,3.344,0.212
		c0.714,0.022,1.44,0.034,2.156,0.034s1.442-0.011,2.158-0.034c1.123-0.04,2.247-0.112,3.342-0.212V6.493
		c0-0.141-0.007-0.281-0.018-0.42l-0.008-0.097c-0.012-0.13-0.029-0.257-0.05-0.384l-0.021-0.114
		c-0.023-0.126-0.05-0.251-0.083-0.374l-0.026-0.093c-0.02-0.072-0.042-0.143-0.065-0.214C15.502,4.927,13.743,4.993,12,4.993
		c-1.743,0-3.501-0.066-5.231-0.196c-0.023,0.07-0.044,0.141-0.064,0.212L6.678,5.106C6.646,5.228,6.619,5.352,6.596,5.477
		L6.575,5.594C6.554,5.72,6.537,5.847,6.525,5.975L6.518,6.073C6.507,6.212,6.5,6.351,6.5,6.492V6.742z M7.194,3.823
		C8.785,3.934,10.4,3.99,12,3.99c1.6,0,3.215-0.056,4.806-0.167c-0.966-1.73-2.814-2.83-4.806-2.83
		C10.008,0.993,8.16,2.092,7.194,3.823z"/>
	<path d="M23,24c-0.276,0-0.5-0.224-0.5-0.5v-2.106c0.003-0.461-0.212-0.903-0.575-1.183c-0.971-0.741-2.697-1.729-5.447-2.288
		c-0.118,0.908-0.734,1.7-1.604,2.025L12.5,20.839v2.654c0,0.276-0.224,0.5-0.5,0.5c-0.276,0-0.5-0.224-0.5-0.5v-2.654l-2.375-0.891
		c-0.868-0.324-1.484-1.116-1.602-2.023c-2.746,0.559-4.474,1.547-5.45,2.288c-0.361,0.278-0.576,0.719-0.573,1.178V23.5
		C1.5,23.776,1.276,24,1,24s-0.5-0.224-0.5-0.5v-2.106c-0.005-0.767,0.355-1.506,0.965-1.975C2.9,18.328,6.174,16.5,12,16.5
		c5.839,0,9.105,1.828,10.533,2.917c0.611,0.471,0.972,1.21,0.967,1.98V23.5C23.5,23.776,23.276,24,23,24z M8.507,17.75
		c0.055,0.564,0.43,1.061,0.968,1.262L12,19.959l2.524-0.947c0.539-0.201,0.914-0.698,0.969-1.263
		C14.394,17.584,13.221,17.5,12,17.5C10.781,17.5,9.607,17.584,8.507,17.75z"/>
	<path d="M12,12.496c-0.648,0-1.287-0.212-1.8-0.596c-0.107-0.08-0.176-0.197-0.195-0.329C9.986,11.439,10.02,11.307,10.1,11.2
		c0.094-0.125,0.244-0.2,0.4-0.2c0.109,0,0.213,0.035,0.3,0.1c0.341,0.256,0.767,0.397,1.2,0.397c0.432,0,0.859-0.141,1.2-0.397
		c0.086-0.065,0.19-0.1,0.3-0.1c0.157,0,0.306,0.075,0.4,0.2c0.08,0.107,0.114,0.238,0.095,0.371
		c-0.019,0.132-0.088,0.249-0.195,0.329C13.288,12.285,12.648,12.496,12,12.496z"/>
	<circle cx="14" cy="9" r="0.75"/>
	<circle cx="10" cy="9" r="0.75"/>
</g>
</svg>
