<?xml version="1.0" encoding="utf-8"?>
<!-- Generator: Adobe Illustrator 22.1.0, SVG Export Plug-In . SVG Version: 6.00 Build 0)  -->
<svg version="1.1" id="Light" xmlns="http://www.w3.org/2000/svg" xmlns:xlink="http://www.w3.org/1999/xlink" x="0px" y="0px"
	 viewBox="0 0 24 24" style="enable-background:new 0 0 24 24;" xml:space="preserve">
<g>
	<title>medical-hospital-2</title>
	<path d="M13.173,13.253c-0.281-0.018-0.49-0.257-0.472-0.532l0.67-10.254c0.004-0.059,0.004-0.12,0-0.181
		c-0.047-0.719-0.647-1.283-1.365-1.283c-0.031,0-0.063,0.001-0.095,0.003c-0.367,0.024-0.702,0.189-0.944,0.465
		c-0.242,0.276-0.362,0.629-0.338,0.996l0.649,9.942c0.018,0.275-0.192,0.514-0.466,0.532c-0.005,0-0.021,0.001-0.026,0.001
		c-0.266,0-0.488-0.205-0.505-0.467l-0.04-0.612c-0.576-0.088-1.138-0.218-1.675-0.385c-0.128-0.04-0.232-0.127-0.294-0.245
		s-0.074-0.254-0.034-0.381c0.065-0.21,0.257-0.351,0.477-0.351c0.051,0,0.101,0.008,0.15,0.023c0.42,0.131,0.859,0.237,1.31,0.315
		L9.785,4.897C8.679,4.005,7.714,2.96,6.917,1.791C6.633,1.297,6.128,1,5.591,1H1.512c0.044,0.947,0.215,1.881,0.51,2.78
		l3.262-1.247C5.341,2.511,5.401,2.5,5.462,2.5c0.206,0,0.394,0.129,0.467,0.322c0.048,0.125,0.044,0.26-0.01,0.382
		C5.864,3.326,5.765,3.419,5.641,3.467L2.379,4.714c0.38,0.868,0.875,1.677,1.474,2.412l2.6-2.328
		C6.544,4.715,6.663,4.67,6.786,4.67c0.142,0,0.278,0.061,0.373,0.167C7.342,5.042,7.325,5.359,7.12,5.543L4.521,7.87
		c0.067,0.068,0.135,0.135,0.204,0.202c0.096,0.092,0.151,0.217,0.154,0.35c0.003,0.134-0.047,0.26-0.139,0.357
		C4.646,8.876,4.515,8.932,4.379,8.932c-0.13,0-0.253-0.049-0.346-0.139c-0.181-0.174-0.37-0.369-0.576-0.598
		C3.449,8.188,3.441,8.181,3.435,8.174C3.427,8.165,3.419,8.156,3.412,8.145c-1.744-1.946-2.777-4.47-2.9-7.098
		c-0.026-0.55,0.401-1.02,0.951-1.046L1.512,0h4.079c0.896,0,1.728,0.484,2.173,1.261c0.55,0.804,1.199,1.557,1.93,2.237
		L9.631,2.532C9.59,1.9,9.797,1.289,10.215,0.812c0.418-0.477,0.997-0.762,1.63-0.804c0.052-0.003,0.102-0.005,0.153-0.005
		c1.248,0,2.29,0.975,2.371,2.219c0.007,0.103,0.007,0.207,0,0.309l-0.063,0.965c0.733-0.682,1.387-1.443,1.951-2.27
		C16.684,0.477,17.513,0,18.409,0h4.079c0.007,0,0.051,0.001,0.058,0.002c0.259,0.012,0.504,0.128,0.683,0.326
		s0.271,0.454,0.259,0.72c-0.122,2.627-1.153,5.149-2.905,7.104c-0.002,0.004-0.005,0.007-0.008,0.01
		c-0.008,0.01-0.018,0.02-0.028,0.03c-0.225,0.249-0.44,0.47-0.656,0.672C19.799,8.952,19.677,9,19.549,9
		c-0.137,0-0.27-0.057-0.364-0.157c-0.189-0.201-0.179-0.518,0.021-0.707c0.088-0.083,0.177-0.17,0.272-0.267l-2.598-2.326
		c-0.205-0.184-0.223-0.501-0.039-0.706c0.094-0.106,0.23-0.167,0.373-0.167c0.124,0,0.242,0.045,0.334,0.128l2.599,2.328
		c0.602-0.736,1.098-1.545,1.477-2.41l-3.264-1.248c-0.257-0.099-0.387-0.388-0.288-0.646C18.145,2.629,18.333,2.5,18.538,2.5
		c0.061,0,0.121,0.011,0.178,0.033l3.263,1.248c0.294-0.897,0.465-1.831,0.509-2.78L18.409,1c-0.538,0-1.038,0.291-1.305,0.757
		c-0.813,1.196-1.782,2.247-2.89,3.14l-0.388,5.942c0.355-0.062,0.703-0.141,1.038-0.236c0.004-0.001,0.008-0.002,0.012-0.003
		c0.087-0.024,0.17-0.049,0.257-0.077c0.05-0.016,0.101-0.024,0.153-0.024c0.218,0,0.409,0.14,0.476,0.348
		c0.041,0.127,0.03,0.262-0.031,0.381c-0.061,0.119-0.165,0.207-0.292,0.248c-0.098,0.031-0.192,0.06-0.295,0.088
		c-0.002,0.001-0.004,0.001-0.006,0.002c-0.443,0.125-0.905,0.225-1.377,0.297l-0.06,0.923c-0.018,0.262-0.237,0.467-0.499,0.467
		C13.197,13.254,13.176,13.253,13.173,13.253z"/>
	<path d="M11.132,18.359c-0.262,0-0.482-0.205-0.499-0.467l-0.101-1.544c-0.018-0.275,0.191-0.514,0.466-0.532
		c0.005,0,0.027-0.001,0.032-0.001c0.263,0,0.482,0.205,0.499,0.467l0.101,1.544c0.018,0.275-0.191,0.514-0.466,0.532
		C11.159,18.358,11.137,18.359,11.132,18.359z"/>
	<path d="M12.859,18.083c-0.139-0.009-0.261-0.069-0.349-0.17c-0.088-0.1-0.132-0.229-0.123-0.362l0.057-0.87
		c0.017-0.262,0.238-0.467,0.503-0.467c0.005,0,0.023,0,0.028,0.001c0.133,0.009,0.255,0.069,0.343,0.169
		c0.088,0.1,0.132,0.229,0.123,0.362l-0.057,0.87c-0.018,0.262-0.237,0.467-0.499,0.467C12.883,18.084,12.863,18.083,12.859,18.083z
		"/>
	<path d="M8.212,19.132c-0.068,0-0.135-0.014-0.198-0.041c-0.828-0.359-1.406-1.138-1.511-2.034
		c-0.003-0.029-0.004-0.059-0.002-0.089c0.04-0.664,0.373-1.269,0.914-1.657c0.085-0.061,0.186-0.094,0.292-0.094
		c0.161,0,0.312,0.078,0.406,0.208c0.161,0.224,0.11,0.537-0.114,0.698c-0.283,0.204-0.463,0.518-0.497,0.864
		c0.077,0.523,0.423,0.976,0.908,1.187c0.253,0.11,0.37,0.405,0.26,0.658C8.591,19.014,8.411,19.132,8.212,19.132z"/>
	<path d="M12,24c-2.565,0-4.5-1.075-4.5-2.5S9.435,19,12,19c0.001,0,0.097,0,0.097,0c1.004,0,1.981-0.181,2.905-0.538
		C15.938,18.075,16.5,17.528,16.5,17c0-1.065-2.103-2-4.5-2c-4.276,0-7.5-1.505-7.5-3.5c0-1.107,0.549-2.135,1.471-2.748
		l1.752-1.168C7.805,7.529,7.901,7.5,8,7.5c0.168,0,0.323,0.083,0.416,0.223C8.49,7.834,8.517,7.967,8.49,8.098
		C8.464,8.229,8.388,8.342,8.277,8.416L6.525,9.584C5.883,10.012,5.5,10.728,5.5,11.5c0,1.183,2.669,2.5,6.5,2.5
		c3.135,0,5.5,1.29,5.5,3c0,0.961-0.775,1.832-2.127,2.391c-1.048,0.406-2.141,0.61-3.254,0.61L11.996,20
		c-2,0-3.496,0.792-3.496,1.5c0,0.708,1.497,1.5,3.5,1.5c1.514,0,2.935-0.481,3.378-1.143c0.093-0.139,0.248-0.222,0.416-0.222
		c0.099,0,0.195,0.029,0.278,0.084c0.111,0.074,0.186,0.188,0.212,0.319c0.026,0.131-0.001,0.264-0.075,0.375
		C15.574,23.362,13.882,24,12,24z"/>
	<path d="M16.035,14.452c-0.222,0-0.414-0.143-0.479-0.355c-0.08-0.264,0.07-0.543,0.333-0.624c1.61-0.487,2.61-1.243,2.61-1.973
		c0-0.772-0.383-1.488-1.025-1.916l-1.752-1.168c-0.111-0.074-0.187-0.187-0.213-0.318c-0.026-0.131,0-0.264,0.074-0.376
		C15.676,7.583,15.832,7.5,16,7.5c0.099,0,0.195,0.029,0.277,0.084l1.752,1.168c0.921,0.614,1.471,1.641,1.471,2.748
		c0,1.223-1.21,2.292-3.32,2.93C16.133,14.445,16.084,14.452,16.035,14.452z"/>
</g>
</svg>
