<?xml version="1.0" encoding="utf-8"?>
<!-- Generator: Adobe Illustrator 22.1.0, SVG Export Plug-In . SVG Version: 6.00 Build 0)  -->
<svg version="1.1" id="Light" xmlns="http://www.w3.org/2000/svg" xmlns:xlink="http://www.w3.org/1999/xlink" x="0px" y="0px"
	 viewBox="0 0 24 24" style="enable-background:new 0 0 24 24;" xml:space="preserve">
<g>
	<title>medical-hospital-1</title>
	<path d="M11.996,23.974c-0.044,0-0.088-0.003-0.133-0.009c-0.446-0.061-0.798-0.413-0.859-0.857l-0.236-3.078
		c-0.342,0.138-0.595,0.324-0.755,0.556c-0.286,0.413-0.285,1.013,0.004,1.781c0.097,0.258-0.035,0.547-0.292,0.644
		c-0.057,0.021-0.116,0.032-0.176,0.032c-0.207,0-0.395-0.13-0.468-0.324c-0.411-1.095-0.373-2.005,0.111-2.703
		c0.092-0.132,0.199-0.255,0.323-0.369c-1.266-0.172-3.313-0.712-3.313-2.808c0-0.907,0.424-2.099,2.447-2.622
		c0.984-0.214,1.979-0.322,2.964-0.322c0.133,0,0.266,0.002,0.399,0.006c0.251,0.009,0.501,0.013,0.752,0.013
		c1.027,0,2.064-0.073,3.081-0.218c1.498-0.283,2.17-0.883,2.17-1.942c0-0.671-1.183-1.416-2.876-1.813
		c-0.268-0.063-0.436-0.333-0.373-0.601c0.054-0.228,0.253-0.386,0.486-0.386c0.039,0,0.078,0.005,0.116,0.014
		c2.283,0.535,3.647,1.577,3.647,2.786c0,1.566-1.012,2.551-3.007,2.928c-1.082,0.154-2.171,0.232-3.249,0.232l0,0
		c-0.26,0-0.52-0.004-0.779-0.013c-0.118-0.003-0.237-0.005-0.357-0.005c-0.923,0-1.846,0.099-2.744,0.294
		c-1.158,0.3-1.678,0.809-1.678,1.649c0,1.463,1.708,1.802,3.468,1.906l-0.169-2.206c-0.01-0.133,0.032-0.262,0.119-0.364
		c0.087-0.101,0.208-0.163,0.342-0.173c0.006,0,0.03-0.001,0.036-0.001c0.261,0,0.48,0.203,0.5,0.461l0.178,2.319
		c0.105,0.001,0.212,0.002,0.321,0.002c0.109,0,0.215-0.001,0.319-0.002l0.176-2.318C12.513,16.203,12.731,16,12.991,16
		c0.006,0,0.032,0.001,0.038,0.001c0.133,0.01,0.254,0.072,0.341,0.173c0.087,0.101,0.13,0.23,0.119,0.364l-0.167,2.206
		c2.429-0.148,3.471-0.725,3.471-1.906c0.005-0.263-0.057-0.516-0.18-0.737c-0.065-0.117-0.081-0.252-0.044-0.38
		c0.036-0.128,0.121-0.235,0.238-0.3c0.074-0.041,0.158-0.063,0.243-0.063c0.181,0,0.349,0.098,0.437,0.257
		c0.21,0.377,0.316,0.804,0.307,1.235c0,2.087-2.047,2.625-3.313,2.797c0.123,0.113,0.231,0.236,0.323,0.369
		c0.484,0.699,0.521,1.609,0.111,2.703c-0.073,0.194-0.261,0.324-0.468,0.324c-0.06,0-0.118-0.01-0.175-0.031
		c-0.259-0.097-0.39-0.386-0.294-0.644c0.289-0.77,0.29-1.37,0.004-1.783c-0.161-0.232-0.415-0.419-0.756-0.557
		c-0.081,1.063-0.16,2.091-0.235,3.052C12.921,23.595,12.495,23.974,11.996,23.974z M11.994,22.942
		c0.079-0.975,0.161-2.04,0.245-3.144c-0.145-0.014-0.237-0.015-0.238-0.015l-0.008-0.25l0.002,0.25
		c-0.001,0-0.094,0.001-0.241,0.016L11.994,22.942z"/>
	<path d="M6.691,14.24c-0.073,0-0.144-0.016-0.211-0.047c-0.953-0.444-1.542-1.41-1.5-2.46c0-1.194,1.363-2.232,3.646-2.767
		c0.036-0.009,0.076-0.013,0.115-0.013c0.233,0,0.433,0.159,0.486,0.386C9.291,9.608,9.124,9.877,8.856,9.94
		c-1.693,0.397-2.875,1.142-2.875,1.813c-0.026,0.662,0.336,1.26,0.922,1.534c0.25,0.116,0.358,0.415,0.242,0.664
		C7.063,14.127,6.885,14.24,6.691,14.24z"/>
	<path d="M13.255,13.005c-0.274-0.021-0.481-0.261-0.461-0.536c0.613-8.188,0.705-9.76,0.705-9.969c0-0.827-0.673-1.5-1.5-1.5
		s-1.5,0.673-1.5,1.5c0,0.208,0.092,1.78,0.705,9.962c0.01,0.133-0.032,0.262-0.12,0.364c-0.087,0.102-0.208,0.163-0.342,0.173
		c-0.006,0-0.03,0.001-0.036,0.001c-0.265,0-0.48-0.199-0.5-0.462c-0.134-1.792-0.25-3.347-0.346-4.663
		C9.135,7.999,8.399,8.062,7.669,8.062c-3,0-6.049-1.056-7.415-2.569C0.025,5.24-0.058,4.879,0.039,4.55
		C0.142,4.217,0.4,3.964,0.73,3.87c0.631-0.184,1.388-0.579,2.189-0.996c1.4-0.73,2.987-1.557,4.531-1.557
		c0.782,0,1.488,0.22,2.107,0.654C9.804,0.85,10.815,0,11.998,0s2.194,0.849,2.441,1.971c0.618-0.434,1.325-0.654,2.107-0.654
		c1.545,0,3.131,0.827,4.531,1.556c0.804,0.419,1.56,0.813,2.194,0.997c0.327,0.093,0.584,0.344,0.685,0.672
		c0.098,0.333,0.016,0.696-0.214,0.95c-1.365,1.512-4.415,2.568-7.415,2.568c-0.73,0-1.465-0.063-2.19-0.188
		c-0.096,1.318-0.211,2.874-0.346,4.669c-0.019,0.259-0.238,0.463-0.498,0.463C13.286,13.006,13.261,13.005,13.255,13.005z
		 M7.43,2.322c-1.287,0-2.754,0.765-4.048,1.439c-0.846,0.441-1.646,0.858-2.375,1.07C2.188,6.143,4.92,7.065,7.64,7.065
		c0.729,0,1.45-0.064,2.147-0.189C9.667,5.217,9.584,4.013,9.539,3.29C8.954,2.639,8.263,2.322,7.43,2.322z M14.21,6.875
		c0.698,0.126,1.419,0.189,2.147,0.189c2.72,0,5.452-0.922,6.644-2.241c-0.74-0.205-1.539-0.621-2.385-1.062
		c-1.358-0.708-2.762-1.439-4.048-1.439c-0.833,0-1.524,0.317-2.109,0.969C14.413,4.011,14.33,5.215,14.21,6.875z"/>
</g>
</svg>
