<?xml version="1.0" encoding="utf-8"?>
<!-- Generator: Adobe Illustrator 22.1.0, SVG Export Plug-In . SVG Version: 6.00 Build 0)  -->
<svg version="1.1" id="Light" xmlns="http://www.w3.org/2000/svg" xmlns:xlink="http://www.w3.org/1999/xlink" x="0px" y="0px"
	 viewBox="0 0 24 24" style="enable-background:new 0 0 24 24;" xml:space="preserve">
<g>
	<title>wine-barrel</title>
	<path d="M12,22c-0.551,0-1-0.448-1-1v-3.042c-0.335,0.018-0.666,0.029-1,0.034V18.5c0,0.276-0.224,0.5-0.5,0.5S9,18.776,9,18.5
		v-0.508c-0.334-0.006-0.665-0.017-1-0.034V21c0,0.552-0.449,1-1,1H5.11c-0.066,0-0.132-0.007-0.198-0.02
		C4.37,21.869,4.02,21.34,4.13,20.8l0.642-3.208C4.503,17.543,4.245,17.491,4,17.437V17.5C4,17.776,3.776,18,3.5,18S3,17.776,3,17.5
		v-0.32C1.063,16.611,0,15.84,0,15V6c0-0.838,1.063-1.607,3-2.176V3.5C3,3.224,3.224,3,3.5,3S4,3.224,4,3.5v0.066
		c1.483-0.333,3.236-0.53,5-0.561V2.5C9,2.224,9.224,2,9.5,2S10,2.224,10,2.5v0.505c1.764,0.031,3.517,0.228,5,0.561V3.5
		C15,3.224,15.224,3,15.5,3S16,3.224,16,3.5v0.324C17.937,4.393,19,5.162,19,6v6h2v-1c0-0.276,0.224-0.5,0.5-0.5S22,10.724,22,11v1
		h0.5c0.827,0,1.5,0.673,1.5,1.5v1c0,0.276-0.224,0.5-0.5,0.5S23,14.776,23,14.5v-1c0-0.276-0.224-0.5-0.5-0.5H19v2
		c0,0.84-1.063,1.611-3,2.18v0.32c0,0.276-0.224,0.5-0.5,0.5S15,17.776,15,17.5v-0.063c-0.245,0.054-0.503,0.107-0.772,0.156
		l0.642,3.209c0.013,0.063,0.02,0.13,0.02,0.198c0,0.552-0.449,1-1,1H12z M12,21h1.89l-0.8-4.001L12,17L12,21z M5.11,20.998L7,21v-4
		H5.911L5.11,20.998z M10,16.992c0.338-0.006,0.669-0.017,1.001-0.035C11.024,16.426,11.463,16,12,16h1.09
		c0.407,0,0.77,0.25,0.923,0.615c0.349-0.063,0.679-0.133,0.987-0.207v-1.702c-1.893,0.226-3.968,0.279-5,0.29V16.992z
		 M7.999,16.957c0.332,0.018,0.663,0.03,1.001,0.035v-1.996c-1.032-0.012-3.107-0.065-5-0.29v1.702
		c0.308,0.074,0.638,0.143,0.987,0.207C5.141,16.249,5.503,16,5.91,16H7C7.537,16,7.976,16.426,7.999,16.957z M16,16.127
		c1.496-0.486,1.992-0.99,2-1.128v-0.947c-0.483,0.202-1.153,0.374-2,0.513V16.127z M1,15c0.008,0.138,0.504,0.641,2,1.127v-1.561
		c-0.847-0.139-1.517-0.311-2-0.513V15z M4,13.7c1.406,0.183,3.086,0.282,5,0.297V11H4V13.7z M10,13.997
		c1.914-0.015,3.594-0.115,5-0.297V11h-5V13.997z M16,13.547c1.345-0.241,1.88-0.501,2-0.603V11h-2V13.547z M1,12.945
		c0.12,0.102,0.655,0.362,2,0.603V11H1V12.945z M18,10V8.055c-0.12-0.102-0.655-0.362-2-0.603V10H18z M15,10V7.3
		c-1.406-0.183-3.085-0.283-5-0.297V10H15z M9,10V7.003C7.085,7.017,5.405,7.117,4,7.3V10H9z M3,10V7.453
		c-1.345,0.24-1.88,0.501-2,0.603V10H3z M16,6.434c0.847,0.139,1.517,0.311,2,0.513V6c0-0.161-0.512-0.652-2-1.131V6.434z M3,4.869
		C1.512,5.348,1,5.839,1,6v0.947c0.483-0.202,1.153-0.374,2-0.513V4.869z M10,6.003c1.032,0.012,3.108,0.065,5,0.29V4.589
		c-1.066-0.257-2.744-0.546-5-0.584V6.003z M4,6.293c1.892-0.225,3.968-0.278,5-0.29V4.005C6.744,4.043,5.066,4.332,4,4.589V6.293z"
		/>
</g>
</svg>
