<?xml version="1.0" encoding="utf-8"?>
<!-- Generator: Adobe Illustrator 22.1.0, SVG Export Plug-In . SVG Version: 6.00 Build 0)  -->
<svg version="1.1" id="Light" xmlns="http://www.w3.org/2000/svg" xmlns:xlink="http://www.w3.org/1999/xlink" x="0px" y="0px"
	 viewBox="0 0 24 24" style="enable-background:new 0 0 24 24;" xml:space="preserve">
<g>
	<title>wine-glass-bottle</title>
	<path d="M13.5,24c-0.276,0-0.5-0.224-0.5-0.5s0.224-0.5,0.5-0.5h2v-3.534c-0.067-0.009-0.131-0.02-0.193-0.032
		c-1.658-0.368-2.837-1.862-2.807-3.553V13.5c0-0.552,0.448-1,1-1h5c0.552,0,1,0.448,1,1V16c0,0.233-0.023,0.467-0.069,0.695
		c-0.293,1.449-1.481,2.56-2.931,2.77V23h2c0.276,0,0.5,0.224,0.5,0.5S18.776,24,18.5,24H13.5z M16,18.5
		c0.013,0,0.03,0.002,0.046,0.004c1.152-0.011,2.172-0.853,2.405-2.007c0.033-0.164,0.05-0.331,0.05-0.497v-2.5h-5v2.389
		c-0.022,1.225,0.825,2.302,2.014,2.566c0.143,0.029,0.297,0.045,0.454,0.047C15.979,18.501,15.99,18.5,16,18.5z"/>
	<path d="M6,24c-0.827,0-1.5-0.673-1.5-1.5V10.862c0-0.351,0.124-0.692,0.348-0.96l2.035-2.444C6.959,7.368,7,7.255,7,7.138V1.5
		C7,0.673,7.673,0,8.5,0h1C10.327,0,11,0.673,11,1.5v5.638c0,0.117,0.041,0.23,0.116,0.32l2.036,2.444
		c0.224,0.269,0.348,0.61,0.348,0.96c0,0.276-0.224,0.5-0.5,0.5s-0.5-0.224-0.5-0.5c0-0.117-0.041-0.23-0.116-0.32l-2.036-2.444
		C10.124,7.829,10,7.489,10,7.138V4H8v3.138c0,0.351-0.124,0.692-0.348,0.96l-2.035,2.444c-0.075,0.09-0.116,0.203-0.116,0.32V22.5
		C5.5,22.776,5.724,23,6,23h5.5c0.276,0,0.5,0.224,0.5,0.5S11.776,24,11.5,24H6z M10,3V1.5C10,1.224,9.776,1,9.5,1h-1
		C8.224,1,8,1.224,8,1.5V3H10z"/>
</g>
</svg>
