<?xml version="1.0" encoding="utf-8"?>
<!-- Generator: Adobe Illustrator 22.1.0, SVG Export Plug-In . SVG Version: 6.00 Build 0)  -->
<svg version="1.1" id="Light" xmlns="http://www.w3.org/2000/svg" xmlns:xlink="http://www.w3.org/1999/xlink" x="0px" y="0px"
	 viewBox="0 0 24 24" style="enable-background:new 0 0 24 24;" xml:space="preserve">
<g>
	<title>wine-glass</title>
	<path d="M9,24c-0.276,0-0.5-0.224-0.5-0.5S8.724,23,9,23h2.5v-8.019C7.836,14.723,5,11.702,5,8c0-0.022,0.001-0.044,0.004-0.066
		l0.942-7.066C6.012,0.373,6.438,0,6.938,0h10.124c0.502,0,0.93,0.373,0.996,0.868l0.938,7.066C18.999,7.956,19,7.978,19,8
		c0,3.702-2.836,6.723-6.5,6.981V23H15c0.276,0,0.5,0.224,0.5,0.5S15.276,24,15,24H9z M6,8.033C6.018,11.324,8.706,14,12,14
		c3.294,0,5.982-2.676,6-5.968L17.863,7H6.138L6,8.033z M17.73,6l-0.664-5L6.938,1L6.271,6H17.73z"/>
</g>
</svg>
