<svg xmlns="http://www.w3.org/2000/svg" viewBox="0 0 24 24"><title>safety-helmet</title><path d="M23.5,14.739H21v-2.5a11.031,11.031,0,0,0-9.53-10.9,3.534,3.534,0,0,0-2.706.783L6.671,3.886a9.007,9.007,0,0,0-5.648,7.939A1.5,1.5,0,0,0,0,13.239v1a1.5,1.5,0,0,0,1.5,1.5H2v3a2,2,0,0,0,4,0,1,1,0,0,1,1-1H17.5a2.5,2.5,0,0,0,2.448-2H23.5a.5.5,0,0,0,0-1ZM1,14.239v-1a.5.5,0,0,1,.5-.5h10a.5.5,0,0,0,0-1H2.028A8,8,0,0,1,17.063,8.473.5.5,0,0,0,17.945,8,8.993,8.993,0,0,0,10,3.239a9.15,9.15,0,0,0-1.1.075l.509-.429a2.534,2.534,0,0,1,1.931-.559A10.029,10.029,0,0,1,20,12.239v2.5H1.5A.5.5,0,0,1,1,14.239Zm16.5,2.5H7a2,2,0,0,0-2,2,1,1,0,0,1-2,0v-3H18.909A1.5,1.5,0,0,1,17.5,16.739Z"/></svg>