<svg xmlns="http://www.w3.org/2000/svg" viewBox="0 0 24 24"><title>safety-helmet-1</title><path d="M21.991,13.354a10,10,0,0,0-5.448-8.467.972.972,0,0,0-.519-1.356,11.09,11.09,0,0,0-8.049,0,1,1,0,0,0-.583.618.986.986,0,0,0,.065.738,10,10,0,0,0-5.448,8.467A1.5,1.5,0,0,0,1,14.771v1a1.5,1.5,0,0,0,1.5,1.5H4.551l.261.913a1.506,1.506,0,0,0,1.442,1.087H17.746a1.506,1.506,0,0,0,1.442-1.087l.26-.913H21.5a1.5,1.5,0,0,0,1.5-1.5v-1A1.5,1.5,0,0,0,21.991,13.354ZM12,3.771a9.95,9.95,0,0,1,3.658.691c-.06.1-.1.2-.157.3a.465.465,0,0,0-.092.129.42.42,0,0,0-.018.078A10.958,10.958,0,0,0,14,10.271a2,2,0,0,1-4,0A10.962,10.962,0,0,0,8.609,4.964a.506.506,0,0,0-.018-.077A.486.486,0,0,0,8.5,4.76c-.057-.1-.1-.2-.159-.3A9.969,9.969,0,0,1,12,3.771Zm10,12a.5.5,0,0,1-.5.5H19.071a.5.5,0,0,0-.481.363l-.364,1.275a.5.5,0,0,1-.48.362H6.254a.5.5,0,0,1-.481-.363L5.41,16.634a.5.5,0,0,0-.481-.363H2.5a.5.5,0,0,1-.5-.5v-1a.5.5,0,0,1,.5-.5.5.5,0,0,0,.5-.5A9,9,0,0,1,7.91,5.778,9.956,9.956,0,0,1,9,10.271a3,3,0,0,0,6,0,9.956,9.956,0,0,1,1.09-4.493A9,9,0,0,1,21,13.771a.5.5,0,0,0,.5.5.5.5,0,0,1,.5.5Z"/><path d="M15.5,14.271h-7a.5.5,0,0,0,0,1h7a.5.5,0,0,0,0-1Z"/></svg>