<?xml version="1.0" encoding="utf-8"?>
<!-- Generator: Adobe Illustrator 22.1.0, SVG Export Plug-In . SVG Version: 6.00 Build 0)  -->
<svg version="1.1" id="Light" xmlns="http://www.w3.org/2000/svg" xmlns:xlink="http://www.w3.org/1999/xlink" x="0px" y="0px"
	 viewBox="0 0 24 24" style="enable-background:new 0 0 24 24;" xml:space="preserve">
<g>
	<title>easter-egg-decoration</title>
	<path d="M10.886,17.639c-0.792,0-1.601-0.139-2.402-0.414c-0.313-0.107-0.558-0.347-0.671-0.658
		c-0.099-0.273-0.086-0.569,0.037-0.833c0.123-0.263,0.341-0.463,0.614-0.562c1.098-0.402,1.256-1.04,1.543-2.198
		c0.091-0.365,0.193-0.779,0.341-1.22l0.022-0.065c0.467-1.344,1.722-2.253,3.141-2.285l7.535-8.778
		c0.022-0.031,0.056-0.074,0.093-0.115c0.315-0.354,0.768-0.557,1.242-0.557c0.407,0,0.798,0.149,1.102,0.418
		c0.332,0.295,0.529,0.701,0.554,1.143c0.026,0.442-0.122,0.869-0.417,1.2l-6.752,9.224c0.174,0.656,0.149,1.337-0.073,1.977
		c-0.391,1.17-1.501,2.328-2.896,3.017C12.948,17.401,11.935,17.639,10.886,17.639z M13.523,10.4
		c-0.998,0.025-1.881,0.667-2.209,1.612l-0.019,0.056c-0.135,0.405-0.229,0.781-0.319,1.145c-0.295,1.189-0.573,2.312-2.17,2.897
		c0,0-0.001,0-0.001,0c-0.023,0.008-0.04,0.024-0.05,0.046c-0.01,0.022-0.011,0.046-0.003,0.068
		c0.009,0.026,0.029,0.045,0.055,0.054c0.696,0.239,1.394,0.36,2.077,0.36c0.896,0,1.76-0.203,2.569-0.603
		c1.147-0.566,2.086-1.525,2.393-2.443c0.165-0.475,0.177-0.978,0.035-1.461c-0.043-0.068-0.07-0.145-0.076-0.226
		c-0.26-0.647-0.782-1.146-1.437-1.373c-0.165-0.057-0.337-0.096-0.512-0.116c-0.046,0.014-0.095,0.022-0.144,0.022
		C13.648,10.438,13.584,10.425,13.523,10.4z M14.697,9.588c0.695,0.241,1.286,0.699,1.695,1.305l6.45-8.806
		c0.145-0.166,0.206-0.333,0.195-0.514c-0.01-0.176-0.089-0.337-0.22-0.454c-0.121-0.107-0.276-0.166-0.438-0.166
		c-0.189,0-0.369,0.081-0.494,0.221c-0.015,0.017-0.03,0.036-0.044,0.055L14.675,9.58C14.682,9.583,14.69,9.585,14.697,9.588z"/>
	<path d="M9.5,24.001c-5.505,0-9.5-4.789-9.5-11.388c0-0.427,0.016-0.859,0.049-1.283c0.15-1.949,0.651-3.852,1.45-5.507
		c0.013-0.041,0.032-0.079,0.056-0.115C3.321,2.134,6.29,0.001,9.5,0.001c2.555,0.078,4.895,1.287,6.427,3.317
		c0.081,0.107,0.115,0.238,0.096,0.37c-0.019,0.132-0.087,0.249-0.194,0.33c-0.088,0.066-0.192,0.101-0.302,0.101
		c-0.156,0-0.305-0.074-0.399-0.199c-1.349-1.786-3.406-2.85-5.644-2.919c-2.376,0-4.657,1.4-6.26,3.797l0.275-0.229
		c0.394-0.329,0.891-0.511,1.4-0.511c0.58,0,1.127,0.228,1.541,0.641l0.223,0.224C6.887,5.146,7.184,5.268,7.5,5.268
		c0.316,0,0.613-0.123,0.836-0.346l0.12-0.12C8.868,4.391,9.416,4.164,10,4.164c0.584,0,1.132,0.227,1.543,0.638
		c0.227,0.226,0.528,0.351,0.848,0.351c0.319,0,0.618-0.124,0.842-0.349c0.052-0.053,0.099-0.11,0.14-0.169
		c0.093-0.137,0.248-0.219,0.414-0.219c0.1,0,0.197,0.03,0.28,0.086c0.229,0.156,0.288,0.468,0.133,0.695
		c-0.076,0.112-0.163,0.217-0.259,0.313c-0.414,0.415-0.965,0.644-1.552,0.644c-0.584,0-1.134-0.226-1.546-0.638
		c-0.227-0.227-0.527-0.352-0.846-0.352c-0.315,0-0.612,0.122-0.834,0.345l-0.12,0.12C8.632,6.041,8.084,6.268,7.5,6.268
		c-0.584,0-1.132-0.227-1.544-0.639L5.733,5.407C5.509,5.183,5.212,5.059,4.899,5.059c-0.275,0-0.545,0.099-0.759,0.278L3.376,5.973
		C3.067,6.231,2.698,6.396,2.301,6.455c-0.657,1.426-1.07,2.99-1.228,4.655c0.018,0.013,0.036,0.027,0.054,0.041l0.114,0.092
		C1.447,11.409,1.71,11.5,1.978,11.5c0.277,0,0.547-0.097,0.758-0.273l0.763-0.636c0.394-0.329,0.891-0.511,1.4-0.511
		c0.579,0,1.127,0.228,1.541,0.641l0.223,0.221c0.224,0.223,0.522,0.346,0.841,0.346c0.234,0,0.461-0.068,0.655-0.196
		c0.082-0.054,0.177-0.083,0.276-0.083c0.168,0,0.324,0.084,0.417,0.224c0.152,0.23,0.089,0.54-0.141,0.693
		c-0.358,0.237-0.775,0.363-1.207,0.363c-0.586,0-1.136-0.226-1.548-0.637L5.734,11.43c-0.225-0.225-0.522-0.349-0.836-0.349
		c-0.275,0-0.545,0.099-0.759,0.278l-0.764,0.637c-0.39,0.325-0.886,0.504-1.398,0.504c-0.339,0-0.673-0.08-0.974-0.229
		C1.001,12.39,1,12.503,1,12.613c0,6.116,3.495,10.388,8.5,10.388c4.794,0,8.285-4.042,8.491-9.829
		C18,12.902,18.219,12.69,18.49,12.69c0.007,0,0.023,0,0.03,0.001c0.264,0.009,0.48,0.241,0.47,0.516
		C18.765,19.563,14.862,24.001,9.5,24.001z"/>
	<circle cx="3.75" cy="8.251" r="0.75"/>
	<circle cx="6.75" cy="8.251" r="0.75"/>
	<circle cx="9.75" cy="8.251" r="0.75"/>
	<path d="M8.992,21.001c-0.837,0-1.642-0.261-2.328-0.754c-0.867-0.624-1.44-1.548-1.612-2.603c-0.172-1.055,0.077-2.113,0.701-2.98
		c0.624-0.867,1.548-1.439,2.603-1.612c0.027-0.004,0.054-0.007,0.081-0.007c0.246,0,0.453,0.177,0.493,0.42
		c0.044,0.272-0.141,0.53-0.413,0.574c-0.791,0.129-1.484,0.558-1.952,1.208c-0.468,0.65-0.655,1.444-0.526,2.235
		s0.558,1.484,1.209,1.952c0.514,0.37,1.118,0.566,1.745,0.566c0.163,0,0.328-0.014,0.49-0.04c0.72-0.117,1.372-0.492,1.835-1.056
		c0.095-0.116,0.236-0.183,0.386-0.183c0.115,0,0.228,0.041,0.318,0.114c0.213,0.175,0.244,0.49,0.069,0.703
		c-0.617,0.752-1.486,1.252-2.447,1.409C9.428,20.984,9.208,21.001,8.992,21.001z"/>
</g>
</svg>
