<?xml version="1.0" encoding="utf-8"?>
<!-- Generator: Adobe Illustrator 22.1.0, SVG Export Plug-In . SVG Version: 6.00 Build 0)  -->
<svg version="1.1" id="Layer_1" xmlns="http://www.w3.org/2000/svg" xmlns:xlink="http://www.w3.org/1999/xlink" x="0px" y="0px"
	 viewBox="0 0 24 24" style="enable-background:new 0 0 24 24;" xml:space="preserve">
<g>
	<title>old-people-man-1</title>
	<path d="M12,11.999c-0.648,0-1.287-0.212-1.8-0.597c-0.107-0.08-0.176-0.197-0.195-0.329c-0.019-0.132,0.015-0.264,0.095-0.371
		c0.094-0.125,0.244-0.2,0.4-0.2c0.109,0,0.213,0.035,0.3,0.1c0.341,0.256,0.767,0.397,1.2,0.397c0.432,0,0.859-0.141,1.2-0.397
		c0.086-0.065,0.19-0.1,0.299-0.1c0.157,0,0.306,0.075,0.4,0.2c0.08,0.107,0.114,0.238,0.095,0.371
		c-0.019,0.132-0.088,0.249-0.195,0.329C13.287,11.787,12.648,11.999,12,11.999z"/>
	<path d="M23,24.002c-0.276,0-0.5-0.224-0.5-0.5v-3.106c0.003-0.461-0.212-0.903-0.575-1.183c-1.326-1.012-4.381-2.711-9.925-2.711
		c-5.532,0-8.595,1.7-9.927,2.713c-0.361,0.278-0.576,0.719-0.573,1.178v3.109c0,0.276-0.224,0.5-0.5,0.5s-0.5-0.224-0.5-0.5v-3.106
		c-0.005-0.767,0.355-1.506,0.965-1.975C2.9,17.33,6.174,15.502,12,15.502c5.839,0,9.105,1.828,10.533,2.917
		c0.611,0.471,0.972,1.21,0.967,1.98v3.103C23.5,23.778,23.276,24.002,23,24.002z"/>
	<path d="M10,24.002c-0.05,0-0.099-0.007-0.147-0.022c-0.263-0.081-0.412-0.362-0.33-0.625l1.522-4.947
		c0.097-0.317,0.345-0.565,0.663-0.662c0.095-0.029,0.194-0.044,0.293-0.044c0.442,0,0.826,0.284,0.956,0.707l1.522,4.947
		c0.081,0.263-0.067,0.544-0.331,0.625C14.1,23.995,14.05,24.002,14,24.002c-0.221,0-0.413-0.142-0.478-0.353L12,18.702
		l-1.522,4.947C10.414,23.857,10.217,24.002,10,24.002z"/>
	<path d="M16.5,23.002c-0.276,0-0.5-0.224-0.5-0.5s0.224-0.5,0.5-0.5h3c0.276,0,0.5,0.224,0.5,0.5s-0.224,0.5-0.5,0.5H16.5z"/>
	<path d="M14.75,9.752c-1.056,0-1.962-0.738-2.192-1.75h-1.116c-0.23,1.012-1.136,1.75-2.192,1.75C8.009,9.752,7,8.743,7,7.502
		s1.009-2.25,2.25-2.25c1.056,0,1.962,0.738,2.192,1.75h1.116c0.23-1.012,1.136-1.75,2.192-1.75c1.241,0,2.25,1.009,2.25,2.25
		S15.991,9.752,14.75,9.752z M14.75,6.252c-0.689,0-1.25,0.561-1.25,1.25s0.561,1.25,1.25,1.25S16,8.191,16,7.502
		S15.439,6.252,14.75,6.252z M9.25,6.252C8.561,6.252,8,6.813,8,7.502s0.561,1.25,1.25,1.25s1.25-0.561,1.25-1.25
		S9.939,6.252,9.25,6.252z"/>
	<path d="M11,4.002c-0.276,0-0.5-0.224-0.5-0.5s0.224-0.5,0.5-0.5h2c0.276,0,0.5,0.224,0.5,0.5s-0.224,0.5-0.5,0.5H11z"/>
	<path d="M12,15.002c-2.226,0-4.319-1.164-5.505-3.05c-0.162,0.033-0.328,0.049-0.494,0.05c-1.379,0-2.5-1.121-2.501-2.499
		c0-0.012,0-0.024,0-0.036C2.425,8.848,1.694,7.758,1.532,6.52C1.394,5.461,1.676,4.411,2.328,3.564
		c0.577-0.751,1.394-1.269,2.313-1.469C4.777,1.666,5.01,1.271,5.319,0.943C5.89,0.339,6.663,0.006,7.497,0.006
		c0.646,0,1.277,0.209,1.792,0.593c0.845-0.386,1.778-0.59,2.711-0.59c0.934,0,1.869,0.204,2.715,0.592
		c0.366-0.273,0.784-0.46,1.219-0.543c0.187-0.036,0.378-0.054,0.567-0.054c1.312,0,2.466,0.852,2.859,2.091
		c1.216,0.266,2.244,1.089,2.771,2.225c0.449,0.969,0.494,2.056,0.126,3.059C21.932,8.264,21.312,9,20.5,9.467
		c0,0.012,0,0.024,0,0.035c0,0.311-0.057,0.616-0.171,0.907c-0.242,0.622-0.712,1.113-1.324,1.381
		c-0.321,0.141-0.659,0.212-1.005,0.212c-0.166,0-0.332-0.017-0.496-0.05C16.319,13.838,14.226,15.002,12,15.002z M6.591,5.501
		C6.531,5.831,6.5,6.167,6.5,6.502v2c0,3.033,2.467,5.5,5.5,5.5s5.5-2.467,5.5-5.5v-2c0-0.336-0.031-0.672-0.091-1.001
		c-0.768-0.023-1.485-0.332-2.03-0.877C14.812,4.058,14.5,3.304,14.5,2.503c0-0.28,0.041-0.565,0.119-0.837
		c-0.8-0.433-1.702-0.661-2.619-0.661c-0.917,0-1.818,0.228-2.618,0.66c0.407,1.401-0.274,2.932-1.615,3.557
		C7.399,5.393,6.994,5.489,6.591,5.501z M7.497,1.006c-0.556,0-1.071,0.222-1.451,0.624c-0.262,0.277-0.438,0.621-0.51,0.996
		C5.495,2.838,5.324,2.999,5.11,3.027C4.315,3.131,3.609,3.538,3.12,4.173C2.632,4.809,2.42,5.596,2.524,6.39
		c0.134,1.026,0.774,1.898,1.713,2.333C4.441,8.818,4.557,9.039,4.52,9.26C4.507,9.34,4.5,9.421,4.5,9.502
		c0,0.827,0.673,1.5,1.5,1.5C5.668,10.21,5.5,9.371,5.5,8.502v-2c0-0.555,0.071-1.109,0.21-1.646
		c0.057-0.22,0.256-0.375,0.483-0.375c0.022,0,0.044,0.001,0.066,0.004c0.079,0.01,0.162,0.016,0.244,0.016
		c0.288,0,0.579-0.065,0.842-0.187C7.829,4.09,8.196,3.69,8.379,3.188c0.183-0.502,0.16-1.045-0.066-1.529
		C8.242,1.504,8.256,1.329,8.338,1.19C8.077,1.069,7.791,1.006,7.497,1.006z M18.005,11.001c0.206,0,0.407-0.042,0.598-0.126
		c0.367-0.161,0.649-0.455,0.794-0.829C19.466,9.872,19.5,9.689,19.5,9.502c0-0.081-0.007-0.162-0.02-0.242
		c-0.037-0.221,0.079-0.442,0.283-0.536c0.727-0.337,1.28-0.937,1.555-1.689c0.276-0.752,0.242-1.567-0.094-2.294
		c-0.435-0.939-1.307-1.579-2.333-1.713c-0.214-0.028-0.385-0.189-0.426-0.401c-0.181-0.941-1.006-1.623-1.963-1.623
		c-0.126,0-0.254,0.012-0.379,0.036c-0.16,0.031-0.315,0.081-0.462,0.15c0.083,0.139,0.098,0.315,0.025,0.47
		C15.564,1.921,15.5,2.213,15.5,2.503c0,0.534,0.208,1.036,0.586,1.414c0.377,0.378,0.88,0.585,1.414,0.585
		c0.081,0,0.162-0.005,0.242-0.016c0.023-0.003,0.042-0.004,0.062-0.004c0.23,0,0.43,0.154,0.487,0.374
		c0.139,0.537,0.21,1.091,0.21,1.646v2c0,0.868-0.168,1.707-0.499,2.499C18.002,11.001,18.004,11.001,18.005,11.001z"/>
</g>
</svg>
