<?xml version="1.0" encoding="utf-8"?>
<!-- Generator: Adobe Illustrator 22.1.0, SVG Export Plug-In . SVG Version: 6.00 Build 0)  -->
<svg version="1.1" id="Layer_1" xmlns="http://www.w3.org/2000/svg" xmlns:xlink="http://www.w3.org/1999/xlink" x="0px" y="0px"
	 viewBox="0 0 24 24" style="enable-background:new 0 0 24 24;" xml:space="preserve">
<g>
	<title>old-people-man-3</title>
	<path d="M11.5,12.001c-0.648,0-1.287-0.212-1.8-0.597c-0.107-0.08-0.176-0.197-0.195-0.329C9.486,10.943,9.52,10.811,9.6,10.705
		c0.094-0.125,0.244-0.2,0.4-0.2c0.109,0,0.212,0.035,0.3,0.1c0.341,0.256,0.768,0.397,1.2,0.397c0.432,0,0.859-0.141,1.2-0.397
		c0.087-0.065,0.19-0.1,0.3-0.1c0.156,0,0.306,0.075,0.4,0.2c0.08,0.107,0.114,0.239,0.095,0.371
		c-0.019,0.132-0.088,0.249-0.195,0.329C12.787,11.789,12.148,12.001,11.5,12.001z"/>
	<path d="M0.5,24.004c-0.276,0-0.5-0.224-0.5-0.5v-3.106c-0.005-0.767,0.355-1.505,0.965-1.975
		c1.434-1.091,4.708-2.919,10.535-2.919c0.208-0.007,0.424-0.011,0.641-0.011c2.973,0,5.94,0.719,8.581,2.077
		c0.245,0.127,0.342,0.429,0.215,0.674c-0.086,0.167-0.256,0.271-0.445,0.271l0,0c-0.079,0-0.157-0.019-0.228-0.055
		c-2.501-1.287-5.312-1.967-8.131-1.967c-0.205,0-0.411,0.004-0.617,0.011c-5.549,0-8.612,1.7-9.945,2.714
		C1.211,19.496,0.997,19.937,1,20.395v3.109C1,23.78,0.776,24.004,0.5,24.004z"/>
	<circle cx="13.5" cy="8.505" r="0.75"/>
	<circle cx="9.5" cy="8.505" r="0.75"/>
	<path d="M13.5,24.004c-0.221,0-0.413-0.142-0.478-0.353L11.5,18.703l-1.522,4.948c-0.065,0.211-0.257,0.353-0.478,0.353
		c-0.05,0-0.099-0.007-0.146-0.022c-0.264-0.082-0.412-0.362-0.331-0.625l1.522-4.948c0.097-0.317,0.345-0.564,0.662-0.662
		c0.096-0.03,0.194-0.044,0.293-0.044c0.442,0,0.827,0.284,0.957,0.707l1.522,4.948c0.081,0.263-0.067,0.544-0.331,0.625
		C13.6,23.997,13.55,24.004,13.5,24.004z"/>
	<path d="M11.492,15.003c-1.598,0-3.136-0.589-4.33-1.659c-1.104-0.99-1.834-2.322-2.074-3.776C5.06,9.57,5.031,9.571,5.002,9.571
		c-0.064,0-0.129-0.006-0.192-0.018C4.548,9.502,4.321,9.352,4.171,9.131C4.059,8.964,3.999,8.769,4,8.568V4.387
		c0-0.755,0.565-1.394,1.314-1.488l0.852-0.106C6.658,2.082,7.271,1.49,7.988,1.03c1.047-0.672,2.257-1.027,3.498-1.027
		c2.143,0,4.133,1.041,5.348,2.789c0,0,0.855,0.107,0.856,0.107c0.745,0.097,1.307,0.736,1.307,1.488V8.57
		c0,0.197-0.058,0.389-0.167,0.553c-0.186,0.28-0.498,0.446-0.834,0.446c-0.03,0-0.059-0.001-0.088-0.004
		c-0.492,2.997-2.994,5.261-6.051,5.428C11.735,15,11.613,15.003,11.492,15.003z M6.036,9.083c0.143,1.36,0.776,2.604,1.794,3.516
		c1.01,0.905,2.313,1.404,3.667,1.404c0.101,0,0.203-0.003,0.304-0.008c2.686-0.147,4.881-2.247,5.163-4.912l-0.742-0.494
		c-0.754-0.504-1.277-1.268-1.472-2.153L14.32,4.498c-0.037-0.168-0.045-0.34-0.024-0.511c0.081-0.646,0.566-1.156,1.182-1.284
		c-1.033-1.087-2.461-1.701-3.989-1.701c-1.05,0-2.074,0.301-2.96,0.869C8.16,2.107,7.823,2.386,7.521,2.703
		c0.222,0.046,0.431,0.142,0.616,0.286C8.453,3.235,8.655,3.59,8.704,3.987C8.726,4.158,8.717,4.33,8.68,4.498L8.249,6.436
		C8.054,7.32,7.531,8.085,6.778,8.588L6.036,9.083z M7.218,3.673c-0.021,0-0.042,0.001-0.063,0.004L5.438,3.891
		C5.188,3.922,5,4.135,5,4.387V8.57l1.223-0.813C6.76,7.397,7.133,6.852,7.273,6.22l0.431-1.939c0.012-0.056,0.015-0.113,0.008-0.17
		C7.695,3.979,7.628,3.86,7.523,3.778C7.434,3.709,7.329,3.673,7.218,3.673z M15.783,3.673c-0.111,0-0.217,0.036-0.305,0.105
		c-0.105,0.082-0.173,0.2-0.189,0.333c-0.007,0.057-0.004,0.114,0.008,0.169l0.431,1.938c0.139,0.632,0.512,1.178,1.051,1.538
		l1.219,0.813l0-4.183c0-0.251-0.188-0.464-0.437-0.496l-1.715-0.214C15.825,3.674,15.804,3.673,15.783,3.673z"/>
	<path d="M10.5,4.005c-0.276,0-0.5-0.224-0.5-0.5s0.224-0.5,0.5-0.5h2c0.276,0,0.5,0.224,0.5,0.5s-0.224,0.5-0.5,0.5H10.5z"/>
	<path d="M10.5,6.005c-0.276,0-0.5-0.224-0.5-0.5s0.224-0.5,0.5-0.5h2c0.276,0,0.5,0.224,0.5,0.5s-0.224,0.5-0.5,0.5H10.5z"/>
	<path d="M23.5,24.004c-0.276,0-0.5-0.224-0.5-0.5v-9.75c0-0.965-0.785-1.75-1.75-1.75s-1.75,0.785-1.75,1.75v0.75
		c0,0.276-0.224,0.5-0.5,0.5s-0.5-0.224-0.5-0.5v-0.75c0-1.516,1.234-2.75,2.75-2.75S24,12.238,24,13.754v9.75
		C24,23.78,23.776,24.004,23.5,24.004z"/>
</g>
</svg>
