<?xml version="1.0" encoding="utf-8"?>
<!-- Generator: Adobe Illustrator 22.1.0, SVG Export Plug-In . SVG Version: 6.00 Build 0)  -->
<svg version="1.1" id="Light" xmlns="http://www.w3.org/2000/svg" xmlns:xlink="http://www.w3.org/1999/xlink" x="0px" y="0px"
	 viewBox="0 0 24 24" style="enable-background:new 0 0 24 24;" xml:space="preserve">
<g>
	<title>medical-instrument-tweezers-1</title>
	<path d="M9.242,23.784c-1.585,0-2.978-1.177-3.242-2.737c-0.006-0.032-0.008-0.066-0.007-0.099
		c0.016-0.518,0.158-1.031,0.412-1.487c0.011-0.101,0.052-0.196,0.12-0.274l5.12-5.873c0.254-0.291,0.439-0.642,0.536-1.017
		l0.608-2.35l-2.033,1.392c-0.165,0.115-0.317,0.251-0.45,0.405l-5.343,6.129C4.9,17.945,4.82,17.995,4.727,18.021
		c-0.42,0.321-0.914,0.535-1.431,0.623c-0.029,0.005-0.056,0.007-0.083,0.007c-1.778-0.053-3.203-1.526-3.2-3.288
		c-0.243-1.745,0.967-3.398,2.706-3.691c0.027-0.004,0.054-0.007,0.08-0.007c0.006,0,0.023,0.001,0.03,0.001
		c1.751,0.052,3.176,1.525,3.174,3.287c0.008,0.061,0.015,0.123,0.02,0.184l3.53-4.049c0.188-0.215,0.402-0.408,0.636-0.571
		l3.025-2.071c0.236-0.489,1.175-2.345,2.708-4.183c2.194-2.632,4.644-4.023,7.084-4.023c0.179,0,0.36,0.008,0.539,0.022
		c0.133,0.011,0.254,0.073,0.34,0.175C23.97,0.54,24.011,0.669,24,0.802c-0.021,0.261-0.235,0.459-0.496,0.459
		c-0.007,0-0.037-0.001-0.044-0.002c-0.153-0.013-0.308-0.019-0.462-0.019c-2.848,0-5.202,2.219-6.753,4.233
		c1.986-1.515,4.083-2.315,6.068-2.315c0.429,0,0.859,0.037,1.277,0.111c0.271,0.047,0.454,0.307,0.406,0.578
		c-0.042,0.24-0.25,0.414-0.493,0.414l0,0c-0.028,0-0.056-0.002-0.084-0.007c-0.366-0.064-0.74-0.097-1.113-0.097
		c-1.845,0-3.75,0.768-5.662,2.282c-1.407,1.114-2.338,2.263-2.576,2.569l-0.917,3.542c-0.135,0.523-0.395,1.015-0.75,1.423
		l-3.31,3.797c0.063-0.004,0.125-0.006,0.188-0.006c0.139-0.02,0.297-0.031,0.452-0.031c1.586,0,2.98,1.177,3.243,2.737
		c0.005,0.032,0.008,0.065,0.007,0.098c-0.053,1.757-1.517,3.186-3.264,3.186l-0.024,0C9.543,23.773,9.392,23.784,9.242,23.784
		L9.242,23.784z M6.994,20.929c0.203,1.059,1.166,1.854,2.251,1.854c0.112,0,0.225-0.009,0.337-0.025
		c0.019-0.003,0.036-0.004,0.053-0.005c0.005,0,0.079,0,0.079,0c1.192,0,2.201-0.969,2.263-2.166
		c-0.205-1.076-1.146-1.855-2.247-1.855c-0.113,0-0.228,0.009-0.34,0.026c-0.02,0.003-0.042,0.005-0.066,0.006H9.276
		C8.075,18.763,7.057,19.732,6.994,20.929z M2.836,12.666c-1.194,0.228-2.013,1.383-1.829,2.587
		c0.004,0.026,0.006,0.054,0.006,0.081c-0.017,1.219,0.952,2.251,2.166,2.315c1.193-0.229,2.012-1.384,1.829-2.587
		c-0.004-0.027-0.006-0.054-0.006-0.081C5.019,13.761,4.05,12.729,2.836,12.666z"/>
</g>
</svg>
