<?xml version="1.0" encoding="utf-8"?>
<!-- Generator: Adobe Illustrator 22.1.0, SVG Export Plug-In . SVG Version: 6.00 Build 0)  -->
<svg version="1.1" id="Light" xmlns="http://www.w3.org/2000/svg" xmlns:xlink="http://www.w3.org/1999/xlink" x="0px" y="0px"
	 viewBox="0 0 24 24" style="enable-background:new 0 0 24 24;" xml:space="preserve">
<g>
	<title>medical-instrument-tweezers-3</title>
	<path d="M10.502,24.001c-1.654,0-3-1.346-3-3c0-0.681,0.224-1.323,0.648-1.858c0.006-0.011,0.013-0.021,0.02-0.03l4.968-6.124
		l-2.145-2.105l-6.101,4.947c-0.01,0.009-0.024,0.017-0.037,0.025c-0.515,0.412-1.177,0.645-1.853,0.645c-1.654,0-3-1.346-3-3
		c0-1.654,1.346-3,3-3s3,1.346,3,3c0,0.049-0.001,0.097-0.004,0.146L22.587,0.194c0.156-0.124,0.349-0.192,0.546-0.192
		c0.266,0,0.514,0.119,0.68,0.327c0.256,0.32,0.256,0.766,0,1.086L10.357,18.004c0.048-0.002,0.097-0.004,0.145-0.004
		c1.654,0,3,1.346,3,3S12.156,24.001,10.502,24.001z M10.502,19.001c-1.103,0-2,0.897-2,2s0.897,2,2,2c1.103,0,2-0.897,2-2
		S11.605,19.001,10.502,19.001z M3.002,11.501c-1.103,0-2,0.897-2,2s0.897,2,2,2s2-0.897,2-2S4.105,11.501,3.002,11.501z
		 M13.771,12.208l8.477-10.451L11.775,10.25L13.771,12.208z"/>
</g>
</svg>
