<?xml version="1.0" encoding="utf-8"?>
<!-- Generator: Adobe Illustrator 22.1.0, SVG Export Plug-In . SVG Version: 6.00 Build 0)  -->
<svg version="1.1" id="Light" xmlns="http://www.w3.org/2000/svg" xmlns:xlink="http://www.w3.org/1999/xlink" x="0px" y="0px"
	 viewBox="0 0 24 24" style="enable-background:new 0 0 24 24;" xml:space="preserve">
<g>
	<title>medical-instrument</title>
	<path d="M2.851,24.002c-0.154,0-0.309-0.037-0.448-0.107c-0.095-0.048-0.182-0.11-0.258-0.186l-1.854-1.848
		c-0.189-0.19-0.293-0.441-0.293-0.709c0-0.267,0.105-0.518,0.294-0.707c0.074-0.074,0.161-0.137,0.258-0.186l1.564-0.783
		c0.208-0.104,0.44-0.159,0.671-0.159c0.326,0,0.636,0.104,0.893,0.295l4.319-4.319v-3.754c0-0.4,0.164-0.79,0.45-1.07l7.175-7.065
		c-0.371-0.377-0.575-0.875-0.575-1.404c0-0.534,0.208-1.036,0.586-1.414c0.377-0.377,0.879-0.585,1.414-0.585
		c0.535,0,1.037,0.208,1.414,0.585l4.95,4.95c0.377,0.377,0.585,0.879,0.585,1.414c0,0.535-0.208,1.037-0.585,1.414
		c-0.377,0.378-0.88,0.586-1.414,0.586c-0.51,0-0.992-0.19-1.363-0.536l-7.072,7.138c-0.277,0.283-0.665,0.447-1.063,0.448H8.706
		l-4.319,4.32c0.333,0.448,0.392,1.052,0.137,1.564l-0.777,1.563c-0.12,0.24-0.326,0.418-0.579,0.502
		C3.064,23.985,2.958,24.002,2.851,24.002z M2.786,20.319c-0.078,0-0.154,0.018-0.224,0.053l-1.564,0.783l1.853,1.847l0.776-1.562
		c0.097-0.194,0.059-0.426-0.094-0.578l-0.394-0.395C3.046,20.371,2.92,20.319,2.786,20.319z M12.499,15.002
		c0.131,0,0.26-0.055,0.353-0.15l2.238-2.259l-3.657-3.657L9.15,11.184c-0.096,0.094-0.151,0.224-0.151,0.357L12.499,15.002z
		 M15.794,11.882l4.133-4.172l-3.597-3.597l-4.185,4.121L15.794,11.882z M21.292,7.659c0.189,0.189,0.44,0.293,0.707,0.293
		c0.267,0,0.519-0.104,0.708-0.293c0.188-0.188,0.292-0.44,0.292-0.707c0-0.268-0.104-0.519-0.292-0.707l-4.95-4.95
		c-0.188-0.188-0.439-0.292-0.707-0.292s-0.519,0.104-0.707,0.292c-0.189,0.189-0.293,0.44-0.293,0.707
		c0,0.267,0.104,0.518,0.293,0.707l4.594,4.594c0.012,0.007,0.034,0.022,0.055,0.043c0.022,0.022,0.037,0.043,0.047,0.059
		L21.292,7.659z"/>
</g>
</svg>
