<?xml version="1.0" encoding="utf-8"?>
<!-- Generator: Adobe Illustrator 22.1.0, SVG Export Plug-In . SVG Version: 6.00 Build 0)  -->
<svg version="1.1" id="Light" xmlns="http://www.w3.org/2000/svg" xmlns:xlink="http://www.w3.org/1999/xlink" x="0px" y="0px"
	 viewBox="0 0 24 24" style="enable-background:new 0 0 24 24;" xml:space="preserve">
<g>
	<title>medical-instrument-tweezers-2</title>
	<path d="M2.537,23.925c-0.482,0-0.95-0.138-1.353-0.399c-0.561-0.363-0.946-0.922-1.086-1.575c-0.14-0.653-0.017-1.321,0.346-1.882
		c0.003-0.004,0.015-0.022,0.018-0.026L13.059,3.231c0.033-0.043,0.071-0.08,0.115-0.111l4.154-2.89
		c0.218-0.162,0.486-0.251,0.768-0.251c0.065,0,0.131,0.005,0.196,0.015c0.347,0.051,0.654,0.234,0.863,0.516
		c0.209,0.281,0.297,0.628,0.246,0.976c-0.051,0.348-0.235,0.654-0.517,0.864l-3.406,2.67L6.512,19.706L18.595,8.062
		c0.045-0.042,0.094-0.076,0.149-0.099l4.064-1.762c0.15-0.069,0.217-0.255,0.144-0.412c-0.051-0.111-0.163-0.183-0.284-0.183
		c-0.034,0-0.069,0.006-0.102,0.017l-4.667,1.713l-3.044,2.42c-0.088,0.07-0.198,0.109-0.311,0.109
		c-0.153,0-0.296-0.069-0.392-0.189c-0.083-0.105-0.121-0.235-0.105-0.368c0.015-0.133,0.081-0.251,0.186-0.334l3.107-2.47
		c0.041-0.033,0.088-0.059,0.138-0.078l4.755-1.745c0.145-0.049,0.289-0.073,0.434-0.073c0.511,0,0.98,0.3,1.193,0.765
		c0.302,0.659,0.012,1.44-0.646,1.742l-3.992,1.731L4.312,23.214c-0.032,0.031-0.069,0.058-0.11,0.08
		C3.741,23.702,3.152,23.925,2.537,23.925z M1.27,20.634c-0.204,0.32-0.277,0.719-0.193,1.108c0.084,0.392,0.315,0.728,0.651,0.945
		c0.241,0.156,0.521,0.239,0.811,0.239c0.46,0,0.901-0.212,1.183-0.569l10.95-17.935c0.031-0.051,0.071-0.096,0.118-0.133
		l3.487-2.734c0.077-0.057,0.122-0.13,0.134-0.214c0.012-0.083-0.009-0.166-0.059-0.234c-0.05-0.068-0.123-0.111-0.207-0.124
		C18.13,0.981,18.114,0.98,18.098,0.98c-0.067,0-0.131,0.022-0.186,0.062l-4.101,2.853L1.27,20.634z"/>
</g>
</svg>
