<?xml version="1.0" encoding="utf-8"?>
<!-- Generator: Adobe Illustrator 22.1.0, SVG Export Plug-In . SVG Version: 6.00 Build 0)  -->
<svg version="1.1" id="Light" xmlns="http://www.w3.org/2000/svg" xmlns:xlink="http://www.w3.org/1999/xlink" x="0px" y="0px"
	 viewBox="0 0 24 24" style="enable-background:new 0 0 24 24;" xml:space="preserve">
<g>
	<title>medical-instrument-tooth</title>
	<path d="M7.574,23.999c-0.191,0-0.377-0.054-0.539-0.155c-0.229-0.144-0.387-0.368-0.447-0.631c-0.06-0.262-0.014-0.533,0.13-0.762
		c0.98-1.551,5.687-9.053,7.028-12.197c-2.449,1.052-7.788,4.242-12.198,7.026c-0.162,0.102-0.348,0.155-0.539,0.155
		c-0.09,0-0.179-0.012-0.264-0.035c-0.26-0.07-0.477-0.238-0.611-0.472c-0.134-0.234-0.169-0.506-0.099-0.767
		c0.66-2.427,5.406-5.897,14.109-10.315c-0.082-0.857,0.037-1.778,1.502-3.243c2.151-2.15,3.614-2.601,4.461-2.601l0.048,0
		c0.794,0.009,1.185,0.378,1.255,0.452c0.186,0.195,0.182,0.509-0.009,0.699l-2.71,2.705c-0.57,0.569-0.832,1.369-0.718,2.167
		c0.121,0.017,0.244,0.026,0.366,0.026c0.676,0,1.334-0.271,1.806-0.744l2.705-2.708c0.094-0.094,0.219-0.147,0.353-0.147
		c0.13,0,0.253,0.049,0.346,0.139c0.074,0.071,0.44,0.464,0.448,1.255c0.009,0.859-0.436,2.338-2.604,4.506
		c-0.977,1.152-2.277,2.022-3.752,2.505c-2.874,5.563-6.89,12.312-9.805,13.106C7.751,23.987,7.663,23.999,7.574,23.999z
		 M14.875,10.116c-1.041,2.854-5.829,10.526-7.311,12.869c1.975-0.52,5.154-4.842,8.972-12.166L14.875,10.116z M15.331,6.367
		C10.276,8.901,1.786,13.534,1,16.424C3.605,14.8,12.227,9.43,14.455,8.951c0.009-0.002,0.018-0.003,0.027-0.004
		c0.024-0.004,0.048-0.005,0.071-0.005c0.026,0,0.053,0.002,0.079,0.006c0.009,0.001,0.017,0.002,0.024,0.003
		c0.012,0.002,0.026,0.006,0.039,0.01c0.013,0.003,0.035,0.008,0.059,0.018l2.367,1c1.382-0.409,2.604-1.204,3.539-2.304
		c1.94-1.942,2.342-3.142,2.339-3.81l-2.146,2.148c-0.662,0.663-1.581,1.043-2.521,1.043c-0.315,0-0.628-0.042-0.932-0.125
		L15.331,6.367z M15.279,5.334c0.044,0,0.088,0.006,0.131,0.017l1.536,0.419c-0.026-0.972,0.349-1.93,1.04-2.62l2.147-2.143
		c-0.003,0-0.007,0-0.01,0c-0.668,0-1.864,0.4-3.769,2.303c-0.956,0.955-1.191,1.56-1.224,2.046
		C15.178,5.342,15.229,5.334,15.279,5.334z"/>
	<path d="M16.352,8.899c-0.397,0-0.729-0.318-0.748-0.713C15.601,8.172,15.6,8.157,15.6,8.144c0-0.414,0.336-0.75,0.75-0.75
		c0.041,0,0.073,0.008,0.092,0.013c0.378,0.045,0.66,0.361,0.66,0.742c0,0.016-0.003,0.039-0.007,0.059
		c-0.027,0.346-0.295,0.63-0.645,0.677C16.426,8.892,16.393,8.899,16.352,8.899z"/>
</g>
</svg>
