<?xml version="1.0" encoding="utf-8"?>
<!-- Generator: Adobe Illustrator 22.1.0, SVG Export Plug-In . SVG Version: 6.00 Build 0)  -->
<svg version="1.1" id="Light" xmlns="http://www.w3.org/2000/svg" xmlns:xlink="http://www.w3.org/1999/xlink" x="0px" y="0px"
	 viewBox="0 0 24 24" style="enable-background:new 0 0 24 24;" xml:space="preserve">
<g>
	<title>medical-instrument-ambulance-bed</title>
	<path d="M18.5,23.25c-1.102,0-1.998-0.891-2-1.987h-9c-0.002,1.096-0.898,1.987-2,1.987c-1.103,0-2-0.893-2-1.99s0.897-1.99,2-1.99
		c0.442,0,0.867,0.145,1.216,0.413l4.383-2.927l-5.251-3.507H4.873c-1.101,0-2.088-0.738-2.399-1.794L0.081,3.314
		C-0.07,2.802-0.012,2.261,0.244,1.792c0.256-0.469,0.679-0.811,1.192-0.961C1.62,0.776,1.811,0.748,2.002,0.748
		c0.331,0,0.662,0.085,0.955,0.245c0.469,0.256,0.811,0.679,0.961,1.192L5.89,8.89c0.062,0.211,0.259,0.359,0.48,0.359h15.63
		c1.103,0,2,0.897,2,2s-0.897,2-2,2h-3.848L12.9,16.756l4.384,2.927c0.349-0.268,0.774-0.413,1.217-0.413c1.103,0,2,0.893,2,1.99
		S19.603,23.25,18.5,23.25z M18.5,20.27c-0.552,0-1,0.444-1,0.99s0.448,0.99,1,0.99s1-0.444,1-0.99S19.052,20.27,18.5,20.27z
		 M5.5,20.27c-0.551,0-1,0.444-1,0.99s0.449,0.99,1,0.99s1-0.444,1-0.99S6.052,20.27,5.5,20.27z M16.351,20.263l-4.351-2.906
		l-4.351,2.906H16.351z M11.999,16.155l4.351-2.906H7.649L11.999,16.155z M2.002,1.749c-0.095,0-0.191,0.014-0.284,0.041
		C1.461,1.865,1.249,2.036,1.121,2.271C0.993,2.505,0.965,2.776,1.04,3.032l2.394,8.141c0.187,0.634,0.778,1.076,1.439,1.076h17.127
		c0.552,0,1-0.449,1-1s-0.448-1-1-1H6.37c-0.661,0-1.253-0.443-1.44-1.077L2.96,2.467C2.884,2.211,2.714,1.999,2.479,1.871
		C2.331,1.791,2.166,1.749,2.002,1.749z"/>
	<path d="M8.279,8.25c-0.881,0-1.67-0.59-1.919-1.436l-1.029-3.5C5.18,2.802,5.238,2.261,5.494,1.792
		c0.256-0.469,0.679-0.811,1.192-0.961c0.185-0.055,0.376-0.082,0.567-0.082c0.331,0,0.661,0.085,0.955,0.245
		c0.469,0.256,0.811,0.679,0.961,1.192l1.029,3.5c0.15,0.513,0.092,1.053-0.164,1.522c-0.256,0.469-0.68,0.81-1.192,0.96
		C8.66,8.222,8.47,8.25,8.279,8.25C8.279,8.25,8.279,8.25,8.279,8.25z M7.252,1.749c-0.095,0-0.191,0.014-0.284,0.041
		C6.711,1.865,6.499,2.036,6.371,2.271C6.243,2.505,6.215,2.776,6.29,3.032l1.029,3.5C7.443,6.955,7.838,7.25,8.278,7.25
		c0.094,0,0.187-0.014,0.277-0.041c0.26-0.076,0.473-0.247,0.601-0.481c0.128-0.234,0.157-0.505,0.082-0.761l-1.029-3.5
		C8.134,2.211,7.964,1.999,7.729,1.871C7.581,1.791,7.416,1.749,7.252,1.749z"/>
</g>
</svg>
