<?xml version="1.0" encoding="utf-8"?>
<!-- Generator: Adobe Illustrator 22.1.0, SVG Export Plug-In . SVG Version: 6.00 Build 0)  -->
<svg version="1.1" id="Light" xmlns="http://www.w3.org/2000/svg" xmlns:xlink="http://www.w3.org/1999/xlink" x="0px" y="0px"
	 viewBox="0 0 24 24" style="enable-background:new 0 0 24 24;" xml:space="preserve">
<g>
	<title>nautic-sports-sailing</title>
	<path d="M23.243,23.754c-0.857-0.001-1.66-0.343-2.246-0.948c-0.175,0.178-0.369,0.334-0.581,0.466
		c-0.501,0.312-1.076,0.478-1.661,0.478c-0.24,0-0.482-0.028-0.718-0.083c-0.594-0.138-1.121-0.434-1.538-0.863
		c-0.176,0.18-0.372,0.337-0.585,0.469c-0.499,0.311-1.073,0.475-1.659,0.475c-0.858,0-1.665-0.341-2.255-0.944
		c-0.176,0.18-0.373,0.338-0.587,0.471c-0.498,0.309-1.071,0.473-1.656,0.473c-0.858,0-1.664-0.34-2.253-0.943
		c-0.177,0.181-0.375,0.34-0.59,0.473c-0.498,0.309-1.071,0.472-1.655,0.472c-0.859,0-1.665-0.341-2.255-0.945
		c-0.588,0.603-1.393,0.944-2.25,0.944c-0.279,0-0.503-0.225-0.503-0.5c0-0.271,0.218-0.493,0.487-0.499c0.005,0,0.02,0,0.023,0
		c0.745-0.003,1.424-0.381,1.818-1.014C2.672,21.588,2.831,21.5,3.005,21.5c0.174,0,0.333,0.088,0.425,0.237
		c0.394,0.635,1.078,1.014,1.829,1.014c0.399,0,0.789-0.111,1.129-0.322c0.28-0.174,0.519-0.413,0.693-0.693
		c0.092-0.148,0.25-0.236,0.425-0.236s0.333,0.088,0.425,0.236c0.394,0.634,1.077,1.013,1.826,1.013
		c0.399,0,0.789-0.112,1.129-0.323c0.279-0.173,0.517-0.412,0.69-0.69C11.667,21.589,11.826,21.5,12,21.5
		c0.174,0,0.333,0.088,0.425,0.236c0.395,0.635,1.079,1.014,1.83,1.014c0.4,0,0.791-0.112,1.132-0.324
		c0.278-0.173,0.517-0.412,0.69-0.69c0.089-0.143,0.248-0.228,0.425-0.228c0.177,0,0.335,0.085,0.424,0.228
		c0.304,0.488,0.779,0.827,1.339,0.958c0.162,0.037,0.327,0.056,0.491,0.056c0.399,0,0.791-0.113,1.133-0.326
		c0.277-0.173,0.515-0.411,0.688-0.688C20.668,21.588,20.826,21.5,21,21.5c0.176,0,0.334,0.089,0.426,0.238
		c0.391,0.635,1.071,1.015,1.818,1.016c0.134,0,0.259,0.052,0.354,0.147c0.094,0.094,0.146,0.22,0.146,0.354
		C23.743,23.53,23.518,23.754,23.243,23.754L23.243,23.754z"/>
	<path d="M16.447,21.885c-0.222,0-0.419-0.149-0.48-0.362c-0.037-0.128-0.021-0.263,0.043-0.38c0.065-0.117,0.171-0.201,0.3-0.238
		l3.35-0.961c0.129-0.037,0.236-0.122,0.301-0.238l1.271-2.292L8.93,20.941c-0.045,0.013-0.092,0.02-0.138,0.02
		c-0.222,0-0.42-0.149-0.481-0.362c-0.076-0.265,0.078-0.542,0.343-0.618l2.887-0.828l-0.828-2.885l-8.938,2.563
		C1.686,18.856,1.593,18.87,1.5,18.87c-0.02,0-0.041-0.001-0.061-0.002c-0.265-0.016-0.509-0.134-0.687-0.334
		c-0.177-0.199-0.267-0.456-0.251-0.723l0.43-7.135C1.143,7.089,3.14,3.898,6.273,2.139l0.333-0.187L6.301,0.888
		C6.226,0.623,6.379,0.346,6.644,0.269C6.69,0.257,6.736,0.25,6.782,0.25c0.222,0,0.42,0.149,0.481,0.362l3.309,11.535l1.442-0.414
		c0.045-0.013,0.091-0.02,0.138-0.02c0.222,0,0.419,0.149,0.48,0.362c0.076,0.265-0.078,0.543-0.343,0.619l-1.442,0.414l1.655,5.768
		l8.454-2.424c0.09-0.026,0.183-0.039,0.276-0.039c0.168,0,0.335,0.043,0.484,0.126c0.482,0.267,0.657,0.877,0.39,1.359
		l-1.271,2.293c-0.195,0.351-0.515,0.605-0.9,0.715l-3.349,0.96C16.54,21.879,16.494,21.885,16.447,21.885z M1.499,17.87
		l8.938-2.564l-0.551-1.922l-8.259,2.369L1.499,17.87z M6.763,3.011c-2.835,1.591-4.642,4.478-4.834,7.724l-0.239,3.96l7.92-2.272
		L6.89,2.94L6.763,3.011z"/>
</g>
</svg>
