<?xml version="1.0" encoding="utf-8"?>
<!-- Generator: Adobe Illustrator 22.1.0, SVG Export Plug-In . SVG Version: 6.00 Build 0)  -->
<svg version="1.1" id="Light" xmlns="http://www.w3.org/2000/svg" xmlns:xlink="http://www.w3.org/1999/xlink" x="0px" y="0px"
	 viewBox="0 0 24 24" style="enable-background:new 0 0 24 24;" xml:space="preserve">
<g>
	<title>water-fountain-sink</title>
	<path d="M12.011,24c-6.345,0-11.73-4.916-12.005-10.959L0.005,13c0-0.551,0.449-1,1-1h10.505V3c0-1.654,1.346-3,3-3s3,1.346,3,3v2
		c0,0.276-0.224,0.5-0.5,0.5s-0.5-0.224-0.5-0.5V3c0-1.103-0.897-2-2-2s-2,0.897-2,2v9H23c0.006,0,0.041,0.001,0.046,0.001
		c0.541,0.019,0.973,0.484,0.953,1.035C23.719,19.083,18.341,24,12.011,24z M1.006,13c0.25,5.509,5.187,10,11.005,10
		c5.803,0,10.733-4.488,10.99-10.005L1.006,13L1.006,13z"/>
	<path d="M17.011,11c-1.103,0-2-0.897-2-2c0-0.042,0.005-0.083,0.016-0.124c0.213-0.838,0.637-1.617,1.228-2.25
		c0.143-0.182,0.382-0.312,0.645-0.341c0.037-0.004,0.076-0.007,0.115-0.007c0.224,0,0.444,0.078,0.621,0.219
		c0.059,0.046,0.113,0.101,0.161,0.161c0.567,0.605,0.988,1.378,1.201,2.219C19.006,8.919,19.011,8.96,19.011,9
		C19.011,10.103,18.114,11,17.011,11z M16.012,9.058C16.043,9.581,16.484,10,17.011,10c0.527,0,0.968-0.42,0.999-0.942
		c-0.177-0.652-0.513-1.257-0.973-1.75L17.01,7.279C16.53,7.797,16.19,8.407,16.012,9.058z"/>
</g>
</svg>
