<?xml version="1.0" encoding="utf-8"?>
<!-- Generator: Adobe Illustrator 22.1.0, SVG Export Plug-In . SVG Version: 6.00 Build 0)  -->
<svg version="1.1" id="Light" xmlns="http://www.w3.org/2000/svg" xmlns:xlink="http://www.w3.org/1999/xlink" x="0px" y="0px"
	 viewBox="0 0 24 24" style="enable-background:new 0 0 24 24;" xml:space="preserve">
<g>
	<title>water-fountain-drink</title>
	<path d="M14,6.5c-1.654,0-3-1.346-3-3s1.346-3,3-3s3,1.346,3,3S15.654,6.5,14,6.5z M14,1.5c-1.103,0-2,0.897-2,2s0.897,2,2,2
		s2-0.897,2-2S15.103,1.5,14,1.5z"/>
	<path d="M3,23.5c-1.103,0-2-0.897-2-2v-10c0-0.499,0.185-0.976,0.52-1.345l5-5.5c0.36-0.395,0.851-0.627,1.385-0.652
		C7.938,4.001,7.97,4,8.002,4c0.497,0,0.974,0.185,1.343,0.521c0.322,0.293,0.543,0.691,0.622,1.12l0.636,3.5
		c0.067,0.379,0.348,0.684,0.717,0.784l0.881,0.089c0.531,0.053,1.01,0.311,1.348,0.724c0.338,0.414,0.495,0.934,0.441,1.466
		c-0.103,1.026-0.96,1.8-1.993,1.8l0,0c-0.065,0-0.131-0.003-0.197-0.01l-0.713-0.071c-0.37-0.036-0.392-0.039-0.49-0.06
		c-1.835-0.359-3.322-1.755-3.823-3.542L5,12.273V21.5C5,22.603,4.103,23.5,3,23.5z M7.953,5.002C7.685,5.014,7.44,5.13,7.26,5.327
		l-5,5.5C2.092,11.012,2,11.251,2,11.5v10c0,0.552,0.449,1,1,1s1-0.448,1-1v-9.42c0-0.125,0.046-0.244,0.13-0.336L6.696,8.92
		c0.094-0.104,0.229-0.164,0.37-0.164c0.047,0,0.093,0.006,0.138,0.019c0.184,0.052,0.32,0.202,0.354,0.391l0.093,0.507
		c0.284,1.608,1.55,2.898,3.15,3.212c0.049,0.011,0.051,0.011,0.385,0.044L11.9,13c0.036,0.004,0.071,0.006,0.106,0.006
		c0.512,0,0.938-0.387,0.989-0.901c0.027-0.266-0.052-0.526-0.22-0.733c-0.169-0.207-0.409-0.335-0.674-0.362l-0.918-0.093
		c-0.023-0.003-0.043-0.006-0.063-0.01c-0.774-0.184-1.362-0.807-1.501-1.588L8.983,5.82C8.944,5.606,8.834,5.408,8.672,5.261
		C8.488,5.093,8.249,5,8.001,5L7.953,5.002z"/>
	<path d="M22.5,20.5c-4.254,0-7.263-3.196-7.488-7.953c-0.026-0.55,0.4-1.02,0.951-1.046l0.049-0.001H20v-1
		c0-0.276,0.224-0.5,0.5-0.5s0.5,0.224,0.5,0.5v1h1.5c0.276,0,0.5,0.224,0.5,0.5v8C23,20.276,22.776,20.5,22.5,20.5z M16.02,12.5
		c-0.006,0.001-0.009,0.002-0.01,0.003c0.188,3.963,2.582,6.735,5.99,6.979V12.5H16.02z"/>
	<path d="M20.357,9.009c-0.208,0-0.397-0.131-0.469-0.327C19.627,7.975,18.945,7.5,18.19,7.5c-0.052,0-0.105,0.002-0.157,0.007
		c-0.007,0.001-0.046,0.002-0.046,0.002c-0.26,0-0.473-0.196-0.496-0.456C17.479,6.92,17.52,6.79,17.606,6.688
		c0.086-0.102,0.207-0.165,0.339-0.177C18.028,6.504,18.111,6.5,18.194,6.5c1.169,0,2.227,0.738,2.633,1.836
		c0.095,0.259-0.037,0.547-0.296,0.642C20.475,8.999,20.417,9.009,20.357,9.009z"/>
	<path d="M16,8.882c-0.109,0-0.212-0.035-0.3-0.1c-0.22-0.165-0.266-0.479-0.101-0.7l0.343-0.458c0.228-0.304,0.51-0.555,0.84-0.746
		c0.076-0.044,0.162-0.067,0.25-0.067c0.178,0,0.344,0.095,0.433,0.249c0.067,0.115,0.085,0.25,0.051,0.379
		s-0.117,0.237-0.233,0.304c-0.212,0.123-0.394,0.284-0.54,0.48L16.4,8.682C16.306,8.807,16.156,8.882,16,8.882z"/>
</g>
</svg>
