<?xml version="1.0" encoding="utf-8"?>
<!-- Generator: Adobe Illustrator 22.1.0, SVG Export Plug-In . SVG Version: 6.00 Build 0)  -->
<svg version="1.1" id="Light" xmlns="http://www.w3.org/2000/svg" xmlns:xlink="http://www.w3.org/1999/xlink" x="0px" y="0px"
	 viewBox="0 0 24 24" style="enable-background:new 0 0 24 24;" xml:space="preserve">
<g>
	<title>water-fountain-sink-1</title>
	<path d="M19.523,10.993c-0.827,0-1.5-0.673-1.5-1.5c0-0.049,0.007-0.098,0.021-0.145c0.234-0.775,0.596-1.499,1.076-2.151
		c0.094-0.128,0.244-0.204,0.403-0.204s0.309,0.076,0.403,0.204c0.479,0.652,0.841,1.376,1.075,2.151
		c0.014,0.047,0.021,0.096,0.021,0.145C21.023,10.32,20.35,10.993,19.523,10.993z M19.027,9.556
		c0.031,0.248,0.242,0.437,0.496,0.437s0.465-0.189,0.496-0.437c-0.126-0.397-0.293-0.78-0.496-1.142
		C19.319,8.776,19.153,9.158,19.027,9.556z"/>
	<path d="M12.046,23.992c-4.741,0-9.185-2.523-11.596-6.586c-0.085-0.145-0.129-0.309-0.129-0.474
		c-0.001-0.517,0.419-0.939,0.936-0.94l7.266,0.001v-0.501c0-0.827-0.673-1.5-1.5-1.5h-3c-0.276,0-0.5-0.224-0.5-0.5
		s0.224-0.5,0.5-0.5h3c1.379,0,2.5,1.122,2.5,2.5v0.501l2,0V4.243c0.001-2.343,1.908-4.248,4.25-4.248
		c2.343,0.001,4.249,1.907,4.25,4.248v0.75c0,0.276-0.224,0.5-0.5,0.5s-0.5-0.224-0.5-0.5v-0.75
		c-0.001-1.79-1.458-3.247-3.249-3.248c-1.792,0-3.25,1.457-3.251,3.248v11.751l2,0v-0.502c0-1.378,1.122-2.5,2.5-2.5h3
		c0.276,0,0.5,0.224,0.5,0.5s-0.224,0.5-0.5,0.5h-3c-0.827,0-1.5,0.673-1.5,1.5v0.502l7.156,0.001c0.179,0,0.356,0.048,0.51,0.14
		c0.474,0.281,0.632,0.896,0.35,1.37c-1.144,1.887-2.748,3.478-4.642,4.602C16.821,23.34,14.452,23.992,12.046,23.992z
		 M1.368,16.993c2.244,3.702,6.325,5.999,10.677,5.999c2.227,0,4.42-0.603,6.341-1.744c1.753-1.041,3.239-2.513,4.295-4.257
		L1.368,16.993z M1.259,16.993L1.259,16.993z"/>
</g>
</svg>
