<?xml version="1.0" encoding="utf-8"?>
<!-- Generator: Adobe Illustrator 22.1.0, SVG Export Plug-In . SVG Version: 6.00 Build 0)  -->
<svg version="1.1" id="Light" xmlns="http://www.w3.org/2000/svg" xmlns:xlink="http://www.w3.org/1999/xlink" x="0px" y="0px"
	 viewBox="0 0 24 24" style="enable-background:new 0 0 24 24;" xml:space="preserve">
<g>
	<title>water-fountain-drop</title>
	<path d="M3.5,24.001c-0.551,0-1-0.448-1-1V8.569C2.382,8.471,2.288,8.347,2.224,8.206L1.587,6.759
		C1.359,6.243,1.593,5.638,2.11,5.409l12.143-5.255c0.23-0.101,0.474-0.153,0.726-0.153c0.719,0,1.371,0.424,1.66,1.08
		c0.195,0.443,0.207,0.935,0.032,1.386c-0.175,0.451-0.515,0.807-0.958,1.003L8.644,6.528C9.199,7.231,9.501,8.096,9.5,9.001h12
		c0.552,0,1,0.449,1,1v1.346c0,0.361-0.293,0.654-0.654,0.654c-0.116,0-0.232,0-0.346,0.001v0.999c0,0.552-0.448,1-1,1H17
		c-0.552,0-1-0.448-1-1v-0.414c-2.423,0.64-4.443,1.92-6.5,4.112v6.302c0,0.552-0.449,1-1,1H3.5z M3.5,23.001h5v-14
		C8.501,8.24,8.203,7.5,7.679,6.945L3.566,8.725C3.545,8.734,3.523,8.742,3.5,8.75V23.001z M9.5,15.27
		c3.555-3.447,6.935-4.185,11.481-4.262c0.006,0,0.026-0.001,0.029,0c0.16-0.003,0.323-0.005,0.49-0.006v-1.001h-12V15.27z
		 M17,13.001h3.5V12.02c-1.363,0.041-2.486,0.15-3.5,0.342V13.001z M3.185,7.8l12.126-5.246c0.196-0.086,0.348-0.245,0.426-0.448
		c0.078-0.202,0.073-0.423-0.014-0.621c-0.13-0.294-0.422-0.484-0.744-0.484c-0.113,0-0.222,0.023-0.326,0.069L2.514,6.324
		c0,0-0.012,0.032-0.012,0.032l0.635,1.443c0.002-0.001,0.005-0.001,0.009-0.001C3.157,7.798,3.184,7.8,3.185,7.8z"/>
	<path d="M19,23.001c-1.378,0-2.5-1.122-2.5-2.5c0-0.04,0.005-0.081,0.015-0.121c0.324-1.281,0.883-2.47,1.661-3.536
		c0.127-0.201,0.353-0.356,0.611-0.412c0.071-0.015,0.143-0.023,0.215-0.023c0.191,0,0.377,0.055,0.539,0.158
		c0.122,0.078,0.224,0.18,0.302,0.303c0.763,1.045,1.319,2.229,1.643,3.509c0.01,0.039,0.015,0.081,0.015,0.123
		C21.5,21.879,20.378,23.001,19,23.001z M17.501,20.559c0.031,0.798,0.697,1.441,1.499,1.441s1.468-0.644,1.499-1.441
		c-0.294-1.13-0.793-2.181-1.482-3.126c0,0-0.012-0.017-0.017-0.024C18.296,18.375,17.795,19.43,17.501,20.559z"/>
</g>
</svg>
