<?xml version="1.0" encoding="utf-8"?>
<!-- Generator: Adobe Illustrator 22.1.0, SVG Export Plug-In . SVG Version: 6.00 Build 0)  -->
<svg version="1.1" id="Light" xmlns="http://www.w3.org/2000/svg" xmlns:xlink="http://www.w3.org/1999/xlink" x="0px" y="0px"
	 viewBox="0 0 24 24" style="enable-background:new 0 0 24 24;" xml:space="preserve">
<g>
	<title>dressing-hanging-rack-2</title>
	<path d="M8,24c-0.114,0-0.226-0.019-0.334-0.058c-0.251-0.089-0.453-0.271-0.568-0.512c-0.115-0.241-0.129-0.513-0.04-0.765
		C7.41,21.67,8.357,21,9.414,21H10v-5H8.5C7.121,16,6,14.878,6,13.5v-1.086C5.41,12.205,5,11.64,5,11c0-0.827,0.673-1.5,1.5-1.5
		S8,10.173,8,11c0,0.64-0.41,1.205-1,1.414V13.5C7,14.327,7.673,15,8.5,15H10V9H8.5C7.121,9,6,7.879,6,6.5V5.414
		C5.41,5.205,5,4.64,5,4c0-0.827,0.673-1.5,1.5-1.5S8,3.173,8,4c0,0.64-0.41,1.205-1,1.414V6.5C7,7.327,7.673,8,8.5,8H10V2
		c0-1.103,0.897-2,2-2s2,0.897,2,2v4h1.5C16.327,6,17,5.327,17,4.5V3.414C16.41,3.205,16,2.64,16,2c0-0.827,0.673-1.5,1.5-1.5
		S19,1.173,19,2c0,0.64-0.41,1.205-1,1.414V4.5C18,5.879,16.878,7,15.5,7H14v6h1.5c0.827,0,1.5-0.673,1.5-1.5v-1.086
		C16.41,10.205,16,9.64,16,9c0-0.827,0.673-1.5,1.5-1.5S19,8.173,19,9c0,0.64-0.41,1.205-1,1.414V11.5c0,1.378-1.122,2.5-2.5,2.5H14
		v7h0.585c1.058,0,2.005,0.67,2.357,1.666C16.98,22.773,17,22.886,17,23c0,0.551-0.448,1-0.999,1C16,24,8,24,8,24z M9.414,22
		C8.78,22,8.212,22.402,8,23l8,0c-0.212-0.598-0.78-1-1.415-1H9.414z M13,21V2c0-0.551-0.448-1-1-1c-0.551,0-1,0.449-1,1v19H13z
		 M6.5,10.5C6.224,10.5,6,10.724,6,11s0.224,0.5,0.5,0.5S7,11.276,7,11S6.776,10.5,6.5,10.5z M17.5,8.5C17.224,8.5,17,8.724,17,9
		s0.224,0.5,0.5,0.5S18,9.276,18,9S17.776,8.5,17.5,8.5z M6.5,3.5C6.224,3.5,6,3.724,6,4s0.224,0.5,0.5,0.5S7,4.276,7,4
		S6.776,3.5,6.5,3.5z M17.5,1.5C17.224,1.5,17,1.724,17,2s0.224,0.5,0.5,0.5S18,2.276,18,2S17.776,1.5,17.5,1.5z"/>
</g>
</svg>
