<?xml version="1.0" encoding="utf-8"?>
<!-- Generator: Adobe Illustrator 22.1.0, SVG Export Plug-In . SVG Version: 6.00 Build 0)  -->
<svg version="1.1" id="Light" xmlns="http://www.w3.org/2000/svg" xmlns:xlink="http://www.w3.org/1999/xlink" x="0px" y="0px"
	 viewBox="0 0 24 24" style="enable-background:new 0 0 24 24;" xml:space="preserve">
<g>
	<title>shell</title>
	<path d="M2.983,23.75c-0.49,0-0.983-0.361-1.353-0.989c-0.726-1.233-1.052-3.611,0.416-6.253c2.065-3.718,3.516-5.351,5.128-5.756
		c0.679-1.349,1.491-2.63,2.416-3.809c0.013-0.016,0.026-0.031,0.04-0.045c0.577-0.577,1.324-1.166,2.499-1.188
		c0.686-0.713,2.71-2.636,4.554-2.636c0.09,0,0.178,0.005,0.265,0.014c0.661-0.632,1.472-1.082,2.356-1.305l2.955-1.478
		c0.068-0.034,0.146-0.053,0.223-0.053c0.121,0,0.237,0.044,0.328,0.123c0.153,0.133,0.21,0.343,0.146,0.536l-0.998,2.993
		c-0.251,1.001-0.585,2.016-0.987,3.001c0.007,0.111,0.01,0.227,0.01,0.348c-0.014,1.131-0.292,2.259-0.802,3.271
		c0.166,0.963-0.086,2.124-0.75,3.453c-0.662,1.324-1.32,2.424-1.683,3.008c0.201,1.094-0.085,2.307-0.832,3.515
		c-1.127,1.824-3.074,3.253-4.432,3.253H2.983z M7.413,11.74c-1.335,0.339-2.56,1.774-4.493,5.252
		c-1.263,2.273-1.02,4.255-0.428,5.261c0.238,0.405,0.448,0.494,0.491,0.496h9.499c0.882,0,2.57-1.141,3.582-2.778
		c0.458-0.742,1.129-2.182,0.471-3.498c-1.312-2.624-4.812-4.166-7.651-4.733c-0.283-0.056-0.538-0.084-0.782-0.084
		c-0.122,0-0.245,0.008-0.366,0.023c-0.075,0.043-0.16,0.067-0.249,0.067C7.463,11.746,7.438,11.744,7.413,11.74z M8.356,10.658
		c0.227,0.016,0.466,0.05,0.725,0.101c2.985,0.597,6.666,2.227,8.222,5.025c0.345-0.583,0.787-1.367,1.233-2.259
		c0.599-1.198,0.814-2.188,0.64-2.944c0,0-0.003-0.015-0.004-0.02c-0.088-0.367-0.265-0.683-0.542-0.959
		c-0.936-0.936-1.903-1.417-4.332-2.389c-0.858-0.343-1.549-0.51-2.113-0.51c-0.868,0-1.361,0.414-1.827,0.878
		C9.619,8.528,8.947,9.561,8.356,10.658z M13.403,5.869c0.388,0.095,0.807,0.233,1.266,0.416c2.573,1.029,3.608,1.551,4.668,2.611
		c0.108,0.109,0.208,0.224,0.298,0.346c0.22-0.646,0.34-1.328,0.348-1.999c0-1.685-0.797-2.083-2.724-3.046
		c-0.174-0.087-0.373-0.131-0.591-0.131C15.562,4.066,14.188,5.153,13.403,5.869z M18.038,3.47c1.118,0.563,1.975,1.041,2.468,1.826
		c0.171-0.503,0.323-1.01,0.453-1.514c-0.255-0.583-0.795-0.971-1.431-1.027C18.991,2.893,18.483,3.137,18.038,3.47z M20.802,2.149
		c0.198,0.122,0.38,0.269,0.541,0.44l0.284-0.852L20.802,2.149z"/>
</g>
</svg>
