<?xml version="1.0" encoding="utf-8"?>
<!-- Generator: Adobe Illustrator 22.1.0, SVG Export Plug-In . SVG Version: 6.00 Build 0)  -->
<svg version="1.1" id="Light" xmlns="http://www.w3.org/2000/svg" xmlns:xlink="http://www.w3.org/1999/xlink" x="0px" y="0px"
	 viewBox="0 0 24 24" style="enable-background:new 0 0 24 24;" xml:space="preserve">
<g>
	<title>shell-sea-grass</title>
	<path d="M12.514,14.481c-0.091,0-0.18-0.025-0.258-0.072c-0.236-0.143-0.312-0.451-0.169-0.687
		c0.233-0.384,0.378-0.823,0.421-1.269c-0.002-0.335-0.219-0.769-0.45-1.229c-0.272-0.544-0.553-1.106-0.553-1.724
		s0.281-1.18,0.552-1.723c0.23-0.46,0.447-0.894,0.447-1.277s-0.217-0.817-0.447-1.276C11.787,4.68,11.506,4.118,11.506,3.5
		c-0.053-0.744-0.262-1.497-0.609-2.186c-0.528,0.622-0.842,1.397-0.892,2.216c0.001,0.352,0.218,0.786,0.448,1.246
		c0.272,0.544,0.553,1.106,0.553,1.724s-0.281,1.18-0.553,1.724c-0.23,0.46-0.447,0.895-0.447,1.276
		c0,0.382,0.217,0.816,0.447,1.276c0.272,0.544,0.553,1.106,0.553,1.724c-0.026,0.487-0.15,0.935-0.368,1.345
		c-0.087,0.164-0.256,0.266-0.442,0.266c-0.082,0-0.163-0.021-0.235-0.059c-0.117-0.062-0.204-0.167-0.243-0.295
		s-0.026-0.263,0.036-0.381c0.15-0.282,0.235-0.586,0.252-0.905c-0.001-0.354-0.218-0.788-0.448-1.248
		C9.287,10.68,9.006,10.118,9.006,9.5s0.281-1.18,0.553-1.724c0.23-0.46,0.447-0.894,0.447-1.276c0-0.382-0.217-0.816-0.447-1.276
		C9.287,4.68,9.006,4.118,9.006,3.5c0.078-1.317,0.689-2.543,1.677-3.381C10.772,0.042,10.887,0,11.005,0
		c0.025,0,0.05,0.002,0.075,0.006c0.141,0.021,0.268,0.102,0.346,0.223c0.626,0.968,0.999,2.087,1.079,3.237
		c0.001,0.417,0.218,0.851,0.448,1.311c0.272,0.544,0.553,1.106,0.553,1.724s-0.281,1.18-0.553,1.724
		c-0.23,0.46-0.447,0.894-0.447,1.276s0.217,0.816,0.447,1.276c0.272,0.544,0.553,1.106,0.553,1.724
		c-0.058,0.634-0.253,1.227-0.563,1.74C12.852,14.389,12.688,14.481,12.514,14.481z"/>
	<path d="M20.858,16.226c-0.063,0-0.125-0.012-0.184-0.035c-0.256-0.102-0.382-0.393-0.281-0.649
		c0.07-0.177,0.108-0.364,0.113-0.554c0-0.37-0.217-0.804-0.447-1.264c-0.272-0.543-0.553-1.105-0.553-1.724s0.281-1.18,0.553-1.724
		c0.23-0.46,0.447-0.894,0.447-1.276s-0.217-0.817-0.447-1.276C19.787,7.18,19.506,6.618,19.506,6
		c-0.053-0.745-0.262-1.498-0.609-2.186c-0.528,0.622-0.842,1.397-0.892,2.216c0.001,0.352,0.218,0.786,0.448,1.246
		C18.725,7.82,19.006,8.382,19.006,9s-0.281,1.18-0.553,1.724c-0.23,0.46-0.447,0.894-0.447,1.276s0.217,0.817,0.447,1.276
		c0.272,0.543,0.553,1.105,0.553,1.724c0,0.276-0.224,0.5-0.5,0.5s-0.5-0.224-0.5-0.5c0-0.382-0.217-0.817-0.447-1.276
		c-0.272-0.543-0.553-1.105-0.553-1.724s0.281-1.18,0.553-1.724c0.23-0.46,0.447-0.894,0.447-1.276s-0.217-0.817-0.447-1.276
		C17.287,7.18,17.006,6.618,17.006,6c0.079-1.316,0.689-2.543,1.676-3.381c0.09-0.077,0.205-0.119,0.323-0.119
		c0.025,0,0.05,0.002,0.075,0.006c0.141,0.021,0.267,0.102,0.345,0.223c0.625,0.968,0.999,2.087,1.079,3.237
		c0.001,0.417,0.218,0.851,0.448,1.311C21.225,7.82,21.506,8.382,21.506,9s-0.281,1.18-0.553,1.724
		c-0.23,0.46-0.447,0.894-0.447,1.276s0.217,0.817,0.447,1.276c0.272,0.543,0.553,1.105,0.553,1.724
		c-0.008,0.319-0.069,0.623-0.183,0.911C21.246,16.102,21.064,16.226,20.858,16.226z"/>
	<path d="M3.049,17.415c-0.09,0-0.179-0.024-0.256-0.071c-0.236-0.141-0.314-0.448-0.173-0.685c0.217-0.365,0.351-0.78,0.388-1.203
		c-0.002-0.338-0.219-0.773-0.449-1.233C2.287,13.68,2.006,13.118,2.006,12.5s0.281-1.18,0.553-1.724
		c0.23-0.46,0.447-0.894,0.447-1.276S2.789,8.684,2.559,8.224C2.287,7.68,2.006,7.118,2.006,6.5
		c0.078-1.317,0.689-2.543,1.677-3.381C3.772,3.042,3.887,3,4.005,3C4.03,3,4.054,3.002,4.079,3.005
		c0.142,0.021,0.269,0.102,0.347,0.223c0.626,0.968,0.999,2.087,1.079,3.237c0.001,0.417,0.218,0.851,0.448,1.311
		C6.225,8.32,6.506,8.882,6.506,9.5s-0.281,1.18-0.553,1.724c-0.223,0.446-0.434,0.867-0.447,1.241
		c0.1,0.614,0.317,1.195,0.644,1.725c0.145,0.235,0.072,0.543-0.163,0.688c-0.079,0.049-0.17,0.075-0.263,0.075
		c-0.175,0-0.334-0.089-0.426-0.237c-0.405-0.656-0.67-1.376-0.788-2.138c-0.004-0.025-0.006-0.051-0.006-0.076
		c0-0.618,0.281-1.18,0.553-1.724c0.23-0.46,0.447-0.894,0.447-1.276S5.289,8.684,5.059,8.224C4.787,7.68,4.506,7.118,4.506,6.5
		C4.453,5.756,4.243,5.003,3.897,4.314C3.368,4.936,3.054,5.711,3.005,6.53c0.001,0.352,0.218,0.786,0.448,1.246
		C3.725,8.32,4.006,8.882,4.006,9.5s-0.281,1.18-0.553,1.724c-0.23,0.46-0.447,0.894-0.447,1.276c0,0.382,0.217,0.816,0.447,1.276
		c0.272,0.543,0.553,1.105,0.553,1.724c-0.051,0.607-0.233,1.177-0.528,1.671C3.389,17.321,3.224,17.415,3.049,17.415z"/>
	<path d="M2.022,24c-0.552,0-1-0.448-1.002-0.998c0-0.023,0.001-0.045,0.002-0.067c0.283-4.447,3.893-7.435,8.983-7.435
		c2.284,0,4.317,0.602,5.891,1.742c0.332-0.102,0.668-0.173,1.002-0.21c0.204-0.023,0.411-0.034,0.615-0.034
		c2.802,0,5.15,2.103,5.461,4.891c0.004,0.041,0.006,0.08,0.006,0.12c-0.002,0.266-0.107,0.515-0.297,0.703
		C22.495,22.897,22.246,23,21.981,23H18.99c0,0.523-0.407,0.964-0.936,0.998C18.032,23.999,18.011,24,17.989,24H2.022z M17.989,23
		c-0.122-1.95-0.975-3.601-2.466-4.776c-0.034-0.021-0.063-0.043-0.088-0.069c-1.421-1.083-3.298-1.656-5.428-1.656
		c-4.529,0-7.738,2.612-7.985,6.5c0,0,0.007,0,0.01,0H17.989z M21.978,22c-0.252-2.282-2.171-4.002-4.462-4.002
		c-0.168,0-0.338,0.01-0.506,0.029c-0.056,0.006-0.114,0.014-0.171,0.023c1.065,1.072,1.763,2.425,2.035,3.951H21.978z"/>
</g>
</svg>
