<?xml version="1.0" encoding="utf-8"?>
<!-- Generator: Adobe Illustrator 22.1.0, SVG Export Plug-In . SVG Version: 6.00 Build 0)  -->
<svg version="1.1" id="Light" xmlns="http://www.w3.org/2000/svg" xmlns:xlink="http://www.w3.org/1999/xlink" x="0px" y="0px"
	 viewBox="0 0 24 24" style="enable-background:new 0 0 24 24;" xml:space="preserve">
<g>
	<title>shell-1</title>
	<path d="M12,24c-0.784,0-1.613-0.054-2.465-0.16c-0.01,0.001-0.022,0.002-0.035,0.002c-0.051,0-0.101-0.009-0.154-0.026
		c-1.365-0.182-2.702-0.496-3.875-0.91c-0.09-0.005-0.179-0.037-0.255-0.09C0.906,21.212,0,18.769,0,17
		c0-1.973,1.152-5.448,2.293-8.016C3.203,6.936,4.96,3.5,6.5,3.5c2.324,0,3-0.131,3-1C9.5,1.121,10.621,0,12,0
		c1.378,0,2.5,1.121,2.5,2.5c0,0.869,0.676,1,3,1c0.661,0,2.086,0.713,4.207,5.484C22.848,11.553,24,15.027,24,17
		c0,1.769-0.906,4.212-5.216,5.816c-0.076,0.053-0.165,0.085-0.255,0.09c-1.171,0.413-2.509,0.727-3.875,0.91
		c-0.052,0.018-0.103,0.026-0.154,0.026c-0.009,0-0.021-0.001-0.032-0.002C13.614,23.946,12.784,24,12,24z M9.868,22.875
		C10.604,22.958,11.321,23,12,23s1.396-0.042,2.132-0.125c2.625-7.772-0.234-18.71-0.437-19.464C13.566,3.156,13.5,2.849,13.5,2.5
		C13.5,1.673,12.827,1,12,1s-1.5,0.673-1.5,1.5c0,0.349-0.066,0.656-0.195,0.912C10.102,4.164,7.243,15.1,9.868,22.875z
		 M5.88,22.004c0.889,0.305,1.858,0.546,2.887,0.718C6.712,16.019,8.331,7.441,9.052,4.313c-0.224,0.059-0.48,0.103-0.777,0.132
		C7.419,5.677,2.507,13.326,5.88,22.004z M14.948,4.313c0.721,3.129,2.34,11.706,0.285,18.409c1.029-0.171,1.998-0.412,2.887-0.717
		c3.373-8.68-1.54-16.328-2.396-17.559C15.428,4.416,15.172,4.372,14.948,4.313z M7.045,4.498C6.866,4.5,6.684,4.5,6.5,4.5
		C5.095,4.5,1,13.197,1,17c0,2.29,1.872,3.694,3.638,4.509C2.042,13.725,5.516,6.943,7.045,4.498z M16.955,4.498
		c1.529,2.444,5.003,9.227,2.407,17.01C21.128,20.694,23,19.29,23,17c0-3.803-4.095-12.5-5.5-12.5
		C17.315,4.5,17.134,4.5,16.955,4.498z"/>
</g>
</svg>
