<?xml version="1.0" encoding="utf-8"?>
<!-- Generator: Adobe Illustrator 22.1.0, SVG Export Plug-In . SVG Version: 6.00 Build 0)  -->
<svg version="1.1" id="Layer_1" xmlns="http://www.w3.org/2000/svg" xmlns:xlink="http://www.w3.org/1999/xlink" x="0px" y="0px"
	 viewBox="0 0 24 24" style="enable-background:new 0 0 24 24;" xml:space="preserve">
<g>
	<title>couple-house</title>
	<path d="M17.284,15.423c-0.131,0-0.255-0.05-0.349-0.142c-0.095-0.093-0.149-0.218-0.151-0.351s0.048-0.26,0.142-0.356l4.516-4.649
		c1.621-1.592,2.021-4.014,0.999-6.033c-0.245-0.476-0.562-0.913-0.94-1.298c-1-1.016-2.336-1.582-3.763-1.594l-0.043,0
		c-1.409,0-2.739,0.545-3.744,1.534l-1.614,1.472C12.245,4.092,12.125,4.138,12,4.138s-0.245-0.046-0.337-0.131l-1.6-1.459
		C9.668,2.16,9.228,1.841,8.749,1.594C7.986,1.201,7.167,1.002,6.313,1.002c-2.014,0-3.837,1.109-4.756,2.894
		C0.536,5.912,0.935,8.333,2.55,9.917c0.095,0.094,0.149,0.219,0.15,0.352c0.001,0.134-0.05,0.26-0.143,0.355
		c-0.095,0.096-0.221,0.15-0.357,0.15c-0.132,0-0.256-0.051-0.35-0.143c-1.928-1.891-2.403-4.78-1.184-7.19
		c1.093-2.122,3.257-3.439,5.648-3.439c1,0,2,0.243,2.893,0.703c0.569,0.293,1.088,0.669,1.544,1.117L12,2.961l1.263-1.152
		c1.182-1.164,2.759-1.808,4.436-1.808l0.047,0c1.693,0.013,3.28,0.685,4.468,1.892c0.448,0.456,0.824,0.975,1.117,1.544
		c1.22,2.411,0.745,5.301-1.181,7.193l-4.508,4.641C17.549,15.368,17.418,15.423,17.284,15.423z"/>
	<path d="M3.5,24.002c-0.827,0-1.5-0.673-1.5-1.5v-6.293l-1.146,1.146c-0.094,0.094-0.22,0.146-0.354,0.146
		s-0.259-0.052-0.354-0.146S0,17.136,0,17.002s0.052-0.259,0.146-0.354L6.94,9.855C7.223,9.572,7.599,9.417,8,9.417
		s0.778,0.156,1.061,0.439l6.793,6.793C15.948,16.743,16,16.868,16,17.002s-0.052,0.259-0.146,0.354s-0.22,0.146-0.354,0.146
		s-0.259-0.052-0.354-0.146L14,16.209v6.293c0,0.827-0.673,1.5-1.5,1.5H3.5z M12.5,23.002c0.276,0,0.5-0.224,0.5-0.5v-7.293
		l-4.646-4.647C8.26,10.468,8.134,10.417,8,10.417s-0.259,0.052-0.354,0.146L3,15.209v7.293c0,0.276,0.224,0.5,0.5,0.5H6v-3.5
		c0-1.103,0.897-2,2-2s2,0.897,2,2v3.5H12.5z M9,23.002v-3.5c0-0.552-0.449-1-1-1s-1,0.448-1,1v3.5H9z"/>
</g>
</svg>
