<?xml version="1.0" encoding="utf-8"?>
<!-- Generator: Adobe Illustrator 22.1.0, SVG Export Plug-In . SVG Version: 6.00 Build 0)  -->
<svg version="1.1" id="Layer_1" xmlns="http://www.w3.org/2000/svg" xmlns:xlink="http://www.w3.org/1999/xlink" x="0px" y="0px"
	 viewBox="0 0 24 24" style="enable-background:new 0 0 24 24;" xml:space="preserve">
<g>
	<title>couple-home-man-woman</title>
	<path d="M5.5,13.002c-1.516,0-2.75-1.234-2.75-2.75s1.234-2.75,2.75-2.75s2.75,1.234,2.75,2.75S7.016,13.002,5.5,13.002z
		 M5.5,8.502c-0.965,0-1.75,0.785-1.75,1.75s0.785,1.75,1.75,1.75s1.75-0.785,1.75-1.75S6.465,8.502,5.5,8.502z"/>
	<path d="M4.5,24.002c-0.255,0-0.469-0.191-0.497-0.445l-0.451-4.055H2.5c-0.276,0-0.5-0.224-0.5-0.5v-2.5
		c0-0.507,0.113-1.018,0.326-1.478c0.394-0.848,1.095-1.491,1.973-1.812c0.389-0.142,0.794-0.214,1.202-0.214
		c0.51,0,1.006,0.111,1.474,0.328c0.121,0.056,0.213,0.156,0.259,0.282c0.046,0.125,0.04,0.261-0.016,0.382
		c-0.081,0.176-0.259,0.289-0.453,0.289c-0.073,0-0.144-0.016-0.211-0.047c-0.335-0.155-0.689-0.234-1.053-0.234
		c-0.292,0-0.581,0.052-0.859,0.153c-0.627,0.229-1.128,0.689-1.409,1.294C3.08,15.774,3,16.139,3,16.501v2h1
		c0.255,0,0.469,0.191,0.497,0.445l0.451,4.055h1.105l0.38-3.415c0.028-0.253,0.242-0.445,0.499-0.445
		c0.017,0,0.034,0.001,0.051,0.002c0.277,0.031,0.475,0.279,0.444,0.552l-0.429,3.86C6.969,23.81,6.755,24.002,6.5,24.002H4.5z"/>
	<path d="M18.5,13.002c-1.516,0-2.75-1.234-2.75-2.75s1.234-2.75,2.75-2.75s2.75,1.234,2.75,2.75S20.016,13.002,18.5,13.002z
		 M18.5,8.502c-0.965,0-1.75,0.785-1.75,1.75s0.785,1.75,1.75,1.75s1.75-0.785,1.75-1.75S19.465,8.502,18.5,8.502z"/>
	<path d="M17.5,24.002c-0.255,0-0.469-0.191-0.497-0.445l-0.429-3.86c-0.03-0.274,0.168-0.521,0.442-0.552
		c0.019-0.002,0.037-0.003,0.054-0.003c0.256,0,0.471,0.191,0.499,0.445l0.379,3.415h1.105l0.451-4.055
		c0.028-0.254,0.242-0.445,0.497-0.445h1v-2c0-0.363-0.08-0.728-0.233-1.056c-0.281-0.605-0.782-1.065-1.409-1.294
		c-0.278-0.102-0.568-0.153-0.859-0.153c-0.364,0-0.718,0.079-1.052,0.234c-0.067,0.031-0.138,0.047-0.211,0.047
		c-0.194,0-0.372-0.114-0.453-0.29c-0.056-0.121-0.062-0.257-0.016-0.382c0.046-0.125,0.138-0.226,0.259-0.282
		c0.468-0.218,0.964-0.328,1.474-0.328c0.409,0,0.813,0.072,1.202,0.214c0.878,0.321,1.579,0.964,1.973,1.812
		C21.887,15.484,22,15.995,22,16.502v2.5c0,0.276-0.224,0.5-0.5,0.5h-1.052l-0.451,4.055c-0.028,0.254-0.242,0.445-0.497,0.445H17.5
		z"/>
	<path d="M23.5,24.002c-0.276,0-0.5-0.224-0.5-0.5v-14.7c0-0.164-0.08-0.317-0.215-0.411l-10.5-7.3
		C12.202,1.033,12.103,1.002,12,1.002c-0.103,0-0.202,0.031-0.286,0.089l-10.5,7.3C1.08,8.485,1,8.638,1,8.802v14.7
		c0,0.276-0.224,0.5-0.5,0.5S0,23.777,0,23.502v-14.7C0,8.311,0.24,7.851,0.643,7.57l10.5-7.3C11.395,0.095,11.691,0.003,12,0.003
		c0.309,0,0.605,0.093,0.857,0.268l10.5,7.3C23.76,7.851,24,8.311,24,8.802v14.7C24,23.777,23.776,24.002,23.5,24.002z"/>
	<path d="M12,21.779c-0.259,0-0.505-0.099-0.692-0.277L8.23,18.292c-0.761-0.762-0.949-1.928-0.464-2.899
		c0.429-0.858,1.293-1.391,2.255-1.391c0.392,0,0.77,0.089,1.122,0.266c0.242,0.121,0.462,0.28,0.654,0.471L12,14.943l0.203-0.203
		c0.475-0.475,1.107-0.736,1.78-0.736s1.305,0.261,1.78,0.736c0.191,0.191,0.35,0.411,0.471,0.654
		c0.485,0.971,0.295,2.139-0.472,2.906l-3.041,3.172C12.534,21.666,12.271,21.779,12,21.779z M10.02,15.002
		c-0.58,0-1.101,0.321-1.359,0.838c-0.293,0.585-0.178,1.289,0.284,1.752L12,20.779l3.048-3.179
		c0.469-0.469,0.584-1.174,0.292-1.759c-0.073-0.146-0.168-0.278-0.284-0.394c-0.286-0.286-0.667-0.444-1.073-0.444
		s-0.787,0.157-1.073,0.443l-0.557,0.557c-0.094,0.094-0.22,0.146-0.354,0.146s-0.259-0.052-0.354-0.146l-0.557-0.557
		c-0.116-0.115-0.248-0.211-0.394-0.284C10.483,15.056,10.256,15.002,10.02,15.002z"/>
</g>
</svg>
