<?xml version="1.0" encoding="utf-8"?>
<!-- Generator: Adobe Illustrator 22.1.0, SVG Export Plug-In . SVG Version: 6.00 Build 0)  -->
<svg version="1.1" id="Layer_1" xmlns="http://www.w3.org/2000/svg" xmlns:xlink="http://www.w3.org/1999/xlink" x="0px" y="0px"
	 viewBox="0 0 24 24" style="enable-background:new 0 0 24 24;" xml:space="preserve">
<g>
	<title>couple-man-man</title>
	<path d="M12,11.222c-0.26,0-0.507-0.099-0.694-0.279c-0.001-0.001-4.78-4.959-4.78-4.959c-1.07-1.062-1.334-2.69-0.654-4.045
		c0.427-0.844,1.156-1.47,2.054-1.764c0.359-0.118,0.73-0.177,1.104-0.177c0.556,0,1.092,0.129,1.594,0.383
		c0.33,0.167,0.631,0.384,0.894,0.645L12,1.506l0.482-0.48c0.666-0.661,1.551-1.026,2.491-1.026c0.95,0,1.841,0.37,2.509,1.043
		c0.261,0.263,0.478,0.564,0.645,0.893c0.681,1.357,0.416,2.986-0.66,4.055l-4.747,4.925C12.53,11.114,12.274,11.222,12,11.222z
		 M9.031,0.999c-0.964,0-1.832,0.532-2.266,1.389C6.28,3.355,6.47,4.518,7.238,5.282L12,10.223l4.754-4.933
		c0.775-0.77,0.966-1.935,0.48-2.903c-0.119-0.235-0.275-0.451-0.462-0.639C16.294,1.266,15.655,1,14.974,1
		c-0.675,0-1.309,0.261-1.786,0.735l-0.835,0.831C12.258,2.66,12.133,2.712,12,2.712s-0.258-0.052-0.353-0.145l-0.835-0.831
		c-0.188-0.187-0.404-0.342-0.64-0.462C9.814,1.091,9.43,0.999,9.031,0.999z"/>
	<path d="M5.5,17.999c-1.93,0-3.5-1.57-3.5-3.5c0-0.604,0.159-1.201,0.461-1.73c0.011-0.023,0.023-0.039,0.029-0.049
		c0.629-1.061,1.782-1.721,3.009-1.721c1.743,0,3.233,1.304,3.465,3.033c0.001,0.005,0.005,0.021,0.006,0.042
		C8.991,14.23,9,14.369,9,14.499C9,16.428,7.43,17.999,5.5,17.999z M3.099,13.806C3.033,14.031,3,14.263,3,14.499
		c0,1.378,1.121,2.5,2.5,2.5c1.281,0,2.339-0.968,2.483-2.21c-0.484,0.137-0.977,0.206-1.468,0.206
		C5.269,14.994,4.069,14.575,3.099,13.806z M3.575,12.907c0.814,0.701,1.848,1.084,2.938,1.084c0.472,0,0.935-0.073,1.379-0.218
		c-0.316-1.041-1.289-1.775-2.392-1.775C4.754,11.999,4.049,12.334,3.575,12.907z"/>
	<path d="M0.5,23.999c-0.276,0-0.5-0.224-0.5-0.5c0-3.033,2.467-5.5,5.5-5.5s5.5,2.467,5.5,5.5c0,0.276-0.224,0.5-0.5,0.5H0.5z
		 M9.973,22.999c-0.25-2.263-2.166-4-4.473-4s-4.223,1.737-4.473,4H9.973z"/>
	<path d="M18.5,17.999c-1.93,0-3.5-1.57-3.5-3.5c0-0.604,0.159-1.201,0.461-1.73c0.011-0.023,0.022-0.04,0.03-0.05
		c0.629-1.06,1.782-1.72,3.009-1.72c1.744,0,3.234,1.304,3.466,3.034c0.001,0.004,0.005,0.02,0.006,0.042
		C21.991,14.232,22,14.367,22,14.499C22,16.428,20.43,17.999,18.5,17.999z M16.099,13.806C16.033,14.031,16,14.263,16,14.499
		c0,1.378,1.122,2.5,2.5,2.5c1.281,0,2.339-0.968,2.483-2.21c-0.484,0.137-0.977,0.206-1.469,0.206
		C18.269,14.994,17.069,14.575,16.099,13.806z M16.575,12.907c0.813,0.701,1.848,1.084,2.938,1.084c0.472,0,0.935-0.073,1.38-0.218
		c-0.316-1.041-1.29-1.775-2.392-1.775C17.754,11.999,17.049,12.334,16.575,12.907z"/>
	<path d="M13.5,23.999c-0.276,0-0.5-0.224-0.5-0.5c0-3.033,2.467-5.5,5.5-5.5s5.5,2.467,5.5,5.5c0,0.276-0.224,0.5-0.5,0.5H13.5z
		 M22.972,22.999c-0.25-2.263-2.166-4-4.472-4s-4.223,1.737-4.472,4H22.972z"/>
</g>
</svg>
