<?xml version="1.0" encoding="utf-8"?>
<!-- Generator: Adobe Illustrator 22.1.0, SVG Export Plug-In . SVG Version: 6.00 Build 0)  -->
<svg version="1.1" id="Layer_1" xmlns="http://www.w3.org/2000/svg" xmlns:xlink="http://www.w3.org/1999/xlink" x="0px" y="0px"
	 viewBox="0 0 24 24" style="enable-background:new 0 0 24 24;" xml:space="preserve">
<g>
	<title>couple-frame-image</title>
	<path d="M1.5,24C0.673,24,0,23.327,0,22.5v-14C0,7.673,0.673,7,1.5,7h5.275l3.519-3.959C10.101,2.727,10,2.371,10,2
		c0-1.103,0.897-2,2-2s2,0.897,2,2c0,0.371-0.101,0.727-0.294,1.041L17.225,7H22.5C23.327,7,24,7.673,24,8.5v14
		c0,0.827-0.673,1.5-1.5,1.5H1.5z M1.5,8C1.224,8,1,8.224,1,8.5v14C1,22.776,1.224,23,1.5,23h21c0.276,0,0.5-0.224,0.5-0.5v-14
		C23,8.224,22.776,8,22.5,8H1.5z M15.887,7l-2.9-3.263C12.686,3.91,12.349,4,12,4c-0.349,0-0.686-0.09-0.987-0.262L8.113,7H15.887z
		 M12,1c-0.551,0-1,0.449-1,1s0.449,1,1,1c0.552,0,1-0.449,1-1S12.552,1,12,1z"/>
	<path d="M11.912,15.5c-0.133,0-0.258-0.052-0.353-0.146l-2.557-2.54c-0.61-0.57-0.766-1.495-0.374-2.246
		C8.901,10.08,9.34,9.731,9.868,9.581c0.185-0.053,0.375-0.079,0.565-0.079c0.346,0,0.691,0.09,0.997,0.26
		c0.147,0.082,0.285,0.183,0.408,0.299l0.075,0.072l0.072-0.069c0.384-0.362,0.884-0.56,1.411-0.56c0.564,0,1.108,0.235,1.494,0.644
		c0.117,0.124,0.218,0.262,0.3,0.41c0.399,0.76,0.242,1.692-0.379,2.272l-2.546,2.526C12.17,15.448,12.045,15.5,11.912,15.5z
		 M10.431,10.502c-0.098,0-0.195,0.014-0.29,0.041c-0.271,0.077-0.495,0.255-0.632,0.501c-0.18,0.344-0.104,0.779,0.188,1.051
		l2.216,2.201l2.205-2.188c0.301-0.281,0.378-0.721,0.192-1.076c-0.037-0.066-0.089-0.137-0.148-0.2
		c-0.2-0.213-0.473-0.33-0.766-0.33c-0.27,0-0.526,0.102-0.722,0.286l-0.415,0.397c-0.093,0.089-0.216,0.139-0.345,0.139
		s-0.252-0.049-0.346-0.139l-0.417-0.4c-0.061-0.057-0.131-0.108-0.206-0.15C10.785,10.548,10.609,10.502,10.431,10.502z"/>
	<path d="M6.5,21C4.57,21,3,19.43,3,17.5c0-0.604,0.159-1.201,0.461-1.73c0.011-0.023,0.023-0.039,0.029-0.049
		C4.119,14.66,5.273,14,6.5,14c1.743,0,3.233,1.304,3.465,3.033c0.001,0.005,0.005,0.021,0.006,0.042C9.991,17.231,10,17.37,10,17.5
		C10,19.43,8.43,21,6.5,21z M4.099,16.808C4.033,17.033,4,17.264,4,17.5C4,18.878,5.121,20,6.5,20c1.281,0,2.339-0.968,2.483-2.21
		c-0.484,0.137-0.977,0.206-1.468,0.206C6.269,17.996,5.069,17.576,4.099,16.808z M4.575,15.908
		c0.813,0.701,1.848,1.084,2.938,1.084c0.472,0,0.935-0.073,1.379-0.218C8.576,15.735,7.603,15,6.5,15
		C5.754,15,5.049,15.336,4.575,15.908z"/>
	<path d="M13.858,21.144c-0.092,0-0.182-0.025-0.26-0.073c-0.114-0.069-0.194-0.179-0.226-0.309c-0.031-0.13-0.01-0.264,0.059-0.378
		c0.349-0.573,0.522-1.232,0.5-1.904l0-0.908c0-1.968,1.601-3.569,3.569-3.569s3.569,1.601,3.569,3.569v0.892
		c-0.023,0.686,0.15,1.347,0.5,1.921c0.07,0.114,0.091,0.248,0.059,0.378c-0.031,0.13-0.112,0.24-0.226,0.309
		c-0.078,0.048-0.168,0.073-0.26,0.073c-0.174,0-0.337-0.092-0.427-0.24c-0.254-0.416-0.436-0.872-0.541-1.346
		c-0.523,0.793-1.38,1.327-2.354,1.424c-0.108,0.011-0.216,0.016-0.322,0.016c-1.082,0-2.086-0.564-2.671-1.442
		c-0.105,0.475-0.287,0.931-0.542,1.349C14.193,21.054,14.034,21.144,13.858,21.144z M15.399,18.468c0.29,0.9,1.136,1.53,2.099,1.53
		c0.073,0,0.147-0.004,0.222-0.011c0.871-0.087,1.612-0.698,1.88-1.519c-0.79-0.171-1.508-0.54-2.101-1.081
		C16.908,17.927,16.19,18.297,15.399,18.468z M17.5,15.002c-1.405,0-2.551,1.134-2.569,2.535c0.854-0.121,1.624-0.538,2.19-1.193
		c0.093-0.107,0.231-0.169,0.378-0.169s0.285,0.061,0.378,0.168c0.566,0.655,1.336,1.073,2.191,1.193
		C20.051,16.136,18.905,15.002,17.5,15.002z"/>
</g>
</svg>
