<?xml version="1.0" encoding="utf-8"?>
<!-- Generator: Adobe Illustrator 22.1.0, SVG Export Plug-In . SVG Version: 6.00 Build 0)  -->
<svg version="1.1" id="Layer_1" xmlns="http://www.w3.org/2000/svg" xmlns:xlink="http://www.w3.org/1999/xlink" x="0px" y="0px"
	 viewBox="0 0 24 24" style="enable-background:new 0 0 24 24;" xml:space="preserve">
<g>
	<title>couple-film</title>
	<path d="M12,15.847c-0.223,0-0.443-0.076-0.618-0.214C10.215,14.719,7.5,12.379,7.5,10.415c0-1.622,1.112-2.538,2.146-2.702
		c0.116-0.019,0.236-0.028,0.356-0.028c0.395,0,1.32,0.112,1.998,1.07c0.678-0.956,1.602-1.068,1.997-1.068
		c0.12,0,0.24,0.009,0.355,0.028c1.034,0.164,2.147,1.079,2.147,2.7c0,1.964-2.715,4.304-3.882,5.219
		C12.442,15.771,12.223,15.847,12,15.847z M10.011,8.685c-0.07,0-0.14,0.005-0.209,0.016C9.175,8.801,8.5,9.38,8.5,10.415
		c0,1.245,1.808,3.106,3.499,4.431c1.693-1.325,3.501-3.186,3.501-4.431c0-1.034-0.676-1.613-1.303-1.712
		c-0.069-0.011-0.14-0.017-0.21-0.017c-0.323,0-1.116,0.131-1.511,1.347c-0.067,0.206-0.258,0.345-0.475,0.345
		s-0.408-0.139-0.475-0.345C11.128,8.816,10.334,8.685,10.011,8.685z"/>
	<path d="M2.5,22.5C1.121,22.5,0,21.378,0,20V4c0-1.379,1.121-2.5,2.5-2.5h19C22.878,1.5,24,2.621,24,4v16
		c0,1.378-1.122,2.5-2.5,2.5H2.5z M1,20c0,0.827,0.673,1.5,1.5,1.5h19c0.827,0,1.5-0.673,1.5-1.5v-1.5H1V20z M23,17.5v-11H1v11H23z
		 M23,5.5V4c0-0.827-0.673-1.5-1.5-1.5h-19C1.673,2.5,1,3.173,1,4v1.5H23z"/>
	<circle cx="3.75" cy="4" r="0.75"/>
	<circle cx="7.875" cy="4" r="0.75"/>
	<circle cx="16.125" cy="4" r="0.75"/>
	<circle cx="12" cy="4" r="0.75"/>
	<circle cx="3.75" cy="20" r="0.75"/>
	<circle cx="7.875" cy="20" r="0.75"/>
	<circle cx="16.125" cy="20" r="0.75"/>
	<circle cx="12" cy="20" r="0.75"/>
	<circle cx="20.25" cy="4" r="0.75"/>
	<circle cx="20.25" cy="20" r="0.75"/>
</g>
</svg>
