<?xml version="1.0" encoding="utf-8"?>
<!-- Generator: Adobe Illustrator 22.1.0, SVG Export Plug-In . SVG Version: 6.00 Build 0)  -->
<svg version="1.1" id="Light" xmlns="http://www.w3.org/2000/svg" xmlns:xlink="http://www.w3.org/1999/xlink" x="0px" y="0px"
	 viewBox="0 0 24 24" style="enable-background:new 0 0 24 24;" xml:space="preserve">
<g>
	<title>movie-celebrity</title>
	<path d="M12,7.501c-1.792,0-3.25-1.458-3.25-3.25s1.458-3.25,3.25-3.25c1.792,0,3.25,1.458,3.25,3.25S13.792,7.501,12,7.501z
		 M12,2.001c-1.241,0-2.25,1.009-2.25,2.25s1.009,2.25,2.25,2.25c1.241,0,2.25-1.009,2.25-2.25S13.241,2.001,12,2.001z"/>
	<path d="M10.5,20.001c-0.258,0-0.477-0.201-0.498-0.458l-0.379-4.542H8.5c-0.276,0-0.5-0.224-0.5-0.5v-3
		c0-1.289,0.629-2.504,1.684-3.256c0.003-0.003,0.007-0.006,0.01-0.009c0.012-0.01,0.028-0.021,0.044-0.03
		C10.412,7.743,11.192,7.501,12,7.501c0.811,0,1.593,0.244,2.263,0.706c0.015,0.008,0.03,0.018,0.041,0.027
		c0.004,0.003,0.008,0.007,0.013,0.011C15.371,8.997,16,10.212,16,11.501v3c0,0.276-0.224,0.5-0.5,0.5h-1.123l-0.379,4.542
		c-0.021,0.257-0.24,0.458-0.498,0.458H10.5z M13.04,19.001l0.379-4.542c0.021-0.257,0.24-0.458,0.498-0.458H15v-2.5
		c0-0.833-0.342-1.615-0.947-2.183l-1.669,2.003c-0.095,0.114-0.235,0.18-0.384,0.18s-0.289-0.066-0.384-0.18L9.947,9.318
		C9.342,9.885,9,10.668,9,11.501v2.5h1.083c0.258,0,0.477,0.201,0.498,0.458l0.379,4.542H13.04z M12,10.22l1.216-1.459
		C12.833,8.59,12.418,8.501,12,8.501s-0.833,0.089-1.216,0.26L12,10.22z"/>
	<path d="M5.5,24.001c-0.045,0-0.091-0.006-0.135-0.019c-0.267-0.077-0.421-0.354-0.345-0.619l2-7
		c0.061-0.213,0.259-0.362,0.482-0.362c0.045,0,0.09,0.006,0.134,0.018c0.268,0.077,0.422,0.354,0.346,0.619l-2,7
		C5.92,23.852,5.722,24.001,5.5,24.001z"/>
	<path d="M18.5,24.001c-0.222,0-0.419-0.149-0.48-0.363l-2-7c-0.075-0.265,0.079-0.542,0.344-0.618
		c0.046-0.013,0.091-0.019,0.136-0.019c0.223,0,0.421,0.149,0.482,0.362l2,7c0.075,0.265-0.079,0.542-0.344,0.618
		C18.591,23.995,18.545,24.001,18.5,24.001z"/>
	<path d="M1.5,24.001c-0.276,0-0.5-0.224-0.5-0.5v-6.086c-0.59-0.209-1-0.774-1-1.414c0-0.827,0.673-1.5,1.5-1.5
		c0.124,0,0.248,0.016,0.368,0.047L4.3,10.899C4.105,10.641,4,10.329,4,10.001c0-0.827,0.673-1.5,1.5-1.5S7,9.174,7,10.001
		c0,0.64-0.41,1.205-1,1.414v4.086c0,0.276-0.224,0.5-0.5,0.5S5,15.777,5,15.501v-3.849l-2.3,3.451C2.895,15.361,3,15.673,3,16.001
		c0,0.64-0.41,1.205-1,1.414v6.086C2,23.777,1.776,24.001,1.5,24.001z M1.5,15.501c-0.276,0-0.5,0.224-0.5,0.5s0.224,0.5,0.5,0.5
		s0.5-0.224,0.5-0.5S1.776,15.501,1.5,15.501z M5.5,9.501c-0.276,0-0.5,0.224-0.5,0.5s0.224,0.5,0.5,0.5s0.5-0.224,0.5-0.5
		S5.776,9.501,5.5,9.501z"/>
	<path d="M22.5,24.001c-0.276,0-0.5-0.224-0.5-0.5v-6.086c-0.59-0.209-1-0.774-1-1.414c0-0.328,0.105-0.64,0.3-0.899l-2.3-3.45
		v3.849c0,0.276-0.224,0.5-0.5,0.5s-0.5-0.224-0.5-0.5v-4.086c-0.59-0.209-1-0.774-1-1.414c0-0.827,0.673-1.5,1.5-1.5
		s1.5,0.673,1.5,1.5c0,0.328-0.105,0.64-0.3,0.898l2.432,3.648c0.121-0.031,0.244-0.047,0.368-0.047c0.827,0,1.5,0.673,1.5,1.5
		c0,0.64-0.41,1.205-1,1.414v6.086C23,23.777,22.776,24.001,22.5,24.001z M22.5,15.501c-0.276,0-0.5,0.224-0.5,0.5
		s0.224,0.5,0.5,0.5s0.5-0.224,0.5-0.5S22.776,15.501,22.5,15.501z M18.5,9.501c-0.276,0-0.5,0.224-0.5,0.5s0.224,0.5,0.5,0.5
		s0.5-0.224,0.5-0.5S18.776,9.501,18.5,9.501z"/>
	<path d="M6,6.501c-0.134,0-0.259-0.052-0.354-0.146l-1.25-1.25C4.302,5.01,4.25,4.885,4.25,4.751s0.052-0.259,0.146-0.354
		s0.22-0.146,0.354-0.146s0.259,0.052,0.354,0.146l1.25,1.25C6.448,5.742,6.5,5.867,6.5,6.001S6.448,6.26,6.354,6.355
		S6.134,6.501,6,6.501z"/>
	<path d="M2.5,7.001c-0.276,0-0.5-0.224-0.5-0.5V4.708l-1.44-1.44C0.199,2.908,0,2.427,0,1.915s0.199-0.993,0.56-1.354
		c0.361-0.361,0.842-0.56,1.354-0.56c0.512,0,0.992,0.199,1.353,0.56l1.44,1.44H6.5c0.276,0,0.5,0.224,0.5,0.5s-0.224,0.5-0.5,0.5
		H4.707L3,4.708v1.793C3,6.777,2.776,7.001,2.5,7.001z M1.914,1.001c-0.245,0-0.474,0.095-0.646,0.267
		c-0.356,0.356-0.356,0.936,0,1.293L2.5,3.794l1.293-1.293L2.56,1.268C2.388,1.096,2.159,1.001,1.914,1.001z"/>
	<path d="M21.5,7.001c-0.276,0-0.5-0.224-0.5-0.5V4.708l-1.707-1.707H17.5c-0.276,0-0.5-0.224-0.5-0.5s0.224-0.5,0.5-0.5h1.793
		l1.439-1.44c0.361-0.361,0.842-0.56,1.354-0.56s0.992,0.199,1.354,0.56C23.801,0.922,24,1.403,24,1.915s-0.199,0.993-0.56,1.354
		L22,4.708v1.793C22,6.777,21.776,7.001,21.5,7.001z M21.5,3.794l1.232-1.233c0.356-0.356,0.356-0.937,0-1.293
		c-0.172-0.172-0.402-0.267-0.646-0.267s-0.474,0.095-0.646,0.267l-1.232,1.232L21.5,3.794z"/>
	<path d="M18,6.501c-0.134,0-0.259-0.052-0.354-0.146S17.5,6.135,17.5,6.001s0.052-0.259,0.146-0.354l1.25-1.25
		c0.094-0.094,0.22-0.146,0.354-0.146s0.259,0.052,0.354,0.146s0.146,0.22,0.146,0.354s-0.052,0.259-0.146,0.354l-1.25,1.25
		C18.259,6.449,18.134,6.501,18,6.501z"/>
</g>
</svg>
