<?xml version="1.0" encoding="utf-8"?>
<!-- Generator: Adobe Illustrator 22.1.0, SVG Export Plug-In . SVG Version: 6.00 Build 0)  -->
<svg version="1.1" id="Light" xmlns="http://www.w3.org/2000/svg" xmlns:xlink="http://www.w3.org/1999/xlink" x="0px" y="0px"
	 viewBox="0 0 24 24" style="enable-background:new 0 0 24 24;" xml:space="preserve">
<g>
	<title>movie-cinema-watch-1</title>
	<path d="M2.5,14C1.121,14,0,12.878,0,11.5v-9C0,1.121,1.121,0,2.5,0h19C22.878,0,24,1.121,24,2.5v9c0,1.378-1.122,2.5-2.5,2.5H2.5z
		 M21.5,13c0.827,0,1.5-0.673,1.5-1.5V10h-3v3H21.5z M19,13V1H5v12H19z M1,11.5C1,12.327,1.673,13,2.5,13H4v-3H1V11.5z M23,9V5h-3v4
		H23z M4,9V5H1v4H4z M23,4V2.5C23,1.673,22.327,1,21.5,1H20v3H23z M4,4V1H2.5C1.673,1,1,1.673,1,2.5V4H4z"/>
	<path d="M9,11c-0.267,0-0.518-0.104-0.707-0.293C8.104,10.518,8,10.267,8,10V4c0-0.125,0.023-0.246,0.068-0.362
		c0.097-0.249,0.284-0.445,0.529-0.553C8.725,3.028,8.861,3,9,3c0.124,0,0.245,0.023,0.362,0.068l6.519,2.534
		c0.391,0.152,0.703,0.464,0.854,0.854c0.145,0.373,0.136,0.781-0.025,1.148s-0.456,0.649-0.829,0.794l-6.519,2.534
		C9.246,10.977,9.125,11,9,11z M9,10l6.519-2.534c0.125-0.048,0.223-0.142,0.277-0.265c0.054-0.122,0.057-0.258,0.008-0.383
		c-0.051-0.13-0.154-0.234-0.285-0.285L9,4L9,10z"/>
	<path d="M4.333,21c-1.654,0-3-1.346-3-3s1.346-3,3-3s3,1.346,3,3S5.987,21,4.333,21z M4.333,16c-1.103,0-2,0.897-2,2s0.897,2,2,2
		s2-0.897,2-2S5.436,16,4.333,16z"/>
	<path d="M19.667,21c-1.654,0-3-1.346-3-3s1.346-3,3-3s3,1.346,3,3S21.321,21,19.667,21z M19.667,16c-1.103,0-2,0.897-2,2
		s0.897,2,2,2s2-0.897,2-2S20.77,16,19.667,16z"/>
	<path d="M12,21c-1.654,0-3-1.346-3-3s1.346-3,3-3c1.654,0,3,1.346,3,3S13.654,21,12,21z M12,16c-1.103,0-2,0.897-2,2s0.897,2,2,2
		s2-0.897,2-2S13.103,16,12,16z"/>
	<path d="M15.828,24c-0.165-0.001-0.319-0.084-0.411-0.221c-0.748-1.114-1.996-1.78-3.339-1.78L12.008,22l-0.095-0.001
		c-1.338,0-2.583,0.665-3.331,1.78c-0.09,0.134-0.245,0.214-0.415,0.214c-0.17,0-0.325-0.08-0.415-0.214
		c-0.748-1.114-1.995-1.78-3.335-1.78H4.261c-1.347,0-2.598,0.665-3.346,1.78C0.822,23.917,0.667,24,0.5,24
		c-0.1,0-0.196-0.029-0.279-0.085c-0.111-0.074-0.186-0.188-0.212-0.319s0.001-0.264,0.076-0.375C1.019,21.83,2.582,21,4.264,21
		l0.155,0c1.448,0,2.797,0.61,3.748,1.685c0.95-1.075,2.298-1.685,3.743-1.685L12.009,21l0.073-0.001
		c1.453,0,2.806,0.613,3.757,1.692c0.764-0.842,1.79-1.41,2.919-1.611c0.304-0.054,0.613-0.082,0.919-0.082
		c1.055,0,2.075,0.322,2.949,0.932c0.502,0.35,0.934,0.782,1.283,1.283c0.157,0.226,0.102,0.539-0.124,0.696
		C23.7,23.969,23.602,24,23.5,24l0,0c-0.163,0-0.317-0.08-0.41-0.213c-0.282-0.405-0.63-0.753-1.036-1.036
		c-0.703-0.49-1.526-0.749-2.382-0.749c-1.368,0-2.65,0.667-3.429,1.785c-0.084,0.119-0.225,0.197-0.388,0.213
		C15.847,24,15.839,24,15.831,24C15.83,24,15.829,24,15.828,24z"/>
</g>
</svg>
