<?xml version="1.0" encoding="utf-8"?>
<!-- Generator: Adobe Illustrator 22.1.0, SVG Export Plug-In . SVG Version: 6.00 Build 0)  -->
<svg version="1.1" id="Light" xmlns="http://www.w3.org/2000/svg" xmlns:xlink="http://www.w3.org/1999/xlink" x="0px" y="0px"
	 viewBox="0 0 24 24" style="enable-background:new 0 0 24 24;" xml:space="preserve">
<g>
	<title>movie-cinema-watch</title>
	<path d="M2.5,14C1.122,14,0,12.878,0,11.5v-9C0,1.121,1.122,0,2.5,0h19C22.879,0,24,1.121,24,2.5v9c0,1.378-1.122,2.5-2.5,2.5H2.5z
		 M21.5,13c0.827,0,1.5-0.673,1.5-1.5V10h-3v3H21.5z M19,13V1H5v12H19z M1,11.5C1,12.327,1.673,13,2.5,13H4v-3H1V11.5z M23,9V5h-3v4
		H23z M4,9V5H1v4H4z M23,4V2.5C23,1.673,22.328,1,21.5,1H20v3H23z M4,4V1H2.5C1.673,1,1,1.673,1,2.5V4H4z"/>
	<path d="M0.5,24C0.225,24,0,23.776,0,23.5S0.225,23,0.5,23H4v-0.5c0.002-0.533-0.202-1.034-0.576-1.411
		C3.05,20.711,2.552,20.502,2.02,20.5c-0.442,0-0.872,0.145-1.217,0.408c-0.088,0.067-0.193,0.103-0.303,0.103
		c-0.157,0-0.302-0.072-0.397-0.196c-0.167-0.22-0.125-0.534,0.094-0.701c0.382-0.292,0.829-0.486,1.303-0.568V19.5
		c-0.001-0.794-0.472-1.513-1.2-1.831c-0.252-0.11-0.368-0.405-0.258-0.658c0.08-0.183,0.26-0.3,0.458-0.3
		c0.07,0,0.137,0.014,0.201,0.042c0.532,0.232,0.981,0.612,1.299,1.09C2.551,17.015,3.489,16.5,4.5,16.5
		c1.011,0,1.949,0.515,2.5,1.343C7.551,17.015,8.489,16.5,9.5,16.5s1.949,0.515,2.5,1.343c0.551-0.828,1.489-1.343,2.5-1.343
		c1.011,0,1.949,0.515,2.5,1.343c0.551-0.828,1.489-1.343,2.5-1.343c1.011,0,1.949,0.515,2.5,1.344
		c0.317-0.479,0.767-0.858,1.3-1.091c0.064-0.028,0.131-0.042,0.201-0.042c0.198,0,0.378,0.118,0.458,0.3
		c0.053,0.122,0.056,0.258,0.007,0.383c-0.049,0.124-0.143,0.222-0.266,0.276c-0.728,0.318-1.199,1.037-1.2,1.831v0.045
		c0.473,0.081,0.92,0.276,1.304,0.568c0.219,0.168,0.261,0.482,0.094,0.701c-0.096,0.125-0.24,0.197-0.397,0.197
		c-0.11,0-0.215-0.035-0.303-0.102c-0.351-0.268-0.767-0.409-1.204-0.409c-0.089,0-0.179,0.006-0.268,0.018
		c-0.526,0.071-0.994,0.342-1.316,0.764c-0.266,0.347-0.411,0.779-0.409,1.216V23h3.5c0.276,0,0.5,0.224,0.5,0.5S23.776,24,23.5,24
		H0.5z M19,23v-0.5c0-1.103-0.897-2-2-2s-2,0.897-2,2V23H19z M14,23v-0.5c0-1.103-0.897-2-2-2s-2,0.897-2,2V23H14z M9,23v-0.5
		c0-1.103-0.897-2-2-2s-2,0.897-2,2V23H9z M12.5,19.543c0.818,0.139,1.543,0.615,2,1.305c0.457-0.69,1.182-1.166,2-1.305V19.5
		c0-1.103-0.897-2-2-2s-2,0.897-2,2V19.543z M7.5,19.543c0.818,0.139,1.543,0.615,2,1.305c0.457-0.69,1.182-1.166,2-1.305V19.5
		c0-1.103-0.897-2-2-2s-2,0.897-2,2V19.543z M2.5,19.542c0.617,0.102,1.191,0.396,1.634,0.843c0.138,0.14,0.262,0.292,0.37,0.457
		c0.457-0.686,1.18-1.16,1.996-1.299V19.5c0-1.103-0.897-2-2-2s-2,0.897-2,2V19.542z M17.5,19.543
		c0.815,0.138,1.539,0.612,1.996,1.298c0.038-0.058,0.077-0.113,0.118-0.167c0.466-0.609,1.133-1.01,1.886-1.134V19.5
		c0-1.103-0.897-2-2-2s-2,0.897-2,2V19.543z"/>
	<path d="M9.001,11c-0.267,0-0.518-0.104-0.707-0.293C8.104,10.518,8,10.267,8,10V4c0-0.125,0.023-0.246,0.068-0.362
		c0.097-0.249,0.284-0.445,0.529-0.553C8.726,3.028,8.861,3,9,3c0.124,0,0.245,0.023,0.362,0.068l6.519,2.534
		c0.391,0.152,0.703,0.464,0.854,0.854c0.145,0.373,0.136,0.781-0.025,1.148s-0.456,0.649-0.829,0.794l-6.519,2.534
		C9.247,10.977,9.125,11,9.001,11z M9,10l6.519-2.534c0.125-0.048,0.223-0.142,0.277-0.265c0.054-0.122,0.057-0.258,0.008-0.383
		c-0.051-0.13-0.154-0.234-0.285-0.285L9.001,4L9,10z"/>
</g>
</svg>
