<?xml version="1.0" encoding="utf-8"?>
<!-- Generator: Adobe Illustrator 22.1.0, SVG Export Plug-In . SVG Version: 6.00 Build 0)  -->
<svg version="1.1" id="Light" xmlns="http://www.w3.org/2000/svg" xmlns:xlink="http://www.w3.org/1999/xlink" x="0px" y="0px"
	 viewBox="0 0 24 24" style="enable-background:new 0 0 24 24;" xml:space="preserve">
<g>
	<title>movie-cinema</title>
	<circle cx="3.25" cy="19.75" r="0.75"/>
	<circle cx="3.25" cy="17.25" r="0.75"/>
	<circle cx="3.25" cy="14.75" r="0.75"/>
	<path d="M3.25,13c-0.414,0-0.75-0.336-0.75-0.75c0-0.413,0.336-0.75,0.75-0.75S4,11.837,4,12.25C4,12.664,3.664,13,3.25,13z"/>
	<circle cx="3.25" cy="9.751" r="0.75"/>
	<circle cx="5.75" cy="9.751" r="0.75"/>
	<circle cx="18.25" cy="9.751" r="0.75"/>
	<circle cx="7.75" cy="7.751" r="0.75"/>
	<circle cx="8.75" cy="5.251" r="0.75"/>
	<circle cx="10.75" cy="3.751" r="0.75"/>
	<circle cx="13.25" cy="3.751" r="0.75"/>
	<circle cx="20.75" cy="9.751" r="0.75"/>
	<path d="M20.75,13C20.336,13,20,12.664,20,12.25c0-0.413,0.336-0.75,0.75-0.75s0.75,0.336,0.75,0.75
		C21.5,12.664,21.164,13,20.75,13z"/>
	<circle cx="20.75" cy="14.75" r="0.75"/>
	<circle cx="20.75" cy="17.25" r="0.75"/>
	<circle cx="20.75" cy="19.75" r="0.75"/>
	<circle cx="10.75" cy="19.75" r="0.75"/>
	<circle cx="8.25" cy="19.75" r="0.75"/>
	<circle cx="5.75" cy="19.75" r="0.75"/>
	<circle cx="13.25" cy="19.75" r="0.75"/>
	<circle cx="15.75" cy="19.75" r="0.75"/>
	<circle cx="18.25" cy="19.75" r="0.75"/>
	<path d="M1.5,23C0.673,23,0,22.328,0,21.5v-13c0-0.827,0.673-1.5,1.5-1.5h3.158c0.236,0,0.442-0.168,0.489-0.4
		c0.56-2.757,2.704-4.9,5.461-5.46C11.067,1.047,11.537,1,12.002,1c3.31,0,6.191,2.356,6.851,5.601
		c0.047,0.231,0.253,0.399,0.49,0.4H22.5c0.827,0,1.5,0.673,1.5,1.5v13c0,0.827-0.673,1.5-1.5,1.5H1.5z M1.5,8.001
		c-0.276,0-0.5,0.224-0.5,0.5v13C1,21.776,1.224,22,1.5,22h21c0.276,0,0.5-0.224,0.5-0.5v-13c0-0.276-0.224-0.5-0.5-0.5h-3.158
		c-0.709-0.001-1.327-0.505-1.469-1.2C17.308,4.019,14.838,2,12.001,2c-0.399,0-0.801,0.041-1.195,0.12
		c-2.363,0.48-4.2,2.317-4.68,4.68C5.985,7.495,5.368,8,4.658,8.001H1.5z"/>
	<circle cx="16.25" cy="7.751" r="0.75"/>
	<circle cx="15.25" cy="5.251" r="0.75"/>
	<path d="M9.421,17.001c-0.089,0-0.177-0.011-0.262-0.034c-0.264-0.069-0.486-0.238-0.623-0.474
		c-0.161-0.276-0.184-0.617-0.06-0.912l0.802-1.839l-1.401-0.977c-0.014-0.009-0.03-0.022-0.045-0.035
		c-0.409-0.361-0.447-0.987-0.086-1.396C7.934,11.122,8.199,11,8.474,11c0.019,0,0.037,0,0.056,0.002l1.63-0.001l0.907-2.391
		c0.007-0.018,0.015-0.035,0.023-0.052c0.127-0.245,0.341-0.426,0.604-0.509C11.798,8.017,11.903,8,12.009,8
		c0.164,0,0.327,0.04,0.473,0.116c0.189,0.098,0.342,0.251,0.441,0.441c0.01,0.019,0.018,0.036,0.024,0.054l0.904,2.389L15.535,11
		c0.243,0,0.479,0.093,0.662,0.263c0.195,0.18,0.307,0.424,0.318,0.688c0.012,0.296-0.108,0.58-0.33,0.778
		c-0.015,0.013-0.029,0.024-0.043,0.034l-1.404,0.98l0.798,1.833c0.22,0.525-0.025,1.127-0.545,1.345
		C14.866,16.974,14.733,17,14.596,17l0,0c-0.182,0-0.361-0.048-0.516-0.14l-2.072-1.165l-2.079,1.169
		C9.777,16.954,9.6,17.001,9.421,17.001z M10.186,13.156c0.195,0.136,0.267,0.392,0.172,0.61l-0.963,2.209L9.35,16.242L9.413,16
		l2.349-1.314c0.075-0.042,0.16-0.064,0.245-0.064c0.085,0,0.17,0.022,0.245,0.064l2.326,1.307c0,0,0.028,0.006,0.028,0.006
		c0.011-0.005,0.017-0.019,0.012-0.03l-0.959-2.202c-0.095-0.218-0.022-0.474,0.172-0.61l1.683-1.174l-2.007,0.018
		c-0.207,0-0.394-0.13-0.468-0.323L12.03,9.014l-0.023-0.013l-1.034,2.677c-0.073,0.193-0.261,0.323-0.468,0.323H8.528
		L10.186,13.156z"/>
</g>
</svg>
