<?xml version="1.0" encoding="utf-8"?>
<!-- Generator: Adobe Illustrator 22.1.0, SVG Export Plug-In . SVG Version: 6.00 Build 0)  -->
<svg version="1.1" id="Layer_1" xmlns="http://www.w3.org/2000/svg" xmlns:xlink="http://www.w3.org/1999/xlink" x="0px" y="0px"
	 viewBox="0 0 24 24" style="enable-background:new 0 0 24 24;" xml:space="preserve">
<g>
	<title>beacon-remote-vehicle</title>
	<path d="M13.328,5c-0.134,0-0.259-0.052-0.354-0.146c-0.66-0.66-1.539-1.023-2.474-1.023S8.685,4.194,8.026,4.854
		C7.931,4.948,7.806,5,7.672,5S7.413,4.948,7.318,4.854S7.172,4.634,7.172,4.5c0-0.134,0.052-0.259,0.147-0.354
		C8.167,3.298,9.297,2.831,10.5,2.831s2.333,0.467,3.181,1.316c0.094,0.094,0.146,0.22,0.146,0.354c0,0.134-0.052,0.259-0.146,0.354
		S13.461,5,13.328,5z"/>
	<path d="M6.257,2.758c-0.134,0-0.259-0.052-0.354-0.146c-0.094-0.094-0.146-0.22-0.146-0.354c0-0.134,0.052-0.259,0.146-0.354
		C7.131,0.677,8.763,0.001,10.5,0c1.736,0,3.369,0.676,4.596,1.904c0.097,0.097,0.098,0.255,0,0.353l-0.353,0.354
		c-0.047,0.047-0.111,0.073-0.177,0.074h0c-0.066,0-0.13-0.026-0.177-0.073C13.35,1.573,11.969,1,10.5,1
		C9.031,1,7.649,1.573,6.61,2.612C6.516,2.706,6.391,2.758,6.257,2.758z"/>
	<path d="M18.25,24c-1.232,0-2.314-0.83-2.646-2H8.396c-0.332,1.17-1.413,2-2.646,2s-2.314-0.83-2.646-2H1.5
		C0.673,22,0,21.327,0,20.5v-8C0,10.57,1.57,9,3.5,9C3.776,9,4,9.224,4,9.5S3.776,10,3.5,10C2.121,10,1,11.122,1,12.5v8
		C1,20.776,1.224,21,1.5,21h1.511c0.127-1.4,1.307-2.5,2.739-2.5s2.612,1.1,2.739,2.5h7.022c0.127-1.4,1.307-2.5,2.739-2.5
		s2.612,1.1,2.739,2.5H22.5c0.276,0,0.5-0.224,0.5-0.5V17h-1.894c-0.637,0-1.206-0.404-1.416-1.005l-0.698-2
		c-0.056-0.159-0.084-0.326-0.084-0.495c0-0.827,0.673-1.5,1.5-1.5h2.54c-0.235-1.141-1.261-2-2.448-2h-2.941
		c-0.276,0-0.5-0.224-0.5-0.5s0.224-0.5,0.5-0.5H20.5c1.93,0,3.5,1.57,3.5,3.5v8c0,0.827-0.673,1.5-1.5,1.5h-1.604
		C20.564,23.171,19.482,24,18.25,24z M18.25,19.5c-0.965,0-1.75,0.785-1.75,1.75S17.285,23,18.25,23S20,22.215,20,21.25
		S19.215,19.5,18.25,19.5z M5.75,19.5C4.785,19.5,4,20.285,4,21.25S4.785,23,5.75,23s1.75-0.785,1.75-1.75S6.715,19.5,5.75,19.5z
		 M20.634,15.665c0.07,0.2,0.26,0.335,0.472,0.335H23v-3h-2.592c-0.276,0-0.5,0.224-0.5,0.5c0,0.056,0.01,0.112,0.028,0.165
		L20.634,15.665L20.634,15.665z"/>
	<circle cx="5.75" cy="21.25" r="0.75"/>
	<circle cx="18.25" cy="21.25" r="0.75"/>
	<path d="M6.5,17C5.673,17,5,16.327,5,15.5v-8C5,6.673,5.673,6,6.5,6h8C15.327,6,16,6.673,16,7.5v8c0,0.827-0.673,1.5-1.5,1.5H6.5z
		 M6.5,7C6.224,7,6,7.224,6,7.5v8C6,15.776,6.224,16,6.5,16h8c0.276,0,0.5-0.224,0.5-0.5v-8C15,7.224,14.776,7,14.5,7H6.5z"/>
	<path d="M10.5,15c-0.276,0-0.5-0.224-0.5-0.5v-1.086C9.41,13.205,9,12.64,9,12c0-0.827,0.673-1.5,1.5-1.5S12,11.173,12,12
		c0,0.64-0.41,1.205-1,1.414V14.5C11,14.776,10.776,15,10.5,15z M10.5,11.5c-0.276,0-0.5,0.224-0.5,0.5s0.224,0.5,0.5,0.5
		S11,12.276,11,12S10.776,11.5,10.5,11.5z"/>
	<path d="M13.5,12.5c-0.276,0-0.5-0.224-0.5-0.5c0-1.379-1.121-2.5-2.5-2.5S8,10.622,8,12c0,0.276-0.224,0.5-0.5,0.5S7,12.276,7,12
		c0-1.93,1.57-3.5,3.5-3.5S14,10.07,14,12C14,12.276,13.776,12.5,13.5,12.5z"/>
</g>
</svg>
