<?xml version="1.0" encoding="utf-8"?>
<!-- Generator: Adobe Illustrator 22.1.0, SVG Export Plug-In . SVG Version: 6.00 Build 0)  -->
<svg version="1.1" id="Layer_1" xmlns="http://www.w3.org/2000/svg" xmlns:xlink="http://www.w3.org/1999/xlink" x="0px" y="0px"
	 viewBox="0 0 24 24" style="enable-background:new 0 0 24 24;" xml:space="preserve">
<g>
	<title>beacon-remote-monitor</title>
	<path d="M8.328,10.672c-0.134,0-0.259-0.052-0.354-0.146C7.315,9.866,6.436,9.503,5.5,9.503s-1.815,0.363-2.474,1.023
		c-0.094,0.094-0.22,0.146-0.354,0.146s-0.259-0.052-0.354-0.146s-0.146-0.22-0.146-0.354c0-0.134,0.052-0.259,0.147-0.354
		C3.167,8.97,4.297,8.503,5.5,8.503S7.833,8.97,8.682,9.818c0.094,0.094,0.146,0.22,0.146,0.354c0,0.134-0.052,0.259-0.146,0.354
		C8.587,10.62,8.462,10.672,8.328,10.672z"/>
	<path d="M1.257,8.258c-0.134,0-0.259-0.052-0.354-0.146c-0.094-0.094-0.146-0.22-0.146-0.354c0-0.134,0.052-0.259,0.146-0.354
		C2.131,6.177,3.763,5.5,5.5,5.5c1.736,0,3.369,0.676,4.596,1.904c0.098,0.097,0.098,0.255,0,0.353L9.743,8.111
		c-0.047,0.047-0.11,0.073-0.177,0.074c0,0,0,0,0,0c-0.066,0-0.13-0.026-0.177-0.073C8.35,7.073,6.969,6.5,5.5,6.5
		c-1.469,0-2.851,0.572-3.89,1.611C1.516,8.206,1.391,8.258,1.257,8.258z"/>
	<path d="M15.5,11c-0.276,0-0.5-0.224-0.5-0.5s0.224-0.5,0.5-0.5h2V9h-4C12.673,9,12,8.327,12,7.5v-6C12,0.673,12.673,0,13.5,0h9
		C23.327,0,24,0.673,24,1.5v6C24,8.327,23.327,9,22.5,9h-4v1h2c0.276,0,0.5,0.224,0.5,0.5S20.776,11,20.5,11H15.5z M13.5,1
		C13.224,1,13,1.224,13,1.5v6C13,7.776,13.224,8,13.5,8h9C22.776,8,23,7.776,23,7.5v-6C23,1.224,22.776,1,22.5,1H13.5z"/>
	<path d="M1.5,24C0.673,24,0,23.327,0,22.5v-8C0,13.673,0.673,13,1.5,13h8c0.827,0,1.5,0.673,1.5,1.5v8c0,0.827-0.673,1.5-1.5,1.5
		H1.5z M1.5,14C1.224,14,1,14.224,1,14.5v8C1,22.776,1.224,23,1.5,23h8c0.276,0,0.5-0.224,0.5-0.5v-8c0-0.276-0.224-0.5-0.5-0.5H1.5
		z"/>
	<path d="M5.5,22C5.224,22,5,21.776,5,21.5v-1.086C4.41,20.205,4,19.64,4,19c0-0.827,0.673-1.5,1.5-1.5S7,18.173,7,19
		c0,0.64-0.41,1.205-1,1.414V21.5C6,21.776,5.776,22,5.5,22z M5.5,18.5C5.224,18.5,5,18.724,5,19s0.224,0.5,0.5,0.5S6,19.276,6,19
		S5.776,18.5,5.5,18.5z"/>
	<path d="M8.5,19.5C8.224,19.5,8,19.276,8,19c0-1.378-1.121-2.5-2.5-2.5S3,17.622,3,19c0,0.276-0.224,0.5-0.5,0.5S2,19.276,2,19
		c0-1.93,1.57-3.5,3.5-3.5S9,17.07,9,19C9,19.276,8.776,19.5,8.5,19.5z"/>
</g>
</svg>
