<?xml version="1.0" encoding="utf-8"?>
<!-- Generator: Adobe Illustrator 22.1.0, SVG Export Plug-In . SVG Version: 6.00 Build 0)  -->
<svg version="1.1" id="Light" xmlns="http://www.w3.org/2000/svg" xmlns:xlink="http://www.w3.org/1999/xlink" x="0px" y="0px"
	 viewBox="0 0 24 24" style="enable-background:new 0 0 24 24;" xml:space="preserve">
<g>
	<title>information-desk-paper</title>
	<path d="M3.5,6.25c-1.654,0-3-1.346-3-3s1.346-3,3-3s3,1.346,3,3S5.154,6.25,3.5,6.25z M3.5,1.25c-1.103,0-2,0.897-2,2s0.897,2,2,2
		s2-0.897,2-2S4.603,1.25,3.5,1.25z"/>
	<path d="M20.5,6.25c-1.654,0-3-1.346-3-3s1.346-3,3-3s3,1.346,3,3S22.154,6.25,20.5,6.25z M20.5,1.25c-1.103,0-2,0.897-2,2
		s0.897,2,2,2s2-0.897,2-2S21.603,1.25,20.5,1.25z"/>
	<path d="M2.512,23.75c-1.103,0-2-0.897-2-2v-13c0-1.103,0.897-2,2-2c0.477,0,0.939,0.171,1.301,0.481
		C4.4,7.731,5.152,8.007,5.93,8.007c0.703,0,1.392-0.227,1.951-0.64L9.01,1.712C9.056,1.479,9.262,1.31,9.499,1.31
		c0.033,0,0.066,0.003,0.1,0.01l4.999,0.998c0.131,0.026,0.244,0.101,0.318,0.213c0.074,0.111,0.101,0.244,0.074,0.375l-1.27,6.363
		c-0.046,0.233-0.252,0.402-0.49,0.402c-0.031,0-0.063-0.003-0.096-0.009l-1.47-0.293c-0.003,0.003-0.886,0.794-0.886,0.794
		c-1.338,1.195-3.052,1.853-4.826,1.853c0,0,0,0,0,0c-0.482,0-0.966-0.049-1.442-0.145v9.878C4.511,22.852,3.614,23.75,2.512,23.75
		L2.512,23.75z M2.512,7.75c-0.551,0-1,0.449-1,1v13c0,0.552,0.448,1,1,1c0.551,0,0.999-0.449,0.999-1V11.233
		c0-0.157,0.075-0.307,0.201-0.401c0.086-0.064,0.192-0.099,0.299-0.099c0.048,0,0.095,0.007,0.141,0.02
		c0.589,0.175,1.193,0.263,1.799,0.263c1.529,0,3.007-0.568,4.161-1.598l0.859-0.769c0.038-0.036,0.069-0.076,0.1-0.116
		c0.004-0.009,0.024-0.029,0.035-0.04c0.107-0.146,0.174-0.339,0.181-0.542c0.009-0.267-0.087-0.521-0.27-0.716
		c-0.191-0.203-0.45-0.315-0.73-0.315c-0.255,0-0.498,0.096-0.684,0.27l-0.825,0.74C8.751,7.953,8.724,7.974,8.697,7.996
		L8.658,8.027C8.65,8.034,8.632,8.051,8.608,8.068C7.854,8.673,6.903,9.006,5.929,9.006c-1.016,0-1.998-0.36-2.765-1.014
		C2.982,7.836,2.751,7.75,2.512,7.75z M12.837,8.583L13.912,3.2L9.892,2.398l-0.778,3.9C9.45,6.054,9.859,5.92,10.285,5.92
		c0.552,0,1.085,0.23,1.461,0.632c0.365,0.39,0.557,0.899,0.54,1.432c-0.005,0.162-0.03,0.321-0.072,0.475L12.837,8.583z"/>
	<path d="M21.5,23.75c-1.103,0-2-0.897-2-2v-8.463c-0.633,0.323-1.303,0.567-2,0.729v9.233c0,0.276-0.224,0.5-0.5,0.5h-4
		c-0.258,0-0.472-0.194-0.498-0.45l-0.955-9.55H10c-0.276,0-0.5-0.224-0.5-0.5s0.224-0.5,0.5-0.5h3.564
		c-0.043-0.163-0.064-0.33-0.064-0.5c0-1.103,0.897-2,2-2c1.546-0.001,3.007-0.753,3.906-2.011l0.466-0.652
		c0.31-0.435,0.771-0.723,1.298-0.811c0.11-0.018,0.222-0.027,0.333-0.027c0.417,0,0.817,0.129,1.159,0.372
		C23.187,7.496,23.5,8.105,23.5,8.75v13C23.5,22.853,22.603,23.75,21.5,23.75z M20,11.923c0.083,0,0.166,0.021,0.24,0.061
		c0.161,0.088,0.26,0.256,0.26,0.439v9.327c0,0.552,0.448,1,1,1s1-0.448,1-1v-13c0-0.323-0.156-0.627-0.419-0.815
		c-0.171-0.122-0.371-0.186-0.578-0.186c-0.056,0-0.112,0.005-0.168,0.014c-0.263,0.044-0.494,0.188-0.649,0.405L20.22,8.821
		c-1.087,1.519-2.851,2.427-4.719,2.429c-0.552,0-1,0.449-1,1c0,0.552,0.448,1,1,1c1.503-0.001,2.965-0.433,4.229-1.247
		C19.81,11.951,19.904,11.923,20,11.923z M16.5,22.75v-8.561c-0.341,0.04-0.676,0.06-1,0.061c-0.49,0-0.955-0.177-1.321-0.5h-1.627
		l0.9,9H16.5z"/>
</g>
</svg>
