<?xml version="1.0" encoding="utf-8"?>
<!-- Generator: Adobe Illustrator 22.1.0, SVG Export Plug-In . SVG Version: 6.00 Build 0)  -->
<svg version="1.1" id="Light" xmlns="http://www.w3.org/2000/svg" xmlns:xlink="http://www.w3.org/1999/xlink" x="0px" y="0px"
	 viewBox="0 0 24 24" style="enable-background:new 0 0 24 24;" xml:space="preserve">
<g>
	<title>information-desk-question-help</title>
	<path d="M17,18.5c-1.103,0-2-0.897-2-2v-5c0-1.103,0.897-2,2-2c1.378,0,2.5-1.121,2.5-2.5S18.378,4.5,17,4.5S14.5,5.621,14.5,7
		c0,1.103-0.897,2-2,2s-2-0.897-2-2c0.001-3.583,2.917-6.499,6.5-6.499c3.585,0.001,6.501,2.917,6.5,6.502
		c-0.001,2.808-1.842,5.323-4.5,6.183V16.5C19,17.603,18.103,18.5,17,18.5z M17,3.5c1.93,0,3.5,1.57,3.5,3.5s-1.57,3.5-3.5,3.5
		c-0.552,0-1,0.449-1,1v5c0,0.552,0.448,1,1,1s1-0.448,1-1v-3.689c0-0.228,0.154-0.427,0.375-0.484
		c2.428-0.627,4.124-2.816,4.125-5.324c0.001-3.033-2.466-5.5-5.499-5.501c-3.033,0-5.501,2.467-5.501,5.499c0,0.551,0.449,1,1,1
		c0.552,0,1-0.449,1-1C13.5,5.07,15.07,3.5,17,3.5z"/>
	<path d="M17,23.5c-1.103,0-2-0.897-2-2s0.897-2,2-2s2,0.897,2,2S18.103,23.5,17,23.5z M17,20.5c-0.552,0-1,0.448-1,1s0.448,1,1,1
		s1-0.448,1-1S17.552,20.5,17,20.5z"/>
	<path d="M6.999,23.499c-3.584-0.001-6.499-2.917-6.499-6.501c0.001-2.808,1.842-5.323,4.5-6.183V7.5c0-1.103,0.897-2,2-2
		s2,0.897,2,2v5c0,1.103-0.897,2-2,2c-1.379,0-2.5,1.122-2.5,2.5s1.121,2.5,2.5,2.5s2.5-1.122,2.5-2.5c0-1.103,0.897-2,2-2
		s2,0.897,2,2c0,1.736-0.677,3.368-1.905,4.596C10.368,22.823,8.736,23.499,7,23.499H6.999z M7,6.5c-0.551,0-1,0.449-1,1v3.689
		c0,0.228-0.154,0.427-0.375,0.484C3.197,12.3,1.501,14.489,1.5,16.997c-0.001,3.033,2.466,5.5,5.499,5.501
		c1.47,0,2.851-0.572,3.889-1.61C11.927,19.85,12.5,18.469,12.5,17c0-0.552-0.449-1-1-1s-1,0.448-1,1c0,1.93-1.57,3.5-3.5,3.5
		S3.5,18.93,3.5,17s1.57-3.5,3.5-3.5c0.551,0,1-0.448,1-1v-5C8,6.949,7.551,6.5,7,6.5z"/>
	<path d="M7,4.5c-1.103,0-2-0.897-2-2s0.897-2,2-2s2,0.897,2,2S8.103,4.5,7,4.5z M7,1.5c-0.551,0-1,0.449-1,1s0.449,1,1,1
		s1-0.449,1-1S7.551,1.5,7,1.5z"/>
</g>
</svg>
