<?xml version="1.0" encoding="utf-8"?>
<!-- Generator: Adobe Illustrator 22.1.0, SVG Export Plug-In . SVG Version: 6.00 Build 0)  -->
<svg version="1.1" id="Light" xmlns="http://www.w3.org/2000/svg" xmlns:xlink="http://www.w3.org/1999/xlink" x="0px" y="0px"
	 viewBox="0 0 24 24" style="enable-background:new 0 0 24 24;" xml:space="preserve">
<g>
	<title>information-desk-man</title>
	<path d="M20.5,24c-0.276,0-0.5-0.224-0.5-0.5V20H4v3.5C4,23.776,3.776,24,3.5,24S3,23.776,3,23.5V20H1.5C0.673,20,0,19.327,0,18.5
		v-6C0,11.673,0.673,11,1.5,11h5.743c0.429-0.598,0.953-1.1,1.56-1.494c0.956-0.621,2.057-0.95,3.185-0.95
		c0.41,0,0.824,0.044,1.23,0.13c1.432,0.304,2.684,1.124,3.54,2.314H22.5c0.827,0,1.5,0.673,1.5,1.5v6c0,0.827-0.673,1.5-1.5,1.5H21
		v3.5C21,23.776,20.776,24,20.5,24z M1.5,12C1.224,12,1,12.224,1,12.5v6C1,18.776,1.224,19,1.5,19h21c0.276,0,0.5-0.224,0.5-0.5v-6
		c0-0.276-0.224-0.5-0.5-0.5H1.5z M15.459,11c-0.665-0.677-1.502-1.135-2.449-1.336c-0.337-0.071-0.68-0.108-1.021-0.108
		c-0.935,0-1.849,0.272-2.642,0.788C9.057,10.533,8.788,10.753,8.544,11H15.459z"/>
	<path d="M12.05,8C9.982,8,8.3,6.318,8.3,4.25S9.982,0.5,12.05,0.5c2.068,0,3.75,1.682,3.75,3.75S14.118,8,12.05,8z M9.425,3.436
		C9.342,3.7,9.3,3.973,9.3,4.25C9.3,5.766,10.534,7,12.05,7c1.427,0,2.604-1.093,2.738-2.486c-0.536,0.157-1.089,0.236-1.649,0.236
		C11.779,4.75,10.475,4.285,9.425,3.436z M9.908,2.529c0.89,0.778,2.053,1.221,3.225,1.221c0.529,0,1.052-0.087,1.56-0.26
		C14.358,2.325,13.279,1.5,12.05,1.5C11.215,1.5,10.429,1.881,9.908,2.529z"/>
</g>
</svg>
