<?xml version="1.0" encoding="utf-8"?>
<!-- Generator: Adobe Illustrator 22.1.0, SVG Export Plug-In . SVG Version: 6.00 Build 0)  -->
<svg version="1.1" id="Light" xmlns="http://www.w3.org/2000/svg" xmlns:xlink="http://www.w3.org/1999/xlink" x="0px" y="0px"
	 viewBox="0 0 24 24" style="enable-background:new 0 0 24 24;" xml:space="preserve">
<g>
	<title>outdoors-water-sun</title>
	<path d="M1.181,22.465c-0.26,0-0.522-0.028-0.78-0.082c-0.27-0.058-0.443-0.323-0.385-0.593c0.048-0.23,0.254-0.396,0.489-0.396
		c0.035,0,0.07,0.004,0.104,0.011c0.184,0.039,0.374,0.059,0.563,0.059c1.859,0,3.381-1.882,3.396-1.901
		c0.092-0.115,0.24-0.186,0.398-0.189c0.175,0.007,0.323,0.091,0.411,0.224c0.719,1.086,1.925,1.772,3.226,1.833
		c1.282-0.032,2.475-0.713,3.173-1.823c0.091-0.145,0.247-0.232,0.417-0.234c0,0,0,0,0,0c0.179,0,0.327,0.08,0.423,0.224
		c0.719,1.085,1.925,1.771,3.226,1.833c1.282-0.031,2.476-0.713,3.174-1.823c0.092-0.146,0.25-0.234,0.423-0.234
		c0.174,0,0.332,0.088,0.424,0.235c0.011,0.017,1.174,1.815,2.963,1.815c0.189,0,0.381-0.02,0.571-0.06
		c0.035-0.007,0.069-0.01,0.102-0.01c0.236,0,0.442,0.167,0.49,0.398c0.056,0.27-0.118,0.535-0.387,0.592
		c-0.265,0.055-0.532,0.083-0.793,0.083h0c-1.623,0-2.793-1.06-3.362-1.718c-0.903,1.065-2.204,1.689-3.616,1.722
		c-1.411-0.067-2.708-0.691-3.621-1.725c-0.903,1.067-2.205,1.691-3.617,1.725c-1.436-0.067-2.751-0.709-3.666-1.774
		c-0.666,0.672-2.045,1.81-3.742,1.81H1.181z"/>
	<path d="M1.183,17.538c-0.261,0-0.524-0.028-0.781-0.082c-0.131-0.028-0.243-0.104-0.316-0.217
		c-0.073-0.112-0.098-0.246-0.07-0.376c0.049-0.23,0.254-0.397,0.489-0.397c0.035,0,0.07,0.004,0.104,0.011
		c0.184,0.039,0.374,0.059,0.563,0.059c0,0,0,0,0,0c1.865,0,3.38-1.882,3.395-1.901c0.094-0.12,0.24-0.191,0.389-0.191
		c0.005,0,0.024,0.001,0.029,0.001c0.154,0.006,0.303,0.09,0.391,0.223c0.718,1.086,1.923,1.771,3.222,1.834
		c1.284-0.03,2.479-0.712,3.177-1.824c0.091-0.145,0.247-0.232,0.417-0.234c0,0,0.001,0,0.001,0c0.182,0,0.326,0.079,0.422,0.223
		c0.719,1.085,1.923,1.77,3.222,1.834c1.284-0.03,2.479-0.712,3.178-1.824c0.092-0.146,0.25-0.234,0.423-0.234
		c0.174,0,0.332,0.088,0.424,0.235c0.011,0.018,1.173,1.816,2.965,1.816c0.188,0,0.38-0.02,0.57-0.06
		c0.033-0.007,0.068-0.01,0.102-0.01c0.235,0,0.441,0.167,0.49,0.398c0.056,0.271-0.118,0.536-0.388,0.592
		c-0.264,0.055-0.531,0.083-0.792,0.083c-1.623,0-2.793-1.061-3.363-1.719c-0.905,1.067-2.208,1.691-3.622,1.723
		c-1.409-0.068-2.704-0.692-3.616-1.725c-0.904,1.068-2.208,1.693-3.623,1.725c-1.434-0.068-2.747-0.71-3.66-1.774
		C4.259,16.399,2.88,17.538,1.183,17.538z"/>
	<path d="M19.102,9.539c-0.276,0-0.5-0.224-0.5-0.5s0.224-0.5,0.5-0.5h1.392c0.276,0,0.5,0.224,0.5,0.5s-0.224,0.5-0.5,0.5H19.102z"
		/>
	<path d="M17.364,5.649c-0.133,0-0.259-0.052-0.353-0.146c-0.195-0.195-0.195-0.512,0-0.707l1.043-1.044
		c0.094-0.095,0.22-0.147,0.354-0.147c0.133,0,0.259,0.052,0.353,0.146c0.195,0.195,0.195,0.512,0,0.707l-1.043,1.044
		C17.623,5.597,17.497,5.649,17.364,5.649z"/>
	<path d="M12.494,3.93c-0.276,0-0.5-0.224-0.5-0.5V2.039c0-0.276,0.224-0.5,0.5-0.5c0.276,0,0.5,0.224,0.5,0.5V3.43
		C12.994,3.706,12.769,3.93,12.494,3.93z"/>
	<path d="M7.625,5.649c-0.134,0-0.259-0.052-0.354-0.146L6.227,4.459c-0.094-0.094-0.146-0.22-0.146-0.354
		c0-0.134,0.052-0.259,0.146-0.354s0.22-0.146,0.354-0.146S6.84,3.658,6.934,3.752l1.044,1.044c0.094,0.094,0.146,0.22,0.146,0.354
		c0,0.134-0.052,0.259-0.146,0.354C7.884,5.597,7.758,5.649,7.625,5.649z"/>
	<path d="M4.494,9.539c-0.276,0-0.5-0.224-0.5-0.5s0.224-0.5,0.5-0.5h1.391c0.276,0,0.5,0.224,0.5,0.5s-0.224,0.5-0.5,0.5H4.494z"/>
	<path d="M15.587,14.502c-0.156,0-0.301-0.071-0.396-0.195c-0.168-0.219-0.127-0.533,0.091-0.701c0.291-0.224,0.553-0.483,0.78-0.77
		c0.747-0.942,1.082-2.119,0.944-3.313c-0.138-1.194-0.733-2.263-1.675-3.009c-0.802-0.635-1.767-0.971-2.79-0.971
		c-1.387,0-2.674,0.621-3.532,1.703c-1.541,1.945-1.213,4.781,0.732,6.322c0.216,0.172,0.252,0.487,0.081,0.703
		C9.727,14.39,9.584,14.46,9.43,14.46c-0.112,0-0.222-0.038-0.31-0.108c-2.377-1.884-2.778-5.35-0.895-7.727
		c1.048-1.323,2.621-2.082,4.316-2.082c1.251,0,2.43,0.411,3.411,1.187c1.151,0.912,1.879,2.219,2.047,3.678
		c0.169,1.459-0.24,2.897-1.153,4.048c-0.278,0.351-0.599,0.667-0.954,0.941C15.806,14.464,15.697,14.502,15.587,14.502z"/>
</g>
</svg>
