<?xml version="1.0" encoding="utf-8"?>
<!-- Generator: Adobe Illustrator 22.1.0, SVG Export Plug-In . SVG Version: 6.00 Build 0)  -->
<svg version="1.1" id="Light" xmlns="http://www.w3.org/2000/svg" xmlns:xlink="http://www.w3.org/1999/xlink" x="0px" y="0px"
	 viewBox="0 0 24 24" style="enable-background:new 0 0 24 24;" xml:space="preserve">
<g>
	<title>outdoors-tree-valley</title>
	<path d="M15.449,23.27c-0.117,0-0.231-0.042-0.321-0.117c-2.971-2.5-6.758-3.876-10.664-3.876c-1.297,0-2.592,0.153-3.848,0.456
		c-0.037,0.009-0.078,0.014-0.118,0.014c-0.231,0-0.431-0.157-0.485-0.383c-0.031-0.13-0.01-0.264,0.06-0.378
		c0.07-0.114,0.18-0.194,0.31-0.225c1.328-0.32,2.699-0.483,4.075-0.483c0.512,0,1.029,0.023,1.542,0.068v-3.074H1.442
		c-0.385-0.001-0.746-0.151-1.018-0.423c-0.552-0.552-0.561-1.454-0.023-2.017l1.22-1.557c-0.186-0.069-0.357-0.177-0.502-0.318
		c-0.276-0.269-0.431-0.629-0.436-1.014c-0.005-0.385,0.14-0.75,0.409-1.026l1.786-2.154C2.731,6.699,2.595,6.609,2.477,6.498
		C1.955,6.003,1.787,5.099,2.473,4.328l2.934-3.124c0.021-0.023,0.042-0.043,0.062-0.062c0.279-0.264,0.645-0.409,1.03-0.409
		c0.412,0,0.81,0.171,1.092,0.47l2.926,3.113c0.695,0.781,0.527,1.687,0.005,2.181c-0.118,0.111-0.253,0.201-0.399,0.265
		l1.812,2.184c0.243,0.247,0.387,0.616,0.382,0.996c-0.005,0.385-0.16,0.745-0.436,1.014c-0.145,0.141-0.317,0.249-0.503,0.318
		l1.22,1.558c0.257,0.269,0.398,0.621,0.399,0.993c0.001,0.385-0.148,0.748-0.42,1.021c-0.271,0.273-0.633,0.424-1.019,0.425H7v3.19
		c3.249,0.472,6.278,1.827,8.772,3.925c0.102,0.086,0.165,0.207,0.177,0.34c0.011,0.133-0.03,0.263-0.115,0.365
		C15.737,23.205,15.597,23.27,15.449,23.27z M2.8,10.081c0.121,0,0.238,0.044,0.329,0.124c0.2,0.175,0.228,0.476,0.065,0.685
		L1.171,13.47c-0.013,0.017-0.026,0.031-0.04,0.045c-0.173,0.173-0.173,0.454,0,0.626c0.084,0.084,0.194,0.13,0.312,0.13h10.114
		c0.117,0,0.228-0.047,0.312-0.131c0.083-0.084,0.129-0.195,0.129-0.313c0-0.118-0.046-0.229-0.13-0.312
		c-0.014-0.014-0.029-0.031-0.043-0.049l-2.018-2.578c-0.164-0.209-0.135-0.51,0.064-0.685c0.091-0.08,0.208-0.124,0.329-0.124
		c0.136,0,0.264,0.054,0.359,0.152c0.083,0.086,0.196,0.133,0.317,0.133c0.116,0,0.226-0.044,0.309-0.125
		c0.175-0.17,0.178-0.451,0.008-0.625L8.505,6.378C8.334,6.173,8.355,5.87,8.552,5.69C8.645,5.605,8.764,5.559,8.89,5.559
		c0.133,0,0.258,0.052,0.352,0.145c0.115,0.114,0.23,0.172,0.343,0.172c0.12,0,0.208-0.066,0.249-0.105
		c0.173-0.163,0.223-0.468-0.055-0.78L6.862,1.889C6.767,1.789,6.638,1.733,6.499,1.733c-0.128,0-0.25,0.048-0.343,0.136L6.13,1.896
		L3.211,5.003c-0.27,0.303-0.219,0.605-0.046,0.769c0.042,0.039,0.129,0.105,0.25,0.105c0.112,0,0.227-0.058,0.341-0.171
		c0.095-0.094,0.22-0.145,0.352-0.145c0.125,0,0.245,0.047,0.337,0.131c0.197,0.18,0.218,0.483,0.047,0.688l-2.66,3.205
		C1.727,9.697,1.68,9.808,1.682,9.929c0.002,0.118,0.049,0.229,0.134,0.311c0.084,0.082,0.185,0.126,0.286,0.126
		c0.003,0,0.025-0.001,0.029-0.001c0.118-0.002,0.229-0.049,0.311-0.134C2.535,10.136,2.666,10.081,2.8,10.081z"/>
	<path d="M11.571,18.538c-0.175,0-0.333-0.088-0.425-0.237c-0.145-0.233-0.073-0.542,0.161-0.688
		c2.009-1.249,4.318-2.028,6.693-2.26v-2.08h-3.286c-0.042,0-0.083-0.005-0.123-0.015c-0.221-0.056-0.429-0.166-0.6-0.318
		c-0.286-0.254-0.456-0.605-0.478-0.986c-0.022-0.382,0.105-0.75,0.36-1.035l1.536-2.059c-0.056-0.032-0.109-0.068-0.16-0.109
		c-0.537-0.434-0.773-1.381-0.217-2.153l2.267-3.053c0.089-0.121,0.197-0.23,0.321-0.32c0.257-0.188,0.561-0.287,0.879-0.287
		c0.475,0,0.926,0.228,1.205,0.61l2.265,3.044c0.559,0.78,0.324,1.727-0.213,2.16c-0.05,0.04-0.103,0.076-0.158,0.108l1.556,2.085
		c0.135,0.154,0.242,0.358,0.297,0.575c0.094,0.371,0.037,0.756-0.159,1.085c-0.196,0.328-0.508,0.561-0.879,0.655
		c-0.039,0.01-0.081,0.015-0.123,0.015H19v2.014c0.176-0.006,0.353-0.009,0.528-0.009c1.394,0,2.775,0.186,4.105,0.552
		c0.266,0.073,0.422,0.349,0.349,0.615c-0.059,0.216-0.258,0.367-0.482,0.367l0,0c-0.044,0-0.089-0.006-0.132-0.018
		c-1.251-0.344-2.546-0.519-3.849-0.519c-2.725,0-5.382,0.756-7.684,2.187C11.755,18.512,11.664,18.538,11.571,18.538z
		 M22.217,12.273c0.09-0.034,0.167-0.098,0.217-0.182c0.059-0.099,0.076-0.215,0.048-0.327c-0.017-0.067-0.05-0.13-0.096-0.182
		c-0.004-0.004-0.021-0.026-0.025-0.03l-2.269-3.04c-0.16-0.214-0.123-0.516,0.083-0.685c0.089-0.073,0.201-0.114,0.317-0.114
		c0.141,0,0.276,0.06,0.371,0.164c0.086,0.096,0.156,0.13,0.192,0.13c0.021,0,0.046-0.011,0.074-0.034
		c0.128-0.104,0.276-0.453,0.033-0.792l-2.263-3.04c-0.096-0.13-0.241-0.204-0.401-0.204c-0.104,0-0.204,0.033-0.289,0.094
		c-0.041,0.03-0.077,0.066-0.106,0.107l-2.265,3.05c-0.239,0.332-0.09,0.68,0.039,0.785c0.028,0.023,0.053,0.034,0.073,0.034
		c0.037,0,0.106-0.034,0.192-0.129c0.095-0.105,0.23-0.165,0.371-0.165c0.115,0,0.228,0.041,0.318,0.114
		c0.207,0.17,0.243,0.471,0.083,0.685l-2.268,3.038c-0.101,0.116-0.143,0.227-0.136,0.346c0.007,0.115,0.058,0.221,0.144,0.297
		c0.039,0.035,0.084,0.062,0.133,0.081H22.217z"/>
</g>
</svg>
