<?xml version="1.0" encoding="utf-8"?>
<!-- Generator: Adobe Illustrator 22.1.0, SVG Export Plug-In . SVG Version: 6.00 Build 0)  -->
<svg version="1.1" id="Light" xmlns="http://www.w3.org/2000/svg" xmlns:xlink="http://www.w3.org/1999/xlink" x="0px" y="0px"
	 viewBox="0 0 24 24" style="enable-background:new 0 0 24 24;" xml:space="preserve">
<g>
	<title>outdoors-bird-house-1</title>
	<path d="M12.5,23.896c-0.276,0-0.5-0.224-0.5-0.5V20.9H7.5c-1.379,0-2.5-1.122-2.5-2.5v-0.5H2c-1.103,0-2-0.897-2-2s0.897-2,2-2
		h0.536c0.245-1.7,1.724-3,3.464-3c1.763,0,3.252,1.328,3.472,3.056C10.356,14.171,11,14.974,11,15.9c0,1.103-0.897,2-2,2H6v0.5
		c0,0.827,0.673,1.5,1.5,1.5H12v-10H9.5C8.673,9.9,8,9.227,8,8.4V5.607L7.354,6.253C7.259,6.348,7.134,6.4,7,6.4
		S6.741,6.348,6.647,6.254C6.452,6.059,6.452,5.742,6.646,5.547l5.146-5.15c0.188-0.189,0.439-0.293,0.706-0.293
		c0.268,0,0.519,0.104,0.708,0.292c0,0,5.147,5.151,5.147,5.151c0.195,0.195,0.195,0.512,0,0.707C18.259,6.348,18.133,6.4,18,6.4
		c-0.134,0-0.259-0.052-0.354-0.146L17,5.606V8.4c0,0.827-0.673,1.5-1.5,1.5H13v12h4.5c0.827,0,1.5-0.673,1.5-1.5v-0.5h-3
		c-1.103,0-2-0.897-2-2c0-0.926,0.644-1.729,1.528-1.944C15.748,14.227,17.237,12.9,19,12.9s3.252,1.328,3.472,3.056
		C23.356,16.171,24,16.974,24,17.9c0,1.103-0.897,2-2,2h-2v0.5c0,1.378-1.122,2.5-2.5,2.5H13v0.496
		C13,23.671,12.776,23.896,12.5,23.896z M19,13.9c-1.378,0-2.5,1.122-2.5,2.5c0,0.276-0.224,0.5-0.5,0.5c-0.552,0-1,0.448-1,1
		s0.448,1,1,1h6c0.552,0,1-0.448,1-1s-0.448-1-1-1c-0.276,0-0.5-0.224-0.5-0.5C21.5,15.021,20.378,13.9,19,13.9z M2,14.9
		c-0.551,0-1,0.448-1,1s0.449,1,1,1h7c0.551,0,1-0.448,1-1s-0.449-1-1-1c-0.276,0-0.5-0.224-0.5-0.5c0-1.378-1.121-2.5-2.5-2.5
		s-2.5,1.122-2.5,2.5c0,0.276-0.224,0.5-0.5,0.5H2z M12.5,8.896c0.014,0,0.032,0.002,0.05,0.005L13,8.9V7.4
		c0-0.276-0.224-0.5-0.5-0.5c-0.276,0-0.5,0.224-0.5,0.5v1.5h0.456C12.472,8.897,12.488,8.896,12.5,8.896z M15.5,8.9
		c0.276,0,0.5-0.224,0.5-0.5V4.606l-3.5-3.502L9,4.606V8.4c0,0.276,0.224,0.5,0.5,0.5H11V7.4c0-0.827,0.673-1.5,1.5-1.5
		S14,6.573,14,7.4v1.5H15.5z"/>
</g>
</svg>
