<?xml version="1.0" encoding="utf-8"?>
<!-- Generator: Adobe Illustrator 22.1.0, SVG Export Plug-In . SVG Version: 6.00 Build 0)  -->
<svg version="1.1" id="Light" xmlns="http://www.w3.org/2000/svg" xmlns:xlink="http://www.w3.org/1999/xlink" x="0px" y="0px"
	 viewBox="0 0 24 24" style="enable-background:new 0 0 24 24;" xml:space="preserve">
<g>
	<title>outdoors-bird-house</title>
	<path d="M12,23.88c-0.276,0-0.5-0.224-0.5-0.5v-3.5c0.001-1.915-0.953-3.759-2.507-4.877c-0.667,1.149-1.91,1.877-3.243,1.877
		C3.682,16.88,2,15.198,2,13.13c0-2.068,1.682-3.75,3.75-3.75s3.75,1.682,3.75,3.75c0,0.315-0.039,0.626-0.116,0.928
		c0.868,0.579,1.586,1.334,2.116,2.221V8.881h-2c-0.551,0-1-0.449-1-1V3.544l-1.706,1.24C6.708,4.848,6.606,4.881,6.5,4.881
		c-0.16,0-0.311-0.077-0.405-0.207c-0.078-0.107-0.11-0.239-0.089-0.371c0.021-0.132,0.092-0.248,0.2-0.326l4.912-3.572
		C11.377,0.216,11.682,0.117,12,0.117s0.623,0.099,0.882,0.288l4.912,3.572c0.108,0.078,0.179,0.194,0.2,0.326
		c0.021,0.132-0.011,0.264-0.09,0.372C17.811,4.803,17.66,4.881,17.5,4.881c-0.106,0-0.208-0.033-0.294-0.096L15.5,3.544v4.336
		c0,0.551-0.448,1-1,1h-2v10.491c0.63-1.181,1.532-2.193,2.656-2.97C15.052,16.067,15,15.724,15,15.38c0-1.93,1.57-3.5,3.5-3.5
		s3.5,1.57,3.5,3.5s-1.57,3.5-3.5,3.5c-1.172,0-2.263-0.592-2.911-1.561c-1.94,1.407-3.09,3.654-3.089,6.061
		c0,0.067-0.013,0.133-0.039,0.195c-0.037,0.088-0.104,0.164-0.192,0.221c-0.008,0.007-0.036,0.029-0.076,0.045
		c-0.016,0.007-0.041,0.013-0.062,0.018C12.101,23.868,12.056,23.88,12,23.88z M18.5,12.88c-1.378,0-2.5,1.122-2.5,2.5
		s1.122,2.5,2.5,2.5s2.5-1.122,2.5-2.5S19.878,12.88,18.5,12.88z M5.75,10.381c-1.516,0-2.75,1.234-2.75,2.75
		c0,1.516,1.234,2.75,2.75,2.75s2.75-1.234,2.75-2.75C8.5,11.614,7.266,10.381,5.75,10.381z M14.5,7.881V2.817l-2.206-1.604
		C12.208,1.15,12.106,1.117,12,1.117s-0.208,0.033-0.294,0.096L9.5,2.817v5.063h2v-2c0-0.276,0.224-0.5,0.5-0.5
		c0.276,0,0.5,0.224,0.5,0.5v2H14.5z"/>
</g>
</svg>
