<?xml version="1.0" encoding="utf-8"?>
<!-- Generator: Adobe Illustrator 22.1.0, SVG Export Plug-In . SVG Version: 6.00 Build 0)  -->
<svg version="1.1" id="Light" xmlns="http://www.w3.org/2000/svg" xmlns:xlink="http://www.w3.org/1999/xlink" x="0px" y="0px"
	 viewBox="0 0 24 24" style="enable-background:new 0 0 24 24;" xml:space="preserve">
<g>
	<title>outdoors-sun-plants</title>
	<path d="M0.75,9c-0.276,0-0.5-0.224-0.5-0.5S0.474,8,0.75,8h1.392c0.276,0,0.5,0.224,0.5,0.5S2.418,9,2.142,9H0.75z"/>
	<path d="M3.88,4.11c-0.134,0-0.259-0.052-0.354-0.146L2.484,2.921c-0.094-0.094-0.146-0.22-0.146-0.354s0.052-0.259,0.146-0.354
		s0.22-0.146,0.354-0.146s0.259,0.052,0.354,0.146l1.043,1.043c0.195,0.195,0.195,0.512,0,0.707C4.139,4.058,4.014,4.11,3.88,4.11z"
		/>
	<path d="M8.75,2.392c-0.276,0-0.5-0.224-0.5-0.5V0.5c0-0.276,0.224-0.5,0.5-0.5s0.5,0.224,0.5,0.5v1.392
		C9.25,2.168,9.026,2.392,8.75,2.392z"/>
	<path d="M13.619,4.11c-0.133,0-0.259-0.052-0.354-0.146c-0.195-0.196-0.195-0.513,0-0.707l1.044-1.043
		c0.095-0.094,0.22-0.146,0.354-0.146c0.134,0,0.26,0.052,0.354,0.147c0.094,0.094,0.146,0.219,0.146,0.353
		c0,0.134-0.052,0.259-0.146,0.354l-1.044,1.043C13.878,4.058,13.752,4.11,13.619,4.11z"/>
	<path d="M4.167,11c-0.198,0-0.378-0.117-0.458-0.299C3.117,9.357,3.084,7.862,3.616,6.492c0.532-1.369,1.566-2.45,2.91-3.042
		c0.703-0.31,1.446-0.467,2.21-0.467c2.184,0,4.163,1.289,5.041,3.284c0.111,0.252-0.004,0.548-0.256,0.659
		c-0.064,0.028-0.132,0.043-0.202,0.043c-0.198,0-0.377-0.117-0.458-0.299c-0.719-1.632-2.339-2.687-4.126-2.687
		c-0.624,0-1.232,0.128-1.807,0.381c-1.1,0.485-1.946,1.369-2.381,2.489c-0.435,1.12-0.408,2.344,0.076,3.444
		c0.054,0.122,0.057,0.258,0.009,0.382c-0.048,0.125-0.142,0.223-0.265,0.276C4.305,10.986,4.237,11,4.167,11z"/>
	<path d="M17.75,24c-0.276,0-0.5-0.224-0.5-0.5v-0.34c-0.476-0.662-1.233-1.094-2.042-1.162c-0.133-0.011-0.253-0.073-0.34-0.175
		c-0.086-0.102-0.128-0.231-0.117-0.365C14.773,21.197,14.985,21,15.245,21c0.017,0,0.034,0.001,0.052,0.003
		c0.705,0.058,1.383,0.32,1.954,0.748V20c0-0.276,0.224-0.5,0.5-0.5c0.256,0,0.468,0.194,0.497,0.442
		C18.74,19.441,19.412,19,20.25,19c0.276,0,0.5,0.224,0.5,0.5s-0.224,0.5-0.5,0.5c-1.06,0-1.83,1.306-2,1.621V23.5
		C18.25,23.776,18.026,24,17.75,24z"/>
	<path d="M17.75,18.5c-0.276,0-0.5-0.224-0.5-0.5v-1.535c-0.714-0.089-1.38-0.365-1.949-0.808l-1.197,1.197
		C14.009,16.948,13.884,17,13.75,17s-0.259-0.052-0.354-0.146s-0.146-0.22-0.146-0.354s0.052-0.259,0.146-0.354l1.197-1.197
		C14.15,14.38,13.874,13.714,13.785,13H12.25c-0.276,0-0.5-0.224-0.5-0.5c0-0.276,0.224-0.5,0.5-0.5h1.535
		c0.086-0.693,0.348-1.341,0.766-1.897L13.383,8.84c-0.187-0.203-0.175-0.519,0.028-0.707C13.503,8.047,13.624,8,13.75,8
		c0.139,0,0.272,0.058,0.367,0.16l1.133,1.225c0.575-0.461,1.271-0.757,2-0.849V7c0-0.276,0.224-0.5,0.5-0.5s0.5,0.224,0.5,0.5
		v1.536c0.714,0.089,1.38,0.365,1.949,0.808l1.197-1.197C21.491,8.052,21.616,8,21.75,8s0.259,0.052,0.354,0.146
		S22.25,8.366,22.25,8.5s-0.052,0.259-0.146,0.354l-1.197,1.197c0.443,0.569,0.719,1.235,0.808,1.949h1.535
		c0.276,0,0.5,0.224,0.5,0.5c0,0.276-0.224,0.5-0.5,0.5h-1.535c-0.089,0.714-0.365,1.38-0.808,1.949l1.197,1.197
		c0.094,0.094,0.146,0.22,0.146,0.354s-0.052,0.259-0.146,0.354S21.884,17,21.75,17s-0.259-0.052-0.354-0.146l-1.197-1.197
		c-0.569,0.443-1.235,0.719-1.949,0.808V18C18.25,18.276,18.026,18.5,17.75,18.5z M17.75,9.5c-1.654,0-3,1.346-3,3
		c0,1.654,1.346,3,3,3s3-1.346,3-3C20.75,10.846,19.404,9.5,17.75,9.5z"/>
	<path d="M6.75,24c-0.276,0-0.5-0.224-0.5-0.5v-0.341c-0.476-0.662-1.233-1.094-2.041-1.161c-0.133-0.011-0.254-0.073-0.34-0.175
		c-0.086-0.102-0.128-0.231-0.117-0.365C3.773,21.201,3.99,21,4.245,21C4.262,21,4.279,21,4.297,21.002
		c0.705,0.058,1.383,0.32,1.953,0.748v0c0-0.276,0.224-0.5,0.5-0.5s0.5,0.224,0.5,0.5v1.75C7.25,23.776,7.026,24,6.75,24z"/>
	<path d="M6.75,20.5c-0.276,0-0.5-0.224-0.5-0.5v-1.543c-0.447-0.075-0.868-0.25-1.237-0.513l-1.091,1.091
		c-0.094,0.094-0.22,0.146-0.354,0.146s-0.259-0.052-0.354-0.146c-0.195-0.195-0.195-0.512,0-0.707l1.091-1.091
		C4.043,16.868,3.868,16.447,3.793,16H2.25c-0.276,0-0.5-0.224-0.5-0.5S1.974,15,2.25,15h1.543c0.075-0.447,0.25-0.868,0.513-1.237
		l-1.091-1.091c-0.195-0.195-0.195-0.512,0-0.707c0.094-0.094,0.22-0.146,0.354-0.146s0.259,0.052,0.354,0.146l1.091,1.091
		c0.369-0.263,0.79-0.438,1.237-0.513V11c0-0.276,0.224-0.5,0.5-0.5s0.5,0.224,0.5,0.5v1.543c0.447,0.075,0.868,0.25,1.237,0.513
		l1.091-1.091c0.094-0.094,0.22-0.146,0.354-0.146s0.259,0.052,0.354,0.146c0.195,0.195,0.195,0.512,0,0.707l-1.091,1.091
		c0.263,0.369,0.438,0.79,0.513,1.237h1.543c0.276,0,0.5,0.224,0.5,0.5s-0.224,0.5-0.5,0.5H9.707
		c-0.075,0.447-0.25,0.868-0.513,1.237l1.091,1.091c0.195,0.195,0.195,0.512,0,0.707c-0.094,0.094-0.22,0.146-0.354,0.146
		s-0.259-0.052-0.354-0.146l-1.091-1.091c-0.369,0.263-0.79,0.438-1.237,0.513V20C7.25,20.276,7.026,20.5,6.75,20.5z M6.75,13.5
		c-1.103,0-2,0.897-2,2s0.897,2,2,2s2-0.897,2-2S7.853,13.5,6.75,13.5z"/>
</g>
</svg>
