<?xml version="1.0" encoding="utf-8"?>
<!-- Generator: Adobe Illustrator 22.1.0, SVG Export Plug-In . SVG Version: 6.00 Build 0)  -->
<svg version="1.1" id="Light" xmlns="http://www.w3.org/2000/svg" xmlns:xlink="http://www.w3.org/1999/xlink" x="0px" y="0px"
	 viewBox="0 0 24 24" style="enable-background:new 0 0 24 24;" xml:space="preserve">
<g>
	<title>outdoors-water-birds</title>
	<path d="M3.5,4.445c-0.276,0-0.5-0.224-0.5-0.5c0-1.379-1.121-2.5-2.5-2.5c-0.276,0-0.5-0.224-0.5-0.5s0.224-0.5,0.5-0.5
		c1.243,0,2.373,0.653,3,1.699c0.627-1.046,1.757-1.699,3-1.699c0.276,0,0.5,0.224,0.5,0.5s-0.224,0.5-0.5,0.5
		c-1.379,0-2.5,1.121-2.5,2.5C4,4.221,3.776,4.445,3.5,4.445z"/>
	<path d="M9.5,8.445c-0.276,0-0.5-0.224-0.5-0.5c0-1.379-1.121-2.5-2.5-2.5c-0.276,0-0.5-0.224-0.5-0.5s0.224-0.5,0.5-0.5
		c1.243,0,2.373,0.653,3,1.699c0.627-1.046,1.757-1.699,3-1.699c0.276,0,0.5,0.224,0.5,0.5s-0.224,0.5-0.5,0.5
		c-1.379,0-2.5,1.121-2.5,2.5C10,8.221,9.776,8.445,9.5,8.445z"/>
	<path d="M16.5,4.445c-0.276,0-0.5-0.224-0.5-0.5c0-1.379-1.122-2.5-2.5-2.5c-0.276,0-0.5-0.224-0.5-0.5s0.224-0.5,0.5-0.5
		c1.243,0,2.373,0.653,3,1.699c0.627-1.046,1.757-1.699,3-1.699c0.276,0,0.5,0.224,0.5,0.5s-0.224,0.5-0.5,0.5
		c-1.378,0-2.5,1.121-2.5,2.5C17,4.221,16.776,4.445,16.5,4.445z"/>
	<path d="M1.191,23.558c-0.263,0-0.527-0.028-0.784-0.082c-0.27-0.058-0.442-0.324-0.385-0.593c0.048-0.229,0.254-0.396,0.489-0.396
		c0.034,0,0.069,0.004,0.103,0.011c0.187,0.04,0.377,0.06,0.568,0.06c0,0,0,0,0,0c1.864,0,3.376-1.881,3.391-1.9
		c0.094-0.12,0.24-0.191,0.389-0.191c0.005,0,0.025,0.001,0.031,0.001c0.153,0.006,0.302,0.09,0.39,0.223
		c0.718,1.085,1.922,1.77,3.222,1.833c1.282-0.032,2.475-0.713,3.172-1.823c0.091-0.145,0.247-0.232,0.417-0.234
		c0.001,0,0.002,0,0.003,0c0.18,0,0.326,0.082,0.42,0.223c0.719,1.086,1.926,1.771,3.226,1.833c1.282-0.031,2.476-0.713,3.174-1.823
		c0.092-0.146,0.25-0.234,0.423-0.234c0.174,0,0.332,0.088,0.424,0.235c0.011,0.017,1.178,1.815,2.963,1.815
		c0.189,0,0.381-0.02,0.571-0.06c0.033-0.007,0.068-0.011,0.103-0.011c0.235,0,0.44,0.167,0.488,0.398
		c0.027,0.13,0.002,0.264-0.071,0.376c-0.073,0.112-0.186,0.188-0.316,0.216c-0.266,0.056-0.535,0.084-0.798,0.084c0,0,0,0,0,0
		c-1.618,0-2.788-1.061-3.357-1.718c-0.903,1.065-2.204,1.688-3.616,1.722c-1.411-0.067-2.709-0.691-3.622-1.725
		c-0.903,1.067-2.204,1.691-3.617,1.725c-1.434-0.068-2.747-0.71-3.661-1.773C4.265,22.421,2.887,23.558,1.191,23.558z"/>
	<path d="M1.191,19.558c-0.263,0-0.527-0.028-0.784-0.082c-0.27-0.058-0.442-0.324-0.385-0.593c0.048-0.229,0.254-0.396,0.49-0.396
		c0.034,0,0.068,0.004,0.102,0.01c0.188,0.04,0.378,0.06,0.569,0.06c0,0,0,0,0,0c1.863,0,3.375-1.881,3.39-1.9
		c0.094-0.12,0.24-0.191,0.388-0.191c0.006,0,0.026,0.001,0.032,0.001c0.153,0.006,0.301,0.09,0.389,0.223
		c0.718,1.085,1.922,1.77,3.222,1.833c1.282-0.032,2.475-0.713,3.172-1.823c0.091-0.145,0.247-0.232,0.417-0.234
		c0.177,0.001,0.329,0.083,0.423,0.224c0.719,1.085,1.925,1.771,3.226,1.833c1.282-0.031,2.476-0.713,3.174-1.823
		c0.092-0.146,0.25-0.234,0.423-0.234c0.174,0,0.332,0.088,0.424,0.235c0.011,0.017,1.178,1.815,2.964,1.814
		c0.189,0,0.381-0.02,0.571-0.06c0.032-0.007,0.068-0.011,0.104-0.011c0.234,0,0.439,0.168,0.488,0.399
		c0.027,0.13,0.002,0.264-0.071,0.376c-0.073,0.112-0.186,0.188-0.316,0.216c-0.266,0.056-0.535,0.084-0.798,0.084c0,0,0,0,0,0
		c-1.618,0-2.788-1.061-3.357-1.718c-0.903,1.065-2.204,1.688-3.616,1.722c-1.411-0.067-2.709-0.691-3.622-1.725
		c-0.903,1.067-2.204,1.691-3.617,1.725c-1.434-0.068-2.747-0.71-3.661-1.773C4.265,18.421,2.887,19.558,1.191,19.558z"/>
	<path d="M1.191,15.558c-0.263,0-0.527-0.028-0.784-0.082c-0.27-0.058-0.442-0.324-0.385-0.593c0.048-0.229,0.254-0.396,0.489-0.396
		c0.034,0,0.069,0.004,0.103,0.011c0.186,0.04,0.377,0.06,0.567,0.06c0,0,0,0,0,0c1.864,0,3.376-1.881,3.391-1.9
		c0.094-0.12,0.239-0.191,0.388-0.191c0.006,0,0.027,0.001,0.033,0.001c0.152,0.006,0.3,0.089,0.389,0.223
		c0.718,1.085,1.922,1.77,3.222,1.833c1.282-0.032,2.475-0.713,3.172-1.823c0.091-0.145,0.247-0.232,0.417-0.234c0,0,0,0,0,0
		c0.178,0,0.328,0.082,0.422,0.224c0.719,1.085,1.925,1.771,3.226,1.833c1.282-0.031,2.476-0.713,3.174-1.823
		c0.092-0.146,0.25-0.234,0.423-0.234c0.174,0,0.332,0.088,0.424,0.235c0.011,0.017,1.178,1.815,2.963,1.815
		c0.189,0,0.381-0.02,0.571-0.06c0.033-0.007,0.068-0.011,0.104-0.011c0.234,0,0.439,0.167,0.488,0.398
		c0.027,0.13,0.002,0.264-0.071,0.376c-0.073,0.112-0.186,0.188-0.316,0.216c-0.266,0.056-0.535,0.084-0.798,0.084
		c-1.618,0-2.788-1.061-3.357-1.718c-0.903,1.065-2.204,1.688-3.616,1.722c-1.411-0.067-2.709-0.691-3.622-1.725
		c-0.903,1.067-2.204,1.691-3.617,1.725c-1.434-0.068-2.747-0.71-3.661-1.773C4.265,14.421,2.887,15.558,1.191,15.558z"/>
</g>
</svg>
