<?xml version="1.0" encoding="utf-8"?>
<!-- Generator: Adobe Illustrator 22.1.0, SVG Export Plug-In . SVG Version: 6.00 Build 0)  -->
<svg version="1.1" id="Light" xmlns="http://www.w3.org/2000/svg" xmlns:xlink="http://www.w3.org/1999/xlink" x="0px" y="0px"
	 viewBox="0 0 24 24" style="enable-background:new 0 0 24 24;" xml:space="preserve">
<g>
	<title>wildlife-protection-shield</title>
	<path d="M12,24.001c-0.441,0-0.873-0.081-1.285-0.24l-1.067-0.414C4.765,21.446,1.491,16.65,1.5,11.412V3.776
		c-0.006-0.795,0.457-1.526,1.18-1.86C5.575,0.644,8.65,0,11.823,0l0.182,0.001L12.217,0c3.146,0,6.206,0.643,9.094,1.912
		c0.73,0.339,1.195,1.071,1.189,1.868v7.633c0.009,5.237-3.265,10.033-8.146,11.934l-1.068,0.414
		C12.873,23.921,12.441,24.001,12,24.001z M11.795,1C8.78,1,5.852,1.615,3.091,2.827C2.731,2.995,2.497,3.366,2.5,3.772v7.641
		c-0.008,4.829,3.01,9.25,7.509,11.002l1.066,0.413c0.297,0.115,0.608,0.173,0.924,0.173s0.628-0.058,0.924-0.173l1.067-0.414
		c4.499-1.752,7.516-6.173,7.509-11.001V3.776c0.003-0.409-0.232-0.782-0.6-0.952C18.147,1.614,15.22,1,12.206,1l-0.202,0.001
		L11.795,1z"/>
	<circle cx="10" cy="12.501" r="0.75"/>
	<circle cx="14" cy="12.501" r="0.75"/>
	<path d="M12,15.501c-0.134,0-0.259-0.052-0.354-0.146l-0.5-0.5c-0.047-0.047-0.083-0.101-0.109-0.163
		c-0.05-0.121-0.05-0.26,0-0.382c0.051-0.123,0.147-0.219,0.27-0.271c0.061-0.025,0.126-0.038,0.191-0.038h1
		c0.066,0,0.13,0.013,0.191,0.039c0.123,0.051,0.219,0.147,0.27,0.27c0.051,0.121,0.051,0.261,0,0.383
		c-0.025,0.062-0.062,0.117-0.109,0.163l-0.499,0.499C12.259,15.449,12.134,15.501,12,15.501z"/>
	<path d="M12,18.001c-5.5,0-5.5-3.387-5.5-4.5c0.001-0.681,0.094-1.354,0.274-2.006c-1.452-0.103-2.652-1.271-2.776-2.742
		C3.931,7.953,4.179,7.177,4.697,6.565c0.517-0.612,1.242-0.986,2.041-1.053c0.085-0.007,0.17-0.011,0.255-0.011
		c0.705,0,1.392,0.252,1.933,0.709C9.34,6.562,9.646,7.007,9.821,7.511C10.495,7.179,11.242,7.004,12,7.004
		c0.759,0,1.506,0.175,2.18,0.507c0.415-1.179,1.553-2.008,2.819-2.011c0.206,0,0.406,0.02,0.597,0.057
		c0.786,0.156,1.464,0.609,1.909,1.276c0.445,0.666,0.604,1.466,0.448,2.252c-0.156,0.786-0.609,1.464-1.275,1.909
		c-0.436,0.291-0.933,0.462-1.45,0.499c0.18,0.653,0.271,1.326,0.272,2.007C17.5,18.001,13.36,18.001,12,18.001z M7.479,10.453
		c0.148,0,0.288,0.065,0.383,0.178c0.117,0.14,0.15,0.332,0.084,0.502c-0.294,0.758-0.444,1.555-0.445,2.368
		c0,2.452,1.346,3.499,4.5,3.499c3.154,0,4.5-1.047,4.5-3.5c-0.001-0.812-0.15-1.609-0.443-2.368
		c-0.066-0.17-0.034-0.362,0.083-0.502c0.095-0.113,0.235-0.178,0.382-0.178c0.032,0,0.065,0.003,0.098,0.01
		c0.131,0.026,0.264,0.039,0.395,0.039c0.393,0,0.775-0.117,1.106-0.338c0.444-0.297,0.746-0.749,0.85-1.273
		c0.104-0.524-0.002-1.057-0.299-1.501s-0.749-0.746-1.273-0.85C17.266,6.512,17.15,6.5,17.025,6.5
		c-1.052,0.002-1.923,0.807-2.005,1.832c-0.015,0.178-0.124,0.336-0.285,0.412c-0.067,0.031-0.14,0.048-0.214,0.048
		c-0.103,0-0.202-0.031-0.286-0.09C13.579,8.246,12.806,8.004,12,8.004c-0.807,0-1.579,0.242-2.235,0.699
		c-0.084,0.059-0.183,0.09-0.286,0.09c-0.073,0-0.146-0.016-0.212-0.047C9.105,8.669,8.996,8.512,8.981,8.334
		c-0.045-0.532-0.294-1.015-0.702-1.36C7.913,6.665,7.468,6.501,6.992,6.501c-0.057,0-0.114,0.002-0.171,0.007
		C6.288,6.553,5.805,6.802,5.46,7.21C5.115,7.618,4.95,8.136,4.995,8.668c0.045,0.532,0.294,1.016,0.702,1.36
		c0.366,0.309,0.811,0.473,1.287,0.473c0.057,0,0.114-0.002,0.171-0.007c0.076-0.006,0.151-0.017,0.226-0.032
		C7.413,10.456,7.446,10.453,7.479,10.453z"/>
</g>
</svg>
