<?xml version="1.0" encoding="utf-8"?>
<!-- Generator: Adobe Illustrator 22.1.0, SVG Export Plug-In . SVG Version: 6.00 Build 0)  -->
<svg version="1.1" id="Light" xmlns="http://www.w3.org/2000/svg" xmlns:xlink="http://www.w3.org/1999/xlink" x="0px" y="0px"
	 viewBox="0 0 24 24" style="enable-background:new 0 0 24 24;" xml:space="preserve">
<g>
	<title>whale</title>
	<path d="M12,24c-8.59,0-10.449-4.005-10.497-7.365c-0.001-0.003-0.001-0.022,0-0.041L1.5,16.5C1.602,10.712,6.21,6.102,11.991,6
		c5.795,0.102,10.407,4.71,10.509,10.491l-0.002,0.115c0.001,0.004,0,0.024-0.001,0.044C22.449,19.995,20.59,24,12,24z M12.5,22.959
		c1.99-0.268,3.685-2.103,3.956-4.277c-1.301,0.207-2.63,0.314-3.956,0.321V22.959z M7.543,18.679
		c0.27,2.176,1.965,4.012,3.957,4.28V19C10.172,18.994,8.843,18.886,7.543,18.679z M17.483,18.497
		c-0.119,1.639-0.937,3.203-2.181,4.246c3.756-0.64,5.822-2.446,6.15-5.381C20.156,17.846,18.824,18.227,17.483,18.497z
		 M2.547,17.361c0.327,2.935,2.393,4.741,6.15,5.381c-1.244-1.043-2.062-2.608-2.181-4.247C5.176,18.227,3.844,17.846,2.547,17.361z
		 M12,18c0.134,0.002,0.263,0.003,0.392,0.003c1.494,0,2.993-0.135,4.457-0.402c0.047-0.016,0.093-0.024,0.139-0.025
		c1.522-0.287,3.036-0.724,4.504-1.3c-0.21-5.126-4.35-9.186-9.501-9.276c-5.137,0.091-9.273,4.151-9.483,9.276
		c1.467,0.576,2.983,1.013,4.507,1.3c0.054,0.002,0.097,0.015,0.124,0.023c1.452,0.266,2.963,0.404,4.468,0.404
		c0.129,0,0.258-0.001,0.386-0.003c0.001,0,0.003,0,0.004,0H12z"/>
	<circle cx="7.75" cy="13" r="0.75"/>
	<circle cx="16.25" cy="13" r="0.75"/>
	<path d="M12,5c-0.276,0-0.5-0.224-0.5-0.5V3c0-1.103-0.897-2-2-2s-2,0.897-2,2c0,0.276-0.224,0.5-0.5,0.5S6.5,3.276,6.5,3
		c0-1.654,1.346-3,3-3c1.011,0,1.949,0.515,2.5,1.343C12.551,0.515,13.489,0,14.5,0c1.654,0,3,1.346,3,3c0,0.276-0.224,0.5-0.5,0.5
		S16.5,3.276,16.5,3c0-1.103-0.897-2-2-2s-2,0.897-2,2v1.5C12.5,4.776,12.276,5,12,5z"/>
</g>
</svg>
