<?xml version="1.0" encoding="utf-8"?>
<!-- Generator: Adobe Illustrator 22.1.0, SVG Export Plug-In . SVG Version: 6.00 Build 0)  -->
<svg version="1.1" id="Layer_1" xmlns="http://www.w3.org/2000/svg" xmlns:xlink="http://www.w3.org/1999/xlink" x="0px" y="0px"
	 viewBox="0 0 24 24" style="enable-background:new 0 0 24 24;" xml:space="preserve">
<g>
	<title>team-meeting-message-lock-1</title>
	<path d="M12.5,14c-0.066,0-0.131-0.013-0.192-0.038C12.121,13.885,12,13.703,12,13.5V11H5.5C4.673,11,4,10.327,4,9.5v-7
		C4,1.673,4.673,1,5.5,1h3C8.776,1,9,1.224,9,1.5S8.776,2,8.5,2h-3C5.224,2,5,2.224,5,2.5v7C5,9.776,5.224,10,5.5,10h7
		c0.276,0,0.5,0.224,0.5,0.5v1.793l2.146-2.146C15.241,10.052,15.367,10,15.5,10h4c0.276,0,0.5-0.224,0.5-0.5v-7
		C20,2.224,19.776,2,19.5,2h-3C16.225,2,16,1.776,16,1.5S16.225,1,16.5,1h3C20.327,1,21,1.673,21,2.5v7c0,0.827-0.673,1.5-1.5,1.5
		h-3.793l-2.854,2.854C12.759,13.948,12.634,14,12.5,14z"/>
	<path d="M4.88,19.498c-1.792,0-3.25-1.458-3.25-3.25s1.458-3.25,3.25-3.25s3.25,1.458,3.25,3.25S6.672,19.498,4.88,19.498z
		 M4.88,13.998c-1.241,0-2.25,1.009-2.25,2.25s1.009,2.25,2.25,2.25s2.25-1.009,2.25-2.25S6.121,13.998,4.88,13.998z"/>
	<path d="M9.259,24c-0.235,0-0.436-0.16-0.487-0.39c-0.235-1.04-0.861-1.926-1.762-2.494c-0.64-0.404-1.374-0.618-2.122-0.618
		c-0.297,0-0.595,0.034-0.888,0.1c-1.493,0.337-2.675,1.52-3.012,3.012C0.936,23.84,0.735,24,0.499,24
		c-0.036,0-0.073-0.004-0.108-0.012c-0.27-0.061-0.44-0.329-0.379-0.598c0.422-1.867,1.901-3.345,3.767-3.767
		c0.365-0.082,0.739-0.124,1.109-0.124c0.937,0,1.855,0.267,2.655,0.772c1.127,0.712,1.91,1.82,2.204,3.119
		c0.061,0.269-0.109,0.537-0.377,0.598C9.333,23.996,9.296,24,9.259,24z"/>
	<path d="M19.12,19.498c-1.792,0-3.25-1.458-3.25-3.25s1.458-3.25,3.25-3.25s3.25,1.458,3.25,3.25S20.912,19.498,19.12,19.498z
		 M19.12,13.998c-1.241,0-2.25,1.009-2.25,2.25s1.009,2.25,2.25,2.25s2.25-1.009,2.25-2.25S20.361,13.998,19.12,13.998z"/>
	<path d="M23.5,24c-0.235,0-0.435-0.16-0.488-0.389c-0.407-1.803-2.043-3.111-3.89-3.111c-0.295,0-0.591,0.033-0.882,0.099
		c-1.493,0.337-2.675,1.519-3.012,3.012C15.176,23.84,14.975,24,14.74,24c-0.036,0-0.073-0.004-0.108-0.012
		c-0.27-0.061-0.439-0.329-0.379-0.598c0.422-1.867,1.901-3.345,3.767-3.767c0.362-0.082,0.731-0.123,1.099-0.123
		c2.311,0,4.358,1.636,4.868,3.89c0.061,0.269-0.108,0.537-0.377,0.598C23.574,23.996,23.537,24,23.5,24z"/>
	<path d="M10.5,9.001c-0.827,0-1.5-0.673-1.5-1.5v-3c0-0.64,0.41-1.205,1-1.414V2.5C10,1.121,11.122,0,12.5,0
		C13.879,0,15,1.121,15,2.5v0.587c0.59,0.209,1,0.774,1,1.414v3c0,0.827-0.673,1.5-1.5,1.5H10.5z M10.5,4.001
		c-0.276,0-0.5,0.224-0.5,0.5v3c0,0.276,0.224,0.5,0.5,0.5h4c0.276,0,0.5-0.224,0.5-0.5v-3c0-0.276-0.224-0.5-0.5-0.5H10.5z M14,3
		V2.5C14,1.673,13.327,1,12.5,1S11,1.673,11,2.5V3H14z"/>
	<circle cx="12.5" cy="6.021" r="0.75"/>
</g>
</svg>
