<?xml version="1.0" encoding="utf-8"?>
<!-- Generator: Adobe Illustrator 22.1.0, SVG Export Plug-In . SVG Version: 6.00 Build 0)  -->
<svg version="1.1" id="Layer_1" xmlns="http://www.w3.org/2000/svg" xmlns:xlink="http://www.w3.org/1999/xlink" x="0px" y="0px"
	 viewBox="0 0 24 24" style="enable-background:new 0 0 24 24;" xml:space="preserve">
<g>
	<title>team-meeting-flash</title>
	<path d="M20,11.484c-1.792,0-3.25-1.458-3.25-3.25s1.458-3.25,3.25-3.25s3.25,1.458,3.25,3.25S21.792,11.484,20,11.484z M20,5.984
		c-1.241,0-2.25,1.009-2.25,2.25s1.009,2.25,2.25,2.25s2.25-1.009,2.25-2.25S21.241,5.984,20,5.984z"/>
	<path d="M18.5,23.984c-0.258,0-0.477-0.201-0.498-0.458l-0.379-4.542H16.5c-0.276,0-0.5-0.224-0.5-0.5v-3c0-2.206,1.794-4,4-4
		s4,1.794,4,4v3c0,0.276-0.224,0.5-0.5,0.5h-1.123l-0.379,4.542c-0.021,0.257-0.24,0.458-0.498,0.458H18.5z M21.04,22.984
		l0.379-4.542c0.021-0.257,0.24-0.458,0.498-0.458H23v-2.5c0-1.654-1.346-3-3-3s-3,1.346-3,3v2.5h1.083
		c0.258,0,0.477,0.201,0.498,0.458l0.379,4.542H21.04z"/>
	<path d="M4,11.484c-1.792,0-3.25-1.458-3.25-3.25S2.208,4.984,4,4.984s3.25,1.458,3.25,3.25S5.792,11.484,4,11.484z M4,5.984
		c-1.241,0-2.25,1.009-2.25,2.25s1.009,2.25,2.25,2.25s2.25-1.009,2.25-2.25S5.241,5.984,4,5.984z"/>
	<path d="M2.5,23.984c-0.258,0-0.477-0.201-0.498-0.458l-0.379-4.542H0.5c-0.276,0-0.5-0.224-0.5-0.5v-3c0-2.206,1.794-4,4-4
		s4,1.794,4,4v3c0,0.276-0.224,0.5-0.5,0.5H6.377l-0.379,4.542c-0.022,0.257-0.24,0.458-0.498,0.458H2.5z M5.04,22.984l0.379-4.542
		c0.022-0.257,0.24-0.458,0.498-0.458H7v-2.5c0-1.654-1.346-3-3-3s-3,1.346-3,3v2.5h1.083c0.258,0,0.477,0.201,0.498,0.458
		l0.379,4.542H5.04z"/>
	<path d="M10.5,11.985c-0.056,0-0.111-0.009-0.164-0.027C10.135,11.887,10,11.698,10,11.485v-3.5H9
		c-0.239,0-0.471-0.086-0.652-0.242C8.146,7.569,8.023,7.327,8.003,7.06c-0.02-0.266,0.065-0.525,0.239-0.727l4.866-6.158
		c0.095-0.121,0.238-0.19,0.393-0.19c0.055,0,0.11,0.009,0.163,0.027C13.865,0.083,14,0.273,14,0.485v3.5h1
		c0.238,0,0.469,0.085,0.65,0.24c0.203,0.174,0.326,0.416,0.347,0.682c0.021,0.266-0.063,0.525-0.237,0.728l-4.867,6.16
		C10.797,11.916,10.654,11.985,10.5,11.985z M9.013,6.969L10.5,6.985c0.276,0,0.5,0.224,0.5,0.5v2.561L14.988,5L13.5,4.985
		c-0.276,0-0.5-0.224-0.5-0.5V1.924L9.013,6.969z"/>
</g>
</svg>
