<?xml version="1.0" encoding="utf-8"?>
<!-- Generator: Adobe Illustrator 22.1.0, SVG Export Plug-In . SVG Version: 6.00 Build 0)  -->
<svg version="1.1" id="Layer_1" xmlns="http://www.w3.org/2000/svg" xmlns:xlink="http://www.w3.org/1999/xlink" x="0px" y="0px"
	 viewBox="0 0 24 24" style="enable-background:new 0 0 24 24;" xml:space="preserve">
<g>
	<title>user-man-stress</title>
	<path d="M17,6.5c-0.157,0-0.306-0.075-0.4-0.2c-0.08-0.107-0.114-0.238-0.095-0.371C16.524,5.797,16.593,5.68,16.7,5.6l1.622-1.216
		l-0.738-1.106c-0.132-0.198-0.105-0.463,0.062-0.631l2-2C19.741,0.552,19.866,0.5,20,0.5s0.259,0.052,0.354,0.146
		c0.195,0.195,0.195,0.512,0,0.707l-1.71,1.71l0.772,1.159C19.563,4.443,19.512,4.741,19.3,4.9l-2,1.5
		C17.213,6.465,17.109,6.5,17,6.5z"/>
	<path d="M6.999,6.5c-0.109,0-0.213-0.035-0.3-0.1l-2-1.5C4.488,4.741,4.437,4.443,4.584,4.222l0.773-1.159l-1.71-1.71
		C3.552,1.259,3.5,1.133,3.5,1s0.052-0.259,0.146-0.354S3.866,0.5,4,0.5s0.259,0.052,0.354,0.146l2,2
		C6.521,2.814,6.548,3.08,6.416,3.277L5.678,4.384L7.3,5.6c0.107,0.08,0.176,0.197,0.195,0.329C7.514,6.061,7.48,6.193,7.4,6.3
		C7.306,6.425,7.156,6.5,6.999,6.5z"/>
	<path d="M12,3.5c-0.134,0-0.259-0.052-0.354-0.146l-1-1c-0.168-0.168-0.194-0.433-0.062-0.631l1-1.5C11.677,0.083,11.832,0,12,0
		c0.099,0,0.195,0.029,0.277,0.084c0.111,0.074,0.187,0.187,0.213,0.318c0.026,0.131,0,0.264-0.074,0.376l-0.773,1.159l0.71,0.71
		c0.195,0.195,0.195,0.512,0,0.707C12.259,3.448,12.133,3.5,12,3.5z"/>
	<path d="M12,15.5c-2.619,0-4.75-2.131-4.75-4.75S9.381,6,12,6s4.75,2.131,4.75,4.75S14.619,15.5,12,15.5z M8.495,9.426
		C8.332,9.851,8.25,10.295,8.25,10.75c0,2.068,1.682,3.75,3.75,3.75c2.024,0,3.678-1.612,3.748-3.619
		c-0.745,0.24-1.519,0.362-2.307,0.362C11.608,11.243,9.866,10.6,8.495,9.426z M8.988,8.521c1.198,1.094,2.808,1.718,4.45,1.718
		c0.757,0,1.497-0.128,2.202-0.381C15.232,8.19,13.734,7,12,7C10.807,7,9.696,7.565,8.988,8.521z"/>
	<path d="M5,24c-0.276,0-0.5-0.224-0.5-0.5c0-4.135,3.365-7.5,7.5-7.5s7.5,3.365,7.5,7.5c0,0.276-0.224,0.5-0.5,0.5H5z M18.481,23
		c-0.255-3.385-3.054-6-6.481-6s-6.226,2.615-6.481,6H18.481z"/>
	<path d="M12,21.5c-0.276,0-0.5-0.224-0.5-0.5v-2.5c0-0.276,0.224-0.5,0.5-0.5c0.276,0,0.5,0.224,0.5,0.5V21
		C12.5,21.275,12.275,21.5,12,21.5z"/>
</g>
</svg>
