<?xml version="1.0" encoding="utf-8"?>
<!-- Generator: Adobe Illustrator 22.1.0, SVG Export Plug-In . SVG Version: 6.00 Build 0)  -->
<svg version="1.1" id="Light" xmlns="http://www.w3.org/2000/svg" xmlns:xlink="http://www.w3.org/1999/xlink" x="0px" y="0px"
	 viewBox="0 0 24 24" style="enable-background:new 0 0 24 24;" xml:space="preserve">
<g>
	<title>archery-person</title>
	<path d="M8.345,6c-1.654,0-3-1.346-3-3s1.346-3,3-3s3,1.346,3,3S10,6,8.345,6z M8.345,1c-1.103,0-2,0.897-2,2s0.897,2,2,2
		s2-0.897,2-2S9.448,1,8.345,1z"/>
	<path d="M3.846,11c-1.103,0-2-0.897-2-2s0.897-2,2-2h4.5c1.103,0,2,0.897,2,2s-0.897,2-2,2H3.846z M3.846,8c-0.551,0-1,0.449-1,1
		s0.449,1,1,1h4.5c0.551,0,1-0.449,1-1s-0.449-1-1-1H3.846z"/>
	<path d="M18.346,18.047c-0.114,0-0.225-0.039-0.313-0.11c-0.214-0.173-0.249-0.488-0.076-0.703
		c4.357-5.416,4.39-10.915,0.098-16.344l-0.03-0.038c-0.17-0.218-0.131-0.533,0.087-0.702c0.087-0.068,0.196-0.106,0.307-0.106
		c0.155,0,0.299,0.07,0.395,0.193l0.028,0.036c4.618,5.842,4.583,11.759-0.105,17.588C18.641,17.979,18.498,18.047,18.346,18.047z"
		/>
	<path d="M11.349,24.022c-0.974,0-1.823-0.726-1.974-1.689L8.846,19.27l-0.529,3.07c-0.179,0.951-1.003,1.639-1.962,1.639
		c-0.105,0-0.211-0.008-0.316-0.025c-0.528-0.083-0.992-0.367-1.306-0.799c-0.314-0.432-0.442-0.96-0.359-1.488l0.972-6.207V12.5
		c0-0.276,0.224-0.5,0.5-0.5s0.5,0.224,0.5,0.5v3c0,0.026-0.002,0.053-0.006,0.079l-0.978,6.243
		c-0.042,0.264,0.022,0.529,0.179,0.745c0.157,0.216,0.389,0.358,0.653,0.399c0.055,0.009,0.109,0.013,0.162,0.013
		c0.477,0,0.887-0.343,0.976-0.816l1.021-5.92c0.041-0.24,0.249-0.415,0.493-0.415s0.451,0.175,0.493,0.415l1.022,5.927
		c0.077,0.488,0.5,0.852,0.985,0.852c0.052,0,0.105-0.004,0.159-0.013c0.546-0.086,0.919-0.599,0.833-1.144l-0.985-6.289
		c-0.004-0.024-0.006-0.051-0.006-0.077v-5c0-0.276,0.224-0.5,0.5-0.5h6c0.552,0,1-0.449,1-1s-0.448-1-1-1h-6.5
		c-0.276,0-0.5-0.224-0.5-0.5s0.224-0.5,0.5-0.5h6.5c1.103,0,2,0.897,2,2s-0.897,2-2,2h-5.5v4.461l0.978,6.242
		c0.172,1.094-0.574,2.124-1.663,2.295C11.558,24.014,11.454,24.022,11.349,24.022L11.349,24.022z"/>
</g>
</svg>
