<?xml version="1.0" encoding="utf-8"?>
<!-- Generator: Adobe Illustrator 22.1.0, SVG Export Plug-In . SVG Version: 6.00 Build 0)  -->
<svg version="1.1" id="Light" xmlns="http://www.w3.org/2000/svg" xmlns:xlink="http://www.w3.org/1999/xlink" x="0px" y="0px"
	 viewBox="0 0 24 24" style="enable-background:new 0 0 24 24;" xml:space="preserve">
<g>
	<title>hospital-sign-square</title>
	<path d="M1.5,24C0.673,24,0,23.327,0,22.5v-21C0,0.673,0.673,0,1.5,0h21C23.327,0,24,0.673,24,1.5v21c0,0.827-0.673,1.5-1.5,1.5
		H1.5z M1.5,1C1.224,1,1,1.224,1,1.5v21C1,22.776,1.224,23,1.5,23h21c0.276,0,0.5-0.224,0.5-0.5v-21C23,1.224,22.776,1,22.5,1H1.5z"
		/>
	<path d="M15,20c-0.552,0-1-0.448-1-1v-4h-4v4c0,0.552-0.449,1-1,1H5c-0.551,0-1-0.448-1-1V5c0-0.551,0.449-1,1-1h4
		c0.551,0,1,0.449,1,1v4h4V5c0-0.551,0.448-1,1-1h4c0.552,0,1,0.449,1,1v14c0,0.552-0.448,1-1,1H15z M14.5,14
		c0.276,0,0.5,0.224,0.5,0.5V19h4V5h-4v4.5c0,0.276-0.224,0.5-0.5,0.5h-5C9.224,10,9,9.776,9,9.5V5H5v14h4v-4.5
		C9,14.224,9.224,14,9.5,14H14.5z"/>
</g>
</svg>
