<?xml version="1.0" encoding="utf-8"?>
<!-- Generator: Adobe Illustrator 22.1.0, SVG Export Plug-In . SVG Version: 6.00 Build 0)  -->
<svg version="1.1" id="Light" xmlns="http://www.w3.org/2000/svg" xmlns:xlink="http://www.w3.org/1999/xlink" x="0px" y="0px"
	 viewBox="0 0 24 24" style="enable-background:new 0 0 24 24;" xml:space="preserve">
<g>
	<title>hospital-board</title>
	<path d="M12,24C5.383,24,0,18.617,0,12C0,5.383,5.383,0,12,0c6.617,0,12,5.383,12,12C24,18.617,18.617,24,12,24z M12,1
		C5.935,1,1,5.935,1,12s4.935,11,11,11s11-4.935,11-11S18.065,1,12,1z"/>
	<path d="M12,21c-4.963,0-9-4.037-9-9s4.037-9,9-9s9,4.037,9,9S16.963,21,12,21z M12,4c-4.411,0-8,3.589-8,8c0,4.411,3.589,8,8,8
		c4.411,0,8-3.589,8-8C20,7.589,16.411,4,12,4z"/>
	<path d="M11,17c-0.551,0-1-0.448-1-1v-2H8c-0.551,0-1-0.448-1-1v-2c0-0.551,0.449-1,1-1h2V8c0-0.551,0.449-1,1-1h2
		c0.552,0,1,0.449,1,1v2h2c0.552,0,1,0.449,1,1v2c0,0.552-0.448,1-1,1h-2v2c0,0.552-0.448,1-1,1H11z M8,13h2.5
		c0.276,0,0.5,0.224,0.5,0.5V16h2v-2.5c0-0.276,0.224-0.5,0.5-0.5H16v-2h-2.5c-0.276,0-0.5-0.224-0.5-0.5V8h-2v2.5
		c0,0.276-0.224,0.5-0.5,0.5H8L8,13z"/>
</g>
</svg>
