<?xml version="1.0" encoding="utf-8"?>
<!-- Generator: Adobe Illustrator 22.1.0, SVG Export Plug-In . SVG Version: 6.00 Build 0)  -->
<svg version="1.1" id="Light" xmlns="http://www.w3.org/2000/svg" xmlns:xlink="http://www.w3.org/1999/xlink" x="0px" y="0px"
	 viewBox="0 0 24 24" style="enable-background:new 0 0 24 24;" xml:space="preserve">
<g>
	<title>hospital-house</title>
	<path d="M11,19c-0.551,0-1-0.448-1-1v-2H8c-0.551,0-1-0.448-1-1v-2c0-0.552,0.449-1,1-1h2v-2c0-0.551,0.449-1,1-1h2
		c0.552,0,1,0.449,1,1v2h2c0.552,0,1,0.448,1,1v2c0,0.552-0.448,1-1,1h-2v2c0,0.552-0.448,1-1,1H11z M8,15h2.5
		c0.276,0,0.5,0.224,0.5,0.5V18h2v-2.5c0-0.276,0.224-0.5,0.5-0.5H16v-2h-2.5c-0.276,0-0.5-0.224-0.5-0.5V10h-2v2.5
		c0,0.276-0.224,0.5-0.5,0.5H8L8,15z"/>
	<path d="M4.5,24C3.673,24,3,23.327,3,22.5v-11C3,11.224,3.224,11,3.5,11S4,11.224,4,11.5v11C4,22.776,4.224,23,4.5,23h15
		c0.276,0,0.5-0.224,0.5-0.5v-11c0-0.276,0.224-0.5,0.5-0.5s0.5,0.224,0.5,0.5v11c0,0.827-0.673,1.5-1.5,1.5H4.5z"/>
	<path d="M0.5,11.5c-0.14,0-0.275-0.059-0.369-0.163c-0.09-0.099-0.136-0.226-0.13-0.36c0.006-0.133,0.064-0.256,0.162-0.347
		l11.5-10.5C11.755,0.047,11.875,0,12,0s0.245,0.046,0.337,0.131l11.5,10.5c0.099,0.09,0.156,0.213,0.163,0.347
		s-0.04,0.261-0.131,0.36C23.775,11.441,23.64,11.5,23.5,11.5c-0.125,0-0.245-0.047-0.337-0.131L12,1.177L0.837,11.369
		C0.745,11.454,0.625,11.5,0.5,11.5z"/>
</g>
</svg>
