<?xml version="1.0" encoding="utf-8"?>
<!-- Generator: Adobe Illustrator 22.1.0, SVG Export Plug-In . SVG Version: 6.00 Build 0)  -->
<svg version="1.1" id="Light" xmlns="http://www.w3.org/2000/svg" xmlns:xlink="http://www.w3.org/1999/xlink" x="0px" y="0px"
	 viewBox="0 0 24 24" style="enable-background:new 0 0 24 24;" xml:space="preserve">
<g>
	<title>hospital-sign</title>
	<path d="M1.5,24C1.224,24,1,23.776,1,23.5v-23C1,0.224,1.224,0,1.5,0S2,0.224,2,0.5V4h3V2.5C5,1.673,5.673,1,6.5,1h15
		C22.327,1,23,1.673,23,2.5v15c0,0.827-0.673,1.5-1.5,1.5h-15C5.673,19,5,18.327,5,17.5V16H2v7.5C2,23.776,1.776,24,1.5,24z M6.5,2
		C6.224,2,6,2.224,6,2.5v15C6,17.776,6.224,18,6.5,18h15c0.276,0,0.5-0.224,0.5-0.5v-15C22,2.224,21.776,2,21.5,2H6.5z M5,15V5H2v10
		H5z"/>
	<path d="M12,16c-0.551,0-1-0.448-1-1v-2H9c-0.551,0-1-0.448-1-1V8c0-0.551,0.449-1,1-1h2V5c0-0.551,0.449-1,1-1h4
		c0.552,0,1,0.449,1,1v2h2c0.552,0,1,0.449,1,1v4c0,0.552-0.448,1-1,1h-2v2c0,0.552-0.448,1-1,1H12z M9,12h2.5
		c0.276,0,0.5,0.224,0.5,0.5V15h4v-2.5c0-0.276,0.224-0.5,0.5-0.5H19V8h-2.5C16.224,8,16,7.776,16,7.5V5h-4v2.5
		C12,7.776,11.776,8,11.5,8H9L9,12z"/>
</g>
</svg>
