<?xml version="1.0" encoding="utf-8"?>
<!-- Generator: Adobe Illustrator 22.1.0, SVG Export Plug-In . SVG Version: 6.00 Build 0)  -->
<svg version="1.1" id="Light" xmlns="http://www.w3.org/2000/svg" xmlns:xlink="http://www.w3.org/1999/xlink" x="0px" y="0px"
	 viewBox="0 0 24 24" style="enable-background:new 0 0 24 24;" xml:space="preserve">
<g>
	<title>hospital-first-aid</title>
	<path d="M11,19c-0.551,0-1-0.448-1-1v-2H8c-0.551,0-1-0.448-1-1v-2c0-0.552,0.449-1,1-1h2v-2c0-0.551,0.449-1,1-1h2
		c0.552,0,1,0.449,1,1v2h2c0.552,0,1,0.448,1,1v2c0,0.552-0.448,1-1,1h-2v2c0,0.552-0.448,1-1,1H11z M8,15h2.5
		c0.276,0,0.5,0.224,0.5,0.5V18h2v-2.5c0-0.276,0.224-0.5,0.5-0.5H16v-2h-2.5c-0.276,0-0.5-0.224-0.5-0.5V10h-2v2.5
		c0,0.276-0.224,0.5-0.5,0.5H8L8,15z"/>
	<path d="M2.5,22C1.121,22,0,20.878,0,19.5v-12C0,6.121,1.121,5,2.5,5H8V4c0-1.103,0.897-2,2-2h4c1.103,0,2,0.897,2,2v1h5.5
		C22.878,5,24,6.121,24,7.5v12c0,1.378-1.122,2.5-2.5,2.5H2.5z M2.5,6C1.673,6,1,6.673,1,7.5v12C1,20.327,1.673,21,2.5,21h19
		c0.827,0,1.5-0.673,1.5-1.5v-12C23,6.673,22.327,6,21.5,6H2.5z M15,5V4c0-0.551-0.448-1-1-1h-4C9.449,3,9,3.449,9,4v1H15z"/>
</g>
</svg>
