<?xml version="1.0" encoding="utf-8"?>
<!-- Generator: Adobe Illustrator 22.1.0, SVG Export Plug-In . SVG Version: 6.00 Build 0)  -->
<svg version="1.1" id="Light" xmlns="http://www.w3.org/2000/svg" xmlns:xlink="http://www.w3.org/1999/xlink" x="0px" y="0px"
	 viewBox="0 0 24 24" style="enable-background:new 0 0 24 24;" xml:space="preserve">
<g>
	<title>medical-specialty-feet</title>
	<path d="M15.5,23.999c-2.548-0.086-4.567-2.223-4.5-4.763l0-1.805c0-1.538-0.98-2.898-2.44-3.384l-0.436-0.146
		C6.256,13.279,5,11.537,5,9.568C5,7.049,7.049,5,9.568,5H12c4.399,0.013,7.987,3.601,8,7.999v6.251
		c0.067,2.53-1.944,4.663-4.483,4.75c-0.003,0-0.006,0-0.009,0S15.503,23.999,15.5,23.999z M9.568,6C7.601,6,6,7.6,6,9.568
		c0,1.538,0.98,2.899,2.44,3.384l0.437,0.146C10.745,13.721,12,15.462,12,17.432v1.818c-0.053,2.003,1.525,3.682,3.517,3.75
		c1.966-0.068,3.536-1.745,3.483-3.737V13c-0.011-3.848-3.152-6.989-7.002-7H9.568z"/>
	<path d="M6.5,5C5.122,5,4,3.878,4,2.5S5.122,0,6.5,0S9,1.121,9,2.5S7.879,5,6.5,5z M6.5,1C5.673,1,5,1.672,5,2.5S5.673,4,6.5,4
		S8,3.327,8,2.5S7.327,1,6.5,1z"/>
	<path d="M12,4c-1.103,0-2-0.897-2-2s0.897-2,2-2c1.103,0,2,0.897,2,2S13.103,4,12,4z M12,1c-0.551,0-1,0.449-1,1s0.449,1,1,1
		s1-0.449,1-1S12.552,1,12,1z"/>
	<path d="M17,5c-1.103,0-2-0.897-2-2s0.897-2,2-2s2,0.897,2,2S18.103,5,17,5z M17,2c-0.552,0-1,0.449-1,1s0.448,1,1,1s1-0.449,1-1
		S17.552,2,17,2z"/>
</g>
</svg>
