<?xml version="1.0" encoding="utf-8"?>
<!-- Generator: Adobe Illustrator 22.1.0, SVG Export Plug-In . SVG Version: 6.00 Build 0)  -->
<svg version="1.1" id="Light" xmlns="http://www.w3.org/2000/svg" xmlns:xlink="http://www.w3.org/1999/xlink" x="0px" y="0px"
	 viewBox="0 0 24 24" style="enable-background:new 0 0 24 24;" xml:space="preserve">
<g>
	<title>medical-specialty-back</title>
	<path d="M21,20c-1.654,0-3-1.346-3-3s1.346-3,3-3s3,1.346,3,3S22.654,20,21,20z M21,15c-1.103,0-2,0.897-2,2s0.897,2,2,2
		s2-0.897,2-2S22.103,15,21,15z"/>
	<path d="M12,6c-1.654,0-3-1.346-3-3s1.346-3,3-3c1.654,0,3,1.346,3,3S13.654,6,12,6z M12,1c-1.103,0-2,0.897-2,2s0.897,2,2,2
		s2-0.897,2-2S13.103,1,12,1z"/>
	<path d="M8.231,14.999c-0.625,0-1.213-0.332-1.534-0.867l-0.416-0.692c-0.527-0.877-0.643-1.937-0.32-2.908l0.38-1.14
		c0.477-1.432,1.811-2.394,3.32-2.394h4.676c1.509,0,2.843,0.962,3.32,2.393l0.38,1.14c0.323,0.97,0.207,2.03-0.319,2.907
		l-0.415,0.692c-0.321,0.535-0.909,0.867-1.534,0.867c-0.323,0-0.64-0.088-0.917-0.254c-0.844-0.507-1.119-1.606-0.613-2.451
		l0.819-1.53c0.087-0.163,0.256-0.264,0.441-0.264c0.082,0,0.163,0.02,0.236,0.059c0.243,0.13,0.335,0.434,0.205,0.677l-0.831,1.551
		c-0.232,0.388-0.114,0.877,0.258,1.1c0.122,0.073,0.261,0.112,0.403,0.112c0.276,0,0.535-0.146,0.676-0.382l0.415-0.692
		c0.376-0.626,0.459-1.383,0.228-2.077l-0.38-1.14c-0.341-1.022-1.294-1.709-2.372-1.709H9.662c-1.078,0-2.031,0.687-2.372,1.71
		l-0.38,1.14c-0.231,0.693-0.148,1.45,0.228,2.076l0.416,0.692c0.143,0.239,0.396,0.382,0.676,0.382
		c0.142,0,0.281-0.039,0.403-0.112c0.371-0.223,0.492-0.707,0.269-1.079l-0.844-1.573c-0.13-0.243-0.038-0.547,0.204-0.677
		c0.073-0.039,0.154-0.059,0.236-0.059c0.185,0,0.354,0.101,0.441,0.264l0.832,1.552c0.237,0.394,0.306,0.871,0.189,1.333
		S9.556,14.5,9.148,14.745C8.871,14.911,8.554,14.999,8.231,14.999z"/>
	<path d="M0.5,22C0.224,22,0,21.776,0,21.5S0.224,21,0.5,21H9c0.276,0,0.5,0.224,0.5,0.5S9.276,22,9,22H0.5z"/>
	<path d="M16.5,22c-0.276,0-0.5-0.224-0.5-0.5s0.224-0.5,0.5-0.5h7c0.276,0,0.5,0.224,0.5,0.5S23.776,22,23.5,22H16.5z"/>
	<path d="M12.496,24.002c-0.376,0-0.744-0.106-1.063-0.307c-0.453-0.285-0.768-0.729-0.887-1.251s-0.028-1.059,0.257-1.511
		l0.586-0.934H2c-1.103,0-2-0.897-2-2s0.897-2,2-2V14.5C2,14.224,2.224,14,2.5,14S3,14.224,3,14.5v1.499h1V14.5
		C4,14.224,4.224,14,4.5,14S5,14.224,5,14.5v1.499h6V14.5c0-0.276,0.224-0.5,0.5-0.5s0.5,0.224,0.5,0.5v1.499l2.989,0
		c0.379,0,0.748,0.105,1.066,0.303c0.938,0.585,1.226,1.824,0.642,2.762l-2.5,4C13.827,23.651,13.192,24.002,12.496,24.002z
		 M2,16.999c-0.551,0-1,0.448-1,1s0.449,1,1,1h10.293c0.182,0,0.35,0.099,0.438,0.258c0.088,0.159,0.083,0.353-0.013,0.507
		l-1.066,1.701c-0.143,0.227-0.189,0.496-0.129,0.757c0.06,0.261,0.217,0.484,0.444,0.626c0.16,0.101,0.344,0.154,0.532,0.154
		c0.348,0,0.667-0.175,0.851-0.469l2.5-3.999c0.141-0.227,0.186-0.496,0.125-0.758c-0.061-0.262-0.22-0.484-0.447-0.626
		c-0.159-0.099-0.348-0.152-0.547-0.152c-0.012,0-3.455,0-3.455,0C11.516,17,11.508,17,11.5,17s-0.016,0-0.024-0.001H4.524
		C4.516,17,4.508,17,4.5,17s-0.016,0-0.024-0.001H2.524C2.516,17,2.508,17,2.5,17s-0.016,0-0.024-0.001H2z"/>
</g>
</svg>
