<?xml version="1.0" encoding="utf-8"?>
<!-- Generator: Adobe Illustrator 22.1.0, SVG Export Plug-In . SVG Version: 6.00 Build 0)  -->
<svg version="1.1" id="Light" xmlns="http://www.w3.org/2000/svg" xmlns:xlink="http://www.w3.org/1999/xlink" x="0px" y="0px"
	 viewBox="0 0 24 24" style="enable-background:new 0 0 24 24;" xml:space="preserve">
<g>
	<title>medical-specialty</title>
	<path d="M12,14c-3.86,0-7-3.14-7-7s3.14-7,7-7s7,3.14,7,7S15.86,14,12,14z M12,1C8.692,1,6,3.692,6,7s2.692,6,6,6s6-2.692,6-6
		S15.308,1,12,1z"/>
	<path d="M10.5,11.5c-0.276,0-0.5-0.224-0.5-0.5s0.224-0.5,0.5-0.5h1v-2h-0.317c-0.586-0.001-1.135-0.229-1.546-0.642
		C9.225,7.445,8.999,6.896,9,6.313V5.914c0-0.778-0.303-1.51-0.854-2.06C8.052,3.759,8,3.634,8,3.5c0-0.134,0.052-0.259,0.147-0.354
		C8.241,3.052,8.366,3,8.5,3s0.259,0.052,0.354,0.146C9.593,3.886,10,4.869,10,5.914v0.4c-0.001,0.317,0.122,0.614,0.345,0.838
		c0.223,0.224,0.52,0.347,0.836,0.348H11.5V4H11c-0.276,0-0.5-0.224-0.5-0.5S10.724,3,11,3h2c0.276,0,0.5,0.224,0.5,0.5
		S13.276,4,13,4h-0.5v3.5h0.317C13.469,7.5,14,6.969,14,6.317v-0.4c0-1.046,0.407-2.028,1.146-2.767
		c0.094-0.094,0.22-0.146,0.354-0.146s0.259,0.052,0.354,0.146C15.948,3.244,16,3.369,16,3.503c0,0.134-0.052,0.259-0.146,0.354
		C15.303,4.407,15,5.139,15,5.917v0.4C15,7.521,14.021,8.5,12.817,8.5H12.5v2h1c0.276,0,0.5,0.224,0.5,0.5s-0.224,0.5-0.5,0.5H10.5z
		"/>
	<path d="M0.5,24C0.224,24,0,23.776,0,23.5S0.224,23,0.5,23h5C6.327,23,7,22.327,7,21.5v-2C7,18.673,6.327,18,5.5,18h-5
		C0.224,18,0,17.776,0,17.5S0.224,17,0.5,17H22c1.252,0,2,0.935,2,2.5v2c0,1.565-0.748,2.5-2,2.5H0.5z M22,23c0.247,0,1,0,1-1.5v-2
		c0-1.5-0.753-1.5-1-1.5h-2v5H22z M19,23v-5h-1v5H19z M17,23v-5h-3v5H17z M13,23v-5h-1v5H13z M11,23v-5H7.499
		C7.822,18.428,8,18.952,8,19.5v2c0,0.548-0.178,1.072-0.501,1.5H11z"/>
	<path d="M1.5,22C1.224,22,1,21.776,1,21.5S1.224,21,1.5,21h4C5.776,21,6,21.224,6,21.5S5.776,22,5.5,22H1.5z"/>
	<path d="M1.5,20C1.224,20,1,19.776,1,19.5S1.224,19,1.5,19h4C5.776,19,6,19.224,6,19.5S5.776,20,5.5,20H1.5z"/>
</g>
</svg>
