<?xml version="1.0" encoding="utf-8"?>
<!-- Generator: Adobe Illustrator 22.1.0, SVG Export Plug-In . SVG Version: 6.00 Build 0)  -->
<svg version="1.1" id="Light" xmlns="http://www.w3.org/2000/svg" xmlns:xlink="http://www.w3.org/1999/xlink" x="0px" y="0px"
	 viewBox="0 0 24 24" style="enable-background:new 0 0 24 24;" xml:space="preserve">
<g>
	<title>medical-specialty-stomach</title>
	<path d="M4.5,24C4.224,24,4,23.776,4,23.5V22c0.001-0.875,0.47-1.695,1.224-2.141c0.078-0.045,0.166-0.069,0.255-0.069
		c0.125,0,0.244,0.046,0.336,0.13c1.834,1.664,4.208,2.58,6.684,2.58C18.192,22.5,23,17.921,23,12.5C23,9.902,23,3,13.5,3
		C12.121,3,11,1.879,11,0.5C11,0.224,11.224,0,11.5,0S12,0.224,12,0.5C12,1.327,12.673,2,13.5,2C24,2,24,9.903,24,12.5
		c0,5.963-5.266,11-11.5,11c-2.583,0-5.075-0.91-7.046-2.567C5.168,21.212,5.001,21.598,5,22.001V23.5C5,23.776,4.776,24,4.5,24z"/>
	<path d="M0.5,24C0.224,24,0,23.776,0,23.5V21c0-2.772,2.464-4.047,5.072-5.397c3.414-1.767,7.276-3.766,6.921-9.603H11.5
		C9.019,6,7,3.981,7,1.5v-1C7,0.224,7.224,0,7.5,0S8,0.224,8,0.5v1C8,3.43,9.57,5,11.5,5h2C13.776,5,14,5.224,14,5.5
		S13.776,6,13.5,6h-0.509c0.364,6.442-3.969,8.685-7.459,10.491C3.1,17.75,1,18.836,1,21v2.5C1,23.776,0.776,24,0.5,24z"/>
</g>
</svg>
