<?xml version="1.0" encoding="utf-8"?>
<!-- Generator: Adobe Illustrator 22.1.0, SVG Export Plug-In . SVG Version: 6.00 Build 0)  -->
<svg version="1.1" id="Light" xmlns="http://www.w3.org/2000/svg" xmlns:xlink="http://www.w3.org/1999/xlink" x="0px" y="0px"
	 viewBox="0 0 24 24" style="enable-background:new 0 0 24 24;" xml:space="preserve">
<g>
	<title>medical-specialty-intestine</title>
	<path d="M13.608,22.995c-0.379,0-0.735-0.109-1.03-0.316c-0.787-0.552-0.979-1.642-0.427-2.43c0.011-0.015,0.021-0.028,0.031-0.039
		c0.853-0.981,2.064-1.592,3.352-1.699c0.144-1.033,0.736-1.94,1.624-2.489c-0.323-1.024-0.145-2.152,0.478-3.028
		c-0.861-1.204-0.86-2.799,0.002-4.002c-0.117-0.167-0.22-0.345-0.307-0.531c-0.551,0.343-1.176,0.527-1.826,0.533
		c-0.453-0.003-0.903-0.094-1.318-0.266c-0.238,0.287-0.523,0.538-0.835,0.734c-0.557,0.349-1.195,0.534-1.845,0.534
		c-0.263,0-0.527-0.03-0.786-0.089C9.969,9.734,9.299,9.32,8.813,8.731C8.39,8.91,7.943,9,7.483,9c-0.35,0-0.694-0.053-1.026-0.158
		C6.425,8.895,6.393,8.944,6.361,8.991c0.863,1.204,0.864,2.8,0.002,4.005c0.188,0.266,0.338,0.558,0.446,0.869
		C7.393,15.552,6.601,17.399,5,18.147v1.348c0,0.827-0.673,1.5-1.5,1.5S2,20.322,2,19.494v-1.348
		c-0.318-0.148-0.61-0.344-0.871-0.583c-0.685-0.626-1.084-1.481-1.125-2.408c-0.035-0.774,0.19-1.534,0.634-2.16
		c-0.861-1.203-0.861-2.799,0-4.002C0.227,8.412,0.002,7.71,0,6.996c-0.007-0.997,0.35-1.953,1.005-2.701
		C1.056,3.316,1.517,2.404,2.278,1.78c0.631-0.516,1.393-0.789,2.204-0.789c0.116,0,0.235,0.006,0.351,0.017
		C5.652,1.09,6.409,1.454,6.98,2.039c0.184-0.03,0.37-0.045,0.555-0.045c1.029,0,2.006,0.469,2.654,1.264
		c0.413-0.172,0.862-0.263,1.31-0.263s0.897,0.09,1.311,0.263c0.648-0.795,1.625-1.264,2.654-1.264c0.185,0,0.371,0.015,0.555,0.045
		c0.655-0.674,1.557-1.059,2.497-1.059c0.61,0,1.215,0.163,1.749,0.471c0.88,0.508,1.486,1.362,1.679,2.358
		c0.341,0.152,0.648,0.353,0.917,0.598c1.301,1.186,1.505,3.165,0.501,4.586c0.861,1.204,0.861,2.799,0,4.003
		c0.135,0.192,0.251,0.397,0.345,0.613c0.696,1.592,0.094,3.464-1.369,4.361c0.002,0.007,0.004,0.013,0.006,0.019
		c0.27,0.895,0.176,1.842-0.266,2.665c-0.442,0.824-1.178,1.427-2.073,1.697c-0.326,0.097-0.662,0.145-1,0.145l0,0
		c-0.637,0-1.26-0.173-1.806-0.502h-2.114c-0.003,0.007-0.006,0.014-0.01,0.023C14.82,22.614,14.244,22.995,13.608,22.995z
		 M12.957,20.843c-0.219,0.334-0.132,0.787,0.196,1.017c0.126,0.088,0.28,0.135,0.447,0.135c0.247,0,0.458-0.137,0.553-0.358
		c0.227-0.579,0.668-0.642,0.847-0.642h2.345c0.098,0,0.194,0.029,0.276,0.083c0.413,0.274,0.893,0.419,1.386,0.419
		c0.241,0,0.481-0.035,0.713-0.103c0.637-0.192,1.162-0.623,1.478-1.211c0.316-0.589,0.383-1.265,0.19-1.904
		c-0.034-0.113-0.077-0.225-0.127-0.334c-0.056-0.12-0.062-0.262-0.014-0.387c0.048-0.126,0.146-0.229,0.268-0.282
		c0.606-0.265,1.073-0.751,1.315-1.368c0.242-0.617,0.229-1.291-0.037-1.898c-0.109-0.249-0.257-0.477-0.44-0.678
		c-0.176-0.193-0.175-0.483,0.001-0.675c0.87-0.947,0.87-2.376,0-3.323c-0.177-0.192-0.177-0.482-0.001-0.675
		c0.923-1.013,0.85-2.589-0.164-3.512c-0.066-0.061-0.137-0.118-0.212-0.172c-0.063,0.437-0.209,0.862-0.431,1.246
		c-0.09,0.155-0.256,0.25-0.434,0.25c-0.087,0-0.173-0.023-0.249-0.067c-0.116-0.067-0.199-0.175-0.234-0.304
		c-0.034-0.129-0.017-0.264,0.05-0.38c0.249-0.432,0.362-0.922,0.326-1.419c-0.015-0.052-0.022-0.108-0.019-0.166
		c-0.016-0.117-0.035-0.215-0.059-0.306c-0.173-0.643-0.585-1.18-1.162-1.513c-0.382-0.22-0.813-0.337-1.249-0.337
		c-0.749,0-1.452,0.336-1.929,0.922c-0.095,0.117-0.236,0.184-0.387,0.184c-0.042,0-0.084-0.005-0.125-0.016
		c-0.2-0.051-0.406-0.077-0.611-0.077c-0.848,0-1.622,0.435-2.069,1.162c-0.092,0.149-0.251,0.238-0.426,0.238
		c-0.089,0-0.177-0.024-0.253-0.069c-0.368-0.216-0.789-0.331-1.217-0.331c-0.428,0-0.849,0.115-1.217,0.331
		c-0.077,0.045-0.165,0.069-0.253,0.069c-0.175,0-0.334-0.089-0.426-0.238C9.156,3.428,8.383,2.994,7.534,2.994
		c-0.205,0-0.41,0.026-0.611,0.077C6.883,3.081,6.841,3.086,6.8,3.086c-0.151,0-0.292-0.067-0.387-0.183
		c-0.421-0.514-1.017-0.834-1.678-0.9C4.65,1.995,4.566,1.991,4.483,1.991c-0.578,0-1.121,0.195-1.571,0.563
		C2.328,3.032,1.996,3.738,2,4.492C2,4.623,1.951,4.747,1.859,4.842C1.3,5.422,0.994,6.185,1,6.991
		c0.002,0.619,0.232,1.21,0.648,1.666C1.824,8.85,1.823,9.14,1.647,9.333c-0.87,0.948-0.87,2.376,0,3.323
		c0.177,0.193,0.177,0.483,0.001,0.676c-0.446,0.488-0.675,1.12-0.646,1.779c0.029,0.66,0.314,1.269,0.801,1.715
		c0.25,0.229,0.54,0.401,0.86,0.512C2.864,17.408,3,17.598,3,17.811v1.684c0,0.276,0.224,0.5,0.5,0.5S4,19.77,4,19.494v-1.684
		c0-0.213,0.135-0.403,0.336-0.473c1.289-0.446,1.974-1.857,1.528-3.146c-0.111-0.321-0.284-0.61-0.512-0.86
		c-0.176-0.193-0.176-0.483,0.001-0.676c0.87-0.947,0.87-2.376,0-3.324c-0.175-0.191-0.177-0.48-0.003-0.673
		c0.073-0.08,0.141-0.166,0.203-0.257C5.359,8.271,5.18,8.119,5.017,7.951C4.848,7.978,4.676,7.993,4.505,7.995
		C4.227,7.995,4.003,7.773,4,7.5C3.998,7.367,4.049,7.24,4.142,7.145c0.093-0.095,0.218-0.149,0.352-0.15
		C4.69,6.992,4.886,6.967,5.076,6.918c0.04-0.01,0.082-0.016,0.124-0.016c0.152,0,0.293,0.068,0.389,0.186
		C5.808,7.36,6.075,7.577,6.383,7.734c0.014,0.003,0.036,0.009,0.06,0.02c0.028,0.013,0.05,0.027,0.065,0.039
		c0.31,0.137,0.638,0.206,0.976,0.206c0.43,0,0.856-0.116,1.233-0.337C8.794,7.618,8.881,7.594,8.97,7.594
		c0.173,0,0.332,0.088,0.424,0.234c0.353,0.563,0.903,0.954,1.551,1.103c0.185,0.042,0.374,0.064,0.561,0.064
		c0.463,0,0.918-0.132,1.315-0.381c0.316-0.198,0.588-0.47,0.786-0.786c0.092-0.147,0.25-0.235,0.424-0.235
		c0.088,0,0.175,0.024,0.251,0.068c0.37,0.215,0.793,0.33,1.222,0.332c1.057-0.011,2.007-0.693,2.36-1.696
		c0.07-0.2,0.26-0.334,0.472-0.334c0.056,0,0.112,0.009,0.165,0.028c0.127,0.045,0.228,0.135,0.286,0.256
		c0.058,0.12,0.065,0.256,0.021,0.382c-0.148,0.422-0.374,0.807-0.672,1.146c0.112,0.33,0.288,0.632,0.514,0.882
		c0.175,0.193,0.174,0.482-0.002,0.674c-0.87,0.948-0.87,2.376,0,3.323c0.177,0.194,0.177,0.485,0,0.677
		c-0.68,0.738-0.841,1.801-0.409,2.707c0.058,0.121,0.064,0.262,0.018,0.388c-0.047,0.126-0.144,0.229-0.266,0.283
		c-0.903,0.4-1.488,1.296-1.489,2.282c0,0.133-0.054,0.262-0.149,0.356c-0.094,0.093-0.215,0.144-0.342,0.144l-0.097-0.001
		C14.79,19.493,13.714,19.985,12.957,20.843z"/>
</g>
</svg>
