<?xml version="1.0" encoding="utf-8"?>
<!-- Generator: Adobe Illustrator 22.1.0, SVG Export Plug-In . SVG Version: 6.00 Build 0)  -->
<svg version="1.1" id="Light" xmlns="http://www.w3.org/2000/svg" xmlns:xlink="http://www.w3.org/1999/xlink" x="0px" y="0px"
	 viewBox="0 0 24 24" style="enable-background:new 0 0 24 24;" xml:space="preserve">
<g>
	<title>medical-specialty-optometrist</title>
	<path d="M1.5,24c-0.821,0-1.494-0.668-1.5-1.49V1.493C0.006,0.669,0.679,0,1.5,0h16c0.821,0,1.494,0.668,1.5,1.489v8.446
		c0,0.276-0.224,0.5-0.5,0.5s-0.5-0.224-0.5-0.5V1.493C17.998,1.222,17.774,1,17.5,1h-16C1.226,1,1.002,1.223,1,1.497v21.01
		C1.002,22.778,1.226,23,1.5,23h16c0.274,0,0.498-0.223,0.5-0.496v-5.617c0-0.276,0.224-0.5,0.5-0.5s0.5,0.224,0.5,0.5v5.62
		C18.994,23.331,18.321,24,17.5,24H1.5z"/>
	<path d="M9,12c-1.103,0-2-0.897-2-2V5c0-1.103,0.897-2,2-2h2.5C11.776,3,12,3.224,12,3.5S11.776,4,11.5,4H9C8.449,4,8,4.449,8,5v2
		h2c0.276,0,0.5,0.224,0.5,0.5S10.276,8,10,8H8v2c0,0.551,0.449,1,1,1h2.5c0.276,0,0.5,0.224,0.5,0.5S11.776,12,11.5,12H9z"/>
	<path d="M23.5,19c-0.134,0-0.259-0.052-0.354-0.146l-9.5-9.5C13.552,9.259,13.5,9.134,13.5,9s0.052-0.259,0.146-0.354
		S13.866,8.5,14,8.5s0.259,0.052,0.354,0.146l9.5,9.5C23.948,18.241,24,18.366,24,18.5s-0.052,0.259-0.146,0.354S23.634,19,23.5,19z
		"/>
	<path d="M3.5,15C3.224,15,3,14.776,3,14.5S3.224,14,3.5,14h12c0.276,0,0.5,0.224,0.5,0.5S15.776,15,15.5,15H3.5z"/>
	<path d="M4.5,21C4.224,21,4,20.776,4,20.5V18H3.5C3.224,18,3,17.776,3,17.5S3.224,17,3.5,17h2C5.776,17,6,17.224,6,17.5
		S5.776,18,5.5,18H5v2.5C5,20.776,4.776,21,4.5,21z"/>
	<path d="M9.5,21C8.673,21,8,20.327,8,19.5v-1C8,17.673,8.673,17,9.5,17s1.5,0.673,1.5,1.5v1C11,20.327,10.327,21,9.5,21z M9.5,18
		C9.224,18,9,18.224,9,18.5v1C9,19.776,9.224,20,9.5,20s0.5-0.224,0.5-0.5v-1C10,18.224,9.776,18,9.5,18z"/>
	<path d="M14,21c-0.313,0-0.613-0.15-0.8-0.401c-0.16-0.213-0.228-0.476-0.19-0.741c0.038-0.264,0.176-0.498,0.39-0.659L15,18h-1.5
		c-0.276,0-0.5-0.224-0.5-0.5s0.224-0.5,0.5-0.5H15c0.552,0,1,0.448,1,1c0,0.313-0.15,0.613-0.4,0.8L14,20h1.5
		c0.276,0,0.5,0.224,0.5,0.5S15.776,21,15.5,21H14z"/>
</g>
</svg>
