<?xml version="1.0" encoding="utf-8"?>
<!-- Generator: Adobe Illustrator 22.1.0, SVG Export Plug-In . SVG Version: 6.00 Build 0)  -->
<svg version="1.1" id="Light" xmlns="http://www.w3.org/2000/svg" xmlns:xlink="http://www.w3.org/1999/xlink" x="0px" y="0px"
	 viewBox="0 0 24 24" style="enable-background:new 0 0 24 24;" xml:space="preserve">
<g>
	<title>medical-specialty-heart</title>
	<path d="M7.929,4.545c-0.024,0-0.047-0.002-0.071-0.005C7.705,4.518,7.573,4.428,7.496,4.295L6.027,1.752
		c-0.067-0.116-0.085-0.25-0.05-0.379C6.012,1.243,6.095,1.135,6.21,1.069c0.075-0.044,0.162-0.067,0.25-0.067
		c0.178,0,0.344,0.096,0.433,0.25l1.173,2.03c0.62-0.45,1.336-0.737,2.096-0.839v-1.94c0-0.276,0.224-0.5,0.5-0.5s0.5,0.224,0.5,0.5
		v2.4c0,0.272-0.213,0.491-0.485,0.5C9.778,3.429,8.925,3.786,8.274,4.406C8.181,4.496,8.058,4.545,7.929,4.545z"/>
	<path d="M14.161,7.502c-0.168,0-0.323-0.083-0.416-0.223c-0.714-1.072-0.748-2.478-0.084-3.582l0.171-0.284
		c-0.063-0.005-0.125-0.009-0.188-0.011c-0.271-0.01-0.483-0.229-0.483-0.5v-2.4c0-0.276,0.224-0.5,0.5-0.5s0.5,0.224,0.5,0.5v1.942
		c0.526,0.073,1.026,0.235,1.494,0.482l0.68-2.08c0.067-0.206,0.258-0.345,0.475-0.345c0.053,0,0.105,0.008,0.156,0.025
		c0.127,0.042,0.23,0.13,0.291,0.249c0.06,0.119,0.071,0.255,0.029,0.382l-0.878,2.686c-0.05,0.152-0.17,0.272-0.322,0.321
		c-0.049,0.016-0.101,0.024-0.153,0.024c-0.107,0-0.209-0.033-0.295-0.096c-0.243-0.178-0.506-0.324-0.786-0.435l-0.333,0.556
		c-0.465,0.775-0.442,1.761,0.059,2.513c0.074,0.111,0.101,0.245,0.074,0.375c-0.026,0.131-0.102,0.244-0.213,0.318
		C14.356,7.473,14.26,7.502,14.161,7.502z"/>
	<path d="M12.171,24.006c-0.378,0-0.76-0.042-1.134-0.126c-1.339-0.301-2.48-1.104-3.214-2.263c-0.014-0.022-0.026-0.045-0.037-0.07
		l-3.469-7.981c-0.135-0.312-0.252-0.641-0.346-0.979c-0.004-0.01-0.008-0.021-0.011-0.03c-0.003-0.012-0.006-0.027-0.008-0.042
		c-0.597-2.198-0.182-4.519,1.14-6.382L3.429,3.252C3.291,3.013,3.374,2.706,3.612,2.569c0.076-0.044,0.162-0.067,0.25-0.067
		c0.178,0,0.344,0.096,0.433,0.25l1.828,3.166C6.225,6.095,6.21,6.314,6.085,6.475c-1.18,1.517-1.637,3.443-1.271,5.323
		c0.239-0.066,0.457-0.126,0.654-0.18c1.703-0.463,1.894-0.516,2.812-1.658c0.034-0.08,0.09-0.15,0.161-0.203
		c0.119-0.15,0.246-0.313,0.39-0.497c0.282-0.362,0.617-0.791,1.026-1.303c0.095-0.119,0.237-0.188,0.39-0.188
		c0.113,0,0.224,0.039,0.312,0.11c0.104,0.083,0.17,0.202,0.185,0.335s-0.023,0.263-0.107,0.368c-0.4,0.499-0.728,0.92-1.005,1.276
		C9.522,10,9.426,10.122,9.337,10.235l0.771,1.543c0.123,0.247,0.023,0.548-0.224,0.671c-0.069,0.034-0.146,0.053-0.223,0.053
		c-0.191,0-0.362-0.106-0.448-0.276l-0.571-1.141c-0.824,0.931-1.311,1.063-2.912,1.499c-0.198,0.054-0.415,0.113-0.654,0.179
		c0.051,0.146,0.103,0.281,0.157,0.406l1.486,3.419l2.522,0.421c0.132,0.022,0.247,0.094,0.325,0.203
		c0.078,0.109,0.108,0.241,0.086,0.373c-0.04,0.242-0.248,0.418-0.493,0.418c-0.028,0-0.056-0.002-0.085-0.007l-1.88-0.314
		l1.492,3.433c0.765,1.184,2.064,1.889,3.48,1.889c0.781,0,1.544-0.221,2.206-0.641c0.502-0.318,0.937-0.749,1.26-1.249l0.323-0.743
		l-0.656-0.132c-0.924-0.184-1.731-0.753-2.215-1.562l-0.854-1.417c-0.142-0.236-0.066-0.544,0.17-0.687
		c0.078-0.047,0.167-0.072,0.258-0.072c0.174,0,0.338,0.093,0.428,0.242l0.855,1.419c0.339,0.567,0.906,0.967,1.554,1.096
		l0.867,0.174l2.723-6.264c0.296-0.683,0.472-1.411,0.524-2.167h-1.774c-0.627,0-1.217,0.244-1.66,0.688l-1.163,1.166
		c-0.094,0.095-0.22,0.147-0.354,0.147c-0.133,0-0.258-0.052-0.353-0.146c-0.095-0.094-0.147-0.22-0.147-0.353
		s0.052-0.259,0.146-0.354l1.163-1.166c0.633-0.633,1.474-0.981,2.368-0.981h1.769c-0.115-1.417-0.677-2.768-1.599-3.827
		c-0.115-0.132-0.153-0.317-0.098-0.484l1.277-3.91c0.067-0.206,0.258-0.345,0.474-0.345c0.053,0,0.106,0.009,0.156,0.025
		c0.127,0.041,0.23,0.13,0.29,0.249c0.061,0.119,0.071,0.255,0.029,0.382l-1.19,3.646c1.064,1.321,1.661,2.982,1.685,4.696
		c0.003,0.012,0.008,0.037,0.008,0.067c0,0.029-0.004,0.054-0.008,0.072c-0.004,1.042-0.214,2.049-0.624,2.993l-3.47,7.982
		c-0.01,0.022-0.021,0.045-0.035,0.067c-0.405,0.639-0.954,1.189-1.591,1.592C14.084,23.73,13.138,24.006,12.171,24.006z"/>
</g>
</svg>
