<?xml version="1.0" encoding="utf-8"?>
<!-- Generator: Adobe Illustrator 22.1.0, SVG Export Plug-In . SVG Version: 6.00 Build 0)  -->
<svg version="1.1" id="Light" xmlns="http://www.w3.org/2000/svg" xmlns:xlink="http://www.w3.org/1999/xlink" x="0px" y="0px"
	 viewBox="0 0 24 24" style="enable-background:new 0 0 24 24;" xml:space="preserve">
<g>
	<title>medical-specialty-vertebra</title>
	<path d="M12.128,6.484c-0.048,0-0.097-0.001-0.145-0.003c-0.028,0.001-0.072,0.002-0.117,0.002c-1.393,0-2.687-0.726-3.419-1.907
		L6.24,4.923C6.162,4.936,6.083,4.942,6.004,4.942c-0.732,0-1.371-0.547-1.485-1.271C4.39,2.851,4.952,2.079,5.771,1.95l2.556-0.403
		c0.28-0.554,0.699-1.024,1.218-1.365C9.709,0.073,9.9,0.016,10.097,0.016c0.166,0,0.33,0.042,0.477,0.12
		c0.416,0.208,0.894,0.319,1.373,0.319l0.104,0c0.48,0,0.96-0.114,1.39-0.329c0.137-0.073,0.297-0.113,0.459-0.113
		c0.199,0,0.393,0.059,0.559,0.17c0.518,0.34,0.936,0.81,1.215,1.363l2.556,0.403c0.404,0.066,0.755,0.281,0.989,0.606
		s0.328,0.722,0.264,1.117c-0.116,0.736-0.742,1.271-1.489,1.271c-0.077,0-0.155-0.006-0.232-0.018l-2.208-0.347
		C14.821,5.758,13.524,6.484,12.128,6.484z M12.115,5.484c1.164,0,2.208-0.642,2.725-1.676c0.084-0.168,0.262-0.277,0.454-0.277
		c0.027,0,0.055,0.002,0.082,0.007l2.541,0.4c0.026,0.004,0.052,0.006,0.079,0.006c0.25,0,0.46-0.18,0.499-0.429
		c0-0.002,0-0.003,0.001-0.005c0.021-0.131-0.011-0.262-0.088-0.37c-0.078-0.109-0.194-0.18-0.325-0.202L15.26,2.493
		c-0.18-0.028-0.342-0.163-0.403-0.334c-0.189-0.461-0.519-0.859-0.95-1.142c-0.584,0.287-1.221,0.438-1.854,0.438l-0.113,0
		c-0.63,0-1.261-0.149-1.827-0.432C9.663,1.3,9.332,1.702,9.136,2.18C9.07,2.341,8.916,2.464,8.745,2.493L5.927,2.937
		c-0.133,0.021-0.25,0.093-0.33,0.202C5.518,3.249,5.486,3.382,5.507,3.515c0.021,0.133,0.093,0.25,0.202,0.33
		c0.087,0.063,0.189,0.097,0.296,0.097c0.026,0,0.053-0.002,0.08-0.006l2.544-0.4c0.024-0.004,0.051-0.006,0.078-0.006
		c0.193,0,0.371,0.109,0.455,0.277c0.509,1.019,1.573,1.677,2.713,1.677c0.036,0,0.115-0.002,0.118-0.002S12.077,5.484,12.115,5.484
		z"/>
	<path d="M12.128,15.234c-0.049,0-0.097-0.001-0.146-0.003c-0.029,0.002-0.076,0.003-0.123,0.003c-1.388,0-2.68-0.727-3.412-1.907
		L6.24,13.674c-0.078,0.012-0.157,0.018-0.236,0.018l0,0c-0.319,0-0.625-0.1-0.884-0.288c-0.325-0.237-0.539-0.585-0.601-0.983
		c-0.062-0.397,0.033-0.794,0.27-1.12s0.586-0.539,0.982-0.602l2.556-0.403c0.28-0.553,0.699-1.021,1.218-1.362
		C9.708,8.826,9.9,8.767,10.099,8.767c0.164,0,0.327,0.041,0.472,0.118c0.444,0.213,0.927,0.323,1.427,0.323
		c0.503,0,0.991-0.112,1.45-0.332c0.131-0.07,0.29-0.109,0.451-0.109c0.2,0,0.394,0.059,0.56,0.17
		c0.517,0.339,0.935,0.807,1.214,1.359l2.556,0.403c0.018,0.003,0.035,0.007,0.053,0.011c0.787,0.153,1.324,0.918,1.2,1.712
		c-0.116,0.737-0.741,1.271-1.487,1.271c-0.078,0-0.156-0.006-0.234-0.018l-2.207-0.347C14.821,14.508,13.524,15.234,12.128,15.234
		L12.128,15.234z M12.108,14.234c1.168,0,2.215-0.642,2.732-1.676c0.084-0.168,0.263-0.276,0.456-0.276
		c0.025,0,0.051,0.002,0.076,0.006l2.544,0.4c0.028,0.005,0.054,0.007,0.081,0.007c0.106,0,0.208-0.033,0.295-0.097
		c0.109-0.079,0.181-0.197,0.201-0.33c0.021-0.133-0.011-0.267-0.091-0.376c-0.08-0.109-0.197-0.181-0.329-0.202
		c-0.014-0.002-0.029-0.005-0.043-0.009l-2.77-0.437c-0.18-0.028-0.342-0.163-0.403-0.334c-0.189-0.459-0.519-0.857-0.95-1.139
		c-0.617,0.291-1.254,0.437-1.909,0.437c-0.652,0-1.284-0.145-1.878-0.43c0,0-0.024-0.008-0.024-0.008
		c-0.432,0.283-0.764,0.685-0.96,1.161c-0.066,0.161-0.22,0.284-0.391,0.312l-2.817,0.445c-0.275,0.043-0.464,0.303-0.42,0.578
		c0.021,0.133,0.093,0.25,0.202,0.33c0.087,0.064,0.189,0.097,0.294,0.097c0.027,0,0.053-0.002,0.08-0.007l2.545-0.4
		c0.026-0.004,0.051-0.006,0.076-0.006c0.194,0,0.373,0.109,0.457,0.277c0.509,1.018,1.581,1.677,2.733,1.677
		c0.03,0,0.095-0.001,0.098-0.001C11.994,14.232,12.072,14.234,12.108,14.234z"/>
	<path d="M11.844,23.984c-1.38,0-2.667-0.728-3.398-1.911L6.24,22.421c-0.078,0.012-0.158,0.018-0.236,0.018
		c-0.319,0-0.625-0.1-0.884-0.288c-0.325-0.237-0.538-0.585-0.601-0.983c-0.129-0.82,0.433-1.592,1.252-1.721l2.556-0.403
		c0.28-0.553,0.699-1.022,1.218-1.362c0.163-0.109,0.355-0.167,0.554-0.167c0.164,0,0.327,0.041,0.471,0.117
		c0.444,0.213,0.927,0.323,1.427,0.323c0.503,0,0.991-0.112,1.45-0.332c0.131-0.07,0.29-0.109,0.451-0.109
		c0.2,0,0.394,0.059,0.561,0.17c0.517,0.34,0.936,0.809,1.215,1.362l2.556,0.404c0.02,0.003,0.042,0.008,0.064,0.014
		c0.356,0.065,0.691,0.276,0.918,0.589c0.236,0.325,0.332,0.722,0.27,1.12c-0.116,0.737-0.742,1.271-1.488,1.271c0,0,0,0,0,0
		c-0.077,0-0.156-0.006-0.233-0.018l-2.208-0.347c-0.733,1.179-2.029,1.905-3.426,1.906c-0.049,0-0.097-0.001-0.146-0.003
		C11.949,23.983,11.897,23.984,11.844,23.984z M12.114,22.984c1.165,0,2.209-0.642,2.726-1.676c0.084-0.168,0.262-0.277,0.455-0.277
		c0.026,0,0.052,0.002,0.078,0.006l2.543,0.4c0.027,0.004,0.054,0.007,0.081,0.007c0.106,0,0.208-0.033,0.295-0.097
		c0.109-0.079,0.181-0.197,0.201-0.33c0.021-0.133-0.011-0.267-0.091-0.376c-0.08-0.109-0.197-0.181-0.329-0.202
		c-0.015-0.002-0.029-0.006-0.043-0.009l-2.771-0.438c-0.181-0.028-0.344-0.164-0.405-0.337c-0.188-0.457-0.518-0.855-0.948-1.138
		c-0.617,0.29-1.254,0.437-1.91,0.437c-0.652,0-1.284-0.145-1.878-0.43l-0.024-0.008c-0.432,0.283-0.764,0.685-0.96,1.161
		c-0.064,0.156-0.213,0.278-0.38,0.31l-2.829,0.446c-0.275,0.043-0.464,0.303-0.42,0.578c0.021,0.133,0.093,0.25,0.202,0.33
		c0.087,0.063,0.189,0.097,0.295,0.097c0.026,0,0.053-0.002,0.08-0.007l2.544-0.4c0.025-0.004,0.051-0.006,0.076-0.006
		c0.193,0,0.373,0.109,0.457,0.277c0.508,1.021,1.579,1.68,2.728,1.68c0.031,0,0.1-0.001,0.102-0.001
		C11.994,22.982,12.076,22.984,12.114,22.984z"/>
</g>
</svg>
