<?xml version="1.0" encoding="utf-8"?>
<!-- Generator: Adobe Illustrator 22.1.0, SVG Export Plug-In . SVG Version: 6.00 Build 0)  -->
<svg version="1.1" id="Light" xmlns="http://www.w3.org/2000/svg" xmlns:xlink="http://www.w3.org/1999/xlink" x="0px" y="0px"
	 viewBox="0 0 24 24" style="enable-background:new 0 0 24 24;" xml:space="preserve">
<g>
	<title>glasses</title>
	<path d="M16.499,22.5c-1.378,0-2.5-1.122-2.5-2.5v-3.024C13.987,15.887,13.091,15,12,15c-1.103,0-2,0.897-2,2
		c0,0.007,0,0.014-0.001,0.021V20c0,1.378-1.121,2.5-2.5,2.5h-5c-1.379,0-2.5-1.122-2.5-2.5v-4c0-0.006,0.001-0.022,0.001-0.029
		L0,4.5c0-1.654,1.346-3,3-3c0.276,0,0.5,0.224,0.5,0.5S3.276,2.5,3,2.5c-1.103,0-2,0.897-2,2v9.501
		C1.429,13.678,1.951,13.5,2.499,13.5h5c0.992,0,1.886,0.602,2.282,1.485C10.346,14.361,11.146,14,12,14
		c0.854,0,1.653,0.361,2.217,0.983c0.397-0.882,1.291-1.483,2.281-1.483h5c0.549,0,1.073,0.178,1.501,0.502V4.5c0-1.103-0.897-2-2-2
		c-0.276,0-0.5-0.224-0.5-0.5s0.224-0.5,0.5-0.5c1.654,0,3,1.346,3,3V16c0,0.008,0,0.016-0.001,0.024V20c0,1.378-1.122,2.5-2.5,2.5
		H16.499z M14.999,20c0,0.827,0.673,1.5,1.5,1.5h5c0.827,0,1.5-0.673,1.5-1.5v-4c0-0.827-0.673-1.5-1.5-1.5h-5
		c-0.827,0-1.5,0.673-1.5,1.5c0,0,0,0.999,0,1.008V20z M0.999,20c0,0.827,0.673,1.5,1.5,1.5h5c0.827,0,1.5-0.673,1.5-1.5v-4
		c0-0.827-0.673-1.5-1.5-1.5h-5c-0.818,0-1.49,0.666-1.499,1.483c0,0.006,0,0.014-0.001,0.022V20z"/>
</g>
</svg>
