<?xml version="1.0" encoding="utf-8"?>
<!-- Generator: Adobe Illustrator 22.1.0, SVG Export Plug-In . SVG Version: 6.00 Build 0)  -->
<svg version="1.1" id="Light" xmlns="http://www.w3.org/2000/svg" xmlns:xlink="http://www.w3.org/1999/xlink" x="0px" y="0px"
	 viewBox="0 0 24 24" style="enable-background:new 0 0 24 24;" xml:space="preserve">
<g>
	<title>glasses-ski-2</title>
	<path d="M16.034,17.75c-1.125,0-1.587-1.135-2.033-2.232c-0.475-1.166-0.924-2.268-2.009-2.268s-1.533,1.102-2.008,2.268
		C9.537,16.615,9.075,17.75,7.95,17.75c-0.168,0-4.132-0.01-5.974-0.932c-1.048-0.525-1.713-2.692-1.975-6.441
		c-0.068-0.981,0.447-1.914,1.314-2.378C3.286,6.937,7.48,6.25,12,6.25c4.518,0,8.712,0.687,10.684,1.75
		c0.002,0.001,0.004,0.002,0.006,0.004c0.856,0.469,1.363,1.401,1.292,2.375c-0.255,3.745-0.92,5.912-1.975,6.44
		C20.166,17.74,16.202,17.75,16.034,17.75z M11.992,12.25c1.757,0,2.438,1.67,2.934,2.89c0.337,0.828,0.655,1.61,1.108,1.61
		c0.039,0,3.895-0.01,5.526-0.826c0.537-0.268,1.186-2.109,1.425-5.616c0.043-0.587-0.262-1.148-0.777-1.429
		C20.372,7.89,16.364,7.25,12,7.25c-4.366,0-8.375,0.64-10.212,1.63c-0.521,0.279-0.83,0.839-0.789,1.427
		c0.262,3.75,0.932,5.369,1.425,5.616C4.055,16.74,7.911,16.75,7.95,16.75c0.452,0,0.771-0.781,1.107-1.609
		C9.554,13.921,10.235,12.25,11.992,12.25z"/>
</g>
</svg>
