<?xml version="1.0" encoding="utf-8"?>
<!-- Generator: Adobe Illustrator 22.1.0, SVG Export Plug-In . SVG Version: 6.00 Build 0)  -->
<svg version="1.1" id="Light" xmlns="http://www.w3.org/2000/svg" xmlns:xlink="http://www.w3.org/1999/xlink" x="0px" y="0px"
	 viewBox="0 0 24 24" style="enable-background:new 0 0 24 24;" xml:space="preserve">
<g>
	<title>glasses-sun</title>
	<path d="M4.698,16.77c-2.413,0-4.474-1.891-4.693-4.306c-0.025-0.278-0.026-0.559-0.002-0.836
		c-0.001-0.861,0.356-1.837,0.955-2.587c0.664-0.832,1.523-1.29,2.418-1.29h4.9c0.552,0,1.084,0.298,1.506,0.831
		C10.215,7.78,11.07,7.252,12,7.252c0.124,0,0.249,0.009,0.372,0.027c0.806,0.12,1.481,0.603,1.851,1.298
		c0.421-0.53,0.952-0.826,1.503-0.826h4.9c1.901,0,3.375,2.107,3.375,3.92c0.022,0.233,0.021,0.514-0.003,0.79
		c-0.219,2.416-2.288,4.308-4.712,4.308c-0.144,0-0.289-0.007-0.43-0.019c-0.001,0-0.002,0-0.002,0
		c-3.194,0-5.353-2.041-5.353-5.078V9.516c-0.111-0.65-0.622-1.15-1.276-1.247C12.15,8.257,12.075,8.252,12,8.252
		c-0.734,0-1.375,0.542-1.5,1.264v2.155c0,3.039-2.17,5.08-5.4,5.08C4.981,16.763,4.838,16.77,4.698,16.77z M3.376,8.751
		c-1.279,0-2.375,1.606-2.375,2.92c-0.021,0.258-0.02,0.481,0,0.702c0.173,1.904,1.804,3.396,3.714,3.396
		c0.113,0,0.227-0.005,0.341-0.016c2.709-0.002,4.445-1.604,4.445-4.082v-1.15c0-0.811-0.664-1.77-1.225-1.77H3.376z M15.726,8.751
		c-0.561,0-1.225,0.959-1.225,1.77v1.15c0,2.479,1.727,4.08,4.4,4.08c0.136,0.011,0.249,0.016,0.362,0.016
		c1.956,0,3.563-1.46,3.739-3.396c0.02-0.219,0.02-0.44,0.001-0.657c-0.002-1.354-1.062-2.963-2.377-2.963H15.726z"/>
</g>
</svg>
