<?xml version="1.0" encoding="utf-8"?>
<!-- Generator: Adobe Illustrator 22.1.0, SVG Export Plug-In . SVG Version: 6.00 Build 0)  -->
<svg version="1.1" id="Light" xmlns="http://www.w3.org/2000/svg" xmlns:xlink="http://www.w3.org/1999/xlink" x="0px" y="0px"
	 viewBox="0 0 24 24" style="enable-background:new 0 0 24 24;" xml:space="preserve">
<g>
	<title>glasses-monocle-moustache</title>
	<path d="M15.999,11c-3.033,0-5.5-2.467-5.5-5.5s2.467-5.5,5.5-5.5s5.5,2.467,5.5,5.5S19.032,11,15.999,11z M15.999,1
		c-2.481,0-4.5,2.019-4.5,4.5s2.019,4.5,4.5,4.5s4.5-2.019,4.5-4.5S18.48,1,15.999,1z"/>
	<path d="M23.499,24c-0.276,0-0.5-0.224-0.5-0.5V6.439c0-0.276,0.224-0.5,0.5-0.5s0.5,0.224,0.5,0.5V23.5
		C23.999,23.776,23.775,24,23.499,24z"/>
	<path d="M4.192,23.977c-1.391,0-2.711-0.445-3.818-1.287c-0.281-0.235-0.414-0.576-0.366-0.919c0.037-0.264,0.175-0.499,0.388-0.66
		c0.175-0.132,0.383-0.201,0.602-0.201c0.046,0,0.092,0.003,0.138,0.009c0.106,0.015,0.213,0.022,0.319,0.022
		c0.608,0,1.179-0.237,1.609-0.667c0.43-0.43,0.666-1.001,0.666-1.609c-0.01-0.92,0.376-1.806,1.06-2.428
		c0.598-0.545,1.371-0.844,2.174-0.844c0.053,0,0.107,0.001,0.161,0.004c0.686,0.032,1.344,0.282,1.876,0.709
		c0.575-0.459,1.292-0.71,2.043-0.71c1.804,0.019,3.243,1.488,3.224,3.276c0,0.101,0.008,0.207,0.022,0.311
		c0.157,1.117,1.126,1.959,2.253,1.959c0.106,0,0.213-0.008,0.318-0.022c0.046-0.006,0.091-0.009,0.135-0.009
		c0.396,0,0.755,0.233,0.916,0.593c0.181,0.404,0.07,0.886-0.268,1.172c-0.103,0.079-0.188,0.141-0.275,0.2
		c-1.053,0.721-2.284,1.102-3.559,1.102c0,0,0,0,0,0c-1.874,0-3.609-0.801-4.81-2.208C7.799,23.176,6.064,23.977,4.192,23.977
		L4.192,23.977z M1,21.909c0.916,0.697,2.023,1.069,3.189,1.069c1.682,0,3.229-0.765,4.243-2.098
		c0.054-0.071,0.105-0.142,0.155-0.215C8.68,20.529,8.834,20.447,9,20.447c0.165,0,0.319,0.081,0.413,0.218
		c0.991,1.448,2.635,2.312,4.396,2.312c1.073,0,2.109-0.321,2.996-0.928c0.063-0.043,0.125-0.088,0.187-0.134
		c-0.148,0.016-0.3,0.027-0.45,0.027c-1.622,0-3.016-1.212-3.242-2.82c-0.021-0.151-0.032-0.304-0.032-0.456
		c0.013-1.24-0.982-2.258-2.219-2.27c0,0-0.001,0-0.001,0c-0.652,0-1.256,0.267-1.679,0.731C9.275,17.23,9.14,17.29,9,17.29
		s-0.275-0.06-0.37-0.163c-0.403-0.443-0.954-0.703-1.553-0.731c-0.037-0.002-0.073-0.003-0.11-0.003
		c-0.556,0-1.091,0.207-1.505,0.584c-0.473,0.431-0.74,1.044-0.733,1.684c0,0.879-0.34,1.702-0.959,2.321
		C3.153,21.6,2.33,21.941,1.455,21.941C1.304,21.941,1.151,21.93,1,21.909z"/>
	<path d="M16,9c-0.276,0-0.5-0.224-0.5-0.5S15.724,8,16,8c1.378,0,2.5-1.121,2.5-2.5C18.5,5.224,18.724,5,19,5s0.5,0.224,0.5,0.5
		C19.5,7.43,17.93,9,16,9z"/>
	<path d="M23.25,4.75c-0.199,0-0.387-0.077-0.528-0.218c-0.142-0.141-0.221-0.329-0.222-0.53c0-0.411,0.332-0.748,0.741-0.753
		c0.002,0,0.005,0,0.007,0c0.201,0,0.389,0.077,0.53,0.218c0.142,0.141,0.221,0.329,0.222,0.53c0.001,0.413-0.333,0.751-0.747,0.753
		c0,0-0.001,0-0.001,0H23.25z"/>
</g>
</svg>
