<?xml version="1.0" encoding="utf-8"?>
<!-- Generator: Adobe Illustrator 22.1.0, SVG Export Plug-In . SVG Version: 6.00 Build 0)  -->
<svg version="1.1" id="Light" xmlns="http://www.w3.org/2000/svg" xmlns:xlink="http://www.w3.org/1999/xlink" x="0px" y="0px"
	 viewBox="0 0 24 24" style="enable-background:new 0 0 24 24;" xml:space="preserve">
<g>
	<title>glasses-sun-circle</title>
	<path d="M17.749,19.626c-2.619,0-4.75-2.131-4.75-4.75c-0.002-0.554-0.451-1-0.999-1c-0.551,0-1,0.448-1,1
		c0,0.009-0.001,0.019-0.002,0.029c-0.008,2.598-2.137,4.721-4.749,4.721c-2.438,0-4.466-1.848-4.718-4.25H0.499
		c-0.276,0-0.5-0.224-0.5-0.5s0.224-0.5,0.5-0.5h1.032c0.252-2.402,2.28-4.25,4.718-4.25c0.397,0,0.799,0.053,1.196,0.157
		l3.55-2.037L6.227,5.511C6.075,5.423,5.903,5.377,5.729,5.377c-0.357,0-0.69,0.191-0.868,0.499c-0.089,0.154-0.255,0.25-0.433,0.25
		c-0.087,0-0.174-0.023-0.25-0.067C3.939,5.921,3.857,5.615,3.995,5.376C4.351,4.76,5.016,4.377,5.73,4.377
		c0.349,0,0.693,0.092,0.996,0.267l5.273,3.026l5.275-3.026c0.302-0.174,0.646-0.266,0.994-0.266c0.714,0,1.378,0.383,1.735,0.998
		c0.138,0.238,0.056,0.545-0.182,0.683c-0.077,0.044-0.163,0.067-0.251,0.067c-0.178,0-0.344-0.096-0.433-0.25
		c-0.178-0.307-0.511-0.499-0.868-0.499c-0.174,0-0.345,0.046-0.497,0.133l-4.769,2.736l3.55,2.037
		c0.397-0.104,0.799-0.157,1.196-0.157c2.438,0,4.466,1.848,4.718,4.25h1.032c0.276,0,0.5,0.224,0.5,0.5s-0.224,0.5-0.5,0.5h-1.032
		C22.215,17.778,20.187,19.626,17.749,19.626z M13.999,14.88c0.002,2.065,1.684,3.746,3.75,3.746c2.068,0,3.75-1.682,3.75-3.75
		s-1.682-3.75-3.75-3.75c-2.062,0-3.744,1.678-3.75,3.741C14,14.871,14,14.876,13.999,14.88L13.999,14.88z M6.249,11.126
		c-2.068,0-3.75,1.682-3.75,3.75s1.682,3.75,3.75,3.75s3.75-1.682,3.75-3.75S8.317,11.126,6.249,11.126z M8.616,10.764
		c0.986,0.571,1.745,1.49,2.119,2.566c0.354-0.292,0.797-0.453,1.265-0.453c0.468,0,0.91,0.161,1.264,0.452
		c0.374-1.074,1.133-1.993,2.118-2.564l-3.383-1.941L8.616,10.764z"/>
</g>
</svg>
