<?xml version="1.0" encoding="utf-8"?>
<!-- Generator: Adobe Illustrator 22.1.0, SVG Export Plug-In . SVG Version: 6.00 Build 0)  -->
<svg version="1.1" id="Light" xmlns="http://www.w3.org/2000/svg" xmlns:xlink="http://www.w3.org/1999/xlink" x="0px" y="0px"
	 viewBox="0 0 24 24" style="enable-background:new 0 0 24 24;" xml:space="preserve">
<g>
	<title>light-bulb-shine</title>
	<path d="M10.514,24c-0.276,0-0.5-0.224-0.5-0.5s0.224-0.5,0.5-0.5h3c0.276,0,0.5,0.224,0.5,0.5s-0.224,0.5-0.5,0.5H10.514z"/>
	<path d="M9.514,22c-0.276,0-0.5-0.224-0.5-0.5s0.224-0.5,0.5-0.5h5c0.276,0,0.5,0.224,0.5,0.5s-0.224,0.5-0.5,0.5H9.514z"/>
	<path d="M12.014,4c-0.276,0-0.5-0.224-0.5-0.5v-3c0-0.276,0.224-0.5,0.5-0.5c0.276,0,0.5,0.224,0.5,0.5v3
		C12.514,3.776,12.289,4,12.014,4z"/>
	<path d="M5.65,6.636c-0.133,0-0.259-0.052-0.353-0.146L3.174,4.369c-0.195-0.195-0.195-0.512,0-0.707
		c0.094-0.095,0.22-0.147,0.354-0.147c0.133,0,0.259,0.052,0.353,0.146l2.122,2.121c0.195,0.195,0.195,0.512,0,0.707
		C5.909,6.584,5.784,6.636,5.65,6.636z"/>
	<path d="M18.378,6.636c-0.134,0-0.259-0.052-0.354-0.146c-0.195-0.195-0.195-0.512,0-0.707l2.121-2.121
		c0.094-0.094,0.22-0.146,0.354-0.146s0.259,0.052,0.354,0.146c0.195,0.195,0.195,0.512,0,0.707L18.731,6.49
		C18.637,6.584,18.511,6.636,18.378,6.636z"/>
	<path d="M0.514,13c-0.276,0-0.5-0.224-0.5-0.5c0-0.276,0.224-0.5,0.5-0.5h3c0.276,0,0.5,0.224,0.5,0.5c0,0.276-0.224,0.5-0.5,0.5
		H0.514z"/>
	<path d="M20.514,13c-0.276,0-0.5-0.224-0.5-0.5c0-0.276,0.224-0.5,0.5-0.5h3c0.276,0,0.5,0.224,0.5,0.5c0,0.276-0.224,0.5-0.5,0.5
		H20.514z"/>
	<path d="M9.514,20c-0.551,0-1-0.448-1-1v-0.762c0-0.164-0.08-0.317-0.215-0.41c-1.747-1.216-2.788-3.213-2.785-5.341
		c0.004-3.58,2.92-6.493,6.5-6.493c1.741,0.002,3.372,0.681,4.599,1.911c1.228,1.23,1.903,2.863,1.901,4.596
		c0.001,2.124-1.04,4.115-2.786,5.326c-0.134,0.093-0.214,0.247-0.214,0.41V19c0,0.552-0.448,1-1,1H9.514z M12.014,6.993
		c-1.467,0-2.846,0.571-3.885,1.607c-1.04,1.038-1.614,2.418-1.615,3.887c-0.002,1.801,0.879,3.49,2.357,4.52
		c0.403,0.28,0.643,0.74,0.643,1.231V19h5v-0.763c0-0.491,0.24-0.951,0.644-1.231c1.477-1.025,2.357-2.709,2.356-4.505
		c0.003-3.033-2.461-5.504-5.494-5.507l-0.006-0.25V6.993z"/>
</g>
</svg>
