<?xml version="1.0" encoding="utf-8"?>
<!-- Generator: Adobe Illustrator 22.1.0, SVG Export Plug-In . SVG Version: 6.00 Build 0)  -->
<svg version="1.1" id="Layer_1" xmlns="http://www.w3.org/2000/svg" xmlns:xlink="http://www.w3.org/1999/xlink" x="0px" y="0px"
	 viewBox="0 0 24 24" style="enable-background:new 0 0 24 24;" xml:space="preserve">
<g>
	<title>history-man-chinese-elder</title>
	<path d="M0.5,23.999c-0.134,0-0.259-0.052-0.354-0.147C0.052,23.757,0,23.632,0,23.498c0.001-1.866,1.176-3.559,2.925-4.213
		l3.379-1.136c0.052-0.017,0.105-0.026,0.159-0.026c0.215,0,0.406,0.137,0.474,0.341c0.042,0.126,0.033,0.262-0.026,0.382
		c-0.059,0.12-0.162,0.209-0.289,0.251l-3.363,1.13C1.912,20.731,1.001,22.047,1,23.499C1,23.775,0.776,23.999,0.5,23.999z"/>
	<path d="M23.5,23.999c-0.276,0-0.5-0.224-0.5-0.5c0-1.451-0.913-2.768-2.271-3.277l-3.351-1.124
		c-0.261-0.088-0.403-0.372-0.315-0.633c0.069-0.204,0.26-0.341,0.475-0.341c0.054,0,0.107,0.009,0.158,0.026l3.368,1.13
		C22.823,19.939,24,21.633,24,23.499C24,23.774,23.776,23.999,23.5,23.999z"/>
	<path d="M9,12.499c-0.095,0-0.188-0.027-0.269-0.079c-0.113-0.072-0.191-0.183-0.219-0.314c-0.029-0.13-0.005-0.264,0.067-0.377
		c0.293-0.46,0.793-0.734,1.337-0.734c0.028,0,0.056,0.001,0.085,0.002c0.028-0.002,0.057-0.002,0.085-0.002
		c0.543,0,1.043,0.275,1.336,0.734c0.072,0.113,0.096,0.246,0.067,0.377c-0.029,0.13-0.107,0.242-0.219,0.314
		c-0.08,0.051-0.173,0.079-0.269,0.079c-0.172,0-0.33-0.086-0.422-0.231c-0.107-0.168-0.297-0.272-0.497-0.272
		c-0.015,0-0.076,0.003-0.082,0.003c-0.013,0-0.067-0.003-0.082-0.003c-0.202,0-0.388,0.102-0.497,0.272
		C9.329,12.412,9.172,12.499,9,12.499L9,12.499z"/>
	<path d="M15,12.499c-0.172,0-0.33-0.086-0.422-0.231c-0.109-0.17-0.293-0.272-0.494-0.272c-0.015,0-0.078,0.003-0.084,0.003
		c-0.013,0-0.066-0.003-0.081-0.003c-0.203,0-0.389,0.102-0.498,0.272c-0.092,0.145-0.25,0.231-0.422,0.231
		c-0.095,0-0.188-0.027-0.269-0.078c-0.113-0.072-0.19-0.183-0.219-0.314c-0.029-0.13-0.005-0.264,0.067-0.377
		c0.293-0.46,0.793-0.734,1.338-0.734c0.028,0,0.056,0.001,0.084,0.002c0.028-0.001,0.056-0.002,0.083-0.002
		c0.545,0,1.045,0.275,1.338,0.734c0.072,0.113,0.095,0.246,0.067,0.377c-0.029,0.131-0.107,0.242-0.219,0.314
		C15.188,12.472,15.095,12.499,15,12.499z"/>
	<path d="M15.407,23.499c-0.657-0.014-1.269-0.283-1.723-0.757S12.986,21.645,13,20.988c0-0.355,0.016-0.695,0.031-1.023
		c0.037-0.793,0.068-1.477-0.188-1.745c-0.14-0.147-0.424-0.222-0.843-0.222c-0.419,0-0.702,0.075-0.843,0.222
		c-0.256,0.269-0.225,0.953-0.188,1.745C10.984,20.298,11,20.635,11,20.999c0.001,0.023,0.001,0.059,0,0.094
		c-0.014,0.657-0.283,1.269-0.757,1.723c-0.46,0.441-1.073,0.683-1.726,0.683c-0.002,0-0.026,0-0.028,0
		C8.219,23.493,8,23.268,8,22.999v-5c0-2.206,1.794-4,4-4s4,1.794,4,4v5c0,0.273-0.214,0.492-0.487,0.5l-0.055,0L15.407,23.499z
		 M12,16.999c0.712,0,1.225,0.174,1.566,0.531c0.552,0.578,0.511,1.46,0.464,2.482C14.015,20.338,14,20.661,14,20.999
		c-0.008,0.398,0.135,0.77,0.405,1.051c0.168,0.176,0.371,0.303,0.595,0.377v-4.428c0-1.654-1.346-3-3-3c-1.654,0-3,1.346-3,3v4.428
		c0.204-0.067,0.391-0.18,0.551-0.333c0.281-0.27,0.441-0.633,0.449-1.022c0.001-0.021,0.001-0.041,0-0.061
		c0-0.357-0.015-0.683-0.03-0.999c-0.049-1.064-0.088-1.904,0.464-2.482C10.775,17.172,11.287,16.999,12,16.999z"/>
	<path d="M7.251,15.925c-0.208,0-0.391-0.125-0.466-0.319c-0.111-0.287-0.194-0.586-0.245-0.889
		c-0.028-0.165-0.135-0.304-0.287-0.373c-0.866-0.393-1.277-1.422-1.292-2.212c-0.01-0.56,0.162-1.043,0.478-1.353
		c-0.408-2.742-0.004-4.853,1.2-6.275c0.698-0.824,1.666-1.401,2.88-1.717c-0.031-0.264-0.02-0.53,0.032-0.787H8
		c-0.276,0-0.5-0.224-0.5-0.5s0.224-0.5,0.5-0.5h2.003c0.242-0.323,0.559-0.583,0.923-0.756c0.34-0.162,0.701-0.244,1.073-0.244
		c0.285,0,0.566,0.049,0.838,0.145c0.467,0.166,0.865,0.46,1.16,0.855H16c0.276,0,0.5,0.224,0.5,0.5s-0.224,0.5-0.5,0.5h-1.55
		c0.054,0.262,0.064,0.531,0.032,0.798c1.195,0.318,2.149,0.891,2.84,1.707c1.204,1.422,1.608,3.533,1.2,6.275
		c0.316,0.31,0.489,0.794,0.479,1.353c-0.015,0.789-0.426,1.818-1.292,2.211c-0.153,0.069-0.26,0.209-0.287,0.373
		c-0.051,0.3-0.132,0.596-0.242,0.879c-0.075,0.191-0.262,0.32-0.467,0.32l0,0c-0.062,0-0.123-0.011-0.181-0.034
		c-0.256-0.1-0.384-0.39-0.285-0.647c0.086-0.221,0.149-0.451,0.188-0.684c0.083-0.493,0.405-0.912,0.861-1.118
		C17.74,13.23,17.99,12.601,18,12.113c0.005-0.275-0.061-0.502-0.175-0.614h-0.483c-0.71,0-1.328-0.505-1.47-1.2L15.61,8.992
		c-2.098-0.074-3.127-0.71-3.63-1.341c-0.503,0.632-1.531,1.268-3.63,1.341L8.09,10.296c-0.142,0.697-0.76,1.203-1.47,1.203H6.135
		c-0.114,0.112-0.18,0.339-0.175,0.614c0.009,0.489,0.259,1.118,0.705,1.32c0.456,0.207,0.778,0.625,0.861,1.119
		c0.04,0.236,0.104,0.469,0.191,0.692c0.048,0.125,0.045,0.26-0.009,0.383s-0.152,0.216-0.277,0.264
		C7.375,15.913,7.314,15.925,7.251,15.925z M12.021,5.999c0.276,0,0.5,0.224,0.5,0.5c0,0.008,0.017,0.362,0.427,0.723
		c0.402,0.354,1.261,0.777,3.073,0.777c0.237,0,0.444,0.169,0.49,0.402l0.34,1.7c0.047,0.23,0.253,0.398,0.49,0.398h0.208
		c0.333-2.38-0.001-4.179-0.991-5.349c-0.927-1.095-2.467-1.651-4.578-1.651c-2.11,0-3.651,0.555-4.578,1.651
		c-0.991,1.17-1.324,2.969-0.991,5.349h0.208c0.238,0,0.444-0.168,0.491-0.4l0.338-1.698C7.494,8.168,7.7,7.999,7.938,7.999
		c1.812,0,2.671-0.422,3.073-0.777c0.411-0.363,0.427-0.717,0.427-0.732c0.006-0.271,0.231-0.491,0.5-0.491H12.021z M11.98,2.499
		c0.53,0,1.039,0.034,1.517,0.101c0.018-0.255-0.03-0.509-0.142-0.745c-0.172-0.362-0.475-0.635-0.853-0.769
		c-0.163-0.058-0.332-0.087-0.503-0.087c-0.223,0-0.439,0.049-0.644,0.147c-0.362,0.172-0.635,0.475-0.769,0.853
		c-0.067,0.188-0.093,0.391-0.079,0.595C10.971,2.53,11.465,2.499,11.98,2.499z"/>
</g>
</svg>
