<?xml version="1.0" encoding="utf-8"?>
<!-- Generator: Adobe Illustrator 22.1.0, SVG Export Plug-In . SVG Version: 6.00 Build 0)  -->
<svg version="1.1" id="Layer_1" xmlns="http://www.w3.org/2000/svg" xmlns:xlink="http://www.w3.org/1999/xlink" x="0px" y="0px"
	 viewBox="0 0 24 24" style="enable-background:new 0 0 24 24;" xml:space="preserve">
<g>
	<title>history-man-philosopher</title>
	<path d="M23.5,24c-0.276,0-0.5-0.224-0.5-0.5v-1c0-1.128-0.57-2.211-1.497-2.864l-6.735,4.285C14.687,23.973,14.595,24,14.5,24
		c-0.172,0-0.33-0.086-0.422-0.231c-0.148-0.232-0.079-0.542,0.153-0.69l6.209-3.95l-2.709-0.909l-8.963,5.703
		C8.688,23.973,8.595,24,8.5,24c-0.172,0-0.329-0.086-0.422-0.231c-0.148-0.233-0.079-0.542,0.153-0.691l8.28-5.269l-0.833-0.28
		C14.789,18.182,13.584,18.5,12,18.5c-1.585,0-2.79-0.318-3.679-0.971l-5.061,1.7C1.912,19.732,1.001,21.048,1,22.5v1
		C1,23.776,0.776,24,0.5,24S0,23.776,0,23.5v-1c0.001-1.867,1.176-3.56,2.925-4.213l4.6-1.545c-1.112-1.47-1.043-3.536-0.982-5.372
		c0.013-0.395,0.026-0.768,0.026-1.12c0-0.276,0.224-0.5,0.5-0.5s0.5,0.224,0.5,0.5c0,0.369-0.013,0.749-0.026,1.152
		c-0.005,0.154-0.01,0.31-0.015,0.467c0.425,0.347,0.951,0.569,1.494,0.63c0.161-0.008,0.273-0.101,0.556-0.401
		C9.99,11.661,10.613,11,12,11c1.387,0,2.01,0.661,2.422,1.098c0.283,0.301,0.396,0.394,0.556,0.402
		c0.542-0.061,1.068-0.283,1.494-0.63c-0.004-0.157-0.01-0.313-0.014-0.467c-0.014-0.418-0.026-0.791-0.026-1.153
		c0-0.276,0.224-0.5,0.5-0.5s0.5,0.224,0.5,0.5c0,0.352,0.012,0.725,0.025,1.12c0.061,1.836,0.13,3.902-0.983,5.373l4.584,1.539
		c0.239,0.089,0.47,0.199,0.696,0.331c0.014,0.008,0.026,0.015,0.036,0.022c1.362,0.811,2.208,2.292,2.208,3.866v1
		C24,23.776,23.776,24,23.5,24z M7.519,13.058c0.028,1.221,0.212,2.505,1.028,3.348C9.259,17.142,10.389,17.5,12,17.5
		c1.611,0,2.741-0.358,3.453-1.095c0.816-0.843,1-2.127,1.028-3.348c-0.446,0.239-0.933,0.389-1.43,0.44
		C15.031,13.499,15.016,13.5,15,13.5c-0.63,0-1.004-0.397-1.305-0.716C13.332,12.399,12.956,12,12,12
		c-0.956,0-1.332,0.398-1.695,0.784C10.004,13.103,9.63,13.5,9,13.5c-0.016,0-0.031-0.001-0.047-0.002
		C8.453,13.447,7.965,13.297,7.519,13.058z"/>
	<path d="M9,9.5c-0.095,0-0.188-0.027-0.269-0.079C8.618,9.35,8.541,9.238,8.512,9.108c-0.029-0.13-0.005-0.264,0.067-0.377
		c0.293-0.46,0.793-0.734,1.337-0.734c0.028,0,0.057,0.001,0.085,0.002c0.027-0.001,0.054-0.002,0.081-0.002
		c0.546,0,1.047,0.274,1.34,0.734c0.072,0.113,0.096,0.246,0.067,0.377c-0.029,0.13-0.107,0.242-0.219,0.314
		C11.189,9.473,11.096,9.5,11,9.5c-0.172,0-0.33-0.086-0.422-0.231c-0.107-0.168-0.298-0.272-0.498-0.272
		C10.066,8.997,10.006,9,10,9C9.987,9,9.933,8.997,9.919,8.997c-0.203,0-0.389,0.102-0.497,0.272C9.329,9.414,9.172,9.5,9,9.5z"/>
	<path d="M15,9.5c-0.172,0-0.33-0.086-0.422-0.231c-0.109-0.17-0.293-0.272-0.494-0.272C14.069,8.997,14.007,9,14,9
		c-0.013,0-0.067-0.003-0.081-0.003c-0.203,0-0.389,0.102-0.497,0.272C13.329,9.414,13.172,9.5,13,9.5
		c-0.095,0-0.188-0.027-0.269-0.078c-0.232-0.148-0.301-0.458-0.153-0.69c0.293-0.46,0.794-0.734,1.34-0.734
		c0.027,0,0.055,0.001,0.082,0.002c0.027-0.001,0.054-0.002,0.082-0.002c0.546,0,1.047,0.274,1.34,0.734
		c0.148,0.233,0.08,0.542-0.153,0.69C15.188,9.473,15.095,9.5,15,9.5z"/>
	<path d="M0.628,15.745c-0.097,0-0.19-0.028-0.271-0.08c-0.114-0.073-0.194-0.192-0.219-0.325c-0.297-1.531-0.055-3.132,0.682-4.506
		c0.012-0.022,0.025-0.042,0.039-0.062l1.787-2.404C3.281,7.241,4.29,6.371,5.5,5.902v-2.96C5.499,1.863,6.186,0.909,7.21,0.568
		C8.343,0.191,9.523,0,10.716,0h2.564c1.195,0,2.376,0.192,3.511,0.57C17.813,0.911,18.5,1.864,18.5,2.942V8.5
		C18.5,8.776,18.276,9,18,9s-0.5-0.224-0.5-0.5V7.84c-1.742-0.688-3.586-1.036-5.482-1.036c-1.91,0-3.766,0.354-5.518,1.051V8.5
		C6.5,8.776,6.276,9,6,9S5.5,8.776,5.5,8.5V6.991C4.659,7.404,3.959,8.065,3.503,8.884C3.492,8.904,3.48,8.923,3.467,8.94
		l-1.783,2.398c-0.525,0.994-0.75,2.14-0.644,3.26c0.884-0.332,1.634-0.949,2.135-1.761l1.61-2.601C4.877,10.089,5.036,10,5.21,10
		c0.093,0,0.184,0.026,0.263,0.075c0.114,0.07,0.193,0.181,0.224,0.311c0.031,0.13,0.009,0.264-0.062,0.378l-1.61,2.6
		c-0.741,1.202-1.907,2.043-3.282,2.368C0.707,15.74,0.668,15.745,0.628,15.745z M10.716,1C9.63,1,8.557,1.174,7.526,1.516
		C6.911,1.721,6.499,2.294,6.5,2.941v3.845c1.763-0.651,3.618-0.98,5.52-0.98c1.887,0,3.729,0.325,5.48,0.966v-3.83
		c0-0.647-0.412-1.219-1.025-1.424C15.443,1.175,14.368,1,13.28,1H10.716z"/>
	<path d="M11.805,15.501c-0.604,0-1.186-0.223-1.638-0.628c-0.205-0.184-0.223-0.5-0.039-0.706C10.222,14.061,10.358,14,10.5,14
		c0.123,0,0.241,0.045,0.333,0.127c0.27,0.241,0.609,0.374,0.957,0.374l0.053-0.001h0.333c0.37,0,0.722-0.132,0.991-0.373
		C13.259,14.045,13.377,14,13.5,14c0.142,0,0.278,0.061,0.373,0.167c0.184,0.205,0.166,0.522-0.039,0.706
		c-0.453,0.405-1.033,0.628-1.634,0.628C12.199,15.501,11.805,15.501,11.805,15.501z"/>
	<path d="M12,4.399c-0.197,0-0.389-0.058-0.554-0.168l-1.223-0.815c-0.229-0.153-0.292-0.464-0.139-0.693
		C10.177,2.583,10.332,2.5,10.5,2.5c0.099,0,0.195,0.029,0.278,0.084L12,3.399l1.222-0.815C13.305,2.529,13.401,2.5,13.5,2.5
		c0.168,0,0.323,0.083,0.417,0.223c0.153,0.229,0.091,0.54-0.139,0.693l-1.223,0.815C12.389,4.341,12.197,4.399,12,4.399z"/>
</g>
</svg>
