<?xml version="1.0" encoding="utf-8"?>
<!-- Generator: Adobe Illustrator 22.1.0, SVG Export Plug-In . SVG Version: 6.00 Build 0)  -->
<svg version="1.1" id="Layer_1" xmlns="http://www.w3.org/2000/svg" xmlns:xlink="http://www.w3.org/1999/xlink" x="0px" y="0px"
	 viewBox="0 0 24 24" style="enable-background:new 0 0 24 24;" xml:space="preserve">
<g>
	<title>history-man-king</title>
	<path d="M12,16.101c-0.689,0-1.344-0.262-1.845-0.739c-0.097-0.092-0.152-0.217-0.155-0.35c-0.003-0.134,0.046-0.26,0.138-0.357
		c0.094-0.098,0.226-0.155,0.362-0.155c0.129,0,0.251,0.049,0.344,0.137c0.314,0.299,0.724,0.463,1.155,0.463
		c0.432,0,0.842-0.165,1.156-0.463c0.093-0.089,0.216-0.137,0.344-0.137c0.136,0,0.268,0.056,0.362,0.154
		c0.093,0.098,0.142,0.224,0.138,0.358c-0.003,0.134-0.059,0.258-0.155,0.35C13.344,15.839,12.689,16.101,12,16.101z"/>
	<path d="M9,11.5c-0.095,0-0.188-0.027-0.269-0.078c-0.113-0.072-0.191-0.183-0.219-0.314c-0.029-0.13-0.005-0.264,0.067-0.377
		c0.293-0.46,0.794-0.734,1.339-0.734c0.027,0,0.055,0.001,0.082,0.002c0.028-0.001,0.056-0.002,0.084-0.002
		c0.544,0,1.044,0.274,1.338,0.734c0.072,0.113,0.096,0.246,0.067,0.377c-0.029,0.13-0.107,0.242-0.219,0.314
		C11.189,11.473,11.096,11.5,11,11.5c-0.172,0-0.33-0.086-0.422-0.231c-0.107-0.168-0.298-0.272-0.497-0.272
		C10.067,10.997,10.006,11,10,11c-0.013,0-0.067-0.003-0.082-0.003c-0.202,0-0.388,0.102-0.497,0.272
		C9.329,11.414,9.171,11.5,9,11.5z"/>
	<path d="M15,11.5c-0.172,0-0.33-0.086-0.422-0.231c-0.109-0.17-0.294-0.272-0.496-0.272C14.067,10.997,14.006,11,14,11
		c-0.013,0-0.065-0.003-0.079-0.003c-0.204,0-0.391,0.102-0.5,0.272C13.329,11.414,13.172,11.5,13,11.5
		c-0.095,0-0.188-0.027-0.269-0.078c-0.232-0.148-0.301-0.458-0.153-0.69c0.293-0.46,0.794-0.734,1.341-0.734
		c0.027,0,0.054,0.001,0.081,0.002c0.027-0.001,0.053-0.002,0.08-0.002c0.547,0,1.048,0.274,1.341,0.734
		c0.148,0.233,0.08,0.542-0.153,0.69C15.188,11.473,15.095,11.5,15,11.5z"/>
	<path d="M12,19c-1.59,0-4.946-1.862-5.44-4.782c-0.028-0.165-0.135-0.305-0.287-0.374c-0.866-0.392-1.276-1.421-1.292-2.211
		c-0.011-0.567,0.166-1.056,0.49-1.365L4.603,2.585C4.573,2.32,4.648,2.059,4.815,1.85s0.404-0.341,0.67-0.371
		c0.037-0.004,0.075-0.006,0.113-0.006c0.187,0,0.371,0.053,0.53,0.152L8.88,3.348l2.34-2.731c0.174-0.203,0.417-0.326,0.683-0.346
		c0.026-0.002,0.052-0.003,0.078-0.003c0.237,0,0.468,0.086,0.649,0.241c0.038,0.032,0.075,0.07,0.109,0.11l2.339,2.728l2.764-1.727
		c0.159-0.099,0.342-0.152,0.529-0.152c0.348,0,0.666,0.176,0.849,0.47c0.118,0.189,0.17,0.415,0.146,0.637
		c-0.126,1.178-0.34,3.173-0.524,4.873c-0.092,0.85-0.177,1.627-0.24,2.191c-0.03,0.267-0.053,0.473-0.073,0.63
		c0.323,0.31,0.499,0.797,0.488,1.363c-0.015,0.79-0.426,1.819-1.292,2.211c-0.153,0.069-0.26,0.208-0.287,0.373
		C16.946,17.138,13.59,19,12,19z M6.497,10.444c0.023,0.208-0.086,0.41-0.273,0.503c-0.154,0.077-0.249,0.339-0.243,0.667
		c0.009,0.489,0.26,1.117,0.704,1.319c0.456,0.207,0.778,0.625,0.861,1.119C7.954,16.468,10.876,18,12,18
		c1.124,0,4.045-1.532,4.454-3.949c0.083-0.493,0.405-0.912,0.861-1.118c0.445-0.202,0.695-0.83,0.704-1.319
		c0.006-0.328-0.089-0.59-0.243-0.667c-0.208-0.104-0.316-0.334-0.263-0.561c0.002-0.016,0.012-0.105,0.036-0.312
		C15.779,9.368,13.906,9.01,11.98,9.01c-1.91,0-3.769,0.353-5.527,1.048L6.497,10.444z M11.98,8.011c1.96,0,3.87,0.349,5.684,1.036
		c0.123-1.118,0.338-3.101,0.71-6.578l-2.765,1.727c-0.161,0.1-0.344,0.152-0.531,0.152c-0.291,0-0.568-0.128-0.759-0.352
		l-2.341-2.729L9.64,3.997C9.451,4.219,9.173,4.346,8.878,4.346c-0.187,0-0.369-0.052-0.527-0.15L5.597,2.473l0.741,6.56
		C8.139,8.355,10.035,8.011,11.98,8.011z"/>
	<path d="M23.5,24c-0.227,0-0.426-0.154-0.484-0.374c-0.289-1.108-1.103-2.006-2.177-2.402l-1.797-0.596l-3.713,3.248
		C15.238,23.956,15.121,24,15,24c-0.144,0-0.281-0.062-0.376-0.171c-0.181-0.207-0.16-0.524,0.047-0.705l3.27-2.861l-1.749-0.58
		c0,0-3.844,4.177-3.848,4.181c-0.037,0.035-0.072,0.053-0.093,0.065c-0.015,0.011-0.041,0.025-0.058,0.032
		C12.126,23.988,12.063,24,12,24c-0.063,0-0.126-0.013-0.188-0.037c-0.017-0.007-0.05-0.025-0.065-0.036
		c-0.017-0.008-0.051-0.026-0.087-0.059c-0.004-0.004-0.018-0.017-0.02-0.02l-3.889-4.145l-1.692,0.561l3.269,2.86
		c0.208,0.182,0.228,0.499,0.047,0.706C9.282,23.938,9.144,24,9,24c-0.121,0-0.238-0.044-0.329-0.124l-3.712-3.248L3.147,21.23
		c-1.062,0.392-1.874,1.289-2.164,2.397C0.926,23.847,0.727,24,0.5,24c-0.042,0-0.083-0.005-0.125-0.016
		c-0.131-0.034-0.24-0.116-0.307-0.232c-0.068-0.115-0.086-0.25-0.052-0.379c0.372-1.424,1.419-2.578,2.801-3.088l4.914-1.629
		c0.038-0.013,0.064-0.017,0.084-0.018c0.033-0.006,0.061-0.01,0.089-0.01c0.006,0,0.02,0,0.025,0.001
		c0.041,0.002,0.077,0.013,0.099,0.02c0.018,0.004,0.047,0.01,0.082,0.027c0.042,0.019,0.085,0.048,0.125,0.084
		c0.01,0.008,0.02,0.017,0.028,0.025c0.003,0.003,3.734,3.981,3.734,3.981l3.677-3.997c0.032-0.035,0.066-0.056,0.084-0.068
		c0.014-0.012,0.047-0.033,0.063-0.042c0.047-0.022,0.085-0.03,0.108-0.035c0.015-0.004,0.044-0.013,0.083-0.015
		c0.003,0,0.007,0,0.01,0c0.044,0,0.071,0.004,0.098,0.009c0.023,0.001,0.058,0.007,0.08,0.015l4.969,1.648
		c1.393,0.514,2.443,1.669,2.815,3.093c0.07,0.267-0.091,0.541-0.357,0.61C23.583,23.995,23.541,24,23.5,24z"/>
</g>
</svg>
