<?xml version="1.0" encoding="utf-8"?>
<!-- Generator: Adobe Illustrator 22.1.0, SVG Export Plug-In . SVG Version: 6.00 Build 0)  -->
<svg version="1.1" id="Layer_1" xmlns="http://www.w3.org/2000/svg" xmlns:xlink="http://www.w3.org/1999/xlink" x="0px" y="0px"
	 viewBox="0 0 24 24" style="enable-background:new 0 0 24 24;" xml:space="preserve">
<g>
	<title>saving-bank-cash</title>
	<path d="M8.004,23.953c-0.276,0-0.5-0.224-0.5-0.5s0.224-0.5,0.5-0.5h15.5c0.276,0,0.5,0.224,0.5,0.5s-0.224,0.5-0.5,0.5H8.004z"/>
	<path d="M13.504,21.953c-0.276,0-0.5-0.224-0.5-0.5v-4.5h-2v4.5c0,0.276-0.224,0.5-0.5,0.5s-0.5-0.224-0.5-0.5v-4.5h-0.5
		c-0.276,0-0.5-0.224-0.5-0.5s0.224-0.5,0.5-0.5h5c0.276,0,0.5,0.224,0.5,0.5s-0.224,0.5-0.5,0.5h-0.5v4.5
		C14.004,21.729,13.78,21.953,13.504,21.953z"/>
	<path d="M21.504,21.953c-0.276,0-0.5-0.224-0.5-0.5v-4.5h-2v4.5c0,0.276-0.224,0.5-0.5,0.5s-0.5-0.224-0.5-0.5v-4.5h-0.5
		c-0.276,0-0.5-0.224-0.5-0.5s0.224-0.5,0.5-0.5h5c0.276,0,0.5,0.224,0.5,0.5s-0.224,0.5-0.5,0.5h-0.5v4.5
		C22.004,21.729,21.78,21.953,21.504,21.953z"/>
	<path d="M1.004,11.953c-0.551,0-1-0.449-1-1v-6c0-0.551,0.449-1,1-1h0.792l0.673-3.118c0.1-0.457,0.511-0.788,0.978-0.788
		c0.071,0,0.143,0.008,0.213,0.023l8.736,1.9c0.537,0.117,0.88,0.65,0.764,1.188L12.053,8.25c-0.1,0.456-0.511,0.787-0.977,0.787
		c-0.024,0-0.048-0.001-0.072-0.003v1.918c0,0.551-0.449,1-1,1H1.004z M1.004,10.953h9v-6l-9,0L1.004,10.953z M11.076,8.037
		l1.107-5.09L3.447,1.048L2.819,3.953h7.184c0.551,0,1,0.449,1,1v3.069L11.076,8.037z"/>
	<path d="M5.504,9.953c-1.103,0-2-0.897-2-2s0.897-2,2-2s2,0.897,2,2S6.607,9.953,5.504,9.953z M5.504,6.953c-0.551,0-1,0.449-1,1
		s0.449,1,1,1s1-0.449,1-1S6.055,6.953,5.504,6.953z"/>
	<path d="M9,14.953c-0.551,0-1-0.448-1-1c0-0.276,0.224-0.5,0.5-0.5s0.5,0.224,0.5,0.5h14V13.22l-7-4.666l-2.722,1.815
		c-0.083,0.055-0.179,0.084-0.277,0.084l0,0c-0.168,0-0.323-0.083-0.416-0.223c-0.074-0.111-0.1-0.244-0.074-0.375
		c0.026-0.131,0.102-0.244,0.213-0.318l2.723-1.815c0.166-0.11,0.357-0.168,0.554-0.168c0.198,0,0.389,0.058,0.554,0.168l7,4.666
		c0.278,0.185,0.445,0.495,0.446,0.831v0.734c0,0.552-0.448,1-1,1H9z"/>
</g>
</svg>
