<?xml version="1.0" encoding="utf-8"?>
<!-- Generator: Adobe Illustrator 22.1.0, SVG Export Plug-In . SVG Version: 6.00 Build 0)  -->
<svg version="1.1" id="Layer_1" xmlns="http://www.w3.org/2000/svg" xmlns:xlink="http://www.w3.org/1999/xlink" x="0px" y="0px"
	 viewBox="0 0 24 24" style="enable-background:new 0 0 24 24;" xml:space="preserve">
<g>
	<title>saving-dog-guard-increase</title>
	<path d="M1.263,14c-0.134,0-0.259-0.052-0.354-0.146s-0.146-0.22-0.146-0.354s0.052-0.259,0.146-0.354l7.308-7.308
		C8.69,5.366,9.316,5.105,9.98,5.105c0.105,0,0.211,0.007,0.316,0.02l6,0.751c0.062,0.008,0.123,0.011,0.185,0.011
		c0.421,0,0.824-0.177,1.108-0.486L21.625,1h-4.363c-0.276,0-0.5-0.224-0.5-0.5s0.224-0.5,0.5-0.5h5.5
		c0.023,0,0.065,0.007,0.087,0.013c0.012,0,0.051,0.006,0.095,0.023c0.042,0.016,0.073,0.038,0.091,0.051
		c0.004,0.002,0.035,0.017,0.065,0.046c0.007,0.006,0.014,0.013,0.02,0.021c0.025,0.026,0.044,0.056,0.056,0.075
		c0.009,0.012,0.027,0.036,0.042,0.07c0.008,0.019,0.021,0.062,0.024,0.083c0.006,0.021,0.014,0.051,0.017,0.087
		c0.001,0.011,0.002,0.022,0.002,0.033V6c0,0.276-0.224,0.5-0.5,0.5s-0.5-0.224-0.5-0.5V1.785l-3.937,4.292
		c-0.473,0.515-1.145,0.81-1.844,0.81c-0.103,0-0.207-0.006-0.31-0.019l-6-0.751c-0.064-0.008-0.128-0.012-0.191-0.012
		c-0.397,0-0.772,0.156-1.056,0.44l-7.308,7.308C1.522,13.948,1.396,14,1.263,14z"/>
	<path d="M16.067,24.006c-1.058,0-2.054-0.51-2.678-1.368c-0.961-0.439-1.886-0.957-2.751-1.54
		c-0.023-0.016-0.047-0.034-0.068-0.055c-1.102-1.062-1.724-2.49-1.752-4.021c-0.023-1.278,0.366-2.49,1.125-3.512v-1.823
		c0.071-1.183,0.998-2.116,2.156-2.187c0,0,0.001,0,0.001,0c1.131,0,1.781,1.08,2.058,1.687h3.827
		C18.259,10.58,18.903,9.5,20.009,9.5c1.181,0.073,2.113,1.001,2.183,2.158l0.001,1.93c0.017,0.021,0.033,0.043,0.049,0.065
		c1.434,2.068,1.36,4.791-0.183,6.778c-0.018,0.023-0.037,0.044-0.058,0.063c-1.031,0.942-2.187,1.74-3.436,2.371
		c-0.63,0.724-1.535,1.139-2.491,1.141C16.073,24.006,16.067,24.006,16.067,24.006z M13.807,21.188
		c0.227,1.054,1.154,1.819,2.259,1.819c0.698-0.001,1.348-0.311,1.79-0.85c0.002-0.003,0.016-0.02,0.018-0.023
		c0.221-0.274,0.376-0.598,0.452-0.946h-1.133c-0.438-0.029-0.83-0.208-1.124-0.501c-0.29,0.293-0.675,0.472-1.092,0.5
		L13.807,21.188z M16.066,14.56c0.247,0,0.491,0.042,0.727,0.125c0.629,0.221,1.116,0.708,1.338,1.337l1.171,3.961
		c0.002,0.006,0.009,0.032,0.01,0.039c0.046,0.219,0.068,0.443,0.068,0.666c0,0.2-0.018,0.399-0.053,0.595
		c0.7-0.444,1.36-0.946,1.968-1.498c1.248-1.636,1.3-3.868,0.126-5.561c-0.313-0.451-0.698-0.841-1.145-1.161
		c-0.109-0.077-0.181-0.193-0.203-0.324s0.009-0.264,0.086-0.373c0.094-0.131,0.246-0.209,0.407-0.209
		c0.105,0,0.205,0.032,0.291,0.093c0.115,0.082,0.227,0.169,0.336,0.259v-0.822c-0.039-0.63-0.562-1.148-1.215-1.189
		c-0.582,0.001-1.061,0.999-1.182,1.348c-0.068,0.203-0.259,0.341-0.474,0.341h-4.5c-0.215,0-0.405-0.137-0.474-0.34
		c-0.128-0.374-0.599-1.348-1.218-1.348c-0.631,0.039-1.148,0.563-1.188,1.218l0,0.748c0.113-0.093,0.227-0.179,0.341-0.258
		c0.084-0.058,0.182-0.089,0.284-0.089c0.164,0,0.318,0.08,0.411,0.215c0.076,0.11,0.105,0.242,0.081,0.374
		c-0.024,0.131-0.097,0.246-0.207,0.322c-0.256,0.177-0.495,0.38-0.71,0.604c-0.877,0.91-1.348,2.107-1.325,3.37
		c0.023,1.249,0.525,2.416,1.416,3.29c0.5,0.335,1.025,0.65,1.566,0.938c-0.03-0.177-0.045-0.354-0.045-0.532
		c0-0.228,0.023-0.455,0.068-0.676l1.175-3.978c0.2-0.57,0.598-1.017,1.125-1.27C15.421,14.632,15.739,14.56,16.066,14.56z
		 M16.568,19.562c0.023,0.321,0.312,0.604,0.659,0.627l1.095-0.001l-0.82-2.771c-0.302,0.127-0.615,0.228-0.934,0.302V19.562z
		 M14.943,20.188c0.32-0.023,0.603-0.313,0.626-0.66l-0.001-1.809c-0.319-0.074-0.632-0.175-0.934-0.302l-0.819,2.771H14.943z
		 M14.919,16.453c0.372,0.166,0.758,0.285,1.148,0.353c0.392-0.068,0.777-0.186,1.149-0.353L17.18,16.33
		c-0.114-0.322-0.377-0.582-0.718-0.702c-0.128-0.045-0.261-0.068-0.395-0.068c-0.177,0-0.35,0.04-0.512,0.117
		c-0.286,0.137-0.501,0.377-0.606,0.676L14.919,16.453z"/>
	<circle cx="13.255" cy="14.5" r="0.75"/>
	<circle cx="18.763" cy="14.5" r="0.75"/>
</g>
</svg>
