<?xml version="1.0" encoding="utf-8"?>
<!-- Generator: Adobe Illustrator 22.1.0, SVG Export Plug-In . SVG Version: 6.00 Build 0)  -->
<svg version="1.1" id="Layer_1" xmlns="http://www.w3.org/2000/svg" xmlns:xlink="http://www.w3.org/1999/xlink" x="0px" y="0px"
	 viewBox="0 0 24 24" style="enable-background:new 0 0 24 24;" xml:space="preserve">
<g>
	<title>saving-bag-increase</title>
	<circle cx="17.5" cy="21" r="0.75"/>
	<path d="M12,8.5c-0.134,0-0.26-0.052-0.354-0.147C11.552,8.259,11.5,8.133,11.5,7.999s0.052-0.259,0.147-0.353l2.8-2.793
		c0.282-0.283,0.659-0.438,1.06-0.438c0.401,0,0.778,0.156,1.061,0.439l0.586,0.586c0.094,0.094,0.22,0.146,0.354,0.146
		c0.134,0,0.259-0.052,0.353-0.146L22.294,1h-2.79c-0.276,0-0.5-0.224-0.5-0.5s0.224-0.5,0.5-0.5h4c0.276,0,0.5,0.224,0.5,0.5v4
		c0,0.276-0.224,0.5-0.5,0.5s-0.5-0.224-0.5-0.5V1.704l-4.436,4.442c-0.284,0.284-0.66,0.44-1.061,0.44
		c-0.4,0-0.777-0.156-1.06-0.439L15.86,5.561c-0.094-0.094-0.22-0.146-0.353-0.146c-0.134,0-0.259,0.052-0.354,0.146l-2.801,2.793
		C12.259,8.448,12.134,8.5,12,8.5z"/>
	<path d="M14.004,24c-0.552,0-1-0.448-1-1v-4c0-0.552,0.448-1,1-1H15v-1c0-0.552,0.448-1,1-1h7c0.552,0,1,0.448,1,1v4
		c0,0.552-0.448,1-1,1h-0.996v1c0,0.552-0.448,1-1,1H14.004z M14.004,23h7v-1.457C21.001,21.528,21,21.512,21,21.5
		c0-0.019,0.002-0.036,0.005-0.05L21.004,19h-7L14.004,23z M23,21v-4h-7l0,1h5.004c0.552,0,1,0.448,1,1v2H23z"/>
	<path d="M6,24c-3.308,0-6-2.692-6-6c0-2.298,1.785-4.736,2.865-6H1.504c-0.276,0-0.5-0.224-0.5-0.5s0.224-0.5,0.5-0.5h1.537
		L1.648,9.006C1.393,8.645,1.345,8.167,1.525,7.761c0.137-0.311,0.387-0.55,0.704-0.672c0.148-0.057,0.303-0.087,0.46-0.087
		c0.177,0,0.35,0.037,0.513,0.109c0.137,0.058,0.284,0.088,0.435,0.088c0.297,0,0.578-0.117,0.79-0.329l0.271-0.271
		c0.349-0.349,0.813-0.54,1.307-0.54s0.958,0.192,1.306,0.54L7.581,6.87C7.794,7.083,8.075,7.2,8.372,7.2
		c0.153,0,0.302-0.031,0.444-0.092c0.16-0.069,0.33-0.104,0.503-0.104c0.26,0,0.512,0.08,0.728,0.231
		c0.278,0.195,0.464,0.486,0.523,0.821s-0.016,0.672-0.21,0.95L8.961,11h1.542c0.276,0,0.5,0.224,0.5,0.5s-0.224,0.5-0.5,0.5H9.135
		C10.215,13.264,12,15.702,12,18C12,21.308,9.308,24,6,24z M4.212,12C3.65,12.595,1,15.532,1,18c0,2.757,2.243,5,5,5s5-2.243,5-5
		c0-2.468-2.65-5.405-3.212-6H4.212z M7.74,11l1.801-2.567C9.582,8.374,9.598,8.302,9.585,8.23C9.573,8.158,9.533,8.096,9.473,8.055
		c-0.046-0.032-0.1-0.05-0.156-0.05c-0.037,0-0.073,0.007-0.108,0.022C8.942,8.142,8.66,8.201,8.371,8.201
		c-0.564,0-1.095-0.221-1.497-0.623L6.603,7.307c-0.16-0.16-0.373-0.248-0.599-0.248s-0.44,0.088-0.599,0.248L5.133,7.578
		C4.732,7.978,4.201,8.199,3.638,8.199c-0.287,0-0.568-0.057-0.834-0.171C2.764,8.01,2.726,8.002,2.688,8.002
		c-0.033,0-0.066,0.006-0.098,0.019C2.522,8.047,2.469,8.098,2.44,8.165C2.401,8.251,2.411,8.354,2.466,8.431L4.261,11H7.74z"/>
	<path d="M6.004,21.001c-0.276,0-0.5-0.224-0.5-0.5V20H4c-0.276,0-0.5-0.224-0.5-0.5S3.724,19,4,19h3c0.276,0,0.5-0.224,0.5-0.5
		S7.276,18,7,18H5c-0.827,0-1.5-0.673-1.5-1.5S4.173,15,5,15h0.504v-0.499c0-0.276,0.224-0.5,0.5-0.5s0.5,0.224,0.5,0.5V15H8
		c0.276,0,0.5,0.224,0.5,0.5S8.276,16,8,16H6.025c-0.007,0.001-0.015,0.001-0.021,0.001s-0.014,0-0.021-0.001H5
		c-0.276,0-0.5,0.224-0.5,0.5S4.724,17,5,17h2c0.827,0,1.5,0.673,1.5,1.5S7.827,20,7,20H6.504v0.501
		C6.504,20.777,6.28,21.001,6.004,21.001z"/>
</g>
</svg>
