<?xml version="1.0" encoding="utf-8"?>
<!-- Generator: Adobe Illustrator 22.1.0, SVG Export Plug-In . SVG Version: 6.00 Build 0)  -->
<svg version="1.1" id="Layer_1" xmlns="http://www.w3.org/2000/svg" xmlns:xlink="http://www.w3.org/1999/xlink" x="0px" y="0px"
	 viewBox="0 0 24 24" style="enable-background:new 0 0 24 24;" xml:space="preserve">
<g>
	<title>saving-bull</title>
	<path d="M21.676,22c-0.552,0-1-0.448-1-1c0-0.06,0.005-0.12,0.016-0.18c0.071-0.36,0.026-0.737-0.125-1.066
		c-0.314-0.429-0.807-0.702-1.338-0.746c-0.091,0.082-0.181,0.164-0.27,0.247l-0.389,1.943C18.476,21.663,18.063,22,17.59,22h-1.461
		c-0.073,0-0.145-0.008-0.216-0.023c-0.261-0.058-0.484-0.214-0.627-0.439c-0.144-0.225-0.191-0.493-0.133-0.754
		c0.181-0.749,0.297-1.512,0.346-2.273c-0.037-0.339-0.096-0.678-0.178-1.011h-2.526l-2.21,3.986C10.408,21.803,10.073,22,9.71,22
		H9.218c-0.112,0-0.223-0.019-0.33-0.056c-0.521-0.182-0.796-0.754-0.614-1.274c0.298-0.781,0.511-1.587,0.634-2.405
		c-0.386,0.174-0.75,0.381-1.086,0.619c-0.146,0.149-0.252,0.333-0.307,0.535c-0.07,0.276-0.26,0.512-0.522,0.642l-0.368,0.184
		c-0.141,0.071-0.292,0.106-0.448,0.106c-0.348,0-0.665-0.178-0.849-0.476c-0.366-0.518-0.642-1.11-0.812-1.748
		C4.506,18.087,4.5,18.044,4.5,18c0-0.155,0-0.607,1.61-2.303c-0.546-0.087-1.105-0.137-1.67-0.149
		c-0.161,0.285-0.353,0.55-0.571,0.789c-0.263,0.264-1.509,1.297-2.493,1.297c-0.298,0-0.543-0.094-0.73-0.281
		C0.084,16.791,0,14.385,0,13c0-0.068,0.016-0.136,0.046-0.203c0.198-0.846,0.453-1.679,0.759-2.479
		c0.126-0.888-0.114-1.802-0.661-2.514C0.007,7.626,0.007,7.376,0.144,7.197C0.238,7.073,0.387,7,0.542,7
		C0.606,7,0.67,7.013,0.73,7.037c1.314,0.539,2.248,1.676,2.525,3.059c0.261-0.181,0.52-0.362,0.774-0.542
		C6.249,7.984,8.346,6.5,11,6.5c2.806,0,3.838,1.132,4.749,2.131c0.677,0.742,1.377,1.51,2.872,1.884
		c1.393,0.348,2.47,0.974,3.131,1.817c0.452-0.294,0.739-0.8,0.748-1.339c0-1.179-1.308-1.492-2-1.492
		c-0.028,0.001-0.062,0.001-0.096,0.001c-1.313,0-2.551-0.64-3.312-1.712c-0.018-0.025-0.034-0.053-0.047-0.082
		C16.729,7.013,16.7,6.214,16.96,5.5c-0.261-0.714-0.231-1.513,0.085-2.207c0.364-0.753,1.102-1.246,1.927-1.292
		C18.977,2,18.995,2,19,2c0.196,0,0.374,0.115,0.455,0.293c0.349,0.767,0.349,1.647,0,2.414c-0.314,0.65-0.901,1.106-1.593,1.249
		c-0.127,0.427-0.102,0.881,0.074,1.294c0.575,0.784,1.496,1.251,2.469,1.251c0,0,0.083-0.001,0.083-0.001
		c0.771,0,1.488,0.21,2.028,0.591C23.16,9.546,23.5,10.206,23.5,11c-0.014,0.894-0.496,1.733-1.247,2.202
		c0.164,0.41,0.247,0.846,0.247,1.298c-0.02,0.283-0.065,0.553-0.134,0.819c0.008,0.066,0.003,0.13-0.014,0.19
		c-0.124,0.425-0.089,0.878,0.1,1.278c0.234,0.574,0.683,1.025,1.236,1.25c0.218,0.089,0.344,0.313,0.305,0.545l-0.43,2.582
		C23.483,21.648,23.068,22,22.577,22H21.676z M9.353,15.648c0.012,0.01,0.023,0.021,0.032,0.032
		c0.429,0.518,0.647,1.173,0.615,1.844c0,0.004-0.002,0.021-0.002,0.026c-0.096,1.186-0.36,2.353-0.784,3.464L9.71,21l2.353-4.243
		c0.089-0.159,0.256-0.257,0.437-0.257h2.501c-0.045-0.115-0.09-0.223-0.135-0.325c-0.24-0.52-0.367-1.1-0.366-1.676
		c0-0.275,0.225-0.499,0.5-0.499c0,0,0,0,0,0c0.134,0,0.259,0.052,0.354,0.147c0.094,0.094,0.146,0.22,0.146,0.354
		c-0.001,0.431,0.094,0.867,0.276,1.259c0.138,0.308,0.262,0.643,0.379,1.026c0.021,0.044,0.036,0.092,0.043,0.141
		c0.148,0.514,0.249,1.026,0.3,1.523c0.002,0.028,0.003,0.053,0.002,0.079c-0.05,0.835-0.176,1.669-0.372,2.481L17.59,21l0.42-2.098
		c0.02-0.101,0.071-0.193,0.146-0.265c0.14-0.133,0.286-0.261,0.432-0.389l0.092-0.081c0.029-0.031,0.058-0.054,0.079-0.069
		c0.403-0.355,0.761-0.652,1.11-0.92c0.948-0.612,1.552-1.623,1.633-2.715c-0.001-1.91-1.957-2.686-3.123-2.978
		c-1.789-0.447-2.592-1.328-3.369-2.18C14.091,8.297,13.364,7.5,11,7.5c-2.337,0-4.307,1.394-6.394,2.871
		c-0.42,0.297-0.866,0.611-1.313,0.912c-0.038,0.68-0.161,1.361-0.359,1.978C2.7,13.995,2.29,14.88,1.671,14.931
		c-0.033,0.003-0.067,0.004-0.101,0.004c-0.176,0-0.346-0.039-0.506-0.114c0.079,1.123,0.207,1.691,0.286,1.818
		c0.001,0,0.033,0,0.033,0c0.367,0,1.29-0.52,1.764-0.993C3.678,15.065,3.984,14.296,4,13.49C4.006,13.217,4.22,13.007,4.5,13
		C4.786,13.006,5.006,13.235,5,13.51c-0.007,0.354-0.06,0.707-0.156,1.055c1.513,0.078,2.974,0.405,4.348,0.973
		c0.014,0.006,0.028,0.013,0.042,0.022c0.026,0.015,0.045,0.029,0.058,0.039C9.311,15.614,9.332,15.629,9.353,15.648z
		 M20.164,18.217c0.5,0.205,0.932,0.549,1.246,0.997c0.015,0.022,0.029,0.045,0.04,0.069c0.259,0.53,0.339,1.143,0.225,1.725
		L22.576,21l0.369-2.214c-0.636-0.358-1.133-0.92-1.408-1.598c-0.019-0.04-0.037-0.081-0.054-0.123
		c-0.296,0.364-0.644,0.676-1.039,0.93C20.356,18.063,20.263,18.137,20.164,18.217z M5.517,17.991
		c0.141,0.478,0.358,0.927,0.646,1.334l0.021,0.026l0.364-0.184c0.108-0.396,0.317-0.749,0.607-1.028
		c0.017-0.017,0.035-0.031,0.054-0.045c0.541-0.387,1.138-0.703,1.777-0.94c-0.038-0.266-0.14-0.518-0.3-0.741
		c-0.467-0.188-0.944-0.346-1.419-0.472C6.393,16.824,5.656,17.711,5.517,17.991z M1.013,13.05c0.027,0.175,0.106,0.423,0.231,0.62
		c0.069,0.109,0.172,0.236,0.288,0.261c0.214-0.235,0.728-1.398,0.775-2.847c-0.008-0.051-0.007-0.102,0.001-0.152
		c0.002-0.208-0.004-0.395-0.019-0.569C2.213,9.909,2.037,9.479,1.775,9.101c0.082,0.469,0.087,0.949,0.011,1.424
		c-0.006,0.035-0.015,0.069-0.027,0.102C1.455,11.414,1.204,12.229,1.013,13.05z M18.669,3.072
		c-0.312,0.112-0.572,0.343-0.719,0.646c-0.173,0.379-0.213,0.803-0.119,1.21c0.312-0.112,0.572-0.343,0.719-0.646
		C18.723,3.903,18.763,3.479,18.669,3.072z"/>
</g>
</svg>
