<?xml version="1.0" encoding="utf-8"?>
<!-- Generator: Adobe Illustrator 22.1.0, SVG Export Plug-In . SVG Version: 6.00 Build 0)  -->
<svg version="1.1" id="Layer_1" xmlns="http://www.w3.org/2000/svg" xmlns:xlink="http://www.w3.org/1999/xlink" x="0px" y="0px"
	 viewBox="0 0 24 24" style="enable-background:new 0 0 24 24;" xml:space="preserve">
<g>
	<title>saving-piggy-dollars</title>
	<path d="M14.617,24.035c-0.73,0-1.377-0.464-1.611-1.155l-0.419-1.14c-0.806,0.232-1.635,0.35-2.468,0.35
		c-0.71,0-1.421-0.086-2.117-0.256L7.612,22.89c-0.005,0.015-0.016,0.045-0.027,0.074c-0.259,0.649-0.88,1.068-1.581,1.068
		c-0.215,0-0.427-0.041-0.628-0.121c-0.422-0.169-0.753-0.491-0.932-0.908c-0.179-0.417-0.185-0.879-0.017-1.301l0.496-1.348
		C4.165,19.716,3.561,18.908,3.163,18H2.5c-0.551,0-1-0.448-1-1v-3c0-0.552,0.449-1,1-1h0.67c0.377-0.815,0.939-1.538,1.636-2.104V9
		C4.807,8.889,4.825,8.781,4.86,8.678c0.087-0.253,0.267-0.456,0.507-0.573c0.138-0.067,0.285-0.102,0.437-0.102
		c0.111,0,0.221,0.019,0.327,0.055c0.72,0.265,1.351,0.708,1.838,1.287c0.697-0.171,1.412-0.257,2.13-0.257
		c4.041,0,7.354,2.602,7.673,5.971c0.947-0.12,1.427-0.614,1.427-1.471c0-0.276,0.224-0.5,0.5-0.5s0.5,0.224,0.5,0.5
		c0,1.409-0.904,2.322-2.43,2.476c-0.159,1.583-0.932,3.044-2.15,4.062c0,0,0.596,1.634,0.605,1.661
		c0.301,0.889-0.176,1.857-1.064,2.157C14.984,24.005,14.801,24.035,14.617,24.035z M12.89,20.62c0.209,0,0.397,0.132,0.469,0.327
		l0.589,1.6c0.1,0.294,0.368,0.488,0.669,0.488c0.075,0,0.15-0.013,0.222-0.037c0.366-0.124,0.562-0.522,0.439-0.888l-0.722-1.982
		c-0.076-0.207-0.004-0.443,0.174-0.574c1.262-0.926,2.036-2.412,2.07-3.976c0-3.024-3.006-5.489-6.7-5.489
		c-0.739,0-1.474,0.103-2.185,0.306c-0.045,0.013-0.091,0.019-0.137,0.019c-0.162,0-0.314-0.079-0.407-0.21
		C6.977,9.651,6.432,9.235,5.796,9l0.01,2.14c0,0.157-0.075,0.308-0.202,0.401c-0.737,0.547-1.303,1.288-1.639,2.142
		C3.889,13.876,3.707,14,3.5,14h-1v3h1c0.207,0,0.395,0.13,0.468,0.324c0.368,0.983,1.007,1.834,1.849,2.462
		c0.176,0.131,0.246,0.367,0.17,0.573l-0.626,1.7c-0.074,0.187-0.073,0.374,0.002,0.548c0.074,0.172,0.21,0.305,0.384,0.374
		c0.083,0.033,0.17,0.05,0.258,0.05c0.289,0,0.545-0.173,0.651-0.44l0.564-1.532c0.073-0.196,0.261-0.327,0.47-0.327
		c0.048,0,0.095,0.007,0.141,0.02c0.748,0.224,1.517,0.337,2.286,0.337c0.885,0,1.762-0.149,2.608-0.443
		C12.778,20.63,12.833,20.62,12.89,20.62z"/>
	<circle cx="6.754" cy="14.25" r="0.75"/>
	<path d="M20.122,10.854c-0.142,0-0.278-0.061-0.373-0.167c-0.184-0.205-0.166-0.522,0.039-0.706
		c1.239-1.108,1.869-2.755,1.684-4.407C21.181,2.966,18.983,1,16.36,1c-0.191,0-0.384,0.011-0.574,0.032
		c-1.364,0.152-2.588,0.829-3.447,1.904c-0.859,1.075-1.248,2.418-1.096,3.782c0.015,0.133-0.023,0.263-0.106,0.368
		c-0.083,0.104-0.203,0.17-0.335,0.185c-0.018,0.002-0.038,0.003-0.057,0.003c-0.254,0-0.467-0.191-0.495-0.445
		c-0.182-1.629,0.282-3.233,1.308-4.517c1.026-1.284,2.488-2.091,4.117-2.273C15.903,0.013,16.134,0,16.361,0
		c3.132,0,5.756,2.349,6.104,5.463c0.22,1.973-0.531,3.941-2.011,5.264C20.363,10.809,20.244,10.854,20.122,10.854z"/>
	<path d="M16.504,10.5c-0.276,0-0.5-0.224-0.5-0.5V9.5H15c-0.276,0-0.5-0.224-0.5-0.5s0.224-0.5,0.5-0.5h2.037
		c0.344-0.001,0.65-0.208,0.778-0.528c0.173-0.431-0.036-0.922-0.467-1.095l-2.063-0.826c-0.702-0.282-1.155-0.953-1.156-1.708
		c0-0.492,0.191-0.955,0.539-1.303c0.348-0.348,0.81-0.54,1.302-0.54h0.033V2c0-0.276,0.224-0.5,0.5-0.5s0.5,0.224,0.5,0.5v0.5H18
		c0.276,0,0.5,0.224,0.5,0.5S18.275,3.5,18,3.5h-2.029c-0.225,0-0.436,0.088-0.595,0.247c-0.159,0.159-0.247,0.371-0.246,0.596
		c0,0.345,0.208,0.652,0.528,0.781l2.063,0.826c0.457,0.184,0.814,0.534,1.007,0.987c0.193,0.453,0.198,0.954,0.015,1.409
		c-0.281,0.7-0.951,1.153-1.705,1.154h-0.034V10C17.004,10.276,16.779,10.5,16.504,10.5z"/>
</g>
</svg>
