<?xml version="1.0" encoding="utf-8"?>
<!-- Generator: Adobe Illustrator 22.1.0, SVG Export Plug-In . SVG Version: 6.00 Build 0)  -->
<svg version="1.1" id="Layer_1" xmlns="http://www.w3.org/2000/svg" xmlns:xlink="http://www.w3.org/1999/xlink" x="0px" y="0px"
	 viewBox="0 0 24 24" style="enable-background:new 0 0 24 24;" xml:space="preserve">
<g>
	<title>saving-piggy-coins</title>
	<path d="M5.5,23.955c-1.29,0-5.5-0.108-5.5-1.5v-12c0-0.047,0.01-0.084,0.016-0.104c0.075-0.619,0.97-1.019,2.812-1.239
		C4.103,8.96,5.364,8.955,5.504,8.955c1.29,0,5.5,0.108,5.5,1.5c0,0.011-0.002,0.032-0.004,0.048v11.952
		C11,23.847,6.79,23.955,5.5,23.955z M1,22.356c0.311,0.2,1.858,0.6,4.5,0.6c2.799,0,4.222-0.424,4.502-0.608l-0.001-1.925
		C8.541,20.939,5.83,20.955,5.5,20.955c-0.33,0-3.041-0.016-4.5-0.533V22.356z M1,19.356c0.311,0.2,1.858,0.6,4.5,0.6
		c2.799,0,4.222-0.424,4.502-0.608l-0.001-1.925C8.541,17.939,5.83,17.955,5.5,17.955c-0.33,0-3.041-0.016-4.5-0.533V19.356z
		 M1,16.356c0.311,0.2,1.858,0.6,4.5,0.6c2.799,0,4.222-0.424,4.502-0.608l-0.001-1.925C8.541,14.939,5.83,14.955,5.5,14.955
		c-0.33,0-3.041-0.016-4.5-0.533V16.356z M1,13.356c0.311,0.2,1.858,0.6,4.5,0.6c2.799,0,4.222-0.424,4.502-0.608l-0.001-1.924
		c-1.46,0.516-4.167,0.532-4.497,0.532c-0.33,0-3.045-0.016-4.504-0.535V13.356z M1.222,10.461c0.58,0.207,2.041,0.495,4.282,0.495
		c2.356,0,3.737-0.301,4.281-0.505c-0.58-0.207-2.041-0.495-4.281-0.495C3.148,9.955,1.767,10.255,1.222,10.461z"/>
	<path d="M18.319,20.453c-0.296,0-0.585-0.064-0.857-0.189c-0.497-0.229-0.874-0.638-1.064-1.151l-0.548-1.483
		c-0.914,0.234-1.854,0.353-2.799,0.354c-0.276,0-0.5-0.224-0.501-0.499c0-0.276,0.223-0.5,0.499-0.501
		c1.006-0.002,2.004-0.149,2.968-0.438c0.047-0.014,0.095-0.021,0.144-0.021c0.208,0,0.397,0.131,0.469,0.327l0.707,1.915
		c0.151,0.41,0.547,0.686,0.984,0.686c0.123,0,0.245-0.022,0.361-0.065c0.263-0.097,0.472-0.29,0.589-0.544
		c0.117-0.254,0.128-0.539,0.031-0.801l-0.808-2.191c-0.08-0.217-0.002-0.458,0.189-0.587c1.093-0.737,1.929-1.773,2.421-2.996
		c0.077-0.19,0.259-0.313,0.464-0.313h0.936c0.276,0,0.5-0.224,0.5-0.5v-3c0-0.276-0.224-0.5-0.5-0.5h-0.937
		c-0.212,0-0.402-0.135-0.472-0.335c-0.435-1.247-1.19-2.367-2.184-3.237c-0.108-0.094-0.17-0.232-0.17-0.376V1.046
		c-0.915,0.28-1.728,0.871-2.284,1.662c-0.094,0.133-0.247,0.212-0.409,0.212c-0.046,0-0.092-0.006-0.137-0.019
		C14.981,2.635,14.018,2.5,13.049,2.5c-3.62,0-6.921,1.875-8.214,4.664c-0.082,0.176-0.26,0.289-0.454,0.289
		c-0.073,0-0.143-0.015-0.209-0.046c-0.251-0.116-0.36-0.414-0.244-0.664C5.382,3.607,9.048,1.5,13.049,1.5
		c0.946,0,1.888,0.118,2.804,0.35c0.67-0.828,1.59-1.452,2.607-1.764c0.097-0.027,0.19-0.04,0.284-0.04
		c0.17,0,0.339,0.044,0.488,0.128c0.233,0.131,0.401,0.345,0.473,0.602c0.025,0.088,0.037,0.179,0.037,0.27v2.736
		c0.949,0.877,1.697,1.969,2.173,3.171h0.59c0.827,0,1.5,0.673,1.5,1.5v3c0,0.827-0.673,1.5-1.5,1.5h-0.606
		c-0.523,1.15-1.325,2.15-2.333,2.909l0.676,1.833c0.391,1.059-0.154,2.239-1.213,2.63C18.799,20.41,18.56,20.453,18.319,20.453z"/>
	<circle cx="17.254" cy="7.205" r="0.75"/>
	<path d="M8,6.455c-0.124,0-0.244-0.046-0.336-0.13C7.565,6.236,7.507,6.113,7.501,5.98C7.494,5.846,7.54,5.718,7.63,5.619
		c1.123-1.239,2.659-2.007,4.324-2.162C11.961,3.457,11.993,3.455,12,3.455c0.26,0,0.474,0.195,0.498,0.454
		c0.012,0.133-0.028,0.263-0.113,0.366C12.3,4.377,12.18,4.441,12.047,4.453c-1.416,0.132-2.721,0.785-3.676,1.838
		C8.276,6.395,8.141,6.455,8,6.455z"/>
</g>
</svg>
