<?xml version="1.0" encoding="utf-8"?>
<!-- Generator: Adobe Illustrator 22.1.0, SVG Export Plug-In . SVG Version: 6.00 Build 0)  -->
<svg version="1.1" id="Layer_1" xmlns="http://www.w3.org/2000/svg" xmlns:xlink="http://www.w3.org/1999/xlink" x="0px" y="0px"
	 viewBox="0 0 24 24" style="enable-background:new 0 0 24 24;" xml:space="preserve">
<g>
	<title>phone-translate</title>
	<path d="M22,14.5c-0.029,0-0.059-0.002-0.089-0.008c-0.882-0.158-1.711-0.537-2.411-1.098c-0.7,0.561-1.529,0.939-2.412,1.098
		C17.059,14.498,17.029,14.5,17,14.5c-0.242,0-0.449-0.173-0.492-0.412c-0.049-0.271,0.132-0.532,0.404-0.581
		c0.677-0.121,1.316-0.402,1.864-0.816c-0.655-0.766-1.073-1.689-1.221-2.692H16.5C16.224,10,16,9.776,16,9.5S16.224,9,16.5,9H19
		V7.5C19,7.224,19.224,7,19.5,7S20,7.224,20,7.5V9h2.5C22.776,9,23,9.224,23,9.5S22.776,10,22.5,10h-1.054
		c-0.147,1.004-0.566,1.926-1.221,2.692c0.548,0.414,1.187,0.694,1.864,0.816c0.271,0.049,0.452,0.309,0.404,0.581
		C22.449,14.327,22.242,14.5,22,14.5z M18.567,10c0.135,0.741,0.453,1.424,0.933,2c0.48-0.577,0.799-1.26,0.933-2H18.567z"/>
	<path d="M4.5,6C4.224,6,4,5.776,4,5.5v-3C4,1.121,5.121,0,6.5,0h9C16.878,0,18,1.121,18,2.5V5c0,0.276-0.224,0.5-0.5,0.5
		S17,5.276,17,5V2.5C17,1.673,16.327,1,15.5,1h-9C5.673,1,5,1.673,5,2.5v3C5,5.776,4.776,6,4.5,6z"/>
	<path d="M6.5,24C5.121,24,4,22.878,4,21.5v-3C4,18.224,4.224,18,4.5,18S5,18.224,5,18.5V19h12v-2.5c0-0.276,0.224-0.5,0.5-0.5
		s0.5,0.224,0.5,0.5v5c0,1.378-1.122,2.5-2.5,2.5H6.5z M5,21.5C5,22.327,5.673,23,6.5,23h9c0.827,0,1.5-0.673,1.5-1.5V20H5V21.5z"/>
	<circle cx="11" cy="21.5" r="0.75"/>
	<path d="M8.5,13.204c-0.176,0-0.34-0.094-0.43-0.244c-0.068-0.115-0.088-0.249-0.055-0.379c0.033-0.129,0.114-0.239,0.229-0.307
		c0.214-0.128,0.395-0.308,0.523-0.523c0.423-0.711,0.188-1.633-0.523-2.056C8.13,9.627,8.048,9.519,8.015,9.389
		C7.983,9.26,8.002,9.125,8.07,9.01C8.16,8.86,8.324,8.766,8.5,8.766c0.09,0,0.178,0.024,0.256,0.07
		c1.185,0.705,1.575,2.242,0.871,3.427c-0.212,0.357-0.513,0.658-0.871,0.871C8.679,13.18,8.59,13.204,8.5,13.204z"/>
	<path d="M11.5,15.712c-0.149,0-0.289-0.066-0.384-0.18c-0.086-0.103-0.126-0.233-0.114-0.366c0.012-0.133,0.075-0.253,0.178-0.339
		c0.323-0.269,0.611-0.578,0.857-0.918c1.613-2.236,1.106-5.367-1.129-6.98c-0.108-0.078-0.18-0.194-0.201-0.326
		c-0.021-0.132,0.01-0.264,0.088-0.372c0.094-0.13,0.246-0.207,0.406-0.207c0.105,0,0.206,0.033,0.292,0.094
		c2.683,1.936,3.291,5.693,1.355,8.376c-0.295,0.408-0.641,0.779-1.028,1.101C11.73,15.671,11.616,15.712,11.5,15.712z"/>
	<path d="M4.5,15C4.224,15,4,14.776,4,14.5V12H2v2.5C2,14.776,1.776,15,1.5,15S1,14.776,1,14.5V10c0-1.103,0.897-2,2-2s2,0.897,2,2
		v4.5C5,14.776,4.776,15,4.5,15z M4,11v-1c0-0.551-0.449-1-1-1s-1,0.449-1,1v1H4z"/>
</g>
</svg>
