<?xml version="1.0" encoding="utf-8"?>
<!-- Generator: Adobe Illustrator 22.1.0, SVG Export Plug-In . SVG Version: 6.00 Build 0)  -->
<svg version="1.1" id="Light" xmlns="http://www.w3.org/2000/svg" xmlns:xlink="http://www.w3.org/1999/xlink" x="0px" y="0px"
	 viewBox="0 0 24 24" style="enable-background:new 0 0 24 24;" xml:space="preserve">
<g>
	<title>swimming-diving-board</title>
	<path d="M0.5,24C0.224,24,0,23.776,0,23.5v-22C0,0.673,0.673,0,1.5,0h8C10.327,0,11,0.673,11,1.5V3h6c0.276,0,0.5,0.224,0.5,0.5
		S17.276,4,17,4h-5.366C9.952,4.042,8.346,4.707,7.12,5.873C5.965,6.971,5.236,8.428,5.049,10H6.5C7.327,10,8,10.673,8,11.5V13h5
		c0.276,0,0.5,0.224,0.5,0.5S13.276,14,13,14H5v9.5C5,23.776,4.776,24,4.5,24H0.5z M4,23v-9H1v9H4z M7,13v-1.5
		C7,11.224,6.776,11,6.5,11H5v2H7z M4,13v-2H1v2H4z M4.043,10c0.263-2.524,1.758-4.766,3.945-6H1v6H4.043z M10,3V1.5
		C10,1.224,9.776,1,9.5,1h-8C1.224,1,1,1.224,1,1.5V3H10z"/>
	<path d="M15.813,22.557c-1.395-0.067-2.691-0.691-3.604-1.725c-0.904,1.067-2.205,1.691-3.618,1.726
		c-0.734-0.011-1.452-0.196-2.086-0.533c-0.118-0.063-0.204-0.168-0.243-0.296c-0.039-0.128-0.026-0.263,0.037-0.381
		c0.087-0.163,0.256-0.264,0.442-0.264c0.081,0,0.162,0.02,0.234,0.058c0.495,0.264,1.053,0.408,1.613,0.417
		c1.295-0.032,2.491-0.713,3.19-1.823c0.09-0.144,0.247-0.232,0.417-0.234c0.001,0,0.001,0,0.002,0c0.175,0,0.329,0.086,0.421,0.223
		c0.719,1.086,1.925,1.772,3.226,1.834c1.283-0.031,2.476-0.713,3.174-1.823c0.092-0.146,0.25-0.234,0.423-0.234
		c0.174,0,0.332,0.088,0.424,0.235c0.011,0.017,1.177,1.815,2.963,1.815c0,0,0,0,0,0c0.188,0,0.381-0.02,0.571-0.06
		c0.035-0.007,0.069-0.01,0.101-0.01c0.236,0,0.442,0.167,0.49,0.397c0.056,0.27-0.118,0.535-0.387,0.592
		c-0.265,0.055-0.532,0.083-0.793,0.083h0c-1.623,0-2.793-1.06-3.362-1.718c-0.903,1.065-2.204,1.689-3.616,1.722
		c-0.002,0-0.004,0-0.006,0C15.821,22.557,15.817,22.557,15.813,22.557z"/>
</g>
</svg>
