<?xml version="1.0" encoding="utf-8"?>
<!-- Generator: Adobe Illustrator 22.1.0, SVG Export Plug-In . SVG Version: 6.00 Build 0)  -->
<svg version="1.1" id="Light" xmlns="http://www.w3.org/2000/svg" xmlns:xlink="http://www.w3.org/1999/xlink" x="0px" y="0px"
	 viewBox="0 0 24 24" style="enable-background:new 0 0 24 24;" xml:space="preserve">
<g>
	<title>swimming-jump</title>
	<path d="M18,9.15c-1.654,0-3-1.346-3-3s1.346-3,3-3s3,1.346,3,3S19.655,9.15,18,9.15z M18,4.15c-1.103,0-2,0.897-2,2s0.897,2,2,2
		s2-0.897,2-2S19.103,4.15,18,4.15z"/>
	<path d="M10.916,24.001c-0.087,0-0.179-0.006-0.285-0.019C10.588,23.994,10.544,24,10.5,24c-0.276,0-0.5-0.224-0.5-0.5V20H0.5
		C0.224,20,0,19.776,0,19.5S0.224,19,0.5,19H10c0.551,0,1,0.448,1,1v2.994c1-0.059,1.827-1.068,1.835-1.078
		c0.096-0.121,0.233-0.188,0.383-0.188c0.006,0,0.031,0.001,0.037,0.001c0.152,0.006,0.3,0.09,0.387,0.222
		c0.401,0.604,1.072,0.988,1.795,1.027c0.775-0.044,1.496-0.428,1.979-1.056c0.094-0.122,0.242-0.195,0.396-0.195
		c0.008,0,0.038,0.001,0.046,0.002c0.17,0.015,0.319,0.115,0.398,0.267c0.309,0.592,0.916,0.969,1.583,0.982
		c0.712-0.019,1.377-0.399,1.767-1.018c0.091-0.144,0.247-0.231,0.417-0.233c0.187,0.007,0.332,0.087,0.423,0.225
		c0.292,0.441,0.726,0.784,1.224,0.965c0.125,0.046,0.226,0.137,0.282,0.259s0.062,0.257,0.017,0.382
		c-0.071,0.196-0.26,0.329-0.469,0.329l0,0c-0.058,0-0.116-0.01-0.171-0.03c-0.488-0.177-0.93-0.462-1.295-0.833
		c-0.575,0.589-1.36,0.933-2.192,0.955c-0.808-0.016-1.565-0.368-2.086-0.956c-0.634,0.575-1.442,0.912-2.306,0.955
		c-0.871-0.041-1.672-0.4-2.255-0.996C12.715,23.428,11.902,24.001,10.916,24.001z"/>
	<path d="M8.818,18c-0.096,0-0.189-0.027-0.27-0.079c-0.232-0.149-0.299-0.459-0.15-0.691l2.051-3.189
		c0.277-0.432,0.185-0.999-0.216-1.32l-2.28-1.83c-0.165-0.132-0.229-0.356-0.159-0.556S8.054,10,8.266,10H12.5
		c0.192,0,0.379-0.055,0.54-0.159c0.225-0.145,0.38-0.368,0.436-0.629c0.057-0.261,0.008-0.528-0.136-0.753L8.806,1.406
		C8.657,1.186,8.43,1.037,8.167,0.987C8.104,0.975,8.04,0.969,7.977,0.969c-0.199,0-0.392,0.06-0.559,0.173
		c-0.221,0.15-0.37,0.377-0.421,0.639c-0.05,0.262,0.005,0.529,0.155,0.75l3.022,4.699c0.099,0.154,0.106,0.35,0.018,0.51
		C10.105,7.901,9.936,8,9.753,8H4c-0.303,0-0.587,0.136-0.777,0.373C2.877,8.804,2.946,9.434,3.375,9.78l4.553,3.654
		c0.2,0.161,0.246,0.445,0.108,0.66l-2.364,3.676C5.579,17.915,5.422,18,5.251,18l0,0c-0.096,0-0.189-0.028-0.27-0.079
		c-0.232-0.149-0.299-0.459-0.151-0.691l2.121-3.298l-4.202-3.373C1.89,9.868,1.752,8.607,2.443,7.747C2.824,7.273,3.392,7.001,4,7
		h4.838l-2.52-3.919C6.023,2.648,5.915,2.118,6.015,1.593c0.1-0.525,0.399-0.979,0.841-1.279c0.333-0.226,0.72-0.345,1.12-0.345
		c0.126,0,0.254,0.012,0.38,0.036c0.525,0.1,0.979,0.399,1.279,0.841c0.019,0.028,0.036,0.055,0.053,0.083l4.493,6.99
		c0.289,0.449,0.386,0.984,0.273,1.506c-0.113,0.522-0.423,0.969-0.872,1.258C13.259,10.89,12.885,11,12.501,11H9.688l1.171,0.94
		c0.8,0.642,0.985,1.778,0.431,2.641l-2.051,3.189C9.146,17.915,8.989,18,8.818,18z"/>
</g>
</svg>
