<?xml version="1.0" encoding="utf-8"?>
<!-- Generator: Adobe Illustrator 22.1.0, SVG Export Plug-In . SVG Version: 6.00 Build 0)  -->
<svg version="1.1" id="Light" xmlns="http://www.w3.org/2000/svg" xmlns:xlink="http://www.w3.org/1999/xlink" x="0px" y="0px"
	 viewBox="0 0 24 24" style="enable-background:new 0 0 24 24;" xml:space="preserve">
<g>
	<title>swimming-lifeguard</title>
	<path d="M13.732,23.974c-0.913-0.07-1.756-0.492-2.357-1.172c-0.289,0.293-0.613,0.551-0.967,0.768
		c-0.079,0.048-0.169,0.073-0.261,0.073c-0.176,0-0.335-0.089-0.427-0.239c-0.144-0.235-0.07-0.543,0.165-0.688
		c0.438-0.268,0.816-0.611,1.125-1.019c0.094-0.124,0.243-0.198,0.399-0.198c0.005,0,0.023,0.001,0.028,0.001
		c0.168,0.01,0.318,0.102,0.403,0.246c0.408,0.696,1.128,1.153,1.93,1.226c0.87-0.076,1.651-0.532,2.143-1.255
		c0.094-0.137,0.247-0.219,0.409-0.219c0.017,0,0.035,0.001,0.052,0.003c0.174,0.015,0.332,0.127,0.407,0.291
		c0.309,0.682,0.963,1.133,1.71,1.181c0.811-0.051,1.529-0.505,1.923-1.216c0.088-0.158,0.254-0.257,0.435-0.258
		c0.182,0,0.349,0.097,0.438,0.253c0.007,0.011,0.718,1.217,1.776,1.217c0.107,0,0.217-0.012,0.325-0.037
		c0.036-0.009,0.074-0.013,0.112-0.013c0.231,0,0.435,0.163,0.487,0.389c0.062,0.269-0.107,0.538-0.376,0.599
		c-0.189,0.043-0.379,0.065-0.565,0.065l0,0c-1.006,0-1.751-0.62-2.187-1.12c-0.594,0.67-1.431,1.074-2.341,1.122
		c-0.004,0-0.05,0-0.051,0c-0.864-0.044-1.665-0.458-2.199-1.123c-0.657,0.657-1.52,1.052-2.46,1.122
		c-0.006,0-0.031,0.001-0.037,0.001C13.763,23.975,13.738,23.974,13.732,23.974z"/>
	<path d="M18.472,20.975c-0.868-0.044-1.67-0.458-2.205-1.123c-0.657,0.657-1.52,1.052-2.46,1.122c-0.006,0-0.031,0.001-0.037,0.001
		c-0.013,0-0.025,0-0.038-0.001c-0.913-0.07-1.756-0.492-2.357-1.172c-0.289,0.293-0.613,0.551-0.967,0.768
		c-0.079,0.048-0.169,0.073-0.261,0.073c-0.175,0-0.335-0.089-0.427-0.238c-0.144-0.235-0.07-0.543,0.165-0.688
		c0.438-0.268,0.816-0.611,1.125-1.019c0.094-0.124,0.243-0.198,0.398-0.198c0.005,0,0.026,0.001,0.031,0.001
		c0.166,0.01,0.317,0.102,0.401,0.246c0.408,0.696,1.128,1.153,1.93,1.226c0.87-0.076,1.651-0.532,2.143-1.255
		c0.094-0.137,0.247-0.219,0.41-0.219c0.009,0,0.041,0.002,0.05,0.002c0.176,0.015,0.334,0.127,0.408,0.291
		c0.309,0.682,0.963,1.133,1.71,1.181c0.811-0.051,1.529-0.505,1.923-1.216c0.088-0.158,0.254-0.257,0.435-0.258
		c0.182,0,0.349,0.097,0.438,0.253c0.007,0.011,0.718,1.217,1.776,1.217c0.107,0,0.217-0.012,0.325-0.037
		c0.035-0.009,0.074-0.013,0.113-0.013c0.23,0,0.435,0.163,0.486,0.389c0.062,0.269-0.107,0.538-0.376,0.599
		c-0.188,0.043-0.379,0.065-0.565,0.065c-1.007,0-1.751-0.62-2.188-1.12c-0.594,0.67-1.431,1.074-2.341,1.122
		c-0.004,0-0.019,0-0.024,0C18.492,20.975,18.474,20.975,18.472,20.975z"/>
	<path d="M5,5C3.621,5,2.5,3.879,2.5,2.5C2.479,1.862,2.713,1.245,3.158,0.77c0.446-0.475,1.049-0.748,1.7-0.769L4.92,0
		c1.41,0,2.536,1.091,2.579,2.485C7.5,3.879,6.378,5,5,5z M4.933,1L4.888,1.001c-0.381,0.012-0.738,0.173-1,0.453
		S3.487,2.1,3.499,2.484C3.5,3.323,4.173,4,5,4c0.825,0,1.498-0.671,1.5-1.497C6.472,1.664,5.785,1,4.937,1L4.928,0.75L4.933,1z"/>
	<path d="M8,24c-0.258,0-0.472-0.194-0.497-0.45L7.148,20H1.853l-0.355,3.55C1.472,23.806,1.259,24,1.001,24
		c-0.015,0-0.031-0.001-0.047-0.002c-0.278-0.028-0.479-0.273-0.451-0.547L1.448,14H1.001c-0.258,0-0.477-0.201-0.498-0.458l-0.5-6
		c-0.023-0.275,0.182-0.517,0.457-0.54C0.466,7.001,0.495,7,0.502,7c0.257,0,0.475,0.201,0.497,0.459L1.461,13h1.807
		C3.093,12.699,3,12.357,3,12V8c0-1.103,0.897-2,2-2s2,0.897,2,2v2h2.192c0.953,0,1.81,0.53,2.236,1.383l1.818,3.626
		c0.5,0.938,0.206,2.098-0.688,2.692c-0.326,0.198-0.688,0.301-1.056,0.301c-0.705,0-1.344-0.358-1.709-0.958
		c-0.03-0.049-0.057-0.099-0.083-0.15L8.265,14H7.553l0.945,9.45c0.027,0.275-0.174,0.52-0.448,0.547C8.032,23.999,8.016,24,8,24z
		 M7.048,19l-0.2-2H2.153l-0.2,2H7.048z M5,7C4.448,7,4,7.449,4,8v4c0,0.552,0.449,1,1,1h3.574c0.191,0,0.362,0.106,0.447,0.276
		l1.585,3.171c0.013,0.027,0.027,0.052,0.042,0.076c0.183,0.3,0.503,0.48,0.856,0.48c0.182,0,0.362-0.051,0.518-0.146
		c0.45-0.299,0.598-0.899,0.337-1.389l-1.825-3.638C10.278,11.318,9.764,11,9.192,11H6.5C6.224,11,6,10.776,6,10.5V8
		C6,7.449,5.551,7,5,7z M6.748,16l-0.2-2H2.453l-0.2,2H6.748z"/>
</g>
</svg>
