<?xml version="1.0" encoding="utf-8"?>
<!-- Generator: Adobe Illustrator 22.1.0, SVG Export Plug-In . SVG Version: 6.00 Build 0)  -->
<svg version="1.1" id="Light" xmlns="http://www.w3.org/2000/svg" xmlns:xlink="http://www.w3.org/1999/xlink" x="0px" y="0px"
	 viewBox="0 0 24 24" style="enable-background:new 0 0 24 24;" xml:space="preserve">
<g>
	<title>swimming-diving</title>
	<path d="M19,14.64c-1.654,0-3-1.346-3-3c0-1.654,1.346-3,3-3s3,1.346,3,3C22,13.294,20.654,14.64,19,14.64z M19,9.64
		c-1.103,0-2,0.897-2,2s0.897,2,2,2s2-0.897,2-2S20.103,9.64,19,9.64z"/>
	<path d="M16.731,20.571c-0.696,0-1.331-0.351-1.699-0.939l-2.785-4.445c-0.177-0.283-0.424-0.519-0.714-0.682
		c0,0-3.328-1.868-3.331-1.87c-0.006-0.003-0.012-0.007-0.018-0.011l-0.497-0.279c-0.84-0.472-1.563-1.152-2.093-1.97
		c-0.033-0.039-0.06-0.081-0.08-0.128C5.272,9.853,5.08,9.445,4.942,9.037L2.378,1.619C2.285,1.35,2.311,1.052,2.451,0.803
		C2.582,0.57,2.795,0.402,3.052,0.329c0.089-0.025,0.18-0.038,0.272-0.038c0.17,0,0.339,0.044,0.488,0.128l2.115,1.188
		c0.533,0.3,0.936,0.782,1.137,1.359l1.662,4.777c0.163,0.482,0.487,0.873,0.918,1.115l0.606,0.34c0.01,0.005,0.02,0.01,0.029,0.015
		c0.006,0.004,0.012,0.008,0.018,0.012l3.194,1.793c0.873,0.49,1.616,1.198,2.147,2.046l2.728,4.353
		c0.572,0.863,0.408,2.031-0.385,2.711c-0.074,0.059-0.133,0.101-0.195,0.139C17.469,20.466,17.104,20.571,16.731,20.571z
		 M12.023,13.634c0.436,0.245,0.807,0.599,1.072,1.023l2.785,4.445c0.184,0.294,0.501,0.469,0.85,0.469
		c0.187,0,0.369-0.052,0.528-0.152c0.032-0.02,0.061-0.04,0.089-0.062c0.398-0.342,0.479-0.946,0.18-1.397l-2.735-4.364
		c-0.443-0.707-1.061-1.297-1.789-1.706l-2.808-1.577l-1.041,1.708L12.023,13.634z M6.63,10.121c0.414,0.55,0.945,1.015,1.547,1.353
		l0.104,0.058l1.041-1.708L9.155,9.731C8.728,9.491,8.37,9.153,8.106,8.742L6.63,10.121z M5.888,8.714
		c0.061,0.18,0.132,0.357,0.214,0.531l1.575-1.471L6.12,3.295C5.999,2.949,5.757,2.659,5.438,2.48L3.324,1.293L5.888,8.714z"/>
	<path d="M22.814,23.712c-1.696,0-3.074-1.137-3.74-1.809c-0.914,1.064-2.22,1.706-3.629,1.773
		c-1.503-0.073-2.862-0.682-3.882-1.721c-0.796,1.06-2.034,1.698-3.373,1.723c-1.428-0.033-2.733-0.656-3.637-1.721
		c-0.569,0.657-1.737,1.717-3.36,1.717c-0.262,0-0.53-0.028-0.795-0.083c-0.27-0.057-0.444-0.322-0.388-0.592
		c0.048-0.231,0.254-0.398,0.49-0.398c0.033,0,0.066,0.003,0.099,0.01c0.194,0.04,0.388,0.061,0.577,0.061c0,0,0,0,0,0
		c1.793,0,2.947-1.796,2.959-1.814c0.091-0.146,0.249-0.235,0.423-0.235c0.174,0,0.333,0.087,0.425,0.234
		c0.698,1.11,1.898,1.791,3.209,1.822c1.2-0.023,2.302-0.708,2.864-1.788c0.079-0.152,0.229-0.252,0.4-0.267
		c0.013-0.001,0.03-0.002,0.047-0.002c0.152,0,0.3,0.073,0.394,0.196c0.855,1.112,2.149,1.791,3.55,1.861
		c1.261-0.062,2.458-0.747,3.176-1.832c0.088-0.133,0.236-0.217,0.396-0.224c0.173,0.001,0.319,0.071,0.414,0.19
		c0.015,0.019,1.533,1.9,3.394,1.9c0.19,0,0.38-0.02,0.564-0.059c0.034-0.007,0.069-0.011,0.104-0.011
		c0.234,0,0.44,0.166,0.489,0.396c0.057,0.27-0.115,0.536-0.385,0.594C23.341,23.685,23.077,23.712,22.814,23.712L22.814,23.712z"/>
</g>
</svg>
