<?xml version="1.0" encoding="utf-8"?>
<!-- Generator: Adobe Illustrator 22.1.0, SVG Export Plug-In . SVG Version: 6.00 Build 0)  -->
<svg version="1.1" id="Layer_1" xmlns="http://www.w3.org/2000/svg" xmlns:xlink="http://www.w3.org/1999/xlink" x="0px" y="0px"
	 viewBox="0 0 24 24" style="enable-background:new 0 0 24 24;" xml:space="preserve">
<g>
	<title>railroad-locomotive-cargo</title>
	<path d="M20,20c-0.913,0-1.709-0.631-1.934-1.5h-0.131C17.709,19.369,16.913,20,16,20c-1.103,0-2-0.897-2-2
		c0-0.231,0.04-0.457,0.119-0.674l-0.265-0.265c-0.513-0.57-0.812-1.289-0.853-2.033l0-0.027H11
		c-0.041,0.766-0.337,1.486-0.835,2.041l-0.284,0.284C9.96,17.543,10,17.769,10,18c0,1.103-0.897,2-2,2
		c-0.913,0-1.709-0.631-1.934-1.5H5.934C5.709,19.369,4.913,20,4,20c-1.103,0-2-0.897-2-2c0-0.231,0.04-0.457,0.119-0.674
		l-0.265-0.265c-0.513-0.571-0.812-1.289-0.853-2.034l0-0.113C0.41,14.705,0,14.14,0,13.5s0.41-1.205,1-1.414V4.5
		C1,3.673,1.673,3,2.5,3h19C22.327,3,23,3.673,23,4.5v7.586c0.59,0.209,1,0.774,1,1.414s-0.41,1.205-1,1.414V15
		c-0.041,0.766-0.337,1.486-0.835,2.041l-0.284,0.284C21.96,17.543,22,17.769,22,18C22,19.103,21.103,20,20,20z M20,17
		c-0.552,0-1,0.448-1,1s0.448,1,1,1s1-0.448,1-1S20.552,17,20,17z M16,17c-0.552,0-1,0.448-1,1s0.448,1,1,1s1-0.448,1-1
		S16.552,17,16,17z M8,17c-0.551,0-1,0.448-1,1s0.449,1,1,1s1-0.448,1-1S8.551,17,8,17z M4,17c-0.551,0-1,0.448-1,1s0.449,1,1,1
		s1-0.448,1-1S4.551,17,4,17z M18.066,17.5C18.291,16.631,19.087,16,20,16c0.48,0,0.943,0.175,1.305,0.488l0.135-0.134
		c0.325-0.363,0.526-0.846,0.56-1.354H14c0.028,0.495,0.233,0.988,0.579,1.373l0.115,0.115C15.056,16.176,15.52,16,16,16
		c0.913,0,1.709,0.631,1.934,1.5H18.066z M6.066,17.5C6.291,16.631,7.087,16,8,16c0.48,0,0.943,0.175,1.305,0.488l0.134-0.134
		C9.764,15.99,9.966,15.507,9.999,15H2c0.028,0.495,0.233,0.988,0.579,1.373l0.116,0.115C3.056,16.176,3.52,16,4,16
		c0.913,0,1.709,0.631,1.934,1.5H6.066z M1.5,13C1.224,13,1,13.224,1,13.5S1.224,14,1.5,14h21c0.276,0,0.5-0.224,0.5-0.5
		S22.776,13,22.5,13H1.5z M22,12V4.5C22,4.224,21.776,4,21.5,4h-19C2.224,4,2,4.224,2,4.5V12H22z"/>
	<path d="M4.5,11C4.224,11,4,10.776,4,10.5v-5C4,5.224,4.224,5,4.5,5S5,5.224,5,5.5v5C5,10.776,4.776,11,4.5,11z"/>
	<path d="M7.5,11C7.224,11,7,10.776,7,10.5v-5C7,5.224,7.224,5,7.5,5S8,5.224,8,5.5v5C8,10.776,7.776,11,7.5,11z"/>
	<path d="M10.5,11c-0.276,0-0.5-0.224-0.5-0.5v-5C10,5.224,10.224,5,10.5,5S11,5.224,11,5.5v5C11,10.776,10.776,11,10.5,11z"/>
	<path d="M13.5,11c-0.276,0-0.5-0.224-0.5-0.5v-5C13,5.224,13.224,5,13.5,5S14,5.224,14,5.5v5C14,10.776,13.776,11,13.5,11z"/>
	<path d="M16.5,11c-0.276,0-0.5-0.224-0.5-0.5v-5C16,5.224,16.224,5,16.5,5S17,5.224,17,5.5v5C17,10.776,16.776,11,16.5,11z"/>
	<path d="M19.5,11c-0.276,0-0.5-0.224-0.5-0.5v-5C19,5.224,19.224,5,19.5,5S20,5.224,20,5.5v5C20,10.776,19.776,11,19.5,11z"/>
	<path d="M0.5,21C0.224,21,0,20.776,0,20.5S0.224,20,0.5,20h23c0.276,0,0.5,0.224,0.5,0.5S23.776,21,23.5,21H0.5z"/>
</g>
</svg>
