<?xml version="1.0" encoding="utf-8"?>
<!-- Generator: Adobe Illustrator 22.1.0, SVG Export Plug-In . SVG Version: 6.00 Build 0)  -->
<svg version="1.1" id="Layer_1" xmlns="http://www.w3.org/2000/svg" xmlns:xlink="http://www.w3.org/1999/xlink" x="0px" y="0px"
	 viewBox="0 0 24 24" style="enable-background:new 0 0 24 24;" xml:space="preserve">
<g>
	<title>railroad-wagon</title>
	<path d="M17.557,20.5c-1.378,0-2.5-1.122-2.5-2.5c0-0.167,0.017-0.334,0.052-0.5h-1.104c0.035,0.166,0.052,0.333,0.052,0.5
		c0,1.378-1.121,2.5-2.5,2.5s-2.5-1.122-2.5-2.5c0-0.167,0.017-0.334,0.052-0.5H8.005c0.034,0.166,0.052,0.333,0.052,0.5
		c0,1.378-1.121,2.5-2.5,2.5s-2.5-1.122-2.5-2.5c0-0.167,0.017-0.334,0.052-0.5H0.557c-0.276,0-0.5-0.224-0.5-0.5v-4.707
		c0-0.972,0.431-1.883,1.183-2.5c0.519-0.426,0.817-1.055,0.817-1.726V4.5h-1.5c-0.276,0-0.5-0.224-0.5-0.5s0.224-0.5,0.5-0.5h12
		c0.276,0,0.5,0.224,0.5,0.5s-0.224,0.5-0.5,0.5h-0.5v5h5v-3h-0.5c-0.276,0-0.5-0.224-0.5-0.5s0.224-0.5,0.5-0.5h4
		c0.276,0,0.5,0.224,0.5,0.5s-0.224,0.5-0.5,0.5h-0.5v3h1c1.508,0,1.625,3.062,1.625,4c0,0.692-0.062,2.322-0.6,3.279l1.672,1.33
		c0.105,0.083,0.171,0.202,0.186,0.334c0.015,0.133-0.022,0.263-0.106,0.368C23.739,18.931,23.597,19,23.443,19
		c-0.113,0-0.223-0.039-0.311-0.109L21.383,17.5h-1.377c0.035,0.166,0.052,0.333,0.052,0.5C20.057,19.378,18.936,20.5,17.557,20.5z
		 M16.218,17.325c-0.107,0.211-0.161,0.438-0.161,0.675c0,0.827,0.673,1.5,1.5,1.5s1.5-0.673,1.5-1.5c0-0.236-0.057-0.47-0.164-0.68
		c-0.03-0.037-0.055-0.079-0.074-0.126C18.54,16.759,18.07,16.5,17.557,16.5c-0.509,0-0.976,0.255-1.256,0.684
		C16.281,17.237,16.253,17.284,16.218,17.325z M11.557,16.5c-0.827,0-1.5,0.673-1.5,1.5s0.673,1.5,1.5,1.5
		c0.827,0,1.5-0.673,1.5-1.5S12.384,16.5,11.557,16.5z M4.219,17.325C4.113,17.534,4.057,17.766,4.057,18c0,0.827,0.673,1.5,1.5,1.5
		s1.5-0.673,1.5-1.5c0-0.239-0.055-0.468-0.164-0.68c-0.03-0.037-0.055-0.079-0.075-0.126C6.54,16.759,6.07,16.5,5.557,16.5
		c-0.509,0-0.977,0.255-1.256,0.684C4.281,17.237,4.253,17.284,4.219,17.325z M21.057,16.5c0.029-0.011,0.204-0.173,0.363-0.731
		c0.167-0.583,0.262-1.41,0.262-2.269c0-1.959-0.454-2.941-0.634-3.001L12.057,10.5c-0.551,0-1-0.449-1-1v-5h-8v3.567
		c0,0.972-0.431,1.883-1.183,2.5c-0.519,0.426-0.817,1.055-0.817,1.726V16.5h2.501c0.472-0.629,1.21-1,1.999-1s1.526,0.371,1.999,1
		h2.003c0.472-0.629,1.21-1,1.999-1s1.526,0.371,1.998,1h2.003c0.472-0.629,1.209-1,1.999-1s1.526,0.371,1.999,1H21.057z
		 M19.057,9.5v-3h-1v3H19.057z"/>
	<path d="M6.554,9.5c-0.551,0-1-0.449-1-1v-2c0-0.551,0.449-1,1-1h2.504c0.551,0,1,0.449,1,1v2c0,0.551-0.449,1-1,1H6.554z
		 M6.554,8.5h2.504v-2H6.555L6.554,8.5z"/>
</g>
</svg>
