<?xml version="1.0" encoding="utf-8"?>
<!-- Generator: Adobe Illustrator 22.1.0, SVG Export Plug-In . SVG Version: 6.00 Build 0)  -->
<svg version="1.1" id="Layer_1" xmlns="http://www.w3.org/2000/svg" xmlns:xlink="http://www.w3.org/1999/xlink" x="0px" y="0px"
	 viewBox="0 0 24 24" style="enable-background:new 0 0 24 24;" xml:space="preserve">
<g>
	<title>railroad</title>
	<path d="M4.5,24C4.224,24,4,23.776,4,23.5V22H1c-0.551,0-1-0.448-1-1v-3c0-0.552,0.449-1,1-1h3v-2H1c-0.551,0-1-0.448-1-1v-3
		c0-0.551,0.449-1,1-1h3V8H1C0.449,8,0,7.551,0,7V4c0-0.551,0.449-1,1-1h3V0.5C4,0.224,4.224,0,4.5,0S5,0.224,5,0.5v23
		C5,23.776,4.776,24,4.5,24z M1,21h3v-3H1L1,21z M1,14h3v-3H1L1,14z M1,7h3V4H1L1,7z"/>
	<path d="M16.5,24c-0.276,0-0.5-0.224-0.5-0.5V22H8v1.5C8,23.776,7.776,24,7.5,24S7,23.776,7,23.5v-23C7,0.224,7.224,0,7.5,0
		S8,0.224,8,0.5V3h8V0.5C16,0.224,16.224,0,16.5,0S17,0.224,17,0.5v23C17,23.776,16.776,24,16.5,24z M16,21v-3H8v3H16z M16,17v-2H8
		v2H16z M16,14v-3H8v3H16z M16,10V8H8v2H16z M16,7V4H8v3H16z"/>
	<path d="M19.5,24c-0.276,0-0.5-0.224-0.5-0.5v-23C19,0.224,19.224,0,19.5,0S20,0.224,20,0.5V3h3c0.552,0,1,0.449,1,1v3
		c0,0.551-0.448,1-1,1h-3v2h3c0.552,0,1,0.449,1,1v3c0,0.552-0.448,1-1,1h-3v2h3c0.552,0,1,0.448,1,1v3c0,0.552-0.448,1-1,1h-3v1.5
		C20,23.776,19.776,24,19.5,24z M23,21v-3h-3v3H23z M23,14v-3h-3v3H23z M23,7V4h-3v3H23z"/>
</g>
</svg>
