<?xml version="1.0" encoding="utf-8"?>
<!-- Generator: Adobe Illustrator 22.1.0, SVG Export Plug-In . SVG Version: 6.00 Build 0)  -->
<svg version="1.1" id="Layer_1" xmlns="http://www.w3.org/2000/svg" xmlns:xlink="http://www.w3.org/1999/xlink" x="0px" y="0px"
	 viewBox="0 0 24 24" style="enable-background:new 0 0 24 24;" xml:space="preserve">
<g>
	<title>railroad-train</title>
	<path d="M8.5,18.5c-1.103,0-2-0.897-2-2s0.897-2,2-2s2,0.897,2,2S9.603,18.5,8.5,18.5z M8.5,15.5c-0.551,0-1,0.448-1,1s0.449,1,1,1
		s1-0.448,1-1S9.051,15.5,8.5,15.5z"/>
	<path d="M15.5,18.5c-1.103,0-2-0.897-2-2s0.897-2,2-2s2,0.897,2,2S16.603,18.5,15.5,18.5z M15.5,15.5c-0.552,0-1,0.448-1,1
		s0.448,1,1,1s1-0.448,1-1S16.052,15.5,15.5,15.5z"/>
	<path d="M22.5,24c-0.09,0-0.179-0.025-0.257-0.071L17.361,21H6.638l-4.881,2.929C1.68,23.975,1.591,24,1.5,24
		c-0.175,0-0.339-0.093-0.429-0.243c-0.142-0.237-0.065-0.544,0.171-0.686l3.659-2.196C4.372,20.644,4,20.115,4,19.5v-7l0.502-6.042
		C4.5,5.821,4.761,5.2,5.234,4.73C5.707,4.259,6.334,4,7,4h2.5V1h-2C7.224,1,7,0.776,7,0.5S7.224,0,7.5,0h9
		C16.776,0,17,0.224,17,0.5S16.776,1,16.5,1h-2v3H17c1.378,0,2.5,1.121,2.5,2.5c0,0,0.5,5.992,0.5,6c0,0.007,0,0.014-0.001,0.021
		L20,19.5c0,0.615-0.372,1.144-0.902,1.376l3.659,2.196c0.236,0.142,0.313,0.449,0.171,0.686C22.839,23.907,22.675,24,22.5,24z
		 M5,19.5C5,19.776,5.224,20,5.5,20h13c0.276,0,0.5-0.224,0.5-0.5V13H4.999L5,19.5z M18.958,12l-0.456-5.458
		C18.5,5.682,17.827,5,17,5H7C6.173,5,5.5,5.673,5.5,6.5L5.043,12H18.958z M13.5,4V1h-3v3H13.5z"/>
</g>
</svg>
