<?xml version="1.0" encoding="utf-8"?>
<!-- Generator: Adobe Illustrator 22.1.0, SVG Export Plug-In . SVG Version: 6.00 Build 0)  -->
<svg version="1.1" id="Layer_1" xmlns="http://www.w3.org/2000/svg" xmlns:xlink="http://www.w3.org/1999/xlink" x="0px" y="0px"
	 viewBox="0 0 24 24" style="enable-background:new 0 0 24 24;" xml:space="preserve">
<g>
	<title>dating-lips</title>
	<path d="M12.004,18c-5.39,0-9.583-3.678-11.602-5.871c-0.276-0.298-0.418-0.703-0.391-1.115c0-0.005,0-0.01,0-0.014
		c0-0.043,0.009-0.075,0.014-0.091c0.039-0.334,0.204-0.662,0.46-0.899c0.023-0.021,0.046-0.041,0.07-0.061
		C3.769,7.329,6.289,6,8.044,6c2.092,0,2.855,0.676,3.411,1.17c0.293,0.26,0.394,0.33,0.548,0.33c0.165,0,0.28-0.087,0.565-0.334
		C13.137,6.674,13.915,6,16.004,6c1.751,0,4.259,1.329,7.453,3.95c0.308,0.253,0.5,0.61,0.541,1.006
		C24,10.971,24.002,10.986,24.002,11c0,0.006,0,0.013-0.001,0.02c0.023,0.379-0.096,0.748-0.335,1.04
		c-0.019,0.023-0.039,0.046-0.06,0.068C21.582,14.321,17.384,18,12.004,18z M1.182,11.5C3.107,13.578,7.034,17,12.004,17
		c4.958,0,8.89-3.421,10.822-5.5H1.182z M22.549,10.5C18.974,7.615,17.019,7,16.004,7c-1.715,0-2.281,0.49-2.78,0.922
		C12.895,8.206,12.556,8.5,12.004,8.5c-0.556,0-0.904-0.309-1.212-0.582C10.306,7.488,9.756,7,8.044,7
		c-1.451,0-3.722,1.209-6.581,3.5H22.549z"/>
</g>
</svg>
