<?xml version="1.0" encoding="utf-8"?>
<!-- Generator: Adobe Illustrator 22.1.0, SVG Export Plug-In . SVG Version: 6.00 Build 0)  -->
<svg version="1.1" id="Layer_1" xmlns="http://www.w3.org/2000/svg" xmlns:xlink="http://www.w3.org/1999/xlink" x="0px" y="0px"
	 viewBox="0 0 24 24" style="enable-background:new 0 0 24 24;" xml:space="preserve">
<g>
	<title>dating-chat-woman</title>
	<path d="M12.5,11.444c-0.137,0-0.269-0.057-0.363-0.156c-0.132-0.14-0.173-0.346-0.103-0.525l0.667-1.708
		C11.648,8.133,11.03,6.814,11,5.407c0-2.983,2.916-5.406,6.5-5.406S24,2.423,24,5.4c0,2.975-2.916,5.395-6.5,5.395
		c-0.715,0-1.414-0.096-2.091-0.285l-2.753,0.908C12.605,11.435,12.553,11.444,12.5,11.444z M17.5,1.001
		c-3.033,0-5.5,1.972-5.5,4.395c0.027,1.227,0.61,2.359,1.599,3.1c0.179,0.134,0.248,0.374,0.167,0.582l-0.413,1.058l1.891-0.624
		c0.05-0.017,0.103-0.025,0.156-0.025c0.049,0,0.097,0.007,0.144,0.021c0.632,0.191,1.285,0.287,1.944,0.287
		C20.532,9.795,23,7.823,23,5.4C23,2.974,20.532,1.001,17.5,1.001z"/>
	<path d="M17.572,8.081c-0.259,0-0.505-0.099-0.692-0.277L16.85,7.773l-1.799-1.876c-0.536-0.535-0.669-1.359-0.326-2.044
		c0.212-0.425,0.577-0.742,1.028-0.892c0.183-0.061,0.373-0.092,0.564-0.092c0.276,0,0.543,0.063,0.793,0.188
		c0.171,0.085,0.326,0.197,0.461,0.332c0.335-0.335,0.781-0.52,1.255-0.52c0.475,0,0.921,0.185,1.257,0.52
		c0.136,0.136,0.249,0.292,0.334,0.464c0.343,0.684,0.209,1.509-0.333,2.051l-1.789,1.869C18.105,7.972,17.848,8.081,17.572,8.081z
		 M16.316,3.869c-0.083,0-0.167,0.014-0.247,0.04c-0.197,0.066-0.357,0.204-0.45,0.39c-0.15,0.3-0.091,0.661,0.146,0.898
		l1.807,1.885l1.797-1.877c0.243-0.243,0.303-0.606,0.153-0.906c-0.038-0.076-0.087-0.144-0.146-0.203
		c-0.146-0.146-0.342-0.227-0.549-0.227c-0.208,0-0.403,0.081-0.55,0.228L17.924,4.45c-0.094,0.094-0.22,0.146-0.354,0.146
		c-0.134,0-0.26-0.052-0.354-0.147l-0.352-0.353c-0.059-0.059-0.127-0.108-0.202-0.145C16.553,3.897,16.436,3.869,16.316,3.869z"/>
	<path d="M13.5,24c-0.19,0-0.361-0.105-0.447-0.275C11.894,21.427,9.57,20,6.988,20c-1.064,0-2.089,0.244-3.044,0.726
		c-1.304,0.658-2.34,1.695-2.998,2.998C0.86,23.894,0.689,24,0.499,24c-0.078,0-0.156-0.019-0.225-0.054
		c-0.119-0.06-0.208-0.163-0.249-0.29s-0.031-0.262,0.029-0.382c0.755-1.496,1.944-2.685,3.44-3.44C4.59,19.281,5.766,19,6.987,19
		c2.962,0,5.628,1.638,6.958,4.274c0.06,0.119,0.07,0.254,0.029,0.381s-0.13,0.23-0.25,0.29C13.655,23.981,13.578,24,13.5,24
		L13.5,24z"/>
	<path d="M6.997,18.503c-1.586,0-3.037-0.843-3.841-2.168c-0.127,0.675-0.372,1.327-0.726,1.921C2.34,18.406,2.175,18.5,1.999,18.5
		c-0.09,0-0.178-0.024-0.256-0.071c-0.237-0.141-0.315-0.449-0.173-0.686c0.49-0.823,0.726-1.763,0.68-2.72l0-1.274
		C2.25,11.131,4.38,9,7,9s4.75,2.131,4.75,4.75V15c-0.046,0.977,0.189,1.921,0.679,2.744c0.141,0.236,0.063,0.544-0.173,0.685
		C12.178,18.475,12.09,18.5,12,18.5c-0.176,0-0.34-0.094-0.43-0.244c-0.353-0.591-0.598-1.242-0.725-1.917
		c-0.703,1.165-1.899,1.956-3.286,2.13C7.372,18.491,7.183,18.503,6.997,18.503z M3.629,14.93c0.413,1.506,1.789,2.573,3.366,2.573
		c0.146,0,0.294-0.009,0.439-0.028c1.416-0.177,2.567-1.186,2.938-2.546C9.101,14.727,7.92,14.132,7,13.232
		C6.08,14.132,4.9,14.726,3.629,14.93z M7,10c-2.068,0-3.75,1.682-3.75,3.75v0.223c1.301-0.153,2.517-0.798,3.37-1.797
		c0.093-0.109,0.231-0.171,0.38-0.171s0.288,0.062,0.38,0.171c0.852,0.999,2.068,1.645,3.37,1.797V13.75C10.75,11.682,9.067,10,7,10
		z"/>
</g>
</svg>
