<?xml version="1.0" encoding="utf-8"?>
<!-- Generator: Adobe Illustrator 22.1.0, SVG Export Plug-In . SVG Version: 6.00 Build 0)  -->
<svg version="1.1" id="Layer_1" xmlns="http://www.w3.org/2000/svg" xmlns:xlink="http://www.w3.org/1999/xlink" x="0px" y="0px"
	 viewBox="0 0 24 24" style="enable-background:new 0 0 24 24;" xml:space="preserve">
<g>
	<title>dating-target-1</title>
	<path d="M12,24c-0.276,0-0.5-0.224-0.5-0.5v-2.517c-4.571-0.251-8.232-3.913-8.483-8.483H0.5C0.224,12.5,0,12.276,0,12
		c0-0.276,0.224-0.5,0.5-0.5h2.517C3.268,6.929,6.929,3.268,11.5,3.017V0.5C11.5,0.224,11.724,0,12,0c0.276,0,0.5,0.224,0.5,0.5
		v2.517c4.571,0.251,8.232,3.913,8.483,8.483H23.5c0.276,0,0.5,0.224,0.5,0.5c0,0.276-0.224,0.5-0.5,0.5h-2.517
		c-0.251,4.571-3.913,8.232-8.483,8.483V23.5C12.5,23.776,12.276,24,12,24z M12,18.262c0.276,0,0.5,0.224,0.5,0.5v1.22
		c4.014-0.249,7.233-3.468,7.482-7.482h-1.221c-0.276,0-0.5-0.224-0.5-0.5c0-0.276,0.224-0.5,0.5-0.5h1.221
		c-0.249-4.014-3.468-7.233-7.482-7.482V5.24c0,0.276-0.224,0.5-0.5,0.5c-0.276,0-0.5-0.224-0.5-0.5V4.018
		C7.486,4.267,4.267,7.486,4.018,11.5h1.221c0.276,0,0.5,0.224,0.5,0.5c0,0.276-0.224,0.5-0.5,0.5H4.018
		c0.249,4.014,3.468,7.233,7.482,7.482v-1.22C11.5,18.486,11.724,18.262,12,18.262z"/>
	<path d="M12,16.277c-0.259,0-0.505-0.099-0.692-0.278l-0.031-0.031L8.23,12.79c-0.761-0.762-0.949-1.928-0.464-2.899
		C8.067,9.29,8.583,8.842,9.221,8.629c0.26-0.086,0.528-0.13,0.798-0.13c0.392,0,0.77,0.09,1.124,0.267
		c0.242,0.121,0.462,0.28,0.653,0.471L12,9.441l0.203-0.203c0.475-0.475,1.107-0.736,1.78-0.736c0.673,0,1.305,0.262,1.78,0.736
		c0.192,0.192,0.35,0.411,0.471,0.653c0.485,0.971,0.295,2.139-0.472,2.906l-3.041,3.172C12.531,16.167,12.275,16.277,12,16.277z
		 M10.019,9.5c-0.163,0-0.325,0.026-0.481,0.079c-0.384,0.128-0.696,0.398-0.877,0.76c-0.293,0.585-0.178,1.289,0.284,1.752
		L12,15.277l3.048-3.179c0.469-0.469,0.584-1.174,0.292-1.76c-0.073-0.145-0.168-0.278-0.284-0.394
		c-0.286-0.286-0.667-0.444-1.073-0.444s-0.787,0.157-1.073,0.443l-0.557,0.557c-0.091,0.091-0.22,0.144-0.354,0.144
		s-0.262-0.052-0.354-0.144l-0.557-0.557c-0.115-0.115-0.248-0.211-0.394-0.284C10.482,9.554,10.254,9.5,10.019,9.5z"/>
</g>
</svg>
