<?xml version="1.0" encoding="utf-8"?>
<!-- Generator: Adobe Illustrator 22.1.0, SVG Export Plug-In . SVG Version: 6.00 Build 0)  -->
<svg version="1.1" id="Layer_1" xmlns="http://www.w3.org/2000/svg" xmlns:xlink="http://www.w3.org/1999/xlink" x="0px" y="0px"
	 viewBox="0 0 24 24" style="enable-background:new 0 0 24 24;" xml:space="preserve">
<g>
	<title>dating-smartphone-woman</title>
	<path d="M7.002,22.248c-0.414,0-0.75-0.336-0.75-0.75s0.336-0.75,0.75-0.75c0.409,0,0.743,0.329,0.75,0.737
		c0,0.004,0,0.022,0,0.027C7.744,21.919,7.41,22.248,7.002,22.248C7.002,22.248,7.002,22.248,7.002,22.248z"/>
	<path d="M2.501,23.998c-1.379,0-2.5-1.122-2.5-2.5v-19c0-1.379,1.121-2.5,2.5-2.5h7.5c0.276,0,0.5,0.224,0.5,0.5
		s-0.224,0.5-0.5,0.5h-7.5c-0.827,0-1.5,0.673-1.5,1.5v16.5h0.529c0.255-2.823,2.613-5,5.471-5s5.216,2.177,5.471,5h0.529v-8
		c0-0.276,0.224-0.5,0.5-0.5s0.5,0.224,0.5,0.5v10.5c0,1.378-1.121,2.5-2.5,2.5H2.501z M1.001,21.498c0,0.827,0.673,1.5,1.5,1.5h9
		c0.827,0,1.5-0.673,1.5-1.5v-1.5h-12V21.498z M11.474,18.998c-0.25-2.263-2.166-4-4.473-4s-4.223,1.737-4.473,4H11.474z"/>
	<path d="M17.501,11.275c-0.26,0-0.505-0.099-0.692-0.278c0,0-0.027-0.026-0.031-0.031l-4.752-4.957
		c-1.069-1.068-1.333-2.702-0.653-4.062c0.422-0.843,1.146-1.47,2.039-1.768c0.363-0.121,0.739-0.183,1.118-0.183
		c0.548,0,1.078,0.126,1.574,0.374c0.34,0.17,0.648,0.392,0.916,0.66l0.481,0.481l0.482-0.482c0.666-0.666,1.551-1.033,2.493-1.033
		s1.827,0.367,2.493,1.033c0.268,0.268,0.49,0.576,0.66,0.915c0.68,1.36,0.414,2.995-0.661,4.07l-4.746,4.95
		C18.036,11.163,17.773,11.275,17.501,11.275z M14.529,0.998c-0.271,0-0.54,0.044-0.801,0.131c-0.64,0.213-1.159,0.663-1.461,1.266
		c-0.487,0.974-0.297,2.145,0.473,2.915l4.76,4.966l4.753-4.958c0.776-0.776,0.968-1.949,0.481-2.922
		c-0.122-0.243-0.281-0.464-0.473-0.656c-0.477-0.477-1.112-0.74-1.786-0.74s-1.309,0.263-1.786,0.74l-0.835,0.835
		c-0.094,0.094-0.22,0.146-0.354,0.146s-0.259-0.052-0.354-0.146l-0.835-0.835C16.12,1.546,15.9,1.387,15.657,1.266
		C15.301,1.088,14.921,0.998,14.529,0.998z"/>
	<path d="M10.643,13.642c-0.176,0-0.335-0.09-0.427-0.24c-0.254-0.417-0.436-0.872-0.541-1.347c-0.523,0.793-1.38,1.327-2.354,1.424
		c-0.109,0.011-0.218,0.016-0.325,0.016c-0.745,0-1.445-0.251-2.025-0.725c-0.251-0.206-0.468-0.445-0.644-0.711
		c-0.105,0.472-0.287,0.926-0.541,1.342c-0.092,0.15-0.251,0.24-0.427,0.24c-0.091,0-0.181-0.025-0.259-0.072
		c-0.236-0.144-0.311-0.452-0.167-0.688c0.35-0.574,0.523-1.233,0.5-1.904l0-0.909c0-0.954,0.371-1.851,1.046-2.525
		C5.152,6.871,6.048,6.5,7.001,6.5c0.954,0,1.85,0.371,2.524,1.046c0.674,0.674,1.045,1.571,1.045,2.524v0.892
		c-0.023,0.686,0.15,1.347,0.5,1.921c0.143,0.235,0.068,0.544-0.167,0.687C10.825,13.617,10.735,13.642,10.643,13.642z M4.9,10.966
		c0.129,0.404,0.369,0.757,0.704,1.031c0.399,0.326,0.881,0.499,1.394,0.499c0.074,0,0.149-0.004,0.224-0.011
		c0.871-0.087,1.612-0.698,1.88-1.519c-0.791-0.171-1.508-0.541-2.101-1.081C6.409,10.426,5.69,10.795,4.9,10.966z M7.002,7.5
		c-0.687,0-1.332,0.267-1.817,0.752c-0.477,0.477-0.744,1.109-0.752,1.783c0.854-0.121,1.625-0.538,2.19-1.193
		c0.093-0.107,0.231-0.169,0.378-0.169S7.287,8.735,7.38,8.842c0.566,0.655,1.336,1.072,2.19,1.193C9.552,8.634,8.407,7.5,7.002,7.5
		z"/>
</g>
</svg>
