<?xml version="1.0" encoding="utf-8"?>
<!-- Generator: Adobe Illustrator 22.1.0, SVG Export Plug-In . SVG Version: 6.00 Build 0)  -->
<svg version="1.1" id="Layer_1" xmlns="http://www.w3.org/2000/svg" xmlns:xlink="http://www.w3.org/1999/xlink" x="0px" y="0px"
	 viewBox="0 0 24 24" style="enable-background:new 0 0 24 24;" xml:space="preserve">
<g>
	<title>dating-makeup</title>
	<path d="M5.45,7.774c-0.276,0-0.5-0.224-0.5-0.5V5.754c-0.844-0.06-1.658-0.258-2.425-0.59L1.902,6.487
		C1.82,6.662,1.643,6.774,1.45,6.774c-0.074,0-0.146-0.016-0.213-0.048C1.116,6.67,1.025,6.57,0.98,6.444
		C0.934,6.318,0.941,6.182,0.998,6.062l0.639-1.358C1.112,4.388,0.629,4.01,0.197,3.578c-0.038-0.038-0.07-0.081-0.094-0.13
		C-0.02,3.201,0.08,2.9,0.327,2.777C0.395,2.743,0.472,2.724,0.55,2.724c0.136,0,0.268,0.056,0.362,0.155
		c0.465,0.464,0.999,0.856,1.584,1.162C2.504,4.045,2.512,4.049,2.52,4.054c0.928,0.479,1.93,0.721,2.981,0.721
		c1.736,0,3.368-0.676,4.596-1.904c0.094-0.094,0.22-0.146,0.354-0.146s0.259,0.052,0.354,0.146c0.094,0.094,0.146,0.22,0.146,0.354
		c0,0.134-0.052,0.259-0.146,0.354c-0.456,0.456-0.965,0.85-1.518,1.174l0.617,1.31c0.117,0.25,0.01,0.548-0.239,0.666
		C9.596,6.758,9.525,6.774,9.45,6.774c-0.193,0-0.37-0.113-0.453-0.287l-0.607-1.29C7.616,5.522,6.797,5.71,5.95,5.76v1.515
		C5.95,7.55,5.726,7.774,5.45,7.774z"/>
	<path d="M18.45,7.774c-0.276,0-0.5-0.224-0.5-0.5V5.754c-0.844-0.06-1.657-0.258-2.425-0.59l-0.623,1.323
		c-0.083,0.174-0.26,0.287-0.453,0.287c-0.074,0-0.146-0.016-0.213-0.048c-0.249-0.117-0.356-0.416-0.24-0.665l0.639-1.358
		c-0.523-0.315-1.006-0.693-1.438-1.124c-0.094-0.093-0.148-0.223-0.148-0.355c0-0.276,0.224-0.5,0.5-0.5
		c0.134,0,0.259,0.052,0.354,0.147c0.47,0.47,1.006,0.864,1.593,1.17c0.003,0.001,0.018,0.009,0.023,0.012
		c0.913,0.472,1.943,0.721,2.98,0.721c1.736,0,3.368-0.676,4.596-1.904c0.094-0.094,0.22-0.146,0.354-0.146s0.259,0.052,0.354,0.146
		c0.094,0.094,0.146,0.22,0.146,0.354c0,0.134-0.052,0.259-0.146,0.354c-0.456,0.456-0.966,0.85-1.518,1.174l0.617,1.31
		c0.057,0.121,0.063,0.256,0.018,0.382c-0.045,0.126-0.137,0.226-0.258,0.283c-0.067,0.032-0.138,0.048-0.213,0.048
		c-0.193,0-0.371-0.113-0.453-0.287l-0.607-1.289C20.616,5.522,19.798,5.71,18.95,5.76v1.515C18.95,7.55,18.726,7.774,18.45,7.774z"
		/>
	<path d="M10.851,21.274c-1.349,0-2.646-0.493-3.654-1.389l-3.079-2.737c-0.012-0.01-0.026-0.026-0.037-0.041
		c-0.023-0.025-0.045-0.055-0.063-0.088c-0.008-0.014-0.016-0.03-0.024-0.046c-0.008-0.015-0.016-0.033-0.02-0.046
		c-0.012-0.037-0.014-0.065-0.016-0.081c-0.004-0.02-0.006-0.039-0.007-0.059c-0.002-0.059,0.006-0.116,0.024-0.169
		c0.019-0.055,0.045-0.102,0.078-0.146c0.006-0.01,0.013-0.019,0.02-0.026c0.01-0.012,0.025-0.025,0.039-0.037
		c0.013-0.013,0.029-0.029,0.051-0.044l2.795-1.956c0.928-0.649,2.013-0.993,3.139-0.993c0.633,0,1.256,0.109,1.853,0.323
		c0.598-0.215,1.221-0.323,1.853-0.323c1.126,0,2.212,0.343,3.139,0.993l2.794,1.956c0.01,0.007,0.026,0.021,0.039,0.033
		c0.013,0.01,0.031,0.024,0.049,0.043c0.011,0.012,0.022,0.028,0.032,0.044c0.011,0.016,0.021,0.035,0.031,0.054
		c0.032,0.061,0.05,0.12,0.057,0.179c0.003,0.014,0.006,0.035,0.006,0.057c0,0.042-0.007,0.077-0.012,0.099
		c0.001,0.001-0.002,0.025-0.011,0.053c-0.004,0.011-0.009,0.025-0.015,0.037c-0.013,0.032-0.027,0.056-0.037,0.072
		c-0.012,0.02-0.026,0.039-0.042,0.058c-0.011,0.016-0.026,0.035-0.047,0.054l-3.08,2.738c-1.007,0.896-2.305,1.389-3.653,1.389
		H10.851z M7.861,19.138c0.824,0.733,1.886,1.136,2.989,1.136h2.201c1.104,0,2.166-0.404,2.99-1.136l2.096-1.864H5.765L7.861,19.138
		z M17.864,16.274l-1.494-1.046c-0.759-0.531-1.646-0.812-2.566-0.812c-0.572,0-1.133,0.108-1.667,0.322
		c-0.059,0.024-0.122,0.036-0.186,0.036c-0.064,0-0.127-0.012-0.186-0.036c-0.534-0.214-1.095-0.322-1.667-0.322
		c-0.92,0-1.808,0.281-2.567,0.812l-1.495,1.046H17.864z"/>
</g>
</svg>
