<?xml version="1.0" encoding="utf-8"?>
<!-- Generator: Adobe Illustrator 22.1.0, SVG Export Plug-In . SVG Version: 6.00 Build 0)  -->
<svg version="1.1" id="Layer_1" xmlns="http://www.w3.org/2000/svg" xmlns:xlink="http://www.w3.org/1999/xlink" x="0px" y="0px"
	 viewBox="0 0 24 24" style="enable-background:new 0 0 24 24;" xml:space="preserve">
<g>
	<title>dating-cup</title>
	<path d="M0.5,24C0.224,24,0,23.776,0,23.5S0.224,23,0.5,23h5.634C3.622,21.605,2,18.918,2,16v-6c0-0.551,0.449-1,1-1h14
		c0.552,0,1,0.449,1,1h2c2.206,0,4,1.794,4,4s-1.794,4-4,4h-2.256c-0.553,2.143-1.96,3.942-3.875,5h9.63c0.276,0,0.5,0.224,0.5,0.5
		S23.776,24,23.5,24H0.5z M3,16c0,3.86,3.14,7,7,7s7-3.14,7-7v-6H3l0,0L3,16z M20,17c1.654,0,3-1.346,3-3c0-1.654-1.346-3-3-3h-2v5
		c0,0.331-0.021,0.666-0.063,1H20z"/>
	<path d="M10.005,7.177c-0.221,0-0.439-0.075-0.614-0.213C8.126,5.983,6,4.087,6,2.415c0-1.419,0.999-2.281,1.985-2.399
		c0.078-0.009,0.158-0.014,0.24-0.014C8.93,0.001,9.57,0.355,10,0.965c0.431-0.61,1.072-0.963,1.779-0.963
		c0.079,0,0.157,0.005,0.233,0.013C13,0.131,14.003,0.992,14.01,2.412c0,1.661-2.126,3.565-3.393,4.553
		C10.444,7.101,10.226,7.177,10.005,7.177z M8.231,1.001c-0.043,0-0.086,0.003-0.127,0.008C7.555,1.074,7,1.578,7,2.415
		c0,0.87,1.18,2.346,3.006,3.761c1.45-1.132,3.004-2.716,3.004-3.761c-0.004-0.837-0.564-1.341-1.115-1.406
		c-0.042-0.005-0.083-0.007-0.126-0.007c-0.29,0-0.995,0.128-1.284,1.317C10.431,2.543,10.231,2.701,10,2.701
		c-0.232,0-0.432-0.157-0.486-0.382C9.226,1.13,8.521,1.001,8.231,1.001z"/>
</g>
</svg>
