<?xml version="1.0" encoding="utf-8"?>
<!-- Generator: Adobe Illustrator 22.1.0, SVG Export Plug-In . SVG Version: 6.00 Build 0)  -->
<svg version="1.1" id="Light" xmlns="http://www.w3.org/2000/svg" xmlns:xlink="http://www.w3.org/1999/xlink" x="0px" y="0px"
	 viewBox="0 0 24 24" style="enable-background:new 0 0 24 24;" xml:space="preserve">
<g>
	<title>real-estate-message-person-building</title>
	<path d="M12.752,14.817c-0.021,0-0.042-0.001-0.064-0.003c-0.199-0.017-0.381-0.11-0.51-0.263
		c-0.113-0.135-0.176-0.304-0.178-0.479v-1.96H8.5c-0.827,0-1.5-0.673-1.5-1.5v-9c0-0.827,0.673-1.5,1.5-1.5h14
		c0.827,0,1.5,0.673,1.5,1.5v9c0,0.827-0.673,1.5-1.5,1.5h-6.315l-2.947,2.526C13.102,14.754,12.929,14.817,12.752,14.817z
		 M8.5,1.112c-0.276,0-0.5,0.224-0.5,0.5v9c0,0.276,0.224,0.5,0.5,0.5h4c0.276,0,0.5,0.224,0.5,0.5v1.912l2.675-2.292
		c0.09-0.078,0.206-0.12,0.325-0.12h6.5c0.276,0,0.5-0.224,0.5-0.5v-9c0-0.276-0.224-0.5-0.5-0.5H8.5z"/>
	<path d="M11.5,23.831c-0.07,0-0.137-0.014-0.201-0.042c-0.021-0.009-2.016-0.889-3.404-1.404c-0.472-0.175-0.806-0.575-0.94-1.127
		c-0.182-0.75,0.022-1.664,0.486-2.173c0.852-0.836,1.261-1.976,1.132-3.139c-0.004-0.034-0.004-0.068-0.001-0.102
		c0.062-0.664-0.138-1.313-0.565-1.828c-0.427-0.515-1.027-0.833-1.691-0.895c-0.076-0.007-0.152-0.011-0.229-0.011l-0.072,0.001
		l-0.079-0.001c-1.374,0-2.48,1.068-2.517,2.431c-0.003,0.101,0.001,0.202,0.01,0.302c0.003,0.033,0.003,0.067-0.001,0.101
		c-0.129,1.164,0.276,2.301,1.112,3.12c0.479,0.524,0.688,1.442,0.505,2.193c-0.134,0.551-0.467,0.952-0.939,1.127
		c-1.389,0.515-3.384,1.395-3.403,1.403c-0.066,0.029-0.133,0.043-0.203,0.043c-0.198,0-0.378-0.117-0.458-0.298
		c-0.111-0.253,0.004-0.548,0.255-0.66c0.358-0.157,2.163-0.946,3.46-1.427c0.157-0.058,0.26-0.198,0.316-0.425
		c0.1-0.414-0.018-1.005-0.253-1.263c-1.028-1.006-1.538-2.42-1.392-3.873c-0.01-0.123-0.013-0.248-0.009-0.372
		c0.051-1.877,1.624-3.404,3.505-3.404l0.088,0.001l0.072-0.001c0.104,0,0.214,0.005,0.323,0.015
		c1.899,0.178,3.313,1.863,3.163,3.76c0.146,1.452-0.368,2.87-1.411,3.893c-0.221,0.243-0.334,0.829-0.234,1.243
		c0.055,0.228,0.159,0.367,0.316,0.425c1.297,0.481,3.102,1.269,3.451,1.422c0.261,0.115,0.375,0.411,0.265,0.663
		C11.877,23.714,11.698,23.831,11.5,23.831z"/>
	<path d="M13,10.112c-0.552,0-1-0.449-1-1V3.421c0-0.551,0.448-1,1-1c0.155,0,0.309,0.037,0.448,0.106L16,3.803V2.612
		c0-0.276,0.224-0.5,0.5-0.5s0.5,0.224,0.5,0.5v2.5h2c0.552,0,1,0.449,1,1v3c0,0.551-0.448,1-1,1H13z M19,9.112v-3h-2v3H19z
		 M13,9.112h3V4.921l-3-1.5l0,1.691h1c0.276,0,0.5,0.224,0.5,0.5s-0.224,0.5-0.5,0.5h-1v1h1c0.276,0,0.5,0.224,0.5,0.5
		s-0.224,0.5-0.5,0.5h-1V9.112z"/>
</g>
</svg>
