<?xml version="1.0" encoding="utf-8"?>
<!-- Generator: Adobe Illustrator 22.1.0, SVG Export Plug-In . SVG Version: 6.00 Build 0)  -->
<svg version="1.1" id="Light" xmlns="http://www.w3.org/2000/svg" xmlns:xlink="http://www.w3.org/1999/xlink" x="0px" y="0px"
	 viewBox="0 0 24 24" style="enable-background:new 0 0 24 24;" xml:space="preserve">
<g>
	<title>real-estate-couple-search-house</title>
	<path d="M12.75,13.652c-0.2,0-0.388-0.078-0.53-0.219c-0.141-0.141-0.22-0.329-0.22-0.529v-1.902H5.5c-0.827,0-1.5-0.673-1.5-1.5
		v-7c0-0.827,0.673-1.5,1.5-1.5h2c0.276,0,0.5,0.224,0.5,0.5s-0.224,0.5-0.5,0.5h-2c-0.276,0-0.5,0.224-0.5,0.5v7
		c0,0.276,0.224,0.5,0.5,0.5h7c0.276,0,0.5,0.224,0.5,0.5v1.796l2.146-2.149c0.095-0.095,0.221-0.147,0.354-0.147h4
		c0.276,0,0.5-0.224,0.5-0.5v-7c0-0.276-0.224-0.5-0.5-0.5h-2c-0.276,0-0.5-0.224-0.5-0.5s0.224-0.5,0.5-0.5h2
		c0.827,0,1.5,0.673,1.5,1.5v7c0,0.827-0.673,1.5-1.5,1.5h-3.792l-2.427,2.43C13.139,13.574,12.951,13.652,12.75,13.652z"/>
	<path d="M4.88,19.503c-1.792,0-3.25-1.458-3.25-3.25s1.458-3.25,3.25-3.25s3.25,1.458,3.25,3.25S6.672,19.503,4.88,19.503z
		 M4.88,14.003c-1.241,0-2.25,1.009-2.25,2.25s1.009,2.25,2.25,2.25s2.25-1.009,2.25-2.25S6.121,14.003,4.88,14.003z"/>
	<path d="M9.259,24.003c-0.232,0-0.437-0.164-0.488-0.39c-0.407-1.802-2.044-3.111-3.892-3.111c-0.294,0-0.59,0.033-0.88,0.099
		c-1.492,0.337-2.675,1.52-3.012,3.012c-0.052,0.229-0.252,0.39-0.488,0.39c-0.037,0-0.074-0.004-0.11-0.012
		c-0.269-0.061-0.439-0.329-0.378-0.598c0.422-1.867,1.901-3.345,3.767-3.767c0.362-0.082,0.733-0.123,1.101-0.123
		c2.31,0,4.357,1.636,4.867,3.89c0.061,0.269-0.109,0.537-0.377,0.598C9.333,23.999,9.296,24.003,9.259,24.003z"/>
	<path d="M19.12,19.503c-1.792,0-3.25-1.458-3.25-3.25s1.458-3.25,3.25-3.25s3.25,1.458,3.25,3.25S20.912,19.503,19.12,19.503z
		 M19.12,14.003c-1.241,0-2.25,1.009-2.25,2.25s1.009,2.25,2.25,2.25s2.25-1.009,2.25-2.25S20.361,14.003,19.12,14.003z"/>
	<path d="M14.741,24.003c-0.037,0-0.074-0.004-0.11-0.012c-0.269-0.061-0.438-0.329-0.377-0.598
		c0.422-1.867,1.901-3.345,3.767-3.768c0.362-0.082,0.732-0.123,1.101-0.123c2.31,0,4.357,1.636,4.867,3.89
		c0.061,0.269-0.108,0.537-0.377,0.598c-0.037,0.008-0.074,0.012-0.111,0.012c-0.235,0-0.435-0.16-0.488-0.389
		c-0.407-1.803-2.044-3.111-3.891-3.111c-0.294,0-0.59,0.033-0.88,0.099c-1.493,0.337-2.675,1.52-3.012,3.012
		C15.176,23.843,14.976,24.003,14.741,24.003z"/>
	<path d="M10.5,8.003c-0.827,0-1.5-0.673-1.5-1.5V3.736L8.829,3.886C8.738,3.966,8.621,4.01,8.5,4.01l0,0
		c-0.144,0-0.281-0.062-0.376-0.17C7.942,3.632,7.963,3.315,8.171,3.133l3.012-2.636c0.363-0.318,0.831-0.493,1.317-0.493
		c0.486,0,0.954,0.175,1.317,0.493l3.012,2.636c0.208,0.181,0.229,0.498,0.047,0.705C16.781,3.948,16.644,4.01,16.5,4.01
		c-0.121,0-0.238-0.044-0.329-0.124L16,3.736v2.766c0,0.827-0.673,1.5-1.5,1.5H10.5z M14.5,7.003c0.276,0,0.5-0.224,0.5-0.5V2.861
		L13.159,1.25c-0.182-0.159-0.416-0.246-0.659-0.246c-0.243,0-0.477,0.088-0.659,0.246L10,2.861v3.641c0,0.276,0.224,0.5,0.5,0.5H11
		v-1.5c0-0.827,0.673-1.5,1.5-1.5s1.5,0.673,1.5,1.5v1.5H14.5z M13,7.003v-1.5c0-0.276-0.224-0.5-0.5-0.5
		c-0.276,0-0.5,0.224-0.5,0.5v1.5H13z"/>
</g>
</svg>
