<?xml version="1.0" encoding="utf-8"?>
<!-- Generator: Adobe Illustrator 22.1.0, SVG Export Plug-In . SVG Version: 6.00 Build 0)  -->
<svg version="1.1" id="Light" xmlns="http://www.w3.org/2000/svg" xmlns:xlink="http://www.w3.org/1999/xlink" x="0px" y="0px"
	 viewBox="0 0 24 24" style="enable-background:new 0 0 24 24;" xml:space="preserve">
<g>
	<title>real-estate-message-house</title>
	<path d="M2.453,22.848c-0.117,0-0.233-0.021-0.344-0.061c-0.251-0.092-0.451-0.275-0.563-0.518
		c-0.129-0.278-0.125-0.595,0.012-0.869l1.762-3.52c-2.052-1.686-3.26-4.164-3.32-6.83c0-2.653,1.256-5.142,3.537-7.012
		C5.803,2.179,8.809,1.155,12,1.155c6.617,0,12,4.433,12,9.883c0,5.449-5.383,9.882-12,9.882c-1.379-0.006-2.72-0.194-3.989-0.559
		l-5.136,2.392C2.741,22.816,2.599,22.848,2.453,22.848z M12,2.155c-6.065,0-11,3.985-11,8.883c0.057,2.499,1.241,4.797,3.25,6.3
		c0.194,0.145,0.256,0.408,0.147,0.624l-1.945,3.885l5.308-2.472c0.065-0.031,0.137-0.047,0.211-0.047
		c0.049,0,0.097,0.007,0.144,0.021c1.252,0.379,2.549,0.571,3.856,0.571H12c6.066,0,11-3.984,11-8.882
		C23,6.14,18.066,2.155,12,2.155z"/>
	<path d="M9,15.655c-0.551,0-1-0.448-1-1v-4.188l-1.164,1.058c-0.092,0.084-0.212,0.13-0.336,0.13c-0.141,0-0.275-0.06-0.37-0.164
		c-0.09-0.099-0.136-0.227-0.13-0.36c0.006-0.134,0.064-0.256,0.163-0.346l5.164-4.694C11.513,5.923,11.752,5.831,12,5.831
		s0.487,0.093,0.672,0.261l5.164,4.694c0.204,0.185,0.219,0.502,0.034,0.706c-0.094,0.104-0.229,0.164-0.37,0.164l0,0
		c-0.125,0-0.244-0.046-0.336-0.13L16,10.468v4.188c0,0.552-0.448,1-1,1H9z M15,14.655V9.559l-3-2.727L9,9.559v5.097h1v-2
		c0-1.103,0.897-2,2-2s2,0.897,2,2v2H15z M13,14.655v-2c0-0.551-0.448-1-1-1c-0.551,0-1,0.449-1,1v2H13z"/>
</g>
</svg>
