<?xml version="1.0" encoding="utf-8"?>
<!-- Generator: Adobe Illustrator 22.1.0, SVG Export Plug-In . SVG Version: 6.00 Build 0)  -->
<svg version="1.1" id="Light" xmlns="http://www.w3.org/2000/svg" xmlns:xlink="http://www.w3.org/1999/xlink" x="0px" y="0px"
	 viewBox="0 0 24 24" style="enable-background:new 0 0 24 24;" xml:space="preserve">
<g>
	<title>real-estate-message-person-building-1</title>
	<path d="M12.749,16.15c-0.414-0.001-0.749-0.338-0.749-0.751V13H9.75C9.336,13,9,12.664,9,12.25V0.75C9,0.336,9.336,0,9.75,0h13.5
		C23.664,0,24,0.336,24,0.75v11.5c0,0.414-0.336,0.75-0.75,0.75h-7.042l-2.927,2.93c-0.143,0.142-0.331,0.22-0.531,0.22H12.749z
		 M12.5,12c0.276,0,0.5,0.224,0.5,0.5v2.296l2.646-2.649C15.741,12.052,15.867,12,16,12h7V1H10v11L12.5,12z"/>
	<path d="M3.5,13c-1.516,0-2.75-1.234-2.75-2.75S1.984,7.5,3.5,7.5s2.75,1.234,2.75,2.75S5.016,13,3.5,13z M3.5,8.5
		c-0.965,0-1.75,0.785-1.75,1.75S2.535,12,3.5,12s1.75-0.785,1.75-1.75S4.465,8.5,3.5,8.5z"/>
	<path d="M2.5,24c-0.258,0-0.472-0.194-0.498-0.45L1.548,19H0.5C0.224,19,0,18.776,0,18.5v-2C0,14.57,1.57,13,3.5,13S7,14.57,7,16.5
		v2C7,18.776,6.776,19,6.5,19H5.452l-0.455,4.55C4.972,23.806,4.758,24,4.5,24H2.5z M4.048,23l0.455-4.55
		C4.528,18.194,4.742,18,5,18h1v-1.5C6,15.122,4.879,14,3.5,14S1,15.122,1,16.5V18h1c0.258,0,0.472,0.194,0.498,0.45L2.952,23H4.048
		z"/>
	<path d="M14,10c-0.552,0-1-0.449-1-1V3.309c0-0.551,0.448-1,1-1c0.155,0,0.31,0.037,0.448,0.106L17,3.691V2.5
		C17,2.224,17.224,2,17.5,2S18,2.224,18,2.5V5h2c0.552,0,1,0.449,1,1v3c0,0.551-0.448,1-1,1H14z M20,9V6h-2v3H20z M14,9h3V4.809
		l-3-1.5L14,5h1c0.276,0,0.5,0.224,0.5,0.5S15.276,6,15,6h-1v1h1c0.276,0,0.5,0.224,0.5,0.5S15.276,8,15,8h-1V9z"/>
</g>
</svg>
