<?xml version="1.0" encoding="utf-8"?>
<!-- Generator: Adobe Illustrator 22.1.0, SVG Export Plug-In . SVG Version: 6.00 Build 0)  -->
<svg version="1.1" id="Light" xmlns="http://www.w3.org/2000/svg" xmlns:xlink="http://www.w3.org/1999/xlink" x="0px" y="0px"
	 viewBox="0 0 24 24" style="enable-background:new 0 0 24 24;" xml:space="preserve">
<g>
	<title>real-estate-search-house-2</title>
	<path d="M14.5,24c-0.276,0-0.5-0.224-0.5-0.5v-6c0-0.276-0.224-0.5-0.5-0.5H11v3.5c0,0.276-0.224,0.5-0.5,0.5S10,20.776,10,20.5
		v-6.292c0-0.276,0.224-0.5,0.5-0.5s0.5,0.224,0.5,0.5V16h2.5c0.827,0,1.5,0.673,1.5,1.5v6C15,23.776,14.776,24,14.5,24z"/>
	<path d="M0.5,24C0.224,24,0,23.776,0,23.5v-5.086c0-0.401,0.156-0.777,0.439-1.061L2,15.793V12.5C2,12.224,2.224,12,2.5,12
		S3,12.224,3,12.5v2.293l1-1V8.5c0-0.64,0.41-1.205,1-1.414V4.5C5,4.224,5.224,4,5.5,4S6,4.224,6,4.5V7h1V5.5C7,5.224,7.224,5,7.5,5
		S8,5.224,8,5.5v2C8,7.776,7.776,8,7.5,8h-2C5.224,8,5,8.224,5,8.5v12C5,20.776,4.776,21,4.5,21S4,20.776,4,20.5v-5.293
		l-2.854,2.854C1.053,18.154,1,18.282,1,18.414V23.5C1,23.776,0.776,24,0.5,24z"/>
	<path d="M6.5,10C6.224,10,6,9.776,6,9.5S6.224,9,6.5,9h1C7.776,9,8,9.224,8,9.5S7.776,10,7.5,10H6.5z"/>
	<path d="M7.5,13C7.224,13,7,12.776,7,12.5C7,12.224,7.224,12,7.5,12h1C8.776,12,9,12.224,9,12.5C9,12.776,8.776,13,8.5,13H7.5z"/>
	<path d="M6.5,16C6.224,16,6,15.776,6,15.5S6.224,15,6.5,15h1C7.776,15,8,15.224,8,15.5S7.776,16,7.5,16H6.5z"/>
	<path d="M7.5,19C7.224,19,7,18.776,7,18.5S7.224,18,7.5,18h1C8.776,18,9,18.224,9,18.5S8.776,19,8.5,19H7.5z"/>
	<path d="M16.5,15C12.365,15,9,11.635,9,7.5S12.365,0,16.5,0S24,3.365,24,7.5S20.635,15,16.5,15z M16.5,1C12.916,1,10,3.916,10,7.5
		s2.916,6.5,6.5,6.5S23,11.084,23,7.5S20.084,1,16.5,1z"/>
	<path d="M14.5,11c-0.827,0-1.5-0.673-1.5-1.5V6.734l-0.171,0.149c-0.091,0.08-0.208,0.124-0.329,0.124
		c-0.144,0-0.281-0.062-0.376-0.17c-0.182-0.208-0.161-0.524,0.047-0.706l3.012-2.636c0.363-0.318,0.831-0.493,1.317-0.493
		s0.954,0.175,1.317,0.493l3.012,2.636c0.208,0.181,0.229,0.498,0.047,0.705c-0.095,0.109-0.233,0.171-0.376,0.171
		c-0.121,0-0.238-0.044-0.329-0.124L20,6.734V9.5c0,0.827-0.673,1.5-1.5,1.5H14.5z M18.5,10c0.276,0,0.5-0.224,0.5-0.5V5.859
		l-1.841-1.611c-0.182-0.159-0.416-0.246-0.659-0.246s-0.477,0.088-0.659,0.246L14,5.859V9.5c0,0.276,0.224,0.5,0.5,0.5H15V8.5
		C15,7.673,15.673,7,16.5,7S18,7.673,18,8.5V10H18.5z M17,10V8.5C17,8.224,16.776,8,16.5,8S16,8.224,16,8.5V10H17z"/>
</g>
</svg>
