<?xml version="1.0" encoding="utf-8"?>
<!-- Generator: Adobe Illustrator 22.1.0, SVG Export Plug-In . SVG Version: 6.00 Build 0)  -->
<svg version="1.1" id="Light" xmlns="http://www.w3.org/2000/svg" xmlns:xlink="http://www.w3.org/1999/xlink" x="0px" y="0px"
	 viewBox="0 0 24 24" style="enable-background:new 0 0 24 24;" xml:space="preserve">
<g>
	<title>real-estate-person-search-house</title>
	<path d="M12.752,14.83c-0.021,0-0.042-0.001-0.064-0.003c-0.199-0.016-0.381-0.11-0.511-0.264
		c-0.113-0.134-0.176-0.304-0.177-0.479v-1.96H8.5c-0.827,0-1.5-0.673-1.5-1.5v-9c0-0.827,0.673-1.5,1.5-1.5h14
		c0.827,0,1.5,0.673,1.5,1.5v9c0,0.827-0.673,1.5-1.5,1.5h-6.315l-2.947,2.526C13.101,14.766,12.929,14.83,12.752,14.83z M8.5,1.124
		c-0.276,0-0.5,0.224-0.5,0.5v9c0,0.276,0.224,0.5,0.5,0.5h4c0.276,0,0.5,0.224,0.5,0.5v1.912l2.675-2.292
		c0.09-0.078,0.206-0.12,0.325-0.12h6.5c0.276,0,0.5-0.224,0.5-0.5v-9c0-0.276-0.224-0.5-0.5-0.5H8.5z"/>
	<path d="M11.5,23.844c-0.07,0-0.138-0.014-0.202-0.043c-0.02-0.009-2.018-0.89-3.404-1.404c-0.473-0.175-0.806-0.576-0.94-1.128
		c-0.182-0.751,0.023-1.664,0.487-2.172c0.852-0.836,1.261-1.978,1.131-3.141c-0.004-0.033-0.004-0.068-0.001-0.102
		c0.062-0.665-0.139-1.314-0.566-1.828s-1.028-0.831-1.693-0.892c-0.077-0.008-0.154-0.011-0.23-0.011l-0.069,0.001L5.93,13.124
		c-0.65,0-1.264,0.243-1.73,0.685c-0.485,0.459-0.762,1.08-0.78,1.747c-0.003,0.1,0.001,0.2,0.01,0.299
		c0.003,0.034,0.003,0.069-0.001,0.103c-0.13,1.163,0.276,2.301,1.112,3.121c0.479,0.523,0.688,1.441,0.506,2.192
		c-0.134,0.552-0.467,0.953-0.94,1.128c-1.385,0.513-3.384,1.395-3.403,1.403C0.638,23.829,0.57,23.844,0.5,23.844
		c-0.198,0-0.378-0.117-0.458-0.298c-0.111-0.252,0.003-0.548,0.255-0.659c0.358-0.157,2.163-0.946,3.461-1.427
		c0.157-0.058,0.26-0.198,0.316-0.426c0.1-0.415-0.018-1.005-0.253-1.263c-1.029-1.007-1.539-2.422-1.392-3.876
		c-0.009-0.122-0.013-0.245-0.009-0.367c0.026-0.935,0.413-1.803,1.092-2.446c0.653-0.618,1.509-0.958,2.41-0.958l0.092,0.001
		l0.071-0.001c0.103,0,0.214,0.004,0.323,0.015c0.93,0.086,1.771,0.53,2.368,1.249c0.586,0.706,0.868,1.595,0.797,2.508
		c0.147,1.454-0.367,2.873-1.411,3.896c-0.22,0.243-0.334,0.828-0.234,1.243c0.055,0.228,0.159,0.367,0.316,0.426
		c1.297,0.48,3.102,1.269,3.451,1.422c0.261,0.115,0.376,0.411,0.265,0.663C11.877,23.727,11.698,23.844,11.5,23.844L11.5,23.844z"
		/>
	<path d="M13.5,10.124c-0.827,0-1.5-0.673-1.5-1.5V5.858l-0.171,0.15c-0.091,0.079-0.208,0.123-0.329,0.123
		c-0.145,0-0.282-0.062-0.377-0.171c-0.088-0.1-0.131-0.229-0.122-0.363s0.069-0.255,0.17-0.343l3.012-2.63
		c0.364-0.318,0.831-0.493,1.317-0.493c0.486,0,0.954,0.175,1.317,0.493l3.012,2.63c0.101,0.088,0.161,0.21,0.17,0.343
		c0.009,0.133-0.034,0.262-0.122,0.362C19.782,6.068,19.645,6.13,19.5,6.13c-0.121,0-0.237-0.044-0.329-0.123L19,5.858v2.767
		c0,0.827-0.673,1.5-1.5,1.5H13.5z M17.5,9.124c0.276,0,0.5-0.224,0.5-0.5v-3.64l-1.841-1.608C15.977,3.218,15.744,3.13,15.5,3.13
		s-0.477,0.087-0.659,0.246L13,4.984v3.64c0,0.276,0.224,0.5,0.5,0.5H14v-1.5c0-0.827,0.673-1.5,1.5-1.5s1.5,0.673,1.5,1.5v1.5H17.5
		z M16,9.124v-1.5c0-0.276-0.224-0.5-0.5-0.5S15,7.349,15,7.624v1.5H16z"/>
</g>
</svg>
