<?xml version="1.0" encoding="utf-8"?>
<!-- Generator: Adobe Illustrator 22.1.0, SVG Export Plug-In . SVG Version: 6.00 Build 0)  -->
<svg version="1.1" id="Light" xmlns="http://www.w3.org/2000/svg" xmlns:xlink="http://www.w3.org/1999/xlink" x="0px" y="0px"
	 viewBox="0 0 24 24" style="enable-background:new 0 0 24 24;" xml:space="preserve">
<g>
	<title>real-estate-search-building</title>
	<path d="M12,24c-0.161,0-0.321-0.005-0.481-0.012c-0.006,0-0.013,0.001-0.019,0.001c-0.012,0-0.025-0.001-0.038-0.003
		c-2.676-0.117-5.178-1.103-7.231-2.851c-0.039-0.025-0.074-0.055-0.104-0.09C1.504,18.759,0,15.463,0,12C0,5.383,5.383,0,12,0
		c6.617,0,12,5.383,12,12c0,4.391-2.402,8.429-6.269,10.54c-0.004,0.002-0.019,0.011-0.019,0.011C15.969,23.499,13.993,24,12,24z
		 M12,23c1.734,0,3.459-0.417,5-1.206V14h-3.5c-0.276,0-0.5-0.224-0.5-0.5s0.224-0.5,0.5-0.5H17v-1h-3.5c-0.276,0-0.5-0.224-0.5-0.5
		s0.224-0.5,0.5-0.5H17v-1h-1.5C15.224,10,15,9.776,15,9.5S15.224,9,15.5,9H17l0-3.139L11,9.29v2.796c0.59,0.209,1,0.774,1,1.414V23
		z M5,20.476c1.72,1.424,3.787,2.276,6,2.476V13.5c0-0.276-0.224-0.5-0.5-0.5h-5C5.224,13,5,13.224,5,13.5V15h3.5
		C8.776,15,9,15.224,9,15.5S8.776,16,8.5,16H5v1h1.5C6.776,17,7,17.224,7,17.5S6.776,18,6.5,18H5V20.476z M17.001,4.861
		c0.267,0,0.518,0.105,0.707,0.294C17.897,5.344,18,5.596,18,5.863v15.35c3.095-2.024,5-5.514,5-9.213c0-6.065-4.935-11-11-11
		S1,5.935,1,12c0,2.834,1.061,5.488,3,7.538V13.5C4,12.673,4.673,12,5.5,12H10V9.29c0-0.358,0.193-0.691,0.504-0.868L12,7.567V5
		c0-0.276,0.224-0.5,0.5-0.5C12.776,4.5,13,4.724,13,5v1.995l3.504-2.002c0.151-0.086,0.322-0.132,0.495-0.132H17.001z"/>
</g>
</svg>
