<?xml version="1.0" encoding="utf-8"?>
<!-- Generator: Adobe Illustrator 22.1.0, SVG Export Plug-In . SVG Version: 6.00 Build 0)  -->
<svg version="1.1" id="Light" xmlns="http://www.w3.org/2000/svg" xmlns:xlink="http://www.w3.org/1999/xlink" x="0px" y="0px"
	 viewBox="0 0 24 24" style="enable-background:new 0 0 24 24;" xml:space="preserve">
<g>
	<title>real-estate-building</title>
	<path d="M1.5,21C0.673,21,0,20.327,0,19.5v-18C0,0.673,0.673,0,1.5,0h18C20.327,0,21,0.673,21,1.5v18c0,0.827-0.673,1.5-1.5,1.5
		H1.5z M1.5,1C1.224,1,1,1.224,1,1.5v18C1,19.776,1.224,20,1.5,20h18c0.276,0,0.5-0.224,0.5-0.5v-18C20,1.224,19.776,1,19.5,1H1.5z"
		/>
	<path d="M4.5,24C3.673,24,3,23.327,3,22.5C3,22.224,3.224,22,3.5,22S4,22.224,4,22.5S4.224,23,4.5,23h18c0.276,0,0.5-0.224,0.5-0.5
		v-18C23,4.224,22.776,4,22.5,4S22,3.776,22,3.5S22.224,3,22.5,3C23.327,3,24,3.673,24,4.5v18c0,0.827-0.673,1.5-1.5,1.5H4.5z"/>
	<path d="M5,17c-0.551,0-1-0.448-1-1V9c0-0.551,0.449-1,1-1h4V4.809c0-0.551,0.449-1,1-1c0.155,0,0.31,0.037,0.448,0.106L14,5.691V4
		c0-0.276,0.224-0.5,0.5-0.5S15,3.724,15,4v2.191l0.448,0.224C15.789,6.586,16,6.928,16,7.309V16c0,0.552-0.448,1-1,1H5z M15,16
		V7.309l-5-2.5L10,8h1.5C11.776,8,12,8.224,12,8.5S11.776,9,11.5,9H10v1h3c0.276,0,0.5,0.224,0.5,0.5S13.276,11,13,11h-3v5h1v-1
		c0-0.552,0.449-1,1-1h1c0.552,0,1,0.448,1,1v1H15z M13,16v-1h-1l0,1H13z M5,16h4V9H5v1h1.5C6.776,10,7,10.224,7,10.5
		S6.776,11,6.5,11H5v1h1.5C6.776,12,7,12.224,7,12.5C7,12.776,6.776,13,6.5,13H5V16z"/>
</g>
</svg>
