<?xml version="1.0" encoding="utf-8"?>
<!-- Generator: Adobe Illustrator 22.1.0, SVG Export Plug-In . SVG Version: 6.00 Build 0)  -->
<svg version="1.1" id="Light" xmlns="http://www.w3.org/2000/svg" xmlns:xlink="http://www.w3.org/1999/xlink" x="0px" y="0px"
	 viewBox="0 0 24 24" style="enable-background:new 0 0 24 24;" xml:space="preserve">
<g>
	<title>real-estate-person-search-house-1</title>
	<path d="M13,15.793c-0.552,0-1-0.448-1-1V13h-2c-0.551,0-1-0.448-1-1V1c0-0.551,0.449-1,1-1h13c0.552,0,1,0.449,1,1v11
		c0,0.552-0.448,1-1,1h-6.793l-2.5,2.5C13.522,15.686,13.264,15.793,13,15.793z M10,12h2c0.552,0,1,0.448,1,1v1.793l2.5-2.5
		C15.69,12.104,15.941,12,16.207,12H23V1L10,1L10,12z"/>
	<path d="M3.5,13c-1.516,0-2.75-1.234-2.75-2.75S1.984,7.5,3.5,7.5s2.75,1.234,2.75,2.75S5.016,13,3.5,13z M3.5,8.5
		c-0.965,0-1.75,0.785-1.75,1.75S2.535,12,3.5,12s1.75-0.785,1.75-1.75S4.465,8.5,3.5,8.5z"/>
	<path d="M2.5,24c-0.258,0-0.472-0.194-0.498-0.45L1.548,19H0.5C0.224,19,0,18.776,0,18.5v-2C0,14.57,1.57,13,3.5,13S7,14.57,7,16.5
		v2C7,18.776,6.776,19,6.5,19H5.452l-0.455,4.55C4.972,23.806,4.758,24,4.5,24H2.5z M4.048,23l0.455-4.55
		C4.528,18.194,4.742,18,5,18h1v-1.5C6,15.122,4.879,14,3.5,14S1,15.122,1,16.5V18h1c0.258,0,0.472,0.194,0.498,0.45L2.952,23H4.048
		z"/>
	<path d="M14.5,10C13.673,10,13,9.327,13,8.5V5.734l-0.171,0.149c-0.091,0.08-0.208,0.124-0.329,0.124
		c-0.144,0-0.281-0.062-0.376-0.17c-0.182-0.208-0.161-0.524,0.047-0.706l3.012-2.636c0.363-0.318,0.831-0.493,1.317-0.493
		s0.954,0.175,1.317,0.493l3.012,2.636c0.208,0.181,0.229,0.498,0.047,0.705c-0.095,0.109-0.233,0.171-0.376,0.171
		c-0.121,0-0.238-0.044-0.329-0.124L20,5.734V8.5c0,0.827-0.673,1.5-1.5,1.5H14.5z M18.5,9C18.776,9,19,8.776,19,8.5V4.859
		l-1.841-1.611c-0.182-0.159-0.416-0.246-0.659-0.246s-0.477,0.088-0.659,0.246L14,4.859V8.5C14,8.776,14.224,9,14.5,9H15V7.5
		C15,6.673,15.673,6,16.5,6S18,6.673,18,7.5V9H18.5z M17,9V7.5C17,7.224,16.776,7,16.5,7S16,7.224,16,7.5V9H17z"/>
</g>
</svg>
