<?xml version="1.0" encoding="utf-8"?>
<!-- Generator: Adobe Illustrator 22.1.0, SVG Export Plug-In . SVG Version: 6.00 Build 0)  -->
<svg version="1.1" id="Layer_1" xmlns="http://www.w3.org/2000/svg" xmlns:xlink="http://www.w3.org/1999/xlink" x="0px" y="0px"
	 viewBox="0 0 24 24" style="enable-background:new 0 0 24 24;" xml:space="preserve">
<g>
	<title>e-commerce-apparel-browse</title>
	<path d="M2.5,23.5C1.121,23.5,0,22.378,0,21V3c0-1.379,1.121-2.5,2.5-2.5h19C22.878,0.5,24,1.621,24,3v18
		c0,1.378-1.122,2.5-2.5,2.5H2.5z M1,21c0,0.827,0.673,1.5,1.5,1.5h19c0.827,0,1.5-0.673,1.5-1.5V6.5H1V21z M23,5.5V3
		c0-0.827-0.673-1.5-1.5-1.5h-19C1.673,1.5,1,2.173,1,3v2.5H23z"/>
	<circle cx="4" cy="3.5" r="0.75"/>
	<circle cx="7" cy="3.5" r="0.75"/>
	<circle cx="10" cy="3.5" r="0.75"/>
	<path d="M8.5,17.5C8.224,17.5,8,17.276,8,17v-3.5H6.5c-0.155,0-0.299-0.07-0.394-0.193c-0.094-0.12-0.128-0.281-0.091-0.429
		l0.811-3.243C6.994,8.967,7.592,8.5,8.281,8.5H10.5C10.776,8.5,11,8.724,11,9c0,0.551,0.449,1,1,1c0.552,0,1-0.449,1-1
		c0-0.276,0.224-0.5,0.5-0.5h2.219c0.689,0,1.288,0.467,1.455,1.136l0.811,3.243c0.037,0.148,0.003,0.308-0.091,0.429
		C17.799,13.43,17.655,13.5,17.5,13.5H16V17c0,0.276-0.224,0.5-0.5,0.5H8.5z M15,16.5V13c0-0.276,0.224-0.5,0.5-0.5h1.359
		l-0.655-2.622C16.148,9.656,15.949,9.5,15.719,9.5h-1.782C13.712,10.369,12.915,11,12,11c-0.914,0-1.711-0.631-1.937-1.5H8.281
		c-0.23,0-0.429,0.156-0.485,0.378L7.14,12.5H8.5C8.776,12.5,9,12.724,9,13v3.5H15z"/>
	<path d="M19,21.5c-0.134,0-0.259-0.052-0.354-0.146c-0.195-0.195-0.195-0.512,0-0.707L19.293,20H16.5c-0.276,0-0.5-0.224-0.5-0.5
		s0.224-0.5,0.5-0.5h2.793l-0.646-0.646c-0.195-0.195-0.195-0.512,0-0.707C18.741,17.552,18.866,17.5,19,17.5
		s0.259,0.052,0.354,0.146l1.5,1.5c0.046,0.045,0.083,0.101,0.109,0.163c0.05,0.121,0.05,0.261,0,0.382
		c-0.025,0.062-0.062,0.117-0.109,0.163l-1.499,1.499C19.259,21.448,19.134,21.5,19,21.5z"/>
	<path d="M5,21.5c-0.134,0-0.259-0.052-0.354-0.146l-1.5-1.5c-0.047-0.047-0.083-0.101-0.109-0.163c-0.05-0.121-0.05-0.26,0-0.382
		c0.025-0.061,0.062-0.116,0.108-0.163l1.5-1.5C4.741,17.552,4.866,17.5,5,17.5s0.259,0.052,0.354,0.146S5.5,17.866,5.5,18
		s-0.052,0.259-0.146,0.354L4.707,19H7.5C7.776,19,8,19.224,8,19.5S7.776,20,7.5,20H4.707l0.646,0.646
		C5.448,20.741,5.5,20.866,5.5,21s-0.052,0.259-0.146,0.354S5.134,21.5,5,21.5z"/>
</g>
</svg>
