<?xml version="1.0" encoding="utf-8"?>
<!-- Generator: Adobe Illustrator 22.1.0, SVG Export Plug-In . SVG Version: 6.00 Build 0)  -->
<svg version="1.1" id="Layer_1" xmlns="http://www.w3.org/2000/svg" xmlns:xlink="http://www.w3.org/1999/xlink" x="0px" y="0px"
	 viewBox="0 0 24 24" style="enable-background:new 0 0 24 24;" xml:space="preserve">
<g>
	<title>e-commerce-shopping-bag-laptop</title>
	<path d="M9.5,9C9.224,9,9,8.776,9,8.5V8H7.5C7.224,8,7,7.776,7,7.5S7.224,7,7.5,7h3.166c0.152-0.001,0.286-0.108,0.325-0.259
		c0.047-0.183-0.065-0.37-0.248-0.417L8.021,5.645c-0.592-0.151-1.009-0.681-1.014-1.29C7.003,3.996,7.14,3.658,7.391,3.402
		C7.643,3.146,7.979,3.003,8.338,3H9V2.5C9,2.224,9.224,2,9.5,2S10,2.224,10,2.5V3h1.5C11.776,3,12,3.224,12,3.5S11.776,4,11.5,4
		H8.342C8.254,4.001,8.169,4.037,8.105,4.103C8.041,4.168,8.006,4.254,8.007,4.346c0.001,0.156,0.108,0.291,0.259,0.329l2.722,0.679
		c0.719,0.183,1.155,0.915,0.973,1.633C11.81,7.578,11.28,7.995,10.67,8H10v0.5C10,8.776,9.776,9,9.5,9z"/>
	<path d="M1.61,15c-0.361-0.001-0.714-0.125-0.995-0.347c-0.337-0.267-0.551-0.649-0.601-1.076c-0.05-0.427,0.069-0.849,0.336-1.186
		L2,10.325V2c0-1.103,0.897-2,2-2h12c1.103,0,2,0.897,2,2v8.5c0,0.276-0.224,0.5-0.5,0.5H2.74l-1.607,2.012
		c-0.1,0.126-0.145,0.286-0.126,0.448c0.019,0.162,0.1,0.307,0.228,0.408C1.342,13.953,1.476,14,1.612,14H11.5
		c0.276,0,0.5,0.224,0.5,0.5S11.776,15,11.5,15H1.61z M17,10V2c0-0.551-0.448-1-1-1H4C3.448,1,3,1.449,3,2v8H17z"/>
	<path d="M9.5,13C9.224,13,9,12.776,9,12.5C9,12.224,9.224,12,9.5,12h1c0.276,0,0.5,0.224,0.5,0.5c0,0.276-0.224,0.5-0.5,0.5H9.5z"
		/>
	<path d="M14.893,24c-1.04,0-1.889-0.846-1.893-1.886c0-0.096,0.007-0.194,0.022-0.29l0.832-5.413C13.98,15.594,14.672,15,15.5,15
		H16v-0.5c0-1.378,1.122-2.5,2.5-2.5s2.5,1.122,2.5,2.5V15h0.5c0.828,0,1.52,0.594,1.646,1.413l0.832,5.406
		C23.993,21.914,24,22.01,24,22.107C24,23.151,23.151,24,22.107,24H14.893z M15.5,16c-0.331,0-0.608,0.238-0.658,0.564l-0.832,5.412
		C14.003,22.02,14,22.065,14,22.11c0.002,0.491,0.402,0.89,0.893,0.89h7.214C22.599,23,23,22.599,23,22.107
		c0-0.045-0.003-0.091-0.01-0.136l-0.832-5.405C22.107,16.238,21.831,16,21.5,16H21v1.5c0,0.276-0.224,0.5-0.5,0.5
		S20,17.776,20,17.5V16h-3v1.5c0,0.276-0.224,0.5-0.5,0.5S16,17.776,16,17.5V16H15.5z M20,15v-0.5c0-0.827-0.673-1.5-1.5-1.5
		S17,13.673,17,14.5L20,15z"/>
</g>
</svg>
