<?xml version="1.0" encoding="utf-8"?>
<!-- Generator: Adobe Illustrator 22.1.0, SVG Export Plug-In . SVG Version: 6.00 Build 0)  -->
<svg version="1.1" id="Layer_1" xmlns="http://www.w3.org/2000/svg" xmlns:xlink="http://www.w3.org/1999/xlink" x="0px" y="0px"
	 viewBox="0 0 24 24" style="enable-background:new 0 0 24 24;" xml:space="preserve">
<g>
	<title>e-commerce-cart-monitor-keyboard</title>
	<path d="M7.036,17c-0.276,0-0.5-0.224-0.5-0.5S6.76,16,7.036,16H11.5v-2H5c-1.204,0-2.5-0.626-2.5-2V3.033
		C2.441,2.566,2.563,2.1,2.845,1.721C3.135,1.33,3.559,1.076,4.04,1.005c0.088-0.013,0.178-0.02,0.266-0.02
		C4.383,0.985,4.459,0.99,4.534,1h14.932c0.077-0.01,0.154-0.015,0.231-0.015c0.391,0,0.765,0.124,1.082,0.359
		c0.391,0.29,0.645,0.715,0.716,1.196c0.024,0.164,0.026,0.33,0.005,0.493V12c0,1.374-1.296,2-2.5,2h-6.5v2H17
		c0.276,0,0.5,0.224,0.5,0.5S17.276,17,17,17H7.036z M4.307,1.985c-0.04,0-0.08,0.003-0.12,0.009
		C3.97,2.026,3.778,2.141,3.647,2.317C3.517,2.493,3.463,2.709,3.495,2.926C3.498,2.95,3.5,2.975,3.5,3v9c0,0.687,0.778,1,1.5,1h14
		c0.722,0,1.5-0.313,1.5-1V3c0-0.024,0.002-0.048,0.005-0.072c0.012-0.081,0.012-0.162,0-0.241
		c-0.032-0.217-0.147-0.409-0.323-0.539c-0.143-0.106-0.312-0.162-0.488-0.162c-0.041,0-0.081,0.003-0.122,0.009
		C19.549,1.998,19.525,2,19.5,2h-15C4.475,2,4.451,1.998,4.426,1.994C4.387,1.988,4.347,1.985,4.307,1.985z"/>
	<path d="M4.5,23c-0.401,0-0.777-0.156-1.061-0.44C3.156,22.276,3,21.899,3.001,21.499c0-0.232,0.055-0.463,0.158-0.67l1-2
		C4.414,18.318,4.928,18,5.5,18h13.382c0.572,0,1.085,0.318,1.341,0.829l1,2c0.37,0.74,0.069,1.643-0.671,2.012
		C20.345,22.945,20.113,23,19.882,23H4.5z M5.5,19c-0.191,0-0.362,0.106-0.447,0.277l-1,2c-0.034,0.069-0.053,0.146-0.053,0.223
		c0,0.133,0.052,0.259,0.146,0.353C4.241,21.948,4.367,22,4.5,22h15.382c0.077,0,0.154-0.018,0.223-0.053
		c0.119-0.06,0.208-0.162,0.25-0.289c0.042-0.127,0.033-0.262-0.027-0.382l-1-2C19.244,19.106,19.072,19,18.881,19H5.5L5.5,19z"/>
	<path d="M6.5,21C6.224,21,6,20.775,6,20.5S6.224,20,6.5,20h1C7.776,20,8,20.224,8,20.5S7.776,21,7.5,21H6.5z"/>
	<path d="M10,21c-0.276,0-0.5-0.224-0.5-0.5S9.724,20,10,20h1c0.276,0,0.5,0.224,0.5,0.5S11.276,21,11,21H10z"/>
	<path d="M13.5,21c-0.276,0-0.5-0.224-0.5-0.5s0.224-0.5,0.5-0.5h1c0.276,0,0.5,0.224,0.5,0.5S14.776,21,14.5,21H13.5z"/>
	<path d="M17,21c-0.276,0-0.5-0.224-0.5-0.5S16.724,20,17,20h1c0.276,0,0.5,0.224,0.5,0.5S18.276,21,18,21H17z"/>
	<path d="M10.071,10c-0.399,0-0.758-0.235-0.917-0.6L8.069,6.368C7.972,6.149,7.968,5.884,8.064,5.639
		C8.163,5.388,8.352,5.19,8.598,5.083C8.725,5.028,8.86,5,8.998,5h6.106l0.426-1.171C15.602,3.632,15.79,3.499,16,3.499
		c0.058,0,0.116,0.01,0.171,0.03c0.126,0.046,0.226,0.138,0.282,0.259c0.056,0.121,0.062,0.257,0.017,0.383l-0.54,1.486
		c-0.002,0.007-0.008,0.024-0.016,0.042L14.59,9.341C14.447,9.735,14.069,10,13.65,10H10.071z M13.65,9l1.091-3H8.998l1.073,2.998
		L13.65,9z"/>
	<circle cx="10.75" cy="11.25" r="0.75"/>
	<circle cx="13.25" cy="11.25" r="0.75"/>
</g>
</svg>
