<?xml version="1.0" encoding="utf-8"?>
<!-- Generator: Adobe Illustrator 22.1.0, SVG Export Plug-In . SVG Version: 6.00 Build 0)  -->
<svg version="1.1" id="Layer_1" xmlns="http://www.w3.org/2000/svg" xmlns:xlink="http://www.w3.org/1999/xlink" x="0px" y="0px"
	 viewBox="0 0 24 24" style="enable-background:new 0 0 24 24;" xml:space="preserve">
<g>
	<title>e-commerce-cart-browser</title>
	<circle cx="4.25" cy="6.25" r="0.75"/>
	<circle cx="7.423" cy="6.25" r="0.75"/>
	<circle cx="10.6" cy="6.25" r="0.75"/>
	<path d="M3.538,21C1.863,21,0.5,19.637,0.5,17.962V6.038C0.5,4.363,1.863,3,3.538,3h16.924C22.137,3,23.5,4.363,23.5,6.038v11.924
		c0,1.675-1.363,3.038-3.038,3.038H3.538z M1.5,17.962C1.5,19.086,2.414,20,3.538,20h16.924c1.124,0,2.038-0.914,2.038-2.038V9h-21
		V17.962z M22.5,8V6.038C22.5,4.914,21.586,4,20.462,4H3.538C2.414,4,1.5,4.914,1.5,6.038V8H22.5z"/>
	<path d="M10.071,16c-0.399,0-0.759-0.236-0.917-0.6l-1.084-3.031c-0.095-0.215-0.098-0.488-0.002-0.734
		c0.098-0.249,0.286-0.444,0.531-0.551C8.725,11.028,8.858,11,8.992,11h6.113l0.426-1.171C15.602,9.632,15.791,9.5,16,9.5
		c0.058,0,0.115,0.01,0.17,0.03c0.126,0.046,0.226,0.138,0.283,0.259c0.056,0.121,0.062,0.257,0.017,0.383l-0.54,1.486
		c-0.001,0.006-0.008,0.024-0.016,0.042l-1.324,3.643C14.447,15.736,14.069,16,13.65,16H10.071z M13.65,15l1.091-3H8.998
		l1.073,2.998L13.65,15z"/>
	<circle cx="10.75" cy="17.25" r="0.75"/>
	<circle cx="13.25" cy="17.25" r="0.75"/>
</g>
</svg>
