<?xml version="1.0" encoding="utf-8"?>
<!-- Generator: Adobe Illustrator 22.1.0, SVG Export Plug-In . SVG Version: 6.00 Build 0)  -->
<svg version="1.1" id="Layer_1" xmlns="http://www.w3.org/2000/svg" xmlns:xlink="http://www.w3.org/1999/xlink" x="0px" y="0px"
	 viewBox="0 0 24 24" style="enable-background:new 0 0 24 24;" xml:space="preserve">
<g>
	<title>e-commerce-apparel</title>
	<path d="M7.5,22.953c-0.276,0-0.5-0.224-0.5-0.5s0.224-0.5,0.5-0.5h1.36l0.093-0.15c0.566-0.856,0.93-1.835,1.064-2.85H1.5
		c-0.827,0-1.5-0.673-1.5-1.5v-15c0-0.827,0.673-1.5,1.5-1.5h21c0.827,0,1.5,0.673,1.5,1.5v15c0,0.827-0.673,1.5-1.5,1.5h-8.518
		c0.133,1.015,0.496,1.991,1.057,2.838l0.101,0.162h1.36c0.276,0,0.5,0.224,0.5,0.5s-0.224,0.5-0.5,0.5H7.5z M13.964,21.953
		c-0.533-0.921-0.872-1.945-0.992-3h-1.942c-0.121,1.056-0.46,2.081-0.992,3H13.964z M1,17.453c0,0.276,0.224,0.5,0.5,0.5h21
		c0.276,0,0.5-0.224,0.5-0.5v-1.5H1V17.453z M23,14.953v-12.5c0-0.276-0.224-0.5-0.5-0.5h-21c-0.276,0-0.5,0.224-0.5,0.5v12.5H23z"
		/>
	<path d="M8.5,12.953c-0.276,0-0.5-0.224-0.5-0.5v-3.5H6.5c-0.155,0-0.299-0.07-0.394-0.192C6.01,8.639,5.977,8.482,6.015,8.332
		L6.826,5.09c0.167-0.669,0.765-1.136,1.455-1.137H10.5c0.276,0,0.5,0.224,0.5,0.5c0,0.551,0.449,1,1,1c0.552,0,1-0.449,1-1
		c0-0.276,0.224-0.5,0.5-0.5h2.219c0.69,0,1.288,0.468,1.455,1.137l0.811,3.242c0.038,0.15,0.005,0.307-0.091,0.429
		c-0.095,0.122-0.239,0.192-0.394,0.192H16v3.5c0,0.276-0.224,0.5-0.5,0.5H8.5z M15,11.953v-3.5c0-0.276,0.224-0.5,0.5-0.5h1.359
		l-0.655-2.621c-0.056-0.223-0.255-0.379-0.485-0.379h-1.782c-0.225,0.869-1.022,1.5-1.937,1.5c-0.914,0-1.711-0.631-1.937-1.5
		H8.281c-0.23,0-0.429,0.156-0.485,0.379L7.14,7.953H8.5c0.276,0,0.5,0.224,0.5,0.5v3.5H15z"/>
</g>
</svg>
