<?xml version="1.0" encoding="utf-8"?>
<!-- Generator: Adobe Illustrator 22.1.0, SVG Export Plug-In . SVG Version: 6.00 Build 0)  -->
<svg version="1.1" id="Layer_1" xmlns="http://www.w3.org/2000/svg" xmlns:xlink="http://www.w3.org/1999/xlink" x="0px" y="0px"
	 viewBox="0 0 24 24" style="enable-background:new 0 0 24 24;" xml:space="preserve">
<g>
	<title>e-commerce-monitor-keyboard-basket</title>
	<path d="M7.036,17c-0.276,0-0.5-0.224-0.5-0.5S6.76,16,7.036,16H11.5v-2H5c-1.204,0-2.5-0.626-2.5-2V3.033
		C2.441,2.566,2.563,2.1,2.845,1.721C3.135,1.33,3.559,1.076,4.04,1.005c0.088-0.013,0.178-0.02,0.266-0.02
		C4.383,0.985,4.459,0.99,4.534,1h14.932c0.077-0.01,0.154-0.015,0.231-0.015c0.391,0,0.765,0.124,1.082,0.359
		c0.391,0.29,0.645,0.715,0.716,1.196c0.024,0.164,0.026,0.33,0.005,0.493V12c0,1.374-1.296,2-2.5,2h-6.5v2H17
		c0.276,0,0.5,0.224,0.5,0.5S17.276,17,17,17H7.036z M4.307,1.985c-0.04,0-0.08,0.003-0.12,0.009
		C3.97,2.026,3.778,2.141,3.647,2.317C3.517,2.493,3.463,2.709,3.495,2.926C3.498,2.95,3.5,2.975,3.5,3v9c0,0.687,0.778,1,1.5,1h14
		c0.722,0,1.5-0.313,1.5-1V3c0-0.024,0.002-0.048,0.005-0.072c0.012-0.081,0.012-0.162,0-0.241
		c-0.032-0.217-0.147-0.409-0.323-0.539c-0.143-0.106-0.312-0.162-0.488-0.162c-0.041,0-0.081,0.003-0.122,0.009
		C19.549,1.998,19.525,2,19.5,2h-15C4.475,2,4.451,1.998,4.426,1.994C4.387,1.988,4.347,1.985,4.307,1.985z"/>
	<path d="M4.5,23c-0.401,0-0.777-0.156-1.061-0.44C3.156,22.276,3,21.899,3.001,21.499c0-0.232,0.055-0.463,0.158-0.67l1-2
		C4.414,18.318,4.928,18,5.5,18h13.382c0.572,0,1.085,0.318,1.341,0.829l1,2c0.37,0.74,0.069,1.643-0.671,2.012
		C20.345,22.945,20.113,23,19.882,23H4.5z M5.5,19c-0.191,0-0.362,0.106-0.447,0.277l-1,2c-0.034,0.069-0.053,0.146-0.053,0.223
		c0,0.133,0.052,0.259,0.146,0.353C4.241,21.948,4.367,22,4.5,22h15.382c0.077,0,0.154-0.018,0.223-0.053
		c0.119-0.06,0.208-0.162,0.25-0.289c0.042-0.127,0.033-0.262-0.027-0.382l-1-2C19.244,19.106,19.072,19,18.881,19H5.5L5.5,19z"/>
	<path d="M6.5,21C6.224,21,6,20.775,6,20.5S6.224,20,6.5,20h1C7.776,20,8,20.224,8,20.5S7.776,21,7.5,21H6.5z"/>
	<path d="M10,21c-0.276,0-0.5-0.224-0.5-0.5S9.724,20,10,20h1c0.276,0,0.5,0.224,0.5,0.5S11.276,21,11,21H10z"/>
	<path d="M13.5,21c-0.276,0-0.5-0.224-0.5-0.5s0.224-0.5,0.5-0.5h1c0.276,0,0.5,0.224,0.5,0.5S14.776,21,14.5,21H13.5z"/>
	<path d="M17,21c-0.276,0-0.5-0.224-0.5-0.5S16.724,20,17,20h1c0.276,0,0.5,0.224,0.5,0.5S18.276,21,18,21H17z"/>
	<path d="M9.344,11.001c-0.54,0-1.002-0.41-1.076-0.953L7.512,6.607C7.479,6.458,7.515,6.305,7.61,6.186C7.706,6.068,7.848,6,8,6
		h0.692L9.82,3.757c0.085-0.17,0.256-0.275,0.447-0.275c0.078,0,0.156,0.019,0.225,0.054c0.119,0.06,0.208,0.163,0.25,0.29
		s0.032,0.262-0.028,0.382L9.811,6h4.377l-0.902-1.793c-0.124-0.246-0.024-0.547,0.222-0.671c0.068-0.035,0.146-0.053,0.224-0.053
		c0.19,0,0.362,0.105,0.447,0.275L15.308,6H16c0.152,0,0.294,0.068,0.39,0.187c0.095,0.119,0.131,0.272,0.099,0.421l-0.764,3.482
		c-0.067,0.511-0.533,0.912-1.079,0.912c0,0,0,0,0,0c-0.027,0-0.054-0.001-0.081-0.003L9.4,11
		C9.393,11.001,9.369,11.001,9.344,11.001z M9.252,9.874c0.012,0.082,0.054,0.127,0.105,0.127C9.364,10.001,9.376,10,9.383,10
		L14.6,10L14.629,10c0.061,0,0.105-0.034,0.112-0.086L15.379,7H8.622L9.252,9.874z"/>
</g>
</svg>
