<?xml version="1.0" encoding="utf-8"?>
<!-- Generator: Adobe Illustrator 22.1.0, SVG Export Plug-In . SVG Version: 6.00 Build 0)  -->
<svg version="1.1" id="Layer_1" xmlns="http://www.w3.org/2000/svg" xmlns:xlink="http://www.w3.org/1999/xlink" x="0px" y="0px"
	 viewBox="0 0 24 24" style="enable-background:new 0 0 24 24;" xml:space="preserve">
<g>
	<title>e-commerce-apparel-laptop</title>
	<path d="M1.338,24C1.167,24,1,23.968,0.842,23.905c-0.332-0.133-0.593-0.386-0.734-0.715c-0.141-0.328-0.146-0.692-0.013-1.025
		l1.904-4.761V6.5c0-0.827,0.673-1.5,1.5-1.5h7c0.276,0,0.5,0.224,0.5,0.5S10.775,6,10.499,6h-7c-0.276,0-0.5,0.224-0.5,0.5V17h18
		v-2.5c0-0.276,0.224-0.5,0.5-0.5s0.5,0.224,0.5,0.5v2.904l1.904,4.761c0.063,0.158,0.095,0.325,0.095,0.496
		c0,0.357-0.139,0.694-0.392,0.947C23.354,23.86,23.018,24,22.661,24H1.338z M1.024,22.536c-0.034,0.084-0.032,0.176,0.003,0.259
		s0.102,0.147,0.186,0.181C1.253,22.992,1.295,23,1.338,23H22.66c0.09,0,0.176-0.035,0.24-0.1c0.064-0.064,0.099-0.149,0.099-0.239
		c0-0.043-0.008-0.085-0.024-0.125L21.161,18H2.838L1.024,22.536z"/>
	<path d="M10.499,22c-0.276,0-0.5-0.224-0.5-0.5s0.224-0.5,0.5-0.5h3c0.276,0,0.5,0.224,0.5,0.5s-0.224,0.5-0.5,0.5H10.499z"/>
	<path d="M7.499,15c-0.276,0-0.5-0.224-0.5-0.5V14h-1.5c-0.276,0-0.5-0.224-0.5-0.5s0.224-0.5,0.5-0.5h3.166
		c0.152-0.001,0.286-0.108,0.325-0.259c0.047-0.183-0.065-0.37-0.248-0.417L6.02,11.645c-0.592-0.151-1.009-0.681-1.014-1.29
		C5.003,9.996,5.139,9.658,5.391,9.402C5.642,9.146,5.978,9.003,6.337,9h0.662V8.5c0-0.276,0.224-0.5,0.5-0.5s0.5,0.224,0.5,0.5V9
		h1.5c0.276,0,0.5,0.224,0.5,0.5S9.775,10,9.499,10H6.341c-0.088,0.001-0.173,0.037-0.237,0.103
		c-0.064,0.065-0.099,0.152-0.098,0.243c0.001,0.156,0.108,0.291,0.259,0.329l2.722,0.679c0.719,0.183,1.155,0.915,0.973,1.633
		C9.809,13.578,9.279,13.995,8.67,14h-0.67v0.5C7.999,14.776,7.775,15,7.499,15z"/>
	<path d="M14.499,12c-0.827,0-1.5-0.673-1.5-1.5V4h-0.5c-0.827,0-1.5-0.673-1.5-1.5v-1c0-0.827,0.673-1.5,1.5-1.5h2.551
		c0.473,0.001,0.884,0.337,0.979,0.8c0.141,0.697,0.76,1.202,1.47,1.202c0.1,0,0.2-0.01,0.299-0.03
		c0.592-0.12,1.051-0.58,1.171-1.171c0.095-0.464,0.507-0.8,0.979-0.801h2.552c0.827,0,1.5,0.673,1.5,1.5v1
		c0,0.827-0.673,1.5-1.5,1.5h-0.5v6.5c0,0.827-0.673,1.5-1.5,1.5H14.499z M12.499,1c-0.276,0-0.5,0.224-0.5,0.5v1
		c0,0.276,0.224,0.5,0.5,0.5h1c0.276,0,0.5,0.224,0.5,0.5v7c0,0.276,0.224,0.5,0.5,0.5h6c0.276,0,0.5-0.224,0.5-0.5v-7
		c0-0.276,0.224-0.5,0.5-0.5h1c0.276,0,0.5-0.224,0.5-0.5v-1c0-0.276-0.224-0.5-0.5-0.5h-2.551
		c-0.199,0.986-0.966,1.752-1.951,1.952c-0.164,0.033-0.332,0.05-0.498,0.05c-1.183,0-2.214-0.842-2.449-2.003L12.499,1z"/>
</g>
</svg>
