<?xml version="1.0" encoding="utf-8"?>
<!-- Generator: Adobe Illustrator 22.1.0, SVG Export Plug-In . SVG Version: 6.00 Build 0)  -->
<svg version="1.1" id="Layer_1" xmlns="http://www.w3.org/2000/svg" xmlns:xlink="http://www.w3.org/1999/xlink" x="0px" y="0px"
	 viewBox="0 0 24 24" style="enable-background:new 0 0 24 24;" xml:space="preserve">
<g>
	<title>e-commerce-gift</title>
	<path d="M5.624,24c-1.999,0-3.828-1.01-4.893-2.701c-0.151-0.24-0.23-0.516-0.23-0.799c0-0.4,0.156-0.777,0.44-1.06
		C1.223,19.156,1.6,19,2,19h1V9.167C3.001,7.972,3.972,7,5.167,7h5.834c0.276,0,0.5,0.224,0.5,0.5S11.276,8,11.001,8H5.167
		C4.524,8,4.001,8.523,4.001,9.166V19h4.5c0.276,0,0.5,0.224,0.5,0.5c0,0.799,1.402,1.5,3,1.5s3-0.701,3-1.5
		c0-0.276,0.224-0.5,0.5-0.5h4.5v-6.5c0-0.276,0.224-0.5,0.5-0.5s0.5,0.224,0.5,0.5V19h1c0.283,0,0.559,0.08,0.798,0.23
		c0.339,0.213,0.575,0.545,0.664,0.936c0.089,0.391,0.021,0.792-0.192,1.132C22.206,22.99,20.377,24,18.378,24H5.624z M2,20
		c-0.134,0-0.259,0.052-0.353,0.146C1.552,20.241,1.5,20.366,1.5,20.5c0,0.094,0.026,0.186,0.077,0.266
		C2.458,22.165,3.97,23,5.624,23h12.754c1.653,0,3.166-0.835,4.047-2.235c0.071-0.113,0.094-0.246,0.064-0.377
		c-0.03-0.13-0.108-0.241-0.221-0.312C22.187,20.027,22.095,20,22.001,20h-6.076c-0.36,1.171-1.961,2-3.924,2s-3.565-0.829-3.925-2
		H2z"/>
	<path d="M14.001,11c-0.827,0-1.5-0.673-1.5-1.5v-6c0-0.827,0.673-1.5,1.5-1.5h2.575l-1.387-1.11
		c-0.215-0.172-0.25-0.487-0.078-0.703C15.206,0.068,15.348,0,15.501,0c0.113,0,0.224,0.039,0.312,0.109l2.188,1.75l2.188-1.75
		C20.277,0.039,20.388,0,20.5,0c0.153,0,0.295,0.068,0.391,0.187c0.172,0.216,0.137,0.531-0.078,0.703L19.426,2h2.575
		c0.827,0,1.5,0.673,1.5,1.5v6c0,0.827-0.673,1.5-1.5,1.5H14.001z M22.001,10c0.276,0,0.5-0.224,0.5-0.5V7h-4v3H22.001z M13.501,9.5
		c0,0.276,0.224,0.5,0.5,0.5h3.5V7h-4V9.5z M22.501,6V3.5c0-0.276-0.224-0.5-0.5-0.5h-3.5v3H22.501z M17.501,6V3h-3.5
		c-0.276,0-0.5,0.224-0.5,0.5V6H17.501z"/>
</g>
</svg>
