<?xml version="1.0" encoding="utf-8"?>
<!-- Generator: Adobe Illustrator 22.1.0, SVG Export Plug-In . SVG Version: 6.00 Build 0)  -->
<svg version="1.1" id="Layer_1" xmlns="http://www.w3.org/2000/svg" xmlns:xlink="http://www.w3.org/1999/xlink" x="0px" y="0px"
	 viewBox="0 0 24 24" style="enable-background:new 0 0 24 24;" xml:space="preserve">
<g>
	<title>e-commerce-cart-monitor</title>
	<path d="M7,22.5c-0.276,0-0.5-0.224-0.5-0.5s0.224-0.5,0.5-0.5h1.738c0.613-0.896,1.022-1.926,1.193-3H2
		c-0.85-0.029-1.505-0.708-1.5-1.545V3c0-0.827,0.673-1.5,1.5-1.5h20c0.827,0,1.5,0.673,1.5,1.5v13.957
		c0.005,0.835-0.646,1.513-1.482,1.542l-7.948,0c0.173,1.073,0.582,2.103,1.193,3H17c0.276,0,0.5,0.224,0.5,0.5s-0.224,0.5-0.5,0.5
		H7z M14.081,21.5c-0.527-0.923-0.878-1.948-1.027-3h-2.107c-0.148,1.052-0.499,2.077-1.026,3H14.081z M1.5,16.958
		C1.498,17.252,1.725,17.49,2.017,17.5L22,17.5c0.278-0.01,0.502-0.247,0.5-0.539V15.5h-21V16.958z M22.5,14.5V3
		c0-0.276-0.224-0.5-0.5-0.5H2C1.724,2.5,1.5,2.724,1.5,3v11.5H22.5z"/>
	<path d="M9.571,10.5c-0.399,0-0.758-0.236-0.917-0.6L7.569,6.868C7.474,6.654,7.471,6.38,7.567,6.135
		C7.665,5.886,7.853,5.69,8.098,5.583c0.134-0.059,0.27-0.072,0.379-0.082L14.604,5.5l0.426-1.171C15.102,4.132,15.291,4,15.5,4
		c0.058,0,0.116,0.01,0.171,0.03c0.125,0.046,0.225,0.137,0.282,0.258c0.056,0.121,0.062,0.257,0.017,0.383l-0.54,1.486
		c-0.002,0.007-0.008,0.024-0.016,0.041L14.09,9.842c-0.144,0.394-0.521,0.658-0.94,0.658H9.571z M13.15,9.5l1.091-3H8.498
		l1.073,2.998L13.15,9.5z"/>
	<circle cx="10.25" cy="11.75" r="0.75"/>
	<circle cx="12.75" cy="11.75" r="0.75"/>
</g>
</svg>
