<?xml version="1.0" encoding="utf-8"?>
<!-- Generator: Adobe Illustrator 22.1.0, SVG Export Plug-In . SVG Version: 6.00 Build 0)  -->
<svg version="1.1" id="Light" xmlns="http://www.w3.org/2000/svg" xmlns:xlink="http://www.w3.org/1999/xlink" x="0px" y="0px"
	 viewBox="0 0 24 24" style="enable-background:new 0 0 24 24;" xml:space="preserve">
<g>
	<title>decoration-cherry-blossom-vase</title>
	<path d="M11.027,24c-2.43,0-4-1.879-4-4.786c0-0.019,0.001-0.038,0.003-0.057c0.191-1.703,0.827-3.337,1.839-4.722
		C9.037,14.172,9.357,14,9.694,14h2.665c0.342,0,0.657,0.172,0.842,0.46c0.998,1.364,1.631,2.993,1.823,4.698
		c0.002,0.02,0.003,0.038,0.003,0.056C15.027,22.121,13.457,24,11.027,24z M8.027,19.242c0.01,2.283,1.186,3.758,3,3.758
		s2.991-1.474,3-3.758c-0.176-1.522-0.747-2.98-1.651-4.217l-0.02-0.026L9.694,15C8.776,16.258,8.203,17.72,8.027,19.242z"/>
	<path d="M3.473,15c-1.103,0-2-0.897-2-2s0.897-2,2-2c0.502,0,0.983,0.19,1.35,0.528l1.169-0.876C6.552,10.231,7.245,10,7.945,10
		h1.593L8.574,7H8.087C7.283,7,6.525,6.691,5.95,6.13C5.409,5.73,4.726,5.506,4.026,5.5H3.908C3.682,6.369,2.886,7,1.973,7
		c-1.103,0-2-0.897-2-2s0.897-2,2-2c0.913,0,1.709,0.631,1.934,1.5h0.12c0.925,0.005,1.83,0.307,2.551,0.851
		c0.019,0.015,0.036,0.03,0.052,0.046C7.02,5.786,7.537,6,8.087,6h0.165L7.609,3.998C7.581,3.999,7.554,4,7.527,4
		c-1.103,0-2-0.897-2-2s0.897-2,2-2s2,0.897,2,2c0,0.698-0.371,1.346-0.962,1.707l1.198,3.728l1.543-1.852
		C10.82,5.207,10.527,4.623,10.527,4c0-1.103,0.897-2,2-2c1.103,0,2,0.897,2,2s-0.897,2-2,2c-0.084,0-0.169-0.005-0.253-0.016
		l-2.149,2.578l1.075,3.345l5.81-8.045c-0.344-0.369-0.537-0.854-0.537-1.361c0-1.103,0.897-2,2-2s2,0.897,2,2s-0.897,2-2,2
		c-0.212,0-0.419-0.033-0.619-0.099l-1.333,1.845l1.071,0.805C17.979,7.341,18.458,7.5,18.942,7.5h1.151
		C20.318,6.631,21.114,6,22.027,6c1.103,0,2,0.897,2,2s-0.897,2-2,2c-0.913,0-1.709-0.631-1.934-1.5h-1.148
		c-0.702,0-1.394-0.23-1.953-0.649l-1.057-0.794L14.417,9.16l1.86,1.24c0.345-0.259,0.763-0.4,1.196-0.4c1.103,0,2,0.897,2,2
		s-0.897,2-2,2s-2-0.897-2-2c0-0.281,0.061-0.56,0.177-0.817l-1.818-1.212l-2.399,3.322c-0.013,0.018-0.035,0.04-0.055,0.056
		c-0.022,0.022-0.048,0.043-0.076,0.062c-0.019,0.013-0.043,0.028-0.072,0.041c-0.018,0.01-0.038,0.019-0.055,0.024
		c-0.034,0.011-0.068,0.016-0.098,0.018c-0.017,0.003-0.034,0.005-0.049,0.005c-0.105,0-0.207-0.033-0.292-0.095
		c-0.006-0.005-0.013-0.01-0.019-0.015c-0.042-0.034-0.076-0.072-0.106-0.117c-0.007-0.01-0.02-0.036-0.026-0.047
		c-0.008-0.014-0.023-0.04-0.034-0.074L9.859,11H7.945c-0.485,0-0.965,0.16-1.353,0.451L5.37,12.368
		C5.438,12.572,5.473,12.784,5.473,13C5.473,14.103,4.576,15,3.473,15z M3.473,12c-0.551,0-1,0.448-1,1s0.449,1,1,1s1-0.448,1-1
		S4.025,12,3.473,12z M17.473,11c-0.552,0-1,0.449-1,1c0,0.552,0.448,1,1,1s1-0.448,1-1C18.473,11.449,18.025,11,17.473,11z
		 M22.027,7c-0.552,0-1,0.449-1,1s0.448,1,1,1s1-0.449,1-1S22.579,7,22.027,7z M1.973,4c-0.551,0-1,0.449-1,1s0.449,1,1,1
		s1-0.449,1-1S2.525,4,1.973,4z M12.378,4.988C12.427,4.996,12.478,5,12.527,5c0.552,0,1-0.449,1-1s-0.448-1-1-1s-1,0.449-1,1
		c0,0.395,0.23,0.746,0.589,0.909C12.21,4.911,12.3,4.938,12.378,4.988z M18.473,1.5c-0.552,0-1,0.449-1,1s0.448,1,1,1s1-0.449,1-1
		S19.025,1.5,18.473,1.5z M7.527,1c-0.551,0-1,0.449-1,1s0.449,1,1,1s1-0.449,1-1S8.079,1,7.527,1z"/>
</g>
</svg>
