<?xml version="1.0" encoding="utf-8"?>
<!-- Generator: Adobe Illustrator 22.1.0, SVG Export Plug-In . SVG Version: 6.00 Build 0)  -->
<svg version="1.1" id="Light" xmlns="http://www.w3.org/2000/svg" xmlns:xlink="http://www.w3.org/1999/xlink" x="0px" y="0px"
	 viewBox="0 0 24 24" style="enable-background:new 0 0 24 24;" xml:space="preserve">
<g>
	<title>decoration-clock-retro</title>
	<path d="M3.5,23.997c-0.551,0-1-0.448-1-1c0-0.081,0.01-0.163,0.03-0.242l0.25-1c0.112-0.446,0.511-0.757,0.97-0.757H4V6.133
		L3.278,6.615C3.195,6.67,3.099,6.698,3.001,6.698c-0.168,0-0.323-0.083-0.416-0.223c-0.153-0.229-0.091-0.54,0.139-0.693
		l8.168-5.448c0.33-0.22,0.714-0.337,1.109-0.337s0.779,0.116,1.109,0.337l8.168,5.448c0.111,0.074,0.187,0.187,0.213,0.318
		c0.026,0.131,0,0.264-0.074,0.375C21.324,6.615,21.168,6.698,21,6.698c-0.099,0-0.195-0.029-0.278-0.084L20,6.133v14.866h0.25
		c0.46,0.001,0.859,0.312,0.97,0.758l0.25,0.999c0.065,0.26,0.025,0.528-0.113,0.757c-0.138,0.229-0.356,0.391-0.616,0.456
		c-0.078,0.02-0.159,0.03-0.241,0.03H3.5z M3.75,21.998l-0.25,1l17,0l-0.25-0.999l-0.729,0c-0.007,0.001-0.014,0.001-0.021,0.001
		h-15c-0.007,0-0.014,0-0.021-0.001L3.75,21.998v-0.25V21.998z M19,20.998V5.466l-6.445-4.299C12.39,1.056,12.198,0.998,12,0.998
		s-0.389,0.058-0.555,0.169L5,5.466v15.533H19z"/>
	<path d="M7,19.998c-0.551,0-1-0.448-1-1V12c0-0.551,0.449-1,1-1h10c0.552,0,1,0.449,1,1v6.999c0,0.552-0.448,1-1,1H7z M7,18.998h10
		V12h-1v3.5c0,0.276-0.224,0.5-0.5,0.5s-0.5-0.224-0.5-0.5V12h-2.5v3.085c0.59,0.209,1,0.774,1,1.414c0,0.827-0.673,1.5-1.5,1.5
		s-1.5-0.673-1.5-1.5c0-0.64,0.41-1.205,1-1.414V12H9v1.5c0,0.276-0.224,0.5-0.5,0.5S8,13.775,8,13.499V12l-1,0L7,18.998z
		 M11.985,15.999c-0.268,0.008-0.485,0.23-0.485,0.5c0,0.276,0.224,0.5,0.5,0.5c0.276,0,0.5-0.224,0.5-0.5
		c0-0.27-0.216-0.491-0.485-0.5C12.011,15.999,11.99,15.999,11.985,15.999z"/>
	<path d="M12,10c-1.93,0-3.5-1.57-3.5-3.5S10.071,3,12,3s3.5,1.57,3.5,3.5S13.93,10,12,10z M12,4c-1.379,0-2.5,1.121-2.5,2.5
		S10.622,9,12,9c1.378,0,2.5-1.121,2.5-2.5S13.379,4,12,4z"/>
	<path d="M12,7c-0.276,0-0.5-0.224-0.5-0.5V5c0-0.276,0.224-0.5,0.5-0.5c0.276,0,0.5,0.224,0.5,0.5v1h1C13.776,6,14,6.224,14,6.5
		S13.776,7,13.5,7H12z"/>
</g>
</svg>
