<?xml version="1.0" encoding="utf-8"?>
<!-- Generator: Adobe Illustrator 22.1.0, SVG Export Plug-In . SVG Version: 6.00 Build 0)  -->
<svg version="1.1" id="Light" xmlns="http://www.w3.org/2000/svg" xmlns:xlink="http://www.w3.org/1999/xlink" x="0px" y="0px"
	 viewBox="0 0 24 24" style="enable-background:new 0 0 24 24;" xml:space="preserve">
<g>
	<title>decoration-bottle</title>
	<path d="M5.946,24c-1.009,0-1.973-0.482-2.579-1.289c-0.743-0.99-1.306-2.092-1.673-3.274c-0.854-2.751-0.586-5.669,0.755-8.219
		c1.341-2.549,3.595-4.423,6.345-5.277c0.528-0.166,0.883-0.65,0.882-1.204V3.421l-0.185,0c-0.456-0.013-0.88-0.203-1.194-0.536
		C7.985,2.553,7.819,2.118,7.832,1.661C7.845,1.204,8.036,0.78,8.368,0.466c0.319-0.301,0.734-0.467,1.167-0.467L9.593,0h4.906
		c0.456,0.013,0.88,0.203,1.194,0.536c0.314,0.332,0.479,0.767,0.466,1.224c-0.013,0.457-0.204,0.881-0.536,1.195
		C15.3,3.26,14.898,3.422,14.46,3.422l-0.146-0.001v1.316c0,0.555,0.357,1.039,0.887,1.205c1.184,0.368,2.287,0.931,3.277,1.675
		c2.303,1.729,3.795,4.251,4.201,7.103c0.406,2.851-0.323,5.69-2.052,7.993C20.023,23.518,19.06,24,18.052,24H5.946z M10.177,2.421
		c0.276,0,0.5,0.224,0.5,0.5v1.816c0.001,0.994-0.636,1.862-1.584,2.159c-2.497,0.775-4.542,2.476-5.758,4.788
		c-1.217,2.313-1.46,4.961-0.685,7.456c0.333,1.073,0.844,2.073,1.518,2.97C4.585,22.667,5.251,22.999,5.947,23h12.105
		c0.695,0,1.36-0.332,1.777-0.888c1.569-2.089,2.23-4.665,1.861-7.252c-0.368-2.587-1.722-4.875-3.812-6.444
		c-0.898-0.675-1.899-1.186-2.973-1.52c-0.951-0.296-1.59-1.164-1.591-2.159V2.921c0-0.276,0.224-0.5,0.5-0.5c0,0,0.601,0,0.601,0
		c0.216,0,0.388-0.067,0.522-0.193c0.138-0.13,0.217-0.307,0.222-0.496c0.006-0.19-0.063-0.371-0.193-0.509
		C14.836,1.084,14.66,1.005,14.47,1c-0.002,0-4.921,0-4.921,0C9.36,1,9.189,1.067,9.055,1.193C8.916,1.324,8.837,1.5,8.832,1.69
		C8.827,1.88,8.895,2.06,9.026,2.198c0.13,0.138,0.307,0.217,0.497,0.223C9.524,2.421,10.177,2.421,10.177,2.421z"/>
	<path d="M10.182,21.5c-2.278,0-4.131-1.854-4.131-4.132c0-3.279,2.668-5.947,5.947-5.947s5.947,2.668,5.947,5.947
		c0,2.278-1.853,4.132-4.131,4.132H10.182z M11.998,12.421c-2.728,0-4.947,2.219-4.947,4.947c0,1.727,1.405,3.132,3.131,3.132h3.632
		c1.727,0,3.131-1.406,3.131-3.132C16.946,14.64,14.726,12.421,11.998,12.421z"/>
</g>
</svg>
