<?xml version="1.0" encoding="utf-8"?>
<!-- Generator: Adobe Illustrator 22.1.0, SVG Export Plug-In . SVG Version: 6.00 Build 0)  -->
<svg version="1.1" id="Layer_1" xmlns="http://www.w3.org/2000/svg" xmlns:xlink="http://www.w3.org/1999/xlink" x="0px" y="0px"
	 viewBox="0 0 24 24" style="enable-background:new 0 0 24 24;" xml:space="preserve">
<g>
	<title>maps-mark</title>
	<path d="M6.489,22.466c-0.123,0-0.246-0.015-0.365-0.045l-4.944-1.236c-0.699-0.175-1.175-0.823-1.133-1.542L0.939,3.203
		C0.945,3.097,0.962,2.992,0.99,2.89C1.167,2.24,1.763,1.785,2.438,1.785c0.133,0,0.265,0.018,0.394,0.053l4.024,1.098
		c0.043,0.012,0.088,0.018,0.132,0.018c0.048,0,0.095-0.007,0.141-0.021l4.441-1.332C11.71,1.56,11.855,1.538,12,1.538
		s0.29,0.021,0.431,0.063l4.441,1.338c0.047,0.014,0.095,0.021,0.143,0.021c0.044,0,0.088-0.006,0.13-0.018l4.03-1.1
		c0.103-0.028,0.208-0.045,0.313-0.051c0.027-0.001,0.053-0.002,0.079-0.002c0.372,0,0.729,0.136,1.004,0.383
		c0.299,0.268,0.475,0.635,0.497,1.035l0.888,16.44c0.038,0.716-0.439,1.362-1.135,1.536l-4.947,1.236
		c-0.118,0.03-0.241,0.045-0.365,0.045c-0.133,0-0.265-0.018-0.394-0.052l-4.986-1.359c-0.043-0.012-0.087-0.018-0.131-0.018
		c-0.045,0-0.089,0.006-0.132,0.018l-4.985,1.359C6.754,22.448,6.622,22.466,6.489,22.466z M11.999,20.036
		c0.133,0,0.266,0.018,0.394,0.053l4.985,1.359c0.042,0.011,0.086,0.017,0.131,0.017c0.041,0,0.083-0.005,0.123-0.015l4.947-1.236
		c0.232-0.058,0.391-0.273,0.378-0.512l-0.888-16.44c-0.007-0.133-0.066-0.255-0.165-0.345c-0.091-0.082-0.211-0.127-0.337-0.127
		l-0.026,0.001c-0.033,0.002-0.069,0.008-0.104,0.017l-4.028,1.1c-0.128,0.035-0.261,0.053-0.395,0.053
		c-0.146,0-0.292-0.021-0.432-0.064l-4.439-1.338C12.097,2.546,12.049,2.538,12,2.538c-0.049,0-0.097,0.007-0.144,0.021L7.418,3.891
		c-0.139,0.042-0.284,0.063-0.43,0.063c-0.134,0-0.267-0.018-0.396-0.054L2.569,2.803C2.525,2.791,2.481,2.785,2.437,2.785
		c-0.225,0-0.423,0.151-0.482,0.368C1.945,3.188,1.94,3.223,1.938,3.258c0,0-0.893,16.444-0.893,16.446
		c-0.012,0.238,0.146,0.453,0.377,0.511l4.945,1.236c0.04,0.01,0.081,0.015,0.122,0.015c0.045,0,0.089-0.006,0.131-0.017
		l4.984-1.359C11.733,20.054,11.866,20.036,11.999,20.036z"/>
	<path d="M19.501,11.995c-0.134,0-0.259-0.052-0.354-0.146l-1.646-1.646l-1.646,1.646c-0.094,0.094-0.22,0.146-0.354,0.146
		s-0.259-0.052-0.354-0.146s-0.146-0.22-0.146-0.354s0.052-0.259,0.146-0.354l1.646-1.646l-1.646-1.646
		c-0.094-0.094-0.146-0.22-0.146-0.354s0.052-0.259,0.146-0.354s0.22-0.146,0.354-0.146s0.259,0.052,0.354,0.146l1.646,1.646
		l1.646-1.646c0.094-0.094,0.22-0.146,0.354-0.146s0.259,0.052,0.354,0.146s0.146,0.22,0.146,0.354s-0.052,0.259-0.146,0.354
		l-1.646,1.646l1.646,1.646c0.094,0.094,0.146,0.22,0.146,0.354s-0.052,0.259-0.146,0.354S19.635,11.995,19.501,11.995z"/>
	<path d="M4,12.995c-0.233,0-0.433-0.158-0.486-0.385c-0.031-0.13-0.009-0.264,0.061-0.378c0.07-0.114,0.18-0.193,0.31-0.224
		l1.583-0.375c0.038-0.009,0.076-0.013,0.115-0.013c0.233,0,0.433,0.158,0.487,0.385c0.031,0.13,0.009,0.264-0.061,0.378
		c-0.07,0.114-0.18,0.193-0.31,0.224l-1.583,0.375C4.078,12.99,4.039,12.995,4,12.995z"/>
	<path d="M8.501,14.995c-0.168,0-0.323-0.083-0.416-0.223l-0.769-1.154c-0.074-0.111-0.1-0.245-0.074-0.375
		c0.026-0.131,0.102-0.244,0.213-0.318c0.082-0.055,0.178-0.084,0.277-0.084c0.168,0,0.323,0.083,0.416,0.223l0.769,1.154
		c0.074,0.111,0.1,0.245,0.074,0.375c-0.026,0.131-0.102,0.244-0.213,0.318C8.695,14.966,8.599,14.995,8.501,14.995z"/>
	<path d="M10.5,16.995c-0.276,0-0.5-0.224-0.5-0.5s0.224-0.5,0.5-0.5H12c0.276,0,0.5,0.224,0.5,0.5s-0.224,0.5-0.5,0.5H10.5z"/>
	<path d="M13.5,15.495c-0.134,0-0.259-0.052-0.354-0.146S13,15.128,13,14.995s0.052-0.259,0.146-0.354l1-1
		c0.094-0.094,0.22-0.146,0.354-0.146s0.259,0.052,0.354,0.146S15,13.861,15,13.995s-0.052,0.259-0.146,0.354l-1,1
		C13.759,15.443,13.634,15.495,13.5,15.495z"/>
</g>
</svg>
