<?xml version="1.0" encoding="utf-8"?>
<!-- Generator: Adobe Illustrator 22.1.0, SVG Export Plug-In . SVG Version: 6.00 Build 0)  -->
<svg version="1.1" id="Layer_1" xmlns="http://www.w3.org/2000/svg" xmlns:xlink="http://www.w3.org/1999/xlink" x="0px" y="0px"
	 viewBox="0 0 24 24" style="enable-background:new 0 0 24 24;" xml:space="preserve">
<g>
	<title>maps-pin-2</title>
	<path d="M11.5,17.508c-0.276,0-0.5-0.224-0.5-0.5V6.969C9.3,6.724,8,5.246,8,3.508c0-1.93,1.57-3.5,3.5-3.5s3.5,1.57,3.5,3.5
		c0,1.738-1.3,3.216-3,3.461v10.039C12,17.284,11.776,17.508,11.5,17.508z M11.5,1.008c-1.379,0-2.5,1.121-2.5,2.5
		s1.121,2.5,2.5,2.5c1.378,0,2.5-1.121,2.5-2.5S12.878,1.008,11.5,1.008z"/>
	<path d="M7.467,23.99c-0.083-0.004-0.158-0.017-0.227-0.036l-6.514-1.861C0.299,21.97,0.001,21.575,0,21.132v-9.961
		c0-0.093,0.013-0.185,0.038-0.274c0.073-0.257,0.242-0.47,0.475-0.6c0.149-0.083,0.317-0.127,0.485-0.127
		c0.092,0,0.185,0.013,0.274,0.038l6.242,1.783l0.876-0.195c0.036-0.008,0.072-0.012,0.109-0.012c0.232,0,0.438,0.165,0.488,0.392
		c0.029,0.13,0.005,0.264-0.066,0.377c-0.072,0.113-0.183,0.191-0.313,0.219L8,12.909v9.975l8-1.778v-9.975l-1.391,0.31
		c-0.036,0.008-0.072,0.012-0.108,0.012c-0.233,0-0.438-0.165-0.489-0.391c-0.06-0.269,0.11-0.537,0.379-0.597l1.876-0.418
		c0.068-0.015,0.136-0.022,0.211-0.022c0.007-0.001,0.014-0.001,0.021-0.001c0.007,0,0.015,0,0.022,0.001
		c0.086,0.004,0.164,0.016,0.238,0.038l6.513,1.861C23.701,12.045,24,12.44,24,12.885v9.96c0,0.093-0.013,0.186-0.038,0.274
		c-0.122,0.427-0.517,0.726-0.962,0.726c0,0,0,0,0,0c-0.092,0-0.185-0.013-0.274-0.038l-6.241-1.783l-8.752,1.944
		c-0.071,0.016-0.144,0.024-0.217,0.024C7.513,23.992,7.478,23.991,7.467,23.99z M23,22.845l0-9.96l-6-1.714v9.96L23,22.845z
		 M1,21.131l6,1.714v-9.96l-5.999-1.714L1,21.131z"/>
</g>
</svg>
