<?xml version="1.0" encoding="utf-8"?>
<!-- Generator: Adobe Illustrator 22.1.0, SVG Export Plug-In . SVG Version: 6.00 Build 0)  -->
<svg version="1.1" id="Light" xmlns="http://www.w3.org/2000/svg" xmlns:xlink="http://www.w3.org/1999/xlink" x="0px" y="0px"
	 viewBox="0 0 24 24" style="enable-background:new 0 0 24 24;" xml:space="preserve">
<g>
	<title>fish</title>
	<path d="M5,23c-0.276,0-0.5-0.224-0.5-0.5S4.724,22,5,22h2.501c-0.359-0.492-0.718-1.171-1.087-2.058
		c-0.738-1.772-1.257-3.755-1.399-4.321c-0.108-0.433-0.231-0.497-0.245-0.502c-0.012-0.005-0.029-0.008-0.05-0.008
		c-0.199,0-0.566,0.21-0.861,0.379C3.42,15.741,2.966,16,2.5,16C1.098,16,0,14.243,0,12c0-2.243,1.098-4,2.5-4
		c0.466,0,0.92,0.259,1.359,0.51c0.295,0.169,0.663,0.379,0.862,0.379c0.021,0,0.038-0.003,0.05-0.008
		c0.013-0.006,0.136-0.069,0.244-0.503C5.374,6.943,6.292,3.644,7.504,2H5C4.724,2,4.5,1.776,4.5,1.5S4.724,1,5,1h5
		c4.241,0,7.083,2.945,8.4,4.7c0.506,0.675,0.947,1.44,1.372,2.181C20.514,9.171,21.278,10.5,22,10.5c1.977,0,2,1.485,2,1.5
		s-0.023,1.5-2,1.5c-0.722,0-1.486,1.329-2.225,2.615c-0.429,0.746-0.869,1.511-1.375,2.185C17.083,20.055,14.241,23,10,23H5z
		 M4.722,14.11c0.155,0,0.303,0.03,0.441,0.088c0.397,0.17,0.666,0.556,0.822,1.18C7.008,19.469,8.346,22,9,22h1
		c3.806,0,6.395-2.694,7.6-4.3c0.471-0.628,0.896-1.368,1.308-2.084C19.869,13.944,20.699,12.5,22,12.5c0.959,0,0.999-0.457,1-0.51
		c-0.002-0.038-0.045-0.49-1-0.49c-1.301,0-2.131-1.444-3.092-3.116C18.497,7.668,18.071,6.928,17.6,6.3C16.396,4.694,13.806,2,10,2
		H9C8.346,2,7.007,4.531,5.985,8.621c-0.156,0.625-0.425,1.01-0.822,1.18C5.026,9.86,4.878,9.889,4.723,9.889
		c-0.466,0-0.92-0.26-1.36-0.511C3.052,9.201,2.7,9,2.5,9C1.701,9,1,10.402,1,12s0.701,3,1.5,3c0.201,0,0.552-0.201,0.863-0.379
		C3.804,14.37,4.258,14.11,4.722,14.11z"/>
	<path d="M16.749,11c-0.198,0-0.386-0.077-0.527-0.217c-0.142-0.142-0.221-0.329-0.222-0.529c0-0.001,0-0.004,0-0.005
		c0-0.414,0.336-0.75,0.75-0.75c0.011,0,0.023,0.001,0.035,0.003c0.392,0.016,0.703,0.331,0.714,0.727c0,0.006,0.001,0.028,0,0.033
		c-0.007,0.394-0.324,0.719-0.716,0.736C16.773,10.999,16.762,11,16.751,11H16.749z"/>
	<path d="M11.444,14.705c-0.175,0-0.343-0.042-0.498-0.125C10.046,14.098,10,12.346,10,12s0.046-2.098,0.946-2.58
		c0.156-0.083,0.323-0.126,0.498-0.126c0.265,0,0.545,0.097,0.833,0.289l1.5,1c0.111,0.074,0.187,0.187,0.213,0.318
		c0.026,0.131,0,0.264-0.074,0.376C13.823,11.417,13.667,11.5,13.5,11.5c-0.099,0-0.195-0.029-0.277-0.084l-1.5-1
		c-0.161-0.108-0.248-0.119-0.277-0.119c-0.018,0-0.025,0.004-0.028,0.005C11.204,10.416,11.001,11.242,11,12
		c0.001,0.758,0.204,1.583,0.418,1.698c0.003,0.001,0.01,0.005,0.027,0.005c0.03,0,0.116-0.011,0.277-0.119l1.5-1
		c0.083-0.055,0.178-0.084,0.277-0.084c0.168,0,0.323,0.083,0.416,0.223c0.074,0.111,0.1,0.244,0.074,0.375
		c-0.026,0.131-0.102,0.244-0.213,0.318l-1.5,1C11.989,14.608,11.709,14.705,11.444,14.705z"/>
</g>
</svg>
