<?xml version="1.0" encoding="utf-8"?>
<!-- Generator: Adobe Illustrator 22.1.0, SVG Export Plug-In . SVG Version: 6.00 Build 0)  -->
<svg version="1.1" id="Light" xmlns="http://www.w3.org/2000/svg" xmlns:xlink="http://www.w3.org/1999/xlink" x="0px" y="0px"
	 viewBox="0 0 24 24" style="enable-background:new 0 0 24 24;" xml:space="preserve">
<g>
	<title>pufferfish</title>
	<path d="M14.001,8.141c-0.276,0-0.5-0.224-0.5-0.5s-0.224-0.5-0.5-0.5h-2c-0.276,0-0.5,0.224-0.5,0.5s-0.224,0.5-0.5,0.5
		s-0.5-0.224-0.5-0.5c0-0.827,0.673-1.5,1.5-1.5h2c0.827,0,1.5,0.673,1.5,1.5C14.501,7.917,14.276,8.141,14.001,8.141z"/>
	<path d="M18.501,14.141c-0.154,0-0.297-0.069-0.393-0.19c-1.391-1.763-3.564-2.815-5.812-2.815c-0.092,0-0.184,0.002-0.276,0.005
		c-0.112-0.004-0.205-0.005-0.298-0.005c-2.258,0-4.437,1.052-5.828,2.815c-0.096,0.121-0.239,0.19-0.393,0.19
		c-0.112,0-0.222-0.038-0.309-0.107c-0.216-0.171-0.253-0.486-0.083-0.702c1.579-2.001,4.048-3.196,6.603-3.196
		c0.103,0,0.206,0.002,0.309,0.006c0.084-0.004,0.187-0.006,0.289-0.006c2.544,0,5.005,1.195,6.585,3.196
		c0.17,0.216,0.133,0.531-0.083,0.702C18.723,14.103,18.613,14.141,18.501,14.141z"/>
	<path d="M12.002,23.86c-0.031,0-0.062-0.001-0.093-0.004c-0.265-0.024-0.506-0.15-0.677-0.355l-1.303-1.566l-1.528,0.802
		c-0.054,0.028-0.11,0.051-0.168,0.069c-0.096,0.03-0.195,0.045-0.296,0.045c-0.44,0-0.824-0.282-0.955-0.702l-0.603-1.943
		l-1.718,0.156c-0.031,0.003-0.06,0.004-0.09,0.004c-0.03,0-0.059-0.001-0.089-0.004c-0.267-0.024-0.508-0.15-0.679-0.355
		s-0.252-0.465-0.228-0.73l0.184-2.028l-1.647-0.513c-0.058-0.018-0.115-0.042-0.168-0.07c-0.488-0.256-0.676-0.862-0.42-1.35
		l0.946-1.802L1.142,12.41c-0.046-0.038-0.089-0.082-0.129-0.129c-0.171-0.206-0.252-0.466-0.227-0.732
		c0.025-0.266,0.151-0.506,0.357-0.677L2.874,9.43c0.088-0.313,0.194-0.627,0.316-0.936C2.724,8.227,1.93,7.77,1.511,7.51
		c-0.513-0.37-0.841-0.9-0.94-1.501c-0.098-0.601,0.044-1.204,0.4-1.697C0.998,4.276,1.025,4.24,1.054,4.206
		C1.545,3.651,2.169,3.35,2.816,3.35c0.066,0,0.133,0.003,0.199,0.009c0.86,0.08,1.672,0.654,2.417,1.707
		c0.239-0.239,0.49-0.466,0.751-0.679C5.829,4.075,5.501,3.668,5.501,3.141c0-2.659,3.474-3,6.5-3c4.495,0,6.5,0.925,6.5,3
		c0,0.527-0.328,0.933-0.684,1.246c0.261,0.213,0.512,0.44,0.751,0.679c0.745-1.053,1.558-1.627,2.417-1.707
		c0.067-0.006,0.133-0.009,0.199-0.009c0.647,0,1.269,0.298,1.75,0.84c0.042,0.051,0.069,0.086,0.095,0.122
		c0.735,1.016,0.506,2.442-0.51,3.178c-0.43,0.268-1.191,0.708-1.708,1.004c0.122,0.31,0.228,0.623,0.316,0.936l1.729,1.443
		c0.046,0.038,0.09,0.082,0.129,0.13c0.17,0.205,0.251,0.464,0.226,0.731c-0.025,0.266-0.151,0.507-0.356,0.677l-1.324,1.104
		l0.949,1.801c0.029,0.056,0.052,0.111,0.069,0.167c0.08,0.256,0.055,0.526-0.07,0.763c-0.124,0.237-0.333,0.411-0.588,0.49
		l-1.647,0.513l0.184,2.027c0.005,0.06,0.005,0.12,0,0.179c-0.024,0.267-0.15,0.507-0.355,0.679c-0.18,0.15-0.407,0.232-0.641,0.232
		l0,0c-0.03,0-0.059-0.001-0.089-0.004l-1.72-0.156l-0.605,1.944c-0.019,0.059-0.042,0.114-0.069,0.166
		c-0.124,0.237-0.332,0.411-0.587,0.491c-0.098,0.031-0.199,0.046-0.3,0.046c-0.159,0-0.319-0.039-0.462-0.114l-1.529-0.803
		L12.769,23.5c-0.038,0.046-0.081,0.088-0.126,0.126C12.462,23.777,12.235,23.86,12.002,23.86z M10.054,20.804
		c0.149,0,0.289,0.065,0.384,0.18l1.562,1.876l1.562-1.875c0.096-0.115,0.236-0.18,0.385-0.18c0.08,0,0.161,0.02,0.232,0.057
		l1.886,0.99l0.725-2.33c0.066-0.21,0.258-0.351,0.476-0.351c0.008,0,0.04,0.002,0.048,0.002l2.119,0.192l-0.221-2.43
		c-0.021-0.233,0.125-0.453,0.349-0.523l2.033-0.633l-1.137-2.158c-0.109-0.207-0.058-0.467,0.122-0.617l1.636-1.363l-1.85-1.544
		c-0.08-0.067-0.137-0.156-0.163-0.257c-0.537-2.032-1.778-3.822-3.492-5.039c-0.127-0.09-0.206-0.238-0.21-0.394
		c-0.004-0.156,0.066-0.308,0.188-0.405c0.039-0.031,0.087-0.067,0.141-0.107c0.218-0.163,0.671-0.502,0.671-0.754
		c0-1.383-1.696-2-5.5-2s-5.5,0.617-5.5,2c0,0.253,0.453,0.592,0.671,0.754c0.053,0.04,0.101,0.076,0.141,0.107
		C7.434,4.101,7.505,4.252,7.5,4.408C7.496,4.565,7.417,4.712,7.29,4.802C5.575,6.019,4.335,7.808,3.798,9.841
		c-0.027,0.101-0.083,0.189-0.163,0.256l-1.853,1.543l1.639,1.363c0.18,0.15,0.232,0.409,0.123,0.617l-1.134,2.16l2.033,0.633
		c0.224,0.07,0.37,0.29,0.349,0.523l-0.221,2.43l2.121-0.193c0.008-0.001,0.039-0.002,0.046-0.002c0.22,0,0.411,0.141,0.476,0.352
		l0.723,2.328l1.885-0.99C9.893,20.824,9.974,20.804,10.054,20.804z M2.816,4.35c-0.482,0-0.834,0.316-1.002,0.504
		C1.811,4.859,1.796,4.878,1.782,4.898c-0.199,0.276-0.279,0.613-0.225,0.95S1.792,6.481,2.068,6.68
		c0.349,0.215,1.041,0.615,1.536,0.899c0.318-0.619,0.7-1.205,1.139-1.745C4.139,4.92,3.512,4.41,2.923,4.355
		C2.887,4.352,2.851,4.35,2.816,4.35z M19.258,5.834c0.439,0.54,0.821,1.126,1.139,1.745c0.455-0.261,1.184-0.682,1.566-0.918
		c0.547-0.397,0.668-1.192,0.256-1.762c-0.015-0.02-0.03-0.04-0.046-0.06c-0.158-0.177-0.506-0.488-0.989-0.488
		c-0.035,0-0.07,0.002-0.106,0.005C20.489,4.41,19.862,4.92,19.258,5.834z"/>
	<path d="M9.694,3.89c-0.198,0-0.385-0.076-0.526-0.215C9.166,3.674,9.163,3.671,9.163,3.67c-0.292-0.292-0.292-0.767,0-1.059
		c0.141-0.142,0.33-0.22,0.53-0.22c0.201,0,0.389,0.078,0.53,0.219c0.143,0.142,0.221,0.33,0.221,0.53
		c0,0.199-0.076,0.386-0.216,0.528C10.225,3.67,10.2,3.693,10.197,3.696c-0.006,0.005-0.013,0.01-0.02,0.015
		C10.049,3.824,9.874,3.89,9.694,3.89z"/>
	<path d="M14.194,3.891c-0.414,0-0.75-0.336-0.75-0.75c0.001-0.203,0.079-0.392,0.221-0.533c0.141-0.14,0.328-0.217,0.527-0.217
		c0.005,0,0.01,0,0.014,0c0.404,0.009,0.73,0.336,0.737,0.737c0,0.004,0,0.022,0,0.027C14.935,3.563,14.602,3.891,14.194,3.891z"/>
</g>
</svg>
