<?xml version="1.0" encoding="utf-8"?>
<!-- Generator: Adobe Illustrator 22.1.0, SVG Export Plug-In . SVG Version: 6.00 Build 0)  -->
<svg version="1.1" id="Light" xmlns="http://www.w3.org/2000/svg" xmlns:xlink="http://www.w3.org/1999/xlink" x="0px" y="0px"
	 viewBox="0 0 24 24" style="enable-background:new 0 0 24 24;" xml:space="preserve">
<g>
	<title>ray-1</title>
	<path d="M23.488,23.988c-0.136,0-0.269-0.057-0.362-0.156c-1.249-1.311-1.053-2.034-0.611-2.988c0.141-0.303,0.3-0.647,0.39-1.083
		c0.063-0.302,0.052-0.467,0.037-0.53c-0.007-0.001-0.016-0.001-0.027-0.001c-0.69,0-2.88,1.591-4.188,2.542
		c-0.421,0.306-0.831,0.604-1.216,0.875c-0.773,0.543-1.368,0.807-1.819,0.807c-0.269,0-0.491-0.09-0.661-0.268
		c-0.74-0.775,0.24-2.685,1.031-3.708c1.068-1.376,0.995-1.681,0.507-2.198c-1.173,1.014-2.538,1.488-4.272,1.488
		c-0.955,0-1.92-0.139-2.854-0.273c-0.646-0.093-1.33-0.179-1.951-0.179c-1.318,0-2.238,0.406-3.282,1.449
		c-0.852,0.872-1.662,1.808-2.404,2.781c-0.19,0.245-0.486,0.391-0.793,0.391c-0.005,0-0.035-0.001-0.04-0.001
		c-0.26-0.009-0.508-0.121-0.69-0.316s-0.278-0.45-0.269-0.716c0.191-5.833,1.414-9.064,2.145-10.995
		c0.235-0.62,0.42-1.109,0.494-1.483c0.188-0.84-0.025-1.729-0.569-2.384l-1.513-1.51c-0.089-0.08-0.184-0.175-0.274-0.275
		C0.114,5.054,0.125,4.747,0.324,4.559c0.093-0.089,0.216-0.138,0.344-0.138c0.134,0,0.259,0.052,0.354,0.147l0.244,0.244
		c0.512,0.459,1.186,0.716,1.889,0.716c0.635,0,1.258-0.216,1.758-0.61c0.857-1.09,0.81-2.622-0.116-3.655L4.559,1.029
		c-0.193-0.193-0.197-0.5-0.009-0.698c0.094-0.099,0.226-0.156,0.363-0.156c0.124,0,0.242,0.046,0.334,0.128
		c0.1,0.09,0.196,0.186,0.286,0.285l1.533,1.533c0.466,0.385,1.089,0.606,1.737,0.606c0.203,0,0.405-0.022,0.6-0.066
		c0.385-0.078,0.87-0.262,1.485-0.496c1.933-0.734,5.168-1.961,11.015-2.152l0.033-0.001c0.302,0,0.604,0.148,0.789,0.387
		c0.338,0.436,0.258,1.066-0.178,1.403c-0.975,0.744-1.913,1.555-2.788,2.41c-1.596,1.597-1.612,2.819-1.267,5.229
		c0.345,2.419,0.703,4.919-1.221,7.135c0.876,0.96,0.969,1.722-0.421,3.514c-0.772,0.997-1.108,2.032-1.094,2.357
		c0.145-0.025,0.492-0.136,1.178-0.618c0.381-0.268,0.787-0.563,1.202-0.865c2.263-1.644,3.82-2.722,4.807-2.722
		c0.215,0,0.404,0.051,0.562,0.153c0.62,0.4,0.439,1.279,0.379,1.568c-0.114,0.551-0.299,0.95-0.462,1.302
		c-0.333,0.719-0.445,0.961,0.428,1.878c0.092,0.096,0.141,0.223,0.138,0.357c-0.003,0.134-0.058,0.258-0.155,0.35
		C23.739,23.939,23.617,23.988,23.488,23.988z M2.944,6.523C3.619,7.42,3.87,8.562,3.631,9.631
		c-0.087,0.443-0.285,0.966-0.536,1.629c-0.71,1.874-1.897,5.009-2.082,10.676c0.765-1.002,1.601-1.969,2.486-2.874
		c1.227-1.227,2.418-1.75,3.986-1.75c0.629,0,1.295,0.077,2.1,0.193c0.95,0.137,1.847,0.266,2.723,0.266
		c1.645,0,2.854-0.475,3.923-1.541c1.945-1.945,1.618-4.229,1.273-6.646c-0.342-2.392-0.418-4.108,1.554-6.081
		c0.908-0.888,1.877-1.725,2.881-2.492C16.255,1.198,13.118,2.389,11.244,3.1c-0.66,0.25-1.179,0.447-1.632,0.539
		C9.353,3.697,9.08,3.727,8.806,3.727c-0.83,0-1.637-0.273-2.291-0.771c0.048,0.944-0.253,1.89-0.86,2.634
		C5.634,5.617,5.609,5.642,5.583,5.663C4.899,6.221,4.036,6.529,3.154,6.529C3.084,6.529,3.014,6.527,2.944,6.523z"/>
	<path d="M9.988,6.488c-0.174,0-0.332-0.088-0.424-0.235C9.418,6.019,9.489,5.71,9.723,5.564c1.128-0.705,2.353-1.23,3.64-1.56
		c0.041-0.01,0.083-0.016,0.125-0.016c0.228,0,0.427,0.154,0.484,0.376c0.068,0.267-0.093,0.54-0.36,0.609
		c-1.189,0.305-2.319,0.789-3.36,1.44C10.174,6.462,10.082,6.488,9.988,6.488z"/>
	<path d="M11.488,7.988c-0.174,0-0.332-0.088-0.424-0.235c-0.146-0.234-0.075-0.543,0.159-0.689c1.128-0.705,2.353-1.23,3.64-1.56
		c0.042-0.01,0.083-0.016,0.124-0.016c0.229,0,0.428,0.154,0.485,0.375c0.068,0.267-0.093,0.54-0.36,0.609
		c-1.189,0.305-2.319,0.789-3.36,1.44C11.674,7.962,11.582,7.988,11.488,7.988z"/>
	<path d="M4.488,13.988c-0.042,0-0.084-0.005-0.125-0.016c-0.267-0.069-0.428-0.342-0.36-0.609c0.331-1.288,0.856-2.513,1.56-3.641
		c0.092-0.147,0.251-0.235,0.424-0.235c0.094,0,0.185,0.026,0.265,0.076c0.233,0.146,0.305,0.455,0.159,0.689
		c-0.651,1.041-1.135,2.171-1.44,3.359C4.915,13.834,4.716,13.988,4.488,13.988z"/>
	<path d="M5.988,15.488c-0.042,0-0.084-0.005-0.125-0.016c-0.267-0.069-0.428-0.342-0.36-0.609c0.331-1.288,0.856-2.513,1.56-3.641
		c0.092-0.147,0.251-0.235,0.424-0.235c0.094,0,0.185,0.026,0.265,0.076c0.233,0.146,0.305,0.455,0.159,0.689
		c-0.651,1.041-1.135,2.171-1.44,3.359C6.415,15.334,6.216,15.488,5.988,15.488z"/>
</g>
</svg>
