<?xml version="1.0" encoding="utf-8"?>
<!-- Generator: Adobe Illustrator 22.1.0, SVG Export Plug-In . SVG Version: 6.00 Build 0)  -->
<svg version="1.1" id="Light" xmlns="http://www.w3.org/2000/svg" xmlns:xlink="http://www.w3.org/1999/xlink" x="0px" y="0px"
	 viewBox="0 0 24 24" style="enable-background:new 0 0 24 24;" xml:space="preserve">
<g>
	<title>ray</title>
	<path d="M1.383,23.118c-0.134,0-0.26-0.052-0.354-0.147c-0.179-0.179-0.196-0.465-0.038-0.664l7.854-9.904l-1.041-1.042
		l-1.342-0.671c-0.12-0.06-0.208-0.162-0.251-0.289s-0.033-0.262,0.027-0.382c0.085-0.171,0.257-0.277,0.447-0.277
		c0.077,0,0.155,0.018,0.224,0.053l0.966,0.483l0.331-0.661L6.816,8.923c-0.12-0.06-0.209-0.162-0.251-0.289
		C6.523,8.507,6.532,8.371,6.592,8.252c0.085-0.17,0.257-0.276,0.448-0.276c0.077,0,0.154,0.018,0.223,0.053l1.392,0.695L9.127,7.78
		l-1.25-0.625c-0.12-0.06-0.208-0.162-0.251-0.289C7.584,6.739,7.593,6.603,7.653,6.484c0.085-0.17,0.257-0.276,0.448-0.276
		c0.077,0,0.154,0.018,0.223,0.053l1.25,0.625l0.357-0.714L7.823,4.767C7.698,4.683,7.617,4.549,7.603,4.4
		C7.588,4.25,7.64,4.103,7.747,3.997c2.021-2.021,4.676-3.181,7.283-3.181c2.22,0,4.279,0.837,5.799,2.356
		c3.436,3.437,3.074,9.183-0.825,13.082c-0.094,0.094-0.219,0.146-0.354,0.146c0,0-0.04-0.001-0.048-0.002
		c-0.151-0.015-0.285-0.095-0.368-0.22l-1.405-2.108l-0.714,0.357l0.625,1.25c0.06,0.119,0.069,0.255,0.027,0.382
		s-0.131,0.229-0.251,0.289c-0.07,0.035-0.147,0.053-0.223,0.053c-0.19,0-0.362-0.106-0.447-0.276l-0.626-1.25l-0.943,0.472
		l0.695,1.392c0.06,0.119,0.069,0.255,0.027,0.382s-0.131,0.229-0.251,0.289c-0.07,0.035-0.147,0.053-0.223,0.053
		c-0.191,0-0.363-0.106-0.448-0.277l-0.695-1.392l-0.662,0.331l0.483,0.967c0.06,0.119,0.069,0.255,0.027,0.382
		s-0.131,0.229-0.251,0.289c-0.07,0.035-0.147,0.053-0.223,0.053c-0.19,0-0.362-0.106-0.447-0.276l-0.671-1.342l-1.041-1.042
		l-9.904,7.854C1.606,23.079,1.496,23.118,1.383,23.118z M4.466,19.534l6.419-5.091l-1.329-1.329L4.466,19.534z M13.149,15.292
		l4.628-2.314c0.069-0.034,0.146-0.053,0.223-0.053c0.168,0,0.323,0.083,0.416,0.223l1.302,1.953
		c3.142-3.515,3.333-8.292,0.404-11.222c-1.33-1.329-3.138-2.062-5.092-2.062c-2.182,0-4.348,0.873-6.13,2.465l1.953,1.302
		c0.209,0.14,0.282,0.415,0.17,0.64l-2.314,4.628L13.149,15.292z"/>
	<path d="M15.879,4.983c-0.196,0-0.382-0.075-0.522-0.212c-0.007-0.007-0.015-0.015-0.021-0.023
		c-0.137-0.149-0.206-0.326-0.206-0.513c0-0.196,0.075-0.382,0.211-0.523c0,0,0.005-0.006,0.008-0.008
		c0.142-0.142,0.33-0.22,0.531-0.22c0.196,0,0.381,0.075,0.521,0.211c0.15,0.149,0.228,0.337,0.228,0.537
		c0.001,0.196-0.074,0.382-0.211,0.523c-0.002,0.003-0.009,0.009-0.009,0.009c-0.141,0.141-0.329,0.219-0.528,0.219
		C15.88,4.983,15.879,4.983,15.879,4.983z"/>
	<path d="M19.414,8.519c-0.196,0-0.382-0.075-0.522-0.212c-0.005-0.005-0.01-0.01-0.015-0.016c-0.141-0.149-0.213-0.33-0.213-0.522
		c0-0.2,0.077-0.387,0.217-0.529c0.002-0.002,0.005-0.005,0.005-0.005c0.141-0.139,0.329-0.216,0.528-0.216
		c0.199,0,0.385,0.076,0.527,0.214c0.002,0.002,0.003,0.003,0.005,0.005c0.289,0.292,0.289,0.766,0.001,1.058
		c-0.003,0.003-0.007,0.006-0.01,0.01c-0.14,0.137-0.325,0.212-0.522,0.213C19.415,8.519,19.414,8.519,19.414,8.519z"/>
	<path d="M12.167,12.334c-0.134,0-0.259-0.052-0.354-0.147c-0.195-0.195-0.195-0.512,0-0.707l3.75-3.75
		c0.094-0.094,0.22-0.146,0.354-0.146s0.259,0.052,0.354,0.146s0.146,0.22,0.146,0.354s-0.052,0.259-0.146,0.354l-3.75,3.75
		C12.426,12.281,12.301,12.334,12.167,12.334z"/>
</g>
</svg>
