<?xml version="1.0" encoding="utf-8"?>
<!-- Generator: Adobe Illustrator 22.1.0, SVG Export Plug-In . SVG Version: 6.00 Build 0)  -->
<svg version="1.1" id="Light" xmlns="http://www.w3.org/2000/svg" xmlns:xlink="http://www.w3.org/1999/xlink" x="0px" y="0px"
	 viewBox="0 0 24 24" style="enable-background:new 0 0 24 24;" xml:space="preserve">
<g>
	<title>clean-car-gas</title>
	<path d="M2.5,23C1.673,23,1,22.327,1,21.5v-19C1,1.673,1.673,1,2.5,1h13C16.327,1,17,1.673,17,2.5V16h0.5
		c0.827,0,1.5-0.673,1.5-1.5V7c0-0.316,0.309-1.326,3.167-3.873C22.259,3.045,22.377,3,22.5,3c0.142,0,0.278,0.061,0.373,0.167
		c0.089,0.1,0.134,0.228,0.126,0.362c-0.008,0.133-0.067,0.256-0.167,0.344C21.11,5.409,20.022,6.73,20,7.002V8h0.5
		C21.327,8,22,8.673,22,9.5v0.382c0,0.572-0.318,1.086-0.829,1.341L20,11.809V14.5c0,1.378-1.122,2.5-2.5,2.5H17v4.5
		c0,0.827-0.673,1.5-1.5,1.5H2.5z M2,21.5C2,21.776,2.224,22,2.5,22h13c0.276,0,0.5-0.224,0.5-0.5V10H2V21.5z M20,10.691
		l0.723-0.362C20.894,10.244,21,10.072,21,9.882V9.5C21,9.224,20.776,9,20.5,9H20V10.691z M16,9V2.5C16,2.224,15.776,2,15.5,2h-13
		C2.224,2,2,2.224,2,2.5V9H16z"/>
	<path d="M3.5,8C3.224,8,3,7.776,3,7.5v-4C3,3.224,3.224,3,3.5,3h11C14.776,3,15,3.224,15,3.5v4C15,7.776,14.776,8,14.5,8H3.5z
		 M14,7V4H4v3H14z"/>
	<path d="M5,21c-0.06,0-0.119-0.01-0.175-0.031c-0.259-0.097-0.39-0.386-0.293-0.644c0.065-0.174,0.65-1.681,1.804-3.201
		c-0.807-0.682-0.982-1.375-0.981-1.852c0.002-0.811,0.501-1.608,1.368-2.187c0.755-0.503,1.519-0.7,2.257-0.891
		c0.819-0.212,1.666-0.431,2.543-1.092C11.609,11.036,11.716,11,11.824,11c0.05,0,0.099,0.007,0.147,0.022
		c0.152,0.047,0.274,0.165,0.326,0.316c0.759,2.218,0.413,4.691-0.926,6.616c-0.015,0.021-0.03,0.04-0.048,0.058
		c-0.72,0.759-1.591,1.194-2.389,1.194c-0.136,0-0.27-0.012-0.399-0.037c-0.637-0.122-1.171-0.517-1.592-1.175
		c-0.976,1.367-1.47,2.668-1.476,2.682C5.395,20.87,5.207,21,5,21z M7.615,17.144c0.303,0.609,0.676,0.959,1.11,1.042
		c0.069,0.013,0.142,0.02,0.217,0.02c0.512,0,1.106-0.312,1.632-0.855c1.004-1.462,1.354-3.327,0.959-5.054
		c-0.809,0.478-1.566,0.674-2.3,0.863c-0.691,0.179-1.341,0.347-1.955,0.756c-0.577,0.385-0.922,0.892-0.923,1.358
		c-0.001,0.436,0.306,0.81,0.62,1.078c0.718-0.789,1.491-1.394,2.302-1.799C9.346,14.518,9.423,14.5,9.5,14.5
		c0.19,0,0.362,0.106,0.447,0.276c0.124,0.247,0.023,0.548-0.223,0.671C8.989,15.815,8.28,16.385,7.615,17.144z"/>
</g>
</svg>
