<?xml version="1.0" encoding="utf-8"?>
<!-- Generator: Adobe Illustrator 22.1.0, SVG Export Plug-In . SVG Version: 6.00 Build 0)  -->
<svg version="1.1" id="Light" xmlns="http://www.w3.org/2000/svg" xmlns:xlink="http://www.w3.org/1999/xlink" x="0px" y="0px"
	 viewBox="0 0 24 24" style="enable-background:new 0 0 24 24;" xml:space="preserve">
<g>
	<title>clean-car-cable-charge</title>
	<path d="M18,23.75c-0.552,0-1-0.448-1-1v-1H7v1c0,0.552-0.449,1-1,1H4c-0.551,0-1-0.448-1-1v-1c-0.551,0-1-0.448-1-1v-3.297
		c0-0.267,0.104-0.518,0.292-0.706l1.781-1.778l1.836-4.59C6.063,9.997,6.427,9.75,6.838,9.75H9.5c0.276,0,0.5,0.224,0.5,0.5
		s-0.224,0.5-0.5,0.5H6.839l-1.6,4h13.523l-1.6-4l-3.162,0c-0.276,0-0.5-0.224-0.5-0.5s0.224-0.5,0.5-0.5c0,0,3.161,0,3.161,0
		c0.411,0,0.778,0.252,0.928,0.628l1.836,4.591l1.781,1.781C21.896,16.94,22,17.191,22,17.457v3.293c0,0.552-0.448,1-1,1v1
		c0,0.552-0.448,1-1,1H18z M18,22.75h2v-1h-2V22.75z M4,22.75h2v-1H4V22.75z M3,20.75h18v-1h-4c-0.276,0-0.5-0.224-0.5-0.5
		s0.224-0.5,0.5-0.5h4v-1.293l-1.707-1.707H4.707l-1.708,1.704L3,18.75h4c0.276,0,0.5,0.224,0.5,0.5s-0.224,0.5-0.5,0.5H3V20.75z"/>
	<path d="M13,13.25c-1.103,0-2-0.897-2-2V7.714C9.019,7.466,7.5,5.768,7.5,3.75c0-0.551,0.449-1,1-1H9v-2c0-0.276,0.224-0.5,0.5-0.5
		S10,0.474,10,0.75v2h3v-2c0-0.276,0.224-0.5,0.5-0.5S14,0.474,14,0.75v2h0.5c0.552,0,1,0.449,1,1c0,2.018-1.519,3.716-3.5,3.964
		v3.536c0,0.551,0.448,1,1,1c0.276,0,0.5,0.224,0.5,0.5S13.276,13.25,13,13.25z M8.5,3.75c0,1.654,1.346,3,3,3c1.654,0,3-1.346,3-3
		H8.5z"/>
</g>
</svg>
