<?xml version="1.0" encoding="utf-8"?>
<!-- Generator: Adobe Illustrator 22.1.0, SVG Export Plug-In . SVG Version: 6.00 Build 0)  -->
<svg version="1.1" id="Light" xmlns="http://www.w3.org/2000/svg" xmlns:xlink="http://www.w3.org/1999/xlink" x="0px" y="0px"
	 viewBox="0 0 24 24" style="enable-background:new 0 0 24 24;" xml:space="preserve">
<g>
	<title>clean-car-leaf</title>
	<path d="M18.5,23.951c-0.552,0-1-0.448-1-1v-1h-11v1c0,0.552-0.449,1-1,1h-2c-0.551,0-1-0.448-1-1v-1c-0.551,0-1-0.448-1-1v-3.5
		c0-0.066,0.013-0.131,0.039-0.193c0.025-0.06,0.061-0.115,0.108-0.161l2.942-2.942l1.826-3.651
		c0.171-0.341,0.513-0.552,0.894-0.552h9.382c0.381,0,0.724,0.212,0.894,0.552l1.826,3.652l2.942,2.942
		c0.046,0.046,0.082,0.1,0.108,0.16c0.026,0.064,0.039,0.128,0.039,0.194v4c0,0.276-0.224,0.5-0.5,0.5h-0.5v1c0,0.552-0.448,1-1,1
		H18.5z M18.5,22.951h2v-1h-2V22.951z M3.5,22.951h2v-1h-2V22.951z M2.5,20.951h19v-1h-3c-0.552,0-1-0.448-1-1v-1
		c0-0.552,0.448-1,1-1h2.293l-2-2H5.207l-2,2H5.5c0.551,0,1,0.448,1,1v1c0,0.552-0.449,1-1,1h-3V20.951z M18.5,18.951h3v-1h-3
		L18.5,18.951z M5.5,18.951v-1h-3v1H5.5z M18.191,13.951l-1.5-3l-9.382,0l-1.499,3H18.191z"/>
	<path d="M12.32,9.055c-1.085,0-1.866-0.307-2.321-0.913C9.538,7.529,9.456,6.643,9.753,5.504C7.325,6.409,5.281,7.57,5.259,7.582
		C5.184,7.625,5.098,7.648,5.011,7.648c-0.179,0-0.345-0.096-0.434-0.251C4.44,7.157,4.523,6.851,4.762,6.714
		C4.861,6.657,7.139,5.359,9.785,4.42c-0.606-1.173-0.72-2.154-0.337-2.922c0.407-0.815,1.329-1.31,2.667-1.432
		c0.127-0.011,0.256-0.017,0.384-0.017c1.258,0,2.302,0.549,3.408,1.13c0.914,0.481,1.858,0.977,2.975,1.17
		c0.084,0.015,0.166,0.04,0.244,0.075c0.243,0.111,0.428,0.31,0.522,0.56c0.094,0.25,0.084,0.522-0.027,0.765
		c-1.124,2.459-4.438,5.073-6.691,5.277C12.718,9.045,12.513,9.055,12.32,9.055z M10.926,5.099
		c-0.422,1.149-0.466,1.992-0.128,2.443c0.256,0.341,0.765,0.514,1.512,0.514c0.164,0,0.342-0.009,0.528-0.026
		c1.925-0.174,4.888-2.544,5.872-4.696c-1.271-0.219-2.287-0.753-3.27-1.27c-0.993-0.522-1.931-1.015-2.949-1.015
		c-0.094,0-0.19,0.004-0.286,0.013c-0.68,0.062-1.555,0.265-1.863,0.883C10.1,2.431,10.24,3.174,10.747,4.101
		c1.429-0.438,2.689-0.661,3.747-0.661c0.503,0,0.969,0.051,1.383,0.151c0.13,0.031,0.24,0.111,0.309,0.225
		c0.07,0.114,0.091,0.248,0.059,0.378c-0.054,0.225-0.254,0.383-0.485,0.383c-0.04,0-0.08-0.005-0.118-0.014
		c-0.338-0.082-0.724-0.123-1.145-0.123C13.514,4.44,12.314,4.661,10.926,5.099z"/>
</g>
</svg>
