<?xml version="1.0" encoding="utf-8"?>
<!-- Generator: Adobe Illustrator 22.1.0, SVG Export Plug-In . SVG Version: 6.00 Build 0)  -->
<svg version="1.1" id="Layer_1" xmlns="http://www.w3.org/2000/svg" xmlns:xlink="http://www.w3.org/1999/xlink" x="0px" y="0px"
	 viewBox="0 0 24 24" style="enable-background:new 0 0 24 24;" xml:space="preserve">
<g>
	<title>job-seach-team-man</title>
	<path d="M7.512,15.047c-2.619,0-4.75-2.131-4.75-4.75s2.131-4.75,4.75-4.75s4.75,2.131,4.75,4.75S10.131,15.047,7.512,15.047z
		 M4.008,8.973c-0.163,0.426-0.246,0.87-0.246,1.324c0,2.068,1.682,3.75,3.75,3.75c2.024,0,3.678-1.611,3.748-3.619
		c-0.745,0.24-1.519,0.362-2.307,0.362C7.121,10.79,5.378,10.147,4.008,8.973z M4.5,8.068C5.699,9.162,7.308,9.786,8.95,9.786
		c0.757,0,1.497-0.128,2.202-0.381c-0.407-1.668-1.906-2.858-3.64-2.858C6.32,6.547,5.209,7.112,4.5,8.068z"/>
	<path d="M0.512,23.547c-0.276,0-0.5-0.224-0.5-0.5c0-4.135,3.365-7.5,7.5-7.5s7.5,3.365,7.5,7.5c0,0.276-0.224,0.5-0.5,0.5H0.512z
		 M13.993,22.547c-0.255-3.385-3.054-6-6.481-6c-3.427,0-6.226,2.615-6.481,6H13.993z"/>
	<path d="M7.512,21.047c-0.276,0-0.5-0.224-0.5-0.5v-2.5c0-0.276,0.224-0.5,0.5-0.5s0.5,0.224,0.5,0.5v2.5
		C8.012,20.823,7.788,21.047,7.512,21.047z"/>
	<path d="M23.512,12.547c-0.134,0-0.259-0.052-0.354-0.146L20.22,9.463c-0.9,0.738-2.02,1.142-3.179,1.142
		c-2.773,0-5.029-2.256-5.029-5.029c0-2.773,2.256-5.029,5.029-5.029s5.029,2.256,5.029,5.029c0,1.16-0.404,2.28-1.143,3.18
		l2.938,2.937c0.094,0.094,0.146,0.22,0.146,0.354c0,0.134-0.052,0.259-0.146,0.354S23.645,12.547,23.512,12.547z M17.041,1.547
		c-2.222,0-4.029,1.807-4.029,4.029c0,2.222,1.807,4.029,4.029,4.029s4.029-1.807,4.029-4.029
		C21.07,3.354,19.263,1.547,17.041,1.547z"/>
	<path d="M16.512,23.547c-0.276,0-0.5-0.224-0.5-0.5s0.224-0.5,0.5-0.5h6.475c-0.114-1.145-0.619-2.215-1.44-3.036
		c-0.944-0.944-2.2-1.464-3.535-1.464c-0.796,0-1.591,0.193-2.298,0.559c-0.071,0.037-0.151,0.056-0.23,0.056
		c-0.188,0-0.358-0.104-0.444-0.27c-0.062-0.119-0.073-0.254-0.033-0.381c0.041-0.127,0.128-0.231,0.247-0.293
		c0.848-0.439,1.801-0.671,2.757-0.671c1.603,0,3.11,0.624,4.243,1.757c1.133,1.134,1.757,2.64,1.757,4.243
		c0,0.276-0.224,0.5-0.5,0.5H16.512z"/>
	<path d="M17.964,16.562c-0.092,0-0.183-0.003-0.276-0.01c-0.999-0.072-1.91-0.529-2.565-1.286s-0.977-1.725-0.905-2.724
		c0.015-0.207,0.047-0.414,0.096-0.614c0.055-0.225,0.254-0.382,0.486-0.382c0.04,0,0.08,0.005,0.119,0.015
		c0.129,0.031,0.239,0.111,0.308,0.226c0.07,0.114,0.091,0.249,0.059,0.378c-0.036,0.147-0.06,0.299-0.071,0.45
		c-0.109,1.512,1.033,2.832,2.545,2.941c0.066,0.005,0.132,0.007,0.198,0.007c0.661,0,1.299-0.238,1.799-0.67
		c0.555-0.48,0.89-1.149,0.943-1.882c0.019-0.26,0.237-0.464,0.497-0.464c0.007,0,0.033,0.001,0.04,0.001
		c0.131,0.009,0.252,0.07,0.34,0.171s0.13,0.23,0.121,0.364c-0.072,0.999-0.529,1.91-1.286,2.565
		C19.73,16.237,18.861,16.562,17.964,16.562z"/>
</g>
</svg>
