<?xml version="1.0" encoding="utf-8"?>
<!-- Generator: Adobe Illustrator 22.1.0, SVG Export Plug-In . SVG Version: 6.00 Build 0)  -->
<svg version="1.1" id="Layer_1" xmlns="http://www.w3.org/2000/svg" xmlns:xlink="http://www.w3.org/1999/xlink" x="0px" y="0px"
	 viewBox="0 0 24 24" style="enable-background:new 0 0 24 24;" xml:space="preserve">
<g>
	<title>job-choose-candidate</title>
	<path d="M23.531,24c-0.276,0-0.5-0.224-0.5-0.5V22c0-1.93-1.57-3.5-3.5-3.5h-3c-0.276,0-0.5-0.224-0.5-0.5v-4.5
		c0-0.552-0.448-1-1-1s-1,0.449-1,1v7.824c0,0.207-0.13,0.396-0.324,0.468c-0.056,0.021-0.115,0.032-0.176,0.032
		c-0.144,0-0.281-0.062-0.376-0.171l-2-2.286c-0.177-0.213-0.419-0.341-0.685-0.366c-0.032-0.003-0.064-0.005-0.096-0.005
		c-0.234,0-0.453,0.08-0.635,0.231c-0.206,0.171-0.332,0.412-0.357,0.677s0.056,0.525,0.227,0.731l2.293,2.528
		c0.09,0.099,0.136,0.227,0.129,0.36c-0.006,0.134-0.065,0.256-0.163,0.346C11.775,23.954,11.655,24,11.531,24
		c-0.141,0-0.276-0.06-0.371-0.164l-2.307-2.544c-0.353-0.424-0.517-0.946-0.468-1.478c0.049-0.532,0.302-1.013,0.713-1.354
		c0.358-0.298,0.812-0.462,1.278-0.462c0.061,0,0.122,0.003,0.184,0.008c0.532,0.049,1.014,0.302,1.355,0.713l1.116,1.275V13.5
		c0-1.103,0.897-2,2-2s2,0.897,2,2v4h2.5c2.481,0,4.5,2.019,4.5,4.5v1.5C24.031,23.776,23.807,24,23.531,24z"/>
	<path d="M15.531,6.499c-1.516,0-2.75-1.234-2.75-2.75s1.234-2.75,2.75-2.75s2.75,1.234,2.75,2.75S17.048,6.499,15.531,6.499z
		 M15.531,1.999c-0.965,0-1.75,0.785-1.75,1.75s0.785,1.75,1.75,1.75s1.75-0.785,1.75-1.75S16.496,1.999,15.531,1.999z"/>
	<path d="M11.031,11c-0.155,0-0.299-0.07-0.395-0.193c-0.096-0.123-0.128-0.28-0.09-0.431c0.465-1.825,1.888-3.248,3.714-3.713
		c0.417-0.106,0.844-0.16,1.271-0.16c2.354,0,4.403,1.593,4.985,3.874c0.038,0.151,0.006,0.308-0.089,0.43
		C20.332,10.928,20.185,11,20.031,11H11.031z M19.334,10c-0.65-1.507-2.138-2.497-3.804-2.497c-0.343,0-0.687,0.043-1.023,0.129
		c-1.255,0.32-2.272,1.193-2.779,2.368H19.334z"/>
	<path d="M5.031,10.499c-1.516,0-2.75-1.234-2.75-2.75s1.234-2.75,2.75-2.75s2.75,1.234,2.75,2.75S6.548,10.499,5.031,10.499z
		 M5.031,5.999c-0.965,0-1.75,0.785-1.75,1.75s0.785,1.75,1.75,1.75s1.75-0.785,1.75-1.75S5.996,5.999,5.031,5.999z"/>
	<path d="M0.531,15c-0.156,0-0.3-0.071-0.395-0.193c-0.094-0.121-0.128-0.282-0.089-0.43c0.465-1.825,1.888-3.248,3.713-3.713
		c0.417-0.106,0.844-0.16,1.271-0.16c2.353,0,4.403,1.593,4.985,3.874c0.038,0.149,0.004,0.31-0.09,0.43
		C9.831,14.93,9.687,15,9.531,15H0.531z M8.834,14c-0.651-1.507-2.138-2.497-3.804-2.497c-0.343,0-0.688,0.043-1.023,0.129
		C2.752,11.952,1.735,12.826,1.228,14H8.834z"/>
	<path d="M20.031,1.999c-0.134,0-0.259-0.052-0.354-0.146s-0.146-0.22-0.146-0.354s0.052-0.259,0.146-0.354l1-1
		c0.094-0.094,0.22-0.146,0.354-0.146s0.259,0.052,0.354,0.146s0.146,0.22,0.146,0.354s-0.052,0.259-0.146,0.354l-1,1
		C20.29,1.947,20.165,1.999,20.031,1.999z"/>
	<path d="M11.031,1.999c-0.134,0-0.259-0.052-0.354-0.146l-1-1c-0.094-0.094-0.146-0.22-0.146-0.354S9.583,0.24,9.678,0.146
		s0.22-0.146,0.354-0.146s0.259,0.052,0.354,0.146l1,1c0.094,0.094,0.146,0.22,0.146,0.354s-0.052,0.259-0.146,0.354
		S11.165,1.999,11.031,1.999z"/>
	<path d="M20.031,4.999c-0.276,0-0.5-0.224-0.5-0.5s0.224-0.5,0.5-0.5h1.414c0.276,0,0.5,0.224,0.5,0.5s-0.224,0.5-0.5,0.5H20.031z"
		/>
	<path d="M9.617,4.999c-0.276,0-0.5-0.224-0.5-0.5s0.224-0.5,0.5-0.5h1.414c0.276,0,0.5,0.224,0.5,0.5s-0.224,0.5-0.5,0.5H9.617z"/>
</g>
</svg>
