<?xml version="1.0" encoding="utf-8"?>
<!-- Generator: Adobe Illustrator 22.1.0, SVG Export Plug-In . SVG Version: 6.00 Build 0)  -->
<svg version="1.1" id="Layer_1" xmlns="http://www.w3.org/2000/svg" xmlns:xlink="http://www.w3.org/1999/xlink" x="0px" y="0px"
	 viewBox="0 0 24 24" style="enable-background:new 0 0 24 24;" xml:space="preserve">
<g>
	<title>job-choose-cadidate-1</title>
	<path d="M17.5,24c-0.276,0-0.5-0.224-0.5-0.5v-2.667c0-1.562-1.271-2.833-2.833-2.833H12.5c-0.276,0-0.5-0.224-0.5-0.5V13
		c0-0.552-0.449-1-1-1s-1,0.449-1,1v7c0,0.194-0.113,0.371-0.289,0.453C9.644,20.484,9.573,20.5,9.5,20.5
		c-0.117,0-0.231-0.041-0.321-0.116l-1.289-1.08c-0.022-0.019-0.044-0.041-0.063-0.064c-0.143-0.171-0.353-0.27-0.578-0.27
		c-0.175,0-0.345,0.061-0.479,0.173c-0.318,0.265-0.361,0.739-0.097,1.057l2.479,2.98c0.085,0.103,0.126,0.232,0.114,0.365
		s-0.076,0.253-0.178,0.339C8.998,23.959,8.884,24,8.768,24c-0.149,0-0.289-0.066-0.384-0.18l-2.479-2.98
		c-0.618-0.741-0.516-1.847,0.225-2.465c0.313-0.261,0.711-0.404,1.119-0.404c0.505,0,0.983,0.216,1.315,0.593L9,18.929V13
		c0-1.103,0.897-2,2-2s2,0.897,2,2v4h1.167c2.113,0,3.833,1.72,3.833,3.833V23.5C18,23.776,17.776,24,17.5,24z"/>
	<path d="M20,9.499c-1.241,0-2.25-1.009-2.25-2.25s1.009-2.25,2.25-2.25s2.25,1.009,2.25,2.25S21.241,9.499,20,9.499z M20,5.999
		c-0.689,0-1.25,0.561-1.25,1.25s0.561,1.25,1.25,1.25s1.25-0.561,1.25-1.25S20.689,5.999,20,5.999z"/>
	<path d="M16.5,13c-0.153,0-0.301-0.072-0.395-0.193c-0.094-0.12-0.127-0.281-0.089-0.43c0.372-1.459,1.509-2.597,2.968-2.969
		C19.317,9.323,19.659,9.28,20,9.28c1.881,0,3.52,1.273,3.985,3.097c0.038,0.149,0.004,0.31-0.09,0.43
		C23.801,12.928,23.653,13,23.5,13H16.5z M22.785,12c-0.264-0.533-0.673-0.973-1.197-1.284c-0.482-0.286-1.029-0.437-1.583-0.437
		c-0.26,0-0.52,0.033-0.775,0.098c-0.882,0.225-1.614,0.821-2.014,1.623H22.785z"/>
	<path d="M4,9.499c-1.241,0-2.25-1.009-2.25-2.25S2.759,4.999,4,4.999s2.25,1.009,2.25,2.25S5.241,9.499,4,9.499z M4,5.999
		c-0.689,0-1.25,0.561-1.25,1.25S3.311,8.499,4,8.499s1.25-0.561,1.25-1.25S4.689,5.999,4,5.999z"/>
	<path d="M0.5,13c-0.156,0-0.3-0.071-0.395-0.193c-0.094-0.121-0.128-0.282-0.089-0.43c0.372-1.459,1.509-2.596,2.968-2.968
		c0.336-0.086,0.68-0.129,1.023-0.129c0.732,0,1.455,0.2,2.092,0.578c0.944,0.561,1.614,1.456,1.885,2.52
		c0.038,0.148,0.004,0.309-0.09,0.43C7.8,12.93,7.656,13,7.5,13H0.5z M6.785,12c-0.264-0.533-0.672-0.973-1.196-1.284
		c-0.482-0.286-1.029-0.437-1.583-0.437c-0.259,0-0.52,0.033-0.775,0.098C2.349,10.602,1.618,11.197,1.217,12H6.785z"/>
	<path d="M12,6.499c-1.241,0-2.25-1.009-2.25-2.25s1.009-2.25,2.25-2.25c1.241,0,2.25,1.009,2.25,2.25S13.241,6.499,12,6.499z
		 M12,2.999c-0.689,0-1.25,0.561-1.25,1.25s0.561,1.25,1.25,1.25s1.25-0.561,1.25-1.25S12.689,2.999,12,2.999z"/>
	<path d="M8.5,10c-0.155,0-0.299-0.07-0.395-0.193c-0.096-0.123-0.128-0.28-0.09-0.431c0.372-1.459,1.51-2.596,2.968-2.968
		c0.336-0.086,0.68-0.129,1.023-0.129c0.732,0,1.455,0.2,2.092,0.578c0.944,0.561,1.614,1.456,1.885,2.52
		c0.038,0.151,0.006,0.308-0.089,0.43C15.801,9.928,15.653,10,15.5,10H8.5z M14.785,9c-0.264-0.533-0.673-0.973-1.197-1.284
		c-0.482-0.286-1.029-0.437-1.582-0.437c-0.259,0-0.52,0.033-0.775,0.098C10.349,7.602,9.618,8.197,9.217,9H14.785z"/>
	<path d="M6.5,3.999c-0.276,0-0.5-0.224-0.5-0.5s0.224-0.5,0.5-0.5h2c0.276,0,0.5,0.224,0.5,0.5s-0.224,0.5-0.5,0.5H6.5z"/>
	<path d="M9.383,2.121c-0.1,0-0.197-0.03-0.28-0.086L7.447,0.913c-0.11-0.075-0.185-0.188-0.21-0.319
		C7.212,0.462,7.239,0.329,7.314,0.219c0.093-0.137,0.248-0.219,0.414-0.219c0.1,0,0.197,0.03,0.28,0.086l1.655,1.122
		c0.11,0.075,0.185,0.188,0.21,0.319c0.025,0.131-0.002,0.264-0.077,0.375C9.704,2.039,9.549,2.121,9.383,2.121z"/>
	<path d="M14.617,2.121c-0.166,0-0.321-0.082-0.414-0.219c-0.155-0.228-0.095-0.54,0.134-0.694l1.655-1.122
		c0.083-0.056,0.18-0.086,0.281-0.086c0.166,0,0.321,0.082,0.414,0.219c0.155,0.229,0.095,0.54-0.133,0.695l-1.655,1.122
		C14.815,2.091,14.717,2.121,14.617,2.121z"/>
	<path d="M15.5,3.999c-0.276,0-0.5-0.224-0.5-0.5s0.224-0.5,0.5-0.5h2c0.276,0,0.5,0.224,0.5,0.5s-0.224,0.5-0.5,0.5H15.5z"/>
</g>
</svg>
