<?xml version="1.0" encoding="utf-8"?>
<!-- Generator: Adobe Illustrator 22.1.0, SVG Export Plug-In . SVG Version: 6.00 Build 0)  -->
<svg version="1.1" id="Layer_1" xmlns="http://www.w3.org/2000/svg" xmlns:xlink="http://www.w3.org/1999/xlink" x="0px" y="0px"
	 viewBox="0 0 24 24" style="enable-background:new 0 0 24 24;" xml:space="preserve">
<g>
	<title>job-seach-team-woman</title>
	<path d="M23.512,12.547c-0.134,0-0.259-0.052-0.354-0.146L20.22,9.463c-0.9,0.738-2.02,1.142-3.179,1.142
		c-2.773,0-5.029-2.256-5.029-5.029c0-2.773,2.256-5.029,5.029-5.029s5.029,2.256,5.029,5.029c0,1.16-0.404,2.28-1.143,3.18
		l2.938,2.937c0.094,0.094,0.146,0.22,0.146,0.354c0,0.134-0.052,0.259-0.146,0.354S23.645,12.547,23.512,12.547z M17.041,1.547
		c-2.222,0-4.029,1.807-4.029,4.029c0,2.222,1.807,4.029,4.029,4.029s4.029-1.807,4.029-4.029
		C21.07,3.354,19.263,1.547,17.041,1.547z"/>
	<path d="M16.512,23.547c-0.276,0-0.5-0.224-0.5-0.5s0.224-0.5,0.5-0.5h6.475c-0.114-1.145-0.619-2.215-1.44-3.036
		c-0.944-0.944-2.2-1.464-3.535-1.464c-0.796,0-1.591,0.193-2.298,0.559c-0.071,0.037-0.151,0.056-0.23,0.056
		c-0.188,0-0.358-0.104-0.444-0.27c-0.062-0.119-0.073-0.254-0.033-0.381c0.041-0.127,0.128-0.231,0.247-0.293
		c0.848-0.439,1.801-0.671,2.757-0.671c1.603,0,3.11,0.624,4.243,1.757c1.133,1.134,1.757,2.64,1.757,4.243
		c0,0.276-0.224,0.5-0.5,0.5H16.512z"/>
	<path d="M17.964,16.562c-0.092,0-0.183-0.003-0.276-0.01c-0.999-0.072-1.91-0.529-2.565-1.286s-0.977-1.725-0.905-2.724
		c0.015-0.207,0.047-0.414,0.096-0.614c0.055-0.225,0.254-0.382,0.486-0.382c0.04,0,0.08,0.005,0.119,0.015
		c0.129,0.031,0.239,0.111,0.308,0.226c0.07,0.114,0.091,0.249,0.059,0.378c-0.036,0.147-0.06,0.299-0.071,0.45
		c-0.109,1.512,1.033,2.832,2.545,2.941c0.066,0.005,0.132,0.007,0.198,0.007c0.661,0,1.299-0.238,1.799-0.67
		c0.555-0.48,0.89-1.149,0.943-1.882c0.019-0.26,0.237-0.464,0.497-0.464c0.007,0,0.033,0.001,0.04,0.001
		c0.131,0.009,0.252,0.07,0.34,0.171s0.13,0.23,0.121,0.364c-0.072,0.999-0.529,1.91-1.286,2.565
		C19.73,16.237,18.861,16.562,17.964,16.562z"/>
	<path d="M7.518,15.146c-0.067,0-0.134-0.001-0.202-0.005c-1.624-0.075-3.005-1.03-3.669-2.418
		c-0.121,0.766-0.392,1.506-0.803,2.182c-0.09,0.148-0.254,0.24-0.428,0.24l0,0c-0.091,0-0.181-0.025-0.259-0.073
		c-0.114-0.069-0.194-0.179-0.226-0.309c-0.032-0.13-0.011-0.264,0.059-0.378c0.509-0.837,0.761-1.798,0.727-2.777l0-0.525
		c-0.001-0.011-0.002-0.021-0.002-0.031s0.001-0.021,0.002-0.031l0-0.679c-0.005-0.108-0.005-0.238,0-0.367
		c0.104-2.583,2.209-4.606,4.792-4.606c0.066,0,0.132,0.001,0.198,0.004c1.281,0.052,2.465,0.599,3.334,1.542
		c0.869,0.942,1.32,2.167,1.268,3.448l0,0.636c0.003,0.015,0.005,0.033,0.005,0.054c0,0.014-0.002,0.033-0.005,0.05v0.489
		c-0.033,0.994,0.218,1.957,0.727,2.794c0.069,0.114,0.09,0.248,0.059,0.378c-0.032,0.13-0.112,0.239-0.226,0.309
		c-0.078,0.048-0.168,0.073-0.26,0.073c-0.176,0-0.336-0.09-0.427-0.24c-0.411-0.677-0.683-1.42-0.804-2.193
		c-0.236,0.493-0.565,0.939-0.975,1.313C9.612,14.748,8.587,15.146,7.518,15.146z M4.28,11.457c0.274,1.5,1.534,2.614,3.082,2.686
		c0.048,0.002,0.097,0.003,0.145,0.003c1.599,0,2.951-1.14,3.237-2.689c-1.214-0.214-2.345-0.791-3.23-1.647
		C6.629,10.666,5.497,11.243,4.28,11.457z M7.519,6.369c-2.049,0-3.719,1.602-3.802,3.647c-0.004,0.102-0.004,0.204,0,0.307l0,0.204
		c1.317-0.13,2.552-0.766,3.42-1.771c0.095-0.11,0.233-0.173,0.378-0.173c0.146,0,0.283,0.063,0.379,0.173
		c0.867,1.004,2.1,1.64,3.417,1.771v-0.184c0.085-2.109-1.55-3.886-3.643-3.97C7.617,6.37,7.568,6.369,7.519,6.369z"/>
	<path d="M0.512,23.547c-0.276,0-0.5-0.224-0.5-0.5c0-2.645,1.423-5.124,3.713-6.47c0.011-0.007,0.026-0.016,0.045-0.026
		c1.136-0.657,2.43-1.004,3.742-1.004c1.317,0,2.615,0.35,3.753,1.011c0,0,0.024,0.013,0.031,0.018
		c2.293,1.347,3.716,3.826,3.716,6.471c0,0.276-0.224,0.5-0.5,0.5H0.512z M13.993,22.547c-0.152-1.982-1.209-3.788-2.872-4.902
		L7.866,20.9c-0.094,0.094-0.22,0.146-0.354,0.146S7.253,20.995,7.159,20.9l-3.255-3.255c-1.664,1.114-2.72,2.919-2.872,4.902
		H13.993z M7.512,19.84l2.703-2.703c-0.844-0.387-1.771-0.59-2.703-0.59c-0.932,0-1.859,0.203-2.703,0.59L7.512,19.84z"/>
</g>
</svg>
