<?xml version="1.0" encoding="utf-8"?>
<!-- Generator: Adobe Illustrator 22.1.0, SVG Export Plug-In . SVG Version: 6.00 Build 0)  -->
<svg version="1.1" id="Layer_1" xmlns="http://www.w3.org/2000/svg" xmlns:xlink="http://www.w3.org/1999/xlink" x="0px" y="0px"
	 viewBox="0 0 24 24" style="enable-background:new 0 0 24 24;" xml:space="preserve">
<g>
	<title>job-search</title>
	<path d="M23.5,24c-0.134,0-0.259-0.052-0.354-0.146l-5.59-5.588C15.616,20.031,13.12,21,10.5,21C4.71,21,0,16.29,0,10.5
		C0,4.71,4.71,0,10.5,0C16.29,0,21,4.71,21,10.5c0,2.622-0.97,5.118-2.737,7.058l5.59,5.588C23.948,23.241,24,23.366,24,23.5
		s-0.052,0.259-0.146,0.354S23.634,24,23.5,24z M10.5,1C5.262,1,1,5.262,1,10.5S5.262,20,10.5,20s9.5-4.262,9.5-9.5S15.738,1,10.5,1
		z"/>
	<path d="M11.5,13c-0.276,0-0.5-0.224-0.5-0.5v-4C11,8.224,11.224,8,11.5,8h1C13.327,8,14,8.673,14,9.5c0,0.375-0.138,0.727-0.387,1
		c0.249,0.273,0.387,0.625,0.387,1c0,0.827-0.673,1.5-1.5,1.5H11.5z M12.5,12c0.276,0,0.5-0.224,0.5-0.5S12.776,11,12.5,11H12v1
		H12.5z M12.5,10c0.276,0,0.5-0.224,0.5-0.5S12.776,9,12.5,9H12v1H12.5z"/>
	<path d="M8.5,13C7.673,13,7,12.327,7,11.5v-2C7,8.673,7.673,8,8.5,8S10,8.673,10,9.5v2C10,12.327,9.327,13,8.5,13z M8.5,9
		C8.224,9,8,9.224,8,9.5v2C8,11.776,8.224,12,8.5,12S9,11.776,9,11.5v-2C9,9.224,8.776,9,8.5,9z"/>
	<path d="M4.5,13C3.673,13,3,12.327,3,11.5C3,11.224,3.224,11,3.5,11S4,11.224,4,11.5S4.224,12,4.5,12S5,11.776,5,11.5v-3
		C5,8.224,5.224,8,5.5,8S6,8.224,6,8.5v3C6,12.327,5.327,13,4.5,13z"/>
	<path d="M15.5,13c-0.276,0-0.5-0.224-0.5-0.5c0-0.276,0.224-0.5,0.5-0.5h1c0.276,0,0.5-0.224,0.5-0.5S16.776,11,16.5,11
		c-0.827,0-1.5-0.673-1.5-1.5S15.673,8,16.5,8h1C17.776,8,18,8.224,18,8.5S17.776,9,17.5,9h-1C16.224,9,16,9.224,16,9.5
		s0.224,0.5,0.5,0.5c0.827,0,1.5,0.673,1.5,1.5S17.327,13,16.5,13H15.5z"/>
</g>
</svg>
