<?xml version="1.0" encoding="utf-8"?>
<!-- Generator: Adobe Illustrator 22.1.0, SVG Export Plug-In . SVG Version: 6.00 Build 0)  -->
<svg version="1.1" id="Layer_1" xmlns="http://www.w3.org/2000/svg" xmlns:xlink="http://www.w3.org/1999/xlink" x="0px" y="0px"
	 viewBox="0 0 24 24" style="enable-background:new 0 0 24 24;" xml:space="preserve">
<g>
	<title>meeting-smartphone-hold</title>
	<circle cx="8" cy="19.491" r="0.75"/>
	<path d="M16.224,24.011c-0.141,0-0.276-0.06-0.371-0.165C15.664,23.637,14,21.761,14,20.4v-2.367l-3.484-3.937
		C10.187,13.768,10,13.312,10,12.823c0-0.489,0.191-0.949,0.536-1.295c0.203-0.203,0.442-0.352,0.706-0.44
		C10.465,10.086,9.27,9.498,7.98,9.498c-0.654,0-1.282,0.151-1.868,0.45c-1.06,0.54-1.835,1.512-2.127,2.666
		c-0.056,0.222-0.255,0.377-0.484,0.377c-0.041,0-0.082-0.005-0.122-0.015c-0.13-0.033-0.239-0.114-0.307-0.229
		c-0.068-0.115-0.088-0.249-0.055-0.379c0.362-1.433,1.326-2.64,2.643-3.311c0.726-0.37,1.506-0.558,2.317-0.558
		c1.854,0,3.556,0.992,4.467,2.597c0.247,0.087,0.474,0.228,0.663,0.411L14,12.224V2.491c0-0.827-0.673-1.5-1.5-1.5h-9
		c-0.827,0-1.5,0.673-1.5,1.5v14.5h10c0.276,0,0.5,0.224,0.5,0.5s-0.224,0.5-0.5,0.5H2v1.5c0,0.827,0.673,1.5,1.5,1.5h9
		c0.276,0,0.5,0.224,0.5,0.5s-0.224,0.5-0.5,0.5h-9c-1.379,0-2.5-1.122-2.5-2.5v-17c0-1.379,1.121-2.5,2.5-2.5h9
		c1.378,0,2.5,1.121,2.5,2.5V8.04c0.263,0.192,0.569,0.398,0.932,0.643C17.745,9.901,20,11.418,20,13.372v5.568l2.913,4.266
		c0.075,0.11,0.103,0.243,0.078,0.375c-0.025,0.131-0.099,0.245-0.21,0.32c-0.083,0.057-0.181,0.087-0.281,0.087
		c-0.165,0-0.32-0.082-0.413-0.218l-3-4.393C19.03,19.292,19,19.195,19,19.094v-5.722c0-1.421-2.096-2.831-3.626-3.86
		C15.247,9.426,15.122,9.342,15,9.259v3.766l1.812,1.453c0.104,0.083,0.17,0.203,0.185,0.335s-0.023,0.263-0.107,0.367
		c-0.095,0.119-0.237,0.187-0.39,0.187c-0.113,0-0.224-0.039-0.312-0.109l-3.728-2.987c-0.014-0.011-0.029-0.024-0.043-0.038
		c-0.113-0.113-0.258-0.191-0.417-0.224c-0.004-0.001-0.016-0.003-0.016-0.003c-0.055-0.01-0.105-0.015-0.153-0.015
		c-0.222,0-0.431,0.087-0.588,0.244C11.087,12.392,11,12.6,11,12.823c0,0.222,0.087,0.431,0.244,0.588l3.631,4.101
		C14.956,17.603,15,17.721,15,17.843V20.4c0,0.738,0.978,2.094,1.595,2.776c0.09,0.099,0.135,0.227,0.129,0.36
		s-0.065,0.256-0.164,0.346C16.468,23.965,16.349,24.011,16.224,24.011z"/>
	<path d="M8,8.491c-1.516,0-2.75-1.234-2.75-2.75S6.484,2.991,8,2.991s2.75,1.234,2.75,2.75S9.517,8.491,8,8.491z M8,3.991
		c-0.965,0-1.75,0.785-1.75,1.75S7.035,7.491,8,7.491s1.75-0.785,1.75-1.75S8.965,3.991,8,3.991z"/>
</g>
</svg>
