<?xml version="1.0" encoding="utf-8"?>
<!-- Generator: Adobe Illustrator 22.1.0, SVG Export Plug-In . SVG Version: 6.00 Build 0)  -->
<svg version="1.1" id="Layer_1" xmlns="http://www.w3.org/2000/svg" xmlns:xlink="http://www.w3.org/1999/xlink" x="0px" y="0px"
	 viewBox="0 0 24 24" style="enable-background:new 0 0 24 24;" xml:space="preserve">
<g>
	<title>meeting-team-laptop-1</title>
	<path d="M0.5,23.437c-0.276,0-0.5-0.224-0.5-0.5c0-3.308,2.692-6,6-6s6,2.692,6,6c0,0.276-0.224,0.5-0.5,0.5H0.5z M10.975,22.437
		c-0.251-2.544-2.388-4.5-4.975-4.5s-4.724,1.956-4.975,4.5H10.975z"/>
	<path d="M5.947,16.437c-2.068,0-3.75-1.682-3.75-3.75c0-2.068,1.682-3.75,3.75-3.75s3.75,1.682,3.75,3.75
		C9.697,14.755,8.015,16.437,5.947,16.437z M5.947,9.937c-1.516,0-2.75,1.234-2.75,2.75c0,1.516,1.234,2.75,2.75,2.75
		s2.75-1.234,2.75-2.75C8.697,11.17,7.463,9.937,5.947,9.937z"/>
	<path d="M14.503,6.937c-1.241,0-2.25-1.009-2.25-2.25s1.009-2.25,2.25-2.25s2.25,1.009,2.25,2.25S15.744,6.937,14.503,6.937z
		 M14.503,3.437c-0.689,0-1.25,0.561-1.25,1.25s0.561,1.25,1.25,1.25s1.25-0.561,1.25-1.25S15.192,3.437,14.503,3.437z"/>
	<path d="M11.001,10.437c-0.042,0-0.084-0.005-0.125-0.016c-0.129-0.033-0.237-0.114-0.306-0.229s-0.088-0.25-0.054-0.379
		c0.372-1.459,1.509-2.596,2.968-2.968c0.333-0.085,0.675-0.128,1.016-0.128c1.881,0,3.519,1.273,3.984,3.097
		c0.033,0.129,0.014,0.264-0.054,0.379s-0.177,0.196-0.306,0.229c-0.04,0.01-0.082,0.016-0.124,0.016
		c-0.229,0-0.428-0.155-0.484-0.376c-0.352-1.38-1.593-2.343-3.016-2.343c-0.258,0-0.516,0.032-0.768,0.097
		c-1.104,0.282-1.965,1.143-2.247,2.247C11.428,10.282,11.229,10.437,11.001,10.437C11.001,10.437,11.001,10.437,11.001,10.437z"/>
	<path d="M12,14.437c-0.276,0-0.5-0.224-0.5-0.5s0.224-0.5,0.5-0.5h9.5c0.641,0,1.206-0.414,1.414-1H12c-0.276,0-0.5-0.224-0.5-0.5
		s0.224-0.5,0.5-0.5h9v-9.5c0-0.276-0.224-0.5-0.5-0.5h-13c-0.276,0-0.5,0.224-0.5,0.5v5.5c0,0.276-0.224,0.5-0.5,0.5
		S6,7.713,6,7.437v-5.5c0-0.827,0.673-1.5,1.5-1.5h13c0.827,0,1.5,0.673,1.5,1.5v9.5h1.5c0.276,0,0.5,0.224,0.5,0.5
		c0,1.379-1.122,2.5-2.5,2.5H12z"/>
</g>
</svg>
