<?xml version="1.0" encoding="utf-8"?>
<!-- Generator: Adobe Illustrator 22.1.0, SVG Export Plug-In . SVG Version: 6.00 Build 0)  -->
<svg version="1.1" id="Layer_1" xmlns="http://www.w3.org/2000/svg" xmlns:xlink="http://www.w3.org/1999/xlink" x="0px" y="0px"
	 viewBox="0 0 24 24" style="enable-background:new 0 0 24 24;" xml:space="preserve">
<g>
	<title>meeting-team-laptop-man-1</title>
	<path d="M0.5,23.5C0.224,23.5,0,23.276,0,23c0-3.308,2.692-6,6-6s6,2.692,6,6c0,0.276-0.224,0.5-0.5,0.5H0.5z M10.975,22.5
		C10.724,19.956,8.587,18,6,18s-4.724,1.956-4.975,4.5H10.975z"/>
	<path d="M5.944,16.5c-2.068,0-3.75-1.682-3.75-3.75c0-2.068,1.682-3.75,3.75-3.75s3.75,1.682,3.75,3.75
		C9.694,14.818,8.012,16.5,5.944,16.5z M3.321,11.93c-0.084,0.266-0.127,0.541-0.127,0.82c0,1.516,1.234,2.75,2.75,2.75
		c1.427,0,2.604-1.093,2.738-2.487c-0.531,0.154-1.08,0.232-1.636,0.232C5.682,13.246,4.373,12.781,3.321,11.93z M3.8,11.031
		c0.893,0.783,2.036,1.212,3.243,1.212c0.53,0,1.048-0.084,1.545-0.25C8.253,10.826,7.174,10,5.944,10
		C5.108,10,4.321,10.382,3.8,11.031z"/>
	<path d="M14.5,7c-1.241,0-2.25-1.009-2.25-2.25S13.259,2.5,14.5,2.5s2.25,1.009,2.25,2.25S15.741,7,14.5,7z M14.5,3.5
		c-0.689,0-1.25,0.561-1.25,1.25S13.811,6,14.5,6s1.25-0.561,1.25-1.25S15.189,3.5,14.5,3.5z"/>
	<path d="M11.001,10.5c-0.042,0-0.084-0.005-0.125-0.016c-0.129-0.033-0.237-0.114-0.306-0.229s-0.088-0.25-0.054-0.379
		c0.372-1.459,1.509-2.596,2.968-2.968C13.817,6.823,14.159,6.78,14.5,6.78c1.881,0,3.519,1.273,3.984,3.097
		c0.033,0.129,0.014,0.264-0.054,0.379s-0.177,0.196-0.306,0.229C18.084,10.495,18.042,10.5,18,10.5
		c-0.229,0-0.428-0.155-0.484-0.376c-0.352-1.38-1.593-2.343-3.016-2.343c-0.258,0-0.516,0.032-0.768,0.097
		c-1.104,0.282-1.965,1.143-2.247,2.247C11.428,10.345,11.229,10.5,11.001,10.5C11.001,10.5,11.001,10.5,11.001,10.5z"/>
	<path d="M12,14.5c-0.276,0-0.5-0.224-0.5-0.5s0.224-0.5,0.5-0.5h9.5c0.641,0,1.206-0.414,1.414-1H12c-0.276,0-0.5-0.224-0.5-0.5
		c0-0.276,0.224-0.5,0.5-0.5h9V2c0-0.276-0.224-0.5-0.5-0.5h-13C7.224,1.5,7,1.724,7,2v5.5C7,7.776,6.776,8,6.5,8S6,7.776,6,7.5V2
		c0-0.827,0.673-1.5,1.5-1.5h13C21.327,0.5,22,1.173,22,2v9.5h1.5c0.276,0,0.5,0.224,0.5,0.5c0,1.378-1.122,2.5-2.5,2.5H12z"/>
</g>
</svg>
