<?xml version="1.0" encoding="utf-8"?>
<!-- Generator: Adobe Illustrator 22.1.0, SVG Export Plug-In . SVG Version: 6.00 Build 0)  -->
<svg version="1.1" id="Layer_1" xmlns="http://www.w3.org/2000/svg" xmlns:xlink="http://www.w3.org/1999/xlink" x="0px" y="0px"
	 viewBox="0 0 24 24" style="enable-background:new 0 0 24 24;" xml:space="preserve">
<g>
	<title>meeting-smartphone-message</title>
	<path d="M15.5,13c-0.05,0-0.099-0.007-0.146-0.022C15.143,12.914,15,12.722,15,12.5V9.95c-1.155-0.234-2-1.25-2-2.45v-5
		C13,1.121,14.122,0,15.5,0h6C22.878,0,24,1.121,24,2.5v5c0,1.379-1.122,2.5-2.5,2.5h-3.732l-1.852,2.777
		C15.823,12.917,15.668,13,15.5,13z M15.5,1C14.673,1,14,1.673,14,2.5v5C14,8.327,14.673,9,15.5,9C15.776,9,16,9.224,16,9.5v1.349
		l1.084-1.626C17.177,9.083,17.333,9,17.5,9h4C22.327,9,23,8.327,23,7.5v-5C23,1.673,22.327,1,21.5,1H15.5z"/>
	<path d="M16.5,4C16.224,4,16,3.776,16,3.5S16.224,3,16.5,3h4C20.776,3,21,3.224,21,3.5S20.776,4,20.5,4H16.5z"/>
	<path d="M16.5,7C16.224,7,16,6.776,16,6.5S16.224,6,16.5,6h4C20.776,6,21,6.224,21,6.5S20.776,7,20.5,7H16.5z"/>
	<path d="M2.5,24C1.121,24,0,22.878,0,21.5v-17C0,3.121,1.121,2,2.5,2h9C11.776,2,12,2.224,12,2.5S11.776,3,11.5,3h-9
		C1.673,3,1,3.673,1,4.5V19h14v-4.5c0-0.276,0.224-0.5,0.5-0.5s0.5,0.224,0.5,0.5v7c0,1.378-1.122,2.5-2.5,2.5H2.5z M1,21.5
		C1,22.327,1.673,23,2.5,23h11c0.827,0,1.5-0.673,1.5-1.5V20H1V21.5z"/>
	<circle cx="8" cy="21.25" r="0.75"/>
	<path d="M5.5,5C5.224,5,5,4.776,5,4.5S5.224,4,5.5,4h5C10.776,4,11,4.224,11,4.5S10.776,5,10.5,5H5.5z"/>
	<path d="M3.037,17.5c-0.097,0-0.191-0.028-0.272-0.081c-0.112-0.072-0.189-0.184-0.217-0.315c-0.028-0.131-0.003-0.264,0.069-0.376
		c0.466-0.72,1.657-1.158,3.304-1.766l0.352-0.13c0.008-0.016,0.019-0.042,0.029-0.077c0.087-0.301,0.026-0.712-0.014-0.817
		c-0.75-0.825-1.124-1.934-1.028-3.049c-0.007-0.092-0.009-0.184-0.007-0.276c0.04-1.466,1.221-2.615,2.69-2.615L8.013,8
		l0.052-0.001c0.077,0,0.162,0.004,0.245,0.012c1.454,0.137,2.539,1.426,2.429,2.879c0.096,1.118-0.281,2.23-1.038,3.059
		c-0.029,0.075-0.095,0.494-0.005,0.806c0.01,0.036,0.021,0.062,0.029,0.077l0.341,0.126c1.653,0.609,2.847,1.049,3.314,1.77
		c0.073,0.112,0.097,0.246,0.07,0.376c-0.028,0.131-0.105,0.242-0.217,0.315c-0.081,0.053-0.175,0.081-0.272,0.081
		c-0.17,0-0.327-0.085-0.42-0.228c-0.286-0.441-1.517-0.895-2.821-1.375l-0.388-0.143c-0.213-0.08-0.493-0.282-0.618-0.797
		c-0.11-0.455-0.091-1.311,0.234-1.667c0.587-0.635,0.874-1.491,0.79-2.349c-0.003-0.031-0.003-0.063,0-0.095
		c0.087-0.927-0.596-1.752-1.523-1.839C8.165,9.002,8.112,8.999,8.06,8.999l-0.111,0c-0.926,0-1.671,0.721-1.696,1.642
		c-0.002,0.068,0.001,0.136,0.007,0.205c0.003,0.032,0.003,0.064,0,0.095c-0.084,0.857,0.203,1.713,0.788,2.345
		c0.331,0.364,0.349,1.203,0.236,1.67c-0.125,0.515-0.404,0.718-0.617,0.797l-0.399,0.147c-1.299,0.479-2.526,0.931-2.811,1.371
		C3.364,17.415,3.207,17.5,3.037,17.5z"/>
</g>
</svg>
