<?xml version="1.0" encoding="utf-8"?>
<!-- Generator: Adobe Illustrator 22.1.0, SVG Export Plug-In . SVG Version: 6.00 Build 0)  -->
<svg version="1.1" id="Layer_1" xmlns="http://www.w3.org/2000/svg" xmlns:xlink="http://www.w3.org/1999/xlink" x="0px" y="0px"
	 viewBox="0 0 24 24" style="enable-background:new 0 0 24 24;" xml:space="preserve">
<g>
	<title>meeting-team-monitor-1</title>
	<path d="M11,18c-0.276,0-0.5-0.224-0.5-0.5S10.724,17,11,17h3v-2h-2.5c-0.276,0-0.5-0.224-0.5-0.5s0.224-0.5,0.5-0.5h11
		c0.276,0,0.5-0.224,0.5-0.5v-12C23,1.224,22.776,1,22.5,1h-16C6.224,1,6,1.224,6,1.5v6C6,7.776,5.776,8,5.5,8S5,7.776,5,7.5v-6
		C5,0.673,5.673,0,6.5,0h16C23.327,0,24,0.673,24,1.5v12c0,0.827-0.673,1.5-1.5,1.5H15v2h3c0.276,0,0.5,0.224,0.5,0.5
		S18.276,18,18,18H11z"/>
	<path d="M0.5,24C0.224,24,0,23.776,0,23.5c0-3.308,2.692-6,6-6s6,2.692,6,6c0,0.276-0.224,0.5-0.5,0.5H0.5z M10.975,23
		C10.724,20.456,8.587,18.5,6,18.5S1.276,20.456,1.025,23H10.975z"/>
	<path d="M5.944,17c-2.068,0-3.75-1.682-3.75-3.75c0-2.068,1.682-3.75,3.75-3.75s3.75,1.682,3.75,3.75
		C9.694,15.318,8.012,17,5.944,17z M5.944,10.5c-1.516,0-2.75,1.234-2.75,2.75S4.428,16,5.944,16s2.75-1.234,2.75-2.75
		S7.46,10.5,5.944,10.5z"/>
	<path d="M15.5,7.5c-1.241,0-2.25-1.009-2.25-2.25S14.259,3,15.5,3s2.25,1.009,2.25,2.25S16.741,7.5,15.5,7.5z M15.5,4
		c-0.689,0-1.25,0.561-1.25,1.25S14.811,6.5,15.5,6.5s1.25-0.561,1.25-1.25S16.189,4,15.5,4z"/>
	<path d="M12.001,11c-0.042,0-0.085-0.005-0.126-0.016c-0.128-0.033-0.237-0.114-0.305-0.229s-0.088-0.25-0.054-0.379
		c0.372-1.459,1.509-2.596,2.968-2.968C14.817,7.323,15.159,7.28,15.5,7.28c1.881,0,3.519,1.273,3.984,3.097
		c0.033,0.129,0.014,0.264-0.054,0.379s-0.177,0.196-0.306,0.229C19.084,10.995,19.042,11,19,11c-0.229,0-0.428-0.155-0.484-0.376
		c-0.352-1.38-1.593-2.343-3.016-2.343c-0.258,0-0.516,0.032-0.768,0.097c-1.104,0.282-1.965,1.143-2.247,2.247
		C12.428,10.845,12.229,11,12.001,11L12.001,11z"/>
</g>
</svg>
