<?xml version="1.0" encoding="utf-8"?>
<!-- Generator: Adobe Illustrator 22.1.0, SVG Export Plug-In . SVG Version: 6.00 Build 0)  -->
<svg version="1.1" id="Layer_1" xmlns="http://www.w3.org/2000/svg" xmlns:xlink="http://www.w3.org/1999/xlink" x="0px" y="0px"
	 viewBox="0 0 24 24" style="enable-background:new 0 0 24 24;" xml:space="preserve">
<g>
	<title>meeting-team-laptop-woman-1</title>
	<path d="M10.37,16.373c-0.173,0-0.337-0.092-0.427-0.24c-0.323-0.53-0.546-1.107-0.664-1.708c-0.645,1.168-1.887,1.937-3.277,1.937
		c-0.062,0-0.125-0.001-0.188-0.005c-1.327-0.066-2.481-0.814-3.094-1.926c-0.118,0.597-0.342,1.173-0.663,1.701
		c-0.092,0.15-0.251,0.24-0.427,0.24c-0.091,0-0.181-0.025-0.259-0.073c-0.236-0.144-0.311-0.452-0.167-0.688
		c0.43-0.706,0.642-1.515,0.614-2.34l0-1.088c0-2.307,1.876-4.183,4.183-4.183s4.183,1.877,4.183,4.183v1.071
		c-0.028,0.839,0.185,1.652,0.614,2.357c0.143,0.235,0.068,0.544-0.167,0.687C10.552,16.348,10.462,16.373,10.37,16.373z
		 M3.313,13.192c0.258,1.208,1.295,2.104,2.55,2.166c0.044,0.002,0.089,0.003,0.133,0.003c1.302,0,2.419-0.917,2.688-2.169
		C7.678,13,6.74,12.524,6,11.827C5.26,12.524,4.321,13.001,3.313,13.192z M6,9.002c-1.755,0-3.183,1.428-3.183,3.183v0.072
		c1.084-0.127,2.094-0.657,2.805-1.479C5.715,10.671,5.852,10.609,6,10.609s0.285,0.062,0.378,0.169
		c0.711,0.822,1.721,1.352,2.805,1.479v-0.072C9.183,10.43,7.755,9.002,6,9.002z"/>
	<path d="M0.5,23.5C0.224,23.5,0,23.276,0,23c0-3.308,2.692-6,6-6s6,2.692,6,6c0,0.276-0.224,0.5-0.5,0.5H0.5z M10.975,22.5
		C10.724,19.956,8.587,18,6,18s-4.724,1.956-4.975,4.5H10.975z"/>
	<path d="M14.5,7c-1.241,0-2.25-1.009-2.25-2.25S13.259,2.5,14.5,2.5s2.25,1.009,2.25,2.25S15.741,7,14.5,7z M14.5,3.5
		c-0.689,0-1.25,0.561-1.25,1.25S13.811,6,14.5,6s1.25-0.561,1.25-1.25S15.189,3.5,14.5,3.5z"/>
	<path d="M11.001,10.5c-0.042,0-0.084-0.005-0.125-0.016c-0.129-0.033-0.237-0.114-0.306-0.229s-0.088-0.25-0.054-0.379
		c0.372-1.459,1.509-2.596,2.968-2.968C13.817,6.823,14.159,6.78,14.5,6.78c1.881,0,3.519,1.273,3.984,3.097
		c0.033,0.129,0.014,0.264-0.054,0.379s-0.177,0.196-0.306,0.229C18.084,10.495,18.042,10.5,18,10.5
		c-0.229,0-0.428-0.155-0.484-0.376c-0.352-1.38-1.593-2.343-3.016-2.343c-0.258,0-0.516,0.032-0.768,0.097
		c-1.104,0.282-1.965,1.143-2.247,2.247C11.428,10.345,11.229,10.5,11.001,10.5C11.001,10.5,11.001,10.5,11.001,10.5z"/>
	<path d="M12,14.5c-0.276,0-0.5-0.224-0.5-0.5s0.224-0.5,0.5-0.5h9.5c0.641,0,1.206-0.414,1.414-1H12c-0.276,0-0.5-0.224-0.5-0.5
		c0-0.276,0.224-0.5,0.5-0.5h9V2c0-0.276-0.224-0.5-0.5-0.5h-13C7.224,1.5,7,1.724,7,2v4.5C7,6.776,6.776,7,6.5,7S6,6.776,6,6.5V2
		c0-0.827,0.673-1.5,1.5-1.5h13C21.327,0.5,22,1.173,22,2v9.5h1.5c0.276,0,0.5,0.224,0.5,0.5c0,1.378-1.122,2.5-2.5,2.5H12z"/>
</g>
</svg>
