<?xml version="1.0" encoding="utf-8"?>
<!-- Generator: Adobe Illustrator 22.1.0, SVG Export Plug-In . SVG Version: 6.00 Build 0)  -->
<svg version="1.1" id="Layer_1" xmlns="http://www.w3.org/2000/svg" xmlns:xlink="http://www.w3.org/1999/xlink" x="0px" y="0px"
	 viewBox="0 0 24 24" style="enable-background:new 0 0 24 24;" xml:space="preserve">
<g>
	<title>meeting-headphones-2</title>
	<path d="M13.5,23.75c-1.103,0-2-0.897-2-2s0.897-2,2-2c0.913,0,1.709,0.631,1.934,1.5H17c1.823,0,3-0.981,3-2.5v-0.257
		c-0.05-0.017-0.098-0.037-0.145-0.06c-0.362-0.172-0.635-0.475-0.769-0.853C19.029,17.42,19,17.251,19,17.079V8.25
		c0-3.86-3.14-7-7-7s-7,3.14-7,7v8.829c0,0.171-0.029,0.34-0.086,0.501c-0.134,0.378-0.407,0.681-0.768,0.853
		c-0.204,0.097-0.421,0.147-0.644,0.147c-0.171,0-0.34-0.029-0.502-0.087c-1.796-0.634-3.003-2.341-3.001-4.247
		C-0.001,11.949,1.739,10.032,4,9.783V8.25c0-4.411,3.589-8,8-8c4.411,0,8,3.589,8,8v1.533c2.261,0.25,4.001,2.167,4.003,4.464
		c0.001,1.906-1.205,3.613-3.002,4.247c0,0,0,0.256,0,0.256c0,2.094-1.607,3.5-4,3.5h-1.566C15.209,23.119,14.413,23.75,13.5,23.75z
		 M13.5,20.75c-0.552,0-1,0.448-1,1s0.448,1,1,1s1-0.448,1-1S14.052,20.75,13.5,20.75z M4,10.785
		c-1.703,0.243-3.001,1.715-3.003,3.462c-0.001,1.482,0.937,2.81,2.335,3.303c0.055,0.02,0.112,0.03,0.168,0.03
		c0.074,0,0.146-0.017,0.215-0.049c0.12-0.057,0.211-0.159,0.256-0.284C3.991,17.193,4,17.136,4,17.079V10.785z M20,17.079
		c0,0.058,0.01,0.114,0.028,0.167c0.045,0.126,0.136,0.228,0.257,0.285c0.068,0.032,0.14,0.049,0.214,0.049
		c0.057,0,0.113-0.01,0.168-0.029c1.398-0.493,2.337-1.821,2.336-3.303c-0.001-1.747-1.3-3.219-3.003-3.462V17.079z"/>
</g>
</svg>
