<?xml version="1.0" encoding="utf-8"?>
<!-- Generator: Adobe Illustrator 22.1.0, SVG Export Plug-In . SVG Version: 6.00 Build 0)  -->
<svg version="1.1" id="Layer_1" xmlns="http://www.w3.org/2000/svg" xmlns:xlink="http://www.w3.org/1999/xlink" x="0px" y="0px"
	 viewBox="0 0 24 24" style="enable-background:new 0 0 24 24;" xml:space="preserve">
<g>
	<title>meeting-headphone-wireless</title>
	<path d="M8.674,6.139c-0.158,0-0.303-0.072-0.398-0.198c-0.081-0.106-0.115-0.238-0.097-0.37c0.018-0.132,0.087-0.25,0.193-0.33
		C9.405,4.456,10.693,4.024,12,4.024c1.306,0,2.595,0.432,3.628,1.217c0.106,0.081,0.175,0.198,0.193,0.33
		c0.018,0.132-0.016,0.264-0.097,0.37c-0.095,0.126-0.241,0.198-0.398,0.198c-0.11,0-0.214-0.035-0.302-0.102
		C14.163,5.384,13.089,5.024,12,5.024c-1.089,0-2.163,0.36-3.024,1.014C8.889,6.104,8.784,6.139,8.674,6.139z"/>
	<path d="M6,3.02c-0.157,0-0.307-0.075-0.4-0.201c-0.08-0.107-0.114-0.238-0.095-0.37C5.524,2.317,5.593,2.2,5.7,2.12
		C7.495,0.776,9.732,0.036,12,0.036c2.268,0,4.505,0.74,6.3,2.085c0.107,0.08,0.176,0.197,0.195,0.329
		C18.514,2.581,18.48,2.713,18.4,2.82c-0.094,0.125-0.244,0.2-0.401,0.2c-0.109,0-0.212-0.035-0.3-0.1
		c-1.623-1.216-3.647-1.885-5.7-1.885S7.923,1.705,6.3,2.92C6.213,2.986,6.109,3.02,6,3.02L6,3.02z"/>
	<path d="M11.5,24.02c-0.827,0-1.5-0.673-1.5-1.5s0.673-1.5,1.5-1.5h1c0.639,0,1.203,0.409,1.413,0.998
		c1.833-0.031,2.87-0.393,3.087-1.075V15.02c0-2.757-2.243-5-5-5c-2.757,0-5,2.243-5,5v6c0,0.276-0.224,0.5-0.5,0.5
		c-1.93,0-3.5-1.57-3.5-3.5c0-1.746,1.309-3.227,3.019-3.464C6.256,11.435,8.843,9.02,12,9.02c3.157,0,5.744,2.415,5.981,5.536
		C19.691,14.794,21,16.274,21,18.02c0,1.803-1.372,3.302-3.151,3.479c-0.617,1.291-2.482,1.499-3.934,1.519
		c-0.209,0.591-0.774,1.002-1.415,1.002H11.5z M11.5,22.02c-0.276,0-0.5,0.224-0.5,0.5s0.224,0.5,0.5,0.5h1
		c0.276,0,0.5-0.224,0.5-0.5s-0.224-0.5-0.5-0.5H11.5z M18,20.47c1.141-0.235,2-1.261,2-2.449s-0.859-2.215-2-2.449V20.47z
		 M6,15.571c-1.141,0.235-2,1.261-2,2.449s0.859,2.215,2,2.449V15.571z"/>
</g>
</svg>
