<?xml version="1.0" encoding="utf-8"?>
<!-- Generator: Adobe Illustrator 22.1.0, SVG Export Plug-In . SVG Version: 6.00 Build 0)  -->
<svg version="1.1" id="Layer_1" xmlns="http://www.w3.org/2000/svg" xmlns:xlink="http://www.w3.org/1999/xlink" x="0px" y="0px"
	 viewBox="0 0 24 24" style="enable-background:new 0 0 24 24;" xml:space="preserve">
<g>
	<title>meeting-camera-circle</title>
	<path d="M5.5,17C5.224,17,5,16.776,5,16.5v-9C5,7.224,5.224,7,5.5,7h9C14.776,7,15,7.224,15,7.5v2.598l3.235-2.022
		C18.315,8.026,18.406,8,18.5,8c0.085,0,0.169,0.022,0.243,0.063C18.901,8.151,19,8.318,19,8.5v7c0,0.182-0.099,0.349-0.258,0.437
		C18.668,15.979,18.584,16,18.5,16l0,0c-0.094,0-0.186-0.026-0.265-0.076L15,13.902V16.5c0,0.276-0.224,0.5-0.5,0.5H5.5z M14,16v-3
		c0-0.182,0.099-0.349,0.258-0.437c0.074-0.041,0.158-0.063,0.242-0.063c0.094,0,0.186,0.026,0.266,0.076L18,14.598V9.402
		l-3.235,2.022c-0.08,0.05-0.172,0.076-0.265,0.076c-0.085,0-0.169-0.022-0.243-0.063C14.099,11.349,14,11.182,14,11V8H6v8H14z"/>
	<path d="M12,24C5.383,24,0,18.617,0,12C0,5.383,5.383,0,12,0c6.617,0,12,5.383,12,12C24,18.617,18.617,24,12,24z M12,1
		C5.935,1,1,5.935,1,12s4.935,11,11,11s11-4.935,11-11S18.065,1,12,1z"/>
</g>
</svg>
