<?xml version="1.0" encoding="utf-8"?>
<!-- Generator: Adobe Illustrator 22.1.0, SVG Export Plug-In . SVG Version: 6.00 Build 0)  -->
<svg version="1.1" id="Layer_1" xmlns="http://www.w3.org/2000/svg" xmlns:xlink="http://www.w3.org/1999/xlink" x="0px" y="0px"
	 viewBox="0 0 24 24" style="enable-background:new 0 0 24 24;" xml:space="preserve">
<g>
	<title>meeting-team-monitor-woman-1</title>
	<path d="M12,18c-0.276,0-0.5-0.224-0.5-0.5S11.724,17,12,17h2v-2h-2c-0.276,0-0.5-0.224-0.5-0.5S11.724,14,12,14h10.5
		c0.276,0,0.5-0.224,0.5-0.5v-12C23,1.224,22.776,1,22.5,1h-16C6.224,1,6,1.224,6,1.5V7c0,0.276-0.224,0.5-0.5,0.5S5,7.276,5,7V1.5
		C5,0.673,5.673,0,6.5,0h16C23.327,0,24,0.673,24,1.5v12c0,0.827-0.673,1.5-1.5,1.5H15v2h3c0.276,0,0.5,0.224,0.5,0.5
		S18.276,18,18,18H12z"/>
	<path d="M15.5,7.5c-1.241,0-2.25-1.009-2.25-2.25S14.259,3,15.5,3s2.25,1.009,2.25,2.25S16.741,7.5,15.5,7.5z M15.5,4
		c-0.689,0-1.25,0.561-1.25,1.25S14.811,6.5,15.5,6.5s1.25-0.561,1.25-1.25S16.189,4,15.5,4z"/>
	<path d="M12.001,11c-0.042,0-0.085-0.005-0.126-0.016c-0.128-0.033-0.237-0.114-0.305-0.229s-0.088-0.25-0.054-0.379
		c0.372-1.459,1.509-2.596,2.968-2.968C14.817,7.323,15.159,7.28,15.5,7.28c1.881,0,3.519,1.273,3.984,3.097
		c0.033,0.129,0.014,0.264-0.054,0.379s-0.177,0.196-0.306,0.229C19.084,10.995,19.042,11,19,11c-0.229,0-0.428-0.155-0.484-0.376
		c-0.352-1.38-1.593-2.343-3.016-2.343c-0.258,0-0.516,0.032-0.768,0.097c-1.104,0.282-1.965,1.143-2.247,2.247
		C12.428,10.845,12.229,11,12.001,11L12.001,11z"/>
	<path d="M10.37,16.873c-0.173,0-0.337-0.092-0.427-0.24c-0.323-0.53-0.546-1.107-0.664-1.708c-0.645,1.168-1.887,1.937-3.277,1.937
		c-0.062,0-0.125-0.001-0.188-0.005c-1.327-0.066-2.481-0.814-3.094-1.926c-0.118,0.597-0.342,1.173-0.663,1.701
		c-0.092,0.15-0.251,0.24-0.427,0.24c0,0,0,0,0,0c-0.091,0-0.181-0.025-0.259-0.072c-0.236-0.144-0.311-0.453-0.168-0.688
		c0.43-0.706,0.642-1.515,0.614-2.34l0-1.088c0-2.307,1.876-4.183,4.183-4.183s4.183,1.877,4.183,4.183v1.071
		c-0.028,0.839,0.185,1.652,0.614,2.357c0.143,0.235,0.068,0.544-0.167,0.687C10.552,16.848,10.462,16.873,10.37,16.873z
		 M3.313,13.692c0.258,1.208,1.295,2.104,2.55,2.166c0.045,0.002,0.091,0.003,0.136,0.003c1.301,0,2.416-0.917,2.686-2.169
		C7.678,13.5,6.74,13.024,6,12.327C5.26,13.024,4.321,13.501,3.313,13.692z M6,9.502c-1.755,0-3.183,1.428-3.183,3.183v0.072
		c1.084-0.127,2.094-0.657,2.805-1.479C5.715,11.171,5.852,11.109,6,11.109s0.285,0.062,0.378,0.169
		c0.711,0.822,1.721,1.352,2.805,1.479v-0.072C9.183,10.93,7.755,9.502,6,9.502z"/>
	<path d="M0.5,24C0.224,24,0,23.776,0,23.5c0-3.308,2.692-6,6-6s6,2.692,6,6c0,0.276-0.224,0.5-0.5,0.5H0.5z M10.975,23
		C10.724,20.456,8.587,18.5,6,18.5S1.276,20.456,1.025,23H10.975z"/>
</g>
</svg>
