<?xml version="1.0" encoding="utf-8"?>
<!-- Generator: Adobe Illustrator 22.1.0, SVG Export Plug-In . SVG Version: 6.00 Build 0)  -->
<svg version="1.1" id="Layer_1" xmlns="http://www.w3.org/2000/svg" xmlns:xlink="http://www.w3.org/1999/xlink" x="0px" y="0px"
	 viewBox="0 0 24 24" style="enable-background:new 0 0 24 24;" xml:space="preserve">
<g>
	<title>meeting-headphones-3</title>
	<path d="M11.5,24c-0.827,0-1.5-0.673-1.5-1.5s0.673-1.5,1.5-1.5h1c0.64,0,1.205,0.41,1.414,1H16c1.018,0,1.865-0.764,1.983-1.763
		L17,19.5c-0.626-0.469-1-1.217-1-2v-4c0-0.783,0.374-1.531,1-2l1.592-1.194c0.011-0.008,0.027-0.018,0.042-0.026
		C18.882,10.1,19.185,10,19.5,10H20V9c0-4.411-3.589-8-8-8C7.589,1,4,4.589,4,9v1h0.5c0.31,0,0.61,0.097,0.867,0.281
		c0.016,0.008,0.031,0.017,0.042,0.026L7,11.5c0.626,0.469,1,1.217,1,2v4c0,0.783-0.374,1.531-1,2l-1.592,1.194
		c-0.01,0.008-0.027,0.018-0.042,0.026C5.109,20.903,4.81,21,4.5,21h-1C2.121,21,1,19.878,1,18.5v-6c0-1.199,0.845-2.215,2-2.449V9
		c0-4.963,4.037-9,9-9s9,4.037,9,9v1.051c1.155,0.234,2,1.25,2,2.449v6c0,1.378-1.122,2.5-2.5,2.5h-1
		c-0.218,0-0.431-0.048-0.628-0.141C18.498,22.119,17.342,23,16,23h-2.086c-0.209,0.59-0.774,1-1.414,1H11.5z M11.5,22
		c-0.276,0-0.5,0.224-0.5,0.5s0.224,0.5,0.5,0.5h1c0.276,0,0.5-0.224,0.5-0.5S12.776,22,12.5,22H11.5z M19.5,11
		c-0.276,0-0.5,0.224-0.5,0.5v8c0,0.276,0.224,0.5,0.5,0.5h1c0.827,0,1.5-0.673,1.5-1.5v-6c0-0.827-0.673-1.5-1.5-1.5H19.5z M3.5,11
		C2.673,11,2,11.673,2,12.5v6C2,19.327,2.673,20,3.5,20h1C4.776,20,5,19.776,5,19.5v-8C5,11.224,4.776,11,4.5,11H3.5z M17.6,12.3
		c-0.375,0.282-0.6,0.73-0.6,1.2v4c0,0.469,0.224,0.918,0.6,1.2L18,19v-7L17.6,12.3z M6,19l0.4-0.3C6.776,18.418,7,17.97,7,17.5v-4
		c0-0.47-0.224-0.918-0.6-1.2L6,12V19z"/>
</g>
</svg>
