<?xml version="1.0" encoding="utf-8"?>
<!-- Generator: Adobe Illustrator 22.1.0, SVG Export Plug-In . SVG Version: 6.00 Build 0)  -->
<svg version="1.1" id="Layer_1" xmlns="http://www.w3.org/2000/svg" xmlns:xlink="http://www.w3.org/1999/xlink" x="0px" y="0px"
	 viewBox="0 0 24 24" style="enable-background:new 0 0 24 24;" xml:space="preserve">
<g>
	<title>meeting-monitor</title>
	<path d="M5.001,24c-0.276,0-0.5-0.224-0.5-0.5s0.224-0.5,0.5-0.5h4v-1H2c-1.103,0-2-0.897-2-2V8.088
		C-0.031,6.973,0.859,6.033,1.985,6L11.5,6C11.776,6,12,6.224,12,6.5S11.776,7,11.5,7H2C1.436,7.017,0.984,7.499,1,8.074L1,18h17
		V9.5C18,9.224,18.224,9,18.5,9S19,9.224,19,9.5v8.979c0.001,0.007,0.001,0.014,0.001,0.021s0,0.014-0.001,0.021v1.391
		c0.031,1.115-0.86,2.054-1.985,2.088h-7.014v1h4c0.276,0,0.5,0.224,0.5,0.5s-0.224,0.5-0.5,0.5H5.001z M1,20c0,0.552,0.449,1,1,1
		h15c0.564-0.017,1.016-0.499,1-1.074V19H1V20z"/>
	<path d="M4.573,17.5c-0.097,0-0.191-0.028-0.272-0.081c-0.112-0.072-0.189-0.184-0.217-0.315c-0.028-0.131-0.003-0.264,0.069-0.376
		c0.467-0.722,1.664-1.162,3.321-1.771l0.337-0.124c0.008-0.016,0.019-0.042,0.029-0.077c0.088-0.301,0.026-0.712-0.014-0.817
		c-0.75-0.825-1.124-1.933-1.028-3.048c-0.007-0.091-0.009-0.183-0.007-0.274C6.81,9.899,7.107,9.231,7.628,8.737
		C8.13,8.261,8.783,7.999,9.469,7.999L9.55,8l0.052-0.001c0.077,0,0.162,0.004,0.246,0.012c1.454,0.137,2.539,1.426,2.429,2.879
		c0.096,1.118-0.281,2.23-1.038,3.059c-0.029,0.075-0.095,0.494-0.005,0.806c0.01,0.036,0.021,0.062,0.029,0.077l0.342,0.126
		c1.653,0.609,2.848,1.049,3.315,1.77c0.073,0.112,0.097,0.246,0.07,0.376c-0.028,0.131-0.105,0.242-0.217,0.315
		C14.691,17.472,14.597,17.5,14.5,17.5c-0.17,0-0.327-0.085-0.42-0.228c-0.286-0.441-1.517-0.895-2.821-1.375l-0.388-0.143
		c-0.213-0.08-0.493-0.282-0.618-0.797c-0.11-0.455-0.091-1.311,0.234-1.667c0.587-0.635,0.874-1.491,0.79-2.349
		c-0.003-0.031-0.003-0.063,0-0.095c0.087-0.927-0.596-1.752-1.523-1.839C9.702,9.002,9.649,8.999,9.596,8.999l-0.103,0
		c-0.915,0-1.679,0.737-1.703,1.644c-0.002,0.068,0.001,0.135,0.007,0.203c0.003,0.032,0.003,0.064,0,0.096
		c-0.084,0.857,0.203,1.713,0.788,2.345c0.331,0.364,0.349,1.203,0.236,1.67c-0.125,0.515-0.404,0.718-0.617,0.797L7.82,15.895
		c-1.307,0.48-2.541,0.934-2.827,1.376C4.9,17.415,4.743,17.5,4.573,17.5z"/>
	<path d="M14.5,8C13.673,8,13,7.327,13,6.5v-5C13,0.673,13.673,0,14.5,0h6c0.799,0,1.455,0.628,1.498,1.417L23.36,1.02
		C23.405,1.007,23.453,1,23.5,1c0.109,0,0.213,0.035,0.3,0.1C23.925,1.194,24,1.343,24,1.5v5c0,0.16-0.078,0.312-0.208,0.406
		C23.706,6.967,23.605,7,23.5,7l0,0c-0.053,0-0.106-0.009-0.157-0.025L22,6.527C21.985,7.342,21.318,8,20.5,8H14.5z M14.5,1
		C14.224,1,14,1.224,14,1.5v5C14,6.776,14.224,7,14.5,7h6C20.775,7,21,6.776,21,6.5V5.833c0-0.16,0.078-0.312,0.208-0.406
		c0.086-0.062,0.187-0.094,0.292-0.094c0.054,0,0.107,0.009,0.158,0.026L23,5.806v-3.64l-1.36,0.396
		c-0.047,0.013-0.094,0.02-0.14,0.02c-0.109,0-0.213-0.035-0.3-0.1C21.075,2.389,21,2.24,21,2.083V1.5C21,1.224,20.775,1,20.5,1
		H14.5z"/>
</g>
</svg>
