<?xml version="1.0" encoding="utf-8"?>
<!-- Generator: Adobe Illustrator 22.1.0, SVG Export Plug-In . SVG Version: 6.00 Build 0)  -->
<svg version="1.1" id="Layer_1" xmlns="http://www.w3.org/2000/svg" xmlns:xlink="http://www.w3.org/1999/xlink" x="0px" y="0px"
	 viewBox="0 0 24 24" style="enable-background:new 0 0 24 24;" xml:space="preserve">
<g>
	<title>meeting-remote</title>
	<path d="M5.503,13c-1.379,0-2.5-1.121-2.5-2.5v-8c0-1.379,1.121-2.5,2.5-2.5h13c1.378,0,2.5,1.121,2.5,2.5v8
		c0,1.379-1.122,2.5-2.5,2.5H5.503z M5.503,1c-0.827,0-1.5,0.673-1.5,1.5v8c0,0.827,0.673,1.5,1.5,1.5h13c0.827,0,1.5-0.673,1.5-1.5
		v-8c0-0.827-0.673-1.5-1.5-1.5H5.503z"/>
	<path d="M16.7,11.026c-0.171,0-0.328-0.086-0.42-0.229c-0.265-0.411-1.418-0.834-2.638-1.283l-0.388-0.143
		c-0.208-0.078-0.48-0.274-0.602-0.771c-0.109-0.448-0.091-1.255,0.226-1.606c0.552-0.598,0.822-1.401,0.743-2.207
		c-0.003-0.024-0.003-0.052-0.002-0.079c0.029-0.435-0.114-0.853-0.4-1.18c-0.287-0.327-0.683-0.522-1.115-0.55
		c-0.036-0.002-0.072-0.004-0.107-0.004c-0.853,0-1.564,0.667-1.62,1.519c-0.005,0.07-0.005,0.141,0,0.212
		c0.002,0.028,0.001,0.055-0.001,0.082c-0.078,0.805,0.191,1.608,0.74,2.203c0.318,0.352,0.338,1.156,0.23,1.602
		c-0.12,0.499-0.392,0.698-0.598,0.776l-0.44,0.164C9.11,9.977,7.98,10.396,7.72,10.798c-0.093,0.143-0.25,0.228-0.42,0.228l0,0
		c-0.097,0-0.19-0.028-0.271-0.08c-0.231-0.15-0.297-0.46-0.148-0.692c0.441-0.681,1.547-1.091,3.077-1.658l0.384-0.143
		c0.006-0.013,0.013-0.032,0.021-0.058c0.081-0.273,0.026-0.654-0.011-0.756C9.638,6.851,9.283,5.794,9.376,4.73
		c-0.005-0.1-0.004-0.201,0.002-0.3c0.09-1.376,1.24-2.454,2.619-2.454c0.057,0,0.114,0.002,0.172,0.006
		c1.426,0.093,2.521,1.324,2.451,2.749c0.094,1.067-0.265,2.129-0.986,2.92c-0.024,0.072-0.083,0.474,0,0.748
		c0.007,0.025,0.014,0.042,0.02,0.054l0.334,0.123c1.56,0.574,2.688,0.988,3.134,1.679c0.149,0.232,0.082,0.542-0.149,0.691
		C16.89,10.999,16.796,11.026,16.7,11.026z"/>
	<path d="M16.471,23.999c-0.013-0.001-0.031-0.004-0.048-0.008c-0.036-0.005-0.082-0.014-0.132-0.037
		c-0.008-0.004-0.017-0.009-0.025-0.013c-0.05-0.027-0.092-0.058-0.127-0.096c-0.011-0.012-0.031-0.038-0.039-0.051
		c-0.012-0.015-0.039-0.051-0.06-0.102c-0.014-0.034-0.02-0.067-0.023-0.086c-0.004-0.012-0.014-0.046-0.015-0.088
		c-0.017-0.484-0.132-0.951-0.342-1.386c-0.162-0.323-1.267-0.729-2.243-1.088l-0.355-0.131c-0.161-0.06-0.45-0.23-0.567-0.704
		c-0.104-0.42-0.05-1.055,0.216-1.348c0.463-0.502,0.69-1.177,0.624-1.853c-0.003-0.025-0.003-0.052-0.002-0.079
		c0.024-0.358-0.093-0.702-0.328-0.97c-0.235-0.269-0.561-0.429-0.916-0.453c-0.032-0.002-0.063-0.003-0.093-0.003
		c-0.698,0-1.281,0.548-1.327,1.247c-0.004,0.059-0.004,0.118,0,0.177c0.002,0.028,0.001,0.054-0.001,0.082
		c-0.066,0.676,0.16,1.351,0.621,1.85c0.266,0.294,0.321,0.926,0.22,1.343c-0.115,0.477-0.404,0.65-0.566,0.711l-0.36,0.133
		c-1.023,0.377-2.08,0.766-2.244,1.094C8.131,22.568,8.016,23.033,8,23.517c-0.001,0.043-0.012,0.076-0.017,0.093
		c-0.003,0.016-0.008,0.048-0.023,0.083c-0.016,0.039-0.037,0.067-0.049,0.084c-0.013,0.02-0.029,0.046-0.056,0.073
		c-0.029,0.03-0.06,0.049-0.078,0.061c-0.019,0.013-0.043,0.031-0.078,0.047c-0.042,0.019-0.082,0.025-0.105,0.029
		C7.59,23.988,7.559,23.998,7.518,24c-0.003,0-0.042,0-0.049-0.001c-0.028-0.001-0.059-0.01-0.073-0.015
		c-0.013-0.001-0.053-0.008-0.097-0.027c-0.033-0.015-0.058-0.033-0.071-0.042c-0.024-0.015-0.054-0.034-0.084-0.065
		c-0.026-0.026-0.042-0.052-0.051-0.066c-0.016-0.023-0.037-0.051-0.053-0.091c-0.015-0.035-0.02-0.067-0.023-0.083
		C7.012,23.594,7.002,23.56,7,23.516c-0.016-0.483-0.131-0.95-0.342-1.386c-0.161-0.323-1.267-0.729-2.242-1.088L4.06,20.911
		c-0.161-0.059-0.45-0.23-0.567-0.704c-0.103-0.42-0.05-1.055,0.216-1.349c0.463-0.502,0.69-1.177,0.624-1.854
		c-0.003-0.031-0.003-0.064,0-0.095c0.032-0.342-0.072-0.677-0.292-0.943c-0.22-0.266-0.53-0.43-0.872-0.461
		c-0.04-0.004-0.08-0.006-0.121-0.006l-0.097,0c-0.704,0-1.271,0.551-1.29,1.255c-0.001,0.052,0,0.104,0.005,0.156
		c0.003,0.032,0.003,0.063,0,0.095c-0.066,0.676,0.16,1.35,0.621,1.85c0.266,0.294,0.321,0.926,0.22,1.343
		c-0.115,0.477-0.404,0.65-0.566,0.711l-0.39,0.144c-0.313,0.115-0.604,0.222-0.87,0.327c-0.058,0.023-0.12,0.034-0.182,0.034
		c-0.207,0-0.39-0.125-0.465-0.317c-0.049-0.125-0.046-0.261,0.007-0.383c0.053-0.122,0.151-0.217,0.276-0.265
		c0.274-0.107,0.572-0.217,0.889-0.334l0.32-0.118c0.001-0.003,0.002-0.006,0.003-0.009c0.052-0.171,0.018-0.409-0.007-0.488
		c-0.623-0.691-0.933-1.615-0.855-2.546c-0.005-0.076-0.007-0.151-0.005-0.227c0.034-1.228,1.059-2.227,2.286-2.227h0.108
		c0.064,0,0.135,0.003,0.205,0.01c1.236,0.116,2.161,1.21,2.071,2.445c0.078,0.93-0.234,1.855-0.858,2.549
		c-0.025,0.082-0.056,0.32-0.004,0.489c0.001,0.002,0.001,0.004,0.002,0.006l0.288,0.106c1.354,0.499,2.35,0.865,2.739,1.487
		c0.393-0.623,1.386-0.989,2.734-1.485l0.292-0.108c0.001-0.003,0.002-0.006,0.003-0.009c0.052-0.171,0.018-0.409-0.007-0.488
		c-0.624-0.692-0.935-1.619-0.855-2.553c-0.004-0.089-0.003-0.178,0.002-0.266c0.081-1.223,1.107-2.181,2.337-2.181
		c0.049,0,0.097,0.001,0.146,0.005c0.623,0.041,1.192,0.323,1.603,0.792c0.401,0.458,0.605,1.044,0.576,1.651
		c0.081,0.936-0.234,1.868-0.865,2.564c-0.013,0.05-0.051,0.303,0.004,0.48c0.001,0.002,0.001,0.004,0.002,0.006l0.288,0.106
		c1.354,0.498,2.35,0.865,2.739,1.487c0.392-0.624,1.387-0.99,2.736-1.486l0.29-0.107c0.001-0.003,0.002-0.006,0.003-0.009
		c0.052-0.171,0.018-0.409-0.007-0.488c-0.624-0.692-0.935-1.62-0.855-2.553c-0.004-0.088-0.004-0.178,0.002-0.267
		c0.041-0.622,0.323-1.191,0.792-1.602c0.426-0.373,0.971-0.579,1.535-0.579c0.052,0,0.105,0.002,0.158,0.005
		c0.622,0.041,1.191,0.323,1.602,0.792c0.401,0.458,0.605,1.044,0.576,1.651c0.081,0.936-0.234,1.868-0.865,2.564
		c-0.013,0.05-0.051,0.303,0.004,0.48c0.001,0.002,0.001,0.004,0.002,0.006c0.168,0.063,0.33,0.123,0.485,0.18
		c0.266,0.098,0.503,0.185,0.724,0.272c0.124,0.049,0.222,0.143,0.276,0.265c0.053,0.122,0.056,0.258,0.007,0.383
		c-0.075,0.193-0.258,0.317-0.466,0.317l0,0c-0.062,0-0.123-0.011-0.182-0.034c-0.218-0.085-0.451-0.171-0.697-0.261
		c-0.187-0.069-0.373-0.137-0.564-0.209c-0.159-0.059-0.447-0.229-0.563-0.703c-0.104-0.42-0.05-1.055,0.216-1.348
		c0.463-0.502,0.69-1.177,0.624-1.853c-0.003-0.025-0.003-0.052-0.002-0.079c0.024-0.358-0.093-0.702-0.328-0.97
		c-0.235-0.269-0.561-0.429-0.916-0.453c-0.032-0.002-0.062-0.003-0.093-0.003c-0.698,0-1.281,0.548-1.327,1.247
		c-0.004,0.059-0.004,0.117,0,0.176c0.001,0.03,0.001,0.057-0.002,0.084c-0.066,0.674,0.161,1.348,0.621,1.848
		c0.266,0.293,0.321,0.925,0.22,1.343c-0.115,0.477-0.404,0.65-0.565,0.711l-0.361,0.133c-0.975,0.359-2.08,0.765-2.243,1.093
		c-0.208,0.431-0.323,0.897-0.339,1.381c-0.001,0.043-0.012,0.076-0.017,0.093c-0.002,0.014-0.008,0.047-0.023,0.083
		c-0.017,0.039-0.038,0.068-0.05,0.086c-0.011,0.018-0.028,0.045-0.056,0.073c-0.028,0.029-0.058,0.048-0.076,0.059
		c-0.018,0.013-0.043,0.032-0.078,0.047c-0.042,0.019-0.082,0.025-0.106,0.029c-0.004,0.002-0.035,0.011-0.076,0.013
		c-0.002,0-0.014,0-0.018,0C16.493,24,16.477,24,16.471,23.999z"/>
</g>
</svg>
