<?xml version="1.0" encoding="utf-8"?>
<!-- Generator: Adobe Illustrator 22.1.0, SVG Export Plug-In . SVG Version: 6.00 Build 0)  -->
<svg version="1.1" id="Layer_1" xmlns="http://www.w3.org/2000/svg" xmlns:xlink="http://www.w3.org/1999/xlink" x="0px" y="0px"
	 viewBox="0 0 24 24" style="enable-background:new 0 0 24 24;" xml:space="preserve">
<g>
	<title>people-man-beard-1</title>
	<path d="M9,9.5c-0.095,0-0.188-0.027-0.269-0.079C8.618,9.35,8.541,9.238,8.512,9.108c-0.029-0.13-0.005-0.264,0.067-0.377
		c0.293-0.46,0.793-0.734,1.337-0.734c0.028,0,0.057,0.001,0.085,0.002c0.027-0.001,0.054-0.002,0.081-0.002
		c0.546,0,1.047,0.274,1.34,0.734c0.072,0.113,0.096,0.246,0.067,0.377c-0.029,0.13-0.107,0.242-0.219,0.314
		C11.189,9.473,11.096,9.5,11,9.5c-0.172,0-0.33-0.086-0.422-0.231c-0.107-0.168-0.298-0.272-0.498-0.272
		C10.066,8.997,10.006,9,10,9C9.987,9,9.933,8.997,9.919,8.997c-0.203,0-0.389,0.102-0.497,0.272C9.329,9.414,9.172,9.5,9,9.5L9,9.5
		z"/>
	<path d="M15,9.5c-0.172,0-0.33-0.086-0.422-0.231c-0.109-0.17-0.293-0.272-0.494-0.272C14.069,8.997,14.007,9,14,9
		c-0.013,0-0.067-0.003-0.081-0.003c-0.203,0-0.389,0.102-0.497,0.272C13.329,9.414,13.172,9.5,13,9.5
		c-0.095,0-0.188-0.027-0.269-0.078c-0.232-0.148-0.301-0.458-0.153-0.69c0.293-0.46,0.794-0.734,1.34-0.734
		c0.027,0,0.055,0.001,0.082,0.002c0.027-0.001,0.054-0.002,0.082-0.002c0.546,0,1.047,0.274,1.34,0.734
		c0.148,0.233,0.08,0.542-0.153,0.69C15.188,9.473,15.095,9.5,15,9.5z"/>
	<path d="M12,18.5c-2.015,0-3.515-0.592-4.46-1.76c-1.374-1.698-1.083-4.011-0.984-4.588c-0.042-0.138-0.137-0.249-0.267-0.308
		c-0.863-0.392-1.273-1.42-1.288-2.209C4.99,9.075,5.162,8.591,5.478,8.281C5.221,6.585,5.125,4.48,6.448,2.919
		C7.527,1.646,9.395,1,12,1c1.5,0,1.5-0.116,1.5-0.5c0-0.165,0.081-0.319,0.217-0.412C13.8,0.031,13.898,0,14,0
		c0.061,0,0.121,0.011,0.178,0.033c2.125,0.814,3.198,2.553,3.725,3.869c0.55,1.375,0.777,2.999,0.614,4.374
		C18.836,8.586,19.01,9.072,19,9.635c-0.015,0.789-0.425,1.817-1.289,2.209c-0.13,0.059-0.225,0.17-0.267,0.308
		c0.1,0.577,0.39,2.89-0.984,4.588C15.515,17.908,14.015,18.5,12,18.5z M7.473,13.035c-0.031,0.792,0.059,2.107,0.846,3.078
		C9.065,17.033,10.303,17.5,12,17.5c1.698,0,2.937-0.467,3.683-1.389c0.788-0.974,0.878-2.286,0.845-3.076
		c-0.457,0.252-0.96,0.41-1.478,0.463C15.031,13.499,15.016,13.5,15,13.5c-0.63,0-1.004-0.397-1.305-0.716
		C13.332,12.399,12.956,12,12,12c-0.956,0-1.332,0.398-1.695,0.784C10.004,13.103,9.63,13.5,9,13.5
		c-0.016,0-0.031-0.001-0.047-0.002C8.433,13.445,7.929,13.286,7.473,13.035z M7.513,11.856c0.428,0.354,0.961,0.581,1.509,0.643
		c0.161-0.008,0.273-0.101,0.556-0.401C9.99,11.661,10.613,11,12,11c1.387,0,2.01,0.661,2.422,1.098
		c0.283,0.301,0.396,0.394,0.556,0.402c0.548-0.062,1.081-0.289,1.509-0.643c0.126-0.411,0.417-0.744,0.809-0.922
		c0.444-0.202,0.694-0.83,0.703-1.318C18.005,9.34,17.939,9.112,17.825,9h-0.484c-0.679,0-1.285-0.473-1.453-1.128L15.289,6.69
		c-1.014,0.517-2.144,0.797-3.283,0.81c-1.152-0.014-2.287-0.295-3.303-0.815L8.072,7.877C7.902,8.53,7.297,9,6.62,9H6.175
		c-0.114,0.112-0.18,0.34-0.174,0.616c0.009,0.489,0.259,1.117,0.702,1.318C7.095,11.112,7.386,11.446,7.513,11.856z M15.5,5.5
		c0.047,0,0.093,0.007,0.138,0.02c0.134,0.038,0.246,0.131,0.308,0.255l0.861,1.699c0.02,0.039,0.035,0.082,0.044,0.127
		C16.898,7.832,17.104,8,17.341,8h0.199c0.189-2.135-0.654-5.452-3.178-6.788C13.997,2,12.984,2,12.001,2
		c-2.298,0-3.909,0.527-4.79,1.565C6.173,4.79,6.239,6.549,6.448,8h0.171C6.857,8,7.063,7.832,7.11,7.6
		c0.01-0.047,0.026-0.092,0.048-0.134l0.9-1.7c0.064-0.121,0.177-0.212,0.309-0.248C8.409,5.506,8.454,5.5,8.5,5.5
		c0.091,0,0.18,0.025,0.259,0.072c0.98,0.594,2.103,0.914,3.247,0.928c1.135-0.014,2.256-0.335,3.235-0.928
		C15.319,5.525,15.409,5.5,15.5,5.5z"/>
	<path d="M11.805,15.501c-0.604,0-1.186-0.223-1.638-0.628c-0.205-0.184-0.223-0.5-0.039-0.706C10.222,14.061,10.358,14,10.5,14
		c0.123,0,0.241,0.045,0.333,0.127c0.27,0.241,0.609,0.374,0.957,0.374l0.053-0.001h0.333c0.37,0,0.722-0.132,0.991-0.373
		C13.259,14.045,13.377,14,13.5,14c0.142,0,0.278,0.061,0.373,0.167c0.184,0.205,0.166,0.522-0.039,0.706
		c-0.453,0.405-1.033,0.628-1.634,0.628C12.199,15.501,11.805,15.501,11.805,15.501z"/>
	<path d="M23.5,24c-0.276,0-0.5-0.224-0.5-0.5c-0.001-1.452-0.915-2.769-2.275-3.277l-3.064-1.029
		c-1.13,2.075-3.303,3.365-5.673,3.365c-1.066,0-2.127-0.27-3.068-0.781c-1.095-0.595-1.988-1.489-2.583-2.583l-3.077,1.035
		C1.912,20.732,1.001,22.048,1,23.5C1,23.776,0.776,24,0.5,24c-0.134,0-0.259-0.052-0.354-0.147C0.052,23.759,0,23.633,0,23.5
		c0.001-1.866,1.176-3.56,2.925-4.213l3.092-1.041c0.104-0.035,0.212-0.052,0.321-0.052c0.367,0,0.703,0.201,0.878,0.523
		c0.503,0.924,1.257,1.679,2.182,2.181c0.795,0.432,1.691,0.661,2.591,0.66c2.002,0,3.839-1.089,4.792-2.842
		c0.176-0.323,0.512-0.523,0.878-0.523c0.109,0,0.218,0.018,0.322,0.053l3.079,1.034c1.761,0.658,2.94,2.352,2.941,4.219
		C24,23.776,23.776,24,23.5,24z"/>
</g>
</svg>
