<?xml version="1.0" encoding="utf-8"?>
<!-- Generator: Adobe Illustrator 22.1.0, SVG Export Plug-In . SVG Version: 6.00 Build 0)  -->
<svg version="1.1" id="Layer_1" xmlns="http://www.w3.org/2000/svg" xmlns:xlink="http://www.w3.org/1999/xlink" x="0px" y="0px"
	 viewBox="0 0 24 24" style="enable-background:new 0 0 24 24;" xml:space="preserve">
<g>
	<title>people-man-beanie</title>
	<path d="M11.805,15.001c-0.604,0-1.186-0.223-1.638-0.628c-0.205-0.184-0.223-0.5-0.039-0.706c0.095-0.106,0.231-0.167,0.373-0.167
		c0.123,0,0.242,0.045,0.333,0.128c0.269,0.24,0.612,0.373,0.965,0.373l0.383,0c0.366,0,0.716-0.133,0.985-0.373
		c0.092-0.082,0.21-0.127,0.333-0.127c0.142,0,0.278,0.061,0.373,0.167c0.184,0.205,0.166,0.522-0.039,0.706
		c-0.453,0.405-1.034,0.628-1.635,0.628L11.805,15.001z"/>
	<path d="M9,11c-0.095,0-0.188-0.027-0.269-0.078c-0.113-0.072-0.191-0.183-0.219-0.314c-0.029-0.13-0.005-0.264,0.067-0.377
		c0.293-0.46,0.794-0.734,1.339-0.734c0.027,0,0.055,0.001,0.083,0.002c0.028-0.001,0.055-0.002,0.083-0.002
		c0.545,0,1.045,0.274,1.338,0.734c0.072,0.113,0.096,0.246,0.067,0.377c-0.029,0.13-0.107,0.242-0.219,0.314
		C11.189,10.973,11.096,11,11,11c-0.172,0-0.33-0.086-0.422-0.231c-0.107-0.168-0.297-0.272-0.497-0.272
		c-0.015,0-0.075,0.003-0.082,0.003c-0.013,0-0.068-0.003-0.083-0.003c-0.201,0-0.386,0.102-0.495,0.272C9.329,10.914,9.172,11,9,11
		z"/>
	<path d="M15,11c-0.172,0-0.33-0.086-0.422-0.231c-0.109-0.17-0.294-0.272-0.496-0.272c-0.015,0-0.076,0.003-0.083,0.003
		c-0.013,0-0.065-0.003-0.079-0.003c-0.204,0-0.391,0.102-0.499,0.272C13.329,10.914,13.172,11,13,11l0,0
		c-0.095,0-0.188-0.027-0.269-0.079c-0.113-0.072-0.19-0.183-0.219-0.314c-0.029-0.13-0.005-0.264,0.067-0.377
		c0.293-0.46,0.794-0.734,1.341-0.734c0.027,0,0.054,0.001,0.081,0.002c0.027-0.001,0.053-0.002,0.08-0.002
		c0.547,0,1.049,0.274,1.342,0.734c0.072,0.113,0.095,0.246,0.067,0.377c-0.029,0.131-0.107,0.242-0.219,0.314
		C15.188,10.973,15.095,11,15,11z"/>
	<path d="M23.5,24c-0.276,0-0.5-0.224-0.5-0.5c-0.001-1.452-0.915-2.769-2.275-3.277l-3.083-1.034
		c-0.055,0.093-0.115,0.181-0.179,0.262c-1.197,1.506-3.037,2.443-4.963,2.54V23.5c0,0.276-0.224,0.5-0.5,0.5
		c-0.276,0-0.5-0.224-0.5-0.5v-1.506c-0.506-0.024-1.008-0.105-1.5-0.244v1.75c0,0.276-0.224,0.5-0.5,0.5S9,23.776,9,23.5v-2.119
		c-0.35-0.161-0.685-0.351-1-0.566V23.5C8,23.776,7.776,24,7.5,24S7,23.776,7,23.5v-3.523c-0.165-0.167-0.319-0.342-0.461-0.52
		c-0.066-0.084-0.127-0.174-0.183-0.269l-3.096,1.04C1.912,20.732,1.001,22.048,1,23.5C1,23.776,0.776,24,0.5,24
		c-0.134,0-0.259-0.052-0.354-0.147C0.052,23.759,0,23.633,0,23.5c0.001-1.866,1.176-3.56,2.925-4.213l3.099-1.042
		C6.008,18.128,6,18.013,6,17.899V17.5c-0.003-0.783,0.584-1.427,1.365-1.498c0.031-0.002,0.06-0.004,0.089-0.004
		c0.074,0,0.148,0.008,0.219,0.024l0.501,0.111c-0.776-0.797-1.342-1.79-1.624-2.872c-0.036-0.206-0.14-0.346-0.296-0.417
		c-0.866-0.393-1.277-1.422-1.292-2.212c-0.011-0.56,0.162-1.044,0.479-1.353C5.426,9.187,5.415,9.094,5.403,9H5
		C4.449,9,4,8.551,4,8V7c0-0.551,0.449-1,1-1h0.651C6.106,3.057,7.074,0,12,0s5.895,3.057,6.348,6H19c0.552,0,1,0.449,1,1v1
		c0,0.551-0.448,1-1,1h-0.444c-0.011,0.091-0.024,0.184-0.038,0.28c0.316,0.31,0.49,0.794,0.479,1.353
		c-0.015,0.789-0.426,1.818-1.292,2.211c-0.153,0.069-0.26,0.209-0.287,0.374c-0.292,1.117-0.865,2.125-1.648,2.929l0.56-0.125
		c0.069-0.016,0.142-0.024,0.215-0.024c0.03,0,0.06,0.001,0.09,0.004c0.782,0.071,1.369,0.716,1.366,1.5V17.9
		c0,0.114-0.008,0.23-0.025,0.346l3.084,1.035c1.761,0.658,2.94,2.352,2.941,4.219C24,23.776,23.776,24,23.5,24z M7.454,16.998
		c-0.259,0.023-0.455,0.238-0.454,0.5V17.9c-0.001,0.339,0.114,0.671,0.323,0.937c0.614,0.771,1.429,1.376,2.355,1.749
		c0.01,0.003,0.024,0.01,0.039,0.017c0.665,0.263,1.378,0.4,2.105,0.4c0.054,0,0.109-0.001,0.163-0.002
		c0.069,0.002,0.123,0.002,0.177,0.002c1.747,0,3.435-0.812,4.516-2.171c0.094-0.12,0.171-0.259,0.227-0.412
		c0.003-0.01,0.007-0.019,0.011-0.028C16.971,18.236,17,18.068,17,17.9v-0.4c0.001-0.263-0.194-0.479-0.455-0.502l-3.257,0.724
		c-0.039,0.013-0.067,0.016-0.081,0.018l-0.99,0.22c-0.069,0.016-0.142,0.024-0.216,0.024c-0.074,0-0.147-0.008-0.219-0.024
		c0,0-1.095-0.243-1.095-0.243c-0.009,0-0.04-0.004-0.077-0.017L7.454,16.998l0.001-0.25L7.454,16.998z M12,16.984l1.006-0.224
		c1.694-0.609,2.977-2.011,3.434-3.752c0.073-0.45,0.401-0.871,0.851-1.075c0.445-0.202,0.696-0.831,0.705-1.319
		c0.006-0.328-0.09-0.59-0.244-0.667c-0.197-0.099-0.306-0.311-0.269-0.529C17.507,9.28,17.527,9.143,17.547,9H6.41
		c0.02,0.151,0.041,0.289,0.062,0.417C6.51,9.635,6.402,9.848,6.204,9.947c-0.154,0.077-0.249,0.339-0.243,0.667
		c0.009,0.489,0.259,1.118,0.705,1.32c0.456,0.206,0.778,0.625,0.861,1.119c0.442,1.685,1.703,3.07,3.37,3.686L12,16.984z M5,8h14V7
		H5h0L5,8z M17.334,6C16.807,2.828,15.715,1,12,1S7.193,2.828,6.666,6H17.334z"/>
</g>
</svg>
