<?xml version="1.0" encoding="utf-8"?>
<!-- Generator: Adobe Illustrator 22.1.0, SVG Export Plug-In . SVG Version: 6.00 Build 0)  -->
<svg version="1.1" id="Layer_1" xmlns="http://www.w3.org/2000/svg" xmlns:xlink="http://www.w3.org/1999/xlink" x="0px" y="0px"
	 viewBox="0 0 24 24" style="enable-background:new 0 0 24 24;" xml:space="preserve">
<g>
	<title>people-man-12</title>
	<path d="M12,15.163c-0.397,0-0.788-0.064-1.16-0.19c-0.261-0.088-0.402-0.373-0.313-0.634C10.595,14.137,10.785,14,11,14
		c0.054,0,0.108,0.009,0.16,0.026c0.27,0.091,0.552,0.138,0.84,0.138c0.288,0,0.57-0.046,0.84-0.137C12.892,14.009,12.946,14,13,14
		c0.215,0,0.405,0.137,0.474,0.341c0.042,0.126,0.033,0.262-0.026,0.381c-0.059,0.12-0.162,0.209-0.288,0.252
		C12.788,15.1,12.397,15.163,12,15.163z"/>
	<path d="M9,10.5c-0.095,0-0.188-0.027-0.269-0.079c-0.113-0.072-0.19-0.183-0.219-0.314c-0.029-0.13-0.005-0.264,0.067-0.377
		c0.293-0.46,0.794-0.734,1.339-0.734c0.027,0,0.055,0.001,0.082,0.002c0.028-0.001,0.056-0.002,0.084-0.002
		c0.544,0,1.045,0.274,1.338,0.734c0.072,0.113,0.096,0.246,0.067,0.377c-0.029,0.13-0.107,0.242-0.219,0.314
		C11.189,10.473,11.096,10.5,11,10.5c-0.172,0-0.33-0.086-0.422-0.231c-0.107-0.168-0.298-0.272-0.498-0.272
		C10.066,9.997,10.006,10,10,10c-0.013,0-0.066-0.003-0.081-0.003c-0.203,0-0.389,0.102-0.498,0.272C9.329,10.414,9.172,10.5,9,10.5
		z"/>
	<path d="M15,10.5c-0.172,0-0.33-0.086-0.422-0.231c-0.109-0.17-0.293-0.272-0.494-0.272C14.069,9.997,14.007,10,14,10
		c-0.013,0-0.066-0.003-0.081-0.003c-0.203,0-0.389,0.102-0.498,0.272C13.329,10.414,13.171,10.5,13,10.5l0,0
		c-0.095,0-0.188-0.027-0.269-0.078c-0.232-0.148-0.301-0.458-0.153-0.69c0.293-0.46,0.793-0.734,1.337-0.734
		c0.028,0,0.056,0.001,0.084,0.002c0.028-0.001,0.056-0.002,0.084-0.002c0.544,0,1.044,0.274,1.337,0.734
		c0.148,0.233,0.08,0.542-0.153,0.69C15.188,10.473,15.095,10.5,15,10.5z"/>
	<path d="M23.5,24c-0.276,0-0.5-0.224-0.5-0.5c-0.001-1.451-0.915-2.768-2.275-3.277l-3.197-1.074l-4.856,4.415
		c-0.186,0.168-0.424,0.26-0.672,0.26c-0.248,0-0.487-0.092-0.672-0.26l-4.856-4.415l-3.213,1.08C1.912,20.733,1.001,22.049,1,23.5
		C1,23.776,0.776,24,0.5,24c-0.134,0-0.259-0.052-0.354-0.147C0.052,23.759,0,23.633,0,23.5c0.001-1.413,0.674-2.747,1.808-3.598
		l-0.246-2.699c-0.015-0.209,0.05-0.404,0.182-0.555c0.132-0.151,0.314-0.242,0.514-0.256c0.017-0.001,0.034-0.001,0.05-0.001
		c0.191,0,0.373,0.071,0.513,0.201l2.142,2.011l3.378-1.136C8.393,17.449,8.446,17.44,8.5,17.44c0.215,0,0.406,0.137,0.474,0.341
		c0.088,0.261-0.053,0.545-0.314,0.633l-1.102,0.371L12,22.824l4.443-4.04l-1.102-0.37c-0.261-0.088-0.403-0.372-0.315-0.633
		c0.069-0.204,0.259-0.341,0.475-0.341c0.054,0,0.107,0.009,0.158,0.025l3.38,1.136l2.14-2.009c0.141-0.131,0.322-0.203,0.512-0.203
		c0.017,0,0.034,0.001,0.051,0.002c0.201,0.014,0.383,0.105,0.515,0.256c0.131,0.151,0.196,0.344,0.183,0.544l-0.247,2.712
		C23.326,20.755,24,22.089,24,23.5C24,23.776,23.776,24,23.5,24z M21.059,19.281c0.059,0.022,0.118,0.046,0.178,0.072l0.145-1.584
		l-1.269,1.195L21.059,19.281z M2.762,19.352c0.055-0.023,0.109-0.045,0.163-0.065l0.961-0.323l-1.269-1.191L2.762,19.352z"/>
	<path d="M11.98,18c-1.593,0-4.951-1.863-5.44-4.782c-0.027-0.165-0.135-0.304-0.287-0.373c-0.797-0.361-1.209-1.262-1.281-2.019
		c-1.135-0.271-2.888-0.805-3.864-1.109c-0.189-0.058-0.346-0.188-0.44-0.365C0.574,9.174,0.555,8.971,0.613,8.78
		C0.687,8.542,0.873,8.356,1.11,8.283c1.397-0.466,2.855-0.866,4.331-1.188c0.094-0.675,0.276-1.302,0.542-1.87L4.441,1.632
		c-0.079-0.181-0.083-0.385-0.01-0.571C4.504,0.874,4.646,0.728,4.83,0.648c0.096-0.042,0.197-0.063,0.3-0.063
		c0.173,0,0.341,0.061,0.476,0.171l2.587,2.106c0.641-0.356,1.383-0.604,2.209-0.738c0.339-0.609,0.712-1.194,0.972-1.588
		c0.14-0.211,0.375-0.337,0.627-0.337c0.148,0,0.292,0.043,0.415,0.126c0.083,0.055,0.153,0.125,0.209,0.209
		c0.261,0.396,0.635,0.985,0.976,1.597c0.819,0.137,1.555,0.387,2.19,0.745l2.604-2.121c0.133-0.109,0.302-0.169,0.474-0.169
		c0.104,0,0.205,0.021,0.3,0.063c0.183,0.08,0.325,0.226,0.398,0.413c0.073,0.186,0.07,0.39-0.01,0.574L17.997,5.27
		c0.254,0.555,0.429,1.164,0.52,1.817c1.49,0.319,2.964,0.723,4.385,1.2c0.227,0.069,0.411,0.254,0.484,0.492
		c0.059,0.192,0.04,0.395-0.054,0.572c-0.094,0.177-0.251,0.307-0.443,0.365c-0.993,0.309-2.772,0.851-3.902,1.118
		c-0.074,0.754-0.486,1.649-1.279,2.009c-0.153,0.069-0.26,0.209-0.288,0.373C16.927,16.138,13.57,18,11.98,18z M6.393,7.578
		c-0.051,0.597-0.024,1.216,0.08,1.84c0.036,0.218-0.072,0.43-0.27,0.529c-0.154,0.077-0.249,0.339-0.243,0.666
		c0.009,0.489,0.259,1.118,0.705,1.32c0.456,0.206,0.778,0.625,0.861,1.119C7.931,15.468,10.854,17,11.98,17
		c1.124,0,4.045-1.532,4.454-3.948c0.083-0.493,0.405-0.911,0.861-1.118c0.445-0.202,0.696-0.831,0.705-1.319
		c0.006-0.328-0.09-0.59-0.244-0.667c-0.197-0.099-0.306-0.311-0.269-0.529c0.29-1.738-0.021-3.38-0.85-4.506
		c-0.575-0.781-1.402-1.328-2.461-1.63C14.394,3.793,14.5,4.194,14.5,4.5C14.5,5.879,13.378,7,12,7c-1.379,0-2.5-1.121-2.5-2.5
		c0-0.309,0.108-0.715,0.329-1.231C8.753,3.568,7.914,4.116,7.331,4.902C6.809,5.606,6.485,6.526,6.394,7.563
		C6.394,7.566,6.394,7.572,6.393,7.578L6.393,7.578z M18.518,9.278c0.151,0.148,0.271,0.336,0.353,0.557
		c0.849-0.206,2.037-0.556,2.969-0.84c-1.057-0.331-2.146-0.621-3.25-0.867C18.593,8.509,18.569,8.894,18.518,9.278z M2.165,8.994
		c0.826,0.253,2.04,0.615,2.928,0.832c0.082-0.217,0.2-0.403,0.349-0.548c-0.05-0.38-0.074-0.762-0.072-1.141
		C4.281,8.382,3.207,8.669,2.165,8.994z M12,1.407c-1.102,1.719-1.5,2.736-1.5,3.093C10.5,5.327,11.173,6,12,6s1.5-0.673,1.5-1.5
		C13.5,4.145,13.102,3.128,12,1.407z M16.646,3.47c0.269,0.229,0.509,0.478,0.717,0.744l0.877-2.041L16.646,3.47z M6.623,4.181
		C6.831,3.92,7.069,3.677,7.335,3.453L5.761,2.172L6.623,4.181z"/>
</g>
</svg>
