<?xml version="1.0" encoding="utf-8"?>
<!-- Generator: Adobe Illustrator 22.1.0, SVG Export Plug-In . SVG Version: 6.00 Build 0)  -->
<svg version="1.1" id="Layer_1" xmlns="http://www.w3.org/2000/svg" xmlns:xlink="http://www.w3.org/1999/xlink" x="0px" y="0px"
	 viewBox="0 0 24 24" style="enable-background:new 0 0 24 24;" xml:space="preserve">
<g>
	<title>people-man-beard-2</title>
	<path d="M23.5,24c-0.276,0-0.5-0.224-0.5-0.5v-1c-0.001-1.452-0.915-2.769-2.275-3.277L17,17.973v2.333
		c0,0.552-0.448,1-0.999,1.001c-0.109,0-0.216-0.017-0.318-0.052L12.5,20.194V23.5c0,0.276-0.224,0.5-0.5,0.5
		c-0.276,0-0.5-0.224-0.5-0.5v-3.306l-3.184,1.062c-0.102,0.034-0.208,0.052-0.317,0.052c-0.268,0-0.519-0.105-0.708-0.294
		C7.103,20.824,7,20.573,7,20.305v-2.333L3.255,19.23C1.91,19.734,1.001,21.05,1,22.5v1C1,23.776,0.776,24,0.5,24S0,23.776,0,23.5
		v-1c0.001-1.865,1.174-3.558,2.92-4.212l4.617-1.551c-1.371-1.697-1.081-4.008-0.981-4.585c-0.042-0.138-0.137-0.249-0.267-0.308
		c-0.863-0.392-1.273-1.42-1.288-2.209C4.99,9.075,5.162,8.59,5.478,8.28C5.073,5.531,5.477,3.417,6.682,1.996
		C7.804,0.672,9.594,0,12,0c2.408,0,4.199,0.673,5.322,2c1.205,1.423,1.608,3.536,1.2,6.281C18.838,8.591,19.01,9.075,19,9.635
		c-0.015,0.789-0.425,1.817-1.289,2.209c-0.13,0.059-0.225,0.17-0.267,0.308c0.1,0.577,0.389,2.887-0.981,4.585l4.597,1.543
		c1.761,0.658,2.94,2.352,2.941,4.219v1C24,23.776,23.776,24,23.5,24z M16,20.307l0-2.67l-0.37-0.124
		c-0.808,0.576-1.859,0.901-3.13,0.968v0.659L16,20.307z M8,20.306l3.5-1.166v-0.659c-1.271-0.067-2.322-0.392-3.13-0.969L8,17.637
		V20.306z M7.473,13.035c-0.031,0.792,0.059,2.107,0.846,3.078C9.065,17.033,10.303,17.5,12,17.5c1.698,0,2.937-0.467,3.683-1.389
		c0.788-0.974,0.878-2.286,0.845-3.076c-0.457,0.252-0.96,0.41-1.478,0.463C15.031,13.499,15.016,13.5,15,13.5
		c-0.63,0-1.004-0.397-1.305-0.716C13.332,12.399,12.956,12,12,12c-0.956,0-1.332,0.398-1.695,0.784C10.004,13.103,9.63,13.5,9,13.5
		c-0.016,0-0.031-0.001-0.047-0.002C8.433,13.445,7.929,13.286,7.473,13.035z M7.513,11.856c0.428,0.354,0.961,0.581,1.509,0.643
		c0.161-0.008,0.273-0.101,0.556-0.401C9.99,11.661,10.613,11,12,11c1.387,0,2.01,0.661,2.422,1.098
		c0.283,0.301,0.396,0.394,0.556,0.402c0.548-0.062,1.081-0.289,1.509-0.643c0.126-0.411,0.417-0.744,0.809-0.922
		c0.444-0.202,0.694-0.83,0.703-1.318c0.006-0.329-0.089-0.591-0.243-0.669c-0.197-0.099-0.305-0.312-0.269-0.529
		c0.434-2.59,0.121-4.531-0.929-5.772C15.635,1.554,14.101,1,12,1C9.901,1,8.368,1.553,7.444,2.643
		C6.395,3.881,6.081,5.824,6.512,8.418c0.036,0.218-0.072,0.43-0.269,0.529c-0.154,0.077-0.249,0.34-0.243,0.669
		c0.009,0.489,0.259,1.117,0.702,1.318C7.095,11.112,7.386,11.446,7.513,11.856z"/>
	<path d="M7.6,8.2c-0.032,0-0.064-0.003-0.097-0.009C7.232,8.137,7.056,7.873,7.109,7.603l0.338-1.7C7.494,5.669,7.7,5.5,7.938,5.5
		c1.812,0,2.671-0.422,3.073-0.777c0.411-0.363,0.427-0.717,0.427-0.732c0.006-0.271,0.231-0.491,0.5-0.491h0.083
		c0.276,0,0.5,0.224,0.5,0.5c0,0.008,0.017,0.362,0.427,0.723C13.349,5.078,14.208,5.5,16.021,5.5c0.237,0,0.444,0.169,0.49,0.402
		l0.34,1.7c0.054,0.27-0.122,0.534-0.392,0.588c-0.034,0.007-0.066,0.01-0.098,0.01c-0.237,0-0.443-0.169-0.49-0.402L15.61,6.493
		c-2.098-0.074-3.127-0.71-3.63-1.341c-0.503,0.632-1.531,1.268-3.63,1.341L8.09,7.797C8.044,8.031,7.838,8.2,7.6,8.2z"/>
	<path d="M9,9.5c-0.095,0-0.188-0.027-0.269-0.079C8.618,9.35,8.541,9.238,8.512,9.108c-0.029-0.13-0.005-0.264,0.067-0.377
		c0.293-0.46,0.793-0.734,1.337-0.734c0.028,0,0.057,0.001,0.085,0.002c0.027-0.001,0.054-0.002,0.081-0.002
		c0.546,0,1.047,0.274,1.34,0.734c0.072,0.113,0.096,0.246,0.067,0.377c-0.029,0.13-0.107,0.242-0.219,0.314
		C11.189,9.473,11.096,9.5,11,9.5c-0.172,0-0.33-0.086-0.422-0.231c-0.107-0.168-0.298-0.272-0.498-0.272
		C10.066,8.997,10.006,9,10,9C9.987,9,9.933,8.997,9.919,8.997c-0.203,0-0.389,0.102-0.497,0.272C9.329,9.414,9.172,9.5,9,9.5z"/>
	<path d="M15,9.5c-0.172,0-0.33-0.086-0.422-0.231c-0.109-0.17-0.293-0.272-0.494-0.272C14.069,8.997,14.007,9,14,9
		c-0.013,0-0.067-0.003-0.081-0.003c-0.203,0-0.389,0.102-0.497,0.272C13.329,9.414,13.172,9.5,13,9.5
		c-0.095,0-0.188-0.027-0.269-0.078c-0.232-0.148-0.301-0.458-0.153-0.69c0.293-0.46,0.794-0.734,1.34-0.734
		c0.027,0,0.055,0.001,0.082,0.002c0.027-0.001,0.054-0.002,0.082-0.002c0.546,0,1.047,0.274,1.34,0.734
		c0.148,0.233,0.08,0.542-0.153,0.69C15.188,9.473,15.095,9.5,15,9.5z"/>
	<path d="M11.805,15.501c-0.604,0-1.186-0.223-1.638-0.628c-0.205-0.184-0.223-0.5-0.039-0.706C10.222,14.061,10.358,14,10.5,14
		c0.123,0,0.241,0.045,0.333,0.127c0.27,0.241,0.609,0.374,0.957,0.374l0.053-0.001h0.333c0.37,0,0.722-0.132,0.991-0.373
		C13.259,14.045,13.377,14,13.5,14c0.142,0,0.278,0.061,0.373,0.167c0.184,0.205,0.166,0.522-0.039,0.706
		c-0.453,0.405-1.033,0.628-1.634,0.628L11.805,15.501z"/>
</g>
</svg>
