<?xml version="1.0" encoding="utf-8"?>
<!-- Generator: Adobe Illustrator 22.1.0, SVG Export Plug-In . SVG Version: 6.00 Build 0)  -->
<svg version="1.1" id="Layer_1" xmlns="http://www.w3.org/2000/svg" xmlns:xlink="http://www.w3.org/1999/xlink" x="0px" y="0px"
	 viewBox="0 0 24 24" style="enable-background:new 0 0 24 24;" xml:space="preserve">
<g>
	<title>people-man-glasses-1</title>
	<path d="M11.805,14.001c-0.604,0-1.186-0.223-1.638-0.628c-0.205-0.184-0.223-0.5-0.039-0.706c0.095-0.106,0.231-0.167,0.373-0.167
		c0.123,0,0.241,0.045,0.333,0.127c0.27,0.241,0.609,0.374,0.956,0.374L11.843,13l0.337,0c0.367,0,0.718-0.133,0.987-0.373
		c0.092-0.082,0.21-0.127,0.333-0.127c0.142,0,0.278,0.061,0.373,0.167c0.183,0.205,0.166,0.522-0.04,0.706
		c-0.453,0.405-1.034,0.628-1.635,0.628L11.805,14.001z"/>
	<path d="M12,17c-1.588,0-4.937-1.863-5.425-4.782c-0.027-0.165-0.134-0.304-0.286-0.373c-0.863-0.392-1.272-1.42-1.288-2.209
		C4.99,9.075,5.162,8.59,5.478,8.28c-0.091-0.618-0.142-1.215-0.15-1.776C5.299,4.607,5.754,3.091,6.682,1.996
		C7.804,0.672,9.594,0,12,0c2.408,0,4.199,0.673,5.322,2c1.205,1.423,1.608,3.536,1.2,6.281C18.838,8.591,19.01,9.075,19,9.635
		c-0.015,0.789-0.425,1.817-1.289,2.209c-0.152,0.069-0.259,0.208-0.286,0.373C16.937,15.137,13.588,17,12,17z M6.349,7
		c0.028,0.456,0.083,0.931,0.164,1.418c0.036,0.217-0.072,0.43-0.269,0.529c-0.154,0.077-0.249,0.34-0.243,0.669
		c0.009,0.489,0.259,1.117,0.702,1.318c0.456,0.208,0.776,0.626,0.858,1.119C7.965,14.468,10.878,16,12,16
		c1.122,0,4.035-1.532,4.439-3.948c0.082-0.493,0.403-0.911,0.858-1.118c0.444-0.202,0.694-0.83,0.703-1.318
		c0.006-0.329-0.089-0.591-0.243-0.669c-0.197-0.099-0.305-0.312-0.269-0.529C17.569,7.931,17.625,7.456,17.653,7H6.349z M17.669,6
		c-0.049-1.413-0.422-2.541-1.111-3.354C15.635,1.554,14.101,1,12,1C9.901,1,8.368,1.553,7.444,2.643
		C6.756,3.455,6.382,4.584,6.333,6H8V5c0-0.276,0.224-0.5,0.5-0.5S9,4.724,9,5v1h2.5V5c0-0.276,0.224-0.5,0.5-0.5
		c0.276,0,0.5,0.224,0.5,0.5v1H15V5c0-0.276,0.224-0.5,0.5-0.5S16,4.724,16,5v1H17.669z"/>
	<path d="M14.75,11.75c-1.056,0-1.962-0.738-2.192-1.75h-1.116c-0.23,1.012-1.136,1.75-2.192,1.75C8.009,11.75,7,10.741,7,9.5
		s1.009-2.25,2.25-2.25c1.056,0,1.962,0.738,2.192,1.75h1.116c0.23-1.012,1.136-1.75,2.192-1.75C15.991,7.25,17,8.259,17,9.5
		S15.991,11.75,14.75,11.75z M14.75,8.25c-0.689,0-1.25,0.561-1.25,1.25s0.561,1.25,1.25,1.25S16,10.189,16,9.5
		S15.439,8.25,14.75,8.25z M9.25,8.25C8.561,8.25,8,8.811,8,9.5s0.561,1.25,1.25,1.25s1.25-0.561,1.25-1.25S9.939,8.25,9.25,8.25z"
		/>
	<path d="M23.5,24c-0.276,0-0.5-0.224-0.5-0.5v-1c-0.001-1.452-0.915-2.769-2.275-3.277L17,17.972v2.333
		c0,0.552-0.448,1-0.999,1.001c-0.109,0-0.216-0.017-0.318-0.052L12.5,20.194V23.5c0,0.276-0.224,0.5-0.5,0.5
		c-0.276,0-0.5-0.224-0.5-0.5v-3.306l-3.184,1.062c-0.102,0.034-0.208,0.052-0.317,0.052c-0.268,0-0.519-0.105-0.708-0.294
		C7.103,20.824,7,20.573,7,20.305v-2.333l-3.741,1.257C1.912,19.732,1.001,21.048,1,22.5v1C1,23.776,0.776,24,0.5,24
		S0,23.776,0,23.5v-1c0.001-1.867,1.176-3.56,2.925-4.213l5.36-1.801c0.016-0.005,0.036-0.01,0.055-0.012
		c0.03-0.006,0.06-0.009,0.085-0.01c0.003,0,0.026-0.001,0.029-0.001c0.021,0,0.042,0.001,0.062,0.005
		c0.035,0.005,0.066,0.015,0.094,0.025C8.63,16.5,8.656,16.51,8.684,16.525c0.017,0.008,0.035,0.018,0.048,0.026L12,18.886
		l3.265-2.333c0.014-0.01,0.034-0.021,0.052-0.029c0.021-0.011,0.045-0.021,0.07-0.031c0.034-0.012,0.064-0.021,0.097-0.026
		c0.02-0.003,0.041-0.004,0.061-0.004c0.003,0,0.024,0,0.027,0c0.031,0.001,0.058,0.004,0.085,0.01
		c0.021,0.003,0.043,0.007,0.06,0.013l5.342,1.794c1.761,0.658,2.94,2.352,2.941,4.219v1C24,23.776,23.776,24,23.5,24z M16,20.307
		l0-2.67l-0.361-0.121l-2.549,1.821L16,20.307z M8,20.306l2.91-0.97l-2.549-1.821L8,17.636V20.306z"/>
</g>
</svg>
