<?xml version="1.0" encoding="utf-8"?>
<!-- Generator: Adobe Illustrator 22.1.0, SVG Export Plug-In . SVG Version: 6.00 Build 0)  -->
<svg version="1.1" id="Layer_1" xmlns="http://www.w3.org/2000/svg" xmlns:xlink="http://www.w3.org/1999/xlink" x="0px" y="0px"
	 viewBox="0 0 24 24" style="enable-background:new 0 0 24 24;" xml:space="preserve">
<g>
	<title>people-man-9</title>
	<path d="M23.5,24c-0.276,0-0.5-0.224-0.5-0.5v-1c-0.001-1.452-0.915-2.769-2.275-3.277l-3.138-1.052
		c0.177,0.646,0.382,1.385,0.614,2.208c0.073,0.255,0.042,0.524-0.087,0.758c-0.13,0.234-0.342,0.403-0.599,0.477
		c-0.089,0.026-0.182,0.039-0.276,0.039c-0.133,0-0.262-0.026-0.384-0.077l-3.036-1.254c-0.206,0.454-0.578,0.816-1.036,1.012
		l1.145,1.908c0.142,0.237,0.065,0.544-0.171,0.686C13.68,23.975,13.591,24,13.5,24c-0.175,0-0.339-0.093-0.429-0.243L12,21.972
		l-1.071,1.786C10.839,23.907,10.675,24,10.5,24c-0.09,0-0.179-0.025-0.257-0.071c-0.236-0.142-0.313-0.449-0.171-0.686l1.144-1.907
		c-0.177-0.074-0.34-0.172-0.487-0.292c-0.239-0.197-0.426-0.442-0.552-0.72l-3.034,1.253c-0.121,0.051-0.25,0.076-0.383,0.076
		c-0.094,0-0.187-0.013-0.276-0.039c-0.53-0.153-0.837-0.708-0.684-1.237c0.235-0.836,0.438-1.566,0.613-2.206l-3.154,1.058
		C1.912,19.732,1.001,21.048,1,22.5v1C1,23.776,0.776,24,0.5,24S0,23.776,0,23.5v-1c0.001-1.867,1.176-3.56,2.925-4.213l3.814-1.28
		c0.06-0.139,0.151-0.263,0.267-0.363c0.181-0.155,0.412-0.24,0.65-0.24c0.293,0,0.57,0.127,0.76,0.349
		c0.9,1.043,2.206,1.69,3.584,1.775c1.378-0.085,2.684-0.732,3.585-1.776c0.173-0.202,0.415-0.325,0.681-0.346
		c0.026-0.002,0.052-0.003,0.077-0.003c0.239,0,0.47,0.085,0.651,0.24c0.116,0.099,0.207,0.222,0.267,0.362l3.798,1.275
		c1.761,0.658,2.94,2.352,2.941,4.219v1C24,23.776,23.776,24,23.5,24z M17.239,20.653c-0.364-1.294-0.665-2.385-0.894-3.245
		l-0.001-0.003c-0.004,0.005-0.009,0.01-0.013,0.014c-0.691,0.802-1.607,1.419-2.623,1.775c0.001,0,0.003,0.001,0.003,0.001
		L17.239,20.653z M7.655,17.404c-0.227,0.856-0.52,1.917-0.894,3.247c0,0,3.53-1.456,3.531-1.457
		c-1.016-0.356-1.934-0.976-2.635-1.789L7.655,17.404z M11.106,19.94c0.062,0.128,0.149,0.24,0.259,0.331
		c0.181,0.149,0.401,0.228,0.636,0.228c0.032,0,0.064-0.001,0.097-0.005c0.346-0.033,0.646-0.248,0.797-0.554L12,19.571
		L11.106,19.94z"/>
	<path d="M12.142,16.97c-1.593,0-4.951-1.863-5.44-4.782c-0.028-0.164-0.136-0.304-0.288-0.374
		c-0.865-0.392-1.276-1.421-1.291-2.211c-0.01-0.56,0.162-1.043,0.478-1.353c-0.408-2.742-0.004-4.853,1.2-6.275
		c1.126-1.33,2.923-2.005,5.341-2.005c2.418,0,4.215,0.674,5.341,2.005c1.204,1.422,1.608,3.533,1.2,6.275
		C19,8.56,19.172,9.044,19.161,9.604c-0.015,0.789-0.426,1.817-1.292,2.21c-0.153,0.069-0.26,0.208-0.287,0.373
		C17.089,15.108,13.732,16.97,12.142,16.97z M6.522,7.581c0.03,0.265,0.067,0.535,0.113,0.806c0.036,0.218-0.072,0.431-0.269,0.53
		c-0.154,0.077-0.25,0.339-0.243,0.666c0.009,0.489,0.259,1.118,0.705,1.32c0.455,0.207,0.776,0.625,0.86,1.117
		c0.405,2.417,3.328,3.949,4.454,3.949c1.124,0,4.046-1.532,4.454-3.948c0.083-0.494,0.405-0.912,0.861-1.118
		c0.445-0.202,0.695-0.83,0.705-1.318c0.006-0.328-0.089-0.591-0.243-0.668c-0.197-0.099-0.306-0.312-0.269-0.529
		c0.068-0.404,0.117-0.801,0.148-1.184c-0.71,0.176-1.426,0.266-2.135,0.266c-2.212,0-4.391-0.843-6.029-2.322
		C8.794,6.172,7.726,7.008,6.522,7.581z M12.142,0.97c-2.11,0-3.651,0.555-4.578,1.651C6.792,3.533,6.418,4.836,6.45,6.496
		c1.077-0.581,2.013-1.4,2.722-2.388c0.087-0.121,0.221-0.196,0.369-0.207C9.547,3.901,9.574,3.9,9.58,3.9
		c0.133,0,0.262,0.055,0.356,0.151c1.492,1.537,3.577,2.419,5.718,2.419c0.733-0.001,1.464-0.104,2.18-0.309
		C17.813,4.66,17.438,3.469,16.72,2.62C15.793,1.525,14.252,0.97,12.142,0.97z"/>
	<path d="M11,9.5c-0.172,0-0.33-0.086-0.422-0.231c-0.109-0.17-0.294-0.272-0.497-0.272C10.067,8.997,10.007,9,10.001,9
		c-0.013,0-0.066-0.003-0.08-0.003c-0.204,0-0.391,0.102-0.499,0.272C9.329,9.413,9.172,9.5,9,9.5c-0.095,0-0.188-0.027-0.268-0.078
		C8.619,9.35,8.541,9.238,8.512,9.108c-0.029-0.13-0.005-0.264,0.067-0.377c0.293-0.46,0.795-0.734,1.341-0.734
		c0.027,0,0.053,0.001,0.08,0.002c0.029-0.002,0.058-0.002,0.087-0.002c0.542,0,1.042,0.275,1.335,0.734
		c0.072,0.113,0.096,0.246,0.067,0.377c-0.029,0.13-0.107,0.242-0.219,0.314C11.189,9.473,11.096,9.5,11,9.5z"/>
	<path d="M13,9.5c-0.095,0-0.188-0.027-0.269-0.078c-0.232-0.148-0.301-0.457-0.153-0.69c0.294-0.46,0.794-0.735,1.34-0.735
		c0.027,0,0.055,0.001,0.082,0.002c0.027-0.001,0.054-0.002,0.08-0.002c0.547,0,1.048,0.274,1.341,0.734
		c0.072,0.113,0.095,0.246,0.067,0.377c-0.029,0.131-0.107,0.242-0.219,0.314C15.188,9.473,15.095,9.5,15,9.5l0,0
		c-0.172,0-0.329-0.086-0.422-0.231c-0.108-0.17-0.294-0.272-0.496-0.272C14.067,8.997,14.006,9,14,9
		c-0.012,0-0.068-0.003-0.083-0.003c-0.198,0-0.388,0.104-0.495,0.272C13.329,9.414,13.171,9.5,13,9.5z"/>
	<path d="M11.804,14.001c-0.603,0-1.185-0.223-1.637-0.628c-0.099-0.089-0.158-0.211-0.166-0.345
		c-0.007-0.133,0.038-0.262,0.127-0.361c0.094-0.106,0.23-0.167,0.373-0.167c0.123,0,0.242,0.046,0.334,0.128
		c0.269,0.24,0.611,0.373,0.963,0.373c0,0,0.345-0.001,0.346-0.001c0.4,0,0.755-0.132,1.024-0.373
		c0.091-0.082,0.209-0.127,0.333-0.127c0.143,0,0.279,0.061,0.373,0.168c0.088,0.099,0.133,0.227,0.126,0.361
		c-0.007,0.133-0.066,0.256-0.166,0.345C13.38,13.777,12.789,14,12.168,14L11.804,14.001z"/>
</g>
</svg>
