<?xml version="1.0" encoding="utf-8"?>
<!-- Generator: Adobe Illustrator 22.1.0, SVG Export Plug-In . SVG Version: 6.00 Build 0)  -->
<svg version="1.1" id="Layer_1" xmlns="http://www.w3.org/2000/svg" xmlns:xlink="http://www.w3.org/1999/xlink" x="0px" y="0px"
	 viewBox="0 0 24 24" style="enable-background:new 0 0 24 24;" xml:space="preserve">
<g>
	<title>people-man-8</title>
	<path d="M7.6,8.2c-0.032,0-0.064-0.003-0.097-0.009C7.232,8.137,7.056,7.873,7.109,7.603l0.338-1.7C7.494,5.669,7.7,5.5,7.938,5.5
		c1.812,0,2.671-0.422,3.073-0.777c0.411-0.363,0.427-0.717,0.427-0.732c0.006-0.271,0.231-0.491,0.5-0.491h0.083
		c0.276,0,0.5,0.224,0.5,0.5c0,0.008,0.017,0.362,0.427,0.723C13.349,5.078,14.208,5.5,16.021,5.5c0.237,0,0.444,0.169,0.49,0.402
		l0.34,1.7c0.054,0.27-0.122,0.534-0.392,0.588c-0.034,0.007-0.066,0.01-0.098,0.01c-0.237,0-0.443-0.169-0.49-0.402L15.61,6.493
		c-2.098-0.074-3.127-0.71-3.63-1.341c-0.503,0.632-1.531,1.268-3.63,1.341L8.09,7.797C8.044,8.031,7.838,8.2,7.6,8.2z"/>
	<path d="M11.806,14.001c-0.604,0-1.186-0.223-1.639-0.628c-0.206-0.184-0.224-0.5-0.04-0.706c0.094-0.106,0.23-0.167,0.373-0.167
		c0.123,0,0.241,0.045,0.333,0.127c0.27,0.241,0.613,0.374,0.965,0.374l0.382,0c0.367,0,0.718-0.133,0.987-0.373
		c0.092-0.082,0.21-0.127,0.333-0.127c0.142,0,0.278,0.061,0.373,0.167c0.183,0.205,0.166,0.522-0.04,0.706
		c-0.453,0.405-1.034,0.628-1.635,0.628L11.806,14.001z"/>
	<path d="M9,9.5c-0.095,0-0.188-0.027-0.269-0.079C8.618,9.35,8.541,9.238,8.512,9.108c-0.029-0.13-0.005-0.264,0.067-0.377
		c0.293-0.46,0.793-0.734,1.337-0.734c0.028,0,0.057,0.001,0.085,0.002c0.027-0.001,0.054-0.002,0.081-0.002
		c0.546,0,1.047,0.274,1.34,0.734c0.072,0.113,0.096,0.246,0.067,0.377c-0.029,0.13-0.107,0.242-0.219,0.314
		C11.189,9.473,11.096,9.5,11,9.5c-0.172,0-0.33-0.086-0.422-0.231c-0.107-0.168-0.298-0.272-0.498-0.272
		C10.066,8.997,10.006,9,10,9C9.987,9,9.933,8.997,9.919,8.997c-0.203,0-0.389,0.102-0.497,0.272C9.329,9.414,9.172,9.5,9,9.5z"/>
	<path d="M15,9.5c-0.172,0-0.33-0.086-0.422-0.231c-0.109-0.17-0.293-0.272-0.494-0.272C14.069,8.997,14.007,9,14,9
		c-0.013,0-0.067-0.003-0.081-0.003c-0.203,0-0.389,0.102-0.497,0.272C13.329,9.414,13.172,9.5,13,9.5
		c-0.095,0-0.188-0.027-0.269-0.078c-0.232-0.148-0.301-0.458-0.153-0.69c0.293-0.46,0.794-0.734,1.34-0.734
		c0.027,0,0.055,0.001,0.082,0.002c0.027-0.001,0.054-0.002,0.082-0.002c0.546,0,1.047,0.274,1.34,0.734
		c0.148,0.233,0.08,0.542-0.153,0.69C15.188,9.473,15.095,9.5,15,9.5z"/>
	<path d="M12,17c-1.588,0-4.937-1.863-5.425-4.782c-0.027-0.165-0.134-0.304-0.286-0.373c-0.863-0.392-1.272-1.42-1.288-2.209
		C4.99,9.075,5.162,8.59,5.478,8.28C5.073,5.531,5.477,3.417,6.682,1.996C7.804,0.672,9.594,0,12,0c2.408,0,4.199,0.673,5.322,2
		c1.205,1.423,1.608,3.536,1.2,6.281C18.838,8.591,19.01,9.075,19,9.635c-0.015,0.789-0.425,1.817-1.289,2.209
		c-0.152,0.069-0.259,0.208-0.286,0.373C16.937,15.137,13.588,17,12,17z M12,1C9.901,1,8.368,1.553,7.444,2.643
		C6.395,3.881,6.081,5.824,6.512,8.418c0.036,0.218-0.072,0.43-0.269,0.529c-0.154,0.077-0.249,0.34-0.243,0.669
		c0.009,0.489,0.259,1.117,0.702,1.318c0.456,0.208,0.776,0.626,0.858,1.119C7.965,14.468,10.878,16,12,16
		c1.122,0,4.035-1.532,4.439-3.948c0.082-0.493,0.403-0.911,0.858-1.118c0.444-0.202,0.694-0.83,0.703-1.318
		c0.006-0.329-0.089-0.591-0.243-0.669c-0.197-0.099-0.305-0.312-0.269-0.529c0.434-2.59,0.121-4.531-0.929-5.772
		C15.635,1.554,14.101,1,12,1z"/>
	<path d="M23.5,24c-0.276,0-0.5-0.224-0.5-0.5v-1c-0.001-1.452-0.915-2.769-2.275-3.277L17,18.013v2.293
		c0,0.198-0.057,0.39-0.167,0.554c-0.037,0.055-0.079,0.106-0.125,0.153c-0.185,0.186-0.444,0.293-0.712,0.293
		c-0.107,0-0.212-0.017-0.312-0.051L12.5,20.194V23.5c0,0.276-0.224,0.5-0.5,0.5c-0.276,0-0.5-0.224-0.5-0.5v-3.306l-3.184,1.062
		c-0.1,0.034-0.205,0.051-0.313,0.051c-0.267,0-0.526-0.107-0.712-0.293C7.103,20.824,7,20.573,7,20.305v-2.292L3.255,19.23
		C1.911,19.733,1.001,21.048,1,22.5v1C1,23.776,0.776,24,0.5,24S0,23.776,0,23.5v-1c0.001-1.867,1.176-3.56,2.925-4.213l4.399-1.43
		c0.008-0.004,0.036-0.013,0.066-0.02l0.956-0.312C8.396,16.508,8.448,16.5,8.5,16.5c0.105,0,0.206,0.032,0.291,0.094L12,18.886
		l3.209-2.292c0.084-0.061,0.185-0.093,0.29-0.093c0.052,0,0.104,0.008,0.154,0.024l5.401,1.755C22.82,18.938,23.999,20.633,24,22.5
		v1C24,23.776,23.776,24,23.5,24z M16,20.307l0-2.619l-0.415-0.135l-2.496,1.783L16,20.307z M8,20.306l2.91-0.97l-2.496-1.783
		L8,17.688V20.306z"/>
</g>
</svg>
