<?xml version="1.0" encoding="utf-8"?>
<!-- Generator: Adobe Illustrator 22.1.0, SVG Export Plug-In . SVG Version: 6.00 Build 0)  -->
<svg version="1.1" id="Light" xmlns="http://www.w3.org/2000/svg" xmlns:xlink="http://www.w3.org/1999/xlink" x="0px" y="0px"
	 viewBox="0 0 24 24" style="enable-background:new 0 0 24 24;" xml:space="preserve">
<g>
	<title>clothes-design-thread-boots</title>
	<path d="M2.977,22.989c-0.893,0-1.723-0.479-2.168-1.25c-1.042-1.81-1.094-3.876-0.14-5.526c0.805-1.392,2.22-2.224,3.786-2.224
		h1.3c1.319,0,3.236-0.808,3.236-2.074V4.902c-0.589-0.21-0.998-0.775-0.998-1.413v-1c0-0.827,0.673-1.5,1.5-1.5h10
		c0.827,0,1.5,0.673,1.5,1.5v1c0,0.64-0.41,1.205-1,1.414v3.586c0,0.276-0.224,0.5-0.5,0.5s-0.5-0.224-0.5-0.5v-3.5H9.991v6.926
		c0,1.812-2.232,3.074-4.236,3.074h-1.3c-1.222,0-2.287,0.628-2.92,1.724c-0.393,0.68-0.578,1.463-0.54,2.276h9.998
		c0.276,0,0.5,0.224,0.5,0.5s-0.224,0.5-0.5,0.5H1.155c0.116,0.431,0.29,0.85,0.521,1.25c0.267,0.462,0.765,0.75,1.299,0.75h8.02
		c0.276,0,0.5,0.224,0.5,0.5s-0.224,0.5-0.5,0.5H2.977z M9.493,1.989c-0.276,0-0.5,0.224-0.5,0.5v1c0,0.276,0.224,0.5,0.5,0.5h10
		c0.276,0,0.5-0.224,0.5-0.5v-1c0-0.276-0.224-0.5-0.5-0.5H9.493z"/>
	<path d="M12.993,22.989c-0.276,0-0.5-0.224-0.5-0.5s0.224-0.5,0.5-0.5h1v-11h-1c-0.276,0-0.5-0.224-0.5-0.5s0.224-0.5,0.5-0.5h10
		c0.276,0,0.5,0.224,0.5,0.5s-0.224,0.5-0.5,0.5h-1v7.912c0.587-0.208,1.001-0.772,1.001-1.412v-1.5c0-0.276,0.224-0.5,0.5-0.5
		s0.5,0.224,0.5,0.5v1.5c0,1.2-0.846,2.216-2.001,2.449v2.051h1c0.276,0,0.5,0.224,0.5,0.5s-0.224,0.5-0.5,0.5H12.993z
		 M20.993,21.989v-2h-6v2H20.993z M20.993,18.989v-2h-6v2H20.993z M20.993,15.989v-2h-6v2H20.993z M20.993,12.989v-2h-6v2H20.993z"
		/>
</g>
</svg>
