<?xml version="1.0" encoding="utf-8"?>
<!-- Generator: Adobe Illustrator 22.1.0, SVG Export Plug-In . SVG Version: 6.00 Build 0)  -->
<svg version="1.1" id="Light" xmlns="http://www.w3.org/2000/svg" xmlns:xlink="http://www.w3.org/1999/xlink" x="0px" y="0px"
	 viewBox="0 0 24 24" style="enable-background:new 0 0 24 24;" xml:space="preserve">
<g>
	<title>clothes-design-needle-yarn</title>
	<path d="M1.5,23.989c-0.827,0-1.5-0.673-1.5-1.5c0-0.639,0.409-1.204,0.998-1.414V9.903C0.409,9.693,0,9.128,0,8.489
		c0-0.827,0.673-1.5,1.5-1.5h8c0.827,0,1.5,0.673,1.5,1.5c0,0.641-0.411,1.206-1.002,1.415v11.171
		C10.589,21.283,11,21.848,11,22.489c0,0.827-0.673,1.5-1.5,1.5H1.5z M1.5,21.989c-0.276,0-0.5,0.224-0.5,0.5s0.224,0.5,0.5,0.5h8
		c0.276,0,0.5-0.224,0.5-0.5s-0.224-0.5-0.5-0.5H1.5z M8.998,20.989v-2h-7v2H8.998z M8.998,17.989v-2h-7v2H8.998z M8.998,14.989v-2
		h-7v2H8.998z M8.998,11.989v-2h-7v2H8.998z M1.5,7.989c-0.276,0-0.5,0.224-0.5,0.5s0.224,0.5,0.5,0.5h7.998
		c0.278,0,0.502-0.224,0.502-0.5s-0.224-0.5-0.5-0.5H1.5z"/>
	<path d="M16.5,23.989c-0.276,0-0.5-0.224-0.5-0.5s0.224-0.5,0.5-0.5H22c0.552,0,1-0.448,1-1s-0.448-1-1-1h-4.5
		c-3.586,0-6.502-2.916-6.502-6.5c0-1.72,0.667-3.342,1.88-4.568c0.008-0.011,0.016-0.021,0.024-0.029
		c0.009-0.009,0.02-0.018,0.032-0.027c0.783-0.777,1.77-1.349,2.845-1.644c0.007-0.002,0.013-0.004,0.019-0.005
		c0.388-0.106,0.792-0.175,1.199-0.207V3.923c-0.869-0.225-1.5-1.021-1.5-1.934c0-1.103,0.897-2,2-2s2,0.897,2,2
		c0,0.913-0.631,1.709-1.5,1.934v4.086c0.585,0.045,1.157,0.167,1.706,0.367l1.087-2.592C20.292,5.407,20,4.827,20,4.194
		c0-1.103,0.897-2,2-2s2,0.897,2,2s-0.897,2-2,2c-0.094,0-0.191-0.007-0.287-0.022l-1.097,2.616
		c2.092,1.146,3.382,3.309,3.382,5.701c0,0.575-0.077,1.15-0.229,1.708c-0.001,0.003-0.007,0.022-0.009,0.028
		c-0.287,1.051-0.856,2.037-1.641,2.831c-0.008,0.01-0.016,0.021-0.024,0.029c-0.009,0.009-0.02,0.018-0.032,0.027
		c-0.334,0.332-0.703,0.626-1.103,0.878H22c1.103,0,2,0.897,2,2s-0.897,2-2,2H16.5z M12.024,13.964
		c-0.017,0.176-0.026,0.351-0.026,0.525c0,3.033,2.467,5.5,5.5,5.5c0.174,0,0.349-0.009,0.525-0.026L12.024,13.964z M19.194,19.72
		c0.662-0.215,1.285-0.56,1.822-1.007l-7.742-7.742c-0.447,0.537-0.792,1.16-1.007,1.822L19.194,19.72z M21.723,18.006
		c0.447-0.537,0.791-1.16,1.007-1.822l-6.927-6.926c-0.662,0.215-1.285,0.56-1.822,1.006L21.723,18.006z M22.972,15.013
		c0.017-0.176,0.026-0.35,0.026-0.524c0-3.033-2.467-5.5-5.5-5.5c-0.173,0-0.349,0.009-0.524,0.026L22.972,15.013z M22,3.194
		c-0.552,0-1,0.449-1,1s0.448,1,1,1s1-0.449,1-1S22.552,3.194,22,3.194z M17.498,0.989c-0.552,0-1,0.449-1,1s0.448,1,1,1
		s1-0.449,1-1S18.05,0.989,17.498,0.989z"/>
</g>
</svg>
