<?xml version="1.0" encoding="utf-8"?>
<!-- Generator: Adobe Illustrator 22.1.0, SVG Export Plug-In . SVG Version: 6.00 Build 0)  -->
<svg version="1.1" id="Light" xmlns="http://www.w3.org/2000/svg" xmlns:xlink="http://www.w3.org/1999/xlink" x="0px" y="0px"
	 viewBox="0 0 24 24" style="enable-background:new 0 0 24 24;" xml:space="preserve">
<g>
	<title>clothes-design-sewing-machine</title>
	<path d="M2.5,23.989c-1.379,0-2.5-1.122-2.5-2.5v-0.979C0,20.503-0.001,20.496-0.001,20.489c0-0.009,0.001-0.019,0.002-0.029
		c0.008-1.358,1.128-2.471,2.499-2.471h13c0.276,0,0.5-0.224,0.5-0.5v-9.5c0-0.827-0.673-1.5-1.5-1.5h-4c-0.827,0-1.5,0.673-1.5,1.5
		v2c0,0.551-0.449,1-1,1H5.999v3h0.5c0.276,0,0.5,0.224,0.5,0.5s-0.224,0.5-0.5,0.5h-0.5v1c0,0.276-0.224,0.5-0.5,0.5
		s-0.5-0.224-0.5-0.5v-5H3c-0.551,0-1-0.449-1-1v-5c0-2.757,2.243-5,5-5h15c1.103,0,2,0.897,2,2v20.5c0,0.827-0.673,1.5-1.5,1.5H2.5
		z M1,21.489c0,0.827,0.673,1.5,1.5,1.5h20c0.276,0,0.5-0.224,0.5-0.5v-18.5H12.999c-0.276,0-0.5-0.224-0.5-0.5s0.224-0.5,0.5-0.5
		H23v-1c0-0.551-0.448-1-1-1H7c-2.206,0-4,1.794-4,4v5h5v-2c0-1.379,1.121-2.5,2.5-2.5h4c1.378,0,2.5,1.121,2.5,2.5v9.5
		c0,0.827-0.673,1.5-1.5,1.5h-13c-0.64,0-1.203,0.414-1.412,1h14.411c0.276,0,0.5,0.224,0.5,0.5s-0.224,0.5-0.5,0.5H1V21.489z"/>
	<path d="M19.999,19.989c-1.103,0-2-0.897-2-2s0.897-2,2-2s2,0.897,2,2S21.102,19.989,19.999,19.989z M19.999,16.989
		c-0.552,0-1,0.448-1,1s0.448,1,1,1s1-0.448,1-1S20.551,16.989,19.999,16.989z"/>
</g>
</svg>
