<?xml version="1.0" encoding="utf-8"?>
<!-- Generator: Adobe Illustrator 22.1.0, SVG Export Plug-In . SVG Version: 6.00 Build 0)  -->
<svg version="1.1" id="Light" xmlns="http://www.w3.org/2000/svg" xmlns:xlink="http://www.w3.org/1999/xlink" x="0px" y="0px"
	 viewBox="0 0 24 24" style="enable-background:new 0 0 24 24;" xml:space="preserve">
<g>
	<title>clothes-design-pin-cushion</title>
	<path d="M16,11.739c-0.062,0-0.123-0.011-0.181-0.034c-1.219-0.474-2.506-0.714-3.824-0.714c-1.095,0-2.176,0.168-3.212,0.499
		c-0.05,0.016-0.101,0.024-0.153,0.024c-0.218,0-0.409-0.14-0.476-0.348c-0.084-0.263,0.062-0.545,0.324-0.629
		c0.973-0.311,1.989-0.491,3.021-0.534V4.938c-1.155-0.234-2-1.25-2-2.449c0-1.379,1.121-2.5,2.5-2.5c1.378,0,2.5,1.121,2.5,2.5
		c0,1.199-0.845,2.215-2,2.449v5.066c1.27,0.055,2.507,0.313,3.682,0.769c0.257,0.1,0.385,0.39,0.285,0.647
		C16.391,11.614,16.208,11.739,16,11.739L16,11.739z M11.999,0.989c-0.827,0-1.5,0.673-1.5,1.5s0.673,1.5,1.5,1.5s1.5-0.673,1.5-1.5
		S12.826,0.989,11.999,0.989z"/>
	<path d="M6.746,14.377c-0.242,0-0.449-0.173-0.492-0.411L5.087,7.52c-1.353-0.03-2.444-1.14-2.444-2.499c0-1.379,1.121-2.5,2.5-2.5
		s2.5,1.121,2.5,2.5c0,1.02-0.636,1.944-1.572,2.32l1.167,6.447c0.024,0.131-0.005,0.264-0.081,0.374
		c-0.076,0.11-0.19,0.183-0.322,0.207C6.805,14.375,6.775,14.377,6.746,14.377z M5.143,3.521c-0.827,0-1.5,0.673-1.5,1.5
		s0.673,1.5,1.5,1.5s1.5-0.673,1.5-1.5S5.97,3.521,5.143,3.521z"/>
	<path d="M15.999,17.489c-0.068,0-0.134-0.013-0.196-0.04c-0.122-0.052-0.218-0.149-0.267-0.273c-0.05-0.124-0.049-0.26,0.004-0.383
		l2.564-6.03c-0.673-0.465-1.083-1.234-1.083-2.057c0-1.379,1.122-2.5,2.5-2.5s2.5,1.121,2.5,2.5s-1.122,2.5-2.5,2.5
		c-0.167,0-0.333-0.017-0.497-0.051l-2.564,6.03C16.381,17.369,16.2,17.489,15.999,17.489z M19.52,7.206c-0.827,0-1.5,0.673-1.5,1.5
		s0.673,1.5,1.5,1.5s1.5-0.673,1.5-1.5S20.347,7.206,19.52,7.206z"/>
	<path d="M2,23.989c-0.827,0-1.5-0.673-1.5-1.5v-1c-0.004-3.18,1.33-6.247,3.659-8.412c0.093-0.086,0.214-0.134,0.341-0.134
		c0.138,0,0.272,0.058,0.366,0.159c0.188,0.202,0.176,0.519-0.026,0.707c-1.996,1.856-3.201,4.46-3.329,7.18h20.977
		c-0.129-2.709-1.325-5.306-3.308-7.16c-0.201-0.188-0.212-0.505-0.024-0.707c0.094-0.101,0.228-0.159,0.365-0.159
		c0.127,0,0.249,0.048,0.342,0.135c2.314,2.164,3.639,5.222,3.636,8.39v1c0,0.827-0.673,1.5-1.5,1.5H2z M1.5,22.489
		c0,0.276,0.224,0.5,0.5,0.5h20c0.276,0,0.5-0.224,0.5-0.5v-0.5h-21V22.489z"/>
</g>
</svg>
