<?xml version="1.0" encoding="utf-8"?>
<!-- Generator: Adobe Illustrator 22.1.0, SVG Export Plug-In . SVG Version: 6.00 Build 0)  -->
<svg version="1.1" id="Light" xmlns="http://www.w3.org/2000/svg" xmlns:xlink="http://www.w3.org/1999/xlink" x="0px" y="0px"
	 viewBox="0 0 24 24" style="enable-background:new 0 0 24 24;" xml:space="preserve">
<g>
	<title>party-hats</title>
	<path d="M11.997,14.998c-0.873,0-1.722-0.307-2.393-0.864c-1.39-1.154-1.758-3.137-0.875-4.715c0,0,0.011-0.019,0.016-0.026
		c0.099-0.172,0.201-0.325,0.312-0.465l2.474-6.604C11.604,2.13,11.793,2,12,2s0.395,0.13,0.468,0.324l2.474,6.602
		c0.412,0.522,0.678,1.146,0.769,1.807c0.001,0.005,0.003,0.022,0.003,0.022c0.137,1.037-0.165,2.09-0.829,2.89
		C14.171,14.505,13.118,14.998,11.997,14.998z M9.367,10.466c-0.308,1.042,0.028,2.194,0.876,2.899
		c0.492,0.408,1.115,0.633,1.755,0.633c0.823,0,1.594-0.361,2.118-0.991c0.357-0.43,0.572-0.956,0.621-1.51
		c-0.549,0.165-1.117,0.249-1.693,0.249C11.702,11.746,10.41,11.294,9.367,10.466z M10.414,9.988
		c0.778,0.491,1.684,0.755,2.627,0.755c0.548,0,1.083-0.09,1.595-0.267c-0.073-0.248-0.179-0.482-0.318-0.7
		c-0.746,0.261-1.524,0.394-2.318,0.394C11.462,10.169,10.932,10.109,10.414,9.988z M10.144,8.878C10.741,9.072,11.364,9.17,12,9.17
		c0.636,0,1.259-0.098,1.856-0.291L12,3.925L10.144,8.878z"/>
	<path d="M5.003,17.498c-0.052,0-0.103-0.001-0.155-0.004c-0.733-0.041-1.406-0.364-1.896-0.911s-0.737-1.252-0.697-1.986
		c0.038-0.687,0.329-1.328,0.822-1.81l1.462-3.48C4.617,9.12,4.798,9,5,9s0.383,0.12,0.461,0.306l1.462,3.481
		c0.043,0.041,0.086,0.083,0.126,0.128c0.49,0.547,0.737,1.252,0.697,1.985s-0.364,1.407-0.911,1.896
		C6.329,17.249,5.679,17.498,5.003,17.498z M3.587,13.718c-0.2,0.271-0.314,0.591-0.333,0.935c-0.026,0.467,0.132,0.915,0.443,1.263
		c0.312,0.348,0.74,0.554,1.207,0.58c0.035,0.002,0.07,0.003,0.104,0.003c0.426,0,0.838-0.158,1.159-0.446
		c0.348-0.312,0.554-0.74,0.58-1.207c0.023-0.408-0.095-0.802-0.333-1.128C5.98,13.948,5.496,14.069,5,14.069
		C4.503,14.069,4.019,13.948,3.587,13.718z M4.127,12.871c0.27,0.13,0.568,0.198,0.873,0.198s0.603-0.068,0.873-0.198L5,10.791
		L4.127,12.871z"/>
	<path d="M0.5,22c-0.156,0-0.3-0.071-0.395-0.193c-0.094-0.121-0.128-0.281-0.09-0.43c0.581-2.279,2.629-3.871,4.981-3.871
		c0.426,0,0.854,0.054,1.27,0.16c0.297,0.076,0.592,0.181,0.878,0.313C8.275,16.423,10.074,15.5,12,15.5
		c1.926,0,3.725,0.923,4.856,2.479c0.286-0.133,0.581-0.238,0.878-0.313c0.416-0.106,0.844-0.16,1.27-0.16
		c2.352,0,4.4,1.592,4.981,3.871c0.038,0.149,0.004,0.31-0.09,0.43C23.801,21.928,23.653,22,23.5,22H0.5z M22.803,21
		c-0.65-1.505-2.135-2.494-3.8-2.494c-0.343,0-0.687,0.043-1.022,0.128c-0.204,0.052-0.406,0.121-0.604,0.206
		c0.337,0.678,0.539,1.403,0.601,2.159H22.803z M16.975,21c-0.251-2.544-2.388-4.5-4.975-4.5S7.276,18.456,7.025,21H16.975z
		 M6.021,21c0.062-0.757,0.264-1.481,0.601-2.159c-0.198-0.085-0.4-0.154-0.604-0.206c-0.335-0.085-0.678-0.128-1.021-0.128
		c-1.665,0-3.151,0.989-3.8,2.494H6.021z"/>
	<path d="M18.999,17.497c-0.678,0-1.328-0.249-1.832-0.7c-0.547-0.49-0.871-1.163-0.911-1.896c-0.041-0.733,0.207-1.438,0.696-1.985
		c0.04-0.045,0.083-0.087,0.126-0.128l1.462-3.481C18.617,9.12,18.798,9,19,9s0.383,0.12,0.461,0.306l1.462,3.481
		c1.038,1.018,1.098,2.708,0.126,3.795C20.528,17.163,19.781,17.497,18.999,17.497z M17.586,13.717
		c-0.237,0.323-0.355,0.718-0.333,1.128c0.026,0.466,0.232,0.895,0.58,1.206c0.32,0.287,0.734,0.445,1.165,0.445
		c0.498,0,0.974-0.212,1.304-0.581c0.312-0.348,0.469-0.797,0.443-1.263c-0.019-0.344-0.134-0.663-0.333-0.934
		c-0.432,0.23-0.917,0.351-1.413,0.351S18.019,13.948,17.586,13.717z M18.127,12.871c0.27,0.13,0.568,0.198,0.873,0.198
		s0.603-0.068,0.873-0.198L19,10.791L18.127,12.871z"/>
</g>
</svg>
