<?xml version="1.0" encoding="utf-8"?>
<!-- Generator: Adobe Illustrator 22.1.0, SVG Export Plug-In . SVG Version: 6.00 Build 0)  -->
<svg version="1.1" id="Light" xmlns="http://www.w3.org/2000/svg" xmlns:xlink="http://www.w3.org/1999/xlink" x="0px" y="0px"
	 viewBox="0 0 24 24" style="enable-background:new 0 0 24 24;" xml:space="preserve">
<g>
	<title>party-throw-up</title>
	<path d="M8,9.995c-1.654,0-3-1.346-3-3s1.346-3,3-3s3,1.346,3,3S9.654,9.995,8,9.995z M8,4.995c-1.103,0-2,0.897-2,2s0.897,2,2,2
		s2-0.897,2-2S9.103,4.995,8,4.995z"/>
	<path d="M17.5,20c-1.103,0-2-0.897-2-2c0-0.141,0.015-0.282,0.045-0.42L16.525,13l-2.292,0l-0.259,1.781
		c-0.046,0.317-0.168,0.621-0.353,0.881l-2.5,3.5c-0.379,0.517-0.989,0.824-1.633,0.824c-0.413,0-0.809-0.124-1.146-0.358
		c-0.439-0.314-0.727-0.775-0.815-1.302c-0.088-0.526,0.034-1.055,0.343-1.489l2.218-3.104l0.431-3.017
		c0.138-0.98,0.99-1.719,1.98-1.719h4.027c2.206,0,4,1.794,4,4c0,0.283-0.03,0.565-0.089,0.84L19.973,16H22c1.103,0,2,0.897,2,2
		s-0.897,2-2,2H17.5z M16.525,11.999c0.07,0,0.14,0.007,0.208,0.022c0.541,0.116,0.885,0.649,0.769,1.188l-0.981,4.58
		c-0.015,0.069-0.022,0.14-0.022,0.211c0,0.267,0.104,0.518,0.293,0.707C16.981,18.896,17.232,19,17.5,19H22c0.552,0,1-0.448,1-1
		s-0.448-1-1-1h-2.646c-0.152,0-0.293-0.068-0.389-0.186c-0.095-0.118-0.132-0.271-0.1-0.419l0.594-2.77
		c0.044-0.207,0.067-0.419,0.067-0.63c0-1.654-1.346-3-3-3H12.5c-0.496,0-0.922,0.37-0.991,0.86l-0.448,3.139
		c-0.011,0.079-0.042,0.155-0.088,0.22l-2.285,3.197c-0.157,0.22-0.218,0.485-0.174,0.749c0.044,0.263,0.188,0.493,0.405,0.648
		c0.166,0.115,0.365,0.177,0.572,0.177c0.325,0,0.632-0.154,0.821-0.411l2.497-3.495c0.093-0.13,0.154-0.282,0.177-0.44l0.254-1.781
		c0.07-0.49,0.496-0.859,0.99-0.859H16.525z"/>
	<path d="M4,20c-1.379,0-2.5-0.897-2.5-2c0.001-0.099,0.011-0.197,0.028-0.292C0.579,17.354,0,16.714,0,16c0-1.14,1.397-2,3.25-2
		s3.25,0.86,3.25,2c-0.031,0.359-0.158,0.682-0.364,0.942c0.224,0.301,0.352,0.664,0.364,1.042c0,0.557-0.268,1.068-0.756,1.449
		C5.275,19.799,4.656,20,4,20z M3.25,15C1.962,15,1,15.528,1,16c0,0.297,0.444,0.7,1.294,0.895c0.157,0.036,0.288,0.146,0.35,0.296
		c0.062,0.149,0.048,0.32-0.038,0.457C2.538,17.755,2.501,17.88,2.5,18.006C2.5,18.544,3.187,19,4,19s1.5-0.458,1.5-1
		c-0.009-0.26-0.149-0.51-0.376-0.661c-0.144-0.095-0.23-0.263-0.223-0.436c0.006-0.173,0.104-0.333,0.256-0.417
		c0.196-0.109,0.325-0.308,0.346-0.532C5.5,15.526,4.517,15,3.25,15z"/>
	<path d="M3.145,13c-0.048,0-0.096-0.007-0.143-0.021c-0.128-0.038-0.234-0.124-0.297-0.241c-0.064-0.117-0.078-0.253-0.039-0.381
		c0.258-0.865,0.808-1.626,1.548-2.143c0.084-0.059,0.183-0.09,0.286-0.09c0.163,0,0.317,0.08,0.41,0.214
		c0.076,0.109,0.106,0.242,0.082,0.374c-0.023,0.132-0.097,0.246-0.206,0.323c-0.556,0.388-0.969,0.96-1.162,1.609
		C3.562,12.853,3.365,13,3.145,13z"/>
	<path d="M6.784,13.499c-0.14-0.01-0.262-0.07-0.349-0.171c-0.088-0.101-0.131-0.229-0.122-0.363
		c0.026-0.387,0.108-0.767,0.243-1.13c0.072-0.195,0.26-0.326,0.469-0.326c0.059,0,0.118,0.01,0.174,0.031
		c0.259,0.096,0.391,0.384,0.295,0.643c-0.101,0.274-0.163,0.56-0.183,0.852C7.293,13.296,7.074,13.5,6.812,13.5
		C6.809,13.5,6.788,13.5,6.784,13.499z"/>
</g>
</svg>
