<?xml version="1.0" encoding="utf-8"?>
<!-- Generator: Adobe Illustrator 22.1.0, SVG Export Plug-In . SVG Version: 6.00 Build 0)  -->
<svg version="1.1" id="Light" xmlns="http://www.w3.org/2000/svg" xmlns:xlink="http://www.w3.org/1999/xlink" x="0px" y="0px"
	 viewBox="0 0 24 24" style="enable-background:new 0 0 24 24;" xml:space="preserve">
<g>
	<title>party-water-gun</title>
	<path d="M20.5,7C20.224,7,20,6.776,20,6.5S20.224,6,20.5,6h2C22.776,6,23,6.224,23,6.5S22.776,7,22.5,7H20.5z"/>
	<path d="M5.557,22c-0.334,0-0.664-0.114-0.927-0.321c-0.315-0.247-0.515-0.603-0.562-1.001c-0.048-0.398,0.062-0.791,0.31-1.105
		L7.971,15H4.5C3.121,15,2,13.878,2,12.5c0-0.709,0.294-1.366,0.806-1.835C1.132,9.982,0,8.332,0,6.5C0,4.019,2.019,2,4.5,2h11.519
		c0.458,0,0.885,0.205,1.171,0.562l1.481,1.851C18.883,4.679,19,5.012,19,5.351v2.313c0,0.341-0.118,0.675-0.331,0.941l-1.48,1.836
		C16.902,10.796,16.476,11,16.02,11h-0.108C15.97,11.16,16,11.328,16,11.5V12h3v-0.5c0-0.827,0.673-1.5,1.5-1.5h1
		c1.378,0,2.5,1.121,2.5,2.5c0,1.378-1.122,2.5-2.5,2.5h-1c-0.827,0-1.5-0.673-1.5-1.5V13h-3v0.5c0,0.827-0.673,1.5-1.5,1.5h-0.982
		c0.047,0.491,0.207,1.29,0.73,1.843C14.661,17.279,15.25,17.5,16,17.5c0.276,0,0.5,0.224,0.5,0.5s-0.224,0.5-0.5,0.5
		c-1.037,0-1.872-0.327-2.481-0.972c-0.564-0.597-0.819-1.357-0.932-1.962l-2.368,5.525C9.983,21.643,9.442,22,8.841,22H5.557z
		 M5.164,20.191c-0.083,0.105-0.119,0.236-0.103,0.368c0.016,0.133,0.083,0.251,0.188,0.334C5.336,20.962,5.446,21,5.557,21h3.284
		c0.2,0,0.381-0.119,0.46-0.303L11.742,15H9.243L5.164,20.191z M20.5,11c-0.276,0-0.5,0.224-0.5,0.5v2c0,0.276,0.224,0.5,0.5,0.5h1
		c0.827,0,1.5-0.673,1.5-1.5S22.327,11,21.5,11H20.5z M4.5,11C3.673,11,3,11.673,3,12.5S3.673,14,4.5,14h10
		c0.276,0,0.5-0.224,0.5-0.5v-2c0-0.276-0.224-0.5-0.5-0.5H4.5z M16.02,10c0.152,0,0.294-0.068,0.389-0.187l1.48-1.836
		C17.961,7.889,18,7.778,18,7.664V5.351c0-0.113-0.039-0.224-0.11-0.313l-1.481-1.851C16.314,3.068,16.172,3,16.02,3H13v7H16.02z
		 M4.5,3C2.57,3,1,4.57,1,6.5S2.57,10,4.5,10H12V3H4.5z"/>
</g>
</svg>
