<?xml version="1.0" encoding="utf-8"?>
<!-- Generator: Adobe Illustrator 22.1.0, SVG Export Plug-In . SVG Version: 6.00 Build 0)  -->
<svg version="1.1" id="Light" xmlns="http://www.w3.org/2000/svg" xmlns:xlink="http://www.w3.org/1999/xlink" x="0px" y="0px"
	 viewBox="0 0 24 24" style="enable-background:new 0 0 24 24;" xml:space="preserve">
<g>
	<title>party-confetti-whistle</title>
	<path d="M20.5,23c-0.134,0-0.259-0.052-0.354-0.146l-0.396-0.396l-0.396,0.396C19.259,22.948,19.134,23,19,23
		s-0.259-0.052-0.354-0.146S18.5,22.634,18.5,22.5s0.052-0.259,0.146-0.354l0.396-0.396l-0.396-0.396
		C18.552,21.259,18.5,21.134,18.5,21s0.052-0.259,0.146-0.354S18.866,20.5,19,20.5s0.259,0.052,0.354,0.146l0.396,0.396l0.396-0.396
		c0.094-0.094,0.22-0.146,0.354-0.146s0.259,0.052,0.354,0.146S21,20.866,21,21s-0.052,0.259-0.146,0.354l-0.396,0.396l0.396,0.396
		C20.948,22.241,21,22.366,21,22.5s-0.052,0.259-0.146,0.354S20.634,23,20.5,23z"/>
	<path d="M11,14.5c-0.134,0-0.259-0.052-0.354-0.146l-0.396-0.396l-0.396,0.396C9.759,14.448,9.634,14.5,9.5,14.5
		s-0.259-0.052-0.354-0.146S9,14.134,9,14s0.052-0.259,0.146-0.354l0.396-0.396l-0.396-0.396C9.052,12.759,9,12.634,9,12.5
		s0.052-0.259,0.146-0.354S9.366,12,9.5,12s0.259,0.052,0.354,0.146l0.396,0.396l0.396-0.396C10.741,12.052,10.866,12,11,12
		s0.259,0.052,0.354,0.146S11.5,12.366,11.5,12.5s-0.052,0.259-0.146,0.354l-0.396,0.396l0.396,0.396
		C11.448,13.741,11.5,13.866,11.5,14s-0.052,0.259-0.146,0.354S11.134,14.5,11,14.5z"/>
	<path d="M17.5,3.5c-0.134,0-0.259-0.052-0.354-0.146L16.75,2.957l-0.396,0.396C16.259,3.448,16.134,3.5,16,3.5
		s-0.259-0.052-0.354-0.146S15.5,3.134,15.5,3s0.052-0.259,0.146-0.354l0.396-0.396l-0.396-0.396C15.552,1.759,15.5,1.634,15.5,1.5
		s0.052-0.259,0.146-0.354S15.866,1,16,1s0.259,0.052,0.354,0.146l0.396,0.396l0.396-0.396C17.241,1.052,17.366,1,17.5,1
		s0.259,0.052,0.354,0.146S18,1.366,18,1.5s-0.052,0.259-0.146,0.354L17.457,2.25l0.396,0.396C17.948,2.741,18,2.866,18,3
		s-0.052,0.259-0.146,0.354S17.634,3.5,17.5,3.5z"/>
	<path d="M0.5,20C0.224,20,0,19.776,0,19.5v-3C0,16.224,0.224,16,0.5,16h10.882c0.155,0,0.31,0.037,0.448,0.106l2.8,1.4
		c0.074,0.006,0.171,0.015,0.299,0.028c0.787,0.078,1.526,0.117,2.198,0.117c2.419,0,4.07-0.5,4.908-1.488
		c1.448-1.707,1.238-4.275-0.469-5.723c-0.577-0.49-1.278-0.749-2.029-0.749c-0.088,0-0.176,0.004-0.265,0.011
		c-0.835,0.068-1.594,0.457-2.138,1.094c-0.001,0.001-0.002,0.002-0.003,0.003c-0.864,1.018-0.741,2.548,0.273,3.411
		c0.335,0.284,0.755,0.439,1.186,0.439c0.051,0,0.103-0.002,0.154-0.006c0.489-0.04,0.933-0.268,1.25-0.642
		c0.237-0.279,0.35-0.633,0.32-0.997c-0.03-0.364-0.2-0.695-0.478-0.931c-0.178-0.15-0.406-0.233-0.642-0.233
		c-0.295,0-0.572,0.127-0.762,0.349c-0.096,0.112-0.234,0.175-0.38,0.175c-0.119,0-0.234-0.042-0.325-0.12
		c-0.21-0.179-0.235-0.495-0.056-0.705c0.38-0.444,0.934-0.699,1.522-0.699c0.471,0,0.928,0.167,1.287,0.469
		c0.483,0.41,0.778,0.983,0.83,1.613c0.052,0.631-0.146,1.243-0.554,1.726c-0.49,0.577-1.176,0.929-1.93,0.991
		c-0.08,0.007-0.16,0.01-0.24,0.01c-0.664,0-1.312-0.238-1.823-0.671c-1.438-1.22-1.617-3.38-0.403-4.816
		c0.722-0.851,1.725-1.366,2.83-1.457c0.115-0.009,0.23-0.014,0.345-0.014c0.978,0,1.929,0.35,2.678,0.986
		c2.127,1.805,2.39,5.005,0.585,7.132c-1.042,1.229-2.938,1.852-5.633,1.852c-0.985,0-1.829-0.083-2.334-0.133
		c0,0-0.175-0.017-0.229-0.022l-2.773,1.387C11.692,19.963,11.537,20,11.382,20H0.5z M11.382,19l2-1l-2-1L9.86,17l-0.667,2H11.382z
		 M8.14,19l0.667-2H6.86l-0.667,2H8.14z M5.14,19l0.667-2H3.86l-0.667,2H5.14z M2.14,19l0.667-2H1v2H2.14z"/>
	<path d="M12.586,9.293c-0.267,0-0.518-0.104-0.707-0.292l-1.414-1.415c-0.189-0.189-0.293-0.44-0.293-0.707
		s0.104-0.518,0.293-0.707l0.707-0.707c0.189-0.189,0.44-0.293,0.707-0.293c0.267,0,0.518,0.104,0.707,0.292L14,6.879
		c0.189,0.189,0.293,0.44,0.293,0.707c0,0.267-0.104,0.519-0.293,0.707L13.293,9C13.104,9.189,12.853,9.293,12.586,9.293z
		 M11.171,6.879l1.414,1.414l0.707-0.707l-1.414-1.414L11.171,6.879z"/>
	<path d="M23.5,7c-0.134,0-0.259-0.052-0.354-0.146l-1.142-1.142L21.208,6.5c-0.195,0.192-0.444,0.293-0.708,0.293
		c-0.268,0-0.519-0.104-0.708-0.294l-0.788-0.788l-1.151,1.142C17.759,6.948,17.634,7,17.5,7s-0.259-0.052-0.354-0.146
		S17,6.634,17,6.5s0.052-0.259,0.146-0.354L18.292,5c0.188-0.189,0.439-0.293,0.706-0.293c0.265,0,0.513,0.102,0.701,0.286
		C19.703,4.997,20.5,5.792,20.5,5.792c0.004-0.004,0.019-0.018,0.023-0.021L21.292,5c0.188-0.189,0.439-0.293,0.706-0.293
		c0.265,0,0.513,0.102,0.701,0.286c0.003,0.003,1.153,1.153,1.153,1.153C23.948,6.241,24,6.366,24,6.5s-0.052,0.259-0.146,0.354
		S23.634,7,23.5,7z"/>
	<path d="M6.5,11C6.224,11,6,10.776,6,10.5V8H4C3.449,8,3,7.551,3,7V5H0.5C0.224,5,0,4.776,0,4.5S0.224,4,0.5,4H3
		c0.551,0,1,0.449,1,1v2h2c0.551,0,1,0.449,1,1v2.5C7,10.776,6.776,11,6.5,11z"/>
</g>
</svg>
