<?xml version="1.0" encoding="utf-8"?>
<!-- Generator: Adobe Illustrator 22.1.0, SVG Export Plug-In . SVG Version: 6.00 Build 0)  -->
<svg version="1.1" id="Light" xmlns="http://www.w3.org/2000/svg" xmlns:xlink="http://www.w3.org/1999/xlink" x="0px" y="0px"
	 viewBox="0 0 24 24" style="enable-background:new 0 0 24 24;" xml:space="preserve">
<g>
	<title>party-balloons</title>
	<path d="M7.225,21.875c-0.135,0-0.266-0.055-0.359-0.152c-1.155-1.157-1.154-3.043,0.005-4.201c0.721-0.722,0.77-1.864,0.13-2.645
		H5.934c-0.198,0-0.39-0.058-0.554-0.168c-0.222-0.148-0.374-0.374-0.426-0.635c-0.053-0.262,0-0.528,0.148-0.751l1.05-1.577
		c-2.221-0.533-3.767-2.563-3.653-4.873C2.37,4.277,4.373,2.036,6.969,1.874c1.082,0.005,2.095,0.402,2.87,1.116
		c0.203,0.187,0.216,0.504,0.029,0.707C9.773,3.799,9.639,3.858,9.5,3.858c0,0,0,0,0,0c-0.126,0-0.246-0.047-0.339-0.132
		C8.57,3.181,7.801,2.878,6.997,2.873c-2.035,0.128-3.612,1.91-3.498,3.972C3.5,6.864,3.5,6.882,3.499,6.9
		c-0.114,2.063,1.47,3.845,3.532,3.974c0.589-0.002,1.181-0.181,1.694-0.519C8.807,10.301,8.902,10.273,9,10.273
		c0.169,0,0.325,0.084,0.418,0.225c0.151,0.23,0.088,0.541-0.143,0.693C8.85,11.47,8.37,11.67,7.869,11.778l1.029,1.545
		c0.109,0.164,0.167,0.356,0.168,0.553c0,0.268-0.104,0.519-0.292,0.708c-0.164,0.164-0.374,0.264-0.601,0.288
		c0.516,1.115,0.295,2.468-0.594,3.357c-0.77,0.77-0.771,2.022-0.001,2.792c0.017,0.017,0.034,0.036,0.049,0.056
		c0.079,0.105,0.113,0.237,0.094,0.369c-0.019,0.132-0.088,0.249-0.195,0.329C7.437,21.841,7.334,21.875,7.225,21.875z
		 M5.934,13.877l2.132,0L7,12.277L5.934,13.877z"/>
	<path d="M15.225,22.875c-0.134,0-0.259-0.052-0.354-0.146c-0.094-0.094-0.146-0.219-0.146-0.353c0-0.134,0.052-0.26,0.146-0.354
		c0.769-0.77,0.769-2.023,0-2.793c-0.888-0.889-1.111-2.238-0.597-3.352h-0.34c-0.198,0-0.39-0.058-0.554-0.168
		c-0.222-0.147-0.374-0.373-0.426-0.635c-0.053-0.262,0-0.529,0.148-0.751l1.027-1.542C12.035,12.327,10.5,10.29,10.5,7.875
		c0-2.757,2.019-5,4.5-5s4.5,2.243,4.5,5c0,2.415-1.534,4.452-3.629,4.906l1.027,1.542c0.11,0.164,0.168,0.355,0.168,0.554
		c0,0.267-0.104,0.518-0.293,0.707c-0.188,0.189-0.44,0.293-0.707,0.293h-0.618c-0.639,0.779-0.592,1.918,0.126,2.64
		c0.003,0.002,0.005,0.005,0.008,0.008c1.156,1.16,1.155,3.045-0.003,4.204C15.484,22.823,15.359,22.875,15.225,22.875z
		 M13.934,14.877l2.132,0L15,13.277L13.934,14.877z M15,3.875c-1.93,0-3.5,1.794-3.5,4s1.57,4,3.5,4s3.5-1.794,3.5-4
		S16.93,3.875,15,3.875z"/>
	<circle cx="21.5" cy="18.875" r="0.75"/>
	<circle cx="11.5" cy="20.875" r="0.75"/>
	<circle cx="22.5" cy="7.875" r="0.75"/>
	<circle cx="1.5" cy="2.375" r="0.75"/>
	<circle cx="3" cy="16.875" r="0.75"/>
</g>
</svg>
