<?xml version="1.0" encoding="utf-8"?>
<!-- Generator: Adobe Illustrator 22.1.0, SVG Export Plug-In . SVG Version: 6.00 Build 0)  -->
<svg version="1.1" id="Light" xmlns="http://www.w3.org/2000/svg" xmlns:xlink="http://www.w3.org/1999/xlink" x="0px" y="0px"
	 viewBox="0 0 24 24" style="enable-background:new 0 0 24 24;" xml:space="preserve">
<g>
	<title>party-mask</title>
	<path d="M23.5,24c-0.276,0-0.5-0.224-0.5-0.5V7.006c-0.078,0.202-0.161,0.399-0.247,0.588c-1.296,2.835-3.465,4.272-6.447,4.272
		l-0.101,0c-1.448,0-2.864-0.28-4.207-0.831c-1.337,0.551-2.757,0.831-4.21,0.831l-0.098,0c-2.978,0-5.146-1.437-6.442-4.272
		C0.207,5.321,0.019,2.679,0,1.307C-0.006,1.072,0.074,0.84,0.225,0.655c0.169-0.207,0.408-0.336,0.674-0.362
		C0.933,0.289,0.966,0.287,1,0.287c0.233,0,0.452,0.078,0.632,0.225c1.144,0.934,2.07,1.369,2.914,1.369
		c0.787,0,1.424-0.373,2.162-0.805C7.57,0.571,8.546,0,9.881,0C10.553,0,11.248,0.142,12,0.433C12.751,0.142,13.445,0,14.118,0
		c1.336,0,2.312,0.572,3.173,1.076c0.738,0.432,1.376,0.805,2.162,0.805c0.844,0,1.77-0.435,2.914-1.369
		c0.178-0.144,0.402-0.223,0.631-0.223c0.151,0,0.303,0.035,0.438,0.101c0.339,0.165,0.559,0.513,0.562,0.891
		c0,0.005,0,22.219,0,22.219C24,23.775,23.775,24,23.5,24z M11.998,10.034c0.134,0,0.265,0.027,0.388,0.08
		c1.215,0.499,2.486,0.753,3.773,0.753l0.14-0.001c2.561,0,4.424-1.241,5.543-3.688C22.806,5.072,22.981,2.586,23,1.293
		c-0.001-0.001-0.003-0.001-0.004-0.002C21.685,2.36,20.523,2.88,19.446,2.88c-1.052,0-1.869-0.478-2.66-0.941
		c-0.823-0.482-1.601-0.937-2.673-0.937c-0.595,0-1.224,0.141-1.922,0.432C12.131,1.459,12.066,1.472,12,1.472
		s-0.131-0.013-0.192-0.038c-0.698-0.29-1.326-0.432-1.922-0.432c-1.072,0-1.849,0.455-2.673,0.937
		C6.423,2.402,5.606,2.88,4.553,2.88c-1.078,0-2.241-0.521-3.554-1.593c0.018,1.297,0.193,3.784,1.157,5.891
		c1.119,2.447,2.982,3.688,5.537,3.688l0.091,0c1.325,0,2.616-0.254,3.837-0.756C11.736,10.061,11.868,10.034,11.998,10.034z"/>
	<path d="M7.51,8.356c-0.308,0-0.622-0.029-0.933-0.085c-1.946-0.354-3.286-1.663-3.051-2.98c0.12-0.674,0.623-1.221,1.415-1.539
		c0.457-0.183,0.995-0.28,1.555-0.28c0.304,0,0.615,0.028,0.924,0.083c1.948,0.348,3.29,1.657,3.053,2.98
		c-0.087,0.486-0.377,0.913-0.84,1.234C9.09,8.148,8.336,8.356,7.51,8.356z M6.494,4.472c-0.433,0-0.841,0.072-1.181,0.208
		c-0.46,0.185-0.745,0.464-0.803,0.786c-0.132,0.741,0.896,1.574,2.245,1.82c0.248,0.045,0.499,0.068,0.746,0.068
		c0.62,0,1.19-0.148,1.561-0.406C9.303,6.782,9.45,6.579,9.489,6.36C9.62,5.627,8.571,4.777,7.245,4.54
		C6.992,4.495,6.74,4.472,6.494,4.472z"/>
	<path d="M16.489,8.356c-0.825,0-1.58-0.208-2.124-0.586c-0.462-0.321-0.753-0.748-0.839-1.234
		c-0.118-0.659,0.146-1.332,0.742-1.894c0.568-0.536,1.388-0.921,2.311-1.086c0.309-0.055,0.62-0.083,0.924-0.083
		c0.561,0,1.099,0.097,1.555,0.28c0.792,0.318,1.295,0.864,1.415,1.539c0.235,1.317-1.105,2.625-3.051,2.98
		C17.111,8.327,16.797,8.356,16.489,8.356z M17.505,4.472c-0.245,0-0.498,0.023-0.75,0.068c-0.664,0.119-1.291,0.399-1.719,0.768
		C14.642,5.647,14.451,6.03,14.51,6.36c0.039,0.219,0.186,0.422,0.425,0.589c0.372,0.258,0.941,0.406,1.562,0.406
		c0.247,0,0.499-0.023,0.746-0.068c1.349-0.246,2.378-1.079,2.245-1.82c-0.058-0.323-0.343-0.602-0.802-0.786
		C18.346,4.544,17.938,4.472,17.505,4.472z"/>
</g>
</svg>
