<?xml version="1.0" encoding="utf-8"?>
<!-- Generator: Adobe Illustrator 22.1.0, SVG Export Plug-In . SVG Version: 6.00 Build 0)  -->
<svg version="1.1" id="Light" xmlns="http://www.w3.org/2000/svg" xmlns:xlink="http://www.w3.org/1999/xlink" x="0px" y="0px"
	 viewBox="0 0 24 24" style="enable-background:new 0 0 24 24;" xml:space="preserve">
<g>
	<title>party-music</title>
	<path d="M5,21c-0.134,0-0.259-0.052-0.354-0.146l-1.5-1.5C3.052,19.259,3,19.134,3,19s0.052-0.259,0.146-0.354S3.366,18.5,3.5,18.5
		s0.259,0.052,0.354,0.146l1.5,1.5C5.448,20.241,5.5,20.367,5.5,20.5s-0.052,0.259-0.146,0.354S5.133,21,5,21z"/>
	<path d="M9.186,16.814c-1.103,0-2-0.897-2-2s0.897-2,2-2s2,0.897,2,2S10.289,16.814,9.186,16.814z M9.186,13.814
		c-0.551,0-1,0.448-1,1s0.449,1,1,1s1-0.448,1-1S9.737,13.814,9.186,13.814z"/>
	<path d="M5.922,23.999c-1.604-0.021-3.103-0.666-4.221-1.814c-1.118-1.148-1.722-2.663-1.701-4.266
		c0.042-3.182,2.518-5.743,5.672-5.911c0.188-0.671,0.542-1.284,1.033-1.784c0.868-0.792,1.982-1.223,3.146-1.223
		c0.842,0,1.658,0.225,2.373,0.653l4.618-4.618c-0.269-0.565-0.159-1.254,0.293-1.707l0.354-0.354l-0.708-0.708
		c-0.094-0.094-0.146-0.22-0.146-0.354s0.052-0.259,0.146-0.354s0.22-0.146,0.354-0.146s0.259,0.052,0.354,0.146l0.708,0.708
		l0.707-0.707l-0.708-0.707c-0.195-0.195-0.195-0.512,0-0.707C18.291,0.052,18.416,0,18.55,0s0.259,0.052,0.354,0.146l0.748,0.748
		c0.402-0.259,0.875-0.4,1.353-0.4c0.648,0,1.264,0.25,1.734,0.704c0.48,0.464,0.751,1.087,0.763,1.755
		c0.009,0.502-0.128,0.98-0.396,1.395l0.748,0.747c0.195,0.195,0.195,0.512,0,0.707C23.759,5.898,23.633,5.95,23.5,5.95
		s-0.259-0.052-0.354-0.146l-0.708-0.707l-0.707,0.707l0.708,0.708c0.195,0.195,0.195,0.512,0,0.707
		c-0.094,0.094-0.22,0.146-0.354,0.146s-0.259-0.052-0.354-0.146L21.025,6.51l-0.352,0.351C20.391,7.145,20.014,7.3,19.613,7.3
		c-0.226,0-0.446-0.05-0.647-0.146l-4.618,4.618c1.047,1.748,0.833,3.981-0.551,5.499c-0.515,0.506-1.133,0.865-1.806,1.054
		c-0.081,1.509-0.718,2.913-1.806,3.972C9.059,23.396,7.574,24,6.003,24L5.922,23.999z M5.999,13c-2.72,0-4.962,2.213-4.999,4.933
		c-0.018,1.335,0.485,2.598,1.417,3.555c0.932,0.957,2.18,1.494,3.516,1.511l0.07,0c1.308,0,2.546-0.503,3.484-1.417
		c0.957-0.932,1.494-2.18,1.512-3.516C11,18.022,11,17.977,11,17.932c-0.003-0.247,0.171-0.456,0.413-0.499
		c0.631-0.111,1.207-0.406,1.664-0.855c1.145-1.258,1.244-3.186,0.225-4.574c-0.147-0.2-0.126-0.473,0.05-0.649l5.2-5.2
		c0.094-0.094,0.22-0.146,0.354-0.146c0.133,0,0.259,0.052,0.353,0.146c0.094,0.094,0.22,0.146,0.354,0.146s0.259-0.052,0.354-0.146
		c0,0,2.12-2.12,2.12-2.12c0.277-0.29,0.422-0.665,0.415-1.062c-0.007-0.401-0.169-0.775-0.458-1.053
		c-0.283-0.273-0.653-0.423-1.042-0.423c-0.388,0-0.758,0.15-1.041,0.422c-0.001,0.001-2.118,2.118-2.118,2.118
		c-0.195,0.195-0.195,0.512,0,0.707c0.195,0.195,0.195,0.512,0,0.707l-5.2,5.2c-0.094,0.094-0.22,0.146-0.354,0.146
		c-0.107,0-0.209-0.033-0.296-0.097c-0.625-0.458-1.366-0.7-2.146-0.7c-0.911,0-1.781,0.335-2.449,0.944
		c-0.432,0.441-0.723,1.012-0.833,1.642C6.526,12.814,6.323,12.988,6.082,13L5.999,13z"/>
	<path d="M21.046,24.012c-0.397-0.007-0.771-0.169-1.049-0.457c-0.278-0.288-0.428-0.668-0.421-1.068
		c0.004-0.213,0.052-0.419,0.14-0.608l-4.543-3.936c-0.208-0.18-0.231-0.497-0.051-0.705c0.096-0.11,0.234-0.173,0.378-0.173
		c0.12,0,0.236,0.043,0.327,0.122l4.881,4.229c0.105,0.092,0.168,0.224,0.172,0.364c0.003,0.141-0.052,0.277-0.153,0.374
		c-0.096,0.093-0.15,0.217-0.153,0.351c-0.002,0.134,0.048,0.26,0.14,0.356c0.095,0.098,0.223,0.152,0.36,0.152
		c0.13,0,0.254-0.05,0.347-0.14l1.433-1.433c0.103-0.099,0.156-0.222,0.159-0.357c0.002-0.133-0.048-0.26-0.14-0.356
		c-0.095-0.098-0.223-0.152-0.36-0.152c-0.13,0-0.254,0.05-0.348,0.14l-0.014,0.014c-0.094,0.096-0.224,0.15-0.365,0.15
		c-0.147-0.004-0.28-0.067-0.371-0.173l-5.283-6.1c-0.087-0.101-0.13-0.23-0.121-0.363c0.01-0.133,0.071-0.255,0.172-0.342
		c0.09-0.078,0.207-0.122,0.327-0.122c0.146,0,0.284,0.063,0.378,0.173l4.991,5.762c0.197-0.092,0.412-0.139,0.633-0.139
		c0.411,0,0.794,0.162,1.079,0.457c0.279,0.288,0.428,0.667,0.421,1.068c-0.007,0.4-0.169,0.774-0.458,1.053l-1.435,1.435
		c-0.284,0.275-0.655,0.425-1.045,0.425C21.074,24.013,21.048,24.012,21.046,24.012z"/>
	<path d="M5.719,9.591c-0.12,0-0.236-0.043-0.327-0.122L1.135,5.778C1.003,5.666,0.878,5.54,0.763,5.405
		c-0.57-0.67-0.844-1.522-0.773-2.399c0.071-0.877,0.479-1.673,1.15-2.243c0.595-0.506,1.351-0.784,2.13-0.784
		c0.089,0,0.179,0.004,0.268,0.011c0.877,0.071,1.674,0.479,2.243,1.15l5.286,6.097c0.088,0.101,0.13,0.23,0.121,0.363
		c-0.009,0.133-0.07,0.255-0.171,0.342c-0.091,0.079-0.207,0.122-0.328,0.122c-0.145,0-0.283-0.063-0.378-0.172L5.022,1.791
		c-0.399-0.47-0.955-0.755-1.565-0.804C3.393,0.981,3.329,0.979,3.265,0.979c-0.547,0-1.058,0.189-1.478,0.546
		C1.32,1.922,1.036,2.477,0.986,3.087C0.937,3.698,1.128,4.291,1.525,4.758c0.08,0.094,0.168,0.182,0.262,0.262l4.26,3.694
		c0.208,0.181,0.231,0.497,0.05,0.705C6.002,9.528,5.864,9.591,5.719,9.591z"/>
</g>
</svg>
