<?xml version="1.0" encoding="utf-8"?>
<!-- Generator: Adobe Illustrator 22.1.0, SVG Export Plug-In . SVG Version: 6.00 Build 0)  -->
<svg version="1.1" id="Light" xmlns="http://www.w3.org/2000/svg" xmlns:xlink="http://www.w3.org/1999/xlink" x="0px" y="0px"
	 viewBox="0 0 24 24" style="enable-background:new 0 0 24 24;" xml:space="preserve">
<g>
	<title>medical-nanobots</title>
	<path d="M5.5,10.942c-0.276,0-0.5-0.224-0.5-0.5V7.751L2.599,6.55L2.581,6.568c-0.525,0.525-0.585,1.368-0.14,1.961L2.9,9.142
		C2.98,9.248,3.014,9.38,2.995,9.512C2.976,9.645,2.907,9.762,2.8,9.842c-0.087,0.065-0.191,0.1-0.3,0.1
		c-0.157,0-0.306-0.075-0.4-0.2L1.641,9.13C0.899,8.14,0.999,6.735,1.874,5.861L2,5.734V2.251C1.998,1.869,2.209,1.525,2.552,1.354
		l2.501-1.248C5.19,0.037,5.344,0.001,5.5,0.001c0.155,0,0.31,0.036,0.448,0.105l2.499,1.247C8.791,1.525,9.002,1.87,9,2.253v3.481
		l0.126,0.126c0.875,0.874,0.975,2.279,0.232,3.269L8.9,9.742c-0.094,0.125-0.243,0.2-0.4,0.2c-0.109,0-0.213-0.035-0.3-0.1
		c-0.107-0.08-0.176-0.197-0.195-0.329C7.986,9.38,8.02,9.248,8.1,9.142l0.459-0.612c0.445-0.594,0.385-1.437-0.14-1.961L8.401,6.55
		L6,7.751v2.691C6,10.717,5.776,10.942,5.5,10.942z M5.5,6.883L8,5.633V2.251c0,0-2.5-1.25-2.5-1.25L2.999,2.248L3,5.633L5.5,6.883z
		"/>
	<path d="M5.5,5.442c-0.827,0-1.5-0.673-1.5-1.5s0.673-1.5,1.5-1.5S7,3.114,7,3.942S6.327,5.442,5.5,5.442z M5.5,3.442
		c-0.276,0-0.5,0.224-0.5,0.5s0.224,0.5,0.5,0.5S6,4.217,6,3.942S5.776,3.442,5.5,3.442z"/>
	<path d="M5.5,24.001c-0.276,0-0.5-0.224-0.5-0.5V20.81l-2.401-1.201l-0.018,0.018c-0.525,0.525-0.585,1.368-0.14,1.961L2.9,22.201
		c0.08,0.107,0.114,0.238,0.095,0.371C2.976,22.703,2.907,22.82,2.8,22.901c-0.088,0.065-0.191,0.1-0.3,0.1
		c-0.157,0-0.307-0.075-0.401-0.2l-0.459-0.612c-0.742-0.989-0.642-2.394,0.232-3.268L2,18.794V15.31
		c0-0.381,0.212-0.724,0.552-0.894l2.5-1.25C5.19,13.096,5.345,13.06,5.5,13.06c0.155,0,0.31,0.037,0.448,0.106l2.5,1.25
		C8.788,14.586,9,14.929,9,15.31v3.484l0.126,0.126c0.875,0.874,0.975,2.28,0.232,3.269L8.9,22.8c-0.094,0.125-0.243,0.2-0.4,0.2
		c-0.109,0-0.212-0.034-0.3-0.1c-0.107-0.08-0.176-0.197-0.195-0.329C7.986,22.439,8.02,22.307,8.1,22.201l0.459-0.612
		c0.445-0.594,0.385-1.437-0.14-1.962l-0.018-0.018L6,20.81v2.691C6,23.776,5.776,24.001,5.5,24.001z M5.5,19.941l2.5-1.25V15.31
		l-2.5-1.25l0-0.25l0,0.25c0,0-2.5,1.25-2.5,1.25l0,3.382L5.5,19.941z"/>
	<path d="M5.5,18.501c-0.827,0-1.5-0.673-1.5-1.5s0.673-1.5,1.5-1.5s1.5,0.673,1.5,1.5S6.327,18.501,5.5,18.501z M5.5,16.501
		c-0.276,0-0.5,0.224-0.5,0.5s0.224,0.5,0.5,0.5s0.5-0.224,0.5-0.5S5.776,16.501,5.5,16.501z"/>
	<path d="M18.5,10.942c-0.276,0-0.5-0.224-0.5-0.5V7.751L15.599,6.55l-0.018,0.018c-0.525,0.525-0.585,1.368-0.14,1.961L15.9,9.142
		c0.08,0.107,0.114,0.238,0.095,0.371c-0.019,0.132-0.088,0.249-0.195,0.329c-0.087,0.065-0.19,0.1-0.3,0.1
		c-0.157,0-0.306-0.075-0.4-0.2L14.641,9.13c-0.742-0.989-0.643-2.394,0.232-3.269L15,5.734V2.251c0-0.38,0.211-0.723,0.551-0.894
		l2.501-1.25c0.138-0.069,0.293-0.105,0.448-0.105c0.155,0,0.31,0.036,0.448,0.106l2.5,1.25C21.788,1.527,22,1.87,22,2.251v3.484
		l0.126,0.126c0.875,0.874,0.975,2.279,0.232,3.269L21.9,9.742c-0.094,0.125-0.243,0.2-0.4,0.2c-0.109,0-0.213-0.035-0.3-0.1
		c-0.106-0.08-0.176-0.197-0.195-0.329C20.986,9.38,21.02,9.248,21.1,9.141l0.459-0.612c0.445-0.594,0.385-1.437-0.14-1.961
		L21.402,6.55L19,7.751v2.691C19,10.717,18.776,10.942,18.5,10.942z M18.5,6.883l2.5-1.25V2.251L18.5,1L16,2.251l0,3.382L18.5,6.883
		z"/>
	<path d="M18.5,5.442c-0.827,0-1.5-0.673-1.5-1.5s0.673-1.5,1.5-1.5s1.5,0.673,1.5,1.5S19.327,5.442,18.5,5.442z M18.5,3.442
		c-0.276,0-0.5,0.224-0.5,0.5s0.224,0.5,0.5,0.5s0.5-0.224,0.5-0.5S18.776,3.442,18.5,3.442z"/>
	<path d="M18.5,24.001c-0.276,0-0.5-0.224-0.5-0.5V20.81l-2.401-1.201l-0.018,0.018c-0.525,0.525-0.585,1.368-0.14,1.961
		l0.459,0.613c0.08,0.106,0.114,0.238,0.095,0.37c-0.019,0.132-0.088,0.25-0.195,0.33c-0.087,0.065-0.191,0.1-0.3,0.1
		c-0.157,0-0.307-0.075-0.4-0.2l-0.459-0.612c-0.742-0.989-0.643-2.394,0.232-3.268L15,18.794V15.31
		c0-0.381,0.211-0.723,0.552-0.894l2.5-1.25c0.137-0.069,0.292-0.105,0.448-0.105c0.156,0,0.311,0.037,0.448,0.106l2.499,1.25
		C21.788,14.586,22,14.929,22,15.31v3.484l0.126,0.126c0.875,0.874,0.975,2.28,0.232,3.269L21.9,22.801
		c-0.094,0.125-0.243,0.2-0.4,0.2c-0.109,0-0.212-0.035-0.3-0.1c-0.107-0.08-0.176-0.197-0.195-0.329
		c-0.019-0.132,0.015-0.264,0.095-0.371l0.459-0.612c0.445-0.594,0.385-1.437-0.14-1.962l-0.018-0.018L19,20.81v2.691
		C19,23.776,18.776,24.001,18.5,24.001z M18.5,19.941l2.5-1.25V15.31l-2.5-1.25L16,15.31l0,3.382L18.5,19.941z"/>
	<path d="M18.5,18.501c-0.827,0-1.5-0.673-1.5-1.5s0.673-1.5,1.5-1.5s1.5,0.673,1.5,1.5S19.327,18.501,18.5,18.501z M18.5,16.501
		c-0.276,0-0.5,0.224-0.5,0.5s0.224,0.5,0.5,0.5s0.5-0.224,0.5-0.5S18.776,16.501,18.5,16.501z"/>
</g>
</svg>
