<?xml version="1.0" encoding="utf-8"?>
<!-- Generator: Adobe Illustrator 22.1.0, SVG Export Plug-In . SVG Version: 6.00 Build 0)  -->
<svg version="1.1" id="Light" xmlns="http://www.w3.org/2000/svg" xmlns:xlink="http://www.w3.org/1999/xlink" x="0px" y="0px"
	 viewBox="0 0 24 24" style="enable-background:new 0 0 24 24;" xml:space="preserve">
<g>
	<title>medical-nanobot-search</title>
	<path d="M23.5,24c-0.134,0-0.259-0.052-0.354-0.146l-5.589-5.589C15.617,20.031,13.121,21,10.5,21C4.71,21,0,16.29,0,10.5
		C0,4.71,4.71,0,10.5,0C16.29,0,21,4.71,21,10.5c0,2.621-0.969,5.117-2.736,7.057l5.589,5.589C23.948,23.241,24,23.366,24,23.5
		s-0.052,0.259-0.146,0.354S23.634,24,23.5,24z M10.5,1C5.262,1,1,5.262,1,10.5S5.262,20,10.5,20s9.5-4.262,9.5-9.5S15.738,1,10.5,1
		z"/>
	<path d="M10.5,17c-0.276,0-0.5-0.224-0.5-0.5v-4.191l-2.362-1.181l-0.747,0.935c-0.442,0.552-0.442,1.323,0,1.875l1,1.251
		c0.083,0.104,0.121,0.235,0.106,0.367c-0.015,0.133-0.08,0.252-0.185,0.335c-0.088,0.071-0.199,0.109-0.312,0.109
		c-0.153,0-0.295-0.068-0.391-0.188l-1-1.251c-0.736-0.92-0.736-2.205,0-3.125L7,10.325V6.809c0-0.381,0.212-0.724,0.552-0.894
		l2.5-1.25c0.138-0.069,0.293-0.105,0.448-0.105c0.155,0,0.31,0.036,0.448,0.106l2.5,1.25C13.789,6.086,14,6.428,14,6.809v3.516
		l0.891,1.114c0.736,0.92,0.736,2.205,0,3.125l-1,1.25c-0.095,0.119-0.238,0.188-0.391,0.188c-0.113,0-0.224-0.039-0.312-0.11
		c-0.104-0.083-0.17-0.202-0.184-0.335c-0.015-0.133,0.023-0.263,0.106-0.367l1-1.251c0.442-0.552,0.442-1.323,0-1.875l-0.748-0.935
		L11,12.309V16.5C11,16.776,10.776,17,10.5,17z M10.5,11.441l2.5-1.25V6.809l-2.5-1.25L8,6.809l0,3.382L10.5,11.441z"/>
	<path d="M10.5,10C9.673,10,9,9.327,9,8.5S9.673,7,10.5,7S12,7.673,12,8.5S11.327,10,10.5,10z M10.5,8C10.224,8,10,8.224,10,8.5
		S10.224,9,10.5,9S11,8.776,11,8.5S10.776,8,10.5,8z"/>
</g>
</svg>
