<?xml version="1.0" encoding="utf-8"?>
<!-- Generator: Adobe Illustrator 22.1.0, SVG Export Plug-In . SVG Version: 6.00 Build 0)  -->
<svg version="1.1" id="Light" xmlns="http://www.w3.org/2000/svg" xmlns:xlink="http://www.w3.org/1999/xlink" x="0px" y="0px"
	 viewBox="0 0 24 24" style="enable-background:new 0 0 24 24;" xml:space="preserve">
<g>
	<title>agriculture-machine-seeder-1</title>
	<path d="M4.5,19.25c-0.216,0-0.406-0.137-0.474-0.342l-0.5-1.5c-0.042-0.127-0.033-0.263,0.027-0.382s0.163-0.208,0.289-0.25
		C3.893,16.759,3.947,16.75,4,16.75c0.215,0,0.406,0.137,0.474,0.342l0.5,1.5c0.042,0.127,0.033,0.263-0.027,0.382
		s-0.163,0.208-0.289,0.25C4.607,19.241,4.554,19.25,4.5,19.25z"/>
	<path d="M1.5,19.25c-0.054,0-0.107-0.009-0.158-0.026c-0.126-0.042-0.229-0.131-0.289-0.25s-0.069-0.255-0.027-0.382l0.5-1.5
		C1.594,16.887,1.784,16.75,2,16.75c0.054,0,0.107,0.009,0.159,0.026c0.126,0.042,0.229,0.131,0.289,0.25s0.069,0.255,0.027,0.382
		l-0.5,1.5C1.906,19.113,1.716,19.25,1.5,19.25z"/>
	<path d="M15,19.25c-0.552,0-1-0.448-1-1v-2.5h-4v2.5c0,0.552-0.449,1-1,1H8c-0.551,0-1-0.448-1-1v-5c0-0.55,0.446-0.998,0.995-1
		l0.429-3.006C8.184,9.208,8,9,8,8.75v-3.5c0-0.276,0.224-0.5,0.5-0.5S9,4.974,9,5.25v1h6v-1c0-0.276,0.224-0.5,0.5-0.5
		S16,4.974,16,5.25v3.5c0,0.25-0.184,0.458-0.424,0.494l0.429,3.006c0.549,0.003,0.995,0.45,0.995,1v5c0,0.552-0.448,1-1,1H15z
		 M15,18.25h1v-1h-1V18.25z M8,18.25h1v-1H8V18.25z M16,16.25v-1h-1v1H16z M9,16.25v-1H8v1H9z M14,14.75v-0.793l-1.061-1.061
		c-0.093-0.093-0.222-0.146-0.354-0.146h-1.172c-0.133,0-0.259,0.052-0.353,0.146L10,13.957v0.793H14z M16,14.25v-1h-1l0,1H16z
		 M9,14.25v-1H8l0,1H9z M12.586,11.75c0.401,0,0.777,0.156,1.061,0.439l0.518,0.518c0.178-0.275,0.486-0.455,0.83-0.457l-0.428-3
		H9.434l-0.428,3c0.344,0.002,0.652,0.182,0.831,0.457l0.518-0.518c0.283-0.283,0.66-0.439,1.06-0.439H12.586z M15,8.25v-1H9v1H15z"
		/>
	<path d="M1,16.25c-0.551,0-1-0.448-1-1v-0.59c0-0.473,0.336-0.885,0.8-0.98l4.602-0.92c0.032-0.007,0.066-0.01,0.1-0.01
		c0.237,0,0.442,0.169,0.489,0.403c0.054,0.27-0.122,0.534-0.392,0.588l-4.6,0.92L1,15.25h4.5c0.276,0,0.5,0.224,0.5,0.5
		s-0.224,0.5-0.5,0.5H1z"/>
	<path d="M19.5,19.25c-0.054,0-0.107-0.009-0.158-0.026c-0.126-0.042-0.229-0.131-0.289-0.25s-0.07-0.255-0.027-0.382l0.5-1.5
		c0.068-0.205,0.259-0.342,0.473-0.342c0.054,0,0.107,0.009,0.159,0.026c0.127,0.042,0.229,0.131,0.289,0.25s0.07,0.255,0.027,0.382
		l-0.5,1.5C19.906,19.113,19.716,19.25,19.5,19.25z"/>
	<path d="M22.5,19.25c-0.216,0-0.406-0.137-0.474-0.342l-0.5-1.5c-0.042-0.127-0.033-0.263,0.027-0.382s0.162-0.208,0.289-0.25
		c0.051-0.017,0.105-0.026,0.158-0.026c0.216,0,0.406,0.137,0.474,0.342l0.5,1.5c0.042,0.127,0.033,0.263-0.027,0.382
		s-0.162,0.208-0.289,0.25C22.607,19.241,22.554,19.25,22.5,19.25z"/>
	<path d="M18.5,16.25c-0.276,0-0.5-0.224-0.5-0.5s0.224-0.5,0.5-0.5H23v-0.59l-4.598-0.92c-0.27-0.054-0.446-0.318-0.392-0.588
		c0.046-0.233,0.251-0.402,0.488-0.402c0.034,0,0.069,0.004,0.103,0.011l4.598,0.919C23.663,13.775,24,14.187,24,14.66v0.59
		c0,0.552-0.448,1-1,1H18.5z"/>
</g>
</svg>
