<?xml version="1.0" encoding="utf-8"?>
<!-- Generator: Adobe Illustrator 22.1.0, SVG Export Plug-In . SVG Version: 6.00 Build 0)  -->
<svg version="1.1" id="Light" xmlns="http://www.w3.org/2000/svg" xmlns:xlink="http://www.w3.org/1999/xlink" x="0px" y="0px"
	 viewBox="0 0 24 24" style="enable-background:new 0 0 24 24;" xml:space="preserve">
<g>
	<title>agriculture-machine-tractor-2</title>
	<path d="M15.543,22c-1.738,0-3.216-1.3-3.461-3H8.004c-0.245,1.7-1.723,3-3.461,3c-1.93,0-3.5-1.57-3.5-3.5s1.57-3.5,3.5-3.5
		c1.738,0,3.216,1.3,3.461,3h4.078c0.068-0.468,0.23-0.919,0.476-1.322L12.474,16H9.043c-0.205,0-0.392-0.128-0.466-0.319
		c-0.622-1.604-2.195-2.682-3.914-2.682C4.628,12.999,4.55,13,4.547,13c-0.02,0-0.032,0-0.044-0.002c-0.1-0.008-0.2-0.012-0.3-0.012
		c-0.437,0-0.867,0.074-1.281,0.221c-0.076,0.069-0.17,0.113-0.274,0.126c-0.017,0.002-0.032,0.003-0.047,0.004
		c-0.673,0.31-1.238,0.803-1.635,1.43C0.874,14.913,0.716,15,0.543,15c-0.095,0-0.187-0.027-0.268-0.078
		c-0.113-0.071-0.191-0.182-0.22-0.313s-0.006-0.264,0.066-0.377c0.472-0.744,1.132-1.34,1.918-1.733L1.102,5H1.043
		c-0.491,0-0.89-0.399-0.891-0.888c0-0.072,0.009-0.146,0.027-0.218C0.457,2.781,1.453,2.002,2.599,2h5.882
		c1.15,0,2.147,0.779,2.426,1.894c0.066,0.269,0.007,0.548-0.164,0.765C10.579,4.872,10.317,5,10.044,5h-0.1l-1.845,8.303
		C8.636,13.777,9.073,14.358,9.373,15h2.976l-0.259-2.069c-0.045-0.356,0.04-0.718,0.24-1.018l0.133-0.198l-1.047-0.698l-0.444,0.74
		C10.882,11.907,10.718,12,10.543,12c-0.09,0-0.179-0.025-0.257-0.071c-0.115-0.069-0.195-0.178-0.228-0.307
		s-0.012-0.264,0.056-0.379l1.5-2.5c0.09-0.15,0.254-0.243,0.429-0.243c0.09,0,0.179,0.025,0.257,0.071
		c0.237,0.142,0.313,0.45,0.172,0.686l-0.541,0.901l1.087,0.724l0.812-1.216C14.109,9.25,14.576,9,15.078,9h6.465
		c0.47,0,0.918,0.224,1.2,0.6l0.918,1.218c0.273,0.364,0.366,0.825,0.256,1.266l-1.2,4.781C22.55,17.533,21.951,18,21.262,18h-2.257
		c0.025,0.168,0.038,0.336,0.038,0.5C19.043,20.43,17.473,22,15.543,22z M15.543,16c-1.378,0-2.5,1.122-2.5,2.5s1.122,2.5,2.5,2.5
		s2.5-1.122,2.5-2.5S16.922,16,15.543,16z M4.543,16c-1.379,0-2.5,1.122-2.5,2.5s1.121,2.5,2.5,2.5s2.5-1.122,2.5-2.5
		S5.922,16,4.543,16z M21.262,17c0.23,0,0.429-0.156,0.485-0.379L22.405,14h-5.362c-0.276,0-0.5-0.224-0.5-0.5s0.224-0.5,0.5-0.5
		h5.613l0.291-1.16c0.037-0.146,0.006-0.3-0.085-0.421l-0.918-1.218C21.849,10.075,21.7,10,21.543,10h-6.465
		c-0.167,0-0.323,0.083-0.416,0.222l-1.072,1.605c-0.006,0.011-0.012,0.022-0.018,0.031c-0.004,0.006-0.011,0.015-0.018,0.023
		l-0.392,0.587c-0.066,0.099-0.094,0.22-0.079,0.339l0.33,2.641c0.003,0.014,0.005,0.028,0.005,0.042l0.026,0.212
		C14.048,15.246,14.777,15,15.543,15c1.359,0,2.582,0.78,3.161,2H21.262z M4.668,11.998c0.895,0,1.768,0.232,2.548,0.673L7.587,11
		H6.264c-0.647,0-1.219-0.412-1.423-1.026L4.183,8H2.485l0.517,4.139c0.393-0.101,0.797-0.152,1.203-0.152
		c0.121,0,0.243,0.005,0.365,0.014C4.585,11.999,4.627,11.998,4.668,11.998z M4.543,7C4.759,7,4.95,7.137,5.018,7.342L5.79,9.658
		C5.858,9.863,6.049,10,6.264,10h1.545L8.92,5H2.11l0.25,2H4.543z M9.896,4C9.687,3.405,9.124,3,8.482,3H2.601
		C1.961,3.001,1.4,3.406,1.19,4H9.896z"/>
	<circle cx="4.543" cy="18.5" r="0.75"/>
	<circle cx="15.543" cy="18.5" r="0.75"/>
</g>
</svg>
