<?xml version="1.0" encoding="utf-8"?>
<!-- Generator: Adobe Illustrator 22.1.0, SVG Export Plug-In . SVG Version: 6.00 Build 0)  -->
<svg version="1.1" id="Light" xmlns="http://www.w3.org/2000/svg" xmlns:xlink="http://www.w3.org/1999/xlink" x="0px" y="0px"
	 viewBox="0 0 24 24" style="enable-background:new 0 0 24 24;" xml:space="preserve">
<g>
	<title>agriculture-machine-tractor</title>
	<path d="M18,22c-1.508,0-2.894-0.745-3.735-2H7.326c-0.421,1.187-1.557,2-2.826,2c-1.654,0-3-1.346-3-3s1.346-3,3-3s3,1.346,3,3
		h6.26c-0.173-0.484-0.26-0.987-0.26-1.5c0-2.481,2.019-4.5,4.5-4.5s4.5,2.019,4.5,4.5S20.481,22,18,22z M18,14
		c-1.93,0-3.5,1.57-3.5,3.5S16.07,21,18,21s3.5-1.57,3.5-3.5S19.93,14,18,14z M4.5,17c-1.103,0-2,0.897-2,2s0.897,2,2,2s2-0.897,2-2
		S5.602,17,4.5,17z"/>
	<path d="M1,17.5c-0.276,0-0.5-0.224-0.5-0.5v-4c0-0.179,0.097-0.345,0.252-0.434c1.76-1.006,3.664-1.698,5.659-2.058
		c0.346-0.082,0.72-0.16,1.13-0.234L8.862,4.99C8.375,4.923,8,4.505,8,4V3.5C8,2.673,8.672,2,9.5,2h9C19.327,2,20,2.673,20,3.5V4
		c0,0.509-0.382,0.93-0.873,0.992l1.37,5.94c1.178,0.458,2.183,1.244,2.912,2.28c0.158,0.226,0.104,0.538-0.121,0.697
		C23.203,13.969,23.103,14,23,14c-0.163,0-0.316-0.08-0.409-0.212c-0.638-0.908-1.522-1.586-2.558-1.964
		c-0.085-0.008-0.16-0.033-0.225-0.074c-0.53-0.167-1.077-0.252-1.627-0.252c-0.055,0-0.11,0.001-0.165,0.003
		c-0.902,0-1.711,0.126-2.414,0.373c0,0.001-0.021,0.009-0.043,0.016c-0.59,0.212-1.122,0.523-1.569,0.92
		c-0.035,0.045-0.076,0.082-0.123,0.112c-1.191,1.141-1.363,2.574-1.37,2.635C12.468,15.809,12.255,16,12,16h-2
		c-0.258,0-0.472-0.194-0.498-0.45L9.447,15H5.5C5.224,15,5,14.776,5,14.5S5.224,14,5.5,14h3.848l-0.295-2.948
		c-0.295,0.036-0.599,0.08-0.922,0.133c-0.062,0.026-0.125,0.04-0.187,0.04c-0.014,0-0.028-0.001-0.042-0.002
		c-0.433,0.076-0.866,0.164-1.288,0.264C4.806,11.813,3.09,12.42,1.5,13.293V17C1.5,17.276,1.275,17.5,1,17.5z M11.592,15
		c0.114-0.447,0.373-1.221,0.925-2H12c-0.276,0-0.5-0.224-0.5-0.5c0-0.276,0.224-0.5,0.5-0.5h1.424
		c0.454-0.392,0.977-0.711,1.556-0.951l0.529-2.647C15.556,8.169,15.761,8,15.998,8c0.033,0,0.066,0.003,0.1,0.01
		c0.27,0.054,0.446,0.318,0.392,0.588l-0.421,2.107C16.668,10.569,17.316,10.5,18,10.5c0.055-0.002,0.118-0.003,0.181-0.003
		c0.406,0,0.813,0.04,1.216,0.119L18.102,5H9.89l-1.276,5.103c0.248-0.034,0.483-0.063,0.709-0.087l1.098-0.732l-0.338-0.507
		c-0.074-0.111-0.1-0.245-0.074-0.375c0.026-0.131,0.102-0.244,0.213-0.318C10.304,8.029,10.4,8,10.499,8
		c0.168,0,0.323,0.083,0.416,0.223l1,1.5c0.074,0.111,0.1,0.245,0.074,0.375c-0.026,0.131-0.102,0.244-0.213,0.318
		C11.695,10.471,11.599,10.5,11.5,10.5c-0.168,0-0.323-0.083-0.416-0.223l-0.107-0.161l-0.949,0.633L11.592,15z M9.5,3
		C9.224,3,9,3.224,9,3.5V4h10V3.5C19,3.224,18.775,3,18.5,3H9.5z"/>
	<path d="M18,19.5c-1.103,0-2-0.897-2-2s0.897-2,2-2s2,0.897,2,2S19.102,19.5,18,19.5z M18,16.5c-0.552,0-1,0.448-1,1s0.448,1,1,1
		s1-0.448,1-1S18.551,16.5,18,16.5z"/>
</g>
</svg>
