<?xml version="1.0" encoding="utf-8"?>
<!-- Generator: Adobe Illustrator 22.1.0, SVG Export Plug-In . SVG Version: 6.00 Build 0)  -->
<svg version="1.1" id="Light" xmlns="http://www.w3.org/2000/svg" xmlns:xlink="http://www.w3.org/1999/xlink" x="0px" y="0px"
	 viewBox="0 0 24 24" style="enable-background:new 0 0 24 24;" xml:space="preserve">
<g>
	<title>agriculture-machine-disk-plow</title>
	<path d="M14.003,24.001c-0.386,0-0.77-0.056-1.141-0.167c-2.114-0.629-3.322-2.86-2.693-4.974c0.17-0.571,0.461-1.086,0.864-1.533
		c0.017-0.047,0.039-0.089,0.068-0.127L13.5,14H9.75l-1.564,2.085C8.455,16.029,8.729,16,9.007,16c0.383,0,0.765,0.056,1.136,0.166
		c0.264,0.079,0.415,0.358,0.337,0.622c-0.063,0.213-0.256,0.357-0.48,0.357c-0.047,0-0.094-0.007-0.14-0.02
		C9.579,17.042,9.291,17,9.003,17c-1.318,0-2.501,0.882-2.876,2.145c-0.472,1.585,0.435,3.259,2.02,3.731
		c0.278,0.083,0.567,0.125,0.856,0.125c0.447,0,0.879-0.097,1.283-0.289c0.068-0.032,0.14-0.048,0.214-0.048
		c0.192,0,0.37,0.112,0.452,0.286c0.057,0.121,0.064,0.256,0.019,0.382c-0.045,0.126-0.136,0.227-0.257,0.284
		C10.181,23.867,9.59,24,9.003,24c-0.387,0-0.771-0.056-1.141-0.167c-2.114-0.629-3.322-2.86-2.693-4.974
		c0.17-0.571,0.461-1.086,0.865-1.533c0.016-0.046,0.039-0.088,0.068-0.126L8.5,14H4.75l-1.564,2.085
		C3.455,16.029,3.729,16,4.007,16c0.383,0,0.765,0.056,1.136,0.166c0.264,0.079,0.415,0.358,0.337,0.622
		c-0.063,0.214-0.256,0.357-0.48,0.357c-0.047,0-0.094-0.007-0.14-0.02C4.579,17.042,4.291,17,4.003,17
		c-1.318,0-2.501,0.882-2.876,2.145c-0.472,1.585,0.435,3.259,2.02,3.731c0.278,0.083,0.566,0.125,0.856,0.125
		c0.441,0,0.884-0.1,1.283-0.289c0.068-0.032,0.14-0.048,0.214-0.048c0.193,0,0.37,0.112,0.452,0.286
		c0.057,0.121,0.064,0.256,0.019,0.382c-0.045,0.126-0.136,0.227-0.257,0.284C5.181,23.867,4.59,24,4.003,24
		c-0.387,0-0.771-0.056-1.141-0.167c-2.114-0.629-3.322-2.86-2.693-4.974c0.17-0.571,0.461-1.086,0.865-1.533
		c0.016-0.046,0.039-0.088,0.068-0.126L3.5,14H1c-0.551,0-1-0.448-1-1v-1c0-0.551,0.449-1,1-1h1.333L10,5.25V2c0-1.103,0.897-2,2-2
		s2,0.897,2,2v3.25L21.667,11H23c0.552,0,1,0.449,1,1v1c0,0.552-0.448,1-1,1h-2.75l-1.562,2.083C18.953,16.028,19.225,16,19.5,16
		c2.206,0,4,1.794,4,4s-1.794,4-4,4s-4-1.794-4-4c0-0.988,0.366-1.935,1.032-2.674c0.017-0.046,0.039-0.089,0.068-0.127L19,14h-4.25
		l-1.564,2.085c0.269-0.057,0.544-0.085,0.822-0.085c0.383,0,0.765,0.056,1.135,0.165c0.264,0.079,0.416,0.358,0.337,0.622
		c-0.064,0.214-0.257,0.357-0.48,0.357c-0.048,0-0.095-0.007-0.141-0.02c-0.281-0.084-0.568-0.126-0.856-0.126
		c-1.318,0-2.5,0.882-2.876,2.145c-0.472,1.585,0.435,3.259,2.02,3.731C13.425,22.958,13.713,23,14.003,23
		c0.44,0,0.884-0.1,1.283-0.289c0.067-0.032,0.139-0.048,0.214-0.048c0.193,0,0.37,0.113,0.452,0.287
		c0.057,0.12,0.064,0.256,0.019,0.382c-0.045,0.126-0.136,0.226-0.257,0.283C15.174,23.871,14.598,24,14.003,24.001L14.003,24.001z
		 M19.5,17c-1.654,0-3,1.346-3,3s1.346,3,3,3s3-1.346,3-3S21.154,17,19.5,17z M1,13h22v-1H1h0L1,13z M20,11l-6-4.5V11H20z M13,11V4
		h-2v7H13z M10,11V6.5L4,11H10z M13,3V2c0-0.551-0.448-1-1-1c-0.551,0-1,0.449-1,1v1H13z"/>
</g>
</svg>
