<?xml version="1.0" encoding="utf-8"?>
<!-- Generator: Adobe Illustrator 22.1.0, SVG Export Plug-In . SVG Version: 6.00 Build 0)  -->
<svg version="1.1" id="Light" xmlns="http://www.w3.org/2000/svg" xmlns:xlink="http://www.w3.org/1999/xlink" x="0px" y="0px"
	 viewBox="0 0 24 24" style="enable-background:new 0 0 24 24;" xml:space="preserve">
<g>
	<title>agriculture-machine-tractor-1</title>
	<path d="M10.25,18.5c-0.827,0-1.5-0.673-1.5-1.5s0.673-1.5,1.5-1.5s1.5,0.673,1.5,1.5S11.077,18.5,10.25,18.5z M10.25,16.5
		c-0.276,0-0.5,0.224-0.5,0.5s0.224,0.5,0.5,0.5s0.5-0.224,0.5-0.5S10.526,16.5,10.25,16.5z"/>
	<path d="M10.25,21c-1.824,0-3.422-1.25-3.873-3H4.62c0.086,0.241,0.13,0.494,0.13,0.75C4.75,19.991,3.741,21,2.5,21
		s-2.25-1.009-2.25-2.25V13.5c0-1.199,0.845-2.215,2-2.449V10c0-0.276,0.224-0.5,0.5-0.5s0.5,0.224,0.5,0.5v1h3V6
		c-0.551,0-1-0.449-1-1V4c0-0.551,0.449-1,1-1h9c0.552,0,1,0.449,1,1v1c0,0.551-0.448,1-1,1h-0.577l-1.166,7h5.434
		c0.552,0,1,0.448,1,1c0,0.155-0.037,0.31-0.106,0.448l-2.5,4.999C17.165,19.789,16.822,20,16.441,20h-3.554
		C12.154,20.646,11.222,21,10.25,21z M10.25,14c-1.654,0-3,1.346-3,3s1.346,3,3,3s3-1.346,3-3S11.904,14,10.25,14z M2.5,17.5
		c-0.689,0-1.25,0.561-1.25,1.25S1.811,20,2.5,20s1.25-0.561,1.25-1.25S3.189,17.5,2.5,17.5z M16.441,19l2.5-5l-5.6,0l-0.065,0.392
		c0.63,0.729,0.975,1.65,0.975,2.608c0,0.709-0.186,1.392-0.541,2H16.441z M6.25,17v-5h-3.5c-0.827,0-1.5,0.673-1.5,1.5v3.382
		C1.618,16.635,2.052,16.5,2.5,16.5c0.513,0,1.009,0.177,1.41,0.5H6.25z M7.25,14.362C8.003,13.508,9.095,13,10.25,13
		c0.767,0,1.499,0.215,2.139,0.624l0.354-2.124h-2.375c-0.572,0-1.086-0.318-1.341-0.829L8.942,10.5H7.25V14.362z M9.921,10.223
		c0.085,0.171,0.257,0.277,0.447,0.277h2.542L13.66,6H7.25v3.5h1.36L8.265,8.121c-0.067-0.268,0.096-0.54,0.364-0.606
		C8.669,7.505,8.71,7.5,8.75,7.5c0.23,0,0.43,0.156,0.485,0.379l0.487,1.947L9.921,10.223z M6.25,5h9V4h-9L6.25,5z"/>
	<path d="M21.75,21c-0.072,0-0.143-0.016-0.212-0.049c-0.015-0.007-0.046-0.026-0.059-0.036c-0.033-0.021-0.064-0.046-0.092-0.075
		c-0.014-0.012-0.026-0.025-0.036-0.038L19.85,18.8c-0.08-0.106-0.114-0.238-0.095-0.37c0.019-0.132,0.088-0.25,0.195-0.33
		c0.087-0.065,0.19-0.1,0.3-0.1c0.157,0,0.307,0.075,0.4,0.201l0.6,0.8v-1c0-0.276,0.224-0.5,0.5-0.5s0.5,0.224,0.5,0.5v1l0.6-0.8
		c0.094-0.125,0.244-0.2,0.4-0.2c0.109,0,0.212,0.035,0.3,0.1c0.107,0.08,0.176,0.197,0.195,0.329
		c0.019,0.132-0.015,0.264-0.095,0.371l-1.5,2c-0.01,0.013-0.023,0.027-0.036,0.039c-0.026,0.028-0.06,0.055-0.1,0.081
		c-0.003,0.003-0.025,0.02-0.057,0.034C21.894,20.984,21.822,21,21.75,21z"/>
</g>
</svg>
