<?xml version="1.0" encoding="utf-8"?>
<!-- Generator: Adobe Illustrator 22.1.0, SVG Export Plug-In . SVG Version: 6.00 Build 0)  -->
<svg version="1.1" id="Light" xmlns="http://www.w3.org/2000/svg" xmlns:xlink="http://www.w3.org/1999/xlink" x="0px" y="0px"
	 viewBox="0 0 24 24" style="enable-background:new 0 0 24 24;" xml:space="preserve">
<g>
	<title>agriculture-machine-seeder-2</title>
	<path d="M21,20.75c-0.552,0-1-0.448-1-1v-2h-3v1c0,0.276-0.224,0.5-0.5,0.5s-0.5-0.224-0.5-0.5v-1h-2v1c0,0.276-0.224,0.5-0.5,0.5
		s-0.5-0.224-0.5-0.5v-1h-2v1c0,0.276-0.224,0.5-0.5,0.5s-0.5-0.224-0.5-0.5v-1H8v1c0,0.276-0.224,0.5-0.5,0.5S7,19.026,7,18.75v-1
		H4v2c0,0.552-0.449,1-1,1H1c-0.551,0-1-0.448-1-1v-5c0-0.552,0.449-1,1-1h1v-6.5c-0.551,0-1-0.449-1-1v-1.5
		c0-0.827,0.673-1.5,1.5-1.5h19c0.827,0,1.5,0.673,1.5,1.5v1.5c0,0.551-0.448,1-1,1v6.5h1c0.552,0,1,0.448,1,1v5
		c0,0.552-0.448,1-1,1H21z M21,19.75h2v-5h-2.473l1.397,2.235c0.096,0.154,0.102,0.348,0.014,0.507
		c-0.088,0.159-0.256,0.258-0.438,0.258H21V19.75z M1,19.75h2v-2H2.5c-0.182,0-0.349-0.099-0.437-0.258
		c-0.088-0.158-0.083-0.353,0.013-0.507l1.397-2.235H1L1,19.75z M20.598,16.75l-1.875-3l-13.447,0l-1.874,3H20.598z M21,13.75v-6.5
		c0-0.551,0.448-1,1-1v-1.5c0-0.276-0.224-0.5-0.5-0.5h-19C2.224,4.25,2,4.474,2,4.75v1.5c0.551,0,1,0.449,1,1v6.5h1v-6.5
		c0-0.551,0.449-1,1-1h14c0.552,0,1,0.449,1,1v6.5H21z M18.723,12.75c0.095,0,0.188,0.013,0.277,0.039V7.25h-2v5.5H18.723z
		 M5,12.789c0.089-0.026,0.182-0.039,0.277-0.039H7v-5.5l-2,0L5,12.789z M16,12.75v-5.5h-2v5.5H16z M13,12.75v-5.5h-2v5.5H13z
		 M10,12.75v-5.5H8v5.5H10z"/>
</g>
</svg>
