<?xml version="1.0" encoding="utf-8"?>
<!-- Generator: Adobe Illustrator 22.1.0, SVG Export Plug-In . SVG Version: 6.00 Build 0)  -->
<svg version="1.1" id="Light" xmlns="http://www.w3.org/2000/svg" xmlns:xlink="http://www.w3.org/1999/xlink" x="0px" y="0px"
	 viewBox="0 0 24 24" style="enable-background:new 0 0 24 24;" xml:space="preserve">
<g>
	<title>agriculture-machine-seeder-3</title>
	<path d="M21,21.5c-0.276,0-0.5-0.224-0.5-0.5v-6h-2v0.5c0,0.276-0.224,0.5-0.5,0.5s-0.5-0.224-0.5-0.5V15h-4v6
		c0,0.276-0.224,0.5-0.5,0.5s-0.5-0.224-0.5-0.5v-6h-2v0.5c0,0.276-0.224,0.5-0.5,0.5s-0.5-0.224-0.5-0.5V15h-4v6
		c0,0.276-0.224,0.5-0.5,0.5S4.5,21.276,4.5,21v-6h-2v0.5C2.5,15.776,2.276,16,2,16s-0.5-0.224-0.5-0.5v-0.969l-0.456-3.645
		C0.713,10.718,0.5,10.379,0.5,10V9c0-0.551,0.449-1,1-1h2V6.5C3.5,5.673,4.173,5,5,5h1.5V2.5C6.5,1.673,7.173,1,8,1h5.5V0.5
		C13.5,0.224,13.724,0,14,0s0.5,0.224,0.5,0.5V1H16c0.827,0,1.5,0.673,1.5,1.5V5H19c0.827,0,1.5,0.673,1.5,1.5V8h2
		c0.552,0,1,0.449,1,1v1c0,0.379-0.213,0.718-0.544,0.886l-0.459,3.676C22.465,14.812,22.252,15,22,15h-0.5v6
		C21.5,21.276,21.276,21.5,21,21.5z M21.559,14l0.375-3h-3.867l0.375,3H21.559z M17.434,14l-0.389-3.114
		C16.713,10.718,16.5,10.379,16.5,10V9c0-0.551,0.448-1,1-1h2V6.5C19.5,6.224,19.276,6,19,6h-1.586C17.205,6.59,16.64,7,16,7H8
		C7.36,7,6.795,6.59,6.586,6H5C4.724,6,4.5,6.224,4.5,6.5V8h2c0.551,0,1,0.449,1,1v1c0,0.379-0.213,0.718-0.544,0.886L6.566,14
		h2.867l-0.389-3.114C8.713,10.718,8.5,10.379,8.5,10V9c0-0.551,0.449-1,1-1h5c0.552,0,1,0.449,1,1v1
		c0,0.379-0.213,0.718-0.544,0.886L14.566,14H17.434z M13.559,14l0.375-3h-3.867l0.375,3H13.559z M5.559,14l0.375-3H2.066l0.375,3
		H5.559z M17.5,10h5V9h-5L17.5,10z M9.5,10h5V9h-5L9.5,10z M1.5,10h5V9h-5L1.5,10z M16,6c0.276,0,0.5-0.224,0.5-0.5v-3
		C16.5,2.224,16.276,2,16,2H8C7.724,2,7.5,2.224,7.5,2.5V3H13c0.276,0,0.5,0.224,0.5,0.5V6H16z M7.5,5.5C7.5,5.776,7.724,6,8,6h4.5
		V4h-5V5.5z"/>
	<path d="M2,24c-0.726,0-1.5-0.131-1.5-1.7v-3.6C0.5,17.131,1.274,17,2,17s1.5,0.131,1.5,1.7v3.6C3.5,23.869,2.726,24,2,24z
		 M1.5,22.3C1.5,23,1.519,23,2,23s0.5,0,0.5-0.7V22h-1V22.3z M2.5,21v-1h-1v1H2.5z M2.5,19v-0.3C2.5,18,2.481,18,2,18
		s-0.5,0-0.5,0.7V19H2.5z"/>
	<path d="M10,24c-0.726,0-1.5-0.131-1.5-1.7v-3.6c0-1.569,0.774-1.7,1.5-1.7s1.5,0.131,1.5,1.7v3.6C11.5,23.869,10.726,24,10,24z
		 M9.5,22.3C9.5,23,9.519,23,10,23s0.5,0,0.5-0.7V22h-1V22.3z M10.5,21v-1h-1v1H10.5z M10.5,19v-0.3c0-0.7-0.019-0.7-0.5-0.7
		s-0.5,0-0.5,0.7V19H10.5z"/>
	<path d="M18,24c-0.726,0-1.5-0.131-1.5-1.7v-3.6c0-1.569,0.774-1.7,1.5-1.7s1.5,0.131,1.5,1.7v3.6C19.5,23.869,18.726,24,18,24z
		 M17.5,22.3c0,0.7,0.019,0.7,0.5,0.7s0.5,0,0.5-0.7V22h-1V22.3z M18.5,21v-1h-1v1H18.5z M18.5,19v-0.3c0-0.7-0.019-0.7-0.5-0.7
		s-0.5,0-0.5,0.7V19H18.5z"/>
</g>
</svg>
