<?xml version="1.0" encoding="utf-8"?>
<!-- Generator: Adobe Illustrator 22.1.0, SVG Export Plug-In . SVG Version: 6.00 Build 0)  -->
<svg version="1.1" id="Light" xmlns="http://www.w3.org/2000/svg" xmlns:xlink="http://www.w3.org/1999/xlink" x="0px" y="0px"
	 viewBox="0 0 24 24" style="enable-background:new 0 0 24 24;" xml:space="preserve">
<g>
	<title>agriculture-machine-harvester-1</title>
	<path d="M10,22.25c-1.077,0-2.057-0.571-2.595-1.5H5.482c-0.122,0.847-0.852,1.5-1.732,1.5s-1.61-0.653-1.732-1.5H0.5
		c-0.276,0-0.5-0.224-0.5-0.5s0.224-0.5,0.5-0.5H2v-2H0.5c-0.276,0-0.5-0.224-0.5-0.5s0.224-0.5,0.5-0.5H2v-0.5
		c0-0.057,0.011-0.113,0.033-0.173c0.002-0.006,0.013-0.033,0.016-0.039c0.005-0.013,0.01-0.023,0.016-0.035l3.713-6.501
		c0.268-0.464,0.766-0.752,1.3-0.752H7.14l0.658-1.974C8.002,6.162,8.574,5.75,9.221,5.75h1.431l0.187-0.827
		c0.153-0.689,0.754-1.172,1.461-1.173h0.464l0.216-0.864c0.167-0.669,0.765-1.136,1.455-1.136h2.438
		c0.689,0,1.287,0.467,1.455,1.135l0.231,0.922c0.555,0.155,0.977,0.618,1.073,1.197l0.667,4c0.066,0.396-0.026,0.793-0.259,1.119
		c-0.233,0.326-0.579,0.542-0.974,0.607c-0.081,0.014-0.163,0.02-0.245,0.02H12v6.266c0.637,0.57,1,1.378,1,2.234
		C13,20.904,11.654,22.25,10,22.25z M10,17.25c-1.103,0-2,0.897-2,2s0.897,2,2,2s2-0.897,2-2S11.103,17.25,10,17.25z M3.75,19.75
		C3.336,19.75,3,20.086,3,20.5s0.336,0.75,0.75,0.75S4.5,20.914,4.5,20.5S4.164,19.75,3.75,19.75z M7.043,19.75
		C7.015,19.583,7,19.416,7,19.25c0-1.654,1.346-3,3-3c0.344,0,0.679,0.058,1,0.173V9.75H7.08C6.9,9.75,6.734,9.846,6.645,10
		l-3.284,5.75H6c0.276,0,0.5,0.224,0.5,0.5s-0.224,0.5-0.5,0.5H3v2.17c0.233-0.111,0.489-0.17,0.75-0.17
		c0.678,0,1.292,0.395,1.579,1H7.043z M18.818,9.75c0.027,0,0.054-0.002,0.081-0.007c0.132-0.022,0.247-0.094,0.325-0.203
		c0.078-0.108,0.108-0.241,0.086-0.373l-0.667-4c-0.04-0.242-0.248-0.418-0.493-0.418h-5.85c-0.235,0-0.435,0.161-0.486,0.391
		L11,8.75h0.5c0.276,0,0.5,0.224,0.5,0.5v0.5H18.818z M9.975,8.75l0.451-2H9.221c-0.216,0-0.406,0.137-0.474,0.342L8.194,8.75H9.975
		z M17.513,3.75l-0.156-0.622c-0.056-0.223-0.256-0.378-0.485-0.378h-2.438c-0.23,0-0.429,0.156-0.485,0.378L13.793,3.75H17.513z"/>
	<path d="M19.5,22.25c-2.481,0-4.5-2.019-4.5-4.5s2.019-4.5,4.5-4.5c1.604,0,3.099,0.869,3.902,2.268
		c0.007,0.01,0.013,0.022,0.018,0.031C23.796,16.208,24,16.976,24,17.75C24,20.231,21.981,22.25,19.5,22.25z M19.5,14.25
		c-1.93,0-3.5,1.57-3.5,3.5s1.57,3.5,3.5,3.5s3.5-1.57,3.5-3.5c0-0.525-0.114-1.029-0.34-1.5H20c-1.159,0-2,0.631-2,1.5
		c0,0.827,0.673,1.5,1.5,1.5c0.238,0,0.413-0.067,0.535-0.204c0.103-0.115,0.162-0.278,0.162-0.447c0-0.014-0.002-0.349-0.197-0.349
		c-0.276,0-0.5-0.224-0.5-0.5s0.224-0.5,0.5-0.5c0.694,0,1.197,0.567,1.197,1.349c0,0.411-0.152,0.817-0.416,1.113
		c-0.219,0.246-0.62,0.538-1.281,0.538c-1.378,0-2.5-1.122-2.5-2.5c0-1.448,1.262-2.5,3-2.5h1.943
		C21.292,14.609,20.426,14.25,19.5,14.25z"/>
</g>
</svg>
