<svg xmlns="http://www.w3.org/2000/svg" viewBox="0 0 24 24"><title>equipment-hammer-stone</title><path d="M20.5,17h2A1.5,1.5,0,0,0,24,15.5v-4A1.5,1.5,0,0,0,22.5,10H1.5A1.5,1.5,0,0,0,.029,11.8,6.517,6.517,0,0,0,6.4,17h4.1A1.5,1.5,0,0,1,12,18.5c0,1.063-.606,1.262-1.869,1.577-1.193.3-2.828.706-3.093,2.8A1,1,0,0,0,8.03,24H22.969a1,1,0,0,0,.991-1.131c-.269-2.05-1.831-2.459-3.085-2.787C19.643,19.759,19,19.542,19,18.5A1.5,1.5,0,0,1,20.5,17ZM1.01,11.6A.5.5,0,0,1,1.5,11H8v5H6.4A5.513,5.513,0,0,1,1.01,11.6Zm19.611,9.449c1.162.3,2.166.567,2.348,1.951H8.03c.17-1.344,1-1.617,2.344-1.953C11.544,20.755,13,20.391,13,18.5A2.5,2.5,0,0,0,10.5,16H9V11H22.5a.5.5,0,0,1,.5.5v4a.5.5,0,0,1-.5.5h-2A2.5,2.5,0,0,0,18,18.5C18,20.362,19.453,20.743,20.621,21.049Z"/><path d="M.5,5H12V7.5A1.5,1.5,0,0,0,13.5,9h4A1.5,1.5,0,0,0,19,7.5v-6A1.5,1.5,0,0,0,17.5,0h-4A1.5,1.5,0,0,0,12,1.5V4H.5a.5.5,0,0,0,0,1ZM13,1.5a.5.5,0,0,1,.5-.5h4a.5.5,0,0,1,.5.5v6a.5.5,0,0,1-.5.5h-4a.5.5,0,0,1-.5-.5Z"/></svg>