<svg xmlns="http://www.w3.org/2000/svg" viewBox="0 0 24 24"><title>equipment-cement-cart</title><path d="M23.763,5.888a.5.5,0,0,0-.708,0L20.181,8.74H.887a.772.772,0,0,0-.712.386.773.773,0,0,0,.071.808l3.792,5.73a3.49,3.49,0,1,0,5.8,3.076h1.05a1.87,1.87,0,0,0,1.207-.5l2.073-2.072,4.493,3.853a.5.5,0,0,0,.125.079,1.506,1.506,0,0,0,.6.127,1.5,1.5,0,0,0,1.5-1.5V9.448L23.76,6.6A.5.5,0,0,0,23.763,5.888ZM6.387,20.74a2.5,2.5,0,1,1,2.5-2.5A2.5,2.5,0,0,1,6.387,20.74Zm5-3.207a.91.91,0,0,1-.5.207H9.837a3.5,3.5,0,0,0-3.45-3,3.46,3.46,0,0,0-1.521.363L1.318,9.74H19.18Zm8.274,1.613a.5.5,0,0,1-.416.059l-4.368-3.747,5.01-5.011v8.279A.5.5,0,0,1,19.661,19.146Z"/><path d="M2.8,7.609a.5.5,0,0,0,.669-.229A1.945,1.945,0,0,1,5.243,6.213a2.036,2.036,0,0,1,.951.234.49.49,0,0,0,.447.009A.5.5,0,0,0,6.917,6.1a3.539,3.539,0,0,1,6.94,0,.5.5,0,0,0,.723.343,2.035,2.035,0,0,1,.953-.234A1.948,1.948,0,0,1,17.3,7.382a.5.5,0,0,0,.9-.444,2.953,2.953,0,0,0-2.662-1.725,3.028,3.028,0,0,0-.851.12,4.538,4.538,0,0,0-8.59,0,3.019,3.019,0,0,0-.849-.12A2.949,2.949,0,0,0,2.573,6.94.5.5,0,0,0,2.8,7.609Z"/></svg>