<svg xmlns="http://www.w3.org/2000/svg" viewBox="0 0 24 24"><title>equipment-cement</title><path d="M23.771,10.863A1,1,0,0,0,23,10.5H1a1,1,0,0,0-.982,1.188l1.5,7.874a3,3,0,0,0,2.656,2.406A2.982,2.982,0,0,0,9.816,22h4.368a2.982,2.982,0,0,0,5.64-.026,3,3,0,0,0,2.658-2.412l1.5-7.874A1,1,0,0,0,23.771,10.863ZM7,23a2,2,0,1,1,2-2A2,2,0,0,1,7,23Zm10,0a2,2,0,1,1,2-2A2,2,0,0,1,17,23Zm4.5-3.626a2,2,0,0,1-1.506,1.566A3,3,0,0,0,14,21H10a3,3,0,0,0-5.994-.06A2,2,0,0,1,2.5,19.374L1,11.5H23Z"/><path d="M1.5,9.5A.5.5,0,0,0,2,9,3.5,3.5,0,0,1,5.5,5.5a3.61,3.61,0,0,1,.592.05.5.5,0,0,0,.569-.373,5.5,5.5,0,0,1,10.678,0,.5.5,0,0,0,.569.373A3.61,3.61,0,0,1,18.5,5.5,3.5,3.5,0,0,1,22,9a.5.5,0,0,0,1,0,4.505,4.505,0,0,0-4.5-4.5c-.1,0-.208,0-.311.011a6.5,6.5,0,0,0-12.378,0C5.708,4.5,5.6,4.5,5.5,4.5A4.505,4.505,0,0,0,1,9,.5.5,0,0,0,1.5,9.5Z"/></svg>