<?xml version="1.0" encoding="utf-8"?>
<!-- Generator: Adobe Illustrator 22.1.0, SVG Export Plug-In . SVG Version: 6.00 Build 0)  -->
<svg version="1.1" id="Light" xmlns="http://www.w3.org/2000/svg" xmlns:xlink="http://www.w3.org/1999/xlink" x="0px" y="0px"
	 viewBox="0 0 24 24" style="enable-background:new 0 0 24 24;" xml:space="preserve">
<g>
	<title>rabbit-2</title>
	<path d="M10.002,23.722c-0.827,0-1.5-0.673-1.5-1.5c-2.206,0-4-1.794-4-4c-0.001-0.994,0.354-1.949,1.004-2.698
		c0.091-2.294,1.771-4.46,4.147-5.365C8.99,8.147,7.341,3.489,3.325,1.34C3.256,1.304,3.177,1.285,3.098,1.285
		c-0.018,0-0.035,0.001-0.053,0.003C2.912,1.302,2.792,1.367,2.708,1.471C2.624,1.575,2.585,1.705,2.599,1.837
		c0.414,3.116,1.656,6.083,3.59,8.575c0.082,0.105,0.118,0.237,0.101,0.369c-0.017,0.132-0.084,0.25-0.19,0.332
		c-0.087,0.068-0.196,0.105-0.306,0.105c-0.156,0-0.3-0.071-0.395-0.193c-2.043-2.631-3.355-5.767-3.794-9.07
		c-0.043-0.407,0.073-0.8,0.325-1.113C2.183,0.53,2.541,0.335,2.94,0.293c0.053-0.005,0.105-0.008,0.158-0.008
		c0.24,0,0.481,0.059,0.695,0.172c4.378,2.343,6.124,7.302,6.819,9.418c0.461-0.101,0.927-0.152,1.39-0.152
		c0.463,0,0.929,0.051,1.39,0.152c0.696-2.116,2.442-7.076,6.815-9.416c0.218-0.116,0.462-0.178,0.706-0.178
		c0.055,0,0.11,0.003,0.165,0.009c0.822,0.09,1.418,0.832,1.328,1.654c-0.442,3.313-1.756,6.451-3.803,9.082
		c-0.095,0.123-0.239,0.193-0.395,0.193c-0.111,0-0.219-0.037-0.307-0.105c-0.217-0.169-0.257-0.484-0.088-0.702
		c1.938-2.491,3.182-5.46,3.599-8.588c0.029-0.265-0.17-0.51-0.444-0.539c-0.018-0.002-0.036-0.003-0.054-0.003
		c-0.083,0-0.162,0.02-0.236,0.059c-4.016,2.149-5.666,6.806-6.328,8.82c2.376,0.905,4.057,3.071,4.147,5.365
		c0.65,0.749,1.005,1.704,1.004,2.698c0,2.205-1.794,3.999-4,3.999c0,0.827-0.673,1.5-1.5,1.5H10.002z M14.002,22.722
		c0.276,0,0.5-0.224,0.5-0.5v-0.129c-0.777-0.201-1.473-0.631-2-1.228v1.858H14.002z M9.502,22.222c0,0.276,0.224,0.5,0.5,0.5h1.5
		v-1.858c-0.527,0.597-1.223,1.027-2,1.228V22.222z M12.512,18.419c0.101,1.581,1.395,2.804,2.99,2.804c1.654,0,3-1.346,3-3
		c0.001-0.807-0.305-1.572-0.862-2.155c-0.089-0.094-0.138-0.216-0.138-0.345c0-2.063-1.613-4.055-3.841-4.746
		c-0.028-0.002-0.061-0.006-0.098-0.018c-0.027-0.009-0.048-0.02-0.064-0.029c-0.494-0.137-0.997-0.207-1.497-0.207
		c-0.5,0-1.003,0.07-1.497,0.207c-0.015,0.009-0.037,0.02-0.064,0.029c-0.039,0.013-0.073,0.017-0.099,0.018
		c-2.227,0.691-3.84,2.682-3.84,4.746c0,0.129-0.049,0.252-0.139,0.345c-0.557,0.583-0.863,1.348-0.861,2.154
		c0,1.655,1.346,3.001,3,3.001c1.594,0,2.888-1.222,2.99-2.802l-0.845-0.844c-0.195-0.195-0.195-0.512,0-0.707
		c0.094-0.094,0.22-0.146,0.354-0.146s0.259,0.052,0.354,0.146l0.646,0.646l0.646-0.646c0.094-0.094,0.22-0.146,0.354-0.146
		s0.259,0.052,0.354,0.146c0.195,0.195,0.195,0.512,0,0.707L12.512,18.419z"/>
	<path d="M9.753,15.972c-0.201,0-0.389-0.077-0.53-0.217c-0.142-0.141-0.221-0.329-0.222-0.529c0-0.001,0-0.004,0-0.004
		c0-0.414,0.336-0.75,0.75-0.75c0.408,0,0.742,0.329,0.75,0.735c0,0.005,0,0.024,0,0.028c-0.003,0.195-0.08,0.377-0.217,0.516
		c-0.141,0.142-0.329,0.221-0.529,0.221C9.755,15.972,9.753,15.972,9.753,15.972z"/>
	<path d="M14.236,15.972c-0.198-0.005-0.38-0.083-0.517-0.221c-0.137-0.138-0.214-0.321-0.217-0.516c0-0.004,0-0.022,0-0.026
		c0.008-0.407,0.342-0.736,0.75-0.736c0.414,0,0.75,0.336,0.75,0.75c-0.001,0.203-0.08,0.392-0.222,0.533
		c-0.141,0.14-0.328,0.217-0.527,0.217C14.253,15.972,14.241,15.972,14.236,15.972z"/>
</g>
</svg>
