<?xml version="1.0" encoding="utf-8"?>
<!-- Generator: Adobe Illustrator 22.1.0, SVG Export Plug-In . SVG Version: 6.00 Build 0)  -->
<svg version="1.1" id="Light" xmlns="http://www.w3.org/2000/svg" xmlns:xlink="http://www.w3.org/1999/xlink" x="0px" y="0px"
	 viewBox="0 0 24 24" style="enable-background:new 0 0 24 24;" xml:space="preserve">
<g>
	<title>rabbit-body</title>
	<circle cx="10.248" cy="8.25" r="0.75"/>
	<circle cx="13.748" cy="8.25" r="0.75"/>
	<path d="M7.886,24c-1.702,0-3.218-1.082-3.772-2.692c-0.347-1.008-0.281-2.09,0.187-3.048c0.416-0.852,1.113-1.521,1.974-1.901
		c0.112-1.13,0.529-2.188,1.214-3.086c-0.917-0.37-1.578-1.221-1.688-2.219c-0.003-0.029-0.004-0.057-0.002-0.085
		c0.051-0.844,0.529-1.6,1.262-2.01V8c0-0.684,0.22-1.36,0.637-1.959V1.5c0-0.022,0.001-0.044,0.004-0.066
		c0.109-0.821,0.814-1.44,1.639-1.44c0.04,0,0.08,0.001,0.12,0.004c0.042-0.003,0.083-0.005,0.125-0.005
		c0.84,0,1.53,0.606,1.64,1.441C11.229,1.456,11.23,1.478,11.23,1.5v2.55C11.487,4.016,11.742,4,11.993,4
		c0.253,0,0.51,0.017,0.769,0.051V1.5c0-0.022,0.001-0.044,0.004-0.066c0.108-0.821,0.813-1.44,1.64-1.44
		c0.041,0,0.083,0.002,0.124,0.005c0.041-0.003,0.082-0.004,0.122-0.004c0.84,0,1.53,0.606,1.641,1.44
		c0.003,0.022,0.004,0.044,0.004,0.066v4.547C16.713,6.645,16.931,7.318,16.931,8v0.959c0.734,0.408,1.215,1.165,1.266,2.01
		c0.002,0.027,0.001,0.055-0.002,0.084c-0.111,0.997-0.77,1.848-1.685,2.219c0.686,0.898,1.103,1.955,1.215,3.086
		c1.462,0.641,2.392,2.066,2.383,3.675c-0.006,1.066-0.427,2.065-1.185,2.814C18.172,23.591,17.176,24,16.119,24H7.886z M16.098,23
		c1.659,0,3.001-1.333,3.01-2.973c0.007-1.28-0.8-2.422-2.01-2.842c-0.195-0.058-0.339-0.242-0.348-0.453
		c-0.058-1.271-0.584-2.465-1.482-3.366c-0.014-0.01-0.03-0.023-0.038-0.031c-0.149-0.135-0.202-0.348-0.131-0.541
		s0.249-0.321,0.454-0.327c0.829-0.026,1.531-0.661,1.643-1.48c-0.05-0.558-0.418-1.044-0.943-1.244
		c-0.193-0.073-0.322-0.261-0.322-0.467V8c0-1.654-1.767-3-3.938-3C9.825,5,8.061,6.346,8.061,8v1.277
		c0,0.206-0.129,0.393-0.321,0.467c-0.524,0.2-0.89,0.687-0.94,1.244c0.112,0.822,0.815,1.456,1.646,1.48
		c0.204,0.007,0.382,0.134,0.454,0.325c0.072,0.191,0.021,0.404-0.129,0.542c-0.007,0.007-0.029,0.024-0.046,0.038
		c-0.893,0.896-1.417,2.088-1.475,3.36c-0.01,0.207-0.142,0.383-0.337,0.45c-0.755,0.26-1.363,0.798-1.714,1.516
		c-0.35,0.718-0.4,1.529-0.14,2.284C5.475,22.189,6.611,23,7.887,23h0.821l-0.974-2.305c-0.052-0.123-0.053-0.259-0.003-0.383
		c0.05-0.124,0.146-0.22,0.269-0.272C8.062,20.013,8.127,20,8.194,20c0.202,0,0.382,0.12,0.461,0.305L9.794,23h1.704v-5
		c0-0.276,0.224-0.5,0.5-0.5s0.5,0.224,0.5,0.5v5h1.704l1.139-2.695C15.42,20.12,15.601,20,15.803,20
		c0.067,0,0.132,0.013,0.194,0.039c0.124,0.052,0.219,0.149,0.269,0.273c0.05,0.124,0.049,0.26-0.003,0.382L15.288,23H16.098z
		 M13.762,4.269c0.566,0.176,1.087,0.436,1.536,0.764V1.537c-0.055-0.316-0.324-0.544-0.646-0.544c-0.023,0-0.047,0.001-0.07,0.004
		C14.564,0.999,14.547,1,14.53,1c-0.017,0-0.034-0.001-0.051-0.003c-0.026-0.003-0.05-0.004-0.074-0.004
		c-0.32,0-0.588,0.228-0.643,0.544V4.269z M8.698,5.028c0.448-0.327,0.968-0.585,1.532-0.761v-2.73
		c-0.055-0.316-0.323-0.544-0.644-0.544c-0.024,0-0.048,0.001-0.072,0.004C9.498,0.999,9.48,1,9.462,1
		c-0.017,0-0.033-0.001-0.05-0.002C9.388,0.995,9.364,0.994,9.341,0.994c-0.319,0-0.587,0.228-0.643,0.544V5.028z"/>
	<path d="M13.266,12.5c-0.618,0-1.016-0.198-1.268-0.42c-0.252,0.222-0.65,0.42-1.268,0.42c-0.276,0-0.5-0.224-0.5-0.5
		s0.224-0.5,0.5-0.5c0.722,0,0.766-0.422,0.768-0.507c0.002-0.271,0.226-0.493,0.5-0.493c0.271,0,0.495,0.22,0.5,0.491
		c0.002,0.088,0.047,0.509,0.768,0.509c0.276,0,0.5,0.224,0.5,0.5S13.542,12.5,13.266,12.5z"/>
</g>
</svg>
