<?xml version="1.0" encoding="utf-8"?>
<!-- Generator: Adobe Illustrator 22.1.0, SVG Export Plug-In . SVG Version: 6.00 Build 0)  -->
<svg version="1.1" id="Light" xmlns="http://www.w3.org/2000/svg" xmlns:xlink="http://www.w3.org/1999/xlink" x="0px" y="0px"
	 viewBox="0 0 24 24" style="enable-background:new 0 0 24 24;" xml:space="preserve">
<g>
	<title>rabbit-1</title>
	<circle cx="9.25" cy="14.501" r="0.75"/>
	<circle cx="14.75" cy="14.501" r="0.75"/>
	<path d="M11.794,24.004c-1.115,0-2.226-0.373-3.14-1.052c-0.22,0.032-0.44,0.049-0.654,0.049c-2.481,0-4.5-2.019-4.5-4.5
		c0.017-1.252,0.562-2.424,1.5-3.237v-0.263c0-2.555,2.102-4.54,4.253-5.428C7.698,3.884,5.427,1.001,2.5,1.001
		c-0.827,0-1.5,0.673-1.5,1.5s0.673,1.5,1.5,1.5c1.983,0,3.464,1.811,4.403,5.383c0.07,0.267-0.09,0.541-0.356,0.611
		c-0.042,0.011-0.085,0.017-0.128,0.017c-0.227,0-0.425-0.153-0.483-0.373C5.379,7.522,4.332,5.001,2.5,5.001
		c-1.379,0-2.5-1.121-2.5-2.5s1.121-2.5,2.5-2.5c3.421,0,6.012,3.112,7.701,9.25c0.612-0.166,1.216-0.25,1.799-0.25
		c0.583,0,1.187,0.084,1.799,0.25c1.69-6.138,4.28-9.25,7.701-9.25c1.378,0,2.5,1.121,2.5,2.5s-1.122,2.5-2.5,2.5
		c-1.832,0-2.879,2.522-3.436,4.637c-0.057,0.219-0.256,0.373-0.484,0.373l0,0c-0.042,0-0.085-0.005-0.126-0.016
		c-0.13-0.034-0.238-0.116-0.305-0.232c-0.067-0.115-0.086-0.25-0.052-0.379c0.939-3.572,2.42-5.383,4.402-5.383
		c0.827,0,1.5-0.673,1.5-1.5s-0.673-1.5-1.5-1.5c-2.927,0-5.198,2.884-6.753,8.572C16.898,10.461,19,12.446,19,15.001v0.263
		c0.938,0.813,1.483,1.983,1.5,3.23c0,2.487-2.019,4.507-4.5,4.507c-0.214,0-0.434-0.016-0.654-0.049
		c-0.915,0.679-2.035,1.052-3.169,1.052c-0.065,0-0.131-0.001-0.196-0.004C11.932,24.003,11.863,24.004,11.794,24.004z M9.93,22.564
		c0.591,0.289,1.239,0.44,1.901,0.44c0.05,0,0.101-0.001,0.151-0.002c0.068,0.002,0.119,0.002,0.17,0.002
		c0.67,0,1.324-0.151,1.917-0.441c-0.885-0.424-1.618-1.134-2.069-2.003C11.548,21.43,10.815,22.14,9.93,22.564z M12.509,18.699
		c0.104,1.83,1.648,3.302,3.491,3.302c1.93,0,3.5-1.57,3.5-3.5c-0.014-1.024-0.49-1.975-1.306-2.604
		C18.073,15.802,18,15.654,18,15.501v-0.5c0-2.265-2.676-5-6-5c-3.324,0-6,2.735-6,5v0.5c0,0.154-0.073,0.302-0.195,0.396
		C4.99,16.526,4.514,17.477,4.5,18.507c0,1.925,1.57,3.493,3.5,3.493c1.843,0,3.387-1.472,3.491-3.302l-1.344-1.344
		C10.052,17.26,10,17.134,10,17.001s0.052-0.259,0.146-0.354s0.22-0.146,0.354-0.146s0.259,0.052,0.354,0.146L12,17.794l1.146-1.146
		c0.094-0.094,0.22-0.146,0.354-0.146s0.259,0.052,0.354,0.146S14,16.867,14,17.001s-0.052,0.259-0.146,0.354L12.509,18.699z"/>
</g>
</svg>
