<?xml version="1.0" encoding="utf-8"?>
<!-- Generator: Adobe Illustrator 22.1.0, SVG Export Plug-In . SVG Version: 6.00 Build 0)  -->
<svg version="1.1" id="Light" xmlns="http://www.w3.org/2000/svg" xmlns:xlink="http://www.w3.org/1999/xlink" x="0px" y="0px"
	 viewBox="0 0 24 24" style="enable-background:new 0 0 24 24;" xml:space="preserve">
<g>
	<title>fox-tail</title>
	<path d="M7.339,7.122C6.948,7.113,6.625,6.797,6.607,6.408C6.605,6.396,6.604,6.383,6.604,6.372c0-0.414,0.336-0.75,0.75-0.75
		c0.415,0,0.751,0.336,0.751,0.75c0,0.011-0.001,0.023-0.003,0.035C8.086,6.796,7.761,7.114,7.369,7.122c-0.005,0-0.009,0-0.014,0
		C7.355,7.122,7.344,7.122,7.339,7.122z"/>
	<path d="M4.419,24c-2.434,0-4.414-1.98-4.415-4.413V15.67c0-2.285,0.367-6.091,1.402-9.3c1.241-3.847,3.129-5.881,5.46-5.881
		c0.276,0,0.5,0.224,0.5,0.5v2.047c1.552,0.432,2.685,1.732,2.901,3.326h1.947c0.285,0,0.553,0.122,0.74,0.333
		c0.186,0.208,0.275,0.49,0.242,0.77c-0.132,1.146-0.727,3.811-3.396,3.811H9.568l1.467,4.612c0.083,0.262-0.062,0.544-0.325,0.628
		c-0.049,0.016-0.1,0.023-0.152,0.023c-0.219,0-0.41-0.14-0.476-0.348l-1.558-4.898c-0.342,0.029-0.672,0.106-0.983,0.232
		c-0.059,0.024-0.122,0.036-0.187,0.036c-0.205,0-0.387-0.123-0.464-0.313c-0.103-0.256,0.021-0.548,0.277-0.651
		c0.528-0.213,1.083-0.32,1.652-0.32H9.8c1.798,0,2.277-1.833,2.403-2.926L9.804,7.362c-0.272,0-0.496-0.221-0.5-0.493
		c-0.02-1.461-1.08-2.697-2.521-2.94C6.541,3.889,6.366,3.681,6.366,3.436V1.533C4.314,1.9,3.058,4.506,2.358,6.677
		c-0.999,3.099-1.354,6.781-1.354,8.993v3.916C1.005,21.469,2.536,23,4.418,23h10.277c2.985,0,5.754-1.612,7.227-4.207
		c1.096-1.93,1.374-4.172,0.784-6.311c-0.59-2.139-1.978-3.921-3.908-5.017c0.212,0.748,0.312,1.532,0.313,2.317
		c0.002,2.489-0.965,4.829-2.723,6.59c-1.758,1.761-4.096,2.732-6.585,2.735c-0.286,0-0.588-0.01-0.895-0.019
		c-0.34-0.011-0.664-0.021-0.98-0.021c-0.586,0-1.324,0.031-1.838,0.275c-0.067,0.032-0.139,0.048-0.214,0.048
		c-0.192,0-0.37-0.112-0.452-0.286c-0.057-0.121-0.064-0.256-0.019-0.382c0.045-0.126,0.136-0.226,0.257-0.283
		c0.694-0.328,1.575-0.371,2.265-0.371c0.329,0,0.663,0.011,0.995,0.021c0.303,0.01,0.6,0.019,0.881,0.019
		c2.221-0.002,4.308-0.869,5.878-2.441c1.569-1.572,2.432-3.661,2.43-5.883c-0.001-0.702-0.09-1.401-0.266-2.079
		c-0.067-0.255-0.03-0.521,0.104-0.749c0.133-0.228,0.347-0.39,0.603-0.457c0.082-0.021,0.167-0.032,0.251-0.032
		c0.171,0,0.341,0.045,0.49,0.131c2.161,1.227,3.716,3.223,4.377,5.62c0.661,2.397,0.349,4.908-0.878,7.07
		C21.141,22.193,18.039,24,14.696,24H4.419z"/>
</g>
</svg>
