<?xml version="1.0" encoding="utf-8"?>
<!-- Generator: Adobe Illustrator 22.1.0, SVG Export Plug-In . SVG Version: 6.00 Build 0)  -->
<svg version="1.1" id="Light" xmlns="http://www.w3.org/2000/svg" xmlns:xlink="http://www.w3.org/1999/xlink" x="0px" y="0px"
	 viewBox="0 0 24 24" style="enable-background:new 0 0 24 24;" xml:space="preserve">
<g>
	<title>fox-body</title>
	<path d="M15.497,23.867c-0.276,0-0.5-0.224-0.5-0.5v-4.5H6.232c-0.841,1.255-2.227,2-3.735,2h-0.64l-0.886,2.658
		c-0.068,0.204-0.259,0.342-0.474,0.342c-0.054,0-0.107-0.009-0.158-0.026C0.213,23.8,0.11,23.71,0.05,23.591
		s-0.069-0.255-0.027-0.382l1-3c0.068-0.204,0.259-0.342,0.474-0.342h0.5v-4.5c0-0.625,0.129-1.233,0.385-1.809
		c-1.006-0.991-1.731-2.226-2.102-3.582c-0.564-2.061-0.292-4.219,0.767-6.075s2.777-3.189,4.838-3.753
		c0.042-0.012,0.087-0.018,0.133-0.018c0.209,0,0.398,0.133,0.469,0.33C6.557,0.652,6.618,0.842,6.67,1.024
		c0.218,0.763,0.328,1.551,0.327,2.344C7,5.718,6.021,7.971,4.306,9.573c0.154,0.537,0.37,1.063,0.642,1.569
		c0.496-0.183,1.016-0.275,1.549-0.275h6.482c-0.012-1.199,0.13-4.139,1.68-5.803c0.739-0.794,1.694-1.197,2.838-1.197
		c0.276,0,0.5,0.224,0.5,0.5v2.1c1.589,0.439,2.746,1.769,2.964,3.4h2.536c0.276,0,0.5,0.224,0.5,0.5c0,0.04-0.04,4-3.5,4h-1
		c-1.93,0-3.5,1.57-3.5,3.5v5.5C15.997,23.643,15.773,23.867,15.497,23.867z M6.497,11.867c-1.93,0-3.5,1.57-3.5,3.5v4.46
		c1.702-0.245,3-1.716,3-3.46c0-0.276,0.224-0.5,0.5-0.5s0.5,0.224,0.5,0.5c0,0.513-0.088,1.017-0.26,1.5h8.26
		c0-2.481,2.019-4.5,4.5-4.5h1c1.04,0,1.748-0.473,2.166-1.447c0.163-0.381,0.247-0.767,0.289-1.053h-2.455
		c-0.272,0-0.496-0.221-0.5-0.493c-0.021-1.497-1.107-2.765-2.583-3.014c-0.241-0.041-0.417-0.248-0.417-0.493V4.903
		c-0.634,0.095-1.173,0.377-1.606,0.842c-1.637,1.758-1.398,5.549-1.395,5.587c0.01,0.137-0.038,0.274-0.133,0.376
		c-0.094,0.101-0.227,0.159-0.366,0.159H6.497z M1.856,4.505C0.98,6.105,0.762,7.949,1.245,9.713
		c0.302,1.102,0.873,2.116,1.661,2.951c0.317-0.42,0.709-0.784,1.151-1.071c-0.355-0.663-0.623-1.358-0.797-2.067
		C3.214,9.343,3.274,9.152,3.417,9.028c0.839-0.728,1.51-1.643,1.955-2.663C3.979,6.326,2.672,5.629,1.856,4.505z M2.454,3.591
		C3.07,4.675,4.248,5.367,5.497,5.367c0.071,0,0.148-0.003,0.231-0.01c0.18-0.653,0.27-1.321,0.27-1.99
		c0-0.7-0.097-1.396-0.289-2.069C5.705,1.284,5.7,1.269,5.696,1.254C4.402,1.702,3.288,2.505,2.454,3.591z"/>
	<circle cx="17.997" cy="9.867" r="0.75"/>
</g>
</svg>
