<?xml version="1.0" encoding="utf-8"?>
<!-- Generator: Adobe Illustrator 22.1.0, SVG Export Plug-In . SVG Version: 6.00 Build 0)  -->
<svg version="1.1" id="Light" xmlns="http://www.w3.org/2000/svg" xmlns:xlink="http://www.w3.org/1999/xlink" x="0px" y="0px"
	 viewBox="0 0 24 24" style="enable-background:new 0 0 24 24;" xml:space="preserve">
<g>
	<title>fox</title>
	<path d="M11.999,22.494c-1.103,0-2-0.897-2-2v-0.34c-1.382-1.956-3.005-3.732-4.824-5.28c-0.832-0.782-1.9-1.251-3.018-1.328
		c-0.238-0.005-0.497-0.081-0.718-0.213c-0.344-0.207-0.586-0.534-0.683-0.923c-0.097-0.389-0.036-0.792,0.17-1.135
		c0.75-1.236,1.777-2.309,2.977-3.116C3.134,6.404,3.025,4.44,3.602,2.604c0.036-0.141,0.107-0.295,0.199-0.433
		c0.279-0.415,0.745-0.663,1.247-0.663c0.298,0,0.587,0.088,0.835,0.255c1.528,1.029,3.428,2.605,3.982,4.36
		c0.709-0.085,1.427-0.128,2.14-0.128s1.431,0.043,2.14,0.128c0.59-1.861,2.725-3.52,3.976-4.361
		c0.139-0.092,0.289-0.16,0.447-0.202c0.126-0.033,0.255-0.05,0.384-0.05c0.679,0,1.276,0.458,1.451,1.115
		c0.573,1.82,0.464,3.779-0.307,5.534c1.2,0.807,2.227,1.88,2.976,3.114c0.136,0.227,0.211,0.485,0.215,0.747
		c0.008,0.4-0.141,0.78-0.419,1.068c-0.278,0.289-0.652,0.452-1.052,0.46c-1.097,0.077-2.158,0.542-2.973,1.31
		c-1.835,1.562-3.461,3.341-4.843,5.296v0.34C14,21.596,13.102,22.494,11.999,22.494z M10.999,20.494c0,0.552,0.449,1,1,1
		s1-0.448,1-1H10.999z M13.243,19.494c1.418-1.992,3.077-3.802,4.933-5.381c0.968-0.912,2.249-1.47,3.596-1.564
		c0.156-0.003,0.282-0.056,0.376-0.154c0.093-0.096,0.142-0.223,0.14-0.356c-0.001-0.088-0.026-0.173-0.071-0.248
		c-0.746-1.228-1.791-2.273-3.02-3.02c-0.222-0.135-0.304-0.422-0.186-0.654c0.826-1.624,0.979-3.475,0.433-5.212
		c-0.063-0.236-0.263-0.393-0.49-0.393c-0.043,0-0.086,0.006-0.128,0.017c-0.052,0.014-0.102,0.036-0.148,0.067
		c-1.246,0.837-3.379,2.492-3.659,4.166c-0.041,0.242-0.248,0.418-0.492,0.418c-0.024,0-0.048-0.002-0.073-0.005
		c-0.808-0.117-1.631-0.177-2.447-0.177c-0.816,0-1.639,0.06-2.446,0.177C9.534,7.176,9.51,7.178,9.487,7.178
		c-0.245,0-0.452-0.175-0.493-0.416c-0.285-1.67-2.42-3.329-3.668-4.169C5.243,2.537,5.147,2.508,5.048,2.508
		c-0.168,0-0.323,0.083-0.416,0.221C4.601,2.775,4.577,2.826,4.563,2.881C4.012,4.637,4.164,6.492,4.99,8.116
		C5.108,8.348,5.026,8.635,4.804,8.77c-1.23,0.747-2.275,1.792-3.021,3.022c-0.068,0.113-0.088,0.247-0.056,0.377
		c0.032,0.13,0.113,0.239,0.227,0.307c0.075,0.045,0.161,0.07,0.248,0.072c1.367,0.094,2.656,0.656,3.639,1.582
		c1.84,1.565,3.496,3.372,4.914,5.364H13.243z"/>
	<path d="M9.249,12.744c-0.409,0-0.744-0.331-0.75-0.739c0-0.003,0-0.016,0-0.019c0.004-0.408,0.337-0.74,0.746-0.742
		c0,0,0.003,0,0.003,0c0.201,0,0.388,0.077,0.53,0.217c0.142,0.141,0.221,0.329,0.221,0.529c0,0.001,0,0.003,0,0.004
		C9.999,12.407,9.663,12.744,9.249,12.744z"/>
	<path d="M14.75,12.744c-0.414,0-0.75-0.336-0.75-0.75c0.001-0.203,0.079-0.392,0.221-0.533c0.141-0.14,0.328-0.217,0.527-0.217
		c0.005,0,0.01,0,0.015,0c0.404,0.01,0.73,0.337,0.736,0.737c0,0.004,0,0.022,0,0.027C15.491,12.415,15.158,12.744,14.75,12.744z"/>
</g>
</svg>
