<?xml version="1.0" encoding="utf-8"?>
<!-- Generator: Adobe Illustrator 22.1.0, SVG Export Plug-In . SVG Version: 6.00 Build 0)  -->
<svg version="1.1" id="Light" xmlns="http://www.w3.org/2000/svg" xmlns:xlink="http://www.w3.org/1999/xlink" x="0px" y="0px"
	 viewBox="0 0 24 24" style="enable-background:new 0 0 24 24;" xml:space="preserve">
<g>
	<title>wolf-3</title>
	<path d="M14.504,24c-0.276,0-0.5-0.224-0.5-0.5c0-1.025-0.18-2.153-0.34-3.148c-0.333-2.078-0.62-3.869,0.75-4.326
		c0.211-0.071,0.446-0.106,0.698-0.106c0.752,0,1.58,0.31,2.381,0.611c0.724,0.271,1.468,0.551,2.038,0.551
		c0.12,0,0.229-0.013,0.325-0.038c0.636-0.427,1.499-1.037,2.171-1.707c-1.346-0.261-2.028-0.71-2.028-1.336
		c0-0.775,0.623-1.356,1.156-1.711c-0.59-0.405-1.177-0.791-1.592-1.061c-0.796-0.492-1.377-1.305-1.591-2.225
		c-0.375-2.03-1.983-3.597-3.977-3.934c-0.017,0.124-0.079,0.236-0.177,0.317c-0.089,0.074-0.203,0.115-0.319,0.115
		c-0.15,0-0.291-0.066-0.386-0.182c-0.427-0.517-0.646-1.171-0.614-1.842c0.021-0.812,0.13-1.625,0.325-2.42
		c-0.763,0.135-1.97,0.584-2.34,2.065c-0.121,0.408-0.223,0.825-0.307,1.249c0,0.063-0.01,0.123-0.032,0.179
		c-0.067,0.361-0.115,0.69-0.149,1.004C9.969,5.808,9.756,6,9.5,6C9.482,6,9.464,5.999,9.446,5.997
		C9.313,5.983,9.194,5.918,9.11,5.814C9.026,5.711,8.988,5.58,9.002,5.447c0.012-0.112,0.026-0.229,0.043-0.351
		C8.791,5.195,8.544,5.31,8.306,5.439c-0.964,0.616-1.92,1.243-2.521,1.64l0.086,0.087C6.155,7.45,6.311,7.827,6.31,8.228
		c-0.001,0.401-0.157,0.777-0.441,1.06C5.756,9.401,5.625,9.495,5.482,9.566l-2.14,1.071l0.085,0.085
		c0.283,0.283,0.438,0.66,0.438,1.061s-0.156,0.778-0.439,1.06c-0.094,0.094-0.201,0.176-0.316,0.241l-2.363,1.35
		C0.673,14.477,0.587,14.5,0.499,14.5c-0.179,0-0.346-0.097-0.434-0.252c-0.066-0.116-0.083-0.251-0.048-0.38
		c0.035-0.129,0.119-0.236,0.234-0.303l2.363-1.35c0.039-0.022,0.074-0.049,0.105-0.08c0.094-0.094,0.146-0.22,0.146-0.354
		c0-0.134-0.052-0.259-0.146-0.354l-0.574-0.575C2.032,10.74,1.98,10.578,2.006,10.42c0.026-0.158,0.126-0.295,0.27-0.367
		l2.759-1.381C5.082,8.649,5.125,8.617,5.163,8.58C5.258,8.485,5.31,8.36,5.31,8.226c0-0.134-0.052-0.259-0.146-0.354L4.646,7.354
		C4.539,7.247,4.487,7.101,4.502,6.951c0.015-0.15,0.095-0.283,0.22-0.367c0.015-0.01,1.525-1.016,3.076-2.005
		c0.461-0.252,0.94-0.452,1.438-0.601c0.08-0.379,0.176-0.755,0.284-1.119C10.214,0.081,13.135,0,13.466,0
		c0.033,0,0.052,0.001,0.055,0.001c0.153,0.006,0.299,0.085,0.387,0.212c0.089,0.126,0.115,0.29,0.068,0.438
		c-0.292,0.927-0.453,1.891-0.477,2.862c-0.008,0.173,0.009,0.341,0.05,0.504c2.66,0.167,4.916,2.152,5.402,4.783
		c0.15,0.645,0.569,1.227,1.147,1.585c1.067,0.694,2.51,1.66,3.352,2.343c0.466,0.361,0.663,0.99,0.486,1.561
		c-0.495,1.422-2.176,2.685-3.586,3.627c-0.038,0.026-0.079,0.046-0.122,0.06c-0.208,0.07-0.443,0.105-0.695,0.105c0,0,0,0,0,0
		c-0.752,0-1.58-0.31-2.38-0.61c-0.725-0.272-1.468-0.551-2.041-0.551c-0.144,0-0.272,0.019-0.381,0.055
		c-0.564,0.188-0.318,1.727-0.079,3.215c0.166,1.033,0.353,2.203,0.353,3.31C15.004,23.776,14.78,24,14.504,24z M21.003,13.946
		c0.158,0.122,0.818,0.364,1.756,0.496c0.1-0.162,0.176-0.319,0.228-0.466c0.049-0.16-0.014-0.354-0.157-0.466
		c-0.206-0.167-0.461-0.361-0.78-0.592C21.547,13.181,21.05,13.585,21.003,13.946z"/>
	<circle cx="14.749" cy="9.75" r="0.75"/>
</g>
</svg>
