<?xml version="1.0" encoding="utf-8"?>
<!-- Generator: Adobe Illustrator 22.1.0, SVG Export Plug-In . SVG Version: 6.00 Build 0)  -->
<svg version="1.1" id="Layer_1" xmlns="http://www.w3.org/2000/svg" xmlns:xlink="http://www.w3.org/1999/xlink" x="0px" y="0px"
	 viewBox="0 0 24 24" style="enable-background:new 0 0 24 24;" xml:space="preserve">
<g>
	<title>religion-woman-japan</title>
	<path d="M23.5,24c-0.276,0-0.5-0.224-0.5-0.5v-1c-0.001-1.452-0.915-2.769-2.275-3.277l-1.57-0.527l-2.715,5.041
		C16.353,23.899,16.184,24,16,24c-0.082,0-0.164-0.021-0.236-0.059c-0.243-0.132-0.334-0.436-0.204-0.678l2.633-4.89l-1.392-0.467
		l-5.948,5.948C10.759,23.948,10.634,24,10.5,24s-0.259-0.052-0.354-0.146S10,23.634,10,23.5s0.052-0.259,0.146-0.354l1.502-1.502
		l-5.145-3.505l-3.244,1.09C1.912,19.732,1.001,21.048,1,22.5v1C1,23.776,0.776,24,0.5,24S0,23.776,0,23.5v-1
		c0.001-1.867,1.176-3.56,2.925-4.213l4.916-1.652C7.893,16.618,7.946,16.609,8,16.609c0.215,0,0.406,0.137,0.474,0.341
		c0.043,0.127,0.033,0.262-0.026,0.382s-0.162,0.209-0.289,0.251L7.693,17.74l4.676,3.185l3.382-3.382
		c-0.202-0.116-0.302-0.363-0.225-0.593c0.069-0.204,0.26-0.341,0.475-0.341c0.053,0,0.106,0.009,0.157,0.025l4.901,1.646
		c1.761,0.658,2.94,2.352,2.941,4.219v1C24,23.776,23.776,24,23.5,24z"/>
	<path d="M11.805,14.001c-0.604,0-1.186-0.223-1.638-0.628c-0.205-0.184-0.223-0.5-0.039-0.706c0.095-0.106,0.231-0.167,0.373-0.167
		c0.123,0,0.241,0.045,0.333,0.127c0.27,0.241,0.609,0.374,0.956,0.374L11.843,13l0.337,0c0.367,0,0.718-0.133,0.987-0.373
		c0.092-0.082,0.21-0.127,0.333-0.127c0.142,0,0.278,0.061,0.373,0.167c0.183,0.205,0.166,0.522-0.04,0.706
		c-0.453,0.405-1.034,0.628-1.635,0.628L11.805,14.001z"/>
	<path d="M12,17c-1.628,0-5.484-2.135-5.484-5.5V10h-0.39c-0.324,1.225-1.047,2.31-2.053,3.072
		c-0.015,0.011-0.031,0.022-0.048,0.032c0.698,0.54,1.558,0.837,2.43,0.837c0.056,0,0.112-0.001,0.168-0.004c0,0,0.001,0,0.001,0
		c0.291,0,0.508,0.21,0.52,0.478c0.006,0.133-0.041,0.261-0.131,0.359c-0.09,0.098-0.214,0.156-0.347,0.161
		c-0.07,0.003-0.141,0.005-0.211,0.005c-1.093,0-2.17-0.37-3.033-1.042c-0.097-0.072-0.187-0.171-0.254-0.284
		c-0.137-0.229-0.176-0.498-0.111-0.757c0.064-0.252,0.22-0.466,0.44-0.604c0.733-0.56,1.294-1.355,1.587-2.254h-2.4
		c-0.152,0-0.296-0.021-0.436-0.063c-0.384-0.115-0.7-0.372-0.89-0.725c-0.19-0.353-0.231-0.758-0.116-1.142
		c0.984-3.06,4.676-5.893,6.788-7.31C8.774,0.263,9.638,0,10.531,0h2.934c0.897,0,1.761,0.263,2.503,0.76
		c2.113,1.417,5.804,4.25,6.786,7.3c0.045,0.152,0.066,0.299,0.066,0.447C22.816,9.331,22.143,10,21.32,10h-2.364
		c0.293,0.9,0.855,1.696,1.606,2.268c0.201,0.125,0.357,0.339,0.42,0.592c0.065,0.259,0.025,0.528-0.113,0.757
		c-0.068,0.114-0.157,0.212-0.263,0.29c-0.853,0.665-1.928,1.034-3.021,1.034c-0.071,0-0.142-0.001-0.212-0.005
		c-0.275-0.012-0.49-0.245-0.478-0.521c0.012-0.269,0.231-0.479,0.498-0.479c0.08,0.003,0.136,0.004,0.193,0.004
		c0.871,0,1.729-0.295,2.416-0.831c0-0.014-0.016-0.024-0.031-0.035c-1.009-0.764-1.733-1.849-2.056-3.074h-0.431v1.5
		c0,1.461-0.75,2.885-2.112,4.01C14.31,16.387,12.924,17,12,17z M7.516,11.5c0,2.732,3.331,4.5,4.484,4.5
		c0.586,0,1.744-0.442,2.735-1.26c0.654-0.54,1.75-1.679,1.749-3.24V10H7.516V11.5z M10.531,1C9.837,1,9.165,1.204,8.588,1.59
		C6.974,2.673,3.12,5.499,2.198,8.366C2.162,8.486,2.177,8.62,2.24,8.737c0.063,0.117,0.169,0.203,0.297,0.242
		C2.585,8.994,2.642,9,2.677,9h18.638c0.279,0,0.504-0.223,0.505-0.498c0-0.049-0.007-0.097-0.021-0.145
		c-0.922-2.859-4.774-5.685-6.388-6.767C14.835,1.204,14.164,1,13.469,1H10.531z"/>
</g>
</svg>
