<?xml version="1.0" encoding="utf-8"?>
<!-- Generator: Adobe Illustrator 22.1.0, SVG Export Plug-In . SVG Version: 6.00 Build 0)  -->
<svg version="1.1" id="Layer_1" xmlns="http://www.w3.org/2000/svg" xmlns:xlink="http://www.w3.org/1999/xlink" x="0px" y="0px"
	 viewBox="0 0 24 24" style="enable-background:new 0 0 24 24;" xml:space="preserve">
<g>
	<title>shipment-warning</title>
	<circle cx="17.499" cy="20.75" r="0.75"/>
	<path d="M17.499,19c-0.276,0-0.5-0.224-0.5-0.5v-3c0-0.276,0.224-0.5,0.5-0.5s0.5,0.224,0.5,0.5v3
		C17.999,18.776,17.775,19,17.499,19z"/>
	<path d="M12.443,23.997c-0.506,0-0.966-0.256-1.232-0.684c-0.263-0.427-0.282-0.968-0.049-1.41l5.055-9.635
		c0.137-0.257,0.344-0.463,0.598-0.599c0.21-0.112,0.446-0.172,0.681-0.172c0.143,0,0.285,0.021,0.423,0.063
		c0.368,0.112,0.671,0.36,0.854,0.698c0.003,0.005,5.062,9.645,5.062,9.645c0.233,0.443,0.214,0.982-0.048,1.408
		c-0.267,0.43-0.727,0.686-1.231,0.686H12.443z M17.498,12.497c-0.074,0-0.145,0.018-0.211,0.053
		c-0.079,0.042-0.143,0.106-0.185,0.185l-5.054,9.632c-0.069,0.132-0.064,0.292,0.014,0.419c0.082,0.131,0.224,0.21,0.379,0.21
		h10.114c0.155,0,0.301-0.081,0.382-0.212c0.077-0.125,0.083-0.286,0.013-0.417l-5.056-9.635c-0.056-0.104-0.15-0.181-0.265-0.216
		C17.586,12.504,17.542,12.497,17.498,12.497z"/>
	<path d="M1.499,16c-0.827,0-1.5-0.673-1.5-1.5V4.914c0-0.208,0.044-0.411,0.13-0.605C0.132,4.299,0.145,4.274,0.15,4.266
		c0.07-0.151,0.169-0.294,0.288-0.413l3.414-3.414C4.135,0.156,4.512,0,4.913,0h5.172c0.401,0,0.777,0.156,1.061,0.439l3.414,3.414
		c0.118,0.118,0.217,0.261,0.294,0.425c0.003,0.003,0.012,0.02,0.019,0.037c0.083,0.188,0.126,0.391,0.126,0.598V8.5
		c0,0.276-0.224,0.5-0.5,0.5s-0.5-0.224-0.5-0.5V5h-13v9.5c0,0.276,0.224,0.5,0.5,0.5h9c0.276,0,0.5,0.224,0.5,0.5
		s-0.224,0.5-0.5,0.5H1.499z M13.292,4l-2.854-2.854C10.344,1.052,10.218,1,10.085,1H7.999v3H13.292z M6.999,4V1H4.913
		C4.779,1,4.654,1.052,4.559,1.146L1.706,4H6.999z"/>
</g>
</svg>
