<?xml version="1.0" encoding="utf-8"?>
<!-- Generator: Adobe Illustrator 22.1.0, SVG Export Plug-In . SVG Version: 6.00 Build 0)  -->
<svg version="1.1" id="Layer_1" xmlns="http://www.w3.org/2000/svg" xmlns:xlink="http://www.w3.org/1999/xlink" x="0px" y="0px"
	 viewBox="0 0 24 24" style="enable-background:new 0 0 24 24;" xml:space="preserve">
<g>
	<title>shipment-approve-smartphone</title>
	<path d="M19.497,20.999c-0.134,0-0.259-0.052-0.354-0.146l-1.5-1.5c-0.094-0.094-0.146-0.22-0.146-0.354s0.052-0.259,0.146-0.354
		s0.22-0.146,0.354-0.146s0.259,0.052,0.354,0.146l1.146,1.146l3.646-3.646c0.094-0.094,0.22-0.146,0.354-0.146
		s0.259,0.052,0.354,0.146s0.146,0.22,0.146,0.354s-0.052,0.259-0.146,0.354l-4,4C19.756,20.947,19.631,20.999,19.497,20.999z"/>
	<path d="M14.5,23.999c-0.827,0-1.5-0.673-1.5-1.5v-8c0-0.827,0.673-1.5,1.5-1.5h6c0.827,0,1.5,0.673,1.5,1.5l-0.006,1.003
		c-0.001,0.274-0.226,0.497-0.5,0.497c-0.136-0.001-0.262-0.053-0.356-0.149c-0.094-0.095-0.145-0.221-0.144-0.354l0.006-1
		c0-0.273-0.224-0.497-0.5-0.497h-6c-0.276,0-0.5,0.224-0.5,0.5v8c0,0.276,0.224,0.5,0.5,0.5h6c0.276,0,0.5-0.224,0.5-0.5v-1
		c0-0.276,0.224-0.5,0.5-0.5s0.5,0.224,0.5,0.5v1c0,0.827-0.673,1.5-1.5,1.5H14.5z"/>
	<path d="M21.173,9.999c-0.134,0-0.259-0.052-0.354-0.146c-0.858-0.858-2-1.33-3.216-1.33c-1.216,0-2.357,0.472-3.214,1.329
		c-0.094,0.095-0.22,0.147-0.354,0.147c-0.134,0-0.259-0.052-0.354-0.147c-0.195-0.195-0.195-0.511,0-0.706
		c1.047-1.046,2.44-1.623,3.924-1.623s2.876,0.576,3.922,1.623c0.094,0.094,0.146,0.22,0.146,0.354c0,0.134-0.052,0.259-0.146,0.354
		S21.307,9.999,21.173,9.999z"/>
	<path d="M19.177,11.999c-0.134,0-0.259-0.052-0.354-0.146c-0.325-0.325-0.759-0.505-1.221-0.505s-0.896,0.179-1.221,0.505
		c-0.094,0.094-0.22,0.146-0.354,0.146s-0.259-0.052-0.354-0.146s-0.146-0.22-0.146-0.354c0-0.134,0.052-0.259,0.146-0.354
		c0.514-0.514,1.199-0.797,1.928-0.797s1.414,0.283,1.928,0.797c0.094,0.094,0.146,0.22,0.146,0.354
		c0,0.134-0.052,0.259-0.146,0.354S19.311,11.999,19.177,11.999z"/>
	<path d="M8.431,17.297c-0.209,0-0.411-0.042-0.601-0.125l-6.927-3.036c-0.547-0.239-0.9-0.779-0.899-1.375V5.049
		c0.001-0.31,0.1-0.61,0.285-0.868c0.003-0.004,0.013-0.018,0.013-0.018C0.451,3.961,0.645,3.8,0.864,3.697l7.555-3.55
		C8.621,0.05,8.838,0.001,9.062,0.001c0.167,0,0.332,0.028,0.491,0.083L17,2.713c0.243,0.086,0.462,0.238,0.635,0.44
		c0.032,0.031,0.053,0.061,0.068,0.083C17.895,3.491,18,3.802,18,4.127v0.792c0,0.276-0.224,0.5-0.5,0.5S17,5.195,17,4.919V4.204
		L9.003,7.906v8.129l1.739-1.045c0.078-0.047,0.167-0.071,0.257-0.071c0.175,0,0.339,0.093,0.429,0.242
		c0.142,0.236,0.065,0.544-0.171,0.686l-2.054,1.235c-0.192,0.115-0.416,0.186-0.648,0.206c-0.018,0.003-0.037,0.006-0.053,0.006
		c-0.006,0-0.012,0-0.018-0.001C8.465,17.296,8.448,17.297,8.431,17.297z M1.003,12.76c0,0.199,0.118,0.379,0.3,0.459l6.7,2.936
		V7.926l-3-1.187v1.76c0,0.276-0.224,0.5-0.5,0.5s-0.5-0.224-0.5-0.5V6.343l-3-1.187V12.76z M8.488,7.042l7.689-3.559L12.94,2.34
		L5.723,5.948L8.488,7.042z M4.475,5.454l7.154-3.577L9.224,1.028C9.173,1.01,9.118,1.001,9.063,1.001
		c-0.075,0-0.147,0.017-0.215,0.049L1.761,4.38L4.475,5.454z"/>
</g>
</svg>
