<?xml version="1.0" encoding="utf-8"?>
<!-- Generator: Adobe Illustrator 22.1.0, SVG Export Plug-In . SVG Version: 6.00 Build 0)  -->
<svg version="1.1" id="Layer_1" xmlns="http://www.w3.org/2000/svg" xmlns:xlink="http://www.w3.org/1999/xlink" x="0px" y="0px"
	 viewBox="0 0 24 24" style="enable-background:new 0 0 24 24;" xml:space="preserve">
<g>
	<title>shipment-check</title>
	<path d="M17.5,24c-3.584,0-6.5-2.916-6.5-6.5s2.916-6.5,6.5-6.5s6.5,2.916,6.5,6.5S21.084,24,17.5,24z M17.5,12
		c-3.033,0-5.5,2.467-5.5,5.5s2.467,5.5,5.5,5.5s5.5-2.467,5.5-5.5S20.533,12,17.5,12z"/>
	<path d="M16.667,20.428c-0.273,0-0.533-0.087-0.751-0.251c-0.047-0.035-0.09-0.073-0.131-0.114l-1.5-1.5
		c-0.195-0.195-0.195-0.512,0-0.707c0.094-0.094,0.22-0.146,0.354-0.146s0.259,0.052,0.354,0.146l1.5,1.5
		c0.008,0.008,0.017,0.016,0.027,0.023c0.042,0.032,0.094,0.049,0.149,0.049c0.081,0,0.154-0.037,0.202-0.1l2.905-3.872
		c0.093-0.125,0.243-0.2,0.4-0.2c0.109,0,0.213,0.035,0.3,0.1c0.107,0.08,0.176,0.197,0.195,0.329
		c0.019,0.132-0.015,0.264-0.095,0.371l-2.905,3.872C17.434,20.242,17.059,20.428,16.667,20.428z"/>
	<path d="M1.5,16C0.673,16,0,15.327,0,14.5V4.914c0-0.207,0.044-0.411,0.13-0.605C0.133,4.3,0.146,4.275,0.151,4.267
		c0.071-0.152,0.17-0.295,0.288-0.413l3.414-3.414C4.137,0.156,4.513,0,4.914,0h5.172c0.401,0,0.777,0.156,1.061,0.439l3.414,3.414
		c0.118,0.118,0.217,0.261,0.294,0.426c0.003,0.002,0.011,0.018,0.018,0.036C14.957,4.504,15,4.707,15,4.914V8.5
		C15,8.776,14.776,9,14.5,9S14,8.776,14,8.5V5H1v9.5C1,14.776,1.224,15,1.5,15h7C8.776,15,9,15.224,9,15.5S8.776,16,8.5,16H1.5z
		 M13.293,4l-2.854-2.854C10.345,1.052,10.219,1,10.086,1H8v3H13.293z M7,4V1H4.914C4.781,1,4.655,1.052,4.561,1.146L1.707,4H7z"/>
</g>
</svg>
