<?xml version="1.0" encoding="utf-8"?>
<!-- Generator: Adobe Illustrator 22.1.0, SVG Export Plug-In . SVG Version: 6.00 Build 0)  -->
<svg version="1.1" id="Layer_1" xmlns="http://www.w3.org/2000/svg" xmlns:xlink="http://www.w3.org/1999/xlink" x="0px" y="0px"
	 viewBox="0 0 24 24" style="enable-background:new 0 0 24 24;" xml:space="preserve">
<g>
	<title>shipment-cash</title>
	<path d="M17.5,22c-0.276,0-0.5-0.224-0.5-0.5V21h-1c-0.276,0-0.5-0.224-0.5-0.5S15.724,20,16,20h2.031
		c0.345,0,0.651-0.208,0.78-0.528c0.084-0.208,0.081-0.437-0.007-0.644c-0.088-0.207-0.251-0.367-0.46-0.451l-2.063-0.826
		c-0.702-0.283-1.155-0.953-1.155-1.708c0-0.492,0.191-0.954,0.539-1.302c0.348-0.348,0.81-0.54,1.302-0.541H17v-0.5
		c0-0.276,0.224-0.5,0.5-0.5s0.5,0.224,0.5,0.5V14h1c0.276,0,0.5,0.224,0.5,0.5S19.276,15,19,15h-2.033
		c-0.224,0-0.436,0.088-0.594,0.248c-0.159,0.159-0.247,0.371-0.247,0.595c0,0.345,0.207,0.652,0.528,0.781l2.063,0.826
		c0.457,0.184,0.815,0.535,1.008,0.987c0.193,0.453,0.198,0.953,0.014,1.41C19.457,20.546,18.787,21,18.031,21H18v0.5
		C18,21.776,17.776,22,17.5,22z"/>
	<path d="M17.5,24c-3.584,0-6.5-2.916-6.5-6.5s2.916-6.5,6.5-6.5s6.5,2.916,6.5,6.5S21.084,24,17.5,24z M17.5,12
		c-3.033,0-5.5,2.467-5.5,5.5s2.467,5.5,5.5,5.5s5.5-2.467,5.5-5.5S20.533,12,17.5,12z"/>
	<path d="M1.5,16C0.673,16,0,15.327,0,14.5V4.914c0-0.207,0.044-0.411,0.13-0.605C0.133,4.3,0.146,4.275,0.151,4.267
		c0.071-0.152,0.17-0.295,0.288-0.413l3.414-3.414C4.137,0.156,4.513,0,4.914,0h5.172c0.401,0,0.777,0.156,1.061,0.439l3.414,3.414
		c0.118,0.118,0.217,0.261,0.294,0.426c0.003,0.002,0.011,0.018,0.018,0.036C14.957,4.504,15,4.707,15,4.914V8.5
		C15,8.776,14.776,9,14.5,9S14,8.776,14,8.5V5H1v9.5C1,14.776,1.224,15,1.5,15h7C8.776,15,9,15.224,9,15.5S8.776,16,8.5,16H1.5z
		 M13.293,4l-2.854-2.854C10.345,1.052,10.219,1,10.086,1H8v3H13.293z M7,4V1H4.914C4.781,1,4.655,1.052,4.561,1.146L1.707,4H7z"/>
</g>
</svg>
