<?xml version="1.0" encoding="utf-8"?>
<!-- Generator: Adobe Illustrator 22.1.0, SVG Export Plug-In . SVG Version: 6.00 Build 0)  -->
<svg version="1.1" id="Light" xmlns="http://www.w3.org/2000/svg" xmlns:xlink="http://www.w3.org/1999/xlink" x="0px" y="0px"
	 viewBox="0 0 24 24" style="enable-background:new 0 0 24 24;" xml:space="preserve">
<g>
	<title>tree-1</title>
	<path d="M12.002,22.996c-0.276,0-0.5-0.224-0.5-0.5v-6.497h-4c-1.379-0.002-2.499-1.124-2.498-2.503
		c0-0.437,0.116-0.869,0.335-1.247l4.252-9.406c0.171-0.627,0.573-1.156,1.132-1.489c0.388-0.231,0.829-0.354,1.275-0.354
		c0.207,0,0.415,0.026,0.618,0.078c0.86,0.218,1.543,0.88,1.789,1.732l4.283,9.471c0.317,0.555,0.404,1.224,0.232,1.864
		c-0.173,0.645-0.586,1.184-1.165,1.518c-0.379,0.219-0.812,0.335-1.25,0.335h-0.54c-0.227,1.802-1.662,3.238-3.464,3.464v3.032
		C12.501,22.771,12.277,22.996,12.002,22.996z M12.501,18.454c1.246-0.212,2.243-1.209,2.455-2.455h-2.455V18.454z M16.501,14.999
		c0.267,0,0.526-0.07,0.754-0.201c0.347-0.2,0.595-0.524,0.699-0.911c0.104-0.387,0.051-0.791-0.15-1.138
		c-0.004-0.007-0.019-0.037-0.022-0.044l-4.304-9.517c-0.01-0.023-0.019-0.048-0.026-0.073c-0.142-0.526-0.556-0.934-1.081-1.067
		c-0.121-0.031-0.245-0.046-0.368-0.046c-0.688,0-1.286,0.465-1.454,1.132c-0.007,0.028-0.017,0.056-0.029,0.084l-4.292,9.488
		c-0.152,0.267-0.223,0.527-0.224,0.792c0,0.4,0.156,0.777,0.439,1.061c0.283,0.284,0.66,0.44,1.06,0.441h4v-2.043
		c-1.419-0.241-2.5-1.498-2.5-2.957c0-0.276,0.224-0.5,0.5-0.5s0.5,0.224,0.5,0.5c0,0.925,0.628,1.713,1.5,1.936V7.996
		c0-0.276,0.224-0.5,0.5-0.5s0.5,0.224,0.5,0.5L16.501,14.999z"/>
</g>
</svg>
