<?xml version="1.0" encoding="utf-8"?>
<!-- Generator: Adobe Illustrator 22.1.0, SVG Export Plug-In . SVG Version: 6.00 Build 0)  -->
<svg version="1.1" id="Light" xmlns="http://www.w3.org/2000/svg" xmlns:xlink="http://www.w3.org/1999/xlink" x="0px" y="0px"
	 viewBox="0 0 24 24" style="enable-background:new 0 0 24 24;" xml:space="preserve">
<g>
	<title>trees-camp-fire</title>
	<path d="M16.497,24c-0.276,0-0.5-0.224-0.5-0.5V19h-4v4.5c0,0.276-0.224,0.5-0.5,0.5s-0.5-0.224-0.5-0.5V19H8.58
		c-0.276,0-0.5-0.224-0.5-0.5S8.304,18,8.58,18h9.417l-3.9-5.2c-0.114-0.152-0.133-0.353-0.047-0.523
		C14.135,12.106,14.307,12,14.497,12h2.066l-3.482-5.223c-0.102-0.154-0.112-0.35-0.025-0.513C13.143,6.101,13.312,6,13.497,6h1.066
		l-3.066-4.599l-3.066,4.6l1.066,0c0.185,0,0.354,0.101,0.441,0.264c0.087,0.163,0.078,0.36-0.025,0.514L6.431,12l2.066,0
		c0.191,0,0.362,0.106,0.447,0.276s0.067,0.371-0.047,0.523l-1.57,2.094c-0.094,0.125-0.243,0.2-0.4,0.2
		c-0.109,0-0.213-0.035-0.3-0.1c-0.107-0.08-0.176-0.197-0.195-0.329c-0.019-0.132,0.015-0.264,0.095-0.371L7.497,13H6.431
		c-0.197,0-0.388-0.058-0.553-0.167c-0.459-0.306-0.584-0.928-0.279-1.387l2.964-4.445H8.431c-0.198,0-0.389-0.058-0.554-0.167
		C7.655,6.686,7.504,6.46,7.451,6.198c-0.053-0.262,0-0.529,0.148-0.751l3.066-4.6c0.074-0.11,0.167-0.204,0.277-0.277
		c0.165-0.11,0.357-0.168,0.553-0.168c0.066,0,0.132,0.007,0.197,0.02c0.262,0.052,0.488,0.204,0.636,0.426l3.584,5.376
		c0.102,0.154,0.112,0.35,0.025,0.513C15.851,6.899,15.682,7,15.497,7h-1.066l2.964,4.446c0.11,0.164,0.168,0.356,0.168,0.554
		c0,0.267-0.104,0.518-0.293,0.707C17.081,12.896,16.83,13,16.563,13h-1.066l3.3,4.4c0.129,0.172,0.2,0.385,0.2,0.6
		c0,0.552-0.448,1-1,1h-1v4.5C16.997,23.776,16.773,24,16.497,24z"/>
	<path d="M21.018,19c-0.276,0-0.5-0.224-0.5-0.5s0.224-0.5,0.5-0.5h1.545l-3.482-5.223c-0.102-0.154-0.112-0.35-0.025-0.513
		C19.143,12.101,19.312,12,19.497,12h2.066l-3.482-5.223c-0.103-0.153-0.112-0.35-0.025-0.513S18.312,6,18.497,6h1.066l-3.066-4.6
		L15.57,2.791c-0.093,0.139-0.248,0.223-0.416,0.223c-0.099,0-0.195-0.029-0.277-0.084c-0.111-0.074-0.187-0.187-0.213-0.318
		c-0.026-0.131,0-0.264,0.074-0.376l0.927-1.391c0.074-0.11,0.167-0.204,0.277-0.277c0.164-0.11,0.356-0.168,0.553-0.168
		c0.336,0,0.647,0.166,0.833,0.445l3.066,4.6C20.505,5.61,20.563,5.802,20.563,6c0,0.267-0.104,0.518-0.293,0.707
		C20.081,6.896,19.83,7,19.563,7h-0.132l2.964,4.446c0.11,0.164,0.168,0.356,0.168,0.554c0,0.267-0.104,0.518-0.293,0.707
		C22.081,12.896,21.83,13,21.563,13h-1.132l2.964,4.446c0.11,0.164,0.168,0.356,0.168,0.554c0,0.267-0.104,0.518-0.293,0.707
		C23.081,18.896,22.83,19,22.563,19C22.563,19,21.018,19,21.018,19z"/>
	<path d="M3.611,23.945c-0.94,0-1.831-0.36-2.509-1.013c-0.695-0.67-1.087-1.572-1.105-2.538c0-0.023,0.001-0.044,0.003-0.065
		c0.079-0.705,0.323-1.394,0.704-1.992c0.057-0.102,0.15-0.206,0.262-0.288c0.173-0.127,0.378-0.195,0.593-0.195
		c0.317,0,0.618,0.152,0.806,0.406c0.023,0.032,0.047,0.064,0.069,0.094c0.262-0.87,0.25-1.802-0.04-2.668
		c-0.075-0.291-0.039-0.559,0.099-0.791c0.136-0.23,0.354-0.393,0.613-0.458c0.081-0.021,0.165-0.031,0.249-0.031
		c0.178,0,0.354,0.048,0.508,0.14c2.053,1.252,3.308,3.43,3.364,5.827c-0.035,1.972-1.594,3.536-3.55,3.571L3.611,23.945z
		 M0.998,20.408c0.021,0.687,0.304,1.326,0.799,1.804c0.49,0.473,1.135,0.733,1.816,0.733l0.048,0
		c1.415-0.025,2.543-1.154,2.569-2.568c-0.048-2.039-1.124-3.901-2.878-4.972c0.458,1.354,0.336,2.881-0.337,4.174
		c-0.076,0.145-0.218,0.244-0.38,0.265c-0.023,0.003-0.043,0.004-0.062,0.004c-0.143,0-0.278-0.06-0.373-0.165
		c-0.134-0.148-0.421-0.533-0.638-0.829c0,0,0,0.001,0,0.001C1.256,19.332,1.064,19.865,0.998,20.408z"/>
	<path d="M0.983,6.042c-0.134,0-0.259-0.052-0.354-0.146C-0.526,4.74,0.18,3.803,0.602,3.243c0.438-0.581,0.619-0.821,0.051-1.39
		c-0.195-0.195-0.195-0.512,0-0.707C0.748,1.052,0.874,1,1.007,1s0.259,0.052,0.354,0.146c1.183,1.184,0.468,2.132,0.04,2.699
		C0.96,4.429,0.796,4.648,1.337,5.188c0.094,0.094,0.146,0.22,0.146,0.354S1.431,5.801,1.337,5.896S1.117,6.042,0.983,6.042z"/>
	<path d="M3.969,10C3.836,10,3.71,9.948,3.616,9.854C2.459,8.697,3.167,7.76,3.59,7.2c0.438-0.581,0.62-0.821,0.053-1.388
		C3.448,5.616,3.449,5.299,3.644,5.104c0.095-0.094,0.22-0.146,0.353-0.146c0.134,0,0.26,0.052,0.354,0.147
		c1.18,1.182,0.464,2.131,0.037,2.697C3.946,8.387,3.781,8.605,4.323,9.146c0.195,0.195,0.195,0.512,0,0.707
		C4.228,9.948,4.103,10,3.969,10z"/>
	<path d="M22.973,5.042c-0.134,0-0.259-0.052-0.354-0.146c-1.156-1.156-0.449-2.093-0.027-2.652c0.438-0.581,0.619-0.821,0.051-1.39
		c-0.195-0.195-0.195-0.512,0-0.707C22.738,0.052,22.864,0,22.997,0c0.134,0,0.259,0.052,0.354,0.146
		c1.183,1.184,0.468,2.132,0.04,2.699c-0.44,0.584-0.605,0.802-0.064,1.343c0.195,0.195,0.195,0.512,0,0.707
		C23.232,4.99,23.107,5.042,22.973,5.042z"/>
</g>
</svg>
