<?xml version="1.0" encoding="utf-8"?>
<!-- Generator: Adobe Illustrator 22.1.0, SVG Export Plug-In . SVG Version: 6.00 Build 0)  -->
<svg version="1.1" id="Light" xmlns="http://www.w3.org/2000/svg" xmlns:xlink="http://www.w3.org/1999/xlink" x="0px" y="0px"
	 viewBox="0 0 24 24" style="enable-background:new 0 0 24 24;" xml:space="preserve">
<g>
	<title>tree-cloud</title>
	<path d="M11.496,23.998c-0.276,0-0.5-0.224-0.5-0.5v-9.581c-0.878-0.124-1.704-0.406-2.462-0.839
		c-0.905,0.602-1.954,0.919-3.046,0.919c-0.359,0-0.72-0.036-1.072-0.106c-1.441-0.287-2.684-1.117-3.5-2.339
		C0.1,10.331-0.192,8.865,0.095,7.424c0.287-1.441,1.118-2.684,2.339-3.5c0.909-0.607,1.961-0.928,3.043-0.928
		c0.249,0,0.499,0.017,0.748,0.051c1.011-1.471,2.579-2.519,4.326-2.888c0.477-0.101,0.963-0.151,1.447-0.151
		c3.133,0,5.864,2.068,6.725,5.059C18.977,5.022,19.236,5,19.495,5c1.427,0,2.782,0.682,3.627,1.826
		c1.474,1.996,1.049,4.819-0.947,6.293C21.394,13.695,20.472,14,19.51,14c-0.224,0-0.453-0.017-0.678-0.051
		c-1.006-0.151-1.926-0.636-2.615-1.373c-1.201,0.911-2.69,1.411-4.221,1.412v4.803l1.279-1.279
		c-0.183-0.308-0.279-0.654-0.279-1.014c0-1.103,0.897-2,2-2s2,0.897,2,2s-0.897,2-2,2c-0.36,0-0.707-0.096-1.014-0.279
		l-1.986,1.986v3.293C11.996,23.773,11.771,23.998,11.496,23.998z M14.996,15.498c-0.552,0-1,0.448-1,1s0.448,1,1,1s1-0.448,1-1
		S15.547,15.498,14.996,15.498z M16.284,11.375c0.017,0,0.034,0.001,0.051,0.003c0.141,0.015,0.269,0.088,0.352,0.2
		c0.556,0.752,1.371,1.243,2.295,1.382c0.176,0.027,0.354,0.04,0.53,0.04c0.747,0,1.463-0.237,2.07-0.686
		c1.552-1.146,1.883-3.342,0.736-4.895C21.66,6.53,20.606,6,19.495,6c-0.337,0-0.672,0.049-0.996,0.145
		c-0.046,0.014-0.094,0.021-0.143,0.021c-0.09,0-0.178-0.024-0.255-0.07c-0.12-0.071-0.205-0.19-0.234-0.327
		c-0.583-2.759-3.051-4.762-5.869-4.762c-0.415,0-0.832,0.044-1.241,0.13C9.159,1.475,7.749,2.466,6.891,3.857
		C6.799,4.005,6.64,4.094,6.465,4.094c-0.032,0-0.064-0.003-0.095-0.009C6.077,4.026,5.781,3.997,5.487,3.997
		c-2.138,0-3.993,1.523-4.411,3.622C0.841,8.798,1.08,9.998,1.747,10.997s1.685,1.679,2.864,1.914
		c0.288,0.057,0.583,0.086,0.876,0.086c0.978,0,1.945-0.325,2.722-0.914c0.086-0.066,0.194-0.102,0.302-0.102
		c0.095,0,0.188,0.027,0.269,0.078c0.956,0.611,2.065,0.933,3.209,0.933c1.467,0,2.875-0.53,3.963-1.492
		C16.044,11.419,16.162,11.375,16.284,11.375z"/>
</g>
</svg>
