<?xml version="1.0" encoding="utf-8"?>
<!-- Generator: Adobe Illustrator 22.1.0, SVG Export Plug-In . SVG Version: 6.00 Build 0)  -->
<svg version="1.1" id="Light" xmlns="http://www.w3.org/2000/svg" xmlns:xlink="http://www.w3.org/1999/xlink" x="0px" y="0px"
	 viewBox="0 0 24 24" style="enable-background:new 0 0 24 24;" xml:space="preserve">
<g>
	<title>tree-log</title>
	<path d="M7.505,21.5c-4.135,0-7.5-3.365-7.5-7.5s3.365-7.5,7.5-7.5h5.531c0.149,0,0.289-0.066,0.385-0.18l2.113-2.536
		C15.745,2.903,17.205,2.5,18.505,2.5c1.491,0,3,0.515,3,1.5c0,0.283-0.131,0.549-0.38,0.772l-1.456,2.427
		c3.544,1.639,5.243,5.713,3.875,9.407c-1.084,2.927-3.911,4.894-7.032,4.894H7.505z M16.505,20.5c2.712,0,5.161-1.705,6.101-4.242
		c0.33-0.89,0.458-1.817,0.383-2.758h-5.485c-0.276,0-0.5-0.224-0.5-0.5s0.224-0.5,0.5-0.5h5.328
		c-0.471-1.981-1.824-3.613-3.682-4.438l-0.717,1.195C18.344,9.407,18.18,9.5,18.005,9.5c-0.09,0-0.179-0.025-0.257-0.071
		c-0.236-0.142-0.313-0.45-0.171-0.686l2.001-3.335C19.235,5.468,18.869,5.5,18.505,5.5c-0.83,0-1.932-0.179-2.545-0.665
		L14.189,6.96c-0.286,0.343-0.706,0.54-1.152,0.54h-1.792c2.315,1.325,3.76,3.772,3.76,6.5c0,0.858-0.145,1.697-0.43,2.5h2.93
		c0.276,0,0.5,0.224,0.5,0.5s-0.224,0.5-0.5,0.5h-3.37c-0.667,1.26-1.672,2.297-2.894,3H16.505z M7.505,7.5
		c-3.584,0-6.5,2.916-6.5,6.5c0,3.584,2.916,6.5,6.5,6.5c3.584,0,6.5-2.916,6.5-6.5C14.005,10.416,11.089,7.5,7.505,7.5z M16.515,4
		c0.115,0.16,0.796,0.5,1.99,0.5c0.938,0,1.641-0.22,1.921-0.438c0.005-0.004,0.025-0.018,0.03-0.022
		c0.019-0.016,0.031-0.03,0.039-0.041C20.378,3.838,19.697,3.5,18.505,3.5C17.311,3.5,16.63,3.84,16.515,4z"/>
	<path d="M7.508,18.5c-2.481,0-4.5-2.019-4.5-4.5c0-2.481,2.019-4.5,4.5-4.5s4.5,2.019,4.5,4.5C12.008,16.481,9.989,18.5,7.508,18.5
		z M7.508,10.5c-1.93,0-3.5,1.57-3.5,3.5s1.57,3.5,3.5,3.5s3.5-1.57,3.5-3.5S9.438,10.5,7.508,10.5z"/>
	<path d="M7.505,14.75c-0.414,0-0.75-0.336-0.75-0.75c0-0.017,0.004-0.045,0.008-0.067c0.034-0.374,0.345-0.669,0.72-0.682
		c0.007-0.001,0.024-0.001,0.025-0.001c0.008,0,0.016,0,0.024,0.001c0.374,0.013,0.683,0.306,0.718,0.679
		c0.004,0.017,0.008,0.041,0.008,0.07c0,0.414-0.336,0.75-0.75,0.75C7.508,14.75,7.506,14.75,7.505,14.75z"/>
</g>
</svg>
