<?xml version="1.0" encoding="utf-8"?>
<!-- Generator: Adobe Illustrator 22.1.0, SVG Export Plug-In . SVG Version: 6.00 Build 0)  -->
<svg version="1.1" id="Light" xmlns="http://www.w3.org/2000/svg" xmlns:xlink="http://www.w3.org/1999/xlink" x="0px" y="0px"
	 viewBox="0 0 24 24" style="enable-background:new 0 0 24 24;" xml:space="preserve">
<g>
	<title>trees-hive</title>
	<path d="M3,19c-0.276,0-0.5-0.224-0.5-0.5V18c0-0.202,0.121-0.384,0.307-0.461C4.442,16.856,5.499,15.271,5.5,13.5V6
		c0-0.551,0.449-1,1-1H7c0.939,0,1.836,0.449,2.4,1.2c0.026,0.035,0.048,0.074,0.064,0.114L10,7.654l0.536-1.339
		C10.552,6.274,10.574,6.235,10.6,6.2C11.164,5.449,12.061,5,13,5h4.5c0.552,0,1,0.449,1,1v2.931l2.178-1.815
		C20.768,7.041,20.882,7,20.998,7c0.148,0,0.289,0.065,0.384,0.179c0.177,0.212,0.148,0.528-0.063,0.704L19.979,9h1.019
		c0.276,0,0.5,0.224,0.5,0.5s-0.224,0.5-0.5,0.5h-2.219L18.5,10.233V13.5c-0.002,1.773,1.054,3.358,2.692,4.038
		C21.379,17.616,21.5,17.797,21.5,18v0.5c0,0.276-0.224,0.5-0.5,0.5H3z M19.933,18c-1.502-0.981-2.436-2.671-2.433-4.5V6h-2.002v6
		c0,0.276-0.224,0.5-0.5,0.5s-0.5-0.224-0.5-0.5V6H13c-0.604,0-1.185,0.28-1.562,0.751l-0.974,2.435C10.388,9.377,10.205,9.5,10,9.5
		S9.612,9.377,9.536,9.186L8.562,6.751C8.185,6.28,7.604,6,7,6H6.5l0,7.5c-0.001,1.827-0.936,3.518-2.437,4.5H19.933z"/>
	<path d="M12.998,11c-0.276,0-0.5-0.224-0.5-0.5V8c0-0.276,0.224-0.5,0.5-0.5s0.5,0.224,0.5,0.5v2.5
		C13.498,10.776,13.274,11,12.998,11z"/>
</g>
</svg>
