<?xml version="1.0" encoding="utf-8"?>
<!-- Generator: Adobe Illustrator 22.1.0, SVG Export Plug-In . SVG Version: 6.00 Build 0)  -->
<svg version="1.1" id="Light" xmlns="http://www.w3.org/2000/svg" xmlns:xlink="http://www.w3.org/1999/xlink" x="0px" y="0px"
	 viewBox="0 0 24 24" style="enable-background:new 0 0 24 24;" xml:space="preserve">
<g>
	<title>tree-two</title>
	<path d="M5.75,23.388c-0.276,0-0.5-0.224-0.5-0.5v-4.5h-3c-1.103,0-2-0.897-2-2c0-0.049,0.007-0.098,0.021-0.145L4.792,1.322
		C4.918,0.903,5.312,0.61,5.75,0.61c0.097,0,0.193,0.014,0.286,0.042C6.36,0.749,6.611,1,6.708,1.324l4.521,14.919
		c0.014,0.047,0.021,0.096,0.021,0.145c0,1.103-0.897,2-2,2h-3v4.5C6.25,23.164,6.026,23.388,5.75,23.388z M9.25,17.388
		c0.523,0,0.963-0.415,0.998-0.933l-0.93-3.069c-0.005,0-0.059,0.001-0.059,0.001c-0.811,0-1.565,0.313-2.131,0.879
		c-0.566,0.567-0.878,1.32-0.878,2.122v1H9.25z M1.252,16.455c0.035,0.518,0.474,0.933,0.998,0.933h3v-1
		c0-0.129-0.008-0.259-0.025-0.385c-0.103-0.795-0.509-1.502-1.144-1.991c-0.527-0.406-1.156-0.62-1.822-0.62
		c-0.026,0-0.053,0-0.079,0.001L1.252,16.455z M8.25,9.888c-1.103,0-2,0.898-2,2v1.854c0.055-0.063,0.112-0.124,0.171-0.183
		c0.701-0.701,1.615-1.11,2.597-1.166L8.258,9.888C8.255,9.888,8.25,9.888,8.25,9.888z M2.483,12.395
		c0.804,0.045,1.564,0.328,2.209,0.825c0.204,0.157,0.391,0.331,0.559,0.521v-1.853c0-0.104-0.008-0.209-0.024-0.311
		c-0.151-0.962-1-1.687-1.975-1.687c-0.003,0-0.006,0-0.009,0L2.483,12.395z M3.54,8.904c0.637,0.062,1.236,0.328,1.71,0.752V6.888
		c0-0.276,0.224-0.5,0.5-0.5s0.5,0.224,0.5,0.5v2.768c0.474-0.425,1.073-0.691,1.709-0.754L5.75,1.612L3.54,8.904z"/>
	<path d="M16.75,23.388c-0.276,0-0.5-0.224-0.5-0.5v-6.019c-3.664-0.257-6.5-3.278-6.5-6.981c0-3.86,3.14-7,7-7s7,3.14,7,7
		c0,3.702-2.836,6.723-6.5,6.981v6.019C17.25,23.164,17.026,23.388,16.75,23.388z M19.25,10.888c0.212,0,0.402,0.134,0.472,0.334
		c0.091,0.26-0.046,0.546-0.306,0.637c-1.286,0.451-2.156,1.669-2.166,3.032v0.975c3.105-0.255,5.5-2.832,5.5-5.978
		c0-3.308-2.692-6-6-6s-6,2.692-6,6c0,3.146,2.395,5.723,5.5,5.978v-3.478c0-1.103-0.897-2-2-2c-0.276,0-0.5-0.224-0.5-0.5
		s0.224-0.5,0.5-0.5c0.744,0,1.455,0.279,2,0.768V7.888c0-0.276,0.224-0.5,0.5-0.5s0.5,0.224,0.5,0.5v4.299
		c0.485-0.578,1.117-1.019,1.834-1.271C19.139,10.898,19.194,10.888,19.25,10.888z"/>
</g>
</svg>
