<?xml version="1.0" encoding="utf-8"?>
<!-- Generator: Adobe Illustrator 22.1.0, SVG Export Plug-In . SVG Version: 6.00 Build 0)  -->
<svg version="1.1" id="Layer_1" xmlns="http://www.w3.org/2000/svg" xmlns:xlink="http://www.w3.org/1999/xlink" x="0px" y="0px"
	 viewBox="0 0 24 24" style="enable-background:new 0 0 24 24;" xml:space="preserve">
<g>
	<title>study-exam-math</title>
	<path d="M4.5,24C3.673,24,3,23.327,3,22.5v-21C3,0.673,3.673,0,4.5,0h11.086c0.401,0,0.777,0.156,1.061,0.439l3.914,3.915
		C20.844,4.638,21,5.015,21,5.415V22.5c0,0.827-0.673,1.5-1.5,1.5H4.5z M4.5,1C4.224,1,4,1.224,4,1.5v21C4,22.776,4.224,23,4.5,23
		h15c0.276,0,0.5-0.224,0.5-0.5V6h-3.5C15.673,6,15,5.327,15,4.5V1H4.5z M16,4.5C16,4.776,16.224,5,16.5,5h3.292L16,1.207V4.5z"/>
	<path d="M8.5,9.001c-0.276,0-0.5-0.224-0.5-0.5v-1.5H6.5c-0.276,0-0.5-0.224-0.5-0.5s0.224-0.5,0.5-0.5H8v-1.5
		c0-0.276,0.224-0.5,0.5-0.5S9,4.225,9,4.501v1.5h1.5c0.276,0,0.5,0.224,0.5,0.5s-0.224,0.5-0.5,0.5H9v1.5
		C9,8.777,8.776,9.001,8.5,9.001z"/>
	<path d="M16.828,13.501c-0.134,0-0.259-0.052-0.354-0.146l-1.06-1.06l-1.061,1.06c-0.094,0.094-0.22,0.146-0.354,0.146
		s-0.259-0.052-0.354-0.146s-0.146-0.22-0.146-0.354s0.052-0.259,0.146-0.354l1.061-1.061l-1.061-1.06
		c-0.094-0.094-0.146-0.22-0.146-0.354s0.052-0.259,0.146-0.354S13.866,9.673,14,9.673s0.259,0.052,0.354,0.146l1.061,1.06
		l1.06-1.06c0.094-0.094,0.22-0.146,0.354-0.146s0.259,0.052,0.354,0.146s0.146,0.22,0.146,0.354s-0.052,0.259-0.146,0.354
		l-1.061,1.06l1.061,1.061c0.094,0.094,0.146,0.22,0.146,0.354s-0.052,0.259-0.146,0.354S16.961,13.501,16.828,13.501z"/>
	<path d="M7.5,18.001c-0.276,0-0.5-0.224-0.5-0.5s0.224-0.5,0.5-0.5h4c0.276,0,0.5,0.224,0.5,0.5s-0.224,0.5-0.5,0.5H7.5z"/>
	<path d="M9.5,16.251c-0.414,0-0.75-0.336-0.75-0.75c0-0.415,0.336-0.751,0.75-0.751c0.011,0,0.024,0.001,0.037,0.003
		c0.383,0.012,0.705,0.338,0.713,0.733c0,0.005,0,0.023,0,0.027c-0.008,0.392-0.323,0.716-0.714,0.735
		C9.524,16.25,9.511,16.251,9.5,16.251z"/>
	<path d="M9.5,20.251c-0.414,0-0.75-0.336-0.75-0.75c0-0.415,0.336-0.751,0.75-0.751c0.011,0,0.024,0.001,0.037,0.003
		c0.383,0.012,0.705,0.338,0.713,0.733c0,0.005,0,0.023,0,0.027c-0.008,0.392-0.323,0.716-0.714,0.735
		C9.524,20.25,9.511,20.251,9.5,20.251z"/>
</g>
</svg>
