<?xml version="1.0" encoding="utf-8"?>
<!-- Generator: Adobe Illustrator 22.1.0, SVG Export Plug-In . SVG Version: 6.00 Build 0)  -->
<svg version="1.1" id="Layer_1" xmlns="http://www.w3.org/2000/svg" xmlns:xlink="http://www.w3.org/1999/xlink" x="0px" y="0px"
	 viewBox="0 0 24 24" style="enable-background:new 0 0 24 24;" xml:space="preserve">
<g>
	<title>study-desk</title>
	<path d="M22.499,24.004c-0.24,0-0.447-0.172-0.491-0.408l-1.423-7.592H3.415l-1.424,7.592C1.947,23.832,1.74,24.004,1.5,24.004
		c-0.031,0-0.062-0.003-0.093-0.009c-0.131-0.024-0.245-0.099-0.32-0.209c-0.075-0.11-0.103-0.243-0.079-0.374l1.389-7.408H1.86
		c-0.43,0-0.811-0.274-0.948-0.682l-0.667-2c-0.175-0.522,0.108-1.09,0.63-1.265c0.099-0.033,0.212-0.051,0.319-0.052h1.575
		C2.593,11.703,2.5,11.36,2.5,11.002c0-0.575,0.255-1.123,0.682-1.5C2.754,9.126,2.5,8.578,2.5,8.002c0-1.103,0.897-2,2-2h5
		c0.007,0,0.015,0,0.023,0.001H10.5c0.276,0,0.5,0.224,0.5,0.5s-0.224,0.5-0.5,0.5H10v2h0.5c0.276,0,0.5,0.224,0.5,0.5
		s-0.224,0.5-0.5,0.5H10v2h5.551c0.199-0.973,0.975-1.75,1.949-1.95V4.267c0-0.877-0.509-1.661-1.269-2.034
		c0.494,1.266,0.216,2.758-0.753,3.743c-0.094,0.096-0.22,0.149-0.354,0.149c-0.135,0-0.261-0.052-0.355-0.146l-4.242-4.243
		c-0.094-0.094-0.147-0.223-0.146-0.355s0.055-0.261,0.149-0.354c0.658-0.647,1.529-1.003,2.454-1.003
		c0.92,0,1.783,0.35,2.439,0.988C17.128,1.108,18.5,2.548,18.5,4.266v5.787c0.973,0.2,1.749,0.976,1.949,1.95h2.357
		c0.268,0,0.518,0.104,0.707,0.292c0.189,0.188,0.294,0.439,0.294,0.707c0,0.109-0.017,0.217-0.052,0.32l-0.667,1.999
		c-0.137,0.409-0.518,0.683-0.948,0.683h-0.538l1.389,7.408c0.025,0.131-0.003,0.264-0.078,0.375s-0.189,0.185-0.321,0.209
		C22.561,24.001,22.53,24.004,22.499,24.004z M1.192,13.004l0.668,2.001l20.28-0.001l0.667-1.999L1.192,13.004l0-0.25L1.192,13.004z
		 M19.414,12.003c-0.209-0.586-0.773-1-1.414-1s-1.206,0.414-1.414,1H19.414z M4.5,10.002c-0.551,0-1,0.449-1,1c0,0.552,0.449,1,1,1
		H9v-2H4.5z M4.5,7.002c-0.551,0-1,0.449-1,1s0.449,1,1,1H9v-2H4.5z M15.081,4.879c0.618-0.964,0.5-2.281-0.316-3.11
		c-0.473-0.481-1.106-0.746-1.783-0.746c-0.483,0-0.956,0.14-1.357,0.399L15.081,4.879z"/>
</g>
</svg>
