<?xml version="1.0" encoding="utf-8"?>
<!-- Generator: Adobe Illustrator 22.1.0, SVG Export Plug-In . SVG Version: 6.00 Build 0)  -->
<svg version="1.1" id="Layer_1" xmlns="http://www.w3.org/2000/svg" xmlns:xlink="http://www.w3.org/1999/xlink" x="0px" y="0px"
	 viewBox="0 0 24 24" style="enable-background:new 0 0 24 24;" xml:space="preserve">
<g>
	<title>study-owl</title>
	<circle cx="9" cy="9.966" r="1"/>
	<circle cx="15" cy="9.966" r="1"/>
	<path d="M12,22.966c-1.184,0-2.328-0.345-3.312-1H8.5c-3.033,0-5.5-2.467-5.5-5.5v-2c0-1.822,1.399-3.322,3.178-3.485
		C6.06,10.655,6,10.315,6,9.966c0-0.856,0.363-1.664,1-2.234V5.078L6,4.694v2.772c0,0.276-0.224,0.5-0.5,0.5S5,7.742,5,7.466v-3.5
		C5,3.907,5.011,3.85,5.034,3.79C5.037,3.78,5.05,3.753,5.055,3.743c0.02-0.04,0.043-0.074,0.071-0.105
		C5.14,3.622,5.151,3.61,5.164,3.598c0.032-0.029,0.069-0.055,0.111-0.076c0.004-0.003,0.018-0.01,0.02-0.011
		c0.006-0.003,0.013-0.006,0.019-0.009l6.147-2.369c0.173-0.067,0.354-0.1,0.539-0.1s0.366,0.034,0.539,0.1l5.534,2.133
		c0.198,0.076,0.355,0.234,0.431,0.432c0.071,0.186,0.066,0.39-0.016,0.573c-0.082,0.183-0.23,0.323-0.417,0.395L17,5.079v2.653
		c0.637,0.57,1,1.378,1,2.234c0,0.35-0.06,0.689-0.178,1.015C19.601,11.143,21,12.644,21,14.466v2c0,3.033-2.467,5.5-5.5,5.5h-0.188
		C14.328,22.62,13.184,22.966,12,22.966z M6.5,13.216c0.276,0,0.5,0.224,0.5,0.5v3.25c0,2.757,2.243,5,5,5c2.757,0,5-2.243,5-5
		v-3.25c0-0.276,0.224-0.5,0.5-0.5s0.5,0.224,0.5,0.5v3.25c0,1.415-0.508,2.787-1.414,3.863C18.549,20.337,20,18.543,20,16.466v-2
		c0-1.378-1.122-2.5-2.5-2.5h-0.266c-0.57,0.637-1.378,1-2.234,1c-0.238,0-0.475-0.029-0.708-0.086l-1.938,1.939
		c-0.095,0.094-0.22,0.146-0.354,0.146s-0.259-0.052-0.353-0.146l-1.939-1.94C9.475,12.937,9.238,12.966,9,12.966
		c-0.856,0-1.664-0.363-2.234-1H6.5c-1.379,0-2.5,1.122-2.5,2.5v2c0,2.077,1.451,3.871,3.414,4.363C6.508,19.752,6,18.381,6,16.966
		v-3.25C6,13.44,6.224,13.216,6.5,13.216z M12,13.758l1.313-1.314C12.496,11.888,12,10.966,12,9.966c0-1.654,1.346-3,3-3
		c0.344,0,0.679,0.058,1,0.173V5.463l-3.461,1.331c-0.173,0.066-0.354,0.1-0.539,0.1c-0.184,0-0.366-0.034-0.538-0.1L8,5.463v1.676
		c0.321-0.115,0.656-0.173,1-0.173c1.654,0,3,1.346,3,3c0,1-0.496,1.923-1.313,2.479L12,13.758z M15,7.966c-1.103,0-2,0.897-2,2
		s0.897,2,2,2s2-0.897,2-2S16.103,7.966,15,7.966z M9,7.966c-1.103,0-2,0.897-2,2s0.897,2,2,2s2-0.897,2-2S10.103,7.966,9,7.966z
		 M11.82,5.861c0.058,0.022,0.118,0.033,0.18,0.033c0.061,0,0.122-0.011,0.179-0.033l4.928-1.895l-4.928-1.9
		C12.122,2.044,12.061,2.033,12,2.033c-0.061,0-0.122,0.011-0.179,0.033L6.892,3.965L11.82,5.861z"/>
</g>
</svg>
