<?xml version="1.0" encoding="utf-8"?>
<!-- Generator: Adobe Illustrator 22.1.0, SVG Export Plug-In . SVG Version: 6.00 Build 0)  -->
<svg version="1.1" id="Layer_1" xmlns="http://www.w3.org/2000/svg" xmlns:xlink="http://www.w3.org/1999/xlink" x="0px" y="0px"
	 viewBox="0 0 24 24" style="enable-background:new 0 0 24 24;" xml:space="preserve">
<g>
	<title>study-brain</title>
	<path d="M9.477,17.749c-0.276,0-0.5-0.224-0.5-0.5c0-1.516-1.234-2.75-2.75-2.751c-0.05,0.008-0.086,0.013-0.124,0.015
		c0,0-0.001,0-0.001,0c-0.29,0-0.511-0.206-0.527-0.469c-0.008-0.133,0.036-0.262,0.125-0.362s0.211-0.159,0.344-0.167
		c0.076-0.011,0.128-0.017,0.183-0.017c2.068,0,3.75,1.683,3.75,3.751C9.977,17.525,9.753,17.749,9.477,17.749z"/>
	<path d="M6.227,10.499c-0.052,0-0.102-0.006-0.151-0.013c-0.277-0.002-0.502-0.226-0.502-0.502s0.224-0.5,0.5-0.5
		c0.051,0,0.1,0.005,0.149,0.013c0.001,0,0.002,0,0.003,0c1.519,0,2.75-1.233,2.751-2.748c0-0.276,0.224-0.5,0.5-0.5
		s0.5,0.224,0.5,0.5C9.976,8.817,8.294,10.499,6.227,10.499C6.227,10.499,6.227,10.499,6.227,10.499z"/>
	<path d="M14.523,17.749c-0.276,0-0.5-0.224-0.5-0.5c0-2.068,1.682-3.75,3.75-3.751c0.055,0,0.107,0.006,0.159,0.014l0.025,0.003
		c0.133,0.008,0.255,0.067,0.344,0.167s0.133,0.229,0.125,0.362c-0.015,0.263-0.235,0.47-0.5,0.47c0,0-0.023-0.001-0.028-0.001
		c-0.038-0.002-0.074-0.007-0.11-0.012c-0.002,0-0.003,0-0.005,0c-1.528,0-2.759,1.233-2.759,2.748
		C15.023,17.525,14.799,17.749,14.523,17.749z"/>
	<path d="M15.495,24.01c-0.897,0-1.723-0.484-2.166-1.252c-0.434,0.162-0.88,0.244-1.329,0.244c-0.45,0-0.896-0.082-1.33-0.244
		c-0.443,0.768-1.268,1.252-2.166,1.252c-0.229,0-0.457-0.032-0.679-0.095c-0.643-0.181-1.176-0.602-1.502-1.185
		c-0.215-0.384-0.323-0.807-0.319-1.238c-0.867-0.05-1.694-0.359-2.369-0.883c-0.892-0.694-1.461-1.693-1.602-2.814
		c-0.108-0.861,0.042-1.705,0.433-2.461c-1.372-0.419-2.366-1.651-2.462-3.104c-0.061-0.929,0.243-1.826,0.856-2.526
		c0.436-0.497,0.986-0.852,1.607-1.039C2.157,8.059,1.996,7.39,1.999,6.709c0.006-1.13,0.451-2.191,1.255-2.986
		C3.992,2.992,4.959,2.566,6,2.506C5.996,1.423,6.68,0.467,7.701,0.122C7.962,0.034,8.231-0.01,8.502-0.01
		c0.386,0,0.758,0.088,1.108,0.261c0.597,0.296,1.044,0.806,1.257,1.438C11.232,1.565,11.611,1.502,12,1.502
		c0.389,0,0.768,0.063,1.132,0.187c0.344-1.016,1.296-1.698,2.369-1.698c0.271,0,0.539,0.044,0.797,0.131
		C17.32,0.467,18.004,1.422,18,2.5c0,0.001,0,0.003,0,0.004c1.035,0.055,2.003,0.483,2.746,1.219C21.549,4.519,21.995,5.579,22,6.71
		c0.003,0.681-0.158,1.349-0.468,1.954c0.621,0.187,1.172,0.542,1.607,1.039c0.614,0.7,0.918,1.597,0.856,2.526
		c-0.096,1.453-1.09,2.685-2.462,3.104c0.928,1.797,0.457,4.013-1.167,5.275c-0.673,0.523-1.507,0.832-2.371,0.883
		c0.004,0.431-0.104,0.855-0.319,1.239c-0.326,0.583-0.86,1.004-1.502,1.185C15.953,23.978,15.724,24.01,15.495,24.01z
		 M6.583,20.465c0.148,0,0.287,0.066,0.383,0.181c0.105,0.127,0.141,0.297,0.096,0.455c-0.109,0.386-0.061,0.791,0.134,1.14
		c0.196,0.35,0.516,0.602,0.901,0.711c0.133,0.037,0.27,0.056,0.406,0.056c0.647,0,1.217-0.411,1.422-1.023
		c0.006-0.028,0.014-0.063,0.032-0.102c0.197-0.762-0.228-1.548-0.977-1.798c-0.127-0.042-0.229-0.131-0.289-0.251
		s-0.069-0.255-0.027-0.382c0.068-0.205,0.259-0.342,0.475-0.342c0.054,0,0.107,0.009,0.158,0.026
		c1.133,0.379,1.831,1.503,1.689,2.67c0.325,0.125,0.666,0.188,1.015,0.188c0.349,0,0.689-0.063,1.014-0.188
		c-0.143-1.167,0.555-2.292,1.689-2.67c0.051-0.017,0.104-0.026,0.158-0.026c0.215,0,0.406,0.137,0.474,0.342
		c0.042,0.126,0.033,0.262-0.027,0.382c-0.06,0.119-0.162,0.208-0.289,0.251c-0.746,0.249-1.171,1.032-0.979,1.792
		c0.021,0.041,0.036,0.089,0.044,0.14c0.214,0.594,0.779,0.991,1.412,0.991c0.136,0,0.273-0.019,0.406-0.056
		c0.385-0.109,0.705-0.362,0.901-0.711c0.196-0.35,0.243-0.755,0.135-1.14c-0.045-0.158-0.009-0.328,0.096-0.455
		c0.096-0.115,0.235-0.181,0.382-0.181c0.017,0,0.033,0.001,0.05,0.002c0.045,0.004,0.092,0.01,0.139,0.017
		c0.053,0.007,0.107,0.014,0.163,0.014c0.716,0,1.42-0.241,1.985-0.68c1.406-1.094,1.661-3.127,0.568-4.534
		c-0.114-0.147-0.137-0.343-0.062-0.512c0.076-0.169,0.238-0.282,0.423-0.294c1.238-0.082,2.234-1.077,2.315-2.316
		c0.044-0.662-0.173-1.302-0.61-1.801c-0.438-0.499-1.043-0.799-1.705-0.842c-0.185-0.012-0.347-0.125-0.423-0.294
		c-0.076-0.169-0.052-0.365,0.061-0.511c0.442-0.569,0.684-1.279,0.68-1.999c-0.004-0.863-0.344-1.673-0.958-2.281
		c-0.609-0.603-1.41-0.936-2.254-0.936l-0.034,0c-0.046,0-0.088,0.006-0.129,0.012c-0.063,0.009-0.112,0.015-0.161,0.02
		c-0.008,0.001-0.037,0.002-0.045,0.002c-0.151,0-0.292-0.067-0.387-0.183c-0.105-0.127-0.14-0.299-0.093-0.458
		c0.038-0.13,0.059-0.265,0.061-0.4c0.002-0.642-0.408-1.215-1.021-1.421c-0.155-0.052-0.316-0.079-0.478-0.079
		c-0.645,0-1.217,0.41-1.423,1.021c-0.264,0.784,0.159,1.636,0.942,1.901c0.127,0.043,0.229,0.132,0.288,0.252
		s0.068,0.255,0.026,0.382c-0.068,0.204-0.259,0.341-0.473,0.341c-0.055,0-0.109-0.009-0.161-0.027
		c-0.935-0.315-1.597-1.165-1.688-2.143C12.696,2.577,12.348,2.503,12,2.503c-0.348,0-0.696,0.074-1.013,0.214
		c-0.09,0.978-0.753,1.827-1.688,2.143C9.247,4.878,9.193,4.886,9.139,4.886c-0.215,0-0.406-0.137-0.474-0.34
		C8.577,4.285,8.718,4.001,8.979,3.913c0.38-0.128,0.687-0.396,0.865-0.755c0.178-0.359,0.205-0.766,0.077-1.146
		c-0.128-0.38-0.396-0.687-0.755-0.865C8.956,1.043,8.733,0.99,8.502,0.99c-0.163,0-0.325,0.027-0.481,0.079
		C7.408,1.277,6.998,1.85,7,2.497c0.002,0.131,0.022,0.265,0.061,0.395C7.107,3.049,7.073,3.22,6.969,3.348
		C6.874,3.465,6.733,3.533,6.584,3.533c-0.008,0-0.039-0.001-0.046-0.002c-0.05-0.004-0.102-0.011-0.154-0.018
		C6.336,3.506,6.289,3.498,6.242,3.498c-0.867,0-1.675,0.332-2.284,0.935c-0.614,0.607-0.954,1.417-0.958,2.28
		C2.995,7.435,3.237,8.145,3.68,8.715c0.114,0.146,0.137,0.343,0.061,0.512C3.665,9.395,3.503,9.508,3.318,9.52
		C2.656,9.564,2.05,9.863,1.613,10.362c-0.437,0.499-0.654,1.139-0.61,1.801c0.082,1.238,1.077,2.234,2.316,2.316
		c0.185,0.012,0.347,0.125,0.423,0.294c0.076,0.169,0.053,0.365-0.061,0.512c-0.529,0.681-0.762,1.528-0.654,2.385
		c0.108,0.856,0.542,1.619,1.224,2.149c0.564,0.438,1.261,0.68,1.964,0.68l0.033,0c0.048,0,0.092-0.007,0.135-0.012
		c0.06-0.008,0.108-0.015,0.155-0.019C6.544,20.467,6.576,20.465,6.583,20.465z"/>
	<path d="M17.773,10.499c-2.067,0-3.75-1.683-3.75-3.75c0-0.276,0.224-0.5,0.5-0.5s0.5,0.224,0.5,0.5c0,1.516,1.234,2.75,2.75,2.75
		c0.053-0.009,0.102-0.015,0.153-0.015c0.276,0,0.5,0.224,0.5,0.5s-0.224,0.5-0.5,0.5C17.875,10.494,17.825,10.499,17.773,10.499
		L17.773,10.499z"/>
	<path d="M12,17.999c-0.276,0-0.5-0.224-0.5-0.5v-10.5c0-0.276,0.224-0.5,0.5-0.5c0.276,0,0.5,0.224,0.5,0.5v10.5
		C12.5,17.775,12.276,17.999,12,17.999z"/>
</g>
</svg>
