<?xml version="1.0" encoding="utf-8"?>
<!-- Generator: Adobe Illustrator 22.1.0, SVG Export Plug-In . SVG Version: 6.00 Build 0)  -->
<svg version="1.1" id="Layer_1" xmlns="http://www.w3.org/2000/svg" xmlns:xlink="http://www.w3.org/1999/xlink" x="0px" y="0px"
	 viewBox="0 0 24 24" style="enable-background:new 0 0 24 24;" xml:space="preserve">
<g>
	<title>study-notebook-maths</title>
	<path d="M1.5,24C0.673,24,0,23.327,0,22.5v-19C0,2.673,0.673,2,1.5,2H3V0.501c0-0.276,0.224-0.5,0.5-0.5S4,0.225,4,0.501V2h4V0.501
		c0-0.276,0.224-0.5,0.5-0.5S9,0.225,9,0.501V2h4V0.501c0-0.276,0.224-0.5,0.5-0.5s0.5,0.224,0.5,0.5V2h4V0.501
		c0-0.276,0.224-0.5,0.5-0.5s0.5,0.224,0.5,0.5V2h1.5C21.327,2,22,2.673,22,3.5v6c0,0.276-0.224,0.5-0.5,0.5S21,9.776,21,9.5v-6
		C21,3.224,20.776,3,20.5,3H19v2.001c0,0.276-0.224,0.5-0.5,0.5S18,5.277,18,5.001V3h-4v2.001c0,0.276-0.224,0.5-0.5,0.5
		S13,5.277,13,5.001V3H9v2.001c0,0.276-0.224,0.5-0.5,0.5S8,5.277,8,5.001V3H4v2.001c0,0.276-0.224,0.5-0.5,0.5S3,5.277,3,5.001V3
		H1.5C1.224,3,1,3.224,1,3.5v19C1,22.775,1.224,23,1.5,23h8c0.276,0,0.5,0.224,0.5,0.5S9.776,24,9.5,24H1.5z"/>
	<path d="M11.5,24c-0.134,0-0.259-0.052-0.354-0.147c-0.128-0.128-0.177-0.316-0.127-0.491l1.2-4.199
		c0.004-0.014,0.013-0.038,0.02-0.051l0.005-0.013c0.027-0.061,0.06-0.111,0.102-0.153l7.179-7.178
		C20.02,11.273,20.679,11,21.379,11s1.359,0.273,1.854,0.768C23.728,12.263,24,12.922,24,13.622s-0.273,1.358-0.768,1.854
		c0,0-7.175,7.175-7.179,7.179c-0.009,0.009-0.021,0.019-0.032,0.027c-0.03,0.025-0.065,0.048-0.104,0.067
		c-0.019,0.009-0.032,0.015-0.045,0.02c-0.012,0.005-0.026,0.01-0.037,0.013l-4.198,1.199C11.592,23.993,11.546,24,11.5,24z
		 M12.228,22.772l2.517-0.719l-1.798-1.798L12.228,22.772z M15.7,21.593l5.572-5.571l-2.293-2.293L13.407,19.3L15.7,21.593z
		 M21.978,15.315l0.547-0.547c0.632-0.632,0.632-1.661,0-2.293c-0.306-0.306-0.713-0.474-1.146-0.474s-0.841,0.168-1.146,0.474
		l-0.547,0.547L21.978,15.315z"/>
	<path d="M3.887,14c-0.203,0-0.384-0.121-0.462-0.309c-0.078-0.188-0.035-0.401,0.108-0.545l2.613-2.612
		c0.153-0.153,0.241-0.364,0.24-0.58C6.387,9.428,5.959,9,5.434,9C5.023,9,4.66,9.263,4.53,9.653
		C4.463,9.857,4.272,9.995,4.056,9.995c-0.054,0-0.108-0.009-0.159-0.026c-0.126-0.042-0.229-0.131-0.288-0.25
		s-0.07-0.255-0.027-0.382C3.847,8.538,4.591,8.001,5.434,8c1.077,0.001,1.953,0.877,1.953,1.954
		c0.001,0.479-0.194,0.949-0.534,1.288L5.095,13h1.792c0.276,0,0.5,0.224,0.5,0.5S7.163,14,6.887,14H3.887z"/>
	<path d="M13.5,13.888c-0.276,0-0.5-0.224-0.5-0.5s0.224-0.5,0.5-0.5H14v-4l-1.2,0.9c-0.087,0.065-0.191,0.1-0.3,0.1
		c-0.156,0-0.306-0.075-0.4-0.2c-0.08-0.107-0.114-0.239-0.095-0.371c0.019-0.132,0.088-0.249,0.195-0.329l1.2-0.9
		c0.171-0.129,0.385-0.2,0.6-0.2c0.552,0,1,0.449,1,1v4h0.5c0.276,0,0.5,0.224,0.5,0.5s-0.224,0.5-0.5,0.5H13.5z"/>
	<path d="M10.5,13.001c-0.276,0-0.5-0.224-0.5-0.5v-0.5H9.5c-0.276,0-0.5-0.224-0.5-0.5s0.224-0.5,0.5-0.5H10v-0.5
		c0-0.276,0.224-0.5,0.5-0.5s0.5,0.224,0.5,0.5v0.5h0.5c0.276,0,0.5,0.224,0.5,0.5s-0.224,0.5-0.5,0.5H11v0.5
		C11,12.777,10.776,13.001,10.5,13.001z"/>
</g>
</svg>
