<?xml version="1.0" encoding="utf-8"?>
<!-- Generator: Adobe Illustrator 22.1.0, SVG Export Plug-In . SVG Version: 6.00 Build 0)  -->
<svg version="1.1" id="Layer_1" xmlns="http://www.w3.org/2000/svg" xmlns:xlink="http://www.w3.org/1999/xlink" x="0px" y="0px"
	 viewBox="0 0 24 24" style="enable-background:new 0 0 24 24;" xml:space="preserve">
<g>
	<title>auto-pilot-car-signal</title>
	<path d="M10.003,1.995c-0.276,0-0.5-0.224-0.5-0.5s0.224-0.5,0.5-0.5h0.998c0.276,0,0.5,0.224,0.5,0.5s-0.224,0.5-0.5,0.5H10.003z"
		/>
	<path d="M12.999,1.995c-0.276,0-0.5-0.224-0.5-0.5s0.224-0.5,0.5-0.5h0.998c0.276,0,0.5,0.224,0.5,0.5s-0.224,0.5-0.5,0.5H12.999z"
		/>
	<path d="M15.994,1.995c-0.276,0-0.5-0.224-0.5-0.5s0.224-0.5,0.5-0.5h0.999c0.276,0,0.5,0.224,0.5,0.5s-0.224,0.5-0.5,0.5H15.994z"
		/>
	<path d="M20.99,3.996c-0.276,0-0.5-0.224-0.5-0.5v-1c0-0.276-0.224-0.5-0.5-0.5h-1c-0.276,0-0.5-0.224-0.5-0.5s0.224-0.5,0.5-0.5h1
		c0.827,0,1.5,0.673,1.5,1.5v1C21.49,3.771,21.266,3.996,20.99,3.996z"/>
	<path d="M20.987,6.988c-0.276,0-0.5-0.224-0.5-0.5V5.489c0-0.276,0.224-0.5,0.5-0.5s0.5,0.224,0.5,0.5v0.999
		C21.487,6.763,21.263,6.988,20.987,6.988z"/>
	<path d="M20.987,9.984c-0.276,0-0.5-0.224-0.5-0.5V8.485c0-0.276,0.224-0.5,0.5-0.5s0.5,0.224,0.5,0.5v0.999
		C21.487,9.76,21.263,9.984,20.987,9.984z"/>
	<path d="M1.519,6.962C1.391,6.959,1.26,6.899,1.168,6.797C0.453,6.003,0.09,4.979,0.146,3.912C0.202,2.845,0.67,1.863,1.464,1.148
		c0.738-0.665,1.689-1.031,2.677-1.031c0.988,0,1.939,0.366,2.677,1.031C6.919,1.24,6.979,1.371,6.983,1.507
		c0.004,0.136-0.05,0.27-0.146,0.366L1.893,6.816C1.801,6.909,1.672,6.963,1.54,6.963C1.535,6.963,1.524,6.963,1.519,6.962z
		 M4.141,1.118c-0.741,0-1.454,0.275-2.008,0.773C1.537,2.428,1.186,3.164,1.145,3.964C1.112,4.579,1.27,5.187,1.592,5.704
		l4.132-4.132C5.249,1.274,4.707,1.118,4.141,1.118z"/>
	<path d="M5.069,7.05c-0.276,0-0.5-0.224-0.5-0.5s0.224-0.5,0.5-0.5c0.551,0,1-0.449,1-1c0-0.276,0.224-0.5,0.5-0.5
		s0.5,0.224,0.5,0.5C7.069,6.152,6.172,7.05,5.069,7.05z"/>
	<path d="M5.071,9.545c-0.275,0-0.5-0.224-0.5-0.499c0-0.276,0.223-0.5,0.499-0.501c1.925-0.003,3.492-1.571,3.495-3.496
		c0-0.275,0.224-0.499,0.5-0.499c0.134,0,0.26,0.052,0.354,0.147s0.146,0.22,0.146,0.354C9.562,7.525,7.546,9.541,5.071,9.545
		C5.071,9.545,5.071,9.545,5.071,9.545z"/>
	<path d="M11.75,20.968c-1.079,0-1.777-1.07-1.777-2.727c0-0.21,0.013-0.428,0.041-0.666c-0.007-0.03-0.012-0.065-0.012-0.103
		c0-0.078,0.02-0.155,0.059-0.227c0.134-0.787,0.414-1.518,0.811-2.116c0.717-1.08,1.742-1.651,2.964-1.651h1.914
		c1.078,0,1.948,0.377,2.452,1.062c0.394,0.535,0.754,1.528,0.228,3.214c-0.467,1.496-1.336,3.214-3.935,3.214H11.75z
		 M10.983,17.972c-0.006,0.096-0.01,0.185-0.01,0.269c0,0.858,0.267,1.727,0.777,1.727h2.746c1.712,0,2.39-0.922,2.801-1.996H10.983
		z M17.601,16.972c0.17-0.792,0.101-1.425-0.204-1.84c-0.398-0.542-1.115-0.655-1.647-0.655h-1.914c-1.1,0-1.766,0.655-2.131,1.204
		c-0.243,0.365-0.434,0.807-0.562,1.291H17.601z"/>
	<path d="M20.058,23.996c-1.242,0-2.252-1.01-2.252-2.252s1.01-2.252,2.252-2.252c1.242,0,2.252,1.01,2.252,2.252
		c0,0.029,0,0.058-0.002,0.087c0.161-0.079,0.301-0.193,0.414-0.337c0.202-0.259,0.292-0.581,0.252-0.907
		c-0.594-4.864-4.053-8.131-8.609-8.131c-0.902,0-1.815,0.124-2.714,0.369l-1.05,0.875c-0.884,0.817-1.584,1.858-2.017,3.002
		c-0.455,1.182-1.697,1.281-2.826,1.281c-0.175,0-0.352-0.003-0.527-0.006c-0.082-0.001-0.165-0.002-0.248-0.003
		c-0.483,0.881-0.805,1.801-0.958,2.738c-0.01,0.058-0.014,0.116-0.014,0.175c0,0.446,0.269,0.827,0.662,0.989
		c-0.003-0.045-0.004-0.089-0.004-0.133c0-1.242,1.01-2.252,2.252-2.252c1.242,0,2.252,1.01,2.252,2.252s-1.01,2.252-2.252,2.252
		c-0.765,0-1.476-0.391-1.89-1.031c-1.119-0.031-2.02-0.951-2.02-2.077c0-0.113,0.009-0.226,0.027-0.337
		c0.183-1.119,0.582-2.216,1.187-3.26c0.022-0.057,0.051-0.107,0.089-0.15c1.505-2.502,4.036-4.413,6.948-5.243
		c0.002,0,0.024-0.007,0.025-0.007c0.395-0.112,0.802-0.204,1.212-0.274v-0.636c0.031-0.557,0.268-1.051,0.667-1.407
		c0.367-0.327,0.838-0.507,1.328-0.507c0.039,0,0.079,0.001,0.118,0.003c1.014,0.059,1.822,0.867,1.881,1.881l0.001,0.729
		c4.061,0.877,6.916,4.225,7.472,8.785c0.072,0.591-0.09,1.175-0.458,1.644c-0.367,0.469-0.895,0.767-1.487,0.839
		c-0.023,0.003-0.046,0.005-0.069,0.006C21.541,23.601,20.827,23.996,20.058,23.996z M20.058,20.492
		c-0.69,0-1.252,0.562-1.252,1.252s0.562,1.252,1.252,1.252s1.252-0.562,1.252-1.252S20.748,20.492,20.058,20.492z M6.922,20.492
		c-0.69,0-1.252,0.562-1.252,1.252s0.562,1.252,1.252,1.252c0.69,0,1.252-0.562,1.252-1.252S7.612,20.492,6.922,20.492z
		 M5.792,16.984c1.022,0,1.653-0.104,1.859-0.638c0.332-0.878,0.807-1.705,1.397-2.438c-1.364,0.782-2.549,1.84-3.436,3.075
		C5.672,16.983,5.732,16.984,5.792,16.984z M14.366,11.456c0.378,0,0.757,0.021,1.129,0.062v-0.537
		c-0.029-0.484-0.433-0.882-0.94-0.912c-0.021-0.001-0.041-0.002-0.061-0.002c-0.247,0-0.476,0.088-0.662,0.253
		c-0.199,0.178-0.318,0.422-0.333,0.689l0,0.482C13.796,11.468,14.087,11.456,14.366,11.456z"/>
	<path d="M10.502,22.966c-0.276,0-0.5-0.224-0.5-0.5s0.224-0.5,0.5-0.5h5.992c0.276,0,0.5,0.224,0.5,0.5s-0.224,0.5-0.5,0.5H10.502z
		"/>
</g>
</svg>
