<?xml version="1.0" encoding="utf-8"?>
<!-- Generator: Adobe Illustrator 22.1.0, SVG Export Plug-In . SVG Version: 6.00 Build 0)  -->
<svg version="1.1" id="Layer_1" xmlns="http://www.w3.org/2000/svg" xmlns:xlink="http://www.w3.org/1999/xlink" x="0px" y="0px"
	 viewBox="0 0 24 24" style="enable-background:new 0 0 24 24;" xml:space="preserve">
<g>
	<title>police-hat-3</title>
	<path d="M12.001,12.498c-0.111,0-0.222-0.016-0.329-0.049c-0.369-0.11-0.655-0.396-0.765-0.765l-0.206-0.68l-0.688,0.16
		c-0.085,0.019-0.169,0.028-0.253,0.028c-0.532,0-1.002-0.376-1.119-0.894C8.559,9.93,8.663,9.545,8.919,9.269l0.489-0.523
		L8.921,8.224C8.712,8,8.603,7.709,8.613,7.403c0.011-0.306,0.14-0.589,0.363-0.797c0.212-0.198,0.49-0.308,0.78-0.308
		c0.085,0,0.171,0.01,0.254,0.029l0.69,0.16l0.206-0.681c0.087-0.291,0.283-0.531,0.552-0.675c0.166-0.089,0.353-0.136,0.539-0.136
		c0.111,0,0.222,0.016,0.33,0.049c0.368,0.111,0.654,0.397,0.765,0.766l0.206,0.68l0.688-0.16c0.085-0.019,0.171-0.029,0.256-0.029
		c0.216,0,0.427,0.062,0.611,0.178c0.258,0.164,0.437,0.418,0.504,0.717c0.083,0.368-0.021,0.752-0.277,1.029l-0.489,0.523
		l0.488,0.521c0.43,0.464,0.403,1.19-0.06,1.62c-0.213,0.197-0.489,0.306-0.779,0.306l0,0c-0.084,0-0.168-0.009-0.25-0.028
		l-0.692-0.16l-0.206,0.681c-0.087,0.291-0.283,0.531-0.551,0.676C12.375,12.451,12.188,12.498,12.001,12.498z M10.716,10.001
		c0.428,0,0.814,0.286,0.937,0.696l0.212,0.699c0.014,0.047,0.049,0.082,0.095,0.096c0.014,0.004,0.028,0.006,0.041,0.006
		c0.023,0,0.045-0.006,0.066-0.017c0.034-0.018,0.057-0.047,0.068-0.084l0.212-0.701c0.124-0.409,0.509-0.695,0.937-0.695
		c0.073,0,0.147,0.008,0.219,0.025l0.71,0.164c0.007,0.002,0.018,0.003,0.028,0.003c0.037,0,0.072-0.014,0.099-0.039
		c0.028-0.026,0.045-0.062,0.046-0.101c0.001-0.039-0.012-0.076-0.039-0.104l-0.499-0.533c-0.347-0.376-0.347-0.963-0.002-1.337
		l0.502-0.537c0.031-0.034,0.044-0.082,0.034-0.129c-0.009-0.039-0.031-0.07-0.064-0.091c-0.024-0.015-0.05-0.023-0.077-0.023
		c-0.011,0-0.022,0.001-0.032,0.004l-0.706,0.163c-0.073,0.017-0.146,0.025-0.22,0.025c-0.428,0-0.813-0.286-0.937-0.696l-0.212-0.7
		c-0.014-0.047-0.05-0.083-0.095-0.096c-0.013-0.004-0.027-0.006-0.041-0.006c-0.023,0-0.045,0.006-0.066,0.017
		c-0.034,0.018-0.057,0.047-0.068,0.084l-0.212,0.701c-0.123,0.409-0.508,0.695-0.937,0.695c-0.073,0-0.147-0.008-0.218-0.025
		l-0.71-0.164c-0.009-0.002-0.019-0.003-0.03-0.003c-0.036,0-0.072,0.014-0.099,0.039C9.63,7.364,9.614,7.398,9.613,7.438
		s0.012,0.075,0.039,0.104l0.5,0.535c0.347,0.376,0.347,0.962,0.002,1.336L9.651,9.95c-0.031,0.034-0.044,0.083-0.034,0.129
		c0.015,0.066,0.074,0.113,0.142,0.113c0.01,0,0.021-0.001,0.032-0.004l0.705-0.163C10.568,10.009,10.642,10.001,10.716,10.001z
		 M13.278,11L13.278,11z"/>
	<path d="M11.983,22.493c-1.725,0-3.437-0.445-4.951-1.286c-1.589-0.883-2.914-2.178-3.839-3.75C2.504,17.313,2,16.705,2,15.995v-1
		c0-0.403,0.159-0.778,0.439-1.055C0.923,12.86,0.018,11.131,0,9.249c0-4.277,5.383-7.755,12-7.755c6.617,0,12,3.475,12,7.747
		c-0.017,1.887-0.922,3.617-2.439,4.698C21.841,14.217,22,14.592,22,14.995v1c0,0.711-0.504,1.318-1.192,1.462
		C18.976,20.566,15.606,22.493,11.983,22.493z M4.404,17.495c0.807,1.174,1.876,2.15,3.114,2.838c1.365,0.759,2.909,1.16,4.465,1.16
		c3.035,0,5.913-1.521,7.618-3.998H4.404z M3.5,14.495c-0.276,0-0.5,0.224-0.5,0.5v1c0,0.276,0.224,0.5,0.5,0.5h17
		c0.276,0,0.5-0.224,0.5-0.5v-1c0-0.276-0.224-0.5-0.5-0.5H3.5z M20,13.495v-3.149c-0.646-0.224-1.317-0.394-2-0.507v3.656H20z
		 M17,13.495v-3.78c-0.185-0.016-0.357-0.027-0.52-0.033C16.205,9.671,15.99,9.438,16,9.162c0.01-0.269,0.233-0.48,0.506-0.48
		c1.438,0.056,2.837,0.34,4.171,0.845C20.87,9.6,21,9.788,21,9.995v3.12c1.247-0.896,1.986-2.315,2-3.877
		c0-3.717-4.935-6.743-11-6.743S1,5.523,1,9.245c0.015,1.558,0.754,2.974,2,3.87v-3.12C3,9.788,3.13,9.6,3.323,9.527
		C4.656,9.022,6.055,8.738,7.48,8.682c0.003,0,0.012,0,0.016,0c0.272,0,0.493,0.211,0.504,0.48c0.005,0.133-0.042,0.261-0.132,0.359
		C7.776,9.619,7.653,9.676,7.52,9.681C7.357,9.688,7.185,9.699,7,9.714v3.78H17z M6,13.495V9.838c-0.683,0.113-1.354,0.283-2,0.507
		v3.149H6z"/>
</g>
</svg>
