<?xml version="1.0" encoding="utf-8"?>
<!-- Generator: Adobe Illustrator 22.1.0, SVG Export Plug-In . SVG Version: 6.00 Build 0)  -->
<svg version="1.1" id="Layer_1" xmlns="http://www.w3.org/2000/svg" xmlns:xlink="http://www.w3.org/1999/xlink" x="0px" y="0px"
	 viewBox="0 0 24 24" style="enable-background:new 0 0 24 24;" xml:space="preserve">
<g>
	<title>police-hat-5</title>
	<path d="M11.997,20.906c-1.652,0-3.353-0.096-5.056-0.286c-0.002,0-0.004,0-0.006,0c-0.037,0-0.067-0.007-0.081-0.011
		c-2.067-0.233-4.126-0.608-6.103-1.113c-0.48-0.122-0.795-0.568-0.749-1.062l0.93-10.227c0.041-0.451,0.381-0.82,0.828-0.896
		C3.909,6.89,6.118,6.606,8.323,6.47l2.954-3.082l0.033-0.033c0.187-0.178,0.432-0.276,0.69-0.276c0.273,0,0.536,0.113,0.724,0.31
		l2.952,3.081c2.204,0.137,4.414,0.421,6.57,0.844c0.17,0.029,0.336,0.109,0.475,0.23c0.004,0.002,0.022,0.019,0.04,0.037
		c0.173,0.168,0.28,0.391,0.301,0.627l0.93,10.227c0.045,0.495-0.272,0.942-0.754,1.062C19.58,20.431,15.797,20.905,11.997,20.906
		L11.997,20.906z M7.965,19.719c1.343,0.122,2.702,0.183,4.047,0.183c3.716,0,7.411-0.463,10.982-1.375L22.1,8.666
		c-3.729,1.999-7.2,4.436-10.323,7.248c-0.026,0.052-0.059,0.098-0.099,0.136c-0.046,0.043-0.099,0.076-0.161,0.099
		C10.295,17.263,9.102,18.463,7.965,19.719z M0.998,18.526c1.854,0.475,3.784,0.832,5.738,1.064c1.214-1.378,2.51-2.706,3.857-3.951
		c-2.588-2.681-5.513-5.012-8.702-6.935L0.998,18.526z M6.044,10.292c1.872,1.402,3.65,2.973,5.291,4.675
		c2.008-1.786,4.163-3.43,6.413-4.891l-5.747-5.997c-0.001,0-0.003,0.001-0.004,0.001L6.044,10.292z M2.858,8.126
		c0.806,0.499,1.599,1.027,2.368,1.575l2.063-2.152C5.808,7.674,4.322,7.867,2.858,8.126z M18.61,9.531
		c0.792-0.493,1.604-0.969,2.425-1.423c-1.432-0.25-2.881-0.437-4.324-0.559L18.61,9.531z"/>
	<path d="M15.511,17.901c-0.134,0-0.259-0.052-0.354-0.146c-0.195-0.195-0.195-0.512,0-0.707l2.006-2.007
		c0.094-0.094,0.22-0.146,0.354-0.146s0.259,0.052,0.354,0.146c0.195,0.195,0.195,0.512,0,0.707l-2.006,2.007
		C15.77,17.849,15.645,17.901,15.511,17.901z"/>
</g>
</svg>
