<?xml version="1.0" encoding="utf-8"?>
<!-- Generator: Adobe Illustrator 22.1.0, SVG Export Plug-In . SVG Version: 6.00 Build 0)  -->
<svg version="1.1" id="Layer_1" xmlns="http://www.w3.org/2000/svg" xmlns:xlink="http://www.w3.org/1999/xlink" x="0px" y="0px"
	 viewBox="0 0 24 24" style="enable-background:new 0 0 24 24;" xml:space="preserve">
<g>
	<title>police-rotating-light</title>
	<path d="M4.5,23c-0.551,0-1-0.448-1-1v-0.5c0-1.218,0.863-2.24,2.04-2.458l0.797-8.769C6.455,8.978,7.525,8,8.826,8h6.348
		c1.301,0,2.371,0.978,2.489,2.274l0.798,8.769c1.176,0.218,2.039,1.24,2.039,2.458V22c0,0.552-0.448,1-1,1H4.5z M6,20
		c-0.827,0-1.5,0.673-1.5,1.5V22h15v-0.5c0-0.827-0.673-1.5-1.5-1.5h-5.963c-0.013,0.002-0.026,0.003-0.037,0.003
		c-0.012,0-0.025-0.001-0.039-0.003L6,20z M17.453,19l-0.786-8.636C16.596,9.587,15.955,9,15.174,9H8.826
		c-0.781,0-1.422,0.587-1.493,1.364L6.548,19H11.5v-1.048c-1.155-0.234-2-1.25-2-2.449c0-1.378,1.121-2.5,2.5-2.5
		c1.378,0,2.5,1.122,2.5,2.5c0,1.199-0.845,2.215-2,2.449V19H17.453z M12,14.003c-0.827,0-1.5,0.673-1.5,1.5s0.673,1.5,1.5,1.5
		s1.5-0.673,1.5-1.5S12.827,14.003,12,14.003z"/>
	<path d="M21,13c-0.276,0-0.5-0.224-0.5-0.5c0-0.276,0.224-0.5,0.5-0.5h2.5c0.276,0,0.5,0.224,0.5,0.5c0,0.276-0.224,0.5-0.5,0.5H21
		z"/>
	<path d="M19,7c-0.134,0-0.259-0.052-0.354-0.146S18.5,6.634,18.5,6.5s0.052-0.259,0.146-0.354l2-2C20.741,4.052,20.866,4,21,4
		s0.259,0.052,0.354,0.146S21.5,4.366,21.5,4.5s-0.052,0.259-0.146,0.354l-2,2C19.259,6.948,19.134,7,19,7z"/>
	<path d="M0.5,12.5C0.224,12.5,0,12.276,0,12c0-0.276,0.224-0.5,0.5-0.5H3c0.276,0,0.5,0.224,0.5,0.5c0,0.276-0.224,0.5-0.5,0.5H0.5
		z"/>
	<path d="M5,7C4.866,7,4.741,6.948,4.646,6.854l-2-2C2.552,4.759,2.5,4.634,2.5,4.5s0.052-0.259,0.146-0.354S2.866,4,3,4
		s0.259,0.052,0.354,0.146l2,2C5.448,6.241,5.5,6.366,5.5,6.5S5.448,6.759,5.354,6.854S5.134,7,5,7z"/>
	<path d="M12,5c-0.276,0-0.5-0.224-0.5-0.5v-3C11.5,1.224,11.724,1,12,1c0.276,0,0.5,0.224,0.5,0.5v3C12.5,4.776,12.276,5,12,5z"/>
</g>
</svg>
