<?xml version="1.0" encoding="utf-8"?>
<!-- Generator: Adobe Illustrator 22.1.0, SVG Export Plug-In . SVG Version: 6.00 Build 0)  -->
<svg version="1.1" id="Layer_1" xmlns="http://www.w3.org/2000/svg" xmlns:xlink="http://www.w3.org/1999/xlink" x="0px" y="0px"
	 viewBox="0 0 24 24" style="enable-background:new 0 0 24 24;" xml:space="preserve">
<g>
	<title>police-polygraph</title>
	<path d="M1.5,24C0.673,24,0,23.327,0,22.5v-6C0,15.673,0.673,15,1.5,15H2V3.5C2,1.57,3.57,0,5.5,0S9,1.57,9,3.5v6
		c0,1.379,1.121,2.5,2.5,2.5h3c1.204,0,2.24-0.881,2.457-2.045C15.279,9.691,14,8.221,14,6.5v-5C14,0.673,14.673,0,15.5,0h4
		C20.327,0,21,0.673,21,1.5v5c0,1.752-1.317,3.235-3.034,3.466C17.736,11.683,16.252,13,14.5,13h-3C9.57,13,8,11.43,8,9.5v-6
		C8,2.121,6.879,1,5.5,1S3,2.121,3,3.5V15h19.5c0.827,0,1.5,0.673,1.5,1.5v6c0,0.827-0.673,1.5-1.5,1.5H1.5z M1,22.5
		C1,22.776,1.224,23,1.5,23h21c0.276,0,0.5-0.224,0.5-0.5v-6c0-0.276-0.224-0.5-0.5-0.5h-21C1.224,16,1,16.224,1,16.5V17h2.5
		C3.776,17,4,17.224,4,17.5S3.776,18,3.5,18H1v1h2.5C3.776,19,4,19.224,4,19.5S3.776,20,3.5,20H1v1h2.5C3.776,21,4,21.224,4,21.5
		S3.776,22,3.5,22H1V22.5z M15,6.5C15,7.879,16.122,9,17.5,9S20,7.879,20,6.5V4h-5V6.5z M20,3V1.5C20,1.224,19.776,1,19.5,1h-4
		C15.224,1,15,1.224,15,1.5V3H20z"/>
	<path d="M5.5,22C5.224,22,5,21.776,5,21.5v-4C5,17.224,5.224,17,5.5,17h10c0.276,0,0.5,0.224,0.5,0.5v4c0,0.276-0.224,0.5-0.5,0.5
		H5.5z M15,21v-3H6v3H15z"/>
	<circle cx="19.5" cy="19.5" r="0.75"/>
	<path d="M21.5,20.5c-0.276,0-0.5-0.224-0.5-0.5v-1c0-0.276,0.224-0.5,0.5-0.5S22,18.724,22,19v1C22,20.276,21.776,20.5,21.5,20.5z"
		/>
	<path d="M19,18c-0.276,0-0.5-0.224-0.5-0.5S18.724,17,19,17h1c0.276,0,0.5,0.224,0.5,0.5S20.276,18,20,18H19z"/>
	<path d="M17.5,20.5c-0.276,0-0.5-0.224-0.5-0.5v-1c0-0.276,0.224-0.5,0.5-0.5S18,18.724,18,19v1C18,20.276,17.776,20.5,17.5,20.5z"
		/>
	<path d="M19,22c-0.276,0-0.5-0.224-0.5-0.5S18.724,21,19,21h1c0.276,0,0.5,0.224,0.5,0.5S20.276,22,20,22H19z"/>
</g>
</svg>
