<?xml version="1.0" encoding="utf-8"?>
<!-- Generator: Adobe Illustrator 22.1.0, SVG Export Plug-In . SVG Version: 6.00 Build 0)  -->
<svg version="1.1" id="Layer_1" xmlns="http://www.w3.org/2000/svg" xmlns:xlink="http://www.w3.org/1999/xlink" x="0px" y="0px"
	 viewBox="0 0 24 24" style="enable-background:new 0 0 24 24;" xml:space="preserve">
<g>
	<title>police-hat-2</title>
	<path d="M12,13.248c-0.11,0-0.22-0.016-0.327-0.048c-0.369-0.111-0.655-0.397-0.766-0.765l-0.206-0.68l-0.688,0.16
		c-0.085,0.019-0.169,0.028-0.253,0.028c-0.532,0-1.002-0.376-1.118-0.894c-0.083-0.368,0.021-0.752,0.278-1.029l0.489-0.523
		L8.921,8.974C8.712,8.75,8.603,8.459,8.613,8.153c0.011-0.306,0.14-0.589,0.363-0.797c0.212-0.198,0.49-0.308,0.78-0.308
		c0.085,0,0.17,0.01,0.254,0.028l0.691,0.16l0.206-0.681c0.087-0.291,0.283-0.531,0.552-0.675c0.167-0.089,0.353-0.136,0.54-0.136
		c0.111,0,0.222,0.016,0.329,0.049c0.368,0.111,0.654,0.397,0.765,0.766l0.206,0.68l0.688-0.16c0.085-0.019,0.171-0.029,0.256-0.029
		c0.216,0,0.427,0.062,0.611,0.178c0.258,0.164,0.437,0.418,0.504,0.717c0.083,0.368-0.021,0.752-0.277,1.029l-0.489,0.523
		l0.488,0.521c0.43,0.464,0.403,1.19-0.06,1.62c-0.212,0.197-0.489,0.306-0.778,0.306c-0.084,0-0.169-0.009-0.251-0.028l-0.692-0.16
		l-0.206,0.681C12.949,12.914,12.5,13.248,12,13.248z M10.716,10.751c0.428,0,0.814,0.286,0.937,0.696l0.212,0.699
		c0.014,0.047,0.049,0.082,0.095,0.096c0.014,0.004,0.027,0.006,0.041,0.006c0.061,0,0.117-0.041,0.135-0.1l0.212-0.701
		c0.124-0.409,0.509-0.695,0.937-0.695c0.073,0,0.147,0.008,0.219,0.025l0.709,0.164c0.008,0.002,0.018,0.003,0.028,0.003
		c0.037,0,0.072-0.014,0.099-0.039c0.028-0.026,0.044-0.062,0.046-0.101c0.001-0.039-0.012-0.076-0.039-0.104l-0.499-0.533
		c-0.347-0.376-0.347-0.963-0.002-1.337l0.502-0.537c0.031-0.034,0.044-0.082,0.034-0.129c-0.009-0.039-0.031-0.07-0.064-0.091
		c-0.024-0.015-0.05-0.023-0.077-0.023c-0.011,0-0.022,0.001-0.033,0.004l-0.705,0.163c-0.073,0.017-0.146,0.025-0.219,0.025
		c-0.428,0-0.813-0.286-0.937-0.695l-0.212-0.7c-0.014-0.047-0.05-0.083-0.095-0.096c-0.013-0.004-0.027-0.006-0.041-0.006
		c-0.023,0-0.045,0.006-0.066,0.017c-0.034,0.018-0.057,0.047-0.068,0.084l-0.212,0.701c-0.123,0.409-0.509,0.695-0.937,0.695
		c-0.073,0-0.146-0.008-0.218-0.025l-0.71-0.164c-0.009-0.002-0.02-0.003-0.03-0.003c-0.036,0-0.071,0.014-0.098,0.039
		C9.63,8.114,9.614,8.148,9.613,8.188s0.012,0.075,0.039,0.104l0.5,0.535c0.347,0.376,0.347,0.962,0.002,1.336L9.651,10.7
		c-0.031,0.034-0.044,0.083-0.034,0.129c0.015,0.066,0.074,0.113,0.142,0.113c0.01,0,0.021-0.001,0.032-0.003l0.705-0.163
		C10.568,10.759,10.642,10.751,10.716,10.751z M13.278,11.75L13.278,11.75z"/>
	<path d="M11.983,23.243c-1.725,0-3.437-0.445-4.951-1.286c-1.589-0.883-2.914-2.178-3.839-3.75C2.504,18.063,2,17.455,2,16.745v-1
		c0-0.219,0.05-0.435,0.145-0.636c-0.476-0.666-1.251-1.862-1.724-3.177C0.14,11.148,0,10.427,0,9.776c0-2.699,7.749-9.031,12-9.031
		c1.93,0,4.764,1.31,7.581,3.505C20.319,4.825,24,7.793,24,9.781c0,0.65-0.14,1.37-0.417,2.141c-0.476,1.322-1.252,2.52-1.729,3.187
		C21.95,15.309,22,15.526,22,15.745v1c0,0.711-0.504,1.318-1.192,1.462C18.976,21.316,15.606,23.243,11.983,23.243z M4.404,18.245
		c0.807,1.174,1.876,2.15,3.114,2.838c1.365,0.759,2.909,1.16,4.465,1.16c3.035,0,5.913-1.521,7.618-3.998H4.404z M3.5,15.245
		c-0.276,0-0.5,0.224-0.5,0.5v1c0,0.276,0.224,0.5,0.5,0.5h17c0.276,0,0.5-0.224,0.5-0.5v-1c0-0.276-0.224-0.5-0.5-0.5H3.5z
		 M20.5,14.245c0.223,0,0.44,0.05,0.639,0.145c0.384-0.549,0.86-1.304,1.237-2.144H20v2H20.5z M1.624,12.245
		c0.377,0.84,0.853,1.596,1.237,2.144c0.199-0.095,0.417-0.144,0.639-0.144H4v-2H1.624z M19,14.245v-2h-2v2H19z M16,14.245v-2.5
		c0-0.276,0.224-0.5,0.5-0.5h6.255C22.918,10.713,23,10.221,23,9.781c0-1.951-7.144-8.036-11-8.036S1,7.826,1,9.776
		c0,0.442,0.083,0.936,0.245,1.469H7.5c0.276,0,0.5,0.224,0.5,0.5v2.5H16z M7,14.245v-2H5v2H7z"/>
</g>
</svg>
