<?xml version="1.0" encoding="utf-8"?>
<!-- Generator: Adobe Illustrator 22.1.0, SVG Export Plug-In . SVG Version: 6.00 Build 0)  -->
<svg version="1.1" id="Layer_1" xmlns="http://www.w3.org/2000/svg" xmlns:xlink="http://www.w3.org/1999/xlink" x="0px" y="0px"
	 viewBox="0 0 24 24" style="enable-background:new 0 0 24 24;" xml:space="preserve">
<g>
	<title>police-footsteps</title>
	<path d="M6.927,19.993c-0.626,0-1.228-0.194-1.741-0.561c-0.652-0.467-1.083-1.159-1.214-1.95l-0.326-1.976
		c-0.043-0.264,0.018-0.529,0.174-0.746c0.156-0.217,0.387-0.361,0.65-0.404l3.948-0.649c0.054-0.009,0.108-0.013,0.161-0.013
		c0.489,0,0.904,0.35,0.986,0.833l0.327,1.975c0.131,0.791-0.054,1.585-0.52,2.237s-1.159,1.083-1.95,1.214
		C7.258,19.979,7.092,19.993,6.927,19.993z M4.633,15.342l0.326,1.976c0.087,0.527,0.375,0.989,0.809,1.3
		c0.342,0.245,0.743,0.374,1.161,0.374c0.11,0,0.221-0.009,0.331-0.027c0.527-0.087,0.989-0.375,1.3-0.809
		c0.311-0.435,0.434-0.964,0.347-1.491L8.58,14.694L4.633,15.342z"/>
	<path d="M4.142,13.383c-0.492,0-0.907-0.352-0.987-0.837l-1.3-7.894c-0.359-2.176,1.12-4.239,3.296-4.598
		C5.367,0.018,5.586,0,5.803,0C7.77,0,9.429,1.409,9.749,3.35l0.273,1.675c0.208,1.261,0.04,2.544-0.487,3.709
		c-0.411,0.902-0.564,1.897-0.44,2.88c0.058,0.534-0.307,1.016-0.831,1.102l-3.96,0.654C4.25,13.378,4.196,13.383,4.142,13.383z
		 M5.81,1C5.645,1,5.478,1.013,5.314,1.04c0,0,0,0,0,0c-0.789,0.13-1.481,0.561-1.949,1.213C2.898,2.905,2.712,3.699,2.842,4.488
		l1.3,7.895l3.959-0.654c-0.145-1.159,0.036-2.34,0.524-3.409c0.445-0.983,0.587-2.067,0.41-3.133L8.762,3.512
		c-0.13-0.79-0.561-1.482-1.212-1.949C7.037,1.194,6.435,1,5.81,1z"/>
	<path d="M15.802,23.999c-0.26,0-0.521-0.034-0.775-0.103c-0.773-0.207-1.419-0.703-1.821-1.398
		c-0.401-0.695-0.508-1.503-0.301-2.276l0.517-1.932c0.116-0.437,0.514-0.742,0.966-0.742c0.087,0,0.174,0.011,0.259,0.034
		l3.864,1.034c0.532,0.142,0.85,0.691,0.708,1.223c-0.002,0.007-0.007,0.024-0.01,0.03L18.7,21.775
		C18.35,23.084,17.158,23.999,15.802,23.999z M13.87,20.481c-0.285,1.065,0.35,2.164,1.415,2.449
		c0.169,0.045,0.344,0.068,0.517,0.068c0.904,0,1.698-0.61,1.932-1.483l0.517-1.932l-3.864-1.034L13.87,20.481z"/>
	<path d="M19.026,17.686c-0.087,0-0.174-0.011-0.258-0.034l-3.878-1.037c-0.512-0.138-0.827-0.652-0.719-1.17
		c0.22-0.972,0.166-1.979-0.155-2.915c-0.41-1.212-0.453-2.505-0.123-3.74l0.439-1.64c0.467-1.747,2.056-2.967,3.865-2.967
		c0.346,0,0.693,0.046,1.031,0.135c2.13,0.57,3.4,2.767,2.83,4.897l-2.066,7.731C19.875,17.381,19.478,17.686,19.026,17.686z
		 M18.198,5.181c-1.357,0-2.549,0.915-2.899,2.226l-0.439,1.64c-0.279,1.044-0.243,2.136,0.104,3.159
		c0.38,1.11,0.444,2.304,0.185,3.451l3.879,1.029l2.066-7.73c0.427-1.597-0.525-3.245-2.122-3.673
		C18.717,5.216,18.457,5.181,18.198,5.181z"/>
</g>
</svg>
