<?xml version="1.0" encoding="utf-8"?>
<!-- Generator: Adobe Illustrator 22.1.0, SVG Export Plug-In . SVG Version: 6.00 Build 0)  -->
<svg version="1.1" id="Layer_1" xmlns="http://www.w3.org/2000/svg" xmlns:xlink="http://www.w3.org/1999/xlink" x="0px" y="0px"
	 viewBox="0 0 24 24" style="enable-background:new 0 0 24 24;" xml:space="preserve">
<g>
	<title>police-hat-6</title>
	<path d="M12,22.499c-3.99,0-8.262-2.26-9.937-5.256c-0.007-0.013-0.017-0.036-0.022-0.05c0,0.001,0,0.001,0,0.001
		c0,0-0.005-0.012-0.01-0.025c-0.017-0.047-0.028-0.095-0.031-0.142C2.001,17.018,2,17.009,2,16.999v-13.6
		C1.997,2.935,2.326,2.522,2.782,2.42c2.893-0.613,5.848-0.923,8.785-0.923c0.146,0,0.292,0.001,0.438,0.002
		c0.122-0.001,0.248-0.002,0.374-0.002c2.971,0,5.943,0.311,8.835,0.925C21.678,2.527,22,2.929,22,3.399v13.6
		c0,0.01-0.001,0.02-0.002,0.03c-0.003,0.049-0.014,0.096-0.031,0.143c-0.001,0.003-0.007,0.017-0.01,0.026
		c-0.006,0.015-0.014,0.035-0.021,0.047C20.262,20.24,15.99,22.499,12,22.499z M3.424,17.499c1.766,2.34,5.283,4,8.576,4
		s6.81-1.66,8.576-4H3.424z M21,16.499v-1H3v1H21z M21,14.499V5.404c-2.811-0.602-5.682-0.907-8.537-0.907
		c-0.152,0-0.305,0.001-0.457,0.003c-0.165-0.002-0.323-0.003-0.482-0.003C8.677,4.497,5.811,4.802,3,5.404v9.095H21z M11.585,2.497
		c-2.881,0-5.771,0.303-8.591,0.9l0.004,0.985c2.816-0.588,5.687-0.886,8.538-0.886c0.156,0,0.313,0.001,0.469,0.003
		c0.146-0.002,0.297-0.002,0.448-0.002c2.857,0,5.73,0.298,8.546,0.886V3.399c-2.818-0.598-5.716-0.902-8.61-0.902
		c-0.128,0-0.257,0.001-0.385,0.002C11.862,2.498,11.724,2.497,11.585,2.497z"/>
	<path d="M12,12.999c-0.076,0-0.151-0.018-0.219-0.051C11.668,12.894,9,11.567,9,9.174V7.499c0-0.551,0.449-1,1-1h4
		c0.552,0,1,0.449,1,1v1.674c0,2.394-2.667,3.72-2.781,3.775C12.151,12.982,12.075,12.999,12,12.999z M10,9.174
		c0,1.436,1.474,2.442,1.999,2.754C12.524,11.614,14,10.603,14,9.174V7.499h-4L10,9.174z"/>
</g>
</svg>
