<?xml version="1.0" encoding="utf-8"?>
<!-- Generator: Adobe Illustrator 22.1.0, SVG Export Plug-In . SVG Version: 6.00 Build 0)  -->
<svg version="1.1" id="Layer_1" xmlns="http://www.w3.org/2000/svg" xmlns:xlink="http://www.w3.org/1999/xlink" x="0px" y="0px"
	 viewBox="0 0 24 24" style="enable-background:new 0 0 24 24;" xml:space="preserve">
<g>
	<title>crime-man-thief-1</title>
	<path d="M10.5,12c-0.156,0-0.306-0.075-0.4-0.2c-0.08-0.107-0.114-0.239-0.095-0.371c0.019-0.132,0.088-0.249,0.195-0.329
		c0.513-0.385,1.152-0.596,1.8-0.596c0.648,0,1.287,0.212,1.8,0.597c0.107,0.08,0.176,0.197,0.195,0.329
		c0.019,0.132-0.015,0.264-0.095,0.371c-0.094,0.125-0.243,0.2-0.4,0.2c-0.109,0-0.213-0.035-0.3-0.1
		c-0.341-0.256-0.767-0.397-1.2-0.397c-0.432,0-0.859,0.141-1.2,0.397C10.713,11.965,10.609,12,10.5,12z"/>
	<path d="M23,24c-0.276,0-0.5-0.224-0.5-0.5v-3.106c0.003-0.462-0.212-0.904-0.575-1.184c-1.906-1.34-4.145-2.198-6.48-2.481
		c-0.039,0.076-0.098,0.143-0.173,0.191c-0.62,0.401-1.302,0.697-2.03,0.882c-0.077,0.044-0.157,0.067-0.241,0.067
		c-0.009,0-0.021-0.001-0.035-0.003c-0.317,0.067-0.629,0.112-0.931,0.133C12.029,17.999,12.006,18,12,18l-0.028-0.001
		c-0.307-0.021-0.619-0.066-0.935-0.133c-0.011,0.001-0.024,0.002-0.037,0.002c-0.084,0-0.165-0.022-0.241-0.067
		c-0.728-0.185-1.411-0.482-2.03-0.882c-0.075-0.049-0.134-0.115-0.173-0.191c-2.335,0.283-4.577,1.143-6.498,2.494
		c-0.349,0.27-0.561,0.709-0.558,1.168V23.5C1.5,23.776,1.276,24,1,24s-0.5-0.224-0.5-0.5v-3.106
		c-0.005-0.766,0.356-1.506,0.964-1.976c2.088-1.469,4.513-2.395,7.036-2.69v-1.753c-1.881-1.205-3-3.241-3-5.475v-2
		c0-2.737,1.734-5.197,4.314-6.121C10.528,0.126,11.258,0,12,0c0.742,0,1.472,0.126,2.171,0.374c0.006,0.002,0.027,0.01,0.033,0.012
		C16.766,1.303,18.5,3.763,18.5,6.5v2c0,2.234-1.119,4.27-3,5.475v1.753c2.522,0.295,4.944,1.218,7.018,2.677
		c0.623,0.48,0.987,1.222,0.982,1.992V23.5C23.5,23.776,23.276,24,23,24z M11.5,16.938c0.168,0.028,0.336,0.048,0.5,0.06
		c0.164-0.012,0.332-0.033,0.5-0.06V14.98C12.33,14.993,12.165,15,12,15s-0.33-0.007-0.5-0.02V16.938z M13.5,16.68
		c0.35-0.123,0.685-0.277,1-0.46v-1.721c-0.325,0.136-0.659,0.245-1,0.326V16.68z M9.5,16.22c0.315,0.183,0.65,0.337,1,0.46v-1.855
		c-0.341-0.081-0.675-0.19-1-0.326V16.22z M6.883,10.515C7.708,12.613,9.722,14,12,14c2.279,0,4.292-1.387,5.117-3.486
		c-0.063,0.001-0.127,0.001-0.193,0.001c-1.347,0-3.321-0.182-4.909-1.76c-1.617,1.578-3.593,1.761-4.94,1.761
		C7.009,10.516,6.945,10.515,6.883,10.515z M6.594,9.509C6.754,9.513,6.92,9.516,7.094,9.516c1.26,0,2.875-0.167,4.187-1.471
		c0.203-0.199,0.448-0.299,0.728-0.3c0.274,0.003,0.527,0.112,0.716,0.305c1.306,1.298,2.923,1.464,4.185,1.464
		c0.173,0,0.339-0.003,0.496-0.007C17.468,9.174,17.5,8.836,17.5,8.5v-2c0-0.162-0.008-0.33-0.024-0.5H6.524
		C6.508,6.17,6.5,6.338,6.5,6.5v2C6.5,8.836,6.532,9.175,6.594,9.509z M17.291,5c-0.417-1.467-1.432-2.702-2.791-3.398V3
		c0,0.276-0.224,0.5-0.5,0.5S13.5,3.276,13.5,3V1.209c-0.326-0.093-0.661-0.155-1-0.185V2.5C12.5,2.776,12.276,3,12,3
		c-0.276,0-0.5-0.224-0.5-0.5V1.024c-0.339,0.031-0.674,0.093-1,0.185V3c0,0.276-0.224,0.5-0.5,0.5S9.5,3.276,9.5,3V1.602
		C8.141,2.298,7.126,3.533,6.709,5H17.291z"/>
	<path d="M8.5,8C8.224,8,8,7.776,8,7.5S8.224,7,8.5,7h1C9.776,7,10,7.224,10,7.5S9.776,8,9.5,8H8.5z"/>
	<path d="M14.5,8C14.224,8,14,7.776,14,7.5S14.224,7,14.5,7h1C15.776,7,16,7.224,16,7.5S15.776,8,15.5,8H14.5z"/>
</g>
</svg>
