<?xml version="1.0" encoding="utf-8"?>
<!-- Generator: Adobe Illustrator 22.1.0, SVG Export Plug-In . SVG Version: 6.00 Build 0)  -->
<svg version="1.1" id="Layer_1" xmlns="http://www.w3.org/2000/svg" xmlns:xlink="http://www.w3.org/1999/xlink" x="0px" y="0px"
	 viewBox="0 0 24 24" style="enable-background:new 0 0 24 24;" xml:space="preserve">
<g>
	<title>crime-man-thief-3</title>
	<path d="M8.5,3.75C8.086,3.75,7.75,3.414,7.75,3c0-0.408,0.332-0.744,0.741-0.749C8.918,2.256,9.25,2.592,9.25,3
		C9.25,3.414,8.914,3.75,8.5,3.75z"/>
	<circle cx="15.5" cy="3" r="0.75"/>
	<path d="M10.5,3.25c-0.414,0-0.75-0.336-0.75-0.75c0-0.396,0.311-0.724,0.708-0.747c0,0,0.001,0,0.001,0
		c0.013-0.002,0.026-0.003,0.04-0.003c0.022,0,0.044,0.002,0.066,0.005c0.014,0,0.012,0.001,0.026,0.003
		C10.96,1.795,11.25,2.115,11.25,2.5C11.25,2.914,10.914,3.25,10.5,3.25z"/>
	<path d="M13.5,3.25c-0.414,0-0.75-0.336-0.75-0.75c0-0.393,0.308-0.721,0.702-0.746C13.469,1.751,13.484,1.75,13.5,1.75
		c0.022,0,0.044,0.002,0.066,0.005c0.001,0,0.01,0.001,0.01,0.001C13.96,1.796,14.25,2.115,14.25,2.5
		C14.25,2.914,13.914,3.25,13.5,3.25z"/>
	<circle cx="12" cy="3.5" r="0.75"/>
	<path d="M23.5,24c-0.276,0-0.5-0.224-0.5-0.5v-1c-0.001-1.452-0.915-2.769-2.275-3.277c0,0-4.721-1.585-4.745-1.594v0.026
		c0,0.141-0.06,0.277-0.165,0.371c-1.057,0.953-2.419,1.479-3.835,1.479c-1.416,0-2.778-0.525-3.835-1.479
		c-0.105-0.094-0.165-0.23-0.165-0.371v-0.012c-0.015,0.005-4.721,1.586-4.721,1.586C1.912,19.732,1.001,21.048,1,22.5v1
		C1,23.776,0.776,24,0.5,24S0,23.776,0,23.5v-1c0.001-1.867,1.176-3.56,2.925-4.213l4.706-1.582
		c0.177-0.054,0.304-0.183,0.349-0.349v-0.087c0-0.048,0.007-0.095,0.02-0.14v-1.184c-0.779-0.817-1.276-1.758-1.44-2.726
		c-0.028-0.165-0.135-0.305-0.287-0.374c-0.855-0.389-1.222-1.343-1.277-2.042C4.955,9.282,5.065,8.819,5.307,8.477
		c-0.199-0.387-0.305-0.815-0.309-1.25C4.992,6.479,5.277,5.774,5.801,5.24l0.035-0.035c0.539-0.531,1.253-0.823,2.013-0.823
		c0.574,0,1.128,0.169,1.601,0.489L12,6.596l2.55-1.726c0.473-0.32,1.027-0.489,1.601-0.489c0.76,0,1.475,0.292,2.013,0.822
		l0.035,0.035c0.848,0.863,1.039,2.171,0.492,3.238c0.245,0.343,0.355,0.808,0.314,1.332c-0.055,0.698-0.423,1.65-1.277,2.037
		c-0.153,0.069-0.26,0.208-0.287,0.373c-0.164,0.969-0.661,1.91-1.44,2.727v1.278c0,0.222,0.143,0.414,0.355,0.479l4.704,1.58
		c1.761,0.658,2.94,2.352,2.941,4.219v1C24,23.776,23.776,24,23.5,24z M8.98,17.426c0.846,0.696,1.907,1.078,3,1.078
		c1.093,0,2.154-0.382,3-1.078v-1.157c0-0.048,0.007-0.094,0.02-0.14v-0.318C13.998,16.534,12.84,17,12,17s-1.998-0.466-3-1.188
		v0.41c0,0.078-0.007,0.157-0.02,0.24V17.426z M8.877,14.41C9.894,15.392,11.288,16,12,16s2.106-0.608,3.123-1.59
		c0.019-0.022,0.04-0.043,0.064-0.062c0.692-0.69,1.13-1.483,1.268-2.296c0.083-0.494,0.405-0.912,0.861-1.118
		c0.426-0.193,0.658-0.76,0.693-1.205c0.011-0.135,0.005-0.263-0.015-0.375c-0.514,0.431-1.16,0.666-1.842,0.666
		c-0.574,0-1.128-0.169-1.601-0.489L12,7.804l-2.55,1.728c-0.474,0.32-1.027,0.489-1.602,0.489c-0.682,0-1.327-0.235-1.841-0.666
		c-0.02,0.111-0.025,0.236-0.015,0.369c0.035,0.447,0.267,1.016,0.693,1.209c0.456,0.206,0.777,0.624,0.86,1.119
		c0.137,0.812,0.575,1.605,1.267,2.295C8.837,14.367,8.858,14.387,8.877,14.41z M7.849,5.382c-0.495,0-0.961,0.19-1.311,0.535
		L6.513,5.942C6.178,6.283,5.994,6.737,5.999,7.218c0.004,0.481,0.196,0.931,0.539,1.268c0.35,0.345,0.816,0.535,1.311,0.535
		c0.374,0,0.734-0.11,1.042-0.318L11.108,7.2L8.89,5.7C8.582,5.492,8.222,5.382,7.849,5.382z M15.11,8.702
		c0.307,0.208,0.667,0.318,1.041,0.318c0.495,0,0.961-0.19,1.311-0.535C17.805,8.148,17.996,7.698,18,7.216
		c0.004-0.481-0.178-0.935-0.515-1.277l-0.024-0.025c-0.349-0.344-0.815-0.534-1.31-0.534c-0.374,0-0.734,0.11-1.041,0.318
		L12.892,7.2L15.11,8.702z"/>
	<path d="M17.665,4c-0.2,0-0.381-0.119-0.459-0.303C16.435,1.908,14.683,1,12,1S7.565,1.908,6.794,3.698
		C6.715,3.881,6.535,4,6.335,4l0,0C6.267,4,6.2,3.986,6.137,3.959C5.884,3.85,5.767,3.555,5.876,3.302C6.82,1.111,8.88,0,12,0
		c3.12,0,5.18,1.111,6.124,3.302c0.053,0.122,0.055,0.258,0.006,0.382s-0.144,0.222-0.267,0.275C17.8,3.986,17.733,4,17.665,4z"/>
	<path d="M8,8C7.724,8,7.5,7.776,7.5,7.5S7.724,7,8,7h1c0.276,0,0.5,0.224,0.5,0.5S9.276,8,9,8H8z"/>
	<path d="M15,8c-0.276,0-0.5-0.224-0.5-0.5S14.724,7,15,7h1c0.276,0,0.5,0.224,0.5,0.5S16.276,8,16,8H15z"/>
	<path d="M10.5,12.8c-0.136,0-0.268-0.057-0.362-0.156c-0.092-0.096-0.141-0.223-0.138-0.357s0.058-0.258,0.155-0.35
		c0.5-0.476,1.155-0.739,1.844-0.739c0.689,0,1.345,0.262,1.845,0.739c0.097,0.092,0.152,0.216,0.155,0.35
		c0.003,0.134-0.046,0.26-0.138,0.357C13.768,12.743,13.636,12.8,13.5,12.8c-0.129,0-0.251-0.049-0.344-0.137
		c-0.314-0.299-0.724-0.463-1.156-0.463s-0.842,0.164-1.155,0.463C10.752,12.751,10.629,12.8,10.5,12.8L10.5,12.8z"/>
</g>
</svg>
