<?xml version="1.0" encoding="utf-8"?>
<!-- Generator: Adobe Illustrator 22.1.0, SVG Export Plug-In . SVG Version: 6.00 Build 0)  -->
<svg version="1.1" id="Layer_1" xmlns="http://www.w3.org/2000/svg" xmlns:xlink="http://www.w3.org/1999/xlink" x="0px" y="0px"
	 viewBox="0 0 24 24" style="enable-background:new 0 0 24 24;" xml:space="preserve">
<g>
	<title>police-man-2</title>
	<path d="M12,7.991c-1.984,0-4.001-0.13-5.993-0.386C5.996,7.605,5.985,7.606,5.973,7.606c-0.013,0-0.038-0.002-0.051-0.004
		c-0.024-0.004-0.044-0.01-0.059-0.016C4.51,7.408,3.174,7.173,1.892,6.888c-0.13-0.029-0.242-0.107-0.313-0.22
		S1.483,6.422,1.512,6.292C1.563,6.061,1.764,5.9,2,5.9c0.036,0,0.072,0.004,0.108,0.012c1.137,0.253,2.305,0.464,3.475,0.629
		l0.559-3.538C6.383,1.293,7.873,0,9.607,0h4.786c1.734,0,3.224,1.295,3.466,3.011l0.557,3.53c1.171-0.165,2.339-0.377,3.475-0.629
		C21.928,5.904,21.964,5.9,21.999,5.9c0.233,0,0.439,0.165,0.489,0.392c0.059,0.269-0.111,0.536-0.38,0.596
		c-1.282,0.285-2.618,0.52-3.972,0.698c-0.012,0.005-0.033,0.011-0.058,0.016C18.052,7.606,18.025,7.608,18,7.608
		c-0.007,0-0.016,0-0.025-0.001C15.988,7.861,13.978,7.991,12,7.991z M6.576,6.666C8.367,6.879,10.19,6.987,12,6.987
		c1.81,0,3.633-0.108,5.424-0.32L16.87,3.159C16.696,1.926,15.632,1,14.394,1H9.607C8.368,1,7.304,1.925,7.131,3.151L6.576,6.666z"
		/>
	<path d="M12,24c-0.276,0-0.5-0.224-0.5-0.5v-4c0-0.276,0.224-0.5,0.5-0.5c0.276,0,0.5,0.224,0.5,0.5v4C12.5,23.776,12.276,24,12,24
		z"/>
	<path d="M23.5,24c-0.276,0-0.5-0.224-0.5-0.5c-0.001-1.452-0.915-2.769-2.275-3.277l-4.884-1.64
		c-0.261-0.088-0.403-0.372-0.315-0.633c0.069-0.204,0.26-0.341,0.475-0.341c0.053,0,0.106,0.009,0.157,0.025l4.901,1.646
		c1.761,0.658,2.94,2.352,2.941,4.219C24,23.776,23.776,24,23.5,24z"/>
	<path d="M0.5,24c-0.134,0-0.259-0.052-0.354-0.147C0.052,23.759,0,23.633,0,23.5c0.001-1.866,1.176-3.56,2.925-4.213l4.916-1.652
		C7.893,17.618,7.946,17.609,8,17.609c0.215,0,0.406,0.137,0.474,0.341c0.043,0.126,0.033,0.262-0.026,0.382
		s-0.162,0.209-0.289,0.251l-4.9,1.646C1.912,20.732,1.001,22.048,1,23.5C1,23.776,0.776,24,0.5,24z"/>
	<path d="M17,24c-0.099,0-0.195-0.029-0.278-0.084l-0.609-0.406C15.417,23.046,15,22.268,15,21.43c0-0.247,0.096-0.48,0.271-0.656
		c0.175-0.176,0.408-0.273,0.656-0.273h2.143c0.249,0,0.481,0.096,0.657,0.271c0.176,0.175,0.273,0.408,0.274,0.656
		c0,0.84-0.417,1.619-1.114,2.083l-0.609,0.406C17.195,23.971,17.099,24,17,24z M16.002,21.5c0.022,0.476,0.268,0.912,0.667,1.178
		L17,22.899l0.332-0.221c0.399-0.266,0.645-0.702,0.667-1.178H16.002z"/>
	<path d="M11.805,15.001c-0.604,0-1.186-0.223-1.638-0.628c-0.205-0.184-0.223-0.5-0.039-0.706c0.095-0.106,0.231-0.167,0.373-0.167
		c0.123,0,0.242,0.045,0.333,0.128c0.269,0.24,0.612,0.373,0.965,0.373l0.383,0c0.366,0,0.716-0.133,0.985-0.373
		c0.092-0.082,0.21-0.127,0.333-0.127c0.142,0,0.278,0.061,0.373,0.167c0.184,0.205,0.166,0.522-0.039,0.706
		c-0.453,0.405-1.034,0.628-1.635,0.628L11.805,15.001z"/>
	<path d="M12,18c-1.588,0-4.937-1.863-5.425-4.782c-0.027-0.165-0.134-0.304-0.286-0.374c-0.863-0.392-1.273-1.42-1.288-2.209
		C4.987,9.901,5.283,9.31,5.795,9.053C5.864,9.018,5.941,9,6.019,9c0.19,0,0.362,0.106,0.447,0.276
		C6.589,9.522,6.49,9.823,6.243,9.947c-0.154,0.077-0.249,0.34-0.243,0.669c0.009,0.489,0.259,1.117,0.702,1.318
		c0.456,0.208,0.776,0.626,0.859,1.119C7.965,15.468,10.878,17,12,17c1.122,0,4.035-1.532,4.439-3.948
		c0.082-0.493,0.403-0.911,0.858-1.119c0.444-0.202,0.694-0.83,0.703-1.318c0.006-0.329-0.089-0.592-0.243-0.669
		c-0.12-0.06-0.208-0.163-0.25-0.29c-0.042-0.127-0.032-0.262,0.028-0.382C17.619,9.106,17.791,9,17.981,9
		c0.077,0,0.154,0.018,0.223,0.053C18.717,9.31,19.014,9.901,19,10.635c-0.015,0.789-0.425,1.817-1.289,2.209
		c-0.152,0.069-0.259,0.209-0.286,0.373C16.937,16.137,13.588,18,12,18z"/>
	<path d="M12,6c-0.099,0-0.195-0.029-0.277-0.084L11.114,5.51C10.417,5.045,10,4.268,10,3.43V3c0-0.551,0.449-1,1-1h2
		c0.552,0,1,0.449,1,1v0.43c0,0.838-0.417,1.616-1.114,2.08l-0.609,0.406C12.195,5.971,12.099,6,12,6z M11,3.43
		c0,0.503,0.25,0.969,0.668,1.248L12,4.899l0.332-0.221C12.75,4.399,13,3.933,13,3.43V3h-2L11,3.43z"/>
	<path d="M15,12c-1.199,0-2.215-0.845-2.449-2h-1.102c-0.234,1.155-1.25,2-2.449,2c-1.379,0-2.5-1.121-2.5-2.5
		C6.5,8.673,7.173,8,8,8h2c0.64,0,1.205,0.41,1.414,1h1.172C12.795,8.41,13.36,8,14,8h2c0.827,0,1.5,0.673,1.5,1.5
		C17.5,10.879,16.378,12,15,12z M14,9c-0.276,0-0.5,0.224-0.5,0.5c0,0.827,0.673,1.5,1.5,1.5s1.5-0.673,1.5-1.5
		C16.5,9.224,16.276,9,16,9H14z M8,9C7.724,9,7.5,9.224,7.5,9.5C7.5,10.327,8.173,11,9,11s1.5-0.673,1.5-1.5
		C10.5,9.224,10.276,9,10,9H8z"/>
</g>
</svg>
