<?xml version="1.0" encoding="utf-8"?>
<!-- Generator: Adobe Illustrator 22.1.0, SVG Export Plug-In . SVG Version: 6.00 Build 0)  -->
<svg version="1.1" id="Layer_1" xmlns="http://www.w3.org/2000/svg" xmlns:xlink="http://www.w3.org/1999/xlink" x="0px" y="0px"
	 viewBox="0 0 24 24" style="enable-background:new 0 0 24 24;" xml:space="preserve">
<g>
	<title>police-man-1</title>
	<path d="M11.805,14.001c-0.604,0-1.186-0.223-1.638-0.628c-0.205-0.184-0.223-0.5-0.039-0.706c0.095-0.106,0.231-0.167,0.373-0.167
		c0.123,0,0.242,0.045,0.333,0.128c0.269,0.24,0.612,0.373,0.964,0.373L12.174,13c0.371,0,0.723-0.132,0.992-0.373
		c0.092-0.082,0.21-0.127,0.333-0.127c0.142,0,0.278,0.061,0.373,0.167c0.089,0.099,0.134,0.227,0.126,0.361
		c-0.008,0.133-0.066,0.256-0.166,0.345c-0.452,0.405-1.036,0.628-1.644,0.628H11.805z"/>
	<path d="M12,17c-1.589,0-4.938-1.863-5.421-4.783c-0.027-0.164-0.134-0.304-0.286-0.373c-0.87-0.504-1.356-1.409-1.292-2.373
		C5.019,9.21,5.237,9.005,5.498,9.005c0.006,0,0.031,0.001,0.037,0.001c0.274,0.018,0.482,0.257,0.464,0.532
		c-0.039,0.578,0.245,1.118,0.743,1.412c0.428,0.199,0.743,0.62,0.824,1.102C7.965,14.468,10.878,16,12,16
		c1.122,0,4.035-1.532,4.439-3.947c0.081-0.486,0.396-0.902,0.843-1.111c0.473-0.283,0.757-0.823,0.72-1.398
		c-0.018-0.275,0.192-0.513,0.467-0.531c0.005,0,0.029-0.001,0.034-0.001c0.262,0,0.481,0.206,0.498,0.468
		c0.062,0.958-0.414,1.855-1.242,2.341c-0.013,0.008-0.03,0.016-0.046,0.024c-0.151,0.069-0.259,0.209-0.286,0.373
		C16.937,15.137,13.588,17,12,17z"/>
	<path d="M12,24c-0.276,0-0.5-0.224-0.5-0.5v-5c0-0.276,0.224-0.5,0.5-0.5c0.276,0,0.5,0.224,0.5,0.5v5C12.5,23.776,12.276,24,12,24
		z"/>
	<path d="M23.5,24c-0.276,0-0.5-0.224-0.5-0.5v-1c-0.001-1.451-0.915-2.768-2.275-3.277l-4.884-1.64
		c-0.126-0.042-0.229-0.132-0.289-0.251s-0.069-0.255-0.026-0.382c0.069-0.204,0.26-0.341,0.475-0.341
		c0.054,0,0.107,0.009,0.158,0.026l4.901,1.646c1.761,0.658,2.94,2.352,2.941,4.219v1C24,23.776,23.776,24,23.5,24z"/>
	<path d="M0.5,24C0.224,24,0,23.776,0,23.5v-1c0.001-1.867,1.176-3.56,2.925-4.213l4.916-1.652C7.892,16.618,7.946,16.609,8,16.609
		c0.215,0,0.406,0.137,0.474,0.341c0.043,0.126,0.033,0.262-0.026,0.382s-0.162,0.209-0.289,0.251l-4.9,1.646
		C1.912,19.733,1.001,21.049,1,22.5v1C1,23.776,0.776,24,0.5,24z"/>
	<path d="M17,24c-0.099,0-0.195-0.029-0.278-0.084l-0.609-0.406C15.417,23.046,15,22.268,15,21.43V20.5c0-0.276,0.224-0.5,0.5-0.5h3
		c0.276,0,0.5,0.224,0.5,0.5v0.93c0,0.838-0.417,1.615-1.114,2.08l-0.609,0.406C17.195,23.971,17.099,24,17,24z M16,21.43
		c0,0.502,0.25,0.969,0.668,1.248L17,22.899l0.332-0.221C17.75,22.399,18,21.933,18,21.43V21h-2V21.43z"/>
	<path d="M12,10c-3.446,0-6.183-1.356-6.474-3.177C5.185,6.643,4.926,6.34,4.804,5.974l-1-2.989C3.749,2.82,3.738,2.644,3.771,2.474
		c0.052-0.262,0.202-0.488,0.424-0.637c0.166-0.111,0.358-0.17,0.555-0.17c0.065,0,0.131,0.007,0.196,0.019
		c1.198,0.236,2.092,0.342,2.9,0.342c1.459,0,2.609-0.368,3.517-1.124c0.18-0.149,0.407-0.231,0.64-0.231
		c0.233,0,0.46,0.082,0.639,0.231c0.91,0.757,2.061,1.125,3.518,1.125c0.808,0,1.702-0.106,2.9-0.343
		c0.064-0.013,0.129-0.019,0.194-0.019c0.108,0,0.215,0.017,0.317,0.052c0.253,0.084,0.458,0.263,0.577,0.502
		c0.119,0.239,0.139,0.51,0.054,0.763l-1,2.99c-0.123,0.369-0.385,0.673-0.729,0.852C18.18,8.646,15.443,10,12,10z M6.623,7
		C7.168,8.127,9.452,9,12,9c2.548,0,4.832-0.873,5.377-2H6.623z M5.752,5.657C5.82,5.863,6.011,6,6.227,6h11.552
		c0.216,0,0.406-0.137,0.474-0.342l1-2.991c-0.769,0.153-1.925,0.355-3.071,0.355c-1.722,0-3.09-0.441-4.18-1.349
		c-1.088,0.907-2.456,1.348-4.18,1.348c-1.146,0-2.301-0.202-3.07-0.354h0C4.752,2.668,5.752,5.657,5.752,5.657z"/>
	<circle cx="12" cy="4.25" r="0.75"/>
</g>
</svg>
