<?xml version="1.0" encoding="utf-8"?>
<!-- Generator: Adobe Illustrator 22.1.0, SVG Export Plug-In . SVG Version: 6.00 Build 0)  -->
<svg version="1.1" id="Layer_1" xmlns="http://www.w3.org/2000/svg" xmlns:xlink="http://www.w3.org/1999/xlink" x="0px" y="0px"
	 viewBox="0 0 24 24" style="enable-background:new 0 0 24 24;" xml:space="preserve">
<g>
	<title>brain</title>
	<path d="M15.58,24.039c-0.411,0-0.822-0.105-1.187-0.302c-0.568-0.307-0.987-0.811-1.186-1.422
		c-0.362,0.123-0.739,0.185-1.125,0.185c-0.387,0-0.764-0.062-1.126-0.185c-0.331,1.012-1.278,1.72-2.351,1.72
		c-0.035,0-0.071-0.001-0.106-0.002c-0.664-0.021-1.283-0.301-1.74-0.788c-0.452-0.481-0.692-1.107-0.677-1.764
		c-2.083-0.103-3.777-1.704-3.983-3.803c-0.081-0.819,0.074-1.623,0.447-2.344c-1.529-0.468-2.566-1.946-2.455-3.571
		c0.099-1.445,1.09-2.673,2.455-3.093C1.618,6.877,2.086,4.666,3.705,3.406c0.69-0.537,1.506-0.841,2.374-0.885
		c-0.01-0.433,0.093-0.86,0.304-1.249c0.319-0.587,0.847-1.014,1.488-1.203C8.104,0,8.344-0.035,8.583-0.035
		c0.413,0,0.825,0.105,1.191,0.305c0.565,0.307,0.982,0.808,1.181,1.416c0.362-0.123,0.74-0.185,1.126-0.185
		c0.386,0,0.763,0.062,1.124,0.184c0.128-0.396,0.354-0.752,0.663-1.042c0.466-0.439,1.071-0.681,1.702-0.681
		c0.029,0,0.059,0.001,0.088,0.002c1.371,0.041,2.456,1.186,2.424,2.557c0.897,0.047,1.763,0.381,2.46,0.953
		c0.871,0.716,1.412,1.728,1.522,2.85c0.081,0.82-0.073,1.624-0.447,2.346c1.444,0.445,2.463,1.796,2.466,3.33
		c-0.003,1.536-1.021,2.887-2.466,3.332c0.927,1.792,0.458,4.003-1.161,5.263c-0.692,0.539-1.508,0.843-2.373,0.885
		c0.011,0.433-0.092,0.859-0.302,1.248c-0.318,0.587-0.846,1.016-1.486,1.206C16.062,24.004,15.821,24.039,15.58,24.039z
		 M13.584,21.097c0.085,0,0.17,0.022,0.244,0.064c0.152,0.084,0.251,0.246,0.256,0.421c0.004,0.13,0.024,0.259,0.061,0.383
		c0.115,0.385,0.371,0.701,0.724,0.892c0.22,0.119,0.466,0.182,0.712,0.182c0.145,0,0.289-0.021,0.43-0.063
		c0.384-0.114,0.7-0.371,0.891-0.724c0.191-0.353,0.233-0.758,0.119-1.142c-0.048-0.159-0.013-0.332,0.093-0.46
		c0.095-0.116,0.237-0.182,0.388-0.182c0.008,0,0.038,0.001,0.045,0.002c0.108,0.01,0.215,0.016,0.32,0.016
		c0.721,0,1.405-0.235,1.976-0.68c1.401-1.091,1.654-3.119,0.563-4.52c-0.114-0.146-0.137-0.342-0.062-0.511
		c0.075-0.169,0.237-0.282,0.422-0.295c1.298-0.09,2.316-1.179,2.318-2.48c-0.002-1.299-1.021-2.389-2.318-2.479
		c-0.185-0.013-0.346-0.126-0.422-0.295c-0.075-0.169-0.052-0.365,0.062-0.511c0.509-0.654,0.745-1.469,0.664-2.294
		c-0.084-0.856-0.497-1.628-1.162-2.174c-0.583-0.479-1.288-0.732-2.039-0.732c-0.106,0-0.214,0.005-0.32,0.016
		c-0.014,0.002-0.032,0.003-0.051,0.003c-0.146,0-0.29-0.068-0.384-0.182c-0.106-0.129-0.141-0.301-0.094-0.461
		c0.037-0.125,0.058-0.254,0.062-0.384c0.012-0.4-0.133-0.781-0.408-1.073s-0.647-0.459-1.046-0.471l-0.045-0.001
		c-0.384,0-0.749,0.145-1.029,0.408c-0.292,0.275-0.458,0.647-0.47,1.047c-0.005,0.175-0.104,0.337-0.257,0.422
		c-0.074,0.041-0.158,0.063-0.243,0.063c-0.087,0-0.174-0.023-0.25-0.067c-0.38-0.22-0.812-0.335-1.253-0.335
		s-0.873,0.116-1.252,0.335c-0.076,0.044-0.162,0.067-0.25,0.067c-0.085,0-0.169-0.022-0.243-0.063
		c-0.153-0.085-0.251-0.246-0.257-0.421c-0.004-0.128-0.024-0.255-0.061-0.378C9.905,1.657,9.649,1.34,9.297,1.149
		c-0.22-0.12-0.467-0.183-0.714-0.183c-0.144,0-0.287,0.021-0.427,0.062c-0.384,0.113-0.7,0.37-0.892,0.722
		C7.072,2.103,7.028,2.508,7.142,2.892c0.047,0.16,0.012,0.332-0.094,0.46C6.952,3.467,6.812,3.534,6.663,3.534
		c-0.017,0-0.034-0.001-0.051-0.003C6.507,3.52,6.399,3.515,6.293,3.515c-0.72,0-1.402,0.235-1.973,0.68
		C3.642,4.722,3.21,5.484,3.104,6.339s0.126,1.699,0.653,2.377c0.114,0.146,0.138,0.342,0.062,0.511
		C3.743,9.396,3.581,9.508,3.397,9.521c-1.232,0.085-2.225,1.077-2.309,2.309c-0.045,0.661,0.17,1.301,0.607,1.802
		c0.437,0.501,1.041,0.802,1.702,0.847c0.185,0.013,0.347,0.126,0.422,0.295c0.075,0.169,0.052,0.365-0.062,0.511
		c-0.509,0.654-0.745,1.469-0.664,2.294c0.163,1.657,1.541,2.906,3.205,2.906c0.104,0,0.21-0.005,0.316-0.015
		c0.008-0.001,0.039-0.002,0.047-0.002c0.151,0,0.292,0.066,0.387,0.182c0.106,0.128,0.141,0.3,0.094,0.46
		c-0.036,0.123-0.057,0.25-0.061,0.377c-0.026,0.827,0.625,1.521,1.452,1.547l0.04,0c0.819,0,1.481-0.638,1.506-1.452
		c0.006-0.175,0.104-0.336,0.257-0.421c0.074-0.041,0.158-0.063,0.243-0.063c0.088,0,0.174,0.023,0.25,0.067
		c0.379,0.219,0.812,0.335,1.252,0.335c0.44,0,0.873-0.116,1.252-0.335C13.41,21.121,13.497,21.097,13.584,21.097z"/>
	<path d="M12.083,18c-0.276,0-0.5-0.224-0.5-0.5v-1c0-0.276,0.224-0.5,0.5-0.5c0.276,0,0.5,0.224,0.5,0.5v1
		C12.583,17.776,12.359,18,12.083,18z"/>
	<path d="M12.083,15c-0.276,0-0.5-0.224-0.5-0.5v-1c0-0.276,0.224-0.5,0.5-0.5c0.276,0,0.5,0.224,0.5,0.5v1
		C12.583,14.776,12.359,15,12.083,15z"/>
	<path d="M15.201,15c-0.276,0-0.5-0.224-0.5-0.5v-1c0-0.276,0.224-0.5,0.5-0.5s0.5,0.224,0.5,0.5v1
		C15.701,14.776,15.477,15,15.201,15z"/>
	<path d="M12.083,9c-0.276,0-0.5-0.224-0.5-0.5v-1c0-0.276,0.224-0.5,0.5-0.5c0.276,0,0.5,0.224,0.5,0.5v1
		C12.583,8.776,12.359,9,12.083,9z"/>
	<path d="M12.083,6c-0.276,0-0.5-0.224-0.5-0.5v-1c0-0.276,0.224-0.5,0.5-0.5c0.276,0,0.5,0.224,0.5,0.5v1
		C12.583,5.776,12.359,6,12.083,6z"/>
	<path d="M12.083,21c-0.276,0-0.5-0.224-0.5-0.5v-1c0-0.276,0.224-0.5,0.5-0.5c0.276,0,0.5,0.224,0.5,0.5v1
		C12.583,20.776,12.359,21,12.083,21z"/>
	<path d="M3.083,13c-0.276,0-0.5-0.224-0.5-0.5c0-0.276,0.224-0.5,0.5-0.5h1.5c0.276,0,0.5-0.224,0.5-0.5v-1
		c0-0.827,0.673-1.5,1.5-1.5h1c0.276,0,0.5-0.224,0.5-0.5V7.935C7.215,7.71,6.583,6.913,6.583,6c0-1.103,0.897-2,2-2s2,0.897,2,2
		c0,0.913-0.631,1.709-1.5,1.934V8.5c0,0.827-0.673,1.5-1.5,1.5h-1c-0.276,0-0.5,0.224-0.5,0.5v1c0,0.827-0.673,1.5-1.5,1.5H3.083z
		 M8.583,5c-0.551,0-1,0.449-1,1s0.449,1,1,1s1-0.449,1-1S9.135,5,8.583,5z"/>
	<path d="M16.083,10.5c-1.103,0-2-0.897-2-2s0.897-2,2-2c0.859,0,1.601,0.539,1.881,1.323c0.076-0.088,0.12-0.201,0.12-0.323V6
		c0-0.276,0.224-0.5,0.5-0.5s0.5,0.224,0.5,0.5v1.5c0,0.659-0.432,1.235-1.049,1.429C17.837,9.836,17.026,10.5,16.083,10.5z
		 M16.083,7.5c-0.552,0-1,0.449-1,1s0.448,1,1,1s1-0.449,1-1S16.635,7.5,16.083,7.5z"/>
	<path d="M18.083,15c-1.103,0-2-0.897-2-2s0.897-2,2-2s2,0.897,2,2S19.186,15,18.083,15z M18.083,12c-0.552,0-1,0.448-1,1
		s0.448,1,1,1s1-0.448,1-1S18.635,12,18.083,12z"/>
	<path d="M9.583,20.5c-0.276,0-0.5-0.224-0.5-0.5v-2c0-0.121-0.044-0.234-0.12-0.322C8.684,18.462,7.942,19,7.083,19
		c-1.103,0-2-0.897-2-2s0.897-2,2-2c0.943,0,1.753,0.664,1.952,1.571c0.617,0.195,1.048,0.77,1.048,1.429v2
		C10.083,20.276,9.859,20.5,9.583,20.5z M7.083,16c-0.551,0-1,0.448-1,1s0.449,1,1,1s1-0.448,1-1S7.635,16,7.083,16z"/>
	<path d="M15.583,19.5c-1.103,0-2-0.897-2-2s0.897-2,2-2c0.913,0,1.709,0.631,1.934,1.5h1.566c0.276,0,0.5,0.224,0.5,0.5
		s-0.224,0.5-0.5,0.5h-1.566C17.292,18.869,16.496,19.5,15.583,19.5z M15.583,16.5c-0.552,0-1,0.448-1,1s0.448,1,1,1s1-0.448,1-1
		S16.135,16.5,15.583,16.5z"/>
</g>
</svg>
