<?xml version="1.0" encoding="utf-8"?>
<!-- Generator: Adobe Illustrator 22.1.0, SVG Export Plug-In . SVG Version: 6.00 Build 0)  -->
<svg version="1.1" id="Layer_1" xmlns="http://www.w3.org/2000/svg" xmlns:xlink="http://www.w3.org/1999/xlink" x="0px" y="0px"
	 viewBox="0 0 24 24" style="enable-background:new 0 0 24 24;" xml:space="preserve">
<g>
	<title>robot-head</title>
	<path d="M9.25,14.5c-1.103,0-2-0.897-2-2s0.897-2,2-2s2,0.897,2,2S10.353,14.5,9.25,14.5z M9.25,11.5c-0.551,0-1,0.449-1,1
		c0,0.552,0.449,1,1,1s1-0.448,1-1C10.25,11.949,9.801,11.5,9.25,11.5z"/>
	<path d="M15.25,14.5c-1.103,0-2-0.897-2-2s0.897-2,2-2s2,0.897,2,2S16.353,14.5,15.25,14.5z M15.25,11.5c-0.552,0-1,0.449-1,1
		c0,0.552,0.448,1,1,1s1-0.448,1-1C16.25,11.949,15.802,11.5,15.25,11.5z"/>
	<path d="M12.25,23.5c-3.308,0-6-2.692-6-6v-0.051c-0.597-0.122-1.13-0.458-1.499-0.949H4.75c-1.199,0-2.215-0.845-2.449-2H1.75
		c-0.276,0-0.5-0.224-0.5-0.5s0.224-0.5,0.5-0.5h0.551c0.22-1.085,1.135-1.9,2.242-1.991c0.854-3.11,3.512-5.459,6.707-5.931V4.5
		c0-1.103,0.897-2,2-2c0.552,0,1-0.449,1-1V1c0-0.276,0.224-0.5,0.5-0.5s0.5,0.224,0.5,0.5v0.5c0,1.103-0.897,2-2,2
		c-0.552,0-1,0.449-1,1v0.996c0.001,0,0.002,0,0.004,0c2.137,0.001,4.146,0.834,5.656,2.346c1.02,1.021,1.74,2.287,2.092,3.672
		c1.084,0.11,1.98,0.921,2.197,1.985h0.551c0.276,0,0.5,0.224,0.5,0.5s-0.224,0.5-0.5,0.5h-0.551c-0.234,1.155-1.25,2-2.449,2
		h-0.001c-0.369,0.491-0.901,0.827-1.499,0.949V17.5C18.25,20.808,15.558,23.5,12.25,23.5z M10.25,22.076
		c0.639,0.281,1.311,0.424,2,0.424s1.361-0.143,2-0.424V21.5c0-1.103-0.897-2-2-2s-2,0.897-2,2V22.076z M7.25,17.5
		c0,1.586,0.74,3.047,2,3.991c0.005-1.65,1.349-2.991,3-2.991s2.995,1.341,3,2.991c1.26-0.945,2-2.405,2-3.991H7.25z M5.399,12.228
		c-0.107,0.52-0.157,1.05-0.149,1.576V15c0,0.827,0.673,1.5,1.5,1.5h11c0.827,0,1.5-0.673,1.5-1.5v-1.5
		c0.001-1.87-0.726-3.628-2.048-4.951c-1.322-1.323-3.079-2.052-4.949-2.052c-0.073,0-0.145,0.001-0.218,0.003
		c-3.183,0.181-5.823,2.375-6.579,5.465C5.458,11.975,5.459,11.987,5.459,12C5.459,12.078,5.439,12.155,5.399,12.228z M4.326,12.563
		C3.702,12.748,3.25,13.327,3.25,14c0,0.659,0.434,1.229,1.037,1.425C4.263,15.284,4.25,15.142,4.25,15v-1.189
		C4.244,13.395,4.269,12.976,4.326,12.563z M20.196,12.569c0.036,0.312,0.055,0.624,0.054,0.931V15c0,0.142-0.012,0.284-0.037,0.425
		c0.604-0.197,1.037-0.766,1.037-1.425C21.25,13.338,20.807,12.761,20.196,12.569z"/>
</g>
</svg>
