<?xml version="1.0" encoding="utf-8"?>
<!-- Generator: Adobe Illustrator 22.1.0, SVG Export Plug-In . SVG Version: 6.00 Build 0)  -->
<svg version="1.1" id="Layer_1" xmlns="http://www.w3.org/2000/svg" xmlns:xlink="http://www.w3.org/1999/xlink" x="0px" y="0px"
	 viewBox="0 0 24 24" style="enable-background:new 0 0 24 24;" xml:space="preserve">
<g>
	<title>settings-user</title>
	<path d="M11,13c-3.584,0-6.5-2.916-6.5-6.5S7.416,0,11,0c0.276,0,0.5,0.224,0.5,0.5v12C11.5,12.776,11.276,13,11,13z M10.5,1.022
		c-2.824,0.253-5,2.611-5,5.478s2.176,5.224,5,5.478V1.022z"/>
	<path d="M1.5,24C1.224,24,1,23.776,1,23.5c0-5.514,4.486-10,10-10c0.276,0,0.5,0.224,0.5,0.5v9.5c0,0.276-0.224,0.5-0.5,0.5H1.5z
		 M10.5,23v-8.486C5.924,14.765,2.265,18.424,2.014,23H10.5z"/>
	<path d="M13,13c-0.274,0-0.499-0.223-0.5-0.497c-0.001-0.276,0.222-0.501,0.497-0.503c0.167-0.001,0.335-0.01,0.503-0.026V10.88
		c0-0.235,0.16-0.435,0.388-0.487c0.438-0.1,0.852-0.273,1.231-0.514c0.081-0.051,0.173-0.078,0.268-0.078
		c0.134,0,0.259,0.052,0.354,0.146l0.775,0.776c0.257-0.214,0.493-0.45,0.707-0.707l-0.776-0.776
		c-0.167-0.167-0.195-0.423-0.068-0.622c0.241-0.379,0.414-0.793,0.514-1.231C16.945,7.16,17.146,7,17.38,7h1.094
		c0.016-0.167,0.025-0.336,0.026-0.503C18.499,6.333,18.49,6.167,18.474,6H17.38c-0.234,0-0.435-0.16-0.487-0.388
		c-0.101-0.438-0.274-0.852-0.514-1.231c-0.125-0.196-0.096-0.457,0.068-0.622l0.776-0.776c-0.214-0.257-0.45-0.493-0.707-0.707
		l-0.774,0.776C15.646,3.148,15.52,3.2,15.387,3.2c-0.095,0-0.187-0.027-0.268-0.077c-0.38-0.241-0.794-0.414-1.232-0.515
		C13.659,2.555,13.5,2.354,13.5,2.12V1.026C13.332,1.01,13.164,1.001,12.997,1c-0.276-0.002-0.499-0.227-0.497-0.503
		C12.501,0.223,12.726,0,13,0c0.365,0.002,0.729,0.035,1.086,0.098C14.326,0.139,14.5,0.346,14.5,0.59v1.149
		c0.277,0.088,0.547,0.201,0.804,0.336l0.813-0.815c0.095-0.095,0.22-0.147,0.354-0.147c0.104,0,0.205,0.032,0.29,0.093
		c0.594,0.422,1.109,0.938,1.532,1.531c0.142,0.2,0.119,0.47-0.054,0.643l-0.815,0.815C17.561,4.453,17.673,4.722,17.761,5h1.149
		c0.243,0,0.45,0.174,0.493,0.414c0.062,0.359,0.095,0.723,0.097,1.083c-0.002,0.365-0.035,0.73-0.097,1.089
		C19.36,7.826,19.153,8,18.91,8h-1.149c-0.088,0.278-0.201,0.547-0.336,0.805l0.815,0.815c0.173,0.173,0.196,0.444,0.054,0.643
		c-0.423,0.594-0.938,1.109-1.532,1.532c-0.085,0.06-0.185,0.093-0.29,0.093c-0.134,0-0.26-0.052-0.354-0.147l-0.814-0.814
		c-0.258,0.135-0.527,0.248-0.805,0.336v1.148c0,0.243-0.174,0.45-0.414,0.493c-0.359,0.062-0.724,0.095-1.083,0.097
		c0,0-0.001,0-0.001,0H13z"/>
	<path d="M13,9c-0.276,0-0.5-0.224-0.5-0.5S12.724,8,13,8c0.827,0,1.5-0.673,1.5-1.5S13.827,5,13,5c-0.276,0-0.5-0.224-0.5-0.5
		S12.724,4,13,4c1.378,0,2.5,1.121,2.5,2.5S14.378,9,13,9z"/>
	<path d="M22.5,24c-0.274,0-0.498-0.223-0.5-0.497c-0.002-0.333-0.024-0.669-0.063-1.003h-1.588c-0.236,0-0.442-0.168-0.49-0.399
		c-0.125-0.605-0.33-1.191-0.61-1.741c-0.099-0.194-0.061-0.427,0.093-0.58l1.19-1.189c-0.552-0.848-1.236-1.589-2.035-2.208
		l-1.138,1.139c-0.094,0.094-0.22,0.146-0.354,0.146c-0.095,0-0.188-0.027-0.269-0.078c-0.577-0.367-1.204-0.646-1.865-0.829
		c-0.216-0.06-0.367-0.258-0.367-0.482v-1.65C14.009,14.544,13.504,14.501,13,14.5c-0.134,0-0.259-0.052-0.354-0.147
		c-0.094-0.094-0.146-0.22-0.146-0.354c0-0.275,0.225-0.499,0.5-0.499c0.709,0.001,1.419,0.077,2.11,0.226
		c0.229,0.049,0.395,0.255,0.395,0.489v1.692c0.493,0.162,0.97,0.374,1.423,0.63l1.166-1.167c0.094-0.094,0.22-0.146,0.354-0.146
		c0.104,0,0.203,0.031,0.288,0.091c1.169,0.822,2.132,1.863,2.861,3.093c0.117,0.197,0.085,0.447-0.077,0.609l-1.22,1.219
		c0.184,0.407,0.333,0.831,0.447,1.264h1.625c0.246,0,0.453,0.176,0.493,0.418c0.087,0.521,0.133,1.052,0.137,1.579
		c0.002,0.276-0.221,0.501-0.497,0.503c0,0-0.001,0-0.002,0H22.5z"/>
	<path d="M17,24c-0.276,0-0.5-0.224-0.5-0.5c0-1.93-1.57-3.5-3.5-3.5c-0.276,0-0.5-0.224-0.5-0.5S12.724,19,13,19
		c2.481,0,4.5,2.019,4.5,4.5C17.5,23.776,17.276,24,17,24z"/>
</g>
</svg>
