<?xml version="1.0" encoding="utf-8"?>
<!-- Generator: Adobe Illustrator 22.1.0, SVG Export Plug-In . SVG Version: 6.00 Build 0)  -->
<svg version="1.1" id="Layer_1" xmlns="http://www.w3.org/2000/svg" xmlns:xlink="http://www.w3.org/1999/xlink" x="0px" y="0px"
	 viewBox="0 0 24 24" style="enable-background:new 0 0 24 24;" xml:space="preserve">
<g>
	<title>sports-car-convertible-2</title>
	<path d="M17.5,17.5c-0.789,0-1.526-0.371-1.999-1H7.499c-0.472,0.629-1.21,1-1.999,1c-0.799,0-1.544-0.381-2.016-1.024
		C1.488,16.258-0.001,14.606,0,12.585V11.5c-0.001-0.826,0.591-1.523,1.406-1.657c0.928-0.194,1.9-0.307,2.88-0.336L6.792,7
		c0.335-0.302,0.751-0.476,1.18-0.5L9.5,6.5c0.216,0,0.406,0.137,0.474,0.342L10.86,9.5H16l-2.8-2.1
		c-0.107-0.08-0.176-0.197-0.195-0.329C12.986,6.938,13.02,6.807,13.1,6.7c0.094-0.125,0.244-0.2,0.4-0.2
		c0.109,0,0.213,0.035,0.3,0.1l3.934,2.951l4.975,1.658C23.481,11.467,24,12.186,24,13v2c0,0.827-0.673,1.5-1.5,1.5h-3.001
		C19.026,17.129,18.289,17.5,17.5,17.5z M17.5,13.5c-0.827,0-1.5,0.673-1.5,1.5s0.673,1.5,1.5,1.5c0.526,0,1.004-0.271,1.281-0.723
		c0,0,0.013-0.023,0.018-0.03C18.929,15.523,19,15.262,19,15C19,14.173,18.327,13.5,17.5,13.5z M5.5,13.5C4.673,13.5,4,14.173,4,15
		s0.673,1.5,1.5,1.5S7,15.827,7,15S6.327,13.5,5.5,13.5z M22.5,15.5c0.276,0,0.5-0.224,0.5-0.5v-1.5h-1.5
		c-0.276,0-0.5-0.224-0.5-0.5s0.224-0.5,0.5-0.5h1.344c-0.107-0.158-0.263-0.279-0.451-0.342L17.419,10.5H4.5
		c-0.972,0.016-1.953,0.125-2.911,0.326C1.238,10.884,1,11.16,1,11.5l1.5,0C2.776,11.5,3,11.724,3,12c0,0.276-0.224,0.5-0.5,0.5H1
		v0.086c-0.001,1.286,0.831,2.398,2.027,2.777C3.009,15.243,3,15.122,3,15c0-1.378,1.121-2.5,2.5-2.5S8,13.622,8,15
		c0,0.167-0.017,0.334-0.052,0.5h7.104C15.017,15.334,15,15.167,15,15c0-1.378,1.122-2.5,2.5-2.5S20,13.622,20,15
		c0,0.167-0.017,0.334-0.052,0.5H22.5z M9.806,9.5l-0.667-2H8.007C7.819,7.512,7.627,7.594,7.48,7.726L5.707,9.5H9.806z"/>
	<path d="M11.5,12.5c-0.276,0-0.5-0.224-0.5-0.5c0-0.276,0.224-0.5,0.5-0.5h1c0.276,0,0.5,0.224,0.5,0.5c0,0.276-0.224,0.5-0.5,0.5
		H11.5z"/>
</g>
</svg>
