<?xml version="1.0" encoding="utf-8"?>
<!-- Generator: Adobe Illustrator 22.1.0, SVG Export Plug-In . SVG Version: 6.00 Build 0)  -->
<svg version="1.1" id="Layer_1" xmlns="http://www.w3.org/2000/svg" xmlns:xlink="http://www.w3.org/1999/xlink" x="0px" y="0px"
	 viewBox="0 0 24 24" style="enable-background:new 0 0 24 24;" xml:space="preserve">
<g>
	<title>sports-car-1</title>
	<path d="M16.499,17.499c-0.789,0-1.526-0.371-1.999-1H7.498c-0.472,0.629-1.21,1-1.999,1c-0.836,0-1.601-0.41-2.069-1.102
		c-1.995-0.43-3.431-2.2-3.431-4.249V9.999c0.02-0.521,0.359-0.959,0.845-1.101l1.482-0.371C4.973,7.2,7.921,6.499,10.853,6.499
		l0.15,0.001c3.259,0.11,6.368,1.378,8.768,3.571c1.575,0.476,2.78,1.283,3.682,2.467c0.884,1.145,0.674,2.796-0.467,3.687
		c-0.185,0.175-0.437,0.275-0.692,0.275h-3.795C18.025,17.128,17.288,17.499,16.499,17.499z M16.499,13.499
		c-0.827,0-1.5,0.673-1.5,1.5s0.673,1.5,1.5,1.5c0.827,0,1.5-0.673,1.5-1.5S17.326,13.499,16.499,13.499z M5.499,13.499
		c-0.827,0-1.5,0.673-1.5,1.5s0.673,1.5,1.5,1.5s1.5-0.673,1.5-1.5S6.326,13.499,5.499,13.499z M22.292,15.499
		c0.016-0.015,0.032-0.029,0.049-0.042c0.004-0.003,0.018-0.014,0.021-0.016c0.304-0.235,0.513-0.569,0.595-0.941h-1.459
		c-0.276,0-0.5-0.224-0.5-0.5s0.224-0.5,0.5-0.5h1.366c-0.053-0.126-0.123-0.244-0.207-0.353c-1.413-1.855-3.703-2.647-7.659-2.647
		H10.58c-1.041,0-2.072-0.158-3.066-0.47c-0.993-0.333-2.02-0.511-3.06-0.53H2.561L1.105,9.864C1.05,9.88,1.002,9.946,0.999,10.019
		l0,0.481h1.5c0.276,0,0.5,0.224,0.5,0.5s-0.224,0.5-0.5,0.5h-1.5l0,0.649c0,1.359,0.792,2.546,2.01,3.07
		c-0.007-0.073-0.01-0.146-0.01-0.219c0-1.378,1.121-2.5,2.5-2.5s2.5,1.122,2.5,2.5c0,0.167-0.017,0.334-0.052,0.5h6.104
		c-0.035-0.166-0.052-0.333-0.052-0.5s0.017-0.334,0.052-0.5h-2.552c-0.809,0-1.534-0.449-1.895-1.172l-0.553-1.105
		c-0.06-0.119-0.069-0.255-0.027-0.382c0.042-0.127,0.131-0.229,0.251-0.289c0.069-0.035,0.146-0.053,0.224-0.053
		c0.191,0,0.362,0.106,0.448,0.277l0.553,1.105c0.19,0.382,0.573,0.618,0.999,0.618h3.003c0.472-0.629,1.21-1,1.999-1
		c1.378,0,2.5,1.122,2.5,2.5c0,0.167-0.017,0.334-0.052,0.5H22.292z M14.999,9.499c0.958,0,1.818,0.045,2.599,0.138
		c-1.955-1.306-4.269-2.058-6.616-2.138l-0.089,0c-0.192,0-0.386,0.003-0.58,0.01l0.995,1.991H14.999z M4.914,8.517
		c0.994,0.058,1.969,0.246,2.91,0.562c0.764,0.24,1.558,0.378,2.363,0.413L9.229,7.577C7.754,7.714,6.308,8.029,4.914,8.517z"/>
</g>
</svg>
