<?xml version="1.0" encoding="utf-8"?>
<!-- Generator: Adobe Illustrator 22.1.0, SVG Export Plug-In . SVG Version: 6.00 Build 0)  -->
<svg version="1.1" id="Layer_1" xmlns="http://www.w3.org/2000/svg" xmlns:xlink="http://www.w3.org/1999/xlink" x="0px" y="0px"
	 viewBox="0 0 24 24" style="enable-background:new 0 0 24 24;" xml:space="preserve">
<g>
	<title>sports-car-convertible</title>
	<path d="M16.999,18.5c-0.856,0-1.664-0.363-2.234-1H5.234c-0.57,0.637-1.378,1-2.234,1c-1.653,0-2.999-1.345-3-2.999v-3.5
		c0-0.827,0.673-1.5,1.5-1.5V6.991L0.296,6.457C0.174,6.402,0.081,6.304,0.033,6.179s-0.044-0.26,0.01-0.383
		C0.123,5.616,0.302,5.5,0.499,5.5c0.07,0,0.139,0.015,0.203,0.043l4.5,2C5.324,7.597,5.418,7.696,5.466,7.82s0.044,0.26-0.01,0.383
		C5.376,8.383,5.197,8.5,4.999,8.5c-0.07,0-0.139-0.015-0.203-0.043L4.499,8.325v2.176h0.68c0.993-1.91,3.544-2.648,4.614-2.88
		C9.865,7.607,9.934,7.6,10.002,7.6c0.267,0,0.518,0.104,0.706,0.294C10.896,8.083,11,8.333,10.999,8.6V11
		c0,0.827,0.673,1.5,1.5,1.5h6.682c1.716,0,3.258,0.953,4.025,2.487l0.714,1.427c0.052,0.106,0.08,0.223,0.079,0.339
		c0,0.199-0.079,0.387-0.221,0.528C23.638,17.422,23.45,17.5,23.25,17.5h-4.016C18.663,18.137,17.856,18.5,16.999,18.5z
		 M16.999,13.5c-1.103,0-2,0.897-2,2s0.897,2,2,2s2-0.897,2-2S18.102,13.5,16.999,13.5z M2.999,13.5c-1.103,0-2,0.897-2,2
		s0.897,2,2,2s2-0.897,2-2S4.102,13.5,2.999,13.5z M22.845,16.5l-0.533-1.065c-0.589-1.178-1.766-1.916-3.081-1.934
		c0.489,0.545,0.768,1.256,0.768,2c0,0.344-0.058,0.679-0.173,1H22.845z M14.172,16.5c-0.115-0.321-0.173-0.656-0.173-1
		c0-0.744,0.279-1.455,0.768-2h-2.268c-1.379,0-2.5-1.122-2.5-2.5V8.6c-0.984,0.213-3.354,0.892-4.036,2.588
		c-0.077,0.19-0.259,0.313-0.464,0.313h-4c-0.276,0-0.5,0.224-0.5,0.5v1.267c0.545-0.489,1.256-0.768,2-0.768c1.654,0,3,1.346,3,3
		c0,0.344-0.058,0.679-0.173,1H14.172z M3.499,10.501V7.88l-1-0.444v3.065H3.499z"/>
	<path d="M16.499,11.5c-0.276,0-0.5-0.224-0.5-0.5c0-0.827-0.673-1.5-1.5-1.5s-1.5,0.673-1.5,1.5c0,0.276-0.224,0.5-0.5,0.5
		c-0.276,0-0.5-0.224-0.5-0.5c0-1.379,1.122-2.5,2.5-2.5s2.5,1.121,2.5,2.5C16.999,11.276,16.775,11.5,16.499,11.5z"/>
</g>
</svg>
