<?xml version="1.0" encoding="utf-8"?>
<!-- Generator: Adobe Illustrator 22.1.0, SVG Export Plug-In . SVG Version: 6.00 Build 0)  -->
<svg version="1.1" id="Layer_1" xmlns="http://www.w3.org/2000/svg" xmlns:xlink="http://www.w3.org/1999/xlink" x="0px" y="0px"
	 viewBox="0 0 24 24" style="enable-background:new 0 0 24 24;" xml:space="preserve">
<g>
	<title>sports-car</title>
	<path d="M19.5,18c-1.199,0-2.215-0.845-2.449-2H9.949c-0.234,1.155-1.25,2-2.449,2s-2.215-0.845-2.449-2H0.5
		C0.224,16,0,15.776,0,15.5S0.224,15,0.5,15H1v-4c0-0.551,0.449-1,1-1V8.887L0.439,8.484C0.31,8.451,0.201,8.369,0.133,8.254
		C0.065,8.139,0.046,8.004,0.08,7.875C0.137,7.654,0.336,7.5,0.564,7.5c0.042,0,0.084,0.005,0.125,0.016l2.905,0.75
		c0.129,0.033,0.238,0.115,0.306,0.23c0.068,0.115,0.087,0.25,0.053,0.379C3.895,9.096,3.696,9.25,3.468,9.25
		c-0.042,0-0.084-0.005-0.125-0.016L3,9.146V10h0.367l6.885-3.934c0.009-0.005,0.025-0.013,0.039-0.018
		c0.011-0.006,0.023-0.012,0.034-0.016c0.011-0.004,0.023-0.007,0.035-0.01C10.404,6.008,10.452,6,10.5,6h4.264
		c0.953,0,1.81,0.53,2.236,1.382L18.309,10H22c1.103,0,2,0.897,2,2v3c0,0.552-0.448,1-1,1h-1.051C21.715,17.155,20.699,18,19.5,18z
		 M19.5,14c-0.827,0-1.5,0.673-1.5,1.5s0.673,1.5,1.5,1.5s1.5-0.673,1.5-1.5S20.327,14,19.5,14z M7.5,14C6.673,14,6,14.673,6,15.5
		S6.673,17,7.5,17S9,16.327,9,15.5S8.327,14,7.5,14z M23,15v-3c0-0.551-0.448-1-1-1h-8.614c-1.037,0-1.978-0.653-2.341-1.625
		l-0.807-2.149l-6.49,3.708C3.673,10.977,3.587,11,3.5,11H2v4h3.051c0.234-1.155,1.25-2,2.449-2s2.215,0.845,2.449,2h7.102
		c0.234-1.155,1.25-2,2.449-2s2.215,0.845,2.449,2H23z M11.981,9.024C12.199,9.608,12.764,10,13.386,10h3.805l-1.085-2.17
		C15.85,7.318,15.336,7,14.764,7h-3.542L11.981,9.024z"/>
</g>
</svg>
