<?xml version="1.0" encoding="utf-8"?>
<!-- Generator: Adobe Illustrator 22.1.0, SVG Export Plug-In . SVG Version: 6.00 Build 0)  -->
<svg version="1.1" id="Light" xmlns="http://www.w3.org/2000/svg" xmlns:xlink="http://www.w3.org/1999/xlink" x="0px" y="0px"
	 viewBox="0 0 24 24" style="enable-background:new 0 0 24 24;" xml:space="preserve">
<g>
	<title>milk-can</title>
	<path d="M7,24c-1.379,0-2.5-1.122-2.5-2.5V10.328c0-0.065,0.003-0.13,0.008-0.195l-1.955-3.91c-0.06-0.12-0.069-0.255-0.027-0.382
		s0.131-0.229,0.251-0.289C2.845,5.518,2.923,5.5,3,5.5c0.191,0,0.362,0.106,0.447,0.276L4.985,8.85
		c0.075-0.103,0.158-0.2,0.248-0.29L7.5,6.293V4H6C5.724,4,5.5,3.776,5.5,3.5C5.5,1.57,7.07,0,9,0h6c1.93,0,3.5,1.57,3.5,3.5
		C18.5,3.776,18.276,4,18,4h-1.5v2.293l2.268,2.267c0.09,0.09,0.173,0.187,0.248,0.29l1.537-3.074C20.638,5.606,20.81,5.5,21,5.5
		c0.077,0,0.154,0.018,0.223,0.053c0.12,0.06,0.209,0.162,0.251,0.289s0.033,0.262-0.027,0.382l-1.955,3.91
		c0.005,0.064,0.008,0.129,0.008,0.195V21.5c0,1.378-1.122,2.5-2.5,2.5H7z M5.537,10C5.513,10.109,5.5,10.218,5.5,10.328V21.5
		C5.5,22.327,6.173,23,7,23h10c0.827,0,1.5-0.673,1.5-1.5V10.328c0-0.11-0.012-0.219-0.037-0.328H5.537z M17.793,9l-2-2H8.207l-2,2
		H17.793z M15.5,6V4h-7v2H15.5z M17.45,3C17.215,1.859,16.188,1,15,1H9C7.812,1,6.785,1.859,6.55,3H17.45z"/>
</g>
</svg>
