<?xml version="1.0" encoding="utf-8"?>
<!-- Generator: Adobe Illustrator 22.1.0, SVG Export Plug-In . SVG Version: 6.00 Build 0)  -->
<svg version="1.1" id="Light" xmlns="http://www.w3.org/2000/svg" xmlns:xlink="http://www.w3.org/1999/xlink" x="0px" y="0px"
	 viewBox="0 0 24 24" style="enable-background:new 0 0 24 24;" xml:space="preserve">
<g>
	<title>milk-carton</title>
	<path d="M1.5,23.999c-0.827,0-1.5-0.673-1.5-1.5V10.913c0-0.207,0.044-0.411,0.13-0.605c0.004-0.009,0.017-0.034,0.022-0.042
		c0.071-0.153,0.17-0.296,0.288-0.414L5,5.292V2.999c0-0.017,0.001-0.034,0.003-0.051C5.172,1.29,6.612-0.01,8.28-0.01
		c0.086,0,0.173,0.003,0.26,0.01l6.96-0.002c0.066-0.006,0.152-0.01,0.237-0.01c1.659,0,3.091,1.3,3.261,2.958
		C18.999,2.968,19,2.983,19,2.999v2.293l4.561,4.561c0.118,0.118,0.217,0.261,0.294,0.425c0.004,0.005,0.012,0.02,0.019,0.037
		C23.957,10.503,24,10.706,24,10.913v11.586c0,0.827-0.673,1.5-1.5,1.5H1.5z M22.5,22.999c0.276,0,0.5-0.224,0.5-0.5v-11.5h-9v12
		H22.5z M1,22.499c0,0.276,0.224,0.5,0.5,0.5H13v-12H1V22.499z M22.293,9.999L18.5,6.206l-3.793,3.793H22.293z M13.293,9.999l4-4
		H5.707l-4,4H13.293z M18,4.999V3.026c-0.129-1.143-1.128-2.036-2.279-2.036c-0.06,0-0.121,0.002-0.181,0.007L8.5,0.999
		C8.419,0.993,8.358,0.991,8.297,0.991C7.136,0.991,6.129,1.884,6,3.026v1.973H18z"/>
	<path d="M2.5,17.999c-0.276,0-0.5-0.224-0.5-0.5v-4c0-0.276,0.224-0.5,0.5-0.5h8c0.276,0,0.5,0.224,0.5,0.5v4
		c0,0.276-0.224,0.5-0.5,0.5H2.5z M10,16.999v-3H3v3H10z"/>
</g>
</svg>
