<?xml version="1.0" encoding="utf-8"?>
<!-- Generator: Adobe Illustrator 22.1.0, SVG Export Plug-In . SVG Version: 6.00 Build 0)  -->
<svg version="1.1" id="Light" xmlns="http://www.w3.org/2000/svg" xmlns:xlink="http://www.w3.org/1999/xlink" x="0px" y="0px"
	 viewBox="0 0 24 24" style="enable-background:new 0 0 24 24;" xml:space="preserve">
<g>
	<title>pet-tracking-dog-location</title>
	<path d="M2.5,18.999c-1.103,0-2-0.897-2-2c0.172-2.962,0.719-5.874,1.628-8.674C0.81,7.509-0.001,6.062,0,4.498
		c0.034-1.821,1.041-3.496,2.628-4.375c0.149-0.082,0.316-0.125,0.483-0.125c0.205,0,0.403,0.063,0.573,0.181
		C4.135,0.496,4.246,1.12,3.93,1.572c-0.871,1.245-1.125,2.43-0.697,3.251C3.627,5.581,4.61,5.999,6,5.999h5.792
		c0.961,0,1.886-0.397,2.54-1.089c0.006-0.008,0.025-0.027,0.028-0.03c0.289-0.311,0.52-0.678,0.682-1.083
		c0.743-1.857,1.98-2.798,3.677-2.798c0.98,0,1.862,0.545,2.301,1.421c0.178,0.357,0.536,0.579,0.935,0.579
		C23.083,2.999,24,3.916,24,5.044c0,1.629-1.326,2.955-2.955,2.955c-0.885,0-1.708,0.478-2.145,1.247
		c-0.008,0.014-0.023,0.034-0.037,0.05c-0.003,0.007-0.019,0.033-0.045,0.059c-0.012,0.012-0.031,0.026-0.048,0.037
		c-0.014,0.01-0.028,0.019-0.042,0.028c-0.026,0.015-0.064,0.039-0.114,0.054c-0.011,0.004-0.044,0.011-0.056,0.013
		C18.539,9.491,18.507,9.5,18.465,9.5c-0.017,0-0.04-0.003-0.059-0.007c-0.013-0.002-0.026-0.005-0.04-0.008
		c-0.028-0.006-0.065-0.015-0.105-0.033c-0.015-0.005-0.03-0.012-0.042-0.019c-0.022-0.013-0.038-0.026-0.051-0.037
		c-0.019-0.012-0.042-0.029-0.056-0.043l-3.416-3.414c-0.283,0.24-0.591,0.441-0.922,0.603l2.59,2.591
		c0.094,0.094,0.146,0.22,0.146,0.354c0,0.134-0.052,0.259-0.146,0.354s-0.22,0.146-0.354,0.146c-0.134,0-0.259-0.052-0.354-0.146
		L12.72,6.902c-0.307,0.064-0.619,0.097-0.928,0.097H6c-1.781,0-3.079-0.609-3.654-1.714C1.74,4.121,2.019,2.559,3.11,0.999
		C1.836,1.705,1.027,3.05,1,4.508C0.999,5.844,1.748,7.046,2.954,7.64c0.224,0.11,0.333,0.372,0.253,0.609
		c-0.959,2.836-1.533,5.79-1.707,8.779C1.5,17.557,1.949,17.999,2.5,17.999c0.551,0,1-0.448,1-1v-0.63
		c-0.027-1.135,0.394-2.22,1.184-3.048c0.791-0.829,1.856-1.3,3.001-1.326c0.034-0.001,0.068-0.001,0.103-0.001
		c0.08,0,0.16,0.002,0.24,0.007L10,11.999l0.115-0.001c0.879,0,1.766,0.196,2.565,0.566c0.25,0.116,0.359,0.414,0.243,0.664
		c-0.082,0.176-0.26,0.29-0.454,0.29l0,0c-0.073,0-0.144-0.016-0.21-0.047c-0.668-0.309-1.408-0.473-2.141-0.473l-0.107,0.001H8
		c-0.085-0.004-0.152-0.006-0.216-0.006l-0.075,0.001c-0.878,0.021-1.695,0.382-2.301,1.017c-0.606,0.635-0.929,1.469-0.908,2.346
		l0,0.642C4.5,18.101,3.603,18.999,2.5,18.999z M18.399,8.227c0.656-0.774,1.625-1.228,2.645-1.228C22.123,6.999,23,6.122,23,5.044
		c0-0.576-0.469-1.045-1.045-1.045c-0.781,0-1.481-0.434-1.829-1.132c-0.268-0.535-0.807-0.868-1.406-0.868h0
		c-1.283,0-2.156,0.689-2.749,2.17c-0.148,0.372-0.346,0.722-0.588,1.043L18.399,8.227z"/>
	<path d="M19,17.999c-1.103,0-2-0.897-2-2s0.897-2,2-2s2,0.897,2,2S20.103,17.999,19,17.999z M19,14.999c-0.552,0-1,0.448-1,1
		s0.448,1,1,1s1-0.448,1-1S19.552,14.999,19,14.999z"/>
	<path d="M19,23.999c-0.134,0-0.259-0.052-0.354-0.146C18.457,23.662,14,19.169,14,15.999c0-2.757,2.243-5,5-5s5,2.243,5,5
		c0,3.171-4.457,7.664-4.646,7.854C19.259,23.947,19.134,23.999,19,23.999z M19,11.999c-2.206,0-4,1.794-4,4
		c0,2.291,3.021,5.724,4,6.776c0.979-1.052,4-4.486,4-6.776C23,13.793,21.206,11.999,19,11.999z"/>
	<path d="M18.75,5.499c-0.028,0-0.06-0.004-0.087-0.008C18.292,5.455,18,5.136,18,4.749c0-0.414,0.336-0.751,0.75-0.751
		c0.01,0,0.049,0.004,0.053,0.004C19.189,4.024,19.5,4.352,19.5,4.749c0,0.406-0.327,0.74-0.731,0.75
		C18.762,5.499,18.756,5.499,18.75,5.499z"/>
</g>
</svg>
