<?xml version="1.0" encoding="utf-8"?>
<!-- Generator: Adobe Illustrator 22.1.0, SVG Export Plug-In . SVG Version: 6.00 Build 0)  -->
<svg version="1.1" id="Light" xmlns="http://www.w3.org/2000/svg" xmlns:xlink="http://www.w3.org/1999/xlink" x="0px" y="0px"
	 viewBox="0 0 24 24" style="enable-background:new 0 0 24 24;" xml:space="preserve">
<g>
	<title>pet-tracking-dog-signal</title>
	<path d="M11.531,23.987c-0.07,0-0.141-0.016-0.209-0.048c-0.015-0.007-0.048-0.028-0.062-0.038
		c-0.017-0.009-0.049-0.028-0.082-0.061c-0.009-0.009-0.019-0.021-0.028-0.033c-0.01-0.01-0.019-0.021-0.026-0.031l-2.932-4.158
		c-0.28-0.395-0.737-0.631-1.223-0.631H3.5c-1.93,0-3.5-1.57-3.5-3.5v-1.5c0-1.103,0.897-2,2-2h1.5c0.276,0,0.5-0.224,0.5-0.5v-1
		c0-1.379,1.121-2.5,2.5-2.5H10V4.762c0-0.551,0.449-1,1-1c0.171,0,0.34,0.044,0.488,0.127c1.294,0.725,3.561,2.57,4.282,6.802
		l8.041,6.406c0.216,0.172,0.251,0.487,0.08,0.703c-0.095,0.12-0.238,0.188-0.391,0.188l0,0c-0.113,0-0.223-0.039-0.312-0.109
		l-2.973-2.368l-8.331,8.331c-0.009,0.009-0.021,0.019-0.033,0.028c-0.01,0.01-0.021,0.02-0.03,0.026
		c-0.031,0.022-0.057,0.033-0.071,0.039c-0.015,0.008-0.031,0.016-0.048,0.022C11.642,23.977,11.587,23.987,11.531,23.987z
		 M11.597,22.714l7.831-7.831l-1.422-1.133l-7.465,7.465L11.597,22.714z M2,12.987c-0.551,0-1,0.448-1,1v1.5
		c0,1.378,1.121,2.5,2.5,2.5h3.462c0.816,0,1.578,0.394,2.046,1.054l0.948,1.345l7.263-7.263l-2.223-1.771
		c-0.098-0.078-0.163-0.189-0.182-0.313c-0.618-3.949-2.655-5.628-3.815-6.277l0,3.726c0,0.276-0.224,0.5-0.5,0.5h-4
		c-0.827,0-1.5,0.673-1.5,1.5v1c0,0.827-0.673,1.5-1.5,1.5H2z"/>
	<path d="M7,12.237c-0.018,0-0.045-0.004-0.067-0.008c-0.367-0.025-0.67-0.339-0.682-0.72C6.25,11.502,6.25,11.485,6.25,11.485
		c0-0.008,0-0.015,0.001-0.023c0.014-0.376,0.308-0.685,0.681-0.719c0.016-0.004,0.04-0.008,0.068-0.008
		c0.414,0,0.75,0.336,0.75,0.75c0,0,0,0.002,0,0.003C7.75,11.901,7.413,12.237,7,12.237z"/>
	<path d="M12.508,3.001c-0.147,0-0.286-0.064-0.382-0.177c-0.178-0.211-0.152-0.527,0.058-0.705C13.814,0.74,15.879-0.02,18-0.02
		s4.186,0.76,5.815,2.139c0.21,0.178,0.236,0.494,0.059,0.705c-0.095,0.113-0.235,0.177-0.382,0.177
		c-0.118,0-0.232-0.042-0.323-0.118C21.72,1.656,19.884,0.98,18,0.98s-3.72,0.675-5.169,1.902
		C12.74,2.959,12.626,3.001,12.508,3.001L12.508,3.001z"/>
	<path d="M19.97,8.442c-0.076,0-0.149-0.017-0.218-0.05c-0.541-0.263-1.149-0.402-1.758-0.402c-0.462,0-0.915,0.078-1.344,0.231
		C16.596,8.24,16.54,8.25,16.483,8.25c-0.211,0-0.4-0.133-0.471-0.332c-0.092-0.26,0.044-0.547,0.303-0.639
		c0.538-0.192,1.103-0.289,1.68-0.289c0.76,0,1.519,0.174,2.195,0.502c0.248,0.121,0.351,0.42,0.231,0.668
		C20.337,8.331,20.161,8.442,19.97,8.442z"/>
	<path d="M21.756,5.688c-0.104,0-0.204-0.032-0.289-0.092c-1.016-0.719-2.217-1.099-3.472-1.099c-1.046,0-2.075,0.272-2.976,0.787
		c-0.076,0.043-0.161,0.066-0.248,0.066c-0.179,0-0.346-0.097-0.435-0.252c-0.066-0.116-0.083-0.251-0.048-0.38
		c0.035-0.129,0.118-0.236,0.234-0.302c1.052-0.601,2.252-0.919,3.472-0.919c1.464,0,2.864,0.443,4.05,1.282
		c0.225,0.16,0.279,0.472,0.119,0.697C22.07,5.609,21.917,5.688,21.756,5.688z"/>
</g>
</svg>
