<?xml version="1.0" encoding="utf-8"?>
<!-- Generator: Adobe Illustrator 22.1.0, SVG Export Plug-In . SVG Version: 6.00 Build 0)  -->
<svg version="1.1" id="Layer_1" xmlns="http://www.w3.org/2000/svg" xmlns:xlink="http://www.w3.org/1999/xlink" x="0px" y="0px"
	 viewBox="0 0 24 24" style="enable-background:new 0 0 24 24;" xml:space="preserve">
<g>
	<title>delivery-drone</title>
	<path d="M7.5,23.5C6.673,23.5,6,22.827,6,22v-7c0-0.827,0.673-1.5,1.5-1.5h9c0.827,0,1.5,0.673,1.5,1.5v7
		c0,0.827-0.673,1.5-1.5,1.5H7.5z M7.5,14.5C7.224,14.5,7,14.724,7,15v7c0,0.276,0.224,0.5,0.5,0.5h9c0.276,0,0.5-0.224,0.5-0.5v-7
		c0-0.276-0.224-0.5-0.5-0.5H14v4c0,0.203-0.121,0.385-0.309,0.462C13.631,18.987,13.566,19,13.5,19
		c-0.134,0-0.259-0.052-0.354-0.146L12,17.707l-1.146,1.146C10.759,18.948,10.633,19,10.5,19c-0.066,0-0.13-0.013-0.192-0.038
		C10.121,18.885,10,18.703,10,18.5v-4H7.5z M12,16.5c0.134,0,0.259,0.052,0.354,0.146L13,17.293V14.5h-2v2.793l0.646-0.646
		C11.741,16.552,11.866,16.5,12,16.5z"/>
	<path d="M12,10c-0.827,0-1.5-0.673-1.5-1.5S11.173,7,12,7s1.5,0.673,1.5,1.5S12.827,10,12,10z M12,8c-0.276,0-0.5,0.224-0.5,0.5
		S11.724,9,12,9c0.276,0,0.5-0.224,0.5-0.5S12.275,8,12,8z"/>
	<path d="M19.179,15.5c-0.045,0-0.091-0.006-0.135-0.019c-0.267-0.077-0.421-0.354-0.346-0.619l0.416-1.456
		c0.008-0.029,0.016-0.058,0.022-0.086c0.179-0.806-0.332-1.609-1.139-1.788l-2.805-0.627C14.436,11.907,13.255,12.5,12,12.5
		c-1.255,0-2.437-0.593-3.193-1.595l-2.804,0.627c-0.391,0.087-0.725,0.321-0.94,0.659c-0.215,0.338-0.285,0.74-0.198,1.13
		c0.006,0.029,0.013,0.057,0.021,0.084l0.416,1.457c0.076,0.265-0.078,0.542-0.343,0.618C4.912,15.494,4.866,15.5,4.821,15.5
		c-0.222,0-0.42-0.149-0.481-0.363l-0.416-1.456c-0.013-0.046-0.025-0.094-0.036-0.142c-0.145-0.652-0.028-1.321,0.331-1.884
		c0.358-0.563,0.914-0.954,1.566-1.099l2.508-0.561C8.098,9.518,8,9.016,8,8.5c0-0.197,0.015-0.395,0.044-0.591L6.3,7.4
		C5.24,7.091,4.5,6.104,4.5,5V2.401L0.391,1.488C0.261,1.459,0.15,1.381,0.078,1.269C0.006,1.156-0.017,1.022,0.012,0.891
		C0.062,0.665,0.268,0.5,0.5,0.5c0.036,0,0.073,0.004,0.108,0.012L4.5,1.377V1c0-0.276,0.224-0.5,0.5-0.5S5.5,0.724,5.5,1v0.377
		l3.892-0.865C9.427,0.504,9.464,0.5,9.5,0.5c0.233,0,0.438,0.165,0.488,0.391c0.029,0.13,0.005,0.264-0.066,0.377
		C9.85,1.381,9.739,1.459,9.608,1.488L5.5,2.401V5c0,0.662,0.444,1.255,1.08,1.44l1.738,0.507C8.941,5.474,10.392,4.5,12,4.5
		c1.608,0,3.059,0.974,3.682,2.447L17.42,6.44C18.056,6.255,18.5,5.662,18.5,5V2.401l-4.108-0.913
		c-0.269-0.06-0.439-0.327-0.38-0.596C14.062,0.665,14.268,0.5,14.5,0.5c0.036,0,0.072,0.004,0.107,0.011L18.5,1.377V1
		c0-0.276,0.224-0.5,0.5-0.5s0.5,0.224,0.5,0.5v0.377l3.892-0.865C23.428,0.504,23.464,0.5,23.5,0.5
		c0.236,0,0.437,0.161,0.489,0.391c0.059,0.269-0.111,0.537-0.38,0.597L19.5,2.401V5c0,1.104-0.74,2.091-1.8,2.4l-1.744,0.509
		C15.985,8.105,16,8.303,16,8.5c0,0.516-0.099,1.017-0.293,1.495l2.508,0.561c1.345,0.299,2.197,1.638,1.897,2.983
		c-0.011,0.049-0.023,0.097-0.037,0.144l-0.415,1.454C19.598,15.351,19.401,15.5,19.179,15.5z M12,5.5c-1.654,0-3,1.346-3,3
		s1.346,3,3,3c1.654,0,3-1.346,3-3S13.654,5.5,12,5.5z"/>
</g>
</svg>
