<?xml version="1.0" encoding="utf-8"?>
<!-- Generator: Adobe Illustrator 22.1.0, SVG Export Plug-In . SVG Version: 6.00 Build 0)  -->
<svg version="1.1" id="Layer_1" xmlns="http://www.w3.org/2000/svg" xmlns:xlink="http://www.w3.org/1999/xlink" x="0px" y="0px"
	 viewBox="0 0 24 24" style="enable-background:new 0 0 24 24;" xml:space="preserve">
<g>
	<title>delivery-parachute-1</title>
	<path d="M8.703,24.005c-0.014,0-0.036-0.002-0.055-0.006H7.5c-0.551,0-1-0.448-1-1v-8c0-0.315,0.145-0.599,0.379-0.784
		l-5.056-4.213H1.8c-0.081,0-0.161-0.01-0.239-0.029C1.302,9.91,1.083,9.749,0.944,9.521c-0.139-0.228-0.18-0.497-0.116-0.757
		C1.85,4.579,5.085,1.343,9.271,0.321c0.895-0.218,1.813-0.329,2.727-0.329c5.317,0,9.911,3.608,11.173,8.773
		C23.19,8.843,23.2,8.923,23.2,9.003c0,0.551-0.449,1-1,1h-0.023l-5.056,4.213c0.234,0.184,0.379,0.469,0.379,0.784v8
		c0,0.552-0.448,1-1,1H8.76C8.75,24.001,8.728,24.005,8.703,24.005z M16.5,22.999v-2.291l-2.288,2.291H16.5z M12.798,22.999
		l3.702-3.707v-2.293h-0.615l-5.974,6H12.798z M7.5,22.999h1.001l5.974-6h-3.268L7.5,20.706V22.999z M7.5,19.292l2.293-2.293H7.5
		V19.292z M16.5,15.999v-1h-9v1h8.122c0.022-0.003,0.044-0.004,0.066-0.004s0.044,0.001,0.066,0.004H16.5z M15.818,13.999
		l4.797-3.997h-4.334l-2.398,3.997H15.818z M12.716,13.999l2.398-3.997h-6.23l2.398,3.997H12.716z M10.116,13.999l-2.398-3.997
		H3.384l4.796,3.997H10.116z M22.2,9.002c-0.665-2.725-2.352-5.027-4.749-6.484c-1.195-0.726-2.527-1.208-3.895-1.415l3.756,3.005
		c0.215,0.172,0.25,0.487,0.078,0.703c-0.096,0.119-0.238,0.188-0.391,0.188c-0.113,0-0.224-0.039-0.312-0.109L12.5,1.539v2.96
		c0,0.276-0.224,0.5-0.5,0.5c-0.276,0-0.5-0.224-0.5-0.5v-2.96l-4.188,3.35C7.224,4.96,7.113,4.999,7,4.999
		c-0.153,0-0.295-0.068-0.391-0.188C6.526,4.707,6.488,4.577,6.503,4.444s0.08-0.252,0.185-0.335l3.748-2.998
		c-0.314,0.047-0.624,0.108-0.926,0.182C5.687,2.226,2.733,5.18,1.799,9.002c0,0,14.229,0,14.231,0
		C16.032,9.002,22.2,9.002,22.2,9.002z"/>
</g>
</svg>
