<?xml version="1.0" encoding="utf-8"?>
<!-- Generator: Adobe Illustrator 22.1.0, SVG Export Plug-In . SVG Version: 6.00 Build 0)  -->
<svg version="1.1" id="Layer_1" xmlns="http://www.w3.org/2000/svg" xmlns:xlink="http://www.w3.org/1999/xlink" x="0px" y="0px"
	 viewBox="0 0 24 24" style="enable-background:new 0 0 24 24;" xml:space="preserve">
<g>
	<title>delivery-truck-5</title>
	<path d="M6.5,20C5.121,20,4,18.878,4,17.5S5.121,15,6.5,15S9,16.122,9,17.5S7.879,20,6.5,20z M6.5,16C5.673,16,5,16.673,5,17.5
		S5.673,19,6.5,19S8,18.327,8,17.5S7.327,16,6.5,16z"/>
	<path d="M19.5,20c-1.378,0-2.5-1.122-2.5-2.5s1.122-2.5,2.5-2.5s2.5,1.122,2.5,2.5S20.878,20,19.5,20z M19.5,16
		c-0.827,0-1.5,0.673-1.5,1.5s0.673,1.5,1.5,1.5s1.5-0.673,1.5-1.5S20.327,16,19.5,16z"/>
	<path d="M10.5,18c-0.276,0-0.5-0.224-0.5-0.5s0.224-0.5,0.5-0.5H15c0.276,0,0.5,0.224,0.5,0.5S15.276,18,15,18H10.5z"/>
	<path d="M1.5,18C0.673,18,0,17.327,0,16.5v-6C0,8.57,1.57,7,3.5,7H9V5.5C9,4.673,9.673,4,10.5,4h12C23.327,4,24,4.673,24,5.5v10
		c0,0.276-0.224,0.5-0.5,0.5S23,15.776,23,15.5V14H10v1.5c0,0.276-0.224,0.5-0.5,0.5S9,15.776,9,15.5V8H7v3.5
		C7,12.327,6.327,13,5.5,13H1v1.5h1.5C2.776,14.5,3,14.724,3,15s-0.224,0.5-0.5,0.5H1v1C1,16.776,1.224,17,1.5,17h1
		C2.776,17,3,17.224,3,17.5S2.776,18,2.5,18H1.5z M23,13V5.5C23,5.224,22.776,5,22.5,5h-12C10.224,5,10,5.224,10,5.5V13H23z M5.5,12
		C5.776,12,6,11.776,6,11.5V8H3.5C2.121,8,1,9.121,1,10.5V12H5.5z"/>
</g>
</svg>
