<?xml version="1.0" encoding="utf-8"?>
<!-- Generator: Adobe Illustrator 22.1.0, SVG Export Plug-In . SVG Version: 6.00 Build 0)  -->
<svg version="1.1" id="Layer_1" xmlns="http://www.w3.org/2000/svg" xmlns:xlink="http://www.w3.org/1999/xlink" x="0px" y="0px"
	 viewBox="0 0 24 24" style="enable-background:new 0 0 24 24;" xml:space="preserve">
<g>
	<title>delivery-person-motorcycle</title>
	<path d="M13.525,6c-1.654,0-3-1.346-3-3s1.346-3,3-3c1.269,0,2.405,0.813,2.826,2h1.674c0.276,0,0.5,0.224,0.5,0.5
		S18.301,3,18.025,3h-1.5C16.525,4.654,15.18,6,13.525,6z M11.525,3c0,1.103,0.897,2,2,2s2-0.897,2-2H11.525z M15.254,2
		c-0.353-0.61-1.01-1-1.729-1s-1.376,0.39-1.729,1H15.254z"/>
	<path d="M20.025,24c-1.654,0-3-1.346-3-3h-3.5c-0.827,0-1.5-0.673-1.5-1.5V19c0-1.103-0.897-2-2-2h-3.75
		c-1.241,0-2.25,1.009-2.25,2.25v1.25c0,0.276-0.224,0.5-0.5,0.5s-0.5-0.224-0.5-0.5v-1.25c0-1.792,1.458-3.25,3.25-3.25h7.75
		c0.276,0,0.5,0.224,0.5,0.5s-0.224,0.5-0.5,0.5h-1.768c0.489,0.545,0.768,1.256,0.768,2v0.5c0,0.276,0.224,0.5,0.5,0.5h6.5v-7.5h-1
		c-0.276,0-0.5-0.224-0.5-0.5c0-0.276,0.224-0.5,0.5-0.5h1.5c0.276,0,0.5,0.224,0.5,0.5v0.191l0.552-0.276
		c0.139-0.069,0.294-0.106,0.447-0.106c0.107,0,0.214,0.017,0.316,0.052c0.253,0.084,0.459,0.262,0.578,0.501
		c0.069,0.138,0.106,0.293,0.106,0.448v1.882c0,0.552-0.448,1-1,1c-0.155,0-0.31-0.037-0.448-0.106l-0.552-0.276v1.728
		c1.447,0.21,2.635,1.317,2.93,2.762c0.054,0.261,0.002,0.528-0.145,0.751c-0.147,0.223-0.373,0.375-0.635,0.428
		c-0.051,0.01-0.101,0.016-0.15,0.019c0,0,0,0.001,0,0.001C23.025,22.654,21.68,24,20.025,24z M18.025,21.001
		c0,1.102,0.897,1.999,2,1.999s2-0.897,2-2L18.025,21.001C18.025,21,18.025,21.001,18.025,21.001z M22.974,20
		c-0.199-0.981-0.982-1.749-1.949-1.949V20H22.974z M22.025,14.691v-2.132l0,0.25l-1,0.5v0.882L22.025,14.691z"/>
	<path d="M1.525,15c-0.827,0-1.5-0.673-1.5-1.5v-5c0-0.827,0.673-1.5,1.5-1.5h6c0.827,0,1.5,0.673,1.5,1.5v5
		C9.025,14.327,1.525,15,1.525,15z M1.525,8c-0.276,0-0.5,0.224-0.5,0.5v5c0,0.276,0.224,0.5,0.5,0.5h6c0.276,0,0.5-0.224,0.5-0.5
		v-5c0-0.276-0.224-0.5-0.5-0.5h-1.5v2.5c0,0.276-0.224,0.5-0.5,0.5h-2c-0.276,0-0.5-0.224-0.5-0.5V8H1.525z M5.025,10V8h-1v2H5.025
		z"/>
	<path d="M16.525,19.505c-0.827,0-1.5-0.673-1.5-1.5c0.016-0.871-0.119-1.723-0.403-2.537c-0.24-0.3-0.595-0.471-0.981-0.471
		c-0.028,0-0.056,0.001-0.083,0.003L12.025,15c-1.103,0-2-0.897-2-2V9.5c0-1.379,1.121-2.5,2.5-2.5
		c0.576,0.008,1.14,0.107,1.679,0.293l5.025,2.25c0.122,0.055,0.215,0.154,0.263,0.278c0.048,0.125,0.043,0.261-0.011,0.383
		c-0.081,0.179-0.26,0.295-0.457,0.295c-0.07,0-0.139-0.015-0.204-0.043l-4.984-2.234C13.438,8.086,12.974,8.007,12.518,8
		c-0.821,0-1.493,0.673-1.493,1.5V13c0,0.552,0.449,1,1,1h1.5c0.033-0.003,0.083-0.005,0.134-0.005c0.713,0,1.392,0.352,1.815,0.941
		c0.026,0.036,0.048,0.077,0.064,0.121c0.342,0.952,0.506,1.947,0.487,2.957c0,0.269,0.224,0.491,0.5,0.491s0.5-0.224,0.5-0.5V14.25
		c0-0.926-1.258-1.75-2.25-1.75h-0.25c-0.276,0-0.5-0.224-0.5-0.5v-1.25c0-0.276,0.224-0.5,0.5-0.5s0.5,0.224,0.5,0.5v0.759
		c1.708,0.126,3,1.528,3,2.741v3.755C18.025,18.832,17.352,19.505,16.525,19.505z"/>
	<path d="M8.025,24c-1.654,0-3-1.346-3-3s1.346-3,3-3s3,1.346,3,3S9.679,24,8.025,24z M8.025,19c-1.103,0-2,0.897-2,2s0.897,2,2,2
		s2-0.897,2-2S9.128,19,8.025,19z"/>
</g>
</svg>
