<?xml version="1.0" encoding="utf-8"?>
<!-- Generator: Adobe Illustrator 22.1.0, SVG Export Plug-In . SVG Version: 6.00 Build 0)  -->
<svg version="1.1" id="Layer_1" xmlns="http://www.w3.org/2000/svg" xmlns:xlink="http://www.w3.org/1999/xlink" x="0px" y="0px"
	 viewBox="0 0 24 24" style="enable-background:new 0 0 24 24;" xml:space="preserve">
<g>
	<title>delivery-truck-4</title>
	<path d="M16,21c-1.654,0-3-1.346-3-3s1.346-3,3-3s3,1.346,3,3S17.654,21,16,21z M16,16c-1.103,0-2,0.897-2,2s0.897,2,2,2
		s2-0.897,2-2S17.103,16,16,16z"/>
	<path d="M5,21c-1.654,0-3-1.346-3-3s1.346-3,3-3s3,1.346,3,3S6.654,21,5,21z M5,16c-1.103,0-2,0.897-2,2s0.897,2,2,2s2-0.897,2-2
		S6.103,16,5,16z"/>
	<path d="M9.5,18C9.224,18,9,17.776,9,17.5S9.224,17,9.5,17h2c0.276,0,0.5,0.224,0.5,0.5S11.776,18,11.5,18H9.5z"/>
	<path d="M20.5,19c-0.276,0-0.5-0.224-0.5-0.5s0.224-0.5,0.5-0.5h2c0.276,0,0.5-0.224,0.5-0.5V17h-1c-0.276,0-0.5-0.224-0.5-0.5
		S21.724,16,22,16h1v-3c0,0-3.501,0-3.501,0c-0.406,0-0.77-0.148-1.048-0.416c-0.286-0.275-0.447-0.645-0.454-1.042
		c0-0.047,0.001-0.093,0.004-0.138L18,8l-2,0v5.641c0,0.276-0.224,0.5-0.5,0.5s-0.5-0.224-0.5-0.5V13H1v4.406
		c0,0.276-0.224,0.5-0.5,0.5S0,17.682,0,17.406V4.5C0,3.673,0.673,3,1.5,3h13C15.327,3,16,3.673,16,4.5V7h3.5
		c2.531,0.083,4.504,2.122,4.5,4.642V17.5c0,0.827-0.673,1.5-1.5,1.5H20.5z M19,11.441c-0.002,0.046-0.003,0.064-0.003,0.083
		c0.002,0.13,0.055,0.251,0.148,0.341c0.092,0.089,0.21,0.134,0.353,0.136H23v-0.359C23.003,9.664,21.459,8.065,19.483,8L19,8
		V11.441z M15,12V4.5C15,4.224,14.776,4,14.5,4h-13C1.224,4,1,4.224,1,4.5V12h2V6.5C3,6.224,3.224,6,3.5,6S4,6.224,4,6.5V12h2V6.5
		C6,6.224,6.224,6,6.5,6S7,6.224,7,6.5V12h2V6.5C9,6.224,9.224,6,9.5,6S10,6.224,10,6.5V12h2V6.5C12,6.224,12.224,6,12.5,6
		C12.776,6,13,6.224,13,6.5V12H15z"/>
</g>
</svg>
