<?xml version="1.0" encoding="utf-8"?>
<!-- Generator: Adobe Illustrator 22.1.0, SVG Export Plug-In . SVG Version: 6.00 Build 0)  -->
<svg version="1.1" id="Layer_1" xmlns="http://www.w3.org/2000/svg" xmlns:xlink="http://www.w3.org/1999/xlink" x="0px" y="0px"
	 viewBox="0 0 24 24" style="enable-background:new 0 0 24 24;" xml:space="preserve">
<g>
	<title>delivery-truck-cargo</title>
	<path d="M16,21c-1.654,0-3-1.346-3-3s1.346-3,3-3s3,1.346,3,3S17.654,21,16,21z M16,16c-1.103,0-2,0.897-2,2s0.897,2,2,2
		s2-0.897,2-2S17.103,16,16,16z"/>
	<path d="M5,21c-1.654,0-3-1.346-3-3s1.346-3,3-3s3,1.346,3,3S6.654,21,5,21z M5,16c-1.103,0-2,0.897-2,2s0.897,2,2,2s2-0.897,2-2
		S6.103,16,5,16z"/>
	<path d="M9.5,18C9.224,18,9,17.776,9,17.5S9.224,17,9.5,17h2c0.276,0,0.5,0.224,0.5,0.5S11.776,18,11.5,18H9.5z"/>
	<path d="M20.5,19c-0.276,0-0.5-0.224-0.5-0.5s0.224-0.5,0.5-0.5h2c0.276,0,0.5-0.224,0.5-0.5V17h-1c-0.276,0-0.5-0.224-0.5-0.5
		S21.724,16,22,16h1v-3c0,0-3.501,0-3.501,0c-0.406,0-0.77-0.148-1.048-0.416c-0.286-0.275-0.447-0.645-0.454-1.042
		c0-0.047,0.001-0.093,0.004-0.138L18,8h-2v5.5c0,0.276-0.224,0.5-0.5,0.5S15,13.776,15,13.5v-9C15,4.224,14.776,4,14.5,4h-13
		C1.224,4,1,4.224,1,4.5V10h3V6.5C4,6.224,4.224,6,4.5,6h6C10.776,6,11,6.224,11,6.5V10h1.5c0.276,0,0.5,0.224,0.5,0.5V15
		c0,0.276-0.224,0.5-0.5,0.5c-0.276,0-0.5-0.224-0.5-0.5v-4h-2v2.5c0,0.276-0.224,0.5-0.5,0.5S9,13.776,9,13.5V11H7v3
		c0,0.276-0.224,0.5-0.5,0.5S6,14.276,6,14v-3H4v2.5C4,13.776,3.776,14,3.5,14S3,13.776,3,13.5V11H1v6.5C1,17.776,0.776,18,0.5,18
		S0,17.776,0,17.5v-13C0,3.673,0.673,3,1.5,3h13C15.327,3,16,3.673,16,4.5V7h3.5c2.474,0.008,4.492,2.026,4.5,4.498V17.5
		c0,0.827-0.673,1.5-1.5,1.5H20.5z M19,11.441c-0.002,0.046-0.003,0.064-0.003,0.083c0.002,0.13,0.055,0.251,0.148,0.341
		c0.092,0.089,0.21,0.134,0.353,0.136H23v-0.5c-0.006-1.923-1.577-3.494-3.501-3.5H19V11.441z M10,10V7H8v1.5C8,8.776,7.776,9,7.5,9
		S7,8.776,7,8.5V7H5v3H10z"/>
</g>
</svg>
