<?xml version="1.0" encoding="utf-8"?>
<!-- Generator: Adobe Illustrator 22.1.0, SVG Export Plug-In . SVG Version: 6.00 Build 0)  -->
<svg version="1.1" id="Layer_1" xmlns="http://www.w3.org/2000/svg" xmlns:xlink="http://www.w3.org/1999/xlink" x="0px" y="0px"
	 viewBox="0 0 24 24" style="enable-background:new 0 0 24 24;" xml:space="preserve">
<g>
	<title>security-officer-scanner</title>
	<path d="M17,10.5c-1.378,0-2.5-1.121-2.5-2.5s1.122-2.5,2.5-2.5s2.5,1.121,2.5,2.5S18.378,10.5,17,10.5z M17,6.5
		c-0.827,0-1.5,0.673-1.5,1.5s0.673,1.5,1.5,1.5s1.5-0.673,1.5-1.5S17.827,6.5,17,6.5z"/>
	<path d="M3.5,24C2.673,24,2,23.327,2,22.5V19H1.5C0.673,19,0,18.327,0,17.5V14c0-1.154,0.785-2.152,1.908-2.427
		c0.001,0,0.024-0.006,0.025-0.006C2.124,11.523,2.315,11.5,2.5,11.5h4C7.879,11.5,9,12.622,9,14v3.5C9,18.327,8.327,19,7.5,19H7
		v3.5C7,23.327,6.327,24,5.5,24H3.5z M1.878,12.636C1.347,12.878,1,13.407,1,14v3.5C1,17.776,1.224,18,1.5,18h1
		C2.776,18,3,18.224,3,18.5v4C3,22.776,3.224,23,3.5,23h2C5.776,23,6,22.776,6,22.5v-4c0-0.204,0.122-0.379,0.297-0.457
		L1.878,12.636z M7.552,17.997C7.803,17.971,8,17.758,8,17.5V14c0-0.827-0.673-1.5-1.5-1.5H3.058L7.552,17.997z"/>
	<path d="M23.5,24c-0.276,0-0.5-0.224-0.5-0.5v-19H11v19c0,0.276-0.224,0.5-0.5,0.5S10,23.776,10,23.5v-22C10,0.673,10.673,0,11.5,0
		h11C23.327,0,24,0.673,24,1.5v22C24,23.776,23.776,24,23.5,24z M23,3.5v-2C23,1.224,22.776,1,22.5,1h-11C11.224,1,11,1.224,11,1.5
		v2H23z"/>
	<circle cx="15.75" cy="2.25" r="0.75"/>
	<circle cx="18.75" cy="2.25" r="0.75"/>
	<path d="M4.5,10.5C3.121,10.5,2,9.379,2,8V7.118l-0.24-0.48C1.528,6.173,1.695,5.6,2.14,5.333l1.846-1.108
		C4.141,4.132,4.319,4.083,4.5,4.083c0.181,0,0.358,0.049,0.514,0.142l1.844,1.108c0.445,0.267,0.612,0.84,0.38,1.304L7,7.117V8
		C7,9.379,5.879,10.5,4.5,10.5z M3,8c0,0.827,0.673,1.5,1.5,1.5S6,8.827,6,8V7.5H3V8z M6.19,6.5l0.152-0.308L4.5,5.083L2.654,6.191
		L2.809,6.5H6.19z"/>
	<path d="M16,24c-0.827,0-1.5-0.673-1.5-1.5V19H14c-0.827,0-1.5-0.673-1.5-1.5V14c0-1.378,1.122-2.5,2.5-2.5h4
		c1.378,0,2.5,1.122,2.5,2.5v3.5c0,0.827-0.673,1.5-1.5,1.5h-0.5v3.5c0,0.827-0.673,1.5-1.5,1.5H16z M15,12.5
		c-0.827,0-1.5,0.673-1.5,1.5v3.5c0,0.276,0.224,0.5,0.5,0.5h1c0.276,0,0.5,0.224,0.5,0.5v4c0,0.276,0.224,0.5,0.5,0.5h2
		c0.276,0,0.5-0.224,0.5-0.5v-4c0-0.276,0.224-0.5,0.5-0.5h1c0.276,0,0.5-0.224,0.5-0.5V14c0-0.827-0.673-1.5-1.5-1.5H15z"/>
</g>
</svg>
