<?xml version="1.0" encoding="utf-8"?>
<!-- Generator: Adobe Illustrator 22.1.0, SVG Export Plug-In . SVG Version: 6.00 Build 0)  -->
<svg version="1.1" id="Layer_1" xmlns="http://www.w3.org/2000/svg" xmlns:xlink="http://www.w3.org/1999/xlink" x="0px" y="0px"
	 viewBox="0 0 24 24" style="enable-background:new 0 0 24 24;" xml:space="preserve">
<g>
	<title>security-officer-camera</title>
	<path d="M19.996,9.668c-0.661,0-1.288-0.212-1.814-0.612c-0.98-0.747-1.386-1.991-1.084-3.141l-1.375,0.687
		c-0.069,0.035-0.146,0.053-0.223,0.053c-0.19,0-0.362-0.106-0.447-0.276c-0.124-0.247-0.023-0.548,0.223-0.671l1.579-0.79
		L15.921,2.74c-0.217-0.507,0.019-1.096,0.525-1.313c0.125-0.054,0.257-0.081,0.393-0.081c0.07,0,0.141,0.007,0.21,0.022
		l5.425,1.162c0.539,0.116,0.884,0.648,0.768,1.188c-0.018,0.084-0.046,0.164-0.084,0.239l-0.585,1.173
		c0.627,1.048,0.559,2.379-0.186,3.357C21.814,9.238,20.943,9.668,19.996,9.668z M18.275,5.655
		c-0.511,0.866-0.299,1.988,0.512,2.606c0.351,0.267,0.769,0.408,1.209,0.408c0.632,0,1.213-0.287,1.594-0.788
		c0.495-0.65,0.543-1.529,0.133-2.226H18.275z M21.691,4.655l0.572-1.146l-5.422-1.163l0.989,2.309H21.691z"/>
	<path d="M0.5,22.655c-0.276,0-0.5-0.224-0.5-0.5s0.224-0.5,0.5-0.5h2.551c0.2-0.973,0.976-1.749,1.949-1.949v-2.051H4.5
		c-1.379,0-2.5-1.122-2.5-2.5s1.121-2.5,2.5-2.5h2c1.379,0,2.5,1.122,2.5,2.5s-1.121,2.5-2.5,2.5H6v2.051
		c0.973,0.2,1.749,0.976,1.949,1.949h8.05v-4.203l-1.873,2.37c-0.359,0.519-0.97,0.836-1.625,0.836c-0.41,0-0.805-0.124-1.141-0.357
		c-0.439-0.304-0.734-0.762-0.829-1.288s0.02-1.058,0.325-1.498l4.511-6.015c0.364-0.528,0.976-0.848,1.63-0.848l1.22,0
		c0.35,0,0.678,0.186,0.858,0.486l0.926,1.544l0.925-1.541c0.179-0.3,0.508-0.486,0.858-0.486H22.5c0.402,0,0.793,0.067,1.167,0.2
		c0.126,0.044,0.227,0.135,0.284,0.256c0.057,0.121,0.064,0.256,0.02,0.382c-0.071,0.199-0.26,0.333-0.472,0.333
		c-0.057,0-0.113-0.01-0.167-0.029c-0.272-0.096-0.525-0.143-0.773-0.143l-0.776,0.001l-1.354,2.255
		c-0.09,0.15-0.254,0.243-0.429,0.243s-0.339-0.093-0.429-0.243l-1.355-2.259c0,0-1.179,0-1.18,0c-0.359,0-0.673,0.161-0.859,0.431
		l-4.512,6.016c-0.144,0.208-0.199,0.471-0.152,0.735c0.048,0.263,0.195,0.492,0.415,0.645c0.168,0.116,0.365,0.178,0.569,0.178
		c0.33,0,0.638-0.161,0.825-0.43l2.785-3.525c0.009-0.012,0.021-0.024,0.033-0.035c0.027-0.027,0.052-0.046,0.075-0.062
		c0.022-0.016,0.042-0.03,0.064-0.04c0.035-0.018,0.068-0.026,0.09-0.031c0.031-0.008,0.054-0.013,0.076-0.016
		c0.018-0.004,0.038-0.006,0.054-0.006c0.033,0,0.06,0.006,0.076,0.01c0.025,0.003,0.055,0.009,0.087,0.02
		c0.032,0.011,0.059,0.025,0.085,0.041c0,0,0,0,0,0c0.003,0,0.032,0.013,0.062,0.037c0.012,0.01,0.026,0.023,0.038,0.037
		c0.013,0.014,0.027,0.03,0.041,0.048c0.018,0.024,0.042,0.054,0.062,0.095c0.006,0.013,0.018,0.048,0.022,0.061
		c0.01,0.032,0.019,0.067,0.023,0.107c0.002,0.015,0.004,0.03,0.004,0.043v5.643H23.5c0.276,0,0.5,0.224,0.5,0.5s-0.224,0.5-0.5,0.5
		H0.5z M6.912,21.655c-0.209-0.586-0.772-1-1.412-1s-1.203,0.414-1.412,1H6.912z M4.5,13.655c-0.827,0-1.5,0.673-1.5,1.5
		s0.673,1.5,1.5,1.5h2c0.827,0,1.5-0.673,1.5-1.5s-0.673-1.5-1.5-1.5H4.5z"/>
	<path d="M5.5,15.905c-0.414,0-0.75-0.336-0.75-0.75c0-0.391,0.307-0.718,0.698-0.746c0.003,0,0.032-0.002,0.033-0.002
		c0.434,0,0.769,0.336,0.769,0.748C6.25,15.568,5.914,15.905,5.5,15.905z"/>
</g>
</svg>
