<?xml version="1.0" encoding="utf-8"?>
<!-- Generator: Adobe Illustrator 22.1.0, SVG Export Plug-In . SVG Version: 6.00 Build 0)  -->
<svg version="1.1" id="Layer_1" xmlns="http://www.w3.org/2000/svg" xmlns:xlink="http://www.w3.org/1999/xlink" x="0px" y="0px"
	 viewBox="0 0 24 24" style="enable-background:new 0 0 24 24;" xml:space="preserve">
<g>
	<title>security-officer-plant</title>
	<path d="M0.5,22.655c-0.276,0-0.5-0.224-0.5-0.5s0.224-0.5,0.5-0.5H5v-1.86c-0.76-1.246-2.076-2.044-3.533-2.141
		c-0.275-0.019-0.484-0.257-0.466-0.532c0.018-0.266,0.235-0.467,0.505-0.467c0.005,0,0.021,0,0.027,0.001
		C2.839,16.742,4.071,17.298,5,18.203v-1.365c-0.631-0.736-1.54-1.166-2.509-1.184C2.216,15.65,1.995,15.422,2,15.146
		c0.005-0.275,0.226-0.491,0.503-0.491c0.906,0.016,1.773,0.31,2.497,0.836v-1.198c-0.404-0.621-1.49-0.637-1.501-0.637
		C3.225,13.655,3,13.43,3,13.155s0.224-0.5,0.5-0.5c0.038,0,0.801,0.005,1.5,0.361v-0.861c0-0.276,0.224-0.5,0.5-0.5
		s0.5,0.224,0.5,0.5v0.861c0.699-0.356,1.462-0.361,1.5-0.361c0.275,0,0.5,0.224,0.5,0.499c0,0.275-0.223,0.5-0.499,0.501
		c-0.01,0-1.098,0.019-1.501,0.637v1.198c0.724-0.526,1.59-0.819,2.491-0.836C8.77,14.657,8.995,14.877,9,15.146
		c0.002,0.134-0.047,0.26-0.14,0.356c-0.093,0.096-0.217,0.15-0.351,0.153C7.541,15.672,6.631,16.103,6,16.838v1.365
		c0.929-0.905,2.161-1.461,3.467-1.547c0.005,0,0.026-0.001,0.031-0.001c0.263,0,0.483,0.205,0.501,0.467
		c0.018,0.275-0.191,0.514-0.466,0.532C8.076,17.75,6.76,18.549,6,19.794v1.86h9.999v-4.203l-1.873,2.37
		c-0.289,0.419-0.743,0.709-1.27,0.804c-0.118,0.021-0.24,0.032-0.36,0.032c-0.407,0-0.8-0.124-1.137-0.358
		c-0.439-0.304-0.734-0.762-0.829-1.288c-0.095-0.526,0.02-1.058,0.325-1.497l4.511-6.015c0.364-0.528,0.975-0.848,1.63-0.848
		l1.22,0c0.35,0,0.678,0.186,0.858,0.486L20,12.681l0.926-1.543c0.179-0.3,0.508-0.486,0.858-0.486H22.5
		c0.402,0,0.793,0.067,1.167,0.2c0.126,0.044,0.227,0.135,0.284,0.256c0.057,0.121,0.064,0.256,0.02,0.382
		c-0.071,0.199-0.26,0.333-0.471,0.333c-0.057,0-0.114-0.01-0.167-0.029c-0.27-0.096-0.531-0.142-0.795-0.142l-0.754,0l-0.925,1.543
		c-0.084,0.141-0.203,0.26-0.344,0.344c-0.155,0.093-0.332,0.142-0.512,0.142c-0.082,0-0.163-0.01-0.243-0.03
		c-0.26-0.065-0.478-0.227-0.615-0.457l-0.926-1.542l-1.18,0c-0.36,0-0.673,0.161-0.859,0.431L11.666,18.1
		c-0.144,0.208-0.199,0.471-0.152,0.734c0.048,0.263,0.195,0.493,0.415,0.645c0.168,0.117,0.365,0.178,0.569,0.178
		c0.06,0,0.121-0.005,0.18-0.016c0.262-0.048,0.492-0.195,0.644-0.415l2.785-3.525c0.009-0.012,0.021-0.024,0.033-0.035
		c0.027-0.027,0.052-0.046,0.075-0.062c0.022-0.016,0.04-0.028,0.06-0.039c0.033-0.016,0.062-0.025,0.094-0.033
		c0.031-0.008,0.054-0.013,0.076-0.016c0.018-0.004,0.038-0.006,0.054-0.006c0.033,0,0.06,0.006,0.076,0.01
		c0.025,0.003,0.055,0.009,0.087,0.02c0.032,0.011,0.059,0.025,0.085,0.041c0,0,0,0,0,0c0.003,0,0.032,0.013,0.062,0.037
		c0.012,0.01,0.026,0.023,0.038,0.037c0.013,0.014,0.027,0.03,0.041,0.048c0.019,0.024,0.042,0.054,0.062,0.097
		c0.006,0.012,0.018,0.047,0.021,0.06c0.01,0.032,0.019,0.066,0.023,0.107c0.002,0.015,0.004,0.03,0.004,0.043v5.643H23.5
		c0.276,0,0.5,0.224,0.5,0.5s-0.224,0.5-0.5,0.5H0.5z"/>
	<path d="M19.996,9.668c-0.661,0-1.288-0.212-1.814-0.612c-0.98-0.747-1.386-1.991-1.084-3.141l-1.375,0.687
		c-0.069,0.035-0.146,0.053-0.223,0.053c-0.19,0-0.362-0.106-0.447-0.276c-0.124-0.247-0.023-0.548,0.223-0.671l1.579-0.79
		l-0.934-2.179c-0.217-0.507,0.019-1.096,0.525-1.313c0.125-0.054,0.258-0.081,0.393-0.081c0.07,0,0.14,0.007,0.209,0.022
		l5.425,1.162c0.26,0.056,0.484,0.21,0.629,0.434c0.146,0.224,0.195,0.492,0.139,0.752c-0.017,0.082-0.045,0.162-0.083,0.237
		l-0.587,1.176c0.627,1.048,0.559,2.379-0.186,3.357C21.814,9.238,20.943,9.668,19.996,9.668z M18.275,5.655
		c-0.511,0.866-0.299,1.988,0.512,2.606c0.351,0.267,0.769,0.408,1.209,0.408c0.632,0,1.213-0.287,1.594-0.787
		c0.495-0.65,0.543-1.529,0.133-2.226H18.275z M21.691,4.655l0.573-1.148l-5.423-1.162l0.989,2.31H21.691z"/>
</g>
</svg>
