<?xml version="1.0" encoding="utf-8"?>
<!-- Generator: Adobe Illustrator 22.1.0, SVG Export Plug-In . SVG Version: 6.00 Build 0)  -->
<svg version="1.1" id="Layer_1" xmlns="http://www.w3.org/2000/svg" xmlns:xlink="http://www.w3.org/1999/xlink" x="0px" y="0px"
	 viewBox="0 0 24 24" style="enable-background:new 0 0 24 24;" xml:space="preserve">
<g>
	<title>security-officer-gate</title>
	<path d="M13.497,14.958c-0.66,0-1.287-0.211-1.813-0.611c-0.981-0.747-1.387-1.991-1.085-3.142L9.69,11.658
		c-0.069,0.034-0.146,0.053-0.223,0.053c-0.191,0-0.362-0.106-0.448-0.276c-0.06-0.119-0.069-0.255-0.027-0.382
		c0.042-0.127,0.131-0.229,0.251-0.289l1.145-0.572L9.526,7.603C9.471,7.439,9.506,7.255,9.618,7.123
		C9.713,7.01,9.852,6.945,10,6.945c0.025,0,0.05,0.002,0.076,0.006l6.501,1c0.157,0.024,0.294,0.123,0.368,0.264
		c0.073,0.142,0.074,0.311,0.003,0.454l-0.875,1.75c0.628,1.048,0.56,2.379-0.184,3.358C15.316,14.527,14.445,14.958,13.497,14.958z
		 M11.776,10.945c-0.511,0.866-0.298,1.988,0.513,2.606c0.35,0.267,0.768,0.407,1.208,0.407c0.632,0,1.213-0.287,1.594-0.788
		c0.495-0.65,0.542-1.529,0.133-2.225H11.776z M15.191,9.945l0.555-1.11l-5.013-0.771l0.627,1.881H15.191z"/>
	<path d="M10.5,23.948c-0.014,0-0.033-0.002-0.05-0.005H1.5c-0.827,0-1.5-0.673-1.5-1.5V6.573c0.001-0.574,0.336-1.104,0.854-1.351
		l10.5-5.022C11.558,0.102,11.775,0.053,12,0.053c0.225,0,0.442,0.049,0.647,0.147l10.5,5.022C23.665,5.47,24,6.001,24,6.575v15.868
		c0,0.827-0.673,1.5-1.5,1.5h-3.968c-0.011,0.001-0.022,0.002-0.032,0.002c-0.011,0-0.023-0.001-0.036-0.003l-2.932,0
		c-0.011,0.001-0.022,0.002-0.032,0.002c-0.011,0-0.023-0.001-0.036-0.003l-4.911,0C10.538,23.946,10.52,23.948,10.5,23.948z
		 M22.5,22.943c0.276,0,0.5-0.224,0.5-0.5V6.575c0-0.191-0.112-0.368-0.285-0.451l-10.5-5.022C12.147,1.07,12.075,1.053,12,1.053
		s-0.147,0.017-0.216,0.049l-10.5,5.022C1.112,6.207,1,6.383,1,6.574v15.869c0,0.276,0.224,0.5,0.5,0.5H10V19.74
		c-0.002-0.212-0.139-0.406-0.342-0.48c-0.015-0.005-0.033-0.013-0.05-0.021l-3.319-1.66c-2.467-1.237-3.468-4.245-2.237-6.709
		l0.28-0.559c0.334-0.707,1.061-1.167,1.849-1.167c0.183,0,0.365,0.025,0.543,0.073c0.118,0.036,0.219,0.076,0.318,0.125
		c0.479,0.237,0.837,0.646,1.008,1.152C8.221,11,8.185,11.542,7.948,12.021l-0.316,0.638c-0.12,0.24-0.14,0.512-0.055,0.765
		c0.084,0.253,0.262,0.459,0.501,0.578l0.889,0.444c1.069,0.528,2.214,0.848,3.404,0.949c0.163,0.014,0.31,0.107,0.392,0.25
		l0.738,1.292l0.709-1.24c0.089-0.155,0.255-0.252,0.434-0.252H15c2.206,0,4,1.794,4,4v3.498H22.5z M18,22.943v-3.498
		c0-1.654-1.346-3-3-3h-0.067l-0.999,1.748c-0.089,0.155-0.255,0.252-0.434,0.252s-0.345-0.097-0.434-0.252l-1.044-1.827
		c-1.22-0.135-2.397-0.479-3.501-1.024l-0.891-0.445c-0.478-0.239-0.834-0.65-1.003-1.157s-0.13-1.049,0.109-1.527l0.315-0.636
		c0.118-0.239,0.136-0.51,0.05-0.763c-0.086-0.253-0.264-0.458-0.503-0.576c-0.049-0.024-0.1-0.044-0.152-0.061
		c-0.081-0.022-0.173-0.034-0.264-0.034c-0.404,0-0.777,0.237-0.951,0.605l-0.285,0.569c-0.986,1.972-0.184,4.38,1.789,5.366
		c0.004,0.002,3.294,1.648,3.294,1.648c0.576,0.223,0.965,0.786,0.97,1.404v3.207h4v-3.498c0-0.276,0.224-0.5,0.5-0.5
		s0.5,0.224,0.5,0.5v3.498H18z"/>
</g>
</svg>
