<?xml version="1.0" encoding="utf-8"?>
<!-- Generator: Adobe Illustrator 22.1.0, SVG Export Plug-In . SVG Version: 6.00 Build 0)  -->
<svg version="1.1" id="Light" xmlns="http://www.w3.org/2000/svg" xmlns:xlink="http://www.w3.org/1999/xlink" x="0px" y="0px"
	 viewBox="0 0 24 24" style="enable-background:new 0 0 24 24;" xml:space="preserve">
<g>
	<title>real-estate-market-building-increase</title>
	<path d="M0.5,24C0.224,24,0,23.776,0,23.5V13.25c0-0.267,0.104-0.518,0.292-0.707C0.481,12.354,0.733,12.25,1,12.25
		c0.134,0,0.263,0.026,0.385,0.077L6,14.25V12.5C6,12.224,6.224,12,6.5,12S7,12.224,7,12.5V17h3c0.551,0,1,0.448,1,1v5h3V7
		c0-0.551,0.448-1,1-1h2c0.552,0,1,0.449,1,1v16h2V2c0-0.551,0.448-1,1-1h2c0.552,0,1,0.449,1,1v21.5c0,0.276-0.224,0.5-0.5,0.5H0.5
		z M23,23V2h-2l0,21H23z M17,23V7h-2l0,16H17z M10,23v-5H7v5H10z M6,23v-7.667L1,13.25L1,17h2c0.276,0,0.5,0.224,0.5,0.5
		S3.276,18,3,18H1v1h2c0.276,0,0.5,0.224,0.5,0.5S3.276,20,3,20H1v3H6z"/>
	<path d="M5,11.5c-0.134,0-0.259-0.052-0.354-0.146S4.5,11.134,4.5,11s0.052-0.259,0.146-0.354L14.293,1H12.5
		C12.224,1,12,0.776,12,0.5S12.224,0,12.5,0h3c0.066,0,0.13,0.013,0.191,0.038c0.123,0.051,0.219,0.147,0.27,0.27
		C15.987,0.37,16,0.434,16,0.5v3C16,3.776,15.776,4,15.5,4S15,3.776,15,3.5V1.707l-9.646,9.646C5.259,11.448,5.134,11.5,5,11.5z"/>
</g>
</svg>
