<?xml version="1.0" encoding="utf-8"?>
<!-- Generator: Adobe Illustrator 22.1.0, SVG Export Plug-In . SVG Version: 6.00 Build 0)  -->
<svg version="1.1" id="Light" xmlns="http://www.w3.org/2000/svg" xmlns:xlink="http://www.w3.org/1999/xlink" x="0px" y="0px"
	 viewBox="0 0 24 24" style="enable-background:new 0 0 24 24;" xml:space="preserve">
<g>
	<title>real-estate-market-building-fall</title>
	<path d="M17.5,24c-0.276,0-0.5-0.224-0.5-0.5s0.224-0.5,0.5-0.5h2.793l-7.939-7.939c-0.094-0.094-0.22-0.146-0.354-0.146
		c-0.134,0-0.259,0.052-0.353,0.146l-3.336,3.336c-0.283,0.283-0.66,0.439-1.061,0.439s-0.778-0.156-1.061-0.439l-6.043-6.043
		C0.052,12.259,0,12.134,0,12s0.052-0.259,0.146-0.354S0.366,11.5,0.5,11.5s0.259,0.052,0.354,0.146l6.043,6.043
		c0.094,0.094,0.22,0.146,0.354,0.146c0.134,0,0.259-0.052,0.353-0.146l3.336-3.336c0.283-0.283,0.66-0.439,1.061-0.439
		c0.401,0,0.778,0.156,1.061,0.439L21,22.293V19.5c0-0.276,0.224-0.5,0.5-0.5s0.5,0.224,0.5,0.5v4c0,0.066-0.013,0.13-0.039,0.191
		c-0.051,0.123-0.147,0.219-0.27,0.27C21.63,23.987,21.566,24,21.5,24H17.5z"/>
	<path d="M16.5,16c-0.276,0-0.5-0.224-0.5-0.5V6h-6v2h2.5C12.776,8,13,8.224,13,8.5S12.776,9,12.5,9H10v2.5
		c0,0.276-0.224,0.5-0.5,0.5S9,11.776,9,11.5V6c0-0.551,0.449-1,1-1h6V1.71c0-0.551,0.448-1,1-1c0.115,0,0.229,0.02,0.337,0.058
		L22,2.433V0.5C22,0.224,22.224,0,22.5,0S23,0.224,23,0.5v2.29l0.336,0.12C23.733,3.052,24,3.43,24,3.852V15c0,0.552-0.448,1-1,1
		H16.5z M23,15V3.852L17,1.71V5h2.5C19.776,5,20,5.224,20,5.5S19.776,6,19.5,6H17v2h4c0.276,0,0.5,0.224,0.5,0.5S21.276,9,21,9h-4v6
		h1v-3c0-0.551,0.448-1,1-1h2c0.552,0,1,0.449,1,1L23,15z M21,15v-3h-2L21,15z"/>
</g>
</svg>
