<?xml version="1.0" encoding="utf-8"?>
<!-- Generator: Adobe Illustrator 22.1.0, SVG Export Plug-In . SVG Version: 6.00 Build 0)  -->
<svg version="1.1" id="Light" xmlns="http://www.w3.org/2000/svg" xmlns:xlink="http://www.w3.org/1999/xlink" x="0px" y="0px"
	 viewBox="0 0 24 24" style="enable-background:new 0 0 24 24;" xml:space="preserve">
<g>
	<title>real-estate-market-house</title>
	<path d="M8.506,16.994c-0.827,0-1.5-0.673-1.5-1.5v-2.767l-0.171,0.149C6.744,12.956,6.627,13,6.506,13
		c-0.145,0-0.282-0.062-0.377-0.171c-0.181-0.207-0.16-0.524,0.047-0.705L9.19,9.489c0.363-0.318,0.831-0.492,1.317-0.492
		s0.953,0.175,1.317,0.492l3.012,2.635c0.208,0.182,0.229,0.498,0.047,0.705C14.787,12.938,14.65,13,14.506,13
		c-0.121,0-0.238-0.044-0.329-0.124l-0.171-0.15v2.767c0,0.827-0.673,1.5-1.5,1.5H8.506z M12.506,15.994c0.276,0,0.5-0.224,0.5-0.5
		v-3.642l-1.841-1.611c-0.181-0.159-0.415-0.246-0.658-0.246c-0.243,0-0.477,0.087-0.658,0.246l-1.842,1.611v3.641
		c0,0.276,0.224,0.5,0.5,0.5h0.5v-1.5c0-0.827,0.673-1.5,1.5-1.5s1.5,0.673,1.5,1.5v1.5H12.506z M11.006,15.994v-1.5
		c0-0.276-0.224-0.5-0.5-0.5s-0.5,0.224-0.5,0.5v1.5H11.006z"/>
	<path d="M10.501,23.996c-5.582,0-10.185-4.369-10.479-9.947c-0.148-2.801,0.804-5.491,2.68-7.576S7.153,3.158,9.954,3.01L10,3.009
		c0.275,0,0.526,0.105,0.714,0.294s0.292,0.441,0.292,0.708v1.999c0.001,0.525-0.409,0.964-0.934,0.999
		c-3.411,0.224-6.08,3.076-6.075,6.495c0.005,3.579,2.92,6.491,6.5,6.491c0.003,0,0.009,0,0.009,0c3.412,0,6.261-2.665,6.488-6.066
		c0.035-0.524,0.473-0.934,0.998-0.934l2.042,0.001c0.279,0.014,0.524,0.131,0.703,0.33c0.178,0.198,0.27,0.454,0.256,0.721
		c-0.283,5.38-4.553,9.651-9.933,9.935C10.873,23.991,10.686,23.996,10.501,23.996L10.501,23.996z M10.006,4.009
		C7.469,4.146,5.139,5.258,3.445,7.141c-1.697,1.886-2.558,4.321-2.425,6.855c0.266,5.047,4.429,9,9.476,9
		c0.169,0,0.34-0.004,0.511-0.014c4.868-0.257,8.731-4.121,8.986-8.988l-2,0c-0.263,3.925-3.55,7-7.484,7
		c-4.142,0-7.507-3.36-7.512-7.49C2.992,9.56,6.071,6.268,10.006,6.01L10.006,4.009z"/>
	<path d="M20.991,10.992c-0.527,0-0.966-0.411-0.999-0.936c-0.216-3.232-2.818-5.834-6.051-6.05c-0.525-0.033-0.936-0.473-0.935-1
		l0.001-2.04c0.029-0.544,0.468-0.96,1-0.96c0.017,0,0.035,0,0.052,0.001c5.377,0.284,9.647,4.554,9.931,9.931l0.001,0.048
		c0,0.274-0.105,0.525-0.294,0.714c-0.189,0.188-0.439,0.292-0.706,0.292H20.991z M14.006,3.007
		c3.732,0.251,6.734,3.253,6.984,6.984l1.985,0.001C22.993,9.989,22.999,9.986,23,9.986c-0.265-4.854-4.128-8.722-8.993-8.98
		l-0.001-0.25v0.25c0,0,0,0,0,0L14.006,3.007z"/>
</g>
</svg>
