<?xml version="1.0" encoding="utf-8"?>
<!-- Generator: Adobe Illustrator 22.1.0, SVG Export Plug-In . SVG Version: 6.00 Build 0)  -->
<svg version="1.1" id="Light" xmlns="http://www.w3.org/2000/svg" xmlns:xlink="http://www.w3.org/1999/xlink" x="0px" y="0px"
	 viewBox="0 0 24 24" style="enable-background:new 0 0 24 24;" xml:space="preserve">
<g>
	<title>real-estate-market-scale</title>
	<path d="M17,17.5c-0.827,0-1.5-0.673-1.5-1.5v-2.766l-0.171,0.15c-0.091,0.08-0.208,0.124-0.329,0.124
		c-0.144,0-0.281-0.062-0.376-0.171c-0.182-0.208-0.16-0.524,0.047-0.706l3.012-2.636c0.363-0.318,0.831-0.493,1.317-0.493
		s0.954,0.175,1.317,0.493l3.012,2.636c0.208,0.182,0.229,0.498,0.047,0.706c-0.095,0.109-0.232,0.171-0.376,0.171
		c-0.121,0-0.238-0.044-0.329-0.124L22.5,13.234V16c0,0.827-0.673,1.5-1.5,1.5H17z M21,16.5c0.276,0,0.5-0.224,0.5-0.5v-3.641
		l-1.841-1.611c-0.182-0.159-0.416-0.246-0.659-0.246s-0.477,0.087-0.659,0.246L16.5,12.358V16c0,0.276,0.224,0.5,0.5,0.5h0.5V15
		c0-0.827,0.673-1.5,1.5-1.5s1.5,0.673,1.5,1.5v1.5H21z M19.5,16.5V15c0-0.276-0.224-0.5-0.5-0.5s-0.5,0.224-0.5,0.5v1.5H19.5z"/>
	<path d="M9.081,23.5c-0.276,0-0.5-0.224-0.5-0.5s0.224-0.5,0.5-0.5H11.5V5.435c-0.713-0.187-1.273-0.766-1.439-1.48L5.666,4.956
		l3.273,8.874C9.306,14.494,9.5,15.243,9.5,16c0,2.481-2.019,4.5-4.5,4.5S0.5,18.481,0.5,16c0-0.762,0.197-1.518,0.571-2.186
		l3.141-8.526l-0.876,0.2C3.3,5.495,3.262,5.5,3.224,5.5c-0.235,0-0.435-0.16-0.487-0.389C2.676,4.842,2.845,4.573,3.113,4.512
		l6.986-1.593c0.256-0.821,1.031-1.401,1.9-1.401c0.532,0,1.032,0.207,1.407,0.582c0.018,0.018,0.034,0.035,0.051,0.053l7.205-1.642
		c0.037-0.008,0.074-0.013,0.112-0.013c0.234,0,0.435,0.16,0.487,0.389c0.015,0.065,0.017,0.133,0.004,0.2
		c-0.034,0.197-0.184,0.354-0.381,0.399l-1.224,0.279l2.808,7.767c0.094,0.259-0.041,0.546-0.3,0.64
		c-0.055,0.02-0.112,0.03-0.17,0.03c-0.21,0-0.399-0.133-0.47-0.33L19,2.875l-2.53,6.997c-0.072,0.198-0.26,0.33-0.47,0.33
		c-0.058,0-0.115-0.01-0.17-0.03c-0.259-0.094-0.394-0.381-0.3-0.64l2.689-7.438L13.941,3.07c0.033,0.144,0.049,0.29,0.049,0.438
		c0,0.91-0.627,1.702-1.491,1.927V22.5h2.392c0.276,0,0.5,0.224,0.5,0.5s-0.224,0.5-0.5,0.5H9.081z M5,12.5
		c-1.93,0-3.5,1.57-3.5,3.5s1.57,3.5,3.5,3.5s3.5-1.57,3.5-3.5S6.93,12.5,5,12.5z M5,11.5c0.786,0,1.557,0.209,2.234,0.598L5,6.04
		l-2.231,6.055C3.446,11.708,4.215,11.5,5,11.5z M12.015,4.5c0.539-0.008,0.975-0.45,0.975-0.99c0-0.173-0.048-0.344-0.138-0.498
		c-0.018-0.024-0.034-0.05-0.047-0.078c-0.034-0.048-0.069-0.089-0.105-0.125c-0.187-0.187-0.436-0.29-0.7-0.29
		c-0.547,0-0.992,0.445-0.992,0.991c0,0.541,0.437,0.982,0.976,0.99c0.005,0,0.01,0,0.015,0S12.01,4.5,12.015,4.5z"/>
	<path d="M5,19c-0.276,0-0.5-0.224-0.5-0.5H4c-0.276,0-0.5-0.224-0.5-0.5s0.224-0.5,0.5-0.5h1.356c0.16,0,0.303-0.098,0.364-0.247
		c0.039-0.098,0.038-0.205-0.003-0.302S5.598,16.778,5.5,16.738l-1.374-0.549c-0.53-0.214-0.873-0.72-0.875-1.29
		c-0.001-0.373,0.143-0.723,0.405-0.988c0.229-0.23,0.524-0.371,0.843-0.404V13.5C4.5,13.224,4.724,13,5,13s0.5,0.224,0.5,0.5H6
		c0.276,0,0.5,0.224,0.5,0.5S6.275,14.5,6,14.5H4.644c-0.104,0-0.203,0.042-0.277,0.117c-0.074,0.075-0.115,0.174-0.115,0.28
		c0,0.161,0.098,0.305,0.247,0.365l1.374,0.549c0.714,0.289,1.061,1.103,0.773,1.816C6.451,18.111,6.01,18.439,5.5,18.492V18.5
		C5.5,18.775,5.275,19,5,19z"/>
</g>
</svg>
