<?xml version="1.0" encoding="utf-8"?>
<!-- Generator: Adobe Illustrator 22.1.0, SVG Export Plug-In . SVG Version: 6.00 Build 0)  -->
<svg version="1.1" id="Light" xmlns="http://www.w3.org/2000/svg" xmlns:xlink="http://www.w3.org/1999/xlink" x="0px" y="0px"
	 viewBox="0 0 24 24" style="enable-background:new 0 0 24 24;" xml:space="preserve">
<g>
	<title>ecology-globe-house</title>
	<path d="M12,24c-3.415,0-6.632-1.509-8.829-4.14c-0.03-0.029-0.051-0.058-0.067-0.082C1.43,17.745,0.5,15.154,0.5,12.5
		C0.5,12.224,0.724,12,1,12h22c0.276,0,0.5,0.224,0.5,0.5c0,1.815-0.416,3.557-1.235,5.176c-0.011,0.03-0.026,0.059-0.045,0.088
		c-1.281,2.477-3.409,4.404-5.996,5.429c-0.028,0.014-0.058,0.025-0.091,0.034C14.825,23.738,13.427,24,12,24z M4.661,20
		c1.957,1.913,4.6,3,7.339,3c1.198,0,2.374-0.202,3.5-0.602V19.5c0-1.378,1.122-2.5,2.5-2.5h3.485c0.601-1.261,0.938-2.605,1.004-4
		H7.5v0.5C7.5,14.327,8.173,15,9,15c1.379,0,2.5,1.122,2.5,2.5S10.379,20,9,20H4.661z M18,18c-0.827,0-1.5,0.673-1.5,1.5v2.483
		c1.823-0.869,3.378-2.265,4.441-3.983H18z M9,19c0.827,0,1.5-0.673,1.5-1.5S9.827,16,9,16c-1.379,0-2.5-1.122-2.5-2.5V13H1.512
		c0.103,2.198,0.878,4.264,2.252,6H9z"/>
	<path d="M18,11c-0.276,0-0.5-0.224-0.5-0.5V5.25L12,1.125L6.5,5.25v5.25C6.5,10.776,6.276,11,6,11s-0.5-0.224-0.5-0.5V6L4.3,6.9
		C4.213,6.965,4.109,7,4,7c0,0,0,0,0,0C3.844,7,3.694,6.925,3.6,6.8C3.52,6.693,3.486,6.562,3.505,6.429
		C3.524,6.297,3.593,6.18,3.7,6.1l8-6C11.787,0.035,11.891,0,12,0s0.213,0.035,0.3,0.1l2.2,1.65V0.5C14.5,0.224,14.724,0,15,0h3
		c0.276,0,0.5,0.224,0.5,0.5v4.25l1.8,1.35c0.107,0.08,0.176,0.197,0.195,0.329C20.514,6.562,20.48,6.693,20.4,6.8
		C20.306,6.925,20.156,7,20,7c-0.109,0-0.213-0.035-0.3-0.1L18.5,6v4.5C18.5,10.776,18.276,11,18,11z M17.5,4V1h-2v1.5L17.5,4z"/>
	<path d="M13.5,11c-0.276,0-0.5-0.224-0.5-0.5V8c0-0.551-0.448-1-1-1c-0.551,0-1,0.449-1,1v2.5c0,0.276-0.224,0.5-0.5,0.5
		S10,10.776,10,10.5V8c0-1.103,0.897-2,2-2s2,0.897,2,2v2.5C14,10.776,13.776,11,13.5,11z"/>
</g>
</svg>
