<?xml version="1.0" encoding="utf-8"?>
<!-- Generator: Adobe Illustrator 22.1.0, SVG Export Plug-In . SVG Version: 6.00 Build 0)  -->
<svg version="1.1" id="Light" xmlns="http://www.w3.org/2000/svg" xmlns:xlink="http://www.w3.org/1999/xlink" x="0px" y="0px"
	 viewBox="0 0 24 24" style="enable-background:new 0 0 24 24;" xml:space="preserve">
<g>
	<title>ecology-plant-hand-1</title>
	<path d="M15.262,14.924c-0.216-0.01-0.4-0.16-0.456-0.371c-0.454-1.712-1.124-3.361-1.993-4.91
		c-0.558,0.942-1.245,1.475-2.047,1.589c-0.105,0.015-0.214,0.023-0.322,0.023c-1.34,0-2.526-1.163-3.114-1.857
		C5.822,7.619,5.175,2.871,6.554,0.266c0.071-0.135,0.198-0.228,0.347-0.257C6.933,0.003,6.965,0,6.996,0
		C7.115,0,7.229,0.042,7.32,0.119c1.046,0.886,2.235,1.244,3.385,1.59c1.317,0.396,2.561,0.771,3.487,1.868
		c0.994,1.166,1.381,2.263,1.15,3.262c-0.188,0.815-0.792,1.511-1.795,2.072c0.753,1.302,1.371,2.678,1.842,4.099
		c0.298-0.572,0.708-1.265,1.236-1.962c-0.808-0.683-0.984-1.377-0.982-1.854c0.002-0.811,0.501-1.608,1.368-2.186
		c0.754-0.503,1.519-0.701,2.258-0.892c0.819-0.212,1.666-0.431,2.542-1.092c0.087-0.065,0.194-0.101,0.302-0.101
		c0.05,0,0.099,0.007,0.147,0.022c0.152,0.046,0.274,0.164,0.326,0.315c0.76,2.218,0.414,4.691-0.926,6.615
		c-0.013,0.019-0.029,0.039-0.046,0.057c-0.722,0.76-1.593,1.195-2.391,1.195c-0.136,0-0.27-0.012-0.398-0.037
		c-0.636-0.122-1.17-0.517-1.591-1.175c-0.971,1.362-1.471,2.669-1.476,2.683c-0.073,0.194-0.261,0.324-0.468,0.324
		C15.284,14.925,15.267,14.925,15.262,14.924z M17.904,11.069c0.303,0.609,0.676,0.959,1.109,1.042
		c0.068,0.013,0.141,0.02,0.215,0.02c0.513,0,1.108-0.312,1.634-0.856c1.005-1.462,1.354-3.326,0.96-5.053
		c-0.81,0.478-1.566,0.674-2.301,0.864c-0.689,0.178-1.34,0.346-1.954,0.756c-0.577,0.384-0.922,0.892-0.923,1.357
		c-0.001,0.437,0.306,0.811,0.622,1.08c0.719-0.791,1.492-1.396,2.3-1.8c0.069-0.035,0.146-0.053,0.223-0.053
		c0.19,0,0.362,0.106,0.447,0.276c0.06,0.12,0.07,0.255,0.027,0.382s-0.131,0.229-0.251,0.289
		C19.278,9.74,18.569,10.31,17.904,11.069z M7.196,1.282c-0.858,2.346-0.263,6.101,0.896,7.47c0.476,0.562,1.414,1.504,2.348,1.504
		c0.061,0,0.123-0.004,0.185-0.013c0.603-0.085,1.137-0.624,1.589-1.599c-0.989-1.554-2.175-2.97-3.526-4.21
		C8.485,4.247,8.471,3.93,8.658,3.727c0.094-0.103,0.229-0.162,0.368-0.162c0.125,0,0.245,0.047,0.338,0.132
		c1.407,1.291,2.639,2.757,3.666,4.361c0.764-0.42,1.213-0.905,1.337-1.443c0.194-0.839-0.403-1.762-0.938-2.389
		c-0.001-0.002-0.003-0.004-0.004-0.005c-0.735-0.868-1.84-1.2-3.009-1.552C9.401,2.361,8.261,2.018,7.196,1.282z"/>
	<path d="M1.496,24c-0.276,0-0.5-0.224-0.5-0.5v-10c0-0.276,0.224-0.5,0.5-0.5s0.5,0.224,0.5,0.5V14h6.5
		c2.298,0,4.216,1.739,4.467,4h2.533c2.481,0,4.5,2.019,4.5,4.5c0,0.276-0.224,0.5-0.5,0.5h-17.5v0.5
		C1.996,23.776,1.772,24,1.496,24z M18.96,22c-0.245-1.702-1.718-3-3.464-3h-7.5c-0.276,0-0.5-0.224-0.5-0.5S7.72,18,7.996,18h3.964
		c-0.245-1.702-1.717-3-3.464-3h-6.5v7H18.96z"/>
</g>
</svg>
