<?xml version="1.0" encoding="utf-8"?>
<!-- Generator: Adobe Illustrator 22.1.0, SVG Export Plug-In . SVG Version: 6.00 Build 0)  -->
<svg version="1.1" id="Light" xmlns="http://www.w3.org/2000/svg" xmlns:xlink="http://www.w3.org/1999/xlink" x="0px" y="0px"
	 viewBox="0 0 24 24" style="enable-background:new 0 0 24 24;" xml:space="preserve">
<g>
	<title>ecology-plant-hand</title>
	<path d="M13.473,14.945c-0.216-0.01-0.4-0.16-0.456-0.371c-0.454-1.712-1.124-3.362-1.994-4.912
		c-0.557,0.94-1.244,1.474-2.046,1.587c-0.105,0.015-0.214,0.023-0.322,0.023c-1.34,0-2.526-1.163-3.114-1.856
		C4.034,7.639,3.384,2.893,4.757,0.288C4.829,0.153,4.955,0.059,5.104,0.03C5.134,0.024,5.167,0.021,5.2,0.021
		c0.117,0,0.231,0.042,0.322,0.118c1.051,0.888,2.241,1.246,3.393,1.592c1.316,0.396,2.558,0.77,3.487,1.862
		c0.993,1.17,1.379,2.268,1.148,3.266c-0.188,0.813-0.792,1.509-1.794,2.071c0.754,1.303,1.372,2.68,1.844,4.102
		c0.298-0.572,0.708-1.265,1.236-1.961c-0.808-0.682-0.984-1.376-0.982-1.853c0.002-0.811,0.501-1.609,1.368-2.187
		c0.754-0.503,1.518-0.701,2.257-0.892c0.82-0.212,1.667-0.431,2.543-1.092c0.085-0.065,0.193-0.101,0.301-0.101
		c0.05,0,0.099,0.007,0.147,0.022c0.152,0.046,0.274,0.164,0.326,0.315c0.76,2.218,0.414,4.691-0.926,6.615
		c-0.013,0.019-0.029,0.039-0.046,0.057c-0.721,0.76-1.593,1.195-2.391,1.196c-0.134,0-0.268-0.012-0.398-0.037
		c-0.637-0.122-1.171-0.517-1.592-1.175c-0.971,1.362-1.471,2.669-1.476,2.683c-0.073,0.194-0.261,0.324-0.468,0.324
		C13.495,14.946,13.478,14.945,13.473,14.945z M16.114,11.09c0.303,0.609,0.676,0.959,1.109,1.042
		c0.069,0.013,0.142,0.02,0.216,0.02c0.512,0,1.107-0.312,1.633-0.856c1.004-1.462,1.354-3.326,0.959-5.053
		c-0.81,0.478-1.566,0.674-2.3,0.863c-0.689,0.178-1.34,0.347-1.954,0.756c-0.577,0.385-0.922,0.892-0.923,1.357
		c-0.001,0.437,0.306,0.811,0.622,1.079c0.719-0.791,1.492-1.396,2.3-1.8C17.845,8.464,17.922,8.446,18,8.446
		c0.19,0,0.362,0.106,0.447,0.276c0.124,0.247,0.023,0.548-0.223,0.671C17.488,9.761,16.779,10.331,16.114,11.09z M5.401,1.303
		C4.548,3.65,5.145,7.403,6.303,8.77c0.476,0.561,1.413,1.503,2.348,1.503c0.061,0,0.123-0.004,0.185-0.013
		c0.603-0.086,1.137-0.623,1.587-1.597C9.434,7.109,8.248,5.694,6.898,4.454c-0.203-0.187-0.217-0.503-0.03-0.706
		c0.094-0.103,0.229-0.162,0.368-0.162c0.125,0,0.245,0.047,0.338,0.132c1.406,1.291,2.638,2.756,3.665,4.358
		c0.763-0.42,1.213-0.904,1.337-1.442c0.194-0.838-0.402-1.764-0.936-2.393c-0.738-0.867-1.843-1.2-3.013-1.552
		C7.61,2.383,6.469,2.04,5.401,1.303z"/>
	<path d="M12.711,23.96c-1.294,0-2.72-0.501-5.082-1.333C6.861,22.358,6.001,22.055,5,21.716v0.304c0,0.552-0.449,1-1,1H1
		c-0.551,0-1-0.448-1-1v-7c0-0.552,0.449-1,1-1h3c0.551,0,1,0.448,1,1h2.5c1.779,0.063,3.444,0.772,4.707,2h2.753
		c0.073-0.011,0.146-0.016,0.219-0.016c0.735,0,1.363,0.525,1.493,1.248c0.001,0.004,0.001,0.008,0.002,0.011l3.668-1.218
		c0.309-0.091,0.621-0.136,0.934-0.136c1.032,0,2.013,0.491,2.625,1.312c0.089,0.12,0.12,0.27,0.085,0.414
		c-0.034,0.144-0.13,0.265-0.262,0.332c-2.232,1.116-3.911,2.02-5.26,2.746C15.686,23.209,14.291,23.96,12.711,23.96z M5,20.661
		c1.145,0.385,2.107,0.723,2.961,1.023c2.326,0.818,3.607,1.269,4.735,1.269c1.357,0,2.591-0.664,5.294-2.119
		c1.23-0.662,2.737-1.473,4.677-2.453c-0.395-0.303-0.885-0.472-1.388-0.472c-0.216,0-0.43,0.031-0.636,0.092l-4.238,1.407
		c-0.23,0.318-0.574,0.537-0.956,0.605c-0.087,0.016-0.178,0.024-0.268,0.024c-0.073,0-0.147-0.005-0.22-0.016H9.5
		c-0.276,0-0.5-0.224-0.5-0.5s0.224-0.5,0.5-0.5H15c0.03,0,0.06,0.003,0.09,0.008c0.03,0.006,0.06,0.008,0.09,0.008
		c0.03,0,0.06-0.003,0.09-0.008c0.141-0.025,0.26-0.106,0.34-0.228c0.013-0.031,0.03-0.061,0.049-0.089
		c0.036-0.09,0.046-0.187,0.029-0.282c-0.044-0.246-0.257-0.425-0.506-0.425c-0.031,0-0.061,0.003-0.093,0.008
		c-0.03,0.005-0.059,0.008-0.089,0.008h-3c-0.135,0-0.265-0.055-0.359-0.152c-1.1-1.135-2.575-1.791-4.154-1.848l-2.487,0V20.661z
		 M1,22.021h3v-7l-3,0L1,22.021z"/>
</g>
</svg>
