<?xml version="1.0" encoding="utf-8"?>
<!-- Generator: Adobe Illustrator 22.1.0, SVG Export Plug-In . SVG Version: 6.00 Build 0)  -->
<svg version="1.1" id="Light" xmlns="http://www.w3.org/2000/svg" xmlns:xlink="http://www.w3.org/1999/xlink" x="0px" y="0px"
	 viewBox="0 0 24 24" style="enable-background:new 0 0 24 24;" xml:space="preserve">
<g>
	<title>ecology-human-mind-flower</title>
	<path d="M15.499,24c-0.276,0-0.5-0.224-0.5-0.5v-3.476c0-0.132,0.054-0.261,0.147-0.354c0.09-0.089,0.205-0.138,0.341-0.145h0.146
		c1.67,0,2.75-0.113,3.328-0.69c0.518-0.518,0.729-2.843,0.713-4.329c-0.001-0.136,0.053-0.268,0.151-0.363
		c0.094-0.092,0.214-0.143,0.338-0.143c0.009,0,0.037,0.001,0.046,0.002c0.033,0,0.45,0.015,0.902,0.015
		c0.191,0,0.388-0.002,0.566-0.01c0.127-0.005,0.156-0.024,0.157-0.025c0.034-0.041,0.052-0.286,0.062-0.417l0.002-0.032
		c0.059-0.811-0.689-2.124-1.289-3.178c-0.559-0.983-0.851-1.515-0.851-1.948C19.757,4.766,16.556,1,11.199,1l-0.094,0
		c-2.373,0-4.61,0.91-6.301,2.563C3.087,5.243,2.127,7.491,2.1,9.893c-0.001,0.056-0.001,0.111,0,0.166
		c0,3.421,1.197,5.792,3.66,7.251c0.151,0.089,0.245,0.254,0.245,0.43v5.76c0,0.276-0.224,0.5-0.5,0.5s-0.5-0.224-0.5-0.5v-5.48
		c-2.627-1.663-3.905-4.268-3.905-7.957c0-0.058,0-0.12,0-0.182c0.03-2.669,1.097-5.167,3.006-7.033
		c1.878-1.837,4.361-2.849,6.99-2.849L11.205,0c2.328,0,4.678,0.792,6.446,2.172c1.417,1.106,3.106,3.086,3.106,6.234
		c0,0.188,0.432,0.947,0.718,1.449c0.669,1.176,1.5,2.634,1.419,3.75l-0.002,0.034c-0.037,0.495-0.1,1.323-1.176,1.366
		c-0.193,0.008-0.404,0.011-0.608,0.011h0c-0.154,0-0.304-0.002-0.437-0.004c-0.024,1.255-0.18,3.706-1.003,4.529
		c-0.78,0.78-1.944,0.963-3.669,0.981V23.5C15.999,23.776,15.775,24,15.499,24z"/>
	<path d="M13.339,15.466c-0.343,0-0.681-0.063-1.004-0.189c-0.42-0.163-0.788-0.42-1.08-0.751c-0.072,0.082-0.149,0.159-0.231,0.232
		c-0.51,0.456-1.165,0.708-1.846,0.708c-0.053,0-0.106-0.001-0.159-0.005c-0.74-0.041-1.42-0.368-1.915-0.92
		c-0.495-0.553-0.744-1.265-0.703-2.005c0.025-0.45,0.156-0.879,0.381-1.259c-0.099-0.043-0.196-0.092-0.291-0.147
		c-0.641-0.373-1.099-0.973-1.289-1.689c-0.19-0.717-0.089-1.464,0.283-2.106c0.495-0.852,1.416-1.381,2.404-1.381
		c0.203,0,0.405,0.022,0.602,0.066c0.01-0.106,0.027-0.212,0.049-0.317c0.155-0.725,0.584-1.346,1.206-1.749
		c0.452-0.292,0.971-0.446,1.503-0.446c0.196,0,0.393,0.021,0.587,0.063c1.195,0.256,2.069,1.259,2.182,2.45
		c0.2-0.045,0.404-0.068,0.608-0.068c0.438,0,0.861,0.102,1.257,0.304c0.661,0.337,1.151,0.91,1.38,1.615
		c0.06,0.186,0.101,0.379,0.121,0.574c0.075,0.738-0.141,1.461-0.609,2.036c-0.284,0.349-0.643,0.62-1.049,0.796
		c0.055,0.094,0.105,0.191,0.149,0.291c0.618,1.401-0.018,3.043-1.418,3.661C14.102,15.387,13.725,15.466,13.339,15.466z
		 M11.256,13.108c0.198,0,0.378,0.117,0.458,0.298c0.192,0.434,0.541,0.767,0.983,0.939c0.208,0.081,0.424,0.121,0.643,0.121
		c0.247,0,0.488-0.051,0.716-0.153c0.433-0.191,0.767-0.541,0.938-0.983c0.172-0.443,0.161-0.926-0.03-1.359
		c-0.103-0.233-0.251-0.437-0.44-0.606c-0.147-0.132-0.203-0.339-0.142-0.527c0.061-0.188,0.228-0.323,0.425-0.343
		c0.472-0.048,0.897-0.278,1.197-0.646c0.3-0.368,0.438-0.831,0.39-1.303c-0.012-0.125-0.039-0.249-0.077-0.367
		c-0.147-0.452-0.46-0.819-0.883-1.034c-0.253-0.129-0.524-0.194-0.804-0.194c-0.186,0-0.372,0.03-0.551,0.088
		c-0.119,0.039-0.235,0.09-0.343,0.153c-0.077,0.044-0.164,0.068-0.252,0.068c-0.106,0-0.208-0.033-0.294-0.096
		c-0.159-0.116-0.236-0.316-0.195-0.509c0.205-0.958-0.407-1.903-1.365-2.109c-0.124-0.027-0.251-0.04-0.376-0.04
		c-0.339,0-0.671,0.099-0.961,0.286C9.894,5.051,9.62,5.448,9.52,5.912c-0.053,0.247-0.053,0.497,0,0.744
		C9.562,6.85,9.485,7.049,9.325,7.166C9.239,7.228,9.138,7.261,9.031,7.261c-0.088,0-0.175-0.023-0.251-0.067
		c-0.271-0.157-0.578-0.24-0.89-0.24c-0.633,0-1.222,0.338-1.539,0.883c-0.239,0.41-0.303,0.889-0.181,1.347
		s0.414,0.842,0.824,1.081c0.22,0.128,0.459,0.206,0.712,0.232c0.197,0.02,0.363,0.155,0.425,0.343
		c0.061,0.188,0.005,0.395-0.142,0.527c-0.353,0.316-0.562,0.751-0.588,1.225c-0.026,0.474,0.133,0.93,0.449,1.283
		c0.316,0.354,0.751,0.563,1.225,0.589c0.037,0.002,0.072,0.003,0.108,0.003c0.431,0,0.848-0.161,1.175-0.453
		c0.19-0.169,0.338-0.373,0.44-0.606C10.879,13.225,11.058,13.108,11.256,13.108z"/>
	<path d="M11.252,12.006c-1.241,0-2.25-1.009-2.25-2.25s1.009-2.25,2.25-2.25s2.25,1.009,2.25,2.25S12.493,12.006,11.252,12.006z
		 M11.252,8.506c-0.689,0-1.25,0.561-1.25,1.25s0.561,1.25,1.25,1.25c0.689,0,1.25-0.561,1.25-1.25S11.942,8.506,11.252,8.506z"/>
</g>
</svg>
