<?xml version="1.0" encoding="utf-8"?>
<!-- Generator: Adobe Illustrator 22.1.0, SVG Export Plug-In . SVG Version: 6.00 Build 0)  -->
<svg version="1.1" id="Light" xmlns="http://www.w3.org/2000/svg" xmlns:xlink="http://www.w3.org/1999/xlink" x="0px" y="0px"
	 viewBox="0 0 24 24" style="enable-background:new 0 0 24 24;" xml:space="preserve">
<g>
	<title>ecology-leaf-book-open</title>
	<path d="M8.5,11.06c-0.041,0-0.081-0.005-0.12-0.015c-0.268-0.066-0.432-0.338-0.365-0.606c0.191-0.77,0.487-1.513,0.88-2.211
		C8.316,7.493,8,6.584,8,5.651c0-2.306,1.876-4.182,4.182-4.182c1.506-0.096,2.972-0.499,4.339-1.196
		c0.147-0.07,0.292-0.103,0.441-0.103c0.384,0,0.739,0.223,0.904,0.569c0.075,0.157,0.107,0.331,0.095,0.503
		c-0.545,7.754-4.223,8.591-5.778,8.591c-0.922,0-1.815-0.307-2.545-0.871C9.35,9.513,9.132,10.09,8.985,10.68
		C8.93,10.904,8.73,11.06,8.5,11.06z M10.156,8.098c0.572,0.475,1.283,0.734,2.026,0.734c1.276,0,4.295-0.747,4.781-7.663
		c-1.481,0.755-3.082,1.193-4.75,1.298C10.435,2.469,9,3.896,9,5.651c0,0.597,0.164,1.169,0.478,1.671
		c0.96-1.31,2.246-2.326,3.738-2.95c0.062-0.026,0.126-0.039,0.193-0.039c0.202,0,0.383,0.12,0.461,0.307
		c0.106,0.255-0.014,0.548-0.268,0.655C12.209,5.877,11.022,6.844,10.156,8.098z"/>
	<path d="M12,23.833c-0.276,0-0.5-0.224-0.5-0.5c0-1.628-5.288-2.926-10.016-3c-0.543-0.009-0.984-0.458-0.984-1V3.837
		c0-0.266,0.108-0.526,0.298-0.713c0.186-0.182,0.446-0.287,0.714-0.287c1.528,0.02,3.064,0.154,4.569,0.4
		C6.353,3.281,6.538,3.538,6.493,3.81c-0.039,0.243-0.245,0.42-0.49,0.42c-0.028,0-0.057-0.002-0.086-0.008
		c-1.453-0.237-2.94-0.367-4.415-0.386L1.5,19.333c3.699,0.058,8.057,0.794,10,2.307v-9.807c0-0.276,0.224-0.5,0.5-0.5
		c0.276,0,0.5,0.224,0.5,0.5v9.813c1.514-1.15,4.999-2.234,10.001-2.309L22.5,3.837c-1,0.016-1.991,0.077-2.945,0.183
		c-0.017,0.002-0.038,0.004-0.058,0.004c-0.253,0-0.466-0.192-0.494-0.445c-0.03-0.274,0.168-0.522,0.442-0.552
		c0.985-0.109,2.008-0.173,3.04-0.189h0c0.274,0,0.531,0.104,0.717,0.286c0.191,0.189,0.299,0.449,0.298,0.716v15.498
		c0,0.542-0.441,0.991-0.984,1c-4.728,0.07-10.016,1.367-10.016,2.996C12.5,23.608,12.276,23.833,12,23.833z"/>
</g>
</svg>
