<?xml version="1.0" encoding="utf-8"?>
<!-- Generator: Adobe Illustrator 22.1.0, SVG Export Plug-In . SVG Version: 6.00 Build 0)  -->
<svg version="1.1" id="Layer_1" xmlns="http://www.w3.org/2000/svg" xmlns:xlink="http://www.w3.org/1999/xlink" x="0px" y="0px"
	 viewBox="0 0 24 24" style="enable-background:new 0 0 24 24;" xml:space="preserve">
<g>
	<title>tv-retro</title>
	<path d="M2.5,24C1.121,24,0,22.878,0,21.5v-14C0,6.121,1.121,5,2.5,5h5.794L4.147,0.854c-0.195-0.195-0.195-0.512,0-0.707
		C4.242,0.052,4.367,0,4.501,0S4.76,0.052,4.854,0.146L9.708,5h0.586l4.853-4.854C15.241,0.052,15.366,0,15.5,0
		s0.259,0.052,0.354,0.146C15.948,0.241,16,0.366,16,0.5c0,0.134-0.052,0.259-0.146,0.354L11.708,5H21.5C22.878,5,24,6.121,24,7.5
		v14c0,1.378-1.122,2.5-2.5,2.5H2.5z M2.5,6C1.673,6,1,6.673,1,7.5v14C1,22.327,1.673,23,2.5,23h19c0.827,0,1.5-0.673,1.5-1.5v-14
		C23,6.673,22.327,6,21.5,6H2.5z"/>
	<path d="M6.5,22C4.019,22,2,19.981,2,17.5v-6C2,9.019,4.019,7,6.5,7h7c2.481,0,4.5,2.019,4.5,4.5v6c0,2.481-2.019,4.5-4.5,4.5H6.5z
		 M6.5,8C4.57,8,3,9.57,3,11.5v6C3,19.43,4.57,21,6.5,21h7c1.93,0,3.5-1.57,3.5-3.5v-6C17,9.57,15.43,8,13.5,8H6.5z"/>
	<path d="M20,17c-0.552,0-1-0.448-1-1V9c0-0.551,0.448-1,1-1h1c0.552,0,1,0.449,1,1v7c0,0.552-0.448,1-1,1H20z M20,16h1V9l-1,0
		L20,16z"/>
	<path d="M20.498,21.495c-0.827,0-1.5-0.673-1.5-1.5s0.673-1.5,1.5-1.5s1.5,0.673,1.5,1.5S21.325,21.495,20.498,21.495z
		 M20.498,19.495c-0.276,0-0.5,0.224-0.5,0.5s0.224,0.5,0.5,0.5s0.5-0.224,0.5-0.5S20.774,19.495,20.498,19.495z"/>
</g>
</svg>
