<?xml version="1.0" encoding="utf-8"?>
<!-- Generator: Adobe Illustrator 22.1.0, SVG Export Plug-In . SVG Version: 6.00 Build 0)  -->
<svg version="1.1" id="Light" xmlns="http://www.w3.org/2000/svg" xmlns:xlink="http://www.w3.org/1999/xlink" x="0px" y="0px"
	 viewBox="0 0 24 24" style="enable-background:new 0 0 24 24;" xml:space="preserve">
<g>
	<title>real-estate-favorite-house-choose</title>
	<path d="M4,15.584c-0.551,0-1-0.448-1-1v-6.5c0-0.276,0.224-0.5,0.5-0.5S4,7.808,4,8.084v6.5h3v-3c0-1.103,0.897-2,2-2s2,0.897,2,2
		v3h0.5c0.276,0,0.5,0.224,0.5,0.5s-0.224,0.5-0.5,0.5H4z M10,14.584v-3c0-0.551-0.449-1-1-1s-1,0.449-1,1v3H10z"/>
	<path d="M17.5,8.584c-0.122,0-0.24-0.044-0.331-0.125L9.332,1.543C9.24,1.462,9.123,1.418,9,1.418c-0.122,0-0.24,0.044-0.331,0.125
		L0.831,8.459C0.74,8.54,0.622,8.584,0.5,8.584l0,0c-0.143,0-0.28-0.062-0.375-0.169c-0.182-0.207-0.162-0.523,0.044-0.706
		l7.838-6.916C8.281,0.551,8.634,0.418,9,0.418c0.366,0,0.719,0.133,0.993,0.375l7.838,6.916c0.1,0.088,0.16,0.21,0.168,0.344
		s-0.036,0.262-0.124,0.362C17.78,8.522,17.643,8.584,17.5,8.584z"/>
	<path d="M23.5,23.584c-0.276,0-0.5-0.224-0.5-0.5v-2c0-1.93-1.57-3.5-3.5-3.5h-3c-0.276,0-0.5-0.224-0.5-0.5v-6.5
		c0-0.551-0.448-1-1-1s-1,0.449-1,1v9.827c0,0.21-0.133,0.399-0.33,0.47c-0.055,0.02-0.112,0.03-0.17,0.03
		c-0.149,0-0.289-0.065-0.384-0.18l-2.346-2.822c-0.171-0.206-0.411-0.332-0.677-0.356c-0.033-0.003-0.065-0.005-0.096-0.005
		c-0.233,0-0.453,0.08-0.635,0.231c-0.206,0.171-0.332,0.412-0.357,0.677s0.056,0.525,0.227,0.731l2.67,3.599
		c0.08,0.107,0.113,0.239,0.093,0.371c-0.02,0.132-0.089,0.249-0.197,0.328c-0.087,0.064-0.19,0.098-0.297,0.098
		c-0.158,0-0.308-0.076-0.402-0.202l-2.653-3.577c-0.327-0.392-0.486-0.908-0.437-1.44c0.049-0.532,0.302-1.013,0.713-1.354
		c0.358-0.298,0.812-0.462,1.279-0.462c0.061,0,0.122,0.003,0.183,0.008c0.533,0.049,1.014,0.302,1.355,0.713L13,19.027v-8.443
		c0-1.103,0.897-2,2-2s2,0.897,2,2v6h2.5c2.481,0,4.5,2.019,4.5,4.5v2C24,23.36,23.776,23.584,23.5,23.584z"/>
</g>
</svg>
