<?xml version="1.0" encoding="utf-8"?>
<!-- Generator: Adobe Illustrator 22.1.0, SVG Export Plug-In . SVG Version: 6.00 Build 0)  -->
<svg version="1.1" id="Light" xmlns="http://www.w3.org/2000/svg" xmlns:xlink="http://www.w3.org/1999/xlink" x="0px" y="0px"
	 viewBox="0 0 24 24" style="enable-background:new 0 0 24 24;" xml:space="preserve">
<g>
	<title>real-estate-favorite-heart-house</title>
	<path d="M11.993,22.745c-0.362,0-0.712-0.132-0.985-0.371c-0.051-0.045-0.098-0.092-0.142-0.142L1.818,11.864
		C-0.089,9.995-0.559,7.112,0.66,4.702c1.093-2.121,3.257-3.438,5.648-3.438c1,0,2.001,0.243,2.894,0.704
		c0.569,0.293,1.088,0.669,1.543,1.118l1.249,1.141l1.263-1.151c1.182-1.164,2.758-1.809,4.432-1.809l0.05,0
		c1.694,0.013,3.281,0.685,4.469,1.892c0.448,0.456,0.825,0.975,1.117,1.544c1.219,2.411,0.744,5.299-1.181,7.19l-9.021,10.34
		c-0.264,0.302-0.629,0.483-1.029,0.51C12.06,22.744,12.026,22.745,11.993,22.745z M6.307,2.263c-2.014,0-3.836,1.109-4.756,2.893
		C0.53,7.173,0.93,9.593,2.545,11.178l9.074,10.396c0.014,0.016,0.03,0.032,0.047,0.047c0.091,0.08,0.207,0.124,0.325,0.124
		c0.012,0,0.024,0,0.036-0.001c0.135-0.009,0.256-0.07,0.344-0.17l9.047-10.368c1.634-1.607,2.038-4.032,1.018-6.05
		c-0.245-0.476-0.562-0.913-0.94-1.297c-1-1.016-2.337-1.582-3.763-1.593l-0.043,0c-1.409,0-2.739,0.545-3.744,1.534l-1.614,1.472
		c-0.092,0.084-0.212,0.131-0.337,0.131c-0.125,0-0.245-0.047-0.337-0.131l-1.6-1.462C9.663,3.422,9.223,3.103,8.744,2.856
		C7.992,2.468,7.149,2.263,6.307,2.263z"/>
	<path d="M8.495,16.263c-0.276,0-0.5-0.224-0.5-0.5v-4.688l-1.164,1.058c-0.092,0.084-0.212,0.13-0.336,0.13
		c-0.141,0-0.276-0.06-0.37-0.164c-0.09-0.099-0.136-0.226-0.129-0.36c0.006-0.134,0.064-0.256,0.163-0.346l5.5-5
		c0.092-0.084,0.212-0.13,0.336-0.13s0.244,0.046,0.336,0.13l5.5,5c0.204,0.185,0.219,0.502,0.034,0.706
		c-0.095,0.104-0.229,0.164-0.37,0.164c-0.125,0-0.244-0.046-0.337-0.13l-1.163-1.058v4.688c0,0.276-0.224,0.5-0.5,0.5H8.495z
		 M14.995,15.263v-5.097l-3-2.727l-3,2.727v5.097h1v-2c0-1.103,0.897-2,2-2s2,0.897,2,2v2H14.995z M12.995,15.263v-2
		c0-0.552-0.448-1-1-1c-0.551,0-1,0.448-1,1v2H12.995z"/>
</g>
</svg>
