<?xml version="1.0" encoding="utf-8"?>
<!-- Generator: Adobe Illustrator 22.1.0, SVG Export Plug-In . SVG Version: 6.00 Build 0)  -->
<svg version="1.1" id="Light" xmlns="http://www.w3.org/2000/svg" xmlns:xlink="http://www.w3.org/1999/xlink" x="0px" y="0px"
	 viewBox="0 0 24 24" style="enable-background:new 0 0 24 24;" xml:space="preserve">
<g>
	<title>real-estate-favorite-hold-house</title>
	<path d="M3.5,23.814c-0.153,0-0.295-0.068-0.391-0.188l-2.014-2.513C0.388,20.229-0.001,19.119,0,17.986v-5.171
		c0-1.103,0.897-2,2-2s2,0.897,2,2v2.196c0.299-0.173,0.582-0.258,0.86-0.258c0.825,0,1.504,0.726,2.531,1.825l0.026,0.028
		c0.208,0.223,0.436,0.466,0.686,0.726c0.021,0.021,0.04,0.046,0.057,0.072C8.709,18.226,9,19.186,9,20.178v3
		c0,0.276-0.224,0.5-0.5,0.5S8,23.454,8,23.178v-3c0-0.779-0.224-1.535-0.649-2.187c-0.251-0.263-0.48-0.507-0.69-0.731
		c-0.896-0.958-1.421-1.5-1.806-1.5c-0.128,0-0.272,0.056-0.454,0.177c-0.377,0.251-0.509,0.746-0.306,1.151l1.333,2.218
		c0.142,0.237,0.065,0.544-0.171,0.686C5.179,20.039,5.091,20.064,5,20.064c-0.175,0-0.339-0.093-0.429-0.242L3.219,17.57
		c-0.153-0.303-0.223-0.625-0.213-0.946C3.003,16.611,3,16.589,3,16.564v-3.75c0-0.552-0.449-1-1-1s-1,0.449-1,1v5.172
		c-0.001,0.906,0.31,1.795,0.876,2.502l2.014,2.513c0.172,0.215,0.138,0.53-0.077,0.703C3.724,23.775,3.613,23.814,3.5,23.814z"/>
	<path d="M20.5,23.814c-0.113,0-0.224-0.039-0.312-0.11c-0.105-0.084-0.17-0.203-0.185-0.336s0.023-0.263,0.107-0.367l2.014-2.513
		C22.689,19.782,23,18.895,23,17.99v-5.176c0-0.552-0.448-1-1-1s-1,0.449-1,1v3.75c0,0.012-0.001,0.027-0.004,0.042
		c0.014,0.322-0.054,0.643-0.197,0.93l-1.371,2.286c-0.09,0.15-0.254,0.243-0.429,0.243c-0.09,0-0.179-0.025-0.257-0.071
		c-0.237-0.142-0.313-0.45-0.172-0.686l1.352-2.252c0.185-0.372,0.046-0.871-0.325-1.118c-0.181-0.121-0.326-0.177-0.454-0.177
		c-0.385,0-0.91,0.542-1.806,1.5c-0.21,0.225-0.438,0.469-0.69,0.731C16.224,18.643,16,19.399,16,20.178v3
		c0,0.276-0.224,0.5-0.5,0.5s-0.5-0.224-0.5-0.5v-3c0-0.992,0.29-1.953,0.841-2.778c0.018-0.026,0.036-0.049,0.057-0.07
		c0.259-0.27,0.495-0.522,0.711-0.753c1.028-1.1,1.706-1.825,2.531-1.825c0.279,0,0.562,0.084,0.861,0.258v-2.195
		c0-1.103,0.897-2,2-2s2,0.897,2,2v5.176c0,1.131-0.389,2.24-1.095,3.123l-2.014,2.513C20.795,23.746,20.653,23.814,20.5,23.814z"/>
	<path d="M7,14.814c-0.551,0-1-0.448-1-1v-5.5c0-0.276,0.224-0.5,0.5-0.5S7,8.038,7,8.314v5.5h3v-3c0-1.103,0.897-2,2-2s2,0.897,2,2
		v3h3v-5.5c0-0.276,0.224-0.5,0.5-0.5s0.5,0.224,0.5,0.5v5.5c0,0.552-0.448,1-1,1H7z M13,13.814v-3c0-0.551-0.448-1-1-1
		c-0.551,0-1,0.449-1,1v3H13z"/>
	<path d="M3.5,8.814c-0.137,0-0.27-0.057-0.364-0.157C3.044,8.56,2.996,8.432,3,8.299C3.004,8.165,3.06,8.042,3.157,7.95
		l7.815-7.355C11.251,0.333,11.616,0.188,12,0.188s0.749,0.144,1.028,0.406l7.815,7.355c0.201,0.189,0.21,0.506,0.021,0.707
		c-0.094,0.1-0.227,0.157-0.364,0.157c-0.128,0-0.25-0.048-0.343-0.136l-7.815-7.355C12.25,1.236,12.128,1.188,12,1.188
		c-0.128,0-0.25,0.048-0.342,0.135L3.843,8.678C3.75,8.766,3.628,8.814,3.5,8.814L3.5,8.814z"/>
</g>
</svg>
