<?xml version="1.0" encoding="utf-8"?>
<!-- Generator: Adobe Illustrator 22.1.0, SVG Export Plug-In . SVG Version: 6.00 Build 0)  -->
<svg version="1.1" id="Light" xmlns="http://www.w3.org/2000/svg" xmlns:xlink="http://www.w3.org/1999/xlink" x="0px" y="0px"
	 viewBox="0 0 24 24" style="enable-background:new 0 0 24 24;" xml:space="preserve">
<g>
	<title>real-estate-favorite-house-rating</title>
	<path d="M8.005,24c-0.551,0-1-0.448-1-1v-4.459c0-0.276,0.224-0.5,0.5-0.5s0.5,0.224,0.5,0.5V23H9.98v-3.467
		c0-0.276,0.224-0.5,0.5-0.5h2.975c0.276,0,0.5,0.224,0.5,0.5V23h1.984v-4.459c0-0.276,0.224-0.5,0.5-0.5s0.5,0.224,0.5,0.5V23
		c0,0.552-0.448,1-1,1H8.005z M12.955,23v-2.967H10.98V23H12.955z"/>
	<path d="M4.53,18.545c-0.145,0-0.283-0.063-0.378-0.172c-0.181-0.209-0.158-0.525,0.05-0.706l6.889-5.97
		c0.242-0.21,0.554-0.326,0.877-0.326c0.324,0,0.636,0.116,0.878,0.327l6.889,5.969c0.208,0.181,0.23,0.497,0.051,0.705
		c-0.096,0.11-0.234,0.173-0.378,0.173l0,0c-0.12,0-0.236-0.043-0.327-0.122l-6.889-5.97c-0.061-0.053-0.14-0.083-0.222-0.083
		s-0.161,0.029-0.222,0.082l-6.89,5.97C4.767,18.501,4.65,18.545,4.53,18.545z"/>
	<path d="M22.33,10.826c-0.175,0-0.348-0.057-0.487-0.162l-1.454-1.096l-1.361,1.021c-0.143,0.106-0.31,0.161-0.485,0.161
		c-0.039,0-0.078-0.003-0.117-0.008c-0.215-0.032-0.405-0.145-0.533-0.318c-0.16-0.215-0.203-0.494-0.116-0.748l0.524-1.482
		l-1.085-0.749c-0.367-0.251-0.461-0.756-0.209-1.124c0.15-0.22,0.4-0.352,0.667-0.352h1.173l0.818-1.651
		c0.14-0.278,0.418-0.449,0.726-0.449c0.125,0,0.25,0.03,0.363,0.086c0.154,0.078,0.282,0.205,0.36,0.36l0.824,1.649h1.252
		c0.446,0,0.808,0.362,0.81,0.806c0.001,0.253-0.119,0.495-0.319,0.647l-1.01,0.774l0.44,1.61c0.117,0.431-0.137,0.877-0.567,0.995
		C22.475,10.816,22.403,10.826,22.33,10.826z M20.39,8.442c0.109,0,0.213,0.035,0.301,0.101l1.308,0.987l-0.382-1.398
		c-0.053-0.197,0.016-0.404,0.178-0.528l0.833-0.638h-0.999c-0.19,0-0.362-0.106-0.447-0.276l-0.791-1.582l-0.785,1.585
		C19.52,6.863,19.348,6.97,19.157,6.97h-0.869l0.896,0.618c0.186,0.129,0.262,0.366,0.187,0.579l-0.44,1.244l1.159-0.869
		C20.178,8.476,20.281,8.442,20.39,8.442z"/>
	<path d="M5.472,10.821c-0.175,0-0.348-0.057-0.487-0.162L3.53,9.567l-1.362,1.022c-0.142,0.106-0.309,0.161-0.485,0.161
		c-0.255,0-0.499-0.122-0.651-0.326c-0.16-0.215-0.203-0.494-0.116-0.748l0.52-1.481L0.352,7.445
		c-0.168-0.107-0.294-0.291-0.34-0.499c-0.046-0.211-0.007-0.427,0.109-0.609c0.15-0.233,0.403-0.372,0.677-0.372
		c0.003,0,1.184,0,1.184,0l0.824-1.648C2.903,4.123,3.07,3.979,3.275,3.911C3.358,3.884,3.444,3.87,3.53,3.87
		c0.125,0,0.25,0.03,0.363,0.087c0.155,0.078,0.282,0.206,0.36,0.36l0.824,1.648h1.253c0.446,0,0.809,0.363,0.809,0.809
		c0,0.251-0.119,0.492-0.319,0.644L5.813,8.192l0.439,1.605c0.057,0.208,0.03,0.427-0.078,0.615
		c-0.107,0.188-0.281,0.323-0.489,0.38C5.616,10.811,5.545,10.82,5.472,10.821C5.472,10.821,5.472,10.821,5.472,10.821z M3.53,8.442
		c0.109,0,0.213,0.035,0.3,0.1l1.311,0.984L4.76,8.132C4.706,7.935,4.775,7.728,4.937,7.603l0.831-0.639h-1
		c-0.191,0-0.362-0.106-0.447-0.276L3.53,5.105L2.738,6.688c-0.085,0.17-0.257,0.276-0.447,0.276H1.416L2.32,7.588
		c0.185,0.128,0.262,0.365,0.188,0.577L2.07,9.412l1.16-0.87C3.316,8.477,3.422,8.442,3.53,8.442z"/>
	<path d="M9.417,9.122c-0.364,0-0.704-0.196-0.885-0.51c-0.158-0.273-0.179-0.61-0.058-0.901l0.794-1.822L7.882,4.923
		C7.867,4.912,7.852,4.9,7.837,4.888C7.64,4.713,7.522,4.472,7.506,4.21C7.49,3.948,7.577,3.694,7.751,3.497
		c0.187-0.211,0.456-0.333,0.736-0.333l0.041,0.001l1.618,0l0.894-2.368c0.007-0.019,0.015-0.036,0.024-0.053
		c0.127-0.245,0.341-0.424,0.602-0.507c0.101-0.032,0.205-0.048,0.31-0.048c0.163,0,0.327,0.04,0.473,0.116
		c0.188,0.098,0.339,0.249,0.437,0.437c0.008,0.015,0.016,0.032,0.023,0.051l0.898,2.371l1.666,0c0.526,0,0.955,0.416,0.976,0.947
		c0.011,0.296-0.108,0.578-0.328,0.775c-0.016,0.014-0.03,0.025-0.045,0.036l-1.387,0.967l0.791,1.814
		c0.218,0.526-0.028,1.125-0.547,1.341c-0.124,0.052-0.255,0.078-0.391,0.078c-0.179,0-0.356-0.047-0.51-0.136l-2.056-1.159
		L9.921,8.988C9.769,9.076,9.594,9.122,9.417,9.122z M10.175,5.303c0.195,0.136,0.267,0.392,0.173,0.61l-0.954,2.19l0.022,0.02
		l2.313-1.305c0.075-0.042,0.16-0.065,0.246-0.065c0.086,0,0.171,0.022,0.246,0.064l2.306,1.3c0.031,0,0.036-0.014,0.033-0.023
		l-0.951-2.182c-0.095-0.218-0.022-0.474,0.172-0.61l1.632-1.138h-1.951c-0.207,0-0.394-0.13-0.468-0.323l-1-2.641L11.976,1.19
		L10.96,3.841c-0.073,0.193-0.261,0.323-0.468,0.323H8.543L10.175,5.303z"/>
</g>
</svg>
