<?xml version="1.0" encoding="utf-8"?>
<!-- Generator: Adobe Illustrator 22.1.0, SVG Export Plug-In . SVG Version: 6.00 Build 0)  -->
<svg version="1.1" id="Light" xmlns="http://www.w3.org/2000/svg" xmlns:xlink="http://www.w3.org/1999/xlink" x="0px" y="0px"
	 viewBox="0 0 24 24" style="enable-background:new 0 0 24 24;" xml:space="preserve">
<g>
	<title>real-estate-favorite-hold-building</title>
	<path d="M3.5,24c-0.153,0-0.295-0.068-0.391-0.188l-2.014-2.517C0.389,20.412,0,19.302,0,18.171V13c0-1.103,0.897-2,2-2
		s2,0.897,2,2v2.197c0.299-0.173,0.582-0.258,0.861-0.258c0.823,0,1.499,0.723,2.523,1.817c0.218,0.233,0.456,0.487,0.719,0.761
		c0.021,0.022,0.039,0.044,0.055,0.069C8.71,18.412,9.001,19.372,9,20.365v3c0,0.276-0.224,0.5-0.5,0.5S8,23.64,8,23.364v-3
		c0.001-0.779-0.224-1.535-0.649-2.187c-0.254-0.265-0.485-0.511-0.697-0.738c-0.892-0.953-1.416-1.493-1.799-1.493
		c-0.128,0-0.272,0.056-0.454,0.178c-0.377,0.251-0.509,0.746-0.306,1.151l1.333,2.216c0.142,0.236,0.066,0.544-0.171,0.686
		C5.18,20.225,5.091,20.25,5,20.25c-0.175,0-0.339-0.093-0.429-0.243l-1.352-2.25c-0.153-0.304-0.224-0.626-0.213-0.947
		C3.003,16.797,3,16.776,3,16.75V13c0-0.552-0.449-1-1-1s-1,0.448-1,1v5.171c0,0.905,0.311,1.793,0.876,2.5l2.014,2.517
		c0.172,0.215,0.137,0.531-0.078,0.703C3.724,23.961,3.613,24,3.5,24z"/>
	<path d="M20.5,24c-0.113,0-0.224-0.039-0.312-0.109c-0.215-0.173-0.25-0.488-0.078-0.703l2.014-2.517
		c0.566-0.707,0.877-1.594,0.877-2.5V13c0-0.552-0.448-1-1-1s-1,0.448-1,1v3.75c0,0.012-0.001,0.027-0.004,0.042
		c0.014,0.323-0.054,0.644-0.197,0.93l-1.371,2.286c-0.09,0.15-0.254,0.243-0.429,0.243c-0.09,0-0.179-0.025-0.257-0.071
		c-0.237-0.142-0.313-0.45-0.172-0.686l1.352-2.252c0.185-0.372,0.046-0.871-0.325-1.118c-0.182-0.122-0.326-0.178-0.454-0.178
		c-0.384,0-0.909,0.542-1.804,1.499c-0.21,0.225-0.439,0.47-0.691,0.733c-0.426,0.651-0.65,1.407-0.649,2.186v3
		c0,0.276-0.224,0.5-0.5,0.5s-0.5-0.224-0.5-0.5v-3c-0.001-0.992,0.29-1.953,0.842-2.778c0.015-0.023,0.034-0.047,0.054-0.068
		c0.262-0.273,0.498-0.525,0.714-0.757c1.027-1.099,1.705-1.824,2.529-1.824c0.279,0,0.562,0.084,0.861,0.258V13
		c0-1.103,0.897-2,2-2s2,0.897,2,2v5.171c0,1.132-0.389,2.241-1.095,3.125l-2.014,2.517C20.794,23.932,20.652,24,20.5,24z"/>
	<path d="M7,14c-0.551,0-1-0.448-1-1V6c0-0.551,0.449-1,1-1h4V1.309c0-0.551,0.449-1,1-1c0.155,0,0.31,0.037,0.448,0.106L16,2.191
		V0.5C16,0.224,16.224,0,16.5,0S17,0.224,17,0.5v2.191l0.448,0.224C17.789,3.086,18,3.428,18,3.809V13c0,0.552-0.448,1-1,1H7z
		 M17,13V3.809l-5-2.5L12,5h1.5C13.776,5,14,5.224,14,5.5S13.776,6,13.5,6H12v1h3c0.276,0,0.5,0.224,0.5,0.5S15.276,8,15,8h-3v5h1
		v-1c0-0.551,0.448-1,1-1h1c0.552,0,1,0.449,1,1v1H17z M15,13v-1h-1l0,1H15z M7,13h4V6H7v1h1.5C8.776,7,9,7.224,9,7.5S8.776,8,8.5,8
		H7v1h1.5C8.776,9,9,9.224,9,9.5S8.776,10,8.5,10H7V13z"/>
</g>
</svg>
