<?xml version="1.0" encoding="utf-8"?>
<!-- Generator: Adobe Illustrator 22.1.0, SVG Export Plug-In . SVG Version: 6.00 Build 0)  -->
<svg version="1.1" id="Light" xmlns="http://www.w3.org/2000/svg" xmlns:xlink="http://www.w3.org/1999/xlink" x="0px" y="0px"
	 viewBox="0 0 24 24" style="enable-background:new 0 0 24 24;" xml:space="preserve">
<g>
	<title>real-estate-favorite-house-pick</title>
	<path d="M4,24c-0.551,0-1-0.448-1-1v-4.5C3,18.224,3.224,18,3.5,18S4,18.224,4,18.5V23h2v-2c0-1.103,0.897-2,2-2s2,0.897,2,2v2h2
		v-4.5c0-0.276,0.224-0.5,0.5-0.5c0.276,0,0.5,0.224,0.5,0.5V23c0,0.552-0.448,1-1,1H4z M9,23v-2c0-0.552-0.449-1-1-1s-1,0.448-1,1
		v2H9z"/>
	<path d="M15.5,17.5c-0.12,0-0.237-0.043-0.327-0.122L8,11.162l-7.172,6.216C0.737,17.457,0.621,17.5,0.5,17.5
		c-0.145,0-0.283-0.063-0.378-0.172c-0.181-0.209-0.158-0.525,0.05-0.706l7.173-6.216C7.527,10.25,7.759,10.164,8,10.164
		c0.241,0,0.473,0.086,0.654,0.242l7.174,6.216c0.208,0.181,0.23,0.497,0.051,0.705C15.782,17.437,15.645,17.5,15.5,17.5z"/>
	<path d="M18,24c-0.552,0-1-0.448-1-1v-2c0-0.276,0.224-0.5,0.5-0.5S18,20.724,18,21v2h4v-2c0-0.276,0.224-0.5,0.5-0.5
		S23,20.724,23,21v2c0,0.552-0.448,1-1,1H18z"/>
	<path d="M16.5,20.5c-0.146,0-0.285-0.064-0.38-0.175c-0.087-0.101-0.129-0.23-0.119-0.364c0.01-0.133,0.072-0.255,0.173-0.342
		l3.175-2.721c0.182-0.156,0.413-0.241,0.65-0.241s0.468,0.086,0.65,0.241l3.175,2.721c0.102,0.087,0.163,0.208,0.173,0.342
		c0.01,0.133-0.032,0.262-0.119,0.364c-0.095,0.111-0.233,0.175-0.38,0.175c-0.119,0-0.235-0.043-0.325-0.12L20,17.659l-3.175,2.721
		C16.735,20.457,16.619,20.5,16.5,20.5z"/>
	<path d="M5.5,10C4.673,10,4,9.327,4,8.5V5H3.5C1.57,5,0,3.43,0,1.5v-1C0,0.224,0.224,0,0.5,0S1,0.224,1,0.5v1
		C1,2.879,2.122,4,3.5,4h1C4.776,4,5,4.224,5,4.5v4C5,8.776,5.224,9,5.5,9S6,8.776,6,8.5V2.914C6,2.711,6.121,2.53,6.309,2.452
		C6.37,2.427,6.434,2.414,6.5,2.414c0.134,0,0.259,0.052,0.354,0.147l1.5,1.5c0.099,0.103,0.222,0.156,0.357,0.159
		c0.137-0.001,0.262-0.049,0.356-0.14c0.096-0.093,0.151-0.218,0.153-0.351s-0.047-0.26-0.14-0.356L6.56,0.854
		C6.466,0.759,6.414,0.634,6.414,0.5S6.466,0.241,6.56,0.146S6.78,0,6.914,0s0.259,0.052,0.354,0.146l2.527,2.527
		c0.282,0.292,0.431,0.671,0.424,1.072c-0.007,0.401-0.17,0.774-0.458,1.053C9.48,5.07,9.106,5.219,8.706,5.219
		C8.293,5.212,7.919,5.049,7.64,4.761L7,4.121V8.5C7,9.327,6.327,10,5.5,10z"/>
</g>
</svg>
