<?xml version="1.0" encoding="utf-8"?>
<!-- Generator: Adobe Illustrator 22.1.0, SVG Export Plug-In . SVG Version: 6.00 Build 0)  -->
<svg version="1.1" id="Light" xmlns="http://www.w3.org/2000/svg" xmlns:xlink="http://www.w3.org/1999/xlink" x="0px" y="0px"
	 viewBox="0 0 24 24" style="enable-background:new 0 0 24 24;" xml:space="preserve">
<g>
	<title>canoe</title>
	<path d="M21.645,22.779c-0.03,0-0.06-0.001-0.089-0.004c-2.096-0.194-9.315-1.208-14.218-6.113
		C2.432,11.756,1.419,4.54,1.225,2.445C1.175,1.896,1.58,1.408,2.129,1.357c0.03-0.003,0.061-0.004,0.092-0.004
		c0.03,0,0.061,0.001,0.091,0.004c2.098,0.196,9.32,1.217,14.217,6.114c4.904,4.904,5.918,12.121,6.112,14.216
		c0.025,0.265-0.055,0.525-0.226,0.731c-0.17,0.206-0.41,0.333-0.677,0.358C21.709,22.778,21.677,22.779,21.645,22.779z
		 M2.217,2.353c0.189,2.01,1.159,8.932,5.827,13.602c4.667,4.668,11.59,5.637,13.6,5.823c-0.186-2.011-1.155-8.934-5.823-13.602
		C11.162,3.518,4.235,2.542,2.221,2.353l0-0.25L2.217,2.353z"/>
	<path d="M14.047,17.177c-0.799,0-1.549-0.308-2.112-0.866l-2.831-2.831c-0.564-0.569-0.873-1.324-0.869-2.127
		C8.239,10.552,8.554,9.8,9.122,9.237c0.563-0.558,1.313-0.866,2.112-0.866c0.799,0,1.549,0.308,2.113,0.867l2.829,2.829
		c0.565,0.57,0.873,1.324,0.87,2.127c-0.003,0.802-0.318,1.554-0.886,2.117C15.596,16.87,14.846,17.177,14.047,17.177z M11.234,9.37
		c-0.533,0-1.033,0.205-1.408,0.577c-0.379,0.375-0.589,0.877-0.591,1.412c-0.002,0.535,0.203,1.038,0.578,1.417l2.827,2.828
		c0.374,0.371,0.874,0.575,1.406,0.575c0.533,0,1.033-0.205,1.408-0.577c0.783-0.776,0.788-2.045,0.012-2.828l-2.827-2.827
		C12.267,9.575,11.767,9.37,11.234,9.37z"/>
	<path d="M2.634,23.931c-0.285,0-0.564-0.081-0.805-0.234c-0.092-0.059-0.178-0.128-0.256-0.205l-1.065-1.065
		c-0.585-0.584-0.585-1.536-0.001-2.121c0.078-0.078,0.164-0.146,0.256-0.205l2.5-1.714c0.256-0.163,0.534-0.245,0.817-0.245
		c0.294,0,0.579,0.087,0.823,0.248l1.176-1.176c0.094-0.094,0.22-0.146,0.354-0.146s0.259,0.052,0.354,0.146
		c0.195,0.195,0.195,0.512,0,0.707l-1.175,1.175c0.323,0.487,0.337,1.128,0.016,1.632L3.89,23.252
		C3.621,23.675,3.15,23.931,2.634,23.931z M4.084,19.141c-0.094,0-0.186,0.027-0.267,0.078l-2.502,1.715
		c-0.044,0.028-0.074,0.052-0.1,0.078c-0.195,0.195-0.194,0.512,0.001,0.707l1.065,1.065c0.026,0.026,0.055,0.049,0.086,0.069
		c0.08,0.051,0.172,0.077,0.267,0.077c0.173,0,0.331-0.086,0.423-0.231l1.738-2.524c0.119-0.187,0.089-0.44-0.078-0.607l-0.28-0.28
		C4.342,19.194,4.216,19.141,4.084,19.141z"/>
	<path d="M17.433,7.067c-0.134,0-0.259-0.052-0.354-0.146c-0.195-0.195-0.195-0.512,0-0.707l1.31-1.31
		c-0.326-0.491-0.336-1.12-0.009-1.63l1.737-2.527c0.207-0.326,0.539-0.557,0.93-0.644c0.108-0.024,0.218-0.036,0.328-0.036
		c0.284,0,0.561,0.081,0.803,0.235c0.092,0.059,0.177,0.127,0.255,0.204l1.065,1.066c0.283,0.283,0.439,0.66,0.44,1.06
		c0,0.401-0.156,0.778-0.439,1.061c-0.078,0.078-0.164,0.147-0.255,0.205l-2.505,1.719c-0.257,0.164-0.537,0.246-0.822,0.246
		c-0.292,0-0.576-0.088-0.821-0.252l-1.31,1.31C17.692,7.015,17.567,7.067,17.433,7.067z M21.374,1.067
		c-0.037,0-0.074,0.004-0.11,0.012c-0.13,0.029-0.241,0.107-0.313,0.219l-1.738,2.529c-0.121,0.188-0.092,0.441,0.074,0.609
		l0.278,0.278c0.095,0.095,0.22,0.147,0.352,0.147c0.094,0,0.187-0.027,0.268-0.078l2.507-1.72c0.043-0.028,0.073-0.052,0.1-0.078
		c0.194-0.195,0.194-0.512-0.001-0.706l-1.065-1.065c-0.026-0.026-0.055-0.049-0.086-0.069C21.561,1.094,21.468,1.067,21.374,1.067z
		"/>
</g>
</svg>
