<?xml version="1.0" encoding="utf-8"?>
<!-- Generator: Adobe Illustrator 22.1.0, SVG Export Plug-In . SVG Version: 6.00 Build 0)  -->
<svg version="1.1" id="Light" xmlns="http://www.w3.org/2000/svg" xmlns:xlink="http://www.w3.org/1999/xlink" x="0px" y="0px"
	 viewBox="0 0 24 24" style="enable-background:new 0 0 24 24;" xml:space="preserve">
<g>
	<title>canoe-person-1</title>
	<path d="M15.999,7.69c-1.654,0-3-1.346-3-3s1.346-3,3-3s3,1.346,3,3S17.654,7.69,15.999,7.69z M15.999,2.69c-1.103,0-2,0.897-2,2
		s0.897,2,2,2s2-0.897,2-2S17.102,2.69,15.999,2.69z"/>
	<path d="M4.138,18.266c-0.171,0-0.328-0.086-0.421-0.229L2.074,15.48c-0.144-0.225-0.193-0.493-0.135-0.754
		c0.057-0.261,0.213-0.484,0.437-0.628c0.161-0.104,0.348-0.158,0.54-0.158h4.643l2.819-4.026c0.945-1.335,2.475-2.131,4.095-2.131
		c0.778,0,1.53,0.177,2.236,0.526l2.687,1.347c0.987,0.484,1.396,1.685,0.911,2.675c-0.235,0.479-0.643,0.839-1.149,1.012
		c-0.21,0.072-0.428,0.109-0.648,0.109c-0.287,0-0.566-0.061-0.829-0.182l-0.47,0.672H22c0.276,0,0.5,0.224,0.5,0.5
		s-0.224,0.5-0.5,0.5H16.51l-2.104,3.007c-0.093,0.134-0.247,0.213-0.41,0.213c-0.103,0-0.202-0.031-0.286-0.09
		c-0.11-0.077-0.183-0.191-0.206-0.323c-0.023-0.132,0.006-0.265,0.083-0.374l1.703-2.434h-3.764
		c-0.015,0.003-0.031,0.004-0.044,0.004c-0.02,0-0.037-0.002-0.05-0.004H2.915l1.643,2.556c0.072,0.113,0.096,0.246,0.068,0.377
		c-0.028,0.131-0.106,0.242-0.219,0.314C4.328,18.238,4.234,18.266,4.138,18.266z M15.989,13.94l0.786-1.123l-1.854-0.927
		c-0.14-0.069-0.29-0.104-0.446-0.104c-0.325,0-0.633,0.16-0.823,0.427l-1.208,1.726H15.989z M11.224,13.94l1.611-2.302
		c0.379-0.534,0.991-0.852,1.639-0.852c0.31,0,0.61,0.07,0.891,0.208l2.687,1.344c0.149,0.073,0.305,0.111,0.461,0.111
		c0.108,0,0.216-0.018,0.32-0.053c0.252-0.086,0.456-0.266,0.574-0.506c0.243-0.495,0.038-1.095-0.458-1.338l-2.688-1.348
		c-0.564-0.279-1.167-0.42-1.789-0.42c-1.297,0-2.523,0.638-3.279,1.706L8.779,13.94H11.224z"/>
	<path d="M1.185,22.315c-0.262,0-0.525-0.028-0.783-0.082c-0.27-0.058-0.443-0.323-0.385-0.593c0.048-0.23,0.254-0.396,0.489-0.396
		c0.035,0,0.07,0.004,0.104,0.011c0.185,0.039,0.375,0.059,0.565,0.059c1.86,0,3.379-1.881,3.394-1.9
		c0.093-0.119,0.239-0.19,0.388-0.19c0.005,0,0.025,0.001,0.031,0.001c0.154,0.006,0.302,0.09,0.391,0.224
		c0.719,1.085,1.924,1.77,3.225,1.831c1.361-0.071,2.647-0.749,3.502-1.86c0.094-0.123,0.242-0.196,0.394-0.196
		c0.009,0,0.041,0.002,0.049,0.002c0.167,0.014,0.316,0.114,0.396,0.266c0.563,1.079,1.668,1.763,2.885,1.786
		c1.294-0.031,2.49-0.711,3.188-1.821c0.093-0.146,0.251-0.233,0.423-0.233c0.173,0,0.332,0.088,0.424,0.234
		c0.011,0.017,1.178,1.815,2.963,1.815c0.188,0,0.381-0.02,0.571-0.06c0.033-0.007,0.068-0.011,0.104-0.011
		c0.235,0,0.44,0.167,0.488,0.398c0.027,0.13,0.002,0.264-0.071,0.376c-0.073,0.112-0.186,0.188-0.316,0.216
		c-0.266,0.055-0.534,0.084-0.798,0.084c0,0,0,0,0,0c-1.618,0-2.788-1.061-3.357-1.718c-0.904,1.065-2.204,1.688-3.616,1.721
		c-1.354-0.025-2.597-0.662-3.394-1.721c-1.01,1.025-2.39,1.648-3.833,1.721c-1.445-0.066-2.762-0.708-3.677-1.772
		C4.26,21.178,2.882,22.315,1.185,22.315L1.185,22.315z"/>
</g>
</svg>
