<?xml version="1.0" encoding="utf-8"?>
<!-- Generator: Adobe Illustrator 22.1.0, SVG Export Plug-In . SVG Version: 6.00 Build 0)  -->
<svg version="1.1" id="Light" xmlns="http://www.w3.org/2000/svg" xmlns:xlink="http://www.w3.org/1999/xlink" x="0px" y="0px"
	 viewBox="0 0 24 24" style="enable-background:new 0 0 24 24;" xml:space="preserve">
<g>
	<title>canoe-paddles-1</title>
	<path d="M8.25,24c-0.827,0-1.5-0.673-1.5-1.5c0-0.64,0.41-1.205,1-1.414v-9.383l-1.562-1.251C5.591,9.975,5.25,9.263,5.25,8.5V3
		c0-1.654,1.346-3,3-3s3,1.346,3,3v5.5c0,0.763-0.341,1.475-0.938,1.952L8.75,11.702v9.384c0.59,0.209,1,0.774,1,1.414
		C9.75,23.327,9.077,24,8.25,24z M8.25,22c-0.276,0-0.5,0.224-0.5,0.5S7.974,23,8.25,23s0.5-0.224,0.5-0.5S8.526,22,8.25,22z
		 M6.25,8.5c0,0.458,0.205,0.885,0.562,1.172l1.437,1.15l1.438-1.15C10.045,9.385,10.25,8.958,10.25,8.5V5h-4V8.5z M10.25,4V3
		c0-1.103-0.897-2-2-2s-2,0.897-2,2v1H10.25z"/>
	<path d="M15.75,24c-1.654,0-3-1.346-3-3v-5.5c0-0.764,0.342-1.475,0.938-1.952l1.562-1.25V2.914c-0.59-0.209-1-0.774-1-1.414
		c0-0.827,0.673-1.5,1.5-1.5s1.5,0.673,1.5,1.5c0,0.64-0.41,1.205-1,1.414v9.384l1.562,1.25c0.596,0.477,0.938,1.188,0.938,1.952V21
		C18.75,22.654,17.404,24,15.75,24z M13.75,21c0,1.103,0.897,2,2,2s2-0.897,2-2v-1h-4V21z M17.75,19v-3.5
		c0-0.458-0.205-0.885-0.563-1.171l-1.437-1.15l-1.438,1.15c-0.358,0.286-0.563,0.713-0.562,1.171V19H17.75z M15.75,1
		c-0.276,0-0.5,0.224-0.5,0.5S15.474,2,15.75,2s0.5-0.224,0.5-0.5S16.026,1,15.75,1z"/>
</g>
</svg>
