<?xml version="1.0" encoding="utf-8"?>
<!-- Generator: Adobe Illustrator 22.1.0, SVG Export Plug-In . SVG Version: 6.00 Build 0)  -->
<svg version="1.1" id="Light" xmlns="http://www.w3.org/2000/svg" xmlns:xlink="http://www.w3.org/1999/xlink" x="0px" y="0px"
	 viewBox="0 0 24 24" style="enable-background:new 0 0 24 24;" xml:space="preserve">
<g>
	<title>canoe-3</title>
	<path d="M19.5,24c-0.276,0-0.5-0.224-0.5-0.5v-2.984c0-1.199,0.845-2.215,2-2.449V0.5C21,0.224,21.224,0,21.5,0S22,0.224,22,0.5
		v17.567c1.155,0.234,2,1.25,2,2.449V23.5c0,0.276-0.224,0.5-0.5,0.5H19.5z M23,23v-2.484c0-0.827-0.673-1.5-1.5-1.5
		s-1.5,0.673-1.5,1.5V23H23z"/>
	<path d="M2.5,24C2.224,24,2,23.776,2,23.5V5.933c-1.155-0.234-2-1.25-2-2.449V0.5C0,0.224,0.224,0,0.5,0h4C4.776,0,5,0.224,5,0.5
		v2.984c0,1.199-0.845,2.215-2,2.449V23.5C3,23.776,2.776,24,2.5,24z M1,3.484c0,0.827,0.673,1.5,1.5,1.5S4,4.311,4,3.484V1H1V3.484
		z"/>
	<path d="M12,24c-3.86,0-7-3.14-7-7V7.814c0.001-0.973,0.412-1.908,1.126-2.567l3.5-3.231C10.27,1.421,11.113,1.093,12,1.093
		c0.887,0,1.73,0.328,2.374,0.922l3.5,3.231C18.588,5.906,18.999,6.841,19,7.813V17C19,20.86,15.86,24,12,24z M12,2.092
		c-0.634,0-1.236,0.234-1.696,0.658l-3.5,3.231C6.294,6.452,6.001,7.12,6,7.815V17c0,3.308,2.692,6,6,6c3.308,0,6-2.692,6-6V7.814
		c-0.001-0.694-0.294-1.362-0.804-1.833l-3.5-3.231C13.236,2.326,12.634,2.092,12,2.092z"/>
	<path d="M12,21.485c-2.74,0-4.979-2.225-4.999-4.963C7,16.515,7,16.507,7,16.5c0-0.006,0-8.089,0-8.089
		C6.997,7.694,7.297,7.001,7.823,6.513l2.428-2.245c0.475-0.439,1.098-0.681,1.752-0.681c0.654,0,1.276,0.242,1.752,0.681
		l2.423,2.244c0.527,0.49,0.827,1.182,0.822,1.901c0,0,0,8.082,0,8.087c0,0.007,0,0.015-0.001,0.023
		C16.978,19.261,14.739,21.485,12,21.485z M8.038,17c0.255,1.975,1.946,3.485,3.962,3.485s3.707-1.51,3.962-3.485H8.038z M16,16v-3
		H8v3H16z M16,12V9H8v3H16z M15.948,8c-0.075-0.288-0.23-0.55-0.45-0.755l-2.422-2.243c-0.29-0.269-0.671-0.417-1.073-0.417
		c-0.401,0-0.782,0.148-1.073,0.417L8.502,7.246C8.283,7.45,8.128,7.712,8.053,8H15.948z"/>
</g>
</svg>
