<?xml version="1.0" encoding="utf-8"?>
<!-- Generator: Adobe Illustrator 22.1.0, SVG Export Plug-In . SVG Version: 6.00 Build 0)  -->
<svg version="1.1" id="Light" xmlns="http://www.w3.org/2000/svg" xmlns:xlink="http://www.w3.org/1999/xlink" x="0px" y="0px"
	 viewBox="0 0 24 24" style="enable-background:new 0 0 24 24;" xml:space="preserve">
<g>
	<title>ambulance-car</title>
	<path d="M18.999,22c-1.199,0-2.215-0.845-2.449-2H7.449C7.215,21.155,6.199,22,5,22s-2.215-0.845-2.449-2H1c-0.551,0-1-0.448-1-1
		v-4.172c0-0.668,0.26-1.295,0.733-1.767l1.364-1.365l2.181-3.925C4.543,7.295,5.045,7,5.589,7H9V4.5C9,3.121,10.121,2,11.5,2
		C12.878,2,14,3.121,14,4.5V5h9c0.552,0,1,0.449,1,1v13c0,0.552-0.448,1-1,1h-1.552C21.214,21.155,20.198,22,18.999,22z M18.999,18
		c-0.827,0-1.5,0.673-1.5,1.5s0.673,1.5,1.5,1.5s1.5-0.673,1.5-1.5S19.826,18,18.999,18z M5,18c-0.827,0-1.5,0.673-1.5,1.5
		S4.173,21,5,21s1.5-0.673,1.5-1.5S5.827,18,5,18z M23,19v-1h-2.002c0.222,0.295,0.376,0.635,0.45,1H23z M16.55,19
		c0.074-0.365,0.228-0.705,0.45-1H6.999c0.222,0.295,0.376,0.635,0.45,1H16.55z M1,19h1.551c0.074-0.365,0.228-0.705,0.45-1H1V19z
		 M23,17V6H10v1.5c0,0.007,0,0.014-0.001,0.021v4.457C10,11.986,10,11.993,10,12s0,0.014-0.001,0.021V17H23z M8.999,17v-4.5H2.707
		L1.44,13.768C1.156,14.051,1,14.427,1,14.828V17H8.999z M8.999,11.5V8h-3.41C5.408,8,5.24,8.099,5.152,8.257L3.35,11.5H8.999z
		 M13,5V4.5C13,3.673,12.327,3,11.5,3S10,3.673,10,4.5V5H13z"/>
	<path d="M16,15c-0.552,0-1-0.448-1-1v-1h-1c-0.552,0-1-0.448-1-1v-1c0-0.551,0.448-1,1-1h1V9c0-0.551,0.448-1,1-1h1
		c0.552,0,1,0.449,1,1v1h1c0.552,0,1,0.449,1,1v1c0,0.552-0.448,1-1,1h-1v1c0,0.552-0.448,1-1,1H16z M14,12h1.5
		c0.276,0,0.5,0.224,0.5,0.5V14h1v-1.5c0-0.276,0.224-0.5,0.5-0.5H19v-1h-1.5c-0.276,0-0.5-0.224-0.5-0.5V9h-1v1.5
		c0,0.276-0.224,0.5-0.5,0.5H14L14,12z"/>
</g>
</svg>
