<?xml version="1.0" encoding="utf-8"?>
<!-- Generator: Adobe Illustrator 22.1.0, SVG Export Plug-In . SVG Version: 6.00 Build 0)  -->
<svg version="1.1" id="Light" xmlns="http://www.w3.org/2000/svg" xmlns:xlink="http://www.w3.org/1999/xlink" x="0px" y="0px"
	 viewBox="0 0 24 24" style="enable-background:new 0 0 24 24;" xml:space="preserve">
<g>
	<title>famous-character-uzumaki-naruto</title>
	<path d="M23,23.975c-0.276,0-0.5-0.224-0.5-0.5v-1.106c0.003-0.444-0.196-0.87-0.535-1.152l-2.611,2.611
		c-0.094,0.094-0.22,0.146-0.354,0.146s-0.259-0.052-0.354-0.146c-0.195-0.195-0.195-0.512,0-0.707l2.481-2.481
		c-0.638-0.392-1.356-0.739-2.14-1.032c-1.104,1.494-2.686,2.578-4.488,3.074v0.793c0,0.276-0.224,0.5-0.5,0.5s-0.5-0.224-0.5-0.5
		v-0.583c-0.333,0.049-0.668,0.078-1,0.086v0.496c0,0.276-0.224,0.5-0.5,0.5c-0.276,0-0.5-0.224-0.5-0.5v-0.5
		c-0.334-0.007-0.668-0.034-1-0.083v0.582c0,0.276-0.224,0.5-0.5,0.5s-0.5-0.224-0.5-0.5v-0.792c-1.8-0.496-3.381-1.579-4.486-3.073
		c-0.783,0.294-1.501,0.64-2.141,1.032l2.48,2.48c0.195,0.195,0.195,0.512,0,0.707C5.259,23.923,5.134,23.975,5,23.975
		s-0.259-0.052-0.354-0.146l-2.611-2.611c-0.338,0.28-0.538,0.706-0.535,1.148v1.109c0,0.276-0.224,0.5-0.5,0.5s-0.5-0.224-0.5-0.5
		v-1.106c-0.005-0.766,0.356-1.505,0.964-1.976C2.893,19.303,6.16,17.475,12,17.475c5.852,0,9.112,1.828,10.534,2.917
		c0.61,0.471,0.971,1.211,0.966,1.98v1.103C23.5,23.751,23.276,23.975,23,23.975z M10.5,21.877c0.331,0.055,0.666,0.088,1,0.097
		v-3.493c-0.339,0.006-0.674,0.019-1,0.038V21.877z M12.5,21.974c0.335-0.01,0.67-0.043,1-0.098v-3.356
		c-0.327-0.019-0.661-0.032-1-0.038V21.974z M6.017,19.273c0.897,1.104,2.115,1.93,3.483,2.363V18.6
		C8.259,18.727,7.09,18.953,6.017,19.273z M14.5,21.635c1.369-0.434,2.587-1.26,3.484-2.364c-1.073-0.319-2.242-0.545-3.484-0.672
		V21.635z"/>
	<path d="M10.457,11.506c-0.092,0-0.182-0.025-0.26-0.073c-0.531-0.323-1.14-0.505-1.762-0.527c-0.276-0.01-0.492-0.241-0.482-0.517
		c0.009-0.266,0.23-0.483,0.492-0.483c0.006,0,0.029,0.001,0.035,0.001c0.783,0.027,1.561,0.26,2.238,0.672
		c0.114,0.069,0.194,0.179,0.226,0.309c0.031,0.13,0.011,0.264-0.059,0.378C10.793,11.416,10.633,11.506,10.457,11.506z"/>
	<path d="M13.5,11.475c-0.177,0-0.342-0.094-0.431-0.246c-0.14-0.238-0.06-0.545,0.177-0.684c0.663-0.39,1.419-0.61,2.188-0.638
		c0,0,0,0,0,0c0.286,0,0.508,0.212,0.517,0.482c0.005,0.133-0.042,0.26-0.134,0.358c-0.091,0.098-0.214,0.154-0.348,0.159
		c-0.603,0.022-1.197,0.195-1.717,0.5C13.676,11.451,13.589,11.475,13.5,11.475z"/>
	<path d="M12,16.975c-1.83,0-3.585-0.781-4.818-2.142c-0.032-0.029-0.059-0.059-0.081-0.093c0,0,0,0,0-0.001
		c-0.482-0.553-0.864-1.177-1.136-1.855c-0.008-0.013-0.018-0.033-0.026-0.058c-0.002-0.007-0.005-0.015-0.006-0.024
		C5.646,12.057,5.5,11.274,5.5,10.475V5.758L3.761,4.714C3.589,4.61,3.467,4.447,3.419,4.252C3.37,4.057,3.4,3.856,3.504,3.684
		c0.103-0.172,0.267-0.293,0.461-0.341l0.929-0.232L4.607,1.966c-0.025-0.099-0.029-0.2-0.013-0.301
		c0.06-0.366,0.371-0.631,0.741-0.631c0.04,0,0.08,0.003,0.121,0.01L7.66,1.411l0.274-0.825C7.946,0.553,7.959,0.52,7.975,0.488
		c0.129-0.256,0.386-0.415,0.672-0.415c0.115,0,0.231,0.027,0.335,0.079l1.483,0.745l1.119-0.747
		C11.708,0.068,11.852,0.025,12,0.025c0.148,0,0.292,0.043,0.416,0.126l1.12,0.747l1.482-0.744c0.039-0.019,0.073-0.033,0.108-0.044
		c0.074-0.024,0.151-0.036,0.228-0.036c0.118,0,0.237,0.029,0.343,0.084c0.178,0.092,0.309,0.247,0.371,0.438l0.272,0.816
		l2.202-0.368c0.041-0.007,0.082-0.01,0.123-0.01c0.06,0,0.121,0.007,0.18,0.022c0.195,0.048,0.359,0.169,0.463,0.341
		c0.104,0.172,0.134,0.373,0.086,0.568l-0.287,1.146l0.929,0.232c0.194,0.048,0.358,0.17,0.461,0.342
		c0.103,0.172,0.133,0.374,0.084,0.568c-0.049,0.195-0.17,0.358-0.342,0.461L18.5,5.758v4.717c0,0.799-0.146,1.582-0.433,2.328
		c-0.002,0.01-0.005,0.02-0.008,0.029c-0.007,0.021-0.016,0.039-0.023,0.051c-0.272,0.679-0.654,1.304-1.137,1.858
		c-0.001,0.002-0.003,0.004-0.004,0.006c-0.018,0.028-0.044,0.058-0.076,0.086C15.586,16.194,13.83,16.975,12,16.975z M8.301,14.541
		c1.016,0.927,2.318,1.434,3.699,1.434c1.381,0,2.683-0.507,3.698-1.434l-0.976-0.65c-0.111-0.074-0.187-0.187-0.213-0.318
		c-0.026-0.131,0-0.264,0.074-0.375c0.093-0.139,0.248-0.223,0.416-0.223c0.099,0,0.194,0.029,0.277,0.084l1.105,0.736
		c0.196-0.259,0.369-0.535,0.518-0.826l-1.558-0.519c-0.261-0.087-0.403-0.371-0.316-0.632c0.068-0.205,0.259-0.343,0.474-0.343
		c0.054,0,0.108,0.009,0.159,0.026l1.614,0.538c0.151-0.508,0.228-1.033,0.228-1.563v-1.5h-11v1.5c0,0.531,0.077,1.056,0.228,1.563
		l1.614-0.538c0.05-0.017,0.104-0.026,0.158-0.026c0.215,0,0.406,0.138,0.474,0.342c0.042,0.127,0.033,0.262-0.027,0.382
		c-0.06,0.119-0.162,0.208-0.289,0.251L7.1,12.969c0.149,0.291,0.322,0.568,0.518,0.826l1.105-0.736
		C8.805,13.004,8.901,12.975,9,12.975c0.168,0,0.323,0.083,0.416,0.223c0.074,0.111,0.1,0.245,0.074,0.376
		c-0.026,0.131-0.102,0.244-0.213,0.318L8.301,14.541z M17.5,7.975v-2h-3v2H17.5z M13.5,7.975v-2h-3v2H13.5z M9.5,7.975v-2h-3v2H9.5
		z M17.861,4.975l1.346-0.808L18.379,3.96c-0.13-0.032-0.239-0.113-0.308-0.228c-0.069-0.115-0.089-0.249-0.056-0.379l0.315-1.26
		l-2.248,0.375C16.054,2.473,16.027,2.475,16,2.475c-0.216,0-0.406-0.137-0.474-0.342L15.208,1.18l-1.484,0.742
		c-0.069,0.035-0.146,0.053-0.224,0.053c-0.099,0-0.195-0.029-0.278-0.084L12,1.076l-1.223,0.815
		c-0.083,0.055-0.178,0.084-0.277,0.084c-0.078,0-0.155-0.018-0.224-0.053L8.792,1.177L8.475,2.133
		C8.406,2.338,8.216,2.475,8.001,2.475c-0.028,0-0.056-0.002-0.085-0.007L5.67,2.093l0.315,1.261
		c0.032,0.13,0.012,0.264-0.057,0.379C5.86,3.847,5.751,3.927,5.621,3.96L4.793,4.167l1.346,0.808H17.861z"/>
</g>
</svg>
