<?xml version="1.0" encoding="utf-8"?>
<!-- Generator: Adobe Illustrator 22.1.0, SVG Export Plug-In . SVG Version: 6.00 Build 0)  -->
<svg version="1.1" id="Light" xmlns="http://www.w3.org/2000/svg" xmlns:xlink="http://www.w3.org/1999/xlink" x="0px" y="0px"
	 viewBox="0 0 24 24" style="enable-background:new 0 0 24 24;" xml:space="preserve">
<g>
	<title>famous-character-power-ranger</title>
	<path d="M23,23.998c-0.276,0-0.5-0.224-0.5-0.5v-3.106c0.003-0.461-0.212-0.903-0.575-1.183c-0.48-0.366-1.278-0.889-2.425-1.372
		v5.661c0,0.276-0.224,0.5-0.5,0.5s-0.5-0.224-0.5-0.5v-2c0-0.827-0.673-1.5-1.5-1.5h-2c-0.827,0-1.5,0.673-1.5,1.5v2
		c0,0.276-0.224,0.5-0.5,0.5s-0.5-0.224-0.5-0.5v-2c0-1.378,1.122-2.5,2.5-2.5h2c0.549,0,1.072,0.178,1.5,0.501V17.46
		c-0.902-0.303-1.88-0.538-2.913-0.698c-0.404,0.826-1.076,1.487-1.912,1.872c-0.532,0.245-1.095,0.37-1.674,0.37
		c-0.471,0-0.937-0.084-1.386-0.249c-0.958-0.353-1.751-1.073-2.202-1.993c-1.033,0.161-2.011,0.396-2.914,0.7v2.037
		c0.428-0.323,0.952-0.501,1.5-0.501h2c1.379,0,2.5,1.122,2.5,2.5v2c0,0.276-0.224,0.5-0.5,0.5s-0.5-0.224-0.5-0.5v-2
		c0-0.827-0.673-1.5-1.5-1.5H7c-0.827,0-1.5,0.673-1.5,1.5v2c0,0.276-0.224,0.5-0.5,0.5s-0.5-0.224-0.5-0.5V17.84
		c-1.146,0.483-1.945,1.004-2.427,1.371C1.711,19.489,1.497,19.93,1.5,20.388v3.109c0,0.276-0.224,0.5-0.5,0.5s-0.5-0.224-0.5-0.5
		v-3.106c-0.005-0.767,0.355-1.506,0.965-1.975c0.638-0.485,1.735-1.185,3.348-1.772c2.101-0.763,4.515-1.147,7.188-1.147
		c5.839,0,9.105,1.828,10.533,2.917c0.611,0.471,0.972,1.21,0.967,1.98v3.103C23.5,23.773,23.276,23.998,23,23.998z M9.478,16.625
		c0.351,0.548,0.867,0.965,1.484,1.192c0.336,0.124,0.686,0.187,1.039,0.187c0.433,0,0.856-0.093,1.255-0.277
		c0.529-0.244,0.962-0.622,1.268-1.102c-0.81-0.084-1.658-0.126-2.525-0.126C11.135,16.498,10.288,16.54,9.478,16.625z"/>
	<path d="M13.5,11.079c-0.124,0-0.243-0.046-0.335-0.129c-0.322-0.291-0.739-0.451-1.174-0.451c-0.421,0-0.828,0.151-1.146,0.426
		c-0.091,0.079-0.207,0.122-0.327,0.122c0,0,0,0,0,0c-0.145,0-0.283-0.063-0.378-0.173c-0.18-0.208-0.157-0.525,0.051-0.705
		c0.499-0.432,1.138-0.669,1.8-0.669c0.684,0,1.339,0.252,1.844,0.708c0.205,0.185,0.22,0.502,0.036,0.706
		C13.776,11.019,13.641,11.079,13.5,11.079z"/>
	<path d="M12,14.998c-3.454,0-6.268-2.656-6.485-6.081C4.917,8.712,4.5,8.144,4.5,7.498v-2c0-0.827,0.673-1.5,1.5-1.5
		c0.706-1.703,2.097-3.023,3.84-3.637c0.702-0.247,1.43-0.372,2.165-0.372c0.972,0,1.915,0.216,2.803,0.641
		c1.447,0.693,2.574,1.885,3.189,3.369H18c0.827,0,1.5,0.673,1.5,1.5v2c0,0.646-0.417,1.214-1.015,1.419
		C18.268,12.342,15.454,14.998,12,14.998z M6.523,8.998c0.253,2.824,2.61,5,5.477,5c2.866,0,5.223-2.176,5.477-5h-1.006
		c-0.179,1.639-1.218,3.029-2.757,3.662c-0.183,0.075-0.375,0.113-0.572,0.113c-0.237,0-0.474-0.057-0.685-0.166
		c-0.14-0.072-0.298-0.11-0.457-0.11c-0.159,0-0.317,0.038-0.457,0.11c-0.212,0.108-0.449,0.166-0.685,0.166
		c-0.197,0-0.389-0.038-0.572-0.113c-1.539-0.634-2.579-2.024-2.757-3.662H6.523z M8.536,8.998c0.173,1.225,0.971,2.26,2.131,2.738
		c0.061,0.025,0.125,0.038,0.191,0.038c0.079,0,0.158-0.019,0.228-0.055c0.281-0.144,0.597-0.22,0.914-0.22
		c0.317,0,0.633,0.076,0.913,0.22c0.071,0.036,0.15,0.055,0.229,0.055c0.065,0,0.129-0.013,0.19-0.038
		c1.161-0.478,1.959-1.512,2.132-2.738H8.536z M6,4.998c-0.276,0-0.5,0.224-0.5,0.5v2c0,0.276,0.224,0.5,0.5,0.5h12
		c0.276,0,0.5-0.224,0.5-0.5v-2c0-0.276-0.224-0.5-0.5-0.5H6z M16.896,3.998c-0.181-0.359-0.399-0.694-0.651-1H7.752
		c-0.254,0.309-0.473,0.644-0.653,1H16.896z M15.173,1.998c-0.251-0.177-0.518-0.333-0.797-0.467
		c-0.752-0.36-1.55-0.543-2.372-0.543c-0.621,0-1.238,0.106-1.832,0.316c-0.483,0.17-0.933,0.402-1.346,0.694H15.173z"/>
	<path d="M7.5,6.998c-0.276,0-0.5-0.224-0.5-0.5s0.224-0.5,0.5-0.5h9c0.276,0,0.5,0.224,0.5,0.5s-0.224,0.5-0.5,0.5H7.5z"/>
</g>
</svg>
