<?xml version="1.0" encoding="utf-8"?>
<!-- Generator: Adobe Illustrator 22.1.0, SVG Export Plug-In . SVG Version: 6.00 Build 0)  -->
<svg version="1.1" id="Light" xmlns="http://www.w3.org/2000/svg" xmlns:xlink="http://www.w3.org/1999/xlink" x="0px" y="0px"
	 viewBox="0 0 24 24" style="enable-background:new 0 0 24 24;" xml:space="preserve">
<g>
	<title>famous-character-batman-1</title>
	<path d="M12.001,19.613c-0.179,0-0.345-0.097-0.434-0.252c-0.519-0.908-0.94-1.68-1.312-2.36c-1.094-2.002-1.597-2.887-2.07-2.887
		c-0.06,0-0.127,0.012-0.203,0.036c-0.348,0.105-0.557,0.668-0.512,1.371c0.015,0.238-0.141,0.455-0.371,0.516
		c-0.041,0.011-0.084,0.017-0.128,0.017c-0.19,0-0.367-0.11-0.45-0.281c-0.505-1.041-1.271-1.585-1.766-1.585
		c-0.089,0-0.172,0.017-0.246,0.051c-0.498,0.238-0.647,1.395-0.094,2.585c0.048,0.103,0.101,0.205,0.157,0.303
		c0.098,0.167,0.126,0.367,0.076,0.561c-0.05,0.194-0.173,0.356-0.345,0.458c-0.115,0.068-0.246,0.104-0.38,0.104
		c-0.161,0-0.314-0.051-0.444-0.146c-2.05-1.283-3.356-3.516-3.477-5.964c-0.001-3.3,2.697-6.323,6.872-7.713
		C6.951,4.4,7.031,4.387,7.111,4.387c0.115,0,0.231,0.027,0.335,0.079C7.626,4.556,7.759,4.71,7.822,4.9
		c0.046,0.137,0.051,0.284,0.015,0.425l-0.381,1.53c-0.197,0.89,0.052,1.836,0.667,2.524c0.09,0.103,0.213,0.163,0.346,0.172
		l0.033,0.001c0.123,0,0.237-0.043,0.33-0.125c0.108-0.095,0.17-0.232,0.17-0.375V5.614c0-0.414,0.336-0.75,0.75-0.75
		c0.161,0,0.321,0.053,0.45,0.15l1.467,1.1h0.667l1.467-1.1c0.13-0.098,0.285-0.15,0.448-0.15c0.036,0,0.073,0.003,0.109,0.008
		c0.198,0.028,0.373,0.132,0.493,0.292c0.097,0.129,0.15,0.289,0.15,0.45v3.439c0,0.134,0.052,0.259,0.146,0.354
		c0.094,0.095,0.22,0.147,0.354,0.147c0.147-0.005,0.283-0.065,0.375-0.169c0.618-0.69,0.867-1.64,0.667-2.542l-0.379-1.522
		c-0.103-0.397,0.139-0.806,0.539-0.91c0.062-0.016,0.125-0.024,0.189-0.024c0.081,0,0.16,0.013,0.237,0.038
		c4.175,1.39,6.873,4.408,6.873,7.688c0,0.005,0,0.022-0.001,0.027c-0.121,2.444-1.432,4.682-3.508,5.983
		c-0.107,0.078-0.252,0.124-0.406,0.124l0,0c-0.188,0-0.368-0.069-0.506-0.193c-0.264-0.238-0.325-0.619-0.15-0.928
		c0.056-0.098,0.109-0.2,0.158-0.305c0.552-1.189,0.401-2.346-0.102-2.586c-0.07-0.032-0.151-0.049-0.239-0.049
		c-0.495,0-1.261,0.545-1.766,1.586c-0.083,0.171-0.259,0.282-0.45,0.282c-0.043,0-0.086-0.006-0.128-0.017
		c-0.23-0.061-0.386-0.277-0.371-0.515c0.045-0.692-0.168-1.268-0.505-1.369c-0.075-0.024-0.139-0.034-0.198-0.034
		c-0.488,0-1.025,0.945-2.099,2.911c-0.367,0.672-0.783,1.434-1.296,2.333C12.346,19.516,12.18,19.613,12.001,19.613z M8.203,13.108
		c1.064,0,1.687,1.14,2.929,3.412c0.26,0.477,0.545,0.997,0.869,1.577c0.317-0.567,0.597-1.079,0.853-1.548
		c1.251-2.291,1.878-3.439,2.949-3.439c0.165,0,0.334,0.028,0.518,0.085c0.453,0.136,0.81,0.493,1.017,1.006
		c0.581-0.641,1.275-1.013,1.921-1.013c0.23,0,0.449,0.047,0.651,0.139c0.994,0.473,1.301,1.91,0.789,3.409
		c1.368-1.157,2.212-2.835,2.303-4.643c-0.003-2.717-2.247-5.264-5.755-6.568l0.271,1.086c0.272,1.226-0.062,2.507-0.893,3.435
		c-0.283,0.32-0.692,0.505-1.122,0.505c-0.402,0-0.778-0.156-1.062-0.44c-0.283-0.283-0.439-0.66-0.439-1.061V6.114l-1.2,0.9
		c-0.086,0.065-0.192,0.1-0.3,0.1h-1c-0.107,0-0.214-0.036-0.3-0.1l-1.2-0.9v2.938c0,0.431-0.186,0.842-0.51,1.126
		c-0.274,0.241-0.626,0.373-0.993,0.373c-0.031,0-0.062-0.001-0.093-0.003c-0.401-0.026-0.767-0.206-1.031-0.507
		C6.548,9.118,6.214,7.84,6.483,6.626l0.273-1.097c-3.511,1.303-5.755,3.852-5.755,6.585c0.089,1.798,0.935,3.474,2.304,4.626
		c-0.513-1.501-0.208-2.938,0.781-3.409c0.206-0.094,0.426-0.141,0.657-0.141c0.646,0,1.341,0.371,1.922,1.012
		c0.208-0.513,0.566-0.871,1.022-1.008C7.868,13.137,8.038,13.108,8.203,13.108z"/>
</g>
</svg>
