<?xml version="1.0" encoding="utf-8"?>
<!-- Generator: Adobe Illustrator 22.1.0, SVG Export Plug-In . SVG Version: 6.00 Build 0)  -->
<svg version="1.1" id="Light" xmlns="http://www.w3.org/2000/svg" xmlns:xlink="http://www.w3.org/1999/xlink" x="0px" y="0px"
	 viewBox="0 0 24 24" style="enable-background:new 0 0 24 24;" xml:space="preserve">
<g>
	<title>famous-character-1</title>
	<path d="M23,24c-0.276,0-0.5-0.224-0.5-0.5v-1.89l-4,0.8v1.09c0,0.276-0.224,0.5-0.5,0.5s-0.5-0.224-0.5-0.5v-1.36l-3.073,0.768
		c0.048,0.195,0.073,0.393,0.073,0.591c0,0.276-0.224,0.5-0.5,0.5s-0.5-0.224-0.5-0.5c0-0.827-0.673-1.5-1.5-1.5s-1.5,0.673-1.5,1.5
		c0,0.276-0.224,0.5-0.5,0.5s-0.5-0.224-0.5-0.5c0-0.198,0.024-0.396,0.073-0.591L6.5,22.14v1.36C6.5,23.776,6.276,24,6,24
		s-0.5-0.224-0.5-0.5v-1.09l-4-0.8v1.89C1.5,23.776,1.276,24,1,24s-0.5-0.224-0.5-0.5v-3.106c-0.005-0.766,0.355-1.505,0.965-1.975
		C2.9,17.328,6.174,15.5,12,15.5c0.869,0,1.723,0.041,2.537,0.123c4.34,0.434,6.873,1.937,7.996,2.795
		c0.611,0.471,0.972,1.211,0.967,1.98V23.5C23.5,23.776,23.276,24,23,24z M10.012,21.988C10.485,21.366,11.215,21,12,21
		s1.516,0.366,1.988,0.988L17.5,21.11v-3.948c-0.809-0.215-1.673-0.379-2.574-0.49c-0.31,1.342-1.526,2.326-2.922,2.326
		c-0.049,0-0.099-0.001-0.148-0.003c-1.349-0.066-2.481-1.027-2.777-2.323c-0.903,0.111-1.768,0.276-2.579,0.492v3.946
		L10.012,21.988z M18.5,21.39l4-0.8v-0.196c0.003-0.461-0.212-0.903-0.575-1.183c-0.649-0.495-1.76-1.188-3.425-1.749V21.39z
		 M5.5,21.39v-3.926c-1.663,0.56-2.775,1.252-3.427,1.748c-0.361,0.278-0.576,0.719-0.573,1.178v0.199L5.5,21.39z M10.087,16.573
		c0.237,0.809,0.951,1.381,1.818,1.423c0.035,0.002,0.069,0.003,0.104,0.003c0.494,0,0.969-0.184,1.337-0.518
		c0.275-0.25,0.47-0.56,0.573-0.908C13.292,16.524,12.648,16.5,12,16.5C11.355,16.5,10.713,16.524,10.087,16.573z"/>
	<path d="M12,15c-1.117,0-2.22-0.291-3.192-0.841c-0.041-0.017-0.073-0.039-0.098-0.056C6.73,12.936,5.5,10.79,5.5,8.5v-2
		C5.5,2.916,8.416,0,12,0c3.584,0,6.5,2.916,6.5,6.5v2c0,2.29-1.23,4.436-3.211,5.603c-0.024,0.018-0.057,0.039-0.097,0.056
		C14.22,14.709,13.117,15,12,15z M9.5,13.398C10.27,13.792,11.131,14,12,14s1.73-0.208,2.5-0.602v-0.635l-0.768-0.51
		C13.483,12.087,13.196,12,12.899,12H11.11c-0.297,0-0.585,0.087-0.832,0.252L9.5,12.768V13.398z M15.5,12.739
		c0.864-0.713,1.486-1.664,1.791-2.739H16c-0.276,0-0.5,0.224-0.5,0.5v1.918c0.009,0.053,0.009,0.107,0,0.161V12.739z M6.709,10
		c0.304,1.075,0.927,2.026,1.791,2.739V10.5C8.5,10.224,8.276,10,8,10H6.709z M8.5,9.086c0.59,0.209,1,0.774,1,1.414v1.068
		l0.223-0.148c0.411-0.274,0.891-0.42,1.386-0.42h1.789c0.496,0,0.975,0.145,1.387,0.42l0.215,0.142V10.5c0-0.64,0.41-1.205,1-1.414
		V6.5c0-1.444-0.877-2.724-2.206-3.251C13.029,3.706,12.535,4,12,4s-1.029-0.294-1.295-0.751C9.377,3.776,8.5,5.056,8.5,6.5V9.086z
		 M17.476,9C17.492,8.83,17.5,8.662,17.5,8.5v-2c0-2.45-1.664-4.626-4-5.29V2.26c1.802,0.635,3,2.316,3,4.24V9H17.476z M7.5,9V6.5
		c0-1.924,1.197-3.605,3-4.24V1.21c-2.336,0.664-4,2.841-4,5.29v2c0,0.162,0.008,0.33,0.024,0.5H7.5z M11.5,2.5
		C11.5,2.776,11.724,3,12,3c0.276,0,0.5-0.224,0.5-0.5V1.024C12.33,1.008,12.162,1,12,1c-0.162,0-0.33,0.008-0.5,0.024V2.5z"/>
	<path d="M10.5,8.5c-0.077,0-0.154-0.018-0.223-0.053l-1-0.5C9.03,7.824,8.929,7.523,9.053,7.276C9.138,7.106,9.31,7,9.5,7
		c0.077,0,0.155,0.018,0.224,0.053l1,0.5c0.247,0.123,0.347,0.424,0.224,0.671C10.862,8.394,10.691,8.5,10.5,8.5z"/>
	<path d="M13.5,8.5c-0.19,0-0.362-0.106-0.447-0.276c-0.124-0.247-0.023-0.548,0.223-0.671l1-0.5C14.346,7.018,14.423,7,14.5,7
		c0.19,0,0.362,0.106,0.447,0.276c0.124,0.247,0.023,0.548-0.223,0.671l-1,0.5C13.655,8.482,13.577,8.5,13.5,8.5z"/>
</g>
</svg>
