<?xml version="1.0" encoding="utf-8"?>
<!-- Generator: Adobe Illustrator 22.1.0, SVG Export Plug-In . SVG Version: 6.00 Build 0)  -->
<svg version="1.1" id="Light" xmlns="http://www.w3.org/2000/svg" xmlns:xlink="http://www.w3.org/1999/xlink" x="0px" y="0px"
	 viewBox="0 0 24 24" style="enable-background:new 0 0 24 24;" xml:space="preserve">
<g>
	<title>famous-character</title>
	<path d="M23,23.999c-0.276,0-0.5-0.224-0.5-0.5v-1.89l-4,0.8v1.09c0,0.276-0.224,0.5-0.5,0.5s-0.5-0.224-0.5-0.5v-4.91
		l-5.089,0.848c-0.135,0.022-0.274,0.034-0.411,0.034c-0.137,0-0.275-0.011-0.41-0.034L6.5,18.59v4.91c0,0.276-0.224,0.5-0.5,0.5
		s-0.5-0.224-0.5-0.5v-1.09l-4-0.8v1.89c0,0.276-0.224,0.5-0.5,0.5s-0.5-0.224-0.5-0.5v-3.106c-0.005-0.766,0.355-1.505,0.965-1.975
		C2.9,17.327,6.174,15.499,12,15.499c5.839,0,9.105,1.828,10.533,2.917c0.611,0.471,0.972,1.211,0.967,1.98v3.103
		C23.5,23.775,23.276,23.999,23,23.999z M18.5,21.389l4-0.8v-0.196c0.003-0.461-0.212-0.903-0.575-1.183
		c-0.649-0.495-1.76-1.188-3.425-1.749V21.389z M5.5,21.389v-3.926c-1.663,0.56-2.775,1.252-3.427,1.748
		C1.711,19.49,1.497,19.931,1.5,20.39v0.199L5.5,21.389z M11.753,18.451c0.08,0.013,0.163,0.02,0.246,0.02
		c0.083,0,0.167-0.007,0.25-0.02l5.251-0.875v-0.414c-1.654-0.44-3.503-0.662-5.5-0.662c-1.995,0-3.844,0.223-5.5,0.664v0.413
		L11.753,18.451z"/>
	<path d="M11,8.499c-0.077,0-0.154-0.018-0.223-0.053l-1-0.5C9.53,7.823,9.429,7.522,9.553,7.276C9.638,7.105,9.81,6.999,10,6.999
		c0.077,0,0.155,0.018,0.224,0.053l1,0.5c0.247,0.123,0.347,0.424,0.224,0.671C11.362,8.393,11.191,8.499,11,8.499z"/>
	<path d="M13,8.499c-0.19,0-0.362-0.106-0.447-0.276c-0.124-0.247-0.023-0.548,0.223-0.671l1-0.5
		C13.845,7.017,13.923,6.999,14,6.999c0.19,0,0.362,0.106,0.447,0.276c0.124,0.247,0.023,0.548-0.223,0.671l-1,0.5
		C13.155,8.481,13.077,8.499,13,8.499z"/>
	<path d="M10.5,11.999c-0.276,0-0.5-0.224-0.5-0.5s0.224-0.5,0.5-0.5h3c0.276,0,0.5,0.224,0.5,0.5s-0.224,0.5-0.5,0.5H10.5z"/>
	<path d="M14,23.999c-0.276,0-0.5-0.224-0.5-0.5c0-0.827-0.673-1.5-1.5-1.5s-1.5,0.673-1.5,1.5c0,0.276-0.224,0.5-0.5,0.5
		s-0.5-0.224-0.5-0.5c0-1.378,1.121-2.5,2.5-2.5c1.378,0,2.5,1.122,2.5,2.5C14.5,23.775,14.276,23.999,14,23.999z"/>
	<path d="M12,14.999c-1.595,0-3.131-0.587-4.324-1.652c-0.012-0.01-0.024-0.021-0.036-0.033c-1.269-1.149-2.019-2.704-2.127-4.396
		C4.916,8.713,4.5,8.145,4.5,7.499v-1c0-0.715,0.493-1.315,1.173-1.464C6.258,2.5,8.347,0.523,10.923,0.09
		c0.361-0.061,0.727-0.091,1.09-0.091c1.348,0,2.646,0.417,3.753,1.205c1.301,0.927,2.206,2.282,2.561,3.831
		c0.68,0.15,1.173,0.75,1.173,1.464v1c0,0.645-0.416,1.214-1.013,1.419c-0.108,1.692-0.858,3.246-2.126,4.395
		c-0.014,0.014-0.029,0.027-0.044,0.04C15.131,14.413,13.595,14.999,12,14.999z M8.5,12.737c0.985,0.815,2.223,1.263,3.5,1.263
		s2.515-0.448,3.5-1.262V5.065c0-0.174-0.093-0.338-0.243-0.428l-1.345-0.809c-0.078-0.047-0.167-0.071-0.257-0.071
		c-0.134,0-0.259,0.052-0.354,0.147l-0.594,0.594C12.519,4.686,12.268,4.79,12,4.79c-0.267,0-0.518-0.104-0.706-0.291
		c-0.005-0.005-0.022-0.024-0.027-0.029l-0.568-0.566c-0.095-0.095-0.22-0.147-0.354-0.147c-0.09,0-0.179,0.025-0.257,0.072
		L8.743,4.635C8.593,4.725,8.5,4.89,8.5,5.065V12.737z M13.655,2.756c0.272,0,0.539,0.074,0.773,0.215l1.344,0.809
		C16.22,4.049,16.5,4.541,16.5,5.065v6.593c0.649-0.922,1-2.021,1-3.159c0-0.276,0.224-0.5,0.5-0.5s0.5-0.224,0.5-0.5v-1
		c0-0.276-0.224-0.5-0.5-0.5h-0.09c-0.245,0-0.452-0.175-0.493-0.417c-0.243-1.447-1.035-2.713-2.231-3.564
		c-0.937-0.667-2.034-1.02-3.173-1.02c-0.307,0-0.618,0.026-0.924,0.078C8.782,1.464,6.971,3.275,6.583,5.582
		C6.542,5.824,6.335,5.999,6.09,5.999H6c-0.276,0-0.5,0.224-0.5,0.5v1c0,0.276,0.224,0.5,0.5,0.5s0.5,0.224,0.5,0.5
		c0,1.138,0.351,2.237,1,3.159V5.065C7.499,4.541,7.779,4.047,8.229,3.777l1.344-0.807c0.234-0.14,0.501-0.214,0.772-0.214
		c0.4,0,0.777,0.156,1.06,0.44l0.592,0.592c0.006,0.006,0.012,0.013,0.018,0.02l0.578-0.612C12.878,2.912,13.255,2.756,13.655,2.756
		z"/>
</g>
</svg>
