<?xml version="1.0" encoding="utf-8"?>
<!-- Generator: Adobe Illustrator 22.1.0, SVG Export Plug-In . SVG Version: 6.00 Build 0)  -->
<svg version="1.1" id="Light" xmlns="http://www.w3.org/2000/svg" xmlns:xlink="http://www.w3.org/1999/xlink" x="0px" y="0px"
	 viewBox="0 0 24 24" style="enable-background:new 0 0 24 24;" xml:space="preserve">
<g>
	<title>famous-character-poseidon</title>
	<path d="M10,12.5c-0.099,0-0.195-0.029-0.277-0.084L8.5,11.601l-1.223,0.815C7.195,12.471,7.099,12.5,7,12.5
		c-0.168,0-0.323-0.083-0.416-0.223c-0.153-0.229-0.091-0.541,0.139-0.693l1.5-1C8.305,10.529,8.401,10.5,8.5,10.5
		s0.195,0.029,0.277,0.084l1.5,1c0.229,0.153,0.292,0.464,0.139,0.693C10.323,12.417,10.167,12.5,10,12.5z"/>
	<path d="M6.051,23.897c-0.135,0-0.267-0.037-0.383-0.106c-0.338-0.201-0.461-0.629-0.284-0.979
		c0.303-0.777,0.496-1.586,0.575-2.411c-0.645,0.303-1.35,0.461-2.063,0.461c-0.751,0-1.506-0.179-2.185-0.518
		c-0.026-0.013-0.05-0.028-0.073-0.044c-0.152-0.111-0.256-0.275-0.292-0.46c-0.079-0.406,0.187-0.8,0.592-0.88
		c1.029-0.186,1.828-0.99,2.018-1.995c-0.026-0.003-0.054-0.007-0.082-0.011c-1.066,0.22-2.109,0.551-3.101,0.983
		c-0.063,0.028-0.13,0.042-0.199,0.042c-0.199,0-0.379-0.118-0.458-0.3c-0.11-0.253,0.006-0.548,0.259-0.658
		c0.584-0.254,1.191-0.477,1.814-0.666C0.841,15.549,0,14.098,0,12.5c0-0.271,0.223-0.5,0.488-0.5C0.493,11.999,0.516,12,0.516,12
		C0.775,12,0.999,12.224,1,12.498c0.001,0.219,0.05,0.439,0.143,0.636c0.172,0.366,0.475,0.644,0.855,0.781
		c0.167,0.061,0.341,0.091,0.516,0.091c0.222,0,0.437-0.048,0.64-0.144c0.324-0.162,0.584-0.448,0.725-0.794
		c-1.199-1.21-1.882-2.867-1.88-4.57V7.5C2,7.776,1.776,8,1.5,8S1,7.776,1,7.5c0-0.856,0.363-1.664,1-2.234V4.5
		C2,3.121,3.121,2,4.5,2L3.6,0.8C3.52,0.693,3.486,0.561,3.505,0.429C3.524,0.297,3.593,0.18,3.7,0.1C3.788,0.034,3.891,0,4,0
		c0.157,0,0.306,0.075,0.4,0.2L5.75,2H8V0.5C8,0.224,8.224,0,8.5,0S9,0.224,9,0.5V2h2.25l1.35-1.8C12.694,0.074,12.844,0,13,0
		c0.109,0,0.213,0.035,0.3,0.1c0.106,0.08,0.176,0.197,0.195,0.329C13.514,0.561,13.48,0.693,13.4,0.8L12.5,2
		C13.878,2,15,3.121,15,4.5v0.766c0.637,0.57,1,1.378,1,2.234C16,7.776,15.776,8,15.5,8S15,7.776,15,7.5c0-0.001,0-0.002,0-0.002
		V8.5c0.002,1.703-0.681,3.359-1.881,4.569c0.143,0.347,0.405,0.634,0.736,0.8c0.189,0.089,0.408,0.137,0.627,0.138
		c0.407,0,0.786-0.156,1.071-0.44c0.287-0.285,0.445-0.665,0.446-1.069C16.001,12.223,16.225,12,16.5,12c0.276,0,0.5,0.225,0.5,0.5
		c0,1.59-0.835,3.038-2.173,3.846c1.406,0.425,2.731,1.056,3.948,1.88c0.228,0.155,0.288,0.466,0.133,0.694
		c-0.093,0.138-0.248,0.22-0.414,0.22c-0.1,0-0.197-0.03-0.28-0.086c-1.542-1.045-3.252-1.751-5.084-2.099
		c-0.029,0.004-0.058,0.008-0.086,0.012c0.19,1.007,0.988,1.81,2.014,1.994c0.193,0.038,0.358,0.143,0.469,0.295
		c0.118,0.161,0.166,0.359,0.136,0.557c-0.031,0.198-0.136,0.372-0.298,0.49c-0.021,0.016-0.045,0.031-0.07,0.043
		c-0.681,0.34-1.437,0.52-2.189,0.52c-0.793,0-1.573-0.195-2.273-0.567c-0.783,2.47-3.467,3.324-4.62,3.581
		C6.157,23.892,6.103,23.897,6.051,23.897z M6.5,19c0.077,0,0.154,0.018,0.223,0.052c0.17,0.085,0.276,0.256,0.277,0.445
		c0.005,1.127-0.177,2.232-0.541,3.291C7.674,22.435,9.672,21.547,10,19.48c0.004-0.101,0.037-0.197,0.098-0.278
		C10.194,19.074,10.34,19,10.5,19c0.026,0,0.05,0.001,0.074,0.005c0.097,0.014,0.186,0.055,0.259,0.119
		c0.669,0.486,1.455,0.742,2.274,0.742c0.352,0,0.697-0.047,1.031-0.14C12.864,19.19,12,17.932,12,16.5c0-0.276,0.224-0.5,0.5-0.5
		c0.944,0,1.841-0.387,2.492-1.045c-0.166,0.034-0.336,0.051-0.51,0.052c-0.367-0.001-0.734-0.083-1.064-0.239
		c-0.675-0.338-1.162-0.947-1.343-1.675c-0.016-0.045-0.025-0.092-0.027-0.14c-0.039-0.204-0.055-0.389-0.049-0.566
		c0-1.916-1.57-3.482-3.5-3.482c-1.93,0-3.5,1.57-3.5,3.5c0.006,0.16-0.009,0.337-0.046,0.534c-0.001,0.052-0.012,0.105-0.031,0.158
		c-0.182,0.725-0.666,1.332-1.332,1.665c-0.348,0.163-0.709,0.244-1.079,0.244c-0.169,0-0.337-0.017-0.503-0.051
		C2.66,15.614,3.556,16,4.5,16C4.776,16,5,16.224,5,16.5c0,1.429-0.864,2.686-2.136,3.224c0.335,0.093,0.68,0.14,1.032,0.14
		c0.833,0,1.63-0.265,2.306-0.766C6.288,19.035,6.394,19,6.5,19z M8.499,7.906c2.246,0,4.122,1.667,4.448,3.829
		C13.631,10.798,14.002,9.67,14,8.501V6.5c-0.001-0.242-0.021-0.498-0.06-0.762C13.65,5.582,13.327,5.5,13,5.5
		c-1.459,0-2.716-1.081-2.957-2.5H6.957C6.716,4.419,5.459,5.5,4,5.5c-0.327,0-0.65,0.082-0.94,0.238
		C3.021,6.002,3.001,6.259,3,6.502V8.5c-0.001,1.17,0.369,2.298,1.053,3.235C4.382,9.573,6.258,7.906,8.499,7.906z M11.064,3
		C11.287,3.872,12.076,4.5,13,4.5c0.344,0,0.679,0.058,1,0.173V4.5C14,3.673,13.327,3,12.5,3H11.064z M4.5,3C3.673,3,3,3.673,3,4.5
		v0.173C3.321,4.558,3.656,4.5,4,4.5c0.924,0,1.713-0.628,1.936-1.5H4.5z"/>
	<path d="M7,7.5c-0.054,0-0.107-0.009-0.158-0.026l-1.5-0.5C5.215,6.932,5.112,6.843,5.053,6.723S4.983,6.468,5.026,6.342
		C5.094,6.137,5.284,6,5.5,6c0.054,0,0.107,0.009,0.159,0.026l1.5,0.5C7.42,6.613,7.562,6.897,7.474,7.158
		C7.406,7.362,7.216,7.5,7,7.5z"/>
	<path d="M10,7.5c-0.216,0-0.406-0.137-0.474-0.342C9.438,6.897,9.58,6.613,9.842,6.525l1.5-0.5C11.393,6.008,11.446,6,11.5,6
		c0.215,0,0.406,0.137,0.474,0.342c0.042,0.127,0.033,0.262-0.027,0.382s-0.162,0.208-0.289,0.251l-1.5,0.5
		C10.107,7.491,10.054,7.5,10,7.5z"/>
	<path d="M20.5,24c-0.276,0-0.5-0.224-0.5-0.5V10.961c-1.7-0.245-3-1.723-3-3.461v-4c0-0.203,0.121-0.384,0.309-0.462
		C17.37,3.013,17.434,3,17.5,3c0.134,0,0.259,0.052,0.354,0.147l1,1c0.195,0.195,0.195,0.512,0,0.707C18.759,4.948,18.634,5,18.5,5
		s-0.259-0.052-0.354-0.146L18,4.707V7.5c0,1.187,0.859,2.213,2,2.448V3.5C20,3.224,20.224,3,20.5,3S21,3.224,21,3.5v6.448
		c1.141-0.235,2-1.261,2-2.448V4.707l-0.146,0.146C22.759,4.948,22.634,5,22.5,5s-0.259-0.052-0.354-0.146
		c-0.195-0.195-0.195-0.512,0-0.707l1-1C23.241,3.052,23.367,3,23.5,3c0.066,0,0.13,0.013,0.191,0.038C23.879,3.115,24,3.297,24,3.5
		v4c0,1.738-1.3,3.216-3,3.461V23.5C21,23.775,20.776,24,20.5,24z"/>
</g>
</svg>
