<?xml version="1.0" encoding="utf-8"?>
<!-- Generator: Adobe Illustrator 22.1.0, SVG Export Plug-In . SVG Version: 6.00 Build 0)  -->
<svg version="1.1" id="Light" xmlns="http://www.w3.org/2000/svg" xmlns:xlink="http://www.w3.org/1999/xlink" x="0px" y="0px"
	 viewBox="0 0 24 24" style="enable-background:new 0 0 24 24;" xml:space="preserve">
<g>
	<title>famous-character-vegeta</title>
	<path d="M12,15.004c-1.24,0-2.452-0.357-3.507-1.034c-1.941-0.215-4.635-1.697-6.572-7.469c-0.1-0.29-0.057-0.618,0.115-0.877
		c0.148-0.222,0.374-0.374,0.636-0.426c0.065-0.013,0.132-0.02,0.198-0.02c0.196,0,0.387,0.058,0.552,0.168L4.5,6.065V1.706
		c0-0.268,0.104-0.519,0.294-0.708C4.982,0.81,5.233,0.707,5.5,0.707c0.268,0,0.519,0.104,0.708,0.293l1.053,1.053
		c0.225-0.24,0.465-0.462,0.716-0.66c1.158-0.913,2.545-1.395,4.01-1.395c0.258,0,0.52,0.016,0.778,0.046
		c1.528,0.181,2.929,0.891,3.974,2.008L17.792,1c0.188-0.189,0.439-0.293,0.706-0.293c0.268,0,0.519,0.104,0.708,0.292
		C19.393,1.185,19.5,1.443,19.5,1.706v4.359l1.077-0.718c0.165-0.11,0.356-0.168,0.553-0.168c0.066,0,0.133,0.007,0.198,0.02
		c0.261,0.052,0.487,0.204,0.635,0.426c0.172,0.258,0.214,0.587,0.113,0.88c-1.924,5.773-4.623,7.253-6.571,7.466
		C14.451,14.647,13.24,15.004,12,15.004z M9.5,13.397c0.774,0.397,1.635,0.605,2.5,0.605c0.867,0,1.729-0.209,2.503-0.607v-2.396
		c0-0.099,0.029-0.195,0.084-0.277l0.916-1.374V7.139l-3.383,0.845c-0.015,0.004-0.037,0.007-0.056,0.008
		C12.044,7.995,12.022,7.996,12,7.996c-0.023,0-0.046-0.001-0.068-0.004c-0.017-0.001-0.037-0.004-0.05-0.007L8.5,7.139v2.208
		l0.916,1.374C9.471,10.804,9.5,10.9,9.5,10.999V13.397z M2.87,6.18c0.797,2.377,2.576,6.364,5.63,6.783V11.15L7.584,9.776
		C7.529,9.694,7.5,9.598,7.5,9.499v-3c0-0.155,0.07-0.299,0.192-0.394C7.78,6.037,7.889,5.999,8,5.999
		c0.041,0,0.081,0.005,0.12,0.015l2.249,0.562L5.5,1.707l0,5.292c0,0.185-0.101,0.354-0.264,0.441C5.163,7.479,5.082,7.499,5,7.499
		c-0.099,0-0.195-0.029-0.277-0.084L2.87,6.18z M15.504,12.963c3.177-0.432,4.987-4.863,5.626-6.779l-1.853,1.231
		C19.195,7.47,19.099,7.499,19,7.499c-0.082,0-0.164-0.021-0.236-0.059C18.601,7.353,18.5,7.184,18.5,6.999V1.706l-4.871,4.871
		l2.253-0.563c0.039-0.01,0.08-0.015,0.121-0.015c0.111,0,0.22,0.038,0.308,0.106c0.122,0.095,0.192,0.239,0.192,0.394v3
		c0,0.099-0.029,0.195-0.084,0.277l-0.916,1.374V12.963z M12,6.792l1.327-1.327C12.903,5.313,12.451,5.234,12,5.234
		c-0.451,0-0.903,0.079-1.327,0.231L12,6.792z M12,4.235c0.722,0,1.441,0.161,2.091,0.466l1.938-1.938
		c-0.889-0.962-2.081-1.572-3.38-1.726c-0.219-0.026-0.441-0.039-0.659-0.039c-1.239,0-2.412,0.408-3.392,1.181
		c-0.22,0.173-0.43,0.368-0.627,0.582l1.941,1.94C10.559,4.396,11.278,4.235,12,4.235z"/>
	<path d="M11.5,2.999c-0.276,0-0.5-0.224-0.5-0.5s0.224-0.5,0.5-0.5h1c0.276,0,0.5,0.224,0.5,0.5s-0.224,0.5-0.5,0.5H11.5z"/>
	<path d="M10.5,9.499c-0.077,0-0.154-0.018-0.223-0.053l-1-0.5C9.03,8.823,8.929,8.522,9.053,8.275
		C9.138,8.105,9.31,7.999,9.5,7.999c0.077,0,0.155,0.018,0.224,0.053l1,0.5c0.247,0.123,0.347,0.424,0.224,0.671
		C10.862,9.393,10.691,9.499,10.5,9.499z"/>
	<path d="M13.5,9.499c-0.19,0-0.362-0.106-0.447-0.276c-0.124-0.247-0.023-0.548,0.223-0.671l1-0.5
		c0.069-0.035,0.146-0.053,0.223-0.053c0.19,0,0.362,0.106,0.447,0.276c0.124,0.247,0.023,0.548-0.223,0.671l-1,0.5
		C13.655,9.481,13.577,9.499,13.5,9.499z"/>
	<path d="M10,23.999c-0.276,0-0.5-0.224-0.5-0.5c0-0.552-0.449-1-1-1s-1,0.448-1,1c0,0.276-0.224,0.5-0.5,0.5s-0.5-0.224-0.5-0.5
		c0-1.103,0.897-2,2-2s2,0.897,2,2C10.5,23.775,10.276,23.999,10,23.999z"/>
	<path d="M17,23.999c-0.276,0-0.5-0.224-0.5-0.5c0-0.552-0.448-1-1-1s-1,0.448-1,1c0,0.276-0.224,0.5-0.5,0.5s-0.5-0.224-0.5-0.5
		c0-1.103,0.897-2,2-2s2,0.897,2,2C17.5,23.775,17.276,23.999,17,23.999z"/>
	<path d="M22,23.999c-0.276,0-0.5-0.224-0.5-0.5v-1.79c-0.358,0.188-0.761,0.29-1.167,0.29H19.5v1.5c0,0.276-0.224,0.5-0.5,0.5
		s-0.5-0.224-0.5-0.5v-3.5h-4.717l-0.925,1.542c-0.083,0.14-0.202,0.259-0.344,0.344c-0.156,0.093-0.333,0.143-0.513,0.143
		c-0.082,0-0.165-0.01-0.245-0.031c-0.259-0.065-0.477-0.227-0.614-0.456l-0.925-1.542l-4.717,0v3.5c0,0.276-0.224,0.5-0.5,0.5
		s-0.5-0.224-0.5-0.5v-1.5H3.667c-0.406,0-0.809-0.101-1.167-0.29v1.79c0,0.276-0.224,0.5-0.5,0.5s-0.5-0.224-0.5-0.5v-2.5
		l-0.6-0.45c-0.25-0.188-0.4-0.487-0.4-0.8v-2.25c0-0.552,0.449-1,1-1H5c0.057,0,0.112,0.01,0.166,0.03
		c2.104-0.686,4.292-1.033,6.503-1.033c0.113,0,0.226,0.001,0.339,0.003c0.11-0.002,0.228-0.003,0.346-0.003
		c2.197,0,4.376,0.348,6.48,1.033c0.053-0.02,0.109-0.03,0.166-0.03h3.5c0.552,0,1,0.448,1,1v2.25c0,0.313-0.149,0.612-0.4,0.8
		l-0.6,0.45v2.5C22.5,23.775,22.276,23.999,22,23.999z M10.217,18.999c0.349,0,0.678,0.186,0.858,0.486L12,21.027l0.926-1.542
		c0.18-0.3,0.508-0.486,0.858-0.486H18.5v-1.528c-1.22-0.396-2.473-0.674-3.728-0.828c-0.245,0.597-0.677,1.101-1.234,1.433
		c-0.466,0.278-0.996,0.425-1.533,0.425c-0.247,0-0.496-0.031-0.739-0.092c-0.925-0.233-1.672-0.886-2.033-1.766
		C7.974,16.798,6.72,17.076,5.5,17.471v1.528H10.217z M20.333,20.999c0.322,0,0.642-0.106,0.9-0.3l1.267-0.95l0-2.25h-3v3.5H20.333z
		 M2.767,20.699c0.258,0.193,0.578,0.3,0.9,0.3H4.5v-3.5h-3v2.25L2.767,20.699L2.767,20.699z M10.296,16.547
		c0.271,0.441,0.706,0.765,1.214,0.894c0.162,0.041,0.328,0.062,0.494,0.062c0.357,0,0.71-0.098,1.021-0.283
		c0.282-0.168,0.513-0.397,0.68-0.673c-0.473-0.033-0.937-0.05-1.384-0.05c-0.104,0-0.208,0.001-0.312,0.003
		c-0.109-0.002-0.209-0.002-0.31-0.002C11.246,16.497,10.776,16.513,10.296,16.547z"/>
</g>
</svg>
