<?xml version="1.0" encoding="utf-8"?>
<!-- Generator: Adobe Illustrator 22.1.0, SVG Export Plug-In . SVG Version: 6.00 Build 0)  -->
<svg version="1.1" id="Light" xmlns="http://www.w3.org/2000/svg" xmlns:xlink="http://www.w3.org/1999/xlink" x="0px" y="0px"
	 viewBox="0 0 24 24" style="enable-background:new 0 0 24 24;" xml:space="preserve">
<g>
	<title>famous-character-megaman-1</title>
	<path d="M12.013,22.505c-0.892,0-1.785-0.127-2.652-0.378c-2.401-0.694-4.4-2.276-5.63-4.453c-0.002-0.003-0.05-0.086-0.05-0.086
		c-0.033-0.061-0.065-0.122-0.096-0.183l-2.497-0.714C0.447,16.507,0,15.915,0,15.249v-3.492c0-0.666,0.448-1.259,1.088-1.442
		l1.989-0.568C4.074,6.998,6.221,4.913,9,3.991V3.003c0-0.827,0.673-1.5,1.5-1.5h3c0.827,0,1.5,0.673,1.5,1.5V3.99
		c2.275,0.755,4.159,2.321,5.319,4.424c0.232,0.42,0.435,0.869,0.606,1.334l1.987,0.568C23.552,10.498,24,11.091,24,11.757v3.492
		c0,0.666-0.448,1.259-1.087,1.442l-2.493,0.713c-0.861,1.655-2.184,3.008-3.832,3.916C15.181,22.095,13.599,22.505,12.013,22.505z
		 M4.654,17.273c1.104,1.901,2.872,3.282,4.985,3.893c0.769,0.223,1.562,0.335,2.356,0.335c3.024,0,5.833-1.618,7.351-4.228
		c-0.17-1.608-0.727-2.865-1.532-3.457c-0.349-0.256-0.744-0.386-1.175-0.386c-0.171,0-0.35,0.02-0.533,0.06
		c-1.139,0.35-2.215,0.988-3.093,1.84c-0.279,0.259-0.638,0.4-1.014,0.4c-0.375,0-0.731-0.139-1.004-0.392
		c-0.885-0.859-1.97-1.501-3.141-1.859c-0.154-0.032-0.326-0.052-0.491-0.052c-0.431,0-0.827,0.13-1.177,0.388
		C5.38,14.409,4.824,15.665,4.654,17.273z M21.263,10.884c0.359,1.563,0.313,3.198-0.137,4.755
		c-0.055,0.189-0.117,0.382-0.188,0.575l1.699-0.486C22.851,15.668,23,15.47,23,15.248v-3.491c0-0.222-0.149-0.419-0.362-0.48
		L21.263,10.884z M1.362,11.277C1.149,11.338,1,11.535,1,11.757v3.492c0,0.222,0.149,0.419,0.363,0.481l1.696,0.485
		c-0.622-1.716-0.731-3.541-0.318-5.331L1.362,11.277z M9,5.052C6.498,5.993,4.581,8.059,3.834,10.64
		c-0.488,1.689-0.451,3.421,0.103,5.056c0.337-1.199,0.911-2.137,1.656-2.684c0.525-0.385,1.117-0.581,1.76-0.581
		c0.243,0,0.497,0.028,0.753,0.084c1.354,0.412,2.584,1.136,3.577,2.099c0.081,0.075,0.195,0.119,0.315,0.119
		c0.122,0,0.239-0.045,0.327-0.127c0.985-0.956,2.207-1.677,3.529-2.081c0.285-0.063,0.545-0.093,0.794-0.093
		c0.644,0,1.235,0.195,1.758,0.579c0.744,0.546,1.318,1.482,1.656,2.681c0.037-0.11,0.072-0.221,0.103-0.33
		c0.631-2.181,0.375-4.477-0.722-6.466C18.462,7.116,16.893,5.76,15,5.049v4.954c0,1.379-1.122,2.5-2.5,2.5h-1
		c-1.379,0-2.5-1.121-2.5-2.5V5.052z M10,10.003c0,0.827,0.673,1.5,1.5,1.5h1c0.827,0,1.5-0.673,1.5-1.5v-1.5h-4V10.003z M14,7.503
		v-4.5c0-0.276-0.224-0.5-0.5-0.5h-3c-0.276,0-0.5,0.224-0.5,0.5v4.5H14z"/>
	<circle cx="8" cy="16.503" r="0.75"/>
	<circle cx="16" cy="16.503" r="0.75"/>
</g>
</svg>
