<?xml version="1.0" encoding="utf-8"?>
<!-- Generator: Adobe Illustrator 22.1.0, SVG Export Plug-In . SVG Version: 6.00 Build 0)  -->
<svg version="1.1" id="Light" xmlns="http://www.w3.org/2000/svg" xmlns:xlink="http://www.w3.org/1999/xlink" x="0px" y="0px"
	 viewBox="0 0 24 24" style="enable-background:new 0 0 24 24;" xml:space="preserve">
<g>
	<title>non-gmo-lab</title>
	<path d="M12,23.5C5.659,23.5,0.5,18.341,0.5,12S5.659,0.5,12,0.5c3.051,0,5.925,1.186,8.096,3.341
		c0.013,0.009,0.025,0.02,0.034,0.028c0.014,0.014,0.024,0.027,0.032,0.039C22.311,6.068,23.5,8.945,23.5,12
		C23.5,18.341,18.341,23.5,12,23.5z M4.943,19.764C6.883,21.531,9.379,22.5,12,22.5c5.79,0,10.5-4.71,10.5-10.5
		c0-2.621-0.969-5.117-2.736-7.057L4.943,19.764z M12,1.5C6.21,1.5,1.5,6.21,1.5,12c0,2.621,0.97,5.117,2.736,7.057L19.057,4.236
		C17.117,2.47,14.621,1.5,12,1.5z"/>
	<path d="M10,12c-0.276,0-0.5-0.224-0.5-0.5v-3c0-0.551,0.449-1,1-1h3C13.776,7.5,14,7.724,14,8s-0.224,0.5-0.5,0.5h-3v3
		C10.5,11.776,10.276,12,10,12z"/>
	<path d="M12,20.5c-1.379,0-2.5-1.122-2.5-2.5v-1c0-0.276,0.224-0.5,0.5-0.5s0.5,0.224,0.5,0.5v1c0,0.827,0.673,1.5,1.5,1.5
		s1.5-0.673,1.5-1.5v-2.5H12c-0.276,0-0.5-0.224-0.5-0.5s0.224-0.5,0.5-0.5h1.5V12c0-0.276,0.224-0.5,0.5-0.5s0.5,0.224,0.5,0.5v6
		C14.5,19.378,13.378,20.5,12,20.5z"/>
	<circle cx="13.75" cy="5.75" r="0.75"/>
	<circle cx="12.75" cy="3.25" r="0.75"/>
	<circle cx="10.25" cy="5.25" r="0.75"/>
</g>
</svg>
