<?xml version="1.0" encoding="utf-8"?>
<!-- Generator: Adobe Illustrator 22.1.0, SVG Export Plug-In . SVG Version: 6.00 Build 0)  -->
<svg version="1.1" id="Light" xmlns="http://www.w3.org/2000/svg" xmlns:xlink="http://www.w3.org/1999/xlink" x="0px" y="0px"
	 viewBox="0 0 24 24" style="enable-background:new 0 0 24 24;" xml:space="preserve">
<g>
	<title>non-gmo-fire</title>
	<path d="M11.956,23.675c-2,0-3.91-0.749-5.38-2.109c-0.202-0.187-0.215-0.504-0.027-0.707c0.093-0.102,0.227-0.161,0.367-0.161
		c0.126,0,0.247,0.047,0.34,0.133c1.284,1.189,2.952,1.843,4.694,1.843l0.11-0.001c2.289,0,4.11-0.859,5.268-2.485
		c1.657-2.324,1.881-6.103,0.584-9.86c-0.09-0.261,0.049-0.546,0.31-0.636c0.053-0.018,0.108-0.027,0.163-0.027
		c0.213,0,0.403,0.135,0.472,0.337c1.4,4.058,1.126,8.184-0.715,10.766c-1.354,1.9-3.455,2.905-6.075,2.905L11.956,23.675z"/>
	<path d="M4.786,18.21c-0.221,0-0.413-0.142-0.478-0.354c-0.892-2.91,0.018-6.079,2.317-8.073C6.728,9.695,6.842,9.631,6.967,9.59
		c0.101-0.033,0.206-0.05,0.312-0.05c0.155,0,0.311,0.037,0.45,0.108c0.238,0.12,0.416,0.326,0.499,0.58
		c0.197,0.602,0.481,1.165,0.847,1.675c1.934-2.586,2.119-6.782,0.41-10.124C9.337,1.491,9.339,1.147,9.49,0.86
		c0.124-0.236,0.333-0.41,0.588-0.489c0.097-0.03,0.197-0.045,0.297-0.045c0.161,0,0.321,0.04,0.465,0.115
		c2.404,1.291,4.467,3.174,5.97,5.446c0.074,0.111,0.1,0.245,0.073,0.376c-0.027,0.131-0.103,0.244-0.214,0.317
		c-0.083,0.054-0.178,0.083-0.276,0.083c-0.169,0-0.325-0.084-0.417-0.224c-1.412-2.134-3.351-3.903-5.605-5.114
		c1.994,3.893,1.591,8.928-0.934,11.712C9.342,13.14,9.21,13.2,9.075,13.2c-0.156-0.002-0.291-0.064-0.385-0.172
		c-0.636-0.73-1.111-1.568-1.412-2.488c-1.999,1.734-2.79,4.491-2.014,7.023c0.081,0.263-0.068,0.543-0.331,0.625
		C4.886,18.202,4.836,18.21,4.786,18.21z"/>
	<path d="M2.25,23.675c-0.134,0-0.259-0.052-0.354-0.146c-0.195-0.195-0.195-0.512,0-0.707l19.5-19.5
		c0.094-0.094,0.22-0.146,0.354-0.146s0.259,0.052,0.354,0.146c0.195,0.195,0.195,0.512,0,0.707l-19.5,19.5
		C2.509,23.623,2.384,23.675,2.25,23.675z"/>
</g>
</svg>
