<?xml version="1.0" encoding="utf-8"?>
<!-- Generator: Adobe Illustrator 22.1.0, SVG Export Plug-In . SVG Version: 6.00 Build 0)  -->
<svg version="1.1" id="Light" xmlns="http://www.w3.org/2000/svg" xmlns:xlink="http://www.w3.org/1999/xlink" x="0px" y="0px"
	 viewBox="0 0 24 24" style="enable-background:new 0 0 24 24;" xml:space="preserve">
<g>
	<title>non-gmo-fertilizer</title>
	<path d="M9.5,24C8.673,24,8,23.327,8,22.5V18c0-0.276,0.224-0.5,0.5-0.5S9,17.724,9,18v4.5C9,22.776,9.224,23,9.5,23h8
		c0.276,0,0.5-0.224,0.5-0.5v-10c0.001-0.891-0.478-1.721-1.25-2.167c-0.116-0.067-0.198-0.175-0.233-0.304
		C16.483,9.9,16.5,9.766,16.567,9.65C16.656,9.496,16.822,9.4,17,9.4c0.088,0,0.174,0.023,0.25,0.067
		c1.08,0.624,1.75,1.786,1.75,3.033v10c0,0.827-0.673,1.5-1.5,1.5H9.5z"/>
	<path d="M22.283,15.001c-0.686,0-1.292-0.486-1.441-1.156l-1.038-4.67c-0.111-0.5-0.464-0.904-0.944-1.081
		c-0.259-0.096-0.391-0.384-0.296-0.642c0.073-0.195,0.261-0.327,0.469-0.327c0.059,0,0.118,0.01,0.174,0.031
		c0.8,0.296,1.388,0.969,1.573,1.802l1.038,4.67c0.048,0.216,0.243,0.373,0.464,0.373c0.035,0,0.07-0.004,0.104-0.012
		c0.257-0.057,0.419-0.312,0.362-0.569l-1.036-4.68c-0.195-0.878-0.714-1.639-1.461-2.143c-0.111-0.075-0.186-0.188-0.211-0.319
		s0.001-0.264,0.076-0.375c0.093-0.138,0.248-0.221,0.415-0.221c0.1,0,0.197,0.03,0.279,0.086c0.96,0.646,1.627,1.625,1.879,2.755
		l1.036,4.681c0.176,0.794-0.326,1.584-1.12,1.761C22.498,14.99,22.39,15.001,22.283,15.001z"/>
	<path d="M8.5,13C8.224,13,8,12.776,8,12.5c0-1.738,1.3-3.216,3-3.461V8.442L7.876,8.052c-0.504-0.063-0.88-0.493-0.876-1v-0.61
		C6.996,5.938,7.373,5.509,7.876,5.446l3.562-0.442C11.457,5.001,11.479,5,11.5,5H13V1.001h-1.5c-0.01,0-0.021-0.001-0.031-0.002
		l-2.47,0c-0.276,0-0.5-0.224-0.5-0.5s0.224-0.5,0.5-0.5h4c0.01,0,0.021,0.001,0.031,0.002l2.469,0c0.276,0,0.5,0.224,0.5,0.5
		s-0.224,0.5-0.5,0.5H14V5h2c0.276,0,0.5,0.224,0.5,0.5S16.276,6,16,6h-2.479c-0.007,0.001-0.014,0.001-0.021,0.001
		s-0.014,0-0.021-0.001h-1.948L8,6.438l0,0.618l3.005,0.378c0.033-0.244,0.242-0.433,0.495-0.433c0.276,0,0.5,0.224,0.5,0.5V9
		c0.267,0.009,0.482,0.23,0.482,0.5c0,0.276-0.224,0.5-0.5,0.5h-0.461c-0.007,0.001-0.015,0.001-0.021,0.001
		c-0.006,0-0.012,0-0.018-0.001C10.113,10.01,9,11.128,9,12.5C9,12.776,8.776,13,8.5,13z"/>
	<path d="M4,5.251c-0.414,0-0.75-0.336-0.75-0.75c0,0,0-0.002,0-0.002C3.252,4.086,3.588,3.751,4,3.751
		c0.408,0,0.742,0.329,0.75,0.735c0,0.005,0,0.023,0,0.028C4.742,4.906,4.426,5.229,4.036,5.248C4.024,5.25,4.011,5.251,4,5.251z"/>
	<path d="M4,8.251c-0.414,0-0.75-0.336-0.75-0.75c0,0,0-0.002,0-0.002C3.252,7.086,3.588,6.751,4,6.751
		c0.408,0,0.742,0.329,0.75,0.735c0,0.005,0,0.023,0,0.028C4.742,7.906,4.426,8.229,4.036,8.248C4.024,8.25,4.011,8.251,4,8.251z"/>
	<path d="M1.5,3.751c-0.414,0-0.75-0.336-0.75-0.75c0-0.415,0.336-0.751,0.75-0.751c0.011,0,0.023,0.001,0.035,0.003
		C1.928,2.269,2.248,2.6,2.25,2.998c0,0.4-0.318,0.731-0.714,0.75C1.524,3.75,1.511,3.751,1.5,3.751z"/>
	<path d="M1.5,6.751c-0.414,0-0.75-0.336-0.75-0.75c0-0.415,0.336-0.751,0.75-0.751c0.011,0,0.023,0.001,0.035,0.003
		C1.928,5.269,2.248,5.6,2.25,5.998c0,0.4-0.318,0.731-0.714,0.75C1.524,6.75,1.511,6.751,1.5,6.751z"/>
	<path d="M1.5,9.751c-0.414,0-0.75-0.336-0.75-0.75c0-0.415,0.336-0.751,0.75-0.751c0.011,0,0.023,0.001,0.035,0.003
		C1.928,8.269,2.248,8.6,2.25,8.998c0,0.4-0.318,0.731-0.714,0.75C1.524,9.75,1.511,9.751,1.5,9.751z"/>
	<path d="M0.5,24.001c-0.134,0-0.259-0.052-0.354-0.146c-0.195-0.195-0.195-0.512,0-0.707l23-23c0.094-0.094,0.22-0.146,0.354-0.146
		s0.259,0.052,0.354,0.146c0.195,0.195,0.195,0.512,0,0.707l-23,23C0.759,23.949,0.634,24.001,0.5,24.001z"/>
</g>
</svg>
