<?xml version="1.0" encoding="utf-8"?>
<!-- Generator: Adobe Illustrator 22.1.0, SVG Export Plug-In . SVG Version: 6.00 Build 0)  -->
<svg version="1.1" id="Light" xmlns="http://www.w3.org/2000/svg" xmlns:xlink="http://www.w3.org/1999/xlink" x="0px" y="0px"
	 viewBox="0 0 24 24" style="enable-background:new 0 0 24 24;" xml:space="preserve">
<g>
	<title>non-gmo-injection</title>
	<path d="M9.5,11.5C9.224,11.5,9,11.276,9,11V8.5c0-1.738,1.3-3.216,3-3.461V0.5C12,0.224,12.224,0,12.5,0C12.776,0,13,0.224,13,0.5
		v4.538c0.689,0.1,1.342,0.406,1.856,0.875c0.099,0.09,0.157,0.212,0.163,0.346c0.006,0.134-0.04,0.262-0.13,0.36
		c-0.094,0.104-0.229,0.164-0.37,0.164c-0.125,0-0.245-0.047-0.337-0.131C13.722,6.231,13.124,6,12.5,6C11.122,6,10,7.121,10,8.5V11
		C10,11.276,9.776,11.5,9.5,11.5z"/>
	<path d="M8.5,24C8.224,24,8,23.776,8,23.5S8.224,23,8.5,23H10v-4H7.5C7.224,19,7,18.776,7,18.5S7.224,18,7.5,18H9v-0.5
		C9,17.224,9.224,17,9.5,17s0.5,0.224,0.5,0.5V18h5v-2h-1.5c-0.276,0-0.5-0.224-0.5-0.5s0.224-0.5,0.5-0.5H15v-2h-0.5
		c-0.276,0-0.5-0.224-0.5-0.5c0-0.276,0.224-0.5,0.5-0.5H15v-0.5c0-0.276,0.224-0.5,0.5-0.5s0.5,0.224,0.5,0.5V18h1.5
		c0.276,0,0.5,0.224,0.5,0.5S17.776,19,17.5,19H15v4h1.5c0.276,0,0.5,0.224,0.5,0.5S16.776,24,16.5,24H8.5z M14,23v-4h-3v4H14z"/>
	<path d="M0.5,24c-0.134,0-0.259-0.052-0.354-0.146c-0.195-0.195-0.195-0.512,0-0.707l23-23C23.241,0.052,23.367,0,23.5,0
		s0.259,0.052,0.354,0.146c0.195,0.195,0.195,0.512,0,0.707l-23,23C0.759,23.948,0.634,24,0.5,24z"/>
</g>
</svg>
