<?xml version="1.0" encoding="utf-8"?>
<!-- Generator: Adobe Illustrator 22.1.0, SVG Export Plug-In . SVG Version: 6.00 Build 0)  -->
<svg version="1.1" id="Light" xmlns="http://www.w3.org/2000/svg" xmlns:xlink="http://www.w3.org/1999/xlink" x="0px" y="0px"
	 viewBox="0 0 24 24" style="enable-background:new 0 0 24 24;" xml:space="preserve">
<g>
	<title>breakfast-bread-toast</title>
	<path d="M9.176,7.294c-0.134,0-0.259-0.052-0.354-0.146s-0.146-0.22-0.146-0.354S8.728,6.535,8.823,6.44l3.5-3.5
		c0.094-0.094,0.22-0.146,0.354-0.146s0.259,0.052,0.354,0.146s0.146,0.22,0.146,0.354s-0.052,0.259-0.146,0.354l-3.5,3.5
		C9.435,7.242,9.31,7.294,9.176,7.294z"/>
	<path d="M13.676,7.294c-0.134,0-0.259-0.052-0.354-0.146s-0.146-0.22-0.146-0.354s0.052-0.259,0.146-0.354l3.5-3.5
		c0.094-0.094,0.22-0.146,0.354-0.146s0.259,0.052,0.354,0.146s0.146,0.22,0.146,0.354s-0.052,0.259-0.146,0.354l-3.5,3.5
		C13.935,7.242,13.81,7.294,13.676,7.294z"/>
	<path d="M3.5,24C2.673,24,2,23.327,2,22.5V15H1.5C0.673,15,0,14.327,0,13.5v-1C0,11.673,0.673,11,1.5,11h0.551
		C2.285,9.845,3.301,9,4.5,9H5V7.5c0.047-0.674,0.321-1.294,0.766-1.766C4.708,5.254,4,4.184,4,3c0-1.654,1.346-3,3-3h12
		c1.654,0,3,1.346,3,3c0,1.183-0.708,2.253-1.764,2.734c0.444,0.469,0.717,1.081,0.763,1.731L21,9h0.5c1.378,0,2.5,1.121,2.5,2.5v11
		c0,0.827-0.673,1.5-1.5,1.5H3.5z M4.5,10C3.673,10,3,10.673,3,11.5v11C3,22.776,3.224,23,3.5,23h19c0.276,0,0.5-0.224,0.5-0.5v-11
		c0-0.827-0.673-1.5-1.5-1.5H4.5z M1.5,12C1.224,12,1,12.224,1,12.5v1C1,13.776,1.224,14,1.5,14H2v-2H1.5z M20,9V7.5
		c-0.05-0.677-0.511-1.285-1.174-1.531c-0.227-0.084-0.361-0.318-0.318-0.557C18.551,5.173,18.758,5,19,5c1.103,0,2-0.897,2-2
		s-0.897-2-2-2H7C5.897,1,5,1.897,5,3s0.897,2,2,2c0.242,0,0.449,0.173,0.492,0.412C7.535,5.65,7.401,5.885,7.174,5.969
		C6.51,6.215,6.049,6.83,5.999,7.536L6,9H20z"/>
	<path d="M6.5,15C6.224,15,6,14.776,6,14.5v-1C6,13.224,6.224,13,6.5,13S7,13.224,7,13.5v1C7,14.776,6.776,15,6.5,15z"/>
	<path d="M6.5,21C5.121,21,4,19.878,4,18.5S5.121,16,6.5,16c1.199,0,2.215,0.845,2.449,2H9.5c0.276,0,0.5,0.224,0.5,0.5
		S9.776,19,9.5,19H8.949C8.715,20.155,7.699,21,6.5,21z M6.5,17C5.673,17,5,17.673,5,18.5S5.673,20,6.5,20S8,19.327,8,18.5
		S7.327,17,6.5,17z"/>
</g>
</svg>
