<?xml version="1.0" encoding="utf-8"?>
<!-- Generator: Adobe Illustrator 22.1.0, SVG Export Plug-In . SVG Version: 6.00 Build 0)  -->
<svg version="1.1" id="Light" xmlns="http://www.w3.org/2000/svg" xmlns:xlink="http://www.w3.org/1999/xlink" x="0px" y="0px"
	 viewBox="0 0 24 24" style="enable-background:new 0 0 24 24;" xml:space="preserve">
<g>
	<title>breakfast-cereal</title>
	<path d="M16.582,12.111c-0.072,0-0.141-0.015-0.207-0.045c-0.121-0.055-0.214-0.154-0.261-0.279
		c-0.047-0.125-0.042-0.261,0.013-0.383l4.707-10.372c0.219-0.622,0.837-1.053,1.531-1.053c0.188,0,0.373,0.032,0.55,0.095
		c0.853,0.303,1.301,1.244,0.997,2.097l-0.016,0.044l-2.635,9.203c-0.061,0.213-0.258,0.362-0.481,0.362
		c-0.046,0-0.093-0.006-0.138-0.019c-0.128-0.037-0.235-0.121-0.299-0.238s-0.08-0.252-0.043-0.38l2.646-9.237
		c0.003-0.012,0.009-0.029,0.015-0.046l0.01-0.026c0.056-0.158,0.047-0.333-0.026-0.488c-0.074-0.155-0.203-0.272-0.364-0.329
		c-0.069-0.025-0.141-0.037-0.214-0.037c-0.272,0-0.515,0.172-0.606,0.427l-4.723,10.411C16.957,11.996,16.778,12.111,16.582,12.111
		z"/>
	<path d="M8.5,13C8.224,13,8,12.775,8,12.5C8,11.673,7.327,11,6.5,11S5,11.673,5,12.5C5,12.775,4.775,13,4.5,13S4,12.775,4,12.5
		C4,11.121,5.121,10,6.5,10S9,11.121,9,12.5C9,12.775,8.775,13,8.5,13z"/>
	<path d="M16,14.75c-0.276,0-0.5-0.224-0.5-0.5c0-0.552-0.448-1-1-1s-1,0.448-1,1c0,0.276-0.224,0.5-0.5,0.5s-0.5-0.224-0.5-0.5
		c0-1.103,0.897-2,2-2s2,0.897,2,2C16.5,14.525,16.275,14.75,16,14.75z"/>
	<path d="M12.5,11c-0.276,0-0.5-0.224-0.5-0.5S11.775,10,11.5,10S11,10.224,11,10.5S10.775,11,10.5,11S10,10.776,10,10.5
		C10,9.673,10.673,9,11.5,9S13,9.673,13,10.5C13,10.776,12.775,11,12.5,11z"/>
	<path d="M12,24C5.046,24,0,19.794,0,14v-2.5C0,8.416,5.276,6,12.012,6h0.044c1.516,0,3.041,0.137,4.533,0.408
		c0.271,0.049,0.452,0.31,0.403,0.581C16.949,7.227,16.742,7.4,16.5,7.4c-0.03,0-0.06-0.003-0.091-0.008
		C14.978,7.132,13.513,7,12.056,7L12,7C6.037,7,1,9.061,1,11.5S6.037,16,12,16s11-2.061,11-4.5c-0.003-0.286-0.074-0.574-0.206-0.83
		c-0.126-0.245-0.029-0.547,0.216-0.673c0.071-0.036,0.15-0.055,0.229-0.055c0.188,0,0.358,0.104,0.445,0.271
		c0.203,0.396,0.313,0.839,0.316,1.283V14C24,19.794,18.953,24,12,24z M1,14c0,5.215,4.626,9,11,9s11-3.785,11-9v-0.246
		C21.141,15.718,16.875,17,12,17c-4.875,0-9.141-1.281-11-3.245V14z"/>
</g>
</svg>
