<?xml version="1.0" encoding="utf-8"?>
<!-- Generator: Adobe Illustrator 22.1.0, SVG Export Plug-In . SVG Version: 6.00 Build 0)  -->
<svg version="1.1" id="Light" xmlns="http://www.w3.org/2000/svg" xmlns:xlink="http://www.w3.org/1999/xlink" x="0px" y="0px"
	 viewBox="0 0 24 24" style="enable-background:new 0 0 24 24;" xml:space="preserve">
<g>
	<title>breakfast-croissant-1</title>
	<path d="M12.002,20.748c-1.611,0-3.192-0.283-4.699-0.842c-0.31-0.115-0.554-0.344-0.688-0.641c-1.24-0.221-2.44-0.701-3.478-1.392
		c-0.188-0.12-0.34-0.293-0.438-0.501c-1.121-1.124-1.975-2.669-2.407-4.357C-0.091,11.52-0.1,10.09,0.266,9.189
		c0.326-0.802,0.875-0.888,1.096-0.888c0.869,0,1.301,0.728,1.758,1.499c0.475,0.801,1.012,1.706,2.148,2.087
		c0.162-0.073,0.336-0.112,0.511-0.112c0.106,0,0.211,0.014,0.313,0.042l2.663,0.727c0.221-0.188,0.503-0.294,0.795-0.294h4.9
		c0.292,0,0.574,0.106,0.795,0.294l2.661-0.724c0.102-0.028,0.208-0.042,0.313-0.042c0.174,0,0.348,0.038,0.509,0.11
		c1.137-0.38,1.675-1.286,2.151-2.088c0.458-0.771,0.889-1.499,1.758-1.499c0.221,0,0.77,0.087,1.096,0.888
		c0.367,0.901,0.357,2.331-0.025,3.827c-0.432,1.689-1.286,3.234-2.408,4.358c-0.1,0.208-0.253,0.381-0.445,0.504
		c-1.031,0.687-2.228,1.166-3.467,1.386c-0.134,0.297-0.377,0.526-0.686,0.642C15.194,20.465,13.613,20.748,12.002,20.748z
		 M9.551,13.249c-0.1,0-0.187,0.064-0.217,0.159l-1.825,5.293c-0.033,0.104,0.03,0.227,0.141,0.268
		c1.397,0.517,2.861,0.779,4.353,0.779c1.491,0,2.956-0.262,4.352-0.779c0.112-0.042,0.171-0.164,0.136-0.278l-1.818-5.27
		c-0.034-0.107-0.12-0.172-0.222-0.172H9.551z M5.773,12.774c-0.086,0-0.167,0.048-0.205,0.124l-1.967,3.841
		c-0.054,0.105-0.019,0.233,0.081,0.297c0.878,0.585,1.885,1.001,2.926,1.211l1.656-4.801l-2.433-0.664
		C5.813,12.776,5.793,12.774,5.773,12.774z M17.394,18.246c1.041-0.21,2.044-0.625,2.916-1.205c0.108-0.069,0.144-0.195,0.089-0.302
		L18.432,12.9c-0.039-0.075-0.119-0.124-0.205-0.124c-0.02,0-0.039,0.003-0.058,0.008l-2.43,0.662L17.394,18.246z M1.366,9.301
		C1.339,9.312,1.264,9.389,1.193,9.566C0.764,10.62,0.982,13.69,2.84,16.032l1.716-3.351C3.34,12.129,2.744,11.126,2.26,10.31
		C1.889,9.685,1.644,9.304,1.366,9.301z M21.147,16.006c1.189-1.623,2.429-4.553,1.661-6.439c-0.072-0.177-0.146-0.254-0.174-0.265
		c-0.278,0.003-0.523,0.384-0.894,1.009c-0.485,0.817-1.08,1.82-2.297,2.371L21.147,16.006z"/>
	<path d="M16.5,10.749c-0.276,0-0.5-0.224-0.5-0.5v-6H7v6c0,0.276-0.224,0.5-0.5,0.5S6,10.525,6,10.249v-6c0-0.551,0.449-1,1-1h11
		c1.654,0,3,1.346,3,3s-1.346,3-3,3h-1v1C17,10.525,16.776,10.749,16.5,10.749z M18,8.249c1.103,0,2-0.897,2-2s-0.897-2-2-2h-1v4H18
		z"/>
</g>
</svg>
