<?xml version="1.0" encoding="utf-8"?>
<!-- Generator: Adobe Illustrator 22.1.0, SVG Export Plug-In . SVG Version: 6.00 Build 0)  -->
<svg version="1.1" id="Light" xmlns="http://www.w3.org/2000/svg" xmlns:xlink="http://www.w3.org/1999/xlink" x="0px" y="0px"
	 viewBox="0 0 24 24" style="enable-background:new 0 0 24 24;" xml:space="preserve">
<g>
	<title>breakfast-croissant</title>
	<path d="M3,23.998c-1.333-0.003-2.486-0.862-2.868-2.138c-0.475-1.584,0.427-3.26,2.012-3.735c0.28-0.084,0.568-0.126,0.858-0.126
		c0.581,0,1.155,0.173,1.643,0.491C5.294,17.565,6.364,17,7.5,16.998c0.827,0.01,1.616,0.306,2.248,0.838
		c0.629-0.54,1.42-0.836,2.252-0.838c0.831,0.011,1.62,0.305,2.25,0.834c0.519-0.445,1.148-0.723,1.833-0.808
		c0.143-0.018,0.289-0.027,0.432-0.027c1.134,0,2.204,0.565,2.852,1.492c0.488-0.318,1.06-0.491,1.638-0.491
		c0.804,0.001,1.557,0.315,2.123,0.883c0.567,0.568,0.878,1.321,0.877,2.121c-0.001,0.802-0.314,1.554-0.881,2.12
		c-0.566,0.565-1.319,0.876-2.118,0.876H3z M3.004,18.998c-0.193,0-0.386,0.028-0.573,0.084c-0.511,0.153-0.932,0.497-1.185,0.968
		c-0.254,0.471-0.309,1.012-0.156,1.522c0.255,0.851,1.023,1.424,1.911,1.426H21c0.536,0,1.038-0.207,1.416-0.584
		c0.378-0.377,0.587-0.879,0.588-1.413c0.001-0.534-0.207-1.037-0.584-1.415c-0.377-0.378-0.879-0.587-1.413-0.588
		c-0.43,0-0.846,0.139-1.191,0.394c0.073,0.22,0.124,0.441,0.151,0.659c0.017,0.132-0.02,0.263-0.102,0.369
		c-0.082,0.105-0.2,0.173-0.333,0.189c-0.018,0.003-0.04,0.004-0.062,0.004c-0.252,0-0.465-0.188-0.496-0.439
		c-0.03-0.237-0.094-0.47-0.19-0.691c-0.01-0.017-0.021-0.04-0.031-0.066c-0.41-0.864-1.288-1.421-2.24-1.421
		c-0.102,0-0.206,0.007-0.308,0.019c-0.473,0.059-0.922,0.256-1.287,0.562c0.286,0.427,0.478,0.914,0.559,1.421
		c0.021,0.132-0.01,0.264-0.089,0.372s-0.194,0.179-0.326,0.2c-0.025,0.004-0.052,0.006-0.079,0.006
		c-0.247,0-0.455-0.177-0.493-0.421c-0.197-1.234-1.246-2.141-2.495-2.158c-0.579,0.001-1.133,0.207-1.578,0.583
		c0.267,0.396,0.448,0.83,0.538,1.296c0.025,0.131-0.002,0.264-0.077,0.375c-0.075,0.111-0.188,0.186-0.319,0.211
		c-0.031,0.006-0.064,0.009-0.095,0.009c-0.239,0-0.445-0.17-0.491-0.405c-0.23-1.184-1.271-2.054-2.478-2.069
		c-0.86,0.001-1.654,0.448-2.107,1.178c0.223,0.289,0.388,0.611,0.493,0.96c0.079,0.264-0.071,0.543-0.335,0.623
		C5.497,20.773,5.449,20.78,5.4,20.78c-0.219,0-0.416-0.146-0.479-0.356c-0.093-0.31-0.255-0.584-0.482-0.817
		c-0.009-0.007-0.024-0.022-0.039-0.041C4.028,19.205,3.52,18.998,3.004,18.998z"/>
	<path d="M18.858,15.446c-0.226,0-0.448-0.078-0.625-0.219c-0.302-0.242-0.438-0.641-0.346-1.017
		c0.075-0.307,0.113-0.623,0.113-0.939c0-2.206-1.794-4-4-4h-1.022l-0.116,0.198c-0.086,0.147-0.209,0.27-0.355,0.355
		c-0.154,0.091-0.328,0.138-0.506,0.138c-0.085,0-0.169-0.011-0.252-0.032c-0.259-0.067-0.476-0.231-0.611-0.461L11.022,9.27H10
		c-2.206,0-4,1.794-4,4c0,0.316,0.038,0.632,0.113,0.939c0.092,0.376-0.044,0.775-0.346,1.017c-0.177,0.141-0.398,0.219-0.625,0.219
		c-0.306,0-0.591-0.136-0.781-0.375c-0.425-0.531-0.785-1.113-1.071-1.73c-0.972-2.095-1.052-4.44-0.225-6.606
		C3.076,6.68,3.097,6.627,3.126,6.579C3.878,4.72,5.254,3.193,7.018,2.258C6.959,1.925,7.015,1.584,7.18,1.282
		c0.192-0.352,0.51-0.608,0.894-0.72c1.278-0.375,2.6-0.564,3.927-0.564s2.648,0.19,3.927,0.564
		c0.117,0.034,0.231,0.083,0.337,0.146c0.54,0.317,0.821,0.944,0.717,1.549c1.859,0.983,3.275,2.605,4.001,4.585
		c0.781,2.132,0.684,4.44-0.271,6.5c-0.287,0.617-0.647,1.199-1.071,1.729C19.449,15.31,19.164,15.446,18.858,15.446z M3.826,7.598
		c-0.536,1.767-0.407,3.645,0.371,5.323c0.252,0.544,0.57,1.057,0.945,1.526C5.048,14.062,5,13.666,5,13.27
		c0-1.472,0.663-2.876,1.789-3.823L3.826,7.598z M17.211,9.446C18.338,10.394,19,11.798,19,13.27c0,0.396-0.047,0.792-0.141,1.177
		c0.375-0.469,0.692-0.982,0.945-1.526c0.78-1.681,0.91-3.56,0.375-5.324L17.211,9.446z M12,0.997c-1.232,0-2.459,0.176-3.646,0.524
		C8.09,1.599,7.938,1.877,8.016,2.142c0.012,0.039,0.028,0.077,0.048,0.112l3.936,6.708l3.936-6.708
		c0.139-0.238,0.06-0.545-0.178-0.685c-0.035-0.021-0.073-0.037-0.112-0.048C14.459,1.174,13.232,0.997,12,0.997z M14,8.27
		c0.799,0,1.592,0.195,2.302,0.565l3.518-2.193c-0.676-1.48-1.822-2.702-3.259-3.476L13.565,8.27H14z M7.699,8.835
		C8.409,8.465,9.201,8.27,10,8.27h0.435L7.44,3.166C6.007,3.939,4.863,5.161,4.184,6.644L7.699,8.835z"/>
</g>
</svg>
