<?xml version="1.0" encoding="utf-8"?>
<!-- Generator: Adobe Illustrator 22.1.0, SVG Export Plug-In . SVG Version: 6.00 Build 0)  -->
<svg version="1.1" id="Light" xmlns="http://www.w3.org/2000/svg" xmlns:xlink="http://www.w3.org/1999/xlink" x="0px" y="0px"
	 viewBox="0 0 24 24" style="enable-background:new 0 0 24 24;" xml:space="preserve">
<g>
	<title>breakfast-english</title>
	<path d="M9.999,6c-1.654,0-3-1.346-3-3c0-1.347,0.907-2.533,2.208-2.89C9.229,0.102,9.248,0.098,9.26,0.096
		C9.509,0.032,9.758,0,9.999,0h11c1.654,0,3,1.346,3,3s-1.346,3-3,3H9.999z M9.247,1.148C8.495,1.452,7.999,2.179,7.999,3
		c0,1.103,0.897,2,2,2h11c1.103,0,2-0.897,2-2s-0.897-2-2-2h-2l1.096,1.096c0.195,0.195,0.195,0.512,0,0.707
		c-0.094,0.094-0.22,0.146-0.354,0.146s-0.259-0.052-0.354-0.146L17.585,1h-2.829l1.096,1.096c0.195,0.195,0.195,0.512,0,0.707
		c-0.094,0.094-0.22,0.146-0.354,0.146s-0.259-0.052-0.354-0.146L13.342,1h-2.828l1.096,1.096c0.195,0.195,0.195,0.512,0,0.707
		c-0.095,0.094-0.22,0.146-0.354,0.146c-0.134,0-0.259-0.052-0.354-0.146L9.247,1.148z"/>
	<path d="M6.498,20c-3.559,0-6.475-2.896-6.499-6.456C-0.025,9.96,2.871,7.025,6.455,7l5.544,0c0.938,0,1.815,0.362,2.476,1.02
		c0.662,0.66,1.028,1.538,1.03,2.473c0.003,1.574-1.022,2.932-2.515,3.366c-0.086,1.583-0.743,3.071-1.863,4.206
		C9.907,19.301,8.28,19.988,6.544,20L6.498,20z M6.461,8C4.995,8.01,3.619,8.593,2.586,9.64s-1.596,2.432-1.586,3.898
		C1.02,16.549,3.487,19,6.499,19l0.04,0.25L6.537,19c1.469-0.01,2.846-0.592,3.878-1.637c1.032-1.046,1.594-2.431,1.584-3.9
		c-0.002-0.247,0.174-0.456,0.417-0.497c1.212-0.203,2.091-1.242,2.088-2.471c-0.001-0.668-0.262-1.295-0.736-1.766
		C13.297,8.259,12.684,8,12.042,8L6.499,8L6.461,8z"/>
	<path d="M6.499,17c-1.93,0-3.5-1.57-3.5-3.5s1.57-3.5,3.5-3.5s3.5,1.57,3.5,3.5S8.429,17,6.499,17z M6.499,11
		c-1.379,0-2.5,1.121-2.5,2.5c0,1.378,1.121,2.5,2.5,2.5s2.5-1.122,2.5-2.5C8.999,12.122,7.878,11,6.499,11z"/>
	<circle cx="5.499" cy="13" r="0.75"/>
	<path d="M23.082,13.466c-0.11,0-0.219-0.037-0.306-0.104c-0.105-0.081-0.173-0.199-0.19-0.332c-0.017-0.133,0.019-0.264,0.1-0.37
		c0.46-0.596,0.406-1.446-0.127-1.978c-0.71-0.71-0.927-1.771-0.552-2.703l-0.987,0.019c-0.458,0.591-0.412,1.44,0.124,1.977
		c0.545,0.545,0.811,1.326,0.711,2.09c-0.031,0.248-0.245,0.436-0.495,0.436c-0.022,0-0.043-0.001-0.065-0.004
		c-0.132-0.017-0.25-0.085-0.331-0.191c-0.081-0.106-0.117-0.237-0.099-0.369c0.059-0.458-0.1-0.927-0.427-1.254
		C19.725,9.968,19.52,8.914,19.882,8h-0.975c-0.47,0.585-0.417,1.437,0.121,1.974c0.402,0.402,0.657,0.935,0.718,1.5
		c0.014,0.133-0.024,0.263-0.108,0.367c-0.084,0.104-0.203,0.169-0.336,0.183c-0.016,0.002-0.036,0.003-0.055,0.003
		c-0.255,0-0.468-0.192-0.495-0.447c-0.036-0.339-0.189-0.658-0.43-0.899c-0.896-0.895-0.98-2.321-0.196-3.315
		C18.324,7.131,18.607,7,18.905,7h3.102c0.131,0.002,0.249,0.024,0.355,0.064c0.248,0.094,0.445,0.278,0.553,0.52
		c0.109,0.242,0.117,0.511,0.024,0.759c-0.229,0.567-0.099,1.205,0.327,1.632c0.888,0.887,0.978,2.304,0.211,3.297
		C23.383,13.395,23.238,13.466,23.082,13.466z"/>
	<path d="M13.705,24c-0.089,0-0.178-0.005-0.268-0.014c-0.309-0.042-0.571-0.213-0.725-0.47l-1.652-2.622
		c-0.068-0.111-0.112-0.227-0.134-0.347c-0.048-0.262,0.009-0.528,0.16-0.748c0.152-0.22,0.38-0.368,0.643-0.416
		c0.578-0.112,1.039-0.557,1.173-1.134c0.258-1.137,1.283-1.955,2.44-1.955c0.185,0,0.371,0.021,0.552,0.062
		c0.109,0.025,0.22,0.037,0.331,0.037c0.694,0,1.309-0.491,1.463-1.169c0.256-1.128,1.28-1.948,2.436-1.948
		c0.089,0,0.179,0.005,0.27,0.015c0.311,0.043,0.574,0.215,0.728,0.475l1.649,2.616c0.068,0.11,0.113,0.226,0.135,0.348
		c0.048,0.262-0.009,0.527-0.16,0.747s-0.38,0.368-0.643,0.416c-0.582,0.112-1.045,0.561-1.176,1.142
		c-0.147,0.652-0.54,1.207-1.104,1.563c-0.4,0.253-0.86,0.386-1.329,0.386c0,0,0,0,0,0c-0.186,0-0.373-0.021-0.556-0.062
		c-0.11-0.025-0.222-0.038-0.334-0.038c-0.693,0-1.308,0.492-1.461,1.169C15.882,23.199,14.88,24,13.705,24z M13.562,22.989
		C13.605,22.998,13.658,23,13.71,23c0.69,0,1.303-0.492,1.456-1.17c0.148-0.651,0.54-1.206,1.105-1.562
		c0.401-0.252,0.86-0.386,1.329-0.386c0.186,0,0.374,0.021,0.557,0.062c0.109,0.025,0.22,0.037,0.331,0.037
		c0.694,0,1.309-0.491,1.462-1.169c0.219-0.969,0.99-1.717,1.966-1.905l-0.518-0.828c-0.047-0.005-0.095-0.007-0.142-0.007
		c-0.694,0-1.309,0.49-1.461,1.166c-0.256,1.129-1.281,1.948-2.437,1.948c-0.186,0-0.372-0.021-0.555-0.062
		c-0.109-0.025-0.22-0.037-0.331-0.037c-0.694,0-1.309,0.492-1.462,1.169c-0.224,0.986-1.006,1.721-1.97,1.903L13.562,22.989z
		 M12.434,21.197c0.046,0.004,0.093,0.007,0.14,0.007c0.694,0,1.308-0.49,1.461-1.166c0.001-0.003,0.002-0.006,0.002-0.01
		c0.259-1.124,1.282-1.939,2.437-1.939c0.185,0,0.37,0.021,0.551,0.062c0.111,0.025,0.224,0.038,0.336,0.038
		c0.28,0,0.556-0.08,0.796-0.232c0.339-0.214,0.574-0.546,0.663-0.937c0.223-0.984,1.006-1.72,1.973-1.902l-0.524-0.831
		c-0.042-0.009-0.095-0.012-0.147-0.012c-0.702,0-1.302,0.481-1.458,1.169c-0.256,1.128-1.281,1.948-2.439,1.948
		c-0.185,0-0.37-0.021-0.551-0.062c-0.111-0.025-0.224-0.038-0.336-0.038c-0.28,0-0.555,0.08-0.796,0.232
		c-0.337,0.212-0.572,0.542-0.662,0.93c-0.221,0.976-0.992,1.723-1.967,1.91L12.434,21.197z"/>
</g>
</svg>
