<?xml version="1.0" encoding="utf-8"?>
<!-- Generator: Adobe Illustrator 22.1.0, SVG Export Plug-In . SVG Version: 6.00 Build 0)  -->
<svg version="1.1" id="Light" xmlns="http://www.w3.org/2000/svg" xmlns:xlink="http://www.w3.org/1999/xlink" x="0px" y="0px"
	 viewBox="0 0 24 24" style="enable-background:new 0 0 24 24;" xml:space="preserve">
<g>
	<title>water-bottle-1</title>
	<path d="M7.5,24C6.121,24,5,22.878,5,21.5v-2.293c0-0.267,0.104-0.517,0.292-0.706L6.293,17.5l-1-1C5.104,16.31,5,16.06,5,15.793
		v-2.586c0-0.267,0.104-0.517,0.292-0.706L6.293,11.5l-1-1C5.104,10.31,5,10.06,5,9.793V7.5c0-2.298,1.739-4.216,4-4.467V1.5
		C9,0.673,9.673,0,10.5,0h3C14.327,0,15,0.673,15,1.5v1.533c2.261,0.251,4,2.169,4,4.467v2.293c0,0.266-0.104,0.517-0.292,0.706
		L17.707,11.5l1,1C18.896,12.69,19,12.941,19,13.207v2.586c0,0.266-0.104,0.517-0.292,0.706L17.707,17.5l1,1
		C18.896,18.69,19,18.941,19,19.207V21.5c0,1.378-1.122,2.5-2.5,2.5H7.5z M6,19.208L6,21.5C6,22.327,6.673,23,7.5,23h9
		c0.827,0,1.5-0.673,1.5-1.5v-2.293L16.793,18H7.207L6,19.208z M16.793,17L18,15.792l0-2.585L16.793,12H7.207L6,13.208l0,2.585
		L7.207,17H16.793z M16.793,11L18,9.793L18,7.5C18,5.57,16.43,4,14.5,4h-5C7.57,4,6,5.57,6,7.5v2.293L7.207,11H16.793z M14,3V1.5
		C14,1.224,13.776,1,13.5,1h-3C10.224,1,10,1.224,10,1.5V3H14z"/>
</g>
</svg>
