<?xml version="1.0" encoding="utf-8"?>
<!-- Generator: Adobe Illustrator 22.1.0, SVG Export Plug-In . SVG Version: 6.00 Build 0)  -->
<svg version="1.1" id="Light" xmlns="http://www.w3.org/2000/svg" xmlns:xlink="http://www.w3.org/1999/xlink" x="0px" y="0px"
	 viewBox="0 0 24 24" style="enable-background:new 0 0 24 24;" xml:space="preserve">
<g>
	<title>water-glass-half-full</title>
	<path d="M12,24c-4.959,0-6-0.805-6-1.481L5.013,12.357C5.006,12.327,5,12.289,5,12.249c0-0.005,0-0.012,0.001-0.018L4.002,1.937
		C4.002,1.929,4,1.893,4,1.889C4,0.091,10.664,0,12,0s8,0.091,8,1.889c0,0.007-0.002,0.04-0.002,0.047L19,12.234
		c0,0.006,0,0.011,0,0.016c0,0.034-0.005,0.067-0.011,0.099l-0.991,10.219c0.001,0.163-0.075,0.334-0.226,0.485
		C16.917,23.908,13.451,24,12,24z M6.989,22.385C7.277,22.573,8.808,23,12,23c3.182,0,4.719-0.423,5.013-0.611l0.881-9.098
		c-1.818,0.642-5.455,0.662-5.894,0.662c-0.439,0-4.074-0.02-5.892-0.662L6.989,22.385z M6.153,12.251
		c0.604,0.27,2.576,0.702,5.847,0.702c3.279,0,5.247-0.435,5.848-0.706c-0.606-0.27-2.577-0.702-5.848-0.702
		C8.722,11.545,6.754,11.979,6.153,12.251z M12,10.545c0.466,0,4.348,0.022,6.088,0.736l0.805-8.312
		C16.845,3.754,12.519,3.778,12,3.778S7.155,3.754,5.107,2.969l0.806,8.312C7.653,10.567,11.534,10.545,12,10.545z M5.072,1.889
		C5.58,2.2,7.888,2.778,12,2.778c4.113,0,6.42-0.578,6.928-0.889C18.418,1.577,16.11,1,12,1S5.582,1.577,5.072,1.889z"/>
</g>
</svg>
