<?xml version="1.0" encoding="utf-8"?>
<!-- Generator: Adobe Illustrator 22.1.0, SVG Export Plug-In . SVG Version: 6.00 Build 0)  -->
<svg version="1.1" id="Light" xmlns="http://www.w3.org/2000/svg" xmlns:xlink="http://www.w3.org/1999/xlink" x="0px" y="0px"
	 viewBox="0 0 24 24" style="enable-background:new 0 0 24 24;" xml:space="preserve">
<g>
	<title>water-pitcher</title>
	<path d="M9.047,23.997c-1.465,0-2.851-0.639-3.802-1.753c-1.37-1.603-1.208-3.721-0.855-5.596c-0.017-0.05-0.026-0.1-0.026-0.151
		c0-0.117,0.043-0.229,0.119-0.319c0.207-0.986,0.487-2.033,0.782-3.14C5.751,11.217,6.3,9.164,6.613,6.997H3.879
		c-0.827,0-1.5,0.673-1.5,1.5v5.119c0,0.276-0.224,0.5-0.5,0.5s-0.5-0.224-0.5-0.5V8.497c0-1.379,1.121-2.5,2.5-2.5h2.86
		c0.057-0.534,0.098-1.059,0.119-1.564c0.035-0.805,0.693-1.436,1.499-1.436h6.085c0.292,0,0.574-0.084,0.818-0.243l3.932-2.563
		c0.16-0.124,0.373-0.196,0.601-0.196c0.325,0,0.636,0.153,0.834,0.409c0.206,0.267,0.27,0.618,0.173,0.94l-0.657,2.14
		c-0.079,0.258-0.116,0.525-0.109,0.795c0.074,3.109,0.831,5.935,1.499,8.428c0.315,1.178,0.642,2.395,0.849,3.511
		c0.056,0.082,0.086,0.179,0.086,0.279c0,0.041-0.005,0.081-0.015,0.121c0.221,1.357,0.229,2.443,0.024,3.415
		c-0.484,2.297-2.539,3.964-4.886,3.964H9.047z M5.345,16.997c-0.393,2.216-0.193,3.598,0.66,4.597
		c0.761,0.891,1.87,1.403,3.042,1.403h8.54c1.88,0,3.524-1.333,3.911-3.17c0.167-0.795,0.168-1.699,0-2.83H5.345z M21.319,15.997
		c-0.197-0.953-0.468-1.965-0.753-3.031c-0.683-2.547-1.456-5.435-1.533-8.663c-0.009-0.378,0.043-0.752,0.153-1.112l0.657-2.138
		c0.004-0.012,0-0.027-0.008-0.038c-0.012-0.016-0.028-0.018-0.037-0.018c-0.01,0-0.02,0.003-0.028,0.009l-3.964,2.586
		c-0.406,0.265-0.877,0.405-1.362,0.405H8.357c-0.269,0-0.488,0.21-0.5,0.478c-0.138,3.248-0.929,6.208-1.626,8.82
		c-0.24,0.9-0.488,1.827-0.684,2.702H21.319z"/>
</g>
</svg>
