<?xml version="1.0" encoding="utf-8"?>
<!-- Generator: Adobe Illustrator 22.1.0, SVG Export Plug-In . SVG Version: 6.00 Build 0)  -->
<svg version="1.1" id="Light" xmlns="http://www.w3.org/2000/svg" xmlns:xlink="http://www.w3.org/1999/xlink" x="0px" y="0px"
	 viewBox="0 0 24 24" style="enable-background:new 0 0 24 24;" xml:space="preserve">
<g>
	<title>water-bottle-glass</title>
	<path d="M12,24c-5.318,0-6-0.668-6-1.25V10c0-1.292,0.726-2.713,1.31-3.855C7.633,5.512,8,4.794,8,4.5V1c0-0.551,0.449-1,1-1h6
		c0.552,0,1,0.449,1,1v3.5c0,0.294,0.367,1.012,0.69,1.645C17.274,7.287,18,8.708,18,10v12.75C18,23.332,17.318,24,12,24z M7,22.565
		C7.387,22.712,8.925,23,12,23c3.07,0,4.608-0.287,5-0.436V10c0-1.051-0.665-2.353-1.2-3.399C15.353,5.726,15,5.035,15,4.5V4H9v0.5
		c0,0.535-0.353,1.225-0.8,2.1C7.665,7.646,7,8.949,7,10V22.565z M15,3V1H9l0,2H15z"/>
</g>
</svg>
