<?xml version="1.0" encoding="utf-8"?>
<!-- Generator: Adobe Illustrator 22.1.0, SVG Export Plug-In . SVG Version: 6.00 Build 0)  -->
<svg version="1.1" id="Layer_1" xmlns="http://www.w3.org/2000/svg" xmlns:xlink="http://www.w3.org/1999/xlink" x="0px" y="0px"
	 viewBox="0 0 24 24" style="enable-background:new 0 0 24 24;" xml:space="preserve">
<g>
	<title>car-sports</title>
	<path d="M18,17.75c-1.077,0-2.058-0.571-2.595-1.5h-7.31c-0.537,0.929-1.518,1.5-2.595,1.5s-2.057-0.571-2.595-1.5H1
		c-0.551,0-1-0.448-1-1v-1.5c0-2.944,1.383-4.5,4-4.5c0.291,0,0.579-0.005,0.86-0.009c0.271-0.004,0.531-0.009,0.782-0.009
		c1.145,0,2.006,0.098,2.487,0.576c0.224,0.224,0.505,0.369,0.81,0.42L7.809,7.97c-0.06-0.12-0.069-0.255-0.027-0.382
		s0.131-0.229,0.251-0.289c0.069-0.035,0.146-0.053,0.223-0.053c0.191,0,0.362,0.106,0.447,0.276l1.364,2.728h3.519
		c0.098-0.276,0.278-0.518,0.513-0.694l-2.452-2.452C11.552,7.009,11.5,6.884,11.5,6.75s0.052-0.259,0.146-0.354
		S11.866,6.25,12,6.25s0.259,0.052,0.354,0.146l2.854,2.854H19.5c2.481,0,4.5,2.019,4.5,4.5v1.5c0,0.552-0.448,1-1,1h-2.405
		C20.058,17.179,19.077,17.75,18,17.75z M18,12.75c-1.103,0-2,0.897-2,2s0.897,2,2,2s2-0.897,2-2S19.103,12.75,18,12.75z M5.5,12.75
		c-1.103,0-2,0.897-2,2s0.897,2,2,2s2-0.897,2-2S6.603,12.75,5.5,12.75z M23,15.25v-1.5c0-1.93-1.57-3.5-3.5-3.5H15
		c-0.276,0-0.5,0.224-0.5,0.5s-0.224,0.5-0.5,0.5H9.192c-0.669,0-1.297-0.261-1.77-0.734c-0.286-0.284-1.333-0.284-1.781-0.284
		c-0.247,0-0.504,0.004-0.764,0.009C4.591,10.245,4.297,10.25,4,10.25c-2.047,0-3,1.112-3,3.5v1.5h1.543
		C2.515,15.083,2.5,14.916,2.5,14.75c0-1.654,1.346-3,3-3s3,1.346,3,3c0,0.166-0.015,0.333-0.043,0.5h6.587
		C15.015,15.083,15,14.916,15,14.75c0-1.654,1.346-3,3-3s3,1.346,3,3c0,0.166-0.015,0.333-0.043,0.5H23z"/>
</g>
</svg>
