<?xml version="1.0" encoding="utf-8"?>
<!-- Generator: Adobe Illustrator 22.1.0, SVG Export Plug-In . SVG Version: 6.00 Build 0)  -->
<svg version="1.1" id="Layer_1" xmlns="http://www.w3.org/2000/svg" xmlns:xlink="http://www.w3.org/1999/xlink" x="0px" y="0px"
	 viewBox="0 0 24 24" style="enable-background:new 0 0 24 24;" xml:space="preserve">
<g>
	<title>car-retro-2</title>
	<path d="M19.5,18c-1.199,0-2.215-0.845-2.449-2H7.949c-0.234,1.155-1.25,2-2.449,2s-2.215-0.845-2.449-2H0.5
		C0.224,16,0,15.776,0,15.5S0.224,15,0.5,15H1v-3c0-1.103,0.897-2,2-2h1.191l1.586-3.171C6.032,6.318,6.546,6,7.118,6h8.264
		c0.572,0,1.086,0.318,1.341,0.83L18.309,10H22c1.103,0,2,0.897,2,2v2.5c0,0.827-0.673,1.5-1.5,1.5h-0.551
		C21.715,17.155,20.699,18,19.5,18z M19.5,14c-0.827,0-1.5,0.673-1.5,1.5s0.673,1.5,1.5,1.5s1.5-0.673,1.5-1.5S20.327,14,19.5,14z
		 M5.5,14C4.673,14,4,14.673,4,15.5S4.673,17,5.5,17S7,16.327,7,15.5S6.327,14,5.5,14z M22.5,15c0.276,0,0.5-0.224,0.5-0.5V12
		c0-0.551-0.448-1-1-1H3c-0.551,0-1,0.449-1,1v3h1.051c0.234-1.155,1.25-2,2.449-2s2.215,0.845,2.449,2h9.102
		c0.234-1.155,1.25-2,2.449-2s2.215,0.845,2.449,2H22.5z M17.191,10l-1.362-2.723C15.743,7.106,15.572,7,15.382,7H11.5v3H17.191z
		 M10.5,10V7H7.118C6.928,7,6.756,7.106,6.671,7.277L5.309,10H10.5z"/>
</g>
</svg>
