<?xml version="1.0" encoding="utf-8"?>
<!-- Generator: Adobe Illustrator 22.1.0, SVG Export Plug-In . SVG Version: 6.00 Build 0)  -->
<svg version="1.1" id="Layer_1" xmlns="http://www.w3.org/2000/svg" xmlns:xlink="http://www.w3.org/1999/xlink" x="0px" y="0px"
	 viewBox="0 0 24 24" style="enable-background:new 0 0 24 24;" xml:space="preserve">
<g>
	<title>car-retro-1</title>
	<path d="M19.5,19.5c-1.199,0-2.215-0.845-2.449-2H7.949c-0.234,1.155-1.25,2-2.449,2s-2.215-0.845-2.449-2H0.5
		C0.224,17.5,0,17.276,0,17s0.224-0.5,0.5-0.5h0.576l0.708-4.255C2.528,7.761,6.366,4.504,10.911,4.5
		c3.901,0,7.413,2.317,8.948,5.903l0.475,1.107C24,11.739,24,15.689,24,17c0,0.276-0.224,0.5-0.5,0.5h-1.551
		C21.715,18.655,20.699,19.5,19.5,19.5z M19.5,15.5c-0.827,0-1.5,0.673-1.5,1.5s0.673,1.5,1.5,1.5S21,17.827,21,17
		S20.327,15.5,19.5,15.5z M5.5,15.5C4.673,15.5,4,16.173,4,17s0.673,1.5,1.5,1.5S7,17.827,7,17S6.327,15.5,5.5,15.5z M22.992,16.5
		c-0.095-2.8-0.998-4-2.992-4c-0.2,0-0.381-0.119-0.46-0.303l-0.6-1.4C17.563,7.579,14.412,5.5,10.912,5.5
		C6.858,5.504,3.434,8.409,2.77,12.409L2.09,16.5h0.961c0.234-1.155,1.25-2,2.449-2s2.215,0.845,2.449,2h9.102
		c0.234-1.155,1.25-2,2.449-2s2.215,0.845,2.449,2H22.992z"/>
	<path d="M5,11.5c-0.173,0-0.331-0.087-0.423-0.233c-0.092-0.146-0.103-0.326-0.028-0.482C5.534,8.721,7.817,6.5,10.5,6.5
		c0.086,0,0.183-0.002,0.291-0.005c0.176-0.004,0.35-0.009,0.542-0.009c4.567,0,6.111,3.235,6.618,4.299
		c0.075,0.156,0.064,0.336-0.028,0.482c-0.092,0.146-0.25,0.233-0.423,0.233H5z M16.669,10.5c-1.587-2.692-3.781-3.014-5.32-3.014
		c-0.123,0-0.24,0.002-0.349,0.004v3.01H16.669z M10,10.5V7.536C8.172,7.765,6.684,9.183,5.848,10.5H10z"/>
</g>
</svg>
