<?xml version="1.0" encoding="utf-8"?>
<!-- Generator: Adobe Illustrator 22.1.0, SVG Export Plug-In . SVG Version: 6.00 Build 0)  -->
<svg version="1.1" id="Layer_1" xmlns="http://www.w3.org/2000/svg" xmlns:xlink="http://www.w3.org/1999/xlink" x="0px" y="0px"
	 viewBox="0 0 24 24" style="enable-background:new 0 0 24 24;" xml:space="preserve">
<g>
	<title>car-truck</title>
	<path d="M19.5,18c-1.199,0-2.215-0.845-2.449-2H9.949c-0.234,1.155-1.25,2-2.449,2s-2.215-0.845-2.449-2H0.5
		C0.224,16,0,15.776,0,15.5S0.224,15,0.5,15H1v-4c0-0.551,0.449-1,1-1h8V7c0-0.551,0.449-1,1-1h3.764c0.953,0,1.81,0.53,2.236,1.382
		L18.309,10H22c1.103,0,2,0.897,2,2v3c0,0.552-0.448,1-1,1h-1.051C21.715,17.155,20.699,18,19.5,18z M19.5,14
		c-0.827,0-1.5,0.673-1.5,1.5s0.673,1.5,1.5,1.5s1.5-0.673,1.5-1.5S20.327,14,19.5,14z M7.5,14C6.673,14,6,14.673,6,15.5
		S6.673,17,7.5,17S9,16.327,9,15.5S8.327,14,7.5,14z M23,15v-3c0-0.551-0.448-1-1-1H2v4h3.051c0.234-1.155,1.25-2,2.449-2
		s2.215,0.845,2.449,2h7.102c0.234-1.155,1.25-2,2.449-2s2.215,0.845,2.449,2H23z M17.191,10l-1.085-2.17
		C15.85,7.318,15.336,7,14.764,7H11l0,3H17.191z"/>
</g>
</svg>
