<?xml version="1.0" encoding="utf-8"?>
<!-- Generator: Adobe Illustrator 22.1.0, SVG Export Plug-In . SVG Version: 6.00 Build 0)  -->
<svg version="1.1" id="Layer_1" xmlns="http://www.w3.org/2000/svg" xmlns:xlink="http://www.w3.org/1999/xlink" x="0px" y="0px"
	 viewBox="0 0 24 24" style="enable-background:new 0 0 24 24;" xml:space="preserve">
<g>
	<title>car-sun</title>
	<path d="M20.133,24c-0.711,0-1.374-0.388-1.729-1h-6.792c-0.356,0.612-1.018,1-1.729,1s-1.374-0.388-1.729-1H5.883
		c-0.276,0-0.5-0.224-0.5-0.5s0.224-0.5,0.5-0.5H6.21l0.513-3.082c0.566-3.425,3.496-5.914,6.969-5.918
		c2.976,0,5.655,1.768,6.825,4.503l0.326,0.759c1.079,0.058,1.903,0.403,2.45,1.027c0.596,0.678,0.817,1.635,0.659,2.845
		c-0.065,0.496-0.491,0.87-0.99,0.87h-1.1C21.505,23.614,20.843,24,20.133,24z M20.133,21c-0.552,0-1,0.448-1,1s0.448,1,1,1
		s1-0.448,1-1S20.685,21,20.133,21z M9.883,21c-0.551,0-1,0.448-1,1s0.449,1,1,1s1-0.448,1-1S10.435,21,9.883,21z M22.96,22.003
		c0.119-0.911-0.022-1.602-0.42-2.055c-0.405-0.461-1.088-0.695-2.032-0.695c-0.2,0-0.381-0.119-0.459-0.303l-0.452-1.053
		C18.584,15.53,16.266,14,13.691,14c-2.981,0.003-5.497,2.14-5.983,5.082L7.223,22h0.66c0-1.103,0.897-2,2-2s2,0.897,2,2h6.25
		c0-1.103,0.897-2,2-2s2,0.897,2,2c0,0.001,0,0.002,0,0.003H22.96z"/>
	<path d="M10.024,19c-0.155,0-0.299-0.07-0.395-0.193c-0.096-0.123-0.128-0.28-0.09-0.43c0.505-1.989,2.29-3.379,4.342-3.379
		c0.371,0,0.742,0.047,1.105,0.139c1.594,0.404,2.835,1.646,3.24,3.24c0.038,0.151,0.005,0.307-0.09,0.43
		C18.04,18.93,17.896,19,17.741,19H10.024z M17.034,18c-0.439-0.939-1.275-1.635-2.294-1.894c-0.282-0.072-0.57-0.108-0.858-0.108
		c-1.358,0-2.583,0.791-3.15,2.002H17.034z"/>
	<path d="M1.75,23C0.785,23,0,22.215,0,21.25s0.785-1.75,1.75-1.75s1.75,0.785,1.75,1.75S2.715,23,1.75,23z M1.75,20.5
		C1.337,20.5,1,20.836,1,21.25S1.337,22,1.75,22s0.75-0.336,0.75-0.75S2.164,20.5,1.75,20.5z"/>
	<path d="M6.5,2C6.224,2,6,1.776,6,1.5v-1C6,0.224,6.224,0,6.5,0S7,0.224,7,0.5v1C7,1.776,6.776,2,6.5,2z"/>
	<path d="M3.345,3.32c-0.134,0-0.259-0.052-0.354-0.146L2.285,2.467C2.19,2.372,2.138,2.247,2.138,2.113
		c0-0.134,0.052-0.259,0.146-0.354s0.22-0.146,0.354-0.146S2.897,1.665,2.992,1.76l0.707,0.707c0.094,0.094,0.146,0.22,0.146,0.354
		c0,0.134-0.052,0.259-0.146,0.354S3.479,3.32,3.345,3.32z"/>
	<path d="M1,6.5C0.724,6.5,0.5,6.276,0.5,6S0.724,5.5,1,5.5h1c0.276,0,0.5,0.224,0.5,0.5S2.276,6.5,2,6.5H1z"/>
	<path d="M2.638,10.392c-0.133,0-0.259-0.052-0.353-0.146c-0.095-0.094-0.147-0.22-0.147-0.354c0-0.134,0.052-0.259,0.146-0.354
		l0.707-0.708c0.094-0.095,0.22-0.147,0.354-0.147c0.133,0,0.259,0.052,0.353,0.146c0.095,0.094,0.147,0.22,0.147,0.354
		c0,0.134-0.052,0.259-0.146,0.354l-0.707,0.708C2.898,10.34,2.772,10.392,2.638,10.392z"/>
	<path d="M6.5,12C6.224,12,6,11.776,6,11.5v-1C6,10.224,6.224,10,6.5,10S7,10.224,7,10.5v1C7,11.776,6.776,12,6.5,12z"/>
	<path d="M10.416,10.392c-0.134,0-0.259-0.052-0.354-0.147L9.355,9.537c-0.195-0.195-0.195-0.512,0-0.707
		c0.095-0.094,0.22-0.146,0.353-0.146c0.134,0,0.259,0.052,0.354,0.147l0.707,0.708c0.094,0.094,0.146,0.22,0.146,0.354
		c0,0.134-0.052,0.259-0.147,0.353C10.675,10.34,10.55,10.392,10.416,10.392z"/>
	<path d="M11,6.5c-0.276,0-0.5-0.224-0.5-0.5s0.224-0.5,0.5-0.5h1c0.276,0,0.5,0.224,0.5,0.5S12.276,6.5,12,6.5H11z"/>
	<path d="M9.709,3.32c-0.134,0-0.259-0.052-0.354-0.146S9.209,2.953,9.209,2.82c0-0.134,0.052-0.259,0.147-0.354l0.707-0.707
		c0.094-0.094,0.22-0.146,0.354-0.146s0.259,0.052,0.354,0.146s0.146,0.22,0.146,0.354c0,0.134-0.052,0.259-0.147,0.354
		l-0.707,0.707C9.968,3.268,9.843,3.32,9.709,3.32z"/>
	<path d="M6.5,9.018c-1.654,0-3-1.346-3-3s1.346-3,3-3s3,1.346,3,3S8.154,9.018,6.5,9.018z M6.5,4.018c-1.103,0-2,0.897-2,2
		s0.897,2,2,2s2-0.897,2-2S7.603,4.018,6.5,4.018z"/>
</g>
</svg>
