<?xml version="1.0" encoding="utf-8"?>
<!-- Generator: Adobe Illustrator 22.1.0, SVG Export Plug-In . SVG Version: 6.00 Build 0)  -->
<svg version="1.1" id="Layer_1" xmlns="http://www.w3.org/2000/svg" xmlns:xlink="http://www.w3.org/1999/xlink" x="0px" y="0px"
	 viewBox="0 0 24 24" style="enable-background:new 0 0 24 24;" xml:space="preserve">
<g>
	<title>car-clouds</title>
	<path d="M21.859,7.008c-0.036,0-0.07-0.001-0.105-0.003l-6.309,0.001c-0.02,0-0.04-0.001-0.06-0.004
		c-1.332-0.161-2.353-1.295-2.375-2.637c0-1.398,1.054-2.532,2.425-2.645c0.626-1.057,1.761-1.708,2.995-1.708h0.053
		c1.648,0,3.11,1.175,3.488,2.766c0.955,0.037,1.782,0.727,1.983,1.67C23.985,4.595,24.001,4.746,24,4.896
		c-0.013,1.165-0.969,2.112-2.132,2.112H21.859z M21.853,6.008l0.028,0.25v-0.25c0.61,0,1.112-0.502,1.119-1.12
		c0-0.075-0.008-0.154-0.024-0.232c-0.109-0.509-0.565-0.879-1.086-0.879c-0.077,0-0.156,0.008-0.232,0.025
		c-0.034,0.007-0.07,0.011-0.104,0.011c-0.107,0-0.209-0.033-0.296-0.097c-0.115-0.085-0.189-0.215-0.202-0.357
		c-0.122-1.316-1.253-2.346-2.574-2.346h-0.047c-0.954,0-1.835,0.555-2.244,1.415c-0.084,0.176-0.259,0.285-0.455,0.285
		l-0.081-0.001C14.747,2.713,14.01,3.45,14.01,4.357c0.013,0.827,0.643,1.535,1.467,1.649L21.853,6.008z"/>
	<path d="M8.777,10.5l-6.318,0c-0.02,0-0.041-0.001-0.061-0.004c-1.33-0.161-2.351-1.293-2.374-2.634
		c0-0.713,0.274-1.379,0.773-1.879c0.446-0.446,1.027-0.715,1.65-0.767C3.074,4.16,4.209,3.509,5.444,3.509h0.056
		c1.645,0,3.107,1.175,3.484,2.767c0.379,0.015,0.747,0.133,1.069,0.343c0.472,0.309,0.796,0.783,0.912,1.335
		c0.03,0.142,0.045,0.288,0.045,0.433c-0.012,1.167-0.969,2.115-2.132,2.115C8.877,10.502,8.809,10.501,8.777,10.5z M8.864,9.502
		c0.632,0,1.139-0.502,1.146-1.12c0-0.072-0.008-0.147-0.024-0.223c-0.061-0.291-0.232-0.541-0.48-0.703
		C9.324,7.337,9.114,7.274,8.899,7.274c-0.077,0-0.155,0.008-0.231,0.024C8.636,7.305,8.601,7.309,8.566,7.309
		c-0.106,0-0.211-0.035-0.297-0.098C8.154,7.127,8.081,6.997,8.068,6.855C7.947,5.539,6.82,4.509,5.503,4.509l-0.032,0
		c-0.978,0-1.859,0.555-2.269,1.415C3.12,6.097,2.945,6.209,2.756,6.209c-0.005,0-0.067-0.002-0.088-0.002
		c-0.439,0-0.852,0.172-1.163,0.483c-0.31,0.311-0.481,0.724-0.481,1.163C1.038,8.679,1.668,9.386,2.491,9.5L8.864,9.502z"/>
	<path d="M20.112,23.987c-0.71,0-1.372-0.387-1.727-0.998H11.6c-0.355,0.611-1.017,0.998-1.727,0.998S8.501,23.6,8.146,22.989H5.877
		c-0.276,0-0.5-0.224-0.5-0.5s0.224-0.5,0.5-0.5h0.325l0.513-3.082c0.568-3.42,3.496-5.904,6.963-5.908
		c2.972,0,5.648,1.765,6.818,4.496l0.325,0.758c1.079,0.058,1.902,0.402,2.448,1.025c0.594,0.677,0.816,1.634,0.658,2.842
		c-0.064,0.496-0.491,0.87-0.991,0.87h-1.097C21.483,23.601,20.822,23.987,20.112,23.987z M20.112,20.991
		c-0.55,0-0.998,0.448-0.998,0.998s0.448,0.998,0.998,0.998s0.998-0.448,0.998-0.998S20.662,20.991,20.112,20.991z M9.873,20.991
		c-0.55,0-0.998,0.448-0.998,0.998s0.448,0.998,0.998,0.998s0.998-0.448,0.998-0.998S10.423,20.991,9.873,20.991z M22.931,21.99
		c0.123-0.911-0.017-1.601-0.414-2.053c-0.403-0.46-1.086-0.693-2.03-0.693c-0.2,0-0.381-0.119-0.459-0.303l-0.451-1.052
		c-1.012-2.363-3.328-3.89-5.898-3.89c-2.976,0.003-5.489,2.136-5.977,5.072l-0.485,2.918h0.659c0-1.102,0.896-1.998,1.998-1.998
		s1.998,0.896,1.998,1.998h6.243c0-1.102,0.896-1.998,1.998-1.998s1.998,0.896,1.998,1.998c0,0,0,0.001,0,0.001H22.931z"/>
	<path d="M10.014,18.993c-0.155,0-0.299-0.07-0.395-0.193c-0.096-0.123-0.128-0.28-0.09-0.43c0.505-1.987,2.289-3.375,4.339-3.375
		c0.37,0,0.741,0.046,1.102,0.138c1.592,0.404,2.832,1.645,3.237,3.237c0.038,0.15,0.006,0.307-0.09,0.43
		c-0.096,0.123-0.24,0.193-0.395,0.193H10.014z M17.015,17.993c-0.439-0.937-1.273-1.632-2.291-1.891
		c-0.281-0.071-0.569-0.107-0.856-0.107c-1.357,0-2.581,0.79-3.148,1.998H17.015z"/>
	<path d="M1.749,22.989C0.785,22.989,0,22.204,0,21.24s0.785-1.749,1.749-1.749s1.749,0.785,1.749,1.749S2.713,22.989,1.749,22.989z
		 M1.749,20.491C1.336,20.491,1,20.827,1,21.24s0.336,0.749,0.749,0.749s0.749-0.336,0.749-0.749S2.162,20.491,1.749,20.491z"/>
</g>
</svg>
