<?xml version="1.0" encoding="utf-8"?>
<!-- Generator: Adobe Illustrator 22.1.0, SVG Export Plug-In . SVG Version: 6.00 Build 0)  -->
<svg version="1.1" id="Layer_1" xmlns="http://www.w3.org/2000/svg" xmlns:xlink="http://www.w3.org/1999/xlink" x="0px" y="0px"
	 viewBox="0 0 24 24" style="enable-background:new 0 0 24 24;" xml:space="preserve">
<g>
	<title>car-truck-woods</title>
	<path d="M3.5,11C3.225,11,3,10.776,3,10.5V9.986H1.019c-0.39,0-0.728-0.225-0.904-0.603c-0.19-0.408-0.137-0.909,0.133-1.253
		l0.585-0.901C0.658,7.1,0.517,6.914,0.436,6.697C0.289,6.302,0.359,5.871,0.625,5.544l0.87-1.321
		C1.301,4.077,1.151,3.858,1.077,3.607C0.958,3.2,1.06,2.779,1.349,2.477l1.755-2.282C3.198,0.073,3.346,0,3.5,0
		c0.155,0,0.303,0.074,0.397,0.196l1.738,2.277c0.289,0.3,0.392,0.719,0.276,1.126C5.84,3.85,5.691,4.069,5.499,4.218l0.899,1.338
		C6.65,5.86,6.724,6.288,6.582,6.683C6.501,6.908,6.357,7.1,6.177,7.231l0.575,0.898c0.274,0.349,0.326,0.839,0.133,1.254
		C6.709,9.761,6.372,9.986,5.982,9.986H4V10.5C4,10.776,3.776,11,3.5,11z M1.759,6.22c0.105,0,0.206,0.033,0.292,0.094
		C2.268,6.47,2.324,6.768,2.179,6.992L1.073,8.696C1.062,8.712,1.05,8.728,1.037,8.744C0.986,8.806,0.997,8.909,1.021,8.96
		c0.01,0.021,0.019,0.032,0.022,0.034l4.921-0.007C5.968,8.98,5.973,8.972,5.979,8.961c0.025-0.053,0.036-0.156-0.015-0.217
		C5.95,8.728,5.937,8.71,5.925,8.691L4.841,7C4.699,6.778,4.754,6.482,4.967,6.326C5.054,6.263,5.156,6.23,5.262,6.23
		c0.137,0,0.266,0.055,0.36,0.153c0.007-0.011,0.013-0.024,0.019-0.039C5.676,6.248,5.628,6.191,5.61,6.17
		C5.597,6.155,5.586,6.14,5.575,6.125L4.157,4.013C4.01,3.793,4.059,3.496,4.27,3.336c0.088-0.067,0.193-0.102,0.302-0.102
		c0.134,0,0.261,0.053,0.354,0.147C4.935,3.366,4.944,3.347,4.95,3.325c0.028-0.098-0.02-0.144-0.04-0.163
		C4.893,3.146,4.877,3.127,4.862,3.108L3.499,1.322L2.122,3.111c-0.014,0.018-0.03,0.036-0.047,0.053
		c-0.02,0.019-0.067,0.065-0.038,0.162c0.006,0.021,0.015,0.04,0.024,0.055c0.094-0.097,0.223-0.152,0.36-0.152
		c0.108,0,0.211,0.034,0.298,0.099c0.213,0.158,0.265,0.455,0.119,0.677l-1.4,2.122c-0.01,0.015-0.021,0.031-0.034,0.046
		C1.385,6.194,1.337,6.251,1.373,6.347C1.378,6.36,1.384,6.372,1.39,6.383C1.485,6.279,1.617,6.22,1.759,6.22z"/>
	<path d="M11.5,11c-0.276,0-0.5-0.224-0.5-0.5V9.982H9.016c-0.39,0-0.728-0.225-0.904-0.603C7.919,8.965,7.971,8.474,8.245,8.126
		l0.586-0.898C8.657,7.099,8.517,6.914,8.436,6.697C8.289,6.302,8.359,5.871,8.625,5.544l0.87-1.321
		C9.301,4.077,9.151,3.858,9.077,3.607C8.958,3.2,9.06,2.779,9.349,2.477l1.755-2.282C11.198,0.073,11.346,0,11.5,0
		c0.155,0,0.303,0.074,0.397,0.196l1.738,2.277c0.289,0.3,0.392,0.719,0.276,1.125c-0.073,0.255-0.22,0.473-0.412,0.62l0.898,1.337
		c0.252,0.304,0.326,0.732,0.184,1.127c-0.081,0.225-0.225,0.417-0.405,0.548l0.573,0.894c0.274,0.349,0.326,0.84,0.132,1.254
		c-0.176,0.377-0.513,0.603-0.903,0.603H12V10.5C12,10.776,11.776,11,11.5,11z M9.759,6.22c0.106,0,0.207,0.033,0.293,0.095
		c0.217,0.156,0.272,0.455,0.126,0.679l-1.109,1.7c-0.01,0.016-0.023,0.033-0.036,0.048c-0.051,0.061-0.04,0.162-0.015,0.214
		C9.028,8.977,9.037,8.987,9.04,8.99l4.921-0.007c0.004-0.005,0.009-0.014,0.015-0.025C14,8.904,14.012,8.801,13.96,8.74
		c-0.014-0.016-0.028-0.035-0.04-0.055L12.841,7c-0.142-0.222-0.087-0.518,0.126-0.673c0.085-0.063,0.188-0.096,0.295-0.096
		c0.137,0,0.267,0.055,0.361,0.153c0.007-0.011,0.013-0.024,0.019-0.039c0.034-0.096-0.014-0.152-0.032-0.174
		c-0.013-0.016-0.023-0.029-0.033-0.043l-1.419-2.114c-0.148-0.219-0.098-0.517,0.113-0.677c0.088-0.067,0.192-0.102,0.302-0.102
		c0.134,0,0.261,0.053,0.354,0.147c0.009-0.015,0.018-0.034,0.024-0.056c0.028-0.098-0.02-0.144-0.04-0.163
		c-0.018-0.017-0.034-0.036-0.049-0.055l-1.362-1.785l-1.376,1.789c-0.014,0.018-0.03,0.036-0.047,0.053
		c-0.02,0.019-0.067,0.065-0.038,0.162c0.006,0.021,0.015,0.04,0.024,0.055c0.094-0.097,0.223-0.152,0.36-0.152
		c0.108,0,0.211,0.034,0.298,0.099c0.213,0.158,0.265,0.455,0.119,0.677l-1.4,2.122c-0.01,0.015-0.021,0.031-0.034,0.046
		C9.385,6.194,9.337,6.251,9.373,6.347C9.378,6.36,9.384,6.372,9.39,6.383C9.485,6.279,9.617,6.22,9.759,6.22z"/>
	<path d="M20.5,11c-0.276,0-0.5-0.224-0.5-0.5V9.982h-1.984c-0.39,0-0.728-0.225-0.904-0.603c-0.193-0.414-0.141-0.905,0.134-1.253
		l0.585-0.898c-0.174-0.129-0.314-0.314-0.395-0.531c-0.147-0.395-0.077-0.826,0.189-1.152l0.87-1.321
		c-0.194-0.147-0.345-0.365-0.418-0.617c-0.119-0.407-0.017-0.828,0.271-1.13l1.755-2.282C20.198,0.073,20.346,0,20.5,0
		c0.155,0,0.304,0.074,0.397,0.197l1.738,2.277c0.289,0.3,0.392,0.719,0.276,1.125c-0.073,0.255-0.22,0.473-0.412,0.62l0.898,1.337
		c0.252,0.304,0.326,0.732,0.184,1.127c-0.081,0.225-0.225,0.417-0.405,0.548l0.573,0.894c0.274,0.349,0.326,0.84,0.132,1.254
		c-0.176,0.377-0.513,0.603-0.903,0.603H21V10.5C21,10.776,20.776,11,20.5,11z M18.759,6.22c0.105,0,0.207,0.033,0.292,0.094
		c0.217,0.156,0.272,0.454,0.126,0.678l-1.109,1.7c-0.013,0.019-0.024,0.034-0.036,0.048c-0.051,0.061-0.04,0.162-0.015,0.215
		c0.01,0.021,0.019,0.031,0.022,0.033l4.921-0.007c0.004-0.005,0.009-0.014,0.015-0.025C23,8.904,23.012,8.801,22.96,8.74
		c-0.014-0.016-0.028-0.035-0.04-0.055L21.841,7c-0.142-0.222-0.087-0.518,0.126-0.673c0.085-0.063,0.188-0.096,0.294-0.096
		c0.137,0,0.267,0.055,0.361,0.153c0.007-0.011,0.013-0.024,0.019-0.039c0.034-0.096-0.014-0.152-0.032-0.174
		c-0.013-0.016-0.023-0.029-0.033-0.043l-1.419-2.114c-0.148-0.219-0.098-0.517,0.113-0.677c0.088-0.067,0.193-0.102,0.302-0.102
		c0.134,0,0.261,0.053,0.354,0.147c0.009-0.015,0.018-0.034,0.024-0.056c0.028-0.098-0.02-0.144-0.04-0.163
		c-0.018-0.017-0.034-0.036-0.049-0.055l-1.362-1.785l-1.376,1.789c-0.016,0.02-0.031,0.036-0.046,0.052
		c-0.021,0.02-0.068,0.066-0.04,0.164c0.006,0.021,0.015,0.04,0.024,0.055c0.094-0.097,0.224-0.152,0.36-0.152
		c0.108,0,0.211,0.034,0.298,0.099c0.213,0.158,0.265,0.455,0.119,0.676l-1.4,2.122c-0.011,0.016-0.021,0.03-0.033,0.044
		c-0.02,0.024-0.068,0.081-0.032,0.177c0.005,0.014,0.011,0.026,0.017,0.036C18.484,6.279,18.617,6.22,18.759,6.22z"/>
	<path d="M16.5,24c-1.199,0-2.215-0.845-2.449-2H6.949C6.716,23.155,5.7,24,4.5,24s-2.215-0.845-2.449-2H1c-0.551,0-1-0.448-1-1v-3
		c0-1.103,0.897-2,2-2h3.691l1.724-3.448C7.586,12.211,7.929,12,8.309,12H13c0.552,0,1,0.448,1,1v3h8c0.552,0,1,0.448,1,1v4h0.5
		c0.276,0,0.5,0.224,0.5,0.5S23.776,22,23.5,22h-4.551C18.716,23.155,17.699,24,16.5,24z M16.5,20c-0.827,0-1.5,0.673-1.5,1.5
		s0.673,1.5,1.5,1.5s1.5-0.673,1.5-1.5S17.327,20,16.5,20z M4.5,20C3.673,20,3,20.673,3,21.5S3.673,23,4.5,23S6,22.327,6,21.5
		S5.327,20,4.5,20z M22,21v-4H2c-0.551,0-1,0.448-1,1v3h1.051c0.234-1.155,1.25-2,2.449-2s2.215,0.845,2.449,2h7.102
		c0.234-1.155,1.25-2,2.449-2s2.215,0.845,2.449,2H22z M13,16v-3H8.309l-1.499,3H13z"/>
</g>
</svg>
