<?xml version="1.0" encoding="utf-8"?>
<!-- Generator: Adobe Illustrator 22.1.0, SVG Export Plug-In . SVG Version: 6.00 Build 0)  -->
<svg version="1.1" id="Layer_1" xmlns="http://www.w3.org/2000/svg" xmlns:xlink="http://www.w3.org/1999/xlink" x="0px" y="0px"
	 viewBox="0 0 24 24" style="enable-background:new 0 0 24 24;" xml:space="preserve">
<g>
	<title>car-retro</title>
	<path d="M18,22c-0.552,0-1-0.448-1-1v-1H7v1c0,0.552-0.449,1-1,1H3c-0.551,0-1-0.448-1-1v-1.147
		c-0.769-0.276-1.364-0.917-1.575-1.711c-0.281-1.065-0.786-3.734,0.588-5.518C1.842,11.547,3.184,11,5,11
		c0.025,0,0.051,0.001,0.076,0.003l0.38-3.088C5.794,4.545,8.607,2,11.998,2c0.217,0,0.437,0.011,0.655,0.032
		c3.104,0.31,5.582,2.788,5.892,5.892l0.379,3.079C18.949,11.001,18.975,11,19,11c1.816,0,3.158,0.546,3.988,1.624
		c1.374,1.783,0.869,4.452,0.588,5.517c-0.211,0.796-0.806,1.437-1.575,1.712V21c0,0.552-0.448,1-1,1H18z M18,21h3v-1h-3V21z M3,21
		h3v-1H3V21z M21.158,19c0.68,0,1.277-0.459,1.451-1.115c0.243-0.921,0.69-3.219-0.413-4.651C21.565,12.416,20.49,12,19,12
		c-0.059,0-0.128,0.02-0.206,0.058c-0.001,0.001-0.003,0.002-0.004,0.003c-0.03,0.021-0.058,0.035-0.079,0.043
		C17.683,12.75,16.19,15.997,15.187,19H21.158z M14.137,19c0.212-0.64,0.741-2.183,1.405-3.7c0.729-1.667,1.397-2.822,2.033-3.511
		C15.794,11.033,13.92,10.65,12,10.65c-1.92,0-3.794,0.383-5.575,1.139c0.635,0.689,1.304,1.844,2.033,3.511
		c0.663,1.515,1.193,3.059,1.405,3.7H14.137z M5,12c-1.49,0-2.565,0.415-3.196,1.234c-1.103,1.431-0.656,3.73-0.413,4.652
		C1.566,18.542,2.162,19,2.841,19h5.972c-0.998-2.99-2.487-6.23-3.515-6.889c-0.031-0.014-0.061-0.031-0.088-0.05
		c-0.001-0.001-0.002-0.002-0.004-0.002C5.128,12.02,5.059,12,5,12z M11.996,2.999c-2.876,0-5.26,2.16-5.546,5.024l-0.346,2.809
		C7.989,10.043,9.97,9.644,12,9.644s4.011,0.4,5.895,1.188l-0.344-2.798c-0.264-2.641-2.365-4.745-4.998-5.007
		C12.368,3.009,12.181,2.999,11.996,2.999z"/>
	<path d="M20,17.784c-1.103,0-2-0.897-2-2s0.897-2,2-2s2,0.897,2,2S21.103,17.784,20,17.784z M20,14.784c-0.552,0-1,0.448-1,1
		s0.448,1,1,1s1-0.448,1-1S20.552,14.784,20,14.784z"/>
	<path d="M4,17.784c-1.103,0-2-0.897-2-2s0.897-2,2-2s2,0.897,2,2S5.103,17.784,4,17.784z M4,14.784c-0.551,0-1,0.448-1,1
		s0.449,1,1,1s1-0.448,1-1S4.551,14.784,4,14.784z"/>
</g>
</svg>
