<?xml version="1.0" encoding="utf-8"?>
<!-- Generator: Adobe Illustrator 22.1.0, SVG Export Plug-In . SVG Version: 6.00 Build 0)  -->
<svg version="1.1" id="Layer_1" xmlns="http://www.w3.org/2000/svg" xmlns:xlink="http://www.w3.org/1999/xlink" x="0px" y="0px"
	 viewBox="0 0 24 24" style="enable-background:new 0 0 24 24;" xml:space="preserve">
<g>
	<title>car-4</title>
	<path d="M19.5,21.5c-0.827,0-1.5-0.673-1.5-1.5v-0.5H6V20c0,0.827-0.673,1.5-1.5,1.5h-2C1.673,21.5,1,20.827,1,20v-0.586
		C0.41,19.205,0,18.64,0,18v-5c0-0.033,0.002-0.066,0.004-0.098l0.002-0.031c-0.007-0.06-0.004-0.117,0.009-0.173
		c0.018-0.27,0.061-0.539,0.126-0.799c0.001-0.011,0.007-0.045,0.022-0.085C0.414,10.9,0.95,10.09,1.678,9.5H1c-0.551,0-1-0.449-1-1
		v-1c0-0.551,0.449-1,1-1h1.5c0.157,0,0.306,0.075,0.4,0.2l0.799,1.065l0.529-3.176C4.43,3.379,5.467,2.5,6.694,2.5h10.612
		c1.227,0,2.264,0.878,2.466,2.089l0.529,3.176L21.1,6.7c0.094-0.125,0.243-0.2,0.4-0.2H23c0.552,0,1,0.449,1,1v1
		c0,0.551-0.448,1-1,1h-0.678c0.728,0.59,1.264,1.4,1.514,2.314c0.016,0.042,0.022,0.08,0.027,0.107
		c0.062,0.239,0.104,0.507,0.122,0.777c0.013,0.055,0.016,0.113,0.009,0.173l0.002,0.031C23.998,12.935,24,12.967,24,13v5
		c0,0.64-0.41,1.205-1,1.414V20c0,0.827-0.673,1.5-1.5,1.5H19.5z M19,20c0,0.276,0.224,0.5,0.5,0.5h2c0.276,0,0.5-0.224,0.5-0.5
		v-0.5h-3V20z M2,20c0,0.276,0.224,0.5,0.5,0.5h2C4.776,20.5,5,20.276,5,20v-0.5H2V20z M22.5,18.5c0.276,0,0.5-0.224,0.5-0.5v-3.938
		c-0.442,0.285-0.955,0.438-1.487,0.438h-2.917l-1.953,0.779c-0.372,0.135-0.752,0.208-1.135,0.22L8,15.5
		c-0.41-0.015-0.796-0.106-1.155-0.269L5.382,14.5H2.5c-0.545,0-1.06-0.152-1.5-0.436V18c0,0.276,0.224,0.5,0.5,0.5h3.191l0.5-1H2.5
		C2.224,17.5,2,17.276,2,17s0.224-0.5,0.5-0.5h19c0.276,0,0.5,0.224,0.5,0.5s-0.224,0.5-0.5,0.5h-2.691l0.5,1H22.5z M18.191,18.5
		l-0.5-1H6.309l-0.5,1H18.191z M7.276,14.329c0.227,0.103,0.48,0.162,0.743,0.172l7.474,0c0.264-0.008,0.534-0.061,0.795-0.155
		l1.79-0.714l0.282-1.13H5.64l0.289,1.156L7.276,14.329z M21.5,13.5c0.611,0,1.156-0.297,1.483-0.8
		c-0.006-0.072-0.012-0.138-0.021-0.2h-3.572l-0.25,1H21.5z M1.017,12.701C1.341,13.203,1.884,13.5,2.482,13.5H4.86l-0.25-1H1.037
		C1.029,12.563,1.023,12.63,1.017,12.701z M22.657,11.5c-0.576-1.209-1.803-2-3.157-2h-15c-1.354,0-2.582,0.79-3.157,2H22.657z
		 M23,8.5v-1h-1.25L21,8.5H23z M19.41,8.5l-0.624-3.747C18.665,4.027,18.042,3.5,17.306,3.5H6.694c-0.736,0-1.359,0.527-1.48,1.253
		L4.59,8.5H19.41z M1,8.5h2l-0.75-1H1L1,8.5z"/>
</g>
</svg>
