<?xml version="1.0" encoding="utf-8"?>
<!-- Generator: Adobe Illustrator 22.1.0, SVG Export Plug-In . SVG Version: 6.00 Build 0)  -->
<svg version="1.1" id="Layer_1" xmlns="http://www.w3.org/2000/svg" xmlns:xlink="http://www.w3.org/1999/xlink" x="0px" y="0px"
	 viewBox="0 0 24 24" style="enable-background:new 0 0 24 24;" xml:space="preserve">
<g>
	<title>office-lamp</title>
	<path d="M11.159,24c-0.157,0-0.312-0.024-0.462-0.073c-0.787-0.256-1.22-1.104-0.964-1.891c0.998-2.463,3.337-4.044,5.964-4.044
		c0.105,0,0.21,0.003,0.316,0.008c0.077-0.005,0.178-0.007,0.279-0.007c0.366,0,0.737,0.032,1.105,0.097l3.292-6.584
		c-0.434-0.378-0.688-0.927-0.688-1.507c0-0.147,0.017-0.293,0.05-0.437L11.3,5.08c-0.013,0.014-0.922,0.923-0.922,0.923
		l0.578,4.042c0.082,0.568-0.112,1.15-0.519,1.556c-0.346,0.345-0.805,0.535-1.295,0.535s-0.949-0.19-1.295-0.534L0.538,4.294
		C0.132,3.888-0.061,3.307,0.02,2.739c0.128-0.897,0.908-1.574,1.814-1.574c0.086,0,0.174,0.006,0.26,0.019L6.136,1.76l0.883-0.883
		C7.596,0.305,8.344-0.01,9.127-0.01l0.036,0c0.799,0.003,1.552,0.319,2.116,0.888c0.564,0.569,0.873,1.324,0.87,2.125
		c-0.002,0.43-0.097,0.856-0.278,1.245l8.637,4.423c0.378-0.425,0.922-0.673,1.493-0.673c1.103,0,2,0.897,2,2s-0.897,2-2,2
		c-0.14,0-0.281-0.015-0.418-0.045l-3.195,6.391c1.765,0.605,3.165,1.924,3.869,3.658c0.059,0.178,0.085,0.336,0.085,0.497
		c0,0.827-0.673,1.5-1.5,1.5H11.159z M15.7,18.992c-2.22,0-4.193,1.329-5.028,3.386c-0.074,0.232,0.075,0.513,0.333,0.597
		C11.055,22.991,11.107,23,11.159,23h9.682c0.276,0,0.5-0.224,0.5-0.5c0-0.053-0.008-0.105-0.024-0.154
		c-0.624-1.534-1.965-2.718-3.591-3.161c-0.024,0.004-0.048,0.006-0.072,0.006c-0.077,0-0.154-0.018-0.223-0.052
		c-0.021-0.01-0.04-0.022-0.056-0.034c-0.364-0.074-0.73-0.111-1.09-0.111c-0.086,0-0.173,0.002-0.26,0.007
		c-0.004,0-0.021,0.001-0.025,0.001l-0.027-0.001C15.883,18.994,15.791,18.992,15.7,18.992z M1.834,2.165
		c-0.411,0-0.766,0.307-0.824,0.715C0.973,3.138,1.061,3.403,1.245,3.587l7.309,7.307c0.157,0.156,0.365,0.242,0.588,0.242
		s0.432-0.086,0.588-0.243c0.184-0.184,0.272-0.448,0.235-0.706l-0.613-4.29C9.33,5.743,9.383,5.584,9.494,5.473l1.061-1.061
		c0.38-0.377,0.591-0.879,0.593-1.413c0.002-0.534-0.204-1.037-0.58-1.417C10.192,1.203,9.691,0.993,9.157,0.99
		c-0.54,0-1.04,0.206-1.417,0.58L6.666,2.644C6.573,2.737,6.444,2.791,6.313,2.791c-0.024,0-0.048-0.002-0.072-0.005L1.952,2.174
		C1.912,2.168,1.873,2.165,1.834,2.165z M22.001,8.999c-0.552,0-1,0.449-1,1s0.448,1,1,1s1-0.449,1-1S22.552,8.999,22.001,8.999z"/>
</g>
</svg>
