<?xml version="1.0" encoding="utf-8"?>
<!-- Generator: Adobe Illustrator 22.1.0, SVG Export Plug-In . SVG Version: 6.00 Build 0)  -->
<svg version="1.1" id="Layer_1" xmlns="http://www.w3.org/2000/svg" xmlns:xlink="http://www.w3.org/1999/xlink" x="0px" y="0px"
	 viewBox="0 0 24 24" style="enable-background:new 0 0 24 24;" xml:space="preserve">
<g>
	<title>office-tape</title>
	<path d="M16.999,11.811c-1,0-1.813-0.813-1.813-1.813c0-1,0.813-1.813,1.813-1.813s1.813,0.813,1.813,1.812
		C18.812,10.998,17.999,11.811,16.999,11.811z M17,9.185c-0.449,0-0.814,0.365-0.814,0.813c0,0.448,0.365,0.813,0.813,0.813
		s0.813-0.365,0.813-0.813C17.812,9.549,17.448,9.185,17,9.185z"/>
	<path d="M4.5,20.998c-2.481,0-4.5-2.019-4.5-4.5v-3c0-0.827,0.673-1.5,1.5-1.5h0.932l12.649-5.521
		c0.012-0.005,0.033-0.011,0.052-0.016C15.706,6.157,16.35,5.997,17,5.997c2.206,0,4,1.794,4,4s-1.794,4-4,4s-4-1.794-4-4
		c0-0.588,0.128-1.159,0.375-1.684L3.057,12.816c0.176,2.09,2.092,3.182,3.943,3.182c2.206,0,4-1.794,4-4
		c0-0.196-0.015-0.393-0.045-0.588c-0.02-0.132,0.012-0.264,0.091-0.372c0.079-0.108,0.195-0.178,0.327-0.198
		c0.025-0.004,0.05-0.006,0.075-0.006c0.245,0,0.458,0.182,0.495,0.424C11.981,11.502,12,11.751,12,11.998c0,2.757-2.243,5-5,5
		c-2.285,0-4.668-1.373-4.937-4H1.5c-0.276,0-0.5,0.224-0.5,0.5v3c0,1.93,1.57,3.5,3.5,3.5H21c0.873,0,2-0.727,2-1.5v-8
		c0-4.846-3.595-6.065-4.697-6.324c-0.507-0.119-1.026-0.179-1.542-0.179c-2.228,0-4.228,1.131-5.096,2.881
		c-0.085,0.172-0.257,0.278-0.448,0.278c-0.077,0-0.153-0.018-0.222-0.052c-0.247-0.123-0.348-0.423-0.226-0.67
		c1.036-2.088,3.39-3.436,5.997-3.436c0.591,0,1.185,0.069,1.766,0.205C21.175,3.82,24,6.063,24,10.498v8c0,1.408-1.613,2.5-3,2.5
		H4.5z M17,6.997c-1.654,0-3,1.346-3,3s1.346,3,3,3s3-1.346,3-3S18.654,6.997,17,6.997z"/>
</g>
</svg>
