<?xml version="1.0" encoding="utf-8"?>
<!-- Generator: Adobe Illustrator 22.1.0, SVG Export Plug-In . SVG Version: 6.00 Build 0)  -->
<svg version="1.1" id="Layer_1" xmlns="http://www.w3.org/2000/svg" xmlns:xlink="http://www.w3.org/1999/xlink" x="0px" y="0px"
	 viewBox="0 0 24 24" style="enable-background:new 0 0 24 24;" xml:space="preserve">
<g>
	<title>office-shelf-1</title>
	<path d="M20.074,23.755c-0.276,0-0.5-0.224-0.5-0.5v-1.457H3.936v1.457c0,0.276-0.224,0.5-0.5,0.5s-0.5-0.224-0.5-0.5v-1.457H1.479
		C0.663,21.798,0,21.134,0,20.319s0.663-1.479,1.479-1.479h1.457v-7.808H1.479C0.663,11.032,0,10.368,0,9.553
		s0.663-1.479,1.479-1.479h1.457V0.745c0-0.276,0.224-0.5,0.5-0.5s0.5,0.224,0.5,0.5v7.329h0.957v-5.85c0-0.551,0.449-1,1-1h1.936
		c0.544,0,0.989,0.437,1,0.979c0,0,1.937,0,1.937,0c0.551,0,1,0.449,1,1v4.871h2.764l-0.692-0.482
		c-0.219-0.152-0.366-0.381-0.413-0.644C13.378,6.685,13.436,6.42,13.588,6.2l3.344-4.802c0.152-0.219,0.381-0.366,0.644-0.413
		c0.06-0.01,0.119-0.016,0.177-0.016c0.205,0,0.402,0.062,0.57,0.18l1.25,0.87V0.745c0-0.276,0.224-0.5,0.5-0.5s0.5,0.224,0.5,0.5
		v7.329h1.947C23.336,8.074,24,8.737,24,9.553s-0.664,1.479-1.479,1.479h-1.947v7.808h1.947c0.815,0,1.479,0.664,1.479,1.479
		s-0.664,1.479-1.479,1.479h-1.947v1.457C20.574,23.53,20.35,23.755,20.074,23.755z M22.521,20.798c0.264,0,0.479-0.215,0.479-0.479
		s-0.215-0.479-0.479-0.479h-1.947v0.958H22.521z M19.574,20.798V19.84H3.936v0.958H19.574z M1.479,19.84
		C1.215,19.84,1,20.055,1,20.319s0.215,0.479,0.479,0.479h1.457V19.84H1.479z M19.574,18.84v-7.808H3.936v7.808h1.936v-5.851
		c0-0.552,0.449-1,1-1h1.937c0.544,0,0.989,0.437,1,0.979c0,0,1.936,0,1.936,0c0.544,0,0.988,0.437,1,0.979c0,0,1.937,0,1.937,0
		c0.011-0.542,0.455-0.979,1-0.979h1.936c0.552,0,1,0.448,1,1v4.872H19.574z M17.617,18.84v-4.872h-1.936l0,4.872H17.617z
		 M14.681,18.84v-3.893h-1.936l0,3.893H14.681z M11.745,18.84v-4.872H9.809l0,4.872H11.745z M8.809,18.84v-5.851H6.872l0,5.851
		H8.809z M22.521,10.032c0.264,0,0.479-0.215,0.479-0.479s-0.215-0.479-0.479-0.479h-1.947v0.958H22.521z M19.574,10.032V9.074
		h-8.27c-0.013,0.002-0.026,0.003-0.038,0.003H8.33c-0.01,0-0.021-0.001-0.032-0.002l-2.905,0c-0.007,0-0.014,0-0.021-0.001H3.936
		v0.958H19.574z M1.479,9.074C1.215,9.074,1,9.289,1,9.553s0.215,0.479,0.479,0.479h1.457V9.074H1.479z M19.574,8.074V4.492
		L17.08,8.074H19.574z M10.766,8.074V3.203H8.83l0,4.871H10.766z M7.829,8.074v-5.85H5.893l0,5.85H7.829z M14.409,6.771l1.589,1.106
		l3.344-4.802L17.753,1.97L14.409,6.771z"/>
</g>
</svg>
