<?xml version="1.0" encoding="utf-8"?>
<!-- Generator: Adobe Illustrator 22.1.0, SVG Export Plug-In . SVG Version: 6.00 Build 0)  -->
<svg version="1.1" id="Layer_1" xmlns="http://www.w3.org/2000/svg" xmlns:xlink="http://www.w3.org/1999/xlink" x="0px" y="0px"
	 viewBox="0 0 24 24" style="enable-background:new 0 0 24 24;" xml:space="preserve">
<g>
	<title>office-shredder-1</title>
	<path d="M19.5,16c-0.276,0-0.5-0.224-0.5-0.5s0.224-0.5,0.5-0.5h3c0.276,0,0.5-0.224,0.5-0.5v-4c0-0.276-0.224-0.5-0.5-0.5h-21
		C1.224,10,1,10.224,1,10.5v4C1,14.776,1.224,15,1.5,15h2C3.776,15,4,15.224,4,15.5S3.776,16,3.5,16h-2C0.673,16,0,15.327,0,14.5v-4
		C0,9.673,0.673,9,1.5,9h21c0.827,0,1.5,0.673,1.5,1.5v4c0,0.827-0.673,1.5-1.5,1.5H19.5z"/>
	<path d="M21.25,13.249c-0.414,0-0.75-0.336-0.75-0.75c0-0.413,0.336-0.75,0.75-0.75S22,12.085,22,12.499
		C22,12.912,21.664,13.249,21.25,13.249z"/>
	<path d="M14.5,23.999c-0.276,0-0.5-0.224-0.5-0.5v-10.5h-2v10.5c0,0.276-0.224,0.5-0.5,0.5s-0.5-0.224-0.5-0.5v-10.5H9v10.5
		c0,0.276-0.224,0.5-0.5,0.5S8,23.774,8,23.499v-10.5H6V20c0,1.103-0.897,2-2,2c-0.276,0-0.5-0.224-0.5-0.5S3.724,21,4,21
		c0.551,0,1-0.448,1-1v-7.001H4.5c-0.276,0-0.5-0.224-0.5-0.5c0-0.276,0.224-0.5,0.5-0.5h14c0.276,0,0.5,0.224,0.5,0.5
		c0,0.276-0.224,0.5-0.5,0.5H18V20c0,0.552,0.448,1,1,1c0.276,0,0.5,0.224,0.5,0.5S19.276,22,19,22c-1.103,0-2-0.897-2-2v-7.001h-2
		v10.5C15,23.774,14.776,23.999,14.5,23.999z"/>
	<path d="M18.499,8c-0.276,0-0.5-0.224-0.5-0.5V3.67c0-0.115-0.045-0.223-0.126-0.304l-2.242-2.241C15.552,1.045,15.442,1,15.331,1
		H6.429C6.193,1,6,1.192,6,1.427V7.5C6,7.776,5.776,8,5.5,8S5,7.776,5,7.5V1.427C5.001,0.64,5.641,0,6.428,0h8.901
		c0.377,0,0.745,0.153,1.01,0.419l2.241,2.24c0.27,0.27,0.418,0.629,0.418,1.01V7.5C18.999,7.776,18.775,8,18.499,8z"/>
</g>
</svg>
