<?xml version="1.0" encoding="utf-8"?>
<!-- Generator: Adobe Illustrator 22.1.0, SVG Export Plug-In . SVG Version: 6.00 Build 0)  -->
<svg version="1.1" id="Layer_1" xmlns="http://www.w3.org/2000/svg" xmlns:xlink="http://www.w3.org/1999/xlink" x="0px" y="0px"
	 viewBox="0 0 24 24" style="enable-background:new 0 0 24 24;" xml:space="preserve">
<g>
	<title>office-shelf-corner</title>
	<path d="M15.156,23.967c-0.276,0-0.5-0.224-0.5-0.5v-0.5h-12v0.5c0,0.276-0.224,0.5-0.5,0.5s-0.5-0.224-0.5-0.5v-0.586
		c-0.59-0.209-1-0.774-1-1.414v-16c0-0.023,0.007-0.064,0.013-0.087C0.668,5.377,0.673,5.34,0.688,5.299
		c0.01-0.03,0.024-0.056,0.04-0.082C0.746,5.186,0.763,5.16,0.785,5.136c0.027-0.031,0.055-0.051,0.073-0.065
		c-0.001,0,0.022-0.023,0.058-0.043l9-4.937c0.073-0.04,0.156-0.062,0.24-0.062c0.183,0,0.351,0.099,0.439,0.26
		c0.064,0.117,0.079,0.252,0.042,0.381c-0.037,0.128-0.123,0.234-0.24,0.298L3.107,4.967h12.049c0.827,0,1.5,0.673,1.5,1.5v6.002
		l5.889-4.402c0.087-0.065,0.191-0.1,0.299-0.1c0.157,0,0.307,0.075,0.4,0.201c0.08,0.107,0.114,0.239,0.094,0.371
		s-0.089,0.249-0.196,0.329l-6.487,4.85v5.814l5.889-4.402c0.087-0.065,0.19-0.1,0.299-0.1c0.157,0,0.307,0.075,0.401,0.201
		c0.08,0.107,0.113,0.238,0.094,0.371s-0.089,0.249-0.196,0.329l-6.487,4.85v0.687c0,0.64-0.41,1.205-1,1.414v0.586
		C15.656,23.742,15.432,23.967,15.156,23.967z M1.656,21.467c0,0.276,0.224,0.5,0.5,0.5h13c0.276,0,0.5-0.224,0.5-0.5v-11.5h-14
		V21.467z M15.656,8.967v-2.5c0-0.276-0.224-0.5-0.5-0.5h-13.5v3H15.656z"/>
	<path d="M3.156,14.967c-0.276,0-0.5-0.224-0.5-0.5v-3c0-0.276,0.224-0.5,0.5-0.5h11c0.276,0,0.5,0.224,0.5,0.5v3
		c0,0.276-0.224,0.5-0.5,0.5H3.156z M13.656,13.967v-2h-10v2H13.656z"/>
	<path d="M3.156,20.967c-0.276,0-0.5-0.224-0.5-0.5v-3c0-0.276,0.224-0.5,0.5-0.5h11c0.276,0,0.5,0.224,0.5,0.5v3
		c0,0.276-0.224,0.5-0.5,0.5H3.156z M13.656,19.967v-2h-10v2H13.656z"/>
	<circle cx="3.156" cy="7.467" r="0.75"/>
</g>
</svg>
