<?xml version="1.0" encoding="utf-8"?>
<!-- Generator: Adobe Illustrator 22.1.0, SVG Export Plug-In . SVG Version: 6.00 Build 0)  -->
<svg version="1.1" id="Layer_1" xmlns="http://www.w3.org/2000/svg" xmlns:xlink="http://www.w3.org/1999/xlink" x="0px" y="0px"
	 viewBox="0 0 24 24" style="enable-background:new 0 0 24 24;" xml:space="preserve">
<g>
	<title>office-tape-2</title>
	<path d="M15,18.499c-2.206,0-4-1.794-4-4c0-1.879,1.285-3.454,3.044-3.881L0.269,3.442C0.15,3.381,0.063,3.277,0.023,3.149
		s-0.028-0.263,0.034-0.381C0.143,2.602,0.313,2.499,0.5,2.499c0.08,0,0.16,0.02,0.231,0.057l16.172,8.424
		c0.01,0.005,0.022,0.013,0.033,0.021C18.206,11.702,19,13.043,19,14.499C19,16.704,17.205,18.499,15,18.499z M15,11.499
		c-1.654,0-3,1.346-3,3c0,1.654,1.346,3,3,3s3-1.346,3-3C18,12.845,16.654,11.499,15,11.499z"/>
	<path d="M15,16.499c-1.103,0-2-0.897-2-2s0.897-2,2-2s2,0.897,2,2S16.102,16.499,15,16.499z M15,13.499c-0.552,0-1,0.448-1,1
		s0.448,1,1,1s1-0.448,1-1S15.551,13.499,15,13.499z"/>
	<path d="M4.5,21.5C2.018,21.5,0,19.481,0,17V6c0-0.62,0.319-0.884,0.509-0.985C0.597,4.967,0.743,4.91,0.933,4.91
		c0.222,0,0.449,0.076,0.676,0.227l0.92,0.615C3.451,6.365,4.001,7.393,4,8.5v6c0,0.348,0.176,0.666,0.472,0.849
		C4.63,15.448,4.812,15.5,4.998,15.5c0.349,0,0.668-0.177,0.852-0.472L7.7,12.055c0.488-0.783,1.095-1.478,1.806-2.065
		c0.089-0.074,0.203-0.115,0.318-0.115c0.15,0,0.29,0.066,0.385,0.182c0.085,0.103,0.125,0.233,0.112,0.366
		c-0.013,0.133-0.076,0.253-0.179,0.338c-0.627,0.519-1.164,1.133-1.594,1.823l-1.851,2.973C6.331,16.147,5.695,16.5,4.996,16.5
		c-0.372,0-0.736-0.104-1.052-0.301C3.352,15.831,2.999,15.196,3,14.5v-6C3,7.728,2.617,7.011,1.974,6.583l-0.92-0.615
		C1.035,5.956,1.018,5.946,1.003,5.938C1.001,5.956,1,5.976,1,6v11c0,1.93,1.57,3.5,3.5,3.5h15c1.93,0,3.5-1.57,3.5-3.5
		c0-4.411-3.589-8-8-8c-0.276,0-0.5-0.224-0.5-0.5S14.724,8,15,8c4.963,0,9,4.037,9,9c0,2.481-2.019,4.5-4.5,4.5H4.5z"/>
</g>
</svg>
