<?xml version="1.0" encoding="utf-8"?>
<!-- Generator: Adobe Illustrator 22.1.0, SVG Export Plug-In . SVG Version: 6.00 Build 0)  -->
<svg version="1.1" id="Layer_1" xmlns="http://www.w3.org/2000/svg" xmlns:xlink="http://www.w3.org/1999/xlink" x="0px" y="0px"
	 viewBox="0 0 24 24" style="enable-background:new 0 0 24 24;" xml:space="preserve">
<g>
	<title>office-glue</title>
	<path d="M8,23.846c-1.379,0-2.5-1.122-2.5-2.5v-8c0-1.199,0.845-2.215,2-2.449V9.346c0-0.827,0.673-1.5,1.5-1.5h0.61l1.783-7.116
		C11.524,0.208,11.861,0.152,12,0.152c0.139,0,0.476,0.056,0.607,0.578l1.783,7.116H15c0.827,0,1.5,0.673,1.5,1.5v1.551
		c1.155,0.234,2,1.25,2,2.449v8c0,1.378-1.122,2.5-2.5,2.5H8z M8,11.846c-0.827,0-1.5,0.673-1.5,1.5v8c0,0.827,0.673,1.5,1.5,1.5h8
		c0.827,0,1.5-0.673,1.5-1.5v-8c0-0.827-0.673-1.5-1.5-1.5H8z M15.5,10.846v-1.5c0-0.276-0.224-0.5-0.5-0.5h-0.5v2H15.5z
		 M13.5,10.846v-2h-1v2H13.5z M11.5,10.846v-2h-1v2H11.5z M9.5,10.846v-2H9c-0.276,0-0.5,0.224-0.5,0.5v1.5H9.5z M13.359,7.846
		L12,2.422l-1.359,5.424H13.359z"/>
	<path d="M8.5,20.846c-0.551,0-1-0.448-1-1v-5c0-0.552,0.449-1,1-1h7c0.552,0,1,0.448,1,1v5c0,0.552-0.448,1-1,1H8.5z M8.5,19.846h7
		v-5h-7L8.5,19.846z"/>
</g>
</svg>
