<?xml version="1.0" encoding="utf-8"?>
<!-- Generator: Adobe Illustrator 22.1.0, SVG Export Plug-In . SVG Version: 6.00 Build 0)  -->
<svg version="1.1" id="Layer_1" xmlns="http://www.w3.org/2000/svg" xmlns:xlink="http://www.w3.org/1999/xlink" x="0px" y="0px"
	 viewBox="0 0 24 24" style="enable-background:new 0 0 24 24;" xml:space="preserve">
<g>
	<title>office-hole-puncher</title>
	<path d="M1.5,22.5C0.673,22.5,0,21.827,0,21v-0.5c0.015-0.705,0.1-1.404,0.255-2.083l1.109-4.441C1.129,13.704,1,13.362,1,13v-2
		c0.024-0.731,0.17-1.435,0.435-2.103l2.321-5.298C4.312,2.325,5.571,1.501,6.962,1.5h10.076c1.391,0.001,2.65,0.825,3.206,2.1
		l2.314,5.283c0.27,0.68,0.417,1.384,0.441,2.101L23,13c0,0.362-0.129,0.704-0.365,0.976l1.107,4.432
		c0.157,0.686,0.243,1.384,0.258,2.082V21c0,0.827-0.673,1.5-1.5,1.5H1.5z M1.079,19.499C1.033,19.844,1.007,20.184,1,20.51V21
		c0,0.276,0.224,0.5,0.5,0.5h21c0.276,0,0.5-0.224,0.5-0.5v-0.5c-0.007-0.32-0.033-0.657-0.079-1.001H1.079z M22.734,18.499
		L21.73,14.48c-0.077,0.013-0.154,0.02-0.23,0.02H21V16c0,0.827-0.673,1.5-1.5,1.5S18,16.827,18,16v-1.5h-0.5
		c-0.827,0-1.5-0.673-1.5-1.5v-0.501H8V13c0,0.827-0.673,1.5-1.5,1.5H6V16c0,0.827-0.673,1.5-1.5,1.5S3,16.827,3,16v-1.5H2.5
		c-0.077,0-0.153-0.007-0.23-0.02l-1.004,4.019H22.734z M19,16c0,0.276,0.224,0.5,0.5,0.5S20,16.276,20,16v-1.5h-1V16z M4,16
		c0,0.276,0.224,0.5,0.5,0.5S5,16.276,5,16v-1.5H4V16z M14.013,6.5c0.785,0.042,1.483,0.47,1.868,1.146L16.5,8.875
		c0.307,0.676,0.473,1.382,0.5,2.106L17,13c0,0.276,0.224,0.5,0.5,0.5h4c0.276,0,0.5-0.224,0.5-0.5v-2
		c-0.02-0.588-0.143-1.173-0.365-1.732l-2.307-5.267c-0.397-0.911-1.296-1.5-2.29-1.501H6.962C5.969,2.501,5.07,3.089,4.672,4
		L2.358,9.283C2.141,9.829,2.02,10.415,2,11.017L2,13c0,0.161,0.08,0.314,0.214,0.408c0.003,0.002,0.007,0.005,0.011,0.008
		C2.307,13.471,2.402,13.5,2.5,13.5h4C6.776,13.5,7,13.276,7,13v-2c0.027-0.74,0.192-1.446,0.492-2.107l0.614-1.228
		c0.397-0.693,1.093-1.124,1.868-1.165L14,6.5C14.004,6.5,14.009,6.5,14.013,6.5z M16,11.499V11
		c-0.021-0.579-0.157-1.152-0.402-1.693L15,8.119C14.795,7.76,14.412,7.525,13.979,7.5L10,7.5C9.587,7.522,9.203,7.761,8.987,8.138
		L8.394,9.324C8.155,9.851,8.021,10.424,8,11.018l0,0.481H16z"/>
</g>
</svg>
