<?xml version="1.0" encoding="utf-8"?>
<!-- Generator: Adobe Illustrator 22.1.0, SVG Export Plug-In . SVG Version: 6.00 Build 0)  -->
<svg version="1.1" id="Layer_1" xmlns="http://www.w3.org/2000/svg" xmlns:xlink="http://www.w3.org/1999/xlink" x="0px" y="0px"
	 viewBox="0 0 24 24" style="enable-background:new 0 0 24 24;" xml:space="preserve">
<g>
	<title>office-shelf</title>
	<path d="M22.016,24c-0.803-0.037-1.501-0.532-1.79-1.262l-0.39-1.13c-0.138-0.347-0.484-0.591-0.875-0.608L5,21
		c-0.371,0.018-0.709,0.264-0.849,0.628l-0.36,1.079C3.503,23.458,2.811,23.962,2.024,24L1.5,24C0.673,24,0,23.327,0,22.5v-20
		C0,1.121,1.121,0,2.5,0h19C22.878,0,24,1.121,24,2.5v20c0,0.827-0.673,1.5-1.5,1.5H22.016z M18.995,20
		c0.791,0.036,1.489,0.531,1.779,1.26l0.39,1.131c0.138,0.348,0.484,0.591,0.875,0.609l0.461,0c0.276,0,0.5-0.224,0.5-0.5v-20
		C23,1.673,22.327,1,21.5,1h-19C1.673,1,1,1.673,1,2.5v20C1,22.776,1.224,23,1.5,23H2c0.371-0.018,0.709-0.266,0.849-0.631
		l0.361-1.08C3.499,20.539,4.191,20.037,4.977,20l14.007,0C18.988,20,18.991,20,18.995,20z"/>
	<path d="M4.5,10c-0.007,0-0.014,0-0.021-0.001H3c-0.551,0-1-0.449-1-1v-6c0-0.551,0.449-1,1-1h18c0.552,0,1,0.449,1,1v6
		c0,0.551-0.448,1-1,1h-7.479C13.514,10,13.507,10,13.5,10H4.5z M21,8.999v-6H3v6h1V5c0-0.551,0.449-1,1-1h2
		c0.176,0,0.348,0.048,0.5,0.137C7.652,4.048,7.824,4,8,4h2c0.176,0,0.348,0.048,0.5,0.137C10.652,4.048,10.824,4,11,4h2
		c0.391,0,0.73,0.226,0.895,0.554c0.076-0.058,0.163-0.107,0.257-0.142l1.745-0.65c0.112-0.042,0.229-0.063,0.348-0.063
		c0.416,0,0.793,0.261,0.938,0.651l1.3,3.49c0.093,0.25,0.083,0.522-0.028,0.765c-0.073,0.16-0.184,0.295-0.323,0.395H21z
		 M14.793,8.999L14,6.87v2.13H14.793z M13,8.999V5h-2l0,3.999H13z M10,8.999V5H8l0,3.999H10z M7,8.999V5H5l0,3.999H7z M16.245,4.699
		l-1.744,0.65l1.3,3.489l1.745-0.65L16.245,4.699l0-0.25L16.245,4.699z"/>
	<path d="M10.5,19c-0.007,0-0.014,0-0.021-0.001H3c-0.551,0-1-0.448-1-1v-6c0-0.551,0.449-1,1-1h18c0.552,0,1,0.449,1,1v6
		c0,0.552-0.448,1-1,1h-1.479C19.514,19,19.507,19,19.5,19H10.5z M21,17.999v-6H3v6h7V14c0-0.552,0.449-1,1-1h2
		c0.176,0,0.348,0.048,0.5,0.137C13.652,13.048,13.824,13,14,13h2c0.176,0,0.348,0.048,0.5,0.137C16.652,13.048,16.824,13,17,13h2
		c0.552,0,1,0.448,1,1v3.999H21z M19,17.999V14h-2l0,3.999H19z M16,17.999V14h-2l0,3.999H16z M13,17.999V14h-2l0,3.999H13z"/>
</g>
</svg>
