<?xml version="1.0" encoding="utf-8"?>
<!-- Generator: Adobe Illustrator 22.1.0, SVG Export Plug-In . SVG Version: 6.00 Build 0)  -->
<svg version="1.1" id="Layer_1" xmlns="http://www.w3.org/2000/svg" xmlns:xlink="http://www.w3.org/1999/xlink" x="0px" y="0px"
	 viewBox="0 0 24 24" style="enable-background:new 0 0 24 24;" xml:space="preserve">
<g>
	<title>office-tape-1</title>
	<path d="M4.062,18.75c-1.15,0-2.147-0.779-2.426-1.894l-1.5-6C0.046,10.495,0,10.123,0,9.75c0-0.552,0.449-1,1-1h0.757
		c0.936,0,1.815,0.364,2.475,1.025l1.494,1.495c0.472,0.472,1.099,0.733,1.766,0.732c0.16,0,0.32-0.015,0.477-0.046l0.644-0.125
		c-0.21-1.053-0.105-2.149,0.299-3.144l-8.468-0.94C0.312,7.732,0.193,7.667,0.11,7.562s-0.121-0.235-0.106-0.368
		C0.031,6.941,0.244,6.75,0.499,6.75c0.019,0,0.037,0.001,0.056,0.003l8.857,0.983c0.704-1.072,1.754-1.864,2.974-2.239
		c0.525-0.161,1.068-0.243,1.612-0.243c2.395,0,4.557,1.598,5.26,3.887c0.06,0.196,0.11,0.397,0.148,0.601l0.722-0.14
		c0.16-0.031,0.323-0.047,0.485-0.047c1.11,0,2.07,0.717,2.389,1.784l0.836,2.789c0.11,0.364,0.166,0.742,0.165,1.123
		c0,0.396-0.075,0.782-0.222,1.149l-0.318,0.78c-0.381,0.953-1.292,1.57-2.32,1.57H4.062z M1,9.75c0,0.291,0.036,0.582,0.106,0.864
		l1.5,6c0.167,0.669,0.766,1.136,1.455,1.136h17.082c0.617,0,1.164-0.371,1.393-0.944l0.319-0.781
		c0.099-0.246,0.149-0.507,0.149-0.775c0-0.283-0.041-0.564-0.123-0.834l-0.836-2.79c-0.192-0.64-0.767-1.07-1.432-1.07
		c-0.097,0-0.196,0.01-0.293,0.028L8.16,12.938c-0.22,0.043-0.444,0.064-0.667,0.064c-0.933,0-1.812-0.364-2.473-1.025l-1.494-1.495
		C3.053,10.01,2.426,9.75,1.758,9.75H1z M13.998,6.255c-0.445,0-0.888,0.067-1.318,0.198c-2.223,0.683-3.542,2.931-3.085,5.188
		l1.961-0.38c-0.228-1.095,0.311-2.241,1.331-2.748c0.35-0.175,0.725-0.263,1.112-0.263c0.27,0,0.538,0.044,0.797,0.131
		c0.633,0.212,1.146,0.658,1.443,1.256c0.106,0.214,0.181,0.44,0.222,0.675l1.959-0.379c-0.031-0.181-0.07-0.345-0.117-0.498
		C17.728,7.563,15.958,6.255,13.998,6.255z M13.998,9.252c-0.232,0-0.457,0.053-0.666,0.157c-0.625,0.311-0.944,1-0.797,1.663
		l2.943-0.57c-0.024-0.147-0.069-0.287-0.135-0.419C15.088,9.571,14.572,9.252,13.998,9.252z"/>
</g>
</svg>
