<?xml version="1.0" encoding="utf-8"?>
<!-- Generator: Adobe Illustrator 22.1.0, SVG Export Plug-In . SVG Version: 6.00 Build 0)  -->
<svg version="1.1" id="Layer_1" xmlns="http://www.w3.org/2000/svg" xmlns:xlink="http://www.w3.org/1999/xlink" x="0px" y="0px"
	 viewBox="0 0 24 24" style="enable-background:new 0 0 24 24;" xml:space="preserve">
<g>
	<title>office-printer</title>
	<path d="M1.5,24.001c-0.827,0-1.5-0.673-1.5-1.5v-17c0-0.827,0.673-1.5,1.5-1.5h1.442l18.453-3.99C21.43,0.003,21.465,0,21.499,0
		c0.234,0,0.44,0.166,0.49,0.394c0.058,0.27-0.114,0.536-0.383,0.595L7.674,4.001H22.5c0.827,0,1.5,0.673,1.5,1.5v2
		c0,0.827-0.673,1.5-1.5,1.5H14v5h3.293l1.854-1.854c0.094-0.094,0.22-0.146,0.354-0.146h3c0.827,0,1.5,0.673,1.5,1.5v9
		c0,0.827-0.673,1.5-1.5,1.5H1.5z M1,22.501c0,0.276,0.224,0.5,0.5,0.5h21c0.276,0,0.5-0.224,0.5-0.5v-1.501H1V22.501z M23,19.999
		v-6.499c0-0.276-0.224-0.5-0.5-0.5h-2.793l-1.854,1.854c-0.094,0.094-0.22,0.146-0.354,0.146h-4c-0.008,0-0.016,0-0.024-0.001H11.5
		c-0.276,0-0.5-0.224-0.5-0.5s0.224-0.5,0.5-0.5H13V9.001h-1v0.5c0,0.827-0.673,1.5-1.5,1.5h-6c-0.827,0-1.5-0.673-1.5-1.5v-0.5H1
		v10.999H23z M4,9.501c0,0.276,0.224,0.5,0.5,0.5h6c0.276,0,0.5-0.224,0.5-0.5v-4.5H4V9.501z M22.5,8.001c0.276,0,0.5-0.224,0.5-0.5
		v-2c0-0.276-0.224-0.5-0.5-0.5H12v3H22.5z M3,8.001v-3H1.5c-0.276,0-0.5,0.224-0.5,0.5v2.5H3z"/>
	<path d="M5.5,7C5.224,7,5,6.775,5,6.5S5.224,6,5.5,6h1C6.776,6,7,6.224,7,6.5S6.776,7,6.5,7H5.5z"/>
	<path d="M8.5,7C8.224,7,8,6.775,8,6.5S8.224,6,8.5,6h1C9.776,6,10,6.224,10,6.5S9.776,7,9.5,7H8.5z"/>
	<path d="M8.5,9C8.224,9,8,8.775,8,8.5S8.224,8,8.5,8h1C9.776,8,10,8.224,10,8.5S9.776,9,9.5,9H8.5z"/>
	<path d="M5.5,9C5.224,9,5,8.775,5,8.5S5.224,8,5.5,8h1C6.776,8,7,8.224,7,8.5S6.776,9,6.5,9H5.5z"/>
</g>
</svg>
