<?xml version="1.0" encoding="utf-8"?>
<!-- Generator: Adobe Illustrator 22.1.0, SVG Export Plug-In . SVG Version: 6.00 Build 0)  -->
<svg version="1.1" id="Layer_1" xmlns="http://www.w3.org/2000/svg" xmlns:xlink="http://www.w3.org/1999/xlink" x="0px" y="0px"
	 viewBox="0 0 24 24" style="enable-background:new 0 0 24 24;" xml:space="preserve">
<g>
	<title>office-stapler-1</title>
	<path d="M2,21.728c-0.827,0-1.5-0.673-1.5-1.5v-3c0-1.285,0.701-2.46,1.833-3.075L12.605,3.88c1.039-1.039,2.421-1.612,3.891-1.612
		c0.98,0,1.946,0.264,2.792,0.763c0.345,0.203,0.59,0.528,0.691,0.916c0.101,0.388,0.044,0.792-0.159,1.137
		c-0.01,0.017-0.021,0.034-0.032,0.051l1.802,1.802c0.283,0.283,0.439,0.659,0.44,1.06c0,0.401-0.156,0.777-0.439,1.061
		l-7.475,7.474c-0.283,0.283-0.659,0.439-1.06,0.439c-0.401,0-0.778-0.156-1.061-0.439l-1.779-1.778L7.5,17.471v0.257h13
		c1.654,0,3,1.346,3,3c0,0.552-0.448,1-1,1H2z M4,14.728c-1.379,0-2.5,1.122-2.5,2.5v3c0,0.276,0.224,0.5,0.5,0.5h20.5
		c0-1.103-0.897-2-2-2H7c-0.276,0-0.5-0.224-0.5-0.5v-1C6.5,15.85,5.379,14.728,4,14.728z M4.168,13.732
		c1.493,0.07,2.754,1.069,3.178,2.479c0,0,2.514-2.514,2.517-2.518c0.006-0.007,0.013-0.013,0.021-0.019l8.846-8.846
		c0.006-0.007,0.011-0.014,0.017-0.02c0.008-0.009,0.018-0.017,0.028-0.025l0.106-0.106c0.03-0.03,0.056-0.064,0.078-0.101
		c0.067-0.114,0.086-0.249,0.052-0.378c-0.034-0.129-0.115-0.238-0.23-0.306c-0.693-0.408-1.483-0.624-2.285-0.624
		c-1.203,0-2.333,0.468-3.184,1.319L4.168,13.732z M12.704,15.825c0.094,0.094,0.22,0.146,0.354,0.146
		c0.134,0,0.259-0.052,0.353-0.146l7.474-7.473c0.095-0.095,0.147-0.221,0.147-0.354c0-0.134-0.052-0.259-0.146-0.354l-1.778-1.778
		l-8.182,8.181L12.704,15.825z"/>
	<path d="M13.5,14.228c-0.134,0-0.259-0.052-0.354-0.146c-0.195-0.195-0.195-0.512,0-0.707l5.355-5.354
		c0.094-0.094,0.22-0.146,0.354-0.146s0.259,0.052,0.354,0.146s0.146,0.22,0.146,0.354c0,0.134-0.052,0.259-0.146,0.354
		l-5.355,5.354C13.759,14.176,13.634,14.228,13.5,14.228z"/>
</g>
</svg>
