<?xml version="1.0" encoding="utf-8"?>
<!-- Generator: Adobe Illustrator 22.1.0, SVG Export Plug-In . SVG Version: 6.00 Build 0)  -->
<svg version="1.1" id="Layer_1" xmlns="http://www.w3.org/2000/svg" xmlns:xlink="http://www.w3.org/1999/xlink" x="0px" y="0px"
	 viewBox="0 0 24 24" style="enable-background:new 0 0 24 24;" xml:space="preserve">
<g>
	<title>office-stationery</title>
	<path d="M1.5,23.499c-0.827,0-1.5-0.673-1.5-1.5v-4c0-0.827,0.673-1.5,1.5-1.5H2V3.588C1.414,3.797,1,4.36,1,5v4
		c0,0.276-0.224,0.5-0.5,0.5S0,9.276,0,9V5c0-1.379,1.121-2.5,2.5-2.5h0.816V1.381h-0.5c-0.276,0-0.5-0.224-0.5-0.5
		s0.224-0.5,0.5-0.5h2c0.276,0,0.5,0.224,0.5,0.5s-0.224,0.5-0.5,0.5h-0.5V2.5H4.5C5.328,2.5,6,3.173,6,4v12.499h2V5
		c0-1.379,1.121-2.5,2.5-2.5C11.879,2.5,13,3.621,13,5v11.499h3.276l0.629-5.796c0.008-0.076,0.035-0.151,0.076-0.216l1.053-1.637
		l-0.329-2.957C17.372,6.13,16.972,6.26,16.555,6.26c-0.071,0-0.143-0.004-0.215-0.012c-0.53-0.057-1.007-0.318-1.343-0.734
		c-0.336-0.416-0.489-0.938-0.432-1.468l0.108-1c0.057-0.531,0.318-1.008,0.735-1.343c0.359-0.289,0.792-0.441,1.251-0.441
		c0.072,0,0.145,0.004,0.218,0.012c0.531,0.058,1.009,0.319,1.343,0.735c0.335,0.417,0.488,0.938,0.43,1.469l-0.102,0.941
		l0.255,2.291l0.739-2.182l0.102-0.945c0.127-1.005,0.979-1.759,1.984-1.759c0.083,0,0.167,0.005,0.252,0.016
		c1.075,0.136,1.84,1.087,1.741,2.166l-0.108,1.007c-0.057,0.532-0.318,1.009-0.735,1.344c-0.359,0.289-0.792,0.442-1.25,0.442
		c-0.073,0-0.146-0.004-0.219-0.012c-0.489-0.053-0.932-0.278-1.26-0.638l-0.915,2.701l0.725,1.95
		c0.027,0.073,0.037,0.152,0.028,0.228l-0.594,5.472H21.5c0.827,0,1.5,0.673,1.5,1.5v4c0,0.827-0.673,1.5-1.5,1.5H1.5z M1.5,17.499
		c-0.276,0-0.5,0.224-0.5,0.5v4c0,0.276,0.224,0.5,0.5,0.5h20c0.276,0,0.5-0.224,0.5-0.5v-4c0-0.276-0.224-0.5-0.5-0.5H5.522
		C5.515,17.5,5.507,17.5,5.5,17.5h-3c-0.007,0-0.014,0-0.021-0.001H1.5z M18.288,16.499l0.593-5.463l-0.389-1.048l-0.604,0.94
		l-0.604,5.571H18.288z M12,16.499V12.5H9v3.999H12z M5,16.499V4c0-0.276-0.224-0.5-0.5-0.5H3v12.999H5z M12,11.499V5
		c0-0.827-0.673-1.5-1.5-1.5C9.673,3.5,9,4.173,9,5v6.499H12z M21.629,2.824c-0.502,0-0.928,0.376-0.991,0.875L20.531,4.69
		c-0.029,0.266,0.048,0.527,0.215,0.735c0.167,0.208,0.406,0.339,0.671,0.367c0.038,0.004,0.075,0.006,0.111,0.006
		c0.228,0,0.444-0.077,0.624-0.221c0.208-0.167,0.339-0.406,0.367-0.671l0.107-0.999c0.049-0.533-0.334-1.007-0.871-1.075
		C21.712,2.826,21.67,2.824,21.629,2.824z M16.659,2.262c-0.229,0-0.445,0.076-0.624,0.221c-0.208,0.167-0.339,0.406-0.368,0.672
		l-0.108,1c-0.059,0.548,0.34,1.042,0.888,1.101c0.035,0.004,0.071,0.005,0.106,0.005c0.513,0,0.94-0.384,0.995-0.893l0.108-0.997
		c0.029-0.266-0.047-0.526-0.215-0.735c-0.167-0.208-0.406-0.339-0.672-0.368C16.733,2.264,16.696,2.262,16.659,2.262z"/>
</g>
</svg>
