<?xml version="1.0" encoding="utf-8"?>
<!-- Generator: Adobe Illustrator 22.1.0, SVG Export Plug-In . SVG Version: 6.00 Build 0)  -->
<svg version="1.1" id="Layer_1" xmlns="http://www.w3.org/2000/svg" xmlns:xlink="http://www.w3.org/1999/xlink" x="0px" y="0px"
	 viewBox="0 0 24 24" style="enable-background:new 0 0 24 24;" xml:space="preserve">
<g>
	<title>office-drawer</title>
	<path d="M1.5,21.999c-0.827,0-1.5-0.673-1.5-1.5v-7c0-0.827,0.673-1.5,1.5-1.5H2V7.5C2,6.673,2.673,6,3.5,6H12
		c0.469,0,0.918,0.224,1.2,0.6L14.25,8h6.25C21.327,8,22,8.673,22,9.5v2.499h0.5c0.827,0,1.5,0.673,1.5,1.5v7
		c0,0.827-0.673,1.5-1.5,1.5H1.5z M1.5,12.999c-0.276,0-0.5,0.224-0.5,0.5v7c0,0.276,0.224,0.5,0.5,0.5h21
		c0.276,0,0.5-0.224,0.5-0.5v-7c0-0.276-0.224-0.5-0.5-0.5h-0.976C21.516,12.999,21.508,13,21.5,13s-0.016,0-0.024-0.001H2.524
		C2.516,12.999,2.508,13,2.5,13s-0.016,0-0.024-0.001H1.5z M21,11.999V9.5C21,9.224,20.776,9,20.5,9H14
		c-0.156,0-0.306-0.075-0.4-0.2l-1.2-1.6C12.306,7.075,12.156,7,12,7H3.5C3.224,7,3,7.224,3,7.5v4.499H21z"/>
	<path d="M21.5,6C21.224,6,21,5.776,21,5.5S20.776,5,20.5,5H14c-0.156,0-0.306-0.075-0.4-0.2l-1.2-1.6C12.306,3.075,12.156,3,12,3
		H3.5C3.224,3,3,3.224,3,3.5v1C3,4.776,2.776,5,2.5,5S2,4.776,2,4.5v-1C2,2.673,2.673,2,3.5,2H12c0.469,0,0.918,0.224,1.2,0.6
		L14.25,4h6.25C21.327,4,22,4.673,22,5.5C22,5.776,21.776,6,21.5,6z"/>
	<path d="M9,15.999c-0.276,0-0.5-0.224-0.5-0.5s0.224-0.5,0.5-0.5h6c0.276,0,0.5,0.224,0.5,0.5s-0.224,0.5-0.5,0.5H9z"/>
</g>
</svg>
