<?xml version="1.0" encoding="utf-8"?>
<!-- Generator: Adobe Illustrator 22.1.0, SVG Export Plug-In . SVG Version: 6.00 Build 0)  -->
<svg version="1.1" id="Layer_1" xmlns="http://www.w3.org/2000/svg" xmlns:xlink="http://www.w3.org/1999/xlink" x="0px" y="0px"
	 viewBox="0 0 24 24" style="enable-background:new 0 0 24 24;" xml:space="preserve">
<g>
	<title>office-folder-1</title>
	<path d="M3.333,24C2.598,23.999,2,23.401,2,22.666V1.5C2,0.673,2.673,0,3.5,0h17C21.327,0,22,0.673,22,1.5v21
		c0,0.827-0.673,1.5-1.5,1.5H3.333z M20.5,23c0.276,0,0.5-0.224,0.5-0.5v-3.566l-2,1.333V23H20.5z M3.5,1C3.224,1,3,1.224,3,1.5
		v21.166C3,22.85,3.15,23,3.333,23H18V8c0.043-0.787,0.419-1.495,1.032-1.955L21,4.732V1.5C21,1.224,20.776,1,20.5,1H3.5z
		 M19,19.064l2-1.333v-5.297l-2,1.333V19.064z M19.609,6.861c-0.357,0.269-0.584,0.698-0.61,1.167L19,12.564l2-1.333V5.934
		L19.609,6.861z"/>
</g>
</svg>
