<?xml version="1.0" encoding="utf-8"?>
<!-- Generator: Adobe Illustrator 22.1.0, SVG Export Plug-In . SVG Version: 6.00 Build 0)  -->
<svg version="1.1" id="Layer_1" xmlns="http://www.w3.org/2000/svg" xmlns:xlink="http://www.w3.org/1999/xlink" x="0px" y="0px"
	 viewBox="0 0 24 24" style="enable-background:new 0 0 24 24;" xml:space="preserve">
<g>
	<title>office-razor</title>
	<path d="M2.156,23.787c-0.104,0-0.187-0.025-0.238-0.047c-0.097-0.04-0.412-0.21-0.412-0.711v-4.653
		c0.023-0.45,0.194-0.867,0.48-1.188l2.139-2.14l-0.355-0.355c-0.585-0.585-0.585-1.537,0-2.121L14.38,1.963
		c1.191-1.168,2.534-1.785,3.884-1.785c1.155,0,2.236,0.449,3.043,1.264c1.515,1.53,1.984,4.338-0.566,6.889L10.134,18.936
		c-0.283,0.283-0.66,0.439-1.061,0.439c-0.401,0-0.778-0.156-1.06-0.439L7.66,18.583L2.713,23.53
		C2.501,23.742,2.293,23.787,2.156,23.787z M2.713,17.875c-0.117,0.132-0.196,0.328-0.207,0.527l0.001,3.919l4.447-4.446l-2.12-2.12
		L2.713,17.875z M8.72,18.229c0.094,0.094,0.219,0.146,0.353,0.146s0.26-0.052,0.354-0.146L19.68,7.977l-4.95-4.95L4.478,13.28
		c-0.195,0.195-0.195,0.512,0,0.707l0.687,0.687c0.01,0.008,0.019,0.016,0.027,0.024c0.006,0.006,0.012,0.014,0.018,0.021
		l0.107,0.107l7.504-7.509c0.346-0.329,0.792-0.508,1.261-0.508c0.467,0,0.911,0.177,1.25,0.5c0.351,0.334,0.551,0.785,0.563,1.27
		s-0.165,0.946-0.499,1.297L7.881,17.39L8.72,18.229z M7.176,16.682l7.504-7.501c0.303-0.321,0.29-0.838-0.036-1.147
		c-0.152-0.145-0.352-0.225-0.562-0.225c-0.21,0-0.409,0.08-0.562,0.224l-7.493,7.498L7.176,16.682z M20.373,7.256
		c1.204-1.421,1.762-3.556,0.223-5.11c-0.613-0.619-1.439-0.96-2.327-0.96c-0.953,0-1.921,0.397-2.815,1.151L20.373,7.256z"/>
</g>
</svg>
