<?xml version="1.0" encoding="utf-8"?>
<!-- Generator: Adobe Illustrator 22.1.0, SVG Export Plug-In . SVG Version: 6.00 Build 0)  -->
<svg version="1.1" id="Light" xmlns="http://www.w3.org/2000/svg" xmlns:xlink="http://www.w3.org/1999/xlink" x="0px" y="0px"
	 viewBox="0 0 24 24" style="enable-background:new 0 0 24 24;" xml:space="preserve">
<g>
	<title>wild-bird-eagle-1</title>
	<circle cx="10" cy="8.48" r="0.75"/>
	<path d="M10,11.5c-1.654,0-3-1.346-3-3c0-1.166,0.684-2.235,1.742-2.724C8.808,5.745,8.879,5.73,8.952,5.73
		c0.194,0,0.373,0.114,0.454,0.29c0.056,0.121,0.062,0.257,0.015,0.382s-0.138,0.225-0.26,0.281C8.456,7.01,8,7.723,8,8.5
		c0,1.103,0.897,2,2,2s2-0.897,2-2C12,8.224,12.224,8,12.5,8C12.776,8,13,8.224,13,8.5C13,10.154,11.654,11.5,10,11.5z"/>
	<path d="M14,8.003c-0.106,0-0.208-0.033-0.295-0.096l-5.5-4.026C7.982,3.717,7.934,3.404,8.096,3.182
		C8.191,3.053,8.342,2.977,8.5,2.977c0.107,0,0.209,0.033,0.295,0.096l5.5,4.026c0.222,0.163,0.271,0.477,0.108,0.699
		C14.31,7.926,14.159,8.003,14,8.003z"/>
	<path d="M15.75,24c-0.685,0-1.326-0.313-1.75-0.837C13.576,23.687,12.935,24,12.25,24c-0.685,0-1.327-0.313-1.75-0.837
		C10.076,23.687,9.435,24,8.75,24S7.423,23.687,7,23.163C6.576,23.687,5.935,24,5.25,24C4.009,24,3,22.991,3,21.75V9.964
		C0.534,9.6,0.012,6.613,0.007,6.582c-0.024-0.145,0.017-0.293,0.112-0.405C0.214,6.064,0.353,6,0.5,6h0.692
		C0.254,4.998,0.01,3.599,0.007,3.582c-0.024-0.145,0.016-0.293,0.111-0.405C0.214,3.064,0.353,3,0.5,3h0.692
		C0.254,1.998,0.01,0.599,0.007,0.582c-0.024-0.145,0.016-0.293,0.111-0.405C0.214,0.064,0.353,0,0.5,0h8
		c5.933,0,9.228,3.753,9.484,7.532C20.201,7.801,24,9.724,24,13.5v4c0,0.252-0.189,0.465-0.439,0.496
		C23.542,17.999,23.52,18,23.498,18c-0.229,0-0.428-0.156-0.483-0.379l0,0c0,0-0.121-0.377-0.609-0.755
		C21.896,16.47,20.892,16,19,16h-5c-1.378,0-2.5-1.122-2.5-2.5c0-0.276,0.224-0.5,0.5-0.5c0.276,0,0.5,0.224,0.5,0.5
		c0,0.827,0.673,1.5,1.5,1.5h5c1.947,0,3.144,0.456,3.873,0.965C22.576,14.939,21.663,13,19,13h-5c-0.276,0-0.5-0.224-0.5-0.5
		c0-0.276,0.224-0.5,0.5-0.5h5c2.049,0,3.274,0.955,4,1.988V13.5c0-3.75-4.335-5-5.5-5C17.224,8.5,17,8.276,17,8
		c0-3.393-2.979-7-8.5-7H1.154c0.08,0.229,0.192,0.495,0.347,0.759C1.985,2.583,2.658,3,3.5,3C3.776,3,4,3.224,4,3.5S3.776,4,3.5,4
		H1.154c0.08,0.229,0.192,0.495,0.347,0.759C1.985,5.583,2.658,6,3.5,6C3.776,6,4,6.224,4,6.5S3.776,7,3.5,7H1.154
		c0.08,0.229,0.192,0.495,0.347,0.759C1.985,8.583,2.658,9,3.5,9C3.776,9,4,9.224,4,9.5v12.25C4,22.439,4.561,23,5.25,23
		s1.25-0.561,1.25-1.25c0-0.276,0.224-0.5,0.5-0.5s0.5,0.224,0.5,0.5C7.5,22.439,8.061,23,8.75,23S10,22.439,10,21.75
		c0-0.276,0.224-0.5,0.5-0.5s0.5,0.224,0.5,0.5c0,0.689,0.561,1.25,1.25,1.25s1.25-0.561,1.25-1.25c0-0.276,0.224-0.5,0.5-0.5
		s0.5,0.224,0.5,0.5c0,0.689,0.561,1.25,1.25,1.25S17,22.439,17,21.75V17.5c0-0.276,0.224-0.5,0.5-0.5s0.5,0.224,0.5,0.5v4.25
		C18,22.991,16.991,24,15.75,24z"/>
</g>
</svg>
