<?xml version="1.0" encoding="utf-8"?>
<!-- Generator: Adobe Illustrator 22.1.0, SVG Export Plug-In . SVG Version: 6.00 Build 0)  -->
<svg version="1.1" id="Light" xmlns="http://www.w3.org/2000/svg" xmlns:xlink="http://www.w3.org/1999/xlink" x="0px" y="0px"
	 viewBox="0 0 24 24" style="enable-background:new 0 0 24 24;" xml:space="preserve">
<g>
	<title>wild-bird-eagle-head</title>
	<path d="M12,19.5c-0.134,0-0.259-0.052-0.354-0.146L8.535,16.24c-0.367-0.366-0.52-0.908-0.398-1.413C8.661,12.651,9.859,9,12,9
		c1.076,0,2.618,1.009,3.85,5.816c0.131,0.511-0.019,1.061-0.393,1.434l-3.104,3.104C12.259,19.448,12.134,19.5,12,19.5z M12,10
		c-0.279,0-1.732,0.244-2.891,5.062c-0.041,0.168,0.01,0.349,0.133,0.471L12,18.293l2.75-2.75c0.125-0.125,0.175-0.308,0.131-0.478
		C14.105,12.035,12.947,10,12,10z"/>
	<path d="M14.5,24c-0.113,0-0.224-0.039-0.312-0.109L12,22.14l-2.188,1.75C9.724,23.961,9.613,24,9.5,24
		c-0.134,0-0.259-0.052-0.354-0.146l-1.534-1.533c-0.094-0.094-0.22-0.146-0.353-0.146c-0.064,0-0.127,0.012-0.186,0.036
		l-4.388,1.754C2.626,23.988,2.564,24,2.5,24c-0.142,0-0.277-0.061-0.372-0.166c-0.14-0.155-0.168-0.384-0.07-0.568
		c0.533-1.004,0.85-2.128,0.925-3.266H0.5c-0.191,0-0.368-0.111-0.451-0.284c-0.083-0.172-0.059-0.38,0.06-0.529
		C1.361,17.625,1.907,16.771,1.989,15H0.5c-0.191,0-0.368-0.111-0.451-0.284c-0.083-0.173-0.059-0.38,0.061-0.529l0.438-0.546
		C1.484,12.47,1.999,11,2,9.5C2,2.53,7.98,0,12,0c4.02,0,10,2.53,10,9.5c0.001,1.499,0.517,2.969,1.453,4.14l0.438,0.548
		c0.119,0.148,0.143,0.356,0.06,0.528C23.867,14.889,23.691,15,23.5,15h-1.489c0.082,1.77,0.628,2.625,1.879,4.188
		c0.12,0.149,0.143,0.357,0.061,0.529C23.868,19.889,23.691,20,23.5,20h-2.483c0.074,1.137,0.392,2.261,0.925,3.266
		c0.098,0.185,0.07,0.413-0.07,0.569C21.776,23.94,21.641,24,21.499,24c-0.063,0-0.125-0.012-0.184-0.035l-4.389-1.759
		c-0.06-0.024-0.122-0.036-0.186-0.036c-0.133,0-0.259,0.052-0.354,0.147l-1.533,1.536C14.76,23.948,14.634,24,14.5,24z
		 M7.259,21.174c0.4,0,0.777,0.156,1.06,0.439l1.217,1.217l2.151-1.721C11.776,21.039,11.887,21,12,21s0.224,0.039,0.312,0.109
		l2.15,1.72l1.218-1.22c0.284-0.284,0.661-0.44,1.061-0.44c0.192,0,0.379,0.036,0.558,0.107l3.248,1.302
		c-0.356-0.985-0.544-2.038-0.546-3.078c0-0.132,0.053-0.261,0.146-0.354C20.239,19.054,20.368,19,20.5,19h1.98
		C21.46,17.616,21,16.534,21,14.5c0-0.276,0.224-0.5,0.5-0.5h0.97c-0.949-1.301-1.469-2.886-1.47-4.5C21,6.56,19.119,1,12,1
		C4.881,1,3,6.56,3,9.5c0,1.614-0.52,3.199-1.468,4.5H2.5C2.776,14,3,14.224,3,14.5c0,2.034-0.46,3.116-1.48,4.5H3.5
		c0.132,0,0.261,0.054,0.354,0.147C3.947,19.24,4,19.369,4,19.501c-0.002,1.041-0.19,2.094-0.547,3.079l3.248-1.299
		C6.879,21.21,7.067,21.174,7.259,21.174z"/>
	<path d="M7.249,10C7.05,10,6.863,9.923,6.722,9.783C6.579,9.642,6.501,9.454,6.5,9.254c0-0.001,0-0.007,0-0.008
		C6.503,8.834,6.84,8.5,7.25,8.5c0.403,0,0.736,0.324,0.749,0.725C8,9.232,8,9.25,8,9.25c0,0.006,0,0.013-0.001,0.02
		C7.994,9.462,7.917,9.641,7.783,9.776c-0.129,0.13-0.3,0.207-0.484,0.219C7.282,9.998,7.265,10,7.251,10H7.249z"/>
	<path d="M9.5,8.498c-0.11,0-0.219-0.037-0.307-0.105l-2.25-1.75C6.725,6.473,6.686,6.159,6.855,5.941
		C6.95,5.818,7.094,5.748,7.25,5.748c0.111,0,0.219,0.037,0.307,0.105l2.25,1.75c0.218,0.169,0.257,0.484,0.088,0.702
		C9.799,8.428,9.655,8.498,9.5,8.498z"/>
	<path d="M16.75,10c-0.011,0-0.023-0.001-0.035-0.003C16.326,9.981,16.008,9.656,16,9.264c0-0.005,0-0.024,0-0.029
		c0.005-0.198,0.083-0.38,0.221-0.518C16.363,8.577,16.55,8.5,16.749,8.5c0.004,0,0.009,0,0.013,0
		C17.17,8.508,17.5,8.841,17.5,9.249C17.5,9.664,17.164,10,16.75,10z"/>
	<path d="M14.5,8.499c-0.156,0-0.299-0.07-0.395-0.193c-0.082-0.105-0.118-0.236-0.102-0.369c0.016-0.132,0.083-0.25,0.189-0.333
		l2.25-1.75c0.088-0.068,0.197-0.105,0.307-0.105c0.155,0,0.299,0.07,0.395,0.193c0.082,0.105,0.118,0.236,0.102,0.369
		c-0.016,0.132-0.083,0.25-0.189,0.333l-2.25,1.75C14.719,8.462,14.611,8.499,14.5,8.499z"/>
</g>
</svg>
