<?xml version="1.0" encoding="utf-8"?>
<!-- Generator: Adobe Illustrator 22.1.0, SVG Export Plug-In . SVG Version: 6.00 Build 0)  -->
<svg version="1.1" id="Light" xmlns="http://www.w3.org/2000/svg" xmlns:xlink="http://www.w3.org/1999/xlink" x="0px" y="0px"
	 viewBox="0 0 24 24" style="enable-background:new 0 0 24 24;" xml:space="preserve">
<g>
	<title>wild-bird-2</title>
	<path d="M12.392,24c-0.276,0-0.5-0.224-0.5-0.5v-4c0-0.078,0.018-0.156,0.053-0.225l1.451-2.878
		c-0.332,0.069-0.667,0.104-1.004,0.104c-0.246,0-0.495-0.01-0.756-0.03l-2.244,3.188V23h1c0.276,0,0.5,0.224,0.5,0.5
		s-0.224,0.5-0.5,0.5h-1.5c-0.276,0-0.5-0.224-0.5-0.5v-3.969L7.889,15.5c-2.015-0.898-3.971-2.418-5.387-4.188
		c-0.083-0.104-0.121-0.235-0.107-0.368s0.08-0.252,0.185-0.335C2.668,10.539,2.778,10.5,2.892,10.5
		c0.153,0,0.295,0.068,0.391,0.188c1.861,2.326,5.232,4.812,9.109,4.812c2.206,0,4-1.794,4-4l0.026-5.302
		c0.003-0.916,0.506-1.755,1.313-2.191c1.08-0.583,2.161-1.207,2.877-1.627C19.741,1.517,18.596,1.028,17.38,1
		c-0.535,0-0.933,0.136-1.21,0.416c-0.837,0.845-0.817,3.087-0.789,6.191c0.005,0.598,0.011,1.23,0.011,1.894
		c0,0.238-0.169,0.444-0.403,0.49C14.956,9.997,14.923,10,14.892,10c-0.203,0-0.385-0.121-0.462-0.309
		c-0.515-1.249-1.72-2.109-3.068-2.192C9.738,7.5,8.697,9.031,8.308,9.727c0.404,0.328,0.84,0.604,1.298,0.822
		c0.121,0.057,0.212,0.158,0.257,0.284c0.045,0.126,0.038,0.262-0.019,0.382C9.761,11.388,9.584,11.5,9.392,11.5
		c-0.075,0-0.147-0.016-0.215-0.049c-0.6-0.285-1.164-0.654-1.678-1.098c-0.008-0.003-0.016-0.006-0.025-0.009
		c-0.111-0.047-0.2-0.134-0.252-0.244C6.954,9.846,6.711,9.579,6.498,9.308C6.416,9.203,6.379,9.072,6.396,8.94
		c0.016-0.133,0.083-0.251,0.188-0.333C6.671,8.538,6.781,8.5,6.892,8.5c0.155,0,0.298,0.07,0.394,0.192
		c0.087,0.111,0.179,0.22,0.275,0.327C8.125,8.08,9.375,6.5,11.392,6.5c1.149,0.07,2.203,0.553,2.991,1.349l-0.002-0.234
		c-0.031-3.47-0.052-5.762,1.079-6.903C15.934,0.233,16.566,0,17.392,0c1.482,0.034,2.871,0.625,3.915,1.665
		c0.219,0.21,0.33,0.522,0.294,0.832c-0.036,0.308-0.218,0.587-0.486,0.745c-0.726,0.426-1.819,1.057-2.909,1.645
		c-0.484,0.261-0.785,0.765-0.787,1.315l-0.026,5.301c0,1.837-1.003,3.513-2.623,4.392l-1.877,3.724V23h1c0.276,0,0.5,0.224,0.5,0.5
		s-0.224,0.5-0.5,0.5H12.392z M9.228,18.154l1.287-1.829c-0.523-0.097-1.048-0.234-1.567-0.409L9.228,18.154z"/>
	<path d="M7.892,13c-0.09,0-0.179-0.025-0.257-0.071c-0.272-0.164-2.675-1.645-3.217-3.271C4.375,9.531,4.385,9.396,4.445,9.276
		c0.06-0.12,0.162-0.208,0.289-0.251C4.785,9.009,4.838,9,4.892,9c0.215,0,0.406,0.137,0.474,0.342
		c0.433,1.301,2.76,2.716,2.783,2.73c0.114,0.068,0.195,0.178,0.227,0.307c0.032,0.129,0.012,0.264-0.056,0.378
		C8.231,12.907,8.066,13,7.892,13z"/>
	<circle cx="17.642" cy="2.25" r="0.75"/>
</g>
</svg>
