<?xml version="1.0" encoding="utf-8"?>
<!-- Generator: Adobe Illustrator 22.1.0, SVG Export Plug-In . SVG Version: 6.00 Build 0)  -->
<svg version="1.1" id="Light" xmlns="http://www.w3.org/2000/svg" xmlns:xlink="http://www.w3.org/1999/xlink" x="0px" y="0px"
	 viewBox="0 0 24 24" style="enable-background:new 0 0 24 24;" xml:space="preserve">
<g>
	<title>wild-bird-nest</title>
	<path d="M12,23c-3.786,0-7.266-1.006-9.556-2.76c-0.071-0.033-0.133-0.082-0.182-0.146C0.782,18.898,0,17.483,0,16
		c0-1.103,0.897-2,2-2h20c1.103,0,2,0.897,2,2c0,1.778-1.137,3.469-3.202,4.765c-0.05,0.046-0.108,0.082-0.171,0.104
		C18.344,22.243,15.282,23,12,23z M4.131,20.176C6.203,21.341,9.022,22,12,22c2.614,0,5.103-0.504,7.092-1.428
		c-1.304-0.364-2.58-0.834-3.802-1.402c-0.176-0.082-0.29-0.26-0.29-0.454c0-0.074,0.016-0.145,0.047-0.211
		c0.082-0.175,0.26-0.289,0.454-0.289c0.073,0,0.144,0.016,0.211,0.047c1.49,0.692,3.061,1.232,4.669,1.605
		C22.071,18.78,23,17.409,23,16c0-0.552-0.448-1-1-1H2c-0.551,0-1,0.448-1,1c0,1.164,0.625,2.296,1.808,3.277
		c3.122-0.17,6.142-0.92,8.98-2.23c0.001,0,0.002-0.001,0.003-0.001C11.857,17.015,11.927,17,12,17c0.195,0,0.373,0.114,0.454,0.291
		c0.056,0.121,0.061,0.257,0.015,0.382c-0.046,0.125-0.138,0.225-0.26,0.281c-0.002,0.001-0.003,0.001-0.005,0.002
		C9.638,19.14,6.927,19.885,4.131,20.176z"/>
	<path d="M8.5,6.25c-0.015,0-0.033-0.002-0.051-0.005C8.067,6.223,7.76,5.907,7.751,5.517c0-0.006,0-0.028,0-0.034
		c0.01-0.389,0.312-0.704,0.699-0.73C8.467,4.75,8.485,4.748,8.5,4.748c0.414,0,0.75,0.336,0.75,0.75c0,0,0,0.002,0,0.002
		C9.25,5.913,8.914,6.25,8.5,6.25z"/>
	<path d="M17.5,8.75c-0.015,0-0.033-0.002-0.051-0.005c-0.386-0.022-0.696-0.345-0.699-0.741c0-0.001,0-0.003,0-0.004
		c0-0.396,0.305-0.72,0.699-0.747c0.018-0.003,0.036-0.005,0.051-0.005c0.414,0,0.75,0.336,0.75,0.75c0,0,0,0.002,0,0.002
		C18.25,8.413,17.914,8.75,17.5,8.75z"/>
	<path d="M4.167,13c-0.061,0-0.121-0.011-0.179-0.033c-0.124-0.047-0.223-0.14-0.277-0.262c-0.055-0.122-0.058-0.258-0.011-0.383
		c0.293-0.766,0.73-1.491,1.272-2.114C4.312,9.76,3.786,9.15,3.441,8.428C2.37,6.19,3.319,3.497,5.557,2.426
		c0.614-0.294,1.267-0.443,1.94-0.443c0.509,0,1.013,0.087,1.5,0.258c0.606,0.214,1.161,0.557,1.622,1.001l0.93-1.958
		C11.63,1.11,11.808,0.998,12,0.998c0.075,0,0.147,0.016,0.215,0.049c0.12,0.057,0.211,0.158,0.256,0.284
		c0.045,0.126,0.038,0.262-0.02,0.382l-0.814,1.714l1.746-0.415c0.039-0.009,0.077-0.013,0.115-0.013
		c0.233,0,0.434,0.158,0.487,0.384c0.031,0.13,0.01,0.264-0.061,0.378c-0.07,0.114-0.18,0.193-0.31,0.224L11.529,4.48
		c0.01,0.021,0.021,0.041,0.03,0.062c0.96,2.005,0.284,4.433-1.53,5.666c0.542,0.623,0.979,1.348,1.271,2.114
		c0.048,0.125,0.044,0.261-0.011,0.383c-0.055,0.122-0.153,0.215-0.278,0.262C10.954,12.989,10.894,13,10.833,13
		c-0.206,0-0.394-0.129-0.467-0.321c-0.32-0.837-0.833-1.606-1.483-2.223c-0.119-0.113-0.175-0.278-0.15-0.441
		s0.13-0.302,0.278-0.373c1.741-0.833,2.479-2.927,1.646-4.668c-0.075-0.157-0.168-0.314-0.281-0.479
		c-0.01-0.01-0.02-0.02-0.027-0.029c-0.023-0.028-0.043-0.062-0.061-0.098C9.876,3.823,9.315,3.414,8.664,3.184
		C8.285,3.05,7.893,2.983,7.497,2.983c-0.523,0-1.03,0.116-1.508,0.345C4.248,4.161,3.51,6.255,4.343,7.996
		c0.344,0.718,0.928,1.302,1.646,1.646c0.149,0.071,0.252,0.21,0.278,0.373s-0.03,0.327-0.15,0.441
		c-0.65,0.617-1.163,1.386-1.483,2.223C4.561,12.871,4.373,13,4.167,13L4.167,13z"/>
	<path d="M14.887,13c-0.074,0-0.145-0.016-0.212-0.048c-0.119-0.055-0.212-0.155-0.258-0.28c-0.046-0.125-0.041-0.261,0.016-0.383
		c0.237-0.513,0.532-0.98,0.77-1.356c0.045-0.071,0.088-0.139,0.128-0.203c-0.34-0.27-0.631-0.605-0.849-0.978
		c-0.969-1.664-0.405-3.807,1.259-4.777c0.532-0.31,1.137-0.474,1.75-0.474c0.907,0,1.765,0.346,2.411,0.96l0.631-1.644
		C20.607,3.627,20.794,3.498,21,3.498c0.061,0,0.122,0.011,0.179,0.033c0.125,0.048,0.223,0.141,0.278,0.264s0.058,0.258,0.01,0.383
		l-0.63,1.642l1.589-0.238c0.026-0.004,0.05-0.005,0.073-0.005c0.25,0,0.458,0.179,0.496,0.426c0.04,0.273-0.148,0.528-0.421,0.569
		l-1.778,0.266c0.497,1.404,0.048,2.968-1.126,3.895c0.036,0.058,0.075,0.12,0.115,0.183c0.246,0.389,0.542,0.859,0.781,1.375
		c0.056,0.121,0.062,0.257,0.016,0.383c-0.046,0.125-0.138,0.225-0.26,0.281C20.259,12.984,20.186,13,20.113,13
		c-0.194,0-0.373-0.114-0.454-0.29c-0.212-0.457-0.489-0.897-0.712-1.25c-0.164-0.26-0.303-0.48-0.392-0.664
		c-0.111-0.233-0.024-0.517,0.199-0.648c1.188-0.692,1.591-2.222,0.899-3.409c-0.445-0.763-1.272-1.237-2.158-1.237
		c-0.438,0-0.871,0.117-1.251,0.339c-1.188,0.692-1.591,2.221-0.898,3.409c0.217,0.371,0.527,0.682,0.899,0.899
		c0.226,0.132,0.312,0.41,0.2,0.646c-0.089,0.188-0.23,0.411-0.393,0.669c-0.225,0.356-0.501,0.792-0.711,1.246
		C15.26,12.886,15.082,13,14.887,13L14.887,13z"/>
</g>
</svg>
