<?xml version="1.0" encoding="utf-8"?>
<!-- Generator: Adobe Illustrator 22.1.0, SVG Export Plug-In . SVG Version: 6.00 Build 0)  -->
<svg version="1.1" id="Light" xmlns="http://www.w3.org/2000/svg" xmlns:xlink="http://www.w3.org/1999/xlink" x="0px" y="0px"
	 viewBox="0 0 24 24" style="enable-background:new 0 0 24 24;" xml:space="preserve">
<g>
	<title>wild-bird-owl-body</title>
	<path d="M14.5,5.25c-0.161,0-0.313-0.078-0.407-0.209c-0.013-0.018-1.367-1.887-2.993-2.803C10.522,1.913,9.985,1.75,9.5,1.75
		C9.224,1.75,9,1.526,9,1.25s0.224-0.5,0.5-0.5c0.571,0,1.177,0.156,1.802,0.463c0.902-0.623,1.991-0.964,3.083-0.964
		c0.043,0,0.085,0,0.128,0.002c0.031-0.001,0.074-0.002,0.117-0.002c1.083,0,2.167,0.342,3.069,0.965
		c0.625-0.307,1.23-0.463,1.802-0.463c0.276,0,0.5,0.224,0.5,0.5s-0.224,0.5-0.5,0.5c-0.489,0-1.03,0.165-1.607,0.491
		c-0.001,0.001-0.004,0.002-0.004,0.002c-1.613,0.913-2.969,2.779-2.982,2.798C14.813,5.172,14.661,5.25,14.5,5.25z M12.259,1.792
		c0.984,0.702,1.798,1.605,2.241,2.144c0.444-0.539,1.257-1.442,2.241-2.144c-0.65-0.357-1.377-0.543-2.123-0.543
		c-0.035,0-0.071,0-0.106,0.001l-0.115-0.001C13.642,1.249,12.91,1.436,12.259,1.792z"/>
	<circle cx="16.75" cy="5.5" r="0.75"/>
	<circle cx="12.25" cy="5.5" r="0.75"/>
	<path d="M4.5,23.75c-0.141,0-0.276-0.06-0.371-0.165C4.034,23.481,3.988,23.34,4.002,23.2c0.363-3.57,1.041-7.132,2.016-10.585
		C7.141,8.867,8.761,7.065,9.66,6.506C9.555,5.927,9.501,5.337,9.5,4.751C9.496,4.154,9.609,3.569,9.838,3.015
		c0.078-0.188,0.259-0.31,0.463-0.31c0.066,0,0.13,0.013,0.191,0.038c0.254,0.105,0.376,0.398,0.272,0.653
		c-0.177,0.431-0.266,0.885-0.262,1.351c0.001,0.651,0.074,1.302,0.216,1.935c0.06,0.268-0.108,0.535-0.375,0.597
		c-0.28,0.065-2.091,1.374-3.361,5.615c-0.907,3.213-1.554,6.529-1.923,9.856h1.408c1.714-0.25,3.421-0.834,4.95-1.695
		c-0.788-2.94-0.752-6.03,0.106-8.949c0.062-0.211,0.259-0.359,0.48-0.359c0.048,0,0.095,0.007,0.141,0.02
		c0.265,0.078,0.417,0.356,0.339,0.621c-0.777,2.645-0.836,5.445-0.173,8.121c1.065-0.708,2.003-1.538,2.791-2.47
		c2.29-2.709,3.264-6.199,2.744-9.825c-0.013-0.093,0-0.185,0.036-0.27c0.437-1.011,0.646-2.082,0.622-3.183
		c0.004-0.469-0.08-0.918-0.249-1.342c-0.05-0.124-0.048-0.26,0.005-0.383s0.15-0.218,0.274-0.267
		c0.06-0.024,0.122-0.036,0.185-0.036c0.206,0,0.388,0.124,0.465,0.315c0.217,0.545,0.325,1.118,0.321,1.705
		c0.026,1.186-0.192,2.351-0.649,3.457c0.517,3.862-0.544,7.579-2.99,10.473c-0.266,0.315-0.561,0.631-0.876,0.94l0.875,2.626H17
		c0.276,0,0.5,0.224,0.5,0.5s-0.224,0.5-0.5,0.5h-3c-0.276,0-0.5-0.224-0.5-0.5s0.224-0.5,0.5-0.5h0.806l-0.63-1.89
		c-0.587,0.492-1.221,0.944-1.889,1.346l-0.012,0.007c-1.738,1.044-3.711,1.746-5.705,2.031C6.548,23.748,6.524,23.75,6.5,23.75H4.5
		z"/>
	<path d="M14.5,8.75c-0.134,0-0.259-0.052-0.354-0.146l-1-1C13.052,7.509,13,7.384,13,7.25s0.052-0.259,0.146-0.354
		S13.366,6.75,13.5,6.75s0.259,0.052,0.354,0.146L14.5,7.543l0.646-0.646c0.094-0.094,0.22-0.146,0.354-0.146
		s0.259,0.052,0.354,0.146S16,7.117,16,7.25s-0.052,0.259-0.146,0.354l-1,1C14.759,8.698,14.633,8.75,14.5,8.75z"/>
</g>
</svg>
