<?xml version="1.0" encoding="utf-8"?>
<!-- Generator: Adobe Illustrator 22.1.0, SVG Export Plug-In . SVG Version: 6.00 Build 0)  -->
<svg version="1.1" id="Light" xmlns="http://www.w3.org/2000/svg" xmlns:xlink="http://www.w3.org/1999/xlink" x="0px" y="0px"
	 viewBox="0 0 24 24" style="enable-background:new 0 0 24 24;" xml:space="preserve">
<g>
	<title>wild-bird-head</title>
	<path d="M15.5,24c-0.276,0-0.5-0.224-0.5-0.5c0-4.215,0.266-7.74,0.791-10.476c0.001-0.054,0.012-0.108,0.031-0.161
		c0.142-0.72,0.305-1.391,0.485-2.002c-1.725,0.655-3.237,0.987-4.501,0.987c-0.984,0-1.841-0.199-2.548-0.591
		c-1.336-0.74-2.146-2.175-2.343-4.151c-0.043-0.436-0.052-0.85-0.044-1.213C5.747,7.341,4,10.478,4,16v4.003
		c0.097,0.001,0.333,0.004,0.333,0.004c0.316,0.004,0.644,0.009,0.98,0.009c3.11,0,6.136-0.445,7.213-3.675
		c0.339-1.019,0.662-1.871,0.986-2.605c0.08-0.181,0.26-0.298,0.458-0.298c0.069,0,0.137,0.014,0.201,0.042
		c0.123,0.054,0.217,0.152,0.265,0.277c0.048,0.125,0.045,0.26-0.009,0.383c-0.312,0.707-0.623,1.531-0.952,2.518
		c-1.281,3.841-4.864,4.358-8.2,4.358c-0.329,0-0.647-0.004-0.95-0.009l-0.041,0C4.011,21.004,3.749,21,3.5,21
		C3.224,21,3,20.776,3,20.5V16C3,7.349,7.029,4.229,7.2,4.1c0.014-0.01,0.035-0.022,0.053-0.031
		c0.036-0.021,0.069-0.035,0.103-0.046C7.38,4.016,7.403,4.012,7.427,4.009C7.434,4.007,7.463,4,7.5,4h6
		c1.666,0,2.907,1.068,3.591,3.09c0.121,0.359,0.223,0.741,0.305,1.143c0.602-1.008,1.193-1.429,1.59-1.604
		C18.766,3.867,16.114,1,11.5,1C8.343,1,1,2.656,1,18v5.5C1,23.776,0.776,24,0.5,24S0,23.776,0,23.5V18C0,1.754,8.042,0,11.5,0
		c4.023,0,8.255,2.479,8.487,6.639C21.112,7.09,24,8.805,24,14.5c0,0.176-0.094,0.341-0.246,0.431C23.677,14.976,23.589,15,23.5,15
		c-0.085,0-0.169-0.022-0.243-0.063c-1.741-0.961-3.709-1.469-5.688-1.469c-0.284,0-0.571,0.01-0.857,0.031
		C16.24,16.126,16,19.49,16,23.5C16,23.776,15.776,24,15.5,24z M17.566,12.468c1.89,0,3.708,0.405,5.411,1.204
		C22.7,8.837,20.013,7.695,19.47,7.513c-0.217,0.07-1.074,0.475-1.882,2.625c-0.005,0.015-0.01,0.03-0.016,0.044
		c-0.246,0.661-0.467,1.435-0.658,2.302C17.132,12.473,17.35,12.468,17.566,12.468z M7.935,5c-0.116,1.046-0.28,4.227,1.808,5.384
		c0.561,0.311,1.257,0.469,2.069,0.469c1.291,0,2.898-0.395,4.778-1.175C16.499,8.578,16.011,5,13.5,5c-1.654,0-3,1.346-3,3
		c-0.001,0.426,0.088,0.837,0.264,1.224c0.055,0.121,0.06,0.257,0.013,0.382c-0.047,0.125-0.14,0.224-0.261,0.28
		c-0.066,0.03-0.135,0.045-0.207,0.045c-0.195,0-0.374-0.115-0.455-0.293C9.618,9.12,9.499,8.568,9.5,7.999
		c0-1.154,0.507-2.246,1.362-2.999H7.935z"/>
	<circle cx="13.5" cy="7.5" r="0.75"/>
</g>
</svg>
