<?xml version="1.0" encoding="utf-8"?>
<!-- Generator: Adobe Illustrator 22.1.0, SVG Export Plug-In . SVG Version: 6.00 Build 0)  -->
<svg version="1.1" id="Layer_1" xmlns="http://www.w3.org/2000/svg" xmlns:xlink="http://www.w3.org/1999/xlink" x="0px" y="0px"
	 viewBox="0 0 24 24" style="enable-background:new 0 0 24 24;" xml:space="preserve">
<g>
	<title>sea-transport-ship-cargo</title>
	<path d="M3.36,19.249c-0.112,0-0.222-0.038-0.31-0.108c-1.794-1.421-2.895-3.546-3.021-5.831c-0.017-0.263,0.071-0.519,0.247-0.72
		c0.177-0.201,0.421-0.321,0.687-0.338c0.021-0.001,0.043-0.002,0.065-0.002h4.983v-5c0-0.551,0.449-1,1-1h1v-3c0-0.551,0.449-1,1-1
		h4c0.552,0,1,0.449,1,1v4.682c0.235,0.421,0.393,0.871,0.461,1.318h7.039c0.276,0,0.5,0.224,0.5,0.5s-0.224,0.5-0.5,0.5h-0.5v4.005
		h1.977c0.272,0,0.515,0.1,0.706,0.29c0.19,0.188,0.295,0.439,0.296,0.706c0,0.033-0.001,0.064-0.004,0.096
		c-0.126,1.382-0.679,2.663-1.599,3.703c-0.094,0.107-0.231,0.168-0.374,0.168c-0.122,0-0.24-0.044-0.331-0.125
		c-0.207-0.183-0.226-0.5-0.043-0.706c0.306-0.346,0.565-0.725,0.773-1.132H2.564c0.328,0.409,0.699,0.778,1.106,1.101
		c0.216,0.171,0.253,0.486,0.082,0.703C3.656,19.18,3.513,19.249,3.36,19.249z M22.802,16.256c0.094-0.332,0.157-0.668,0.188-1
		c0,0,0,0,0,0c-0.001,0-0.003-0.005-0.003-0.005L9.011,15.256c-0.276,0-0.5-0.224-0.5-0.5c0-1.31-1.253-1.505-2-1.505H1.037
		c-0.01,0.001-0.014,0.003-0.014,0.003c0.061,1.047,0.36,2.082,0.868,3.002H22.802z M20.011,14.256v-2.005h-1.447
		c-0.014,0.003-0.032,0.005-0.053,0.005c-0.016,0-0.037-0.003-0.057-0.006l-2.943,0.001c-0.276,0-0.5-0.224-0.5-0.5v-1.5h-1
		c-0.276,0-0.5-0.224-0.5-0.5c0-1.125-0.923-2.5-2-2.5h-4.5v1h3.5c0.276,0,0.5,0.224,0.5,0.5v2c0,0.276-0.224,0.5-0.5,0.5h-3.5
		v1.026c1.354,0.141,2.251,0.865,2.456,1.979H20.011z M20.011,11.251v-1h-1v1H20.011z M18.011,11.251v-1h-2v1H18.011z
		 M10.011,10.251v-1h-3v1H10.011z M11.511,6.251c0.521,0,1.039,0.183,1.5,0.524V5.251h-4v1H11.511z M13.011,4.251v-1h-4l0,1H13.011z
		"/>
	<path d="M14.245,22.002c-0.584,0-1.157-0.165-1.659-0.477c-0.213-0.132-0.409-0.29-0.585-0.47C11.41,21.659,10.603,22,9.745,22
		c-0.587,0-1.16-0.164-1.659-0.475c-0.213-0.132-0.409-0.29-0.585-0.469c-0.417,0.428-0.943,0.725-1.536,0.863
		c-0.237,0.055-0.479,0.083-0.72,0.083c-0.584,0-1.158-0.165-1.659-0.477c-0.213-0.132-0.409-0.289-0.584-0.469
		c-0.588,0.604-1.392,0.944-2.248,0.944c-0.106,0-0.211,0-0.325-0.017c-0.132-0.019-0.249-0.089-0.328-0.196
		c-0.08-0.107-0.113-0.239-0.094-0.371c0.036-0.244,0.247-0.429,0.491-0.429c0.027,0,0.054,0.002,0.081,0.007
		c0.028,0.004,0.063,0.004,0.101,0.004l0.084,0.002c0.737,0,1.419-0.379,1.813-1.014C2.667,19.839,2.826,19.751,3,19.751
		c0.174,0,0.333,0.088,0.425,0.236c0.173,0.279,0.412,0.517,0.689,0.69c0.341,0.212,0.732,0.324,1.132,0.324
		c0.751,0,1.435-0.379,1.829-1.014c0.089-0.143,0.248-0.228,0.425-0.228s0.336,0.085,0.424,0.228
		c0.173,0.279,0.412,0.517,0.689,0.69c0.342,0.213,0.733,0.326,1.131,0.326c0.164,0,0.33-0.019,0.493-0.057
		c0.559-0.13,1.035-0.471,1.338-0.958c0.089-0.143,0.248-0.228,0.425-0.228s0.336,0.085,0.425,0.228
		c0.173,0.279,0.411,0.517,0.69,0.69c0.342,0.213,0.733,0.326,1.131,0.326c0.165,0,0.33-0.019,0.492-0.057
		c0.559-0.13,1.035-0.471,1.338-0.958c0.088-0.143,0.247-0.228,0.424-0.228c0.177,0,0.336,0.085,0.425,0.228
		c0.174,0.279,0.412,0.517,0.69,0.69c0.342,0.213,0.733,0.326,1.131,0.326c0.165,0,0.33-0.019,0.492-0.057
		c0.559-0.13,1.035-0.471,1.338-0.958c0.091-0.147,0.25-0.236,0.424-0.236c0.174,0,0.333,0.088,0.425,0.236
		c0.394,0.635,1.075,1.014,1.822,1.014c0.018-0.001,0.05-0.002,0.082-0.003c0.041-0.001,0.081-0.002,0.121-0.006
		c0.008-0.001,0.039-0.002,0.047-0.002c0.26,0,0.475,0.194,0.5,0.451c0.027,0.275-0.175,0.52-0.449,0.546
		c-0.083,0.008-0.167,0.016-0.251,0.016c0,0-0.063-0.001-0.064-0.001c-0.845,0-1.647-0.341-2.234-0.943
		c-0.417,0.427-0.942,0.723-1.535,0.861c-0.237,0.055-0.479,0.083-0.72,0.083c-0.584,0-1.157-0.165-1.658-0.477
		c-0.213-0.132-0.409-0.29-0.585-0.469c-0.417,0.428-0.943,0.725-1.537,0.863C14.727,21.974,14.485,22.002,14.245,22.002z"/>
</g>
</svg>
