<?xml version="1.0" encoding="utf-8"?>
<!-- Generator: Adobe Illustrator 22.1.0, SVG Export Plug-In . SVG Version: 6.00 Build 0)  -->
<svg version="1.1" id="Layer_1" xmlns="http://www.w3.org/2000/svg" xmlns:xlink="http://www.w3.org/1999/xlink" x="0px" y="0px"
	 viewBox="0 0 24 24" style="enable-background:new 0 0 24 24;" xml:space="preserve">
<g>
	<title>sea-transport-wheel-boat</title>
	<path d="M11.99,13.973c-1.103,0-2-0.897-2-2c0-1.103,0.897-2,2-2s2,0.897,2,2C13.99,13.076,13.093,13.973,11.99,13.973z
		 M11.99,10.973c-0.551,0-1,0.449-1,1s0.449,1,1,1c0.552,0,1-0.448,1-1S12.542,10.973,11.99,10.973z"/>
	<path d="M11.99,23.51c-0.276,0-0.5-0.224-0.5-0.5v-2.054c-2.031-0.113-3.96-0.91-5.482-2.267l-1.451,1.45
		c-0.094,0.094-0.22,0.146-0.354,0.146s-0.259-0.052-0.354-0.146c-0.195-0.195-0.195-0.512,0-0.707L5.3,17.983
		c-1.369-1.522-2.176-3.456-2.292-5.493H0.99c-0.276,0-0.5-0.224-0.5-0.5c0-0.276,0.224-0.5,0.5-0.5h2.016
		c0.109-2.036,0.907-3.972,2.268-5.498L3.85,4.568c-0.195-0.195-0.195-0.512,0-0.707c0.094-0.094,0.22-0.146,0.354-0.146
		s0.259,0.052,0.354,0.146l1.422,1.422C7.506,3.91,9.446,3.103,11.49,2.99v-2c0-0.276,0.224-0.5,0.5-0.5c0.276,0,0.5,0.224,0.5,0.5
		v2c2.044,0.113,3.984,0.92,5.51,2.293l1.421-1.421c0.094-0.094,0.22-0.146,0.354-0.146s0.259,0.052,0.354,0.146
		s0.146,0.22,0.146,0.354s-0.052,0.259-0.146,0.354l-1.423,1.423c1.361,1.526,2.16,3.462,2.269,5.499h2.036
		c0.276,0,0.5,0.224,0.5,0.5c0,0.276-0.224,0.5-0.5,0.5h-2.038c-0.116,2.038-0.924,3.971-2.292,5.494l1.448,1.449
		c0.094,0.094,0.146,0.22,0.146,0.354s-0.052,0.259-0.146,0.354s-0.22,0.146-0.354,0.146s-0.259-0.052-0.354-0.146l-1.45-1.45
		c-1.522,1.357-3.451,2.155-5.481,2.267v2.054C12.49,23.286,12.266,23.51,11.99,23.51z M12.49,19.955
		c1.764-0.11,3.442-0.803,4.773-1.974l-2.839-2.84c-0.565,0.436-1.226,0.708-1.934,0.796V19.955z M6.716,17.981
		c1.332,1.17,3.009,1.864,4.774,1.974v-4.017c-0.708-0.088-1.369-0.36-1.934-0.796L6.716,17.981z M17.972,17.276
		c1.182-1.332,1.885-3.014,1.999-4.786h-4.018c-0.092,0.714-0.372,1.38-0.818,1.947L17.972,17.276z M4.009,12.49
		c0.114,1.771,0.817,3.453,1.999,4.785l2.838-2.838c-0.447-0.567-0.727-1.233-0.818-1.947H4.009z M11.99,8.973c-1.654,0-3,1.346-3,3
		s1.346,3,3,3c1.654,0,3-1.346,3-3S13.644,8.973,11.99,8.973z M19.973,11.49c-0.107-1.771-0.801-3.455-1.975-4.791l-2.84,2.839
		c0.44,0.57,0.712,1.237,0.798,1.951H19.973z M8.024,11.49c0.086-0.714,0.358-1.381,0.798-1.951L5.982,6.7
		c-1.174,1.336-1.868,3.02-1.975,4.79H8.024z M9.525,8.829c0.572-0.451,1.243-0.731,1.965-0.821V3.991
		c-1.778,0.111-3.466,0.814-4.803,2L9.525,8.829z M12.49,8.009c0.721,0.09,1.392,0.37,1.964,0.82l2.838-2.838
		c-1.337-1.186-3.024-1.889-4.802-2V8.009z"/>
</g>
</svg>
