<?xml version="1.0" encoding="utf-8"?>
<!-- Generator: Adobe Illustrator 22.1.0, SVG Export Plug-In . SVG Version: 6.00 Build 0)  -->
<svg version="1.1" id="Layer_1" xmlns="http://www.w3.org/2000/svg" xmlns:xlink="http://www.w3.org/1999/xlink" x="0px" y="0px"
	 viewBox="0 0 24 24" style="enable-background:new 0 0 24 24;" xml:space="preserve">
<g>
	<title>sea-transport-buoy</title>
	<path d="M22.81,22.546c-1.696,0-3.093-1.135-3.769-1.806c-0.878,1.05-2.148,1.671-3.529,1.714c-1.362-0.005-2.651-0.613-3.516-1.64
		c-0.865,1.027-2.15,1.635-3.498,1.641c-1.396-0.043-2.671-0.665-3.549-1.717c-0.677,0.664-2.074,1.789-3.769,1.789
		c-0.265,0-0.53-0.028-0.789-0.083c-0.27-0.058-0.442-0.324-0.385-0.593c0.049-0.229,0.255-0.396,0.49-0.396
		c0.034,0,0.068,0.003,0.101,0.01c0.188,0.04,0.38,0.06,0.572,0.06c1.871,0,3.423-1.867,3.438-1.886
		c0.095-0.117,0.237-0.184,0.389-0.184c0.004,0,0.022,0,0.026,0c0.162,0.01,0.309,0.096,0.395,0.232
		c0.674,1.067,1.831,1.728,3.093,1.767c1.239-0.006,2.413-0.679,3.055-1.756c0.09-0.151,0.255-0.244,0.43-0.244
		c0.176,0,0.34,0.094,0.43,0.245c0.641,1.077,1.818,1.75,3.072,1.755c1.248-0.039,2.401-0.7,3.076-1.767
		c0.086-0.136,0.233-0.223,0.394-0.232c0.005,0,0.023-0.001,0.027-0.001c0.153,0,0.296,0.068,0.391,0.186
		c0.016,0.019,1.567,1.903,3.437,1.903c0.19,0,0.379-0.02,0.562-0.059c0.034-0.007,0.069-0.011,0.104-0.011
		c0.234,0,0.44,0.166,0.489,0.396c0.057,0.27-0.115,0.536-0.385,0.594C23.336,22.518,23.073,22.546,22.81,22.546z"/>
	<path d="M1.191,16.548c-0.265,0-0.531-0.028-0.789-0.084c-0.13-0.028-0.242-0.105-0.315-0.217
		c-0.073-0.112-0.097-0.246-0.069-0.377c0.049-0.229,0.254-0.395,0.488-0.395c0.036,0,0.071,0.004,0.106,0.011
		c0.184,0.039,0.374,0.06,0.565,0.059c1.865,0,3.418-1.885,3.433-1.904C4.705,13.524,4.847,13.455,5,13.455c0.004,0,0.021,0,0.026,0
		c0.159,0.008,0.306,0.093,0.394,0.226c0.434,0.666,1.044,1.195,1.765,1.53c0.25,0.117,0.359,0.415,0.243,0.665
		c-0.082,0.176-0.26,0.289-0.454,0.289c-0.073,0-0.144-0.016-0.21-0.047c-0.693-0.322-1.312-0.796-1.803-1.381
		C4.284,15.409,2.888,16.548,1.191,16.548L1.191,16.548z"/>
	<path d="M22.804,16.508c-1.62,0-2.789-1.061-3.358-1.719c-0.866,1.016-2.106,1.637-3.448,1.718c-0.005,0-0.025,0.001-0.03,0.001
		c-0.264,0-0.483-0.207-0.499-0.47c-0.008-0.133,0.036-0.261,0.125-0.361s0.211-0.159,0.344-0.167
		c1.256-0.075,2.407-0.756,3.079-1.82c0.092-0.146,0.25-0.233,0.423-0.233c0.173,0,0.332,0.088,0.424,0.234
		c0.011,0.017,1.178,1.815,2.963,1.815c0.188,0,0.38-0.02,0.57-0.06c0.033-0.007,0.069-0.011,0.103-0.011
		c0.235,0,0.44,0.167,0.488,0.398c0.027,0.13,0.002,0.264-0.071,0.376c-0.073,0.112-0.186,0.188-0.316,0.216
		C23.336,16.479,23.068,16.508,22.804,16.508z"/>
	<path d="M11.497,18.455c-1.379,0-2.5-1.122-2.5-2.5c0-1.199,0.845-2.215,2-2.449V1.958c0-0.276,0.224-0.5,0.5-0.5
		s0.5,0.224,0.5,0.5v1.499h4.499c0.276,0,0.5,0.224,0.5,0.5s-0.224,0.5-0.5,0.5h-4.499v2h4.499c0.276,0,0.5,0.224,0.5,0.5
		s-0.224,0.5-0.5,0.5h-4.499v1.999h4.499c0.276,0,0.5,0.224,0.5,0.5s-0.224,0.5-0.5,0.5h-4.499v3.05c1.155,0.234,2,1.25,2,2.449
		C13.997,17.334,12.876,18.455,11.497,18.455z M11.497,14.455c-0.827,0-1.5,0.673-1.5,1.5s0.673,1.5,1.5,1.5s1.5-0.673,1.5-1.5
		S12.324,14.455,11.497,14.455z"/>
</g>
</svg>
