<?xml version="1.0" encoding="utf-8"?>
<!-- Generator: Adobe Illustrator 22.1.0, SVG Export Plug-In . SVG Version: 6.00 Build 0)  -->
<svg version="1.1" id="Layer_1" xmlns="http://www.w3.org/2000/svg" xmlns:xlink="http://www.w3.org/1999/xlink" x="0px" y="0px"
	 viewBox="0 0 24 24" style="enable-background:new 0 0 24 24;" xml:space="preserve">
<g>
	<title>sea-transport-kayak</title>
	<path d="M9.621,15.092c-0.133,0-0.259-0.052-0.353-0.146l-2.12-2.121c-0.195-0.195-0.195-0.512,0-0.707l2.12-2.121
		c0.381-0.368,0.875-0.569,1.395-0.569c0.359,0,0.704,0.094,1.009,0.275L15.8,5.417l-0.653-0.653C15.052,4.669,15,4.544,15,4.41
		s0.052-0.259,0.146-0.354S15.367,3.91,15.5,3.91s0.259,0.052,0.354,0.146l2,2c0.195,0.195,0.195,0.512,0,0.707
		C17.759,6.858,17.634,6.91,17.5,6.91s-0.259-0.052-0.354-0.146l-0.64-0.64l-4.126,4.284c0.46,0.769,0.356,1.753-0.279,2.41
		l-2.127,2.127C9.88,15.04,9.755,15.092,9.621,15.092z M9.621,13.885l1.766-1.766c0.378-0.393,0.367-1.027-0.029-1.41
		c-0.189-0.182-0.435-0.283-0.695-0.283s-0.506,0.1-0.695,0.283l-1.76,1.761L9.621,13.885z"/>
	<path d="M18.746,17.086c-0.584,0-1.158-0.165-1.659-0.477c-0.213-0.133-0.409-0.29-0.585-0.469
		c-0.59,0.604-1.396,0.945-2.255,0.945c-0.587,0-1.161-0.164-1.66-0.475c-0.213-0.133-0.409-0.29-0.585-0.47
		c-0.59,0.604-1.397,0.945-2.255,0.945c-0.587,0-1.16-0.164-1.659-0.475c-0.213-0.133-0.409-0.29-0.585-0.47
		c-0.59,0.604-1.397,0.945-2.255,0.945c-0.586,0-1.16-0.164-1.659-0.475c-0.213-0.133-0.409-0.29-0.584-0.469
		c-0.588,0.604-1.392,0.945-2.249,0.945c-0.095,0-0.206,0-0.324-0.017C0.297,17.049,0.18,16.979,0.1,16.872
		c-0.08-0.107-0.113-0.239-0.094-0.371c0.036-0.244,0.247-0.428,0.491-0.428c0.026,0,0.053,0.002,0.08,0.006
		c0.027,0.004,0.061,0.004,0.097,0.004c0.029,0,0.059,0.001,0.09,0.002c0.334,0,0.662-0.079,0.96-0.231
		c-0.937-0.809-1.532-1.914-1.687-3.149c-0.166-1.325,0.193-2.635,1.013-3.69c0.82-1.055,2.001-1.727,3.326-1.893
		c0.035-0.005,0.072-0.008,0.11-0.008c0.005,0,0.03,0.001,0.035,0.001c0.538,0.004,0.984,0.456,0.98,1.007v1.465
		c0,0.276,0.224,0.5,0.5,0.5h1c0.276,0,0.5,0.224,0.5,0.5s-0.224,0.5-0.5,0.5h-1c-0.827,0-1.5-0.673-1.5-1.5V8.118
		c-1.06,0.129-2.005,0.667-2.661,1.511c-0.656,0.844-0.943,1.892-0.81,2.952c0.128,1.024,0.658,1.963,1.463,2.612
		c0.031-0.041,0.058-0.081,0.083-0.122c0.092-0.148,0.251-0.236,0.425-0.236c0.174,0,0.333,0.088,0.425,0.236
		c0.173,0.278,0.412,0.517,0.69,0.69c0.342,0.213,0.733,0.325,1.131,0.325c0.165,0,0.33-0.019,0.493-0.057
		c0.559-0.13,1.035-0.471,1.338-0.958c0.092-0.148,0.251-0.236,0.425-0.236s0.332,0.088,0.424,0.236
		c0.173,0.278,0.412,0.517,0.69,0.69c0.342,0.213,0.733,0.325,1.131,0.325c0.165,0,0.33-0.019,0.493-0.057
		c0.559-0.13,1.035-0.471,1.338-0.958c0.092-0.148,0.251-0.236,0.425-0.236s0.333,0.088,0.425,0.236
		c0.173,0.278,0.411,0.517,0.69,0.69c0.342,0.213,0.733,0.325,1.131,0.325c0.165,0,0.33-0.019,0.493-0.057
		c0.559-0.13,1.035-0.471,1.338-0.958c0.091-0.147,0.25-0.236,0.424-0.236c0.174,0,0.333,0.088,0.425,0.236
		c0.173,0.278,0.411,0.517,0.69,0.69c0.34,0.212,0.732,0.324,1.132,0.324c0.751,0,1.435-0.379,1.83-1.014
		c0.091-0.147,0.25-0.236,0.424-0.236c0.174,0,0.333,0.088,0.425,0.236c0.026,0.041,0.054,0.082,0.085,0.125
		c0.713-0.573,1.207-1.369,1.4-2.264c0.226-1.044,0.031-2.114-0.548-3.012c-0.642-0.997-1.686-1.654-2.863-1.802l0,1.469
		c0,0.827-0.673,1.5-1.5,1.5h-3.5c-0.276,0-0.5-0.224-0.5-0.5s0.224-0.5,0.5-0.5h3.5c0.276,0,0.5-0.224,0.5-0.5V8.122
		c0-0.04,0.002-0.086,0.008-0.131c0.062-0.497,0.489-0.872,0.992-0.872c0.041,0,0.082,0.002,0.123,0.007
		c1.472,0.185,2.776,1.006,3.58,2.252c0.724,1.122,0.967,2.46,0.685,3.765c-0.228,1.056-0.794,2.008-1.608,2.713
		c0.297,0.151,0.627,0.229,0.968,0.229l0.045-0.001c0.054-0.001,0.105-0.003,0.158-0.008c0.008-0.001,0.039-0.002,0.047-0.002
		c0.26,0,0.475,0.194,0.5,0.451c0.027,0.275-0.175,0.52-0.449,0.546c-0.052,0.005-0.108,0.007-0.162,0.008
		c-0.04,0.001-0.079,0.002-0.116,0.005c-0.001,0-0.003,0-0.004,0c-0.821,0-1.581-0.3-2.162-0.844
		c-0.037-0.035-0.071-0.068-0.103-0.1c-0.417,0.428-0.943,0.725-1.537,0.863C19.229,17.058,18.986,17.086,18.746,17.086z"/>
	<path d="M18.746,20.103c-0.584,0-1.158-0.165-1.659-0.477c-0.213-0.133-0.409-0.29-0.585-0.469
		c-0.59,0.604-1.396,0.945-2.255,0.945c-0.587,0-1.161-0.164-1.66-0.475c-0.213-0.133-0.409-0.29-0.585-0.469
		c-0.417,0.428-0.943,0.725-1.537,0.863c-0.237,0.055-0.479,0.083-0.72,0.083c-0.584,0-1.158-0.165-1.659-0.477
		c-0.213-0.133-0.409-0.29-0.585-0.469c-0.417,0.428-0.943,0.725-1.537,0.863c-0.237,0.055-0.479,0.083-0.72,0.083
		c-0.584,0-1.158-0.165-1.659-0.477c-0.213-0.133-0.409-0.29-0.585-0.469c-0.588,0.603-1.392,0.944-2.248,0.944l-0.063,0.001
		c-0.095,0-0.179-0.006-0.263-0.018C0.297,20.065,0.18,19.995,0.1,19.888c-0.08-0.107-0.113-0.239-0.094-0.371
		c0.036-0.244,0.247-0.428,0.492-0.428c0.026,0,0.052,0.002,0.079,0.006c0.033,0.005,0.071,0.008,0.114,0.008
		c0.016,0,0.033,0,0.05-0.001c0.759,0,1.441-0.379,1.835-1.013c0.089-0.143,0.248-0.228,0.425-0.228s0.336,0.085,0.424,0.228
		c0.173,0.278,0.411,0.517,0.689,0.689c0.342,0.213,0.734,0.325,1.132,0.325c0.164,0,0.33-0.019,0.492-0.057
		c0.559-0.13,1.034-0.47,1.338-0.958c0.092-0.148,0.251-0.236,0.425-0.236s0.333,0.088,0.424,0.236
		c0.173,0.278,0.411,0.517,0.689,0.689c0.341,0.212,0.733,0.324,1.133,0.324c0.751,0,1.434-0.379,1.829-1.014
		c0.092-0.148,0.251-0.236,0.425-0.236s0.333,0.088,0.425,0.236c0.173,0.278,0.411,0.517,0.689,0.69
		c0.341,0.212,0.733,0.324,1.133,0.324c0.75,0,1.434-0.379,1.829-1.014c0.091-0.147,0.25-0.236,0.424-0.236
		c0.174,0,0.333,0.088,0.425,0.236c0.173,0.278,0.411,0.517,0.689,0.69c0.341,0.212,0.733,0.324,1.133,0.324
		c0.75,0,1.434-0.379,1.829-1.014c0.091-0.147,0.25-0.236,0.424-0.236c0.174,0,0.333,0.088,0.425,0.236
		c0.394,0.635,1.07,1.014,1.807,1.014c0.086,0,0.154-0.003,0.22-0.01c0.013-0.002,0.033-0.003,0.054-0.003
		c0.256,0,0.467,0.195,0.491,0.454c0.013,0.133-0.027,0.263-0.112,0.366c-0.085,0.103-0.205,0.167-0.338,0.179
		c-0.083,0.008-0.171,0.011-0.257,0.013l-0.036,0.001c-0.863,0-1.667-0.341-2.255-0.943c-0.417,0.427-0.942,0.723-1.535,0.861
		C19.229,20.075,18.986,20.103,18.746,20.103z"/>
</g>
</svg>
