<?xml version="1.0" encoding="utf-8"?>
<!-- Generator: Adobe Illustrator 22.1.0, SVG Export Plug-In . SVG Version: 6.00 Build 0)  -->
<svg version="1.1" id="Layer_1" xmlns="http://www.w3.org/2000/svg" xmlns:xlink="http://www.w3.org/1999/xlink" x="0px" y="0px"
	 viewBox="0 0 24 24" style="enable-background:new 0 0 24 24;" xml:space="preserve">
<g>
	<title>sea-transport-buoy-1</title>
	<path d="M14.177,19.896c-0.054,0-0.107-0.009-0.158-0.026c-0.262-0.089-0.404-0.373-0.316-0.634l0.312-0.927
		c0.44-1.306-0.265-2.726-1.571-3.167l-1.895-0.638c-0.258-0.086-0.525-0.13-0.795-0.13c-1.076,0-2.029,0.684-2.372,1.701
		l-1.027,3.049c-0.069,0.204-0.259,0.34-0.474,0.34l0,0c-0.054,0-0.108-0.009-0.16-0.026c-0.126-0.042-0.229-0.132-0.288-0.251
		c-0.059-0.12-0.068-0.255-0.026-0.382l1.027-3.049c0.48-1.425,1.814-2.383,3.318-2.383c0.379,0,0.754,0.062,1.115,0.184l0.475,0.16
		l3.831-11.373c0.053-0.157,0.18-0.278,0.34-0.322c0.043-0.012,0.088-0.018,0.134-0.018c0.118,0,0.233,0.042,0.324,0.119
		l4.101,3.492c0.156,0.133,0.215,0.345,0.149,0.54c-0.065,0.194-0.24,0.328-0.446,0.339l-5.039,0.28l-0.211,0.626l2.843,0.958
		c0.522,0.176,0.804,0.744,0.628,1.266l-0.319,0.948c-0.138,0.407-0.519,0.681-0.949,0.681c-0.108,0-0.215-0.018-0.318-0.052
		l-2.844-0.958l-1.277,3.791l0.472,0.159c1.828,0.616,2.815,2.605,2.199,4.433l-0.312,0.927
		C14.582,19.759,14.392,19.896,14.177,19.896z M16.731,10.255l0.318-0.948l-2.842-0.958l-0.319,0.948L16.731,10.255z M15.081,5.754
		l3.392-0.189l-2.586-2.203L15.081,5.754z"/>
	<path d="M23.247,22c-0.858-0.002-1.662-0.345-2.248-0.95c-0.416,0.427-0.94,0.722-1.531,0.861
		c-0.238,0.056-0.481,0.084-0.723,0.084c-0.583,0-1.155-0.164-1.655-0.474c-0.215-0.133-0.412-0.292-0.589-0.472
		c-0.415,0.428-0.939,0.724-1.53,0.863c-0.239,0.056-0.484,0.085-0.727,0.085c-0.58,0-1.151-0.163-1.65-0.472
		c-0.217-0.134-0.416-0.294-0.594-0.477c-0.417,0.428-0.943,0.724-1.536,0.862c-0.237,0.055-0.479,0.083-0.72,0.083
		c-0.584,0-1.158-0.165-1.659-0.477c-0.213-0.133-0.409-0.29-0.586-0.47c-0.59,0.603-1.396,0.944-2.255,0.944
		c-0.587,0-1.162-0.165-1.662-0.476c-0.212-0.132-0.407-0.288-0.582-0.467C2.414,21.648,1.593,22,0.752,22
		c-0.276,0-0.5-0.224-0.5-0.5s0.224-0.5,0.5-0.5c0.738,0,1.436-0.391,1.822-1.02c0.09-0.146,0.253-0.238,0.424-0.238
		c0.175,0,0.334,0.088,0.426,0.235c0.173,0.278,0.411,0.516,0.688,0.688c0.341,0.212,0.733,0.325,1.134,0.325
		c0.75,0,1.434-0.379,1.829-1.013c0.092-0.147,0.25-0.236,0.424-0.236s0.332,0.088,0.424,0.236c0.173,0.278,0.412,0.517,0.69,0.69
		c0.34,0.212,0.732,0.324,1.132,0.324c0.751,0,1.435-0.379,1.83-1.014c0.092-0.148,0.251-0.236,0.425-0.236
		c0.174,0,0.333,0.088,0.425,0.237c0.174,0.281,0.415,0.522,0.696,0.696c0.341,0.211,0.729,0.322,1.125,0.322
		c0.166,0,0.333-0.02,0.496-0.058c0.558-0.131,1.031-0.472,1.333-0.96c0.092-0.148,0.251-0.237,0.425-0.237
		c0.174,0,0.333,0.088,0.425,0.236c0.173,0.28,0.413,0.519,0.693,0.693c0.341,0.212,0.731,0.324,1.128,0.324
		c0.165,0,0.332-0.019,0.494-0.057c0.558-0.131,1.033-0.471,1.335-0.959c0.092-0.148,0.251-0.236,0.425-0.236
		c0.175,0,0.334,0.089,0.426,0.238c0.393,0.637,1.075,1.019,1.824,1.021c0.275,0.001,0.499,0.226,0.499,0.501
		C23.747,21.776,23.523,22,23.247,22L23.247,22z"/>
</g>
</svg>
