<?xml version="1.0" encoding="utf-8"?>
<!-- Generator: Adobe Illustrator 22.1.0, SVG Export Plug-In . SVG Version: 6.00 Build 0)  -->
<svg version="1.1" id="Layer_1" xmlns="http://www.w3.org/2000/svg" xmlns:xlink="http://www.w3.org/1999/xlink" x="0px" y="0px"
	 viewBox="0 0 24 24" style="enable-background:new 0 0 24 24;" xml:space="preserve">
<g>
	<title>sea-transport-bark</title>
	<path d="M14.934,21.973c-0.093,0-0.184-0.026-0.263-0.075c-0.234-0.145-0.307-0.454-0.162-0.688l2.725-4.4L11.5,15.042l-5.73,1.763
		l2.754,4.39c0.071,0.113,0.094,0.247,0.064,0.377c-0.03,0.13-0.109,0.241-0.222,0.312c-0.079,0.05-0.171,0.077-0.265,0.077l0,0
		c-0.173,0-0.332-0.088-0.424-0.235l-2.754-4.39c-0.047-0.076-0.084-0.156-0.109-0.24c-0.161-0.526,0.136-1.086,0.663-1.248
		L11,14.15v-1.128c-2.879-0.032-5.772-0.335-8.604-0.901c-0.265-0.055-0.49-0.209-0.637-0.433c-0.146-0.224-0.197-0.491-0.141-0.752
		l1.759-7.917H2c-0.276,0-0.5-0.224-0.5-0.5s0.224-0.5,0.5-0.5h9V0.501c0-0.276,0.224-0.5,0.5-0.5s0.5,0.224,0.5,0.5v1.518h9
		c0.276,0,0.5,0.224,0.5,0.5s-0.224,0.5-0.5,0.5h-1.376l1.758,7.909c0.123,0.535-0.214,1.071-0.751,1.195
		c-2.849,0.567-5.749,0.869-8.63,0.9v1.128l5.529,1.704c0.081,0.025,0.159,0.061,0.232,0.106c0.227,0.14,0.385,0.361,0.447,0.621
		c0.061,0.26,0.017,0.529-0.124,0.756l-2.724,4.4C15.267,21.885,15.108,21.973,14.934,21.973z M11.5,12.019
		c0.016,0,0.043,0.004,0.066,0.008c2.952-0.003,5.93-0.3,8.85-0.881l-1.817-8.126H4.401l-1.804,8.12
		c2.914,0.584,5.887,0.882,8.835,0.887C11.446,12.024,11.47,12.019,11.5,12.019z"/>
	<path d="M1.184,24.002c-0.265,0-0.53-0.028-0.788-0.083c-0.27-0.058-0.442-0.324-0.385-0.593C0.06,23.097,0.265,22.93,0.5,22.93
		c0.034,0,0.069,0.004,0.102,0.01c0.187,0.04,0.378,0.06,0.57,0.06c0,0,0,0,0,0c1.865,0,3.425-1.868,3.44-1.887
		c0.094-0.116,0.236-0.183,0.389-0.183c0.005,0,0.022,0,0.027,0.001c0.16,0.009,0.307,0.095,0.393,0.231
		c0.675,1.06,1.829,1.713,3.085,1.747c1.239-0.003,2.417-0.669,3.066-1.738c0.09-0.149,0.254-0.241,0.427-0.241
		c0.176,0,0.339,0.094,0.429,0.243c0.643,1.07,1.817,1.735,3.065,1.736c1.248-0.036,2.404-0.69,3.086-1.75
		c0.086-0.134,0.233-0.22,0.393-0.229c0.005,0,0.025-0.001,0.03-0.001c0.148,0,0.292,0.069,0.386,0.185
		c0.015,0.018,1.574,1.886,3.44,1.885c0.192,0,0.383-0.02,0.568-0.059c0.035-0.008,0.07-0.011,0.105-0.011
		c0.234,0,0.44,0.166,0.489,0.396c0.057,0.27-0.115,0.536-0.385,0.593c-0.258,0.055-0.523,0.083-0.789,0.083
		c-1.698,0-3.096-1.127-3.772-1.792c-0.883,1.044-2.156,1.659-3.536,1.699c-1.356-0.001-2.643-0.604-3.509-1.626
		c-0.871,1.021-2.158,1.623-3.504,1.626c-1.389-0.038-2.661-0.653-3.539-1.698C4.278,22.876,2.881,24.002,1.184,24.002z"/>
</g>
</svg>
