<?xml version="1.0" encoding="utf-8"?>
<!-- Generator: Adobe Illustrator 22.1.0, SVG Export Plug-In . SVG Version: 6.00 Build 0)  -->
<svg version="1.1" id="Layer_1" xmlns="http://www.w3.org/2000/svg" xmlns:xlink="http://www.w3.org/1999/xlink" x="0px" y="0px"
	 viewBox="0 0 24 24" style="enable-background:new 0 0 24 24;" xml:space="preserve">
<g>
	<title>wedding-bride-groom</title>
	<path d="M5.771,10.5c-1.93,0-3.5-1.57-3.5-3.5c0-1.444,0.911-2.759,2.267-3.272l0.033-0.012c0.106-0.039,0.208-0.071,0.313-0.098
		l0.09-0.023c0.088-0.021,0.177-0.037,0.268-0.051c0.043-0.009,0.064-0.013,0.086-0.016c0.006-0.001,0.032-0.003,0.038-0.003
		c0.044-0.005,0.082-0.007,0.121-0.01L5.52,3.512c0.072-0.005,0.146-0.01,0.218-0.011L5.771,3.5c0.018,0,0.036,0.001,0.053,0.002
		C5.927,3.505,6.014,3.509,6.1,3.517l0.059,0.007c0.11,0.013,0.2,0.026,0.288,0.044l0.057,0.012c0.104,0.023,0.189,0.045,0.274,0.07
		l0.063,0.02c0.098,0.032,0.175,0.06,0.25,0.091C7.121,3.773,7.151,3.786,7.18,3.799c0.081,0.036,0.145,0.067,0.208,0.1
		c0.044,0.023,0.088,0.048,0.132,0.074c0.05,0.029,0.099,0.058,0.147,0.089C7.723,4.099,7.777,4.136,7.83,4.175
		c0,0,0.055,0.037,0.071,0.05C7.905,4.228,7.927,4.247,7.931,4.25c0.064,0.051,0.123,0.102,0.18,0.153c0,0,0.058,0.052,0.076,0.069
		c0.062,0.059,0.122,0.122,0.18,0.186l0.047,0.052C8.482,4.79,8.546,4.872,8.607,4.957C9.043,5.563,9.271,6.267,9.271,7
		C9.271,8.93,7.701,10.5,5.771,10.5z M3.369,6.309C3.304,6.533,3.271,6.765,3.271,7c0,1.379,1.121,2.5,2.5,2.5
		c1.28,0,2.339-0.967,2.483-2.209C7.767,7.43,7.271,7.5,6.776,7.5C5.535,7.5,4.34,7.079,3.369,6.309z M6.8,6.501
		C7.25,6.5,7.71,6.427,8.155,6.282C8.072,5.996,7.94,5.731,7.76,5.492C7.719,5.437,7.676,5.386,7.631,5.336L7.602,5.304
		C7.564,5.262,7.523,5.222,7.481,5.182l-0.05-0.046C7.392,5.102,7.354,5.069,7.313,5.037C7.293,5.021,7.271,5.005,7.25,4.989
		C7.204,4.955,7.163,4.927,7.121,4.9C7.09,4.879,7.056,4.859,7.022,4.839C6.989,4.82,6.956,4.801,6.923,4.784
		C6.88,4.761,6.834,4.74,6.789,4.719C6.763,4.708,6.738,4.696,6.713,4.686C6.66,4.664,6.605,4.644,6.55,4.626l-0.06-0.02
		C6.431,4.589,6.37,4.573,6.308,4.56L6.254,4.548C6.192,4.536,6.129,4.526,6.065,4.519l-0.06-0.007
		c-0.06-0.006-0.121-0.008-0.182-0.009L5.754,4.501c-0.059,0-0.11,0.004-0.162,0.008c0,0-0.082,0.005-0.106,0.008
		C5.464,4.52,5.441,4.524,5.419,4.528L5.384,4.533c-0.055,0.009-0.11,0.018-0.164,0.03L5.154,4.58
		c-0.067,0.017-0.134,0.036-0.2,0.059L4.845,4.414l0.086,0.235c-0.422,0.154-0.8,0.423-1.082,0.767
		C4.653,6.105,5.701,6.497,6.759,6.5c0.004,0,0.008,0,0.012,0C6.78,6.5,6.791,6.5,6.8,6.501z"/>
	<path d="M4.229,23c-0.255,0-0.469-0.191-0.497-0.445L3.281,18.5H1.729c-0.276,0-0.5-0.224-0.5-0.5v-2.5c0-2.481,2.019-4.5,4.5-4.5
		c0.004,0,0.014,0,0.023,0.001C5.758,11,5.765,11,5.771,11c0.012,0,0.026,0.001,0.04,0.003c2.433,0.039,4.418,2.054,4.418,4.497V18
		c0,0.276-0.224,0.5-0.5,0.5H8.177l-0.451,4.055C7.698,22.809,7.484,23,7.229,23H4.229z M6.781,22l0.451-4.055
		C7.26,17.691,7.474,17.5,7.729,17.5h1.5v-2c0-1.723-1.279-3.191-2.958-3.454V16c0,0.276-0.224,0.5-0.5,0.5s-0.5-0.224-0.5-0.5
		v-3.965c-1.726,0.226-3.042,1.7-3.042,3.465v2h1.5c0.255,0,0.469,0.191,0.497,0.445L4.677,22H6.781z"/>
	<path d="M16.771,23c-0.23,0-0.429-0.156-0.485-0.379L15.381,19h-2.11c-0.155,0-0.299-0.07-0.394-0.193
		c-0.095-0.122-0.128-0.278-0.091-0.429l0.97-3.878c-0.819-0.01-1.481-0.679-1.481-1.5V6c0-3.033,2.467-5.5,5.5-5.5
		s5.5,2.467,5.5,5.5v7c0,0.823-0.667,1.494-1.489,1.5l0.97,3.879c0.038,0.15,0.005,0.307-0.091,0.429
		C22.57,18.93,22.426,19,22.271,19h-2.11l-0.906,3.621C19.2,22.844,19.001,23,18.771,23H16.771z M18.381,22l0.906-3.621
		C19.342,18.156,19.541,18,19.771,18h1.859c0,0-1.239-4.955-1.24-4.959c-0.115-0.458-0.345-0.872-0.672-1.21l-1.524,2.435
		c-0.092,0.147-0.25,0.235-0.424,0.235c-0.174,0-0.332-0.088-0.424-0.235l-1.524-2.434c-0.329,0.34-0.559,0.755-0.673,1.214
		c0,0-0.277,1.109-0.279,1.114L13.912,18h1.859c0.23,0,0.429,0.156,0.485,0.379L17.161,22H18.381z M21.775,13.5
		c0.276,0,0.5-0.224,0.5-0.5V6c0-2.481-2.019-4.5-4.5-4.5s-4.5,2.019-4.5,4.5v7c0,0.276,0.224,0.5,0.5,0.5h0.231l0.174-0.696
		c0.331-1.334,1.365-2.369,2.701-2.7c0.29-0.072,0.588-0.109,0.885-0.109c0.744,0,1.466,0.224,2.088,0.648
		c0.006,0.003,0.011,0.006,0.016,0.01c0.009,0.006,0.019,0.013,0.027,0.02c0.73,0.511,1.251,1.269,1.465,2.131l0.174,0.696H21.775z
		 M17.771,13.058l1.133-1.81c-0.357-0.166-0.745-0.252-1.136-0.252c-0.217,0-0.435,0.027-0.647,0.079
		c-0.165,0.041-0.327,0.099-0.485,0.172L17.771,13.058z"/>
	<path d="M17.771,9.5c-1.93,0-3.5-1.57-3.5-3.5s1.57-3.5,3.5-3.5s3.5,1.57,3.5,3.5S19.701,9.5,17.771,9.5z M15.456,6.937
		C15.834,7.87,16.749,8.5,17.771,8.5c1.023,0,1.937-0.63,2.315-1.563c-0.864-0.135-1.67-0.518-2.315-1.103
		C17.126,6.418,16.32,6.802,15.456,6.937z M17.771,4.62c0.145,0,0.283,0.063,0.378,0.173c0.539,0.624,1.302,1.038,2.121,1.159
		c-0.026-1.356-1.137-2.452-2.5-2.452s-2.474,1.095-2.5,2.452c0.82-0.122,1.582-0.535,2.121-1.159
		C17.488,4.683,17.626,4.62,17.771,4.62z"/>
</g>
</svg>
