<?xml version="1.0" encoding="utf-8"?>
<!-- Generator: Adobe Illustrator 22.1.0, SVG Export Plug-In . SVG Version: 6.00 Build 0)  -->
<svg version="1.1" id="Layer_1" xmlns="http://www.w3.org/2000/svg" xmlns:xlink="http://www.w3.org/1999/xlink" x="0px" y="0px"
	 viewBox="0 0 24 24" style="enable-background:new 0 0 24 24;" xml:space="preserve">
<g>
	<title>wedding-cake-heart</title>
	<path d="M12,24c-0.209,0-0.41-0.064-0.58-0.185l-9.526-6.765C0.708,16.206,0,14.835,0,13.38V8.699c0-0.037,0.007-0.068,0.012-0.087
		c0.045-0.648,0.279-1.266,0.697-1.837c1.086-1.48,3.232-2.399,5.601-2.399c1.001,0,1.963,0.163,2.859,0.485
		c0.259,0.094,0.395,0.38,0.302,0.64C9.399,5.698,9.21,5.831,9,5.831c-0.057,0-0.114-0.01-0.168-0.029
		C8.07,5.528,7.208,5.384,6.338,5.384c-2.046,0-3.939,0.778-4.823,1.982C1.092,7.945,0.926,8.583,1.034,9.213
		c0.129,0.743,0.642,1.453,1.447,2L12,17.973l9.512-6.766c0.812-0.554,1.328-1.269,1.456-2.016c0.108-0.63-0.059-1.268-0.483-1.846
		c-0.88-1.199-2.767-1.974-4.807-1.974c-0.875,0-1.742,0.146-2.508,0.422c-0.054,0.02-0.111,0.03-0.169,0.03
		c-0.21,0-0.4-0.133-0.471-0.331c-0.045-0.125-0.039-0.261,0.018-0.382c0.057-0.121,0.157-0.212,0.283-0.258
		c0.902-0.325,1.869-0.49,2.875-0.49c2.363,0,4.503,0.916,5.585,2.391c0.434,0.593,0.671,1.232,0.705,1.901
		C23.999,8.67,24,8.686,24,8.699v4.678c0,1.455-0.708,2.826-1.895,3.669l-9.526,6.769C12.41,23.936,12.209,24,12,24z M1,13.38
		c0,1.132,0.551,2.198,1.474,2.853L12,22.999l9.527-6.769C22.449,15.575,23,14.509,23,13.377v-2.144
		c-0.261,0.291-0.568,0.557-0.916,0.795l-9.504,6.76c-0.17,0.121-0.371,0.185-0.58,0.185c-0.209,0-0.41-0.064-0.58-0.185
		l-9.51-6.755c-0.345-0.234-0.65-0.498-0.91-0.788V13.38z"/>
	<path d="M12,4.999c-1.103,0-2-0.897-2-2c0-0.041,0.005-0.082,0.015-0.122c0.223-0.887,0.613-1.709,1.16-2.442
		c0.162-0.263,0.482-0.437,0.823-0.437c0.189,0,0.373,0.053,0.532,0.152c0.127,0.079,0.237,0.189,0.318,0.317
		c0.528,0.705,0.914,1.521,1.137,2.409C13.995,2.916,14,2.957,14,2.999C14,4.102,13.103,4.999,12,4.999z M11.002,3.056
		c0.03,0.523,0.471,0.943,0.998,0.943c0.527,0,0.969-0.42,0.999-0.943c-0.193-0.734-0.521-1.414-0.975-2.023
		C12.009,1.012,12.002,1.003,12,0.999C11.527,1.636,11.195,2.323,11.002,3.056z"/>
	<path d="M12,12.999c-0.827,0-1.5-0.673-1.5-1.5v-5.5c0-0.551,0.449-1,1-1h1c0.552,0,1,0.449,1,1v5.5
		C13.5,12.326,12.827,12.999,12,12.999z M11.5,11.499c0,0.276,0.224,0.5,0.5,0.5c0.276,0,0.5-0.224,0.5-0.5v-5.5h-1L11.5,11.499z"/>
</g>
</svg>
