<?xml version="1.0" encoding="utf-8"?>
<!-- Generator: Adobe Illustrator 22.1.0, SVG Export Plug-In . SVG Version: 6.00 Build 0)  -->
<svg version="1.1" id="Layer_1" xmlns="http://www.w3.org/2000/svg" xmlns:xlink="http://www.w3.org/1999/xlink" x="0px" y="0px"
	 viewBox="0 0 24 24" style="enable-background:new 0 0 24 24;" xml:space="preserve">
<g>
	<title>wedding-car-heart-balloon</title>
	<path d="M14.118,24.003c-0.711,0-1.374-0.388-1.729-1H5.597c-0.356,0.612-1.018,1-1.729,1s-1.374-0.388-1.729-1H1.047
		c-0.496,0-0.92-0.365-0.994-0.848c-0.162-1.222,0.058-2.184,0.655-2.865c0.547-0.625,1.371-0.97,2.451-1.028l0.321-0.754
		c1.171-2.737,3.846-4.505,6.817-4.505l0.137,0.001c3.472,0.14,6.366,2.729,6.885,6.156c0.2,1.201,0.379,2.279,0.473,2.843h0.104
		l1.551-1.768c1.331-1.521,1.253-3.83-0.177-5.258c-1.133-1.132-1.633-2.747-1.339-4.32l0.177-0.945
		c-1.04-0.814-4.798-3.932-4.798-6.467c0-1.931,1.302-3.017,2.512-3.209c0.132-0.021,0.269-0.031,0.405-0.031
		c0.485,0,1.626,0.146,2.429,1.402c0.803-1.256,1.944-1.401,2.429-1.401c0.136,0,0.273,0.01,0.405,0.031
		c1.21,0.192,2.512,1.278,2.512,3.209c0,2.605-3.91,5.783-4.89,6.538l-0.198,1.058c-0.234,1.249,0.163,2.53,1.062,3.429
		c1.802,1.798,1.899,4.708,0.223,6.624l-1.7,1.938c-0.095,0.108-0.232,0.17-0.376,0.17h-2.275
		C15.491,23.616,14.829,24.003,14.118,24.003z M14.118,21.003c-0.552,0-1,0.448-1,1s0.448,1,1,1s1-0.448,1-1
		S14.669,21.003,14.118,21.003z M3.868,21.003c-0.551,0-1,0.448-1,1s0.449,1,1,1s1-0.448,1-1S4.419,21.003,3.868,21.003z
		 M10.287,14.003c-2.563,0-4.874,1.53-5.887,3.898l-0.447,1.048c-0.079,0.185-0.259,0.304-0.46,0.304
		c-0.944,0-1.628,0.234-2.033,0.696c-0.398,0.455-0.538,1.149-0.417,2.064l0.825-0.008c0-0.001,0-0.002,0-0.002c0-1.103,0.897-2,2-2
		s2,0.897,2,2h6.25c0-1.103,0.897-2,2-2s2,0.897,2,2h0.66c-0.099-0.596-0.263-1.588-0.447-2.686
		c-0.449-2.96-2.942-5.193-5.927-5.313L10.287,14.003z M16.24,1.004c-0.088,0-0.176,0.007-0.263,0.021
		c-0.803,0.127-1.668,0.877-1.668,2.222c0,1.774,2.759,4.387,4.346,5.628c1.587-1.241,4.346-3.854,4.346-5.628
		c0-1.345-0.865-2.094-1.668-2.222c-0.087-0.014-0.176-0.021-0.264-0.021c-0.413,0-1.428,0.169-1.938,1.736
		c-0.068,0.207-0.259,0.345-0.476,0.345s-0.408-0.139-0.475-0.345C17.669,1.173,16.653,1.004,16.24,1.004z"/>
	<path d="M6.26,19.003c-0.155,0-0.299-0.07-0.395-0.193c-0.096-0.123-0.128-0.28-0.09-0.43c0.405-1.594,1.646-2.835,3.24-3.24
		C9.38,15.047,9.754,15,10.126,15c0.799,0,1.589,0.219,2.283,0.632c1.029,0.612,1.757,1.588,2.052,2.748
		c0.038,0.15,0.006,0.307-0.09,0.43c-0.096,0.123-0.24,0.193-0.395,0.193H6.26z M13.271,18.003c-0.293-0.63-0.762-1.149-1.373-1.512
		c-0.54-0.321-1.153-0.491-1.773-0.491c-0.289,0-0.58,0.037-0.864,0.109c-1.019,0.259-1.855,0.955-2.294,1.894H13.271z"/>
</g>
</svg>
