<?xml version="1.0" encoding="utf-8"?>
<!-- Generator: Adobe Illustrator 22.1.0, SVG Export Plug-In . SVG Version: 6.00 Build 0)  -->
<svg version="1.1" id="Layer_1" xmlns="http://www.w3.org/2000/svg" xmlns:xlink="http://www.w3.org/1999/xlink" x="0px" y="0px"
	 viewBox="0 0 24 24" style="enable-background:new 0 0 24 24;" xml:space="preserve">
<g>
	<title>wedding-car</title>
	<path d="M11.987,17.431c-0.165,0-0.328-0.042-0.474-0.121c-0.93-0.507-3.967-2.35-4.025-4.771c0-1.468,0.659-2.556,1.765-2.918
		c0.244-0.08,0.498-0.12,0.755-0.12c0.708,0,1.42,0.312,1.987,0.863c0.579-0.545,1.295-0.853,1.999-0.853
		c0.264,0,0.524,0.043,0.771,0.126c1.079,0.366,1.723,1.446,1.723,2.89c-0.061,2.437-3.097,4.277-4.026,4.783
		C12.317,17.389,12.152,17.431,11.987,17.431z M10.006,10.502c-0.151,0-0.3,0.024-0.442,0.07c-0.674,0.22-1.076,0.951-1.076,1.955
		c0.045,1.875,2.693,3.463,3.503,3.905c0.803-0.442,3.45-2.029,3.497-3.917c0-0.999-0.381-1.705-1.044-1.93
		c-0.144-0.049-0.295-0.073-0.45-0.073c-0.571,0-1.173,0.34-1.61,0.91c-0.086,0.113-0.225,0.184-0.381,0.195
		c-0.177-0.001-0.326-0.078-0.419-0.204C11.167,10.842,10.577,10.502,10.006,10.502z"/>
	<path d="M19.988,21.5c-1.103,0-2-0.897-2-2h-12c0,1.103-0.897,2-2,2s-2-0.897-2-2H1.5C0.673,19.5,0,18.827,0,18v-4.276
		c0-0.584,0.206-1.152,0.58-1.6l1.968-2.363l1.557-5.447C4.41,3.246,5.399,2.5,6.509,2.5h10.982c1.111,0,2.099,0.746,2.404,1.814
		l1.557,5.447l1.968,2.363c0.374,0.448,0.58,1.016,0.58,1.6V18c0,0.827-0.673,1.5-1.5,1.5h-0.512
		C21.988,20.603,21.091,21.5,19.988,21.5z M18.988,19.5c0,0.552,0.448,1,1,1s1-0.448,1-1H18.988z M2.988,19.5c0,0.552,0.449,1,1,1
		s1-0.448,1-1H2.988z M1,18c0,0.276,0.224,0.5,0.5,0.5h21c0.276,0,0.5-0.224,0.5-0.5v-1.5h-4.5c-0.276,0-0.5-0.224-0.5-0.5
		s0.224-0.5,0.5-0.5H23v-1.776c0-0.35-0.124-0.691-0.348-0.96L20.766,10.5H17.5c-0.276,0-0.5-0.224-0.5-0.5s0.224-0.5,0.5-0.5h2.837
		l-1.404-4.911C18.75,3.948,18.157,3.5,17.491,3.5H6.509c-0.666,0-1.259,0.448-1.442,1.088L3.663,9.5H6.5C6.776,9.5,7,9.724,7,10
		s-0.224,0.5-0.5,0.5H3.234l-1.886,2.264C1.124,13.033,1,13.374,1,13.725V15.5h4.5C5.776,15.5,6,15.724,6,16s-0.224,0.5-0.5,0.5H1
		V18z"/>
</g>
</svg>
