<?xml version="1.0" encoding="utf-8"?>
<!-- Generator: Adobe Illustrator 22.1.0, SVG Export Plug-In . SVG Version: 6.00 Build 0)  -->
<svg version="1.1" id="Light" xmlns="http://www.w3.org/2000/svg" xmlns:xlink="http://www.w3.org/1999/xlink" x="0px" y="0px"
	 viewBox="0 0 24 24" style="enable-background:new 0 0 24 24;" xml:space="preserve">
<g>
	<title>walking-forbidden</title>
	<path d="M12,24C5.383,24,0,18.617,0,12c0-3.036,1.142-5.934,3.217-8.164c0.01-0.018,0.027-0.042,0.052-0.067
		C3.279,3.758,3.299,3.742,3.317,3.73C5.609,1.324,8.691,0,12,0c6.617,0,12,5.383,12,12c0,3.308-1.324,6.39-3.728,8.681
		c-0.008,0.012-0.021,0.031-0.041,0.05c-0.025,0.025-0.049,0.041-0.067,0.052C17.935,22.858,15.036,24,12,24z M3.646,4.853
		C1.938,6.847,1,9.375,1,12c0,6.065,4.935,11,11,11c2.625,0,5.153-0.938,7.147-2.646L3.646,4.853z M19.876,19.669
		C21.892,17.601,23,14.887,23,12c0-6.065-4.935-11-11-11C9.113,1,6.399,2.108,4.331,4.124L19.876,19.669z"/>
	<path d="M12,7c-1.379,0-2.5-1.121-2.5-2.5S10.621,2,12,2c1.378,0,2.5,1.121,2.5,2.5S13.378,7,12,7z M12,3
		c-0.827,0-1.5,0.673-1.5,1.5S11.173,6,12,6s1.5-0.673,1.5-1.5S12.827,3,12,3z"/>
	<path d="M15.025,21.478c-0.4-0.022-0.768-0.198-1.035-0.496l-1.625-1.91c-0.499-0.588-0.841-1.298-0.989-2.055l-0.133-0.685
		l-0.437,0.51c-0.178,0.208-0.296,0.46-0.34,0.729l-0.363,2.176c-0.001,0.012-0.007,0.044-0.013,0.076
		c-0.077,0.391-0.303,0.731-0.636,0.954c-0.248,0.166-0.536,0.254-0.833,0.254c-0.098,0-0.196-0.01-0.293-0.029
		c-0.812-0.16-1.341-0.951-1.181-1.762l0.359-2.161c0.136-0.809,0.49-1.566,1.024-2.189l1.59-1.855
		c0.095-0.111,0.233-0.175,0.38-0.175c0.119,0,0.234,0.042,0.325,0.12c0.102,0.087,0.164,0.209,0.174,0.342
		c0.01,0.133-0.032,0.262-0.119,0.364l-1.59,1.855c-0.415,0.485-0.691,1.074-0.797,1.704l-0.362,2.175
		C8.076,19.7,8.252,19.967,8.522,20.02c0.033,0.007,0.066,0.01,0.099,0.01c0.098,0,0.194-0.029,0.277-0.085
		c0.111-0.074,0.186-0.188,0.212-0.318l0.37-2.221c0.075-0.449,0.271-0.869,0.568-1.215l1.11-1.295
		c0.095-0.111,0.233-0.175,0.379-0.175c0.043,0,0.086,0.006,0.128,0.017c0.185,0.049,0.327,0.201,0.363,0.388l0.33,1.7
		c0.115,0.588,0.381,1.141,0.77,1.599l1.616,1.9c0.082,0.091,0.203,0.148,0.336,0.155l0.027,0.001c0.125,0,0.241-0.044,0.334-0.128
		c0.197-0.177,0.222-0.478,0.056-0.685l-1.607-1.889c-0.211-0.248-0.369-0.531-0.471-0.841c-0.086-0.262,0.057-0.545,0.319-0.631
		c0.051-0.017,0.104-0.025,0.156-0.025c0.216,0,0.407,0.138,0.475,0.344c0.061,0.186,0.156,0.357,0.283,0.506l1.615,1.899
		c0.506,0.629,0.434,1.535-0.159,2.066c-0.276,0.247-0.631,0.384-1,0.384C15.081,21.48,15.053,21.479,15.025,21.478z"/>
	<path d="M6.474,13.505c-0.739,0-1.361-0.529-1.48-1.258c-0.064-0.395,0.029-0.792,0.263-1.117c0.234-0.326,0.581-0.54,0.976-0.605
		l0.71-0.136c0.132-0.025,0.265-0.058,0.394-0.099c0.049-0.015,0.099-0.023,0.15-0.023c0.22,0,0.411,0.141,0.477,0.351
		c0.04,0.127,0.028,0.262-0.034,0.381c-0.062,0.118-0.166,0.206-0.294,0.245c-0.164,0.051-0.334,0.094-0.505,0.127l-0.723,0.138
		c-0.282,0.046-0.471,0.304-0.426,0.576c0.04,0.243,0.246,0.42,0.49,0.42c0.027,0,0.055-0.002,0.083-0.007l0.764-0.145
		c0.512-0.098,1.006-0.27,1.468-0.513c0.072-0.037,0.152-0.057,0.232-0.057c0.186,0,0.356,0.103,0.443,0.268
		c0.128,0.244,0.034,0.547-0.211,0.675c-0.549,0.288-1.136,0.493-1.745,0.609c0,0-0.759,0.144-0.787,0.149
		C6.636,13.498,6.554,13.505,6.474,13.505z"/>
	<path d="M16.499,15.001c-0.596,0-1.135-0.354-1.374-0.9l-0.381-0.869c-0.227-0.517-0.579-0.978-1.02-1.331l-0.537-0.429
		c-0.104-0.083-0.17-0.202-0.185-0.335c-0.015-0.133,0.023-0.263,0.106-0.368c0.095-0.119,0.238-0.188,0.391-0.188
		c0.113,0,0.223,0.039,0.312,0.109l0.538,0.43c0.567,0.454,1.02,1.045,1.311,1.71l0.381,0.87c0.081,0.186,0.255,0.301,0.455,0.301
		c0.074,0,0.139-0.014,0.201-0.041c0.124-0.054,0.218-0.152,0.267-0.277c0.049-0.125,0.046-0.26-0.007-0.382l-0.381-0.87
		c-0.356-0.813-0.911-1.536-1.603-2.092L13.71,9.33C13.445,9.117,13.112,9,12.773,9h-1.748c-0.276,0-0.5-0.224-0.5-0.5
		s0.224-0.5,0.5-0.5h1.749c0.565,0,1.119,0.195,1.561,0.549l1.263,1.01c0.818,0.656,1.473,1.511,1.894,2.471l0.381,0.87
		c0.161,0.367,0.169,0.775,0.023,1.148c-0.146,0.373-0.428,0.667-0.795,0.828c-0.189,0.083-0.39,0.126-0.597,0.126H16.499z"/>
</g>
</svg>
