<?xml version="1.0" encoding="utf-8"?>
<!-- Generator: Adobe Illustrator 22.1.0, SVG Export Plug-In . SVG Version: 6.00 Build 0)  -->
<svg version="1.1" id="Light" xmlns="http://www.w3.org/2000/svg" xmlns:xlink="http://www.w3.org/1999/xlink" x="0px" y="0px"
	 viewBox="0 0 24 24" style="enable-background:new 0 0 24 24;" xml:space="preserve">
<g>
	<title>walking-cross-street</title>
	<path d="M12.5,6c-1.654,0-3-1.346-3-3s1.346-3,3-3c1.654,0,3,1.346,3,3S14.154,6,12.5,6z M12.5,1c-1.103,0-2,0.897-2,2s0.897,2,2,2
		s2-0.897,2-2S13.603,1,12.5,1z"/>
	<path d="M1,24c-0.036,0-0.072-0.004-0.107-0.011c-0.132-0.029-0.243-0.107-0.315-0.22c-0.072-0.113-0.095-0.247-0.066-0.377l1-4.5
		C1.563,18.661,1.764,18.5,2,18.5c0.036,0,0.072,0.004,0.107,0.011c0.271,0.06,0.441,0.328,0.381,0.597l-1,4.5
		C1.438,23.835,1.232,24,1,24z"/>
	<path d="M4,24c-0.036,0-0.072-0.004-0.107-0.011c-0.132-0.029-0.243-0.107-0.315-0.22c-0.072-0.113-0.095-0.247-0.066-0.377l1-4.5
		C4.562,18.665,4.768,18.5,5,18.5c0.036,0,0.072,0.004,0.107,0.011c0.27,0.06,0.441,0.328,0.381,0.597l-1,4.5
		C4.438,23.835,4.232,24,4,24z"/>
	<path d="M23,24c-0.232,0-0.438-0.165-0.488-0.392l-1-4.5c-0.059-0.269,0.111-0.537,0.38-0.596c0.037-0.008,0.072-0.012,0.107-0.012
		c0.233,0,0.439,0.165,0.49,0.392l1,4.5c0.059,0.269-0.111,0.537-0.38,0.596C23.071,23.996,23.035,24,23,24z"/>
	<path d="M20,24c-0.232,0-0.438-0.165-0.488-0.392l-1-4.5c-0.059-0.269,0.111-0.537,0.38-0.596c0.037-0.008,0.072-0.012,0.107-0.012
		c0.237,0,0.438,0.161,0.489,0.391l1,4.5c0.059,0.269-0.111,0.537-0.38,0.596C20.071,23.996,20.035,24,20,24z"/>
	<path d="M8.489,24.046c-0.163,0-0.326-0.02-0.486-0.06c-1.07-0.268-1.722-1.356-1.454-2.426l2.189-10.14l-2.133,2.336
		C6.227,14.16,5.693,14.39,5.137,14.39c-0.493,0-0.965-0.179-1.328-0.503c-0.823-0.734-0.895-2.001-0.161-2.824l2.304-2.524
		c1.187-1.294,2.878-2.035,4.639-2.035c0.182,0,0.365,0.008,0.546,0.024c0.201,0.018,0.4,0.046,0.591,0.083
		c0.012,0.001,0.043,0.007,0.076,0.014c1.684,0.344,3.166,1.365,4.079,2.805c0.359,0.619,1.014,0.998,1.714,0.998
		c0.129,0,0.258-0.013,0.385-0.038c0.155-0.046,0.338-0.073,0.521-0.073c0.88,0,1.667,0.593,1.915,1.443
		c0.306,1.062-0.303,2.167-1.357,2.471c-0.482,0.124-0.973,0.186-1.465,0.186c0,0,0,0,0,0c-1.941,0-3.771-0.955-4.872-2.517
		l-0.49,2.271l1.269,0.952c1.507,1.136,2.508,2.86,2.746,4.731l0.236,1.896c0.066,0.529-0.078,1.053-0.406,1.476
		c-0.328,0.422-0.801,0.691-1.33,0.757c-0.084,0.01-0.168,0.016-0.252,0.016c-0.446,0-0.87-0.146-1.224-0.422
		c-0.422-0.328-0.69-0.801-0.757-1.331L12.28,20.35c-0.092-0.715-0.443-1.381-0.977-1.862l-0.849,3.931
		c-0.004,0.025-0.014,0.07-0.025,0.113C10.206,23.423,9.408,24.045,8.489,24.046C8.489,24.046,8.489,24.046,8.489,24.046z
		 M9.509,9.717c0.116,0,0.23,0.041,0.319,0.115c0.144,0.12,0.209,0.308,0.169,0.49L7.523,21.786
		c-0.137,0.547,0.189,1.095,0.723,1.229c0.08,0.02,0.161,0.03,0.243,0.03c0.459,0,0.858-0.312,0.97-0.758
		c0.006-0.022,0.01-0.043,0.014-0.064l1.019-4.722c0.036-0.167,0.153-0.303,0.314-0.363c0.055-0.021,0.115-0.032,0.175-0.032
		c0.107,0,0.213,0.035,0.299,0.099l0.422,0.316c0.861,0.649,1.433,1.634,1.569,2.702l0.236,1.896
		c0.033,0.265,0.168,0.501,0.378,0.666c0.177,0.138,0.389,0.211,0.61,0.211c0.042,0,0.085-0.003,0.127-0.008
		c0.265-0.033,0.501-0.167,0.666-0.379c0.164-0.211,0.236-0.473,0.203-0.738l-0.236-1.895c-0.205-1.604-1.063-3.083-2.355-4.057
		l-1.524-1.144c-0.156-0.117-0.23-0.315-0.189-0.505l0.786-3.641c0.038-0.175,0.167-0.317,0.338-0.371
		c0.05-0.016,0.1-0.023,0.151-0.023c0.126,0,0.246,0.047,0.339,0.133c0.209,0.193,0.391,0.412,0.543,0.653
		c0.889,1.479,2.516,2.396,4.247,2.396c0.407,0,0.812-0.051,1.206-0.152c0.513-0.148,0.813-0.697,0.661-1.22
		c0-0.001-0.001-0.004-0.001-0.005c-0.124-0.424-0.519-0.72-0.961-0.72c-0.094,0-0.188,0.013-0.279,0.04
		c-0.218,0.045-0.42,0.065-0.62,0.065c-1.057,0-2.042-0.566-2.571-1.476c-0.757-1.193-1.997-2.049-3.397-2.339
		c0.001,0,0.001,0,0.001,0c-0.002,0-0.058-0.011-0.072-0.014c-0.181-0.034-0.346-0.057-0.514-0.073
		c-0.151-0.013-0.305-0.02-0.458-0.02c-1.481,0-2.902,0.623-3.899,1.711L4.39,11.733c-0.364,0.408-0.327,1.041,0.084,1.408
		c0.181,0.161,0.417,0.25,0.664,0.25c0.278,0,0.545-0.115,0.732-0.314l2.296-2.516c0.319-0.347,0.716-0.625,1.15-0.806
		C9.378,9.73,9.443,9.717,9.509,9.717z"/>
</g>
</svg>
