<?xml version="1.0" encoding="utf-8"?>
<!-- Generator: Adobe Illustrator 22.1.0, SVG Export Plug-In . SVG Version: 6.00 Build 0)  -->
<svg version="1.1" id="Light" xmlns="http://www.w3.org/2000/svg" xmlns:xlink="http://www.w3.org/1999/xlink" x="0px" y="0px"
	 viewBox="0 0 24 24" style="enable-background:new 0 0 24 24;" xml:space="preserve">
<g>
	<title>walking</title>
	<path d="M11.369,6c-1.654,0-3-1.346-3-3s1.346-3,3-3c1.654,0,3,1.346,3,3S13.023,6,11.369,6z M11.369,1c-1.103,0-2,0.897-2,2
		s0.897,2,2,2s2-0.897,2-2S12.472,1,11.369,1z"/>
	<path d="M16.377,24.011c-0.875,0-1.642-0.56-1.907-1.393c-0.438-1.386-1.141-2.714-2.043-3.865
		c-0.581,1.622-1.419,3.13-2.494,4.487c-0.333,0.419-0.809,0.682-1.34,0.742c-0.077,0.009-0.155,0.013-0.232,0.013
		c-0.453,0-0.881-0.151-1.24-0.436c-0.417-0.332-0.68-0.808-0.741-1.339c-0.06-0.531,0.09-1.054,0.422-1.471
		C7.8,19.601,8.53,18.232,8.92,16.782c0.295-1.33,0.446-2.709,0.446-4.088v-0.855c-0.627,0.558-1.001,1.375-1,2.228
		c-0.007,0.155-0.026,0.288-0.059,0.419c-0.131,0.518-0.456,0.953-0.914,1.227c-0.31,0.185-0.663,0.283-1.021,0.283
		c-0.165,0-0.331-0.021-0.494-0.062c-0.934-0.265-1.55-1.118-1.507-2.076c0.038-2.556,1.491-4.855,3.793-5.995
		c0.861-0.429,1.82-0.657,2.772-0.657c1.343,0,2.626,0.43,3.712,1.244l1.016,0.763c0.432,0.324,0.91,0.574,1.423,0.745l1.098,0.367
		c0.941,0.292,1.542,1.219,1.425,2.204c-0.019,0.128-0.046,0.241-0.083,0.352c-0.169,0.506-0.526,0.917-1.004,1.155
		c-0.281,0.14-0.581,0.211-0.891,0.211l0,0c-0.215,0-0.429-0.035-0.636-0.104l-1.176-0.392c-0.878-0.292-1.702-0.716-2.451-1.26
		v1.309c0.001,0.142,0.065,0.277,0.176,0.37c2.212,1.922,3.844,4.41,4.724,7.198l0.01,0.032c0.336,1.054-0.246,2.182-1.297,2.517
		C16.785,23.979,16.581,24.011,16.377,24.011z M12.229,17.245c0.14,0,0.275,0.06,0.37,0.163c1.276,1.403,2.253,3.099,2.824,4.907
		c0.133,0.416,0.516,0.696,0.954,0.696c0.102,0,0.204-0.016,0.302-0.047c0.254-0.081,0.462-0.256,0.584-0.494
		s0.146-0.508,0.065-0.762l-0.01-0.028c-0.827-2.621-2.356-4.953-4.423-6.749c-0.331-0.277-0.524-0.689-0.527-1.127v-2.311
		c0-0.191,0.106-0.362,0.276-0.447c0.068-0.035,0.146-0.053,0.224-0.053c0.108,0,0.215,0.036,0.301,0.101l0.69,0.517
		c0.69,0.518,1.456,0.92,2.276,1.193l1.176,0.393c0.104,0.035,0.211,0.052,0.318,0.052c0.155,0,0.305-0.036,0.446-0.106
		c0.239-0.119,0.417-0.324,0.502-0.578c0.018-0.055,0.032-0.112,0.04-0.168c0.059-0.494-0.25-0.967-0.737-1.117l-1.111-0.372
		c-0.614-0.204-1.188-0.504-1.706-0.893L14.048,9.25c-0.911-0.683-1.987-1.043-3.113-1.043c-0.799,0-1.603,0.191-2.327,0.552
		c-1.965,0.973-3.206,2.938-3.238,5.129c-0.023,0.505,0.293,0.946,0.767,1.081c0.071,0.018,0.152,0.028,0.232,0.028
		c0.178,0,0.355-0.049,0.511-0.142c0.23-0.137,0.392-0.355,0.457-0.614c0.016-0.065,0.026-0.131,0.029-0.197
		c-0.002-1.432,0.787-2.763,2.059-3.462l0.217-0.109c0.07-0.035,0.147-0.053,0.224-0.053c0.093,0,0.184,0.026,0.263,0.075
		c0.148,0.092,0.237,0.251,0.237,0.425v1.774c0,1.453-0.16,2.908-0.475,4.326c-0.434,1.614-1.235,3.121-2.321,4.368
		c-0.333,0.418-0.258,1.045,0.173,1.389c0.179,0.143,0.393,0.218,0.619,0.218c0.038,0,0.077-0.002,0.116-0.007
		c0.266-0.03,0.504-0.162,0.67-0.371c1.185-1.496,2.06-3.183,2.601-5.014c0.051-0.173,0.192-0.305,0.367-0.346
		C12.152,17.249,12.19,17.245,12.229,17.245z"/>
</g>
</svg>
