<?xml version="1.0" encoding="utf-8"?>
<!-- Generator: Adobe Illustrator 22.1.0, SVG Export Plug-In . SVG Version: 6.00 Build 0)  -->
<svg version="1.1" id="Layer_1" xmlns="http://www.w3.org/2000/svg" xmlns:xlink="http://www.w3.org/1999/xlink" x="0px" y="0px"
	 viewBox="0 0 24 24" style="enable-background:new 0 0 24 24;" xml:space="preserve">
<g>
	<title>house-fire-1</title>
	<path d="M5.356,23.649c-0.551,0-1-0.448-1-1v-4.5c0-0.276,0.224-0.5,0.5-0.5s0.5,0.224,0.5,0.5v4.5h10v-4.5
		c0-0.276,0.224-0.5,0.5-0.5s0.5,0.224,0.5,0.5v4.5c0,0.552-0.448,1-1,1H5.356z"/>
	<path d="M1.856,18.149c-0.123,0-0.242-0.045-0.333-0.127c-0.205-0.184-0.223-0.5-0.039-0.706l8.5-9.5
		c0.092-0.103,0.228-0.163,0.373-0.163s0.28,0.059,0.373,0.163l8.5,9.5c0.184,0.206,0.166,0.522-0.039,0.706
		c-0.092,0.082-0.21,0.127-0.333,0.127c-0.142,0-0.278-0.061-0.373-0.167l-8.128-9.083l-8.127,9.084
		C2.134,18.088,1.998,18.149,1.856,18.149z"/>
	<path d="M9.356,16.649c-0.551,0-1-0.448-1-1v-2c0-0.552,0.449-1,1-1h2c0.551,0,1,0.448,1,1v2c0,0.552-0.448,1-1,1H9.356z
		 M9.356,15.649h2v-2h-2L9.356,15.649z"/>
	<path d="M18.359,14.676c-0.252,0-0.465-0.188-0.496-0.438c-0.034-0.273,0.161-0.524,0.434-0.558
		c2.623-0.327,3.047-2.609,3.08-3.847c-0.233,0.034-0.467,0.051-0.7,0.051c-0.502,0-0.998-0.078-1.474-0.232
		c-0.171-0.055-0.3-0.199-0.336-0.375c-0.036-0.176,0.025-0.359,0.161-0.477c2.496-2.183,2.699-5.248,2.574-6.979
		c-0.428,0.485-1.035,0.799-1.701,0.857c-0.007,0.001-0.037,0.002-0.044,0.002c-0.014,0-0.029,0-0.043-0.002
		c-0.465-0.042-0.917-0.064-1.346-0.064c-3.962,0-5.174,1.81-5.186,1.828c-0.089,0.145-0.252,0.236-0.425,0.236
		c-0.086,0-0.171-0.023-0.247-0.065c-0.236-0.134-0.322-0.426-0.196-0.666c0.372-0.711,0.378-1.547,0.034-2.255
		c-0.373,0.436-0.862,0.768-1.408,0.953C9.333,3.427,8.286,4.424,7.928,5.611C7.483,7.087,8.274,8.403,8.282,8.416
		c0.145,0.233,0.074,0.542-0.16,0.688C8.044,9.154,7.952,9.18,7.858,9.18c-0.174,0-0.332-0.088-0.424-0.235
		c-0.043-0.069-1.043-1.7-0.463-3.623c0.446-1.48,1.684-2.69,3.68-3.597c0.017-0.008,0.035-0.015,0.053-0.021
		c0.454-0.149,0.855-0.449,1.126-0.845c0.078-0.145,0.227-0.269,0.407-0.329c0.077-0.026,0.158-0.039,0.239-0.039
		c0.115,0,0.231,0.027,0.335,0.079c0.119,0.059,0.221,0.15,0.294,0.262c0.385,0.57,0.59,1.238,0.596,1.92
		c0.921-0.573,2.419-1.138,4.747-1.138c0.45,0,0.924,0.021,1.407,0.064c0.543-0.062,1.02-0.408,1.248-0.906
		c0.102-0.198,0.255-0.33,0.449-0.391c0.074-0.023,0.151-0.035,0.228-0.035c0.119,0,0.238,0.029,0.344,0.084
		c0.218,0.113,0.366,0.325,0.398,0.568c0.206,1.469,0.387,5.09-2.141,7.875c0.101,0.008,0.202,0.012,0.303,0.012
		c0.26,0,0.519-0.027,0.772-0.079c0.038-0.013,0.104-0.023,0.172-0.023c0.122,0,0.246,0.031,0.356,0.091
		c0.176,0.095,0.305,0.252,0.363,0.444c0.02,0.067,0.031,0.137,0.032,0.207c0.021,1.087-0.201,4.679-3.957,5.147
		C18.4,14.674,18.379,14.676,18.359,14.676z"/>
</g>
</svg>
