<?xml version="1.0" encoding="utf-8"?>
<!-- Generator: Adobe Illustrator 22.1.0, SVG Export Plug-In . SVG Version: 6.00 Build 0)  -->
<svg version="1.1" id="Layer_1" xmlns="http://www.w3.org/2000/svg" xmlns:xlink="http://www.w3.org/1999/xlink" x="0px" y="0px"
	 viewBox="0 0 24 24" style="enable-background:new 0 0 24 24;" xml:space="preserve">
<g>
	<title>house-modern-1</title>
	<path d="M3.001,23.94c-0.551,0-1-0.448-1-1v-1c0-0.552,0.449-1,1-1v-6.001h-0.5c-0.215,0-0.428-0.071-0.6-0.2
		c-0.441-0.331-0.531-0.959-0.2-1.4l2.25-3c0.188-0.25,0.487-0.4,0.8-0.4h2.25V6.94H6.435c-0.199,0-0.391-0.058-0.556-0.169
		C5.656,6.622,5.505,6.396,5.453,6.134c-0.052-0.262,0.001-0.529,0.15-0.751l1.333-1.999C7.123,3.106,7.434,2.94,7.768,2.94h1.732
		V2.19c0-0.313,0.149-0.612,0.4-0.8l1.5-1.125c0.171-0.128,0.384-0.199,0.6-0.199c0.216,0,0.429,0.071,0.6,0.199l1.5,1.125
		c0.25,0.188,0.4,0.487,0.4,0.8v0.75h1.732c0.335,0,0.646,0.166,0.832,0.444l1.334,2c0.11,0.165,0.168,0.357,0.168,0.556
		c0,0.268-0.105,0.519-0.294,0.707c-0.189,0.188-0.44,0.292-0.706,0.292h-0.566v2.999h2.25c0.313,0,0.612,0.15,0.8,0.4l2.25,3
		c0.129,0.172,0.2,0.385,0.2,0.6c0,0.552-0.448,1-1,1h-0.5v6.001c0.552,0,1,0.448,1,1v1c0,0.552-0.448,1-1,1H3.001z M3.001,22.94h18
		v-1h-18L3.001,22.94z M20.001,20.94v-6.001h-16v3.001h7.5c0.276,0,0.5,0.224,0.5,0.5v2.5h2v-4.5c0-0.276,0.224-0.5,0.5-0.5h4
		c0.276,0,0.5,0.224,0.5,0.5v4.5H20.001z M18.001,20.94v-4h-3v4H18.001z M11.001,20.94v-2h-1v2H11.001z M9.001,20.94v-2h-1v2H9.001z
		 M7.001,20.94v-2h-1v2H7.001z M5.001,20.94v-2h-1v2H5.001z M2.501,13.939h19l-2.25-3h-2.729c-0.007,0.001-0.014,0.001-0.021,0.001
		s-0.014,0-0.021-0.001H7.522c-0.007,0.001-0.015,0.001-0.021,0.001s-0.014,0-0.021-0.001H4.751L2.501,13.939z M16.001,9.939V6.94
		h-8v2.999H16.001z M6.435,5.939L17.567,5.94l-1.334-2.001l-1.732,0v0.5c0,0.276-0.224,0.5-0.5,0.5h-4c-0.276,0-0.5-0.224-0.5-0.5
		v-0.5H7.769C7.768,3.94,6.435,5.939,6.435,5.939z M13.501,3.94V2.19l-1.5-1.125l-1.5,1.125v1.75H13.501z"/>
	<path d="M5.5,16.935c-0.276,0-0.5-0.224-0.5-0.5s0.224-0.5,0.5-0.5h5c0.276,0,0.5,0.224,0.5,0.5s-0.224,0.5-0.5,0.5H5.5z"/>
	<path d="M9.5,8.935c-0.276,0-0.5-0.224-0.5-0.5s0.224-0.5,0.5-0.5h1c0.276,0,0.5,0.224,0.5,0.5s-0.224,0.5-0.5,0.5H9.5z"/>
	<path d="M13.5,8.935c-0.276,0-0.5-0.224-0.5-0.5s0.224-0.5,0.5-0.5h1c0.276,0,0.5,0.224,0.5,0.5s-0.224,0.5-0.5,0.5H13.5z"/>
</g>
</svg>
