<?xml version="1.0" encoding="utf-8"?>
<!-- Generator: Adobe Illustrator 22.1.0, SVG Export Plug-In . SVG Version: 6.00 Build 0)  -->
<svg version="1.1" id="Layer_1" xmlns="http://www.w3.org/2000/svg" xmlns:xlink="http://www.w3.org/1999/xlink" x="0px" y="0px"
	 viewBox="0 0 24 24" style="enable-background:new 0 0 24 24;" xml:space="preserve">
<g>
	<title>house-heart</title>
	<path d="M4.5,23.5C3.673,23.5,3,22.827,3,22v-9c0-0.276,0.224-0.5,0.5-0.5S4,12.724,4,13v9c0,0.276,0.224,0.5,0.5,0.5h15
		c0.276,0,0.5-0.224,0.5-0.5v-8.5c0-0.276,0.224-0.5,0.5-0.5s0.5,0.224,0.5,0.5V22c0,0.827-0.673,1.5-1.5,1.5H4.5z"/>
	<path d="M23.5,13c-0.134,0-0.259-0.052-0.354-0.146L12,1.707L0.854,12.854C0.759,12.948,0.634,13,0.5,13s-0.259-0.052-0.354-0.146
		c-0.195-0.195-0.195-0.512,0-0.707l11.5-11.5C11.741,0.552,11.867,0.5,12,0.5s0.259,0.052,0.354,0.146l11.5,11.5
		c0.195,0.195,0.195,0.512,0,0.707C23.759,12.948,23.634,13,23.5,13z"/>
	<path d="M19.5,6C19.225,6,19,5.776,19,5.5v-3h-3c-0.276,0-0.5-0.224-0.5-0.5s0.224-0.5,0.5-0.5h3c0.552,0,1,0.449,1,1v3
		C20,5.776,19.776,6,19.5,6z"/>
	<path d="M11.998,20.311c-0.207,0-0.406-0.065-0.574-0.189c-0.015-0.011-0.031-0.024-0.047-0.039
		C10.524,19.469,6.5,16.417,6.5,13.61c-0.046-0.869,0.257-1.719,0.854-2.38c0.597-0.661,1.415-1.051,2.302-1.097L9.71,10.13
		c0.879,0.017,1.71,0.394,2.29,1.021c0.579-0.627,1.403-1.004,2.26-1.022c0.908,0.032,1.737,0.408,2.346,1.06
		c0.609,0.652,0.927,1.5,0.896,2.39L17.5,13.627c-0.006,2.863-4.401,6.117-4.902,6.478C12.411,20.244,12.208,20.311,11.998,20.311z
		 M9.711,11.131c-0.623,0.033-1.196,0.306-1.614,0.77c-0.418,0.464-0.63,1.062-0.598,1.683c0.001,1.976,2.938,4.597,4.492,5.709
		c0.004,0.003,0.012,0.009,0.012,0.009c1.555-1.123,4.497-3.758,4.497-5.692c0-0.005,0.003-0.071,0.003-0.071
		c0.045-1.282-0.964-2.364-2.25-2.41c-0.743,0.016-1.444,0.442-1.815,1.112C12.353,12.395,12.185,12.49,12,12.49
		s-0.353-0.095-0.437-0.248c-0.37-0.668-1.071-1.093-1.833-1.112L9.711,11.131z"/>
</g>
</svg>
