<?xml version="1.0" encoding="utf-8"?>
<!-- Generator: Adobe Illustrator 22.1.0, SVG Export Plug-In . SVG Version: 6.00 Build 0)  -->
<svg version="1.1" id="Layer_1" xmlns="http://www.w3.org/2000/svg" xmlns:xlink="http://www.w3.org/1999/xlink" x="0px" y="0px"
	 viewBox="0 0 24 24" style="enable-background:new 0 0 24 24;" xml:space="preserve">
<g>
	<title>house-nature</title>
	<path d="M0.5,24C0.224,24,0,23.776,0,23.5S0.224,23,0.5,23H1v-5.293l-0.146,0.146C0.759,17.948,0.634,18,0.5,18
		s-0.259-0.052-0.354-0.146c-0.195-0.195-0.195-0.512,0-0.707L6.292,11c0.188-0.189,0.439-0.293,0.706-0.293
		c0.268,0,0.519,0.104,0.707,0.292l6.147,6.147c0.195,0.195,0.195,0.512,0,0.707C13.759,17.948,13.634,18,13.5,18
		s-0.259-0.052-0.354-0.146L13,17.707V23h6v-2.005c-2.113-0.13-3.847-1.824-3.999-3.959C15,15.369,17.388,9.612,18.812,6.327
		c0.117-0.275,0.387-0.453,0.688-0.453c0.102,0,0.2,0.02,0.294,0.061c0.178,0.076,0.319,0.216,0.395,0.395
		C21.612,9.613,24,15.366,24,17c0,0.007-0.001,0.031-0.001,0.038c-0.152,2.133-1.885,3.829-3.999,3.96V23h3.5
		c0.276,0,0.5,0.224,0.5,0.5S23.776,24,23.5,24H0.5z M12,23v-6.293l-5-5l-5,5V23h3v-3.5C5,18.673,5.673,18,6.5,18h1
		C8.327,18,9,18.673,9,19.5V23H12z M8,23v-3.5C8,19.224,7.776,19,7.5,19h-1C6.224,19,6,19.224,6,19.5V23H8z M19.5,7.256
		C17.365,12.225,16,16.021,16,17c0.114,1.587,1.41,2.865,3,2.993v-1.286l-1.354-1.354c-0.195-0.195-0.195-0.512,0-0.707
		C17.741,16.552,17.866,16.5,18,16.5s0.259,0.052,0.354,0.146L19,17.293v-3.855c0-0.276,0.224-0.5,0.5-0.5s0.5,0.224,0.5,0.5v6.555
		c1.586-0.128,2.882-1.411,3.001-3.02C22.993,16,21.627,12.208,19.5,7.256z"/>
	<path d="M3.5,7C1.57,7,0,5.43,0,3.5S1.57,0,3.5,0c1.493,0,2.802,0.935,3.294,2.313C7.163,2.11,7.582,2.001,8.006,2.001
		c0.595,0,1.172,0.213,1.624,0.599c1.048,0.896,1.171,2.477,0.275,3.525C9.429,6.681,8.737,7,8.005,7H3.5z M3.5,1
		C2.122,1,1,2.121,1,3.5S2.121,6,3.5,6H8c0.449,0,0.855-0.186,1.145-0.525C9.682,4.846,9.608,3.898,8.98,3.36
		C8.709,3.128,8.363,3.001,8.006,3.001c-0.44,0-0.856,0.191-1.141,0.524C6.77,3.636,6.632,3.7,6.485,3.7
		c-0.051,0-0.101-0.008-0.15-0.023C6.144,3.617,6.007,3.449,5.987,3.25C5.859,1.967,4.789,1,3.5,1z"/>
</g>
</svg>
