<?xml version="1.0" encoding="utf-8"?>
<!-- Generator: Adobe Illustrator 22.1.0, SVG Export Plug-In . SVG Version: 6.00 Build 0)  -->
<svg version="1.1" id="Layer_1" xmlns="http://www.w3.org/2000/svg" xmlns:xlink="http://www.w3.org/1999/xlink" x="0px" y="0px"
	 viewBox="0 0 24 24" style="enable-background:new 0 0 24 24;" xml:space="preserve">
<g>
	<title>house-user</title>
	<path d="M23.5,12.544c-0.134,0-0.259-0.052-0.354-0.146L12.354,1.604C12.259,1.51,12.134,1.458,12,1.458s-0.259,0.052-0.353,0.146
		L0.854,12.398c-0.094,0.094-0.22,0.146-0.354,0.146s-0.259-0.052-0.354-0.146c-0.195-0.195-0.195-0.512,0-0.707L10.94,0.897
		c0.283-0.283,0.66-0.439,1.061-0.439s0.777,0.156,1.06,0.438l10.793,10.793c0.195,0.195,0.195,0.512,0,0.707
		C23.759,12.492,23.634,12.544,23.5,12.544z"/>
	<path d="M19.5,5.544c-0.276,0-0.5-0.224-0.5-0.5v-3h-3c-0.276,0-0.5-0.224-0.5-0.5s0.224-0.5,0.5-0.5h3c0.552,0,1,0.449,1,1v3
		C20,5.32,19.776,5.544,19.5,5.544z"/>
	<path d="M1.5,23.044c-0.276,0-0.5-0.224-0.5-0.5s0.224-0.5,0.5-0.5H3v-9.5c0-0.276,0.224-0.5,0.5-0.5s0.5,0.224,0.5,0.5v9.5h6.442
		l-0.389-3.501H9c-0.276,0-0.5-0.224-0.5-0.5v-2.5c0-1.93,1.57-3.5,3.5-3.5s3.5,1.57,3.5,3.5v2.5c0,0.276-0.224,0.5-0.5,0.5h-1.052
		l-0.389,3.501H20v-9c0-0.276,0.224-0.5,0.5-0.5s0.5,0.224,0.5,0.5v9h1.5c0.276,0,0.5,0.224,0.5,0.5s-0.224,0.5-0.5,0.5H1.5z
		 M12.552,22.043l0.451-4.055c0.028-0.254,0.242-0.445,0.497-0.445h1v-2c0-1.378-1.122-2.5-2.5-2.5c-1.379,0-2.5,1.122-2.5,2.5v2h1
		c0.255,0,0.469,0.191,0.497,0.445l0.451,4.055H12.552z"/>
	<path d="M12,12.044c-1.516,0-2.75-1.234-2.75-2.75s1.234-2.75,2.75-2.75s2.75,1.234,2.75,2.75S13.516,12.044,12,12.044z M12,7.544
		c-0.965,0-1.75,0.785-1.75,1.75s0.785,1.75,1.75,1.75c0.965,0,1.75-0.785,1.75-1.75S12.965,7.544,12,7.544z"/>
</g>
</svg>
