<?xml version="1.0" encoding="utf-8"?>
<!-- Generator: Adobe Illustrator 22.1.0, SVG Export Plug-In . SVG Version: 6.00 Build 0)  -->
<svg version="1.1" id="Layer_1" xmlns="http://www.w3.org/2000/svg" xmlns:xlink="http://www.w3.org/1999/xlink" x="0px" y="0px"
	 viewBox="0 0 24 24" style="enable-background:new 0 0 24 24;" xml:space="preserve">
<g>
	<title>transportation-ticket-car-transfer-bus</title>
	<path d="M22.5,23.75c-0.276,0-0.5-0.224-0.5-0.5v-1h-7v1c0,0.276-0.224,0.5-0.5,0.5s-0.5-0.224-0.5-0.5v-1.086
		c-0.59-0.209-1-0.774-1-1.414v-0.764c0-0.127,0.018-0.259,0.054-0.392c0.001-0.003,0.002-0.007,0.003-0.011
		c0.028-0.1,0.061-0.188,0.102-0.269l0.86-1.721l0.349-2.09c0.121-0.726,0.743-1.253,1.479-1.253h5.306
		c0.736,0,1.358,0.528,1.479,1.254l0.349,2.09l0.86,1.722c0.026,0.052,0.049,0.107,0.071,0.171c0.052,0.081,0.08,0.171,0.08,0.263
		c0,0.021-0.002,0.039-0.005,0.054C23.996,19.87,24,19.929,24,19.986v0.764c0,0.64-0.41,1.205-1,1.414v1.086
		C23,23.526,22.776,23.75,22.5,23.75z M14,20.75c0,0.276,0.224,0.5,0.5,0.5h8c0.276,0,0.5-0.224,0.5-0.5v-0.5h-2
		c-0.276,0-0.5-0.224-0.5-0.5s0.224-0.5,0.5-0.5h1.691l-0.5-1h-7.382l-0.5,1H16c0.276,0,0.5,0.224,0.5,0.5s-0.224,0.5-0.5,0.5h-2
		V20.75z M21.91,17.25l-0.264-1.582c-0.04-0.242-0.248-0.418-0.493-0.418h-5.305c-0.245,0-0.453,0.176-0.493,0.418L15.09,17.25
		H21.91z"/>
	<path d="M8.5,10.25c-0.276,0-0.5-0.224-0.5-0.5v-0.5H4v0.5c0,0.276-0.224,0.5-0.5,0.5S3,10.026,3,9.75V9.164
		C2.41,8.955,2,8.39,2,7.75v-6c0-0.827,0.673-1.5,1.5-1.5h5c0.827,0,1.5,0.673,1.5,1.5v6c0,0.64-0.41,1.205-1,1.414V9.75
		C9,10.026,8.776,10.25,8.5,10.25z M3,7.75c0,0.276,0.224,0.5,0.5,0.5h5c0.276,0,0.5-0.224,0.5-0.5v-2.5H3V7.75z M9,4.25v-2.5
		c0-0.276-0.224-0.5-0.5-0.5h-5C3.224,1.25,3,1.474,3,1.75v2.5H9z"/>
	<circle cx="4" cy="6.75" r="0.75"/>
	<circle cx="8" cy="6.75" r="0.75"/>
	<path d="M0.5,4.25C0.224,4.25,0,4.026,0,3.75v-2c0-0.276,0.224-0.5,0.5-0.5S1,1.474,1,1.75v2C1,4.026,0.776,4.25,0.5,4.25z"/>
	<path d="M11.5,4.25c-0.276,0-0.5-0.224-0.5-0.5v-2c0-0.276,0.224-0.5,0.5-0.5S12,1.474,12,1.75v2C12,4.026,11.776,4.25,11.5,4.25z"
		/>
	<path d="M18.5,12.75c-0.066,0-0.13-0.013-0.191-0.039c-0.062-0.025-0.117-0.062-0.163-0.109l-1.499-1.499
		c-0.195-0.195-0.195-0.512,0-0.707c0.094-0.094,0.22-0.146,0.354-0.146s0.259,0.052,0.354,0.146l0.47,0.47
		C17.206,8.473,15.04,6.75,12.5,6.75c-0.276,0-0.5-0.224-0.5-0.5s0.224-0.5,0.5-0.5c3.151,0,5.87,2.329,6.403,5.39l0.743-0.743
		c0.094-0.094,0.22-0.146,0.354-0.146s0.259,0.052,0.354,0.146s0.146,0.22,0.146,0.354s-0.052,0.259-0.146,0.354l-1.5,1.5
		c-0.045,0.046-0.101,0.083-0.163,0.109C18.63,12.737,18.566,12.75,18.5,12.75z"/>
	<path d="M12.5,18.75c-3.336,0-6.124-2.567-6.464-5.829l-0.683,0.683C5.259,13.698,5.134,13.75,5,13.75s-0.259-0.052-0.354-0.146
		S4.5,13.384,4.5,13.25s0.052-0.259,0.146-0.354l1.5-1.5c0.046-0.046,0.101-0.083,0.162-0.108C6.37,11.263,6.434,11.25,6.5,11.25
		s0.13,0.013,0.191,0.038c0.062,0.026,0.116,0.062,0.163,0.108l1.5,1.5C8.448,12.991,8.5,13.116,8.5,13.25s-0.052,0.259-0.146,0.354
		S8.134,13.75,8,13.75s-0.259-0.052-0.354-0.146l-0.592-0.592C7.43,15.678,9.747,17.75,12.5,17.75c0.276,0,0.5,0.224,0.5,0.5
		S12.776,18.75,12.5,18.75z"/>
</g>
</svg>
