<?xml version="1.0" encoding="utf-8"?>
<!-- Generator: Adobe Illustrator 22.1.0, SVG Export Plug-In . SVG Version: 6.00 Build 0)  -->
<svg version="1.1" id="Layer_1" xmlns="http://www.w3.org/2000/svg" xmlns:xlink="http://www.w3.org/1999/xlink" x="0px" y="0px"
	 viewBox="0 0 24 24" style="enable-background:new 0 0 24 24;" xml:space="preserve">
<g>
	<title>transportation-ticket-car-transfer</title>
	<path d="M9.725,13.232c-0.157,0-0.306-0.075-0.4-0.2L7.988,11.25h-5.5l-1.334,1.779c-0.094,0.125-0.244,0.2-0.4,0.2
		c-0.109,0-0.212-0.034-0.3-0.1c-0.107-0.08-0.176-0.197-0.195-0.329c-0.019-0.132,0.015-0.264,0.095-0.371l1.069-1.425
		c-0.419-0.273-0.685-0.745-0.685-1.254v-6c0-0.827,0.673-1.5,1.5-1.5h6c0.827,0,1.5,0.673,1.5,1.5v6
		c0,0.509-0.266,0.981-0.684,1.254l1.071,1.428c0.08,0.107,0.114,0.239,0.095,0.371c-0.019,0.132-0.088,0.249-0.195,0.33
		C9.938,13.197,9.834,13.232,9.725,13.232z M1.738,9.75c0,0.276,0.224,0.5,0.5,0.5h6c0.276,0,0.5-0.224,0.5-0.5v-2.5h-7V9.75z
		 M8.738,6.25v-2.5c0-0.276-0.224-0.5-0.5-0.5h-6c-0.276,0-0.5,0.224-0.5,0.5v2.5H8.738z"/>
	<circle cx="3.238" cy="8.75" r="0.75"/>
	<circle cx="7.238" cy="8.75" r="0.75"/>
	<path d="M4.238,1.25c-0.276,0-0.5-0.224-0.5-0.5s0.224-0.5,0.5-0.5h2c0.276,0,0.5,0.224,0.5,0.5s-0.224,0.5-0.5,0.5H4.238z"/>
	<path d="M22.246,23.75c-0.276,0-0.5-0.224-0.5-0.5v-1h-7v1c0,0.276-0.224,0.5-0.5,0.5s-0.5-0.224-0.5-0.5v-1.086
		c-0.59-0.209-1-0.774-1-1.414v-0.764c0-0.126,0.018-0.257,0.053-0.389c0.001-0.004,0.004-0.014,0.004-0.014
		c0.028-0.1,0.061-0.188,0.102-0.269l0.86-1.721l0.348-2.09c0.121-0.726,0.743-1.254,1.479-1.254H20.9
		c0.737,0,1.359,0.528,1.479,1.254l0.348,2.09l0.86,1.722c0.028,0.055,0.051,0.112,0.071,0.17c0.052,0.081,0.08,0.172,0.08,0.264
		c0,0.021-0.002,0.039-0.005,0.054c0.009,0.066,0.013,0.125,0.013,0.182v0.764c0,0.64-0.41,1.205-1,1.414v1.086
		C22.746,23.526,22.522,23.75,22.246,23.75z M13.746,20.75c0,0.276,0.224,0.5,0.5,0.5h8c0.276,0,0.5-0.224,0.5-0.5v-0.5h-2
		c-0.276,0-0.5-0.224-0.5-0.5s0.224-0.5,0.5-0.5h1.69l-0.5-1h-7.382l-0.5,1h1.691c0.276,0,0.5,0.224,0.5,0.5s-0.224,0.5-0.5,0.5h-2
		V20.75z M21.656,17.25l-0.263-1.582c-0.04-0.242-0.248-0.418-0.493-0.418h-5.306c-0.245,0-0.453,0.176-0.493,0.418l-0.264,1.582
		H21.656z"/>
	<path d="M17.516,12.604c-0.085,0-0.169-0.022-0.243-0.063l-1.854-1.031c-0.241-0.134-0.328-0.439-0.194-0.68
		c0.088-0.158,0.255-0.257,0.437-0.257c0.084,0,0.168,0.022,0.243,0.063l0.571,0.318C15.494,9.31,13.682,8.25,11.748,8.25
		c-0.278,0-0.502-0.224-0.502-0.5c0-0.276,0.224-0.5,0.5-0.5c2.487,0,4.777,1.458,5.854,3.676l0.511-0.919
		c0.088-0.159,0.255-0.257,0.437-0.257c0.084,0,0.168,0.022,0.243,0.063c0.117,0.065,0.201,0.172,0.238,0.3s0.021,0.263-0.044,0.38
		l-1.031,1.854C17.865,12.505,17.698,12.604,17.516,12.604z"/>
	<path d="M10.748,20.167c-0.026,0-0.054-0.002-0.081-0.006C7.764,19.67,5.58,17.3,5.286,14.417l-0.686,0.686
		c-0.094,0.094-0.22,0.146-0.354,0.146s-0.259-0.052-0.354-0.146c-0.195-0.195-0.195-0.512,0-0.707l1.5-1.5
		c0.092-0.092,0.213-0.143,0.342-0.146c0.005,0,0.009,0,0.014,0c0.049,0,0.089,0.011,0.111,0.017
		c0.02,0.003,0.055,0.011,0.074,0.019c0.068,0.027,0.128,0.068,0.179,0.123l1.488,1.488c0.094,0.094,0.146,0.22,0.146,0.354
		s-0.052,0.259-0.146,0.354S7.38,15.25,7.246,15.25s-0.259-0.052-0.354-0.146l-0.588-0.587c0.328,2.346,2.143,4.255,4.526,4.658
		c0.272,0.046,0.456,0.305,0.41,0.577C11.2,19.992,10.993,20.167,10.748,20.167z"/>
</g>
</svg>
