<?xml version="1.0" encoding="utf-8"?>
<!-- Generator: Adobe Illustrator 22.1.0, SVG Export Plug-In . SVG Version: 6.00 Build 0)  -->
<svg version="1.1" id="Layer_1" xmlns="http://www.w3.org/2000/svg" xmlns:xlink="http://www.w3.org/1999/xlink" x="0px" y="0px"
	 viewBox="0 0 24 24" style="enable-background:new 0 0 24 24;" xml:space="preserve">
<g>
	<title>transportation-ticket-plane-transfer-train</title>
	<path d="M3.173,9.277c-0.412,0-0.748-0.335-0.749-0.746c0,0,0-0.002,0-0.003C2.423,8.329,2.5,8.14,2.641,7.998
		S2.97,7.777,3.17,7.777c0,0,0.003,0,0.004,0c0.414,0,0.75,0.336,0.75,0.75c0,0.409-0.331,0.744-0.739,0.75c-0.003,0-0.007,0-0.01,0
		H3.173z"/>
	<path d="M7.173,9.277c-0.412,0-0.748-0.335-0.749-0.746c0,0,0-0.002,0-0.003C6.423,8.329,6.5,8.14,6.641,7.998
		S6.97,7.777,7.17,7.777c0,0,0.003,0,0.004,0c0.414,0,0.75,0.336,0.75,0.75c0,0.409-0.331,0.744-0.739,0.75c-0.003,0-0.007,0-0.01,0
		H7.173z"/>
	<path d="M4.174,1.027c-0.276,0-0.5-0.224-0.5-0.5s0.224-0.5,0.5-0.5h2c0.276,0,0.5,0.224,0.5,0.5s-0.224,0.5-0.5,0.5H4.174z"/>
	<path d="M9.66,13.009c-0.157,0-0.307-0.075-0.4-0.2l-1.336-1.782h-5.5l-1.335,1.779c-0.094,0.125-0.243,0.2-0.4,0.2
		c-0.109,0-0.213-0.035-0.3-0.1c-0.107-0.08-0.176-0.197-0.195-0.329c-0.019-0.132,0.015-0.264,0.095-0.371l1.07-1.425
		c-0.419-0.273-0.684-0.745-0.684-1.254v-6c0-0.827,0.673-1.5,1.5-1.5h6c0.827,0,1.5,0.673,1.5,1.5v6
		c0,0.509-0.266,0.981-0.685,1.254l1.071,1.428c0.08,0.107,0.114,0.238,0.095,0.371c-0.019,0.132-0.088,0.249-0.195,0.329
		C9.872,12.974,9.769,13.009,9.66,13.009z M1.674,9.527c0,0.276,0.224,0.5,0.5,0.5h6c0.276,0,0.5-0.224,0.5-0.5v-2.5h-7V9.527z
		 M8.674,6.027v-2.5c0-0.276-0.224-0.5-0.5-0.5h-6c-0.276,0-0.5,0.224-0.5,0.5v2.5H8.674z"/>
	<path d="M14.567,23.973c-0.204,0-0.4-0.062-0.567-0.181l-2.877-2.019c-0.182-0.142-0.285-0.323-0.309-0.529
		c-0.024-0.203,0.033-0.404,0.16-0.565c0.036-0.046,0.078-0.088,0.126-0.126l1.188-1.049c0.152-0.123,0.322-0.185,0.5-0.185
		c0.086,0,0.172,0.015,0.254,0.044c0.03,0.01,0.062,0.025,0.091,0.043l1.235,0.734l1.032-0.72l-2.993-1.853
		c-0.021-0.013-0.041-0.028-0.06-0.044c-0.346-0.294-0.391-0.816-0.1-1.165c0.005-0.007,0.013-0.016,0.022-0.025
		c0.043-0.052,0.103-0.098,0.123-0.112l0.886-0.658c0.145-0.107,0.316-0.163,0.494-0.163c0.099,0,0.196,0.018,0.289,0.052
		l4.772,1.777l2.106-1.437c0.298-0.204,0.647-0.311,1.01-0.311c0.138,0,0.276,0.016,0.41,0.048c0.63,0.146,1.134,0.599,1.347,1.211
		c0.069,0.192,0.104,0.396,0.105,0.603c0.013,0.642-0.321,1.259-0.87,1.606l-7.856,4.876C14.929,23.922,14.75,23.973,14.567,23.973z
		 M14.576,22.975l7.834-4.874c0.253-0.159,0.407-0.446,0.401-0.747c0-0.101-0.016-0.191-0.048-0.28
		c-0.101-0.29-0.337-0.502-0.633-0.571c-0.001,0-0.002,0-0.003-0.001c-0.059-0.013-0.119-0.021-0.179-0.021
		c-0.16,0-0.314,0.047-0.446,0.137l-2.32,1.583c-0.083,0.057-0.18,0.087-0.281,0.087c-0.06,0-0.119-0.011-0.175-0.032l-4.927-1.835
		l-0.61,0.452l3.383,2.094c0.144,0.089,0.232,0.243,0.237,0.411c0.004,0.169-0.075,0.327-0.214,0.424l-1.92,1.34
		c-0.084,0.059-0.183,0.09-0.286,0.09c-0.09,0-0.178-0.024-0.256-0.07l-1.316-0.783l-0.858,0.756L14.576,22.975z"/>
	<path d="M17.174,14.027c-0.066,0-0.13-0.013-0.191-0.039c-0.062-0.025-0.117-0.062-0.163-0.109L15.32,12.38
		c-0.195-0.195-0.195-0.512,0-0.707c0.094-0.094,0.22-0.146,0.354-0.146s0.259,0.052,0.354,0.146l0.47,0.47
		c-0.617-2.394-2.784-4.117-5.324-4.117c-0.276,0-0.5-0.224-0.5-0.5s0.224-0.5,0.5-0.5c3.151,0,5.87,2.329,6.403,5.39l0.743-0.743
		c0.094-0.094,0.22-0.146,0.354-0.146s0.259,0.052,0.354,0.146s0.146,0.22,0.146,0.354s-0.052,0.259-0.146,0.354l-1.5,1.5
		c-0.045,0.046-0.101,0.083-0.163,0.109C17.304,14.014,17.239,14.027,17.174,14.027z"/>
	<path d="M9.653,19.832c-0.042,0-0.084-0.005-0.125-0.016c-2.627-0.688-4.54-2.955-4.817-5.62L4.027,14.88
		c-0.094,0.094-0.22,0.146-0.354,0.146S3.415,14.975,3.32,14.88s-0.146-0.22-0.146-0.354s0.052-0.259,0.146-0.354l1.5-1.5
		c0.094-0.094,0.22-0.146,0.354-0.146s0.259,0.052,0.354,0.146l1.5,1.5c0.094,0.094,0.146,0.22,0.146,0.354
		s-0.052,0.259-0.146,0.354s-0.22,0.146-0.354,0.146S6.415,14.975,6.32,14.88l-0.59-0.59c0.306,2.169,1.895,3.993,4.049,4.557
		c0.267,0.07,0.427,0.344,0.357,0.611C10.079,19.678,9.88,19.832,9.653,19.832z"/>
</g>
</svg>
