<?xml version="1.0" encoding="utf-8"?>
<!-- Generator: Adobe Illustrator 22.1.0, SVG Export Plug-In . SVG Version: 6.00 Build 0)  -->
<svg version="1.1" id="Layer_1" xmlns="http://www.w3.org/2000/svg" xmlns:xlink="http://www.w3.org/1999/xlink" x="0px" y="0px"
	 viewBox="0 0 24 24" style="enable-background:new 0 0 24 24;" xml:space="preserve">
<g>
	<title>transportation-ticket-plane-transfer</title>
	<path d="M3.786,8.553c-0.204,0-0.4-0.063-0.567-0.181l-2.87-2.015c-0.353-0.284-0.411-0.76-0.145-1.095
		C0.25,5.209,0.289,5.171,0.333,5.136l1.182-1.044c0.148-0.121,0.323-0.184,0.501-0.184c0.086,0,0.171,0.014,0.251,0.043
		c0.031,0.011,0.061,0.025,0.09,0.042L3.59,4.729l1.03-0.718L1.638,2.163C1.616,2.15,1.595,2.135,1.576,2.118
		C1.229,1.821,1.187,1.297,1.483,0.948c0.042-0.05,0.089-0.093,0.14-0.129l0.88-0.655C2.647,0.057,2.818,0,2.997,0
		c0.1,0,0.198,0.018,0.292,0.053l4.756,1.772l2.104-1.438c0.297-0.203,0.646-0.311,1.008-0.311c0.135,0,0.27,0.016,0.401,0.046
		c0.63,0.146,1.134,0.598,1.347,1.209c0.069,0.191,0.105,0.395,0.105,0.604c0.013,0.641-0.321,1.256-0.87,1.602L4.303,8.405
		C4.148,8.502,3.969,8.553,3.786,8.553z M3.796,7.555l7.816-4.866c0.252-0.159,0.406-0.444,0.4-0.744
		c0-0.102-0.015-0.191-0.047-0.279c-0.101-0.29-0.336-0.502-0.631-0.57c-0.058-0.013-0.117-0.02-0.177-0.02
		c-0.16,0-0.313,0.047-0.443,0.137L8.395,2.797C8.312,2.854,8.215,2.885,8.114,2.885c-0.06,0-0.12-0.011-0.176-0.032l-4.912-1.83
		l-0.604,0.45l3.372,2.089C5.936,3.65,6.025,3.804,6.029,3.973C6.034,4.142,5.954,4.3,5.815,4.397L3.897,5.733
		c-0.084,0.059-0.183,0.09-0.286,0.09c-0.09,0-0.179-0.024-0.256-0.07L2.043,4.97L1.188,5.725L3.796,7.555z"/>
	<path d="M14.741,24.001c-0.204,0-0.4-0.063-0.566-0.181l-2.871-2.01c-0.181-0.142-0.285-0.321-0.309-0.528
		c-0.024-0.203,0.032-0.404,0.159-0.564c0.037-0.047,0.081-0.091,0.13-0.129l1.188-1.048c0.147-0.121,0.323-0.185,0.501-0.185
		c0.087,0,0.172,0.015,0.253,0.043c0.029,0.01,0.06,0.024,0.089,0.042l1.232,0.735l1.028-0.718L12.59,17.61
		c-0.021-0.013-0.041-0.028-0.06-0.044c-0.349-0.297-0.392-0.822-0.096-1.17c0.045-0.052,0.09-0.093,0.138-0.128l0.887-0.657
		c0.144-0.107,0.315-0.164,0.494-0.164c0.098,0,0.194,0.017,0.286,0.051L19,17.271l2.101-1.434c0.298-0.205,0.648-0.313,1.012-0.313
		c0.135,0,0.27,0.015,0.401,0.046c0.631,0.146,1.135,0.599,1.348,1.209c0.069,0.193,0.104,0.396,0.104,0.603
		c0.013,0.641-0.321,1.257-0.87,1.602l-7.837,4.868C15.104,23.949,14.925,24.001,14.741,24.001z M14.751,23.003l7.816-4.866
		c0.252-0.158,0.406-0.443,0.4-0.743c0-0.102-0.016-0.193-0.047-0.282c-0.1-0.287-0.336-0.498-0.63-0.566
		c-0.058-0.014-0.118-0.021-0.177-0.021c-0.16,0-0.314,0.048-0.446,0.138l-2.316,1.581c-0.084,0.057-0.182,0.087-0.282,0.087
		c-0.06,0-0.118-0.01-0.174-0.031l-4.913-1.83l-0.608,0.45l3.374,2.089c0.144,0.089,0.232,0.243,0.237,0.411
		c0.004,0.17-0.076,0.328-0.214,0.424l-1.916,1.337c-0.084,0.059-0.183,0.09-0.286,0.09c-0.09,0-0.178-0.024-0.256-0.07
		l-1.313-0.783l-0.859,0.757L14.751,23.003z"/>
	<path d="M16.063,13.974c-0.067,0-0.132-0.013-0.194-0.039c-0.06-0.025-0.114-0.061-0.16-0.107l-1.497-1.497
		c-0.195-0.195-0.195-0.512,0-0.707c0.094-0.094,0.22-0.146,0.354-0.146s0.259,0.052,0.354,0.146l0.466,0.466
		c-0.617-2.387-2.778-4.104-5.311-4.104c-0.276,0-0.5-0.224-0.5-0.5s0.224-0.5,0.5-0.5c3.145,0,5.858,2.323,6.391,5.377l0.739-0.74
		c0.094-0.094,0.22-0.146,0.354-0.146c0.133,0,0.259,0.052,0.353,0.146c0.195,0.195,0.195,0.512,0,0.708l-1.496,1.497
		c-0.046,0.046-0.1,0.082-0.16,0.108C16.194,13.961,16.129,13.974,16.063,13.974z"/>
	<path d="M10.075,19.961c-3.328,0-6.11-2.561-6.45-5.816l-0.679,0.679c-0.094,0.094-0.22,0.146-0.354,0.146
		s-0.259-0.052-0.354-0.146s-0.146-0.22-0.146-0.354s0.052-0.259,0.146-0.354l1.494-1.494c0.092-0.095,0.22-0.15,0.356-0.15
		c0.136,0,0.263,0.054,0.359,0.153l1.492,1.491c0.094,0.094,0.146,0.22,0.146,0.353s-0.052,0.259-0.146,0.354
		c-0.095,0.094-0.22,0.146-0.354,0.146c-0.134,0-0.259-0.052-0.354-0.146l-0.588-0.588c0.376,2.658,2.687,4.724,5.432,4.724
		c0.276,0,0.5,0.224,0.5,0.5S10.351,19.961,10.075,19.961L10.075,19.961z"/>
</g>
</svg>
