<?xml version="1.0" encoding="utf-8"?>
<!-- Generator: Adobe Illustrator 22.1.0, SVG Export Plug-In . SVG Version: 6.00 Build 0)  -->
<svg version="1.1" id="Layer_1" xmlns="http://www.w3.org/2000/svg" xmlns:xlink="http://www.w3.org/1999/xlink" x="0px" y="0px"
	 viewBox="0 0 24 24" style="enable-background:new 0 0 24 24;" xml:space="preserve">
<g>
	<title>transportation-ticket-bus-transfer</title>
	<path d="M8.5,10C8.225,10,8,9.776,8,9.5V9H4v0.5C4,9.776,3.776,10,3.5,10S3,9.776,3,9.5V8.914C2.41,8.705,2,8.14,2,7.5v-6
		C2,0.673,2.673,0,3.5,0h5C9.327,0,10,0.673,10,1.5v6c0,0.64-0.41,1.205-1,1.414V9.5C9,9.776,8.776,10,8.5,10z M3,7.5
		C3,7.776,3.225,8,3.5,8h5C8.776,8,9,7.776,9,7.5V5H3V7.5z M9,4V1.5C9,1.224,8.776,1,8.5,1h-5C3.225,1,3,1.224,3,1.5V4H9z"/>
	<circle cx="4" cy="6.5" r="0.75"/>
	<circle cx="8" cy="6.5" r="0.75"/>
	<path d="M0.5,4C0.225,4,0,3.776,0,3.5v-2C0,1.224,0.225,1,0.5,1S1,1.224,1,1.5v2C1,3.776,0.776,4,0.5,4z"/>
	<path d="M11.5,4C11.225,4,11,3.776,11,3.5v-2C11,1.224,11.225,1,11.5,1S12,1.224,12,1.5v2C12,3.776,11.776,4,11.5,4z"/>
	<circle cx="17.014" cy="19.518" r="0.75"/>
	<circle cx="21.014" cy="19.518" r="0.75"/>
	<path d="M18.014,12.018c-0.276,0-0.5-0.224-0.5-0.5s0.224-0.5,0.5-0.5h2c0.276,0,0.5,0.224,0.5,0.5s-0.224,0.5-0.5,0.5H18.014z"/>
	<path d="M23.501,24c-0.157,0-0.307-0.075-0.4-0.2l-1.336-1.781h-5.5l-1.335,1.779c-0.094,0.125-0.243,0.2-0.4,0.2
		c-0.108,0-0.212-0.034-0.299-0.1c-0.221-0.166-0.266-0.48-0.101-0.7l1.069-1.425c-0.419-0.273-0.684-0.745-0.684-1.254v-6
		c0-0.827,0.673-1.5,1.5-1.5h6c0.827,0,1.5,0.673,1.5,1.5v6c0,0.509-0.265,0.981-0.685,1.254L23.9,23.2
		c0.08,0.106,0.114,0.238,0.095,0.37c-0.019,0.132-0.088,0.25-0.195,0.33C23.713,23.965,23.609,24,23.501,24z M15.514,20.518
		c0,0.276,0.224,0.5,0.5,0.5h6c0.276,0,0.5-0.224,0.5-0.5v-2.5h-7V20.518z M22.514,17.018v-2.5c0-0.276-0.224-0.5-0.5-0.5h-6
		c-0.276,0-0.5,0.224-0.5,0.5v2.5H22.514z"/>
	<path d="M12,19.5c-2.908-0.002-5.512-1.826-6.533-4.505L5.1,15.733c-0.085,0.171-0.257,0.277-0.448,0.277
		c-0.077,0-0.154-0.018-0.223-0.052c-0.246-0.123-0.347-0.423-0.225-0.67l0.944-1.899c0.01-0.019,0.032-0.052,0.047-0.069
		c0.003-0.005,0.007-0.009,0.009-0.012c0.035-0.045,0.072-0.08,0.115-0.109c0.007-0.005,0.027-0.016,0.034-0.02
		c0.039-0.021,0.076-0.037,0.113-0.047c0.015-0.005,0.031-0.01,0.044-0.013c0.015-0.003,0.036-0.005,0.051-0.005
		c0.007,0,0.032,0,0.039,0c0.023,0,0.045,0.001,0.069,0.005c0.03,0.004,0.064,0.012,0.098,0.025
		c0.017,0.005,0.036,0.011,0.049,0.018l1.9,0.944c0.12,0.059,0.209,0.162,0.251,0.288c0.043,0.127,0.033,0.262-0.026,0.382
		c-0.084,0.171-0.256,0.278-0.448,0.278c-0.077,0-0.154-0.018-0.223-0.053l-0.905-0.449c0.851,2.349,3.092,3.946,5.633,3.948
		c0.275,0,0.5,0.224,0.5,0.5C12.5,19.276,12.276,19.5,12,19.5L12,19.5z"/>
	<path d="M17.713,9.9c-0.022,0-0.045-0.001-0.068-0.005l-2.102-0.287c-0.273-0.037-0.465-0.29-0.428-0.563
		c0.034-0.247,0.247-0.433,0.495-0.433c0.023,0,0.046,0.002,0.069,0.005l1.008,0.137C15.554,7.333,13.841,6.5,12.001,6.5
		C11.725,6.5,11.5,6.276,11.5,6s0.224-0.5,0.5-0.5c2.097,0,4.071,0.94,5.394,2.542l0.111-0.812c0.034-0.247,0.246-0.433,0.494-0.433
		c0.023,0,0.047,0.002,0.071,0.005c0.271,0.037,0.463,0.289,0.426,0.562l-0.287,2.102c-0.002,0.015-0.006,0.032-0.011,0.048
		c-0.007,0.029-0.017,0.057-0.03,0.086c-0.01,0.023-0.022,0.047-0.038,0.07c-0.016,0.024-0.036,0.05-0.061,0.075
		c-0.018,0.019-0.037,0.035-0.058,0.051c-0.014,0.013-0.033,0.028-0.058,0.042c-0.012,0.007-0.039,0.018-0.052,0.022
		c-0.005,0.002-0.02,0.008-0.025,0.01c-0.058,0.02-0.11,0.029-0.161,0.029H17.713z"/>
</g>
</svg>
