<?xml version="1.0" encoding="utf-8"?>
<!-- Generator: Adobe Illustrator 22.1.0, SVG Export Plug-In . SVG Version: 6.00 Build 0)  -->
<svg version="1.1" id="Layer_1" xmlns="http://www.w3.org/2000/svg" xmlns:xlink="http://www.w3.org/1999/xlink" x="0px" y="0px"
	 viewBox="0 0 24 24" style="enable-background:new 0 0 24 24;" xml:space="preserve">
<g>
	<title>transportation-ticket-boat-car-transfer</title>
	<path d="M22.5,23.75c-0.276,0-0.5-0.224-0.5-0.5v-1h-7v1c0,0.276-0.224,0.5-0.5,0.5s-0.5-0.224-0.5-0.5v-1.086
		c-0.59-0.209-1-0.774-1-1.414v-0.764c0-0.127,0.018-0.259,0.054-0.392c0.001-0.003,0.002-0.007,0.003-0.011
		c0.028-0.1,0.061-0.188,0.102-0.269l0.86-1.721l0.349-2.09c0.121-0.726,0.743-1.253,1.479-1.253h5.306
		c0.736,0,1.358,0.528,1.479,1.254l0.349,2.09l0.86,1.722c0.026,0.052,0.049,0.107,0.071,0.171c0.052,0.081,0.08,0.171,0.08,0.263
		c0,0.021-0.002,0.039-0.005,0.054C23.996,19.87,24,19.93,24,19.986v0.764c0,0.64-0.41,1.205-1,1.414v1.086
		C23,23.526,22.776,23.75,22.5,23.75z M14,20.75c0,0.276,0.224,0.5,0.5,0.5h8c0.276,0,0.5-0.224,0.5-0.5v-0.5h-2
		c-0.276,0-0.5-0.224-0.5-0.5s0.224-0.5,0.5-0.5h1.691l-0.5-1h-7.382l-0.5,1H16c0.276,0,0.5,0.224,0.5,0.5s-0.224,0.5-0.5,0.5h-2
		V20.75z M21.91,17.25l-0.264-1.582c-0.04-0.242-0.248-0.418-0.493-0.418h-5.305c-0.245,0-0.453,0.176-0.493,0.418L15.09,17.25
		H21.91z"/>
	<path d="M0.909,9.776c-0.156,0-0.315-0.01-0.471-0.029C0.306,9.73,0.188,9.663,0.106,9.558C0.023,9.452-0.013,9.321,0.004,9.189
		C0.034,8.939,0.247,8.75,0.499,8.75c0.021,0,0.042,0.001,0.062,0.004c0.111,0.014,0.225,0.021,0.337,0.021
		c0.289,0,0.575-0.045,0.852-0.135L1.659,7.694c-0.002-0.016-0.002-0.033-0.002-0.05c0.004-0.769,0.632-1.394,1.4-1.394H7v-1H4
		c-0.196,0-0.375-0.115-0.455-0.293c-0.081-0.178-0.05-0.388,0.079-0.536l3.5-4C7.218,0.313,7.355,0.25,7.5,0.25
		c0.06,0,0.119,0.011,0.175,0.032C7.87,0.355,8,0.543,8,0.75v5.5h4.457c0.253,0,0.491,0.099,0.67,0.278
		c0.179,0.18,0.278,0.418,0.277,0.671c0,0.18-0.052,0.356-0.149,0.509c-0.025,0.039-0.056,0.075-0.091,0.106l-0.805,0.708
		c0.362,0.166,0.756,0.253,1.156,0.253c0.115,0,0.231-0.007,0.345-0.021c0.02-0.003,0.042-0.004,0.064-0.004
		c0.25,0,0.463,0.189,0.493,0.439c0.017,0.132-0.02,0.263-0.102,0.369c-0.082,0.105-0.2,0.172-0.333,0.189
		c-0.154,0.019-0.31,0.029-0.464,0.029c0,0,0,0,0,0c-0.806,0-1.577-0.253-2.23-0.73c-0.011-0.006-0.023-0.012-0.033-0.018
		C10.683,9.495,9.97,9.751,9.232,9.751c-0.058,0-0.116-0.002-0.174-0.005C8.382,9.711,7.733,9.463,7.211,9.041
		c-0.57,0.458-1.277,0.708-2.012,0.708c-0.748,0-1.463-0.255-2.034-0.723C3.011,9.139,2.846,9.243,2.67,9.336
		C2.587,9.438,2.469,9.502,2.338,9.515C2.33,9.516,2.298,9.517,2.29,9.517c-0.005,0-0.011,0-0.016,0
		C1.833,9.689,1.375,9.776,0.909,9.776z M7.211,7.855c0.141,0,0.277,0.06,0.371,0.165C7.978,8.459,8.52,8.717,9.11,8.747
		C9.148,8.749,9.186,8.75,9.224,8.75c0.548,0,1.074-0.202,1.481-0.569c0.056-0.051,0.11-0.104,0.161-0.161
		c0.09-0.1,0.219-0.16,0.354-0.165c0.001,0,0.002,0,0.003,0c0.112,0,0.208,0.029,0.289,0.082l0.781-0.687H3.057
		c-0.211,0-0.387,0.168-0.399,0.377l0.047,0.487c0.046-0.039,0.09-0.078,0.132-0.119c0.094-0.09,0.215-0.14,0.341-0.14
		c0.005,0,0.025,0.001,0.03,0.001C3.336,7.86,3.465,7.92,3.555,8.02c0.418,0.463,1.017,0.729,1.643,0.729
		c0.549,0,1.074-0.202,1.481-0.569C6.735,8.13,6.789,8.076,6.84,8.02C6.935,7.915,7.07,7.855,7.211,7.855z M7,4.25V2.081L5.102,4.25
		H7z"/>
	<path d="M18.5,13.75c-0.066,0-0.13-0.013-0.191-0.039c-0.062-0.025-0.116-0.062-0.162-0.108l-1.5-1.5
		c-0.195-0.195-0.195-0.512,0-0.707c0.094-0.094,0.22-0.146,0.354-0.146s0.259,0.052,0.354,0.146l0.462,0.462
		c-0.366-1.383-1.263-2.593-2.497-3.329c-0.237-0.142-0.314-0.449-0.173-0.686C15.235,7.694,15.4,7.6,15.575,7.6
		c0.09,0,0.178,0.024,0.256,0.07c1.624,0.969,2.745,2.616,3.069,4.472l0.746-0.746c0.094-0.094,0.22-0.146,0.354-0.146
		s0.259,0.052,0.354,0.146c0.195,0.195,0.195,0.512,0,0.707l-1.5,1.5c-0.046,0.046-0.101,0.083-0.163,0.108
		C18.63,13.737,18.566,13.75,18.5,13.75z"/>
	<path d="M10.972,19.554c-0.043,0-0.086-0.006-0.128-0.017c-2.621-0.69-4.531-2.956-4.807-5.618l-0.684,0.684
		C5.259,14.698,5.133,14.75,5,14.75s-0.259-0.052-0.354-0.146c-0.195-0.195-0.195-0.512,0-0.707l1.5-1.5
		c0.046-0.046,0.101-0.083,0.163-0.109c0.06-0.025,0.125-0.038,0.191-0.038s0.13,0.013,0.192,0.038
		c0.061,0.025,0.116,0.062,0.163,0.109l1.499,1.499C8.448,13.991,8.5,14.117,8.5,14.25s-0.052,0.259-0.146,0.354
		S8.133,14.75,8,14.75c-0.134,0-0.259-0.052-0.354-0.146l-0.59-0.59c0.305,2.166,1.892,3.99,4.042,4.557
		c0.129,0.034,0.237,0.116,0.305,0.231c0.067,0.115,0.086,0.25,0.052,0.38C11.398,19.401,11.199,19.554,10.972,19.554z"/>
</g>
</svg>
