<?xml version="1.0" encoding="utf-8"?>
<!-- Generator: Adobe Illustrator 22.1.0, SVG Export Plug-In . SVG Version: 6.00 Build 0)  -->
<svg version="1.1" id="Layer_1" xmlns="http://www.w3.org/2000/svg" xmlns:xlink="http://www.w3.org/1999/xlink" x="0px" y="0px"
	 viewBox="0 0 24 24" style="enable-background:new 0 0 24 24;" xml:space="preserve">
<g>
	<title>designer-community-forrst</title>
	<path d="M13.013,24c-0.276,0-0.5-0.224-0.5-0.5V15h-1v8.5c0,0.276-0.224,0.5-0.5,0.5H2.456c-0.142,0-0.279-0.029-0.409-0.085
		c-0.252-0.11-0.446-0.311-0.546-0.567c-0.1-0.256-0.095-0.535,0.014-0.787l9.559-21.944C11.235,0.242,11.599,0,12.002,0
		c0.426,0,0.795,0.244,0.957,0.621l9.526,21.941c0.057,0.13,0.086,0.27,0.086,0.414C22.57,23.54,22.109,24,21.544,24H13.013z
		 M21.543,23c0.016,0,0.028-0.012,0.028-0.027l-9.53-21.956C12.036,1.006,12.027,1,12.017,1c0,0-0.002,0-0.002,0
		c-0.011,0-0.021,0.005-0.025,0.015l-9.56,21.946c-0.006,0.014,0.001,0.031,0.015,0.037L10.513,23v-4.52l-2.05-1.101
		c-0.243-0.131-0.334-0.434-0.204-0.677c0.087-0.162,0.256-0.263,0.44-0.263c0.082,0,0.164,0.021,0.237,0.06l1.576,0.847V14.5
		c0-0.276,0.224-0.5,0.5-0.5h2c0.276,0,0.5,0.224,0.5,0.5v1.9l1.698-0.923c0.073-0.04,0.156-0.061,0.239-0.061
		c0.184,0,0.352,0.1,0.44,0.262c0.064,0.117,0.078,0.252,0.04,0.38c-0.038,0.128-0.123,0.234-0.241,0.298l-2.176,1.183v1.276
		l3.273-1.67c0.07-0.036,0.148-0.055,0.227-0.055c0.189,0,0.36,0.105,0.445,0.273c0.061,0.119,0.072,0.254,0.03,0.381
		c-0.041,0.127-0.129,0.23-0.249,0.291l-3.727,1.902V23H21.543z"/>
</g>
</svg>
