<?xml version="1.0" encoding="utf-8"?>
<!-- Generator: Adobe Illustrator 22.1.0, SVG Export Plug-In . SVG Version: 6.00 Build 0)  -->
<svg version="1.1" id="Layer_1" xmlns="http://www.w3.org/2000/svg" xmlns:xlink="http://www.w3.org/1999/xlink" x="0px" y="0px"
	 viewBox="0 0 24 24" style="enable-background:new 0 0 24 24;" xml:space="preserve">
<g>
	<title>designer-community-designmoo</title>
	<path d="M7.796,22.5c-1.013-0.018-1.777-0.375-2.271-1.059c-1.06-1.468-0.482-4.045-0.044-5.45
		c0.442-1.345,1.298-2.792,2.293-3.874c0.839-0.912,2.164-1.999,3.714-1.999c0.035-0.003,0.085-0.004,0.135-0.004
		c0.742,0,1.443,0.359,1.888,0.943c0.714-1.375,1.336-2.804,1.854-4.255c0.05-0.154,0.312-1.124,0.481-1.76
		c0.059-0.219,0.258-0.371,0.486-0.371c0.007,0,0.033,0.001,0.04,0.002c0.995,0.09,1.741,0.94,1.701,1.936
		C18.054,7.154,17.938,7.69,17.73,8.2c-0.286,0.852-0.68,1.708-1.061,2.537c-0.172,0.375-0.336,0.733-0.493,1.093
		c-0.184,0.431-0.444,1.006-0.72,1.615c-0.865,1.911-2.31,5.107-2.329,6.042c-0.001,0.064,0.002,0.106,0.006,0.133
		c0.551-0.081,1.494-1.041,1.813-1.365l0.025-0.025c0.046-0.045,0.128-0.14,0.235-0.26l0.033-0.038
		c0.944-1.074,1.25-1.365,1.6-1.365c0.346,0,0.694,0.26,0.694,0.756c-0.004,0.267-0.153,0.777-1.398,2.155
		c-1.941,2.157-3.133,2.998-4.252,2.998c-0.449,0-0.868-0.174-1.182-0.489c-0.147-0.148-0.327-0.386-0.456-0.745
		C9.617,21.882,8.806,22.5,7.8,22.5C7.799,22.5,7.797,22.5,7.796,22.5z M11.61,11.113c-0.03,0-0.06,0.001-0.09,0.003
		c-0.953,0.001-2.016,0.596-3.01,1.677c-0.903,0.982-1.679,2.291-2.077,3.502c-0.64,2.052-0.677,3.758-0.098,4.561
		c0.304,0.421,0.786,0.632,1.474,0.644c0.866,0,1.622-0.804,2.384-1.701c0.094-0.112,0.233-0.176,0.38-0.176
		c0.059,0,0.118,0.01,0.174,0.031c0.197,0.073,0.328,0.263,0.327,0.472c-0.003,0.531,0.113,0.93,0.337,1.155
		c0.128,0.129,0.287,0.194,0.472,0.194c0.489,0,1.085-0.315,1.879-1.014c-0.235,0.105-0.467,0.165-0.692,0.165
		c-0.035,0-0.071-0.001-0.105-0.005c-0.027-0.002-0.052-0.007-0.077-0.013c-0.292-0.073-0.777-0.318-0.76-1.142
		c0.023-1.139,1.295-3.951,2.417-6.432c0.289-0.638,0.535-1.183,0.713-1.599c0.164-0.375,0.333-0.745,0.503-1.114
		c0.37-0.806,0.753-1.638,1.033-2.469c0.172-0.425,0.265-0.852,0.281-1.284c0.013-0.316-0.143-0.604-0.396-0.767
		c-0.137,0.51-0.314,1.161-0.367,1.323c-0.653,1.831-1.461,3.614-2.404,5.305c-0.087,0.158-0.254,0.257-0.435,0.257
		c-0.029,0-0.058-0.003-0.087-0.008c-0.208-0.035-0.372-0.2-0.407-0.408C12.864,11.599,12.288,11.113,11.61,11.113z"/>
	<path d="M6.18,13.636c-0.024,0-0.047-0.001-0.071-0.005c-0.2-0.029-0.362-0.174-0.413-0.369l-0.787-3.019
		c-0.118-0.365-0.422-0.665-0.808-0.79l-3.357-0.88C0.13,8.412,0,8.094,0,7.854c0-0.239,0.128-0.558,0.743-0.721l3.385-0.887
		c0.365-0.118,0.665-0.422,0.788-0.809l0.875-3.368C5.953,1.45,6.273,1.32,6.512,1.32c0.24,0,0.559,0.13,0.72,0.749l0.885,3.394
		c0.117,0.366,0.42,0.667,0.807,0.791l3.357,0.879c0.616,0.163,0.745,0.482,0.744,0.722c0,0.239-0.13,0.558-0.745,0.718L8.897,9.46
		c-0.364,0.119-0.664,0.422-0.788,0.809l-0.392,1.525c-0.019,0.074-0.055,0.143-0.104,0.2C7.241,12.43,6.903,12.9,6.609,13.392
		C6.52,13.543,6.355,13.636,6.18,13.636z M4.382,8.493c0.714,0.23,1.265,0.778,1.487,1.47l0.514,1.97
		c0.127-0.171,0.259-0.337,0.394-0.5l0.372-1.442c0.228-0.715,0.775-1.267,1.467-1.491l2.467-0.648l-2.44-0.64
		c-0.714-0.23-1.265-0.779-1.487-1.473L6.513,3.272L5.877,5.715C5.65,6.43,5.102,6.982,4.408,7.206L1.942,7.853L4.382,8.493z"/>
	<path d="M11.945,6.839c-0.103,0-0.448-0.038-0.571-0.513l-0.332-1.271c-0.006-0.019-0.041-0.061-0.094-0.078L9.707,4.654
		C9.229,4.527,9.194,4.181,9.194,4.078C9.195,3.975,9.234,3.631,9.708,3.51l1.265-0.333c0.018-0.006,0.06-0.042,0.077-0.095
		l0.325-1.247c0.12-0.475,0.465-0.513,0.568-0.514c0.001,0,0.002,0,0.002,0c0.223,0,0.474,0.135,0.573,0.513l0.331,1.273
		c0.006,0.018,0.045,0.061,0.097,0.078l1.24,0.325c0.474,0.12,0.511,0.466,0.512,0.569c0,0.102-0.035,0.448-0.51,0.574l-1.27,0.331
		C12.9,4.99,12.858,5.028,12.841,5.08l-0.323,1.246C12.392,6.802,12.048,6.839,11.945,6.839L11.945,6.839z M11.392,4.082
		c0.248,0.119,0.442,0.314,0.555,0.553c0.12-0.248,0.314-0.443,0.552-0.556c-0.25-0.12-0.442-0.312-0.556-0.553
		C11.825,3.774,11.631,3.969,11.392,4.082z"/>
	<path d="M19.935,19.297c-0.174,0-0.486-0.077-0.623-0.592l-0.525-2.016c-0.047-0.143-0.18-0.273-0.344-0.326l-1.979-0.517
		c-0.515-0.137-0.593-0.447-0.594-0.62c-0.001-0.173,0.074-0.485,0.588-0.627l2.011-0.529c0.144-0.047,0.273-0.179,0.325-0.343
		l0.518-1.987c0.136-0.521,0.449-0.599,0.623-0.599s0.487,0.078,0.623,0.599l0.526,2.012c0.046,0.141,0.177,0.271,0.339,0.324
		l1.985,0.522c0.513,0.135,0.592,0.446,0.593,0.619c0.001,0.174-0.074,0.486-0.587,0.627L21.4,16.372
		c-0.142,0.047-0.271,0.181-0.324,0.345l-0.518,1.986C20.421,19.22,20.109,19.297,19.935,19.297L19.935,19.297z M18.723,15.404
		c0.494,0.159,0.872,0.534,1.024,1.008l0.188,0.719l0.181-0.693c0.158-0.494,0.532-0.872,1.004-1.025l0.728-0.191l-0.7-0.184
		c-0.007-0.002-0.026-0.007-0.032-0.01c-0.467-0.15-0.839-0.523-0.99-0.997l-0.188-0.719l-0.181,0.692
		c-0.157,0.495-0.531,0.874-1.006,1.025l-0.725,0.191L18.723,15.404z"/>
	<path d="M8.475,20.358c-0.31,0-0.589-0.121-0.808-0.349c-0.294-0.307-0.443-0.779-0.419-1.328c0.13-1.933,0.903-3.791,2.176-5.238
		l0.089-0.101c0.36-0.409,0.853-0.969,1.618-0.969c0.366,0,0.664,0.114,0.884,0.339c0.241,0.245,0.36,0.596,0.352,1.043
		c-0.119,1.635-0.657,3.202-1.556,4.546c-0.002,0.004-0.004,0.008-0.005,0.009C10.756,18.398,9.612,20.358,8.475,20.358z
		 M11.132,13.373c-0.313,0-0.582,0.306-0.868,0.63l-0.09,0.102c-1.127,1.281-1.812,2.927-1.927,4.632
		c-0.013,0.303,0.065,0.499,0.143,0.581c0.034,0.036,0.061,0.041,0.085,0.041c0.247,0,0.97-0.704,1.436-1.498
		c0.012-0.028,0.027-0.054,0.044-0.078c0.818-1.208,1.308-2.616,1.414-4.073c0.002-0.152-0.032-0.262-0.066-0.297
		C11.278,13.387,11.216,13.373,11.132,13.373z"/>
</g>
</svg>
