<?xml version="1.0" encoding="utf-8"?>
<!-- Generator: Adobe Illustrator 22.1.0, SVG Export Plug-In . SVG Version: 6.00 Build 0)  -->
<svg version="1.1" id="Layer_1" xmlns="http://www.w3.org/2000/svg" xmlns:xlink="http://www.w3.org/1999/xlink" x="0px" y="0px"
	 viewBox="0 0 24 24" style="enable-background:new 0 0 24 24;" xml:space="preserve">
<g>
	<title>designer-community-path</title>
	<path d="M7.975,23.994c-0.864,0-1.698-0.187-2.481-0.556c-1.251-0.541-1.124-2.106-1.031-3.25c0.032-0.395,0.062-0.768,0.037-1.033
		c-0.015-0.158,0.046-0.316,0.165-0.421c0.091-0.082,0.209-0.127,0.332-0.127c0.036,0,0.072,0.004,0.107,0.012
		c0.331,0.071,0.633,0.221,0.924,0.366c0.337,0.168,0.629,0.313,0.893,0.313c0.095,0,0.185-0.019,0.273-0.058
		c0.276-0.122,0.438-0.804,0.482-2.027l0.004-0.107c0-0.029-0.013-1.435-0.013-1.435c-0.022-2.258-0.062-6.461-0.062-8.372
		c0-0.483,0.11-0.778,0.673-0.857c0.033-0.005,0.071-0.01,0.115-0.017c0.554-0.076,1.11-0.114,1.659-0.114
		c0.441,0,0.887,0.024,1.325,0.073c0.258,0.021,0.532,0.048,0.805,0.081c0.048,0.006,0.089,0.008,0.123,0.01
		c0.688,0.043,0.688,0.565,0.688,0.845c0,0,0,5.982,0,5.99c0.064,0.021,0.182,0.045,0.239,0.057
		c0.068,0.014,0.128,0.027,0.189,0.041c0.444,0.105,0.887,0.158,1.32,0.158c1.246,0,2.349-0.44,3.106-1.238
		c0.869-0.917,1.141-2.216,0.745-3.564c-0.836-2.84-4.134-4.133-6.843-4.133c-0.678,0-1.335,0.076-1.953,0.224
		C7.665,5.37,5.845,6.923,5.268,8.721c-0.29,0.901-0.382,2.268,0.823,3.665c0.169,0.196,0.159,0.493-0.022,0.677
		c-0.812,0.826-1.71,1.576-2.668,2.229c-0.298,0.171-0.579,0.301-0.873,0.405c-0.053,0.019-0.109,0.029-0.167,0.029
		c-0.15,0-0.29-0.066-0.386-0.182c-1.745-2.125-2.414-4.993-1.79-7.67c0.583-3.135,2.825-5.755,5.848-6.826
		c1.719-0.681,3.714-1.043,5.76-1.043c0.938,0,1.871,0.077,2.772,0.229c3.135,0.528,5.797,1.934,7.496,3.961
		c2.003,2.375,2.483,5.746,1.221,8.586c-1.556,3.162-4.695,5.121-8.195,5.121c0,0,0,0,0,0c-0.625,0-1.25-0.065-1.865-0.193
		c0.102,2.425-0.932,5.149-3.544,6.033C9.118,23.91,8.548,23.994,7.975,23.994z M5.493,19.835c-0.009,0.139-0.021,0.282-0.032,0.43
		c-0.076,0.939-0.162,1.999,0.446,2.262c0.661,0.311,1.356,0.468,2.073,0.468c0.472,0,0.941-0.069,1.394-0.206
		c2.346-0.794,3.095-3.495,2.793-5.667c-0.023-0.169,0.04-0.336,0.169-0.447c0.091-0.078,0.207-0.122,0.327-0.122
		c0.048,0,0.095,0.007,0.141,0.021c0.744,0.217,1.513,0.327,2.283,0.327c3.116,0,5.91-1.741,7.29-4.545
		c1.101-2.479,0.678-5.434-1.081-7.519c-1.975-2.355-5.717-3.876-9.536-3.876c-1.857,0-3.664,0.343-5.372,1.02
		C3.681,2.939,1.685,5.273,1.163,8.078c-0.528,2.266-0.019,4.693,1.36,6.543c0.119-0.054,0.237-0.114,0.35-0.178
		c0.756-0.517,1.49-1.115,2.169-1.771c-0.94-1.286-1.199-2.789-0.727-4.258c0.681-2.117,2.789-3.938,5.246-4.531
		c0.687-0.166,1.416-0.25,2.167-0.25c3.081,0,6.843,1.517,7.823,4.848c0.5,1.698,0.143,3.351-0.978,4.534
		c-0.947,1-2.307,1.55-3.831,1.55c-0.509,0-1.031-0.062-1.549-0.184c-0.056-0.013-0.11-0.025-0.162-0.036
		c-0.364-0.076-1.037-0.217-1.037-1.063V7.45c-0.236-0.028-0.474-0.051-0.711-0.07c-0.414-0.045-0.827-0.068-1.234-0.068
		c-0.481,0-0.966,0.031-1.443,0.094c0.001,1.952,0.041,6.041,0.062,8.256l0,0.029c0.013,1.379,0.013,1.428,0.012,1.456L8.677,17.25
		c-0.031,0.862-0.09,2.468-1.078,2.905c-0.215,0.095-0.442,0.144-0.673,0.144c-0.503,0-0.949-0.222-1.342-0.418
		C5.553,19.865,5.523,19.85,5.493,19.835z"/>
</g>
</svg>
