<?xml version="1.0" encoding="utf-8"?>
<!-- Generator: Adobe Illustrator 22.1.0, SVG Export Plug-In . SVG Version: 6.00 Build 0)  -->
<svg version="1.1" id="Layer_1" xmlns="http://www.w3.org/2000/svg" xmlns:xlink="http://www.w3.org/1999/xlink" x="0px" y="0px"
	 viewBox="0 0 24 24" style="enable-background:new 0 0 24 24;" xml:space="preserve">
<g>
	<title>designer-community-behance</title>
	<path d="M0.5,18.999c-0.276,0-0.5-0.224-0.5-0.5v-14c0-0.276,0.224-0.5,0.5-0.5h8.143c2.2,0.007,3.989,1.801,3.989,4
		c0,1.457-0.815,2.803-2.075,3.5c1.26,0.697,2.075,2.043,2.075,3.5c0,2.198-1.789,3.993-3.987,4c0,0-0.001,0-0.001,0H0.5z
		 M8.643,17.999c1.648-0.005,2.989-1.351,2.989-3c0-1.649-1.342-2.995-2.99-3H1v6H8.643z M8.643,10.999
		c1.648-0.005,2.989-1.351,2.989-3c0-1.649-1.342-2.995-2.99-3H1v6H8.643z"/>
	<path d="M18.493,18.998c-0.73,0-1.443-0.144-2.12-0.428c-1.355-0.568-2.407-1.63-2.964-2.989c-0.556-1.36-0.55-2.855,0.019-4.21
		c0.859-2.049,2.853-3.373,5.08-3.373c0.729,0,1.443,0.144,2.119,0.428C22.676,9.286,24,11.277,24,13.499c0,0.276-0.224,0.5-0.5,0.5
		h-9.474c0.047,0.411,0.15,0.814,0.309,1.203c0.455,1.113,1.316,1.981,2.425,2.446c0.554,0.232,1.138,0.35,1.734,0.35
		c1.822,0,3.453-1.083,4.156-2.76c0.078-0.186,0.259-0.307,0.461-0.307c0.067,0,0.133,0.013,0.195,0.04
		c0.121,0.051,0.217,0.147,0.268,0.271c0.051,0.124,0.05,0.26-0.002,0.383C22.713,17.674,20.719,18.998,18.493,18.998z
		 M22.973,12.999c-0.178-1.627-1.206-3.01-2.733-3.65c-0.554-0.232-1.137-0.35-1.734-0.35c-1.822,0-3.453,1.083-4.157,2.76
		c-0.168,0.4-0.276,0.817-0.324,1.241H22.973z"/>
	<path d="M16,5.999c-0.276,0-0.5-0.224-0.5-0.5s0.224-0.5,0.5-0.5h5c0.276,0,0.5,0.224,0.5,0.5s-0.224,0.5-0.5,0.5H16z"/>
</g>
</svg>
