<?xml version="1.0" encoding="utf-8"?>
<!-- Generator: Adobe Illustrator 22.1.0, SVG Export Plug-In . SVG Version: 6.00 Build 0)  -->
<svg version="1.1" id="Layer_1" xmlns="http://www.w3.org/2000/svg" xmlns:xlink="http://www.w3.org/1999/xlink" x="0px" y="0px"
	 viewBox="0 0 24 24" style="enable-background:new 0 0 24 24;" xml:space="preserve">
<g>
	<title>designer-community-dribbble</title>
	<path d="M12,24c-3.606,0-6.987-1.605-9.282-4.404c-0.006-0.005-0.011-0.01-0.016-0.014c-0.03-0.031-0.047-0.059-0.057-0.077
		C0.939,17.382,0,14.718,0,12c0-0.421,0.024-0.856,0.071-1.293c0.001-0.012,0.002-0.023,0.005-0.035c0-0.001,0-0.002,0.001-0.003
		c0.42-3.861,2.726-7.305,6.166-9.194c0.023-0.016,0.048-0.029,0.074-0.041C8.053,0.496,10.019,0,12,0
		c3.386,0,6.631,1.447,8.908,3.97c0.012,0.009,0.024,0.019,0.037,0.032c0.023,0.024,0.039,0.048,0.048,0.065
		C22.932,6.263,24,9.079,24,12c0,0.249-0.01,0.51-0.031,0.821c0.001,0.018,0,0.038-0.001,0.052
		c-0.001,0.009-0.003,0.018-0.005,0.026c-0.349,4.682-3.424,8.751-7.841,10.371c-0.005,0.002-0.031,0.011-0.036,0.012
		C14.78,23.758,13.403,24,12,24z M3.754,19.269C5.848,21.643,8.84,23,12,23c1.176,0,2.338-0.188,3.454-0.559
		C15.485,21.947,15.5,21.463,15.5,21c0.002-2.488-0.398-4.959-1.189-7.35C10.377,14.567,6.736,16.505,3.754,19.269z M15.294,13.439
		C16.096,15.9,16.502,18.442,16.5,21c0,0.326-0.008,0.671-0.025,1.045c3.573-1.594,6.016-4.919,6.453-8.803
		c-1.086-0.134-2.175-0.205-3.239-0.211h-0.033C18.199,13.031,16.733,13.168,15.294,13.439z M1.024,11.318
		C1.008,11.558,1,11.783,1,12c0,2.355,0.734,4.593,2.126,6.488c3.073-2.831,6.813-4.826,10.85-5.787
		c-0.36-0.949-0.786-1.885-1.269-2.789C9.932,10.966,7.016,11.5,4.033,11.5H4C3.023,11.5,2.023,11.438,1.024,11.318z M13.639,9.536
		c0.507,0.958,0.952,1.948,1.325,2.95c1.55-0.302,3.128-0.455,4.694-0.455h0.035c1.085,0.006,2.195,0.078,3.305,0.213
		C22.999,12.163,23,12.081,23,12c0-2.52-0.873-4.969-2.464-6.926C18.489,6.953,16.171,8.452,13.639,9.536z M1.131,10.324
		C2.094,10.44,3.058,10.5,4,10.5h0.033c2.808,0,5.558-0.495,8.178-1.471C10.71,6.489,8.784,4.292,6.48,2.491
		C3.614,4.162,1.633,7.065,1.131,10.324z M7.452,1.988c2.289,1.859,4.205,4.1,5.701,6.669c2.469-1.044,4.727-2.499,6.719-4.33
		C17.805,2.209,14.951,1,12,1C10.413,1,8.885,1.332,7.452,1.988z"/>
</g>
</svg>
