<?xml version="1.0" encoding="utf-8"?>
<!-- Generator: Adobe Illustrator 22.1.0, SVG Export Plug-In . SVG Version: 6.00 Build 0)  -->
<svg version="1.1" id="Light" xmlns="http://www.w3.org/2000/svg" xmlns:xlink="http://www.w3.org/1999/xlink" x="0px" y="0px"
	 viewBox="0 0 24 24" style="enable-background:new 0 0 24 24;" xml:space="preserve">
<g>
	<title>flying-insect-bee</title>
	<circle cx="10.25" cy="6.5" r="0.75"/>
	<circle cx="13.75" cy="6.5" r="0.75"/>
	<path d="M3.5,20c-1.654,0-3-1.346-3-3c0-2.046,1.028-4.878,5.927-6.753c0.057-0.022,0.117-0.033,0.178-0.033
		c0.206,0,0.394,0.129,0.467,0.321c0.098,0.257-0.031,0.547-0.288,0.646C4.374,12.104,1.5,13.862,1.5,17c0,1.103,0.897,2,2,2
		s2-0.897,2-2c0-0.276,0.224-0.5,0.5-0.5s0.5,0.224,0.5,0.5C6.5,18.654,5.154,20,3.5,20z"/>
	<path d="M20.5,20c-1.654,0-3-1.346-3-3c0-0.276,0.224-0.5,0.5-0.5s0.5,0.224,0.5,0.5c0,1.103,0.897,2,2,2s2-0.897,2-2
		c0-3.138-2.874-4.896-5.285-5.819c-0.257-0.099-0.387-0.388-0.288-0.646c0.073-0.192,0.261-0.321,0.467-0.321
		c0.061,0,0.121,0.011,0.178,0.033C22.472,12.122,23.5,14.954,23.5,17C23.5,18.654,22.154,20,20.5,20z"/>
	<path d="M12,24c-0.276,0-0.5-0.224-0.5-0.5v-2.541c-1.428-0.227-2.69-1.419-3.408-3.236c-0.012-0.025-0.023-0.051-0.031-0.08
		C7.694,16.685,7.5,15.598,7.5,14.5c0-1.516,0.364-2.98,1.029-4.145c-1.449-1.763-1.35-4.366,0.258-6.006
		c0.481-0.49,1.07-0.866,1.713-1.093V3c0-1.103-0.897-2-2-2C8.224,1,8,0.776,8,0.5S8.224,0,8.5,0c1.654,0,3,1.346,3,3v0.03
		c0.157-0.019,0.308-0.028,0.456-0.03l0.041,0c0.166,0,0.334,0.01,0.503,0.029V3c0-1.654,1.346-3,3-3C15.776,0,16,0.224,16,0.5
		S15.776,1,15.5,1c-1.103,0-2,0.897-2,2v0.256c0.62,0.218,1.175,0.564,1.651,1.03c0.858,0.842,1.337,1.967,1.349,3.169
		c0.01,1.059-0.354,2.082-1.028,2.9c0.664,1.166,1.028,2.629,1.028,4.145c0,1.104-0.196,2.196-0.566,3.159
		c-0.003,0.013-0.012,0.036-0.024,0.06c-0.718,1.82-1.981,3.013-3.41,3.241V23.5C12.5,23.776,12.276,24,12,24z M9.308,18
		c0.666,1.26,1.653,2,2.692,2c1.039,0,2.026-0.74,2.691-2H9.308z M15.114,17c0.206-0.626,0.331-1.297,0.371-2h-6.97
		c0.04,0.702,0.165,1.373,0.371,2H15.114z M15.483,14c-0.119-2.01-0.951-3.791-2.157-4.582c-0.112-0.073-0.188-0.186-0.215-0.316
		c-0.027-0.131-0.002-0.264,0.072-0.376C13.275,8.584,13.431,8.5,13.6,8.5c0.098,0,0.192,0.028,0.274,0.082
		c0.359,0.235,0.694,0.541,1.001,0.91c0.417-0.595,0.631-1.29,0.624-2.027C15.491,6.53,15.118,5.655,14.45,5
		C13.792,4.355,12.92,4,11.996,4l-0.03,0c-0.934,0.009-1.81,0.382-2.464,1.049C8.333,6.24,8.192,8.134,9.126,9.49
		c0.307-0.369,0.642-0.673,1-0.908C10.207,8.528,10.302,8.5,10.4,8.5c0.169,0,0.325,0.084,0.418,0.226
		c0.073,0.111,0.099,0.245,0.071,0.376c-0.027,0.131-0.104,0.243-0.215,0.317C9.468,10.209,8.636,11.989,8.517,14H15.483z"/>
</g>
</svg>
