<?xml version="1.0" encoding="utf-8"?>
<!-- Generator: Adobe Illustrator 22.1.0, SVG Export Plug-In . SVG Version: 6.00 Build 0)  -->
<svg version="1.1" id="Light" xmlns="http://www.w3.org/2000/svg" xmlns:xlink="http://www.w3.org/1999/xlink" x="0px" y="0px"
	 viewBox="0 0 24 24" style="enable-background:new 0 0 24 24;" xml:space="preserve">
<g>
	<title>flying-insect-bee-1</title>
	<path d="M12,24c-0.276,0-0.5-0.224-0.5-0.5v-2.52c-4.942-0.328-5-5.428-5-5.48v-7c0-0.037,0.035-3.648,3-5.001V2
		c0-0.551-0.449-1-1-1s-1,0.449-1,1c0,0.276-0.224,0.5-0.5,0.5S6.5,2.276,6.5,2c0-1.103,0.897-2,2-2s2,0.897,2,2v1.161
		C10.967,3.054,11.47,3,12,3s1.033,0.054,1.5,0.161V2c0-1.103,0.897-2,2-2s2,0.897,2,2c0,0.276-0.224,0.5-0.5,0.5S16.5,2.276,16.5,2
		c0-0.551-0.448-1-1-1s-1,0.449-1,1v1.499c2.965,1.353,3,4.964,3,5.001v7c0,0.052-0.058,5.152-5,5.48v2.52
		C12.5,23.776,12.276,24,12,24z M7.5,15.5c0,0.01,0.014,1.17,0.579,2.291C8.819,19.257,10.138,20,12,20c4.449,0,4.5-4.316,4.5-4.5
		V15h-9V15.5z M16.5,14v-2h-9v2H16.5z M16.5,11V9h-9v2H16.5z M16.458,8c-0.06-0.453-0.201-1.125-0.537-1.791
		c-0.469-0.929-1.175-1.573-2.1-1.913C13.282,4.099,12.672,4,12,4c-0.671,0-1.281,0.098-1.813,0.293C8.14,5.045,7.652,7.073,7.537,8
		H16.458z"/>
	<path d="M18.881,17c-0.276,0-0.5-0.224-0.5-0.5s0.224-0.5,0.5-0.5H21c0.827,0,1.5-0.673,1.5-1.5S21.827,13,21,13
		c-0.276,0-0.5-0.224-0.5-0.5c0-0.276,0.224-0.5,0.5-0.5c0.827,0,1.5-0.673,1.5-1.5S21.827,9,21,9h-2c-0.276,0-0.5-0.224-0.5-0.5
		S18.724,8,19,8h2c1.378,0,2.5,1.121,2.5,2.5c0,0.797-0.375,1.532-1,2c0.625,0.468,1,1.203,1,2c0,1.378-1.122,2.5-2.5,2.5H18.881z"
		/>
	<path d="M3,17c-1.379,0-2.5-1.122-2.5-2.5c0-0.797,0.375-1.532,1-2c-0.625-0.468-1-1.203-1-2C0.5,9.121,1.621,8,3,8h2
		c0.276,0,0.5,0.224,0.5,0.5S5.276,9,5,9H3c-0.827,0-1.5,0.673-1.5,1.5S2.173,12,3,12c0.276,0,0.5,0.224,0.5,0.5
		C3.5,12.776,3.276,13,3,13c-0.827,0-1.5,0.673-1.5,1.5S2.173,16,3,16h2.119c0.276,0,0.5,0.224,0.5,0.5S5.395,17,5.119,17H3z"/>
</g>
</svg>
