<?xml version="1.0" encoding="utf-8"?>
<!-- Generator: Adobe Illustrator 22.1.0, SVG Export Plug-In . SVG Version: 6.00 Build 0)  -->
<svg version="1.1" id="Light" xmlns="http://www.w3.org/2000/svg" xmlns:xlink="http://www.w3.org/1999/xlink" x="0px" y="0px"
	 viewBox="0 0 24 24" style="enable-background:new 0 0 24 24;" xml:space="preserve">
<g>
	<title>flying-insect-bee-2</title>
	<path d="M12,24c-0.087,0-0.173-0.023-0.248-0.066C11.599,23.847,8,21.728,8,16c0.007-0.145,0.022-0.277,0.037-0.408
		c-0.006-0.026-0.011-0.057-0.011-0.092c0-0.067,0.015-0.135,0.045-0.2c0.175-1.177,0.636-2.298,1.338-3.26
		c-0.257-0.218-0.482-0.465-0.675-0.737c-0.691,1.038-2.064,3.099-3.319,4.975c-0.559,0.837-1.517,1.317-2.629,1.317
		c-0.194,0-0.386-0.015-0.572-0.044c-1.061-0.166-1.859-0.754-2.083-1.534c-0.156-0.547-0.103-1.406,1.041-2.395
		c2.933-2.539,6.538-5.633,7.131-6.142C8.473,7.071,8.706,6.697,9,6.363V5c0-1.167,0.678-2.218,1.718-2.709L9.75,1H7.5
		C7.224,1,7,0.776,7,0.5S7.224,0,7.5,0H10c0.157,0,0.306,0.075,0.4,0.2l1.359,1.811C11.844,2.004,11.923,2,12,2
		s0.156,0.004,0.241,0.011L13.6,0.2C13.694,0.075,13.843,0,14,0h2.5C16.776,0,17,0.224,17,0.5S16.776,1,16.5,1h-2.25l-0.968,1.291
		C14.322,2.782,15,3.833,15,5v1.363c0.294,0.333,0.528,0.708,0.696,1.116c0.452,0.388,4.113,3.53,7.131,6.143
		c1.143,0.988,1.197,1.847,1.041,2.394c-0.224,0.781-1.022,1.368-2.083,1.534c-0.186,0.029-0.378,0.044-0.572,0.044
		c-1.112,0-2.07-0.48-2.629-1.317c-1.254-1.875-2.627-3.936-3.319-4.975c-0.192,0.272-0.418,0.519-0.675,0.737
		c0.704,0.965,1.166,2.087,1.34,3.264c0.029,0.064,0.043,0.13,0.043,0.196c0,0.034-0.005,0.064-0.01,0.089
		c0.016,0.139,0.029,0.261,0.035,0.384c0.001,5.753-3.598,7.874-3.751,7.961C12.173,23.977,12.087,24,12,24z M9.416,19
		c0.68,2.269,2.007,3.464,2.583,3.895c0.575-0.432,1.899-1.63,2.581-3.895H9.416z M14.821,18C14.94,17.361,15,16.689,15,16H9.001
		C9.001,16.009,9,16.018,8.999,16.027c0,0.672,0.06,1.339,0.177,1.973H14.821z M15.786,10.28c0.482,0.724,2.14,3.214,3.63,5.443
		c0.508,0.759,1.344,0.873,1.797,0.873c0.141,0,0.282-0.011,0.418-0.032c0.652-0.102,1.165-0.432,1.276-0.821
		c0.108-0.377-0.153-0.861-0.734-1.363c-2.136-1.85-4.635-3.999-6.173-5.321C15.994,9.47,15.922,9.88,15.786,10.28z M8.001,9.058
		c-1.534,1.317-4.026,3.461-6.173,5.32c-0.581,0.502-0.842,0.987-0.734,1.363c0.111,0.389,0.624,0.719,1.276,0.821
		c0.137,0.021,0.277,0.032,0.418,0.032c0.453,0,1.289-0.113,1.797-0.873c1.49-2.228,3.148-4.719,3.63-5.443
		C8.079,9.881,8.007,9.47,8.001,9.058z M14.855,15c-0.194-0.869-0.57-1.694-1.099-2.409C13.21,12.859,12.608,13,12,13
		c-0.608,0-1.21-0.141-1.756-0.409C9.716,13.305,9.34,14.129,9.146,15H14.855z M12,6c-1.654,0-3,1.346-3,3s1.346,3,3,3
		c1.654,0,3-1.346,3-3S13.654,6,12,6z M12,5c0.709,0,1.392,0.186,2,0.541V5c0-1.103-0.897-2-2-2s-2,0.897-2,2v0.541
		C10.608,5.186,11.291,5,12,5z"/>
</g>
</svg>
