<?xml version="1.0" encoding="utf-8"?>
<!-- Generator: Adobe Illustrator 22.1.0, SVG Export Plug-In . SVG Version: 6.00 Build 0)  -->
<svg version="1.1" id="Light" xmlns="http://www.w3.org/2000/svg" xmlns:xlink="http://www.w3.org/1999/xlink" x="0px" y="0px"
	 viewBox="0 0 24 24" style="enable-background:new 0 0 24 24;" xml:space="preserve">
<g>
	<title>flying-insect-butterfly</title>
	<path d="M8.004,23.855c-1.955,0-3.934-1.392-3.934-4.051c0.003-1.611,1.011-3.061,2.469-3.66l-0.107-0.053
		C3.161,14.467,1,13.395,1,10.2C0.998,8.837,1.529,7.553,2.495,6.585s2.248-1.502,3.612-1.504c0.875,0,1.735,0.223,2.493,0.645
		L10,6.503V5.853c0-0.413,0.129-0.813,0.366-1.149L6.647,0.999C6.553,0.905,6.5,0.779,6.5,0.646c0-0.134,0.052-0.259,0.146-0.354
		C6.74,0.197,6.866,0.145,7,0.145c0.133,0,0.259,0.052,0.353,0.146l3.778,3.763C11.402,3.922,11.699,3.853,12,3.853
		c0.3,0,0.596,0.069,0.867,0.2l3.78-3.763C16.741,0.197,16.866,0.145,17,0.145c0.134,0,0.26,0.052,0.354,0.147
		c0.195,0.196,0.194,0.513-0.002,0.707l-3.72,3.703C13.871,5.038,14,5.439,14,5.853v0.652l1.402-0.776
		c0.758-0.422,1.617-0.645,2.485-0.645C20.71,5.086,23.002,7.381,23,10.2c0,3.194-2.161,4.267-5.433,5.891l-0.104,0.052
		c0.483,0.197,0.926,0.49,1.302,0.864c0.749,0.746,1.162,1.739,1.165,2.796c0,2.653-1.975,4.041-3.925,4.041
		c-1.183,0-2.284-0.485-3.1-1.366c-0.372-0.402-0.674-0.88-0.903-1.427c-0.228,0.551-0.53,1.032-0.903,1.437
		C10.285,23.369,9.186,23.855,8.004,23.855z M8.029,16.853c-1.628,0-2.955,1.324-2.959,2.952c0,2.002,1.476,3.05,2.934,3.05
		c0.9,0,1.738-0.372,2.36-1.046c0.663-0.719,1.048-1.762,1.119-3.026C10.624,18.552,10,17.759,10,16.853V7.647L8.113,6.6
		c-0.61-0.34-1.302-0.519-2-0.519c-1.102,0.001-2.134,0.431-2.911,1.21S1.999,9.102,2,10.199c0,2.575,1.63,3.384,4.877,4.996
		c0.448,0.222,0.922,0.458,1.421,0.712c0.209,0.107,0.315,0.34,0.257,0.567c-0.057,0.226-0.253,0.378-0.488,0.378l-0.034,0
		l-0.004-0.25V16.853z M12.517,18.783c0.071,1.258,0.457,2.298,1.122,3.015c0.625,0.675,1.465,1.046,2.366,1.046
		c1.454,0,2.925-1.044,2.925-3.04c-0.003-1.627-1.33-2.951-2.958-2.951l-0.035,0c-0.237,0-0.436-0.155-0.492-0.378
		c-0.057-0.228,0.048-0.461,0.257-0.568c0.498-0.255,0.972-0.49,1.42-0.712C20.37,13.583,22,12.774,22,10.2
		c0.001-1.097-0.427-2.13-1.204-2.908s-1.809-1.207-2.906-1.208l-0.002-0.25v0.25c-0.698,0-1.39,0.179-2,0.519L14,7.648v9.205
		C14,17.758,13.376,18.551,12.517,18.783z M11,16.853c0,0.552,0.449,1,1,1c0.552,0,1-0.448,1-1v-2h-2V16.853z M13,13.853v-2h-2v2H13
		z M13,10.853v-2h-2v2H13z M13,7.853v-2c0-0.551-0.448-1-1-1c-0.551,0-1,0.449-1,1v2H13z"/>
	<path d="M6.5,12.853c-1.379,0-2.5-1.121-2.5-2.5s1.121-2.5,2.5-2.5S9,8.974,9,10.353S7.879,12.853,6.5,12.853z M6.5,8.853
		c-0.827,0-1.5,0.673-1.5,1.5s0.673,1.5,1.5,1.5S8,11.18,8,10.353S7.327,8.853,6.5,8.853z"/>
	<path d="M17.5,12.853c-1.378,0-2.5-1.121-2.5-2.5s1.122-2.5,2.5-2.5s2.5,1.121,2.5,2.5S18.878,12.853,17.5,12.853z M17.5,8.853
		c-0.827,0-1.5,0.673-1.5,1.5s0.673,1.5,1.5,1.5s1.5-0.673,1.5-1.5S18.327,8.853,17.5,8.853z"/>
</g>
</svg>
