<?xml version="1.0" encoding="utf-8"?>
<!-- Generator: Adobe Illustrator 22.1.0, SVG Export Plug-In . SVG Version: 6.00 Build 0)  -->
<svg version="1.1" id="Light" xmlns="http://www.w3.org/2000/svg" xmlns:xlink="http://www.w3.org/1999/xlink" x="0px" y="0px"
	 viewBox="0 0 24 24" style="enable-background:new 0 0 24 24;" xml:space="preserve">
<g>
	<title>flying-insect-moth</title>
	<path d="M8.999,24.001c-0.073,0-0.143-0.015-0.209-0.046c-0.121-0.056-0.214-0.156-0.26-0.281
		c-0.046-0.125-0.041-0.261,0.015-0.382l1.135-2.459c0.081-0.176,0.259-0.291,0.454-0.291c0.073,0,0.143,0.015,0.209,0.046
		c0.121,0.056,0.214,0.156,0.26,0.281c0.046,0.125,0.041,0.261-0.015,0.382L9.453,23.71C9.372,23.887,9.194,24.001,8.999,24.001z"/>
	<path d="M5.449,20.042c-0.165,0-0.319-0.081-0.412-0.216c-0.156-0.227-0.099-0.539,0.127-0.695l2.389-1.649
		c0.084-0.058,0.182-0.088,0.284-0.088c0.164,0,0.318,0.081,0.412,0.216c0.156,0.227,0.099,0.539-0.127,0.696l-2.389,1.649
		C5.648,20.011,5.55,20.042,5.449,20.042z"/>
	<path d="M18.55,20.042c-0.101,0-0.199-0.031-0.283-0.088l-2.39-1.65c-0.227-0.157-0.284-0.469-0.127-0.696
		c0.093-0.135,0.247-0.216,0.412-0.216c0.101,0,0.199,0.031,0.283,0.088l2.39,1.65c0.227,0.157,0.284,0.469,0.127,0.696
		C18.869,19.961,18.715,20.042,18.55,20.042z"/>
	<path d="M15,24.001c-0.195,0-0.373-0.114-0.454-0.291l-1.135-2.459c-0.056-0.121-0.061-0.257-0.015-0.382s0.138-0.225,0.26-0.281
		c0.066-0.031,0.137-0.046,0.209-0.046c0.194,0,0.373,0.114,0.454,0.291l1.135,2.459c0.056,0.121,0.061,0.257,0.015,0.382
		s-0.138,0.225-0.26,0.281C15.143,23.986,15.072,24.001,15,24.001z"/>
	<path d="M11.999,20.001c-2.966,0-3-4.316-3-4.5V12.01c-1.216,1.511-3.161,3.491-5,3.491c-1.856,0-3.44-1.429-3.755-2.764
		c-0.22-0.934,0.165-1.75,1.032-2.183l7.735-3.385C9.048,6.621,9.213,5.385,9.946,4.48C9.701,3.669,8.761,1.001,6.999,1.001H6.904
		C6.385,1.012,5.9,1.225,5.54,1.601C5.18,1.977,4.988,2.47,4.999,2.99C5.005,3.266,4.786,3.495,4.51,3.501
		C4.226,3.497,4.005,3.282,4,3.012C3.965,1.387,5.258,0.036,6.884,0.001h0.126c2.172,0,3.308,2.446,3.767,3.787
		c0.365-0.191,0.775-0.287,1.223-0.287s0.858,0.096,1.223,0.287c0.459-1.341,1.596-3.787,3.777-3.787h0.114
		c0.788,0.017,1.521,0.34,2.066,0.909c0.545,0.569,0.836,1.316,0.82,2.102c-0.006,0.27-0.23,0.489-0.5,0.489
		c-0.286-0.006-0.506-0.235-0.5-0.511c0.011-0.519-0.181-1.013-0.542-1.389s-0.845-0.589-1.364-0.601l-0.083,0
		c-1.775,0-2.714,2.668-2.958,3.479c0.733,0.905,0.898,2.141,0.935,2.689l7.712,3.374c0.885,0.442,1.276,1.26,1.055,2.194
		c-0.315,1.335-1.899,2.764-3.756,2.764c-1.839,0-3.784-1.98-5-3.491v3.491C14.999,15.685,14.965,20.001,11.999,20.001z
		 M10.03,16.001c0.092,0.958,0.465,3,1.97,3c1.507,0,1.879-2.042,1.97-3H10.03z M13.999,15.001v-7h-4L13.999,15.001z M14.999,10.345
		c0.457,0.651,3.007,4.156,5,4.156c1.323,0,2.56-1.053,2.782-1.994c0.115-0.485-0.051-0.831-0.506-1.059l-7.276-3.183V10.345z
		 M1.7,11.459c-0.435,0.218-0.597,0.563-0.483,1.048c0.222,0.941,1.459,1.994,2.782,1.994c1.994,0,4.544-3.504,5-4.156v-2.08
		L1.7,11.459z M13.962,7.001c-0.036-0.296-0.107-0.698-0.249-1.092c-0.342-0.948-0.902-1.408-1.713-1.408
		c-0.811,0-1.372,0.461-1.713,1.408c-0.142,0.394-0.214,0.796-0.249,1.092H13.962z"/>
</g>
</svg>
