<?xml version="1.0" encoding="utf-8"?>
<!-- Generator: Adobe Illustrator 22.1.0, SVG Export Plug-In . SVG Version: 6.00 Build 0)  -->
<svg version="1.1" id="Light" xmlns="http://www.w3.org/2000/svg" xmlns:xlink="http://www.w3.org/1999/xlink" x="0px" y="0px"
	 viewBox="0 0 24 24" style="enable-background:new 0 0 24 24;" xml:space="preserve">
<g>
	<title>flying-insect-moth-1</title>
	<path d="M9,6C7.97,6,7.431,5.075,7.431,4.161c0-0.543,0.176-1.057,0.496-1.447c0.318-0.388,0.754-0.625,1.268-0.692
		C9.55,1.425,10.551,0,12,0c1.448,0,2.449,1.424,2.805,2.021c0.513,0.066,0.949,0.303,1.268,0.693
		c0.32,0.39,0.496,0.904,0.496,1.447C16.569,5.075,16.03,6,15,6H9z M15,5c0.45,0,0.569-0.549,0.569-0.839
		c0-0.308-0.098-0.605-0.27-0.814C15.114,3.12,14.837,3,14.5,3c-0.038-0.001-0.065-0.002-0.093-0.002
		c-0.327,0-0.638,0.088-0.907,0.257V5H15z M12.5,5V3c0-0.15,0.066-0.29,0.181-0.385c0.287-0.237,0.618-0.411,0.973-0.512
		C13.303,1.634,12.699,1,12,1c-0.701,0-1.305,0.633-1.655,1.101c0.354,0.102,0.686,0.276,0.974,0.514C11.434,2.71,11.5,2.85,11.5,3
		v2H12.5z M9.524,3C9.162,3,8.889,3.117,8.7,3.348C8.529,3.557,8.431,3.853,8.431,4.161C8.431,4.451,8.55,5,9,5h1.5V3.254
		c-0.268-0.168-0.575-0.257-0.895-0.257C9.578,2.997,9.551,2.998,9.524,3z"/>
	<path d="M12,24c-1.589,0-2.601-1.464-3.123-2.518C7.584,22.49,6.281,23,5,23c-0.575,0-1.043-0.251-1.316-0.706
		c-0.688-1.146-0.181-3.752,1.55-7.964c-0.376-0.216-0.798-0.329-1.23-0.329c-0.101,0-0.203,0.006-0.303,0.019
		c-0.663,0.08-1.255,0.413-1.668,0.938C1.69,15.396,1.5,15.943,1.5,16.5C1.5,16.776,1.276,17,1,17s-0.5-0.224-0.5-0.5
		c0-0.78,0.265-1.547,0.747-2.159c0.577-0.736,1.406-1.202,2.334-1.314C3.722,13.009,3.865,13,4.006,13
		c0.566,0,1.12,0.137,1.618,0.399c0.219-0.511,0.456-1.043,0.705-1.588C2.932,11.036,0.5,8.011,0.5,4.5C0.5,4.224,0.724,4,1,4
		s0.5,0.224,0.5,0.5c0,3.083,2.249,5.792,5.261,6.379C7.349,9.631,7.877,8.583,8.213,7.93C6.072,7.556,4.5,5.711,4.5,3.5
		C4.5,3.224,4.724,3,5,3s0.5,0.224,0.5,0.5C5.5,5.43,7.07,7,9,7h6c1.93,0,3.5-1.57,3.5-3.5C18.5,3.224,18.724,3,19,3
		s0.5,0.224,0.5,0.5c0,2.211-1.572,4.056-3.713,4.43c0.336,0.655,0.865,1.705,1.451,2.95C20.251,10.292,22.5,7.583,22.5,4.5
		C22.5,4.224,22.724,4,23,4s0.5,0.224,0.5,0.5c0,3.511-2.432,6.536-5.828,7.312c0.25,0.546,0.486,1.078,0.705,1.588
		c0.498-0.262,1.052-0.399,1.619-0.399c0.14,0,0.283,0.008,0.423,0.025c0.928,0.112,1.757,0.579,2.335,1.314
		c0.481,0.613,0.746,1.38,0.746,2.159c0,0.276-0.224,0.5-0.5,0.5s-0.5-0.224-0.5-0.5c0-0.557-0.19-1.104-0.533-1.542
		c-0.412-0.525-1.004-0.859-1.667-0.938c-0.101-0.012-0.203-0.019-0.303-0.019c-0.432,0-0.854,0.113-1.23,0.329
		c1.731,4.212,2.238,6.818,1.551,7.964C20.043,22.749,19.575,23,19,23c-1.281,0-2.584-0.51-3.877-1.518C14.6,22.536,13.588,24,12,24
		z M9.662,20.806C10.008,21.574,10.81,23,12,23c1.189,0,1.992-1.426,2.338-2.194c-0.245-0.231-0.483-0.472-0.708-0.72
		c-0.724-0.796-1.282-1.587-1.63-2.124c-0.348,0.537-0.907,1.328-1.63,2.124C10.145,20.333,9.908,20.575,9.662,20.806z M12.5,16.867
		C12.933,17.61,15.637,22,19,22c0.287,0,0.39-0.106,0.458-0.221c0.623-1.039-0.453-4.725-2.954-10.114
		c-0.467-1.006-0.892-1.874-1.227-2.538c-0.435,1.61-1.435,2.641-2.778,2.838V16.867z M8.722,9.126
		c-0.334,0.662-0.758,1.527-1.221,2.527c-0.003,0.006-0.011,0.024-0.015,0.029c-2.491,5.372-3.568,9.059-2.945,10.097
		C4.61,21.894,4.713,22,5,22c3.363,0,6.067-4.39,6.5-5.133v-4.903C10.158,11.767,9.157,10.737,8.722,9.126z M9.532,8
		c0.105,0.959,0.554,3,2.468,3c1.914,0,2.363-2.041,2.468-3H9.532z"/>
</g>
</svg>
