<?xml version="1.0" encoding="utf-8"?>
<!-- Generator: Adobe Illustrator 22.1.0, SVG Export Plug-In . SVG Version: 6.00 Build 0)  -->
<svg version="1.1" id="Light" xmlns="http://www.w3.org/2000/svg" xmlns:xlink="http://www.w3.org/1999/xlink" x="0px" y="0px"
	 viewBox="0 0 24 24" style="enable-background:new 0 0 24 24;" xml:space="preserve">
<g>
	<title>flying-insect-bees</title>
	<path d="M9.776,23.922c-0.276,0-0.5-0.224-0.5-0.5v-1.328c-1.019-0.304-1.837-0.82-2.434-1.535
		c-1.433-1.717-1.099-3.983-1.061-4.205c0.113-1.524,3.818-1.931,5.995-1.931c2.179,0,5.886,0.408,5.996,1.933
		c0.037,0.223,0.37,2.488-1.062,4.204c-0.597,0.716-1.416,1.232-2.434,1.535v1.328c0,0.276-0.224,0.5-0.5,0.5H9.776z M13.276,22.922
		v-0.608c-0.47,0.072-0.974,0.108-1.5,0.108s-1.03-0.036-1.5-0.108v0.608H13.276z M6.738,17.594
		c0.053,0.719,0.263,1.597,0.874,2.327c0.833,0.996,2.234,1.501,4.164,1.501s3.33-0.505,4.164-1.501
		c0.61-0.729,0.821-1.608,0.874-2.327c-1.208,0.605-3.327,0.828-5.038,0.828C10.065,18.422,7.947,18.2,6.738,17.594z M11.776,15.422
		c-3.234,0-4.91,0.733-5.001,1.011c0.091,0.256,1.767,0.989,5.001,0.989c3.234,0,4.91-0.733,5.001-1.011
		C16.686,16.155,15.011,15.422,11.776,15.422z"/>
	<path d="M6.277,13.172c-0.242,0-0.47-0.12-0.611-0.322c-0.017-0.02-0.035-0.044-0.051-0.075c-0.002-0.004-0.004-0.007-0.005-0.011
		c-0.185-0.358-0.049-0.807,0.305-1.001c0.009-0.005,0.019-0.01,0.029-0.014c0.105-0.052,0.219-0.079,0.333-0.079
		c0.273,0,0.524,0.147,0.656,0.384c0.004,0.005,0.007,0.011,0.01,0.017c0.094,0.176,0.114,0.379,0.055,0.57
		c-0.058,0.191-0.188,0.349-0.365,0.442c-0.024,0.013-0.053,0.025-0.079,0.034c-0.008,0.003-0.017,0.005-0.027,0.007
		C6.442,13.156,6.358,13.172,6.277,13.172z"/>
	<path d="M7.034,11.676c-0.187,0-0.357-0.103-0.443-0.268c-0.126-0.24-0.04-0.533,0.196-0.667c0,0,0,0,0,0
		c-0.002,0,0.394-0.299,1.114-1.62c0.013-0.023,0.026-0.044,0.042-0.065c0.132-0.172,0.189-0.385,0.16-0.6S7.965,8.052,7.793,7.92
		C7.65,7.81,7.48,7.752,7.301,7.752c-0.122,0-0.239,0.027-0.35,0.08c-0.38,0.2-0.572,1.452-0.556,2.239
		c0.005,0.276-0.214,0.504-0.49,0.51c-0.279-0.003-0.505-0.222-0.51-0.49C5.386,9.665,5.401,7.517,6.502,6.938
		c0.26-0.125,0.527-0.186,0.801-0.186c0.399,0,0.779,0.129,1.098,0.374c0.384,0.294,0.63,0.721,0.693,1.2
		c0.061,0.465-0.057,0.928-0.333,1.306c-0.834,1.523-1.324,1.897-1.496,1.987C7.195,11.657,7.115,11.676,7.034,11.676z"/>
	<path d="M3.609,12.992c-0.36,0-0.72-0.036-1.069-0.107l-0.021,0c-0.449,0-0.88-0.166-1.214-0.468
		c-0.359-0.324-0.57-0.769-0.594-1.252c-0.034-0.683,0.313-1.32,0.906-1.661c0.208-0.11,0.442-0.163,0.703-0.163
		c1.053,0,2.299,0.859,2.538,1.031c0.108,0.078,0.18,0.193,0.201,0.325c0.022,0.132-0.01,0.264-0.087,0.373
		c-0.094,0.13-0.245,0.208-0.406,0.208c-0.105,0-0.206-0.033-0.292-0.094c-0.585-0.421-1.445-0.847-1.955-0.847
		c-0.093,0-0.167,0.014-0.22,0.042c-0.252,0.145-0.405,0.429-0.389,0.735c0.011,0.216,0.105,0.416,0.266,0.561
		c0.149,0.135,0.344,0.209,0.547,0.209c0,0,0.047-0.001,0.051-0.001c0.053,0,0.085,0.004,0.118,0.011
		c0.299,0.064,0.608,0.097,0.918,0.097c0.369,0,0.734-0.046,1.088-0.137c0.041-0.01,0.083-0.016,0.125-0.016
		c0.228,0,0.427,0.154,0.484,0.375c0.068,0.267-0.093,0.54-0.36,0.609C4.511,12.935,4.062,12.992,3.609,12.992z"/>
	<circle cx="18.776" cy="13.422" r="0.75"/>
	<path d="M20.026,13.172c-0.276,0-0.5-0.224-0.5-0.5c0-0.271,0.212-0.491,0.483-0.5c-0.01,0,0.479-0.076,1.739-0.916
		c0.021-0.014,0.043-0.026,0.066-0.037c0.198-0.091,0.347-0.253,0.422-0.457c0.075-0.203,0.066-0.423-0.025-0.62
		c-0.129-0.278-0.399-0.458-0.705-0.47c-0.391,0-1.125,0.909-1.534,1.724c-0.086,0.17-0.257,0.276-0.447,0.276
		c-0.077,0-0.155-0.018-0.224-0.053c-0.119-0.06-0.208-0.162-0.25-0.289c-0.042-0.127-0.033-0.262,0.027-0.382
		c0.19-0.38,1.201-2.276,2.447-2.276c0.699,0.026,1.306,0.429,1.594,1.05c0.203,0.439,0.223,0.931,0.056,1.385
		c-0.162,0.44-0.482,0.795-0.902,1.001C20.827,13.069,20.22,13.172,20.026,13.172z"/>
	<path d="M17.526,13.172c-0.194,0-0.801-0.104-2.247-1.064c-0.42-0.206-0.74-0.561-0.902-1.001
		c-0.167-0.454-0.147-0.946,0.056-1.385c0.287-0.621,0.89-1.023,1.574-1.05h0c1.265,0,2.276,1.896,2.466,2.276
		c0.06,0.119,0.069,0.255,0.027,0.382c-0.042,0.127-0.131,0.229-0.251,0.289c-0.069,0.035-0.146,0.053-0.223,0.053l0,0
		c-0.19,0-0.362-0.106-0.447-0.276c-0.417-0.833-1.141-1.724-1.553-1.724c-0.291,0.011-0.557,0.191-0.686,0.47
		c-0.091,0.197-0.1,0.417-0.025,0.62c0.075,0.203,0.224,0.365,0.421,0.456c0.023,0.011,0.046,0.024,0.068,0.038
		c1.267,0.845,1.753,0.917,1.758,0.917c0.259,0.018,0.469,0.25,0.46,0.516C18.012,12.961,17.794,13.172,17.526,13.172z"/>
	<path d="M12.871,6.125c-0.057,0-0.114-0.007-0.17-0.019c-0.4-0.094-0.65-0.494-0.561-0.893c0.001-0.003,0.001-0.007,0.002-0.01
		c0.08-0.34,0.38-0.578,0.73-0.578c0.056,0,0.113,0.006,0.168,0.019c0.002,0,0.004,0.001,0.006,0.001
		c0.397,0.095,0.646,0.494,0.558,0.892c-0.001,0.004-0.001,0.007-0.002,0.01C13.521,5.887,13.221,6.125,12.871,6.125z"/>
	<path d="M14.265,5.433c-0.135,0-0.262-0.052-0.357-0.147c-0.094-0.094-0.146-0.22-0.146-0.354c0-0.275,0.225-0.499,0.5-0.499
		c0.678,0,1.351-0.159,1.953-0.458c0.039-0.02,0.082-0.034,0.125-0.043c0.212-0.043,0.395-0.166,0.514-0.346
		c0.12-0.181,0.162-0.397,0.119-0.609c-0.061-0.301-0.282-0.538-0.577-0.621c-0.012-0.003-0.037-0.005-0.063-0.005
		c-0.506,0-1.44,0.865-1.828,1.328c-0.095,0.114-0.235,0.179-0.384,0.179l0,0c-0.117,0-0.231-0.041-0.321-0.116
		c-0.103-0.086-0.166-0.206-0.177-0.339s0.029-0.263,0.115-0.365c0.235-0.281,1.467-1.684,2.606-1.684
		c0.103,0,0.205,0.012,0.301,0.034c0.675,0.187,1.172,0.719,1.308,1.39c0.096,0.474,0.001,0.957-0.266,1.361
		c-0.254,0.383-0.637,0.651-1.082,0.759c-0.725,0.351-1.533,0.536-2.338,0.536H14.265z"/>
	<path d="M11.829,4.856c-0.038,0-0.077-0.005-0.114-0.013c-0.189-0.045-0.755-0.286-1.941-1.553
		C9.411,2.993,9.181,2.574,9.125,2.109c-0.058-0.48,0.074-0.954,0.372-1.335c0.346-0.441,0.864-0.694,1.422-0.694
		c0.119,0,0.238,0.012,0.355,0.035c1.229,0.291,1.777,2.37,1.875,2.784c0.063,0.269-0.104,0.538-0.372,0.601
		c-0.038,0.009-0.076,0.013-0.115,0.013c-0.232,0-0.433-0.158-0.487-0.385c-0.214-0.907-0.713-1.942-1.114-2.037
		c-0.04-0.008-0.092-0.013-0.142-0.013c-0.248,0-0.479,0.114-0.635,0.312c-0.134,0.171-0.193,0.383-0.167,0.598
		c0.026,0.215,0.134,0.407,0.305,0.541c0.021,0.016,0.04,0.034,0.058,0.054c1.038,1.114,1.494,1.296,1.498,1.297
		c0.248,0.078,0.399,0.352,0.328,0.608C12.248,4.705,12.051,4.856,11.829,4.856z"/>
</g>
</svg>
