<?xml version="1.0" encoding="utf-8"?>
<!-- Generator: Adobe Illustrator 22.1.0, SVG Export Plug-In . SVG Version: 6.00 Build 0)  -->
<svg version="1.1" id="Light" xmlns="http://www.w3.org/2000/svg" xmlns:xlink="http://www.w3.org/1999/xlink" x="0px" y="0px"
	 viewBox="0 0 24 24" style="enable-background:new 0 0 24 24;" xml:space="preserve">
<g>
	<title>flying-insect-dragonfly-1</title>
	<path d="M14.5,6c-0.543,0-1.276-0.658-1.635-1.468c-0.278-0.628-0.556-1.875,0.521-3.407C12.969,1.042,12.505,1,12,1
		c-0.504,0-0.969,0.042-1.386,0.125c1.078,1.533,0.8,2.779,0.521,3.407C10.776,5.342,10.043,6,9.5,6c-0.9,0-2-1.384-2-3
		c0-1.16,0.712-2.077,2.007-2.584C9.552,0.39,9.602,0.371,9.654,0.361C10.327,0.121,11.116,0,12,0c0.884,0,1.673,0.121,2.346,0.361
		c0.052,0.01,0.102,0.029,0.148,0.055C15.788,0.923,16.5,1.84,16.5,3C16.5,4.616,15.4,6,14.5,6z M9.608,1.449
		C9.068,1.712,8.5,2.182,8.5,3c0,1.217,0.763,1.929,0.989,1.996c0.105-0.05,0.539-0.37,0.766-0.952
		C10.473,3.488,10.528,2.594,9.608,1.449z M14.393,1.45c-0.921,1.145-0.865,2.038-0.648,2.595c0.223,0.57,0.642,0.888,0.778,0.951
		C14.749,4.924,15.5,4.231,15.5,3C15.5,2.182,14.932,1.712,14.393,1.45z"/>
	<path d="M12,24c-0.276,0-0.5-0.224-0.5-0.5v-8.161c-0.64,0.683-1.521,1.104-2.471,1.16L5.5,16.5c-1.608,0-4-0.533-4-2
		c0-0.305,0-1.088,4.774-3.121c-1.285-0.214-2.502-0.715-3.564-1.472C1.431,9.059,1.433,8.288,1.549,7.904C1.715,7.355,2.284,7,3,7
		h7.5c0.294,0,1.008,0,1.5,0.507C12.492,7,13.206,7,13.5,7H21c0.716,0,1.285,0.355,1.451,0.904c0.116,0.384,0.117,1.156-1.175,2.013
		c-1.053,0.751-2.266,1.249-3.549,1.463C22.5,13.412,22.5,14.195,22.5,14.5c0,1.467-2.392,2-4,2H15
		c-0.967-0.056-1.856-0.478-2.5-1.161V23.5C12.5,23.776,12.276,24,12,24z M12.5,13c0.08,1.339,1.167,2.421,2.529,2.501L18.5,15.5
		c1.588,0,2.953-0.531,2.999-0.977c-0.195-0.386-2.972-1.814-6.43-3.139c-0.798-0.117-1.821-0.351-2.568-0.82V13z M2.502,14.534
		C2.565,14.977,3.922,15.5,5.5,15.5H9c1.339-0.08,2.421-1.167,2.501-2.529L11.5,10.565c-0.748,0.47-1.772,0.704-2.571,0.821
		C5.5,12.699,2.742,14.115,2.502,14.534z M3,8C2.7,8,2.531,8.113,2.507,8.193C2.468,8.32,2.641,8.662,3.276,9.083
		c1.251,0.891,2.714,1.38,4.236,1.417C9.135,10.5,11.5,9.916,11.5,9c0-1-0.463-1-1-1H3z M13.5,8c-0.537,0-1,0-1,1
		c0,0.929,2.33,1.5,4,1.5c1.512-0.037,2.97-0.524,4.21-1.407c0.647-0.429,0.822-0.773,0.784-0.9C21.469,8.113,21.3,8,21,8H13.5z"/>
</g>
</svg>
