<?xml version="1.0" encoding="utf-8"?>
<!-- Generator: Adobe Illustrator 22.1.0, SVG Export Plug-In . SVG Version: 6.00 Build 0)  -->
<svg version="1.1" id="Layer_1" xmlns="http://www.w3.org/2000/svg" xmlns:xlink="http://www.w3.org/1999/xlink" x="0px" y="0px"
	 viewBox="0 0 24 24" style="enable-background:new 0 0 24 24;" xml:space="preserve">
<g>
	<title>history-urn</title>
	<path d="M7.5,24C6.673,24,6,23.327,6,22.5c0-0.496,0.242-0.948,0.636-1.225c-0.913-1.078-1.668-2.266-2.248-3.535
		c-0.014-0.025-0.026-0.051-0.035-0.079c-0.278-0.616-0.516-1.253-0.707-1.893c-0.054-0.082-0.082-0.173-0.082-0.268
		c0-0.006,0-0.013,0.001-0.022C3.204,14.18,3.014,12.844,3,11.505c0-0.005,0-0.011,0-0.017C3.04,8.975,4.948,7.913,6.482,7.06
		c1.021-0.568,1.901-1.058,2.065-1.798C8.668,4.713,8.396,3.952,7.739,3H7.5C6.673,3,6,2.327,6,1.5S6.673,0,7.5,0h9
		C17.327,0,18,0.673,18,1.5S17.327,3,16.5,3h-0.239c-0.657,0.952-0.929,1.713-0.808,2.262c0.164,0.74,1.045,1.23,2.065,1.798
		c1.537,0.855,3.449,1.919,3.482,4.433c0,0.005,0,0.011,0,0.016c-0.014,1.336-0.204,2.67-0.565,3.966
		c0,0.008,0.001,0.016,0.001,0.025c0,0.096-0.029,0.188-0.083,0.27c-0.195,0.651-0.437,1.297-0.719,1.92
		c-0.001,0.002-0.01,0.023-0.011,0.025c-0.579,1.274-1.339,2.472-2.26,3.56C17.758,21.552,18,22.004,18,22.5
		c0,0.827-0.673,1.5-1.5,1.5H7.5z M7.5,22C7.224,22,7,22.224,7,22.5S7.224,23,7.5,23h9c0.276,0,0.5-0.224,0.5-0.5S16.776,22,16.5,22
		H7.5z M16.277,21c0.822-0.908,1.524-1.915,2.091-3H5.632c0.567,1.085,1.269,2.093,2.091,3H16.277z M18.843,17
		c0.139-0.326,0.268-0.661,0.384-1H17.5c-0.552,0-1-0.448-1-1v-1h-1v1c0,0.552-0.448,1-1,1h-1c-0.552,0-1-0.448-1-1v-1h-1v1
		c0,0.552-0.449,1-1,1h-1c-0.551,0-1-0.448-1-1v-1h-1v1c0,0.552-0.449,1-1,1H4.773c0.116,0.34,0.244,0.675,0.383,1H18.843z M16.5,13
		c0.552,0,1,0.448,1,1v1h2.027c0.257-0.979,0.409-1.986,0.455-3H4.017c0.045,1.013,0.198,2.021,0.455,3H6.5v-1c0-0.552,0.449-1,1-1
		h1c0.551,0,1,0.448,1,1v1h1v-1c0-0.552,0.449-1,1-1h1c0.552,0,1,0.448,1,1v1h1v-1c0-0.552,0.448-1,1-1H16.5z M19.954,11
		c-0.253-1.581-1.609-2.335-2.923-3.066c-1.18-0.657-2.295-1.277-2.555-2.456C14.321,4.77,14.517,3.956,15.075,3h-6.15
		c0.558,0.956,0.754,1.77,0.598,2.478c-0.26,1.18-1.375,1.8-2.555,2.456C5.656,8.664,4.301,9.418,4.046,11H19.954z M7.5,1
		C7.224,1,7,1.224,7,1.5S7.224,2,7.5,2h9C16.776,2,17,1.776,17,1.5S16.776,1,16.5,1H7.5z"/>
</g>
</svg>
