<?xml version="1.0" encoding="utf-8"?>
<!-- Generator: Adobe Illustrator 22.1.0, SVG Export Plug-In . SVG Version: 6.00 Build 0)  -->
<svg version="1.1" id="Layer_1" xmlns="http://www.w3.org/2000/svg" xmlns:xlink="http://www.w3.org/1999/xlink" x="0px" y="0px"
	 viewBox="0 0 24 24" style="enable-background:new 0 0 24 24;" xml:space="preserve">
<g>
	<title>history-africa</title>
	<path d="M11.988,23.925c-1.387,0-2.763-0.37-3.979-1.07c-0.357-0.205-0.702-0.443-1.031-0.711c-0.192,1.01-1.573,1.531-2.191,1.716
		c-0.094,0.028-0.19,0.042-0.287,0.042c-0.097,0-0.193-0.014-0.286-0.042C3.548,23.661,2,23.073,2,21.921
		c0.026-0.773,0.397-1.494,1-1.963v-2.537c0-0.641,0.41-1.205,1.001-1.414C4,15.979,4,15.951,4,15.923
		c0-0.344,0.023-0.694,0.07-1.046c-0.003-0.001-0.006-0.001-0.01-0.002c-0.925-0.221-1.498-1.153-1.277-2.078
		C2.935,12.2,3.13,11.63,3.364,11.1c-0.6-1.581-0.667-2.765-0.21-3.717C3.045,7.065,2.992,6.73,3,6.406
		c0-1.179,1.139-2.419,1.818-3.053C5.003,3.18,5.245,3.085,5.5,3.085c0.255,0,0.497,0.095,0.682,0.268
		C6.255,3.421,6.33,3.493,6.408,3.572c0.384-0.684,0.962-1.298,1.41-1.716C8.003,1.683,8.245,1.588,8.5,1.588
		c0.255,0,0.497,0.095,0.682,0.268C9.37,2.029,9.555,2.217,9.735,2.418c0.376-0.853,1.127-1.637,1.583-2.062
		C11.503,0.183,11.745,0.088,12,0.088c0.255,0,0.497,0.095,0.682,0.268c0.456,0.425,1.207,1.209,1.583,2.065
		c0.18-0.203,0.366-0.392,0.555-0.567c0.184-0.171,0.426-0.266,0.68-0.266c0.255,0,0.497,0.095,0.682,0.268
		c0.447,0.417,1.026,1.031,1.409,1.716c0.078-0.079,0.153-0.151,0.227-0.22c0.185-0.172,0.427-0.267,0.681-0.267
		s0.497,0.095,0.682,0.268C19.861,3.986,21,5.227,21,6.419c0.008,0.313-0.045,0.646-0.153,0.963
		c0.458,0.951,0.392,2.137-0.208,3.723c0.233,0.528,0.427,1.094,0.577,1.686c0.203,0.89-0.292,1.761-1.148,2.037
		c-0.045,0.014-0.091,0.027-0.138,0.038C19.977,15.221,20,15.575,20,15.922c0,0.028,0,0.057-0.001,0.086
		C20.59,16.216,21,16.78,21,17.421v2.501c0.629,0.472,1,1.21,1,1.999c0,1.153-1.548,1.74-2.214,1.939
		c-0.093,0.028-0.189,0.042-0.286,0.042c-0.097,0-0.193-0.014-0.286-0.042c-0.62-0.186-2.003-0.708-2.192-1.707
		c-0.859,0.691-1.865,1.203-2.941,1.493C13.394,23.831,12.69,23.925,11.988,23.925z M6,19.524c0.613,1.021,1.479,1.873,2.508,2.464
		c1.064,0.613,2.268,0.937,3.481,0.937c0.615,0,1.231-0.082,1.832-0.244c1.76-0.474,3.242-1.594,4.179-3.156v-2.104
		c0-0.637,0.41-1.203,0.998-1.413C18.999,15.979,19,15.95,19,15.921c0-0.37-0.031-0.75-0.093-1.13
		c-0.48-0.188-0.852-0.581-1.012-1.075c-0.08-0.253-0.196-0.49-0.344-0.706c-0.537-0.672-1.361-1.072-2.25-1.083
		c-0.429,0.015-0.871,0.086-1.301,0.213c-0.652,0.189-1.325,0.285-2.001,0.285c-0.676,0-1.348-0.095-1.999-0.284
		c-0.43-0.126-0.874-0.198-1.32-0.213c-0.88,0.013-1.701,0.418-2.254,1.112c-0.129,0.189-0.243,0.427-0.32,0.673
		c-0.155,0.498-0.529,0.895-1.015,1.086C5.031,15.177,5,15.555,5,15.923c0,0.028,0.001,0.057,0.001,0.085
		C5.59,16.218,6,16.784,6,17.421V19.524z M4.492,20.421C3.682,20.453,3.027,21.118,3,21.938c0,0.29,0.645,0.708,1.501,0.964
		C5.352,22.647,5.997,22.226,6,21.923C5.971,21.116,5.309,20.453,4.492,20.421z M18.648,20.689C18.242,20.971,18,21.428,18,21.921
		c0,0.303,0.645,0.725,1.5,0.981c0.854-0.256,1.5-0.678,1.5-0.981c0-0.487-0.236-0.94-0.632-1.222
		c-0.084-0.023-0.159-0.067-0.22-0.129c-0.204-0.099-0.421-0.148-0.647-0.148c-0.229,0-0.449,0.051-0.656,0.152
		C18.789,20.626,18.722,20.666,18.648,20.689z M4.5,19.422c0.168,0.005,0.335,0.028,0.5,0.066v-2.067
		c0-0.268-0.219-0.491-0.488-0.498c-0.008,0-0.016-0.001-0.024-0.002C4.218,16.928,4,17.15,4,17.421v2.064
		c0.16-0.037,0.321-0.059,0.483-0.064c0.003,0,0.006,0,0.008,0C4.494,19.422,4.497,19.422,4.5,19.422z M19.5,19.421
		c0.167,0,0.334,0.017,0.5,0.052v-2.052c0-0.276-0.224-0.5-0.5-0.5s-0.5,0.224-0.5,0.5v2.052
		C19.166,19.439,19.333,19.421,19.5,19.421z M4.36,11.33c-0.249,0.528-0.453,1.102-0.607,1.707
		c-0.044,0.182-0.012,0.376,0.089,0.541c0.102,0.165,0.261,0.281,0.449,0.325c0.055,0.013,0.111,0.02,0.167,0.02
		c0.315,0,0.6-0.209,0.693-0.509c0.108-0.345,0.266-0.671,0.471-0.969c0.759-0.955,1.871-1.502,3.062-1.517
		c0.55,0.018,1.083,0.103,1.595,0.253c0.559,0.162,1.137,0.244,1.718,0.244c0.582,0,1.161-0.082,1.722-0.245
		c0.51-0.15,1.038-0.235,1.571-0.253c1.209,0.014,2.321,0.557,3.064,1.488c0.224,0.324,0.382,0.646,0.492,0.996
		c0.096,0.298,0.374,0.499,0.691,0.499c0.075,0,0.15-0.012,0.222-0.035c0.359-0.116,0.567-0.481,0.484-0.849
		c-0.485-1.902-1.879-5.105-5.744-5.105H14c-0.702-0.031-1.372-0.182-2-0.451c-0.628,0.269-1.293,0.42-1.978,0.451l-0.522,0
		c-2.344,0-4.073,1.145-5.138,3.404C4.362,11.326,4.361,11.328,4.36,11.33z M14.5,6.921c2.344,0,4.23,1.022,5.486,2.965
		c0.232-0.881,0.215-1.552-0.047-2.085c-0.31-0.631-0.989-1.089-2.076-1.399c-0.676-0.193-1.258-0.349-1.769-0.485
		c-1.126-0.301-1.932-0.516-2.639-0.844c-0.008-0.004-0.027-0.013-0.035-0.017C12.913,4.821,12.463,4.522,12,4.11
		c-1.144,1.019-2.156,1.29-4.082,1.804c-0.519,0.139-1.103,0.295-1.78,0.488C5.051,6.713,4.372,7.171,4.062,7.803
		C3.8,8.337,3.784,9.007,4.016,9.885C5.271,7.943,7.156,6.921,9.5,6.921H10c0.611-0.028,1.216-0.179,1.784-0.451
		C11.851,6.438,11.926,6.421,12,6.421s0.148,0.017,0.215,0.049c0.57,0.272,1.177,0.424,1.807,0.452L14.5,6.921z M5.499,4.085
		C5.16,4.402,4.074,5.479,4.004,6.333c0.47-0.377,1.084-0.671,1.859-0.892C5.92,5.424,5.977,5.408,6.033,5.392
		C6.009,5.233,5.998,5.073,6,4.914C6,4.822,6.008,4.724,6.024,4.62C5.848,4.424,5.673,4.245,5.501,4.085
		C5.501,4.085,5.499,4.085,5.499,4.085z M18.137,5.441c0.775,0.221,1.388,0.515,1.858,0.891C19.916,5.468,18.839,4.4,18.5,4.084
		c0,0,0,0,0,0.001c-0.174,0.161-0.346,0.337-0.523,0.535C17.992,4.725,18,4.824,18,4.921c0.002,0.155-0.009,0.313-0.033,0.471
		L18.137,5.441z M14.352,4.362c0.54,0.199,1.191,0.373,1.988,0.586c0.205,0.055,0.422,0.113,0.652,0.175
		c0.006-0.065,0.009-0.13,0.008-0.194c0-0.874-1.148-2.013-1.5-2.342c0,0,0,0.001,0,0.001c-0.375,0.345-0.715,0.734-1.015,1.157
		C14.465,3.957,14.421,4.163,14.352,4.362z M8.499,2.588C8.148,2.916,7,4.055,7,4.921C6.999,4.989,7.002,5.056,7.008,5.123
		c0.23-0.062,0.447-0.12,0.652-0.175c0.797-0.213,1.448-0.387,1.988-0.586C9.579,4.163,9.535,3.956,9.516,3.743
		C9.218,3.321,8.877,2.934,8.503,2.59L8.499,2.588z M12,2.921c0.134,0,0.259,0.052,0.354,0.146c0.372,0.372,0.716,0.647,1.086,0.868
		c0.046-0.162,0.066-0.329,0.061-0.497c0-0.884-1.149-2.023-1.5-2.352l-0.001,0.001C11.648,1.416,10.5,2.555,10.5,3.421
		c-0.006,0.178,0.014,0.349,0.06,0.514c0.371-0.221,0.714-0.496,1.086-0.868C11.741,2.973,11.866,2.921,12,2.921z"/>
</g>
</svg>
