<?xml version="1.0" encoding="utf-8"?>
<!-- Generator: Adobe Illustrator 22.1.0, SVG Export Plug-In . SVG Version: 6.00 Build 0)  -->
<svg version="1.1" id="Layer_1" xmlns="http://www.w3.org/2000/svg" xmlns:xlink="http://www.w3.org/1999/xlink" x="0px" y="0px"
	 viewBox="0 0 24 24" style="enable-background:new 0 0 24 24;" xml:space="preserve">
<g>
	<title>history-armor-shield</title>
	<path d="M12,23.988c-5.066,0-9.456-3.435-10.677-8.352c-0.126-0.547,0.209-1.089,0.746-1.214c0.925-0.211,1.658-0.945,1.869-1.868
		c0.148-0.647,0.035-1.312-0.318-1.875c-0.353-0.562-0.903-0.953-1.55-1.1C1.804,9.514,1.582,9.353,1.442,9.124
		C1.302,8.896,1.26,8.627,1.324,8.367c0.985-3.968,4.061-7.045,8.028-8.029c0.869-0.215,1.76-0.325,2.647-0.325
		c5.067,0,9.458,3.435,10.678,8.352c0.063,0.27,0.019,0.542-0.123,0.769c-0.141,0.227-0.363,0.385-0.623,0.445
		c-1.135,0.261-1.929,1.257-1.93,2.422c0.001,1.164,0.795,2.16,1.93,2.421c0.269,0.065,0.491,0.227,0.63,0.456
		c0.139,0.229,0.18,0.497,0.116,0.756c-0.985,3.969-4.061,7.045-8.028,8.029C13.78,23.879,12.889,23.988,12,23.988L12,23.988z
		 M3.24,15.025c-0.297,0.171-0.614,0.295-0.947,0.371c0.644,2.59,2.259,4.778,4.547,6.156c1.562,0.941,3.34,1.438,5.142,1.438
		c0.812,0,1.628-0.1,2.426-0.298c3.607-0.895,6.403-3.691,7.298-7.298c-0.332-0.075-0.649-0.198-0.944-0.367
		c-0.469,2.044-1.636,3.856-3.316,5.135c-1.58,1.202-3.457,1.838-5.427,1.838c-0.406,0-0.819-0.028-1.226-0.083
		C7.068,21.413,4.076,18.664,3.24,15.025z M4.121,14.308c0.568,3.437,3.35,6.15,6.806,6.618c0.362,0.049,0.728,0.074,1.09,0.074
		c1.751,0,3.419-0.565,4.823-1.634c1.63-1.241,2.707-3.031,3.041-5.05c-0.567-0.636-0.879-1.454-0.88-2.317
		c0.001-0.863,0.312-1.681,0.88-2.318c-0.634-3.818-3.999-6.682-7.876-6.682c-0.358,0-0.72,0.025-1.078,0.073
		C7.472,3.542,4.69,6.254,4.121,9.689c0.748,0.843,1.044,1.988,0.793,3.087C4.785,13.342,4.511,13.869,4.121,14.308z M11.999,1.013
		c-0.807,0-1.617,0.099-2.407,0.296C5.986,2.203,3.189,4.999,2.294,8.606c0.334,0.075,0.651,0.198,0.947,0.367
		c0.837-3.637,3.828-6.385,7.551-6.89C11.194,2.028,11.603,2,12.007,2c4.198,0,7.822,2.91,8.754,6.972
		c0.295-0.168,0.612-0.292,0.945-0.369C20.597,4.136,16.605,1.013,11.999,1.013z"/>
	<circle cx="7.25" cy="12" r="0.75"/>
	<circle cx="9.5" cy="6.25" r="0.75"/>
	<circle cx="14.5" cy="6.25" r="0.75"/>
	<circle cx="9.5" cy="17.75" r="0.75"/>
	<circle cx="14.5" cy="17.75" r="0.75"/>
	<circle cx="16.75" cy="12" r="0.75"/>
	<path d="M12,20c-0.276,0-0.5-0.224-0.5-0.5v-5.565c-0.215-0.055-0.419-0.146-0.604-0.268l-3.562,3.205C7.243,16.955,7.124,17,7,17
		c-0.142,0-0.277-0.06-0.372-0.166c-0.089-0.099-0.135-0.227-0.127-0.361c0.007-0.133,0.066-0.256,0.165-0.345l3.561-3.205
		C10.078,12.64,10,12.324,10,12s0.078-0.639,0.227-0.924L6.666,7.872C6.566,7.783,6.508,7.66,6.501,7.527
		C6.494,7.393,6.539,7.265,6.629,7.166C6.723,7.061,6.859,7,7,7c0.124,0,0.243,0.046,0.335,0.129l3.561,3.205
		c0.185-0.122,0.389-0.213,0.604-0.268V4.5C11.5,4.225,11.724,4,12,4c0.276,0,0.5,0.224,0.5,0.5v5.565
		c0.215,0.055,0.419,0.146,0.604,0.268l3.562-3.205C16.757,7.046,16.876,7,17,7c0.141,0,0.277,0.06,0.372,0.166
		c0.184,0.205,0.168,0.522-0.037,0.706l-3.561,3.205C13.922,11.361,14,11.677,14,12c0,0.324-0.078,0.639-0.227,0.924l3.561,3.205
		c0.205,0.184,0.222,0.501,0.037,0.706C17.278,16.94,17.142,17,17,17c-0.124,0-0.242-0.045-0.334-0.128l-3.562-3.206
		c-0.185,0.122-0.389,0.213-0.604,0.268V19.5C12.5,19.776,12.276,20,12,20z M12,11c-0.551,0-1,0.449-1,1c0,0.552,0.449,1,1,1
		c0.552,0,1-0.448,1-1c0-0.243-0.093-0.479-0.26-0.665C12.545,11.119,12.283,11,12,11z"/>
</g>
</svg>
