<?xml version="1.0" encoding="utf-8"?>
<!-- Generator: Adobe Illustrator 22.1.0, SVG Export Plug-In . SVG Version: 6.00 Build 0)  -->
<svg version="1.1" id="Layer_1" xmlns="http://www.w3.org/2000/svg" xmlns:xlink="http://www.w3.org/1999/xlink" x="0px" y="0px"
	 viewBox="0 0 24 24" style="enable-background:new 0 0 24 24;" xml:space="preserve">
<g>
	<title>history-spartan-helmet</title>
	<path d="M9.016,23.899c-0.551,0-0.999-0.448-1-0.999V19.6c0-2.481,2.019-4.5,4.5-4.5c0.276,0,0.5-0.224,0.5-0.5
		c0-0.275-0.224-0.5-0.499-0.5H9.018c-1.103,0-2,0.897-2,2v2.503c0,0.827-0.673,1.5-1.5,1.5s-1.5-0.673-1.5-1.5v-4.5
		c0-4.411,3.589-8,8-8s8,3.589,8,8c-0.02,1.124,0.267,2.224,0.832,3.187c0.065,0.114,0.118,0.23,0.159,0.349
		c0.18,0.516,0.148,1.072-0.09,1.564c-0.238,0.492-0.653,0.862-1.17,1.041L9.343,23.845C9.237,23.881,9.127,23.899,9.016,23.899
		L9.016,23.899z M12.518,13.1c0.826,0.001,1.498,0.674,1.498,1.5c0,0.827-0.673,1.5-1.5,1.5c-1.93,0-3.5,1.57-3.5,3.5v3.3
		l10.405-3.601c0.263-0.091,0.475-0.281,0.597-0.532c0.122-0.251,0.138-0.535,0.046-0.799c-0.021-0.061-0.049-0.121-0.081-0.177
		c-0.655-1.118-0.989-2.397-0.966-3.697c0-3.853-3.14-6.991-7-6.991c-3.86,0-7,3.14-7,7v4.5c0,0.276,0.224,0.5,0.5,0.5
		s0.5-0.224,0.5-0.5V16.1c0-1.654,1.346-3,3-3H12.518z"/>
	<path d="M22.463,14.6c-0.765,0-1.403-0.573-1.484-1.334c-0.263-2.814-1.856-5.371-4.261-6.844
		c-1.264-0.774-2.711-1.227-4.186-1.309c-0.006,0-0.011,0.001-0.016,0.001c-0.013,0-0.029-0.001-0.044-0.004
		c-0.147-0.007-0.293-0.011-0.439-0.011c-3.167,0-6.042,1.606-7.69,4.297C4.251,9.546,4.092,9.635,3.916,9.635
		c-0.09,0-0.179-0.025-0.256-0.071l-3.4-2.035C0.037,7.396-0.047,7.118,0.065,6.884c1.098-2.296,2.872-4.149,5.131-5.361
		c0.011-0.009,0.024-0.019,0.04-0.028c0.015-0.008,0.04-0.019,0.061-0.026c1.708-0.896,3.624-1.37,5.541-1.37
		c0.062,0,0.124,0,0.185,0.001c3.546,0,6.684,1.299,9.07,3.756c1.165,1.2,2.097,2.637,2.769,4.271
		c0.022,0.038,0.031,0.072,0.035,0.088c0.604,1.489,0.97,3.101,1.082,4.774c0.002,0.033,0.003,0.066,0.003,0.098
		c0,0.833-0.677,1.511-1.51,1.513C22.473,14.6,22.463,14.6,22.463,14.6z M21.022,9.767c0.522,1.081,0.842,2.223,0.952,3.399
		c0.026,0.246,0.234,0.433,0.484,0.433c0.149,0,0.277-0.053,0.374-0.151c0.097-0.097,0.15-0.225,0.15-0.362l-0.001-0.03
		c-0.092-1.391-0.36-2.721-0.797-3.961L21.022,9.767z M17.802,5.944c1.094,0.778,2.035,1.789,2.741,2.945l1.269-0.732
		c-0.704-1.601-1.685-2.978-2.92-4.098L17.802,5.944z M3.759,8.458c0.832-1.22,1.93-2.246,3.197-2.988L5.302,2.606
		C3.544,3.638,2.123,5.118,1.172,6.91L3.759,8.458z M13.016,4.144c1.391,0.138,2.715,0.561,3.943,1.262l1.151-1.994
		c-1.491-1.128-3.203-1.851-5.094-2.153V4.144z M7.844,5.009c0.593-0.271,1.209-0.484,1.836-0.635
		c0.769-0.185,1.554-0.279,2.335-0.281V1.139c-0.332-0.026-0.667-0.039-1-0.039c-0.065-0.001-0.125-0.002-0.185-0.002
		c-1.593,0-3.192,0.36-4.643,1.042L7.844,5.009z"/>
</g>
</svg>
