<?xml version="1.0" encoding="utf-8"?>
<!-- Generator: Adobe Illustrator 22.1.0, SVG Export Plug-In . SVG Version: 6.00 Build 0)  -->
<svg version="1.1" id="Layer_1" xmlns="http://www.w3.org/2000/svg" xmlns:xlink="http://www.w3.org/1999/xlink" x="0px" y="0px"
	 viewBox="0 0 24 24" style="enable-background:new 0 0 24 24;" xml:space="preserve">
<g>
	<title>history-witch-cauldron</title>
	<path d="M19.446,23.997c-1.125-0.108-2.051-0.905-2.347-1.982C15.639,22.652,13.842,23,12,23c-1.842,0-3.639-0.348-5.099-0.985
		c-0.295,1.077-1.223,1.874-2.353,1.983C4.54,23.998,4.508,24,4.5,24c-0.259,0-0.473-0.194-0.498-0.452
		c-0.026-0.274,0.176-0.519,0.45-0.545c0.78-0.075,1.413-0.688,1.528-1.455c-0.585-0.342-1.076-0.728-1.462-1.149
		c-0.739-0.806-1.087-1.728-1.005-2.666c0.043-0.35,0.169-0.675,0.366-0.948L4.5,15.849v-0.935c-0.59-0.209-1-0.774-1-1.414
		C3.5,12.673,4.173,12,5,12h3.5V5.5C8.5,5.224,8.724,5,9,5s0.5,0.224,0.5,0.5V12h2V4.5C11.5,4.224,11.724,4,12,4
		c0.276,0,0.5,0.224,0.5,0.5V12h2V6.5C14.5,6.224,14.724,6,15,6s0.5,0.224,0.5,0.5V12H19c0.827,0,1.5,0.673,1.5,1.5
		c0,0.64-0.41,1.205-1,1.414v0.935l0.632,0.948c0.188,0.262,0.312,0.581,0.354,0.915c0.083,0.954-0.264,1.88-1.004,2.687
		c-0.386,0.421-0.877,0.807-1.462,1.149c0.115,0.766,0.748,1.38,1.528,1.455c0.274,0.026,0.476,0.271,0.45,0.545
		C19.973,23.806,19.759,24,19.5,24C19.49,24,19.456,23.998,19.446,23.997z M6.692,20.806c0.03,0.013,0.053,0.028,0.068,0.038
		C8.159,21.587,10.025,22,12,22c1.994,0,3.872-0.42,5.288-1.184c0.595-0.321,1.085-0.689,1.457-1.094
		c0.545-0.594,0.803-1.254,0.747-1.906c-0.019-0.151-0.084-0.315-0.182-0.452l-0.726-1.088C18.529,16.195,18.5,16.099,18.5,16v-1
		h-13v1c0,0.099-0.029,0.195-0.084,0.277L4.7,17.353c-0.109,0.152-0.173,0.313-0.194,0.485c-0.055,0.636,0.204,1.291,0.748,1.885
		C5.621,20.123,6.105,20.487,6.692,20.806z M5,13c-0.276,0-0.5,0.224-0.5,0.5S4.724,14,5,14h14c0.276,0,0.5-0.224,0.5-0.5
		S19.276,13,19,13H5z"/>
	<path d="M14.5,2C14.224,2,14,1.776,14,1.5S14.224,1,14.5,1h1C15.776,1,16,0.776,16,0.5S16.224,0,16.5,0S17,0.224,17,0.5
		C17,1.327,16.327,2,15.5,2H14.5z"/>
	<path d="M15,5c-0.276,0-0.5-0.224-0.5-0.5C14.5,3.673,15.173,3,16,3h1c0.276,0,0.5-0.224,0.5-0.5S17.724,2,18,2s0.5,0.224,0.5,0.5
		C18.5,3.327,17.827,4,17,4h-1c-0.276,0-0.5,0.224-0.5,0.5S15.276,5,15,5z"/>
	<path d="M9,4C8.724,4,8.5,3.776,8.5,3.5C8.5,2.673,9.173,2,10,2h1c0.276,0,0.5-0.224,0.5-0.5S11.724,1,12,1
		c0.276,0,0.5,0.224,0.5,0.5C12.5,2.327,11.827,3,11,3h-1C9.724,3,9.5,3.224,9.5,3.5S9.276,4,9,4z"/>
</g>
</svg>
