<?xml version="1.0" encoding="utf-8"?>
<!-- Generator: Adobe Illustrator 22.1.0, SVG Export Plug-In . SVG Version: 6.00 Build 0)  -->
<svg version="1.1" id="Layer_1" xmlns="http://www.w3.org/2000/svg" xmlns:xlink="http://www.w3.org/1999/xlink" x="0px" y="0px"
	 viewBox="0 0 24 24" style="enable-background:new 0 0 24 24;" xml:space="preserve">
<g>
	<title>history-spartan-mask</title>
	<path d="M15.499,23.729c-0.266,0-0.517-0.104-0.705-0.292c-0.189-0.188-0.294-0.439-0.294-0.707V15.77c0-0.827,0.673-1.5,1.5-1.5h1
		c0.276,0,0.5-0.224,0.5-0.5s-0.224-0.5-0.5-0.5h-3c-0.276,0-0.5,0.224-0.5,0.5v3.793c0.001,0.266-0.103,0.518-0.292,0.707
		l-0.498,0.498c-0.195,0.193-0.445,0.296-0.71,0.296c-0.268,0-0.519-0.105-0.708-0.294l-0.5-0.5
		c-0.189-0.189-0.293-0.441-0.292-0.708V13.77c0-0.276-0.224-0.5-0.5-0.5H7c-0.276,0-0.5,0.224-0.5,0.5s0.224,0.5,0.5,0.5h1
		c0.827,0,1.5,0.673,1.5,1.5v6.96c0,0.226-0.078,0.447-0.219,0.623c-0.19,0.239-0.476,0.376-0.782,0.376
		c-0.225,0-0.447-0.077-0.623-0.218L5.25,21.411C4.138,20.52,3.5,19.193,3.5,17.77v-7c0-0.488,0.235-0.938,0.634-1.22
		c1.1-2.679,3.52-4.63,6.366-5.142V1.77c0-0.827,0.673-1.5,1.5-1.5s1.5,0.673,1.5,1.5v2.638c2.846,0.512,5.266,2.463,6.366,5.142
		c0.398,0.282,0.634,0.733,0.634,1.22v7c0,1.424-0.638,2.75-1.75,3.64l-2.626,2.101c-0.177,0.141-0.398,0.219-0.624,0.219H15.499z
		 M16,15.27c-0.276,0-0.5,0.224-0.5,0.5v6.96l2.625-2.101c0.873-0.699,1.374-1.741,1.375-2.859v-7c0-0.276-0.224-0.5-0.5-0.5h-3
		c-0.065,0-0.129-0.013-0.189-0.037C14.592,9.736,13.31,9.413,12,9.273c-1.31,0.14-2.592,0.463-3.811,0.96
		C8.129,10.257,8.065,10.27,8,10.27H5c-0.276,0-0.5,0.224-0.5,0.5v7c0,1.118,0.501,2.161,1.375,2.86l2.626,2.1l0-6.959
		c0-0.276-0.224-0.5-0.5-0.5H7c-0.827,0-1.5-0.673-1.5-1.5s0.673-1.5,1.5-1.5h3c0.827,0,1.5,0.673,1.5,1.5v3.793l0.5,0.5
		c0.004-0.004,0.501-0.5,0.501-0.5l0-3.793c0-0.827,0.673-1.5,1.5-1.5h3c0.827,0,1.5,0.673,1.5,1.5s-0.673,1.5-1.5,1.5H16z
		 M18.634,9.27c-1.048-1.984-2.928-3.394-5.134-3.844V5.77c0,0.827-0.673,1.5-1.5,1.5s-1.5-0.673-1.5-1.5V5.426
		c-2.206,0.45-4.087,1.86-5.134,3.844h2.537c1.296-0.518,2.657-0.854,4.046-0.997C11.966,8.271,11.983,8.27,12,8.27
		s0.034,0.001,0.051,0.002c1.389,0.144,2.75,0.479,4.046,0.997H18.634z M12,1.27c-0.276,0-0.5,0.224-0.5,0.5v4
		c0,0.276,0.224,0.5,0.5,0.5c0.276,0,0.5-0.224,0.5-0.5v-4C12.5,1.494,12.276,1.27,12,1.27z"/>
</g>
</svg>
