<?xml version="1.0" encoding="utf-8"?>
<!-- Generator: Adobe Illustrator 22.1.0, SVG Export Plug-In . SVG Version: 6.00 Build 0)  -->
<svg version="1.1" id="Layer_1" xmlns="http://www.w3.org/2000/svg" xmlns:xlink="http://www.w3.org/1999/xlink" x="0px" y="0px"
	 viewBox="0 0 24 24" style="enable-background:new 0 0 24 24;" xml:space="preserve">
<g>
	<title>history-indian-eagle</title>
	<path d="M16.5,24c-0.276,0-0.5-0.224-0.5-0.5V23h-2v0.5c0,0.276-0.224,0.5-0.5,0.5S13,23.776,13,23.5V23h-2v0.5
		c0,0.276-0.224,0.5-0.5,0.5S10,23.776,10,23.5V23H8v0.5C8,23.776,7.776,24,7.5,24S7,23.776,7,23.5v-2
		c0-0.134,0.052-0.259,0.146-0.354L9,19.292C9.19,19.104,9.441,19,9.707,19h4.586c0.266,0,0.517,0.104,0.706,0.292l1.854,1.854
		C16.948,21.241,17,21.366,17,21.5v2C17,23.776,16.776,24,16.5,24z M16,22v-0.293L14.292,20l-4.586,0L8,21.707V22H16z"/>
	<path d="M10,6C9.449,6,9,5.551,9,5H4.5C4.326,5,4.167,4.911,4.075,4.763c-0.092-0.149-0.1-0.33-0.022-0.486L5,2.382
		C5.426,1.53,6.283,1,7.236,1H9c0-0.551,0.449-1,1-1h1.793c0.267,0,0.517,0.104,0.706,0.292L14.708,2.5
		C14.896,2.69,15,2.941,15,3.207V5c0,0.551-0.448,1-1,1H10z M10,5h4V3.207L11.792,1L10,1v1h1.5C11.776,2,12,2.224,12,2.5
		S11.776,3,11.5,3H10V5z M9,4V2H7.236C6.664,2,6.15,2.318,5.894,2.829L5.309,4H9z"/>
	<path d="M9.5,18c-2.786,0-5.421-1.221-7.234-3.352c-0.013-0.01-0.028-0.024-0.043-0.041c-0.009-0.011-0.02-0.028-0.03-0.044
		c-1.048-1.261-1.754-2.776-2.042-4.385c-0.003-0.009-0.005-0.019-0.007-0.027c-0.002-0.01-0.003-0.021-0.003-0.032
		C0.048,9.585,0,9.037,0,8.5V8c0-0.551,0.449-1,1-1h22c0.552,0,1,0.449,1,1v0.5c0,0.534-0.048,1.08-0.141,1.622
		c-0.001,0.01-0.002,0.019-0.003,0.027c-0.002,0.009-0.004,0.02-0.007,0.03c-0.284,1.6-0.99,3.119-2.04,4.382
		c-0.008,0.014-0.017,0.029-0.03,0.044c-0.01,0.012-0.026,0.027-0.042,0.04C19.923,16.778,17.287,18,14.5,18H9.5z M14,17V8h-4v9H14z
		 M7.068,16.643C7.695,16.83,8.343,16.944,9,16.983v-1.807L3.26,8H1v0.5c0,0.324,0.019,0.653,0.057,0.981l1.462-0.258
		c0.029-0.005,0.058-0.008,0.087-0.008c0.243,0,0.45,0.174,0.492,0.413c0.023,0.131-0.006,0.264-0.083,0.374
		c-0.077,0.109-0.191,0.182-0.323,0.206L1.23,10.466c0.265,1.113,0.764,2.176,1.454,3.102l1.133-0.951
		c0.09-0.076,0.204-0.117,0.322-0.117c0.148,0,0.288,0.065,0.383,0.179c0.086,0.102,0.126,0.231,0.115,0.365
		c-0.012,0.133-0.074,0.254-0.177,0.34l-1.133,0.951c0.791,0.836,1.752,1.51,2.803,1.966l0.507-1.393
		c0.071-0.197,0.26-0.329,0.47-0.329c0.058,0,0.116,0.01,0.171,0.03c0.125,0.045,0.225,0.137,0.282,0.258
		c0.056,0.121,0.062,0.257,0.017,0.383L7.068,16.643z M15,16.983c0.657-0.038,1.305-0.152,1.932-0.34l-0.507-1.394
		c-0.046-0.125-0.04-0.261,0.017-0.382c0.056-0.121,0.157-0.213,0.282-0.259c0.054-0.02,0.112-0.03,0.17-0.03
		c0.21,0,0.398,0.132,0.47,0.329l0.507,1.393c1.051-0.457,2.012-1.13,2.803-1.966l-1.133-0.951
		c-0.102-0.085-0.165-0.206-0.177-0.339c-0.012-0.133,0.029-0.263,0.115-0.365c0.095-0.113,0.234-0.178,0.383-0.178
		c0.117,0,0.231,0.042,0.321,0.117l1.133,0.951c0.69-0.926,1.188-1.989,1.454-3.102l-1.463-0.258
		c-0.132-0.023-0.246-0.096-0.323-0.206c-0.077-0.109-0.106-0.242-0.083-0.374c0.042-0.239,0.249-0.413,0.491-0.413
		c0.029,0,0.059,0.003,0.088,0.008l1.461,0.258C22.981,9.153,23,8.824,23,8.5V8h-2.26L15,15.176V16.983z M9,13.575V8H4.54L9,13.575z
		 M15,13.574L19.459,8H15V13.574z"/>
</g>
</svg>
