<?xml version="1.0" encoding="utf-8"?>
<!-- Generator: Adobe Illustrator 22.1.0, SVG Export Plug-In . SVG Version: 6.00 Build 0)  -->
<svg version="1.1" id="Layer_1" xmlns="http://www.w3.org/2000/svg" xmlns:xlink="http://www.w3.org/1999/xlink" x="0px" y="0px"
	 viewBox="0 0 24 24" style="enable-background:new 0 0 24 24;" xml:space="preserve">
<g>
	<title>history-sphinx</title>
	<path d="M9.5,12c-0.875,0-1.619-0.403-1.891-1H6.5C6.224,11,6,10.776,6,10.5S6.224,10,6.5,10h1.109C7.881,9.403,8.625,9,9.5,9
		c1.121,0,2,0.659,2,1.5S10.621,12,9.5,12z M9.5,10c-0.563,0-1,0.269-1,0.5s0.437,0.5,1,0.5s1-0.269,1-0.5S10.063,10,9.5,10z"/>
	<path d="M14.5,12c-1.122,0-2-0.659-2-1.5s0.878-1.5,2-1.5c0.875,0,1.619,0.403,1.891,1H17.5c0.276,0,0.5,0.224,0.5,0.5
		S17.776,11,17.5,11h-1.109C16.119,11.597,15.375,12,14.5,12z M14.5,10c-0.563,0-1,0.269-1,0.5s0.437,0.5,1,0.5s1-0.269,1-0.5
		S15.063,10,14.5,10z"/>
	<path d="M11.449,24.003c-0.514,0-0.941-0.383-0.997-0.89l-0.371-3.338C9.714,19.684,9.352,19.567,9,19.424V22.5
		C9,23.327,8.327,24,7.5,24h-2C4.673,24,4,23.327,4,22.5v-2C4,20.224,3.776,20,3.5,20H2.389C1.072,20,0,18.928,0,17.611
		c0-0.065,0-0.187,0.459-4.044l0.016-0.137c0.358-3.035,1.588-5.869,3.559-8.198c0.503-0.594,1.085-1.125,1.731-1.578
		C5.774,3.646,5.783,3.64,5.792,3.635c1.297-0.908,2.822-1.461,4.417-1.599L9.915,1.448C9.795,1.209,9.776,0.938,9.86,0.685
		c0.084-0.254,0.262-0.459,0.501-0.579C10.499,0.037,10.654,0,10.809,0h2.382c0.552,0,1,0.449,1,1c0,0.155-0.037,0.31-0.106,0.448
		l-0.293,0.588c1.592,0.138,3.115,0.689,4.428,1.605c0.005,0.004,0.011,0.007,0.016,0.011c0.645,0.453,1.228,0.984,1.731,1.578
		c1.971,2.33,3.202,5.163,3.559,8.194l0.021,0.18C24,17.427,24,17.547,24,17.611C24,18.928,22.928,20,21.611,20H20.5
		c-0.276,0-0.5,0.224-0.5,0.5v2c0,0.827-0.673,1.5-1.5,1.5h-2c-0.827,0-1.5-0.673-1.5-1.5v-3.077
		c-0.35,0.141-0.713,0.257-1.083,0.348l-0.371,3.342c-0.057,0.507-0.484,0.89-0.994,0.89H11.449z M11.446,23.003l1.103,0
		l0.341-3.048c-0.031,0.004-0.063,0.007-0.094,0.01c-0.271,0.027-0.543,0.041-0.81,0.041c-0.288,0-0.583-0.017-0.878-0.05
		L11.446,23.003z M16,22.5c0,0.276,0.224,0.5,0.5,0.5h2c0.276,0,0.5-0.224,0.5-0.5v-2c0-0.827,0.673-1.5,1.5-1.5h1.111
		C22.377,19,23,18.377,23,17.611c-0.002-0.04-0.041-0.466-0.447-3.888c-0.006-0.047-0.011-0.093-0.014-0.137
		c-0.002-0.011-0.007-0.041-0.007-0.043c-0.334-2.836-1.485-5.486-3.329-7.666c-0.328-0.387-0.693-0.745-1.09-1.066L17.383,6.09
		c1.466,1.332,2.379,3.142,2.577,5.119c0.213,2.126-0.415,4.208-1.768,5.862c-0.618,0.755-1.354,1.382-2.192,1.865V22.5z
		 M1.463,13.58c-0.003,0.036-0.007,0.072-0.011,0.106C1.041,17.14,1.002,17.572,1,17.623C1,18.378,1.623,19,2.389,19H3.5
		C4.327,19,5,19.673,5,20.5v2C5,22.776,5.224,23,5.5,23h2C7.776,23,8,22.776,8,22.5v-3.566c-0.375-0.217-0.733-0.465-1.066-0.737
		c-1.654-1.353-2.682-3.269-2.895-5.396c-0.213-2.126,0.415-4.208,1.768-5.862C6.051,6.642,6.323,6.357,6.617,6.09l-0.73-1.279
		C5.491,5.132,5.126,5.49,4.798,5.877c-1.843,2.178-2.994,4.828-3.329,7.662C1.469,13.54,1.465,13.569,1.463,13.58z M10.687,18.884
		c0.427,0.081,0.865,0.122,1.301,0.122c0.235,0,0.474-0.012,0.709-0.036c0.207-0.021,0.423-0.053,0.644-0.095
		c0,0,0.016-0.003,0.023-0.004c0.667-0.133,1.298-0.356,1.888-0.665c0.007-0.005,0.033-0.021,0.067-0.034
		c0.805-0.433,1.512-1.017,2.099-1.735c2.322-2.838,2.065-6.931-0.544-9.455l-0.152,0.266C16.454,7.712,15.956,8,15.422,8H8.58
		C8.044,8,7.546,7.713,7.279,7.25l-0.15-0.263C6.922,7.184,6.742,7.378,6.582,7.573c-1.184,1.447-1.734,3.269-1.547,5.129
		c0.186,1.861,1.086,3.537,2.533,4.721c0.349,0.286,0.727,0.539,1.123,0.753c0.028,0.012,0.049,0.025,0.063,0.034
		c0.578,0.305,1.207,0.529,1.857,0.66c0,0,0,0,0,0C10.62,18.869,10.651,18.873,10.687,18.884z M15.42,7
		c0.18,0,0.346-0.096,0.435-0.25l1.439-2.522c-1.127-0.702-2.41-1.116-3.74-1.206L13.953,7H15.42z M12.947,7l-0.431-4.306
		c-0.003-0.035-0.005-0.068-0.005-0.102C12.505,2.566,12.5,2.536,12.5,2.5c0-0.09,0.025-0.176,0.076-0.257
		c0.012-0.033,0.027-0.065,0.042-0.097l0.573-1.146c0,0-2.382,0-2.382,0l0.574,1.147c0.016,0.031,0.03,0.063,0.042,0.096
		C11.475,2.325,11.5,2.411,11.5,2.5c0,0.037-0.006,0.068-0.012,0.092c0,0.034-0.001,0.067-0.005,0.101L11.052,7H12.947z
		 M8.146,6.752C8.234,6.905,8.4,7,8.578,7h1.47l0.398-3.978c-1.329,0.09-2.612,0.504-3.739,1.206L8.146,6.752z"/>
</g>
</svg>
