<?xml version="1.0" encoding="utf-8"?>
<!-- Generator: Adobe Illustrator 22.1.0, SVG Export Plug-In . SVG Version: 6.00 Build 0)  -->
<svg version="1.1" id="Layer_1" xmlns="http://www.w3.org/2000/svg" xmlns:xlink="http://www.w3.org/1999/xlink" x="0px" y="0px"
	 viewBox="0 0 24 24" style="enable-background:new 0 0 24 24;" xml:space="preserve">
<g>
	<title>history-chinese-urn</title>
	<path d="M8,24c-0.827,0-1.5-0.673-1.5-1.5c0-0.623,0.382-1.158,0.923-1.385C6.5,20.586,5.61,19.832,4.815,18.901
		c-0.068-0.049-0.122-0.114-0.157-0.188C2.993,16.679,2,14.173,2,12V5.5C2,4.121,3.121,3,4.5,3S7,4.121,7,5.5v0.203
		c0.151-0.05,0.293-0.094,0.434-0.134C8.357,5.309,9,4.458,9,3.5C9,3.224,8.776,3,8.5,3h-1C6.673,3,6,2.327,6,1.5S6.673,0,7.5,0h9
		C17.327,0,18,0.673,18,1.5S17.327,3,16.5,3h-1C15.224,3,15,3.224,15,3.5c0,0.958,0.645,1.808,1.566,2.069
		c0.141,0.04,0.283,0.084,0.434,0.134V5.5C17,4.121,18.122,3,19.5,3S22,4.121,22,5.5V12c0,2.174-0.993,4.681-2.659,6.714
		c-0.035,0.073-0.087,0.136-0.155,0.185c-0.795,0.932-1.686,1.687-2.61,2.216c0.542,0.226,0.923,0.762,0.923,1.385
		c0,0.827-0.673,1.5-1.5,1.5H8z M8,22c-0.276,0-0.5,0.224-0.5,0.5S7.724,23,8,23h8c0.276,0,0.5-0.224,0.5-0.5S16.276,22,16,22H8z
		 M6.246,19c1.339,1.294,2.833,2,4.254,2h3c1.421,0,2.915-0.706,4.254-2H6.246z M18.661,18C20.106,16.191,21,13.903,21,12
		c0-1.655-0.596-3.001-1.773-4H4.773C3.596,8.999,3,10.345,3,12c0,1.903,0.894,4.191,2.339,6H18.661z M4.5,4C3.673,4,3,4.673,3,5.5
		v3.021c0.331-0.5,0.743-0.953,1.229-1.353c0.043-0.049,0.093-0.087,0.148-0.115C4.857,6.68,5.402,6.356,6,6.087V5.5
		C6,4.673,5.327,4,4.5,4z M19.771,7.168c0.487,0.4,0.898,0.853,1.229,1.353V5.5C21,4.673,20.327,4,19.5,4S18,4.673,18,5.5v0.587
		c0.598,0.269,1.143,0.593,1.623,0.966C19.678,7.081,19.728,7.119,19.771,7.168z M17.598,7c-0.404-0.181-0.84-0.338-1.304-0.469
		C14.944,6.15,14,4.903,14,3.5C14,2.673,14.673,2,15.5,2h1C16.776,2,17,1.776,17,1.5S16.776,1,16.5,1h-9C7.224,1,7,1.224,7,1.5
		S7.224,2,7.5,2h1C9.327,2,10,2.673,10,3.5c0,1.404-0.943,2.651-2.295,3.031C7.242,6.662,6.806,6.819,6.402,7H17.598z"/>
	<path d="M10,17c-0.134,0-0.259-0.052-0.354-0.146L8.5,15.707l-1.146,1.146C7.259,16.948,7.134,17,7,17s-0.259-0.052-0.354-0.146
		S6.5,16.634,6.5,16.5s0.052-0.259,0.146-0.354L8,14.793V14.14l-1.379,0.344C6.582,14.495,6.541,14.5,6.5,14.5
		c-0.23,0-0.429-0.156-0.485-0.379c-0.032-0.129-0.012-0.264,0.056-0.378s0.178-0.195,0.307-0.228L8,13.11v-0.175
		C7.131,12.709,6.5,11.913,6.5,11c0-1.103,0.897-2,2-2s2,0.897,2,2c0,0.913-0.631,1.709-1.5,1.934v0.175l1.621,0.406
		c0.13,0.032,0.239,0.113,0.307,0.228s0.089,0.249,0.056,0.378C10.929,14.344,10.73,14.5,10.5,14.5
		c-0.041,0-0.082-0.005-0.122-0.015L9,14.14v0.653l1.354,1.354c0.094,0.094,0.146,0.22,0.146,0.354s-0.052,0.259-0.146,0.354
		S10.134,17,10,17z M8.5,10c-0.551,0-1,0.449-1,1s0.449,1,1,1s1-0.449,1-1S9.051,10,8.5,10z"/>
	<path d="M17,17c-0.134,0-0.259-0.052-0.354-0.146L15.5,15.707l-1.146,1.146C14.259,16.948,14.134,17,14,17
		s-0.259-0.052-0.354-0.146S13.5,16.634,13.5,16.5s0.052-0.259,0.146-0.354L15,14.793V14.14l-1.379,0.344
		c-0.039,0.01-0.08,0.015-0.121,0.015c-0.23,0-0.429-0.156-0.485-0.379c-0.032-0.129-0.012-0.263,0.056-0.378
		c0.069-0.115,0.178-0.196,0.308-0.228L15,13.11v-0.175c-0.869-0.225-1.5-1.021-1.5-1.934c0-1.103,0.897-2,2-2s2,0.897,2,2
		c0,0.913-0.631,1.709-1.5,1.934v0.175l1.621,0.406c0.13,0.032,0.239,0.113,0.308,0.228c0.069,0.115,0.089,0.249,0.056,0.378
		C17.929,14.344,17.73,14.5,17.5,14.5c-0.041,0-0.082-0.005-0.122-0.015L16,14.14v0.653l1.354,1.354
		c0.094,0.094,0.146,0.22,0.146,0.354s-0.052,0.259-0.146,0.354S17.134,17,17,17z M15.5,10c-0.552,0-1,0.449-1,1s0.448,1,1,1
		s1-0.449,1-1S16.052,10,15.5,10z"/>
</g>
</svg>
