<?xml version="1.0" encoding="utf-8"?>
<!-- Generator: Adobe Illustrator 22.1.0, SVG Export Plug-In . SVG Version: 6.00 Build 0)  -->
<svg version="1.1" id="Layer_1" xmlns="http://www.w3.org/2000/svg" xmlns:xlink="http://www.w3.org/1999/xlink" x="0px" y="0px"
	 viewBox="0 0 24 24" style="enable-background:new 0 0 24 24;" xml:space="preserve">
<g>
	<title>history-middle-east</title>
	<path d="M5.003,4c-1.103,0-2-0.897-2-2s0.897-2,2-2s2,0.897,2,2S6.106,4,5.003,4z M5.003,1c-0.551,0-1,0.449-1,1s0.449,1,1,1
		s1-0.449,1-1S5.554,1,5.003,1z"/>
	<path d="M15.003,10c-1.935-0.088-3.726-0.906-5.044-2.306c-0.373-0.38-0.372-1.007,0.007-1.393C11.277,4.907,13.06,4.089,14.98,4
		c1.956,0.088,3.747,0.906,5.065,2.304c0.373,0.383,0.372,1.01-0.005,1.394C18.728,9.093,16.946,9.911,15.026,10
		c-0.004,0-0.008,0-0.011,0C15.011,10,15.007,10,15.003,10z M14.991,5c-1.641,0.08-3.169,0.787-4.305,1.994
		c1.138,1.222,2.68,1.931,4.339,2.007c1.622-0.077,3.155-0.785,4.293-1.994C19.313,7,19.311,6.983,19.306,6.977
		C18.183,5.786,16.646,5.079,14.991,5z"/>
	<path d="M15.003,9c-1.103,0-2-0.897-2-2s0.897-2,2-2s2,0.897,2,2S16.106,9,15.003,9z M15.003,6c-0.552,0-1,0.449-1,1s0.448,1,1,1
		s1-0.449,1-1S15.554,6,15.003,6z"/>
	<path d="M14.003,24c-0.827,0-1.5-0.673-1.5-1.5c0-0.049,0.007-0.097,0.021-0.145c0.216-0.714,0.545-1.39,0.979-2.011v-1.361
		c-1.131-0.057-2.137-0.306-3-0.743v1.104c0.433,0.62,0.762,1.296,0.979,2.01c0.014,0.048,0.021,0.096,0.021,0.145
		c0,0.827-0.673,1.5-1.5,1.5s-1.5-0.673-1.5-1.5c0-0.049,0.007-0.097,0.021-0.144c0.216-0.715,0.545-1.391,0.979-2.011v-1.746
		c-0.052-0.042-0.104-0.084-0.154-0.128c-0.233,0.696-0.724,1.269-1.391,1.611C7.079,19.643,6.064,19.961,5.021,20
		c-1.073-0.039-2.094-0.356-2.973-0.918c-1.381-0.708-1.94-2.409-1.245-3.799l1.306-2.612c0.258-0.516,0.394-1.094,0.394-1.67V8.5
		c0-0.276,0.224-0.5,0.5-0.5s0.5,0.224,0.5,0.5V11c0,0.731-0.173,1.463-0.5,2.118L1.697,15.73c-0.454,0.908-0.084,2.016,0.823,2.47
		c0.017,0.009,0.032,0.017,0.046,0.026C3.301,18.7,4.149,18.968,5.021,19c0.842-0.033,1.683-0.3,2.416-0.773
		c0.013-0.009,0.029-0.018,0.046-0.027c0.49-0.245,0.834-0.682,0.961-1.202c-0.8-0.031-1.442-0.691-1.442-1.499
		c0-0.471,0.224-0.909,0.596-1.19l-0.596-1.192c-0.327-0.654-0.5-1.386-0.5-2.118V8.5c0-0.276,0.224-0.5,0.5-0.5s0.5,0.224,0.5,0.5
		V11c0,0.577,0.136,1.155,0.394,1.67l0.665,1.331c0.8,0.031,1.44,0.692,1.44,1.499c0,0.337-0.111,0.655-0.317,0.917
		C10.394,17.174,11.695,18,14.003,18c5.548,0,7.5-6.571,7.519-6.637C21.583,11.149,21.78,11,22.002,11
		c0.023,0,0.046,0.002,0.07,0.005c0.245,0.034,0.43,0.247,0.43,0.495v3.845c0.434,0.621,0.763,1.297,0.979,2.01
		c0.014,0.047,0.021,0.096,0.021,0.145c0,0.827-0.673,1.5-1.5,1.5s-1.5-0.673-1.5-1.5c0-0.049,0.007-0.097,0.021-0.145
		c0.216-0.714,0.545-1.39,0.979-2.011v-1.431c-0.65,1.199-1.62,2.568-3,3.591v1.84c0.434,0.621,0.763,1.297,0.979,2.01
		c0.014,0.047,0.021,0.096,0.021,0.145c0,0.827-0.673,1.5-1.5,1.5s-1.5-0.673-1.5-1.5c0-0.049,0.007-0.097,0.021-0.145
		c0.216-0.714,0.545-1.39,0.979-2.011v-1.208c-0.931,0.494-1.937,0.778-3,0.845v1.363c0.434,0.621,0.763,1.297,0.979,2.01
		c0.014,0.047,0.021,0.096,0.021,0.145C15.503,23.327,14.83,24,14.003,24z M13.507,22.563C13.538,22.811,13.748,23,14.003,23
		s0.465-0.189,0.496-0.437c-0.126-0.397-0.293-0.78-0.496-1.143C13.799,21.783,13.633,22.166,13.507,22.563z M17.507,21.563
		C17.538,21.811,17.748,22,18.003,22s0.465-0.189,0.496-0.437c-0.126-0.397-0.293-0.78-0.496-1.143
		C17.799,20.783,17.633,21.166,17.507,21.563z M9.507,21.563C9.538,21.811,9.748,22,10.003,22s0.465-0.189,0.496-0.437
		c-0.126-0.397-0.292-0.78-0.496-1.142C9.799,20.783,9.633,21.166,9.507,21.563z M21.507,17.563C21.538,17.811,21.748,18,22.003,18
		s0.465-0.189,0.496-0.437c-0.126-0.397-0.293-0.78-0.496-1.143C21.799,16.783,21.633,17.166,21.507,17.563z M8.503,15
		c-0.276,0-0.5,0.224-0.5,0.5s0.224,0.5,0.5,0.5s0.5-0.224,0.5-0.5S8.779,15,8.503,15z"/>
</g>
</svg>
