<?xml version="1.0" encoding="utf-8"?>
<!-- Generator: Adobe Illustrator 22.1.0, SVG Export Plug-In . SVG Version: 6.00 Build 0)  -->
<svg version="1.1" id="Layer_1" xmlns="http://www.w3.org/2000/svg" xmlns:xlink="http://www.w3.org/1999/xlink" x="0px" y="0px"
	 viewBox="0 0 24 24" style="enable-background:new 0 0 24 24;" xml:space="preserve">
<g>
	<title>history-caveman-symbols</title>
	<path d="M22.5,14.011c-0.827,0-1.5-0.673-1.5-1.5V7.213l-5-4.166v9.464c0,0.827-0.673,1.5-1.5,1.5s-1.5-0.673-1.5-1.5v-11
		c0-0.827,0.673-1.5,1.5-1.5h2c0.351,0,0.691,0.124,0.96,0.348l6,5C23.803,5.645,24,6.065,24,6.511v6
		C24,13.338,23.327,14.011,22.5,14.011z M16.138,2.011c0.116,0,0.23,0.041,0.32,0.116l5.363,4.468C21.935,6.69,22,6.83,22,6.979
		v5.532c0,0.276,0.224,0.5,0.5,0.5s0.5-0.224,0.5-0.5v-6c0-0.149-0.066-0.289-0.18-0.384l-6-5c-0.09-0.075-0.203-0.116-0.32-0.116
		h-2c-0.276,0-0.5,0.224-0.5,0.5v11c0,0.276,0.224,0.5,0.5,0.5s0.5-0.224,0.5-0.5v-10c0-0.276,0.224-0.5,0.5-0.5H16.138z"/>
	<path d="M1.5,21.011c-0.827,0-1.5-0.673-1.5-1.5v-18c0-0.827,0.673-1.5,1.5-1.5S3,0.684,3,1.511v1.88l1.939-1.944
		C5.223,1.164,5.599,1.008,6,1.008c0.402,0,0.78,0.156,1.063,0.441C7.648,2.035,7.646,2.987,7.06,3.572L3,7.632v1.759
		c0,0,1.94-1.945,1.942-1.947C5.224,7.163,5.6,7.008,6,7.008c0.402,0,0.78,0.156,1.063,0.441C7.346,7.733,7.502,8.11,7.501,8.511
		S7.344,9.289,7.06,9.572L3,13.632v5.879C3,20.338,2.327,21.011,1.5,21.011z M1.5,1.011c-0.276,0-0.5,0.224-0.5,0.5v18
		c0,0.276,0.224,0.5,0.5,0.5s0.5-0.224,0.5-0.5v-6.086c0-0.134,0.052-0.259,0.146-0.354l4.207-4.207
		C6.449,8.77,6.501,8.644,6.501,8.51c0-0.134-0.052-0.26-0.146-0.355C6.26,8.06,6.134,8.008,6,8.008
		c-0.134,0-0.259,0.052-0.354,0.146l-2.792,2.799C2.759,11.048,2.634,11.1,2.5,11.1c-0.065,0-0.13-0.013-0.19-0.037
		C2.121,10.984,2,10.803,2,10.6V7.425c0-0.134,0.052-0.259,0.146-0.354l4.207-4.207C6.449,2.77,6.501,2.644,6.501,2.51
		c0-0.134-0.052-0.26-0.146-0.355C6.26,2.06,6.135,2.008,6,2.008c-0.134,0-0.26,0.052-0.354,0.146L2.854,4.953
		C2.759,5.048,2.634,5.1,2.5,5.1c-0.065,0-0.129-0.012-0.189-0.037C2.121,4.984,2,4.803,2,4.6V1.511C2,1.235,1.776,1.011,1.5,1.011z
		"/>
	<path d="M9.5,18.782c-0.14,0-0.274-0.059-0.369-0.163l-1.7-1.857c-0.162-0.177-0.175-0.445-0.031-0.637l1.7-2.269
		c0.091-0.122,0.241-0.195,0.4-0.195s0.309,0.073,0.4,0.195l1.7,2.269c0.144,0.192,0.131,0.46-0.031,0.637l-1.7,1.857
		C9.774,18.723,9.64,18.782,9.5,18.782z M9.5,17.542l1.051-1.148L9.5,14.99l-1.051,1.403L9.5,17.542z"/>
	<path d="M11.993,23.989c-0.417-0.002-0.818-0.179-1.099-0.486L9.5,21.981l-1.394,1.522c-0.283,0.309-0.686,0.486-1.106,0.486
		c-0.376,0-0.736-0.14-1.013-0.394c-0.609-0.56-0.651-1.51-0.092-2.12l1.571-1.713L5.394,17.5c-0.485-0.531-0.525-1.334-0.095-1.91
		L8.3,11.589c0.304-0.37,0.74-0.576,1.204-0.576c0.354,0,0.699,0.124,0.972,0.349c0.075,0.062,0.146,0.132,0.21,0.209l3.014,4.019
		c0.433,0.577,0.393,1.382-0.094,1.914l-2.071,2.262l1.571,1.713c0.271,0.297,0.409,0.681,0.39,1.082
		c-0.019,0.4-0.192,0.769-0.489,1.039c-0.275,0.251-0.632,0.389-1.005,0.391c0,0-0.001,0-0.001,0
		C11.998,23.989,11.995,23.989,11.993,23.989z M9.5,20.741c0.14,0,0.274,0.059,0.369,0.162l1.762,1.924
		c0.094,0.103,0.229,0.162,0.369,0.162c0.124,0,0.243-0.047,0.335-0.13c0.099-0.09,0.156-0.213,0.163-0.346
		c0.006-0.133-0.04-0.261-0.13-0.36l-1.879-2.05c-0.176-0.192-0.177-0.483,0-0.675l2.38-2.6c0.163-0.178,0.176-0.446,0.032-0.639
		l-3-4c-0.009-0.01-0.033-0.034-0.06-0.056c-0.097-0.08-0.214-0.122-0.34-0.122c-0.162,0-0.313,0.071-0.415,0.195L6.1,16.189
		c-0.143,0.191-0.129,0.459,0.032,0.636l2.381,2.6c0.177,0.193,0.176,0.483,0,0.676l-1.881,2.051
		c-0.186,0.203-0.172,0.52,0.031,0.707c0.092,0.084,0.212,0.131,0.337,0.131c0.14,0,0.275-0.059,0.37-0.162l1.762-1.924
		C9.226,20.8,9.36,20.741,9.5,20.741z"/>
</g>
</svg>
