<?xml version="1.0" encoding="utf-8"?>
<!-- Generator: Adobe Illustrator 22.1.0, SVG Export Plug-In . SVG Version: 6.00 Build 0)  -->
<svg version="1.1" id="Layer_1" xmlns="http://www.w3.org/2000/svg" xmlns:xlink="http://www.w3.org/1999/xlink" x="0px" y="0px"
	 viewBox="0 0 24 24" style="enable-background:new 0 0 24 24;" xml:space="preserve">
<g>
	<title>history-seat</title>
	<path d="M17.778,22c-0.347,0-0.664-0.176-0.848-0.47L14.723,18H9.277L7.07,21.53C6.886,21.824,6.569,22,6.222,22h-0.5
		c-0.121,0-0.24-0.021-0.353-0.064c-0.25-0.094-0.449-0.28-0.559-0.523c-0.11-0.243-0.119-0.515-0.025-0.765L6,17.409v-1.864
		L5.719,14H5.5C3.57,14,2,12.43,2,10.5v-4c-1.103,0-2-0.897-2-2C0,3.121,1.121,2,2.5,2C3.857,2,4.974,3.098,5,4.453L5.645,8h12.711
		L19,4.452C19.026,3.098,20.143,2,21.5,2C22.878,2,24,3.121,24,4.5c0,1.103-0.897,2-2,2v4c0,1.93-1.57,3.5-3.5,3.5h-0.219L18,15.544
		v1.865l1.215,3.239c0.194,0.516-0.068,1.094-0.584,1.288C18.518,21.979,18.399,22,18.278,22H17.778z M17.778,21l0.5,0l-1.125-3
		h-1.251L17.778,21z M5.721,21l0.501,0l1.876-3H6.847L5.721,21z M17,17v-1H7v1H17z M17.083,15l0.727-4H6.19l0.727,4H17.083z
		 M18.5,13c1.378,0,2.5-1.121,2.5-2.5v-4c0-0.551,0.448-1,1-1s1-0.449,1-1C23,3.673,22.327,3,21.5,3S20,3.673,20,4.5
		c0,0.03-0.003,0.06-0.008,0.089L18.463,13H18.5z M2.5,3C1.673,3,1,3.673,1,4.5c0,0.551,0.449,1,1,1s1,0.449,1,1v4
		C3,11.879,4.121,13,5.5,13h0.037L4.008,4.589C4.003,4.56,4,4.53,4,4.5C4,3.673,3.327,3,2.5,3z M17.992,10l0.182-1H5.826l0.182,1
		H17.992z"/>
</g>
</svg>
