<?xml version="1.0" encoding="utf-8"?>
<!-- Generator: Adobe Illustrator 22.1.0, SVG Export Plug-In . SVG Version: 6.00 Build 0)  -->
<svg version="1.1" id="Layer_1" xmlns="http://www.w3.org/2000/svg" xmlns:xlink="http://www.w3.org/1999/xlink" x="0px" y="0px"
	 viewBox="0 0 24 24" style="enable-background:new 0 0 24 24;" xml:space="preserve">
<g>
	<title>history-chinese-lantern</title>
	<path d="M3.999,24c-0.551,0-1-0.448-1-1v-1.258c-1.802-0.636-3-2.318-3-4.242s1.198-3.606,3-4.242V12c0-0.551,0.449-1,1-1h2V2.785
		c-0.152-0.04-0.304-0.081-0.456-0.122L3.09,5.117C2.929,5.279,2.715,5.381,2.488,5.405C2.452,5.409,2.417,5.411,2.382,5.411
		c-0.512,0-0.939-0.384-0.994-0.894C1.295,3.66,1.133,2.14,1.051,1.236C0.808,1.148,0.564,1.06,0.322,0.967
		C0.064,0.869-0.066,0.58,0.032,0.322C0.105,0.129,0.293,0,0.499,0C0.56,0,0.62,0.011,0.677,0.032
		c1.568,0.595,3.21,1.131,4.88,1.594c0.001,0,0.005,0.002,0.007,0.002C5.914,1.726,6.265,1.82,6.618,1.91
		C6.63,1.912,6.651,1.916,6.676,1.925l0.077,0.02c0.267,0.068,0.534,0.136,0.802,0.2C7.593,2.148,7.632,2.158,7.67,2.172
		c1.215,0.285,2.487,0.534,3.782,0.742c0.051,0,0.101,0.009,0.15,0.025c0.406,0.064,0.812,0.122,1.219,0.177
		c0,0,0.025,0.003,0.033,0.005c1.337,0.179,2.707,0.31,4.072,0.388c0.024-0.004,0.048-0.005,0.071-0.005
		c0.043,0,0.085,0.006,0.127,0.017c0.83,0.045,1.672,0.071,2.505,0.078c0.016-0.002,0.032-0.002,0.048-0.002
		c0.018,0,0.035,0.001,0.052,0.003c0.132,0.001,0.265,0.001,0.397,0.001c1.143,0,2.268-0.033,3.343-0.099c0.004,0,0.008,0,0.013,0
		c0.013,0,0.026,0.001,0.039,0.003c0.034,0.002,0.061,0.008,0.08,0.012c0.027,0.006,0.049,0.011,0.07,0.018
		c0.018,0.005,0.037,0.012,0.052,0.019c0.037,0.018,0.061,0.04,0.071,0.05c0.01,0.005,0.036,0.025,0.06,0.049
		c0.023,0.023,0.041,0.048,0.059,0.074c0.018,0.027,0.033,0.054,0.046,0.084c0.014,0.033,0.021,0.064,0.025,0.086
		c0.005,0.016,0.012,0.042,0.015,0.073c0.001,0.016,0,0.035-0.002,0.053c-0.002,0.031-0.007,0.056-0.01,0.074
		c-0.005,0.024-0.01,0.05-0.021,0.079c-0.006,0.019-0.013,0.039-0.021,0.054l-1.541,3.086c-0.098,0.199-0.264,0.362-0.467,0.459
		c-0.135,0.064-0.28,0.097-0.428,0.097c-0.114,0-0.227-0.02-0.336-0.058c-0.251-0.089-0.453-0.272-0.568-0.513
		c-0.374-0.779-0.886-1.86-1.254-2.702c-0.117-0.001-0.234-0.002-0.351-0.004V10h1c0.552,0,1,0.449,1,1v1.225
		c1.204,0.477,2,1.638,2,2.942v0.666c0,1.304-0.796,2.465-2,2.942V20c0,0.552-0.448,1-1,1h-3c-0.552,0-1-0.448-1-1v-1.225
		c-1.204-0.477-2-1.638-2-2.942v-0.666c0-1.304,0.796-2.465,2-2.942V11c0-0.551,0.448-1,1-1h1V4.561
		c-0.255-0.009-0.51-0.021-0.765-0.034l-1.843,2.554c-0.103,0.144-0.244,0.258-0.407,0.33c-0.13,0.057-0.265,0.085-0.404,0.085
		c-0.124,0-0.245-0.023-0.362-0.068C13.97,7.333,13.774,7.145,13.666,6.9c-0.186-0.424-0.802-1.834-1.221-2.824
		c-0.273-0.038-0.546-0.079-0.819-0.121l-2.091,2.24c-0.122,0.131-0.278,0.227-0.45,0.278C8.993,6.5,8.898,6.513,8.803,6.513
		c-0.441,0-0.836-0.296-0.96-0.719c-0.197-0.683-0.546-1.91-0.755-2.736c-0.03-0.007-0.059-0.014-0.089-0.021V11h2
		c0.551,0,1,0.449,1,1v1.258c1.802,0.636,3,2.318,3,4.242s-1.198,3.606-3,4.242V23c0,0.552-0.449,1-1,1H3.999z M3.999,23h5v-1.03
		C8.828,21.99,8.663,22,8.499,22h-4c-0.164,0-0.329-0.01-0.5-0.03V23z M8.499,21c1.93,0,3.5-1.57,3.5-3.5s-1.57-3.5-3.5-3.5H8.312
		c1.052,0.846,1.682,2.124,1.687,3.499C9.995,18.874,9.365,20.153,8.312,21L8.499,21z M4.499,14c-1.93,0-3.5,1.57-3.5,3.5
		s1.57,3.5,3.5,3.5h0.187c-1.052-0.846-1.682-2.124-1.687-3.499C3.003,16.125,3.633,14.846,4.686,14L4.499,14z M6.499,14.153
		c-1.471,0.446-2.495,1.812-2.5,3.348c0.005,1.533,1.029,2.9,2.5,3.345c1.471-0.446,2.495-1.812,2.5-3.348
		C8.994,15.965,7.97,14.599,6.499,14.153z M16.999,20h3v-1.005C19.942,18.998,19.887,19,19.832,19h-2.666
		c-0.054,0-0.11-0.002-0.167-0.005V20z M17.166,13c-1.195,0-2.167,0.972-2.167,2.167v0.666c0,1.195,0.972,2.167,2.167,2.167h2.666
		c1.195,0,2.167-0.972,2.167-2.167v-0.666c0-1.195-0.972-2.167-2.167-2.167H17.166z M3.999,13.03C4.17,13.01,4.335,13,4.499,13h4
		c0.164,0,0.329,0.01,0.5,0.03V12h-5V13.03z M19.832,12c0.054,0,0.11,0.002,0.167,0.005V11h-3v1.005
		C17.056,12.002,17.112,12,17.166,12H19.832z M20.447,4.602c0.364,0.807,0.808,1.74,1.06,2.265L22.67,4.54
		C21.891,4.577,21.158,4.597,20.447,4.602z M13.593,4.221c0.364,0.85,0.787,1.818,0.988,2.277l1.472-2.042
		C15.242,4.397,14.417,4.318,13.593,4.221z M8.188,3.313c0.204,0.766,0.464,1.679,0.615,2.203l1.638-1.757
		C9.683,3.624,8.928,3.475,8.188,3.313z M2.09,1.603c0.082,0.844,0.2,1.962,0.292,2.807l2.059-2.06
		C3.652,2.118,2.865,1.868,2.09,1.603z"/>
</g>
</svg>
