<?xml version="1.0" encoding="utf-8"?>
<!-- Generator: Adobe Illustrator 22.1.0, SVG Export Plug-In . SVG Version: 6.00 Build 0)  -->
<svg version="1.1" id="Layer_1" xmlns="http://www.w3.org/2000/svg" xmlns:xlink="http://www.w3.org/1999/xlink" x="0px" y="0px"
	 viewBox="0 0 24 24" style="enable-background:new 0 0 24 24;" xml:space="preserve">
<g>
	<title>history-geisha</title>
	<path d="M11.984,24.002c-1.577,0-3.111-0.469-4.435-1.355c-0.176-0.118-0.355-0.249-0.546-0.402
		c-0.005-0.004-0.01-0.007-0.013-0.011c-1.4-1.12-2.383-2.69-2.786-4.44L2.14,18.397c-0.029,0.008-0.052,0.014-0.076,0.02
		c-0.113,0.026-0.228,0.039-0.341,0.039c-0.701,0-1.302-0.477-1.461-1.16C0.088,16.544,0,15.772,0,15.001
		c0-4.883,3.535-9.188,8.629-10.556c-0.132-0.47-0.164-0.961-0.093-1.444H2.5c-0.276,0-0.5-0.224-0.5-0.5s0.224-0.5,0.5-0.5h6.342
		c0.344-0.726,0.924-1.311,1.65-1.657C10.969,0.116,11.475,0,11.998,0c0.397,0,0.791,0.068,1.169,0.202
		c0.882,0.312,1.589,0.948,1.991,1.792c0.001,0.002,0.002,0.005,0.003,0.007h4.434c0.11-0.287,0.31-0.527,0.576-0.686l1.313-0.788
		C21.641,0.433,21.819,0.384,22,0.384c0.552,0,1,0.449,1,1v2.234c0,0.181-0.049,0.358-0.142,0.513c-0.18,0.3-0.509,0.486-0.86,0.486
		c-0.18,0-0.358-0.049-0.512-0.142l-1.314-0.789c-0.195-0.116-0.359-0.281-0.476-0.476c-0.039-0.065-0.072-0.134-0.1-0.21h-4.133
		c0.069,0.48,0.036,0.97-0.097,1.443C20.464,5.81,24,10.116,24,15.001c0.001,0.772-0.085,1.544-0.258,2.294
		c-0.006,0.027-0.013,0.055-0.022,0.083c-0.113,0.385-0.368,0.702-0.719,0.895c-0.221,0.121-0.469,0.185-0.719,0.185
		c-0.142,0-0.284-0.021-0.423-0.061l-2.064-0.602c-0.085,0.372-0.193,0.729-0.322,1.064c-0.006,0.016-0.012,0.032-0.02,0.048
		c-0.213,0.543-0.485,1.063-0.806,1.543c-1.189,1.776-2.998,2.982-5.094,3.397C13.035,23.95,12.507,24.002,11.984,24.002z
		 M8.173,21.861c1.143,0.747,2.459,1.141,3.812,1.141c0.458,0,0.92-0.046,1.374-0.135c0.893-0.177,1.723-0.514,2.473-1.006
		c-0.287-0.257-0.509-0.576-0.653-0.939c-0.245-0.621-0.234-1.301,0.032-1.913c0.397-0.914,1.299-1.505,2.297-1.505
		c0.342,0,0.676,0.069,0.991,0.207c0.085,0.037,0.17,0.08,0.254,0.129c0.073-0.263,0.13-0.525,0.169-0.783
		c0-0.001,0.001-0.008,0.002-0.01c0.262-1.727-0.131-3.481-1.108-4.94c-0.398-0.594-1.06-0.948-1.769-0.948
		c-0.212,0-0.423,0.031-0.629,0.094c-0.904,0.275-1.735,0.774-2.403,1.442c-0.271,0.271-0.631,0.421-1.015,0.421
		c-0.384,0-0.745-0.149-1.016-0.421c-0.669-0.669-1.5-1.167-2.404-1.442c-0.205-0.062-0.416-0.094-0.628-0.094
		c-0.709,0-1.37,0.355-1.77,0.949c-1.04,1.553-1.413,3.419-1.05,5.253c0.031,0.158,0.069,0.319,0.114,0.482
		c0.094-0.056,0.189-0.104,0.285-0.145c0.313-0.133,0.641-0.2,0.977-0.2c0.321,0,0.636,0.062,0.937,0.183
		c0.619,0.25,1.104,0.726,1.365,1.341C9.234,20.017,8.963,21.158,8.173,21.861z M5.589,18.815c0.403,0.92,1.008,1.751,1.765,2.42
		c0.58-0.396,0.816-1.166,0.536-1.824c-0.156-0.369-0.447-0.654-0.819-0.805c-0.181-0.073-0.37-0.11-0.562-0.11
		c-0.201,0-0.398,0.041-0.586,0.12C5.807,18.666,5.694,18.733,5.589,18.815z M17.508,18.503c-0.6,0-1.141,0.354-1.38,0.903
		c-0.284,0.656-0.055,1.427,0.521,1.828c0.444-0.395,0.836-0.845,1.167-1.34c0.225-0.335,0.424-0.7,0.593-1.086
		c-0.096-0.073-0.199-0.134-0.308-0.181C17.913,18.545,17.713,18.503,17.508,18.503z M22.14,17.437
		c0.046,0.013,0.094,0.02,0.141,0.02c0.22,0,0.418-0.148,0.479-0.359c0-0.001,0.007-0.025,0.007-0.026
		c0.156-0.678,0.234-1.374,0.233-2.07c0-5.515-4.935-10.001-11-10.001s-11,4.486-11,10c0,0.695,0.079,1.391,0.236,2.069
		c0.052,0.223,0.257,0.386,0.488,0.386c0.038,0,0.076-0.004,0.113-0.013l0.033-0.009L4.042,16.8
		c-0.188-1.846,0.274-3.703,1.311-5.251c0.585-0.872,1.557-1.392,2.599-1.392c0.31,0,0.62,0.046,0.919,0.137
		c1.061,0.323,2.037,0.908,2.821,1.692c0.077,0.077,0.189,0.121,0.308,0.121s0.232-0.044,0.309-0.121
		c0.784-0.784,1.759-1.369,2.82-1.692c0.301-0.091,0.61-0.137,0.92-0.137c1.042,0,2.013,0.52,2.598,1.392
		c1.038,1.55,1.501,3.407,1.314,5.253L22.14,17.437z M11.998,1.001c-0.373,0-0.734,0.083-1.075,0.245
		c-0.602,0.287-1.056,0.792-1.279,1.42C9.642,2.672,9.633,2.699,9.631,2.705C9.462,3.193,9.454,3.719,9.608,4.223
		C10.4,4.076,11.203,4.001,12,4.001c0.797,0,1.6,0.075,2.391,0.222c0.179-0.594,0.132-1.238-0.135-1.798
		c-0.288-0.603-0.793-1.057-1.422-1.28C12.563,1.049,12.282,1.001,11.998,1.001z M20.686,2.173c-0.181,0.108-0.24,0.344-0.133,0.525
		c0.032,0.054,0.078,0.099,0.132,0.132L22,3.618l0-2.234L20.686,2.173z"/>
	<path d="M11.999,21.294c-0.267,0-0.518-0.104-0.707-0.294l-0.646-0.646c-0.094-0.094-0.146-0.22-0.146-0.354
		s0.052-0.259,0.146-0.354s0.22-0.146,0.354-0.146s0.259,0.052,0.354,0.146L12,20.293l0.647-0.646
		c0.094-0.094,0.22-0.146,0.354-0.146s0.259,0.052,0.354,0.146s0.146,0.22,0.146,0.354s-0.052,0.259-0.146,0.354L12.708,21
		C12.51,21.193,12.262,21.294,11.999,21.294L11.999,21.294z"/>
	<path d="M10,14.501c-0.118,0-0.234-0.042-0.324-0.119c-0.384-0.328-0.869-0.508-1.367-0.508c-0.221,0-0.442,0.035-0.655,0.104
		c-0.05,0.016-0.101,0.024-0.153,0.024c-0.218,0-0.409-0.139-0.476-0.347c-0.085-0.262,0.06-0.544,0.322-0.629
		c0.313-0.101,0.637-0.152,0.962-0.152c0.735,0,1.451,0.265,2.016,0.748c0.102,0.087,0.163,0.208,0.174,0.341
		c0.01,0.133-0.031,0.262-0.118,0.364C10.285,14.437,10.147,14.501,10,14.501z"/>
	<path d="M14,14.501c-0.146,0-0.285-0.064-0.38-0.175c-0.087-0.102-0.129-0.231-0.118-0.364c0.01-0.133,0.072-0.254,0.174-0.341
		c0.565-0.482,1.281-0.748,2.016-0.748c0.325,0,0.649,0.051,0.962,0.152c0.262,0.085,0.407,0.367,0.323,0.629
		c-0.067,0.208-0.258,0.347-0.476,0.347c-0.052,0-0.103-0.008-0.153-0.024c-0.214-0.069-0.434-0.104-0.656-0.104
		c-0.498,0-0.983,0.18-1.367,0.508C14.234,14.458,14.119,14.501,14,14.501z"/>
</g>
</svg>
