<?xml version="1.0" encoding="utf-8"?>
<!-- Generator: Adobe Illustrator 22.1.0, SVG Export Plug-In . SVG Version: 6.00 Build 0)  -->
<svg version="1.1" id="Layer_1" xmlns="http://www.w3.org/2000/svg" xmlns:xlink="http://www.w3.org/1999/xlink" x="0px" y="0px"
	 viewBox="0 0 24 24" style="enable-background:new 0 0 24 24;" xml:space="preserve">
<g>
	<title>history-fish</title>
	<path d="M6.522,24c-0.189,0-0.36-0.105-0.446-0.274c-0.479-0.946-0.612-2.037-0.373-3.071c0.004-0.019,0.01-0.037,0.016-0.054
		c0.159-0.463,0.426-0.884,0.778-1.229c-2.288-1.993-3.71-3.656-4.501-6.36c-0.16,0.057-0.329,0.087-0.501,0.087
		c-0.269,0-0.532-0.073-0.762-0.213c-0.044-0.027-0.083-0.059-0.116-0.097c-0.718-0.814-0.841-1.992-0.308-2.937
		c0.212-0.551,0.631-0.99,1.166-1.228V7.6c0.069-0.916,0.229-1.805,0.475-2.661C2.553,3.193,3.6,1.92,4.902,1.342
		C5.424,1.11,5.976,0.993,6.541,0.993c0.586,0,1.181,0.126,1.767,0.375c2.274,0.964,2.817,3.598,1.538,7.427
		c0.247,0.181,0.46,0.409,0.623,0.667c0.654,0.846,0.7,2.042,0.102,2.957c-0.017,0.026-0.036,0.051-0.059,0.074
		c-0.258,0.268-0.606,0.416-0.98,0.416c-0.033,0-0.066-0.001-0.099-0.003c-0.268-0.02-0.535-0.11-0.786-0.266
		c-0.099,0.634-0.137,1.277-0.112,1.917c0.137,1.088,0.344,2.203,0.617,3.299c0.179-0.042,0.362-0.063,0.548-0.063
		c0.474,0,0.934,0.139,1.33,0.402c1.161,0.665,1.437,2.601,1.464,2.82c0.023,0.182-0.055,0.362-0.205,0.469
		c-0.1,0.071-0.998,0.688-1.964,0.688c0,0,0,0,0,0c-0.349,0-0.669-0.08-0.95-0.239c-0.087-0.049-0.171-0.102-0.252-0.158
		C9.08,21.939,9.027,22.1,8.964,22.258c-0.008,0.019-0.016,0.037-0.025,0.053c-0.485,0.887-1.334,1.5-2.328,1.68
		C6.581,23.997,6.551,24,6.522,24z M6.671,20.906c-0.148,0.663-0.099,1.365,0.137,2.001c0.526-0.188,0.961-0.554,1.239-1.049
		c0.139-0.358,0.211-0.733,0.213-1.117c0.001-0.214,0.138-0.403,0.341-0.471c0.051-0.017,0.104-0.026,0.159-0.026
		c0.155,0,0.304,0.074,0.398,0.198c0.194,0.254,0.432,0.463,0.71,0.621c0.13,0.073,0.286,0.11,0.462,0.11
		c0.415,0,0.855-0.2,1.117-0.344c-0.151-0.716-0.464-1.513-0.932-1.777c-0.006-0.004-0.029-0.018-0.034-0.021
		c-0.231-0.155-0.501-0.237-0.779-0.237c-0.228,0-0.456,0.057-0.658,0.165c-0.072,0.038-0.153,0.059-0.235,0.059
		c-0.069,0-0.136-0.014-0.2-0.042c-0.14-0.061-0.243-0.18-0.283-0.328c-0.353-1.312-0.617-2.66-0.784-4.009
		c-0.042-1.062,0.063-2.097,0.311-3.098c0.047-0.189,0.2-0.334,0.391-0.371c0.032-0.006,0.063-0.009,0.094-0.009
		c0.161,0,0.313,0.078,0.406,0.209c0.225,0.315,0.518,0.521,0.763,0.539c0.012,0.001,0.023,0.001,0.034,0.001
		c0.087,0,0.158-0.026,0.222-0.082c0.337-0.555,0.297-1.268-0.104-1.782c-0.01-0.013-0.021-0.028-0.03-0.043
		C9.483,9.768,9.273,9.581,9.023,9.463c-0.236-0.112-0.346-0.38-0.255-0.625C8.78,8.805,8.792,8.774,8.804,8.743
		c0.011-0.026,0.022-0.053,0.031-0.08c1.573-4.54,0.101-5.943-0.917-6.375C7.458,2.093,6.994,1.994,6.542,1.994
		c-0.427,0-0.841,0.088-1.233,0.262C4.262,2.721,3.408,3.781,2.902,5.24c-0.22,0.769-0.366,1.58-0.43,2.398L2.474,8.98
		c0,0.232-0.157,0.432-0.382,0.486c-0.399,0.096-0.72,0.384-0.859,0.77c-0.011,0.029-0.024,0.057-0.04,0.084
		c-0.323,0.55-0.274,1.244,0.119,1.742C1.37,12.087,1.433,12.1,1.496,12.1c0.146,0,0.282-0.065,0.373-0.18
		c0.01-0.015,0.035-0.051,0.073-0.088c0.092-0.093,0.221-0.146,0.353-0.146c0.047,0,0.093,0.007,0.138,0.019
		c0.173,0.049,0.307,0.189,0.349,0.365c0.711,3.004,2.181,4.692,4.821,6.934c0.121,0.103,0.186,0.258,0.175,0.416
		c-0.011,0.157-0.097,0.302-0.23,0.387C7.143,20.065,6.832,20.455,6.671,20.906z"/>
	<path d="M6.34,15.993c-0.213,0-0.403-0.135-0.473-0.337c-0.724-2.105-0.969-4.385-0.71-6.596C5.283,7.894,5.58,6.753,6.039,5.67
		C6.118,5.485,6.298,5.365,6.5,5.365c0.067,0,0.132,0.013,0.195,0.039C6.949,5.512,7.068,5.806,6.96,6.06
		C6.539,7.053,6.267,8.1,6.151,9.172c-0.242,2.066-0.013,4.194,0.662,6.158c0.043,0.126,0.035,0.262-0.024,0.382
		s-0.161,0.21-0.287,0.253C6.45,15.983,6.395,15.993,6.34,15.993z"/>
	<path d="M17.458,23.002c-0.586,0-1.181-0.126-1.767-0.375c-2.274-0.964-2.817-3.599-1.538-7.427
		c-0.247-0.181-0.46-0.408-0.623-0.667c-0.654-0.846-0.7-2.043-0.102-2.957c0.017-0.026,0.036-0.05,0.058-0.072
		c0.26-0.27,0.605-0.418,0.975-0.418c0.035,0,0.071,0.001,0.106,0.004c0.267,0.019,0.533,0.11,0.785,0.266
		c0.099-0.633,0.137-1.276,0.113-1.918c-0.137-1.088-0.344-2.201-0.617-3.297c-0.18,0.043-0.365,0.064-0.552,0.064
		c-0.472,0-0.93-0.138-1.324-0.4c-1.162-0.665-1.438-2.601-1.465-2.82c-0.023-0.183,0.056-0.363,0.206-0.47
		c0.098-0.07,0.991-0.687,1.964-0.687c0.349,0,0.668,0.08,0.949,0.238c0.087,0.049,0.171,0.102,0.252,0.158
		c0.043-0.164,0.096-0.325,0.159-0.483c0.007-0.017,0.015-0.034,0.024-0.051c0.486-0.89,1.335-1.502,2.329-1.682
		C17.418,0.002,17.448,0,17.478,0c0.189,0,0.36,0.105,0.446,0.274c0.479,0.947,0.612,2.037,0.373,3.071
		c-0.004,0.017-0.009,0.032-0.014,0.047c-0.16,0.468-0.426,0.89-0.776,1.235c2.289,1.993,3.712,3.657,4.502,6.361
		c0.159-0.057,0.328-0.087,0.5-0.087c0.269,0,0.533,0.074,0.763,0.213c0.044,0.027,0.082,0.059,0.115,0.096
		c0.719,0.815,0.842,1.993,0.31,2.938c-0.211,0.554-0.63,0.995-1.166,1.233v1.025c-0.073,0.915-0.234,1.8-0.482,2.652
		c-0.604,1.744-1.651,3.017-2.953,3.595C18.575,22.884,18.024,23.002,17.458,23.002z M14.236,12.167
		c-0.337,0.555-0.297,1.267,0.104,1.781c0.012,0.016,0.022,0.03,0.031,0.045c0.146,0.233,0.355,0.42,0.605,0.538
		c0.233,0.11,0.344,0.385,0.255,0.626c-0.011,0.031-0.024,0.063-0.037,0.094c-0.01,0.025-0.021,0.052-0.031,0.079
		c-1.573,4.541-0.101,5.943,0.917,6.375c0.461,0.196,0.924,0.295,1.377,0.295c0.426,0,0.841-0.088,1.233-0.262
		c1.046-0.465,1.901-1.525,2.407-2.985c0.222-0.766,0.37-1.574,0.436-2.389l-0.001-1.339c0-0.232,0.157-0.432,0.382-0.486
		c0.399-0.097,0.72-0.386,0.859-0.773c0.01-0.027,0.023-0.055,0.038-0.082c0.325-0.553,0.276-1.247-0.117-1.746
		c-0.058-0.025-0.121-0.037-0.184-0.037c-0.147,0-0.282,0.065-0.373,0.179c-0.01,0.015-0.035,0.051-0.073,0.088
		c-0.094,0.094-0.22,0.146-0.353,0.146c-0.046,0-0.092-0.006-0.136-0.019c-0.175-0.05-0.309-0.19-0.351-0.366
		c-0.711-3.004-2.181-4.692-4.821-6.934c-0.12-0.102-0.186-0.257-0.175-0.414c0.011-0.158,0.096-0.303,0.229-0.388
		c0.403-0.259,0.712-0.649,0.872-1.1c0.148-0.663,0.099-1.365-0.137-2.002c-0.526,0.188-0.96,0.554-1.239,1.049
		c-0.139,0.358-0.211,0.734-0.213,1.117c-0.001,0.214-0.139,0.404-0.342,0.471c-0.051,0.017-0.104,0.026-0.158,0.026
		c-0.156,0-0.304-0.074-0.398-0.198c-0.193-0.254-0.432-0.463-0.71-0.621c-0.13-0.073-0.285-0.11-0.462-0.11
		c-0.414,0-0.854,0.2-1.117,0.344c0.151,0.716,0.463,1.513,0.932,1.778c0.005,0.003,0.027,0.016,0.032,0.019
		c0.232,0.155,0.501,0.237,0.778,0.237c0.229,0,0.458-0.058,0.661-0.167c0.073-0.039,0.154-0.059,0.236-0.059
		c0.069,0,0.135,0.014,0.198,0.041c0.141,0.061,0.245,0.181,0.285,0.329c0.353,1.312,0.617,2.66,0.784,4.008
		c0.042,1.063-0.063,2.099-0.311,3.098c-0.047,0.189-0.2,0.334-0.391,0.371c-0.033,0.006-0.063,0.009-0.094,0.009
		c-0.161,0-0.314-0.078-0.407-0.209c-0.225-0.314-0.518-0.521-0.763-0.538l-0.031-0.001C14.375,12.085,14.3,12.112,14.236,12.167z"
		/>
	<path d="M17.5,18.635c-0.067,0-0.132-0.013-0.194-0.039c-0.254-0.108-0.373-0.402-0.266-0.656c0.42-0.992,0.693-2.039,0.809-3.112
		c0.242-2.066,0.013-4.195-0.662-6.158c-0.09-0.261,0.049-0.546,0.31-0.635c0.052-0.018,0.107-0.027,0.163-0.027
		c0.213,0,0.403,0.136,0.473,0.338c0.724,2.105,0.969,4.385,0.71,6.596c-0.126,1.166-0.423,2.307-0.882,3.39
		C17.881,18.515,17.701,18.635,17.5,18.635z"/>
</g>
</svg>
