<?xml version="1.0" encoding="utf-8"?>
<!-- Generator: Adobe Illustrator 22.1.0, SVG Export Plug-In . SVG Version: 6.00 Build 0)  -->
<svg version="1.1" id="Layer_1" xmlns="http://www.w3.org/2000/svg" xmlns:xlink="http://www.w3.org/1999/xlink" x="0px" y="0px"
	 viewBox="0 0 24 24" style="enable-background:new 0 0 24 24;" xml:space="preserve">
<g>
	<title>history-geisha-1</title>
	<path d="M12.01,24.006c-0.639,0-1.28-0.088-1.903-0.26c-1.825-0.506-3.343-1.692-4.276-3.34c-0.313-0.565-0.542-1.173-0.682-1.81
		c-2.196-1.43-3.56-3.836-3.656-6.456c0-2.911,1.908-5.696,4.82-7.136H2.987c-0.276,0-0.5-0.224-0.5-0.5s0.224-0.5,0.5-0.5h3.563
		C6.538,3.911,6.528,3.819,6.523,3.726L4.103,0.823C4.018,0.72,3.977,0.59,3.989,0.457c0.012-0.133,0.075-0.253,0.178-0.339
		c0.089-0.075,0.203-0.116,0.32-0.116c0.149,0,0.289,0.066,0.384,0.18L6.7,2.376c0.475-1.401,1.797-2.374,3.312-2.374h4
		c1.505,0,2.824,0.964,3.305,2.353l1.81-2.173c0.095-0.114,0.236-0.18,0.385-0.18c0.117,0,0.23,0.041,0.32,0.116
		c0.103,0.085,0.166,0.206,0.178,0.339c0.012,0.133-0.028,0.263-0.114,0.365l-2.393,2.873c-0.006,0.103-0.016,0.205-0.03,0.307
		h3.539c0.276,0,0.5,0.224,0.5,0.5s-0.224,0.5-0.5,0.5h-3.207c2.704,1.315,4.56,4.068,4.706,7.094
		c-0.096,2.656-1.462,5.069-3.66,6.499c-0.141,0.637-0.369,1.244-0.68,1.806c-0.635,1.122-1.561,2.048-2.679,2.681
		C14.426,23.686,13.222,24.006,12.01,24.006L12.01,24.006z M8.635,11.173c-1.629,1.062-2.638,2.902-2.647,4.855v1.119
		c0,0.967,0.248,1.925,0.716,2.771c0.799,1.412,2.103,2.43,3.671,2.864c0.536,0.149,1.086,0.224,1.635,0.224
		c1.039,0,2.073-0.274,2.99-0.793c0.96-0.544,1.755-1.339,2.299-2.3c0.466-0.842,0.713-1.799,0.713-2.766v-1.121
		c-0.009-1.952-1.018-3.791-2.647-4.853c-0.8,1.041-2.043,1.656-3.372,1.656c-0.762,0-1.511-0.207-2.167-0.598
		C9.368,11.958,8.961,11.596,8.635,11.173z M15.216,10.003c0.083,0,0.166,0.021,0.24,0.062c2.181,1.19,3.544,3.474,3.556,5.959
		c0,0,0,1.182-0.001,1.212c1.523-1.28,2.427-3.122,2.501-5.133c-0.14-2.856-2.034-5.435-4.737-6.457
		c-0.663,0.853-1.682,1.357-2.764,1.357h-4c-1.071,0-2.084-0.496-2.747-1.336c-2.862,1.192-4.772,3.765-4.772,6.454
		c0.073,1.996,0.975,3.834,2.496,5.113c0-0.03-0.001-1.208-0.001-1.208C5,13.539,6.362,11.255,8.543,10.064
		c0.073-0.04,0.156-0.061,0.24-0.061c0.175,0,0.34,0.094,0.43,0.244c0.275,0.461,0.664,0.85,1.125,1.125
		c0.502,0.299,1.074,0.457,1.656,0.457c1.141,0,2.211-0.606,2.793-1.582C14.876,10.096,15.041,10.003,15.216,10.003z M10.011,1.003
		c-1.379,0-2.5,1.121-2.5,2.5s1.121,2.5,2.5,2.5h4c1.378,0,2.5-1.121,2.5-2.5s-1.122-2.5-2.5-2.5H10.011z"/>
	<path d="M9.761,17.503c-0.414,0-0.75-0.336-0.75-0.75c0-0.408,0.329-0.742,0.735-0.75c0.005,0,0.009,0,0.014,0
		c0.413,0,0.749,0.334,0.751,0.746c0,0.001,0,0.003,0,0.003c0.001,0.199-0.077,0.388-0.217,0.53
		c-0.141,0.142-0.329,0.221-0.529,0.221C9.765,17.503,9.762,17.503,9.761,17.503z"/>
	<path d="M14.261,17.503c-0.414,0-0.75-0.336-0.75-0.75c0-0.408,0.329-0.742,0.735-0.75c0.005,0,0.009,0,0.014,0
		c0.414,0,0.75,0.335,0.751,0.746c0,0.001,0,0.002,0,0.003c0.001,0.199-0.076,0.387-0.217,0.53
		c-0.141,0.142-0.329,0.221-0.529,0.222C14.265,17.503,14.262,17.503,14.261,17.503z"/>
	<path d="M12.011,21.003c-0.276,0-0.5-0.224-0.5-0.5v-0.5c0-0.276,0.224-0.5,0.5-0.5s0.5,0.224,0.5,0.5v0.5
		C12.512,20.778,12.287,21.003,12.011,21.003z"/>
</g>
</svg>
