<?xml version="1.0" encoding="utf-8"?>
<!-- Generator: Adobe Illustrator 22.1.0, SVG Export Plug-In . SVG Version: 6.00 Build 0)  -->
<svg version="1.1" id="Layer_1" xmlns="http://www.w3.org/2000/svg" xmlns:xlink="http://www.w3.org/1999/xlink" x="0px" y="0px"
	 viewBox="0 0 24 24" style="enable-background:new 0 0 24 24;" xml:space="preserve">
<g>
	<title>history-eye-mythology</title>
	<path d="M15.844,12.5c-1.378,0-2.5-1.121-2.5-2.5s1.122-2.5,2.5-2.5s2.5,1.121,2.5,2.5S17.222,12.5,15.844,12.5z M15.844,8.5
		c-0.827,0-1.5,0.673-1.5,1.5s0.673,1.5,1.5,1.5s1.5-0.673,1.5-1.5S16.671,8.5,15.844,8.5z"/>
	<path d="M18.51,21.5c-0.276,0-0.5-0.224-0.5-0.5v-6.802c-0.556,0.155-1.131,0.25-1.715,0.283l-1.12,1.742
		C13.051,19.528,9.438,21.5,5.511,21.5c-0.828,0-1.501-0.673-1.501-1.5s0.673-1.5,1.5-1.5h0.5c0.276,0,0.5,0.224,0.5,0.5
		s-0.224,0.5-0.5,0.5h-0.5c-0.276,0-0.5,0.224-0.5,0.5s0.224,0.5,0.5,0.5c3.586,0,6.885-1.801,8.824-4.818l0.784-1.22
		c-1.175-0.105-2.321-0.469-3.338-1.064c-1.192-0.697-2.19-1.695-2.886-2.886c-0.003-0.004-0.005-0.008-0.007-0.012H0.51
		c-0.276,0-0.5-0.224-0.5-0.5s0.224-0.5,0.5-0.5h8.376c0.004-0.007,0.008-0.013,0.011-0.02c1.434-2.453,4.101-3.978,6.958-3.978
		c1.42,0,2.821,0.38,4.052,1.099c1.191,0.696,2.188,1.694,2.885,2.885c0.192,0.317,0.191,0.715-0.003,1.034
		c-0.877,1.499-2.182,2.648-3.779,3.328V21C19.01,21.276,18.786,21.5,18.51,21.5z M9.76,10.01c0.612,1.046,1.484,1.918,2.525,2.526
		c1.082,0.633,2.309,0.967,3.546,0.967c0.603,0,1.209-0.079,1.8-0.233c0.208-0.055,0.419-0.12,0.626-0.196
		c0.049-0.029,0.101-0.049,0.157-0.06c1.49-0.58,2.705-1.619,3.517-3.006c-0.61-1.059-1.484-1.933-2.528-2.543
		c-1.082-0.633-2.309-0.967-3.547-0.967c-0.603,0-1.208,0.078-1.8,0.233c-1.82,0.477-3.346,1.634-4.297,3.257
		C9.76,9.992,9.76,10.007,9.76,10.01z"/>
	<path d="M23.51,7.5c-0.152,0-0.294-0.068-0.389-0.186C21.248,5,18.467,3.609,15.491,3.5C12.546,3.609,9.772,5,7.899,7.315
		C7.803,7.433,7.662,7.5,7.51,7.5h-7c-0.276,0-0.5-0.224-0.5-0.5s0.224-0.5,0.5-0.5h6.765c2.051-2.427,5.039-3.883,8.217-4
		c3.295,0.12,6.352,1.645,8.407,4.185c0.084,0.104,0.123,0.234,0.109,0.367c-0.014,0.133-0.079,0.252-0.183,0.336
		C23.735,7.461,23.624,7.5,23.51,7.5z"/>
</g>
</svg>
