<?xml version="1.0" encoding="utf-8"?>
<!-- Generator: Adobe Illustrator 22.1.0, SVG Export Plug-In . SVG Version: 6.00 Build 0)  -->
<svg version="1.1" id="Light" xmlns="http://www.w3.org/2000/svg" xmlns:xlink="http://www.w3.org/1999/xlink" x="0px" y="0px"
	 viewBox="0 0 24 24" style="enable-background:new 0 0 24 24;" xml:space="preserve">
<g>
	<title>organic-worm</title>
	<path d="M2.568,24.026c-0.537,0-1.05-0.171-1.483-0.494c-0.533-0.397-0.879-0.979-0.975-1.637l-0.009-0.074
		c-0.036-0.271-0.834-6.703,3.059-10.786c0.944-0.99,2.078-1.754,3.369-2.272c0.03-0.016,0.057-0.025,0.074-0.031
		c1.343-0.526,2.88-0.794,4.565-0.794c0.503,0,1.028,0.024,1.56,0.071c0.171,0.015,0.341,0.022,0.506,0.022c0,0,0,0,0.001,0
		c3.958,0,5.375-4.266,5.8-6.1c0.153-0.648,0.548-1.198,1.113-1.548c0.395-0.245,0.847-0.374,1.306-0.374
		c0.192,0,0.385,0.022,0.574,0.067c1.336,0.314,2.168,1.657,1.854,2.993c-0.272,1.172-0.644,2.279-1.105,3.291
		c0,0.001-0.001,0.003-0.001,0.003c-0.761,1.671-1.76,3.069-2.967,4.156c-0.002,0.002-0.003,0.003-0.005,0.005
		c-1.827,1.642-4.09,2.509-6.545,2.509c0,0,0,0,0,0c-0.318,0-0.643-0.014-0.966-0.043c-0.379-0.033-0.749-0.05-1.099-0.05
		c-1.957,0-3.448,0.519-4.431,1.543c-0.831,0.866-1.379,2.108-1.63,3.692c-0.001,0.007-0.002,0.014-0.003,0.019
		c-0.253,1.616-0.094,2.98-0.093,2.993c0.095,0.649-0.072,1.303-0.47,1.836C4.169,23.558,3.588,23.904,2.932,24
		C2.812,24.017,2.69,24.026,2.568,24.026z M1.155,17.909c-0.282,2.074-0.072,3.713-0.063,3.783L1.1,21.756
		c0.057,0.389,0.264,0.737,0.583,0.975c0.259,0.193,0.566,0.295,0.888,0.295c0.072,0,0.145-0.005,0.217-0.016
		c0.812-0.118,1.376-0.875,1.258-1.688c-0.002-0.017-0.158-1.367,0.066-3.023c-0.461-0.455-1.087-0.714-1.736-0.714
		C1.948,17.584,1.528,17.696,1.155,17.909z M2.376,16.584c0.696,0,1.373,0.209,1.944,0.596c0.244-1.023,0.62-1.909,1.119-2.64
		c-0.463-0.654-1.203-1.039-2.009-1.039c-0.334,0-0.659,0.067-0.968,0.198c-0.485,0.901-0.854,1.92-1.1,3.036
		C1.689,16.635,2.029,16.584,2.376,16.584z M3.432,12.501c1.03,0,2.002,0.459,2.657,1.243c0.648-0.658,1.466-1.141,2.436-1.439
		c0.091-1.143-0.623-2.217-1.719-2.573c-1.119,0.463-2.102,1.134-2.922,1.994c-0.23,0.241-0.45,0.503-0.659,0.782
		C3.293,12.503,3.363,12.501,3.432,12.501z M8.12,9.297C9,9.946,9.526,10.968,9.534,12.072c0.522-0.086,1.082-0.13,1.67-0.13
		c0.376,0,0.772,0.018,1.177,0.053c0.186,0.016,0.382,0.027,0.599,0.032c0.674-0.878,0.69-2.104,0.041-3
		c-0.13-0.003-0.257-0.01-0.38-0.021c-0.504-0.044-0.999-0.067-1.473-0.067C10.08,8.94,9.057,9.06,8.12,9.297z M14.14,8.954
		c0.467,0.954,0.476,2.074,0.029,3.033c1.792-0.177,3.404-0.871,4.798-2.067c-0.033-1.101-0.793-2.056-1.857-2.337
		C16.246,8.323,15.249,8.783,14.14,8.954z M17.883,6.798c0.96,0.423,1.683,1.261,1.961,2.267c0.76-0.835,1.413-1.826,1.946-2.953
		c-0.362-0.967-1.281-1.611-2.316-1.611c-0.072,0-0.145,0.003-0.217,0.01C18.879,5.396,18.419,6.163,17.883,6.798z M19.635,3.505
		c1.065,0.048,2.034,0.575,2.649,1.425c0.247-0.666,0.457-1.366,0.624-2.087c0.188-0.801-0.31-1.604-1.109-1.792
		c-0.114-0.027-0.229-0.04-0.344-0.04c-0.274,0-0.544,0.078-0.781,0.224C20.336,1.444,20.1,1.773,20.009,2.16
		C19.901,2.629,19.775,3.08,19.635,3.505z"/>
</g>
</svg>
