<?xml version="1.0" encoding="utf-8"?>
<!-- Generator: Adobe Illustrator 22.1.0, SVG Export Plug-In . SVG Version: 6.00 Build 0)  -->
<svg version="1.1" id="Light" xmlns="http://www.w3.org/2000/svg" xmlns:xlink="http://www.w3.org/1999/xlink" x="0px" y="0px"
	 viewBox="0 0 24 24" style="enable-background:new 0 0 24 24;" xml:space="preserve">
<g>
	<title>organic-seedling-growth</title>
	<path d="M0.5,13.002c-0.276,0-0.5-0.224-0.5-0.5c0-0.276,0.224-0.5,0.5-0.5c6.389,0,11.477-4.229,12.363-10.156l-1.01,1.01
		c-0.094,0.094-0.22,0.146-0.354,0.146s-0.259-0.052-0.354-0.146c-0.195-0.195-0.195-0.512,0-0.707l1.966-1.966
		c0.096-0.114,0.233-0.179,0.377-0.179c0,0,0,0,0,0c0.145,0,0.27,0.052,0.363,0.146l2,2C15.948,2.243,16,2.368,16,2.502
		s-0.052,0.259-0.146,0.354s-0.22,0.146-0.354,0.146s-0.259-0.052-0.354-0.146l-1.244-1.244c-0.375,3.104-1.844,5.927-4.174,7.996
		C7.262,11.796,3.985,13.002,0.5,13.002z"/>
	<path d="M0.5,24.002c-0.276,0-0.5-0.224-0.5-0.5s0.224-0.5,0.5-0.5h1.711c-0.22-1.481-1.408-1.5-1.461-1.5
		c-0.276,0-0.5-0.224-0.5-0.5s0.224-0.5,0.5-0.5c0.014,0,1.282,0.014,2.008,1.115c0.444-0.723,1.136-1.115,1.992-1.115
		c0.276,0,0.5,0.224,0.5,0.5s-0.224,0.5-0.5,0.5c-0.613,0-1.034,0.306-1.286,0.936c-0.078,0.196-0.128,0.393-0.159,0.564H9.25v-2
		c0.001-0.396-0.081-0.79-0.237-1.153c-0.258,0.117-0.538,0.177-0.823,0.177c-0.535,0-1.037-0.208-1.414-0.585
		c-0.026-0.025-0.049-0.055-0.069-0.086c-0.542-0.859-0.947-1.793-1.203-2.776c-0.076-0.236-0.051-0.503,0.073-0.74
		c0.124-0.236,0.331-0.41,0.584-0.491c0.1-0.031,0.202-0.047,0.304-0.047c0.103,0,0.204,0.016,0.302,0.047
		c0.96,0.249,1.89,0.653,2.75,1.195c0.03,0.019,0.06,0.042,0.087,0.069c0.696,0.696,0.773,1.799,0.206,2.584
		c0.15,0.29,0.263,0.594,0.336,0.909c0.446-0.364,0.993-0.575,1.58-0.604c0.004,0,0.024-0.001,0.028-0.001
		c0.265,0,0.482,0.209,0.495,0.476c0.013,0.276-0.2,0.51-0.475,0.524c-0.682,0.033-1.276,0.461-1.524,1.096v1.405h6v-7.844
		c-0.124-0.173-0.269-0.325-0.431-0.454c-0.046-0.037-0.093-0.073-0.141-0.108c-0.229,0.483-0.583,0.885-1.039,1.176
		c-0.509,0.325-1.066,0.49-1.655,0.49c-1.44,0-2.94-0.982-4.46-2.919c-0.105-0.136-0.173-0.295-0.199-0.461
		c-0.041-0.264,0.023-0.528,0.181-0.744c0.158-0.216,0.39-0.357,0.654-0.398c0.868-0.108,1.681-0.376,2.43-0.799
		c0.442-0.282,0.966-0.435,1.506-0.435c0.209,0,0.419,0.023,0.625,0.069c0.745,0.165,1.381,0.61,1.791,1.253
		c0.331,0.519,0.484,1.133,0.438,1.746c0.104,0.065,0.204,0.132,0.3,0.202v-2.775c-0.001-0.445,0.073-0.885,0.218-1.306
		c0.066-0.194,0.146-0.393,0.237-0.593c-0.567-0.647-0.868-1.468-0.852-2.332c0.034-1.862,1.52-3.348,3.382-3.382
		c1.141-0.07,2.252-0.367,3.291-0.883c0.146-0.068,0.286-0.099,0.431-0.099c0.118,0,0.235,0.021,0.347,0.062
		c0.25,0.093,0.45,0.277,0.562,0.52c0.073,0.16,0.104,0.336,0.088,0.51c-0.167,2.037-0.96,6.78-4.709,6.78
		c-0.624-0.011-1.218-0.185-1.74-0.505c-0.033,0.083-0.063,0.165-0.091,0.246c-0.11,0.316-0.165,0.646-0.164,0.98v12.001h6.25
		c0.276,0,0.5,0.224,0.5,0.5s-0.224,0.5-0.5,0.5H0.5z M7.52,18.769c0.184,0.166,0.421,0.257,0.67,0.257
		c0.268,0,0.519-0.104,0.707-0.293c0.375-0.375,0.388-0.986,0.035-1.377c-0.758-0.471-1.58-0.823-2.443-1.048
		c0,0-0.016-0.004-0.024-0.006C6.695,17.187,7.049,18.012,7.52,18.769z M13.1,11.508c-0.353,0-0.697,0.1-0.995,0.291
		c-0.881,0.499-1.82,0.81-2.803,0.932c0.752,0.945,2.219,2.535,3.689,2.535c0.388,0,0.76-0.113,1.108-0.335
		c0.313-0.2,0.558-0.49,0.704-0.83c-0.534-0.227-1.116-0.345-1.697-0.345c-0.284,0-0.571,0.028-0.851,0.083
		c-0.031,0.007-0.065,0.01-0.1,0.01c-0.236,0-0.441-0.169-0.488-0.403c-0.026-0.131,0-0.265,0.075-0.376s0.187-0.187,0.318-0.212
		c0.343-0.069,0.695-0.103,1.044-0.103c0.629,0,1.243,0.109,1.83,0.324c-0.038-0.252-0.129-0.494-0.268-0.712
		C14.326,11.829,13.74,11.508,13.1,11.508z M17.959,8.878c0.385,0.255,0.829,0.393,1.296,0.402c2.909,0,3.559-4.103,3.703-5.867
		c-1.149,0.565-2.391,0.896-3.682,0.975c-1.338,0.025-2.397,1.08-2.422,2.401c-0.009,0.483,0.126,0.955,0.385,1.359
		c0.743-1.099,1.816-1.958,3.057-2.44c0.059-0.023,0.119-0.034,0.181-0.034c0.208,0,0.391,0.125,0.466,0.319
		c0.1,0.257-0.028,0.547-0.285,0.647C19.542,7.074,18.591,7.865,17.959,8.878z"/>
</g>
</svg>
