<?xml version="1.0" encoding="utf-8"?>
<!-- Generator: Adobe Illustrator 22.1.0, SVG Export Plug-In . SVG Version: 6.00 Build 0)  -->
<svg version="1.1" id="Light" xmlns="http://www.w3.org/2000/svg" xmlns:xlink="http://www.w3.org/1999/xlink" x="0px" y="0px"
	 viewBox="0 0 24 24" style="enable-background:new 0 0 24 24;" xml:space="preserve">
<g>
	<title>organic-watering-plant</title>
	<path d="M0.505,23.798c-0.276,0-0.5-0.224-0.5-0.5v-1c0-2.761,0.923-5.419,2.671-7.697c-0.473-1.04-0.713-2.149-0.713-3.299
		c0-2.518,1.207-4.918,3.227-6.42l0.012-0.012c0.274-0.259,2.895-2.571,8.76-2.571c0.227,0.01,0.442,0.016,0.656,0.016
		c2.463,0,4.875-0.678,6.973-1.959c0.151-0.103,0.341-0.162,0.539-0.162c0.333,0,0.643,0.163,0.829,0.437
		c0.082,0.12,0.136,0.253,0.16,0.396c0.589,3.361,0.214,6.806-1.086,9.963c-0.078,0.188-0.259,0.31-0.462,0.31
		c-0.065,0-0.13-0.013-0.19-0.038c-0.255-0.105-0.377-0.398-0.272-0.653c1.228-2.981,1.583-6.235,1.026-9.411
		c-2.274,1.387-4.864,2.118-7.502,2.118c-0.231,0-0.463-0.005-0.695-0.017c-5.453,0-7.812,2.075-8.063,2.311L5.817,5.661
		c-1.792,1.334-2.853,3.438-2.853,5.641c0,0.837,0.147,1.654,0.437,2.432c0.433-0.48,0.9-0.936,1.392-1.359
		c3.063-2.625,7.129-4.071,11.449-4.071h0.263c0.276,0,0.5,0.224,0.5,0.5s-0.224,0.5-0.5,0.5h-0.25c-4.095,0-7.93,1.36-10.811,3.83
		c-0.566,0.485-1.098,1.021-1.582,1.594c1.244,2.209,3.566,3.574,6.101,3.574c1.277-0.012,2.53-0.255,3.722-0.723
		c0.058-0.023,0.119-0.034,0.182-0.034c0.205,0,0.392,0.127,0.466,0.317c0.049,0.124,0.046,0.26-0.007,0.382
		c-0.053,0.122-0.151,0.217-0.276,0.265c-1.306,0.513-2.68,0.78-4.083,0.793c-2.743,0-5.299-1.42-6.763-3.729
		c-1.44,2.021-2.199,4.338-2.199,6.725v1C1.005,23.574,0.781,23.798,0.505,23.798z"/>
	<path d="M19.702,23.811c-0.068-0.001-0.135-0.003-0.202-0.008c-0.086,0.005-0.171,0.008-0.256,0.008
		c-1.024,0-2.014-0.372-2.788-1.048c-0.854-0.746-1.365-1.78-1.442-2.911c-0.005-0.077-0.008-0.154-0.009-0.231
		c0-1.717,1.978-5.386,3.637-8.162c0.137-0.229,0.356-0.392,0.615-0.457c0.08-0.02,0.163-0.03,0.245-0.03
		c0.18,0,0.357,0.049,0.512,0.142c0.141,0.084,0.26,0.203,0.344,0.344C22.019,14.236,24,17.907,24,19.615
		c-0.015,1.14-0.47,2.2-1.281,2.991c-0.797,0.777-1.849,1.205-2.961,1.205L19.702,23.811z M19.528,22.803
		c0.066,0.004,0.127,0.007,0.188,0.008l0.042,0c0.85,0,1.653-0.327,2.262-0.921c0.62-0.605,0.968-1.414,0.98-2.28
		c-0.001-1.102-1.342-4.03-3.5-7.639c-1.689,2.827-3.495,6.32-3.495,7.643c0.001,0.052,0.003,0.11,0.007,0.168
		c0.114,1.698,1.534,3.027,3.233,3.027c0.073,0,0.147-0.002,0.221-0.008c0.006,0,0.028-0.001,0.034-0.001
		C19.504,22.802,19.524,22.803,19.528,22.803z"/>
</g>
</svg>
