<?xml version="1.0" encoding="utf-8"?>
<!-- Generator: Adobe Illustrator 22.1.0, SVG Export Plug-In . SVG Version: 6.00 Build 0)  -->
<svg version="1.1" id="Layer_1" xmlns="http://www.w3.org/2000/svg" xmlns:xlink="http://www.w3.org/1999/xlink" x="0px" y="0px"
	 viewBox="0 0 24 24" style="enable-background:new 0 0 24 24;" xml:space="preserve">
<g>
	<title>products-give-gift</title>
	<path d="M12.5,14.977c-0.827,0-1.5-0.673-1.5-1.5V7.891c-0.59-0.209-1-0.774-1-1.414v-1c0-0.827,0.673-1.5,1.5-1.5h2.365
		c-0.334-0.158-0.572-0.311-0.72-0.459c-0.797-0.798-0.797-2.096,0.001-2.894c0.386-0.386,0.9-0.599,1.448-0.599
		s1.062,0.213,1.448,0.599C16.338,0.918,16.659,1.598,17,2.649c0.341-1.051,0.663-1.731,0.959-2.026
		c0.385-0.385,0.899-0.598,1.447-0.598s1.062,0.213,1.448,0.599c0.798,0.798,0.798,2.096,0,2.895
		c-0.147,0.148-0.385,0.301-0.719,0.459H22.5c0.827,0,1.5,0.673,1.5,1.5v1c0,0.64-0.41,1.205-1,1.414v5.586
		c0,0.827-0.673,1.5-1.5,1.5H12.5z M21.5,13.977c0.276,0,0.5-0.224,0.5-0.5v-5.5h-3v6H21.5z M18,13.977v-9h-2v9H18z M12,13.477
		c0,0.276,0.224,0.5,0.5,0.5H15v-6h-3V13.477z M22.5,6.977c0.276,0,0.5-0.224,0.5-0.5v-1c0-0.276-0.224-0.5-0.5-0.5H19v2H22.5z
		 M11.5,4.977c-0.276,0-0.5,0.224-0.5,0.5v1c0,0.276,0.224,0.5,0.5,0.5H15v-2H11.5z M19.406,1.024c-0.28,0-0.543,0.109-0.74,0.306
		c-0.229,0.228-0.604,1.186-0.961,2.443c1.237-0.35,2.213-0.731,2.44-0.961c0.41-0.41,0.41-1.074,0.001-1.482
		C19.949,1.133,19.686,1.024,19.406,1.024z M14.594,1.024c-0.28,0-0.543,0.109-0.74,0.306c-0.408,0.408-0.408,1.073,0,1.481
		c0.229,0.23,1.186,0.604,2.443,0.961c-0.351-1.238-0.732-2.214-0.961-2.441C15.137,1.133,14.874,1.024,14.594,1.024z"/>
	<path d="M0.5,23.977c-0.276,0-0.5-0.224-0.5-0.5v-10c0-0.276,0.224-0.5,0.5-0.5s0.5,0.224,0.5,0.5v1.5h6.5
		c1.74,0,3.219,1.3,3.464,3H16.5c1.93,0,3.5,1.57,3.5,3.5c0,0.276-0.224,0.5-0.5,0.5H1v1.5C1,23.753,0.776,23.977,0.5,23.977z
		 M18.949,20.977c-0.235-1.141-1.261-2-2.449-2h-9c-0.276,0-0.5-0.224-0.5-0.5s0.224-0.5,0.5-0.5h2.448
		c-0.235-1.141-1.261-2-2.448-2H1v5H18.949z"/>
</g>
</svg>
