<?xml version="1.0" encoding="utf-8"?>
<!-- Generator: Adobe Illustrator 22.1.0, SVG Export Plug-In . SVG Version: 6.00 Build 0)  -->
<svg version="1.1" id="Layer_1" xmlns="http://www.w3.org/2000/svg" xmlns:xlink="http://www.w3.org/1999/xlink" x="0px" y="0px"
	 viewBox="0 0 24 24" style="enable-background:new 0 0 24 24;" xml:space="preserve">
<g>
	<title>products-gifts</title>
	<path d="M0.5,24C0.224,24,0,23.776,0,23.5v-10C0,13.224,0.224,13,0.5,13S1,13.224,1,13.5V15h6.5c1.74,0,3.219,1.3,3.464,3H16.5
		c1.93,0,3.5,1.57,3.5,3.5c0,0.276-0.224,0.5-0.5,0.5H1v1.5C1,23.776,0.776,24,0.5,24z M18.949,21c-0.235-1.141-1.261-2-2.449-2h-9
		C7.224,19,7,18.776,7,18.5S7.224,18,7.5,18h2.448c-0.235-1.141-1.261-2-2.448-2H1v5H18.949z"/>
	<path d="M16.5,16c-0.827,0-1.5-0.673-1.5-1.5h-4.384c-0.058,0-0.111-0.003-0.164-0.009c-0.398-0.042-0.756-0.237-1.008-0.548
		c-0.252-0.311-0.368-0.702-0.326-1.101l0.79-7.5C9.99,4.578,10.631,4,11.4,4H12V2.5C12,1.121,13.122,0,14.5,0S17,1.121,17,2.5V4
		h1.5C18.776,4,19,4.224,19,4.5S18.776,5,18.5,5h-7.1c-0.256,0-0.47,0.193-0.497,0.448l-0.79,7.5
		c-0.014,0.133,0.024,0.263,0.108,0.367c0.084,0.104,0.203,0.169,0.336,0.183c0.015,0.001,0.031,0.002,0.045,0.002l4.397,0v-4
		C15,8.673,15.673,8,16.5,8h1.793l-1.146-1.146C17.052,6.759,17,6.634,17,6.5s0.052-0.259,0.146-0.354S17.366,6,17.5,6
		s0.259,0.052,0.354,0.146L19.5,7.793l1.646-1.646C21.241,6.052,21.366,6,21.5,6s0.259,0.052,0.354,0.146S22,6.366,22,6.5
		s-0.052,0.259-0.146,0.354L20.707,8H22.5C23.327,8,24,8.673,24,9.5v5c0,0.827-0.673,1.5-1.5,1.5H16.5z M22.5,15
		c0.276,0,0.5-0.224,0.5-0.5V13h-3L22.5,15z M16,14.5c0,0.276,0.224,0.5,0.5,0.5H19v-2h-3V14.5z M23,12V9.5
		C23,9.224,22.776,9,22.5,9H20v3H23z M19,12V9h-2.5C16.224,9,16,9.224,16,9.5V12H19z M16,4V2.5C16,1.673,15.327,1,14.5,1
		S13,1.673,13,2.5V4H16z"/>
</g>
</svg>
