<?xml version="1.0" encoding="utf-8"?>
<!-- Generator: Adobe Illustrator 22.1.0, SVG Export Plug-In . SVG Version: 6.00 Build 0)  -->
<svg version="1.1" id="Layer_1" xmlns="http://www.w3.org/2000/svg" xmlns:xlink="http://www.w3.org/1999/xlink" x="0px" y="0px"
	 viewBox="0 0 24 24" style="enable-background:new 0 0 24 24;" xml:space="preserve">
<g>
	<title>products-gift-tag</title>
	<path d="M3.706,15.206c-1.379,0-2.5-1.122-2.5-2.5V7.12c-0.59-0.209-1-0.774-1-1.414v-1c0-0.827,0.673-1.5,1.5-1.5h1.806
		C3.312,2.883,3.206,2.511,3.206,2.12c0-0.512,0.199-0.992,0.561-1.354c0.361-0.361,0.842-0.56,1.353-0.56
		c0.512,0,0.993,0.199,1.354,0.56l2.232,2.232l2.233-2.232c0.361-0.361,0.842-0.561,1.353-0.561c0.511,0,0.992,0.199,1.354,0.56
		c0.362,0.362,0.561,0.843,0.561,1.354c0,0.39-0.106,0.762-0.306,1.086h1.806c0.827,0,1.5,0.673,1.5,1.5v1
		c0,0.64-0.41,1.205-1,1.414v4.586c0,0.276-0.224,0.5-0.5,0.5s-0.5-0.224-0.5-0.5v-4.5h-6v7h2.5c0.276,0,0.5,0.224,0.5,0.5
		s-0.224,0.5-0.5,0.5H3.706z M2.206,12.706c0,0.827,0.673,1.5,1.5,1.5h4.5v-7h-6V12.706z M1.706,4.206c-0.276,0-0.5,0.224-0.5,0.5v1
		c0,0.276,0.224,0.5,0.5,0.5h14c0.276,0,0.5-0.224,0.5-0.5v-1c0-0.276-0.224-0.5-0.5-0.5H1.706z M12.12,3.206
		c0.599,0,1.086-0.487,1.086-1.086c0-0.244-0.095-0.474-0.268-0.647c-0.172-0.172-0.402-0.267-0.646-0.267
		c-0.245,0-0.474,0.095-0.646,0.267L9.913,3.206H12.12z M5.12,1.207c-0.245,0-0.474,0.095-0.646,0.267
		C4.301,1.646,4.206,1.876,4.206,2.12c0,0.599,0.487,1.086,1.086,1.086h2.207L5.766,1.474C5.594,1.301,5.365,1.207,5.12,1.207z"/>
	<path d="M19.206,23.792c-0.401,0-0.778-0.156-1.061-0.439l-4.5-4.5c-0.283-0.283-0.439-0.66-0.439-1.061v-3.086
		c0-0.225,0.051-0.445,0.147-0.646l-2.001-2.001c-0.195-0.195-0.195-0.512,0-0.707c0.094-0.094,0.22-0.146,0.354-0.146
		s0.259,0.052,0.354,0.146l2.001,2.001c0.201-0.097,0.421-0.147,0.646-0.147h3.086c0.401,0,0.777,0.156,1.061,0.439l4.5,4.5
		c0.283,0.283,0.439,0.659,0.439,1.06c0,0.401-0.156,0.778-0.439,1.061l-3.086,3.086C19.984,23.636,19.607,23.792,19.206,23.792z
		 M14.706,14.206c-0.276,0-0.5,0.224-0.5,0.5v3.086c0,0.132,0.053,0.26,0.146,0.354l4.5,4.5c0.094,0.094,0.22,0.146,0.354,0.146
		s0.259-0.052,0.353-0.146l3.086-3.086c0.195-0.195,0.195-0.512,0-0.707l-4.5-4.5c-0.094-0.094-0.22-0.146-0.354-0.146H14.706z"/>
</g>
</svg>
