<?xml version="1.0" encoding="utf-8"?>
<!-- Generator: Adobe Illustrator 22.1.0, SVG Export Plug-In . SVG Version: 6.00 Build 0)  -->
<svg version="1.1" id="Layer_1" xmlns="http://www.w3.org/2000/svg" xmlns:xlink="http://www.w3.org/1999/xlink" x="0px" y="0px"
	 viewBox="0 0 24 24" style="enable-background:new 0 0 24 24;" xml:space="preserve">
<g>
	<title>adventure-car-2</title>
	<path d="M17.5,22.49c-1.654,0-3-1.346-3-3s1.346-3,3-3s3,1.346,3,3S19.154,22.49,17.5,22.49z M17.5,17.49c-1.103,0-2,0.897-2,2
		s0.897,2,2,2s2-0.897,2-2S18.603,17.49,17.5,17.49z"/>
	<path d="M7.5,22.49c-1.654,0-3-1.346-3-3s1.346-3,3-3s3,1.346,3,3S9.154,22.49,7.5,22.49z M7.5,17.49c-1.103,0-2,0.897-2,2
		s0.897,2,2,2s2-0.897,2-2S8.603,17.49,7.5,17.49z"/>
	<path d="M21.965,17.49c-0.501,0-0.925-0.369-0.995-0.858c-0.176-1.219-1.238-2.14-2.471-2.142H16.5
		c-1.235,0-2.299,0.921-2.475,2.142c-0.07,0.489-0.496,0.858-0.99,0.858h-1.07c-0.494,0-0.92-0.369-0.99-0.858
		c-0.176-1.221-1.24-2.142-2.474-2.142H6.5c-1.235,0-2.299,0.921-2.475,2.142c-0.07,0.489-0.496,0.858-0.99,0.858H0.5
		c-0.276,0-0.5-0.224-0.5-0.5s0.224-0.5,0.5-0.5H1v-5.233c0-0.334,0.166-0.646,0.444-0.832L2,10.055V2.01c0-0.276,0.224-0.5,0.5-0.5
		S3,1.734,3,2.01v7.378l4.097-2.73C7.261,6.548,7.452,6.49,7.65,6.49H16c0.552,0,1,0.449,1,1v3.066l6.142,0.877
		c0.489,0.07,0.858,0.496,0.858,0.99v4.067c0,0.552-0.448,1-1,1H21.965z M18.5,13.49c1.726,0.003,3.213,1.292,3.46,3l1.04,0v-4.067
		l-6.535-0.933h-4.466c-0.21,0-0.399-0.132-0.47-0.329l-1.33-3.671H7.651l-5.652,3.767L2,16.49h1.035c0.247-1.71,1.736-3,3.464-3
		H8.5c1.729,0,3.218,1.29,3.465,3l1.07,0c0.247-1.71,1.736-3,3.464-3H18.5z M16,10.49v-3h-4.737l1.087,3H16z"/>
</g>
</svg>
