<?xml version="1.0" encoding="utf-8"?>
<!-- Generator: Adobe Illustrator 22.1.0, SVG Export Plug-In . SVG Version: 6.00 Build 0)  -->
<svg version="1.1" id="Layer_1" xmlns="http://www.w3.org/2000/svg" xmlns:xlink="http://www.w3.org/1999/xlink" x="0px" y="0px"
	 viewBox="0 0 24 24" style="enable-background:new 0 0 24 24;" xml:space="preserve">
<g>
	<title>adventure-car-atv-1</title>
	<path d="M5,21.5c-2.206,0-4-1.794-4-4s1.794-4,4-4s4,1.794,4,4S7.206,21.5,5,21.5z M5,14.5c-1.654,0-3,1.346-3,3s1.346,3,3,3
		s3-1.346,3-3S6.654,14.5,5,14.5z"/>
	<path d="M18.5,21.5c-2.206,0-4-1.794-4-4s1.794-4,4-4s4,1.794,4,4S20.706,21.5,18.5,21.5z M18.5,14.5c-1.654,0-3,1.346-3,3
		s1.346,3,3,3s3-1.346,3-3S20.155,14.5,18.5,14.5z"/>
	<path d="M11.5,12.5c-0.276,0-0.5-0.224-0.5-0.5c0-0.276,0.224-0.5,0.5-0.5h1c0.276,0,0.5,0.224,0.5,0.5c0,0.276-0.224,0.5-0.5,0.5
		H11.5z"/>
	<path d="M5,19c-0.827,0-1.5-0.673-1.5-1.5S4.173,16,5,16s1.5,0.673,1.5,1.5S5.827,19,5,19z M5,17c-0.276,0-0.5,0.224-0.5,0.5
		S4.725,18,5,18s0.5-0.224,0.5-0.5S5.276,17,5,17z"/>
	<path d="M18.5,19c-0.827,0-1.5-0.673-1.5-1.5s0.673-1.5,1.5-1.5s1.5,0.673,1.5,1.5S19.327,19,18.5,19z M18.5,17
		c-0.276,0-0.5,0.224-0.5,0.5s0.224,0.5,0.5,0.5s0.5-0.224,0.5-0.5S18.776,17,18.5,17z"/>
	<path d="M23.501,15.5c-0.186,0-0.355-0.102-0.442-0.265c-0.897-1.687-2.641-2.735-4.551-2.735c-1.792,0-3.451,0.958-4.342,2.5
		c-0.177,0.308-0.509,0.5-0.866,0.5h-3.1c-0.359,0-0.691-0.192-0.869-0.5c-0.361-0.626-0.865-1.177-1.456-1.592
		c-0.845-0.594-1.836-0.907-2.867-0.907c-1.632,0-3.164,0.794-4.098,2.124c-0.094,0.133-0.247,0.212-0.41,0.212
		c-0.103,0-0.203-0.031-0.287-0.091c-0.109-0.076-0.182-0.191-0.205-0.323s0.007-0.264,0.083-0.374
		C0.355,13.675,0.66,13.331,1,13.027V9.664C1,9.022,1.522,8.5,2.164,8.5H7.5C7.776,8.5,8,8.724,8,9v0.5h1V6
		c0-0.276,0.224-0.5,0.5-0.5S10,5.724,10,6v3.5h4V7c0-0.276,0.224-0.5,0.5-0.5h2.279l-1.071-2.856
		c-0.034-0.078-0.127-0.139-0.233-0.144l-1.975,0C13.225,3.5,13,3.276,13,3s0.224-0.5,0.5-0.5h2c0.51,0.025,0.94,0.319,1.135,0.769
		L17.847,6.5H18.5c1.305,0,2.381,0.995,2.491,2.284L21.5,9.292c0.302,0.335,0.477,0.751,0.5,1.181L22,12.588
		c0.811,0.559,1.48,1.309,1.941,2.177c0.063,0.118,0.076,0.253,0.037,0.381s-0.126,0.233-0.244,0.295
		C23.664,15.48,23.583,15.5,23.501,15.5z M5.01,11.501c1.237,0,2.427,0.376,3.44,1.088c0.71,0.499,1.314,1.159,1.748,1.91H13.3
		c1.068-1.85,3.059-3,5.196-3c0.866,0,1.721,0.181,2.504,0.527V10.5c-0.01-0.177-0.093-0.372-0.226-0.52l-0.627-0.626
		C20.052,9.259,20,9.134,20,9c0-0.827-0.673-1.5-1.5-1.5H15v2c0,0.551-0.448,1-1,1H7.5C7.225,10.5,7,10.276,7,10V9.5H2.164
		C2.074,9.5,2,9.573,2,9.664v2.64C2.913,11.777,3.944,11.501,5.01,11.501z"/>
</g>
</svg>
