<?xml version="1.0" encoding="utf-8"?>
<!-- Generator: Adobe Illustrator 22.1.0, SVG Export Plug-In . SVG Version: 6.00 Build 0)  -->
<svg version="1.1" id="Layer_1" xmlns="http://www.w3.org/2000/svg" xmlns:xlink="http://www.w3.org/1999/xlink" x="0px" y="0px"
	 viewBox="0 0 24 24" style="enable-background:new 0 0 24 24;" xml:space="preserve">
<g>
	<title>adventure-car</title>
	<path d="M19.5,19.5c-1.269,0-2.405-0.813-2.826-2H8.826c-0.421,1.187-1.557,2-2.826,2c-1.287,0-2.433-0.833-2.841-2.045
		C2.488,17.298,2,16.699,2,16v-0.588C1.84,15.47,1.672,15.5,1.5,15.5C0.673,15.5,0,14.827,0,14v-4c0-0.827,0.673-1.5,1.5-1.5
		S3,9.173,3,10v0.5h1.89L4.362,7.857C4.178,6.81,4.84,5.814,5.868,5.582C6.011,5.55,6.158,5.533,6.304,5.533
		c0.37,0,0.734,0.106,1.05,0.306c0.445,0.281,0.754,0.719,0.869,1.233l0.699,3.492C9.382,10.7,9.754,11.052,9.914,11.5H12.5
		c0.827,0,1.5,0.673,1.5,1.5v1.47c0.808-0.114,1.514-0.615,1.882-1.351l1.582-3.165l-1.443-4.81
		c-0.079-0.264,0.072-0.543,0.335-0.623C16.403,4.507,16.452,4.5,16.5,4.5c0.219,0,0.416,0.147,0.479,0.357L18.372,9.5H22.5
		c0.827,0,1.5,0.673,1.5,1.5v5c0,0.827-0.673,1.5-1.5,1.5h-0.174C21.905,18.687,20.769,19.5,19.5,19.5z M19.5,14.5
		c-1.103,0-2,0.897-2,2s0.897,2,2,2s2-0.897,2-2S20.603,14.5,19.5,14.5z M6,14.5c-1.103,0-2,0.897-2,2s0.897,2,2,2s2-0.897,2-2
		S7.103,14.5,6,14.5z M22.5,16.5c0.276,0,0.5-0.224,0.5-0.5v-5c0-0.276-0.224-0.5-0.5-0.5h-4.191l-1.533,3.066
		c-0.597,1.193-1.796,1.934-3.13,1.934H10.5C9.673,15.5,9,14.827,9,14v-2c0-0.276-0.224-0.5-0.5-0.5H3V16
		c0,0.049,0.007,0.097,0.021,0.143C3.198,14.656,4.467,13.5,6,13.5c1.654,0,3,1.346,3,3h7.5c0-1.654,1.346-3,3-3
		S22.5,14.846,22.5,16.5z M10,14c0,0.276,0.224,0.5,0.5,0.5H13V13c0-0.276-0.224-0.5-0.5-0.5H10V14z M1.5,9.5
		C1.224,9.5,1,9.724,1,10v4c0,0.276,0.224,0.5,0.5,0.5S2,14.276,2,14v-4C2,9.724,1.776,9.5,1.5,9.5z M7.89,10.5L7.246,7.28
		C7.191,7.037,7.039,6.823,6.82,6.684C6.664,6.586,6.485,6.534,6.303,6.534c-0.072,0-0.144,0.008-0.216,0.024
		C5.581,6.672,5.255,7.161,5.344,7.673L5.91,10.5H7.89z"/>
</g>
</svg>
