<?xml version="1.0" encoding="utf-8"?>
<!-- Generator: Adobe Illustrator 22.1.0, SVG Export Plug-In . SVG Version: 6.00 Build 0)  -->
<svg version="1.1" id="Layer_1" xmlns="http://www.w3.org/2000/svg" xmlns:xlink="http://www.w3.org/1999/xlink" x="0px" y="0px"
	 viewBox="0 0 24 24" style="enable-background:new 0 0 24 24;" xml:space="preserve">
<g>
	<title>adventure-car-truck-1</title>
	<path d="M7.991,16c-0.276,0-0.5-0.224-0.5-0.5v-1.969c0-0.276,0.224-0.5,0.5-0.5s0.5,0.224,0.5,0.5V15.5
		C8.491,15.776,8.267,16,7.991,16z"/>
	<path d="M9.991,16c-0.276,0-0.5-0.224-0.5-0.5v-1.969c0-0.276,0.224-0.5,0.5-0.5s0.5,0.224,0.5,0.5V15.5
		C10.491,15.776,10.267,16,9.991,16z"/>
	<path d="M11.991,16c-0.276,0-0.5-0.224-0.5-0.5v-1.969c0-0.276,0.224-0.5,0.5-0.5c0.276,0,0.5,0.224,0.5,0.5V15.5
		C12.491,15.776,12.267,16,11.991,16z"/>
	<path d="M13.991,16c-0.276,0-0.5-0.224-0.5-0.5v-1.969c0-0.276,0.224-0.5,0.5-0.5s0.5,0.224,0.5,0.5V15.5
		C14.491,15.776,14.267,16,13.991,16z"/>
	<path d="M15.991,16c-0.276,0-0.5-0.224-0.5-0.5v-1.969c0-0.276,0.224-0.5,0.5-0.5s0.5,0.224,0.5,0.5V15.5
		C16.491,15.776,16.267,16,15.991,16z"/>
	<path d="M19.491,16.5c-1.103,0-2-0.897-2-2s0.897-2,2-2s2,0.897,2,2S20.594,16.5,19.491,16.5z M19.491,13.5c-0.552,0-1,0.448-1,1
		s0.448,1,1,1s1-0.448,1-1S20.042,13.5,19.491,13.5z"/>
	<path d="M4.491,16.5c-1.103,0-2-0.897-2-2s0.897-2,2-2s2,0.897,2,2S5.594,16.5,4.491,16.5z M4.491,13.5c-0.551,0-1,0.448-1,1
		s0.449,1,1,1s1-0.448,1-1S5.042,13.5,4.491,13.5z"/>
	<path d="M20.009,24c-1.378,0-2.5-1.122-2.5-2.5v-0.285L12.791,18H11.19l-4.699,3.202V21.5c0,1.378-1.121,2.5-2.5,2.5h-1
		c-1.379,0-2.5-1.122-2.5-2.5v-2.14c0-0.276,0.224-0.5,0.5-0.5s0.5,0.224,0.5,0.5v2.14c0,0.827,0.673,1.5,1.5,1.5h1
		c0.827,0,1.5-0.673,1.5-1.5v-2.14c0-0.276,0.224-0.5,0.5-0.5s0.5,0.224,0.5,0.5v0.632L9.415,18H1.991c-0.827,0-1.5-0.673-1.5-1.5
		v-4.667c0-0.167,0.03-0.336,0.089-0.501c0.007-0.018,0.013-0.034,0.021-0.05c0.044-0.118,0.111-0.243,0.191-0.349l2.5-3.333
		c0.057-0.077,0.124-0.149,0.2-0.215V7h-0.5c-0.827,0-1.5-0.673-1.5-1.5v-2c0-0.827,0.673-1.5,1.5-1.5h0.551
		c0.234-1.155,1.25-2,2.449-2h12c1.199,0,2.215,0.845,2.449,2h0.551c0.827,0,1.5,0.673,1.5,1.5v2c0,0.827-0.673,1.5-1.5,1.5h-0.5
		v0.385c0.075,0.067,0.142,0.139,0.2,0.215l2.5,3.333c0.081,0.108,0.149,0.234,0.201,0.374c0.068,0.188,0.099,0.358,0.099,0.526
		V16.5c0,0.827-0.673,1.5-1.5,1.5h-7.424l2.942,2.005V19.36c0-0.276,0.224-0.5,0.5-0.5s0.5,0.224,0.5,0.5v2.14
		c0,0.827,0.673,1.5,1.5,1.5h1c0.827,0,1.5-0.673,1.5-1.5v-2.14c0-0.276,0.224-0.5,0.5-0.5s0.5,0.224,0.5,0.5v2.14
		c0,1.378-1.122,2.5-2.5,2.5H20.009z M1.491,16.5c0,0.276,0.224,0.5,0.5,0.5h20c0.276,0,0.5-0.224,0.5-0.5V12h-21V16.5z M21.991,11
		l-2.1-2.8c-0.094-0.125-0.244-0.2-0.4-0.2h-15c-0.156,0-0.306,0.075-0.4,0.2l-2.1,2.8H21.991z M19.491,7V2.5
		c0-0.827-0.673-1.5-1.5-1.5h-5.5v6H19.491z M11.491,7V1h-5.5c-0.827,0-1.5,0.673-1.5,1.5V7H11.491z M20.991,6
		c0.276,0,0.5-0.224,0.5-0.5v-2c0-0.276-0.224-0.5-0.5-0.5h-0.5v3H20.991z M2.991,3c-0.276,0-0.5,0.224-0.5,0.5v2
		c0,0.276,0.224,0.5,0.5,0.5h0.5V3H2.991z"/>
</g>
</svg>
