<?xml version="1.0" encoding="utf-8"?>
<!-- Generator: Adobe Illustrator 22.1.0, SVG Export Plug-In . SVG Version: 6.00 Build 0)  -->
<svg version="1.1" id="Light" xmlns="http://www.w3.org/2000/svg" xmlns:xlink="http://www.w3.org/1999/xlink" x="0px" y="0px"
	 viewBox="0 0 24 24" style="enable-background:new 0 0 24 24;" xml:space="preserve">
<g>
	<title>basketball-ball</title>
	<path d="M12,24c-3.273,0-6.329-1.299-8.614-3.658c-0.127-0.054-0.222-0.156-0.27-0.284C1.106,17.843,0,14.984,0,12
		c0-2.955,1.089-5.796,3.066-8.001c0.018-0.025,0.038-0.047,0.059-0.067c1.919-2.109,4.524-3.468,7.339-3.83
		c0.019-0.005,0.041-0.008,0.056-0.009c0.002,0,0.012,0,0.015,0C11.036,0.031,11.529,0,12,0c3.135,0,6.103,1.207,8.357,3.398
		c2.243,2.181,3.532,5.095,3.633,8.209c0.01,0.052,0.012,0.106,0.004,0.159l0.002,0.072C23.998,11.892,24,11.946,24,12
		c0,3.973-1.966,7.681-5.261,9.925c-0.055,0.06-0.126,0.106-0.206,0.134C16.584,23.329,14.326,24,12,24z M14.141,12.583
		c-0.255,0.199-0.496,0.411-0.719,0.63c-2.079,2.051-3.664,5.833-1.351,9.786c2.036-0.013,4.016-0.589,5.743-1.669
		C17.23,18.044,15.995,15.104,14.141,12.583z M4.166,19.71c1.814,1.844,4.187,2.98,6.738,3.234c-2-3.998-0.565-8.094,1.817-10.443
		c0.253-0.25,0.524-0.489,0.807-0.714c-0.733-0.896-1.559-1.746-2.461-2.53C7.01,12.746,5.017,17.234,4.166,19.71z M14.933,12.033
		c1.87,2.528,3.139,5.443,3.779,8.673C21.404,18.624,23,15.399,23,12c0-0.006,0-0.013,0-0.019c-1.277-0.763-2.614-1.149-3.977-1.149
		C17.285,10.832,15.871,11.455,14.933,12.033z M1.191,9.961C1.064,10.633,1,11.318,1,12c0,2.492,0.852,4.91,2.408,6.856
		c0.932-2.527,2.969-6.83,6.877-10.246C9.707,8.152,9.095,7.715,8.462,7.308C6.861,8.938,4.732,9.89,2.445,9.995
		c-0.137,0.006-0.274,0.009-0.412,0.009C1.766,10.005,1.489,9.99,1.191,9.961z M11.814,8.645c0.904,0.8,1.74,1.668,2.49,2.586
		c1.423-0.914,3.03-1.396,4.663-1.396c1.347,0,2.708,0.333,3.965,0.968c-0.243-2.213-1.168-4.329-2.636-6.016
		C17.123,5.432,14.271,6.729,11.814,8.645z M1.422,8.98c0.211,0.016,0.42,0.025,0.626,0.025c0.117,0,0.234-0.003,0.351-0.008
		c1.954-0.09,3.784-0.878,5.187-2.228C6.34,6.039,5.009,5.407,3.621,4.886C2.605,6.081,1.85,7.488,1.422,8.98z M9.108,6.576
		c0.666,0.439,1.311,0.911,1.924,1.407c2.451-1.951,5.291-3.308,8.449-4.039C17.438,2.042,14.799,1,12,1
		c-0.311,0-0.63,0.014-0.95,0.042C11.038,3.054,10.355,5.001,9.108,6.576z M4.359,4.099c1.328,0.528,2.665,1.193,3.899,1.938
		c1.121-1.379,1.75-3.089,1.791-4.863C7.923,1.557,5.925,2.585,4.359,4.099z"/>
</g>
</svg>
