<?xml version="1.0" encoding="utf-8"?>
<!-- Generator: Adobe Illustrator 22.1.0, SVG Export Plug-In . SVG Version: 6.00 Build 0)  -->
<svg version="1.1" id="Light" xmlns="http://www.w3.org/2000/svg" xmlns:xlink="http://www.w3.org/1999/xlink" x="0px" y="0px"
	 viewBox="0 0 24 24" style="enable-background:new 0 0 24 24;" xml:space="preserve">
<g>
	<title>volleyball-net</title>
	<path d="M1.5,20.599c-0.276,0-0.5-0.224-0.5-0.5V7c0-0.276,0.224-0.5,0.5-0.5h20C21.776,6.5,22,6.724,22,7v12.5
		c0,0.276-0.224,0.5-0.5,0.5S21,19.776,21,19.5v-3H2v3.599C2,20.375,1.776,20.599,1.5,20.599z M21,15.5v-2h-3v2H21z M17,15.5v-2h-3
		v2H17z M13,15.5v-2h-3v2H13z M9,15.5v-2H6v2H9z M5,15.5v-2H2v2H5z M21,12.5v-2h-3v2H21z M17,12.5v-2h-3v2H17z M13,12.5v-2h-3v2H13z
		 M9,12.5v-2H6v2H9z M5,12.5v-2H2v2H5z M21,9.5v-2h-3v2H21z M17,9.5v-2h-3v2H17z M13,9.5v-2h-3v2H13z M9,9.5v-2H6v2H9z M5,9.5v-2H2
		v2H5z"/>
	<path d="M23.5,23.5c-0.116,0-0.229-0.041-0.319-0.115c-1.477-1.222-3.345-1.895-5.258-1.895c-0.133,0-0.266,0.003-0.399,0.01
		c-0.004,0-0.033,0-0.037,0c-1.507,0-3.027,0.315-4.42,0.915c0.087,0.067,0.171,0.133,0.252,0.2
		c0.103,0.085,0.166,0.205,0.179,0.338s-0.027,0.263-0.113,0.366c-0.095,0.115-0.236,0.181-0.386,0.181
		c-0.116,0-0.229-0.041-0.318-0.115c-1.478-1.222-3.344-1.896-5.256-1.896c-0.133,0-0.267,0.003-0.401,0.01l-0.17-0.001
		c-2.181,0-4.279,0.661-6.067,1.911C0.702,23.469,0.603,23.5,0.5,23.5c-0.163,0-0.317-0.08-0.41-0.214
		c-0.077-0.109-0.106-0.242-0.083-0.374c0.023-0.131,0.096-0.246,0.206-0.323c1.957-1.368,4.246-2.092,6.619-2.092
		c0.058,0,0.117,0,0.175,0.001c0.131-0.007,0.278-0.01,0.424-0.01c1.638,0,3.247,0.439,4.664,1.27
		c1.669-0.824,3.525-1.26,5.378-1.26H17.5c0.135-0.007,0.282-0.01,0.429-0.01c2.141,0,4.233,0.755,5.889,2.125
		c0.103,0.085,0.166,0.205,0.179,0.338s-0.027,0.263-0.113,0.366C23.79,23.434,23.649,23.5,23.5,23.5z"/>
	<path d="M18.5,5.5C17.121,5.5,16,4.379,16,3s1.122-2.5,2.5-2.5S21,1.621,21,3S19.878,5.5,18.5,5.5z M18.5,1.5
		C17.673,1.5,17,2.173,17,3s0.673,1.5,1.5,1.5S20,3.827,20,3S19.327,1.5,18.5,1.5z"/>
</g>
</svg>
