<?xml version="1.0" encoding="utf-8"?>
<!-- Generator: Adobe Illustrator 22.1.0, SVG Export Plug-In . SVG Version: 6.00 Build 0)  -->
<svg version="1.1" id="Layer_1" xmlns="http://www.w3.org/2000/svg" xmlns:xlink="http://www.w3.org/1999/xlink" x="0px" y="0px"
	 viewBox="0 0 24 24" style="enable-background:new 0 0 24 24;" xml:space="preserve">
<g>
	<title>messaging-aim</title>
	<path d="M17.196,23.998c-0.034,0-0.068-0.003-0.1-0.01c-0.147-0.029-0.273-0.124-0.344-0.259c-1.347-2.591-2.915-4.043-5.068-4.686
		c-1.896,2.372-4.542,4.113-7.47,4.911c-0.044,0.012-0.088,0.017-0.131,0.017c-0.193,0-0.371-0.113-0.453-0.287
		c-0.811-1.719-1.038-2.212-1.591-3.524c-0.057-0.136-0.052-0.29,0.015-0.422c0.067-0.131,0.188-0.226,0.332-0.26
		c2.667-0.618,3.663-1.401,5.017-3.965c-0.09-3.881,1.075-6.944,3.123-8.201c0.079-0.048,0.169-0.074,0.262-0.074
		c0.053,0,0.105,0.008,0.155,0.025c1.2,0.393,2.172,1.006,3.028,1.546c1.004,0.633,1.795,1.132,2.646,1.132c0,0,0,0,0,0
		c0.688,0,1.377-0.334,2.168-1.051c0.093-0.084,0.212-0.13,0.337-0.13c0.021,0,0.042,0.001,0.063,0.004
		c0.146,0.019,0.275,0.1,0.355,0.224c0.903,1.391,1.63,2.739,1.71,2.888c0.105,0.198,0.07,0.435-0.088,0.592
		c-0.096,0.095-2.385,2.334-5.387,2.334c-0.312,0-0.625-0.024-0.933-0.073c-0.005,0.08-0.009,0.164-0.014,0.262
		c2.512,1.241,4.573,3.299,5.815,5.811c0.104,0.211,0.05,0.462-0.134,0.61l-0.367,0.297c-0.988,0.801-1.254,1.016-2.626,2.169
		C17.428,23.957,17.314,23.998,17.196,23.998z M3.19,20.311c0.359,0.839,0.611,1.388,1.164,2.562
		c2.668-0.819,5.057-2.484,6.745-4.704c0.094-0.124,0.243-0.198,0.398-0.198c0.042,0,0.084,0.006,0.125,0.016
		c2.417,0.619,4.242,2.126,5.722,4.734c0.985-0.826,1.292-1.074,2.167-1.784l0.055-0.044c-1.209-2.249-3.14-4.069-5.459-5.138
		c-0.184-0.085-0.298-0.271-0.29-0.473c0.014-0.382,0.027-0.578,0.04-0.794c0.007-0.115,0.015-0.234,0.023-0.392
		c0.009-0.152,0.083-0.289,0.205-0.378c0.086-0.063,0.188-0.096,0.294-0.096c0.043,0,0.087,0.006,0.129,0.017
		c0.403,0.106,0.822,0.16,1.245,0.16c2.052,0,3.767-1.241,4.429-1.794c-0.232-0.418-0.662-1.175-1.175-1.994
		c-0.813,0.63-1.595,0.936-2.384,0.936c-1.136,0-2.131-0.627-3.184-1.291c-0.75-0.473-1.596-1.006-2.582-1.364
		c-1.641,1.162-2.556,3.886-2.451,7.324c0.003,0.085-0.017,0.17-0.056,0.246C6.911,18.624,5.77,19.625,3.19,20.311z"/>
	<path d="M14.739,7.593c-0.985,0-1.918-0.377-2.627-1.062c-0.727-0.702-1.137-1.645-1.155-2.656
		c0.036-2.062,1.669-3.699,3.718-3.735l0.055,0c0.993,0,1.93,0.377,2.639,1.062c0.727,0.702,1.137,1.645,1.155,2.656
		c-0.036,2.066-1.669,3.699-3.718,3.735L14.739,7.593z M14.693,1.14c-1.508,0.026-2.71,1.228-2.736,2.735
		c0.026,1.495,1.275,2.718,2.782,2.718l0.049,0c1.506-0.026,2.707-1.226,2.736-2.731c-0.014-0.733-0.316-1.425-0.85-1.941
		c-0.522-0.504-1.208-0.781-1.932-0.781L14.693,1.14z"/>
</g>
</svg>
