<?xml version="1.0" encoding="utf-8"?>
<!-- Generator: Adobe Illustrator 22.1.0, SVG Export Plug-In . SVG Version: 6.00 Build 0)  -->
<svg version="1.1" id="Layer_1" xmlns="http://www.w3.org/2000/svg" xmlns:xlink="http://www.w3.org/1999/xlink" x="0px" y="0px"
	 viewBox="0 0 24 24" style="enable-background:new 0 0 24 24;" xml:space="preserve">
<g>
	<title>messaging-line-app</title>
	<path d="M2.453,22.689c-0.388,0-0.745-0.227-0.908-0.578c-0.129-0.278-0.125-0.595,0.012-0.869l1.768-3.53
		C1.266,16.044,0.052,13.555,0,10.892C0,5.435,5.383,1,12,1c6.617,0,12,4.433,12,9.882c0,5.45-5.383,9.883-12,9.883
		c-1.361,0-2.701-0.188-3.989-0.559l-5.137,2.39C2.741,22.658,2.599,22.689,2.453,22.689z M12,2C5.935,2,1,5.984,1,10.882
		c0.046,2.36,1.127,4.573,2.966,6.067c0.354,0.305,0.457,0.8,0.255,1.209L2.452,21.69l5.136-2.391
		c0.133-0.062,0.274-0.093,0.421-0.093c0.095,0,0.189,0.013,0.28,0.04c1.193,0.343,2.442,0.518,3.711,0.519
		c6.065,0,11-3.985,11-8.883C23,5.984,18.065,2,12,2z"/>
	<path d="M9.5,14C9.224,14,9,13.775,9,13.5v-6C9,7.224,9.224,7,9.5,7S10,7.224,10,7.5v6C10,13.775,9.776,14,9.5,14z"/>
	<path d="M15.5,14c-0.168,0-0.323-0.083-0.416-0.223L12,9.151V13.5c0,0.276-0.224,0.5-0.5,0.5S11,13.775,11,13.5v-6
		c0-0.222,0.143-0.414,0.355-0.479C11.402,7.007,11.451,7,11.5,7c0.167,0,0.323,0.083,0.416,0.222L15,11.848V7.5
		C15,7.224,15.224,7,15.5,7S16,7.224,16,7.5v6c0,0.222-0.143,0.414-0.355,0.479C15.599,13.992,15.55,14,15.5,14z"/>
	<path d="M17.5,14c-0.276,0-0.5-0.224-0.5-0.5v-6C17,7.224,17.224,7,17.5,7h3C20.776,7,21,7.224,21,7.5S20.776,8,20.5,8H18v2h2.5
		c0.276,0,0.5,0.224,0.5,0.5S20.776,11,20.5,11H18v2h2.5c0.276,0,0.5,0.224,0.5,0.5S20.776,14,20.5,14H17.5z"/>
	<path d="M4.5,14C4.224,14,4,13.775,4,13.5v-6C4,7.224,4.224,7,4.5,7S5,7.224,5,7.5V13h2.5C7.776,13,8,13.224,8,13.5
		S7.776,14,7.5,14H4.5z"/>
</g>
</svg>
