<?xml version="1.0" encoding="utf-8"?>
<!-- Generator: Adobe Illustrator 22.1.0, SVG Export Plug-In . SVG Version: 6.00 Build 0)  -->
<svg version="1.1" id="Layer_1" xmlns="http://www.w3.org/2000/svg" xmlns:xlink="http://www.w3.org/1999/xlink" x="0px" y="0px"
	 viewBox="0 0 24 24" style="enable-background:new 0 0 24 24;" xml:space="preserve">
<g>
	<title>messaging-kik-1</title>
	<path d="M13.011,17.513c-0.514,0-0.987-0.258-1.264-0.689l-2.124-3.186L9.5,13.734V16c0,0.827-0.673,1.5-1.5,1.5S6.5,16.827,6.5,16
		V5.5C6.5,4.673,7.173,4,8,4s1.5,0.673,1.5,1.5v4.432l2.079-1.617c0.266-0.207,0.583-0.316,0.917-0.316
		c0.063,0,0.126,0.004,0.189,0.012c0.398,0.05,0.752,0.251,0.998,0.568c0.246,0.316,0.354,0.709,0.304,1.107
		c-0.05,0.397-0.251,0.752-0.567,0.998l-1.424,1.108l2.274,3.41c0.448,0.699,0.245,1.628-0.451,2.075
		C13.578,17.432,13.299,17.513,13.011,17.513L13.011,17.513z M9.741,12.413c0.027,0,0.054,0.002,0.081,0.007
		c0.136,0.022,0.259,0.101,0.335,0.216l2.427,3.641c0.096,0.15,0.255,0.237,0.428,0.237c0.095,0,0.188-0.027,0.268-0.079
		c0.113-0.072,0.19-0.184,0.219-0.314s0.005-0.264-0.067-0.376l-2.523-3.785c-0.145-0.217-0.097-0.512,0.109-0.672l1.791-1.393
		c0.106-0.082,0.173-0.2,0.189-0.333c0.017-0.133-0.02-0.264-0.101-0.369c-0.082-0.105-0.2-0.173-0.333-0.189
		C12.54,9,12.519,8.999,12.498,8.999c-0.111,0-0.216,0.037-0.305,0.106l-2.886,2.244C9.22,11.416,9.111,11.454,9,11.454
		c-0.076,0-0.152-0.018-0.22-0.051C8.61,11.32,8.5,11.143,8.5,10.954V5.5C8.5,5.224,8.276,5,8,5S7.5,5.224,7.5,5.5V16
		c0,0.276,0.224,0.5,0.5,0.5s0.5-0.224,0.5-0.5v-2.511c0-0.155,0.07-0.299,0.193-0.395l0.741-0.576
		C9.521,12.45,9.63,12.413,9.741,12.413z"/>
	<path d="M16.5,14.5c-1.103,0-2-0.897-2-2s0.897-2,2-2s2,0.897,2,2S17.603,14.5,16.5,14.5z M16.5,11.5c-0.552,0-1,0.449-1,1
		c0,0.552,0.448,1,1,1s1-0.448,1-1C17.5,11.948,17.052,11.5,16.5,11.5z"/>
	<path d="M21.553,22.693c-0.151,0-0.297-0.033-0.433-0.099l-5.13-2.387c-1.288,0.371-2.62,0.559-3.962,0.559H12
		c-6.617,0-12-4.433-12-9.883C0,5.433,5.383,1,12,1c6.617,0,12,4.433,12,9.883c-0.061,2.675-1.268,5.155-3.32,6.841l1.767,3.518
		c0.14,0.275,0.143,0.607,0.008,0.886C22.289,22.471,21.935,22.693,21.553,22.693z M16.029,19.173c0.073,0,0.146,0.016,0.212,0.047
		l5.307,2.47l-1.945-3.882c-0.109-0.217-0.047-0.48,0.147-0.625c2.008-1.503,3.192-3.803,3.25-6.311C23,5.982,18.065,2,12,2
		S1,5.984,1,10.882c0,4.898,4.935,8.883,11,8.883l0.066,0c1.282,0,2.566-0.192,3.818-0.571C15.932,19.18,15.98,19.173,16.029,19.173
		z"/>
</g>
</svg>
