<?xml version="1.0" encoding="utf-8"?>
<!-- Generator: Adobe Illustrator 22.1.0, SVG Export Plug-In . SVG Version: 6.00 Build 0)  -->
<svg version="1.1" id="Layer_1" xmlns="http://www.w3.org/2000/svg" xmlns:xlink="http://www.w3.org/1999/xlink" x="0px" y="0px"
	 viewBox="0 0 24 24" style="enable-background:new 0 0 24 24;" xml:space="preserve">
<g>
	<title>messaging-icq</title>
	<path d="M9.888,23.997c-1.486,0-2.865-0.736-3.514-1.875c-0.289-0.507-0.648-1.505-0.116-2.831
		C5.839,19.4,5.44,19.455,5.067,19.455c-0.68,0-1.26-0.176-1.725-0.521c-0.694-0.516-1.022-1.349-0.876-2.228
		c0.091-0.549,0.349-1.051,0.756-1.478c-0.754-0.128-1.458-0.413-1.988-0.812c-0.679-0.51-1.038-1.165-1.038-1.893
		c0-1.831,1.39-3.778,4.496-3.999C4.81,8.515,4.925,8.511,5.038,8.511c0.078,0,0.156,0.002,0.233,0.006
		C4.422,7.396,4.251,6.429,4.27,5.783c0.028-0.974,0.5-1.878,1.262-2.419C5.86,3.131,6.233,3.012,6.639,3.012
		c0.145,0,0.295,0.015,0.447,0.045C8.056,3.251,9.143,4.087,9.997,5.28C9.947,4.737,9.91,4.199,9.884,3.672
		c-0.033-1.156,0.704-2.297,1.923-2.982c0.681-0.382,1.422-0.584,2.145-0.584c0.691,0,1.342,0.186,1.884,0.537
		c0.823,0.534,1.774,1.691,1.783,4.181c0.564-0.305,1.218-0.47,1.885-0.47c0.354,0,0.693,0.045,1.01,0.135
		c0.96,0.271,1.608,0.901,1.778,1.728c0.148,0.725-0.021,1.888-1.563,3.423c1.339,0.199,2.099,0.933,2.511,1.554
		c1.053,1.585,0.841,3.742,0.427,4.504c-0.219,0.403-1.053,1.74-2.585,2.04c-0.196,0.038-0.397,0.058-0.598,0.058
		c-0.452,0-0.916-0.1-1.386-0.299c0.245,0.989,0.113,1.942-0.387,2.731c-0.55,0.866-1.497,1.405-2.472,1.405
		c-0.111,0-0.222-0.007-0.329-0.02c-0.802-0.1-1.507-0.554-2.028-1.296c-0.081,0.283-0.172,0.594-0.268,0.912
		c-0.469,1.562-1.647,2.562-3.23,2.741C10.22,23.988,10.054,23.997,9.888,23.997z M10.695,14.793
		c-0.283,0.377-0.663,0.878-1.168,1.544l-0.102,0.135c-0.454,0.599-0.998,1.315-1.641,2.166c-0.826,1.09-1.018,2.152-0.54,2.99
		c0.466,0.819,1.534,1.369,2.656,1.369c0.125,0,0.25-0.007,0.372-0.021c1.167-0.132,2.037-0.874,2.385-2.035
		c0.266-0.887,0.497-1.719,0.582-2.028l-0.787-3.75c-0.097,0.01-0.191,0.015-0.285,0.015C11.646,15.179,11.142,15.046,10.695,14.793
		z M14.234,18.798c0.361,1.076,1,1.723,1.798,1.823c0.069,0.009,0.138,0.013,0.206,0.013c0.635,0,1.258-0.361,1.626-0.941
		c0.541-0.852,0.453-1.989-0.241-3.122c-1.073-0.909-2.14-1.783-3.102-2.541c-0.294,0.372-0.675,0.673-1.106,0.872L14.234,18.798z
		 M5.202,15.161c-0.972,0.319-1.625,0.957-1.75,1.708c-0.083,0.502,0.099,0.974,0.487,1.263c0.29,0.216,0.67,0.325,1.128,0.325
		c0.579,0,1.267-0.18,1.993-0.521c0.659-0.872,1.213-1.601,1.671-2.204l0.072-0.094c0.482-0.635,0.846-1.115,1.116-1.475
		c-0.11-0.125-0.21-0.258-0.298-0.399c-0.934,0.289-2.359,0.734-4.38,1.385c-0.007,0.003-0.013,0.006-0.02,0.008
		C5.214,15.158,5.208,15.16,5.202,15.161z M15.006,13.138c1.025,0.804,2.172,1.742,3.326,2.721c0.756,0.62,1.482,0.936,2.154,0.936
		c0.136,0,0.271-0.013,0.403-0.039c0.877-0.171,1.556-0.906,1.898-1.536c0.298-0.548,0.381-2.326-0.381-3.473
		c-0.511-0.769-1.318-1.16-2.398-1.16c-0.156,0-0.32,0.008-0.487,0.024c-2.104,0.466-3.53,0.814-4.405,1.039
		c0.033,0.177,0.049,0.354,0.049,0.528C15.165,12.507,15.112,12.829,15.006,13.138z M5.034,9.512c-0.088,0-0.178,0.003-0.271,0.01
		c-1.776,0.126-3.567,1.103-3.567,3.001c0,0.507,0.347,0.875,0.639,1.093c0.556,0.418,1.447,0.689,2.268,0.689
		c0.298,0,0.571-0.034,0.812-0.103c1.991-0.641,3.396-1.08,4.323-1.367C9.189,12.62,9.165,12.4,9.165,12.179
		c0-0.053,0.001-0.106,0.004-0.158c-0.432-0.312-0.806-0.643-1.211-1.009C7.03,10.173,6.298,9.512,5.034,9.512z M10.187,11.902
		c-0.015,0.105-0.022,0.193-0.022,0.277c0,1.103,0.897,2,2,2s2-0.897,2-2s-0.897-2-2-2c-0.972,0-1.797,0.693-1.967,1.651
		C10.196,11.855,10.192,11.879,10.187,11.902z M6.645,4.013c-0.202,0-0.376,0.054-0.534,0.167C5.603,4.54,5.288,5.15,5.269,5.812
		c-0.022,0.772,0.334,2.001,2.16,3.467c0.418,0.284,0.815,0.643,1.199,0.99c0.274,0.248,0.53,0.476,0.796,0.69
		c0.253-0.565,0.682-1.044,1.219-1.362c-0.021-0.098-0.041-0.195-0.061-0.293c-0.253-1.082-0.647-2.13-1.172-3.107
		c-0.71-1.127-1.727-2-2.52-2.157C6.806,4.022,6.723,4.013,6.645,4.013z M14.279,10.054c0.193,0.193,0.361,0.414,0.496,0.652
		c0.874-0.225,2.312-0.578,4.448-1.052c2.125-1.744,2.17-2.844,2.09-3.237c-0.092-0.448-0.482-0.8-1.07-0.966
		c-0.22-0.062-0.472-0.095-0.728-0.095c-0.812,0-1.567,0.309-2.074,0.848C16.225,7.739,14.916,9.301,14.279,10.054z M12.165,9.179
		c0.447,0,0.89,0.102,1.294,0.296c0.613-0.724,1.905-2.263,3.127-3.801c0.212-2.63-0.584-3.731-1.294-4.192
		c-0.373-0.242-0.836-0.37-1.339-0.37c-0.559,0-1.132,0.155-1.655,0.449c-0.894,0.502-1.436,1.296-1.414,2.072
		c0.087,1.82,0.315,3.66,0.678,5.464c0.01,0.045,0.021,0.091,0.031,0.138C11.783,9.198,11.974,9.179,12.165,9.179z"/>
</g>
</svg>
