<?xml version="1.0" encoding="utf-8"?>
<!-- Generator: Adobe Illustrator 22.1.0, SVG Export Plug-In . SVG Version: 6.00 Build 0)  -->
<svg version="1.1" id="Layer_1" xmlns="http://www.w3.org/2000/svg" xmlns:xlink="http://www.w3.org/1999/xlink" x="0px" y="0px"
	 viewBox="0 0 24 24" style="enable-background:new 0 0 24 24;" xml:space="preserve">
<g>
	<title>video-meeting-skype</title>
	<path d="M17.23,24c-1.157,0-2.3-0.301-3.305-0.871c-0.006-0.003-0.015-0.006-0.024-0.006c-0.634,0.109-1.295,0.164-1.972,0.164
		c-3.003-0.017-5.813-1.201-7.922-3.334s-3.262-4.956-3.245-7.948c0.001-0.601,0.05-1.206,0.145-1.799
		c0.002-0.01,0-0.022-0.006-0.032C0.321,9.162,0.011,8.009,0.003,6.842c-0.011-1.816,0.685-3.528,1.962-4.821
		C3.242,0.729,4.945,0.011,6.761,0c1.176,0,2.325,0.304,3.335,0.88l0.025,0.007c0.624-0.105,1.268-0.158,1.921-0.158
		c6.211,0.034,11.217,5.095,11.183,11.283c-0.001,0.587-0.048,1.181-0.14,1.763c-0.001,0.009,0.001,0.021,0.006,0.03
		c0.588,1.02,0.902,2.179,0.909,3.355c0.022,3.75-3.01,6.819-6.759,6.841c0,0-0.001,0-0.001,0H17.23z M13.9,22.123
		c0.181,0,0.359,0.047,0.516,0.135C15.273,22.744,16.245,23,17.229,23c3.204-0.019,5.789-2.637,5.77-5.835
		c-0.006-1.003-0.274-1.992-0.775-2.861c-0.119-0.205-0.165-0.448-0.128-0.684c0.084-0.532,0.127-1.074,0.128-1.612
		C22.255,6.37,17.695,1.759,12.06,1.728l-0.082,0c-0.554,0-1.12,0.048-1.684,0.144c-0.058,0.01-0.116,0.015-0.174,0.015
		c-0.183,0-0.363-0.048-0.522-0.14C8.741,1.259,7.764,1,6.775,1c-1.557,0.01-3.01,0.622-4.099,1.724
		C1.588,3.826,0.994,5.287,1.003,6.836C1.01,7.831,1.274,8.815,1.768,9.679c0.118,0.207,0.162,0.451,0.125,0.687
		c-0.087,0.541-0.132,1.094-0.133,1.643c-0.032,5.637,4.527,10.248,10.163,10.279c0.627-0.001,1.234-0.051,1.8-0.149
		C13.782,22.128,13.841,22.123,13.9,22.123z"/>
	<path d="M12.374,20.048c-2.278,0-4.42-0.732-5.59-1.909c-0.685-0.69-1.029-1.491-1.023-2.382c-0.034-0.986,0.723-1.817,1.724-1.883
		c0,0,0.001,0,0.001,0c1.061,0,1.636,0.685,2.143,1.289c0.603,0.719,1.173,1.397,2.539,1.397c1.74,0,2.2-0.896,2.2-1.37
		c0-0.776-1.433-1.123-2.95-1.49c-2.422-0.586-5.74-1.389-5.74-4.799C5.674,7.505,6.18,6.287,7.141,5.379
		c1.054-0.996,2.632-1.545,4.442-1.545c0.182,0,0.367,0.005,0.554,0.016c2.833,0.164,5.856,1.45,6.151,3.592
		c0.151,1.07-0.597,2.064-1.669,2.215c-0.091,0.013-0.183,0.019-0.274,0.019c-0.061,0-0.122-0.003-0.182-0.008
		c-0.846-0.005-1.365-0.498-1.868-0.974c-0.61-0.578-1.185-1.124-2.516-1.124c-0.291,0-1.743,0.053-1.743,1.11
		c0,0.532,1.367,0.861,2.689,1.179c2.51,0.604,5.949,1.432,5.949,4.854C18.674,17.904,16.143,20.048,12.374,20.048z M7.526,14.873
		c-0.445,0.034-0.78,0.414-0.765,0.87c-0.004,0.632,0.243,1.198,0.733,1.691c0.989,0.996,2.859,1.614,4.88,1.614
		c3.22,0,5.3-1.702,5.3-4.336c0-2.634-2.635-3.268-5.183-3.882c-1.854-0.446-3.455-0.832-3.455-2.151c0-1.282,1.077-2.11,2.743-2.11
		c1.729,0,2.581,0.808,3.204,1.398c0.429,0.407,0.74,0.702,1.217,0.702c0.067,0.005,0.107,0.007,0.146,0.007
		c0.047,0,0.09-0.003,0.133-0.009c0.525-0.074,0.892-0.562,0.818-1.087c-0.219-1.591-2.853-2.595-5.219-2.732
		c-0.169-0.01-0.335-0.015-0.499-0.015c-1.552,0-2.884,0.452-3.752,1.272C7.072,6.819,6.674,7.786,6.677,8.9
		c0,2.624,2.529,3.236,4.975,3.828c1.911,0.462,3.715,0.899,3.715,2.462c0,1.142-1.001,2.37-3.2,2.37
		c-1.832,0-2.683-1.014-3.304-1.754C8.411,15.267,8.083,14.877,7.526,14.873z"/>
</g>
</svg>
