<?xml version="1.0" encoding="utf-8"?>
<!-- Generator: Adobe Illustrator 22.1.0, SVG Export Plug-In . SVG Version: 6.00 Build 0)  -->
<svg version="1.1" id="Light" xmlns="http://www.w3.org/2000/svg" xmlns:xlink="http://www.w3.org/1999/xlink" x="0px" y="0px"
	 viewBox="0 0 24 24" style="enable-background:new 0 0 24 24;" xml:space="preserve">
<g>
	<title>real-estate-settings-house-wrench</title>
	<path d="M8.5,16C8.224,16,8,15.776,8,15.5v-4.688L6.836,11.87C6.744,11.954,6.625,12,6.5,12c-0.14,0-0.275-0.06-0.37-0.163
		c-0.186-0.204-0.171-0.521,0.033-0.707l4.827-4.389c0.278-0.253,0.637-0.392,1.01-0.392c0.373,0,0.731,0.139,1.009,0.392
		l4.827,4.389c0.204,0.186,0.219,0.502,0.034,0.706C17.775,11.94,17.64,12,17.5,12c-0.125,0-0.244-0.046-0.336-0.13L16,10.812V15.5
		c0,0.276-0.224,0.5-0.5,0.5H8.5z M15,15V9.903l-2.663-2.422C12.243,7.396,12.124,7.349,12,7.349s-0.244,0.047-0.337,0.131L9,9.903
		V15h1v-2c0-1.103,0.897-2,2-2s2,0.897,2,2L15,15z M13,15v-2c0-0.552-0.448-1-1-1c-0.551,0-1,0.449-1,1L13,15z"/>
	<path d="M19.509,9.001c-0.491,0-0.976-0.08-1.443-0.238l-0.09,0.09C17.881,8.948,17.755,9,17.622,9s-0.259-0.052-0.354-0.146
		c-0.094-0.094-0.146-0.22-0.146-0.354c0-0.134,0.052-0.259,0.146-0.354l0.319-0.319c0.094-0.094,0.22-0.146,0.354-0.146
		c0.067,0,0.133,0.013,0.194,0.039c0.439,0.186,0.9,0.281,1.372,0.281c0.929,0,1.806-0.365,2.468-1.027
		c0.801-0.781,1.164-1.901,0.975-2.999l-1.173,1.219C21.59,5.388,21.327,5.5,21.057,5.5H19.5c-0.552,0-1-0.449-1-1V2.943
		c0-0.27,0.112-0.533,0.306-0.72l1.218-1.173C19.83,1.017,19.633,1,19.437,1c-0.912,0-1.803,0.372-2.444,1.021
		c-1.01,1.017-1.298,2.524-0.733,3.84c0.081,0.188,0.04,0.404-0.105,0.55l-0.44,0.442C15.62,6.948,15.494,7,15.36,7l0,0
		c-0.133,0-0.259-0.052-0.353-0.146C14.913,6.76,14.86,6.635,14.86,6.501c0-0.134,0.051-0.259,0.146-0.354l0.212-0.212
		c-0.55-1.608-0.14-3.404,1.065-4.617C17.109,0.48,18.259,0,19.437,0c0.253,0,0.508,0.022,0.757,0.065
		c0.21,0.037,0.399,0.137,0.547,0.29c0.384,0.397,0.373,1.031-0.023,1.415L19.5,2.943l0,1.557h1.557l1.173-1.219
		c0.146-0.152,0.342-0.256,0.551-0.292c0.057-0.01,0.115-0.015,0.172-0.015c0.487,0,0.9,0.349,0.983,0.831
		c0.245,1.422-0.225,2.873-1.258,3.881C21.83,8.533,20.703,9.001,19.509,9.001z"/>
	<path d="M4.564,24c-0.254,0-0.509-0.022-0.759-0.065c-0.21-0.037-0.399-0.137-0.548-0.29c-0.383-0.396-0.372-1.031,0.024-1.414
		L4.5,21.057l0-1.557H2.943L1.77,20.719c-0.149,0.155-0.339,0.256-0.551,0.292c-0.057,0.01-0.115,0.015-0.172,0.015
		c-0.206,0-0.404-0.063-0.575-0.183c-0.218-0.154-0.363-0.384-0.409-0.648c-0.246-1.421,0.224-2.871,1.258-3.878
		C2.17,15.468,3.297,15,4.492,15c0.491,0,0.975,0.08,1.442,0.238l0.212-0.213c0.094-0.095,0.22-0.147,0.354-0.147
		c0.133,0,0.259,0.052,0.353,0.146c0.195,0.195,0.196,0.512,0.001,0.707l-0.441,0.442c-0.094,0.094-0.22,0.147-0.354,0.147
		c-0.067,0-0.132-0.013-0.194-0.039C5.425,16.094,4.964,16,4.493,16c-0.929,0-1.806,0.365-2.469,1.027
		c-0.801,0.781-1.164,1.901-0.975,2.998l1.173-1.219c0.188-0.195,0.45-0.306,0.72-0.306H4.5c0.551,0,1,0.448,1,1v1.557
		c0,0.271-0.112,0.533-0.306,0.72L3.976,22.95C4.17,22.983,4.368,23,4.564,23c0.912,0,1.802-0.372,2.443-1.021
		c1.01-1.017,1.298-2.524,0.733-3.84c-0.081-0.189-0.04-0.405,0.106-0.55l0.441-0.442C8.381,17.052,8.507,17,8.641,17
		c0.133,0,0.259,0.052,0.353,0.146c0.195,0.195,0.196,0.512,0.001,0.708l-0.212,0.212c0.55,1.608,0.14,3.404-1.065,4.617
		C6.891,23.52,5.741,24,4.564,24z"/>
	<path d="M19.449,23.999c-1.172,0-2.314-0.482-3.133-1.322c-1.205-1.206-1.621-3-1.078-4.611l-0.213-0.212
		c-0.094-0.094-0.147-0.219-0.147-0.353s0.052-0.26,0.146-0.354C15.118,17.052,15.244,17,15.378,17c0.133,0,0.259,0.052,0.353,0.146
		l0.442,0.441c0.145,0.145,0.188,0.36,0.107,0.549c-0.559,1.319-0.265,2.825,0.747,3.838c0.635,0.652,1.517,1.024,2.421,1.024
		c0.192,0,0.386-0.017,0.576-0.05l-1.218-1.173c-0.195-0.188-0.306-0.45-0.306-0.72V19.5c0-0.552,0.448-1,1-1h1.557
		c0.271,0,0.534,0.113,0.721,0.308l1.171,1.217c0.192-1.108-0.171-2.241-0.971-3.031c-0.662-0.657-1.534-1.019-2.458-1.019
		c-0.476,0-0.941,0.096-1.383,0.286c-0.063,0.027-0.129,0.041-0.197,0.041c-0.134,0-0.259-0.052-0.354-0.146l-0.44-0.44
		c-0.094-0.094-0.146-0.22-0.146-0.354s0.052-0.259,0.146-0.354s0.22-0.146,0.354-0.146s0.259,0.052,0.354,0.146l0.21,0.21
		c0.471-0.161,0.96-0.243,1.457-0.243c1.188,0,2.311,0.465,3.161,1.308c1.032,1.02,1.5,2.482,1.252,3.912
		c-0.036,0.211-0.137,0.402-0.292,0.551c-0.187,0.18-0.428,0.28-0.677,0.28l-0.042-0.001c-0.26-0.005-0.509-0.114-0.695-0.306
		L21.056,19.5l-1.557,0v1.556l1.219,1.173c0.155,0.149,0.256,0.34,0.292,0.552c0.045,0.263-0.015,0.528-0.169,0.746
		c-0.154,0.218-0.384,0.363-0.647,0.408C19.948,23.977,19.697,23.999,19.449,23.999z"/>
	<path d="M4.478,9.026c-1.188,0-2.311-0.465-3.16-1.309C0.285,6.699-0.183,5.236,0.065,3.805c0.036-0.208,0.14-0.403,0.292-0.55
		c0.187-0.18,0.437-0.279,0.704-0.279c0.276,0.005,0.525,0.114,0.71,0.306L2.943,4.5l1.557,0V2.943L3.281,1.77
		c-0.155-0.149-0.256-0.34-0.292-0.551C2.896,0.676,3.262,0.158,3.805,0.064C4.051,0.022,4.301,0,4.55,0
		c1.172,0,2.314,0.482,3.133,1.322c1.206,1.206,1.621,3.001,1.078,4.611l0.214,0.214C9.07,6.241,9.122,6.366,9.122,6.5
		c0,0.134-0.052,0.259-0.147,0.354C8.881,6.948,8.755,7,8.622,7S8.363,6.948,8.268,6.853L7.826,6.411
		C7.682,6.267,7.64,6.052,7.719,5.863c0.558-1.319,0.265-2.826-0.747-3.839C6.337,1.373,5.455,1,4.55,1
		C4.358,1,4.164,1.017,3.975,1.05l1.219,1.173C5.388,2.41,5.5,2.673,5.5,2.943V4.5c0,0.551-0.449,1-1,1H2.943
		c-0.27,0-0.533-0.112-0.72-0.306L1.05,3.976C0.858,5.084,1.221,6.217,2.021,7.007c0.662,0.657,1.534,1.019,2.458,1.019
		c0.476,0,0.941-0.096,1.383-0.286C5.924,7.714,5.99,7.7,6.059,7.7c0.134,0,0.259,0.052,0.354,0.147l0.3,0.3
		C6.807,8.241,6.859,8.366,6.859,8.5c0,0.134-0.052,0.259-0.146,0.354C6.618,8.948,6.493,9,6.359,9S6.1,8.948,6.005,8.853
		l-0.07-0.07C5.464,8.945,4.974,9.026,4.478,9.026z"/>
</g>
</svg>
