<?xml version="1.0" encoding="utf-8"?>
<!-- Generator: Adobe Illustrator 22.1.0, SVG Export Plug-In . SVG Version: 6.00 Build 0)  -->
<svg version="1.1" id="Layer_1" xmlns="http://www.w3.org/2000/svg" xmlns:xlink="http://www.w3.org/1999/xlink" x="0px" y="0px"
	 viewBox="0 0 24 24" style="enable-background:new 0 0 24 24;" xml:space="preserve">
<g>
	<title>bathroom-shower-1</title>
	<path d="M20.5,24c-0.276,0-0.5-0.224-0.5-0.5V6c0-2.757-2.243-5-5-5s-5,2.243-5,5v0.033c2.261,0.251,4,2.169,4,4.467V11
		c0,0.551-0.448,1-1,1H6c-0.551,0-1-0.449-1-1v-0.5c0-2.298,1.739-4.216,4-4.467V6c0-3.308,2.692-6,6-6c3.308,0,6,2.692,6,6v17.5
		C21,23.776,20.776,24,20.5,24z M9.5,7C7.57,7,6,8.57,6,10.5V11h7v-0.5C13,8.57,11.43,7,9.5,7z"/>
	<circle cx="9.5" cy="15.5" r="0.75"/>
	<circle cx="9.5" cy="18.5" r="0.75"/>
	<circle cx="4.5" cy="18.5" r="0.75"/>
	<circle cx="14.5" cy="18.5" r="0.75"/>
	<circle cx="9.5" cy="21.5" r="0.75"/>
	<circle cx="3.5" cy="21.5" r="0.75"/>
	<circle cx="15.5" cy="21.5" r="0.75"/>
	<circle cx="5.5" cy="15.5" r="0.75"/>
	<circle cx="13.5" cy="15.5" r="0.75"/>
</g>
</svg>
