<?xml version="1.0" encoding="utf-8"?>
<!-- Generator: Adobe Illustrator 22.1.0, SVG Export Plug-In . SVG Version: 6.00 Build 0)  -->
<svg version="1.1" id="Layer_1" xmlns="http://www.w3.org/2000/svg" xmlns:xlink="http://www.w3.org/1999/xlink" x="0px" y="0px"
	 viewBox="0 0 24 24" style="enable-background:new 0 0 24 24;" xml:space="preserve">
<g>
	<title>bathroom-hanger-1</title>
	<path d="M1.5,5.5C0.673,5.5,0,4.827,0,4s0.673-1.5,1.5-1.5S3,3.173,3,4S2.327,5.5,1.5,5.5z M1.5,3.5C1.224,3.5,1,3.724,1,4
		s0.224,0.5,0.5,0.5S2,4.276,2,4S1.776,3.5,1.5,3.5z"/>
	<path d="M4,23.5c-0.551,0-1-0.448-1-1v-19c0-1.654,1.346-3,3-3h12c0.946,0,1.846,0.453,2.409,1.212
		c0.164,0.221,0.118,0.535-0.103,0.7c-0.087,0.064-0.19,0.099-0.298,0.099c-0.157,0-0.308-0.075-0.402-0.202
		C19.231,1.802,18.631,1.5,18,1.5c-1.103,0-2,0.897-2,2v19c0,0.552-0.448,1-1,1H4z M4,22.5h11v-2H4V22.5z M15,19.5v-2H4v2H15z
		 M15,16.5v-13c0-0.744,0.278-1.455,0.766-2H6c-1.103,0-2,0.897-2,2v13H15z"/>
	<path d="M22.5,5.5c-0.64,0-1.205-0.41-1.414-1H17.5C17.224,4.5,17,4.276,17,4s0.224-0.5,0.5-0.5h3.586c0.209-0.59,0.774-1,1.414-1
		C23.327,2.5,24,3.173,24,4S23.327,5.5,22.5,5.5z M22.5,3.5C22.224,3.5,22,3.724,22,4s0.224,0.5,0.5,0.5S23,4.276,23,4
		S22.776,3.5,22.5,3.5z"/>
	<path d="M17.5,15.5c-0.276,0-0.5-0.224-0.5-0.5s0.224-0.5,0.5-0.5H20V6c0-0.276,0.224-0.5,0.5-0.5S21,5.724,21,6v8.5
		c0,0.552-0.448,1-1,1H17.5z"/>
</g>
</svg>
