<?xml version="1.0" encoding="utf-8"?>
<!-- Generator: Adobe Illustrator 22.1.0, SVG Export Plug-In . SVG Version: 6.00 Build 0)  -->
<svg version="1.1" id="Layer_1" xmlns="http://www.w3.org/2000/svg" xmlns:xlink="http://www.w3.org/1999/xlink" x="0px" y="0px"
	 viewBox="0 0 24 24" style="enable-background:new 0 0 24 24;" xml:space="preserve">
<g>
	<title>bathroom-hanger</title>
	<path d="M6,24c-0.551,0-1-0.448-1-1v-2.47c-0.001-0.01-0.002-0.021-0.002-0.03c0-0.01,0.001-0.021,0.002-0.031L5,13H1.5
		c-0.433,0-0.765-0.079-1.015-0.241c-0.298-0.193-0.462-0.499-0.462-0.86c0-2.29,6.89-7.044,11.503-7.377L11.512,3.94
		C10.636,3.719,10,2.92,10,2c0-1.103,0.897-2,2-2s2,0.897,2,2c0,0.276-0.224,0.5-0.5,0.5S13,2.276,13,2c0-0.551-0.448-1-1-1
		c-0.551,0-1,0.449-1,1s0.449,1,1,1c0.273,0,0.493,0.214,0.5,0.487l0.028,1.035c4.48,0.331,11.451,5.16,11.451,7.394
		c0,0.359-0.166,0.662-0.468,0.851C23.262,12.924,22.932,13,22.5,13H19v10c0,0.552-0.448,1-1,1H6z M6,23h12v-2H6V23z M18,20v-8.5
		c0-0.827-0.673-1.5-1.5-1.5h-9C6.673,10,6,10.673,6,11.5V20H18z M22.5,12c0.328,0,0.449-0.06,0.478-0.078
		c0-1.281-6.544-6.422-10.938-6.422c-4.717,0-11.016,5.068-11.016,6.399C1.059,11.939,1.177,12,1.5,12H5v-0.5
		C5,10.121,6.121,9,7.5,9h9c1.378,0,2.5,1.121,2.5,2.5V12H22.5z"/>
</g>
</svg>
