<?xml version="1.0" encoding="utf-8"?>
<!-- Generator: Adobe Illustrator 22.1.0, SVG Export Plug-In . SVG Version: 6.00 Build 0)  -->
<svg version="1.1" id="Layer_1" xmlns="http://www.w3.org/2000/svg" xmlns:xlink="http://www.w3.org/1999/xlink" x="0px" y="0px"
	 viewBox="0 0 24 24" style="enable-background:new 0 0 24 24;" xml:space="preserve">
<g>
	<title>bathroom-shower-head</title>
	<path d="M11.999,15.75c-0.276,0-0.5-0.224-0.5-0.5v-1.5c0-0.276,0.224-0.5,0.5-0.5c0.276,0,0.5,0.224,0.5,0.5v1.5
		C12.499,15.526,12.274,15.75,11.999,15.75z"/>
	<path d="M11.999,19.25c-0.276,0-0.5-0.224-0.5-0.5v-1.5c0-0.276,0.224-0.5,0.5-0.5c0.276,0,0.5,0.224,0.5,0.5v1.5
		C12.499,19.026,12.274,19.25,11.999,19.25z"/>
	<path d="M11.999,22.75c-0.276,0-0.5-0.224-0.5-0.5v-1.5c0-0.276,0.224-0.5,0.5-0.5c0.276,0,0.5,0.224,0.5,0.5v1.5
		C12.499,22.526,12.274,22.75,11.999,22.75z"/>
	<path d="M16.633,15.609c-0.193,0-0.371-0.113-0.453-0.288l-0.634-1.359c-0.116-0.25-0.008-0.548,0.242-0.665
		c0.067-0.031,0.138-0.047,0.211-0.047c0.194,0,0.372,0.113,0.454,0.288l0.634,1.359c0.116,0.25,0.008,0.548-0.242,0.665
		C16.777,15.593,16.706,15.609,16.633,15.609z"/>
	<path d="M18.112,18.782c-0.193,0-0.371-0.113-0.453-0.288l-0.634-1.36c-0.116-0.25-0.008-0.548,0.242-0.665
		c0.067-0.031,0.138-0.047,0.211-0.047c0.194,0,0.372,0.113,0.453,0.288l0.634,1.36c0.116,0.25,0.008,0.548-0.242,0.665
		C18.256,18.766,18.185,18.782,18.112,18.782z"/>
	<path d="M19.591,21.954c-0.193,0-0.371-0.113-0.453-0.288l-0.634-1.36c-0.116-0.25-0.008-0.548,0.242-0.665
		c0.067-0.031,0.138-0.047,0.211-0.047c0.193,0,0.371,0.113,0.453,0.288l0.634,1.361c0.116,0.25,0.008,0.548-0.242,0.665
		C19.735,21.938,19.664,21.954,19.591,21.954z"/>
	<path d="M7.365,15.609c-0.073,0-0.144-0.016-0.211-0.047c-0.25-0.117-0.359-0.415-0.242-0.665l0.634-1.359
		c0.082-0.175,0.26-0.289,0.453-0.289c0.073,0,0.144,0.016,0.211,0.047c0.25,0.116,0.358,0.415,0.242,0.664L7.818,15.32
		C7.736,15.496,7.558,15.609,7.365,15.609z"/>
	<path d="M5.886,18.782c-0.073,0-0.144-0.016-0.211-0.047c-0.25-0.117-0.359-0.415-0.242-0.665l0.634-1.36
		c0.082-0.175,0.26-0.289,0.453-0.289c0.073,0,0.144,0.016,0.211,0.047c0.25,0.116,0.359,0.415,0.242,0.664l-0.634,1.36
		C6.257,18.669,6.079,18.782,5.886,18.782z"/>
	<path d="M4.407,21.954c-0.073,0-0.144-0.016-0.211-0.047c-0.25-0.117-0.359-0.415-0.242-0.665l0.634-1.36
		c0.082-0.175,0.26-0.289,0.453-0.289c0.073,0,0.144,0.016,0.211,0.047c0.25,0.117,0.359,0.415,0.242,0.665l-0.634,1.36
		C4.778,21.841,4.6,21.954,4.407,21.954z"/>
	<path d="M14.107,15.738c-0.232,0-0.438-0.165-0.488-0.392l-0.324-1.465c-0.06-0.269,0.111-0.537,0.38-0.596
		c0.035-0.008,0.072-0.012,0.108-0.012c0.232,0,0.438,0.165,0.488,0.392l0.324,1.466c0.06,0.269-0.111,0.537-0.38,0.596
		C14.178,15.734,14.142,15.738,14.107,15.738z"/>
	<path d="M14.865,19.155c-0.232,0-0.438-0.165-0.488-0.392l-0.325-1.464c-0.059-0.269,0.111-0.537,0.38-0.596
		c0.037-0.008,0.072-0.011,0.107-0.011c0.237,0,0.438,0.161,0.49,0.391l0.325,1.464c0.059,0.269-0.111,0.537-0.38,0.596
		C14.936,19.151,14.9,19.155,14.865,19.155z"/>
	<path d="M15.622,22.572c-0.232,0-0.438-0.165-0.488-0.392l-0.324-1.465c-0.06-0.269,0.111-0.537,0.38-0.596
		c0.036-0.008,0.072-0.012,0.108-0.012c0.232,0,0.438,0.165,0.489,0.392l0.324,1.465c0.06,0.269-0.111,0.537-0.38,0.596
		C15.693,22.568,15.657,22.572,15.622,22.572z"/>
	<path d="M9.891,15.738c-0.036,0-0.071-0.004-0.107-0.011c-0.132-0.029-0.243-0.107-0.315-0.22
		c-0.072-0.113-0.095-0.246-0.067-0.377l0.324-1.465c0.051-0.231,0.252-0.392,0.489-0.392c0.035,0,0.071,0.004,0.105,0.011
		c0.132,0.029,0.244,0.107,0.316,0.22c0.072,0.113,0.095,0.246,0.067,0.377l-0.324,1.465C10.329,15.573,10.123,15.738,9.891,15.738z
		"/>
	<path d="M9.133,19.155c-0.035,0-0.071-0.004-0.107-0.011c-0.271-0.06-0.441-0.328-0.382-0.597l0.325-1.464
		c0.051-0.23,0.252-0.391,0.488-0.391c0.036,0,0.071,0.004,0.106,0.011c0.271,0.06,0.441,0.328,0.381,0.597l-0.325,1.464
		C9.571,18.99,9.365,19.155,9.133,19.155z"/>
	<path d="M8.376,22.572c-0.035,0-0.071-0.004-0.107-0.011c-0.132-0.029-0.243-0.107-0.315-0.22
		c-0.072-0.113-0.095-0.246-0.067-0.377l0.324-1.465c0.051-0.231,0.252-0.392,0.489-0.392c0.035,0,0.071,0.004,0.105,0.011
		c0.132,0.029,0.244,0.107,0.315,0.22c0.072,0.113,0.095,0.246,0.067,0.377L8.864,22.18C8.814,22.407,8.608,22.572,8.376,22.572z"/>
	<path d="M4.039,11.25c-0.268,0-0.519-0.105-0.708-0.294c-0.188-0.189-0.292-0.44-0.292-0.707c0-0.226,0.078-0.447,0.219-0.623
		l0.227-0.284c1.55-1.939,3.733-3.296,6.157-3.831l0.902-1.969c0.081-0.177,0.26-0.292,0.455-0.292h0.5v-1.5
		c0-0.276,0.224-0.5,0.5-0.5c0.276,0,0.5,0.224,0.5,0.5v1.5h0.5c0.195,0,0.373,0.115,0.455,0.292l0.901,1.969
		c1.64,0.36,3.136,1.074,4.45,2.125c0.629,0.503,1.204,1.077,1.707,1.707l0.227,0.284c0.344,0.431,0.273,1.062-0.157,1.406
		c-0.176,0.141-0.397,0.219-0.623,0.219C19.959,11.25,4.039,11.25,4.039,11.25z M12.009,6.253c-3.034,0-5.856,1.354-7.743,3.714
		L4.04,10.25l15.919,0l-0.228-0.284c-0.457-0.572-0.979-1.093-1.55-1.55C16.411,7.001,14.277,6.253,12.009,6.253z M10.831,5.318
		c0.39-0.042,0.783-0.063,1.174-0.063c0.387,0,0.776,0.021,1.162,0.062L12.678,4.25H11.32L10.831,5.318z"/>
</g>
</svg>
