<?xml version="1.0" encoding="utf-8"?>
<!-- Generator: Adobe Illustrator 22.1.0, SVG Export Plug-In . SVG Version: 6.00 Build 0)  -->
<svg version="1.1" id="Layer_1" xmlns="http://www.w3.org/2000/svg" xmlns:xlink="http://www.w3.org/1999/xlink" x="0px" y="0px"
	 viewBox="0 0 24 24" style="enable-background:new 0 0 24 24;" xml:space="preserve">
<g>
	<title>bathroom-tub-person</title>
	<path d="M5,7.5c-1.654,0-3-1.346-3-3s1.346-3,3-3s3,1.346,3,3S6.654,7.5,5,7.5z M5,2.5c-1.103,0-2,0.897-2,2s0.897,2,2,2
		s2-0.897,2-2S6.103,2.5,5,2.5z"/>
	<path d="M9.5,22.5c-5.027,0-9.193-3.931-9.484-8.949c-0.012-0.272,0.081-0.529,0.261-0.726c0.18-0.197,0.426-0.312,0.693-0.324
		C0.987,12.5,1.008,12.5,1.027,12.5H3v-2c0-1.103,0.897-2,2-2c0.396,0,0.78,0.116,1.109,0.336l2.777,1.848
		c0.165,0.109,0.357,0.167,0.553,0.167c0.208,0,0.409-0.064,0.582-0.186l1.111-0.798c0.342-0.244,0.743-0.373,1.162-0.373
		c0.646,0,1.256,0.313,1.63,0.837c0.641,0.898,0.432,2.15-0.465,2.79l-1.114,0.799c-0.862,0.61-1.866,0.932-2.906,0.932
		c-0.982,0-1.941-0.29-2.772-0.839L5.855,13.5H1.021c0.254,4.484,3.981,8,8.479,8h5c4.498,0,8.225-3.517,8.486-8.007L15.5,13.5
		c-0.276,0-0.5-0.224-0.5-0.5s0.224-0.5,0.5-0.5h7.479c0.273,0.002,0.516,0.1,0.704,0.284c0.191,0.187,0.299,0.437,0.302,0.704
		l0,0.043c-0.292,5.035-4.458,8.97-9.485,8.97H9.5z M6.215,12.552c0.017,0.007,0.036,0.015,0.049,0.023l0.944,0.599
		c0.672,0.444,1.442,0.678,2.229,0.678c0.832,0,1.636-0.258,2.325-0.746l1.112-0.798c0.449-0.321,0.554-0.947,0.234-1.396
		c-0.187-0.262-0.492-0.418-0.816-0.418c-0.209,0-0.41,0.064-0.58,0.186l-1.113,0.799c-0.345,0.244-0.747,0.372-1.162,0.372
		c-0.392,0-0.774-0.115-1.105-0.333L5.555,9.668C5.39,9.558,5.198,9.5,5,9.5h0c-0.551,0-1,0.449-1,1v2h2
		c0.017,0,0.039,0.003,0.058,0.007c0.033,0.004,0.06,0.011,0.081,0.018C6.165,12.531,6.191,12.541,6.215,12.552z"/>
</g>
</svg>
