<?xml version="1.0" encoding="utf-8"?>
<!-- Generator: Adobe Illustrator 22.1.0, SVG Export Plug-In . SVG Version: 6.00 Build 0)  -->
<svg version="1.1" id="Light" xmlns="http://www.w3.org/2000/svg" xmlns:xlink="http://www.w3.org/1999/xlink" x="0px" y="0px"
	 viewBox="0 0 24 24" style="enable-background:new 0 0 24 24;" xml:space="preserve">
<g>
	<title>eat-vending-machine</title>
	<path d="M7.499,7c-1.379,0-2.5-1.121-2.5-2.5S6.121,2,7.499,2s2.5,1.121,2.5,2.5S8.878,7,7.499,7z M7.499,3
		c-0.827,0-1.5,0.673-1.5,1.5S6.672,6,7.499,6s1.5-0.673,1.5-1.5S8.327,3,7.499,3z"/>
	<path d="M4.499,24c-0.827,0-1.5-0.673-1.5-1.5v-6.471c0-0.276,0.224-0.5,0.5-0.5s0.5,0.224,0.5,0.5V22.5c0,0.276,0.224,0.5,0.5,0.5
		h2c0.276,0,0.5-0.224,0.5-0.5v-6.97c0-0.025,0.002-0.051,0.006-0.076l0.767-4.987c0.022-0.144,0.105-0.27,0.229-0.348
		c0.08-0.05,0.171-0.076,0.266-0.076c0.05,0,0.1,0.007,0.147,0.022l0.455,0.14c0.462,0.142,0.829,0.5,0.982,0.958l1.674,5.024
		c0.042,0.127,0.132,0.23,0.251,0.29c0.071,0.035,0.146,0.053,0.224,0.053c0.054,0,0.107-0.009,0.16-0.026
		c0.262-0.087,0.404-0.372,0.317-0.634l-1.675-5.025c-0.256-0.763-0.869-1.36-1.639-1.597l-3.7-1.138C5.223,8.037,4.975,8,4.727,8
		C3.681,8,2.737,8.662,2.379,9.647l-1.35,3.712c-0.046,0.125-0.04,0.261,0.017,0.382c0.056,0.121,0.157,0.213,0.282,0.258
		C1.385,14.02,1.442,14.03,1.5,14.03c0.073,0,0.144-0.016,0.211-0.047c0.121-0.056,0.213-0.157,0.258-0.282l1.35-3.712
		C3.391,9.791,3.58,9.659,3.79,9.659c0.058,0,0.115,0.01,0.17,0.03c0.26,0.094,0.394,0.382,0.3,0.641l-1.35,3.712
		c-0.137,0.377-0.412,0.677-0.775,0.847C1.933,14.983,1.72,15.031,1.5,15.031c-0.175,0-0.348-0.031-0.514-0.091
		c-0.376-0.136-0.677-0.412-0.847-0.775c-0.17-0.363-0.188-0.771-0.051-1.147l1.35-3.712C1.941,7.926,3.262,7,4.727,7
		c0.348,0,0.694,0.052,1.029,0.155l3.7,1.138c1.077,0.332,1.934,1.168,2.293,2.236l1.675,5.026c0.127,0.38,0.098,0.787-0.082,1.146
		c-0.179,0.359-0.488,0.626-0.867,0.753c-0.154,0.051-0.313,0.077-0.475,0.077c-0.647,0-1.22-0.413-1.424-1.027L8.902,11.48
		c-0.04-0.119-0.123-0.218-0.231-0.278l-0.672,4.366V22.5c0,0.827-0.673,1.5-1.5,1.5H4.499z"/>
	<path d="M12.5,24c-0.827,0-1.5-0.673-1.5-1.5V19c0-0.276,0.224-0.5,0.5-0.5s0.5,0.224,0.5,0.5v3.5c0,0.276,0.224,0.5,0.5,0.5h10
		c0.276,0,0.5-0.224,0.5-0.5v-21C23,1.224,22.775,1,22.5,1h-10c-0.276,0-0.5,0.224-0.5,0.5v6c0,0.276-0.224,0.5-0.5,0.5
		s-0.5-0.224-0.5-0.5v-6c0-0.827,0.673-1.5,1.5-1.5h10C23.327,0,24,0.673,24,1.5v21c0,0.827-0.673,1.5-1.5,1.5H12.5z"/>
	<path d="M14.5,22c-0.827,0-1.5-0.673-1.5-1.5v-2c0-0.276,0.224-0.5,0.5-0.5s0.5,0.224,0.5,0.5v2c0,0.276,0.224,0.5,0.5,0.5h0.881
		c-0.42-0.47-0.513-1.176-0.181-1.751c0.2-0.347,0.524-0.595,0.911-0.699c0.127-0.034,0.259-0.052,0.39-0.052
		c0.26,0,0.519,0.07,0.748,0.202l0.866,0.5c0.635,0.367,0.901,1.132,0.664,1.8H20.5c0.276,0,0.5-0.224,0.5-0.5v-3
		c0-0.276-0.224-0.5-0.5-0.5H15c-0.276,0-0.5-0.224-0.5-0.5S14.724,16,15,16h5.5c0.827,0,1.5,0.673,1.5,1.5v3
		c0,0.827-0.673,1.5-1.5,1.5H14.5z M16.499,19.499c-0.179,0-0.345,0.096-0.434,0.25c-0.138,0.239-0.056,0.545,0.183,0.683l0.866,0.5
		C17.19,20.976,17.276,21,17.363,21c0.044,0,0.088-0.006,0.131-0.017c0.129-0.035,0.237-0.117,0.303-0.233
		c0.067-0.115,0.084-0.25,0.05-0.379c-0.035-0.129-0.117-0.237-0.233-0.303l-0.866-0.5C16.672,19.522,16.586,19.499,16.499,19.499z"
		/>
	<path d="M14,5c-0.552,0-1-0.449-1-1V3c0-0.551,0.448-1,1-1h2c0.552,0,1,0.449,1,1v1c0,0.551-0.448,1-1,1H14z M14,4h2V3h-2L14,4z"/>
	<path d="M14,9c-0.552,0-1-0.449-1-1V7c0-0.551,0.448-1,1-1h2c0.552,0,1,0.449,1,1v1c0,0.551-0.448,1-1,1H14z M14,8h2V7h-2L14,8z"/>
	<path d="M19,5c-0.552,0-1-0.449-1-1V3c0-0.551,0.448-1,1-1h2c0.552,0,1,0.449,1,1v1c0,0.551-0.448,1-1,1H19z M19,4h2V3h-2L19,4z"/>
	<path d="M19,9c-0.552,0-1-0.449-1-1V7c0-0.551,0.448-1,1-1h2c0.552,0,1,0.449,1,1v1c0,0.551-0.448,1-1,1H19z M19,8h2V7h-2L19,8z"/>
	<path d="M19,13c-0.552,0-1-0.448-1-1v-1c0-0.551,0.448-1,1-1h2c0.552,0,1,0.449,1,1v1c0,0.552-0.448,1-1,1H19z M19,12h2v-1h-2
		L19,12z"/>
</g>
</svg>
