<?xml version="1.0" encoding="utf-8"?>
<!-- Generator: Adobe Illustrator 22.1.0, SVG Export Plug-In . SVG Version: 6.00 Build 0)  -->
<svg version="1.1" id="Light" xmlns="http://www.w3.org/2000/svg" xmlns:xlink="http://www.w3.org/1999/xlink" x="0px" y="0px"
	 viewBox="0 0 24 24" style="enable-background:new 0 0 24 24;" xml:space="preserve">
<g>
	<title>restaurant-food-truck</title>
	<path d="M19,22c-1.199,0-2.215-0.845-2.449-2H7.449C7.215,21.155,6.199,22,5,22s-2.215-0.845-2.449-2H1c-0.551,0-1-0.448-1-1
		v-4.793c0-0.267,0.104-0.517,0.292-0.706l1.805-1.805l2.18-3.925C4.541,7.296,5.044,7,5.588,7H8V3c0-0.551,0.449-1,1-1h14
		c0.552,0,1,0.449,1,1v16c0,0.552-0.448,1-1,1h-1.551C21.215,21.155,20.199,22,19,22z M19,18c-0.827,0-1.5,0.673-1.5,1.5
		S18.173,21,19,21s1.5-0.673,1.5-1.5S19.827,18,19,18z M5,18c-0.827,0-1.5,0.673-1.5,1.5S4.173,21,5,21s1.5-0.673,1.5-1.5
		S5.827,18,5,18z M23,19v-1h-2.001c0.222,0.295,0.376,0.635,0.45,1H23z M16.551,19c0.074-0.365,0.228-0.705,0.45-1H6.999
		c0.222,0.295,0.376,0.635,0.45,1H16.551z M1,19h1.551c0.074-0.365,0.228-0.705,0.45-1H1V19z M23,17V3H9v14H23z M8,17v-4.5H2.707
		L1,14.208L1,17H8z M8,11.5V8H5.588C5.407,8,5.239,8.099,5.151,8.257L3.35,11.5H8z"/>
	<path d="M11.5,15c-0.276,0-0.5-0.224-0.5-0.5V13h-0.5c-0.276,0-0.5-0.224-0.5-0.5c0-0.276,0.224-0.5,0.5-0.5H11V9h-0.5
		c-0.185,0-0.354-0.101-0.441-0.264c-0.087-0.163-0.078-0.36,0.025-0.514l2-3C12.177,5.083,12.333,5,12.5,5h7
		c0.167,0,0.323,0.083,0.416,0.223l2,3c0.102,0.154,0.112,0.35,0.025,0.513C21.854,8.899,21.685,9,21.5,9H21v3h0.5
		c0.276,0,0.5,0.224,0.5,0.5c0,0.276-0.224,0.5-0.5,0.5H21v1.5c0,0.276-0.224,0.5-0.5,0.5H11.5z M20,14v-1h-8v1H20z M20,12V9h-8v3
		H20z M20.566,8l-1.333-2h-6.465l-1.333,2H20.566z"/>
</g>
</svg>
