<?xml version="1.0" encoding="utf-8"?>
<!-- Generator: Adobe Illustrator 22.1.0, SVG Export Plug-In . SVG Version: 6.00 Build 0)  -->
<svg version="1.1" id="Light" xmlns="http://www.w3.org/2000/svg" xmlns:xlink="http://www.w3.org/1999/xlink" x="0px" y="0px"
	 viewBox="0 0 24 24" style="enable-background:new 0 0 24 24;" xml:space="preserve">
<g>
	<title>restaurant-menu</title>
	<path d="M5.5,24C4.121,24,3,22.878,3,21.5V20H2.5C2.224,20,2,19.776,2,19.5S2.224,19,2.5,19H3v-2H2.5C2.224,17,2,16.776,2,16.5
		S2.224,16,2.5,16H3v-2H2.5C2.224,14,2,13.776,2,13.5S2.224,13,2.5,13H3v-2H2.5C2.224,11,2,10.776,2,10.5S2.224,10,2.5,10H3V8H2.5
		C2.224,8,2,7.776,2,7.5S2.224,7,2.5,7H3V5H2.5C2.224,5,2,4.776,2,4.5S2.224,4,2.5,4H3V2.5C3,1.121,4.121,0,5.5,0h14
		C20.878,0,22,1.121,22,2.5v19c0,1.378-1.122,2.5-2.5,2.5H5.5z M4,21.5C4,22.327,4.673,23,5.5,23h14c0.827,0,1.5-0.673,1.5-1.5v-19
		C21,1.673,20.327,1,19.5,1h-14C4.673,1,4,1.673,4,2.5V4h0.5C4.776,4,5,4.224,5,4.5S4.776,5,4.5,5H4v2h0.5C4.776,7,5,7.224,5,7.5
		S4.776,8,4.5,8H4v2h0.5C4.776,10,5,10.224,5,10.5S4.776,11,4.5,11H4v2h0.5C4.776,13,5,13.224,5,13.5S4.776,14,4.5,14H4v2h0.5
		C4.776,16,5,16.224,5,16.5S4.776,17,4.5,17H4v2h0.5C4.776,19,5,19.224,5,19.5S4.776,20,4.5,20H4V21.5z"/>
	<path d="M8.854,16.284c-0.134,0-0.259-0.052-0.354-0.146s-0.146-0.22-0.146-0.354S8.406,15.525,8.5,15.43l4.008-4.007l-0.994-0.994
		c-0.398,0.262-0.857,0.4-1.341,0.4l-0.031,0c-0.654-0.008-1.266-0.271-1.723-0.739L6.124,7.795c-0.195-0.195-0.195-0.512,0-0.707
		c0.094-0.094,0.22-0.146,0.354-0.146s0.259,0.052,0.354,0.146l2.3,2.3c0.278,0.284,0.646,0.44,1.041,0.44
		c0.213,0,0.419-0.045,0.608-0.133L7.501,6.417c-0.094-0.094-0.146-0.22-0.146-0.354s0.052-0.259,0.146-0.354
		s0.22-0.146,0.354-0.146s0.259,0.052,0.354,0.146l3.279,3.279c0.252-0.537,0.152-1.182-0.277-1.622l-2.33-2.33
		c-0.094-0.094-0.146-0.22-0.146-0.354S8.786,4.424,8.88,4.329S9.1,4.183,9.234,4.183s0.259,0.052,0.354,0.146l2.336,2.336
		c0.809,0.829,0.92,2.105,0.297,3.055l0.995,0.995l1.045-1.045c-0.616-0.94-0.512-2.208,0.279-3.035l0.926-0.927
		c0.462-0.463,1.078-0.718,1.732-0.718s1.269,0.255,1.732,0.718c0.463,0.463,0.718,1.078,0.718,1.732s-0.255,1.27-0.718,1.732
		l-0.918,0.92c-0.464,0.443-1.067,0.685-1.702,0.685c-0.475,0-0.943-0.141-1.34-0.401l-1.046,1.046l3.954,3.954
		c0.094,0.094,0.146,0.22,0.146,0.354s-0.052,0.259-0.146,0.354s-0.22,0.146-0.354,0.146s-0.259-0.052-0.354-0.146l-3.954-3.954
		l-4.008,4.007C9.113,16.232,8.988,16.284,8.854,16.284z M17.197,5.992c-0.387,0-0.751,0.151-1.025,0.424l-0.918,0.919
		c-0.531,0.556-0.529,1.434,0.007,1.996c0.276,0.289,0.648,0.448,1.049,0.448c0.375,0,0.73-0.142,1.001-0.4l0.91-0.912
		c0.274-0.274,0.425-0.638,0.425-1.025c0-0.387-0.151-0.751-0.425-1.025C17.948,6.143,17.584,5.992,17.197,5.992z"/>
</g>
</svg>
