<?xml version="1.0" encoding="utf-8"?>
<!-- Generator: Adobe Illustrator 22.1.0, SVG Export Plug-In . SVG Version: 6.00 Build 0)  -->
<svg version="1.1" id="Light" xmlns="http://www.w3.org/2000/svg" xmlns:xlink="http://www.w3.org/1999/xlink" x="0px" y="0px"
	 viewBox="0 0 24 24" style="enable-background:new 0 0 24 24;" xml:space="preserve">
<g>
	<title>skating</title>
	<path d="M18.816,5.991c-1.654,0-3-1.346-3-3s1.346-3,3-3s3,1.346,3,3S20.47,5.991,18.816,5.991z M18.816,0.991
		c-1.103,0-2,0.897-2,2s0.897,2,2,2s2-0.897,2-2S19.919,0.991,18.816,0.991z"/>
	<path d="M8.426,24.009c-0.336,0-0.654-0.109-0.919-0.315l-5.13-3.996c-0.218-0.17-0.257-0.484-0.087-0.702
		c0.096-0.123,0.24-0.193,0.395-0.193c0.11,0,0.219,0.037,0.307,0.105l1.184,0.922l1.794-2.305c0.007-0.008,0.015-0.018,0.024-0.027
		l5.348-7.508h-3.53c-1.103,0-2-0.897-2-2s0.897-2,2-2h8c0.44,0,0.873,0.147,1.22,0.415c0.423,0.326,0.694,0.797,0.763,1.327
		c0.069,0.53-0.073,1.054-0.399,1.478l-2.44,2.883l0.597,0.321c1.427,0.949,2.266,2.509,2.263,4.186v6.391h1
		c0.276,0,0.5-0.224,0.5-0.5s-0.224-0.5-0.5-0.5s-0.5-0.224-0.5-0.5s0.224-0.5,0.5-0.5c0.827,0,1.5,0.673,1.5,1.5
		s-0.673,1.5-1.5,1.5h-6.5c-0.276,0-0.5-0.224-0.5-0.5s0.224-0.5,0.5-0.5h1.5c0,0,0-2.974,0-2.976c0-0.007-0.001-0.015-0.001-0.024
		v-3.394c0-0.335-0.167-0.646-0.445-0.832l-0.893-0.478L9.15,19.957c-0.01,0.014-0.029,0.034-0.045,0.05L7.33,22.289l0.791,0.616
		c0.088,0.068,0.194,0.105,0.306,0.105c0.156,0,0.301-0.071,0.396-0.193c0.082-0.106,0.118-0.237,0.101-0.37
		c-0.017-0.133-0.084-0.251-0.19-0.333c-0.105-0.082-0.173-0.2-0.189-0.333s0.019-0.264,0.101-0.369
		c0.095-0.123,0.239-0.193,0.395-0.193c0.11,0,0.219,0.038,0.307,0.105c0.316,0.246,0.518,0.6,0.568,0.998
		c0.05,0.398-0.058,0.791-0.304,1.108C9.326,23.798,8.894,24.009,8.426,24.009z M16.816,22.991v-2.5h-2v2.5H16.816z M6.541,21.674
		l1.495-1.921l-1.585-1.22l-1.488,1.912L6.541,21.674z M16.816,19.491v-2.892c0.002-1.341-0.662-2.585-1.777-3.328l-1.1-0.588
		c-0.134-0.073-0.226-0.199-0.255-0.347c-0.029-0.149,0.011-0.301,0.11-0.417l2.825-3.336c0.151-0.197,0.219-0.456,0.185-0.721
		c-0.035-0.265-0.17-0.5-0.382-0.663c-0.174-0.134-0.39-0.208-0.61-0.208h-8c-0.551,0-1,0.449-1,1s0.449,1,1,1h4.5
		c0.188,0,0.359,0.104,0.445,0.271c0.086,0.166,0.072,0.365-0.037,0.519l-5.666,7.954l1.584,1.219l3.281-4.605
		c0.094-0.132,0.246-0.21,0.407-0.21c0.083,0,0.165,0.021,0.237,0.06l1.321,0.709c0.591,0.391,0.932,1.017,0.932,1.688v2.894H16.816
		z"/>
</g>
</svg>
