<?xml version="1.0" encoding="utf-8"?>
<!-- Generator: Adobe Illustrator 22.1.0, SVG Export Plug-In . SVG Version: 6.00 Build 0)  -->
<svg version="1.1" id="Light" xmlns="http://www.w3.org/2000/svg" xmlns:xlink="http://www.w3.org/1999/xlink" x="0px" y="0px"
	 viewBox="0 0 24 24" style="enable-background:new 0 0 24 24;" xml:space="preserve">
<g>
	<title>skiing-board-slide</title>
	<path d="M18.249,6c-1.654,0-3-1.346-3-3s1.346-3,3-3s3,1.346,3,3S19.904,6,18.249,6z M18.249,1c-1.103,0-2,0.897-2,2s0.897,2,2,2
		s2-0.897,2-2S19.352,1,18.249,1z"/>
	<path d="M20.316,23.999c-0.226,0-0.452-0.026-0.673-0.077L3.076,20.108c-1.612-0.371-2.622-1.984-2.251-3.597
		c0.015-0.065,0.055-0.121,0.111-0.156c0.04-0.025,0.086-0.038,0.132-0.038c0.019,0,0.038,0.002,0.057,0.007l0.487,0.114
		c0.134,0.031,0.218,0.165,0.187,0.3c-0.119,0.519-0.029,1.054,0.255,1.508c0.284,0.453,0.726,0.769,1.246,0.888l16.564,3.814
		c0.148,0.034,0.3,0.051,0.45,0.051c0.923,0,1.744-0.652,1.95-1.551c0.053-0.228,0.253-0.388,0.487-0.388
		c0.038,0,0.075,0.004,0.112,0.012c0.269,0.062,0.438,0.331,0.376,0.6C22.929,23.021,21.7,23.999,20.316,23.999z"/>
	<path d="M15.747,21c-1.103,0-2-0.897-2-2v-2.462c0-0.321-0.155-0.624-0.416-0.811l-0.05-0.036
		c-0.355-0.256-0.678-0.488-0.913-0.647c-0.145,0.635-0.554,1.658-2.373,2.575l-2.351,1.17c-0.28,0.141-0.581,0.213-0.895,0.213l0,0
		c-0.762,0-1.448-0.422-1.79-1.1c-0.24-0.478-0.281-1.02-0.113-1.527c0.167-0.507,0.523-0.919,1-1.16l2.356-1.168
		c0.544-0.271,0.582-0.69,0.549-1.729c-0.011-0.333-0.021-0.678,0.003-1.045c0.023-0.352,0.139-0.692,0.336-0.985
		c0.171-0.253,0.4-0.468,0.664-0.62l1.973-1.122l-0.522-0.16C9.71,7.93,8.47,6.926,7.715,5.557L6.5,3.471
		C5.955,2.508,6.294,1.286,7.254,0.743c0.299-0.17,0.639-0.259,0.982-0.259c0.721,0,1.389,0.389,1.744,1.015l1.213,2.087
		c0.259,0.475,0.678,0.818,1.185,0.973l2.788,0.851c0.797,0.242,1.522,0.641,2.155,1.184l5.198,4.36
		c0.425,0.356,0.676,0.838,0.723,1.371c0.047,0.533-0.117,1.052-0.46,1.461c-0.38,0.454-0.94,0.714-1.534,0.714
		c-0.469,0-0.926-0.166-1.285-0.467l-3.956-3.319l-1.559,0.885l1.222,0.88c1.3,0.938,2.077,2.455,2.078,4.057V19
		C17.747,20.102,16.85,21,15.747,21z M12.113,13.847c0.32,0,0.623,0.218,1.751,1.03l0.053,0.038c0.52,0.375,0.831,0.981,0.831,1.623
		V19c0,0.552,0.448,1,1,1c0.552,0,1-0.448,1-1v-2.463c-0.001-1.282-0.623-2.496-1.663-3.247l-1.854-1.334
		c-0.139-0.1-0.216-0.261-0.208-0.432c0.01-0.171,0.104-0.324,0.252-0.408l2.539-1.442c0.075-0.043,0.16-0.065,0.247-0.065
		c0.117,0,0.232,0.042,0.322,0.117l4.222,3.542c0.179,0.15,0.408,0.233,0.643,0.233c0.298,0,0.578-0.13,0.768-0.357
		c0.349-0.417,0.299-1.045-0.112-1.4l-5.231-4.387c-0.53-0.456-1.135-0.788-1.799-0.99l-2.788-0.851
		c-0.759-0.231-1.386-0.742-1.765-1.439l-1.209-2.08C8.933,1.679,8.598,1.484,8.236,1.484c-0.171,0-0.34,0.045-0.49,0.129
		c-0.48,0.271-0.649,0.883-0.378,1.363l1.216,2.088c0.634,1.148,1.667,1.986,2.913,2.364l1.631,0.5
		c0.191,0.059,0.329,0.225,0.351,0.423c0.022,0.199-0.076,0.391-0.25,0.49l-2.975,1.693c-0.131,0.076-0.246,0.184-0.333,0.312
		c-0.098,0.146-0.156,0.316-0.167,0.492c-0.021,0.319-0.011,0.638-0.001,0.946c0.033,1.02,0.066,2.073-1.103,2.658l-2.354,1.167
		c-0.236,0.119-0.413,0.325-0.497,0.578c-0.084,0.254-0.064,0.525,0.057,0.763c0.171,0.34,0.514,0.551,0.895,0.551
		c0.157,0,0.307-0.036,0.448-0.107l2.351-1.17c1.657-0.835,1.808-1.675,1.889-2.126c0.043-0.239,0.101-0.566,0.434-0.701
		C11.954,13.863,12.033,13.847,12.113,13.847z"/>
</g>
</svg>
