<?xml version="1.0" encoding="utf-8"?>
<!-- Generator: Adobe Illustrator 22.1.0, SVG Export Plug-In . SVG Version: 6.00 Build 0)  -->
<svg version="1.1" id="Light" xmlns="http://www.w3.org/2000/svg" xmlns:xlink="http://www.w3.org/1999/xlink" x="0px" y="0px"
	 viewBox="0 0 24 24" style="enable-background:new 0 0 24 24;" xml:space="preserve">
<g>
	<title>skiing-snow-scooter</title>
	<path d="M15.501,19c-0.276,0-0.5-0.224-0.5-0.5s0.224-0.5,0.5-0.5h4.191l-1-2h-4.73c-0.245,1.7-1.723,3-3.461,3H2.006
		c-1.111-0.006-2.003-0.908-1.998-2.01c0.004-0.82,0.497-1.543,1.257-1.846c0.005-0.002,0.009-0.004,0.014-0.006
		c0.009-0.004,4.182-1.524,4.182-1.524l-4.691-3.311c-0.819-0.576-1.016-1.712-0.44-2.531C0.671,7.288,1.226,7,1.817,7h4.184
		c0.438,0.021,0.843,0.162,1.182,0.406l1.74,1.391C9.087,8.915,9.304,8.99,9.526,9.001L12.001,9
		c0.201-0.011,0.418-0.088,0.598-0.218l1.654-1.324l-1.251-1.251c-0.133-0.118-0.328-0.198-0.528-0.208L10.501,6
		c-0.276,0-0.5-0.224-0.5-0.5s0.224-0.5,0.5-0.5h2c0.451,0.024,0.868,0.195,1.188,0.482l1.547,1.547
		c0.084-0.015,0.164-0.024,0.24-0.028L18.001,7c0.469,0.026,0.885,0.223,1.184,0.556l3.219,4.022
		c0.177,0.221,0.317,0.468,0.418,0.734c0.002,0.007,0.006,0.019,0.008,0.025c0.289,0.77,0.204,1.663-0.231,2.374
		C22.091,15.507,21.194,16,20.255,16l-0.445,0l1,2h0.191c0.511,0,0.992-0.199,1.354-0.561l0.793-0.793
		c0.094-0.094,0.22-0.146,0.354-0.146s0.259,0.052,0.354,0.146c0.195,0.195,0.195,0.512,0,0.707l-0.793,0.793
		C22.511,18.697,21.779,19,21.001,19H15.501z M2.003,16c-0.119,0-0.234,0.021-0.349,0.065c-0.394,0.151-0.644,0.515-0.646,0.93
		c-0.001,0.267,0.102,0.518,0.29,0.708c0.188,0.19,0.439,0.296,0.705,0.297c0.552,0,1.001-0.447,1.003-0.996
		c0.001-0.267-0.102-0.519-0.29-0.708C2.528,16.106,2.277,16.001,2.01,16l-0.007-0.25V16z M8.003,15.404
		c-0.018,0.419,0.071,0.834,0.263,1.217c0.299,0.597,0.813,1.042,1.447,1.252C9.967,17.957,10.232,18,10.501,18
		c1.187,0,2.213-0.859,2.448-2h-2.948C9.286,16,8.598,15.794,8.003,15.404z M8.052,18c-0.276-0.269-0.506-0.583-0.681-0.931
		c-0.359-0.715-0.459-1.529-0.288-2.311l-0.627-0.443l-3.163,1.153c0.046,0.039,0.091,0.08,0.134,0.123
		c0.376,0.379,0.582,0.882,0.58,1.417C4.005,17.362,3.912,17.701,3.738,18H8.052z M1.817,8C1.552,8,1.302,8.13,1.149,8.347
		c-0.125,0.178-0.174,0.395-0.136,0.61S1.169,9.36,1.347,9.485l7.125,5.029C8.922,14.832,9.451,15,10.001,15l10.25,0
		c0.603,0,1.177-0.314,1.499-0.82c0.212-0.347,0.29-0.769,0.221-1.181h-3.47c-0.827,0-1.5-0.673-1.5-1.5s0.673-1.5,1.5-1.5h1.36
		l-1.438-1.798c-0.104-0.115-0.271-0.193-0.45-0.203L15.501,8c-0.201,0.011-0.418,0.088-0.598,0.218l-1.699,1.36
		c-0.356,0.257-0.76,0.4-1.177,0.421L9.501,10C9.063,9.979,8.658,9.838,8.319,9.594l-1.74-1.391C6.415,8.085,6.197,8.01,5.976,7.999
		L1.817,8z M18.501,11c-0.276,0-0.5,0.224-0.5,0.5s0.224,0.5,0.5,0.5h2.96l-0.8-1H18.501z"/>
</g>
</svg>
