<?xml version="1.0" encoding="utf-8"?>
<!-- Generator: Adobe Illustrator 22.1.0, SVG Export Plug-In . SVG Version: 6.00 Build 0)  -->
<svg version="1.1" id="Light" xmlns="http://www.w3.org/2000/svg" xmlns:xlink="http://www.w3.org/1999/xlink" x="0px" y="0px"
	 viewBox="0 0 24 24" style="enable-background:new 0 0 24 24;" xml:space="preserve">
<g>
	<title>skiing-bobsled</title>
	<path d="M6.905,20.517c-0.191,0-0.368-0.111-0.451-0.283c-0.058-0.121-0.066-0.256-0.022-0.382
		c0.044-0.126,0.135-0.227,0.255-0.285l1.928-0.93l-0.523-0.885c-0.221,0.095-0.407,0.171-0.564,0.231
		c-0.511,0.246-1.076,0.375-1.663,0.375c-1.511,0-2.909-0.879-3.562-2.24c-0.12-0.25-0.214-0.514-0.279-0.785
		c-0.128-0.471-0.174-0.956-0.138-1.443l-1.018,0.491c-0.069,0.033-0.142,0.05-0.217,0.05c-0.191,0-0.368-0.111-0.451-0.283
		c-0.058-0.12-0.066-0.256-0.021-0.382c0.044-0.126,0.135-0.228,0.255-0.285l1.734-0.836c0.441-1.141,1.341-2.044,2.484-2.487
		l11.081-5.025l0.421-0.842c0.011-0.022,0.025-0.045,0.04-0.066c0.355-0.494,0.759-0.744,1.201-0.744c0.12,0,0.241,0.019,0.36,0.058
		c0.559,0.18,1.346,0.757,1.346,1.476V6.81l0.479,0.479l0.581-0.756c0.282-0.367,0.727-0.586,1.189-0.586
		c0.164,0,0.327,0.027,0.483,0.08c0.511,0.172,1.268,0.766,1.268,1.49v2.5c0,0.188-0.104,0.358-0.27,0.444
		c-0.131,0.068-0.772,0.398-1.728,0.888l0.834,0.794l1.197-0.578c0.068-0.033,0.141-0.05,0.217-0.05
		c0.191,0,0.368,0.111,0.451,0.283c0.058,0.12,0.066,0.256,0.021,0.382c-0.044,0.126-0.135,0.227-0.255,0.286l-4.837,2.334
		c-0.067,0.033-0.143,0.05-0.217,0.05c-0.191,0-0.368-0.111-0.451-0.283c-0.12-0.248-0.015-0.547,0.233-0.667l2.678-1.292
		l-0.815-0.776c-3.023,1.544-8.26,4.194-11.145,5.512l0.507,0.857l2.005-0.967c0.069-0.033,0.142-0.05,0.217-0.05
		c0.191,0,0.368,0.111,0.451,0.283c0.058,0.121,0.066,0.256,0.022,0.382c-0.044,0.126-0.135,0.227-0.255,0.285l-4.837,2.333
		C7.054,20.501,6.981,20.517,6.905,20.517z M5.039,11.081c-1.622,0.629-2.496,2.349-2.046,4.006c0.052,0.214,0.122,0.413,0.212,0.6
		c0.487,1.014,1.531,1.67,2.659,1.67c0.442,0,0.869-0.098,1.269-0.29c0.904-0.348,2.834-1.253,5.757-2.697
		c0.192-2.233-0.964-4.425-2.916-5.527L5.039,11.081z M11.065,8.348c1.788,1.269,2.847,3.318,2.848,5.514
		c2.252-1.121,4.549-2.288,6.115-3.088c0.002-0.001,0.005-0.003,0.005-0.003c0.956-0.489,1.693-0.867,2.066-1.059V7.517
		c0-0.126-0.291-0.443-0.589-0.543c-0.053-0.018-0.107-0.027-0.162-0.027c-0.156,0-0.301,0.071-0.396,0.195l-1.164,1.516
		c-0.049,0.064-0.113,0.115-0.185,0.149l-4.716,2.207c-0.065,0.031-0.139,0.047-0.212,0.047l0,0c-0.066,0-0.131-0.013-0.192-0.038
		c-0.129-0.054-0.231-0.16-0.278-0.292c-0.417-1.155-1.218-2.138-2.261-2.781L11.065,8.348z M13.006,7.468
		c0.833,0.637,1.493,1.463,1.932,2.418l3.967-1.857l-0.66-0.66c-0.096-0.097-0.148-0.226-0.146-0.363v-1.99
		c-0.005-0.102-0.318-0.416-0.653-0.524c-0.018-0.006-0.032-0.01-0.05-0.01c-0.035,0-0.163,0.022-0.368,0.296L16.547,5.74
		c-0.051,0.102-0.137,0.185-0.241,0.232L13.006,7.468z"/>
</g>
</svg>
