<?xml version="1.0" encoding="utf-8"?>
<!-- Generator: Adobe Illustrator 22.1.0, SVG Export Plug-In . SVG Version: 6.00 Build 0)  -->
<svg version="1.1" id="Light" xmlns="http://www.w3.org/2000/svg" xmlns:xlink="http://www.w3.org/1999/xlink" x="0px" y="0px"
	 viewBox="0 0 24 24" style="enable-background:new 0 0 24 24;" xml:space="preserve">
<g>
	<title>skiing-skiis</title>
	<path d="M6,24c-0.551,0-1-0.448-1-1V3c0-1.654,1.346-3,3-3s3,1.346,3,3v20c0,0.552-0.449,1-1,1H6z M6,23h4v-8.326l-4,1.198V23z
		 M6,14.828l4-1.198V9.674l-4,1.198V14.828z M8,1C6.897,1,6,1.897,6,3v6.828l4-1.198V3C10,1.897,9.103,1,8,1z"/>
	<path d="M14,24c-0.552,0-1-0.448-1-1V3c0-1.654,1.346-3,3-3s3,1.346,3,3v20c0,0.552-0.448,1-1,1H14z M14,23h4v-7.128l-4-1.198V23z
		 M18,14.828v-3.956l-4-1.198v3.956L18,14.828z M18,9.828V3c0-1.103-0.897-2-2-2s-2,0.897-2,2v5.63L18,9.828z"/>
	<path d="M1.5,24C1.224,24,1,23.776,1,23.5V22H0.5C0.224,22,0,21.776,0,21.5S0.224,21,0.5,21H1V7C0.449,7,0,6.551,0,6V1.5
		C0,0.673,0.673,0,1.5,0S3,0.673,3,1.5V6c0,0.551-0.449,1-1,1v14h0.5C2.776,21,3,21.224,3,21.5S2.776,22,2.5,22H2v1.5
		C2,23.776,1.776,24,1.5,24z M1.5,1C1.224,1,1,1.224,1,1.5V6h1V1.5C2,1.224,1.776,1,1.5,1z"/>
	<path d="M22.5,24c-0.276,0-0.5-0.224-0.5-0.5V22h-0.5c-0.276,0-0.5-0.224-0.5-0.5s0.224-0.5,0.5-0.5H22V7c-0.552,0-1-0.449-1-1V1.5
		C21,0.673,21.673,0,22.5,0S24,0.673,24,1.5V6c0,0.551-0.448,1-1,1v14h0.5c0.276,0,0.5,0.224,0.5,0.5S23.776,22,23.5,22H23v1.5
		C23,23.776,22.776,24,22.5,24z M22.5,1C22.224,1,22,1.224,22,1.5V6h1V1.5C23,1.224,22.776,1,22.5,1z"/>
</g>
</svg>
