<?xml version="1.0" encoding="utf-8"?>
<!-- Generator: Adobe Illustrator 22.1.0, SVG Export Plug-In . SVG Version: 6.00 Build 0)  -->
<svg version="1.1" id="Light" xmlns="http://www.w3.org/2000/svg" xmlns:xlink="http://www.w3.org/1999/xlink" x="0px" y="0px"
	 viewBox="0 0 24 24" style="enable-background:new 0 0 24 24;" xml:space="preserve">
<g>
	<title>skiing-cross-country-1</title>
	<path d="M15.982,6c-1.654,0-3-1.346-3-3s1.346-3,3-3s3,1.346,3,3S17.636,6,15.982,6z M15.982,1c-1.103,0-2,0.897-2,2s0.897,2,2,2
		s2-0.897,2-2S17.085,1,15.982,1z"/>
	<path d="M8.468,22.04c-0.27,0-0.534-0.054-0.785-0.162c-1.014-0.433-1.487-1.611-1.053-2.625l3.498-8.304l-0.749,0.3
		c-0.247,0.099-0.443,0.29-0.549,0.535l-0.757,1.81c-0.318,0.739-1.041,1.215-1.843,1.215c-0.271,0-0.536-0.054-0.787-0.162
		c-0.491-0.211-0.871-0.601-1.069-1.097c-0.198-0.497-0.191-1.041,0.02-1.531l0.758-1.811c0.531-1.231,1.505-2.182,2.744-2.68
		l2.545-1.017c0.771-0.35,1.598-0.529,2.447-0.529c2.117,0,4.092,1.149,5.154,2.999L19,10.623c0.15,0.258,0.404,0.434,0.698,0.483
		l0.966,0.137c0.547,0.091,1.008,0.379,1.319,0.814c0.31,0.435,0.432,0.965,0.344,1.492s-0.376,0.988-0.811,1.298
		c-0.341,0.243-0.741,0.372-1.157,0.372h0c-0.111,0-0.224-0.01-0.335-0.028l-0.97-0.138c-1.481-0.245-2.758-1.125-3.508-2.415
		l-0.959-1.644c-0.028-0.049-0.058-0.096-0.09-0.142l-0.92,2.301l1.335,0.742c1.585,0.883,2.57,2.558,2.571,4.372V20
		c0,1.103-0.897,2-2,2s-2-0.897-2-2h-1.499c-0.276,0-0.5-0.224-0.5-0.5s0.224-0.5,0.5-0.5h1.499v-0.728
		c0-0.363-0.197-0.698-0.514-0.875l-0.909-0.506l-1.723,3.866c-0.007,0.018-0.016,0.042-0.027,0.066
		c-0.21,0.491-0.598,0.871-1.094,1.07C8.974,21.991,8.723,22.04,8.468,22.04z M11.053,9.54c0.133,0,0.263,0.055,0.357,0.15
		c0.142,0.144,0.183,0.358,0.104,0.545l-3.964,9.41c-0.217,0.509,0.019,1.098,0.526,1.314c0.126,0.054,0.258,0.081,0.392,0.081
		c0.127,0,0.253-0.024,0.373-0.073c0.248-0.099,0.442-0.289,0.547-0.535l0.017-0.042l1.962-4.404
		c0.057-0.128,0.166-0.226,0.298-0.271c0.05-0.017,0.104-0.026,0.158-0.026c0.085,0,0.168,0.022,0.243,0.063l1.388,0.771
		c0.635,0.353,1.029,1.023,1.028,1.75v1.206c0.001,0.007,0.001,0.014,0.001,0.021s0,0.014-0.001,0.021V20c0,0.552,0.448,1,1,1
		c0.552,0,1-0.448,1-1v-1.734c-0.001-1.451-0.789-2.792-2.057-3.498l-1.72-0.956c-0.219-0.122-0.314-0.389-0.221-0.623l1.365-3.412
		c0.058-0.144,0.176-0.251,0.324-0.294c0.045-0.013,0.092-0.02,0.14-0.02c0.105,0,0.206,0.032,0.292,0.094
		c0.348,0.25,0.633,0.564,0.846,0.934l0.959,1.643c0.6,1.031,1.619,1.735,2.796,1.93l0.972,0.138
		c0.064,0.011,0.122,0.016,0.18,0.016c0.208,0,0.408-0.064,0.578-0.186c0.218-0.155,0.362-0.386,0.406-0.649
		s-0.017-0.528-0.172-0.746c-0.153-0.214-0.379-0.358-0.638-0.404l-0.984-0.14c-0.599-0.099-1.111-0.452-1.41-0.968l-0.959-1.644
		c-0.885-1.541-2.528-2.497-4.289-2.497c-0.709,0-1.4,0.15-2.055,0.447L8.268,8.456c-0.992,0.399-1.772,1.16-2.195,2.143
		l-0.758,1.81c-0.107,0.249-0.111,0.522-0.012,0.77c0.099,0.249,0.289,0.443,0.534,0.549c0.125,0.054,0.258,0.081,0.393,0.081
		c0.402,0,0.764-0.238,0.922-0.605l0.758-1.812c0.214-0.493,0.603-0.872,1.097-1.071l1.861-0.745
		C10.926,9.552,10.989,9.54,11.053,9.54z"/>
	<path d="M7.792,24.015c-0.118,0-0.237-0.006-0.356-0.017c0,0-0.001,0-0.001,0c-1.889,0-4.254-2.062-5.493-3.291
		c-0.191-0.192-0.294-0.444-0.293-0.711c0.001-0.268,0.107-0.518,0.296-0.706C2.133,19.104,2.383,19,2.648,19h2.333
		c0.276,0,0.5,0.224,0.5,0.5S5.257,20,4.981,20H2.648c1.129,1.119,3.261,3,4.834,3c0.115,0.01,0.207,0.014,0.297,0.014
		c0.765,0,1.475-0.305,1.998-0.858C9.872,22.057,10.004,22,10.141,22c0.128,0,0.25,0.049,0.344,0.137
		c0.2,0.189,0.209,0.506,0.02,0.707C9.79,23.599,8.827,24.015,7.792,24.015z"/>
	<path d="M15.482,24c-0.022,0-0.044-0.001-0.066-0.004c-1.416-0.194-2.719-0.806-3.772-1.771c-0.203-0.187-0.217-0.504-0.03-0.707
		c0.095-0.103,0.229-0.162,0.368-0.162c0.125,0,0.245,0.047,0.337,0.131c0.893,0.819,1.998,1.342,3.197,1.513
		c1.476-0.009,2.466-0.611,2.466-1.5c0-0.276,0.224-0.5,0.5-0.5s0.5,0.224,0.5,0.5C18.982,22.745,17.9,24,15.482,24z"/>
</g>
</svg>
