<?xml version="1.0" encoding="utf-8"?>
<!-- Generator: Adobe Illustrator 22.1.0, SVG Export Plug-In . SVG Version: 6.00 Build 0)  -->
<svg version="1.1" id="Light" xmlns="http://www.w3.org/2000/svg" xmlns:xlink="http://www.w3.org/1999/xlink" x="0px" y="0px"
	 viewBox="0 0 24 24" style="enable-background:new 0 0 24 24;" xml:space="preserve">
<g>
	<title>skiing-snow-scooter-person</title>
	<path d="M0.5,22.75c-0.276,0-0.5-0.224-0.5-0.5s0.224-0.5,0.5-0.5H21c1.103,0,2-0.897,2-2c0-0.276,0.224-0.5,0.5-0.5
		s0.5,0.224,0.5,0.5c0,1.654-1.346,3-3,3H0.5z"/>
	<path d="M2.14,19.75c-0.082,0-0.164-0.01-0.243-0.03c-0.534-0.134-0.86-0.677-0.727-1.212l0.906-3.622
		c0.167-0.669,0.766-1.136,1.455-1.136H7v-5.5c0-0.4,0.155-0.776,0.439-1.06c0.283-0.284,0.66-0.441,1.06-0.441
		c0.552,0,1.055,0.299,1.318,0.782c0.666,0.957,1.64,1.689,2.744,2.064l0.502,0.2c0.768,0.308,1.142,1.183,0.835,1.95
		c-0.15,0.372-0.435,0.664-0.803,0.822c-0.189,0.081-0.387,0.122-0.59,0.122c-0.191,0-0.379-0.037-0.558-0.109l-0.475-0.189
		c-0.637-0.253-1.236-0.595-1.778-1.015c-0.105-0.082-0.173-0.2-0.19-0.332c-0.017-0.133,0.019-0.264,0.101-0.369
		C9.7,10.551,9.845,10.48,10,10.48c0.11,0,0.219,0.037,0.306,0.105c0.468,0.363,0.985,0.658,1.535,0.877l0.477,0.19
		c0.061,0.024,0.124,0.037,0.187,0.037c0.067,0,0.133-0.014,0.196-0.041c0.123-0.053,0.218-0.15,0.268-0.274
		c0.102-0.256-0.023-0.548-0.279-0.65l-0.477-0.191c-1.295-0.438-2.449-1.313-3.237-2.458C8.965,8.058,8.955,8.039,8.945,8.021
		C8.858,7.853,8.688,7.749,8.5,7.749C8.224,7.749,8,7.974,8,8.25v5.5h2.9c0.276,0,0.5,0.224,0.5,0.5s-0.224,0.5-0.5,0.5H3.531
		c-0.23,0-0.429,0.156-0.485,0.378L2.891,15.75h19.882c0.079-0.307,0.059-0.628-0.058-0.918c-0.323-0.774-0.911-1.42-1.656-1.816
		l-4.29-2.287c-0.068-0.036-0.141-0.055-0.217-0.055c-0.045,0-0.09,0.007-0.134,0.02c-0.118,0.036-0.215,0.115-0.273,0.224
		c-0.013,0.025-0.023,0.049-0.032,0.074c-0.116,0.348-0.268,0.686-0.451,1.006c-0.089,0.155-0.255,0.251-0.434,0.251
		c-0.087,0-0.173-0.023-0.249-0.066c-0.116-0.067-0.199-0.174-0.234-0.303c-0.035-0.129-0.018-0.264,0.049-0.38
		c0.151-0.262,0.275-0.54,0.37-0.825c0.026-0.079,0.059-0.156,0.098-0.229c0.069-0.13,0.158-0.247,0.266-0.351l-1-3.002
		c-0.087-0.261,0.054-0.545,0.316-0.632c0.052-0.017,0.105-0.026,0.158-0.026c0.215,0,0.406,0.137,0.474,0.342l0.968,2.906
		c0.039-0.003,0.078-0.005,0.117-0.005c0.236,0,0.47,0.058,0.677,0.169l4.289,2.287c0.947,0.505,1.697,1.328,2.11,2.319
		c0.427,1.057,0.087,2.264-0.826,2.939l-2.48,1.86c-0.43,0.323-0.962,0.5-1.5,0.5H2.14z M2.14,18.75l16.693,0
		c0.322,0,0.642-0.106,0.9-0.3L22,16.75H2.641L2.14,18.75z"/>
	<path d="M9,6.25c-1.379,0-2.5-1.121-2.5-2.5s1.121-2.5,2.5-2.5s2.5,1.121,2.5,2.5S10.379,6.25,9,6.25z M9,2.25
		c-0.827,0-1.5,0.673-1.5,1.5s0.673,1.5,1.5,1.5s1.5-0.673,1.5-1.5S9.827,2.25,9,2.25z"/>
</g>
</svg>
