<?xml version="1.0" encoding="utf-8"?>
<!-- Generator: Adobe Illustrator 22.1.0, SVG Export Plug-In . SVG Version: 6.00 Build 0)  -->
<svg version="1.1" id="Light" xmlns="http://www.w3.org/2000/svg" xmlns:xlink="http://www.w3.org/1999/xlink" x="0px" y="0px"
	 viewBox="0 0 24 24" style="enable-background:new 0 0 24 24;" xml:space="preserve">
<g>
	<title>skiing-cross-country</title>
	<path d="M18,6c-1.654,0-3-1.346-3-3s1.346-3,3-3s3,1.346,3,3S19.654,6,18,6z M18,1c-1.103,0-2,0.897-2,2s0.897,2,2,2s2-0.897,2-2
		S19.103,1,18,1z"/>
	<path d="M4,24c-0.276,0-0.5-0.224-0.5-0.5S3.724,23,4,23h14c1.103,0,2-0.897,2-2c0-0.276,0.224-0.5,0.5-0.5S21,20.724,21,21
		c0,1.654-1.346,3-3,3H4z"/>
	<path d="M6.008,20.585c-0.943,0-1.812-0.427-2.384-1.173l-3.521-4.59c-0.081-0.106-0.116-0.237-0.099-0.369
		c0.017-0.133,0.085-0.25,0.191-0.332c0.088-0.067,0.193-0.103,0.304-0.103c0.157,0,0.302,0.072,0.397,0.196l3.521,4.59
		c0.381,0.497,0.96,0.782,1.589,0.782c0.443,0,0.863-0.143,1.214-0.412c0.088-0.068,0.193-0.103,0.304-0.103
		c0.157,0,0.302,0.072,0.397,0.196c0.167,0.219,0.126,0.533-0.092,0.701C7.303,20.371,6.673,20.585,6.008,20.585z"/>
	<path d="M13.505,22.03c-0.276,0-0.5-0.224-0.5-0.5v-2.694c0-0.282-0.122-0.552-0.333-0.741l-2.607-2.345
		C9.151,16.555,7.986,16.997,6.759,17H4.5C4.224,17,4,16.776,4,16.5S4.224,16,4.5,16h2.258c1.066-0.002,2.07-0.418,2.827-1.17
		l0.118-0.117c0.094-0.093,0.219-0.145,0.352-0.145c0.124,0,0.242,0.046,0.334,0.128l2.95,2.654
		c0.421,0.377,0.664,0.918,0.666,1.484v2.695C14.005,21.806,13.781,22.03,13.505,22.03z"/>
	<path d="M16.5,22.03c-0.276,0-0.5-0.224-0.5-0.5v-2.694c-0.001-1.132-0.483-2.216-1.324-2.974l-2.827-2.544
		c-0.102-0.091-0.162-0.222-0.165-0.359c-0.004-0.136,0.05-0.27,0.147-0.367l2.958-2.946C14.884,9.552,15.01,9.5,15.142,9.5
		c0.09,0,0.179,0.025,0.256,0.071c0.931,0.555,2.002,0.848,3.099,0.848c1.368,0,2.705-0.461,3.765-1.297l0.415-0.386
		c0.375-0.38,0.366-1.011-0.026-1.398c-0.19-0.187-0.439-0.29-0.702-0.29c-0.234,0-0.464,0.084-0.646,0.238l-0.428,0.396
		c-0.017,0.016-0.037,0.031-0.057,0.045c-0.673,0.462-1.457,0.706-2.268,0.706c-0.884,0-1.757-0.301-2.459-0.847
		c-0.021-0.016-0.041-0.034-0.059-0.054c-0.146-0.155-0.274-0.27-0.317-0.307C14.826,6.437,13.683,6.002,12.499,6h-2.406
		C8.808,6,7.564,6.517,6.668,7.419L4.794,9.293c-0.189,0.189-0.293,0.44-0.293,0.707c0,0.267,0.104,0.518,0.293,0.707
		C4.983,10.896,5.234,11,5.501,11c0.268,0,0.519-0.104,0.707-0.293l1.873-1.873C8.609,8.304,9.341,8,10.09,8h2.305
		c0.203,0,0.385,0.121,0.462,0.309c0.078,0.187,0.035,0.401-0.109,0.545l-3.379,3.37c-0.048,0.044-0.079,0.075-0.107,0.107
		c-0.003,0.003-0.027,0.03-0.032,0.036l-1.056,1.049c-0.378,0.375-0.879,0.583-1.412,0.584H2c-0.276,0-0.5-0.224-0.5-0.5
		s0.224-0.5,0.5-0.5h4.759c0.267,0,0.519-0.105,0.709-0.293l1.053-1.046c0.042-0.05,0.1-0.108,0.161-0.163L11.185,9h-1.091
		C9.605,9,9.131,9.197,8.79,9.541l-1.874,1.874C6.539,11.792,6.036,12,5.501,12c-0.535,0-1.037-0.208-1.414-0.585
		C3.964,11.292,3.858,11.153,3.77,11H0.5C0.224,11,0,10.776,0,10.5S0.224,10,0.5,10h3.003C3.501,9.47,3.706,8.967,4.086,8.586
		L5.96,6.713C7.042,5.624,8.544,5,10.08,5h2.42c1.428,0.003,2.804,0.525,3.874,1.47c0.056,0.05,0.197,0.176,0.362,0.348
		c0.529,0.401,1.157,0.614,1.816,0.614c0.596,0,1.175-0.177,1.674-0.511l0.417-0.385c0.375-0.316,0.836-0.487,1.308-0.487
		c0.127,0,0.253,0.012,0.377,0.036l0.176-1.639C22.53,4.192,22.743,4,22.997,4c0.02,0,0.039,0.001,0.059,0.003
		c0.13,0.014,0.25,0.079,0.333,0.183c0.084,0.104,0.122,0.234,0.108,0.367l-0.215,2.005c0.024,0.021,0.048,0.044,0.072,0.067
		c0.785,0.775,0.793,2.044,0.019,2.828l-0.446,0.412l-0.638,5.956l1.281,0.183c0.132,0.019,0.249,0.088,0.329,0.195
		s0.114,0.239,0.095,0.371C23.96,16.815,23.747,17,23.5,17c-0.023,0-0.047-0.001-0.071-0.005l-1.246-0.178l-0.186,1.736
		C21.97,18.808,21.757,19,21.5,19c-0.018,0-0.036-0.001-0.054-0.003c-0.274-0.029-0.473-0.276-0.444-0.55l0.19-1.771l-1.263-0.18
		c-0.132-0.019-0.249-0.088-0.329-0.195s-0.114-0.239-0.095-0.371c0.035-0.245,0.248-0.429,0.496-0.429
		c0.023,0,0.046,0.001,0.069,0.005l1.229,0.176l0.547-5.105c-1.03,0.551-2.182,0.839-3.361,0.839c-1.138,0-2.26-0.274-3.257-0.795
		l-2.317,2.307l2.435,2.192c1.051,0.948,1.654,2.302,1.655,3.716v2.695C17,21.806,16.776,22.03,16.5,22.03z"/>
</g>
</svg>
