<?xml version="1.0" encoding="utf-8"?>
<!-- Generator: Adobe Illustrator 22.1.0, SVG Export Plug-In . SVG Version: 6.00 Build 0)  -->
<svg version="1.1" id="Light" xmlns="http://www.w3.org/2000/svg" xmlns:xlink="http://www.w3.org/1999/xlink" x="0px" y="0px"
	 viewBox="0 0 24 24" style="enable-background:new 0 0 24 24;" xml:space="preserve">
<g>
	<title>skiing-slide-down</title>
	<path d="M21,9.552c-1.654,0-3-1.346-3-3s1.346-3,3-3s3,1.346,3,3S22.654,9.552,21,9.552z M21,4.552c-1.103,0-2,0.897-2,2
		s0.897,2,2,2s2-0.897,2-2S22.102,4.552,21,4.552z"/>
	<path d="M19.09,21.709c-0.377,0-0.748-0.071-1.103-0.211L0.316,14.517c-0.124-0.049-0.222-0.143-0.275-0.266
		c-0.053-0.122-0.056-0.258-0.006-0.383c0.076-0.192,0.259-0.316,0.465-0.316c0.063,0,0.125,0.012,0.184,0.035l17.671,6.981
		c0.235,0.093,0.481,0.14,0.732,0.14c0.828,0,1.559-0.497,1.863-1.265c0.076-0.192,0.258-0.316,0.465-0.316
		c0.063,0,0.125,0.012,0.184,0.035c0.124,0.049,0.221,0.143,0.274,0.266s0.056,0.259,0.006,0.383
		c-0.294,0.745-0.861,1.331-1.597,1.65C19.901,21.625,19.5,21.709,19.09,21.709z"/>
	<path d="M20.615,16.574c-0.34,0-0.677-0.089-0.977-0.257c-0.033-0.018-0.065-0.038-0.097-0.059l-3.385-2.029
		c-1.26-0.754-2.119-2.017-2.359-3.465l-0.514-3.08l-1.415-0.641c0.477,2.435-0.955,4.908-3.332,5.688l-2.898,0.967
		c-0.201,0.062-0.401,0.092-0.602,0.092c-0.323,0-0.646-0.081-0.934-0.233c-0.472-0.251-0.818-0.67-0.975-1.18
		C2.814,11.356,3.355,10.272,4.36,9.91l2.911-0.972C7.76,8.777,8.049,8.261,7.93,7.763L7.513,5.982
		C7.33,5.203,7.463,4.398,7.886,3.717c0.423-0.682,1.085-1.157,1.864-1.34c0.222-0.052,0.451-0.078,0.681-0.078
		c0.427,0,0.856,0.092,1.241,0.267l4.234,1.914c0.609,0.276,1.038,0.834,1.148,1.493l0.689,4.134c0.048,0.29,0.22,0.542,0.472,0.693
		l3.395,2.037c0.456,0.256,0.789,0.682,0.933,1.197c0.144,0.514,0.08,1.054-0.182,1.52c-0.262,0.466-0.689,0.802-1.204,0.946
		C20.979,16.549,20.797,16.574,20.615,16.574z M11.152,5.671c0.071,0,0.141,0.015,0.206,0.044l2.579,1.168
		c0.153,0.069,0.26,0.209,0.287,0.373l0.558,3.344c0.192,1.158,0.88,2.168,1.887,2.772l3.4,2.037
		c0.004,0.002,0.059,0.036,0.059,0.036c0.15,0.084,0.319,0.129,0.489,0.129c0.091,0,0.183-0.013,0.272-0.038
		c0.257-0.072,0.471-0.24,0.602-0.473c0.131-0.233,0.163-0.503,0.091-0.76c-0.072-0.257-0.24-0.471-0.473-0.602L17.7,11.658
		c-0.503-0.302-0.847-0.807-0.944-1.386l-0.689-4.134c-0.055-0.33-0.27-0.609-0.574-0.747l-4.234-1.914
		c-0.257-0.116-0.544-0.178-0.828-0.178c-0.153,0-0.306,0.018-0.453,0.052c-0.52,0.122-0.962,0.439-1.244,0.893
		c-0.282,0.454-0.37,0.99-0.248,1.51l0.417,1.779c0.238,0.999-0.341,2.034-1.318,2.354l-2.898,0.967
		c-0.493,0.178-0.762,0.719-0.605,1.23c0.078,0.255,0.251,0.465,0.487,0.59c0.146,0.078,0.303,0.117,0.467,0.117
		c0.099,0,0.199-0.015,0.295-0.044l2.888-0.964c1.952-0.641,3.107-2.707,2.631-4.704l-0.187-0.794
		c-0.044-0.187,0.021-0.378,0.169-0.5C10.923,5.711,11.036,5.671,11.152,5.671z"/>
</g>
</svg>
