<?xml version="1.0" encoding="utf-8"?>
<!-- Generator: Adobe Illustrator 22.1.0, SVG Export Plug-In . SVG Version: 6.00 Build 0)  -->
<svg version="1.1" id="Light" xmlns="http://www.w3.org/2000/svg" xmlns:xlink="http://www.w3.org/1999/xlink" x="0px" y="0px"
	 viewBox="0 0 24 24" style="enable-background:new 0 0 24 24;" xml:space="preserve">
<g>
	<title>pets-hospital</title>
	<path d="M6.5,24C5.673,24,5,23.327,5,22.5v-3.523c0-0.386,0.091-0.773,0.264-1.119l0.578-1.155C5.946,16.495,6.001,16.262,6,16.029
		V15c0-0.424,0.106-0.833,0.31-1.2c-0.071-0.01-0.142-0.015-0.213-0.015c-0.129,0-0.258,0.017-0.384,0.05
		c-0.391,0.103-0.718,0.352-0.922,0.701c-0.043,0.074-0.081,0.153-0.11,0.232l-0.712,1.908C3.896,16.869,3.708,17,3.5,17
		c-0.06,0-0.119-0.011-0.175-0.032c-0.125-0.046-0.224-0.139-0.28-0.26c-0.055-0.122-0.06-0.257-0.014-0.383l0.712-1.908
		c0.05-0.133,0.112-0.263,0.184-0.387c0.338-0.579,0.882-0.993,1.531-1.163c0.21-0.055,0.425-0.083,0.639-0.083
		c0.326,0,0.643,0.062,0.945,0.186C7.466,12.666,7.978,12.5,8.5,12.5h7.189c0.229,0,0.425-0.151,0.482-0.367
		c0.471-2.175,1.901-3.99,3.921-4.968l0.15-0.093C20.32,7.025,20.41,7,20.5,7c0.086,0,0.171,0.022,0.246,0.065
		C20.903,7.153,21,7.32,21,7.5v1.732l2.777,1.852c0.195,0.13,0.273,0.373,0.19,0.592l-0.393,1.045
		c-0.017,0.045-0.041,0.088-0.071,0.128c-0.315,0.41-0.812,0.654-1.331,0.654l0,0c-0.069,0-0.138-0.004-0.207-0.013h-1.168
		C19,16.836,19,17.906,19,21.755v0.735c0,0.827-0.673,1.5-1.5,1.5h-0.125c-0.749,0-1.388-0.56-1.487-1.302l-0.348-4.166h-3.646
		c-0.083,0.26-0.175,0.545-0.276,0.855l1.223,2.446c0.18,0.357,0.209,0.764,0.083,1.145c-0.125,0.381-0.392,0.689-0.751,0.87
		c-0.211,0.106-0.437,0.16-0.672,0.16c-0.572,0-1.087-0.317-1.344-0.826l-1.501-3.001c-0.012-0.025-0.023-0.05-0.031-0.077
		c-0.088-0.286-0.134-0.581-0.135-0.879L8.44,19.268c-0.283,0.283-0.439,0.66-0.44,1.06V22.5C8,23.327,7.328,24,6.5,24z M8.5,13.5
		C7.673,13.5,7,14.173,7,15v1.027c0.001,0.388-0.09,0.777-0.264,1.124l-0.578,1.155C6.055,18.513,6,18.745,6,18.977V22.5
		C6,22.776,6.225,23,6.5,23S7,22.776,7,22.5v-2.172c0-0.668,0.26-1.295,0.733-1.767l0.914-0.914C8.741,17.552,8.867,17.5,9,17.5
		c0.066,0,0.131,0.013,0.193,0.039C9.379,17.615,9.5,17.797,9.5,18v1c-0.021,0.28,0.003,0.524,0.072,0.762l1.481,2.961
		c0.085,0.169,0.257,0.275,0.448,0.275c0.078,0,0.154-0.018,0.224-0.053c0.12-0.06,0.209-0.163,0.251-0.291
		c0.042-0.127,0.032-0.263-0.028-0.383l-1.316-2.631c-0.059-0.119-0.069-0.254-0.028-0.379c0.164-0.498,0.303-0.934,0.423-1.309
		l0.026-0.082c0.066-0.208,0.258-0.348,0.476-0.348H16c0.258,0,0.477,0.201,0.498,0.458l0.384,4.6
		c0.031,0.224,0.248,0.409,0.493,0.409H17.5c0.276,0,0.5-0.224,0.5-0.5v-0.735c0-4.119,0-5.226,2.061-9.004
		c0.088-0.161,0.256-0.261,0.439-0.261H22c0.026,0,0.052,0.002,0.077,0.006c0.031,0.005,0.065,0.007,0.099,0.007
		c0.188,0,0.366-0.077,0.493-0.214l0.223-0.594l-2.669-1.78C20.084,9.823,20,9.668,20,9.5V8.353
		c-1.461,0.893-2.493,2.334-2.857,4.013c-0.176,0.672-0.771,1.134-1.448,1.134H8.5z"/>
	<path d="M4.5,10C3.673,10,3,9.327,3,8.5V7H1.5C0.673,7,0,6.327,0,5.5v-1C0,3.673,0.673,3,1.5,3H3V1.5C3,0.673,3.673,0,4.5,0h1
		C6.328,0,7,0.673,7,1.5V3h1.5C9.328,3,10,3.673,10,4.5v1C10,6.327,9.328,7,8.5,7H7v1.5C7,9.327,6.328,10,5.5,10H4.5z M1.5,4
		C1.225,4,1,4.224,1,4.5v1C1,5.776,1.225,6,1.5,6h2C3.776,6,4,6.224,4,6.5v2C4,8.776,4.225,9,4.5,9h1C5.776,9,6,8.776,6,8.5v-2
		C6,6.224,6.225,6,6.5,6h2C8.776,6,9,5.776,9,5.5v-1C9,4.224,8.776,4,8.5,4h-2C6.225,4,6,3.776,6,3.5v-2C6,1.224,5.776,1,5.5,1h-1
		C4.225,1,4,1.224,4,1.5v2C4,3.776,3.776,4,3.5,4H1.5z"/>
</g>
</svg>
