<?xml version="1.0" encoding="utf-8"?>
<!-- Generator: Adobe Illustrator 22.1.0, SVG Export Plug-In . SVG Version: 6.00 Build 0)  -->
<svg version="1.1" id="Light" xmlns="http://www.w3.org/2000/svg" xmlns:xlink="http://www.w3.org/1999/xlink" x="0px" y="0px"
	 viewBox="0 0 24 24" style="enable-background:new 0 0 24 24;" xml:space="preserve">
<g>
	<title>pets-paw-ribbon</title>
	<path d="M18.197,23.869c-0.122,0-0.429-0.04-0.649-0.409l-2.812-4.706c-0.86,0.251-1.752,0.378-2.654,0.378
		c-0.951,0-1.892-0.143-2.801-0.424l-2.827,4.751c-0.221,0.37-0.528,0.41-0.65,0.41c-0.023,0-0.042-0.001-0.059-0.003
		c-0.103-0.01-0.452-0.077-0.618-0.532l-1.023-2.808l-2.946,0.499C1.1,21.035,1.038,21.04,0.98,21.04
		c-0.347,0-0.526-0.2-0.587-0.286c-0.162-0.229-0.16-0.536,0.005-0.823l3.337-5.77c-0.755-1.387-1.154-2.95-1.154-4.529
		c0-5.238,4.262-9.5,9.5-9.5c5.238,0,9.5,4.262,9.5,9.5c0,1.64-0.427,3.255-1.237,4.68l3.257,5.62
		c0.166,0.286,0.169,0.594,0.007,0.823c-0.061,0.086-0.24,0.286-0.587,0.286l0,0c-0.061,0-0.124-0.006-0.188-0.019l-2.936-0.497
		l-1.022,2.808c-0.112,0.307-0.343,0.506-0.619,0.533C18.235,23.868,18.217,23.869,18.197,23.869z M18.124,22.474l0.976-2.682
		c0.071-0.197,0.261-0.329,0.473-0.329c0.025,0,0.051,0.002,0.076,0.006l2.804,0.475l-2.718-4.689
		c-1.037,1.41-2.421,2.495-4.037,3.161L18.124,22.474z M4.429,19.463c0.211,0,0.401,0.132,0.472,0.329l0.976,2.679l2.449-4.116
		c-1.607-0.693-2.976-1.803-3.991-3.233l-2.789,4.822l2.802-0.474C4.377,19.465,4.403,19.463,4.429,19.463z M12.081,1.132
		c-4.687,0-8.5,3.813-8.5,8.5s3.813,8.5,8.5,8.5c0.892,0,1.776-0.14,2.626-0.417c0.053-0.03,0.11-0.049,0.172-0.058
		c1.811-0.633,3.371-1.877,4.397-3.507c0.024-0.082,0.07-0.156,0.132-0.216c0.767-1.302,1.172-2.788,1.172-4.301
		C20.581,4.945,16.768,1.132,12.081,1.132z"/>
	<path d="M10.263,14.114c-0.652-0.018-1.229-0.386-1.512-0.961c-0.285-0.575-0.232-1.26,0.141-1.785l1.822-2.492
		c0.103-0.14,0.226-0.264,0.366-0.366c0.292-0.213,0.636-0.326,0.997-0.326c0.539,0,1.05,0.259,1.367,0.692l1.83,2.5
		c0.203,0.283,0.315,0.614,0.326,0.959c0.014,0.462-0.153,0.901-0.469,1.237c-0.316,0.336-0.745,0.529-1.206,0.543
		c-0.002,0-0.005,0-0.008,0H10.263z M12.079,9.183c-0.147,0-0.288,0.046-0.407,0.133c-0.057,0.042-0.108,0.092-0.15,0.15
		l-1.818,2.486c-0.156,0.22-0.178,0.511-0.056,0.758c0.119,0.242,0.36,0.397,0.629,0.404h3.634c0.182-0.006,0.36-0.087,0.493-0.229
		c0.134-0.142,0.204-0.326,0.198-0.521c-0.004-0.146-0.051-0.285-0.136-0.402l-1.827-2.496C12.509,9.289,12.3,9.183,12.079,9.183z"
		/>
	<path d="M8.327,9.753c-0.963,0-1.746-0.783-1.746-1.746s0.783-1.746,1.746-1.746s1.746,0.783,1.746,1.746S9.29,9.753,8.327,9.753z
		 M8.327,7.261c-0.411,0-0.746,0.335-0.746,0.746s0.335,0.746,0.746,0.746c0.411,0,0.746-0.335,0.746-0.746S8.739,7.261,8.327,7.261
		z"/>
	<path d="M12.066,7.261c-0.963,0-1.746-0.783-1.746-1.746s0.783-1.746,1.746-1.746c0.963,0,1.746,0.783,1.746,1.746
		S13.029,7.261,12.066,7.261z M12.066,4.769c-0.411,0-0.746,0.335-0.746,0.746s0.335,0.746,0.746,0.746s0.746-0.335,0.746-0.746
		S12.478,4.769,12.066,4.769z"/>
	<path d="M15.835,9.753c-0.963,0-1.746-0.783-1.746-1.746s0.783-1.746,1.746-1.746c0.963,0,1.746,0.783,1.746,1.746
		S16.798,9.753,15.835,9.753z M15.835,7.261c-0.411,0-0.746,0.335-0.746,0.746s0.335,0.746,0.746,0.746
		c0.411,0,0.746-0.335,0.746-0.746S16.247,7.261,15.835,7.261z"/>
</g>
</svg>
