<?xml version="1.0" encoding="utf-8"?>
<!-- Generator: Adobe Illustrator 22.1.0, SVG Export Plug-In . SVG Version: 6.00 Build 0)  -->
<svg version="1.1" id="Light" xmlns="http://www.w3.org/2000/svg" xmlns:xlink="http://www.w3.org/1999/xlink" x="0px" y="0px"
	 viewBox="0 0 24 24" style="enable-background:new 0 0 24 24;" xml:space="preserve">
<g>
	<title>pets-paw-hospital</title>
	<path d="M8.5,24C7.673,24,7,23.327,7,22.5V17H1.5C0.673,17,0,16.327,0,15.5v-7C0,7.673,0.673,7,1.5,7H7V1.5C7,0.673,7.673,0,8.5,0
		h7C16.327,0,17,0.673,17,1.5V7h5.5C23.327,7,24,7.673,24,8.5v7c0,0.827-0.673,1.5-1.5,1.5H17v5.5c0,0.827-0.673,1.5-1.5,1.5H8.5z
		 M1.5,8C1.224,8,1,8.224,1,8.5v7C1,15.776,1.224,16,1.5,16h6C7.776,16,8,16.224,8,16.5v6C8,22.776,8.224,23,8.5,23h7
		c0.276,0,0.5-0.224,0.5-0.5v-6c0-0.276,0.224-0.5,0.5-0.5h6c0.276,0,0.5-0.224,0.5-0.5v-7C23,8.224,22.776,8,22.5,8h-6
		C16.224,8,16,7.776,16,7.5v-6C16,1.224,15.776,1,15.5,1h-7C8.224,1,8,1.224,8,1.5v6C8,7.776,7.776,8,7.5,8H1.5z"/>
	<path d="M10.176,16.5c-0.652-0.018-1.228-0.387-1.51-0.963c-0.285-0.574-0.231-1.258,0.141-1.783l1.865-2.561
		c0.103-0.14,0.225-0.262,0.363-0.363c0.293-0.216,0.639-0.33,0.999-0.33c0.086,0,0.174,0.007,0.26,0.02
		c0.447,0.068,0.841,0.306,1.109,0.671l1.793,2.582c0.198,0.275,0.309,0.605,0.319,0.95c0.013,0.461-0.154,0.9-0.47,1.235
		c-0.316,0.335-0.744,0.528-1.206,0.542c-0.002,0-0.005,0-0.007,0H10.176z M12.036,11.5c-0.147,0-0.289,0.047-0.409,0.135
		c-0.057,0.042-0.106,0.091-0.148,0.148l-1.86,2.554c-0.156,0.22-0.178,0.511-0.056,0.757c0.119,0.243,0.359,0.398,0.627,0.405
		h3.634c0.182-0.006,0.36-0.086,0.493-0.228c0.133-0.141,0.203-0.326,0.198-0.52c-0.004-0.146-0.051-0.285-0.136-0.403l-1.787-2.574
		c-0.105-0.142-0.266-0.239-0.449-0.267C12.107,11.503,12.071,11.5,12.036,11.5z"/>
	<path d="M8,12.5c-0.827,0-1.5-0.673-1.5-1.5S7.173,9.5,8,9.5s1.5,0.673,1.5,1.5S8.827,12.5,8,12.5z M8,10.5
		c-0.276,0-0.5,0.224-0.5,0.5s0.224,0.5,0.5,0.5s0.5-0.224,0.5-0.5S8.276,10.5,8,10.5z"/>
	<path d="M11.984,10c-0.827,0-1.5-0.673-1.5-1.5s0.673-1.5,1.5-1.5c0.827,0,1.5,0.673,1.5,1.5S12.811,10,11.984,10z M11.984,8
		c-0.276,0-0.5,0.224-0.5,0.5s0.224,0.5,0.5,0.5c0.276,0,0.5-0.224,0.5-0.5S12.26,8,11.984,8z"/>
	<path d="M16,12.5c-0.827,0-1.5-0.673-1.5-1.5s0.673-1.5,1.5-1.5s1.5,0.673,1.5,1.5S16.827,12.5,16,12.5z M16,10.5
		c-0.276,0-0.5,0.224-0.5,0.5s0.224,0.5,0.5,0.5s0.5-0.224,0.5-0.5S16.276,10.5,16,10.5z"/>
</g>
</svg>
