<?xml version="1.0" encoding="utf-8"?>
<!-- Generator: Adobe Illustrator 22.1.0, SVG Export Plug-In . SVG Version: 6.00 Build 0)  -->
<svg version="1.1" id="Light" xmlns="http://www.w3.org/2000/svg" xmlns:xlink="http://www.w3.org/1999/xlink" x="0px" y="0px"
	 viewBox="0 0 24 24" style="enable-background:new 0 0 24 24;" xml:space="preserve">
<g>
	<title>pets-paw-bowl</title>
	<path d="M10.158,20.202c-0.646-0.017-1.224-0.386-1.506-0.963c-0.285-0.575-0.231-1.259,0.141-1.784l1.827-2.492
		c0.102-0.139,0.224-0.26,0.362-0.362c0.293-0.216,0.639-0.329,1.001-0.329c0.086,0,0.173,0.006,0.258,0.02
		c0.448,0.068,0.842,0.307,1.109,0.671c0.001,0.001,1.825,2.502,1.825,2.502c0.202,0.282,0.314,0.611,0.325,0.954
		c0.015,0.461-0.15,0.9-0.466,1.237c-0.316,0.337-0.743,0.531-1.204,0.545l-3.665,0C10.162,20.202,10.16,20.202,10.158,20.202z
		 M11.982,15.271c-0.147,0-0.289,0.047-0.409,0.135c-0.057,0.042-0.106,0.092-0.148,0.148l-1.821,2.485
		c-0.155,0.219-0.177,0.511-0.055,0.758c0.119,0.243,0.36,0.398,0.629,0.405h3.635c0.181-0.006,0.358-0.088,0.491-0.23
		c0.133-0.142,0.203-0.327,0.197-0.521c-0.005-0.145-0.052-0.283-0.136-0.401l-1.822-2.498c-0.109-0.148-0.271-0.246-0.453-0.274
		C12.054,15.273,12.018,15.271,11.982,15.271z"/>
	<path d="M8.233,15.84c-0.093,0-0.187-0.008-0.279-0.022c-0.461-0.074-0.865-0.324-1.137-0.702c-0.273-0.378-0.382-0.84-0.308-1.3
		c0.075-0.461,0.324-0.865,0.702-1.137c0.3-0.216,0.652-0.33,1.019-0.33c0.094,0,0.188,0.008,0.281,0.022
		c0.46,0.074,0.864,0.323,1.137,0.702s0.382,0.84,0.308,1.301C9.818,15.223,9.093,15.84,8.233,15.84z M8.23,13.348
		c-0.156,0-0.306,0.049-0.434,0.141c-0.162,0.117-0.268,0.289-0.3,0.486s0.015,0.394,0.131,0.556c0.116,0.162,0.289,0.268,0.486,0.3
		c0.041,0.007,0.081,0.01,0.12,0.01c0.361,0,0.677-0.27,0.735-0.627C9,14.016,8.953,13.819,8.837,13.657s-0.289-0.268-0.486-0.3
		C8.31,13.351,8.27,13.348,8.23,13.348z"/>
	<path d="M11.969,13.348c-0.963,0-1.746-0.783-1.746-1.746c0-0.963,0.783-1.746,1.746-1.746s1.746,0.783,1.746,1.746
		C13.715,12.564,12.932,13.348,11.969,13.348z M11.969,10.856c-0.411,0-0.746,0.335-0.746,0.746s0.335,0.746,0.746,0.746
		c0.411,0,0.746-0.335,0.746-0.746S12.381,10.856,11.969,10.856z"/>
	<path d="M15.738,15.839c-0.861,0-1.585-0.617-1.723-1.467c-0.154-0.95,0.495-1.849,1.445-2.002
		c0.094-0.015,0.189-0.023,0.283-0.023c0.366,0,0.718,0.114,1.018,0.33c0.378,0.273,0.627,0.677,0.702,1.138
		c0.075,0.46-0.035,0.922-0.307,1.3c-0.273,0.378-0.677,0.628-1.138,0.702C15.925,15.832,15.831,15.839,15.738,15.839z
		 M15.741,13.347c-0.04,0-0.081,0.003-0.121,0.01c-0.197,0.032-0.369,0.138-0.486,0.3s-0.164,0.359-0.132,0.556
		c0.058,0.357,0.373,0.627,0.733,0.627c0.04,0,0.08-0.003,0.121-0.01c0.198-0.032,0.371-0.139,0.487-0.3
		c0.116-0.162,0.163-0.359,0.131-0.555c-0.032-0.197-0.138-0.37-0.3-0.487C16.048,13.396,15.897,13.347,15.741,13.347z"/>
	<path d="M5.289,23.355c-1.343,0-2.605-0.593-3.463-1.626c-2.134-2.571-1.44-4.109,3.074-14.119L5.243,6.85L3.01,1.594
		C2.822,1.111,3.02,0.865,3.154,0.76c0.101-0.078,0.221-0.12,0.349-0.12c0.155,0,0.317,0.06,0.483,0.179l2.551,1.848l0.48-1.39
		c0.047-0.213,0.181-0.395,0.372-0.502c0.114-0.064,0.243-0.098,0.373-0.098c0.07,0,0.14,0.01,0.208,0.029
		c0.175,0.049,0.325,0.158,0.426,0.307l1.458,1.689l1.486-1.718c0.029-0.036,0.075-0.083,0.125-0.123
		c0.164-0.133,0.37-0.206,0.58-0.206c0.279,0,0.54,0.124,0.716,0.341l1.465,1.706l1.456-1.688c0.122-0.18,0.314-0.3,0.531-0.329
		c0.035-0.005,0.068-0.007,0.101-0.007c0.359,0,0.67,0.251,0.746,0.6l0.48,1.39l2.554-1.847c0.164-0.119,0.326-0.18,0.481-0.18
		c0.127,0,0.247,0.041,0.348,0.119c0.109,0.084,0.342,0.332,0.151,0.82l-2.238,5.272l0.387,0.884
		c4.247,9.693,5.012,11.44,2.892,13.993c-0.857,1.034-2.119,1.626-3.463,1.626H5.289z M5.812,8.021
		C1.351,17.914,0.918,19.068,2.596,21.09c0.667,0.804,1.649,1.265,2.693,1.265H18.65c1.044,0,2.026-0.461,2.693-1.265
		c1.67-2.011,1.254-3.154-3.038-12.952l-0.343-0.783H6.112L5.812,8.021z M17.958,6.356l1.689-3.979l-2.07,1.497
		c-0.086,0.062-0.187,0.095-0.293,0.095c-0.051,0-0.102-0.008-0.151-0.023c-0.15-0.047-0.27-0.165-0.321-0.313L16.22,1.918
		l-1.619,1.877c-0.095,0.11-0.233,0.173-0.378,0.173c-0.146,0-0.285-0.064-0.38-0.175l-1.8-2.097l-1.812,2.097
		c-0.095,0.11-0.233,0.173-0.378,0.173c-0.146,0-0.283-0.063-0.379-0.173l-1.62-1.877L7.262,3.631C7.21,3.78,7.09,3.897,6.94,3.944
		C6.891,3.96,6.841,3.968,6.789,3.968c-0.106,0-0.208-0.033-0.293-0.095L4.428,2.375L6.12,6.356H17.958z"/>
</g>
</svg>
