<?xml version="1.0" encoding="utf-8"?>
<!-- Generator: Adobe Illustrator 22.1.0, SVG Export Plug-In . SVG Version: 6.00 Build 0)  -->
<svg version="1.1" id="Light" xmlns="http://www.w3.org/2000/svg" xmlns:xlink="http://www.w3.org/1999/xlink" x="0px" y="0px"
	 viewBox="0 0 24 24" style="enable-background:new 0 0 24 24;" xml:space="preserve">
<g>
	<title>pets-certificate</title>
	<path d="M1.5,21.5C0.673,21.5,0,20.827,0,20V4c0-0.827,0.673-1.5,1.5-1.5h21C23.327,2.5,24,3.173,24,4v16
		c0,0.827-0.673,1.5-1.5,1.5H1.5z M22.5,20.5c0.276,0,0.5-0.224,0.5-0.5v-2.46c-1.526,0.22-2.74,1.434-2.96,2.96H22.5z M19.033,20.5
		c0.231-2.085,1.882-3.736,3.967-3.967V7.467c-2.085-0.231-3.736-1.882-3.967-3.967H4.967C4.736,5.585,3.085,7.236,1,7.467v9.066
		c2.085,0.231,3.736,1.882,3.967,3.967H19.033z M1,20c0,0.276,0.224,0.5,0.5,0.5h2.46C3.74,18.974,2.526,17.76,1,17.54V20z
		 M20.04,3.5c0.22,1.526,1.434,2.74,2.96,2.96V4c0-0.276-0.224-0.5-0.5-0.5H20.04z M1.5,3.5C1.224,3.5,1,3.724,1,4v2.46
		C2.526,6.24,3.74,5.026,3.96,3.5H1.5z"/>
	<path d="M10.359,15.5c-0.607-0.015-1.145-0.358-1.408-0.895c-0.265-0.534-0.216-1.17,0.13-1.658l1.648-2.244
		c0.095-0.13,0.21-0.244,0.34-0.34c0.271-0.199,0.593-0.304,0.929-0.304c0.502,0,0.977,0.241,1.272,0.644l1.647,2.249
		c0.189,0.263,0.293,0.571,0.303,0.892c0.026,0.886-0.673,1.628-1.558,1.655c-0.002,0-0.005,0-0.008,0H10.359z M11.998,11.06
		c-0.122,0-0.238,0.038-0.338,0.111c-0.048,0.035-0.09,0.077-0.125,0.125l-1.643,2.237c-0.128,0.182-0.146,0.425-0.044,0.631
		c0.099,0.203,0.3,0.332,0.524,0.337h3.275c0.323-0.01,0.584-0.29,0.573-0.625c-0.003-0.121-0.042-0.237-0.113-0.335l-1.644-2.245
		c-0.091-0.124-0.224-0.205-0.376-0.229C12.058,11.062,12.027,11.06,11.998,11.06z"/>
	<path d="M8.127,11.643c-0.985,0-1.786-0.801-1.786-1.786c0-0.985,0.801-1.786,1.786-1.786s1.786,0.801,1.786,1.786
		C9.913,10.842,9.112,11.643,8.127,11.643z M8.127,9.071c-0.433,0-0.786,0.353-0.786,0.786s0.353,0.786,0.786,0.786
		s0.786-0.353,0.786-0.786S8.56,9.071,8.127,9.071z"/>
	<path d="M11.984,9.072c-0.985,0-1.786-0.801-1.786-1.786S10.999,5.5,11.984,5.5c0.985,0,1.786,0.801,1.786,1.786
		S12.969,9.072,11.984,9.072z M11.984,6.5c-0.433,0-0.786,0.353-0.786,0.786s0.353,0.786,0.786,0.786
		c0.433,0,0.786-0.353,0.786-0.786S12.417,6.5,11.984,6.5z"/>
	<path d="M15.873,11.643c-0.985,0-1.786-0.801-1.786-1.786c0-0.985,0.801-1.786,1.786-1.786s1.786,0.801,1.786,1.786
		C17.659,10.842,16.858,11.643,15.873,11.643z M15.873,9.071c-0.434,0-0.786,0.353-0.786,0.786s0.353,0.786,0.786,0.786
		c0.433,0,0.786-0.353,0.786-0.786S16.306,9.071,15.873,9.071z"/>
	<path d="M8.5,17.5C8.224,17.5,8,17.276,8,17s0.224-0.5,0.5-0.5h7c0.276,0,0.5,0.224,0.5,0.5s-0.224,0.5-0.5,0.5H8.5z"/>
	<path d="M9.5,19.5C9.224,19.5,9,19.276,9,19s0.224-0.5,0.5-0.5h5c0.276,0,0.5,0.224,0.5,0.5s-0.224,0.5-0.5,0.5H9.5z"/>
</g>
</svg>
