<?xml version="1.0" encoding="utf-8"?>
<!-- Generator: Adobe Illustrator 22.1.0, SVG Export Plug-In . SVG Version: 6.00 Build 0)  -->
<svg version="1.1" id="Light" xmlns="http://www.w3.org/2000/svg" xmlns:xlink="http://www.w3.org/1999/xlink" x="0px" y="0px"
	 viewBox="0 0 24 24" style="enable-background:new 0 0 24 24;" xml:space="preserve">
<g>
	<title>pets-tick</title>
	<path d="M18.5,22.5c-0.251,0-0.465-0.188-0.496-0.438l-0.376-3.008c-0.074-0.592-0.261-1.155-0.558-1.674l-0.727-1.268
		C15.673,18.297,14.131,19.5,12,19.5c-2.131,0-3.672-1.202-4.343-3.386L6.934,17.38c-0.296,0.518-0.484,1.081-0.558,1.674
		l-0.38,3.009C5.965,22.312,5.751,22.5,5.5,22.5c-0.02,0-0.04-0.001-0.06-0.004c-0.135-0.017-0.253-0.084-0.335-0.19
		c-0.082-0.106-0.118-0.237-0.101-0.369l0.38-3.008c0.09-0.724,0.32-1.412,0.682-2.046l1.297-2.27
		c-0.048-0.478-0.056-0.972-0.026-1.474c-1.319,0.362-2.408,1.304-2.951,2.57l-0.427,0.988C3.88,16.882,3.7,17,3.5,17
		c-0.068,0-0.135-0.014-0.198-0.041c-0.123-0.053-0.218-0.151-0.267-0.275c-0.049-0.124-0.047-0.26,0.006-0.383l0.426-0.987
		c0.709-1.651,2.226-2.874,3.988-3.227c0.048-0.288,0.109-0.574,0.181-0.855l-0.161-0.06c-2.222-0.82-3.338-1.231-4.44-3.987
		c-0.05-0.124-0.048-0.26,0.005-0.383C3.093,6.68,3.19,6.585,3.314,6.536C3.374,6.512,3.436,6.5,3.5,6.5
		c0.206,0,0.388,0.123,0.465,0.314c0.937,2.343,1.673,2.614,3.857,3.42l0.114,0.042c0.152-0.413,0.329-0.802,0.526-1.162
		L7.667,7.943C7.656,7.926,7.644,7.907,7.634,7.887c-1.043-2.085-0.636-4.593,1.012-6.24C8.741,1.552,8.866,1.5,9,1.5
		s0.259,0.052,0.354,0.146c0.195,0.195,0.195,0.512,0,0.707c-1.334,1.334-1.671,3.364-0.84,5.056l0.539,0.795
		C9.366,7.8,9.708,7.459,10.075,7.19c0.095-0.292,0.173-0.557,0.242-0.793C10.641,5.295,10.874,4.5,12,4.5
		c1.126,0,1.359,0.795,1.683,1.896c0.07,0.237,0.148,0.502,0.242,0.794c0.367,0.27,0.709,0.61,1.022,1.015l0.539-0.795
		c0.831-1.692,0.495-3.722-0.84-5.056c-0.195-0.195-0.195-0.512,0-0.707C14.741,1.552,14.866,1.5,15,1.5s0.259,0.052,0.354,0.146
		c1.648,1.648,2.055,4.155,1.013,6.239c-0.009,0.019-0.021,0.038-0.033,0.057l-0.794,1.172c0.197,0.36,0.374,0.749,0.526,1.162
		l0.118-0.044c2.185-0.806,2.921-1.077,3.853-3.418C20.111,6.624,20.294,6.5,20.5,6.5c0.063,0,0.126,0.012,0.185,0.036
		c0.124,0.049,0.221,0.144,0.274,0.267c0.053,0.123,0.055,0.259,0.005,0.383c-1.096,2.754-2.212,3.166-4.436,3.986l-0.165,0.061
		c0.072,0.281,0.133,0.568,0.181,0.855c1.762,0.353,3.28,1.577,3.989,3.228l0.423,0.988c0.053,0.122,0.054,0.258,0.005,0.383
		c-0.05,0.124-0.145,0.221-0.267,0.274C20.633,16.986,20.566,17,20.497,17c-0.201,0-0.381-0.119-0.46-0.303l-0.423-0.987
		c-0.543-1.266-1.632-2.208-2.951-2.57c0.03,0.501,0.021,0.995-0.026,1.474l1.301,2.27c0.363,0.634,0.592,1.323,0.682,2.047
		l0.376,3.008c0.017,0.133-0.02,0.263-0.102,0.369c-0.082,0.105-0.2,0.173-0.333,0.189C18.54,22.499,18.519,22.5,18.5,22.5z
		 M8.373,12.668c-0.131,1.118-0.049,2.203,0.236,3.14C9.138,17.544,10.342,18.5,12,18.5s2.862-0.956,3.391-2.692
		c0.285-0.937,0.367-2.022,0.236-3.14c-0.022-0.066-0.03-0.131-0.025-0.195c-0.063-0.453-0.16-0.901-0.288-1.333
		c-0.006-0.011-0.014-0.027-0.021-0.046c-0.013-0.033-0.017-0.064-0.019-0.085c-0.192-0.608-0.44-1.165-0.738-1.653
		C14.18,8.775,13.781,8.323,13.342,8h-2.684c-0.439,0.323-0.837,0.774-1.185,1.342C9.47,9.347,9.457,9.367,9.454,9.372
		c-0.288,0.474-0.536,1.03-0.727,1.638c-0.002,0.022-0.007,0.053-0.02,0.088c-0.004,0.01-0.011,0.026-0.019,0.04
		c-0.129,0.432-0.226,0.881-0.289,1.334C8.404,12.535,8.396,12.6,8.373,12.668z M12.818,7c-0.034-0.112-0.065-0.22-0.095-0.322
		C12.396,5.566,12.334,5.5,12,5.5c-0.335,0-0.397,0.066-0.723,1.178C11.247,6.78,11.215,6.887,11.181,7H12.818z"/>
</g>
</svg>
