<?xml version="1.0" encoding="utf-8"?>
<!-- Generator: Adobe Illustrator 22.1.0, SVG Export Plug-In . SVG Version: 6.00 Build 0)  -->
<svg version="1.1" id="Light" xmlns="http://www.w3.org/2000/svg" xmlns:xlink="http://www.w3.org/1999/xlink" x="0px" y="0px"
	 viewBox="0 0 24 24" style="enable-background:new 0 0 24 24;" xml:space="preserve">
<g>
	<title>pets-paw-can</title>
	<path d="M10.179,19c-0.653-0.016-1.23-0.385-1.513-0.963c-0.285-0.574-0.231-1.258,0.141-1.783l1.865-2.561
		c0.103-0.14,0.225-0.262,0.363-0.364c0.292-0.215,0.638-0.328,1.001-0.328c0.538,0,1.049,0.258,1.367,0.69l1.796,2.582
		c0.197,0.275,0.308,0.604,0.319,0.95c0.027,0.952-0.725,1.749-1.676,1.777c-0.002,0-0.005,0-0.007,0H10.179z M12.036,14
		c-0.147,0-0.289,0.047-0.409,0.135c-0.057,0.042-0.106,0.092-0.148,0.148l-1.86,2.554c-0.156,0.22-0.178,0.511-0.056,0.757
		c0.119,0.244,0.36,0.399,0.629,0.405h3.635c0.389-0.011,0.703-0.347,0.691-0.748c-0.004-0.146-0.051-0.285-0.136-0.403
		l-1.791-2.574c-0.105-0.142-0.266-0.239-0.449-0.267C12.107,14.003,12.071,14,12.036,14z"/>
	<path d="M8,15c-0.827,0-1.5-0.673-1.5-1.5S7.173,12,8,12s1.5,0.673,1.5,1.5S8.827,15,8,15z M8,13c-0.276,0-0.5,0.224-0.5,0.5
		S7.724,14,8,14s0.5-0.224,0.5-0.5S8.276,13,8,13z"/>
	<path d="M11.984,12.5c-0.827,0-1.5-0.673-1.5-1.5s0.673-1.5,1.5-1.5c0.827,0,1.5,0.673,1.5,1.5S12.811,12.5,11.984,12.5z
		 M11.984,10.5c-0.276,0-0.5,0.224-0.5,0.5s0.224,0.5,0.5,0.5c0.276,0,0.5-0.224,0.5-0.5S12.26,10.5,11.984,10.5z"/>
	<path d="M16,15c-0.827,0-1.5-0.673-1.5-1.5S15.173,12,16,12s1.5,0.673,1.5,1.5S16.827,15,16,15z M16,13c-0.276,0-0.5,0.224-0.5,0.5
		S15.724,14,16,14s0.5-0.224,0.5-0.5S16.276,13,16,13z"/>
	<path d="M12,24c-5.252,0-8-1.509-8-3V3c0-1.491,2.748-3,8-3c5.252,0,8,1.509,8,3v18C20,22.491,17.252,24,12,24z M5,21
		c0,0.815,2.727,2,7,2c4.273,0,7-1.185,7-2v-0.487C17.647,21.451,15.098,22,12,22s-5.647-0.549-7-1.487V21z M5,19
		c0,0.815,2.727,2,7,2c4.273,0,7-1.185,7-2V6.513C17.647,7.451,15.098,8,12,8C8.902,8,6.353,7.451,5,6.513V19z M5,5
		c0,0.815,2.727,2,7,2c4.273,0,7-1.185,7-2V4.513C17.647,5.451,15.098,6,12,6C8.902,6,6.353,5.451,5,4.513V5z M12,1
		C7.727,1,5,2.185,5,3s2.727,2,7,2c4.273,0,7-1.185,7-2S16.273,1,12,1z"/>
</g>
</svg>
