<?xml version="1.0" encoding="utf-8"?>
<!-- Generator: Adobe Illustrator 22.1.0, SVG Export Plug-In . SVG Version: 6.00 Build 0)  -->
<svg version="1.1" id="Light" xmlns="http://www.w3.org/2000/svg" xmlns:xlink="http://www.w3.org/1999/xlink" x="0px" y="0px"
	 viewBox="0 0 24 24" style="enable-background:new 0 0 24 24;" xml:space="preserve">
<g>
	<title>pets-hair-roller</title>
	<path d="M2.651,23.844c-0.685,0-1.324-0.271-1.799-0.762c-0.941-0.974-0.941-2.5,0-3.473c0.015-0.016,0.032-0.031,0.05-0.045
		c6.221-4.893,6.269-5.514,6.413-7.356c0.022-0.28,0.046-0.579,0.087-0.911l-0.179-0.179c-0.189-0.189-0.293-0.44-0.293-0.707
		c0-0.267,0.104-0.519,0.293-0.707l9.192-9.192c0.189-0.189,0.44-0.293,0.707-0.293s0.519,0.104,0.707,0.293l0.036,0.036
		c0.406-0.268,0.887-0.413,1.378-0.413c0.668,0,1.295,0.259,1.766,0.73l2.121,2.121c0.848,0.848,0.969,2.164,0.318,3.145
		l0.037,0.037c0.189,0.189,0.292,0.44,0.292,0.707c0,0.267-0.104,0.519-0.292,0.707l-9.192,9.192
		c-0.188,0.189-0.44,0.292-0.707,0.292s-0.519-0.104-0.707-0.292l-0.18-0.18c-0.323,0.041-0.615,0.068-0.889,0.092
		c-1.931,0.172-2.514,0.223-7.378,6.406c-0.013,0.017-0.028,0.033-0.044,0.049C3.92,23.595,3.303,23.844,2.651,23.844z M1.55,20.326
		c-0.542,0.584-0.533,1.486,0.022,2.061c0.285,0.294,0.668,0.457,1.079,0.457c0.38,0,0.741-0.141,1.019-0.398
		c5.111-6.495,5.794-6.555,8.053-6.756c0.022-0.002,0.044-0.004,0.067-0.006l-3.472-3.472c-0.002,0.025-0.004,0.049-0.006,0.073
		C8.133,14.581,7.827,15.387,1.55,20.326z M7.93,10.41l5.657,5.657l9.192-9.192l-5.657-5.657l0-0.25l0,0.25l0,0L7.93,10.41z
		 M22.716,5.397c0.267-0.562,0.161-1.252-0.291-1.705l-2.121-2.121c-0.282-0.282-0.657-0.437-1.058-0.437
		c-0.228,0-0.447,0.05-0.647,0.145L22.716,5.397z"/>
</g>
</svg>
