<?xml version="1.0" encoding="utf-8"?>
<!-- Generator: Adobe Illustrator 22.1.0, SVG Export Plug-In . SVG Version: 6.00 Build 0)  -->
<svg version="1.1" id="Light" xmlns="http://www.w3.org/2000/svg" xmlns:xlink="http://www.w3.org/1999/xlink" x="0px" y="0px"
	 viewBox="0 0 24 24" style="enable-background:new 0 0 24 24;" xml:space="preserve">
<g>
	<title>dentistry-tooth-jaws</title>
	<path d="M12,24.001c-3.08,0-6.19-0.252-9.241-0.75C2.03,23.133,1.501,22.511,1.5,21.773V14.5C1.5,13.673,2.173,13,3,13h3
		c0.375,0,0.727,0.138,1,0.387C7.273,13.138,7.625,13,8,13h3c0.375,0,0.727,0.138,1,0.387C12.273,13.138,12.625,13,13,13h3
		c0.375,0,0.727,0.138,1,0.387C17.273,13.138,17.625,13,18,13h3c0.827,0,1.5,0.673,1.5,1.5v7.272
		c-0.001,0.739-0.53,1.361-1.259,1.48C18.19,23.749,15.08,24.001,12,24.001z M2.5,21.772c0,0.246,0.177,0.453,0.419,0.492
		c2.998,0.489,6.053,0.737,9.079,0.737c3.027,0,6.082-0.248,9.082-0.737c0.243-0.04,0.419-0.247,0.42-0.493v-1.925
		c-0.545,0.489-1.256,0.768-2,0.768c-1.011,0-1.949-0.517-2.5-1.348c-0.551,0.831-1.489,1.348-2.5,1.348s-1.949-0.517-2.5-1.348
		c-0.551,0.831-1.489,1.348-2.5,1.348S7.551,20.099,7,19.267c-0.551,0.831-1.489,1.348-2.5,1.348c-0.744,0-1.455-0.279-2-0.768
		V21.772z M18,14c-0.276,0-0.5,0.224-0.5,0.5v3.115c0,1.103,0.897,2,2,2s2-0.897,2-2V14.5c0-0.276-0.224-0.5-0.5-0.5H18z M13,14
		c-0.276,0-0.5,0.224-0.5,0.5v3.115c0,1.103,0.897,2,2,2s2-0.897,2-2V14.5c0-0.276-0.224-0.5-0.5-0.5H13z M8,14
		c-0.276,0-0.5,0.224-0.5,0.5v3.115c0,1.103,0.897,2,2,2s2-0.897,2-2V14.5c0-0.276-0.224-0.5-0.5-0.5H8z M3,14
		c-0.276,0-0.5,0.224-0.5,0.5v3.115c0,1.103,0.897,2,2,2s2-0.897,2-2V14.5C6.5,14.225,6.276,14,6,14H3z"/>
	<path d="M18,11c-0.375,0-0.727-0.138-1-0.387C16.727,10.862,16.375,11,16,11h-3c-0.375,0-0.727-0.138-1-0.387
		C11.727,10.862,11.375,11,11,11H8c-0.375,0-0.727-0.138-1-0.387C6.727,10.862,6.375,11,6,11H3c-0.827,0-1.5-0.673-1.5-1.5V2.228
		C1.501,1.49,2.03,0.867,2.758,0.749C5.81,0.251,8.92-0.001,12-0.001s6.19,0.252,9.241,0.75c0.728,0.119,1.258,0.741,1.259,1.479
		V9.5c0,0.827-0.673,1.5-1.5,1.5H18z M19.5,4.385c-1.103,0-2,0.897-2,2V9.5c0,0.276,0.224,0.5,0.5,0.5h3c0.276,0,0.5-0.224,0.5-0.5
		V6.385C21.5,5.282,20.603,4.385,19.5,4.385z M14.5,4.385c-1.103,0-2,0.897-2,2V9.5c0,0.276,0.224,0.5,0.5,0.5h3
		c0.276,0,0.5-0.224,0.5-0.5V6.385C16.5,5.282,15.603,4.385,14.5,4.385z M9.5,4.385c-1.103,0-2,0.897-2,2V9.5
		C7.5,9.776,7.724,10,8,10h3c0.276,0,0.5-0.224,0.5-0.5V6.385C11.5,5.282,10.603,4.385,9.5,4.385z M4.5,4.385c-1.103,0-2,0.897-2,2
		V9.5C2.5,9.776,2.724,10,3,10h3c0.276,0,0.5-0.224,0.5-0.5V6.385C6.5,5.282,5.603,4.385,4.5,4.385z M14.5,3.385
		c1.011,0,1.949,0.517,2.5,1.348c0.551-0.831,1.489-1.348,2.5-1.348c0.744,0,1.455,0.279,2,0.768V2.228
		c0-0.246-0.177-0.453-0.42-0.493C18.082,1.247,15.027,0.999,12,0.999S5.918,1.247,2.919,1.736C2.677,1.775,2.5,1.983,2.5,2.229
		v1.925c0.545-0.489,1.256-0.768,2-0.768c1.011,0,1.949,0.517,2.5,1.348c0.551-0.831,1.489-1.348,2.5-1.348s1.949,0.517,2.5,1.348
		C12.551,3.902,13.489,3.385,14.5,3.385z"/>
</g>
</svg>
