<?xml version="1.0" encoding="utf-8"?>
<!-- Generator: Adobe Illustrator 22.1.0, SVG Export Plug-In . SVG Version: 6.00 Build 0)  -->
<svg version="1.1" id="Light" xmlns="http://www.w3.org/2000/svg" xmlns:xlink="http://www.w3.org/1999/xlink" x="0px" y="0px"
	 viewBox="0 0 24 24" style="enable-background:new 0 0 24 24;" xml:space="preserve">
<g>
	<title>dentistry-tooth-brush</title>
	<path d="M14.445,24c-0.556-0.004-1.014-0.423-1.066-0.975c-0.2-1.882-1.223-3.304-2.379-3.304c-1.156,0-2.179,1.423-2.38,3.311
		C8.57,23.578,8.114,23.996,7.56,24c-0.505-0.005-0.937-0.364-1.03-0.853c-0.131-0.656-0.198-1.33-0.196-2.001
		c-0.009-1.142,0.185-2.265,0.575-3.338c-0.997-1.226-1.509-2.819-1.408-4.395c-0.001-1.036,0.323-2.018,0.911-2.751
		C7.015,9.913,7.83,9.5,8.709,9.5c0.86,0.003,1.696,0.367,2.291,0.984c0.595-0.617,1.431-0.981,2.289-0.984
		c1.801,0,3.211,1.732,3.211,3.944c0.1,1.551-0.412,3.137-1.409,4.363c0.39,1.074,0.584,2.198,0.575,3.344
		c0.002,0.668-0.064,1.342-0.197,2.001c-0.093,0.486-0.522,0.844-1.02,0.848c-0.001,0-0.002,0-0.002,0S14.446,24,14.445,24z
		 M11,18.721c1.696,0,3.115,1.769,3.374,4.205C14.379,22.971,14.409,23,14.449,23c0.013,0,0.035-0.016,0.04-0.041
		c0.12-0.598,0.18-1.206,0.178-1.811c0.009-1.123-0.198-2.217-0.612-3.255c-0.071-0.178-0.036-0.377,0.093-0.52
		c0.951-1.057,1.445-2.478,1.354-3.898c-0.001-1.648-0.992-2.976-2.21-2.976c-0.757,0.003-1.471,0.408-1.863,1.058
		C11.34,11.704,11.18,11.792,11,11.792s-0.34-0.087-0.428-0.234c-0.392-0.65-1.106-1.055-1.865-1.058
		c-1.217,0-2.207,1.321-2.207,2.944c-0.091,1.446,0.402,2.872,1.354,3.929c0.128,0.143,0.164,0.342,0.093,0.52
		c-0.415,1.038-0.621,2.132-0.612,3.25c-0.002,0.609,0.058,1.218,0.177,1.811C7.517,22.982,7.537,23,7.561,23
		c0.031,0,0.061-0.03,0.065-0.067C7.885,20.491,9.305,18.721,11,18.721z"/>
	<path d="M3,12c-0.191,0-0.362-0.106-0.447-0.277l-0.759-1.518L0.277,9.447C0.106,9.362,0,9.191,0,9s0.106-0.362,0.277-0.447
		l1.518-0.759l0.759-1.518C2.635,6.113,2.806,6.011,3,6.011s0.365,0.102,0.447,0.266l0.759,1.518l1.518,0.759
		C5.894,8.638,6,8.809,6,9S5.894,9.362,5.724,9.447l-1.518,0.759l-0.759,1.518C3.362,11.894,3.191,12,3,12z M2.391,9.386
		C2.487,9.434,2.567,9.513,2.615,9.61L3,10.381l0.386-0.772C3.434,9.513,3.514,9.434,3.61,9.386L4.382,9L3.61,8.614
		C3.514,8.566,3.434,8.487,3.386,8.39L3,7.619L2.615,8.391C2.567,8.487,2.487,8.566,2.391,8.614L1.619,9L2.391,9.386z"/>
	<path d="M20.5,21.5c-0.19,0-0.362-0.106-0.447-0.276l-0.926-1.851l-1.851-0.925C17.106,18.362,17,18.19,17,18
		s0.106-0.362,0.276-0.447l1.851-0.926l0.925-1.851c0.082-0.164,0.253-0.265,0.447-0.265s0.365,0.102,0.447,0.265l0.926,1.851
		l1.851,0.925C23.895,17.638,24,17.81,24,18s-0.106,0.362-0.276,0.447l-1.851,0.926l-0.925,1.851
		C20.862,21.394,20.691,21.5,20.5,21.5z M19.724,18.553c0.096,0.048,0.176,0.127,0.224,0.224l0.553,1.105l0.553-1.105
		c0.048-0.096,0.127-0.176,0.224-0.224L22.382,18l-1.105-0.553c-0.096-0.048-0.176-0.127-0.224-0.224L20.5,16.118l-0.553,1.105
		c-0.048,0.096-0.127,0.176-0.224,0.224L18.619,18L19.724,18.553z"/>
	<path d="M23.5,9.278c-0.075,0-0.148-0.016-0.216-0.049l-9.709-4.655l-1.3,2.711c-0.173,0.361-0.477,0.634-0.854,0.767
		c-0.162,0.057-0.33,0.086-0.499,0.086c-0.224,0-0.442-0.05-0.647-0.148l-4.29-2.057c-0.745-0.36-1.058-1.258-0.7-2.002l1.299-2.71
		L6.018,0.951c-0.12-0.058-0.211-0.159-0.255-0.285C5.718,0.54,5.726,0.404,5.784,0.284C5.866,0.111,6.043,0,6.235,0
		C6.31,0,6.382,0.016,6.451,0.049l17.266,8.278c0.12,0.058,0.211,0.159,0.255,0.285c0.044,0.126,0.037,0.262-0.021,0.382
		C23.869,9.167,23.692,9.278,23.5,9.278z M10.706,7.088c0.069,0.033,0.141,0.05,0.216,0.05c0.056,0,0.112-0.01,0.166-0.029
		c0.126-0.044,0.227-0.135,0.285-0.256l1.3-2.712L7.484,1.654l-1.299,2.71C6.066,4.613,6.17,4.912,6.418,5.032l0.68,0.326
		l0.759-1.582c0.083-0.172,0.26-0.284,0.451-0.284c0.075,0,0.148,0.016,0.216,0.049C8.772,3.66,8.878,3.96,8.758,4.208L8,5.79
		l1.129,0.542L9.888,4.75c0.083-0.172,0.26-0.284,0.451-0.284c0.075,0,0.148,0.017,0.216,0.049c0.248,0.119,0.354,0.418,0.234,0.667
		l-0.759,1.582L10.706,7.088z"/>
</g>
</svg>
