<?xml version="1.0" encoding="utf-8"?>
<!-- Generator: Adobe Illustrator 22.1.0, SVG Export Plug-In . SVG Version: 6.00 Build 0)  -->
<svg version="1.1" id="Light" xmlns="http://www.w3.org/2000/svg" xmlns:xlink="http://www.w3.org/1999/xlink" x="0px" y="0px"
	 viewBox="0 0 24 24" style="enable-background:new 0 0 24 24;" xml:space="preserve">
<g>
	<title>dentistry-tooth-shield-1</title>
	<path d="M15.276,24c-0.764-0.001-1.404-0.575-1.489-1.333c-0.37-3.396-2.321-5.956-4.538-5.956c-2.25,0-4.158,2.504-4.538,5.955
		C4.626,23.425,3.986,23.999,3.223,24c-0.687-0.001-1.287-0.489-1.427-1.159c-0.226-1.101-0.34-2.229-0.339-3.352
		c-0.014-1.973,0.34-3.905,1.052-5.743C0.844,11.949,0,9.467,0,6.366C0,2.856,2.35,0,5.238,0c1.573,0,3.017,0.678,4.011,1.87
		c0.993-1.192,2.437-1.87,4.01-1.87c1.097,0.009,2.157,0.407,2.986,1.121c0.209,0.18,0.233,0.496,0.053,0.705
		C16.202,1.937,16.064,2,15.919,2c-0.12,0-0.235-0.043-0.326-0.121c-0.65-0.56-1.48-0.872-2.338-0.879
		c-1.463,0.001-2.803,0.743-3.583,1.986C9.584,3.127,9.425,3.212,9.249,3.212S8.914,3.127,8.825,2.985C8.046,1.743,6.705,1,5.238,1
		C2.901,1,1,3.407,1,6.366c0,2.967,0.823,5.292,2.446,6.911c0.144,0.143,0.187,0.357,0.109,0.544
		c-0.743,1.806-1.112,3.712-1.098,5.664c-0.002,1.059,0.105,2.118,0.318,3.152C2.819,22.847,3.007,23,3.223,23
		c0.253,0,0.466-0.192,0.494-0.445c0.437-3.966,2.763-6.844,5.532-6.844c2.773,0,5.099,2.879,5.532,6.846
		C14.809,22.809,15.022,23,15.277,23c0.214,0,0.402-0.154,0.447-0.365c0.212-1.032,0.318-2.091,0.316-3.145
		c0-0.639-0.039-1.286-0.116-1.923c-0.016-0.132,0.02-0.263,0.102-0.369c0.083-0.105,0.201-0.172,0.333-0.188
		c0.018-0.002,0.042-0.004,0.065-0.004c0.25,0,0.461,0.189,0.492,0.44c0.083,0.676,0.124,1.364,0.124,2.044
		c0.002,1.122-0.111,2.249-0.337,3.349C16.562,23.511,15.962,23.999,15.276,24C15.277,24,15.276,24,15.276,24z"/>
	<path d="M17.498,12c-0.276,0-0.5-0.224-0.5-0.5V9h-2.5c-0.276,0-0.5-0.224-0.5-0.5s0.224-0.5,0.5-0.5h2.5V5.5
		c0-0.276,0.224-0.5,0.5-0.5s0.5,0.224,0.5,0.5V8h2.5c0.276,0,0.5,0.224,0.5,0.5S20.774,9,20.498,9h-2.5v2.5
		C17.998,11.776,17.774,12,17.498,12z"/>
	<path d="M17.48,16.001c-0.253,0-0.502-0.046-0.74-0.138l-0.551-0.209c-3.056-1.164-5.19-3.963-5.19-6.805V5.458
		c0-0.615,0.364-1.171,0.929-1.417C13.716,3.365,15.578,3.016,17.472,3c1.914,0.017,3.788,0.364,5.573,1.032
		c0.582,0.252,0.952,0.809,0.953,1.423v3.397c0,2.835-2.152,5.633-5.234,6.805l-0.553,0.21C17.976,15.956,17.73,16.001,17.48,16.001
		z M17.474,4c-1.771,0.015-3.511,0.341-5.171,0.968c-0.178,0.078-0.305,0.276-0.305,0.49v3.391c0,2.717,2.287,5.01,4.546,5.871
		l0.552,0.21c0.124,0.048,0.253,0.072,0.384,0.072c0.129,0,0.255-0.023,0.376-0.069l0.553-0.21c2.281-0.867,4.589-3.162,4.589-5.871
		V5.456c0-0.216-0.129-0.411-0.327-0.498C21.015,4.34,19.262,4.016,17.474,4z"/>
</g>
</svg>
