<?xml version="1.0" encoding="utf-8"?>
<!-- Generator: Adobe Illustrator 22.1.0, SVG Export Plug-In . SVG Version: 6.00 Build 0)  -->
<svg version="1.1" id="Light" xmlns="http://www.w3.org/2000/svg" xmlns:xlink="http://www.w3.org/1999/xlink" x="0px" y="0px"
	 viewBox="0 0 24 24" style="enable-background:new 0 0 24 24;" xml:space="preserve">
<g>
	<title>dentistry-tooth-hook</title>
	<path d="M3.502,23.997c-0.936,0-1.815-0.364-2.476-1.024c-1.364-1.365-1.364-3.586,0.001-4.95c0.094-0.094,0.22-0.146,0.354-0.146
		c0.134,0,0.259,0.052,0.354,0.146s0.146,0.22,0.146,0.354s-0.052,0.259-0.147,0.354c-0.471,0.471-0.731,1.099-0.731,1.767
		c0,0.669,0.259,1.297,0.73,1.768c0.471,0.472,1.099,0.731,1.768,0.731c0.668,0,1.296-0.26,1.767-0.73
		c0.806-0.806,0.965-2.055,0.387-3.037c-0.347-0.588-0.252-1.338,0.231-1.822l3.626-3.627l-0.708-0.708
		c-0.39-0.39-0.39-1.024,0-1.414L19.735,0.73c0.459-0.475,1.081-0.745,1.749-0.757l0.049,0c0.648,0,1.263,0.249,1.731,0.702
		c0.48,0.464,0.751,1.087,0.763,1.755c0.012,0.668-0.237,1.3-0.701,1.78c-0.022,0.022-10.984,10.984-10.984,10.984
		c-0.189,0.189-0.44,0.293-0.707,0.293c-0.267,0-0.518-0.104-0.707-0.293l-0.706-0.706l-3.626,3.627
		c-0.161,0.161-0.193,0.411-0.077,0.607c0.81,1.375,0.587,3.124-0.542,4.251C5.316,23.634,4.438,23.997,3.502,23.997z M9.513,12.366
		l2.121,2.121l1.414-1.415l-2.121-2.121L9.513,12.366z M13.756,12.365l8.854-8.854c0.275-0.285,0.424-0.664,0.417-1.065
		c-0.007-0.401-0.169-0.775-0.458-1.053c-0.281-0.272-0.651-0.421-1.041-0.421l-0.025,0c-0.402,0.007-0.776,0.17-1.054,0.458
		l-8.814,8.814L13.756,12.365z"/>
</g>
</svg>
