<?xml version="1.0" encoding="utf-8"?>
<!-- Generator: Adobe Illustrator 22.1.0, SVG Export Plug-In . SVG Version: 6.00 Build 0)  -->
<svg version="1.1" id="Light" xmlns="http://www.w3.org/2000/svg" xmlns:xlink="http://www.w3.org/1999/xlink" x="0px" y="0px"
	 viewBox="0 0 24 24" style="enable-background:new 0 0 24 24;" xml:space="preserve">
<g>
	<title>dentistry-tooth-check</title>
	<path d="M17.499,15c-3.584,0-6.5-2.916-6.5-6.5s2.916-6.5,6.5-6.5c3.584,0,6.5,2.916,6.5,6.5S21.083,15,17.499,15z M17.499,3
		c-3.033,0-5.5,2.467-5.5,5.5s2.467,5.5,5.5,5.5s5.5-2.467,5.5-5.5S20.531,3,17.499,3z"/>
	<path d="M16.67,11.429c-0.272,0-0.532-0.087-0.751-0.252c-0.046-0.035-0.089-0.072-0.13-0.113l-1.501-1.501
		c-0.094-0.094-0.146-0.22-0.146-0.354s0.052-0.259,0.146-0.354s0.22-0.146,0.354-0.146l0,0c0.134,0,0.259,0.052,0.354,0.146
		l1.5,1.5c0.007,0.007,0.016,0.015,0.025,0.022c0.044,0.033,0.096,0.051,0.15,0.051c0.012,0,0.024-0.001,0.036-0.003
		c0.067-0.009,0.126-0.044,0.166-0.098l2.899-3.872c0.094-0.126,0.244-0.2,0.401-0.2c0.109,0,0.212,0.034,0.3,0.1
		c0.221,0.165,0.266,0.479,0.101,0.7l-2.9,3.873c-0.202,0.268-0.495,0.441-0.826,0.488C16.788,11.425,16.729,11.429,16.67,11.429z"
		/>
	<path d="M15.276,24c-0.764-0.001-1.404-0.575-1.489-1.333c-0.37-3.396-2.321-5.956-4.538-5.956c-2.25,0-4.158,2.504-4.538,5.955
		C4.626,23.425,3.986,23.999,3.223,24c-0.687,0-1.287-0.488-1.427-1.16c-0.226-1.101-0.34-2.229-0.339-3.352
		c-0.014-1.973,0.34-3.905,1.052-5.743C0.844,11.949,0,9.467,0,6.366C0,2.856,2.349,0,5.237,0C6.81,0.001,8.254,0.678,9.248,1.87
		c0.993-1.192,2.437-1.87,4.01-1.87c0.673,0,1.349,0.156,1.954,0.45c0.248,0.121,0.351,0.42,0.231,0.668
		C15.359,1.29,15.183,1.4,14.993,1.4c-0.075,0-0.151-0.017-0.219-0.051C14.304,1.121,13.78,1,13.257,1
		c-1.466,0.001-2.807,0.743-3.586,1.986C9.583,3.127,9.424,3.212,9.248,3.212c-0.176,0-0.335-0.085-0.424-0.227
		C8.045,1.743,6.704,1.001,5.237,1C2.9,1,1,3.407,1,6.366c0,2.967,0.823,5.292,2.446,6.911c0.144,0.143,0.187,0.357,0.109,0.544
		c-0.743,1.806-1.112,3.711-1.098,5.664c-0.002,1.059,0.105,2.118,0.318,3.152C2.818,22.847,3.007,23,3.222,23
		c0.254,0,0.467-0.192,0.495-0.445c0.437-3.966,2.763-6.844,5.532-6.844c2.773,0,5.099,2.879,5.532,6.846
		C14.809,22.809,15.022,23,15.277,23c0.214,0,0.402-0.153,0.445-0.364c0.213-1.033,0.32-2.091,0.318-3.146
		c0-1.001-0.097-2.008-0.291-2.992c-0.053-0.271,0.124-0.534,0.395-0.587c0.032-0.006,0.064-0.01,0.097-0.01
		c0.238,0,0.444,0.17,0.49,0.404c0.206,1.048,0.31,2.119,0.309,3.183c0.002,1.122-0.112,2.25-0.338,3.35
		C16.562,23.511,15.963,23.999,15.276,24C15.276,24,15.276,24,15.276,24z"/>
</g>
</svg>
