<?xml version="1.0" encoding="utf-8"?>
<!-- Generator: Adobe Illustrator 22.1.0, SVG Export Plug-In . SVG Version: 6.00 Build 0)  -->
<svg version="1.1" id="Light" xmlns="http://www.w3.org/2000/svg" xmlns:xlink="http://www.w3.org/1999/xlink" x="0px" y="0px"
	 viewBox="0 0 24 24" style="enable-background:new 0 0 24 24;" xml:space="preserve">
<g>
	<title>dentistry-tooth-equipment</title>
	<path d="M16.959,24c-0.827,0-1.5-0.673-1.5-1.5V15c0-1.199,0.845-2.215,2-2.449V7.964c-1.981-0.248-3.5-1.946-3.5-3.964
		c0-2.206,1.794-4,4-4s4,1.794,4,4c0,2.018-1.519,3.716-3.5,3.964v4.587c1.155,0.234,2,1.25,2,2.449v7.5c0,0.827-0.673,1.5-1.5,1.5
		H16.959z M17.959,13.5c-0.827,0-1.5,0.673-1.5,1.5v7.5c0,0.276,0.224,0.5,0.5,0.5h2c0.276,0,0.5-0.224,0.5-0.5V15
		C19.459,14.173,18.787,13.5,17.959,13.5z M17.959,1c-1.654,0-3,1.346-3,3s1.346,3,3,3s3-1.346,3-3S19.614,1,17.959,1z"/>
	<path d="M4.959,24c-0.827,0-1.5-0.673-1.5-1.5V15c0-1.199,0.845-2.215,2-2.449V8c0-0.157-0.075-0.306-0.2-0.4l-2.62-1.966
		c-0.32-0.24-0.528-0.591-0.585-0.988C1.998,4.25,2.099,3.855,2.339,3.534c0.06-0.08,0.128-0.154,0.203-0.221l3.585-3.187
		C6.219,0.045,6.337,0,6.459,0c0.143,0,0.279,0.061,0.374,0.167c0.183,0.206,0.165,0.523-0.041,0.706L3.207,4.061
		C3.182,4.083,3.159,4.108,3.139,4.134c-0.08,0.106-0.113,0.238-0.094,0.37s0.088,0.249,0.195,0.329L5.86,6.8
		c0.376,0.282,0.6,0.73,0.6,1.2v4.551c1.155,0.234,2,1.25,2,2.449v7.5c0,0.827-0.673,1.5-1.5,1.5H4.959z M5.959,13.5
		c-0.827,0-1.5,0.673-1.5,1.5v7.5c0,0.276,0.224,0.5,0.5,0.5h2c0.276,0,0.5-0.224,0.5-0.5V15C7.459,14.173,6.787,13.5,5.959,13.5z"
		/>
</g>
</svg>
