<?xml version="1.0" encoding="utf-8"?>
<!-- Generator: Adobe Illustrator 22.1.0, SVG Export Plug-In . SVG Version: 6.00 Build 0)  -->
<svg version="1.1" id="Layer_1" xmlns="http://www.w3.org/2000/svg" xmlns:xlink="http://www.w3.org/1999/xlink" x="0px" y="0px"
	 viewBox="0 0 24 24" style="enable-background:new 0 0 24 24;" xml:space="preserve">
<g>
	<title>performance-phone-increase</title>
	<path d="M6.5,17.5c-0.099,0-0.194-0.029-0.277-0.084c-0.229-0.153-0.292-0.464-0.139-0.693l1.323-1.985
		c0.279-0.418,0.746-0.667,1.25-0.667c0.296,0,0.583,0.087,0.83,0.252c0.082,0.055,0.159,0.118,0.229,0.188l0.155,0.155
		c0.094,0.094,0.22,0.146,0.354,0.146c0.134,0,0.26-0.052,0.354-0.146c0.037-0.038,0.069-0.081,0.093-0.129l1.326-2.652
		c0.256-0.511,0.771-0.828,1.344-0.828c0.234,0,0.459,0.053,0.669,0.159c0.094,0.047,0.183,0.104,0.266,0.17l0.699,0.557
		c0.09,0.072,0.198,0.11,0.311,0.11c0.019,0,0.038-0.001,0.057-0.003c0.134-0.015,0.252-0.08,0.336-0.185l0.021-0.028L19.046,7
		h-2.042c-0.276,0-0.5-0.224-0.5-0.5s0.224-0.5,0.5-0.5h3c0.019,0,0.047,0.004,0.069,0.009c0.024,0.004,0.046,0.008,0.068,0.015
		c0.035,0.01,0.07,0.024,0.103,0.042c0.015,0.007,0.031,0.015,0.043,0.024c0.01,0.007,0.021,0.016,0.031,0.026
		c0.035,0.028,0.067,0.063,0.095,0.103c0.003,0.005,0.015,0.022,0.018,0.027c0.027,0.043,0.047,0.094,0.059,0.151
		c0.001,0.007,0.005,0.025,0.006,0.032c0.006,0.022,0.01,0.049,0.01,0.072v3c0,0.276-0.224,0.5-0.5,0.5s-0.5-0.224-0.5-0.5V8.096
		l-2.981,4.308c-0.019,0.028-0.04,0.056-0.061,0.082c-0.251,0.314-0.609,0.511-1.007,0.555c-0.056,0.006-0.112,0.009-0.167,0.009
		c-0.344,0-0.667-0.114-0.936-0.328l-0.699-0.558c-0.028-0.023-0.058-0.042-0.089-0.057c-0.07-0.035-0.145-0.053-0.223-0.053
		c-0.191,0-0.363,0.106-0.448,0.276l-1.327,2.653c-0.072,0.144-0.166,0.274-0.279,0.387c-0.283,0.284-0.66,0.44-1.062,0.44
		c-0.4,0-0.776-0.155-1.059-0.437l-0.156-0.156c-0.024-0.024-0.05-0.045-0.077-0.063C8.85,15.099,8.755,15.07,8.656,15.07
		c-0.168,0-0.324,0.083-0.417,0.222l-1.323,1.985C6.823,17.417,6.668,17.5,6.5,17.5z"/>
	<circle cx="10.5" cy="21.5" r="0.75"/>
	<path d="M6,24c-1.379,0-2.5-1.122-2.5-2.5v-19C3.5,1.121,4.621,0,6,0h9c1.378,0,2.5,1.121,2.5,2.5v1.957
		c0.002,0.015,0.004,0.031,0.004,0.043c0,0.276-0.224,0.5-0.5,0.5H4.5v14h12v-4.5c0-0.276,0.224-0.5,0.5-0.5s0.5,0.224,0.5,0.5
		v4.957c0.002,0.015,0.004,0.03,0.004,0.043c0,0.019-0.002,0.036-0.005,0.05L17.5,21.5c0,1.378-1.122,2.5-2.5,2.5H6z M4.5,21.5
		C4.5,22.327,5.173,23,6,23h9c0.827,0,1.5-0.673,1.5-1.5V20h-12V21.5z M16.5,4V2.5C16.5,1.673,15.827,1,15,1H6
		C5.173,1,4.5,1.673,4.5,2.5V4H16.5z"/>
	<path d="M9.004,3c-0.276,0-0.5-0.224-0.5-0.5S8.728,2,9.004,2h3c0.276,0,0.5,0.224,0.5,0.5S12.28,3,12.004,3H9.004z"/>
</g>
</svg>
