<?xml version="1.0" encoding="utf-8"?>
<!-- Generator: Adobe Illustrator 22.1.0, SVG Export Plug-In . SVG Version: 6.00 Build 0)  -->
<svg version="1.1" id="Layer_1" xmlns="http://www.w3.org/2000/svg" xmlns:xlink="http://www.w3.org/1999/xlink" x="0px" y="0px"
	 viewBox="0 0 24 24" style="enable-background:new 0 0 24 24;" xml:space="preserve">
<g>
	<title>performance-graph-calculator</title>
	<path d="M1.5,17C0.673,17,0,16.327,0,15.5v-14C0,0.673,0.673,0,1.5,0h19C21.327,0,22,0.673,22,1.5V9c0,0.276-0.224,0.5-0.5,0.5
		S21,9.276,21,9V1.5C21,1.224,20.776,1,20.5,1h-19C1.224,1,1,1.224,1,1.5v14C1,15.776,1.224,16,1.5,16h9c0.276,0,0.5,0.224,0.5,0.5
		S10.776,17,10.5,17H1.5z"/>
	<path d="M2.5,11.5c-0.134,0-0.26-0.052-0.354-0.147C2.052,11.258,2,11.133,2,10.999c0-0.134,0.053-0.259,0.147-0.353l1.8-1.793
		c0.282-0.282,0.659-0.438,1.06-0.438c0.401,0,0.778,0.156,1.061,0.439l0.086,0.086c0.094,0.094,0.22,0.146,0.354,0.146
		S6.766,9.034,6.86,8.939l4.086-4.086c0.283-0.283,0.66-0.439,1.06-0.439s0.778,0.156,1.061,0.439l1.027,1.029
		c0.094,0.094,0.22,0.146,0.353,0.146c0.134,0,0.259-0.052,0.354-0.146c0.009-0.009,0.018-0.019,0.027-0.029L16.414,4h-1.91
		c-0.276,0-0.5-0.224-0.5-0.5s0.224-0.5,0.5-0.5h3c0.043,0,0.077,0.009,0.093,0.014c0.022,0.003,0.046,0.008,0.07,0.017
		c0.043,0.015,0.085,0.037,0.126,0.066c0.011,0.007,0.022,0.015,0.031,0.023c0.006,0.005,0.013,0.011,0.019,0.018
		c0.097,0.083,0.161,0.22,0.161,0.363v3c0,0.276-0.224,0.5-0.5,0.5s-0.5-0.224-0.5-0.5V4.849l-1.417,1.656
		c-0.026,0.03-0.052,0.058-0.08,0.086c-0.283,0.283-0.66,0.438-1.06,0.438c-0.402,0-0.779-0.157-1.062-0.44L12.36,5.56
		c-0.094-0.094-0.219-0.146-0.353-0.146c-0.134,0-0.259,0.052-0.354,0.146L7.568,9.646c-0.283,0.283-0.659,0.439-1.06,0.439
		S5.729,9.929,5.446,9.646L5.36,9.561c-0.094-0.094-0.22-0.146-0.354-0.146S4.748,9.466,4.653,9.561l-1.801,1.794
		C2.759,11.448,2.633,11.5,2.5,11.5z"/>
	<circle cx="15.5" cy="18" r="0.75"/>
	<circle cx="15.5" cy="20.51" r="0.75"/>
	<circle cx="18" cy="17.99" r="0.75"/>
	<circle cx="20.5" cy="17.99" r="0.75"/>
	<circle cx="18" cy="20.5" r="0.75"/>
	<circle cx="20.5" cy="20.5" r="0.75"/>
	<path d="M20.968,15.999l-5.997,0.002c-0.515,0-0.95-0.423-0.971-0.943c-0.002-0.038-0.001-0.076,0.002-0.115L14,13
		c-0.017-0.224,0.068-0.474,0.235-0.667c0.17-0.196,0.405-0.313,0.663-0.331c0.024-0.002,0.046-0.002,0.069-0.002
		c0.022,0,0.043,0.001,0.065,0.002L21,12c0.003-0.001,0.024-0.002,0.045-0.002c0.226,0,0.447,0.085,0.624,0.24
		c0.195,0.169,0.312,0.405,0.33,0.663c0.003,0.045,0.003,0.088,0,0.133L22,14.992c0.029,0.512-0.376,0.97-0.901,1.007
		c-0.024,0.001-0.045,0.002-0.067,0.002C21.01,16.001,20.989,16,20.968,15.999z M15,14.982L14.999,15L21,15v-2l0.008-0.001
		c0,0-6.012,0.001-6.017,0.001L15,14.982z"/>
	<path d="M13.504,24c-0.827,0-1.5-0.673-1.5-1.5v-11c0-0.827,0.673-1.5,1.5-1.5h9c0.827,0,1.5,0.673,1.5,1.5v11
		c0,0.827-0.673,1.5-1.5,1.5H13.504z M13.504,11c-0.276,0-0.5,0.224-0.5,0.5v11c0,0.276,0.224,0.5,0.5,0.5h9
		c0.276,0,0.5-0.224,0.5-0.5v-11c0-0.276-0.224-0.5-0.5-0.5H13.504z"/>
</g>
</svg>
