<?xml version="1.0" encoding="utf-8"?>
<!-- Generator: Adobe Illustrator 22.1.0, SVG Export Plug-In . SVG Version: 6.00 Build 0)  -->
<svg version="1.1" id="Layer_1" xmlns="http://www.w3.org/2000/svg" xmlns:xlink="http://www.w3.org/1999/xlink" x="0px" y="0px"
	 viewBox="0 0 24 24" style="enable-background:new 0 0 24 24;" xml:space="preserve">
<g>
	<title>performance-money-decrease</title>
	<path d="M2.504,24c-0.551,0-1-0.448-1-1v-2c-0.551,0-1-0.448-1-1v-2c0-0.552,0.449-1,1-1v-2c-0.551,0-1-0.448-1-1v-2
		c0-0.551,0.449-1,1-1h8c0.551,0,1,0.449,1,1v2c0.551,0,1,0.448,1,1v2c0,0.552-0.449,1-1,1v2c0.551,0,1,0.448,1,1v2
		c0,0.552-0.449,1-1,1H2.504z M2.504,23h8v-2h-8L2.504,23z M1.504,20h8v-2h-8L1.504,20z M2.504,17h8v-2h-8L2.504,17z M1.504,14h8v-2
		h-8L1.504,14z"/>
	<path d="M13.504,24c-0.552,0-1-0.448-1-1v-2c0-0.552,0.448-1,1-1v-2c0-0.552,0.448-1,1-1h8c0.552,0,1,0.448,1,1v2
		c0,0.552-0.448,1-1,1v2c0,0.552-0.448,1-1,1H13.504z M13.504,23h8v-2h-8L13.504,23z M14.504,20h8v-2h-8L14.504,20z"/>
	<path d="M16.004,14c-0.276,0-0.5-0.224-0.5-0.5s0.224-0.5,0.5-0.5h5.836l-7.068-7.487c-0.093-0.099-0.226-0.155-0.364-0.155
		c-0.114,0-0.224,0.038-0.311,0.108l-3.582,2.866C10.25,8.544,9.917,8.661,9.579,8.661c-0.401,0-0.778-0.156-1.061-0.441
		L1.146,0.854c-0.195-0.195-0.195-0.512,0-0.707C1.241,0.052,1.366,0,1.5,0c0.133,0,0.259,0.052,0.353,0.146l7.371,7.367
		c0.095,0.095,0.22,0.147,0.354,0.147c0.115,0,0.223-0.038,0.312-0.11l3.582-2.866c0.263-0.21,0.595-0.325,0.935-0.325
		c0.414,0,0.812,0.17,1.093,0.468l7.004,7.419V7c0-0.276,0.224-0.5,0.5-0.5s0.5,0.224,0.5,0.5v6.5c0,0.209-0.127,0.392-0.324,0.466
		c-0.017,0.007-0.058,0.016-0.076,0.019C23.087,13.99,23.05,14,23.004,14H16.004z"/>
</g>
</svg>
