<?xml version="1.0" encoding="utf-8"?>
<!-- Generator: Adobe Illustrator 22.1.0, SVG Export Plug-In . SVG Version: 6.00 Build 0)  -->
<svg version="1.1" id="Layer_1" xmlns="http://www.w3.org/2000/svg" xmlns:xlink="http://www.w3.org/1999/xlink" x="0px" y="0px"
	 viewBox="0 0 24 24" style="enable-background:new 0 0 24 24;" xml:space="preserve">
<g>
	<title>performance-increase-mail</title>
	<path d="M2.754,8c-0.163,0-0.316-0.08-0.41-0.213C2.187,7.561,2.242,7.249,2.467,7.09l4.313-3.019C7.034,3.894,7.331,3.8,7.64,3.8
		c0.4,0,0.777,0.156,1.06,0.439l0.308,0.308c0.095,0.095,0.221,0.147,0.354,0.147c0.104,0,0.204-0.032,0.29-0.094l2.2-1.568
		c0.255-0.182,0.556-0.278,0.871-0.278c0.34,0,0.672,0.116,0.936,0.326l1.301,1.045c0.088,0.07,0.199,0.109,0.312,0.109
		c0.109,0,0.213-0.035,0.301-0.1L19.754,1h-1.5c-0.276,0-0.5-0.224-0.5-0.5s0.224-0.5,0.5-0.5h3c0.016,0,0.035,0.002,0.053,0.006
		c0.032,0.004,0.061,0.011,0.084,0.018c0.033,0.01,0.059,0.018,0.084,0.031c0.027,0.013,0.051,0.03,0.075,0.049
		c0.022,0.017,0.044,0.034,0.065,0.057c0.013,0.012,0.026,0.026,0.036,0.037c0.019,0.025,0.031,0.048,0.038,0.067
		c0.014,0.025,0.025,0.05,0.035,0.077c0.01,0.03,0.016,0.058,0.02,0.086c0.005,0.019,0.009,0.043,0.009,0.072v3
		c0,0.276-0.224,0.5-0.5,0.5s-0.5-0.224-0.5-0.5v-2l-4.581,3.435c-0.262,0.197-0.573,0.3-0.9,0.3c-0.339,0-0.672-0.117-0.938-0.329
		l-1.301-1.044c-0.087-0.069-0.198-0.108-0.311-0.108c-0.105,0-0.206,0.032-0.29,0.092l-2.201,1.569
		c-0.257,0.183-0.558,0.28-0.871,0.28c-0.4,0-0.776-0.156-1.06-0.441L7.994,4.947C7.899,4.852,7.774,4.8,7.64,4.8
		c-0.103,0-0.202,0.031-0.287,0.091L3.041,7.91C2.956,7.969,2.857,8,2.754,8z"/>
	<path d="M4.254,24c-0.827,0-1.5-0.673-1.5-1.5v-8.886c-0.029-0.136-0.001-0.276,0.077-0.387c0.009-0.013,0.024-0.03,0.039-0.044
		c0.023-0.031,0.06-0.066,0.101-0.095l7.99-5.493c0.21-0.176,0.498-0.281,0.793-0.281c0.289,0,0.573,0.101,0.799,0.284l2.201,1.467
		V9c0-0.551,0.448-1,1-1h2c0.552,0,1,0.449,1,1v2.75l1.8,1.35c0.015,0.011,0.032,0.028,0.047,0.045
		c0.015,0.012,0.04,0.034,0.062,0.067c0.01,0.014,0.021,0.035,0.029,0.054c0.009,0.017,0.016,0.035,0.024,0.055
		c0.015,0.038,0.025,0.076,0.03,0.115c0.005,0.021,0.008,0.045,0.008,0.064v9c0,0.827-0.673,1.5-1.5,1.5H4.254z M3.754,22.5
		c0,0.276,0.224,0.5,0.5,0.5h15c0.276,0,0.5-0.224,0.5-0.5v-8.035l-7.712,5.444C11.958,19.968,11.858,20,11.754,20
		c-0.104,0-0.203-0.031-0.287-0.091l-7.713-5.423V22.5z M11.754,18.888l1-0.706V12h-2l0,6.186L11.754,18.888z M9.754,17.482V12
		c0-0.551,0.449-1,1-1h2c0.552,0,1,0.449,1,1v5.476l1-0.706v-6.502l-2.777-1.852c-0.016-0.011-0.031-0.022-0.046-0.034
		c-0.051-0.044-0.113-0.067-0.177-0.067s-0.126,0.023-0.175,0.065c-0.013,0.011-0.027,0.021-0.041,0.031l-7.425,5.105l1.141,0.802
		V14c0-0.552,0.449-1,1-1h1.5c0.551,0,1,0.448,1,1v2.779L9.754,17.482z M7.754,16.076V14h-1.5l0,1.022L7.754,16.076z M15.754,16.064
		l2-1.412V9h-2L15.754,16.064z M18.754,13.947l0.65-0.459L18.754,13V13.947z"/>
</g>
</svg>
