<?xml version="1.0" encoding="utf-8"?>
<!-- Generator: Adobe Illustrator 22.1.0, SVG Export Plug-In . SVG Version: 6.00 Build 0)  -->
<svg version="1.1" id="Layer_1" xmlns="http://www.w3.org/2000/svg" xmlns:xlink="http://www.w3.org/1999/xlink" x="0px" y="0px"
	 viewBox="0 0 24 24" style="enable-background:new 0 0 24 24;" xml:space="preserve">
<g>
	<title>aircraft-military-plane-1</title>
	<path d="M12,18.25c-2.481,0-4.5-2.019-4.5-4.5H1c-0.276,0-0.5-0.224-0.5-0.5s0.224-0.5,0.5-0.5h6.616
		c0.053-0.232,0.123-0.459,0.211-0.675c0.001-0.006,0.007-0.02,0.013-0.035c0.619-1.51,2.04-2.575,3.66-2.757V6.25
		c0-0.276,0.224-0.5,0.5-0.5c0.276,0,0.5,0.224,0.5,0.5v3.033c1.618,0.182,3.04,1.246,3.663,2.763
		c0.004,0.006,0.011,0.027,0.018,0.048c0.083,0.205,0.152,0.427,0.204,0.656H23c0.276,0,0.5,0.224,0.5,0.5s-0.224,0.5-0.5,0.5h-6.5
		C16.5,16.231,14.481,18.25,12,18.25z M8.65,12.75c-0.099,0.329-0.15,0.665-0.15,1c0,1.93,1.57,3.5,3.5,3.5s3.5-1.57,3.5-3.5
		c0-0.336-0.05-0.671-0.15-1h-1.062c0.382,0.875,0.235,1.912-0.41,2.647c-0.44,0.502-1.05,0.802-1.716,0.846
		c-0.056,0.003-0.111,0.005-0.166,0.005c-0.605,0-1.189-0.22-1.646-0.621c-0.502-0.44-0.802-1.05-0.846-1.716
		c-0.026-0.404,0.043-0.799,0.203-1.162H8.65z M10.872,12.759c-0.265,0.302-0.396,0.688-0.37,1.088
		c0.026,0.4,0.206,0.765,0.507,1.03c0.274,0.24,0.625,0.372,0.99,0.372c0.032,0,0.065-0.001,0.097-0.003
		c0.399-0.026,0.765-0.206,1.029-0.507c0.502-0.573,0.491-1.427-0.011-1.988H10.88C10.877,12.753,10.875,12.756,10.872,12.759z
		 M13.356,11.751l1.514-0.001c-0.554-0.797-1.405-1.323-2.37-1.46v1.46h0.777c0.012-0.001,0.024-0.001,0.03-0.001
		C13.323,11.749,13.339,11.75,13.356,11.751z M11.5,11.75v-1.46c-0.952,0.139-1.816,0.674-2.368,1.46h1.53
		c-0.003,0,0.013-0.001,0.029-0.001c0.006,0,0.018,0.001,0.03,0.001H11.5z"/>
	<path d="M4,18.25c-1.379,0-2.5-1.122-2.5-2.5s1.121-2.5,2.5-2.5s2.5,1.122,2.5,2.5S5.379,18.25,4,18.25z M4,14.25
		c-0.827,0-1.5,0.673-1.5,1.5s0.673,1.5,1.5,1.5s1.5-0.673,1.5-1.5S4.827,14.25,4,14.25z"/>
	<path d="M20,18.25c-1.378,0-2.5-1.122-2.5-2.5s1.122-2.5,2.5-2.5s2.5,1.122,2.5,2.5S21.378,18.25,20,18.25z M20,14.25
		c-0.827,0-1.5,0.673-1.5,1.5s0.673,1.5,1.5,1.5s1.5-0.673,1.5-1.5S20.827,14.25,20,14.25z"/>
</g>
</svg>
