<?xml version="1.0" encoding="utf-8"?>
<!-- Generator: Adobe Illustrator 22.1.0, SVG Export Plug-In . SVG Version: 6.00 Build 0)  -->
<svg version="1.1" id="Layer_1" xmlns="http://www.w3.org/2000/svg" xmlns:xlink="http://www.w3.org/1999/xlink" x="0px" y="0px"
	 viewBox="0 0 24 24" style="enable-background:new 0 0 24 24;" xml:space="preserve">
<g>
	<title>aircraft-plane-water-1</title>
	<path d="M5.75,19.5c-1.659,0-3.102-1.181-3.43-2.807C2.307,16.63,2.3,16.562,2.3,16.494c0-0.552,0.449-1,1-1h3.09L7.055,13.5h-1.55
		c-0.32-0.003-0.621-0.157-0.806-0.414L0.846,7.787C0.462,7.277,0.249,6.638,0.25,5.993c0-0.275,0.224-0.5,0.5-0.5h2.5
		c0.939,0,1.836,0.449,2.4,1.2L7,8.5h1.044l3.404-3.356c0.587-0.576,1.326-0.951,2.139-1.086c0.052-0.018,0.107-0.027,0.162-0.027
		c0.006,0,0.012,0,0.019,0.001C13.948,4.01,14.102,4,14.25,4c1.069,0,2.073,0.416,2.829,1.172c0.631,0.631,1.031,1.45,1.14,2.328
		h2.031c0.333,0.001,0.66,0.115,0.922,0.319c0.224,0.175,0.388,0.406,0.481,0.676h1.597c0.276,0,0.5,0.224,0.5,0.5
		s-0.224,0.5-0.5,0.5h-1.592c-0.054,0.158-0.131,0.302-0.231,0.43c-0.011,0.014-0.023,0.028-0.036,0.041l-3.135,3.23
		c-0.187,0.193-0.448,0.304-0.716,0.304h-0.094l0.665,1.994h3.09c0.068,0,0.135,0.007,0.201,0.021
		c0.26,0.053,0.485,0.205,0.633,0.428c0.147,0.223,0.199,0.49,0.146,0.751c-0.328,1.625-1.771,2.806-3.43,2.806H5.75z M3.3,16.494
		C3.535,17.656,4.565,18.5,5.75,18.5h13c1.185,0,2.215-0.844,2.45-2.005l-3.426-0.001c-0.008,0.001-0.016,0.001-0.024,0.001
		s-0.016,0-0.024-0.001H6.774c-0.008,0.001-0.016,0.001-0.024,0.001c-0.008,0-0.016,0-0.024-0.001H3.3z M17.056,15.494L16.391,13.5
		H8.109l-0.665,1.994H17.056z M7.774,12.5h8.962l0.03-0.001c0.006,0,0.017,0,0.028,0.001h0.746l3.114-3.209
		c0.073-0.102,0.105-0.226,0.089-0.351c-0.016-0.133-0.083-0.251-0.188-0.333C20.467,8.538,20.359,8.5,20.248,8.5H13.75
		c-0.276,0-0.5-0.224-0.5-0.5V5.173c-0.412,0.145-0.788,0.378-1.1,0.684L8.601,9.356C8.507,9.449,8.382,9.5,8.25,9.5h-1.5
		c-0.157,0-0.307-0.075-0.401-0.201l-1.5-2.007c-0.375-0.5-0.974-0.799-1.6-0.799H1.314c0.065,0.253,0.179,0.491,0.336,0.7
		l3.859,5.306L7.707,12.5c0.011-0.001,0.022-0.001,0.028-0.001L7.774,12.5z M17.206,7.5c-0.103-0.612-0.393-1.18-0.834-1.621
		C15.805,5.312,15.052,5,14.25,5V4.75l0,2.75H17.206z"/>
	<path d="M22.75,12.995c-0.276,0-0.5-0.224-0.5-0.5v-2c0-0.276,0.224-0.5,0.5-0.5s0.5,0.224,0.5,0.5v2
		C23.25,12.771,23.026,12.995,22.75,12.995z"/>
	<path d="M22.75,7.995c-0.276,0-0.5-0.224-0.5-0.5v-2c0-0.276,0.224-0.5,0.5-0.5s0.5,0.224,0.5,0.5v2
		C23.25,7.771,23.026,7.995,22.75,7.995z"/>
	<path d="M8.75,11.5c-0.276,0-0.5-0.224-0.5-0.5s0.224-0.5,0.5-0.5h6.5c0.276,0,0.5,0.224,0.5,0.5s-0.224,0.5-0.5,0.5H8.75z"/>
	<path d="M0.75,22.5c-0.276,0-0.5-0.224-0.5-0.5s0.224-0.5,0.5-0.5h1.5c0.276,0,0.5,0.224,0.5,0.5s-0.224,0.5-0.5,0.5H0.75z"/>
	<path d="M4.75,22.5c-0.276,0-0.5-0.224-0.5-0.5s0.224-0.5,0.5-0.5h10c0.276,0,0.5,0.224,0.5,0.5s-0.224,0.5-0.5,0.5H4.75z"/>
	<path d="M5.25,2.5c-0.276,0-0.5-0.224-0.5-0.5s0.224-0.5,0.5-0.5h1.5c0.276,0,0.5,0.224,0.5,0.5s-0.224,0.5-0.5,0.5H5.25z"/>
	<path d="M8.75,2.5c-0.276,0-0.5-0.224-0.5-0.5s0.224-0.5,0.5-0.5h8.5c0.276,0,0.5,0.224,0.5,0.5s-0.224,0.5-0.5,0.5H8.75z"/>
</g>
</svg>
