<?xml version="1.0" encoding="utf-8"?>
<!-- Generator: Adobe Illustrator 22.1.0, SVG Export Plug-In . SVG Version: 6.00 Build 0)  -->
<svg version="1.1" id="Layer_1" xmlns="http://www.w3.org/2000/svg" xmlns:xlink="http://www.w3.org/1999/xlink" x="0px" y="0px"
	 viewBox="0 0 24 24" style="enable-background:new 0 0 24 24;" xml:space="preserve">
<g>
	<title>aircraft-plane-1</title>
	<path d="M8.779,12.5c-0.64,0-1.205-0.41-1.414-1H7.184c-2.718,0-6.878-1.55-6.905-3.464C0.16,7.194,0.507,6.341,1.172,5.806
		L0.317,3.526c-0.064-0.17-0.096-0.349-0.096-0.532C0.224,2.171,0.897,1.5,1.721,1.5h0.604c0.432,0,0.843,0.186,1.128,0.511
		l2.543,2.908C6.319,5.288,6.786,5.5,7.276,5.5h12.002c1.2,0,2.216,0.845,2.45,2h0.05c1.103,0,2,0.897,2,2s-0.897,2-2,2h-5.585
		c-0.209,0.59-0.774,1-1.414,1H8.779z M13.976,9.733c-0.037,0-0.074,0.005-0.111,0.01l-5.031,0.629
		c-0.316,0.04-0.554,0.31-0.554,0.628c0,0.276,0.224,0.5,0.5,0.5h6c0.27,0,0.491-0.216,0.5-0.485c0-0.005,0-0.027,0-0.033
		c-0.009-0.689-0.574-1.248-1.266-1.248L13.976,9.733z M21.778,10.5c0.552,0,1-0.449,1-1s-0.448-1-1-1h-2.499
		c-0.276,0-0.5-0.224-0.5-0.5s0.224-0.5,0.5-0.5h1.411c-0.208-0.586-0.772-1-1.412-1h-12c-0.781,0-1.521-0.336-2.034-0.923
		L2.701,2.67C2.606,2.562,2.469,2.5,2.325,2.5h-0.6c-0.278,0-0.503,0.224-0.504,0.498c0,0.061,0.01,0.12,0.032,0.177l0.994,2.65
		c0.087,0.232-0.011,0.497-0.23,0.615C1.483,6.729,1.184,7.326,1.274,7.926C1.277,7.951,1.279,7.975,1.279,8
		c0,0.964,3.224,2.5,5.905,2.5h0.174C7.55,9.9,8.07,9.46,8.709,9.38l5.023-0.628c0.078-0.01,0.16-0.019,0.237-0.019
		c0.02,0,0.061,0.002,0.062,0.002c0.589,0,1.157,0.236,1.584,0.663c0.307,0.306,0.514,0.684,0.607,1.102H21.778z"/>
	<path d="M6.279,9.5c-0.276,0-0.5-0.224-0.5-0.5V8c0-0.276,0.224-0.5,0.5-0.5s0.5,0.224,0.5,0.5v1C6.779,9.276,6.555,9.5,6.279,9.5z
		"/>
	<path d="M17.279,9.5c-0.276,0-0.5-0.224-0.5-0.5V8c0-0.276,0.224-0.5,0.5-0.5s0.5,0.224,0.5,0.5v1
		C17.779,9.276,17.555,9.5,17.279,9.5z"/>
	<path d="M9.279,22.5c-0.276,0-0.5-0.224-0.5-0.5c0-1.93,1.57-3.5,3.5-3.5c0.137,0.001,0.274,0.018,0.41,0.05
		c0.639-1.252,1.926-2.05,3.34-2.05c1.792,0,3.34,1.293,3.678,3.037c1.194,0.204,2.072,1.231,2.072,2.463c0,0.276-0.224,0.5-0.5,0.5
		H9.279z M20.693,21.5c-0.163-0.458-0.546-0.815-1.019-0.945c-0.091,0.12-0.234,0.195-0.395,0.195c-0.276,0-0.5-0.224-0.5-0.5
		c0-1.516-1.234-2.75-2.75-2.75s-2.75,1.234-2.75,2.75c0,0.276-0.224,0.5-0.5,0.5s-0.5-0.224-0.5-0.5
		c0-0.246,0.026-0.496,0.078-0.745c-0.027-0.003-0.053-0.004-0.08-0.005c-1.187,0-2.213,0.859-2.448,2H20.693z"/>
</g>
</svg>
