<?xml version="1.0" encoding="utf-8"?>
<!-- Generator: Adobe Illustrator 22.1.0, SVG Export Plug-In . SVG Version: 6.00 Build 0)  -->
<svg version="1.1" id="Layer_1" xmlns="http://www.w3.org/2000/svg" xmlns:xlink="http://www.w3.org/1999/xlink" x="0px" y="0px"
	 viewBox="0 0 24 24" style="enable-background:new 0 0 24 24;" xml:space="preserve">
<g>
	<title>aircraft-hot-air-balloon-1</title>
	<path d="M2.344,22.064c-0.827,0-1.5-0.673-1.5-1.5c0-0.15,0.022-0.298,0.066-0.441l1.504-4.885
		c-0.423-0.695-0.703-1.424-0.835-2.174H0.51c-0.276,0-0.5-0.224-0.5-0.5c0-0.276,0.224-0.5,0.5-0.5l0.98,0
		c0-1.098,0.309-2.162,0.919-3.166L0.908,4.004c-0.044-0.142-0.066-0.29-0.066-0.439c0-0.401,0.156-0.777,0.439-1.061
		c0.283-0.283,0.66-0.439,1.061-0.439h1.924c1.781,0,3.363,1.026,4.094,2.632c1.391-0.42,2.864-0.632,4.38-0.632
		c6.203,0,11.25,3.589,11.25,8c0,2.369-1.456,4.591-4,6.116v2.382c0,0.827-0.673,1.5-1.5,1.5h-4c-0.827,0-1.5-0.673-1.5-1.5v-0.5
		c-0.083,0.001-0.167,0.002-0.25,0.002c-1.513,0-2.982-0.212-4.37-0.629c-0.735,1.607-2.316,2.629-4.092,2.629H2.344z M1.866,20.417
		c-0.015,0.048-0.022,0.097-0.022,0.147c0,0.276,0.224,0.5,0.5,0.5h1.934c1.347,0,2.553-0.759,3.139-1.954
		c-1.764-0.674-3.226-1.656-4.268-2.864L1.866,20.417z M13.99,20.562c0,0.276,0.224,0.5,0.5,0.5h4c0.276,0,0.5-0.224,0.5-0.5v-1.847
		c-1.496,0.712-3.211,1.158-5,1.299V20.562z M2.595,13.064c0.721,3.441,5.01,6,10.145,6c5.652,0,10.25-3.14,10.25-7
		c0-3.86-4.598-7-10.25-7s-10.25,3.14-10.25,7l3.5,0c0.276,0,0.5,0.224,0.5,0.5c0,0.276-0.224,0.5-0.5,0.5H2.595z M2.342,3.064
		c-0.133,0-0.259,0.052-0.354,0.146c-0.094,0.094-0.146,0.22-0.146,0.354c0,0.05,0.007,0.099,0.022,0.147l1.281,4.176
		c1.04-1.208,2.5-2.19,4.262-2.865C6.821,3.825,5.615,3.064,4.266,3.064H2.342z"/>
</g>
</svg>
