<?xml version="1.0" encoding="utf-8"?>
<!-- Generator: Adobe Illustrator 22.1.0, SVG Export Plug-In . SVG Version: 6.00 Build 0)  -->
<svg version="1.1" id="Layer_1" xmlns="http://www.w3.org/2000/svg" xmlns:xlink="http://www.w3.org/1999/xlink" x="0px" y="0px"
	 viewBox="0 0 24 24" style="enable-background:new 0 0 24 24;" xml:space="preserve">
<g>
	<title>aircraft-plane-water</title>
	<path d="M18.5,18.5c-0.276,0-0.5-0.224-0.5-0.5s0.224-0.5,0.5-0.5c1.183,0,2.214-0.841,2.45-2H3.05c0.236,1.159,1.267,2,2.449,2
		C5.776,17.5,6,17.724,6,18s-0.224,0.5-0.5,0.5c-1.656,0-3.099-1.177-3.43-2.8c-0.053-0.262-0.002-0.529,0.146-0.751
		c0.147-0.223,0.372-0.375,0.634-0.428c0.063-0.013,0.131-0.021,0.2-0.021h3.09l0.667-2H5.255c-0.314,0-0.613-0.149-0.801-0.4
		L0.596,6.794C0.212,6.283,0,5.645,0,5c0-0.134,0.052-0.259,0.146-0.354S0.366,4.5,0.5,4.5H3c0.939,0,1.836,0.449,2.4,1.2l1.35,1.8
		h1.045L11.2,4.144c0.613-0.6,1.386-0.98,2.238-1.1c-0.001-0.001,0.024-0.007,0.057-0.008C13.684,3.012,13.845,3,14,3
		c2.021,0,3.721,1.519,3.969,3.5H20c0.337,0,0.669,0.115,0.933,0.325c0.221,0.176,0.383,0.406,0.476,0.675H23
		c0.276,0,0.5,0.224,0.5,0.5S23.276,8.5,23,8.5h-1.59c-0.054,0.159-0.133,0.304-0.235,0.433l-3.169,3.263
		c-0.186,0.192-0.447,0.303-0.715,0.303h-0.097l0.667,2h3.09c0.551,0,1,0.448,1,1c0,0.068-0.007,0.136-0.021,0.202
		C21.599,17.323,20.156,18.5,18.5,18.5z M16.806,14.5l-0.667-2H7.86l-0.667,2H16.806z M1.064,5.5C1.129,5.753,1.243,5.991,1.4,6.2
		l3.858,5.306L17.289,11.5l3.125-3.216c0.151-0.203,0.105-0.509-0.104-0.675C20.223,7.538,20.113,7.5,20,7.5h-6.5
		C13.224,7.5,13,7.276,13,7V4.174c-0.412,0.145-0.787,0.377-1.099,0.683l-3.55,3.499C8.256,8.449,8.132,8.5,8,8.5H6.5
		c-0.157,0-0.306-0.075-0.4-0.2l-1.5-2C4.224,5.799,3.626,5.5,3,5.5H1.064z M16.955,6.5C16.714,5.078,15.465,4,14,4v2.5H16.955z"/>
	<path d="M22.5,12c-0.276,0-0.5-0.224-0.5-0.5v-2C22,9.224,22.224,9,22.5,9S23,9.224,23,9.5v2C23,11.776,22.776,12,22.5,12z"/>
	<path d="M22.5,7C22.224,7,22,6.776,22,6.5v-2C22,4.224,22.224,4,22.5,4S23,4.224,23,4.5v2C23,6.776,22.776,7,22.5,7z"/>
	<path d="M8.5,10.5C8.224,10.5,8,10.276,8,10s0.224-0.5,0.5-0.5H15c0.276,0,0.5,0.224,0.5,0.5s-0.224,0.5-0.5,0.5H8.5z"/>
	<path d="M1.002,21c-0.131,0-0.261-0.054-0.355-0.149C0.552,20.756,0.5,20.631,0.5,20.499C0.501,20.224,0.725,20,1,20
		c0.002,0,0.005,0,0.007,0c0.747-0.002,1.425-0.379,1.82-1.009c0.04-0.067,0.094-0.125,0.159-0.165
		c0.042-0.027,0.081-0.038,0.105-0.045c0.016-0.007,0.045-0.016,0.062-0.02c0.032-0.007,0.059-0.007,0.077-0.007l0.032,0.25
		l-0.006-0.25c0.003,0,0.006,0,0.008,0c0.04,0,0.064,0.002,0.089,0.007c0.017,0.003,0.048,0.014,0.064,0.021
		c0.018,0.004,0.058,0.016,0.102,0.043c0.065,0.041,0.12,0.098,0.163,0.171c0.17,0.27,0.406,0.506,0.681,0.677
		c0.341,0.212,0.733,0.324,1.134,0.324c0.75,0,1.434-0.379,1.83-1.013c0.006-0.009,0.013-0.019,0.021-0.028
		c0.018-0.024,0.037-0.042,0.05-0.054c0.017-0.018,0.035-0.037,0.058-0.054c0.012-0.01,0.025-0.019,0.037-0.027
		c0.03-0.019,0.062-0.028,0.077-0.033c0.012-0.006,0.044-0.021,0.087-0.029c0.016-0.003,0.056-0.007,0.072-0.007l0.023,0.25
		l0.006-0.25c0.001,0,0.002,0,0.003,0c0.021,0,0.07,0.003,0.087,0.007c0.044,0.009,0.077,0.024,0.098,0.033c0,0,0,0,0,0
		c0.003,0,0.035,0.01,0.07,0.032c0.011,0.007,0.023,0.016,0.034,0.026c0.022,0.018,0.037,0.033,0.047,0.043
		c0.019,0.019,0.038,0.036,0.056,0.06c0.008,0.01,0.016,0.02,0.023,0.031c0.173,0.278,0.411,0.516,0.688,0.689
		c0.341,0.212,0.733,0.324,1.133,0.324c0.748,0,1.43-0.376,1.826-1.007c0.039-0.067,0.094-0.125,0.16-0.166
		c0.043-0.027,0.083-0.039,0.108-0.046c0.014-0.006,0.039-0.014,0.054-0.017c0.036-0.007,0.063-0.008,0.081-0.008l0.032,0.25
		l-0.006-0.25c0.003,0,0.006,0,0.008,0c0.041,0,0.065,0.002,0.089,0.007c0.017,0.003,0.049,0.014,0.064,0.021
		c0.019,0.005,0.059,0.017,0.103,0.044c0.064,0.04,0.119,0.097,0.162,0.169c0.17,0.271,0.407,0.508,0.682,0.679
		c0.341,0.212,0.733,0.325,1.134,0.325c0.75,0,1.434-0.379,1.829-1.013c0.009-0.014,0.021-0.029,0.033-0.042
		c0.015-0.018,0.026-0.029,0.034-0.037c0.018-0.019,0.037-0.039,0.062-0.058c0.01-0.008,0.02-0.016,0.031-0.022
		c0.036-0.022,0.067-0.031,0.081-0.035c0.01-0.005,0.044-0.021,0.087-0.03c0.016-0.003,0.057-0.007,0.074-0.007l0.023,0.25
		l0.006-0.25c0.001,0,0.002,0,0.003,0c0.021,0,0.07,0.003,0.087,0.007c0.042,0.008,0.074,0.023,0.094,0.032
		c0.021,0.006,0.055,0.021,0.074,0.033c0.009,0.005,0.02,0.013,0.032,0.023c0.018,0.013,0.037,0.033,0.048,0.045
		c0.019,0.018,0.039,0.037,0.058,0.062c0.008,0.01,0.016,0.02,0.022,0.03c0.173,0.278,0.411,0.516,0.688,0.688
		c0.341,0.212,0.733,0.325,1.134,0.325c0.75,0,1.435-0.379,1.83-1.013c0.003-0.005,0.007-0.01,0.01-0.015
		c0.041-0.063,0.092-0.113,0.152-0.15c0.077-0.048,0.168-0.074,0.26-0.074c0.158,0,0.306,0.075,0.401,0.202
		c0.009,0.01,0.018,0.021,0.024,0.031c0.397,0.64,1.08,1.021,1.83,1.021C23.776,20,24,20.224,24,20.5S23.776,21,23.5,21
		c-0.859,0-1.665-0.342-2.253-0.947c-0.591,0.604-1.397,0.945-2.255,0.945c-0.587,0-1.162-0.165-1.661-0.476
		c-0.211-0.132-0.407-0.289-0.583-0.47c-0.591,0.604-1.397,0.946-2.255,0.946c-0.587,0-1.162-0.165-1.661-0.476
		c-0.21-0.131-0.405-0.288-0.581-0.468c-0.59,0.603-1.396,0.944-2.253,0.944c-0.587,0-1.162-0.165-1.662-0.476
		c-0.211-0.132-0.407-0.289-0.583-0.47c-0.59,0.604-1.397,0.946-2.255,0.946c-0.587,0-1.162-0.165-1.662-0.476
		c-0.209-0.13-0.404-0.287-0.579-0.467C2.667,20.659,1.863,21,1.007,21H1.002z"/>
</g>
</svg>
