<?xml version="1.0" encoding="utf-8"?>
<!-- Generator: Adobe Illustrator 22.1.0, SVG Export Plug-In . SVG Version: 6.00 Build 0)  -->
<svg version="1.1" id="Layer_1" xmlns="http://www.w3.org/2000/svg" xmlns:xlink="http://www.w3.org/1999/xlink" x="0px" y="0px"
	 viewBox="0 0 24 24" style="enable-background:new 0 0 24 24;" xml:space="preserve">
<g>
	<title>aircraft-plane</title>
	<path d="M7.5,12c-0.515-0.023-0.947-0.335-1.125-0.794L6.23,10.769c-0.928-0.186-1.822-0.478-2.661-0.871
		C2.025,9.174,0.95,7.736,0.692,6.052L0.006,1.576c-0.022-0.144,0.02-0.291,0.115-0.401C0.216,1.063,0.354,1,0.5,1h4
		C4.776,1,5,1.224,5,1.5S4.776,2,4.5,2h-1l1.2,1.6C5.358,4.477,6.404,5,7.5,5h12c1.2,0,2.216,0.845,2.45,2H22c1.103,0,2,0.897,2,2
		s-0.897,2-2,2h-6.086c-0.209,0.59-0.774,1-1.414,1H7.5z M7.316,10.868C7.343,10.936,7.429,10.995,7.52,11l1.912,0L7.766,9H6.694
		L7.316,10.868z M14.5,11c0.276,0,0.5-0.224,0.5-0.5S14.776,10,14.5,10H9.901l0.833,1H14.5z M22,10c0.552,0,1-0.449,1-1
		s-0.448-1-1-1h-2.5C19.224,8,19,7.776,19,7.5S19.224,7,19.5,7h1.412C20.703,6.414,20.14,6,19.5,6h-12C6.091,6,4.745,5.327,3.9,4.2
		L2.25,2H1.083L1.68,5.9c0.207,1.354,1.072,2.51,2.312,3.092c0.588,0.275,1.214,0.498,1.866,0.665L5.526,8.658
		C5.475,8.506,5.501,8.338,5.595,8.208C5.688,8.078,5.839,8,6,8h2c0.149,0,0.289,0.066,0.384,0.18L9.068,9H14.5
		c0.64,0,1.205,0.41,1.414,1H22z"/>
	<path d="M16.5,8C16.224,8,16,7.776,16,7.5S16.224,7,16.5,7h1C17.776,7,18,7.224,18,7.5S17.776,8,17.5,8H16.5z"/>
	<path d="M13.5,8C13.224,8,13,7.776,13,7.5S13.224,7,13.5,7h1C14.776,7,15,7.224,15,7.5S14.776,8,14.5,8H13.5z"/>
	<path d="M10.5,8C10.224,8,10,7.776,10,7.5S10.224,7,10.5,7h1C11.776,7,12,7.224,12,7.5S11.776,8,11.5,8H10.5z"/>
	<path d="M9.5,23C9.224,23,9,22.776,9,22.5c0-1.93,1.57-3.5,3.5-3.5c0.14,0.008,0.275,0.02,0.418,0.037
		C13.559,17.793,14.847,17,16.25,17c1.792,0,3.34,1.293,3.678,3.037C21.122,20.241,22,21.268,22,22.5c0,0.276-0.224,0.5-0.5,0.5H9.5
		z M20.914,22c-0.163-0.458-0.546-0.815-1.019-0.945c-0.091,0.12-0.234,0.195-0.395,0.195c-0.276,0-0.5-0.224-0.5-0.5
		c0-1.516-1.234-2.75-2.75-2.75s-2.75,1.234-2.75,2.75c0,0.276-0.224,0.5-0.5,0.5s-0.5-0.224-0.5-0.5
		c0-0.247,0.026-0.496,0.077-0.744c-0.033-0.002-0.065-0.005-0.098-0.007c-1.178,0.004-2.195,0.862-2.428,2H20.914z"/>
</g>
</svg>
