<?xml version="1.0" encoding="utf-8"?>
<!-- Generator: Adobe Illustrator 22.1.0, SVG Export Plug-In . SVG Version: 6.00 Build 0)  -->
<svg version="1.1" id="Layer_1" xmlns="http://www.w3.org/2000/svg" xmlns:xlink="http://www.w3.org/1999/xlink" x="0px" y="0px"
	 viewBox="0 0 24 24" style="enable-background:new 0 0 24 24;" xml:space="preserve">
<g>
	<title>aircraft-chopper-2</title>
	<path d="M11.512,22.306c-0.827,0-1.5-0.673-1.5-1.5c0-0.276,0.224-0.5,0.5-0.5s0.5,0.224,0.5,0.5s0.224,0.5,0.5,0.5h1.16
		l1.234-3.036c-2.022-0.253-2.298-1.794-2.544-3.162c-0.275-1.534-0.536-2.982-3.026-3.293c-0.132-0.016-0.251-0.084-0.333-0.189
		c-0.082-0.105-0.118-0.236-0.101-0.369c0.031-0.25,0.243-0.438,0.494-0.438c0.022,0,0.045,0.002,0.067,0.005
		c3.217,0.402,3.602,2.544,3.884,4.108c0.257,1.432,0.427,2.379,2.162,2.379H21.5c0.827,0,1.5-0.673,1.5-1.5
		c0-0.379-0.03-0.764-0.09-1.149h-2.66c-1.846-0.001-3.532-1.158-4.196-2.881l-1.333-3.462H6.515c-0.276,0-0.5-0.224-0.5-0.5
		s0.224-0.5,0.5-0.5h6.494V2.323c0-0.276,0.224-0.5,0.5-0.5s0.5,0.224,0.5,0.5v4.995h1.498c4.683,0,8.492,3.81,8.493,8.492
		c0,1.378-1.122,2.5-2.5,2.5h-1.378l1.217,2.996H22.5c0.276,0,0.5-0.224,0.5-0.5s0.224-0.5,0.5-0.5s0.5,0.224,0.5,0.5
		c0,0.827-0.673,1.5-1.5,1.5H11.512z M20.26,21.306l-1.217-2.996h-4.073l-1.218,2.996H20.26z M16.987,11.42
		c0.516,1.339,1.828,2.24,3.263,2.241h2.435c-0.918-3.07-3.686-5.216-6.891-5.337L16.987,11.42z"/>
	<path d="M15.507,4.322c-0.276,0-0.5-0.224-0.5-0.5s0.224-0.5,0.5-0.5h4.996c0.276,0,0.5,0.224,0.5,0.5s-0.224,0.5-0.5,0.5H15.507z"
		/>
	<path d="M6.536,4.322c-0.276,0-0.5-0.224-0.5-0.5s0.224-0.5,0.5-0.5h4.954c0.276,0,0.5,0.224,0.5,0.5s-0.224,0.5-0.5,0.5H6.536z"/>
	<path d="M3.518,9.286c-0.276,0-0.5-0.224-0.5-0.5V6.819c0-0.276,0.224-0.5,0.5-0.5s0.5,0.224,0.5,0.5v1.967
		C4.018,9.062,3.794,9.286,3.518,9.286z"/>
	<path d="M3.518,13.282c-0.276,0-0.5-0.224-0.5-0.5v-1.967c0-0.276,0.224-0.5,0.5-0.5s0.5,0.224,0.5,0.5v1.967
		C4.018,13.058,3.794,13.282,3.518,13.282z"/>
	<path d="M0.5,10.316c-0.276,0-0.5-0.224-0.5-0.5s0.224-0.5,0.5-0.5h1.956c0.276,0,0.5,0.224,0.5,0.5s-0.224,0.5-0.5,0.5H0.5z"/>
	<path d="M4.537,10.316c-0.276,0-0.5-0.224-0.5-0.5s0.224-0.5,0.5-0.5h1.936c0.276,0,0.5,0.224,0.5,0.5s-0.224,0.5-0.5,0.5H4.537z"
		/>
</g>
</svg>
