<?xml version="1.0" encoding="utf-8"?>
<!-- Generator: Adobe Illustrator 22.1.0, SVG Export Plug-In . SVG Version: 6.00 Build 0)  -->
<svg version="1.1" id="Layer_1" xmlns="http://www.w3.org/2000/svg" xmlns:xlink="http://www.w3.org/1999/xlink" x="0px" y="0px"
	 viewBox="0 0 24 24" style="enable-background:new 0 0 24 24;" xml:space="preserve">
<g>
	<title>aircraft-water-plane</title>
	<path d="M4.5,19.75c-1.485,0-2.859-0.853-3.513-2.173l-0.329-0.656c-0.18-0.36-0.209-0.768-0.082-1.148s0.395-0.689,0.754-0.869
		c0.211-0.106,0.436-0.159,0.67-0.159c0.161,0,0.322,0.026,0.477,0.078c0.381,0.127,0.69,0.395,0.869,0.754l0.329,0.658
		C3.833,16.552,4.148,16.75,4.5,16.75h3c0.276,0,0.5,0.224,0.5,0.5s-0.224,0.5-0.5,0.5h-3c-0.736,0-1.395-0.411-1.72-1.071
		l-0.328-0.655c-0.06-0.121-0.163-0.21-0.291-0.252c-0.052-0.018-0.106-0.026-0.161-0.026c-0.078,0-0.153,0.018-0.224,0.053
		c-0.121,0.06-0.21,0.164-0.253,0.291c-0.043,0.127-0.033,0.264,0.027,0.384l0.33,0.657c0.487,0.984,1.51,1.619,2.606,1.619H19.5
		c1.108,0,2.131-0.635,2.617-1.617l0.332-0.66c0.123-0.246,0.022-0.547-0.225-0.671c-0.071-0.035-0.146-0.053-0.223-0.053
		c-0.054,0-0.107,0.009-0.159,0.026c-0.126,0.042-0.229,0.131-0.289,0.251l-0.329,0.658c-0.32,0.647-0.995,1.065-1.718,1.065H16.5
		c-0.276,0-0.5-0.224-0.5-0.5s0.224-0.5,0.5-0.5h3c0.351,0,0.674-0.2,0.828-0.511l0.33-0.66c0.256-0.512,0.771-0.83,1.344-0.83
		c0.234,0,0.458,0.053,0.668,0.158c0.358,0.179,0.625,0.487,0.752,0.867c0.127,0.38,0.099,0.787-0.08,1.145l-0.331,0.659
		c-0.653,1.318-2.027,2.171-3.5,2.171H4.5z"/>
	<path d="M10.5,13.25c-0.276,0-0.5-0.224-0.5-0.5s0.224-0.5,0.5-0.5h3c0.276,0,0.5,0.224,0.5,0.5s-0.224,0.5-0.5,0.5H10.5z"/>
	<path d="M12,18.25c-2.481,0-4.5-2.019-4.5-4.5c0-0.119,0.005-0.239,0.016-0.364l-1.74-1.74C5.521,11.715,5.261,11.75,5,11.75
		c-1.654,0-3-1.346-3-3s1.346-3,3-3s3,1.346,3,3c0,0.261-0.035,0.522-0.103,0.776l0.987,0.987C9.348,10.064,9.9,9.721,10.5,9.508
		V6.25h-2C8.224,6.25,8,6.026,8,5.75s0.224-0.5,0.5-0.5h2.086c0.209-0.59,0.774-1,1.414-1s1.205,0.41,1.414,1H15.5
		c0.276,0,0.5,0.224,0.5,0.5s-0.224,0.5-0.5,0.5h-2v3.258c0.599,0.213,1.151,0.556,1.616,1.005l0.987-0.987
		C16.034,9.272,16,9.012,16,8.75c0-1.654,1.346-3,3-3s3,1.346,3,3s-1.346,3-3,3c-0.261,0-0.522-0.035-0.776-0.103l-1.74,1.74
		c0.01,0.124,0.016,0.246,0.016,0.364C16.5,16.231,14.481,18.25,12,18.25z M12,10.25c-1.93,0-3.5,1.57-3.5,3.5s1.57,3.5,3.5,3.5
		c1.93,0,3.5-1.57,3.5-3.5S13.93,10.25,12,10.25z M7.77,12.227c0.119-0.332,0.277-0.647,0.471-0.942l-0.798-0.799
		c-0.195,0.273-0.433,0.512-0.707,0.707L7.77,12.227z M15.758,11.285c0.194,0.295,0.352,0.611,0.471,0.942l1.034-1.034
		c-0.273-0.195-0.512-0.434-0.707-0.707L15.758,11.285z M19,6.75c-1.103,0-2,0.897-2,2s0.897,2,2,2s2-0.897,2-2S20.103,6.75,19,6.75
		z M5,6.75c-1.103,0-2,0.897-2,2s0.897,2,2,2s2-0.897,2-2S6.102,6.75,5,6.75z M12,9.25c0.163,0,0.329,0.01,0.5,0.03V5.75
		c0-0.276-0.224-0.5-0.5-0.5s-0.5,0.224-0.5,0.5v3.53C11.671,9.26,11.836,9.25,12,9.25z"/>
	<circle cx="5" cy="8.75" r="0.75"/>
	<circle cx="19" cy="8.75" r="0.75"/>
</g>
</svg>
