<?xml version="1.0" encoding="utf-8"?>
<!-- Generator: Adobe Illustrator 22.1.0, SVG Export Plug-In . SVG Version: 6.00 Build 0)  -->
<svg version="1.1" id="Layer_1" xmlns="http://www.w3.org/2000/svg" xmlns:xlink="http://www.w3.org/1999/xlink" x="0px" y="0px"
	 viewBox="0 0 24 24" style="enable-background:new 0 0 24 24;" xml:space="preserve">
<g>
	<title>aircraft-military-plane</title>
	<path d="M17.504,23.831c-0.276,0-0.5-0.224-0.5-0.5v-1.499h-0.999v0.499c0,0.276-0.224,0.5-0.5,0.5s-0.5-0.224-0.5-0.5v-1.499
		h-1.249c-0.687,0-1.247,0.56-1.249,1.247c0,0.203-0.12,0.384-0.305,0.463c-0.017,0.007-0.042,0.014-0.063,0.018
		c-0.035,0.01-0.078,0.021-0.131,0.021c-0.049,0-0.087-0.011-0.108-0.016c-0.016-0.002-0.049-0.007-0.087-0.023
		s-0.065-0.037-0.08-0.048c-0.017-0.01-0.048-0.028-0.079-0.059c-0.015-0.015-0.039-0.049-0.05-0.066
		c-0.012-0.014-0.037-0.046-0.056-0.092c-0.009-0.021-0.019-0.064-0.022-0.086c-0.006-0.018-0.017-0.057-0.017-0.108
		c0-0.688-0.561-1.249-1.249-1.249H9.011v0.499c0,0.01-0.001,0.021-0.002,0.031l0,0.969c0,0.276-0.224,0.5-0.5,0.5
		s-0.5-0.224-0.5-0.5v-0.5H7.01v1.5c0,0.276-0.224,0.5-0.5,0.5s-0.5-0.224-0.5-0.5v-1.5H5.011v0.5c0,0.276-0.224,0.5-0.5,0.5
		s-0.5-0.224-0.5-0.5v-1.499H2.249c-0.02,0-0.041-0.001-0.061-0.004C0.92,20.68-0.022,19.603,0,18.323
		c0.001-0.592,0.236-1.154,0.66-1.576l7.871-7.918l0.484-5.278c0.003-0.032,0.009-0.066,0.019-0.099
		c0.06-0.2,0.138-0.404,0.242-0.637c0.006-0.072,0.026-0.138,0.06-0.198c0.023-0.04,0.051-0.076,0.084-0.108
		c0.472-0.911,1.186-1.668,2.067-2.193c0.151-0.094,0.332-0.146,0.519-0.146c0.189,0,0.372,0.052,0.53,0.151
		c0.877,0.52,1.592,1.277,2.065,2.19c0.023,0.024,0.048,0.054,0.07,0.091c0.032,0.055,0.052,0.116,0.059,0.183
		c0.11,0.242,0.191,0.452,0.254,0.66c0.01,0.033,0.016,0.065,0.019,0.098l0.479,5.28l7.867,7.924
		c0.421,0.423,0.652,0.985,0.651,1.582c0.022,1.272-0.92,2.347-2.191,2.496c-0.018,0.002-0.038,0.003-0.058,0.003h-1.746v0.502
		c0,0.012-0.001,0.025-0.003,0.039l0,0.96c0,0.276-0.224,0.5-0.5,0.5s-0.5-0.224-0.5-0.5v-0.499h-0.998v1.499
		C18.004,23.606,17.78,23.831,17.504,23.831z M19.005,20.832l0-0.453C19.002,20.361,19,20.343,19,20.33
		c0-0.022,0.003-0.042,0.006-0.057l-0.001-1.941c0-0.276-0.224-0.5-0.5-0.5h-0.501v1.001c0,0.276-0.224,0.5-0.5,0.5
		s-0.5-0.224-0.5-0.5v-1.001h-0.499c-0.276,0-0.5,0.224-0.5,0.5v2.5H19.005z M8.011,20.831v-0.469
		c-0.001-0.01-0.002-0.021-0.002-0.03c0-0.01,0.001-0.021,0.002-0.031l0-1.969c0-0.276-0.224-0.5-0.5-0.5H7.01v1.002
		c0,0.276-0.224,0.5-0.5,0.5s-0.5-0.224-0.5-0.5v-1.002H5.511c-0.276,0-0.5,0.224-0.5,0.5v2.5H8.011z M10.258,19.832
		c0.685,0,1.326,0.314,1.749,0.838c0.423-0.524,1.064-0.838,1.749-0.838h1.249v-1.5c0-0.827,0.673-1.5,1.5-1.5h2
		c0.827,0,1.5,0.673,1.5,1.5v1.498h1.715c0.744-0.1,1.293-0.739,1.28-1.491c0-0.338-0.127-0.651-0.361-0.885l-7.994-8.051
		c-0.081-0.082-0.132-0.191-0.143-0.307l-0.49-5.405c-0.015-0.047-0.031-0.094-0.048-0.142c-0.619,0.266-1.293,0.405-1.965,0.405
		c-0.672,0-1.337-0.135-1.948-0.393c-0.016,0.045-0.03,0.089-0.044,0.133L9.511,9.099C9.5,9.215,9.449,9.324,9.367,9.406l-8,8.047
		C1.131,17.689,1.001,18.001,1,18.333c-0.013,0.759,0.536,1.399,1.28,1.499h1.731v-1.501c0-0.827,0.673-1.5,1.5-1.5h2
		c0.827,0,1.5,0.673,1.5,1.5v1.501H10.258z M10.485,2.658c0.476,0.194,0.99,0.295,1.502,0.295c0.53,0,1.055-0.105,1.538-0.306
		c-0.38-0.603-0.897-1.109-1.509-1.471l-0.011-0.005C11.385,1.541,10.865,2.051,10.485,2.658z"/>
	<path d="M8.509,15.836c-0.276,0-0.5-0.224-0.5-0.5v-2.499c0-0.276,0.224-0.5,0.5-0.5s0.5,0.224,0.5,0.5v2.499
		C9.009,15.611,8.785,15.836,8.509,15.836z"/>
	<path d="M15.505,15.836c-0.276,0-0.5-0.224-0.5-0.5v-2.499c0-0.276,0.224-0.5,0.5-0.5s0.5,0.224,0.5,0.5v2.499
		C16.005,15.611,15.781,15.836,15.505,15.836z"/>
</g>
</svg>
