<?xml version="1.0" encoding="utf-8"?>
<!-- Generator: Adobe Illustrator 22.1.0, SVG Export Plug-In . SVG Version: 6.00 Build 0)  -->
<svg version="1.1" id="Light" xmlns="http://www.w3.org/2000/svg" xmlns:xlink="http://www.w3.org/1999/xlink" x="0px" y="0px"
	 viewBox="0 0 24 24" style="enable-background:new 0 0 24 24;" xml:space="preserve">
<g>
	<title>sky</title>
	<path d="M5.217,9.941c-1.862,0-3.377-1.515-3.377-3.377c0-1.683,1.261-3.113,2.907-3.344c0.175-1.357,1.099-2.506,2.403-2.961
		c0.389-0.136,0.792-0.205,1.199-0.205c0.546,0,1.076,0.122,1.574,0.362c0.758,0.365,1.36,0.977,1.713,1.734
		c0.206,0.014,0.405,0.055,0.598,0.122c0.587,0.203,1.06,0.622,1.332,1.18c0.212,0.436,0.282,0.927,0.203,1.4
		c0.675,0.538,1.074,1.357,1.077,2.223c0.003,0.763-0.291,1.481-0.828,2.022c-0.537,0.541-1.253,0.841-2.016,0.844
		c0,0-0.001,0-0.001,0H5.217z M8.348,1.054c-0.294,0-0.587,0.05-0.869,0.149C6.424,1.571,5.716,2.569,5.717,3.686
		c0,0.134-0.052,0.259-0.146,0.354C5.478,4.133,5.349,4.187,5.217,4.187c-1.311,0-2.377,1.066-2.377,2.377s1.066,2.377,2.377,2.377
		H12c0.494-0.002,0.959-0.197,1.308-0.548c0.349-0.352,0.54-0.818,0.538-1.314c-0.002-0.646-0.348-1.253-0.903-1.585
		c-0.202-0.121-0.293-0.37-0.216-0.592c0.115-0.334,0.094-0.694-0.061-1.012c-0.155-0.318-0.424-0.557-0.759-0.672
		c-0.14-0.048-0.284-0.073-0.429-0.073c-0.043,0-0.086,0.002-0.129,0.006c-0.008,0.001-0.038,0.002-0.047,0.002
		c-0.214,0-0.404-0.135-0.474-0.335c-0.232-0.663-0.708-1.196-1.34-1.501C9.127,1.142,8.743,1.054,8.348,1.054z"/>
	<path d="M0.5,23.941c-0.276,0-0.5-0.224-0.5-0.5s0.224-0.5,0.5-0.5H14v-3.644l-0.693,0.539c-0.086,0.068-0.196,0.106-0.307,0.106
		c-0.155,0-0.299-0.07-0.395-0.193c-0.082-0.106-0.118-0.237-0.102-0.369c0.016-0.133,0.084-0.25,0.189-0.333l4.5-3.5
		c0.087-0.068,0.197-0.105,0.307-0.105s0.22,0.037,0.307,0.105l4.5,3.5c0.105,0.082,0.173,0.2,0.189,0.333
		c0.017,0.133-0.02,0.264-0.102,0.369c-0.096,0.123-0.24,0.193-0.395,0.193c-0.111,0-0.22-0.038-0.307-0.106L21,19.297v3.644h2.5
		c0.276,0,0.5,0.224,0.5,0.5s-0.224,0.5-0.5,0.5H0.5z M20,22.941v-4.422l-2.5-1.945L15,18.519v4.422H20z"/>
	<path d="M8.5,13.941c-0.276,0-0.5-0.224-0.5-0.5v-1.293l-0.646,0.646C7.259,12.889,7.134,12.941,7,12.941s-0.259-0.052-0.354-0.146
		S6.5,12.574,6.5,12.441s0.052-0.259,0.146-0.354l1.5-1.5c0.094-0.095,0.22-0.147,0.354-0.147s0.259,0.052,0.354,0.147l1.5,1.5
		c0.094,0.094,0.146,0.22,0.146,0.354s-0.052,0.259-0.146,0.354s-0.22,0.146-0.354,0.146s-0.259-0.052-0.354-0.146L9,12.148v1.293
		C9,13.716,8.776,13.941,8.5,13.941z"/>
	<path d="M8.5,22.441c-0.066,0-0.13-0.013-0.192-0.039c-0.061-0.025-0.116-0.062-0.163-0.109l-1.499-1.499
		C6.552,20.7,6.5,20.574,6.5,20.441s0.052-0.259,0.146-0.354S6.866,19.941,7,19.941s0.259,0.052,0.354,0.146L8,20.734v-1.293
		c0-0.276,0.224-0.5,0.5-0.5s0.5,0.224,0.5,0.5v1.293l0.646-0.646c0.094-0.094,0.22-0.146,0.354-0.146s0.259,0.052,0.354,0.146
		s0.146,0.22,0.146,0.354s-0.052,0.259-0.146,0.354l-1.5,1.5c-0.046,0.046-0.101,0.083-0.163,0.109
		C8.63,22.428,8.566,22.441,8.5,22.441z"/>
	<path d="M8.5,17.941c-0.276,0-0.5-0.224-0.5-0.5v-2c0-0.276,0.224-0.5,0.5-0.5s0.5,0.224,0.5,0.5v2
		C9,17.716,8.776,17.941,8.5,17.941z"/>
</g>
</svg>
