<?xml version="1.0" encoding="utf-8"?>
<!-- Generator: Adobe Illustrator 22.1.0, SVG Export Plug-In . SVG Version: 6.00 Build 0)  -->
<svg version="1.1" id="Light" xmlns="http://www.w3.org/2000/svg" xmlns:xlink="http://www.w3.org/1999/xlink" x="0px" y="0px"
	 viewBox="0 0 24 24" style="enable-background:new 0 0 24 24;" xml:space="preserve">
<g>
	<title>visibility-100</title>
	<path d="M8.5,23C8.224,23,8,22.776,8,22.5S8.224,22,8.5,22h1v-4.75C9.5,17.112,9.388,17,9.25,17H8.5C8.224,17,8,16.776,8,16.5
		S8.224,16,8.5,16h0.75c0.689,0,1.25,0.561,1.25,1.25V22h1c0.276,0,0.5,0.224,0.5,0.5S11.776,23,11.5,23H8.5z"/>
	<path d="M16,23c-1.103,0-2-0.897-2-2v-3c0-1.103,0.897-2,2-2s2,0.897,2,2v3C18,22.103,17.103,23,16,23z M16,17
		c-0.552,0-1,0.448-1,1v3c0,0.552,0.448,1,1,1s1-0.448,1-1v-3C17,17.448,16.552,17,16,17z"/>
	<path d="M22,23c-1.103,0-2-0.897-2-2v-3c0-1.103,0.897-2,2-2s2,0.897,2,2v3C24,22.103,23.103,23,22,23z M22,17
		c-0.552,0-1,0.448-1,1v3c0,0.552,0.448,1,1,1s1-0.448,1-1v-3C23,17.448,22.552,17,22,17z"/>
	<path d="M6.5,14c-0.134,0-0.259-0.052-0.354-0.146l-6-6C0.052,7.759,0,7.634,0,7.5s0.052-0.259,0.146-0.354l6-6
		C6.241,1.052,6.366,1,6.5,1s0.259,0.052,0.354,0.146c0.195,0.195,0.195,0.512,0,0.707L6.239,2.468C6.89,3.111,8,4.629,8,7.5
		c0,2.872-1.11,4.389-1.761,5.032l0.615,0.615c0.195,0.195,0.195,0.512,0,0.707C6.759,13.948,6.634,14,6.5,14z M5.528,11.821
		C6.023,11.326,7,10.026,7,7.5c0-2.526-0.977-3.826-1.472-4.321L1.207,7.5L5.528,11.821z"/>
	<path d="M11,8c-0.276,0-0.5-0.224-0.5-0.5S10.724,7,11,7h1.5C12.776,7,13,7.224,13,7.5S12.776,8,12.5,8H11z"/>
	<path d="M14.5,8C14.224,8,14,7.776,14,7.5S14.224,7,14.5,7H16c0.276,0,0.5,0.224,0.5,0.5S16.276,8,16,8H14.5z"/>
	<path d="M18,8c-0.276,0-0.5-0.224-0.5-0.5S17.724,7,18,7h1.5C19.776,7,20,7.224,20,7.5S19.776,8,19.5,8H18z"/>
	<path d="M21.5,8C21.224,8,21,7.776,21,7.5S21.224,7,21.5,7H23c0.276,0,0.5,0.224,0.5,0.5S23.276,8,23,8H21.5z"/>
</g>
</svg>
