<?xml version="1.0" encoding="utf-8"?>
<!-- Generator: Adobe Illustrator 22.1.0, SVG Export Plug-In . SVG Version: 6.00 Build 0)  -->
<svg version="1.1" id="Light" xmlns="http://www.w3.org/2000/svg" xmlns:xlink="http://www.w3.org/1999/xlink" x="0px" y="0px"
	 viewBox="0 0 24 24" style="enable-background:new 0 0 24 24;" xml:space="preserve">
<g>
	<title>visibility-cloud-high</title>
	<path d="M3.728,17.498c-2.031-0.035-3.646-1.648-3.682-3.673c-0.033-1.888,1.36-3.503,3.208-3.767
		C3.429,8.53,4.457,7.235,5.922,6.723C6.353,6.573,6.8,6.496,7.251,6.496c0.605,0,1.191,0.135,1.743,0.401
		c0.851,0.41,1.525,1.1,1.912,1.954c0.238,0.013,0.478,0.059,0.701,0.137c1.188,0.411,1.899,1.65,1.676,2.871
		c0.76,0.593,1.212,1.505,1.216,2.474c0.004,0.842-0.321,1.635-0.914,2.232c-0.593,0.598-1.383,0.929-2.225,0.933
		c0,0-0.001,0-0.001,0H3.728z M7.25,7.497c-0.338,0-0.674,0.057-0.999,0.171c-1.212,0.423-2.025,1.57-2.024,2.853
		c0,0.271-0.22,0.496-0.491,0.5c-1.51,0.026-2.717,1.277-2.691,2.787c0.026,1.483,1.208,2.664,2.69,2.69h7.622
		c1.185-0.005,2.146-0.975,2.14-2.161c-0.003-0.748-0.403-1.451-1.045-1.836c-0.202-0.121-0.292-0.37-0.215-0.592
		c0.28-0.809-0.15-1.696-0.959-1.976c-0.163-0.057-0.335-0.085-0.511-0.085c-0.05,0-0.1,0.002-0.15,0.007
		c-0.016,0.002-0.033,0.003-0.05,0.003c-0.212,0-0.401-0.135-0.471-0.335C9.833,8.761,9.286,8.148,8.559,7.798
		C8.144,7.598,7.704,7.497,7.25,7.497z"/>
	<path d="M16,16.498c-0.276,0-0.5-0.224-0.5-0.5s0.224-0.5,0.5-0.5h6.5c0.276,0,0.5,0.224,0.5,0.5s-0.224,0.5-0.5,0.5H16z"/>
	<path d="M16,12.498c-0.276,0-0.5-0.224-0.5-0.5s0.224-0.5,0.5-0.5h7.5c0.276,0,0.5,0.224,0.5,0.5s-0.224,0.5-0.5,0.5H16z"/>
	<path d="M14,8.498c-0.276,0-0.5-0.224-0.5-0.5s0.224-0.5,0.5-0.5h7c0.276,0,0.5,0.224,0.5,0.5s-0.224,0.5-0.5,0.5H14z"/>
</g>
</svg>
