<?xml version="1.0" encoding="utf-8"?>
<!-- Generator: Adobe Illustrator 22.1.0, SVG Export Plug-In . SVG Version: 6.00 Build 0)  -->
<svg version="1.1" id="Light" xmlns="http://www.w3.org/2000/svg" xmlns:xlink="http://www.w3.org/1999/xlink" x="0px" y="0px"
	 viewBox="0 0 24 24" style="enable-background:new 0 0 24 24;" xml:space="preserve">
<g>
	<title>fitness-machine</title>
	<path d="M8.5,24C8.224,24,8,23.776,8,23.5S8.224,23,8.5,23h3v-5H9c-0.827,0-1.5-0.673-1.5-1.5S8.173,15,9,15h0.5V8.5
		C9.5,7.121,10.621,6,12,6c1.378,0,2.5,1.121,2.5,2.5V15H15c0.827,0,1.5,0.673,1.5,1.5S15.827,18,15,18h-2.5v5h3
		c0.276,0,0.5,0.224,0.5,0.5S15.776,24,15.5,24H8.5z M9,16c-0.276,0-0.5,0.224-0.5,0.5S8.724,17,9,17h6c0.276,0,0.5-0.224,0.5-0.5
		S15.276,16,15,16H9z M13.5,15V8.5C13.5,7.673,12.827,7,12,7s-1.5,0.673-1.5,1.5L13.5,15z"/>
	<path d="M19,15c-0.276,0-0.5-0.224-0.5-0.5V12c-0.552,0-1-0.449-1-1V8c0-0.551,0.448-1,1-1V5.5C18.5,3.019,16.481,1,14,1h-1.5v3.5
		C12.5,4.776,12.276,5,12,5c-0.276,0-0.5-0.224-0.5-0.5V1H10C7.519,1,5.5,3.019,5.5,5.5V7c0.551,0,1,0.449,1,1v3
		c0,0.551-0.449,1-1,1v2.5C5.5,14.776,5.276,15,5,15s-0.5-0.224-0.5-0.5V13h-2C2.224,13,2,12.776,2,12.5C2,12.224,2.224,12,2.5,12h2
		c-0.551,0-1-0.449-1-1V8c0-0.551,0.449-1,1-1V5.5C4.5,2.467,6.967,0,10,0h4c3.033,0,5.5,2.467,5.5,5.5V7c0.552,0,1,0.449,1,1v3
		c0,0.551-0.448,1-1,1h2c0.276,0,0.5,0.224,0.5,0.5c0,0.276-0.224,0.5-0.5,0.5h-2v1.5C19.5,14.776,19.276,15,19,15z M18.5,11h1V8h-1
		L18.5,11z M4.5,11h1V8h-1L4.5,11z"/>
</g>
</svg>
