<?xml version="1.0" encoding="utf-8"?>
<!-- Generator: Adobe Illustrator 22.1.0, SVG Export Plug-In . SVG Version: 6.00 Build 0)  -->
<svg version="1.1" id="Light" xmlns="http://www.w3.org/2000/svg" xmlns:xlink="http://www.w3.org/1999/xlink" x="0px" y="0px"
	 viewBox="0 0 24 24" style="enable-background:new 0 0 24 24;" xml:space="preserve">
<g>
	<title>fitness-heart-rate</title>
	<path d="M11.998,22.434c-0.135,0-0.266-0.055-0.359-0.152l-9.8-10.091c-1.921-1.884-2.395-4.772-1.175-7.181
		c1.093-2.122,3.257-3.438,5.648-3.438c1,0,2.001,0.243,2.894,0.704c0.568,0.293,1.087,0.669,1.543,1.117l1.249,1.139l1.263-1.152
		c1.182-1.164,2.767-1.808,4.455-1.808h0.027c1.694,0.013,3.281,0.685,4.469,1.892c0.449,0.456,0.825,0.976,1.118,1.544
		c1.221,2.412,0.746,5.302-1.181,7.193l-9.791,10.083C12.263,22.378,12.132,22.434,11.998,22.434z M11.998,21.216l9.369-9.648
		h-5.044l-1.422,3.203c-0.098,0.22-0.273,0.398-0.491,0.5c-0.134,0.062-0.275,0.094-0.421,0.094c-0.387,0-0.744-0.227-0.907-0.577
		l-2.66-5.7l-1.359,2.038C8.875,11.404,8.565,11.57,8.23,11.57h-5.6L11.998,21.216z M10.422,8.088c0.198,0,0.389,0.058,0.554,0.168
		c0.152,0.101,0.273,0.243,0.351,0.409l2.66,5.7l1.422-3.2c0.158-0.361,0.516-0.596,0.913-0.597h5.865
		c0.979-1.532,1.078-3.477,0.253-5.107c-0.245-0.476-0.562-0.913-0.94-1.297c-1-1.016-2.337-1.582-3.763-1.593l-0.043,0
		c-1.41,0-2.74,0.545-3.745,1.534l-1.614,1.472c-0.092,0.084-0.212,0.131-0.337,0.131s-0.245-0.046-0.337-0.131l-1.6-1.459
		C9.665,3.728,9.225,3.41,8.747,3.163C7.98,2.768,7.159,2.567,6.307,2.567c-0.551,0-1.101,0.086-1.633,0.257
		c-1.359,0.435-2.467,1.372-3.12,2.64C0.73,7.094,0.83,9.038,1.809,10.57h6.42l1.359-2.037C9.775,8.254,10.086,8.088,10.422,8.088z"
		/>
</g>
</svg>
