<?xml version="1.0" encoding="utf-8"?>
<!-- Generator: Adobe Illustrator 22.1.0, SVG Export Plug-In . SVG Version: 6.00 Build 0)  -->
<svg version="1.1" id="Light" xmlns="http://www.w3.org/2000/svg" xmlns:xlink="http://www.w3.org/1999/xlink" x="0px" y="0px"
	 viewBox="0 0 24 24" style="enable-background:new 0 0 24 24;" xml:space="preserve">
<g>
	<title>fitness-jumping-rope-3</title>
	<path d="M17,24c-3.033,0-5.5-2.467-5.5-5.5v-13C11.5,3.019,9.481,1,7,1S2.5,3.019,2.5,5.5V15H3c0.551,0,1,0.448,1,1v6
		c0,1.103-0.897,2-2,2s-2-0.897-2-2v-6c0-0.552,0.449-1,1-1h0.5V5.5C1.5,2.467,3.967,0,7,0s5.5,2.467,5.5,5.5v13
		c0,2.481,2.019,4.5,4.5,4.5s4.5-2.019,4.5-4.5V9H21c-0.552,0-1-0.449-1-1V2c0-1.103,0.897-2,2-2s2,0.897,2,2v6c0,0.551-0.448,1-1,1
		h-0.5v9.5C22.5,21.533,20.033,24,17,24z M1,22c0,0.552,0.449,1,1,1s1-0.448,1-1v-2H1V22z M3,19v-1H1v1H3z M3,17v-1H1l0,1H3z M21,8
		h2V7h-2V8z M23,6V5h-2v1H23z M23,4V2c0-0.551-0.448-1-1-1s-1,0.449-1,1v2H23z"/>
</g>
</svg>
