<?xml version="1.0" encoding="utf-8"?>
<!-- Generator: Adobe Illustrator 22.1.0, SVG Export Plug-In . SVG Version: 6.00 Build 0)  -->
<svg version="1.1" id="Light" xmlns="http://www.w3.org/2000/svg" xmlns:xlink="http://www.w3.org/1999/xlink" x="0px" y="0px"
	 viewBox="0 0 24 24" style="enable-background:new 0 0 24 24;" xml:space="preserve">
<g>
	<title>fitness-six-pack</title>
	<path d="M14,14.75c-0.798,0-1.532-0.376-2-1.003c-0.468,0.627-1.202,1.003-2,1.003H9c-0.276,0-0.5-0.224-0.5-0.5s0.224-0.5,0.5-0.5
		h1c0.827,0,1.5-0.673,1.5-1.5c0-0.276,0.224-0.5,0.5-0.5c0.276,0,0.5,0.224,0.5,0.5c0,0.827,0.673,1.5,1.5,1.5h1
		c0.276,0,0.5,0.224,0.5,0.5s-0.224,0.5-0.5,0.5H14z"/>
	<path d="M14,19.75c-0.798,0-1.532-0.376-2-1.003c-0.468,0.627-1.202,1.003-2,1.003H9c-0.276,0-0.5-0.224-0.5-0.5s0.224-0.5,0.5-0.5
		h1c0.827,0,1.5-0.673,1.5-1.5c0-0.276,0.224-0.5,0.5-0.5c0.276,0,0.5,0.224,0.5,0.5c0,0.827,0.673,1.5,1.5,1.5h1
		c0.276,0,0.5,0.224,0.5,0.5s-0.224,0.5-0.5,0.5H14z"/>
	<path d="M7,22.25c-0.276,0-0.5-0.224-0.5-0.5v-10c0-1.379,1.121-2.5,2.5-2.5c0.276,0,0.5,0.224,0.5,0.5s-0.224,0.5-0.5,0.5
		c-0.827,0-1.5,0.673-1.5,1.5v10C7.5,22.026,7.276,22.25,7,22.25z"/>
	<path d="M17,22.25c-0.276,0-0.5-0.224-0.5-0.5v-10c0-0.827-0.673-1.5-1.5-1.5c-0.276,0-0.5-0.224-0.5-0.5s0.224-0.5,0.5-0.5
		c1.378,0,2.5,1.121,2.5,2.5v10C17.5,22.026,17.276,22.25,17,22.25z"/>
	<path d="M20,22.25c-0.276,0-0.5-0.224-0.5-0.5v-8.5c0-0.099,0.029-0.195,0.084-0.277l2.328-3.492
		C22.297,8.904,22.5,8.232,22.5,7.539V6.25c0-0.276,0.224-0.5,0.5-0.5s0.5,0.224,0.5,0.5v1.289c0,0.892-0.261,1.755-0.756,2.497
		L20.5,13.401v8.349C20.5,22.026,20.276,22.25,20,22.25z"/>
	<path d="M4,22.25c-0.276,0-0.5-0.224-0.5-0.5v-8.349l-2.244-3.366C0.761,9.294,0.5,8.43,0.5,7.539V6.25c0-0.276,0.224-0.5,0.5-0.5
		s0.5,0.224,0.5,0.5v1.289c0,0.693,0.203,1.365,0.588,1.942l2.328,3.492C4.471,13.055,4.5,13.151,4.5,13.25v8.5
		C4.5,22.026,4.276,22.25,4,22.25z"/>
	<path d="M6,6.75c-2.738,0-5.5-1.391-5.5-4.5c0-0.276,0.224-0.5,0.5-0.5s0.5,0.224,0.5,0.5c0,2.418,2.26,3.5,4.5,3.5
		s4.5-1.082,4.5-3.5c0-0.276,0.224-0.5,0.5-0.5s0.5,0.224,0.5,0.5C11.5,5.359,8.738,6.75,6,6.75z"/>
	<path d="M18,6.75c-2.738,0-5.5-1.391-5.5-4.5c0-0.276,0.224-0.5,0.5-0.5s0.5,0.224,0.5,0.5c0,2.418,2.26,3.5,4.5,3.5
		s4.5-1.082,4.5-3.5c0-0.276,0.224-0.5,0.5-0.5s0.5,0.224,0.5,0.5C23.5,5.359,20.738,6.75,18,6.75z"/>
</g>
</svg>
