<?xml version="1.0" encoding="utf-8"?>
<!-- Generator: Adobe Illustrator 22.1.0, SVG Export Plug-In . SVG Version: 6.00 Build 0)  -->
<svg version="1.1" id="Light" xmlns="http://www.w3.org/2000/svg" xmlns:xlink="http://www.w3.org/1999/xlink" x="0px" y="0px"
	 viewBox="0 0 24 24" style="enable-background:new 0 0 24 24;" xml:space="preserve">
<g>
	<title>fitness-dumbells-sizes</title>
	<path d="M17,23.75c-0.827,0-1.5-0.673-1.5-1.5v-2.5h-3v3.5c0,0.276-0.224,0.5-0.5,0.5c-0.276,0-0.5-0.224-0.5-0.5v-3.5h-3v2.5
		c0,0.827-0.673,1.5-1.5,1.5H5c-0.827,0-1.5-0.673-1.5-1.5v-1.5H3c-0.827,0-1.5-0.673-1.5-1.5s0.673-1.5,1.5-1.5h0.5v-1.5
		c0-0.827,0.673-1.5,1.5-1.5h2c0.827,0,1.5,0.673,1.5,1.5v2.5h3v-8h-3v2c0,0.552-0.449,1-1,1h-2c-0.551,0-1-0.448-1-1v-1H4
		c-0.827,0-1.5-0.673-1.5-1.5s0.673-1.5,1.5-1.5h0.5v-1c0-0.551,0.449-1,1-1h2c0.551,0,1,0.449,1,1v2h3v-6h-3v1c0,0.551-0.449,1-1,1
		h-1c-0.551,0-1-0.449-1-1v-1h-1C4.224,3.75,4,3.526,4,3.25s0.224-0.5,0.5-0.5h1v-1c0-0.551,0.449-1,1-1h1c0.551,0,1,0.449,1,1v1h3
		v-2c0-0.276,0.224-0.5,0.5-0.5c0.276,0,0.5,0.224,0.5,0.5v2h3v-1c0-0.551,0.448-1,1-1h1c0.552,0,1,0.449,1,1v1h1
		c0.276,0,0.5,0.224,0.5,0.5s-0.224,0.5-0.5,0.5h-1v1c0,0.551-0.448,1-1,1h-1c-0.552,0-1-0.449-1-1v-1h-3v6h3v-2
		c0-0.551,0.448-1,1-1h2c0.552,0,1,0.449,1,1v1H20c0.827,0,1.5,0.673,1.5,1.5s-0.673,1.5-1.5,1.5h-0.5v1c0,0.552-0.448,1-1,1h-2
		c-0.552,0-1-0.448-1-1v-2h-3v8h3v-2.5c0-0.827,0.673-1.5,1.5-1.5h2c0.827,0,1.5,0.673,1.5,1.5v1.5H21c0.827,0,1.5,0.673,1.5,1.5
		s-0.673,1.5-1.5,1.5h-0.5v1.5c0,0.827-0.673,1.5-1.5,1.5H17z M17,15.75c-0.276,0-0.5,0.224-0.5,0.5v6c0,0.276,0.224,0.5,0.5,0.5h2
		c0.276,0,0.5-0.224,0.5-0.5v-6c0-0.276-0.224-0.5-0.5-0.5H17z M5,15.75c-0.276,0-0.5,0.224-0.5,0.5v6c0,0.276,0.224,0.5,0.5,0.5h2
		c0.276,0,0.5-0.224,0.5-0.5v-2.979c-0.001-0.007-0.001-0.014-0.001-0.021s0-0.014,0.001-0.021V16.25c0-0.276-0.224-0.5-0.5-0.5H5z
		 M21,19.75c0.276,0,0.5-0.224,0.5-0.5s-0.224-0.5-0.5-0.5h-0.5v1H21z M3,18.75c-0.276,0-0.5,0.224-0.5,0.5s0.224,0.5,0.5,0.5h0.5
		v-1H3z M16.5,12.75h2v-5h-2L16.5,12.75z M5.5,12.75h2v-5h-2L5.5,12.75z M20,10.75c0.276,0,0.5-0.224,0.5-0.5s-0.224-0.5-0.5-0.5
		h-0.5v1H20z M4,9.75c-0.276,0-0.5,0.224-0.5,0.5s0.224,0.5,0.5,0.5h0.5v-1H4z M16.5,4.75h1v-3h-1L16.5,4.75z M6.5,4.75h1v-3h-1
		L6.5,4.75z"/>
</g>
</svg>
