<?xml version="1.0" encoding="utf-8"?>
<!-- Generator: Adobe Illustrator 22.1.0, SVG Export Plug-In . SVG Version: 6.00 Build 0)  -->
<svg version="1.1" id="Light" xmlns="http://www.w3.org/2000/svg" xmlns:xlink="http://www.w3.org/1999/xlink" x="0px" y="0px"
	 viewBox="0 0 24 24" style="enable-background:new 0 0 24 24;" xml:space="preserve">
<g>
	<title>fitness-biceps</title>
	<path d="M12.696,21.269c-2.789,0-5.66-0.537-7.876-1.472c-2.465-1.041-3.836-2.464-3.863-4.007C0.71,14.312,1.82,9.948,2.939,5.868
		c0.22-0.701,0.569-1.327,1.041-1.87c0.66-0.803,1.644-1.267,2.695-1.267h1.866c0.758,0,1.47,0.294,2.005,0.829
		c0.536,0.535,0.831,1.247,0.832,2.004c0,0.318-0.052,0.631-0.156,0.931L11.147,6.71C10.72,7.943,9.653,8.83,8.362,9.024
		L7.413,9.167L7.075,12.38c0.78-0.423,1.766-0.66,2.786-0.66c0.291,0,0.583,0.02,0.867,0.059c0.864,0.119,1.596,0.406,2.144,0.838
		c0.243-0.941,0.743-1.786,1.463-2.465c0.968-0.913,2.231-1.416,3.558-1.416c0.052,0,0.105,0.001,0.158,0.002
		c2.862,0.083,5.124,2.48,5.04,5.343c-0.002,0.068-0.005,0.135-0.01,0.204c0.001,2.335-1.161,4.223-3.358,5.442
		C17.93,20.721,15.435,21.269,12.696,21.269z M6.675,3.731c-0.751,0-1.455,0.333-1.931,0.912C4.356,5.091,4.073,5.596,3.899,6.15
		c-1.475,5.377-2.132,8.574-1.951,9.497c0.006,0.032,0.009,0.064,0.009,0.096c0,2.549,5.773,4.526,10.74,4.526
		c2.658,0,4.937-0.494,6.589-1.428c1.856-1.05,2.797-2.594,2.797-4.59c0.005-0.086,0.008-0.142,0.009-0.198
		c0.033-1.119-0.373-2.184-1.143-3c-0.77-0.816-1.809-1.283-2.927-1.316c-0.041-0.001-0.081-0.002-0.122-0.002
		c-1.075,0-2.097,0.406-2.878,1.143c-0.815,0.769-1.281,1.809-1.314,2.929c-0.007,0.231-0.17,0.427-0.396,0.475
		c-0.035,0.007-0.069,0.011-0.104,0.011c-0.191,0-0.368-0.112-0.451-0.284c-0.307-0.64-1.096-1.092-2.165-1.24
		c-0.243-0.033-0.493-0.05-0.742-0.05c-1.249,0-2.433,0.429-3.016,1.093c-0.095,0.108-0.232,0.17-0.376,0.17
		c-0.069,0-0.136-0.014-0.2-0.042c-0.201-0.088-0.32-0.293-0.297-0.51l0.499-4.742C6.464,8.597,6.5,8.503,6.561,8.424l1.458-2.189
		C8.1,6.124,8.13,6.008,8.112,5.89c-0.018-0.117-0.08-0.219-0.175-0.289C7.86,5.545,7.771,5.515,7.678,5.515
		c-0.023,0-0.046,0.002-0.068,0.005C7.493,5.539,7.39,5.601,7.321,5.696L5.847,7.543c-0.095,0.12-0.238,0.188-0.391,0.188
		c-0.113,0-0.224-0.039-0.312-0.109C4.929,7.45,4.894,7.135,5.066,6.919l1.461-1.831c0.217-0.297,0.55-0.497,0.931-0.556
		c0.073-0.011,0.147-0.017,0.221-0.017c0.307,0,0.601,0.097,0.85,0.279C8.838,5.022,9.042,5.357,9.1,5.738
		c0.059,0.38-0.035,0.761-0.262,1.071L7.999,8.068l0.214-0.032c0.922-0.139,1.684-0.773,1.989-1.653l0.075-0.216
		c0.067-0.194,0.101-0.396,0.101-0.602c0-0.49-0.192-0.951-0.538-1.297C9.494,3.922,9.033,3.731,8.544,3.731H6.675z"/>
	<path d="M17.458,17.228c-0.064,0-0.128-0.013-0.19-0.039c-0.008-0.002-0.016-0.006-0.023-0.009l-2.01-1.005
		c-0.247-0.123-0.347-0.424-0.224-0.671c0.086-0.171,0.257-0.276,0.448-0.276c0.077,0,0.154,0.018,0.223,0.053l1.277,0.638v-2.191
		h-0.5c-0.276,0-0.5-0.224-0.5-0.5s0.224-0.5,0.5-0.5h0.5v-1c0-0.276,0.224-0.5,0.5-0.5s0.5,0.224,0.5,0.5v1h0.5
		c0.276,0,0.5,0.224,0.5,0.5s-0.224,0.5-0.5,0.5h-0.5v2.191l1.276-0.638c0.07-0.035,0.147-0.053,0.223-0.053
		c0.19,0,0.362,0.106,0.447,0.276c0.124,0.247,0.023,0.548-0.223,0.671l-2,1c-0.014,0.007-0.029,0.013-0.045,0.017
		C17.572,17.218,17.515,17.228,17.458,17.228z"/>
</g>
</svg>
