<?xml version="1.0" encoding="utf-8"?>
<!-- Generator: Adobe Illustrator 22.1.0, SVG Export Plug-In . SVG Version: 6.00 Build 0)  -->
<svg version="1.1" id="Light" xmlns="http://www.w3.org/2000/svg" xmlns:xlink="http://www.w3.org/1999/xlink" x="0px" y="0px"
	 viewBox="0 0 24 24" style="enable-background:new 0 0 24 24;" xml:space="preserve">
<g>
	<title>fitness-jumping-rope-1</title>
	<path d="M3,24c-1.103,0-2-0.897-2-2v-6c0-0.552,0.449-1,1-1h0.5v-0.5C2.5,13.122,3.621,12,5,12h2c0.276,0,0.5,0.224,0.5,0.5
		C7.5,12.776,7.276,13,7,13H5c-0.827,0-1.5,0.673-1.5,1.5V15H4c0.551,0,1,0.448,1,1v6C5,23.103,4.103,24,3,24z M2,22
		c0,0.552,0.449,1,1,1s1-0.448,1-1v-2H2V22z M4,19v-1H2v1H4z M4,17v-1H2l0,1H4z"/>
	<path d="M21,24c-1.103,0-2-0.897-2-2v-6c0-0.552,0.448-1,1-1h0.5v-0.5c0-0.827-0.673-1.5-1.5-1.5h-7c-3.584,0-6.5-2.916-6.5-6.5
		c0-1.736,0.676-3.369,1.904-4.596S10.263,0,11.999,0c1.736,0,3.369,0.676,4.596,1.904C17.823,3.131,18.5,4.763,18.5,6.5
		c0,1.575-0.571,3.094-1.607,4.279c-0.096,0.109-0.233,0.171-0.377,0.171c-0.121,0-0.238-0.044-0.329-0.123
		c-0.208-0.182-0.229-0.498-0.047-0.706C17.017,9.118,17.5,7.832,17.5,6.5c0-1.469-0.572-2.85-1.611-3.889
		C14.85,1.572,13.469,1,12,1C10.53,1,9.149,1.572,8.11,2.611C7.072,3.65,6.5,5.031,6.5,6.5c0,1.469,0.572,2.85,1.611,3.889
		C9.15,11.428,10.531,12,12,12h7c1.378,0,2.5,1.122,2.5,2.5V15H22c0.552,0,1,0.448,1,1v6C23,23.103,22.103,24,21,24z M20,22
		c0,0.552,0.448,1,1,1s1-0.448,1-1v-2h-2V22z M22,19v-1h-2v1H22z M22,17v-1h-2l0,1H22z"/>
	<path d="M12,11c-2.481,0-4.5-2.019-4.5-4.5S9.519,2,12,2c2.481,0,4.5,2.019,4.5,4.5S14.481,11,12,11z M12,3
		c-1.93,0-3.5,1.57-3.5,3.5S10.07,10,12,10s3.5-1.57,3.5-3.5S13.93,3,12,3z"/>
	<path d="M12,7.25c-0.414,0-0.75-0.336-0.75-0.75S11.586,5.75,12,5.75c0.014,0,0.028,0,0.042,0.001l1.105-1.105
		C13.241,4.552,13.366,4.5,13.5,4.5s0.259,0.052,0.354,0.146S14,4.866,14,5s-0.052,0.259-0.146,0.354l-1.105,1.105
		C12.75,6.472,12.75,6.486,12.75,6.5C12.75,6.914,12.414,7.25,12,7.25z"/>
</g>
</svg>
