<?xml version="1.0" encoding="utf-8"?>
<!-- Generator: Adobe Illustrator 22.1.0, SVG Export Plug-In . SVG Version: 6.00 Build 0)  -->
<svg version="1.1" id="Light" xmlns="http://www.w3.org/2000/svg" xmlns:xlink="http://www.w3.org/1999/xlink" x="0px" y="0px"
	 viewBox="0 0 24 24" style="enable-background:new 0 0 24 24;" xml:space="preserve">
<g>
	<title>fitness-bicycle</title>
	<path d="M5.992,19.904c-0.667,0-1.3-0.217-1.831-0.628c-1.308-1.013-1.548-2.901-0.536-4.209C4.197,14.328,5.063,13.904,6,13.904
		c0.67,0,1.304,0.217,1.833,0.626c0.213,0.165,0.403,0.358,0.566,0.575c0.165,0.221,0.12,0.535-0.101,0.7
		c-0.087,0.065-0.19,0.1-0.299,0.1c-0.157,0-0.307-0.075-0.401-0.2c-0.108-0.145-0.235-0.274-0.377-0.384
		C6.869,15.049,6.446,14.904,6,14.904c-0.625,0-1.203,0.282-1.584,0.775c-0.675,0.872-0.515,2.131,0.357,2.806
		c0.354,0.274,0.776,0.419,1.218,0.419c0.086,0,0.172-0.006,0.258-0.017c0.53-0.067,1.002-0.337,1.329-0.76
		c0.095-0.123,0.24-0.194,0.396-0.194c0.11,0,0.219,0.037,0.306,0.104c0.106,0.082,0.173,0.2,0.19,0.333s-0.019,0.264-0.101,0.369
		c-0.49,0.634-1.198,1.038-1.993,1.139C6.25,19.895,6.12,19.904,5.992,19.904z"/>
	<path d="M5.999,22.9c-0.766,0-1.511-0.143-2.219-0.424c-3.074-1.222-4.581-4.718-3.359-7.792c0.592-1.49,1.728-2.659,3.2-3.294
		c0.759-0.327,1.558-0.493,2.375-0.493c0.758,0,1.504,0.144,2.217,0.427l10.311,3.028c-0.674-2.835-1.417-5.959-1.51-6.331
		c-0.075-0.119-0.673-0.346-0.929-0.443c-0.672-0.255-1.306-0.496-1.444-1.051l-1.127-4.506c-0.033-0.129-0.013-0.264,0.056-0.378
		c0.069-0.115,0.178-0.196,0.308-0.228c0.04-0.01,0.081-0.015,0.122-0.015c0.229,0,0.429,0.156,0.484,0.379l1.12,4.479
		c0.115,0.112,0.635,0.31,0.835,0.386c0.717,0.272,1.393,0.529,1.545,1.135c0.1,0.399,0.882,3.689,1.645,6.899l0.993,0.292
		c1.853,0.416,3.216,1.981,3.376,3.889c0.001,1.097-0.415,2.107-1.171,2.866c-0.755,0.758-1.759,1.176-2.827,1.176H5.999z
		 M5.991,11.898c-0.678,0-1.342,0.138-1.974,0.41c-1.226,0.529-2.174,1.503-2.667,2.744c-1.018,2.562,0.237,5.475,2.799,6.493
		C4.74,21.781,5.361,21.9,5.995,21.9h14.004c1.654,0,3-1.346,3-3c-0.123-1.44-1.176-2.639-2.62-2.961
		c-0.007-0.001-0.03-0.008-0.037-0.01l-0.447-0.131l0.263,1.111c0.093,0.39,0.028,0.792-0.183,1.134
		c-0.21,0.341-0.541,0.58-0.931,0.672c-0.113,0.027-0.229,0.041-0.345,0.041c-0.053,0-0.107-0.003-0.16-0.009L5.946,17.397
		c-0.133-0.014-0.252-0.079-0.336-0.183s-0.122-0.235-0.108-0.367c0.027-0.254,0.24-0.447,0.495-0.447
		c0.019,0,0.038,0.001,0.058,0.003l12.592,1.349c0.016,0.001,0.035,0.002,0.053,0.002c0.04,0,0.079-0.004,0.115-0.013
		c0.129-0.031,0.24-0.11,0.31-0.224c0.07-0.114,0.092-0.248,0.061-0.378l-0.396-1.666L7.887,12.268
		C7.258,12.02,6.627,11.898,5.991,11.898z"/>
	<path d="M16.306,12.919c-0.102,0-0.2-0.031-0.283-0.088c-0.227-0.156-0.284-0.468-0.128-0.695l0.216-0.314
		c0.161-0.234,0.23-0.334,0.482-0.703c0.093-0.137,0.248-0.218,0.413-0.218c0.101,0,0.198,0.03,0.281,0.087
		c0.111,0.076,0.185,0.189,0.21,0.32c0.025,0.131-0.003,0.264-0.078,0.375c-0.253,0.371-0.323,0.472-0.485,0.707l-0.216,0.314
		C16.625,12.838,16.471,12.919,16.306,12.919z"/>
	<path d="M19.013,8.955c-0.101,0-0.198-0.03-0.281-0.087c-0.11-0.075-0.185-0.189-0.21-0.32c-0.025-0.131,0.003-0.264,0.078-0.375
		l0.171-0.251c0.04-0.135-0.188-0.733-0.285-0.988c-0.256-0.671-0.497-1.304-0.175-1.776l0.087-0.128
		c0.428-0.628,1.452-2.133,2.531-3.713c0.094-0.137,0.248-0.218,0.413-0.218c0.101,0,0.199,0.03,0.282,0.088
		c0.227,0.155,0.286,0.467,0.13,0.694c-1.011,1.48-1.973,2.893-2.443,3.582l-0.159,0.233c-0.008,0.16,0.19,0.68,0.266,0.88
		c0.261,0.686,0.53,1.393,0.176,1.909l-0.17,0.25C19.333,8.873,19.179,8.955,19.013,8.955z"/>
</g>
</svg>
