<?xml version="1.0" encoding="utf-8"?>
<!-- Generator: Adobe Illustrator 22.1.0, SVG Export Plug-In . SVG Version: 6.00 Build 0)  -->
<svg version="1.1" id="Light" xmlns="http://www.w3.org/2000/svg" xmlns:xlink="http://www.w3.org/1999/xlink" x="0px" y="0px"
	 viewBox="0 0 24 24" style="enable-background:new 0 0 24 24;" xml:space="preserve">
<g>
	<title>fitness-weights</title>
	<path d="M15.5,19c-0.827,0-1.5-0.673-1.5-1.5V13h-4v4.5c0,0.827-0.673,1.5-1.5,1.5h-3C4.673,19,4,18.327,4,17.5V16H2.5
		C1.673,16,1,15.327,1,14.5v-2H0.5C0.224,12.5,0,12.276,0,12c0-0.276,0.224-0.5,0.5-0.5H1v-2C1,8.673,1.673,8,2.5,8H4V6.5
		C4,5.673,4.673,5,5.5,5h3C9.327,5,10,5.673,10,6.5V12h4V6.5C14,5.673,14.673,5,15.5,5h3C19.327,5,20,5.673,20,6.5V8h1.5
		C22.327,8,23,8.673,23,9.5v2h0.5c0.276,0,0.5,0.224,0.5,0.5c0,0.276-0.224,0.5-0.5,0.5H23v2c0,0.827-0.673,1.5-1.5,1.5H20v1.5
		c0,0.827-0.673,1.5-1.5,1.5H15.5z M15.5,6C15.224,6,15,6.224,15,6.5v11c0,0.276,0.224,0.5,0.5,0.5h3c0.276,0,0.5-0.224,0.5-0.5v-11
		C19,6.224,18.776,6,18.5,6H15.5z M5.5,6C5.224,6,5,6.224,5,6.5v11C5,17.776,5.224,18,5.5,18h3C8.776,18,9,17.776,9,17.5v-11
		C9,6.224,8.776,6,8.5,6H5.5z M21.5,15c0.276,0,0.5-0.224,0.5-0.5v-5C22,9.224,21.776,9,21.5,9H20L21.5,15z M2.5,9
		C2.224,9,2,9.224,2,9.5v5C2,14.776,2.224,15,2.5,15H4V9H2.5z"/>
</g>
</svg>
