<?xml version="1.0" encoding="utf-8"?>
<!-- Generator: Adobe Illustrator 22.1.0, SVG Export Plug-In . SVG Version: 6.00 Build 0)  -->
<svg version="1.1" id="Light" xmlns="http://www.w3.org/2000/svg" xmlns:xlink="http://www.w3.org/1999/xlink" x="0px" y="0px"
	 viewBox="0 0 24 24" style="enable-background:new 0 0 24 24;" xml:space="preserve">
<g>
	<title>fitness-shaker</title>
	<path d="M9,24c-1.379,0-2.5-1.122-2.5-2.5v-8.092c0.001-0.396,0.154-0.769,0.432-1.051l1.464-1.48
		c0.191-0.192,0.193-0.506,0.005-0.701L6.92,8.64C6.65,8.36,6.501,7.99,6.5,7.6V4.5C6.5,3.121,7.622,2,9,2h2.5V0.5
		C11.5,0.224,11.724,0,12,0s0.5,0.224,0.5,0.5V2H15c1.378,0,2.5,1.121,2.5,2.5v0.976c0.001,0.008,0.001,0.016,0.001,0.024v2.091
		c0.001,0.394-0.15,0.767-0.426,1.049l-1.517,1.555c-0.193,0.199-0.188,0.516,0.009,0.708l1.482,1.445
		c0.288,0.282,0.452,0.674,0.451,1.075V21.5c0,1.378-1.122,2.5-2.5,2.5H9z M7.5,7.6c0,0.13,0.05,0.253,0.14,0.346l1.481,1.536
		c0.563,0.582,0.557,1.524-0.014,2.099L7.644,13.06c-0.092,0.094-0.143,0.218-0.143,0.35V21.5C7.5,22.327,8.173,23,9,23h6
		c0.827,0,1.5-0.673,1.5-1.5v-8.078c0-0.135-0.054-0.265-0.15-0.359l-1.481-1.444c-0.592-0.577-0.605-1.528-0.028-2.121
		c0.006-0.006,0.013-0.012,0.019-0.018l1.499-1.538c0.092-0.094,0.142-0.219,0.142-0.35V6H7.5V7.6z M16.5,5V4.5
		C16.5,3.673,15.827,3,15,3H9C8.173,3,7.5,3.673,7.5,4.5V5H16.5z"/>
	<path d="M11.5,20.5c-0.086,0-0.172-0.023-0.247-0.065c-0.24-0.137-0.323-0.443-0.187-0.682L12.635,17l-1.2,0
		c-0.197,0-0.388-0.058-0.553-0.167c-0.459-0.306-0.584-0.928-0.279-1.387l1.482-2.223C12.177,13.083,12.332,13,12.5,13
		c0.099,0,0.195,0.029,0.277,0.084c0.23,0.153,0.292,0.464,0.139,0.694L11.434,16l1.2,0c0.268,0,0.518,0.104,0.707,0.292
		c0.189,0.188,0.294,0.439,0.294,0.707c0,0.174-0.045,0.345-0.131,0.497l-1.569,2.752C11.846,20.403,11.679,20.5,11.5,20.5z"/>
</g>
</svg>
