<?xml version="1.0" encoding="utf-8"?>
<!-- Generator: Adobe Illustrator 22.1.0, SVG Export Plug-In . SVG Version: 6.00 Build 0)  -->
<svg version="1.1" id="Layer_1" xmlns="http://www.w3.org/2000/svg" xmlns:xlink="http://www.w3.org/1999/xlink" x="0px" y="0px"
	 viewBox="0 0 24 24" style="enable-background:new 0 0 24 24;" xml:space="preserve">
<g>
	<title>human-resources-search-team</title>
	<path d="M23.155,9.695c-0.229,0-0.428-0.155-0.485-0.378c-0.583-2.314-1.93-4.409-3.793-5.9c-0.215-0.172-0.25-0.487-0.078-0.703
		c0.096-0.12,0.239-0.188,0.391-0.188c0.113,0,0.223,0.039,0.312,0.109c2.033,1.626,3.502,3.912,4.138,6.437
		c0.067,0.267-0.095,0.54-0.363,0.607C23.237,9.69,23.196,9.695,23.155,9.695z"/>
	<path d="M16.75,2.029c-0.071,0-0.141-0.015-0.206-0.045c-1.41-0.639-2.984-0.977-4.55-0.977c-0.821,0-1.64,0.092-2.432,0.272
		C9.525,1.287,9.488,1.291,9.451,1.291l0,0c-0.235,0-0.435-0.16-0.487-0.389C8.902,0.634,9.071,0.365,9.34,0.304
		c0.865-0.197,1.758-0.297,2.654-0.297c1.708,0,3.425,0.369,4.964,1.066c0.251,0.114,0.363,0.411,0.249,0.661
		C17.125,1.913,16.947,2.029,16.75,2.029L16.75,2.029z"/>
	<path d="M1.639,7.522c-0.074,0-0.149-0.017-0.216-0.049c-0.249-0.12-0.354-0.419-0.234-0.668C2.317,4.459,4.214,2.513,6.53,1.326
		C6.599,1.289,6.679,1.27,6.758,1.27c0.188,0,0.359,0.104,0.445,0.272C7.329,1.788,7.231,2.09,6.986,2.215
		C4.863,3.304,3.124,5.088,2.09,7.238C2.007,7.41,1.83,7.522,1.639,7.522z"/>
	<path d="M1.653,17.514c-0.19,0-0.367-0.111-0.45-0.282c-1.134-2.344-1.476-5.039-0.964-7.591c0.047-0.233,0.253-0.402,0.49-0.402
		c0.032,0,0.065,0.003,0.098,0.01c0.271,0.054,0.447,0.318,0.393,0.589c-0.469,2.34-0.155,4.811,0.884,6.959
		c0.12,0.248,0.016,0.548-0.232,0.668C1.802,17.498,1.729,17.514,1.653,17.514z"/>
	<path d="M9.481,23.724c-0.037,0-0.074-0.004-0.11-0.012c-2.539-0.571-4.862-1.981-6.541-3.971c-0.178-0.21-0.151-0.527,0.06-0.705
		c0.09-0.076,0.204-0.118,0.322-0.118c0.148,0,0.287,0.065,0.382,0.178c1.539,1.824,3.668,3.117,5.996,3.641
		c0.269,0.06,0.439,0.328,0.378,0.597C9.917,23.564,9.717,23.724,9.481,23.724z"/>
	<path d="M12.334,24.004c-0.272,0-0.492-0.213-0.5-0.486c-0.008-0.275,0.209-0.506,0.485-0.514c2.385-0.069,4.723-0.932,6.581-2.43
		c0.089-0.072,0.2-0.111,0.314-0.111c0.152,0,0.294,0.068,0.389,0.187c0.173,0.215,0.139,0.53-0.075,0.703
		c-2.028,1.634-4.577,2.576-7.179,2.652c-0.002,0-0.005,0-0.007,0H12.334z"/>
	<path d="M21.204,19.405c-0.109,0-0.212-0.035-0.3-0.1c-0.107-0.08-0.176-0.197-0.195-0.329c-0.019-0.132,0.015-0.264,0.095-0.371
		c1.432-1.909,2.213-4.275,2.199-6.662c-0.001-0.276,0.222-0.501,0.497-0.503c0.277,0,0.501,0.223,0.503,0.497
		c0.015,2.604-0.838,5.185-2.4,7.268C21.511,19.33,21.361,19.405,21.204,19.405z"/>
	<path d="M4.863,17.555c-0.133,0-0.263-0.054-0.356-0.149c-0.094-0.095-0.146-0.226-0.144-0.358c0.04-2.678,2.169-4.807,4.846-4.847
		l0.054,0c1.3,0,2.524,0.493,3.447,1.389c0.943,0.916,1.474,2.143,1.493,3.458c0.002,0.133-0.051,0.263-0.144,0.358
		s-0.223,0.149-0.356,0.149H4.863z M13.164,16.555c-0.124-0.852-0.526-1.642-1.15-2.247c-0.735-0.714-1.714-1.107-2.756-1.107
		l-0.035,0c-1.952,0.029-3.551,1.453-3.82,3.354H13.164z"/>
	<path d="M9.242,12.03c-1.799,0-3.263-1.464-3.263-3.263c0-1.799,1.464-3.263,3.263-3.263c1.799,0,3.263,1.464,3.263,3.263
		C12.505,10.567,11.041,12.03,9.242,12.03z M9.242,6.504c-1.248,0-2.263,1.015-2.263,2.263s1.015,2.263,2.263,2.263
		s2.263-1.015,2.263-2.263S10.49,6.504,9.242,6.504z"/>
	<path d="M13.729,13.951c-0.162,0-0.315-0.079-0.408-0.211c-0.077-0.108-0.107-0.241-0.085-0.373
		c0.022-0.132,0.095-0.247,0.204-0.324c0.84-0.595,1.825-0.91,2.848-0.91c0.928,0,1.837,0.264,2.627,0.762
		c0.113,0.071,0.191,0.182,0.221,0.312c0.03,0.13,0.007,0.264-0.065,0.377c-0.091,0.146-0.25,0.233-0.423,0.233
		c-0.094,0-0.187-0.027-0.267-0.077c-0.63-0.397-1.354-0.607-2.094-0.607c-0.815,0-1.6,0.251-2.27,0.726
		C13.933,13.919,13.834,13.951,13.729,13.951z"/>
	<path d="M16.241,12.03c-1.799,0-3.263-1.464-3.263-3.263c0-1.799,1.464-3.263,3.263-3.263s3.263,1.464,3.263,3.263
		C19.504,10.567,18.04,12.03,16.241,12.03z M16.241,6.504c-1.248,0-2.263,1.015-2.263,2.263s1.015,2.263,2.263,2.263
		s2.263-1.015,2.263-2.263S17.489,6.504,16.241,6.504z"/>
</g>
</svg>
