<?xml version="1.0" encoding="utf-8"?>
<!-- Generator: Adobe Illustrator 22.1.0, SVG Export Plug-In . SVG Version: 6.00 Build 0)  -->
<svg version="1.1" id="Layer_1" xmlns="http://www.w3.org/2000/svg" xmlns:xlink="http://www.w3.org/1999/xlink" x="0px" y="0px"
	 viewBox="0 0 24 24" style="enable-background:new 0 0 24 24;" xml:space="preserve">
<g>
	<title>human-resources-employee-previous</title>
	<path d="M13.849,21.997c-0.269,0-0.489-0.211-0.499-0.48c-0.005-0.133,0.042-0.261,0.132-0.359c0.091-0.098,0.214-0.155,0.348-0.16
		c4.926-0.198,8.799-4.367,8.634-9.295C22.3,6.825,18.35,3.005,13.473,3.005c-0.102,0-0.204,0.002-0.306,0.005
		c-0.258,0.013-0.523,0.037-0.782,0.072C9.949,3.412,7.787,4.67,6.299,6.625c-1.24,1.628-1.897,3.61-1.88,5.64l2.705-3.091
		C7.219,9.065,7.356,9.003,7.5,9.003c0.121,0,0.238,0.044,0.329,0.124c0.207,0.182,0.228,0.498,0.047,0.705
		c0,0-3.495,3.995-3.497,3.996c-0.007,0.008-0.016,0.016-0.026,0.025c-0.041,0.04-0.082,0.069-0.127,0.092
		c-0.032,0.017-0.065,0.026-0.087,0.032c-0.004,0.003-0.031,0.013-0.068,0.018c-0.005,0-0.01,0.001-0.015,0.001
		C4.04,14.001,4.021,14.003,4,14.003c-0.004,0-0.024,0-0.027-0.001C3.92,14,3.884,13.985,3.868,13.979l-0.006-0.001
		c-0.119-0.035-0.216-0.103-0.278-0.197l-3-4.5c-0.074-0.111-0.1-0.245-0.074-0.375c0.026-0.131,0.102-0.244,0.213-0.318
		C0.804,8.532,0.9,8.503,0.999,8.503c0.168,0,0.323,0.083,0.416,0.223l2.01,3.015c0.086-2.075,0.796-4.038,2.078-5.721
		C7.154,3.852,9.55,2.457,12.25,2.091c0.287-0.039,0.582-0.066,0.875-0.081c0.117-0.004,0.229-0.006,0.341-0.006
		c5.424,0,9.815,4.245,9.997,9.664c0.184,5.475-4.119,10.108-9.593,10.328C13.866,21.997,13.853,21.997,13.849,21.997z"/>
	<path d="M13.437,13.003c-2.068,0-3.75-1.682-3.75-3.75s1.682-3.75,3.75-3.75c2.068,0,3.75,1.682,3.75,3.75
		S15.505,13.003,13.437,13.003z M13.437,6.503c-1.516,0-2.75,1.234-2.75,2.75s1.234,2.75,2.75,2.75c1.516,0,2.75-1.234,2.75-2.75
		S14.954,6.503,13.437,6.503z"/>
	<path d="M8.494,18c-0.058,0-0.116-0.01-0.171-0.03c-0.125-0.045-0.225-0.137-0.282-0.259s-0.062-0.257-0.017-0.382
		c0.59-1.621,1.858-2.888,3.478-3.479c0.641-0.234,1.309-0.352,1.986-0.352c2.44,0,4.64,1.54,5.475,3.831
		c0.046,0.125,0.04,0.261-0.017,0.382c-0.056,0.121-0.157,0.213-0.282,0.259C18.61,17.99,18.552,18,18.494,18
		c-0.209,0-0.398-0.132-0.47-0.329c-0.69-1.897-2.513-3.172-4.535-3.172c-0.56,0-1.113,0.098-1.644,0.291
		c-1.342,0.489-2.392,1.539-2.881,2.881C8.892,17.868,8.703,18,8.494,18L8.494,18z"/>
</g>
</svg>
