<?xml version="1.0" encoding="utf-8"?>
<!-- Generator: Adobe Illustrator 22.1.0, SVG Export Plug-In . SVG Version: 6.00 Build 0)  -->
<svg version="1.1" id="Layer_1" xmlns="http://www.w3.org/2000/svg" xmlns:xlink="http://www.w3.org/1999/xlink" x="0px" y="0px"
	 viewBox="0 0 24 24" style="enable-background:new 0 0 24 24;" xml:space="preserve">
<g>
	<title>human-resources-hierarchy</title>
	<path d="M20,23.971c-1.93,0-3.5-1.57-3.5-3.5c0-1.738,1.3-3.216,3-3.461v-2.039h-7v2.039c1.7,0.245,3,1.723,3,3.461
		c0,1.93-1.57,3.5-3.5,3.5s-3.5-1.57-3.5-3.5c0-1.738,1.3-3.216,3-3.461v-2.039h-7v2.039c1.7,0.245,3,1.723,3,3.461
		c0,1.93-1.57,3.5-3.5,3.5s-3.5-1.57-3.5-3.5c0-1.738,1.3-3.216,3-3.461v-2.039c0-0.552,0.449-1,1-1h7v-2h-4
		c-0.276,0-0.5-0.224-0.5-0.5c0-2.757,2.243-5,5-5c2.757,0,5,2.243,5,5c0,0.276-0.224,0.5-0.5,0.5h-4v2h7c0.552,0,1,0.448,1,1v2.039
		c1.7,0.245,3,1.723,3,3.461C23.5,22.401,21.93,23.971,20,23.971z M20,17.971c-1.378,0-2.5,1.122-2.5,2.5s1.122,2.5,2.5,2.5
		s2.5-1.122,2.5-2.5S21.378,17.971,20,17.971z M12,17.971c-1.379,0-2.5,1.122-2.5,2.5s1.121,2.5,2.5,2.5c1.378,0,2.5-1.122,2.5-2.5
		S13.378,17.971,12,17.971z M4,17.971c-1.379,0-2.5,1.122-2.5,2.5s1.121,2.5,2.5,2.5s2.5-1.122,2.5-2.5S5.379,17.971,4,17.971z
		 M15.969,10.971c-0.248-1.983-1.942-3.5-3.969-3.5c-2.027,0-3.721,1.517-3.969,3.5H15.969z"/>
	<path d="M12,6.471c-1.792,0-3.25-1.458-3.25-3.25s1.458-3.25,3.25-3.25c1.792,0,3.25,1.458,3.25,3.25S13.792,6.471,12,6.471z
		 M12,0.971c-1.241,0-2.25,1.009-2.25,2.25s1.009,2.25,2.25,2.25c1.241,0,2.25-1.009,2.25-2.25S13.241,0.971,12,0.971z"/>
</g>
</svg>
