<?xml version="1.0" encoding="utf-8"?>
<!-- Generator: Adobe Illustrator 22.1.0, SVG Export Plug-In . SVG Version: 6.00 Build 0)  -->
<svg version="1.1" id="Layer_1" xmlns="http://www.w3.org/2000/svg" xmlns:xlink="http://www.w3.org/1999/xlink" x="0px" y="0px"
	 viewBox="0 0 24 24" style="enable-background:new 0 0 24 24;" xml:space="preserve">
<g>
	<title>human-resources-workflow</title>
	<path d="M12,12.5c-1.241,0-2.25-1.009-2.25-2.25S10.759,8,12,8c1.241,0,2.25,1.009,2.25,2.25S13.241,12.5,12,12.5z M12,9
		c-0.689,0-1.25,0.561-1.25,1.25S11.311,11.5,12,11.5s1.25-0.561,1.25-1.25S12.689,9,12,9z"/>
	<path d="M8.5,16c-0.156,0-0.3-0.071-0.395-0.193c-0.094-0.121-0.128-0.282-0.089-0.43c0.372-1.459,1.51-2.596,2.968-2.968
		c0.336-0.086,0.68-0.129,1.023-0.129c0.732,0,1.456,0.2,2.092,0.578c0.944,0.561,1.614,1.456,1.885,2.52
		c0.038,0.149,0.004,0.31-0.09,0.43C15.801,15.928,15.653,16,15.5,16H8.5z M14.785,15c-0.264-0.533-0.673-0.973-1.197-1.283
		c-0.482-0.286-1.029-0.437-1.583-0.437c-0.259,0-0.52,0.033-0.775,0.098c-0.882,0.225-1.613,0.82-2.014,1.623H14.785z"/>
	<path d="M12,3c-0.827,0-1.5-0.673-1.5-1.5S11.173,0,12,0s1.5,0.673,1.5,1.5S12.827,3,12,3z M12,1c-0.276,0-0.5,0.224-0.5,0.5
		S11.724,2,12,2c0.276,0,0.5-0.224,0.5-0.5S12.276,1,12,1z"/>
	<path d="M10,6C9.724,6,9.5,5.776,9.5,5.5C9.5,4.121,10.621,3,12,3c1.378,0,2.5,1.121,2.5,2.5C14.5,5.776,14.276,6,14,6H10z
		 M13.414,5C13.206,4.414,12.641,4,12,4c-0.641,0-1.205,0.414-1.414,1H13.414z"/>
	<path d="M21.5,13c-0.827,0-1.5-0.673-1.5-1.5s0.673-1.5,1.5-1.5s1.5,0.673,1.5,1.5S22.327,13,21.5,13z M21.5,11
		c-0.276,0-0.5,0.224-0.5,0.5s0.224,0.5,0.5,0.5s0.5-0.224,0.5-0.5S21.776,11,21.5,11z"/>
	<path d="M19.5,16c-0.276,0-0.5-0.224-0.5-0.5c0-1.378,1.122-2.5,2.5-2.5s2.5,1.122,2.5,2.5c0,0.276-0.224,0.5-0.5,0.5H19.5z
		 M22.914,15c-0.209-0.586-0.773-1-1.414-1s-1.206,0.414-1.414,1H22.914z"/>
	<path d="M12,21c-0.827,0-1.5-0.673-1.5-1.5S11.173,18,12,18s1.5,0.673,1.5,1.5S12.827,21,12,21z M12,19c-0.276,0-0.5,0.224-0.5,0.5
		S11.724,20,12,20c0.276,0,0.5-0.224,0.5-0.5S12.276,19,12,19z"/>
	<path d="M10,24c-0.276,0-0.5-0.224-0.5-0.5c0-1.378,1.121-2.5,2.5-2.5c1.378,0,2.5,1.122,2.5,2.5c0,0.276-0.224,0.5-0.5,0.5H10z
		 M13.414,23c-0.209-0.586-0.773-1-1.414-1c-0.641,0-1.205,0.414-1.414,1H13.414z"/>
	<path d="M2.5,13C1.673,13,1,12.327,1,11.5S1.673,10,2.5,10S4,10.673,4,11.5S3.327,13,2.5,13z M2.5,11C2.224,11,2,11.224,2,11.5
		S2.224,12,2.5,12S3,11.776,3,11.5S2.776,11,2.5,11z"/>
	<path d="M0.5,16C0.224,16,0,15.776,0,15.5C0,14.122,1.121,13,2.5,13S5,14.122,5,15.5C5,15.776,4.776,16,4.5,16H0.5z M3.914,15
		c-0.209-0.586-0.773-1-1.414-1s-1.205,0.414-1.414,1H3.914z"/>
	<path d="M19.805,9.516c-0.179,0-0.345-0.096-0.434-0.251c-0.643-1.116-1.53-2.071-2.59-2.793l0.497,1.392
		c0.092,0.26-0.044,0.547-0.303,0.639c-0.055,0.019-0.111,0.029-0.168,0.029c-0.211,0-0.4-0.133-0.471-0.332l-0.95-2.665
		c-0.045-0.126-0.038-0.262,0.02-0.383c0.004-0.009,0.009-0.017,0.014-0.026c0.027-0.05,0.062-0.094,0.104-0.132
		c0.049-0.045,0.108-0.08,0.174-0.102l2.655-0.946c0.054-0.019,0.111-0.029,0.168-0.029c0.21,0,0.4,0.133,0.471,0.332
		c0.092,0.26-0.044,0.547-0.303,0.639l-1.621,0.578c1.308,0.825,2.397,1.957,3.17,3.299c0.067,0.115,0.084,0.25,0.05,0.38
		c-0.035,0.129-0.118,0.237-0.233,0.303C19.979,9.493,19.892,9.516,19.805,9.516z"/>
	<path d="M16.008,22.061c-0.191,0-0.363-0.106-0.448-0.277c-0.123-0.246-0.023-0.547,0.223-0.671
		c1.303-0.651,2.449-1.665,3.274-2.889l-1.751,0.269C17.28,18.498,17.255,18.5,17.23,18.5c-0.248,0-0.456-0.178-0.494-0.424
		c-0.02-0.132,0.012-0.264,0.091-0.372c0.079-0.108,0.195-0.178,0.327-0.198l2.796-0.43c0.013-0.002,0.032-0.003,0.045-0.003
		c0.009,0,0.027,0.001,0.038,0.002c0.031,0,0.049,0.002,0.069,0.005c0.028,0.004,0.057,0.011,0.087,0.022
		c0.017,0.004,0.041,0.011,0.067,0.024c0.015,0.008,0.033,0.02,0.049,0.032c0.025,0.018,0.045,0.035,0.06,0.049
		c0.02,0.018,0.046,0.044,0.071,0.08c0.011,0.017,0.022,0.035,0.031,0.054c0.02,0.039,0.033,0.074,0.042,0.109
		c0.004,0.012,0.007,0.024,0.009,0.035l0.431,2.804c0.02,0.132-0.012,0.264-0.091,0.372c-0.079,0.108-0.195,0.178-0.327,0.198
		c-0.026,0.004-0.052,0.006-0.076,0.006c-0.248,0-0.456-0.178-0.494-0.424l-0.221-1.438c-0.908,1.274-2.111,2.305-3.51,3.004
		C16.162,22.043,16.085,22.061,16.008,22.061z"/>
	<path d="M3.973,9.93c-0.013,0-0.028-0.001-0.042-0.004c-0.034-0.003-0.072-0.01-0.109-0.022C3.813,9.902,3.783,9.891,3.774,9.887
		C3.761,9.883,3.756,9.881,3.744,9.874C3.721,9.863,3.704,9.85,3.691,9.839C3.675,9.83,3.656,9.817,3.644,9.806
		c-0.017-0.015-0.03-0.03-0.039-0.042C3.584,9.741,3.566,9.716,3.548,9.687c-0.013-0.022-0.023-0.04-0.032-0.06
		C3.501,9.593,3.49,9.555,3.483,9.513C3.478,9.496,3.475,9.477,3.474,9.462L3.296,6.639C3.288,6.505,3.332,6.377,3.42,6.276
		c0.088-0.1,0.21-0.16,0.344-0.168c0.005,0,0.029-0.001,0.034-0.001c0.262,0,0.48,0.206,0.497,0.469l0.08,1.267
		C5.272,6.635,6.437,5.657,7.777,4.99C7.846,4.956,7.923,4.938,8,4.938c0.191,0,0.363,0.106,0.448,0.277
		C8.57,5.462,8.469,5.763,8.223,5.886C6.882,6.552,5.71,7.602,4.879,8.872l1.885-0.12c0.005,0,0.027-0.001,0.033-0.001
		c0.263,0,0.481,0.206,0.498,0.468C7.312,9.494,7.103,9.732,6.828,9.75L4.005,9.929C3.999,9.929,3.978,9.93,3.973,9.93z"/>
	<path d="M5.193,22.742c-0.227,0-0.426-0.154-0.484-0.373c-0.07-0.267,0.091-0.541,0.357-0.611l1.582-0.413
		c-1.347-0.921-2.432-2.16-3.157-3.614c-0.06-0.119-0.069-0.255-0.027-0.381c0.042-0.127,0.131-0.229,0.251-0.289
		c0.069-0.035,0.147-0.053,0.224-0.053c0.191,0,0.363,0.106,0.448,0.277c0.625,1.252,1.589,2.362,2.748,3.178L6.73,18.917
		c-0.07-0.266,0.09-0.54,0.357-0.61c0.043-0.011,0.085-0.016,0.126-0.016c0.228,0,0.427,0.154,0.484,0.373l0.716,2.736
		c0.012,0.047,0.012,0.087,0.012,0.11c0.002,0.017,0.002,0.046,0.001,0.063c-0.005,0.051-0.019,0.089-0.028,0.114l0,0
		c0.001,0-0.006,0.032-0.024,0.069c-0.002,0.004-0.004,0.008-0.007,0.012c-0.008,0.016-0.019,0.032-0.031,0.047
		c-0.027,0.039-0.058,0.071-0.092,0.099c-0.003,0.003-0.017,0.014-0.021,0.017c-0.058,0.042-0.12,0.071-0.186,0.085l-2.718,0.71
		C5.276,22.737,5.234,22.742,5.193,22.742z"/>
</g>
</svg>
