<?xml version="1.0" encoding="utf-8"?>
<!-- Generator: Adobe Illustrator 22.1.0, SVG Export Plug-In . SVG Version: 6.00 Build 0)  -->
<svg version="1.1" id="Layer_1" xmlns="http://www.w3.org/2000/svg" xmlns:xlink="http://www.w3.org/1999/xlink" x="0px" y="0px"
	 viewBox="0 0 24 24" style="enable-background:new 0 0 24 24;" xml:space="preserve">
<g>
	<title>human-resources-offer-employee-1</title>
	<path d="M1.292,23.75c-0.276,0-0.5-0.224-0.5-0.5v-10c0-0.276,0.224-0.5,0.5-0.5s0.5,0.224,0.5,0.5v1.5h6.5
		c1.74,0,3.219,1.3,3.464,3h5.536c1.93,0,3.5,1.57,3.5,3.5c0,0.276-0.224,0.5-0.5,0.5h-18.5v1.5
		C1.792,23.526,1.568,23.75,1.292,23.75z M19.741,20.75c-0.235-1.141-1.261-2-2.449-2h-9c-0.276,0-0.5-0.224-0.5-0.5
		s0.224-0.5,0.5-0.5h2.448c-0.235-1.141-1.261-2-2.448-2h-6.5v5H19.741z"/>
	<path d="M11.792,14.75c-0.276,0-0.5-0.224-0.5-0.5c0-3.308,2.692-6,6-6s6,2.692,6,6c0,0.276-0.224,0.5-0.5,0.5H11.792z
		 M22.267,13.75c-0.251-2.544-2.388-4.5-4.975-4.5s-4.724,1.956-4.975,4.5H22.267z"/>
	<path d="M17.236,7.75c-2.068,0-3.75-1.682-3.75-3.75s1.682-3.75,3.75-3.75s3.75,1.682,3.75,3.75S19.304,7.75,17.236,7.75z
		 M17.236,1.25c-1.516,0-2.75,1.234-2.75,2.75s1.234,2.75,2.75,2.75s2.75-1.234,2.75-2.75S18.752,1.25,17.236,1.25z"/>
</g>
</svg>
