<?xml version="1.0" encoding="utf-8"?>
<!-- Generator: Adobe Illustrator 22.1.0, SVG Export Plug-In . SVG Version: 6.00 Build 0)  -->
<svg version="1.1" id="Layer_1" xmlns="http://www.w3.org/2000/svg" xmlns:xlink="http://www.w3.org/1999/xlink" x="0px" y="0px"
	 viewBox="0 0 24 24" style="enable-background:new 0 0 24 24;" xml:space="preserve">
<g>
	<title>human-resources-employee-star</title>
	<path d="M10.001,23.749c-0.044,0-0.087-0.006-0.13-0.017c-0.129-0.034-0.237-0.117-0.304-0.232c-0.067-0.115-0.085-0.25-0.05-0.379
		l1.83-6.862c-5.134,0.128-8.007,1.74-9.274,2.704C1.711,19.241,1.497,19.681,1.5,20.14v3.109c0,0.276-0.224,0.5-0.5,0.5
		s-0.5-0.224-0.5-0.5v-3.106c-0.005-0.767,0.355-1.505,0.965-1.975C2.899,17.078,6.173,15.249,12,15.249
		c5.851,0,9.111,1.828,10.534,2.918c0.61,0.47,0.971,1.21,0.966,1.979v3.103c0,0.276-0.224,0.5-0.5,0.5s-0.5-0.224-0.5-0.5v-3.106
		c0.003-0.461-0.212-0.903-0.575-1.183c-1.257-0.963-4.117-2.575-9.272-2.702l1.83,6.862c0.035,0.129,0.017,0.264-0.05,0.38
		c-0.067,0.115-0.175,0.198-0.304,0.232c-0.041,0.011-0.085,0.017-0.129,0.017c-0.226,0-0.425-0.153-0.483-0.371L12,17.69
		l-1.517,5.688C10.425,23.597,10.226,23.749,10.001,23.749z"/>
	<path d="M16.5,22.749c-0.276,0-0.5-0.224-0.5-0.5s0.224-0.5,0.5-0.5h3c0.276,0,0.5,0.224,0.5,0.5s-0.224,0.5-0.5,0.5H16.5z"/>
	<path d="M8.126,13.751c-0.11,0-0.22-0.014-0.328-0.042c-0.332-0.087-0.61-0.298-0.784-0.594c-0.203-0.347-0.231-0.776-0.075-1.147
		l1.298-2.986l-2.33-2.075C5.662,6.688,5.515,6.387,5.495,6.058c-0.02-0.329,0.089-0.646,0.308-0.893
		C6.036,4.9,6.371,4.749,6.722,4.749c0.02,0,0.04,0,0.059,0.001l2.648,0l1.411-3.268c0.183-0.342,0.453-0.566,0.792-0.667
		c0.122-0.036,0.247-0.054,0.372-0.054c0.214,0,0.428,0.054,0.618,0.157c0.223,0.121,0.404,0.302,0.524,0.524
		c0.004,0.007,0.017,0.033,0.02,0.04l1.409,3.267l2.701-0.001c0.651,0,1.201,0.533,1.226,1.188c0.014,0.369-0.136,0.722-0.412,0.968
		l-2.33,2.076l1.295,2.981c0.135,0.322,0.136,0.673,0.005,0.99c-0.131,0.318-0.377,0.565-0.694,0.697
		c-0.156,0.065-0.323,0.098-0.494,0.098c-0.226,0-0.449-0.059-0.643-0.171L12,11.756l-3.235,1.823
		C8.574,13.691,8.352,13.751,8.126,13.751z M6.735,5.749c-0.074,0-0.138,0.027-0.183,0.079C6.509,5.875,6.489,5.934,6.493,5.997
		C6.497,6.06,6.524,6.116,6.571,6.158l2.601,2.317c0.162,0.144,0.212,0.374,0.126,0.573l-1.44,3.313
		c-0.032,0.077-0.025,0.173,0.019,0.249c0.038,0.066,0.1,0.113,0.174,0.132c0.024,0.006,0.048,0.01,0.073,0.01
		c0.05,0,0.1-0.014,0.144-0.039l3.487-1.965c0.075-0.042,0.16-0.064,0.245-0.064s0.171,0.022,0.245,0.064l3.48,1.961
		c0.046,0.027,0.097,0.04,0.148,0.04c0.038,0,0.074-0.007,0.108-0.021c0.071-0.029,0.125-0.084,0.154-0.155
		c0.029-0.07,0.029-0.148,0-0.218l-1.437-3.306c-0.086-0.199-0.036-0.429,0.126-0.573l2.6-2.316
		c0.052-0.047,0.081-0.114,0.078-0.184c-0.005-0.124-0.11-0.226-0.235-0.226l-3.022,0c-0.2,0-0.38-0.119-0.459-0.302l-1.529-3.545
		c-0.027-0.044-0.066-0.081-0.112-0.106c-0.045-0.024-0.093-0.036-0.142-0.036c-0.029,0-0.058,0.004-0.087,0.013
		c-0.077,0.023-0.14,0.074-0.178,0.145l-1.521,3.53c-0.079,0.183-0.26,0.302-0.459,0.302L6.735,5.749z"/>
</g>
</svg>
