<?xml version="1.0" encoding="utf-8"?>
<!-- Generator: Adobe Illustrator 22.1.0, SVG Export Plug-In . SVG Version: 6.00 Build 0)  -->
<svg version="1.1" id="Layer_1" xmlns="http://www.w3.org/2000/svg" xmlns:xlink="http://www.w3.org/1999/xlink" x="0px" y="0px"
	 viewBox="0 0 24 24" style="enable-background:new 0 0 24 24;" xml:space="preserve">
<g>
	<title>human-resources-team-settings</title>
	<path d="M12,15c-0.827,0-1.5-0.673-1.5-1.5S11.173,12,12,12s1.5,0.673,1.5,1.5S12.827,15,12,15z M12,13c-0.276,0-0.5,0.224-0.5,0.5
		S11.725,14,12,14c0.276,0,0.5-0.224,0.5-0.5S12.276,13,12,13z"/>
	<path d="M11.999,18.505c-0.132,0-0.264-0.019-0.391-0.057c-0.454-0.133-0.805-0.484-0.938-0.938l-0.294-0.963
		c-0.021-0.069-0.085-0.117-0.156-0.117c-0.012,0-0.024,0.001-0.036,0.004l-0.98,0.228c-0.103,0.023-0.206,0.035-0.309,0.035
		c-0.646,0-1.217-0.458-1.359-1.088c-0.101-0.448,0.026-0.916,0.339-1.253l0.687-0.74c0.058-0.063,0.058-0.166,0-0.229l-0.687-0.74
		c-0.253-0.272-0.385-0.627-0.371-0.999c0.014-0.372,0.171-0.716,0.444-0.969c0.259-0.24,0.595-0.372,0.948-0.372
		c0.102,0,0.205,0.011,0.305,0.034l0.985,0.229c0.011,0.003,0.023,0.004,0.035,0.004c0.071,0,0.136-0.048,0.156-0.116l0.295-0.969
		c0.171-0.582,0.718-0.99,1.328-0.99c0.132,0,0.264,0.019,0.391,0.057c0.453,0.133,0.804,0.484,0.938,0.937l0.294,0.965
		c0.021,0.069,0.085,0.117,0.156,0.117c0.012,0,0.024-0.001,0.035-0.004l0.981-0.228c0.104-0.023,0.208-0.035,0.312-0.035
		c0.263,0,0.52,0.075,0.743,0.216c0.315,0.199,0.533,0.509,0.614,0.872c0.101,0.448-0.026,0.916-0.338,1.253l-0.687,0.74
		c-0.058,0.063-0.058,0.166,0,0.229l0.687,0.74c0.522,0.563,0.49,1.446-0.073,1.968c-0.26,0.24-0.596,0.373-0.948,0.373l0,0
		c-0.103,0-0.206-0.011-0.306-0.034l-0.984-0.229c-0.01-0.002-0.022-0.003-0.034-0.003c-0.072,0-0.137,0.047-0.157,0.115
		l-0.295,0.969C13.156,18.096,12.609,18.505,11.999,18.505z M10.219,15.43c0.509,0,0.967,0.339,1.114,0.825l0.295,0.967
		c0.038,0.131,0.136,0.229,0.263,0.267c0.035,0.01,0.071,0.015,0.107,0.015c0.171,0,0.324-0.114,0.372-0.277l0.296-0.972
		c0.147-0.486,0.605-0.825,1.113-0.825c0.087,0,0.175,0.01,0.26,0.03l0.982,0.229c0.026,0.006,0.054,0.009,0.082,0.009
		c0.1,0,0.195-0.038,0.268-0.106c0.159-0.147,0.168-0.396,0.02-0.555l-0.687-0.741c-0.411-0.445-0.412-1.142,0-1.587l0.688-0.741
		c0.088-0.095,0.124-0.227,0.096-0.354c-0.023-0.103-0.084-0.19-0.173-0.246c-0.063-0.04-0.136-0.061-0.209-0.061
		c-0.029,0-0.058,0.003-0.087,0.01l-0.977,0.227c-0.086,0.02-0.173,0.03-0.26,0.03c-0.509,0-0.967-0.34-1.115-0.826
		c0,0-0.296-0.973-0.297-0.976c-0.042-0.128-0.138-0.221-0.26-0.257c-0.036-0.011-0.073-0.016-0.109-0.016
		c-0.17,0-0.322,0.114-0.37,0.277l-0.297,0.973c-0.147,0.486-0.605,0.825-1.114,0.825c-0.087,0-0.174-0.01-0.26-0.03l-0.982-0.228
		c-0.026-0.006-0.055-0.009-0.083-0.009c-0.099,0-0.194,0.037-0.267,0.105c-0.077,0.071-0.122,0.169-0.125,0.273
		c-0.004,0.105,0.033,0.205,0.105,0.282l0.687,0.742c0.411,0.445,0.411,1.142,0.001,1.587l-0.688,0.741
		c-0.089,0.095-0.124,0.227-0.096,0.354c0.04,0.178,0.201,0.308,0.383,0.308c0.029,0,0.058-0.003,0.086-0.01l0.977-0.227
		C10.043,15.44,10.13,15.43,10.219,15.43z"/>
	<path d="M12,4.5c-1.241,0-2.25-1.009-2.25-2.25S10.76,0,12,0c1.241,0,2.25,1.009,2.25,2.25S13.241,4.5,12,4.5z M12,1
		c-0.689,0-1.25,0.561-1.25,1.25S11.311,3.5,12,3.5s1.25-0.561,1.25-1.25S12.69,1,12,1z"/>
	<path d="M8.501,8C8.459,8,8.417,7.995,8.376,7.985C8.247,7.952,8.139,7.87,8.07,7.756s-0.088-0.25-0.054-0.379
		c0.372-1.459,1.51-2.596,2.968-2.968c0.336-0.086,0.68-0.129,1.023-0.129c0.732,0,1.455,0.2,2.092,0.578
		c0.944,0.561,1.614,1.456,1.885,2.52c0.033,0.129,0.014,0.264-0.054,0.379s-0.177,0.196-0.306,0.229C15.584,7.995,15.542,8,15.5,8
		c-0.229,0-0.428-0.155-0.484-0.376c-0.206-0.805-0.712-1.483-1.427-1.907c-0.482-0.286-1.029-0.437-1.583-0.437
		c-0.259,0-0.52,0.033-0.775,0.098C10.127,5.659,9.266,6.52,8.985,7.624C8.928,7.846,8.729,8,8.501,8z"/>
	<path d="M20,20.5c-1.241,0-2.25-1.009-2.25-2.25S18.76,16,20,16s2.25,1.009,2.25,2.25S21.241,20.5,20,20.5z M20,17
		c-0.689,0-1.25,0.561-1.25,1.25S19.311,19.5,20,19.5s1.25-0.561,1.25-1.25S20.69,17,20,17z"/>
	<path d="M16.501,24.001c-0.042,0-0.084-0.005-0.125-0.016c-0.128-0.033-0.237-0.114-0.305-0.229s-0.088-0.249-0.054-0.379
		c0.372-1.459,1.509-2.597,2.968-2.968c0.333-0.085,0.675-0.128,1.016-0.128c1.881,0,3.52,1.273,3.985,3.096
		c0.033,0.129,0.014,0.264-0.054,0.379c-0.068,0.115-0.177,0.196-0.307,0.229C23.584,23.995,23.542,24,23.5,24
		c-0.229,0-0.428-0.155-0.484-0.376c-0.352-1.38-1.592-2.343-3.016-2.343c-0.258,0-0.517,0.032-0.769,0.097
		c-1.104,0.281-1.965,1.142-2.247,2.247C16.928,23.846,16.729,24.001,16.501,24.001z"/>
	<path d="M4,20.5c-1.241,0-2.25-1.009-2.25-2.25S2.76,16,4,16s2.25,1.009,2.25,2.25S5.241,20.5,4,20.5z M4,17
		c-0.689,0-1.25,0.561-1.25,1.25S3.311,19.5,4,19.5s1.25-0.561,1.25-1.25S4.69,17,4,17z"/>
	<path d="M0.501,24.001c-0.042,0-0.084-0.005-0.125-0.016c-0.267-0.068-0.428-0.341-0.36-0.608c0.372-1.459,1.51-2.597,2.968-2.968
		c0.336-0.086,0.68-0.129,1.023-0.129c0.732,0,1.455,0.2,2.092,0.578c0.944,0.561,1.614,1.456,1.885,2.52
		c0.033,0.129,0.014,0.264-0.055,0.379c-0.068,0.115-0.177,0.196-0.307,0.229C7.584,23.995,7.542,24,7.5,24
		c-0.229,0-0.428-0.155-0.484-0.376c-0.205-0.805-0.712-1.483-1.427-1.907C5.107,21.431,4.56,21.28,4.006,21.28
		c-0.259,0-0.52,0.033-0.775,0.097c-1.104,0.281-1.965,1.142-2.247,2.247C0.928,23.846,0.729,24.001,0.501,24.001z"/>
	<path d="M12,21.997c-1.1,0-2.18-0.176-3.21-0.523c-0.126-0.042-0.229-0.132-0.288-0.251c-0.059-0.12-0.068-0.255-0.026-0.382
		C8.545,20.637,8.735,20.5,8.95,20.5c0.055,0,0.109,0.009,0.161,0.027c0.926,0.312,1.899,0.47,2.889,0.47s1.963-0.158,2.89-0.471
		c0.052-0.018,0.106-0.027,0.16-0.027c0.214,0,0.405,0.137,0.473,0.341c0.042,0.126,0.033,0.262-0.026,0.382
		c-0.06,0.12-0.162,0.209-0.289,0.252C14.18,21.821,13.1,21.997,12,21.997z"/>
	<path d="M21.383,14c-0.026,0-0.053-0.002-0.08-0.006c-0.131-0.021-0.246-0.092-0.325-0.2s-0.11-0.24-0.089-0.373
		c0.62-3.899-1.335-7.706-4.865-9.474c-0.246-0.124-0.346-0.425-0.223-0.671C15.887,3.106,16.058,3,16.248,3
		c0.077,0,0.155,0.018,0.224,0.053c3.921,1.965,6.093,6.194,5.404,10.526C21.837,13.823,21.63,14,21.383,14z"/>
	<path d="M2.618,14c-0.247,0-0.454-0.177-0.493-0.421C1.436,9.247,3.608,5.017,7.53,3.053C7.599,3.019,7.676,3,7.754,3
		c0.19,0,0.362,0.106,0.447,0.276c0.06,0.12,0.07,0.255,0.027,0.382c-0.042,0.127-0.131,0.229-0.25,0.289
		c-3.531,1.768-5.486,5.575-4.866,9.474c0.043,0.272-0.143,0.529-0.415,0.572C2.671,13.998,2.644,14,2.618,14z"/>
</g>
</svg>
