<?xml version="1.0" encoding="utf-8"?>
<!-- Generator: Adobe Illustrator 22.1.0, SVG Export Plug-In . SVG Version: 6.00 Build 0)  -->
<svg version="1.1" id="Layer_1" xmlns="http://www.w3.org/2000/svg" xmlns:xlink="http://www.w3.org/1999/xlink" x="0px" y="0px"
	 viewBox="0 0 24 24" style="enable-background:new 0 0 24 24;" xml:space="preserve">
<g>
	<title>human-resources-hierarchy-1</title>
	<path d="M13,20.5c-0.552,0-1-0.448-1-1v-7H9.5C9.224,12.5,9,12.276,9,12c0-0.276,0.224-0.5,0.5-0.5H12v-7c0-0.551,0.448-1,1-1h2.5
		C15.776,3.5,16,3.724,16,4s-0.224,0.5-0.5,0.5H13v15h2.5c0.276,0,0.5,0.224,0.5,0.5s-0.224,0.5-0.5,0.5H13z"/>
	<path d="M20,5c-1.241,0-2.25-1.009-2.25-2.25S18.759,0.5,20,0.5s2.25,1.009,2.25,2.25S21.241,5,20,5z M20,1.5
		c-0.689,0-1.25,0.561-1.25,1.25S19.311,4,20,4s1.25-0.561,1.25-1.25S20.689,1.5,20,1.5z"/>
	<path d="M16.5,8.5c-0.153,0-0.301-0.072-0.395-0.193c-0.095-0.123-0.128-0.28-0.09-0.43c0.372-1.459,1.509-2.597,2.968-2.969
		c0.333-0.085,0.675-0.128,1.017-0.128c1.881,0,3.519,1.273,3.984,3.097c0.038,0.151,0.006,0.308-0.089,0.43
		C23.801,8.428,23.653,8.5,23.5,8.5H16.5z M22.784,7.5c-0.521-1.042-1.599-1.72-2.785-1.72c-0.258,0-0.516,0.032-0.768,0.097
		c-0.882,0.225-1.613,0.82-2.014,1.623H22.784z"/>
	<path d="M20,20c-1.241,0-2.25-1.009-2.25-2.25S18.759,15.5,20,15.5s2.25,1.009,2.25,2.25S21.241,20,20,20z M20,16.5
		c-0.689,0-1.25,0.561-1.25,1.25S19.311,19,20,19s1.25-0.561,1.25-1.25S20.689,16.5,20,16.5z"/>
	<path d="M16.5,23.5c-0.153,0-0.301-0.072-0.395-0.193c-0.094-0.12-0.127-0.281-0.089-0.43c0.372-1.459,1.509-2.597,2.968-2.968
		c0.333-0.085,0.675-0.128,1.016-0.128c1.882,0,3.52,1.273,3.985,3.096c0.038,0.149,0.004,0.31-0.09,0.43
		C23.801,23.428,23.653,23.5,23.5,23.5H16.5z M22.784,22.5c-0.521-1.042-1.598-1.72-2.784-1.72c-0.258,0-0.517,0.032-0.769,0.097
		c-0.882,0.225-1.613,0.82-2.014,1.623H22.784z"/>
	<path d="M0.5,17.5C0.224,17.5,0,17.276,0,17c0-2.757,2.243-5,5-5s5,2.243,5,5c0,0.276-0.224,0.5-0.5,0.5H0.5z M8.969,16.5
		C8.722,14.517,7.027,13,5,13s-3.721,1.517-3.969,3.5H8.969z"/>
	<path d="M5,12c-1.792,0-3.25-1.458-3.25-3.25S3.208,5.5,5,5.5s3.25,1.458,3.25,3.25S6.792,12,5,12z M5,6.5
		c-1.241,0-2.25,1.009-2.25,2.25S3.76,11,5,11s2.25-1.009,2.25-2.25S6.241,6.5,5,6.5z"/>
</g>
</svg>
