<?xml version="1.0" encoding="utf-8"?>
<!-- Generator: Adobe Illustrator 22.1.0, SVG Export Plug-In . SVG Version: 6.00 Build 0)  -->
<svg version="1.1" id="Layer_1" xmlns="http://www.w3.org/2000/svg" xmlns:xlink="http://www.w3.org/1999/xlink" x="0px" y="0px"
	 viewBox="0 0 24 24" style="enable-background:new 0 0 24 24;" xml:space="preserve">
<g>
	<title>human-resources-woman-previous-1</title>
	<path d="M8.492,17.719c-0.203,0-0.385-0.122-0.462-0.31c-0.105-0.255,0.017-0.547,0.271-0.653c0.702-0.29,1.511-0.587,2.367-0.901
		l0.612-0.225c0.099-0.037,0.166-0.133,0.166-0.24v-0.164c-0.057,0.002-0.115,0.003-0.172,0.003c-1.406,0-2.753-0.435-3.896-1.258
		c-0.119-0.086-0.194-0.219-0.206-0.366c-0.012-0.147,0.042-0.291,0.146-0.394l0.028-0.027c0.578-0.574,0.926-0.921,1.08-3.192
		c0.123-1.816,0.786-3.287,1.917-4.253C11.277,4.94,12.518,4.5,13.835,4.5c1.318,0,2.559,0.44,3.495,1.239
		c1.132,0.967,1.794,2.438,1.915,4.254c0.153,2.265,0.501,2.612,1.076,3.188l0.032,0.032c0.104,0.104,0.157,0.247,0.145,0.394
		c-0.012,0.147-0.087,0.28-0.207,0.366c-1.134,0.818-2.477,1.251-3.883,1.251c-0.062,0-0.123-0.001-0.185-0.003v0.171
		c0,0.106,0.067,0.203,0.167,0.24l0.653,0.24c0.85,0.312,1.638,0.602,2.324,0.885c0.255,0.105,0.377,0.398,0.272,0.653
		c-0.078,0.188-0.259,0.31-0.463,0.31c-0.065,0-0.129-0.013-0.19-0.038c-0.675-0.278-1.459-0.566-2.288-0.871l-0.656-0.241
		c-0.49-0.182-0.82-0.655-0.82-1.177v-1.38c0-0.353,0.149-0.69,0.41-0.927c0.464-0.423,0.728-1.027,0.723-1.656V9.948
		c-0.956-0.225-1.82-0.7-2.522-1.384c-0.702,0.685-1.566,1.159-2.522,1.384v1.477c-0.004,0.632,0.26,1.236,0.725,1.659
		c0.26,0.238,0.408,0.576,0.408,0.927v1.38c0,0.522-0.329,0.996-0.819,1.178l-0.606,0.223c-0.85,0.312-1.652,0.607-2.338,0.89
		C8.62,17.707,8.557,17.719,8.492,17.719z M8.448,13.475c0.855,0.491,1.824,0.75,2.822,0.75c0.058,0,0.117-0.001,0.176-0.003v-0.21
		c0-0.072-0.03-0.14-0.083-0.189c-0.673-0.613-1.056-1.488-1.05-2.4V9.536c0-0.249,0.178-0.457,0.424-0.494
		c1.062-0.163,2.026-0.708,2.714-1.534c0.096-0.115,0.236-0.18,0.384-0.18c0.149,0,0.289,0.066,0.384,0.18
		c0.688,0.826,1.651,1.371,2.713,1.534c0.246,0.038,0.424,0.245,0.424,0.494v1.889c0.006,0.909-0.377,1.784-1.05,2.398
		c-0.053,0.048-0.083,0.117-0.083,0.188v0.21c0.061,0.002,0.122,0.003,0.182,0.003c0.996,0,1.963-0.258,2.816-0.75
		c-0.47-0.552-0.832-1.308-0.975-3.415c-0.146-2.204-1.381-4.56-4.412-4.56c-1.984,0-4.184,1.198-4.412,4.56
		C9.28,12.168,8.918,12.925,8.448,13.475z"/>
	<path d="M13.849,21.997c-0.269,0-0.489-0.211-0.499-0.48c-0.005-0.133,0.042-0.261,0.132-0.359c0.091-0.098,0.214-0.155,0.348-0.16
		c4.926-0.198,8.799-4.367,8.634-9.295C22.3,6.825,18.35,3.005,13.473,3.005c-0.102,0-0.204,0.002-0.306,0.005
		c-0.258,0.013-0.523,0.037-0.782,0.072C9.949,3.412,7.787,4.67,6.299,6.625c-1.24,1.628-1.897,3.61-1.88,5.64l2.705-3.091
		C7.219,9.065,7.356,9.003,7.5,9.003c0.121,0,0.238,0.044,0.329,0.124c0.207,0.182,0.228,0.498,0.047,0.705
		c0,0-3.495,3.995-3.497,3.996c-0.007,0.008-0.016,0.016-0.026,0.025c-0.041,0.04-0.082,0.069-0.127,0.092
		c-0.032,0.017-0.065,0.026-0.087,0.032c-0.004,0.003-0.031,0.013-0.068,0.018c-0.005,0-0.01,0.001-0.015,0.001
		C4.04,14.001,4.021,14.003,4,14.003c-0.004,0-0.024,0-0.027-0.001C3.92,14,3.884,13.985,3.868,13.979l-0.006-0.001
		c-0.119-0.035-0.216-0.103-0.278-0.197l-3-4.5c-0.074-0.111-0.1-0.245-0.074-0.375c0.026-0.131,0.102-0.244,0.213-0.318
		C0.804,8.532,0.9,8.503,0.999,8.503c0.168,0,0.323,0.083,0.416,0.223l2.01,3.015c0.086-2.075,0.796-4.038,2.078-5.721
		C7.154,3.852,9.55,2.457,12.25,2.091c0.287-0.039,0.582-0.066,0.875-0.081c0.117-0.004,0.229-0.006,0.341-0.006
		c5.424,0,9.815,4.245,9.997,9.664c0.184,5.475-4.119,10.108-9.593,10.328C13.866,21.997,13.853,21.997,13.849,21.997z"/>
</g>
</svg>
