<?xml version="1.0" encoding="utf-8"?>
<!-- Generator: Adobe Illustrator 22.1.0, SVG Export Plug-In . SVG Version: 6.00 Build 0)  -->
<svg version="1.1" id="Layer_1" xmlns="http://www.w3.org/2000/svg" xmlns:xlink="http://www.w3.org/1999/xlink" x="0px" y="0px"
	 viewBox="0 0 24 24" style="enable-background:new 0 0 24 24;" xml:space="preserve">
<g>
	<title>human-resources-businessman-mail</title>
	<path d="M18.5,14.503c-0.276,0-0.5-0.224-0.5-0.5v-3c0-0.276,0.224-0.5,0.5-0.5s0.5,0.224,0.5,0.5v3
		C19,14.279,18.776,14.503,18.5,14.503z"/>
	<path d="M16.5,24.003c-0.258,0-0.477-0.201-0.498-0.458l-0.462-5.542H13.5c-0.276,0-0.5-0.224-0.5-0.5v-3.5
		c0-3.033,2.467-5.5,5.5-5.5s5.5,2.467,5.5,5.5v3.5c0,0.276-0.224,0.5-0.5,0.5h-2.04l-0.462,5.542
		c-0.021,0.257-0.24,0.458-0.498,0.458H16.5z M20.04,23.003l0.462-5.542c0.021-0.257,0.24-0.458,0.498-0.458h2v-3
		c0-2.481-2.019-4.5-4.5-4.5s-4.5,2.019-4.5,4.5v3h2c0.258,0,0.477,0.201,0.498,0.458l0.462,5.542H20.04z"/>
	<path d="M18.5,8.003c-2.206,0-4-1.794-4-4c0-1.647,1.038-3.149,2.583-3.736l0.042-0.015c0.129-0.047,0.238-0.081,0.349-0.11
		c0.041-0.011,0.083-0.022,0.126-0.033c0.091-0.021,0.182-0.037,0.273-0.052l0.038-0.008c0.028-0.006,0.056-0.012,0.085-0.015
		c0.016-0.002,0.031-0.003,0.046-0.004c0.045-0.004,0.078-0.007,0.112-0.009l0.041-0.003c0.094-0.007,0.188-0.013,0.281-0.014
		c0.013,0,0.023,0,0.031,0c0.02,0,0.031,0.001,0.043,0.002c0.123,0.003,0.23,0.007,0.336,0.017l0.08,0.01
		c0.105,0.012,0.209,0.027,0.312,0.048c0.022,0.004,0.094,0.021,0.094,0.021c0.094,0.021,0.188,0.044,0.281,0.072
		c0.029,0.009,0.117,0.039,0.117,0.039c0.081,0.027,0.162,0.056,0.241,0.089c0.038,0.016,0.077,0.033,0.115,0.051l0.026,0.012
		c0.068,0.031,0.135,0.062,0.2,0.096c0.053,0.028,0.104,0.058,0.156,0.088c0.06,0.035,0.114,0.067,0.167,0.101
		c0.061,0.039,0.119,0.082,0.178,0.125c0.051,0.037,0.087,0.063,0.123,0.092c0.067,0.052,0.131,0.108,0.194,0.165
		c0,0,0.064,0.058,0.084,0.077c0.073,0.069,0.143,0.142,0.211,0.217l0.041,0.045C22.146,2.101,22.5,3.036,22.5,4.003
		C22.5,6.208,20.706,8.003,18.5,8.003z M15.654,3.061C15.552,3.366,15.5,3.681,15.5,4.003c0,1.654,1.346,3,3,3
		c1.576,0,2.873-1.222,2.991-2.768c-0.589,0.178-1.2,0.268-1.82,0.268c-0.002,0-0.006,0-0.006,0
		C18.219,4.503,16.776,3.981,15.654,3.061z M19.686,3.503c0.591-0.004,1.156-0.099,1.698-0.284
		c-0.149-0.567-0.459-1.071-0.906-1.466c-0.069-0.061-0.131-0.11-0.194-0.157l-0.044-0.033c-0.055-0.04-0.112-0.076-0.168-0.111
		c-0.031-0.019-0.055-0.034-0.079-0.048c-0.049-0.028-0.099-0.054-0.15-0.08c-0.038-0.019-0.076-0.038-0.114-0.055
		c-0.043-0.019-0.086-0.037-0.129-0.055c-0.049-0.019-0.1-0.038-0.151-0.055c-0.035-0.012-0.071-0.023-0.106-0.033
		c-0.062-0.018-0.126-0.035-0.189-0.049l-0.082-0.018c-0.073-0.014-0.148-0.025-0.224-0.034l-0.061-0.007
		c-0.081-0.008-0.163-0.011-0.246-0.012l-0.055-0.001c-0.078,0-0.154,0.005-0.229,0.012L18.17,1.022
		c-0.04,0.004-0.079,0.011-0.117,0.018l-0.036,0.006c-0.067,0.011-0.12,0.02-0.172,0.031c-0.022,0.005-0.101,0.026-0.101,0.026
		c-0.073,0.02-0.147,0.041-0.22,0.066l-0.03,0.011c-0.542,0.201-1.01,0.545-1.35,0.984c0.963,0.851,2.232,1.336,3.517,1.338
		c0.003,0,0.005,0,0.008,0C19.673,3.503,19.686,3.503,19.686,3.503z"/>
	<path d="M1.5,9.003c-0.827,0-1.5-0.673-1.5-1.5v-6c0-0.827,0.673-1.5,1.5-1.5h10c0.827,0,1.5,0.673,1.5,1.5v6
		c0,0.827-0.673,1.5-1.5,1.5H1.5z M1,7.503c0,0.276,0.224,0.5,0.5,0.5h10c0.276,0,0.5-0.224,0.5-0.5V3.257L7.328,5.472
		c-0.195,0.092-0.411,0.14-0.626,0.14c-0.204,0-0.402-0.042-0.589-0.124L1,3.234V7.503z M6.516,4.573
		c0.059,0.026,0.121,0.039,0.186,0.039c0.068,0,0.137-0.015,0.199-0.045L12,2.151V1.503c0-0.276-0.224-0.5-0.5-0.5h-10
		c-0.276,0-0.5,0.224-0.5,0.5v0.638L6.516,4.573z"/>
</g>
</svg>
