<?xml version="1.0" encoding="utf-8"?>
<!-- Generator: Adobe Illustrator 22.1.0, SVG Export Plug-In . SVG Version: 6.00 Build 0)  -->
<svg version="1.1" id="Layer_1" xmlns="http://www.w3.org/2000/svg" xmlns:xlink="http://www.w3.org/1999/xlink" x="0px" y="0px"
	 viewBox="0 0 24 24" style="enable-background:new 0 0 24 24;" xml:space="preserve">
<g>
	<title>human-resources-offer-man</title>
	<path d="M1.25,23.5c-0.276,0-0.5-0.224-0.5-0.5V13c0-0.276,0.224-0.5,0.5-0.5s0.5,0.224,0.5,0.5v1.5h6.5c1.74,0,3.219,1.3,3.464,3
		h5.536c1.93,0,3.5,1.57,3.5,3.5c0,0.276-0.224,0.5-0.5,0.5H1.75V23C1.75,23.276,1.526,23.5,1.25,23.5z M19.7,20.5
		c-0.235-1.141-1.261-2-2.449-2h-9c-0.276,0-0.5-0.224-0.5-0.5s0.224-0.5,0.5-0.5h2.448c-0.235-1.141-1.261-2-2.448-2h-6.5v5H19.7z"
		/>
	<path d="M11.75,13c-0.2,0-0.38-0.119-0.459-0.303c-0.053-0.122-0.054-0.258-0.005-0.382c0.05-0.124,0.144-0.221,0.267-0.274
		l3.197-1.37V9.268c-0.359-0.296-0.856-0.957-0.935-2.377C13.302,6.646,13.07,6.038,13.07,5.5c0-0.358,0.094-0.7,0.265-0.961
		c0.082-0.125,0.182-0.232,0.295-0.316c-0.307-0.592-0.674-1.361-0.263-1.905c0.188-0.248,0.486-0.374,0.887-0.374
		c0.049,0,0.1,0.002,0.153,0.006c0.566-1.066,2.07-1.449,3.232-1.449c1.461,0,3.077,0.582,3.396,1.881
		c0.121,0.646,0.042,1.305-0.22,1.888c0.266,0.245,0.415,0.639,0.415,1.118c0,0.54-0.193,1.17-0.621,1.459
		c-0.063,1.453-0.525,2.12-0.859,2.414v1.41l3.197,1.37c0.123,0.053,0.218,0.15,0.267,0.274c0.05,0.124,0.048,0.26-0.005,0.383
		C23.132,12.881,22.951,13,22.75,13c-0.069,0-0.135-0.014-0.198-0.041l-3.499-1.5C18.87,11.381,18.75,11.201,18.75,11V9
		c0-0.197,0.114-0.373,0.292-0.455c0.056-0.039,0.574-0.441,0.574-2.045c0-0.258,0.196-0.471,0.448-0.497
		c0.058-0.069,0.166-0.302,0.166-0.616C20.23,5.2,20.181,5,20.109,5c-0.188,0-0.358-0.104-0.444-0.27
		c-0.086-0.168-0.072-0.366,0.036-0.519c0.331-0.467,0.46-1.057,0.356-1.62C19.883,1.88,18.707,1.5,17.639,1.5
		c-1.069,0-2.245,0.384-2.426,1.119C15.158,2.844,14.958,3,14.728,3c-0.034,0-0.068-0.004-0.102-0.01
		c-0.146-0.031-0.276-0.047-0.375-0.047c-0.028,0-0.05,0.001-0.068,0.003c0.014,0.11,0.094,0.355,0.381,0.905
		c0.156,0.299,0.241,0.463,0.241,0.649c0,0.276-0.224,0.5-0.5,0.5c-0.041,0-0.081,0.007-0.133,0.086
		C14.108,5.184,14.07,5.339,14.07,5.5c0,0.157,0.059,0.5,0.236,0.5c0.276,0,0.5,0.224,0.5,0.5c0,1.694,0.637,2.038,0.644,2.042
		C15.626,8.616,15.75,8.802,15.75,9v2c0,0.201-0.119,0.381-0.303,0.46l-3.5,1.5C11.885,12.987,11.819,13,11.75,13z"/>
</g>
</svg>
