<?xml version="1.0" encoding="utf-8"?>
<!-- Generator: Adobe Illustrator 22.1.0, SVG Export Plug-In . SVG Version: 6.00 Build 0)  -->
<svg version="1.1" id="Layer_1" xmlns="http://www.w3.org/2000/svg" xmlns:xlink="http://www.w3.org/1999/xlink" x="0px" y="0px"
	 viewBox="0 0 24 24" style="enable-background:new 0 0 24 24;" xml:space="preserve">
<g>
	<title>human-resources-employee</title>
	<path d="M9.429,8.988c-0.089,0-0.179-0.012-0.266-0.035c-0.265-0.071-0.485-0.24-0.622-0.477C8.383,8.202,8.36,7.864,8.482,7.571
		L9.284,5.73l-1.4-0.976C7.869,4.743,7.853,4.731,7.839,4.718C7.43,4.357,7.392,3.731,7.753,3.322C7.94,3.11,8.209,2.988,8.49,2.988
		l0.045,0.001l1.633,0l0.907-2.391c0.007-0.019,0.015-0.037,0.025-0.055c0.177-0.342,0.528-0.555,0.916-0.555
		c0.164,0,0.327,0.04,0.473,0.115c0.19,0.099,0.343,0.251,0.441,0.441c0.01,0.019,0.018,0.036,0.024,0.054l0.905,2.39
		c0,0,1.655,0,1.656,0c0.546,0,0.987,0.427,1.007,0.952c0.011,0.296-0.109,0.579-0.33,0.776c-0.015,0.013-0.03,0.025-0.045,0.036
		L14.745,5.73l0.798,1.833c0.219,0.527-0.028,1.13-0.549,1.346c-0.124,0.052-0.256,0.078-0.392,0.078
		c-0.18,0-0.358-0.047-0.513-0.137l-2.074-1.166l-2.08,1.169C9.784,8.941,9.608,8.988,9.429,8.988z M10.192,5.144
		c0.195,0.136,0.267,0.392,0.173,0.61L9.402,7.962L9.357,8.229l0.064-0.242l2.349-1.312c0.074-0.042,0.159-0.064,0.245-0.064
		c0.086,0,0.17,0.022,0.245,0.064l2.324,1.307c0.001,0,0.026,0.004,0.026,0.004c0.012-0.005,0.018-0.02,0.013-0.032l-0.959-2.201
		c-0.095-0.218-0.022-0.474,0.172-0.61l1.682-1.173l-2.005,0.018c-0.207,0-0.394-0.13-0.468-0.323l-1.009-2.665l-0.022-0.013
		c-0.006,0-0.014,0.002-0.021,0.008l-1.012,2.67c-0.073,0.193-0.261,0.323-0.468,0.323H8.535L10.192,5.144z"/>
	<path d="M1.915,12.988c-0.366,0-0.706-0.196-0.888-0.512c-0.159-0.274-0.181-0.613-0.059-0.906L1.77,9.73l-1.4-0.976
		C0.355,8.743,0.34,8.731,0.325,8.719c-0.409-0.361-0.448-0.988-0.087-1.396C0.426,7.11,0.694,6.988,0.974,6.988l0.048,0.001
		l1.632-0.001l0.907-2.391C3.57,4.578,3.578,4.56,3.587,4.543c0.177-0.342,0.528-0.555,0.916-0.555c0.164,0,0.327,0.04,0.473,0.116
		c0.19,0.099,0.342,0.251,0.441,0.441C5.426,4.562,5.434,4.58,5.44,4.598l0.905,2.391h0.661c0.276,0,0.5,0.224,0.5,0.5
		s-0.224,0.5-0.5,0.5H6c-0.207,0-0.395-0.13-0.468-0.323L4.524,5.001C4.517,4.997,4.502,4.988,4.502,4.988L3.467,7.666
		C3.394,7.859,3.206,7.989,3,7.989H1.021l1.657,1.155c0.195,0.135,0.267,0.392,0.173,0.61l-0.962,2.209l0.026,0.026l2.341-1.313
		c0.075-0.042,0.16-0.064,0.245-0.064s0.17,0.022,0.245,0.064l2.323,1.307l0.122,0.235l-0.096-0.231
		c0.01-0.004,0.017-0.021,0.013-0.031L6.148,9.753c-0.095-0.218-0.022-0.474,0.173-0.61l0.9-0.626
		c0.085-0.059,0.183-0.09,0.286-0.09c0.164,0,0.317,0.08,0.411,0.215c0.157,0.226,0.101,0.538-0.125,0.696L7.229,9.73l0.798,1.833
		C8.247,12.09,8,12.692,7.479,12.909c-0.125,0.052-0.257,0.078-0.393,0.078l0,0c-0.181,0-0.358-0.048-0.514-0.137L4.5,11.685
		l-2.079,1.169C2.269,12.941,2.094,12.988,1.915,12.988z"/>
	<path d="M22.102,12.989c-0.18,0-0.357-0.048-0.514-0.14l-2.073-1.165l-2.079,1.169c-0.151,0.087-0.327,0.134-0.507,0.134
		c-0.136,0-0.269-0.026-0.394-0.078c-0.252-0.105-0.449-0.302-0.553-0.555c-0.104-0.253-0.104-0.532,0.001-0.784l0.8-1.84
		l-0.563-0.392c-0.226-0.157-0.282-0.47-0.125-0.696c0.093-0.134,0.247-0.215,0.411-0.215c0.103,0,0.201,0.031,0.286,0.09l0.9,0.626
		c0.195,0.136,0.268,0.392,0.173,0.61l-0.961,2.209c0,0,0.017,0.024,0.017,0.024l2.35-1.312c0.075-0.042,0.16-0.064,0.245-0.064
		s0.17,0.022,0.245,0.064l2.324,1.307c0.001,0,0.025,0.006,0.025,0.006l0.247-0.129l-0.229,0.1l-0.961-2.206
		c-0.095-0.218-0.022-0.474,0.172-0.61l1.685-1.174l-2.006,0.019c-0.206,0-0.394-0.13-0.467-0.323l-1.015-2.67
		c-0.006-0.006-0.014-0.008-0.021-0.008l-1.031,2.678c-0.073,0.193-0.261,0.323-0.468,0.323h-1.008c-0.276,0-0.5-0.224-0.5-0.5
		s0.224-0.5,0.5-0.5h0.663l0.906-2.391c0.007-0.017,0.015-0.035,0.023-0.052c0.099-0.191,0.251-0.343,0.441-0.442
		c0.146-0.076,0.31-0.116,0.474-0.116c0.387,0,0.739,0.213,0.917,0.557c0.009,0.018,0.017,0.035,0.024,0.053l0.908,2.391
		c0,0,1.656,0,1.657,0c0.304,0,0.573,0.122,0.76,0.334c0.361,0.408,0.322,1.034-0.086,1.396c-0.013,0.012-0.029,0.024-0.044,0.035
		L22.247,9.73l0.798,1.833c0.125,0.299,0.104,0.641-0.057,0.917c-0.138,0.237-0.359,0.406-0.624,0.475
		C22.278,12.978,22.19,12.989,22.102,12.989z"/>
	<path d="M12.043,19.989c-2.068,0-3.75-1.682-3.75-3.75s1.682-3.75,3.75-3.75c2.068,0,3.75,1.682,3.75,3.75
		S14.111,19.989,12.043,19.989z M12.043,13.489c-1.516,0-2.75,1.234-2.75,2.75s1.234,2.75,2.75,2.75s2.75-1.234,2.75-2.75
		S13.559,13.489,12.043,13.489z"/>
	<path d="M16.493,23.989c-0.17,0-0.327-0.085-0.42-0.228c-0.901-1.386-2.429-2.213-4.089-2.213c-0.94,0-1.855,0.271-2.645,0.785
		c-0.575,0.374-1.055,0.854-1.428,1.428c-0.092,0.142-0.249,0.228-0.419,0.228c-0.097,0-0.191-0.028-0.272-0.081
		c-0.231-0.15-0.297-0.461-0.146-0.692c0.45-0.692,1.029-1.271,1.722-1.722c0.952-0.619,2.055-0.946,3.189-0.946
		c2,0,3.842,0.997,4.928,2.668c0.15,0.231,0.084,0.541-0.147,0.692C16.685,23.961,16.59,23.989,16.493,23.989L16.493,23.989z"/>
</g>
</svg>
