<?xml version="1.0" encoding="utf-8"?>
<!-- Generator: Adobe Illustrator 22.1.0, SVG Export Plug-In . SVG Version: 6.00 Build 0)  -->
<svg version="1.1" id="Layer_1" xmlns="http://www.w3.org/2000/svg" xmlns:xlink="http://www.w3.org/1999/xlink" x="0px" y="0px"
	 viewBox="0 0 24 24" style="enable-background:new 0 0 24 24;" xml:space="preserve">
<g>
	<title>human-resources-rating-man</title>
	<path d="M9.43,9.004c-0.089,0-0.179-0.012-0.266-0.035c-0.265-0.071-0.485-0.24-0.622-0.477C8.383,8.218,8.361,7.879,8.483,7.587
		l0.802-1.841l-1.4-0.976C7.87,4.76,7.856,4.749,7.843,4.737c-0.412-0.357-0.457-0.983-0.1-1.396
		C7.93,3.124,8.205,2.999,8.495,2.999L8.537,3l1.633,0l0.906-2.386c0.007-0.019,0.015-0.037,0.025-0.054
		c0.126-0.243,0.34-0.423,0.602-0.507c0.102-0.032,0.207-0.049,0.313-0.049c0.163,0,0.327,0.04,0.473,0.116
		c0.19,0.098,0.342,0.251,0.441,0.441c0.009,0.018,0.017,0.035,0.024,0.053L13.86,3c0,0,1.655,0,1.656,0
		c0.546,0,0.987,0.426,1.008,0.95c0.012,0.298-0.109,0.582-0.332,0.78c-0.016,0.014-0.03,0.025-0.045,0.035l-1.402,0.98l0.799,1.834
		c0.108,0.259,0.109,0.539,0.005,0.791c-0.104,0.253-0.301,0.45-0.553,0.555c-0.125,0.052-0.258,0.078-0.394,0.078
		c-0.181,0-0.358-0.047-0.513-0.137l-2.074-1.167l-2.08,1.17C9.784,8.957,9.608,9.004,9.43,9.004z M10.192,5.159
		c0.195,0.136,0.267,0.392,0.173,0.61L9.403,7.978L9.357,8.245l0.063-0.242l2.35-1.313c0.075-0.042,0.16-0.064,0.245-0.064
		c0.086,0,0.17,0.022,0.245,0.064l2.324,1.308c0,0,0.026,0.004,0.026,0.004l0.244-0.127l-0.229,0.1l-0.96-2.205
		c-0.094-0.218-0.022-0.474,0.172-0.609l1.684-1.178L13.515,4c-0.206,0-0.394-0.13-0.467-0.323l-1.01-2.66
		c-0.008-0.005-0.022-0.013-0.022-0.013l-1.034,2.673C10.908,3.87,10.721,4,10.514,4H8.528L10.192,5.159z"/>
	<path d="M1.916,13.004c-0.089,0-0.179-0.012-0.266-0.035c-0.265-0.071-0.485-0.24-0.622-0.477
		c-0.159-0.274-0.181-0.613-0.059-0.906L1.77,9.746l-1.4-0.976c-0.016-0.011-0.03-0.022-0.043-0.034
		C0.13,8.565,0.009,8.324-0.01,8.06c-0.019-0.264,0.065-0.519,0.238-0.719c0.188-0.218,0.462-0.342,0.752-0.342L1.023,7l1.633,0
		l0.907-2.391C3.57,4.59,3.578,4.572,3.587,4.555C3.764,4.213,4.116,4,4.503,4C4.667,4,4.83,4.04,4.976,4.115
		c0.19,0.098,0.343,0.251,0.441,0.441c0.009,0.017,0.017,0.035,0.023,0.053L6.346,7h0.662c0.276,0,0.5,0.224,0.5,0.5
		S7.283,8,7.008,8H6.001C5.794,8,5.606,7.87,5.533,7.676L4.524,5.012L4.503,5C4.496,5,4.488,5.002,4.481,5.008L3.468,7.677
		C3.395,7.87,3.207,8,3.001,8H1.014l1.664,1.16c0.195,0.135,0.267,0.392,0.173,0.61l-0.962,2.209l-0.045,0.266l0.063-0.242
		l2.349-1.313c0.075-0.042,0.159-0.064,0.245-0.064c0.086,0,0.17,0.022,0.245,0.064l2.323,1.308l0.122,0.235l-0.096-0.231
		c0.012-0.005,0.018-0.019,0.013-0.031L6.149,9.769c-0.095-0.218-0.022-0.475,0.173-0.61l0.9-0.626
		c0.084-0.059,0.183-0.09,0.285-0.09c0.164,0,0.317,0.08,0.411,0.215C7.994,8.768,8.023,8.901,8,9.032
		C7.976,9.164,7.903,9.278,7.793,9.354L7.23,9.746l0.798,1.833c0.219,0.527-0.027,1.129-0.549,1.346
		c-0.124,0.052-0.257,0.078-0.393,0.078l0,0c-0.181,0-0.358-0.048-0.514-0.137l-2.072-1.167l-2.079,1.17
		C2.27,12.957,2.095,13.004,1.916,13.004z"/>
	<path d="M22.103,13.005c-0.18,0-0.358-0.048-0.514-0.139l-2.073-1.166l-2.079,1.17c-0.151,0.087-0.327,0.135-0.507,0.135
		c-0.136,0-0.268-0.026-0.393-0.078c-0.522-0.217-0.769-0.818-0.553-1.339l0.801-1.841l-0.563-0.392
		c-0.11-0.076-0.183-0.191-0.207-0.322c-0.024-0.131,0.005-0.264,0.082-0.374c0.093-0.134,0.247-0.215,0.411-0.215
		c0.103,0,0.201,0.031,0.286,0.09l0.9,0.626c0.195,0.136,0.268,0.392,0.173,0.61l-0.961,2.209c-0.001,0.004,0.003,0.019,0.017,0.024
		l2.35-1.312c0.075-0.042,0.16-0.064,0.245-0.064s0.17,0.022,0.245,0.064l2.324,1.308c0,0,0.039-0.005,0.04-0.005l-0.96-2.223
		c-0.095-0.218-0.022-0.474,0.172-0.61l1.684-1.174l-2.006,0.018c-0.207,0-0.395-0.13-0.468-0.323l-1.01-2.663l-0.023-0.013
		l-1.031,2.673C18.41,7.87,18.222,8,18.016,8h-1.008c-0.276,0-0.5-0.224-0.5-0.5s0.224-0.5,0.5-0.5h0.663l0.906-2.386
		c0.007-0.018,0.014-0.035,0.023-0.052c0.099-0.191,0.251-0.343,0.441-0.442c0.147-0.076,0.311-0.116,0.474-0.116
		c0.106,0,0.211,0.016,0.313,0.049c0.263,0.083,0.477,0.264,0.604,0.509c0.009,0.018,0.018,0.038,0.025,0.058l0.905,2.385l1.68,0
		c0.278,0,0.546,0.121,0.734,0.333c0.176,0.198,0.264,0.452,0.248,0.716c-0.016,0.264-0.133,0.506-0.331,0.682
		c-0.014,0.013-0.029,0.024-0.043,0.034l-1.403,0.978l0.8,1.833c0.125,0.3,0.104,0.642-0.057,0.917
		C22.806,12.809,22.466,13.005,22.103,13.005z"/>
	<path d="M12.058,20.004c-2.068,0-3.75-1.682-3.75-3.75s1.682-3.75,3.75-3.75c2.068,0,3.75,1.682,3.75,3.75
		S14.125,20.004,12.058,20.004z M9.435,15.433c-0.084,0.266-0.127,0.541-0.127,0.82c0,1.516,1.234,2.75,2.75,2.75
		c1.427,0,2.604-1.093,2.737-2.486c-0.531,0.154-1.079,0.232-1.636,0.232C11.795,16.75,10.487,16.285,9.435,15.433z M9.914,14.534
		c0.893,0.783,2.036,1.212,3.243,1.212c0.53,0,1.048-0.084,1.545-0.25c-0.334-1.167-1.414-1.993-2.644-1.993
		C11.221,13.504,10.435,13.885,9.914,14.534z"/>
	<path d="M7.507,24c-0.097,0-0.191-0.028-0.272-0.081c-0.112-0.073-0.189-0.185-0.217-0.316c-0.028-0.131-0.003-0.264,0.07-0.376
		c0.449-0.692,1.029-1.271,1.722-1.722c0.956-0.621,2.057-0.949,3.186-0.949c0.41,0,0.824,0.043,1.229,0.129
		c1.533,0.325,2.848,1.228,3.702,2.542c0.15,0.231,0.084,0.541-0.147,0.692C16.699,23.972,16.605,24,16.508,24
		c-0.17,0-0.327-0.085-0.419-0.227c-0.708-1.09-1.799-1.839-3.071-2.109c-0.337-0.072-0.68-0.108-1.021-0.108
		c-0.935,0-1.849,0.273-2.642,0.788C8.78,22.717,8.3,23.198,7.927,23.772C7.834,23.915,7.677,24,7.507,24z"/>
</g>
</svg>
