<?xml version="1.0" encoding="utf-8"?>
<!-- Generator: Adobe Illustrator 22.1.0, SVG Export Plug-In . SVG Version: 6.00 Build 0)  -->
<svg version="1.1" id="Light" xmlns="http://www.w3.org/2000/svg" xmlns:xlink="http://www.w3.org/1999/xlink" x="0px" y="0px"
	 viewBox="0 0 24 24" style="enable-background:new 0 0 24 24;" xml:space="preserve">
<g>
	<title>dancing-ballet</title>
	<path d="M4,24c-2.393,0-4-1.406-4-3.5V6c0.042-1.125,0.391-2.201,1.007-3.124C1.303,2.108,1.469,1.302,1.501,0.48
		c0.01-0.27,0.227-0.481,0.494-0.481C2-0.001,2.02,0,2.025,0c0.128,0.005,0.251,0.062,0.342,0.16C2.458,0.258,2.505,0.385,2.5,0.519
		C2.472,1.245,2.35,1.965,2.137,2.662C2.752,2.939,3.452,3.535,4,4.063c0.548-0.528,1.249-1.125,1.864-1.402
		C5.651,1.964,5.529,1.245,5.501,0.519C5.496,0.386,5.543,0.258,5.633,0.16C5.724,0.062,5.847,0.005,5.981,0c0,0,0.001,0,0.001,0
		C6.271,0,6.49,0.211,6.5,0.48c0.032,0.822,0.198,1.627,0.493,2.395C7.61,3.798,7.958,4.871,8,5.981L8,20.5C8,22.593,6.393,24,4,24z
		 M1,20.5C1,22.227,2.507,23,4,23s3-0.773,3-2.5v-3.362C6.248,17.992,5.156,18.5,4,18.5s-2.247-0.508-3-1.362V20.5z M4,5.512
		C2.356,7.286,1,9.306,1,10v4.5c0,1.654,1.346,3,3,3s3-1.346,3-3V10C7,9.306,5.644,7.286,4,5.512z M1.749,3.573
		C1.291,4.31,1.033,5.151,1,6.019l0,1.702c0.612-0.948,1.446-2.02,2.294-2.935C2.655,4.164,2.11,3.737,1.749,3.573z M4.707,4.786
		C5.555,5.701,6.389,6.772,7,7.721V6C6.968,5.147,6.71,4.309,6.252,3.573C5.891,3.737,5.346,4.164,4.707,4.786z"/>
	<path d="M15.628,24c-1.182-0.027-2.186-0.845-2.445-1.99c-0.391-1.481-0.694-3.578-0.898-6.222
		c-0.001-0.011-0.002-0.021-0.002-0.032C11.87,10.39,11.999,4.67,12.001,4.613l0-4.113c0-0.276,0.224-0.5,0.5-0.5
		c0.276,0,0.5,0.224,0.5,0.5v2.496c0.018,1.14,2.008,3.118,3.363,4.266c0.458-1.248,1.238-2.763,2.812-3.422
		c-1.285-0.919-2.175-2.542-2.175-3.34c0-0.276,0.224-0.5,0.5-0.5s0.5,0.224,0.5,0.5c0,0.772,1.525,3,3,3
		c0.043,0,0.085,0.005,0.126,0.016c0.442,0.115,0.877,0.271,1.293,0.463c0.208,0.077,0.431,0.204,0.629,0.361
		c0.524,0.413,0.857,1.006,0.936,1.669c0.079,0.663-0.106,1.318-0.519,1.842l-0.257,0.326c-2.161,2.735-4.202,5.319-4.207,13.545
		c0.006,0.054,0.01,0.109,0.011,0.164c0.032,1.135-0.864,2.083-1.997,2.115c-0.002,0-0.005,0-0.007,0H15.628z M13.308,16.053
		c0.199,2.419,0.483,4.343,0.846,5.719c0.161,0.71,0.771,1.212,1.485,1.228h1.361c0.571-0.016,1.028-0.503,1.011-1.085
		c-0.001-0.035-0.003-0.07-0.008-0.105c-0.002-0.02-0.004-0.04-0.004-0.06c0-8.596,2.148-11.315,4.422-14.193l0.257-0.325
		c0.248-0.315,0.359-0.707,0.311-1.105s-0.247-0.754-0.562-1.001c-0.12-0.095-0.254-0.17-0.397-0.225
		c-0.373-0.171-0.726-0.3-1.093-0.399c-2.998,0.039-3.69,2.878-4.423,5.885C15.927,12.802,15.319,15.298,13.308,16.053z
		 M12.991,5.238c-0.019,1.532-0.038,5.694,0.239,9.757c1.308-0.715,1.798-2.726,2.315-4.847c0.149-0.613,0.303-1.245,0.485-1.865
		C15.409,7.777,13.968,6.541,12.991,5.238z"/>
</g>
</svg>
