<?xml version="1.0" encoding="utf-8"?>
<!-- Generator: Adobe Illustrator 22.1.0, SVG Export Plug-In . SVG Version: 6.00 Build 0)  -->
<svg version="1.1" id="Light" xmlns="http://www.w3.org/2000/svg" xmlns:xlink="http://www.w3.org/1999/xlink" x="0px" y="0px"
	 viewBox="0 0 24 24" style="enable-background:new 0 0 24 24;" xml:space="preserve">
<g>
	<title>exotic-food-samosa-1</title>
	<path d="M10.473,16.453C4.403,16.073,0,13.57,0,10.5c0-2.232,2.401-4.252,6.275-5.286c0.528-0.887,1.006-1.795,1.421-2.7
		C7.707,2.49,7.719,2.467,7.734,2.445C7.882,2.223,8.108,2.072,8.37,2.019C8.435,2.006,8.502,2,8.568,2
		c0.197,0,0.388,0.058,0.553,0.168c0.11,0.074,0.204,0.167,0.277,0.277c0.014,0.02,0.025,0.041,0.036,0.062
		c0.429,0.906,0.922,1.822,1.466,2.724c0,0,0.013,0.021,0.016,0.028c0.077,0.127,0.155,0.254,0.234,0.381
		c1.205-1.595,2.228-3.317,3.044-5.122c0.011-0.025,0.024-0.049,0.04-0.071c0.186-0.279,0.498-0.445,0.833-0.445
		c0.198,0,0.389,0.058,0.553,0.167c0.111,0.074,0.204,0.167,0.277,0.278c0.013,0.02,0.026,0.042,0.036,0.064
		c0.427,0.901,0.918,1.813,1.458,2.711c0.01,0.015,0.019,0.03,0.027,0.046c0.477,0.789,1.002,1.575,1.558,2.331
		C22.124,6.708,24,8.537,24,10.5c-0.115,1.431-0.901,2.705-2.103,3.429C21.819,13.976,21.73,14,21.639,14
		c-0.177,0-0.337-0.09-0.428-0.242c-0.142-0.237-0.066-0.544,0.17-0.687c0.927-0.557,1.533-1.534,1.621-2.612
		C23,9.322,21.998,8.154,20.271,7.244c0.217,0.258,0.433,0.506,0.648,0.745c0.016,0.018,0.031,0.037,0.045,0.058
		c0.305,0.457,0.182,1.079-0.276,1.385c-0.165,0.11-0.357,0.169-0.555,0.169h-6.054c0.116,0.134,0.229,0.262,0.341,0.386
		c0.017,0.019,0.032,0.038,0.045,0.058c0.305,0.457,0.182,1.079-0.276,1.385c-0.165,0.11-0.357,0.169-0.555,0.169H3.5
		c-0.552,0-1-0.448-1.001-0.999c0-0.198,0.058-0.391,0.169-0.557c0.015-0.022,0.031-0.043,0.049-0.062
		c0.992-1.073,1.911-2.24,2.74-3.478C2.69,7.454,1,8.953,1,10.5c0,2.484,4.098,4.614,9.531,4.954
		c0.133,0.008,0.255,0.068,0.344,0.168c0.088,0.1,0.132,0.229,0.124,0.362c-0.016,0.263-0.236,0.469-0.499,0.469
		C10.496,16.453,10.477,16.453,10.473,16.453z M13.625,10.6c-0.292-0.326-0.595-0.683-0.949-1.116
		c-0.057-0.046-0.102-0.102-0.133-0.165c-0.515-0.638-1.005-1.296-1.464-1.963C10.953,8.551,10.483,9.67,9.712,10.6H13.625z
		 M8.316,10.6c1.409-1.21,2.057-3.076,1.698-4.901C9.479,4.809,8.993,3.906,8.567,3.013c-0.439,0.95-0.943,1.9-1.499,2.825
		C7.051,5.876,7.03,5.91,7.006,5.943C5.996,7.606,4.82,9.173,3.508,10.6L8.316,10.6z M20.125,8.601
		c-0.613-0.684-1.222-1.431-1.813-2.223c-0.046-0.042-0.083-0.092-0.111-0.148c-0.212-0.288-0.421-0.58-0.623-0.874
		c-0.125,1.195-0.596,2.315-1.367,3.245H20.125z M14.815,8.601c1.409-1.209,2.058-3.075,1.699-4.9
		c-0.535-0.892-1.022-1.795-1.448-2.687c-0.892,1.956-2.016,3.812-3.341,5.52c0.463,0.687,0.974,1.381,1.523,2.067H14.815z"/>
	<path d="M17.5,24c-3.187,0-5.5-2.734-5.5-6.5c0-1.71,2.579-3,6-3s6,1.29,6,3c0,3.766-2.313,6.5-5.5,6.5H17.5z M13.234,19.358
		C13.82,21.592,15.44,23,17.5,23h1c2.06,0,3.68-1.408,4.266-3.642C21.66,20.073,19.914,20.5,18,20.5S14.34,20.073,13.234,19.358z
		 M18,15.5c-2.36,0-5,0.855-5,2s2.64,2,5,2s5-0.855,5-2S20.36,15.5,18,15.5z"/>
</g>
</svg>
