<?xml version="1.0" encoding="utf-8"?>
<!-- Generator: Adobe Illustrator 22.1.0, SVG Export Plug-In . SVG Version: 6.00 Build 0)  -->
<svg version="1.1" id="Light" xmlns="http://www.w3.org/2000/svg" xmlns:xlink="http://www.w3.org/1999/xlink" x="0px" y="0px"
	 viewBox="0 0 24 24" style="enable-background:new 0 0 24 24;" xml:space="preserve">
<g>
	<title>exotic-food-kebab</title>
	<path d="M7.501,24c-0.276,0-0.5-0.224-0.5-0.5s0.224-0.5,0.5-0.5h4v-2.532c-2.038-0.227-3.705-1.815-4.008-3.856l-0.8-5.387
		c-0.033-0.221-0.049-0.445-0.049-0.667c0-0.013,0.001-0.026,0.001-0.039c0-0.006-0.001-0.013-0.001-0.019
		c0-0.012,0.001-0.026,0.003-0.039c0.022-1.177,0.494-2.29,1.33-3.126C8.839,6.474,9.984,6,11.201,6h0.3V4.95
		c-1.155-0.234-2-1.25-2-2.45c0-1.379,1.121-2.5,2.5-2.5c1.378,0,2.5,1.121,2.5,2.5c0,0.276-0.224,0.5-0.5,0.5s-0.5-0.224-0.5-0.5
		c0-0.827-0.673-1.5-1.5-1.5s-1.5,0.673-1.5,1.5s0.673,1.5,1.5,1.5c0.276,0,0.5,0.224,0.5,0.5V6h0.3
		c0.221,0,0.445,0.017,0.665,0.049c1.204,0.178,2.267,0.815,2.992,1.792c0.726,0.978,1.027,2.179,0.849,3.383l-0.798,5.387
		c-0.303,2.042-1.969,3.629-4.008,3.856V23h4c0.276,0,0.5,0.224,0.5,0.5s-0.224,0.5-0.5,0.5H7.501z M8.609,17
		c0.46,1.466,1.839,2.5,3.392,2.5c1.749,0,3.262-1.305,3.518-3.035l0.439-2.965h-2.958c-0.276,0-0.5-0.224-0.5-0.5
		s0.224-0.5,0.5-0.5h3.106l0.211-1.422c0.139-0.94-0.096-1.878-0.662-2.641c-0.566-0.763-1.396-1.26-2.336-1.399
		C13.148,7.013,12.974,7,12.801,7h-1.6c-0.95,0-1.843,0.37-2.515,1.042C8.146,8.582,7.805,9.255,7.69,10h2.811
		c0.276,0,0.5,0.224,0.5,0.5s-0.224,0.5-0.5,0.5H7.672c0.003,0.027,0.007,0.053,0.01,0.078L8.414,16h3.087
		c0.276,0,0.5,0.224,0.5,0.5s-0.224,0.5-0.5,0.5H8.609z"/>
	<path d="M5.501,6.5c-0.109,0-0.213-0.035-0.3-0.1C5.094,6.32,5.025,6.203,5.006,6.071S5.021,5.807,5.101,5.7l0.412-0.549
		c0.183-0.24,0.146-0.576-0.083-0.767C4.79,3.848,4.685,2.909,5.192,2.246L5.601,1.7c0.094-0.125,0.244-0.2,0.4-0.2
		c0.109,0,0.213,0.035,0.3,0.1c0.107,0.08,0.176,0.197,0.195,0.329S6.481,2.193,6.401,2.3L5.989,2.849
		c-0.183,0.24-0.146,0.576,0.083,0.767c0.64,0.535,0.745,1.474,0.239,2.138L5.901,6.3C5.807,6.425,5.658,6.5,5.501,6.5z"/>
	<path d="M18.501,6.5c-0.157,0-0.306-0.075-0.4-0.2l-0.412-0.549c-0.504-0.661-0.399-1.6,0.241-2.135
		c0.229-0.191,0.266-0.527,0.085-0.764L17.601,2.3c-0.165-0.221-0.121-0.535,0.1-0.7c0.087-0.065,0.191-0.1,0.3-0.1
		c0.157,0,0.306,0.075,0.4,0.2l0.412,0.548c0.504,0.661,0.399,1.6-0.241,2.135c-0.229,0.191-0.266,0.527-0.085,0.764L18.901,5.7
		c0.165,0.221,0.121,0.535-0.1,0.7C18.714,6.465,18.61,6.5,18.501,6.5z"/>
</g>
</svg>
