<?xml version="1.0" encoding="utf-8"?>
<!-- Generator: Adobe Illustrator 22.1.0, SVG Export Plug-In . SVG Version: 6.00 Build 0)  -->
<svg version="1.1" id="Light" xmlns="http://www.w3.org/2000/svg" xmlns:xlink="http://www.w3.org/1999/xlink" x="0px" y="0px"
	 viewBox="0 0 24 24" style="enable-background:new 0 0 24 24;" xml:space="preserve">
<g>
	<title>exotic-food-passion-fruit</title>
	<path d="M7.466,20.706c-1.215,0-2.366-0.706-2.938-1.779c-0.376,0.139-0.781,0.212-1.186,0.212
		c-0.907-0.006-1.747-0.36-2.377-0.999s-0.973-1.483-0.967-2.38c0-0.217,0.022-0.437,0.063-0.652
		c0.045-0.235,0.251-0.405,0.49-0.405c0.032,0,0.064,0.003,0.096,0.009c0.13,0.025,0.244,0.1,0.319,0.211
		c0.075,0.111,0.102,0.244,0.076,0.375c-0.029,0.152-0.045,0.309-0.045,0.465c-0.004,0.632,0.237,1.225,0.679,1.673
		c0.442,0.448,1.032,0.697,1.661,0.701c0.429,0,0.837-0.109,1.195-0.316c0.076-0.044,0.163-0.067,0.25-0.067
		c0.061,0,0.121,0.011,0.179,0.033c0.141,0.054,0.249,0.168,0.296,0.311c0.31,0.946,1.218,1.606,2.206,1.606l0.074-0.001
		l0.078,0.001c0.908,0,1.75-0.528,2.146-1.345c0.071-0.147,0.211-0.251,0.373-0.276c0.026-0.004,0.051-0.006,0.077-0.006
		c0.136,0,0.269,0.057,0.363,0.156c0.56,0.59,1.315,0.926,2.127,0.947l0.077,0.001c0.784,0,1.529-0.297,2.096-0.835
		c0.031-0.029,0.059-0.057,0.087-0.086c0.093-0.096,0.224-0.151,0.357-0.151c0.095,0,0.188,0.027,0.269,0.078
		c0.485,0.308,1.045,0.471,1.62,0.471c0.007,0,0.024,0,0.031,0.001c0.068,0.006,0.135,0.009,0.202,0.009
		c1.244,0,2.28-0.922,2.415-2.147c-0.002-0.129-0.019-0.258-0.049-0.383c-0.037-0.151-0.003-0.307,0.092-0.428
		c0.094-0.121,0.244-0.19,0.409-0.19c0.019,0,0.038,0.001,0.057,0.003c1.451-0.005,2.627-0.834,2.627-1.852
		c-0.035-0.596-0.404-1.145-0.961-1.417c-0.12-0.058-0.21-0.16-0.254-0.287c-0.043-0.126-0.035-0.262,0.024-0.382
		c0.083-0.171,0.26-0.281,0.45-0.281c0.076,0,0.151,0.018,0.219,0.051c0.882,0.43,1.465,1.307,1.521,2.286
		c0.001,1.45-1.357,2.662-3.135,2.855c0,0.016,0,0.032,0,0.048c0,0.008-0.001,0.04-0.002,0.048
		c-0.172,1.727-1.663,3.077-3.396,3.077c0,0,0,0,0,0c-0.093,0-0.186-0.004-0.28-0.011l-0.006,0.001
		c-0.601,0-1.227-0.153-1.781-0.432c-0.729,0.618-1.645,0.957-2.6,0.957c-0.039,0-0.078-0.001-0.118-0.002
		c-0.854-0.022-1.679-0.315-2.351-0.831c-0.634,0.842-1.646,1.355-2.704,1.355l-0.078-0.001L7.466,20.706z"/>
	<path d="M7.228,16.81c-2.971,0-5.482-2.335-5.717-5.315c-0.005-0.042-0.009-0.095-0.011-0.149c0-0.002-0.002-0.026-0.002-0.029
		c0-0.005,0-0.009,0-0.014C1.51,9.583,4.085,8.299,7.498,8.299c1.071,0,2.101,0.132,3.001,0.383c0.029-1.413,0.59-2.74,1.586-3.749
		c1.04-1.052,2.43-1.632,3.913-1.632c1.458,0,2.83,0.563,3.865,1.585c2.157,2.131,2.178,5.621,0.047,7.778
		c-1.04,1.052-2.429,1.632-3.913,1.632c-1.075,0-2.107-0.309-3.003-0.897c-0.925,2.052-2.999,3.41-5.256,3.41
		c-0.088,0-0.175-0.002-0.264-0.006C7.408,16.808,7.319,16.81,7.228,16.81C7.229,16.81,7.229,16.81,7.228,16.81z M7.498,15.805
		c0.071,0.003,0.142,0.005,0.213,0.005c1.748,0,3.338-0.949,4.177-2.43c-1.107,0.584-2.676,0.92-4.389,0.92
		c-1.713,0-3.282-0.336-4.389-0.921c0.837,1.481,2.42,2.431,4.159,2.431c0.069,0,0.139-0.001,0.208-0.004c0.004,0,0.007,0,0.011,0
		S7.494,15.804,7.498,15.805z M7.498,9.299c-2.944,0-4.998,1.053-5,1.999c0.02,0.954,2.077,2.001,5,2.001
		c0.357,0,0.71-0.017,1.057-0.05c-0.947-0.396-1.557-1.119-1.557-1.951c0-0.832,0.61-1.555,1.557-1.95
		C8.208,9.316,7.855,9.299,7.498,9.299z M13.332,12.422c0.775,0.574,1.693,0.876,2.665,0.876h0.03
		c1.2-0.007,2.328-0.482,3.173-1.337c1.744-1.765,1.726-4.62-0.039-6.364c-0.846-0.836-1.969-1.296-3.162-1.296
		c-1.214,0-2.351,0.474-3.202,1.335c-0.839,0.849-1.3,1.974-1.298,3.168c0,0.078,0.003,0.156,0.007,0.233
		c0.697,0.306,1.24,0.695,1.577,1.13c0.05,0.064,0.085,0.115,0.118,0.166c0.028,0.043,0.054,0.088,0.078,0.134l0.021,0.04
		c0.022,0.043,0.043,0.088,0.063,0.133c0.002,0.004,0.01,0.025,0.011,0.03c0.03,0.078,0.052,0.146,0.07,0.216
		c0.01,0.041,0.02,0.083,0.028,0.125c0.005,0.027,0.009,0.052,0.012,0.078c0.009,0.069,0.015,0.14,0.015,0.212
		c0,0.003-0.001,0.042-0.002,0.051c0,0.045-0.005,0.104-0.013,0.163c-0.003,0.023-0.007,0.047-0.01,0.07
		C13.447,11.862,13.4,12.147,13.332,12.422z M10.248,10.025c-1.199,0-2.25,0.595-2.25,1.274c0,0.679,1.051,1.274,2.25,1.274
		c1.008,0,1.95-0.433,2.192-1.007c0.012-0.031,0.02-0.05,0.026-0.07c0.006-0.021,0.011-0.039,0.015-0.056
		c0.008-0.038,0.014-0.08,0.015-0.123c0-0.009,0.002-0.03,0.003-0.038c-0.001-0.018-0.007-0.062-0.019-0.122
		c-0.003-0.015-0.008-0.032-0.013-0.05c-0.007-0.025-0.017-0.047-0.025-0.069C12.199,10.458,11.257,10.025,10.248,10.025z"/>
</g>
</svg>
