<?xml version="1.0" encoding="utf-8"?>
<!-- Generator: Adobe Illustrator 22.1.0, SVG Export Plug-In . SVG Version: 6.00 Build 0)  -->
<svg version="1.1" id="Light" xmlns="http://www.w3.org/2000/svg" xmlns:xlink="http://www.w3.org/1999/xlink" x="0px" y="0px"
	 viewBox="0 0 24 24" style="enable-background:new 0 0 24 24;" xml:space="preserve">
<g>
	<title>exotic-food-buns</title>
	<path d="M3.498,18.483c-0.827,0-1.5-0.673-1.5-1.5v-1.029c-0.001-0.335,0.065-0.665,0.194-0.971H1.498c-0.827,0-1.5-0.673-1.5-1.5
		v-1.029c-0.002-0.749,0.342-1.464,0.916-1.937c-0.265-0.276-0.416-0.644-0.416-1.034V8.455C0.495,7.33,1.251,6.335,2.337,6.037
		C3.359,5.764,4.411,5.59,5.465,5.52C5.48,5.519,5.497,5.518,5.518,5.518c0.32,0,0.63,0.27,0.981,0.864
		C6.85,5.787,7.161,5.516,7.482,5.516l0.041,0.001c1.061,0.07,2.114,0.243,3.134,0.516c1.09,0.299,1.847,1.295,1.842,2.423v1.027
		c0,0.662-0.431,1.225-1.027,1.424c0.13,0.167,0.237,0.351,0.322,0.549c0.052,0.123,0.054,0.259,0.004,0.383
		c-0.05,0.124-0.145,0.221-0.268,0.273c-0.062,0.027-0.128,0.04-0.196,0.04c-0.201,0-0.381-0.119-0.46-0.304
		c-0.179-0.421-0.535-0.73-0.976-0.849c-0.911-0.244-1.849-0.403-2.79-0.474c-0.122,0.149-0.393,0.583-0.652,1.162
		c-0.08,0.179-0.26,0.296-0.456,0.296s-0.376-0.116-0.456-0.296c-0.259-0.577-0.529-1.01-0.653-1.162
		c-0.941,0.072-1.879,0.232-2.79,0.477c-0.65,0.178-1.103,0.775-1.101,1.451v1.031c0,0.276,0.224,0.5,0.5,0.5h1.414
		c0.014,0,0.028,0,0.042,0.002c0.264-0.209,0.56-0.359,0.883-0.448c1.022-0.275,2.074-0.449,3.128-0.52l0.049-0.001
		c0.322,0,0.633,0.27,0.985,0.863c0.351-0.594,0.66-0.864,0.978-0.864c0.023,0,0.042,0.001,0.059,0.003
		c0.61,0.04,1.226,0.117,1.826,0.228c0.271,0.05,0.451,0.312,0.401,0.583c-0.044,0.237-0.25,0.409-0.49,0.409
		c-0.031,0-0.062-0.003-0.094-0.009c-0.516-0.095-1.045-0.164-1.571-0.204c-0.122,0.149-0.393,0.583-0.652,1.163
		c-0.08,0.179-0.26,0.295-0.456,0.295c-0.197,0-0.376-0.116-0.456-0.295c-0.259-0.578-0.529-1.01-0.653-1.163
		c-0.941,0.072-1.879,0.232-2.79,0.477c-0.65,0.178-1.103,0.775-1.101,1.45v1.031c0,0.276,0.224,0.5,0.5,0.5h9
		c0.276,0,0.5-0.224,0.5-0.5v-0.5c0-0.276,0.224-0.5,0.5-0.5s0.5,0.224,0.5,0.5v0.5c0,0.827-0.673,1.5-1.5,1.5H3.498z M5.018,9.516
		c0.32,0,0.629,0.27,0.98,0.863c0.351-0.594,0.661-0.863,0.98-0.863c0.021,0,0.039,0.001,0.055,0.002
		c0.969,0.064,1.951,0.22,2.918,0.466h1.047c0.276,0,0.5-0.224,0.5-0.5V8.455c0.003-0.679-0.451-1.277-1.103-1.456
		C9.487,6.756,8.55,6.596,7.609,6.526C7.487,6.676,7.215,7.11,6.955,7.691c-0.081,0.18-0.26,0.295-0.456,0.295
		c-0.197,0-0.376-0.116-0.456-0.296C5.783,7.113,5.513,6.68,5.389,6.529c-0.942,0.071-1.88,0.23-2.79,0.474
		c-0.649,0.178-1.102,0.775-1.1,1.451v1.03c0,0.276,0.224,0.5,0.5,0.5h0.059c0.964-0.245,1.942-0.401,2.908-0.466
		C4.979,9.517,4.997,9.516,5.018,9.516z"/>
	<path d="M21.975,18.355c-0.216,0-0.425-0.046-0.622-0.136l-8.182-3.75c-0.364-0.167-0.641-0.465-0.781-0.841
		c-0.14-0.375-0.125-0.783,0.042-1.147l0.429-0.936c0.404-0.889,1.298-1.464,2.276-1.464c0.134,0,0.27,0.011,0.402,0.033
		c1.043,0.175,2.073,0.453,3.06,0.826c0.238,0.091,0.486,0.315,0.582,1.216c0.418-0.289,0.748-0.43,1.001-0.43
		c0.156,0,0.252,0.051,0.298,0.076c0.929,0.504,1.812,1.101,2.626,1.775c0.865,0.725,1.138,1.945,0.665,2.967l-0.431,0.937
		C23.097,18.012,22.561,18.355,21.975,18.355z M21.776,17.313c0.063,0.028,0.131,0.042,0.2,0.042c0.196,0,0.375-0.115,0.456-0.292
		l0.432-0.939c0.284-0.614,0.121-1.346-0.397-1.78c-0.725-0.601-1.511-1.138-2.336-1.595c-0.173,0.085-0.6,0.366-1.078,0.785
		c-0.091,0.08-0.208,0.124-0.329,0.124c-0.072,0-0.142-0.015-0.208-0.045c-0.179-0.082-0.294-0.262-0.292-0.458
		c0.005-0.633-0.061-1.139-0.111-1.33c-0.886-0.325-1.806-0.568-2.736-0.725c-0.079-0.013-0.16-0.02-0.24-0.02
		c-0.586,0-1.122,0.345-1.365,0.879l-0.429,0.937c-0.115,0.251-0.004,0.548,0.247,0.663C13.587,13.56,21.773,17.312,21.776,17.313z"
		/>
</g>
</svg>
