<?xml version="1.0" encoding="utf-8"?>
<!-- Generator: Adobe Illustrator 22.1.0, SVG Export Plug-In . SVG Version: 6.00 Build 0)  -->
<svg version="1.1" id="Layer_1" xmlns="http://www.w3.org/2000/svg" xmlns:xlink="http://www.w3.org/1999/xlink" x="0px" y="0px"
	 viewBox="0 0 24 24" style="enable-background:new 0 0 24 24;" xml:space="preserve">
<g>
	<title>social-bookmark-zootool</title>
	<path d="M15.898,23.999c-0.136,0-0.278-0.009-0.421-0.025c-2.31-0.273-3.561-1.244-4.885-2.271
		c-1.604-1.245-3.262-2.532-7.231-2.532H2.653c-0.02,0-0.04-0.001-0.06-0.004c-0.18-0.023-0.421-0.129-0.569-0.503
		c-0.277-0.703-0.289-2.872,0.159-3.415c2.704-3.193,5.408-6.383,8.114-9.574c-0.612,0.08-1.347,0.149-2.07,0.149
		c-1.81,0-2.898-0.431-3.234-1.28C4.859,4.155,4.829,3.752,4.901,3.367C5.1,2.219,5.621,1.151,6.41,0.283
		c0.016-0.017,0.033-0.034,0.052-0.049c0.184-0.152,0.417-0.236,0.654-0.236c0.185,0,0.367,0.051,0.527,0.146
		c1.083,0.507,2.287,0.776,3.483,0.776c0.05,0,0.1,0,0.151-0.001c0.319,0.012,0.628,0.017,0.932,0.017
		c1.71,0,3.422-0.18,5.088-0.534c0.026-0.006,0.109-0.023,0.216-0.023c0.22,0,0.414,0.069,0.56,0.199
		c0.11,0.098,0.286,0.321,0.241,0.714l-0.226,1.954c-0.059,0.512-0.943,1.536-4.174,5.049c-2.218,2.411-5.189,5.642-6.009,7.038
		c1.362,0.179,2.727,0.977,4.051,1.75c1.542,0.902,2.997,1.752,4.408,1.752c0.794,0,1.517-0.272,2.21-0.831
		c0.089-0.071,0.2-0.111,0.314-0.111c0.057,0,0.113,0.01,0.167,0.028c0.164,0.059,0.287,0.2,0.323,0.369
		c0.291,1.378-0.008,3.422-1.141,4.662C17.609,23.637,16.801,23.999,15.898,23.999z M3.361,18.17c4.311,0,6.107,1.394,7.844,2.742
		c1.211,0.94,2.355,1.828,4.389,2.068c0.104,0.012,0.208,0.019,0.308,0.019c0.621,0,1.158-0.243,1.595-0.721
		c0.721-0.789,1.004-2.008,0.986-3.003c-0.666,0.379-1.36,0.563-2.108,0.563c-1.688,0-3.332-0.961-4.922-1.89
		c-1.453-0.85-2.825-1.652-4.098-1.652c-0.044,0-0.088,0.001-0.132,0.003c-0.004,0-0.025,0.001-0.029,0.001
		c-0.125,0-0.246-0.05-0.339-0.139C6.756,16.067,6.7,15.935,6.7,15.799c0-0.982,1.909-3.216,6.476-8.181
		c1.503-1.634,3.77-4.098,3.92-4.513l0.194-1.682c-1.665,0.34-3.373,0.512-5.076,0.512c-0.315,0-0.634-0.006-0.948-0.018
		c-0.044,0.001-0.102,0.002-0.161,0.002c-1.34,0-2.695-0.306-3.917-0.884c-0.019-0.009-0.04-0.021-0.06-0.033L7.118,0.99
		C6.476,1.711,6.05,2.594,5.886,3.545C5.844,3.766,5.86,3.991,5.931,4.198C6.085,4.587,6.92,4.817,8.217,4.817
		c0.966,0,2.148-0.126,3.242-0.347c0.033-0.006,0.066-0.01,0.098-0.01c0.177,0,0.342,0.094,0.431,0.245
		c0.108,0.184,0.088,0.416-0.049,0.578c-3,3.537-5.997,7.073-8.99,10.607c-0.141,0.232-0.162,1.767-0.043,2.28H3.361z"/>
</g>
</svg>
