<?xml version="1.0" encoding="utf-8"?>
<!-- Generator: Adobe Illustrator 22.1.0, SVG Export Plug-In . SVG Version: 6.00 Build 0)  -->
<svg version="1.1" id="Layer_1" xmlns="http://www.w3.org/2000/svg" xmlns:xlink="http://www.w3.org/1999/xlink" x="0px" y="0px"
	 viewBox="0 0 24 24" style="enable-background:new 0 0 24 24;" xml:space="preserve">
<g>
	<title>social-bookmark-stumble-upon-1</title>
	<path d="M5.5,24c-3.029-0.004-5.496-2.471-5.5-5.5v-3C0,15.224,0.224,15,0.5,15h4C4.776,15,5,15.224,5,15.5v3
		C5,18.776,5.224,19,5.5,19S6,18.776,6,18.5v-7C6,8.467,8.467,6,11.5,6S17,8.467,17,11.5v1c0,0.157-0.075,0.306-0.2,0.4l-2,1.5
		c-0.087,0.065-0.191,0.1-0.3,0.1s-0.213-0.035-0.3-0.1l-2-1.5c-0.125-0.094-0.2-0.243-0.2-0.4v-1c0-0.276-0.224-0.5-0.5-0.5
		S11,11.224,11,11.5v7c-0.004,3.029-2.471,5.496-5.499,5.5C5.501,24,5.5,24,5.5,24z M1,18.5c0.003,2.478,2.022,4.497,4.5,4.5
		c2.478-0.003,4.497-2.022,4.5-4.5v-7c0-0.827,0.673-1.5,1.5-1.5s1.5,0.673,1.5,1.5v0.75l1.5,1.125L16,12.25V11.5
		C16,9.019,13.981,7,11.5,7C9.019,7,7,9.019,7,11.5v7C7,19.327,6.327,20,5.5,20S4,19.327,4,18.5V16H1V18.5z"/>
	<path d="M17.5,24c-3.029-0.004-5.496-2.471-5.5-5.5v-3c0-0.19,0.106-0.362,0.276-0.447C12.345,15.018,12.423,15,12.5,15
		c0.108,0,0.215,0.036,0.301,0.101l1.699,1.274l1.7-1.275c0.085-0.064,0.192-0.1,0.3-0.1c0.077,0,0.154,0.018,0.223,0.052
		C16.894,15.138,17,15.31,17,15.5v3c0,0.276,0.224,0.5,0.5,0.5s0.5-0.224,0.5-0.5v-3c0-0.276,0.224-0.5,0.5-0.5h4
		c0.276,0,0.5,0.224,0.5,0.5v3C22.996,21.529,20.529,23.996,17.5,24C17.5,24,17.5,24,17.5,24z M13,18.5
		c0.003,2.478,2.022,4.497,4.5,4.5c2.478-0.003,4.497-2.022,4.5-4.5V16h-3v2.5c0,0.827-0.673,1.5-1.5,1.5S16,19.327,16,18.5v-2
		l-1.2,0.9c-0.087,0.065-0.191,0.1-0.3,0.1s-0.213-0.035-0.3-0.101L13,16.5V18.5z"/>
</g>
</svg>
