<?xml version="1.0" encoding="utf-8"?>
<!-- Generator: Adobe Illustrator 22.1.0, SVG Export Plug-In . SVG Version: 6.00 Build 0)  -->
<svg version="1.1" id="Layer_1" xmlns="http://www.w3.org/2000/svg" xmlns:xlink="http://www.w3.org/1999/xlink" x="0px" y="0px"
	 viewBox="0 0 24 24" style="enable-background:new 0 0 24 24;" xml:space="preserve">
<g>
	<title>social-bookmark-stumble-upon</title>
	<path d="M20,24c-2.206,0-4-1.794-4-4v-6.5c0-0.827-0.673-1.5-1.5-1.5h-6C7.121,12,6,13.121,6,14.5C6,15.878,7.121,17,8.5,17
		c1.93,0,3.5,1.57,3.5,3.5S10.43,24,8.5,24H0c-0.276,0-0.5-0.224-0.5-0.5S-0.276,23,0,23h8.5c1.379,0,2.5-1.122,2.5-2.5
		S9.879,18,8.5,18C6.57,18,5,16.43,5,14.5S6.57,11,8.5,11h6c1.378,0,2.5,1.121,2.5,2.5V20c0,1.654,1.346,3,3,3s3-1.346,3-3V3
		c0-0.276,0.224-0.5,0.5-0.5S24,2.724,24,3v17C24,22.206,22.206,24,20,24z"/>
</g>
</svg>
