<?xml version="1.0" encoding="utf-8"?>
<!-- Generator: Adobe Illustrator 22.1.0, SVG Export Plug-In . SVG Version: 6.00 Build 0)  -->
<svg version="1.1" id="Layer_1" xmlns="http://www.w3.org/2000/svg" xmlns:xlink="http://www.w3.org/1999/xlink" x="0px" y="0px"
	 viewBox="0 0 24 24" style="enable-background:new 0 0 24 24;" xml:space="preserve">
<g>
	<title>social-bookmark-instapaper</title>
	<path d="M7.5,24C7.224,24,7,23.776,7,23.5v-0.645c0-0.136,0.056-0.268,0.155-0.361c0.092-0.088,0.217-0.139,0.342-0.139
		c0.005,0,0.026,0.001,0.031,0.001c0.049,0.002,0.104,0.003,0.158,0.003c0.682,0,1.346-0.194,1.922-0.56
		C9.658,21.759,10,21.411,10,19.733V4.27c0-0.023,0.002-0.046,0.005-0.069c0.099-0.721-0.074-1.444-0.486-2.042
		C9.012,1.814,8.421,1.632,7.806,1.632c-0.087,0-0.175,0.004-0.263,0.011C7.536,1.644,7.507,1.645,7.5,1.645
		c-0.125,0-0.245-0.047-0.337-0.131C7.059,1.419,7,1.285,7,1.145V0.5C7,0.224,7.224,0,7.5,0h10C17.776,0,18,0.224,18,0.5v0.645
		c0,0.14-0.059,0.274-0.162,0.368c-0.093,0.085-0.212,0.132-0.337,0.132c-0.008,0-0.039-0.001-0.047-0.002
		c-0.085-0.007-0.173-0.011-0.261-0.011c-0.615,0-1.207,0.182-1.713,0.528c-0.412,0.598-0.584,1.321-0.485,2.042
		C14.999,4.226,15,4.248,15,4.27v15.463c0,1.637,0.327,2.014,0.427,2.091c0.547,0.346,1.204,0.535,1.883,0.535
		c0.056,0,0.111-0.001,0.167-0.004c0.004,0,0.026-0.001,0.03-0.001c0.124,0,0.247,0.051,0.339,0.14
		C17.943,22.587,18,22.719,18,22.855V23.5c0,0.276-0.224,0.5-0.5,0.5H7.5z M15.536,23c-0.235-0.099-0.463-0.219-0.681-0.357
		C14.266,22.195,14,21.274,14,19.733V4.303c-0.127-0.994,0.128-1.987,0.719-2.798c0.031-0.042,0.068-0.08,0.111-0.111
		C15.044,1.24,15.27,1.109,15.504,1H9.493c0.236,0.109,0.463,0.241,0.676,0.395c0.042,0.031,0.08,0.068,0.111,0.11
		C10.872,2.315,11.128,3.308,11,4.303v15.43c0,1.541-0.261,2.458-0.821,2.885C9.946,22.768,9.703,22.895,9.454,23H15.536z"/>
</g>
</svg>
