<?xml version="1.0" encoding="utf-8"?>
<!-- Generator: Adobe Illustrator 22.1.0, SVG Export Plug-In . SVG Version: 6.00 Build 0)  -->
<svg version="1.1" id="Layer_1" xmlns="http://www.w3.org/2000/svg" xmlns:xlink="http://www.w3.org/1999/xlink" x="0px" y="0px"
	 viewBox="0 0 24 24" style="enable-background:new 0 0 24 24;" xml:space="preserve">
<g>
	<title>social-bookmark-delicious</title>
	<path d="M0.5,24C0.224,24,0,23.776,0,23.5v-11C0,12.224,0.224,12,0.5,12H11V1.5C11,1.224,11.224,1,11.5,1h11
		C22.776,1,23,1.224,23,1.5v11c0,0.276-0.224,0.5-0.5,0.5H12v10.5c0,0.276-0.224,0.5-0.5,0.5H0.5z M11,23V13H1v10H11z M22,12V2H12
		v10H22z"/>
</g>
</svg>
