<?xml version="1.0" encoding="utf-8"?>
<!-- Generator: Adobe Illustrator 22.1.0, SVG Export Plug-In . SVG Version: 6.00 Build 0)  -->
<svg version="1.1" id="Layer_1" xmlns="http://www.w3.org/2000/svg" xmlns:xlink="http://www.w3.org/1999/xlink" x="0px" y="0px"
	 viewBox="0 0 24 24" style="enable-background:new 0 0 24 24;" xml:space="preserve">
<g>
	<title>heavy-equipment-lift</title>
	<path d="M3.5,19.839c-1.93,0-3.5-1.57-3.5-3.5c0-1.738,1.3-3.216,3-3.461V4.787L1.842,3.795C1.54,3.529,1.36,3.165,1.334,2.767
		C1.308,2.369,1.439,1.985,1.702,1.686c0.282-0.321,0.692-0.505,1.124-0.505c0.251,0,0.499,0.064,0.716,0.184l9.305,5.318
		c0.472-0.539,1.144-0.844,1.875-0.844H18c0.552,0,1,0.449,1,1v3.24h4c0.552,0,1,0.449,1,1v3.26c0,1.378-1.122,2.5-2.5,2.5h-7.678
		c-1.379,0-2.5-1.122-2.5-2.5c0-0.125,0.01-0.251,0.028-0.375l0.9-5.999c0.021-0.14,0.054-0.279,0.099-0.414L3.052,2.237
		C2.986,2.201,2.906,2.18,2.825,2.18c-0.144,0-0.279,0.061-0.372,0.166C2.366,2.445,2.323,2.571,2.331,2.702
		C2.34,2.833,2.399,2.953,2.497,3.04l7.934,6.796c0.101,0.087,0.163,0.208,0.173,0.341c0.01,0.133-0.032,0.262-0.119,0.364
		c-0.095,0.111-0.234,0.175-0.38,0.175c-0.119,0-0.235-0.043-0.325-0.12L4,5.643v7.234c1.7,0.245,3,1.723,3,3.461
		C7,18.269,5.43,19.839,3.5,19.839z M3.5,13.839c-1.379,0-2.5,1.122-2.5,2.5s1.121,2.5,2.5,2.5s2.5-1.122,2.5-2.5
		S4.879,13.839,3.5,13.839z M12.339,14.113c-0.011,0.074-0.017,0.15-0.017,0.225c0,0.827,0.672,1.5,1.5,1.5H21.5
		c0.827,0,1.5-0.673,1.5-1.5v-3.26h-4.475l-5.818,0.581L12.339,14.113z M13.413,7.604c-0.089,0.161-0.147,0.331-0.174,0.51
		l-0.379,2.526L18,10.126V6.839h-3.278c-0.54,0-1.022,0.274-1.292,0.735C13.43,7.574,13.419,7.595,13.413,7.604z"/>
	<path d="M12.5,22.839c-1.379,0-2.5-1.122-2.5-2.5s1.121-2.5,2.5-2.5h9c1.378,0,2.5,1.122,2.5,2.5s-1.122,2.5-2.5,2.5H12.5z
		 M12.5,18.839c-0.827,0-1.5,0.673-1.5,1.5s0.673,1.5,1.5,1.5h9c0.827,0,1.5-0.673,1.5-1.5s-0.673-1.5-1.5-1.5H12.5z"/>
	<path d="M13.5,21.089c-0.414,0-0.75-0.336-0.75-0.75c0-0.015,0.002-0.033,0.005-0.051c0.022-0.382,0.337-0.688,0.726-0.698
		c0.006,0,0.032,0,0.039,0c0.388,0.011,0.701,0.313,0.727,0.698c0.003,0.018,0.005,0.036,0.005,0.051c0,0.414-0.336,0.75-0.75,0.75
		C13.502,21.089,13.5,21.089,13.5,21.089z"/>
	<path d="M17,21.089c-0.414,0-0.75-0.336-0.75-0.75c0-0.015,0.002-0.033,0.005-0.051c0.022-0.382,0.337-0.688,0.726-0.698
		c0.006,0,0.032,0,0.039,0c0.388,0.011,0.701,0.313,0.727,0.698c0.003,0.018,0.005,0.036,0.005,0.051c0,0.414-0.336,0.75-0.75,0.75
		C17.002,21.089,17,21.089,17,21.089z"/>
	<path d="M20.5,21.089c-0.414,0-0.75-0.336-0.75-0.75c0-0.015,0.002-0.033,0.005-0.051c0.022-0.382,0.337-0.688,0.726-0.698
		c0.006,0,0.032,0,0.039,0c0.388,0.011,0.701,0.313,0.727,0.698c0.003,0.018,0.005,0.036,0.005,0.051c0,0.414-0.336,0.75-0.75,0.75
		C20.502,21.089,20.5,21.089,20.5,21.089z"/>
</g>
</svg>
