<?xml version="1.0" encoding="utf-8"?>
<!-- Generator: Adobe Illustrator 22.1.0, SVG Export Plug-In . SVG Version: 6.00 Build 0)  -->
<svg version="1.1" id="Layer_1" xmlns="http://www.w3.org/2000/svg" xmlns:xlink="http://www.w3.org/1999/xlink" x="0px" y="0px"
	 viewBox="0 0 24 24" style="enable-background:new 0 0 24 24;" xml:space="preserve">
<g>
	<title>heavy-equipment-cleaner-2</title>
	<path d="M8.25,21.5c-1.654,0-3-1.346-3-3H2.911c-0.276,0.849-0.705,1.628-1.276,2.319C1.539,20.934,1.399,21,1.25,21
		c-0.116,0-0.229-0.041-0.318-0.115C0.828,20.8,0.765,20.68,0.752,20.547s0.027-0.263,0.113-0.366
		c0.524-0.633,0.908-1.361,1.143-2.165c0-0.005,0-0.011,0-0.017c0-0.092,0.027-0.182,0.078-0.262
		c0.137-0.567,0.193-1.144,0.166-1.714c0.027-0.605-0.029-1.192-0.169-1.767C2.033,14.177,2.007,14.09,2.007,14
		c0-0.004,0-0.008,0-0.012c-0.234-0.806-0.618-1.535-1.143-2.169c-0.085-0.103-0.125-0.233-0.113-0.366
		c0.013-0.133,0.076-0.253,0.179-0.338C1.021,11.041,1.134,11,1.25,11c0.15,0,0.29,0.066,0.386,0.182
		c0.57,0.69,0.999,1.469,1.275,2.318h2.504l-0.161-1.445C5.252,12.048,5.25,12.011,5.25,12c0-0.039,0.007-0.07,0.012-0.09
		c0.003-0.024,0.008-0.052,0.013-0.069l0.772-2.315C6.252,8.912,6.824,8.5,7.471,8.5H8.25V6c0-0.341-0.362-0.952-0.515-1.002
		c-0.001,0-0.002,0-0.003,0C7.472,4.998,7.25,4.775,7.25,4.5c0-0.276,0.224-0.5,0.5-0.5c0.867,0,1.5,1.315,1.5,2v2.5h2.076
		l0.792-4.746C12.238,3.027,12.861,2.5,13.597,2.5h5.153c0.827,0,1.5,0.673,1.5,1.5v4.5h0.18c0.711,0,1.329,0.505,1.471,1.2
		l0.601,3.002c0.082,0.403-0.009,0.822-0.251,1.162v2.402c0.637,0.57,1,1.378,1,2.234c0,1.654-1.346,3-3,3H8.25z M8.25,16.5
		c-0.607,0-1.175,0.273-1.558,0.75c-0.29,0.363-0.442,0.794-0.442,1.25c0,1.103,0.897,2,2,2h12c1.103,0,2-0.897,2-2s-0.897-2-2-2
		H8.25z M5.424,17.5c0.088-0.247,0.207-0.481,0.358-0.698L5.525,14.5H3.156c0.086,0.505,0.118,1.016,0.093,1.524
		c0.024,0.478-0.007,0.978-0.092,1.476H5.424z M6.691,15.938C7.159,15.654,7.699,15.5,8.25,15.5h5.25l1.35-1.8
		c0.094-0.125,0.243-0.2,0.4-0.2h5.78c0.034,0,0.068-0.003,0.1-0.01c0.092-0.019,0.176-0.062,0.244-0.128
		c0.01-0.012,0.02-0.023,0.03-0.033c0.106-0.12,0.149-0.276,0.117-0.429l-0.601-3.002c-0.047-0.23-0.253-0.398-0.49-0.398H17.64
		l-0.406,1.621C17.179,11.344,16.98,11.5,16.75,11.5h-4.5c-0.23,0-0.429-0.156-0.485-0.379L11.36,9.5H7.471
		c-0.216,0-0.406,0.137-0.475,0.342L6.443,11.5H9.25c0.276,0,0.5,0.224,0.5,0.5c0,0.276-0.224,0.5-0.5,0.5H6.309L6.691,15.938z
		 M20.25,15.5c0.344,0,0.679,0.058,1,0.173v-1.189c-0.072,0.011-0.146,0.016-0.22,0.016H15.5l-0.75,1H20.25z M16.36,10.5l0.39-1.561
		V6c0-0.276,0.224-0.5,0.5-0.5s0.5,0.224,0.5,0.5v2.5h1.5V4c0-0.276-0.224-0.5-0.5-0.5H13.6c-0.248,0-0.456,0.176-0.496,0.418
		l-0.715,4.288l1.234-0.494l-0.29-0.435c-0.074-0.111-0.101-0.245-0.074-0.375c0.026-0.131,0.102-0.244,0.213-0.318
		C13.555,6.529,13.651,6.5,13.75,6.5c0.167,0,0.323,0.083,0.416,0.223l1,1.5c0.074,0.111,0.101,0.245,0.074,0.375
		c-0.026,0.131-0.102,0.244-0.213,0.318C14.945,8.971,14.849,9,14.75,9c-0.168,0-0.323-0.083-0.416-0.223l-0.143-0.215l-1.85,0.74
		L12.64,10.5H16.36z"/>
	<circle cx="8.25" cy="18.5" r="0.75"/>
	<circle cx="20.25" cy="18.5" r="0.75"/>
</g>
</svg>
