<?xml version="1.0" encoding="utf-8"?>
<!-- Generator: Adobe Illustrator 22.1.0, SVG Export Plug-In . SVG Version: 6.00 Build 0)  -->
<svg version="1.1" id="Layer_1" xmlns="http://www.w3.org/2000/svg" xmlns:xlink="http://www.w3.org/1999/xlink" x="0px" y="0px"
	 viewBox="0 0 24 24" style="enable-background:new 0 0 24 24;" xml:space="preserve">
<g>
	<title>heavy-equipment-mortar-truck-2</title>
	<path d="M11.5,19.064c-0.276,0-0.5-0.224-0.5-0.5s0.224-0.5,0.5-0.5h5c0.276,0,0.5,0.224,0.5,0.5s-0.224,0.5-0.5,0.5H11.5z"/>
	<path d="M7,21.064c-1.654,0-3-1.346-3-3s1.346-3,3-3s3,1.346,3,3S8.654,21.064,7,21.064z M7,16.064c-1.103,0-2,0.897-2,2
		s0.897,2,2,2s2-0.897,2-2S8.103,16.064,7,16.064z"/>
	<path d="M21,21.064c-1.654,0-3-1.346-3-3s1.346-3,3-3c0.344,0,0.679,0.058,1,0.173v-2.673c0-0.827-0.673-1.5-1.5-1.5h-1.793
		l-1.268,1.269c-0.425,0.366-0.916,0.599-1.439,0.689v0.542c0,0.827-0.673,1.5-1.5,1.5H6c-1.4-0.079-2.685-0.745-3.54-1.828
		l-2.083-2.975c-0.1-0.158-0.18-0.324-0.243-0.504c-0.003-0.008-0.007-0.016-0.008-0.02C0.052,9.516,0.01,9.301,0,9.088l0-1.023
		c0-0.551,0.449-1,1-1h11c0.552,0,1,0.449,1,1v4c-0.026,0.47-0.223,0.885-0.555,1.185l-1.019,0.815H14.5c0.276,0,0.5-0.224,0.5-0.5
		v-4.96l-0.812-0.65c-0.215-0.172-0.25-0.487-0.078-0.703c0.096-0.12,0.239-0.188,0.391-0.188c0.113,0,0.224,0.039,0.312,0.109
		l2.5,2c0.215,0.172,0.25,0.487,0.078,0.703c-0.096,0.119-0.238,0.188-0.391,0.188c-0.113,0-0.224-0.039-0.312-0.109L16,9.405v2.594
		c0.281-0.074,0.539-0.209,0.76-0.399l1.386-1.389c0.095-0.095,0.22-0.147,0.354-0.147h1l1.015-4.12
		C20.57,5.721,20.77,5.565,21,5.565c0.04,0,0.08,0.005,0.118,0.014c0.13,0.032,0.24,0.113,0.309,0.227
		c0.069,0.114,0.09,0.249,0.057,0.379l-0.956,3.88C21.894,10.08,23,11.196,23,12.564v3.266c0.637,0.57,1,1.378,1,2.234
		C24,19.719,22.654,21.064,21,21.064z M21,16.064c-1.103,0-2,0.897-2,2s0.897,2,2,2s2-0.897,2-2S22.103,16.064,21,16.064z
		 M3.263,12.64c0.663,0.84,1.674,1.363,2.766,1.426L9.5,14.064c0.201-0.01,0.417-0.088,0.597-0.217l1.7-1.36
		c0.115-0.104,0.193-0.272,0.203-0.451l0-1.971H1.459L3.263,12.64z M12,9.064l0-1H1l0,1H12z"/>
	<path d="M11.146,6.56c-0.142,0-0.277-0.06-0.372-0.166L8.966,4.386C8.736,4.12,8.422,3.962,8.079,3.937
		C8.048,3.935,8.016,3.934,7.985,3.934c-0.309,0-0.608,0.112-0.842,0.314C7.1,4.286,7.059,4.326,7.022,4.369L6.923,4.475
		l1.114,1.253C8.22,5.934,8.201,6.251,7.995,6.434C7.904,6.516,7.786,6.56,7.663,6.56c-0.143,0-0.279-0.061-0.374-0.168L5.955,4.891
		c-0.242-0.286-0.59-0.447-0.958-0.447c-0.292,0-0.576,0.104-0.799,0.292C4.146,4.781,4.097,4.83,4.053,4.882L2.711,6.392
		C2.616,6.498,2.48,6.559,2.337,6.559c0,0,0,0,0,0c-0.123,0-0.241-0.045-0.332-0.126c-0.1-0.089-0.159-0.211-0.167-0.344
		C1.83,5.955,1.875,5.827,1.964,5.727l1.334-1.5C3.37,4.142,3.459,4.052,3.552,3.973c0.403-0.341,0.917-0.53,1.446-0.53
		c0.424,0,0.842,0.121,1.197,0.345l0.085-0.091c0.06-0.068,0.133-0.14,0.208-0.205c0.416-0.36,0.946-0.559,1.492-0.559
		c0.056,0,0.113,0.002,0.17,0.006C8.76,2.984,9.316,3.262,9.716,3.724l1.802,2.002c0.089,0.099,0.135,0.227,0.128,0.361
		C11.638,6.22,11.58,6.343,11.48,6.432C11.389,6.515,11.27,6.56,11.146,6.56z"/>
</g>
</svg>
