<?xml version="1.0" encoding="utf-8"?>
<!-- Generator: Adobe Illustrator 22.1.0, SVG Export Plug-In . SVG Version: 6.00 Build 0)  -->
<svg version="1.1" id="Layer_1" xmlns="http://www.w3.org/2000/svg" xmlns:xlink="http://www.w3.org/1999/xlink" x="0px" y="0px"
	 viewBox="0 0 24 24" style="enable-background:new 0 0 24 24;" xml:space="preserve">
<g>
	<title>heavy-equipment-lift-hook-box</title>
	<path d="M1.02,22.004c-0.551,0-1-0.448-1-1v-5.988c0-0.552,0.449-1,1-1h2.993V3.292L3.303,2.45
		C3.047,2.146,2.924,1.761,2.958,1.365C2.991,0.968,3.176,0.609,3.48,0.352C3.748,0.125,4.09,0,4.441,0
		C4.783,0,5.116,0.119,5.38,0.334l8.467,6.851c0.28-0.104,0.572-0.157,0.871-0.157h4.271c0.552,0,1,0.449,1,1v3.993h2.991
		c0.552,0,1,0.448,1,1v2.5c0,1.378-1.122,2.5-2.5,2.5l-7.661-0.01c-0.668-0.001-1.296-0.263-1.767-0.736
		c-0.471-0.473-0.73-1.101-0.728-1.769c0-0.12,0.009-0.241,0.027-0.361l0.9-5.991c0.082-0.538,0.33-1.025,0.708-1.401L4.75,1.11
		C4.663,1.039,4.553,1,4.441,1C4.326,1,4.214,1.041,4.126,1.116C4.026,1.2,3.965,1.318,3.954,1.448
		c-0.011,0.13,0.029,0.257,0.114,0.357l6.882,8.174c0.177,0.211,0.15,0.527-0.06,0.704c-0.09,0.076-0.204,0.118-0.322,0.118
		c-0.148,0-0.287-0.065-0.383-0.178L5.013,4.48v9.536h2.993c0.551,0,1,0.448,1,1v5.988c0,0.552-0.449,1-1,1H1.02z M7.176,21.004
		l-2.662-2.329l-2.662,2.329H7.176z M1.02,20.402l2.734-2.392L1.02,15.617V20.402z M8.006,20.401v-4.783L5.273,18.01L8.006,20.401z
		 M4.513,17.345l2.662-2.329H1.851L4.513,17.345z M21.48,17.021c0.827,0,1.5-0.673,1.5-1.5v-2.5h-3.491
		c-0.008,0-0.016,0-0.024-0.001h-6.784l-0.342,2.272c-0.01,0.071-0.016,0.143-0.016,0.215c-0.001,0.401,0.154,0.778,0.437,1.062
		c0.283,0.284,0.659,0.441,1.06,0.442l0,0L21.48,17.021z M18.989,12.019V8.028h-4.27c-0.246,0-0.482,0.059-0.701,0.174
		C14.018,8.203,14,8.212,13.982,8.221c-0.395,0.217-0.672,0.614-0.743,1.082l-0.408,2.717H18.989z"/>
	<path d="M12.5,24.001c-0.691-0.04-1.307-0.337-1.751-0.836c-0.443-0.5-0.666-1.142-0.626-1.808
		c0.075-1.263,1.084-2.273,2.347-2.348l9.014-0.001c1.372,0.003,2.491,1.12,2.496,2.491c0,1.38-1.122,2.502-2.5,2.502H12.5z
		 M12.508,20.007c-0.747,0.048-1.342,0.652-1.387,1.408c-0.024,0.4,0.11,0.785,0.376,1.085s0.633,0.478,1.033,0.501l8.95-0.001
		c0.827,0,1.5-0.673,1.5-1.5c-0.003-0.822-0.675-1.492-1.497-1.494H12.508z"/>
	<path d="M13.5,22.254c-0.402,0-0.734-0.322-0.748-0.722c-0.001-0.01-0.002-0.021-0.002-0.03c-0.001-0.412,0.333-0.75,0.746-0.751
		c0,0,0.001,0,0.001,0c0.018,0,0.035,0.002,0.052,0.006c0.391,0.025,0.701,0.351,0.701,0.748c0,0.013-0.001,0.028-0.004,0.043
		c-0.021,0.359-0.302,0.655-0.664,0.695C13.563,22.247,13.535,22.254,13.5,22.254z"/>
	<path d="M16.993,22.254c-0.411,0-0.748-0.335-0.75-0.747c0-0.001,0-0.005,0-0.006c0-0.414,0.336-0.75,0.75-0.75
		c0.019,0,0.055,0.005,0.079,0.01c0.374,0.04,0.658,0.344,0.67,0.719c0,0.007,0.001,0.024,0.001,0.024c0,0.009,0,0.018-0.001,0.027
		c-0.017,0.373-0.299,0.672-0.668,0.712C17.055,22.248,17.027,22.254,16.993,22.254z"/>
	<path d="M20.487,22.254c-0.412,0-0.749-0.335-0.75-0.747c0-0.001,0-0.005,0-0.006c0-0.414,0.336-0.75,0.75-0.75
		c0.019,0,0.055,0.005,0.079,0.01c0.374,0.04,0.658,0.345,0.669,0.72c0,0.007,0.001,0.022,0.001,0.022c0,0.007,0,0.014-0.001,0.021
		c-0.013,0.376-0.296,0.678-0.667,0.718C20.549,22.248,20.521,22.254,20.487,22.254z"/>
</g>
</svg>
