<?xml version="1.0" encoding="utf-8"?>
<!-- Generator: Adobe Illustrator 22.1.0, SVG Export Plug-In . SVG Version: 6.00 Build 0)  -->
<svg version="1.1" id="Layer_1" xmlns="http://www.w3.org/2000/svg" xmlns:xlink="http://www.w3.org/1999/xlink" x="0px" y="0px"
	 viewBox="0 0 24 24" style="enable-background:new 0 0 24 24;" xml:space="preserve">
<g>
	<title>heavy-equipment-cleaner-1</title>
	<path d="M0.75,22c-0.109,0-0.213-0.035-0.3-0.1c-0.22-0.166-0.265-0.479-0.1-0.7c1.447-1.927,2.277-4.219,2.401-6.625L2.75,11.4
		c-0.123-2.386-0.953-4.672-2.4-6.6C0.27,4.693,0.236,4.562,0.255,4.429C0.274,4.297,0.343,4.18,0.45,4.1
		C0.537,4.035,0.641,4,0.75,4c0.157,0,0.306,0.075,0.4,0.2c1.567,2.087,2.466,4.568,2.599,7.174l0,0.038h3.343
		c0.048-0.07,0.097-0.132,0.149-0.188l1.942-1.883c0.575-0.504,1.296-0.799,2.038-0.84l0.65,0l1.346-4.715
		c0.436-1.313,1.645-2.227,3.01-2.285l4.521,0c0.806,0.03,1.499,0.587,1.694,1.355l1.294,6.041c0.003,0.013,0.005,0.031,0.006,0.048
		C23.747,8.96,23.75,8.978,23.75,9v6.912c0,0.276-0.224,0.5-0.5,0.5s-0.5-0.224-0.5-0.5V9.5h-11.5
		c-0.498,0.028-0.996,0.233-1.389,0.576l-1.904,1.846c-0.118,0.128-0.197,0.32-0.208,0.517l0.001,3.473c0,0.276-0.224,0.5-0.5,0.5
		s-0.5-0.224-0.5-0.5v-1.5h-3V14.6c-0.134,2.627-1.033,5.113-2.6,7.2C1.056,21.925,0.906,22,0.75,22z M6.75,13.412v-1h-3l0,1H6.75z
		 M16.25,2.5c-0.936,0.04-1.775,0.676-2.075,1.581L12.912,8.5l9.719,0l-1.16-5.417c-0.083-0.325-0.386-0.568-0.736-0.583L16.25,2.5z
		"/>
	<path d="M10.25,12.412c-0.276,0-0.5-0.224-0.5-0.5s0.224-0.5,0.5-0.5h4c0.276,0,0.5,0.224,0.5,0.5s-0.224,0.5-0.5,0.5H10.25z"/>
	<path d="M10.25,14.412c-0.276,0-0.5-0.224-0.5-0.5s0.224-0.5,0.5-0.5h4c0.276,0,0.5,0.224,0.5,0.5s-0.224,0.5-0.5,0.5H10.25z"/>
	<path d="M9.75,22.5c-1.654,0-3-1.346-3-3s1.346-3,3-3h11c1.654,0,3,1.346,3,3s-1.346,3-3,3H9.75z M9.75,17.5c-1.103,0-2,0.897-2,2
		s0.897,2,2,2h11c1.103,0,2-0.897,2-2s-0.897-2-2-2H9.75z"/>
	<path d="M10.75,21c-0.827,0-1.5-0.673-1.5-1.5s0.673-1.5,1.5-1.5s1.5,0.673,1.5,1.5S11.577,21,10.75,21z M10.75,19
		c-0.276,0-0.5,0.224-0.5,0.5s0.224,0.5,0.5,0.5s0.5-0.224,0.5-0.5S11.026,19,10.75,19z"/>
	<path d="M15.25,21c-0.827,0-1.5-0.673-1.5-1.5s0.673-1.5,1.5-1.5c0.827,0,1.5,0.673,1.5,1.5S16.077,21,15.25,21z M15.25,19
		c-0.276,0-0.5,0.224-0.5,0.5s0.224,0.5,0.5,0.5s0.5-0.224,0.5-0.5S15.525,19,15.25,19z"/>
	<path d="M19.75,21c-0.827,0-1.5-0.673-1.5-1.5s0.673-1.5,1.5-1.5s1.5,0.673,1.5,1.5S20.577,21,19.75,21z M19.75,19
		c-0.276,0-0.5,0.224-0.5,0.5s0.224,0.5,0.5,0.5s0.5-0.224,0.5-0.5S20.025,19,19.75,19z"/>
</g>
</svg>
