<?xml version="1.0" encoding="utf-8"?>
<!-- Generator: Adobe Illustrator 22.1.0, SVG Export Plug-In . SVG Version: 6.00 Build 0)  -->
<svg version="1.1" id="Layer_1" xmlns="http://www.w3.org/2000/svg" xmlns:xlink="http://www.w3.org/1999/xlink" x="0px" y="0px"
	 viewBox="0 0 24 24" style="enable-background:new 0 0 24 24;" xml:space="preserve">
<g>
	<title>heavy-equipment-excavator-1</title>
	<path d="M14.5,21.001c-0.276,0-0.5-0.224-0.5-0.5s0.224-0.5,0.5-0.5h1c0.276,0,0.5,0.224,0.5,0.5s-0.224,0.5-0.5,0.5H14.5z"/>
	<circle cx="20.5" cy="20.501" r="0.75"/>
	<circle cx="9.5" cy="20.501" r="0.75"/>
	<path d="M20.5,24.001c-1.93,0-3.5-1.57-3.5-3.5s1.57-3.5,3.5-3.5c0.956,0,1.848,0.385,2.5,1.055v-3.055H10
		c-0.827,0-1.5,0.673-1.5,1.5v0.646c0.323-0.097,0.658-0.146,1-0.146c1.93,0,3.5,1.57,3.5,3.5s-1.57,3.5-3.5,3.5s-3.5-1.57-3.5-3.5
		c0-1.148,0.558-2.21,1.5-2.867v-1.133c0-1.378,1.121-2.5,2.5-2.5h1.117l0.682-2.53c0.368-1.594,1.56-2.838,3.107-3.287L5.214,1.055
		C5.146,1.021,5.07,1.003,4.994,1.003c-0.144,0-0.28,0.062-0.373,0.17C4.536,1.272,4.494,1.399,4.503,1.53
		c0.01,0.131,0.07,0.25,0.169,0.336l6.916,7.245c0.19,0.199,0.183,0.517-0.017,0.707c-0.094,0.089-0.216,0.138-0.345,0.138
		c-0.136,0-0.268-0.056-0.362-0.155L4.66,3.298L3.309,6.001H4.5c0.276,0,0.5,0.224,0.5,0.5C5,7.701,4.155,8.716,3,8.95v2.492
		l1.224,0.612c0.247,0.123,0.347,0.424,0.224,0.671C4.362,12.895,4.191,13.001,4,13.001c-0.077,0-0.154-0.018-0.223-0.052L3,12.56
		v1.382l1.224,0.612c0.247,0.123,0.347,0.424,0.224,0.671C4.362,15.395,4.191,15.501,4,15.501c-0.077,0-0.154-0.018-0.223-0.052
		L3,15.06v1.382l1.224,0.612c0.247,0.123,0.347,0.424,0.224,0.671C4.362,17.895,4.191,18.001,4,18.001
		c-0.077,0-0.154-0.018-0.223-0.052L3,17.56v1.382l1.224,0.612c0.247,0.123,0.347,0.424,0.224,0.671
		C4.362,20.395,4.191,20.501,4,20.501c-0.077,0-0.154-0.018-0.223-0.052L3,20.06v1.382l1.224,0.612
		c0.247,0.123,0.347,0.424,0.224,0.671C4.362,22.895,4.191,23.001,4,23.001c-0.077,0-0.154-0.018-0.223-0.052L3,22.56v0.941
		c0,0.276-0.224,0.5-0.5,0.5S2,23.777,2,23.501V22.06l-1.224-0.612c-0.12-0.06-0.208-0.162-0.251-0.289s-0.033-0.262,0.027-0.382
		c0.085-0.17,0.257-0.276,0.448-0.276c0.077,0,0.154,0.018,0.223,0.052L2,20.942V19.56l-1.224-0.612
		c-0.247-0.123-0.347-0.424-0.224-0.671c0.085-0.17,0.257-0.276,0.447-0.276c0.077,0,0.154,0.018,0.223,0.053L2,18.442V17.06
		l-1.224-0.612c-0.12-0.06-0.208-0.162-0.251-0.289s-0.033-0.262,0.027-0.382c0.085-0.17,0.257-0.276,0.447-0.276
		c0.077,0,0.154,0.018,0.223,0.052L2,15.942V14.56l-1.224-0.612c-0.12-0.06-0.208-0.162-0.251-0.289s-0.033-0.262,0.027-0.382
		c0.085-0.17,0.257-0.276,0.447-0.276c0.077,0,0.154,0.018,0.223,0.052L2,13.442V12.06l-1.224-0.612
		c-0.247-0.123-0.347-0.424-0.224-0.671C0.638,10.607,0.81,10.501,1,10.501c0.077,0,0.155,0.018,0.224,0.053L2,10.942V8.95
		c-1.155-0.234-2-1.25-2-2.449c0-0.276,0.224-0.5,0.5-0.5h1.691l1.733-3.467c-0.241-0.242-0.392-0.575-0.418-0.93
		C3.477,1.207,3.604,0.822,3.864,0.52c0.283-0.328,0.696-0.517,1.131-0.517c0.258,0,0.512,0.067,0.735,0.194
		c0.016,0.009,0.033,0.02,0.049,0.032l10.567,7.772H17.5c0.827,0,1.5,0.673,1.5,1.5v1.5h1.5c1.654,0,3,1.346,3,3
		c0.276,0,0.5,0.224,0.5,0.5v6C24,22.431,22.43,24.001,20.5,24.001z M20.5,18.001c-1.378,0-2.5,1.122-2.5,2.5s1.122,2.5,2.5,2.5
		s2.5-1.122,2.5-2.5S21.878,18.001,20.5,18.001z M9.5,18.001c-1.379,0-2.5,1.122-2.5,2.5s1.121,2.5,2.5,2.5s2.5-1.122,2.5-2.5
		S10.879,18.001,9.5,18.001z M22.5,14.001c0-1.103-0.897-2-2-2H19v2H22.5z M18,14.001v-4.5c0-0.276-0.224-0.5-0.5-0.5h-1.321
		c-1.639,0-3.042,1.115-3.41,2.713l-0.617,2.287H18z M1.086,7.001c0.209,0.586,0.773,1,1.414,1s1.205-0.414,1.414-1H1.086z"/>
</g>
</svg>
