<?xml version="1.0" encoding="utf-8"?>
<!-- Generator: Adobe Illustrator 22.1.0, SVG Export Plug-In . SVG Version: 6.00 Build 0)  -->
<svg version="1.1" id="Light" xmlns="http://www.w3.org/2000/svg" xmlns:xlink="http://www.w3.org/1999/xlink" x="0px" y="0px"
	 viewBox="0 0 24 24" style="enable-background:new 0 0 24 24;" xml:space="preserve">
<g>
	<title>show-hat-cards</title>
	<path d="M7.1,24c-1.732-0.022-3.121-1.445-3.1-3.172V12H1.5C1.224,12,1,11.776,1,11.5S1.224,11,1.5,11h21
		c0.276,0,0.5,0.224,0.5,0.5S22.776,12,22.5,12H20v8.831c0.02,1.723-1.367,3.146-3.093,3.169c-0.001,0-0.002,0-0.003,0H7.1z
		 M5,20.833C4.985,22.015,5.93,22.985,7.106,23H16.9c1.171-0.016,2.115-0.985,2.1-2.161V16H5V20.833z M19,15v-3H5v3H19z"/>
	<path d="M15.949,10c-0.23,0-0.429-0.156-0.485-0.379l-0.124-0.5l-1.048,0.781C14.205,9.966,14.101,10,13.993,10c0,0,0,0,0,0
		c-0.157,0-0.307-0.075-0.401-0.201c-0.08-0.107-0.113-0.239-0.094-0.371c0.019-0.132,0.089-0.249,0.196-0.329l1.049-0.781
		c0.106-0.079,0.226-0.136,0.355-0.168c0.079-0.02,0.161-0.03,0.242-0.03c0.18,0,0.358,0.05,0.514,0.144
		c0.229,0.138,0.391,0.356,0.455,0.616l0.124,0.5c0.066,0.267-0.097,0.539-0.365,0.606C16.03,9.995,15.99,10,15.949,10z"/>
	<path d="M8.689,9.681c-0.234,0-0.435-0.16-0.487-0.388L8.125,8.957C8.084,8.959,8.045,8.96,8.007,8.96
		c-0.938,0-1.632-0.481-1.811-1.256C5.971,6.729,7.169,5.248,7.411,4.961c0.095-0.113,0.234-0.177,0.382-0.177
		c0.07,0,0.139,0.015,0.203,0.043c0.343,0.152,2.065,0.959,2.291,1.933c0.095,0.411,0.028,0.816-0.195,1.171
		C9.88,8.271,9.532,8.552,9.099,8.735l0.077,0.334C9.238,9.338,9.07,9.607,8.801,9.668C8.763,9.677,8.726,9.681,8.689,9.681z
		 M7.937,5.908C7.444,6.566,7.114,7.235,7.17,7.479c0.101,0.436,0.609,0.483,0.822,0.483c0.13,0,0.264-0.015,0.396-0.045
		c0.001,0,0.016-0.004,0.022-0.005C8.783,7.824,9.102,7.629,9.245,7.4c0.081-0.129,0.103-0.264,0.068-0.415
		C9.256,6.741,8.667,6.284,7.937,5.908z"/>
	<path d="M19.878,10c-0.058,0-0.114-0.01-0.169-0.03c-0.125-0.045-0.226-0.136-0.283-0.257s-0.064-0.257-0.019-0.382l0.951-2.66
		l-7.335-2.628l-2.021,5.625C10.931,9.867,10.742,10,10.532,10c-0.057,0-0.114-0.01-0.169-0.029c-0.259-0.093-0.395-0.38-0.302-0.64
		l1.62-4.513l-0.874-3.82L3.23,2.744l1.507,6.644c0.03,0.13,0.007,0.264-0.063,0.377S4.491,9.957,4.361,9.987
		C4.324,9.996,4.286,10,4.249,10c-0.234,0-0.434-0.159-0.487-0.388L2.233,2.974C2.109,2.438,2.444,1.9,2.981,1.775l7.601-1.75
		c0.074-0.017,0.151-0.026,0.226-0.026c0.186,0,0.369,0.052,0.528,0.152c0.227,0.141,0.385,0.363,0.445,0.623l0.577,2.523
		c0.18-0.159,0.415-0.253,0.664-0.253c0.116,0,0.23,0.02,0.339,0.06l7.335,2.626c0.52,0.188,0.789,0.762,0.602,1.281l-0.951,2.659
		C20.278,9.867,20.089,10,19.878,10z"/>
	<circle cx="5.127" cy="3.907" r="0.75"/>
	<path d="M13.893,6.784c-0.414,0-0.75-0.336-0.75-0.75c0-0.408,0.329-0.742,0.735-0.75c0.005,0,0.025,0,0.03,0
		c0.415,0.011,0.733,0.341,0.735,0.745c0,0.001,0,0.004,0,0.004c0.001,0.412-0.333,0.749-0.746,0.751
		C13.897,6.784,13.894,6.784,13.893,6.784z"/>
</g>
</svg>
