<?xml version="1.0" encoding="utf-8"?>
<!-- Generator: Adobe Illustrator 22.1.0, SVG Export Plug-In . SVG Version: 6.00 Build 0)  -->
<svg version="1.1" id="Light" xmlns="http://www.w3.org/2000/svg" xmlns:xlink="http://www.w3.org/1999/xlink" x="0px" y="0px"
	 viewBox="0 0 24 24" style="enable-background:new 0 0 24 24;" xml:space="preserve">
<g>
	<title>show-theater</title>
	<path d="M22,24c-0.575,0-1.123-0.255-1.5-0.682C20.123,23.745,19.575,24,19,24c-0.711,0-1.374-0.388-1.729-1H6.729
		C6.374,23.612,5.711,24,5,24c-0.575,0-1.123-0.255-1.5-0.682C3.123,23.745,2.575,24,2,24c-1.103,0-2-0.897-2-2V1.5
		C0,0.673,0.673,0,1.5,0h21C23.327,0,24,0.673,24,1.5V22C24,23.103,23.103,24,22,24z M20.5,6.965c0.276,0,0.5,0.224,0.5,0.5V22
		c0,0.552,0.448,1,1,1s1-0.448,1-1V4h-5v18c0,0.552,0.448,1,1,1s1-0.448,1-1V7.465C20,7.189,20.224,6.965,20.5,6.965z M3.5,6.965
		c0.276,0,0.5,0.224,0.5,0.5V22c0,0.552,0.449,1,1,1s1-0.448,1-1V4H1v18c0,0.552,0.449,1,1,1s1-0.448,1-1V7.465
		C3,7.189,3.224,6.965,3.5,6.965z M17,22V4H7v18H17z M23,3V1.5C23,1.224,22.776,1,22.5,1h-21C1.224,1,1,1.224,1,1.5V3H23z"/>
</g>
</svg>
