<?xml version="1.0" encoding="utf-8"?>
<!-- Generator: Adobe Illustrator 22.1.0, SVG Export Plug-In . SVG Version: 6.00 Build 0)  -->
<svg version="1.1" id="Light" xmlns="http://www.w3.org/2000/svg" xmlns:xlink="http://www.w3.org/1999/xlink" x="0px" y="0px"
	 viewBox="0 0 24 24" style="enable-background:new 0 0 24 24;" xml:space="preserve">
<g>
	<title>show-theater-mask-happy</title>
	<path d="M12,24C9.844,24,1,18.61,1,12V1.507c-0.001-0.17,0.027-0.341,0.085-0.505c0.21-0.597,0.777-0.998,1.411-0.998
		c0.168,0,0.334,0.028,0.494,0.085c1.855,0.691,5.222,1.102,9.011,1.102c0,0,0.001,0,0.001,0c3.787,0,7.152-0.411,9-1.099
		c0.154-0.054,0.313-0.081,0.506-0.088c0.409,0.003,0.783,0.161,1.063,0.445c0.28,0.284,0.433,0.66,0.43,1.06V12
		C23,18.61,14.156,24,12,24z M2.495,1.004c-0.074,0-0.146,0.016-0.214,0.049C2.161,1.111,2.072,1.211,2.028,1.335
		C2.009,1.389,1.999,1.446,2,1.503V12c0,3.447,2.713,6.338,4.33,7.755C8.795,21.916,11.294,23,12,23c0.706,0,3.205-1.084,5.67-3.245
		C19.287,18.339,22,15.447,22,12V1.506c0.001-0.135-0.05-0.26-0.142-0.354c-0.093-0.094-0.216-0.146-0.348-0.147
		c-0.056,0-0.117,0.01-0.168,0.028c-1.93,0.719-5.423,1.149-9.339,1.149c-3.919,0-7.415-0.431-9.353-1.152
		C2.603,1.013,2.549,1.004,2.495,1.004z"/>
	<path d="M18.5,9C18.224,9,18,8.776,18,8.5C18,7.673,17.327,7,16.5,7C15.673,7,15,7.673,15,8.5C15,8.776,14.776,9,14.5,9
		S14,8.776,14,8.5C14,7.122,15.122,6,16.5,6S19,7.122,19,8.5C19,8.776,18.776,9,18.5,9z"/>
	<path d="M9.5,9C9.224,9,9,8.776,9,8.5C9,7.673,8.327,7,7.5,7S6,7.673,6,8.5C6,8.776,5.776,9,5.5,9S5,8.776,5,8.5
		C5,7.122,6.121,6,7.5,6S10,7.122,10,8.5C10,8.776,9.776,9,9.5,9z"/>
	<path d="M12,18c-2.481,0-4.5-2.019-4.5-4.5C7.5,13.225,7.724,13,8,13s0.5,0.224,0.5,0.5c0,1.93,1.57,3.5,3.5,3.5s3.5-1.57,3.5-3.5
		c0-0.276,0.224-0.5,0.5-0.5c0.276,0,0.5,0.224,0.5,0.5C16.5,15.982,14.481,18,12,18z"/>
</g>
</svg>
