<?xml version="1.0" encoding="utf-8"?>
<!-- Generator: Adobe Illustrator 22.1.0, SVG Export Plug-In . SVG Version: 6.00 Build 0)  -->
<svg version="1.1" id="Light" xmlns="http://www.w3.org/2000/svg" xmlns:xlink="http://www.w3.org/1999/xlink" x="0px" y="0px"
	 viewBox="0 0 24 24" style="enable-background:new 0 0 24 24;" xml:space="preserve">
<g>
	<title>show-theater-masks</title>
	<path d="M15,24c-2.205,0-9-4.724-9-10.5V6.753c0.001-0.192,0.037-0.379,0.108-0.556c0.229-0.572,0.776-0.941,1.393-0.941
		c0.192,0,0.38,0.036,0.558,0.109C9.606,5.992,12.2,6.366,15,6.366c2.799,0,5.393-0.374,6.939-1.001
		c0.185-0.076,0.361-0.112,0.552-0.112c0.844,0.004,1.512,0.677,1.509,1.5V13.5C24,19.276,17.205,24,15,24z M7.501,6.257
		c-0.206,0-0.388,0.123-0.465,0.314C7.012,6.629,7,6.691,7,6.755V13.5c0,5.118,6.098,9.5,8,9.5s8-4.382,8-9.5V6.752
		c0.001-0.274-0.219-0.497-0.492-0.498l-0.027-0.251v0.25c-0.048,0-0.101,0.012-0.164,0.038c-1.704,0.69-4.371,1.086-7.319,1.086
		c-2.947,0-5.613-0.395-7.313-1.085C7.627,6.269,7.564,6.257,7.501,6.257z"/>
	<path d="M4.873,16.59c-0.116,0-0.23-0.041-0.319-0.115C3.185,15.339,0,12.263,0,8.246V1.5c0.001-0.192,0.037-0.379,0.108-0.556
		c0.15-0.372,0.435-0.663,0.804-0.821C1.1,0.043,1.298,0.002,1.5,0.002c0.192,0,0.38,0.037,0.56,0.109
		c1.546,0.627,4.14,1.001,6.94,1.001c2.799,0,5.393-0.374,6.94-1C16.118,0.038,16.309,0,16.506,0
		c0.408,0.002,0.783,0.16,1.063,0.444c0.281,0.284,0.434,0.66,0.431,1.059v3.27c0,0.276-0.224,0.5-0.5,0.5S17,5.049,17,4.773V1.5
		c0.001-0.135-0.05-0.259-0.142-0.353C16.765,1.053,16.641,1.001,16.509,1c0,0,0,0-0.001,0c-0.076,0-0.125,0.01-0.191,0.037
		c-1.704,0.691-4.371,1.086-7.319,1.086c-2.947,0-5.613-0.396-7.313-1.085C1.627,1.015,1.564,1.003,1.501,1.003
		c-0.206,0-0.388,0.123-0.465,0.314C1.012,1.375,1,1.438,1,1.501v6.745c0,3.593,2.932,6.413,4.192,7.459
		c0.212,0.176,0.241,0.492,0.065,0.704C5.162,16.524,5.022,16.59,4.873,16.59z"/>
	<path d="M15,20c-1.93,0-3.5-1.57-3.5-3.5c0-0.276,0.224-0.5,0.5-0.5c0.276,0,0.5,0.224,0.5,0.5c0,1.378,1.122,2.5,2.5,2.5
		s2.5-1.122,2.5-2.5c0-0.276,0.224-0.5,0.5-0.5s0.5,0.224,0.5,0.5C18.5,18.43,16.93,20,15,20z"/>
	<path d="M20,12.5c-0.276,0-0.5-0.224-0.5-0.5c0-0.551-0.448-1-1-1s-1,0.449-1,1c0,0.276-0.224,0.5-0.5,0.5s-0.5-0.224-0.5-0.5
		c0-1.103,0.897-2,2-2s2,0.897,2,2C20.5,12.276,20.276,12.5,20,12.5z"/>
	<path d="M13,12.5c-0.276,0-0.5-0.224-0.5-0.5c0-0.551-0.449-1-1-1s-1,0.449-1,1c0,0.276-0.224,0.5-0.5,0.5S9.5,12.276,9.5,12
		c0-1.103,0.897-2,2-2s2,0.897,2,2C13.5,12.276,13.276,12.5,13,12.5z"/>
</g>
</svg>
