<?xml version="1.0" encoding="utf-8"?>
<!-- Generator: Adobe Illustrator 22.1.0, SVG Export Plug-In . SVG Version: 6.00 Build 0)  -->
<svg version="1.1" id="Light" xmlns="http://www.w3.org/2000/svg" xmlns:xlink="http://www.w3.org/1999/xlink" x="0px" y="0px"
	 viewBox="0 0 24 24" style="enable-background:new 0 0 24 24;" xml:space="preserve">
<g>
	<title>jellyfish-box</title>
	<path d="M15.993,23.998c-0.131-0.009-0.252-0.07-0.34-0.171s-0.13-0.23-0.121-0.364c0.092-1.281-0.122-2.585-0.618-3.771
		c-0.573-1.117-0.892-2.397-0.914-3.685c0.022-1.301,0.344-2.59,0.93-3.736c0.36-0.861,0.568-1.788,0.614-2.748
		c-0.595,0.06-0.949,0.237-1.32,0.423c-0.439,0.219-0.932,0.466-1.773,0.533c-0.111,0.773-0.318,1.518-0.616,2.216
		c-0.529,1.038-0.815,2.177-0.835,3.312c0.019,1.121,0.303,2.253,0.82,3.264c0.57,1.357,0.813,2.825,0.71,4.263
		c-0.019,0.26-0.238,0.464-0.498,0.464c-0.007,0-0.031-0.001-0.038-0.001c-0.131-0.009-0.253-0.07-0.34-0.171
		c-0.088-0.101-0.13-0.23-0.121-0.363c0.092-1.282-0.122-2.586-0.618-3.771c-0.573-1.117-0.892-2.397-0.914-3.685
		c0.022-1.301,0.344-2.59,0.93-3.736c0.236-0.554,0.409-1.163,0.51-1.802c-0.774-0.078-1.244-0.314-1.664-0.523
		C9.421,9.769,9.083,9.6,8.544,9.532c-0.048,1.093-0.286,2.155-0.708,3.161c-0.53,1.04-0.817,2.18-0.836,3.315
		c0.019,1.121,0.303,2.253,0.82,3.264c0.57,1.357,0.813,2.825,0.71,4.263c-0.019,0.26-0.238,0.464-0.499,0.464
		c-0.007,0-0.031-0.001-0.038-0.001c-0.131-0.009-0.253-0.07-0.34-0.171c-0.088-0.101-0.13-0.23-0.121-0.363
		c0.092-1.282-0.122-2.586-0.618-3.771C6.341,18.576,6.022,17.296,6,16.008c0.022-1.301,0.344-2.59,0.93-3.736
		c0.359-0.86,0.567-1.788,0.613-2.748c-0.597,0.06-0.951,0.237-1.322,0.423c-0.514,0.258-1.097,0.55-2.204,0.552
		c-0.53,0-0.969-0.413-1-0.94C2.871,7.164,3.669,4.852,5.265,3.05c1.595-1.802,3.793-2.875,6.189-3.02
		c0.186-0.011,0.375-0.017,0.56-0.017c2.19,0,4.304,0.803,5.952,2.262c1.8,1.594,2.871,3.793,3.017,6.192
		c0.032,0.518,0.018,1.044-0.041,1.561c-0.014,0.238-0.214,0.439-0.466,0.456c-0.171,0.011-0.33,0.016-0.479,0.016
		c-1.117,0-1.704-0.294-2.222-0.553c-0.355-0.178-0.693-0.347-1.232-0.415c-0.048,1.093-0.286,2.155-0.708,3.161
		c-0.53,1.04-0.816,2.18-0.836,3.315c0.02,1.121,0.303,2.253,0.82,3.264c0.57,1.357,0.813,2.826,0.709,4.264
		c-0.018,0.26-0.237,0.464-0.498,0.464C16.024,23.999,16,23.998,15.993,23.998z M16.088,8.502c1.063,0.015,1.632,0.299,2.135,0.55
		c0.478,0.239,0.891,0.446,1.762,0.448c0.02-0.324,0.02-0.65,0-0.972c-0.13-2.133-1.082-4.088-2.682-5.504
		c-1.464-1.296-3.344-2.01-5.294-2.01c-0.164,0-0.329,0.005-0.495,0.015C7.111,1.296,3.747,5.096,4.015,9.499
		c0.871-0.002,1.282-0.208,1.758-0.446C6.292,8.793,6.879,8.499,8,8.499c0.003,0,0.023,0.001,0.032,0.001
		C8.038,8.5,8.045,8.499,8.052,8.499c0.01,0,0.022,0.001,0.035,0.002c1.065,0.014,1.635,0.299,2.137,0.55
		c0.48,0.24,0.895,0.447,1.776,0.447c0.882,0,1.296-0.207,1.776-0.447C14.295,8.793,14.882,8.499,16,8.499
		c0.003,0,0.023,0.001,0.032,0.001c0.007-0.001,0.023-0.001,0.023-0.001C16.066,8.499,16.077,8.5,16.088,8.502z"/>
	<path d="M6.282,7.447c-0.073,0-0.144-0.016-0.211-0.047c-0.25-0.116-0.359-0.414-0.243-0.664c0.646-1.388,1.64-2.598,2.877-3.499
		C8.792,3.175,8.894,3.142,9,3.142c0.159,0,0.31,0.077,0.404,0.206c0.079,0.108,0.111,0.24,0.09,0.372
		C9.473,3.851,9.402,3.967,9.294,4.046c-1.1,0.802-1.985,1.878-2.559,3.113C6.654,7.334,6.476,7.447,6.282,7.447z"/>
</g>
</svg>
