<?xml version="1.0" encoding="utf-8"?>
<!-- Generator: Adobe Illustrator 22.1.0, SVG Export Plug-In . SVG Version: 6.00 Build 0)  -->
<svg version="1.1" id="Light" xmlns="http://www.w3.org/2000/svg" xmlns:xlink="http://www.w3.org/1999/xlink" x="0px" y="0px"
	 viewBox="0 0 24 24" style="enable-background:new 0 0 24 24;" xml:space="preserve">
<g>
	<title>jellyfish-group</title>
	<path d="M9.531,11.358c-0.177,0-0.342-0.095-0.431-0.247c-0.068-0.115-0.086-0.25-0.053-0.379c0.034-0.129,0.115-0.238,0.231-0.305
		c0.774-0.455,1.268-1.261,1.322-2.157c0.01-0.174,0.113-0.333,0.268-0.413c0.07-0.037,0.15-0.057,0.231-0.057
		c0.093,0,0.183,0.026,0.262,0.074l1.402,0.86c0.339-0.135,0.633-0.374,0.834-0.68c0.234-0.381,0.29-0.875,0.158-1.422
		c-0.247-1.028-1.095-2.07-2.268-2.787C10.594,3.3,9.616,3,8.731,3C7.815,3,7.118,3.315,6.768,3.886
		C6.593,4.193,6.516,4.558,6.549,4.919l1.402,0.859C8.1,5.869,8.192,6.035,8.19,6.209C8.188,6.385,8.093,6.548,7.942,6.636
		c-0.776,0.453-1.271,1.26-1.326,2.157C6.6,9.056,6.383,9.263,6.122,9.263c-0.007,0-0.034-0.001-0.04-0.002
		c-0.128-0.008-0.25-0.067-0.339-0.167c-0.089-0.1-0.133-0.229-0.125-0.362c0.058-0.957,0.484-1.846,1.181-2.487l-0.97-0.594
		C5.712,5.579,5.629,5.461,5.6,5.327C5.461,4.66,5.57,3.968,5.908,3.377c0.533-0.87,1.566-1.366,2.839-1.366
		c1.068,0,2.226,0.348,3.261,0.981c1.395,0.852,2.412,2.125,2.72,3.406c0.195,0.812,0.096,1.57-0.287,2.192
		c-0.381,0.581-0.952,0.996-1.611,1.174c-0.042,0.011-0.086,0.017-0.13,0.017c-0.092,0-0.183-0.026-0.261-0.074l-0.972-0.596
		c-0.257,0.911-0.856,1.692-1.682,2.178C9.707,11.335,9.62,11.358,9.531,11.358z"/>
	<path d="M7.822,10.307c-0.092,0-0.183-0.026-0.261-0.074C7.326,10.09,7.252,9.781,7.396,9.546l1.568-2.557
		C9.055,6.84,9.215,6.75,9.39,6.75c0.092,0,0.182,0.026,0.261,0.074C9.886,6.968,9.96,7.277,9.816,7.512l-1.568,2.557
		C8.156,10.218,7.997,10.307,7.822,10.307z"/>
	<path d="M17.326,20.532c-0.176,0-0.342-0.094-0.431-0.246c-0.14-0.238-0.06-0.545,0.177-0.685c0.774-0.455,1.269-1.261,1.323-2.157
		c0.011-0.174,0.114-0.333,0.268-0.413c0.07-0.037,0.15-0.057,0.23-0.057c0.092,0,0.183,0.026,0.262,0.074l1.403,0.86
		c0.339-0.135,0.633-0.374,0.834-0.68c0.714-1.162-0.232-3.053-2.112-4.209c-0.886-0.544-1.86-0.844-2.741-0.844
		c-0.271,0-0.53,0.029-0.769,0.086c-0.546,0.131-0.962,0.407-1.202,0.799c-0.175,0.307-0.252,0.672-0.219,1.034l1.402,0.859
		c0.149,0.091,0.24,0.256,0.239,0.431c-0.001,0.175-0.096,0.338-0.247,0.427c-0.772,0.455-1.265,1.261-1.318,2.156
		c-0.016,0.268-0.231,0.47-0.501,0.47c-0.005,0-0.023,0-0.028-0.001c-0.133-0.008-0.256-0.067-0.344-0.167
		c-0.089-0.1-0.133-0.229-0.125-0.362c0.057-0.955,0.479-1.844,1.174-2.486l-0.972-0.595c-0.117-0.072-0.2-0.19-0.228-0.325
		c-0.139-0.666-0.03-1.358,0.308-1.949c0.388-0.634,1.02-1.069,1.83-1.263c0.312-0.075,0.647-0.112,0.995-0.112
		c1.069,0,2.23,0.352,3.271,0.992c2.35,1.444,3.441,3.955,2.432,5.597c-0.381,0.581-0.952,0.996-1.612,1.174
		c-0.045,0.011-0.088,0.017-0.13,0.017c-0.093,0-0.183-0.026-0.261-0.074l-0.971-0.595c-0.257,0.911-0.856,1.692-1.682,2.177
		C17.503,20.508,17.415,20.532,17.326,20.532z"/>
	<path d="M15.631,19.481c-0.092,0-0.182-0.025-0.261-0.073c-0.114-0.07-0.194-0.18-0.225-0.31c-0.031-0.13-0.01-0.264,0.06-0.378
		l1.568-2.557c0.092-0.149,0.251-0.239,0.427-0.239c0.092,0,0.182,0.025,0.261,0.073c0.114,0.07,0.194,0.18,0.225,0.31
		c0.031,0.13,0.01,0.264-0.06,0.378l-1.568,2.557C15.966,19.391,15.806,19.481,15.631,19.481z"/>
	<path d="M5.326,22.032c-0.176,0-0.342-0.094-0.431-0.246c-0.14-0.238-0.06-0.545,0.177-0.685c0.774-0.455,1.269-1.261,1.323-2.157
		c0.01-0.174,0.113-0.333,0.268-0.413c0.07-0.037,0.15-0.057,0.231-0.057c0.092,0,0.183,0.026,0.262,0.074l1.402,0.86
		c0.339-0.135,0.633-0.374,0.834-0.68c0.714-1.162-0.232-3.053-2.112-4.209c-0.887-0.545-1.86-0.845-2.741-0.845
		c-0.271,0-0.53,0.029-0.768,0.086c-0.547,0.131-0.962,0.407-1.203,0.799c-0.175,0.307-0.252,0.672-0.219,1.034l1.402,0.859
		c0.149,0.091,0.24,0.256,0.239,0.431s-0.096,0.338-0.246,0.427c-0.772,0.455-1.265,1.261-1.319,2.157
		c-0.016,0.263-0.236,0.47-0.502,0.47c-0.005,0-0.021,0-0.026-0.001c-0.133-0.008-0.256-0.067-0.344-0.167
		c-0.089-0.1-0.133-0.228-0.125-0.362c0.057-0.955,0.479-1.844,1.174-2.486l-0.972-0.595C1.512,16.253,1.429,16.134,1.4,16
		c-0.139-0.666-0.03-1.359,0.307-1.95c0.389-0.635,1.02-1.069,1.83-1.263c0.312-0.075,0.647-0.113,0.996-0.113
		c1.068,0,2.229,0.352,3.27,0.992c2.35,1.444,3.441,3.955,2.432,5.597c-0.382,0.581-0.953,0.996-1.612,1.174
		c-0.045,0.011-0.088,0.017-0.13,0.017l0,0c-0.093,0-0.183-0.025-0.262-0.074l-0.971-0.595c-0.257,0.911-0.856,1.692-1.682,2.177
		C5.503,22.008,5.415,22.032,5.326,22.032z"/>
	<path d="M3.631,20.981c-0.092,0-0.182-0.025-0.261-0.073c-0.235-0.145-0.309-0.453-0.165-0.688l1.568-2.557
		c0.092-0.15,0.251-0.239,0.427-0.239c0.092,0,0.182,0.025,0.26,0.073c0.235,0.145,0.309,0.453,0.165,0.688l-1.568,2.557
		C3.965,20.891,3.806,20.981,3.631,20.981z"/>
</g>
</svg>
