<?xml version="1.0" encoding="utf-8"?>
<!-- Generator: Adobe Illustrator 22.1.0, SVG Export Plug-In . SVG Version: 6.00 Build 0)  -->
<svg version="1.1" id="Light" xmlns="http://www.w3.org/2000/svg" xmlns:xlink="http://www.w3.org/1999/xlink" x="0px" y="0px"
	 viewBox="0 0 24 24" style="enable-background:new 0 0 24 24;" xml:space="preserve">
<g>
	<title>baseball-score</title>
	<path d="M12,24c-2.206,0-4-1.346-4-3c0-0.273,0.051-0.544,0.151-0.809l-7.568-2.633c-0.389-0.134-0.597-0.561-0.463-0.951
		c0.01-0.029,0.02-0.054,0.032-0.079C0.689,15.353,3.139,11.5,12,11.5c8.853,0,11.312,3.856,11.854,5.038
		c0.088,0.196,0.089,0.419,0.001,0.613c-0.08,0.187-0.241,0.336-0.439,0.406l-7.568,2.634C15.949,20.455,16,20.727,16,21
		C16,22.654,14.206,24,12,24z M9.093,20.518C9.031,20.677,9,20.839,9,21c0,1.103,1.346,2,3,2c1.654,0,3-0.897,3-2
		c0-0.161-0.031-0.323-0.093-0.482l-2.743,0.955C12.111,21.491,12.056,21.5,12,21.5s-0.111-0.009-0.164-0.028L9.093,20.518z
		 M12,20.471l2.251-0.784C13.684,19.252,12.872,19,12,19c-0.873,0-1.684,0.252-2.252,0.688L12,20.471z M8.689,19.319
		C9.435,18.49,10.657,18,12,18c1.343,0,2.564,0.49,3.31,1.319l7.508-2.613C22.134,15.456,19.696,12.5,12,12.5
		c-7.697,0-10.135,2.958-10.819,4.208L8.689,19.319z"/>
	<path d="M0.5,10C0.224,10,0,9.776,0,9.5S0.224,9,0.5,9h2.605V3.814L0.748,2.675C0.597,2.602,0.473,2.478,0.4,2.327
		C0.22,1.955,0.376,1.505,0.748,1.325l2.64-1.275C3.455,0.017,3.53,0,3.605,0c0.094,0,0.186,0.026,0.266,0.076
		C4.017,0.169,4.105,0.327,4.105,0.5V9H9V8H8C7.449,8,7,7.551,7,7V3c0-0.551,0.449-1,1-1h8c0.552,0,1,0.449,1,1v4
		c0,0.551-0.448,1-1,1h-1v1h5V0.5c0-0.173,0.088-0.332,0.234-0.424C20.314,0.026,20.406,0,20.5,0c0.075,0,0.15,0.017,0.217,0.049
		l2.639,1.275c0.178,0.084,0.314,0.235,0.382,0.424c0.067,0.188,0.057,0.391-0.029,0.572c-0.074,0.156-0.2,0.283-0.357,0.356
		L21,3.814V9h2.5C23.776,9,24,9.224,24,9.5S23.776,10,23.5,10H0.5z M14,9V8h-4v1H14z M8,7h8V3H8L8,7z M3.105,2.703V1.297L1.649,2
		L3.105,2.703z M21,2.703L22.456,2L21,1.297V2.703z"/>
	<path d="M10,5C9.724,5,9.5,4.776,9.5,4.5S9.724,4,10,4h4c0.276,0,0.5,0.224,0.5,0.5S14.276,5,14,5H10z"/>
</g>
</svg>
