<?xml version="1.0" encoding="utf-8"?>
<!-- Generator: Adobe Illustrator 22.1.0, SVG Export Plug-In . SVG Version: 6.00 Build 0)  -->
<svg version="1.1" id="Light" xmlns="http://www.w3.org/2000/svg" xmlns:xlink="http://www.w3.org/1999/xlink" x="0px" y="0px"
	 viewBox="0 0 24 24" style="enable-background:new 0 0 24 24;" xml:space="preserve">
<g>
	<title>baseball-player</title>
	<path d="M14.961,8.997c-1.654,0-3-1.346-3-3s1.346-3,3-3s3,1.346,3,3S16.615,8.997,14.961,8.997z M14.961,3.997
		c-1.103,0-2,0.897-2,2s0.897,2,2,2s2-0.897,2-2S16.064,3.997,14.961,3.997z"/>
	<path d="M20.045,24.001c-0.216,0-0.406-0.137-0.474-0.342l-1.583-4.749c-0.017-0.051-0.026-0.104-0.026-0.158v-5.251
		c0-1.378-1.122-2.5-2.5-2.5h-3.258c-1.07,0-2.074,0.416-2.829,1.172l-0.572,0.572c-0.187,0.186-0.445,0.293-0.708,0.293
		L8.05,13.037c-0.281-0.013-0.544-0.145-0.723-0.36l-1.099-1.316C6.06,11.18,5.816,11.07,5.55,11.06l-0.037-0.001
		c-0.254,0-0.496,0.095-0.681,0.266c-0.377,0.349-0.429,0.923-0.12,1.334l1.084,1.298c0.539,0.645,1.33,1.037,2.169,1.076
		c0.057,0.003,0.111,0.005,0.165,0.005c0.781,0,1.543-0.319,2.09-0.876l0.575-0.575c0.377-0.375,0.876-0.582,1.406-0.585h0.261
		c0.276,0,0.5,0.224,0.5,0.5v5.257c0,0.053-0.009,0.106-0.025,0.156l-1.579,4.744c-0.068,0.205-0.259,0.342-0.475,0.342
		c-0.053,0-0.106-0.009-0.156-0.025c-0.263-0.088-0.405-0.371-0.318-0.633l1.553-4.666l-0.007-4.643
		c-0.17,0.045-0.326,0.134-0.454,0.261l-0.571,0.571c-0.731,0.745-1.749,1.173-2.791,1.173c-0.075,0-0.15-0.002-0.225-0.007
		c-1.114-0.051-2.167-0.573-2.885-1.433l-1.1-1.319c-0.631-0.838-0.531-1.99,0.225-2.689c0.371-0.343,0.853-0.532,1.358-0.532
		c0.026,0,0.051,0,0.077,0.001c0.534,0.021,1.028,0.248,1.391,0.64l1.117,1.336l0.572-0.571c0.944-0.944,2.2-1.464,3.535-1.464h3.26
		c1.93,0,3.5,1.57,3.5,3.5v5.17l1.557,4.672c0.042,0.127,0.033,0.263-0.027,0.382s-0.162,0.208-0.289,0.25
		C20.152,23.992,20.099,24.001,20.045,24.001z"/>
	<path d="M16.853,23.999c-0.213,0-0.403-0.135-0.472-0.336l-0.92-2.644l-0.919,2.644c-0.07,0.201-0.26,0.336-0.472,0.336
		c-0.056,0-0.112-0.01-0.165-0.028c-0.125-0.043-0.227-0.134-0.285-0.254c-0.058-0.12-0.066-0.256-0.022-0.382l1.391-4.002
		c0.07-0.201,0.26-0.336,0.472-0.336s0.403,0.135,0.472,0.336l1.392,4.002c0.044,0.126,0.036,0.262-0.022,0.382
		c-0.058,0.12-0.16,0.21-0.286,0.254C16.965,23.99,16.909,23.999,16.853,23.999L16.853,23.999z"/>
	<path d="M7.645,10.039c-0.097,0-0.192-0.028-0.274-0.082C7.14,9.805,7.076,9.495,7.227,9.265l4.05-6.163
		c0.011-0.02,0.032-0.06,0.052-0.101c0.16-0.341,0.177-0.723,0.049-1.076s-0.386-0.636-0.726-0.795
		c-0.19-0.089-0.39-0.134-0.596-0.134c-0.163,0-0.324,0.029-0.48,0.085C9.222,1.208,8.94,1.466,8.78,1.806L5.798,9.019
		C5.72,9.207,5.539,9.328,5.335,9.328l0,0c-0.065,0-0.129-0.013-0.19-0.037C4.89,9.185,4.768,8.892,4.874,8.637l2.992-7.234
		c0.402-0.859,1.261-1.406,2.193-1.406c0.353,0,0.695,0.076,1.017,0.227c0.582,0.273,1.023,0.756,1.242,1.36
		c0.219,0.605,0.189,1.258-0.084,1.84c-0.033,0.07-0.069,0.139-0.109,0.206L8.063,9.814C7.97,9.955,7.813,10.039,7.645,10.039z"/>
</g>
</svg>
