<?xml version="1.0" encoding="utf-8"?>
<!-- Generator: Adobe Illustrator 22.1.0, SVG Export Plug-In . SVG Version: 6.00 Build 0)  -->
<svg version="1.1" id="Light" xmlns="http://www.w3.org/2000/svg" xmlns:xlink="http://www.w3.org/1999/xlink" x="0px" y="0px"
	 viewBox="0 0 24 24" style="enable-background:new 0 0 24 24;" xml:space="preserve">
<g>
	<title>croquet-ball-hoop</title>
	<path d="M5.875,23.806c-0.201,0-0.396-0.06-0.562-0.174l-4.684-3.194c-0.455-0.311-0.573-0.934-0.263-1.39l1.316-1.929
		c0.187-0.273,0.496-0.436,0.828-0.436c0.201,0,0.396,0.06,0.562,0.173l1.929,1.315L17.244,0.218C17.337,0.082,17.491,0,17.657,0
		c0.101,0,0.198,0.03,0.281,0.087c0.111,0.075,0.185,0.189,0.21,0.32c0.025,0.131-0.003,0.264-0.078,0.375L5.827,18.736l1.929,1.315
		c0.456,0.311,0.573,0.935,0.263,1.39L6.703,23.37C6.516,23.643,6.207,23.806,5.875,23.806z M1.193,19.612l4.684,3.194l1.316-1.929
		l-4.683-3.194C2.508,17.683,1.193,19.612,1.193,19.612z"/>
	<path d="M12.523,23.752c-1.301,0-2.359-1.058-2.359-2.359s1.058-2.359,2.359-2.359c1.301,0,2.359,1.058,2.359,2.359
		S13.823,23.752,12.523,23.752z M12.523,20.034c-0.749,0-1.359,0.61-1.359,1.359c0,0.749,0.61,1.359,1.359,1.359
		c0.75,0,1.359-0.61,1.359-1.359C13.882,20.644,13.272,20.034,12.523,20.034z"/>
	<path d="M23.308,24c-0.276,0-0.5-0.224-0.5-0.5v-3.471c0-1.091-0.888-1.979-1.979-1.979c-0.529,0-1.026,0.206-1.4,0.579
		c-0.374,0.374-0.58,0.871-0.58,1.399V23.5c0,0.276-0.224,0.5-0.5,0.5s-0.5-0.224-0.5-0.5v-3.471c0-0.796,0.31-1.544,0.873-2.106
		c0.563-0.562,1.311-0.872,2.106-0.872c1.643,0,2.979,1.336,2.979,2.979V23.5C23.808,23.776,23.583,24,23.308,24z"/>
</g>
</svg>
