<?xml version="1.0" encoding="utf-8"?>
<!-- Generator: Adobe Illustrator 22.1.0, SVG Export Plug-In . SVG Version: 6.00 Build 0)  -->
<svg version="1.1" id="Light" xmlns="http://www.w3.org/2000/svg" xmlns:xlink="http://www.w3.org/1999/xlink" x="0px" y="0px"
	 viewBox="0 0 24 24" style="enable-background:new 0 0 24 24;" xml:space="preserve">
<g>
	<title>make-up-lipstick</title>
	<path d="M8.612,23.254c-0.401,0-0.777-0.156-1.061-0.439l-4.95-4.95c-0.585-0.585-0.585-1.536,0-2.121l4.95-4.95
		c0.188-0.189,0.44-0.293,0.707-0.293c0.267,0,0.518,0.104,0.707,0.292l3.536-3.536c0.189-0.189,0.44-0.292,0.707-0.292
		c0.267,0,0.518,0.104,0.707,0.292l6.217-6.217c0.188-0.189,0.44-0.293,0.707-0.293c0.268,0,0.519,0.104,0.707,0.292
		c0.187,0.186,0.294,0.445,0.294,0.71V7.2c0,0.401-0.156,0.777-0.439,1.061l-3.243,3.243c0.387,0.39,0.386,1.022-0.002,1.411
		l-3.533,3.536c0.189,0.189,0.293,0.44,0.293,0.707c0,0.267-0.104,0.518-0.293,0.707l-4.95,4.95
		C9.389,23.098,9.012,23.254,8.612,23.254z M3.309,16.45c-0.195,0.195-0.195,0.512,0,0.707l4.95,4.95
		c0.089,0.088,0.217,0.139,0.354,0.139c0.136,0,0.265-0.051,0.354-0.139l4.95-4.95L8.258,11.5L3.309,16.45z M13.915,15.743
		l3.532-3.535l-0.312-0.313c-0.013-0.009-0.028-0.021-0.043-0.036c-0.009-0.01-0.021-0.024-0.031-0.038l-3.853-3.856L9.672,11.5
		L13.915,15.743z M17.451,10.796l3.243-3.243C20.786,7.461,20.84,7.332,20.84,7.2l-0.001-5.454l-6.217,6.218L17.451,10.796z"/>
	<path d="M11.794,12c-0.134,0-0.259-0.052-0.354-0.146c-0.195-0.195-0.195-0.512,0-0.707l1.414-1.414
		c0.094-0.094,0.22-0.146,0.354-0.146s0.259,0.052,0.354,0.146c0.195,0.195,0.195,0.512,0,0.707l-1.414,1.414
		C12.053,11.948,11.928,12,11.794,12z"/>
</g>
</svg>
