<?xml version="1.0" encoding="utf-8"?>
<!-- Generator: Adobe Illustrator 22.1.0, SVG Export Plug-In . SVG Version: 6.00 Build 0)  -->
<svg version="1.1" id="Light" xmlns="http://www.w3.org/2000/svg" xmlns:xlink="http://www.w3.org/1999/xlink" x="0px" y="0px"
	 viewBox="0 0 24 24" style="enable-background:new 0 0 24 24;" xml:space="preserve">
<g>
	<title>make-up-brush-set</title>
	<path d="M2.5,24C1.121,24,0,22.878,0,21.5v-19C0,1.121,1.121,0,2.5,0h19C22.878,0,24,1.121,24,2.5v19c0,1.378-1.122,2.5-2.5,2.5
		H2.5z M2.5,1C1.673,1,1,1.673,1,2.5v19C1,22.327,1.673,23,2.5,23h19c0.827,0,1.5-0.673,1.5-1.5v-19C23,1.673,22.327,1,21.5,1H2.5z"
		/>
	<path d="M17.333,8C16.598,8,16,7.402,16,6.667V3.334C16,2.598,16.598,2,17.334,2h3.332C21.402,2,22,2.598,22,3.334v3.334
		C22,7.402,21.402,8,20.668,8H17.333z M17.334,3C17.15,3,17,3.15,17,3.334v3.333C17,6.851,17.149,7,17.333,7h3.335
		C20.851,7,21,6.851,21,6.668V3.334C21,3.15,20.85,3,20.666,3H17.334z"/>
	<path d="M10.333,8C9.598,8,9,7.402,9,6.667V3.334C9,2.598,9.598,2,10.334,2h3.332C14.402,2,15,2.598,15,3.334v3.334
		C15,7.402,14.402,8,13.668,8H10.333z M10.334,3C10.15,3,10,3.15,10,3.334v3.333C10,6.851,10.149,7,10.333,7h3.335
		C13.851,7,14,6.851,14,6.668V3.334C14,3.15,13.85,3,13.666,3H10.334z"/>
	<path d="M17.333,15C16.598,15,16,14.402,16,13.667v-3.333C16,9.598,16.598,9,17.334,9h3.332C21.402,9,22,9.598,22,10.334v3.334
		C22,14.402,21.402,15,20.668,15H17.333z M17.334,10C17.15,10,17,10.15,17,10.334v3.333C17,13.851,17.149,14,17.333,14h3.335
		C20.851,14,21,13.851,21,13.668v-3.334C21,10.15,20.85,10,20.666,10H17.334z"/>
	<path d="M10.333,15C9.598,15,9,14.402,9,13.667v-3.333C9,9.598,9.598,9,10.334,9h3.332C14.402,9,15,9.598,15,10.334v3.334
		C15,14.402,14.402,15,13.668,15H10.333z M10.334,10C10.15,10,10,10.15,10,10.334v3.333C10,13.851,10.149,14,10.333,14h3.335
		C13.851,14,14,13.851,14,13.668v-3.334C14,10.15,13.85,10,13.666,10H10.334z"/>
	<path d="M17.333,22C16.598,22,16,21.402,16,20.667v-3.333C16,16.598,16.598,16,17.334,16h3.333C21.402,16,22,16.598,22,17.333
		v3.335C22,21.402,21.402,22,20.668,22H17.333z M17.334,17C17.15,17,17,17.15,17,17.334v3.333C17,20.851,17.149,21,17.333,21h3.335
		C20.851,21,21,20.851,21,20.668v-3.335C21,17.149,20.851,17,20.667,17H17.334z"/>
	<path d="M10.333,22C9.598,22,9,21.402,9,20.667v-3.333C9,16.598,9.598,16,10.334,16h3.333C14.402,16,15,16.598,15,17.333v3.335
		C15,21.402,14.402,22,13.668,22H10.333z M10.334,17C10.15,17,10,17.15,10,17.334v3.333C10,20.851,10.149,21,10.333,21h3.335
		C13.851,21,14,20.851,14,20.668v-3.335C14,17.149,13.851,17,13.667,17H10.334z"/>
	<path d="M5,22c-1.103,0-2-0.897-2-2V8.549L2.01,3.598C2.003,3.566,2,3.533,2,3.5c0-1.091,1.55-1.48,3-1.48S8,2.409,8,3.5
		c0,0.033-0.003,0.066-0.01,0.099L7,8.549V20C7,21.103,6.103,22,5,22z M4,20c0,0.552,0.449,1,1,1s1-0.448,1-1V9H4V20z M6.09,8
		l0.903-4.513C6.961,3.439,6.83,3.333,6.554,3.237C6.158,3.099,5.592,3.02,5,3.02c-1.208,0-1.915,0.311-1.994,0.463L3.91,8H6.09z"/>
</g>
</svg>
