<?xml version="1.0" encoding="utf-8"?>
<!-- Generator: Adobe Illustrator 22.1.0, SVG Export Plug-In . SVG Version: 6.00 Build 0)  -->
<svg version="1.1" id="Light" xmlns="http://www.w3.org/2000/svg" xmlns:xlink="http://www.w3.org/1999/xlink" x="0px" y="0px"
	 viewBox="0 0 24 24" style="enable-background:new 0 0 24 24;" xml:space="preserve">
<g>
	<title>make-up-mirror</title>
	<path d="M12,24c-4.687,0-8.5-2.243-8.5-5c0-2.079,2.187-3.925,5.418-4.661C6.243,13.138,4.5,10.491,4.5,7.5C4.5,3.365,7.865,0,12,0
		s7.5,3.365,7.5,7.5c0,2.991-1.743,5.638-4.418,6.839C18.313,15.075,20.5,16.921,20.5,19C20.5,21.757,16.687,24,12,24z M12,15
		c-4.135,0-7.5,1.794-7.5,4s3.365,4,7.5,4s7.5-1.794,7.5-4S16.135,15,12,15z M12,1C8.416,1,5.5,3.916,5.5,7.5S8.416,14,12,14
		c3.584,0,6.5-2.916,6.5-6.5S15.584,1,12,1z"/>
	<path d="M12,22c-0.511,0-1.022-0.026-1.518-0.078c-0.016,0-0.029-0.001-0.04-0.004C7.484,21.602,5.5,20.431,5.5,19
		c0-1.71,2.794-3,6.5-3c0.288,0,0.585,0.009,0.884,0.026c0,0,0.024,0.001,0.039,0.003C16.202,16.228,18.5,17.45,18.5,19
		C18.5,20.71,15.706,22,12,22z M11.077,20.97C11.381,20.99,11.691,21,12,21c3.408,0,5.5-1.165,5.5-2c0-0.792-1.78-1.758-4.442-1.958
		C11.992,18.103,11.295,19.485,11.077,20.97z M11.751,17.002C8.491,17.057,6.5,18.185,6.5,19c0,0.677,1.334,1.54,3.581,1.866
		C10.282,19.44,10.854,18.118,11.751,17.002z"/>
</g>
</svg>
