<?xml version="1.0" encoding="utf-8"?>
<!-- Generator: Adobe Illustrator 22.1.0, SVG Export Plug-In . SVG Version: 6.00 Build 0)  -->
<svg version="1.1" id="Light" xmlns="http://www.w3.org/2000/svg" xmlns:xlink="http://www.w3.org/1999/xlink" x="0px" y="0px"
	 viewBox="0 0 24 24" style="enable-background:new 0 0 24 24;" xml:space="preserve">
<g>
	<title>make-up-table-mirror</title>
	<path d="M1.5,24C1.224,24,1,23.776,1,23.5S1.224,23,1.5,23h10v-3.537C6.244,19.227,1.836,15.215,1.107,10H0.5
		C0.224,10,0,9.776,0,9.5S0.224,9,0.5,9h3.014c-0.01-0.171-0.016-0.337-0.016-0.5c0-4.687,3.813-8.5,8.5-8.5
		c4.687,0,8.5,3.813,8.5,8.5c0,0.163-0.005,0.329-0.016,0.5H23.5C23.776,9,24,9.224,24,9.5S23.776,10,23.5,10h-0.611
		c-0.699,4.985-4.794,8.932-9.819,9.424c-0.177,0.017-0.365,0.03-0.57,0.039V23h10c0.276,0,0.5,0.224,0.5,0.5S22.776,24,22.5,24H1.5
		z M2.118,10c0.746,4.853,4.94,8.477,9.87,8.477c0.326,0,0.658-0.016,0.984-0.048c4.513-0.442,8.215-3.966,8.906-8.429h-1.514
		c-0.717,4.006-4.276,7-8.367,7c-4.091,0-7.65-2.994-8.367-7H2.118z M11.998,1c-4.135,0-7.5,3.365-7.5,7.5s3.365,7.5,7.5,7.5
		s7.5-3.365,7.5-7.5S16.134,1,11.998,1z"/>
</g>
</svg>
