<?xml version="1.0" encoding="utf-8"?>
<!-- Generator: Adobe Illustrator 22.1.0, SVG Export Plug-In . SVG Version: 6.00 Build 0)  -->
<svg version="1.1" id="Light" xmlns="http://www.w3.org/2000/svg" xmlns:xlink="http://www.w3.org/1999/xlink" x="0px" y="0px"
	 viewBox="0 0 24 24" style="enable-background:new 0 0 24 24;" xml:space="preserve">
<g>
	<title>make-up-eye</title>
	<path d="M12.698,18.946c-0.155,0-0.309-0.003-0.465-0.01c-0.145,0.006-0.299,0.01-0.454,0.01c-3.437,0-6.711-1.656-8.757-4.43
		c-0.24-0.349-0.242-0.806-0.01-1.145c0.187-0.254,0.389-0.503,0.618-0.76c-0.529-0.74-1.398-1.193-2.311-1.193
		c-0.162,0-0.326,0.014-0.487,0.042c-0.03,0.005-0.058,0.007-0.085,0.007c-0.244,0-0.452-0.174-0.493-0.414
		c-0.047-0.272,0.135-0.531,0.407-0.578c0.217-0.038,0.439-0.057,0.659-0.057c1.184,0,2.292,0.543,3.017,1.466
		c0.726-0.683,1.537-1.26,2.417-1.72C6.44,9.073,5.503,8.259,4.367,8.115c-0.133-0.017-0.251-0.084-0.332-0.19
		C3.952,7.82,3.917,7.689,3.933,7.556C3.965,7.307,4.178,7.119,4.43,7.119c0.021,0,0.042,0.001,0.063,0.004
		c1.469,0.186,2.713,1.223,3.177,2.618c0.912-0.373,1.867-0.62,2.845-0.735c0.083-1.169-0.515-2.264-1.562-2.827
		C8.71,6.048,8.618,5.744,8.749,5.501c0.088-0.162,0.256-0.263,0.44-0.263c0.082,0,0.164,0.021,0.237,0.06
		c1.346,0.725,2.146,2.13,2.092,3.636c0.114-0.004,0.229-0.005,0.343-0.005c0.127,0,0.255,0.002,0.382,0.008
		c0.151-0.006,0.301-0.009,0.451-0.009c0.586,0,1.182,0.05,1.775,0.147c0.466-1.072,0.263-2.299-0.539-3.172
		c-0.09-0.098-0.137-0.226-0.131-0.359s0.063-0.257,0.161-0.347c0.093-0.085,0.213-0.132,0.338-0.132
		c0.14,0,0.274,0.059,0.368,0.161c1.018,1.108,1.316,2.672,0.795,4.06c0.962,0.252,1.882,0.634,2.74,1.137
		c0.77-0.835,0.98-2.058,0.518-3.104c-0.111-0.252,0.003-0.548,0.255-0.659c0.065-0.028,0.133-0.043,0.202-0.043
		c0.198,0,0.377,0.117,0.458,0.298c0.595,1.346,0.355,2.941-0.586,4.06c0.805,0.579,1.526,1.264,2.148,2.04
		c1.019-0.523,1.636-1.608,1.55-2.759c-0.01-0.133,0.032-0.262,0.12-0.363c0.087-0.101,0.209-0.162,0.342-0.172
		c0.006,0,0.035-0.002,0.041-0.002c0.258,0,0.475,0.203,0.495,0.463c0.115,1.549-0.722,3.023-2.096,3.727
		c0.007,0.211-0.052,0.419-0.171,0.593C19.423,17.287,16.143,18.946,12.698,18.946z M12.244,9.936c-2.206,0-4,1.794-4,4s1.794,4,4,4
		s4-1.794,4-4S14.45,9.936,12.244,9.936z M7.416,10.949c-1.413,0.697-2.653,1.734-3.589,3.002c1.228,1.64,2.925,2.859,4.862,3.496
		c-0.921-0.924-1.446-2.171-1.446-3.511c0-1.338,0.524-2.584,1.443-3.508c-0.355,0.118-0.704,0.255-1.045,0.413
		C7.575,10.898,7.499,10.934,7.416,10.949z M15.798,10.425c0.92,0.926,1.447,2.176,1.447,3.511c0,1.339-0.525,2.586-1.444,3.509
		c1.938-0.638,3.636-1.862,4.862-3.523c-0.724-0.951-1.606-1.778-2.627-2.433c0,0-0.017-0.011-0.024-0.016
		C17.312,11.03,16.572,10.68,15.798,10.425z"/>
	<path d="M12.244,16.436c-1.379,0-2.5-1.122-2.5-2.5s1.121-2.5,2.5-2.5c1.378,0,2.5,1.122,2.5,2.5S13.623,16.436,12.244,16.436z
		 M12.244,12.436c-0.827,0-1.5,0.673-1.5,1.5s0.673,1.5,1.5,1.5s1.5-0.673,1.5-1.5S13.072,12.436,12.244,12.436z"/>
</g>
</svg>
