<?xml version="1.0" encoding="utf-8"?>
<!-- Generator: Adobe Illustrator 22.1.0, SVG Export Plug-In . SVG Version: 6.00 Build 0)  -->
<svg version="1.1" id="Layer_1" xmlns="http://www.w3.org/2000/svg" xmlns:xlink="http://www.w3.org/1999/xlink" x="0px" y="0px"
	 viewBox="0 0 24 24" style="enable-background:new 0 0 24 24;" xml:space="preserve">
<g>
	<title>social-picasa</title>
	<path d="M12,24c-1.622,0-3.196-0.32-4.68-0.951c-0.007-0.001-0.029-0.012-0.052-0.024C4.408,21.8,2.077,19.43,0.89,16.529
		c-0.014-0.028-0.026-0.056-0.034-0.086C0.288,15.023,0,13.529,0,12C0,7.104,2.935,2.743,7.478,0.888
		c0.023-0.011,0.046-0.021,0.071-0.028C8.971,0.289,10.468,0,12,0c1.622,0,3.196,0.32,4.679,0.95
		c0.008,0.002,0.03,0.012,0.052,0.024C21.14,2.864,24,7.195,24,12c0,1.622-0.32,3.196-0.951,4.68
		c-0.001,0.006-0.011,0.028-0.023,0.051C21.136,21.14,16.805,24,12,24z M8,22.245C9.278,22.746,10.623,23,12,23
		c4.117,0,7.918-2.342,9.794-6H8V22.245z M1.926,16.417C2.95,18.743,4.738,20.636,7,21.794V11.343L1.926,16.417z M22.245,16
		C22.746,14.722,23,13.377,23,12c0-4.117-2.342-7.918-6-9.794V16H22.245z M16,16v-5.687l-3.992-3.978L8,10.343V16H16z M7.584,1.926
		C3.578,3.687,1,7.623,1,12c0,1.16,0.18,2.3,0.536,3.393L11.3,5.629L7.584,1.926z M16,8.901V1.755C14.722,1.254,13.377,1,12,1
		c-1.16,0-2.299,0.18-3.392,0.535L16,8.901z"/>
</g>
</svg>
