<?xml version="1.0" encoding="utf-8"?>
<!-- Generator: Adobe Illustrator 22.1.0, SVG Export Plug-In . SVG Version: 6.00 Build 0)  -->
<svg version="1.1" id="Layer_1" xmlns="http://www.w3.org/2000/svg" xmlns:xlink="http://www.w3.org/1999/xlink" x="0px" y="0px"
	 viewBox="0 0 24 24" style="enable-background:new 0 0 24 24;" xml:space="preserve">
<g>
	<title>social-smug-mug</title>
	<path d="M8.292,23c-3.036,0-5.208-1.088-6.455-3.234c-1.143-1.965-1.181-4.316-1.012-5.942c0.207-1.988,0.841-4.035,1.741-5.615
		C2.654,8.053,2.821,7.956,3,7.956h20c0.145,0,0.282,0.062,0.377,0.171c0.095,0.109,0.138,0.253,0.119,0.396
		c-0.021,0.148-0.523,3.661-2.623,7.209C18.911,19.048,15.135,23,8.292,23z M3.296,8.956c-1.559,2.932-2.204,7.54-0.595,10.308
		C3.757,21.08,5.638,22,8.292,22c5.115,0,9.059-2.28,11.72-6.777c1.521-2.569,2.169-5.181,2.39-6.267H3.296z"/>
	<path d="M17.462,5.042c-1.613,0-2.876-0.897-2.876-2.042c0-1.146,1.263-2.043,2.876-2.043c1.612,0,2.874,0.897,2.874,2.043
		C20.336,4.145,19.074,5.042,17.462,5.042z M17.462,1.957c-0.999,0-1.876,0.487-1.876,1.043c0,0.555,0.877,1.042,1.876,1.042
		c0.998,0,1.874-0.487,1.874-1.042C19.336,2.445,18.46,1.957,17.462,1.957z"/>
	<path d="M6.462,5.042C4.85,5.042,3.586,4.145,3.586,3c0-1.146,1.263-2.044,2.876-2.044c1.612,0,2.874,0.898,2.874,2.044
		C9.336,4.145,8.074,5.042,6.462,5.042z M6.462,1.956C5.463,1.956,4.586,2.444,4.586,3c0,0.555,0.877,1.042,1.876,1.042
		c0.998,0,1.874-0.487,1.874-1.042C8.336,2.444,7.461,1.956,6.462,1.956z"/>
</g>
</svg>
