<?xml version="1.0" encoding="utf-8"?>
<!-- Generator: Adobe Illustrator 22.1.0, SVG Export Plug-In . SVG Version: 6.00 Build 0)  -->
<svg version="1.1" id="Layer_1" xmlns="http://www.w3.org/2000/svg" xmlns:xlink="http://www.w3.org/1999/xlink" x="0px" y="0px"
	 viewBox="0 0 24 24" style="enable-background:new 0 0 24 24;" xml:space="preserve">
<g>
	<title>social-deviant-art-1</title>
	<path d="M4.501,24c-0.276,0-0.5-0.224-0.5-0.5v-3c0-0.077,0.018-0.155,0.053-0.224L8.692,11H4.501c-0.276,0-0.5-0.224-0.5-0.5v-6
		c0-0.276,0.224-0.5,0.5-0.5h7.723l2.353-3.765C14.669,0.088,14.827,0,15.001,0h5.5c0.276,0,0.5,0.224,0.5,0.5V3
		c0,0.081-0.02,0.161-0.057,0.232L15.827,13h4.674c0.276,0,0.5,0.224,0.5,0.5v6c0,0.276-0.224,0.5-0.5,0.5H12.31l-1.862,3.724
		C10.363,23.894,10.192,24,10.001,24H4.501z M9.692,23l1.862-3.724C11.639,19.106,11.81,19,12.001,19h8v-5h-5
		c-0.174,0-0.338-0.093-0.428-0.241c-0.09-0.148-0.096-0.336-0.015-0.49l5.443-10.391V1h-4.723l-2.354,3.765
		C12.833,4.912,12.675,5,12.501,5h-7.5v5h4.5c0.174,0,0.333,0.089,0.425,0.237c0.092,0.149,0.1,0.33,0.022,0.486l-4.947,9.895V23
		H9.692z"/>
</g>
</svg>
