<?xml version="1.0" encoding="utf-8"?>
<!-- Generator: Adobe Illustrator 22.1.0, SVG Export Plug-In . SVG Version: 6.00 Build 0)  -->
<svg version="1.1" id="Layer_1" xmlns="http://www.w3.org/2000/svg" xmlns:xlink="http://www.w3.org/1999/xlink" x="0px" y="0px"
	 viewBox="0 0 24 24" style="enable-background:new 0 0 24 24;" xml:space="preserve">
<g>
	<title>baby-hold-hands</title>
	<path d="M12,9c-1.93,0-3.5-1.57-3.5-3.5S10.07,2,12,2s3.5,1.57,3.5,3.5S13.93,9,12,9z M12,3c-1.379,0-2.5,1.121-2.5,2.5
		S10.621,8,12,8c1.378,0,2.5-1.121,2.5-2.5S13.378,3,12,3z"/>
	<path d="M12.002,7c-0.536,0-1.029-0.291-1.287-0.759C10.582,6,10.67,5.695,10.912,5.562C10.986,5.521,11.069,5.5,11.153,5.5
		c0.182,0,0.35,0.099,0.438,0.259C11.673,5.908,11.83,6,12.001,6c0.078,0,0.156-0.02,0.224-0.058
		c0.077-0.043,0.141-0.106,0.184-0.184c0.088-0.16,0.256-0.259,0.438-0.259c0.084,0,0.167,0.022,0.241,0.062
		c0.116,0.064,0.201,0.17,0.239,0.299c0.037,0.128,0.022,0.263-0.042,0.38c-0.134,0.243-0.333,0.443-0.577,0.577
		C12.492,6.937,12.248,7,12.002,7z"/>
	<path d="M8,24c-0.276,0-0.5-0.224-0.5-0.5v-3.136c0.001-0.794-0.232-1.562-0.673-2.222l-1.143-1.71
		c-0.136-0.226-0.33-0.372-0.567-0.431c-0.072-0.018-0.146-0.027-0.22-0.027c-0.161,0-0.321,0.044-0.462,0.128l-0.041,0.026
		c-0.372,0.248-0.503,0.743-0.3,1.148l1.333,2.216c0.142,0.236,0.066,0.544-0.171,0.686C5.18,20.225,5.091,20.25,5,20.25
		c-0.175,0-0.339-0.093-0.429-0.243l-1.352-2.25c-0.139-0.275-0.208-0.552-0.215-0.838C3.002,16.904,3,16.888,3,16.875V13
		c0-0.552-0.449-1-1-1s-1,0.448-1,1v5.171c0,0.905,0.311,1.793,0.876,2.5l2.014,2.517c0.172,0.215,0.137,0.531-0.078,0.703
		C3.724,23.961,3.613,24,3.5,24c-0.153,0-0.295-0.068-0.391-0.188l-2.014-2.517C0.389,20.412,0,19.302,0,18.171V13
		c0-1.103,0.897-2,2-2s2,0.897,2,2v2.2c0.276-0.149,0.584-0.227,0.896-0.227c0.155,0,0.312,0.019,0.464,0.057
		c0.493,0.123,0.907,0.431,1.168,0.866l1.13,1.689c0.551,0.825,0.842,1.786,0.841,2.778V23.5C8.5,23.776,8.276,24,8,24z"/>
	<path d="M20.5,24c-0.113,0-0.224-0.039-0.312-0.109c-0.215-0.173-0.25-0.488-0.078-0.703l2.014-2.517
		c0.566-0.707,0.877-1.594,0.877-2.5V13c0-0.552-0.448-1-1-1s-1,0.448-1,1v3.875c0,0.294-0.069,0.587-0.2,0.849l-1.372,2.284
		c-0.091,0.15-0.255,0.242-0.429,0.242c-0.09,0-0.179-0.025-0.257-0.071c-0.236-0.143-0.313-0.45-0.171-0.686l1.353-2.25
		c0.185-0.372,0.046-0.87-0.325-1.117l-0.034-0.021c-0.141-0.085-0.301-0.129-0.463-0.129c-0.316,0-0.612,0.167-0.774,0.437
		l-1.156,1.731c-0.441,0.66-0.673,1.428-0.673,2.222V23.5c0,0.276-0.224,0.5-0.5,0.5s-0.5-0.224-0.5-0.5v-3.136
		c-0.001-0.992,0.29-1.953,0.842-2.778l1.143-1.71c0.25-0.418,0.662-0.722,1.155-0.845c0.153-0.038,0.309-0.058,0.464-0.058
		c0.312,0,0.62,0.078,0.896,0.227V13c0-1.103,0.897-2,2-2s2,0.897,2,2v5.171c0,1.132-0.389,2.241-1.095,3.125l-2.014,2.517
		C20.794,23.932,20.652,24,20.5,24z"/>
	<path d="M12,17.5c-2.077,0-3.873-1.411-4.367-3.432c-0.003-0.008-0.011-0.033-0.017-0.066C7.539,13.664,7.5,13.327,7.5,13
		c-0.011-1.551-0.172-3.114-0.48-4.644c-0.1-0.494-0.212-0.979-0.336-1.444C6.561,6.452,6.499,5.976,6.499,5.499
		C6.5,2.467,8.967,0,11.999,0c0.478,0,0.954,0.062,1.414,0.185c1.42,0.377,2.608,1.285,3.345,2.556
		c0.737,1.271,0.935,2.752,0.558,4.172c-0.528,1.987-0.802,4.037-0.816,6.091C16.5,15.482,14.481,17.5,12,17.5z M8.698,14.153
		C9.186,15.544,10.517,16.5,12,16.5c1.93,0,3.5-1.57,3.5-3.5c0.008-1.074,0.086-2.162,0.233-3.244L8.698,14.153z M8.204,9.32
		c0.188,1.224,0.288,2.458,0.296,3.677c0,0.033,0.001,0.066,0.002,0.1l2.77-1.731L8.204,9.32z M12.202,10.784l3.745-2.341
		C16.064,7.821,16.2,7.22,16.35,6.656c0.309-1.162,0.147-2.374-0.457-3.414c-0.603-1.04-1.575-1.782-2.737-2.091
		C12.78,1.051,12.39,1,12,1h-0.001c-2.481,0-4.5,2.018-4.5,4.499c0,0.39,0.051,0.779,0.151,1.156c0.11,0.414,0.21,0.84,0.306,1.298
		L12.202,10.784z"/>
</g>
</svg>
