<?xml version="1.0" encoding="utf-8"?>
<!-- Generator: Adobe Illustrator 22.1.0, SVG Export Plug-In . SVG Version: 6.00 Build 0)  -->
<svg version="1.1" id="Layer_1" xmlns="http://www.w3.org/2000/svg" xmlns:xlink="http://www.w3.org/1999/xlink" x="0px" y="0px"
	 viewBox="0 0 24 24" style="enable-background:new 0 0 24 24;" xml:space="preserve">
<g>
	<title>baby-mother</title>
	<path d="M12.429,23.996c-1.554,0-2.967-0.915-3.6-2.33c-0.73-1.761-0.122-3.812,1.442-4.884l0.608-0.434
		c0.948-0.719,1.85-1.53,2.674-2.406c0.032-0.051,0.073-0.095,0.122-0.131c0.478-0.516,0.929-1.052,1.342-1.593
		c0.61-0.748,1.408-1.3,2.311-1.601c0.524-0.174,1.067-0.263,1.614-0.263c1.625,0,3.164,0.796,4.115,2.128
		c0.786,1.101,1.096,2.444,0.873,3.781c-0.223,1.338-0.952,2.507-2.053,3.293c-0.443,0.316-0.933,0.554-1.455,0.708
		c-1.784,0.544-3.458,1.376-4.973,2.472l-0.747,0.532c-0.21,0.149-0.436,0.278-0.672,0.384
		C13.522,23.88,12.983,23.996,12.429,23.996z M9.987,18.494c-0.518,0.829-0.613,1.875-0.239,2.776
		c0.468,1.046,1.521,1.726,2.68,1.726c0.413,0,0.815-0.086,1.195-0.256c0.176-0.079,0.345-0.175,0.501-0.286l0.743-0.53
		c0.439-0.318,0.9-0.619,1.374-0.9L9.987,18.494z M17.379,20.407c0.89-0.443,1.817-0.813,2.757-1.099
		c0.419-0.123,0.809-0.313,1.161-0.564c1.827-1.305,2.252-3.853,0.947-5.68c-0.764-1.07-1.999-1.709-3.302-1.709
		c-0.439,0-0.875,0.071-1.297,0.211c-0.723,0.241-1.36,0.681-1.843,1.272c-0.404,0.53-0.85,1.062-1.322,1.576l0.133,4.873
		L17.379,20.407z M13.601,18.878l-0.094-3.468c-0.649,0.625-1.331,1.21-2.035,1.744l-0.628,0.448
		c-0.048,0.033-0.095,0.067-0.141,0.103L13.601,18.878z"/>
	<path d="M18.933,18.428c-1.654,0-3-1.346-3-3s1.346-3,3-3s3,1.346,3,3S20.587,18.428,18.933,18.428z M18.933,13.428
		c-1.103,0-2,0.897-2,2s0.897,2,2,2s2-0.897,2-2S20.036,13.428,18.933,13.428z"/>
	<path d="M8.394,11.995c-0.648,0-1.287-0.212-1.8-0.597c-0.107-0.08-0.176-0.197-0.195-0.329c-0.019-0.132,0.015-0.264,0.095-0.371
		c0.094-0.125,0.244-0.2,0.4-0.2c0.109,0,0.213,0.035,0.3,0.1c0.341,0.256,0.767,0.397,1.2,0.397c0.432,0,0.859-0.141,1.2-0.397
		c0.088-0.065,0.191-0.1,0.3-0.1c0.157,0,0.306,0.075,0.4,0.2c0.08,0.107,0.114,0.239,0.095,0.371
		c-0.019,0.132-0.088,0.249-0.195,0.329C9.681,11.783,9.042,11.995,8.394,11.995z"/>
	<path d="M10.394,9.249c-0.414,0-0.75-0.336-0.75-0.75c0-0.408,0.329-0.742,0.735-0.75c0.005,0,0.009,0,0.014,0
		c0.201,0,0.389,0.077,0.53,0.217c0.142,0.141,0.221,0.329,0.221,0.529c0,0,0,0.002,0,0.003c0.001,0.199-0.076,0.387-0.217,0.529
		c-0.141,0.142-0.329,0.221-0.528,0.222C10.398,9.249,10.394,9.249,10.394,9.249z"/>
	<path d="M6.394,9.249c-0.414,0-0.75-0.336-0.75-0.75c0-0.408,0.329-0.742,0.735-0.75c0.005,0,0.009,0,0.014,0
		c0.201,0,0.389,0.077,0.53,0.217c0.142,0.141,0.221,0.329,0.221,0.529c0,0,0,0.002,0,0.003c0.001,0.199-0.076,0.387-0.217,0.529
		C6.786,9.169,6.598,9.248,6.398,9.249C6.398,9.249,6.394,9.249,6.394,9.249z"/>
	<path d="M8.394,14.999c-3.033,0-5.5-2.467-5.5-5.5V6.974c0-0.141,0.06-0.276,0.165-0.371C3.151,6.519,3.27,6.473,3.393,6.473
		c0.017,0,0.035,0.001,0.052,0.003c0.109,0.011,0.217,0.015,0.328,0.018l0.13,0.005c1.704,0,3.293-0.996,4.04-2.536
		c0.081-0.167,0.253-0.27,0.45-0.27s0.369,0.104,0.45,0.27c0.747,1.541,2.337,2.536,4.049,2.536c0.156,0,0.305-0.008,0.45-0.022
		c0.017-0.002,0.034-0.003,0.052-0.003c0.124,0,0.242,0.046,0.334,0.129c0.105,0.094,0.165,0.23,0.165,0.371v2.525
		C13.894,12.531,11.427,14.999,8.394,14.999z M3.894,9.499c0,2.481,2.019,4.5,4.5,4.5s4.5-2.019,4.5-4.5v-2h-0.005
		c-1.781,0-3.47-0.887-4.495-2.338C7.371,6.61,5.684,7.496,3.903,7.499c-0.003,0-0.006,0-0.009,0V9.499z"/>
	<path d="M6.872,18.008c-2.161,0-4.34-0.473-6.301-1.367c-0.451-0.219-0.675-0.737-0.527-1.206c0.728-2.567,1.015-5.23,0.85-7.906
		C0.892,5.507,1.673,3.62,3.091,2.2c1.417-1.419,3.3-2.201,5.301-2.201c4.135,0,7.5,3.365,7.5,7.5c-0.009,0.834-0.016,1.582,0,2.303
		c0.006,0.276-0.214,0.505-0.489,0.511c-0.28-0.003-0.505-0.222-0.511-0.489c-0.016-0.73-0.009-1.487,0-2.33
		c0-3.58-2.916-6.494-6.5-6.494s-6.5,2.916-6.5,6.5c0.172,2.763-0.128,5.535-0.891,8.224c1.818,0.845,3.854,1.286,5.877,1.286
		c0.166,0,0.332-0.003,0.498-0.009c0,0,0.001,0,0.001,0c0.286,0,0.507,0.216,0.516,0.481c0.005,0.134-0.043,0.261-0.134,0.359
		s-0.215,0.154-0.348,0.159C7.232,18.005,7.052,18.008,6.872,18.008z"/>
</g>
</svg>
