<?xml version="1.0" encoding="utf-8"?>
<!-- Generator: Adobe Illustrator 22.1.0, SVG Export Plug-In . SVG Version: 6.00 Build 0)  -->
<svg version="1.1" id="Layer_1" xmlns="http://www.w3.org/2000/svg" xmlns:xlink="http://www.w3.org/1999/xlink" x="0px" y="0px"
	 viewBox="0 0 24 24" style="enable-background:new 0 0 24 24;" xml:space="preserve">
<g>
	<title>baby-hold</title>
	<path d="M12.869,23.958c-1.402,0-2.939-0.535-5.486-1.422c-0.707-0.246-1.492-0.52-2.384-0.821v0.305c0,0.552-0.449,1-1,1h-3
		c-0.551,0-1-0.448-1-1v-7c0-0.552,0.449-1,1-1h3c0.551,0,1,0.448,1,1h2.5c1.78,0.063,3.444,0.772,4.707,2h2.793
		c0.804,0,1.462,0.636,1.499,1.431l4.234-1.406c0.303-0.101,0.619-0.152,0.939-0.152c0.724,0,1.421,0.26,1.963,0.731
		c0.097,0.077,0.187,0.188,0.252,0.313c0.255,0.496,0.06,1.107-0.435,1.363c-1.71,0.864-3.111,1.607-4.236,2.204
		C16.131,23.142,14.593,23.958,12.869,23.958z M4.999,20.661c1.029,0.346,1.92,0.656,2.711,0.931
		c2.522,0.878,3.91,1.361,5.145,1.361c1.498,0,2.868-0.727,5.87-2.319c1.135-0.603,2.545-1.351,4.272-2.223
		c-0.003-0.002-0.008-0.021-0.01-0.023c-0.366-0.318-0.833-0.493-1.316-0.493c-0.213,0-0.422,0.034-0.623,0.101l-5.127,1.702
		c-0.269,0.212-0.586,0.324-0.921,0.324h-5.5c-0.276,0-0.5-0.224-0.5-0.5s0.224-0.5,0.5-0.5h5.5c0.276,0,0.5-0.224,0.5-0.5
		s-0.224-0.5-0.5-0.5h-3c-0.135,0-0.265-0.055-0.359-0.152c-1.1-1.135-2.575-1.791-4.154-1.848l-2.487,0V20.661z M0.999,22.02h3v-7
		l-3,0L0.999,22.02z"/>
	<path d="M7.663,8.267c-0.114,0-0.224-0.025-0.327-0.075c-0.37-0.181-0.526-0.63-0.347-1C6.989,7.19,6.99,7.188,6.991,7.186
		C7.116,6.932,7.38,6.767,7.665,6.767c0.113,0,0.222,0.025,0.325,0.074C7.998,6.846,8.006,6.85,8.014,6.855
		c0.175,0.095,0.297,0.24,0.359,0.416c0.066,0.189,0.054,0.393-0.033,0.573c0,0-0.002,0.005-0.003,0.006
		c-0.005,0.01-0.011,0.02-0.017,0.029c-0.006,0.01-0.013,0.019-0.017,0.025C8.293,7.919,8.283,7.933,8.273,7.947
		C8.131,8.147,7.904,8.267,7.663,8.267z"/>
	<path d="M8.974,5.568c-0.113,0-0.222-0.025-0.324-0.074C8.641,5.49,8.633,5.485,8.625,5.48C8.448,5.383,8.327,5.238,8.267,5.061
		c-0.061-0.18-0.052-0.373,0.025-0.546c0.004-0.012,0.009-0.023,0.015-0.034c0.121-0.248,0.386-0.413,0.671-0.413
		c0.114,0,0.224,0.025,0.327,0.075c0.002,0.001,0.006,0.003,0.006,0.003c0.181,0.091,0.315,0.247,0.378,0.437
		c0.06,0.181,0.048,0.375-0.032,0.548c-0.001,0.002-0.01,0.023-0.011,0.024C9.629,5.187,9.61,5.213,9.594,5.233
		C9.453,5.443,9.223,5.568,8.974,5.568z"/>
	<path d="M10.568,8.012c-0.113,0-0.223-0.025-0.325-0.075c-0.004-0.002-0.008-0.004-0.011-0.006
		c-0.017-0.009-0.034-0.019-0.049-0.029c-0.004-0.002-0.007-0.005-0.011-0.008c-0.14-0.083-0.255-0.223-0.312-0.388
		C9.794,7.318,9.806,7.115,9.893,6.935c0.124-0.257,0.39-0.422,0.675-0.422c0.113,0,0.223,0.025,0.325,0.074
		c0.004,0.002,0.008,0.004,0.011,0.006c0.017,0.009,0.034,0.019,0.049,0.029c0.003,0.002,0.006,0.004,0.009,0.006
		c0.146,0.09,0.258,0.228,0.314,0.389c0.066,0.189,0.054,0.393-0.033,0.573c-0.018,0.037-0.041,0.073-0.068,0.105
		C11.033,7.894,10.808,8.012,10.568,8.012z"/>
	<path d="M8.995,10.997c-2.481,0-4.5-2.019-4.5-4.5s2.019-4.5,4.5-4.5s4.5,2.019,4.5,4.5S11.477,10.997,8.995,10.997z M8.995,2.997
		c-1.93,0-3.5,1.57-3.5,3.5s1.57,3.5,3.5,3.5s3.5-1.57,3.5-3.5S10.925,2.997,8.995,2.997z"/>
	<path d="M16.912,16.034c-0.691,0-1.371-0.126-2.021-0.375c0,0-1.896-0.726-1.902-0.729l-6.342-2.425
		c-1.862-0.713-3.313-2.279-3.881-4.191C2.275,6.665,2.458,4.92,3.281,3.402c0.823-1.518,2.185-2.624,3.835-3.114
		C7.711,0.111,8.33,0.021,8.954,0.021c1.172,0,2.32,0.317,3.321,0.916l7.571,4.54c0.46,0.276,0.882,0.621,1.254,1.025
		c0.001,0.001,0.002,0.002,0.004,0.003c0.011,0.011,0.023,0.024,0.033,0.038c1.442,1.594,1.86,3.829,1.092,5.837
		c-0.835,2.186-2.971,3.655-5.315,3.655H16.912z M15.248,14.726c0.536,0.205,1.097,0.309,1.667,0.309
		c1.932,0,3.692-1.21,4.381-3.012c0.564-1.475,0.341-3.139-0.574-4.41l-6.629,6.671L15.248,14.726z M8.955,1.021
		c-0.528,0-1.051,0.076-1.554,0.226c0,0,0,0,0,0c-2.884,0.857-4.533,3.9-3.677,6.784c0.48,1.616,1.706,2.94,3.28,3.542l6.067,2.321
		l1.513-1.522l0.404-8.641l-3.227-1.935C10.916,1.288,9.945,1.021,8.955,1.021z M15.634,11.314l4.417-4.445
		c-0.226-0.204-0.467-0.383-0.72-0.535l-3.369-2.021L15.634,11.314z"/>
</g>
</svg>
