<?xml version="1.0" encoding="utf-8"?>
<!-- Generator: Adobe Illustrator 22.1.0, SVG Export Plug-In . SVG Version: 6.00 Build 0)  -->
<svg version="1.1" id="Light" xmlns="http://www.w3.org/2000/svg" xmlns:xlink="http://www.w3.org/1999/xlink" x="0px" y="0px"
	 viewBox="0 0 24 24" style="enable-background:new 0 0 24 24;" xml:space="preserve">
<g>
	<title>shooting-rifle</title>
	<path d="M3.503,23.369c-0.154,0-0.309-0.037-0.448-0.107c-0.137-0.069-0.259-0.17-0.352-0.294l-2.212-2.955
		c-0.33-0.441-0.241-1.069,0.2-1.4l5.604-4.198l-1.197-1.598c-0.088,0.065-0.191,0.1-0.3,0.1c-0.157,0-0.306-0.075-0.4-0.2
		c-0.08-0.107-0.114-0.239-0.095-0.371c0.019-0.132,0.088-0.249,0.195-0.329l0.801-0.6c0.087-0.065,0.191-0.1,0.3-0.1
		c0.157,0,0.307,0.075,0.401,0.2c0.165,0.221,0.12,0.535-0.1,0.7l-0.001,0l0.599,0.8l4.002-2.996L9.901,9.222l-0.4,0.3
		c-0.087,0.065-0.191,0.1-0.3,0.1c-0.157,0-0.307-0.075-0.4-0.2c-0.165-0.221-0.12-0.535,0.1-0.7l1.601-1.199
		c0.088-0.065,0.191-0.1,0.3-0.1c0.157,0,0.307,0.075,0.4,0.201c0.165,0.221,0.12,0.535-0.101,0.7l-0.401,0.3l0.599,0.801
		l2.002-1.499l7.605-5.692l-0.599-0.8c-0.165-0.22-0.12-0.534,0.101-0.7c0.087-0.065,0.191-0.1,0.3-0.1
		c0.157,0,0.307,0.075,0.401,0.201l0.599,0.8l1.201-0.899c0.087-0.065,0.191-0.1,0.3-0.1c0.157,0,0.307,0.075,0.401,0.201
		c0.165,0.22,0.12,0.534-0.101,0.7c0,0-1.604,1.202-1.612,1.207c-0.004,0.002-0.007,0.005-0.011,0.007l-7.583,5.677l0.599,0.801
		c0.16,0.214,0.227,0.477,0.189,0.742c-0.038,0.264-0.177,0.498-0.39,0.658l-6.704,5.018l-3.6,7.173
		c-0.119,0.239-0.325,0.417-0.578,0.501C3.715,23.352,3.609,23.369,3.503,23.369z M1.291,19.414l2.213,2.955l3.509-6.994
		l-0.118-0.158L1.291,19.414z M7.697,14.619l6.405-4.794l-0.599-0.8l-6.405,4.794L7.697,14.619z"/>
</g>
</svg>
