<?xml version="1.0" encoding="utf-8"?>
<!-- Generator: Adobe Illustrator 22.1.0, SVG Export Plug-In . SVG Version: 6.00 Build 0)  -->
<svg version="1.1" id="Layer_1" xmlns="http://www.w3.org/2000/svg" xmlns:xlink="http://www.w3.org/1999/xlink" x="0px" y="0px"
	 viewBox="0 0 24 24" style="enable-background:new 0 0 24 24;" xml:space="preserve">
<g>
	<title>cable-car-1</title>
	<path d="M4.5,24C3.121,24,2,22.878,2,21.5v-3c0-0.009,0.002-0.049,0.004-0.061l0.669-5.364c0.208-2.323,2.134-4.081,4.48-4.081H8
		v-1.5c0-0.827,0.673-1.5,1.5-1.5H10V4.643L1.127,6.978C1.086,6.989,1.043,6.995,1,6.995c-0.227,0-0.426-0.153-0.483-0.373
		c-0.07-0.267,0.09-0.541,0.356-0.611L10,3.609V2c0-1.103,0.897-2,2-2s2,0.897,2,2v0.481l8.866-2.468
		C22.909,0.001,22.955-0.005,23-0.005c0.223,0,0.421,0.15,0.481,0.365c0.074,0.266-0.082,0.542-0.347,0.616L14,3.519v2.476h0.5
		c0.827,0,1.5,0.673,1.5,1.5v1.5h0.85c2.343,0,4.27,1.759,4.482,4.093l0.664,5.351c0.001,0.008,0.002,0.018,0.002,0.027
		C21.999,18.476,22,18.487,22,18.5v3c0,1.378-1.122,2.5-2.5,2.5H4.5z M3,21.5C3,22.327,3.673,23,4.5,23h15
		c0.827,0,1.5-0.673,1.5-1.5V19H3V21.5z M20.934,18l-0.596-4.806c-0.167-1.828-1.666-3.2-3.488-3.199h-0.847V18H20.934z M15.003,18
		V9.995h-6V18H15.003z M8.003,18V9.995h-0.85c-1.825,0-3.323,1.37-3.486,3.188L3.066,18H8.003z M15,8.995v-1.5
		c0-0.276-0.224-0.5-0.5-0.5h-0.947C13.538,6.997,13.52,7,13.5,7c-0.016,0-0.037-0.003-0.056-0.006l-2.891,0.001
		C10.538,6.997,10.52,7,10.5,7c-0.016,0-0.037-0.003-0.057-0.006L9.5,6.995c-0.276,0-0.5,0.224-0.5,0.5v1.5H15z M13,5.995V2
		c0-0.551-0.448-1-1-1c-0.551,0-1,0.449-1,1v3.995H13z"/>
</g>
</svg>
