<?xml version="1.0" encoding="utf-8"?>
<!-- Generator: Adobe Illustrator 22.1.0, SVG Export Plug-In . SVG Version: 6.00 Build 0)  -->
<svg version="1.1" id="Layer_1" xmlns="http://www.w3.org/2000/svg" xmlns:xlink="http://www.w3.org/1999/xlink" x="0px" y="0px"
	 viewBox="0 0 24 24" style="enable-background:new 0 0 24 24;" xml:space="preserve">
<g>
	<title>trailer</title>
	<path d="M5.779,20.045c-1.199,0-2.215-0.845-2.449-2H1.031c-0.551,0-1-0.448-1-1v-12c0-0.551,0.449-1,1-1h11.5
		c2.481,0,4.5,2.019,4.5,4.5v8.5h6.438c0.276,0,0.5,0.224,0.5,0.5s-0.224,0.5-0.5,0.5H8.228C7.994,19.2,6.978,20.045,5.779,20.045z
		 M5.779,16.045c-0.827,0-1.5,0.673-1.5,1.5s0.673,1.5,1.5,1.5s1.5-0.673,1.5-1.5S6.606,16.045,5.779,16.045z M16.031,17.045v-8.5
		c0-1.93-1.57-3.5-3.5-3.5h-11.5v12H3.33c0.234-1.155,1.25-2,2.449-2s2.215,0.845,2.449,2H16.031z"/>
	<path d="M4.031,12.045c-0.551,0-1-0.449-1-1v-3c0-0.551,0.449-1,1-1h7c0.551,0,1,0.449,1,1v3c0,0.551-0.449,1-1,1H4.031z
		 M11.031,11.045v-3h-3v3H11.031z M4.031,11.045h3v-3h-3L4.031,11.045z"/>
</g>
</svg>
