<?xml version="1.0" encoding="utf-8"?>
<!-- Generator: Adobe Illustrator 22.1.0, SVG Export Plug-In . SVG Version: 6.00 Build 0)  -->
<svg version="1.1" id="Layer_1" xmlns="http://www.w3.org/2000/svg" xmlns:xlink="http://www.w3.org/1999/xlink" x="0px" y="0px"
	 viewBox="0 0 24 24" style="enable-background:new 0 0 24 24;" xml:space="preserve">
<g>
	<title>payment-stripe</title>
	<path d="M11.322,19.513c-1.22,0-2.444-0.283-3.541-0.818C7.61,18.613,7.5,18.436,7.5,18.246v-3.854c0-0.178,0.096-0.344,0.25-0.433
		c0.076-0.044,0.162-0.067,0.25-0.067c0.088,0,0.174,0.023,0.25,0.067l1.177,0.681c0.619,0.37,1.323,0.569,2.039,0.577
		c0.685,0,1.034-0.192,1.034-0.571c0-0.223,0-0.502-1.324-1.007C8.412,12.662,7.008,11.033,7.008,8.8c0-2.781,2.282-4.8,5.426-4.8
		c0.05-0.001,0.105-0.002,0.16-0.002c0.961,0,1.902,0.191,2.799,0.567c0.369,0.161,0.606,0.52,0.607,0.917v2.601
		c0,0.14-0.029,0.276-0.087,0.404c-0.159,0.353-0.512,0.581-0.9,0.581c-0.139,0-0.275-0.029-0.402-0.086L14,8.706
		c-0.511-0.271-1.063-0.41-1.611-0.41c-0.372,0-0.796,0.083-0.796,0.318c0,0.16,0,0.379,1.454,0.943
		c1.886,0.728,4.052,1.951,4.056,4.963c0,2.486-1.778,4.993-5.749,4.993H11.322z M8.5,17.926c0.886,0.385,1.859,0.587,2.823,0.587
		h0.03c3.281,0,4.75-2.005,4.75-3.993c-0.002-2.405-1.827-3.417-3.416-4.031c-1.781-0.69-2.094-1.154-2.094-1.875
		c0-0.608,0.468-1.318,1.787-1.318c0.72,0,1.431,0.177,2.061,0.513L15,8.06V5.483c-0.768-0.321-1.58-0.485-2.409-0.485
		c-0.049,0-0.097,0-0.146,0.002C9.872,5,8.008,6.598,8.008,8.8c0,2.658,2.644,3.593,3.513,3.901
		c1.656,0.632,1.979,1.191,1.979,1.945c0,0.984-0.762,1.571-2.039,1.571c-0.897-0.01-1.775-0.257-2.541-0.715L8.5,15.259V17.926z"/>
	<path d="M1.5,24C0.673,24,0,23.327,0,22.5v-21C0,0.673,0.673,0,1.5,0h21C23.327,0,24,0.673,24,1.5v21c0,0.827-0.673,1.5-1.5,1.5
		H1.5z M1.5,1C1.224,1,1,1.224,1,1.5v21C1,22.776,1.224,23,1.5,23h21c0.276,0,0.5-0.224,0.5-0.5v-21C23,1.224,22.776,1,22.5,1H1.5z"
		/>
</g>
</svg>
