<?xml version="1.0" encoding="utf-8"?>
<!-- Generator: Adobe Illustrator 22.1.0, SVG Export Plug-In . SVG Version: 6.00 Build 0)  -->
<svg version="1.1" id="Layer_1" xmlns="http://www.w3.org/2000/svg" xmlns:xlink="http://www.w3.org/1999/xlink" x="0px" y="0px"
	 viewBox="0 0 24 24" style="enable-background:new 0 0 24 24;" xml:space="preserve">
<g>
	<title>payment-paypal</title>
	<path d="M8.675,9.809c-0.154,0-0.297-0.069-0.392-0.189C8.188,9.5,8.154,9.345,8.189,9.195l1.046-4.478
		C9.287,4.489,9.487,4.33,9.721,4.33c0,0,2.391,0,2.391,0c0.495,0,0.966,0.149,1.349,0.42c0.772,0.584,1.077,1.58,0.765,2.483
		c-0.153,0.608-0.496,1.178-0.984,1.628c-0.17,0.157-0.356,0.3-0.551,0.424c-0.511,0.331-1.106,0.513-1.717,0.524
		c-0.002,0-0.003,0-0.005,0H8.675z M10.964,8.809c0.418-0.008,0.829-0.134,1.186-0.365c0.149-0.094,0.286-0.2,0.414-0.318
		c0.345-0.318,0.589-0.726,0.705-1.18c0.182-0.532,0.024-1.07-0.398-1.389c-0.202-0.143-0.466-0.227-0.718-0.227l-2.035,0
		L9.306,8.809H10.964z"/>
	<path d="M1.615,18.984c-0.153,0-0.296-0.069-0.392-0.189c-0.096-0.121-0.13-0.276-0.095-0.425L5.103,1.379
		c0.053-0.227,0.253-0.386,0.487-0.386H13.9c1.645,0,3.179,0.688,4.104,1.839c0.91,1.132,1.191,2.635,0.814,4.344
		c-0.695,3.37-3.704,5.819-7.154,5.819c-0.069,0-0.139-0.001-0.208-0.003H8.379l-1.4,5.612c-0.056,0.223-0.255,0.379-0.485,0.379
		H1.615z M6.104,17.984l1.4-5.612c0.056-0.223,0.255-0.379,0.485-0.379h3.482c0.071,0.002,0.134,0.003,0.197,0.003
		c2.977,0,5.573-2.115,6.174-5.028c0.311-1.409,0.097-2.621-0.616-3.509c-0.738-0.918-1.98-1.466-3.324-1.466H5.986l-3.74,15.991
		H6.104z"/>
	<path d="M4.631,22c-0.153,0-0.295-0.068-0.391-0.188c-0.095-0.119-0.131-0.273-0.097-0.422l0.34-1.511
		c0.052-0.229,0.252-0.39,0.488-0.39c0.036,0,0.073,0.004,0.108,0.012c0.27,0.061,0.44,0.329,0.379,0.598L5.256,21H9.12l1.422-5.636
		c0.056-0.223,0.256-0.378,0.485-0.378c0,0,1.988,0.003,2.602,0.003c0.495,0,0.894,0,0.997-0.003l0.109,0.001
		c2.96,0,5.536-2.103,6.123-5c0.28-1.048,0.166-2.135-0.317-3.078c-0.126-0.245-0.029-0.547,0.217-0.673
		c0.07-0.036,0.148-0.055,0.228-0.055c0.188,0,0.359,0.104,0.445,0.272c0.597,1.163,0.739,2.499,0.401,3.762
		c-0.676,3.338-3.658,5.771-7.088,5.771l-0.113-0.001c-0.1,0.002-0.506,0.002-1.015,0.002l-2.199-0.002l-1.422,5.636
		C9.938,21.845,9.739,22,9.509,22H4.631z"/>
</g>
</svg>
