<?xml version="1.0" encoding="utf-8"?>
<!-- Generator: Adobe Illustrator 22.1.0, SVG Export Plug-In . SVG Version: 6.00 Build 0)  -->
<svg version="1.1" id="Light" xmlns="http://www.w3.org/2000/svg" xmlns:xlink="http://www.w3.org/1999/xlink" x="0px" y="0px"
	 viewBox="0 0 24 24" style="enable-background:new 0 0 24 24;" xml:space="preserve">
<g>
	<title>real-estate-action-building-settings</title>
	<path d="M0.5,24.031c-0.276,0-0.5-0.224-0.5-0.5v-14c0-0.827,0.673-1.5,1.5-1.5H6v-3.5c0-0.197,0.117-0.377,0.297-0.457L8,3.318
		V0.531c0-0.276,0.224-0.5,0.5-0.5S9,0.255,9,0.531v2.342l5.597-2.486C14.727,0.33,14.862,0.302,15,0.302
		c0.125,0,0.248,0.023,0.365,0.07c0.249,0.098,0.445,0.286,0.552,0.531C15.971,1.028,15.999,1.162,16,1.299v8.232
		c0,0.276-0.224,0.5-0.5,0.5S15,9.807,15,9.531v-1.5h-4.5c-0.276,0-0.5-0.224-0.5-0.5s0.224-0.5,0.5-0.5H15v-1h-2.5
		c-0.276,0-0.5-0.224-0.5-0.5s0.224-0.5,0.5-0.5H15v-3.73L7,4.856v3.261c0.59,0.209,1,0.774,1,1.414v13.5h4.5
		c0.276,0,0.5,0.224,0.5,0.5s-0.224,0.5-0.5,0.5H0.5z M7,23.031v-13.5c0-0.276-0.224-0.5-0.5-0.5h-5c-0.276,0-0.5,0.224-0.5,0.5v1.5
		h3.5c0.276,0,0.5,0.224,0.5,0.5s-0.224,0.5-0.5,0.5H1v1h1.5c0.276,0,0.5,0.224,0.5,0.5s-0.224,0.5-0.5,0.5H1v9h1v-2
		c0-0.552,0.449-1,1-1h2c0.551,0,1,0.448,1,1v2H7z M5,23.031v-2H3l0,2H5z"/>
	<path d="M17.75,18.937c-1.068,0-1.937-0.869-1.937-1.937s0.869-1.937,1.937-1.937s1.937,0.869,1.937,1.937
		S18.818,18.937,17.75,18.937z M17.75,16.063c-0.517,0-0.937,0.42-0.937,0.937s0.42,0.937,0.937,0.937s0.937-0.42,0.937-0.937
		S18.267,16.063,17.75,16.063z"/>
	<path d="M17.752,23.97c-0.174,0-0.346-0.025-0.513-0.076c-0.572-0.172-1.016-0.617-1.189-1.189l-0.424-1.391
		c-0.057-0.19-0.235-0.323-0.433-0.323c-0.033,0-0.067,0.004-0.1,0.011l-1.411,0.327c-0.131,0.029-0.262,0.044-0.393,0.044
		c-0.827,0-1.559-0.585-1.741-1.391c-0.13-0.575,0.033-1.176,0.434-1.607l0.988-1.064c0.162-0.175,0.162-0.45-0.001-0.626
		l-0.987-1.063c-0.67-0.719-0.629-1.849,0.09-2.519c0.331-0.309,0.762-0.478,1.215-0.478c0.131,0,0.263,0.015,0.392,0.043
		l1.415,0.327c0.034,0.008,0.068,0.012,0.101,0.012c0.197,0,0.374-0.132,0.431-0.322l0.425-1.394
		c0.136-0.453,0.441-0.826,0.859-1.051c0.258-0.139,0.548-0.212,0.838-0.212c0.173,0,0.346,0.026,0.513,0.076
		c0.572,0.172,1.016,0.616,1.188,1.188l0.424,1.391c0.057,0.19,0.235,0.322,0.433,0.322c0.034,0,0.067-0.004,0.1-0.011l1.411-0.327
		c0.131-0.029,0.262-0.044,0.394-0.044c0.827,0,1.559,0.585,1.741,1.391c0.129,0.575-0.033,1.176-0.434,1.607l-0.988,1.064
		c-0.162,0.175-0.162,0.45,0.001,0.626l0.987,1.063c0.324,0.348,0.494,0.802,0.477,1.278c-0.017,0.476-0.218,0.917-0.567,1.241
		c-0.332,0.308-0.763,0.478-1.215,0.478c0,0,0,0,0,0c-0.131,0-0.263-0.015-0.391-0.043l-1.415-0.328
		c-0.034-0.008-0.068-0.012-0.101-0.012c-0.197,0-0.374,0.132-0.431,0.322l-0.424,1.394c-0.136,0.453-0.441,0.826-0.859,1.051
		C18.332,23.896,18.043,23.97,17.752,23.97z M15.193,19.992c0.636,0,1.208,0.425,1.391,1.033l0.424,1.391
		c0.075,0.251,0.27,0.445,0.519,0.52c0.074,0.022,0.149,0.034,0.225,0.034c0.126,0,0.252-0.032,0.365-0.093
		c0.182-0.098,0.316-0.261,0.375-0.459l0.425-1.394c0.183-0.607,0.755-1.031,1.391-1.031c0.108,0,0.217,0.012,0.323,0.036
		l1.413,0.327c0.055,0.012,0.112,0.019,0.17,0.019c0.198,0,0.388-0.075,0.533-0.21c0.153-0.143,0.241-0.336,0.249-0.545
		c0.008-0.209-0.067-0.408-0.209-0.562l-0.989-1.065c-0.515-0.557-0.516-1.429-0.001-1.986l0.989-1.065
		c0.177-0.19,0.248-0.454,0.191-0.706c-0.08-0.354-0.401-0.611-0.764-0.611c-0.058,0-0.115,0.006-0.172,0.019l-1.409,0.326
		c-0.107,0.024-0.216,0.037-0.324,0.037c-0.636,0-1.208-0.425-1.391-1.033c0,0-0.424-1.392-0.425-1.394
		c-0.076-0.249-0.269-0.443-0.519-0.518c-0.073-0.022-0.149-0.033-0.225-0.033c-0.126,0-0.252,0.032-0.365,0.093
		c-0.182,0.098-0.316,0.261-0.375,0.459l-0.425,1.394c-0.183,0.607-0.755,1.031-1.391,1.031c-0.108,0-0.217-0.012-0.323-0.037
		l-1.413-0.327c-0.055-0.013-0.113-0.019-0.17-0.019c-0.198,0-0.387,0.075-0.532,0.21c-0.316,0.294-0.334,0.791-0.04,1.107
		l0.989,1.064c0.515,0.557,0.516,1.429,0.001,1.986l-0.989,1.065c-0.177,0.19-0.248,0.454-0.191,0.706
		c0.08,0.354,0.401,0.611,0.764,0.611c0.058,0,0.115-0.006,0.172-0.019l1.409-0.327C14.976,20.004,15.084,19.992,15.193,19.992z"/>
</g>
</svg>
