<?xml version="1.0" encoding="utf-8"?>
<!-- Generator: Adobe Illustrator 22.1.0, SVG Export Plug-In . SVG Version: 6.00 Build 0)  -->
<svg version="1.1" id="Light" xmlns="http://www.w3.org/2000/svg" xmlns:xlink="http://www.w3.org/1999/xlink" x="0px" y="0px"
	 viewBox="0 0 24 24" style="enable-background:new 0 0 24 24;" xml:space="preserve">
<g>
	<title>real-estate-action-building-key</title>
	<path d="M15.521,21.099c-0.468,0-0.907-0.182-1.238-0.513c-0.331-0.33-0.512-0.77-0.512-1.237s0.182-0.907,0.513-1.237
		c0.33-0.33,0.77-0.512,1.237-0.512s0.907,0.182,1.237,0.512c0.682,0.682,0.682,1.792,0,2.475
		C16.428,20.917,15.989,21.099,15.521,21.099z M15.521,18.599c-0.2,0-0.389,0.078-0.53,0.219s-0.22,0.33-0.22,0.53
		c0,0.2,0.078,0.389,0.219,0.53c0.142,0.142,0.33,0.22,0.53,0.22c0.2,0,0.389-0.078,0.531-0.219c0.292-0.292,0.292-0.768,0-1.061
		C15.91,18.677,15.722,18.599,15.521,18.599z"/>
	<path d="M15.365,24.009c-0.602,0-1.193-0.121-1.755-0.359c-2.285-0.968-3.356-3.614-2.388-5.899
		c0.469-1.107,1.341-1.965,2.455-2.416c0.542-0.22,1.111-0.331,1.689-0.331c0.491,0,0.977,0.081,1.445,0.24l4.346-4.106
		c0.093-0.088,0.215-0.136,0.343-0.136h2c0.276,0,0.5,0.224,0.5,0.5v2c0,0.132-0.054,0.261-0.147,0.354L19.63,18.07
		c0.346,1.034,0.304,2.188-0.121,3.192c-0.469,1.107-1.341,1.965-2.455,2.416C16.511,23.897,15.943,24.009,15.365,24.009z
		 M15.366,16.004c-0.449,0-0.891,0.087-1.314,0.258c-0.866,0.351-1.545,1.018-1.909,1.879c-0.753,1.777,0.08,3.835,1.857,4.588
		c0.438,0.186,0.897,0.28,1.365,0.28c0.449,0,0.891-0.087,1.314-0.258c0.867-0.351,1.545-1.018,1.909-1.879
		c0.368-0.868,0.368-1.864-0.001-2.732c-0.08-0.189-0.038-0.405,0.107-0.549L23,13.295v-1.292h-1.301l-4.429,4.184
		c-0.093,0.088-0.215,0.136-0.344,0.136c-0.067,0-0.132-0.013-0.194-0.039C16.294,16.098,15.834,16.004,15.366,16.004z"/>
	<path d="M0.5,24.002c-0.276,0-0.5-0.224-0.5-0.5v-14c0-0.827,0.673-1.5,1.5-1.5H6v-3.5c0-0.197,0.116-0.377,0.297-0.457L8,3.288
		V0.502c0-0.276,0.224-0.5,0.5-0.5S9,0.226,9,0.502v2.342l5.597-2.487C14.727,0.3,14.862,0.272,15,0.272
		c0.125,0,0.248,0.023,0.365,0.069c0.249,0.098,0.445,0.286,0.552,0.531C15.971,0.998,15.999,1.131,16,1.269v11.233
		c0,0.276-0.224,0.5-0.5,0.5s-0.5-0.224-0.5-0.5v-4.5h-4.5c-0.276,0-0.5-0.224-0.5-0.5s0.224-0.5,0.5-0.5H15v-1h-2.5
		c-0.276,0-0.5-0.224-0.5-0.5s0.224-0.5,0.5-0.5H15V1.271L7,4.827v3.261c0.59,0.209,1,0.774,1,1.414v13.5h3.5
		c0.276,0,0.5,0.224,0.5,0.5s-0.224,0.5-0.5,0.5H0.5z M7,23.002v-13.5c0-0.276-0.224-0.5-0.5-0.5h-5c-0.276,0-0.5,0.224-0.5,0.5v1.5
		h3.5c0.276,0,0.5,0.224,0.5,0.5s-0.224,0.5-0.5,0.5H1v1h1.5c0.276,0,0.5,0.224,0.5,0.5s-0.224,0.5-0.5,0.5H1v9h1v-2
		c0-0.552,0.449-1,1-1h2c0.551,0,1,0.448,1,1v2H7z M5,23.002v-2H3l0,2H5z"/>
</g>
</svg>
