<?xml version="1.0" encoding="utf-8"?>
<!-- Generator: Adobe Illustrator 22.1.0, SVG Export Plug-In . SVG Version: 6.00 Build 0)  -->
<svg version="1.1" id="Light" xmlns="http://www.w3.org/2000/svg" xmlns:xlink="http://www.w3.org/1999/xlink" x="0px" y="0px"
	 viewBox="0 0 24 24" style="enable-background:new 0 0 24 24;" xml:space="preserve">
<g>
	<title>real-estate-action-building-shield</title>
	<path d="M17,20c-0.276,0-0.5-0.224-0.5-0.5V17H14c-0.276,0-0.5-0.224-0.5-0.5S13.724,16,14,16h2.5v-2.5c0-0.276,0.224-0.5,0.5-0.5
		s0.5,0.224,0.5,0.5V16H20c0.276,0,0.5,0.224,0.5,0.5S20.276,17,20,17h-2.5v2.5C17.5,19.776,17.276,20,17,20z"/>
	<path d="M16.982,24.002c-0.253,0-0.502-0.046-0.74-0.138l-0.551-0.209c-3.056-1.164-5.19-3.963-5.19-6.805v-3.393
		c0-0.615,0.364-1.171,0.929-1.417c1.789-0.676,3.651-1.025,5.545-1.042c1.914,0.017,3.788,0.364,5.573,1.032
		c0.584,0.253,0.953,0.811,0.953,1.427v3.396c0,2.835-2.152,5.633-5.234,6.805l-0.553,0.21
		C17.478,23.957,17.232,24.002,16.982,24.002z M16.976,11.998c-1.771,0.015-3.511,0.341-5.171,0.968
		c-0.178,0.078-0.305,0.277-0.305,0.49v3.394c0,2.717,2.287,5.01,4.546,5.871l0.552,0.21c0.124,0.048,0.253,0.072,0.384,0.072
		c0.129,0,0.255-0.023,0.375-0.069l0.553-0.21c2.281-0.867,4.589-3.162,4.589-5.871v-3.396c0-0.217-0.128-0.413-0.327-0.5
		C20.517,12.339,18.764,12.015,16.976,11.998z"/>
	<path d="M1,24c-0.276,0-0.5-0.224-0.5-0.5v-14C0.5,8.673,1.173,8,2,8h4.5V4.5c0-0.197,0.116-0.377,0.297-0.457L8.5,3.286V0.5
		C8.5,0.224,8.724,0,9,0s0.5,0.224,0.5,0.5v2.342l5.597-2.487c0.13-0.057,0.265-0.085,0.403-0.085c0.125,0,0.247,0.023,0.365,0.069
		c0.249,0.098,0.445,0.286,0.552,0.531c0.055,0.125,0.083,0.259,0.083,0.396V9.5c0,0.276-0.224,0.5-0.5,0.5s-0.5-0.224-0.5-0.5V8H11
		c-0.276,0-0.5-0.224-0.5-0.5S10.724,7,11,7h4.5V6H13c-0.276,0-0.5-0.224-0.5-0.5S12.724,5,13,5h2.5V1.269l-8,3.556v3.261
		c0.59,0.209,1,0.774,1,1.414V23H12c0.276,0,0.5,0.224,0.5,0.5S12.276,24,12,24H1z M7.5,23V9.5C7.5,9.224,7.276,9,7,9H2
		C1.724,9,1.5,9.224,1.5,9.5V11H5c0.276,0,0.5,0.224,0.5,0.5S5.276,12,5,12H1.5v1H3c0.276,0,0.5,0.224,0.5,0.5S3.276,14,3,14H1.5v9
		h1v-2c0-0.552,0.449-1,1-1h2c0.551,0,1,0.448,1,1v2H7.5z M5.5,23v-2h-2l0,2H5.5z"/>
</g>
</svg>
