<?xml version="1.0" encoding="utf-8"?>
<!-- Generator: Adobe Illustrator 22.1.0, SVG Export Plug-In . SVG Version: 6.00 Build 0)  -->
<svg version="1.1" id="Light" xmlns="http://www.w3.org/2000/svg" xmlns:xlink="http://www.w3.org/1999/xlink" x="0px" y="0px"
	 viewBox="0 0 24 24" style="enable-background:new 0 0 24 24;" xml:space="preserve">
<g>
	<title>real-estate-action-building-check</title>
	<path d="M17.5,24c-3.584,0-6.5-2.916-6.5-6.5s2.916-6.5,6.5-6.5s6.5,2.916,6.5,6.5S21.084,24,17.5,24z M17.5,12
		c-3.033,0-5.5,2.467-5.5,5.5s2.467,5.5,5.5,5.5s5.5-2.467,5.5-5.5S20.533,12,17.5,12z"/>
	<path d="M16.667,20.428c-0.273,0-0.533-0.087-0.751-0.251c-0.047-0.035-0.09-0.073-0.131-0.114l-1.5-1.5
		c-0.195-0.195-0.195-0.512,0-0.707c0.094-0.094,0.22-0.146,0.354-0.146s0.259,0.052,0.354,0.146l1.5,1.5
		c0.008,0.008,0.017,0.016,0.027,0.023c0.042,0.032,0.094,0.049,0.149,0.049c0.081,0,0.154-0.037,0.202-0.1l2.905-3.872
		c0.093-0.125,0.243-0.2,0.4-0.2c0.109,0,0.213,0.035,0.3,0.1c0.107,0.08,0.176,0.197,0.195,0.329
		c0.019,0.132-0.015,0.264-0.095,0.371l-2.905,3.872C17.434,20.242,17.059,20.428,16.667,20.428z"/>
	<path d="M0.5,24C0.224,24,0,23.776,0,23.5v-14C0,8.673,0.673,8,1.5,8H6V4.5c0-0.197,0.116-0.377,0.297-0.457L8,3.286V0.5
		C8,0.224,8.224,0,8.5,0S9,0.224,9,0.5v2.342l5.597-2.487C14.727,0.298,14.862,0.27,15,0.27c0.125,0,0.248,0.023,0.365,0.069
		c0.249,0.098,0.445,0.286,0.552,0.531C15.971,0.996,15.999,1.129,16,1.267V9.5c0,0.276-0.224,0.5-0.5,0.5S15,9.776,15,9.5V8h-4.5
		C10.224,8,10,7.776,10,7.5S10.224,7,10.5,7H15V6h-2.5C12.224,6,12,5.776,12,5.5S12.224,5,12.5,5H15V1.269L7,4.825v3.261
		C7.59,8.295,8,8.86,8,9.5V23h3.5c0.276,0,0.5,0.224,0.5,0.5S11.776,24,11.5,24H0.5z M7,23V9.5C7,9.224,6.776,9,6.5,9h-5
		C1.224,9,1,9.224,1,9.5V11h3.5C4.776,11,5,11.224,5,11.5S4.776,12,4.5,12H1v1h1.5C2.776,13,3,13.224,3,13.5S2.776,14,2.5,14H1v9h1
		v-2c0-0.552,0.449-1,1-1h2c0.551,0,1,0.448,1,1v2H7z M5,23v-2H3l0,2H5z"/>
</g>
</svg>
