<?xml version="1.0" encoding="utf-8"?>
<!-- Generator: Adobe Illustrator 22.1.0, SVG Export Plug-In . SVG Version: 6.00 Build 0)  -->
<svg version="1.1" id="Light" xmlns="http://www.w3.org/2000/svg" xmlns:xlink="http://www.w3.org/1999/xlink" x="0px" y="0px"
	 viewBox="0 0 24 24" style="enable-background:new 0 0 24 24;" xml:space="preserve">
<g>
	<title>real-estate-action-building-like</title>
	<path d="M18.28,24c-1.269,0-1.838-0.242-4.28-1.491v0.49c0,0.552-0.448,1-1,1h-2c-0.551,0-1-0.448-1-1v-6c0-0.552,0.449-1,1-1h2
		c0.551,0,1,0.448,1,0.999h0.807c0.16,0,0.31-0.078,0.403-0.208l2.411-3.704c0.08-0.113,0.162-0.202,0.258-0.281
		c0.245-0.2,0.539-0.305,0.85-0.305c0.047,0,0.094,0.002,0.142,0.008c0.358,0.036,0.682,0.21,0.91,0.49
		c0.271,0.332,0.367,0.777,0.257,1.19l-0.431,2.031c-0.049,0.213-0.013,0.435,0.098,0.616c0.085,0.101,0.227,0.164,0.372,0.164
		h2.429c0.152,0,0.297,0.022,0.437,0.065c0.379,0.115,0.691,0.372,0.879,0.722c0.181,0.339,0.224,0.728,0.121,1.097
		c-0.005,0.024-0.011,0.047-0.019,0.068l-0.931,2.561c-0.003,0.01-0.005,0.021-0.007,0.026c-0.5,1.615-1.45,2.435-2.822,2.435
		c-0.483,0-0.874,0.01-1.205,0.018C18.695,23.995,18.478,24,18.28,24z M14,21.385C16.833,22.838,17.2,23,18.294,23
		c0.185,0,0.389-0.005,0.625-0.011c0.341-0.009,0.744-0.019,1.244-0.019c0.925,0,1.48-0.509,1.857-1.7
		c0.005-0.023,0.011-0.045,0.018-0.065l0.931-2.562c0.001-0.004,0.002-0.009,0.003-0.01c0.04-0.131,0.027-0.263-0.034-0.377
		c-0.061-0.115-0.164-0.199-0.288-0.237c-0.045-0.014-0.092-0.02-0.148-0.021h-2.427c-0.464-0.001-0.894-0.211-1.179-0.576
		c-0.286-0.444-0.376-0.942-0.266-1.42l0.435-2.047c0.033-0.126,0.01-0.24-0.059-0.325c-0.067-0.082-0.166-0.129-0.272-0.129
		c-0.082,0-0.158,0.027-0.221,0.079c-0.025,0.02-0.046,0.043-0.064,0.069l-2.412,3.704c-0.289,0.407-0.746,0.645-1.229,0.645H14
		V21.385z M11.001,22.998h2V17.54c-0.002-0.015-0.004-0.03-0.004-0.043c0-0.019,0.002-0.036,0.005-0.05L13,16.998l-2,0
		L11.001,22.998z"/>
	<path d="M0.501,23.999c-0.276,0-0.5-0.224-0.5-0.5v-14c0-0.827,0.673-1.5,1.5-1.5h4.5V4.823c0.001-0.397,0.236-0.756,0.6-0.915
		l1.4-0.622V0.498c0-0.276,0.224-0.5,0.5-0.5s0.5,0.224,0.5,0.5v2.343l5.597-2.487c0.13-0.057,0.265-0.085,0.403-0.085
		c0.125,0,0.248,0.023,0.365,0.069c0.249,0.098,0.445,0.286,0.552,0.531C15.972,0.996,16,1.13,16,1.268v10.731
		c0,0.276-0.224,0.5-0.5,0.5s-0.5-0.224-0.5-0.5V7.998h-4.5c-0.276,0-0.5-0.224-0.5-0.5s0.224-0.5,0.5-0.5H15v-1h-2.5
		c-0.276,0-0.5-0.224-0.5-0.5s0.224-0.5,0.5-0.5H15v-3.73L7.004,4.823L7.001,8.085c0.59,0.209,1,0.774,1,1.414v13.499h0.5
		c0.276,0,0.5,0.224,0.5,0.5s-0.224,0.5-0.5,0.5H7.522c-0.007,0.001-0.015,0.001-0.021,0.001H0.501z M7.001,22.999v-13.5
		c0-0.276-0.224-0.5-0.5-0.5h-5c-0.276,0-0.5,0.224-0.5,0.5v1.499h3.5c0.276,0,0.5,0.224,0.5,0.5s-0.224,0.5-0.5,0.5h-3.5v1h1.5
		c0.276,0,0.5,0.224,0.5,0.5s-0.224,0.5-0.5,0.5h-1.5v9.001h1v-2c0-0.552,0.449-1,1-1h2c0.551,0,1,0.448,1,1v2H7.001z M5.001,22.999
		v-2h-2l0,2H5.001z"/>
</g>
</svg>
