<?xml version="1.0" encoding="utf-8"?>
<!-- Generator: Adobe Illustrator 22.1.0, SVG Export Plug-In . SVG Version: 6.00 Build 0)  -->
<svg version="1.1" id="Light" xmlns="http://www.w3.org/2000/svg" xmlns:xlink="http://www.w3.org/1999/xlink" x="0px" y="0px"
	 viewBox="0 0 24 24" style="enable-background:new 0 0 24 24;" xml:space="preserve">
<g>
	<title>real-estate-action-building-information</title>
	<path d="M17.5,24c-3.584,0-6.5-2.916-6.5-6.5s2.916-6.5,6.5-6.5s6.5,2.916,6.5,6.5S21.084,24,17.5,24z M17.5,12
		c-3.033,0-5.5,2.467-5.5,5.5s2.467,5.5,5.5,5.5s5.5-2.467,5.5-5.5S20.533,12,17.5,12z"/>
	<circle cx="16.75" cy="14.25" r="0.75"/>
	<path d="M16,21c-0.276,0-0.5-0.224-0.5-0.5S15.724,20,16,20h1v-3h-1c-0.276,0-0.5-0.224-0.5-0.5S15.724,16,16,16h1
		c0.552,0,1,0.448,1,1v3h1c0.276,0,0.5,0.224,0.5,0.5S19.276,21,19,21H16z"/>
	<path d="M0.5,24C0.224,24,0,23.776,0,23.5v-14C0,8.673,0.673,8,1.5,8H6V4.825C6.001,4.427,6.237,4.068,6.6,3.91L8,3.287V0.5
		C8,0.224,8.224,0,8.5,0S9,0.224,9,0.5v2.343l5.597-2.488C14.726,0.298,14.861,0.27,15,0.27c0.125,0,0.248,0.023,0.365,0.069
		c0.249,0.098,0.445,0.286,0.552,0.531C15.971,0.996,15.999,1.129,16,1.267V9.5c0,0.276-0.224,0.5-0.5,0.5S15,9.776,15,9.5V8h-4.5
		C10.224,8,10,7.776,10,7.5S10.224,7,10.5,7H15V6h-2.5C12.224,6,12,5.776,12,5.5S12.224,5,12.5,5H15V1.269L7.003,4.825L7,8.086
		C7.59,8.295,8,8.86,8,9.5V23h3.5c0.276,0,0.5,0.224,0.5,0.5S11.776,24,11.5,24H0.5z M7,23V9.5C7,9.224,6.776,9,6.5,9h-5
		C1.224,9,1,9.224,1,9.5V11h3.5C4.776,11,5,11.224,5,11.5S4.776,12,4.5,12H1v1h1.5C2.776,13,3,13.224,3,13.5S2.776,14,2.5,14H1v9h1
		v-2c0-0.552,0.449-1,1-1h2c0.551,0,1,0.448,1,1v2H7z M5,23v-2H3l0,2H5z"/>
</g>
</svg>
