<?xml version="1.0" encoding="utf-8"?>
<!-- Generator: Adobe Illustrator 22.1.0, SVG Export Plug-In . SVG Version: 6.00 Build 0)  -->
<svg version="1.1" id="Light" xmlns="http://www.w3.org/2000/svg" xmlns:xlink="http://www.w3.org/1999/xlink" x="0px" y="0px"
	 viewBox="0 0 24 24" style="enable-background:new 0 0 24 24;" xml:space="preserve">
<g>
	<title>hospital-bedroom-graph</title>
	<path d="M23.5,24c-0.276,0-0.5-0.224-0.5-0.5V22H1v1.5C1,23.776,0.776,24,0.5,24S0,23.776,0,23.5v-10C0,13.224,0.224,13,0.5,13
		S1,13.224,1,13.5V18h1.768C2.279,17.455,2,16.744,2,16c0-1.654,1.346-3,3-3s3,1.346,3,3c0,0.744-0.279,1.455-0.768,2H9v-4
		c0-0.552,0.449-1,1-1h9.5c1.378,0,2.5,1.122,2.5,2.5V18h1v-2c0-0.276,0.224-0.5,0.5-0.5S24,15.724,24,16v7.5
		C24,23.776,23.776,24,23.5,24z M23,21v-2H1v2H23z M21,18v-2.5c0-0.827-0.673-1.5-1.5-1.5H10l0,4H21z M5,14c-1.103,0-2,0.897-2,2
		s0.897,2,2,2s2-0.897,2-2S6.103,14,5,14z"/>
	<path d="M12.5,9C11.673,9,11,8.327,11,7.5v-6C11,0.673,11.673,0,12.5,0h10C23.327,0,24,0.673,24,1.5v6C24,8.327,23.327,9,22.5,9
		H12.5z M12,7.5C12,7.776,12.224,8,12.5,8h10C22.776,8,23,7.776,23,7.5V5.001h-2.793L18.798,6.41
		c-0.054,0.054-0.114,0.101-0.178,0.141c-0.159,0.099-0.342,0.152-0.528,0.152c-0.076,0-0.153-0.009-0.228-0.026
		c-0.26-0.06-0.481-0.219-0.623-0.445l-1.78-2.849L14.55,4.6C14.362,4.85,14.063,5,13.75,5H12V7.5z M15.463,2.383
		c0.217,0,0.424,0.069,0.599,0.2c0.099,0.074,0.182,0.165,0.248,0.27l1.78,2.849l1.41-1.409c0.189-0.189,0.44-0.292,0.707-0.292H23
		V1.5C23,1.224,22.776,1,22.5,1h-10C12.224,1,12,1.224,12,1.5V4h1.75l0.912-1.217c0.16-0.214,0.394-0.352,0.658-0.39
		C15.368,2.386,15.416,2.383,15.463,2.383z"/>
</g>
</svg>
