<?xml version="1.0" encoding="utf-8"?>
<!-- Generator: Adobe Illustrator 22.1.0, SVG Export Plug-In . SVG Version: 6.00 Build 0)  -->
<svg version="1.1" id="Layer_1" xmlns="http://www.w3.org/2000/svg" xmlns:xlink="http://www.w3.org/1999/xlink" x="0px" y="0px"
	 viewBox="0 0 24 24" style="enable-background:new 0 0 24 24;" xml:space="preserve">
<g>
	<title>professions-man-chef-2</title>
	<path d="M23.5,23.995c-0.276,0-0.5-0.224-0.5-0.5v-1c-0.001-1.451-0.915-2.768-2.275-3.277l-1.57-0.527l-2.715,5.041
		c-0.088,0.162-0.256,0.263-0.441,0.263c-0.082,0-0.164-0.021-0.236-0.059c-0.243-0.132-0.334-0.436-0.204-0.678l2.634-4.89
		l-1.392-0.468l-5.948,5.948c-0.094,0.094-0.22,0.146-0.354,0.146s-0.259-0.052-0.354-0.146S10,23.629,10,23.495
		s0.052-0.259,0.146-0.354l1.502-1.502l-5.145-3.505l-3.244,1.09C1.912,19.728,1.001,21.044,1,22.496v1c0,0.276-0.224,0.5-0.5,0.5
		S0,23.771,0,23.495v-1c0.001-1.867,1.176-3.56,2.925-4.213l4.916-1.652C7.892,16.613,7.946,16.604,8,16.604
		c0.215,0,0.406,0.137,0.474,0.341c0.043,0.126,0.033,0.262-0.026,0.382s-0.162,0.209-0.289,0.251l-0.466,0.156l4.675,3.185
		l3.382-3.382c-0.202-0.116-0.302-0.363-0.225-0.593c0.069-0.204,0.26-0.341,0.475-0.341c0.054,0,0.107,0.009,0.158,0.026
		l4.901,1.646c1.761,0.658,2.94,2.352,2.941,4.219v1C24,23.771,23.776,23.995,23.5,23.995z"/>
	<path d="M11.784,13.996c-0.603,0-1.185-0.223-1.637-0.628c-0.099-0.089-0.158-0.211-0.166-0.345
		c-0.007-0.133,0.038-0.262,0.127-0.361c0.095-0.106,0.231-0.167,0.373-0.167c0.123,0,0.241,0.045,0.333,0.127
		c0.269,0.241,0.612,0.374,0.965,0.374l0.376,0c0.376,0,0.719-0.129,0.992-0.373c0.092-0.082,0.21-0.127,0.333-0.127
		c0.142,0,0.278,0.061,0.373,0.167c0.184,0.205,0.166,0.522-0.039,0.706c-0.453,0.405-1.037,0.628-1.645,0.628H11.784z"/>
	<path d="M9,10.495c-0.095,0-0.188-0.027-0.269-0.078c-0.113-0.072-0.191-0.183-0.219-0.314c-0.029-0.13-0.005-0.264,0.067-0.377
		c0.293-0.46,0.794-0.734,1.339-0.734c0.027,0,0.055,0.001,0.083,0.002c0.028-0.001,0.056-0.002,0.083-0.002
		c0.545,0,1.045,0.274,1.338,0.734c0.072,0.113,0.096,0.246,0.067,0.377c-0.029,0.13-0.107,0.242-0.219,0.314
		c-0.08,0.051-0.173,0.078-0.269,0.078c-0.172,0-0.33-0.086-0.422-0.231c-0.107-0.168-0.298-0.272-0.499-0.272
		c-0.014,0-0.073,0.003-0.079,0.003c-0.013,0-0.068-0.003-0.083-0.003c-0.202,0-0.387,0.102-0.496,0.272
		C9.329,10.409,9.172,10.495,9,10.495L9,10.495z"/>
	<path d="M15,10.495c-0.172,0-0.33-0.086-0.422-0.231c-0.109-0.17-0.294-0.272-0.495-0.272c-0.015,0-0.077,0.003-0.083,0.003
		c-0.013,0-0.066-0.003-0.081-0.003c-0.203,0-0.389,0.102-0.498,0.272c-0.092,0.145-0.25,0.231-0.422,0.231l0,0
		c-0.095,0-0.188-0.027-0.269-0.078c-0.232-0.148-0.301-0.458-0.153-0.691c0.293-0.46,0.794-0.734,1.341-0.734
		c0.027,0,0.054,0.001,0.081,0.002c0.027-0.001,0.053-0.002,0.08-0.002c0.547,0,1.049,0.274,1.342,0.734
		c0.148,0.233,0.08,0.542-0.153,0.69C15.188,10.468,15.095,10.495,15,10.495z"/>
	<path d="M12,16.985c-1.588,0-4.934-1.863-5.421-4.783c-0.027-0.165-0.134-0.305-0.286-0.374c-0.852-0.386-1.261-1.367-1.289-2.169
		C4.983,9.069,5.163,8.562,5.5,8.245v-5.15c0.001-1.103,0.709-2.063,1.763-2.388c1.544-0.479,3.139-0.722,4.742-0.722
		c1.603,0,3.199,0.243,4.744,0.722c1.049,0.33,1.753,1.29,1.751,2.388v5.149c0.337,0.317,0.517,0.825,0.496,1.416
		c-0.028,0.8-0.437,1.781-1.288,2.167c-0.15,0.069-0.257,0.208-0.284,0.373C16.935,15.122,13.588,16.985,12,16.985z M6.5,8.495
		c0,0.184-0.1,0.352-0.262,0.44c-0.154,0.083-0.247,0.354-0.235,0.69c0.017,0.492,0.264,1.094,0.704,1.293
		c0.456,0.208,0.777,0.627,0.859,1.121c0.403,2.415,3.314,3.946,4.435,3.946c1.121,0,4.033-1.532,4.437-3.948
		c0.082-0.492,0.402-0.911,0.856-1.118c0.439-0.199,0.686-0.801,0.704-1.293c0.012-0.336-0.08-0.607-0.235-0.691
		C17.6,8.847,17.5,8.679,17.5,8.495v-1.48c-1.738,0.635-3.56,0.961-5.422,0.97C12.06,7.99,12.033,7.995,12,7.995
		c-0.032,0-0.059-0.005-0.078-0.01C10.06,7.977,8.238,7.651,6.5,7.016V8.495z M12.5,6.975c1.729-0.056,3.409-0.401,5-1.027V3.732
		l-5,1.161V6.975z M6.5,5.948c1.591,0.625,3.271,0.971,5,1.027V4.892l-5-1.169V5.948z M12,3.982l5.447-1.265
		c-0.127-0.497-0.501-0.899-0.998-1.055c-1.447-0.449-2.942-0.677-4.445-0.677c-1.503,0-2.999,0.228-4.447,0.677
		C7.062,1.816,6.686,2.215,6.555,2.709L12,3.982z"/>
</g>
</svg>
