<?xml version="1.0" encoding="utf-8"?>
<!-- Generator: Adobe Illustrator 22.1.0, SVG Export Plug-In . SVG Version: 6.00 Build 0)  -->
<svg version="1.1" id="Layer_1" xmlns="http://www.w3.org/2000/svg" xmlns:xlink="http://www.w3.org/1999/xlink" x="0px" y="0px"
	 viewBox="0 0 24 24" style="enable-background:new 0 0 24 24;" xml:space="preserve">
<g>
	<title>professions-man-nurse-2</title>
	<path d="M12,23.995c-0.276,0-0.5-0.224-0.5-0.5v-5c0-0.276,0.224-0.5,0.5-0.5c0.276,0,0.5,0.224,0.5,0.5v5
		C12.5,23.771,12.276,23.995,12,23.995z"/>
	<circle cx="14.25" cy="22.245" r="0.75"/>
	<circle cx="14.25" cy="19.245" r="0.75"/>
	<path d="M12,4.995c-0.276,0-0.5-0.224-0.5-0.5v-0.5H11c-0.276,0-0.5-0.224-0.5-0.5s0.224-0.5,0.5-0.5h0.5v-0.5
		c0-0.276,0.224-0.5,0.5-0.5c0.276,0,0.5,0.224,0.5,0.5v0.5H13c0.276,0,0.5,0.224,0.5,0.5s-0.224,0.5-0.5,0.5h-0.5v0.5
		C12.5,4.771,12.276,4.995,12,4.995z"/>
	<path d="M23.5,23.995c-0.276,0-0.5-0.224-0.5-0.5v-1c-0.001-1.451-0.915-2.768-2.275-3.277l-4.884-1.64
		c-0.126-0.042-0.229-0.132-0.289-0.251s-0.069-0.255-0.026-0.382c0.069-0.204,0.26-0.341,0.474-0.341
		c0.054,0,0.107,0.009,0.159,0.026l4.9,1.646c1.761,0.658,2.94,2.352,2.941,4.219v1C24,23.771,23.776,23.995,23.5,23.995z"/>
	<path d="M0.5,23.995c-0.276,0-0.5-0.224-0.5-0.5v-1c0.001-1.867,1.176-3.56,2.925-4.213l4.916-1.652
		C7.892,16.613,7.946,16.604,8,16.604c0.215,0,0.406,0.137,0.474,0.341c0.043,0.126,0.033,0.262-0.026,0.382
		s-0.162,0.209-0.289,0.251l-4.9,1.646C1.912,19.728,1.001,21.044,1,22.495v1C1,23.771,0.776,23.995,0.5,23.995z"/>
	<path d="M12,14.096c-0.69,0-1.345-0.262-1.845-0.739c-0.097-0.092-0.152-0.216-0.155-0.35s0.046-0.26,0.138-0.357
		c0.094-0.098,0.226-0.155,0.362-0.155c0.129,0,0.252,0.049,0.345,0.138c0.313,0.298,0.724,0.462,1.155,0.462
		c0.432,0,0.842-0.164,1.155-0.463c0.094-0.089,0.216-0.138,0.345-0.138c0.136,0,0.268,0.057,0.362,0.155
		c0.092,0.097,0.141,0.224,0.138,0.357c-0.003,0.134-0.059,0.258-0.155,0.35C13.345,13.834,12.69,14.096,12,14.096z"/>
	<path d="M9,9.495c-0.095,0-0.188-0.027-0.269-0.079c-0.113-0.072-0.19-0.183-0.219-0.314c-0.029-0.13-0.005-0.264,0.067-0.377
		c0.293-0.46,0.794-0.734,1.34-0.734c0.027,0,0.054,0.001,0.081,0.002c0.028-0.001,0.055-0.002,0.082-0.002
		c0.545,0,1.046,0.274,1.339,0.734c0.072,0.113,0.096,0.246,0.067,0.377c-0.029,0.13-0.107,0.242-0.219,0.314
		C11.189,9.468,11.096,9.495,11,9.495c-0.172,0-0.33-0.086-0.422-0.231c-0.107-0.168-0.297-0.272-0.497-0.272
		c-0.015,0-0.075,0.003-0.081,0.003c-0.013,0-0.067-0.003-0.081-0.003c-0.203,0-0.388,0.102-0.497,0.272
		C9.329,9.409,9.172,9.495,9,9.495z"/>
	<path d="M15,9.495c-0.172,0-0.33-0.086-0.422-0.231c-0.109-0.17-0.293-0.272-0.494-0.272c-0.015,0-0.078,0.003-0.085,0.003
		c-0.013,0-0.067-0.003-0.082-0.003c-0.202,0-0.388,0.102-0.497,0.272C13.329,9.409,13.172,9.495,13,9.495
		c-0.095,0-0.188-0.027-0.269-0.078c-0.113-0.072-0.191-0.183-0.219-0.314c-0.029-0.13-0.005-0.264,0.067-0.377
		c0.293-0.46,0.793-0.734,1.338-0.734c0.028,0,0.055,0.001,0.083,0.002c0.028-0.001,0.055-0.002,0.083-0.002
		c0.545,0,1.046,0.275,1.339,0.734c0.072,0.113,0.095,0.246,0.067,0.377c-0.029,0.131-0.107,0.242-0.219,0.314
		C15.188,9.468,15.095,9.495,15,9.495z"/>
	<path d="M12,16.995c-1.588,0-4.935-1.864-5.421-4.786c-0.027-0.164-0.134-0.304-0.286-0.373c-0.852-0.386-1.261-1.368-1.289-2.169
		C4.983,9.076,5.162,8.569,5.5,8.252v-5.15c0.003-1.101,0.711-2.059,1.763-2.384c1.543-0.479,3.139-0.722,4.742-0.722
		c1.603,0,3.199,0.243,4.744,0.722c1.048,0.33,1.752,1.289,1.751,2.387v5.15c0.337,0.317,0.516,0.823,0.496,1.413
		c-0.027,0.8-0.436,1.781-1.287,2.17c-0.152,0.069-0.259,0.209-0.286,0.373C16.935,15.132,13.588,16.995,12,16.995z M6.5,8.502
		c0,0.184-0.1,0.352-0.262,0.44c-0.154,0.083-0.247,0.354-0.235,0.69c0.017,0.492,0.264,1.094,0.704,1.294
		c0.456,0.208,0.776,0.626,0.859,1.119c0.402,2.417,3.314,3.95,4.435,3.95c1.121,0,4.033-1.532,4.436-3.948
		c0.082-0.493,0.403-0.911,0.858-1.119c0.439-0.2,0.686-0.803,0.703-1.294c0.011-0.335-0.081-0.606-0.235-0.689
		C17.6,8.857,17.5,8.688,17.5,8.505v-0.67c-1.748-0.688-3.597-1.036-5.5-1.036c-1.903,0-3.752,0.349-5.5,1.036V8.502z M12,5.801
		c1.894,0,3.743,0.325,5.5,0.967V3.105c0-0.659-0.421-1.234-1.05-1.432c-1.447-0.449-2.942-0.677-4.445-0.677
		c-1.503,0-2.999,0.228-4.447,0.677C6.927,1.869,6.502,2.443,6.5,3.103v3.664C8.257,6.126,10.106,5.801,12,5.801z"/>
</g>
</svg>
