<?xml version="1.0" encoding="utf-8"?>
<!-- Generator: Adobe Illustrator 22.1.0, SVG Export Plug-In . SVG Version: 6.00 Build 0)  -->
<svg version="1.1" id="Layer_1" xmlns="http://www.w3.org/2000/svg" xmlns:xlink="http://www.w3.org/1999/xlink" x="0px" y="0px"
	 viewBox="0 0 24 24" style="enable-background:new 0 0 24 24;" xml:space="preserve">
<g>
	<title>professions-man-post</title>
	<path d="M11.784,14.001c-0.603,0-1.185-0.223-1.637-0.628c-0.099-0.089-0.158-0.211-0.166-0.345
		c-0.007-0.133,0.038-0.262,0.127-0.361c0.095-0.106,0.231-0.167,0.373-0.167c0.123,0,0.242,0.045,0.334,0.128
		c0.269,0.241,0.61,0.373,0.961,0.373L12.153,13c0.377,0,0.721-0.129,0.994-0.373c0.092-0.082,0.21-0.127,0.333-0.127
		c0.142,0,0.278,0.061,0.373,0.167c0.184,0.205,0.166,0.522-0.039,0.706c-0.453,0.405-1.038,0.628-1.647,0.628
		C12.166,14.001,11.784,14.001,11.784,14.001z"/>
	<path d="M9,9.5c-0.095,0-0.188-0.027-0.269-0.079C8.618,9.35,8.541,9.238,8.512,9.108c-0.029-0.13-0.005-0.264,0.067-0.377
		c0.293-0.46,0.792-0.734,1.335-0.734c0.029,0,0.058,0.001,0.087,0.002c0.029-0.002,0.058-0.002,0.087-0.002
		c0.542,0,1.041,0.275,1.334,0.734c0.072,0.113,0.096,0.246,0.067,0.377c-0.029,0.13-0.107,0.242-0.219,0.314
		C11.189,9.473,11.096,9.5,11,9.5c-0.172,0-0.33-0.086-0.422-0.231c-0.109-0.17-0.295-0.272-0.498-0.272C10.066,8.997,10.006,9,10,9
		C9.987,9,9.934,8.997,9.919,8.997c-0.203,0-0.389,0.102-0.498,0.272C9.329,9.414,9.172,9.5,9,9.5z"/>
	<path d="M15,9.5c-0.172,0-0.33-0.086-0.422-0.231c-0.108-0.17-0.294-0.272-0.496-0.272C14.067,8.997,14.006,9,14,9
		c-0.013,0-0.067-0.003-0.082-0.003c-0.202,0-0.388,0.102-0.497,0.272C13.329,9.414,13.172,9.5,13,9.5
		c-0.095,0-0.188-0.027-0.269-0.079c-0.113-0.072-0.19-0.183-0.219-0.314c-0.029-0.13-0.005-0.264,0.067-0.377
		c0.294-0.46,0.794-0.734,1.34-0.734c0.027,0,0.055,0.001,0.082,0.002c0.027-0.001,0.054-0.002,0.081-0.002
		c0.546,0,1.048,0.274,1.341,0.734c0.072,0.113,0.095,0.246,0.067,0.377c-0.029,0.131-0.107,0.242-0.219,0.314
		C15.188,9.473,15.095,9.5,15,9.5z"/>
	<path d="M23.5,24c-0.276,0-0.5-0.224-0.5-0.5v-1c-0.001-1.452-0.915-2.769-2.275-3.277L17,17.972v2.334
		c0,0.552-0.448,1-0.999,1.001c-0.109,0-0.216-0.017-0.318-0.052L12.5,20.194V23.5c0,0.276-0.224,0.5-0.5,0.5
		c-0.276,0-0.5-0.224-0.5-0.5v-3.306l-3.184,1.062c-0.099,0.034-0.205,0.051-0.313,0.051c-0.266,0-0.526-0.107-0.712-0.293
		C7.103,20.824,7,20.573,7,20.306v-2.333l-3.741,1.257C1.912,19.733,1.001,21.048,1,22.501v1C1,23.776,0.776,24,0.5,24
		S0,23.776,0,23.5v-1c0.001-1.867,1.176-3.56,2.925-4.213l5.118-1.72c0.103-0.034,0.21-0.052,0.318-0.052
		c0.21,0,0.411,0.064,0.582,0.186L12,18.886l3.057-2.184c0.171-0.122,0.372-0.186,0.582-0.186c0.109,0,0.216,0.018,0.319,0.052
		l5.101,1.714c1.761,0.658,2.94,2.352,2.941,4.219v1C24,23.776,23.776,24,23.5,24z M16,20.307l0-2.671l-0.361-0.121l0-0.25
		c0,0,0,0.25,0,0.25l-2.549,1.821L16,20.307z M8,20.306l2.911-0.97l-2.549-1.821L8,17.636V20.306z"/>
	<path d="M12,17c-1.588,0-4.937-1.863-5.425-4.782c-0.027-0.165-0.134-0.304-0.286-0.373C5.426,11.453,5.016,10.425,5,9.636
		C4.99,9.075,5.162,8.591,5.478,8.28c-0.005-0.035-0.01-0.069-0.015-0.103C5.178,8.276,4.925,8.37,4.684,8.465
		C4.625,8.488,4.563,8.5,4.5,8.5c-0.207,0-0.389-0.124-0.465-0.316C3.986,8.06,3.988,7.924,4.041,7.802
		c0.053-0.123,0.151-0.217,0.275-0.266c0.326-0.129,0.672-0.255,1.079-0.39c0.043-1.511,0.231-3.018,0.56-4.482
		C6.021,2.331,6.266,2.048,6.593,1.93l5.066-1.838c0.109-0.04,0.224-0.06,0.341-0.06c0.117,0,0.232,0.02,0.342,0.06l5.066,1.838
		c0.327,0.118,0.572,0.403,0.64,0.744c0.327,1.455,0.515,2.96,0.558,4.47c0.407,0.136,0.753,0.261,1.079,0.391
		c0.256,0.102,0.382,0.393,0.281,0.649C19.889,8.376,19.707,8.5,19.5,8.5c-0.063,0-0.125-0.012-0.184-0.035
		c-0.242-0.096-0.494-0.189-0.78-0.289c-0.005,0.034-0.01,0.069-0.015,0.103c0.316,0.31,0.489,0.795,0.478,1.355
		c-0.015,0.789-0.425,1.817-1.289,2.209c-0.151,0.069-0.258,0.208-0.285,0.373C16.937,15.138,13.588,17,12,17z M6.432,7.864
		c0.024,0.188,0.05,0.371,0.081,0.554c0.036,0.217-0.072,0.43-0.269,0.529C6.089,9.024,5.994,9.287,6,9.617
		c0.01,0.489,0.259,1.116,0.702,1.317c0.456,0.208,0.777,0.626,0.859,1.119C7.965,14.468,10.878,16,12,16
		c1.122,0,4.035-1.532,4.439-3.948c0.082-0.493,0.403-0.911,0.858-1.118c0.444-0.202,0.693-0.83,0.703-1.318
		c0.006-0.329-0.089-0.591-0.242-0.669c-0.197-0.099-0.305-0.311-0.269-0.528c0.03-0.182,0.056-0.362,0.08-0.555
		C15.753,7.324,13.88,7.034,11.996,7C10.117,7.034,8.246,7.324,6.432,7.864z M6.933,2.87C6.642,4.167,6.465,5.496,6.407,6.828
		C8.225,6.312,10.102,6.033,11.991,6c1.903,0.033,3.783,0.312,5.602,0.828c-0.058-1.333-0.234-2.658-0.524-3.946L12,1.032
		C12,1.032,6.933,2.87,6.933,2.87z"/>
	<path d="M12,5.5c-0.099,0-0.195-0.029-0.277-0.084L11.114,5.01C10.417,4.546,10,3.768,10,2.93C9.999,2.419,10.414,2.001,10.927,2
		h2.143c0.249,0,0.481,0.096,0.657,0.271C13.902,2.445,13.999,2.678,14,2.927c0,0.84-0.417,1.619-1.114,2.083l-0.609,0.406
		C12.195,5.471,12.099,5.5,12,5.5z M11.002,3c0.022,0.476,0.268,0.912,0.667,1.178L12,4.399l0.332-0.221
		c0.399-0.266,0.645-0.703,0.667-1.179L11.002,3z"/>
	<path d="M17.5,24c-0.276,0-0.5-0.224-0.5-0.5s0.224-0.5,0.5-0.5h2c0.276,0,0.5,0.224,0.5,0.5S19.776,24,19.5,24H17.5z"/>
</g>
</svg>
