<?xml version="1.0" encoding="utf-8"?>
<!-- Generator: Adobe Illustrator 22.1.0, SVG Export Plug-In . SVG Version: 6.00 Build 0)  -->
<svg version="1.1" id="Layer_1" xmlns="http://www.w3.org/2000/svg" xmlns:xlink="http://www.w3.org/1999/xlink" x="0px" y="0px"
	 viewBox="0 0 24 24" style="enable-background:new 0 0 24 24;" xml:space="preserve">
<g>
	<title>professions-man-bellboy</title>
	<path d="M23.5,23.995c-0.276,0-0.5-0.224-0.5-0.5v-1c-0.001-1.451-0.915-2.768-2.275-3.277c0,0-4.708-1.581-4.725-1.587v0.25
		c0,0.141-0.06,0.277-0.165,0.371c-0.923,0.832-2.099,1.342-3.335,1.451v3.792c0,0.276-0.224,0.5-0.5,0.5
		c-0.276,0-0.5-0.224-0.5-0.5v-3.791c-1.236-0.109-2.412-0.619-3.335-1.451C8.06,18.158,8,18.022,8,17.881v-0.25
		c-0.021,0.008-4.741,1.593-4.741,1.593C1.912,19.728,1.001,21.043,1,22.495v1c0,0.276-0.224,0.5-0.5,0.5S0,23.771,0,23.495v-1
		c0.001-1.867,1.176-3.56,2.925-4.213L7.631,16.7C7.858,16.631,8,16.442,8,16.217v-1.292c-0.769-0.815-1.26-1.752-1.421-2.715
		c-0.027-0.165-0.134-0.304-0.286-0.373c-0.853-0.387-1.262-1.369-1.29-2.171c-0.02-0.59,0.16-1.097,0.497-1.413V3.103
		c0.001-1.102,0.709-2.06,1.761-2.386c1.544-0.479,3.14-0.722,4.743-0.722c1.604,0,3.199,0.243,4.744,0.722
		c1.05,0.33,1.754,1.29,1.752,2.389v5.149c0.338,0.317,0.518,0.823,0.497,1.413c-0.027,0.8-0.437,1.781-1.289,2.169
		c-0.152,0.069-0.259,0.208-0.286,0.373c-0.161,0.964-0.652,1.901-1.422,2.716v1.29c0,0.222,0.143,0.414,0.355,0.479l4.704,1.58
		c1.761,0.658,2.94,2.352,2.941,4.219v1C24,23.771,23.776,23.995,23.5,23.995z M9,17.652c0.718,0.592,1.576,0.95,2.5,1.047v-1.754
		c-0.771-0.138-1.694-0.563-2.5-1.147V17.652z M12.5,18.699c0.924-0.097,1.781-0.456,2.5-1.047v-1.852
		c-0.805,0.582-1.729,1.007-2.5,1.145V18.699z M6.5,8.503c0,0.184-0.101,0.353-0.263,0.44C6.083,9.026,5.991,9.296,6.002,9.631
		c0.017,0.493,0.264,1.095,0.704,1.295c0.456,0.208,0.777,0.626,0.859,1.119c0.404,2.417,3.314,3.95,4.435,3.95
		c1.121,0,4.033-1.532,4.436-3.948c0.082-0.493,0.403-0.911,0.858-1.119c0.44-0.2,0.688-0.802,0.705-1.293
		c0.011-0.335-0.081-0.605-0.236-0.689C17.601,8.859,17.5,8.69,17.5,8.506V8.042c-1.748-0.688-3.598-1.036-5.5-1.036
		S8.248,7.354,6.5,8.042V8.503z M6.5,6.975c1.757-0.641,3.606-0.967,5.5-0.967s3.743,0.325,5.5,0.967V6.042
		c-1.748-0.688-3.598-1.036-5.5-1.036S8.248,5.354,6.5,6.042V6.975z M12,4.008c1.894,0,3.743,0.325,5.5,0.967V3.106
		c0.001-0.66-0.421-1.236-1.05-1.434c-1.447-0.449-2.943-0.676-4.445-0.676c-1.503,0-2.999,0.228-4.448,0.677
		C6.926,1.868,6.501,2.443,6.5,3.104v1.871C8.257,4.333,10.106,4.008,12,4.008z"/>
	<circle cx="14.75" cy="21.245" r="0.75"/>
	<path d="M12,14.096c-0.69,0-1.345-0.262-1.845-0.739c-0.097-0.092-0.152-0.216-0.155-0.35s0.046-0.26,0.138-0.357
		c0.094-0.098,0.226-0.155,0.362-0.155c0.129,0,0.252,0.049,0.345,0.138c0.313,0.298,0.724,0.462,1.155,0.462
		c0.432,0,0.842-0.164,1.155-0.463c0.094-0.089,0.216-0.138,0.345-0.138c0.136,0,0.268,0.057,0.362,0.155
		c0.092,0.097,0.141,0.224,0.138,0.357c-0.003,0.134-0.059,0.258-0.155,0.35C13.345,13.833,12.69,14.096,12,14.096z"/>
	<path d="M9,9.495c-0.095,0-0.188-0.027-0.269-0.079c-0.113-0.072-0.19-0.183-0.219-0.314c-0.029-0.13-0.005-0.264,0.067-0.377
		c0.293-0.46,0.794-0.734,1.34-0.734c0.027,0,0.054,0.001,0.082,0.002c0.028-0.001,0.055-0.002,0.083-0.002
		c0.545,0,1.045,0.274,1.339,0.734c0.072,0.113,0.096,0.246,0.067,0.377c-0.029,0.13-0.107,0.242-0.219,0.314
		C11.189,9.468,11.096,9.495,11,9.495c-0.172,0-0.33-0.086-0.422-0.231c-0.107-0.168-0.297-0.272-0.497-0.272
		c-0.015,0-0.076,0.003-0.082,0.003c-0.013,0-0.067-0.003-0.082-0.003c-0.202,0-0.388,0.102-0.497,0.272
		C9.329,9.409,9.172,9.495,9,9.495C9,9.495,9,9.495,9,9.495z"/>
	<path d="M15,9.495c-0.172,0-0.33-0.086-0.422-0.231c-0.109-0.17-0.294-0.272-0.497-0.272c-0.015,0-0.075,0.003-0.082,0.003
		c-0.013,0-0.064-0.003-0.078-0.003c-0.205,0-0.392,0.102-0.5,0.272C13.329,9.409,13.172,9.495,13,9.495l0,0
		c-0.095,0-0.188-0.027-0.269-0.078c-0.113-0.072-0.19-0.183-0.219-0.314c-0.029-0.13-0.005-0.264,0.067-0.377
		c0.293-0.46,0.793-0.734,1.338-0.734c0.028,0,0.056,0.001,0.084,0.002c0.028-0.001,0.056-0.002,0.083-0.002
		c0.545,0,1.045,0.275,1.338,0.734c0.072,0.113,0.095,0.246,0.067,0.377c-0.029,0.131-0.107,0.242-0.219,0.314
		C15.188,9.468,15.095,9.495,15,9.495z"/>
</g>
</svg>
