<?xml version="1.0" encoding="utf-8"?>
<!-- Generator: Adobe Illustrator 22.1.0, SVG Export Plug-In . SVG Version: 6.00 Build 0)  -->
<svg version="1.1" id="Layer_1" xmlns="http://www.w3.org/2000/svg" xmlns:xlink="http://www.w3.org/1999/xlink" x="0px" y="0px"
	 viewBox="0 0 24 24" style="enable-background:new 0 0 24 24;" xml:space="preserve">
<g>
	<title>professions-man-surgeon</title>
	<path d="M6,24c-0.276,0-0.5-0.224-0.5-0.5v-1h-1C4.224,22.5,4,22.276,4,22s0.224-0.5,0.5-0.5h1v-1C5.5,20.224,5.724,20,6,20
		s0.5,0.224,0.5,0.5v1h1C7.776,21.5,8,21.724,8,22s-0.224,0.5-0.5,0.5h-1v1C6.5,23.776,6.276,24,6,24z"/>
	<path d="M9,9.5c-0.095,0-0.188-0.027-0.269-0.079C8.618,9.35,8.541,9.238,8.512,9.108c-0.029-0.13-0.005-0.264,0.067-0.377
		c0.293-0.46,0.793-0.734,1.337-0.734c0.028,0,0.057,0.001,0.085,0.002c0.027-0.001,0.054-0.002,0.081-0.002
		c0.546,0,1.047,0.274,1.34,0.734c0.072,0.113,0.096,0.246,0.067,0.377c-0.029,0.13-0.107,0.242-0.219,0.314
		C11.189,9.473,11.096,9.5,11,9.5c-0.172,0-0.33-0.086-0.422-0.231c-0.107-0.168-0.298-0.272-0.498-0.272
		C10.066,8.997,10.006,9,10,9C9.987,9,9.933,8.997,9.919,8.997c-0.203,0-0.389,0.102-0.497,0.272C9.329,9.414,9.172,9.5,9,9.5z"/>
	<path d="M15,9.5c-0.172,0-0.33-0.086-0.422-0.231c-0.109-0.17-0.293-0.272-0.494-0.272C14.069,8.997,14.007,9,14,9
		c-0.013,0-0.067-0.003-0.081-0.003c-0.203,0-0.389,0.102-0.497,0.272C13.329,9.414,13.172,9.5,13,9.5
		c-0.095,0-0.188-0.027-0.269-0.078c-0.232-0.148-0.301-0.458-0.153-0.69c0.293-0.46,0.794-0.734,1.34-0.734
		c0.027,0,0.055,0.001,0.082,0.002c0.027-0.001,0.054-0.002,0.082-0.002c0.546,0,1.047,0.274,1.34,0.734
		c0.148,0.233,0.08,0.542-0.153,0.69C15.188,9.473,15.095,9.5,15,9.5z"/>
	<path d="M12,17c-1.588,0-4.937-1.863-5.425-4.782c-0.027-0.165-0.134-0.304-0.286-0.373c-0.863-0.392-1.272-1.42-1.288-2.209
		C4.99,9.075,5.162,8.59,5.478,8.28C5.091,5.652,5.446,3.602,6.534,2.184l0.058-0.075c0.029-0.038,0.059-0.077,0.09-0.113
		C7.015,1.603,7.418,1.26,7.878,0.979l0.025-0.016c0.158-0.095,0.333-0.188,0.521-0.276l0.054-0.026
		C8.65,0.583,8.836,0.51,9.029,0.443l0.074-0.025C9.292,0.355,9.49,0.299,9.691,0.251l0.06-0.014
		c0.234-0.053,0.447-0.094,0.656-0.125l0.082-0.011c0.236-0.033,0.461-0.057,0.687-0.073l0.038-0.002C11.503,0.008,11.752,0,12,0
		c0.249,0,0.498,0.008,0.761,0.025l0.061,0.003c0.227,0.016,0.452,0.04,0.689,0.073l0.081,0.011c0.211,0.031,0.425,0.072,0.635,0.12
		l0.081,0.019c0.202,0.048,0.402,0.105,0.593,0.168l0.049,0.017c0.215,0.074,0.403,0.148,0.577,0.228l0.03,0.014
		c0.204,0.095,0.383,0.19,0.546,0.288c0.476,0.29,0.882,0.635,1.219,1.033c0.033,0.039,0.065,0.081,0.097,0.122l0.032,0.041
		c1.105,1.431,1.462,3.485,1.071,6.117C18.838,8.591,19.01,9.075,19,9.635c-0.015,0.789-0.425,1.817-1.289,2.209
		c-0.152,0.069-0.259,0.208-0.286,0.373C16.937,15.137,13.588,17,12,17z M7.945,13.1c0.829,1.539,2.323,2.61,4.055,2.894
		c1.728-0.282,3.221-1.35,4.051-2.884c-1.316-0.399-2.683-0.602-4.07-0.602C10.606,12.509,9.25,12.708,7.945,13.1z M11.981,11.512
		c1.511,0,3.002,0.224,4.434,0.668c0.009-0.043,0.017-0.085,0.024-0.127c0.082-0.493,0.403-0.911,0.858-1.118
		c0.444-0.202,0.694-0.83,0.703-1.318c0.006-0.329-0.089-0.591-0.243-0.669c-0.197-0.099-0.305-0.312-0.269-0.529
		C17.569,7.931,17.625,7.456,17.653,7H6.349c0.028,0.456,0.083,0.931,0.164,1.418c0.036,0.217-0.072,0.43-0.269,0.529
		c-0.154,0.077-0.249,0.34-0.243,0.669c0.009,0.489,0.259,1.117,0.702,1.318c0.456,0.208,0.776,0.626,0.858,1.119
		c0.006,0.038,0.014,0.076,0.022,0.115C9.004,11.732,10.482,11.512,11.981,11.512z M17.664,6c-0.049-1.342-0.386-2.427-1.005-3.226
		c-0.098-0.126-0.197-0.239-0.301-0.345c-0.223-0.227-0.483-0.431-0.773-0.606c0,0-0.022-0.014-0.022-0.014
		C15.43,1.73,15.29,1.657,15.131,1.583l-0.053-0.025c-0.142-0.063-0.297-0.124-0.461-0.18l-0.071-0.024
		c-0.16-0.052-0.329-0.099-0.5-0.139l-0.078-0.018c-0.182-0.041-0.366-0.075-0.549-0.101l-0.076-0.01
		c-0.207-0.028-0.406-0.049-0.606-0.062l-0.054-0.003C12.445,1.007,12.223,1,12,1c-0.223,0-0.445,0.007-0.681,0.022l-0.055,0.003
		c-0.2,0.014-0.398,0.034-0.605,0.062l-0.077,0.01c-0.181,0.026-0.365,0.06-0.546,0.101L9.955,1.216
		c-0.172,0.04-0.339,0.087-0.498,0.139L9.382,1.38C9.219,1.435,9.066,1.495,8.925,1.558c0,0-0.058,0.027-0.059,0.027
		C8.709,1.658,8.571,1.73,8.443,1.806L8.409,1.827C8.121,2.003,7.863,2.205,7.641,2.43C7.544,2.529,7.448,2.639,7.354,2.758
		L7.137,2.63l0.198,0.152C6.72,3.582,6.385,4.663,6.337,6H17.664z"/>
	<path d="M23.5,24c-0.276,0-0.5-0.224-0.5-0.5v-1c-0.001-1.452-0.915-2.769-2.275-3.277l-2.719-0.913
		c-1.25,1.099-3.48,1.751-6.01,1.751c-2.53,0-4.76-0.652-6.01-1.751l-2.727,0.918C1.912,19.732,1.001,21.048,1,22.5v1
		C1,23.776,0.776,24,0.5,24S0,23.776,0,23.5v-1c0.001-1.867,1.176-3.56,2.925-4.213l3.028-1.019c0.05-0.018,0.105-0.027,0.16-0.027
		c0.134,0,0.265,0.056,0.359,0.153c0.978,1.014,3.146,1.669,5.525,1.669c2.378,0,4.547-0.655,5.524-1.668
		c0.094-0.097,0.225-0.153,0.36-0.153c0.054,0,0.108,0.009,0.159,0.026l3.02,1.014c1.761,0.658,2.94,2.352,2.941,4.219v1
		C24,23.776,23.776,24,23.5,24z"/>
</g>
</svg>
