<?xml version="1.0" encoding="utf-8"?>
<!-- Generator: Adobe Illustrator 22.1.0, SVG Export Plug-In . SVG Version: 6.00 Build 0)  -->
<svg version="1.1" id="Layer_1" xmlns="http://www.w3.org/2000/svg" xmlns:xlink="http://www.w3.org/1999/xlink" x="0px" y="0px"
	 viewBox="0 0 24 24" style="enable-background:new 0 0 24 24;" xml:space="preserve">
<g>
	<title>professions-man-chef-1</title>
	<path d="M23.5,24c-0.276,0-0.5-0.224-0.5-0.5v-1c-0.001-1.452-0.915-2.769-2.275-3.277l-1.57-0.527l-2.715,5.041
		C16.353,23.9,16.184,24,16,24c-0.082,0-0.164-0.021-0.236-0.059c-0.243-0.132-0.334-0.436-0.204-0.678l2.633-4.89l-1.392-0.467
		l-5.948,5.948C10.759,23.948,10.634,24,10.5,24s-0.259-0.052-0.354-0.146S10,23.634,10,23.5s0.052-0.259,0.146-0.354l1.502-1.502
		L6.503,18.14l-3.244,1.09C1.912,19.733,1.001,21.049,1,22.501v1C1,23.776,0.776,24,0.5,24S0,23.776,0,23.5v-1
		c0.001-1.867,1.176-3.56,2.925-4.213l4.916-1.652C7.893,16.618,7.946,16.609,8,16.609c0.215,0,0.406,0.137,0.474,0.341
		c0.043,0.126,0.033,0.262-0.026,0.382s-0.162,0.209-0.289,0.251L7.693,17.74l4.676,3.185l3.382-3.382
		c-0.202-0.116-0.302-0.363-0.225-0.593c0.069-0.204,0.26-0.341,0.475-0.341c0.053,0,0.106,0.009,0.157,0.025l4.901,1.646
		c1.761,0.658,2.94,2.352,2.941,4.219v1C24,23.776,23.776,24,23.5,24z"/>
	<path d="M11.805,14.001c-0.603,0-1.185-0.223-1.638-0.628c-0.1-0.089-0.159-0.212-0.166-0.345
		c-0.007-0.134,0.037-0.262,0.127-0.361c0.094-0.106,0.23-0.167,0.373-0.167c0.123,0,0.241,0.045,0.333,0.127
		c0.27,0.241,0.612,0.374,0.962,0.374l0.379-0.001c0.377,0,0.72-0.129,0.993-0.373c0.092-0.082,0.21-0.127,0.333-0.127
		c0.142,0,0.278,0.061,0.373,0.167c0.184,0.205,0.166,0.522-0.039,0.706c-0.453,0.405-1.045,0.628-1.667,0.628L11.805,14.001z"/>
	<path d="M9,9.5c-0.095,0-0.188-0.027-0.269-0.079C8.618,9.35,8.541,9.239,8.512,9.108c-0.029-0.13-0.005-0.264,0.067-0.377
		c0.293-0.46,0.793-0.734,1.338-0.734c0.028,0,0.055,0.001,0.083,0.002c0.028-0.001,0.056-0.002,0.084-0.002
		c0.544,0,1.044,0.274,1.338,0.734c0.072,0.113,0.096,0.246,0.067,0.377c-0.029,0.13-0.107,0.242-0.219,0.314
		C11.189,9.473,11.096,9.5,11,9.5c-0.172,0-0.33-0.086-0.422-0.231c-0.109-0.17-0.295-0.272-0.498-0.272C10.066,8.997,10.006,9,10,9
		C9.987,9,9.934,8.997,9.919,8.997c-0.203,0-0.389,0.102-0.498,0.272C9.329,9.414,9.172,9.5,9,9.5L9,9.5z"/>
	<path d="M13,9.5c-0.095,0-0.188-0.027-0.269-0.079c-0.113-0.072-0.19-0.183-0.219-0.314c-0.029-0.13-0.005-0.264,0.067-0.377
		c0.294-0.46,0.794-0.734,1.338-0.734c0.028,0,0.056,0.001,0.084,0.002c0.027-0.001,0.055-0.002,0.082-0.002
		c0.546,0,1.046,0.275,1.339,0.734c0.072,0.113,0.095,0.246,0.067,0.377c-0.029,0.131-0.107,0.242-0.219,0.314
		C15.188,9.473,15.095,9.5,15,9.5c-0.172,0-0.33-0.086-0.422-0.231c-0.108-0.17-0.294-0.272-0.497-0.272C14.067,8.997,14.006,9,14,9
		c-0.013,0-0.067-0.003-0.082-0.003c-0.202,0-0.388,0.102-0.497,0.272C13.329,9.414,13.172,9.5,13,9.5L13,9.5z"/>
	<path d="M12,17c-1.588,0-4.937-1.863-5.425-4.783c-0.027-0.165-0.134-0.304-0.286-0.373c-0.863-0.392-1.272-1.42-1.288-2.209
		C4.99,9.073,5.164,8.587,5.481,8.277C5.424,7.832,5.4,7.373,5.409,6.909C5.205,6.836,5.02,6.718,4.865,6.564
		C4.583,6.282,4.427,5.907,4.427,5.509C4.426,4.357,4.908,3.245,5.748,2.457C6.032,2.198,6.394,2.056,6.77,2.056
		c0.08,0,0.162,0.007,0.242,0.019l0.037,0.006c1.162-1.332,2.83-2.092,4.6-2.092c0.116,0,0.232,0.003,0.349,0.01
		c0.138-0.01,0.275-0.014,0.412-0.014c2.443,0,4.66,1.511,5.562,3.775l0.691,0.106c0.267,0.04,0.519,0.152,0.73,0.32
		c0.039-0.102,0.088-0.204,0.145-0.305c0.481-0.851,1.594-1.709,2.998-1.709c0.171,0,0.344,0.013,0.516,0.038
		c0.129,0.02,0.244,0.084,0.326,0.179c0.084,0.096,0.127,0.22,0.122,0.349c-0.054,1.309-0.781,2.244-1.551,2.763
		c0.77,0.52,1.497,1.455,1.551,2.764c0.005,0.128-0.038,0.252-0.123,0.349c-0.082,0.094-0.196,0.158-0.321,0.178
		c-0.174,0.026-0.348,0.039-0.519,0.039c-1.404,0-2.518-0.858-2.999-1.709c-0.078-0.139-0.14-0.28-0.185-0.42
		c-0.223,0.163-0.484,0.263-0.76,0.291c0.005,0.436-0.02,0.867-0.073,1.286C18.836,8.587,19.01,9.072,19,9.634
		c-0.015,0.789-0.424,1.817-1.289,2.211c-0.152,0.069-0.259,0.208-0.286,0.373C16.937,15.138,13.588,17,12,17z M6.408,7
		c-0.005,0.483,0.03,0.959,0.104,1.42C6.548,8.637,6.44,8.849,6.243,8.947c-0.154,0.077-0.249,0.34-0.243,0.669
		c0.009,0.489,0.259,1.117,0.702,1.318c0.456,0.208,0.776,0.626,0.858,1.119C7.965,14.468,10.878,16,12,16
		c1.122,0,4.035-1.532,4.439-3.948c0.082-0.493,0.403-0.911,0.858-1.118c0.445-0.203,0.694-0.831,0.703-1.319
		c0.006-0.329-0.089-0.591-0.243-0.668c-0.197-0.099-0.305-0.311-0.27-0.527c0.075-0.459,0.11-0.935,0.104-1.42H6.408z
		 M20.291,6.068c-0.049,0.059-0.045,0.272,0.118,0.56c0.314,0.555,1.073,1.151,2.024,1.197c-0.223-0.92-0.938-1.548-1.558-1.757
		C20.742,6.024,20.616,6,20.51,6c-0.121,0-0.188,0.03-0.212,0.058c0,0,0,0.001-0.001,0.001C20.296,6.062,20.293,6.065,20.291,6.068z
		 M6.774,3.057c-0.129,0-0.252,0.048-0.346,0.134c-0.635,0.595-1.001,1.441-1,2.317c0,0.132,0.052,0.255,0.145,0.348
		C5.665,5.949,5.788,6,5.92,6h12.504c0.154-0.003,0.304-0.064,0.409-0.168c0.109-0.109,0.169-0.253,0.17-0.407
		c0.001-0.283-0.21-0.529-0.49-0.571c-0.001,0-11.655-1.791-11.655-1.791C6.829,3.059,6.801,3.057,6.774,3.057z M20.295,4.938
		C20.323,4.971,20.39,5,20.51,5c0.106,0,0.233-0.023,0.365-0.068c0.62-0.209,1.335-0.837,1.558-1.757
		c-0.951,0.046-1.711,0.642-2.024,1.197c-0.162,0.287-0.167,0.5-0.118,0.56C20.292,4.934,20.294,4.936,20.295,4.938z M16.786,3.578
		c-0.869-1.589-2.54-2.593-4.376-2.593c-0.124,0-0.248,0.005-0.373,0.014C12.031,0.999,12.006,1,12,1c-0.012,0-0.024,0-0.036-0.001
		c-0.102-0.006-0.208-0.01-0.314-0.01c-1.244,0-2.45,0.461-3.379,1.28L16.786,3.578z"/>
</g>
</svg>
