<?xml version="1.0" encoding="utf-8"?>
<!-- Generator: Adobe Illustrator 22.1.0, SVG Export Plug-In . SVG Version: 6.00 Build 0)  -->
<svg version="1.1" id="Light" xmlns="http://www.w3.org/2000/svg" xmlns:xlink="http://www.w3.org/1999/xlink" x="0px" y="0px"
	 viewBox="0 0 24 24" style="enable-background:new 0 0 24 24;" xml:space="preserve">
<g>
	<title>crafts-origami-1</title>
	<path d="M8,24c-0.123,0-0.241-0.045-0.332-0.126l-4.5-4c-0.007-0.006-0.016-0.015-0.024-0.025
		c-0.009-0.008-0.017-0.016-0.023-0.024l-3-3.5c-0.129-0.15-0.157-0.363-0.071-0.542l5.847-12.18l-2.75-2.75
		C3.003,0.71,2.96,0.496,3.038,0.309C3.116,0.121,3.297,0,3.5,0H12c0.17,0,0.327,0.085,0.419,0.228
		c0.093,0.143,0.106,0.321,0.037,0.476L9.835,6.563c-0.001,0.004-0.01,0.024-0.02,0.043l-2.701,6.04l13.221-4.617
		C20.388,8.009,20.444,8,20.5,8c0.12,0,0.237,0.044,0.328,0.123c0.135,0.117,0.197,0.3,0.162,0.475L20.11,13h3.39
		c0.197,0,0.377,0.116,0.457,0.297c0.08,0.18,0.047,0.391-0.085,0.538l-9,10c-0.007,0.008-0.016,0.017-0.026,0.025
		c-0.01,0.01-0.019,0.02-0.028,0.027c-0.029,0.024-0.057,0.038-0.072,0.045c-0.013,0.008-0.044,0.025-0.058,0.031
		C14.625,23.987,14.562,24,14.5,24H8z M13.434,23l-7.121-8.563L4.106,19.37L8.19,23H13.434z M14.515,22.736L22.377,14H7.25
		L14.515,22.736z M3.366,18.575l5.41-12.093l-2.13-2.13l-5.553,11.57L3.366,18.575z M19.09,13l0.748-3.739L9.132,13H19.09z
		 M9.213,5.506L11.228,1H4.707L9.213,5.506z"/>
</g>
</svg>
