<?xml version="1.0" encoding="utf-8"?>
<!-- Generator: Adobe Illustrator 22.1.0, SVG Export Plug-In . SVG Version: 6.00 Build 0)  -->
<svg version="1.1" id="Light" xmlns="http://www.w3.org/2000/svg" xmlns:xlink="http://www.w3.org/1999/xlink" x="0px" y="0px"
	 viewBox="0 0 24 24" style="enable-background:new 0 0 24 24;" xml:space="preserve">
<g>
	<title>crafts-carving</title>
	<path d="M11.322,22.6c-0.142,0-0.284-0.02-0.422-0.061L7.858,21.65c-0.253-0.073-0.483-0.212-0.666-0.403
		c-0.277-0.29-0.425-0.669-0.416-1.07c0.009-0.401,0.173-0.774,0.462-1.051l4.826-4.614c-0.33-0.805-0.223-1.719,0.295-2.425
		l7.695-10.482C20.149,1.477,20.299,1.4,20.458,1.4c0.107,0,0.209,0.033,0.295,0.097c0.108,0.079,0.179,0.196,0.199,0.328
		c0.02,0.132-0.012,0.264-0.091,0.372l-6.805,9.27l3.227,2.369l5.812-7.921c0.094-0.128,0.245-0.204,0.404-0.204
		c0.107,0,0.209,0.033,0.296,0.097c0.222,0.163,0.27,0.476,0.107,0.699l-6.7,9.13c-0.395,0.539-0.975,0.891-1.635,0.993
		c-0.127,0.02-0.258,0.03-0.387,0.03c-0.231,0-0.463-0.035-0.693-0.104l-1.749,5.036C12.528,22.195,11.959,22.6,11.322,22.6z
		 M7.93,19.849c-0.096,0.092-0.151,0.217-0.154,0.35c-0.003,0.134,0.046,0.26,0.139,0.357c0.061,0.063,0.137,0.11,0.222,0.134
		l3.044,0.89c0.046,0.013,0.093,0.02,0.14,0.02c0.213,0,0.402-0.135,0.472-0.336l1.797-5.174l-0.693-0.509
		c-0.092-0.068-0.181-0.143-0.265-0.226L7.93,19.849z M13.166,12.678c-0.489,0.666-0.344,1.607,0.322,2.096l0.806,0.592
		c0.262,0.191,0.569,0.293,0.887,0.293c0.077,0,0.155-0.006,0.233-0.018c0.396-0.061,0.744-0.273,0.981-0.596l0.296-0.404
		l-3.227-2.369L13.166,12.678z"/>
	<path d="M4.734,18.774c-0.184,0-0.353-0.101-0.441-0.263c-0.13-0.243-0.039-0.547,0.203-0.677c1.785-0.96,2.457-3.194,1.496-4.98
		c-0.496-0.921-1.457-1.494-2.507-1.494c-0.466,0-0.929,0.117-1.341,0.339c-0.512,0.275-0.886,0.733-1.053,1.288
		c-0.167,0.556-0.108,1.143,0.166,1.655c0.286,0.533,0.841,0.864,1.447,0.864c0.268,0,0.535-0.068,0.772-0.195
		c0.59-0.317,0.813-1.054,0.496-1.641c-0.02-0.037-0.035-0.077-0.045-0.117c-0.032-0.129-0.012-0.263,0.057-0.378
		s0.178-0.195,0.307-0.228c0.04-0.01,0.081-0.015,0.121-0.015c0.205,0,0.386,0.122,0.463,0.311c0.257,0.499,0.313,1.087,0.148,1.636
		c-0.17,0.565-0.549,1.031-1.069,1.311c-0.385,0.206-0.817,0.315-1.251,0.315c-0.975,0-1.867-0.531-2.327-1.387
		C-0.024,14.37-0.11,13.511,0.134,12.7c0.244-0.812,0.79-1.479,1.537-1.881c0.557-0.3,1.185-0.459,1.815-0.459
		c1.419,0,2.717,0.774,3.388,2.02c1.222,2.271,0.368,5.113-1.903,6.334C4.898,18.754,4.816,18.774,4.734,18.774z"/>
</g>
</svg>
