<?xml version="1.0" encoding="utf-8"?>
<!-- Generator: Adobe Illustrator 22.1.0, SVG Export Plug-In . SVG Version: 6.00 Build 0)  -->
<svg version="1.1" id="Light" xmlns="http://www.w3.org/2000/svg" xmlns:xlink="http://www.w3.org/1999/xlink" x="0px" y="0px"
	 viewBox="0 0 24 24" style="enable-background:new 0 0 24 24;" xml:space="preserve">
<g>
	<title>crafts-calligraphy</title>
	<path d="M1.931,24.016c-0.707,0-1.356-0.385-1.693-1.005c-0.141-0.26-0.222-0.554-0.232-0.851c0-0.546,0.208-1.051,0.586-1.43
		c0.378-0.379,0.88-0.588,1.414-0.588c0.276,0,0.5,0.224,0.5,0.5s-0.224,0.5-0.5,0.5c-0.551,0-1,0.448-1,1
		c0.005,0.126,0.044,0.268,0.111,0.391c0.161,0.297,0.473,0.482,0.812,0.482c0.152,0,0.304-0.039,0.438-0.112L4.5,21.834V11.801
		c0.002-1.333,0.743-2.53,1.934-3.126l5.342-2.671C11.846,5.969,11.923,5.951,12,5.951c0.191,0,0.362,0.106,0.447,0.276
		c0.123,0.247,0.023,0.548-0.224,0.671L9.5,8.26v10.029c0,1.335-0.741,2.534-1.934,3.131l-2.342,1.17l-2.394,1.2
		C2.56,23.937,2.246,24.016,1.931,24.016z M6.882,9.569C6.031,9.995,5.502,10.85,5.5,11.802v9.533l1.619-0.809
		c0.852-0.426,1.382-1.283,1.381-2.237V8.76L6.882,9.569z"/>
	<path d="M12.981,12.025c-0.093,0-0.185-0.013-0.274-0.038c-0.138-0.039-0.266-0.11-0.379-0.209
		c-0.009-0.005-0.034-0.021-0.059-0.046c-0.012-0.012-0.031-0.037-0.044-0.057c-0.221-0.257-0.298-0.601-0.205-0.925l2.269-7.966
		c0.239-0.837,0.881-1.479,1.718-1.718l3.6-1.028c0.089-0.026,0.182-0.039,0.275-0.039c0.267,0,0.518,0.104,0.707,0.293l3.119,3.119
		c0.256,0.252,0.357,0.626,0.262,0.975l-1.03,3.605C22.7,8.83,22.058,9.472,21.222,9.711l-7.966,2.276
		C13.166,12.012,13.074,12.025,12.981,12.025z M18.612,4.889c0.134,0,0.259,0.052,0.354,0.146s0.146,0.22,0.146,0.354
		s-0.052,0.259-0.146,0.354l-5.002,5.002l6.983-1.995c0.502-0.143,0.887-0.529,1.03-1.031l1.028-3.6c0,0-0.001-0.001-0.001-0.001
		l-0.003,0.003l-3.12-3.12l-3.6,1.028c-0.502,0.143-0.887,0.529-1.03,1.031l-1.985,6.97l4.994-4.994
		C18.353,4.941,18.479,4.889,18.612,4.889z"/>
</g>
</svg>
