<?xml version="1.0" encoding="utf-8"?>
<!-- Generator: Adobe Illustrator 22.1.0, SVG Export Plug-In . SVG Version: 6.00 Build 0)  -->
<svg version="1.1" id="Light" xmlns="http://www.w3.org/2000/svg" xmlns:xlink="http://www.w3.org/1999/xlink" x="0px" y="0px"
	 viewBox="0 0 24 24" style="enable-background:new 0 0 24 24;" xml:space="preserve">
<g>
	<title>crafts-origami</title>
	<path d="M20.857,23.531c-0.153,0-0.321-0.037-0.515-0.112l-10.118-3.987c-0.058-0.021-0.114-0.056-0.162-0.101
		c-0.003-0.002-0.022-0.021-0.022-0.021c-0.035-0.037-0.064-0.078-0.086-0.123l-3.762-7.2h-4.79c-0.673,0-0.896-0.361-0.96-0.516
		c-0.064-0.156-0.163-0.568,0.314-1.045l3.293-3.297C4.062,7.114,4.091,7.092,4.111,7.08c0.019-0.015,0.045-0.034,0.06-0.042
		c0.016-0.009,0.032-0.014,0.044-0.018c0.026-0.01,0.05-0.015,0.065-0.019c0.026-0.006,0.05-0.013,0.078-0.016
		c0.015-0.003,0.03-0.004,0.044-0.004H10.2l6.142-6.14c0.245-0.245,0.501-0.37,0.76-0.37c0.099,0,0.195,0.019,0.285,0.056
		c0.155,0.064,0.516,0.286,0.516,0.961v3.609l4.385-2.54c0.221-0.128,0.429-0.194,0.617-0.194c0.176,0,0.336,0.057,0.464,0.165
		c0.157,0.133,0.384,0.449,0.149,1.071l-5.34,14.152l3.115,4.463c0.37,0.532,0.266,0.874,0.114,1.067
		C21.316,23.395,21.148,23.531,20.857,23.531z M20.095,22.247L10.902,9.076v9.548L20.095,22.247z M9.902,16.927V7.981H5.227
		L9.902,16.927z M16.902,15.924V1.695l-5.85,5.848L16.902,15.924z M17.902,15.648l4.537-12.024l-4.537,2.628V15.648z M5.669,10.986
		l-1.395-2.67l-2.666,2.67H5.669z"/>
</g>
</svg>
