<?xml version="1.0" encoding="utf-8"?>
<!-- Generator: Adobe Illustrator 22.1.0, SVG Export Plug-In . SVG Version: 6.00 Build 0)  -->
<svg version="1.1" id="Light" xmlns="http://www.w3.org/2000/svg" xmlns:xlink="http://www.w3.org/1999/xlink" x="0px" y="0px"
	 viewBox="0 0 24 24" style="enable-background:new 0 0 24 24;" xml:space="preserve">
<g>
	<title>crafts-bottle-art-ship</title>
	<path d="M4.5,12c-0.194,0-0.373-0.114-0.454-0.291c-0.081-0.177-0.052-0.387,0.075-0.535l3-3.5C7.215,7.564,7.354,7.5,7.5,7.5
		c0.06,0,0.118,0.011,0.174,0.031C7.869,7.604,8,7.792,8,8v3.5C8,11.776,7.776,12,7.5,12H4.5z M7,11V9.352L5.587,11H7z"/>
	<path d="M15.5,20c-0.276,0-0.5-0.224-0.5-0.5V18H4v1.5C4,19.776,3.776,20,3.5,20S3,19.776,3,19.5V18H1.5C0.673,18,0,17.327,0,16.5
		v-11C0,4.673,0.673,4,1.5,4h16C18.878,4,20,5.121,20,6.5v1C20,7.776,20.224,8,20.5,8H23V7.5C23,7.224,23.224,7,23.5,7
		S24,7.224,24,7.5v7c0,0.276-0.224,0.5-0.5,0.5S23,14.776,23,14.5V14h-2.5c-0.276,0-0.5,0.224-0.5,0.5v1c0,1.378-1.122,2.5-2.5,2.5
		H16v1.5C16,19.776,15.776,20,15.5,20z M17.5,17c0.827,0,1.5-0.673,1.5-1.5v-1c0-0.827,0.673-1.5,1.5-1.5H23V9h-2.5
		C19.673,9,19,8.327,19,7.5v-1C19,5.673,18.327,5,17.5,5h-16C1.224,5,1,5.224,1,5.5v11C1,16.776,1.224,17,1.5,17H6v-1H5.5
		C4.673,16,4,15.327,4,14.5v-1C4,13.224,4.224,13,4.5,13H9V7c0-0.266,0.103-0.517,0.292-0.707S9.731,6,9.998,5.999
		c0.266,0,0.524,0.107,0.71,0.294l3.999,4c0.39,0.389,0.391,1.023,0.001,1.414C14.523,11.893,14.265,12,14.001,12H10v1h5.5
		c0.19,0,0.362,0.106,0.447,0.276c0.085,0.171,0.067,0.372-0.047,0.524l-0.6,0.8c-0.657,0.877-1.704,1.4-2.8,1.4H12v1H17.5z M11,17
		v-1H7v1H11z M5,14.5C5,14.776,5.224,15,5.5,15h7c0.783,0,1.53-0.374,2-1L5,14V14.5z M14,11l-3.999-4
		c0.001,0.001,0.001,0.001,0,0.001c0,0,0,3.999,0,3.999H14z"/>
</g>
</svg>
