<?xml version="1.0" encoding="utf-8"?>
<!-- Generator: Adobe Illustrator 22.1.0, SVG Export Plug-In . SVG Version: 6.00 Build 0)  -->
<svg version="1.1" id="Light" xmlns="http://www.w3.org/2000/svg" xmlns:xlink="http://www.w3.org/1999/xlink" x="0px" y="0px"
	 viewBox="0 0 24 24" style="enable-background:new 0 0 24 24;" xml:space="preserve">
<g>
	<title>trekking-person</title>
	<path d="M12.605,6c-1.654,0-3-1.346-3-3s1.346-3,3-3c1.654,0,3,1.346,3,3S14.26,6,12.605,6z M12.605,1c-1.103,0-2,0.897-2,2
		s0.897,2,2,2s2-0.897,2-2S13.708,1,12.605,1z"/>
	<path d="M13.6,24c-0.925-0.003-1.722-0.633-1.938-1.531c-0.497-2.056-0.756-2.984-1.163-3.798l-0.953,3.813
		C9.323,23.375,8.526,23.999,7.607,24c-0.164,0-0.327-0.021-0.485-0.059c-1.071-0.269-1.724-1.357-1.456-2.426l3.5-14
		C9.299,6.98,9.652,6.52,10.133,6.252C10.43,6.088,10.765,6,11.103,6c0.727,0,1.398,0.394,1.751,1.027l0.264,0.486
		c0.838,1.563,1.392,2.595,4.27,3.006l0.08,0.012c0.527,0.088,0.988,0.376,1.298,0.811c0.31,0.435,0.432,0.964,0.344,1.491
		c-0.088,0.527-0.377,0.988-0.812,1.298c-0.341,0.243-0.741,0.372-1.157,0.372c0,0,0,0,0,0c-0.111,0-0.223-0.009-0.334-0.028
		c-1.717-0.146-3.407-0.82-4.787-1.906l-0.229,0.915c2.353,3.101,2.725,3.789,3.754,8.043c0,0.001,0.001,0.003,0.001,0.005
		c0.125,0.518,0.04,1.054-0.238,1.51c-0.279,0.456-0.718,0.776-1.238,0.901C13.917,23.981,13.759,24,13.601,24
		C13.601,24,13.6,24,13.6,24z M10.308,16.874c0.166,0,0.321,0.083,0.414,0.22c0.939,1.392,1.218,2.272,1.911,5.14
		c0.109,0.449,0.507,0.764,0.969,0.766c0.078,0,0.157-0.01,0.235-0.028c0.259-0.062,0.478-0.222,0.618-0.45s0.182-0.496,0.119-0.755
		c-0.001-0.003-0.001-0.006-0.002-0.009c-1.013-4.185-1.355-4.745-3.722-7.858c-0.092-0.122-0.124-0.276-0.087-0.424l0.485-1.936
		c0.043-0.172,0.176-0.309,0.346-0.359c0.045-0.013,0.092-0.02,0.139-0.02c0.129,0,0.251,0.049,0.345,0.138
		c1.318,1.255,3.043,2.032,4.855,2.187c0.081,0.013,0.144,0.018,0.204,0.018c0.214,0,0.409-0.062,0.582-0.185
		c0.217-0.155,0.361-0.385,0.406-0.649c0.044-0.264-0.017-0.528-0.172-0.746c-0.155-0.218-0.385-0.362-0.649-0.406
		c0,0-0.085-0.013-0.093-0.014c-3.345-0.483-4.135-1.955-4.972-3.514l-0.261-0.48C11.803,7.196,11.468,7,11.104,7
		c-0.169,0-0.336,0.044-0.484,0.126c-0.241,0.134-0.417,0.364-0.484,0.631l-3.5,14c-0.134,0.535,0.192,1.079,0.727,1.213
		C7.441,22.99,7.525,23,7.609,23c0.457,0,0.855-0.312,0.967-0.758l1.247-4.989c0.048-0.191,0.204-0.337,0.399-0.371
		C10.248,16.876,10.278,16.874,10.308,16.874z"/>
	<path d="M17.606,24c-0.041,0-0.082-0.005-0.122-0.015c-0.129-0.032-0.239-0.113-0.307-0.228c-0.069-0.115-0.089-0.249-0.056-0.378
		l3.5-14C20.676,9.156,20.875,9,21.104,9c0.042,0,0.083,0.005,0.124,0.016c0.128,0.032,0.237,0.113,0.306,0.228
		c0.069,0.115,0.089,0.249,0.056,0.379l-3.5,14C18.035,23.844,17.836,24,17.606,24z"/>
	<path d="M5.229,13.979c-0.124,0-0.248-0.014-0.369-0.041l-1.17-0.266c-0.892-0.2-1.456-1.09-1.256-1.982l1.234-4.933
		c0.186-0.741,0.845-1.258,1.604-1.258c0.123,0,0.247,0.014,0.369,0.041l1.169,0.261c0.894,0.202,1.456,1.093,1.255,1.986
		l-1.231,4.935C6.647,13.462,5.987,13.979,5.229,13.979z M5.08,12.962c0.049,0.011,0.099,0.017,0.149,0.017
		c0.299,0,0.559-0.206,0.634-0.5L6.67,9.243L4.214,8.694l-0.801,3.198c-0.039,0.176-0.01,0.36,0.085,0.512
		c0.092,0.148,0.235,0.251,0.404,0.291C3.906,12.695,5.08,12.962,5.08,12.962z M6.912,8.273l0.173-0.694
		c0.04-0.175,0.01-0.358-0.084-0.51C6.908,6.919,6.762,6.816,6.59,6.777L5.423,6.516C5.373,6.505,5.324,6.499,5.274,6.499
		c-0.301,0-0.562,0.206-0.636,0.5L4.457,7.724L6.912,8.273z"/>
</g>
</svg>
