<?xml version="1.0" encoding="utf-8"?>
<!-- Generator: Adobe Illustrator 22.1.0, SVG Export Plug-In . SVG Version: 6.00 Build 0)  -->
<svg version="1.1" id="Light" xmlns="http://www.w3.org/2000/svg" xmlns:xlink="http://www.w3.org/1999/xlink" x="0px" y="0px"
	 viewBox="0 0 24 24" style="enable-background:new 0 0 24 24;" xml:space="preserve">
<g>
	<title>trekking-top</title>
	<path d="M13.249,6c-1.654,0-3-1.346-3-3s1.346-3,3-3c1.654,0,3,1.346,3,3S14.903,6,13.249,6z M13.249,1c-1.103,0-2,0.897-2,2
		s0.897,2,2,2s2-0.897,2-2S14.352,1,13.249,1z"/>
	<path d="M11.75,24c-1.103,0-2-0.897-2-2v-2.72L8.983,16.6c-0.207-0.719-0.207-1.48,0-2.2l1.842-6.452
		c0.063-0.22,0.162-0.427,0.295-0.613c0.311-0.435,0.772-0.723,1.299-0.811c0.11-0.018,0.222-0.028,0.333-0.028
		c0.416,0,0.817,0.129,1.159,0.373l0.537,0.383c1.056,0.679,2.296,1.041,3.575,1.041c0.57,0,1.138-0.073,1.687-0.218
		c0.013-0.004,0.026-0.007,0.039-0.01V6c0-0.276,0.224-0.5,0.5-0.5s0.5,0.224,0.5,0.5v2.065c0.681,0.177,1.227,0.702,1.423,1.385
		c0.304,1.059-0.311,2.168-1.369,2.473c-0.018,0.005-0.036,0.01-0.053,0.014V23c0,0.276-0.224,0.5-0.5,0.5s-0.5-0.224-0.5-0.5
		V12.148c-0.583,0.096-1.176,0.144-1.767,0.144c-1.387,0-2.736-0.257-4.015-0.766l-0.687,2.407l3.013,0.576
		c1.421,0.262,2.453,1.504,2.452,2.952v3.165c0,1.103-0.897,2-2,2s-2-0.897-2-2v-2.336l-1.189-0.234l0.074,0.26
		c0.077,0.266,0.117,0.543,0.119,0.822V22C13.75,23.103,12.853,24,11.75,24z M12.751,7.495c-0.055,0-0.112,0.005-0.167,0.014
		c-0.263,0.044-0.494,0.188-0.649,0.405c-0.067,0.093-0.116,0.196-0.148,0.307l-1.842,6.453c-0.155,0.54-0.155,1.11,0,1.65
		l0.786,2.748c0.013,0.046,0.019,0.092,0.019,0.138V22c0,0.552,0.449,1,1,1s1-0.448,1-1v-2.86c-0.001-0.184-0.028-0.368-0.08-0.548
		l-0.3-1.048c-0.048-0.166-0.005-0.349,0.113-0.476c0.094-0.103,0.229-0.161,0.368-0.161c0.032,0,0.065,0.003,0.097,0.01l2.394,0.47
		c0.234,0.046,0.404,0.252,0.404,0.491v2.748c0,0.552,0.448,1,1,1s1-0.448,1-1V17.46c0.001-0.965-0.688-1.793-1.637-1.968
		l-3.553-0.679c-0.137-0.026-0.259-0.11-0.332-0.229c-0.074-0.119-0.094-0.265-0.055-0.4l0.993-3.478
		c0.04-0.141,0.14-0.256,0.273-0.317c0.064-0.03,0.136-0.046,0.208-0.046s0.144,0.016,0.209,0.046
		c1.285,0.592,2.716,0.905,4.136,0.905c0.861,0,1.719-0.112,2.547-0.334c0.522-0.151,0.828-0.705,0.676-1.234
		C21.088,9.298,20.693,9,20.249,9c-0.092,0-0.185,0.013-0.274,0.039c-0.638,0.168-1.293,0.253-1.95,0.253
		c-1.473,0-2.904-0.42-4.137-1.213L13.33,7.682C13.159,7.56,12.959,7.495,12.751,7.495z"/>
	<path d="M7.075,12.798c-0.228,0-0.452-0.039-0.668-0.115c-0.503-0.179-0.907-0.543-1.136-1.025s-0.257-1.025-0.079-1.529
		L6.364,6.83C6.543,6.327,6.907,5.923,7.39,5.694C7.662,5.564,7.95,5.499,8.248,5.499c0.228,0,0.453,0.039,0.671,0.116
		c0.503,0.179,0.907,0.543,1.136,1.026s0.257,1.025,0.079,1.529l-1.172,3.298C8.679,12.263,7.921,12.798,7.075,12.798z M8.248,6.499
		c-0.148,0-0.293,0.033-0.429,0.098C7.578,6.711,7.396,6.913,7.307,7.165l-1.172,3.298c-0.089,0.252-0.076,0.523,0.039,0.764
		s0.317,0.423,0.568,0.513c0.108,0.039,0.22,0.058,0.334,0.058c0.423,0,0.802-0.267,0.943-0.666l1.172-3.298
		C9.281,7.583,9.267,7.311,9.152,7.07S8.835,6.647,8.584,6.557C8.475,6.519,8.362,6.499,8.248,6.499z"/>
	<path d="M2.249,23c-0.23,0-0.429-0.156-0.485-0.379c-0.032-0.129-0.012-0.264,0.056-0.378s0.178-0.195,0.308-0.228
		c0.895-0.224,1.483-1.083,1.369-1.998l-0.245-2.468c-0.001-0.008-0.002-0.045-0.002-0.049c0-1.132,1.425-2.04,3.911-2.492
		C7.189,15.002,7.221,15,7.251,15c0.241,0,0.447,0.173,0.49,0.411c0.024,0.131-0.005,0.264-0.081,0.374
		c-0.076,0.11-0.19,0.183-0.322,0.207c-1.983,0.361-3.066,1.035-3.088,1.493l0.003,0.032c0.041,0.493,1.319,1.319,4.035,1.624
		c0.274,0.031,0.472,0.28,0.441,0.553c-0.029,0.253-0.242,0.444-0.496,0.444c-0.018,0-0.036-0.001-0.054-0.003
		c-1.594-0.18-2.904-0.551-3.771-1.061l0.083,0.831c0.176,1.407-0.735,2.733-2.12,3.079C2.331,22.995,2.29,23,2.249,23z"/>
</g>
</svg>
