<?xml version="1.0" encoding="utf-8"?>
<!-- Generator: Adobe Illustrator 22.1.0, SVG Export Plug-In . SVG Version: 6.00 Build 0)  -->
<svg version="1.1" id="Layer_1" xmlns="http://www.w3.org/2000/svg" xmlns:xlink="http://www.w3.org/1999/xlink" x="0px" y="0px"
	 viewBox="0 0 24 24" style="enable-background:new 0 0 24 24;" xml:space="preserve">
<g>
	<title>sauna-heat-1</title>
	<path d="M19.354,7.745c-0.114,0-0.225-0.04-0.314-0.111c-0.214-0.173-0.248-0.488-0.075-0.703c0.323-0.399,0.508-0.88,0.536-1.391
		C19.5,5.121,19.354,4.647,19.2,4.145c-0.17-0.554-0.346-1.124-0.346-1.723c0.041-0.745,0.302-1.429,0.757-1.992
		C19.707,0.312,19.848,0.245,20,0.245c0.114,0,0.226,0.04,0.314,0.111c0.214,0.173,0.248,0.488,0.075,0.703
		c-0.322,0.399-0.508,0.88-0.536,1.392C19.854,2.871,20,3.346,20.155,3.849c0.17,0.554,0.345,1.122,0.345,1.718
		c-0.04,0.745-0.302,1.429-0.757,1.992C19.647,7.677,19.505,7.745,19.354,7.745z"/>
	<path d="M16.354,7.745c-0.114,0-0.225-0.04-0.314-0.111c-0.214-0.173-0.248-0.488-0.075-0.703c0.323-0.399,0.508-0.88,0.536-1.391
		C16.5,5.121,16.354,4.647,16.2,4.145c-0.17-0.554-0.346-1.124-0.346-1.723c0.041-0.745,0.302-1.429,0.757-1.992
		C16.707,0.312,16.849,0.245,17,0.245c0.114,0,0.226,0.04,0.314,0.111c0.214,0.173,0.248,0.488,0.075,0.703
		c-0.322,0.399-0.508,0.88-0.536,1.392C16.854,2.871,17,3.346,17.155,3.849c0.17,0.554,0.345,1.122,0.345,1.718
		c-0.04,0.745-0.302,1.429-0.757,1.992C16.647,7.677,16.505,7.745,16.354,7.745z"/>
	<path d="M22.354,7.745c-0.114,0-0.225-0.04-0.314-0.111c-0.214-0.173-0.248-0.488-0.075-0.703c0.323-0.399,0.508-0.88,0.536-1.391
		C22.5,5.121,22.354,4.647,22.2,4.145c-0.17-0.554-0.346-1.124-0.346-1.723c0.041-0.745,0.302-1.429,0.757-1.992
		C22.707,0.312,22.848,0.245,23,0.245c0.114,0,0.226,0.04,0.314,0.111c0.214,0.173,0.248,0.488,0.075,0.703
		c-0.322,0.399-0.508,0.88-0.536,1.392C22.854,2.871,23,3.346,23.155,3.849c0.17,0.554,0.345,1.122,0.345,1.718
		c-0.04,0.745-0.302,1.429-0.757,1.992C22.647,7.677,22.505,7.745,22.354,7.745z"/>
	<path d="M13,18.746c-0.276,0-0.5-0.224-0.5-0.5v-2c0-0.276,0.224-0.5,0.5-0.5s0.5,0.224,0.5,0.5v2
		C13.5,18.521,13.276,18.746,13,18.746z"/>
	<path d="M6,23.746c-0.827,0-1.5-0.673-1.5-1.5v-9.428l-3.206,2.332C1.208,15.212,1.106,15.244,1,15.244
		c-0.159,0-0.311-0.077-0.404-0.206c-0.079-0.108-0.11-0.24-0.09-0.372s0.092-0.248,0.2-0.326l11-8
		C11.792,6.278,11.894,6.245,12,6.245s0.208,0.033,0.294,0.095l11,8c0.108,0.078,0.179,0.194,0.2,0.326s-0.011,0.264-0.09,0.372
		c-0.093,0.129-0.245,0.206-0.405,0.206c-0.106,0-0.207-0.033-0.293-0.095L19.5,12.817v9.428c0,0.827-0.673,1.5-1.5,1.5H6z
		 M18,22.746c0.276,0,0.5-0.224,0.5-0.5V12.09L12,7.363L5.5,12.09v10.155c0,0.276,0.224,0.5,0.5,0.5h2.5v-9c0-0.552,0.449-1,1-1h5
		c0.552,0,1,0.448,1,1v9H18z M14.5,22.746v-9h-5l0,9H14.5z"/>
</g>
</svg>
