<?xml version="1.0" encoding="utf-8"?>
<!-- Generator: Adobe Illustrator 22.1.0, SVG Export Plug-In . SVG Version: 6.00 Build 0)  -->
<svg version="1.1" id="Layer_1" xmlns="http://www.w3.org/2000/svg" xmlns:xlink="http://www.w3.org/1999/xlink" x="0px" y="0px"
	 viewBox="0 0 24 24" style="enable-background:new 0 0 24 24;" xml:space="preserve">
<g>
	<title>car-key-2</title>
	<path d="M17,23.999c-0.827,0-1.5-0.673-1.5-1.5v-0.5h-8v0.5c0,0.827-0.673,1.5-1.5,1.5s-1.5-0.673-1.5-1.5v-0.586
		c-0.59-0.209-1-0.774-1-1.414v-2c0-0.907,0.488-1.725,1.253-2.165l-1.51-0.906c-0.236-0.142-0.313-0.449-0.171-0.686
		c0.089-0.15,0.254-0.243,0.429-0.243c0.09,0,0.179,0.025,0.257,0.071l1.842,1.105l0.296-2.362c0.093-0.749,0.733-1.314,1.488-1.314
		h8.234c0.755,0,1.395,0.565,1.488,1.314l0.296,2.362l1.842-1.105c0.078-0.047,0.167-0.071,0.257-0.071
		c0.175,0,0.339,0.093,0.429,0.242c0.142,0.237,0.065,0.544-0.171,0.686l-1.51,0.906c0.765,0.44,1.253,1.259,1.253,2.165v2
		c0,0.64-0.41,1.205-1,1.414v0.586C18.5,23.326,17.827,23.999,17,23.999z M16.5,22.499c0,0.276,0.224,0.5,0.5,0.5s0.5-0.224,0.5-0.5
		v-0.5h-1V22.499z M5.5,22.499c0,0.276,0.224,0.5,0.5,0.5s0.5-0.224,0.5-0.5v-0.5h-1V22.499z M4.5,20.499c0,0.276,0.224,0.5,0.5,0.5
		h13c0.276,0,0.5-0.224,0.5-0.5v-0.5h-2c-0.276,0-0.5-0.224-0.5-0.5s0.224-0.5,0.5-0.5h2v-0.5c0-0.827-0.673-1.5-1.5-1.5H6
		c-0.827,0-1.5,0.673-1.5,1.5v0.5h2c0.276,0,0.5,0.224,0.5,0.5s-0.224,0.5-0.5,0.5h-2V20.499z M16.433,15.999l-0.321-2.562
		c-0.031-0.25-0.244-0.438-0.496-0.438H7.383c-0.251,0-0.465,0.188-0.496,0.438l-0.321,2.562H16.433z"/>
	<path d="M8.716,6.249c-0.965,0-1.75-0.785-1.75-1.75s0.785-1.75,1.75-1.75s1.75,0.785,1.75,1.75S9.681,6.249,8.716,6.249z
		 M8.716,3.749c-0.414,0-0.75,0.336-0.75,0.75s0.336,0.75,0.75,0.75s0.75-0.336,0.75-0.75S9.129,3.749,8.716,3.749z"/>
	<path d="M8.497,8.999c-1.846,0-3.486-1.104-4.177-2.813C3.869,5.072,3.879,3.849,4.349,2.742C4.818,1.635,5.69,0.778,6.804,0.327
		c0.542-0.219,1.11-0.331,1.688-0.331c0.603,0,1.194,0.121,1.756,0.359c0.999,0.424,1.803,1.184,2.279,2.152l5.979,0.17
		c0.128,0.004,0.249,0.056,0.34,0.146l1.411,1.414c0.195,0.195,0.194,0.512,0,0.707l-1.414,1.414
		c-0.094,0.094-0.22,0.146-0.354,0.146l-5.967-0.007c-0.487,0.976-1.333,1.762-2.343,2.171C9.64,8.888,9.074,8.999,8.497,8.999z
		 M8.492,0.997c-0.449,0-0.891,0.087-1.313,0.257c-0.867,0.35-1.545,1.018-1.91,1.878C4.904,3.993,4.897,4.944,5.247,5.811
		C5.785,7.14,7.06,7.999,8.496,7.999c0.449,0,0.889-0.086,1.308-0.256c0.874-0.354,1.578-1.058,1.932-1.932
		c0.077-0.19,0.259-0.312,0.464-0.312l6.083,0.007l0.915-0.914l-0.918-0.919l-6.094-0.173c-0.198-0.006-0.375-0.128-0.449-0.312
		c-0.351-0.867-1.018-1.545-1.878-1.91C9.42,1.091,8.961,0.997,8.492,0.997z"/>
</g>
</svg>
