<?xml version="1.0" encoding="utf-8"?>
<!-- Generator: Adobe Illustrator 22.1.0, SVG Export Plug-In . SVG Version: 6.00 Build 0)  -->
<svg version="1.1" id="Layer_1" xmlns="http://www.w3.org/2000/svg" xmlns:xlink="http://www.w3.org/1999/xlink" x="0px" y="0px"
	 viewBox="0 0 24 24" style="enable-background:new 0 0 24 24;" xml:space="preserve">
<g>
	<title>artboard-expand</title>
	<path d="M21.5,20c-0.276,0-0.5-0.224-0.5-0.5s0.224-0.5,0.5-0.5h2c0.276,0,0.5,0.224,0.5,0.5S23.776,20,23.5,20H21.5z"/>
	<path d="M0.5,5C0.224,5,0,4.776,0,4.5S0.224,4,0.5,4h2C2.776,4,3,4.224,3,4.5S2.776,5,2.5,5H0.5z"/>
	<path d="M19.5,24c-0.276,0-0.5-0.224-0.5-0.5V20H5.5c-0.392,0-0.762-0.151-1.044-0.424c-0.009-0.008-0.018-0.016-0.026-0.025
		c-0.003-0.003-0.005-0.006-0.008-0.01C4.153,19.268,4,18.895,4,18.5v-18C4,0.224,4.224,0,4.5,0S5,0.224,5,0.5V4h11.5
		C16.776,4,17,4.224,17,4.5S16.776,5,16.5,5H5v13.293l2.146-2.146C7.241,16.052,7.366,16,7.5,16s0.259,0.052,0.354,0.146
		c0.195,0.195,0.195,0.512,0,0.707L5.707,19H19V7.5C19,7.224,19.224,7,19.5,7S20,7.224,20,7.5v16C20,23.776,19.776,24,19.5,24z"/>
	<path d="M9,15.5c-0.134,0-0.259-0.052-0.354-0.146S8.5,15.134,8.5,15s0.052-0.259,0.146-0.354l2.5-2.5
		C11.241,12.052,11.366,12,11.5,12s0.259,0.052,0.354,0.146S12,12.366,12,12.5s-0.052,0.259-0.146,0.354l-2.5,2.5
		C9.259,15.448,9.134,15.5,9,15.5z"/>
	<path d="M13,11.5c-0.134,0-0.259-0.052-0.354-0.146S12.5,11.134,12.5,11s0.052-0.259,0.146-0.354l2.5-2.5
		C15.241,8.052,15.366,8,15.5,8s0.259,0.052,0.354,0.146S16,8.366,16,8.5s-0.052,0.259-0.146,0.354l-2.5,2.5
		C13.259,11.448,13.134,11.5,13,11.5z"/>
	<path d="M17,7.5c-0.134,0-0.259-0.052-0.354-0.146S16.5,7.134,16.5,7s0.052-0.259,0.146-0.354l2.5-2.5
		C19.241,4.052,19.366,4,19.5,4s0.259,0.052,0.354,0.146S20,4.366,20,4.5s-0.052,0.259-0.146,0.354l-2.5,2.5
		C17.259,7.448,17.134,7.5,17,7.5z"/>
	<path d="M21,3.5c-0.134,0-0.259-0.052-0.354-0.146S20.5,3.134,20.5,3s0.052-0.259,0.146-0.354l2.5-2.5
		C23.241,0.052,23.366,0,23.5,0s0.259,0.052,0.354,0.146S24,0.366,24,0.5s-0.052,0.259-0.146,0.354l-2.5,2.5
		C21.259,3.448,21.134,3.5,21,3.5z"/>
</g>
</svg>
