<?xml version="1.0" encoding="utf-8"?>
<!-- Generator: Adobe Illustrator 22.1.0, SVG Export Plug-In . SVG Version: 6.00 Build 0)  -->
<svg version="1.1" id="Layer_1" xmlns="http://www.w3.org/2000/svg" xmlns:xlink="http://www.w3.org/1999/xlink" x="0px" y="0px"
	 viewBox="0 0 24 24" style="enable-background:new 0 0 24 24;" xml:space="preserve">
<g>
	<title>artboard-shrink</title>
	<path d="M14.5,24c-0.827,0-1.5-0.673-1.5-1.5V22H3.5C2.673,22,2,21.327,2,20.5V11H1.5C0.673,11,0,10.327,0,9.5v-1
		C0,7.673,0.673,7,1.5,7H2V6.5C2,5.673,2.673,5,3.5,5h1C5.327,5,6,5.673,6,6.5V7h9.5c0.225,0,0.445,0.05,0.646,0.147l7.001-7.001
		C23.241,0.052,23.366,0,23.5,0s0.259,0.052,0.354,0.146c0.195,0.195,0.195,0.512,0,0.707l-7.001,7.001
		C16.949,8.055,17,8.275,17,8.5V18h0.5c0.827,0,1.5,0.673,1.5,1.5v1c0,0.827-0.673,1.5-1.5,1.5H17v0.5c0,0.827-0.673,1.5-1.5,1.5
		H14.5z M14,22.5c0,0.276,0.224,0.5,0.5,0.5h1c0.276,0,0.5-0.224,0.5-0.5V22h-2V22.5z M3,20.5C3,20.776,3.224,21,3.5,21h14
		c0.276,0,0.5-0.224,0.5-0.5v-1c0-0.276-0.224-0.5-0.5-0.5h-12c-0.066,0-0.13-0.013-0.192-0.039c-0.123-0.051-0.219-0.147-0.27-0.27
		C5.013,18.63,5,18.566,5,18.5V11H3V20.5z M16,18V8.5c0-0.128-0.048-0.249-0.136-0.342c-0.004-0.003-0.018-0.018-0.021-0.021
		C15.749,8.048,15.628,8,15.5,8h-14C1.224,8,1,8.224,1,8.5v1C1,9.776,1.224,10,1.5,10h12c0.066,0,0.13,0.013,0.191,0.038
		c0.123,0.051,0.219,0.147,0.27,0.27C13.987,10.37,14,10.434,14,10.5V18H16z M13,18v-6.293L6.707,18H13z M6,17.293L12.293,11H6
		V17.293z M5,7V6.5C5,6.224,4.775,6,4.5,6h-1C3.224,6,3,6.224,3,6.5V7H5z"/>
</g>
</svg>
