<?xml version="1.0" encoding="utf-8"?>
<!-- Generator: Adobe Illustrator 22.1.0, SVG Export Plug-In . SVG Version: 6.00 Build 0)  -->
<svg version="1.1" id="Light" xmlns="http://www.w3.org/2000/svg" xmlns:xlink="http://www.w3.org/1999/xlink" x="0px" y="0px"
	 viewBox="0 0 24 24" style="enable-background:new 0 0 24 24;" xml:space="preserve">
<g>
	<title>water-protection-fish</title>
	<path d="M1.179,4.796c-0.263,0-0.526-0.028-0.783-0.082c-0.27-0.057-0.442-0.323-0.385-0.593C0.06,3.892,0.265,3.725,0.5,3.725
		c0.035,0,0.07,0.004,0.104,0.011c0.183,0.039,0.371,0.058,0.559,0.058c0,0,0,0,0,0c1.859,0,3.39-1.881,3.406-1.901
		c0.094-0.118,0.24-0.189,0.391-0.189c0.181,0.008,0.329,0.091,0.417,0.224C6.095,3.014,7.3,3.698,8.599,3.76
		c1.363-0.07,2.649-0.748,3.505-1.86c0.095-0.122,0.243-0.195,0.398-0.195c0.007,0,0.033,0.001,0.04,0.001
		c0.173,0.015,0.323,0.115,0.402,0.268c0.561,1.078,1.665,1.762,2.88,1.786c1.296-0.029,2.494-0.71,3.193-1.821
		c0.092-0.146,0.25-0.234,0.423-0.234c0.174,0,0.332,0.088,0.424,0.235c0.01,0.017,1.178,1.815,2.964,1.814
		c0.189,0,0.381-0.02,0.571-0.06c0.034-0.007,0.068-0.01,0.102-0.01c0.235,0,0.441,0.167,0.489,0.398
		c0.027,0.13,0.002,0.264-0.071,0.376c-0.073,0.112-0.186,0.188-0.316,0.216c-0.266,0.055-0.533,0.083-0.795,0.083c0,0,0,0,0,0
		c-1.621,0-2.791-1.06-3.36-1.718c-0.905,1.066-2.208,1.689-3.622,1.721c-1.352-0.026-2.594-0.664-3.389-1.721
		C11.426,4.065,10.045,4.688,8.6,4.759C7.156,4.692,5.84,4.051,4.926,2.987C4.258,3.658,2.876,4.796,1.179,4.796z"/>
	<path d="M9.3,22.3c-0.276,0-0.5-0.224-0.5-0.5s0.224-0.5,0.5-0.5c1.321,0,2.333-0.158,3.085-0.358
		c-1.828-0.271-3.556-1.038-4.977-2.218L5.37,19.535C5.252,19.583,5.127,19.607,5,19.607c-0.136,0-0.269-0.028-0.395-0.082
		c-0.245-0.105-0.435-0.3-0.534-0.548C4.024,18.858,4,18.733,4,18.605v-3.299c0-0.551,0.449-1,1-1c0.128,0,0.253,0.024,0.371,0.071
		l2.037,0.811c1.379-1.131,3.012-1.874,4.765-2.172c-0.508-0.285-1.087-0.437-1.677-0.437c-0.519,0-1.037,0.121-1.501,0.35
		c-0.068,0.034-0.145,0.052-0.221,0.052c-0.192,0-0.364-0.107-0.448-0.278c-0.059-0.12-0.068-0.255-0.025-0.382
		c0.043-0.127,0.133-0.229,0.252-0.288c0.599-0.296,1.271-0.453,1.942-0.453c1.173,0,2.308,0.471,3.131,1.297
		c3.561,0.047,6.389,2.938,6.39,4.079c0,1.009-2.245,3.415-5.203,3.97C14.344,21.3,12.767,22.3,9.3,22.3z M7.999,17.917
		c1.557,1.311,3.527,2.066,5.562,2.13c0.291,0,0.596-0.023,0.899-0.069c0.029-0.008,0.067-0.016,0.11-0.019
		c2.772-0.47,4.427-2.647,4.444-3.003c-0.034-0.41-2.227-3.077-5.465-3.079c-2.023,0.071-3.99,0.823-5.551,2.118V17.917z M5,18.606
		l1.999-0.796v-1.708l-1.982-0.789c-0.005,0-0.011-0.001-0.017-0.002L5,18.606z"/>
	<path d="M15.749,17.079c-0.414,0-0.75-0.336-0.75-0.75c0-0.011,0.001-0.024,0.003-0.037c0.012-0.383,0.338-0.705,0.733-0.713
		c0.005,0,0.023,0,0.027,0c0.392,0.008,0.716,0.323,0.735,0.714c0.002,0.012,0.003,0.025,0.003,0.036
		C16.5,16.743,16.164,17.079,15.749,17.079L15.749,17.079z"/>
	<path d="M19.749,13.3c-0.414,0-0.75-0.336-0.75-0.75c0-0.008,0-0.016,0.001-0.024c0.01-0.405,0.343-0.731,0.75-0.731
		c0.042,0,0.075,0.008,0.095,0.014c0.352,0.046,0.627,0.338,0.651,0.691c0.002,0.016,0.004,0.032,0.004,0.045
		c0,0.381-0.282,0.697-0.66,0.742C19.821,13.292,19.789,13.3,19.749,13.3z"/>
	<path d="M20.999,10.795c-1.103,0-2-0.897-2-2s0.897-2,2-2s2,0.897,2,2S22.102,10.795,20.999,10.795z M20.999,7.795
		c-0.552,0-1,0.449-1,1s0.448,1,1,1s1-0.449,1-1S21.551,7.795,20.999,7.795z"/>
</g>
</svg>
