<?xml version="1.0" encoding="utf-8"?>
<!-- Generator: Adobe Illustrator 22.1.0, SVG Export Plug-In . SVG Version: 6.00 Build 0)  -->
<svg version="1.1" id="Light" xmlns="http://www.w3.org/2000/svg" xmlns:xlink="http://www.w3.org/1999/xlink" x="0px" y="0px"
	 viewBox="0 0 24 24" style="enable-background:new 0 0 24 24;" xml:space="preserve">
<g>
	<title>water-protection-refresh</title>
	<path d="M12.156,17.506c-0.051-0.001-0.103-0.002-0.156-0.006c-0.069,0.004-0.138,0.006-0.207,0.006
		c-1.858,0-3.411-1.453-3.536-3.308c-0.004-0.064-0.007-0.128-0.008-0.192c0-1.385,1.572-4.327,2.89-6.552
		c0.18-0.302,0.51-0.49,0.862-0.49c0.179,0,0.355,0.048,0.509,0.14c0.144,0.085,0.264,0.206,0.35,0.35
		c1.319,2.225,2.89,5.167,2.89,6.545c-0.012,0.954-0.393,1.839-1.071,2.5c-0.666,0.65-1.533,1.007-2.442,1.007L12.156,17.506z
		 M12.001,7.966C10.278,10.871,9.25,13.127,9.25,14c0,0.04,0.002,0.086,0.005,0.132c0.046,0.678,0.353,1.299,0.865,1.746
		c0.464,0.406,1.057,0.629,1.668,0.629c0.059,0,0.118-0.002,0.178-0.006c0.006,0,0.062,0,0.062,0
		c0.052,0.003,0.098,0.005,0.145,0.006l0.034,0c0.667,0,1.297-0.257,1.775-0.723c0.487-0.474,0.76-1.11,0.769-1.789
		C14.749,13.124,13.721,10.869,12.001,7.966z"/>
	<path d="M3.5,15c-0.072,0-0.143-0.016-0.212-0.049c-0.016-0.007-0.046-0.026-0.06-0.037c-0.032-0.02-0.064-0.046-0.092-0.075
		c-0.014-0.013-0.028-0.027-0.038-0.041L0.1,10.8c-0.08-0.107-0.114-0.239-0.095-0.371C0.024,10.297,0.093,10.18,0.2,10.1
		C0.288,10.035,0.391,10,0.5,10c0.157,0,0.306,0.075,0.4,0.2L3,13v-1c0.001-2.644,1.157-5.142,3.172-6.854
		c1.622-1.379,3.69-2.138,5.821-2.138c2.652,0,5.154,1.155,6.865,3.168c0.087,0.102,0.128,0.231,0.117,0.364
		c-0.011,0.133-0.073,0.254-0.175,0.34C18.711,6.958,18.596,7,18.477,7c-0.147,0-0.286-0.064-0.381-0.177
		c-1.521-1.789-3.745-2.816-6.102-2.816c-1.895,0-3.732,0.675-5.175,1.901C5.029,7.43,4.001,9.65,4,12v1l2.1-2.8
		c0.094-0.125,0.244-0.2,0.4-0.2c0.109,0,0.212,0.035,0.299,0.1c0.107,0.08,0.176,0.197,0.195,0.329
		C7.014,10.562,6.98,10.693,6.9,10.8l-3,4c-0.01,0.013-0.023,0.028-0.037,0.04c-0.028,0.03-0.061,0.056-0.099,0.08
		c-0.002,0.002-0.023,0.018-0.053,0.032C3.643,14.984,3.572,15,3.5,15z"/>
	<path d="M12.007,20.997c-2.652,0-5.154-1.155-6.865-3.168c-0.086-0.102-0.128-0.231-0.117-0.364
		c0.011-0.133,0.073-0.254,0.175-0.341c0.09-0.076,0.205-0.119,0.323-0.119c0.147,0,0.286,0.064,0.381,0.176
		c1.521,1.79,3.745,2.816,6.101,2.816c0,0,0,0,0.001,0c1.895,0,3.733-0.675,5.175-1.9C18.973,16.574,20,14.351,20,12v-1l-2.1,2.8
		c-0.093,0.125-0.243,0.2-0.4,0.2c-0.109,0-0.213-0.035-0.3-0.1c-0.107-0.08-0.176-0.197-0.195-0.329
		c-0.019-0.132,0.015-0.264,0.095-0.371l3-4c0.01-0.013,0.023-0.027,0.036-0.039C20.23,9.059,20.362,9,20.5,9
		c0.137,0,0.268,0.058,0.363,0.161C20.877,9.173,20.89,9.187,20.9,9.2l3,4c0.08,0.106,0.114,0.238,0.095,0.37
		c-0.019,0.132-0.088,0.25-0.195,0.33c-0.087,0.065-0.191,0.1-0.3,0.1c-0.157,0-0.307-0.075-0.4-0.2L21,11v1
		c0,2.646-1.156,5.145-3.172,6.859C16.206,20.237,14.139,20.997,12.007,20.997z"/>
</g>
</svg>
