<?xml version="1.0" encoding="utf-8"?>
<!-- Generator: Adobe Illustrator 22.1.0, SVG Export Plug-In . SVG Version: 6.00 Build 0)  -->
<svg version="1.1" id="Light" xmlns="http://www.w3.org/2000/svg" xmlns:xlink="http://www.w3.org/1999/xlink" x="0px" y="0px"
	 viewBox="0 0 24 24" style="enable-background:new 0 0 24 24;" xml:space="preserve">
<g>
	<title>water-protection-drop-1</title>
	<path d="M12.026,16.553c-3.033,0-5.5-2.467-5.5-5.5c0-2.364,3.263-7.542,4.666-9.658c0.186-0.28,0.498-0.448,0.835-0.448
		c0.196,0,0.387,0.057,0.551,0.166c0.113,0.075,0.208,0.17,0.282,0.282c1.403,2.116,4.666,7.292,4.666,9.658
		C17.526,14.086,15.058,16.553,12.026,16.553z M12.026,1.947c-2.175,3.281-4.5,7.397-4.5,9.106c0,2.481,2.019,4.5,4.5,4.5
		s4.5-2.019,4.5-4.5C16.526,9.342,14.201,5.228,12.026,1.947L12.026,1.947C12.026,1.947,12.026,1.947,12.026,1.947z"/>
	<path d="M11.735,20.056c-2.497,0-4.919-0.735-7.004-2.125c-0.229-0.153-0.291-0.464-0.139-0.693
		c0.093-0.14,0.249-0.223,0.416-0.223c0.099,0,0.195,0.029,0.277,0.084c1.921,1.281,4.149,1.958,6.444,1.957
		c0.095,0,0.19-0.001,0.285-0.003c0.107,0.002,0.202,0.003,0.297,0.003c2.289,0,4.511-0.67,6.427-1.937
		c0.082-0.054,0.177-0.083,0.276-0.083c0.168,0,0.324,0.084,0.417,0.224c0.152,0.23,0.089,0.541-0.141,0.693
		c-2.08,1.376-4.498,2.103-6.994,2.103c-0.094,0-0.188-0.001-0.281-0.003C11.929,20.055,11.832,20.056,11.735,20.056z"/>
	<path d="M11.519,23.06c-3.861,0-7.691-1.275-10.784-3.59c-0.107-0.08-0.176-0.197-0.195-0.329
		c-0.019-0.132,0.015-0.264,0.095-0.371c0.094-0.125,0.244-0.201,0.401-0.201c0.109,0,0.212,0.035,0.299,0.1
		c2.922,2.187,6.537,3.391,10.177,3.391c0.167,0,0.333-0.002,0.5-0.008c0.178,0.005,0.341,0.007,0.504,0.007
		c3.631,0,7.237-1.189,10.153-3.349c0.087-0.064,0.19-0.098,0.297-0.098c0.158,0,0.308,0.076,0.402,0.203
		c0.164,0.221,0.117,0.535-0.105,0.699c-3.087,2.286-6.907,3.545-10.758,3.545c0,0,0,0-0.001,0c-0.164,0-0.329-0.002-0.493-0.007
		C11.857,23.058,11.687,23.06,11.519,23.06z"/>
</g>
</svg>
