<?xml version="1.0" encoding="utf-8"?>
<!-- Generator: Adobe Illustrator 22.1.0, SVG Export Plug-In . SVG Version: 6.00 Build 0)  -->
<svg version="1.1" id="Light" xmlns="http://www.w3.org/2000/svg" xmlns:xlink="http://www.w3.org/1999/xlink" x="0px" y="0px"
	 viewBox="0 0 24 24" style="enable-background:new 0 0 24 24;" xml:space="preserve">
<g>
	<title>water-protection-drop</title>
	<path d="M23.222,14.993c-0.035,0-0.071-0.004-0.107-0.011c-0.271-0.06-0.441-0.328-0.382-0.597c0.346-1.559,0.346-3.207,0-4.765
		c-0.636-2.868-2.352-5.317-4.83-6.896c-1.773-1.129-3.808-1.725-5.887-1.725c-0.803,0-1.612,0.089-2.405,0.265
		C6.744,1.9,4.295,3.615,2.716,6.093c-1.578,2.478-2.097,5.423-1.461,8.291c0.06,0.269-0.11,0.537-0.38,0.596
		c-0.036,0.008-0.072,0.012-0.108,0.012c-0.237,0-0.438-0.161-0.489-0.392c-0.694-3.129-0.128-6.341,1.594-9.045
		c1.722-2.704,4.393-4.575,7.522-5.269c0.865-0.192,1.747-0.289,2.623-0.289c2.268,0,4.489,0.651,6.422,1.882
		c2.704,1.722,4.575,4.393,5.27,7.522c0.377,1.7,0.377,3.498,0,5.198C23.66,14.828,23.454,14.993,23.222,14.993z"/>
	<path d="M11.979,24c-1.609,0-3.181-0.321-4.672-0.953c-2.879-1.222-5.136-3.48-6.358-6.358c-0.108-0.254,0.011-0.548,0.265-0.656
		c0.062-0.026,0.128-0.04,0.195-0.04c0.201,0,0.382,0.12,0.46,0.305c1.12,2.638,3.189,4.708,5.828,5.828
		C9.064,22.706,10.505,23,11.98,23c4.432,0,8.413-2.631,10.141-6.703c0.079-0.185,0.26-0.305,0.461-0.305
		c0.067,0,0.133,0.013,0.195,0.04c0.123,0.052,0.218,0.149,0.268,0.273s0.049,0.26-0.003,0.383C21.156,21.13,16.814,24,11.979,24z"
		/>
	<path d="M11.995,19.993c-3.033,0-5.5-2.467-5.5-5.5c0-2.355,3.252-7.841,4.65-10.091c0.141-0.227,0.362-0.385,0.622-0.446
		c0.075-0.017,0.151-0.026,0.228-0.026c0.186,0,0.368,0.052,0.527,0.151c0.129,0.08,0.24,0.192,0.321,0.321
		c1.398,2.248,4.651,7.732,4.651,10.09C17.495,17.526,15.027,19.993,11.995,19.993z M11.994,4.93c-2.175,3.5-4.499,7.85-4.499,9.563
		c0,2.481,2.019,4.5,4.5,4.5c2.481,0,4.5-2.019,4.5-4.5C16.495,12.777,14.17,8.428,11.994,4.93L11.994,4.93z"/>
</g>
</svg>
