<?xml version="1.0" encoding="utf-8"?>
<!-- Generator: Adobe Illustrator 22.1.0, SVG Export Plug-In . SVG Version: 6.00 Build 0)  -->
<svg version="1.1" id="Light" xmlns="http://www.w3.org/2000/svg" xmlns:xlink="http://www.w3.org/1999/xlink" x="0px" y="0px"
	 viewBox="0 0 24 24" style="enable-background:new 0 0 24 24;" xml:space="preserve">
<g>
	<title>seat-find</title>
	<path d="M9.995,23.765c-0.068,0-0.137-0.004-0.206-0.01c-0.532-0.054-1.01-0.312-1.348-0.727c-0.047-0.058-0.091-0.119-0.132-0.182
		l-1.827-2.842L4.68,22.836c-0.287,0.451-0.732,0.763-1.253,0.879c-0.145,0.032-0.292,0.048-0.438,0.048
		c-0.378,0-0.748-0.108-1.07-0.313c-0.067-0.042-0.132-0.089-0.194-0.14c-0.784-0.695-0.936-1.859-0.361-2.716L2.61,18.64
		c0.01-0.016,0.022-0.032,0.034-0.047c0.784-0.967,1.26-2.135,1.376-3.377c0.024-0.259,0.237-0.454,0.495-0.454
		c0.017,0,0.034,0.001,0.052,0.003c0.272,0.026,0.475,0.27,0.449,0.544c-0.133,1.428-0.678,2.774-1.577,3.892l-1.236,1.941
		c-0.302,0.451-0.227,1.053,0.172,1.407c0.016,0.012,0.048,0.035,0.081,0.057c0.162,0.103,0.347,0.157,0.535,0.157
		c0.073,0,0.147-0.008,0.22-0.024c0.261-0.058,0.483-0.214,0.627-0.44l2.222-3.492c0.092-0.145,0.249-0.231,0.421-0.231
		c0.172,0,0.329,0.086,0.422,0.229l2.25,3.5c0.02,0.031,0.042,0.062,0.065,0.091c0.191,0.234,0.474,0.368,0.777,0.368
		c0.229,0,0.453-0.08,0.63-0.224c0.39-0.345,0.463-0.946,0.161-1.391l-2.807-4.368c-0.629-0.978-0.961-2.109-0.96-3.271V10.4
		c0-0.192,0.112-0.37,0.286-0.452C7.37,9.917,7.444,9.9,7.517,9.9c0.115,0,0.228,0.04,0.317,0.113l3.05,2.499
		c0.181,0.148,0.399,0.226,0.632,0.226c0.033,0,0.067-0.002,0.101-0.005c0.265-0.027,0.505-0.155,0.674-0.362
		c0.169-0.207,0.248-0.467,0.221-0.733s-0.155-0.505-0.362-0.675L7.762,7.372c-0.535-0.438-1.21-0.679-1.9-0.679
		c-0.562,0-1.112,0.158-1.59,0.457L2.898,8.008C1.721,8.744,1.018,10.012,1.017,11.4v1.337c0,0.552,0.449,1,1,1s1-0.448,1-1V11.4
		c0-0.694,0.351-1.328,0.94-1.696L4.253,9.52c0.079-0.05,0.171-0.076,0.264-0.076c0.174,0,0.333,0.088,0.425,0.235
		c0.146,0.234,0.074,0.543-0.16,0.689l-0.295,0.184c-0.294,0.184-0.47,0.501-0.47,0.848v1.337c0,1.103-0.897,2-2,2s-2-0.897-2-2
		V11.4c0-1.735,0.879-3.321,2.351-4.24l1.373-0.858c0.637-0.398,1.37-0.609,2.12-0.609c0.921,0,1.82,0.321,2.534,0.905l4.389,3.592
		c0.413,0.338,0.67,0.818,0.723,1.349c0.053,0.531-0.104,1.052-0.442,1.465c-0.339,0.414-0.818,0.671-1.349,0.724
		c-0.068,0.007-0.135,0.01-0.201,0.01l0,0c-0.465,0-0.903-0.156-1.264-0.453l-2.233-1.83v2.054c0,0.97,0.277,1.914,0.801,2.729
		l2.8,4.358c0.578,0.851,0.43,2.016-0.348,2.704C10.897,23.607,10.458,23.765,9.995,23.765z"/>
	<path d="M6.017,5.238c-1.379,0-2.5-1.121-2.5-2.5s1.121-2.5,2.5-2.5s2.5,1.121,2.5,2.5S7.396,5.238,6.017,5.238z M6.017,1.238
		c-0.827,0-1.5,0.673-1.5,1.5s0.673,1.5,1.5,1.5s1.5-0.673,1.5-1.5S6.845,1.238,6.017,1.238z"/>
	<path d="M15.017,8.762c-0.109,0-0.213-0.035-0.3-0.1c-0.106-0.08-0.176-0.197-0.195-0.329c-0.019-0.132,0.015-0.264,0.095-0.371
		l0.9-1.2h-3c-0.276,0-0.5-0.224-0.5-0.5s0.224-0.5,0.5-0.5h3l-0.9-1.2c-0.08-0.107-0.114-0.238-0.095-0.371
		c0.019-0.132,0.088-0.249,0.195-0.329c0.087-0.065,0.19-0.1,0.3-0.1c0.157,0,0.306,0.075,0.4,0.2l1.5,2
		c0.011,0.015,0.032,0.051,0.039,0.068c0.01,0.018,0.019,0.035,0.027,0.055c0.021,0.053,0.032,0.108,0.034,0.161
		c0,0.005,0,0.028,0,0.034c-0.002,0.054-0.013,0.107-0.034,0.16c-0.004,0.012-0.02,0.043-0.026,0.054
		c-0.007,0.014-0.019,0.041-0.04,0.069l-1.5,2C15.324,8.688,15.174,8.762,15.017,8.762z"/>
	<path d="M15.514,18.762c-0.827,0-1.5-0.673-1.5-1.5l0.003-1.001c0-0.826,0.674-1.499,1.5-1.499h3.249
		c0.261,0,0.476-0.192,0.503-0.448l0.713-6.777l-0.011-0.105l-1.029-3.089c-0.261-0.785,0.164-1.636,0.948-1.897l0.949-0.316
		c0.154-0.051,0.312-0.077,0.473-0.077c0.647,0,1.219,0.412,1.424,1.026l1.039,3.141c0.182,0.545,0.243,1.112,0.182,1.684
		l-0.86,8.172c-0.161,1.531-1.444,2.686-2.983,2.686H15.514z M15.517,15.762c-0.276,0-0.5,0.224-0.5,0.5l-0.003,1.001
		c0,0.275,0.224,0.499,0.5,0.499h4.6c1.026,0,1.881-0.77,1.989-1.79l0.86-8.173c0.045-0.429-0.001-0.854-0.137-1.264l-1.04-3.141
		c-0.068-0.204-0.259-0.341-0.475-0.341c-0.053,0-0.106,0.009-0.157,0.026l-0.948,0.316c-0.261,0.087-0.403,0.371-0.316,0.633
		l1.046,3.14c0.011,0.031,0.019,0.067,0.023,0.104l0.023,0.212c0.004,0.035,0.004,0.072,0,0.108l-0.719,6.829
		c-0.081,0.766-0.722,1.343-1.491,1.343H15.517z"/>
	<path d="M15.517,23.762c-0.827,0-1.5-0.673-1.5-1.5v-1c0-0.827,0.673-1.5,1.5-1.5h6c0.827,0,1.5,0.673,1.5,1.5v1
		c0,0.827-0.673,1.5-1.5,1.5H15.517z M15.517,20.762c-0.276,0-0.5,0.224-0.5,0.5v1c0,0.276,0.224,0.5,0.5,0.5h6
		c0.276,0,0.5-0.224,0.5-0.5v-1c0-0.276-0.224-0.5-0.5-0.5H15.517z"/>
</g>
</svg>
