<?xml version="1.0" encoding="utf-8"?>
<!-- Generator: Adobe Illustrator 22.1.0, SVG Export Plug-In . SVG Version: 6.00 Build 0)  -->
<svg version="1.1" id="Light" xmlns="http://www.w3.org/2000/svg" xmlns:xlink="http://www.w3.org/1999/xlink" x="0px" y="0px"
	 viewBox="0 0 24 24" style="enable-background:new 0 0 24 24;" xml:space="preserve">
<g>
	<title>seat-vip</title>
	<path d="M6,6.5c-1.654,0-3-1.346-3-3s1.346-3,3-3s3,1.346,3,3S7.654,6.5,6,6.5z M6,1.5c-1.103,0-2,0.897-2,2s0.897,2,2,2
		s2-0.897,2-2S7.103,1.5,6,1.5z"/>
	<path d="M15.498,23.5c-1.032-0.001-1.906-0.807-1.991-1.834l-0.271-3.249c-0.046-0.519-0.476-0.914-1-0.917H9.352
		c-2.05-0.009-3.76-1.552-3.978-3.589L4.535,9.873C4.436,9.34,4.549,8.807,4.852,8.366c0.303-0.441,0.759-0.737,1.284-0.834
		c0.12-0.022,0.244-0.034,0.365-0.034c0.963,0,1.79,0.689,1.965,1.638l0.865,4.204c0.011,0.084,0.022,0.132,0.031,0.158l2.877,0.001
		c2.61,0.014,4.752,1.984,4.983,4.582l0.276,3.252c0.046,0.531-0.117,1.05-0.461,1.459s-0.826,0.66-1.359,0.706
		c-0.008,0.001-0.041,0.003-0.054,0.003H15.498z M12.239,16.5c1.044,0.006,1.9,0.792,1.993,1.831l0.271,3.252
		c0.043,0.514,0.48,0.917,0.996,0.917h0.115c0.527-0.049,0.936-0.535,0.888-1.082l-0.276-3.25c-0.185-2.08-1.901-3.657-3.99-3.668
		H9.352c-0.265,0-0.894-0.099-1.01-1.016l-0.004-0.03L7.485,9.327C7.396,8.844,6.982,8.498,6.5,8.498
		c-0.061,0-0.122,0.006-0.182,0.017C6.055,8.563,5.827,8.711,5.675,8.931c-0.151,0.22-0.208,0.486-0.16,0.749l0.845,4.076
		c0.17,1.568,1.455,2.737,2.994,2.744H12.239z"/>
	<path d="M0.5,23.5C0.224,23.5,0,23.276,0,23s0.224-0.5,0.5-0.5h10.368c0.02,0,0.041-0.001,0.061-0.004
		c0.133-0.017,0.251-0.084,0.333-0.189c0.082-0.105,0.118-0.237,0.102-0.369l-0.25-2c-0.031-0.25-0.245-0.438-0.496-0.438H7.746
		c-2.118,0-3.97-1.503-4.406-3.573l-1.152-5.039C2.135,10.66,1.935,10.5,1.7,10.5H0.5C0.224,10.5,0,10.276,0,10s0.224-0.5,0.5-0.5
		h1.2c0.704,0,1.306,0.479,1.462,1.166l1.154,5.047C4.657,17.33,6.098,18.5,7.743,18.5h2.875c0.755,0,1.395,0.565,1.488,1.314
		l0.25,2c0.05,0.397-0.059,0.791-0.304,1.107c-0.246,0.316-0.601,0.518-0.998,0.567c-0.061,0.008-0.124,0.012-0.185,0.012H0.5z"/>
	<path d="M18.5,7.5C18.224,7.5,18,7.276,18,7V2c0-0.276,0.224-0.5,0.5-0.5S19,1.724,19,2v5C19,7.276,18.776,7.5,18.5,7.5z"/>
	<path d="M21.5,7.5C21.224,7.5,21,7.276,21,7V2c0-0.276,0.224-0.5,0.5-0.5H22c1.103,0,2,0.897,2,2s-0.897,2-2,2V7
		C22,7.276,21.776,7.5,21.5,7.5z M22,4.5c0.552,0,1-0.449,1-1s-0.448-1-1-1V4.5z"/>
	<path d="M14.5,7.5c-0.167,0-0.323-0.083-0.416-0.223C13.375,6.214,13.001,4.978,13,3.7V2c0-0.276,0.224-0.5,0.5-0.5S14,1.724,14,2
		v1.7c0,0.788,0.172,1.567,0.5,2.279C14.828,5.267,15,4.488,15,3.7V2c0-0.276,0.224-0.5,0.5-0.5S16,1.724,16,2v1.7
		c0,1.278-0.375,2.515-1.084,3.577C14.823,7.417,14.667,7.5,14.5,7.5z"/>
</g>
</svg>
