<?xml version="1.0" encoding="utf-8"?>
<!-- Generator: Adobe Illustrator 22.1.0, SVG Export Plug-In . SVG Version: 6.00 Build 0)  -->
<svg version="1.1" id="Layer_1" xmlns="http://www.w3.org/2000/svg" xmlns:xlink="http://www.w3.org/1999/xlink" x="0px" y="0px"
	 viewBox="0 0 24 24" style="enable-background:new 0 0 24 24;" xml:space="preserve">
<g>
	<title>religion-man-japan</title>
	<path d="M23.5,24c-0.276,0-0.5-0.224-0.5-0.5v-1c-0.001-1.452-0.915-2.769-2.275-3.277l-1.57-0.527l-2.715,5.041
		C16.353,23.899,16.184,24,16,24c-0.082,0-0.164-0.021-0.236-0.059c-0.243-0.132-0.334-0.436-0.204-0.678l2.633-4.89l-1.392-0.467
		l-5.948,5.948C10.759,23.948,10.634,24,10.5,24s-0.259-0.052-0.354-0.146S10,23.634,10,23.5s0.052-0.259,0.146-0.354l1.502-1.502
		l-5.145-3.505l-3.244,1.09C1.912,19.732,1.001,21.048,1,22.5v1C1,23.776,0.776,24,0.5,24S0,23.776,0,23.5v-1
		c0.001-1.867,1.176-3.56,2.925-4.213l4.916-1.652C7.893,16.618,7.946,16.609,8,16.609c0.215,0,0.406,0.137,0.474,0.341
		c0.043,0.127,0.033,0.262-0.026,0.382s-0.162,0.209-0.289,0.251L7.693,17.74l4.676,3.185l3.382-3.382
		c-0.202-0.116-0.302-0.363-0.225-0.593c0.069-0.204,0.26-0.341,0.475-0.341c0.053,0,0.106,0.009,0.157,0.025l4.901,1.646
		c1.761,0.658,2.94,2.352,2.941,4.219v1C24,23.776,23.776,24,23.5,24z"/>
	<path d="M11.784,14.001c-0.603,0-1.185-0.223-1.637-0.628c-0.099-0.089-0.158-0.211-0.166-0.345
		c-0.007-0.133,0.038-0.262,0.127-0.361c0.095-0.106,0.231-0.166,0.373-0.166c0.123,0,0.242,0.045,0.333,0.127
		c0.269,0.24,0.611,0.373,0.964,0.373L12.15,13c0.379,0,0.724-0.129,0.996-0.373c0.092-0.082,0.21-0.127,0.334-0.127
		c0.142,0,0.278,0.061,0.373,0.167c0.183,0.205,0.166,0.522-0.04,0.706c-0.453,0.405-1.034,0.628-1.636,0.628L11.784,14.001z"/>
	<path d="M12,17c-1.633,0-5.5-2.135-5.5-5.5V10H2.685c-0.152,0-0.296-0.021-0.436-0.063c-0.384-0.115-0.7-0.372-0.89-0.725
		c-0.19-0.353-0.231-0.758-0.116-1.142c0.984-3.06,4.676-5.893,6.788-7.31C8.774,0.263,9.638,0,10.531,0h2.934
		c0.897,0,1.761,0.263,2.503,0.76c2.113,1.417,5.804,4.25,6.786,7.3c0.045,0.152,0.066,0.299,0.066,0.447
		C22.816,9.331,22.143,10,21.32,10H17.5v1.5C17.5,14.865,13.633,17,12,17z M7.5,11.5c0,2.732,3.343,4.5,4.5,4.5
		c1.157,0,4.5-1.768,4.5-4.5V10h-9V11.5z M10.531,1C9.837,1,9.165,1.204,8.588,1.59C6.974,2.673,3.12,5.499,2.198,8.366
		C2.162,8.486,2.177,8.62,2.24,8.737c0.063,0.117,0.169,0.203,0.297,0.242C2.585,8.994,2.642,9,2.677,9h18.638
		c0.279,0,0.504-0.223,0.505-0.498c0-0.049-0.007-0.097-0.021-0.145c-0.922-2.859-4.774-5.685-6.388-6.767
		C14.835,1.204,14.164,1,13.469,1H10.531z"/>
</g>
</svg>
