<?xml version="1.0" encoding="utf-8"?>
<!-- Generator: Adobe Illustrator 22.1.0, SVG Export Plug-In . SVG Version: 6.00 Build 0)  -->
<svg version="1.1" id="Layer_1" xmlns="http://www.w3.org/2000/svg" xmlns:xlink="http://www.w3.org/1999/xlink" x="0px" y="0px"
	 viewBox="0 0 24 24" style="enable-background:new 0 0 24 24;" xml:space="preserve">
<g>
	<title>religion-man-christian-1</title>
	<path d="M11.805,15.498c-0.604,0-1.186-0.223-1.638-0.628c-0.205-0.184-0.223-0.5-0.039-0.706c0.095-0.106,0.231-0.167,0.373-0.167
		c0.123,0,0.242,0.045,0.333,0.128c0.269,0.24,0.611,0.373,0.963,0.373l0.382-0.001c0.369,0,0.72-0.132,0.988-0.373
		c0.092-0.082,0.21-0.127,0.333-0.127c0.142,0,0.278,0.061,0.373,0.167c0.089,0.099,0.134,0.227,0.126,0.361
		c-0.008,0.133-0.066,0.256-0.166,0.345c-0.453,0.405-1.034,0.628-1.637,0.628H11.805z"/>
	<path d="M9,11.497c-0.095,0-0.188-0.027-0.269-0.079c-0.112-0.072-0.19-0.183-0.219-0.313c-0.029-0.13-0.005-0.264,0.067-0.377
		c0.294-0.46,0.793-0.734,1.337-0.734c0.028,0,0.056,0.001,0.084,0.002c0.028-0.001,0.056-0.002,0.084-0.002
		c0.544,0,1.044,0.274,1.338,0.734c0.072,0.112,0.096,0.246,0.067,0.377c-0.029,0.13-0.107,0.242-0.219,0.314
		c-0.08,0.051-0.173,0.079-0.269,0.079c-0.172,0-0.329-0.086-0.422-0.231c-0.109-0.171-0.294-0.272-0.496-0.272
		c-0.015,0-0.076,0.003-0.082,0.003c-0.013,0-0.067-0.003-0.082-0.003c-0.202,0-0.387,0.102-0.496,0.272
		C9.329,11.411,9.172,11.497,9,11.497z"/>
	<path d="M15,11.497c-0.172,0-0.33-0.086-0.422-0.231c-0.108-0.17-0.295-0.272-0.499-0.272c-0.014,0-0.074,0.003-0.08,0.003
		c-0.013,0-0.068-0.003-0.083-0.003c-0.201,0-0.387,0.102-0.496,0.272c-0.092,0.145-0.25,0.231-0.422,0.231
		c-0.095,0-0.188-0.027-0.269-0.078c-0.232-0.148-0.301-0.458-0.152-0.691c0.293-0.46,0.793-0.734,1.337-0.734
		c0.028,0,0.056,0.001,0.085,0.002c0.028-0.001,0.055-0.002,0.083-0.002c0.545,0,1.045,0.274,1.338,0.734
		c0.148,0.232,0.08,0.542-0.152,0.69C15.188,11.47,15.095,11.497,15,11.497z"/>
	<path d="M12,17.997c-1.6,0-4.971-1.863-5.46-4.782c-0.027-0.165-0.135-0.304-0.287-0.373c-0.866-0.393-1.277-1.422-1.292-2.212
		c-0.01-0.541,0.152-1.014,0.45-1.324L5.391,9.23C4.893,8.601,4.586,7.848,4.503,7.049C4.501,7.031,4.5,7.014,4.5,6.997
		c0-0.159,0.01-0.324,0.033-0.516c0.001-0.015,0.003-0.03,0.007-0.045c0.272-2.103,1.942-3.66,3.301-4.6
		C9.406,0.752,11.289-0.003,12-0.003c0.711,0,2.594,0.755,4.16,1.839c1.366,0.946,3.046,2.513,3.303,4.611
		c0.002,0.011,0.003,0.023,0.004,0.034C19.49,6.674,19.5,6.839,19.5,6.997c0,0.018-0.001,0.036-0.003,0.054
		c-0.083,0.797-0.39,1.55-0.888,2.178l-0.02,0.075c0.299,0.311,0.461,0.784,0.451,1.326c-0.015,0.789-0.426,1.818-1.293,2.21
		c-0.152,0.069-0.26,0.208-0.287,0.373C16.971,16.134,13.6,17.997,12,17.997z M6.463,9.368c0.061,0.228-0.048,0.471-0.259,0.577
		c-0.154,0.077-0.249,0.339-0.243,0.666c0.009,0.489,0.259,1.118,0.705,1.32c0.456,0.206,0.778,0.625,0.861,1.119
		C7.924,15.424,10.9,16.997,12,16.997s4.076-1.573,4.474-3.948c0.083-0.494,0.405-0.912,0.861-1.119
		c0.446-0.202,0.696-0.83,0.705-1.318c0.006-0.329-0.089-0.591-0.244-0.668c-0.211-0.106-0.321-0.348-0.259-0.577l0.099-0.37H6.364
		L6.463,9.368z M18.206,7.997c0.151-0.316,0.249-0.652,0.291-1H5.503c0.042,0.348,0.14,0.683,0.291,1H18.206z M18.351,5.997
		c-0.903-3.052-5.684-5-6.351-5s-5.448,1.948-6.351,5H18.351z"/>
	<path d="M12.011,24c-2.98,0-5.747-1.69-7.111-4.325l-1.641,0.551C1.912,20.73,1.001,22.046,1,23.497c0,0.275-0.224,0.5-0.5,0.5
		c-0.134,0-0.259-0.052-0.354-0.147C0.052,23.756,0,23.63,0,23.496c0.001-1.866,1.176-3.559,2.925-4.213l5.043-1.694
		c0.102-0.034,0.208-0.052,0.316-0.052c0.331,0,0.64,0.162,0.826,0.434c0.246,0.359,0.552,0.665,0.91,0.91
		c0.584,0.4,1.266,0.612,1.973,0.612c1.159,0,2.241-0.569,2.893-1.521c0.186-0.272,0.496-0.435,0.827-0.435
		c0.108,0,0.214,0.017,0.317,0.052l5.03,1.689c0.261,0.088,0.403,0.372,0.315,0.633c-0.069,0.204-0.259,0.341-0.474,0.341l0,0
		c-0.054,0-0.107-0.009-0.158-0.026l-1.638-0.55c-0.831,1.606-2.187,2.889-3.838,3.628C14.231,23.766,13.136,24,12.011,24z
		 M5.858,19.354C7.073,21.578,9.458,23,12.012,23c0.984,0,1.941-0.205,2.845-0.609c1.391-0.622,2.547-1.695,3.28-3.039l-2.426-0.815
		c-0.839,1.225-2.229,1.956-3.719,1.956c-0.909,0-1.786-0.272-2.537-0.786c-0.46-0.315-0.854-0.708-1.169-1.169L5.858,19.354z"/>
	<path d="M12,5.497c-0.276,0-0.5-0.224-0.5-0.5v-1H11c-0.276,0-0.5-0.224-0.5-0.5s0.224-0.5,0.5-0.5h0.5v-0.5
		c0-0.276,0.224-0.5,0.5-0.5c0.276,0,0.5,0.224,0.5,0.5v0.5H13c0.276,0,0.5,0.224,0.5,0.5s-0.224,0.5-0.5,0.5h-0.5v1
		C12.5,5.273,12.276,5.497,12,5.497z"/>
	<path d="M23.5,23.997c-0.276,0-0.5-0.224-0.5-0.5v-10c0-0.827-0.673-1.5-1.5-1.5s-1.5,0.673-1.5,1.5c0,0.552,0.448,1,1,1
		c0.827,0,1.5,0.673,1.5,1.5s-0.673,1.5-1.5,1.5c-0.276,0-0.5-0.224-0.5-0.5s0.224-0.5,0.5-0.5s0.5-0.224,0.5-0.5
		s-0.224-0.5-0.5-0.5c-1.103,0-2-0.897-2-2c0-1.379,1.122-2.5,2.5-2.5s2.5,1.121,2.5,2.5v10C24,23.773,23.776,23.997,23.5,23.997z"
		/>
</g>
</svg>
