<?xml version="1.0" encoding="utf-8"?>
<!-- Generator: Adobe Illustrator 22.1.0, SVG Export Plug-In . SVG Version: 6.00 Build 0)  -->
<svg version="1.1" id="Layer_1" xmlns="http://www.w3.org/2000/svg" xmlns:xlink="http://www.w3.org/1999/xlink" x="0px" y="0px"
	 viewBox="0 0 24 24" style="enable-background:new 0 0 24 24;" xml:space="preserve">
<g>
	<title>trip-destination</title>
	<path d="M5.586,21.202c-0.225,0-0.445-0.077-0.621-0.217c-0.06-0.048-0.114-0.102-0.161-0.161C3.359,19.007,0,14.519,0,12.09
		c-0.001-1.492,0.58-2.896,1.635-3.952C2.69,7.082,4.093,6.501,5.586,6.5c3.085,0,5.592,2.507,5.592,5.588
		c0,2.451-3.363,6.927-4.809,8.737C6.179,21.064,5.893,21.202,5.586,21.202z M5.586,7.5c-1.225,0-2.377,0.478-3.244,1.345
		C1.476,9.712,1,10.864,1,12.09c0,1.727,2.369,5.323,4.586,8.112c2.22-2.779,4.592-6.37,4.592-8.112c0-2.531-2.058-4.59-4.588-4.59
		L5.586,7.25L5.586,7.5z"/>
	<path d="M5.591,14.499c-1.328,0-2.409-1.081-2.409-2.409c0-1.328,1.08-2.408,2.408-2.409c0.645,0,1.249,0.25,1.703,0.704
		C7.748,10.839,7.999,11.443,8,12.087C8,13.418,6.919,14.499,5.591,14.499z M5.59,10.681c-0.777,0-1.408,0.632-1.408,1.409
		c0,0.777,0.632,1.409,1.409,1.409C6.368,13.499,7,12.867,7,12.09c-0.001-0.778-0.632-1.409-1.408-1.409l-0.002-0.25L5.59,10.681z"
		/>
	<path d="M5.59,23.5c-0.276,0-0.5-0.224-0.5-0.5s0.224-0.5,0.5-0.5h7.91c0.276,0,0.5-0.224,0.5-0.5v-7c0-0.827,0.673-1.5,1.5-1.5h4
		c0.276,0,0.5,0.224,0.5,0.5s-0.224,0.5-0.5,0.5h-4c-0.276,0-0.5,0.224-0.5,0.5v7c0,0.827-0.673,1.5-1.5,1.5H5.59z"/>
	<path d="M19.499,12.204c-0.227,0-0.441-0.075-0.619-0.216c-0.059-0.047-0.114-0.101-0.162-0.161C17.329,10.072,15,6.854,15,5
		c0-2.481,2.019-4.5,4.5-4.5S24,2.519,24,5c0,1.85-2.328,5.07-3.716,6.824c-0.166,0.21-0.404,0.342-0.669,0.373
		C19.576,12.202,19.537,12.204,19.499,12.204z M19.5,1.5C17.57,1.5,16,3.07,16,5c0,1.314,1.808,4.066,3.5,6.204
		C21.192,9.065,23,6.312,23,5C23,3.07,21.43,1.5,19.5,1.5z"/>
	<path d="M19.5,7c-1.103,0-2-0.897-2-2s0.897-2,2-2s2,0.897,2,2S20.603,7,19.5,7z M19.5,4c-0.552,0-1,0.449-1,1s0.448,1,1,1
		s1-0.449,1-1S20.052,4,19.5,4z"/>
</g>
</svg>
