<?xml version="1.0" encoding="utf-8"?>
<!-- Generator: Adobe Illustrator 22.1.0, SVG Export Plug-In . SVG Version: 6.00 Build 0)  -->
<svg version="1.1" id="Layer_1" xmlns="http://www.w3.org/2000/svg" xmlns:xlink="http://www.w3.org/1999/xlink" x="0px" y="0px"
	 viewBox="0 0 24 24" style="enable-background:new 0 0 24 24;" xml:space="preserve">
<g>
	<title>trip-pin-multiple</title>
	<path d="M12.497,13.965c-1.516,0-2.75-1.234-2.75-2.75c0-1.516,1.234-2.75,2.75-2.75s2.75,1.234,2.75,2.75
		C15.247,12.732,14.013,13.965,12.497,13.965z M12.497,9.465c-0.965,0-1.75,0.785-1.75,1.75s0.785,1.75,1.75,1.75
		c0.965,0,1.75-0.785,1.75-1.75S13.462,9.465,12.497,9.465z"/>
	<path d="M12.497,23.979c-0.276,0-0.5-0.224-0.5-0.5V22.14c0-1.25-1.18-3.018-2.321-4.727c-0.984-1.474-1.998-2.992-2.432-4.397
		c-0.624,1.038-1.231,2.22-1.243,3.098c0.001,0.009,0.002,0.018,0.002,0.027v1.339c0,0.276-0.224,0.5-0.5,0.5s-0.5-0.224-0.5-0.5
		v-1.308C5.002,16.16,5.001,16.15,5.001,16.14c0-1.25-1.18-3.018-2.321-4.728C1.55,9.72,0.382,7.97,0.095,6.401
		C-0.224,5.069,0.001,3.675,0.73,2.49c0.73-1.186,1.875-2.016,3.225-2.339C4.353,0.057,4.76,0.009,5.165,0.009
		c0.113,0,0.225,0.004,0.338,0.011c0.113-0.007,0.225-0.011,0.337-0.011c2.716,0,4.997,2.122,5.193,4.83
		c0.032,0.439,0.008,0.878-0.071,1.31c0.393-0.093,0.796-0.14,1.2-0.14c0.111,0,0.222,0.004,0.332,0.011
		c0.1-0.006,0.198-0.009,0.297-0.009c0.075,0,0.15,0.002,0.227,0.005c-0.417-2.646,1.29-5.232,3.934-5.864
		c0.396-0.095,0.802-0.143,1.209-0.143c0.111,0,0.222,0.004,0.334,0.011c0.115-0.007,0.229-0.011,0.344-0.011
		c1.248,0,2.456,0.451,3.402,1.27c1.052,0.91,1.686,2.175,1.785,3.562c0.039,0.533-0.005,1.067-0.129,1.587
		c-0.215,1.29-1.286,2.92-2.421,4.646c-1.212,1.843-2.464,3.748-2.48,5.042c0.001,0.008,0.001,0.017,0.001,0.025v1.339
		c0,0.276-0.224,0.5-0.5,0.5s-0.5-0.224-0.5-0.5v-1.293c-0.089-0.752-0.317-1.494-0.666-2.172c-0.467,0.949-1.143,1.978-1.853,3.058
		c-1.22,1.856-2.481,3.775-2.481,5.069v1.339C12.997,23.755,12.773,23.979,12.497,23.979z M7.99,11.748
		c0.021,0.165,0.047,0.312,0.079,0.447c0.255,1.392,1.365,3.054,2.438,4.662c0.778,1.166,1.519,2.276,1.988,3.316
		c0.509-1.159,1.34-2.423,2.147-3.651c1.028-1.565,2.089-3.179,2.276-4.294c0.001-0.005,0.005-0.026,0.006-0.031
		c0.101-0.424,0.136-0.856,0.105-1.287c-0.134-1.84-1.476-3.392-3.273-3.796c-0.033,0.007-0.066,0.01-0.1,0.01
		c-0.092,0-0.183-0.027-0.263-0.076c-0.193-0.026-0.385-0.039-0.572-0.039c-0.097,0-0.194,0.003-0.292,0.011
		c-0.006,0-0.03,0.001-0.036,0.001L12.462,7.02c-0.102-0.007-0.201-0.011-0.301-0.011c-0.328,0-0.657,0.039-0.977,0.115
		c-0.192,0.046-0.39,0.111-0.605,0.199c-0.079,0.071-0.178,0.115-0.285,0.125c-1.512,0.75-2.442,2.37-2.326,4.056
		C7.996,11.583,8.004,11.666,7.99,11.748z M5.165,1.009c-0.328,0-0.656,0.039-0.977,0.115C3.097,1.385,2.171,2.057,1.582,3.016
		s-0.77,2.088-0.509,3.179c0.255,1.392,1.365,3.054,2.438,4.662c0.776,1.163,1.516,2.271,1.986,3.312
		c0.346-0.788,0.848-1.629,1.473-2.601C6.826,9.477,7.97,7.484,9.847,6.552c0.034-0.119,0.06-0.227,0.078-0.329
		c0.106-0.444,0.142-0.881,0.111-1.312C9.878,2.723,8.038,1.009,5.847,1.009c-0.102,0-0.205,0.004-0.308,0.011
		c-0.006,0-0.03,0.001-0.036,0.001L5.47,1.02C5.367,1.013,5.266,1.009,5.165,1.009z M17.8,12.846
		c0.279,0.417,0.512,0.857,0.699,1.314c0.509-1.154,1.336-2.412,2.14-3.636c1.028-1.564,2.091-3.18,2.278-4.296
		c0.106-0.449,0.143-0.886,0.112-1.316c-0.081-1.12-0.593-2.142-1.443-2.878c-0.765-0.662-1.739-1.026-2.743-1.026
		c-0.103,0-0.208,0.004-0.312,0.011c-0.006,0-0.031,0.001-0.038,0.001L18.46,1.02c-0.1-0.007-0.199-0.011-0.299-0.011
		c-0.327,0-0.656,0.039-0.976,0.115c-2.245,0.536-3.64,2.791-3.124,5.036c2.183,0.532,3.804,2.433,3.967,4.678
		c0.039,0.531-0.004,1.063-0.127,1.581C17.879,12.546,17.845,12.69,17.8,12.846z"/>
	<path d="M18.497,7.965c-1.516,0-2.75-1.234-2.75-2.75s1.234-2.75,2.75-2.75s2.75,1.234,2.75,2.75S20.013,7.965,18.497,7.965z
		 M18.497,3.465c-0.965,0-1.75,0.785-1.75,1.75s0.785,1.75,1.75,1.75s1.75-0.785,1.75-1.75S19.462,3.465,18.497,3.465z"/>
	<path d="M5.503,7.965c-1.516,0-2.75-1.234-2.75-2.75s1.234-2.75,2.75-2.75s2.75,1.234,2.75,2.75S7.019,7.965,5.503,7.965z
		 M5.503,3.465c-0.965,0-1.75,0.785-1.75,1.75s0.785,1.75,1.75,1.75s1.75-0.785,1.75-1.75S6.468,3.465,5.503,3.465z"/>
</g>
</svg>
