<?xml version="1.0" encoding="utf-8"?>
<!-- Generator: Adobe Illustrator 22.1.0, SVG Export Plug-In . SVG Version: 6.00 Build 0)  -->
<svg version="1.1" id="Layer_1" xmlns="http://www.w3.org/2000/svg" xmlns:xlink="http://www.w3.org/1999/xlink" x="0px" y="0px"
	 viewBox="0 0 24 24" style="enable-background:new 0 0 24 24;" xml:space="preserve">
<g>
	<title>trip-road-circle</title>
	<path d="M12,24c-3.902,0-7.572-1.914-9.824-5.121c-0.061-0.053-0.109-0.121-0.139-0.198C0.704,16.701,0,14.391,0,12
		C0,5.383,5.383,0,12,0c6.617,0,12,5.383,12,12C24,18.617,18.617,24,12,24z M3.038,18.367C5.107,21.27,8.449,23,12,23
		c6.065,0,11-4.935,11-11c0-0.619-0.054-1.243-0.16-1.86c-0.095,0.12-0.24,0.19-0.393,0.19c-0.104,0-0.204-0.032-0.289-0.092
		c-0.109-0.077-0.181-0.192-0.204-0.323c-0.022-0.132,0.008-0.264,0.085-0.373c0.242-0.343,0.411-0.604,0.488-0.726
		C21.13,4.208,16.818,1,12,1C5.935,1,1,5.935,1,12c0,1.835,0.458,3.634,1.329,5.237c0.091-0.135,0.246-0.222,0.415-0.222
		c0.048,0,0.096,0.007,0.142,0.021c0.128,0.038,0.234,0.123,0.297,0.241c0.064,0.117,0.078,0.252,0.04,0.381
		C3.137,17.948,3.077,18.192,3.038,18.367z"/>
	<path d="M19.931,13.185c-0.142,0-0.278-0.061-0.373-0.167c-0.184-0.206-0.165-0.523,0.04-0.706
		c0.454-0.405,0.887-0.843,1.285-1.302c0.095-0.109,0.232-0.172,0.377-0.172c0.121,0,0.237,0.044,0.328,0.123
		c0.101,0.087,0.161,0.209,0.171,0.342c0.009,0.133-0.034,0.262-0.121,0.363c-0.426,0.491-0.888,0.959-1.375,1.393
		C20.171,13.14,20.053,13.185,19.931,13.185z"/>
	<path d="M16.687,14.969c-0.236,0-0.442-0.168-0.49-0.399c-0.056-0.27,0.119-0.535,0.389-0.591c0.559-0.115,1.09-0.322,1.579-0.615
		c0.078-0.046,0.167-0.071,0.257-0.071c0.175,0,0.339,0.093,0.429,0.243c0.069,0.114,0.088,0.249,0.056,0.378
		s-0.114,0.239-0.228,0.307c-0.585,0.351-1.221,0.599-1.891,0.737C16.753,14.966,16.719,14.969,16.687,14.969z"/>
	<path d="M14.784,14.965c-0.031,0-0.061-0.003-0.093-0.009c-0.637-0.118-1.268-0.297-1.873-0.533c-0.257-0.1-0.385-0.39-0.285-0.647
		c0.073-0.191,0.261-0.319,0.466-0.319c0.062,0,0.124,0.012,0.182,0.035c0.545,0.212,1.115,0.374,1.693,0.481
		c0.131,0.024,0.245,0.098,0.321,0.208c0.076,0.11,0.104,0.243,0.08,0.375C15.232,14.793,15.025,14.965,14.784,14.965z"/>
	<path d="M11.207,13.744c-0.066,0-0.129-0.012-0.19-0.037c-0.552-0.226-1.125-0.417-1.702-0.568
		c-0.129-0.034-0.238-0.116-0.305-0.231c-0.067-0.115-0.086-0.25-0.052-0.379c0.057-0.22,0.256-0.374,0.484-0.374
		c0.042,0,0.084,0.005,0.125,0.016c0.621,0.162,1.236,0.367,1.829,0.61c0.255,0.104,0.378,0.397,0.274,0.652
		C11.592,13.622,11.411,13.744,11.207,13.744z"/>
	<path d="M5.762,13.424c-0.18,0-0.346-0.097-0.435-0.253c-0.066-0.116-0.083-0.251-0.047-0.38c0.036-0.129,0.119-0.236,0.235-0.302
		c0.439-0.249,0.914-0.412,1.413-0.484c0.2-0.029,0.406-0.048,0.615-0.057c0,0,0,0,0,0c0.287,0,0.509,0.21,0.521,0.478
		c0.006,0.133-0.041,0.261-0.131,0.359c-0.09,0.099-0.214,0.156-0.347,0.162c-0.174,0.007-0.347,0.023-0.516,0.048
		c-0.375,0.054-0.732,0.177-1.062,0.364C5.934,13.401,5.849,13.424,5.762,13.424z"/>
	<path d="M3.4,16.263c-0.072,0-0.142-0.015-0.208-0.045c-0.251-0.115-0.361-0.413-0.247-0.663c0.273-0.596,0.614-1.162,1.013-1.682
		c0.096-0.125,0.24-0.196,0.397-0.196c0.111,0,0.216,0.035,0.303,0.103c0.219,0.168,0.26,0.482,0.093,0.701
		c-0.353,0.46-0.655,0.962-0.897,1.49C3.773,16.149,3.595,16.263,3.4,16.263z"/>
	<path d="M14.999,12.701c-0.223,0-0.442-0.076-0.617-0.214c-0.062-0.048-0.118-0.105-0.167-0.167
		c-1.363-1.736-2.987-4.107-2.987-5.548c0-1.007,0.392-1.955,1.104-2.667C13.043,3.393,13.99,3,14.998,3
		c2.082,0,3.775,1.693,3.775,3.773c0,1.441-1.624,3.812-2.987,5.547C15.595,12.562,15.308,12.701,14.999,12.701z M14.998,4
		c-0.74,0-1.436,0.289-1.96,0.812s-0.812,1.22-0.811,1.96c0,0.862,1.062,2.751,2.773,4.929c1.71-2.179,2.773-4.068,2.773-4.929
		C17.773,5.244,16.529,4,15,4l-0.002-0.25V4z"/>
	<path d="M15,8.5c-0.952,0-1.727-0.775-1.727-1.727S14.048,5.046,15,5.046s1.727,0.775,1.727,1.727S15.952,8.5,15,8.5z M15,6.046
		c-0.401,0-0.727,0.326-0.727,0.727S14.599,7.5,15,7.5s0.727-0.326,0.727-0.727S15.401,6.046,15,6.046z"/>
</g>
</svg>
