<?xml version="1.0" encoding="utf-8"?>
<!-- Generator: Adobe Illustrator 22.1.0, SVG Export Plug-In . SVG Version: 6.00 Build 0)  -->
<svg version="1.1" id="Layer_1" xmlns="http://www.w3.org/2000/svg" xmlns:xlink="http://www.w3.org/1999/xlink" x="0px" y="0px"
	 viewBox="0 0 24 24" style="enable-background:new 0 0 24 24;" xml:space="preserve">
<g>
	<title>trip-distance</title>
	<path d="M19.94,11.929c-0.225,0-0.438-0.074-0.615-0.213c-0.064-0.05-0.121-0.108-0.171-0.171
		c-1.362-1.732-2.986-4.101-2.986-5.545c-0.001-2.08,1.69-3.774,3.771-3.775c2.083,0.001,3.777,1.694,3.777,3.775
		c0,1.441-1.624,3.812-2.987,5.547c-0.165,0.21-0.401,0.343-0.666,0.375C20.022,11.927,19.981,11.929,19.94,11.929z M19.94,3.224
		c-1.529,0.001-2.772,1.246-2.771,2.775c0,0.864,1.063,2.753,2.773,4.929c1.711-2.178,2.774-4.067,2.774-4.929
		c0-1.53-1.245-2.774-2.774-2.775l-0.002-0.25L19.94,3.224z"/>
	<path d="M19.941,7.727c-0.952,0-1.727-0.775-1.727-1.727s0.775-1.727,1.727-1.727c0.462,0,0.895,0.179,1.22,0.504
		c0.326,0.326,0.506,0.759,0.507,1.22C21.668,6.952,20.894,7.727,19.941,7.727z M19.942,5.273c-0.401,0-0.727,0.326-0.727,0.727
		s0.326,0.727,0.727,0.727s0.727-0.326,0.727-0.727c0-0.196-0.076-0.378-0.213-0.515C20.318,5.348,20.136,5.273,19.942,5.273
		L19.942,5.273z"/>
	<path d="M4.938,21.774c-0.18,0-0.358-0.049-0.513-0.142c-0.136-0.082-0.252-0.196-0.336-0.331
		c-0.993-1.608-3.343-5.574-3.726-7.667c-0.269-1.128-0.078-2.31,0.542-3.315c0.62-1.006,1.593-1.71,2.739-1.983
		c0.335-0.08,0.68-0.12,1.025-0.12c0.092,0,0.184,0.003,0.276,0.009c0.097-0.006,0.193-0.009,0.288-0.009
		c2.301,0,4.234,1.8,4.4,4.097c0.032,0.45-0.004,0.901-0.108,1.34c-0.307,1.806-2.709,5.944-3.728,7.638
		C5.618,21.588,5.288,21.774,4.938,21.774z M4.668,9.215c-0.266,0-0.533,0.031-0.793,0.093c-1.834,0.437-2.971,2.285-2.534,4.12
		c0.358,1.951,2.635,5.788,3.598,7.347c0.992-1.651,3.328-5.667,3.603-7.314c0.001-0.006,0.005-0.028,0.007-0.034
		c0.082-0.342,0.111-0.693,0.085-1.043c-0.129-1.777-1.623-3.17-3.402-3.17c-0.083,0-0.167,0.003-0.252,0.009
		c-0.006,0-0.064,0-0.064,0C4.83,9.217,4.749,9.215,4.668,9.215z"/>
	<polygon points="7.068,12.633 7.068,12.632 7.068,12.632 	"/>
	<path d="M4.946,15.007c-1.308,0-2.372-1.064-2.373-2.372c0-0.633,0.246-1.229,0.695-1.678c0.448-0.449,1.044-0.696,1.677-0.697
		c1.309,0,2.374,1.064,2.374,2.372c0.001,1.309-1.063,2.374-2.372,2.375H4.946z M4.945,11.26c-0.757,0-1.373,0.617-1.373,1.374
		c0,0.757,0.616,1.373,1.373,1.373c0.758-0.001,1.373-0.617,1.373-1.374C6.318,11.876,5.702,11.261,4.945,11.26L4.945,11.26z"/>
	<path d="M7.942,21.225c-0.17,0-0.327-0.085-0.419-0.227c-0.073-0.112-0.098-0.245-0.07-0.376c0.027-0.131,0.104-0.243,0.216-0.316
		l11.5-7.5c0.082-0.053,0.176-0.081,0.272-0.081c0.17,0,0.326,0.084,0.419,0.227c0.073,0.112,0.098,0.246,0.071,0.376
		c-0.028,0.131-0.104,0.243-0.216,0.316l-11.5,7.5C8.132,21.197,8.038,21.225,7.942,21.225z"/>
</g>
</svg>
