<?xml version="1.0" encoding="utf-8"?>
<!-- Generator: Adobe Illustrator 22.1.0, SVG Export Plug-In . SVG Version: 6.00 Build 0)  -->
<svg version="1.1" id="Light" xmlns="http://www.w3.org/2000/svg" xmlns:xlink="http://www.w3.org/1999/xlink" x="0px" y="0px"
	 viewBox="0 0 24 24" style="enable-background:new 0 0 24 24;" xml:space="preserve">
<g>
	<title>footwear-slippers</title>
	<path d="M2,24c-1.103,0-2-0.897-2-2s0.897-2,2-2h3c-0.002-1.41-0.963-2.611-2.338-2.922c-0.126-0.029-0.243-0.08-0.348-0.154
		c-0.453-0.314-0.566-0.938-0.253-1.391l1.928-2.799c0.032-0.047,0.068-0.09,0.108-0.131c0.191-0.194,0.445-0.301,0.716-0.301
		c0.263,0,0.511,0.101,0.699,0.285c0.935,0.917,2.18,1.422,3.506,1.422c1.21,0,2.373-0.432,3.276-1.215
		c0.181-0.159,0.414-0.247,0.655-0.247c0.153,0,0.306,0.036,0.444,0.104l1.655,0.814c0.247,0.122,0.349,0.422,0.228,0.669L12.396,20
		h3.294l2.077-4.197c0.175-0.346,0.52-0.56,0.902-0.56c0.149,0,0.293,0.032,0.429,0.096c0.002,0.001,1.166,0.557,1.166,0.557
		c0.439,0.239,0.709,0.663,0.735,1.141L21,20h1c1.103,0,2,0.897,2,2s-0.897,2-2,2H2z M2,21c-0.551,0-1,0.448-1,1s0.449,1,1,1h20
		c0.552,0,1-0.448,1-1s-0.448-1-1-1H2z M20,20v-2.937c-0.006-0.105-0.079-0.216-0.191-0.277l-1.135-0.542l-0.004-0.001
		c-0.005,0-0.008,0.005-0.009,0.007L16.805,20H20z M11.282,20l2.876-5.857l-1.208-0.594c-1.084,0.942-2.481,1.46-3.933,1.46
		c-1.59,0-3.083-0.606-4.205-1.706c0,0-0.001,0-0.001,0l-1.928,2.799C4.716,16.517,5.998,18.119,6,20v0H11.282z"/>
	<path d="M19.241,12.003c-0.15,0-0.292-0.067-0.387-0.183c-0.031-0.038-0.063-0.076-0.096-0.113
		c-0.949-1.092-2.326-1.718-3.778-1.718c-1.204,0-2.368,0.434-3.276,1.223c-0.182,0.159-0.415,0.246-0.656,0.246
		c-0.152,0-0.305-0.036-0.442-0.103L9.4,10.756C8.903,10.51,8.699,9.909,8.943,9.415L11.602,4H8.31L6.232,8.197
		c-0.175,0.346-0.52,0.56-0.902,0.56c-0.149,0-0.294-0.032-0.431-0.097C4.897,8.66,3.735,8.104,3.735,8.104
		C3.297,7.866,3.027,7.442,3.001,6.965L3,4H2C0.897,4,0,3.103,0,2s0.897-2,2-2h20c1.103,0,2,0.897,2,2s-0.897,2-2,2h-3
		c-0.001,1.413,0.96,2.617,2.337,2.929c0.125,0.029,0.241,0.079,0.345,0.151c0.454,0.313,0.569,0.937,0.257,1.391l-2.287,3.316
		c-0.089,0.129-0.235,0.209-0.391,0.216C19.258,12.003,19.244,12.003,19.241,12.003z M14.981,8.989c1.575,0,3.09,0.621,4.205,1.714
		l1.93-2.798C19.279,7.489,17.998,5.883,18,4h-5.283L9.84,9.856l1.21,0.602C12.139,9.51,13.535,8.989,14.981,8.989z M4,6.938
		c0.006,0.104,0.079,0.215,0.19,0.276l1.134,0.541L7.194,4H4V6.938z M2,1C1.449,1,1,1.449,1,2s0.449,1,1,1h20c0.552,0,1-0.449,1-1
		s-0.448-1-1-1H2z"/>
</g>
</svg>
