<?xml version="1.0" encoding="utf-8"?>
<!-- Generator: Adobe Illustrator 22.1.0, SVG Export Plug-In . SVG Version: 6.00 Build 0)  -->
<svg version="1.1" id="Light" xmlns="http://www.w3.org/2000/svg" xmlns:xlink="http://www.w3.org/1999/xlink" x="0px" y="0px"
	 viewBox="0 0 24 24" style="enable-background:new 0 0 24 24;" xml:space="preserve">
<g>
	<title>footwear-sneakers-1</title>
	<path d="M22.499,24c-0.276,0-0.5-0.224-0.5-0.5V23h-2v0.5c0,0.276-0.224,0.5-0.5,0.5s-0.5-0.224-0.5-0.5V23h-2v0.5
		c0,0.276-0.224,0.5-0.5,0.5s-0.5-0.224-0.5-0.5V23h-2v0.5c0,0.276-0.224,0.5-0.5,0.5s-0.5-0.224-0.5-0.5V23h-8v0.5
		c0,0.276-0.224,0.5-0.5,0.5s-0.5-0.224-0.5-0.5V23h-2v0.5c0,0.276-0.224,0.5-0.5,0.5s-0.5-0.224-0.5-0.5V23C0.448,23,0,22.551,0,22
		v-1.479C0,20.514-0.001,20.507-0.001,20.5S0,20.486,0,20.479V15.5C0,14.673,0.673,14,1.5,14h0.618c0.38,0,0.733,0.22,0.899,0.562
		C3.208,14.954,4.435,15.5,6,15.5c1.97,0,2.795-0.551,2.955-0.842c0.003-0.006,0.016-0.028,0.02-0.033
		c0.191-0.291,0.514-0.465,0.864-0.465c0.135,0,0.267,0.026,0.393,0.078l1.961,0.7c0.035,0.009,0.068,0.02,0.099,0.036l1.759,0.628
		c0.021,0.006,0.048,0.014,0.077,0.028l8.875,3.169c0.596,0.212,0.996,0.78,0.996,1.413V22c0,0.552-0.448,1-1,1v0.5
		C22.999,23.776,22.775,24,22.499,24z M1,22h21.999v-1H1V22z M22.952,20c-0.055-0.119-0.157-0.214-0.285-0.26l-8.622-3.079
		l-0.692,0.693c-0.094,0.094-0.22,0.146-0.354,0.146s-0.259-0.052-0.354-0.146c-0.094-0.094-0.146-0.219-0.146-0.353
		c0-0.134,0.052-0.26,0.146-0.354l0.357-0.358L12.2,16.002l-0.847,0.851C11.259,16.948,11.133,17,10.999,17
		c-0.133,0-0.258-0.052-0.353-0.146c-0.196-0.195-0.196-0.512-0.002-0.707l0.515-0.517l-1.286-0.459
		c-0.019-0.007-0.027-0.009-0.035-0.009c-0.012,0-0.021,0.004-0.026,0.012C9.341,16.009,7.947,16.5,6,16.5
		c-1.566,0-3.403-0.515-3.882-1.5L1.5,15C1.224,15,1,15.224,1,15.5v1.539C2.52,17.26,3.74,18.48,3.961,20H22.952z M2.949,20
		C2.75,19.019,1.981,18.25,1,18.052V20H2.949z"/>
	<path d="M21.882,10c-0.381,0-0.733-0.221-0.9-0.562C20.791,9.047,19.564,8.5,18,8.5c-1.972,0-2.797,0.55-2.957,0.841
		c-0.004,0.008-0.019,0.031-0.024,0.039c-0.187,0.286-0.51,0.46-0.86,0.46c-0.135,0-0.268-0.026-0.394-0.078l-1.973-0.703
		c-0.028-0.008-0.053-0.017-0.078-0.028l-1.79-0.638C9.917,8.391,9.899,8.385,9.879,8.376L0.995,5.208
		C0.403,4.996,0.003,4.431,0,3.802V3.521C0,3.514-0.001,3.507-0.001,3.5c0-0.007,0-0.014,0.001-0.021V2c0-0.551,0.448-1,0.999-1V0.5
		c0-0.276,0.224-0.5,0.5-0.5s0.5,0.224,0.5,0.5V1h2V0.5c0-0.276,0.224-0.5,0.5-0.5s0.5,0.224,0.5,0.5V1h2V0.5
		c0-0.276,0.224-0.5,0.5-0.5s0.5,0.224,0.5,0.5V1h2V0.5c0-0.276,0.224-0.5,0.5-0.5s0.5,0.224,0.5,0.5V1h8V0.5
		c0-0.276,0.224-0.5,0.5-0.5s0.5,0.224,0.5,0.5V1h2V0.5c0-0.276,0.224-0.5,0.5-0.5s0.5,0.224,0.5,0.5V1H23c0.552,0,1,0.449,1,1v6.5
		c0,0.827-0.673,1.5-1.5,1.5H21.882z M18,7.5c1.564,0,3.399,0.515,3.881,1.499L22.5,9C22.776,9,23,8.776,23,8.5V6.961
		C21.48,6.74,20.26,5.52,20.039,4H1.044c0.055,0.121,0.157,0.219,0.288,0.266l8.62,3.074l0.693-0.694
		C10.74,6.552,10.865,6.5,10.999,6.5c0.134,0,0.259,0.052,0.353,0.146C11.447,6.74,11.499,6.866,11.499,7
		c0,0.134-0.052,0.259-0.146,0.354l-0.359,0.359l0.804,0.287l0.846-0.852C12.74,7.052,12.865,7,12.999,7
		c0.133,0,0.258,0.052,0.352,0.145c0.095,0.094,0.147,0.22,0.148,0.353c0,0.134-0.051,0.259-0.146,0.354L12.839,8.37l1.286,0.459
		c0.02,0.008,0.028,0.01,0.036,0.01c0.012,0,0.021-0.004,0.026-0.012C14.657,7.991,16.052,7.5,18,7.5z M21.052,4
		C21.251,4.981,22.02,5.75,23,5.948V4H21.052z M23,3V2H1l0,1H23z"/>
</g>
</svg>
