<?xml version="1.0" encoding="utf-8"?>
<!-- Generator: Adobe Illustrator 22.1.0, SVG Export Plug-In . SVG Version: 6.00 Build 0)  -->
<svg version="1.1" id="Light" xmlns="http://www.w3.org/2000/svg" xmlns:xlink="http://www.w3.org/1999/xlink" x="0px" y="0px"
	 viewBox="0 0 24 24" style="enable-background:new 0 0 24 24;" xml:space="preserve">
<g>
	<title>footwear-flip-flops</title>
	<path d="M5.873,24c-2.725,0-4.977-2.133-5.126-4.855L0.021,5.8C-0.02,5.044,0.092,4.3,0.355,3.589
		c0.795-2.148,2.87-3.591,5.164-3.591c0.65,0,1.29,0.115,1.904,0.342c2.195,0.863,3.636,3.021,3.59,5.372v13.153
		c-0.002,2.725-2.134,4.977-4.855,5.126C6.063,23.997,5.967,24,5.873,24z M1.745,19.09C1.866,21.282,3.679,23,5.873,23
		c0.076,0,0.153-0.002,0.23-0.006c2.191-0.121,3.908-1.934,3.91-4.129v-7.103l-2.978-4.05C6.724,7.9,6.364,8.002,5.999,8.002
		c-0.457,0-0.901-0.16-1.255-0.446l-3.403,4.091L1.745,19.09z M5.512,0.996c-0.649,0-1.281,0.139-1.879,0.414
		C2.541,1.912,1.71,2.809,1.293,3.936C1.078,4.518,0.986,5.127,1.02,5.746l0.241,4.433l2.874-3.456
		C4.044,6.492,3.999,6.25,3.999,6.002c0-1.103,0.897-2,2-2s2,0.897,2,2c0,0.346-0.089,0.681-0.258,0.98l2.272,3.09V5.702
		C10.05,3.76,8.866,1.983,7.066,1.274C6.567,1.09,6.043,0.996,5.512,0.996z M5.999,5.002c-0.551,0-1,0.449-1,1s0.449,1,1,1
		s1-0.449,1-1S6.55,5.002,5.999,5.002z"/>
	<path d="M18.125,24c-0.094,0-0.19-0.003-0.285-0.008c-2.72-0.149-4.853-2.401-4.854-5.126V5.702
		c-0.045-2.342,1.394-4.498,3.581-5.358c0.62-0.23,1.263-0.345,1.914-0.345c2.293,0,4.368,1.442,5.164,3.589
		c0.263,0.711,0.376,1.456,0.334,2.213l-0.726,13.344C23.101,21.867,20.85,24,18.125,24z M13.985,18.865
		c0.001,2.194,1.719,4.008,3.91,4.128c0.074,0.004,0.147,0.006,0.221,0.006c2.199,0,4.017-1.717,4.137-3.909l0.405-7.443
		l-3.404-4.091c-0.354,0.286-0.799,0.447-1.255,0.447c-0.365,0-0.724-0.102-1.036-0.291l-2.978,4.05V18.865z M22.737,10.179
		l0.241-4.433c0.034-0.62-0.058-1.229-0.273-1.811c-0.651-1.757-2.349-2.937-4.225-2.937c-0.531,0-1.056,0.094-1.558,0.28
		c-1.793,0.706-2.975,2.48-2.938,4.414v4.381l2.272-3.09c-0.169-0.299-0.258-0.635-0.258-0.981c0-1.103,0.897-2,2-2s2,0.897,2,2
		c0,0.248-0.046,0.49-0.136,0.721L22.737,10.179z M17.999,5.002c-0.552,0-1,0.449-1,1s0.448,1,1,1s1-0.449,1-1
		S18.55,5.002,17.999,5.002z"/>
</g>
</svg>
