<?xml version="1.0" encoding="utf-8"?>
<!-- Generator: Adobe Illustrator 22.1.0, SVG Export Plug-In . SVG Version: 6.00 Build 0)  -->
<svg version="1.1" id="Light" xmlns="http://www.w3.org/2000/svg" xmlns:xlink="http://www.w3.org/1999/xlink" x="0px" y="0px"
	 viewBox="0 0 24 24" style="enable-background:new 0 0 24 24;" xml:space="preserve">
<g>
	<title>footwear-sneakers</title>
	<path d="M1,24c-0.551,0-1-0.448-1-1v-1.479C0,21.514-0.001,21.507-0.001,21.5S0,21.486,0,21.479V16.5C0,15.673,0.673,15,1.5,15
		h0.627c0.388,0.006,0.726,0.218,0.886,0.554C3.198,15.95,4.422,16.5,6,16.5c1.971,0,2.796-0.551,2.956-0.842
		c0.204-0.32,0.533-0.503,0.888-0.503c0.129,0,0.256,0.024,0.377,0.072l12.782,4.565c0.595,0.213,0.995,0.78,0.995,1.412V23
		c0,0.552-0.448,1-1,1H1z M1,23h21.999v-1H1V23z M22.955,21c-0.055-0.121-0.157-0.219-0.287-0.265l-4.804-1.716
		c-0.227,0.529-0.723,0.909-1.305,0.978C16.541,19.999,16.521,20,16.5,20h-3c-0.552,0-1,0.448-1,1H22.955z M11.5,21
		c0-1.103,0.897-2,2-2h2.967c0.197-0.031,0.363-0.15,0.455-0.317l-2.873-1.026l-0.697,0.697c-0.094,0.094-0.22,0.146-0.354,0.146
		s-0.259-0.052-0.354-0.146c-0.094-0.094-0.146-0.219-0.146-0.353c0-0.134,0.052-0.26,0.146-0.354l0.362-0.362l-0.803-0.287
		l-0.851,0.855C11.259,17.948,11.133,18,10.999,18c-0.133,0-0.258-0.052-0.353-0.146c-0.196-0.195-0.196-0.512-0.002-0.707
		l0.519-0.521l-1.291-0.461c-0.007-0.002-0.024-0.009-0.03-0.012c-0.009,0.002-0.021,0.006-0.028,0.017
		C9.36,16.997,7.93,17.5,6,17.5c-1.572,0-3.403-0.515-3.882-1.5H1.5C1.224,16,1,16.224,1,16.5v1.539C2.52,18.26,3.74,19.48,3.961,21
		H11.5z M2.949,21C2.75,20.019,1.981,19.25,1,19.052V21H2.949z"/>
	<path d="M21.862,9c-0.369,0-0.712-0.216-0.874-0.551C20.802,8.051,19.576,7.5,18,7.5c-1.97,0-2.796,0.551-2.957,0.842
		c-0.204,0.32-0.533,0.504-0.888,0.504c-0.129,0-0.256-0.024-0.377-0.072c0,0-3.879-1.386-3.88-1.386L0.994,4.207
		C0.403,3.995,0.003,3.43,0,2.803V2.521C0,2.514-0.001,2.507-0.001,2.5c0-0.007,0-0.014,0.001-0.021V1c0-0.551,0.449-1,1-1h22
		c0.552,0,1,0.449,1,1v6.5C24,8.327,23.327,9,22.5,9L21.862,9z M22.5,8C22.776,8,23,7.776,23,7.5V5.961
		C21.48,5.74,20.26,4.52,20.039,3H12.5c0,1.103-0.897,2-2,2H7.534C7.336,5.031,7.17,5.15,7.078,5.318l2.87,1.025l0.698-0.697
		C10.74,5.552,10.866,5.5,10.999,5.5c0.134,0,0.259,0.052,0.354,0.147c0.094,0.094,0.146,0.22,0.146,0.353
		c0,0.134-0.052,0.259-0.147,0.354L10.99,6.716l0.803,0.287l0.852-0.855C12.74,6.052,12.865,6,12.999,6
		c0.133,0,0.259,0.052,0.353,0.146c0.095,0.094,0.147,0.22,0.147,0.353c0,0.134-0.052,0.259-0.146,0.354l-0.519,0.521l1.292,0.462
		l0.031,0.01c0.009,0,0.021-0.004,0.028-0.015C14.641,7.003,16.071,6.5,18,6.5c1.57,0,3.399,0.515,3.881,1.5H22.5z M1.044,3
		c0.055,0.121,0.157,0.219,0.287,0.265l4.805,1.717c0.227-0.529,0.723-0.91,1.306-0.978C7.462,4.001,7.481,4,7.5,4h3
		c0.551,0,1-0.449,1-1H1.044z M21.052,3C21.251,3.981,22.02,4.75,23,4.948V3H21.052z M23,2V1H1l0,1H23z"/>
</g>
</svg>
