<?xml version="1.0" encoding="utf-8"?>
<!-- Generator: Adobe Illustrator 22.1.0, SVG Export Plug-In . SVG Version: 6.00 Build 0)  -->
<svg version="1.1" id="Light" xmlns="http://www.w3.org/2000/svg" xmlns:xlink="http://www.w3.org/1999/xlink" x="0px" y="0px"
	 viewBox="0 0 24 24" style="enable-background:new 0 0 24 24;" xml:space="preserve">
<g>
	<title>footwear-boots-cowboy</title>
	<path d="M10.18,24c-0.443,0-0.838-0.298-0.961-0.724c-0.542-1.889-1.969-3.008-2.97-3.309V23c0,0.552-0.449,1-1,1h-3
		c-0.551,0-1-0.448-1-1V2.5c0-1.727,3.013-2.5,6-2.5s6,0.773,6,2.5c0,0.02-0.001,0.04-0.004,0.06l-1.343,10.71
		c-0.06,0.475,0.113,0.955,0.463,1.282c0.74,0.692,1.751,1.002,2.923,1.362c1.979,0.608,4.442,1.365,6.839,4.328
		c0.402,0.495,0.623,1.12,0.622,1.758c-0.022,0.48-0.248,0.906-0.619,1.179l-0.687,0.459c-0.364,0.219-0.765,0.342-1.171,0.361
		L10.18,24L10.18,24z M9.795,22c0.159,0.326,0.288,0.661,0.385,1l10.068,0c0.218-0.01,0.456-0.083,0.658-0.206l0.648-0.433
		c0.105-0.078,0.179-0.214,0.192-0.361H9.795z M2.249,23h3v-1h-3V23z M21.444,21c-0.03-0.044-0.061-0.087-0.094-0.128
		c-2.205-2.727-4.41-3.404-6.355-4.001c-1.291-0.396-2.405-0.739-3.313-1.588c-0.583-0.546-0.871-1.344-0.772-2.137l1.338-10.67
		c-0.033-0.483-1.064-1.081-2.999-1.344V7c0,1.103-0.897,2-2,2s-2-0.897-2-2V1.131c-1.971,0.268-3,0.88-3,1.369V21h3v-1.616
		c0-0.276,0.224-0.5,0.5-0.5c1.134,0,2.503,0.846,3.441,2.116H21.444z M6.249,7c0,0.551,0.449,1,1,1s1-0.449,1-1V1.033
		C7.912,1.011,7.577,1,7.249,1s-0.663,0.011-1,0.033V7z"/>
</g>
</svg>
