<?xml version="1.0" encoding="utf-8"?>
<!-- Generator: Adobe Illustrator 22.1.0, SVG Export Plug-In . SVG Version: 6.00 Build 0)  -->
<svg version="1.1" id="Light" xmlns="http://www.w3.org/2000/svg" xmlns:xlink="http://www.w3.org/1999/xlink" x="0px" y="0px"
	 viewBox="0 0 24 24" style="enable-background:new 0 0 24 24;" xml:space="preserve">
<g>
	<title>footwear-boots-female</title>
	<path d="M11.703,24c-0.417,0-0.817-0.175-1.1-0.48l-2.349-1.954V22.5c0,0.827-0.673,1.5-1.5,1.5H6.167
		c-0.785,0-1.427-0.586-1.498-1.364l-0.417-4.591c-0.001-0.011-0.001-0.023-0.001-0.035c-0.001-0.023-0.001-0.051,0.004-0.081
		c0.234-1.638,0.429-2.738,0.585-3.622c0.264-1.491,0.409-2.312,0.409-3.96V1c0-0.229,0.155-0.428,0.377-0.485
		C6.96,0.177,8.338,0.004,9.723,0.002C9.732,0.001,9.741,0,9.75,0C9.76,0,9.77,0.001,9.78,0.002
		c1.377,0.001,2.758,0.174,4.094,0.514C14.095,0.572,14.25,0.771,14.25,1c0,4.331-0.969,13.15-1.031,13.71
		c0.032,2.126,0.448,2.996,1.776,3.718c1.163,0.634,2.033,1.065,2.668,1.381c1.644,0.816,2.085,1.035,2.085,2.191
		c0,1.103-0.897,2-2,2H11.703z M5.665,22.546C5.689,22.809,5.898,23,6.162,23h0.592c0.276,0,0.5-0.224,0.5-0.5v-1.766l-1.897-1.578
		L5.665,22.546z M11.27,22.774c0.02,0.016,0.039,0.035,0.057,0.056c0.094,0.108,0.231,0.17,0.376,0.17h6.046c0.552,0,1-0.448,1-1
		c0-0.526,0-0.536-1.53-1.295c-0.639-0.317-1.513-0.75-2.702-1.398c-1.664-0.905-2.265-2.113-2.299-4.613
		c0-0.022,0.001-0.04,0.003-0.058c0.01-0.091,0.971-8.667,1.026-13.241c-0.969-0.22-1.975-0.347-2.997-0.379V15.5
		c0,0.276-0.224,0.5-0.5,0.5s-0.5-0.224-0.5-0.5V1.015c-1.023,0.032-2.03,0.159-3,0.379v8.952c0,1.735-0.151,2.587-0.424,4.132
		c-0.146,0.824-0.326,1.84-0.541,3.316L11.27,22.774z"/>
</g>
</svg>
