<?xml version="1.0" encoding="utf-8"?>
<!-- Generator: Adobe Illustrator 22.1.0, SVG Export Plug-In . SVG Version: 6.00 Build 0)  -->
<svg version="1.1" id="Light" xmlns="http://www.w3.org/2000/svg" xmlns:xlink="http://www.w3.org/1999/xlink" x="0px" y="0px"
	 viewBox="0 0 24 24" style="enable-background:new 0 0 24 24;" xml:space="preserve">
<g>
	<title>brain-head-1</title>
	<path d="M18.655,24c-0.276,0-0.5-0.224-0.5-0.5v-5.389c0-0.16,0.077-0.311,0.206-0.404c2.379-1.735,3.798-4.53,3.795-7.475
		C22.153,7.764,21.19,5.444,19.443,3.7C17.698,1.959,15.38,1,12.915,1C5.918,1,4.187,6.529,2.354,12.382
		C2.183,12.928,2.015,13.466,1.842,14l2.7,0c0.276,0,0.5,0.224,0.5,0.5v3c0,1.378,1.121,2.5,2.5,2.5h1.113
		c0.276,0,0.5,0.224,0.5,0.5v3c0,0.276-0.224,0.5-0.5,0.5s-0.5-0.224-0.5-0.5V21H7.542c-1.93,0-3.5-1.57-3.5-3.5V15h-2.2
		c-0.267,0-0.518-0.104-0.707-0.293C0.946,14.519,0.842,14.268,0.842,14c0-0.105,0.016-0.209,0.048-0.308
		c0.164-0.508,0.324-1.019,0.484-1.529L1.4,12.083C3.259,6.143,5.183,0,12.905,0c2.741,0,5.31,1.063,7.244,2.992
		c1.936,1.932,3.004,4.503,3.007,7.239c0.003,3.17-1.49,6.199-4.001,8.13V23.5C19.155,23.776,18.931,24,18.655,24z"/>
	<path d="M16.658,14.5c-1.629-0.038-3.039-1.013-3.642-2.5c-1.128-0.029-2.182-0.616-2.806-1.557
		c-0.181,0.036-0.365,0.056-0.55,0.058c-1.659,0-3.006-1.346-3.006-3c0-1.621,1.292-2.946,2.9-2.998
		c0.278-0.481,0.692-0.885,1.181-1.147C11.168,3.123,11.655,3,12.144,3c0.95,0,1.83,0.441,2.393,1.19
		c0.246-0.085,0.502-0.143,0.763-0.171C15.423,4.006,15.549,4,15.674,4c1.68,0,3.13,1.231,3.412,2.879
		c0.998,0.826,1.583,2.08,1.569,3.377c0.051,1.53-0.757,2.953-2.111,3.714c-0.073,0.077-0.167,0.128-0.271,0.147
		c-0.005,0.001-0.01,0.002-0.015,0.002c-0.501,0.233-1.035,0.361-1.586,0.381c-0.003,0-0.006,0-0.009,0
		C16.662,14.5,16.66,14.5,16.658,14.5z M13.364,10.98c0.22,0,0.417,0.147,0.479,0.359c0.373,1.262,1.507,2.131,2.823,2.161
		c0.31-0.011,0.625-0.074,0.93-0.187c-0.219-0.778-0.657-1.492-1.248-2.03c-0.099-0.09-0.157-0.213-0.163-0.346
		c-0.006-0.134,0.04-0.262,0.13-0.36c0.094-0.104,0.229-0.163,0.37-0.163c0.125,0,0.245,0.046,0.337,0.13
		c0.676,0.616,1.179,1.392,1.467,2.26c0.758-0.615,1.198-1.56,1.167-2.538c0.01-1.074-0.489-2.087-1.336-2.719
		c-0.111-0.083-0.183-0.209-0.198-0.347c-0.023-0.216-0.077-0.43-0.159-0.637l-0.151,0.038c-0.795,0.198-1.423,0.78-1.681,1.556
		C16.061,8.363,15.871,8.5,15.655,8.5c-0.054,0-0.107-0.009-0.158-0.026c-0.261-0.087-0.403-0.37-0.316-0.632
		c0.346-1.038,1.157-1.831,2.191-2.155C16.915,5.251,16.304,5,15.673,5c-0.088,0-0.177,0.005-0.266,0.015
		c-0.294,0.032-0.576,0.115-0.84,0.247c-0.07,0.035-0.147,0.053-0.224,0.053c-0.184,0-0.353-0.101-0.441-0.263
		C13.555,4.403,12.882,4,12.144,4c-0.325,0-0.648,0.082-0.936,0.236c-0.399,0.214-0.716,0.561-0.893,0.979
		C10.237,5.4,10.056,5.52,9.855,5.52c-0.059,0-0.116-0.007-0.174-0.016L9.651,5.5c-1.098,0-1.995,0.897-1.995,2s0.897,2,2,2
		c0.131-0.001,0.266-0.018,0.401-0.049l0.213-0.654c0.261-0.801,0.808-1.473,1.54-1.89l0.601-0.342
		C12.485,6.522,12.57,6.5,12.656,6.5c0.18,0,0.347,0.097,0.435,0.253c0.066,0.116,0.083,0.251,0.047,0.379s-0.119,0.236-0.235,0.302
		l-0.6,0.341c-0.515,0.294-0.9,0.767-1.084,1.331l-0.226,0.694C11.441,10.544,12.242,11,13.108,11l0,0
		c0.039,0,0.074-0.003,0.106-0.007c0.038-0.005,0.075-0.01,0.114-0.012C13.335,10.981,13.358,10.98,13.364,10.98z"/>
</g>
</svg>
