<?xml version="1.0" encoding="utf-8"?>
<!-- Generator: Adobe Illustrator 22.1.0, SVG Export Plug-In . SVG Version: 6.00 Build 0)  -->
<svg version="1.1" id="Light" xmlns="http://www.w3.org/2000/svg" xmlns:xlink="http://www.w3.org/1999/xlink" x="0px" y="0px"
	 viewBox="0 0 24 24" style="enable-background:new 0 0 24 24;" xml:space="preserve">
<g>
	<title>brain-network</title>
	<path d="M17.281,24c-0.276,0-0.5-0.224-0.5-0.5v-3.468c0-0.18,0.097-0.346,0.254-0.435c2.222-1.255,3.55-3.62,3.466-6.17
		c0.004-1.645-0.502-3.206-1.464-4.523c-0.163-0.223-0.114-0.536,0.109-0.699c0.086-0.063,0.188-0.096,0.295-0.096
		c0.159,0,0.31,0.077,0.404,0.205c1.089,1.489,1.661,3.252,1.656,5.097c0.093,2.8-1.329,5.436-3.719,6.906V23.5
		C17.781,23.776,17.557,24,17.281,24z"/>
	<path d="M8.6,24c-0.276,0-0.5-0.224-0.5-0.5v-1.102c-1.385-0.02-2.284-0.183-2.966-0.866c-0.703-0.703-0.792-2.763-0.77-4.093
		C4.304,17.439,4.24,17.44,4.174,17.44c-0.2,0-0.415-0.003-0.611-0.013c-0.347-0.01-0.669-0.181-0.879-0.469
		c-0.02-0.028-0.037-0.057-0.051-0.087c-0.108-0.235-0.155-0.496-0.135-0.755c-0.048-0.978,0.634-2.117,1.182-3.033
		c0.198-0.331,0.567-0.946,0.576-1.102c-0.004-0.866,0.157-1.715,0.479-2.522C4.812,9.266,4.994,9.143,5.2,9.143
		c0.064,0,0.126,0.012,0.186,0.036C5.509,9.228,5.607,9.323,5.66,9.445c0.053,0.123,0.055,0.259,0.005,0.383
		c-0.274,0.688-0.411,1.411-0.407,2.151c0,0.417-0.301,0.92-0.718,1.616c-0.485,0.811-1.089,1.819-1.04,2.492
		c0.002,0.03,0.001,0.06-0.002,0.09c-0.008,0.074,0,0.149,0.023,0.219c0.024,0.019,0.053,0.03,0.083,0.03
		c0.182,0.009,0.379,0.012,0.563,0.012c0.319,0,0.6-0.009,0.676-0.011c0.003,0,0.029-0.001,0.029-0.001
		c0.143,0,0.271,0.054,0.364,0.148c0.098,0.098,0.151,0.235,0.144,0.375c-0.075,1.573,0.092,3.505,0.462,3.875
		C6.276,21.26,6.914,21.4,8.465,21.4l0.132,0c0.155,0.011,0.27,0.061,0.355,0.145C9.048,21.64,9.1,21.766,9.1,21.9v1.6
		C9.1,23.776,8.876,24,8.6,24z"/>
	<path d="M12,13.5c-1.103,0-2-0.897-2-2c0-0.913,0.631-1.709,1.5-1.934V4H10C9.173,4,8.5,4.673,8.5,5.5v0.066
		C9.369,5.791,10,6.587,10,7.5c0,1.103-0.897,2-2,2s-2-0.897-2-2c0-0.913,0.631-1.709,1.5-1.934V5.5C7.5,4.121,8.622,3,10,3h1.5V0.5
		C11.5,0.224,11.724,0,12,0c0.276,0,0.5,0.224,0.5,0.5V3H14c1.378,0,2.5,1.121,2.5,2.5v0.066C17.369,5.791,18,6.587,18,7.5
		c0,1.103-0.897,2-2,2s-2-0.897-2-2c0-0.913,0.631-1.709,1.5-1.934V5.5C15.5,4.673,14.827,4,14,4h-1.5v5.566
		C13.369,9.791,14,10.587,14,11.5C14,12.603,13.103,13.5,12,13.5z M12,10.5c-0.551,0-1,0.449-1,1s0.449,1,1,1c0.552,0,1-0.449,1-1
		S12.552,10.5,12,10.5z M16,6.5c-0.552,0-1,0.449-1,1s0.448,1,1,1s1-0.449,1-1S16.552,6.5,16,6.5z M8,6.5c-0.551,0-1,0.449-1,1
		s0.449,1,1,1s1-0.449,1-1S8.552,6.5,8,6.5z"/>
</g>
</svg>
