<?xml version="1.0" encoding="utf-8"?>
<!-- Generator: Adobe Illustrator 22.1.0, SVG Export Plug-In . SVG Version: 6.00 Build 0)  -->
<svg version="1.1" id="Light" xmlns="http://www.w3.org/2000/svg" xmlns:xlink="http://www.w3.org/1999/xlink" x="0px" y="0px"
	 viewBox="0 0 24 24" style="enable-background:new 0 0 24 24;" xml:space="preserve">
<g>
	<title>biking-helmet-person</title>
	<path d="M4,23.991c-2.206,0-4-1.794-4-4s1.794-4,4-4s4,1.794,4,4S6.206,23.991,4,23.991z M4,16.991c-1.654,0-3,1.346-3,3
		s1.346,3,3,3s3-1.346,3-3S5.654,16.991,4,16.991z"/>
	<path d="M18.966,15.367c-0.207,0-0.394-0.13-0.468-0.323l-1.497-3.938c-0.048-0.125-0.043-0.261,0.011-0.382
		c0.055-0.122,0.154-0.215,0.279-0.263c0.058-0.022,0.117-0.033,0.178-0.033c0.207,0,0.395,0.13,0.468,0.323l0.952,2.505
		c0.271-0.034,0.546-0.051,0.82-0.051c1.035,0,2.063,0.247,2.974,0.713c0.119,0.061,0.207,0.164,0.248,0.291s0.03,0.263-0.031,0.382
		c-0.086,0.168-0.257,0.272-0.445,0.272c-0.079,0-0.158-0.019-0.228-0.055c-0.769-0.394-1.641-0.602-2.519-0.602
		c-0.15,0-0.3,0.006-0.45,0.018l0.177,0.466c0.098,0.258-0.032,0.547-0.29,0.645C19.087,15.356,19.027,15.367,18.966,15.367z"/>
	<path d="M20,23.991c-2.206,0-4-1.794-4-4s1.794-4,4-4s4,1.794,4,4S22.206,23.991,20,23.991z M20,16.991c-1.654,0-3,1.346-3,3
		s1.346,3,3,3s3-1.346,3-3S21.654,16.991,20,16.991z"/>
	<path d="M14.038,19.45c-0.128,0-0.25-0.048-0.343-0.136c-0.2-0.189-0.209-0.506-0.021-0.707l1.78-1.887
		c0.448-0.475,0.69-1.097,0.681-1.75v-0.325l-2.539,0.98c-0.057,0.022-0.117,0.033-0.179,0.033c-0.206,0-0.394-0.129-0.467-0.322
		c-0.048-0.124-0.044-0.26,0.01-0.382s0.153-0.216,0.278-0.263l2.539-0.973c0.115-0.044,0.236-0.067,0.358-0.067
		c0.14,0,0.277,0.029,0.406,0.087c0.244,0.109,0.431,0.306,0.526,0.555c0.042,0.11,0.065,0.226,0.066,0.345v0.325
		c0.013,0.909-0.326,1.777-0.953,2.443l-1.78,1.887C14.307,19.393,14.175,19.45,14.038,19.45z"/>
	<path d="M11.643,6.491c-0.191,0-0.382-0.02-0.57-0.059c-0.566-0.117-1.066-0.396-1.457-0.812C9.543,5.645,9.47,5.659,9.397,5.661
		c0,0-0.001,0-0.001,0c-0.231,0-0.424-0.09-0.569-0.253C8.25,4.766,7.958,3.936,8.005,3.071c0.047-0.865,0.427-1.659,1.07-2.237
		c0.594-0.534,1.362-0.828,2.163-0.828c0.92,0,1.8,0.392,2.413,1.074c0.425,0.474,0.696,1.047,0.79,1.671h1.06
		c0.276,0,0.5,0.224,0.5,0.5s-0.224,0.5-0.5,0.5h-1.078c-0.016,0.923-0.483,1.773-1.255,2.281
		C12.71,6.333,12.184,6.491,11.643,6.491z M10.389,4.981c0.243,0.24,0.546,0.401,0.887,0.472c0.121,0.025,0.244,0.038,0.366,0.038
		c0.345,0,0.682-0.102,0.975-0.294c0.491-0.322,0.789-0.86,0.804-1.445h-1.918c-0.177,0.033-0.636,0.622-0.832,0.873
		C10.578,4.745,10.483,4.867,10.389,4.981z M11.238,1.007c-0.553,0-1.084,0.203-1.495,0.572C8.882,2.352,8.76,3.646,9.426,4.562
		c0.001,0,0.001-0.001,0.002-0.001c0.146-0.155,0.331-0.391,0.454-0.55c0.482-0.619,0.981-1.259,1.617-1.259h1.924
		c-0.083-0.372-0.26-0.714-0.518-1.003C12.482,1.277,11.874,1.007,11.238,1.007z"/>
	<path d="M10.5,22.491c-1.103,0-2-0.897-2-2v-2.612c0.001-0.8-0.404-1.53-1.084-1.952l-1.009-0.632
		c-0.747-0.364-1.58-0.555-2.408-0.555c-1.106,0-2.174,0.329-3.089,0.952c-0.083,0.057-0.18,0.087-0.281,0.087
		c-0.166,0-0.32-0.082-0.414-0.219c-0.155-0.228-0.096-0.539,0.132-0.695c1.081-0.735,2.344-1.124,3.652-1.124
		c0.219,0,0.44,0.011,0.659,0.033c-0.252-0.592-0.209-1.281,0.144-1.844c0.018-0.029,0.037-0.057,0.056-0.084l3.501-5.001
		c0.307-0.438,0.765-0.73,1.291-0.823c0.116-0.02,0.234-0.031,0.351-0.031c0.41,0,0.806,0.125,1.144,0.362
		c0.24,0.168,0.444,0.391,0.589,0.646l0.76,1.33c0.411,0.716,1.18,1.161,2.007,1.161c1.104,0,2.001,0.897,2.001,2s-0.897,2-2,2
		c-1.721,0-3.361-0.703-4.55-1.94l-0.603,0.863l0.191,0.12c1.859,1.155,2.967,3.154,2.963,5.346v2.611
		C12.5,21.594,11.603,22.491,10.5,22.491z M7.945,15.078c0.975,0.605,1.556,1.653,1.555,2.801v2.612c0,0.552,0.449,1,1,1
		s1-0.448,1-1v-2.612c0.004-1.844-0.928-3.525-2.493-4.497L8.37,12.98c-0.115-0.072-0.197-0.19-0.224-0.324
		c-0.027-0.134,0.003-0.274,0.08-0.385l1.272-1.818c0.091-0.13,0.24-0.21,0.398-0.213c0,0,0,0,0.001,0
		c0.168,0,0.311,0.071,0.406,0.194c0.998,1.289,2.566,2.058,4.196,2.058c0.552,0,1.001-0.449,1.001-1s-0.448-1-1-1
		c-1.185,0-2.286-0.638-2.876-1.664l-0.76-1.331c-0.073-0.127-0.175-0.239-0.294-0.323C10.4,7.055,10.203,6.992,9.998,6.992
		c-0.059,0-0.118,0.005-0.176,0.016C9.559,7.054,9.33,7.2,9.177,7.419l-3.5,5l-0.029,0.044c-0.141,0.225-0.185,0.492-0.125,0.753
		s0.217,0.482,0.443,0.624l0.937,0.587l0.011,0.003c0.02,0.009,0.04,0.018,0.06,0.028c0.046,0.024,0.088,0.054,0.124,0.091
		L7.945,15.078z"/>
</g>
</svg>
