<?xml version="1.0" encoding="utf-8"?>
<!-- Generator: Adobe Illustrator 22.1.0, SVG Export Plug-In . SVG Version: 6.00 Build 0)  -->
<svg version="1.1" id="Light" xmlns="http://www.w3.org/2000/svg" xmlns:xlink="http://www.w3.org/1999/xlink" x="0px" y="0px"
	 viewBox="0 0 24 24" style="enable-background:new 0 0 24 24;" xml:space="preserve">
<g>
	<title>diet-health</title>
	<path d="M3.5,24C3.224,24,3,23.776,3,23.5V8.95C1.3,8.635,0,6.734,0,4.5C0,2.019,1.57,0,3.5,0S7,2.019,7,4.5
		c0,2.234-1.3,4.135-3,4.45V23.5C4,23.776,3.776,24,3.5,24z M3.5,1C2.121,1,1,2.57,1,4.5S2.121,8,3.5,8S6,6.43,6,4.5S4.879,1,3.5,1z
		"/>
	<path d="M19.5,24c-0.276,0-0.5-0.224-0.5-0.5V9.03c-2.261-0.251-4-2.169-4-4.467v-4c0-0.276,0.224-0.5,0.5-0.5s0.5,0.224,0.5,0.5v4
		c0,1.744,1.298,3.215,3,3.46V0.5C19,0.224,19.224,0,19.5,0S20,0.224,20,0.5v7.523c1.702-0.245,3-1.716,3-3.46v-4
		c0-0.276,0.224-0.5,0.5-0.5s0.5,0.224,0.5,0.5v4c0,2.298-1.739,4.216-4,4.467V23.5C20,23.776,19.776,24,19.5,24z"/>
	<path d="M10,20c-0.551,0-1-0.448-1-1v-2H7c-0.551,0-1-0.448-1-1v-3c0-0.552,0.449-1,1-1h2v-2c0-0.551,0.449-1,1-1h3
		c0.552,0,1,0.449,1,1v2h2c0.552,0,1,0.448,1,1v3c0,0.552-0.448,1-1,1h-2v2c0,0.552-0.448,1-1,1H10z M7,16h2.5
		c0.276,0,0.5,0.224,0.5,0.5V19h3v-2.5c0-0.276,0.224-0.5,0.5-0.5H16v-3h-2.5c-0.276,0-0.5-0.224-0.5-0.5V10h-3v2.5
		c0,0.276-0.224,0.5-0.5,0.5H7L7,16z"/>
</g>
</svg>
