<?xml version="1.0" encoding="utf-8"?>
<!-- Generator: Adobe Illustrator 22.1.0, SVG Export Plug-In . SVG Version: 6.00 Build 0)  -->
<svg version="1.1" id="Light" xmlns="http://www.w3.org/2000/svg" xmlns:xlink="http://www.w3.org/1999/xlink" x="0px" y="0px"
	 viewBox="0 0 24 24" style="enable-background:new 0 0 24 24;" xml:space="preserve">
<g>
	<title>steampunk-decoration</title>
	<path d="M12,24C5.383,24,0,18.617,0,12C0,5.383,5.383,0,12,0c6.617,0,12,5.383,12,12C24,18.617,18.617,24,12,24z M12,1
		C5.935,1,1,5.935,1,12s4.935,11,11,11s11-4.935,11-11S18.065,1,12,1z"/>
	<path d="M19.378,13.852c-0.03,0-0.061-0.003-0.092-0.009c-0.13-0.024-0.244-0.098-0.32-0.208c-0.076-0.11-0.104-0.243-0.08-0.374
		c0.096-0.525,0.132-1.062,0.107-1.596c-0.179-3.738-3.248-6.666-6.987-6.666c-0.112,0-0.226,0.003-0.339,0.008c0,0,0,0-0.001,0
		c-0.287,0-0.51-0.209-0.523-0.475c-0.006-0.134,0.04-0.262,0.129-0.36s0.213-0.157,0.346-0.163c0.13-0.006,0.26-0.009,0.389-0.009
		c4.273,0,7.779,3.346,7.984,7.618c0.029,0.611-0.012,1.225-0.122,1.825C19.826,13.68,19.62,13.852,19.378,13.852z"/>
	<path d="M11.997,20.008c-1.032,0-2.046-0.2-3.014-0.593c-1.979-0.805-3.527-2.333-4.357-4.302C3.544,12.55,3.887,9.558,5.52,7.306
		C5.615,7.177,5.766,7.1,5.925,7.1c0.106,0,0.207,0.033,0.293,0.095C6.442,7.357,6.492,7.67,6.33,7.894
		c-1.429,1.97-1.729,4.588-0.783,6.831c0.727,1.723,2.081,3.06,3.813,3.764c0.848,0.345,1.735,0.52,2.638,0.52
		c0.933,0,1.848-0.187,2.72-0.554c0.061-0.026,0.127-0.039,0.194-0.039c0.201,0,0.382,0.12,0.461,0.306
		c0.052,0.123,0.053,0.259,0.002,0.383c-0.05,0.124-0.146,0.22-0.269,0.272C14.109,19.795,13.063,20.008,11.997,20.008z"/>
	<path d="M11.999,17.004c-0.132,0-0.264-0.019-0.391-0.057c-0.454-0.133-0.805-0.484-0.938-0.938l-0.294-0.963
		c-0.021-0.069-0.085-0.116-0.157-0.116c-0.012,0-0.024,0.001-0.036,0.004l-0.979,0.228c-0.103,0.023-0.206,0.035-0.309,0.035
		c0,0,0,0,0,0c-0.646,0-1.217-0.458-1.358-1.088c-0.101-0.448,0.026-0.917,0.339-1.253l0.687-0.74
		c0.058-0.063,0.058-0.166-0.001-0.229l-0.686-0.74c-0.254-0.276-0.386-0.633-0.37-1.007c0.015-0.374,0.175-0.719,0.45-0.972
		c0.08-0.074,0.17-0.139,0.265-0.192C8.293,8.932,8.378,8.91,8.463,8.91c0.181,0,0.348,0.098,0.436,0.256
		c0.065,0.116,0.081,0.251,0.045,0.38c-0.036,0.129-0.12,0.235-0.237,0.3C8.68,9.861,8.655,9.88,8.632,9.901
		c-0.079,0.073-0.125,0.171-0.129,0.278c-0.004,0.107,0.033,0.209,0.106,0.287l0.686,0.74c0.411,0.445,0.411,1.142,0.001,1.587
		l-0.688,0.741c-0.088,0.095-0.124,0.228-0.096,0.354c0.04,0.178,0.202,0.307,0.384,0.307c0.029,0,0.058-0.003,0.086-0.01
		l0.977-0.227c0.086-0.02,0.174-0.03,0.261-0.03c0.508,0,0.966,0.34,1.114,0.826l0.295,0.967c0.038,0.131,0.136,0.229,0.263,0.267
		c0.035,0.01,0.071,0.015,0.108,0.015c0.171,0,0.323-0.114,0.372-0.277l0.151-0.495c0.065-0.212,0.257-0.354,0.477-0.354
		c0.05,0,0.1,0.008,0.148,0.022c0.127,0.039,0.232,0.125,0.294,0.243c0.062,0.118,0.075,0.253,0.036,0.381l-0.15,0.49
		C13.157,16.596,12.61,17.004,11.999,17.004z"/>
	<path d="M15.394,13.306c-0.139,0-0.272-0.058-0.367-0.16l-0.326-0.352c-0.412-0.445-0.412-1.143,0-1.587l0.687-0.741
		c0.089-0.095,0.124-0.228,0.096-0.354c-0.023-0.102-0.084-0.19-0.173-0.246c-0.063-0.04-0.135-0.061-0.209-0.061
		c-0.029,0-0.058,0.003-0.087,0.01l-0.977,0.227c-0.086,0.02-0.174,0.03-0.261,0.03c-0.509,0-0.967-0.34-1.114-0.826l-0.306-1.003
		c-0.032-0.088-0.1-0.163-0.194-0.208c-0.052-0.024-0.107-0.037-0.164-0.037c-0.044,0-0.088,0.008-0.13,0.023
		c-0.053,0.019-0.11,0.029-0.168,0.029c-0.21,0-0.4-0.133-0.47-0.332c-0.045-0.125-0.038-0.261,0.019-0.382
		c0.057-0.121,0.158-0.212,0.284-0.257c0.151-0.054,0.308-0.082,0.467-0.082c0.205,0,0.404,0.045,0.591,0.133
		c0.334,0.158,0.587,0.437,0.711,0.785c0.009,0.024,0.018,0.051,0.026,0.079l0.292,0.96c0.021,0.069,0.085,0.117,0.157,0.117
		c0.012,0,0.024-0.001,0.036-0.004l0.98-0.228C14.896,8.816,15,8.804,15.103,8.804c0.262,0,0.519,0.075,0.743,0.216
		c0.315,0.199,0.533,0.509,0.614,0.872c0.101,0.448-0.026,0.917-0.339,1.253l-0.686,0.74c-0.058,0.063-0.058,0.166,0,0.229
		l0.325,0.351c0.091,0.098,0.138,0.225,0.133,0.359s-0.062,0.257-0.16,0.348C15.641,13.259,15.521,13.306,15.394,13.306z"/>
	<path d="M18.546,18.603l-1.575-0.094c-0.333-0.02-0.639-0.168-0.861-0.418c-0.221-0.25-0.332-0.571-0.312-0.904
		c0.016-0.268,0.121-0.529,0.294-0.734l0.162-0.191l-3.502-2.969C12.522,13.429,12.265,13.5,12,13.5c-0.827,0-1.5-0.673-1.5-1.5
		c0-0.374,0.142-0.731,0.396-1.007L8.585,6.659C8.43,6.697,8.274,6.716,8.119,6.716c-0.729,0-1.4-0.395-1.752-1.03L6.338,5.632
		C6.319,5.594,6.305,5.558,6.296,5.521C6.088,4.68,6.095,3.794,6.317,2.957c0.04-0.228,0.191-0.455,0.408-0.605
		C6.892,2.237,7.088,2.176,7.29,2.176c0.061,0,0.123,0.006,0.184,0.017C7.547,2.206,7.62,2.228,7.688,2.258
		c0.789,0.269,1.525,0.753,2.109,1.394c0.026,0.028,0.049,0.06,0.068,0.095c0.259,0.467,0.321,1.007,0.174,1.521
		C9.936,5.627,9.74,5.942,9.468,6.19l2.309,4.33c0.077-0.013,0.151-0.02,0.223-0.02c0.827,0,1.5,0.673,1.5,1.5
		c0,0.181-0.034,0.358-0.102,0.53L16.9,15.5l0.162-0.191c0.218-0.255,0.521-0.409,0.854-0.435c0.033-0.003,0.068-0.004,0.103-0.004
		c0.293,0,0.58,0.107,0.807,0.301c0.204,0.175,0.344,0.405,0.404,0.666l0.352,1.546c0.123,0.538-0.215,1.075-0.753,1.197
		c-0.073,0.017-0.147,0.025-0.222,0.025C18.587,18.605,18.566,18.604,18.546,18.603z M17.339,16.527l-0.485,0.572
		c-0.035,0.041-0.056,0.094-0.059,0.148c-0.004,0.066,0.018,0.13,0.063,0.18c0.044,0.05,0.105,0.079,0.172,0.083l1.577,0.094
		l-0.351-1.544c-0.012-0.05-0.04-0.096-0.081-0.132c-0.045-0.039-0.101-0.06-0.157-0.06c-0.092,0.006-0.151,0.036-0.194,0.087
		L17.339,16.527l-0.19-0.162L17.339,16.527z M12,11.5c-0.276,0-0.5,0.224-0.5,0.5c0,0.276,0.224,0.5,0.5,0.5
		c0.276,0,0.5-0.224,0.5-0.5C12.5,11.724,12.276,11.5,12,11.5z M7.252,5.218c0.134,0.229,0.341,0.388,0.589,0.459
		c0.087,0.025,0.176,0.038,0.266,0.038c0.13,0,0.258-0.026,0.382-0.077c0.024-0.021,0.052-0.043,0.087-0.061
		c0.036-0.019,0.071-0.031,0.102-0.039c0.195-0.132,0.336-0.325,0.4-0.547c0.068-0.239,0.047-0.49-0.062-0.712
		C8.552,3.786,7.969,3.41,7.328,3.19c-0.021-0.008-0.03-0.012-0.036-0.014C7.112,3.861,7.099,4.56,7.252,5.218z"/>
</g>
</svg>
