<?xml version="1.0" encoding="utf-8"?>
<!-- Generator: Adobe Illustrator 22.1.0, SVG Export Plug-In . SVG Version: 6.00 Build 0)  -->
<svg version="1.1" id="Light" xmlns="http://www.w3.org/2000/svg" xmlns:xlink="http://www.w3.org/1999/xlink" x="0px" y="0px"
	 viewBox="0 0 24 24" style="enable-background:new 0 0 24 24;" xml:space="preserve">
<g>
	<title>steampunk-decoration-dia-de-los-muertos</title>
	<path d="M16,24c-0.552,0-1-0.448-1-1v-1h-2v1c0,0.552-0.448,1-1,1H7c-0.551,0-1-0.448-1-1v-3.5c0-1.793-2.283-2.553-3.644-2.846
		c-0.802-0.174-1.31-0.942-1.156-1.748L2.705,7H1v0.5C1,7.776,0.776,8,0.5,8S0,7.776,0,7.5v-2C0,5.224,0.224,5,0.5,5S1,5.224,1,5.5
		V6h1.896c0,0,0.116-0.609,0.117-0.614c0.009-0.042,0.021-0.087,0.033-0.132L2,4.207L1.854,4.354C1.759,4.448,1.634,4.5,1.5,4.5
		S1.241,4.448,1.146,4.354c-0.195-0.195-0.195-0.512,0-0.707l1-1C2.241,2.552,2.366,2.5,2.5,2.5s0.259,0.052,0.354,0.146
		S3,2.866,3,3S2.948,3.259,2.854,3.354L2.707,3.5L3.4,4.193C4.47,1.67,6.958,0,9.709,0h4.582c1.401,0,2.753,0.432,3.919,1.25
		c0.258-0.103,0.523-0.174,0.79-0.213V0.5C19,0.224,19.224,0,19.5,0S20,0.224,20,0.5v0.542c0.213,0.031,0.419,0.079,0.614,0.145
		c0.354,0.12,0.682,0.292,0.978,0.514l0.383-0.383c0.094-0.094,0.22-0.146,0.354-0.146s0.259,0.052,0.354,0.146
		c0.094,0.094,0.146,0.22,0.146,0.354c0,0.134-0.052,0.259-0.146,0.354l-0.385,0.386c0.13,0.173,0.242,0.354,0.334,0.54
		C22.794,3.282,22.903,3.634,22.955,4H23.5C23.776,4,24,4.224,24,4.5S23.776,5,23.5,5h-0.547c-0.084,0.576-0.31,1.128-0.653,1.593
		l0.382,0.382c0.094,0.094,0.146,0.22,0.146,0.354c0,0.134-0.052,0.259-0.146,0.354s-0.22,0.146-0.354,0.146
		s-0.259-0.052-0.354-0.146L21.593,7.3c-0.069,0.052-0.14,0.101-0.213,0.148l1.42,7.459c0.152,0.805-0.355,1.571-1.155,1.745
		C20.284,16.947,18,17.709,18,19.5V23c0,0.552-0.448,1-1,1H16z M16.5,21c-0.276,0-0.5,0.224-0.5,0.5V23h1v-1.5
		C17,21.224,16.776,21,16.5,21z M12,23v-1.5c0-0.276-0.224-0.5-0.5-0.5S11,21.224,11,21.5V23H12z M10,23v-1.5
		c0-0.276-0.224-0.5-0.5-0.5S9,21.224,9,21.5V23H10z M7.5,21C7.224,21,7,21.224,7,21.5V23h1v-1.5C8,21.224,7.776,21,7.5,21z
		 M15.086,21c0.209-0.59,0.774-1,1.414-1c0.172,0,0.34,0.03,0.5,0.088V19.5c0-2.492,2.777-3.466,4.433-3.826
		c0.266-0.058,0.435-0.313,0.385-0.582L20.086,6H3.914l-1.732,9.094c-0.052,0.269,0.118,0.525,0.385,0.583
		C4.223,16.033,7,17.005,7,19.5v0.588C7.16,20.03,7.328,20,7.5,20c0.375,0,0.727,0.138,1,0.387C8.773,20.138,9.125,20,9.5,20
		s0.727,0.138,1,0.387c0.273-0.249,0.625-0.387,1-0.387c0.64,0,1.205,0.41,1.414,1H15.086z M21.172,6.354
		c0.815-0.738,1.063-1.947,0.562-2.96c-0.296-0.599-0.807-1.046-1.44-1.26c-0.258-0.087-0.526-0.131-0.796-0.131
		c-0.12,0-0.24,0.009-0.359,0.026c0.935,0.932,1.571,2.086,1.85,3.364c0,0.001,0.001,0.002,0.001,0.004
		C20.99,5.402,21.172,6.354,21.172,6.354z M19.844,5c-0.794-2.371-3.032-4-5.553-4H9.709C7.188,1,4.95,2.629,4.156,5H19.844z"/>
	<path d="M7.5,15C7.224,15,7,14.776,7,14.5v-1.065C6.648,13.344,6.33,13.16,6.075,12.9l-0.923,0.533
		C5.076,13.477,4.99,13.5,4.902,13.5c-0.178,0-0.344-0.096-0.433-0.25c-0.138-0.239-0.056-0.545,0.183-0.683l0.922-0.532
		C5.525,11.86,5.5,11.681,5.5,11.5s0.025-0.36,0.074-0.535l-0.922-0.532C4.413,10.295,4.331,9.989,4.469,9.75
		C4.558,9.596,4.724,9.5,4.902,9.5c0.087,0,0.174,0.023,0.25,0.067L6.075,10.1C6.33,9.84,6.648,9.656,7,9.565V8.5
		C7,8.224,7.224,8,7.5,8S8,8.224,8,8.5v1.065C8.352,9.656,8.67,9.84,8.925,10.1l0.923-0.533C9.924,9.523,10.01,9.5,10.098,9.5
		c0.178,0,0.344,0.096,0.433,0.25c0.138,0.239,0.056,0.546-0.183,0.683l-0.922,0.532C9.475,11.14,9.5,11.319,9.5,11.5
		s-0.025,0.36-0.074,0.535l0.922,0.532c0.239,0.138,0.321,0.444,0.183,0.683c-0.089,0.155-0.255,0.25-0.433,0.25
		c-0.087,0-0.174-0.023-0.25-0.067L8.925,12.9C8.67,13.16,8.352,13.344,8,13.435V14.5C8,14.776,7.776,15,7.5,15z M7.5,10.5
		c-0.551,0-1,0.449-1,1s0.449,1,1,1s1-0.449,1-1S8.051,10.5,7.5,10.5z"/>
	<path d="M16.5,14c-0.276,0-0.5-0.224-0.5-0.5v-0.586c-0.171-0.061-0.33-0.155-0.47-0.276l-0.511,0.295
		C14.942,12.977,14.856,13,14.768,13c-0.178,0-0.344-0.096-0.433-0.25c-0.138-0.239-0.056-0.545,0.183-0.683l0.51-0.295
		C15.009,11.68,15,11.589,15,11.5s0.009-0.18,0.028-0.272l-0.51-0.295c-0.116-0.067-0.198-0.175-0.233-0.304
		c-0.035-0.129-0.017-0.264,0.05-0.38C14.424,10.096,14.59,10,14.768,10c0.087,0,0.174,0.023,0.25,0.067l0.512,0.295
		c0.14-0.122,0.299-0.215,0.47-0.276V9.5C16,9.224,16.224,9,16.5,9S17,9.224,17,9.5v0.586c0.171,0.061,0.33,0.154,0.47,0.276
		l0.512-0.295C18.057,10.023,18.144,10,18.231,10c0.178,0,0.344,0.096,0.433,0.25c0.067,0.116,0.085,0.251,0.05,0.38
		c-0.034,0.129-0.117,0.237-0.233,0.304l-0.51,0.295C17.991,11.32,18,11.411,18,11.5s-0.009,0.18-0.028,0.272l0.51,0.295
		c0.239,0.138,0.321,0.444,0.183,0.683C18.576,12.904,18.41,13,18.232,13c-0.088,0-0.174-0.023-0.25-0.067l-0.511-0.295
		c-0.141,0.122-0.299,0.215-0.47,0.276V13.5C17,13.776,16.776,14,16.5,14z M16.5,11c-0.276,0-0.5,0.224-0.5,0.5s0.224,0.5,0.5,0.5
		s0.5-0.224,0.5-0.5S16.776,11,16.5,11z"/>
	<path d="M11.387,18c-0.162,0-0.321-0.026-0.474-0.077c-0.784-0.261-1.21-1.112-0.949-1.897l0.333-1
		C10.502,14.412,11.074,14,11.721,14h0.558c0.647,0,1.219,0.412,1.424,1.026l0.333,1c0.051,0.153,0.076,0.312,0.077,0.472
		c0,0.828-0.672,1.501-1.499,1.502C12.613,18,11.387,18,11.387,18z M11.721,15c-0.216,0-0.406,0.137-0.475,0.342l-0.333,1
		c-0.042,0.126-0.032,0.261,0.028,0.381s0.162,0.209,0.289,0.251C11.281,16.991,11.334,17,11.387,17h1.226
		c0.275,0,0.5-0.225,0.499-0.5c0-0.054-0.009-0.107-0.025-0.157l-0.333-1C12.686,15.137,12.495,15,12.279,15H11.721z"/>
	<path d="M15.458,4c-0.414,0-0.75-0.336-0.75-0.75c-0.001-0.411,0.333-0.748,0.746-0.75c0.418,0,0.754,0.336,0.754,0.75
		S15.872,4,15.458,4z"/>
	<circle cx="12.75" cy="3.25" r="0.75"/>
</g>
</svg>
