<?xml version="1.0" encoding="utf-8"?>
<!-- Generator: Adobe Illustrator 22.1.0, SVG Export Plug-In . SVG Version: 6.00 Build 0)  -->
<svg version="1.1" id="Light" xmlns="http://www.w3.org/2000/svg" xmlns:xlink="http://www.w3.org/1999/xlink" x="0px" y="0px"
	 viewBox="0 0 24 24" style="enable-background:new 0 0 24 24;" xml:space="preserve">
<g>
	<title>diagram-arrow-corner-point-right</title>
	<path d="M1.108,23.633c-0.551,0-1-0.448-1-1v-18c0-0.551,0.449-1,1-1h15v-2.5c0-0.495,0.313-0.67,0.409-0.712
		c0.054-0.023,0.142-0.052,0.253-0.052c0.133,0,0.335,0.041,0.546,0.238l6.266,5.819c0.019,0.017,0.043,0.041,0.066,0.067
		c0.171,0.19,0.257,0.436,0.243,0.691c-0.014,0.255-0.126,0.49-0.316,0.661l-6.26,5.814c-0.211,0.196-0.413,0.237-0.545,0.237l0,0
		c-0.11,0-0.198-0.028-0.252-0.051c-0.097-0.042-0.409-0.217-0.409-0.712v-2.5h-9v12c0,0.552-0.449,1-1,1H1.108z M1.108,22.633h5
		v-12c0-0.551,0.449-1,1-1h9.5c0.276,0,0.5,0.224,0.5,0.5v2.354l5.764-5.353l-5.764-5.354v2.353c0,0.276-0.224,0.5-0.5,0.5h-15.5
		l0,0L1.108,22.633z"/>
</g>
</svg>
