<?xml version="1.0" encoding="utf-8"?>
<!-- Generator: Adobe Illustrator 22.1.0, SVG Export Plug-In . SVG Version: 6.00 Build 0)  -->
<svg version="1.1" id="Light" xmlns="http://www.w3.org/2000/svg" xmlns:xlink="http://www.w3.org/1999/xlink" x="0px" y="0px"
	 viewBox="0 0 24 24" style="enable-background:new 0 0 24 24;" xml:space="preserve">
<g>
	<title>diagram-dash-wave-down</title>
	<path d="M0.512,1c-0.276,0-0.5-0.224-0.5-0.5S0.236,0,0.512,0h2.039c0.276,0,0.5,0.224,0.5,0.5S2.827,1,2.551,1H0.512z"/>
	<path d="M6.039,2.45c-0.174,0-0.338-0.092-0.428-0.241c-0.295-0.488-0.753-0.865-1.289-1.06C4.196,1.103,4.096,1.012,4.04,0.89
		C3.983,0.769,3.977,0.634,4.023,0.508c0.072-0.197,0.26-0.329,0.469-0.329c0.059,0,0.117,0.01,0.172,0.031
		c0.748,0.273,1.389,0.799,1.802,1.482C6.536,1.806,6.556,1.94,6.525,2.07C6.493,2.2,6.412,2.309,6.298,2.378
		C6.22,2.425,6.131,2.45,6.039,2.45z"/>
	<path d="M6.469,6.375c-0.276,0-0.5-0.224-0.5-0.5V3.836c0-0.276,0.224-0.5,0.5-0.5s0.5,0.224,0.5,0.5v2.039
		C6.969,6.151,6.745,6.375,6.469,6.375z"/>
	<path d="M6.469,10.375c-0.276,0-0.5-0.224-0.5-0.5V7.836c0-0.276,0.224-0.5,0.5-0.5s0.5,0.224,0.5,0.5v2.039
		C6.969,10.151,6.745,10.375,6.469,10.375z"/>
	<path d="M6.469,14.375c-0.276,0-0.5-0.224-0.5-0.5v-2.039c0-0.276,0.224-0.5,0.5-0.5s0.5,0.224,0.5,0.5v2.039
		C6.969,14.151,6.745,14.375,6.469,14.375z"/>
	<path d="M6.469,18.375c-0.276,0-0.5-0.224-0.5-0.5v-2.039c0-0.276,0.224-0.5,0.5-0.5s0.5,0.224,0.5,0.5v2.039
		C6.969,18.151,6.745,18.375,6.469,18.375z"/>
	<path d="M6.779,22.329c-0.199,0-0.379-0.118-0.458-0.3c-0.308-0.703-0.429-1.479-0.349-2.244c0.027-0.255,0.242-0.448,0.501-0.448
		c0.007,0,0.035,0.001,0.042,0.002c0.28,0.029,0.48,0.276,0.451,0.55c-0.062,0.593,0.032,1.194,0.271,1.74
		c0.054,0.122,0.056,0.258,0.008,0.383s-0.143,0.222-0.265,0.276C6.917,22.315,6.849,22.329,6.779,22.329z"/>
	<path d="M9.725,24.022c-0.609,0-1.225-0.128-1.782-0.371c-0.122-0.053-0.217-0.151-0.266-0.276
		c-0.049-0.125-0.046-0.26,0.007-0.383c0.079-0.182,0.259-0.3,0.458-0.3c0.069,0,0.136,0.014,0.199,0.042
		c0.432,0.188,0.91,0.288,1.382,0.288c0.12,0,0.24-0.006,0.359-0.019C10.101,23.001,10.119,23,10.138,23
		c0.255,0,0.468,0.193,0.495,0.448c0.029,0.274-0.171,0.521-0.445,0.55C10.036,24.014,9.88,24.022,9.725,24.022z"/>
	<path d="M12.023,23.567c-0.174,0-0.338-0.092-0.428-0.24c-0.143-0.236-0.068-0.544,0.167-0.687
		c0.488-0.296,0.864-0.755,1.059-1.291c0.072-0.197,0.26-0.329,0.47-0.329c0.058,0,0.115,0.01,0.17,0.03
		c0.126,0.046,0.226,0.137,0.282,0.259c0.057,0.121,0.062,0.257,0.017,0.382c-0.273,0.749-0.798,1.389-1.479,1.803
		C12.204,23.542,12.115,23.567,12.023,23.567z"/>
	<path d="M13.469,20.076c-0.276,0-0.5-0.224-0.5-0.5v-2.04c0-0.276,0.224-0.5,0.5-0.5s0.5,0.224,0.5,0.5v2.04
		C13.969,19.852,13.745,20.076,13.469,20.076z"/>
	<path d="M13.469,16.076c-0.276,0-0.5-0.224-0.5-0.5v-2.04c0-0.276,0.224-0.5,0.5-0.5s0.5,0.224,0.5,0.5v2.04
		C13.969,15.852,13.745,16.076,13.469,16.076z"/>
	<path d="M13.469,12.076c-0.276,0-0.5-0.224-0.5-0.5v-2.04c0-0.276,0.224-0.5,0.5-0.5s0.5,0.224,0.5,0.5v2.04
		C13.969,11.852,13.745,12.076,13.469,12.076z"/>
	<path d="M13.469,8.076c-0.276,0-0.5-0.224-0.5-0.5v-2.04c0-0.276,0.224-0.5,0.5-0.5s0.5,0.224,0.5,0.5v2.04
		C13.969,7.852,13.745,8.076,13.469,8.076z"/>
	<path d="M13.469,4.075c-0.27,0-0.494-0.219-0.5-0.489c-0.017-0.796,0.24-1.582,0.724-2.215c0.095-0.125,0.24-0.196,0.397-0.196
		c0.109,0,0.218,0.037,0.304,0.103c0.105,0.081,0.174,0.198,0.191,0.331s-0.017,0.264-0.099,0.37
		c-0.346,0.453-0.53,1.016-0.518,1.585c0.006,0.276-0.214,0.505-0.489,0.511c-0.002,0-0.004,0-0.006,0H13.469z"/>
	<path d="M15.7,1.1c-0.245,0-0.458-0.183-0.494-0.425c-0.02-0.132,0.013-0.264,0.092-0.371s0.196-0.178,0.328-0.198
		c0.498-0.076,1.008-0.114,1.515-0.114c0.207,0,0.417,0.006,0.624,0.019c0.134,0.008,0.256,0.068,0.344,0.168
		s0.133,0.229,0.124,0.362c-0.016,0.263-0.234,0.469-0.495,0.469c-0.007,0-0.032-0.001-0.039-0.001
		c-0.182-0.011-0.371-0.017-0.559-0.017c-0.455,0-0.914,0.035-1.365,0.103C15.75,1.099,15.725,1.1,15.7,1.1z"/>
	<path d="M20.436,3.549c-0.249,0-0.457-0.179-0.494-0.425c-0.086-0.564-0.365-1.086-0.786-1.47
		c-0.204-0.186-0.218-0.503-0.032-0.706c0.094-0.104,0.229-0.163,0.369-0.163c0.125,0,0.245,0.046,0.337,0.13
		c0.59,0.539,0.98,1.27,1.1,2.058c0.02,0.132-0.012,0.264-0.092,0.371c-0.079,0.108-0.195,0.178-0.327,0.198
		C20.486,3.548,20.461,3.549,20.436,3.549z"/>
	<path d="M20.469,7.55c-0.276,0-0.5-0.224-0.5-0.5V5.01c0-0.276,0.224-0.5,0.5-0.5s0.5,0.224,0.5,0.5v2.04
		C20.969,7.326,20.745,7.55,20.469,7.55z"/>
	<path d="M20.469,11.55c-0.276,0-0.5-0.224-0.5-0.5V9.01c0-0.276,0.224-0.5,0.5-0.5s0.5,0.224,0.5,0.5v2.04
		C20.969,11.326,20.745,11.55,20.469,11.55z"/>
	<path d="M20.469,15c-0.134,0-0.259-0.052-0.354-0.146l-3-3c-0.094-0.094-0.146-0.22-0.146-0.354s0.052-0.259,0.146-0.354
		S17.335,11,17.469,11s0.259,0.052,0.354,0.146l2.646,2.646l2.646-2.646C23.21,11.052,23.335,11,23.469,11s0.259,0.052,0.354,0.146
		s0.146,0.22,0.146,0.354s-0.052,0.259-0.146,0.354l-3,3C20.728,14.948,20.602,15,20.469,15z"/>
</g>
</svg>
