<?xml version="1.0" encoding="utf-8"?>
<!-- Generator: Adobe Illustrator 22.1.0, SVG Export Plug-In . SVG Version: 6.00 Build 0)  -->
<svg version="1.1" id="Light" xmlns="http://www.w3.org/2000/svg" xmlns:xlink="http://www.w3.org/1999/xlink" x="0px" y="0px"
	 viewBox="0 0 24 24" style="enable-background:new 0 0 24 24;" xml:space="preserve">
<g>
	<title>diagram-curve-down</title>
	<path d="M20.5,24c-0.066,0-0.13-0.013-0.191-0.039c-0.062-0.025-0.117-0.062-0.163-0.109l-2.999-2.999
		c-0.195-0.195-0.195-0.512,0-0.707C17.241,20.052,17.366,20,17.5,20s0.259,0.052,0.354,0.146L20,22.293V14.5
		c0-1.93-1.57-3.5-3.5-3.5h-12C2.018,11,0,8.981,0,6.5v-6C0,0.224,0.224,0,0.5,0S1,0.224,1,0.5v6C1,8.43,2.57,10,4.5,10h12
		c2.481,0,4.5,2.019,4.5,4.5v7.793l2.146-2.146C23.241,20.052,23.366,20,23.5,20s0.259,0.052,0.354,0.146
		c0.195,0.195,0.195,0.512,0,0.707l-3,3c-0.045,0.046-0.101,0.083-0.163,0.109C20.63,23.987,20.565,24,20.5,24z"/>
</g>
</svg>
