<?xml version="1.0" encoding="utf-8"?>
<!-- Generator: Adobe Illustrator 22.1.0, SVG Export Plug-In . SVG Version: 6.00 Build 0)  -->
<svg version="1.1" id="Light" xmlns="http://www.w3.org/2000/svg" xmlns:xlink="http://www.w3.org/1999/xlink" x="0px" y="0px"
	 viewBox="0 0 24 24" style="enable-background:new 0 0 24 24;" xml:space="preserve">
<g>
	<title>diagram-arrow-up</title>
	<path d="M9.5,23.892c-0.551,0-1-0.448-1-1v-15H6c-0.495,0-0.67-0.312-0.712-0.408S5.137,7.048,5.474,6.686l5.82-6.267
		c0.166-0.185,0.4-0.296,0.655-0.31c0.018-0.001,0.035-0.001,0.052-0.001c0.239,0,0.46,0.085,0.638,0.245
		c0.024,0.021,0.049,0.046,0.073,0.073l5.814,6.261c0.337,0.36,0.228,0.701,0.186,0.797C18.67,7.579,18.495,7.892,18,7.892h-2.5v15
		c0,0.552-0.448,1-1,1H9.5z M9,6.892c0.276,0,0.5,0.224,0.5,0.5v15.5h5v-15.5c0-0.276,0.224-0.5,0.5-0.5h2.353L12,1.128L6.647,6.892
		H9z"/>
</g>
</svg>
