<?xml version="1.0" encoding="utf-8"?>
<!-- Generator: Adobe Illustrator 22.1.0, SVG Export Plug-In . SVG Version: 6.00 Build 0)  -->
<svg version="1.1" id="Light" xmlns="http://www.w3.org/2000/svg" xmlns:xlink="http://www.w3.org/1999/xlink" x="0px" y="0px"
	 viewBox="0 0 24 24" style="enable-background:new 0 0 24 24;" xml:space="preserve">
<g>
	<title>diagram-steady-rise</title>
	<path d="M0.499,19c-0.276,0-0.5-0.224-0.5-0.5s0.224-0.5,0.5-0.5h7c1.379,0,2.5-1.122,2.5-2.5v-4c0-1.93,1.57-3.5,3.5-3.5h8.793
		l-2.146-2.146c-0.195-0.195-0.195-0.512,0-0.707C20.24,5.052,20.366,5,20.499,5s0.259,0.052,0.354,0.146l3,3
		c0.046,0.046,0.083,0.101,0.109,0.163c0.05,0.121,0.05,0.261,0,0.382c-0.025,0.061-0.062,0.116-0.109,0.163l-2.999,2.999
		C20.758,11.948,20.633,12,20.499,12s-0.259-0.052-0.354-0.146c-0.195-0.195-0.195-0.512,0-0.707L22.292,9h-8.793
		c-1.379,0-2.5,1.121-2.5,2.5v4c0,1.93-1.57,3.5-3.5,3.5H0.499z"/>
</g>
</svg>
