<?xml version="1.0" encoding="utf-8"?>
<!-- Generator: Adobe Illustrator 22.1.0, SVG Export Plug-In . SVG Version: 6.00 Build 0)  -->
<svg version="1.1" id="Light" xmlns="http://www.w3.org/2000/svg" xmlns:xlink="http://www.w3.org/1999/xlink" x="0px" y="0px"
	 viewBox="0 0 24 24" style="enable-background:new 0 0 24 24;" xml:space="preserve">
<g>
	<title>diagram-zig-zag-fall</title>
	<path d="M11.5,24c-0.066,0-0.13-0.013-0.192-0.039c-0.061-0.025-0.116-0.062-0.163-0.109l-2.999-2.999
		c-0.195-0.195-0.195-0.512,0-0.707C8.241,20.052,8.366,20,8.5,20s0.259,0.052,0.354,0.146L11,22.293V15H7
		c-0.219,0-0.411-0.141-0.477-0.35c-0.066-0.209,0.01-0.434,0.19-0.56l8.7-6.09H11.5C11.224,8,11,7.776,11,7.5v-7
		C11,0.224,11.224,0,11.5,0S12,0.224,12,0.5V7h5c0.219,0,0.411,0.14,0.477,0.349c0.066,0.21-0.01,0.435-0.19,0.56L8.586,14H11.5
		c0.276,0,0.5,0.224,0.5,0.5v7.793l2.146-2.146C14.241,20.052,14.366,20,14.5,20s0.259,0.052,0.354,0.146
		c0.195,0.195,0.195,0.512,0,0.707l-3,3c-0.046,0.046-0.101,0.083-0.163,0.109C11.63,23.987,11.565,24,11.5,24z"/>
</g>
</svg>
