<?xml version="1.0" encoding="utf-8"?>
<!-- Generator: Adobe Illustrator 22.1.0, SVG Export Plug-In . SVG Version: 6.00 Build 0)  -->
<svg version="1.1" id="Light" xmlns="http://www.w3.org/2000/svg" xmlns:xlink="http://www.w3.org/1999/xlink" x="0px" y="0px"
	 viewBox="0 0 24 24" style="enable-background:new 0 0 24 24;" xml:space="preserve">
<g>
	<title>diagram-dash-steady-up</title>
	<path d="M0.48,20.75c-0.276,0-0.5-0.224-0.5-0.5s0.224-0.5,0.5-0.5h2.038c0.276,0,0.5,0.224,0.5,0.5s-0.224,0.5-0.5,0.5H0.48z"/>
	<path d="M4.477,20.75c-0.276,0-0.5-0.224-0.5-0.5s0.224-0.5,0.5-0.5h2.038c0.276,0,0.5,0.224,0.5,0.5s-0.224,0.5-0.5,0.5H4.477z"/>
	<path d="M8.473,20.75c-0.276,0-0.5-0.224-0.5-0.5s0.224-0.5,0.5-0.5h2.038c0.276,0,0.5,0.224,0.5,0.5s-0.224,0.5-0.5,0.5H8.473z"/>
	<path d="M12.459,20.576c-0.234,0-0.44-0.167-0.489-0.396c-0.057-0.27,0.115-0.536,0.385-0.593c0.624-0.133,1.229-0.344,1.799-0.629
		c0.07-0.035,0.147-0.053,0.223-0.053c0.191,0,0.362,0.106,0.448,0.276c0.06,0.12,0.069,0.255,0.027,0.382s-0.131,0.229-0.251,0.289
		c-0.644,0.323-1.33,0.562-2.038,0.713C12.528,20.572,12.493,20.576,12.459,20.576z"/>
	<path d="M16.005,18.822c-0.146,0-0.284-0.063-0.379-0.174c-0.087-0.101-0.129-0.23-0.119-0.364c0.01-0.133,0.071-0.254,0.172-0.341
		c0.484-0.416,0.914-0.893,1.278-1.416c0.093-0.134,0.246-0.215,0.41-0.215c0.103,0,0.202,0.031,0.287,0.091
		c0.109,0.076,0.182,0.19,0.206,0.322c0.023,0.131-0.006,0.264-0.082,0.374c-0.413,0.593-0.899,1.132-1.446,1.602
		C16.24,18.779,16.124,18.822,16.005,18.822z"/>
	<path d="M18.277,15.58c-0.056,0-0.111-0.009-0.163-0.027c-0.125-0.042-0.227-0.132-0.286-0.252s-0.068-0.256-0.024-0.382
		c0.209-0.613,0.369-1.232,0.542-1.921c0.056-0.223,0.255-0.378,0.484-0.378c0.042,0,0.083,0.005,0.123,0.015
		c0.267,0.067,0.429,0.34,0.362,0.607c-0.172,0.682-0.344,1.348-0.566,1.999C18.681,15.443,18.491,15.58,18.277,15.58z"/>
	<path d="M19.322,11.724c-0.042,0-0.084-0.005-0.125-0.016c-0.268-0.069-0.428-0.343-0.359-0.61l0.511-1.973
		c0.057-0.221,0.256-0.375,0.484-0.375c0.042,0,0.084,0.005,0.125,0.016c0.13,0.034,0.239,0.116,0.306,0.231s0.087,0.25,0.053,0.379
		l-0.511,1.973C19.749,11.57,19.55,11.724,19.322,11.724z"/>
	<path d="M20.324,7.855c-0.042,0-0.083-0.005-0.125-0.016c-0.13-0.034-0.239-0.115-0.306-0.23c-0.068-0.115-0.087-0.25-0.053-0.379
		l0.51-1.973c0.057-0.22,0.256-0.375,0.484-0.375c0.042,0,0.084,0.005,0.125,0.016c0.13,0.034,0.239,0.115,0.306,0.23
		c0.068,0.115,0.087,0.25,0.053,0.379l-0.51,1.973C20.751,7.701,20.552,7.855,20.324,7.855z"/>
	<path d="M23.48,7.871c-0.175,0-0.334-0.089-0.426-0.238L21.09,4.452l-3.182,1.964c-0.079,0.049-0.17,0.075-0.263,0.075
		c-0.175,0-0.334-0.089-0.426-0.238c-0.144-0.234-0.071-0.542,0.163-0.687l3.607-2.227c0.079-0.049,0.17-0.075,0.262-0.075
		c0.175,0,0.334,0.089,0.426,0.238l2.227,3.607c0.145,0.234,0.072,0.543-0.162,0.688C23.664,7.845,23.573,7.871,23.48,7.871z"/>
</g>
</svg>
