<?xml version="1.0" encoding="utf-8"?>
<!-- Generator: Adobe Illustrator 22.1.0, SVG Export Plug-In . SVG Version: 6.00 Build 0)  -->
<svg version="1.1" id="Light" xmlns="http://www.w3.org/2000/svg" xmlns:xlink="http://www.w3.org/1999/xlink" x="0px" y="0px"
	 viewBox="0 0 24 24" style="enable-background:new 0 0 24 24;" xml:space="preserve">
<g>
	<title>diagram-arrow-dash-right</title>
	<path d="M0.606,15.5c-0.276,0-0.5-0.224-0.5-0.5s0.224-0.5,0.5-0.5h1c0.276,0,0.5,0.224,0.5,0.5s-0.224,0.5-0.5,0.5H0.606z"/>
	<path d="M3.439,15.5c-0.276,0-0.5-0.224-0.5-0.5s0.224-0.5,0.5-0.5h2.059c0.276,0,0.5,0.224,0.5,0.5s-0.224,0.5-0.5,0.5H3.439z"/>
	<path d="M3.498,9.5c-0.276,0-0.5-0.224-0.5-0.5s0.224-0.5,0.5-0.5h2.108c0.276,0,0.5,0.224,0.5,0.5s-0.224,0.5-0.5,0.5H3.498z"/>
	<path d="M0.606,9.5c-0.276,0-0.5-0.224-0.5-0.5s0.224-0.5,0.5-0.5h1c0.276,0,0.5,0.224,0.5,0.5s-0.224,0.5-0.5,0.5H0.606z"/>
	<path d="M16.768,18.763c-0.087,0-0.174-0.018-0.252-0.052c-0.097-0.042-0.409-0.216-0.409-0.712v-2.5h-9
		c-0.276,0-0.5-0.224-0.5-0.5s0.224-0.5,0.5-0.5h9.5c0.276,0,0.5,0.224,0.5,0.5v2.354L22.871,12l-5.764-5.353V9
		c0,0.276-0.224,0.5-0.5,0.5h-9c-0.276,0-0.5-0.224-0.5-0.5s0.224-0.5,0.5-0.5h8.5V6c0-0.495,0.313-0.67,0.409-0.712
		c0.054-0.024,0.142-0.052,0.253-0.052c0.133,0,0.335,0.041,0.546,0.238l6.266,5.819c0.016,0.014,0.04,0.038,0.063,0.063
		c0.355,0.395,0.323,1.002-0.069,1.355l-6.261,5.814C17.102,18.722,16.9,18.763,16.768,18.763z"/>
</g>
</svg>
