<?xml version="1.0" encoding="utf-8"?>
<!-- Generator: Adobe Illustrator 22.1.0, SVG Export Plug-In . SVG Version: 6.00 Build 0)  -->
<svg version="1.1" id="Light" xmlns="http://www.w3.org/2000/svg" xmlns:xlink="http://www.w3.org/1999/xlink" x="0px" y="0px"
	 viewBox="0 0 24 24" style="enable-background:new 0 0 24 24;" xml:space="preserve">
<g>
	<title>diagram-fall-down</title>
	<path d="M11.5,24c-0.134,0-0.259-0.052-0.354-0.146l-3-3c-0.195-0.195-0.195-0.512,0-0.707C8.241,20.052,8.366,20,8.5,20
		s0.259,0.052,0.354,0.146L11,22.293V9H1.5C0.673,9,0,8.327,0,7.5v-7C0,0.224,0.224,0,0.5,0S1,0.224,1,0.5v7C1,7.776,1.224,8,1.5,8
		h21C22.776,8,23,7.776,23,7.5v-7C23,0.224,23.224,0,23.5,0S24,0.224,24,0.5v7C24,8.327,23.327,9,22.5,9H12v13.293l2.146-2.146
		C14.241,20.052,14.366,20,14.5,20s0.259,0.052,0.354,0.146c0.195,0.195,0.195,0.512,0,0.707l-3,3C11.759,23.948,11.634,24,11.5,24z
		"/>
</g>
</svg>
