<?xml version="1.0" encoding="utf-8"?>
<!-- Generator: Adobe Illustrator 22.1.0, SVG Export Plug-In . SVG Version: 6.00 Build 0)  -->
<svg version="1.1" id="Light" xmlns="http://www.w3.org/2000/svg" xmlns:xlink="http://www.w3.org/1999/xlink" x="0px" y="0px"
	 viewBox="0 0 24 24" style="enable-background:new 0 0 24 24;" xml:space="preserve">
<g>
	<title>diagram-arrow-bend-down</title>
	<path d="M0.866,7.108c-0.276,0-0.5-0.224-0.5-0.5s0.224-0.5,0.5-0.5h10.5c0.276,0,0.5,0.224,0.5,0.5s-0.224,0.5-0.5,0.5H0.866z"/>
	<path d="M16.814,23.891c-0.255-0.014-0.49-0.126-0.66-0.316l-5.814-6.26c-0.336-0.362-0.227-0.703-0.185-0.798
		c0.042-0.096,0.217-0.408,0.712-0.408h2.5v-6c0-7.931-3.791-9-7.5-9h-5c-0.276,0-0.5-0.224-0.5-0.5s0.224-0.5,0.5-0.5h14.088
		c3.439,0,5.412,2.005,5.412,5.5v10.5h2.5c0.496,0,0.67,0.313,0.712,0.409c0.042,0.096,0.152,0.437-0.187,0.799l-5.819,6.266
		c-0.016,0.018-0.041,0.043-0.067,0.066c-0.176,0.158-0.402,0.245-0.638,0.245C16.849,23.893,16.831,23.892,16.814,23.891z
		 M16.866,22.872l5.354-5.765h-2.354c-0.276,0-0.5-0.224-0.5-0.5v-11c0-2.86-1.608-4.5-4.412-4.5h-4.429
		c3.376,1.805,3.841,5.702,3.841,9v6.5c0,0.276-0.224,0.5-0.5,0.5h-2.353L16.866,22.872z"/>
</g>
</svg>
