<?xml version="1.0" encoding="utf-8"?>
<!-- Generator: Adobe Illustrator 22.1.0, SVG Export Plug-In . SVG Version: 6.00 Build 0)  -->
<svg version="1.1" id="Light" xmlns="http://www.w3.org/2000/svg" xmlns:xlink="http://www.w3.org/1999/xlink" x="0px" y="0px"
	 viewBox="0 0 24 24" style="enable-background:new 0 0 24 24;" xml:space="preserve">
<g>
	<title>diagram-arrow-dash-up-1</title>
	<path d="M9,23.892c-0.276,0-0.5-0.224-0.5-0.5v-1c0-0.276,0.224-0.5,0.5-0.5s0.5,0.224,0.5,0.5v1C9.5,23.668,9.276,23.892,9,23.892
		z"/>
	<path d="M9,21.059c-0.276,0-0.5-0.224-0.5-0.5V19c0-0.276,0.224-0.5,0.5-0.5s0.5,0.224,0.5,0.5v1.559
		C9.5,20.835,9.276,21.059,9,21.059z"/>
	<path d="M15,21c-0.276,0-0.5-0.224-0.5-0.5v-2.108c0-0.276,0.224-0.5,0.5-0.5s0.5,0.224,0.5,0.5V20.5C15.5,20.776,15.276,21,15,21z
		"/>
	<path d="M15,23.892c-0.276,0-0.5-0.224-0.5-0.5v-1c0-0.276,0.224-0.5,0.5-0.5s0.5,0.224,0.5,0.5v1
		C15.5,23.668,15.276,23.892,15,23.892z"/>
	<path d="M9,17.392c-0.276,0-0.5-0.224-0.5-0.5v-9H6c-0.495,0-0.67-0.312-0.712-0.408S5.137,7.048,5.474,6.686l5.82-6.267
		c0.166-0.185,0.4-0.296,0.655-0.31c0.018-0.001,0.035-0.001,0.052-0.001c0.239,0,0.46,0.085,0.638,0.245
		c0.024,0.021,0.049,0.046,0.073,0.073l5.814,6.261c0.337,0.36,0.228,0.701,0.186,0.797C18.67,7.579,18.495,7.892,18,7.892h-2.5v8.5
		c0,0.276-0.224,0.5-0.5,0.5s-0.5-0.224-0.5-0.5v-9c0-0.276,0.224-0.5,0.5-0.5h2.353L12,1.128L6.647,6.892H9
		c0.276,0,0.5,0.224,0.5,0.5v9.5C9.5,17.168,9.276,17.392,9,17.392z"/>
</g>
</svg>
