<?xml version="1.0" encoding="utf-8"?>
<!-- Generator: Adobe Illustrator 22.1.0, SVG Export Plug-In . SVG Version: 6.00 Build 0)  -->
<svg version="1.1" id="Light" xmlns="http://www.w3.org/2000/svg" xmlns:xlink="http://www.w3.org/1999/xlink" x="0px" y="0px"
	 viewBox="0 0 24 24" style="enable-background:new 0 0 24 24;" xml:space="preserve">
<g>
	<title>diagram-dash-up-steady</title>
	<path d="M20.5,7c-0.134,0-0.259-0.052-0.354-0.146S20,6.634,20,6.5s0.052-0.259,0.146-0.354L22.793,3.5l-2.646-2.646
		C20.052,0.759,20,0.634,20,0.5s0.052-0.259,0.146-0.354S20.366,0,20.5,0s0.259,0.052,0.354,0.146l3,3C23.948,3.241,24,3.366,24,3.5
		s-0.052,0.259-0.146,0.354l-3,3C20.759,6.948,20.634,7,20.5,7z"/>
	<path d="M0.5,24C0.224,24,0,23.776,0,23.5S0.224,23,0.5,23h1C1.776,23,2,23.224,2,23.5S1.776,24,1.5,24H0.5z"/>
	<path d="M3.573,24c-0.276,0-0.5-0.224-0.5-0.5s0.224-0.5,0.5-0.5h2.04c0.276,0,0.5,0.224,0.5,0.5S5.889,24,5.613,24H3.573z"/>
	<path d="M7.681,23.823c-0.221,0-0.413-0.142-0.478-0.353c-0.081-0.263,0.067-0.543,0.33-0.625c0.572-0.176,1.092-0.498,1.504-0.931
		c0.094-0.099,0.226-0.155,0.362-0.155c0.129,0,0.251,0.049,0.345,0.138c0.097,0.092,0.152,0.217,0.155,0.35
		s-0.046,0.26-0.138,0.357c-0.53,0.556-1.199,0.97-1.934,1.197C7.781,23.816,7.731,23.823,7.681,23.823z"/>
	<path d="M10.385,20.949c-0.018,0-0.036-0.001-0.054-0.003c-0.276-0.031-0.474-0.28-0.443-0.553
		c0.013-0.118,0.028-0.237,0.043-0.355c0.027-0.218,0.054-0.429,0.07-0.641L10,18.416c0-0.276,0.224-0.5,0.5-0.5s0.5,0.224,0.5,0.5
		v1.02c-0.019,0.271-0.048,0.503-0.077,0.728c-0.014,0.114-0.029,0.227-0.042,0.341C10.854,20.758,10.64,20.949,10.385,20.949z"/>
	<path d="M10.5,16.833c-0.276,0-0.5-0.224-0.5-0.5v-2.04c0-0.276,0.224-0.5,0.5-0.5s0.5,0.224,0.5,0.5v2.04
		C11,16.609,10.776,16.833,10.5,16.833z"/>
	<path d="M10.5,12.71c-0.276,0-0.5-0.224-0.5-0.5v-2.04c0-0.276,0.224-0.5,0.5-0.5s0.5,0.224,0.5,0.5v2.04
		C11,12.486,10.776,12.71,10.5,12.71z"/>
	<path d="M10.5,8.585c-0.259,0-0.478-0.203-0.498-0.461C9.943,7.37,10.04,6.626,10.289,5.912c0.07-0.201,0.26-0.335,0.472-0.335
		c0.056,0,0.112,0.009,0.165,0.028c0.26,0.091,0.398,0.376,0.307,0.637c-0.203,0.583-0.282,1.19-0.235,1.805
		c0.021,0.275-0.185,0.516-0.46,0.537C10.532,8.584,10.506,8.585,10.5,8.585z"/>
	<path d="M11.968,4.9c-0.151,0-0.292-0.067-0.387-0.184c-0.085-0.103-0.124-0.234-0.11-0.366c0.013-0.133,0.078-0.253,0.181-0.337
		c0.594-0.485,1.307-0.811,2.062-0.944c0.029-0.005,0.058-0.008,0.087-0.008c0.243,0,0.45,0.174,0.492,0.413
		c0.047,0.272-0.135,0.532-0.406,0.579C13.3,4.156,12.746,4.41,12.284,4.787C12.195,4.86,12.083,4.9,11.968,4.9z"/>
	<path d="M15.883,4c-0.276,0-0.5-0.224-0.5-0.5s0.224-0.5,0.5-0.5h2.039c0.276,0,0.5,0.224,0.5,0.5S18.198,4,17.922,4H15.883z"/>
	<path d="M20,4c-0.276,0-0.5-0.224-0.5-0.5S19.724,3,20,3h1c0.276,0,0.5,0.224,0.5,0.5S21.276,4,21,4H20z"/>
</g>
</svg>
