<?xml version="1.0" encoding="utf-8"?>
<!-- Generator: Adobe Illustrator 22.1.0, SVG Export Plug-In . SVG Version: 6.00 Build 0)  -->
<svg version="1.1" id="Light" xmlns="http://www.w3.org/2000/svg" xmlns:xlink="http://www.w3.org/1999/xlink" x="0px" y="0px"
	 viewBox="0 0 24 24" style="enable-background:new 0 0 24 24;" xml:space="preserve">
<g>
	<title>diagram-dash-down-fast</title>
	<path d="M20.5,24c-0.134,0-0.259-0.052-0.354-0.146l-3-3C17.052,20.759,17,20.634,17,20.5s0.052-0.259,0.146-0.354
		S17.366,20,17.5,20s0.259,0.052,0.354,0.146l2.646,2.646l2.646-2.646C23.241,20.052,23.366,20,23.5,20s0.259,0.052,0.354,0.146
		S24,20.366,24,20.5s-0.052,0.259-0.146,0.354l-3,3C20.759,23.948,20.634,24,20.5,24z"/>
	<path d="M0.5,2C0.224,2,0,1.776,0,1.5v-1C0,0.224,0.224,0,0.5,0S1,0.224,1,0.5v1C1,1.776,0.776,2,0.5,2z"/>
	<path d="M0.5,6.068c-0.276,0-0.5-0.224-0.5-0.5v-2.04c0-0.276,0.224-0.5,0.5-0.5S1,3.252,1,3.528v2.04
		C1,5.844,0.776,6.068,0.5,6.068z"/>
	<path d="M1.666,9.823c-0.134,0-0.26-0.052-0.354-0.147C0.771,9.132,0.375,8.455,0.167,7.717c-0.036-0.129-0.02-0.264,0.045-0.38
		C0.277,7.22,0.384,7.136,0.513,7.1c0.044-0.012,0.09-0.019,0.136-0.019c0.223,0,0.421,0.15,0.481,0.365
		C1.291,8.02,1.599,8.547,2.02,8.97c0.094,0.095,0.146,0.22,0.146,0.354c0,0.134-0.053,0.259-0.147,0.353
		C1.925,9.771,1.799,9.823,1.666,9.823z"/>
	<path d="M4.928,11.017c-0.552,0-1.105-0.062-1.645-0.185c-0.269-0.061-0.438-0.33-0.377-0.599c0.052-0.226,0.257-0.389,0.488-0.389
		c0.037,0,0.075,0.004,0.111,0.013c0.466,0.106,0.945,0.16,1.422,0.16c0.151,0,0.305-0.005,0.456-0.016
		C5.389,10.001,5.407,10,5.413,10c0.265,0,0.487,0.204,0.505,0.464c0.02,0.275-0.188,0.514-0.463,0.534
		C5.28,11.011,5.103,11.017,4.928,11.017z"/>
	<path d="M7.444,11c-0.276,0-0.5-0.224-0.5-0.5s0.224-0.5,0.5-0.5h2.04c0.276,0,0.5,0.224,0.5,0.5S9.76,11,9.484,11H7.444z"/>
	<path d="M11.509,11c-0.276,0-0.5-0.224-0.5-0.5s0.224-0.5,0.5-0.5h2.039c0.276,0,0.5,0.224,0.5,0.5s-0.224,0.5-0.5,0.5H11.509z"/>
	<path d="M17.599,11.153c-0.037,0-0.074-0.004-0.11-0.012c-0.467-0.105-0.947-0.158-1.425-0.158c-0.152,0-0.304,0.005-0.456,0.016
		c-0.006,0-0.025,0.001-0.031,0.001c-0.263,0-0.484-0.204-0.502-0.465c-0.019-0.275,0.189-0.515,0.464-0.534
		c0.174-0.012,0.351-0.018,0.525-0.018c0.552,0,1.105,0.061,1.644,0.182c0.13,0.029,0.241,0.107,0.313,0.22
		c0.072,0.113,0.095,0.247,0.065,0.377C18.035,10.992,17.835,11.153,17.599,11.153z"/>
	<path d="M20.35,13.911c-0.222,0-0.42-0.149-0.481-0.363c-0.163-0.574-0.472-1.1-0.894-1.522c-0.195-0.194-0.196-0.511-0.001-0.707
		c0.094-0.095,0.22-0.147,0.354-0.147s0.26,0.052,0.354,0.147c0.542,0.541,0.94,1.218,1.149,1.955
		c0.037,0.128,0.021,0.263-0.044,0.38c-0.065,0.117-0.172,0.201-0.3,0.237C20.443,13.904,20.397,13.911,20.35,13.911z"/>
	<path d="M20.5,17.965c-0.276,0-0.5-0.224-0.5-0.5v-2.04c0-0.276,0.224-0.5,0.5-0.5s0.5,0.224,0.5,0.5v2.04
		C21,17.741,20.776,17.965,20.5,17.965z"/>
	<path d="M20.5,21c-0.276,0-0.5-0.224-0.5-0.5v-1c0-0.276,0.224-0.5,0.5-0.5s0.5,0.224,0.5,0.5v1C21,20.776,20.776,21,20.5,21z"/>
</g>
</svg>
