<?xml version="1.0" encoding="utf-8"?>
<!-- Generator: Adobe Illustrator 22.1.0, SVG Export Plug-In . SVG Version: 6.00 Build 0)  -->
<svg version="1.1" id="Light" xmlns="http://www.w3.org/2000/svg" xmlns:xlink="http://www.w3.org/1999/xlink" x="0px" y="0px"
	 viewBox="0 0 24 24" style="enable-background:new 0 0 24 24;" xml:space="preserve">
<g>
	<title>diagram-arrow-dash-corner-point-left</title>
	<path d="M17.392,23.633c-0.276,0-0.5-0.224-0.5-0.5v-1c0-0.276,0.224-0.5,0.5-0.5s0.5,0.224,0.5,0.5v1
		C17.892,23.409,17.668,23.633,17.392,23.633z"/>
	<path d="M17.392,20.133c-0.276,0-0.5-0.224-0.5-0.5v-2.632c0-0.276,0.224-0.5,0.5-0.5s0.5,0.224,0.5,0.5v2.632
		C17.892,19.909,17.668,20.133,17.392,20.133z"/>
	<path d="M23.392,20.501c-0.276,0-0.5-0.224-0.5-0.5v-2.868c0-0.276,0.224-0.5,0.5-0.5s0.5,0.224,0.5,0.5v2.868
		C23.892,20.277,23.668,20.501,23.392,20.501z"/>
	<path d="M23.392,23.633c-0.276,0-0.5-0.224-0.5-0.5v-1c0-0.276,0.224-0.5,0.5-0.5s0.5,0.224,0.5,0.5v1
		C23.892,23.409,23.668,23.633,23.392,23.633z"/>
	<path d="M23.392,15.133c-0.276,0-0.5-0.224-0.5-0.5v-10h-15.5c-0.276,0-0.5-0.224-0.5-0.5V1.78L1.128,7.133l5.764,5.353v-2.353
		c0-0.276,0.224-0.5,0.5-0.5h10c0.276,0,0.5,0.224,0.5,0.5v4.5c0,0.276-0.224,0.5-0.5,0.5s-0.5-0.224-0.5-0.5v-4h-9v2.5
		c0,0.495-0.313,0.67-0.409,0.712c-0.055,0.024-0.143,0.052-0.253,0.052c-0.133,0-0.335-0.041-0.546-0.238L0.419,7.839
		c-0.02-0.018-0.045-0.043-0.068-0.068c-0.17-0.189-0.256-0.434-0.242-0.689s0.126-0.49,0.316-0.661l6.261-5.814
		c0.211-0.196,0.413-0.237,0.545-0.237c0.111,0,0.199,0.028,0.253,0.052C7.58,0.463,7.892,0.638,7.892,1.133v2.5h15.5
		c0.276,0,0.5,0.224,0.5,0.5v10.5C23.892,14.909,23.668,15.133,23.392,15.133z"/>
</g>
</svg>
