<?xml version="1.0" encoding="utf-8"?>
<!-- Generator: Adobe Illustrator 22.1.0, SVG Export Plug-In . SVG Version: 6.00 Build 0)  -->
<svg version="1.1" id="Light" xmlns="http://www.w3.org/2000/svg" xmlns:xlink="http://www.w3.org/1999/xlink" x="0px" y="0px"
	 viewBox="0 0 24 24" style="enable-background:new 0 0 24 24;" xml:space="preserve">
<g>
	<title>diagram-up-double</title>
	<path d="M12,24.001c-4.963,0-9-4.037-9-9V1.708L0.854,3.854C0.759,3.949,0.634,4.001,0.5,4.001S0.241,3.949,0.147,3.854
		c-0.195-0.195-0.195-0.512,0-0.707l3-3c0.046-0.046,0.101-0.083,0.162-0.108C3.37,0.014,3.434,0.001,3.5,0.001
		s0.13,0.013,0.191,0.038c0.062,0.026,0.116,0.062,0.163,0.108l3,3c0.195,0.195,0.195,0.512,0,0.707
		C6.759,3.949,6.634,4.001,6.5,4.001S6.241,3.949,6.147,3.854L4,1.708v13.293c0,4.411,3.589,8,8,8c4.411,0,8-3.589,8-8V1.708
		l-2.146,2.146c-0.094,0.094-0.22,0.146-0.354,0.146s-0.259-0.052-0.354-0.146c-0.195-0.195-0.195-0.512,0-0.707l3-3
		c0.047-0.047,0.102-0.083,0.163-0.109c0.061-0.025,0.125-0.038,0.191-0.038s0.13,0.013,0.191,0.038s0.116,0.062,0.163,0.108l3,3
		c0.195,0.195,0.195,0.512,0,0.707c-0.094,0.094-0.22,0.146-0.354,0.146s-0.259-0.052-0.354-0.146L21,1.708v13.293
		C21,19.963,16.963,24.001,12,24.001z"/>
</g>
</svg>
