<?xml version="1.0" encoding="utf-8"?>
<!-- Generator: Adobe Illustrator 22.1.0, SVG Export Plug-In . SVG Version: 6.00 Build 0)  -->
<svg version="1.1" id="Light" xmlns="http://www.w3.org/2000/svg" xmlns:xlink="http://www.w3.org/1999/xlink" x="0px" y="0px"
	 viewBox="0 0 24 24" style="enable-background:new 0 0 24 24;" xml:space="preserve">
<g>
	<title>diagram-arrow-dash-corner-right-down</title>
	<path d="M5.218,1.708c-0.134,0-0.26-0.052-0.354-0.147L4.159,0.853c-0.094-0.095-0.146-0.22-0.146-0.354
		c0-0.134,0.053-0.259,0.147-0.353C4.254,0.052,4.38,0,4.513,0c0.134,0,0.26,0.052,0.354,0.147l0.705,0.708
		c0.094,0.095,0.146,0.22,0.146,0.354c0,0.134-0.053,0.259-0.147,0.353C5.477,1.656,5.351,1.708,5.218,1.708z"/>
	<path d="M8.508,5.013c-0.134,0-0.26-0.052-0.354-0.147L6.556,3.261C6.462,3.166,6.411,3.04,6.411,2.907s0.053-0.259,0.147-0.353
		c0.094-0.094,0.22-0.146,0.353-0.146c0.134,0,0.26,0.052,0.355,0.147l1.597,1.605c0.094,0.094,0.146,0.22,0.146,0.354
		S8.955,4.773,8.861,4.867C8.766,4.961,8.641,5.013,8.508,5.013z"/>
	<path d="M4.607,9.451c-0.13,0-0.254-0.05-0.348-0.141L2.668,7.769C2.47,7.577,2.465,7.26,2.657,7.062
		C2.752,6.964,2.879,6.91,3.016,6.91c0.13,0,0.254,0.05,0.348,0.141l1.591,1.541c0.198,0.192,0.203,0.509,0.011,0.707
		C4.871,9.397,4.743,9.451,4.607,9.451z"/>
	<path d="M1.237,6.187c-0.131,0-0.254-0.05-0.348-0.141L0.172,5.351C0.076,5.258,0.022,5.133,0.02,5
		C0.018,4.866,0.068,4.74,0.161,4.644C0.254,4.548,0.385,4.492,0.52,4.492c0.131,0,0.255,0.05,0.348,0.141l0.717,0.695
		c0.096,0.093,0.15,0.218,0.152,0.351c0.002,0.134-0.048,0.26-0.141,0.356C1.501,6.133,1.373,6.187,1.237,6.187z"/>
	<path d="M14.497,23.962c-0.484,0-0.665-0.307-0.709-0.401c-0.044-0.094-0.164-0.43,0.147-0.804l1.879-2.255l-9.871-9.558
		c-0.198-0.192-0.203-0.509-0.012-0.707c0.095-0.098,0.223-0.152,0.359-0.152c0.13,0,0.254,0.05,0.348,0.141l10.204,9.881
		c0.187,0.181,0.203,0.48,0.036,0.679l-1.815,2.179L22.984,23l-0.002-7.942l-2.198,1.843c-0.09,0.075-0.204,0.117-0.321,0.117
		c-0.134,0-0.26-0.052-0.354-0.147l-9.463-9.501c-0.006-0.006-0.011-0.012-0.017-0.019L9.943,6.663
		c-0.094-0.095-0.146-0.22-0.146-0.354c0-0.134,0.053-0.259,0.147-0.353c0.094-0.094,0.219-0.146,0.353-0.146
		c0.134,0,0.26,0.052,0.354,0.147l0.705,0.708c0.006,0.006,0.012,0.013,0.018,0.02l9.119,9.155l2.286-1.917
		c0.207-0.174,0.401-0.211,0.527-0.211c0.121,0,0.216,0.032,0.274,0.059c0.095,0.044,0.402,0.225,0.402,0.713V23
		c0,0.552-0.448,1-1,1C22.981,24,14.497,23.962,14.497,23.962z"/>
</g>
</svg>
