<?xml version="1.0" encoding="utf-8"?>
<!-- Generator: Adobe Illustrator 22.1.0, SVG Export Plug-In . SVG Version: 6.00 Build 0)  -->
<svg version="1.1" id="Light" xmlns="http://www.w3.org/2000/svg" xmlns:xlink="http://www.w3.org/1999/xlink" x="0px" y="0px"
	 viewBox="0 0 24 24" style="enable-background:new 0 0 24 24;" xml:space="preserve">
<g>
	<title>diagram-arrow-bow</title>
	<path d="M0.744,24c-0.276-0.003-0.497-0.23-0.495-0.505C0.252,23.217,0.469,23,0.743,23l0.151,0.001
		C6.95,23,11.93,18.066,11.999,12h-11.5c-0.276,0-0.5-0.224-0.5-0.5s0.224-0.5,0.5-0.5h11.441C11.372,5.37,6.562,0.999,0.873,0.999
		L0.755,1C0.464,0.988,0.252,0.776,0.249,0.505C0.248,0.372,0.299,0.246,0.392,0.15C0.485,0.055,0.61,0.001,0.744,0l0.142-0.001
		c6.233,0,11.485,4.813,12.059,11.001h9.347l-2.146-2.146c-0.195-0.195-0.195-0.512,0-0.707C20.24,8.052,20.366,8,20.499,8
		s0.259,0.052,0.354,0.146l3,3c0.046,0.046,0.083,0.101,0.109,0.163c0.05,0.121,0.05,0.261,0,0.382
		c-0.025,0.061-0.062,0.116-0.109,0.163l-2.999,2.999C20.758,14.948,20.633,15,20.499,15s-0.259-0.052-0.354-0.146
		c-0.195-0.195-0.195-0.512,0-0.707L22.292,12h-9.293c-0.075,6.62-5.513,12-12.124,12.001L0.744,24z"/>
</g>
</svg>
