<?xml version="1.0" encoding="utf-8"?>
<!-- Generator: Adobe Illustrator 22.1.0, SVG Export Plug-In . SVG Version: 6.00 Build 0)  -->
<svg version="1.1" id="Light" xmlns="http://www.w3.org/2000/svg" xmlns:xlink="http://www.w3.org/1999/xlink" x="0px" y="0px"
	 viewBox="0 0 24 24" style="enable-background:new 0 0 24 24;" xml:space="preserve">
<g>
	<title>diagram-fast-up</title>
	<path d="M12.226,19.522c-0.155,0-0.299-0.07-0.394-0.192c-0.082-0.105-0.118-0.236-0.102-0.369
		c0.016-0.133,0.083-0.251,0.188-0.333c0.251-0.196,0.506-0.404,0.758-0.619C17.336,14.034,20.006,8.24,20,2.113
		c0-0.099,0.001-0.234,0.003-0.385l-2.149,2.149c-0.094,0.094-0.22,0.146-0.354,0.146s-0.259-0.052-0.354-0.146S17,3.657,17,3.524
		s0.052-0.259,0.146-0.354l3-3c0.016-0.016,0.052-0.042,0.071-0.053c0.011-0.009,0.04-0.031,0.08-0.049
		c0.042-0.018,0.079-0.025,0.101-0.029c0.003-0.002,0.035-0.012,0.077-0.014c0.004,0,0.029,0,0.038,0.001
		c0.019,0.001,0.037,0.004,0.055,0.007C20.6,0.037,20.64,0.042,20.684,0.06c0.017,0.007,0.049,0.025,0.064,0.035
		c0.012,0.006,0.044,0.023,0.078,0.052c0.012,0.009,0.024,0.02,0.034,0.03l2.994,2.994c0.195,0.195,0.195,0.512,0,0.707
		c-0.094,0.094-0.22,0.146-0.354,0.146s-0.259-0.052-0.354-0.146l-2.144-2.144C21.001,1.883,21,2.016,21,2.113
		c0.006,6.42-2.791,12.491-7.675,16.657c-0.263,0.224-0.529,0.441-0.791,0.646C12.446,19.484,12.337,19.522,12.226,19.522z"/>
	<path d="M3.774,23.509c-0.236,0-0.436-0.161-0.488-0.391c-0.029-0.13-0.006-0.264,0.066-0.377c0.072-0.113,0.183-0.191,0.313-0.22
		c0.772-0.173,1.544-0.392,2.295-0.652c0.053-0.019,0.108-0.028,0.165-0.028c0.212,0,0.402,0.135,0.472,0.336
		c0.044,0.126,0.036,0.262-0.022,0.382s-0.16,0.21-0.286,0.254c-0.785,0.272-1.594,0.502-2.405,0.683
		C3.848,23.505,3.811,23.509,3.774,23.509z"/>
	<path d="M8.213,21.988c-0.192,0-0.37-0.113-0.452-0.286c-0.118-0.249-0.011-0.548,0.238-0.666c0.697-0.329,1.383-0.701,2.039-1.104
		c0.079-0.049,0.169-0.074,0.262-0.074c0.175,0,0.335,0.089,0.426,0.239c0.07,0.113,0.091,0.247,0.06,0.377
		c-0.031,0.13-0.111,0.24-0.224,0.31c-0.688,0.423-1.406,0.812-2.135,1.156C8.359,21.972,8.287,21.988,8.213,21.988z"/>
	<path d="M0.499,23.978c-0.262,0-0.482-0.205-0.499-0.467c-0.018-0.275,0.192-0.514,0.466-0.532
		c0.334-0.022,0.663-0.051,0.977-0.086c0.02-0.002,0.037-0.003,0.054-0.003c0.256,0,0.471,0.191,0.499,0.444
		c0.031,0.274-0.167,0.522-0.441,0.553c-0.331,0.037-0.676,0.068-1.024,0.09C0.527,23.977,0.505,23.978,0.499,23.978z"/>
</g>
</svg>
