<?xml version="1.0" encoding="utf-8"?>
<!-- Generator: Adobe Illustrator 22.1.0, SVG Export Plug-In . SVG Version: 6.00 Build 0)  -->
<svg version="1.1" id="Light" xmlns="http://www.w3.org/2000/svg" xmlns:xlink="http://www.w3.org/1999/xlink" x="0px" y="0px"
	 viewBox="0 0 24 24" style="enable-background:new 0 0 24 24;" xml:space="preserve">
<g>
	<title>diagram-arrow-left</title>
	<path d="M7.231,18.763c-0.132,0-0.334-0.041-0.545-0.237l-6.267-5.82c-0.185-0.166-0.296-0.399-0.31-0.655
		c-0.014-0.255,0.073-0.501,0.244-0.691c0.024-0.026,0.048-0.05,0.073-0.073l6.26-5.814c0.21-0.196,0.412-0.237,0.544-0.237
		c0.111,0,0.199,0.028,0.253,0.052C7.579,5.329,7.892,5.503,7.892,6v2.5h15c0.552,0,1,0.449,1,1v5c0,0.552-0.448,1-1,1h-15V18
		c0,0.496-0.313,0.67-0.408,0.712C7.429,18.735,7.341,18.763,7.231,18.763z M6.892,17.353V15c0-0.276,0.224-0.5,0.5-0.5h15.5v-5
		h-15.5c-0.276,0-0.5-0.224-0.5-0.5V6.646L1.128,12L6.892,17.353z"/>
</g>
</svg>
