<?xml version="1.0" encoding="utf-8"?>
<!-- Generator: Adobe Illustrator 22.1.0, SVG Export Plug-In . SVG Version: 6.00 Build 0)  -->
<svg version="1.1" id="Light" xmlns="http://www.w3.org/2000/svg" xmlns:xlink="http://www.w3.org/1999/xlink" x="0px" y="0px"
	 viewBox="0 0 24 24" style="enable-background:new 0 0 24 24;" xml:space="preserve">
<g>
	<title>diagram-arrow-down-right-corner</title>
	<path d="M14.399,23.876c-0.486-0.002-0.666-0.309-0.71-0.403c-0.044-0.094-0.163-0.429,0.148-0.803l1.883-2.26L0.412,5.581
		C0.024,5.198,0,4.58,0.356,4.172l3.338-3.757C3.709,0.398,3.727,0.379,3.746,0.36c0.182-0.176,0.42-0.273,0.673-0.273
		c0.264,0,0.51,0.104,0.693,0.293l15.3,15.364l2.285-1.923c0.206-0.174,0.4-0.211,0.527-0.211c0.122,0,0.217,0.032,0.276,0.06
		c0.094,0.044,0.402,0.225,0.402,0.712v8.531c0,0.552-0.448,1-1,1C22.901,23.914,14.399,23.876,14.399,23.876z M22.904,22.914
		l-0.002-7.957l-2.198,1.85c-0.091,0.076-0.205,0.117-0.322,0.117c-0.134,0-0.26-0.052-0.354-0.147L4.42,1.103L1.107,4.833
		C1.101,4.839,1.101,4.856,1.111,4.866l15.638,15.148c0.187,0.181,0.203,0.479,0.037,0.679l-1.821,2.185L22.904,22.914z"/>
</g>
</svg>
