<?xml version="1.0" encoding="utf-8"?>
<!-- Generator: Adobe Illustrator 22.1.0, SVG Export Plug-In . SVG Version: 6.00 Build 0)  -->
<svg version="1.1" id="Light" xmlns="http://www.w3.org/2000/svg" xmlns:xlink="http://www.w3.org/1999/xlink" x="0px" y="0px"
	 viewBox="0 0 24 24" style="enable-background:new 0 0 24 24;" xml:space="preserve">
<g>
	<title>diagram-curvy</title>
	<path d="M6.499,23.875c-3.584,0-6.5-2.916-6.5-6.5V0.625c0-0.276,0.224-0.5,0.5-0.5s0.5,0.224,0.5,0.5v16.75
		c0,3.033,2.467,5.5,5.5,5.5s5.5-2.467,5.5-5.5v-7.75c0-3.308,2.692-6,6-6h4.293l-2.146-2.146c-0.195-0.195-0.195-0.512,0-0.707
		c0.094-0.094,0.22-0.146,0.354-0.146s0.259,0.052,0.354,0.146l3,3c0.046,0.046,0.083,0.101,0.109,0.163
		c0.05,0.121,0.05,0.261,0,0.382c-0.025,0.061-0.062,0.116-0.109,0.163l-2.999,2.999c-0.094,0.094-0.22,0.146-0.354,0.146
		s-0.259-0.052-0.354-0.146c-0.195-0.195-0.195-0.512,0-0.707l2.146-2.146h-4.293c-2.757,0-5,2.243-5,5v7.75
		C12.999,20.959,10.083,23.875,6.499,23.875z"/>
</g>
</svg>
