<?xml version="1.0" encoding="utf-8"?>
<!-- Generator: Adobe Illustrator 22.1.0, SVG Export Plug-In . SVG Version: 6.00 Build 0)  -->
<svg version="1.1" id="Light" xmlns="http://www.w3.org/2000/svg" xmlns:xlink="http://www.w3.org/1999/xlink" x="0px" y="0px"
	 viewBox="0 0 24 24" style="enable-background:new 0 0 24 24;" xml:space="preserve">
<g>
	<title>diagram-increase</title>
	<path d="M0.5,20.754c-0.276,0-0.5-0.224-0.5-0.5s0.224-0.5,0.5-0.5h10.307c3.419,0,6.404-2.311,7.261-5.621l2.407-9.3l-2.552,1.576
		c-0.079,0.049-0.17,0.075-0.263,0.075c-0.175,0-0.334-0.089-0.426-0.238c-0.144-0.234-0.072-0.542,0.163-0.688l3.61-2.229
		c0.01-0.006,0.021-0.012,0.032-0.017c0.037-0.019,0.07-0.029,0.098-0.036c0.019-0.007,0.042-0.013,0.059-0.016
		c0.012-0.002,0.026-0.003,0.04-0.003c0.006,0,0.015,0,0.023,0.001l0.023-0.001c0.031,0,0.061,0.003,0.089,0.008
		c0.007,0.001,0.014,0.003,0.021,0.004c0.023,0.006,0.063,0.023,0.084,0.035c0.011,0.003,0.05,0.018,0.09,0.048
		c0.04,0.029,0.066,0.062,0.082,0.082l0,0c0.001,0,0.024,0.022,0.045,0.056l2.23,3.611c0.145,0.234,0.072,0.543-0.162,0.688
		c-0.079,0.049-0.17,0.075-0.263,0.075c-0.175,0-0.334-0.089-0.426-0.238l-1.613-2.613l-2.426,9.37
		c-0.971,3.75-4.354,6.37-8.228,6.37H0.5z"/>
</g>
</svg>
