<?xml version="1.0" encoding="utf-8"?>
<!-- Generator: Adobe Illustrator 22.1.0, SVG Export Plug-In . SVG Version: 6.00 Build 0)  -->
<svg version="1.1" id="Light" xmlns="http://www.w3.org/2000/svg" xmlns:xlink="http://www.w3.org/1999/xlink" x="0px" y="0px"
	 viewBox="0 0 24 24" style="enable-background:new 0 0 24 24;" xml:space="preserve">
<g>
	<title>diagram-all-direction-expand</title>
	<path d="M11.5,23.501c-0.066,0-0.13-0.013-0.192-0.039c-0.061-0.025-0.116-0.062-0.163-0.109l-2.999-2.999
		c-0.195-0.195-0.195-0.512,0-0.707c0.094-0.094,0.22-0.146,0.354-0.146s0.259,0.052,0.354,0.146L11,21.794v-9.293H1.707
		l2.146,2.146c0.195,0.195,0.195,0.512,0,0.707c-0.094,0.094-0.22,0.146-0.354,0.146s-0.259-0.052-0.354-0.146l-3-3
		c-0.046-0.046-0.083-0.101-0.108-0.162c-0.05-0.122-0.05-0.261,0-0.383c0.026-0.062,0.062-0.116,0.108-0.163l3-3
		C3.241,8.553,3.367,8.501,3.5,8.501s0.259,0.052,0.354,0.146c0.195,0.195,0.195,0.512,0,0.707l-2.146,2.146H11V2.208L8.854,4.354
		C8.759,4.449,8.634,4.501,8.5,4.501S8.241,4.449,8.147,4.354c-0.195-0.195-0.195-0.512,0-0.707l3-3
		c0.046-0.046,0.101-0.083,0.162-0.108c0.061-0.025,0.126-0.038,0.192-0.038s0.13,0.013,0.191,0.038
		c0.062,0.026,0.116,0.062,0.163,0.108l3,3c0.195,0.195,0.195,0.512,0,0.707c-0.094,0.094-0.22,0.146-0.354,0.146
		s-0.259-0.052-0.354-0.146L12,2.208v9.293h10.293l-2.146-2.146c-0.195-0.195-0.195-0.512,0-0.707
		c0.094-0.094,0.22-0.146,0.354-0.146s0.259,0.052,0.354,0.146l3,3c0.046,0.046,0.083,0.101,0.109,0.163
		c0.05,0.121,0.05,0.261,0,0.382c-0.025,0.061-0.062,0.116-0.109,0.162l-2.999,3c-0.094,0.094-0.22,0.146-0.354,0.146
		s-0.259-0.052-0.354-0.146c-0.195-0.195-0.195-0.512,0-0.707l2.146-2.146H12v9.293l2.146-2.146c0.094-0.094,0.22-0.146,0.354-0.146
		s0.259,0.052,0.354,0.146c0.195,0.195,0.195,0.512,0,0.707l-3,3c-0.046,0.046-0.101,0.083-0.163,0.109
		C11.63,23.488,11.566,23.501,11.5,23.501z"/>
</g>
</svg>
