<?xml version="1.0" encoding="utf-8"?>
<!-- Generator: Adobe Illustrator 22.1.0, SVG Export Plug-In . SVG Version: 6.00 Build 0)  -->
<svg version="1.1" id="Layer_1" xmlns="http://www.w3.org/2000/svg" xmlns:xlink="http://www.w3.org/1999/xlink" x="0px" y="0px"
	 viewBox="0 0 24 24" style="enable-background:new 0 0 24 24;" xml:space="preserve">
<g>
	<title>web-service-mylife</title>
	<path d="M6.877,8.85c-0.78,0-1.514-0.304-2.066-0.855C4.259,7.442,3.954,6.708,3.954,5.927C3.95,5.15,4.251,4.417,4.799,3.864
		c0.548-0.553,1.279-0.859,2.057-0.862c0.802,0,1.536,0.304,2.089,0.855C9.497,4.41,9.801,5.144,9.802,5.925
		c0,0.781-0.303,1.515-0.855,2.068C8.394,8.545,7.66,8.85,6.879,8.85C6.879,8.85,6.877,8.85,6.877,8.85z M6.863,4.002
		C6.35,4.004,5.869,4.205,5.509,4.568c-0.36,0.363-0.557,0.844-0.555,1.356c0,0.516,0.201,1,0.564,1.363
		C5.881,7.65,6.364,7.85,6.878,7.85c0.515,0,0.998-0.201,1.361-0.564c0.363-0.363,0.563-0.847,0.563-1.361
		c0-0.514-0.201-0.997-0.564-1.36c-0.363-0.363-0.846-0.563-1.36-0.563c-0.003,0-0.005,0-0.008,0
		C6.868,4.002,6.866,4.002,6.863,4.002z"/>
	<path d="M2.924,16.905c-0.41,0-0.799-0.117-1.127-0.339c-0.758-0.514-1.001-1.447-0.606-2.322c0.929-2.073,5.328-3.826,8.871-4.26
		c0.001,0,0.002,0,0.003,0c0.914-0.108,1.861-0.162,2.813-0.162c3.491,0,6.81,0.711,9.106,1.95c0.509,0.287,0.552,0.696,0.437,0.959
		c-0.114,0.258-0.379,0.412-0.711,0.412c0,0,0,0,0,0c-0.133,0-0.278-0.025-0.428-0.074c-1.999-0.618-4.078-0.949-6.176-0.983
		c-0.238-0.008-0.465-0.011-0.689-0.011c-5.136,0-7.699,1.922-9.704,3.999C4.052,16.76,3.375,16.905,2.924,16.905z M12.89,10.82
		c-0.917,0-1.829,0.053-2.709,0.156c-3.211,0.394-7.349,2.05-8.079,3.678c-0.195,0.43-0.097,0.845,0.255,1.083
		c0.159,0.108,0.353,0.165,0.56,0.165c0.26,0,0.658-0.091,1.075-0.523c2.158-2.235,4.915-4.304,10.433-4.304
		c0.229,0,0.464,0.003,0.702,0.011c0.692,0.011,1.383,0.053,2.07,0.126C15.846,10.956,14.383,10.82,12.89,10.82z"/>
</g>
</svg>
