<?xml version="1.0" encoding="utf-8"?>
<!-- Generator: Adobe Illustrator 22.1.0, SVG Export Plug-In . SVG Version: 6.00 Build 0)  -->
<svg version="1.1" id="Layer_1" xmlns="http://www.w3.org/2000/svg" xmlns:xlink="http://www.w3.org/1999/xlink" x="0px" y="0px"
	 viewBox="0 0 24 24" style="enable-background:new 0 0 24 24;" xml:space="preserve">
<g>
	<title>web-service-treehouse</title>
	<path d="M11.733,23.999c-0.453,0-0.903-0.109-1.303-0.315l-8.106-4.733C1.535,18.422,1.045,17.559,1,16.634l0-9.248
		c0.044-0.944,0.53-1.808,1.298-2.324l8.104-4.734c0.42-0.216,0.877-0.327,1.333-0.327c0.452,0,0.902,0.109,1.302,0.314l1.198,0.705
		c0.895,0.52,1.021,1.976,0.284,3.315l-1.074,1.957c-0.83,1.615-2.292,2.437-4.344,2.437c-0.532,0-1.02-0.053-1.376-0.092
		c-0.2-0.022-0.369-0.04-0.485-0.044L7.211,8.592c-0.16,0-0.322,0.055-0.454,0.155c-0.371,0.285-0.453,0.813-0.185,1.2l0.027,0.039
		c0.144,0.193,0.371,0.307,0.619,0.307c0.168,0,0.328-0.053,0.462-0.154c0.061-0.046,0.117-0.102,0.165-0.165
		c0.095-0.125,0.24-0.197,0.397-0.197c0.087,0,0.171,0.022,0.246,0.065c0.022,0.005,0.073,0.014,0.158,0.014
		c0.299,0,0.997-0.111,2.321-0.851c0.074-0.042,0.159-0.064,0.244-0.064c0.168,0,0.323,0.083,0.416,0.223
		c0.144,0.215,0.097,0.51-0.107,0.67c-0.094,0.074-0.211,0.168-0.345,0.275c-1.463,1.171-3.097,2.436-3.969,2.633
		c-0.146,0.033-0.283,0.1-0.397,0.196c-0.421,0.361-0.483,0.991-0.14,1.433c0.012,0.016,0.021,0.027,0.03,0.038
		c0.16,0.189,0.383,0.304,0.629,0.324c0.029,0.003,0.056,0.004,0.083,0.004c0.217,0,0.421-0.076,0.59-0.219
		c0.105-0.089,0.19-0.196,0.251-0.319c0.542-1.079,1.072-1.364,1.54-1.615c0.471-0.253,0.916-0.493,1.54-1.823
		c0.082-0.175,0.259-0.288,0.453-0.288c0.056,0,0.111,0.009,0.165,0.028c0.243,0.084,0.381,0.337,0.322,0.587
		c-0.411,1.738-0.928,3.471-1.539,5.15c-0.045,0.125-0.136,0.224-0.256,0.281l-0.033,0.017c-0.293,0.152-0.511,0.41-0.612,0.726
		s-0.072,0.652,0.081,0.946l0.029,0.056c0.194,0.356,0.574,0.581,0.988,0.581c0.187,0,0.372-0.048,0.537-0.137
		c0.01-0.006,0.032-0.02,0.054-0.034c0.279-0.184,0.47-0.466,0.537-0.793c0.068-0.328,0.003-0.662-0.181-0.942
		c-0.062-0.094-0.09-0.207-0.08-0.319c0.067-0.75,0.229-1.49,0.481-2.199c0.244-0.826,0.913-1.806,1.664-1.968
		c0.07-0.015,0.142-0.023,0.211-0.023c0.264,0,0.508,0.114,0.687,0.321c0.649,0.749,0.671,1.149,0.631,1.632
		c-0.015,0.179-0.027,0.333,0.04,0.581c0,0,0.004,0.015,0.006,0.023c0.116,0.421,0.499,0.714,0.931,0.714
		c0.086,0,0.172-0.012,0.256-0.035c0.495-0.154,0.793-0.67,0.687-1.184c-0.595-0.871-1.242-1.718-1.924-2.519
		c-0.013-0.016-0.024-0.03-0.033-0.044l-0.038-0.056c-0.692-1.045-0.778-2.39-0.225-3.51c0.002-0.005,0.01-0.02,0.013-0.024
		c1.41-2.543,2.642-3.93,3.764-4.237c0.161-0.044,0.322-0.067,0.478-0.067c0.29,0,0.569,0.077,0.827,0.228
		c0.724,0.426,1.319,0.772,1.33,0.778c0.814,0.519,1.327,1.354,1.415,2.299L23,16.601c-0.091,0.981-0.6,1.823-1.399,2.332
		l-8.546,4.744C12.643,23.889,12.189,23.999,11.733,23.999z M11.736,1c-0.296,0-0.591,0.071-0.853,0.206L2.829,5.909
		C2.344,6.236,2.029,6.8,2,7.41l0,9.2c0.029,0.591,0.349,1.154,0.855,1.494l8.056,4.703C11.153,22.932,11.441,23,11.732,23
		c0.296,0,0.59-0.071,0.851-0.206l8.506-4.721c0.515-0.33,0.853-0.886,0.913-1.52L22,7.376c-0.058-0.597-0.4-1.149-0.937-1.491
		l0.003-0.005c-0.141-0.072-0.465-0.262-1.32-0.765c-0.104-0.061-0.209-0.091-0.323-0.091c-0.066,0-0.138,0.01-0.212,0.031
		c-0.471,0.129-1.507,0.788-3.153,3.755c-0.387,0.791-0.325,1.751,0.168,2.496l0.02,0.029c0.718,0.844,1.398,1.739,2.022,2.658
		c0.03,0.044,0.053,0.093,0.068,0.145c0.3,1.066-0.293,2.158-1.35,2.487c-0.181,0.05-0.359,0.074-0.537,0.074
		c-0.88,0-1.659-0.592-1.894-1.439l-0.012-0.048c-0.11-0.405-0.086-0.699-0.068-0.913c0.022-0.263,0.033-0.398-0.359-0.858
		c-0.221,0.092-0.683,0.6-0.887,1.289c-0.213,0.6-0.353,1.207-0.42,1.819c0.256,0.467,0.337,1.009,0.229,1.533
		c-0.121,0.589-0.465,1.096-0.968,1.427c-0.037,0.024-0.074,0.048-0.112,0.07c-0.32,0.174-0.673,0.264-1.028,0.264
		c-0.781,0-1.497-0.424-1.869-1.106c-0.014-0.026-0.027-0.051-0.04-0.077c-0.272-0.526-0.323-1.131-0.142-1.702
		c0.166-0.522,0.512-0.96,0.978-1.24c0.292-0.815,0.564-1.648,0.811-2.486c-0.141,0.091-0.275,0.164-0.403,0.232
		c-0.402,0.216-0.719,0.387-1.12,1.184c-0.123,0.244-0.291,0.456-0.499,0.632c-0.346,0.293-0.786,0.455-1.239,0.455
		c-0.054,0-0.108-0.002-0.162-0.007c-0.512-0.042-0.977-0.282-1.308-0.674c-0.021-0.026-0.041-0.051-0.061-0.076
		c-0.669-0.86-0.543-2.093,0.286-2.805c0.24-0.201,0.524-0.341,0.825-0.409c0.21-0.047,0.651-0.254,1.575-0.911
		C8.506,10.852,8.452,10.847,8.4,10.84c-0.038,0.034-0.077,0.067-0.118,0.097c-0.312,0.233-0.679,0.355-1.063,0.355
		c-0.085,0-0.171-0.006-0.256-0.018c-0.47-0.068-0.884-0.315-1.168-0.694c-0.016-0.022-0.033-0.045-0.049-0.069
		C5.176,9.688,5.354,8.562,6.152,7.95c0.307-0.231,0.684-0.358,1.064-0.358l0.056,0.001c0.155,0.005,0.341,0.025,0.557,0.049
		c0.364,0.04,0.81,0.088,1.285,0.088c1.662,0,2.79-0.624,3.449-1.907c0.007-0.013,0.494-0.901,1.082-1.969
		c0.482-0.876,0.443-1.763,0.087-1.97l-1.176-0.693C12.315,1.068,12.027,1,11.736,1z"/>
</g>
</svg>
