<?xml version="1.0" encoding="utf-8"?>
<!-- Generator: Adobe Illustrator 22.1.0, SVG Export Plug-In . SVG Version: 6.00 Build 0)  -->
<svg version="1.1" id="Layer_1" xmlns="http://www.w3.org/2000/svg" xmlns:xlink="http://www.w3.org/1999/xlink" x="0px" y="0px"
	 viewBox="0 0 24 24" style="enable-background:new 0 0 24 24;" xml:space="preserve">
<g>
	<title>web-service-amazon-web-services</title>
	<path d="M13.5,24c-0.104,0-0.205-0.032-0.29-0.092C13.079,23.814,13,23.661,13,23.5V8.818c0-0.219,0.14-0.41,0.349-0.477l10-3.173
		c0.05-0.016,0.1-0.023,0.152-0.023c0.107,0,0.209,0.033,0.295,0.096C23.924,5.335,24,5.486,24,5.645V20
		c0,0.212-0.135,0.402-0.335,0.472l-10,3.5C13.611,23.99,13.556,24,13.5,24z M14,22.795l9-3.15V6.328l-9,2.856V22.795z"/>
	<path d="M10.5,23.952c-0.056,0-0.111-0.009-0.164-0.028l-9.934-3.452c-0.2-0.069-0.335-0.258-0.336-0.47L0,5.554
		c-0.001-0.16,0.076-0.312,0.206-0.407C0.292,5.085,0.394,5.052,0.5,5.052c0.054,0,0.108,0.009,0.159,0.026l9.999,3.313
		C10.862,8.459,11,8.65,11,8.866v14.586c0,0.161-0.079,0.314-0.21,0.407C10.705,23.92,10.604,23.952,10.5,23.952z M10,22.749V9.227
		L1.003,6.245l0.061,13.398L10,22.749z"/>
	<path d="M11.99,7.035c-0.047,0-0.095-0.007-0.141-0.02L1.451,3.963C1.238,3.9,1.09,3.701,1.092,3.478
		C1.094,3.256,1.246,3.059,1.46,3.001l10.398-2.842c0.042-0.012,0.087-0.018,0.131-0.018c0.046,0,0.092,0.006,0.137,0.019
		l10.542,2.998c0.215,0.061,0.364,0.26,0.363,0.483c-0.001,0.223-0.152,0.421-0.367,0.48L12.123,7.017
		C12.079,7.029,12.035,7.035,11.99,7.035z M11.994,6.015l8.68-2.385L11.987,1.16L3.426,3.5L11.994,6.015z"/>
</g>
</svg>
