<?xml version="1.0" encoding="utf-8"?>
<!-- Generator: Adobe Illustrator 22.1.0, SVG Export Plug-In . SVG Version: 6.00 Build 0)  -->
<svg version="1.1" id="Layer_1" xmlns="http://www.w3.org/2000/svg" xmlns:xlink="http://www.w3.org/1999/xlink" x="0px" y="0px"
	 viewBox="0 0 24 24" style="enable-background:new 0 0 24 24;" xml:space="preserve">
<g>
	<title>web-service-virb</title>
	<path d="M6.185,20c-0.204,0-0.386-0.122-0.463-0.312l-5.685-14c-0.062-0.154-0.044-0.329,0.048-0.467C0.178,5.082,0.333,5,0.5,5
		h4.863C5.57,5,5.758,5.13,5.831,5.324l2.916,7.749l2.879-7.747C11.699,5.131,11.887,5,12.095,5h4.721
		c0.166,0,0.321,0.082,0.414,0.219c0.093,0.138,0.112,0.312,0.051,0.466l-5.588,14C11.616,19.876,11.434,20,11.228,20H6.185z
		 M10.889,19l5.189-13h-3.635l-3.224,8.674C9.146,14.869,8.958,15,8.751,15c-0.208,0-0.396-0.13-0.469-0.324L5.017,6H1.243l5.279,13
		H10.889z"/>
	<path d="M21,11c-1.654,0-3-1.346-3-3s1.346-3,3-3s3,1.346,3,3S22.654,11,21,11z M21,6c-1.103,0-2,0.897-2,2s0.897,2,2,2
		s2-0.897,2-2S22.103,6,21,6z"/>
</g>
</svg>
