<?xml version="1.0" encoding="utf-8"?>
<!-- Generator: Adobe Illustrator 22.1.0, SVG Export Plug-In . SVG Version: 6.00 Build 0)  -->
<svg version="1.1" id="Layer_1" xmlns="http://www.w3.org/2000/svg" xmlns:xlink="http://www.w3.org/1999/xlink" x="0px" y="0px"
	 viewBox="0 0 24 24" style="enable-background:new 0 0 24 24;" xml:space="preserve">
<g>
	<title>web-service-squarespace</title>
	<path d="M4.868,15.999c-1.07,0-2.075-0.416-2.829-1.17C1.284,14.073,0.868,13.068,0.868,12c0-1.068,0.416-2.073,1.172-2.828
		l5.656-5.656c0.754-0.754,1.759-1.169,2.828-1.169c1.069,0,2.074,0.415,2.828,1.169l0.007,0.007
		c0.379-0.115,0.772-0.173,1.17-0.173c1.068,0,2.07,0.414,2.822,1.166c0.094,0.094,0.146,0.22,0.146,0.354
		c0,0.134-0.052,0.259-0.146,0.354s-0.22,0.146-0.354,0.146s-0.259-0.052-0.354-0.146c-0.565-0.565-1.319-0.876-2.121-0.876
		c-0.802,0-1.555,0.311-2.121,0.877l-7.37,7.369c-0.094,0.094-0.22,0.146-0.354,0.146s-0.259-0.052-0.354-0.146
		s-0.146-0.22-0.146-0.354c0-0.134,0.052-0.259,0.147-0.354l7.37-7.369c0.204-0.204,0.428-0.384,0.669-0.538
		c-0.524-0.409-1.167-0.63-1.843-0.63c-0.802,0-1.554,0.311-2.119,0.876L2.747,9.879C2.181,10.445,1.868,11.199,1.868,12
		s0.312,1.555,0.878,2.122C3.312,14.688,4.066,15,4.868,14.999c0.802,0,1.555-0.311,2.121-0.876l7.734-7.736
		c0.094-0.094,0.22-0.146,0.354-0.146s0.259,0.052,0.354,0.146c0.094,0.094,0.146,0.22,0.146,0.354c0,0.134-0.052,0.259-0.146,0.354
		L7.696,14.83C6.942,15.584,5.937,15.999,4.868,15.999z"/>
	<path d="M13.842,21.999c-1.069,0-2.073-0.415-2.828-1.169l-0.007-0.007c-0.384,0.117-0.775,0.177-1.165,0.177
		c-1.069,0-2.074-0.415-2.828-1.169c-0.094-0.094-0.146-0.22-0.146-0.354s0.052-0.259,0.146-0.354
		c0.094-0.094,0.22-0.146,0.353-0.146s0.259,0.052,0.354,0.146c0.565,0.565,1.318,0.876,2.12,0.876c0.383,0,0.757-0.071,1.111-0.212
		c0.386-0.154,0.723-0.376,1.011-0.664l7.308-7.309c0.094-0.094,0.22-0.146,0.354-0.146s0.259,0.052,0.354,0.146
		c0.094,0.094,0.146,0.22,0.146,0.354c0,0.134-0.052,0.259-0.146,0.354L12.67,19.83c-0.204,0.204-0.428,0.384-0.669,0.538
		c0.524,0.409,1.167,0.63,1.843,0.63c0.802,0,1.554-0.311,2.119-0.876l5.658-5.658c0.566-0.567,0.878-1.32,0.878-2.122
		c0-0.801-0.312-1.555-0.879-2.121c-0.567-0.566-1.32-0.878-2.121-0.878c-0.802,0-1.555,0.312-2.122,0.879l-7.769,7.768
		c-0.094,0.094-0.22,0.146-0.354,0.146s-0.259-0.052-0.354-0.146s-0.146-0.22-0.146-0.354s0.052-0.259,0.146-0.354l7.769-7.768
		c0.755-0.756,1.76-1.172,2.828-1.172c1.069,0,2.073,0.416,2.829,1.171c0.756,0.755,1.172,1.76,1.172,2.828
		c0,1.068-0.416,2.073-1.171,2.829L16.67,20.83C15.916,21.584,14.912,21.999,13.842,21.999z"/>
</g>
</svg>
