<?xml version="1.0" encoding="utf-8"?>
<!-- Generator: Adobe Illustrator 22.1.0, SVG Export Plug-In . SVG Version: 6.00 Build 0)  -->
<svg version="1.1" id="Layer_1" xmlns="http://www.w3.org/2000/svg" xmlns:xlink="http://www.w3.org/1999/xlink" x="0px" y="0px"
	 viewBox="0 0 24 24" style="enable-background:new 0 0 24 24;" xml:space="preserve">
<g>
	<title>shipment-crane-hook</title>
	<path d="M11.999,23.999c-1.068,0-2.073-0.417-2.828-1.172C8.416,22.071,8,21.067,8,19.998c0-1.878,1.279-3.481,3.11-3.899
		c0.23-0.052,0.39-0.253,0.39-0.487V14H10c-0.131-0.007-0.253-0.025-0.392-0.057C9.552,13.939,9.496,13.924,9.44,13.9
		c-0.559-0.174-1.032-0.564-1.301-1.074L5.965,8.117c-0.284-0.677-0.439-1.38-0.465-2.1l0-4.518C5.5,0.673,6.173,0,7,0h10
		c0.222,0,0.442,0.052,0.653,0.155c0.024,0.01,0.043,0.022,0.053,0.028C18.196,0.447,18.5,0.951,18.5,1.5v4.542
		c-0.026,0.734-0.181,1.438-0.46,2.101l-2.166,4.661c-0.371,0.701-1.077,1.155-1.848,1.196L12.5,14v1.613
		c-0.001,0.705-0.481,1.306-1.168,1.462C9.959,17.388,9,18.59,9,19.998c0,0.801,0.312,1.555,0.878,2.122
		c0.566,0.567,1.32,0.879,2.121,0.879c0.802,0,1.555-0.312,2.121-0.878C14.688,21.555,15,20.801,15,20c0-0.276,0.224-0.5,0.5-0.5
		S16,19.724,16,20c0,1.068-0.417,2.073-1.172,2.828C14.072,23.583,13.068,23.999,11.999,23.999L11.999,23.999z M11.999,13v0.25
		L12.001,13L14,13c0.401-0.022,0.781-0.268,0.979-0.641l2.146-4.62c0.19-0.452,0.31-0.934,0.357-1.431L10.79,13H11.999z
		 M9.035,12.382c0.103,0.195,0.274,0.362,0.485,0.473l7.98-7.981l0-3.375c0-0.062-0.011-0.121-0.033-0.177l-9.262,9.261
		L9.035,12.382z M6.676,7.114C6.735,7.33,6.802,7.528,6.88,7.715l0.878,1.902L16.376,1H12.79L6.676,7.114z M7,1
		C6.724,1,6.5,1.224,6.5,1.5v4.376L11.376,1H7z"/>
</g>
</svg>
