<?xml version="1.0" encoding="utf-8"?>
<!-- Generator: Adobe Illustrator 22.1.0, SVG Export Plug-In . SVG Version: 6.00 Build 0)  -->
<svg version="1.1" id="Layer_1" xmlns="http://www.w3.org/2000/svg" xmlns:xlink="http://www.w3.org/1999/xlink" x="0px" y="0px"
	 viewBox="0 0 24 24" style="enable-background:new 0 0 24 24;" xml:space="preserve">
<g>
	<title>shipment-lift-1</title>
	<path d="M3.5,18C3.224,18,3,17.776,3,17.5v-3C3,14.224,3.224,14,3.5,14S4,14.224,4,14.5v3C4,17.776,3.776,18,3.5,18z"/>
	<path d="M6.5,18C6.224,18,6,17.776,6,17.5v-3C6,14.224,6.224,14,6.5,14S7,14.224,7,14.5v3C7,17.776,6.776,18,6.5,18z"/>
	<path d="M9.5,18C9.224,18,9,17.776,9,17.5v-3C9,14.224,9.224,14,9.5,14s0.5,0.224,0.5,0.5v3C10,17.776,9.776,18,9.5,18z"/>
	<path d="M19.5,24c-0.276,0-0.5-0.224-0.5-0.5v-3.898l-3,2.625V23.5c0,0.276-0.224,0.5-0.5,0.5S15,23.776,15,23.5V3H7v5.275
		L11.19,12h0.31c0.827,0,1.5,0.673,1.5,1.5v5c0,0.827-0.673,1.5-1.5,1.5h-10C0.673,20,0,19.327,0,18.5v-5C0,12.673,0.673,12,1.5,12
		h0.31L6,8.275V3H1C0.724,3,0.5,2.776,0.5,2.5S0.724,2,1,2h14V0.5c0-0.066,0.013-0.13,0.039-0.192
		c0.051-0.123,0.147-0.219,0.27-0.27C15.37,0.013,15.434,0,15.5,0s0.13,0.013,0.191,0.038s0.116,0.062,0.163,0.108L19,3.293V0.5
		C19,0.224,19.224,0,19.5,0S20,0.224,20,0.5V2h3.5C23.776,2,24,2.224,24,2.5S23.776,3,23.5,3H23v3.5c0.552,0,1,0.449,1,1v3
		c0,0.551-0.448,1-1,1h-1c-0.552,0-1-0.449-1-1v-3c0-0.551,0.448-1,1-1V3h-2v20.5C20,23.776,19.776,24,19.5,24z M16,20.898
		l2.741-2.398L16,16.102V20.898z M1.5,13C1.224,13,1,13.224,1,13.5v5C1,18.776,1.224,19,1.5,19h10c0.276,0,0.5-0.224,0.5-0.5v-5
		c0-0.276-0.224-0.5-0.5-0.5H1.5z M19,17.398v-4.796L16.259,15L19,17.398z M16,13.898l2.741-2.398L16,9.102V13.898z M9.685,12
		L6.5,9.169L3.315,12H9.685z M22,10.5h1v-3h-1L22,10.5z M19,10.398V5.602L16.259,8L19,10.398z M16,6.898l2.769-2.423L16,1.707V6.898
		z"/>
</g>
</svg>
