<?xml version="1.0" encoding="utf-8"?>
<!-- Generator: Adobe Illustrator 22.1.0, SVG Export Plug-In . SVG Version: 6.00 Build 0)  -->
<svg version="1.1" id="Layer_1" xmlns="http://www.w3.org/2000/svg" xmlns:xlink="http://www.w3.org/1999/xlink" x="0px" y="0px"
	 viewBox="0 0 24 24" style="enable-background:new 0 0 24 24;" xml:space="preserve">
<g>
	<title>shipment-international</title>
	<path d="M5.751,19.8c-0.083,0-0.165-0.021-0.238-0.06c-2.468-1.33-4.271-3.542-5.076-6.229c-0.805-2.687-0.516-5.526,0.815-7.995
		c0.029-0.054,0.06-0.107,0.091-0.16l0.034-0.058C1.392,5.263,1.41,5.237,1.423,5.219c1.335-2.307,3.49-4.01,6.059-4.78
		c0.989-0.297,2.007-0.447,3.027-0.447c1.718,0,3.436,0.436,4.968,1.262c1.711,0.922,3.132,2.301,4.107,3.988
		c0.008,0.012,0.02,0.031,0.031,0.055c0.904,1.584,1.381,3.381,1.381,5.198c0,0.276-0.224,0.5-0.5,0.5H6.041
		c0.073,0.914,0.246,1.808,0.515,2.66c0.04,0.127,0.028,0.263-0.033,0.381s-0.166,0.206-0.293,0.246
		c-0.047,0.015-0.099,0.023-0.151,0.023c-0.219,0-0.411-0.14-0.477-0.35c-0.302-0.957-0.493-1.952-0.569-2.96H1.007
		c0.041,0.756,0.171,1.505,0.388,2.229c0.182,0.609,0.429,1.204,0.732,1.771H5.38c0.276,0,0.5,0.224,0.5,0.5s-0.224,0.5-0.5,0.5
		H2.746c0.84,1.185,1.953,2.169,3.243,2.865c0.242,0.131,0.334,0.434,0.203,0.677C6.104,19.7,5.935,19.8,5.751,19.8z M19.977,9.995
		c-0.074-1.396-0.459-2.771-1.12-4h-3.52c0.412,1.295,0.63,2.638,0.647,4H19.977z M14.985,9.995c-0.019-1.367-0.254-2.711-0.699-4
		h-3.291l0,4H14.985z M9.995,9.995l0-4H6.706c-0.446,1.289-0.681,2.633-0.699,4H9.995z M5.006,9.995
		c0.018-1.362,0.235-2.705,0.647-4H2.13c-0.674,1.252-1.051,2.596-1.124,4H5.006z M18.236,4.995
		c-0.844-1.188-1.955-2.172-3.234-2.861c-0.724-0.39-1.488-0.683-2.278-0.875c0.941,1.113,1.697,2.366,2.251,3.736H18.236z
		 M13.892,4.995c-0.662-1.498-1.589-2.835-2.761-3.979c-0.045-0.003-0.09-0.006-0.135-0.008l0,3.987H13.892z M9.995,4.995l0-3.986
		C9.95,1.012,9.905,1.015,9.859,1.018c-1.171,1.144-2.098,2.48-2.76,3.977H9.995z M6.016,4.995C6.57,3.628,7.324,2.376,8.264,1.264
		C8.095,1.304,7.93,1.349,7.769,1.397C5.737,2.006,3.972,3.276,2.753,4.995H6.016z"/>
	<path d="M18.495,23.995c-1.103,0-2-0.897-2-2h-3.5c0,1.103-0.897,2-2,2s-2-0.897-2-2c0-0.027,0.001-0.055,0.002-0.084
		c-0.595-0.209-1.005-0.773-1.002-1.418v-5.998c0-0.827,0.673-1.5,1.5-1.5h8c0.827,0,1.5,0.673,1.5,1.5h1.5c1.93,0,3.5,1.57,3.5,3.5
		v2.5c0,0.827-0.673,1.5-1.5,1.5h-2C20.495,23.098,19.598,23.995,18.495,23.995z M18.495,20.995c-0.552,0-1,0.448-1,1s0.448,1,1,1
		s1-0.448,1-1S19.047,20.995,18.495,20.995z M10.995,20.995c-0.551,0-1,0.448-1,1s0.449,1,1,1s1-0.448,1-1
		S11.547,20.995,10.995,20.995z M22.495,20.995c0.276,0,0.5-0.224,0.5-0.5v-1.5h-1.5c-0.827,0-1.5-0.673-1.5-1.5v-2h-1v4.565
		c0.518,0.134,0.96,0.469,1.229,0.935H22.495z M16.766,20.995c0.269-0.466,0.712-0.801,1.229-0.935v-5.565
		c0-0.276-0.224-0.5-0.5-0.5h-8c-0.276,0-0.5,0.224-0.5,0.5v6c-0.001,0.203,0.119,0.379,0.296,0.457
		c0.361-0.587,1.01-0.957,1.704-0.957c0.711,0,1.374,0.388,1.729,1H16.766z M20.995,17.495c0,0.276,0.224,0.5,0.5,0.5h1.5
		c0-1.187-0.859-2.213-2-2.448V17.495z"/>
</g>
</svg>
