<?xml version="1.0" encoding="utf-8"?>
<!-- Generator: Adobe Illustrator 22.1.0, SVG Export Plug-In . SVG Version: 6.00 Build 0)  -->
<svg version="1.1" id="Layer_1" xmlns="http://www.w3.org/2000/svg" xmlns:xlink="http://www.w3.org/1999/xlink" x="0px" y="0px"
	 viewBox="0 0 24 24" style="enable-background:new 0 0 24 24;" xml:space="preserve">
<g>
	<title>shipment-boat</title>
	<path d="M10.653,23.918c-0.183,0-0.367-0.01-0.545-0.028c-1.475-0.154-2.729-0.923-3.531-2.164
		c-0.072-0.112-0.097-0.246-0.069-0.376c0.028-0.131,0.105-0.242,0.218-0.315c0.081-0.052,0.175-0.08,0.271-0.08
		c0.171,0,0.328,0.086,0.42,0.229c0.634,0.981,1.626,1.589,2.794,1.712c0.144,0.015,0.292,0.022,0.438,0.022
		c1.425,0,2.926-0.723,4.228-2.034c0.094-0.095,0.22-0.148,0.355-0.148c0.13,0,0.254,0.05,0.347,0.14
		c1.364,1.317,2.902,2.042,4.333,2.042c0.177,0,0.354-0.011,0.527-0.032c1.101-0.137,2.05-0.728,2.604-1.621
		c0.092-0.148,0.251-0.236,0.425-0.236c0.093,0,0.184,0.026,0.263,0.075c0.235,0.146,0.307,0.454,0.162,0.688
		c-0.714,1.152-1.928,1.912-3.33,2.086c-0.213,0.026-0.431,0.04-0.648,0.04h0c-1.584,0-3.197-0.689-4.675-1.995
		C13.815,23.229,12.233,23.918,10.653,23.918z"/>
	<path d="M10.531,22.084c-0.201,0-0.381-0.119-0.46-0.303l-1.2-2.8c-0.106-0.242-0.111-0.513-0.013-0.762
		c0.098-0.249,0.286-0.445,0.531-0.552c0.127-0.055,0.261-0.083,0.399-0.083h0.242v-1.75c0.043-0.708,0.612-1.251,1.297-1.251
		c0.019,0,0.039,0,0.058,0.001l3.645,0v-0.642c-0.021-0.336,0.095-0.665,0.326-0.924c0.231-0.259,0.548-0.412,0.893-0.433
		l2.78-0.001v-1.5c0-0.276,0.224-0.5,0.5-0.5s0.5,0.224,0.5,0.5v1.5h0.75c0.009,0,0.038,0.001,0.046,0.002
		c0.337,0.022,0.653,0.178,0.882,0.438c0.229,0.26,0.344,0.595,0.321,0.942l0.001,4.118c0,0.011-0.001,0.023-0.003,0.035
		c-0.003,0.048-0.011,0.087-0.024,0.125l-1,2.999c-0.068,0.204-0.258,0.342-0.473,0.342c-0.054,0-0.108-0.009-0.159-0.026
		c-0.126-0.042-0.229-0.131-0.289-0.25s-0.07-0.255-0.027-0.382l0.78-2.342H9.79l1.2,2.803c0.053,0.122,0.054,0.258,0.005,0.382
		c-0.05,0.124-0.144,0.221-0.267,0.274C10.666,22.07,10.599,22.084,10.531,22.084z M21.03,17.584v-3.65
		c0.006-0.11-0.018-0.186-0.073-0.249c-0.053-0.061-0.124-0.095-0.203-0.101l-4.465,0.001c-0.151,0.013-0.27,0.156-0.26,0.317
		c0,0,0.001,1.178,0.001,1.183v2.5H21.03z M15.03,17.584v-2l-3.681,0c-0.17,0-0.311,0.124-0.32,0.281l0.001,1.719H15.03z"/>
	<path d="M1.53,16.084c-0.827,0-1.5-0.673-1.5-1.5V5.001C0.029,4.797,0.072,4.594,0.158,4.399c0.004-0.014,0.018-0.039,0.034-0.065
		c0.07-0.146,0.166-0.285,0.278-0.397l3.414-3.414c0.279-0.279,0.666-0.439,1.06-0.439h5.172c0.401,0,0.777,0.156,1.061,0.439
		l3.414,3.414c0.109,0.109,0.204,0.245,0.281,0.402c0.015,0.025,0.027,0.048,0.036,0.074c0.08,0.182,0.123,0.385,0.123,0.59v1.582
		c0,0.276-0.224,0.5-0.5,0.5s-0.5-0.224-0.5-0.5v-1.5h-13v9.5c0,0.276,0.224,0.5,0.5,0.5h5c0.276,0,0.5,0.224,0.5,0.5
		s-0.224,0.5-0.5,0.5H1.53z M13.323,4.084L10.469,1.23c-0.094-0.094-0.22-0.146-0.354-0.146H8.03v3H13.323z M7.03,4.084v-3H4.944
		c-0.131,0-0.26,0.053-0.353,0.146L1.737,4.084H7.03z"/>
</g>
</svg>
