<?xml version="1.0" encoding="utf-8"?>
<!-- Generator: Adobe Illustrator 22.1.0, SVG Export Plug-In . SVG Version: 6.00 Build 0)  -->
<svg version="1.1" id="Layer_1" xmlns="http://www.w3.org/2000/svg" xmlns:xlink="http://www.w3.org/1999/xlink" x="0px" y="0px"
	 viewBox="0 0 24 24" style="enable-background:new 0 0 24 24;" xml:space="preserve">
<g>
	<title>shipment-crane</title>
	<path d="M16.088,23.928c-0.026,0-0.052-0.001-0.077-0.003c-0.531-0.041-0.93-0.505-0.89-1.035l0.933-13.962h-0.965
		c-0.552,0-1-0.449-1-1h-10v4c0,0.266-0.208,0.485-0.474,0.499C2.84,12.467,2.24,13.13,2.276,13.905
		c0.066,0.851,0.8,1.523,1.67,1.523c0.032,0,0.051-0.001,0.07-0.002c0.372-0.02,0.715-0.184,0.965-0.462
		c0.25-0.279,0.377-0.637,0.358-1.01c-0.015-0.275,0.198-0.511,0.473-0.526c0.005,0,0.021,0,0.026,0c0.266,0,0.486,0.208,0.5,0.474
		c0.07,1.321-0.949,2.453-2.27,2.523c-0.044,0.002-0.083,0.003-0.122,0.003c-1.393,0-2.561-1.081-2.668-2.462
		c-0.054-1.163,0.712-2.185,1.811-2.466V7.928h-1C1.593,7.902,1.165,7.64,0.93,7.228L0.141,5.651
		c-0.078-0.156-0.07-0.338,0.022-0.486c0.092-0.149,0.251-0.237,0.425-0.237h13.5c0,0,0-2.022,0.001-2.027
		c0.023-0.487,0.334-0.919,0.793-1.097l5.074-1.692c0.077-0.036,0.183-0.058,0.294-0.058c0.332,0,0.634,0.198,0.768,0.505
		c0.057,0.13,0.081,0.274,0.068,0.416l0.001,3.954h1.97c0.025-0.002,0.051-0.004,0.076-0.004c0.165,0,0.329,0.053,0.462,0.15
		c0.336,0.244,0.423,0.703,0.203,1.052L23.26,7.204c-0.246,0.432-0.671,0.697-1.145,0.723l-1.027,0.001c0,0.551-0.448,1-1,1h-0.965
		l0.933,13.967c0.002,0.024,0.002,0.053,0.002,0.081c-0.003,0.257-0.106,0.497-0.29,0.677c-0.181,0.177-0.421,0.275-0.674,0.275
		H16.088z M16.12,22.928l2.936,0l-0.936-14h-1.064L16.12,22.928z M15.088,7.928h5V1.119l-1.5,0.501v2.307c0,0.551-0.448,1-1,1h-2.5
		V7.928z M1.811,6.757c0.054,0.094,0.173,0.164,0.304,0.171l11.973-0.001v-1H1.397L1.811,6.757z M22.088,6.928
		c0.108-0.006,0.225-0.081,0.29-0.195l0.401-0.805h-1.691l0,1H22.088z M17.588,3.928V1.954l-2.368,0.79
		c-0.068,0.027-0.127,0.113-0.133,0.205l0,0.979H17.588z"/>
	<path d="M1.088,23.928c-0.551,0-1-0.448-1-1v-4c0-0.552,0.449-1,1-1h11c0.552,0,1,0.448,1,1v4c0,0.552-0.448,1-1,1H1.088z
		 M12.088,22.928v-4h-2v4H12.088z M9.088,22.928v-4h-2v4H9.088z M6.088,22.928v-4h-2v4H6.088z M1.088,22.928h2v-4h-2L1.088,22.928z"
		/>
</g>
</svg>
