<?xml version="1.0" encoding="utf-8"?>
<!-- Generator: Adobe Illustrator 22.1.0, SVG Export Plug-In . SVG Version: 6.00 Build 0)  -->
<svg version="1.1" id="Layer_1" xmlns="http://www.w3.org/2000/svg" xmlns:xlink="http://www.w3.org/1999/xlink" x="0px" y="0px"
	 viewBox="0 0 24 24" style="enable-background:new 0 0 24 24;" xml:space="preserve">
<g>
	<title>shipment-truck-2</title>
	<path d="M21.5,19.5c-0.276,0-0.5-0.224-0.5-0.5s0.224-0.5,0.5-0.5h1c0.276,0,0.5-0.224,0.5-0.5v-1h-1.5c-0.276,0-0.5-0.224-0.5-0.5
		s0.224-0.5,0.5-0.5H23v-3.5h-4.5c-0.827,0-1.5-0.673-1.5-1.5V6.5h-2V17c0,0.276-0.224,0.5-0.5,0.5S14,17.276,14,17v-1.5H1.5
		C1.224,15.5,1,15.724,1,16v1c0,0.276-0.224,0.5-0.5,0.5S0,17.276,0,17v-1c0-0.827,0.673-1.5,1.5-1.5H14V5.328
		c0-0.4-0.156-0.777-0.439-1.061l-0.914-0.914C12.552,3.259,12.5,3.134,12.5,3c0-0.134,0.052-0.259,0.146-0.354S12.866,2.5,13,2.5
		s0.259,0.052,0.354,0.146l0.914,0.914C14.74,4.033,15,4.66,15,5.328V5.5h4.5c2.481,0,4.5,2.019,4.5,4.5v8
		c0,0.827-0.673,1.5-1.5,1.5H21.5z M18,11c0,0.276,0.224,0.5,0.5,0.5H23V10c0-1.93-1.57-3.5-3.5-3.5H18V11z"/>
	<path d="M17.5,21.5c-1.378,0-2.5-1.122-2.5-2.5s1.122-2.5,2.5-2.5S20,17.622,20,19S18.878,21.5,17.5,21.5z M17.5,17.5
		c-0.827,0-1.5,0.673-1.5,1.5s0.673,1.5,1.5,1.5S19,19.827,19,19S18.327,17.5,17.5,17.5z"/>
	<path d="M4.5,21.5C3.121,21.5,2,20.378,2,19s1.121-2.5,2.5-2.5S7,17.622,7,19S5.879,21.5,4.5,21.5z M4.5,17.5
		C3.673,17.5,3,18.173,3,19s0.673,1.5,1.5,1.5S6,19.827,6,19S5.327,17.5,4.5,17.5z"/>
	<path d="M9,19.5c-0.276,0-0.5-0.224-0.5-0.5s0.224-0.5,0.5-0.5h4.5c0.276,0,0.5,0.224,0.5,0.5s-0.224,0.5-0.5,0.5H9z"/>
</g>
</svg>
