<?xml version="1.0" encoding="utf-8"?>
<!-- Generator: Adobe Illustrator 22.1.0, SVG Export Plug-In . SVG Version: 6.00 Build 0)  -->
<svg version="1.1" id="Light" xmlns="http://www.w3.org/2000/svg" xmlns:xlink="http://www.w3.org/1999/xlink" x="0px" y="0px"
	 viewBox="0 0 24 24" style="enable-background:new 0 0 24 24;" xml:space="preserve">
<g>
	<title>medical-folder</title>
	<path d="M13,19c-0.552,0-1-0.448-1-1v-2h-2c-0.551,0-1-0.448-1-1v-2c0-0.552,0.449-1,1-1h2v-2c0-0.551,0.448-1,1-1h2
		c0.552,0,1,0.449,1,1v2h2c0.552,0,1,0.448,1,1v2c0,0.552-0.448,1-1,1h-2v2c0,0.552-0.448,1-1,1H13z M10,15h2.5
		c0.276,0,0.5,0.224,0.5,0.5V18h2v-2.5c0-0.276,0.224-0.5,0.5-0.5H18v-2h-2.5c-0.276,0-0.5-0.224-0.5-0.5V10h-2v2.5
		c0,0.276-0.224,0.5-0.5,0.5H10L10,15z"/>
	<path d="M3,22c-1.654,0-3-1.346-3-3V3c0-0.551,0.449-1,1-1h6c0.551,0,1,0.449,1,1v1h12.5C20.776,4,21,4.224,21,4.5S20.776,5,20.5,5
		H8C7.449,5,7,4.551,7,4V3H1v16c0,1.103,0.897,2,2,2s2-0.897,2-2V7c0-0.551,0.449-1,1-1h17c0.552,0,1,0.449,1,1v11.5
		c0,1.93-1.57,3.5-3.5,3.5H3z M20.5,21c1.378,0,2.5-1.122,2.5-2.5V7H6v12c0,0.744-0.278,1.455-0.766,2H20.5z"/>
</g>
</svg>
