<?xml version="1.0" encoding="utf-8"?>
<!-- Generator: Adobe Illustrator 22.1.0, SVG Export Plug-In . SVG Version: 6.00 Build 0)  -->
<svg version="1.1" id="Layer_1" xmlns="http://www.w3.org/2000/svg" xmlns:xlink="http://www.w3.org/1999/xlink" x="0px" y="0px"
	 viewBox="0 0 24 24" style="enable-background:new 0 0 24 24;" xml:space="preserve">
<g>
	<title>road-tunnel</title>
	<path d="M2,24c-0.397,0-0.771-0.154-1.054-0.435c-0.014-0.012-0.028-0.028-0.04-0.044C0.645,23.245,0.5,22.881,0.5,22.5V12.003
		C0.361,5.534,5.514,0.147,11.989,0.001C18.482,0.147,23.641,5.535,23.5,12.011V22.5c0,0.38-0.144,0.742-0.406,1.022
		c-0.012,0.016-0.027,0.033-0.041,0.044C22.77,23.846,22.397,24,22,24H2z M21.886,23l-7.111-8H9.225l-7.111,8H11.5v-2.5
		c0-0.276,0.224-0.5,0.5-0.5c0.276,0,0.5,0.224,0.5,0.5V23H21.886z M11.989,1C6.081,1.135,1.371,6.064,1.5,11.989v10.197l7-7.875V12
		c0-2.318,1.472-4,3.5-4s3.5,1.682,3.5,4v2.31l7,7.875V12C22.629,6.067,17.914,1.135,11.989,1z M14.5,14v-2c0-1.766-1.028-3-2.5-3
		s-2.5,1.234-2.5,3v2H14.5z"/>
	<path d="M12,18c-0.276,0-0.5-0.224-0.5-0.5v-1c0-0.276,0.224-0.5,0.5-0.5c0.276,0,0.5,0.224,0.5,0.5v1C12.5,17.776,12.276,18,12,18
		z"/>
</g>
</svg>
