<?xml version="1.0" encoding="utf-8"?>
<!-- Generator: Adobe Illustrator 22.1.0, SVG Export Plug-In . SVG Version: 6.00 Build 0)  -->
<svg version="1.1" id="Layer_1" xmlns="http://www.w3.org/2000/svg" xmlns:xlink="http://www.w3.org/1999/xlink" x="0px" y="0px"
	 viewBox="0 0 24 24" style="enable-background:new 0 0 24 24;" xml:space="preserve">
<g>
	<title>road-woods</title>
	<path d="M4.009,11.494c-0.276,0-0.5-0.224-0.5-0.5V9.981H1.134c-0.3,0-0.582-0.117-0.793-0.329
		C-0.085,9.226-0.095,8.528,0.317,8.09L0.98,7.242C0.906,7.195,0.837,7.14,0.775,7.077C0.565,6.863,0.45,6.581,0.453,6.281
		c0.002-0.287,0.112-0.558,0.31-0.764L1.779,4.23C1.678,4.167,1.588,4.087,1.51,3.992C1.129,3.528,1.187,2.834,1.637,2.439
		l2.11-2.279C3.841,0.058,3.975,0,4.114,0c0.14,0,0.274,0.059,0.368,0.162l2.087,2.274c0.02,0.017,0.04,0.036,0.059,0.055
		c0.213,0.21,0.331,0.491,0.334,0.79c0.002,0.3-0.112,0.582-0.323,0.796C6.581,4.136,6.517,4.188,6.448,4.232l1.045,1.297
		c0.365,0.405,0.366,1.04-0.007,1.467C7.412,7.081,7.327,7.153,7.235,7.211L7.91,8.089C8.107,8.298,8.215,8.57,8.216,8.858
		c0,0.3-0.116,0.582-0.328,0.794C7.676,9.864,7.395,9.981,7.095,9.981H4.509v1.013C4.509,11.27,4.284,11.494,4.009,11.494z
		 M2.023,6.229c0.122,0,0.239,0.044,0.328,0.123c0.2,0.178,0.23,0.467,0.07,0.672L1.088,8.727c-0.013,0.016-0.026,0.031-0.04,0.046
		C1.017,8.804,1.012,8.84,1.012,8.859c0,0.019,0.005,0.055,0.035,0.086c0.023,0.024,0.053,0.036,0.086,0.036h5.96
		c0.033,0,0.063-0.012,0.086-0.036s0.036-0.053,0.036-0.086c0-0.033-0.012-0.063-0.036-0.086C7.163,8.756,7.148,8.739,7.135,8.722
		l-1.3-1.69C5.678,6.827,5.701,6.539,5.889,6.363c0.093-0.087,0.214-0.135,0.342-0.135c0.121,0,0.238,0.044,0.329,0.124
		c0.022,0.02,0.05,0.03,0.08,0.03c0.041-0.002,0.07-0.017,0.092-0.042c0.041-0.046,0.04-0.116-0.001-0.161L5.014,4.046
		C4.848,3.839,4.872,3.539,5.068,3.361C5.161,3.278,5.28,3.232,5.404,3.232c0.132,0,0.257,0.051,0.351,0.144
		c0.031,0.03,0.067,0.035,0.085,0.035c0.019,0,0.056-0.005,0.087-0.036C5.95,3.351,5.962,3.321,5.962,3.288
		c0-0.033-0.013-0.063-0.036-0.086C5.895,3.177,5.875,3.159,5.857,3.139L4.112,1.238L2.35,3.14c-0.016,0.018-0.033,0.033-0.05,0.047
		C2.275,3.208,2.26,3.236,2.257,3.269c-0.003,0.033,0.006,0.064,0.027,0.09c0.023,0.028,0.058,0.044,0.094,0.044
		c0.02,0,0.049-0.005,0.077-0.028c0.102-0.101,0.227-0.152,0.36-0.152c0.123,0,0.241,0.045,0.333,0.127
		c0.197,0.176,0.223,0.476,0.06,0.683L1.531,6.158C1.518,6.174,1.504,6.19,1.489,6.204C1.458,6.235,1.453,6.271,1.453,6.29
		s0.004,0.055,0.035,0.086C1.511,6.399,1.54,6.411,1.573,6.412c0.033,0,0.063-0.012,0.086-0.035
		C1.755,6.283,1.888,6.229,2.023,6.229z"/>
	<path d="M19.499,24c-0.276,0-0.5-0.224-0.5-0.5v-1.493h-2.828c-0.316,0-0.624-0.128-0.845-0.351
		c-0.224-0.226-0.347-0.525-0.346-0.843c0.001-0.305,0.117-0.594,0.326-0.816l0.773-0.991c-0.106-0.058-0.203-0.133-0.288-0.223
		c-0.44-0.462-0.433-1.202,0.013-1.656l1.189-1.503c-0.112-0.063-0.213-0.144-0.301-0.242c-0.439-0.49-0.399-1.247,0.091-1.686
		l2.338-2.531c0.094-0.102,0.228-0.161,0.367-0.161c0.14,0,0.274,0.059,0.368,0.162l2.339,2.55c0.242,0.224,0.377,0.519,0.388,0.837
		c0.011,0.319-0.102,0.622-0.319,0.855c-0.082,0.088-0.176,0.163-0.278,0.221l1.212,1.508c0.428,0.445,0.423,1.174-0.016,1.632
		c-0.085,0.089-0.182,0.163-0.288,0.221l0.776,1.007c0.209,0.221,0.324,0.51,0.325,0.815c0.001,0.319-0.122,0.619-0.347,0.844
		c-0.224,0.226-0.524,0.351-0.843,0.352h-2.806V23.5C19.999,23.776,19.774,24,19.499,24z M22.803,21.007
		c0.051,0,0.098-0.02,0.135-0.057s0.056-0.084,0.056-0.136c0-0.052-0.02-0.1-0.057-0.137c-0.015-0.015-0.03-0.032-0.043-0.049
		l-1.449-1.881c-0.159-0.206-0.131-0.504,0.062-0.677c0.092-0.083,0.21-0.128,0.334-0.128c0.13,0,0.253,0.05,0.346,0.14
		c0.035,0.034,0.083,0.053,0.132,0.053c0.053,0,0.103-0.021,0.139-0.059c0.073-0.076,0.073-0.191-0.002-0.267l-1.928-2.395
		c-0.164-0.203-0.142-0.501,0.049-0.679c0.093-0.086,0.213-0.134,0.34-0.134s0.248,0.048,0.341,0.134
		c0.046,0.042,0.102,0.051,0.141,0.051c0.049-0.002,0.095-0.023,0.13-0.061s0.053-0.086,0.052-0.138
		c-0.002-0.052-0.023-0.098-0.061-0.133c-0.002-0.001-0.039-0.035-0.052-0.049l-1.984-2.163l-2.002,2.165
		c-0.108,0.099-0.122,0.224-0.048,0.307c0.037,0.042,0.089,0.064,0.145,0.064c0.048,0,0.094-0.018,0.129-0.049
		c0.092-0.083,0.211-0.128,0.334-0.128c0.128,0,0.249,0.048,0.343,0.135c0.191,0.179,0.212,0.469,0.05,0.675l-1.867,2.361
		c-0.014,0.018-0.029,0.034-0.046,0.051c-0.078,0.074-0.081,0.196-0.009,0.272c0.036,0.038,0.082,0.058,0.134,0.059
		c0.056,0,0.098-0.016,0.136-0.053l0.017-0.017c0.086-0.096,0.221-0.157,0.363-0.157c0.118,0,0.232,0.042,0.322,0.117
		c0.207,0.173,0.239,0.476,0.073,0.69l-1.482,1.9c-0.011,0.015-0.026,0.031-0.041,0.046c-0.037,0.037-0.057,0.084-0.057,0.135
		c0,0.052,0.019,0.099,0.055,0.135c0.035,0.035,0.086,0.056,0.135,0.056h3.27c0.016-0.003,0.036-0.006,0.059-0.006
		c0.015,0,0.036,0.003,0.056,0.006H22.803z"/>
	<path d="M1.071,24c-0.046,0-0.091-0.006-0.135-0.019c-0.129-0.036-0.235-0.12-0.301-0.237c-0.065-0.116-0.082-0.251-0.045-0.38
		c1.479-5.264,4.394-9.997,8.43-13.686s9.01-6.169,14.386-7.17C23.436,2.503,23.467,2.5,23.498,2.5c0.24,0,0.446,0.172,0.491,0.408
		c0.05,0.271-0.129,0.533-0.4,0.583c-5.192,0.968-9.996,3.362-13.894,6.926C5.796,13.98,2.98,18.551,1.552,23.635
		C1.492,23.85,1.294,24,1.071,24z"/>
	<path d="M4.744,24c-0.052,0-0.104-0.008-0.154-0.024c-0.126-0.041-0.23-0.129-0.291-0.248c-0.061-0.119-0.072-0.255-0.031-0.382
		C7.089,14.612,14.417,7.992,23.392,6.071c0.033-0.007,0.069-0.011,0.105-0.011c0.233,0,0.439,0.166,0.488,0.395
		c0.028,0.131,0.004,0.265-0.069,0.377c-0.073,0.112-0.185,0.189-0.315,0.217C14.974,8.896,7.931,15.258,5.219,23.654
		C5.152,23.861,4.961,24,4.744,24z"/>
	<path d="M8.985,24c-0.062,0-0.124-0.011-0.182-0.034c-0.258-0.102-0.384-0.393-0.283-0.649c1.275-3.235,3.334-6.152,5.954-8.437
		c0.091-0.079,0.208-0.123,0.328-0.123c0.145,0,0.282,0.062,0.377,0.171c0.181,0.208,0.159,0.524-0.048,0.706
		c-2.5,2.18-4.465,4.963-5.682,8.05C9.375,23.876,9.192,24,8.985,24z"/>
	<path d="M21.541,11.788c-0.21,0-0.399-0.132-0.47-0.329c-0.094-0.26,0.041-0.547,0.3-0.641c0.649-0.236,1.324-0.443,2.004-0.615
		c0.04-0.01,0.081-0.016,0.123-0.016c0.229,0,0.428,0.155,0.484,0.377c0.067,0.268-0.095,0.54-0.362,0.608
		c-0.648,0.164-1.29,0.361-1.908,0.585C21.656,11.778,21.599,11.788,21.541,11.788z"/>
</g>
</svg>
