<?xml version="1.0" encoding="utf-8"?>
<!-- Generator: Adobe Illustrator 22.1.0, SVG Export Plug-In . SVG Version: 6.00 Build 0)  -->
<svg version="1.1" id="Light" xmlns="http://www.w3.org/2000/svg" xmlns:xlink="http://www.w3.org/1999/xlink" x="0px" y="0px"
	 viewBox="0 0 24 24" style="enable-background:new 0 0 24 24;" xml:space="preserve">
<g>
	<title>shellfish-shrimp</title>
	<path d="M7.6,24c-3.665,0-5.286-1.579-5.354-1.646c-0.121-0.12-0.171-0.292-0.135-0.459c0.036-0.167,0.154-0.303,0.313-0.363
		l3.717-1.394l0.463-3.7c0.02-0.158,0.115-0.298,0.254-0.375C6.931,16.022,7.015,16,7.1,16c0.072,0,0.144,0.016,0.209,0.046
		c1.582,0.73,2.627,2.231,2.772,3.954H12.1c0.128,0,0.258-0.007,0.387-0.019c1.063-0.105,2.022-0.618,2.699-1.444
		c0.678-0.826,0.993-1.867,0.888-2.93c-0.256-2.054-2.015-3.608-4.091-3.608L8.922,12c-2.868,0-5.439-1.589-6.717-4.146l-0.7-1.407
		C1.435,6.309,1.399,6.153,1.399,5.998c0-0.267,0.105-0.518,0.294-0.706C1.882,5.104,2.131,5,2.393,5h1.475
		C3.379,4.455,3.1,3.744,3.1,3c0-1.654,1.346-3,3-3h11c0.276,0,0.5,0.224,0.5,0.5S17.376,1,17.1,1h-11c-1.103,0-2,0.897-2,2
		s0.897,2,2,2h0.268C6.193,4.699,6.1,4.357,6.1,4c0-1.103,0.897-2,2-2h5.5c0.276,0,0.5,0.224,0.5,0.5S13.876,3,13.6,3H8.1
		c-0.551,0-1,0.449-1,1s0.449,1,1,1h4.692l0.127-0.001c3.713,0,7.144,2.176,8.755,5.548c0.088,0.087,0.141,0.201,0.148,0.323
		c0.413,0.952,0.667,1.956,0.757,2.987c0.015,0.219,0.022,0.435,0.022,0.645c0,3.683-2.166,7.066-5.517,8.62
		c-0.016,0.009-0.033,0.017-0.052,0.024C15.79,23.712,14.467,24,13.101,24H7.6z M13.1,23c0.912,0,1.807-0.145,2.668-0.431
		c-0.661-0.616-1.081-1.515-1.317-2.162c-0.581,0.313-1.208,0.504-1.867,0.569C12.423,20.992,12.26,21,12.101,21H9.868l-1.333,2
		H13.1z M3.674,22.131c0.703,0.38,1.892,0.823,3.662,0.864l1.763-2.644c-0.019-1.214-0.618-2.344-1.596-3.042l-0.407,3.253
		c-0.023,0.185-0.146,0.341-0.32,0.406L3.674,22.131z M15.311,19.825c0.3,0.92,0.844,1.945,1.546,2.299
		c2.886-1.428,4.744-4.407,4.744-7.623c0-0.186-0.006-0.377-0.019-0.568c-0.04-0.456-0.117-0.912-0.231-1.36
		c-0.334,0.703-0.823,1.323-1.438,1.817c-0.02,0.015-0.039,0.029-0.058,0.04c-0.714,0.423-1.531,0.646-2.363,0.646
		c-0.165,0-0.333-0.01-0.502-0.029c0.034,0.153,0.06,0.302,0.078,0.45c0.133,1.339-0.261,2.642-1.109,3.675
		C15.769,19.404,15.551,19.623,15.311,19.825z M16.632,13.969c0.283,0.069,0.575,0.104,0.867,0.104c0.639,0,1.267-0.168,1.815-0.486
		c0.789-0.646,1.313-1.552,1.483-2.56c-1.295-2.755-3.986-4.66-6.979-4.979c1.057,1.488,1.054,3.505-0.068,5.001
		c-0.052,0.07-0.109,0.14-0.168,0.208C14.922,11.699,16.038,12.685,16.632,13.969z M11.963,11c0.135,0,0.279,0.007,0.436,0.02
		c0.209-0.17,0.394-0.361,0.551-0.57c1.033-1.378,0.792-3.356-0.528-4.45H2.4L3.1,7.407C4.207,9.623,6.435,11,8.913,11L11.963,11z"
		/>
	<path d="M8.345,8.5c-0.414,0-0.75-0.336-0.75-0.75c0-0.042,0.008-0.075,0.014-0.095C7.655,7.296,7.953,7.02,8.313,7.002
		C8.324,7.001,8.349,7,8.35,7c0.008,0,0.017,0,0.025,0.001c0.19,0.008,0.365,0.084,0.498,0.216c0.119,0.118,0.192,0.269,0.213,0.438
		C9.092,7.676,9.1,7.708,9.1,7.747c0.001,0.2-0.076,0.389-0.217,0.531C8.742,8.42,8.554,8.499,8.354,8.5
		C8.354,8.5,8.346,8.5,8.345,8.5z"/>
</g>
</svg>
