<?xml version="1.0" encoding="utf-8"?>
<!-- Generator: Adobe Illustrator 22.1.0, SVG Export Plug-In . SVG Version: 6.00 Build 0)  -->
<svg version="1.1" id="Light" xmlns="http://www.w3.org/2000/svg" xmlns:xlink="http://www.w3.org/1999/xlink" x="0px" y="0px"
	 viewBox="0 0 24 24" style="enable-background:new 0 0 24 24;" xml:space="preserve">
<g>
	<title>bread-baguette</title>
	<path d="M5.162,24.01c-1.467,0-2.845-0.718-3.687-1.919L0.272,20.37c-0.229-0.328-0.317-0.726-0.247-1.121s0.289-0.739,0.617-0.968
		c0.253-0.177,0.55-0.271,0.859-0.271h9.501c-0.326-0.424-0.512-0.943-0.525-1.488c0-0.005,0-0.021,0-0.026
		c0.06-2.474,2.114-4.488,4.58-4.488c0.041,0,0.082,0.001,0.123,0.002l3.131,0c0.031-0.001,0.068-0.001,0.105-0.001
		c2.469,0,4.525,2.014,4.585,4.489c-0.013,0.559-0.201,1.085-0.528,1.512H22.5c0.4,0,0.777,0.156,1.06,0.44S24,19.111,24,19.511
		c0,0.309-0.094,0.606-0.27,0.859l-1.2,1.721c-0.842,1.202-2.22,1.92-3.688,1.92H5.162z M1.5,19.01c-0.103,0-0.201,0.031-0.286,0.09
		c-0.226,0.158-0.281,0.47-0.123,0.696l1.204,1.721c0.654,0.935,1.726,1.493,2.867,1.493h13.676c1.145,0,2.217-0.558,2.871-1.493
		l1.199-1.72C22.968,19.712,23,19.613,23,19.51c0-0.133-0.052-0.258-0.146-0.353c-0.095-0.095-0.22-0.147-0.353-0.147H1.5z
		 M13.714,13.282c-1.312,0.54-2.201,1.812-2.238,3.234c0.023,0.818,0.713,1.494,1.539,1.494l7.441-0.001
		c0.845-0.004,1.524-0.669,1.544-1.512c-0.043-1.772-1.384-3.226-3.119-3.453c0.353,1.02,0.385,2.13,0.085,3.167
		c-0.062,0.212-0.259,0.361-0.48,0.361c-0.046,0-0.093-0.007-0.138-0.019c-0.266-0.077-0.419-0.355-0.343-0.62
		c0.276-0.954,0.207-1.98-0.196-2.888l-0.017-0.035h-1.017c0.366,1.022,0.401,2.145,0.094,3.201
		c-0.061,0.212-0.259,0.361-0.48,0.361c-0.048,0-0.095-0.007-0.14-0.02c-0.127-0.037-0.233-0.122-0.298-0.239
		c-0.064-0.117-0.079-0.252-0.042-0.38c0.277-0.954,0.207-1.98-0.196-2.888L15.7,13.01h-0.533l-0.09-0.001
		c-0.129,0-0.261,0.008-0.393,0.023c0.358,1.023,0.391,2.141,0.091,3.18c-0.062,0.212-0.259,0.361-0.48,0.361
		c-0.046,0-0.093-0.007-0.138-0.019c-0.266-0.077-0.419-0.355-0.343-0.62C14.066,15.062,14.03,14.129,13.714,13.282z"/>
	<path d="M2.56,17.01c-0.134,0-0.259-0.052-0.354-0.146c-0.195-0.195-0.195-0.512,0-0.707l1.981-1.981
		c0.03-0.047,0.067-0.088,0.11-0.122c0.008-0.007,0.021-0.014,0.034-0.022l1.622-1.622c0.015-0.018,0.032-0.034,0.05-0.05l2.9-2.901
		c0.03-0.046,0.067-0.087,0.11-0.12c0.008-0.006,0.019-0.013,0.03-0.02L10.663,7.7c0.024-0.029,0.048-0.052,0.068-0.068l3.153-3.153
		c0.03-0.045,0.066-0.084,0.108-0.117c0.007-0.006,0.017-0.012,0.028-0.018l3.266-3.267c0.682-0.631,1.564-0.976,2.491-0.976
		c0.923,0,1.8,0.341,2.471,0.961c0.713,0.66,1.127,1.559,1.165,2.532s-0.304,1.902-0.964,2.616l-3.994,4.013
		c-0.094,0.095-0.22,0.147-0.354,0.147c-0.133,0-0.259-0.052-0.353-0.146c-0.094-0.094-0.146-0.219-0.147-0.353
		c0-0.134,0.051-0.259,0.146-0.354l3.981-4c0.98-1.06,0.911-2.732-0.158-3.722c-0.487-0.45-1.124-0.697-1.794-0.697
		c-0.671,0-1.309,0.248-1.795,0.698L16.656,3.12c0.225,0.318,0.525,0.585,0.795,0.824c0.454,0.402,0.883,0.782,0.889,1.336
		c0.004,0.348-0.164,0.675-0.513,1c-0.297,0.275-0.688,0.421-1.131,0.421c-0.055,0-0.111-0.002-0.167-0.007
		c-0.737-0.058-1.56-0.503-2.243-1.203l-2.604,2.605c0.224,0.319,0.524,0.585,0.794,0.825c0.453,0.402,0.881,0.782,0.887,1.336
		c0.004,0.349-0.164,0.676-0.514,1c-0.296,0.275-0.687,0.42-1.13,0.42c-0.055,0-0.111-0.002-0.168-0.007
		c-0.735-0.058-1.558-0.502-2.242-1.202l-2.343,2.343c0.224,0.318,0.524,0.584,0.793,0.823c0.453,0.402,0.882,0.781,0.888,1.335
		c0.004,0.349-0.164,0.676-0.514,1.001c-0.296,0.275-0.687,0.421-1.129,0.421c-0.054,0-0.109-0.002-0.166-0.007
		c-0.735-0.058-1.559-0.502-2.244-1.202l-1.681,1.681C2.819,16.958,2.694,17.01,2.56,17.01z M5.302,14.476
		c0.516,0.529,1.12,0.873,1.615,0.912c0.03,0.002,0.059,0.004,0.088,0.004c0.19,0,0.337-0.05,0.448-0.153
		c0.187-0.174,0.194-0.256,0.194-0.256c-0.001-0.111-0.333-0.405-0.552-0.599c-0.246-0.218-0.567-0.503-0.843-0.857L5.302,14.476z
		 M10.015,9.761c0.514,0.529,1.118,0.873,1.614,0.912c0.031,0.003,0.062,0.004,0.092,0.004c0.189,0,0.335-0.05,0.446-0.153
		c0.187-0.174,0.194-0.256,0.194-0.256c-0.001-0.111-0.345-0.417-0.551-0.599c-0.246-0.219-0.567-0.503-0.843-0.859L10.015,9.761z
		 M14.993,4.784c0.514,0.529,1.118,0.874,1.615,0.913c0.031,0.003,0.062,0.004,0.092,0.004c0.19,0,0.336-0.05,0.448-0.154
		c0.186-0.173,0.194-0.255,0.194-0.255c-0.001-0.111-0.333-0.405-0.552-0.599c-0.247-0.219-0.568-0.504-0.845-0.859L14.993,4.784z"
		/>
</g>
</svg>
