<?xml version="1.0" encoding="utf-8"?>
<!-- Generator: Adobe Illustrator 22.1.0, SVG Export Plug-In . SVG Version: 6.00 Build 0)  -->
<svg version="1.1" id="Light" xmlns="http://www.w3.org/2000/svg" xmlns:xlink="http://www.w3.org/1999/xlink" x="0px" y="0px"
	 viewBox="0 0 24 24" style="enable-background:new 0 0 24 24;" xml:space="preserve">
<g>
	<title>bread-herb-flour</title>
	<path d="M5.5,24C3.019,24,1,21.981,1,19.5v-10c0-2.298,1.739-4.216,4-4.467V1.5C5,0.673,5.673,0,6.5,0h11C18.327,0,19,0.673,19,1.5
		v3.533c2.261,0.251,4,2.169,4,4.467v10c0,2.481-2.019,4.5-4.5,4.5H5.5z M5.5,6C3.57,6,2,7.57,2,9.5v10C2,21.43,3.57,23,5.5,23h13
		c1.93,0,3.5-1.57,3.5-3.5v-10C22,7.57,20.43,6,18.5,6H5.5z M18,5V1.5C18,1.224,17.776,1,17.5,1H15v4H18z M14,5V1h-4v4H14z M9,5V1
		H6.5C6.224,1,6,1.224,6,1.5V5H9z"/>
	<path d="M6.5,21c-0.134,0-0.259-0.052-0.354-0.146S6,20.634,6,20.5s0.052-0.259,0.146-0.354L8,18.293V15c0-0.276,0.224-0.5,0.5-0.5
		S9,14.724,9,15v2.293l2-2V12c0-0.276,0.224-0.5,0.5-0.5S12,11.724,12,12v2.293l2-2V9c0-0.276,0.224-0.5,0.5-0.5S15,8.724,15,9
		v2.293l1.146-1.146C16.241,10.052,16.366,10,16.5,10s0.259,0.052,0.354,0.146c0.195,0.195,0.195,0.512,0,0.707L15.707,12H18
		c0.276,0,0.5,0.224,0.5,0.5c0,0.276-0.224,0.5-0.5,0.5h-3.293l-2,2H15c0.276,0,0.5,0.224,0.5,0.5S15.276,16,15,16h-3.293l-2,2H12
		c0.276,0,0.5,0.224,0.5,0.5S12.276,19,12,19H8.707l-1.854,1.854C6.759,20.948,6.634,21,6.5,21z"/>
</g>
</svg>
