<?xml version="1.0" encoding="utf-8"?>
<!-- Generator: Adobe Illustrator 22.1.0, SVG Export Plug-In . SVG Version: 6.00 Build 0)  -->
<svg version="1.1" id="Light" xmlns="http://www.w3.org/2000/svg" xmlns:xlink="http://www.w3.org/1999/xlink" x="0px" y="0px"
	 viewBox="0 0 24 24" style="enable-background:new 0 0 24 24;" xml:space="preserve">
<g>
	<title>bread-herb</title>
	<path d="M12,22c-0.134,0-0.259-0.052-0.354-0.146S11.5,21.633,11.5,21.5s0.052-0.259,0.146-0.354l1.854-1.854V16
		c0-0.276,0.224-0.5,0.5-0.5s0.5,0.224,0.5,0.5v2.293l2-2V13c0-0.276,0.224-0.5,0.5-0.5s0.5,0.224,0.5,0.5v2.293l2-2V10
		c0-0.276,0.224-0.5,0.5-0.5s0.5,0.224,0.5,0.5v2.293l1.146-1.146C21.741,11.052,21.866,11,22,11s0.259,0.052,0.354,0.146
		c0.195,0.195,0.195,0.512,0,0.707L21.207,13H23.5c0.276,0,0.5,0.224,0.5,0.5S23.776,14,23.5,14h-3.293l-2,2H20.5
		c0.276,0,0.5,0.224,0.5,0.5S20.776,17,20.5,17h-3.293l-2,2H17.5c0.276,0,0.5,0.224,0.5,0.5S17.776,20,17.5,20h-3.293l-1.854,1.854
		C12.259,21.948,12.134,22,12,22z"/>
	<path d="M5.633,24c-0.062,0-0.124-0.004-0.186-0.012c-0.398-0.05-0.752-0.251-0.998-0.567c-0.246-0.316-0.354-0.71-0.304-1.107
		l1.292-10.34C2.367,11.689,0,9.115,0,6c0-3.308,2.692-6,6-6l10.043,0c0.732,0,1.458,0.14,2.16,0.416
		c1.489,0.586,2.661,1.717,3.299,3.183s0.667,3.095,0.082,4.584C21.508,8.376,21.325,8.5,21.119,8.5
		c-0.063,0-0.125-0.012-0.183-0.035c-0.256-0.101-0.383-0.392-0.282-0.648c0.488-1.24,0.464-2.597-0.068-3.819
		c-0.532-1.222-1.508-2.164-2.748-2.652C17.269,1.123,16.65,1.006,15.998,1H6C3.243,1,1,3.243,1,6s2.243,5,5,5
		c0.144,0,0.28,0.062,0.375,0.169c0.095,0.107,0.139,0.25,0.121,0.393L5.137,22.438c-0.016,0.132,0.02,0.263,0.102,0.369
		c0.082,0.105,0.2,0.172,0.333,0.189C5.592,22.999,5.613,23,5.633,23h10.734c0.133,0,0.259-0.052,0.353-0.147
		c0.094-0.094,0.146-0.22,0.146-0.353c0-0.021-0.001-0.041-0.004-0.062l-0.109-0.877c-0.017-0.132,0.02-0.263,0.102-0.369
		c0.082-0.105,0.2-0.172,0.333-0.189c0.019-0.003,0.042-0.004,0.065-0.004c0.25,0,0.462,0.189,0.492,0.439l0.109,0.876
		c0.008,0.061,0.012,0.123,0.012,0.185c0,0.4-0.156,0.776-0.439,1.06S16.767,24,16.367,24H5.633z"/>
</g>
</svg>
