<?xml version="1.0" encoding="utf-8"?>
<!-- Generator: Adobe Illustrator 22.1.0, SVG Export Plug-In . SVG Version: 6.00 Build 0)  -->
<svg version="1.1" id="Light" xmlns="http://www.w3.org/2000/svg" xmlns:xlink="http://www.w3.org/1999/xlink" x="0px" y="0px"
	 viewBox="0 0 24 24" style="enable-background:new 0 0 24 24;" xml:space="preserve">
<g>
	<title>bread-wheat</title>
	<path d="M17.5,24c-0.276,0-0.5-0.224-0.5-0.5v-3.52c-3.384-0.256-6-3.058-6-6.48c0-0.276,0.224-0.5,0.5-0.5
		c2.258,0,4.321,1.165,5.5,3.038V13.48c-3.384-0.256-6-3.058-6-6.48c0-0.276,0.224-0.5,0.5-0.5c2.258,0,4.321,1.165,5.5,3.038V6.98
		c-3.384-0.256-6-3.057-6-6.48C11,0.224,11.224,0,11.5,0c2.258,0,4.321,1.165,5.5,3.038V0.5C17,0.224,17.224,0,17.5,0
		S18,0.224,18,0.5v2.538C19.179,1.165,21.242,0,23.5,0C23.776,0,24,0.224,24,0.5c0,3.422-2.616,6.223-6,6.48v2.558
		C19.179,7.665,21.242,6.5,23.5,6.5C23.776,6.5,24,6.724,24,7c0,3.422-2.616,6.223-6,6.48v2.558C19.179,14.165,21.242,13,23.5,13
		c0.276,0,0.5,0.224,0.5,0.5c0,3.422-2.616,6.223-6,6.48v3.52C18,23.776,17.776,24,17.5,24z M22.975,14.025
		c-2.598,0.25-4.7,2.352-4.95,4.95C20.623,18.725,22.725,16.623,22.975,14.025z M12.025,14.025c0.25,2.598,2.352,4.7,4.95,4.95
		C16.725,16.377,14.623,14.275,12.025,14.025z M22.975,7.525c-2.598,0.25-4.7,2.352-4.95,4.95
		C20.623,12.225,22.725,10.123,22.975,7.525z M12.025,7.525c0.25,2.598,2.352,4.7,4.95,4.95C16.725,9.877,14.623,7.775,12.025,7.525
		z M22.975,1.025c-2.598,0.25-4.7,2.352-4.95,4.95C20.623,5.725,22.725,3.623,22.975,1.025z M12.025,1.025
		c0.25,2.598,2.352,4.7,4.95,4.95C16.725,3.377,14.623,1.275,12.025,1.025z"/>
	<path d="M6.5,24C6.224,24,6,23.776,6,23.5v-3.52c-3.384-0.256-6-3.058-6-6.48C0,13.224,0.224,13,0.5,13
		c2.258,0,4.321,1.165,5.5,3.038V13.48C2.616,13.223,0,10.422,0,7c0-0.276,0.224-0.5,0.5-0.5c2.258,0,4.321,1.165,5.5,3.038V6.98
		C2.616,6.723,0,3.922,0,0.5C0,0.224,0.224,0,0.5,0C2.758,0,4.821,1.165,6,3.038V0.5C6,0.224,6.224,0,6.5,0S7,0.224,7,0.5v2.541
		c0.562-0.894,1.338-1.648,2.25-2.174C9.326,0.823,9.412,0.8,9.5,0.8c0.178,0,0.344,0.096,0.433,0.25
		c0.138,0.239,0.056,0.546-0.183,0.683c-1.53,0.883-2.555,2.49-2.725,4.243c1.162-0.11,2.269-0.593,3.141-1.376
		c0.091-0.082,0.21-0.128,0.334-0.128c0.142,0,0.278,0.061,0.373,0.166c0.089,0.099,0.134,0.227,0.127,0.361
		s-0.066,0.256-0.165,0.345C9.776,6.293,8.423,6.867,7,6.975v2.566c0.562-0.894,1.338-1.648,2.25-2.174
		C9.326,7.323,9.412,7.3,9.5,7.3c0.178,0,0.344,0.096,0.433,0.25c0.138,0.239,0.056,0.546-0.183,0.683
		c-1.53,0.883-2.555,2.49-2.725,4.243c1.162-0.11,2.268-0.593,3.141-1.376c0.092-0.082,0.21-0.128,0.334-0.128
		c0.142,0,0.277,0.06,0.372,0.166c0.184,0.206,0.167,0.522-0.038,0.706C9.776,12.793,8.423,13.367,7,13.475v2.566
		c0.562-0.894,1.338-1.648,2.25-2.174C9.326,13.823,9.412,13.8,9.5,13.8c0.178,0,0.344,0.096,0.433,0.25
		c0.138,0.239,0.056,0.545-0.183,0.683c-1.53,0.883-2.555,2.49-2.725,4.242c1.162-0.11,2.269-0.593,3.141-1.376
		c0.091-0.082,0.21-0.128,0.334-0.128c0.142,0,0.278,0.061,0.372,0.166c0.089,0.099,0.135,0.228,0.127,0.361
		c-0.007,0.133-0.066,0.256-0.166,0.345C9.776,19.293,8.423,19.867,7,19.975V23.5C7,23.776,6.776,24,6.5,24z M1.025,14.025
		c0.25,2.598,2.352,4.7,4.95,4.95C5.725,16.377,3.623,14.275,1.025,14.025z M1.025,7.525c0.25,2.598,2.352,4.7,4.95,4.95
		C5.725,9.877,3.623,7.775,1.025,7.525z M1.025,1.025c0.25,2.598,2.352,4.7,4.95,4.95C5.725,3.377,3.623,1.275,1.025,1.025z"/>
</g>
</svg>
