<?xml version="1.0" encoding="utf-8"?>
<!-- Generator: Adobe Illustrator 22.1.0, SVG Export Plug-In . SVG Version: 6.00 Build 0)  -->
<svg version="1.1" id="Light" xmlns="http://www.w3.org/2000/svg" xmlns:xlink="http://www.w3.org/1999/xlink" x="0px" y="0px"
	 viewBox="0 0 24 24" style="enable-background:new 0 0 24 24;" xml:space="preserve">
<g>
	<title>bread-loaf</title>
	<path d="M3.653,20c-0.071,0-0.141-0.005-0.211-0.015c-0.396-0.056-0.747-0.264-0.988-0.585s-0.342-0.716-0.286-1.112l0.761-5.33
		C1.037,12.699,0,11.127,0,8.5C0,6.019,2.019,4,4.5,4h15C21.981,4,24,6.019,24,8.5c0,2.27-1.705,4.181-3.929,4.464l0.761,5.324
		c0.01,0.07,0.015,0.141,0.015,0.212c0,0.827-0.673,1.5-1.5,1.5H3.653z M19.347,19c0.276,0,0.5-0.224,0.5-0.5
		c0-0.023-0.001-0.046-0.005-0.069L19.066,13H16.5c-0.276,0-0.5-0.224-0.5-0.5c0-0.276,0.224-0.5,0.5-0.5h3c1.93,0,3.5-1.57,3.5-3.5
		S21.43,5,19.5,5h-5.175C15.374,5.846,16,7.125,16,8.5c0,2.27-1.705,4.181-3.929,4.464L12.934,19H19.347z M3.997,12.536
		c0,0.012-0.001,0.024-0.002,0.034l-0.837,5.86c-0.039,0.273,0.152,0.526,0.425,0.565C3.605,18.998,3.629,19,3.653,19h8.271
		l-0.918-6.429c-0.021-0.144,0.022-0.289,0.117-0.399C11.217,12.063,11.355,12,11.5,12c1.93,0,3.5-1.57,3.5-3.5S13.43,5,11.5,5h-7
		C2.57,5,1,6.57,1,8.5C1,10.822,1.841,12,3.5,12c0.009,0,0.032,0.002,0.032,0.002c0.013,0,0.029,0.001,0.042,0.003
		c0.021,0.003,0.059,0.015,0.079,0.024c0.014,0.003,0.044,0.013,0.073,0.028c0.029,0.015,0.054,0.032,0.079,0.052
		c0.026,0.021,0.049,0.041,0.07,0.066c0.02,0.022,0.037,0.048,0.053,0.076c0.016,0.028,0.03,0.056,0.041,0.087
		c0.01,0.031,0.016,0.061,0.021,0.094c0,0,0,0,0,0C3.992,12.432,4,12.462,4,12.5C4,12.511,3.999,12.523,3.997,12.536z"/>
</g>
</svg>
