<?xml version="1.0" encoding="utf-8"?>
<!-- Generator: Adobe Illustrator 22.1.0, SVG Export Plug-In . SVG Version: 6.00 Build 0)  -->
<svg version="1.1" id="Layer_1" xmlns="http://www.w3.org/2000/svg" xmlns:xlink="http://www.w3.org/1999/xlink" x="0px" y="0px"
	 viewBox="0 0 24 24" style="enable-background:new 0 0 24 24;" xml:space="preserve">
<g>
	<title>vintage-woman-2</title>
	<path d="M12,16c-2.785,0-5.233-1.782-6.134-4.35c-0.36,1.12-0.956,2.322-1.931,2.953c0.506,0.228,1.055,0.347,1.621,0.347
		c0.282,0,0.567-0.03,0.847-0.09c0.033-0.008,0.069-0.012,0.106-0.012c0.233,0,0.438,0.167,0.487,0.396
		c0.028,0.131,0.003,0.265-0.069,0.377s-0.185,0.189-0.315,0.217c-0.348,0.074-0.702,0.112-1.053,0.112
		c-0.71,0-1.402-0.15-2.057-0.445c-0.176-0.089-0.309-0.208-0.406-0.358c-0.145-0.224-0.194-0.492-0.138-0.753
		c0.056-0.261,0.21-0.485,0.434-0.63C4.917,12.775,5.492,9.438,5.5,7.538C4.436,7.386,3.392,7.201,2.396,6.989
		C2.265,6.961,2.153,6.884,2.081,6.772s-0.097-0.246-0.07-0.376C2.06,6.166,2.265,6,2.5,6C2.535,6,2.57,6.004,2.605,6.011
		c0.902,0.192,1.854,0.362,2.831,0.507c0.443-0.963,0.692-1.985,0.74-3.041c0.003-0.566-0.048-1.149-0.151-1.721
		C6.008,1.665,6,1.572,6,1.478C6.008,0.667,6.681,0.004,7.501,0H16.5c0.101,0.001,0.189,0.009,0.273,0.024
		c0.392,0.071,0.733,0.29,0.96,0.617c0.227,0.327,0.313,0.723,0.242,1.115c-0.104,0.574-0.155,1.16-0.151,1.741
		c0.048,1.04,0.296,2.058,0.739,3.021c0.975-0.144,1.927-0.314,2.832-0.507C21.429,6.004,21.465,6,21.5,6
		c0.234,0,0.439,0.167,0.489,0.396c0.057,0.27-0.115,0.536-0.385,0.594c-0.996,0.212-2.04,0.397-3.104,0.549
		c0.008,1.9,0.583,5.237,2.109,6.227c0.224,0.145,0.378,0.368,0.434,0.629c0.056,0.261,0.007,0.529-0.138,0.753
		c-0.095,0.147-0.228,0.267-0.384,0.347c-0.673,0.304-1.37,0.456-2.082,0.456c-0.35,0-0.703-0.037-1.05-0.111
		c-0.27-0.058-0.442-0.323-0.385-0.593c0.049-0.23,0.255-0.396,0.49-0.396c0.034,0,0.069,0.004,0.103,0.011
		c0.279,0.059,0.563,0.09,0.844,0.09c0.559,0,1.104-0.116,1.62-0.344c-0.972-0.635-1.567-1.835-1.927-2.955
		C17.233,14.218,14.784,16,12,16z M6.5,9.5c0,3.033,2.467,5.5,5.5,5.5s5.5-2.467,5.5-5.5V7.671c-1.835,0.222-3.684,0.335-5.5,0.335
		c-1.816,0-3.665-0.113-5.5-0.335V9.5z M6.466,6.662C8.301,6.89,10.161,7.006,12,7.006s3.699-0.116,5.534-0.344
		c-0.263-0.623-0.455-1.269-0.573-1.926C15.305,4.911,13.638,4.999,12,4.999S8.694,4.911,7.038,4.736
		C6.92,5.393,6.728,6.039,6.466,6.662z M7.161,3.744C8.762,3.911,10.388,3.996,12,3.996c1.612,0,3.238-0.085,4.839-0.253
		c-0.005-0.073-0.01-0.147-0.013-0.221c-0.004-0.66,0.052-1.311,0.166-1.944c0.023-0.129-0.005-0.259-0.08-0.367
		c-0.075-0.108-0.187-0.18-0.316-0.203C16.571,1.003,16.546,1,16.52,1L7.501,1C7.359,1,7.243,1.046,7.147,1.141
		C7.053,1.233,7.001,1.355,7,1.487c0,0.031,0.002,0.062,0.008,0.092c0.115,0.634,0.171,1.281,0.167,1.925
		C7.171,3.585,7.167,3.665,7.161,3.744z"/>
	<path d="M10.5,24c-0.038,0-0.076-0.004-0.113-0.013c-0.13-0.03-0.241-0.109-0.311-0.222c-0.071-0.113-0.093-0.247-0.063-0.377
		l1.357-5.879c-1.396,0.034-2.719,0.179-3.939,0.435l2.037,5.38c0.098,0.258-0.033,0.547-0.29,0.645C9.12,23.989,9.061,24,9,24
		c-0.207,0-0.394-0.13-0.468-0.323l-2.083-5.5c-0.336,0.091-0.665,0.19-0.982,0.298l-1.348,2.88l2.193,1.754
		c0.215,0.173,0.25,0.488,0.078,0.703C6.295,23.932,6.152,24,6,24c-0.113,0-0.224-0.039-0.312-0.11l-2.5-2
		c-0.181-0.145-0.239-0.393-0.141-0.603l1.065-2.275c-0.945,0.434-1.618,0.879-2.039,1.2c-0.361,0.278-0.576,0.719-0.573,1.178V23.5
		C1.5,23.776,1.276,24,1,24s-0.5-0.224-0.5-0.5v-2.106c-0.005-0.766,0.355-1.505,0.965-1.975c0.656-0.499,1.788-1.217,3.46-1.812
		c0-0.001,0.017-0.007,0.035-0.012C7.009,16.869,9.381,16.5,12,16.5c2.627,0,5.002,0.37,7.061,1.1c0.001,0,0.003,0.001,0.003,0.001
		c1.681,0.596,2.814,1.317,3.469,1.817c0.611,0.471,0.972,1.211,0.967,1.98V23.5c0,0.276-0.224,0.5-0.5,0.5s-0.5-0.224-0.5-0.5
		v-2.106c0.003-0.461-0.212-0.903-0.575-1.183c-0.42-0.32-1.092-0.767-2.039-1.201l1.066,2.278c0.098,0.209,0.041,0.457-0.14,0.602
		l-2.5,2C18.224,23.961,18.113,24,18,24c-0.153,0-0.295-0.068-0.391-0.187c-0.172-0.216-0.137-0.531,0.078-0.703l2.193-1.754
		l-1.349-2.883c-0.317-0.107-0.646-0.207-0.98-0.297l-2.083,5.501C15.395,23.87,15.207,24,15,24c-0.06,0-0.12-0.011-0.177-0.032
		c-0.258-0.098-0.389-0.387-0.291-0.645l2.038-5.381c-1.22-0.254-2.543-0.4-3.939-0.433l1.357,5.879
		c0.03,0.13,0.008,0.264-0.063,0.377c-0.071,0.113-0.181,0.192-0.312,0.222C13.576,23.996,13.538,24,13.5,24
		c-0.234,0-0.434-0.159-0.487-0.387L12,19.224l-1.013,4.389C10.935,23.841,10.734,24,10.5,24z"/>
	<path d="M12,12.997c-0.648,0-1.287-0.212-1.8-0.597c-0.107-0.08-0.176-0.197-0.195-0.329C9.986,11.938,10.02,11.807,10.1,11.7
		c0.094-0.125,0.244-0.2,0.4-0.2c0.109,0,0.213,0.035,0.3,0.1c0.341,0.256,0.768,0.397,1.2,0.397c0.432,0,0.859-0.141,1.2-0.397
		c0.086-0.065,0.19-0.1,0.3-0.1c0.157,0,0.306,0.075,0.4,0.2c0.08,0.106,0.114,0.238,0.095,0.37
		c-0.019,0.132-0.088,0.249-0.195,0.329C13.287,12.785,12.648,12.997,12,12.997z"/>
	<circle cx="14" cy="9.5" r="0.75"/>
	<circle cx="10" cy="9.5" r="0.75"/>
</g>
</svg>
