<?xml version="1.0" encoding="utf-8"?>
<!-- Generator: Adobe Illustrator 22.1.0, SVG Export Plug-In . SVG Version: 6.00 Build 0)  -->
<svg version="1.1" id="Layer_1" xmlns="http://www.w3.org/2000/svg" xmlns:xlink="http://www.w3.org/1999/xlink" x="0px" y="0px"
	 viewBox="0 0 24 24" style="enable-background:new 0 0 24 24;" xml:space="preserve">
<g>
	<title>antique-swords</title>
	<path d="M0.5,24.001c-0.134,0-0.259-0.052-0.354-0.146c-0.13-0.13-0.178-0.32-0.125-0.497c1.004-3.346,2.841-6.42,5.312-8.889
		l2.466-2.468L5.503,9.706l-1.65,1.65c-0.094,0.094-0.22,0.146-0.354,0.146s-0.259-0.052-0.354-0.146S3,11.135,3,11.002
		s0.052-0.259,0.146-0.354L5.605,8.19L1.241,5.424c-0.05-0.032-0.094-0.072-0.13-0.119C0.239,4.163-0.146,2.692,0.053,1.269
		c0.054-0.316,0.208-0.601,0.435-0.81c0.18-0.199,0.465-0.351,0.765-0.403c0.254-0.036,0.505-0.053,0.755-0.053
		c1.189,0,2.359,0.394,3.296,1.109c0.047,0.036,0.087,0.08,0.119,0.13l2.766,4.365l2.458-2.458c0.094-0.094,0.22-0.146,0.354-0.146
		s0.259,0.052,0.354,0.146c0.195,0.195,0.195,0.512,0,0.707l-1.649,1.65l2.294,2.294l2.295-2.297l-1.646-1.647
		c-0.195-0.195-0.195-0.512,0-0.707c0.094-0.094,0.22-0.146,0.354-0.146s0.259,0.052,0.354,0.146l2.458,2.458l2.766-4.364
		c0.032-0.051,0.073-0.094,0.12-0.13c0.936-0.715,2.106-1.109,3.294-1.109c0.248,0,0.497,0.017,0.74,0.051
		c0.316,0.054,0.601,0.208,0.81,0.434c0.199,0.181,0.352,0.466,0.403,0.766c0.202,1.434-0.183,2.907-1.054,4.05
		c-0.035,0.047-0.079,0.087-0.13,0.119L18.395,8.19l2.458,2.458c0.195,0.195,0.195,0.512,0,0.707
		c-0.094,0.094-0.22,0.146-0.354,0.146s-0.259-0.052-0.354-0.146L18.5,9.709l-8.968,8.96c-2.469,2.47-5.543,4.307-8.889,5.312
		C0.597,23.994,0.549,24.001,0.5,24.001z M6.04,15.176c-2.119,2.117-3.757,4.717-4.758,7.544c2.827-1.001,5.426-2.639,7.544-4.758
		l8.968-8.96L16.75,7.959l-9.396,9.396C7.259,17.449,7.134,17.501,7,17.501s-0.259-0.052-0.354-0.146
		c-0.195-0.195-0.195-0.512,0-0.707l9.396-9.396L15,6.209l-2.624,2.626c-0.007,0.01-0.015,0.019-0.023,0.026
		c-0.008,0.008-0.018,0.017-0.029,0.025l-1.7,1.702c-0.006,0.007-0.012,0.015-0.018,0.021c-0.007,0.007-0.015,0.014-0.024,0.021
		l-1.705,1.707c-0.005,0.007-0.011,0.013-0.017,0.019c-0.006,0.006-0.013,0.012-0.02,0.018L6.04,15.176z M8.506,11.293l1.039-1.04
		L7.25,7.959l-1.04,1.04L8.506,11.293z M10.252,9.546l1.04-1.04L8.997,6.212l-1.04,1.04L10.252,9.546z M6.33,7.465l1.134-1.134
		L4.627,1.855C3.876,1.305,2.948,1.003,2.01,1.003c-0.202,0-0.405,0.014-0.603,0.042C1.333,1.057,1.253,1.102,1.194,1.166
		C1.103,1.252,1.056,1.333,1.041,1.423C0.885,2.54,1.18,3.708,1.854,4.628L6.33,7.465z M17.671,7.465l4.476-2.836
		c0.673-0.921,0.968-2.092,0.809-3.22c-0.013-0.073-0.057-0.154-0.121-0.213c-0.086-0.091-0.167-0.138-0.257-0.153
		c-0.188-0.026-0.389-0.04-0.588-0.04c-0.937,0-1.864,0.302-2.616,0.853l-2.837,4.476L17.671,7.465z"/>
	<path d="M23.5,24.001c-0.049,0-0.098-0.007-0.144-0.021c-3.345-1.004-6.419-2.841-8.888-5.311l-1.567-1.567
		c-0.094-0.094-0.146-0.22-0.146-0.354s0.052-0.259,0.146-0.354s0.22-0.146,0.354-0.146s0.259,0.052,0.354,0.146l1.567,1.567
		c2.118,2.118,4.718,3.757,7.544,4.758c-1.001-2.826-2.639-5.426-4.758-7.544l-1.567-1.568c-0.094-0.094-0.146-0.22-0.146-0.354
		c0-0.134,0.052-0.259,0.147-0.353c0.094-0.094,0.22-0.146,0.353-0.146s0.259,0.052,0.354,0.146l1.567,1.568
		c2.47,2.47,4.307,5.543,5.312,8.889c0.053,0.176,0.005,0.367-0.125,0.497C23.759,23.949,23.634,24.001,23.5,24.001z"/>
	<path d="M17,17.501c-0.134,0-0.259-0.052-0.354-0.146l-2-2c-0.094-0.094-0.146-0.22-0.146-0.354s0.052-0.259,0.146-0.354
		s0.22-0.146,0.354-0.146s0.259,0.052,0.354,0.146l2,2c0.094,0.094,0.146,0.22,0.146,0.354s-0.052,0.259-0.146,0.354
		S17.134,17.501,17,17.501z"/>
</g>
</svg>
