<?xml version="1.0" encoding="utf-8"?>
<!-- Generator: Adobe Illustrator 22.1.0, SVG Export Plug-In . SVG Version: 6.00 Build 0)  -->
<svg version="1.1" id="Layer_1" xmlns="http://www.w3.org/2000/svg" xmlns:xlink="http://www.w3.org/1999/xlink" x="0px" y="0px"
	 viewBox="0 0 24 24" style="enable-background:new 0 0 24 24;" xml:space="preserve">
<g>
	<title>antique-mace-double</title>
	<path d="M20.5,22.75c-1.93,0-3.5-1.57-3.5-3.5c0-1.557,1.01-2.901,2.483-3.346L18.24,7.771l-3.703,7.139
		C15.457,15.568,16,16.614,16,17.75c0,1.93-1.57,3.5-3.5,3.5S9,19.68,9,17.75s1.57-3.5,3.5-3.5c0.396,0,0.782,0.065,1.151,0.195
		l3.969-7.65L4.469,19.945c0.023,0.085,0.035,0.171,0.035,0.258c0,0.267-0.104,0.518-0.293,0.707l-0.574,0.574
		c-0.172,0.172-0.4,0.275-0.641,0.29l-2.463,0.164c-0.005,0-0.028,0.001-0.033,0.001c-0.132,0-0.261-0.053-0.354-0.147
		c-0.102-0.102-0.155-0.243-0.145-0.387l0.164-2.464c0.017-0.243,0.12-0.47,0.292-0.641l0.573-0.573
		c0.183-0.183,0.433-0.284,0.703-0.284c0.086,0,0.173,0.011,0.256,0.032L15.206,4.26c-0.079-0.823,0.205-1.62,0.789-2.204
		c0.519-0.519,1.21-0.806,1.945-0.806s1.425,0.286,1.944,0.806c1.072,1.07,1.074,2.813,0.003,3.886
		c-0.242,0.242-0.52,0.432-0.829,0.569l1.412,9.24c0.01,0,0.019,0,0.029,0c1.93,0,3.5,1.57,3.5,3.5S22.43,22.75,20.5,22.75z
		 M20.5,16.75c-1.378,0-2.5,1.122-2.5,2.5s1.122,2.5,2.5,2.5s2.5-1.122,2.5-2.5S21.879,16.75,20.5,16.75z M1.164,19.01l-0.127,1.894
		l1.894-0.126l0.574-0.573l-1.767-1.768L1.164,19.01z M12.5,15.25c-1.379,0-2.5,1.122-2.5,2.5s1.121,2.5,2.5,2.5
		c1.378,0,2.5-1.122,2.5-2.5S13.879,15.25,12.5,15.25z M3.858,19.142L16.6,6.401c-0.221-0.123-0.424-0.276-0.604-0.457
		c-0.181-0.181-0.333-0.383-0.456-0.604L2.798,18.082L3.858,19.142z M1.737,18.436L1.737,18.436
		C1.737,18.436,1.737,18.436,1.737,18.436z M17.94,2.25c-0.468,0-0.907,0.182-1.238,0.513c-0.682,0.682-0.682,1.792,0,2.475
		c0.331,0.331,0.77,0.513,1.238,0.513s0.907-0.182,1.237-0.513c0.004-0.005,0.014-0.013,0.019-0.018
		c0.665-0.669,0.663-1.777-0.018-2.457C18.847,2.432,18.408,2.25,17.94,2.25z"/>
</g>
</svg>
