<?xml version="1.0" encoding="utf-8"?>
<!-- Generator: Adobe Illustrator 22.1.0, SVG Export Plug-In . SVG Version: 6.00 Build 0)  -->
<svg version="1.1" id="Layer_1" xmlns="http://www.w3.org/2000/svg" xmlns:xlink="http://www.w3.org/1999/xlink" x="0px" y="0px"
	 viewBox="0 0 24 24" style="enable-background:new 0 0 24 24;" xml:space="preserve">
<g>
	<title>antique-sling</title>
	<path d="M7.5,21.5C3.369,21.495,0.005,18.131,0,14c0-1.103,0.897-2,2-2c0.519,0,1.009,0.199,1.379,0.554l6.444-6.409
		C9.918,6.052,10.043,6,10.176,6c0.134,0,0.26,0.052,0.355,0.148c0.094,0.094,0.146,0.22,0.145,0.354
		c0,0.134-0.053,0.259-0.147,0.353l-6.613,6.576C3.972,13.616,4,13.807,4,14c0,1.93,1.57,3.5,3.5,3.5
		c0.391,0,0.774,0.116,1.099,0.33l4.513-4.617c0.095-0.097,0.222-0.15,0.358-0.15c0.132,0,0.256,0.051,0.35,0.143
		c0.095,0.093,0.148,0.218,0.15,0.351s-0.049,0.26-0.143,0.355l-4.555,4.661C9.422,18.859,9.5,19.175,9.5,19.5
		C9.5,20.603,8.603,21.5,7.5,21.5C7.5,21.5,7.5,21.5,7.5,21.5z M2,13c-0.551,0-1,0.448-1,1c0.004,3.58,2.92,6.496,6.5,6.5
		c0.551,0,1-0.449,1-1c0-0.552-0.449-1-1-1C5.019,18.5,3,16.481,3,14C3,13.448,2.551,13,2,13z"/>
	<path d="M16.5,24c-0.827,0-1.5-0.673-1.5-1.5V13c0.002-0.428-0.179-0.837-0.497-1.122c-2.231-1.987-3.505-4.841-3.495-7.831V2
		c0-1.103,0.897-2,2-2c1.103,0,2,0.897,2,2v2.048c-0.004,1.399,0.458,2.783,1.299,3.899c0.083,0.11,0.182,0.209,0.293,0.293
		c0.262,0.198,0.574,0.302,0.902,0.302c0.476,0,0.914-0.217,1.199-0.595c0.841-1.116,1.302-2.5,1.299-3.898V2c0-1.103,0.897-2,2-2
		s2,0.897,2,2v2.048c0.01,2.988-1.265,5.843-3.498,7.831C20.183,12.164,20,12.572,20,13v9.5c0,0.827-0.673,1.5-1.5,1.5H16.5z
		 M13.008,1c-0.552,0-1,0.449-1,1v2.048c-0.009,2.705,1.144,5.287,3.162,7.085c0.53,0.477,0.832,1.158,0.83,1.869V22.5
		c0,0.276,0.224,0.5,0.5,0.5h2c0.276,0,0.5-0.224,0.5-0.5V13c0-0.713,0.305-1.394,0.837-1.867C21.856,9.334,23.009,6.753,23,4.05V2
		c0-0.551-0.448-1-1-1s-1,0.449-1,1v2.048c0.004,1.613-0.529,3.212-1.5,4.501c-0.477,0.631-1.205,0.993-1.998,0.993
		c-0.547,0-1.067-0.174-1.504-0.504c-0.184-0.139-0.348-0.303-0.488-0.488c-0.972-1.289-1.505-2.888-1.501-4.503V2
		C14.008,1.449,13.56,1,13.008,1z"/>
</g>
</svg>
