<?xml version="1.0" encoding="utf-8"?>
<!-- Generator: Adobe Illustrator 22.1.0, SVG Export Plug-In . SVG Version: 6.00 Build 0)  -->
<svg version="1.1" id="Layer_1" xmlns="http://www.w3.org/2000/svg" xmlns:xlink="http://www.w3.org/1999/xlink" x="0px" y="0px"
	 viewBox="0 0 24 24" style="enable-background:new 0 0 24 24;" xml:space="preserve">
<g>
	<title>antique-catapult-1</title>
	<path d="M1,21.5c-0.551,0-1-0.448-1-1v-1.145c0-0.426,0.27-0.805,0.672-0.944l4.838-1.683l-3.363-4.541l-0.135-0.081
		c-1.68-1.009-2.379-3.065-1.664-4.889c0.106-0.271,0.325-0.482,0.6-0.579c0.108-0.037,0.217-0.055,0.328-0.055
		c0.181,0,0.359,0.05,0.515,0.143l5.502,3.302c0.253,0.152,0.425,0.406,0.472,0.696c0.048,0.289-0.033,0.585-0.224,0.81
		c-0.344,0.402-0.767,0.732-1.241,0.97l4.27,3.112c0.454-0.034,0.927-0.052,1.407-0.052c0.008,0,0.015,0,0.023,0V3.5
		c0-0.551,0.448-1,1-1h1c0.552,0,1,0.449,1,1v1.367l7.592,13.288l0.736,0.256C23.73,18.55,24,18.929,24,19.354V20.5
		c0,0.552-0.448,1-1,1H1z M12,16.562c-1.97,0-3.904,0.325-5.749,0.967L1,19.355L1,20.5h22v-1.145l-3.924-1.365
		c-0.047-0.009-0.091-0.025-0.131-0.045l-1.196-0.416C15.904,16.887,13.97,16.562,12,16.562z M21.155,17.655L15,6.883v1.989
		l4.518,8.214L21.155,17.655z M15,15.809c1.059,0.173,2.094,0.433,3.077,0.776l0.03,0.01L15,10.946V15.809z M6.508,16.396
		c0.854-0.265,1.725-0.469,2.599-0.607l-3.984-2.903c-0.218,0.035-0.422,0.053-0.621,0.053c-0.197,0-0.394-0.015-0.588-0.044
		L6.508,16.396z M13,15.589c0.332,0.018,0.667,0.045,1,0.081V3.5h-1L13,15.589z M1.275,7.584c-0.532,1.367-0.008,2.909,1.252,3.666
		l0.428,0.257c0.468,0.281,1.001,0.43,1.543,0.43c0.218,0,0.437-0.024,0.651-0.071c0.003-0.001,0.006-0.001,0.009-0.002
		c0.637-0.143,1.197-0.48,1.622-0.976L1.275,7.584z"/>
	<path d="M12,20c-0.827,0-1.5-0.673-1.5-1.5S11.173,17,12,17s1.5,0.673,1.5,1.5S12.827,20,12,20z M12,18c-0.276,0-0.5,0.224-0.5,0.5
		S11.724,19,12,19c0.276,0,0.5-0.224,0.5-0.5S12.276,18,12,18z"/>
</g>
</svg>
