<?xml version="1.0" encoding="utf-8"?>
<!-- Generator: Adobe Illustrator 22.1.0, SVG Export Plug-In . SVG Version: 6.00 Build 0)  -->
<svg version="1.1" id="Layer_1" xmlns="http://www.w3.org/2000/svg" xmlns:xlink="http://www.w3.org/1999/xlink" x="0px" y="0px"
	 viewBox="0 0 24 24" style="enable-background:new 0 0 24 24;" xml:space="preserve">
<g>
	<title>antique-sword-1</title>
	<path d="M2.611,23.389c-1.103,0-2-0.897-2-2c0-1.056,0.832-1.93,1.874-1.995l3.811-3.811c-0.756-1.048-1.282-2.216-1.563-3.474
		c-0.06-0.269,0.11-0.537,0.379-0.597C5.148,11.504,5.184,11.5,5.221,11.5c0.233,0,0.438,0.164,0.488,0.391
		c0.239,1.068,0.677,2.067,1.306,2.973l0.546-0.546c0.328-0.328,0.388-0.833,0.147-1.228c-0.229-0.402-0.159-0.895,0.166-1.206
		l9.848-9.849c0.121-0.12,0.271-0.208,0.434-0.255l3.958-1.131c0.089-0.026,0.182-0.039,0.274-0.039
		c0.444,0,0.839,0.298,0.962,0.725c0.051,0.18,0.051,0.37,0,0.548l-1.131,3.96c-0.046,0.163-0.134,0.312-0.253,0.432l-9.857,9.857
		c-0.178,0.186-0.435,0.295-0.699,0.295h0c-0.17,0-0.338-0.044-0.486-0.129c-0.168-0.102-0.351-0.154-0.536-0.154
		c-0.266,0-0.516,0.104-0.705,0.293l-0.555,0.556c0.924,0.652,1.948,1.105,3.049,1.349c0.13,0.029,0.242,0.107,0.314,0.219
		c0.072,0.113,0.095,0.246,0.067,0.377c-0.05,0.227-0.255,0.392-0.488,0.392c-0.036,0-0.071-0.004-0.107-0.011
		c-1.287-0.284-2.479-0.826-3.549-1.611l-3.805,3.805C4.54,22.557,3.667,23.389,2.611,23.389z M2.611,20.389c-0.551,0-1,0.448-1,1
		s0.449,1,1,1s1-0.448,1-1S3.162,20.389,2.611,20.389z M3.625,19.667c0.292,0.172,0.535,0.415,0.707,0.707l3.3-3.3
		c-0.244-0.221-0.479-0.459-0.703-0.711L3.625,19.667z M7.637,15.655c0.222,0.252,0.458,0.49,0.703,0.711l0.634-0.634
		c0.378-0.379,0.88-0.587,1.413-0.587c0.359,0,0.712,0.097,1.022,0.281l9.848-9.855l1.131-3.96l-3.959,1.131l-9.857,9.856
		c0.473,0.765,0.35,1.772-0.305,2.427L7.637,15.655z"/>
	<path d="M11.096,13.404c-0.134,0-0.259-0.052-0.354-0.146s-0.146-0.22-0.146-0.354s0.052-0.259,0.146-0.354l8.132-8.132
		c0.094-0.094,0.22-0.146,0.354-0.146s0.259,0.052,0.354,0.146s0.146,0.22,0.146,0.354s-0.052,0.259-0.146,0.354l-8.132,8.132
		C11.355,13.352,11.229,13.404,11.096,13.404z"/>
</g>
</svg>
