<?xml version="1.0" encoding="utf-8"?>
<!-- Generator: Adobe Illustrator 22.1.0, SVG Export Plug-In . SVG Version: 6.00 Build 0)  -->
<svg version="1.1" id="Layer_1" xmlns="http://www.w3.org/2000/svg" xmlns:xlink="http://www.w3.org/1999/xlink" x="0px" y="0px"
	 viewBox="0 0 24 24" style="enable-background:new 0 0 24 24;" xml:space="preserve">
<g>
	<title>antique-axe-1</title>
	<path d="M2.2,22.801c-0.121,0-0.243-0.015-0.362-0.045l-0.649-0.163c-0.133-0.033-0.261-0.085-0.38-0.153
		c-0.348-0.198-0.598-0.521-0.703-0.907c-0.106-0.386-0.054-0.791,0.144-1.139l1.974-3.454c0.154-0.271,0.344-0.519,0.564-0.739
		l9.654-9.654c-0.031-0.018-0.061-0.036-0.09-0.052c-0.199-0.112-0.297-0.344-0.238-0.565c0.221-0.822,0.653-1.578,1.248-2.186
		c0.591-0.609,1.334-1.059,2.147-1.301c0.046-0.014,0.094-0.021,0.143-0.021c0.175,0,0.339,0.093,0.429,0.243
		c0.029,0.049,0.061,0.099,0.094,0.15l1.205-1.205c0.284-0.275,0.655-0.425,1.045-0.425c0.001,0,0.024,0,0.025,0
		c0.402,0.007,0.776,0.169,1.054,0.458c0.278,0.288,0.428,0.668,0.421,1.068c-0.007,0.4-0.169,0.774-0.458,1.053L18.49,4.743
		c0.603,0.246,1.251,0.375,1.895,0.375c0.223,0,0.447-0.015,0.665-0.046c0.449-0.059,0.886-0.178,1.301-0.354
		c0.04-0.016,0.07-0.026,0.101-0.036c0.091-0.027,0.186-0.041,0.28-0.041c0.163,0,0.325,0.042,0.47,0.12
		c0.232,0.126,0.401,0.334,0.476,0.587c0.329,1.177,0.345,2.419,0.049,3.597c-0.783,3.113-3.573,5.287-6.782,5.287
		c-0.572,0-1.146-0.072-1.706-0.212c-0.038-0.01-0.07-0.021-0.101-0.032c-0.244-0.092-0.44-0.275-0.55-0.516
		c-0.109-0.241-0.118-0.51-0.024-0.757c0.505-1.284,0.463-2.7-0.104-3.937l-9.328,9.329c-0.273,0.273-0.482,0.611-0.604,0.978
		l-0.9,2.691C3.422,22.389,2.849,22.801,2.2,22.801z M3.496,16.909c-0.157,0.157-0.292,0.334-0.402,0.527L1.119,20.89
		c-0.066,0.116-0.083,0.251-0.048,0.38c0.035,0.129,0.118,0.236,0.234,0.302c0.039,0.022,0.082,0.04,0.127,0.051l0.649,0.163
		c0.04,0.01,0.08,0.015,0.12,0.015c0.213,0,0.409-0.141,0.476-0.342l0.9-2.691c0.171-0.513,0.463-0.986,0.846-1.368l9.509-9.51
		c-0.163-0.222-0.34-0.427-0.529-0.612c-0.044-0.043-0.092-0.087-0.145-0.133L3.496,16.909z M15.504,13.054
		c0.473,0.116,0.956,0.175,1.438,0.175c2.752,0,5.143-1.862,5.814-4.528c0.252-1.002,0.24-2.057-0.034-3.054
		c-0.309,0.127-0.627,0.23-0.951,0.306c0.263,0.991,0.216,2.049-0.138,3.008c-0.462,1.253-1.385,2.251-2.597,2.811
		c-0.665,0.307-1.369,0.462-2.092,0.462c-0.383,0-0.771-0.047-1.157-0.141C15.72,12.423,15.625,12.745,15.504,13.054z M15.91,11.092
		c0.343,0.093,0.694,0.14,1.045,0.14c0.575,0,1.135-0.124,1.663-0.367c0.97-0.448,1.708-1.246,2.077-2.249
		c0.296-0.803,0.323-1.688,0.08-2.513c-0.132,0.009-0.264,0.013-0.395,0.013c-1.556,0-3.082-0.621-4.185-1.703
		c-0.277-0.272-0.528-0.571-0.749-0.89c-0.513,0.207-0.982,0.521-1.366,0.918c-0.001,0.001-0.002,0.002-0.003,0.003
		c-0.387,0.395-0.69,0.874-0.884,1.393c0.117,0.077,0.233,0.16,0.349,0.247c0.008,0.005,0.016,0.011,0.023,0.018
		c0.19,0.146,0.37,0.3,0.536,0.46c0.317,0.31,0.6,0.656,0.843,1.03c0.049,0.05,0.086,0.111,0.111,0.182
		C15.661,8.782,15.954,9.925,15.91,11.092z M16.896,3.7c0.204,0.2,0.43,0.385,0.674,0.55l1.198-1.199
		c0.103-0.099,0.156-0.222,0.159-0.357c0.002-0.133-0.048-0.26-0.14-0.356c-0.092-0.096-0.215-0.15-0.348-0.153
		c-0.136,0.002-0.27,0.054-0.359,0.14l-1.278,1.279C16.832,3.636,16.864,3.668,16.896,3.7z"/>
</g>
</svg>
