<?xml version="1.0" encoding="utf-8"?>
<!-- Generator: Adobe Illustrator 22.1.0, SVG Export Plug-In . SVG Version: 6.00 Build 0)  -->
<svg version="1.1" id="Light" xmlns="http://www.w3.org/2000/svg" xmlns:xlink="http://www.w3.org/1999/xlink" x="0px" y="0px"
	 viewBox="0 0 24 24" style="enable-background:new 0 0 24 24;" xml:space="preserve">
<g>
	<title>outdoors-water-flask</title>
	<path d="M21,7.678c-1.654,0-3-1.346-3-3c0-1.1,1.196-2.933,2.2-4.276c0.16-0.214,0.394-0.353,0.659-0.391
		c0.048-0.007,0.095-0.01,0.143-0.01c0.217,0,0.424,0.069,0.599,0.2c0.077,0.057,0.144,0.125,0.201,0.201
		C22.804,1.748,24,3.582,24,4.678C24,6.332,22.654,7.678,21,7.678z M20.999,1.001C19.526,2.975,19,4.195,19,4.678
		c0,1.103,0.897,2,2,2s2-0.897,2-2C23,4.197,22.475,2.979,20.999,1.001L20.999,1.001z"/>
	<path d="M4.5,24c-1.042,0-2.045-0.363-2.852-1.027l-0.338,0.338c-0.094,0.094-0.22,0.146-0.354,0.146s-0.259-0.052-0.354-0.146
		c-0.195-0.195-0.195-0.512,0-0.707l0.346-0.346C0.336,21.468,0,20.498,0,19.5v-5c-0.003-2.343,0.898-4.661,2.481-6.398L2.146,7.767
		c-0.195-0.195-0.195-0.512,0-0.707C2.241,6.966,2.366,6.914,2.5,6.914S2.759,6.966,2.854,7.06l0.32,0.32
		C4.016,6.538,4.965,5.809,6,5.21V1.5C6,0.673,6.673,0,7.5,0h4C12.327,0,13,0.673,13,1.5v3.71c1.032,0.597,1.981,1.326,2.826,2.171
		l0.321-0.321c0.094-0.094,0.22-0.146,0.354-0.146s0.259,0.052,0.354,0.146c0.195,0.195,0.195,0.512,0,0.707l-0.334,0.334
		C18.102,9.835,19.003,12.153,19,14.5v5c0,0.998-0.336,1.968-0.95,2.757l0.346,0.346c0.195,0.195,0.195,0.512,0,0.707
		c-0.094,0.094-0.22,0.146-0.354,0.146s-0.259-0.052-0.354-0.146l-0.338-0.338C16.545,23.637,15.542,24,14.5,24H4.5z M2.359,22.262
		C2.973,22.74,3.724,23,4.5,23h10c0.776,0,1.527-0.26,2.141-0.738L9.5,15.121L2.359,22.262z M17.337,21.544
		C17.766,20.949,18,20.233,18,19.5v-5c0.003-2.081-0.792-4.14-2.189-5.69l-5.604,5.604L17.337,21.544z M3.189,8.81
		C1.792,10.363,0.997,12.422,1,14.5v5c0,0.734,0.234,1.45,0.663,2.044l7.13-7.13L3.189,8.81z M9.5,13.707l5.619-5.619
		C14.296,7.266,13.372,6.565,12.368,6H6.632C5.625,6.566,4.701,7.268,3.881,8.088L9.5,13.707z M12,5V1.5C12,1.224,11.776,1,11.5,1
		h-4C7.224,1,7,1.224,7,1.5V5H12z"/>
</g>
</svg>
