<?xml version="1.0" encoding="utf-8"?>
<!-- Generator: Adobe Illustrator 22.1.0, SVG Export Plug-In . SVG Version: 6.00 Build 0)  -->
<svg version="1.1" id="Light" xmlns="http://www.w3.org/2000/svg" xmlns:xlink="http://www.w3.org/1999/xlink" x="0px" y="0px"
	 viewBox="0 0 24 24" style="enable-background:new 0 0 24 24;" xml:space="preserve">
<g>
	<title>outdoors-bench-sit</title>
	<path d="M9.998,6.547c-1.654,0-3-1.346-3-3s1.346-3,3-3c1.654,0,3,1.346,3,3S11.652,6.547,9.998,6.547z M9.998,1.547
		c-1.103,0-2,0.897-2,2s0.897,2,2,2c1.103,0,2-0.897,2-2S11.101,1.547,9.998,1.547z"/>
	<path d="M2.003,23.549c-0.041,0-0.082-0.005-0.122-0.015c-0.267-0.067-0.43-0.338-0.363-0.606l0.844-3.379l-1.86,0
		c-0.276,0-0.5-0.224-0.5-0.5s0.224-0.5,0.5-0.5l1.771,0c-0.176-0.302-0.269-0.646-0.268-1.005c0.001-0.239,0.044-0.473,0.128-0.697
		l2.994-8.983c0.193-0.515,0.566-0.915,1.053-1.135C6.441,6.61,6.718,6.55,7.003,6.55c0.241,0,0.478,0.044,0.706,0.13
		c0.175,0.066,0.34,0.156,0.49,0.268l3.468,2.601l2.833,0c1.103,0,2,0.897,2,2c0,0.356-0.093,0.697-0.267,0.998l7.267-0.001
		c0.276,0,0.5,0.224,0.5,0.5s-0.224,0.5-0.5,0.5l-3.328,0.001l1.501,5l1.828,0c0.276,0,0.5,0.224,0.5,0.5s-0.224,0.5-0.5,0.5
		l-1.528,0l1.008,3.355c0.079,0.264-0.071,0.543-0.335,0.623c-0.048,0.014-0.096,0.021-0.144,0.021
		c-0.219,0-0.416-0.146-0.479-0.356l-1.094-3.643l-5.356,0.001l-1.092,3.644c-0.064,0.213-0.256,0.356-0.479,0.356
		c-0.048,0-0.096-0.007-0.143-0.021c-0.265-0.079-0.415-0.358-0.336-0.623l1.006-3.357l-0.528,0c-0.276,0-0.5-0.224-0.5-0.5
		s0.224-0.5,0.5-0.5l0.828,0l1.499-5l-1.784,0c-0.017,0.001-0.03,0.002-0.044,0.002h-2.833c-0.859-0.002-1.711-0.286-2.399-0.799
		l-1.295-0.97L6.837,15.55H10.5c1.005,0,1.858,0.752,1.984,1.75l0.5,4c0.067,0.529-0.077,1.053-0.405,1.475
		c-0.328,0.423-0.8,0.692-1.329,0.759c-0.086,0.009-0.162,0.013-0.237,0.013c-1.019-0.002-1.87-0.755-1.995-1.75l-0.282-2.25
		L4,19.549c-0.007,0-0.021-0.001-0.028-0.001l-0.58,0L2.488,23.17C2.432,23.393,2.233,23.549,2.003,23.549z M9.177,18.547
		c0.252,0,0.465,0.188,0.496,0.438l0.337,2.687c0.063,0.498,0.489,0.874,0.991,0.875c0.054,0,0.094-0.002,0.135-0.006
		c0.539-0.068,0.925-0.569,0.856-1.116l-0.5-4c-0.063-0.498-0.489-0.874-0.992-0.874H6.164c-0.157,0-0.307-0.075-0.401-0.202
		c-0.094-0.126-0.123-0.292-0.078-0.443l1.536-5.1c0.047-0.156,0.168-0.28,0.323-0.331c0.05-0.017,0.103-0.025,0.156-0.025
		c0.108,0,0.214,0.036,0.3,0.1l1.867,1.398c0.516,0.385,1.156,0.599,1.801,0.6h1.303c0.01-0.001,0.021-0.002,0.03-0.002l1.521,0
		c0.537-0.01,0.978-0.457,0.978-0.998c0-0.551-0.448-1-1-1h-2.833c-0.215,0-0.428-0.071-0.6-0.2L7.6,7.748
		c-0.074-0.055-0.156-0.1-0.244-0.133C7.242,7.572,7.123,7.55,7.003,7.55c-0.142,0-0.28,0.03-0.412,0.09
		C6.348,7.75,6.162,7.948,6.068,8.198L3.074,17.18c-0.048,0.128-0.07,0.245-0.07,0.366c-0.002,0.548,0.443,0.998,0.992,1.002
		L9.177,18.547z M15.874,18.546l4.756-0.001l-1.501-5l-1.756,0L15.874,18.546z"/>
</g>
</svg>
