<?xml version="1.0" encoding="utf-8"?>
<!-- Generator: Adobe Illustrator 22.1.0, SVG Export Plug-In . SVG Version: 6.00 Build 0)  -->
<svg version="1.1" id="Light" xmlns="http://www.w3.org/2000/svg" xmlns:xlink="http://www.w3.org/1999/xlink" x="0px" y="0px"
	 viewBox="0 0 24 24" style="enable-background:new 0 0 24 24;" xml:space="preserve">
<g>
	<title>outdoors-camp-fire</title>
	<path d="M12,18.769c-4.135,0-7.5-3.365-7.5-7.5c0.129-5.304,3.643-9.816,8.746-11.233c0.065-0.018,0.133-0.027,0.2-0.027
		c0.336,0,0.633,0.226,0.723,0.55c0.074,0.269-0.006,0.554-0.208,0.746c-0.868,0.764-1.399,1.853-1.462,2.993
		c-0.001,0.978,0.358,1.962,0.992,2.732c0.475-0.594,0.805-1.294,0.959-2.042c0.074-0.346,0.383-0.596,0.734-0.596
		c0.053,0,0.106,0.006,0.157,0.017c0.07,0.015,0.137,0.04,0.198,0.073c2.458,1.377,3.974,3.978,3.959,6.79
		C19.5,15.405,16.136,18.769,12,18.769z M12.606,1.294C8.426,2.848,5.61,6.751,5.5,11.281c0,3.575,2.916,6.488,6.5,6.488
		s6.5-2.916,6.5-6.5c0.012-2.338-1.188-4.507-3.154-5.741c-0.259,0.978-0.77,1.869-1.491,2.594C13.76,8.218,13.634,8.27,13.5,8.27
		c-0.128,0-0.25-0.049-0.344-0.137c-1.055-1.001-1.658-2.41-1.656-3.864C11.56,3.18,11.953,2.139,12.606,1.294z"/>
	<path d="M0.503,24.012c-0.233,0-0.439-0.166-0.488-0.394c-0.059-0.269,0.113-0.536,0.382-0.595l22.999-5.006
		c0.035-0.008,0.072-0.011,0.108-0.011c0.236,0,0.437,0.162,0.487,0.394c0.059,0.27-0.113,0.536-0.382,0.595L0.61,24.001
		C0.575,24.008,0.539,24.012,0.503,24.012z"/>
	<path d="M7.501,20.533c-0.036,0-0.072-0.004-0.106-0.011l-6.998-1.521c-0.13-0.029-0.242-0.106-0.314-0.219
		c-0.072-0.112-0.096-0.246-0.068-0.376c0.05-0.228,0.255-0.394,0.488-0.394c0.036,0,0.071,0.004,0.106,0.011l6.998,1.521
		c0.13,0.029,0.242,0.106,0.314,0.219c0.072,0.112,0.096,0.246,0.068,0.376C7.939,20.367,7.734,20.533,7.501,20.533z"/>
	<path d="M23.504,24.006c-0.036,0-0.072-0.004-0.107-0.011l-7-1.519c-0.131-0.028-0.242-0.106-0.314-0.218
		c-0.073-0.112-0.097-0.246-0.068-0.377c0.05-0.228,0.255-0.394,0.489-0.394c0.036,0,0.071,0.004,0.106,0.011l7,1.519
		c0.131,0.028,0.242,0.106,0.314,0.218c0.073,0.112,0.097,0.246,0.068,0.377C23.943,23.84,23.737,24.006,23.504,24.006z"/>
</g>
</svg>
