<?xml version="1.0" encoding="utf-8"?>
<!-- Generator: Adobe Illustrator 22.1.0, SVG Export Plug-In . SVG Version: 6.00 Build 0)  -->
<svg version="1.1" id="Light" xmlns="http://www.w3.org/2000/svg" xmlns:xlink="http://www.w3.org/1999/xlink" x="0px" y="0px"
	 viewBox="0 0 24 24" style="enable-background:new 0 0 24 24;" xml:space="preserve">
<g>
	<title>outdoors-kite-flying-cloud</title>
	<path d="M23.501,23.979c-0.179,0-0.346-0.097-0.434-0.252l-1.206-2.111c-0.023-0.04-0.049-0.078-0.076-0.113
		c-0.145-0.181-0.352-0.294-0.583-0.32c-0.033-0.004-0.065-0.006-0.098-0.006c-0.197,0-0.384,0.066-0.54,0.191
		c-0.075,0.06-0.156,0.115-0.24,0.163c-0.283,0.162-0.603,0.247-0.926,0.247c-0.166,0-0.331-0.022-0.493-0.066
		c-0.482-0.131-0.885-0.442-1.133-0.876l-1.741-3.046l-0.492,0.772c-0.092,0.145-0.25,0.231-0.422,0.231
		c-0.095,0-0.188-0.027-0.269-0.078c-0.232-0.148-0.301-0.458-0.153-0.69l0.538-0.843L8.273,13.08
		c-0.421-0.248-0.6-0.76-0.427-1.216l2.158-5.667c0.087-0.223,0.248-0.406,0.456-0.519c0.009-0.006,0.018-0.011,0.027-0.016
		c0.006-0.003,0.013-0.006,0.02-0.009c0.126-0.062,0.278-0.097,0.429-0.097c0.09,0,0.181,0.012,0.269,0.037l5.875,1.659
		c0.477,0.134,0.781,0.589,0.722,1.082l-0.962,8.051l0.99,0.077c0.133,0.01,0.254,0.072,0.341,0.173
		c0.087,0.102,0.129,0.231,0.119,0.364c-0.02,0.259-0.239,0.461-0.498,0.461c-0.006,0-0.032-0.001-0.038-0.001l-0.796-0.062
		l1.683,2.944c0.115,0.201,0.302,0.346,0.527,0.407c0.075,0.021,0.153,0.031,0.23,0.031c0.15,0,0.299-0.04,0.43-0.115
		c0.039-0.022,0.076-0.047,0.11-0.074c0.33-0.265,0.744-0.41,1.167-0.41c0.571,0,1.103,0.255,1.459,0.698
		c0.06,0.076,0.116,0.157,0.165,0.242l1.206,2.112c0.066,0.116,0.083,0.251,0.048,0.38s-0.118,0.236-0.235,0.303
		C23.674,23.956,23.588,23.979,23.501,23.979z M15.038,15.907l-2.533-5.078L9.21,12.471L15.038,15.907z M15.941,15.478l0.808-6.767
		l-3.35,1.671L15.941,15.478z M9.087,11.415l2.972-1.482l-1.365-2.736L9.087,11.415z M12.953,9.487l3.023-1.508l-4.394-1.24
		L12.953,9.487z"/>
	<path d="M2.679,8.982c-1.461,0-2.663-1.189-2.679-2.65c0-0.187,0.019-0.371,0.057-0.549C0.313,4.562,1.404,3.676,2.65,3.676
		c0.007,0,0.013,0,0.02,0c0.435-2.123,2.347-3.697,4.538-3.697h0.063c1.595,0,3.107,0.887,3.894,2.272
		c1.441,0.08,2.654,1.051,3.046,2.456c0.073,0.266-0.083,0.542-0.348,0.616c-0.043,0.012-0.088,0.018-0.134,0.018
		c-0.224,0-0.422-0.151-0.482-0.366c-0.288-1.034-1.203-1.729-2.279-1.729c-0.03,0-0.09,0.002-0.09,0.002
		c-0.21,0-0.386-0.112-0.469-0.284C9.836,1.758,8.612,0.979,7.291,0.979l-0.092,0c-1.854,0-3.438,1.444-3.607,3.289
		C3.579,4.41,3.506,4.54,3.391,4.624c-0.085,0.063-0.19,0.098-0.297,0.098c-0.035,0-0.07-0.004-0.104-0.011
		C2.88,4.688,2.765,4.676,2.652,4.676c-0.777,0-1.457,0.552-1.616,1.313C1.012,6.1,1.001,6.214,1,6.328
		c0.01,0.911,0.771,1.655,1.697,1.654c0.024,0,0.048-0.001,0.072-0.002L7.5,7.979c0.276,0,0.5,0.224,0.5,0.5s-0.224,0.5-0.5,0.5
		H2.794C2.788,8.98,2.749,8.982,2.709,8.982L2.679,8.982z"/>
</g>
</svg>
