<?xml version="1.0" encoding="utf-8"?>
<!-- Generator: Adobe Illustrator 22.1.0, SVG Export Plug-In . SVG Version: 6.00 Build 0)  -->
<svg version="1.1" id="Light" xmlns="http://www.w3.org/2000/svg" xmlns:xlink="http://www.w3.org/1999/xlink" x="0px" y="0px"
	 viewBox="0 0 24 24" style="enable-background:new 0 0 24 24;" xml:space="preserve">
<g>
	<title>outdoors-camp-fire-marshmallows</title>
	<path d="M7.266,19.249c-1.062,0-2.078-0.398-2.86-1.12c-0.828-0.765-1.309-1.807-1.354-2.933c-0.121-1.369,0.504-2.735,1.632-3.553
		c0.017-0.012,0.035-0.024,0.054-0.034c0.037-0.02,0.074-0.036,0.113-0.05c0.079-0.027,0.16-0.041,0.242-0.041
		c0.317,0,0.599,0.201,0.701,0.5c0.109,0.324,0.383,0.558,0.708,0.619c0.47-1.031,0.445-2.232-0.075-3.245
		C6.318,9.215,6.302,8.959,6.394,8.74C6.513,8.46,6.785,8.28,7.089,8.28c0.099,0,0.196,0.019,0.288,0.058
		c2.686,1.07,4.378,3.832,4.111,6.715c0.016,2.25-1.764,4.102-4.051,4.193C7.38,19.248,7.323,19.249,7.266,19.249z M4.998,12.677
		c-0.67,0.622-1.029,1.536-0.948,2.455c0.036,0.88,0.403,1.679,1.035,2.262c0.597,0.551,1.371,0.855,2.181,0.855
		c0.044,0,0.088-0.001,0.132-0.003c1.745-0.069,3.103-1.491,3.093-3.237c0.208-2.271-0.973-4.432-2.921-5.48
		c0.443,1.271,0.332,2.673-0.328,3.861c-0.08,0.144-0.226,0.239-0.39,0.255c-0.061,0.006-0.12,0.008-0.18,0.008
		C5.971,13.653,5.335,13.272,4.998,12.677z"/>
	<path d="M0.5,24c-0.221,0-0.413-0.142-0.478-0.353c-0.081-0.263,0.067-0.543,0.33-0.625l13-4.003
		c0.047-0.015,0.097-0.022,0.147-0.022c0.22,0,0.412,0.142,0.477,0.353c0.081,0.263-0.067,0.544-0.331,0.625L0.647,23.978
		C0.599,23.993,0.55,24,0.5,24z"/>
	<path d="M4,21.076c-0.05,0-0.1-0.007-0.147-0.022l-3.501-1.076c-0.263-0.081-0.412-0.361-0.331-0.625
		C0.086,19.142,0.278,19,0.498,19c0.05,0,0.099,0.008,0.147,0.022l3.501,1.076c0.263,0.081,0.412,0.361,0.331,0.625
		C4.413,20.934,4.221,21.076,4,21.076z"/>
	<path d="M13.5,23.997c-0.05,0-0.1-0.008-0.147-0.022L9.856,22.9c-0.263-0.081-0.412-0.361-0.331-0.625
		c0.065-0.212,0.257-0.354,0.478-0.354c0.05,0,0.1,0.008,0.148,0.022l3.497,1.075c0.263,0.081,0.412,0.361,0.331,0.625
		C13.912,23.855,13.72,23.997,13.5,23.997z"/>
	<path d="M23.498,15.994c-0.134,0-0.259-0.052-0.354-0.146l-5.417-5.414l-0.707,0.708c-0.189,0.189-0.44,0.293-0.707,0.293
		c-0.267,0-0.518-0.104-0.707-0.292L13.484,9.02c-0.39-0.389-0.39-1.024-0.001-1.414l0.708-0.708l-1.414-1.413l-0.707,0.707
		c-0.189,0.189-0.44,0.293-0.708,0.293c-0.267,0-0.519-0.104-0.707-0.292l-2.122-2.12c-0.39-0.39-0.39-1.024,0-1.414L9.24,1.951
		l-1.1-1.099c-0.195-0.195-0.195-0.512,0-0.707C8.234,0.05,8.36-0.002,8.494-0.002S8.753,0.05,8.847,0.144l1.1,1.099l0.707-0.707
		c0.189-0.189,0.44-0.293,0.708-0.293c0.267,0,0.518,0.104,0.707,0.293l2.122,2.12c0.189,0.189,0.293,0.44,0.293,0.707
		c0,0.267-0.104,0.518-0.293,0.707l-0.707,0.707l1.415,1.413l0.707-0.707c0.189-0.189,0.44-0.292,0.707-0.292
		c0.267,0,0.518,0.104,0.707,0.292l2.122,2.121c0.189,0.189,0.293,0.44,0.293,0.707c0,0.267-0.104,0.518-0.293,0.707l-0.707,0.707
		l5.417,5.414c0.094,0.094,0.146,0.22,0.146,0.354s-0.052,0.259-0.146,0.354S23.631,15.994,23.498,15.994z M14.191,8.313
		l2.122,2.121l2.121-2.122l-2.122-2.12C16.311,6.192,14.191,8.313,14.191,8.313z M9.24,3.365l2.122,2.121l2.121-2.122l-2.122-2.12
		C11.361,1.243,9.24,3.365,9.24,3.365z"/>
</g>
</svg>
