<?xml version="1.0" encoding="utf-8"?>
<!-- Generator: Adobe Illustrator 22.1.0, SVG Export Plug-In . SVG Version: 6.00 Build 0)  -->
<svg version="1.1" id="Light" xmlns="http://www.w3.org/2000/svg" xmlns:xlink="http://www.w3.org/1999/xlink" x="0px" y="0px"
	 viewBox="0 0 24 24" style="enable-background:new 0 0 24 24;" xml:space="preserve">
<g>
	<title>outdoors-kite-flying</title>
	<path d="M14.55,20.998c-0.078-0.001-0.155-0.011-0.229-0.03c-0.26-0.066-0.477-0.229-0.614-0.459L6.342,8.084
		C6.1,7.671,6.184,7.143,6.541,6.827l7.364-6.598c0.185-0.162,0.42-0.25,0.664-0.25c0.243,0,0.477,0.088,0.658,0.247l7.365,6.608
		c0.137,0.121,0.238,0.282,0.291,0.464c0.011,0.031,0.016,0.058,0.02,0.075c0.006,0.028,0.009,0.043,0.011,0.057
		c0.003,0.015,0.005,0.031,0.005,0.046c0.023,0.215-0.021,0.426-0.129,0.61l-7.362,12.423c-0.085,0.144-0.206,0.265-0.35,0.35
		c-0.154,0.092-0.33,0.14-0.509,0.14C14.568,20.999,14.556,20.998,14.55,20.998z M14.067,19.155V7.981H7.444L14.067,19.155z
		 M15.067,19.154l6.621-11.174h-6.621V19.154z M21.258,6.981l-6.191-5.555v5.555H21.258z M14.067,6.981V1.426L7.868,6.981H14.067z"
		/>
	<path d="M1.567,23.981c-0.054,0-0.107-0.009-0.158-0.026c-0.126-0.042-0.229-0.131-0.289-0.25s-0.069-0.255-0.027-0.382
		c0.046-0.136,1.149-3.342,3.974-3.342c0.923,0,2.004,0.451,3.149,0.928c1.192,0.496,2.424,1.01,3.452,1.01
		c0.444,0,0.815-0.094,1.136-0.287c0.078-0.047,0.167-0.071,0.258-0.071c0.174,0,0.339,0.093,0.429,0.242
		c0.142,0.237,0.065,0.544-0.17,0.687c-0.47,0.282-1.023,0.426-1.642,0.426c0,0,0,0,0,0c-1.25,0-2.63-0.575-3.847-1.083
		c-1.05-0.438-2.042-0.851-2.764-0.851c-2.101,0-3.017,2.632-3.026,2.659C1.974,23.843,1.783,23.981,1.567,23.981z"/>
</g>
</svg>
