<?xml version="1.0" encoding="utf-8"?>
<!-- Generator: Adobe Illustrator 22.1.0, SVG Export Plug-In . SVG Version: 6.00 Build 0)  -->
<svg version="1.1" id="Light" xmlns="http://www.w3.org/2000/svg" xmlns:xlink="http://www.w3.org/1999/xlink" x="0px" y="0px"
	 viewBox="0 0 24 24" style="enable-background:new 0 0 24 24;" xml:space="preserve">
<g>
	<title>outdoors-pig-apple</title>
	<path d="M0.5,24c-0.105,0-0.205-0.032-0.291-0.093c-0.109-0.078-0.181-0.193-0.202-0.325c-0.022-0.132,0.009-0.264,0.086-0.373
		l1.962-2.746c0.427-0.599,1.093-0.977,1.826-1.038l3.957-0.33c0.516-0.043,0.982-0.357,1.215-0.82l0.549-1.099
		c0.123-0.246,0.023-0.547-0.224-0.67l-2.104-1.06c-0.117-0.059-0.208-0.164-0.25-0.289c-0.264-0.791-0.893-1.42-1.684-1.684
		l-0.3-0.1c-0.153-0.051-0.272-0.173-0.32-0.327c-0.047-0.154-0.018-0.322,0.08-0.45c0.334-0.438,0.249-1.067-0.19-1.401
		c-0.175-0.133-0.384-0.204-0.604-0.204c-0.316,0-0.607,0.143-0.797,0.394c-0.235,0.308-0.27,0.729-0.089,1.072
		c0.076,0.144,0.077,0.316,0.003,0.461c-0.074,0.145-0.214,0.245-0.375,0.268l-2.18,0.309C0.547,13.499,0.523,13.5,0.499,13.5
		c-0.247,0-0.459-0.185-0.494-0.43c-0.039-0.273,0.152-0.527,0.425-0.566l1.599-0.227c-0.076-0.527,0.062-1.071,0.388-1.499
		c0.324-0.425,0.793-0.698,1.323-0.77C3.829,9.997,3.92,9.991,4.01,9.991c0.439,0,0.857,0.141,1.208,0.409
		c0.425,0.324,0.698,0.793,0.77,1.323c0.041,0.304,0.013,0.609-0.082,0.895c0.892,0.368,1.628,1.109,1.995,2.024l1.927,0.97
		c0.738,0.37,1.039,1.272,0.669,2.011l-0.55,1.1c-0.389,0.772-1.165,1.296-2.026,1.367l-3.957,0.33
		c-0.44,0.037-0.839,0.264-1.095,0.623l-1.962,2.746C0.813,23.922,0.661,24,0.5,24z"/>
	<path d="M17.277,15.005c-0.717,0-1.404-0.336-1.838-0.899c-0.501-0.711-0.816-1.529-0.918-2.374
		c-0.128-0.919,0.24-1.862,0.961-2.458c0.422-0.355,0.96-0.552,1.511-0.552c0.509,0,0.995,0.161,1.406,0.467l0.03,0.022l0.033-0.025
		c0.408-0.303,0.893-0.464,1.401-0.464c0.552,0,1.09,0.197,1.515,0.555c0.719,0.592,1.086,1.537,0.957,2.464
		c-0.101,0.837-0.413,1.65-0.903,2.347c-0.444,0.576-1.134,0.915-1.852,0.915c-0.285,0-0.564-0.052-0.828-0.155l-0.32-0.117
		l-0.336,0.121C17.838,14.953,17.561,15.005,17.277,15.005z M16.994,9.724c-0.317,0-0.626,0.113-0.871,0.319
		c-0.458,0.378-0.691,0.975-0.61,1.56c0.083,0.689,0.336,1.348,0.732,1.91c0.235,0.304,0.622,0.492,1.029,0.492
		c0.163,0,0.321-0.03,0.471-0.088l0.519-0.187c0.054-0.02,0.111-0.03,0.169-0.03c0.058,0,0.116,0.01,0.171,0.03l0.502,0.184
		c0.156,0.061,0.316,0.091,0.479,0.091c0.407,0,0.797-0.19,1.043-0.509c0.384-0.548,0.635-1.202,0.717-1.884
		c0.083-0.593-0.149-1.191-0.604-1.566c-0.248-0.209-0.558-0.323-0.876-0.323c-0.292,0-0.571,0.093-0.808,0.269l-0.332,0.242
		c-0.086,0.063-0.188,0.096-0.294,0.096s-0.208-0.033-0.294-0.096l-0.328-0.239C17.567,9.817,17.286,9.724,16.994,9.724z"/>
	<path d="M18.933,8.224c-0.134,0-0.259-0.052-0.354-0.146s-0.146-0.22-0.146-0.354s0.052-0.259,0.146-0.354l1-1
		c0.094-0.094,0.22-0.146,0.354-0.146s0.259,0.052,0.354,0.146s0.146,0.22,0.146,0.354s-0.052,0.259-0.146,0.354l-1,1
		C19.192,8.172,19.067,8.224,18.933,8.224z"/>
	<path d="M13.5,21c-0.827,0-1.5-0.673-1.5-1.5v-18C12,0.673,12.673,0,13.5,0h10C23.776,0,24,0.224,24,0.5S23.776,1,23.5,1h-10
		C13.224,1,13,1.224,13,1.5v18c0,0.276,0.224,0.5,0.5,0.5h10c0.276,0,0.5,0.224,0.5,0.5S23.776,21,23.5,21H13.5z"/>
</g>
</svg>
