<?xml version="1.0" encoding="utf-8"?>
<!-- Generator: Adobe Illustrator 22.1.0, SVG Export Plug-In . SVG Version: 6.00 Build 0)  -->
<svg version="1.1" id="Light" xmlns="http://www.w3.org/2000/svg" xmlns:xlink="http://www.w3.org/1999/xlink" x="0px" y="0px"
	 viewBox="0 0 24 24" style="enable-background:new 0 0 24 24;" xml:space="preserve">
<g>
	<title>outdoors-barbeque</title>
	<path d="M5,19c-0.03,0-0.061-0.003-0.092-0.009c-0.129-0.023-0.243-0.097-0.319-0.207c-0.076-0.11-0.105-0.243-0.081-0.374
		L5.492,13H1.5C0.673,13,0,12.327,0,11.5S0.673,10,1.5,10h2C4.327,10,5,10.673,5,11.5c0,0.172-0.03,0.34-0.088,0.5h0.762
		l0.728-4.003C5.62,7.946,5,7.294,5,6.5C5,5.673,5.673,5,6.5,5h11C18.327,5,19,5.673,19,6.5c0,0.792-0.617,1.443-1.396,1.496
		L18.366,12h0.722C19.03,11.84,19,11.672,19,11.5c0-0.827,0.673-1.5,1.5-1.5h2c0.827,0,1.5,0.673,1.5,1.5S23.327,13,22.5,13h-3.944
		l0.935,4.906c0.052,0.271-0.127,0.533-0.397,0.585C19.061,18.497,19.03,18.5,19,18.5c-0.239,0-0.446-0.171-0.491-0.406L17.539,13
		H6.508l-1.016,5.589C5.449,18.827,5.242,19,5,19z M20.5,11c-0.276,0-0.5,0.224-0.5,0.5s0.224,0.5,0.5,0.5h2
		c0.276,0,0.5-0.224,0.5-0.5S22.776,11,22.5,11H20.5z M17.348,12l-0.762-4H7.417L6.69,12H17.348z M1.5,11C1.224,11,1,11.224,1,11.5
		S1.224,12,1.5,12h2C3.776,12,4,11.776,4,11.5S3.776,11,3.5,11H1.5z M6.5,6C6.224,6,6,6.224,6,6.5S6.224,7,6.5,7h11
		C17.776,7,18,6.776,18,6.5S17.776,6,17.5,6H6.5z"/>
</g>
</svg>
