<?xml version="1.0" encoding="utf-8"?>
<!-- Generator: Adobe Illustrator 22.1.0, SVG Export Plug-In . SVG Version: 6.00 Build 0)  -->
<svg version="1.1" id="Light" xmlns="http://www.w3.org/2000/svg" xmlns:xlink="http://www.w3.org/1999/xlink" x="0px" y="0px"
	 viewBox="0 0 24 24" style="enable-background:new 0 0 24 24;" xml:space="preserve">
<g>
	<title>outdoors-camp-fire-make</title>
	<path d="M2.5,24C1.121,24,0,22.878,0,21.5S1.121,19,2.5,19H10v-7.5c0-0.276,0.224-0.5,0.5-0.5s0.5,0.224,0.5,0.5V19h1v-7.5
		c0-0.276,0.224-0.5,0.5-0.5c0.276,0,0.5,0.224,0.5,0.5V19h8.5c1.378,0,2.5,1.122,2.5,2.5S22.878,24,21.5,24H2.5z M21.5,23
		c0.827,0,1.5-0.673,1.5-1.5S22.327,20,21.5,20H4.499c0.222,0.295,0.376,0.635,0.45,1H14.5c0.276,0,0.5,0.224,0.5,0.5
		S14.776,22,14.5,22H4.949c-0.074,0.365-0.228,0.705-0.45,1H21.5z M2.5,20C1.673,20,1,20.673,1,21.5S1.673,23,2.5,23
		S4,22.327,4,21.5S3.327,20,2.5,20z"/>
	<path d="M7.5,18C7.224,18,7,17.776,7,17.5V17H6.5C6.224,17,6,16.776,6,16.5S6.224,16,6.5,16H7v-0.5C7,15.224,7.224,15,7.5,15
		S8,15.224,8,15.5V16h0.5C8.776,16,9,16.224,9,16.5S8.776,17,8.5,17H8v0.5C8,17.776,7.776,18,7.5,18z"/>
	<path d="M15.5,16c-0.276,0-0.5-0.224-0.5-0.5V15h-0.5c-0.276,0-0.5-0.224-0.5-0.5s0.224-0.5,0.5-0.5H15v-0.5
		c0-0.276,0.224-0.5,0.5-0.5s0.5,0.224,0.5,0.5V14h0.5c0.276,0,0.5,0.224,0.5,0.5S16.776,15,16.5,15H16v0.5
		C16,15.776,15.776,16,15.5,16z"/>
	<path d="M7.5,10C6.673,10,6,9.327,6,8.5c0-0.375,0.138-0.727,0.387-1C6.138,7.227,6,6.875,6,6.5s0.138-0.727,0.387-1
		C6.138,5.227,6,4.875,6,4.5C6,3.673,6.673,3,7.5,3H8c0.276,0,0.5,0.224,0.5,0.5S8.276,4,8,4H7.5C7.224,4,7,4.224,7,4.5
		S7.224,5,7.5,5S8,5.224,8,5.5S7.776,6,7.5,6S7,6.224,7,6.5S7.224,7,7.5,7S8,7.224,8,7.5S7.776,8,7.5,8S7,8.224,7,8.5S7.224,9,7.5,9
		H8c0.276,0,0.5,0.224,0.5,0.5S8.276,10,8,10H7.5z"/>
	<path d="M12.5,2C12.224,2,12,1.776,12,1.5V1h-1v0.5C11,1.776,10.776,2,10.5,2S10,1.776,10,1.5V1c0-0.551,0.449-1,1-1h1
		c0.552,0,1,0.449,1,1v0.5C13,1.776,12.776,2,12.5,2z"/>
	<path d="M10.5,10C9.673,10,9,9.327,9,8.5c0-0.37,0.14-0.727,0.383-1C9.14,7.227,9,6.87,9,6.5s0.14-0.727,0.383-1
		C9.14,5.227,9,4.87,9,4.5C9,3.673,9.673,3,10.5,3h3.085C13.529,2.841,13.5,2.673,13.5,2.5C13.5,1.673,14.173,1,15,1h3.5
		C19.878,1,21,2.121,21,3.5V4h2.5C23.776,4,24,4.224,24,4.5S23.776,5,23.5,5h-3C20.224,5,20,4.776,20,4.5v-1
		C20,2.673,19.327,2,18.5,2H15c-0.276,0-0.5,0.224-0.5,0.5S14.724,3,15,3h1.5C16.776,3,17,3.224,17,3.5S16.776,4,16.5,4h-6
		C10.224,4,10,4.224,10,4.5S10.224,5,10.5,5h3C13.776,5,14,5.224,14,5.5S13.776,6,13.5,6h-3C10.224,6,10,6.224,10,6.5
		S10.224,7,10.5,7h3C13.776,7,14,7.224,14,7.5S13.776,8,13.5,8h-3C10.224,8,10,8.224,10,8.5S10.224,9,10.5,9h13
		C23.776,9,24,9.224,24,9.5S23.776,10,23.5,10H10.5z"/>
</g>
</svg>
