<?xml version="1.0" encoding="utf-8"?>
<!-- Generator: Adobe Illustrator 22.1.0, SVG Export Plug-In . SVG Version: 6.00 Build 0)  -->
<svg version="1.1" id="Light" xmlns="http://www.w3.org/2000/svg" xmlns:xlink="http://www.w3.org/1999/xlink" x="0px" y="0px"
	 viewBox="0 0 24 24" style="enable-background:new 0 0 24 24;" xml:space="preserve">
<g>
	<title>outdoors-camp-flame</title>
	<path d="M8,24c-0.827,0-1.5-0.673-1.5-1.5v-5C6.5,16.122,7.622,15,9,15h1.5v-1H10c-0.389,0-0.777-0.067-1.155-0.199
		c-0.015-0.004-0.033-0.011-0.052-0.019C7.421,13.275,6.5,11.958,6.5,10.5V3h-1C5.326,3,5.167,2.911,5.075,2.763
		c-0.092-0.149-0.1-0.33-0.022-0.486L5.5,1.382C5.926,0.53,6.783,0,7.736,0h8.528c0.953,0,1.81,0.53,2.236,1.382l0.447,0.894
		c0.078,0.156,0.07,0.338-0.022,0.487C18.833,2.911,18.674,3,18.5,3h-1v7.5c0,1.458-0.921,2.775-2.293,3.281
		c-0.02,0.009-0.04,0.016-0.061,0.022C14.777,13.933,14.389,14,14,14h-0.5v1H15c1.378,0,2.5,1.122,2.5,2.5v5
		c0,0.827-0.673,1.5-1.5,1.5H8z M7.5,22.5C7.5,22.776,7.724,23,8,23h8c0.276,0,0.5-0.224,0.5-0.5v-2h-2.566
		C13.709,21.369,12.913,22,12,22c-0.913,0-1.709-0.631-1.934-1.5H7.5V22.5z M12,19c-0.551,0-1,0.448-1,1s0.449,1,1,1
		c0.552,0,1-0.448,1-1S12.552,19,12,19z M16.5,19.5v-2c0-0.827-0.673-1.5-1.5-1.5H9c-0.827,0-1.5,0.673-1.5,1.5v2h2.566
		C10.291,18.631,11.087,18,12,18c0.913,0,1.709,0.631,1.934,1.5H16.5z M12.5,15v-1.5c0-0.276,0.224-0.5,0.5-0.5h1
		c0.166,0,0.333-0.018,0.5-0.052V12.5c0-0.276-0.224-0.5-0.5-0.5h-4c-0.276,0-0.5,0.224-0.5,0.5v0.448C9.667,12.982,9.835,13,10,13
		h1c0.276,0,0.5,0.224,0.5,0.5L12.5,15z M14.217,11.016c0.724,0.105,1.281,0.729,1.283,1.481c0.625-0.468,1-1.201,1-1.997V3h-9v7.5
		c0,0.796,0.375,1.529,1,1.997c0.002-0.752,0.559-1.375,1.282-1.481C9.285,10.468,9,9.751,9,9c-0.018-1.11,0.633-2.116,1.657-2.56
		c0.084-0.037,0.177-0.057,0.272-0.057c0.096,0,0.19,0.02,0.278,0.059c0.11,0.047,0.205,0.125,0.276,0.222
		c0.024-0.442-0.095-0.888-0.348-1.263c-0.13-0.184-0.155-0.435-0.062-0.651c0.071-0.166,0.203-0.294,0.372-0.361
		c0.08-0.032,0.165-0.048,0.251-0.048c0.093,0,0.183,0.019,0.269,0.056C13.784,5.204,14.974,7.008,15,8.993
		C15,9.748,14.715,10.468,14.217,11.016z M10.79,7.501C10.294,7.827,9.99,8.389,10,8.992C10,10.101,10.897,11,12,11s2-0.897,2-2
		c-0.017-1.269-0.617-2.438-1.606-3.194c0.183,0.725,0.095,1.499-0.264,2.178c-0.068,0.127-0.186,0.219-0.325,0.252
		c-0.038,0.009-0.077,0.014-0.117,0.014c-0.103,0-0.203-0.031-0.287-0.091C11.152,7.985,10.944,7.76,10.79,7.501z M17.691,2
		l-0.085-0.17C17.35,1.318,16.836,1,16.264,1H7.736C7.164,1,6.65,1.318,6.394,1.829L6.309,2H17.691z"/>
</g>
</svg>
