<?xml version="1.0" encoding="utf-8"?>
<!-- Generator: Adobe Illustrator 22.1.0, SVG Export Plug-In . SVG Version: 6.00 Build 0)  -->
<svg version="1.1" id="Light" xmlns="http://www.w3.org/2000/svg" xmlns:xlink="http://www.w3.org/1999/xlink" x="0px" y="0px"
	 viewBox="0 0 24 24" style="enable-background:new 0 0 24 24;" xml:space="preserve">
<g>
	<title>outdoors-flame-lantern</title>
	<path d="M12.003,20.5c-2.206,0-4-1.794-4-4c-0.02-1.474,0.845-2.808,2.204-3.394c0.012-0.006,0.045-0.02,0.079-0.031
		c0.076-0.024,0.152-0.035,0.229-0.035c0.119,0,0.239,0.029,0.346,0.085c0.178,0.093,0.309,0.249,0.369,0.44
		c0.04,0.099,0.093,0.198,0.156,0.294c0.226-0.851,0.078-1.762-0.424-2.507c-0.141-0.205-0.169-0.468-0.074-0.702
		c0.115-0.285,0.389-0.469,0.697-0.469c0.096,0,0.19,0.018,0.28,0.054c2.486,1.102,4.104,3.556,4.14,6.257
		C16.003,18.704,14.209,20.5,12.003,20.5z M10.396,14.141c-0.867,0.455-1.407,1.354-1.393,2.353c0,1.659,1.346,3.007,3,3.007
		c1.654,0,3-1.346,3-3c-0.027-2.036-1.11-3.911-2.818-4.967c0.453,1.108,0.4,2.371-0.176,3.454
		c-0.068,0.127-0.186,0.218-0.326,0.251c-0.036,0.009-0.076,0.014-0.116,0.014c-0.104,0-0.203-0.032-0.288-0.092
		C10.905,14.896,10.603,14.547,10.396,14.141z"/>
	<path d="M4.053,24c-0.066,0-0.133-0.007-0.198-0.02c-0.542-0.111-0.892-0.64-0.782-1.18c0.027-0.135,0.065-0.271,0.111-0.407
		l-1.37-0.392c-1.274-0.365-2.042-1.663-1.75-2.955l2.73-14.081C3.056,3.806,4.059,3.001,5.235,3h2.768V1h-1
		c-0.276,0-0.5-0.224-0.5-0.5S6.727,0,7.003,0h10c0.276,0,0.5,0.224,0.5,0.5S17.279,1,17.003,1h-1v2h2.768
		c1.177,0.001,2.179,0.803,2.438,1.95l2.736,14.115c0.29,1.281-0.479,2.575-1.753,2.94l-1.369,0.392
		c0.046,0.135,0.083,0.271,0.11,0.404c0.013,0.064,0.021,0.132,0.021,0.2c-0.001,0.552-0.449,1-1,1H4.053z M6.503,21
		c-1.183,0-2.213,0.841-2.449,2h15.9c-0.236-1.159-1.267-2-2.449-2H6.503z M17.503,20c1.128,0,2.208,0.566,2.86,1.488l1.553-0.444
		c0.764-0.219,1.225-0.998,1.05-1.773L20.23,5.155C20.077,4.479,19.477,4,18.771,4h-2.768c0,0.352-0.188,0.668-0.473,0.846
		c1.391,1.705,3.34,5.812,3.597,9.585c0.161,2.369-0.399,4.278-1.626,5.57H17.503z M5.235,4C4.53,4,3.928,4.482,3.773,5.17
		l-2.73,14.081c-0.178,0.787,0.283,1.569,1.047,1.788l1.556,0.445C4.298,20.565,5.375,20.001,6.5,20
		c-1.26-1.313-1.838-3.26-1.675-5.676c0.185-2.746,1.226-5.296,1.83-6.571c0.571-1.207,1.211-2.248,1.79-2.924
		C8.176,4.648,8.003,4.342,8.003,4H5.235z M15.933,20c1.636-1.027,2.375-2.878,2.196-5.501C17.845,10.324,15.258,5.614,14.298,5
		H9.704c-1.119,0.657-3.611,5.383-3.881,9.391C5.643,17.064,6.4,18.951,8.073,20H15.933z M9.003,4h6V1h-6V4z"/>
</g>
</svg>
