<?xml version="1.0" encoding="utf-8"?>
<!-- Generator: Adobe Illustrator 22.1.0, SVG Export Plug-In . SVG Version: 6.00 Build 0)  -->
<svg version="1.1" id="Light" xmlns="http://www.w3.org/2000/svg" xmlns:xlink="http://www.w3.org/1999/xlink" x="0px" y="0px"
	 viewBox="0 0 24 24" style="enable-background:new 0 0 24 24;" xml:space="preserve">
<g>
	<title>farming-sell-vegetable</title>
	<path d="M19.5,12c-0.066,0-0.13-0.013-0.191-0.038c-0.061-0.025-0.116-0.062-0.162-0.108l-2.5-2.5C16.552,9.259,16.5,9.134,16.5,9
		s0.052-0.259,0.146-0.354S16.867,8.5,17,8.5s0.259,0.052,0.354,0.146L19,10.293V7.5C19,6.121,17.879,5,16.5,5h-1
		C15.225,5,15,4.776,15,4.5S15.225,4,15.5,4h1C18.43,4,20,5.57,20,7.5v2.793l1.646-1.646C21.741,8.552,21.867,8.5,22,8.5
		s0.259,0.052,0.354,0.146S22.5,8.866,22.5,9s-0.052,0.259-0.146,0.354l-2.5,2.5c-0.047,0.047-0.101,0.083-0.163,0.109
		C19.63,11.987,19.566,12,19.5,12z"/>
	<path d="M8.5,20C6.57,20,5,18.43,5,16.5v-1.793l-1.646,1.646C3.259,16.448,3.134,16.5,3,16.5s-0.259-0.052-0.354-0.146
		S2.5,16.134,2.5,16s0.052-0.259,0.146-0.354l2.5-2.5c0.046-0.046,0.101-0.083,0.162-0.108C5.37,13.013,5.434,13,5.5,13
		s0.13,0.013,0.192,0.038c0.061,0.025,0.116,0.062,0.163,0.109l2.499,2.499c0.195,0.195,0.195,0.512,0,0.707
		C8.259,16.448,8.134,16.5,8,16.5c-0.134,0-0.259-0.052-0.354-0.146L6,14.707V16.5C6,17.878,7.122,19,8.5,19h3
		c0.276,0,0.5,0.224,0.5,0.5S11.776,20,11.5,20H8.5z"/>
	<path d="M18.5,24c-3.033,0-5.5-2.467-5.5-5.5s2.467-5.5,5.5-5.5s5.5,2.467,5.5,5.5S21.533,24,18.5,24z M18.5,14
		c-2.481,0-4.5,2.019-4.5,4.5s2.019,4.5,4.5,4.5s4.5-2.019,4.5-4.5S20.981,14,18.5,14z"/>
	<path d="M18.5,22c-0.276,0-0.5-0.224-0.5-0.5V21h-1.5c-0.276,0-0.5-0.224-0.5-0.5s0.224-0.5,0.5-0.5h3c0.276,0,0.5-0.224,0.5-0.5
		S19.776,19,19.5,19h-2c-0.827,0-1.5-0.673-1.5-1.5s0.673-1.5,1.5-1.5H18v-0.5c0-0.276,0.224-0.5,0.5-0.5s0.5,0.224,0.5,0.5V16h1.5
		c0.276,0,0.5,0.224,0.5,0.5S20.776,17,20.5,17h-3c-0.276,0-0.5,0.224-0.5,0.5s0.224,0.5,0.5,0.5h2c0.827,0,1.5,0.673,1.5,1.5
		S20.327,21,19.5,21H19v0.5C19,21.776,18.776,22,18.5,22z"/>
	<path d="M1.475,14.038c-0.387,0-0.755-0.166-1.012-0.456c-0.456-0.407-0.584-1.07-0.311-1.618c0.008-0.017,0.018-0.034,0.029-0.051
		l5.842-8.811c0.013-0.02,0.027-0.038,0.042-0.055C6.3,2.782,6.624,2.624,6.977,2.602C7.005,2.6,7.033,2.599,7.061,2.599
		c0.3,0,0.591,0.103,0.825,0.29l0.948-2.563C8.907,0.131,9.095,0,9.304,0c0.059,0,0.117,0.01,0.173,0.031
		c0.259,0.096,0.391,0.384,0.296,0.643L8.716,3.526c0.2,0.164,0.396,0.335,0.585,0.51l2.476-2.476
		c0.094-0.094,0.22-0.146,0.354-0.146s0.259,0.052,0.354,0.146c0.195,0.195,0.195,0.512,0,0.707l-2.477,2.477
		c0.176,0.19,0.346,0.386,0.51,0.585l2.854-1.056c0.056-0.021,0.114-0.031,0.173-0.031c0.209,0,0.397,0.131,0.469,0.327
		C14.06,4.694,14.055,4.83,14,4.952c-0.056,0.122-0.156,0.214-0.281,0.26L11.156,6.16c0.427,0.536,0.374,1.327-0.134,1.799
		c-0.017,0.016-0.058,0.05-0.077,0.063l-8.81,5.842c-0.015,0.01-0.034,0.021-0.053,0.031C1.894,13.988,1.684,14.038,1.475,14.038z
		 M1.038,12.432c-0.06,0.144-0.02,0.311,0.101,0.412c0.023,0.02,0.044,0.041,0.063,0.063c0.069,0.083,0.169,0.13,0.274,0.13
		c0.047,0,0.094-0.01,0.138-0.028l4.492-2.979L5.061,8.985c-0.195-0.195-0.195-0.512,0-0.707c0.094-0.094,0.22-0.146,0.354-0.146
		s0.259,0.052,0.354,0.146l1.188,1.188l3.398-2.254c0.12-0.127,0.123-0.32,0.005-0.448c-0.017-0.018-0.031-0.036-0.044-0.055
		C9.914,6.137,9.461,5.595,8.969,5.102C8.964,5.098,8.96,5.094,8.956,5.089C8.95,5.084,8.945,5.078,8.94,5.072
		C8.439,4.575,7.902,4.126,7.332,3.728C7.312,3.714,7.294,3.7,7.278,3.684c-0.059-0.052-0.14-0.083-0.222-0.083
		c-0.084,0-0.162,0.031-0.221,0.089L6.271,4.539L7.89,6.157c0.195,0.195,0.195,0.512,0,0.707C7.795,6.959,7.67,7.011,7.536,7.011
		S7.277,6.959,7.183,6.865L5.707,5.389L1.038,12.432z"/>
</g>
</svg>
