<?xml version="1.0" encoding="utf-8"?>
<!-- Generator: Adobe Illustrator 22.1.0, SVG Export Plug-In . SVG Version: 6.00 Build 0)  -->
<svg version="1.1" id="Light" xmlns="http://www.w3.org/2000/svg" xmlns:xlink="http://www.w3.org/1999/xlink" x="0px" y="0px"
	 viewBox="0 0 24 24" style="enable-background:new 0 0 24 24;" xml:space="preserve">
<g>
	<title>farming-barn-silo</title>
	<path d="M0.5,23.5C0.224,23.5,0,23.276,0,23V6.5c0-0.164,0.008-0.335,0.024-0.521c0.001-0.008,0.002-0.016,0.003-0.024
		C0.315,2.883,2.93,0.5,6,0.5c3.082,0,5.705,2.402,5.975,5.47c0.001,0.01,0.002,0.02,0.002,0.03C11.992,6.165,12,6.336,12,6.5v5
		c0,0.276-0.224,0.5-0.5,0.5S11,11.776,11,11.5v-1H1v12h9v-6.56l-1.188,0.95C8.723,16.961,8.613,17,8.5,17
		c-0.153,0-0.295-0.068-0.391-0.188c-0.172-0.215-0.137-0.53,0.078-0.702l6.875-5.5c0.267-0.214,0.6-0.331,0.938-0.331
		s0.671,0.118,0.938,0.331l6.875,5.5c0.215,0.173,0.25,0.488,0.078,0.703C23.794,16.932,23.652,17,23.499,17
		c-0.113,0-0.224-0.039-0.312-0.109L22,15.94v6.56h0.5c0.276,0,0.5,0.224,0.5,0.5s-0.224,0.5-0.5,0.5H0.5z M21,22.5v-7.36
		l-4.688-3.75c-0.091-0.073-0.199-0.111-0.312-0.111c-0.114,0-0.222,0.038-0.312,0.111L11,15.14v7.36h1V17
		c0-0.023,0.007-0.066,0.013-0.089c0-0.008,0.005-0.043,0.02-0.083c0.016-0.044,0.037-0.075,0.051-0.096c0,0,0,0,0,0
		c-0.001,0,0.013-0.029,0.038-0.058c0.008-0.009,0.018-0.019,0.028-0.027c0.022-0.022,0.049-0.04,0.066-0.052
		c0.019-0.015,0.045-0.034,0.08-0.05c0.03-0.014,0.061-0.021,0.078-0.024c0.024-0.006,0.051-0.014,0.084-0.017
		c0.015-0.002,0.03-0.004,0.043-0.004h7c0.012,0,0.026,0.001,0.039,0.003c0.031,0.002,0.061,0.011,0.08,0.016
		c0.025,0.006,0.055,0.012,0.09,0.028c0.031,0.014,0.057,0.033,0.07,0.043c0.021,0.014,0.045,0.031,0.07,0.054
		c0.013,0.011,0.026,0.024,0.036,0.036c0.021,0.024,0.035,0.054,0.041,0.067c0.005,0.006,0.025,0.036,0.041,0.078
		c0.015,0.041,0.02,0.078,0.023,0.1C19.991,16.927,20,16.959,20,17v5.5H21z M18.148,22.5L16,20.658L13.851,22.5H18.148z M19,21.913
		v-3.826L16.768,20L19,21.913z M13,21.913L15.231,20L13,18.087V21.913z M16,19.342l2.149-1.842h-4.297L16,19.342z M11,9.5v-3H1v3H11
		z M10.892,5.5c-0.47-2.3-2.524-4-4.893-4s-4.423,1.7-4.893,4H10.892z"/>
</g>
</svg>
