<?xml version="1.0" encoding="utf-8"?>
<!-- Generator: Adobe Illustrator 22.1.0, SVG Export Plug-In . SVG Version: 6.00 Build 0)  -->
<svg version="1.1" id="Light" xmlns="http://www.w3.org/2000/svg" xmlns:xlink="http://www.w3.org/1999/xlink" x="0px" y="0px"
	 viewBox="0 0 24 24" style="enable-background:new 0 0 24 24;" xml:space="preserve">
<g>
	<title>farming-wheat</title>
	<path d="M12,24c-0.276,0-0.5-0.224-0.5-0.5v-1.538c-0.001,0-1.847-0.77-1.847-0.77c-1.125-0.469-2.125-1.334-2.743-2.375
		c-0.695-1.169-0.827-2.416-0.371-3.509C6.617,15.121,6.798,15,7,15c0.049,0,0.098,0.007,0.145,0.021l0.358,0.108
		c-0.226-0.258-0.426-0.531-0.594-0.813c-0.695-1.169-0.827-2.416-0.371-3.509C6.617,10.621,6.798,10.5,7,10.5
		c0.049,0,0.098,0.007,0.145,0.021l0.358,0.109c-0.226-0.258-0.426-0.531-0.594-0.813C6.239,8.689,6.095,7.482,6.5,6.413V3.5
		C6.5,3.224,6.725,3,7,3s0.5,0.224,0.5,0.5v2.629l2.182,0.661c0.015,0.005,0.03,0.01,0.045,0.016c0.05,0.021,0.1,0.043,0.149,0.066
		C9.627,6.354,9.5,5.895,9.5,5.5c0-1.337,1.453-3.084,2-3.694V0.5C11.5,0.224,11.725,0,12,0c0.276,0,0.5,0.224,0.5,0.5v1.306
		c0.547,0.609,2,2.355,2,3.694c0,0.395-0.126,0.854-0.376,1.372c0.049-0.023,0.098-0.044,0.147-0.065
		c0.017-0.007,0.032-0.012,0.047-0.017L16.5,6.129V3.5C16.5,3.224,16.725,3,17,3s0.5,0.224,0.5,0.5v2.911
		c0.331,0.866,0.302,1.819-0.084,2.761c-0.209,0.51-0.524,1.008-0.917,1.458l0.356-0.108c0.048-0.014,0.096-0.021,0.145-0.021
		c0.202,0,0.383,0.12,0.461,0.307c0.374,0.891,0.358,1.882-0.045,2.865c-0.209,0.51-0.524,1.008-0.917,1.458l0.356-0.108
		C16.902,15.007,16.952,15,17.001,15c0.202,0,0.383,0.121,0.46,0.307c0.374,0.891,0.358,1.882-0.045,2.865
		c-0.532,1.296-1.708,2.453-3.068,3.021c0,0-1.847,0.77-1.847,0.77V23.5C12.5,23.776,12.276,24,12,24z M7.328,16.122
		c-0.145,0.689,0.008,1.455,0.441,2.184c0.511,0.86,1.338,1.576,2.268,1.964l1.352,0.563c0.188-0.728,0.135-1.501-0.154-2.204
		c-0.353-0.857-1.016-1.527-1.868-1.889L7.328,16.122z M14.633,16.74c-1.597,0.678-2.448,2.436-2.022,4.093l1.352-0.563
		c1.125-0.469,2.093-1.418,2.528-2.478c0.234-0.571,0.296-1.143,0.183-1.671L14.633,16.74z M7.328,11.622
		c-0.145,0.689,0.008,1.455,0.441,2.184c0.511,0.86,1.338,1.576,2.268,1.964l1.352,0.563c0.188-0.728,0.135-1.501-0.154-2.204
		c-0.353-0.857-1.016-1.527-1.868-1.889L7.328,11.622z M14.633,12.24c-1.597,0.678-2.448,2.436-2.022,4.092l1.352-0.563
		c1.125-0.469,2.093-1.418,2.528-2.478c0.234-0.571,0.296-1.143,0.183-1.671L14.633,12.24z M14.633,7.74
		c-0.852,0.362-1.515,1.032-1.868,1.889c-0.29,0.703-0.342,1.476-0.154,2.204l1.352-0.563c1.125-0.469,2.094-1.418,2.528-2.478
		c0.234-0.571,0.296-1.143,0.183-1.67L14.633,7.74z M7.328,7.122C7.183,7.811,7.336,8.577,7.769,9.306
		c0.511,0.86,1.338,1.576,2.268,1.964l1.352,0.563c0.188-0.728,0.135-1.501-0.154-2.204C10.883,8.772,10.22,8.102,9.368,7.74
		L7.328,7.122z M12.002,2.757C11.489,3.37,10.5,4.66,10.5,5.5c0,0.712,0.77,1.875,1.499,2.743C12.512,7.63,13.5,6.34,13.5,5.5
		C13.5,4.788,12.731,3.625,12.002,2.757z"/>
</g>
</svg>
