<?xml version="1.0" encoding="utf-8"?>
<!-- Generator: Adobe Illustrator 22.1.0, SVG Export Plug-In . SVG Version: 6.00 Build 0)  -->
<svg version="1.1" id="Light" xmlns="http://www.w3.org/2000/svg" xmlns:xlink="http://www.w3.org/1999/xlink" x="0px" y="0px"
	 viewBox="0 0 24 24" style="enable-background:new 0 0 24 24;" xml:space="preserve">
<g>
	<title>farming-hay</title>
	<path d="M0.5,16C0.224,16,0,15.776,0,15.5S0.224,15,0.5,15h2.897C1.304,13.747,0,11.492,0,9c0-3.86,3.14-7,7-7h7c3.86,0,7,3.14,7,7
		c0,2.492-1.304,4.747-3.397,6H23.5c0.276,0,0.5,0.224,0.5,0.5S23.776,16,23.5,16H0.5z M7,3C3.692,3,1,5.692,1,9
		c0,3.308,2.692,6,6,6s6-2.692,6-6C13,5.692,10.308,3,7,3z M14.105,3.001C16.197,4.254,17.5,6.509,17.5,9s-1.303,4.746-3.395,5.999
		C17.365,14.943,20,12.273,20,9S17.365,3.057,14.105,3.001z M10.605,3.001C12.697,4.254,14,6.509,14,9s-1.303,4.746-3.395,5.999
		C13.865,14.943,16.5,12.273,16.5,9S13.865,3.057,10.605,3.001z"/>
	<path d="M7,13c-2.206,0-4-1.794-4-4s1.794-4,4-4s4,1.794,4,4S9.206,13,7,13z M7,6C5.346,6,4,7.346,4,9s1.346,3,3,3s3-1.346,3-3
		S8.654,6,7,6z"/>
	<path d="M1.985,22c-0.055-0.002-0.111-0.014-0.167-0.036c-0.014-0.004-0.027-0.009-0.039-0.015s-0.024-0.013-0.036-0.021
		c-0.036-0.02-0.08-0.055-0.117-0.096c-0.009-0.01-0.024-0.03-0.031-0.042c-0.013-0.015-0.029-0.039-0.043-0.066l-1.5-3
		c-0.123-0.247-0.023-0.548,0.224-0.671C0.346,18.018,0.423,18,0.5,18c0.191,0,0.362,0.106,0.448,0.276L2,20.382l1.053-2.105
		C3.138,18.106,3.31,18,3.5,18c0.077,0,0.154,0.018,0.222,0.052c0.247,0.124,0.348,0.425,0.224,0.671l-1.5,3
		c-0.013,0.027-0.03,0.051-0.047,0.073c-0.005,0.008-0.015,0.022-0.027,0.035c-0.034,0.038-0.073,0.07-0.118,0.096
		c-0.01,0.007-0.021,0.014-0.031,0.019c-0.014,0.007-0.03,0.013-0.046,0.018C2.115,21.989,2.057,22,2.001,22L2,22
		C1.995,22,1.99,22,1.985,22z"/>
	<path d="M6.985,22c-0.055-0.002-0.111-0.014-0.167-0.036c-0.014-0.004-0.027-0.009-0.039-0.015s-0.024-0.013-0.036-0.021
		c-0.036-0.02-0.08-0.055-0.117-0.096c-0.009-0.01-0.024-0.03-0.031-0.042c-0.013-0.015-0.029-0.039-0.043-0.066l-1.5-3
		c-0.123-0.247-0.023-0.548,0.224-0.671C5.346,18.018,5.423,18,5.5,18c0.191,0,0.362,0.106,0.448,0.276L7,20.382l1.053-2.105
		C8.138,18.106,8.31,18,8.5,18c0.077,0,0.154,0.018,0.223,0.052c0.247,0.124,0.348,0.425,0.224,0.671l-1.5,3
		c-0.013,0.027-0.03,0.051-0.047,0.073c-0.005,0.008-0.015,0.022-0.027,0.035c-0.034,0.038-0.073,0.07-0.118,0.096
		c-0.01,0.007-0.021,0.014-0.031,0.019c-0.014,0.007-0.03,0.013-0.046,0.018C7.115,21.989,7.057,22,7.001,22L7,22
		C6.995,22,6.99,22,6.985,22z"/>
	<path d="M11.985,22c-0.055-0.002-0.111-0.014-0.167-0.036c-0.014-0.004-0.027-0.009-0.039-0.015s-0.024-0.013-0.036-0.021
		c-0.036-0.02-0.08-0.055-0.117-0.096c-0.009-0.01-0.024-0.03-0.031-0.042c-0.013-0.015-0.029-0.039-0.043-0.066l-1.5-3
		c-0.123-0.247-0.023-0.548,0.224-0.671C10.346,18.018,10.423,18,10.5,18c0.191,0,0.362,0.106,0.447,0.276L12,20.382l1.053-2.105
		C13.138,18.106,13.31,18,13.5,18c0.077,0,0.154,0.018,0.223,0.052c0.247,0.124,0.347,0.425,0.224,0.671l-1.5,3
		c-0.013,0.027-0.03,0.051-0.048,0.073c-0.004,0.008-0.015,0.022-0.027,0.035c-0.033,0.038-0.073,0.07-0.118,0.096
		c-0.01,0.007-0.021,0.014-0.031,0.019c-0.014,0.007-0.03,0.013-0.046,0.018C12.115,21.989,12.057,22,12.001,22L12,22
		C11.995,22,11.99,22,11.985,22z"/>
	<path d="M16.985,22c-0.055-0.002-0.111-0.014-0.166-0.036c-0.015-0.004-0.03-0.01-0.042-0.016
		c-0.012-0.006-0.024-0.013-0.036-0.022c-0.031-0.016-0.076-0.052-0.114-0.094c-0.009-0.01-0.024-0.03-0.031-0.042
		c-0.013-0.016-0.03-0.04-0.043-0.066l-1.5-3c-0.123-0.247-0.023-0.548,0.224-0.671C15.346,18.018,15.423,18,15.5,18
		c0.19,0,0.362,0.106,0.447,0.276L17,20.382l1.053-2.105C18.138,18.106,18.309,18,18.5,18c0.077,0,0.154,0.018,0.223,0.052
		c0.247,0.124,0.348,0.425,0.224,0.671l-1.5,3c-0.013,0.027-0.03,0.05-0.047,0.073c-0.005,0.008-0.015,0.022-0.028,0.036
		c-0.033,0.037-0.073,0.07-0.117,0.096c-0.01,0.007-0.021,0.014-0.031,0.019c-0.013,0.007-0.029,0.012-0.045,0.017
		C17.117,21.988,17.059,22,17.001,22L17,22C16.995,22,16.99,22,16.985,22z"/>
	<path d="M21.985,22c-0.055-0.002-0.111-0.014-0.166-0.036c-0.015-0.004-0.03-0.01-0.042-0.016
		c-0.012-0.006-0.024-0.013-0.036-0.022c-0.031-0.016-0.076-0.052-0.114-0.094c-0.009-0.01-0.024-0.03-0.031-0.042
		c-0.013-0.016-0.03-0.04-0.043-0.066l-1.5-3c-0.123-0.247-0.023-0.548,0.224-0.671C20.346,18.018,20.423,18,20.5,18
		c0.191,0,0.362,0.106,0.448,0.276L22,20.382l1.053-2.105C23.138,18.106,23.31,18,23.5,18c0.077,0,0.154,0.018,0.223,0.052
		c0.247,0.124,0.347,0.425,0.224,0.671l-1.5,3c-0.013,0.027-0.03,0.05-0.047,0.073c-0.005,0.008-0.015,0.022-0.028,0.036
		c-0.033,0.037-0.073,0.07-0.117,0.096c-0.01,0.007-0.021,0.014-0.031,0.019c-0.013,0.007-0.029,0.012-0.045,0.017
		C22.117,21.988,22.059,22,22.001,22L22,22C21.995,22,21.99,22,21.985,22z"/>
</g>
</svg>
