<?xml version="1.0" encoding="utf-8"?>
<!-- Generator: Adobe Illustrator 22.1.0, SVG Export Plug-In . SVG Version: 6.00 Build 0)  -->
<svg version="1.1" id="Light" xmlns="http://www.w3.org/2000/svg" xmlns:xlink="http://www.w3.org/1999/xlink" x="0px" y="0px"
	 viewBox="0 0 24 24" style="enable-background:new 0 0 24 24;" xml:space="preserve">
<g>
	<title>farming-farmer</title>
	<path d="M7.5,24C6.673,24,6,23.327,6,22.5V17H5.5C4.673,17,4,16.327,4,15.5v-5C4,9.121,5.121,8,6.5,8h4c1.379,0,2.5,1.121,2.5,2.5
		v5c0,0.827-0.673,1.5-1.5,1.5H11v5.5c0,0.827-0.673,1.5-1.5,1.5H7.5z M6.5,9C5.673,9,5,9.673,5,10.5v5C5,15.776,5.224,16,5.5,16h1
		C6.776,16,7,16.224,7,16.5v6C7,22.776,7.224,23,7.5,23h2c0.276,0,0.5-0.224,0.5-0.5v-6c0-0.276,0.224-0.5,0.5-0.5h1
		c0.276,0,0.5-0.224,0.5-0.5v-5C12,9.673,11.327,9,10.5,9v2c0,0.551-0.449,1-1,1h-2c-0.551,0-1-0.449-1-1V9z M7.5,11h2V9h-2V11z"/>
	<path d="M8.503,7C8.285,7,8.065,6.971,7.851,6.914C7.206,6.741,6.668,6.327,6.334,5.748C6.028,5.219,5.932,4.597,6.055,4H4.5
		C4.224,4,4,3.776,4,3.5S4.224,3,4.5,3h1.145l0.676-1.94C6.497,0.442,7.088,0,7.754,0h1.491c0.667,0,1.26,0.447,1.443,1.088
		L11.355,3H12.5C12.776,3,13,3.224,13,3.5S12.776,4,12.5,4h-1.552c0.213,1.041-0.258,2.122-1.199,2.665C9.368,6.884,8.938,7,8.503,7
		C8.503,7,8.503,7,8.503,7z M7.089,4C6.943,4.412,6.981,4.869,7.2,5.249c0.267,0.463,0.766,0.75,1.302,0.75
		c0.261,0,0.519-0.069,0.747-0.2C9.876,5.437,10.149,4.671,9.912,4H7.089z M10.296,3L9.735,1.39C9.666,1.151,9.471,1,9.245,1H7.754
		c-0.222,0-0.419,0.149-0.48,0.362L6.704,3H10.296z"/>
	<path d="M17.5,24c-0.276,0-0.5-0.224-0.5-0.5V11h-0.5c-0.827,0-1.5-0.673-1.5-1.5v-3C15,6.224,15.224,6,15.5,6S16,6.224,16,6.5v3
		c0,0.276,0.224,0.5,0.5,0.5H17V6.5C17,6.224,17.224,6,17.5,6S18,6.224,18,6.5V10h0.5c0.276,0,0.5-0.224,0.5-0.5v-3
		C19,6.224,19.224,6,19.5,6S20,6.224,20,6.5v3c0,0.827-0.673,1.5-1.5,1.5H18v12.5C18,23.776,17.776,24,17.5,24z"/>
	<path d="M7.5,14C7.224,14,7,13.776,7,13.5S7.224,13,7.5,13h2c0.276,0,0.5,0.224,0.5,0.5S9.776,14,9.5,14H7.5z"/>
</g>
</svg>
