<?xml version="1.0" encoding="utf-8"?>
<!-- Generator: Adobe Illustrator 22.1.0, SVG Export Plug-In . SVG Version: 6.00 Build 0)  -->
<svg version="1.1" id="Light" xmlns="http://www.w3.org/2000/svg" xmlns:xlink="http://www.w3.org/1999/xlink" x="0px" y="0px"
	 viewBox="0 0 24 24" style="enable-background:new 0 0 24 24;" xml:space="preserve">
<g>
	<title>farming-farmer-work</title>
	<path d="M12.925,7.129c-0.471,0-0.932-0.135-1.334-0.389c-0.517-0.327-0.891-0.833-1.059-1.419l-1.38,0.724
		C9.081,6.082,9.001,6.102,8.92,6.102C8.734,6.102,8.564,6,8.477,5.834C8.349,5.59,8.444,5.287,8.688,5.159l1.015-0.532L9.4,2.596
		c-0.131-0.63,0.187-1.296,0.777-1.606l1.32-0.693c0.213-0.111,0.452-0.169,0.692-0.169c0.413,0,0.811,0.171,1.093,0.469
		l1.474,1.379l1.017-0.534c0.072-0.037,0.152-0.057,0.232-0.057c0.187,0,0.356,0.103,0.443,0.268
		c0.062,0.118,0.074,0.253,0.035,0.381c-0.04,0.127-0.127,0.232-0.245,0.294l-1.373,0.72c0.674,0.823,0.759,2,0.177,2.919
		c-0.357,0.564-0.913,0.955-1.565,1.101C13.295,7.109,13.109,7.129,12.925,7.129z M11.449,4.84c0.062,0.433,0.308,0.82,0.678,1.055
		c0.241,0.153,0.518,0.234,0.8,0.234c0.111,0,0.222-0.012,0.331-0.037c0.391-0.088,0.725-0.322,0.939-0.661
		c0.388-0.612,0.273-1.418-0.249-1.902L11.449,4.84z M12.187,1.128c-0.079,0-0.157,0.019-0.227,0.056l-1.319,0.692
		c-0.197,0.103-0.303,0.327-0.258,0.545l0.257,1.714l3.178-1.667l-1.241-1.163C12.464,1.187,12.33,1.128,12.187,1.128z"/>
	<path d="M16.193,23.903c-0.579,0-1.119-0.284-1.445-0.76l-2.578-3.543c0,0-2.612,3.594-2.632,3.619
		c-0.335,0.434-0.841,0.683-1.39,0.683c-0.389,0-0.757-0.125-1.066-0.363c-0.37-0.285-0.607-0.697-0.668-1.161
		c-0.06-0.464,0.064-0.923,0.349-1.293l3.561-4.897c0.062-0.086,0.095-0.188,0.095-0.294v-5.77c0.021-0.463,0.198-0.893,0.499-1.221
		c0.16-0.16,0.341-0.285,0.537-0.373L6.42,7.142v2.894c0,0.551-0.449,1-1,1c-0.056,0-0.111-0.005-0.165-0.014l-1.837-0.307
		c-0.264-0.044-0.494-0.188-0.649-0.406c-0.155-0.218-0.216-0.482-0.172-0.746c0.009-0.052,0.021-0.103,0.038-0.153L3.66,6.326
		c0.136-0.41,0.517-0.685,0.948-0.685c0.09,0,0.181,0.012,0.269,0.037l16.177,4.466c0.129,0.036,0.236,0.119,0.302,0.235
		s0.083,0.251,0.047,0.38c-0.059,0.216-0.257,0.367-0.481,0.367c-0.046,0-0.091-0.006-0.134-0.018l-1.415-0.391
		c0.155,0.644-0.067,1.344-0.609,1.776l-2.5,2c-0.31,0.247-0.698,0.383-1.092,0.383c-0.467,0-0.907-0.182-1.238-0.513L13.92,14.35
		v1.544c0,0.107,0.033,0.208,0.096,0.295l3.569,4.908c0.01,0.013,0.03,0.039,0.048,0.066c0.264,0.385,0.363,0.85,0.277,1.31
		s-0.344,0.859-0.729,1.123C16.889,23.797,16.547,23.903,16.193,23.903z M12.17,18.251c0.159,0,0.31,0.077,0.404,0.206l2.99,4.11
		c0.122,0.177,0.289,0.287,0.489,0.324c0.046,0.009,0.093,0.013,0.139,0.013c0.151,0,0.297-0.046,0.423-0.132
		c0.341-0.234,0.427-0.702,0.194-1.043l-3.601-4.952c-0.188-0.258-0.288-0.563-0.288-0.883v-2.75c0-0.203,0.121-0.384,0.308-0.462
		c0.062-0.025,0.126-0.038,0.192-0.038c0.134,0,0.259,0.052,0.354,0.146l0.867,0.866c0.142,0.142,0.33,0.22,0.531,0.22
		c0.172,0,0.334-0.057,0.469-0.164l2.499-1.999c0.324-0.258,0.377-0.732,0.118-1.055c-0.143-0.179-0.357-0.281-0.587-0.281
		c-0.172,0-0.333,0.057-0.468,0.164l-1.627,1.3c-0.089,0.071-0.199,0.109-0.312,0.109c-0.133,0-0.259-0.052-0.353-0.146
		l-2.208-2.206c-0.141-0.141-0.33-0.219-0.531-0.219c-0.201,0-0.389,0.078-0.531,0.219c-0.128,0.14-0.211,0.344-0.221,0.552l0,5.746
		c0,0.318-0.099,0.623-0.286,0.882l-3.57,4.908c-0.131,0.17-0.184,0.364-0.158,0.565c0.026,0.198,0.127,0.375,0.286,0.498
		c0.132,0.102,0.29,0.155,0.456,0.155c0.235,0,0.453-0.106,0.595-0.292l3.021-4.154C11.86,18.328,12.011,18.251,12.17,18.251z
		 M15.3,10.779l1.103-0.882L13.66,9.141L15.3,10.779z M3.583,9.729l1.838,0.307l0-3.17L4.609,6.642l-0.001-0.25v0.25c0,0,0,0,0,0
		L3.583,9.729z"/>
</g>
</svg>
