<?xml version="1.0" encoding="utf-8"?>
<!-- Generator: Adobe Illustrator 22.1.0, SVG Export Plug-In . SVG Version: 6.00 Build 0)  -->
<svg version="1.1" id="Light" xmlns="http://www.w3.org/2000/svg" xmlns:xlink="http://www.w3.org/1999/xlink" x="0px" y="0px"
	 viewBox="0 0 24 24" style="enable-background:new 0 0 24 24;" xml:space="preserve">
<g>
	<title>farming-sickle</title>
	<path d="M2.562,23.801c-0.534,0-1.036-0.208-1.414-0.585c-0.78-0.779-0.781-2.048-0.001-2.829l5.657-5.657
		c0.007-0.007,0.015-0.014,0.023-0.021l1.759-1.759c0.47-0.47,1.099-0.73,1.768-0.73c0.605,0,1.187,0.217,1.64,0.612
		c0.264,0.229,0.554,0.429,0.861,0.596c0.637,0.326,1.363,0.5,2.095,0.5c0.259,0,0.519-0.022,0.771-0.065
		c0.908-0.162,1.734-0.593,2.389-1.246c0.852-0.85,1.322-1.981,1.323-3.185s-0.466-2.336-1.316-3.188
		c-2.016-1.827-4.484-3.182-7.127-3.909c-0.367-0.099-0.643-0.394-0.718-0.769c-0.053-0.262,0-0.528,0.148-0.751
		c0.148-0.222,0.374-0.374,0.636-0.426c0.679-0.127,1.37-0.191,2.056-0.191c2.951,0,5.733,1.142,7.832,3.215
		c2.742,2.743,3.283,6.992,1.316,10.332l0,0c-0.374,0.624-0.813,1.186-1.314,1.687c-1.604,1.605-3.741,2.489-6.017,2.489
		c-1.566,0-3.091-0.429-4.423-1.242l-6.531,6.535C3.6,23.593,3.098,23.801,2.562,23.801L2.562,23.801z M1.854,21.094
		c-0.39,0.39-0.389,1.025,0.001,1.415c0.189,0.188,0.44,0.292,0.707,0.292c0.268,0,0.519-0.104,0.708-0.293l5.303-5.307
		l-1.414-1.412L1.854,21.094z M10.441,15.541c0.101,0,0.198,0.03,0.281,0.086c1.246,0.846,2.702,1.294,4.21,1.294
		c2.008,0,3.894-0.78,5.309-2.196c0.447-0.447,0.837-0.948,1.161-1.49c1.734-2.946,1.257-6.695-1.161-9.113
		c-1.909-1.885-4.441-2.925-7.127-2.925c-0.624,0-1.252,0.058-1.866,0.173c2.802,0.768,5.414,2.203,7.561,4.149
		c1.054,1.055,1.628,2.441,1.626,3.912c-0.002,1.471-0.576,2.853-1.617,3.892c-0.8,0.798-1.81,1.324-2.923,1.523
		c-0.31,0.053-0.627,0.08-0.943,0.08c-0.891,0-1.777-0.213-2.562-0.615c-0.38-0.205-0.731-0.448-1.051-0.726
		c-0.272-0.236-0.622-0.366-0.985-0.366c-0.402,0-0.779,0.155-1.061,0.437l-1.426,1.426l1.413,1.411l0.807-0.806
		C10.182,15.593,10.307,15.541,10.441,15.541z"/>
</g>
</svg>
