<?xml version="1.0" encoding="utf-8"?>
<!-- Generator: Adobe Illustrator 22.1.0, SVG Export Plug-In . SVG Version: 6.00 Build 0)  -->
<svg version="1.1" id="Light" xmlns="http://www.w3.org/2000/svg" xmlns:xlink="http://www.w3.org/1999/xlink" x="0px" y="0px"
	 viewBox="0 0 24 24" style="enable-background:new 0 0 24 24;" xml:space="preserve">
<g>
	<title>farming-barn</title>
	<path d="M0.5,23.938c-0.276,0-0.5-0.224-0.5-0.5s0.224-0.5,0.5-0.5H2V11.951l-0.403,0.297C1.428,12.375,1.215,12.445,1,12.445
		c-0.551,0-1-0.448-1-1V9.188c0-0.313,0.15-0.612,0.4-0.8l11.009-8.132c0.174-0.129,0.38-0.197,0.594-0.197
		c0.214,0,0.42,0.068,0.594,0.196l11,8.132C23.85,8.577,24,8.877,24,9.19v2.257c0,0.215-0.071,0.428-0.2,0.6
		c-0.16,0.213-0.394,0.352-0.658,0.39c-0.048,0.007-0.095,0.01-0.143,0.01c-0.217,0-0.424-0.069-0.599-0.2L22,11.95v10.988h1.5
		c0.276,0,0.5,0.224,0.5,0.5s-0.224,0.5-0.5,0.5H0.5z M21,22.938V11.209l-8.971-6.651L3,11.214v11.724h3v-9.5
		c0-0.023,0.007-0.067,0.013-0.089c0-0.01,0.005-0.048,0.022-0.091c0.016-0.042,0.037-0.073,0.05-0.091
		c0.01-0.02,0.03-0.049,0.045-0.065c0.008-0.009,0.018-0.018,0.028-0.026c0.029-0.026,0.055-0.042,0.072-0.053
		c0.009-0.007,0.032-0.024,0.064-0.039c0.04-0.018,0.072-0.023,0.089-0.027c0.024-0.006,0.049-0.013,0.08-0.016
		c0.012-0.002,0.025-0.003,0.037-0.003h11c0.013,0,0.028,0.001,0.042,0.004c0.031,0.003,0.053,0.009,0.068,0.013
		c0.025,0.005,0.058,0.011,0.096,0.029c0.03,0.012,0.055,0.032,0.068,0.042c0.018,0.011,0.044,0.028,0.07,0.052
		c0.006,0.005,0.012,0.011,0.018,0.016c0.037,0.04,0.051,0.069,0.058,0.083c0.007,0.009,0.029,0.04,0.045,0.082
		c0.016,0.042,0.021,0.079,0.024,0.1C17.991,13.363,18,13.395,18,13.438v9.5H21z M16.207,22.938L12,19.113l-4.207,3.824H16.207z
		 M17,22.307v-7.739l-4.257,3.87L17,22.307z M7,22.307l4.256-3.87L7,14.568V22.307z M12,17.762l4.207-3.824H7.793L12,17.762z
		 M0.997,9.19L1,11.446l1.119-0.824c0.052-0.063,0.118-0.112,0.193-0.143l9.124-6.724c0.174-0.128,0.379-0.196,0.594-0.196
		c0.215,0,0.42,0.068,0.594,0.197l9.076,6.728c0.066,0.029,0.125,0.073,0.173,0.128l1.125,0.834L23,9.19L12.003,1.06L0.997,9.19z"/>
	<path d="M12,11.438c-1.379,0-2.5-1.121-2.5-2.5s1.121-2.5,2.5-2.5c1.378,0,2.5,1.121,2.5,2.5S13.378,11.438,12,11.438z M12,7.438
		c-0.827,0-1.5,0.673-1.5,1.5s0.673,1.5,1.5,1.5s1.5-0.673,1.5-1.5S12.827,7.438,12,7.438z"/>
</g>
</svg>
