<?xml version="1.0" encoding="utf-8"?>
<!-- Generator: Adobe Illustrator 22.1.0, SVG Export Plug-In . SVG Version: 6.00 Build 0)  -->
<svg version="1.1" id="Light" xmlns="http://www.w3.org/2000/svg" xmlns:xlink="http://www.w3.org/1999/xlink" x="0px" y="0px"
	 viewBox="0 0 24 24" style="enable-background:new 0 0 24 24;" xml:space="preserve">
<g>
	<title>farming-wind-cock</title>
	<path d="M11.75,24c-0.276,0-0.5-0.224-0.5-0.5V21H8.026l-0.819,1.3C6.931,22.738,6.457,23,5.938,23H2.884
		c-0.201,0-0.388-0.077-0.529-0.218c-0.142-0.142-0.221-0.33-0.221-0.531c0-0.116,0.027-0.233,0.08-0.338L2.67,21H1.75
		c-0.276,0-0.5-0.224-0.5-0.5S1.475,20,1.75,20h0.92l-0.457-0.914c-0.089-0.179-0.104-0.382-0.041-0.572
		c0.063-0.19,0.197-0.344,0.376-0.434C2.652,18.027,2.768,18,2.884,18h3.054c0.518,0,0.993,0.262,1.269,0.7L8.026,20h3.224v-2.026
		c-3.256-0.196-6.132-2.249-7.371-5.285c-0.004-0.005-0.015-0.034-0.024-0.064c-0.399-0.988-0.604-2.052-0.604-3.14v-4.41
		c0-0.313,0.149-0.612,0.4-0.8c0.175-0.131,0.382-0.2,0.6-0.2c0.314,0,0.613,0.149,0.801,0.399C6.333,6.164,8.846,9,11.25,9
		c1.387,0,3-1.109,3-2.539c0-0.719,0.228-1.427,0.646-2.012L13.84,2.593c-0.132-0.233-0.166-0.503-0.094-0.76
		s0.239-0.472,0.471-0.604c0.15-0.085,0.321-0.13,0.494-0.13c0.058,0,0.116,0.005,0.173,0.015l0.752,0.133l1.543-1.069
		c0.167-0.117,0.365-0.179,0.571-0.179c0.207,0,0.406,0.063,0.574,0.181l1.502,1.063l0.686-0.124
		c0.061-0.01,0.119-0.016,0.177-0.016c0.206,0,0.404,0.062,0.573,0.181c0.219,0.153,0.365,0.382,0.411,0.646
		c0.045,0.258-0.01,0.519-0.158,0.736l-1.111,1.622c0.199,0.246,0.362,0.514,0.485,0.8l1.821,4.215
		c0.067,0.155,0.052,0.332-0.041,0.473C22.575,9.916,22.419,10,22.25,10h-2.03c-0.375,4.224-3.744,7.589-7.97,7.96V20h6.075
		l-1.387-1.109c-0.215-0.173-0.25-0.488-0.078-0.703C16.956,18.068,17.098,18,17.251,18c0.113,0,0.224,0.039,0.312,0.109l2.5,2
		c0.012,0.01,0.024,0.022,0.035,0.035c0.034,0.033,0.059,0.07,0.075,0.096c0.002,0.001,0.018,0.023,0.032,0.055
		c0.03,0.065,0.045,0.135,0.045,0.205s-0.016,0.14-0.046,0.207c-0.008,0.017-0.027,0.048-0.039,0.063
		c-0.008,0.015-0.031,0.049-0.066,0.084c-0.012,0.014-0.025,0.027-0.038,0.037l-2.498,1.999C17.474,22.961,17.364,23,17.251,23
		c-0.153,0-0.295-0.068-0.391-0.187c-0.172-0.216-0.137-0.531,0.078-0.703L18.325,21H12.25v2.5C12.25,23.776,12.026,24,11.75,24z
		 M5.938,22c0.173,0,0.331-0.087,0.423-0.233L6.844,21H3.788l-0.5,1H5.938z M6.844,20l-0.483-0.766C6.269,19.088,6.111,19,5.938,19
		H3.289l0.5,1H6.844z M5.117,12.98c1.294,2.448,3.856,4.01,6.634,4.012c4.064-0.133,7.363-3.431,7.5-7.509
		C19.26,9.213,19.479,9,19.75,9h1.739L19.97,5.484c-0.261-0.603-0.741-1.069-1.352-1.311c-0.292-0.116-0.598-0.175-0.907-0.175
		c-0.335,0-0.664,0.068-0.976,0.203c-0.317,0.137-0.598,0.336-0.833,0.592c-0.018,0.024-0.036,0.043-0.054,0.06
		c-0.385,0.447-0.597,1.018-0.597,1.608c0,1.671-1.711,3.539-4,3.539c-2.837,0-5.602-3.085-6.998-4.924L4.25,7.98h1.5
		c0.276,0,0.5,0.224,0.5,0.5s-0.224,0.5-0.5,0.5h-1.5v0.504c0,0.16,0.006,0.325,0.017,0.492L6.751,9.98
		c0.134,0,0.259,0.052,0.353,0.147c0.094,0.095,0.146,0.22,0.146,0.354c0,0.275-0.225,0.499-0.5,0.499L4.4,10.976
		c0.069,0.34,0.162,0.676,0.278,1.004H7.75c0.276,0,0.5,0.224,0.5,0.5c0,0.276-0.224,0.5-0.5,0.5H5.117z M15.622,3.703
		c0.222-0.169,0.462-0.31,0.717-0.42c0.438-0.19,0.9-0.286,1.372-0.286c0.436,0,0.866,0.083,1.276,0.245
		c0.239,0.095,0.464,0.214,0.675,0.357l1.026-1.498l-0.89,0.162c-0.03,0.005-0.06,0.008-0.089,0.008
		c-0.104,0-0.204-0.032-0.289-0.092l-1.672-1.183l-1.713,1.189c-0.084,0.058-0.182,0.089-0.285,0.089
		c-0.029,0-0.057-0.002-0.086-0.007l-0.955-0.169C14.709,2.099,15.622,3.703,15.622,3.703z"/>
	<path d="M17.75,8.23c-0.827,0-1.5-0.673-1.5-1.5s0.673-1.5,1.5-1.5s1.5,0.673,1.5,1.5S18.577,8.23,17.75,8.23z M17.75,6.23
		c-0.276,0-0.5,0.224-0.5,0.5s0.224,0.5,0.5,0.5s0.5-0.224,0.5-0.5S18.026,6.23,17.75,6.23z"/>
</g>
</svg>
