<?xml version="1.0" encoding="utf-8"?>
<!-- Generator: Adobe Illustrator 22.1.0, SVG Export Plug-In . SVG Version: 6.00 Build 0)  -->
<svg version="1.1" id="Layer_1" xmlns="http://www.w3.org/2000/svg" xmlns:xlink="http://www.w3.org/1999/xlink" x="0px" y="0px"
	 viewBox="0 0 24 24" style="enable-background:new 0 0 24 24;" xml:space="preserve">
<g>
	<title>mailing-service-email</title>
	<path d="M12,12c-0.08,0-0.161-0.02-0.232-0.057l-11.5-6C0.103,5.857,0,5.687,0,5.5v-3C0,2.224,0.224,2,0.5,2h23
		C23.776,2,24,2.224,24,2.5v3c0,0.187-0.103,0.357-0.269,0.443l-11.5,6C12.161,11.98,12.08,12,12,12z M12,10.936l11-5.739V3H1v2.197
		L12,10.936z"/>
	<path d="M0.5,22C0.224,22,0,21.776,0,21.5v-12c0-0.174,0.092-0.338,0.241-0.427C0.319,9.025,0.409,9,0.5,9
		c0.08,0,0.16,0.02,0.231,0.057l8.359,4.361c0.136,0.011,0.258,0.075,0.343,0.179L12,14.936l2.566-1.339
		c0.085-0.103,0.207-0.168,0.343-0.179l8.359-4.362C23.339,9.02,23.419,9,23.5,9c0.092,0,0.181,0.025,0.26,0.073
		C23.908,9.162,24,9.326,24,9.5v12c0,0.276-0.224,0.5-0.5,0.5H0.5z M23,21v-1.716l-8.023-4.774l-2.746,1.433
		C12.16,15.98,12.08,16,12,16s-0.16-0.019-0.231-0.056L9.022,14.51L1,19.284V21H23z M1,18.121l6.981-4.154L1,10.325V18.121z
		 M23,18.121v-7.796l-6.98,3.642L23,18.121z"/>
</g>
</svg>
