<?xml version="1.0" encoding="utf-8"?>
<!-- Generator: Adobe Illustrator 22.1.0, SVG Export Plug-In . SVG Version: 6.00 Build 0)  -->
<svg version="1.1" id="Layer_1" xmlns="http://www.w3.org/2000/svg" xmlns:xlink="http://www.w3.org/1999/xlink" x="0px" y="0px"
	 viewBox="0 0 24 24" style="enable-background:new 0 0 24 24;" xml:space="preserve">
<g>
	<title>building</title>
	<path d="M1.5,24C0.673,24,0,23.327,0,22.5v-21C0,0.673,0.673,0,1.5,0h21C23.327,0,24,0.673,24,1.5v21c0,0.827-0.673,1.5-1.5,1.5
		H1.5z M22.5,23c0.276,0,0.5-0.224,0.5-0.5V22h-8v1H22.5z M1.5,1C1.224,1,1,1.224,1,1.5v21C1,22.776,1.224,23,1.5,23H14V1H1.5z
		 M23,21v-1h-8v1H23z M23,19v-1h-8v1H23z M23,17V1.5C23,1.224,22.776,1,22.5,1H15v16h1v-5.5c0-1.379,1.122-2.5,2.5-2.5h1
		c1.378,0,2.5,1.121,2.5,2.5V17H23z M21,17v-5.5c0-0.827-0.673-1.5-1.5-1.5h-1c-0.827,0-1.5,0.673-1.5,1.5V17H21z"/>
	<path d="M3,10c-0.551,0-1-0.449-1-1V5.5C2,4.121,3.121,3,4.5,3S7,4.121,7,5.5V9c0,0.551-0.449,1-1,1H3z M4.5,4
		C3.673,4,3,4.673,3,5.5V9h3V5.5C6,4.673,5.327,4,4.5,4z"/>
	<path d="M9,10c-0.551,0-1-0.449-1-1V5.5C8,4.121,9.121,3,10.5,3S13,4.121,13,5.5V9c0,0.551-0.448,1-1,1H9z M10.5,4
		C9.673,4,9,4.673,9,5.5V9h3V5.5C12,4.673,11.327,4,10.5,4z"/>
	<path d="M3,20c-0.551,0-1-0.448-1-1v-3.5C2,14.122,3.121,13,4.5,13S7,14.122,7,15.5V19c0,0.552-0.449,1-1,1H3z M4.5,14
		C3.673,14,3,14.673,3,15.5V19h3v-3.5C6,14.673,5.327,14,4.5,14z"/>
	<path d="M9,20c-0.551,0-1-0.448-1-1v-3.5c0-1.378,1.121-2.5,2.5-2.5s2.5,1.122,2.5,2.5V19c0,0.552-0.448,1-1,1H9z M10.5,14
		C9.673,14,9,14.673,9,15.5V19h3v-3.5C12,14.673,11.327,14,10.5,14z"/>
	<path d="M19,7.5c-1.378,0-2.5-1.121-2.5-2.5s1.122-2.5,2.5-2.5s2.5,1.121,2.5,2.5S20.378,7.5,19,7.5z M19,3.5
		c-0.827,0-1.5,0.673-1.5,1.5s0.673,1.5,1.5,1.5s1.5-0.673,1.5-1.5S19.827,3.5,19,3.5z"/>
</g>
</svg>
