<?xml version="1.0" encoding="utf-8"?>
<!-- Generator: Adobe Illustrator 22.1.0, SVG Export Plug-In . SVG Version: 6.00 Build 0)  -->
<svg version="1.1" id="Layer_1" xmlns="http://www.w3.org/2000/svg" xmlns:xlink="http://www.w3.org/1999/xlink" x="0px" y="0px"
	 viewBox="0 0 24 24" style="enable-background:new 0 0 24 24;" xml:space="preserve">
<g>
	<title>building-1</title>
	<path d="M5.5,17C5.224,17,5,16.776,5,16.5v-3c0-1.103,0.897-2,2-2s2,0.897,2,2v3C9,16.776,8.776,17,8.5,17H5.5z M8,16v-2.5
		c0-0.552-0.449-1-1-1s-1,0.448-1,1V16H8z"/>
	<path d="M5.5,10.5C5.224,10.5,5,10.276,5,10V7c0-1.103,0.897-2,2-2s2,0.897,2,2v3c0,0.276-0.224,0.5-0.5,0.5H5.5z M8,9.5V7
		c0-0.551-0.449-1-1-1S6,6.449,6,7v2.5H8z"/>
	<path d="M10.5,17c-0.276,0-0.5-0.224-0.5-0.5v-3c0-1.103,0.897-2,2-2s2,0.897,2,2v3c0,0.276-0.224,0.5-0.5,0.5H10.5z M13,16v-2.5
		c0-0.552-0.448-1-1-1c-0.551,0-1,0.448-1,1V16H13z"/>
	<path d="M10.5,10.5c-0.276,0-0.5-0.224-0.5-0.5V7c0-1.103,0.897-2,2-2s2,0.897,2,2v3c0,0.276-0.224,0.5-0.5,0.5H10.5z M13,9.5V7
		c0-0.551-0.448-1-1-1c-0.551,0-1,0.449-1,1v2.5H13z"/>
	<path d="M15.5,17c-0.276,0-0.5-0.224-0.5-0.5v-3c0-1.103,0.897-2,2-2s2,0.897,2,2v3c0,0.276-0.224,0.5-0.5,0.5H15.5z M18,16v-2.5
		c0-0.552-0.448-1-1-1s-1,0.448-1,1V16H18z"/>
	<path d="M15.5,10.5c-0.276,0-0.5-0.224-0.5-0.5V7c0-1.103,0.897-2,2-2s2,0.897,2,2v3c0,0.276-0.224,0.5-0.5,0.5H15.5z M18,9.5V7
		c0-0.551-0.448-1-1-1s-1,0.449-1,1v2.5H18z"/>
	<path d="M4.5,24C3.673,24,3,23.327,3,22.5V3.8C2.999,3.505,3.084,3.218,3.248,2.97l1.536-2.302C5.063,0.25,5.529,0,6.032,0h11.933
		c0.506,0,0.972,0.249,1.251,0.667l1.532,2.301c0.07,0.104,0.127,0.223,0.171,0.353c0,0.001,0.001,0.003,0.002,0.005
		C20.973,3.483,21,3.642,21,3.8v18.7c0,0.827-0.673,1.5-1.5,1.5H4.5z M19.5,23c0.276,0,0.5-0.224,0.5-0.5V4H4.001L4,22.5
		C4,22.776,4.224,23,4.5,23H10v-3c0-1.103,0.897-2,2-2s2,0.897,2,2v3H19.5z M13,23v-3c0-0.552-0.448-1-1-1c-0.551,0-1,0.448-1,1v3
		H13z M19.568,3l-1.184-1.778C18.291,1.083,18.136,1,17.968,1H6.032C5.865,1,5.709,1.083,5.616,1.223L4.43,3H19.568z"/>
</g>
</svg>
