<?xml version="1.0" encoding="utf-8"?>
<!-- Generator: Adobe Illustrator 22.1.0, SVG Export Plug-In . SVG Version: 6.00 Build 0)  -->
<svg version="1.1" id="Layer_1" xmlns="http://www.w3.org/2000/svg" xmlns:xlink="http://www.w3.org/1999/xlink" x="0px" y="0px"
	 viewBox="0 0 24 24" style="enable-background:new 0 0 24 24;" xml:space="preserve">
<g>
	<title>building-2</title>
	<path d="M0.5,24C0.224,24,0,23.776,0,23.5S0.224,23,0.5,23H2V4H0.5C0.224,4,0,3.776,0,3.5S0.224,3,0.5,3H3V1.5
		C3,0.673,3.673,0,4.5,0h15C20.327,0,21,0.673,21,1.5V3h2.5C23.776,3,24,3.224,24,3.5S23.776,4,23.5,4H22v19h1.5
		c0.276,0,0.5,0.224,0.5,0.5S23.776,24,23.5,24H0.5z M21,23V4H3v19h7v-3c0-1.103,0.897-2,2-2s2,0.897,2,2v3H21z M13,23v-3
		c0-0.552-0.448-1-1-1c-0.551,0-1,0.448-1,1v3H13z M20,3V1.5C20,1.224,19.776,1,19.5,1h-15C4.224,1,4,1.224,4,1.5V3H20z"/>
	<path d="M5.5,20C5.224,20,5,19.776,5,19.5S5.224,19,5.5,19h3C8.776,19,9,19.224,9,19.5S8.776,20,8.5,20H5.5z"/>
	<path d="M15.5,20c-0.276,0-0.5-0.224-0.5-0.5s0.224-0.5,0.5-0.5h3c0.276,0,0.5,0.224,0.5,0.5S18.776,20,18.5,20H15.5z"/>
	<path d="M5.5,16C5.224,16,5,15.776,5,15.5S5.224,15,5.5,15h4c0.276,0,0.5,0.224,0.5,0.5S9.776,16,9.5,16H5.5z"/>
	<path d="M14.5,16c-0.276,0-0.5-0.224-0.5-0.5s0.224-0.5,0.5-0.5h4c0.276,0,0.5,0.224,0.5,0.5S18.776,16,18.5,16H14.5z"/>
	<path d="M5.5,12C5.224,12,5,11.776,5,11.5S5.224,11,5.5,11h4c0.276,0,0.5,0.224,0.5,0.5S9.776,12,9.5,12H5.5z"/>
	<path d="M14.5,12c-0.276,0-0.5-0.224-0.5-0.5s0.224-0.5,0.5-0.5h4c0.276,0,0.5,0.224,0.5,0.5S18.776,12,18.5,12H14.5z"/>
	<path d="M5.5,8C5.224,8,5,7.776,5,7.5S5.224,7,5.5,7h4C9.776,7,10,7.224,10,7.5S9.776,8,9.5,8H5.5z"/>
	<path d="M14.5,8C14.224,8,14,7.776,14,7.5S14.224,7,14.5,7h4C18.776,7,19,7.224,19,7.5S18.776,8,18.5,8H14.5z"/>
</g>
</svg>
