<?xml version="1.0" encoding="utf-8"?>
<!-- Generator: Adobe Illustrator 22.1.0, SVG Export Plug-In . SVG Version: 6.00 Build 0)  -->
<svg version="1.1" id="Layer_1" xmlns="http://www.w3.org/2000/svg" xmlns:xlink="http://www.w3.org/1999/xlink" x="0px" y="0px"
	 viewBox="0 0 24 24" style="enable-background:new 0 0 24 24;" xml:space="preserve">
<g>
	<title>buildings-modern</title>
	<path d="M2.5,24c-0.551,0-1-0.448-1-1V6.825C1.501,6.427,1.737,6.068,2.1,5.91l2.4-1.067V0.5C4.5,0.224,4.724,0,5,0
		s0.5,0.224,0.5,0.5v3.898l4.597-2.043c0.13-0.057,0.265-0.085,0.403-0.085c0.125,0,0.247,0.023,0.365,0.069
		c0.249,0.098,0.445,0.286,0.552,0.531C11.472,2.996,11.5,3.13,11.5,3.268V23c0,0.552-0.449,1-1,1H2.5z M10.5,23V12H5
		c-0.276,0-0.5-0.224-0.5-0.5S4.724,11,5,11h5.5v-1H7c-0.276,0-0.5-0.224-0.5-0.5S6.724,9,7,9h3.5V8H8C7.724,8,7.5,7.776,7.5,7.5
		S7.724,7,8,7h2.5V3.269L2.503,6.825L2.5,23h2v-2c0-0.552,0.449-1,1-1h2c0.551,0,1,0.448,1,1v2H10.5z M7.5,23v-2h-2l0,2H7.5z"/>
	<path d="M14.5,24c-0.552,0-1-0.448-1-1V8.4c0-0.551,0.448-1,1-1c0.188,0,0.371,0.052,0.53,0.152L15.746,8H20.5c0.552,0,1,0.449,1,1
		v2.598l0.765,0.479c0.147,0.092,0.235,0.25,0.235,0.424V23c0,0.552-0.448,1-1,1H14.5z M21.5,23V12.777l-7-4.377l0,4.6H17
		c0.276,0,0.5,0.224,0.5,0.5S17.276,14,17,14h-2.5v1H19c0.276,0,0.5,0.224,0.5,0.5S19.276,16,19,16h-4.5v7h2v-2.5
		c0-0.276,0.224-0.5,0.5-0.5h2c0.276,0,0.5,0.224,0.5,0.5V23H21.5z M18.5,23v-2h-1v2H18.5z M20.5,10.972V9h-3.155L20.5,10.972z"/>
</g>
</svg>
