<?xml version="1.0" encoding="utf-8"?>
<!-- Generator: Adobe Illustrator 22.1.0, SVG Export Plug-In . SVG Version: 6.00 Build 0)  -->
<svg version="1.1" id="Layer_1" xmlns="http://www.w3.org/2000/svg" xmlns:xlink="http://www.w3.org/1999/xlink" x="0px" y="0px"
	 viewBox="0 0 24 24" style="enable-background:new 0 0 24 24;" xml:space="preserve">
<g>
	<title>building-modern-1</title>
	<path d="M1,24c-0.551,0-1-0.448-1-1v-7.232c0-0.336,0.167-0.647,0.446-0.833l4.999-3.334c0.165-0.109,0.356-0.167,0.553-0.168
		c0.268,0,0.519,0.104,0.708,0.293C6.896,11.916,7,12.167,7,12.434V23c0,0.552-0.449,1-1,1H1z M6,23V12.434l-5,3.334L1,23h1v-6
		c0-0.276,0.224-0.5,0.5-0.5S3,16.724,3,17v6h1v-6c0-0.276,0.224-0.5,0.5-0.5S5,16.724,5,17v6H6z"/>
	<path d="M19,24c-0.552,0-1-0.448-1-1v-9.5c0-0.067,0.013-0.132,0.039-0.194c0.025-0.06,0.061-0.114,0.107-0.16L20.292,11
		c0.188-0.189,0.439-0.293,0.706-0.293c0.265,0,0.513,0.102,0.701,0.286c0.003,0.003,2.153,2.153,2.153,2.153
		c0.046,0.046,0.082,0.1,0.108,0.16C23.987,13.37,24,13.435,24,13.5V23c0,0.552-0.448,1-1,1H19z M19,23h4v-1h-4V23z M23,21v-1h-4v1
		H23z M23,19v-1h-4v1H23z M23,17v-1h-4v1H23z M23,15v-1h-4L23,15z M22.293,13l-1.289-1.289L21,11.457l0,0.25L19.707,13H22.293z"/>
	<path d="M9,24c-0.205,0-0.402-0.062-0.571-0.181c-0.025-0.014-0.058-0.041-0.088-0.073C8.124,23.556,8,23.284,8,23V7.707
		C8,7.44,8.104,7.19,8.292,7.001L12,3.293V0.5C12,0.224,12.224,0,12.5,0C12.776,0,13,0.224,13,0.5v2.793L16.708,7
		c0.067,0.067,0.125,0.147,0.176,0.245c0.009,0.015,0.019,0.034,0.026,0.054C16.967,7.416,17,7.56,17,7.707V23c0,0.552-0.448,1-1,1
		H9z M16,23v-2.691L10.618,23H16z M9,22.691l6.382-3.191L9,22.691z M16,18.691v-6.382L9.618,15.5L16,18.691z M9,14.691l6.392-3.196
		L9,8.231V14.691z M16,10.683V7.976l-5.299,0.001L16,10.683z M9.73,6.977l5.539-0.001L12.5,4.207L9.73,6.977z"/>
</g>
</svg>
