<?xml version="1.0" encoding="utf-8"?>
<!-- Generator: Adobe Illustrator 22.1.0, SVG Export Plug-In . SVG Version: 6.00 Build 0)  -->
<svg version="1.1" id="Layer_1" xmlns="http://www.w3.org/2000/svg" xmlns:xlink="http://www.w3.org/1999/xlink" x="0px" y="0px"
	 viewBox="0 0 24 24" style="enable-background:new 0 0 24 24;" xml:space="preserve">
<g>
	<title>building-daylight</title>
	<path d="M1,24c-0.551,0-1-0.448-1-1V5c0-0.551,0.449-1,1-1h8c0.551,0,1,0.449,1,1v5h5c0.552,0,1,0.449,1,1v12c0,0.552-0.448,1-1,1
		H1z M15,23v-8h-1.5c-0.276,0-0.5-0.224-0.5-0.5s0.224-0.5,0.5-0.5H15v-1h-2.5c-0.276,0-0.5-0.224-0.5-0.5
		c0-0.276,0.224-0.5,0.5-0.5H15v-1H8v12h2v-2c0-0.552,0.449-1,1-1h2c0.552,0,1,0.448,1,1v2H15z M13,23v-2h-2l0,2H13z M7,23V11
		c0-0.551,0.449-1,1-1h1V9H6.5C6.224,9,6,8.776,6,8.5S6.224,8,6.5,8H9V7H4.5C4.224,7,4,6.776,4,6.5S4.224,6,4.5,6H9V5H1v18h1v-2
		c0-0.552,0.449-1,1-1h2c0.551,0,1,0.448,1,1v2H7z M5,23v-2H3l0,2H5z"/>
	<path d="M18.502,8c-1.378,0-2.5-1.121-2.5-2.5s1.122-2.5,2.5-2.5s2.5,1.121,2.5,2.5S19.88,8,18.502,8z M18.502,4
		c-0.827,0-1.5,0.673-1.5,1.5s0.673,1.5,1.5,1.5s1.5-0.673,1.5-1.5S19.329,4,18.502,4z"/>
	<path d="M18.502,2c-0.276,0-0.5-0.224-0.5-0.5v-1c0-0.276,0.224-0.5,0.5-0.5s0.5,0.224,0.5,0.5v1C19.002,1.776,18.778,2,18.502,2z"
		/>
	<path d="M15.674,3.171c-0.134,0-0.259-0.052-0.354-0.146l-0.707-0.707c-0.195-0.195-0.195-0.512,0-0.707
		c0.094-0.094,0.22-0.146,0.354-0.146s0.259,0.052,0.354,0.146l0.707,0.707c0.094,0.094,0.146,0.22,0.146,0.354
		s-0.052,0.259-0.146,0.354C15.933,3.119,15.808,3.171,15.674,3.171z"/>
	<path d="M13.502,5.998c-0.276,0-0.5-0.224-0.5-0.5s0.224-0.5,0.5-0.5h1c0.276,0,0.5,0.224,0.5,0.5s-0.224,0.5-0.5,0.5H13.502z"/>
	<path d="M14.966,9.535c-0.133,0-0.259-0.052-0.353-0.146c-0.195-0.195-0.195-0.512-0.001-0.707l0.707-0.708
		c0.094-0.095,0.22-0.147,0.354-0.147c0.133,0,0.259,0.052,0.353,0.146c0.195,0.195,0.195,0.512,0.001,0.707L15.32,9.388
		C15.226,9.483,15.1,9.535,14.966,9.535z"/>
	<path d="M18.501,10.998c-0.275,0-0.5-0.224-0.5-0.499L18,9.5c0-0.133,0.052-0.259,0.146-0.354c0.094-0.095,0.22-0.147,0.354-0.147
		c0.276,0,0.5,0.224,0.5,0.499l0.001,0.999c0,0.133-0.052,0.259-0.146,0.354C18.76,10.946,18.635,10.998,18.501,10.998
		L18.501,10.998z"/>
	<path d="M22.036,9.535c-0.133,0-0.259-0.052-0.353-0.146l-0.708-0.706c-0.195-0.194-0.196-0.512-0.001-0.707
		c0.095-0.095,0.22-0.147,0.354-0.147c0.133,0,0.259,0.052,0.353,0.146l0.708,0.706c0.195,0.194,0.196,0.512,0.001,0.707
		C22.295,9.483,22.17,9.535,22.036,9.535z"/>
	<path d="M22.5,6.002c-0.275,0-0.5-0.224-0.5-0.499c0-0.134,0.052-0.259,0.146-0.354c0.094-0.095,0.22-0.147,0.354-0.147l1-0.001
		c0.276,0,0.5,0.224,0.5,0.499c0,0.134-0.052,0.259-0.146,0.354c-0.094,0.095-0.22,0.147-0.354,0.147L22.5,6.002L22.5,6.002z"/>
	<path d="M21.33,3.174c-0.133,0-0.259-0.052-0.353-0.146c-0.195-0.195-0.196-0.512-0.001-0.707l0.706-0.708
		c0.095-0.095,0.22-0.147,0.354-0.147c0.133,0,0.259,0.052,0.353,0.146c0.195,0.195,0.196,0.512,0.001,0.707l-0.706,0.708
		C21.59,3.122,21.464,3.174,21.33,3.174z"/>
</g>
</svg>
