<?xml version="1.0" encoding="utf-8"?>
<!-- Generator: Adobe Illustrator 22.1.0, SVG Export Plug-In . SVG Version: 6.00 Build 0)  -->
<svg version="1.1" id="Layer_1" xmlns="http://www.w3.org/2000/svg" xmlns:xlink="http://www.w3.org/1999/xlink" x="0px" y="0px"
	 viewBox="0 0 24 24" style="enable-background:new 0 0 24 24;" xml:space="preserve">
<g>
	<title>building-flag</title>
	<path d="M2.511,24c-0.276,0-0.5-0.224-0.5-0.5V18h-1.5c-0.276,0-0.5-0.224-0.5-0.5s0.224-0.5,0.5-0.5h1.5v-4h-1.5
		c-0.276,0-0.5-0.224-0.5-0.5c0-0.276,0.224-0.5,0.5-0.5h5.5V7H5.012c-0.551,0-1-0.449-1-1V5c0-0.551,0.449-1,1-1h5.999V0.5
		c0-0.276,0.224-0.5,0.5-0.5h2.5c0.552,0,1,0.449,1,1v1c0,0.551-0.448,1-1,1h-2v1h7.001c0.552,0,1,0.449,1,1v1c0,0.551-0.448,1-1,1
		h-1.001v5h5.478c0.276,0,0.5,0.224,0.5,0.5c0,0.276-0.224,0.5-0.5,0.5h-1.478v4h1.478c0.276,0,0.5,0.224,0.5,0.5
		s-0.224,0.5-0.5,0.5h-1.478v5.5c0,0.276-0.224,0.5-0.5,0.5H2.511z M21.011,23v-5h-3v5H21.011z M17.011,23v-5h-10v5H17.011z
		 M6.011,23v-5h-3v5H6.011z M21.011,17v-4h-3v4H21.011z M17.011,17V7h-10v10H17.011z M6.011,17v-4h-3v4H6.011z M5.012,6h14V5h-14h0
		L5.012,6z M14.011,2V1h-2v1H14.011z"/>
	<path d="M9.011,11c-0.551,0-1-0.449-1-1V9c0-0.551,0.449-1,1-1h1c0.551,0,1,0.449,1,1v1c0,0.551-0.449,1-1,1H9.011z M9.011,10h1V9
		h-1L9.011,10z"/>
	<path d="M14.011,11c-0.552,0-1-0.449-1-1V9c0-0.551,0.448-1,1-1h1c0.552,0,1,0.449,1,1v1c0,0.551-0.448,1-1,1H14.011z M14.011,10h1
		V9h-1L14.011,10z"/>
	<path d="M9.011,15c-0.551,0-1-0.448-1-1v-1c0-0.552,0.449-1,1-1h1c0.551,0,1,0.448,1,1v1c0,0.552-0.449,1-1,1H9.011z M9.011,14h1
		v-1h-1L9.011,14z"/>
	<path d="M14.011,15c-0.552,0-1-0.448-1-1v-1c0-0.552,0.448-1,1-1h1c0.552,0,1,0.448,1,1v1c0,0.552-0.448,1-1,1H14.011z M14.011,14
		h1v-1h-1L14.011,14z"/>
	<path d="M9.011,22c-0.551,0-1-0.448-1-1v-1c0-0.552,0.449-1,1-1h1c0.551,0,1,0.448,1,1v1c0,0.552-0.449,1-1,1H9.011z M9.011,21h1
		v-1h-1L9.011,21z"/>
	<path d="M14.011,22c-0.552,0-1-0.448-1-1v-1c0-0.552,0.448-1,1-1h1c0.552,0,1,0.448,1,1v1c0,0.552-0.448,1-1,1H14.011z M14.011,21
		h1v-1h-1L14.011,21z"/>
</g>
</svg>
