<?xml version="1.0" encoding="utf-8"?>
<!-- Generator: Adobe Illustrator 22.1.0, SVG Export Plug-In . SVG Version: 6.00 Build 0)  -->
<svg version="1.1" id="Layer_1" xmlns="http://www.w3.org/2000/svg" xmlns:xlink="http://www.w3.org/1999/xlink" x="0px" y="0px"
	 viewBox="0 0 24 24" style="enable-background:new 0 0 24 24;" xml:space="preserve">
<g>
	<title>e-learning-laptop</title>
	<path d="M20.5,15c-0.276,0-0.5-0.224-0.5-0.5V5.168c0-0.311-0.121-0.604-0.342-0.825C19.438,4.122,19.145,4,18.833,4H5.167
		C4.523,4,4,4.524,4,5.167V14.5C4,14.776,3.776,15,3.5,15S3,14.776,3,14.5V5.168C3,3.973,3.972,3,5.167,3h13.666
		C20.029,3.001,21,3.974,21,5.168V14.5C21,14.776,20.776,15,20.5,15z"/>
	<path d="M5.625,21c-2.373,0-4.477-1.42-5.364-3.619c-0.047-0.118-0.072-0.242-0.073-0.369c-0.001-0.269,0.102-0.522,0.291-0.713
		c0.189-0.191,0.441-0.297,0.71-0.299c0,0,6.894,0,6.894,0c0.432,0,0.813,0.28,0.941,0.681C9.242,17.423,10.548,18,12,18
		c1.452,0,2.757-0.574,2.972-1.308c0.13-0.408,0.519-0.691,0.947-0.692h6.891c0.128,0.001,0.252,0.025,0.37,0.072
		c0.516,0.207,0.767,0.793,0.561,1.308C22.854,19.579,20.75,21,18.379,21H5.625z M1.19,17.002C1.922,18.825,3.662,20,5.622,20
		h12.755c1.963,0,3.703-1.175,4.436-2.993L15.924,17c-0.353,1.158-1.999,2-3.924,2c-1.92,0-3.563-0.839-3.924-2H1.193
		C1.193,17,1.192,17,1.19,17.002z"/>
	<path d="M16.5,14.501c-1.103,0-2-0.897-2-2c0-0.36,0.096-0.706,0.278-1.014l-1.042-1.042c-0.506,0.36-1.115,0.556-1.737,0.556
		c-0.623,0-1.231-0.196-1.737-0.556l-1.042,1.042C9.404,11.795,9.5,12.141,9.5,12.501c0,1.103-0.897,2-2,2s-2-0.897-2-2s0.897-2,2-2
		c0.36,0,0.707,0.096,1.015,0.279l1.041-1.042C9.196,9.232,9,8.624,9,8.001c0-1.654,1.346-3,3-3s3,1.346,3,3
		c0,0.623-0.196,1.231-0.556,1.737l1.041,1.042c0.308-0.183,0.655-0.279,1.015-0.279c1.103,0,2,0.897,2,2S17.603,14.501,16.5,14.501
		z M16.5,11.501c-0.552,0-1,0.449-1,1c0,0.552,0.448,1,1,1s1-0.448,1-1C17.5,11.95,17.051,11.501,16.5,11.501z M7.5,11.501
		c-0.551,0-1,0.449-1,1c0,0.552,0.449,1,1,1s1-0.448,1-1C8.5,11.95,8.051,11.501,7.5,11.501z M12,6.001c-1.103,0-2,0.897-2,2
		s0.897,2,2,2c1.103,0,2-0.897,2-2S13.103,6.001,12,6.001z"/>
</g>
</svg>
