<?xml version="1.0" encoding="utf-8"?>
<!-- Generator: Adobe Illustrator 22.1.0, SVG Export Plug-In . SVG Version: 6.00 Build 0)  -->
<svg version="1.1" id="Layer_1" xmlns="http://www.w3.org/2000/svg" xmlns:xlink="http://www.w3.org/1999/xlink" x="0px" y="0px"
	 viewBox="0 0 24 24" style="enable-background:new 0 0 24 24;" xml:space="preserve">
<g>
	<title>e-learning-exchange</title>
	<path d="M17,15.501c-0.276,0-0.5-0.224-0.5-0.5v-4.363l-3.943,1.574c-0.178,0.072-0.365,0.108-0.556,0.108
		c-0.191,0-0.379-0.037-0.558-0.109l-4.338-1.735c-0.158-0.063-0.285-0.19-0.348-0.347C6.628,9.81,6.784,9.446,7.104,9.317
		l4.34-1.735C11.621,7.51,11.809,7.474,12,7.474c0.191,0,0.379,0.036,0.558,0.109l4.617,1.849c0.043,0.015,0.084,0.041,0.113,0.062
		c0.005,0.004,0.028,0.019,0.032,0.023c0.03,0.026,0.052,0.05,0.072,0.077c0.014,0.018,0.028,0.039,0.041,0.061
		c0.015,0.026,0.027,0.051,0.037,0.079c0.013,0.036,0.023,0.078,0.027,0.122C17.499,9.87,17.5,9.884,17.5,9.897v5.104
		C17.5,15.277,17.276,15.501,17,15.501z M11.815,11.284c0.06,0.024,0.123,0.036,0.186,0.036c0.063,0,0.125-0.012,0.184-0.036
		l3.469-1.385L12.185,8.51C12.125,8.486,12.063,8.474,12,8.474c-0.063,0-0.125,0.012-0.184,0.036L8.347,9.897L11.815,11.284z"/>
	<path d="M4,22.501c-0.276,0-0.5-0.224-0.5-0.5v-4c0-0.013,0.001-0.028,0.004-0.042c0.003-0.034,0.011-0.064,0.017-0.085
		c0.008-0.033,0.015-0.057,0.026-0.08c0.018-0.04,0.042-0.071,0.057-0.09c0.014-0.019,0.025-0.034,0.037-0.047
		c0.011-0.013,0.023-0.027,0.035-0.037c0.036-0.031,0.07-0.046,0.086-0.054c0.016-0.01,0.035-0.021,0.057-0.029
		c0.05-0.019,0.093-0.026,0.125-0.029c0.019-0.004,0.04-0.006,0.056-0.006c0.004,0,4,0,4,0c0.276,0,0.5,0.224,0.5,0.5
		s-0.224,0.5-0.5,0.5H5.156c1.848,1.768,4.321,2.854,6.873,3C17.245,21.5,21.5,17.238,21.5,12c0-0.276,0.224-0.5,0.5-0.5
		s0.5,0.224,0.5,0.5c0,5.79-4.71,10.5-10.5,10.5c-2.832-0.161-5.468-1.307-7.5-3.243v2.745C4.5,22.277,4.276,22.501,4,22.501z"/>
	<path d="M2,12.5c-0.276,0-0.5-0.224-0.5-0.5C1.5,6.211,6.21,1.5,12,1.5c2.832,0.161,5.468,1.308,7.5,3.243V2.001
		c0-0.276,0.224-0.5,0.5-0.5s0.5,0.224,0.5,0.5v4c0,0.016-0.002,0.034-0.005,0.051c-0.003,0.027-0.008,0.046-0.012,0.059
		c-0.009,0.036-0.016,0.067-0.032,0.101c-0.007,0.016-0.029,0.05-0.039,0.064c-0.01,0.015-0.031,0.047-0.063,0.08
		c-0.008,0.009-0.016,0.017-0.023,0.024c-0.014,0.013-0.037,0.028-0.058,0.038c-0.026,0.017-0.06,0.037-0.103,0.052
		c-0.025,0.009-0.049,0.014-0.074,0.018C20.078,6.492,20.044,6.501,20,6.501h-4c-0.276,0-0.5-0.224-0.5-0.5s0.224-0.5,0.5-0.5h2.846
		c-1.848-1.77-4.322-2.855-6.875-3.002C6.755,2.5,2.5,6.762,2.5,12C2.5,12.276,2.276,12.5,2,12.5z"/>
	<path d="M11.658,15.415c-1.107,0-2.169-0.406-2.991-1.142C8.56,14.177,8.5,14.042,8.5,13.9v-1.5c0-0.276,0.224-0.5,0.5-0.5
		s0.5,0.224,0.5,0.5v1.268c0.613,0.482,1.375,0.747,2.16,0.747c0.099,0,0.198-0.004,0.297-0.013C11.964,14.401,11.993,14.4,12,14.4
		c0.016,0,0.031,0.001,0.047,0.002c0.096,0.008,0.195,0.013,0.294,0.013c0.784,0,1.546-0.265,2.159-0.747V12.4
		c0-0.276,0.224-0.5,0.5-0.5s0.5,0.224,0.5,0.5v1.5c0,0.142-0.061,0.277-0.166,0.372c-0.822,0.737-1.885,1.143-2.993,1.143
		c-0.113,0-0.227-0.004-0.341-0.013C11.886,15.411,11.771,15.415,11.658,15.415z"/>
	<path d="M17,18.397c-0.276,0-0.5-0.224-0.5-0.5v-1c0-0.276,0.224-0.5,0.5-0.5s0.5,0.224,0.5,0.5v1
		C17.5,18.173,17.276,18.397,17,18.397z"/>
</g>
</svg>
