<?xml version="1.0" encoding="utf-8"?>
<!-- Generator: Adobe Illustrator 22.1.0, SVG Export Plug-In . SVG Version: 6.00 Build 0)  -->
<svg version="1.1" id="Layer_1" xmlns="http://www.w3.org/2000/svg" xmlns:xlink="http://www.w3.org/1999/xlink" x="0px" y="0px"
	 viewBox="0 0 24 24" style="enable-background:new 0 0 24 24;" xml:space="preserve">
<g>
	<title>shipment-delivered</title>
	<path d="M1.5,17C0.673,17,0,16.327,0,15.5v-14C0,0.672,0.673,0,1.5,0h15C17.328,0,18,0.672,18,1.5V7c0,0.276-0.224,0.5-0.5,0.5
		S17,7.275,17,7V1.5C17,1.224,16.776,1,16.5,1H12v6.293C12,7.561,11.895,7.812,11.706,8C11.517,8.188,11.267,8.292,11,8.292
		c-0.268,0-0.518-0.104-0.706-0.292L9,6.707L7.707,7.999C7.518,8.188,7.267,8.292,7,8.292c-0.269,0-0.52-0.105-0.708-0.294
		C6.105,7.809,6.001,7.559,6,7.294V1H1.5C1.225,1,1,1.224,1,1.5v14C1,15.775,1.225,16,1.5,16h8c0.276,0,0.5,0.224,0.5,0.5
		S9.776,17,9.5,17H1.5z M7,7.293l1.646-1.647C8.741,5.552,8.867,5.5,9,5.5s0.259,0.052,0.353,0.146l1.647,1.646L11,1H7V7.293z"/>
	<path d="M18.969,23.999c-0.293,0-0.61-0.007-0.966-0.015c-0.442-0.01-0.992-0.022-1.641-0.022c-1.743,0-2.902-1.011-3.544-3.092
		c-0.007-0.023-0.012-0.044-0.015-0.066l-1.184-4.31c-0.004-0.013-0.007-0.027-0.01-0.041c-0.254-0.935,0.291-1.918,1.221-2.197
		c0.163-0.049,0.334-0.074,0.507-0.076h3.18c0.439-0.002,0.796-0.362,0.794-0.803c0-0.066-0.009-0.133-0.026-0.198l-0.568-2.163
		c-0.11-0.415-0.051-0.848,0.165-1.22c0.217-0.371,0.565-0.636,0.98-0.746c0.133-0.035,0.27-0.053,0.408-0.053
		c0.525,0,1.019,0.256,1.319,0.684l3.167,4.487c0.149,0.21,0.392,0.336,0.65,0.336c0.276,0,0.5,0.225,0.499,0.501
		c0,0.275-0.225,0.499-0.5,0.499c-0.582-0.001-1.13-0.285-1.466-0.758l-3.169-4.489c-0.114-0.163-0.302-0.26-0.501-0.26
		c-0.052,0-0.103,0.007-0.153,0.02c-0.157,0.042-0.289,0.142-0.371,0.283c-0.082,0.141-0.104,0.305-0.063,0.462l0.569,2.167
		c0.038,0.147,0.058,0.296,0.058,0.445c0.004,0.993-0.8,1.804-1.792,1.808h-3.179c-0.075,0-0.15,0.012-0.223,0.034
		c-0.205,0.061-0.373,0.198-0.475,0.387s-0.124,0.405-0.063,0.609c0.005,0.018,0.01,0.037,0.014,0.057l1.184,4.313
		c0.003,0.012,0.006,0.024,0.009,0.036c0.516,1.644,1.287,2.345,2.575,2.345c0.661,0,1.217,0.012,1.663,0.022
		C18.385,22.993,18.701,23,18.99,23c1.383,0,2.114-0.159,4.294-1.209c0.067-0.033,0.141-0.05,0.217-0.05
		c0.191,0,0.368,0.111,0.45,0.284c0.058,0.119,0.065,0.255,0.021,0.381s-0.135,0.228-0.255,0.285
		C21.396,23.81,20.496,23.999,18.969,23.999z"/>
</g>
</svg>
