<?xml version="1.0" encoding="utf-8"?>
<!-- Generator: Adobe Illustrator 22.1.0, SVG Export Plug-In . SVG Version: 6.00 Build 0)  -->
<svg version="1.1" id="Layer_1" xmlns="http://www.w3.org/2000/svg" xmlns:xlink="http://www.w3.org/1999/xlink" x="0px" y="0px"
	 viewBox="0 0 24 24" style="enable-background:new 0 0 24 24;" xml:space="preserve">
<g>
	<title>shipment-container</title>
	<path d="M1.5,23.5c-0.392,0-0.762-0.151-1.044-0.424c-0.009-0.008-0.018-0.016-0.026-0.025c-0.003-0.003-0.005-0.006-0.008-0.01
		C0.153,22.768,0,22.395,0,22V2c0-0.392,0.151-0.763,0.425-1.044C0.43,0.95,0.435,0.944,0.44,0.939
		c0.005-0.005,0.01-0.01,0.016-0.015C0.738,0.65,1.108,0.5,1.5,0.5h21c0.392,0,0.761,0.15,1.043,0.424
		c0.003,0.002,0.005,0.005,0.008,0.007c0.009,0.008,0.018,0.018,0.026,0.028C23.847,1.231,24,1.604,24,2v20
		c0,0.392-0.15,0.761-0.423,1.043c-0.005,0.006-0.01,0.012-0.016,0.018s-0.011,0.011-0.018,0.016
		C23.261,23.35,22.892,23.5,22.5,23.5H1.5z M22.293,22.5l-2-2H3.707l-2,2H22.293z M23,21.793V2.207l-2,2v11.651
		c0.014,0.046,0.021,0.094,0.021,0.142S21.014,16.096,21,16.142v3.651L23,21.793z M1,21.793l2-2V4.207l-2-2V21.793z M20,19.5v-3H4v3
		H20z M20,15.5v-2.969H4V15.5H20z M20,11.531V8.5H4v3.031H20z M20,7.5v-3H4v3H20z M20.293,3.5l2-2H1.707l2,2H20.293z"/>
</g>
</svg>
