<?xml version="1.0" encoding="utf-8"?>
<!-- Generator: Adobe Illustrator 22.1.0, SVG Export Plug-In . SVG Version: 6.00 Build 0)  -->
<svg version="1.1" id="Layer_1" xmlns="http://www.w3.org/2000/svg" xmlns:xlink="http://www.w3.org/1999/xlink" x="0px" y="0px"
	 viewBox="0 0 24 24" style="enable-background:new 0 0 24 24;" xml:space="preserve">
<g>
	<title>shipment-touch</title>
	<path d="M14.501,13c-0.276,0-0.5-0.224-0.5-0.5c0-0.276,0.224-0.5,0.5-0.5h2c0.276,0,0.5-0.224,0.5-0.5v-10
		c0-0.276-0.224-0.5-0.5-0.5h-2.5v5.41c0,0.239-0.086,0.47-0.242,0.652c-0.174,0.203-0.417,0.325-0.683,0.345
		C13.051,7.409,13.025,7.41,13,7.41c-0.239,0-0.47-0.086-0.651-0.242l-1.348-1.159l-1.348,1.16C9.472,7.324,9.24,7.41,9.001,7.41
		c-0.552,0-1-0.448-1-1V1h-2.5c-0.276,0-0.5,0.224-0.5,0.5v10c0,0.276,0.224,0.5,0.5,0.5h2c0.276,0,0.5,0.224,0.5,0.5
		c0,0.276-0.224,0.5-0.5,0.5h-2c-0.827,0-1.5-0.673-1.5-1.5v-10c0-0.827,0.673-1.5,1.5-1.5h11c0.827,0,1.5,0.673,1.5,1.5v10
		c0,0.827-0.673,1.5-1.5,1.5H14.501z M9.001,6.41l1.674-1.44c0.091-0.078,0.207-0.121,0.326-0.121s0.235,0.043,0.326,0.121
		l1.674,1.44l0-5.41h-4V6.41z"/>
	<path d="M19.501,24c-0.276,0-0.5-0.224-0.5-0.5V22c0-1.93-1.57-3.5-3.5-3.5h-3c-0.276,0-0.5-0.224-0.5-0.5v-6.5
		c0-0.551-0.449-1-1-1s-1,0.449-1,1v9.826c0,0.21-0.133,0.399-0.331,0.47c-0.054,0.02-0.111,0.03-0.169,0.03
		c-0.149,0-0.29-0.066-0.385-0.18L6.77,18.819C6.58,18.591,6.299,18.46,6,18.46c-0.233,0-0.461,0.082-0.64,0.231
		c-0.424,0.353-0.482,0.986-0.129,1.41l2.648,3.073c0.087,0.101,0.13,0.23,0.12,0.363s-0.071,0.255-0.172,0.342
		C7.736,23.957,7.62,24,7.501,24c-0.146,0-0.284-0.063-0.379-0.174l-2.653-3.079c-0.71-0.853-0.596-2.118,0.252-2.824
		C5.079,17.625,5.533,17.46,6,17.46c0.597,0,1.159,0.262,1.54,0.72l1.462,1.761V11.5c0-1.103,0.897-2,2-2s2,0.897,2,2v6h2.5
		c2.481,0,4.5,2.019,4.5,4.5v1.5C20.001,23.776,19.777,24,19.501,24z"/>
</g>
</svg>
