<?xml version="1.0" encoding="utf-8"?>
<!-- Generator: Adobe Illustrator 22.1.0, SVG Export Plug-In . SVG Version: 6.00 Build 0)  -->
<svg version="1.1" id="Layer_1" xmlns="http://www.w3.org/2000/svg" xmlns:xlink="http://www.w3.org/1999/xlink" x="0px" y="0px"
	 viewBox="0 0 24 24" style="enable-background:new 0 0 24 24;" xml:space="preserve">
<g>
	<title>shipment-weight-kg</title>
	<path d="M1.5,24C0.673,24,0,23.327,0,22.5v-2c0-0.047,0.007-0.094,0.02-0.138l3.37-11.799C3.821,7.054,5.219,6,6.789,6h2.766
		C8.885,5.348,8.5,4.455,8.5,3.5C8.5,1.57,10.07,0,12,0s3.5,1.57,3.5,3.5c0,0.955-0.385,1.848-1.055,2.5h2.764
		c1.57,0,2.968,1.054,3.399,2.562l3.373,11.801C23.994,20.407,24,20.453,24,20.5v2c0,0.827-0.673,1.5-1.5,1.5H1.5z M1,22.5
		C1,22.776,1.224,23,1.5,23h21c0.276,0,0.5-0.224,0.5-0.5v-1.93L19.647,8.837C19.337,7.756,18.335,7,17.209,7H6.789
		C5.663,7,4.661,7.756,4.351,8.838L1,20.57V22.5z M12,1c-1.379,0-2.5,1.121-2.5,2.5S10.621,6,12,6c1.378,0,2.5-1.121,2.5-2.5
		S13.378,1,12,1z"/>
	<path d="M11.5,20c-0.134,0-0.259-0.052-0.354-0.146L8,16.707V19.5C8,19.776,7.776,20,7.5,20S7,19.776,7,19.5v-8
		C7,11.224,7.224,11,7.5,11S8,11.224,8,11.5v2.793l3.146-3.146C11.241,11.052,11.366,11,11.5,11s0.259,0.052,0.354,0.146
		S12,11.366,12,11.5s-0.052,0.259-0.146,0.354L8.207,15.5l3.646,3.646C11.948,19.241,12,19.366,12,19.5s-0.052,0.259-0.146,0.354
		S11.634,20,11.5,20z"/>
	<path d="M15.5,20c-1.378,0-2.5-1.122-2.5-2.5v-4c0-1.379,1.122-2.5,2.5-2.5s2.5,1.121,2.5,2.5c0,0.276-0.224,0.5-0.5,0.5
		S17,13.776,17,13.5c0-0.827-0.673-1.5-1.5-1.5S14,12.673,14,13.5v4c0,0.827,0.673,1.5,1.5,1.5s1.5-0.673,1.5-1.5V17h-1
		c-0.276,0-0.5-0.224-0.5-0.5S15.724,16,16,16h1.5c0.276,0,0.5,0.224,0.5,0.5v1C18,18.878,16.878,20,15.5,20z"/>
</g>
</svg>
