<?xml version="1.0" encoding="utf-8"?>
<!-- Generator: Adobe Illustrator 22.1.0, SVG Export Plug-In . SVG Version: 6.00 Build 0)  -->
<svg version="1.1" id="Layer_1" xmlns="http://www.w3.org/2000/svg" xmlns:xlink="http://www.w3.org/1999/xlink" x="0px" y="0px"
	 viewBox="0 0 24 24" style="enable-background:new 0 0 24 24;" xml:space="preserve">
<g>
	<title>shipment-give</title>
	<path d="M15,23.964c-0.552,0-1-0.448-1-1v-2c0-0.552,0.448-1,1-1v-4.007c0-0.047,0.006-0.093,0.019-0.137
		c0.397-1.389,0.923-2.75,1.564-4.046c0.009-0.017,0.018-0.034,0.029-0.051c0.328-0.51,0.804-0.804,1.304-0.804
		c0.171,0,0.34,0.035,0.501,0.104c0.574,0.245,1.041,0.966,0.788,2.025l-0.298,1.301l1.594-1.594
		c0.023-3.24,0.599-5.279,1.712-6.062c0.391-0.275,0.767-0.333,1.013-0.333c0.244,0,0.412,0.055,0.443,0.066
		C23.867,6.5,24,6.689,24,6.899v7.65c0,0.396-0.16,0.783-0.441,1.063c-0.944,0.94-2.992,2.968-3.559,3.53v0.823c0.552,0,1,0.448,1,1
		v2c0,0.552-0.448,1-1,1H15z M15,22.964h5v-2h-5L15,22.964z M19,19.964v-1.031c0-0.133,0.054-0.262,0.148-0.355
		c0,0,2.604-2.578,3.705-3.674C22.947,14.811,23,14.682,23,14.55V7.402c-0.069,0.024-0.144,0.062-0.224,0.12
		C22.393,7.799,21.5,8.885,21.5,12.964c0,0.134-0.052,0.259-0.146,0.354l-2.969,2.969c-0.094,0.094-0.22,0.146-0.354,0.146
		c-0.084,0-0.168-0.022-0.242-0.062c-0.194-0.108-0.295-0.333-0.246-0.55l0.688-3c0.118-0.493-0.025-0.8-0.207-0.878
		c-0.033-0.014-0.067-0.021-0.103-0.021c-0.15,0-0.32,0.12-0.457,0.323c-0.598,1.212-1.091,2.484-1.466,3.782v3.937H19z"/>
	<path d="M4,23.964c-0.551,0-1-0.448-1-1v-2c0-0.552,0.449-1,1-1v-0.831c-0.538-0.562-2.495-2.598-3.506-3.513
		C0.18,15.337,0,14.932,0,14.508V6.899c0-0.21,0.133-0.399,0.33-0.47c0.031-0.011,0.198-0.067,0.443-0.067
		c0.246,0,0.622,0.058,1.013,0.333C2.9,7.477,3.476,9.516,3.499,12.757l1.594,1.594l-0.299-1.305
		c-0.253-1.054,0.214-1.774,0.789-2.02c0.161-0.069,0.33-0.104,0.502-0.104c0.5,0,0.976,0.294,1.306,0.808
		c0.01,0.015,0.02,0.032,0.028,0.05c0.64,1.292,1.166,2.652,1.563,4.041C8.994,15.865,9,15.911,9,15.957v4.007c0.551,0,1,0.448,1,1
		v2c0,0.552-0.449,1-1,1H4z M4,22.964h5v-2H4L4,22.964z M8,19.964v-3.936c-0.375-1.297-0.868-2.569-1.466-3.78
		c-0.136-0.203-0.306-0.323-0.457-0.323c-0.035,0-0.07,0.007-0.103,0.021c-0.182,0.077-0.324,0.383-0.207,0.871l0.689,3.005
		c0.05,0.216-0.051,0.442-0.245,0.549c-0.075,0.041-0.158,0.062-0.242,0.062c-0.134,0-0.259-0.052-0.354-0.146l-2.969-2.969
		C2.552,13.223,2.5,13.098,2.5,12.964c0-4.103-0.901-5.179-1.288-5.451C1.144,7.465,1.073,7.428,1,7.403v7.105
		c0,0.141,0.06,0.277,0.165,0.372c1.182,1.069,3.594,3.6,3.697,3.708C4.951,18.683,5,18.805,5,18.933v1.031H8z"/>
	<path d="M11.521,12.898c-0.18,0-0.357-0.049-0.512-0.142l-4.523-2.714C6.186,9.864,6,9.535,6,9.185v-5.42
		c0-0.16,0.041-0.321,0.119-0.467C6.125,3.28,6.134,3.261,6.142,3.249c0.015-0.026,0.032-0.045,0.045-0.057
		c0.091-0.13,0.204-0.233,0.336-0.304l4.999-2.727C11.669,0.08,11.834,0.038,12,0.038c0.166,0,0.331,0.042,0.478,0.122l5,2.723
		c0.157,0.085,0.289,0.213,0.381,0.369c0.006,0.008,0.01,0.017,0.015,0.026c0.002,0.005,0.005,0.011,0.007,0.016
		C17.959,3.44,18,3.601,18,3.761v5.391c0,0.381-0.211,0.723-0.552,0.894l-5.479,2.746C11.83,12.862,11.675,12.898,11.521,12.898z
		 M12,11.658l5-2.506V4.274l-5,2.5V11.658z M7,9.185l4,2.4V6.747l-4-2.4V9.185z M11.522,5.894l4.898-2.449L12,1.039L7.51,3.487
		L11.522,5.894z"/>
</g>
</svg>
