<?xml version="1.0" encoding="utf-8"?>
<!-- Generator: Adobe Illustrator 22.1.0, SVG Export Plug-In . SVG Version: 6.00 Build 0)  -->
<svg version="1.1" id="Layer_1" xmlns="http://www.w3.org/2000/svg" xmlns:xlink="http://www.w3.org/1999/xlink" x="0px" y="0px"
	 viewBox="0 0 24 24" style="enable-background:new 0 0 24 24;" xml:space="preserve">
<g>
	<title>shipment-crack</title>
	<path d="M8,24c-0.276,0-0.5-0.224-0.5-0.5S7.724,23,8,23h3.5v-7.019c-3.945-0.258-7-3.499-7-7.481c0-0.021,0.001-0.042,0.004-0.063
		l0.945-7.561C5.511,0.377,5.938,0,6.441,0h11.118c0.515,0.002,0.933,0.371,0.996,0.876l0.941,7.562C19.499,8.46,19.5,8.48,19.5,8.5
		c0,3.982-3.055,7.224-7,7.481V23H16c0.276,0,0.5,0.224,0.5,0.5S16.276,24,16,24H8z M5.5,8.531C5.517,12.099,8.429,15,12,15
		c3.571,0,6.483-2.901,6.5-6.47L17.563,1l-3.356,0l-4,4l2.585,0c0.552,0,1,0.449,1,1c0,0.264-0.107,0.522-0.294,0.708l-4.146,4.146
		C9.259,10.948,9.134,11,9,11s-0.259-0.052-0.354-0.146S8.5,10.634,8.5,10.5s0.052-0.259,0.146-0.354L12.792,6l-2.585,0
		C9.939,6,9.688,5.896,9.499,5.706c-0.188-0.189-0.292-0.44-0.292-0.707c0-0.267,0.104-0.518,0.293-0.707L12.793,1H6.442L5.5,8.531z
		"/>
</g>
</svg>
