<?xml version="1.0" encoding="utf-8"?>
<!-- Generator: Adobe Illustrator 22.1.0, SVG Export Plug-In . SVG Version: 6.00 Build 0)  -->
<svg version="1.1" id="Layer_1" xmlns="http://www.w3.org/2000/svg" xmlns:xlink="http://www.w3.org/1999/xlink" x="0px" y="0px"
	 viewBox="0 0 24 24" style="enable-background:new 0 0 24 24;" xml:space="preserve">
<g>
	<title>shipment-monitor-1</title>
	<path d="M15.5,23c-0.827,0-1.5-0.673-1.5-1.5v-6c0-0.827,0.673-1.5,1.5-1.5h7c0.827,0,1.5,0.673,1.5,1.5v6
		c0,0.827-0.673,1.5-1.5,1.5H15.5z M15.5,15c-0.276,0-0.5,0.224-0.5,0.5v6c0,0.276,0.224,0.5,0.5,0.5h7c0.276,0,0.5-0.224,0.5-0.5
		v-6c0-0.276-0.224-0.5-0.5-0.5H21v3c0,0.185-0.101,0.354-0.264,0.441C20.664,18.479,20.582,18.5,20.5,18.5
		c-0.099,0-0.195-0.029-0.277-0.084L19,17.601l-1.223,0.815C17.695,18.471,17.599,18.5,17.5,18.5c-0.082,0-0.164-0.021-0.236-0.059
		C17.101,18.354,17,18.185,17,18v-3H15.5z M18,17.066l0.723-0.482C18.805,16.529,18.901,16.5,19,16.5s0.195,0.029,0.278,0.084
		L20,17.066V15h-2V17.066z"/>
	<path d="M5,19c-0.276,0-0.5-0.224-0.5-0.5S4.724,18,5,18h1.22c0.564-0.93,0.96-1.937,1.181-3H1.5c-0.02,0-0.041-0.001-0.061-0.004
		c-0.756-0.088-1.348-0.68-1.436-1.439C0.001,13.539,0,13.519,0,13.5v-11c0-0.019,0.001-0.038,0.003-0.057
		c0.088-0.759,0.68-1.351,1.439-1.439C1.462,1.001,1.481,1,1.5,1h15c0.019,0,0.039,0.001,0.058,0.003
		c0.759,0.088,1.351,0.68,1.439,1.439C17.999,2.459,18,2.48,18,2.5v9c0,0.276-0.224,0.5-0.5,0.5H1v1.467
		c0.042,0.274,0.259,0.49,0.533,0.533H12c0.276,0,0.5,0.224,0.5,0.5S12.276,15,12,15h-1.4c0.222,1.062,0.618,2.07,1.181,3H13
		c0.276,0,0.5,0.224,0.5,0.5S13.276,19,13,19H5z M10.628,18c-0.5-0.942-0.853-1.948-1.051-3H8.424c-0.197,1.052-0.55,2.059-1.051,3
		H10.628z M17,11V2.533C16.957,2.259,16.741,2.042,16.467,2H1.533C1.259,2.042,1.042,2.259,1,2.533V11H17z"/>
</g>
</svg>
