<?xml version="1.0" encoding="utf-8"?>
<!-- Generator: Adobe Illustrator 22.1.0, SVG Export Plug-In . SVG Version: 6.00 Build 0)  -->
<svg version="1.1" id="Layer_1" xmlns="http://www.w3.org/2000/svg" xmlns:xlink="http://www.w3.org/1999/xlink" x="0px" y="0px"
	 viewBox="0 0 24 24" style="enable-background:new 0 0 24 24;" xml:space="preserve">
<g>
	<title>shipment-package</title>
	<path d="M12.5,23.927c-0.072,0-0.143-0.017-0.211-0.051c-0.142-0.017-0.267-0.049-0.381-0.097L0.923,19.202
		C0.362,18.969,0,18.425,0,17.818V6.141c0-0.597,0.353-1.137,0.9-1.375l10.5-4.566c0.19-0.082,0.392-0.124,0.6-0.124
		s0.409,0.042,0.598,0.124l10.5,4.566C23.647,5.004,24,5.544,24,6.141v11.7c0,0.586-0.345,1.122-0.879,1.365L13.107,23.76
		c-0.112,0.051-0.236,0.086-0.38,0.109C12.654,23.907,12.578,23.927,12.5,23.927z M1,17.818c0,0.202,0.121,0.384,0.307,0.462
		L12,22.735V10.818L1,6.235V17.818z M13,22.71l9.707-4.414C22.885,18.215,23,18.036,23,17.841V6.261l-4.457,2.026
		c-0.032,0.019-0.066,0.034-0.101,0.046L13,10.807V22.71z M12.491,9.94l4.606-2.094L7.174,3.128L1.776,5.475L12.491,9.94z
		 M18.289,7.304l3.98-1.81L12.201,1.116c-0.062-0.027-0.132-0.041-0.2-0.041c-0.07,0-0.138,0.014-0.201,0.042L8.391,2.599
		L18.289,7.304z"/>
	<path d="M8.999,17.846c-0.137,0-0.271-0.028-0.398-0.083L3.6,15.574C3.236,15.415,3,15.055,3,14.658V10.75
		c0-0.138,0.028-0.273,0.083-0.4c0.16-0.365,0.52-0.6,0.918-0.6c0.138,0,0.272,0.028,0.399,0.083l5,2.188
		C9.764,12.179,10,12.539,10,12.937v3.909c0,0.138-0.028,0.272-0.083,0.399C9.757,17.61,9.397,17.846,8.999,17.846z M4,14.658
		l5,2.188l0-3.909l-5-2.188C4,10.749,4,14.658,4,14.658z"/>
</g>
</svg>
