<?xml version="1.0" encoding="utf-8"?>
<!-- Generator: Adobe Illustrator 22.1.0, SVG Export Plug-In . SVG Version: 6.00 Build 0)  -->
<svg version="1.1" id="Layer_1" xmlns="http://www.w3.org/2000/svg" xmlns:xlink="http://www.w3.org/1999/xlink" x="0px" y="0px"
	 viewBox="0 0 24 24" style="enable-background:new 0 0 24 24;" xml:space="preserve">
<g>
	<title>treasure-chest-open</title>
	<path d="M2.5,24C1.121,24,0,22.878,0,21.5V13c0-0.552,0.449-1,1-1h1.029c0.085-0.794,0.378-1.438,0.872-1.919
		c0.763-0.742,1.93-1.087,3.674-1.087c0.015,0,0.03,0,0.045,0C7.252,7.034,9.107,6,12,6s4.748,1.034,5.38,2.994
		c0.01,0,0.021,0,0.031,0c1.753,0,2.925,0.345,3.688,1.087c0.494,0.48,0.787,1.125,0.873,1.919H23c0.552,0,1,0.448,1,1v8.5
		c0,1.378-1.122,2.5-2.5,2.5H2.5z M21.5,23c0.827,0,1.5-0.673,1.5-1.5V15h-4.996v8H21.5z M17.004,23v-8H14.5v0.5
		c0,1.378-1.122,2.5-2.5,2.5c-1.379,0-2.5-1.122-2.5-2.5V15H7.004v8H17.004z M1,21.5C1,22.327,1.673,23,2.5,23h3.504v-8H1V21.5z
		 M9.5,14c0.551,0,1,0.448,1,1v0.5c0,0.827,0.673,1.5,1.5,1.5s1.5-0.673,1.5-1.5V15c0-0.552,0.448-1,1-1H23v-1H1l0,1H9.5z
		 M20.966,12c-0.071-0.508-0.257-0.903-0.564-1.202c-0.556-0.541-1.547-0.803-3.029-0.803c-0.116,0-0.236,0.002-0.359,0.005
		c0,0,0,0,0,0c-0.249,0-0.449-0.16-0.501-0.39C16.025,7.453,13.79,7,12,7c-1.79,0-4.026,0.453-4.512,2.61
		C7.438,9.832,7.225,10,6.994,10C6.86,9.996,6.737,9.995,6.618,9.995c-1.476,0-2.464,0.263-3.019,0.803
		C3.29,11.097,3.105,11.492,3.034,12H20.966z"/>
	<path d="M12.004,16c-0.276,0-0.5-0.224-0.5-0.5v-1c0-0.276,0.224-0.5,0.5-0.5c0.276,0,0.5,0.224,0.5,0.5v1
		C12.504,15.776,12.28,16,12.004,16z"/>
	<path d="M0.504,8c-0.276,0-0.5-0.224-0.5-0.5S0.228,7,0.504,7h1c0.276,0,0.5,0.224,0.5,0.5S1.78,8,1.504,8H0.504z"/>
	<path d="M5.504,3.5C5.37,3.5,5.245,3.448,5.15,3.354l-1-1C4.056,2.259,4.004,2.134,4.004,2S4.056,1.741,4.15,1.646
		S4.37,1.5,4.504,1.5s0.259,0.052,0.354,0.146l1,1C5.952,2.741,6.004,2.866,6.004,3S5.952,3.259,5.857,3.354S5.637,3.5,5.504,3.5z"
		/>
	<path d="M22.504,8c-0.276,0-0.5-0.224-0.5-0.5s0.224-0.5,0.5-0.5h1c0.276,0,0.5,0.224,0.5,0.5S23.78,8,23.504,8H22.504z"/>
	<path d="M18.504,3.5c-0.134,0-0.259-0.052-0.354-0.146S18.004,3.134,18.004,3s0.052-0.259,0.146-0.354l1-1
		C19.245,1.552,19.37,1.5,19.504,1.5s0.259,0.052,0.354,0.146S20.004,1.866,20.004,2s-0.052,0.259-0.146,0.354l-1,1
		C18.763,3.448,18.637,3.5,18.504,3.5z"/>
	<path d="M12.004,2.5c-0.276,0-0.5-0.224-0.5-0.5V0.5c0-0.276,0.224-0.5,0.5-0.5c0.276,0,0.5,0.224,0.5,0.5V2
		C12.504,2.276,12.28,2.5,12.004,2.5z"/>
</g>
</svg>
