<?xml version="1.0" encoding="utf-8"?>
<!-- Generator: Adobe Illustrator 22.1.0, SVG Export Plug-In . SVG Version: 6.00 Build 0)  -->
<svg version="1.1" id="Layer_1" xmlns="http://www.w3.org/2000/svg" xmlns:xlink="http://www.w3.org/1999/xlink" x="0px" y="0px"
	 viewBox="0 0 24 24" style="enable-background:new 0 0 24 24;" xml:space="preserve">
<g>
	<title>social-music-grooveshark</title>
	<path d="M12,24C5.383,24,0,18.617,0,12C0,5.383,5.383,0,12,0c6.617,0,12,5.383,12,12C24,18.617,18.617,24,12,24z M1.242,14.287
		C2.308,19.304,6.805,23,12,23c4.703,0,8.948-3.077,10.435-7.522c-3.913-0.283-6.146-3.468-8.122-6.287
		c-1.614-2.301-2.888-4.118-4.64-4.118c-0.326,0-0.658,0.062-1.009,0.188c1.169,2.796,0.885,5.502-0.792,7.456
		c-1.166,1.358-2.897,2.202-4.516,2.202c-0.408,0-0.798-0.055-1.159-0.163C1.84,14.647,1.521,14.49,1.242,14.287z M9.662,4.073
		c2.283,0,3.83,2.207,5.469,4.543c1.883,2.685,4.012,5.722,7.583,5.876C22.904,13.676,23,12.838,23,12c0-6.065-4.935-11-11-11
		C5.949,1,1.018,5.918,1,11.967c0.129,0.956,0.629,1.572,1.484,1.829c0.273,0.082,0.57,0.123,0.883,0.123
		c1.307,0,2.777-0.728,3.745-1.855C8,11.031,9.237,8.767,7.548,5.215C7.432,4.968,7.535,4.671,7.78,4.551
		C8.428,4.234,9.061,4.073,9.662,4.073z"/>
</g>
</svg>
