<?xml version="1.0" encoding="utf-8"?>
<!-- Generator: Adobe Illustrator 22.1.0, SVG Export Plug-In . SVG Version: 6.00 Build 0)  -->
<svg version="1.1" id="Layer_1" xmlns="http://www.w3.org/2000/svg" xmlns:xlink="http://www.w3.org/1999/xlink" x="0px" y="0px"
	 viewBox="0 0 24 24" style="enable-background:new 0 0 24 24;" xml:space="preserve">
<g>
	<title>social-music-beats-studio</title>
	<path d="M12,24C5.383,24,0,18.617,0,12C0.102,7.687,2.499,3.705,6.256,1.604C6.33,1.562,6.415,1.54,6.5,1.54
		c0.089,0,0.176,0.024,0.252,0.068C6.905,1.698,7,1.863,7,2.04V12c-0.002,0.071-0.003,0.123-0.004,0.175
		c-0.009,1.347,0.507,2.616,1.453,3.574c0.946,0.958,2.208,1.491,3.555,1.5c2.892,0,5.247-2.355,5.247-5.25
		c0-2.895-2.355-5.25-5.25-5.25l-0.055,0c-1.113,0-2.231,0.374-3.148,1.052C8.711,7.866,8.608,7.9,8.5,7.9
		c-0.078,0-0.156-0.019-0.225-0.054C8.105,7.761,8,7.59,8,7.4V1.029c0-0.22,0.141-0.412,0.352-0.478C9.532,0.186,10.758,0,11.994,0
		C18.617,0,24,5.383,24,12C24,18.617,18.617,24,12,24z M6,2.932c-3.01,2.013-4.914,5.451-5,9.08C1,18.068,5.935,23,12,23
		c6.065,0,11-4.935,11-11S18.065,1,12,1c-1.018,0-2.025,0.136-3,0.404v5.092c0.921-0.489,1.945-0.746,2.988-0.746
		c3.459,0,6.262,2.804,6.262,6.25s-2.804,6.25-6.25,6.25c-1.616-0.011-3.13-0.649-4.263-1.798c-1.133-1.148-1.752-2.669-1.741-4.283
		c0-0.062,0.002-0.125,0.004-0.188L6,2.932z"/>
	<path d="M12,15.95c-1.057,0-2.048-0.412-2.793-1.158C8.461,14.046,8.051,13.054,8.052,12c0.001-2.178,1.773-3.95,3.95-3.95
		c1.057,0.001,2.049,0.412,2.795,1.159c0.746,0.746,1.156,1.739,1.155,2.794c0,1.055-0.412,2.047-1.158,2.792
		c-0.746,0.745-1.737,1.155-2.791,1.155H12z M12.002,9.05c-0.787,0-1.528,0.306-2.085,0.863C9.36,10.47,9.052,11.21,9.052,11.998
		c0,0.789,0.306,1.53,0.862,2.087c0.556,0.557,1.297,0.864,2.084,0.865c0.791,0,1.531-0.306,2.088-0.863
		c0.558-0.557,0.865-1.297,0.865-2.085c0-0.788-0.306-1.529-0.863-2.086c-0.557-0.557-1.297-0.865-2.085-0.865L12.002,8.8V9.05z"/>
</g>
</svg>
