<?xml version="1.0" encoding="utf-8"?>
<!-- Generator: Adobe Illustrator 22.1.0, SVG Export Plug-In . SVG Version: 6.00 Build 0)  -->
<svg version="1.1" id="Layer_1" xmlns="http://www.w3.org/2000/svg" xmlns:xlink="http://www.w3.org/1999/xlink" x="0px" y="0px"
	 viewBox="0 0 24 24" style="enable-background:new 0 0 24 24;" xml:space="preserve">
<g>
	<title>social-music-lastfm</title>
	<path d="M19.796,18.994c-0.105,0-0.212-0.005-0.318-0.016c-3.951-0.014-4.981-3.18-5.89-5.974C12.584,9.917,11.635,7,7.404,7
		C5.666,7,4.012,7.837,2.982,9.237c-1.794,2.439-1.269,5.882,1.17,7.676c0.948,0.697,2.07,1.065,3.245,1.065
		c1.745,0,3.401-0.835,4.43-2.235c0.094-0.127,0.245-0.204,0.403-0.204c0.107,0,0.21,0.034,0.296,0.097
		c0.107,0.079,0.178,0.196,0.198,0.328c0.02,0.132-0.012,0.264-0.092,0.371c-1.217,1.655-3.174,2.642-5.236,2.642
		c-1.39,0-2.717-0.436-3.837-1.259c-2.883-2.121-3.503-6.191-1.383-9.073C3.395,6.989,5.349,6,7.404,6
		c4.958,0,6.115,3.557,7.135,6.695c0.922,2.835,1.719,5.283,4.965,5.283c0.018,0,0.036,0.001,0.054,0.003
		c0.077,0.008,0.155,0.012,0.232,0.012c1.151,0,2.111-0.861,2.232-2.003c0.016-0.156,0.017-0.314,0-0.469
		c-0.002-0.017-0.003-0.034-0.003-0.052c0-1.796-1.154-2.177-2.614-2.658c-1.516-0.5-3.402-1.122-3.402-3.79
		c0-0.978,0.417-1.783,1.206-2.328c0.64-0.442,1.505-0.686,2.434-0.686c1.636,0,3.376,0.808,3.376,2.305c0,0.276-0.224,0.5-0.5,0.5
		s-0.5-0.224-0.5-0.5c0-0.806-1.233-1.305-2.376-1.305c-0.728,0-1.391,0.181-1.866,0.509c-0.521,0.359-0.774,0.852-0.774,1.505
		c0,1.945,1.258,2.36,2.715,2.84c1.468,0.484,3.294,1.086,3.301,3.594c0.021,0.197,0.02,0.421-0.003,0.641
		C22.841,17.748,21.457,18.994,19.796,18.994L19.796,18.994z"/>
</g>
</svg>
