<?xml version="1.0" encoding="utf-8"?>
<!-- Generator: Adobe Illustrator 22.1.0, SVG Export Plug-In . SVG Version: 6.00 Build 0)  -->
<svg version="1.1" id="Layer_1" xmlns="http://www.w3.org/2000/svg" xmlns:xlink="http://www.w3.org/1999/xlink" x="0px" y="0px"
	 viewBox="0 0 24 24" style="enable-background:new 0 0 24 24;" xml:space="preserve">
<g>
	<title>social-music-rdio</title>
	<path d="M10.273,22.168C4.724,22.168,0.116,17.649,0,12.094C0.115,6.523,4.733,1.998,10.294,1.998c0.065,0,0.131,0.001,0.197,0.002
		c0.123-0.005,0.261-0.008,0.4-0.008c0.564,0,1.133,0.046,1.691,0.138C12.824,2.169,13,2.377,13,2.623v5.646
		c0,0.156-0.074,0.306-0.199,0.4c-0.087,0.065-0.193,0.1-0.301,0.1c-0.047,0-0.094-0.007-0.138-0.02
		c-0.44-0.128-0.892-0.192-1.345-0.192c-0.997,0-1.958,0.31-2.778,0.896c-2.323,1.667-1.98,3.319-1.964,3.388
		c0.008,0.03,0.013,0.065,0.014,0.099c0.005,0.108,0.156,2.685,3.378,2.685c0.069,0.002,0.127,0.004,0.186,0.004
		c2.036,0,3.738-1.388,4.148-3.378V3.564c0-0.174,0.088-0.332,0.236-0.424c0.08-0.049,0.171-0.076,0.265-0.076
		c0.076,0,0.153,0.018,0.221,0.052c0.987,0.486,1.816,0.932,2.548,1.325c2.15,1.155,3.446,1.852,5.547,1.852
		c0.082,0,0.166-0.001,0.25-0.003c0-0.001,0.028-0.003,0.061-0.003c0.124,0,0.309,0.03,0.488,0.175C23.871,6.668,24,7.021,24,7.511
		c-0.011,0.656-0.265,1.27-0.716,1.737c-0.618,0.81-1.434,1.441-2.37,1.835c0.035,0.332,0.054,0.667,0.054,1
		c-0.116,5.564-4.739,10.085-10.305,10.085c0,0-0.126-0.001-0.189-0.002C10.415,22.168,10.344,22.168,10.273,22.168L10.273,22.168z
		 M10.298,2.998c-5.024,0-9.195,4.081-9.298,9.096c0.104,4.999,4.26,9.074,9.263,9.074c0,0,0,0,0.001,0
		c0.07,0,0.141-0.001,0.211-0.002c0.074,0.001,0.138,0.002,0.2,0.002c5.02,0,9.189-4.08,9.294-9.095
		c-0.001-0.41-0.033-0.83-0.095-1.244c-0.036-0.239,0.104-0.469,0.333-0.547c0.919-0.314,1.714-0.889,2.299-1.664
		c0.014-0.018,0.029-0.036,0.045-0.052C22.834,8.283,22.993,7.904,23,7.503c0-0.098-0.008-0.166-0.017-0.211
		c-0.057,0.001-0.113,0.001-0.169,0.001c-2.35,0-3.808-0.783-6.016-1.969C16.265,5.037,15.672,4.718,15,4.374V12.3
		c0,0.032-0.003,0.065-0.01,0.097c-0.486,2.491-2.594,4.232-5.126,4.232c-0.073,0-0.146-0.001-0.219-0.004
		c-3.907,0-4.316-3.156-4.354-3.594C5.231,12.721,4.93,10.596,7.656,8.64c0.991-0.708,2.153-1.083,3.36-1.083
		c0.329,0,0.659,0.028,0.984,0.084V3.057c-0.368-0.044-0.742-0.066-1.113-0.066c-0.129,0-0.257,0.003-0.385,0.008
		C10.424,2.998,10.361,2.998,10.298,2.998z"/>
</g>
</svg>
