<?xml version="1.0" encoding="utf-8"?>
<!-- Generator: Adobe Illustrator 22.1.0, SVG Export Plug-In . SVG Version: 6.00 Build 0)  -->
<svg version="1.1" id="Light" xmlns="http://www.w3.org/2000/svg" xmlns:xlink="http://www.w3.org/1999/xlink" x="0px" y="0px"
	 viewBox="0 0 24 24" style="enable-background:new 0 0 24 24;" xml:space="preserve">
<g>
	<title>cake-cream</title>
	<path d="M6.317,23.999c-0.756,0-1.396-0.565-1.489-1.314L3.004,8.123C2.971,7.858,3.043,7.596,3.207,7.385
		C3.371,7.174,3.607,7.04,3.872,7.007c0.027-0.003,0.055-0.005,0.083-0.006L3.984,7L20,6.999c0.552,0,1,0.445,1.004,0.992
		c0,0.043-0.002,0.088-0.008,0.132l-1.824,14.562c-0.094,0.749-0.733,1.314-1.488,1.314H6.317z M17.684,22.999
		c0.251,0,0.465-0.188,0.496-0.438l1.824-14.562l-2.034,0l-0.938,15H17.684z M16.03,22.999l0.938-15h-2.483l-0.469,15H16.03z
		 M13.016,22.999l0.469-15h-2.969l0.469,15H13.016z M9.984,22.999l-0.469-15H7.032l0.938,15H9.984z M3.996,7.999L5.82,22.561
		c0.031,0.25,0.245,0.438,0.496,0.438h0.652l-0.938-15H3.998L3.996,7.999z"/>
	<path d="M20.5,5.999c-0.276,0-0.5-0.224-0.5-0.5c0-1.28-0.517-2.168-1.417-2.436c-0.175-0.052-0.358-0.078-0.544-0.078
		c-0.692,0-1.351,0.352-1.72,0.917C16.226,4.045,16.069,4.13,15.9,4.13c-0.03,0-0.059-0.003-0.089-0.008
		c-0.198-0.036-0.355-0.187-0.399-0.383c-0.202-0.913-0.748-1.692-1.537-2.194c-0.564-0.359-1.211-0.549-1.873-0.549
		c-0.255,0-0.513,0.028-0.766,0.084C9.915,1.373,8.871,2.417,8.578,3.738c-0.043,0.197-0.2,0.348-0.399,0.384
		C8.148,4.127,8.119,4.13,8.091,4.13c-0.171,0-0.328-0.085-0.42-0.228C7.304,3.337,6.649,2.986,5.959,2.986
		c-0.185,0-0.366,0.026-0.539,0.077C4.518,3.33,4,4.218,4,5.499c0,0.276-0.224,0.5-0.5,0.5S3,5.775,3,5.499
		c0-1.73,0.799-3,2.137-3.395c0.262-0.078,0.537-0.117,0.817-0.117c0.703,0,1.388,0.245,1.93,0.681
		c0.577-1.289,1.75-2.257,3.136-2.564c0.324-0.072,0.655-0.109,0.984-0.109c0.851,0,1.683,0.244,2.408,0.706
		c0.759,0.483,1.34,1.158,1.696,1.967c0.544-0.436,1.231-0.681,1.936-0.681c0.281,0,0.559,0.04,0.823,0.118
		C20.203,2.501,21,3.77,21,5.499C21,5.775,20.776,5.999,20.5,5.999z"/>
</g>
</svg>
