<?xml version="1.0" encoding="utf-8"?>
<!-- Generator: Adobe Illustrator 22.1.0, SVG Export Plug-In . SVG Version: 6.00 Build 0)  -->
<svg version="1.1" id="Light" xmlns="http://www.w3.org/2000/svg" xmlns:xlink="http://www.w3.org/1999/xlink" x="0px" y="0px"
	 viewBox="0 0 24 24" style="enable-background:new 0 0 24 24;" xml:space="preserve">
<g>
	<title>cake-sifter</title>
	<path d="M6.437,14.655C3.317,14.655,0,12.539,0,8.618V7.5C0,7.224,0.224,7,0.5,7h23C23.776,7,24,7.224,24,7.5S23.776,8,23.5,8h-11
		v0.618c0,1.89-0.656,3.466-1.897,4.556C9.517,14.129,8.037,14.655,6.437,14.655z M1,8.618c0,2.503,1.868,5.037,5.437,5.037
		c1.357,0,2.602-0.438,3.505-1.232c1.019-0.895,1.557-2.211,1.557-3.805V8H1V8.618z"/>
	<path d="M10.5,6C10.224,6,10,5.776,10,5.5C10,3.095,8.406,2,6.926,2C6.063,2.001,5.231,2.365,4.645,3
		C4.551,3.102,4.417,3.161,4.277,3.161c-0.032,0-0.064-0.003-0.096-0.009C4.067,3.129,3.95,3.117,3.833,3.117
		c-0.406,0-0.795,0.135-1.094,0.381C2.255,3.895,2,4.587,2,5.5C2,5.776,1.776,6,1.5,6S1,5.776,1,5.5
		c0-1.544,0.601-2.361,1.104-2.774c0.478-0.392,1.092-0.608,1.73-0.608c0.088,0,0.177,0.004,0.265,0.013
		C4.857,1.411,5.88,1.001,6.926,1C8.888,1,11,2.408,11,5.5C11,5.776,10.776,6,10.5,6z"/>
	<path d="M2.5,18C2.224,18,2,17.776,2,17.5v-2C2,15.224,2.224,15,2.5,15S3,15.224,3,15.5v2C3,17.776,2.776,18,2.5,18z"/>
	<path d="M2.5,22C2.224,22,2,21.776,2,21.5v-2C2,19.224,2.224,19,2.5,19S3,19.224,3,19.5v2C3,21.776,2.776,22,2.5,22z"/>
	<path d="M10.5,18c-0.276,0-0.5-0.224-0.5-0.5v-2c0-0.276,0.224-0.5,0.5-0.5s0.5,0.224,0.5,0.5v2C11,17.776,10.776,18,10.5,18z"/>
	<path d="M10.5,22c-0.276,0-0.5-0.224-0.5-0.5v-2c0-0.276,0.224-0.5,0.5-0.5s0.5,0.224,0.5,0.5v2C11,21.776,10.776,22,10.5,22z"/>
	<path d="M6.5,19C6.224,19,6,18.776,6,18.5v-2C6,16.224,6.224,16,6.5,16S7,16.224,7,16.5v2C7,18.776,6.776,19,6.5,19z"/>
	<path d="M6.5,23C6.224,23,6,22.776,6,22.5v-2C6,20.224,6.224,20,6.5,20S7,20.224,7,20.5v2C7,22.776,6.776,23,6.5,23z"/>
</g>
</svg>
