<?xml version="1.0" encoding="utf-8"?>
<!-- Generator: Adobe Illustrator 22.1.0, SVG Export Plug-In . SVG Version: 6.00 Build 0)  -->
<svg version="1.1" id="Light" xmlns="http://www.w3.org/2000/svg" xmlns:xlink="http://www.w3.org/1999/xlink" x="0px" y="0px"
	 viewBox="0 0 24 24" style="enable-background:new 0 0 24 24;" xml:space="preserve">
<g>
	<title>cake-flour</title>
	<path d="M5.5,24C4.121,24,3,22.878,3,21.5c0-1.374,0.787-10.877,0.977-13.148C3.049,7.693,2.5,6.638,2.5,5.5
		c0.025-0.571,0.135-1.128,0.327-1.666C2.33,3.582,2,3.066,2,2.5v-1C2,0.673,2.673,0,3.5,0h17C21.327,0,22,0.673,22,1.5v1
		c0,0.566-0.33,1.082-0.827,1.334c0.192,0.537,0.302,1.089,0.327,1.644c0,1.154-0.549,2.214-1.477,2.874
		C20.213,10.622,21,20.124,21,21.5c0,1.378-1.122,2.5-2.5,2.5H5.5z M4.94,8.835C4.731,11.355,4,20.248,4,21.5
		C4,22.327,4.673,23,5.5,23h13c0.827,0,1.5-0.673,1.5-1.5c0-1.248-0.731-10.144-0.94-12.665C18.718,8.945,18.363,9,18,9
		c-1.243,0-2.373-0.652-3-1.697C14.373,8.348,13.243,9,12,9c-1.243,0-2.373-0.652-3-1.697C8.373,8.348,7.243,9,6,9
		C5.637,9,5.282,8.945,4.94,8.835z M15,5c0.276,0,0.5,0.224,0.5,0.5C15.5,6.879,16.622,8,18,8s2.5-1.121,2.5-2.5
		c-0.023-0.502-0.135-1.008-0.332-1.5H3.832C3.634,4.493,3.522,5.004,3.5,5.522C3.5,6.883,4.622,8,6,8c1.379,0,2.5-1.121,2.5-2.5
		C8.5,5.224,8.724,5,9,5s0.5,0.224,0.5,0.5C9.5,6.879,10.621,8,12,8c1.378,0,2.5-1.121,2.5-2.5C14.5,5.224,14.724,5,15,5z M3.5,1
		C3.224,1,3,1.224,3,1.5v1C3,2.776,3.224,3,3.5,3h17C20.776,3,21,2.776,21,2.5v-1C21,1.224,20.776,1,20.5,1H3.5z"/>
	<path d="M8,19c-0.551,0-1-0.448-1-1v-4c0-0.552,0.449-1,1-1h8c0.552,0,1,0.448,1,1v4c0,0.552-0.448,1-1,1H8z M8,18h8v-4H8L8,18z"/>
</g>
</svg>
