<?xml version="1.0" encoding="utf-8"?>
<!-- Generator: Adobe Illustrator 22.1.0, SVG Export Plug-In . SVG Version: 6.00 Build 0)  -->
<svg version="1.1" id="Light" xmlns="http://www.w3.org/2000/svg" xmlns:xlink="http://www.w3.org/1999/xlink" x="0px" y="0px"
	 viewBox="0 0 24 24" style="enable-background:new 0 0 24 24;" xml:space="preserve">
<g>
	<title>candy-jar-2</title>
	<path d="M8.461,24C7.436,24,6,23.035,4.622,21.417c-0.952-1.116-3.996-5.142-3.207-10.072c0.039-0.244,0.246-0.421,0.493-0.421
		c0.027,0,0.054,0.002,0.081,0.007c0.271,0.043,0.458,0.3,0.414,0.573c-0.722,4.506,2.099,8.23,2.98,9.265
		C6.69,22.302,7.895,23,8.461,23h7.078c0.568,0,1.775-0.7,3.083-2.236c0.881-1.034,3.699-4.757,2.975-9.26
		c-0.044-0.272,0.142-0.529,0.414-0.573c0.026-0.004,0.053-0.006,0.08-0.006c0.246,0,0.454,0.177,0.493,0.421
		c0.792,4.925-2.25,8.95-3.201,10.067C18.003,23.033,16.566,24,15.539,24H8.461z"/>
	<path d="M12,10.7c-1.307,0-2.146-0.653-2.888-1.228C8.389,8.909,7.779,8.436,6.788,8.436l-0.054,0
		C6.198,8.444,5.819,8.615,5.13,8.925C4.515,9.202,3.674,9.581,2.343,10c-0.098,0.031-0.199,0.046-0.301,0.046l0,0
		c-0.16,0-0.319-0.039-0.462-0.114C1.344,9.809,1.169,9.6,1.089,9.345C0.983,9.008,1.065,8.636,1.302,8.374L5,4.307V1.5
		C5,0.673,5.673,0,6.5,0h11C18.327,0,19,0.673,19,1.5v2.807l3.697,4.067c0.179,0.198,0.271,0.454,0.258,0.721
		c-0.013,0.267-0.129,0.513-0.327,0.692c-0.184,0.167-0.423,0.259-0.673,0.259c-0.101,0-0.202-0.015-0.298-0.045
		c-1.335-0.419-2.177-0.799-2.792-1.076c-0.687-0.31-1.065-0.48-1.597-0.488l-0.042,0c-1.004,0-1.622,0.48-2.337,1.036
		C14.147,10.047,13.307,10.7,12,10.7z M6.769,7.436c1.354,0,2.167,0.632,2.954,1.244C10.429,9.228,11.036,9.7,12,9.7
		c0.964,0,1.571-0.472,2.274-1.018c0.792-0.615,1.604-1.246,2.962-1.246l0.045,0c0.741,0.011,1.267,0.248,1.994,0.576
		c0.592,0.267,1.402,0.633,2.681,1.034L18.279,5H5.721L2.043,9.046C3.319,8.644,4.128,8.28,4.719,8.013
		c0.73-0.329,1.258-0.567,1.999-0.577L6.769,7.436z M18,4V1.5C18,1.224,17.776,1,17.5,1h-11C6.224,1,6,1.224,6,1.5V4H18z"/>
	<path d="M7.783,17.675c-1.121,0-2.033-0.912-2.033-2.033s0.912-2.033,2.033-2.033c1.121,0,2.033,0.912,2.033,2.033
		S8.904,17.675,7.783,17.675z M7.783,14.609c-0.57,0-1.033,0.463-1.033,1.033c0,0.57,0.463,1.033,1.033,1.033
		c0.57,0,1.033-0.463,1.033-1.033C8.816,15.072,8.353,14.609,7.783,14.609z"/>
	<path d="M12.011,21.125c-1.121,0-2.033-0.912-2.033-2.033s0.912-2.033,2.033-2.033c1.121,0,2.033,0.912,2.033,2.033
		S13.132,21.125,12.011,21.125z M12.011,18.059c-0.57,0-1.033,0.463-1.033,1.033s0.463,1.033,1.033,1.033s1.033-0.463,1.033-1.033
		S12.581,18.059,12.011,18.059z"/>
	<path d="M13.917,16.141c-1.121,0-2.033-0.912-2.033-2.033s0.912-2.033,2.033-2.033s2.033,0.912,2.033,2.033
		S15.038,16.141,13.917,16.141z M13.917,13.075c-0.57,0-1.033,0.463-1.033,1.033c0,0.57,0.463,1.033,1.033,1.033
		s1.033-0.463,1.033-1.033C14.95,13.538,14.487,13.075,13.917,13.075z"/>
</g>
</svg>
