<?xml version="1.0" encoding="utf-8"?>
<!-- Generator: Adobe Illustrator 22.1.0, SVG Export Plug-In . SVG Version: 6.00 Build 0)  -->
<svg version="1.1" id="Light" xmlns="http://www.w3.org/2000/svg" xmlns:xlink="http://www.w3.org/1999/xlink" x="0px" y="0px"
	 viewBox="0 0 24 24" style="enable-background:new 0 0 24 24;" xml:space="preserve">
<g>
	<title>candy-jar</title>
	<path d="M7.5,24C5.028,24,0.009,16.576,0,10.501c-0.058-2.453,1.257-4.775,3.377-6.008C3.136,4.221,3,3.87,3,3.5v-2
		C3,0.673,3.673,0,4.5,0h15C20.327,0,21,0.673,21,1.5v2c0,0.37-0.136,0.721-0.377,0.992c2.12,1.234,3.435,3.558,3.377,6.019
		C23.994,16.579,18.974,24,16.5,24H7.5z M4.6,5C2.389,5.9,0.943,8.099,1,10.488C1.009,16.642,6.13,23,7.5,23h9
		c1.371,0,6.494-6.355,6.5-12.5C23.057,8.102,21.612,5.9,19.4,5H4.6z M4.5,1C4.224,1,4,1.224,4,1.5v2C4,3.776,4.224,4,4.5,4h14.993
		C19.776,4,20,3.776,20,3.5v-2C20,1.224,19.776,1,19.5,1H4.5z"/>
	<path d="M10.783,19.5c-0.349,0-0.678-0.186-0.858-0.486L8.717,17H6.28c-0.349,0-0.678-0.186-0.858-0.486l-1.2-2
		c-0.19-0.317-0.19-0.711,0-1.029l1.2-2C5.602,11.186,5.931,11,6.28,11h2.437l1.208-2.014c0.178-0.298,0.505-0.484,0.852-0.486
		h2.437c0.35,0,0.678,0.186,0.858,0.486L15.283,11h2.431c0.35,0,0.678,0.186,0.858,0.486l1.2,1.999c0.19,0.317,0.19,0.711,0,1.028
		l-1.2,2c-0.18,0.3-0.508,0.486-0.858,0.486h-2.431l-1.208,2.014c-0.18,0.3-0.508,0.486-0.858,0.486H10.783z M10.783,18.5l2.434,0
		l1.2-2l-1.2-2h-2.434l-1.2,2L10.783,18.5z M17.714,16l1.2-2L17.714,12l-2.431,0l-1.2,2l1.2,2H17.714z M5.08,14l1.2,2l2.437,0l1.2-2
		l-1.2-2H6.281h0L5.08,14z M13.217,13.5l1.2-2l-1.202-2L10.784,9.5l-1.2,2l1.2,2H13.217z"/>
</g>
</svg>
