<?xml version="1.0" encoding="utf-8"?>
<!-- Generator: Adobe Illustrator 22.1.0, SVG Export Plug-In . SVG Version: 6.00 Build 0)  -->
<svg version="1.1" id="Light" xmlns="http://www.w3.org/2000/svg" xmlns:xlink="http://www.w3.org/1999/xlink" x="0px" y="0px"
	 viewBox="0 0 24 24" style="enable-background:new 0 0 24 24;" xml:space="preserve">
<g>
	<title>chocolate-bar</title>
	<path d="M6.5,24C5.121,24,4,22.878,4,21.5V13c0-0.552,0.449-1,1-1V1.5C5,0.673,5.673,0,6.5,0h11c0.383,0,0.748,0.146,1.029,0.412
		c0.013,0.01,0.026,0.022,0.036,0.033c0.001,0.001,0.002,0.002,0.003,0.003C18.846,0.73,19,1.103,19,1.5V12
		c0.538,0,0.986,0.438,0.998,0.977L20,21.5c0,1.378-1.122,2.5-2.5,2.5H6.5z M5,21.5C5,22.327,5.673,23,6.5,23h11
		c0.827,0,1.5-0.673,1.5-1.5v-5.749l-0.051,0.135c-0.51,1.357-1.828,2.269-3.28,2.269c-0.42,0-0.833-0.075-1.228-0.224
		c-0.17-0.064-0.336-0.142-0.495-0.232l-4.517-2.56c-0.24-0.136-0.324-0.442-0.188-0.681c0.089-0.156,0.255-0.254,0.435-0.254
		c0.086,0,0.171,0.022,0.246,0.065l4.517,2.56c0.113,0.064,0.231,0.12,0.354,0.166c0.282,0.106,0.578,0.16,0.877,0.16
		c1.036,0,1.978-0.651,2.342-1.621l0.953-2.534L5,13L5,21.5z M18,12V7.642L13.279,12H18z M11.5,12V7.642L6.779,12H11.5z
		 M12.5,11.358L17.221,7H12.5V11.358z M6,11.358L10.721,7H6V11.358z M18,6V1.642L13.279,6H18z M11.5,6V1.642L6.779,6H11.5z M6.5,1
		C6.224,1,6,1.224,6,1.5v3.858L10.721,1H6.5z M12.5,5.358L17.221,1H12.5V5.358z"/>
</g>
</svg>
