<?xml version="1.0" encoding="utf-8"?>
<!-- Generator: Adobe Illustrator 22.1.0, SVG Export Plug-In . SVG Version: 6.00 Build 0)  -->
<svg version="1.1" id="Light" xmlns="http://www.w3.org/2000/svg" xmlns:xlink="http://www.w3.org/1999/xlink" x="0px" y="0px"
	 viewBox="0 0 24 24" style="enable-background:new 0 0 24 24;" xml:space="preserve">
<g>
	<title>donut</title>
	<path d="M12,24C5.383,24,0,18.617,0,12c0-0.112,0.004-0.223,0.008-0.334c0,0,0.003-0.085,0.003-0.09C0.238,5.085,5.504,0,12,0
		c6.496,0,11.762,5.085,11.989,11.577c0,0.004,0.003,0.089,0.003,0.089C23.996,11.777,24,11.888,24,12C24,18.617,18.617,24,12,24z
		 M1.06,13.131C1.625,18.72,6.301,23,12,23c5.699,0,10.375-4.28,10.94-9.869c-0.886,0.842-2.035,1.325-3.266,1.367
		c-0.059,0.002-0.118,0.003-0.177,0.003c-1.005,0-1.96-0.292-2.783-0.849C16.017,15.64,14.127,17,12,17
		c-2.127,0-4.017-1.36-4.714-3.348c-0.823,0.557-1.778,0.849-2.783,0.849c-0.059,0-0.118-0.001-0.177-0.003
		C3.094,14.456,1.946,13.973,1.06,13.131z M12,8c-2.206,0-4,1.794-4,4s1.794,4,4,4s4-1.794,4-4S14.206,8,12,8z M1.015,11.463
		c0.158,0.28,0.346,0.538,0.559,0.767c0.729,0.781,1.719,1.232,2.786,1.269c0.046,0.001,0.092,0.002,0.138,0.002
		c0.927,0,1.824-0.324,2.541-0.916C7.013,12.371,7,12.183,7,12c0-2.757,2.243-5,5-5c2.757,0,5,2.243,5,5
		c0,0.183-0.013,0.371-0.039,0.585c0.715,0.589,1.613,0.912,2.544,0.912c1.105,0,2.169-0.462,2.92-1.267
		c0.214-0.229,0.402-0.487,0.559-0.767C22.702,5.59,17.89,1,12,1C6.11,1,1.298,5.59,1.015,11.463z"/>
	<path d="M8.5,6.5C7.673,6.5,7,5.827,7,5s0.673-1.5,1.5-1.5S10,4.173,10,5S9.327,6.5,8.5,6.5z M8.5,4.5C8.224,4.5,8,4.724,8,5
		s0.224,0.5,0.5,0.5S9,5.276,9,5S8.776,4.5,8.5,4.5z"/>
	<path d="M15.5,6.5c-1.103,0-2-0.897-2-2s0.897-2,2-2s2,0.897,2,2S16.603,6.5,15.5,6.5z M15.5,3.5c-0.552,0-1,0.449-1,1s0.448,1,1,1
		s1-0.449,1-1S16.052,3.5,15.5,3.5z"/>
	<circle cx="4.5" cy="8.5" r="0.75"/>
	<circle cx="20.5" cy="10.5" r="0.75"/>
</g>
</svg>
