<?xml version="1.0" encoding="utf-8"?>
<!-- Generator: Adobe Illustrator 22.1.0, SVG Export Plug-In . SVG Version: 6.00 Build 0)  -->
<svg version="1.1" id="Light" xmlns="http://www.w3.org/2000/svg" xmlns:xlink="http://www.w3.org/1999/xlink" x="0px" y="0px"
	 viewBox="0 0 24 24" style="enable-background:new 0 0 24 24;" xml:space="preserve">
<g>
	<title>gingerbread-man</title>
	<path d="M12,12.333c-0.414,0-0.75-0.336-0.75-0.75s0.336-0.75,0.75-0.75s0.75,0.336,0.75,0.75S12.414,12.333,12,12.333z"/>
	<circle cx="12" cy="14.583" r="0.75"/>
	<circle cx="10" cy="4.583" r="0.75"/>
	<circle cx="14" cy="4.583" r="0.75"/>
	<path d="M15.598,23.998c-1.244,0-2.338-0.883-2.601-2.099l-0.568-2.618c-0.081-0.556-0.323-1.029-0.429-1.029
		c-0.106,0-0.348,0.464-0.423,0.993L11.003,21.9c-0.263,1.216-1.356,2.098-2.6,2.098c-0.187,0-0.375-0.02-0.558-0.06
		c-0.696-0.153-1.29-0.564-1.673-1.158c-0.383-0.594-0.51-1.3-0.359-1.988l0.302-1.382c0.002-0.012,0.004-0.024,0.007-0.036
		c0.001-0.004,0.003-0.009,0.004-0.013L7.297,14H2.656c-0.032,0.004-0.092,0.006-0.154,0.006c-0.063,0-0.13-0.003-0.195-0.008
		c-0.667-0.052-1.274-0.36-1.709-0.869c-0.435-0.509-0.647-1.156-0.595-1.823c0.052-0.667,0.36-1.275,0.869-1.71
		c0.454-0.388,1.032-0.602,1.628-0.602c0.065,0,0.13,0.002,0.195,0.007L7.468,9C6.785,7.958,6.444,6.725,6.5,5.477
		c0-1.451,0.572-2.828,1.612-3.866C9.153,0.572,10.534,0,12,0c3.033,0,5.5,2.467,5.5,5.5c0.056,1.231-0.285,2.459-0.967,3.5h4.802
		c0.042-0.004,0.104-0.006,0.165-0.006c0.065,0,0.13,0.003,0.194,0.008c0.667,0.052,1.274,0.36,1.709,0.869
		c0.436,0.508,0.647,1.156,0.595,1.823c-0.052,0.667-0.36,1.275-0.869,1.71c-0.454,0.389-1.031,0.603-1.623,0.603l0,0
		c-0.066,0-0.133-0.002-0.2-0.008L16.703,14l1.485,6.793c0.147,0.699,0.016,1.41-0.369,2.003c-0.384,0.593-0.976,0.999-1.666,1.143
		C15.972,23.978,15.785,23.998,15.598,23.998z M13.975,21.688c0.164,0.76,0.847,1.311,1.624,1.311c0.116,0,0.233-0.012,0.348-0.037
		c0.885-0.186,1.454-1.056,1.269-1.941l-0.197-0.899l-3.207,0.813L13.975,21.688z M6.789,21.007
		c-0.193,0.882,0.367,1.757,1.249,1.951c0.117,0.025,0.238,0.038,0.357,0.038c0.781,0,1.466-0.55,1.63-1.308l0.164-0.755
		l-3.206-0.817L6.789,21.007z M12,17.253c1.121,0,1.386,1.664,1.413,1.853l0.185,0.85l3.206-0.813l-1.21-5.537
		c-0.033-0.148,0.003-0.302,0.099-0.42C15.788,13.068,15.93,13,16.082,13H20v-3h-4.5c-0.2,0-0.381-0.119-0.46-0.303
		C14.961,9.512,15,9.299,15.139,9.154c0.926-0.969,1.422-2.293,1.362-3.632C16.5,3.024,14.481,1,12,1C9.519,1,7.5,3.019,7.5,5.5
		C7.439,6.858,7.935,8.186,8.862,9.155C9,9.3,9.038,9.512,8.96,9.696C8.881,9.881,8.701,10,8.5,10H4v3l3.918,0
		c0.152,0,0.295,0.068,0.39,0.187c0.095,0.118,0.131,0.271,0.099,0.42l-1.21,5.533l3.204,0.816l0.192-0.886
		C10.615,18.902,10.872,17.253,12,17.253z M2.508,9.994c-0.369,0-0.71,0.125-0.986,0.362C1.216,10.618,1.031,10.983,1,11.384
		c-0.031,0.401,0.096,0.79,0.357,1.096c0.261,0.306,0.626,0.491,1.028,0.522c0.038,0.003,0.077,0.004,0.116,0.004
		c0.039,0,0.078-0.001,0.117-0.004l0.382,0V10H2.656C2.593,9.996,2.551,9.994,2.508,9.994z M21.344,13
		c0.06,0.004,0.101,0.005,0.143,0.005c0.373,0,0.716-0.125,0.992-0.361c0.306-0.261,0.491-0.626,0.522-1.028
		c0.031-0.401-0.096-0.79-0.357-1.096c-0.262-0.306-0.627-0.491-1.028-0.522c-0.039-0.003-0.078-0.005-0.116-0.005
		s-0.077,0.002-0.116,0.005c-0.006,0-0.032,0.001-0.039,0.001H21v3H21.344z"/>
</g>
</svg>
