<?xml version="1.0" encoding="utf-8"?>
<!-- Generator: Adobe Illustrator 22.1.0, SVG Export Plug-In . SVG Version: 6.00 Build 0)  -->
<svg version="1.1" id="Light" xmlns="http://www.w3.org/2000/svg" xmlns:xlink="http://www.w3.org/1999/xlink" x="0px" y="0px"
	 viewBox="0 0 24 24" style="enable-background:new 0 0 24 24;" xml:space="preserve">
<g>
	<title>honey</title>
	<path d="M8.001,10.346c-0.187,0-0.358-0.103-0.444-0.269l-1.386-2.67c-0.39-0.722-0.117-1.633,0.611-2.026
		C6.957,5.287,7.145,5.23,7.343,5.212C7.207,4.568,7.508,3.885,8.118,3.568C8.332,3.456,8.571,3.397,8.81,3.397
		c0.153,0,0.305,0.024,0.453,0.07c0.253,0.08,0.476,0.222,0.651,0.412c0.122-0.143,0.269-0.26,0.436-0.348
		c0.214-0.111,0.453-0.17,0.692-0.17c0.562,0,1.072,0.308,1.331,0.805l0.702,1.344l7.937-3.813C20.985,1.48,21.003,1.26,21.069,1.05
		c0.119-0.38,0.377-0.691,0.729-0.877c0.222-0.117,0.462-0.176,0.701-0.176c0.153,0,0.304,0.023,0.451,0.07
		c0.382,0.12,0.695,0.381,0.88,0.737c0.185,0.355,0.221,0.761,0.102,1.143c-0.12,0.383-0.382,0.695-0.737,0.881
		c-0.213,0.111-0.452,0.17-0.692,0.17c-0.388,0-0.754-0.148-1.031-0.412l-7.93,3.81l0.687,1.314
		c0.186,0.355,0.222,0.761,0.102,1.144c-0.12,0.383-0.382,0.696-0.736,0.881c-0.214,0.112-0.454,0.171-0.693,0.171
		c-0.152,0-0.303-0.023-0.45-0.069c-0.383-0.12-0.695-0.382-0.881-0.737L9.717,5.555c-0.006-0.011-0.017-0.039-0.021-0.05
		L9.258,4.669c-0.062-0.12-0.167-0.208-0.295-0.248C8.913,4.405,8.862,4.398,8.811,4.398c-0.081,0-0.159,0.019-0.231,0.057
		C8.334,4.582,8.238,4.886,8.366,5.132l0.436,0.836c0.004,0.007,0.009,0.014,0.012,0.019l1.63,3.127
		c0.031,0.059,0.05,0.124,0.055,0.19c0.016,0.201-0.089,0.391-0.267,0.484c-0.052,0.027-0.108,0.044-0.172,0.051
		c-0.002,0-0.007,0.001-0.013,0.001c-0.016,0.003-0.031,0.004-0.046,0.004c-0.047,0-0.095-0.007-0.143-0.022
		C9.845,9.821,9.825,9.813,9.814,9.807c-0.03-0.01-0.072-0.033-0.11-0.062c-0.006-0.005-0.03-0.024-0.036-0.029
		C9.62,9.674,9.584,9.629,9.557,9.577L7.935,6.469C7.843,6.304,7.675,6.202,7.489,6.202c-0.081,0-0.159,0.02-0.232,0.059
		C7.014,6.392,6.924,6.696,7.055,6.939l1.39,2.677c0.127,0.245,0.031,0.547-0.213,0.674C8.16,10.327,8.08,10.346,8.001,10.346z
		 M12.474,8.67c0.056,0.094,0.155,0.175,0.274,0.212c0.049,0.016,0.1,0.023,0.151,0.023c0.08,0,0.158-0.019,0.23-0.057
		c0.118-0.062,0.206-0.166,0.246-0.294s0.028-0.263-0.034-0.381l-1.853-3.544c-0.087-0.165-0.257-0.268-0.444-0.268
		c-0.081,0-0.158,0.019-0.23,0.057c-0.235,0.123-0.331,0.409-0.219,0.652l1.865,3.567C12.465,8.646,12.47,8.658,12.474,8.67z
		 M22.5,0.998c-0.079,0-0.156,0.019-0.227,0.055c-0.122,0.064-0.209,0.168-0.249,0.296c-0.04,0.127-0.028,0.263,0.034,0.381
		c0.086,0.165,0.257,0.268,0.444,0.268c0.081,0,0.158-0.019,0.23-0.057c0.118-0.062,0.205-0.166,0.245-0.294
		c0.04-0.127,0.028-0.263-0.034-0.381c-0.062-0.119-0.166-0.206-0.293-0.246C22.601,1.006,22.551,0.998,22.5,0.998z"/>
	<path d="M7.501,23.999c-2.858,0-5.216-2.177-5.471-5H1.501c-0.827,0-1.5-0.673-1.5-1.5v-1c0-0.827,0.673-1.5,1.5-1.5h14
		c0.827,0,1.5,0.673,1.5,1.5v1c0,0.827-0.673,1.5-1.5,1.5h-0.529c-0.254,2.823-2.613,5-5.471,5H7.501z M3.034,18.999
		c0.25,2.263,2.164,4,4.466,4h2c2.303,0,4.216-1.737,4.466-4H3.034z M1.501,15.999c-0.276,0-0.5,0.224-0.5,0.5v1
		c0,0.276,0.224,0.5,0.5,0.5h14c0.276,0,0.5-0.224,0.5-0.5v-1c0-0.276-0.224-0.5-0.5-0.5H1.501z"/>
	<path d="M8.501,13.999c-1.379,0-2.5-1.121-2.5-2.5v-0.5c0-0.276,0.224-0.5,0.5-0.5s0.5,0.224,0.5,0.5v0.5
		c0,0.827,0.673,1.5,1.5,1.5s1.5-0.673,1.5-1.5c0-0.276,0.224-0.5,0.5-0.5s0.5,0.224,0.5,0.5c0,0.389,0.33,0.846,0.5,0.846
		c0.276,0,0.5-0.224,0.5-0.5v-0.846c0-0.276,0.224-0.5,0.5-0.5c0.276,0,0.5,0.224,0.5,0.5v0.846c0,0.827-0.673,1.5-1.5,1.5
		c-0.339,0-0.666-0.157-0.932-0.442C10.107,13.579,9.332,13.999,8.501,13.999z"/>
</g>
</svg>
