<?xml version="1.0" encoding="utf-8"?>
<!-- Generator: Adobe Illustrator 22.1.0, SVG Export Plug-In . SVG Version: 6.00 Build 0)  -->
<svg version="1.1" id="Layer_1" xmlns="http://www.w3.org/2000/svg" xmlns:xlink="http://www.w3.org/1999/xlink" x="0px" y="0px"
	 viewBox="0 0 24 24" style="enable-background:new 0 0 24 24;" xml:space="preserve">
<g>
	<title>park-fountain</title>
	<path d="M8.085,24c-0.267,0-0.518-0.104-0.707-0.294c-0.189-0.189-0.293-0.44-0.293-0.707c0-0.114,0.019-0.227,0.058-0.334
		C7.495,21.669,8.442,21,9.5,21H10v-2.158c-2.225-0.402-2.939-1.53-3.63-2.622c-0.101-0.16-0.191-0.302-0.286-0.443
		c-0.451-0.592-1.073-1.056-1.79-1.332c-0.29-0.126-0.47-0.397-0.471-0.695c0-0.413,0.336-0.75,0.749-0.751H11.5V8.5
		C11.5,7.673,10.827,7,10,7S8.5,7.673,8.5,8.5C8.5,8.776,8.276,9,8,9S7.5,8.776,7.5,8.5C7.5,7.121,8.622,6,10,6
		c0.548,0,1.071,0.18,1.5,0.505V4c0-1.654-1.346-3-3-3s-3,1.346-3,3c0,0.276-0.224,0.5-0.5,0.5S4.5,4.276,4.5,4c0-2.206,1.794-4,4-4
		c1.456,0,2.802,0.811,3.5,2.066C12.698,0.811,14.044,0,15.5,0c2.206,0,4,1.794,4,4c0,0.276-0.224,0.5-0.5,0.5S18.5,4.276,18.5,4
		c0-1.654-1.346-3-3-3c-1.654,0-3,1.346-3,3v2.505C12.929,6.18,13.452,6,14,6c1.378,0,2.5,1.121,2.5,2.5C16.5,8.776,16.276,9,16,9
		s-0.5-0.224-0.5-0.5C15.5,7.673,14.827,7,14,7c-0.827,0-1.5,0.673-1.5,1.5V13h6.926c0.298,0,0.567,0.176,0.687,0.449
		c0.08,0.183,0.084,0.387,0.011,0.573c-0.073,0.187-0.214,0.334-0.397,0.414c-0.735,0.283-1.364,0.753-1.829,1.366
		c-0.08,0.123-0.174,0.271-0.267,0.417c-0.691,1.092-1.405,2.22-3.631,2.622V21h0.5c1.058,0,2.005,0.67,2.357,1.667
		c0.089,0.251,0.075,0.523-0.04,0.764c-0.115,0.241-0.317,0.423-0.569,0.512C16.142,23.98,16.029,24,15.915,24H8.085z M9.5,22
		c-0.634,0-1.203,0.402-1.414,1l7.829,0c-0.212-0.598-0.78-1-1.415-1H9.5z M13,21v-2.034C12.685,18.989,12.35,19,12,19
		s-0.685-0.011-1-0.034V21H13z M5.611,14c0.491,0.319,0.927,0.724,1.288,1.198c0.117,0.174,0.213,0.324,0.306,0.472
		C8.033,16.979,8.68,18,12,18c3.321,0,3.967-1.021,4.786-2.314c0.097-0.153,0.195-0.308,0.298-0.463
		c0.371-0.489,0.815-0.902,1.315-1.227l-6.367,0.002C12.021,13.999,12.01,14,12,14c-0.01,0-0.021-0.001-0.032-0.002L5.611,14z"/>
	<path d="M5,7.5C4.724,7.5,4.5,7.276,4.5,7V6c0-0.276,0.224-0.5,0.5-0.5S5.5,5.724,5.5,6v1C5.5,7.276,5.276,7.5,5,7.5z"/>
	<path d="M19,7.5c-0.276,0-0.5-0.224-0.5-0.5V6c0-0.276,0.224-0.5,0.5-0.5s0.5,0.224,0.5,0.5v1C19.5,7.276,19.276,7.5,19,7.5z"/>
</g>
</svg>
