<?xml version="1.0" encoding="utf-8"?>
<!-- Generator: Adobe Illustrator 22.1.0, SVG Export Plug-In . SVG Version: 6.00 Build 0)  -->
<svg version="1.1" id="Light" xmlns="http://www.w3.org/2000/svg" xmlns:xlink="http://www.w3.org/1999/xlink" x="0px" y="0px"
	 viewBox="0 0 24 24" style="enable-background:new 0 0 24 24;" xml:space="preserve">
<g>
	<title>humidity-high</title>
	<path d="M9.989,20.009c-1.556,0-3.06-0.358-4.469-1.064c-2.388-1.197-4.168-3.251-5.01-5.786c-0.843-2.534-0.648-5.245,0.548-7.634
		c1.196-2.388,3.251-4.168,5.786-5.01c1.021-0.34,2.081-0.512,3.149-0.512c4.318,0,8.134,2.751,9.496,6.845
		c0.057,0.173,0.11,0.347,0.158,0.522c0.035,0.129,0.018,0.264-0.048,0.38s-0.174,0.199-0.302,0.234
		c-0.042,0.012-0.087,0.018-0.132,0.018c-0.225,0-0.423-0.151-0.482-0.368c-0.043-0.158-0.091-0.316-0.142-0.471
		c-1.225-3.685-4.66-6.16-8.548-6.16c-0.961,0-1.913,0.155-2.832,0.46c-2.281,0.759-4.13,2.36-5.207,4.51
		C0.875,8.123,0.7,10.563,1.458,12.844c0.759,2.281,2.36,4.13,4.51,5.207c1.269,0.635,2.622,0.958,4.022,0.958
		c0.964,0,1.922-0.156,2.849-0.465c0.052-0.017,0.104-0.025,0.157-0.025c0.216,0,0.407,0.137,0.475,0.342
		c0.087,0.262-0.055,0.545-0.316,0.632C12.125,19.835,11.06,20.009,9.989,20.009z"/>
	<path d="M19.497,24.003c-2.481,0-4.5-2.019-4.5-4.5c0-0.005,0-0.022,0.001-0.027c0.178-3.522,1.65-6.835,4.146-9.327
		c0.095-0.094,0.22-0.146,0.354-0.146c0.134,0,0.259,0.052,0.354,0.146c1.994,1.994,4.146,6.137,4.146,9.354
		C23.997,21.984,21.978,24.003,19.497,24.003z M19.492,11.227c-2.099,2.267-3.338,5.202-3.496,8.294
		c0.003,1.914,1.573,3.481,3.5,3.481c1.93,0,3.5-1.57,3.5-3.5C22.997,16.74,21.245,13.195,19.492,11.227z"/>
	<path d="M14.87,14.003c-0.105,0-0.206-0.032-0.291-0.094c-0.108-0.078-0.18-0.193-0.202-0.325s0.009-0.264,0.087-0.373
		c1.048-1.461,1.317-3.346,0.72-5.042c-0.092-0.26,0.045-0.546,0.305-0.638c0.054-0.019,0.109-0.028,0.166-0.028
		c0.212,0,0.402,0.134,0.472,0.334c0.706,2.004,0.387,4.231-0.851,5.958C15.183,13.925,15.031,14.003,14.87,14.003z"/>
	<path d="M5.12,14.003c-0.161,0-0.313-0.078-0.406-0.208c-2.089-2.912-1.42-6.981,1.492-9.071C7.321,3.923,8.63,3.5,9.99,3.5
		c1.555,0,3.047,0.557,4.229,1.573l0.924-0.924c0.094-0.094,0.22-0.146,0.354-0.146s0.259,0.052,0.354,0.146
		c0.195,0.195,0.195,0.512,0,0.707l-1.231,1.231c-0.009,0.012-0.018,0.023-0.026,0.031c-0.013,0.013-0.026,0.023-0.038,0.031
		l-2.837,2.839c0.183,0.308,0.279,0.654,0.279,1.014c0,1.103-0.897,2-2,2s-2-0.897-2-2s0.897-2,2-2c0.36,0,0.707,0.096,1.014,0.279
		l2.5-2.499c-0.991-0.828-2.231-1.281-3.52-1.281c-1.151,0-2.258,0.358-3.202,1.035c-2.464,1.768-3.031,5.211-1.263,7.675
		c0.161,0.224,0.109,0.537-0.115,0.698C5.326,13.97,5.225,14.003,5.12,14.003z M9.996,9.003c-0.551,0-1,0.449-1,1s0.449,1,1,1
		s1-0.449,1-1S10.548,9.003,9.996,9.003z"/>
</g>
</svg>
