<?xml version="1.0" encoding="utf-8"?>
<!-- Generator: Adobe Illustrator 22.1.0, SVG Export Plug-In . SVG Version: 6.00 Build 0)  -->
<svg version="1.1" id="Light" xmlns="http://www.w3.org/2000/svg" xmlns:xlink="http://www.w3.org/1999/xlink" x="0px" y="0px"
	 viewBox="0 0 24 24" style="enable-background:new 0 0 24 24;" xml:space="preserve">
<g>
	<title>sailing-boat-3</title>
	<path d="M16.989,18.293c-1.654,0-3-1.346-3-3s1.346-3,3-3s3,1.346,3,3S18.643,18.293,16.989,18.293z M16.989,13.293
		c-1.103,0-2,0.897-2,2s0.897,2,2,2s2-0.897,2-2S18.092,13.293,16.989,13.293z"/>
	<path d="M1.18,24.002c-0.263,0-0.526-0.028-0.784-0.082c-0.27-0.058-0.443-0.324-0.385-0.594C0.06,23.097,0.266,22.93,0.5,22.93
		c0.035,0,0.069,0.004,0.103,0.011C0.788,22.98,0.977,23,1.167,23c1.857,0,3.381-1.882,3.396-1.901
		c0.096-0.121,0.239-0.189,0.402-0.189c0.171,0.007,0.319,0.091,0.407,0.224c0.718,1.085,1.923,1.77,3.222,1.833
		c1.365-0.069,2.653-0.747,3.51-1.861c0.094-0.122,0.242-0.195,0.396-0.195c0.008,0,0.038,0.001,0.045,0.002
		c0.17,0.015,0.32,0.115,0.399,0.267c0.561,1.078,1.665,1.762,2.879,1.787c1.294-0.031,2.49-0.712,3.188-1.822
		c0.092-0.146,0.247-0.234,0.415-0.234c0.182,0,0.341,0.088,0.433,0.235c0.011,0.018,1.168,1.814,2.963,1.814
		c0.189,0,0.381-0.02,0.571-0.06c0.035-0.007,0.069-0.01,0.102-0.01c0.236,0,0.442,0.167,0.49,0.398
		c0.056,0.27-0.118,0.535-0.387,0.592c-0.266,0.055-0.534,0.083-0.796,0.083h0c-1.623,0-2.791-1.06-3.36-1.717
		c-0.903,1.065-2.204,1.688-3.616,1.721c-1.352-0.027-2.593-0.665-3.388-1.722c-1.012,1.028-2.395,1.651-3.842,1.722
		c-1.444-0.067-2.759-0.709-3.674-1.773C4.254,22.864,2.874,24.002,1.18,24.002z"/>
	<path d="M0.5,21.251c-0.276,0-0.5-0.224-0.5-0.5v-5.18c0-0.121,0.015-0.243,0.044-0.361c0.167-0.67,0.766-1.138,1.457-1.138
		c0.121,0,0.242,0.015,0.36,0.044l21.76,5.4c0.267,0.066,0.431,0.338,0.365,0.606c-0.056,0.224-0.256,0.379-0.486,0.379l0,0
		c-0.04,0-0.079-0.005-0.118-0.014l-21.76-5.4c-0.04-0.01-0.081-0.015-0.122-0.015c-0.23,0-0.429,0.156-0.484,0.38
		C1.005,15.491,1,15.531,1,15.571v5.18C1,21.027,0.776,21.251,0.5,21.251z"/>
	<path d="M23.5,12.772c-0.04,0-0.08-0.005-0.119-0.014L10.674,9.605C7.463,8.809,5.272,6.11,5.578,3.328
		c0.005-0.044,0.013-0.088,0.023-0.13c0.111-0.449,0.51-0.761,0.971-0.761c0.081,0,0.161,0.01,0.24,0.029l4.099,1.017l4.288-3.374
		c0.088-0.069,0.198-0.107,0.309-0.107c0.155,0,0.298,0.07,0.393,0.191c0.17,0.217,0.133,0.532-0.084,0.702L12.14,3.787l11.48,2.848
		c0.267,0.067,0.431,0.338,0.365,0.606c-0.056,0.224-0.256,0.38-0.487,0.38c-0.04,0-0.079-0.005-0.118-0.014L6.572,3.436
		c-0.251,2.288,1.616,4.523,4.343,5.198l12.706,3.153c0.267,0.067,0.431,0.338,0.365,0.606C23.93,12.616,23.73,12.772,23.5,12.772z"
		/>
	<path d="M23.5,15.863c-0.04,0-0.08-0.005-0.119-0.014l-2.196-0.545c-0.267-0.067-0.431-0.338-0.365-0.606
		c0.055-0.223,0.255-0.38,0.486-0.38c0.04,0,0.08,0.005,0.119,0.014l2.195,0.545c0.267,0.067,0.431,0.338,0.365,0.606
		C23.93,15.707,23.73,15.863,23.5,15.863z"/>
	<path d="M13.371,13.35c-0.04,0-0.08-0.005-0.119-0.014L0.38,10.143c-0.268-0.067-0.431-0.338-0.365-0.606
		C0.07,9.313,0.27,9.157,0.5,9.157c0.04,0,0.081,0.005,0.12,0.015l12.871,3.193c0.267,0.066,0.431,0.338,0.365,0.606
		C13.801,13.194,13.601,13.35,13.371,13.35z"/>
</g>
</svg>
