<?xml version="1.0" encoding="utf-8"?>
<!-- Generator: Adobe Illustrator 22.1.0, SVG Export Plug-In . SVG Version: 6.00 Build 0)  -->
<svg version="1.1" id="Light" xmlns="http://www.w3.org/2000/svg" xmlns:xlink="http://www.w3.org/1999/xlink" x="0px" y="0px"
	 viewBox="0 0 24 24" style="enable-background:new 0 0 24 24;" xml:space="preserve">
<g>
	<title>sailing-boat-water</title>
	<path d="M21.969,23.999c-0.768-0.025-1.488-0.407-1.952-1.022C19.55,23.616,18.809,24,18,24c-0.797,0-1.532-0.375-2-1
		c-0.468,0.625-1.203,1-2,1c-0.81,0-1.551-0.384-2.017-1.023c-0.464,0.615-1.186,0.997-1.966,1.023
		C9.202,23.973,8.466,23.582,8,22.952C7.537,23.582,6.809,23.973,6.016,24C5.202,23.973,4.466,23.582,4,22.952
		C3.537,23.581,2.809,23.973,2.016,24c0,0,0,0-0.001,0c-0.287,0-0.507-0.212-0.516-0.483c-0.004-0.134,0.043-0.261,0.135-0.358
		C1.726,23.061,1.85,23.005,1.983,23c0.823-0.028,1.489-0.694,1.516-1.517C3.509,21.212,3.729,21,4,21s0.491,0.212,0.5,0.483
		c0.027,0.823,0.694,1.49,1.517,1.517c0.797-0.028,1.456-0.694,1.484-1.517C7.509,21.212,7.729,21,8,21
		c0.271,0,0.491,0.212,0.5,0.483c0.027,0.823,0.694,1.49,1.517,1.517c0.797-0.028,1.456-0.694,1.484-1.517
		C11.509,21.212,11.73,21,12.002,21c0.277,0.004,0.497,0.229,0.497,0.5c0,0.827,0.673,1.5,1.5,1.5s1.5-0.673,1.5-1.5
		c0-0.276,0.224-0.5,0.5-0.5s0.5,0.224,0.5,0.5c0,0.827,0.673,1.5,1.5,1.5s1.5-0.673,1.5-1.5c0-0.271,0.221-0.496,0.492-0.5
		c0.279,0,0.499,0.212,0.508,0.484c0.027,0.823,0.693,1.49,1.517,1.517c0.133,0.004,0.257,0.06,0.349,0.158s0.139,0.225,0.135,0.358
		C22.49,23.788,22.271,24,22,24C21.992,24,21.976,24,21.969,23.999z"/>
	<path d="M21.969,19.999c-0.768-0.025-1.488-0.407-1.952-1.022C19.55,19.616,18.809,20,18,20c-0.797,0-1.532-0.375-2-1
		c-0.468,0.625-1.203,1-2,1c-0.81,0-1.551-0.384-2.017-1.023c-0.464,0.615-1.186,0.997-1.966,1.023
		C9.202,19.973,8.466,19.582,8,18.952C7.537,19.582,6.809,19.973,6.016,20C5.202,19.973,4.466,19.582,4,18.952
		C3.537,19.581,2.809,19.973,2.016,20c0,0,0,0-0.001,0c-0.287,0-0.507-0.212-0.516-0.483c-0.004-0.134,0.043-0.261,0.135-0.358
		C1.726,19.061,1.85,19.005,1.983,19c0.823-0.028,1.489-0.694,1.516-1.517C3.509,17.212,3.729,17,4,17s0.491,0.212,0.5,0.483
		c0.027,0.823,0.694,1.49,1.517,1.517c0.797-0.028,1.456-0.694,1.484-1.517C7.509,17.212,7.729,17,8,17
		c0.271,0,0.491,0.212,0.5,0.483c0.027,0.823,0.694,1.49,1.517,1.517c0.797-0.028,1.456-0.694,1.484-1.517
		C11.509,17.212,11.729,17,12.002,17c0.277,0.004,0.498,0.229,0.498,0.5c0,0.827,0.673,1.5,1.5,1.5s1.5-0.673,1.5-1.5
		c0-0.276,0.224-0.5,0.5-0.5s0.5,0.224,0.5,0.5c0,0.827,0.673,1.5,1.5,1.5s1.5-0.673,1.5-1.5c0-0.271,0.221-0.496,0.492-0.5
		c0.279,0,0.499,0.212,0.508,0.484c0.027,0.823,0.693,1.49,1.517,1.517c0.133,0.004,0.257,0.06,0.349,0.158s0.139,0.225,0.135,0.358
		C22.49,19.788,22.271,20,22,20C21.992,20,21.976,20,21.969,19.999z"/>
	<path d="M6,16c-0.099,0-0.195-0.029-0.278-0.084c-0.949-0.635-1.558-1.651-1.672-2.788c-0.038-0.236,0.028-0.502,0.183-0.716
		c0.157-0.216,0.389-0.358,0.653-0.4C4.939,12.004,4.992,12.001,5.044,12l7.456,0v-2H6.11c-0.254,0-0.492-0.092-0.676-0.26
		c-0.407-0.37-0.439-1.003-0.07-1.411l7.262-8.162C12.721,0.061,12.857,0,13,0c0.061,0,0.121,0.011,0.178,0.033
		C13.37,0.106,13.5,0.294,13.5,0.5V12h6.46c0.551,0,1,0.448,1.001,0.998c0,0.051-0.004,0.1-0.011,0.149
		c-0.111,1.189-0.823,2.24-1.903,2.797C18.974,15.981,18.895,16,18.817,16c-0.188,0-0.358-0.104-0.445-0.271
		c-0.126-0.245-0.03-0.548,0.215-0.674c0.776-0.4,1.288-1.158,1.37-2.028l0.003-0.029L5.048,13c0.08,0.861,0.53,1.616,1.23,2.084
		c0.229,0.154,0.291,0.465,0.137,0.694C6.322,15.917,6.167,16,6,16L6,16z M6.109,8.996L12.5,9V1.814L6.109,8.996z"/>
</g>
</svg>
