<?xml version="1.0" encoding="utf-8"?>
<!-- Generator: Adobe Illustrator 22.1.0, SVG Export Plug-In . SVG Version: 6.00 Build 0)  -->
<svg version="1.1" id="Light" xmlns="http://www.w3.org/2000/svg" xmlns:xlink="http://www.w3.org/1999/xlink" x="0px" y="0px"
	 viewBox="0 0 24 24" style="enable-background:new 0 0 24 24;" xml:space="preserve">
<g>
	<title>sailing-boat-2</title>
	<path d="M1.5,20.75c-0.276,0-0.5-0.224-0.5-0.5s0.224-0.5,0.5-0.5H2v-3H0.5c-0.276,0-0.5-0.224-0.5-0.5s0.224-0.5,0.5-0.5h7
		c0.276,0,0.5,0.224,0.5,0.5s-0.224,0.5-0.5,0.5H3v3h0.5c0.276,0,0.5,0.224,0.5,0.5s-0.224,0.5-0.5,0.5H1.5z"/>
	<path d="M16.5,16.75c-0.276,0-0.5-0.224-0.5-0.5s0.224-0.5,0.5-0.5h7c0.276,0,0.5,0.224,0.5,0.5s-0.224,0.5-0.5,0.5H16.5z"/>
	<path d="M12,20.75c-1.654,0-3-1.346-3-3s1.346-3,3-3c1.654,0,3,1.346,3,3S13.654,20.75,12,20.75z M12,15.75c-1.103,0-2,0.897-2,2
		s0.897,2,2,2s2-0.897,2-2S13.103,15.75,12,15.75z"/>
	<path d="M9,13.75c-3.304,0-6.081-2.091-6.457-4.865C2.468,8.34,2.851,7.834,3.397,7.759C3.442,7.753,3.487,7.75,3.533,7.75h4.223
		l3.35-4.307C11.2,3.32,11.344,3.25,11.5,3.25c0.111,0,0.22,0.037,0.307,0.105c0.218,0.169,0.257,0.484,0.088,0.702L9.022,7.75H23.5
		c0.276,0,0.5,0.224,0.5,0.5s-0.224,0.5-0.5,0.5H3.538c0.305,2.281,2.655,4,5.462,4h14.5c0.276,0,0.5,0.224,0.5,0.5
		s-0.224,0.5-0.5,0.5H9z"/>
</g>
</svg>
