<?xml version="1.0" encoding="utf-8"?>
<!-- Generator: Adobe Illustrator 22.1.0, SVG Export Plug-In . SVG Version: 6.00 Build 0)  -->
<svg version="1.1" id="Light" xmlns="http://www.w3.org/2000/svg" xmlns:xlink="http://www.w3.org/1999/xlink" x="0px" y="0px"
	 viewBox="0 0 24 24" style="enable-background:new 0 0 24 24;" xml:space="preserve">
<g>
	<title>sailing-boat-person</title>
	<path d="M3.501,7.001c-0.276,0-0.5-0.224-0.5-0.5s0.224-0.5,0.5-0.5h13c0.276,0,0.5,0.224,0.5,0.5s-0.224,0.5-0.5,0.5H3.501z"/>
	<path d="M3.501,4.001c-0.276,0-0.5-0.224-0.5-0.5s0.224-0.5,0.5-0.5h17c0.276,0,0.5,0.224,0.5,0.5s-0.224,0.5-0.5,0.5H3.501z"/>
	<path d="M3.501,1.001c-0.276,0-0.5-0.224-0.5-0.5s0.224-0.5,0.5-0.5h17c0.276,0,0.5,0.224,0.5,0.5s-0.224,0.5-0.5,0.5H3.501z"/>
	<path d="M1.708,21.483c-0.162,0-0.315-0.079-0.409-0.212c-0.76-1.078-1.202-2.343-1.279-3.659
		c-0.003-0.049-0.003-0.102,0.002-0.155c0.048-0.517,0.478-0.907,1.001-0.907c0.028,0,0.057,0.001,0.085,0.004l2.445,0.222
		l2.525-4.04c0.092-0.147,0.251-0.235,0.424-0.235c0.094,0,0.186,0.027,0.266,0.077c0.112,0.07,0.191,0.181,0.221,0.311
		s0.008,0.264-0.063,0.377l-2.257,3.612L16,17.909v-0.907c0-0.827,0.673-1.5,1.5-1.5h3c0.827,0,1.5,0.673,1.5,1.5v1.452l0.545,0.05
		c0.218,0.02,0.395,0.177,0.443,0.389l0.439,1.971c0.059,0.27-0.111,0.537-0.379,0.597c-0.036,0.008-0.072,0.012-0.108,0.012
		c-0.232,0-0.438-0.164-0.489-0.391l-0.36-1.615L1.018,17.55c0.066,1.133,0.446,2.22,1.098,3.145
		c0.159,0.225,0.105,0.538-0.12,0.697C1.91,21.452,1.811,21.483,1.708,21.483z M21,18.363v-1.362c0-0.276-0.224-0.5-0.5-0.5h-3
		c-0.276,0-0.5,0.224-0.5,0.5v0.998L21,18.363z"/>
	<path d="M10.501,16.502c-1.379,0-2.5-1.122-2.5-2.5c0-1.379,1.121-2.5,2.5-2.5c1.378,0,2.5,1.121,2.5,2.5
		C13.001,15.38,11.88,16.502,10.501,16.502z M10.501,12.501c-0.827,0-1.5,0.673-1.5,1.5s0.673,1.5,1.5,1.5
		c0.827,0,1.5-0.673,1.5-1.5S11.328,12.501,10.501,12.501z"/>
	<path d="M1.186,24.002c-0.263,0-0.527-0.028-0.784-0.082c-0.27-0.058-0.442-0.324-0.385-0.593c0.049-0.229,0.255-0.396,0.489-0.396
		c0.034,0,0.069,0.004,0.103,0.011c0.186,0.04,0.377,0.06,0.568,0.06c1.864,0,3.376-1.881,3.391-1.9
		c0.094-0.119,0.24-0.191,0.39-0.191c0.005,0,0.022,0,0.027,0.001c0.156,0.006,0.304,0.09,0.393,0.223
		c0.719,1.086,1.924,1.771,3.225,1.833c1.362-0.071,2.647-0.749,3.502-1.861c0.095-0.123,0.243-0.195,0.396-0.195
		c0.008,0,0.038,0.001,0.045,0.002c0.17,0.015,0.319,0.115,0.398,0.267c0.562,1.08,1.668,1.764,2.885,1.787
		c1.294-0.031,2.49-0.712,3.188-1.822c0.092-0.146,0.25-0.234,0.423-0.234c0.173,0,0.332,0.088,0.424,0.234
		c0.011,0.017,1.178,1.815,2.964,1.815c0.189,0,0.381-0.02,0.571-0.06c0.033-0.007,0.068-0.011,0.104-0.011
		c0.235,0,0.44,0.167,0.488,0.398c0.027,0.13,0.002,0.264-0.071,0.376c-0.073,0.112-0.186,0.188-0.316,0.216
		c-0.266,0.056-0.534,0.084-0.797,0.084c0,0,0,0,0,0c-1.619,0-2.788-1.061-3.357-1.718c-0.904,1.065-2.204,1.688-3.616,1.722
		c-1.354-0.025-2.598-0.663-3.395-1.722c-1.01,1.026-2.389,1.649-3.833,1.722c-1.445-0.066-2.762-0.708-3.677-1.773
		C4.26,22.865,2.882,24.002,1.186,24.002z"/>
</g>
</svg>
