<?xml version="1.0" encoding="utf-8"?>
<!-- Generator: Adobe Illustrator 22.1.0, SVG Export Plug-In . SVG Version: 6.00 Build 0)  -->
<svg version="1.1" id="Light" xmlns="http://www.w3.org/2000/svg" xmlns:xlink="http://www.w3.org/1999/xlink" x="0px" y="0px"
	 viewBox="0 0 24 24" style="enable-background:new 0 0 24 24;" xml:space="preserve">
<g>
	<title>sailing-finish-line</title>
	<path d="M12,22.75c-2.434,0-4.521-1.778-4.925-4.164c-1.06-0.257-2-0.796-2.742-1.571c-0.995,1.037-2.368,1.665-3.809,1.734
		c0,0-0.001,0-0.001,0c-0.286,0-0.51-0.213-0.522-0.476c-0.013-0.275,0.2-0.51,0.476-0.523c1.365-0.065,2.626-0.724,3.461-1.806
		c0.093-0.121,0.237-0.19,0.396-0.19c0.159,0,0.303,0.069,0.396,0.189c0.578,0.749,1.377,1.305,2.276,1.591
		c0.096-2.302,1.735-4.221,3.995-4.679V1.75c0-0.175,0.093-0.339,0.243-0.429C11.321,1.275,11.41,1.25,11.5,1.25
		c0.082,0,0.163,0.02,0.235,0.059l7.5,4c0.163,0.087,0.264,0.255,0.265,0.44c0,0.184-0.1,0.354-0.263,0.441L12,10.08v2.67
		c2.686,0,4.884,2.129,4.996,4.788c0.897-0.286,1.697-0.844,2.275-1.594c0.094-0.122,0.242-0.195,0.396-0.195
		c0.156,0,0.301,0.071,0.396,0.195c0.834,1.082,2.096,1.74,3.461,1.806c0.275,0.013,0.489,0.248,0.476,0.523
		c-0.013,0.267-0.232,0.476-0.499,0.476c-0.005,0-0.022,0-0.027-0.001c-1.439-0.069-2.812-0.697-3.806-1.734
		c-0.744,0.777-1.685,1.317-2.743,1.573C16.52,20.973,14.433,22.75,12,22.75z M8.13,18.747c0.449,1.759,2.027,3.003,3.87,3.003
		c1.841,0,3.419-1.244,3.869-3.001c-0.004,0-0.008,0-0.012,0.001c-1.5-0.07-2.853-0.683-3.857-1.734
		c-0.995,1.037-2.368,1.665-3.809,1.734C8.17,18.749,8.15,18.748,8.13,18.747z M8,17.737c0.067,0.006,0.13,0.011,0.191,0.014
		c1.326-0.066,2.578-0.724,3.413-1.806c0.094-0.122,0.242-0.195,0.396-0.195s0.302,0.073,0.396,0.195
		c0.834,1.082,2.096,1.74,3.461,1.806c0.044-0.003,0.092-0.007,0.143-0.012c-0.006-2.2-1.798-3.989-4-3.989
		C9.799,13.75,8.007,15.537,8,17.737z M12,8.945l5.941-3.193L12,2.583V8.945z"/>
</g>
</svg>
