<?xml version="1.0" encoding="utf-8"?>
<!-- Generator: Adobe Illustrator 22.1.0, SVG Export Plug-In . SVG Version: 6.00 Build 0)  -->
<svg version="1.1" id="Layer_1" xmlns="http://www.w3.org/2000/svg" xmlns:xlink="http://www.w3.org/1999/xlink" x="0px" y="0px"
	 viewBox="0 0 24 24" style="enable-background:new 0 0 24 24;" xml:space="preserve">
<g>
	<title>famous-people-man-merlin-1</title>
	<path d="M11.869,16.5c-0.442,0-0.869-0.164-1.201-0.46c-0.099-0.089-0.159-0.211-0.166-0.344c-0.008-0.134,0.037-0.262,0.126-0.362
		c0.095-0.106,0.231-0.167,0.373-0.167c0.123,0,0.241,0.045,0.333,0.127c0.151,0.135,0.34,0.206,0.547,0.206l0.253,0
		c0.198,0,0.383-0.072,0.534-0.207c0.092-0.082,0.21-0.127,0.333-0.127c0.142,0,0.278,0.061,0.373,0.167
		c0.089,0.1,0.134,0.228,0.126,0.362c-0.008,0.133-0.067,0.256-0.167,0.345C13,16.337,12.57,16.5,12.122,16.5L11.869,16.5z"/>
	<path d="M9,11.5c-0.095,0-0.188-0.027-0.269-0.079c-0.112-0.072-0.19-0.183-0.219-0.313c-0.029-0.13-0.005-0.264,0.067-0.377
		c0.293-0.46,0.794-0.734,1.338-0.734c0.028,0,0.056,0.001,0.083,0.002c0.028-0.001,0.056-0.002,0.084-0.002
		c0.544,0,1.044,0.274,1.338,0.734c0.072,0.113,0.096,0.246,0.067,0.377c-0.029,0.13-0.107,0.242-0.219,0.314
		C11.189,11.473,11.096,11.5,11,11.5c-0.172,0-0.33-0.086-0.422-0.231c-0.107-0.168-0.297-0.272-0.497-0.272
		C10.067,10.997,10.006,11,10,11c-0.013,0-0.067-0.003-0.082-0.003c-0.202,0-0.388,0.102-0.497,0.272
		C9.329,11.414,9.172,11.5,9,11.5z"/>
	<path d="M15,11.5c-0.172,0-0.33-0.086-0.422-0.231c-0.109-0.17-0.294-0.272-0.495-0.272C14.068,10.997,14.006,11,14,11
		c-0.013,0-0.066-0.003-0.08-0.003c-0.204,0-0.39,0.102-0.499,0.272C13.329,11.414,13.171,11.5,13,11.5
		c-0.095,0-0.188-0.027-0.269-0.078c-0.113-0.072-0.19-0.183-0.219-0.314c-0.029-0.13-0.005-0.264,0.067-0.377
		c0.293-0.46,0.794-0.734,1.34-0.734c0.027,0,0.054,0.001,0.082,0.002c0.027-0.001,0.054-0.002,0.081-0.002
		c0.546,0,1.047,0.274,1.34,0.734c0.072,0.113,0.095,0.246,0.067,0.377c-0.029,0.131-0.107,0.242-0.219,0.314
		C15.188,11.473,15.095,11.5,15,11.5z"/>
	<path d="M23.5,24c-0.276,0-0.5-0.224-0.5-0.5c-0.001-1.452-0.915-2.769-2.275-3.277l-5.251-1.762
		c-0.655,1.548-1.785,3.39-2.637,4.69c-0.146,0.223-0.371,0.376-0.633,0.43c-0.066,0.014-0.135,0.021-0.204,0.021
		c-0.194,0-0.384-0.057-0.547-0.164c-0.115-0.075-0.212-0.172-0.287-0.287c-0.853-1.3-1.984-3.142-2.638-4.69l-5.267,1.769
		C1.912,20.732,1.001,22.048,1,23.5C1,23.776,0.776,24,0.5,24c-0.134,0-0.259-0.052-0.354-0.147C0.052,23.759,0,23.633,0,23.499
		c0.001-1.866,1.176-3.56,2.925-4.213L6,18.253v-1.142c-0.376,0.177-0.757,0.262-1.149,0.262c-0.576,0-1.124-0.185-1.584-0.534
		c-0.054-0.032-0.135-0.104-0.201-0.183c-0.17-0.207-0.25-0.467-0.224-0.733s0.153-0.506,0.359-0.676
		c1.694-1.399,1.824-4.011,1.832-4.264c-0.02-0.131-0.031-0.245-0.033-0.348c-0.011-0.584,0.175-1.082,0.515-1.39l-0.01-0.705
		c-1.22-0.17-2.435-0.389-3.614-0.651c-0.13-0.029-0.242-0.107-0.313-0.22S1.483,7.422,1.512,7.291C1.562,7.065,1.767,6.9,1.999,6.9
		c0.037,0,0.074,0.004,0.11,0.012C3.257,7.167,4.441,7.381,5.63,7.547l1.886-7.175C7.574,0.153,7.773,0,8,0
		c0.043,0,0.086,0.005,0.127,0.016c0.267,0.07,0.427,0.344,0.357,0.611L6.631,7.673C8.405,7.881,10.209,7.986,12,7.986
		c1.791,0,3.595-0.105,5.369-0.314l-1.852-7.046c-0.034-0.129-0.016-0.264,0.052-0.379c0.067-0.115,0.176-0.198,0.305-0.232
		C15.915,0.005,15.957,0,16,0c0.227,0,0.426,0.153,0.483,0.373l1.886,7.174c1.19-0.167,2.373-0.38,3.522-0.635
		C21.927,6.904,21.964,6.9,22,6.9c0.233,0,0.438,0.165,0.489,0.392c0.059,0.269-0.111,0.536-0.38,0.596
		c-1.179,0.262-2.395,0.481-3.615,0.652l-0.011,0.706c0.339,0.308,0.526,0.805,0.515,1.388c-0.002,0.101-0.012,0.213-0.031,0.34
		c0.005,0.177,0.112,2.853,1.833,4.274c0.206,0.17,0.333,0.41,0.359,0.675c0.026,0.266-0.054,0.526-0.224,0.732
		c-0.068,0.082-0.147,0.152-0.236,0.208c-0.427,0.326-0.984,0.513-1.55,0.513c-0.389,0-0.765-0.084-1.118-0.249l-0.034-0.016
		L18,18.254l3.06,1.027c1.761,0.658,2.94,2.352,2.941,4.219C24,23.775,23.776,24,23.5,24z M12,13.5c-1.654,0-3,1.346-3,3
		c0,0.943,1.15,3.281,3,6.102c1.292-1.97,2.254-3.719,2.709-4.924c0.002-0.007,0.005-0.013,0.007-0.019
		C14.951,17.033,15,16.683,15,16.5C15,14.846,13.654,13.5,12,13.5z M17,17.918v-0.807c0-0.169,0.043-0.337,0.125-0.485
		c0.129-0.233,0.341-0.402,0.598-0.476c0.091-0.026,0.184-0.039,0.277-0.039c0.167,0,0.334,0.043,0.483,0.125
		c0.196,0.091,0.421,0.14,0.656,0.14c0.354,0,0.705-0.119,0.989-0.334c0.023-0.016,0.031-0.021,0.036-0.026
		c-1.181-0.972-1.734-2.349-1.991-3.478c-0.142,0.127-0.297,0.229-0.465,0.306c-0.152,0.069-0.259,0.208-0.286,0.373
		c-0.047,0.285-0.123,0.569-0.225,0.842c-0.072,0.194-0.26,0.325-0.468,0.325c-0.06,0-0.118-0.011-0.175-0.032
		c-0.125-0.046-0.224-0.139-0.28-0.26c-0.055-0.122-0.06-0.258-0.013-0.383c0.08-0.214,0.138-0.434,0.175-0.656
		c0.082-0.494,0.403-0.912,0.858-1.12c0.444-0.202,0.694-0.831,0.703-1.319c0.006-0.328-0.089-0.591-0.243-0.668
		c-0.171-0.086-0.279-0.264-0.276-0.455l0.012-0.827C15.657,8.881,13.811,8.99,12,8.99c-1.811,0-3.658-0.109-5.492-0.326
		l0.011,0.828c0.003,0.19-0.106,0.368-0.276,0.454c-0.154,0.077-0.249,0.34-0.242,0.669c0.009,0.489,0.259,1.117,0.702,1.318
		c0.456,0.208,0.776,0.626,0.859,1.119c0.037,0.222,0.096,0.444,0.176,0.657c0.096,0.258-0.036,0.547-0.295,0.643
		c-0.055,0.021-0.114,0.031-0.174,0.031c-0.208,0-0.396-0.131-0.469-0.326c-0.101-0.272-0.177-0.555-0.224-0.84
		c-0.027-0.165-0.134-0.304-0.286-0.374c-0.167-0.076-0.322-0.177-0.463-0.303c-0.258,1.129-0.81,2.505-1.989,3.478
		c0.313,0.237,0.661,0.355,1.022,0.355c0.238,0,0.469-0.052,0.687-0.153c0.123-0.069,0.284-0.11,0.449-0.11
		c0.095,0,0.189,0.013,0.281,0.04c0.257,0.074,0.469,0.243,0.598,0.477C6.957,16.774,7,16.942,7,17.11v0.807l1.181-0.397
		C8.059,17.116,8,16.78,8,16.5c0-2.206,1.794-4,4-4s4,1.794,4,4c0,0.281-0.06,0.616-0.182,1.022L17,17.918z"/>
</g>
</svg>
