<?xml version="1.0" encoding="utf-8"?>
<!-- Generator: Adobe Illustrator 22.1.0, SVG Export Plug-In . SVG Version: 6.00 Build 0)  -->
<svg version="1.1" id="Layer_1" xmlns="http://www.w3.org/2000/svg" xmlns:xlink="http://www.w3.org/1999/xlink" x="0px" y="0px"
	 viewBox="0 0 24 24" style="enable-background:new 0 0 24 24;" xml:space="preserve">
<g>
	<title>design-file-indd-1</title>
	<path d="M19.5,12.98c-0.276,0-0.5-0.224-0.5-0.5V6.454c0-0.154-0.007-0.313-0.022-0.475H15.5c-0.827,0-1.5-0.673-1.5-1.5V1.001
		c-0.162-0.015-0.319-0.022-0.475-0.022H1.5c-0.276,0-0.5,0.224-0.5,0.5v11c0,0.276-0.224,0.5-0.5,0.5S0,12.754,0,12.479v-11
		c0-0.827,0.673-1.5,1.5-1.5h12.025c3.57,0,6.475,2.905,6.475,6.475v6.026C20,12.756,19.776,12.98,19.5,12.98z M15,4.479
		c0,0.276,0.224,0.5,0.5,0.5h3.297C18.282,3.143,16.836,1.696,15,1.182V4.479z"/>
	<path d="M1.5,23.979c-0.276,0-0.5-0.224-0.5-0.5s0.224-0.5,0.5-0.5H3v-7H1.5c-0.276,0-0.5-0.224-0.5-0.5s0.224-0.5,0.5-0.5h4
		c0.276,0,0.5,0.224,0.5,0.5s-0.224,0.5-0.5,0.5H4v7h1.5c0.276,0,0.5,0.224,0.5,0.5s-0.224,0.5-0.5,0.5H1.5z"/>
	<path d="M11.5,23.979c-0.191,0-0.362-0.106-0.447-0.276L8,17.597v5.882c0,0.276-0.224,0.5-0.5,0.5S7,23.754,7,23.479v-8
		c0-0.233,0.158-0.433,0.385-0.487c0.039-0.009,0.077-0.013,0.115-0.013c0.191,0,0.362,0.106,0.448,0.277L11,21.361v-5.882
		c0-0.276,0.224-0.5,0.5-0.5s0.5,0.224,0.5,0.5v8c0,0.233-0.158,0.433-0.385,0.487C11.576,23.974,11.538,23.979,11.5,23.979z"/>
	<path d="M13.5,23.979c-0.276,0-0.5-0.224-0.5-0.5v-8c0-0.276,0.224-0.5,0.5-0.5c2.481,0,4.5,2.019,4.5,4.5
		S15.981,23.979,13.5,23.979z M14,22.943c1.702-0.245,3-1.718,3-3.464s-1.298-3.22-3-3.464V22.943z"/>
	<path d="M19.5,23.979c-0.276,0-0.5-0.224-0.5-0.5v-8c0-0.276,0.224-0.5,0.5-0.5c2.481,0,4.5,2.019,4.5,4.5
		S21.981,23.979,19.5,23.979z M20,22.943c1.702-0.245,3-1.718,3-3.464s-1.298-3.22-3-3.464V22.943z"/>
</g>
</svg>
