<?xml version="1.0" encoding="utf-8"?>
<!-- Generator: Adobe Illustrator 22.1.0, SVG Export Plug-In . SVG Version: 6.00 Build 0)  -->
<svg version="1.1" id="Layer_1" xmlns="http://www.w3.org/2000/svg" xmlns:xlink="http://www.w3.org/1999/xlink" x="0px" y="0px"
	 viewBox="0 0 24 24" style="enable-background:new 0 0 24 24;" xml:space="preserve">
<g>
	<title>design-file-max</title>
	<path d="M3.5,23.979c-0.827,0-1.5-0.673-1.5-1.5v-21c0-0.827,0.673-1.5,1.5-1.5h12.025c3.57,0,6.475,2.905,6.475,6.475v16.025
		c0,0.827-0.673,1.5-1.5,1.5H3.5z M3.5,0.979c-0.276,0-0.5,0.224-0.5,0.5v21c0,0.276,0.224,0.5,0.5,0.5h17
		c0.276,0,0.5-0.224,0.5-0.5V6.454c0-0.154-0.007-0.313-0.022-0.475H17.5c-0.827,0-1.5-0.673-1.5-1.5V1.001
		c-0.162-0.015-0.319-0.022-0.475-0.022H3.5z M17,4.479c0,0.276,0.224,0.5,0.5,0.5h3.297C20.282,3.143,18.836,1.696,17,1.182V4.479z
		"/>
	<path d="M8.5,18.979c-0.276,0-0.5-0.224-0.5-0.5v-3.882l-0.553,1.105C7.365,15.866,7.194,15.968,7,15.968s-0.365-0.102-0.447-0.265
		L6,14.597v3.882c0,0.276-0.224,0.5-0.5,0.5S5,18.754,5,18.479v-6c0-0.233,0.158-0.433,0.385-0.487
		c0.04-0.009,0.077-0.013,0.115-0.013c0.191,0,0.363,0.106,0.448,0.276L7,14.361l1.053-2.105c0.085-0.17,0.257-0.276,0.448-0.276
		c0.037,0,0.075,0.004,0.112,0.012C8.842,12.046,9,12.246,9,12.479v6C9,18.754,8.776,18.979,8.5,18.979z"/>
	<path d="M13.5,18.979c-0.276,0-0.5-0.224-0.5-0.5v-2.5h-2v2.5c0,0.276-0.224,0.5-0.5,0.5s-0.5-0.224-0.5-0.5v-4.5
		c0-1.103,0.897-2,2-2s2,0.897,2,2v4.5C14,18.754,13.776,18.979,13.5,18.979z M13,14.979v-1c0-0.552-0.448-1-1-1
		c-0.551,0-1,0.448-1,1v1H13z"/>
	<path d="M18.5,18.979c-0.19,0-0.362-0.106-0.447-0.276L17,16.597l-1.053,2.105c-0.085,0.171-0.257,0.276-0.448,0.276
		c-0.077,0-0.154-0.018-0.223-0.052c-0.247-0.124-0.348-0.425-0.224-0.671l1.388-2.776l-1.388-2.776
		c-0.123-0.247-0.023-0.548,0.224-0.671c0.07-0.035,0.147-0.053,0.223-0.053c0.19,0,0.362,0.106,0.447,0.276L17,14.361l1.053-2.105
		c0.085-0.17,0.257-0.276,0.448-0.276c0.077,0,0.154,0.018,0.223,0.052c0.247,0.124,0.348,0.425,0.224,0.671l-1.388,2.776
		l1.388,2.776c0.123,0.247,0.023,0.548-0.224,0.671C18.654,18.961,18.577,18.979,18.5,18.979z"/>
</g>
</svg>
