<?xml version="1.0" encoding="utf-8"?>
<!-- Generator: Adobe Illustrator 22.1.0, SVG Export Plug-In . SVG Version: 6.00 Build 0)  -->
<svg version="1.1" id="Layer_1" xmlns="http://www.w3.org/2000/svg" xmlns:xlink="http://www.w3.org/1999/xlink" x="0px" y="0px"
	 viewBox="0 0 24 24" style="enable-background:new 0 0 24 24;" xml:space="preserve">
<g>
	<title>design-file-psd</title>
	<path d="M3.5,24C2.673,24,2,23.327,2,22.5v-21C2,0.673,2.673,0,3.5,0h12.025C19.095,0,22,2.905,22,6.475V22.5
		c0,0.827-0.673,1.5-1.5,1.5H3.5z M3.5,1C3.224,1,3,1.224,3,1.5v21C3,22.776,3.224,23,3.5,23h17c0.276,0,0.5-0.224,0.5-0.5V6.475
		C21,6.321,20.993,6.162,20.978,6H17.5C16.673,6,16,5.327,16,4.5V1.022C15.838,1.007,15.681,1,15.525,1H3.5z M17,4.5
		C17,4.776,17.224,5,17.5,5h3.297C20.282,3.164,18.836,1.717,17,1.203V4.5z"/>
	<path d="M5.5,19C5.224,19,5,18.776,5,18.5v-6C5,12.224,5.224,12,5.5,12H7c1.103,0,2,0.897,2,2s-0.897,2-2,2H6v2.5
		C6,18.776,5.776,19,5.5,19z M7,15c0.551,0,1-0.448,1-1s-0.449-1-1-1H6v2H7z"/>
	<path d="M10.5,19c-0.276,0-0.5-0.224-0.5-0.5s0.224-0.5,0.5-0.5h1.7c0.274,0,0.525-0.135,0.673-0.361
		c0.117-0.178,0.158-0.392,0.114-0.601c-0.043-0.209-0.166-0.389-0.344-0.507L10.8,15.303c-0.511-0.335-0.814-0.903-0.81-1.517
		C9.998,12.801,10.805,12,11.79,12h1.71c0.276,0,0.5,0.224,0.5,0.5c0,0.276-0.224,0.5-0.5,0.5h-1.7
		c-0.223,0.003-0.422,0.083-0.571,0.23c-0.152,0.15-0.237,0.35-0.239,0.564c-0.002,0.273,0.133,0.525,0.361,0.675l1.843,1.228
		c0.399,0.262,0.674,0.666,0.772,1.137c0.098,0.47,0.006,0.951-0.258,1.354C13.375,18.696,12.812,19,12.204,19H10.5z"/>
	<path d="M15.5,19c-0.276,0-0.5-0.224-0.5-0.5v-6c0-0.276,0.224-0.5,0.5-0.5c1.93,0,3.5,1.57,3.5,3.5S17.43,19,15.5,19z M16,17.949
		c1.141-0.235,2-1.261,2-2.449s-0.859-2.215-2-2.449V17.949z"/>
</g>
</svg>
