<?xml version="1.0" encoding="utf-8"?>
<!-- Generator: Adobe Illustrator 22.1.0, SVG Export Plug-In . SVG Version: 6.00 Build 0)  -->
<svg version="1.1" id="Layer_1" xmlns="http://www.w3.org/2000/svg" xmlns:xlink="http://www.w3.org/1999/xlink" x="0px" y="0px"
	 viewBox="0 0 24 24" style="enable-background:new 0 0 24 24;" xml:space="preserve">
<g>
	<title>design-document-psd-1</title>
	<path d="M1.5,24C0.673,24,0,23.327,0,22.5v-21C0,0.673,0.673,0,1.5,0h21C23.327,0,24,0.673,24,1.5v21c0,0.827-0.673,1.5-1.5,1.5
		H1.5z M1.5,1C1.224,1,1,1.224,1,1.5v21C1,22.776,1.224,23,1.5,23h21c0.276,0,0.5-0.224,0.5-0.5v-21C23,1.224,22.776,1,22.5,1H1.5z"
		/>
	<path d="M4.5,20C4.224,20,4,19.776,4,19.5v-8C4,11.224,4.224,11,4.5,11h2C7.879,11,9,12.121,9,13.5C9,14.878,7.879,16,6.5,16H5v3.5
		C5,19.776,4.776,20,4.5,20z M6.5,15C7.327,15,8,14.327,8,13.5S7.327,12,6.5,12H5v3H6.5z"/>
	<path d="M10.5,20c-0.276,0-0.5-0.224-0.5-0.5s0.224-0.5,0.5-0.5h2.146c0.516,0,0.979-0.287,1.21-0.748
		c0.162-0.323,0.188-0.69,0.074-1.034s-0.355-0.621-0.678-0.783l-1.95-0.976c-0.802-0.401-1.3-1.208-1.301-2.104
		C10,12.057,11.056,11,12.354,11H14.5c0.276,0,0.5,0.224,0.5,0.5S14.776,12,14.5,12h-2.146c-0.747,0-1.354,0.608-1.353,1.355
		c0,0.516,0.287,0.979,0.748,1.21l1.95,0.976c1.161,0.581,1.633,1.998,1.052,3.158C14.349,19.501,13.543,20,12.646,20H10.5z"/>
	<path d="M16.5,20c-0.276,0-0.5-0.224-0.5-0.5v-8c0-0.276,0.224-0.5,0.5-0.5c2.481,0,4.5,2.019,4.5,4.5S18.981,20,16.5,20z
		 M17,18.964c1.702-0.245,3-1.718,3-3.464s-1.298-3.22-3-3.464V18.964z"/>
</g>
</svg>
