<?xml version="1.0" encoding="utf-8"?>
<!-- Generator: Adobe Illustrator 22.1.0, SVG Export Plug-In . SVG Version: 6.00 Build 0)  -->
<svg version="1.1" id="Layer_1" xmlns="http://www.w3.org/2000/svg" xmlns:xlink="http://www.w3.org/1999/xlink" x="0px" y="0px"
	 viewBox="0 0 24 24" style="enable-background:new 0 0 24 24;" xml:space="preserve">
<g>
	<title>design-file-dxf-1</title>
	<path d="M1.5,24C0.673,24,0,23.327,0,22.5v-21C0,0.673,0.673,0,1.5,0h12.025C17.095,0,20,2.905,20,6.475V12.5
		c0,0.276-0.224,0.5-0.5,0.5S19,12.776,19,12.5V6.475C19,6.321,18.993,6.162,18.978,6H15.5C14.673,6,14,5.327,14,4.5V1.022
		C13.838,1.007,13.681,1,13.525,1H1.5C1.224,1,1,1.224,1,1.5v21C1,22.776,1.224,23,1.5,23h3C4.776,23,5,23.224,5,23.5
		S4.776,24,4.5,24H1.5z M15,4.5C15,4.776,15.224,5,15.5,5h3.297C18.282,3.164,16.836,1.717,15,1.203V4.5z"/>
	<path d="M7.5,24C7.224,24,7,23.776,7,23.5v-8C7,15.224,7.224,15,7.5,15c2.481,0,4.5,2.019,4.5,4.5S9.981,24,7.5,24z M8,22.964
		c1.702-0.245,3-1.718,3-3.464s-1.298-3.22-3-3.464V22.964z"/>
	<path d="M13.5,24c-0.276,0-0.5-0.224-0.5-0.5V17c0-1.103,0.897-2,2-2h2.5c0.276,0,0.5,0.224,0.5,0.5S17.776,16,17.5,16H15
		c-0.552,0-1,0.448-1,1v2h2c0.276,0,0.5,0.224,0.5,0.5S16.276,20,16,20h-2v3.5C14,23.776,13.776,24,13.5,24z"/>
	<path d="M23.5,24c-0.19,0-0.362-0.106-0.447-0.276L21.5,20.618l-1.553,3.105C19.862,23.894,19.69,24,19.5,24
		c-0.077,0-0.154-0.018-0.223-0.052c-0.247-0.124-0.348-0.425-0.224-0.671l1.888-3.776l-1.888-3.776
		c-0.123-0.247-0.023-0.548,0.224-0.671C19.346,15.018,19.423,15,19.5,15c0.191,0,0.362,0.106,0.448,0.276l1.553,3.105l1.553-3.105
		C23.138,15.106,23.31,15,23.5,15c0.077,0,0.154,0.018,0.223,0.052c0.247,0.124,0.347,0.425,0.224,0.671L22.059,19.5l1.888,3.776
		c0.123,0.247,0.023,0.548-0.224,0.671C23.654,23.982,23.577,24,23.5,24z"/>
</g>
</svg>
