<?xml version="1.0" encoding="utf-8"?>
<!-- Generator: Adobe Illustrator 22.1.0, SVG Export Plug-In . SVG Version: 6.00 Build 0)  -->
<svg version="1.1" id="Layer_1" xmlns="http://www.w3.org/2000/svg" xmlns:xlink="http://www.w3.org/1999/xlink" x="0px" y="0px"
	 viewBox="0 0 24 24" style="enable-background:new 0 0 24 24;" xml:space="preserve">
<g>
	<title>design-document-otf</title>
	<path d="M1.5,19.5C0.673,19.5,0,18.827,0,18V6c0-0.827,0.673-1.5,1.5-1.5h21C23.327,4.5,24,5.173,24,6v12
		c0,0.827-0.673,1.5-1.5,1.5H1.5z M1.5,5.5C1.224,5.5,1,5.724,1,6v12c0,0.276,0.224,0.5,0.5,0.5h21c0.276,0,0.5-0.224,0.5-0.5V6
		c0-0.276-0.224-0.5-0.5-0.5H1.5z"/>
	<path d="M7,15.5c-1.103,0-2-0.897-2-2v-3c0-1.103,0.897-2,2-2s2,0.897,2,2v3C9,14.603,8.103,15.5,7,15.5z M7,9.5
		c-0.551,0-1,0.449-1,1v3c0,0.552,0.449,1,1,1s1-0.448,1-1v-3C8,9.949,7.551,9.5,7,9.5z"/>
	<path d="M16.5,15.5c-0.276,0-0.5-0.224-0.5-0.5v-5c0-0.827,0.673-1.5,1.5-1.5h2C19.776,8.5,20,8.724,20,9s-0.224,0.5-0.5,0.5h-2
		C17.224,9.5,17,9.724,17,10v1.5h1.5c0.276,0,0.5,0.224,0.5,0.5c0,0.276-0.224,0.5-0.5,0.5H17V15C17,15.276,16.776,15.5,16.5,15.5z"
		/>
	<path d="M12.5,15.5c-0.276,0-0.5-0.224-0.5-0.5V9.5h-1.5C10.224,9.5,10,9.276,10,9s0.224-0.5,0.5-0.5h4C14.776,8.5,15,8.724,15,9
		s-0.224,0.5-0.5,0.5H13V15C13,15.276,12.776,15.5,12.5,15.5z"/>
</g>
</svg>
