<?xml version="1.0" encoding="utf-8"?>
<!-- Generator: Adobe Illustrator 22.1.0, SVG Export Plug-In . SVG Version: 6.00 Build 0)  -->
<svg version="1.1" id="Layer_1" xmlns="http://www.w3.org/2000/svg" xmlns:xlink="http://www.w3.org/1999/xlink" x="0px" y="0px"
	 viewBox="0 0 24 24" style="enable-background:new 0 0 24 24;" xml:space="preserve">
<g>
	<title>design-document-dwg</title>
	<path d="M2,19.5c-0.827,0-1.5-0.673-1.5-1.5V6c0-0.827,0.673-1.5,1.5-1.5h20c0.827,0,1.5,0.673,1.5,1.5v12
		c0,0.827-0.673,1.5-1.5,1.5H2z M2,5.5C1.724,5.5,1.5,5.724,1.5,6v12c0,0.276,0.224,0.5,0.5,0.5h20c0.276,0,0.5-0.224,0.5-0.5V6
		c0-0.276-0.224-0.5-0.5-0.5H2z"/>
	<path d="M5,15.5c-0.276,0-0.5-0.224-0.5-0.5V9c0-0.276,0.224-0.5,0.5-0.5c1.93,0,3.5,1.57,3.5,3.5S6.93,15.5,5,15.5z M5.5,14.449
		c1.141-0.235,2-1.261,2-2.449c0-1.188-0.859-2.215-2-2.45V14.449z"/>
	<path d="M13,15.5c-0.018,0-0.035-0.001-0.053-0.003c-0.208-0.023-0.381-0.174-0.431-0.376L12,13.062l-0.515,2.06
		c-0.051,0.202-0.223,0.353-0.43,0.376c-0.019,0.002-0.037,0.003-0.054,0.003c-0.191,0-0.363-0.106-0.448-0.276
		c-0.689-1.378-1.053-2.92-1.053-4.46V9c0-0.276,0.224-0.5,0.5-0.5s0.5,0.224,0.5,0.5v1.764c0,0.875,0.134,1.765,0.39,2.613
		l0.625-2.498C11.571,10.656,11.77,10.5,12,10.5s0.429,0.156,0.485,0.379l0.625,2.498c0.257-0.848,0.391-1.737,0.39-2.613V9
		c0-0.276,0.224-0.5,0.5-0.5s0.5,0.224,0.5,0.5v1.764c0,1.539-0.364,3.082-1.053,4.46C13.362,15.394,13.19,15.5,13,15.5z"/>
	<path d="M17.5,15.5c-1.103,0-2-0.897-2-2v-3c0-1.103,0.897-2,2-2s2,0.897,2,2V11c0,0.276-0.224,0.5-0.5,0.5s-0.5-0.224-0.5-0.5
		v-0.5c0-0.551-0.448-1-1-1s-1,0.449-1,1v3c0,0.552,0.448,1,1,1s1-0.448,1-1H18c-0.276,0-0.5-0.224-0.5-0.5s0.224-0.5,0.5-0.5h1
		c0.276,0,0.5,0.224,0.5,0.5v0.5C19.5,14.603,18.603,15.5,17.5,15.5z"/>
</g>
</svg>
