<?xml version="1.0" encoding="utf-8"?>
<!-- Generator: Adobe Illustrator 22.1.0, SVG Export Plug-In . SVG Version: 6.00 Build 0)  -->
<svg version="1.1" id="Layer_1" xmlns="http://www.w3.org/2000/svg" xmlns:xlink="http://www.w3.org/1999/xlink" x="0px" y="0px"
	 viewBox="0 0 24 24" style="enable-background:new 0 0 24 24;" xml:space="preserve">
<g>
	<title>design-document-3ds-1</title>
	<path d="M1.5,24C0.673,24,0,23.327,0,22.5v-21C0,0.673,0.673,0,1.5,0h21C23.327,0,24,0.673,24,1.5v21c0,0.827-0.673,1.5-1.5,1.5
		H1.5z M1.5,1C1.224,1,1,1.224,1,1.5v21C1,22.776,1.224,23,1.5,23h21c0.276,0,0.5-0.224,0.5-0.5v-21C23,1.224,22.776,1,22.5,1H1.5z"
		/>
	<path d="M3.5,20C3.224,20,3,19.776,3,19.5S3.224,19,3.5,19h3C7.327,19,8,18.327,8,17.5S7.327,16,6.5,16C6.224,16,6,15.776,6,15.5
		S6.224,15,6.5,15C7.327,15,8,14.327,8,13.5S7.327,12,6.5,12h-3C3.224,12,3,11.776,3,11.5S3.224,11,3.5,11h3
		C7.879,11,9,12.121,9,13.5c0,0.797-0.375,1.532-1,2c0.625,0.468,1,1.203,1,2C9,18.878,7.879,20,6.5,20H3.5z"/>
	<path d="M10.5,20c-0.276,0-0.5-0.224-0.5-0.5v-8c0-0.276,0.224-0.5,0.5-0.5c2.481,0,4.5,2.019,4.5,4.5S12.981,20,10.5,20z
		 M11,18.964c1.702-0.245,3-1.718,3-3.464s-1.298-3.22-3-3.464V18.964z"/>
	<path d="M16.5,20c-0.276,0-0.5-0.224-0.5-0.5s0.224-0.5,0.5-0.5h2.146c0.516,0,0.979-0.287,1.21-0.748
		c0.162-0.323,0.188-0.69,0.074-1.034s-0.355-0.621-0.678-0.783l-1.95-0.976c-0.802-0.401-1.3-1.208-1.301-2.104
		c0-0.629,0.244-1.22,0.689-1.665c0.444-0.445,1.035-0.69,1.664-0.69H20.5c0.276,0,0.5,0.224,0.5,0.5S20.776,12,20.5,12h-2.146
		c-0.362,0-0.701,0.141-0.957,0.397c-0.256,0.256-0.396,0.596-0.396,0.958c0,0.516,0.287,0.979,0.748,1.21l1.95,0.976
		c1.161,0.581,1.633,1.998,1.052,3.158C20.349,19.501,19.543,20,18.646,20H16.5z"/>
</g>
</svg>
