<?xml version="1.0" encoding="utf-8"?>
<!-- Generator: Adobe Illustrator 22.1.0, SVG Export Plug-In . SVG Version: 6.00 Build 0)  -->
<svg version="1.1" id="Layer_1" xmlns="http://www.w3.org/2000/svg" xmlns:xlink="http://www.w3.org/1999/xlink" x="0px" y="0px"
	 viewBox="0 0 24 24" style="enable-background:new 0 0 24 24;" xml:space="preserve">
<g>
	<title>design-file-vector</title>
	<path d="M3.5,24C2.673,24,2,23.327,2,22.5v-21C2,0.673,2.673,0,3.5,0h13.293c0.401,0,0.777,0.156,1.061,0.439l3.707,3.707
		C21.844,4.43,22,4.807,22,5.207V22.5c0,0.827-0.673,1.5-1.5,1.5H3.5z M3.5,1C3.224,1,3,1.224,3,1.5v21C3,22.776,3.224,23,3.5,23h17
		c0.276,0,0.5-0.224,0.5-0.5V5.207c0-0.133-0.052-0.259-0.146-0.354l-3.707-3.707C17.053,1.053,16.925,1,16.793,1H3.5z"/>
	<path d="M7,18.501c-0.534,0-1.037-0.208-1.414-0.586c-0.78-0.78-0.78-2.048,0-2.828c0.376-0.377,0.878-0.584,1.411-0.584
		c0.359,0,0.703,0.093,1.008,0.271l5.768-5.769C13.594,8.699,13.5,8.356,13.5,8c0-1.103,0.897-2,2-2s2,0.897,2,2s-0.897,2-2,2
		c-0.364,0-0.714-0.098-1.024-0.284l-5.761,5.762c0.462,0.775,0.348,1.789-0.301,2.438C8.037,18.293,7.535,18.501,7,18.501z
		 M7,15.502c-0.268,0-0.519,0.104-0.707,0.292C6.104,15.983,6,16.235,6,16.502c0,0.267,0.104,0.518,0.293,0.707
		c0.189,0.189,0.44,0.293,0.707,0.293c0.267,0,0.518-0.104,0.707-0.293c0.39-0.39,0.39-1.024,0-1.414
		C7.519,15.606,7.268,15.502,7,15.502z M15.5,7c-0.552,0-1,0.449-1,1s0.448,1,1,1s1-0.449,1-1S16.052,7,15.5,7z"/>
	<path d="M11,20c-0.551,0-1-0.448-1-1v-1c0-0.552,0.449-1,1-1v-1.5c0-1.93,1.57-3.5,3.5-3.5H16c0-0.551,0.448-1,1-1h1
		c0.552,0,1,0.449,1,1v1c0,0.552-0.448,1-1,1h-1c-0.552,0-1-0.448-1-1h-1.5c-1.378,0-2.5,1.122-2.5,2.5V17c0.552,0,1,0.448,1,1v1
		c0,0.552-0.448,1-1,1H11z M11,19h1v-1h-1L11,19z M17,13h1v-1h-1L17,13z"/>
</g>
</svg>
