<?xml version="1.0" encoding="utf-8"?>
<!-- Generator: Adobe Illustrator 22.1.0, SVG Export Plug-In . SVG Version: 6.00 Build 0)  -->
<svg version="1.1" id="Layer_1" xmlns="http://www.w3.org/2000/svg" xmlns:xlink="http://www.w3.org/1999/xlink" x="0px" y="0px"
	 viewBox="0 0 24 24" style="enable-background:new 0 0 24 24;" xml:space="preserve">
<g>
	<title>design-document-ai</title>
	<path d="M1.5,19.5C0.673,19.5,0,18.827,0,18V6c0-0.827,0.673-1.5,1.5-1.5h21C23.327,4.5,24,5.173,24,6v12
		c0,0.827-0.673,1.5-1.5,1.5H1.5z M1.5,5.5C1.224,5.5,1,5.724,1,6v12c0,0.276,0.224,0.5,0.5,0.5h21c0.276,0,0.5-0.224,0.5-0.5V6
		c0-0.276-0.224-0.5-0.5-0.5H1.5z"/>
	<path d="M11.5,15.5c-0.276,0-0.5-0.224-0.5-0.5v-2.5H9V15c0,0.276-0.224,0.5-0.5,0.5S8,15.276,8,15v-4.5c0-1.103,0.897-2,2-2
		s2,0.897,2,2V15C12,15.276,11.776,15.5,11.5,15.5z M11,11.5v-1c0-0.551-0.449-1-1-1s-1,0.449-1,1v1H11z"/>
	<path d="M13.5,15.5c-0.276,0-0.5-0.224-0.5-0.5s0.224-0.5,0.5-0.5H14v-5h-0.5C13.224,9.5,13,9.276,13,9s0.224-0.5,0.5-0.5h2
		C15.776,8.5,16,8.724,16,9s-0.224,0.5-0.5,0.5H15v5h0.5c0.276,0,0.5,0.224,0.5,0.5s-0.224,0.5-0.5,0.5H13.5z"/>
</g>
</svg>
