<?xml version="1.0" encoding="utf-8"?>
<!-- Generator: Adobe Illustrator 22.1.0, SVG Export Plug-In . SVG Version: 6.00 Build 0)  -->
<svg version="1.1" id="Layer_1" xmlns="http://www.w3.org/2000/svg" xmlns:xlink="http://www.w3.org/1999/xlink" x="0px" y="0px"
	 viewBox="0 0 24 24" style="enable-background:new 0 0 24 24;" xml:space="preserve">
<g>
	<title>construction-house-1</title>
	<path d="M1,22.5c-0.551,0-1-0.448-1-1v-1c0-0.552,0.449-1,1-1h1v-1H1c-0.551,0-1-0.448-1-1v-1c0-0.552,0.449-1,1-1h10
		c0.551,0,1,0.448,1,1v1h1c0.552,0,1,0.448,1,1v1c0,0.552-0.448,1-1,1h-1v1h11v-4h-7.5c-0.276,0-0.5-0.224-0.5-0.5v-5.5h-3V14
		c0,0.276-0.224,0.5-0.5,0.5S11,14.276,11,14v-2.5H1V14c0,0.276-0.224,0.5-0.5,0.5S0,14.276,0,14v-3c0-0.007,0-0.013,0.001-0.02
		c0.002-0.052,0.013-0.104,0.033-0.155c0.003-0.008,0.015-0.035,0.019-0.043c0.005-0.014,0.013-0.03,0.021-0.043l5.5-9
		c0.02-0.033,0.042-0.056,0.055-0.069C5.722,1.562,5.859,1.5,6,1.5h12.5C18.776,1.5,19,1.724,19,2s-0.224,0.5-0.5,0.5h-3.608
		l1.222,2H20.5C20.776,4.5,21,4.724,21,5s-0.224,0.5-0.5,0.5h-3.775l1.222,2H22.5C22.776,7.5,23,7.724,23,8s-0.224,0.5-0.5,0.5
		h-3.942l1.222,2H23.5c0.276,0,0.5,0.224,0.5,0.5s-0.224,0.5-0.5,0.5H20v5h3c0.552,0,1,0.448,1,1v4c0,0.552-0.448,1-1,1H1z M1,21.5
		h10v-1H1L1,21.5z M3,19.5h10v-1H3L3,19.5z M1,17.5h10v-1H1L1,17.5z M19,16.5v-5h-3v5H19z M18.608,10.5l-1.222-2h-2.828l1.222,2
		H18.608z M14.608,10.5l-1.222-2h-2.828l1.222,2H14.608z M10.608,10.5L6,2.959L1.392,10.5H10.608z M16.775,7.5l-1.222-2h-2.828
		l1.222,2H16.775z M12.775,7.5l-1.222-2H8.725l1.222,2H12.775z M14.942,4.5l-1.222-2h-2.828l1.222,2H14.942z M10.942,4.5l-1.222-2
		H6.892l1.222,2H10.942z"/>
</g>
</svg>
