<?xml version="1.0" encoding="utf-8"?>
<!-- Generator: Adobe Illustrator 22.1.0, SVG Export Plug-In . SVG Version: 6.00 Build 0)  -->
<svg version="1.1" id="Layer_1" xmlns="http://www.w3.org/2000/svg" xmlns:xlink="http://www.w3.org/1999/xlink" x="0px" y="0px"
	 viewBox="0 0 24 24" style="enable-background:new 0 0 24 24;" xml:space="preserve">
<g>
	<title>construction-pipe-1</title>
	<path d="M1,23c-0.551,0-1-0.448-1-1v-5c0-0.552,0.449-1,1-1h2c0.551,0,1,0.448,1,1h3.5C8.327,17,9,16.327,9,15.5V14
		c-0.551,0-1-0.448-1-1v-2c0-0.551,0.449-1,1-1V8.5c0.004-3.581,2.919-6.496,6.5-6.5H20c0-0.551,0.448-1,1-1h2c0.552,0,1,0.449,1,1
		v5c0,0.551-0.448,1-1,1h-2c-0.552,0-1-0.449-1-1h-4.5C14.673,7,14,7.673,14,8.5V10c0.552,0,1,0.449,1,1v2c0,0.552-0.448,1-1,1v1.5
		c-0.004,3.58-2.919,6.496-6.5,6.5H4c0,0.552-0.449,1-1,1H1z M1,22h2v-5H1L1,22z M7.5,21c3.03-0.003,5.497-2.47,5.5-5.5V14h-3v1.5
		c0,1.378-1.121,2.5-2.5,2.5H4v3H7.5z M9,13h5v-2H9L9,13z M13,10V8.5C13,7.121,14.122,6,15.5,6H20V3h-4.5
		c-3.03,0.003-5.497,2.471-5.5,5.5V10H13z M21,7h2V2h-2L21,7z"/>
</g>
</svg>
