<?xml version="1.0" encoding="utf-8"?>
<!-- Generator: Adobe Illustrator 22.1.0, SVG Export Plug-In . SVG Version: 6.00 Build 0)  -->
<svg version="1.1" id="Layer_1" xmlns="http://www.w3.org/2000/svg" xmlns:xlink="http://www.w3.org/1999/xlink" x="0px" y="0px"
	 viewBox="0 0 24 24" style="enable-background:new 0 0 24 24;" xml:space="preserve">
<g>
	<title>construction-paint</title>
	<path d="M6.5,24C5.673,24,5,23.327,5,22.5v-4c0-0.64,0.41-1.205,1-1.414V14.5C6,14.224,5.776,14,5.5,14h-3
		C1.121,14,0,12.878,0,11.5c0-1.199,0.845-2.215,2-2.449V8.5C2,7.673,2.673,7,3.5,7h7C11.327,7,12,7.673,12,8.5V9h0.5
		C12.776,9,13,9.224,13,9.5S12.776,10,12.5,10H12v0.5c0,0.827-0.673,1.5-1.5,1.5h-7C2.673,12,2,11.327,2,10.5v-0.412
		C1.414,10.297,1,10.86,1,11.5C1,12.327,1.673,13,2.5,13h3C6.327,13,7,13.673,7,14.5v2.586c0.59,0.209,1,0.774,1,1.414v4
		C8,23.327,7.327,24,6.5,24z M6.5,18C6.224,18,6,18.224,6,18.5v4C6,22.776,6.224,23,6.5,23S7,22.776,7,22.5v-4
		C7,18.224,6.776,18,6.5,18z M3.5,8C3.224,8,3,8.224,3,8.5v2C3,10.776,3.224,11,3.5,11h7c0.276,0,0.5-0.224,0.5-0.5v-2
		C11,8.224,10.776,8,10.5,8H3.5z"/>
	<path d="M9.5,24C9.224,24,9,23.776,9,23.5S9.224,23,9.5,23h13c0.276,0,0.5-0.224,0.5-0.5V19H9.5C9.224,19,9,18.776,9,18.5
		S9.224,18,9.5,18H23v-5h-8.038c-0.244,1.7-1.72,3.001-3.458,3.003c-0.865,0-1.694-0.317-2.337-0.891
		c-0.1-0.089-0.159-0.211-0.166-0.345s0.038-0.262,0.127-0.361c0.094-0.106,0.23-0.167,0.373-0.167c0.123,0,0.242,0.045,0.333,0.127
		c0.459,0.41,1.051,0.636,1.667,0.636c0.669-0.001,1.296-0.262,1.769-0.735c0.472-0.473,0.732-1.101,0.731-1.768V1H1.5
		C1.224,1,1,1.224,1,1.5V7c0,0.276-0.224,0.5-0.5,0.5S0,7.276,0,7V1.5C0,0.673,0.673,0,1.5,0h21C23.327,0,24,0.673,24,1.5v21
		c0,0.827-0.673,1.5-1.5,1.5H9.5z M23,12V7h-8v5H23z M23,6V1.5C23,1.224,22.776,1,22.5,1H15v5H23z"/>
	<path d="M0.5,19C0.224,19,0,18.776,0,18.5S0.224,18,0.5,18h3C3.776,18,4,18.224,4,18.5S3.776,19,3.5,19H0.5z"/>
	<path d="M0.5,24C0.224,24,0,23.776,0,23.5S0.224,23,0.5,23h3C3.776,23,4,23.224,4,23.5S3.776,24,3.5,24H0.5z"/>
</g>
</svg>
