<?xml version="1.0" encoding="utf-8"?>
<!-- Generator: Adobe Illustrator 22.1.0, SVG Export Plug-In . SVG Version: 6.00 Build 0)  -->
<svg version="1.1" id="Layer_1" xmlns="http://www.w3.org/2000/svg" xmlns:xlink="http://www.w3.org/1999/xlink" x="0px" y="0px"
	 viewBox="0 0 24 24" style="enable-background:new 0 0 24 24;" xml:space="preserve">
<g>
	<title>construction-pipe</title>
	<path d="M17.5,24c-0.827,0-1.5-0.673-1.5-1.5c0-0.64,0.41-1.205,1-1.414v-2.023c-0.001-0.804-0.467-1.526-1.18-1.863
		c-0.256,0.487-0.759,0.8-1.32,0.8c-0.64,0-1.205-0.41-1.414-1H9c-4.017-0.005-7.472-3.096-7.943-7.07C0.434,9.739,0,9.165,0,8.5
		c0-0.741,0.535-1.356,1.25-1.475C2.149,3.528,5.379,1.005,8.999,1h4.087c0.209-0.59,0.774-1,1.414-1C15.327,0,16,0.673,16,1.5v5
		C16,7.327,15.327,8,14.5,8c-0.64,0-1.205-0.41-1.414-1H9C8.619,7.001,8.247,7.113,7.926,7.32C8.284,7.6,8.5,8.032,8.5,8.5
		c0,0.739-0.537,1.355-1.242,1.478C7.609,10.6,8.273,10.999,9,11h4.085c0.209-0.59,0.774-1,1.414-1c0.668,0,1.243,0.438,1.432,1.064
		c3.973,0.501,7.064,3.98,7.068,7.998v2.023c0.59,0.209,1,0.774,1,1.414c0,0.827-0.673,1.5-1.5,1.5H17.5z M17.5,22
		c-0.276,0-0.5,0.224-0.5,0.5s0.224,0.5,0.5,0.5h5c0.276,0,0.5-0.224,0.5-0.5S22.776,22,22.5,22H17.5z M22,21v-1.937
		c-0.004-3.502-2.564-6.455-6-6.98v4.109c1.201,0.442,1.998,1.573,2,2.87V21H22z M14.5,11c-0.276,0-0.5,0.224-0.5,0.5v5
		c0,0.276,0.224,0.5,0.5,0.5s0.5-0.224,0.5-0.5v-5C15,11.224,14.776,11,14.5,11z M2.074,10C2.571,13.436,5.501,15.996,9,16h4v-4H9
		c-1.269-0.001-2.406-0.815-2.828-2H2.074z M1.5,8C1.224,8,1,8.224,1,8.5S1.224,9,1.5,9H7c0.276,0,0.5-0.224,0.5-0.5S7.276,8,7,8
		H1.5z M14.5,1C14.224,1,14,1.224,14,1.5v5C14,6.776,14.224,7,14.5,7S15,6.776,15,6.5v-5C15,1.224,14.776,1,14.5,1z M6.775,7
		c0.57-0.635,1.374-0.998,2.224-1H13V2H9C5.891,2.004,3.177,4.044,2.292,7H6.775z"/>
</g>
</svg>
