<?xml version="1.0" encoding="utf-8"?>
<!-- Generator: Adobe Illustrator 22.1.0, SVG Export Plug-In . SVG Version: 6.00 Build 0)  -->
<svg version="1.1" id="Layer_1" xmlns="http://www.w3.org/2000/svg" xmlns:xlink="http://www.w3.org/1999/xlink" x="0px" y="0px"
	 viewBox="0 0 24 24" style="enable-background:new 0 0 24 24;" xml:space="preserve">
<g>
	<title>receipt-register</title>
	<path d="M3.5,24C2.673,24,2,23.327,2,22.5v-21C2,0.673,2.673,0,3.5,0h5C9.327,0,10,0.673,10,1.5v5.725
		c1.385,0.262,2.702,0.746,3.921,1.44l0.389-0.701l-0.033-0.017c-0.247-0.123-0.347-0.424-0.224-0.671C14.138,7.106,14.31,7,14.5,7
		c0.077,0,0.154,0.018,0.224,0.053l1,0.5c0.119,0.06,0.208,0.162,0.251,0.289s0.033,0.262-0.027,0.382
		C15.862,8.394,15.69,8.5,15.5,8.5c-0.077,0-0.154-0.018-0.223-0.053l-0.071-0.036l-0.434,0.782
		c0.544,0.369,1.059,0.778,1.535,1.221l0.624-0.76L16.877,9.61c-0.209-0.179-0.233-0.496-0.054-0.705
		c0.095-0.111,0.234-0.175,0.38-0.175c0.119,0,0.234,0.043,0.325,0.12l0.85,0.728c0.209,0.179,0.233,0.496,0.054,0.705
		c-0.095,0.111-0.233,0.175-0.38,0.175c-0.119,0-0.234-0.043-0.325-0.12l-0.037-0.032l-0.675,0.822
		c0.375,0.409,0.726,0.846,1.048,1.305l0.797-0.526l-0.043-0.074c-0.139-0.238-0.06-0.545,0.178-0.684
		c0.076-0.045,0.164-0.069,0.253-0.069c0.177,0,0.342,0.095,0.431,0.247l0.566,0.965c0.068,0.115,0.086,0.25,0.053,0.379
		c-0.034,0.129-0.116,0.238-0.231,0.305c-0.076,0.045-0.164,0.069-0.253,0.069c-0.177,0-0.343-0.095-0.432-0.247l-0.016-0.027
		l-0.761,0.503c0.861,1.457,1.415,3.044,1.647,4.727H20.5c0.827,0,1.5,0.673,1.5,1.5v3c0,0.827-0.673,1.5-1.5,1.5H3.5z M3,22.5
		C3,22.776,3.224,23,3.5,23h17c0.276,0,0.5-0.224,0.5-0.5v-3c0-0.276-0.224-0.5-0.5-0.5H17c-0.276,0-0.5-0.224-0.5-0.5
		S16.724,18,17,18h2.242c-0.761-5.043-4.761-9.078-9.819-9.863c-0.019-0.003-0.05-0.012-0.071-0.021
		C9.328,8.109,9.3,8.099,9.271,8.084C9.242,8.069,9.217,8.052,9.192,8.032C9.166,8.011,9.143,7.99,9.122,7.966
		c-0.02-0.023-0.037-0.048-0.053-0.077c-0.016-0.029-0.03-0.056-0.04-0.087c-0.01-0.03-0.016-0.058-0.019-0.083
		C9.006,7.702,9,7.675,9,7.643V5H3v13h5.5C8.776,18,9,18.224,9,18.5S8.776,19,8.5,19H3V22.5z M9,4V1.5C9,1.224,8.776,1,8.5,1h-5
		C3.224,1,3,1.224,3,1.5V4H9z"/>
	<path d="M7.75,16c-1.783,0-3.233-1.45-3.233-3.233s1.45-3.233,3.233-3.233s3.233,1.45,3.233,3.233c0,0.276-0.224,0.5-0.5,0.5
		s-0.5-0.224-0.5-0.5c0-1.231-1.002-2.233-2.233-2.233s-2.233,1.002-2.233,2.233C5.517,13.998,6.519,15,7.75,15
		c0.276,0,0.5,0.224,0.5,0.5S8.026,16,7.75,16z"/>
	<path d="M13.25,20c-0.965,0-1.75-0.785-1.75-1.75c0-0.308,0.08-0.604,0.232-0.868l-4.083-4.026
		c-0.095-0.094-0.148-0.219-0.149-0.352c-0.001-0.134,0.05-0.26,0.144-0.355C7.739,12.553,7.865,12.5,8,12.5
		c0.132,0,0.257,0.051,0.351,0.144l4.105,4.047c0.245-0.125,0.516-0.191,0.794-0.191c0.965,0,1.75,0.785,1.75,1.75
		S14.215,20,13.25,20z M13.25,17.5c-0.414,0-0.75,0.336-0.75,0.75S12.836,19,13.25,19S14,18.664,14,18.25S13.664,17.5,13.25,17.5z"
		/>
</g>
</svg>
