<?xml version="1.0" encoding="utf-8"?>
<!-- Generator: Adobe Illustrator 22.1.0, SVG Export Plug-In . SVG Version: 6.00 Build 0)  -->
<svg version="1.1" id="Layer_1" xmlns="http://www.w3.org/2000/svg" xmlns:xlink="http://www.w3.org/1999/xlink" x="0px" y="0px"
	 viewBox="0 0 24 24" style="enable-background:new 0 0 24 24;" xml:space="preserve">
<g>
	<title>receipt-dollar</title>
	<path d="M12,23.792c-0.268,0-0.519-0.104-0.708-0.293L10,22.206l-1.289,1.289c-0.005,0.005-0.014,0.014-0.019,0.018
		C8.518,23.688,8.267,23.792,8,23.792c-0.268,0-0.519-0.104-0.708-0.293L6,22.206l-0.792,0.792
		c-0.186,0.187-0.444,0.293-0.707,0.293c-0.552,0-1-0.448-1-1V1.706c0-0.268,0.104-0.519,0.294-0.708
		C3.983,0.81,4.233,0.707,4.5,0.707c0.268,0,0.519,0.104,0.708,0.294L6,1.792L7.292,0.5C7.482,0.311,7.733,0.207,8,0.207
		c0.268,0,0.519,0.104,0.708,0.293L10,1.792L11.292,0.5C11.482,0.311,11.733,0.207,12,0.207c0.268,0,0.519,0.104,0.708,0.293
		L14,1.792L15.292,0.5C15.487,0.308,15.736,0.207,16,0.207c0.268,0,0.519,0.104,0.708,0.294L18,1.792L18.792,1
		c0.186-0.186,0.444-0.293,0.708-0.293c0.267,0,0.518,0.104,0.707,0.293c0.189,0.189,0.293,0.44,0.293,0.707v20.586
		c0,0.264-0.107,0.522-0.294,0.708c-0.188,0.188-0.439,0.292-0.706,0.292c0,0,0,0,0,0c-0.268,0-0.519-0.104-0.708-0.293L18,22.206
		l-1.292,1.292c-0.189,0.189-0.44,0.293-0.708,0.293c-0.268,0-0.519-0.104-0.708-0.293L14,22.206l-1.292,1.292
		C12.518,23.688,12.267,23.792,12,23.792z M14,20.999c0.134,0,0.259,0.052,0.354,0.146L16,22.792l1.647-1.646
		c0.094-0.094,0.22-0.146,0.354-0.146s0.259,0.052,0.354,0.146l1.146,1.146l0-20.585l-1.146,1.146
		C18.259,2.947,18.134,2.999,18,2.999s-0.259-0.052-0.354-0.146L16,1.207c-0.004,0.004-0.019,0.018-0.023,0.021l-1.624,1.625
		C14.259,2.947,14.134,2.999,14,2.999s-0.259-0.052-0.354-0.146L12,1.207l-1.647,1.646C10.259,2.947,10.134,2.999,10,2.999
		S9.741,2.947,9.646,2.853L8,1.207L6.354,2.853C6.259,2.947,6.134,2.999,6,2.999S5.741,2.947,5.646,2.853L4.5,1.707l0,20.585
		l1.146-1.146c0.094-0.094,0.22-0.146,0.354-0.146s0.259,0.052,0.354,0.146L8,22.792c0.002-0.002,0.019-0.017,0.021-0.019
		l1.626-1.627c0.094-0.094,0.22-0.146,0.354-0.146s0.259,0.052,0.354,0.146L12,22.792l1.647-1.646
		C13.741,21.051,13.866,20.999,14,20.999z"/>
	<path d="M7,6.999c-0.276,0-0.5-0.224-0.5-0.5s0.224-0.5,0.5-0.5h8c0.276,0,0.5,0.224,0.5,0.5s-0.224,0.5-0.5,0.5H7z"/>
	<path d="M7,9.999c-0.276,0-0.5-0.224-0.5-0.5s0.224-0.5,0.5-0.5h4c0.276,0,0.5,0.224,0.5,0.5s-0.224,0.5-0.5,0.5H7z"/>
	<path d="M7,12.999c-0.276,0-0.5-0.224-0.5-0.5c0-0.276,0.224-0.5,0.5-0.5h4c0.276,0,0.5,0.224,0.5,0.5c0,0.276-0.224,0.5-0.5,0.5H7
		z"/>
	<path d="M7,15.999c-0.276,0-0.5-0.224-0.5-0.5s0.224-0.5,0.5-0.5h3c0.276,0,0.5,0.224,0.5,0.5s-0.224,0.5-0.5,0.5H7z"/>
	<path d="M15,18.999c-0.276,0-0.5-0.224-0.5-0.5v-0.771c-0.612-0.355-1-1.018-1-1.729c0-0.276,0.224-0.5,0.5-0.5s0.5,0.224,0.5,0.5
		c0,0.552,0.448,1,1,1s1-0.448,1-1s-0.448-1-1-1c-1.103,0-2-0.897-2-2s0.897-2,2-2v-0.5c0-0.276,0.224-0.5,0.5-0.5
		s0.5,0.224,0.5,0.5v0.771c0.612,0.356,1,1.018,1,1.729c0,0.276-0.224,0.5-0.5,0.5s-0.5-0.224-0.5-0.5c0-0.552-0.448-1-1-1
		s-1,0.448-1,1s0.448,1,1,1c1.103,0,2,0.897,2,2s-0.897,2-2,2v0.5C15.5,18.775,15.276,18.999,15,18.999z"/>
</g>
</svg>
