<?xml version="1.0" encoding="utf-8"?>
<!-- Generator: Adobe Illustrator 22.1.0, SVG Export Plug-In . SVG Version: 6.00 Build 0)  -->
<svg version="1.1" id="Layer_1" xmlns="http://www.w3.org/2000/svg" xmlns:xlink="http://www.w3.org/1999/xlink" x="0px" y="0px"
	 viewBox="0 0 24 24" style="enable-background:new 0 0 24 24;" xml:space="preserve">
<g>
	<title>receipt-1</title>
	<path d="M2,24.001c-0.215,0-0.406-0.137-0.474-0.341c-0.068-0.204,0.001-0.428,0.173-0.558l0.109-0.082
		C2.867,22.225,3.5,20.96,3.5,19.637V3.001c0-1.654,1.346-3,3-3h12.987c0.716,0.008,1.373,0.24,1.904,0.671
		c0.622,0.505,1.01,1.222,1.093,2.019c0.01,0.103,0.016,0.206,0.016,0.31v3.5c0,0.827-0.673,1.5-1.5,1.5h-3.5v11.636
		c0,1.636-0.782,3.2-2.091,4.182L15.301,23.9c-0.085,0.065-0.192,0.101-0.301,0.101H2z M14.833,23.001
		c1.044-0.796,1.667-2.051,1.667-3.364V3.144c-0.017-0.798,0.277-1.563,0.807-2.143H6.5c-1.103,0-2,0.897-2,2v16.636
		c0,1.229-0.442,2.426-1.228,3.364H14.833z M21,7.001c0.276,0,0.5-0.224,0.5-0.5v-3.5c0-0.069-0.003-0.138-0.01-0.206
		c-0.055-0.532-0.314-1.01-0.729-1.347C20.403,1.158,19.973,1.003,19.516,1l-0.062,0.001c-0.053,0.001-0.107,0.005-0.161,0.01
		c-1.041,0.145-1.816,1.058-1.793,2.122v3.868H21z"/>
	<path d="M6.5,5.001c-0.276,0-0.5-0.224-0.5-0.5s0.224-0.5,0.5-0.5H9c0.276,0,0.5,0.224,0.5,0.5s-0.224,0.5-0.5,0.5H6.5z"/>
	<path d="M8.5,8.001c-0.276,0-0.5-0.224-0.5-0.5s0.224-0.5,0.5-0.5H14c0.276,0,0.5,0.224,0.5,0.5s-0.224,0.5-0.5,0.5H8.5z"/>
	<path d="M6.5,11.001c-0.276,0-0.5-0.224-0.5-0.5s0.224-0.5,0.5-0.5H14c0.276,0,0.5,0.224,0.5,0.5s-0.224,0.5-0.5,0.5H6.5z"/>
	<path d="M6.5,14.001c-0.276,0-0.5-0.224-0.5-0.5s0.224-0.5,0.5-0.5H14c0.276,0,0.5,0.224,0.5,0.5s-0.224,0.5-0.5,0.5H6.5z"/>
	<path d="M6.5,17.001c-0.276,0-0.5-0.224-0.5-0.5s0.224-0.5,0.5-0.5H14c0.276,0,0.5,0.224,0.5,0.5s-0.224,0.5-0.5,0.5H6.5z"/>
	<path d="M6.5,20.001c-0.276,0-0.5-0.224-0.5-0.5s0.224-0.5,0.5-0.5H11c0.276,0,0.5,0.224,0.5,0.5s-0.224,0.5-0.5,0.5H6.5z"/>
</g>
</svg>
