<?xml version="1.0" encoding="utf-8"?>
<!-- Generator: Adobe Illustrator 22.1.0, SVG Export Plug-In . SVG Version: 6.00 Build 0)  -->
<svg version="1.1" id="Layer_1" xmlns="http://www.w3.org/2000/svg" xmlns:xlink="http://www.w3.org/1999/xlink" x="0px" y="0px"
	 viewBox="0 0 24 24" style="enable-background:new 0 0 24 24;" xml:space="preserve">
<g>
	<title>library-music-1</title>
	<path d="M15.5,10.11c-1.103,0-2-0.897-2-2s0.897-2,2-2c0.357,0,0.699,0.093,1,0.268V2.891c0-0.689,0.467-1.287,1.135-1.455l4-1
		c0.12-0.03,0.243-0.046,0.366-0.046c0.269,0,0.535,0.074,0.769,0.214c0.344,0.206,0.587,0.533,0.684,0.922
		c0.03,0.118,0.045,0.241,0.045,0.364V6.61c0,1.103-0.897,2-2,2s-2-0.897-2-2s0.897-2,2-2c0.357,0,0.699,0.093,1,0.268V1.891
		c0-0.041-0.005-0.082-0.015-0.121c-0.032-0.13-0.114-0.239-0.228-0.308c-0.078-0.047-0.167-0.072-0.255-0.072
		c-0.041,0-0.082,0.005-0.123,0.015l-4.001,1C17.656,2.462,17.5,2.661,17.5,2.891V8.11C17.5,9.213,16.603,10.11,15.5,10.11z
		 M15.5,7.11c-0.552,0-1,0.449-1,1s0.448,1,1,1s1-0.449,1-1S16.052,7.11,15.5,7.11z M21.5,5.61c-0.552,0-1,0.449-1,1s0.448,1,1,1
		s1-0.449,1-1S22.052,5.61,21.5,5.61z"/>
	<path d="M2,23.61c-0.827,0-1.5-0.673-1.5-1.5v-16c0-0.827,0.673-1.5,1.5-1.5h8c0.276,0,0.5,0.224,0.5,0.5s-0.224,0.5-0.5,0.5H2
		c-0.276,0-0.5,0.224-0.5,0.5v1.5h5c0.551,0,1,0.449,1,1v5h7v-0.5c0-0.276,0.224-0.5,0.5-0.5s0.5,0.224,0.5,0.5v9
		c0,0.827-0.673,1.5-1.5,1.5H2z M14,22.61c0.276,0,0.5-0.224,0.5-0.5v-7.5h-13v2h2c0.551,0,1,0.448,1,1h2c0-0.552,0.449-1,1-1h2
		c0.551,0,1,0.448,1,1v5H14z M9.5,22.61v-5h-2l0,5H9.5z M6.5,22.61v-4h-2v4H6.5z M1.5,22.11c0,0.276,0.224,0.5,0.5,0.5h1.5v-5h-2
		V22.11z M6.5,13.61v-5h-2v5H6.5z M3.5,13.61v-5h-2v5H3.5z"/>
	<path d="M9.439,13.935c-0.464,0-0.863-0.315-0.972-0.766L7.531,9.281C7.402,8.745,7.733,8.203,8.269,8.074l1.458-0.351
		c0.077-0.019,0.156-0.028,0.234-0.028c0.464,0,0.864,0.315,0.972,0.766l0.936,3.889c0.063,0.26,0.02,0.528-0.119,0.756
		c-0.14,0.228-0.359,0.388-0.619,0.45l-1.458,0.351C9.597,13.926,9.518,13.935,9.439,13.935z M9.96,8.696L8.503,9.047l0.936,3.889
		l1.458-0.351L9.96,8.696l0-0.25L9.96,8.696z"/>
</g>
</svg>
