<?xml version="1.0" encoding="utf-8"?>
<!-- Generator: Adobe Illustrator 22.1.0, SVG Export Plug-In . SVG Version: 6.00 Build 0)  -->
<svg version="1.1" id="Layer_1" xmlns="http://www.w3.org/2000/svg" xmlns:xlink="http://www.w3.org/1999/xlink" x="0px" y="0px"
	 viewBox="0 0 24 24" style="enable-background:new 0 0 24 24;" xml:space="preserve">
<g>
	<title>library-maths</title>
	<path d="M21.5,5.006c-0.276,0-0.5-0.224-0.5-0.5v-1.5h-1.5c-0.276,0-0.5-0.224-0.5-0.5s0.224-0.5,0.5-0.5H21v-1.5
		c0-0.276,0.224-0.5,0.5-0.5S22,0.23,22,0.506v1.5h1.5c0.276,0,0.5,0.224,0.5,0.5s-0.224,0.5-0.5,0.5H22v1.5
		C22,4.782,21.776,5.006,21.5,5.006z"/>
	<path d="M18.125,10.006c-0.276,0-0.5-0.224-0.5-0.5s0.224-0.5,0.5-0.5h4c0.276,0,0.5,0.224,0.5,0.5s-0.224,0.5-0.5,0.5H18.125z"/>
	<path d="M20.125,8.256c-0.414,0-0.75-0.336-0.75-0.75c0.001-0.203,0.08-0.392,0.222-0.533c0.141-0.14,0.328-0.217,0.527-0.217
		c0.005,0,0.01,0,0.014,0c0.404,0.009,0.73,0.336,0.737,0.737c0,0.004,0,0.022,0,0.027C20.867,7.927,20.533,8.256,20.125,8.256z"/>
	<path d="M20.125,12.256c-0.414,0-0.75-0.337-0.75-0.75c0.001-0.203,0.08-0.392,0.222-0.533c0.141-0.14,0.328-0.217,0.527-0.217
		c0.005,0,0.01,0,0.014,0c0.404,0.009,0.73,0.336,0.737,0.737c0,0.004,0,0.022,0,0.027C20.867,11.927,20.533,12.256,20.125,12.256z"
		/>
	<path d="M15.828,9.006c-0.134,0-0.259-0.052-0.354-0.146l-1.06-1.061L13.354,8.86C13.259,8.954,13.134,9.006,13,9.006
		s-0.259-0.052-0.354-0.146C12.552,8.765,12.5,8.64,12.5,8.506c0-0.134,0.052-0.259,0.146-0.354l1.061-1.061l-1.061-1.061
		C12.552,5.936,12.5,5.811,12.5,5.677c0-0.134,0.052-0.259,0.146-0.354S12.866,5.177,13,5.177s0.259,0.052,0.354,0.146l1.061,1.061
		l1.06-1.061c0.094-0.094,0.22-0.146,0.354-0.146l0,0c0.134,0,0.259,0.052,0.354,0.146c0.094,0.094,0.146,0.22,0.146,0.354
		c0,0.134-0.052,0.259-0.146,0.354l-1.061,1.061l1.061,1.061c0.094,0.094,0.146,0.22,0.146,0.354c0,0.134-0.052,0.259-0.146,0.354
		S15.961,9.006,15.828,9.006z"/>
	<path d="M11.5,4.006c-0.167,0-0.323-0.083-0.416-0.223l-1-1.5C9.931,2.054,9.993,1.743,10.223,1.59
		c0.082-0.055,0.178-0.084,0.277-0.084c0.168,0,0.323,0.083,0.416,0.223l0.433,0.649l0.677-2.03
		c0.068-0.204,0.259-0.342,0.474-0.342H16c0.276,0,0.5,0.224,0.5,0.5s-0.224,0.5-0.5,0.5h-3.14l-0.886,2.658
		c-0.06,0.18-0.22,0.312-0.408,0.337C11.544,4.005,11.522,4.006,11.5,4.006z"/>
	<path d="M1.5,24C0.673,24,0,23.327,0,22.5v-16C0,5.673,0.673,5,1.5,5h8C9.776,5,10,5.224,10,5.5S9.776,6,9.5,6h-8
		C1.224,6,1,6.224,1,6.5v1.497h2.5c0.013,0,0.027,0.001,0.042,0.004L6,8c0.551,0,1,0.449,1,1v4.997h7V13.5
		c0-0.276,0.224-0.5,0.5-0.5s0.5,0.224,0.5,0.5v9c0,0.827-0.673,1.5-1.5,1.5H1.5z M13.5,23c0.276,0,0.5-0.224,0.5-0.5v-7.503H6.538
		C6.525,14.999,6.511,15,6.5,15c-0.013,0-0.029-0.002-0.045-0.004L1,14.997V17h2c0.55,0,0.998,0.447,1,0.997h2
		C6.002,17.447,6.45,17,7,17h2c0.551,0,1,0.448,1,1v5H13.5z M9,23v-5H7l0,5H9z M6,23v-4.003H4V23H6z M1,22.5
		C1,22.776,1.224,23,1.5,23H3v-5H1V22.5z M6,13.997V9H4v4.997H6z M3,13.997v-5H1v5H3z"/>
	<path d="M8.939,14.322c-0.464,0-0.864-0.315-0.973-0.766L7.031,9.667C6.968,9.408,7.01,9.139,7.15,8.911
		c0.14-0.228,0.359-0.388,0.619-0.45L9.227,8.11c0.077-0.019,0.157-0.028,0.236-0.028c0.183,0,0.363,0.051,0.52,0.148
		c0.228,0.139,0.387,0.359,0.45,0.619l0.936,3.889c0.062,0.26,0.02,0.528-0.12,0.756c-0.14,0.228-0.359,0.388-0.619,0.451
		l-1.458,0.351C9.095,14.313,9.017,14.322,8.939,14.322z M8.003,9.433l0.936,3.889l1.458-0.351L9.461,9.082L8.003,9.433z"/>
</g>
</svg>
