<?xml version="1.0" encoding="utf-8"?>
<!-- Generator: Adobe Illustrator 22.1.0, SVG Export Plug-In . SVG Version: 6.00 Build 0)  -->
<svg version="1.1" id="Layer_1" xmlns="http://www.w3.org/2000/svg" xmlns:xlink="http://www.w3.org/1999/xlink" x="0px" y="0px"
	 viewBox="0 0 24 24" style="enable-background:new 0 0 24 24;" xml:space="preserve">
<g>
	<title>read-search</title>
	<path d="M8.5,19.386c-0.06,0-0.119-0.01-0.175-0.031c-2.202-0.825-4.51-1.277-6.859-1.342C0.649,17.991,0.005,17.334,0,16.517V2.01
		c0-0.4,0.156-0.777,0.439-1.061C0.722,0.666,1.099,0.51,1.5,0.51c5.449,0.168,8.856,1.463,10,2.758
		c1.142-1.295,4.542-2.59,9.967-2.758c0.003,0,0.023,0,0.025,0c0.402,0,0.765,0.146,1.05,0.421C22.831,1.21,22.993,1.584,23,1.985
		l0,15.51c0,0.276-0.224,0.5-0.5,0.5s-0.5-0.224-0.5-0.5V2.01c-0.002-0.14-0.055-0.266-0.153-0.36
		c-0.094-0.091-0.214-0.141-0.34-0.141C16.061,1.679,12,3.225,12,4.494v0.5c0,0.276-0.224,0.5-0.5,0.5S11,5.27,11,4.994v-0.5
		c0-1.27-4.062-2.816-9.498-2.984c-0.134,0-0.259,0.051-0.355,0.147C1.052,1.751,1,1.877,1,2.01v14.503
		c0.002,0.272,0.218,0.493,0.493,0.5c2.461,0.069,4.878,0.541,7.182,1.405c0.258,0.097,0.389,0.386,0.293,0.644
		C8.896,19.256,8.708,19.386,8.5,19.386z"/>
	<path d="M9,7.234c-0.055,0-0.11-0.009-0.163-0.027C6.785,6.503,4.645,6.095,2.477,5.994C2.201,5.981,1.988,5.746,2,5.471
		c0.013-0.267,0.237-0.476,0.51-0.476c2.276,0.106,4.51,0.532,6.652,1.267c0.261,0.089,0.4,0.374,0.311,0.635
		C9.404,7.098,9.214,7.234,9,7.234z"/>
	<path d="M7.022,9.639c-0.037,0-0.074-0.004-0.11-0.012C5.455,9.298,3.961,9.085,2.469,8.993c-0.275-0.017-0.485-0.254-0.469-0.53
		c0.016-0.263,0.236-0.469,0.5-0.469c0.005,0,0.023,0,0.028,0.001C4.074,8.09,5.623,8.311,7.132,8.651
		C7.401,8.712,7.57,8.98,7.51,9.249C7.458,9.479,7.257,9.639,7.022,9.639z"/>
	<path d="M5.935,12.413c-0.03,0-0.06-0.003-0.09-0.008c-1.113-0.201-2.25-0.339-3.377-0.412c-0.275-0.018-0.484-0.256-0.467-0.531
		c0.017-0.263,0.236-0.468,0.498-0.468c0.006,0,0.028,0.001,0.034,0.001c1.166,0.075,2.341,0.218,3.491,0.426
		c0.131,0.024,0.246,0.097,0.322,0.207c0.076,0.11,0.105,0.242,0.082,0.374C6.384,12.24,6.177,12.413,5.935,12.413z"/>
	<path d="M6.088,15.441c-0.031,0-0.061-0.003-0.093-0.009c-1.161-0.215-2.349-0.363-3.528-0.439
		c-0.275-0.018-0.484-0.256-0.467-0.531c0.017-0.262,0.238-0.468,0.504-0.468c0.005,0,0.022,0,0.027,0.001
		c1.221,0.079,2.448,0.232,3.647,0.454c0.131,0.024,0.245,0.098,0.321,0.208s0.104,0.243,0.08,0.375
		C6.536,15.269,6.329,15.441,6.088,15.441z"/>
	<path d="M16.541,6.515c-0.237,0-0.443-0.169-0.49-0.401c-0.054-0.271,0.122-0.535,0.392-0.589c1.323-0.266,2.677-0.444,4.026-0.53
		c0.005,0,0.028-0.001,0.033-0.001c0.263,0,0.481,0.206,0.498,0.469c0.018,0.275-0.192,0.513-0.467,0.53
		c-1.304,0.083-2.613,0.255-3.892,0.512C16.606,6.512,16.573,6.515,16.541,6.515z"/>
	<path d="M19.422,9.084c-0.257,0-0.471-0.193-0.497-0.449c-0.028-0.275,0.173-0.52,0.447-0.548c0.351-0.036,0.72-0.067,1.096-0.092
		c0.005,0,0.027-0.001,0.032-0.001c0.262,0,0.482,0.205,0.499,0.467c0.018,0.275-0.191,0.514-0.466,0.532
		c-0.362,0.024-0.718,0.053-1.06,0.088C19.458,9.083,19.44,9.084,19.422,9.084z"/>
	<path d="M23.5,23.494c-0.134,0-0.259-0.052-0.354-0.146l-5.419-5.421c-1.179,1.012-2.671,1.567-4.227,1.567
		c-3.584,0-6.5-2.916-6.5-6.5s2.916-6.5,6.5-6.5c3.584,0,6.5,2.916,6.5,6.5c0,1.556-0.554,3.047-1.566,4.226l5.419,5.421
		C23.948,22.735,24,22.861,24,22.994s-0.052,0.259-0.146,0.354S23.634,23.494,23.5,23.494z M13.5,7.494c-3.033,0-5.5,2.467-5.5,5.5
		c0,3.033,2.467,5.5,5.5,5.5s5.5-2.467,5.5-5.5C19,9.961,16.533,7.494,13.5,7.494z"/>
	<path d="M12,16.494c-0.276,0-0.5-0.224-0.5-0.5s0.224-0.5,0.5-0.5h1v-4h-1v1.5c0,0.276-0.224,0.5-0.5,0.5s-0.5-0.224-0.5-0.5v-1.5
		c0-0.551,0.449-1,1-1h3c0.552,0,1,0.449,1,1v1.5c0,0.276-0.224,0.5-0.5,0.5s-0.5-0.224-0.5-0.5v-1.5h-1v4h1
		c0.276,0,0.5,0.224,0.5,0.5s-0.224,0.5-0.5,0.5H12z"/>
</g>
</svg>
