<?xml version="1.0" encoding="utf-8"?>
<!-- Generator: Adobe Illustrator 22.1.0, SVG Export Plug-In . SVG Version: 6.00 Build 0)  -->
<svg version="1.1" id="Layer_1" xmlns="http://www.w3.org/2000/svg" xmlns:xlink="http://www.w3.org/1999/xlink" x="0px" y="0px"
	 viewBox="0 0 24 24" style="enable-background:new 0 0 24 24;" xml:space="preserve">
<g>
	<title>read-glasses</title>
	<path d="M2.5,21C1.121,21,0,19.878,0,18.5v-2C0,15.121,1.121,14,2.5,14h21c0.276,0,0.5,0.224,0.5,0.5S23.776,15,23.5,15h-21
		C1.673,15,1,15.673,1,16.5v2C1,19.327,1.673,20,2.5,20h21c0.276,0,0.5,0.224,0.5,0.5S23.776,21,23.5,21H2.5z"/>
	<path d="M3.5,17.001c-0.276,0-0.5-0.224-0.5-0.5s0.224-0.5,0.5-0.5h19c0.276,0,0.5,0.224,0.5,0.5s-0.224,0.5-0.5,0.5H3.5z"/>
	<path d="M3.5,19.001c-0.276,0-0.5-0.224-0.5-0.5s0.224-0.5,0.5-0.5h19c0.276,0,0.5,0.224,0.5,0.5s-0.224,0.5-0.5,0.5H3.5z"/>
	<path d="M18,12.001c-2.481,0-4.5-2.019-4.5-4.5c0-0.552-0.448-1.001-1-1.001c-0.551,0-1,0.449-1,1c0,2.482-2.019,4.501-4.5,4.501
		c-2.298,0-4.216-1.739-4.467-4H1.5c-0.276,0-0.5-0.224-0.5-0.5s0.224-0.5,0.5-0.5h1.033c0.251-2.261,2.169-4,4.467-4
		c1.903,0,3.583,1.198,4.224,2.961C11.579,5.664,12.026,5.5,12.5,5.5c0.474,0,0.921,0.165,1.276,0.462
		C14.417,4.199,16.097,3.001,18,3.001c2.298,0,4.216,1.739,4.467,4H23.5c0.276,0,0.5,0.224,0.5,0.5s-0.224,0.5-0.5,0.5h-1.033
		C22.216,10.262,20.298,12.001,18,12.001z M18,4.001c-1.93,0-3.5,1.57-3.5,3.5s1.57,3.5,3.5,3.5s3.5-1.57,3.5-3.5
		S19.93,4.001,18,4.001z M7,4.001c-1.93,0-3.5,1.57-3.5,3.5s1.57,3.5,3.5,3.5s3.5-1.57,3.5-3.5S8.93,4.001,7,4.001z"/>
</g>
</svg>
