<?xml version="1.0" encoding="utf-8"?>
<!-- Generator: Adobe Illustrator 22.1.0, SVG Export Plug-In . SVG Version: 6.00 Build 0)  -->
<svg version="1.1" id="Layer_1" xmlns="http://www.w3.org/2000/svg" xmlns:xlink="http://www.w3.org/1999/xlink" x="0px" y="0px"
	 viewBox="0 0 24 24" style="enable-background:new 0 0 24 24;" xml:space="preserve">
<g>
	<title>read-music</title>
	<path d="M5.5,24C4.121,24,3,22.878,3,21.5v-19C3,1.121,4.121,0,5.5,0h14C20.327,0,21,0.673,21,1.5v18c0,0.276-0.224,0.5-0.5,0.5
		h-15C4.673,20,4,20.673,4,21.5S4.673,23,5.5,23h15c0.276,0,0.5,0.224,0.5,0.5S20.776,24,20.5,24H5.5z M5.5,1C4.673,1,4,1.673,4,2.5
		v17.001C4.428,19.178,4.952,19,5.5,19H20V1.5C20,1.224,19.776,1,19.5,1H5.5z"/>
	<path d="M6.5,22.001c-0.276,0-0.5-0.224-0.5-0.5s0.224-0.5,0.5-0.5h14c0.276,0,0.5,0.224,0.5,0.5s-0.224,0.5-0.5,0.5H6.5z"/>
	<path d="M10.5,16.501c-1.379,0-2.5-1.122-2.5-2.5s1.121-2.5,2.5-2.5c0.548,0,1.072,0.178,1.5,0.501V5.5c0-0.551,0.448-1,1-1
		c0.215,0,0.428,0.071,0.6,0.2l3.2,2.4c0.107,0.08,0.176,0.197,0.195,0.329C17.014,7.562,16.98,7.693,16.9,7.8
		C16.806,7.925,16.657,8,16.5,8l0,0c-0.109,0-0.213-0.035-0.3-0.1L13,5.5l0,8.5C13,15.379,11.879,16.501,10.5,16.501z M10.5,12.501
		c-0.827,0-1.5,0.673-1.5,1.5s0.673,1.5,1.5,1.5s1.5-0.673,1.5-1.5S11.327,12.501,10.5,12.501z"/>
</g>
</svg>
