<?xml version="1.0" encoding="utf-8"?>
<!-- Generator: Adobe Illustrator 22.1.0, SVG Export Plug-In . SVG Version: 6.00 Build 0)  -->
<svg version="1.1" id="Layer_1" xmlns="http://www.w3.org/2000/svg" xmlns:xlink="http://www.w3.org/1999/xlink" x="0px" y="0px"
	 viewBox="0 0 24 24" style="enable-background:new 0 0 24 24;" xml:space="preserve">
<g>
	<title>read-light-idea</title>
	<path d="M12,24c-0.276,0-0.5-0.224-0.5-0.5c0-1.273-4.076-2.82-9.531-2.985C1.16,20.502,0.5,19.829,0.5,19.015V4.518
		c0-0.4,0.156-0.777,0.44-1.06S1.6,3.018,2,3.018C7.222,3.179,12.5,4.599,12.5,7V21.81c0.551-0.427,1.324-0.812,2.309-1.147
		c1.928-0.657,4.482-1.063,7.192-1.142c0.276-0.004,0.499-0.229,0.499-0.5V10c0-0.276,0.224-0.5,0.5-0.5s0.5,0.224,0.5,0.5v9.021
		c0,0.814-0.662,1.487-1.476,1.5C16.574,20.68,12.5,22.225,12.5,23.5C12.5,23.775,12.276,24,12,24z M2.006,4.018
		C1.869,4.019,1.742,4.071,1.647,4.165C1.552,4.259,1.5,4.384,1.5,4.518v14.497c0,0.271,0.221,0.496,0.492,0.5
		c3.516,0.106,7.65,0.853,9.508,2.287V7.001C11.5,5.732,7.44,4.187,2.006,4.018z"/>
	<path d="M10,9.921c-0.063,0-0.125-0.012-0.184-0.035C7.787,9.081,5.653,8.614,3.474,8.499C3.34,8.492,3.218,8.433,3.128,8.334
		C3.039,8.235,2.994,8.107,3.001,7.973C3.015,7.708,3.235,7.5,3.501,7.5c0.004,0,0.021,0,0.025,0.001
		c2.288,0.121,4.528,0.611,6.658,1.455c0.124,0.049,0.222,0.144,0.275,0.266c0.053,0.123,0.055,0.259,0.006,0.383
		C10.389,9.797,10.206,9.921,10,9.921z"/>
	<path d="M10,13.324c-0.063,0-0.125-0.012-0.184-0.035c-2.029-0.804-4.163-1.27-6.342-1.385c-0.133-0.007-0.256-0.065-0.345-0.165
		s-0.135-0.228-0.128-0.361c0.014-0.265,0.233-0.474,0.5-0.474c0.004,0,0.021,0,0.026,0.001c2.288,0.12,4.528,0.609,6.658,1.453
		c0.124,0.049,0.222,0.144,0.275,0.266c0.053,0.123,0.055,0.259,0.006,0.383C10.389,13.2,10.206,13.324,10,13.324z"/>
	<path d="M10,16.728c-0.063,0-0.125-0.012-0.184-0.035c-2.029-0.804-4.162-1.27-6.342-1.384c-0.275-0.015-0.488-0.25-0.473-0.526
		c0.014-0.266,0.232-0.474,0.496-0.474c0.005,0,0.026,0.001,0.032,0.001c2.286,0.12,4.526,0.609,6.656,1.453
		c0.256,0.102,0.382,0.393,0.28,0.649C10.389,16.604,10.206,16.728,10,16.728z"/>
	<path d="M17,11c-0.276,0-0.5-0.224-0.5-0.5V9.651c-1.226-0.58-2.005-1.809-2-3.176c0.007-1.922,1.577-3.487,3.5-3.487
		c0.948,0.004,1.826,0.371,2.485,1.034c0.658,0.664,1.019,1.544,1.016,2.478c-0.002,1.357-0.781,2.577-2,3.151V10.5
		c0,0.276-0.224,0.5-0.5,0.5H17z M18.5,10V9.318c0-0.212,0.134-0.401,0.334-0.472c0.995-0.35,1.664-1.293,1.666-2.347
		c0.003-0.669-0.255-1.298-0.726-1.772c-0.47-0.474-1.097-0.736-1.765-0.739L18,3.738v0.25c-1.373,0-2.494,1.117-2.5,2.49
		c-0.004,1.062,0.666,2.013,1.667,2.366c0.199,0.07,0.333,0.26,0.333,0.471V10H18.5z"/>
	<path d="M17,13.001c-0.276,0-0.5-0.224-0.5-0.5c0-0.276,0.224-0.5,0.5-0.5h2c0.276,0,0.5,0.224,0.5,0.5c0,0.276-0.224,0.5-0.5,0.5
		H17z"/>
	<path d="M17.5,15.001c-0.276,0-0.5-0.224-0.5-0.5s0.224-0.5,0.5-0.5h1c0.276,0,0.5,0.224,0.5,0.5s-0.224,0.5-0.5,0.5H17.5z"/>
	<path d="M18,2.001c-0.276,0-0.5-0.224-0.5-0.5v-1c0-0.276,0.224-0.5,0.5-0.5s0.5,0.224,0.5,0.5v1C18.5,1.777,18.276,2.001,18,2.001
		z"/>
	<path d="M21.536,3.466c-0.134,0-0.259-0.052-0.354-0.146s-0.146-0.22-0.146-0.354c0-0.134,0.052-0.259,0.146-0.354l0.707-0.707
		c0.094-0.094,0.22-0.146,0.354-0.146s0.259,0.052,0.354,0.146s0.146,0.22,0.146,0.354c0,0.134-0.052,0.259-0.146,0.354
		l-0.707,0.707C21.795,3.414,21.669,3.466,21.536,3.466z"/>
	<path d="M14.465,3.466c-0.133,0-0.259-0.052-0.353-0.146l-0.708-0.707c-0.195-0.195-0.195-0.512,0-0.707
		c0.094-0.095,0.22-0.147,0.354-0.147c0.133,0,0.259,0.052,0.353,0.146l0.708,0.707c0.195,0.195,0.195,0.512,0,0.707
		C14.725,3.414,14.599,3.466,14.465,3.466z"/>
</g>
</svg>
