<?xml version="1.0" encoding="utf-8"?>
<!-- Generator: Adobe Illustrator 22.1.0, SVG Export Plug-In . SVG Version: 6.00 Build 0)  -->
<svg version="1.1" id="Layer_1" xmlns="http://www.w3.org/2000/svg" xmlns:xlink="http://www.w3.org/1999/xlink" x="0px" y="0px"
	 viewBox="0 0 24 24" style="enable-background:new 0 0 24 24;" xml:space="preserve">
<g>
	<title>read-home-2</title>
	<path d="M7,10.5c-0.151,0-0.292-0.067-0.387-0.184c-0.084-0.103-0.124-0.233-0.11-0.366C6.516,9.817,6.58,9.698,6.684,9.613
		l4.867-3.98c0.266-0.218,0.603-0.338,0.949-0.338c0.346,0,0.683,0.12,0.949,0.338l4.867,3.98c0.104,0.084,0.168,0.204,0.181,0.337
		s-0.026,0.263-0.111,0.366C18.292,10.433,18.15,10.5,18,10.5c-0.115,0-0.228-0.04-0.317-0.113l-4.866-3.98
		c-0.089-0.072-0.201-0.112-0.317-0.112c-0.116,0-0.228,0.04-0.317,0.112l-4.867,3.98C7.228,10.46,7.115,10.5,7,10.5z"/>
	<path d="M9.5,16C8.673,16,8,15.327,8,14.5V11c0-0.276,0.224-0.5,0.5-0.5S9,10.724,9,11v3.5C9,14.776,9.224,15,9.5,15H11v-1.5
		c0-0.827,0.673-1.5,1.5-1.5s1.5,0.673,1.5,1.5V15h1.5c0.276,0,0.5-0.224,0.5-0.5V11c0-0.276,0.224-0.5,0.5-0.5S17,10.724,17,11v3.5
		c0,0.827-0.673,1.5-1.5,1.5H9.5z M13,15v-1.5c0-0.276-0.224-0.5-0.5-0.5c-0.276,0-0.5,0.224-0.5,0.5L13,15z"/>
	<path d="M5.5,24C4.121,24,3,22.878,3,21.5v-19C3,1.121,4.121,0,5.5,0h15C20.776,0,21,0.224,21,0.5v19c0,0.276-0.224,0.5-0.5,0.5
		h-15C4.673,20,4,20.673,4,21.5S4.673,23,5.5,23h15c0.276,0,0.5,0.224,0.5,0.5S20.776,24,20.5,24H5.5z M5.5,1C4.673,1,4,1.673,4,2.5
		v17.001C4.428,19.178,4.952,19,5.5,19H20V1H5.5z"/>
	<path d="M6.5,22.001c-0.276,0-0.5-0.224-0.5-0.5s0.224-0.5,0.5-0.5h14c0.276,0,0.5,0.224,0.5,0.5s-0.224,0.5-0.5,0.5H6.5z"/>
</g>
</svg>
