<?xml version="1.0" encoding="utf-8"?>
<!-- Generator: Adobe Illustrator 22.1.0, SVG Export Plug-In . SVG Version: 6.00 Build 0)  -->
<svg version="1.1" id="Layer_1" xmlns="http://www.w3.org/2000/svg" xmlns:xlink="http://www.w3.org/1999/xlink" x="0px" y="0px"
	 viewBox="0 0 24 24" style="enable-background:new 0 0 24 24;" xml:space="preserve">
<g>
	<title>read-art</title>
	<path d="M5.5,24C4.121,24,3,22.878,3,21.5v-19C3,1.121,4.121,0,5.5,0h14C20.327,0,21,0.673,21,1.5v18c0,0.276-0.224,0.5-0.5,0.5
		h-15C4.673,20,4,20.673,4,21.5S4.673,23,5.5,23h15c0.276,0,0.5,0.224,0.5,0.5S20.776,24,20.5,24H5.5z M5.5,1C4.673,1,4,1.673,4,2.5
		v17.001C4.428,19.178,4.952,19,5.5,19H20V1.5C20,1.224,19.776,1,19.5,1H5.5z"/>
	<path d="M6.5,22.001c-0.276,0-0.5-0.224-0.5-0.5s0.224-0.5,0.5-0.5h14c0.276,0,0.5,0.224,0.5,0.5s-0.224,0.5-0.5,0.5H6.5z"/>
	<path d="M10.023,13.888c-0.221,0-0.453-0.042-0.692-0.126c-1.966-0.563-3.371-2.333-3.483-4.399
		C5.847,8.057,6.441,6.844,7.52,5.935c1.066-0.898,2.479-1.393,3.98-1.393l0.09-0.001c1.52,0,2.979,0.564,4.109,1.588
		c0.099,0.09,0.157,0.212,0.164,0.346s-0.039,0.261-0.129,0.36C15.639,6.94,15.504,7,15.363,7c-0.124,0-0.243-0.046-0.336-0.13
		c-0.946-0.857-2.172-1.329-3.454-1.329l-0.066,0c-2.571,0-4.66,1.702-4.66,3.794c0.088,1.619,1.209,3.02,2.788,3.474
		c0.163,0.057,0.283,0.081,0.391,0.081c0.196,0,0.49-0.074,0.772-0.71c0.15-0.442,0.5-0.833,0.953-1.054
		c0.264-0.128,0.544-0.193,0.834-0.193c0.211,0,0.421,0.035,0.624,0.105c0.255,0.088,0.484,0.226,0.681,0.41l0.112,0.112
		c0.094,0.095,0.146,0.22,0.146,0.354c0,0.134-0.052,0.259-0.147,0.354c-0.094,0.094-0.22,0.146-0.353,0.146l0,0
		c-0.134,0-0.26-0.052-0.354-0.147l-0.1-0.1c-0.082-0.076-0.192-0.142-0.312-0.183c-0.097-0.033-0.197-0.05-0.297-0.05
		c-0.137,0-0.271,0.031-0.396,0.092c-0.218,0.106-0.382,0.291-0.461,0.52C11.236,13.658,10.53,13.888,10.023,13.888z"/>
	<path d="M13.644,16.001c-0.077,0-0.154-0.018-0.223-0.052c-0.12-0.06-0.209-0.163-0.251-0.289s-0.033-0.262,0.027-0.382
		l2.526-5.051c-0.198-0.182-0.352-0.406-0.451-0.658c-0.175-0.444-0.166-0.93,0.025-1.368c0.002-0.005,0.01-0.021,0.013-0.026
		c0.4-0.801,0.924-1.138,1.27-1.361c0.342-0.22,0.423-0.272,0.42-0.6c0.01-0.178,0.07-0.321,0.174-0.429
		c0.115-0.121,0.271-0.189,0.438-0.193c0.001,0,0.001,0,0.002,0c0.174,0,0.332,0.064,0.446,0.172
		c1.083,1.108,1.251,2.776,0.414,4.062c-0.305,0.537-0.896,0.879-1.535,0.879c-0.108,0-0.216-0.01-0.323-0.03l-2.526,5.05
		C14.006,15.895,13.834,16.001,13.644,16.001z M17.78,7.069c-0.179,0.276-0.437,0.442-0.658,0.585
		c-0.313,0.201-0.637,0.41-0.916,0.964c-0.076,0.178-0.079,0.391-0.003,0.585c0.077,0.196,0.226,0.35,0.418,0.434
		c0.101,0.044,0.207,0.066,0.315,0.066c0.282,0,0.544-0.153,0.684-0.399C18.076,8.604,18.125,7.771,17.78,7.069z"/>
	<path d="M9,11c-0.406,0-0.739-0.327-0.749-0.731c0-0.006,0-0.027,0-0.032c0.003-0.195,0.08-0.377,0.217-0.515
		C8.609,9.58,8.797,9.501,8.997,9.5c0,0,0.003,0,0.003,0c0.414,0,0.75,0.336,0.75,0.75c0,0,0,0.002,0,0.002
		C9.748,10.665,9.412,11,9,11z"/>
	<path d="M9.75,8.5C9.342,8.5,9.008,8.171,9,7.765C9,7.76,9,7.742,9,7.737c0.008-0.392,0.323-0.716,0.714-0.734
		C9.726,7.001,9.739,7,9.75,7c0.414,0,0.75,0.336,0.75,0.75c0,0,0,0.002,0,0.002C10.498,8.165,10.162,8.5,9.75,8.5z"/>
	<path d="M12.25,8.001c-0.011,0-0.023-0.001-0.035-0.003c-0.393-0.016-0.704-0.332-0.714-0.729c0-0.006,0-0.027,0-0.032
		c0.003-0.195,0.08-0.377,0.217-0.515c0.141-0.142,0.329-0.221,0.529-0.222c0,0,0.003,0,0.003,0C12.664,6.5,13,6.836,13,7.25
		C13,7.665,12.664,8.001,12.25,8.001z"/>
</g>
</svg>
