<?xml version="1.0" encoding="utf-8"?>
<!-- Generator: Adobe Illustrator 22.1.0, SVG Export Plug-In . SVG Version: 6.00 Build 0)  -->
<svg version="1.1" id="Layer_1" xmlns="http://www.w3.org/2000/svg" xmlns:xlink="http://www.w3.org/1999/xlink" x="0px" y="0px"
	 viewBox="0 0 24 24" style="enable-background:new 0 0 24 24;" xml:space="preserve">
<g>
	<title>read-world</title>
	<path d="M12,24.006c-0.276,0-0.5-0.224-0.5-0.5c0-0.957-2.419-2.884-8.01-3c-0.543,0-0.99-0.448-0.99-1v-8.5
		c0.009-0.553,0.461-1,1.008-1c4.008,0.083,7.26,1.131,8.492,2.703c1.232-1.573,4.482-2.621,8.474-2.703
		c0.569,0.002,1.018,0.438,1.026,0.992v8.508c0,0.552-0.448,1-1,1c-5.583,0.111-8,2.04-8,3C12.5,23.781,12.276,24.006,12,24.006z
		 M3.506,11.006c-0.002,0-0.006,0.004-0.006,0.008v8.492c3.524,0.073,6.497,0.903,8,2.2v-7.706
		C11.5,13.044,9.086,11.121,3.506,11.006L3.506,11.006z M20.493,11.006C14.914,11.12,12.5,13.044,12.5,14v7.704
		c1.502-1.299,4.473-2.128,7.99-2.198l0.01-8.5l-0.012-0.25L20.493,11.006z"/>
	<path d="M10,15.242c-0.058,0-0.115-0.01-0.169-0.029c-1.41-0.504-2.88-0.845-4.368-1.016c-0.274-0.031-0.471-0.279-0.44-0.553
		C5.052,13.39,5.265,13.2,5.519,13.2c0.02,0,0.039,0.001,0.059,0.003c1.564,0.179,3.109,0.538,4.59,1.068
		c0.26,0.093,0.395,0.379,0.303,0.639C10.4,15.108,10.21,15.242,10,15.242z"/>
	<path d="M10,18.242c-0.057,0-0.113-0.01-0.167-0.029c-1.424-0.508-2.908-0.852-4.411-1.023c-0.132-0.015-0.251-0.08-0.334-0.185
		c-0.083-0.104-0.121-0.235-0.106-0.368c0.029-0.253,0.242-0.444,0.496-0.444c0.02,0,0.039,0.001,0.059,0.003
		c1.576,0.179,3.134,0.54,4.631,1.073c0.26,0.093,0.396,0.379,0.303,0.639C10.4,18.108,10.211,18.242,10,18.242z"/>
	<path d="M14,15.242c-0.211,0-0.4-0.134-0.471-0.332c-0.045-0.125-0.038-0.261,0.019-0.381c0.057-0.121,0.158-0.212,0.284-0.257
		c1.496-0.534,3.055-0.896,4.635-1.074c0.02-0.002,0.037-0.003,0.054-0.003c0.255,0,0.469,0.19,0.499,0.443
		c0.031,0.275-0.167,0.523-0.44,0.554c-1.503,0.17-2.987,0.513-4.411,1.022C14.114,15.232,14.058,15.242,14,15.242z"/>
	<path d="M14,18.242c-0.211,0-0.4-0.134-0.471-0.332c-0.045-0.125-0.038-0.261,0.019-0.381c0.057-0.121,0.158-0.212,0.284-0.257
		c1.496-0.534,3.056-0.896,4.636-1.074c0.019-0.002,0.038-0.003,0.056-0.003c0.254,0,0.467,0.19,0.497,0.443
		c0.031,0.275-0.167,0.523-0.44,0.554c-1.503,0.17-2.988,0.514-4.412,1.022C14.114,18.232,14.058,18.242,14,18.242z"/>
	<path d="M19.434,9.5c-0.022,0-0.043-0.001-0.065-0.004c-0.133-0.018-0.251-0.086-0.332-0.192c-0.081-0.106-0.116-0.238-0.098-0.37
		c0.082-0.615,0.082-1.238,0-1.853C18.79,5.969,18.377,4.907,17.743,4h-2.462c-0.23,0-0.429,0.156-0.485,0.379l-0.5,2
		c-0.032,0.129-0.012,0.264,0.057,0.378c0.069,0.115,0.178,0.195,0.308,0.228C14.7,6.995,14.74,7,14.781,7h1.052
		c0.246,0,0.453,0.176,0.493,0.418l0.245,1.469c0.022,0.132-0.009,0.264-0.086,0.373S16.292,9.44,16.16,9.462
		c-0.028,0.005-0.055,0.007-0.082,0.007c-0.246,0-0.453-0.176-0.493-0.418L15.41,8h-0.629c-0.122,0-0.244-0.015-0.362-0.044
		c-0.389-0.097-0.717-0.34-0.923-0.683c-0.206-0.344-0.267-0.747-0.169-1.135l0.5-2C13.993,3.467,14.591,3,15.281,3h1.611
		c-0.203-0.197-0.417-0.383-0.641-0.554c-1.232-0.942-2.697-1.44-4.236-1.44c-0.313,0-0.63,0.021-0.942,0.063
		C8.322,1.436,6.087,3.357,5.296,6.001h2.923c0.69,0,1.288,0.468,1.455,1.137l0.435,1.741c0.067,0.268-0.096,0.54-0.364,0.606
		C9.706,9.495,9.665,9.5,9.624,9.5c-0.23,0-0.429-0.156-0.485-0.379L8.704,7.38C8.648,7.157,8.449,7.001,8.219,7.001H5.073
		C4.979,7.641,4.976,8.29,5.062,8.933c0.036,0.273-0.156,0.525-0.429,0.562C4.61,9.498,4.588,9.5,4.567,9.5
		c-0.25,0-0.463-0.187-0.496-0.434c-0.283-2.118,0.276-4.22,1.574-5.917c1.298-1.698,3.179-2.788,5.297-3.071
		c0.356-0.047,0.718-0.072,1.074-0.072c1.76,0,3.434,0.569,4.843,1.645c1.698,1.298,2.789,3.179,3.071,5.297
		c0.094,0.703,0.094,1.415,0,2.118C19.896,9.313,19.684,9.5,19.434,9.5z"/>
</g>
</svg>
