<?xml version="1.0" encoding="utf-8"?>
<!-- Generator: Adobe Illustrator 22.1.0, SVG Export Plug-In . SVG Version: 6.00 Build 0)  -->
<svg version="1.1" id="Layer_1" xmlns="http://www.w3.org/2000/svg" xmlns:xlink="http://www.w3.org/1999/xlink" x="0px" y="0px"
	 viewBox="0 0 24 24" style="enable-background:new 0 0 24 24;" xml:space="preserve">
<g>
	<title>read-maths</title>
	<path d="M12,24.006c-0.052,0-0.103-0.008-0.152-0.024c-0.017-0.005-0.048-0.02-0.063-0.029c-0.007-0.003-0.02-0.01-0.027-0.014
		c-0.069-0.039-0.125-0.088-0.166-0.148c-0.019-0.026-2.443-3.16-10.098-3.286c-0.545,0-0.992-0.448-0.992-1v-11.5
		c0.008-0.553,0.463-1,1.013-1C2.535,7.02,3.559,7.094,4.565,7.227c0.132,0.017,0.25,0.085,0.332,0.192
		c0.081,0.106,0.116,0.237,0.099,0.37C4.963,8.036,4.75,8.223,4.501,8.223c-0.022,0-0.045-0.001-0.068-0.005
		C3.467,8.091,2.482,8.019,1.508,8.006l-0.007,11.5c2.063,0.034,7.012,0.382,9.999,2.807v-9.807c0-0.276,0.224-0.5,0.5-0.5
		s0.5,0.224,0.5,0.5v9.812c1.286-1.027,4.265-2.718,9.992-2.812l0.008-11.5c-0.309,0.004-0.627,0.015-0.975,0.032
		c0,0-0.001,0-0.001,0c-0.291,0-0.51-0.208-0.523-0.474c-0.007-0.133,0.039-0.261,0.129-0.36c0.09-0.099,0.213-0.157,0.346-0.164
		c0.356-0.018,0.686-0.029,1.008-0.034h0c0.275,0,0.522,0.099,0.71,0.279c0.193,0.185,0.302,0.434,0.307,0.701v11.52
		c0,0.552-0.448,1-1,1c-7.677,0.126-10.071,3.26-10.094,3.292c-0.009,0.012-0.021,0.026-0.035,0.038
		c-0.02,0.024-0.044,0.051-0.079,0.076c-0.014,0.01-0.045,0.027-0.061,0.034c-0.006,0.003-0.021,0.01-0.027,0.013
		c-0.069,0.031-0.136,0.046-0.203,0.046H12z"/>
	<path d="M18.5,5.001c-0.276,0-0.5-0.224-0.5-0.5v-1.5h-1.5c-0.276,0-0.5-0.224-0.5-0.5s0.224-0.5,0.5-0.5H18v-1.5
		c0-0.276,0.224-0.5,0.5-0.5s0.5,0.224,0.5,0.5v1.5h1.5c0.276,0,0.5,0.224,0.5,0.5s-0.224,0.5-0.5,0.5H19v1.5
		C19,4.777,18.775,5.001,18.5,5.001z"/>
	<path d="M10.5,9.001c-0.134,0-0.259-0.052-0.354-0.146l-1.06-1.06l-1.061,1.06c-0.094,0.094-0.22,0.146-0.354,0.146
		S7.413,8.949,7.318,8.855s-0.146-0.22-0.146-0.354s0.052-0.259,0.146-0.354l1.061-1.06L7.318,6.027
		c-0.094-0.094-0.146-0.22-0.146-0.354S7.224,5.414,7.318,5.32s0.22-0.146,0.354-0.146S7.931,5.225,8.025,5.32L9.086,6.38
		l1.06-1.061c0.094-0.094,0.22-0.146,0.354-0.146s0.259,0.052,0.354,0.146S11,5.54,11,5.673s-0.052,0.259-0.146,0.354l-1.06,1.061
		l1.06,1.06C10.948,8.242,11,8.368,11,8.501s-0.052,0.259-0.146,0.354S10.633,9.001,10.5,9.001z"/>
	<path d="M14,9.001c-0.276,0-0.5-0.224-0.5-0.5s0.224-0.5,0.5-0.5h4c0.276,0,0.5,0.224,0.5,0.5s-0.224,0.5-0.5,0.5H14z"/>
	<path d="M16,7.251c-0.012,0-0.025-0.001-0.038-0.003c-0.394-0.018-0.704-0.336-0.712-0.733c0-0.005,0-0.022,0-0.027
		c0.007-0.397,0.316-0.715,0.712-0.735C15.975,5.751,15.988,5.75,16,5.75c0.414,0,0.75,0.336,0.75,0.75
		C16.75,6.915,16.413,7.251,16,7.251z"/>
	<path d="M16,11.251c-0.012,0-0.025-0.001-0.038-0.003c-0.394-0.018-0.704-0.336-0.712-0.733c0-0.005,0-0.022,0-0.027
		c0.007-0.397,0.316-0.715,0.712-0.735C15.975,9.751,15.988,9.75,16,9.75c0.414,0,0.75,0.336,0.75,0.75
		C16.75,10.915,16.413,11.251,16,11.251z"/>
	<path d="M5.5,4.001c-0.167,0-0.323-0.083-0.416-0.223l-1-1.5C4.01,2.167,3.983,2.034,4.01,1.903
		c0.026-0.131,0.102-0.244,0.213-0.318C4.304,1.53,4.4,1.501,4.499,1.501c0.168,0,0.323,0.083,0.417,0.223l0.433,0.649l0.677-2.03
		C6.094,0.138,6.284,0.001,6.5,0.001H10c0.276,0,0.5,0.224,0.5,0.5s-0.224,0.5-0.5,0.5H6.86L5.974,3.659
		c-0.06,0.18-0.22,0.312-0.408,0.337C5.544,4,5.522,4.001,5.5,4.001z"/>
</g>
</svg>
