<?xml version="1.0" encoding="utf-8"?>
<!-- Generator: Adobe Illustrator 22.1.0, SVG Export Plug-In . SVG Version: 6.00 Build 0)  -->
<svg version="1.1" id="Layer_1" xmlns="http://www.w3.org/2000/svg" xmlns:xlink="http://www.w3.org/1999/xlink" x="0px" y="0px"
	 viewBox="0 0 24 24" style="enable-background:new 0 0 24 24;" xml:space="preserve">
<g>
	<title>read-music-instrument</title>
	<path d="M5.5,24C4.121,24,3,22.878,3,21.5v-19C3,1.121,4.121,0,5.5,0h14C20.327,0,21,0.673,21,1.5v18c0,0.276-0.224,0.5-0.5,0.5
		h-15C4.673,20,4,20.673,4,21.5S4.673,23,5.5,23h15c0.276,0,0.5,0.224,0.5,0.5S20.776,24,20.5,24H5.5z M5.5,1C4.673,1,4,1.673,4,2.5
		v17.001C4.428,19.178,4.952,19,5.5,19H20V1.5C20,1.224,19.776,1,19.5,1H5.5z"/>
	<path d="M6.5,22.001c-0.276,0-0.5-0.224-0.5-0.5s0.224-0.5,0.5-0.5h14c0.276,0,0.5,0.224,0.5,0.5s-0.224,0.5-0.5,0.5H6.5z"/>
	<path d="M11.175,15.916c-0.138,0-0.279-0.009-0.418-0.026c-1.901-0.033-3.45-1.482-3.61-3.377
		c-0.091-0.482-0.304-0.972-0.599-1.381c-0.156-0.217-0.217-0.48-0.174-0.742c0.043-0.262,0.186-0.491,0.401-0.646
		C6.88,9.669,6.996,9.616,7.121,9.586l4.022-1.032c0.166-1.624,0.505-4.141,3.016-4.316c0.069-0.005,0.137-0.007,0.204-0.007
		c0.596,0,1.111,0.186,1.532,0.553c0.837,0.73,0.99,1.919,1.015,2.188c0.077,0.377,0.214,0.639,0.387,0.739
		c0.062,0.036,0.132,0.054,0.209,0.054c0.057,0,0.098-0.01,0.106-0.012c0.052-0.017,0.105-0.026,0.159-0.026
		c0.213,0,0.403,0.135,0.472,0.337c0.044,0.125,0.036,0.261-0.022,0.381c-0.058,0.12-0.16,0.211-0.286,0.254
		c-0.018,0.006-0.191,0.065-0.432,0.065l0,0c-0.255,0-0.493-0.063-0.707-0.186c-0.445-0.256-0.739-0.741-0.874-1.441
		c-0.004-0.019-0.007-0.04-0.008-0.06c-0.005-0.077-0.142-1.846-1.559-1.846c-0.042,0-0.085,0.001-0.129,0.004
		c-1.616,0.112-1.917,1.693-2.108,3.603c0.023,0.103,0.012,0.209-0.03,0.305c-0.03,0.308-0.058,0.592-0.093,0.858l-0.257,1.983
		c-0.032,0.248-0.245,0.436-0.495,0.436c-0.022,0-0.044-0.001-0.066-0.004c-0.131-0.017-0.249-0.085-0.33-0.191
		c-0.082-0.106-0.117-0.237-0.1-0.369l0.257-1.983c0.011-0.084,0.021-0.171,0.031-0.259l-3.673,0.943
		c0.385,0.53,0.654,1.16,0.774,1.814c0.119,1.434,1.261,2.508,2.661,2.521h0c0.02,0,0.042,0.002,0.064,0.005
		c0.1,0.013,0.205,0.02,0.306,0.02c0.595,0,1.12-0.225,1.559-0.667c1.169-1.178,1.587-3.692,1.145-6.896
		c-0.019-0.132,0.016-0.264,0.097-0.37c0.081-0.106,0.198-0.175,0.33-0.193c0.023-0.003,0.047-0.005,0.07-0.005
		c0.248,0,0.46,0.186,0.494,0.432c0.491,3.567-0.015,6.315-1.426,7.736C12.811,15.583,12.029,15.916,11.175,15.916z"/>
</g>
</svg>
