<?xml version="1.0" encoding="utf-8"?>
<!-- Generator: Adobe Illustrator 22.1.0, SVG Export Plug-In . SVG Version: 6.00 Build 0)  -->
<svg version="1.1" id="Layer_1" xmlns="http://www.w3.org/2000/svg" xmlns:xlink="http://www.w3.org/1999/xlink" x="0px" y="0px"
	 viewBox="0 0 24 24" style="enable-background:new 0 0 24 24;" xml:space="preserve">
<g>
	<title>igloo-1</title>
	<path d="M1,24c-0.551,0-1-0.448-1-1v-3.5C0,13.264,4.813,8.057,11,7.544V0.5c0-0.171,0.086-0.328,0.229-0.42
		C11.311,0.028,11.404,0,11.5,0c0.072,0,0.141,0.015,0.207,0.045l4.5,2.045c0.243,0.111,0.429,0.31,0.522,0.56
		c0.094,0.25,0.084,0.521-0.026,0.765c-0.1,0.22-0.276,0.396-0.496,0.495L12,5.822V7.5c6.617,0,12,5.383,12,12V23
		c0,0.552-0.448,1-1,1H1z M23,23v-3.5c0-6.065-4.935-11-11-11s-11,4.935-11,11V23h7v-3c0-2.206,1.794-4,4-4s4,1.794,4,4v3H23z
		 M15,23v-3c0-1.654-1.346-3-3-3c-1.654,0-3,1.346-3,3v3H15z M12,4.724L15.793,3L12,1.277V4.724z"/>
</g>
</svg>
