<?xml version="1.0" encoding="utf-8"?>
<!-- Generator: Adobe Illustrator 22.1.0, SVG Export Plug-In . SVG Version: 6.00 Build 0)  -->
<svg version="1.1" id="Layer_1" xmlns="http://www.w3.org/2000/svg" xmlns:xlink="http://www.w3.org/1999/xlink" x="0px" y="0px"
	 viewBox="0 0 24 24" style="enable-background:new 0 0 24 24;" xml:space="preserve">
<g>
	<title>igloo</title>
	<path d="M1,19.5c-0.551,0-1-0.448-1-1v-2c0-0.14,0.005-0.279,0.01-0.417C0.005,16.06,0,16.032,0,16
		c0-0.045,0.008-0.084,0.016-0.114c0.052-1.032,0.239-2.054,0.554-3.039c0.004-0.014,0.008-0.027,0.013-0.039
		c0.349-1.075,0.846-2.094,1.48-3.027C2.085,9.736,2.114,9.694,2.15,9.657c0.824-1.183,1.842-2.199,3.026-3.021
		c0.037-0.035,0.077-0.063,0.12-0.084C7.283,5.209,9.6,4.5,12,4.5c2.4,0,4.718,0.709,6.704,2.052
		c0.043,0.021,0.083,0.05,0.119,0.084c1.185,0.822,2.204,1.839,3.029,3.023c0.033,0.035,0.06,0.073,0.081,0.115
		c0.637,0.939,1.138,1.962,1.487,3.042c0.004,0.011,0.008,0.022,0.01,0.028c0.316,0.987,0.502,2.009,0.555,3.042
		C23.992,15.917,24,15.955,24,16c0,0.033-0.005,0.062-0.01,0.083C23.995,16.222,24,16.36,24,16.5v2c0,0.552-0.448,1-1,1H1z M23,18.5
		v-2h-3v2H23z M19,18.5v-2h-3v2H19z M15,18.5v-3c0-1.654-1.346-3-3-3c-1.654,0-3,1.346-3,3v3H15z M8,18.5v-2H5v2H8z M1,18.5h3v-2H1
		V18.5z M22.952,15.5c-0.062-0.679-0.186-1.35-0.37-2H19v2H22.952z M18,15.5v-2h-2.541c0.355,0.608,0.541,1.291,0.541,2H18z M8,15.5
		c0-0.709,0.186-1.392,0.541-2H6v2H8z M5,15.5v-2H1.418c-0.184,0.65-0.308,1.321-0.37,2H5z M22.245,12.5
		c-0.274-0.701-0.62-1.372-1.03-2H20v2H22.245z M19,12.5v-2H5v2h4.363c0.733-0.646,1.666-1,2.637-1c0.971,0,1.904,0.354,2.637,1H19z
		 M4,12.5v-2H2.785c-0.41,0.628-0.756,1.299-1.03,2H4z M20.478,9.5c-0.628-0.759-1.354-1.43-2.164-2H18v2H20.478z M17,9.5v-2h-5v2
		H17z M11,9.5v-2H7v2H11z M6,9.5v-2H5.686c-0.811,0.57-1.537,1.241-2.164,2H6z M16.573,6.5c-1.431-0.656-2.993-1-4.573-1
		c-1.58,0-3.142,0.344-4.573,1H16.573z"/>
</g>
</svg>
