<?xml version="1.0" encoding="utf-8"?>
<!-- Generator: Adobe Illustrator 22.1.0, SVG Export Plug-In . SVG Version: 6.00 Build 0)  -->
<svg version="1.1" id="Layer_1" xmlns="http://www.w3.org/2000/svg" xmlns:xlink="http://www.w3.org/1999/xlink" x="0px" y="0px"
	 viewBox="0 0 24 24" style="enable-background:new 0 0 24 24;" xml:space="preserve">
<g>
	<title>lighthouse-bird</title>
	<path d="M1.186,24.002c-0.263,0-0.527-0.028-0.784-0.082c-0.27-0.058-0.442-0.324-0.385-0.593c0.049-0.229,0.255-0.396,0.489-0.396
		c0.034,0,0.069,0.004,0.103,0.011c0.186,0.04,0.377,0.06,0.568,0.06c1.864,0,3.376-1.881,3.391-1.9
		c0.095-0.12,0.24-0.191,0.39-0.191c0.005,0,0.022,0,0.027,0.001c0.156,0.006,0.304,0.09,0.393,0.223
		c0.719,1.086,1.925,1.771,3.227,1.833c1.282-0.031,2.475-0.713,3.173-1.823c0.09-0.144,0.246-0.232,0.417-0.234c0,0,0,0,0,0
		c0.18,0,0.327,0.08,0.423,0.224c0.719,1.085,1.925,1.77,3.225,1.833c1.282-0.032,2.476-0.713,3.175-1.823
		c0.092-0.146,0.25-0.233,0.423-0.233c0.173,0,0.332,0.088,0.424,0.234c0.011,0.017,1.178,1.815,2.964,1.815
		c0.189,0,0.381-0.02,0.571-0.06c0.033-0.007,0.068-0.011,0.104-0.011c0.235,0,0.44,0.167,0.488,0.398
		c0.027,0.13,0.002,0.264-0.071,0.376c-0.073,0.112-0.186,0.188-0.316,0.216c-0.266,0.056-0.535,0.084-0.798,0.084c0,0,0,0,0,0
		c-1.619,0-2.788-1.061-3.357-1.718c-0.904,1.065-2.205,1.688-3.616,1.722c-1.411-0.067-2.708-0.691-3.621-1.725
		c-0.903,1.067-2.205,1.691-3.617,1.725c-1.436-0.066-2.751-0.708-3.666-1.773C4.26,22.865,2.882,24.002,1.186,24.002z"/>
	<path d="M8.158,20.935c-0.036,0-0.072-0.004-0.107-0.011c-0.129-0.028-0.241-0.105-0.313-0.217
		c-0.073-0.112-0.097-0.246-0.069-0.376l2.213-10.329H8.999c-0.276,0-0.5-0.224-0.5-0.5s0.224-0.5,0.5-0.5h1v-3.5
		c0-0.009,0.001-0.019,0.002-0.029c0.008-1.718,1.306-3.187,2.998-3.432V0.501c0-0.276,0.224-0.5,0.5-0.5s0.5,0.224,0.5,0.5V2.04
		C15.7,2.285,17,3.763,17,5.501c0,0.007,0,0.014-0.001,0.021v3.479h1c0.276,0,0.5,0.224,0.5,0.5s-0.224,0.5-0.5,0.5h-0.881
		l1.983,9.254c0.028,0.131,0.004,0.264-0.069,0.377c-0.073,0.112-0.184,0.189-0.315,0.217c-0.035,0.008-0.071,0.011-0.106,0.011
		c-0.237,0-0.438-0.163-0.488-0.395l-0.1-0.464H8.976L8.646,20.54C8.597,20.769,8.392,20.935,8.158,20.935z M17.81,18.002l-0.857-4
		h-6.906l-0.857,4H17.81z M16.738,13.002l-0.643-3h-5.191l-0.643,3H16.738z M15.999,9.001v-3h-5v3H15.999z M15.948,5.001
		c-0.235-1.141-1.261-2-2.448-2s-2.213,0.859-2.448,2H15.948z"/>
	<path d="M13.499,12.501c-0.276,0-0.5-0.224-0.5-0.5v-1c0-0.276,0.224-0.5,0.5-0.5s0.5,0.224,0.5,0.5v1
		C13.999,12.277,13.775,12.501,13.499,12.501z"/>
	<path d="M13.499,17.002c-0.276,0-0.5-0.224-0.5-0.5v-1c0-0.276,0.224-0.5,0.5-0.5s0.5,0.224,0.5,0.5v1
		C13.999,16.777,13.775,17.002,13.499,17.002z"/>
	<path d="M6.999,2.501c-0.134,0-0.259-0.052-0.354-0.146l-1.5-1.5C5.051,0.76,4.999,0.635,4.999,0.501s0.052-0.259,0.146-0.354
		s0.22-0.146,0.354-0.146s0.259,0.052,0.354,0.146l1.146,1.146l1.146-1.146c0.094-0.094,0.22-0.146,0.354-0.146
		s0.259,0.052,0.354,0.146s0.146,0.22,0.146,0.354S8.947,0.76,8.853,0.855l-1.5,1.5C7.258,2.449,7.133,2.501,6.999,2.501z"/>
	<path d="M2.999,6.001c-0.134,0-0.259-0.052-0.354-0.146l-1.5-1.5C1.051,4.26,0.999,4.135,0.999,4.001s0.052-0.259,0.146-0.354
		s0.22-0.146,0.354-0.146s0.259,0.052,0.354,0.146l1.146,1.146l1.146-1.146c0.094-0.094,0.22-0.146,0.354-0.146
		s0.259,0.052,0.354,0.146s0.146,0.22,0.146,0.354S4.947,4.26,4.853,4.355l-1.5,1.5C3.258,5.949,3.133,6.001,2.999,6.001z"/>
</g>
</svg>
