<?xml version="1.0" encoding="utf-8"?>
<!-- Generator: Adobe Illustrator 22.1.0, SVG Export Plug-In . SVG Version: 6.00 Build 0)  -->
<svg version="1.1" id="Light" xmlns="http://www.w3.org/2000/svg" xmlns:xlink="http://www.w3.org/1999/xlink" x="0px" y="0px"
	 viewBox="0 0 24 24" style="enable-background:new 0 0 24 24;" xml:space="preserve">
<g>
	<title>technology-prosthetic-leg</title>
	<path d="M8.219,24c-0.827,0-1.5-0.673-1.5-1.5c0-0.055,0.003-0.111,0.009-0.167c0.003-0.03,0.01-0.06,0.018-0.089l0.875-2.889
		C7.686,19.143,7.878,19,8.1,19h0.614v-4h-0.5c-0.276,0-0.5-0.224-0.5-0.5c0,0,0-3.502,0-3.502c-1.256-0.941-2.001-2.425-2-3.998
		V5.5c0-0.827,0.673-1.5,1.5-1.5h1.5c0.551,0,1-0.449,1-1c0-1.654,1.346-3,3-3s3,1.346,3,3v4c0,1.572-0.746,3.055-2,3.996
		c0,0.001,0,3.504,0,3.504c0,0.276-0.224,0.5-0.5,0.5h-0.5v4h0.505c0.231,0,0.431,0.157,0.486,0.381
		c0.136,0.557,0.54,1.009,1.079,1.206C15.47,20.862,16.183,21,16.909,21c0.763,0,1.382,0.619,1.382,1.38
		c0,0.426-0.192,0.821-0.526,1.084C17.329,23.809,16.781,24,16.222,24H8.219z M7.719,22.5c0,0.276,0.224,0.5,0.5,0.5h8
		c0.337,0,0.665-0.114,0.927-0.321c0.092-0.073,0.145-0.182,0.145-0.299c0-0.209-0.171-0.38-0.38-0.38
		c-0.857,0-1.693-0.161-2.486-0.479c-0.716-0.262-1.281-0.812-1.568-1.521H8.471l-0.752,2.483C7.719,22.489,7.719,22.494,7.719,22.5
		z M11.714,19v-4h-2v4H11.714z M12.714,14v-3c0-1.103-0.897-2-2-2c-1.103,0-2,0.897-2,2v3H12.714z M7.214,5
		c-0.276,0-0.5,0.224-0.5,0.5V7c-0.001,1.097,0.44,2.126,1.221,2.877C8.388,8.755,9.481,8,10.714,8c1.233,0,2.325,0.754,2.778,1.875
		c0.78-0.751,1.221-1.78,1.222-2.875V3c0-1.103-0.897-2-2-2c-1.103,0-2,0.897-2,2s-0.897,2-2,2H7.214z"/>
	<path d="M10.714,13c-0.827,0-1.5-0.673-1.5-1.5s0.673-1.5,1.5-1.5s1.5,0.673,1.5,1.5S11.541,13,10.714,13z M10.714,11
		c-0.276,0-0.5,0.224-0.5,0.5s0.224,0.5,0.5,0.5s0.5-0.224,0.5-0.5S10.99,11,10.714,11z"/>
</g>
</svg>
