<?xml version="1.0" encoding="utf-8"?>
<!-- Generator: Adobe Illustrator 22.1.0, SVG Export Plug-In . SVG Version: 6.00 Build 0)  -->
<svg version="1.1" id="Light" xmlns="http://www.w3.org/2000/svg" xmlns:xlink="http://www.w3.org/1999/xlink" x="0px" y="0px"
	 viewBox="0 0 24 24" style="enable-background:new 0 0 24 24;" xml:space="preserve">
<g>
	<title>technology-pill</title>
	<path d="M14.05,24c-1.336,0-2.591-0.52-3.536-1.465C9.57,21.591,9.05,20.335,9.05,19s0.52-2.591,1.465-3.536l4.95-4.95
		C16.409,9.57,17.665,9.05,19,9.05s2.591,0.52,3.535,1.465C23.48,11.459,24,12.714,24,14.05c0,1.335-0.52,2.591-1.465,3.535
		l-4.95,4.95C16.641,23.48,15.385,24,14.05,24z M11.222,16.171c-0.755,0.756-1.172,1.76-1.172,2.829
		c0,1.068,0.416,2.073,1.172,2.828C11.977,22.584,12.982,23,14.05,23s2.073-0.416,2.828-1.172L19,19.707l-5.657-5.657L11.222,16.171
		z M19.707,19l2.121-2.122C22.584,16.123,23,15.118,23,14.05s-0.416-2.073-1.172-2.828c-0.756-0.755-1.76-1.172-2.828-1.172
		c-1.069,0-2.073,0.416-2.829,1.172l-2.121,2.121L19.707,19z"/>
	<path d="M8,12c-0.276,0-0.5-0.224-0.5-0.5v-0.998h-3V11.5C4.5,11.776,4.276,12,4,12s-0.5-0.224-0.5-0.5v-0.998H2.499
		c-0.551,0-1-0.449-1-1V8.501H0.5c-0.276,0-0.5-0.224-0.5-0.5s0.224-0.5,0.5-0.5h0.999v-3H0.5c-0.276,0-0.5-0.224-0.5-0.5
		s0.224-0.5,0.5-0.5h0.999V2.5c0-0.551,0.449-1,1-1H3.5v-1C3.5,0.224,3.724,0,4,0s0.5,0.224,0.5,0.5v1h3v-1C7.5,0.224,7.724,0,8,0
		s0.5,0.224,0.5,0.5v1h1.001c0.551,0,1,0.449,1,1v1.001H11.5c0.276,0,0.5,0.224,0.5,0.5s-0.224,0.5-0.5,0.5h-0.999v3H11.5
		c0.276,0,0.5,0.224,0.5,0.5s-0.224,0.5-0.5,0.5h-0.999v1.001c0,0.551-0.449,1-1,1H8.5V11.5C8.5,11.776,8.276,12,8,12z M4.031,9.502
		l3.939,0C7.98,9.501,7.99,9.5,8,9.5c0.01,0,0.021,0.001,0.031,0.002l1.47,0V8.022C9.5,8.015,9.5,8.008,9.5,8.001
		s0-0.014,0.001-0.021V4.022C9.5,4.015,9.5,4.008,9.5,4.001s0-0.014,0.001-0.021V2.5H2.499v1.479C2.5,3.987,2.5,3.994,2.5,4.001
		s0,0.014-0.001,0.021v3.957C2.5,7.987,2.5,7.994,2.5,8.001s0,0.014-0.001,0.021v1.479H3.97C3.98,9.501,3.99,9.5,4,9.5
		C4.01,9.5,4.021,9.501,4.031,9.502z"/>
</g>
</svg>
