<?xml version="1.0" encoding="utf-8"?>
<!-- Generator: Adobe Illustrator 22.1.0, SVG Export Plug-In . SVG Version: 6.00 Build 0)  -->
<svg version="1.1" id="Light" xmlns="http://www.w3.org/2000/svg" xmlns:xlink="http://www.w3.org/1999/xlink" x="0px" y="0px"
	 viewBox="0 0 24 24" style="enable-background:new 0 0 24 24;" xml:space="preserve">
<g>
	<title>technology-bandage-chip</title>
	<path d="M7.5,24.001c-2.003,0-3.887-0.78-5.303-2.197C0.78,20.387,0,18.504,0,16.5s0.78-3.887,2.197-5.303l9-9
		C12.613,0.78,14.497,0,16.5,0s3.887,0.78,5.303,2.197c1.417,1.417,2.197,3.3,2.197,5.303s-0.78,3.887-2.197,5.303l-9,9
		C11.387,23.22,9.503,24.001,7.5,24.001z M16.5,1c-1.736,0-3.369,0.676-4.596,1.904l-9,9C1.676,13.132,1,14.764,1,16.5
		s0.676,3.369,1.904,4.596c1.228,1.228,2.86,1.904,4.596,1.904s3.368-0.676,4.596-1.904l9-9c1.228-1.228,1.904-2.86,1.904-4.596
		s-0.676-3.368-1.904-4.596C19.869,1.676,18.237,1,16.5,1z"/>
	<path d="M14.121,17.45c-0.134,0-0.259-0.052-0.354-0.146l-1.122-1.122c-0.201,0.096-0.421,0.146-0.646,0.146
		s-0.445-0.05-0.646-0.146l-1.122,1.122c-0.094,0.094-0.22,0.146-0.354,0.146s-0.259-0.052-0.354-0.146
		c-0.195-0.195-0.195-0.512,0-0.707l1.061-1.061l-2.122-2.122l-1.061,1.061c-0.094,0.094-0.22,0.146-0.354,0.146
		s-0.259-0.052-0.354-0.146c-0.195-0.195-0.195-0.512,0-0.707l1.121-1.122c-0.196-0.409-0.196-0.884,0-1.292l-1.121-1.121
		c-0.195-0.195-0.195-0.512,0-0.707c0.094-0.094,0.22-0.146,0.354-0.146s0.259,0.052,0.354,0.146l1.06,1.06l2.122-2.122l-1.06-1.06
		c-0.195-0.195-0.195-0.512,0-0.707C9.62,6.602,9.746,6.55,9.879,6.55s0.259,0.052,0.354,0.146l1.121,1.121
		C11.554,7.721,11.774,7.671,12,7.671c0.226,0,0.446,0.05,0.647,0.146l1.121-1.121c0.094-0.094,0.22-0.146,0.354-0.146
		s0.259,0.052,0.354,0.146c0.195,0.195,0.195,0.512,0,0.707l-1.061,1.06l2.122,2.122l1.06-1.06c0.094-0.094,0.22-0.146,0.354-0.146
		s0.259,0.052,0.354,0.146c0.195,0.195,0.195,0.512,0,0.707l-1.121,1.121c0.196,0.409,0.196,0.884,0,1.293l1.121,1.121
		c0.195,0.195,0.195,0.512,0,0.707c-0.094,0.094-0.22,0.146-0.354,0.146s-0.259-0.052-0.354-0.146l-1.061-1.061l-2.122,2.122
		l1.061,1.061c0.195,0.195,0.195,0.512,0,0.707C14.38,17.398,14.255,17.45,14.121,17.45z M8.818,11.646
		c-0.195,0.195-0.195,0.512,0,0.707l2.828,2.828c0.094,0.094,0.22,0.146,0.354,0.146c0.134,0,0.259-0.052,0.354-0.146l2.829-2.828
		c0.195-0.195,0.195-0.512,0-0.707c-0.002-0.002-2.829-2.829-2.829-2.829C12.259,8.723,12.134,8.671,12,8.671
		c-0.133,0-0.258,0.052-0.352,0.145c-0.001,0.001-0.002,0.002-0.003,0.003L8.818,11.646z"/>
</g>
</svg>
