<?xml version="1.0" encoding="utf-8"?>
<!-- Generator: Adobe Illustrator 22.1.0, SVG Export Plug-In . SVG Version: 6.00 Build 0)  -->
<svg version="1.1" id="Light" xmlns="http://www.w3.org/2000/svg" xmlns:xlink="http://www.w3.org/1999/xlink" x="0px" y="0px"
	 viewBox="0 0 24 24" style="enable-background:new 0 0 24 24;" xml:space="preserve">
<g>
	<title>kitchenware-spatula-2</title>
	<path d="M13.003,14.698c-0.134,0-0.259-0.052-0.354-0.146l-3.201-3.201c-0.195-0.195-0.195-0.512,0-0.707
		c0.094-0.094,0.22-0.146,0.354-0.146s0.259,0.052,0.354,0.146l3.201,3.201c0.195,0.195,0.195,0.512,0,0.707
		C13.262,14.646,13.136,14.698,13.003,14.698z"/>
	<path d="M2.126,24.071c-0.538,0-1.056-0.198-1.459-0.556c-0.907-0.806-0.989-2.199-0.183-3.105
		c0.057-0.064,0.118-0.125,0.183-0.183l7.242-7.244c-1.057-1.281-1.216-3.125-0.37-4.569l4.637-7.919
		c0.137-0.233,0.354-0.397,0.613-0.464C12.871,0.011,12.956,0,13.04,0c0.177,0,0.352,0.048,0.506,0.139
		c2.12,1.247,4.075,2.761,5.813,4.502c1.739,1.736,3.253,3.691,4.5,5.809c0.281,0.481,0.121,1.094-0.354,1.373l-7.921,4.639
		c-0.612,0.359-1.311,0.548-2.02,0.548c-0.934,0-1.829-0.325-2.547-0.919l-4.465,4.465c-0.006,0.006-0.013,0.012-0.02,0.018
		l-2.78,2.78c-0.373,0.421-0.908,0.679-1.495,0.713C2.214,24.07,2.17,24.071,2.126,24.071z M1.353,20.954
		c-0.054,0.05-0.089,0.083-0.121,0.12c-0.44,0.495-0.395,1.255,0.099,1.695c0.22,0.195,0.502,0.303,0.796,0.303
		c0.024,0,0.048-0.001,0.072-0.002c0.32-0.019,0.613-0.161,0.826-0.401l2.466-2.467l-1.693-1.693L1.353,20.954z M6.201,19.494
		l4.094-4.094l-1.694-1.695L4.507,17.8L6.201,19.494z M13.037,1L8.401,8.92c-0.69,1.177-0.498,2.672,0.465,3.637l2.577,2.577
		c0.566,0.565,1.32,0.877,2.121,0.877c0.532,0,1.056-0.142,1.515-0.412L23,10.961c0,0-0.002-0.004-0.003-0.005
		c-1.204-2.044-2.665-3.931-4.344-5.608C16.974,3.667,15.086,2.204,13.039,1v0C13.039,1,13.038,1,13.037,1z"/>
</g>
</svg>
