<?xml version="1.0" encoding="utf-8"?>
<!-- Generator: Adobe Illustrator 22.1.0, SVG Export Plug-In . SVG Version: 6.00 Build 0)  -->
<svg version="1.1" id="Light" xmlns="http://www.w3.org/2000/svg" xmlns:xlink="http://www.w3.org/1999/xlink" x="0px" y="0px"
	 viewBox="0 0 24 24" style="enable-background:new 0 0 24 24;" xml:space="preserve">
<g>
	<title>kitchenware-pizza-cutter</title>
	<path d="M6,24c-3.308,0-6-2.692-6-6s2.692-6,6-6s6,2.692,6,6S9.308,24,6,24z M6,13c-2.757,0-5,2.243-5,5s2.243,5,5,5s5-2.243,5-5
		S8.757,13,6,13z"/>
	<path d="M6,22c-2.206,0-4-1.794-4-4s1.794-4,4-4s4,1.794,4,4S8.206,22,6,22z M6,15c-1.654,0-3,1.346-3,3s1.346,3,3,3s3-1.346,3-3
		S7.654,15,6,15z"/>
	<path d="M13.35,17c-0.236,0-0.442-0.168-0.49-0.4c-0.064-0.312-0.15-0.623-0.256-0.923c-0.622-1.765-1.894-3.183-3.583-3.991
		c-0.695-0.333-1.435-0.548-2.197-0.64c-0.276-0.033-0.554-0.049-0.828-0.049c-0.792,0-1.576,0.135-2.33,0.401
		c-0.053,0.019-0.109,0.029-0.166,0.029c-0.212,0-0.401-0.134-0.471-0.334c-0.092-0.26,0.045-0.546,0.305-0.638
		c0.864-0.304,1.76-0.459,2.665-0.459c0.259,0,0.52,0.013,0.778,0.038L9.51,8.207c0.294-4.171,7.211-8.207,11.154-8.207
		c0.987,0,1.778,0.232,2.352,0.689C23.669,1.211,24,1.982,24,2.981c0,1.12-0.227,1.866-0.714,2.348
		c-0.613,0.607-1.537,0.658-2.43,0.658c0,0,0,0,0,0c-0.143,0-0.288-0.001-0.437-0.003c-0.155-0.001-0.313-0.003-0.476-0.003
		c-2.113,0-4.564,0.284-6.944,3.657v4.49c0.218,0.395,0.402,0.804,0.547,1.217c0.121,0.343,0.219,0.698,0.292,1.054
		c0.027,0.131,0.001,0.264-0.072,0.376s-0.186,0.188-0.317,0.215C13.416,16.997,13.383,17,13.35,17z M8.177,10.301
		c0.437,0.125,0.864,0.286,1.276,0.484c0.972,0.465,1.841,1.122,2.547,1.92V9.481c0-0.102,0.031-0.2,0.088-0.284
		c2.553-3.705,5.276-4.216,7.837-4.216c0.172,0,0.339,0.002,0.503,0.003c0.149,0.001,0.292,0.003,0.431,0.003
		c0.856,0,1.412-0.06,1.723-0.368C22.859,4.344,23,3.793,23,2.981c0-0.68-0.205-1.188-0.608-1.509
		C22,1.159,21.419,1.001,20.664,1.001c-1.831,0-4.395,0.961-6.531,2.447C11.824,5.054,10.5,6.889,10.5,8.481
		c0,0.167-0.083,0.323-0.222,0.416L8.177,10.301z"/>
	<circle cx="6" cy="18" r="0.75"/>
</g>
</svg>
