<?xml version="1.0" encoding="utf-8"?>
<!-- Generator: Adobe Illustrator 22.1.0, SVG Export Plug-In . SVG Version: 6.00 Build 0)  -->
<svg version="1.1" id="Light" xmlns="http://www.w3.org/2000/svg" xmlns:xlink="http://www.w3.org/1999/xlink" x="0px" y="0px"
	 viewBox="0 0 24 24" style="enable-background:new 0 0 24 24;" xml:space="preserve">
<g>
	<title>kitchenware-whisk</title>
	<path d="M2.045,23.955c-0.035,0-0.069-0.001-0.104-0.003c-0.532-0.027-1.023-0.26-1.381-0.656c-0.69-0.763-0.691-1.915-0.003-2.679
		l7.787-7.789c-0.386-1.03-0.464-2.246-0.224-3.53c0.385-2.068,1.547-4.156,3.27-5.88c2.128-2.128,4.862-3.399,7.312-3.399
		c1.551,0,2.874,0.503,3.825,1.455c1.238,1.238,1.709,3.089,1.327,5.21c-0.377,2.089-1.538,4.193-3.271,5.926
		c-2.128,2.128-4.862,3.399-7.312,3.4c-0.746,0-1.448-0.121-2.091-0.36l-7.777,7.771C3.019,23.768,2.54,23.955,2.045,23.955z
		 M1.281,21.305c-0.33,0.367-0.325,0.939,0.02,1.32c0.179,0.198,0.425,0.315,0.692,0.328c0.02,0.001,0.039,0.002,0.057,0.002
		c0.243,0,0.479-0.092,0.663-0.259l7.52-7.515c-0.293-0.185-0.557-0.395-0.788-0.626c-0.237-0.237-0.449-0.5-0.631-0.783
		L1.281,21.305z M11.976,14.86c0.405,0.104,0.841,0.156,1.303,0.156c2.181,0,4.646-1.164,6.596-3.114
		c2.388-2.388,3.539-5.546,2.962-7.873c-0.12,0.412-0.296,0.856-0.527,1.329c-0.791,1.617-2.158,3.439-3.85,5.13
		C16.203,12.746,13.815,14.342,11.976,14.86z M10.658,14.049c0.053,0.005,0.109,0.008,0.167,0.008c1.32,0,3.975-1.322,6.928-4.275
		c1.615-1.615,2.915-3.342,3.659-4.862c0.454-0.927,0.665-1.712,0.611-2.236L10.658,14.049z M21.148,1.971
		c-0.528,0-1.243,0.214-2.069,0.618c-1.521,0.744-3.248,2.044-4.863,3.659c-2.954,2.955-4.414,5.809-4.27,7.099L21.314,1.978
		C21.262,1.973,21.207,1.971,21.148,1.971z M18.703,1.01c-0.401,0-0.822,0.041-1.25,0.12c-1.872,0.349-3.774,1.412-5.356,2.994
		c-1.582,1.582-2.645,3.484-2.994,5.356c-0.171,0.919-0.158,1.783,0.035,2.542c0.52-1.838,2.117-4.226,4.373-6.483
		c1.69-1.691,3.512-3.058,5.13-3.85c0.475-0.233,0.922-0.409,1.336-0.529C19.578,1.061,19.153,1.01,18.703,1.01z"/>
</g>
</svg>
