<?xml version="1.0" encoding="utf-8"?>
<!-- Generator: Adobe Illustrator 22.1.0, SVG Export Plug-In . SVG Version: 6.00 Build 0)  -->
<svg version="1.1" id="Light" xmlns="http://www.w3.org/2000/svg" xmlns:xlink="http://www.w3.org/1999/xlink" x="0px" y="0px"
	 viewBox="0 0 24 24" style="enable-background:new 0 0 24 24;" xml:space="preserve">
<g>
	<title>kitchenware-spatula-1</title>
	<path d="M12.923,11.577c-0.134,0-0.259-0.052-0.354-0.146c-0.094-0.094-0.146-0.22-0.146-0.354c0-0.134,0.052-0.259,0.146-0.354
		l4.949-4.951c0.094-0.094,0.22-0.146,0.354-0.146s0.259,0.052,0.354,0.146c0.094,0.094,0.146,0.22,0.146,0.354
		c0,0.134-0.052,0.259-0.146,0.354l-4.949,4.951C13.182,11.525,13.056,11.577,12.923,11.577z"/>
	<path d="M11.156,9.808c-0.134,0-0.259-0.052-0.354-0.146c-0.094-0.094-0.146-0.22-0.146-0.354c0-0.134,0.052-0.259,0.146-0.354
		l4.949-4.95c0.094-0.094,0.22-0.146,0.354-0.146c0.134,0,0.259,0.052,0.354,0.146c0.094,0.094,0.146,0.22,0.146,0.354
		c0,0.134-0.052,0.259-0.146,0.354l-4.949,4.95C11.415,9.756,11.289,9.808,11.156,9.808z"/>
	<path d="M14.692,13.344c-0.134,0-0.259-0.052-0.354-0.146c-0.195-0.195-0.195-0.512,0-0.707l4.95-4.949
		c0.094-0.094,0.22-0.146,0.354-0.146s0.259,0.052,0.354,0.146s0.146,0.22,0.146,0.354c0,0.134-0.052,0.259-0.146,0.354l-4.95,4.949
		C14.951,13.292,14.826,13.344,14.692,13.344z"/>
	<path d="M2,24c-0.535,0-1.037-0.208-1.414-0.585C0.208,23.037-0.001,22.534-0.001,22s0.208-1.037,0.586-1.415l8.401-8.4
		L8.481,8.038C8.387,7.27,8.647,6.515,9.195,5.968l5.672-5.676C15.055,0.104,15.306,0,15.574,0c0.267,0,0.518,0.104,0.707,0.292
		l7.427,7.427C23.896,7.908,24,8.159,24,8.426c0,0.267-0.103,0.518-0.292,0.707l-5.677,5.672c-0.472,0.472-1.098,0.733-1.763,0.733
		c-0.102,0-0.206-0.006-0.308-0.019l-4.146-0.506l-8.4,8.401C3.037,23.792,2.535,24,2,24z M1.293,21.292
		C1.104,21.481,0.999,21.732,0.999,22s0.104,0.519,0.293,0.708C1.481,22.896,1.732,23,2,23c0.268,0,0.519-0.104,0.707-0.292
		l2.828-2.829l-1.415-1.415L1.293,21.292z M6.243,19.172l4.449-4.45c-0.62-0.293-1.12-0.794-1.414-1.414l-4.45,4.449L6.243,19.172z
		 M9.902,6.675C9.573,7.004,9.417,7.456,9.473,7.917l0.53,4.346c0.109,0.912,0.821,1.624,1.732,1.733l4.348,0.531
		c0.062,0.007,0.124,0.011,0.185,0.011c0.398,0,0.774-0.156,1.057-0.44l5.676-5.672l-7.427-7.427L9.902,6.675z"/>
</g>
</svg>
