<?xml version="1.0" encoding="utf-8"?>
<!-- Generator: Adobe Illustrator 22.1.0, SVG Export Plug-In . SVG Version: 6.00 Build 0)  -->
<svg version="1.1" id="Light" xmlns="http://www.w3.org/2000/svg" xmlns:xlink="http://www.w3.org/1999/xlink" x="0px" y="0px"
	 viewBox="0 0 24 24" style="enable-background:new 0 0 24 24;" xml:space="preserve">
<g>
	<title>kitchenware-scooper-1</title>
	<path d="M2.999,23.995c-0.801,0-1.554-0.311-2.119-0.877c-1.17-1.17-1.17-3.073,0-4.243l10.609-9.946
		c0-0.001-0.016-0.041-0.016-0.041C11.428,8.822,11.4,8.748,11.39,8.671c-0.164-0.452-0.278-0.908-0.337-1.354
		c-0.098-0.789,0.435-1.519,1.213-1.664c2.248-0.438,3.972-2.178,4.392-4.432c0.133-0.709,0.754-1.224,1.475-1.224
		c0.061,0,0.124,0.004,0.186,0.012c0.001,0,0.003,0,0.004,0c0.493,0.063,0.987,0.188,1.468,0.37c0.013,0.003,0.031,0.01,0.05,0.02
		c2.204,0.844,3.782,2.839,4.097,5.198c0.475,3.552-2.03,6.829-5.582,7.303c-0.286,0.038-0.577,0.058-0.865,0.058
		c-0.82,0-1.626-0.158-2.401-0.47c0,0-9.972,10.637-9.975,10.639c-0.002,0.002-0.005,0.004-0.007,0.007
		C4.54,23.689,3.793,23.995,2.999,23.995z M1.278,19.98c-0.46,0.773-0.346,1.775,0.31,2.431c0.377,0.376,0.879,0.584,1.413,0.584
		c0.359,0,0.711-0.097,1.016-0.276L1.278,19.98z M4.758,22.047l9.397-10.024c-0.901-0.54-1.652-1.28-2.196-2.163L1.952,19.241
		L4.758,22.047z M12.85,9.397c1,1.571,2.767,2.56,4.642,2.56c0.243,0,0.489-0.016,0.731-0.049c3.006-0.401,5.125-3.174,4.723-6.18
		c-0.219-1.643-1.161-3.083-2.556-3.946c0.073,0.401,0.11,0.807,0.11,1.215c0,0.786-0.14,1.558-0.418,2.293
		c-0.612,1.625-1.821,2.914-3.402,3.629c-0.853,0.386-1.753,0.582-2.677,0.582C13.619,9.502,13.232,9.467,12.85,9.397z
		 M12.286,8.219c0.562,0.185,1.143,0.279,1.728,0.279c0.779,0,1.538-0.165,2.255-0.49c1.339-0.606,2.361-1.697,2.879-3.071
		c0.235-0.623,0.354-1.276,0.353-1.941c0.001-0.592-0.093-1.183-0.28-1.758c-0.345-0.115-0.69-0.195-1.028-0.238
		c-0.02-0.002-0.041-0.004-0.062-0.004c-0.24,0-0.447,0.172-0.491,0.408c-0.495,2.66-2.532,4.713-5.188,5.231
		c-0.262,0.049-0.441,0.292-0.409,0.554C12.091,7.536,12.172,7.882,12.286,8.219z"/>
</g>
</svg>
