<?xml version="1.0" encoding="utf-8"?>
<!-- Generator: Adobe Illustrator 22.1.0, SVG Export Plug-In . SVG Version: 6.00 Build 0)  -->
<svg version="1.1" id="Light" xmlns="http://www.w3.org/2000/svg" xmlns:xlink="http://www.w3.org/1999/xlink" x="0px" y="0px"
	 viewBox="0 0 24 24" style="enable-background:new 0 0 24 24;" xml:space="preserve">
<g>
	<title>kitchenware-ladle-hot</title>
	<path d="M13.25,12c-0.145,0-0.283-0.063-0.378-0.173c-0.087-0.101-0.13-0.23-0.121-0.363c0.01-0.133,0.071-0.255,0.172-0.342
		c0.481-0.417,0.419-0.612-0.084-1.337c-0.419-0.605-1.122-1.619,0.084-2.663C13.013,7.043,13.129,7,13.25,7
		c0.146,0,0.283,0.063,0.378,0.173c0.087,0.101,0.13,0.23,0.121,0.363c-0.01,0.133-0.071,0.255-0.172,0.342
		c-0.481,0.417-0.419,0.612,0.084,1.337c0.419,0.606,1.121,1.619-0.084,2.663C13.487,11.957,13.371,12,13.25,12z"/>
	<path d="M17.25,12c-0.145,0-0.283-0.063-0.378-0.173c-0.087-0.101-0.13-0.23-0.121-0.363c0.01-0.133,0.071-0.255,0.172-0.342
		c0.481-0.417,0.419-0.612-0.084-1.337c-0.419-0.605-1.122-1.619,0.084-2.663C17.013,7.043,17.129,7,17.25,7
		c0.146,0,0.283,0.063,0.378,0.173c0.087,0.101,0.13,0.23,0.121,0.363c-0.01,0.133-0.071,0.255-0.172,0.342
		c-0.481,0.417-0.419,0.612,0.084,1.337c0.419,0.605,1.122,1.619-0.084,2.663C17.487,11.957,17.371,12,17.25,12z"/>
	<path d="M14.75,24c-3.584,0-6.5-2.916-6.5-6.5V6c0-2.757-2.243-5-5-5c-0.276,0-0.5-0.224-0.5-0.5S2.974,0,3.25,0
		c3.308,0,6,2.692,6,6v9.858c1.157-0.847,3.191-1.358,5.5-1.358c3.706,0,6.5,1.29,6.5,3C21.25,21.084,18.334,24,14.75,24z
		 M9.573,19.354C10.347,21.503,12.422,23,14.75,23s4.403-1.497,5.177-3.646C18.73,20.071,16.834,20.5,14.75,20.5
		S10.77,20.071,9.573,19.354z M14.75,15.5c-3.408,0-5.5,1.165-5.5,2s2.092,2,5.5,2c3.408,0,5.5-1.165,5.5-2S18.158,15.5,14.75,15.5z
		"/>
</g>
</svg>
