<?xml version="1.0" encoding="utf-8"?>
<!-- Generator: Adobe Illustrator 22.1.0, SVG Export Plug-In . SVG Version: 6.00 Build 0)  -->
<svg version="1.1" id="Light" xmlns="http://www.w3.org/2000/svg" xmlns:xlink="http://www.w3.org/1999/xlink" x="0px" y="0px"
	 viewBox="0 0 24 24" style="enable-background:new 0 0 24 24;" xml:space="preserve">
<g>
	<title>kitchenware-strainer</title>
	<path d="M17.477,7.274c-0.2,0-0.388-0.078-0.53-0.219c-0.292-0.301-0.288-0.773-0.001-1.061c0.141-0.142,0.329-0.22,0.53-0.22
		c0.201,0,0.389,0.078,0.531,0.219c0.293,0.292,0.293,0.768,0.001,1.061c-0.141,0.142-0.329,0.22-0.53,0.221
		C17.478,7.274,17.477,7.274,17.477,7.274z"/>
	<path d="M15,9.749c-0.198,0-0.386-0.077-0.527-0.217c-0.295-0.297-0.294-0.772-0.004-1.063c0.142-0.142,0.33-0.22,0.531-0.22
		c0.2,0,0.388,0.078,0.529,0.218c0.293,0.292,0.294,0.768,0.002,1.061c-0.142,0.142-0.33,0.22-0.53,0.221
		C15.001,9.749,15,9.749,15,9.749z"/>
	<path d="M12.526,12.225c-0.2,0-0.388-0.078-0.53-0.219c-0.142-0.141-0.22-0.329-0.221-0.529c0-0.197,0.075-0.383,0.212-0.523
		c0.15-0.15,0.338-0.228,0.539-0.228c0.2,0,0.388,0.078,0.53,0.219c0.141,0.141,0.219,0.329,0.22,0.529
		c0.001,0.2-0.077,0.388-0.219,0.531C12.916,12.147,12.727,12.225,12.526,12.225z"/>
	<path d="M19.95,9.749c-0.2,0-0.388-0.078-0.53-0.219c-0.292-0.294-0.292-0.769-0.001-1.061c0.141-0.142,0.329-0.22,0.53-0.221
		c0.201,0,0.389,0.078,0.531,0.219c0.142,0.141,0.22,0.33,0.22,0.53c0,0.2-0.077,0.389-0.219,0.531
		c-0.141,0.142-0.329,0.22-0.53,0.22C19.951,9.749,19.95,9.749,19.95,9.749z"/>
	<path d="M17.478,12.225c-0.199,0-0.387-0.077-0.528-0.217c-0.295-0.297-0.294-0.772-0.004-1.063c0.142-0.142,0.33-0.22,0.53-0.22
		c0.201,0,0.389,0.078,0.531,0.219c0.293,0.292,0.293,0.768,0.001,1.061C17.867,12.147,17.679,12.225,17.478,12.225L17.478,12.225z"
		/>
	<path d="M15,14.7c-0.2,0-0.388-0.078-0.529-0.219c-0.292-0.305-0.287-0.775-0.002-1.061c0.138-0.139,0.322-0.217,0.518-0.221
		c0.004,0,0.009,0,0.013,0c0.2,0,0.388,0.078,0.529,0.219c0.293,0.293,0.293,0.769,0.002,1.061c-0.141,0.142-0.329,0.22-0.529,0.221
		C15.002,14.7,15.001,14.7,15,14.7L15,14.7z"/>
	<path d="M15,4.8c-0.2,0-0.388-0.078-0.53-0.219c-0.141-0.141-0.219-0.329-0.22-0.53c0-0.198,0.076-0.384,0.214-0.526
		c0.004-0.004,0.008-0.009,0.013-0.013C14.611,3.378,14.799,3.3,15,3.3c0.202,0,0.39,0.079,0.531,0.221
		c0.292,0.293,0.291,0.768-0.002,1.06C15.388,4.722,15.2,4.8,15,4.8z"/>
	<path d="M12.526,7.274c-0.2,0-0.388-0.078-0.529-0.219c-0.142-0.141-0.221-0.329-0.221-0.53c0-0.197,0.075-0.382,0.212-0.523
		c0.149-0.15,0.338-0.228,0.537-0.229c0.201,0,0.389,0.078,0.531,0.219c0.142,0.141,0.22,0.329,0.22,0.53
		c0,0.201-0.077,0.389-0.219,0.531C12.916,7.196,12.727,7.274,12.526,7.274z"/>
	<path d="M10.051,9.749c-0.2,0-0.388-0.078-0.53-0.219C9.229,9.239,9.227,8.764,9.519,8.471C9.52,8.469,9.522,8.467,9.524,8.466
		C9.665,8.326,9.852,8.25,10.051,8.25c0.2,0,0.388,0.078,0.529,0.218c0.293,0.292,0.294,0.768,0.002,1.061
		c-0.141,0.142-0.329,0.22-0.53,0.221C10.052,9.749,10.051,9.749,10.051,9.749z"/>
	<path d="M2,23.999c-0.535,0-1.037-0.208-1.414-0.585c-0.378-0.378-0.586-0.88-0.586-1.415c0-0.534,0.208-1.037,0.586-1.415
		l6.798-6.798C6.478,12.351,6,10.7,6,8.999c0-4.963,4.037-9,9-9s9,4.037,9,9c0,4.963-4.037,9-9,9c-1.701,0-3.352-0.478-4.788-1.384
		l-6.797,6.798C3.037,23.791,2.535,23.999,2,23.999z M1.293,21.291c-0.189,0.189-0.293,0.44-0.293,0.708
		c0,0.267,0.104,0.519,0.293,0.708c0.189,0.188,0.44,0.292,0.708,0.292c0.268,0,0.519-0.104,0.707-0.292l2.828-2.829l-1.415-1.415
		L1.293,21.291z M6.243,19.171l3.142-3.143c-0.522-0.418-0.996-0.892-1.414-1.415l-3.143,3.143L6.243,19.171z M15,0.999
		c-4.411,0-8,3.589-8,8s3.589,8,8,8c4.411,0,8-3.589,8-8S19.411,0.999,15,0.999z"/>
</g>
</svg>
