<?xml version="1.0" encoding="utf-8"?>
<!-- Generator: Adobe Illustrator 22.1.0, SVG Export Plug-In . SVG Version: 6.00 Build 0)  -->
<svg version="1.1" id="Light" xmlns="http://www.w3.org/2000/svg" xmlns:xlink="http://www.w3.org/1999/xlink" x="0px" y="0px"
	 viewBox="0 0 24 24" style="enable-background:new 0 0 24 24;" xml:space="preserve">
<g>
	<title>kitchenware-masher</title>
	<circle cx="4.746" cy="19.265" r="0.75"/>
	<circle cx="6.996" cy="17.015" r="0.75"/>
	<circle cx="3.246" cy="15.515" r="0.75"/>
	<circle cx="8.496" cy="20.765" r="0.75"/>
	<path d="M8.75,24.023c-1.792,0-3.965-1.102-5.813-2.948c-1.316-1.316-2.275-2.84-2.702-4.292c-0.454-1.546-0.26-2.848,0.548-3.67
		c0.002-0.002,3.865-3.866,3.865-3.866c1.349-1.346,3.13-2.086,5.015-2.086c0.986,0,1.951,0.203,2.866,0.603
		c0.064,0.028,0.132,0.042,0.201,0.042c0.131,0,0.256-0.052,0.351-0.146l6.963-6.968c0.437-0.437,1.019-0.677,1.638-0.677
		c0.62,0,1.201,0.241,1.638,0.677c0.903,0.903,0.903,2.373,0,3.276l-6.969,6.964c-0.145,0.145-0.186,0.361-0.105,0.549
		c1.185,2.7,0.604,5.796-1.48,7.886l-3.849,3.851c-0.011,0.011-0.03,0.026-0.047,0.038C10.34,23.758,9.609,24.023,8.75,24.023z
		 M2.96,13.286c-0.622,0-1.111,0.174-1.455,0.518c-0.551,0.55-0.661,1.508-0.312,2.697c0.38,1.294,1.25,2.667,2.449,3.866
		c1.64,1.638,3.598,2.655,5.111,2.655c0.621,0,1.11-0.174,1.453-0.517c1.198-1.198,0.219-4.204-2.139-6.563
		C6.43,14.304,4.473,13.286,2.96,13.286z M3.021,12.287c1.782,0.022,3.928,1.121,5.754,2.948c1.824,1.825,2.923,4.006,2.947,5.76
		l2.334-2.334c1.792-1.796,2.29-4.458,1.271-6.782c-0.244-0.569-0.12-1.218,0.315-1.654l6.969-6.965
		c0.513-0.513,0.513-1.348,0-1.862c-0.248-0.248-0.579-0.385-0.931-0.385c-0.352,0-0.683,0.137-0.931,0.385l-6.964,6.969
		c-0.285,0.282-0.66,0.438-1.056,0.438c-0.207,0-0.409-0.042-0.601-0.126c-0.788-0.344-1.617-0.519-2.465-0.519
		c-1.619,0-3.149,0.637-4.309,1.793L3.021,12.287z"/>
</g>
</svg>
