<?xml version="1.0" encoding="utf-8"?>
<!-- Generator: Adobe Illustrator 22.1.0, SVG Export Plug-In . SVG Version: 6.00 Build 0)  -->
<svg version="1.1" id="Light" xmlns="http://www.w3.org/2000/svg" xmlns:xlink="http://www.w3.org/1999/xlink" x="0px" y="0px"
	 viewBox="0 0 24 24" style="enable-background:new 0 0 24 24;" xml:space="preserve">
<g>
	<title>kitchenware-peeler</title>
	<path d="M12,24c-2.757,0-5-2.243-5-5v-6.244c0-0.251,0.064-0.501,0.185-0.722l0.758-1.381c0.064-0.117,0.079-0.252,0.042-0.38
		c-0.037-0.128-0.122-0.234-0.239-0.299C7.728,9.965,7.711,9.956,7.693,9.949C4.846,8.799,3.004,6.072,3,3.001V1
		c0-0.551,0.449-1,1-1h1c0.551,0,1,0.449,1,1h12c0-0.551,0.448-1,1-1h1c0.552,0,1,0.449,1,1v2c-0.004,3.071-1.845,5.798-4.691,6.95
		c-0.123,0.05-0.22,0.145-0.272,0.269c-0.052,0.123-0.053,0.259-0.002,0.382c0.007,0.019,0.016,0.036,0.025,0.052l0.758,1.381
		c0.121,0.221,0.185,0.471,0.185,0.722L17,19C17,21.757,14.757,24,12,24z M4,3c0.004,2.661,1.601,5.025,4.068,6.022
		C8.124,9.045,8.177,9.07,8.228,9.098c0.35,0.192,0.605,0.51,0.717,0.896s0.068,0.79-0.125,1.141l-0.758,1.381
		C8.021,12.589,8,12.672,8,12.756V19c0,2.206,1.794,4,4,4s4-1.794,4-4l0.002-6.244c0-0.084-0.021-0.167-0.062-0.241l-0.758-1.381
		c-0.027-0.05-0.052-0.103-0.074-0.156c-0.151-0.372-0.148-0.78,0.008-1.149c0.156-0.369,0.446-0.656,0.817-0.806
		C18.4,8.025,19.997,5.661,20,2.999V1h-1v2c0,2.897-2.313,5-5.5,5h-3C7.313,8,5,5.897,5,3V1H4L4,3z M6.129,4
		C6.593,5.807,8.31,7,10.5,7h3c2.19,0,3.907-1.193,4.371-3H6.129z M18,3V2H6v1H18z"/>
	<path d="M12,22c-1.379,0-2.5-1.122-2.5-2.5S10.621,17,12,17c1.378,0,2.5,1.122,2.5,2.5S13.378,22,12,22z M12,18
		c-0.827,0-1.5,0.673-1.5,1.5S11.173,21,12,21s1.5-0.673,1.5-1.5S12.827,18,12,18z"/>
</g>
</svg>
