<?xml version="1.0" encoding="utf-8"?>
<!-- Generator: Adobe Illustrator 22.1.0, SVG Export Plug-In . SVG Version: 6.00 Build 0)  -->
<svg version="1.1" id="Layer_1" xmlns="http://www.w3.org/2000/svg" xmlns:xlink="http://www.w3.org/1999/xlink" x="0px" y="0px"
	 viewBox="0 0 24 24" style="enable-background:new 0 0 24 24;" xml:space="preserve">
<g>
	<title>shopping-bag-carry</title>
	<path d="M17,15.492c-0.276,0-0.5-0.224-0.5-0.5v-1c0-2.481-2.019-4.5-4.5-4.5c-2.481,0-4.5,2.019-4.5,4.5v1
		c0,0.276-0.224,0.5-0.5,0.5s-0.5-0.224-0.5-0.5v-1c0-3.033,2.467-5.5,5.5-5.5s5.5,2.467,5.5,5.5v1
		C17.5,15.268,17.276,15.492,17,15.492z"/>
	<path d="M10,23.992c-0.258,0-0.477-0.201-0.498-0.458L9.04,17.992H8.5c-0.276,0-0.5-0.224-0.5-0.5s0.224-0.5,0.5-0.5h1
		c0.258,0,0.477,0.201,0.498,0.458l0.462,5.542h3.08l0.462-5.542c0.021-0.257,0.24-0.458,0.498-0.458h1c0.276,0,0.5,0.224,0.5,0.5
		s-0.224,0.5-0.5,0.5h-0.54l-0.462,5.542c-0.021,0.257-0.24,0.458-0.498,0.458H10z"/>
	<path d="M12,7.992c-2.206,0-4-1.794-4-4s1.794-4,4-4s4,1.794,4,4S14.206,7.992,12,7.992z M12,0.992c-1.654,0-3,1.346-3,3
		s1.346,3,3,3c1.654,0,3-1.346,3-3S13.654,0.992,12,0.992z"/>
	<path d="M16.89,24.008c-0.767-0.001-1.39-0.625-1.39-1.391c0-0.115,0.014-0.229,0.043-0.34l0.851-3.405
		c0.127-0.509,0.582-0.864,1.106-0.864h0.077l0.266-1.596c0.074-0.443,0.315-0.83,0.68-1.091c0.287-0.205,0.624-0.313,0.974-0.313
		c0.093,0,0.187,0.008,0.279,0.023c0.708,0.118,1.264,0.673,1.382,1.381l0.266,1.596H21.5c0.525,0,0.979,0.355,1.106,0.863
		l0.852,3.409c0.028,0.108,0.042,0.222,0.042,0.337c0,0.766-0.623,1.39-1.389,1.391H16.89z M16.512,22.522
		c-0.008,0.032-0.012,0.064-0.012,0.095c0,0.216,0.175,0.391,0.39,0.391h5.22c0.215,0,0.39-0.176,0.39-0.391
		c0-0.031-0.004-0.062-0.012-0.093l-0.852-3.411c-0.016-0.062-0.071-0.105-0.135-0.105H17.5c-0.064,0-0.12,0.044-0.136,0.106l0,0
		L16.512,22.522z M20.41,18.008l-0.239-1.432c-0.048-0.287-0.272-0.511-0.559-0.559c-0.038-0.006-0.076-0.01-0.114-0.01
		c-0.141,0-0.277,0.044-0.393,0.127c-0.148,0.105-0.246,0.262-0.276,0.441l-0.239,1.432H20.41z"/>
	<path d="M1.89,24.008c-0.767-0.001-1.39-0.625-1.39-1.391c0-0.114,0.014-0.229,0.042-0.339l0.852-3.406
		c0.127-0.509,0.582-0.864,1.106-0.864h0.076l0.266-1.597c0.074-0.442,0.315-0.83,0.68-1.091c0.287-0.205,0.624-0.313,0.973-0.313
		c0.093,0,0.187,0.008,0.279,0.023c0.708,0.118,1.264,0.673,1.381,1.381l0.266,1.596H6.5c0.525,0,0.979,0.355,1.106,0.863
		l0.852,3.408C8.486,22.388,8.5,22.502,8.5,22.618c0,0.766-0.623,1.389-1.39,1.39H1.89z M2.5,19.008
		c-0.064,0-0.12,0.044-0.136,0.106l-0.852,3.408C1.504,22.554,1.5,22.585,1.5,22.617c0,0.216,0.175,0.391,0.39,0.391h5.22
		c0.215,0,0.39-0.176,0.39-0.391c0-0.032-0.004-0.063-0.012-0.094l-0.853-3.41c-0.016-0.062-0.071-0.105-0.135-0.105H2.5z
		 M5.41,18.008l-0.239-1.432c-0.048-0.287-0.272-0.512-0.559-0.56c-0.037-0.006-0.075-0.009-0.113-0.009
		c-0.142,0-0.278,0.044-0.395,0.127c-0.147,0.105-0.245,0.262-0.275,0.441L3.59,18.008H5.41z"/>
</g>
</svg>
