<?xml version="1.0" encoding="utf-8"?>
<!-- Generator: Adobe Illustrator 22.1.0, SVG Export Plug-In . SVG Version: 6.00 Build 0)  -->
<svg version="1.1" id="Layer_1" xmlns="http://www.w3.org/2000/svg" xmlns:xlink="http://www.w3.org/1999/xlink" x="0px" y="0px"
	 viewBox="0 0 24 24" style="enable-background:new 0 0 24 24;" xml:space="preserve">
<g>
	<title>shopping-bag-user-message</title>
	<circle cx="21.247" cy="13.227" r="0.75"/>
	<path d="M22,24c-0.018,0-0.036-0.001-0.054-0.003c-1.093-0.115-2.019-0.825-2.413-1.853c-0.177-0.351-0.091-0.821,0.22-1.121
		L20.785,20H20c-0.552,0-1-0.448-1-1v-1h-1.819c-0.551,0-1-0.449-1-1c0-0.098,0.014-0.196,0.043-0.291
		c0.282-0.928,0.531-1.917,0.771-2.873c1.063-4.226,2.162-8.595,6.42-9.329C23.443,4.502,23.472,4.5,23.5,4.5
		c0.244,0,0.451,0.175,0.492,0.415c0.047,0.272-0.136,0.531-0.408,0.578c-3.617,0.623-4.59,4.492-5.62,8.587
		c-0.243,0.968-0.495,1.969-0.783,2.919L19.5,17c0.276,0,0.5,0.224,0.5,0.5V19h2c0.204,0,0.385,0.122,0.462,0.31
		c0.077,0.188,0.034,0.403-0.111,0.546l-1.9,1.883c0.003,0.007,0.002,0.019,0.005,0.026c0.266,0.691,0.852,1.152,1.57,1.236H23.5
		c0.276,0,0.5,0.224,0.5,0.5S23.776,24,23.5,24H22z"/>
	<path d="M12,19.293c-0.264,0-0.522-0.107-0.708-0.294L8.293,16H2.5C1.121,16,0,14.878,0,13.5v-11C0,1.121,1.121,0,2.5,0h17
		C20.878,0,22,1.121,22,2.5v1C22,3.776,21.776,4,21.5,4S21,3.776,21,3.5v-1C21,1.673,20.327,1,19.5,1h-17C1.673,1,1,1.673,1,2.5v11
		C1,14.327,1.673,15,2.5,15h6c0.134,0,0.259,0.052,0.354,0.146L12,18.292l0-2.792c0-0.276,0.224-0.5,0.5-0.5h2
		c0.276,0,0.5,0.224,0.5,0.5S14.776,16,14.5,16H13v2.293C13,18.844,12.551,19.293,12,19.293z"/>
	<path d="M6.893,14C5.853,14,5.004,13.154,5,12.114c0-0.098,0.007-0.196,0.022-0.29l0.832-5.411C5.98,5.594,6.672,5,7.5,5H8V4.5
		C8,3.121,9.121,2,10.5,2S13,3.121,13,4.5V5h0.5c0.828,0,1.521,0.595,1.646,1.413l0.832,5.406C15.993,11.913,16,12.011,16,12.109
		C16,13.151,15.151,14,14.107,14H6.893z M7.5,6C7.169,6,6.893,6.237,6.842,6.564L6.01,11.976C6.003,12.021,6,12.066,6,12.111
		C6.002,12.601,6.402,13,6.893,13h7.214C14.599,13,15,12.599,15,12.107c0-0.046-0.003-0.09-0.01-0.134l-0.832-5.408
		C14.108,6.238,13.831,6,13.5,6H13v1.5C13,7.776,12.776,8,12.5,8C12.224,8,12,7.776,12,7.5V6H9v1.5C9,7.776,8.776,8,8.5,8
		S8,7.776,8,7.5V6H7.5z M12,5V4.5C12,3.673,11.327,3,10.5,3S9,3.673,9,4.5V5H12z"/>
</g>
</svg>
