<?xml version="1.0" encoding="utf-8"?>
<!-- Generator: Adobe Illustrator 22.1.0, SVG Export Plug-In . SVG Version: 6.00 Build 0)  -->
<svg version="1.1" id="Layer_1" xmlns="http://www.w3.org/2000/svg" xmlns:xlink="http://www.w3.org/1999/xlink" x="0px" y="0px"
	 viewBox="0 0 24 24" style="enable-background:new 0 0 24 24;" xml:space="preserve">
<g>
	<title>shopping-bag-barcode</title>
	<path d="M1.5,24.025c-0.827,0-1.5-0.673-1.5-1.5v-13c0-0.827,0.673-1.5,1.5-1.5h17c0.827,0,1.5,0.673,1.5,1.5v4
		c0,0.276-0.224,0.5-0.5,0.5s-0.5-0.224-0.5-0.5v-4c0-0.276-0.224-0.5-0.5-0.5h-17c-0.276,0-0.5,0.224-0.5,0.5v13
		c0,0.276,0.224,0.5,0.5,0.5h7c0.276,0,0.5,0.224,0.5,0.5s-0.224,0.5-0.5,0.5H1.5z"/>
	<path d="M14.5,7.025c-0.276,0-0.5-0.224-0.5-0.5v-1.5c0-2.206-1.794-4-4-4s-4,1.794-4,4v1.5c0,0.276-0.224,0.5-0.5,0.5
		S5,6.801,5,6.525v-1.5c0-2.757,2.243-5,5-5c2.757,0,5,2.243,5,5v1.5C15,6.801,14.776,7.025,14.5,7.025z"/>
	<path d="M13.5,21.525c-0.276,0-0.5-0.224-0.5-0.5v-4.5c0-0.276,0.224-0.5,0.5-0.5s0.5,0.224,0.5,0.5v4.5
		C14,21.301,13.776,21.525,13.5,21.525z"/>
	<path d="M11.5,24.025c-0.276,0-0.5-0.224-0.5-0.5v-7c0-0.276,0.224-0.5,0.5-0.5s0.5,0.224,0.5,0.5v7
		C12,23.801,11.776,24.025,11.5,24.025z"/>
	<path d="M15.5,21.525c-0.276,0-0.5-0.224-0.5-0.5v-4.5c0-0.276,0.224-0.5,0.5-0.5s0.5,0.224,0.5,0.5v4.5
		C16,21.301,15.776,21.525,15.5,21.525z"/>
	<path d="M17.5,24.025c-0.276,0-0.5-0.224-0.5-0.5v-7c0-0.276,0.224-0.5,0.5-0.5s0.5,0.224,0.5,0.5v7
		C18,23.801,17.776,24.025,17.5,24.025z"/>
	<path d="M19.5,21.525c-0.276,0-0.5-0.224-0.5-0.5v-4.5c0-0.276,0.224-0.5,0.5-0.5s0.5,0.224,0.5,0.5v4.5
		C20,21.301,19.776,21.525,19.5,21.525z"/>
	<path d="M21.5,21.525c-0.276,0-0.5-0.224-0.5-0.5v-4.5c0-0.276,0.224-0.5,0.5-0.5s0.5,0.224,0.5,0.5v4.5
		C22,21.301,21.776,21.525,21.5,21.525z"/>
	<path d="M13.5,24.025c-0.276,0-0.5-0.224-0.5-0.5v-0.5c0-0.276,0.224-0.5,0.5-0.5s0.5,0.224,0.5,0.5v0.5
		C14,23.801,13.776,24.025,13.5,24.025z"/>
	<path d="M15.5,24.025c-0.276,0-0.5-0.224-0.5-0.5v-0.5c0-0.276,0.224-0.5,0.5-0.5s0.5,0.224,0.5,0.5v0.5
		C16,23.801,15.776,24.025,15.5,24.025z"/>
	<path d="M19.5,24.025c-0.276,0-0.5-0.224-0.5-0.5v-0.5c0-0.276,0.224-0.5,0.5-0.5s0.5,0.224,0.5,0.5v0.5
		C20,23.801,19.776,24.025,19.5,24.025z"/>
	<path d="M21.5,24.025c-0.276,0-0.5-0.224-0.5-0.5v-0.5c0-0.276,0.224-0.5,0.5-0.5s0.5,0.224,0.5,0.5v0.5
		C22,23.801,21.776,24.025,21.5,24.025z"/>
	<path d="M23.5,24.025c-0.276,0-0.5-0.224-0.5-0.5v-7c0-0.276,0.224-0.5,0.5-0.5s0.5,0.224,0.5,0.5v7
		C24,23.801,23.776,24.025,23.5,24.025z"/>
</g>
</svg>
