<?xml version="1.0" encoding="utf-8"?>
<!-- Generator: Adobe Illustrator 22.1.0, SVG Export Plug-In . SVG Version: 6.00 Build 0)  -->
<svg version="1.1" id="Layer_1" xmlns="http://www.w3.org/2000/svg" xmlns:xlink="http://www.w3.org/1999/xlink" x="0px" y="0px"
	 viewBox="0 0 24 24" style="enable-background:new 0 0 24 24;" xml:space="preserve">
<g>
	<title>shopping-bag-smile</title>
	<circle cx="7.75" cy="14.75" r="0.75"/>
	<circle cx="16.25" cy="14.75" r="0.75"/>
	<path d="M11.99,20.003c-0.984,0-1.941-0.292-2.767-0.843c-0.55-0.367-1.015-0.832-1.382-1.382c-0.153-0.23-0.091-0.541,0.138-0.694
		C8.062,17.029,8.158,17,8.257,17c0.168,0,0.323,0.083,0.416,0.222c0.294,0.44,0.666,0.812,1.105,1.105
		c0.661,0.442,1.426,0.675,2.211,0.675c0.264,0,0.53-0.027,0.792-0.079c1.048-0.209,1.952-0.813,2.545-1.702
		C15.42,17.083,15.575,17,15.742,17c0.099,0,0.194,0.029,0.277,0.084c0.23,0.153,0.292,0.465,0.139,0.694
		c-0.742,1.111-1.872,1.866-3.181,2.127C12.651,19.97,12.319,20.003,11.99,20.003z"/>
	<path d="M4.497,24c-1.379,0-2.5-1.122-2.5-2.5c0-0.344,0.012-0.692,0.035-1.034l0.9-13C2.988,6.644,3.676,6,4.5,6H7V5
		c0-2.757,2.243-5,5-5c2.757,0,5,2.243,5,5v1h2.497c0.824,0,1.512,0.644,1.568,1.466l0.9,12.999
		c0.023,0.346,0.034,0.695,0.032,1.038c0,1.376-1.122,2.497-2.5,2.497H4.497z M4.5,7c-0.3,0-0.55,0.235-0.57,0.534l-0.9,13.001
		c-0.022,0.319-0.033,0.644-0.033,0.965c0,0.827,0.673,1.5,1.5,1.5h15c0.827,0,1.5-0.673,1.5-1.5c0.002-0.32-0.008-0.645-0.03-0.966
		l-0.9-13C20.047,7.235,19.797,7,19.497,7H17v2.5c0,0.276-0.224,0.5-0.5,0.5S16,9.776,16,9.5V7H8v2.5C8,9.776,7.776,10,7.5,10
		S7,9.776,7,9.5V7H4.5z M16,6V5c0-2.206-1.794-4-4-4S8,2.794,8,5v1H16z"/>
</g>
</svg>
