<?xml version="1.0" encoding="utf-8"?>
<!-- Generator: Adobe Illustrator 22.1.0, SVG Export Plug-In . SVG Version: 6.00 Build 0)  -->
<svg version="1.1" id="Layer_1" xmlns="http://www.w3.org/2000/svg" xmlns:xlink="http://www.w3.org/1999/xlink" x="0px" y="0px"
	 viewBox="0 0 24 24" style="enable-background:new 0 0 24 24;" xml:space="preserve">
<g>
	<title>shopping-bag-duty-free</title>
	<path d="M5,21.5c-0.276,0-0.5-0.224-0.5-0.5v-4c0-0.827,0.673-1.5,1.5-1.5h1c0.276,0,0.5,0.224,0.5,0.5S7.276,16.5,7,16.5H6
		c-0.276,0-0.5,0.224-0.5,0.5v1.5h1C6.776,18.5,7,18.724,7,19s-0.224,0.5-0.5,0.5h-1V21C5.5,21.276,5.276,21.5,5,21.5z"/>
	<path d="M14,14.5c-0.276,0-0.5-0.224-0.5-0.5V9.5H13c-0.276,0-0.5-0.224-0.5-0.5s0.224-0.5,0.5-0.5h2c0.276,0,0.5,0.224,0.5,0.5
		S15.276,9.5,15,9.5h-0.5V14C14.5,14.276,14.276,14.5,14,14.5z"/>
	<path d="M11,21.5c-0.175,0-0.339-0.093-0.429-0.243L9.5,19.472V21c0,0.276-0.224,0.5-0.5,0.5S8.5,21.276,8.5,21v-5
		c0-0.276,0.224-0.5,0.5-0.5h0.75c0.965,0,1.75,0.785,1.75,1.75c0,0.756-0.485,1.412-1.176,1.652l1.104,1.841
		c0.142,0.237,0.065,0.544-0.171,0.686C11.18,21.475,11.091,21.5,11,21.5z M9.75,18c0.414,0,0.75-0.336,0.75-0.75
		s-0.336-0.75-0.75-0.75H9.5V18H9.75z"/>
	<path d="M10,14.5c-0.827,0-1.5-0.673-1.5-1.5V9c0-0.276,0.224-0.5,0.5-0.5S9.5,8.724,9.5,9v4c0,0.276,0.224,0.5,0.5,0.5
		s0.5-0.224,0.5-0.5V9c0-0.276,0.224-0.5,0.5-0.5s0.5,0.224,0.5,0.5v4C11.5,13.827,10.827,14.5,10,14.5z"/>
	<path d="M18,14.5c-0.276,0-0.5-0.224-0.5-0.5v-2.086c-0.59-0.209-1-0.774-1-1.414V9c0-0.276,0.224-0.5,0.5-0.5s0.5,0.224,0.5,0.5
		v1.5c0,0.276,0.224,0.5,0.5,0.5s0.5-0.224,0.5-0.5V9c0-0.276,0.224-0.5,0.5-0.5s0.5,0.224,0.5,0.5v1.5c0,0.64-0.41,1.205-1,1.414
		V14C18.5,14.276,18.276,14.5,18,14.5z"/>
	<path d="M5,14.5c-0.276,0-0.5-0.224-0.5-0.5V9c0-0.276,0.224-0.5,0.5-0.5c1.379,0,2.5,1.121,2.5,2.5v1
		C7.5,13.378,6.379,14.5,5,14.5z M5.5,13.414c0.586-0.209,1-0.773,1-1.414v-1c0-0.641-0.414-1.205-1-1.414V13.414z"/>
	<path d="M14,21.5c-0.827,0-1.5-0.673-1.5-1.5v-3c0-0.827,0.673-1.5,1.5-1.5h1c0.276,0,0.5,0.224,0.5,0.5s-0.224,0.5-0.5,0.5h-1
		c-0.276,0-0.5,0.224-0.5,0.5v1.5H15c0.276,0,0.5,0.224,0.5,0.5s-0.224,0.5-0.5,0.5h-1.5V20c0,0.276,0.224,0.5,0.5,0.5h1
		c0.276,0,0.5,0.224,0.5,0.5s-0.224,0.5-0.5,0.5H14z"/>
	<path d="M18,21.5c-0.827,0-1.5-0.673-1.5-1.5v-3c0-0.827,0.673-1.5,1.5-1.5h1c0.276,0,0.5,0.224,0.5,0.5s-0.224,0.5-0.5,0.5h-1
		c-0.276,0-0.5,0.224-0.5,0.5v1.5H19c0.276,0,0.5,0.224,0.5,0.5s-0.224,0.5-0.5,0.5h-1.5V20c0,0.276,0.224,0.5,0.5,0.5h1
		c0.276,0,0.5,0.224,0.5,0.5s-0.224,0.5-0.5,0.5H18z"/>
	<path d="M2,24c-0.827,0-1.5-0.673-1.5-1.5v-16C0.5,5.673,1.173,5,2,5h5c0-2.757,2.243-5,5-5c2.757,0,5,2.243,5,5h5
		c0.827,0,1.5,0.673,1.5,1.5v16c0,0.827-0.673,1.5-1.5,1.5H2z M2,6C1.724,6,1.5,6.224,1.5,6.5v16C1.5,22.776,1.724,23,2,23h20
		c0.276,0,0.5-0.224,0.5-0.5v-16C22.5,6.224,22.276,6,22,6H2z M16,5c0-2.206-1.794-4-4-4S8,2.794,8,5H16z"/>
</g>
</svg>
