<?xml version="1.0" encoding="utf-8"?>
<!-- Generator: Adobe Illustrator 22.1.0, SVG Export Plug-In . SVG Version: 6.00 Build 0)  -->
<svg version="1.1" id="Layer_1" xmlns="http://www.w3.org/2000/svg" xmlns:xlink="http://www.w3.org/1999/xlink" x="0px" y="0px"
	 viewBox="0 0 24 24" style="enable-background:new 0 0 24 24;" xml:space="preserve">
<g>
	<title>shopping-bag-barcode-1</title>
	<path d="M1.5,24C0.673,24,0,23.327,0,22.5v-15C0,6.673,0.673,6,1.5,6H7V5c0-2.757,2.243-5,5-5c2.757,0,5,2.243,5,5v1h5.5
		C23.327,6,24,6.673,24,7.5v15c0,0.827-0.673,1.5-1.5,1.5H1.5z M1.5,7C1.224,7,1,7.224,1,7.5v15C1,22.776,1.224,23,1.5,23h21
		c0.276,0,0.5-0.224,0.5-0.5v-15C23,7.224,22.776,7,22.5,7H1.5z M16,6V5c0-2.206-1.794-4-4-4S8,2.794,8,5v1H16z"/>
	<path d="M5.5,19C5.224,19,5,18.776,5,18.5V12c0-0.276,0.224-0.5,0.5-0.5S6,11.724,6,12v6.5C6,18.776,5.776,19,5.5,19z"/>
	<path d="M18.5,19c-0.276,0-0.5-0.224-0.5-0.5V12c0-0.276,0.224-0.5,0.5-0.5S19,11.724,19,12v6.5C19,18.776,18.776,19,18.5,19z"/>
	<path d="M7.5,16.5C7.224,16.5,7,16.276,7,16v-4c0-0.276,0.224-0.5,0.5-0.5S8,11.724,8,12v4C8,16.276,7.776,16.5,7.5,16.5z"/>
	<path d="M12.5,16.5c-0.276,0-0.5-0.224-0.5-0.5v-4c0-0.276,0.224-0.5,0.5-0.5c0.276,0,0.5,0.224,0.5,0.5v4
		C13,16.276,12.776,16.5,12.5,16.5z"/>
	<path d="M14.5,16.5c-0.276,0-0.5-0.224-0.5-0.5v-4c0-0.276,0.224-0.5,0.5-0.5S15,11.724,15,12v4C15,16.276,14.776,16.5,14.5,16.5z"
		/>
	<path d="M9.5,16.5C9.224,16.5,9,16.276,9,16v-4c0-0.276,0.224-0.5,0.5-0.5S10,11.724,10,12v4C10,16.276,9.776,16.5,9.5,16.5z"/>
	<path d="M16.5,16.5c-0.276,0-0.5-0.224-0.5-0.5v-4c0-0.276,0.224-0.5,0.5-0.5S17,11.724,17,12v4C17,16.276,16.776,16.5,16.5,16.5z"
		/>
	<path d="M7.5,19C7.224,19,7,18.776,7,18.5V18c0-0.276,0.224-0.5,0.5-0.5S8,17.724,8,18v0.5C8,18.776,7.776,19,7.5,19z"/>
	<path d="M9.5,19C9.224,19,9,18.776,9,18.5V18c0-0.276,0.224-0.5,0.5-0.5S10,17.724,10,18v0.5C10,18.776,9.776,19,9.5,19z"/>
	<path d="M12.5,19c-0.276,0-0.5-0.224-0.5-0.5V18c0-0.276,0.224-0.5,0.5-0.5c0.276,0,0.5,0.224,0.5,0.5v0.5
		C13,18.776,12.776,19,12.5,19z"/>
	<path d="M14.5,19c-0.276,0-0.5-0.224-0.5-0.5V18c0-0.276,0.224-0.5,0.5-0.5S15,17.724,15,18v0.5C15,18.776,14.776,19,14.5,19z"/>
	<path d="M16.5,19c-0.276,0-0.5-0.224-0.5-0.5V18c0-0.276,0.224-0.5,0.5-0.5S17,17.724,17,18v0.5C17,18.776,16.776,19,16.5,19z"/>
</g>
</svg>
