<?xml version="1.0" encoding="utf-8"?>
<!-- Generator: Adobe Illustrator 22.1.0, SVG Export Plug-In . SVG Version: 6.00 Build 0)  -->
<svg version="1.1" id="Layer_1" xmlns="http://www.w3.org/2000/svg" xmlns:xlink="http://www.w3.org/1999/xlink" x="0px" y="0px"
	 viewBox="0 0 24 24" style="enable-background:new 0 0 24 24;" xml:space="preserve">
<g>
	<title>shopping-bag-sad</title>
	<circle cx="7.75" cy="14.75" r="0.75"/>
	<circle cx="16.25" cy="14.75" r="0.75"/>
	<path d="M15.742,20c-0.167,0-0.323-0.083-0.416-0.222c-0.294-0.44-0.666-0.812-1.105-1.105C13.562,18.232,12.796,18,12.006,18
		c-1.344,0-2.59,0.665-3.333,1.778C8.58,19.917,8.424,20,8.257,20c-0.099,0-0.194-0.029-0.277-0.083
		c-0.23-0.153-0.292-0.464-0.139-0.694C8.77,17.831,10.327,17,12.007,17c0.988,0,1.946,0.291,2.77,0.84
		c0.551,0.368,1.016,0.833,1.382,1.382c0.074,0.111,0.101,0.244,0.074,0.375c-0.026,0.131-0.102,0.244-0.213,0.318
		C15.937,19.971,15.841,20,15.742,20z"/>
	<path d="M4.497,24c-1.379,0-2.5-1.122-2.5-2.5c0-0.344,0.012-0.692,0.035-1.034l0.9-13C2.988,6.644,3.676,6,4.5,6H7V5
		c0-2.757,2.243-5,5-5c2.757,0,5,2.243,5,5v1h2.497c0.824,0,1.512,0.644,1.568,1.466l0.9,12.999
		c0.023,0.346,0.034,0.695,0.032,1.038c0,1.376-1.122,2.497-2.5,2.497H4.497z M4.5,7c-0.3,0-0.55,0.235-0.57,0.534l-0.9,13.001
		c-0.022,0.319-0.033,0.644-0.033,0.965c0,0.827,0.673,1.5,1.5,1.5h15c0.827,0,1.5-0.673,1.5-1.5c0.002-0.32-0.008-0.645-0.03-0.966
		l-0.9-13C20.047,7.235,19.797,7,19.497,7H17v2.5c0,0.276-0.224,0.5-0.5,0.5S16,9.776,16,9.5V7H8v2.5C8,9.776,7.776,10,7.5,10
		S7,9.776,7,9.5V7H4.5z M16,6V5c0-2.206-1.794-4-4-4S8,2.794,8,5v1H16z"/>
</g>
</svg>
