<?xml version="1.0" encoding="utf-8"?>
<!-- Generator: Adobe Illustrator 22.1.0, SVG Export Plug-In . SVG Version: 6.00 Build 0)  -->
<svg version="1.1" id="Layer_1" xmlns="http://www.w3.org/2000/svg" xmlns:xlink="http://www.w3.org/1999/xlink" x="0px" y="0px"
	 viewBox="0 0 24 24" style="enable-background:new 0 0 24 24;" xml:space="preserve">
<g>
	<title>shopping-bag-tag</title>
	<path d="M2.377,24c-0.827,0-1.5-0.673-1.5-1.5v-12c0-0.827,0.673-1.5,1.5-1.5h2c0.276,0,0.5,0.224,0.5,0.5S4.652,10,4.377,10h-2
		c-0.276,0-0.5,0.224-0.5,0.5v12c0,0.276,0.224,0.5,0.5,0.5h17c0.276,0,0.5-0.224,0.5-0.5v-12c0-0.276-0.224-0.5-0.5-0.5h-2
		c-0.276,0-0.5-0.224-0.5-0.5s0.224-0.5,0.5-0.5h2c0.827,0,1.5,0.673,1.5,1.5v12c0,0.827-0.673,1.5-1.5,1.5H2.377z"/>
	<path d="M15.377,11c-0.276,0-0.5-0.224-0.5-0.5V5c0-2.206-1.794-4-4-4c-2.206,0-4,1.794-4,4v5.5c0,0.276-0.224,0.5-0.5,0.5
		s-0.5-0.224-0.5-0.5V5c0-2.757,2.243-5,5-5s5,2.243,5,5v5.5C15.877,10.776,15.652,11,15.377,11z"/>
	<path d="M8.377,10c-0.276,0-0.5-0.224-0.5-0.5S8.101,9,8.377,9h5c0.276,0,0.5,0.224,0.5,0.5s-0.224,0.5-0.5,0.5H8.377z"/>
	<path d="M7.877,20c-0.551,0-1-0.448-1-1v-5c0-0.552,0.449-1,1-1h6c0.552,0,1,0.448,1,1v5c0,0.552-0.448,1-1,1H7.877z M7.877,19h6
		v-5h-6L7.877,19z"/>
	<path d="M17.377,8c-0.276,0-0.5-0.224-0.5-0.5V5.793c0-0.395,0.16-0.781,0.439-1.061l2.537-2.536
		c0.283-0.283,0.659-0.439,1.06-0.439c0.401,0,0.778,0.156,1.061,0.439l0.708,0.708c0.584,0.585,0.584,1.536,0,2.121l-2.536,2.535
		C19.862,7.844,19.485,8,19.085,8H17.377z M19.085,7c0.133,0,0.259-0.052,0.353-0.146l2.536-2.535c0.195-0.195,0.195-0.512,0-0.707
		l-0.708-0.708c-0.094-0.094-0.219-0.146-0.353-0.146s-0.259,0.052-0.354,0.146L18.023,5.44c-0.093,0.093-0.146,0.222-0.146,0.353V7
		H19.085z"/>
</g>
</svg>
