<?xml version="1.0" encoding="utf-8"?>
<!-- Generator: Adobe Illustrator 22.1.0, SVG Export Plug-In . SVG Version: 6.00 Build 0)  -->
<svg version="1.1" id="Light" xmlns="http://www.w3.org/2000/svg" xmlns:xlink="http://www.w3.org/1999/xlink" x="0px" y="0px"
	 viewBox="0 0 24 24" style="enable-background:new 0 0 24 24;" xml:space="preserve">
<g>
	<title>deer-antlers</title>
	<path d="M8.506,23c-0.111,0-0.22-0.038-0.308-0.106c-0.122-0.095-0.192-0.239-0.192-0.394v-2c-0.085-1.055-0.445-2.099-1.041-3.01
		l-3.636-0.393c-0.81-0.108-1.382-0.822-1.308-1.626c0.037-0.399,0.227-0.76,0.535-1.016c0.272-0.226,0.604-0.346,0.961-0.346
		c0.045,0,0.089,0.002,0.134,0.006l0.613,0.065c-0.179-0.278-0.341-0.567-0.483-0.866l-2.453-1.045
		c-0.37-0.16-0.654-0.453-0.802-0.826c-0.147-0.373-0.141-0.781,0.018-1.148C0.781,9.745,1.323,9.39,1.923,9.39
		c0.205,0,0.405,0.042,0.595,0.124l0.525,0.224C3.027,9.413,3.016,9.056,3.009,8.656L0.642,6.258
		C0.129,5.67,0.132,4.811,0.637,4.248c0.283-0.316,0.69-0.497,1.116-0.497c0.371,0,0.727,0.136,1.002,0.384l0.251,0.254V2.5
		c0-0.827,0.673-1.5,1.5-1.5s1.5,0.673,1.5,1.5V5c0,6.019,0,6.793,2.352,9.145c1.71,1.657,2.676,3.976,2.648,6.361
		c0,1.866-2.282,2.455-2.379,2.479C8.589,22.995,8.548,23,8.506,23z M3.512,15.108c-0.115,0-0.227,0.041-0.317,0.116
		c-0.103,0.085-0.166,0.206-0.178,0.339c-0.025,0.268,0.165,0.506,0.432,0.542l3.854,0.417c0.143,0.016,0.272,0.092,0.355,0.209
		c0.775,1.099,1.241,2.389,1.348,3.73l0.001,1.31c0.469-0.238,1-0.645,1-1.271c0.025-2.117-0.831-4.172-2.348-5.641
		C5.006,12.207,5.006,10.966,5.006,5V2.5c0-0.276-0.224-0.5-0.5-0.5s-0.5,0.224-0.5,0.5v3.107c0,0.204-0.122,0.385-0.31,0.463
		c-0.06,0.025-0.124,0.037-0.19,0.037c-0.133,0-0.263-0.054-0.356-0.149l-1.085-1.1c-0.073-0.064-0.19-0.107-0.31-0.107L1.727,4.751
		C1.593,4.759,1.47,4.817,1.381,4.917C1.213,5.104,1.21,5.389,1.376,5.579l2.487,2.518C3.954,8.19,4.005,8.312,4.006,8.442
		c0.01,0.841,0.038,1.486,0.09,2.027c0.016,0.175-0.061,0.348-0.203,0.451c-0.086,0.063-0.188,0.096-0.295,0.096
		c-0.068,0-0.134-0.013-0.196-0.04l-1.28-0.545c-0.066-0.028-0.134-0.043-0.202-0.043c-0.063,0-0.125,0.012-0.184,0.036
		c-0.125,0.049-0.222,0.144-0.275,0.267c-0.053,0.122-0.055,0.259-0.006,0.383c0.049,0.125,0.144,0.222,0.266,0.275l2.629,1.12
		c0.117,0.05,0.209,0.141,0.261,0.257c0.282,0.635,0.66,1.221,1.124,1.74c0.137,0.153,0.166,0.379,0.072,0.562
		C5.722,15.196,5.552,15.3,5.365,15.3c-0.019,0-0.039-0.001-0.058-0.003L3.553,15.11C3.543,15.109,3.527,15.108,3.512,15.108z"/>
	<path d="M15.506,23c-0.042,0-0.083-0.005-0.123-0.015c-0.095-0.024-2.377-0.611-2.377-2.485c-0.028-2.38,0.938-4.698,2.651-6.358
		c2.349-2.35,2.349-3.123,2.349-9.142V2.5c0-0.827,0.673-1.5,1.5-1.5s1.5,0.673,1.5,1.5v1.888l0.229-0.232
		c0.292-0.264,0.653-0.403,1.028-0.403c0.424,0,0.829,0.181,1.112,0.495c0.505,0.562,0.512,1.417,0.016,1.987l-2.388,2.421
		c-0.007,0.4-0.018,0.758-0.033,1.081l0.528-0.225c0.188-0.081,0.387-0.123,0.592-0.123c0.189,0,0.376,0.036,0.554,0.106
		c0.373,0.148,0.665,0.432,0.824,0.8c0.159,0.368,0.165,0.775,0.018,1.148c-0.148,0.373-0.432,0.665-0.8,0.824l-2.454,1.046
		c-0.141,0.298-0.302,0.586-0.481,0.864l0.599-0.065c0.056-0.006,0.112-0.01,0.169-0.01c0.342,0,0.665,0.113,0.933,0.327
		c0.314,0.25,0.511,0.606,0.557,1.005c0.093,0.822-0.5,1.567-1.322,1.661l-3.639,0.394c-0.597,0.911-0.957,1.963-1.043,3.05
		l0.001,1.96c0,0.155-0.07,0.299-0.193,0.394C15.726,22.962,15.617,23,15.506,23z M19.506,2c-0.276,0-0.5,0.224-0.5,0.5V5
		c0,5.966,0,7.207-2.646,9.854c-1.523,1.475-2.379,3.529-2.354,5.641c0,0.63,0.531,1.038,1,1.276V20.5
		c0.107-1.374,0.573-2.671,1.349-3.771c0.083-0.117,0.212-0.193,0.354-0.209l3.866-0.418c0.272-0.031,0.47-0.28,0.439-0.554
		c-0.015-0.133-0.081-0.252-0.186-0.335c-0.09-0.072-0.198-0.109-0.312-0.109c-0.019,0-0.038,0.001-0.057,0.003l-1.755,0.19
		c-0.018,0.002-0.036,0.003-0.054,0.003c-0.188,0-0.358-0.104-0.444-0.271c-0.094-0.183-0.065-0.408,0.072-0.562
		c0.463-0.519,0.841-1.104,1.123-1.74c0.051-0.116,0.144-0.207,0.26-0.257l2.63-1.121c0.121-0.052,0.215-0.15,0.265-0.274
		s0.047-0.26-0.006-0.383c-0.053-0.123-0.151-0.218-0.275-0.267c-0.06-0.023-0.122-0.035-0.185-0.035
		c-0.068,0-0.135,0.014-0.198,0.042l-1.282,0.546c-0.062,0.026-0.128,0.04-0.196,0.04c-0.106,0-0.208-0.033-0.295-0.096
		c-0.142-0.104-0.22-0.277-0.203-0.452c0.052-0.543,0.08-1.188,0.09-2.027c0.001-0.13,0.052-0.252,0.144-0.345l2.508-2.541
		c0.146-0.169,0.139-0.455-0.027-0.639c-0.094-0.105-0.23-0.165-0.372-0.165c-0.124,0-0.242,0.045-0.334,0.128l-1.063,1.079
		c-0.094,0.095-0.223,0.149-0.356,0.149c-0.065,0-0.128-0.012-0.189-0.037c-0.189-0.078-0.311-0.259-0.311-0.463V2.5
		C20.006,2.224,19.782,2,19.506,2z"/>
</g>
</svg>
