<?xml version="1.0" encoding="utf-8"?>
<!-- Generator: Adobe Illustrator 22.1.0, SVG Export Plug-In . SVG Version: 6.00 Build 0)  -->
<svg version="1.1" id="Light" xmlns="http://www.w3.org/2000/svg" xmlns:xlink="http://www.w3.org/1999/xlink" x="0px" y="0px"
	 viewBox="0 0 24 24" style="enable-background:new 0 0 24 24;" xml:space="preserve">
<g>
	<title>deer-target</title>
	<path d="M12,24c-0.276,0-0.5-0.224-0.5-0.5v-0.515C5.809,22.731,1.269,18.19,1.015,12.5H0.5C0.224,12.5,0,12.276,0,12
		c0-0.276,0.224-0.5,0.5-0.5h0.515C1.269,5.809,5.809,1.269,11.5,1.015V0.5C11.5,0.224,11.724,0,12,0c0.276,0,0.5,0.224,0.5,0.5
		v0.515C18.19,1.269,22.731,5.809,22.985,11.5H23.5c0.276,0,0.5,0.224,0.5,0.5c0,0.276-0.224,0.5-0.5,0.5h-0.515
		C22.731,18.19,18.19,22.731,12.5,22.985V23.5C12.5,23.776,12.276,24,12,24z M12,21c0.276,0,0.5,0.224,0.5,0.5v0.484
		c5.133-0.253,9.231-4.351,9.484-9.484H21.5c-0.276,0-0.5-0.224-0.5-0.5c0-0.276,0.224-0.5,0.5-0.5h0.484
		c-0.253-5.133-4.351-9.231-9.484-9.484V2.5C12.5,2.776,12.276,3,12,3c-0.276,0-0.5-0.224-0.5-0.5V2.016
		C6.367,2.269,2.269,6.367,2.016,11.5H2.5C2.776,11.5,3,11.724,3,12c0,0.276-0.224,0.5-0.5,0.5H2.016
		c0.253,5.133,4.351,9.231,9.484,9.484V21.5C11.5,21.224,11.724,21,12,21z"/>
	<path d="M12.003,19.002c-0.145,0-0.291-0.018-0.433-0.053c-0.641-0.16-1.138-0.657-1.298-1.298L9.358,13.99
		c-0.824-0.07-1.568-0.547-1.974-1.277l-1.079-2.143c-0.154-0.276-0.254-0.603-0.288-0.944L4.66,8.366
		C4.458,8.179,4.446,7.862,4.634,7.66C4.728,7.558,4.862,7.5,5,7.5c0.126,0,0.247,0.047,0.34,0.133L6,8.246V7.5
		C6,7.224,6.224,7,6.5,7S7,7.224,7,7.5v1.875c0,0.254,0.065,0.506,0.189,0.728l0.299,0.594l1.158-1.158
		C8.741,9.445,8.866,9.393,9,9.393s0.259,0.052,0.354,0.146S9.5,9.759,9.5,9.893s-0.052,0.259-0.146,0.354l-1.392,1.392l0.306,0.608
		c0.225,0.405,0.64,0.68,1.107,0.741c0.032-0.092,0.073-0.178,0.12-0.258c0.206-0.344,0.533-0.587,0.922-0.684
		C10.535,12.015,10.658,12,10.781,12h2.438c0.635,0,1.196,0.404,1.409,0.986c0.466-0.062,0.882-0.341,1.114-0.758l0.296-0.59
		l-1.392-1.392c-0.094-0.094-0.146-0.22-0.146-0.354s0.052-0.259,0.146-0.354S14.866,9.393,15,9.393s0.259,0.052,0.354,0.146
		l1.158,1.158l0.29-0.576C16.933,9.884,17,9.629,17,9.375V7.5C17,7.224,17.224,7,17.5,7S18,7.224,18,7.5v0.746l0.66-0.613
		C18.752,7.547,18.873,7.5,19,7.5c0.139,0,0.272,0.058,0.367,0.16c0.187,0.202,0.176,0.519-0.026,0.706l-1.358,1.261
		c-0.034,0.341-0.136,0.672-0.297,0.962l-1.059,2.107c-0.413,0.744-1.158,1.224-1.983,1.295l-0.915,3.661
		c-0.115,0.461-0.403,0.851-0.81,1.096C12.64,18.914,12.323,19.002,12.003,19.002z M10.781,13c-0.041,0-0.082,0.005-0.12,0.015
		c-0.13,0.032-0.24,0.114-0.308,0.228s-0.089,0.249-0.056,0.378l0.946,3.788c0.07,0.281,0.288,0.499,0.569,0.569
		c0.062,0.016,0.127,0.024,0.19,0.024c0.14,0,0.279-0.039,0.401-0.112c0.179-0.107,0.305-0.278,0.355-0.48l0.947-3.788
		c0.01-0.04,0.015-0.081,0.015-0.122c0-0.276-0.224-0.5-0.5-0.5H10.781z"/>
</g>
</svg>
