<?xml version="1.0" encoding="utf-8"?>
<!-- Generator: Adobe Illustrator 22.1.0, SVG Export Plug-In . SVG Version: 6.00 Build 0)  -->
<svg version="1.1" id="Light" xmlns="http://www.w3.org/2000/svg" xmlns:xlink="http://www.w3.org/1999/xlink" x="0px" y="0px"
	 viewBox="0 0 24 24" style="enable-background:new 0 0 24 24;" xml:space="preserve">
<g>
	<title>deer-2</title>
	<circle cx="15.5" cy="12.5" r="0.75"/>
	<path d="M9,24c-0.07,0-0.138-0.014-0.203-0.043c-0.252-0.112-0.366-0.408-0.254-0.66c0.02-0.045,2.002-4.505,2.51-5.521
		C11.625,16.631,13.205,16,15.5,16h5c0.669,0,0.892-0.223,0.965-0.382c-0.45-0.609-2.332-3.15-2.856-3.806l-0.13-0.162
		C17.834,10.839,17.167,10,16,10h-3.5c-0.23,0-0.429-0.156-0.485-0.378c-0.008-0.032-0.833-3.155-3.017-3.575
		c0.006,1.074,0.139,2.912,1.785,4.041c0.224,0.154,0.284,0.464,0.133,0.69C10.491,11.414,6.675,17,3.5,17h-3
		C0.224,17,0,16.776,0,16.5S0.224,16,0.5,16h3c2.286,0,5.423-4.145,6.316-5.394c-1.841-1.56-1.824-3.912-1.817-4.934L8,5.499
		C8,5.224,8.224,5,8.5,5c1.408,0,2.635,0.773,3.549,2.235C12.473,7.914,12.733,8.581,12.872,9H13V6c0-2.757,2.243-5,5-5h4.5
		C22.776,1,23,0.776,23,0.5S23.224,0,23.5,0S24,0.224,24,0.5C24,1.327,23.327,2,22.5,2H18c-2.206,0-4,1.794-4,4h3.5
		C18.327,6,19,5.327,19,4.5C19,4.224,19.224,4,19.5,4S20,4.224,20,4.5C20,5.879,18.878,7,17.5,7H14v2h2
		c1.65,0,2.582,1.172,3.262,2.027l0.128,0.161c0.591,0.739,2.766,3.682,3.012,4.016C22.466,15.29,22.5,15.392,22.5,15.5
		c0,0.015-0.023,1.5-2,1.5h-5c-1.842,0-3.17,0.458-3.553,1.224c-0.464,0.928-2.28,5.007-2.486,5.469C9.377,23.884,9.197,24,9,24z"/>
</g>
</svg>
