<?xml version="1.0" encoding="utf-8"?>
<!-- Generator: Adobe Illustrator 22.1.0, SVG Export Plug-In . SVG Version: 6.00 Build 0)  -->
<svg version="1.1" id="Light" xmlns="http://www.w3.org/2000/svg" xmlns:xlink="http://www.w3.org/1999/xlink" x="0px" y="0px"
	 viewBox="0 0 24 24" style="enable-background:new 0 0 24 24;" xml:space="preserve">
<g>
	<title>moose</title>
	<circle cx="13.75" cy="13.25" r="0.75"/>
	<path d="M12.151,24.008c-3.446,0-6.437-2.095-7.621-5.336c-0.052-0.143-0.037-0.3,0.042-0.43c0.293-0.483,2.779-4.567,4.7-7.241
		H4.5C2.019,11,0,8.981,0,6.5V2c0-1.103,0.897-2,2-2s2,0.897,2,2v4c0,0.551,0.449,1,1,1s1-0.449,1-1V3.5C6,2.673,6.673,2,7.5,2
		S9,2.673,9,3.5v3C9,6.776,9.224,7,9.5,7h5C14.776,7,15,6.776,15,6.5v-3C15,2.673,15.673,2,16.5,2S18,2.673,18,3.5V6
		c0,0.551,0.448,1,1,1s1-0.449,1-1V2c0-1.103,0.897-2,2-2s2,0.897,2,2v4.5c0,2.481-2.019,4.5-4.5,4.5h-4.034
		c1.591,1.247,3.571,2.965,3.768,4.854c0.091,0.873-0.197,1.704-0.854,2.471c-0.676,0.789-1.44,1.189-2.269,1.189
		c-1.13,0-2.106-0.729-2.752-1.211c-0.09-0.067-0.231-0.173-0.359-0.261V23.5c0,0.268-0.21,0.487-0.477,0.5
		C12.398,24.005,12.274,24.008,12.151,24.008z M5.555,18.55c1.075,2.672,3.583,4.406,6.445,4.457V18c0-0.222,0-0.814,0.45-1.039
		c0.099-0.049,0.205-0.074,0.315-0.074c0.369,0,0.732,0.271,1.191,0.615c0.609,0.454,1.364,1.018,2.133,1.018
		c0.543,0,1.043-0.276,1.531-0.845c0.479-0.558,0.681-1.12,0.619-1.717c-0.178-1.708-2.415-3.426-4.212-4.806l-0.332-0.255
		c-0.172-0.133-0.318-0.25-0.446-0.355C12.695,10.093,12.58,10,12,10l-0.061-0.001c-0.505,0-0.955,0.261-1.204,0.699
		c-0.002,0.003-0.004,0.007-0.007,0.011c-0.007,0.014-0.016,0.031-0.03,0.048l-0.04,0.051c-0.006,0.007-0.012,0.014-0.018,0.021
		C8.867,13.154,6.099,17.658,5.555,18.55z M19.5,10c1.93,0,3.5-1.57,3.5-3.5V2c0-0.551-0.448-1-1-1s-1,0.449-1,1v4
		c0,1.103-0.897,2-2,2s-2-0.897-2-2V3.5C17,3.224,16.776,3,16.5,3S16,3.224,16,3.5v3C16,7.327,15.327,8,14.5,8h-5
		C8.673,8,8,7.327,8,6.5v-3C8,3.224,7.776,3,7.5,3S7,3.224,7,3.5V6c0,1.103-0.897,2-2,2S3,7.103,3,6V2c0-0.551-0.449-1-1-1
		S1,1.449,1,2v4.5C1,8.43,2.57,10,4.5,10h5.499c0.447-0.629,1.164-1.001,1.943-1.001c0,0,0.073,0.001,0.073,0.001
		c0.917,0,1.273,0.287,1.861,0.764c0.088,0.072,0.187,0.151,0.295,0.236H19.5z"/>
</g>
</svg>
