<?xml version="1.0" encoding="utf-8"?>
<!-- Generator: Adobe Illustrator 22.1.0, SVG Export Plug-In . SVG Version: 6.00 Build 0)  -->
<svg version="1.1" id="Light" xmlns="http://www.w3.org/2000/svg" xmlns:xlink="http://www.w3.org/1999/xlink" x="0px" y="0px"
	 viewBox="0 0 24 24" style="enable-background:new 0 0 24 24;" xml:space="preserve">
<g>
	<title>moose-body</title>
	<path d="M13.493,23.999c-0.827,0-1.5-0.673-1.5-1.5v-4.5c0-1.103-0.897-2-2-2h-5c-1.103,0-2,0.897-2,2v4.5
		c0,0.827-0.673,1.5-1.5,1.5s-1.5-0.673-1.5-1.5v-9c0-2.206,1.794-4,4-4h2.5c0.252,0.017,0.49,0.026,0.724,0.026
		c2.621,0,5.079-1.022,6.921-2.878c1.5-1.474,3.061-2.219,4.642-2.219c1.254,0,2.479,0.499,3.448,1.404
		c1.757,1.64,2.273,4.156,1.128,5.493c-0.429,0.597-1.09,1.002-1.848,1.124c-0.153,0.024-0.308,0.037-0.461,0.037c0,0,0,0,0,0
		c-0.604,0-1.184-0.188-1.677-0.545c-0.057-0.035-0.141-0.059-0.229-0.059c-0.15,0-0.29,0.066-0.384,0.182
		c-0.808,0.994-2.305,2.833-3.764,4.614v5.821C14.993,23.326,14.32,23.999,13.493,23.999z M9.993,14.999c1.654,0,3,1.346,3,3v4.5
		c0,0.276,0.224,0.5,0.5,0.5s0.5-0.224,0.5-0.5v-5.805c-1.782-1.934-2.603-4.575-2.245-7.169c-1.413,0.656-2.966,1.001-4.521,1.001
		c-0.256,0-0.515-0.009-0.77-0.028l-2.464,0.001c-1.654,0-3,1.346-3,3v9c0,0.276,0.224,0.5,0.5,0.5s0.5-0.224,0.5-0.5v-4.5
		c0-1.654,1.346-3,3-3H9.993z M12.882,8.912c-0.569,2.368,0.038,4.944,1.596,6.817c1.374-1.678,2.744-3.361,3.504-4.296
		c0.285-0.348,0.706-0.548,1.156-0.548c0.281,0,0.554,0.079,0.791,0.228c0.343,0.247,0.726,0.373,1.12,0.373
		c0.1,0,0.201-0.008,0.301-0.024c0.493-0.079,0.927-0.346,1.219-0.752c0.814-0.953,0.33-2.883-1.023-4.146
		c-0.368-0.344-1.377-1.143-2.791-1.143c-1.287,0-2.603,0.651-3.91,1.936C14.262,7.942,13.602,8.466,12.882,8.912z"/>
	<circle cx="19.493" cy="7.499" r="0.75"/>
	<path d="M5.493,6.999c-1.93,0-3.5-1.57-3.5-3.5v-2c-0.018-0.807,0.631-1.482,1.447-1.5c0.002,0,0.101-0.001,0.101-0.001
		c0.783,0,1.434,0.649,1.452,1.447c0,0.021,0,2.053,0,2.053c0,0.276,0.224,0.5,0.5,0.5s0.5-0.224,0.5-0.5v-1
		c0-0.827,0.673-1.5,1.5-1.5s1.5,0.673,1.5,1.5v1c0,0.276,0.224,0.5,0.5,0.5s0.5-0.224,0.5-0.5c0-0.827,0.673-1.5,1.5-1.5
		c0.827,0,1.5,0.673,1.5,1.5c-0.003,0.136,0.044,0.259,0.134,0.352c0.088,0.093,0.207,0.145,0.335,0.148h1.532
		c0.276,0,0.5,0.224,0.5,0.5s-0.224,0.5-0.5,0.5h-1.547c-0.821-0.018-1.471-0.696-1.453-1.511c0-0.267-0.224-0.489-0.5-0.489
		s-0.5,0.224-0.5,0.5c0,0.827-0.673,1.5-1.5,1.5s-1.5-0.673-1.5-1.5v-1c0-0.276-0.224-0.5-0.5-0.5s-0.5,0.224-0.5,0.5v1
		c0,0.827-0.673,1.5-1.5,1.5s-1.5-0.673-1.5-1.5l0-2.036C3.987,1.21,3.776,0.999,3.521,0.999l-0.065,0
		c-0.122,0.003-0.241,0.055-0.33,0.148C3.037,1.24,2.99,1.361,2.993,1.489v2.011c0,1.379,1.121,2.5,2.5,2.5h6.5
		c0.276,0,0.5,0.224,0.5,0.5s-0.224,0.5-0.5,0.5H5.493z"/>
</g>
</svg>
