<?xml version="1.0" encoding="utf-8"?>
<!-- Generator: Adobe Illustrator 22.1.0, SVG Export Plug-In . SVG Version: 6.00 Build 0)  -->
<svg version="1.1" id="Layer_1" xmlns="http://www.w3.org/2000/svg" xmlns:xlink="http://www.w3.org/1999/xlink" x="0px" y="0px"
	 viewBox="0 0 24 24" style="enable-background:new 0 0 24 24;" xml:space="preserve">
<g>
	<title>taxi-sign</title>
	<path d="M0.5,18C0.224,18,0,17.776,0,17.5S0.224,17,0.5,17H1V8.5C1,7.121,2.121,6,3.5,6h17C21.878,6,23,7.121,23,8.5V17h0.5
		c0.276,0,0.5,0.224,0.5,0.5S23.776,18,23.5,18H0.5z M22,17V8.5C22,7.673,21.327,7,20.5,7h-17C2.673,7,2,7.673,2,8.5V17H22z"/>
	<path d="M17.5,15c-0.276,0-0.5-0.224-0.5-0.5v-5C17,9.224,17.224,9,17.5,9S18,9.224,18,9.5v5C18,14.776,17.776,15,17.5,15z"/>
	<path d="M6.5,15C6.224,15,6,14.776,6,14.5V10H5.5C5.224,10,5,9.776,5,9.5S5.224,9,5.5,9h2C7.776,9,8,9.224,8,9.5S7.776,10,7.5,10H7
		v4.5C7,14.776,6.776,15,6.5,15z"/>
	<path d="M11.5,15c-0.276,0-0.5-0.224-0.5-0.5V13h-1v1.5c0,0.276-0.224,0.5-0.5,0.5S9,14.776,9,14.5v-4C9,9.673,9.673,9,10.5,9
		S12,9.673,12,10.5v4C12,14.776,11.776,15,11.5,15z M11,12v-1.5c0-0.276-0.224-0.5-0.5-0.5S10,10.224,10,10.5V12H11z"/>
	<path d="M15.5,15c-0.206,0-0.388-0.124-0.464-0.315L14.5,13.346l-0.536,1.339C13.888,14.876,13.706,15,13.5,15
		c-0.064,0-0.127-0.012-0.186-0.036c-0.255-0.102-0.38-0.394-0.278-0.65L13.961,12l-0.926-2.314
		c-0.102-0.256,0.023-0.547,0.279-0.65C13.374,9.012,13.436,9,13.499,9c0.206,0,0.389,0.123,0.465,0.314l0.536,1.339l0.536-1.339
		C15.112,9.123,15.294,9,15.501,9c0.063,0,0.126,0.012,0.185,0.036c0.256,0.103,0.381,0.394,0.279,0.65L15.039,12l0.926,2.314
		c0.102,0.256-0.023,0.547-0.279,0.65C15.627,14.988,15.564,15,15.5,15z"/>
</g>
</svg>
