<?xml version="1.0" encoding="utf-8"?>
<!-- Generator: Adobe Illustrator 22.1.0, SVG Export Plug-In . SVG Version: 6.00 Build 0)  -->
<svg version="1.1" id="Layer_1" xmlns="http://www.w3.org/2000/svg" xmlns:xlink="http://www.w3.org/1999/xlink" x="0px" y="0px"
	 viewBox="0 0 24 24" style="enable-background:new 0 0 24 24;" xml:space="preserve">
<g>
	<title>taxi-1</title>
	<circle cx="19.5" cy="13" r="0.75"/>
	<circle cx="17" cy="13" r="0.75"/>
	<circle cx="14.5" cy="13" r="0.75"/>
	<circle cx="12" cy="13" r="0.75"/>
	<circle cx="9.5" cy="13" r="0.75"/>
	<circle cx="7" cy="13" r="0.75"/>
	<circle cx="4.5" cy="13" r="0.75"/>
	<path d="M18.5,19.5c-1.199,0-2.215-0.845-2.449-2H9.949c-0.234,1.155-1.25,2-2.449,2s-2.215-0.845-2.449-2H0.5
		C0.224,17.5,0,17.276,0,17s0.224-0.5,0.5-0.5H1V14c0-1.93,1.57-3.5,3.5-3.5h0.649c0.922-2.341,3.093-3.888,5.604-3.991l0.658-1.428
		C11.575,4.729,11.931,4.5,12.32,4.5h1.3c0.448,0,0.844,0.301,0.964,0.732c0.123,0.446,0.265,0.952,0.357,1.268h0.56
		c0.572,0,1.086,0.318,1.341,0.83l1.586,3.17H20.5c1.378,0,2.5,1.121,2.5,2.5v3.5h0.5c0.276,0,0.5,0.224,0.5,0.5s-0.224,0.5-0.5,0.5
		h-2.551C20.715,18.655,19.699,19.5,18.5,19.5z M18.5,15.5c-0.827,0-1.5,0.673-1.5,1.5s0.673,1.5,1.5,1.5S20,17.827,20,17
		S19.327,15.5,18.5,15.5z M7.5,15.5C6.673,15.5,6,16.173,6,17s0.673,1.5,1.5,1.5S9,17.827,9,17S8.327,15.5,7.5,15.5z M22,16.5V13
		c0-0.827-0.673-1.5-1.5-1.5h-16C3.121,11.5,2,12.622,2,14v2.5h3.051c0.234-1.155,1.25-2,2.449-2s2.215,0.845,2.449,2h6.102
		c0.234-1.155,1.25-2,2.449-2s2.215,0.845,2.449,2H22z M17.309,10.5l-1.362-2.723C15.862,7.606,15.69,7.5,15.5,7.5H12v3H17.309z
		 M11,10.5v-3c-2.049,0.013-3.875,1.176-4.756,3H11z M13.9,6.5c-0.075-0.259-0.167-0.592-0.28-1.001l-1.3,0.001l-0.461,1H13.9z"/>
</g>
</svg>
