<svg xmlns="http://www.w3.org/2000/svg" viewBox="0 0 24 24"><title>measure-caliber-1</title><path d="M18.5,0H5.5A2.5,2.5,0,0,0,3,2.5v21a.5.5,0,0,0,1,0V5H20V23.5a.5.5,0,0,0,1,0V2.5A2.5,2.5,0,0,0,18.5,0ZM4,4V2.5A1.5,1.5,0,0,1,5.5,1h13A1.5,1.5,0,0,1,20,2.5V4Z"/><path d="M12,7a6,6,0,1,0,4.243,1.758A5.96,5.96,0,0,0,12,7Zm4.171,3.243-2.05,2.05-1.414-1.414,2.049-2.05a4.98,4.98,0,0,1,1.415,1.414ZM12,14.414,10.586,13,12,11.586,13.414,13ZM8.464,9.465A4.972,4.972,0,0,1,13.821,8.35L7.35,14.821A4.972,4.972,0,0,1,8.464,9.465Zm-.635,6.292,2.05-2.05,1.414,1.414-2.05,2.05a4.994,4.994,0,0,1-1.414-1.414Zm7.707.778a4.974,4.974,0,0,1-5.358,1.115l6.472-6.472a4.974,4.974,0,0,1-1.114,5.357Z"/></svg>