<svg xmlns="http://www.w3.org/2000/svg" viewBox="0 0 24 24"><title>measure-caliber</title><path d="M23.707,5.243,18.757.293a1,1,0,0,0-1.414,0L.293,17.343a1,1,0,0,0,0,1.414l4.95,4.95a1,1,0,0,0,1.414,0l17.05-17.05a1,1,0,0,0,0-1.414ZM5.95,23,1,18.05,18.05,1,23,5.95Z"/><path d="M5.106,15.358a2.5,2.5,0,1,0,3.535,0A2.5,2.5,0,0,0,5.106,15.358Zm.707.707a1.451,1.451,0,0,1,1.7-.281L5.531,17.762A1.49,1.49,0,0,1,5.813,16.065Zm2.121,2.123a1.531,1.531,0,0,1-1.692.278l1.974-1.975A1.49,1.49,0,0,1,7.934,18.188Z"/><path d="M15.359,5.105a2.5,2.5,0,1,0,3.535,0A2.558,2.558,0,0,0,15.359,5.105Zm.707,2.83a1.49,1.49,0,0,1-.282-1.7l1.978,1.978A1.493,1.493,0,0,1,16.066,7.935Zm2.121-2.123a1.49,1.49,0,0,1,.282,1.7L16.484,5.523a1.483,1.483,0,0,1,1.7.289Z"/><path d="M12.2,9.542A.5.5,0,0,0,12,9.5a.508.508,0,0,0-.2.04,2.468,2.468,0,0,0-1.572.691,2.5,2.5,0,1,0,3.536,0A2.462,2.462,0,0,0,12.2,9.542Zm-1.258,1.4a1.5,1.5,0,0,1,.561-.348v2.8a1.43,1.43,0,0,1-.561-.331A1.5,1.5,0,0,1,10.939,10.939Zm2.122,2.122a1.43,1.43,0,0,1-.561.331v-2.8a1.49,1.49,0,0,1,.561,2.47Z"/></svg>