<?xml version="1.0" encoding="utf-8"?>
<!-- Generator: Adobe Illustrator 22.1.0, SVG Export Plug-In . SVG Version: 6.00 Build 0)  -->
<svg version="1.1" id="Light" xmlns="http://www.w3.org/2000/svg" xmlns:xlink="http://www.w3.org/1999/xlink" x="0px" y="0px"
	 viewBox="0 0 24 24" style="enable-background:new 0 0 24 24;" xml:space="preserve">
<g>
	<title>beanie-winter</title>
	<path d="M2.499,24c-1.379,0-2.5-1.122-2.5-2.5v-2c0-1.378,1.121-2.5,2.5-2.5H3v-4c0-4.251,3.043-7.949,7.16-8.81
		C9.74,3.733,9.499,3.131,9.499,2.5c0-1.379,1.121-2.5,2.5-2.5c1.378,0,2.5,1.121,2.5,2.5c0,0.631-0.24,1.233-0.661,1.69
		C17.956,5.05,21,8.748,21,13v4h0.499c1.378,0,2.5,1.122,2.5,2.5v2c0,1.378-1.122,2.5-2.5,2.5H2.499z M21.499,23
		c0.827,0,1.5-0.673,1.5-1.5v-2c0-0.827-0.673-1.5-1.5-1.5h-1.5v5H21.499z M18.999,23v-5h-4v5H18.999z M13.999,23v-5h-4v5H13.999z
		 M8.999,23v-5h-4v5H8.999z M2.499,18c-0.827,0-1.5,0.673-1.5,1.5v2c0,0.827,0.673,1.5,1.5,1.5h1.5v-5H2.499z M20,17v-4
		c0-4.411-3.589-8-8-8c-4.411,0-8,3.589-8,8v4H20z M11.999,1c-0.827,0-1.5,0.673-1.5,1.5s0.673,1.5,1.5,1.5s1.5-0.673,1.5-1.5
		S12.826,1,11.999,1z"/>
</g>
</svg>
