<?xml version="1.0" encoding="utf-8"?>
<!-- Generator: Adobe Illustrator 22.1.0, SVG Export Plug-In . SVG Version: 6.00 Build 0)  -->
<svg version="1.1" id="Light" xmlns="http://www.w3.org/2000/svg" xmlns:xlink="http://www.w3.org/1999/xlink" x="0px" y="0px"
	 viewBox="0 0 24 24" style="enable-background:new 0 0 24 24;" xml:space="preserve">
<g>
	<title>family-swing</title>
	<path d="M12,24C5.383,24,0,18.617,0,12C0,5.383,5.383,0,12,0c6.617,0,12,5.383,12,12C24,18.617,18.617,24,12,24z M12,1
		C5.935,1,1,5.935,1,12s4.935,11,11,11s11-4.935,11-11S18.065,1,12,1z"/>
	<path d="M12,15.704c-1.119,0-2.233-0.262-3.224-0.757c-0.247-0.124-0.347-0.424-0.224-0.671C8.638,14.106,8.809,14,9,14
		c0.077,0,0.154,0.018,0.223,0.052c0.853,0.427,1.813,0.652,2.777,0.652s1.924-0.225,2.776-0.651C14.846,14.018,14.923,14,15,14
		c0.191,0,0.363,0.106,0.448,0.277c0.06,0.119,0.069,0.255,0.027,0.381s-0.131,0.229-0.251,0.289
		C14.233,15.442,13.118,15.704,12,15.704z"/>
	<path d="M17,18c-0.276,0-0.5-0.224-0.5-0.5S16.724,17,17,17h0.41L15.646,6.418C15.605,6.176,15.398,6,15.153,6H14.5v6.5
		c0,0.276-0.224,0.5-0.5,0.5s-0.5-0.224-0.5-0.5V6h-3v6.5c0,0.276-0.224,0.5-0.5,0.5s-0.5-0.224-0.5-0.5V6H8.847
		C8.602,6,8.394,6.176,8.354,6.418L6.59,17H7c0.276,0,0.5,0.224,0.5,0.5S7.276,18,7,18H5c-0.276,0-0.5-0.224-0.5-0.5S4.724,17,5,17
		h0.576L7.368,6.254C7.489,5.528,8.11,5,8.847,5h6.306c0.737,0,1.359,0.528,1.479,1.254L18.423,17H19c0.276,0,0.5,0.224,0.5,0.5
		S19.276,18,19,18H17z"/>
</g>
</svg>
