<?xml version="1.0" encoding="utf-8"?>
<!-- Generator: Adobe Illustrator 22.1.0, SVG Export Plug-In . SVG Version: 6.00 Build 0)  -->
<svg version="1.1" id="Light" xmlns="http://www.w3.org/2000/svg" xmlns:xlink="http://www.w3.org/1999/xlink" x="0px" y="0px"
	 viewBox="0 0 24 24" style="enable-background:new 0 0 24 24;" xml:space="preserve">
<g>
	<title>family-child-play</title>
	<path d="M3.934,5c-1.379,0-2.5-1.121-2.5-2.5S2.556,0,3.934,0s2.5,1.121,2.5,2.5S5.313,5,3.934,5z M3.934,1
		c-0.827,0-1.5,0.673-1.5,1.5S3.107,4,3.934,4s1.5-0.673,1.5-1.5S4.761,1,3.934,1z"/>
	<path d="M13.934,9.5c-1.103,0-2-0.897-2-2s0.897-2,2-2s2,0.897,2,2S15.037,9.5,13.934,9.5z M13.934,6.5c-0.552,0-1,0.449-1,1
		s0.448,1,1,1s1-0.449,1-1S14.486,6.5,13.934,6.5z"/>
	<path d="M2.948,23.974c-0.136,0-0.272-0.014-0.404-0.041c-1.08-0.219-1.781-1.277-1.561-2.358l0.816-3.676L0.75,16.327
		c-0.607-0.912-0.815-2.048-0.572-3.116L1.484,7.55c0.121-0.522,0.437-0.965,0.89-1.248c0.319-0.199,0.683-0.304,1.055-0.304
		c0.152,0,0.305,0.018,0.455,0.052c0.051,0.012,0.099,0.031,0.144,0.058c0.615,0.367,1.18,0.815,1.677,1.333
		c1.104,1.108,2.507,1.831,4.057,2.086C9.79,9.532,9.818,9.539,9.846,9.549c0.652,0.142,1.172,0.585,1.417,1.178
		c0.309-0.25,0.697-0.392,1.101-0.392c0.1,0,0.202,0.009,0.302,0.026c0.026,0.005,1.064,0.214,1.064,0.214
		c0.016,0.003,0.033,0.005,0.05,0.005c0.066,0,0.129-0.026,0.175-0.073l0.644-0.645C15.12,9.338,15.81,9.05,16.543,9.05
		c0.576,0,1.13,0.179,1.602,0.519l2.473,1.766c0.59,0.42,0.997,1.071,1.114,1.787l0.233,1.4l0.561,0.111
		c0.458,0.091,0.854,0.355,1.113,0.742c0.26,0.388,0.353,0.854,0.262,1.312c-0.001,0.006-0.007,0.028-0.008,0.033
		c-0.176,0.794-0.901,1.378-1.721,1.378c-0.112,0-0.225-0.011-0.335-0.032c-0.001,0-1.068-0.213-1.068-0.213
		c-1.111-0.226-1.984-1.128-2.173-2.245l-0.266-1.605l-1.703-1.217l-0.194,0.195c-0.706,0.71-1.645,1.101-2.643,1.101
		c-0.249,0-0.5-0.025-0.745-0.075l-0.993-0.2c-0.45-0.079-0.85-0.333-1.118-0.716c-0.039-0.055-0.074-0.112-0.106-0.171
		c-0.371,0.367-0.88,0.583-1.408,0.583c-0.102,0-0.205-0.008-0.307-0.024c-1.595-0.265-3.135-0.876-4.479-1.773l-0.555,2.407
		l1.054,1.567c0.599,0.905,0.807,2.03,0.573,3.087l-0.815,3.667C4.669,23.343,3.871,23.974,2.948,23.974z M3.433,6.999
		c-0.461,0-0.87,0.326-0.974,0.775l-1.305,5.661c-0.183,0.801-0.026,1.653,0.429,2.338l1.049,1.573
		c0.15,0.227,0.202,0.507,0.143,0.771L1.96,21.783c-0.108,0.533,0.243,1.06,0.783,1.17c0.066,0.013,0.134,0.02,0.201,0.02
		c0.462,0,0.861-0.315,0.97-0.765l0.813-3.658c0.176-0.793,0.02-1.637-0.429-2.316l-1.053-1.571c-0.15-0.228-0.202-0.508-0.144-0.77
		l0.725-3.143c0.039-0.167,0.158-0.301,0.319-0.358c0.053-0.019,0.11-0.029,0.168-0.029c0.11,0,0.218,0.037,0.305,0.104
		c1.355,1.044,2.963,1.745,4.651,2.025c0.048,0.007,0.099,0.011,0.149,0.011c0.488,0,0.912-0.364,0.987-0.848
		c0.082-0.532-0.282-1.042-0.812-1.137c-0.022-0.004-0.043-0.009-0.063-0.016c-1.73-0.3-3.299-1.117-4.539-2.362
		C4.569,7.703,4.098,7.324,3.588,7.011C3.536,7.003,3.484,6.999,3.433,6.999z M16.571,11.632c0.105,0,0.205,0.032,0.291,0.093
		l2.217,1.584c0.108,0.077,0.181,0.195,0.203,0.325l0.3,1.807c0.121,0.711,0.677,1.286,1.385,1.43l1.063,0.212
		c0.047,0.009,0.096,0.014,0.145,0.014c0.359,0,0.673-0.255,0.746-0.607c0-0.001,0-0.003,0.001-0.004
		c0.077-0.403-0.187-0.795-0.589-0.874l-0.9-0.178c-0.203-0.041-0.362-0.205-0.396-0.409l-0.29-1.742
		c-0.074-0.455-0.333-0.869-0.708-1.135l-2.475-1.767c-0.302-0.217-0.654-0.331-1.02-0.331c-0.465,0-0.904,0.183-1.235,0.516
		l-0.645,0.646c-0.236,0.236-0.55,0.366-0.883,0.366c-0.083,0-0.166-0.008-0.247-0.025l-1.046-0.21
		c-0.038-0.007-0.081-0.01-0.123-0.01c-0.359,0-0.676,0.267-0.738,0.621c-0.034,0.197,0.01,0.396,0.125,0.56
		s0.287,0.273,0.484,0.308l1.006,0.202c0.18,0.036,0.363,0.055,0.545,0.055c0.732,0,1.419-0.286,1.937-0.806l0.495-0.496
		C16.312,11.684,16.438,11.632,16.571,11.632z"/>
</g>
</svg>
