<?xml version="1.0" encoding="utf-8"?>
<!-- Generator: Adobe Illustrator 22.1.0, SVG Export Plug-In . SVG Version: 6.00 Build 0)  -->
<svg version="1.1" id="Light" xmlns="http://www.w3.org/2000/svg" xmlns:xlink="http://www.w3.org/1999/xlink" x="0px" y="0px"
	 viewBox="0 0 24 24" style="enable-background:new 0 0 24 24;" xml:space="preserve">
<g>
	<title>family-baby-change-diaper</title>
	<path d="M14.892,6c-1.654,0-3-1.346-3-3s1.346-3,3-3s3,1.346,3,3S16.547,6,14.892,6z M14.892,1c-1.103,0-2,0.897-2,2s0.897,2,2,2
		s2-0.897,2-2S15.995,1,14.892,1z"/>
	<path d="M3.892,23.999c-0.534,0-1.036-0.208-1.413-0.585C2.101,23.036,1.893,22.535,1.892,22v-6H1.106
		c-0.117,0-0.232-0.02-0.342-0.061c-0.251-0.091-0.451-0.275-0.564-0.517c-0.113-0.242-0.125-0.513-0.034-0.764l1.463-4.017
		c0.221-0.606,0.561-1.147,1.012-1.609l4.783-4.894c0.284-0.313,0.68-0.532,1.11-0.61c0.118-0.021,0.239-0.032,0.359-0.032
		c0.967,0,1.794,0.691,1.967,1.642l0.636,3.5c0.068,0.378,0.348,0.684,0.717,0.784l0.788,0.08c0.976,0.076,1.771,0.841,1.885,1.819
		c0.013,0.142,0.012,0.272-0.002,0.403c-0.058,0.529-0.317,1.004-0.731,1.337c-0.358,0.288-0.789,0.439-1.247,0.439l0,0
		c-0.072,0-0.144-0.004-0.216-0.011l-0.593-0.059c-0.478-0.048-0.496-0.049-0.597-0.07c-1.841-0.359-3.33-1.754-3.833-3.539
		L6.71,10.874c-0.133,0.146-0.167,0.358-0.087,0.539l1.414,3.184c0.056,0.128,0.084,0.263,0.085,0.401
		c0.001,0.267-0.103,0.518-0.291,0.708C7.642,15.895,7.392,15.999,7.125,16H5.892v6c0,1.102-0.897,1.999-1.999,1.999
		C3.893,23.999,3.892,23.999,3.892,23.999z M2.392,15c0.276,0,0.5,0.224,0.5,0.5V22c0,0.267,0.104,0.518,0.293,0.707
		c0.189,0.189,0.44,0.293,0.707,0.293c0.552,0,1-0.448,1-0.999v-6.5c0-0.276,0.224-0.5,0.5-0.5h1.731l-1.414-3.181
		c-0.241-0.543-0.138-1.177,0.261-1.617l1.62-1.782C7.685,8.315,7.82,8.256,7.96,8.256c0.047,0,0.093,0.006,0.137,0.019
		c0.185,0.053,0.32,0.203,0.354,0.391l0.092,0.507c0.286,1.606,1.552,2.893,3.151,3.206c0.052,0.01,0.054,0.011,0.502,0.055
		l0.597,0.06c0.038,0.004,0.073,0.006,0.108,0.006c0.508,0,0.933-0.38,0.988-0.884c0.007-0.064,0.008-0.129,0.002-0.193
		c-0.058-0.494-0.469-0.886-0.976-0.924l-0.841-0.085c-0.024-0.003-0.045-0.006-0.065-0.011c-0.771-0.184-1.359-0.806-1.498-1.586
		L9.876,5.317c-0.087-0.476-0.5-0.821-0.983-0.821c-0.059,0-0.12,0.005-0.18,0.016c-0.215,0.039-0.414,0.15-0.561,0.311L3.357,9.731
		c-0.351,0.359-0.616,0.78-0.788,1.252L1.106,15H2.392z"/>
	<path d="M13.392,23c-0.276,0-0.5-0.224-0.5-0.5s0.224-0.5,0.5-0.5h10c0.276,0,0.5,0.224,0.5,0.5s-0.224,0.5-0.5,0.5H13.392z"/>
	<path d="M21.892,21c-0.655,0-1.26-0.322-1.63-0.844C19.791,20.69,19.116,21,18.392,21h-1.78c-1.378,0-2.5-1.122-2.5-2.5
		c0-0.164,0.016-0.329,0.049-0.491l0.063-0.319l-0.664-0.442c-0.69-0.443-0.892-1.372-0.445-2.068
		c0.216-0.337,0.551-0.57,0.942-0.656c0.106-0.023,0.215-0.035,0.323-0.035c0.285,0,0.565,0.082,0.807,0.238l0.979,0.653
		c0.85,0.563,1.267,1.573,1.063,2.573L17.222,18h0.67v-2c0-0.827,0.673-1.5,1.5-1.5s1.5,0.673,1.5,1.5v1.268
		c0.301-0.175,0.643-0.268,1-0.268c1.103,0,2,0.897,2,2S22.995,21,21.892,21z M21.892,18c-0.552,0-1,0.448-1,1s0.448,1,1,1
		s1-0.448,1-1S22.444,18,21.892,18z M14.38,15.49c-0.036,0-0.072,0.004-0.108,0.012c-0.13,0.029-0.242,0.106-0.314,0.219
		c-0.149,0.232-0.081,0.542,0.151,0.691l0.949,0.633c0.169,0.113,0.253,0.314,0.213,0.514l-0.129,0.647
		c-0.02,0.098-0.029,0.197-0.029,0.295c0,0.827,0.673,1.5,1.5,1.5h1.78c0.827,0,1.5-0.673,1.5-1.5V16c0-0.276-0.224-0.5-0.5-0.5
		s-0.5,0.224-0.5,0.5v2.5c0,0.276-0.224,0.5-0.5,0.5h-1.78c-0.15,0-0.291-0.067-0.386-0.183c-0.095-0.117-0.133-0.268-0.104-0.415
		l0.129-0.646c0.122-0.6-0.128-1.205-0.637-1.542c0,0-0.964-0.643-0.969-0.646C14.567,15.517,14.474,15.49,14.38,15.49z"/>
</g>
</svg>
