<?xml version="1.0" encoding="utf-8"?>
<!-- Generator: Adobe Illustrator 22.1.0, SVG Export Plug-In . SVG Version: 6.00 Build 0)  -->
<svg version="1.1" id="Layer_1" xmlns="http://www.w3.org/2000/svg" xmlns:xlink="http://www.w3.org/1999/xlink" x="0px" y="0px"
	 viewBox="0 0 24 24" style="enable-background:new 0 0 24 24;" xml:space="preserve">
<g>
	<title>public-service-firefighter-truck</title>
	<path d="M18,24c-0.827,0-1.5-0.673-1.5-1.5V22h-9v0.5C7.5,23.327,6.827,24,6,24H5c-0.827,0-1.5-0.673-1.5-1.5V22H3
		c-0.828,0-1.5-0.674-1.5-1.5v-2c0-0.64,0.41-1.205,1-1.414V12H2c-0.827,0-1.5-0.673-1.5-1.5v-2C0.5,7.673,1.173,7,2,7h0.5V6.5
		c0-0.64,0.41-1.205,1-1.414V4.5C3.5,3.673,4.173,3,5,3h1c0.827,0,1.5,0.673,1.5,1.5V5h1V2h-1C7.224,2,7,1.776,7,1.5S7.224,1,7.5,1
		h1V0.5C8.5,0.224,8.724,0,9,0s0.5,0.224,0.5,0.5V1h5V0.5C14.5,0.224,14.724,0,15,0s0.5,0.224,0.5,0.5V1H17
		c0.276,0,0.5,0.224,0.5,0.5S17.276,2,17,2h-1.5v3h1V4.5C16.5,3.673,17.173,3,18,3h1c0.827,0,1.5,0.673,1.5,1.5v0.586
		c0.59,0.209,1,0.774,1,1.414V7H22c0.827,0,1.5,0.673,1.5,1.5v2c0,0.827-0.673,1.5-1.5,1.5h-0.5v5.086c0.59,0.209,1,0.774,1,1.414v2
		c0,0.826-0.673,1.5-1.499,1.5H20.5v0.5c0,0.827-0.673,1.5-1.5,1.5H18z M17.5,22.5c0,0.276,0.224,0.5,0.5,0.5h1
		c0.276,0,0.5-0.224,0.5-0.5V22h-2V22.5z M4.5,22.5C4.5,22.776,4.724,23,5,23h1c0.276,0,0.5-0.224,0.5-0.5V22h-2V22.5z M20,21
		l-2.25-3H16l2.25,3H20z M17,21l-2.25-3H13l2.25,3H17z M14,21l-2-2.667L10,21H14z M8.75,21L11,18H9.25L7,21H8.75z M5.75,21L8,18
		H6.25L4,21H5.75z M21.212,20.95c0.173-0.08,0.288-0.252,0.288-0.45v-2c0-0.276-0.224-0.5-0.5-0.5h-2L21.212,20.95z M3,18
		c-0.276,0-0.5,0.224-0.5,0.5v2c0,0.198,0.115,0.37,0.287,0.45L5,18H3z M20.5,17v-5h-17v5H20.5z M22,11c0.276,0,0.5-0.224,0.5-0.5
		v-2C22.5,8.224,22.276,8,22,8h-0.5v3H22z M20.5,11V6.5C20.5,6.224,20.276,6,20,6h-7.5v5H20.5z M11.5,11V6H4
		C3.724,6,3.5,6.224,3.5,6.5V11H11.5z M2,8C1.724,8,1.5,8.224,1.5,8.5v2C1.5,10.776,1.724,11,2,11h0.5V8H2z M19.5,5V4.5
		C19.5,4.224,19.276,4,19,4h-1c-0.276,0-0.5,0.224-0.5,0.5V5H19.5z M14.5,5V2h-5v3H14.5z M6.5,5V4.5C6.5,4.224,6.276,4,6,4H5
		C4.724,4,4.5,4.224,4.5,4.5V5H6.5z"/>
	<path d="M6.5,16.5C5.673,16.5,5,15.827,5,15s0.673-1.5,1.5-1.5S8,14.173,8,15S7.327,16.5,6.5,16.5z M6.5,14.5
		C6.224,14.5,6,14.724,6,15s0.224,0.5,0.5,0.5S7,15.276,7,15S6.776,14.5,6.5,14.5z"/>
	<path d="M17.5,16.5c-0.827,0-1.5-0.673-1.5-1.5s0.673-1.5,1.5-1.5S19,14.173,19,15S18.327,16.5,17.5,16.5z M17.5,14.5
		c-0.276,0-0.5,0.224-0.5,0.5s0.224,0.5,0.5,0.5S18,15.276,18,15S17.776,14.5,17.5,14.5z"/>
	<path d="M9.5,14C9.224,14,9,13.776,9,13.5S9.224,13,9.5,13h5c0.276,0,0.5,0.224,0.5,0.5S14.776,14,14.5,14H9.5z"/>
	<path d="M9.5,16C9.224,16,9,15.776,9,15.5S9.224,15,9.5,15h5c0.276,0,0.5,0.224,0.5,0.5S14.776,16,14.5,16H9.5z"/>
</g>
</svg>
