<?xml version="1.0" encoding="utf-8"?>
<!-- Generator: Adobe Illustrator 22.1.0, SVG Export Plug-In . SVG Version: 6.00 Build 0)  -->
<svg version="1.1" id="Layer_1" xmlns="http://www.w3.org/2000/svg" xmlns:xlink="http://www.w3.org/1999/xlink" x="0px" y="0px"
	 viewBox="0 0 24 24" style="enable-background:new 0 0 24 24;" xml:space="preserve">
<g>
	<title>public-service-police-1</title>
	<path d="M19.5,19.5c-1.199,0-2.215-0.845-2.449-2H7.949c-0.234,1.155-1.25,2-2.449,2s-2.215-0.845-2.449-2H0.5
		C0.224,17.5,0,17.276,0,17s0.224-0.5,0.5-0.5H1v-3c0-1.103,0.897-2,2-2h1.191l1.862-3.724C6.138,7.606,6.309,7.5,6.5,7.5h3V7
		c0-1.379,1.121-2.5,2.5-2.5c1.378,0,2.5,1.121,2.5,2.5v0.5H16c0.19,0,0.362,0.106,0.447,0.276l1.862,3.724H22c1.103,0,2,0.897,2,2
		v3c0,0.552-0.448,1-1,1h-1.051C21.715,18.655,20.699,19.5,19.5,19.5z M19.5,15.5c-0.827,0-1.5,0.673-1.5,1.5s0.673,1.5,1.5,1.5
		S21,17.827,21,17S20.327,15.5,19.5,15.5z M5.5,15.5C4.673,15.5,4,16.173,4,17s0.673,1.5,1.5,1.5S7,17.827,7,17S6.327,15.5,5.5,15.5
		z M23,16.5v-3c0-0.552-0.448-1-1-1H3c-0.551,0-1,0.448-1,1v3h1.051c0.234-1.155,1.25-2,2.449-2s2.215,0.845,2.449,2h9.102
		c0.234-1.155,1.25-2,2.449-2s2.215,0.845,2.449,2H23z M17.191,11.5l-1.5-3H12.5v3H17.191z M11.5,11.5v-3H6.809l-1.5,3H11.5z
		 M13.5,7.5V7c0-0.827-0.673-1.5-1.5-1.5S10.5,6.173,10.5,7v0.5H13.5z"/>
</g>
</svg>
