<?xml version="1.0" encoding="utf-8"?>
<!-- Generator: Adobe Illustrator 22.1.0, SVG Export Plug-In . SVG Version: 6.00 Build 0)  -->
<svg version="1.1" id="Layer_1" xmlns="http://www.w3.org/2000/svg" xmlns:xlink="http://www.w3.org/1999/xlink" x="0px" y="0px"
	 viewBox="0 0 24 24" style="enable-background:new 0 0 24 24;" xml:space="preserve">
<g>
	<title>public-service-firefighter-truck-1</title>
	<path d="M19,23.719c-1.199,0-2.215-0.845-2.449-2H7.449c-0.234,1.155-1.25,2-2.449,2s-2.215-0.845-2.449-2H1c-0.551,0-1-0.448-1-1
		v-10c0-0.551,0.449-1,1-1h0.099l21.702-9.397C22.865,0.295,22.932,0.281,23,0.281c0.199,0,0.379,0.118,0.458,0.301
		c0.11,0.253-0.007,0.548-0.26,0.658L3.616,9.719H11c0.551,0,1,0.449,1,1v1h2v-1c0-0.551,0.448-1,1-1v-0.5
		c0-0.827,0.673-1.5,1.5-1.5h1c0.827,0,1.5,0.673,1.5,1.5v0.548c0.245,0.074,0.453,0.238,0.58,0.465l2.323,4.182l1.804,1.804
		C23.893,16.404,24,16.662,24,16.926v3.793c0,0.552-0.448,1-1,1h-1.551C21.215,22.874,20.199,23.719,19,23.719z M19,19.719
		c-0.827,0-1.5,0.673-1.5,1.5s0.673,1.5,1.5,1.5s1.5-0.673,1.5-1.5S19.827,19.719,19,19.719z M5,19.719c-0.827,0-1.5,0.673-1.5,1.5
		s0.673,1.5,1.5,1.5s1.5-0.673,1.5-1.5S5.827,19.719,5,19.719z M23,20.719v-1h-2.001c0.222,0.295,0.376,0.635,0.45,1H23z
		 M16.551,20.719c0.074-0.365,0.228-0.705,0.45-1H6.999c0.222,0.295,0.376,0.635,0.45,1H16.551z M1,20.719h1.551
		c0.074-0.365,0.228-0.705,0.45-1H1V20.719z M23,18.719v-1.793l-1.707-1.707H15v3.5H23z M14,18.719v-6h-2v6H14z M11,18.719v-8H1l0,8
		H11z M20.65,14.219l-1.944-3.5l-3.706,0l0,3.5H20.65z M18,9.719v-0.5c0-0.276-0.224-0.5-0.5-0.5h-1c-0.276,0-0.5,0.224-0.5,0.5v0.5
		H18z"/>
</g>
</svg>
