<?xml version="1.0" encoding="utf-8"?>
<!-- Generator: Adobe Illustrator 22.1.0, SVG Export Plug-In . SVG Version: 6.00 Build 0)  -->
<svg version="1.1" id="Light" xmlns="http://www.w3.org/2000/svg" xmlns:xlink="http://www.w3.org/1999/xlink" x="0px" y="0px"
	 viewBox="0 0 24 24" style="enable-background:new 0 0 24 24;" xml:space="preserve">
<g>
	<title>toilet-use-wrong</title>
	<path d="M13.5,6c-1.654,0-3-1.346-3-3s1.346-3,3-3c1.654,0,3,1.346,3,3S15.154,6,13.5,6z M13.5,1c-1.103,0-2,0.897-2,2s0.897,2,2,2
		s2-0.897,2-2S14.603,1,13.5,1z"/>
	<path d="M10,24c-0.276,0-0.5-0.224-0.5-0.5V23c0-1.682,0.639-2.5,1.952-2.5l0.072,0.001c0.385,0,0.748-0.145,1.023-0.409
		c0.284-0.272,0.445-0.638,0.454-1.031V18.5H5c-0.551,0-1-0.448-1-1V15H1v8.5C1,23.776,0.775,24,0.5,24S0,23.776,0,23.5v-11
		C0,11.673,0.673,11,1.5,11h2C4.327,11,5,11.673,5,12.5v5h8.5c0.276,0,0.5,0.224,0.5,0.5v1.072
		c-0.014,0.669-0.285,1.286-0.762,1.743c-0.462,0.443-1.074,0.687-1.723,0.687c0,0-0.082-0.001-0.082-0.001
		c-0.526,0-0.933,0.111-0.933,1.5v0.5C10.5,23.776,10.275,24,10,24z M4,14v-1.5C4,12.224,3.775,12,3.5,12h-2
		C1.224,12,1,12.224,1,12.5V14H4z"/>
	<path d="M14.5,16.5c-0.276,0-0.5-0.224-0.5-0.5v-4c0-0.142-0.029-0.279-0.086-0.408c-0.16-0.361-0.52-0.594-0.916-0.594
		c-0.139,0-0.275,0.029-0.404,0.086l-1.753,0.779c-0.064,0.029-0.132,0.043-0.203,0.043c-0.116,0-0.229-0.041-0.318-0.114
		c-0.147-0.121-0.212-0.312-0.169-0.498l0.824-3.571c0.06-0.26,0.015-0.528-0.127-0.755s-0.363-0.385-0.623-0.445
		c-0.074-0.017-0.15-0.026-0.225-0.026c-0.461,0-0.871,0.326-0.974,0.776l-1.5,6.5c-0.049,0.21-0.027,0.435,0.06,0.632
		c0.161,0.361,0.52,0.594,0.915,0.594c0.14,0,0.276-0.029,0.405-0.086l2.391-1.062c0.064-0.029,0.132-0.043,0.203-0.043
		c0.097,0,0.191,0.028,0.272,0.08C11.915,13.98,12,14.137,12,14.307V16c0,0.276-0.224,0.5-0.5,0.5S11,16.276,11,16v-0.924
		l-1.688,0.75c-0.257,0.114-0.53,0.172-0.81,0.172c-0.791,0-1.51-0.466-1.83-1.187c-0.175-0.394-0.218-0.842-0.121-1.262l1.5-6.5
		c0.12-0.521,0.436-0.963,0.889-1.246c0.319-0.199,0.685-0.305,1.057-0.305c0.151,0,0.304,0.017,0.453,0.052
		c1.075,0.248,1.748,1.324,1.5,2.399l-0.599,2.595l0.838-0.372c0.257-0.114,0.53-0.172,0.81-0.172c0.791,0,1.509,0.466,1.83,1.188
		C14.942,11.443,15,11.718,15,12v4C15,16.276,14.775,16.5,14.5,16.5z"/>
	<path d="M23.5,5.242c-0.134,0-0.259-0.052-0.354-0.146l-1.768-1.767l-1.767,1.767c-0.094,0.094-0.22,0.146-0.354,0.146
		s-0.259-0.052-0.354-0.146c-0.195-0.195-0.195-0.512,0-0.707l1.767-1.767l-1.767-1.767c-0.195-0.195-0.195-0.512,0-0.707
		C18.999,0.052,19.124,0,19.258,0s0.259,0.052,0.354,0.146l1.767,1.767l1.768-1.767C23.241,0.052,23.366,0,23.5,0
		s0.259,0.052,0.354,0.146c0.195,0.195,0.195,0.512,0,0.707l-1.768,1.767l1.768,1.767c0.195,0.195,0.195,0.512,0,0.707
		C23.759,5.19,23.633,5.242,23.5,5.242z"/>
</g>
</svg>
