<?xml version="1.0" encoding="utf-8"?>
<!-- Generator: Adobe Illustrator 22.1.0, SVG Export Plug-In . SVG Version: 6.00 Build 0)  -->
<svg version="1.1" id="Light" xmlns="http://www.w3.org/2000/svg" xmlns:xlink="http://www.w3.org/1999/xlink" x="0px" y="0px"
	 viewBox="0 0 24 24" style="enable-background:new 0 0 24 24;" xml:space="preserve">
<g>
	<title>toilet-seat</title>
	<path d="M8.081,24c-0.052,0-0.103-0.004-0.154-0.012c-0.26-0.039-0.492-0.178-0.651-0.393c-0.159-0.215-0.224-0.479-0.185-0.743
		l0.583-3.883C5.1,18.679,3.134,16.565,3.007,14H3c-0.551,0-1-0.448-1-1v-2c0-0.551,0.449-1,1-1h12V2.5C15,1.121,16.122,0,17.5,0h2
		C20.878,0,22,1.121,22,2.5v10c0,0.643-0.413,1.21-1.008,1.417c-0.068,1.212-0.699,2.323-1.715,2.999
		C18.478,17.448,18,18.34,18,19.3V23c0,0.552-0.448,1-1,1H8.081z M4.008,14c0.126,2.055,1.709,3.742,3.776,3.974
		c0.546,0.059,0.944,0.553,0.885,1.101c0,0.004-0.005,0.04-0.006,0.045L8.08,23L17,23v-3.7c0-1.296,0.644-2.498,1.723-3.216
		c0.712-0.474,1.17-1.24,1.259-2.084H4.008z M20.5,13c0.276,0,0.5-0.224,0.5-0.5v-10C21,1.673,20.327,1,19.5,1h-2
		C16.673,1,16,1.673,16,2.5V13H20.5z M3,13h12v-2H3L3,13z"/>
	<path d="M19,5.5c-0.827,0-1.5-0.673-1.5-1.5s0.673-1.5,1.5-1.5s1.5,0.673,1.5,1.5S19.827,5.5,19,5.5z M19,3.5
		c-0.276,0-0.5,0.224-0.5,0.5s0.224,0.5,0.5,0.5s0.5-0.224,0.5-0.5S19.276,3.5,19,3.5z"/>
</g>
</svg>
