<?xml version="1.0" encoding="utf-8"?>
<!-- Generator: Adobe Illustrator 22.1.0, SVG Export Plug-In . SVG Version: 6.00 Build 0)  -->
<svg version="1.1" id="Light" xmlns="http://www.w3.org/2000/svg" xmlns:xlink="http://www.w3.org/1999/xlink" x="0px" y="0px"
	 viewBox="0 0 24 24" style="enable-background:new 0 0 24 24;" xml:space="preserve">
<g>
	<title>toilet-paper</title>
	<path d="M3.811,24.003c-0.065,0-0.13-0.013-0.191-0.038c-1.48-0.615-2.727-1.721-3.511-3.117c-0.01-0.018-0.017-0.032-0.024-0.048
		c-0.116-0.271-0.107-0.579,0.026-0.843c0.12-0.239,0.326-0.416,0.579-0.5c0.103-0.034,0.209-0.051,0.315-0.051
		c0.156,0,0.307,0.036,0.448,0.107l0.884,0.442l2.194-0.846c0.151-0.047,0.288-0.068,0.422-0.068c0.127,0,0.254,0.019,0.378,0.056
		l2.146,0.857l1.127-0.564c0.099-0.05,0.205-0.083,0.315-0.097c0.045-0.006,0.091-0.009,0.136-0.009
		c0.496,0,0.921,0.373,0.988,0.867c0.095,1.602,1.402,2.842,2.977,2.842c0.806-0.003,1.553-0.315,2.114-0.88
		c0.561-0.565,0.868-1.314,0.865-2.11v-7.48c-0.001-0.007-0.001-0.014-0.001-0.021s0-0.014,0.001-0.021V6.5
		c0-2.256,0.714-4.324,1.86-5.5h-9.86c-1.626,0-3,2.519-3,5.5v11c0,0.276-0.224,0.5-0.5,0.5s-0.5-0.224-0.5-0.5v-11
		c0-3.584,1.794-6.5,4-6.5h12c2.206,0,4,2.916,4,6.5s-1.794,6.5-4,6.5h-3v7c0.004,1.061-0.406,2.062-1.156,2.816
		c-0.729,0.734-1.698,1.151-2.731,1.174c-0.037,0.009-0.075,0.013-0.114,0.013H3.811z M10.396,23.003
		c-0.783-0.686-1.271-1.654-1.344-2.714l-1.328,0.658C7.655,20.982,7.577,21,7.5,21c-0.064,0-0.127-0.012-0.186-0.036L5,20.038
		c0.001,0.001,0,0.001-0.003,0.001c-0.007,0-0.024-0.001-0.042-0.001c-0.033,0-0.068,0.005-0.1,0.015l-2.365,0.914
		C2.432,20.989,2.372,21,2.31,21c-0.077,0-0.155-0.018-0.224-0.053l-1.078-0.539c0.66,1.149,1.688,2.068,2.903,2.595H10.396z
		 M19.999,1c-1.626,0-3,2.519-3,5.5c0,2.981,1.374,5.5,3,5.5s3-2.519,3-5.5C22.999,3.519,21.626,1,19.999,1z M17.861,12
		c-0.32-0.329-0.61-0.732-0.861-1.193V12H17.861z"/>
	<path d="M19.999,9c-0.869,0-1.5-1.051-1.5-2.5s0.631-2.5,1.5-2.5s1.5,1.051,1.5,2.5S20.868,9,19.999,9z M19.999,5
		c-0.125,0-0.5,0.532-0.5,1.5s0.375,1.5,0.5,1.5s0.5-0.532,0.5-1.5S20.123,5,19.999,5z"/>
	<path d="M6.999,7c-0.276,0-0.5-0.224-0.5-0.5S6.723,6,6.999,6h1c0.276,0,0.5,0.224,0.5,0.5S8.274,7,7.999,7H6.999z"/>
	<path d="M12.999,7c-0.276,0-0.5-0.224-0.5-0.5s0.224-0.5,0.5-0.5h1c0.276,0,0.5,0.224,0.5,0.5S14.274,7,13.999,7H12.999z"/>
	<path d="M9.999,7c-0.276,0-0.5-0.224-0.5-0.5S9.723,6,9.999,6h1c0.276,0,0.5,0.224,0.5,0.5S11.274,7,10.999,7H9.999z"/>
	<path d="M6.999,15c-0.276,0-0.5-0.224-0.5-0.5s0.224-0.5,0.5-0.5h1c0.276,0,0.5,0.224,0.5,0.5S6.999,15,6.999,15z"/>
	<path d="M12.999,15c-0.276,0-0.5-0.224-0.5-0.5s0.224-0.5,0.5-0.5h1c0.276,0,0.5,0.224,0.5,0.5s-0.224,0.5-0.5,0.5H12.999z"/>
	<path d="M9.999,15c-0.276,0-0.5-0.224-0.5-0.5s0.224-0.5,0.5-0.5h1c0.276,0,0.5,0.224,0.5,0.5s-0.224,0.5-0.5,0.5H9.999z"/>
</g>
</svg>
