<?xml version="1.0" encoding="utf-8"?>
<!-- Generator: Adobe Illustrator 22.1.0, SVG Export Plug-In . SVG Version: 6.00 Build 0)  -->
<svg version="1.1" id="Layer_1" xmlns="http://www.w3.org/2000/svg" xmlns:xlink="http://www.w3.org/1999/xlink" x="0px" y="0px"
	 viewBox="0 0 24 24" style="enable-background:new 0 0 24 24;" xml:space="preserve">
<g>
	<title>landmark-brooklyn-bridge</title>
	<path d="M6.5,18.002c-0.276,0-0.5-0.224-0.5-0.5v-5.5H5v4.5c0,0.276-0.224,0.5-0.5,0.5S4,16.777,4,16.502v-4.5H0.5
		c-0.276,0-0.5-0.224-0.5-0.5s0.224-0.5,0.5-0.5h1.501V6.351C1.547,6.557,1.073,6.712,0.586,6.814
		c-0.034,0.007-0.068,0.01-0.102,0.01c-0.236,0-0.442-0.167-0.49-0.398c-0.056-0.27,0.117-0.535,0.387-0.592
		c0.615-0.129,1.2-0.354,1.741-0.67c0.064-0.076,0.15-0.131,0.246-0.158c1.544-1.011,2.528-2.703,2.633-4.534
		c0.003-0.054,0.017-0.097,0.027-0.127c0.004-0.015,0.009-0.031,0.014-0.043c0.07-0.168,0.226-0.281,0.409-0.296
		c0.017-0.003,0.035-0.005,0.049-0.005c0.005,0,0.01,0,0.015,0c0.045,0.002,0.076,0.011,0.091,0.016
		c0.018,0.003,0.055,0.009,0.096,0.027c0.014,0.006,0.035,0.019,0.051,0.029c0.152,0.089,0.248,0.252,0.248,0.427v0.033
		c0.012,1.727,1.041,3.447,2.688,4.491c0.054,0.022,0.102,0.051,0.143,0.087C9.805,5.694,10.9,6.001,12,6.001c3.196,0,6-2.57,6-5.5
		c0-0.066,0.013-0.131,0.039-0.193c0.008-0.019,0.031-0.057,0.043-0.074c0.009-0.017,0.028-0.05,0.06-0.083
		c0.03-0.029,0.056-0.046,0.07-0.054c0.021-0.016,0.049-0.037,0.089-0.054c0.036-0.016,0.068-0.021,0.085-0.024
		c0.02-0.006,0.055-0.016,0.1-0.018c0.002,0,0.011,0,0.014,0c0.018,0,0.046,0.004,0.068,0.009c0.031,0.004,0.074,0.01,0.122,0.03
		c0.017,0.007,0.045,0.023,0.061,0.034c0.018,0.009,0.058,0.032,0.097,0.07c0.024,0.023,0.04,0.048,0.049,0.061
		c0.017,0.021,0.039,0.05,0.057,0.091c0.017,0.036,0.023,0.069,0.027,0.087c0.005,0.014,0.015,0.047,0.018,0.088
		c0.105,1.834,1.09,3.526,2.636,4.537c0.094,0.027,0.179,0.081,0.243,0.155c0.536,0.314,1.115,0.538,1.72,0.667
		c0.269,0.057,0.442,0.323,0.385,0.593c-0.049,0.23-0.255,0.396-0.489,0.396c-0.035,0-0.07-0.004-0.104-0.011
		c-0.478-0.102-0.944-0.255-1.389-0.457v4.651H23.5c0.276,0,0.5,0.224,0.5,0.5s-0.224,0.5-0.5,0.5H20v4.5c0,0.276-0.224,0.5-0.5,0.5
		s-0.5-0.224-0.5-0.5v-4.5h-1v4.5c0,0.276-0.224,0.5-0.5,0.5s-0.5-0.224-0.5-0.5v-4.5H7v5.5C7,17.777,6.776,18.002,6.5,18.002z
		 M21.001,11.001V5.788C20.187,5.238,19.508,4.528,19,3.7l0.001,7.302H21.001z M18.001,11.001L18,3.739
		c-0.51,0.783-1.197,1.48-1.999,2.021v5.242H18.001z M15.001,11.001V6.326c-0.637,0.297-1.308,0.497-2,0.598v4.078H15.001z
		 M12.001,11.001v-4c0,0-0.001,0-0.001,0c-1.021,0-2.049-0.232-2.999-0.675v4.675H12.001z M8.001,11.001v-5.24
		c-0.803-0.54-1.49-1.237-2-2.02v7.26H8.001z M5.001,11.001V3.7c-0.507,0.829-1.186,1.539-2,2.089v5.213H5.001z"/>
	<path d="M1.186,24.002c-0.263,0-0.527-0.028-0.784-0.082c-0.27-0.058-0.442-0.324-0.385-0.593c0.048-0.229,0.254-0.396,0.489-0.396
		c0.034,0,0.069,0.004,0.103,0.011c0.186,0.04,0.377,0.06,0.568,0.06c1.863,0,3.376-1.881,3.391-1.9
		c0.094-0.119,0.24-0.191,0.39-0.191c0.005,0,0.022,0,0.027,0.001c0.156,0.006,0.304,0.09,0.393,0.223
		c0.718,1.085,1.923,1.77,3.222,1.833c1.282-0.031,2.475-0.713,3.173-1.823c0.09-0.144,0.247-0.232,0.417-0.234c0,0,0,0,0,0
		c0.174,0,0.33,0.084,0.422,0.224c0.719,1.084,1.923,1.769,3.222,1.833c1.282-0.031,2.475-0.713,3.173-1.823
		c0.092-0.146,0.25-0.234,0.423-0.234c0.174,0,0.332,0.088,0.424,0.235c0.01,0.017,1.178,1.814,2.964,1.814c0,0,0,0,0,0
		c0.189,0,0.38-0.02,0.57-0.06c0.033-0.007,0.068-0.011,0.104-0.011c0.235,0,0.44,0.167,0.488,0.398
		c0.027,0.13,0.002,0.264-0.071,0.376c-0.073,0.112-0.186,0.188-0.316,0.216c-0.266,0.056-0.534,0.084-0.797,0.084l0,0
		c-1.619,0-2.788-1.061-3.358-1.718c-0.903,1.065-2.204,1.688-3.616,1.722c-1.409-0.068-2.706-0.692-3.617-1.725
		c-0.903,1.067-2.205,1.691-3.617,1.725c-1.434-0.068-2.747-0.71-3.661-1.773C4.26,22.865,2.882,24.002,1.186,24.002z"/>
	<path d="M1.186,20.502c-0.263,0-0.527-0.028-0.784-0.082c-0.27-0.058-0.442-0.324-0.385-0.593c0.049-0.229,0.255-0.396,0.49-0.396
		c0.034,0,0.069,0.004,0.102,0.01c0.187,0.04,0.377,0.06,0.568,0.06c1.863,0,3.376-1.881,3.391-1.9
		c0.094-0.12,0.239-0.191,0.388-0.191c0.006,0,0.027,0.001,0.033,0.001c0.152,0.006,0.3,0.089,0.389,0.223
		c0.718,1.085,1.923,1.77,3.222,1.833c1.282-0.031,2.475-0.713,3.173-1.823c0.09-0.144,0.247-0.232,0.417-0.234
		c0.174,0,0.33,0.084,0.423,0.224c0.719,1.084,1.923,1.769,3.222,1.833c1.282-0.031,2.475-0.713,3.173-1.823
		c0.092-0.146,0.25-0.234,0.423-0.234c0.174,0,0.332,0.088,0.424,0.235c0.01,0.017,1.178,1.814,2.964,1.814c0,0,0,0,0,0
		c0.189,0,0.38-0.02,0.57-0.06c0.032-0.007,0.068-0.011,0.104-0.011c0.234,0,0.439,0.168,0.488,0.399
		c0.027,0.13,0.002,0.264-0.071,0.376c-0.073,0.112-0.186,0.188-0.316,0.216c-0.266,0.056-0.534,0.084-0.797,0.084l0,0
		c-1.619,0-2.788-1.061-3.358-1.718c-0.903,1.065-2.204,1.688-3.616,1.722c-1.409-0.068-2.706-0.692-3.617-1.725
		c-0.903,1.067-2.205,1.691-3.617,1.725c-1.434-0.068-2.747-0.71-3.661-1.773C4.26,19.365,2.882,20.502,1.186,20.502z"/>
</g>
</svg>
