<?xml version="1.0" encoding="utf-8"?>
<!-- Generator: Adobe Illustrator 22.1.0, SVG Export Plug-In . SVG Version: 6.00 Build 0)  -->
<svg version="1.1" id="Layer_1" xmlns="http://www.w3.org/2000/svg" xmlns:xlink="http://www.w3.org/1999/xlink" x="0px" y="0px"
	 viewBox="0 0 24 24" style="enable-background:new 0 0 24 24;" xml:space="preserve">
<g>
	<title>landmark-one-world-trade-center</title>
	<path d="M19.998,23.902c-0.244,0-0.45-0.176-0.491-0.418l-0.93-5.582H5.424l-0.931,5.582C4.453,23.726,4.246,23.902,4,23.902
		c-0.028,0-0.056-0.002-0.085-0.007c-0.27-0.045-0.454-0.303-0.409-0.575l0.93-5.582c0.08-0.484,0.495-0.836,0.986-0.836h0.125
		l0.908-9.099c0.051-0.514,0.478-0.901,0.995-0.901H7.5V4.398c0-0.141,0.062-0.277,0.17-0.372c0,0,3.629-3.633,3.633-3.637
		c0.18-0.18,0.431-0.283,0.698-0.283c0.268,0,0.519,0.104,0.708,0.293l3.633,3.637C16.438,4.12,16.5,4.256,16.5,4.398v2.504h0.045
		c0.52,0,0.947,0.388,0.998,0.902l0.91,9.098h0.123c0.492,0,0.907,0.351,0.987,0.836l0.93,5.582
		c0.022,0.132-0.009,0.264-0.086,0.373s-0.193,0.18-0.325,0.202C20.056,23.9,20.026,23.902,19.998,23.902L19.998,23.902z
		 M17.447,16.902l-0.9-8.999c0,0-9.097-0.001-9.097-0.001l-0.898,9H17.447z M15.5,6.902V4.898h-7v2.004H15.5z M14.79,3.898L12,1.105
		c-0.006,0.006-0.016,0.016-0.027,0.025L9.21,3.898H14.79z"/>
	<path d="M9.5,12.395c-0.276,0-0.5-0.224-0.5-0.5v-1.5c0-0.276,0.224-0.5,0.5-0.5s0.5,0.224,0.5,0.5v1.5
		C10,12.17,9.776,12.395,9.5,12.395z"/>
	<path d="M12,12.395c-0.276,0-0.5-0.224-0.5-0.5v-1.5c0-0.276,0.224-0.5,0.5-0.5c0.276,0,0.5,0.224,0.5,0.5v1.5
		C12.5,12.17,12.276,12.395,12,12.395z"/>
	<path d="M14.5,12.395c-0.276,0-0.5-0.224-0.5-0.5v-1.5c0-0.276,0.224-0.5,0.5-0.5s0.5,0.224,0.5,0.5v1.5
		C15,12.17,14.776,12.395,14.5,12.395z"/>
	<path d="M9.5,15.895c-0.276,0-0.5-0.224-0.5-0.5v-1.5c0-0.276,0.224-0.5,0.5-0.5s0.5,0.224,0.5,0.5v1.5
		C10,15.67,9.776,15.895,9.5,15.895z"/>
	<path d="M12,15.895c-0.276,0-0.5-0.224-0.5-0.5v-1.5c0-0.276,0.224-0.5,0.5-0.5c0.276,0,0.5,0.224,0.5,0.5v1.5
		C12.5,15.67,12.276,15.895,12,15.895z"/>
	<path d="M14.5,15.895c-0.276,0-0.5-0.224-0.5-0.5v-1.5c0-0.276,0.224-0.5,0.5-0.5s0.5,0.224,0.5,0.5v1.5
		C15,15.67,14.776,15.895,14.5,15.895z"/>
	<path d="M9.5,21.895c-0.276,0-0.5-0.224-0.5-0.5v-1.5c0-0.276,0.224-0.5,0.5-0.5s0.5,0.224,0.5,0.5v1.5
		C10,21.67,9.776,21.895,9.5,21.895z"/>
	<path d="M7,21.895c-0.276,0-0.5-0.224-0.5-0.5v-1.5c0-0.276,0.224-0.5,0.5-0.5s0.5,0.224,0.5,0.5v1.5
		C7.5,21.67,7.276,21.895,7,21.895z"/>
	<path d="M17,21.895c-0.276,0-0.5-0.224-0.5-0.5v-1.5c0-0.276,0.224-0.5,0.5-0.5s0.5,0.224,0.5,0.5v1.5
		C17.5,21.67,17.276,21.895,17,21.895z"/>
	<path d="M12,21.895c-0.276,0-0.5-0.224-0.5-0.5v-1.5c0-0.276,0.224-0.5,0.5-0.5c0.276,0,0.5,0.224,0.5,0.5v1.5
		C12.5,21.67,12.276,21.895,12,21.895z"/>
	<path d="M14.5,21.895c-0.276,0-0.5-0.224-0.5-0.5v-1.5c0-0.276,0.224-0.5,0.5-0.5s0.5,0.224,0.5,0.5v1.5
		C15,21.67,14.776,21.895,14.5,21.895z"/>
</g>
</svg>
