<?xml version="1.0" encoding="utf-8"?>
<!-- Generator: Adobe Illustrator 22.1.0, SVG Export Plug-In . SVG Version: 6.00 Build 0)  -->
<svg version="1.1" id="Layer_1" xmlns="http://www.w3.org/2000/svg" xmlns:xlink="http://www.w3.org/1999/xlink" x="0px" y="0px"
	 viewBox="0 0 24 24" style="enable-background:new 0 0 24 24;" xml:space="preserve">
<g>
	<title>landmark-mesoamerican-pyramid</title>
	<path d="M0.5,22C0.224,22,0,21.776,0,21.5V19c0-0.552,0.449-1,1-1h1v-2c0-0.552,0.449-1,1-1h1v-2c0-0.552,0.449-1,1-1h1v-2
		c0-0.551,0.449-1,1-1V5C6.449,5,6,4.551,6,4V3c0-0.551,0.449-1,1-1h10c0.552,0,1,0.449,1,1v1c0,0.551-0.448,1-1,1v4
		c0.552,0,1,0.449,1,1v2h1c0.552,0,1,0.448,1,1v2h1c0.552,0,1,0.448,1,1v2h1c0.552,0,1,0.448,1,1v2.5c0,0.276-0.224,0.5-0.5,0.5H0.5
		z M23,21v-2h-8v2H23z M14,21V10h-4v11H14z M9,21v-2H1l0,2H9z M21,18v-2h-6v2H21z M9,18v-2H3l0,2H9z M19,15v-2h-4L19,15z M9,15v-2H5
		L9,15z M17,12v-2h-2v2H17z M9,12v-2H7l0,2H9z M16,9V5H8v4h2V8c0-1.103,0.897-2,2-2s2,0.897,2,2v1H16z M13,9V8c0-0.551-0.448-1-1-1
		c-0.551,0-1,0.449-1,1v1H13z M7,4h10V3H7L7,4z"/>
</g>
</svg>
