<?xml version="1.0" encoding="utf-8"?>
<!-- Generator: Adobe Illustrator 22.1.0, SVG Export Plug-In . SVG Version: 6.00 Build 0)  -->
<svg version="1.1" id="Layer_1" xmlns="http://www.w3.org/2000/svg" xmlns:xlink="http://www.w3.org/1999/xlink" x="0px" y="0px"
	 viewBox="0 0 24 24" style="enable-background:new 0 0 24 24;" xml:space="preserve">
<g>
	<title>landmark-pyramid</title>
	<path d="M1.384,21c-0.181,0-0.358-0.049-0.513-0.142c-0.473-0.284-0.628-0.899-0.345-1.372l5.475-9.125V8c-0.551,0-1-0.449-1-1V6
		c0-0.551,0.449-1,1-1V4c0-0.551,0.449-1,1-1h10c0.552,0,1,0.449,1,1v1c0.552,0,1,0.449,1,1v1c0,0.551-0.448,1-1,1v2.362
		l5.475,9.124c0.093,0.157,0.142,0.334,0.142,0.514c0,0.552-0.449,1-1,1H1.384z M1.384,20l7.187,0l1.35-9H6.784l-0.6,1h1.817
		c0.276,0,0.5,0.224,0.5,0.5c0,0.276-0.224,0.5-0.5,0.5H5.584l-0.6,1h2.517c0.276,0,0.5,0.224,0.5,0.5S7.777,15,7.501,15H4.384
		l-0.6,1h3.217c0.276,0,0.5,0.224,0.5,0.5S7.277,17,7.001,17H3.184l-0.6,1h3.917c0.276,0,0.5,0.224,0.5,0.5S6.777,19,6.501,19H1.984
		L1.384,20z M22.618,20l-0.6-1h-4.517c-0.276,0-0.5-0.224-0.5-0.5s0.224-0.5,0.5-0.5h3.917l-0.6-1h-3.817
		c-0.276,0-0.5-0.224-0.5-0.5s0.224-0.5,0.5-0.5h3.217l-0.6-1h-3.117c-0.276,0-0.5-0.224-0.5-0.5s0.224-0.5,0.5-0.5h2.517l-0.6-1
		h-2.417c-0.276,0-0.5-0.224-0.5-0.5c0-0.276,0.224-0.5,0.5-0.5h1.817l-0.6-1h-3.136l1.35,9H22.618z M14.42,20l-1.35-9h-2.139
		l-1.35,9H14.42z M17.001,10V8h-3v2H17.001z M13.001,10V8h-2v2H13.001z M10.001,10V8h-3v2H10.001z M18.001,7V6h-2.5
		c-0.276,0-0.5-0.224-0.5-0.5s0.224-0.5,0.5-0.5h1.5V4h-10v1h1.5c0.276,0,0.5,0.224,0.5,0.5S8.777,6,8.501,6h-2.5v1h0.479
		c0.007-0.001,0.015-0.001,0.021-0.001s0.014,0,0.021,0.001h10.957c0.007-0.001,0.014-0.001,0.021-0.001s0.014,0,0.021,0.001H18.001
		z"/>
</g>
</svg>
