<?xml version="1.0" encoding="utf-8"?>
<!-- Generator: Adobe Illustrator 22.1.0, SVG Export Plug-In . SVG Version: 6.00 Build 0)  -->
<svg version="1.1" id="Layer_1" xmlns="http://www.w3.org/2000/svg" xmlns:xlink="http://www.w3.org/1999/xlink" x="0px" y="0px"
	 viewBox="0 0 24 24" style="enable-background:new 0 0 24 24;" xml:space="preserve">
<g>
	<title>landmark-totem-pole</title>
	<path d="M9,24c-0.551,0-1-0.448-1-1V13H6.5c-1.751,0-3.235-1.316-3.466-3.033C1.571,9.77,0.368,8.658,0.07,7.2
		C0.057,7.136,0.05,7.068,0.05,7c0-0.551,0.449-1,1-1H8V4c0-2.206,1.794-4,4-4s4,1.794,4,4v2h6.95c0.551,0,1,0.448,1,1
		c0,0.068-0.007,0.136-0.021,0.202c-0.298,1.457-1.501,2.568-2.964,2.766C20.735,11.684,19.252,13,17.5,13H16v10
		c0,0.552-0.448,1-1,1H9z M9,23h6v-1L9,23z M15,21v-2h-1v2H15z M13,21v-2h-2v2H13z M10,21v-2H9v2H10z M15,18v-1.793l-1-1
		l-1.646,1.646C12.259,16.948,12.134,17,12,17s-0.259-0.052-0.354-0.146L10,15.207l-1,1V18H15z M10,14
		c0.134,0,0.259,0.052,0.354,0.146L12,15.793l1.646-1.646C13.741,14.052,13.867,14,14,14s0.259,0.052,0.354,0.146L15,14.793V9.472
		l-2.418,1.727c-0.17,0.122-0.372,0.186-0.582,0.186s-0.411-0.065-0.582-0.187L9,9.472v5.321l0.646-0.646
		C9.741,14.052,9.867,14,10,14z M17.5,12c1.188,0,2.215-0.859,2.449-2H18c-0.276,0-0.5-0.224-0.5-0.5S17.725,9,18,9h2.5
		c1.183,0,2.214-0.841,2.45-2L16,7v5H17.5z M4.051,10c0.235,1.141,1.262,2,2.45,2H8V7H1.05C1.287,8.159,2.317,9,3.5,9H6
		c0.276,0,0.5,0.224,0.5,0.5S6.276,10,6,10H4.051z M12,10.385l2.366-1.689L12,8.02l0.001,0.001c-0.002,0-0.004,0-0.006,0.001
		l-2.36,0.675L12,10.385z M12.001,7.02c0.092,0,0.183,0.012,0.271,0.037L15,7.837V4c0-0.653-0.216-1.288-0.612-1.809l-2.137,1.241
		C12.175,3.477,12.088,3.5,12,3.5s-0.175-0.023-0.251-0.068L9.612,2.191C9.216,2.712,9,3.347,9,4v3.837l2.726-0.779
		C11.817,7.033,11.909,7.02,12.001,7.02z M12,2.422l1.623-0.943C13.141,1.168,12.577,1,12,1s-1.141,0.168-1.623,0.479L12,2.422z"/>
	<path d="M10.5,6C10.224,6,10,5.776,10,5.5v-1C10,4.224,10.224,4,10.5,4S11,4.224,11,4.5v1C11,5.776,10.776,6,10.5,6z"/>
	<path d="M13.5,6C13.225,6,13,5.776,13,5.5v-1C13,4.224,13.225,4,13.5,4S14,4.224,14,4.5v1C14,5.776,13.776,6,13.5,6z"/>
</g>
</svg>
