<?xml version="1.0" encoding="utf-8"?>
<!-- Generator: Adobe Illustrator 22.1.0, SVG Export Plug-In . SVG Version: 6.00 Build 0)  -->
<svg version="1.1" id="Layer_1" xmlns="http://www.w3.org/2000/svg" xmlns:xlink="http://www.w3.org/1999/xlink" x="0px" y="0px"
	 viewBox="0 0 24 24" style="enable-background:new 0 0 24 24;" xml:space="preserve">
<g>
	<title>grid-perspective</title>
	<path d="M12,23.5c-0.276,0-0.5-0.224-0.5-0.5v-1.164L0.811,17.463c-0.255-0.104-0.378-0.397-0.274-0.652
		C0.615,16.622,0.797,16.5,1,16.5c0.065,0,0.129,0.013,0.19,0.038l2.31,0.945v-2.52l-2.589-0.471
		c-0.131-0.024-0.246-0.097-0.322-0.207c-0.076-0.11-0.105-0.243-0.081-0.374C0.551,13.672,0.757,13.5,0.997,13.5
		c0.031,0,0.063,0.003,0.095,0.009L3.5,13.947v-3.893l-2.411,0.438C1.059,10.497,1.03,10.5,1,10.5c-0.242,0-0.449-0.173-0.492-0.411
		C0.484,9.958,0.513,9.825,0.589,9.715c0.076-0.11,0.19-0.184,0.322-0.207L3.5,9.037v-2.52L1.189,7.463
		C1.129,7.488,1.065,7.5,1.001,7.5c-0.204,0-0.386-0.122-0.463-0.311C0.433,6.934,0.556,6.642,0.811,6.537L11.5,2.164V1
		c0-0.276,0.224-0.5,0.5-0.5c0.276,0,0.5,0.224,0.5,0.5v1.164L23.19,6.537c0.255,0.105,0.378,0.397,0.273,0.652
		C23.386,7.378,23.204,7.5,23,7.5c-0.065,0-0.128-0.012-0.189-0.037L20.5,6.518v2.52l2.589,0.471
		c0.132,0.024,0.246,0.098,0.322,0.208c0.076,0.11,0.104,0.243,0.08,0.374c-0.043,0.237-0.25,0.41-0.491,0.41
		c-0.029,0-0.059-0.003-0.089-0.008L20.5,10.054v3.893l2.411-0.438c0.029-0.006,0.061-0.009,0.092-0.009
		c0.241,0,0.447,0.173,0.49,0.412c0.024,0.13-0.005,0.263-0.081,0.373c-0.076,0.11-0.19,0.184-0.322,0.208L20.5,14.963v2.52
		l2.311-0.945C22.871,16.512,22.935,16.5,23,16.5c0.204,0,0.386,0.122,0.463,0.311c0.104,0.255-0.019,0.548-0.273,0.652L12.5,21.836
		V23C12.5,23.276,12.276,23.5,12,23.5z M12.5,20.755l3-1.227v-3.656l-3,0.545V20.755z M11.5,20.755v-4.338l-3-0.545v3.656
		L11.5,20.755z M16.5,19.119l3-1.227v-2.747l-3,0.545V19.119z M7.5,19.119V15.69l-3-0.545v2.747L7.5,19.119z M12.5,15.401l3-0.546
		V9.145l-3-0.545V15.401z M11.5,15.401V8.599l-3,0.545v5.711L11.5,15.401z M16.5,14.674l3-0.545V9.872l-3-0.545V14.674z M7.5,14.674
		V9.326l-3,0.545v4.256L7.5,14.674z M19.5,8.855V6.109l-3-1.227V8.31L19.5,8.855z M4.5,8.855l3-0.545V4.881l-3,1.227V8.855z
		 M15.5,8.128V4.472l-3-1.227v4.338L15.5,8.128z M8.5,8.128l3-0.545V3.245l-3,1.227V8.128z"/>
</g>
</svg>
