<?xml version="1.0" encoding="utf-8"?>
<!-- Generator: Adobe Illustrator 22.1.0, SVG Export Plug-In . SVG Version: 6.00 Build 0)  -->
<svg version="1.1" id="Layer_1" xmlns="http://www.w3.org/2000/svg" xmlns:xlink="http://www.w3.org/1999/xlink" x="0px" y="0px"
	 viewBox="0 0 24 24" style="enable-background:new 0 0 24 24;" xml:space="preserve">
<g>
	<title>grid-guides</title>
	<path d="M16.5,24c-0.276,0-0.5-0.224-0.5-0.5V17h-4v6.5c0,0.276-0.224,0.5-0.5,0.5S11,23.776,11,23.5V17H7v6.5
		C7,23.776,6.776,24,6.5,24S6,23.776,6,23.5V17H0.5C0.224,17,0,16.776,0,16.5S0.224,16,0.5,16H6v-4H0.5C0.224,12,0,11.776,0,11.5
		S0.224,11,0.5,11H6V7H0.5C0.224,7,0,6.776,0,6.5S0.224,6,0.5,6H6V0.5C6,0.224,6.224,0,6.5,0S7,0.224,7,0.5V6h4V0.5
		C11,0.224,11.224,0,11.5,0S12,0.224,12,0.5V6h4V0.5C16,0.224,16.224,0,16.5,0S17,0.224,17,0.5V6h6.5C23.776,6,24,6.224,24,6.5
		S23.776,7,23.5,7H17v4h6.5c0.276,0,0.5,0.224,0.5,0.5S23.776,12,23.5,12H17v4h6.5c0.276,0,0.5,0.224,0.5,0.5S23.776,17,23.5,17H17
		v6.5C17,23.776,16.776,24,16.5,24z M16,16v-4h-4v4H16z M11,16v-4H7v4H11z M16,11V7h-4v4H16z M11,11V7H7v4H11z"/>
</g>
</svg>
