<?xml version="1.0" encoding="utf-8"?>
<!-- Generator: Adobe Illustrator 22.1.0, SVG Export Plug-In . SVG Version: 6.00 Build 0)  -->
<svg version="1.1" id="Layer_1" xmlns="http://www.w3.org/2000/svg" xmlns:xlink="http://www.w3.org/1999/xlink" x="0px" y="0px"
	 viewBox="0 0 24 24" style="enable-background:new 0 0 24 24;" xml:space="preserve">
<g>
	<title>ruler</title>
	<path d="M6.001,23.587c-0.401,0-0.777-0.156-1.061-0.439l-4.086-4.086c-0.585-0.585-0.585-1.536,0-2.121L16.94,0.854
		C17.223,0.57,17.599,0.414,18,0.414c0.401,0,0.777,0.156,1.061,0.439l4.086,4.086C23.431,5.223,23.587,5.6,23.587,6
		s-0.156,0.777-0.439,1.061L7.062,23.147C6.778,23.431,6.402,23.587,6.001,23.587z M1.561,17.647c-0.195,0.195-0.195,0.512,0,0.707
		l4.086,4.086c0.089,0.088,0.217,0.139,0.354,0.139c0.136,0,0.265-0.051,0.354-0.139L22.44,6.354C22.535,6.26,22.587,6.134,22.587,6
		s-0.052-0.259-0.146-0.354l-4.086-4.086C18.265,1.472,18.136,1.421,18,1.421s-0.265,0.051-0.354,0.139L15.21,3.997l1.657,1.633
		c0.095,0.094,0.148,0.219,0.149,0.353c0.001,0.134-0.05,0.259-0.144,0.354c-0.094,0.096-0.221,0.149-0.356,0.149
		c-0.132,0-0.257-0.051-0.351-0.144l-1.662-1.638L13.208,6l2.147,2.147c0.195,0.195,0.195,0.512,0,0.707
		C15.26,8.948,15.135,9,15.001,9s-0.259-0.052-0.354-0.146l-2.147-2.147l-1.528,1.528l1.397,1.397c0.195,0.195,0.195,0.512,0,0.707
		c-0.094,0.094-0.22,0.146-0.354,0.146s-0.259-0.052-0.354-0.146l-1.397-1.397l-1.3,1.301l2.147,2.147
		c0.195,0.195,0.195,0.512,0,0.707c-0.094,0.094-0.22,0.146-0.354,0.146s-0.259-0.052-0.354-0.146L8.258,10.95l-1.533,1.532
		l1.657,1.631c0.095,0.094,0.148,0.219,0.149,0.353c0.001,0.134-0.05,0.26-0.144,0.354c-0.094,0.096-0.221,0.149-0.356,0.149
		c-0.132,0-0.256-0.051-0.351-0.144L6.018,13.19l-1.296,1.295l2.147,2.147c0.195,0.195,0.195,0.512,0,0.707
		c-0.094,0.094-0.22,0.146-0.354,0.146s-0.259-0.052-0.354-0.146l-2.147-2.147L1.561,17.647z"/>
</g>
</svg>
