<?xml version="1.0" encoding="utf-8"?>
<!-- Generator: Adobe Illustrator 22.1.0, SVG Export Plug-In . SVG Version: 6.00 Build 0)  -->
<svg version="1.1" id="Layer_1" xmlns="http://www.w3.org/2000/svg" xmlns:xlink="http://www.w3.org/1999/xlink" x="0px" y="0px"
	 viewBox="0 0 24 24" style="enable-background:new 0 0 24 24;" xml:space="preserve">
<g>
	<title>ruler-triangle</title>
	<path d="M1.74,23.758c-0.827,0-1.5-0.673-1.5-1.5v-21c0-0.674,0.361-0.896,0.516-0.961c0.09-0.037,0.186-0.056,0.285-0.056
		c0.259,0,0.514,0.125,0.76,0.37l21.586,21.586c0.476,0.476,0.378,0.889,0.314,1.044s-0.286,0.517-0.961,0.517H1.74z M1.24,22.258
		c0,0.276,0.224,0.5,0.5,0.5h20.793l-2.793-2.793l-0.646,0.646c-0.094,0.094-0.22,0.146-0.354,0.146s-0.259-0.052-0.354-0.146
		s-0.146-0.22-0.146-0.354s0.052-0.259,0.146-0.354l0.646-0.646l-1.793-1.793l-0.646,0.646c-0.094,0.094-0.22,0.146-0.354,0.146
		s-0.259-0.052-0.354-0.146s-0.146-0.22-0.146-0.354s0.052-0.259,0.146-0.354l0.646-0.646l-1.793-1.793l-0.646,0.646
		c-0.094,0.094-0.22,0.146-0.354,0.146s-0.259-0.052-0.354-0.146c-0.195-0.195-0.195-0.512,0-0.707l0.646-0.646l-1.793-1.793
		l-0.646,0.646c-0.094,0.094-0.22,0.146-0.354,0.146s-0.259-0.052-0.354-0.146s-0.146-0.22-0.146-0.354s0.052-0.259,0.146-0.354
		l0.646-0.647L9.74,9.965l-0.646,0.646c-0.094,0.094-0.22,0.146-0.354,0.146s-0.259-0.052-0.354-0.146s-0.146-0.22-0.146-0.354
		s0.052-0.259,0.146-0.354l0.646-0.646L7.24,7.465L6.593,8.112C6.499,8.206,6.373,8.258,6.24,8.258S5.981,8.206,5.886,8.112
		S5.74,7.892,5.74,7.758s0.052-0.259,0.146-0.354l0.646-0.646L4.74,4.965L4.093,5.612C3.999,5.706,3.873,5.758,3.74,5.758
		S3.481,5.706,3.386,5.612S3.24,5.392,3.24,5.258s0.052-0.259,0.146-0.354l0.646-0.646L1.24,1.465V22.258z"/>
	<path d="M4.74,20.758c-0.827,0-1.5-0.673-1.5-1.5v-8.5c0-0.674,0.361-0.896,0.516-0.961c0.09-0.037,0.186-0.056,0.285-0.056
		c0.259,0,0.514,0.125,0.76,0.37l9.086,9.086c0.476,0.476,0.378,0.889,0.314,1.044s-0.286,0.517-0.961,0.517H4.74z M4.24,19.258
		c0,0.276,0.224,0.5,0.5,0.5h8.293L4.24,10.965V19.258z"/>
</g>
</svg>
