<?xml version="1.0" encoding="utf-8"?>
<!-- Generator: Adobe Illustrator 22.1.0, SVG Export Plug-In . SVG Version: 6.00 Build 0)  -->
<svg version="1.1" id="Layer_1" xmlns="http://www.w3.org/2000/svg" xmlns:xlink="http://www.w3.org/1999/xlink" x="0px" y="0px"
	 viewBox="0 0 24 24" style="enable-background:new 0 0 24 24;" xml:space="preserve">
<g>
	<title>controller-360</title>
	<path d="M2.023,20C0.907,20,0,19.093,0,17.977v-5.954c0-0.199,0.029-0.395,0.087-0.585c0-0.011,0.004-0.037,0.015-0.068l2.1-6.087
		C2.464,4.516,3.187,4,3.998,4H5c0.091,0,0.18,0.025,0.257,0.071c0.166,0.1,0.33,0.2,0.493,0.299C7.126,5.208,8.426,6,10,6h4
		c1.572,0,2.87-0.79,4.244-1.626l0.062-0.038c0.145-0.088,0.29-0.176,0.437-0.264C18.82,4.025,18.909,4,19,4h1
		c0.813,0,1.536,0.516,1.799,1.284l2.1,6.086c0.005,0.016,0.011,0.044,0.014,0.067C23.971,11.627,24,11.824,24,12.023v5.954
		C24,19.093,23.093,20,21.977,20H2.023z M1,17.977C1,18.541,1.459,19,2.023,19h19.954C22.541,19,23,18.541,23,17.977V17.5h-0.529
		C21.66,17.5,21,16.84,21,16.029v-1.057c0-0.811,0.66-1.471,1.471-1.471H23v-1.478C23,11.459,22.541,11,21.977,11H2.023
		C1.459,11,1,11.459,1,12.023V13.5h0.529C2.34,13.5,3,14.16,3,14.971v1.057c0,0.392-0.152,0.762-0.43,1.04
		C2.292,17.346,1.923,17.5,1.531,17.5H1V17.977z M22.471,14.501c-0.26,0-0.471,0.211-0.471,0.471v1.057
		c0,0.26,0.211,0.471,0.471,0.471H23v-1.999H22.471z M1.529,16.5c0.126,0,0.245-0.049,0.333-0.138C1.951,16.273,2,16.155,2,16.029
		v-1.058c0-0.26-0.211-0.471-0.471-0.471H1v2H1.529z M4,5C3.614,5,3.272,5.244,3.147,5.608l-1.529,4.433
		C1.75,10.014,1.885,10,2.023,10h19.954c0.138,0,0.273,0.014,0.405,0.041l-1.529-4.432C20.729,5.245,20.386,5,20.002,5h-0.863
		L18.77,5.224C17.267,6.139,15.853,7,14,7h-4C8.145,7,6.729,6.137,5.23,5.224L4.861,5H4z"/>
	<path d="M7.5,17C7.224,17,7,16.776,7,16.5S7.224,16,7.5,16h1.25C8.888,16,9,15.888,9,15.75S8.888,15.5,8.75,15.5H7.5
		C7.224,15.5,7,15.276,7,15s0.224-0.5,0.5-0.5h1.25C8.888,14.5,9,14.388,9,14.25S8.888,14,8.75,14H7.5C7.224,14,7,13.776,7,13.5
		S7.224,13,7.5,13h1.25C9.439,13,10,13.561,10,14.25c0,0.271-0.091,0.534-0.255,0.75C9.909,15.216,10,15.479,10,15.75
		C10,16.439,9.439,17,8.75,17H7.5z"/>
	<path d="M11.75,17c-0.689,0-1.25-0.561-1.25-1.25v-1.5c0-0.689,0.561-1.25,1.25-1.25H13c0.276,0,0.5,0.224,0.5,0.5S13.276,14,13,14
		h-1.25c-0.138,0-0.25,0.112-0.25,0.25v0.25h0.75c0.689,0,1.25,0.561,1.25,1.25S12.939,17,12.25,17H11.75z M11.5,15.75
		c0,0.138,0.112,0.25,0.25,0.25h0.5c0.138,0,0.25-0.112,0.25-0.25s-0.112-0.25-0.25-0.25H11.5V15.75z"/>
	<path d="M15.5,17c-0.827,0-1.5-0.673-1.5-1.5v-1c0-0.827,0.673-1.5,1.5-1.5s1.5,0.673,1.5,1.5v1C17,16.327,16.327,17,15.5,17z
		 M15.5,14c-0.276,0-0.5,0.224-0.5,0.5v1c0,0.276,0.224,0.5,0.5,0.5s0.5-0.224,0.5-0.5v-1C16,14.224,15.776,14,15.5,14z"/>
</g>
</svg>
