<?xml version="1.0" encoding="utf-8"?>
<!-- Generator: Adobe Illustrator 22.1.0, SVG Export Plug-In . SVG Version: 6.00 Build 0)  -->
<svg version="1.1" id="Layer_1" xmlns="http://www.w3.org/2000/svg" xmlns:xlink="http://www.w3.org/1999/xlink" x="0px" y="0px"
	 viewBox="0 0 24 24" style="enable-background:new 0 0 24 24;" xml:space="preserve">
<g>
	<title>vr-controller-headphones</title>
	<path d="M20,22c-1.103,0-2-0.897-2-2v-2c0-0.552-0.448-1-1-1h-0.5c-0.276,0-0.5-0.224-0.5-0.5s0.224-0.5,0.5-0.5H17
		c1.103,0,2,0.897,2,2v2c0,0.552,0.448,1,1,1s1-0.448,1-1v-9h-0.5c-0.276,0-0.5-0.224-0.5-0.5V5c0-2.206-1.794-4-4-4s-4,1.794-4,4
		v5.5c0,0.276-0.224,0.5-0.5,0.5H9.974C8.885,11,8,10.115,8,9.026V6.975C8,6.449,8.205,5.953,8.578,5.58
		C8.951,5.206,9.446,5,9.973,5H11c0-2.757,2.243-5,5-5s5,2.243,5,5h1.025C23.114,5,24,5.885,24,6.974v2.051
		c0,1.088-0.884,1.974-1.972,1.975H22v9C22,21.103,21.103,22,20,22z M22.027,10C22.564,10,23,9.562,23,9.025V6.974
		C23,6.437,22.562,6,22.025,6H21v4H22.027z M9.973,6c-0.26,0-0.505,0.102-0.688,0.286S9,6.714,9,6.974v2.052
		C9,9.563,9.437,10,9.974,10H11V6H9.973z"/>
	<path d="M4,22c-1.103,0-2-0.897-2-2s0.897-2,2-2s2,0.897,2,2S5.103,22,4,22z M4,19c-0.551,0-1,0.448-1,1s0.449,1,1,1s1-0.448,1-1
		S4.551,19,4,19z"/>
	<path d="M11,22c-1.103,0-2-0.897-2-2s0.897-2,2-2s2,0.897,2,2S12.103,22,11,22z M11,19c-0.551,0-1,0.448-1,1s0.449,1,1,1
		s1-0.448,1-1S11.551,19,11,19z"/>
	<path d="M10,24c-0.47,0-0.918-0.224-1.2-0.6L7.9,22.2C7.805,22.073,7.659,22,7.499,22C7.39,22,7.287,22.035,7.2,22.1
		c-0.038,0.029-0.072,0.062-0.101,0.101L6.2,23.4C5.918,23.776,5.47,24,5,24H2.5C1.121,24,0,22.878,0,21.5v-7.764
		c0-0.663,0.368-1.258,0.961-1.554c0.244-0.122,0.504-0.184,0.774-0.184c0.187,0,0.372,0.031,0.552,0.09
		c0.44,0.147,0.796,0.457,1.003,0.872C3.61,13.602,4.254,14,4.971,14h5.057c0.718,0,1.362-0.398,1.683-1.04
		C12.006,12.368,12.602,12,13.264,12C14.221,12,15,12.779,15,13.736V21.5c0,1.378-1.122,2.5-2.5,2.5H10z M7.498,21
		c0.471,0,0.92,0.224,1.202,0.599L9.6,22.8C9.694,22.925,9.843,23,10,23h2.5c0.827,0,1.5-0.673,1.5-1.5v-3
		c0-0.827-0.673-1.5-1.5-1.5h-10C1.673,17,1,17.673,1,18.5v3C1,22.327,1.673,23,2.5,23H5c0.157,0,0.306-0.075,0.4-0.2l0.9-1.2
		c0.086-0.114,0.187-0.215,0.3-0.3C6.861,21.104,7.172,21,7.498,21z M12.5,16c0.549,0,1.072,0.178,1.5,0.501v-2.765
		C14,13.33,13.67,13,13.264,13c-0.281,0-0.533,0.156-0.659,0.407C12.115,14.39,11.127,15,10.029,15H4.972
		c-1.099,0-2.086-0.61-2.577-1.592c-0.088-0.176-0.239-0.307-0.425-0.37c-0.077-0.026-0.155-0.039-0.235-0.039
		c-0.114,0-0.224,0.026-0.327,0.078C1.156,13.203,1,13.455,1,13.736v2.765C1.428,16.178,1.952,16,2.5,16H12.5z"/>
</g>
</svg>
