<?xml version="1.0" encoding="utf-8"?>
<!-- Generator: Adobe Illustrator 22.1.0, SVG Export Plug-In . SVG Version: 6.00 Build 0)  -->
<svg version="1.1" id="Layer_1" xmlns="http://www.w3.org/2000/svg" xmlns:xlink="http://www.w3.org/1999/xlink" x="0px" y="0px"
	 viewBox="0 0 24 24" style="enable-background:new 0 0 24 24;" xml:space="preserve">
<g>
	<title>vr-controller</title>
	<path d="M20,22c-1.103,0-2-0.897-2-2v-2c0-0.552-0.448-1-1-1h-2.5c-0.276,0-0.5-0.224-0.5-0.5s0.224-0.5,0.5-0.5H17
		c1.103,0,2,0.897,2,2v2c0,0.552,0.448,1,1,1s1-0.448,1-1V10h-9c-1.103,0-2-0.897-2-2V5c0-0.372,0.046-0.744,0.136-1.106
		l0.879-3.516C11.071,0.156,11.27,0,11.5,0H13c0.134,0,0.259,0.052,0.354,0.146C13.904,0.697,14.635,1,15.413,1h3.173
		c0.779,0,1.51-0.303,2.061-0.854C20.741,0.052,20.866,0,21,0h1.5c0.23,0,0.429,0.156,0.485,0.379l0.879,3.515
		C23.954,4.254,24,4.626,24,5v3c0,1.103-0.897,2-2,2v10C22,21.103,21.103,22,20,22z M11,8c0,0.551,0.449,1,1,1h10
		c0.552,0,1-0.449,1-1V7h-1.5C21.224,7,21,6.776,21,6.5S21.224,6,21.5,6H23V5c0-0.552-0.448-1-1-1H12c-0.551,0-1,0.449-1,1v1h1.5
		C12.776,6,13,6.224,13,6.5S12.776,7,12.5,7H11V8z M11.364,3.104C11.568,3.035,11.782,3,12,3h10c0.218,0,0.432,0.035,0.636,0.104
		L22.11,1h-0.91c-0.718,0.646-1.642,1-2.612,1h-3.173c-0.971,0-1.895-0.354-2.613-1h-0.91L11.364,3.104z"/>
	<path d="M5.5,18C5.224,18,5,17.776,5,17.5S5.224,17,5.5,17h2C7.776,17,8,17.224,8,17.5S7.776,18,7.5,18H5.5z"/>
	<circle cx="2.75" cy="17.75" r="0.75"/>
	<circle cx="10.25" cy="17.75" r="0.75"/>
	<path d="M1.5,24C0.673,24,0,23.327,0,22.5V18c0-1.654,1.346-3,3-3h7c1.654,0,3,1.346,3,3v4.5c0,0.469-0.224,0.918-0.6,1.2
		c-0.261,0.196-0.572,0.3-0.899,0.3c0,0,0,0,0,0c-0.471,0-0.92-0.224-1.201-0.599l-2.541-3.399H5.242L2.7,23.399
		C2.418,23.776,1.97,24,1.5,24z M3,16c-1.103,0-2,0.897-2,2v4.5C1,22.776,1.224,23,1.5,23c0.157,0,0.306-0.075,0.4-0.2l2.654-3.549
		c0.026-0.032,0.043-0.052,0.059-0.068C4.705,19.067,4.845,19.001,5,19.001h3c0.149,0,0.29,0.067,0.385,0.181
		c0.016,0.015,0.031,0.031,0.047,0.05l2.669,3.569C11.195,22.927,11.341,23,11.501,23c0.109,0,0.212-0.034,0.299-0.1
		c0.125-0.094,0.2-0.243,0.2-0.4V18c0-1.103-0.897-2-2-2H3z"/>
</g>
</svg>
