<?xml version="1.0" encoding="utf-8"?>
<!-- Generator: Adobe Illustrator 22.1.0, SVG Export Plug-In . SVG Version: 6.00 Build 0)  -->
<svg version="1.1" id="Layer_1" xmlns="http://www.w3.org/2000/svg" xmlns:xlink="http://www.w3.org/1999/xlink" x="0px" y="0px"
	 viewBox="0 0 24 24" style="enable-background:new 0 0 24 24;" xml:space="preserve">
<g>
	<title>vr-globe</title>
	<path d="M16.24,24c-0.595,0-1.172-0.214-1.625-0.601l-0.986-0.845c-0.455-0.389-1.032-0.604-1.625-0.604s-1.169,0.215-1.625,0.604
		l-0.987,0.845C8.94,23.786,8.363,24,7.767,24H2.5C1.121,24,0,22.878,0,21.5v-7C0,13.673,0.673,13,1.5,13H4
		c0.276,0,0.5,0.224,0.5,0.5S4.276,14,4,14H1.5C1.224,14,1,14.224,1,14.5v7C1,22.327,1.673,23,2.5,23h5.267
		c0.357,0,0.703-0.128,0.975-0.361l0.987-0.845c0.637-0.545,1.445-0.846,2.275-0.846s1.638,0.3,2.275,0.846l0.986,0.845
		C15.537,22.872,15.883,23,16.24,23h5.26c0.827,0,1.5-0.673,1.5-1.5v-7c0-0.276-0.224-0.5-0.5-0.5H20c-0.276,0-0.5-0.224-0.5-0.5
		S19.724,13,20,13h2.5c0.827,0,1.5,0.673,1.5,1.5v7c0,1.378-1.122,2.5-2.5,2.5H16.24z"/>
	<path d="M12,16c-4.411,0-8-3.589-8-8c0-4.41,3.588-7.999,7.998-8C16.412,0.001,20,3.59,20,8C20,12.411,16.411,16,12,16z M9.362,11
		c0.678,2.546,2.129,3.624,2.636,3.932c0.507-0.311,1.957-1.394,2.636-3.932H9.362z M15.674,11
		c-0.424,1.801-1.188,2.997-1.914,3.773c1.989-0.518,3.671-1.899,4.563-3.773H15.674z M5.677,11
		c0.892,1.874,2.574,3.256,4.563,3.773C9.515,13.997,8.75,12.801,8.327,11H5.677z M18.707,10C18.902,9.35,19,8.678,19,8
		s-0.098-1.35-0.293-2h-2.846C15.954,6.638,16,7.309,16,8s-0.046,1.362-0.138,2H18.707z M14.846,10C14.948,9.368,15,8.696,15,8
		c0-0.696-0.051-1.368-0.153-2H9.153C9.052,6.632,9,7.304,9,8c0,0.696,0.051,1.367,0.152,2H14.846z M8.138,10
		C8.047,9.362,8,8.691,8,8s0.047-1.362,0.138-2H5.293C5.098,6.65,5,7.322,5,8s0.098,1.35,0.293,2H8.138z M18.323,5
		c-0.892-1.874-2.574-3.256-4.563-3.773C14.485,2.003,15.25,3.199,15.674,5H18.323z M14.638,5c-0.677-2.546-2.129-3.623-2.636-3.932
		C11.495,1.379,10.044,2.464,9.365,5H14.638z M8.327,5C8.75,3.199,9.515,2.003,10.24,1.227C8.251,1.744,6.57,3.126,5.677,5H8.327z"
		/>
</g>
</svg>
