<?xml version="1.0" encoding="utf-8"?>
<!-- Generator: Adobe Illustrator 22.1.0, SVG Export Plug-In . SVG Version: 6.00 Build 0)  -->
<svg version="1.1" id="Layer_1" xmlns="http://www.w3.org/2000/svg" xmlns:xlink="http://www.w3.org/1999/xlink" x="0px" y="0px"
	 viewBox="0 0 24 24" style="enable-background:new 0 0 24 24;" xml:space="preserve">
<g>
	<title>vr-user-controller</title>
	<path d="M6.5,13.497c-0.276,0-0.5-0.224-0.5-0.5v-3c0-0.276-0.224-0.5-0.5-0.5h-4c-0.827,0-1.5-0.673-1.5-1.5s0.673-1.5,1.5-1.5h6
		c0.276,0,0.5,0.224,0.5,0.5s-0.224,0.5-0.5,0.5h-6c-0.276,0-0.5,0.224-0.5,0.5s0.224,0.5,0.5,0.5h4c0.827,0,1.5,0.673,1.5,1.5v3
		C7,13.273,6.776,13.497,6.5,13.497z"/>
	<path d="M5.5,17.497c-0.276,0-0.5-0.224-0.5-0.5s0.224-0.5,0.5-0.5h2c0.276,0,0.5,0.224,0.5,0.5s-0.224,0.5-0.5,0.5H5.5z"/>
	<circle cx="2.75" cy="17.247" r="0.75"/>
	<circle cx="10.25" cy="17.247" r="0.75"/>
	<path d="M1.5,23.497c-0.827,0-1.5-0.673-1.5-1.5v-4.5c0-1.654,1.346-3,3-3h7c1.654,0,3,1.346,3,3v4.5c0,0.47-0.224,0.918-0.6,1.2
		c-0.261,0.196-0.572,0.3-0.898,0.3h0c-0.471,0-0.92-0.224-1.202-0.6l-2.541-3.399H5.242L2.7,22.897
		C2.418,23.273,1.97,23.497,1.5,23.497z M8.385,18.679c0.015,0.014,0.03,0.03,0.044,0.047l2.671,3.572
		c0.095,0.126,0.241,0.199,0.4,0.199c0.109,0,0.212-0.034,0.299-0.1c0.125-0.094,0.2-0.244,0.2-0.4v-4.5c0-1.103-0.897-2-2-2H3
		c-1.103,0-2,0.897-2,2v4.5c0,0.276,0.224,0.5,0.5,0.5c0.157,0,0.306-0.075,0.4-0.2l2.654-3.549
		c0.026-0.033,0.043-0.052,0.059-0.067C4.705,18.564,4.845,18.498,5,18.498h3C8.149,18.498,8.291,18.565,8.385,18.679z"/>
	<path d="M19,11.497c-0.469,0-0.918-0.224-1.2-0.6l-0.9-1.2c-0.08-0.107-0.197-0.176-0.329-0.195
		c-0.024-0.003-0.048-0.005-0.073-0.005c-0.108,0-0.211,0.035-0.299,0.1c-0.038,0.028-0.071,0.062-0.1,0.1l-0.9,1.2
		c-0.282,0.376-0.73,0.6-1.2,0.6h-2.5c-1.379,0-2.5-1.121-2.5-2.5v-3c0-1.193,0.829-2.203,1.987-2.444
		c0.567-0.908,1.351-1.665,2.273-2.194c0.986-0.567,2.102-0.866,3.227-0.866c0.573,0,1.147,0.077,1.707,0.228
		c1.589,0.43,2.938,1.433,3.81,2.831C23.15,3.788,24,4.819,24,5.997v3c0,1.379-1.122,2.5-2.5,2.5H19z M16.497,8.497
		c0.071,0,0.143,0.005,0.215,0.015c0.397,0.057,0.748,0.265,0.988,0.585l0.9,1.2c0.094,0.125,0.244,0.2,0.4,0.2h2.5
		c0.827,0,1.5-0.673,1.5-1.5v-3c0-0.827-0.673-1.5-1.5-1.5h-10c-0.827,0-1.5,0.673-1.5,1.5v3c0,0.827,0.673,1.5,1.5,1.5H14
		c0.156,0,0.306-0.075,0.4-0.2l0.9-1.2c0.085-0.114,0.186-0.214,0.3-0.3C15.862,8.601,16.172,8.497,16.497,8.497z M20.737,3.497
		c-0.721-0.877-1.702-1.513-2.804-1.811c-0.474-0.128-0.96-0.193-1.445-0.193c-0.951,0-1.895,0.253-2.73,0.733
		c-0.569,0.327-1.081,0.761-1.502,1.271H20.737z"/>
	<path d="M13.5,6.497c-0.276,0-0.5-0.224-0.5-0.5s0.224-0.5,0.5-0.5h6c0.276,0,0.5,0.224,0.5,0.5s-0.224,0.5-0.5,0.5H13.5z"/>
	<path d="M16.5,14.497c-1.429,0-2.839-0.481-3.969-1.354c-0.105-0.081-0.173-0.199-0.19-0.331c-0.017-0.133,0.019-0.264,0.1-0.37
		c0.094-0.123,0.239-0.195,0.396-0.195c0.11,0,0.219,0.037,0.306,0.105c0.956,0.738,2.148,1.145,3.357,1.145
		s2.401-0.407,3.357-1.145c0.087-0.067,0.196-0.104,0.306-0.104c0.156,0,0.301,0.071,0.396,0.195c0.081,0.106,0.117,0.237,0.1,0.37
		c-0.017,0.132-0.085,0.25-0.19,0.332C19.339,14.016,17.929,14.497,16.5,14.497z"/>
</g>
</svg>
