<?xml version="1.0" encoding="utf-8"?>
<!-- Generator: Adobe Illustrator 22.1.0, SVG Export Plug-In . SVG Version: 6.00 Build 0)  -->
<svg version="1.1" id="Layer_1" xmlns="http://www.w3.org/2000/svg" xmlns:xlink="http://www.w3.org/1999/xlink" x="0px" y="0px"
	 viewBox="0 0 24 24" style="enable-background:new 0 0 24 24;" xml:space="preserve">
<g>
	<title>vr-user-laptop</title>
	<path d="M16.513,14.009c-0.573,0-1.148-0.077-1.707-0.228c-1.589-0.429-2.938-1.433-3.81-2.83C9.85,10.713,9,9.682,9,8.504v-3
		c0-1.193,0.829-2.203,1.987-2.444c0.567-0.908,1.351-1.665,2.273-2.194c0.982-0.564,2.097-0.862,3.225-0.862
		c2.238,0,4.343,1.168,5.523,3.055C23.169,3.298,24,4.308,24,5.504v3c0,1.193-0.829,2.203-1.987,2.444
		c-0.567,0.908-1.351,1.665-2.273,2.194C18.753,13.709,17.637,14.009,16.513,14.009z M12.263,11.004
		c0.721,0.877,1.701,1.513,2.804,1.811c0.474,0.128,0.96,0.194,1.445,0.194c0.951,0,1.895-0.254,2.73-0.733
		c0.569-0.327,1.081-0.761,1.502-1.271H19c-0.47,0-0.918-0.224-1.2-0.6l-0.9-1.2c-0.08-0.107-0.197-0.176-0.329-0.195
		c-0.024-0.003-0.048-0.005-0.072-0.005c-0.108,0-0.211,0.035-0.299,0.1c-0.038,0.028-0.072,0.062-0.1,0.1l-0.9,1.2
		c-0.281,0.376-0.73,0.6-1.2,0.6H12.263z M16.497,8.004c0.071,0,0.143,0.005,0.215,0.015c0.397,0.057,0.748,0.265,0.988,0.585
		l0.9,1.2c0.094,0.125,0.244,0.2,0.4,0.2h2.5c0.827,0,1.5-0.673,1.5-1.5v-3c0-0.827-0.673-1.5-1.5-1.5h-10
		c-0.827,0-1.5,0.673-1.5,1.5v3c0,0.827,0.673,1.5,1.5,1.5H14c0.156,0,0.306-0.075,0.4-0.2l0.9-1.2c0.085-0.113,0.186-0.214,0.3-0.3
		C15.862,8.108,16.172,8.004,16.497,8.004z M20.739,3.004c-1.039-1.261-2.595-2-4.254-2c-0.954,0-1.897,0.252-2.728,0.729
		c-0.569,0.327-1.081,0.761-1.502,1.271H20.739z"/>
	<path d="M13.5,6.004c-0.276,0-0.5-0.224-0.5-0.5s0.224-0.5,0.5-0.5h6c0.276,0,0.5,0.224,0.5,0.5s-0.224,0.5-0.5,0.5H13.5z"/>
	<path d="M2.409,24.004C1.051,23.975-0.029,22.849,0,21.493c0.006-0.27,0.23-0.489,0.5-0.489H1v-4.5c0-0.827,0.673-1.5,1.5-1.5h7
		c0.827,0,1.5,0.673,1.5,1.5v4.5h0.5c0.27,0,0.494,0.219,0.5,0.489C12,21.528,12,21.563,12,21.597
		c-0.014,0.657-0.283,1.269-0.757,1.723c-0.46,0.441-1.064,0.684-1.7,0.684L2.409,24.004z M1.073,22.004
		c0.191,0.574,0.731,0.987,1.354,1l7.107,0c0.383,0,0.744-0.144,1.017-0.406c0.176-0.168,0.303-0.371,0.376-0.595H1.073z M10,21.004
		v-4.5c0-0.276-0.224-0.5-0.5-0.5h-7c-0.276,0-0.5,0.224-0.5,0.5v4.5H10z"/>
	<path d="M3.5,14.004c-0.276,0-0.5-0.224-0.5-0.5v-1c0-0.827,0.673-1.5,1.5-1.5c0.276,0,0.5-0.224,0.5-0.5s-0.224-0.5-0.5-0.5h-3
		c-0.827,0-1.5-0.673-1.5-1.5s0.673-1.5,1.5-1.5h6c0.276,0,0.5,0.224,0.5,0.5s-0.224,0.5-0.5,0.5h-6c-0.276,0-0.5,0.224-0.5,0.5
		s0.224,0.5,0.5,0.5h3c0.827,0,1.5,0.673,1.5,1.5s-0.673,1.5-1.5,1.5c-0.276,0-0.5,0.224-0.5,0.5v1C4,13.78,3.776,14.004,3.5,14.004
		z"/>
</g>
</svg>
