<?xml version="1.0" encoding="utf-8"?>
<!-- Generator: Adobe Illustrator 22.1.0, SVG Export Plug-In . SVG Version: 6.00 Build 0)  -->
<svg version="1.1" id="Layer_1" xmlns="http://www.w3.org/2000/svg" xmlns:xlink="http://www.w3.org/1999/xlink" x="0px" y="0px"
	 viewBox="0 0 24 24" style="enable-background:new 0 0 24 24;" xml:space="preserve">
<g>
	<title>vr-user-headphones</title>
	<path d="M21.5,17.999c-0.276,0-0.5-0.224-0.5-0.5v-5.5c0-4.963-4.037-9-9-9s-9,4.037-9,9v5.5c0,0.276-0.224,0.5-0.5,0.5h-1
		c-0.827,0-1.5-0.673-1.5-1.5v-3c0-0.827,0.673-1.5,1.5-1.5H2c0-5.514,4.486-10,10-10c5.514,0,10,4.486,10,10h0.5
		c0.827,0,1.5,0.673,1.5,1.5v3c0,0.827-0.673,1.5-1.5,1.5H21.5z M22.5,16.999c0.276,0,0.5-0.224,0.5-0.5v-3
		c0-0.276-0.224-0.5-0.5-0.5H22v4H22.5z M1.5,12.999c-0.276,0-0.5,0.224-0.5,0.5v3c0,0.276,0.224,0.5,0.5,0.5H2v-4H1.5z"/>
	<path d="M14.5,18.999c-0.469,0-0.918-0.224-1.2-0.6l-0.9-1.201C12.305,17.072,12.159,17,11.999,17c-0.109,0-0.212,0.034-0.299,0.1
		c-0.038,0.028-0.072,0.062-0.1,0.1L10.7,18.399c-0.282,0.376-0.731,0.6-1.2,0.6h-3c-1.379,0-2.5-1.122-2.5-2.5v-3
		c0-1.379,1.121-2.5,2.5-2.5h0.022c0.564-0.883,1.335-1.62,2.237-2.138c0.987-0.567,2.103-0.866,3.228-0.866
		c0.573,0,1.147,0.077,1.706,0.228c1.566,0.424,2.902,1.407,3.775,2.777H17.5c1.378,0,2.5,1.121,2.5,2.5v3
		c0,1.378-1.122,2.5-2.5,2.5H14.5z M11.999,16c0.478,0,0.916,0.219,1.201,0.6l0.9,1.2c0.094,0.125,0.244,0.2,0.4,0.2h3
		c0.827,0,1.5-0.673,1.5-1.5v-3c0-0.827-0.673-1.5-1.5-1.5h-0.221c-0.03,0.005-0.06,0.008-0.089,0.008s-0.058-0.003-0.086-0.008
		H6.891c-0.033,0.007-0.065,0.01-0.097,0.01s-0.064-0.003-0.097-0.01H6.5c-0.827,0-1.5,0.673-1.5,1.5v3c0,0.827,0.673,1.5,1.5,1.5h3
		c0.157,0,0.306-0.075,0.4-0.2l0.9-1.2c0.086-0.114,0.187-0.215,0.3-0.3C11.361,16.103,11.672,16,11.999,16z M16.237,10.999
		c-0.721-0.877-1.701-1.513-2.804-1.811c-0.474-0.128-0.96-0.193-1.445-0.193c-0.951,0-1.895,0.254-2.73,0.733
		c-0.569,0.327-1.081,0.761-1.502,1.271H16.237z"/>
	<path d="M9,13.999c-0.276,0-0.5-0.224-0.5-0.5s0.224-0.5,0.5-0.5h6c0.276,0,0.5,0.224,0.5,0.5s-0.224,0.5-0.5,0.5H9z"/>
	<path d="M12,21.999c-1.429,0-2.839-0.481-3.969-1.354c-0.106-0.081-0.173-0.199-0.19-0.332c-0.017-0.132,0.019-0.263,0.1-0.369
		c0.096-0.124,0.24-0.194,0.396-0.194c0.11,0,0.219,0.037,0.305,0.104c0.956,0.738,2.148,1.145,3.357,1.145s2.401-0.407,3.357-1.145
		c0.087-0.067,0.195-0.104,0.305-0.104c0.156,0,0.301,0.071,0.396,0.195c0.082,0.106,0.117,0.237,0.1,0.37
		c-0.017,0.132-0.085,0.25-0.19,0.332C14.838,21.518,13.429,21.999,12,21.999z"/>
</g>
</svg>
