<?xml version="1.0" encoding="utf-8"?>
<!-- Generator: Adobe Illustrator 22.1.0, SVG Export Plug-In . SVG Version: 6.00 Build 0)  -->
<svg version="1.1" id="Layer_1" xmlns="http://www.w3.org/2000/svg" xmlns:xlink="http://www.w3.org/1999/xlink" x="0px" y="0px"
	 viewBox="0 0 24 24" style="enable-background:new 0 0 24 24;" xml:space="preserve">
<g>
	<title>landmark-bridge</title>
	<path d="M1,24c-0.551,0-1-0.448-1-1v-9.5C0,13.224,0.224,13,0.5,13S1,13.224,1,13.5V14h2v-0.5C3,13.224,3.224,13,3.5,13
		S4,13.224,4,13.5V16h2v-0.5C6,15.224,6.224,15,6.5,15S7,15.224,7,15.5V16h1v-4c0-0.551,0.449-1,1-1V4.5C9,4.224,9.224,4,9.5,4
		S10,4.224,10,4.5v0.793l1.646-1.646C11.741,3.552,11.866,3.5,12,3.5s0.259,0.052,0.354,0.146L14,5.293V4.5
		C14,4.224,14.224,4,14.5,4S15,4.224,15,4.5V11c0.552,0,1,0.449,1,1v4h1v-0.5c0-0.276,0.224-0.5,0.5-0.5s0.5,0.224,0.5,0.5V16h2
		v-2.5c0-0.276,0.224-0.5,0.5-0.5s0.5,0.224,0.5,0.5V14h2v-0.5c0-0.276,0.224-0.5,0.5-0.5s0.5,0.224,0.5,0.5V23c0,0.552-0.448,1-1,1
		H1z M23,23v-8h-2v8H23z M20,23v-6h-4v6H20z M15,23v-6H9v6h1v-3c0-1.103,0.897-2,2-2s2,0.897,2,2v3H15z M13,23v-3
		c0-0.552-0.448-1-1-1c-0.551,0-1,0.448-1,1v3H13z M8,23v-6H4v6H8z M1,23h2v-8H1V23z M15,16v-4h-1v0.5c0,0.276-0.224,0.5-0.5,0.5h-3
		c-0.276,0-0.5-0.224-0.5-0.5V12H9v4h1.293l1-1c0.188-0.189,0.439-0.293,0.707-0.293c0.267,0,0.518,0.104,0.706,0.292L13.707,16H15z
		 M13,12c0-0.551,0.448-1,1-1V6.707l-2-2l-2,2V11c0.551,0,1,0.449,1,1H13z"/>
	<circle cx="12" cy="7.75" r="0.75"/>
	<path d="M13,3c-0.134,0-0.259-0.052-0.354-0.146L12,2.207l-0.646,0.646C11.259,2.948,11.134,3,11,3s-0.259-0.052-0.354-0.146
		S10.5,2.634,10.5,2.5s0.052-0.259,0.146-0.354L11.293,1.5l-0.646-0.646C10.552,0.759,10.5,0.634,10.5,0.5s0.052-0.259,0.146-0.354
		S10.866,0,11,0s0.259,0.052,0.354,0.146L12,0.793l0.646-0.646C12.741,0.052,12.866,0,13,0s0.259,0.052,0.354,0.146
		S13.5,0.366,13.5,0.5s-0.052,0.259-0.146,0.354L12.707,1.5l0.646,0.646C13.448,2.241,13.5,2.366,13.5,2.5s-0.052,0.259-0.146,0.354
		S13.134,3,13,3z"/>
</g>
</svg>
