<?xml version="1.0" encoding="utf-8"?>
<!-- Generator: Adobe Illustrator 22.1.0, SVG Export Plug-In . SVG Version: 6.00 Build 0)  -->
<svg version="1.1" id="Layer_1" xmlns="http://www.w3.org/2000/svg" xmlns:xlink="http://www.w3.org/1999/xlink" x="0px" y="0px"
	 viewBox="0 0 24 24" style="enable-background:new 0 0 24 24;" xml:space="preserve">
<g>
	<title>landmark-colosseum-1</title>
	<path d="M1,21.5c-0.551,0-1-0.448-1-1v-17c0-0.551,0.449-1,1-1h7.15c0.419,0,0.797,0.264,0.94,0.658l3.82,10.505
		C12.97,13.828,13,14,13,14.176V20.5c0,0.552-0.448,1-1,1H1z M12,20.5v-6H1v6h1v-2c0-1.103,0.897-2,2-2s2,0.897,2,2v2h1v-2
		c0-1.103,0.897-2,2-2s2,0.897,2,2v2H12z M10,20.5v-2c0-0.552-0.449-1-1-1s-1,0.448-1,1v2H10z M5,20.5v-2c0-0.552-0.449-1-1-1
		s-1,0.448-1,1v2H5z M11.786,13.5l-1.818-5H1v5h1v-2c0-1.103,0.897-2,2-2s2,0.897,2,2v2h1v-2c0-1.103,0.897-2,2-2
		c0.276,0,0.5,0.224,0.5,0.5S9.276,10.5,9,10.5c-0.551,0-1,0.449-1,1v2H11.786z M5,13.5v-2c0-0.551-0.449-1-1-1s-1,0.449-1,1v2H5z
		 M9.605,7.5l-1.455-4L1,3.5l0,4H9.605z"/>
	<path d="M14.5,14.5c-0.276,0-0.5-0.224-0.5-0.5s0.224-0.5,0.5-0.5H16v-2c0-0.551-0.448-1-1-1s-1,0.449-1,1
		c0,0.276-0.224,0.5-0.5,0.5S13,11.776,13,11.5c0-1.103,0.897-2,2-2s2,0.897,2,2V14c0,0.276-0.224,0.5-0.5,0.5H14.5z"/>
	<path d="M18.5,14.5c-0.276,0-0.5-0.224-0.5-0.5v-2.5c0-1.103,0.897-2,2-2s2,0.897,2,2V14c0,0.276-0.224,0.5-0.5,0.5H18.5z M21,13.5
		v-2c0-0.551-0.448-1-1-1s-1,0.449-1,1v2H21z"/>
	<path d="M14.5,21.5c-0.276,0-0.5-0.224-0.5-0.5s0.224-0.5,0.5-0.5H16v-2c0-0.552-0.448-1-1-1c-0.276,0-0.5-0.224-0.5-0.5
		s0.224-0.5,0.5-0.5c1.103,0,2,0.897,2,2v2h1v-2c0-1.103,0.897-2,2-2s2,0.897,2,2v2h1v-12H12.5C12.224,8.5,12,8.276,12,8
		s0.224-0.5,0.5-0.5H23c0.552,0,1,0.449,1,1v12c0,0.552-0.448,1-1,1H14.5z M21,20.5v-2c0-0.552-0.448-1-1-1s-1,0.448-1,1v2H21z"/>
	<path d="M2.5,6C2.224,6,2,5.776,2,5.5V5c0-0.276,0.224-0.5,0.5-0.5S3,4.724,3,5v0.5C3,5.776,2.776,6,2.5,6z"/>
	<path d="M4.5,6C4.224,6,4,5.776,4,5.5V5c0-0.276,0.224-0.5,0.5-0.5S5,4.724,5,5v0.5C5,5.776,4.776,6,4.5,6z"/>
	<path d="M6.5,6C6.224,6,6,5.776,6,5.5V5c0-0.276,0.224-0.5,0.5-0.5S7,4.724,7,5v0.5C7,5.776,6.776,6,6.5,6z"/>
</g>
</svg>
