<?xml version="1.0" encoding="utf-8"?>
<!-- Generator: Adobe Illustrator 22.1.0, SVG Export Plug-In . SVG Version: 6.00 Build 0)  -->
<svg version="1.1" id="Layer_1" xmlns="http://www.w3.org/2000/svg" xmlns:xlink="http://www.w3.org/1999/xlink" x="0px" y="0px"
	 viewBox="0 0 24 24" style="enable-background:new 0 0 24 24;" xml:space="preserve">
<g>
	<title>landmark-london-eye-1</title>
	<path d="M23,24c-0.207,0-0.39-0.125-0.466-0.318l-1.939-4.937c-0.28,0.137-0.582,0.221-0.892,0.246l0.789,4.42
		c0.023,0.132-0.006,0.264-0.082,0.374c-0.076,0.11-0.191,0.183-0.323,0.206C20.058,23.998,20.029,24,20,24
		c-0.242,0-0.449-0.173-0.492-0.412l-0.846-4.735c-0.466-0.166-0.871-0.467-1.167-0.866l-3.048,1.422l0.549,4.023
		c0.037,0.273-0.155,0.525-0.428,0.563C14.543,23.999,14.521,24,14.5,24c-0.249,0-0.462-0.186-0.495-0.433l-1.315-9.638
		C12.46,13.976,12.229,14,12,14c-0.23,0-0.461-0.024-0.69-0.071l-1.315,9.638C9.962,23.814,9.749,24,9.5,24
		c-0.022,0-0.044-0.001-0.066-0.004c-0.276-0.038-0.467-0.291-0.43-0.563l0.549-4.023l-3.048-1.422
		c-0.296,0.399-0.701,0.7-1.168,0.866l-0.846,4.734C4.45,23.827,4.243,24,4,24c-0.029,0-0.059-0.002-0.089-0.008
		c-0.131-0.023-0.246-0.097-0.322-0.206c-0.076-0.11-0.105-0.242-0.082-0.374l0.789-4.42c-0.31-0.025-0.613-0.109-0.892-0.246
		l-1.94,4.937C1.39,23.875,1.207,24,1,24c-0.062,0-0.124-0.011-0.182-0.034c-0.125-0.049-0.223-0.143-0.276-0.266
		c-0.053-0.122-0.056-0.258-0.007-0.383l2.049-5.216C2.206,17.651,2,17.088,2,16.5c0-1.101,0.732-2.073,1.77-2.391L3.378,9.998
		C1.78,9.933,0.5,8.613,0.5,7c0-1.654,1.346-3,3-3c0.691,0,1.358,0.24,1.894,0.679L9.546,2.97C9.515,2.813,9.5,2.656,9.5,2.5
		C9.5,1.121,10.621,0,12,0c1.378,0,2.5,1.121,2.5,2.5c0,0.156-0.015,0.314-0.046,0.47l4.151,1.709C19.142,4.24,19.808,4,20.5,4
		c1.654,0,3,1.346,3,3c0,1.613-1.28,2.933-2.878,2.998l-0.392,4.112C21.268,14.427,22,15.398,22,16.5
		c0,0.588-0.206,1.151-0.584,1.601l2.049,5.216c0.049,0.124,0.046,0.26-0.007,0.383c-0.053,0.122-0.151,0.217-0.276,0.265
		C23.124,23.988,23.063,24,23,24z M14.305,18.372l2.765-1.29C17.023,16.89,17,16.695,17,16.5c0-0.396,0.095-0.786,0.277-1.138
		l-2.888-2.31c-0.222,0.208-0.469,0.385-0.737,0.53L14.305,18.372z M9.695,18.372l0.653-4.791c-0.268-0.144-0.515-0.322-0.737-0.53
		l-2.888,2.311C6.905,15.714,7,16.104,7,16.5c0,0.195-0.023,0.39-0.07,0.582L9.695,18.372z M18.156,17.162
		C18.404,17.669,18.931,18,19.5,18c0.329,0,0.65-0.11,0.911-0.31c0.047-0.071,0.111-0.129,0.185-0.168
		C20.857,17.243,21,16.882,21,16.5c0-0.757-0.561-1.392-1.309-1.487c-0.001,0-0.001,0-0.002,0c-0.018,0-0.036-0.001-0.054-0.003
		c-0.008-0.001-0.018-0.003-0.027-0.005C19.574,15.002,19.537,15,19.5,15c-0.451,0-0.873,0.201-1.16,0.552
		c-0.006,0.008-0.011,0.015-0.018,0.022C18.111,15.842,18,16.161,18,16.5c0,0.208,0.043,0.411,0.129,0.604
		c0.007,0.011,0.013,0.023,0.018,0.033C18.15,17.145,18.154,17.153,18.156,17.162z M3.589,17.69C3.852,17.893,4.167,18,4.5,18
		c0.563,0,1.087-0.326,1.34-0.832c0.004-0.014,0.009-0.028,0.015-0.039c0.008-0.017,0.017-0.031,0.026-0.043
		C5.956,16.913,6,16.709,6,16.5c0-0.339-0.111-0.659-0.323-0.926c-0.004-0.005-0.02-0.026-0.023-0.031C5.38,15.204,4.955,15,4.5,15
		c-0.027,0-0.055,0.002-0.082,0.004c-0.012,0.004-0.034,0.01-0.059,0.012c-0.008,0.001-0.041,0.002-0.049,0.002
		c-0.01,0-0.018,0-0.027-0.001C3.55,15.123,3,15.755,3,16.5c0,0.383,0.144,0.744,0.405,1.023C3.481,17.564,3.543,17.62,3.589,17.69z
		 M4.765,14.016C5.258,14.067,5.72,14.263,6.1,14.58l2.884-2.308C8.666,11.736,8.5,11.128,8.5,10.5c0-0.278,0.033-0.554,0.098-0.822
		L6.009,8.642C5.622,9.23,5.042,9.665,4.37,9.869L4.765,14.016z M17.9,14.58c0.38-0.317,0.842-0.512,1.334-0.564l0.395-4.146
		c-0.671-0.204-1.252-0.639-1.638-1.227l-2.589,1.036C15.467,9.946,15.5,10.222,15.5,10.5c0,0.628-0.167,1.236-0.484,1.773
		L17.9,14.58z M10.1,12.122C10.577,12.68,11.268,13,12,13c0.731,0,1.421-0.319,1.898-0.876c0.01-0.021,0.023-0.045,0.043-0.07
		c0.019-0.023,0.038-0.04,0.052-0.052c0.331-0.438,0.506-0.957,0.506-1.502c0-0.311-0.059-0.618-0.175-0.912
		c-0.004-0.007-0.007-0.015-0.01-0.022c-0.002-0.006-0.004-0.011-0.006-0.017C13.93,8.613,13.021,8,12,8c-1.379,0-2.5,1.121-2.5,2.5
		c0,0.546,0.175,1.066,0.508,1.504c0.013,0.01,0.032,0.027,0.051,0.051C10.078,12.079,10.091,12.103,10.1,12.122z M18.95,8.258
		C19.328,8.722,19.898,9,20.5,9c1.103,0,2-0.897,2-2s-0.897-2-2-2c-0.535,0-1.038,0.21-1.417,0.591
		c-0.001,0.001-0.002,0.002-0.003,0.003C18.704,5.977,18.5,6.474,18.5,7c0,0.117,0.01,0.234,0.031,0.349l0.783-0.313
		C19.373,7.012,19.435,7,19.499,7c0.206,0,0.388,0.123,0.465,0.314c0.102,0.256-0.023,0.548-0.279,0.65L18.95,8.258z M3.5,5
		c-1.103,0-2,0.897-2,2s0.897,2,2,2c0.07,0,0.139-0.005,0.207-0.012C3.723,8.982,3.75,8.974,3.783,8.971
		C3.791,8.97,3.801,8.97,3.809,8.97c0.005,0,0.01,0,0.016,0.001c0.485-0.08,0.918-0.333,1.225-0.712L4.314,7.964
		C4.058,7.862,3.933,7.57,4.036,7.314C4.112,7.123,4.294,7,4.5,7c0.064,0,0.126,0.012,0.186,0.036l0.783,0.313
		C5.49,7.234,5.5,7.117,5.5,7c0-0.523-0.203-1.019-0.571-1.396C4.926,5.601,4.921,5.595,4.916,5.589C4.537,5.209,4.034,5,3.5,5z
		 M12.5,7.039c1.053,0.153,1.99,0.788,2.527,1.712l2.564-1.026C17.53,7.486,17.5,7.243,17.5,7c0-0.54,0.144-1.06,0.419-1.522
		l-3.846-1.583C13.706,4.439,13.14,4.818,12.5,4.949V7.039z M8.973,8.751C9.51,7.827,10.447,7.192,11.5,7.039v-2.09
		c-0.64-0.131-1.207-0.51-1.573-1.054L6.081,5.478C6.356,5.939,6.5,6.46,6.5,7c0,0.243-0.03,0.486-0.091,0.725L8.973,8.751z
		 M10.621,3.09C10.855,3.641,11.396,4,12,4c0.827,0,1.5-0.673,1.5-1.5S12.827,1,12,1s-1.5,0.673-1.5,1.5
		c0,0.191,0.036,0.378,0.108,0.555C10.609,3.058,10.619,3.081,10.621,3.09z"/>
</g>
</svg>
