<?xml version="1.0" encoding="utf-8"?>
<!-- Generator: Adobe Illustrator 22.1.0, SVG Export Plug-In . SVG Version: 6.00 Build 0)  -->
<svg version="1.1" id="Layer_1" xmlns="http://www.w3.org/2000/svg" xmlns:xlink="http://www.w3.org/1999/xlink" x="0px" y="0px"
	 viewBox="0 0 24 24" style="enable-background:new 0 0 24 24;" xml:space="preserve">
<g>
	<title>landmark-louvre</title>
	<path d="M3.5,24c-0.203,0-0.384-0.121-0.462-0.309c-0.078-0.188-0.035-0.401,0.108-0.545L11.292,15
		c0.188-0.189,0.439-0.293,0.707-0.293c0.267,0,0.518,0.104,0.706,0.292l8.147,8.147c0.144,0.144,0.186,0.358,0.108,0.545
		C20.885,23.879,20.703,24,20.5,24H3.5z M19.293,23L18,21.707L16.707,23H19.293z M15.293,23l2-2L15,18.707L12.707,21l2,2H15.293z
		 M13.293,23L12,21.707L10.707,23H13.293z M9.293,23l2-2L9,18.707L6.707,21l2,2H9.293z M7.293,23L6,21.707L4.707,23H7.293z
		 M12,20.293L14.293,18L12,15.708L12,15.457l0,0.25c0,0-2.292,2.293-2.292,2.293L12,20.293z"/>
	<path d="M23.5,24c-0.276,0-0.5-0.224-0.5-0.5V12h-6v4.8c0,0.276-0.224,0.5-0.5,0.5S16,17.076,16,16.8V5.86l-4-1.333L8,5.86V16.8
		c0,0.276-0.224,0.5-0.5,0.5S7,17.076,7,16.8V12H1v11.5C1,23.776,0.776,24,0.5,24S0,23.776,0,23.5V9.514C0,8.679,0.679,8,1.514,8H7
		V1c0-0.276,0.224-0.5,0.5-0.5S8,0.724,8,1v0.69c0.8-0.99,1.993-1.618,3.272-1.689L12.7,0c1.319,0.073,2.5,0.69,3.3,1.69V1
		c0-0.276,0.224-0.5,0.5-0.5S17,0.724,17,1l0,3.622C17.001,4.664,17.001,4.705,17,4.748L17,8h5.486C23.321,8,24,8.679,24,9.514V23.5
		C24,23.776,23.776,24,23.5,24z M23,11V9.514C23,9.231,22.77,9,22.486,9H17v2H23z M7,11V9H1.514C1.231,9,1,9.231,1,9.514V11H7z
		 M12,3.527c0.109,0,0.217,0.018,0.32,0.053L16,4.806V4.723c0.096-1.951-1.396-3.616-3.328-3.724L11.3,1
		C9.518,1.099,8.093,2.535,8,4.338l0,0.468l3.684-1.228C11.784,3.545,11.891,3.527,12,3.527z"/>
	<path d="M10,12.5c-0.276,0-0.5-0.224-0.5-0.5V9c0-1.379,1.121-2.5,2.5-2.5c1.378,0,2.5,1.121,2.5,2.5v3c0,0.276-0.224,0.5-0.5,0.5
		H10z M13.5,11.5V9c0-0.827-0.673-1.5-1.5-1.5S10.5,8.173,10.5,9v2.5H13.5z"/>
	<path d="M2.5,18.5C2.224,18.5,2,18.276,2,18v-2.5c0-1.103,0.897-2,2-2s2,0.897,2,2V18c0,0.276-0.224,0.5-0.5,0.5H2.5z M5,17.5v-2
		c0-0.552-0.449-1-1-1s-1,0.448-1,1v2H5z"/>
	<path d="M18.5,18.5c-0.276,0-0.5-0.224-0.5-0.5v-2.5c0-1.103,0.897-2,2-2s2,0.897,2,2V18c0,0.276-0.224,0.5-0.5,0.5H18.5z M21,17.5
		v-2c0-0.552-0.448-1-1-1s-1,0.448-1,1v2H21z"/>
</g>
</svg>
