<?xml version="1.0" encoding="utf-8"?>
<!-- Generator: Adobe Illustrator 22.1.0, SVG Export Plug-In . SVG Version: 6.00 Build 0)  -->
<svg version="1.1" id="Layer_1" xmlns="http://www.w3.org/2000/svg" xmlns:xlink="http://www.w3.org/1999/xlink" x="0px" y="0px"
	 viewBox="0 0 24 24" style="enable-background:new 0 0 24 24;" xml:space="preserve">
<g>
	<title>landmark-tower</title>
	<path d="M0.5,23.549c-0.276,0-0.5-0.224-0.5-0.5s0.224-0.5,0.5-0.5h4.549L6.989,3.622C7.007,3.459,7.063,3.303,7.152,3.17
		l1.516-2.274c0.073-0.11,0.167-0.203,0.277-0.277C9.11,0.508,9.301,0.45,9.498,0.45c0.066,0,0.132,0.007,0.198,0.02
		c0.262,0.052,0.488,0.203,0.636,0.426l1.515,2.273c0.089,0.135,0.145,0.29,0.163,0.449l1.941,18.931H18.5
		c0.276,0,0.5,0.224,0.5,0.5s-0.224,0.5-0.5,0.5H0.5z M12.946,22.549l-1.93-18.825L9.5,1.45L7.985,3.723L6.054,22.549H12.946z"/>
	<path d="M17.5,7.549c-0.517,0-0.999-0.189-1.369-0.533c-0.392-0.363-0.619-0.857-0.639-1.391c-0.021-0.534,0.168-1.043,0.532-1.435
		c0.377-0.406,0.912-0.64,1.468-0.64c0.222,0,0.442,0.037,0.651,0.109c0.383-1.239,1.543-2.109,2.866-2.109
		c0.812,0.003,1.564,0.317,2.129,0.885c0.565,0.568,0.875,1.323,0.872,2.124c-0.003,0.801-0.317,1.554-0.885,2.118
		c-0.566,0.562-1.317,0.872-2.114,0.872H17.5z M17.491,4.55c-0.278,0-0.546,0.116-0.734,0.319c-0.182,0.196-0.276,0.451-0.266,0.718
		c0.01,0.267,0.124,0.514,0.32,0.695c0.186,0.172,0.428,0.267,0.684,0.267c0,0,3.509,0,3.509,0c0.537,0,1.037-0.206,1.414-0.581
		c0.379-0.376,0.589-0.878,0.59-1.412c0.002-0.534-0.205-1.037-0.581-1.416c-0.377-0.379-0.878-0.589-1.412-0.59
		c-1.084,0-1.962,0.843-2.005,1.92c-0.008,0.194-0.129,0.368-0.309,0.442c-0.061,0.025-0.125,0.038-0.191,0.038
		c-0.127,0-0.248-0.047-0.34-0.133C17.985,4.644,17.744,4.55,17.491,4.55z"/>
</g>
</svg>
