<?xml version="1.0" encoding="utf-8"?>
<!-- Generator: Adobe Illustrator 22.1.0, SVG Export Plug-In . SVG Version: 6.00 Build 0)  -->
<svg version="1.1" id="Layer_1" xmlns="http://www.w3.org/2000/svg" xmlns:xlink="http://www.w3.org/1999/xlink" x="0px" y="0px"
	 viewBox="0 0 24 24" style="enable-background:new 0 0 24 24;" xml:space="preserve">
<g>
	<title>shape-pyramid</title>
	<path d="M2.924,23.73c-0.245,0-0.477-0.079-0.672-0.229c-0.064-0.049-0.123-0.108-0.182-0.18c-0.027-0.028-0.052-0.059-0.071-0.093
		c-0.005-0.009-0.011-0.02-0.016-0.031c-0.079-0.122-0.134-0.273-0.155-0.43c-0.031-0.235,0.015-0.477,0.13-0.684l9.189-21.129
		c0.241-0.549,0.6-0.659,0.806-0.673c0.018-0.003,0.037-0.005,0.052-0.005c0.022,0,0.041,0.003,0.057,0.006
		c0.194,0.012,0.556,0.12,0.8,0.669l9.185,21.132c0.137,0.246,0.176,0.531,0.108,0.806c-0.071,0.288-0.25,0.53-0.503,0.683
		c-0.172,0.104-0.371,0.159-0.573,0.159l0,0c-0.035,0-0.071-0.002-0.106-0.005H3.034C2.997,23.729,2.961,23.73,2.924,23.73z
		 M20.19,22.725l-8.194-4.917L3.81,22.725H20.19z M20.92,21.997L12.504,2.635l-0.009,14.307L20.92,21.997z M3.088,21.992l8.408-5.05
		L11.504,2.64L3.088,21.992z"/>
</g>
</svg>
