<?xml version="1.0" encoding="utf-8"?>
<!-- Generator: Adobe Illustrator 22.1.0, SVG Export Plug-In . SVG Version: 6.00 Build 0)  -->
<svg version="1.1" id="Layer_1" xmlns="http://www.w3.org/2000/svg" xmlns:xlink="http://www.w3.org/1999/xlink" x="0px" y="0px"
	 viewBox="0 0 24 24" style="enable-background:new 0 0 24 24;" xml:space="preserve">
<g>
	<title>shape-cylinder</title>
	<path d="M12,24c-5.131,0-9-1.505-9-3.5v-17C3,1.505,6.869,0,12,0s9,1.505,9,3.5v17C21,22.495,17.131,24,12,24z M12,18
		c-2.258,0-4.35,0.306-5.891,0.862C4.808,19.332,4,19.959,4,20.5c0,1.044,3.043,2.5,8,2.5c2.258,0,4.35-0.306,5.891-0.862
		C19.192,21.668,20,21.041,20,20.5C20,19.456,16.957,18,12,18z M12,17c3.47,0,6.504,0.711,8,1.842V5.158C18.504,6.289,15.471,7,12,7
		C8.529,7,5.496,6.289,4,5.158v13.684C5.496,17.711,8.529,17,12,17z M12,1C9.742,1,7.65,1.306,6.109,1.862
		C4.808,2.332,4,2.959,4,3.5C4,4.544,7.043,6,12,6c2.258,0,4.35-0.306,5.891-0.862C19.192,4.668,20,4.041,20,3.5
		C20,2.456,16.957,1,12,1z"/>
</g>
</svg>
