<?xml version="1.0" encoding="utf-8"?>
<!-- Generator: Adobe Illustrator 22.1.0, SVG Export Plug-In . SVG Version: 6.00 Build 0)  -->
<svg version="1.1" id="Layer_1" xmlns="http://www.w3.org/2000/svg" xmlns:xlink="http://www.w3.org/1999/xlink" x="0px" y="0px"
	 viewBox="0 0 24 24" style="enable-background:new 0 0 24 24;" xml:space="preserve">
<g>
	<title>shape-square-add</title>
	<path d="M1.5,20C0.673,20,0,19.327,0,18.5v-17C0,0.673,0.673,0,1.5,0h17C19.327,0,20,0.673,20,1.5v11c0,0.276-0.224,0.5-0.5,0.5
		S19,12.776,19,12.5v-11C19,1.224,18.776,1,18.5,1h-17C1.224,1,1,1.224,1,1.5v17C1,18.776,1.224,19,1.5,19h11
		c0.276,0,0.5,0.224,0.5,0.5S12.776,20,12.5,20H1.5z"/>
	<path d="M19.5,24c-0.276,0-0.5-0.224-0.5-0.5V20h-3.5c-0.276,0-0.5-0.224-0.5-0.5s0.224-0.5,0.5-0.5H19v-3.5
		c0-0.276,0.224-0.5,0.5-0.5s0.5,0.224,0.5,0.5V19h3.5c0.276,0,0.5,0.224,0.5,0.5S23.776,20,23.5,20H20v3.5
		C20,23.776,19.776,24,19.5,24z"/>
</g>
</svg>
