<?xml version="1.0" encoding="utf-8"?>
<!-- Generator: Adobe Illustrator 22.1.0, SVG Export Plug-In . SVG Version: 6.00 Build 0)  -->
<svg version="1.1" id="Layer_1" xmlns="http://www.w3.org/2000/svg" xmlns:xlink="http://www.w3.org/1999/xlink" x="0px" y="0px"
	 viewBox="0 0 24 24" style="enable-background:new 0 0 24 24;" xml:space="preserve">
<g>
	<title>shape-triangle-circle</title>
	<path d="M16.309,22.745c-3.86,0-7-3.14-7-7c0-0.331,0.024-0.666,0.073-1H1.808c-0.445,0-0.806-0.184-0.991-0.503
		c-0.186-0.321-0.165-0.726,0.057-1.113l6.48-11.233c0.111-0.275,0.343-0.494,0.623-0.589c0.107-0.036,0.219-0.055,0.331-0.055
		c0.158,0,0.311,0.036,0.454,0.106c0.228,0.113,0.405,0.303,0.499,0.538l4.28,7.419c0.876-0.379,1.806-0.571,2.767-0.571
		c3.86,0,7,3.14,7,7C23.309,19.605,20.169,22.745,16.309,22.745z M10.393,14.745c-0.055,0.33-0.083,0.665-0.083,1
		c0,3.308,2.692,6,6,6s6-2.692,6-6s-2.692-6-6-6c-0.783,0-1.543,0.149-2.263,0.445l1.695,2.938c0.223,0.386,0.244,0.792,0.059,1.113
		c-0.185,0.321-0.547,0.504-0.992,0.504H10.393z M14.808,13.745c0.055,0,0.093-0.007,0.116-0.013
		c-0.008-0.017-0.021-0.054-0.049-0.104l-1.721-2.983c-1.154,0.718-2.046,1.825-2.5,3.1H14.808z M1.696,13.733
		c0.023,0.006,0.06,0.012,0.112,0.012h7.794c0.49-1.639,1.589-3.065,3.053-3.966l-4.28-7.418c-0.016-0.028-0.029-0.057-0.04-0.088
		L8.309,2.253c-0.002,0-0.005,0-0.01,0.002c-0.007,0.003-0.015,0.01-0.017,0.018c-0.01,0.031-0.024,0.061-0.041,0.09L1.741,13.628
		C1.715,13.674,1.702,13.709,1.696,13.733z"/>
</g>
</svg>
