<?xml version="1.0" encoding="utf-8"?>
<!-- Generator: Adobe Illustrator 22.1.0, SVG Export Plug-In . SVG Version: 6.00 Build 0)  -->
<svg version="1.1" id="Layer_1" xmlns="http://www.w3.org/2000/svg" xmlns:xlink="http://www.w3.org/1999/xlink" x="0px" y="0px"
	 viewBox="0 0 24 24" style="enable-background:new 0 0 24 24;" xml:space="preserve">
<g>
	<title>shape-triangle</title>
	<path d="M12,23.727c-4.846,0-8.5-1.505-8.5-3.5c0-0.385,0.137-0.76,0.407-1.115C3.909,19.108,11.165,0.97,11.165,0.97
		c0.245-0.628,0.663-0.697,0.831-0.697c0.17,0,0.588,0.068,0.839,0.698c0,0,7.256,18.137,7.257,18.141
		c0.271,0.355,0.408,0.73,0.408,1.115C20.5,22.222,16.846,23.727,12,23.727z M12,17.727c-4.829,0-7.5,1.478-7.5,2.5
		s2.671,2.5,7.5,2.5c4.829,0,7.5-1.478,7.5-2.5S16.829,17.727,12,17.727z M5.449,17.95c1.578-0.773,3.956-1.223,6.551-1.223
		s4.973,0.45,6.551,1.223L12,1.575L5.449,17.95z"/>
</g>
</svg>
