<?xml version="1.0" encoding="utf-8"?>
<!-- Generator: Adobe Illustrator 22.1.0, SVG Export Plug-In . SVG Version: 6.00 Build 0)  -->
<svg version="1.1" id="Layer_1" xmlns="http://www.w3.org/2000/svg" xmlns:xlink="http://www.w3.org/1999/xlink" x="0px" y="0px"
	 viewBox="0 0 24 24" style="enable-background:new 0 0 24 24;" xml:space="preserve">
<g>
	<title>shape-peg-top</title>
	<path d="M12.002,23.536c-0.099,0-0.199-0.013-0.297-0.038c-0.305-0.079-0.561-0.271-0.721-0.543L3.159,12.12
		c-0.186-0.28-0.292-0.599-0.31-0.932c-0.002-0.021-0.003-0.041-0.002-0.062c-0.01-0.427,0.13-0.847,0.394-1.179l7.733-8.998
		c0.051-0.063,0.119-0.131,0.192-0.189c0.236-0.19,0.533-0.295,0.836-0.295c0.405,0,0.783,0.18,1.037,0.493l7.71,8.971
		c0.274,0.345,0.416,0.769,0.406,1.202c0,0.018,0,0.036-0.002,0.054c-0.018,0.331-0.121,0.647-0.3,0.915l-7.855,10.884
		c-0.091,0.153-0.232,0.29-0.399,0.388C12.417,23.479,12.211,23.536,12.002,23.536z M11.982,21.608l3.277-8.591H8.739L11.982,21.608
		z M13.381,20.746l6.372-8.83l-3.389,1.01L13.381,20.746z M10.551,20.651l-2.916-7.726l-3.392-1.011L10.551,20.651z M15.28,12.017
		l-3.299-9.472l-3.264,9.472H15.28z M16.299,11.901l3.797-1.131c-0.03-0.074-0.069-0.143-0.118-0.205L13.01,2.459L16.299,11.901z
		 M7.699,11.901l3.227-9.363L4.01,10.584c-0.043,0.054-0.079,0.117-0.106,0.186L7.699,11.901z"/>
</g>
</svg>
