<?xml version="1.0" encoding="utf-8"?>
<!-- Generator: Adobe Illustrator 22.1.0, SVG Export Plug-In . SVG Version: 6.00 Build 0)  -->
<svg version="1.1" id="Layer_1" xmlns="http://www.w3.org/2000/svg" xmlns:xlink="http://www.w3.org/1999/xlink" x="0px" y="0px"
	 viewBox="0 0 24 24" style="enable-background:new 0 0 24 24;" xml:space="preserve">
<g>
	<title>shape-circle-add</title>
	<path d="M19.496,24.004c-0.276,0-0.5-0.224-0.5-0.5v-3.5h-3.5c-0.276,0-0.5-0.224-0.5-0.5s0.224-0.5,0.5-0.5h3.5v-3.5
		c0-0.276,0.224-0.5,0.5-0.5s0.5,0.224,0.5,0.5v3.5h3.5c0.276,0,0.5,0.224,0.5,0.5s-0.224,0.5-0.5,0.5h-3.5v3.5
		C19.996,23.78,19.771,24.004,19.496,24.004z"/>
	<path d="M9.509,19.01c-1.095,0-2.18-0.191-3.225-0.567c-2.386-0.86-4.293-2.597-5.372-4.892c-1.079-2.295-1.199-4.872-0.34-7.258
		C1.432,3.907,3.169,2,5.464,0.921C6.736,0.323,8.09,0.02,9.488,0.02c3.67,0,7.048,2.141,8.606,5.453
		c1.199,2.551,1.206,5.481,0.018,8.038c-0.082,0.176-0.26,0.29-0.454,0.29c-0.073,0-0.144-0.016-0.211-0.047
		c-0.249-0.116-0.358-0.414-0.242-0.664c1.063-2.287,1.057-4.909-0.016-7.191c-1.394-2.964-4.416-4.879-7.699-4.879
		c-1.25,0-2.462,0.271-3.6,0.807C3.836,2.791,2.282,4.498,1.513,6.632c-0.769,2.134-0.661,4.44,0.304,6.493
		c0.965,2.053,2.672,3.607,4.806,4.377c0.935,0.337,1.906,0.508,2.886,0.508c1.248,0,2.462-0.273,3.607-0.812
		c0.067-0.031,0.139-0.048,0.213-0.048c0.193,0,0.37,0.113,0.453,0.287c0.117,0.25,0.01,0.548-0.239,0.666
		C12.261,18.705,10.905,19.01,9.509,19.01z"/>
</g>
</svg>
