<?xml version="1.0" encoding="utf-8"?>
<!-- Generator: Adobe Illustrator 22.1.0, SVG Export Plug-In . SVG Version: 6.00 Build 0)  -->
<svg version="1.1" id="Layer_1" xmlns="http://www.w3.org/2000/svg" xmlns:xlink="http://www.w3.org/1999/xlink" x="0px" y="0px"
	 viewBox="0 0 24 24" style="enable-background:new 0 0 24 24;" xml:space="preserve">
<g>
	<title>mobile-shopping-shop</title>
	<circle cx="7" cy="21.5" r="0.75"/>
	<path d="M2.5,24C1.121,24,0,22.878,0,21.5v-19C0,1.121,1.121,0,2.5,0H10c0.276,0,0.5,0.224,0.5,0.5S10.276,1,10,1H2.5
		C1.673,1,1,1.673,1,2.5V19h12v-3.5c0-0.276,0.224-0.5,0.5-0.5s0.5,0.224,0.5,0.5v6c0,1.378-1.122,2.5-2.5,2.5H2.5z M1,21.5
		C1,22.327,1.673,23,2.5,23h9c0.827,0,1.5-0.673,1.5-1.5V20H1V21.5z"/>
	<path d="M13.5,13c-0.827,0-1.5-0.673-1.5-1.5V6.729C11.388,6.374,11,5.711,11,5V4c0-0.405,0.096-0.809,0.277-1.171l1.052-2.106
		C12.552,0.277,13.001,0,13.5,0h8c0.499,0,0.948,0.277,1.171,0.723l1.052,2.107C23.904,3.191,24,3.596,24,4v1
		c0,0.711-0.388,1.374-1,1.729V11.5c0,0.827-0.673,1.5-1.5,1.5H13.5z M21.5,12c0.276,0,0.5-0.224,0.5-0.5V7
		c-0.575,0-1.123-0.254-1.5-0.679C20.123,6.746,19.575,7,19,7v5H21.5z M13,11.5c0,0.276,0.224,0.5,0.5,0.5H18v-1h-5V11.5z M18,10
		V6.728c-0.189-0.109-0.357-0.246-0.5-0.407C17.124,6.746,16.575,7,16,7c-0.575,0-1.123-0.254-1.5-0.679C14.123,6.746,13.575,7,13,7
		v3H18z M20.5,4.5C20.776,4.5,21,4.724,21,5c0,0.551,0.448,1,1,1s1-0.449,1-1V4c0-0.249-0.059-0.499-0.171-0.723L21.777,1.17
		C21.724,1.065,21.618,1,21.5,1h-8c-0.118,0-0.224,0.066-0.277,0.171l-1.051,2.105C12.059,3.5,12,3.75,12,4v1c0,0.551,0.448,1,1,1
		s1-0.449,1-1c0-0.276,0.224-0.5,0.5-0.5S15,4.724,15,5c0,0.551,0.448,1,1,1s1-0.449,1-1c0-0.276,0.224-0.5,0.5-0.5S18,4.724,18,5
		c0,0.551,0.448,1,1,1s1-0.449,1-1C20,4.724,20.224,4.5,20.5,4.5z"/>
</g>
</svg>
