<?xml version="1.0" encoding="utf-8"?>
<!-- Generator: Adobe Illustrator 22.1.0, SVG Export Plug-In . SVG Version: 6.00 Build 0)  -->
<svg version="1.1" id="Layer_1" xmlns="http://www.w3.org/2000/svg" xmlns:xlink="http://www.w3.org/1999/xlink" x="0px" y="0px"
	 viewBox="0 0 24 24" style="enable-background:new 0 0 24 24;" xml:space="preserve">
<g>
	<title>mobile-shopping-shop-basket</title>
	<circle cx="12" cy="21.501" r="0.75"/>
	<path d="M7.5,24C6.122,24,5,22.878,5,21.5V8.67C4.584,8.487,4.216,8.226,3.905,7.893C3.291,7.237,2.97,6.381,3.001,5.483L3,4.5
		c0-0.013,0.001-0.028,0.004-0.042c0.004-0.045,0.014-0.088,0.029-0.13C3.033,4.327,3.034,4.324,3.036,4.32
		C3.04,4.306,3.045,4.293,3.051,4.28l1.726-3.451C5.033,0.318,5.546,0,6.118,0h11.764c0.572,0,1.085,0.318,1.341,0.829l1.724,3.447
		c0.006,0.011,0.011,0.026,0.016,0.04c0.002,0.006,0.005,0.012,0.006,0.016c0.015,0.039,0.024,0.083,0.028,0.128
		C20.999,4.474,21,4.488,21,4.5v1c0.034,0.988-0.376,1.942-1.125,2.609C19.614,8.341,19.32,8.53,19,8.67V21.5
		c0,1.378-1.122,2.5-2.5,2.5H7.5z M6,21.5C6,22.327,6.673,23,7.5,23h9c0.827,0,1.5-0.673,1.5-1.5V20H6V21.5z M18,19V8.936
		c-0.121,0.013-0.242,0.02-0.363,0.02c-0.753,0-1.475-0.248-2.061-0.703c-0.875,1.081-2.161,1.71-3.566,1.739
		C10.589,9.964,9.3,9.334,8.424,8.253C7.837,8.711,7.116,8.96,6.367,8.96c-0.04,0-0.08-0.001-0.12-0.002
		C6.167,8.955,6.085,8.949,6,8.939V19H18z M9,7.35c0.677,1.006,1.796,1.618,3.01,1.642C13.208,8.968,14.324,8.355,15,7.35V5H9V7.35z
		 M4,5.5C3.979,6.145,4.204,6.749,4.635,7.21c0.431,0.461,1.016,0.727,1.647,0.748l0.073,0.001c0.621,0,1.202-0.235,1.645-0.665V5H4
		V5.5z M16,7.295c0.438,0.422,1.031,0.662,1.644,0.662c0.578,0,1.135-0.212,1.566-0.595c0.527-0.468,0.815-1.141,0.791-1.845
		l0-0.517h-4V7.295z M19.691,4l-1.362-2.723C18.244,1.106,18.073,1,17.882,1h-2.741l0.75,3H19.691z M14.86,4l-0.75-3H9.891l-0.75,3
		H14.86z M8.11,4l0.75-3H6.119C5.928,1,5.757,1.106,5.672,1.277L4.309,4H8.11z"/>
	<path d="M10.071,18c-0.399,0-0.759-0.236-0.917-0.6L8.07,14.368c-0.095-0.214-0.098-0.488-0.002-0.734
		c0.098-0.249,0.286-0.445,0.531-0.552C8.711,13.034,8.839,13.007,8.99,13l0.243,0l0.852-1.277c0.093-0.14,0.249-0.223,0.416-0.223
		c0.099,0,0.195,0.029,0.277,0.084c0.111,0.074,0.187,0.187,0.213,0.318c0.026,0.131,0,0.264-0.074,0.375L10.435,13h3.132
		l-0.482-0.723c-0.074-0.111-0.101-0.245-0.074-0.375c0.026-0.131,0.102-0.244,0.213-0.318c0.082-0.055,0.178-0.084,0.277-0.084
		c0.168,0,0.323,0.083,0.417,0.223L14.768,13c0.539,0.014,0.973,0.457,0.973,0.999c0,0.117-0.02,0.233-0.061,0.343l-1.091,3
		C14.447,17.736,14.069,18,13.65,18H10.071z M13.65,17l1.091-3H8.998l1.073,2.998L13.65,17z"/>
</g>
</svg>
