<?xml version="1.0" encoding="utf-8"?>
<!-- Generator: Adobe Illustrator 22.1.0, SVG Export Plug-In . SVG Version: 6.00 Build 0)  -->
<svg version="1.1" id="Layer_1" xmlns="http://www.w3.org/2000/svg" xmlns:xlink="http://www.w3.org/1999/xlink" x="0px" y="0px"
	 viewBox="0 0 24 24" style="enable-background:new 0 0 24 24;" xml:space="preserve">
<g>
	<title>astronomy-constellation</title>
	<path d="M9.75,23.75c-1.379,0-2.5-1.122-2.5-2.5c0-0.459,0.125-0.902,0.363-1.292L4.71,17.276c-0.425,0.307-0.935,0.474-1.46,0.474
		c-1.379,0-2.5-1.122-2.5-2.5s1.121-2.5,2.5-2.5c0.111,0,0.224,0.008,0.337,0.024l1.882-5.38C4.722,6.945,4.25,6.126,4.25,5.25
		c0-1.379,1.121-2.5,2.5-2.5c1.199,0,2.215,0.845,2.449,2h7.363l4.983-4.376c0.092-0.08,0.209-0.124,0.33-0.124
		c0.144,0,0.281,0.062,0.376,0.17c0.088,0.1,0.132,0.229,0.123,0.362c-0.009,0.133-0.069,0.255-0.169,0.343l-4.864,4.271
		l3.006,7.888c0.136-0.023,0.271-0.035,0.404-0.035c1.378,0,2.5,1.122,2.5,2.5s-1.122,2.5-2.5,2.5s-2.5-1.122-2.5-2.5
		c0-0.236,0.034-0.47,0.101-0.698l-5.167-2.719c-0.442,0.54-1.088,0.871-1.784,0.913l-0.808,5.653
		c0.987,0.353,1.659,1.29,1.659,2.352C12.25,22.628,11.129,23.75,9.75,23.75z M9.75,19.75c-0.827,0-1.5,0.673-1.5,1.5
		s0.673,1.5,1.5,1.5s1.5-0.673,1.5-1.5S10.577,19.75,9.75,19.75z M8.291,19.223c0.384-0.278,0.839-0.44,1.311-0.469l0.808-5.652
		c-0.988-0.353-1.66-1.29-1.66-2.352c0-1.379,1.121-2.5,2.5-2.5c1.378,0,2.5,1.121,2.5,2.5c0,0.236-0.034,0.47-0.101,0.698
		l5.168,2.719c0.169-0.205,0.37-0.383,0.595-0.526L16.405,5.75H9.199c-0.234,1.155-1.25,2-2.449,2c-0.111,0-0.224-0.008-0.337-0.024
		l-1.882,5.38c0.747,0.449,1.22,1.267,1.22,2.144c0,0.458-0.125,0.901-0.362,1.291L8.291,19.223z M20.177,14.364
		c-0.555,0.221-0.927,0.768-0.927,1.386c0,0.827,0.673,1.5,1.5,1.5s1.5-0.673,1.5-1.5s-0.673-1.5-1.5-1.5
		c-0.17,0-0.339,0.03-0.503,0.089c-0.01,0.005-0.021,0.01-0.03,0.014C20.206,14.357,20.191,14.361,20.177,14.364z M3.25,13.75
		c-0.827,0-1.5,0.673-1.5,1.5s0.673,1.5,1.5,1.5s1.5-0.673,1.5-1.5S4.077,13.75,3.25,13.75z M11.25,9.25c-0.827,0-1.5,0.673-1.5,1.5
		s0.673,1.5,1.5,1.5s1.5-0.673,1.5-1.5S12.077,9.25,11.25,9.25z M6.75,3.75c-0.827,0-1.5,0.673-1.5,1.5s0.673,1.5,1.5,1.5
		c0.821,0,1.49-0.664,1.5-1.483c0-0.006,0-0.029,0-0.035C8.241,4.414,7.571,3.75,6.75,3.75z"/>
</g>
</svg>
