<?xml version="1.0" encoding="utf-8"?>
<!-- Generator: Adobe Illustrator 22.1.0, SVG Export Plug-In . SVG Version: 6.00 Build 0)  -->
<svg version="1.1" id="Layer_1" xmlns="http://www.w3.org/2000/svg" xmlns:xlink="http://www.w3.org/1999/xlink" x="0px" y="0px"
	 viewBox="0 0 24 24" style="enable-background:new 0 0 24 24;" xml:space="preserve">
<g>
	<title>astronomy-planet</title>
	<path d="M9.484,23.484c-0.276,0-0.5-0.224-0.5-0.5v-2.488c-0.499-0.038-0.99-0.133-1.464-0.284l-0.932,2.308
		c-0.077,0.19-0.259,0.312-0.464,0.312c-0.065,0-0.128-0.012-0.188-0.037c-0.123-0.05-0.22-0.145-0.272-0.268
		c-0.052-0.123-0.054-0.259-0.004-0.383l0.933-2.31c-0.48-0.239-0.928-0.536-1.335-0.885l-1.762,1.761
		c-0.094,0.094-0.22,0.146-0.354,0.146c-0.134,0-0.259-0.052-0.354-0.146c-0.195-0.195-0.195-0.512,0-0.707l1.762-1.761
		c-0.329-0.383-0.611-0.802-0.843-1.249l-2.293,0.968c-0.062,0.026-0.127,0.04-0.194,0.04c-0.202,0-0.382-0.12-0.461-0.306
		c-0.052-0.123-0.053-0.259-0.002-0.383s0.146-0.22,0.269-0.272l2.292-0.967c-0.168-0.503-0.274-1.026-0.315-1.558H0.516
		c-0.276,0-0.5-0.224-0.5-0.5s0.224-0.5,0.5-0.5h2.488c0.041-0.532,0.146-1.055,0.315-1.558l-2.292-0.966
		c-0.123-0.052-0.219-0.149-0.269-0.272c-0.05-0.124-0.049-0.26,0.002-0.383c0.078-0.186,0.259-0.306,0.461-0.306
		c0.067,0,0.132,0.013,0.194,0.04l2.293,0.967c0.231-0.447,0.514-0.865,0.842-1.248l-1.761-1.76c-0.195-0.195-0.195-0.512,0-0.707
		c0.094-0.095,0.22-0.147,0.354-0.147s0.259,0.052,0.353,0.146l1.762,1.761c0.407-0.349,0.855-0.646,1.335-0.885L5.66,5.888
		c-0.05-0.124-0.049-0.26,0.003-0.383c0.052-0.123,0.149-0.218,0.273-0.268c0.06-0.024,0.123-0.036,0.187-0.036
		c0.205,0,0.387,0.123,0.464,0.312L7.52,7.82c0.474-0.151,0.965-0.246,1.464-0.284V5.048c0-0.276,0.224-0.5,0.5-0.5
		s0.5,0.224,0.5,0.5v2.489c0.499,0.038,0.99,0.133,1.464,0.284l0.932-2.307c0.077-0.19,0.259-0.312,0.464-0.312
		c0.064,0,0.127,0.012,0.187,0.036c0.125,0.05,0.221,0.146,0.273,0.269c0.052,0.123,0.053,0.259,0.003,0.383l-0.933,2.308
		c0.481,0.239,0.928,0.536,1.336,0.886l1.762-1.761c0.094-0.094,0.22-0.146,0.354-0.146s0.259,0.052,0.354,0.146
		s0.146,0.22,0.146,0.354c0,0.134-0.052,0.259-0.146,0.354L14.417,9.79c0.329,0.383,0.611,0.801,0.842,1.248l2.294-0.967
		c0.062-0.026,0.127-0.039,0.194-0.039c0.202,0,0.383,0.12,0.461,0.306c0.107,0.255-0.013,0.548-0.266,0.655l-2.293,0.967
		c0.168,0.503,0.274,1.026,0.314,1.558h2.49c0.276,0,0.5,0.224,0.5,0.5s-0.224,0.5-0.5,0.5h-2.49
		c-0.041,0.532-0.146,1.054-0.314,1.558l2.293,0.968c0.123,0.052,0.218,0.148,0.269,0.272c0.051,0.124,0.05,0.26-0.002,0.383
		c-0.078,0.186-0.259,0.306-0.46,0.306c-0.067,0-0.133-0.013-0.195-0.04l-2.294-0.968c-0.231,0.447-0.513,0.865-0.842,1.249
		l1.762,1.761c0.195,0.195,0.195,0.512,0,0.707c-0.094,0.094-0.22,0.146-0.354,0.146s-0.259-0.052-0.354-0.146L13.71,18.95
		c-0.407,0.349-0.855,0.646-1.335,0.885l0.933,2.309c0.05,0.124,0.049,0.26-0.003,0.383c-0.052,0.123-0.149,0.218-0.273,0.268
		c-0.059,0.024-0.123,0.036-0.187,0.036c-0.205,0-0.387-0.123-0.463-0.312l-0.933-2.308c-0.474,0.151-0.965,0.246-1.464,0.284v2.488
		C9.984,23.259,9.76,23.484,9.484,23.484z M4.425,16.176c0.859,2.022,2.847,3.34,5.059,3.34c3.033,0,5.5-2.467,5.5-5.5
		c0-3.033-2.467-5.5-5.5-5.5c-2.21,0-4.196,1.316-5.063,3.353c-0.002,0.006-0.005,0.013-0.008,0.019
		c-0.284,0.675-0.428,1.391-0.428,2.128c0,0.737,0.144,1.452,0.428,2.126C4.416,16.152,4.424,16.175,4.425,16.176z"/>
	<path d="M7.984,17.516c-1.103,0-2-0.897-2-2s0.897-2,2-2s2,0.897,2,2S9.087,17.516,7.984,17.516z M7.984,14.516
		c-0.551,0-1,0.448-1,1s0.449,1,1,1s1-0.448,1-1S8.535,14.516,7.984,14.516z"/>
	<path d="M10.984,12.266c-0.414,0-0.75-0.337-0.75-0.75s0.336-0.75,0.75-0.75s0.75,0.336,0.75,0.75S11.397,12.266,10.984,12.266z"/>
	<path d="M12.484,15.766c-0.413,0-0.75-0.336-0.75-0.75s0.336-0.75,0.75-0.75c0.414,0,0.75,0.336,0.75,0.75
		S12.897,15.766,12.484,15.766z"/>
	<path d="M20.484,7.516c-0.276,0-0.5-0.224-0.5-0.5V6.465c-0.312-0.064-0.61-0.187-0.876-0.364l-0.391,0.391
		c-0.094,0.094-0.22,0.146-0.354,0.146s-0.259-0.052-0.354-0.146s-0.146-0.22-0.146-0.354c0-0.134,0.052-0.259,0.146-0.354
		L18.4,5.394c-0.177-0.267-0.301-0.565-0.365-0.878h-0.551c-0.276,0-0.5-0.224-0.5-0.5s0.224-0.5,0.5-0.5h0.551
		c0.064-0.313,0.188-0.61,0.365-0.877l-0.39-0.39c-0.195-0.195-0.195-0.512,0-0.707c0.094-0.094,0.22-0.146,0.354-0.146
		s0.259,0.052,0.354,0.146l0.39,0.39c0.267-0.177,0.564-0.301,0.877-0.365V1.016c0-0.276,0.224-0.5,0.5-0.5s0.5,0.224,0.5,0.5v0.551
		c0.312,0.064,0.61,0.188,0.877,0.365l0.39-0.39c0.094-0.094,0.22-0.146,0.354-0.146s0.259,0.052,0.354,0.146
		c0.195,0.195,0.195,0.512,0,0.707l-0.39,0.39c0.177,0.267,0.301,0.564,0.365,0.877h0.551c0.276,0,0.5,0.224,0.5,0.5
		s-0.224,0.5-0.5,0.5h-0.551c-0.064,0.313-0.188,0.611-0.365,0.878l0.391,0.391c0.094,0.094,0.146,0.22,0.146,0.354
		c0,0.134-0.052,0.259-0.146,0.354s-0.22,0.146-0.354,0.146s-0.259-0.052-0.354-0.146L21.86,6.1c-0.267,0.177-0.564,0.3-0.876,0.364
		v0.551C20.984,7.292,20.759,7.516,20.484,7.516z M20.484,2.516c-0.827,0-1.5,0.673-1.5,1.5s0.673,1.5,1.5,1.5s1.5-0.673,1.5-1.5
		S21.311,2.516,20.484,2.516z"/>
</g>
</svg>
