<?xml version="1.0" encoding="utf-8"?>
<!-- Generator: Adobe Illustrator 22.1.0, SVG Export Plug-In . SVG Version: 6.00 Build 0)  -->
<svg version="1.1" id="Layer_1" xmlns="http://www.w3.org/2000/svg" xmlns:xlink="http://www.w3.org/1999/xlink" x="0px" y="0px"
	 viewBox="0 0 24 24" style="enable-background:new 0 0 24 24;" xml:space="preserve">
<g>
	<title>transform-inside</title>
	<path d="M23.5,23.5c-0.276,0-0.5-0.224-0.5-0.5v-4C23,9.35,15.149,1.5,5.5,1.5h-5C0.224,1.5,0,1.276,0,1s0.224-0.5,0.5-0.5h5
		C15.701,0.5,24,8.799,24,19v4C24,23.276,23.776,23.5,23.5,23.5z"/>
	<path d="M4.5,20.5c-0.066,0-0.13-0.013-0.192-0.039c-0.123-0.051-0.219-0.147-0.27-0.27C4.013,20.13,4,20.066,4,20v-5.5
		C4,14.224,4.224,14,4.5,14S5,14.224,5,14.5v4.293l9.146-9.146C14.241,9.552,14.366,9.5,14.5,9.5s0.259,0.052,0.354,0.146
		S15,9.866,15,10s-0.052,0.259-0.146,0.354L5.707,19.5H10c0.276,0,0.5,0.224,0.5,0.5s-0.224,0.5-0.5,0.5H4.5z"/>
	<path d="M13.5,1.5C13.224,1.5,13,1.276,13,1s0.224-0.5,0.5-0.5H15c0.276,0,0.5,0.224,0.5,0.5S15.276,1.5,15,1.5H13.5z"/>
	<path d="M17,1.5c-0.276,0-0.5-0.224-0.5-0.5s0.224-0.5,0.5-0.5h2.5C19.776,0.5,20,0.724,20,1s-0.224,0.5-0.5,0.5H17z"/>
	<path d="M23.5,8C23.224,8,23,7.776,23,7.5V5c0-0.276,0.224-0.5,0.5-0.5S24,4.724,24,5v2.5C24,7.776,23.776,8,23.5,8z"/>
	<path d="M23.5,11.5c-0.276,0-0.5-0.224-0.5-0.5V9.5C23,9.224,23.224,9,23.5,9S24,9.224,24,9.5V11C24,11.276,23.776,11.5,23.5,11.5z
		"/>
	<path d="M23.5,3.5C23.224,3.5,23,3.276,23,3V1.5h-1.5C21.224,1.5,21,1.276,21,1s0.224-0.5,0.5-0.5h2C23.776,0.5,24,0.724,24,1v2
		C24,3.276,23.776,3.5,23.5,3.5z"/>
</g>
</svg>
