<?xml version="1.0" encoding="utf-8"?>
<!-- Generator: Adobe Illustrator 22.1.0, SVG Export Plug-In . SVG Version: 6.00 Build 0)  -->
<svg version="1.1" id="Layer_1" xmlns="http://www.w3.org/2000/svg" xmlns:xlink="http://www.w3.org/1999/xlink" x="0px" y="0px"
	 viewBox="0 0 24 24" style="enable-background:new 0 0 24 24;" xml:space="preserve">
<g>
	<title>transform-right</title>
	<path d="M0.501,22.75c-0.056,0-0.112-0.01-0.172-0.032c-0.008-0.003-0.039-0.017-0.047-0.021c-0.042-0.021-0.08-0.047-0.113-0.077
		c-0.004-0.004-0.023-0.019-0.026-0.023c-0.038-0.039-0.068-0.081-0.09-0.126c-0.006-0.012-0.012-0.027-0.016-0.041
		c-0.003-0.007-0.005-0.014-0.006-0.019c-0.012-0.035-0.021-0.074-0.025-0.114c-0.003-0.016-0.005-0.033-0.005-0.048v-1
		c0-0.276,0.224-0.5,0.5-0.5c0.154,0,0.292,0.07,0.384,0.18l8.6-11.181c-0.269-0.008-0.485-0.229-0.485-0.5
		c0-0.276,0.224-0.5,0.5-0.5h14c0.192,0,0.364,0.107,0.448,0.279c0.085,0.172,0.065,0.374-0.052,0.526l-10,13
		c-0.01,0.013-0.023,0.026-0.037,0.038c-0.028,0.029-0.061,0.055-0.099,0.079c-0.001,0.001-0.023,0.018-0.054,0.032
		c-0.065,0.03-0.135,0.046-0.206,0.046H0.501z M13.001,21.75v-0.5c0-0.276,0.224-0.5,0.5-0.5c0.154,0,0.292,0.07,0.384,0.18
		l8.6-11.18h-8.484v0.5c0,0.276-0.224,0.5-0.5,0.5s-0.5-0.224-0.5-0.5v-0.5h-2.254l-9.231,12H13.001z"/>
	<path d="M16.001,7.25c-0.134,0-0.259-0.052-0.354-0.146c-0.195-0.195-0.195-0.512,0-0.707l1.646-1.646H5.501
		c-0.276,0-0.5-0.224-0.5-0.5s0.224-0.5,0.5-0.5h11.793l-1.646-1.646c-0.195-0.195-0.195-0.512,0-0.707
		c0.094-0.094,0.22-0.146,0.354-0.146c0.134,0,0.259,0.052,0.354,0.146l2.5,2.5c0.046,0.046,0.083,0.101,0.109,0.163
		c0.05,0.121,0.05,0.261,0,0.382c-0.025,0.061-0.062,0.116-0.109,0.163l-2.499,2.499C16.26,7.198,16.134,7.25,16.001,7.25z"/>
	<path d="M0.501,10.75c-0.276,0-0.5-0.224-0.5-0.5v-1c0-0.276,0.224-0.5,0.5-0.5h1c0.276,0,0.5,0.224,0.5,0.5s-0.224,0.5-0.5,0.5
		h-0.5v0.5C1.001,10.526,0.776,10.75,0.501,10.75z"/>
	<path d="M0.501,13.75c-0.276,0-0.5-0.224-0.5-0.5v-1c0-0.276,0.224-0.5,0.5-0.5s0.5,0.224,0.5,0.5v1
		C1.001,13.526,0.776,13.75,0.501,13.75z"/>
	<path d="M0.501,16.75c-0.276,0-0.5-0.224-0.5-0.5v-1c0-0.276,0.224-0.5,0.5-0.5s0.5,0.224,0.5,0.5v1
		C1.001,16.526,0.776,16.75,0.501,16.75z"/>
	<path d="M0.501,19.75c-0.276,0-0.5-0.224-0.5-0.5v-1c0-0.276,0.224-0.5,0.5-0.5s0.5,0.224,0.5,0.5v1
		C1.001,19.526,0.776,19.75,0.501,19.75z"/>
	<path d="M13.501,13.75c-0.276,0-0.5-0.224-0.5-0.5v-1c0-0.276,0.224-0.5,0.5-0.5s0.5,0.224,0.5,0.5v1
		C14.001,13.526,13.776,13.75,13.501,13.75z"/>
	<path d="M13.501,16.75c-0.276,0-0.5-0.224-0.5-0.5v-1c0-0.276,0.224-0.5,0.5-0.5s0.5,0.224,0.5,0.5v1
		C14.001,16.526,13.776,16.75,13.501,16.75z"/>
	<path d="M13.501,19.75c-0.276,0-0.5-0.224-0.5-0.5v-1c0-0.276,0.224-0.5,0.5-0.5s0.5,0.224,0.5,0.5v1
		C14.001,19.526,13.776,19.75,13.501,19.75z"/>
	<path d="M3.501,9.75c-0.276,0-0.5-0.224-0.5-0.5s0.224-0.5,0.5-0.5h1c0.276,0,0.5,0.224,0.5,0.5s-0.224,0.5-0.5,0.5H3.501z"/>
	<path d="M6.501,9.75c-0.276,0-0.5-0.224-0.5-0.5s0.224-0.5,0.5-0.5h1c0.276,0,0.5,0.224,0.5,0.5s-0.224,0.5-0.5,0.5H6.501z"/>
</g>
</svg>
