<?xml version="1.0" encoding="utf-8"?>
<!-- Generator: Adobe Illustrator 22.1.0, SVG Export Plug-In . SVG Version: 6.00 Build 0)  -->
<svg version="1.1" id="Light" xmlns="http://www.w3.org/2000/svg" xmlns:xlink="http://www.w3.org/1999/xlink" x="0px" y="0px"
	 viewBox="0 0 24 24" style="enable-background:new 0 0 24 24;" xml:space="preserve">
<g>
	<title>cap-sunglasses</title>
	<path d="M17.248,24c-1.93,0-3.5-1.57-3.5-3.5V18h-1v2.5c0,1.93-1.57,3.5-3.5,3.5h-2c-1.93,0-3.5-1.57-3.5-3.5v-1
		c0-1.378,1.121-2.5,2.5-2.5h14c1.378,0,2.5,1.122,2.5,2.5v1c0,1.93-1.57,3.5-3.5,3.5H17.248z M14.748,20.5
		c0,1.378,1.122,2.5,2.5,2.5h2c1.378,0,2.5-1.122,2.5-2.5v-1c0-0.827-0.673-1.5-1.5-1.5h-5.5V20.5z M6.248,18
		c-0.827,0-1.5,0.673-1.5,1.5v1c0,1.378,1.121,2.5,2.5,2.5h2c1.379,0,2.5-1.122,2.5-2.5V18H6.248z"/>
	<path d="M3.101,16.867c-0.735,0-1.373-0.548-1.483-1.276c0,0-0.268-1.765-0.276-1.824c-0.686-4.792,1.944-9.371,6.41-11.2
		C7.736,2.011,7.905,1.467,8.236,1.017C8.632,0.48,9.214,0.128,9.874,0.028C10,0.009,10.127,0,10.253,0
		c0.534,0,1.046,0.169,1.479,0.487c0.448,0.33,0.77,0.798,0.92,1.332c1.947,0.167,3.804,0.877,5.382,2.06
		c2.244,1.682,3.698,4.137,4.096,6.913l0.25,1.65c0.016,0.105,0.021,0.212,0.014,0.318c-0.025,0.399-0.203,0.766-0.503,1.031
		c-0.274,0.243-0.625,0.377-0.987,0.377c-0.033,0-0.067-0.001-0.1-0.003c-0.329-0.008-0.668-0.012-1.008-0.012
		c-2.564,0-5.141,0.229-7.659,0.682c-2.907,0.361-5.769,1.014-8.521,1.942c-0.081,0.031-0.185,0.058-0.289,0.074
		C3.252,16.862,3.176,16.867,3.101,16.867z M8.2,3.465C4.119,5.101,1.708,9.266,2.332,13.627c0.008,0.053,0.275,1.816,0.275,1.816
		c0.037,0.242,0.248,0.425,0.492,0.425c0.025,0,0.051-0.002,0.076-0.006c0.036-0.005,0.07-0.014,0.103-0.027
		c2.829-0.955,5.756-1.623,8.708-1.989c2.553-0.459,5.186-0.693,7.811-0.693c0.35,0,0.701,0.004,1.051,0.012
		c0.024,0.001,0.037,0.002,0.05,0.002c0.124,0,0.238-0.043,0.331-0.125c0.1-0.089,0.16-0.211,0.168-0.344
		c0.002-0.036,0-0.071-0.005-0.104c0,0-0.251-1.655-0.252-1.659c-0.359-2.512-1.676-4.734-3.706-6.255
		c-1.447-1.085-3.153-1.73-4.938-1.87c-0.052,0.031-0.108,0.051-0.167,0.06c-0.025,0.004-0.05,0.006-0.074,0.006
		c-0.102,0-0.202-0.033-0.286-0.093c-0.071-0.002-0.142-0.003-0.213-0.003c-0.453,0-0.913,0.033-1.366,0.098
		C9.817,2.959,9.245,3.096,8.689,3.284C8.612,3.383,8.502,3.45,8.378,3.47C8.351,3.474,8.325,3.476,8.299,3.476
		C8.266,3.476,8.233,3.473,8.2,3.465z M10.252,1c-0.076,0-0.153,0.006-0.229,0.017C9.628,1.077,9.279,1.288,9.041,1.61
		C8.908,1.791,8.819,1.994,8.777,2.209c0.488-0.144,0.982-0.252,1.472-0.322c0.431-0.062,0.873-0.097,1.317-0.104
		c-0.104-0.192-0.248-0.358-0.428-0.49C10.879,1.101,10.573,1,10.252,1z"/>
	<path d="M8.783,13.314c-0.106,0-0.212-0.035-0.297-0.098c-0.107-0.079-0.177-0.195-0.197-0.327
		c-0.29-1.909,1.027-3.697,2.936-3.986c0.176-0.027,0.355-0.04,0.532-0.04c0.747,0,1.463,0.236,2.069,0.683
		c0.753,0.555,1.245,1.369,1.385,2.293c0.042,0.272-0.146,0.528-0.419,0.569l-5.933,0.9C8.834,13.312,8.808,13.314,8.783,13.314z
		 M11.755,9.863c-0.126,0-0.255,0.01-0.381,0.029c-1.175,0.178-2.061,1.182-2.122,2.345l4.846-0.735
		c-0.167-0.46-0.462-0.854-0.865-1.151C12.799,10.032,12.288,9.863,11.755,9.863z"/>
</g>
</svg>
