<?xml version="1.0" encoding="utf-8"?>
<!-- Generator: Adobe Illustrator 22.1.0, SVG Export Plug-In . SVG Version: 6.00 Build 0)  -->
<svg version="1.1" id="Light" xmlns="http://www.w3.org/2000/svg" xmlns:xlink="http://www.w3.org/1999/xlink" x="0px" y="0px"
	 viewBox="0 0 24 24" style="enable-background:new 0 0 24 24;" xml:space="preserve">
<g>
	<title>cap-4</title>
	<path d="M17.225,19.586c-1.282,0-2.542-0.232-3.642-0.672l-4.689-1.875l-6.873,1.988c-0.056,0.016-0.114,0.03-0.173,0.039
		c-0.084,0.014-0.168,0.021-0.25,0.021c-0.313,0-0.615-0.097-0.872-0.28c-0.327-0.234-0.544-0.581-0.611-0.978
		c-0.625-3.95,1.259-7.808,4.711-9.751c-0.515-0.37-0.829-0.966-0.829-1.62c0-1.103,0.897-2,2-2s2,0.897,2,2
		c0,0.178-0.024,0.356-0.072,0.528c0.523-0.088,1.052-0.133,1.578-0.133c1.585,0,3.164,0.409,4.567,1.183
		c2.135,1.179,3.711,3.1,4.451,5.42l4.472,1.397c0.246,0.09,0.447,0.224,0.61,0.401c0.271,0.296,0.41,0.679,0.393,1.079
		c-0.017,0.4-0.189,0.77-0.485,1.041C22.004,18.759,19.653,19.586,17.225,19.586z M13.954,17.985
		c0.963,0.385,2.083,0.589,3.238,0.589c2.214,0,4.324-0.724,5.646-1.936c0.098-0.091,0.156-0.214,0.162-0.347
		c0.006-0.134-0.041-0.261-0.131-0.36c-0.053-0.058-0.121-0.104-0.195-0.131l-4.563-1.425l-7.652,2.213L13.954,17.985z M4.955,9.168
		c-2.851,1.799-4.385,5.129-3.852,8.501c0.022,0.13,0.094,0.246,0.204,0.324c0.087,0.062,0.188,0.094,0.292,0.094
		c0.028,0,0.057-0.002,0.085-0.007c0.021-0.003,0.04-0.008,0.059-0.013l3.526-1.02C4.298,14.272,4.189,11.402,4.955,9.168z
		 M6.357,8.454c-1.154,2.048-1.201,5.277-0.127,8.314l5.715-1.653c-0.812-3.137-2.683-5.827-4.823-6.925
		c-0.12,0.035-0.238,0.072-0.355,0.112c-0.051,0.023-0.122,0.048-0.196,0.07C6.505,8.397,6.432,8.425,6.357,8.454z M8.553,7.907
		c1.965,1.441,3.592,4.019,4.353,6.931l4.583-1.326c-0.692-1.962-2.069-3.59-3.901-4.601C12.331,8.217,10.917,7.85,9.499,7.85
		C9.191,7.85,8.875,7.869,8.553,7.907z M5.998,5.457c-0.551,0-1,0.449-1,1s0.449,1,1,1c0.115,0,0.234-0.023,0.353-0.068
		c0,0,0.065-0.024,0.065-0.024c0.346-0.153,0.582-0.512,0.582-0.908C6.998,5.906,6.549,5.457,5.998,5.457z"/>
</g>
</svg>
