<?xml version="1.0" encoding="utf-8"?>
<!-- Generator: Adobe Illustrator 22.1.0, SVG Export Plug-In . SVG Version: 6.00 Build 0)  -->
<svg version="1.1" id="Layer_1" xmlns="http://www.w3.org/2000/svg" xmlns:xlink="http://www.w3.org/1999/xlink" x="0px" y="0px"
	 viewBox="0 0 24 24" style="enable-background:new 0 0 24 24;" xml:space="preserve">
<g>
	<title>business-lucky-cat</title>
	<path d="M13.778,5.982c-0.089,0-0.177-0.024-0.254-0.07c-0.237-0.14-0.316-0.447-0.176-0.684C13.795,4.47,14.62,4,15.5,4
		C15.776,4,16,4.224,16,4.5S15.776,5,15.5,5c-0.528,0-1.023,0.282-1.292,0.737C14.119,5.888,13.954,5.982,13.778,5.982z"/>
	<path d="M10.222,5.982c-0.176,0-0.341-0.094-0.431-0.246C9.523,5.282,9.028,5,8.5,5C8.224,5,8,4.776,8,4.5S8.224,4,8.5,4
		c0.88,0,1.705,0.47,2.152,1.228c0.068,0.115,0.087,0.25,0.054,0.379c-0.033,0.129-0.115,0.238-0.23,0.306
		C10.399,5.958,10.311,5.982,10.222,5.982z"/>
	<path d="M12,24c-5.293,0-8.581-2.669-8.581-6.965c0-0.617,0.071-1.347,0.207-2.12C1.931,13.836,1,12.451,1,11V6.5
		C1,5.121,2.121,4,3.5,4c0.736,0,1.427,0.326,1.898,0.875c0.158-0.376,0.359-0.726,0.6-1.047V1.042c0-0.185,0.051-0.366,0.148-0.523
		c0.14-0.228,0.36-0.387,0.62-0.449C6.843,0.052,6.921,0.042,7,0.042c0.184,0,0.364,0.051,0.522,0.149
		c2.28,1.401,2.947,1.699,3.105,1.76C11.055,1.914,11.516,1.895,12,1.895c0.453,0,0.886,0.016,1.289,0.049l3.22-1.815
		C16.659,0.044,16.829,0,17,0c0.551,0,1,0.449,1,1v2.828c0.633,0.843,0.987,1.883,0.998,2.938c0,0.09-0.003,0.171-0.009,0.252
		c-0.055,0.87-0.367,1.682-0.906,2.361c0.011,0.012,0.022,0.024,0.032,0.036C21.176,10.519,23,12.386,23,14.417v3.5
		c0,0.408-0.101,0.814-0.293,1.174c-0.313,0.59-0.838,1.022-1.477,1.217c-0.239,0.073-0.485,0.11-0.733,0.11
		c-0.24,0-0.478-0.035-0.71-0.106C18.484,22.692,15.73,24,12,24z M4.661,14.764c-0.158,0.815-0.242,1.601-0.242,2.271
		C4.419,20.77,7.253,23,12,23s7.581-2.23,7.581-5.965c0-2.167-0.827-5.282-2.086-6.805c-0.093,2.234-1.561,4.214-3.668,4.959
		C13.941,15.443,14,15.719,14,16c0,1.103-0.897,2-2,2s-2-0.897-2-2c0-0.281,0.059-0.557,0.173-0.812
		c-2.107-0.745-3.575-2.725-3.668-4.96c-0.781,0.952-1.469,2.627-1.838,4.507h0C4.665,14.747,4.662,14.758,4.661,14.764z
		 M20.2,19.387c0.099,0.021,0.2,0.031,0.301,0.031c0.147,0,0.294-0.022,0.437-0.066c0.383-0.117,0.698-0.377,0.886-0.73
		C21.939,18.405,22,18.162,22,17.917v-3.5c0-1.297-1.041-2.543-2.884-3.483c0.954,1.902,1.465,4.458,1.465,6.101
		C20.581,17.873,20.453,18.662,20.2,19.387z M11.292,15.296C11.104,15.486,11,15.735,11,16c0,0.552,0.449,1,1,1c0.552,0,1-0.448,1-1
		s-0.448-1-1-1c-0.244,0-0.481,0.093-0.667,0.262C11.322,15.273,11.308,15.284,11.292,15.296z M12,14
		c0.409,0,0.799,0.122,1.134,0.355c1.75-0.457,3.056-1.935,3.314-3.707c-0.537,0.236-1.118,0.359-1.706,0.359
		c-0.092,0-0.184-0.003-0.276-0.009L9.498,11c-0.047,0.004-0.129,0.007-0.211,0.008c-0.6,0-1.192-0.125-1.735-0.362
		c0.258,1.773,1.565,3.252,3.316,3.709C11.202,14.122,11.591,14,12,14z M2,11c0,1.009,0.652,2.016,1.846,2.861
		c0.279-1.145,0.914-3.227,2.066-4.482C5.327,8.637,5.004,7.721,4.998,6.774c0-0.006,0.001-0.032,0.002-0.039L5,6.5
		C5,5.673,4.327,5,3.5,5S2,5.673,2,6.5v1h1.5C3.776,7.5,4,7.724,4,8S3.776,8.5,3.5,8.5H2V11z M7.364,9.397
		c0.557,0.4,1.211,0.611,1.894,0.611c0.083-0.001,0.145-0.003,0.207-0.007L14.498,10c0.086,0.005,0.157,0.007,0.228,0.007
		c0.702,0,1.368-0.216,1.928-0.624c0.008-0.007,0.016-0.013,0.021-0.017c0.077-0.057,0.148-0.112,0.217-0.172
		c0.654-0.576,1.044-1.371,1.1-2.24c0.004-0.062,0.006-0.125,0.007-0.187c-0.009-0.886-0.324-1.759-0.886-2.453
		C17.039,4.225,17,4.114,17,4V1L13.646,2.89c-0.074,0.042-0.159,0.065-0.244,0.065c-0.009,0-0.042-0.002-0.05-0.003
		C12.937,2.914,12.482,2.895,12,2.895c-0.479,0-0.935,0.02-1.354,0.058c-0.008,0.001-0.015,0.001-0.023,0.001
		c-0.01,0-0.019-0.001-0.029-0.002C10.313,2.941,9.77,2.746,6.998,1.043H6.997L6.998,4c0,0.114-0.04,0.226-0.112,0.315
		C6.332,4.998,6.017,5.86,6,6.742v0.029C6,6.78,5.999,6.79,5.998,6.8c0.01,0.85,0.354,1.66,0.97,2.267
		c0.077,0.076,0.166,0.154,0.271,0.237C7.287,9.329,7.329,9.36,7.364,9.397z"/>
</g>
</svg>
