<?xml version="1.0" encoding="utf-8"?>
<!-- Generator: Adobe Illustrator 22.1.0, SVG Export Plug-In . SVG Version: 6.00 Build 0)  -->
<svg version="1.1" id="Layer_1" xmlns="http://www.w3.org/2000/svg" xmlns:xlink="http://www.w3.org/1999/xlink" x="0px" y="0px"
	 viewBox="0 0 24 24" style="enable-background:new 0 0 24 24;" xml:space="preserve">
<g>
	<title>business-money-basket</title>
	<path d="M13.514,11.868c-0.198,0-0.378-0.117-0.458-0.298l-0.308-0.698l-0.699,0.309c-0.064,0.028-0.132,0.043-0.202,0.043
		c-0.198,0-0.377-0.117-0.457-0.298c-0.111-0.252,0.003-0.548,0.255-0.659l1.115-0.493c0.013-0.009,0.027-0.017,0.039-0.022
		c0.02-0.009,0.038-0.014,0.053-0.018l0.392-0.175c0.1-0.044,0.167-0.141,0.172-0.248c0.003-0.075-0.023-0.148-0.074-0.203
		s-0.121-0.088-0.196-0.091l-1.865-0.089c-0.484-0.021-0.924-0.323-1.118-0.769c-0.137-0.314-0.144-0.662-0.018-0.982
		c0.123-0.313,0.358-0.56,0.663-0.699l-0.31-0.702c-0.111-0.252,0.003-0.548,0.255-0.659c0.064-0.028,0.132-0.043,0.202-0.043
		c0.198,0,0.377,0.117,0.457,0.298l0.31,0.702l0.702-0.31c0.065-0.028,0.133-0.043,0.202-0.043c0.198,0,0.377,0.117,0.457,0.298
		c0.111,0.252-0.003,0.548-0.255,0.659l-1.6,0.707c-0.072,0.031-0.125,0.086-0.153,0.157c-0.028,0.07-0.026,0.147,0.004,0.217
		c0.043,0.098,0.14,0.165,0.247,0.17l1.865,0.089c0.341,0.015,0.656,0.162,0.888,0.415c0.232,0.253,0.351,0.58,0.336,0.923
		c-0.021,0.48-0.315,0.915-0.753,1.113l0.308,0.698c0.111,0.252-0.003,0.548-0.255,0.659C13.651,11.854,13.583,11.868,13.514,11.868
		z"/>
	<path d="M12.2,14.751c-0.198,0-0.378-0.117-0.458-0.298c-0.111-0.252,0.003-0.548,0.255-0.659l6.74-2.977l1.9-4.908l-0.755-1.711
		l-4.905-1.901l-9.058,4L4.021,11.2l1.259,2.85c0.111,0.252-0.003,0.548-0.255,0.659c-0.065,0.029-0.132,0.043-0.202,0.043
		c-0.198,0-0.378-0.117-0.458-0.298l-2.5-5.66h0c-0.178-0.41-0.187-0.854-0.029-1.26c0.159-0.409,0.468-0.733,0.87-0.91l14.676-6.48
		C17.597,0.048,17.823,0,18.053,0c0.203,0,0.402,0.038,0.593,0.112c0.41,0.159,0.733,0.468,0.91,0.87l3.238,7.338
		c0.366,0.831-0.011,1.804-0.842,2.17l-9.552,4.219C12.337,14.737,12.269,14.751,12.2,14.751z M20.031,10.245l1.518-0.67
		c0.158-0.07,0.279-0.197,0.342-0.358s0.059-0.337-0.011-0.494l-0.671-1.52L20.031,10.245z M3.109,7.538
		C2.952,7.607,2.83,7.734,2.768,7.895C2.706,8.055,2.71,8.231,2.779,8.388c0.003,0.006,0.012,0.029,0.014,0.035l0.656,1.483
		l1.177-3.038L3.109,7.538z M19.312,2.904l-0.67-1.519c-0.07-0.158-0.196-0.279-0.357-0.341C18.209,1.014,18.131,1,18.052,1
		c-0.089,0-0.177,0.019-0.26,0.055l-1.52,0.671L19.312,2.904z"/>
	<path d="M20.829,24.001c-0.036,0-0.072-0.004-0.106-0.011c-0.13-0.028-0.242-0.105-0.314-0.217
		c-0.073-0.112-0.097-0.246-0.069-0.377l1.241-5.79c0.028-0.131,0.004-0.264-0.069-0.376s-0.184-0.189-0.315-0.218
		C21.163,17.004,21.127,17,21.092,17h-1.453l-1.32,6.598C18.272,23.831,18.066,24,17.829,24c-0.034,0-0.067-0.003-0.1-0.01
		c-0.269-0.054-0.445-0.318-0.391-0.588L18.619,17h-3.637l-0.655,6.55C14.3,23.807,14.086,24,13.829,24
		c-0.015,0-0.031-0.001-0.047-0.002c-0.136-0.013-0.256-0.078-0.341-0.181c-0.084-0.103-0.124-0.233-0.111-0.366L13.976,17H9.681
		l0.645,6.45c0.027,0.275-0.174,0.52-0.448,0.547C9.859,24,9.844,24,9.828,24c-0.258,0-0.472-0.194-0.497-0.45L8.676,17H5.038
		l1.28,6.402c0.054,0.27-0.122,0.534-0.392,0.588C5.896,23.997,5.862,24,5.828,24c-0.238,0-0.444-0.169-0.49-0.402L4.019,17H2.565
		c-0.134,0-0.259,0.052-0.354,0.146c-0.094,0.094-0.146,0.22-0.146,0.353c0,0.036,0.004,0.071,0.011,0.106l1.241,5.79
		c0.028,0.131,0.003,0.264-0.069,0.376c-0.073,0.112-0.185,0.189-0.315,0.217C2.901,23.997,2.865,24,2.828,24
		c-0.234,0-0.439-0.166-0.489-0.395l-1.241-5.79c-0.022-0.104-0.033-0.21-0.033-0.315c0-0.401,0.156-0.777,0.44-1.061
		S2.165,16,2.565,16h18.527c0.107,0,0.213,0.011,0.316,0.033c0.391,0.084,0.727,0.316,0.944,0.652
		c0.218,0.337,0.291,0.738,0.207,1.13l-1.241,5.79C21.268,23.834,21.063,24.001,20.829,24.001L20.829,24.001z"/>
</g>
</svg>
