<?xml version="1.0" encoding="utf-8"?>
<!-- Generator: Adobe Illustrator 22.1.0, SVG Export Plug-In . SVG Version: 6.00 Build 0)  -->
<svg version="1.1" id="Layer_1" xmlns="http://www.w3.org/2000/svg" xmlns:xlink="http://www.w3.org/1999/xlink" x="0px" y="0px"
	 viewBox="0 0 24 24" style="enable-background:new 0 0 24 24;" xml:space="preserve">
<g>
	<title>business-magic-rabbit</title>
	<path d="M7.883,23.753c-0.827,0-1.5-0.673-1.5-1.5c0-0.062,0.004-0.125,0.012-0.186l0.789-6.314H4c-0.276,0-0.5-0.224-0.5-0.5
		s0.224-0.5,0.5-0.5h16c0.276,0,0.5,0.224,0.5,0.5s-0.224,0.5-0.5,0.5h-3.184l0.789,6.314c0.05,0.397-0.058,0.791-0.304,1.107
		c-0.246,0.316-0.601,0.518-0.998,0.567c-0.062,0.008-0.124,0.012-0.186,0.012H7.883z M7.387,22.191
		c-0.002,0.02-0.004,0.041-0.004,0.062c0,0.276,0.224,0.5,0.5,0.5h8.234c0.021,0,0.041-0.001,0.061-0.004
		c0.133-0.017,0.251-0.084,0.333-0.189c0.082-0.105,0.118-0.236,0.101-0.369l-0.429-3.438H7.817L7.387,22.191z M16.058,17.753
		l-0.25-2H8.191l-0.25,2H16.058z"/>
	<path d="M11.991,14.662c-0.893,0-1.76-0.267-2.508-0.771c-0.997-0.672-1.672-1.692-1.901-2.872
		c-0.198-1.016-0.041-2.061,0.442-2.968C7.011,7.283,4.446,5.315,3.647,4.516C2.651,3.52,3.008,2.133,3.761,1.265
		c0.548-0.632,1.325-1.01,2.078-1.01c0.521,0,1.013,0.171,1.461,0.507c0.942,0.706,2.855,3.629,3.734,5.015
		C11.35,5.702,11.674,5.664,12,5.664c0.326,0,0.65,0.038,0.966,0.113c0.879-1.387,2.794-4.31,3.735-5.015
		c0.448-0.336,0.939-0.507,1.46-0.507c0.753,0,1.531,0.377,2.079,1.009c0.753,0.868,1.11,2.255,0.114,3.251
		c-0.799,0.799-3.364,2.767-4.378,3.536c0.787,1.473,0.699,3.226-0.245,4.626c-0.672,0.997-1.692,1.671-2.872,1.9
		C12.573,14.634,12.281,14.662,11.991,14.662z M5.829,1.254c-0.467,0-0.946,0.243-1.313,0.666C4.057,2.449,3.811,3.266,4.354,3.809
		c0.894,0.894,4.251,3.43,4.631,3.716c0.213,0.16,0.263,0.458,0.114,0.679c-0.523,0.775-0.713,1.707-0.534,2.625
		c0.178,0.918,0.703,1.711,1.478,2.234c0.582,0.392,1.256,0.6,1.95,0.6c0.225,0,0.452-0.022,0.675-0.065
		c0.917-0.178,1.711-0.703,2.234-1.478c0.802-1.189,0.802-2.726,0-3.915c-0.149-0.22-0.099-0.519,0.114-0.679
		c1.378-1.038,3.905-2.99,4.631-3.716c0.543-0.543,0.296-1.36-0.162-1.889c-0.367-0.423-0.846-0.666-1.313-0.666
		c-0.305,0-0.598,0.104-0.871,0.308c-0.588,0.441-2.035,2.429-3.688,5.066c-0.093,0.147-0.251,0.234-0.424,0.234
		c-0.055,0-0.11-0.009-0.163-0.027C12.696,6.721,12.352,6.664,12,6.664c-0.351,0-0.696,0.057-1.025,0.171
		c-0.053,0.018-0.107,0.027-0.162,0.027c-0.174,0-0.332-0.088-0.424-0.234C8.736,3.991,7.288,2.003,6.7,1.562
		C6.427,1.358,6.134,1.254,5.829,1.254z"/>
	<circle cx="10.25" cy="10.003" r="0.75"/>
	<circle cx="13.75" cy="10.003" r="0.75"/>
</g>
</svg>
