<?xml version="1.0" encoding="utf-8"?>
<!-- Generator: Adobe Illustrator 22.1.0, SVG Export Plug-In . SVG Version: 6.00 Build 0)  -->
<svg version="1.1" id="Layer_1" xmlns="http://www.w3.org/2000/svg" xmlns:xlink="http://www.w3.org/1999/xlink" x="0px" y="0px"
	 viewBox="0 0 24 24" style="enable-background:new 0 0 24 24;" xml:space="preserve">
<g>
	<title>business-trip-plane</title>
	<path d="M7,11.5c-0.551,0-1-0.449-1-1v-0.02c-2.128-0.154-5.91-1.271-5.999-2.993c-0.02-0.398,0.214-0.856,0.695-1.362
		c0.143-0.151,0.32-0.313,0.525-0.482C1.234,5.632,1.248,5.621,1.262,5.61C2.516,4.591,4.683,3.5,7,3.5h9.819l2.861-2.384
		c0.395-0.397,0.974-0.634,1.572-0.634c0.094,0,0.189,0.006,0.281,0.018H23.5c0.177,0,0.342,0.095,0.431,0.247
		c0.09,0.153,0.091,0.344,0.004,0.498L20.98,6.5h0.52C21.776,6.5,22,6.724,22,7s-0.224,0.5-0.5,0.5h-1.083l-0.981,1.745
		c-0.405,0.688-1.084,1.142-1.867,1.25C17.547,10.498,17.523,10.5,17.5,10.5h-3.803c-0.976,0.904-1.421,1-2.182,1H7z M11.5,10.5
		l0.149,0.001c0.411,0,0.683-0.047,1.647-1.001c-0.755-0.768-0.993-1-1.797-1H9v2H11.5z M7,10.5h1v-2h-1L7,10.5z M17.463,9.5
		c0.464-0.074,0.867-0.348,1.106-0.754L19.271,7.5H18.5C18.225,7.5,18,7.276,18,7s0.224-0.5,0.5-0.5h1.333l2.812-5H21.5
		c-0.023,0-0.047-0.002-0.069-0.005c-0.061-0.009-0.12-0.013-0.179-0.013c-0.335,0-0.663,0.135-0.898,0.371l-3.033,2.53
		C17.231,4.459,17.117,4.5,17,4.5H8.744c-1.586,1.984-3.203,2-6.991,2C1.628,6.609,1.516,6.714,1.42,6.815
		C1.083,7.17,1.001,7.39,1,7.44C1.029,8.008,3.43,9.32,6,9.484V8.5c0-0.551,0.449-1,1-1h4.5c1.232,0,1.695,0.47,2.534,1.324
		c0.099,0.1,0.205,0.208,0.319,0.322c0.097,0.097,0.146,0.225,0.146,0.354H17.463z M7,4.5c-1.529,0-2.869,0.532-3.742,0.992
		C5.381,5.459,6.463,5.293,7.374,4.5H7z"/>
	<path d="M9.5,6.5C9.224,6.5,9,6.276,9,6s0.224-0.5,0.5-0.5H11c0.276,0,0.5,0.224,0.5,0.5S11.276,6.5,11,6.5H9.5z"/>
	<path d="M13.5,6.5C13.225,6.5,13,6.276,13,6s0.224-0.5,0.5-0.5H15c0.276,0,0.5,0.224,0.5,0.5S15.276,6.5,15,6.5H13.5z"/>
	<path d="M12.5,23.5c-0.827,0-1.5-0.673-1.5-1.5v-6c0-0.827,0.673-1.5,1.5-1.5h2.191l0.349-0.698
		c0.293-0.781,1.049-1.304,1.885-1.304c0.033,0,0.067,0.001,0.1,0.002l0.974,0c0.023-0.002,0.059-0.003,0.095-0.003
		c0.824,0,1.572,0.523,1.865,1.304l0.349,0.698H22.5c0.827,0,1.5,0.673,1.5,1.5v6c0,0.827-0.673,1.5-1.5,1.5H12.5z M12,22
		c0,0.276,0.224,0.5,0.5,0.5h10c0.276,0,0.5-0.224,0.5-0.5v-2.5h-5v1c0,0.276-0.224,0.5-0.5,0.5S17,20.776,17,20.5v-1h-5V22z
		 M23,18.5V16c0-0.276-0.224-0.5-0.5-0.5h-10c-0.276,0-0.5,0.224-0.5,0.5v2.5H23z M19.191,14.5l-0.138-0.276
		c-0.009-0.019-0.016-0.036-0.023-0.053c-0.144-0.403-0.525-0.673-0.948-0.673c-0.018,0-0.037,0-0.055,0.001L17,13.5
		c-0.03-0.001-0.047-0.002-0.064-0.002c-0.434,0-0.822,0.269-0.965,0.67c-0.007,0.019-0.014,0.036-0.022,0.053L15.809,14.5H19.191z"
		/>
</g>
</svg>
