<?xml version="1.0" encoding="utf-8"?>
<!-- Generator: Adobe Illustrator 22.1.0, SVG Export Plug-In . SVG Version: 6.00 Build 0)  -->
<svg version="1.1" id="Layer_1" xmlns="http://www.w3.org/2000/svg" xmlns:xlink="http://www.w3.org/1999/xlink" x="0px" y="0px"
	 viewBox="0 0 24 24" style="enable-background:new 0 0 24 24;" xml:space="preserve">
<g>
	<title>business-big-small-fish</title>
	<path d="M9.87,18.512c-0.133,0-0.267-0.004-0.401-0.013c-2.791-0.002-5.254-1.805-6.128-4.439l-1.084,1.253
		c-0.19,0.22-0.466,0.346-0.757,0.346c-0.552-0.001-1-0.45-0.999-1.001V9.342c0-0.29,0.125-0.566,0.345-0.757
		C1.028,8.428,1.26,8.341,1.5,8.341c0.291,0,0.567,0.126,0.757,0.345l1.084,1.253C4.216,7.306,6.685,5.503,9.5,5.5
		c2.862,0,4.694,1.005,5.938,3.258c0.12,0.217,0.061,0.493-0.138,0.642L11.834,12l3.467,2.6c0.199,0.149,0.258,0.426,0.137,0.643
		C14.315,17.259,12.181,18.512,9.87,18.512z M3.592,12.506c0.046,0,0.092,0.006,0.136,0.019c0.184,0.051,0.324,0.207,0.357,0.397
		c0.451,2.65,2.729,4.575,5.417,4.578c0.129,0.008,0.242,0.011,0.355,0.011c1.794,0,3.49-0.908,4.48-2.384L10.701,12.4
		c-0.125-0.094-0.2-0.243-0.2-0.4c0-0.157,0.075-0.306,0.2-0.4l3.642-2.731C13.295,7.211,11.833,6.5,9.501,6.5
		c-2.687,0.003-4.965,1.928-5.416,4.578c-0.032,0.19-0.173,0.346-0.358,0.398c-0.043,0.012-0.089,0.018-0.135,0.018
		c-0.145,0-0.283-0.063-0.378-0.173l-1.713-1.98l0,5.317l1.713-1.979C3.309,12.569,3.447,12.506,3.592,12.506z"/>
	<circle cx="11.501" cy="8.5" r="0.75"/>
	<path d="M7.502,14.191c-0.107,0-0.214-0.017-0.316-0.052c-0.254-0.084-0.459-0.262-0.578-0.501
		c-0.069-0.138-0.106-0.293-0.106-0.448v-2.882c0-0.267,0.104-0.518,0.293-0.707c0.189-0.189,0.44-0.293,0.707-0.293
		c0.155,0,0.31,0.037,0.449,0.106l1.275,0.637c0.12,0.06,0.208,0.162,0.251,0.289s0.033,0.262-0.027,0.382
		C9.363,10.894,9.191,11,9.001,11c-0.077,0-0.154-0.018-0.223-0.053l-1.276-0.638l0,2.882l1.276-0.638
		c0.07-0.035,0.147-0.052,0.223-0.052c0.191,0,0.362,0.106,0.448,0.276c0.06,0.119,0.069,0.255,0.027,0.382
		s-0.131,0.229-0.251,0.289l-1.276,0.638C7.81,14.154,7.655,14.191,7.502,14.191z"/>
	<path d="M21.006,14.501c-0.398,0-0.797-0.098-1.153-0.284c-0.397-0.207-0.724-0.508-0.958-0.879l-0.842,0.56
		c-0.165,0.11-0.356,0.167-0.554,0.167c-0.551,0-1-0.448-1-0.999v-2.133c0-0.197,0.058-0.388,0.167-0.553
		c0.186-0.28,0.498-0.446,0.834-0.446c0.197,0,0.388,0.058,0.553,0.167l0.841,0.561C19.346,9.94,20.129,9.501,21,9.5
		c1.106,0,2.064,0.703,2.394,1.75c0.2,0.637,0.14,1.314-0.168,1.906s-0.83,1.029-1.467,1.229
		C21.514,14.462,21.26,14.501,21.006,14.501z M19.101,12.1c0.057,0,0.113,0.01,0.166,0.028c0.148,0.052,0.264,0.173,0.311,0.321
		c0.198,0.628,0.773,1.05,1.433,1.05c0.152,0,0.302-0.023,0.448-0.069c0.382-0.12,0.695-0.382,0.88-0.737
		c0.185-0.355,0.221-0.761,0.101-1.144c-0.198-0.628-0.772-1.05-1.431-1.05c0,0-0.005,0-0.007,0
		c-0.656,0.001-1.228,0.423-1.423,1.049c-0.047,0.15-0.163,0.27-0.31,0.322c-0.056,0.019-0.111,0.028-0.167,0.028
		c-0.099,0-0.195-0.029-0.277-0.084L17.5,10.933l0,2.132l1.324-0.881C18.906,12.129,19.002,12.1,19.101,12.1z"/>
</g>
</svg>
