<?xml version="1.0" encoding="utf-8"?>
<!-- Generator: Adobe Illustrator 22.1.0, SVG Export Plug-In . SVG Version: 6.00 Build 0)  -->
<svg version="1.1" id="Layer_1" xmlns="http://www.w3.org/2000/svg" xmlns:xlink="http://www.w3.org/1999/xlink" x="0px" y="0px"
	 viewBox="0 0 24 24" style="enable-background:new 0 0 24 24;" xml:space="preserve">
<g>
	<title>business-shark</title>
	<path d="M22.008,18.988c-0.048,0-0.096-0.002-0.145-0.007c-0.397-0.036-0.758-0.225-1.015-0.533l-0.964-1.157
		c-0.019-0.022-0.04-0.044-0.063-0.063c-0.091-0.076-0.202-0.116-0.32-0.116c-0.149,0-0.29,0.065-0.385,0.179l-0.963,1.156
		c-0.058,0.07-0.123,0.134-0.192,0.192c-0.273,0.228-0.603,0.348-0.953,0.348c-0.048,0-0.096-0.002-0.145-0.007
		c-0.397-0.036-0.758-0.225-1.015-0.533l-0.964-1.157c-0.019-0.022-0.04-0.044-0.063-0.063c-0.091-0.076-0.202-0.116-0.32-0.116
		c-0.149,0-0.29,0.065-0.385,0.179l-0.963,1.156c-0.058,0.07-0.123,0.134-0.192,0.192c-0.269,0.224-0.609,0.348-0.958,0.348
		c-0.046,0-0.092-0.002-0.139-0.007c-0.398-0.036-0.759-0.225-1.016-0.533l-0.964-1.157c-0.019-0.023-0.04-0.044-0.064-0.064
		c-0.091-0.075-0.202-0.115-0.322-0.115c-0.015,0-0.03,0-0.045,0.002c-0.131,0.012-0.252,0.075-0.337,0.178l-0.964,1.157
		c-0.059,0.07-0.123,0.135-0.192,0.192c-0.273,0.228-0.603,0.348-0.955,0.348c-0.047,0-0.094-0.002-0.142-0.007
		c-0.398-0.036-0.759-0.225-1.016-0.533l-0.964-1.157c-0.019-0.023-0.04-0.044-0.064-0.064c-0.091-0.075-0.202-0.115-0.322-0.115
		c-0.015,0-0.03,0-0.045,0.002c-0.131,0.012-0.252,0.075-0.337,0.178l-0.964,1.157c-0.059,0.07-0.123,0.135-0.192,0.192
		c-0.269,0.224-0.608,0.348-0.955,0.348c-0.047,0-0.094-0.002-0.142-0.007c-0.398-0.036-0.759-0.225-1.016-0.533l-0.866-1.041
		c-0.085-0.102-0.126-0.232-0.114-0.365c0.012-0.133,0.075-0.253,0.178-0.339c0.089-0.075,0.203-0.116,0.32-0.116
		c0.149,0,0.289,0.066,0.385,0.18l0.866,1.04c0.085,0.102,0.206,0.166,0.339,0.177c0.015,0.001,0.031,0.002,0.046,0.002
		c0.118,0,0.228-0.04,0.319-0.116c0.023-0.019,0.044-0.041,0.063-0.063l0.965-1.158c0.257-0.307,0.618-0.497,1.017-0.533
		c0.046-0.004,0.09-0.006,0.134-0.006c0.351,0,0.693,0.124,0.962,0.348c0.069,0.057,0.133,0.121,0.191,0.19l0.964,1.157
		c0.086,0.103,0.206,0.166,0.339,0.178c0.015,0.001,0.031,0.002,0.046,0.002c0.118,0,0.228-0.04,0.319-0.116
		c0.023-0.019,0.044-0.041,0.063-0.063l0.965-1.158c0.257-0.307,0.618-0.497,1.017-0.533c0.046-0.004,0.09-0.006,0.135-0.006
		c0.351,0,0.693,0.124,0.962,0.348c0.069,0.057,0.133,0.121,0.191,0.19l0.964,1.157c0.086,0.103,0.206,0.166,0.339,0.178
		c0.015,0.001,0.031,0.002,0.046,0.002c0.118,0,0.228-0.04,0.319-0.116c0.023-0.02,0.044-0.041,0.063-0.063l0.964-1.157
		c0.286-0.343,0.706-0.539,1.153-0.539c0.35,0,0.691,0.123,0.96,0.347c0.069,0.057,0.133,0.122,0.191,0.191l0.964,1.158
		c0.085,0.102,0.206,0.166,0.339,0.177c0.014,0.001,0.029,0.002,0.044,0.002c0.118,0,0.232-0.041,0.322-0.116
		c0.023-0.019,0.044-0.04,0.063-0.063l0.964-1.157c0.286-0.343,0.706-0.539,1.153-0.539c0.35,0,0.691,0.123,0.96,0.347
		c0.069,0.057,0.134,0.122,0.191,0.191l0.964,1.158c0.085,0.102,0.206,0.166,0.339,0.177c0.014,0.001,0.029,0.002,0.044,0.002
		c0.119,0,0.23-0.04,0.321-0.116c0.023-0.019,0.044-0.04,0.063-0.063l0.866-1.04c0.095-0.115,0.236-0.18,0.385-0.18
		c0.116,0,0.23,0.041,0.32,0.115c0.103,0.085,0.166,0.206,0.178,0.339c0.012,0.133-0.028,0.263-0.114,0.365l-0.866,1.04
		c-0.058,0.07-0.123,0.134-0.192,0.192C22.687,18.868,22.358,18.988,22.008,18.988L22.008,18.988z"/>
	<path d="M17.282,15.473c-0.137-0.008-0.259-0.068-0.348-0.168s-0.133-0.229-0.125-0.362c0.191-3.121,1.108-6.19,2.659-8.907
		c-7.09,0.346-11.18,4.769-13.373,8.462c-0.09,0.151-0.255,0.245-0.43,0.245l0,0c-0.09,0-0.178-0.024-0.256-0.071
		c-0.114-0.068-0.196-0.177-0.229-0.306c-0.033-0.129-0.014-0.264,0.055-0.379c2.431-4.093,7.029-8.973,15.13-8.973
		c0.182,0,0.35,0.099,0.438,0.259c0.088,0.16,0.082,0.355-0.016,0.509c-1.75,2.766-2.781,5.955-2.98,9.222
		c-0.016,0.263-0.235,0.47-0.499,0.47C17.305,15.474,17.286,15.474,17.282,15.473z"/>
</g>
</svg>
