<?xml version="1.0" encoding="utf-8"?>
<!-- Generator: Adobe Illustrator 22.1.0, SVG Export Plug-In . SVG Version: 6.00 Build 0)  -->
<svg version="1.1" id="Layer_1" xmlns="http://www.w3.org/2000/svg" xmlns:xlink="http://www.w3.org/1999/xlink" x="0px" y="0px"
	 viewBox="0 0 24 24" style="enable-background:new 0 0 24 24;" xml:space="preserve">
<g>
	<title>business-rabbit-hat</title>
	<path d="M7,23.5c-0.401,0-0.777-0.156-1.061-0.438c-0.284-0.283-0.44-0.66-0.44-1.061c0-0.11,0.012-0.22,0.036-0.327L7.127,14.5H4
		c-0.276,0-0.5-0.224-0.5-0.5s0.224-0.5,0.5-0.5h3.5V3c0-1.379,1.121-2.5,2.5-2.5s2.5,1.121,2.5,2.5v2.621
		c0.241-0.08,0.52-0.12,0.834-0.12c0.295,0,0.565,0.037,0.74,0.067l0.049,0.009c1.412,0.308,2.655,1.183,3.416,2.4
		c0.435,0.666,0.86,1.449,0.697,2.182c-0.085,0.382-0.313,0.691-0.678,0.918c-0.017,0.01-0.032,0.019-0.049,0.027
		c-0.313,0.151-0.652,0.251-1.009,0.296V13.5H20c0.276,0,0.5,0.224,0.5,0.5s-0.224,0.5-0.5,0.5h-3.126l1.595,7.175
		c0.087,0.391,0.016,0.793-0.199,1.131c-0.215,0.338-0.549,0.572-0.94,0.659c-0.107,0.024-0.217,0.036-0.326,0.036H7z M6.511,21.891
		c-0.008,0.036-0.012,0.072-0.012,0.109c0,0.133,0.052,0.259,0.147,0.353C6.74,22.448,6.866,22.5,6.999,22.5H17
		c0.038,0,0.077-0.004,0.112-0.012c0.131-0.029,0.242-0.107,0.314-0.22c0.072-0.113,0.095-0.247,0.066-0.377L16.738,18.5H7.264
		L6.511,21.891z M16.516,17.5l-0.667-3H8.151l-0.666,3H16.516z M15.5,13.5v-2.115c-0.566-0.095-1.094-0.33-1.537-0.686
		c-0.286-0.211-0.913-0.71-1.463-1.381V13.5H15.5z M11.5,13.5V3c0-0.827-0.673-1.5-1.5-1.5S8.5,2.173,8.5,3v10.5H11.5z
		 M13.322,6.499c-0.323,0-0.581,0.061-0.708,0.168C12.561,6.712,12.5,6.787,12.5,6.976c0,1.031,1.117,2.223,2.073,2.931
		c0.426,0.342,0.952,0.526,1.49,0.526c0.341,0,0.682-0.076,0.988-0.219c0.155-0.103,0.193-0.204,0.209-0.272
		c0.093-0.42-0.367-1.125-0.564-1.426c-0.624-0.997-1.634-1.71-2.775-1.959l-0.026-0.005C13.695,6.517,13.501,6.499,13.322,6.499z"
		/>
</g>
</svg>
