<?xml version="1.0" encoding="utf-8"?>
<!-- Generator: Adobe Illustrator 22.1.0, SVG Export Plug-In . SVG Version: 6.00 Build 0)  -->
<svg version="1.1" id="Light" xmlns="http://www.w3.org/2000/svg" xmlns:xlink="http://www.w3.org/1999/xlink" x="0px" y="0px"
	 viewBox="0 0 24 24" style="enable-background:new 0 0 24 24;" xml:space="preserve">
<g>
	<title>advertising-megaphone</title>
	<path d="M16.564,23.805c-1.076,0-2.058-0.587-2.563-1.532l-0.131-0.245c-0.522,0.264-1.069,0.551-1.664,0.871l-0.354,0.197
		c-0.423,0.225-0.895,0.343-1.368,0.343c-1.046,0-2.013-0.559-2.53-1.459c-0.016-0.021-0.031-0.042-0.043-0.065
		c-0.368-0.689-0.446-1.474-0.222-2.212c0.224-0.738,0.723-1.344,1.403-1.707c0,0,0.355-0.198,0.358-0.199
		c5.702-3.071,6.826-4.362,8.826-6.988c0.087-0.115,0.197-0.208,0.324-0.276c0.145-0.078,0.308-0.119,0.471-0.119
		c0.098,0,0.196,0.015,0.292,0.043c0.255,0.078,0.465,0.25,0.591,0.486l3.777,7.086c0.068,0.127,0.106,0.265,0.115,0.409
		c0.016,0.267-0.072,0.524-0.249,0.724c-0.177,0.2-0.422,0.319-0.688,0.335c-2.791,0.168-4.353,0.262-8.141,2.086l0.116,0.217
		c0.331,0.619,0.975,1.004,1.68,1.004c0.307,0,0.614-0.076,0.887-0.221c0.071-0.038,0.152-0.059,0.234-0.059
		c0.185,0,0.354,0.102,0.441,0.266c0.063,0.118,0.076,0.253,0.037,0.381c-0.039,0.128-0.126,0.233-0.244,0.295
		C17.502,23.688,17.034,23.805,16.564,23.805z M8.758,21.378c0.014,0.019,0.027,0.039,0.038,0.06
		c0.333,0.618,0.979,1.002,1.687,1.002c0.309,0,0.617-0.077,0.891-0.222l0.351-0.196c0.585-0.315,1.146-0.608,1.673-0.875
		l-1.815-3.386c-0.515,0.293-1.059,0.594-1.657,0.916L9.57,18.874c-0.451,0.241-0.778,0.638-0.924,1.12
		C8.505,20.456,8.545,20.946,8.758,21.378z M14.295,20.704c4.017-1.932,5.736-2.035,8.553-2.204l-3.776-7.085
		c-1.745,2.29-2.848,3.609-6.624,5.844L14.295,20.704z"/>
	<path d="M14.653,12.814c-0.276,0-0.5-0.224-0.5-0.5V8.312c0-0.276,0.224-0.5,0.5-0.5s0.5,0.224,0.5,0.5v4.002
		C15.153,12.59,14.929,12.814,14.653,12.814z"/>
	<path d="M4.153,14.812c-0.551,0-1-0.448-1-1v-5.5c0-0.276,0.224-0.5,0.5-0.5s0.5,0.224,0.5,0.5v5.5h3v-3c0-1.103,0.897-2,2-2
		s2,0.897,2,2v3h1c0.276,0,0.5,0.224,0.5,0.5s-0.224,0.5-0.5,0.5H4.153z M10.153,13.812v-3c0-0.551-0.449-1-1-1s-1,0.449-1,1v3
		H10.153z"/>
	<path d="M0.653,8.812c-0.137,0-0.27-0.057-0.364-0.158C0.197,8.558,0.149,8.431,0.153,8.297C0.157,8.164,0.213,8.04,0.31,7.948
		l7.815-7.355c0.279-0.262,0.644-0.407,1.028-0.407c0.384,0,0.749,0.144,1.028,0.406l7.815,7.355
		c0.201,0.189,0.21,0.506,0.021,0.707c-0.094,0.1-0.227,0.157-0.364,0.157c-0.128,0-0.25-0.048-0.343-0.136L9.495,1.321
		C9.403,1.234,9.281,1.186,9.153,1.186c-0.128,0-0.25,0.048-0.343,0.135L0.996,8.676C0.903,8.764,0.781,8.812,0.653,8.812
		L0.653,8.812z"/>
</g>
</svg>
