<?xml version="1.0" encoding="utf-8"?>
<!-- Generator: Adobe Illustrator 22.1.0, SVG Export Plug-In . SVG Version: 6.00 Build 0)  -->
<svg version="1.1" id="Layer_1" xmlns="http://www.w3.org/2000/svg" xmlns:xlink="http://www.w3.org/1999/xlink" x="0px" y="0px"
	 viewBox="0 0 24 24" style="enable-background:new 0 0 24 24;" xml:space="preserve">
<g>
	<title>currency-yuan -international</title>
	<path d="M12,24c-0.154,0-0.307-0.005-0.459-0.011c-0.011,0.001-0.023,0.002-0.032,0.002c-0.021,0-0.039-0.002-0.054-0.005
		C5.035,23.703,0,18.441,0,12C0,5.554,5.044,0.288,11.482,0.013C11.664,0.006,11.831,0,12,0h0.5C12.776,0,13,0.224,13,0.5v5.963
		c0.002,0.013,0.003,0.026,0.003,0.037c0,0.012-0.001,0.025-0.003,0.039l0,4.924c0.002,0.013,0.003,0.026,0.003,0.037
		c0,0.012-0.001,0.025-0.003,0.039l0,5.924c0.002,0.013,0.003,0.026,0.003,0.037c0,0.012-0.001,0.025-0.003,0.039l0,5.961
		c0,0.276-0.224,0.5-0.5,0.5H12z M11.766,22.995C11.844,22.998,11.922,23,12,23v-5H8.903C9.607,19.692,10.569,21.37,11.766,22.995z
		 M2.787,18c1.738,2.659,4.551,4.449,7.678,4.89C9.36,21.291,8.473,19.649,7.824,18H2.787z M12,17v-5H7.524
		c0.062,1.638,0.395,3.318,0.992,5H12z M7.46,17c-0.563-1.68-0.878-3.36-0.936-5H1c0,1.734,0.417,3.459,1.206,5H7.46z M12,11V7
		H8.211C7.793,8.302,7.56,9.645,7.519,11H12z M6.519,11c0.038-1.353,0.255-2.696,0.645-4H2.206c-0.643,1.253-1.031,2.596-1.158,4
		H6.519z M12,6V1c-0.088,0-0.176,0.003-0.263,0.006C10.35,2.542,9.286,4.22,8.572,6H12z M7.496,6
		c0.64-1.716,1.587-3.351,2.819-4.869C7.251,1.607,4.496,3.385,2.787,6H7.496z"/>
	<path d="M19.504,21c-0.276,0-0.5-0.224-0.5-0.5V16h-3.5c-0.276,0-0.5-0.224-0.5-0.5s0.224-0.5,0.5-0.5h3.5v-2h-3.5
		c-0.276,0-0.5-0.224-0.5-0.5c0-0.276,0.224-0.5,0.5-0.5h3.5v-0.367L15.07,4.748c-0.066-0.116-0.083-0.251-0.048-0.38
		c0.035-0.129,0.118-0.236,0.234-0.302C15.331,4.023,15.417,4,15.504,4c0.179,0,0.345,0.097,0.434,0.252l3.566,6.24l3.566-6.24
		C23.159,4.097,23.325,4,23.504,4c0.087,0,0.173,0.023,0.248,0.066c0.116,0.066,0.199,0.174,0.234,0.302
		c0.035,0.129,0.018,0.264-0.048,0.38l-3.934,6.885V12h3.5c0.276,0,0.5,0.224,0.5,0.5c0,0.276-0.224,0.5-0.5,0.5h-3.5v2h3.5
		c0.276,0,0.5,0.224,0.5,0.5s-0.224,0.5-0.5,0.5h-3.5v4.5C20.004,20.776,19.78,21,19.504,21z"/>
</g>
</svg>
