<?xml version="1.0" encoding="utf-8"?>
<!-- Generator: Adobe Illustrator 22.1.0, SVG Export Plug-In . SVG Version: 6.00 Build 0)  -->
<svg version="1.1" id="Layer_1" xmlns="http://www.w3.org/2000/svg" xmlns:xlink="http://www.w3.org/1999/xlink" x="0px" y="0px"
	 viewBox="0 0 24 24" style="enable-background:new 0 0 24 24;" xml:space="preserve">
<g>
	<title>currency-pound-increase</title>
	<path d="M6.481,14.003c-0.276,0-0.5-0.224-0.5-0.5s0.224-0.5,0.5-0.5c1.428,0,1.5-2.217,1.5-2.661V9H5.978
		c-0.276,0-0.5-0.224-0.5-0.5S5.702,8,5.978,8h2.003V6.3c-0.002-0.04-0.002-0.104,0-0.168c0.05-1.226,1.052-2.186,2.281-2.186
		c0.03,0,0.061,0.001,0.091,0.002c0.609,0.025,1.172,0.286,1.584,0.734c0.413,0.448,0.626,1.03,0.601,1.639
		C12.528,6.589,12.31,6.8,12.041,6.8c-0.156-0.006-0.279-0.063-0.37-0.161c-0.09-0.098-0.137-0.226-0.132-0.359
		c0.014-0.342-0.106-0.669-0.338-0.92c-0.232-0.252-0.548-0.398-0.89-0.412c-0.02-0.001-0.04-0.001-0.059-0.001
		c-0.686,0-1.245,0.54-1.274,1.229c-0.001,0.035-0.001,0.07,0,0.105l0,1.721h1.997c0.276,0,0.5,0.224,0.5,0.5S11.253,9,10.978,9
		H8.981l0,1.342c0,1.079-0.239,2.015-0.667,2.661h3.667c0.276,0,0.5,0.224,0.5,0.5s-0.224,0.5-0.5,0.5H6.481z"/>
	<path d="M1.981,24c-0.143,0-0.279-0.061-0.374-0.168c-0.089-0.1-0.133-0.228-0.125-0.362c0.008-0.133,0.067-0.256,0.167-0.344
		l8.37-7.44c0.276-0.245,0.629-0.38,0.996-0.38c0.339,0,0.672,0.117,0.938,0.33l3.666,2.932c0.087,0.07,0.198,0.108,0.312,0.108
		c0.128,0,0.25-0.047,0.342-0.133L22.212,13h-2.734c-0.276,0-0.5-0.224-0.5-0.5c0-0.276,0.224-0.5,0.5-0.5h4
		c0.01,0,0.021,0.001,0.032,0.002c0.043,0.003,0.085,0.011,0.128,0.026c0.012,0.003,0.024,0.007,0.034,0.011
		c0.067,0.027,0.126,0.068,0.174,0.119c0.096,0.104,0.143,0.239,0.131,0.383l0.001,3.959c0,0.276-0.224,0.5-0.5,0.5
		s-0.5-0.224-0.5-0.5v-2.847l-6.024,5.622c-0.278,0.259-0.642,0.401-1.025,0.401c-0.34,0-0.673-0.116-0.936-0.326l-3.666-2.933
		c-0.09-0.072-0.198-0.111-0.313-0.111c-0.122,0-0.24,0.045-0.332,0.127l-8.37,7.44C2.221,23.955,2.103,24,1.981,24z"/>
	<path d="M4.988,17.008c-0.082,0-0.163-0.02-0.235-0.059c-3.758-2-5.516-5.979-4.478-10.135C1.308,2.675,4.725,0,8.981,0
		c4.968,0.01,9.002,4.059,8.992,9.027c-0.003,1.859-0.571,3.646-1.642,5.167c-0.093,0.133-0.246,0.213-0.409,0.213
		c-0.104,0-0.204-0.032-0.289-0.092c-0.108-0.076-0.181-0.191-0.204-0.323c-0.023-0.132,0.007-0.264,0.084-0.374
		c0.951-1.352,1.456-2.94,1.459-4.594C16.982,4.609,13.396,1.009,8.98,1C4.386,1,1.942,4.263,1.245,7.057
		c-0.7,2.806-0.079,6.85,3.979,9.01c0.243,0.13,0.336,0.433,0.207,0.676C5.343,16.906,5.174,17.008,4.988,17.008z"/>
</g>
</svg>
