<?xml version="1.0" encoding="utf-8"?>
<!-- Generator: Adobe Illustrator 22.1.0, SVG Export Plug-In . SVG Version: 6.00 Build 0)  -->
<svg version="1.1" id="Layer_1" xmlns="http://www.w3.org/2000/svg" xmlns:xlink="http://www.w3.org/1999/xlink" x="0px" y="0px"
	 viewBox="0 0 24 24" style="enable-background:new 0 0 24 24;" xml:space="preserve">
<g>
	<title>currency-dollar-international</title>
	<path d="M12.254,24c-0.135,0-0.268-0.005-0.402-0.01c0,0-0.031,0.002-0.04,0.002c-0.014,0-0.032-0.002-0.049-0.005
		c-4.169-0.165-8.019-2.554-10.038-6.236c-0.005-0.007-0.019-0.028-0.031-0.056c-0.942-1.74-1.44-3.709-1.44-5.695
		c0-0.161,0.005-0.321,0.012-0.481c0-0.006-0.001-0.013-0.001-0.019c0-0.012,0.001-0.025,0.003-0.037
		c0.081-1.825,0.561-3.56,1.426-5.158C1.707,6.277,1.72,6.256,1.729,6.242c2.016-3.676,5.869-6.066,10.051-6.23
		c0.003,0,0.068-0.002,0.068-0.002C11.983,0.005,12.118,0,12.254,0h0.5c0.276,0,0.5,0.224,0.5,0.5v23c0,0.276-0.224,0.5-0.5,0.5
		H12.254z M12.035,22.995C12.108,22.998,12.181,23,12.254,23v-5H8.888C9.62,19.848,10.677,21.526,12.035,22.995z M3.041,18
		c1.717,2.626,4.485,4.407,7.566,4.875C9.408,21.408,8.471,19.772,7.816,18H3.041z M12.254,17v-5h-4.5
		c-0.006,1.705,0.254,3.386,0.773,5H12.254z M7.482,17c-0.489-1.624-0.733-3.304-0.727-5h-5.5c0,1.734,0.417,3.459,1.206,5H7.482z
		 M12.254,11V7H8.527C8.111,8.296,7.86,9.639,7.782,11H12.254z M6.781,11C6.854,9.645,7.09,8.302,7.482,7H2.46
		c-0.643,1.253-1.031,2.596-1.158,4H6.781z M12.254,6V1c-0.073,0-0.146,0.002-0.218,0.005C10.678,2.474,9.62,4.152,8.888,6H12.254z
		 M7.816,6c0.655-1.772,1.593-3.408,2.792-4.875C7.527,1.593,4.758,3.373,3.041,6H7.816z"/>
	<path d="M18.754,22.727c-0.276,0-0.5-0.224-0.5-0.5V20h-2.271c-0.276,0-0.5-0.224-0.5-0.5s0.224-0.5,0.5-0.5h3.9
		c1.607-0.025,2.898-1.356,2.873-2.968c0.007-1.13-0.605-2.153-1.597-2.675l-3.541-1.826c-1.327-0.699-2.144-2.061-2.135-3.557
		c-0.033-2.155,1.7-3.94,3.863-3.973h0.908V1.773c0-0.276,0.224-0.5,0.5-0.5s0.5,0.224,0.5,0.5V4h2c0.276,0,0.5,0.224,0.5,0.5
		S23.53,5,23.254,5h-3.9c-1.606,0.025-2.896,1.356-2.871,2.968c-0.007,1.13,0.605,2.153,1.597,2.675l3.541,1.826
		c1.327,0.699,2.144,2.062,2.135,3.557c0.033,2.155-1.7,3.94-3.864,3.973h-0.639v2.227C19.254,22.503,19.03,22.727,18.754,22.727z"
		/>
</g>
</svg>
