<?xml version="1.0" encoding="utf-8"?>
<!-- Generator: Adobe Illustrator 22.1.0, SVG Export Plug-In . SVG Version: 6.00 Build 0)  -->
<svg version="1.1" id="Layer_1" xmlns="http://www.w3.org/2000/svg" xmlns:xlink="http://www.w3.org/1999/xlink" x="0px" y="0px"
	 viewBox="0 0 24 24" style="enable-background:new 0 0 24 24;" xml:space="preserve">
<g>
	<title>currency-euro-bill</title>
	<path d="M4.498,19c-0.827,0-1.5-0.673-1.5-1.5v-0.92c-1.269-0.552-2.254-1.607-2.717-2.919c-0.443-1.258-0.37-2.613,0.206-3.817
		c0.522-1.09,1.409-1.944,2.511-2.422V6.5c0-0.827,0.673-1.5,1.5-1.5h15c0.827,0,1.5,0.673,1.5,1.5v0.922
		c1.799,0.787,2.998,2.605,3,4.577c-0.001,1.973-1.2,3.792-3,4.579V17.5c0,0.827-0.673,1.5-1.5,1.5H4.498z M4.498,6
		c-0.276,0-0.5,0.224-0.5,0.5v1.262c0,0.212-0.134,0.401-0.334,0.472c-1.006,0.355-1.814,1.08-2.275,2.042
		c-0.461,0.962-0.519,2.046-0.165,3.053c0.404,1.146,1.293,2.035,2.439,2.439c0.2,0.071,0.334,0.26,0.334,0.472V17.5
		c0,0.276,0.224,0.5,0.5,0.5h15c0.276,0,0.5-0.224,0.5-0.5v-1.261c0-0.212,0.134-0.401,0.334-0.471
		c1.593-0.563,2.665-2.078,2.666-3.768c-0.002-1.689-1.073-3.203-2.667-3.766c-0.199-0.07-0.333-0.26-0.333-0.471V6.5
		c0-0.276-0.224-0.5-0.5-0.5H4.498z"/>
	<path d="M13.998,15.5c-1.627,0-3.094-0.997-3.703-2.5H9.502c-0.276,0-0.5-0.224-0.5-0.5c0-0.276,0.224-0.5,0.5-0.5h0.527
		c-0.021-0.166-0.031-0.333-0.031-0.5c0-0.167,0.01-0.334,0.031-0.5H9.502c-0.276,0-0.5-0.224-0.5-0.5s0.224-0.5,0.5-0.5h0.792
		c0.61-1.503,2.076-2.5,3.703-2.5c0.276,0,0.5,0.224,0.5,0.5s-0.224,0.5-0.5,0.5c-1.083,0-2.065,0.578-2.597,1.5h2.101
		c0.276,0,0.5,0.224,0.5,0.5s-0.224,0.5-0.5,0.5h-2.46c-0.03,0.17-0.044,0.337-0.044,0.5s0.015,0.33,0.044,0.5h2.46
		c0.276,0,0.5,0.224,0.5,0.5c0,0.276-0.224,0.5-0.5,0.5h-2.101c0.532,0.922,1.514,1.5,2.597,1.5c0.276,0,0.5,0.224,0.5,0.5
		S14.273,15.5,13.998,15.5z"/>
</g>
</svg>
