<?xml version="1.0" encoding="utf-8"?>
<!-- Generator: Adobe Illustrator 22.1.0, SVG Export Plug-In . SVG Version: 6.00 Build 0)  -->
<svg version="1.1" id="Layer_1" xmlns="http://www.w3.org/2000/svg" xmlns:xlink="http://www.w3.org/1999/xlink" x="0px" y="0px"
	 viewBox="0 0 24 24" style="enable-background:new 0 0 24 24;" xml:space="preserve">
<g>
	<title>currency-pound-international</title>
	<path d="M14.505,21c-0.276,0-0.5-0.224-0.5-0.5s0.224-0.5,0.5-0.5c1.659,0,2.5-1.609,2.5-4.782V13h-2.506
		c-0.276,0-0.5-0.224-0.5-0.5c0-0.276,0.224-0.5,0.5-0.5h2.506V8.462c0-1.93,1.57-3.5,3.5-3.5s3.5,1.57,3.5,3.5
		c0,0.276-0.224,0.5-0.5,0.5s-0.5-0.224-0.5-0.5c0-1.379-1.122-2.5-2.5-2.5s-2.5,1.121-2.5,2.5V12h2.518c0.276,0,0.5,0.224,0.5,0.5
		c0,0.276-0.224,0.5-0.5,0.5h-2.518v2.218c0,2.227-0.416,3.831-1.238,4.782h6.744c0.276,0,0.5,0.224,0.5,0.5s-0.224,0.5-0.5,0.5
		H14.505z"/>
	<path d="M12,24c-0.155,0-0.308-0.005-0.461-0.011c-0.011,0.001-0.023,0.002-0.032,0.002c-0.021,0-0.039-0.002-0.054-0.005
		c-4.16-0.184-7.995-2.583-10-6.264c-0.001-0.002-0.003-0.006-0.003-0.006C0.502,15.971,0,13.994,0,12
		c0-0.143,0.005-0.285,0.01-0.427C0.006,11.554,0.002,11.53,0.002,11.5c0-0.042,0.007-0.075,0.014-0.099
		c0.089-1.809,0.572-3.53,1.435-5.117c0,0,0.001-0.002,0.002-0.003C3.46,2.594,7.302,0.193,11.48,0.013
		c0.004,0,0.022-0.001,0.025-0.001C11.662,0.006,11.83,0,12,0h0.5C12.776,0,13,0.224,13,0.5v5.979
		c0.001,0.007,0.001,0.015,0.001,0.021s0,0.014-0.001,0.021v4.957c0.001,0.007,0.001,0.015,0.001,0.021s0,0.014-0.001,0.021v5.957
		c0.001,0.007,0.001,0.014,0.001,0.021s0,0.014-0.001,0.021V23.5c0,0.276-0.224,0.5-0.5,0.5H12z M11.763,22.995
		C11.842,22.998,11.921,23,12,23v-5H8.901C9.605,19.691,10.566,21.369,11.763,22.995z M2.786,18c1.738,2.658,4.551,4.449,7.676,4.89
		C9.358,21.291,8.471,19.649,7.821,18H2.786z M12,17v-5H7.522c0.062,1.639,0.395,3.318,0.992,5H12z M7.458,17
		c-0.563-1.681-0.878-3.36-0.936-5H1c0,1.734,0.417,3.459,1.206,5H7.458z M12,11V7H8.209C7.79,8.302,7.558,9.645,7.517,11H12z
		 M6.517,11c0.038-1.353,0.255-2.696,0.645-4H2.206c-0.643,1.253-1.031,2.596-1.158,4H6.517z M12,6V1
		c-0.089,0-0.177,0.003-0.265,0.006C10.347,2.542,9.284,4.22,8.569,6H12z M7.494,6c0.64-1.716,1.587-3.351,2.819-4.869
		C7.249,1.608,4.495,3.386,2.786,6H7.494z"/>
</g>
</svg>
