<?xml version="1.0" encoding="utf-8"?>
<!-- Generator: Adobe Illustrator 22.1.0, SVG Export Plug-In . SVG Version: 6.00 Build 0)  -->
<svg version="1.1" id="Layer_1" xmlns="http://www.w3.org/2000/svg" xmlns:xlink="http://www.w3.org/1999/xlink" x="0px" y="0px"
	 viewBox="0 0 24 24" style="enable-background:new 0 0 24 24;" xml:space="preserve">
<g>
	<title>currency-dollar-diamond</title>
	<path d="M7.515,24.008c-0.426,0-0.857-0.037-1.28-0.109c-1.975-0.338-3.699-1.424-4.857-3.059
		c-1.157-1.635-1.609-3.623-1.271-5.598c0.618-3.613,3.726-6.235,7.39-6.235c0.191,0,0.383,0.007,0.574,0.022
		C8.026,8.684,8.003,8.34,8.003,8.001c0-1.194,0.258-2.343,0.768-3.417c0.002-0.007,0.004-0.013,0.007-0.019
		c0.005-0.012,0.012-0.025,0.02-0.038c0.764-1.579,2.049-2.883,3.621-3.675c0.014-0.01,0.032-0.022,0.055-0.031
		c0.008-0.003,0.017-0.007,0.026-0.009c1.099-0.538,2.277-0.81,3.504-0.81s2.406,0.273,3.504,0.811
		c0.008,0.002,0.016,0.005,0.023,0.008c0.026,0.011,0.045,0.023,0.06,0.034c1.563,0.784,2.852,2.09,3.619,3.674
		c0.008,0.013,0.015,0.027,0.021,0.04c0.002,0.005,0.004,0.01,0.005,0.015c0.51,1.074,0.768,2.224,0.768,3.418
		c0,1.195-0.259,2.345-0.769,3.419c-0.003,0.008-0.006,0.017-0.01,0.024c-0.004,0.008-0.01,0.019-0.016,0.029
		c-0.765,1.581-2.05,2.885-3.621,3.676c-0.013,0.01-0.032,0.021-0.055,0.032c-0.01,0.004-0.021,0.008-0.032,0.011
		c-1.083,0.534-2.267,0.809-3.499,0.809c-0.34,0-0.685-0.023-1.031-0.068c0.05,0.623,0.023,1.24-0.08,1.839
		c-0.338,1.975-1.424,3.699-3.059,4.857C10.557,23.531,9.064,24.008,7.515,24.008z M7.495,10.008c-3.174,0-5.867,2.272-6.403,5.402
		c-0.293,1.711,0.098,3.434,1.101,4.851c1.003,1.417,2.498,2.359,4.209,2.652c0.367,0.063,0.741,0.094,1.11,0.094
		c1.342,0,2.636-0.414,3.741-1.196c1.417-1.003,2.359-2.498,2.652-4.209c0.104-0.611,0.118-1.24,0.042-1.871
		c-0.5-0.133-0.987-0.315-1.449-0.541c-0.01-0.003-0.02-0.007-0.029-0.01c-0.024-0.01-0.044-0.024-0.057-0.033
		c-1.561-0.782-2.85-2.089-3.616-3.672c-0.007-0.012-0.014-0.025-0.019-0.035c-0.003-0.008-0.006-0.016-0.009-0.025
		c-0.202-0.423-0.371-0.884-0.497-1.359C8.014,10.024,7.753,10.008,7.495,10.008z M13.325,14.466c0.38,0.158,0.773,0.282,1.173,0.37
		c0.01,0.002,0.023,0.005,0.037,0.009c0.475,0.103,0.974,0.156,1.469,0.156c0.927,0,1.826-0.18,2.678-0.534l-1.186-2.758
		c-0.478,0.194-0.978,0.293-1.491,0.293s-1.014-0.098-1.491-0.293L13.325,14.466z M9.939,11.492c0.603,1.045,1.456,1.91,2.49,2.526
		l1.204-2.799c-0.343-0.253-0.641-0.557-0.889-0.908L9.939,11.492z M19.576,14.018c1.034-0.616,1.888-1.482,2.49-2.526l-2.805-1.18
		c-0.248,0.35-0.546,0.655-0.889,0.908L19.576,14.018z M16.003,5.001c-1.654,0-3,1.346-3,3s1.346,3,3,3s3-1.346,3-3
		S17.657,5.001,16.003,5.001z M22.505,10.591c0.331-0.826,0.498-1.696,0.498-2.59c0-0.894-0.167-1.764-0.498-2.59l-2.768,1.165
		c0.177,0.458,0.266,0.936,0.266,1.425c0,0.489-0.089,0.968-0.266,1.426L22.505,10.591z M9.501,5.411
		C9.17,6.237,9.003,7.107,9.003,8.001c0,0.496,0.054,0.996,0.16,1.486c0,0.002,0.006,0.025,0.006,0.027
		c0.08,0.363,0.192,0.726,0.332,1.077l2.768-1.164c-0.177-0.458-0.266-0.936-0.266-1.426s0.089-0.967,0.266-1.425L9.501,5.411z
		 M12.743,5.691c0.248-0.351,0.546-0.655,0.889-0.908l-1.203-2.799C11.395,2.6,10.542,3.465,9.939,4.51L12.743,5.691z M18.373,4.783
		c0.343,0.253,0.641,0.557,0.889,0.908l2.804-1.181c-0.603-1.045-1.456-1.91-2.49-2.526L18.373,4.783z M16.003,4.001
		c0.513,0,1.014,0.098,1.492,0.293l1.186-2.758c-0.852-0.355-1.751-0.535-2.678-0.535s-1.826,0.18-2.678,0.535l1.186,2.758
		C14.989,4.099,15.489,4.001,16.003,4.001z"/>
	<path d="M2.999,7.501c-0.141,0-0.277-0.062-0.372-0.17L0.649,5.354C0.555,5.26,0.503,5.134,0.503,5.001s0.052-0.259,0.146-0.354
		s0.22-0.146,0.354-0.146s0.259,0.052,0.354,0.146l1.146,1.146c0.109-2.937,2.533-5.293,5.496-5.293c0.276,0,0.5,0.224,0.5,0.5
		s-0.224,0.5-0.5,0.5c-2.412,0-4.386,1.907-4.495,4.292l1.146-1.146c0.094-0.094,0.22-0.146,0.354-0.146s0.259,0.052,0.354,0.146
		s0.146,0.22,0.146,0.354S5.451,5.26,5.356,5.354l-2,2c-0.094,0.094-0.22,0.146-0.354,0.146C3.002,7.501,2.999,7.501,2.999,7.501z"
		/>
	<path d="M15.999,23.501c-0.276,0-0.5-0.224-0.5-0.5s0.224-0.5,0.5-0.5c2.409,0,4.382-1.903,4.495-4.284l-1.137,1.137
		c-0.094,0.094-0.22,0.146-0.354,0.146s-0.259-0.052-0.354-0.146c-0.195-0.195-0.195-0.512,0-0.707l1.988-1.988
		c0.085-0.097,0.221-0.159,0.362-0.159c0.006,0,0.013,0,0.019,0.001c0.129,0.004,0.248,0.056,0.338,0.146l2,2
		c0.195,0.195,0.195,0.512,0,0.707c-0.094,0.094-0.22,0.146-0.354,0.146s-0.259-0.052-0.354-0.146l-1.154-1.154
		C21.39,21.141,18.965,23.501,15.999,23.501z"/>
	<path d="M7.503,21.001c-0.276,0-0.5-0.224-0.5-0.5v-0.5H5.999c-0.276,0-0.5-0.224-0.5-0.5s0.224-0.5,0.5-0.5h2.035
		c0.345,0,0.651-0.207,0.78-0.528c0.084-0.209,0.082-0.438-0.006-0.644c-0.088-0.207-0.252-0.367-0.46-0.451l-2.063-0.825
		C5.583,16.27,5.129,15.6,5.129,14.844c-0.001-1.015,0.825-1.842,1.841-1.844h0.033v-0.5c0-0.276,0.224-0.5,0.5-0.5
		s0.5,0.224,0.5,0.5v0.5h0.996c0.276,0,0.5,0.224,0.5,0.5s-0.224,0.5-0.5,0.5H6.97c-0.224,0-0.435,0.088-0.595,0.248
		c-0.159,0.159-0.247,0.371-0.246,0.595c0,0.345,0.207,0.652,0.528,0.781L8.72,16.45c0.457,0.184,0.815,0.534,1.008,0.987
		c0.193,0.453,0.198,0.953,0.014,1.41c-0.282,0.701-0.952,1.154-1.708,1.154H8.003v0.5C8.003,20.776,7.779,21.001,7.503,21.001z"/>
</g>
</svg>
