<?xml version="1.0" encoding="utf-8"?>
<!-- Generator: Adobe Illustrator 22.1.0, SVG Export Plug-In . SVG Version: 6.00 Build 0)  -->
<svg version="1.1" id="Layer_1" xmlns="http://www.w3.org/2000/svg" xmlns:xlink="http://www.w3.org/1999/xlink" x="0px" y="0px"
	 viewBox="0 0 24 24" style="enable-background:new 0 0 24 24;" xml:space="preserve">
<g>
	<title>currency-euro-circle</title>
	<path d="M12.004,24c-6.617,0-12-5.383-12-12c0-6.617,5.383-12,12-12c6.617,0,12,5.383,12,12C24.004,18.617,18.621,24,12.004,24z
		 M12.004,1c-6.065,0-11,4.935-11,11s4.935,11,11,11s11-4.935,11-11S18.069,1,12.004,1z"/>
	<path d="M14.5,18c-3.852,0-6.135-1.346-6.788-4H6.504c-0.276,0-0.5-0.224-0.5-0.5s0.224-0.5,0.5-0.5h1.042
		C7.515,12.688,7.5,12.358,7.5,12H6.504c-0.276,0-0.5-0.224-0.5-0.5s0.224-0.5,0.5-0.5h1.05c0.483-4.475,4.183-5,6.946-5
		C14.776,6,15,6.224,15,6.5S14.776,7,14.5,7c-3.828,0-5.623,1.2-5.945,4h4.449c0.276,0,0.5,0.224,0.5,0.5s-0.224,0.5-0.5,0.5H8.5
		c0,0.352,0.018,0.687,0.054,1h3.45c0.276,0,0.5,0.224,0.5,0.5s-0.224,0.5-0.5,0.5H8.753c0.613,2.072,2.403,3,5.747,3
		c0.276,0,0.5,0.224,0.5,0.5S14.776,18,14.5,18z"/>
</g>
</svg>
