<?xml version="1.0" encoding="utf-8"?>
<!-- Generator: Adobe Illustrator 22.1.0, SVG Export Plug-In . SVG Version: 6.00 Build 0)  -->
<svg version="1.1" id="Layer_1" xmlns="http://www.w3.org/2000/svg" xmlns:xlink="http://www.w3.org/1999/xlink" x="0px" y="0px"
	 viewBox="0 0 24 24" style="enable-background:new 0 0 24 24;" xml:space="preserve">
<g>
	<title>currency-pound</title>
	<path d="M4.5,24C4.224,24,4,23.776,4,23.5S4.224,23,4.5,23C6.981,23,9,20.981,9,18.5V13H3.504c-0.276,0-0.5-0.224-0.5-0.5
		c0-0.276,0.224-0.5,0.5-0.5H9V6c0-3.308,2.692-6,6-6c3.308,0,6,2.692,6,6c0,0.276-0.224,0.5-0.5,0.5S20,6.276,20,6
		c0-2.757-2.243-5-5-5c-2.757,0-5,2.243-5,5v6h8.504c0.276,0,0.5,0.224,0.5,0.5c0,0.276-0.224,0.5-0.5,0.5H10v5.5
		c0,1.799-0.895,3.479-2.342,4.5H20.5c0.276,0,0.5,0.224,0.5,0.5S20.776,24,20.5,24H4.5z"/>
</g>
</svg>
