<?xml version="1.0" encoding="utf-8"?>
<!-- Generator: Adobe Illustrator 22.1.0, SVG Export Plug-In . SVG Version: 6.00 Build 0)  -->
<svg version="1.1" id="Layer_1" xmlns="http://www.w3.org/2000/svg" xmlns:xlink="http://www.w3.org/1999/xlink" x="0px" y="0px"
	 viewBox="0 0 24 24" style="enable-background:new 0 0 24 24;" xml:space="preserve">
<g>
	<title>currency-yuan-circle</title>
	<path d="M12.004,23.5c-6.341,0-11.5-5.159-11.5-11.5s5.159-11.5,11.5-11.5s11.5,5.159,11.5,11.5S18.345,23.5,12.004,23.5z
		 M12.004,1.5c-5.79,0-10.5,4.71-10.5,10.5c0,5.79,4.71,10.5,10.5,10.5c5.79,0,10.5-4.71,10.5-10.5
		C22.504,6.21,17.794,1.5,12.004,1.5z"/>
	<path d="M12.004,18.5c-0.276,0-0.5-0.224-0.5-0.5v-3.5h-2c-0.276,0-0.5-0.224-0.5-0.5s0.224-0.5,0.5-0.5h2v-1h-2
		c-0.276,0-0.5-0.224-0.5-0.5c0-0.276,0.224-0.5,0.5-0.5h1.54L8.094,7.287C7.936,7.061,7.991,6.749,8.217,6.59
		C8.302,6.531,8.401,6.5,8.504,6.5c0.163,0,0.316,0.08,0.41,0.213l3.09,4.415l3.09-4.415C15.187,6.58,15.341,6.5,15.504,6.5
		c0.103,0,0.202,0.031,0.286,0.09c0.11,0.077,0.183,0.191,0.206,0.323c0.023,0.131-0.006,0.264-0.083,0.373L12.964,11.5h1.54
		c0.276,0,0.5,0.224,0.5,0.5c0,0.276-0.224,0.5-0.5,0.5h-2v1h2c0.276,0,0.5,0.224,0.5,0.5s-0.224,0.5-0.5,0.5h-2V18
		C12.504,18.276,12.28,18.5,12.004,18.5z"/>
</g>
</svg>
