<?xml version="1.0" encoding="utf-8"?>
<!-- Generator: Adobe Illustrator 22.1.0, SVG Export Plug-In . SVG Version: 6.00 Build 0)  -->
<svg version="1.1" id="Layer_1" xmlns="http://www.w3.org/2000/svg" xmlns:xlink="http://www.w3.org/1999/xlink" x="0px" y="0px"
	 viewBox="0 0 24 24" style="enable-background:new 0 0 24 24;" xml:space="preserve">
<g>
	<title>currency-user-exchange</title>
	<path d="M20,14c-0.276,0-0.5-0.224-0.5-0.5V13h-6.996v0.5c0,0.276-0.224,0.5-0.5,0.5c-0.276,0-0.5-0.224-0.5-0.5V13H4.5v0.5
		C4.5,13.776,4.275,14,4,14s-0.5-0.224-0.5-0.5V13c0-0.552,0.449-1,1-1h7.004v-1H7.5C7.224,11,7,10.776,7,10.5
		c0-2.028,1.25-3.857,3.099-4.62C9.258,5.274,8.754,4.308,8.754,3.25c0-1.792,1.458-3.25,3.25-3.25c1.792,0,3.25,1.458,3.25,3.25
		c0,1.06-0.505,2.026-1.348,2.631C15.752,6.647,17,8.474,17,10.5c0,0.276-0.224,0.5-0.5,0.5h-3.996v1H19.5c0.552,0,1,0.448,1,1v0.5
		C20.5,13.776,20.275,14,20,14z M15.969,10C15.721,8.017,14.027,6.5,12,6.5c-2.027,0-3.721,1.517-3.969,3.5H15.969z M12.004,1
		c-1.241,0-2.25,1.009-2.25,2.25s1.009,2.25,2.25,2.25c1.241,0,2.25-1.009,2.25-2.25S13.244,1,12.004,1z"/>
	<path d="M4.004,24c-0.276,0-0.5-0.224-0.5-0.5v-0.564C2.633,22.712,2,21.915,2,21c0-0.276,0.224-0.5,0.5-0.5S3,20.724,3,21
		c0,0.552,0.449,1,1,1s1-0.448,1-1s-0.449-1-1-1c-1.103,0-2-0.897-2-2c0-0.915,0.633-1.712,1.504-1.936V15.5
		c0-0.276,0.224-0.5,0.5-0.5s0.5,0.224,0.5,0.5v0.567C5.37,16.293,6,17.089,6,18c0,0.276-0.224,0.5-0.5,0.5S5,18.276,5,18
		c0-0.552-0.449-1-1-1s-1,0.448-1,1s0.449,1,1,1c1.103,0,2,0.897,2,2c0,0.911-0.63,1.707-1.496,1.933V23.5
		C4.504,23.776,4.279,24,4.004,24z"/>
	<path d="M12.004,24c-0.276,0-0.5-0.224-0.5-0.5V22h-0.5c-0.276,0-0.5-0.224-0.5-0.5s0.224-0.5,0.5-0.5h0.5v-1h-0.5
		c-0.276,0-0.5-0.224-0.5-0.5s0.224-0.5,0.5-0.5h0.399l-1.815-2.723c-0.153-0.229-0.091-0.54,0.139-0.693
		c0.083-0.055,0.179-0.084,0.277-0.084c0.168,0,0.323,0.083,0.416,0.223l1.584,2.376l1.584-2.376
		c0.093-0.139,0.248-0.223,0.416-0.223c0.099,0,0.194,0.029,0.277,0.084c0.23,0.153,0.292,0.464,0.139,0.694L12.605,19h0.399
		c0.276,0,0.5,0.224,0.5,0.5s-0.224,0.5-0.5,0.5h-0.5v1h0.5c0.276,0,0.5,0.224,0.5,0.5s-0.224,0.5-0.5,0.5h-0.5v1.5
		C12.504,23.776,12.279,24,12.004,24z"/>
	<path d="M17.508,24c-0.276,0-0.5-0.224-0.5-0.5s0.224-0.5,0.5-0.5c0.318,0,1-0.862,1-1.264V21h-1.504c-0.276,0-0.5-0.224-0.5-0.5
		s0.224-0.5,0.5-0.5h1.504v-2.334c0-0.908,0.739-1.646,1.646-1.646c0.909,0,1.647,0.739,1.646,1.646c0,0.276-0.224,0.5-0.5,0.5
		s-0.5-0.224-0.5-0.5c0-0.173-0.067-0.335-0.189-0.457s-0.284-0.189-0.456-0.189c-0.357,0-0.646,0.29-0.647,0.646V20h1.996
		c0.276,0,0.5,0.224,0.5,0.5s-0.224,0.5-0.5,0.5h-1.996v0.736c0,0.377-0.185,0.845-0.484,1.264h2.484c0.276,0,0.5,0.224,0.5,0.5
		s-0.224,0.5-0.5,0.5H17.508z"/>
</g>
</svg>
