<?xml version="1.0" encoding="utf-8"?>
<!-- Generator: Adobe Illustrator 22.1.0, SVG Export Plug-In . SVG Version: 6.00 Build 0)  -->
<svg version="1.1" id="Layer_1" xmlns="http://www.w3.org/2000/svg" xmlns:xlink="http://www.w3.org/1999/xlink" x="0px" y="0px"
	 viewBox="0 0 24 24" style="enable-background:new 0 0 24 24;" xml:space="preserve">
<g>
	<title>currency-euro-international</title>
	<path d="M23.5,20c-3.19,0-6.008-2.001-7.069-4.999h-1.802c-0.276,0-0.5-0.224-0.5-0.5s0.224-0.5,0.5-0.5h1.523
		C16.051,13.507,16,13.003,16,12.5c0-0.166,0.006-0.333,0.017-0.499h-1.513c-0.276,0-0.5-0.224-0.5-0.5s0.224-0.5,0.5-0.5h1.649
		C16.861,7.511,19.918,5,23.5,5C23.776,5,24,5.224,24,5.5S23.776,6,23.5,6c-3.022,0-5.635,2.086-6.324,5.001h4.328
		c0.276,0,0.5,0.224,0.5,0.5s-0.224,0.5-0.5,0.5H17.02C17.007,12.17,17,12.337,17,12.5c0,0.504,0.059,1.008,0.176,1.501h4.369
		c0.276,0,0.5,0.224,0.5,0.5s-0.224,0.5-0.5,0.5h-4.043C18.508,17.407,20.874,19,23.5,19c0.276,0,0.5,0.224,0.5,0.5
		S23.776,20,23.5,20z"/>
	<path d="M12,24c-0.153,0-0.305-0.005-0.456-0.011c-0.013,0.001-0.028,0.003-0.034,0.003c-0.022,0-0.042-0.003-0.058-0.006
		C5.031,23.698,0,18.437,0,12c0-0.146,0.005-0.291,0.011-0.436c-0.003-0.014-0.007-0.036-0.007-0.063
		c0-0.036,0.006-0.066,0.011-0.087C0.312,5.279,5.346,0.273,11.487,0.013C11.66,0.006,11.829,0,12,0h0.5C12.776,0,13,0.224,13,0.5
		v5.964c0.002,0.013,0.003,0.026,0.003,0.037c0,0.012-0.001,0.025-0.003,0.039l0,4.924c0.002,0.013,0.003,0.026,0.003,0.037
		c0,0.012-0.001,0.025-0.003,0.039l0,5.924c0.002,0.013,0.003,0.026,0.003,0.037c0,0.012-0.001,0.025-0.003,0.039l0,5.96
		c0,0.276-0.224,0.5-0.5,0.5H12z M11.765,22.995C11.843,22.998,11.921,23,12,23v-4.999H8.903
		C9.607,19.692,10.568,21.37,11.765,22.995z M2.787,18.001c1.738,2.658,4.551,4.448,7.677,4.889
		c-1.105-1.599-1.992-3.241-2.641-4.889H2.787z M12,17.001v-5H7.524c0.062,1.639,0.395,3.318,0.992,5H12z M7.46,17.001
		c-0.563-1.681-0.878-3.36-0.936-5H1c0,1.734,0.417,3.459,1.207,5H7.46z M12,11.001v-4H8.211c-0.418,1.302-0.651,2.645-0.692,4H12z
		 M6.519,11.001c0.038-1.353,0.255-2.696,0.645-4H2.206c-0.642,1.253-1.031,2.596-1.158,4H6.519z M12,6.001V1
		c-0.088,0-0.175,0.003-0.262,0.006C10.35,2.542,9.286,4.221,8.571,6.001H12z M7.496,6.001c0.641-1.717,1.588-3.352,2.82-4.87
		c-3.066,0.476-5.821,2.255-7.53,4.87H7.496z"/>
</g>
</svg>
