<?xml version="1.0" encoding="utf-8"?>
<!-- Generator: Adobe Illustrator 22.1.0, SVG Export Plug-In . SVG Version: 6.00 Build 0)  -->
<svg version="1.1" id="Layer_1" xmlns="http://www.w3.org/2000/svg" xmlns:xlink="http://www.w3.org/1999/xlink" x="0px" y="0px"
	 viewBox="0 0 24 24" style="enable-background:new 0 0 24 24;" xml:space="preserve">
<g>
	<title>ankle-tracker</title>
	<path d="M20.569,23.464c-0.551,0-1-0.448-1-1v-0.936c-0.024-0.42-0.264-0.817-0.641-1.048l-4.972-2.676
		c-0.24,1.435-0.548,2.871-0.919,4.274c-0.091,0.349-0.365,0.624-0.716,0.715c-0.082,0.021-0.167,0.032-0.251,0.032
		c-0.456,0-0.854-0.308-0.968-0.749c-0.37-1.401-0.678-2.836-0.918-4.271l-4.996,2.691c-0.358,0.22-0.594,0.619-0.619,1.062
		l0.001,0.908c0,0.236-0.084,0.465-0.236,0.645c-0.191,0.225-0.469,0.354-0.764,0.354c-0.236,0-0.465-0.084-0.645-0.236
		c-0.667-0.567-2.23-1.893-0.854-3.728c0.097-0.124,0.161-0.213,0.214-0.289c0.362-0.505,0.362-0.505,3.315-2.812
		c0.964-0.753,2.248-1.756,3.971-3.11v-0.757h-0.5c-0.827,0-1.5-0.673-1.5-1.5V6.033c0-0.827,0.673-1.5,1.5-1.5h0.5v-3.5
		c0-0.276,0.224-0.5,0.5-0.5s0.5,0.224,0.5,0.5v3.5h3v-3.5c0-0.276,0.224-0.5,0.5-0.5s0.5,0.224,0.5,0.5v3.5h0.5
		c0.827,0,1.5,0.673,1.5,1.5v4.999c0,0.827-0.673,1.5-1.5,1.5h-0.5v0.753c1.688,1.326,2.954,2.316,3.911,3.063
		c3.01,2.352,3.01,2.352,3.37,2.855c0.055,0.077,0.12,0.168,0.214,0.289c1.381,1.843-0.18,3.168-0.847,3.734
		c-0.181,0.153-0.411,0.238-0.647,0.238H20.569z M10.569,13.532c0,0.155-0.07,0.298-0.191,0.393
		c-1.821,1.431-3.165,2.481-4.164,3.262c-2.839,2.219-2.839,2.219-3.114,2.601c-0.064,0.089-0.135,0.188-0.237,0.319
		c-0.602,0.802-0.424,1.398,0.706,2.357l0-0.936c0.043-0.793,0.462-1.498,1.12-1.901l5.643-3.04c0.073-0.039,0.155-0.06,0.237-0.06
		c0.078,0,0.156,0.019,0.226,0.054c0.145,0.073,0.246,0.213,0.269,0.375l0.039,0.271c0.242,1.539,0.567,3.085,0.966,4.594
		c0.401-1.511,0.726-3.059,0.969-4.601l0.037-0.263c0.023-0.161,0.123-0.302,0.269-0.376c0.071-0.036,0.149-0.054,0.227-0.054
		c0.082,0,0.164,0.021,0.237,0.06l5.62,3.026c0.677,0.414,1.1,1.117,1.142,1.887l0.001,0.963c1.13-0.959,1.307-1.555,0.7-2.365
		c-0.097-0.125-0.169-0.225-0.229-0.309c-0.279-0.39-0.279-0.39-3.158-2.64l-0.05-0.039c-0.989-0.773-2.306-1.803-4.072-3.19
		c-0.121-0.095-0.191-0.239-0.191-0.393v-0.996h-2.257c-0.008,0-0.016,0-0.024-0.001v0.001h-0.719V13.532z M14.069,11.528
		c0.014,0,0.031,0.002,0.047,0.005l0.953-0.001c0.276,0,0.5-0.224,0.5-0.5V6.033c0-0.276-0.224-0.5-0.5-0.5h-1.426
		c0.589,0.606,0.926,1.42,0.926,2.282V9.25c0,0.862-0.337,1.676-0.925,2.282h0.382C14.041,11.529,14.057,11.528,14.069,11.528z
		 M9.069,5.533c-0.276,0-0.5,0.224-0.5,0.5v4.999c0,0.276,0.224,0.5,0.5,0.5h2.24c1.246-0.011,2.261-1.035,2.261-2.282V7.815
		c0-1.258-1.024-2.282-2.282-2.282H9.069z"/>
	<path d="M18.57,10.533c-0.276,0-0.5-0.224-0.5-0.5s0.224-0.5,0.5-0.5c0.552,0,1-0.449,1-1s-0.448-1-1-1c-0.276,0-0.5-0.224-0.5-0.5
		s0.224-0.5,0.5-0.5c1.103,0,2,0.897,2,2S19.672,10.533,18.57,10.533z"/>
	<path d="M18.57,12.533c-0.276,0-0.5-0.224-0.5-0.5s0.224-0.5,0.5-0.5c1.654,0,3-1.346,3-3s-1.346-3-3-3c-0.276,0-0.5-0.224-0.5-0.5
		s0.224-0.5,0.5-0.5c2.206,0,4,1.794,4,4C22.57,10.738,20.775,12.533,18.57,12.533z"/>
	<path d="M5.569,10.533c-1.103,0-2-0.897-2-2s0.897-2,2-2c0.276,0,0.5,0.224,0.5,0.5s-0.224,0.5-0.5,0.5c-0.551,0-1,0.449-1,1
		s0.449,1,1,1c0.276,0,0.5,0.224,0.5,0.5S5.845,10.533,5.569,10.533z"/>
	<path d="M5.569,12.533c-2.206,0-4-1.794-4-4c0-2.206,1.794-4,4-4c0.276,0,0.5,0.224,0.5,0.5s-0.224,0.5-0.5,0.5
		c-1.654,0-3,1.346-3,3s1.346,3,3,3c0.276,0,0.5,0.224,0.5,0.5S5.845,12.533,5.569,12.533z"/>
</g>
</svg>
