<?xml version="1.0" encoding="utf-8"?>
<!-- Generator: Adobe Illustrator 22.1.0, SVG Export Plug-In . SVG Version: 6.00 Build 0)  -->
<svg version="1.1" id="Layer_1" xmlns="http://www.w3.org/2000/svg" xmlns:xlink="http://www.w3.org/1999/xlink" x="0px" y="0px"
	 viewBox="0 0 24 24" style="enable-background:new 0 0 24 24;" xml:space="preserve">
<g>
	<title>artificial-arm</title>
	<path d="M8.498,24c-0.121,0-0.238-0.044-0.329-0.124c-0.208-0.182-0.229-0.499-0.047-0.706l6.226-7.114l-1.038-1.038l-1.949,2.255
		c-0.206,0.239-0.493,0.383-0.808,0.406c-0.029,0.002-0.059,0.003-0.088,0.003c-0.282,0-0.556-0.102-0.771-0.288
		c-0.021-0.018-0.043-0.039-0.065-0.06c-0.034-0.034-0.08-0.053-0.128-0.053c-0.049,0-0.094,0.019-0.129,0.053l-1.728,1.725
		c-0.094,0.094-0.146,0.219-0.146,0.353V20.5c0,0.827-0.673,1.5-1.5,1.5H4.931c-0.137,0-0.27,0.058-0.364,0.158l-1.58,1.684
		C2.892,23.943,2.759,24,2.622,24c-0.127,0-0.249-0.048-0.342-0.135c-0.201-0.188-0.211-0.506-0.023-0.707l1.58-1.684
		C4.12,21.173,4.519,21,4.931,21h1.067c0.276,0,0.5-0.224,0.5-0.5v-1.086c0-0.401,0.156-0.777,0.439-1.06l1.728-1.726
		c0.223-0.222,0.519-0.345,0.835-0.345c0.316,0,0.613,0.123,0.835,0.346c0.045,0.04,0.086,0.055,0.13,0.055
		c0.062-0.004,0.105-0.026,0.138-0.063l1.996-2.31l-2.648-2.647l-9.12,8.209C0.741,19.954,0.622,20,0.498,20
		c-0.142,0-0.277-0.06-0.372-0.166c-0.089-0.099-0.135-0.227-0.127-0.361c0.007-0.133,0.066-0.256,0.165-0.345l10.855-9.77
		c-0.214-0.282-0.306-0.496-0.441-0.831c-0.064-0.159-0.143-0.354-0.261-0.615c-0.772-1.698-0.404-3.725,0.915-5.044l2.282-2.283
		c0.378-0.378,0.88-0.586,1.415-0.586c0.534,0,1.037,0.208,1.414,0.586c0.285,0.285,0.474,0.641,0.549,1.027
		c0.268-0.13,0.562-0.198,0.868-0.198c0.536,0,1.039,0.209,1.417,0.587c0.378,0.379,0.585,0.881,0.585,1.416
		c0,0.036-0.001,0.073-0.003,0.11c0.047-0.003,0.094-0.005,0.14-0.005c0.548,0,1.058,0.216,1.437,0.608
		c0.405,0.419,0.602,0.997,0.551,1.571c0.027-0.001,0.054-0.002,0.082-0.002c0.507,0,0.989,0.189,1.357,0.531
		c0.807,0.751,0.853,2.019,0.103,2.827l-4.61,4.609c-0.452,0.452-1.048,0.709-1.686,0.73l-8.256,9.432
		C8.78,23.938,8.643,24,8.498,24z M15.009,15.303l0.993-1.134c-0.267-0.123-0.512-0.293-0.72-0.501
		c-1.053-1.053-1.843-1.832-2.44-2.422c-0.49-0.483-0.867-0.855-1.151-1.145l-0.991,0.892L15.009,15.303z M12.125,9.112
		c0.284,0.304,0.738,0.752,1.417,1.422c0.6,0.592,1.391,1.373,2.445,2.427c0.283,0.283,0.659,0.438,1.061,0.438
		s0.778-0.156,1.061-0.438l1.268-1.268c-0.328-0.087-0.625-0.255-0.871-0.494c-0.417-0.403-0.634-0.971-0.605-1.544
		c-0.048,0.004-0.095,0.005-0.142,0.005c-0.535,0-1.037-0.208-1.414-0.585c-0.378-0.378-0.586-0.88-0.586-1.415
		c0-0.041,0.001-0.083,0.004-0.125C15.72,7.539,15.678,7.54,15.636,7.54c-0.535,0-1.038-0.208-1.416-0.587
		c-0.378-0.378-0.587-0.881-0.587-1.416S13.842,4.5,14.22,4.122l1.398-1.395c0.005-0.007,0.011-0.013,0.017-0.019
		c0.189-0.189,0.293-0.44,0.293-0.707s-0.104-0.518-0.293-0.707c-0.189-0.189-0.44-0.293-0.707-0.293
		c-0.267,0-0.519,0.104-0.708,0.293l-2.282,2.283c-1.026,1.026-1.312,2.603-0.711,3.923c0.126,0.278,0.21,0.486,0.278,0.654
		c0.145,0.359,0.201,0.498,0.536,0.867c0.011,0.007,0.031,0.022,0.051,0.045C12.102,9.076,12.114,9.095,12.125,9.112z M21.961,6.698
		c-0.255,0-0.497,0.095-0.682,0.267l-2.106,2.11c-0.004,0.004-0.019,0.018-0.023,0.021c-0.353,0.385-0.335,1.01,0.051,1.383
		c0.189,0.182,0.436,0.282,0.695,0.282c0.259,0,0.505-0.1,0.694-0.281l2.117-2.116c0.366-0.394,0.34-1.025-0.064-1.4
		C22.457,6.793,22.216,6.698,21.961,6.698z M19.173,4.833l-2.12,2.12c-0.189,0.189-0.294,0.441-0.294,0.708
		c0,0.267,0.104,0.518,0.293,0.707c0.188,0.188,0.438,0.291,0.704,0.291c0.259,0,0.504-0.098,0.69-0.275l0.01-0.013l2.127-2.124
		c0.401-0.388,0.414-1.024,0.031-1.42c-0.19-0.197-0.445-0.305-0.719-0.305c-0.259,0-0.503,0.098-0.69,0.276
		C19.191,4.813,19.182,4.823,19.173,4.833z M17.759,2.415c-0.267,0-0.518,0.104-0.707,0.292l-2.125,2.121
		c-0.189,0.189-0.293,0.441-0.293,0.709s0.104,0.52,0.294,0.709c0.189,0.189,0.441,0.294,0.709,0.294
		c0.268,0,0.519-0.104,0.708-0.293l2.135-2.138c0.18-0.186,0.281-0.432,0.281-0.692c0-0.267-0.104-0.519-0.293-0.708
		S18.027,2.416,17.759,2.415v-0.25V2.415z"/>
	<path d="M10.331,15.126c-0.201,0-0.389-0.078-0.531-0.22c-0.141-0.142-0.219-0.331-0.219-0.531c0-0.2,0.079-0.389,0.221-0.53
		c0.141-0.141,0.329-0.219,0.529-0.219c0.201,0,0.39,0.078,0.531,0.22c0.29,0.292,0.29,0.767,0,1.059
		C10.72,15.048,10.531,15.126,10.331,15.126z"/>
</g>
</svg>
