<?xml version="1.0" encoding="utf-8"?>
<!-- Generator: Adobe Illustrator 22.1.0, SVG Export Plug-In . SVG Version: 6.00 Build 0)  -->
<svg version="1.1" id="Layer_1" xmlns="http://www.w3.org/2000/svg" xmlns:xlink="http://www.w3.org/1999/xlink" x="0px" y="0px"
	 viewBox="0 0 24 24" style="enable-background:new 0 0 24 24;" xml:space="preserve">
<g>
	<title>bendable-phone-touch</title>
	<path d="M19.031,21.999c-0.827,0-1.5-0.673-1.5-1.5s0.673-1.5,1.5-1.5s1.5,0.673,1.5,1.5S19.858,21.999,19.031,21.999z
		 M19.031,19.999c-0.276,0-0.5,0.224-0.5,0.5s0.224,0.5,0.5,0.5s0.5-0.224,0.5-0.5S19.306,19.999,19.031,19.999z"/>
	<path d="M15.531,23.999c-0.827,0-1.5-0.673-1.5-1.5v-7c0-3.577-2.91-6.493-6.487-6.5C7.339,9,7.15,9.008,6.965,9.024
		c-1.73,0.151-3.297,0.967-4.413,2.297c-0.981,1.169-1.521,2.653-1.521,4.179c0,0.276,0.224,0.5,0.5,0.5h7
		c0.276,0,0.5-0.224,0.5-0.5c-0.002-1.249,0.313-2.49,0.912-3.587c0.088-0.161,0.257-0.26,0.439-0.26
		c0.083,0,0.166,0.021,0.239,0.061c0.242,0.132,0.331,0.436,0.199,0.678c-0.519,0.95-0.792,2.024-0.79,3.106
		c0,0.828-0.673,1.501-1.5,1.501h-7c-0.827,0-1.5-0.673-1.5-1.5c0-1.76,0.623-3.473,1.755-4.822c1.288-1.535,3.096-2.476,5.092-2.65
		C7.078,8.01,7.284,8.001,7.508,8C7.516,8,7.623,7.999,7.623,7.999h8.908c4.135,0,7.5,3.365,7.5,7.5v7c0,0.827-0.673,1.5-1.5,1.5
		H15.531z M12.402,9.807c1.671,1.432,2.629,3.505,2.629,5.693v7c0,0.276,0.224,0.5,0.5,0.5h7c0.276,0,0.5-0.224,0.5-0.5v-7
		c0-3.584-2.916-6.5-6.5-6.5h-5.256c0.379,0.219,0.74,0.471,1.078,0.755C12.374,9.773,12.391,9.792,12.402,9.807z"/>
	<path d="M17.531,17.998c-0.827,0-1.5-0.673-1.5-1.5v-0.75c-0.003-1.605-0.473-3.161-1.359-4.499
		c-0.152-0.23-0.089-0.541,0.141-0.693c0.082-0.054,0.177-0.083,0.276-0.083c0.168,0,0.324,0.084,0.417,0.224
		c0.994,1.502,1.522,3.248,1.525,5.05v0.751c0,0.276,0.224,0.5,0.5,0.5h3c0.276,0,0.5-0.224,0.5-0.5v-0.75
		c0.048-1.068-0.223-2.095-0.784-2.982c-0.071-0.113-0.094-0.246-0.065-0.377s0.108-0.241,0.221-0.313
		c0.079-0.051,0.172-0.078,0.267-0.078c0.173,0,0.331,0.087,0.423,0.233c0.671,1.06,0.996,2.284,0.938,3.539l0,0.727
		c0,0.827-0.673,1.5-1.5,1.5H17.531z"/>
	<path d="M10.673,7.001c-0.443,0-0.879-0.084-1.296-0.25C8.672,6.47,8.08,5.969,7.688,5.328L4.671,6.629
		C4.667,6.63,4.647,6.638,4.643,6.639c-0.431,0.182-0.892,0.276-1.36,0.276c0,0,0,0,0,0c-0.442,0-0.877-0.084-1.292-0.25
		c-0.869-0.346-1.55-1.01-1.92-1.869C0.018,4.674,0.017,4.539,0.066,4.414C0.115,4.29,0.21,4.193,0.333,4.14l9.522-4.1
		c0.062-0.027,0.129-0.041,0.198-0.041c0.2,0,0.38,0.119,0.459,0.303c0.053,0.123,0.055,0.259,0.005,0.383
		c-0.049,0.124-0.144,0.222-0.267,0.274L1.233,4.841c0.278,0.403,0.663,0.71,1.128,0.895c0.298,0.119,0.61,0.179,0.926,0.179
		c0.339,0,0.671-0.069,0.987-0.205l6.201-2.671c0.063-0.027,0.129-0.041,0.198-0.041c0.2,0,0.38,0.119,0.459,0.302
		c0.109,0.254-0.008,0.548-0.261,0.657L8.62,4.927c0.278,0.403,0.663,0.71,1.127,0.895C10.045,5.94,10.357,6,10.673,6
		c0.339,0,0.671-0.069,0.988-0.205l4.363-1.878l-1.386-3.221C14.529,0.444,14.647,0.149,14.9,0.04C14.961,0.013,15.028,0,15.097,0
		c0.202,0,0.382,0.119,0.461,0.302l1.977,4.599c0.109,0.253-0.009,0.548-0.262,0.657c-0.063,0.027-0.129,0.041-0.198,0.041
		c-0.2,0-0.38-0.119-0.459-0.302l-0.198-0.46l-4.363,1.877C11.614,6.904,11.148,7.001,10.673,7.001z"/>
</g>
</svg>
