<?xml version="1.0" encoding="utf-8"?>
<!-- Generator: Adobe Illustrator 22.1.0, SVG Export Plug-In . SVG Version: 6.00 Build 0)  -->
<svg version="1.1" id="Layer_1" xmlns="http://www.w3.org/2000/svg" xmlns:xlink="http://www.w3.org/1999/xlink" x="0px" y="0px"
	 viewBox="0 0 24 24" style="enable-background:new 0 0 24 24;" xml:space="preserve">
<g>
	<title>robot-1</title>
	<path d="M9.016,23.931c-0.276,0-0.5-0.224-0.5-0.5s0.224-0.5,0.5-0.5h2.5v-1.586c-0.59-0.209-1-0.774-1-1.414v-2.133
		c-0.303-0.055-0.609-0.128-0.912-0.218c-0.126,0.295-0.32,0.554-0.572,0.76c-0.362,0.295-0.798,0.452-1.262,0.452
		c-0.067,0-0.135-0.004-0.203-0.01c-0.532-0.053-1.011-0.311-1.349-0.724c-0.338-0.414-0.495-0.934-0.441-1.465
		c0.036-0.361,0.173-0.708,0.392-0.999c-1.203-1.14-2.033-2.574-2.417-4.174c-0.079,0.01-0.158,0.015-0.235,0.015
		c-0.241,0-0.479-0.044-0.707-0.13c-0.5-0.189-0.896-0.561-1.116-1.048s-0.237-1.03-0.048-1.53c0.189-0.5,0.561-0.896,1.048-1.116
		c0.258-0.117,0.534-0.176,0.819-0.176c0.08,0,0.16,0.005,0.239,0.014c0.383-1.602,1.214-3.038,2.418-4.18
		C5.648,2.578,5.626,1.62,6.143,0.901C6.517,0.38,7.125,0.069,7.769,0.069c0.42,0,0.823,0.13,1.165,0.375
		C9.228,0.656,9.46,0.948,9.603,1.282c0.784-0.233,1.595-0.351,2.413-0.351c0.819,0,1.63,0.118,2.414,0.351
		c0.143-0.334,0.375-0.626,0.669-0.837c0.343-0.246,0.745-0.376,1.163-0.376c0.109,0,0.219,0.009,0.327,0.027
		c0.527,0.086,0.989,0.373,1.301,0.807c0.517,0.719,0.495,1.677-0.026,2.368c1.204,1.141,2.034,2.578,2.417,4.179
		c0.08-0.01,0.16-0.014,0.24-0.014c0.285,0,0.56,0.059,0.819,0.176c0.486,0.22,0.858,0.616,1.047,1.116
		c0.189,0.5,0.172,1.043-0.048,1.53c-0.323,0.715-1.039,1.177-1.825,1.177c-0.077,0-0.155-0.005-0.233-0.015
		c-0.384,1.6-1.214,3.034-2.416,4.174c0.049,0.064,0.093,0.131,0.132,0.199c0.552,0.955,0.224,2.18-0.73,2.732
		c-0.304,0.176-0.649,0.268-0.998,0.268c-0.714,0-1.378-0.383-1.735-0.999c-0.039-0.067-0.074-0.138-0.105-0.212
		c-0.303,0.09-0.609,0.163-0.913,0.218v2.133c0,0.64-0.41,1.205-1,1.414v1.586h2.5c0.276,0,0.5,0.224,0.5,0.5s-0.224,0.5-0.5,0.5
		H9.016z M11.516,19.931c0,0.276,0.224,0.5,0.5,0.5c0.276,0,0.5-0.224,0.5-0.5v-2.016c-0.171,0.011-0.337,0.016-0.5,0.016
		s-0.329-0.005-0.5-0.016V19.931z M6.936,16.238c-0.091,0.135-0.147,0.291-0.164,0.453c-0.027,0.266,0.052,0.526,0.221,0.733
		c0.169,0.207,0.408,0.335,0.674,0.362c0.035,0.004,0.069,0.005,0.103,0.005c0.231,0,0.449-0.078,0.63-0.226
		c0.11-0.09,0.197-0.201,0.259-0.329C8.048,16.973,7.47,16.638,6.936,16.238z M15.4,17.29c0.134,0.232,0.35,0.398,0.608,0.467
		c0.085,0.023,0.173,0.034,0.26,0.034c0.174,0,0.346-0.047,0.499-0.135c0.231-0.133,0.396-0.349,0.465-0.607
		c0.069-0.259,0.034-0.528-0.1-0.759c-0.01-0.018-0.021-0.035-0.034-0.053c-0.535,0.401-1.114,0.736-1.726,1
		C15.381,17.256,15.39,17.273,15.4,17.29z M12.016,1.93c-4.135,0-7.5,3.365-7.5,7.5c0,4.136,3.365,7.5,7.5,7.5
		c4.135,0,7.5-3.365,7.5-7.5C19.516,5.295,16.152,1.93,12.016,1.93z M3.503,8.436c-0.14,0-0.274,0.029-0.399,0.085
		c-0.502,0.227-0.727,0.82-0.5,1.323c0.11,0.243,0.308,0.429,0.558,0.524c0.11,0.042,0.225,0.063,0.343,0.063
		c0.023,0,0.047-0.001,0.07-0.003C3.536,10.095,3.516,9.76,3.516,9.43c0-0.327,0.02-0.66,0.059-0.992
		C3.551,8.437,3.527,8.436,3.503,8.436z M20.518,10.428c0.393,0,0.75-0.229,0.91-0.584c0.227-0.502,0.003-1.096-0.5-1.323
		c-0.125-0.056-0.259-0.085-0.398-0.085c-0.024,0-0.048,0.001-0.073,0.003c0.039,0.332,0.059,0.665,0.059,0.992
		c0,0.329-0.02,0.662-0.059,0.996C20.477,10.427,20.498,10.428,20.518,10.428z M15.373,1.624c0.61,0.263,1.188,0.598,1.722,0.997
		c0.227-0.34,0.229-0.796-0.015-1.136c-0.156-0.217-0.387-0.36-0.65-0.403c-0.055-0.009-0.11-0.013-0.165-0.013
		c-0.208,0-0.409,0.065-0.581,0.188C15.551,1.352,15.445,1.478,15.373,1.624z M7.77,1.068c-0.055,0-0.109,0.004-0.164,0.013
		C7.342,1.125,7.111,1.268,6.955,1.485C6.711,1.824,6.713,2.281,6.939,2.62C7.473,2.221,8.05,1.887,8.661,1.624
		C8.589,1.478,8.482,1.351,8.35,1.256C8.179,1.133,7.978,1.068,7.77,1.068z"/>
	<path d="M8.516,11.43c-1.103,0-2-0.897-2-2s0.897-2,2-2s2,0.897,2,2S9.619,11.43,8.516,11.43z M8.516,8.43c-0.551,0-1,0.449-1,1
		s0.449,1,1,1s1-0.449,1-1S9.068,8.43,8.516,8.43z"/>
	<path d="M15.516,11.43c-1.103,0-2-0.897-2-2s0.897-2,2-2s2,0.897,2,2S16.619,11.43,15.516,11.43z M15.516,8.43
		c-0.552,0-1,0.449-1,1s0.448,1,1,1s1-0.449,1-1S16.068,8.43,15.516,8.43z"/>
</g>
</svg>
