<?xml version="1.0" encoding="utf-8"?>
<!-- Generator: Adobe Illustrator 22.1.0, SVG Export Plug-In . SVG Version: 6.00 Build 0)  -->
<svg version="1.1" id="Layer_1" xmlns="http://www.w3.org/2000/svg" xmlns:xlink="http://www.w3.org/1999/xlink" x="0px" y="0px"
	 viewBox="0 0 24 24" style="enable-background:new 0 0 24 24;" xml:space="preserve">
<g>
	<title>virtual-tap-finger</title>
	<path d="M15.5,17.5c-0.134,0-0.259-0.052-0.354-0.146S15,17.134,15,17s0.052-0.259,0.146-0.354l4.5-4.5
		C19.741,12.052,19.866,12,20,12s0.259,0.052,0.354,0.146S20.5,12.366,20.5,12.5s-0.052,0.259-0.146,0.354l-4.5,4.5
		C15.759,17.448,15.634,17.5,15.5,17.5z"/>
	<path d="M7.5,17.5c-0.134,0-0.259-0.052-0.354-0.146l-4.5-4.5C2.552,12.759,2.5,12.634,2.5,12.5s0.052-0.259,0.146-0.354
		S2.866,12,3,12s0.259,0.052,0.354,0.146l4.5,4.5C7.948,16.741,8,16.866,8,17s-0.052,0.259-0.146,0.354S7.634,17.5,7.5,17.5z"/>
	<path d="M7.5,24C6.673,24,6,23.327,6,22.5v-1C6,20.122,7.121,19,8.5,19c0-1.654,1.346-3,3-3c1.654,0,3,1.346,3,3h3
		c1.378,0,2.5,1.122,2.5,2.5v1c0,0.827-0.673,1.5-1.5,1.5H7.5z M8.5,20C7.673,20,7,20.673,7,21.5v1C7,22.776,7.224,23,7.5,23h11
		c0.276,0,0.5-0.224,0.5-0.5v-1c0-0.827-0.673-1.5-1.5-1.5h-3.174c-0.421,1.187-1.557,2-2.826,2c-1.269,0-2.405-0.813-2.826-2H8.5z
		 M11.5,17c-1.103,0-2,0.897-2,2s0.897,2,2,2s2-0.897,2-2S12.603,17,11.5,17z"/>
	<path d="M21,7.5c-0.276,0-0.5-0.224-0.5-0.5V1.5C20.5,1.224,20.276,1,20,1H4C3.724,1,3.5,1.224,3.5,1.5V7
		c0,0.276-0.224,0.5-0.5,0.5S2.5,7.276,2.5,7V1.5C2.5,0.673,3.173,0,4,0h16c0.827,0,1.5,0.673,1.5,1.5V7
		C21.5,7.276,21.276,7.5,21,7.5z"/>
	<circle cx="11.5" cy="19" r="0.75"/>
	<path d="M8.171,12.5c-0.135,0-0.267-0.056-0.36-0.154l-1.441-1.5c-0.018-0.019-0.034-0.039-0.049-0.06
		c-0.23-0.328-0.318-0.726-0.249-1.12C6.141,9.272,6.36,8.928,6.688,8.698C6.943,8.519,7.24,8.425,7.549,8.425
		c0.405,0,0.785,0.16,1.071,0.451L9,9.284V5c0.035-0.439,0.217-0.799,0.528-1.062c0.27-0.229,0.614-0.354,0.968-0.354
		c0.042,0,0.083,0.002,0.125,0.005c0.733,0.062,1.309,0.637,1.37,1.369l0.001,2.887h1.494c1.739,0.001,3.155,1.416,3.157,3.154
		c0,0.134-0.052,0.259-0.146,0.354c-0.094,0.095-0.22,0.147-0.354,0.147c-0.276,0-0.5-0.224-0.5-0.499
		c-0.001-1.188-0.969-2.155-2.157-2.156h-1.994c-0.276,0-0.5-0.224-0.5-0.5V5c-0.019-0.207-0.215-0.395-0.455-0.415
		c-0.016-0.001-0.031-0.002-0.046-0.002c-0.117,0-0.227,0.041-0.319,0.119c-0.102,0.086-0.164,0.207-0.175,0.34L10,10.556
		c0,0.207-0.125,0.39-0.317,0.465c-0.058,0.023-0.12,0.035-0.183,0.035c-0.138,0-0.271-0.058-0.366-0.159l-1.237-1.33
		c-0.088-0.09-0.212-0.142-0.346-0.142c-0.104,0-0.203,0.032-0.289,0.092C7.152,9.593,7.079,9.708,7.056,9.839
		c-0.021,0.121,0.002,0.243,0.065,0.347l1.41,1.467c0.191,0.199,0.185,0.516-0.014,0.707C8.424,12.45,8.301,12.5,8.171,12.5z"/>
</g>
</svg>
