<?xml version="1.0" encoding="utf-8"?>
<!-- Generator: Adobe Illustrator 22.1.0, SVG Export Plug-In . SVG Version: 6.00 Build 0)  -->
<svg version="1.1" id="Layer_1" xmlns="http://www.w3.org/2000/svg" xmlns:xlink="http://www.w3.org/1999/xlink" x="0px" y="0px"
	 viewBox="0 0 24 24" style="enable-background:new 0 0 24 24;" xml:space="preserve">
<g>
	<title>virtual-box</title>
	<path d="M11.5,12.5c-0.056,0-0.112-0.011-0.172-0.033c-0.008-0.003-0.039-0.016-0.047-0.02c-0.015-0.006-0.029-0.012-0.042-0.021
		l-4.433-2.71C6.622,9.638,6.5,9.458,6.5,9.258V3.601c0-0.196,0.112-0.37,0.289-0.452l4.426-3.06C11.3,0.031,11.398,0,11.5,0
		c0.102,0,0.2,0.031,0.284,0.088l4.5,3.101c0.012,0.008,0.041,0.032,0.051,0.042c0.002,0.002,0.025,0.024,0.028,0.026
		c0.038,0.04,0.069,0.086,0.092,0.137c0.003,0.007,0.01,0.024,0.012,0.031c0.017,0.047,0.027,0.094,0.031,0.139
		C16.499,3.577,16.5,3.589,16.5,3.601v5.657c0,0.019-0.004,0.048-0.009,0.07c-0.003,0.021-0.008,0.052-0.019,0.085
		c-0.011,0.032-0.023,0.058-0.038,0.085c-0.017,0.03-0.033,0.054-0.053,0.079c-0.023,0.027-0.045,0.047-0.063,0.062
		c-0.014,0.015-0.033,0.031-0.058,0.046l-4.499,2.741c-0.013,0.008-0.04,0.021-0.055,0.026c-0.004,0.002-0.017,0.008-0.032,0.013
		C11.612,12.489,11.556,12.5,11.5,12.5z M12,11.11l3.5-2.133V4.491L12,6.624V11.11z M11,11.108V6.623l-3.5-2.14v4.485L11,11.108z
		 M11.5,5.757l3.581-2.182L11.5,1.108L7.932,3.575L11.5,5.757z"/>
	<path d="M15.5,17.5c-0.134,0-0.259-0.052-0.354-0.146S15,17.134,15,17s0.052-0.259,0.146-0.354l4.5-4.5
		C19.741,12.052,19.866,12,20,12s0.259,0.052,0.354,0.146S20.5,12.366,20.5,12.5s-0.052,0.259-0.146,0.354l-4.5,4.5
		C15.759,17.448,15.634,17.5,15.5,17.5z"/>
	<path d="M7.5,17.5c-0.134,0-0.259-0.052-0.354-0.146l-4.5-4.5C2.552,12.759,2.5,12.634,2.5,12.5s0.052-0.259,0.146-0.354
		S2.866,12,3,12s0.259,0.052,0.354,0.146l4.5,4.5C7.948,16.741,8,16.866,8,17s-0.052,0.259-0.146,0.354S7.634,17.5,7.5,17.5z"/>
	<path d="M7.5,24C6.673,24,6,23.327,6,22.5v-1C6,20.122,7.121,19,8.5,19c0-1.654,1.346-3,3-3c1.654,0,3,1.346,3,3h3
		c1.378,0,2.5,1.122,2.5,2.5v1c0,0.827-0.673,1.5-1.5,1.5H7.5z M8.5,20C7.673,20,7,20.673,7,21.5v1C7,22.776,7.224,23,7.5,23h11
		c0.276,0,0.5-0.224,0.5-0.5v-1c0-0.827-0.673-1.5-1.5-1.5h-3.174c-0.421,1.187-1.557,2-2.826,2c-1.269,0-2.405-0.813-2.826-2H8.5z
		 M11.5,17c-1.103,0-2,0.897-2,2s0.897,2,2,2s2-0.897,2-2S12.603,17,11.5,17z"/>
	<circle cx="11.5" cy="19" r="0.75"/>
</g>
</svg>
