<?xml version="1.0" encoding="utf-8"?>
<!-- Generator: Adobe Illustrator 22.1.0, SVG Export Plug-In . SVG Version: 6.00 Build 0)  -->
<svg version="1.1" id="Layer_1" xmlns="http://www.w3.org/2000/svg" xmlns:xlink="http://www.w3.org/1999/xlink" x="0px" y="0px"
	 viewBox="0 0 24 24" style="enable-background:new 0 0 24 24;" xml:space="preserve">
<g>
	<title>virtual-house</title>
	<path d="M7.521,24c-0.827,0-1.5-0.673-1.5-1.5v-1c0-1.378,1.121-2.5,2.5-2.5h0.5c0-1.654,1.346-3,3-3s3,1.346,3,3h2.5
		c1.378,0,2.5,1.122,2.5,2.5v1c0,0.827-0.673,1.5-1.5,1.5H7.521z M8.521,20c-0.827,0-1.5,0.673-1.5,1.5v1c0,0.276,0.224,0.5,0.5,0.5
		h11c0.276,0,0.5-0.224,0.5-0.5v-1c0-0.827-0.673-1.5-1.5-1.5h-2.674c-0.421,1.187-1.557,2-2.826,2c-1.269,0-2.405-0.813-2.826-2
		H8.521z M12.021,17c-1.103,0-2,0.897-2,2s0.897,2,2,2c1.103,0,2-0.897,2-2S13.124,17,12.021,17z"/>
	<path d="M16.021,17.5c-0.134,0-0.259-0.052-0.354-0.146s-0.146-0.22-0.146-0.354s0.052-0.259,0.146-0.354l4.5-4.5
		C20.262,12.052,20.388,12,20.521,12s0.259,0.052,0.354,0.146s0.146,0.22,0.146,0.354s-0.052,0.259-0.146,0.354l-4.5,4.5
		C16.28,17.448,16.155,17.5,16.021,17.5z"/>
	<path d="M8.021,17.5c-0.134,0-0.259-0.052-0.354-0.146l-4.5-4.5c-0.094-0.094-0.146-0.22-0.146-0.354s0.052-0.259,0.146-0.354
		S3.388,12,3.521,12s0.259,0.052,0.354,0.146l4.5,4.5c0.094,0.094,0.146,0.22,0.146,0.354s-0.052,0.259-0.146,0.354
		S8.155,17.5,8.021,17.5z"/>
	<path d="M10.521,11c-0.089,0-0.177-0.024-0.254-0.069c-0.152-0.089-0.246-0.255-0.246-0.431v-5c0-0.176,0.094-0.341,0.246-0.431
		C10.345,5.024,10.432,5,10.521,5c0.085,0,0.169,0.022,0.243,0.063l4.5,2.5C15.423,7.651,15.521,7.819,15.521,8
		s-0.099,0.349-0.257,0.437l-4.5,2.5C10.69,10.978,10.606,11,10.521,11z M11.021,9.65L13.992,8l-2.97-1.65V9.65z"/>
	<path d="M12.021,19.75c-0.414,0-0.75-0.336-0.75-0.75s0.336-0.75,0.75-0.75c0.414,0,0.75,0.336,0.75,0.75
		S12.435,19.75,12.021,19.75z"/>
	<path d="M7.521,13c-0.827,0-1.5-0.673-1.5-1.5V7c0-0.276,0.224-0.5,0.5-0.5s0.5,0.224,0.5,0.5v4.5c0,0.276,0.224,0.5,0.5,0.5h9
		c0.276,0,0.5-0.224,0.5-0.5V7c0-0.276,0.224-0.5,0.5-0.5s0.5,0.224,0.5,0.5v4.5c0,0.827-0.673,1.5-1.5,1.5H7.521z"/>
	<path d="M4.521,6.5c-0.159,0-0.309-0.076-0.403-0.204C3.955,6.073,4.003,5.76,4.226,5.597l7.5-5.5C11.812,0.033,11.914,0,12.021,0
		s0.209,0.033,0.296,0.097l7.5,5.5c0.222,0.163,0.27,0.477,0.107,0.699C19.83,6.424,19.68,6.5,19.521,6.5
		c-0.107,0-0.209-0.033-0.295-0.096L12.021,1.12L4.817,6.403C4.73,6.467,4.628,6.5,4.521,6.5C4.521,6.5,4.521,6.5,4.521,6.5z"/>
</g>
</svg>
