<?xml version="1.0" encoding="utf-8"?>
<!-- Generator: Adobe Illustrator 22.1.0, SVG Export Plug-In . SVG Version: 6.00 Build 0)  -->
<svg version="1.1" id="Layer_1" xmlns="http://www.w3.org/2000/svg" xmlns:xlink="http://www.w3.org/1999/xlink" x="0px" y="0px"
	 viewBox="0 0 24 24" style="enable-background:new 0 0 24 24;" xml:space="preserve">
<g>
	<title>webcam</title>
	<path d="M6.496,24.037c-0.335,0-0.653-0.11-0.919-0.317c-0.652-0.508-0.77-1.453-0.261-2.105c0.029-0.037,0.059-0.072,0.091-0.106
		l2.515-2.938c-0.002-0.023-0.004-0.047-0.004-0.071v-1.44c-3.043-1.516-5-4.663-5-8.06c0-4.963,4.037-9,9-9s9,4.037,9,9
		c0,3.398-1.957,6.544-5,8.06v1.44c0,0.025-0.001,0.049-0.004,0.073l2.531,2.953c0.01,0.01,0.036,0.041,0.062,0.073
		c0.513,0.647,0.404,1.592-0.244,2.106c-0.263,0.209-0.594,0.324-0.931,0.324c-0.462,0-0.891-0.207-1.177-0.568l-2.288-2.669
		C13.641,23.425,12.698,24,11.917,24c-0.781,0-1.725-0.576-1.949-3.208l-2.301,2.684c-0.234,0.302-0.586,0.5-0.984,0.549
		C6.621,24.033,6.558,24.037,6.496,24.037z M6.15,22.177c-0.024,0.026-0.036,0.039-0.046,0.053c-0.169,0.218-0.13,0.532,0.087,0.702
		C6.28,23,6.385,23.037,6.497,23.037c0.021,0,0.042-0.001,0.063-0.004c0.132-0.017,0.25-0.083,0.332-0.189l2.44-2.846
		c-0.361-0.021-0.7-0.171-0.957-0.42L6.15,22.177z M16.926,22.826c0.105,0.132,0.251,0.203,0.406,0.203
		c0.113,0,0.219-0.037,0.308-0.107c0.216-0.171,0.252-0.486,0.081-0.702c-0.007-0.008-2.263-2.64-2.263-2.64
		c-0.257,0.249-0.595,0.399-0.956,0.419L16.926,22.826z M10.926,20c0.065,2.206,0.548,3,0.991,3c0.443,0,0.927-0.794,0.991-3H10.926
		z M8.917,18.5c0,0.276,0.224,0.5,0.5,0.5h5c0.276,0,0.5-0.224,0.5-0.5v-1.017c-0.965,0.343-1.972,0.517-3,0.517
		c-1.028,0-2.035-0.174-3-0.517V18.5z M8.918,1.585C5.912,2.804,3.917,5.74,3.917,9c0,4.411,3.589,8,8,8c4.411,0,8-3.589,8-8
		c0-3.261-1.995-6.197-5.001-7.415C14.867,2.99,13.621,4,11.917,4C10.213,4,8.967,2.99,8.918,1.585z M9.917,1.5
		c0,0.869,0.841,1.5,2,1.5s2-0.631,2-1.5V1.256C13.261,1.086,12.59,1,11.917,1c-0.673,0-1.345,0.086-2,0.256V1.5z"/>
	<circle cx="11.917" cy="9" r="0.75"/>
	<path d="M11.917,13c-2.206,0-4-1.794-4-4s1.794-4,4-4s4,1.794,4,4S14.123,13,11.917,13z M11.917,6c-1.654,0-3,1.346-3,3
		s1.346,3,3,3c1.654,0,3-1.346,3-3S13.571,6,11.917,6z"/>
</g>
</svg>
