<?xml version="1.0" encoding="utf-8"?>
<!-- Generator: Adobe Illustrator 22.1.0, SVG Export Plug-In . SVG Version: 6.00 Build 0)  -->
<svg version="1.1" id="Light" xmlns="http://www.w3.org/2000/svg" xmlns:xlink="http://www.w3.org/1999/xlink" x="0px" y="0px"
	 viewBox="0 0 24 24" style="enable-background:new 0 0 24 24;" xml:space="preserve">
<g>
	<title>real-estate-location-house-pin-1</title>
	<path d="M13,24c-0.552,0-1-0.448-1-1v-5.614l-1.177,0.996C10.732,18.458,10.617,18.5,10.5,18.5c-0.148,0-0.287-0.065-0.382-0.177
		c-0.178-0.209-0.152-0.526,0.059-0.704l5.854-4.953c0.271-0.23,0.615-0.356,0.969-0.356s0.698,0.127,0.969,0.357l5.854,4.952
		c0.211,0.178,0.237,0.495,0.059,0.705c-0.095,0.112-0.234,0.177-0.382,0.177c-0.118,0-0.232-0.042-0.322-0.118L22,17.386V23
		c0,0.552-0.448,1-1,1H13z M21,23v-6.46l-3.677-3.111C17.232,13.352,17.117,13.31,17,13.31c-0.118,0-0.232,0.042-0.323,0.119
		L13,16.54V23h2v-2.5c0-1.103,0.897-2,2-2s2,0.897,2,2V23H21z M18,23v-2.5c0-0.552-0.448-1-1-1s-1,0.448-1,1V23H18z"/>
	<path d="M7.998,23.58c-0.191,0-0.377-0.055-0.538-0.158c-0.12-0.076-0.224-0.181-0.302-0.301C5.479,20.495,0,11.648,0,8
		c0-4.411,3.589-8,8-8c4.411,0,8,3.589,8,8c-0.071,1.116-0.319,2.185-0.739,3.192c-0.077,0.187-0.258,0.308-0.462,0.308
		c-0.066,0-0.131-0.013-0.192-0.038c-0.123-0.051-0.219-0.148-0.27-0.271c-0.051-0.124-0.051-0.259,0.001-0.383
		c0.376-0.905,0.599-1.861,0.662-2.84C15,4.133,11.859,1,8,1C4.14,1,1,4.14,1,8c0,3.376,5.358,12.014,7,14.581
		c0.228-0.356,0.599-0.941,1.074-1.713c0.091-0.149,0.25-0.238,0.426-0.238c0.093,0,0.183,0.026,0.262,0.074
		c0.114,0.07,0.193,0.18,0.224,0.31c0.031,0.13,0.009,0.264-0.061,0.378c-0.479,0.779-0.854,1.37-1.084,1.728
		C8.657,23.408,8.341,23.58,7.998,23.58z"/>
	<path d="M8,11.5c-1.93,0-3.5-1.57-3.5-3.5S6.07,4.5,8,4.5s3.5,1.57,3.5,3.5S9.93,11.5,8,11.5z M8,5.5C6.621,5.5,5.5,6.621,5.5,8
		s1.121,2.5,2.5,2.5s2.5-1.121,2.5-2.5S9.378,5.5,8,5.5z"/>
</g>
</svg>
