<?xml version="1.0" encoding="utf-8"?>
<!-- Generator: Adobe Illustrator 22.1.0, SVG Export Plug-In . SVG Version: 6.00 Build 0)  -->
<svg version="1.1" id="Light" xmlns="http://www.w3.org/2000/svg" xmlns:xlink="http://www.w3.org/1999/xlink" x="0px" y="0px"
	 viewBox="0 0 24 24" style="enable-background:new 0 0 24 24;" xml:space="preserve">
<g>
	<title>stairs-person-decend-1</title>
	<path d="M8,5C6.621,5,5.5,3.879,5.5,2.5S6.621,0,8,0s2.5,1.121,2.5,2.5S9.378,5,8,5z M8,1C7.173,1,6.5,1.673,6.5,2.5S7.173,4,8,4
		s1.5-0.673,1.5-1.5S8.827,1,8,1z"/>
	<path d="M7,21.5c-0.827,0-1.5-0.673-1.5-1.5v-9.379L4.06,12.061c-0.287,0.277-0.659,0.428-1.049,0.428
		c-0.389,0-0.759-0.15-1.041-0.422c-0.288-0.278-0.451-0.652-0.458-1.053c-0.007-0.401,0.143-0.78,0.421-1.068l2.92-2.92
		C5.497,6.377,6.4,6.003,7.329,6H9.4c0.693,0,1.362,0.202,1.936,0.583l0.273,0.187c1.811,1.205,2.893,3.227,2.891,5.406V13
		c0,0.827-0.673,1.5-1.5,1.5s-1.5-0.673-1.5-1.5v-0.824c0.002-0.92-0.365-1.804-1-2.452v4.447c0,0.134,0.052,0.26,0.147,0.354
		l2.914,2.914c0.569,0.589,0.571,1.506,0.006,2.09c-0.284,0.295-0.667,0.457-1.079,0.457l0,0c-0.391,0-0.761-0.149-1.042-0.42
		c0,0-2.937-2.938-2.946-2.946V20C8.5,20.827,7.827,21.5,7,21.5z M6,8.914c0.066,0,0.13,0.013,0.191,0.038
		C6.379,9.03,6.5,9.211,6.5,9.414V20c0,0.276,0.224,0.5,0.5,0.5s0.5-0.224,0.5-0.5v-5.811c0.001-0.295,0.225-0.519,0.5-0.519
		c0.276,0,0.5,0.225,0.5,0.5c0.002,0.67,0.269,1.308,0.731,1.768l2.915,2.915c0.089,0.085,0.21,0.134,0.34,0.134
		c0.138,0,0.266-0.054,0.361-0.153c0.188-0.195,0.188-0.5,0-0.695l-2.908-2.908c-0.284-0.283-0.44-0.66-0.44-1.062V8.7
		c0-0.185,0.101-0.354,0.264-0.441C9.835,8.22,9.917,8.2,10,8.2c0.099,0,0.195,0.029,0.278,0.084l0.219,0.146
		c1.257,0.836,2.006,2.237,2.004,3.747V13c0,0.276,0.224,0.5,0.5,0.5s0.5-0.224,0.5-0.5v-0.824c0.002-1.844-0.913-3.555-2.449-4.576
		l-0.274-0.188C10.371,7.143,9.896,7,9.404,7H7.329c-0.666,0.005-1.31,0.272-1.767,0.731l-2.915,2.915
		c-0.088,0.091-0.137,0.216-0.134,0.35c0.002,0.134,0.056,0.258,0.152,0.351c0.094,0.091,0.218,0.141,0.347,0.141
		s0.253-0.05,0.347-0.141L5.646,9.06C5.741,8.966,5.866,8.914,6,8.914z"/>
	<path d="M10,24c-0.276,0-0.5-0.224-0.5-0.5V22c0-0.552,0.449-1,1-1h5v-2c0-0.552,0.448-1,1-1H22c0.276,0,0.5,0.224,0.5,0.5
		S22.275,19,22,19h-5.5v2.5c0,0.276-0.224,0.5-0.5,0.5h-5.5v1.5C10.5,23.776,10.276,24,10,24z"/>
</g>
</svg>
