<?xml version="1.0" encoding="utf-8"?>
<!-- Generator: Adobe Illustrator 22.1.0, SVG Export Plug-In . SVG Version: 6.00 Build 0)  -->
<svg version="1.1" id="Light" xmlns="http://www.w3.org/2000/svg" xmlns:xlink="http://www.w3.org/1999/xlink" x="0px" y="0px"
	 viewBox="0 0 24 24" style="enable-background:new 0 0 24 24;" xml:space="preserve">
<g>
	<title>stairs-person-ascend</title>
	<path d="M11.5,24c-0.276,0-0.5-0.224-0.5-0.5V20c0-0.552,0.449-1,1-1h3v-3c0-0.552,0.448-1,1-1h3v-3c0-0.551,0.448-1,1-1h3.5
		c0.276,0,0.5,0.224,0.5,0.5S23.776,12,23.5,12H20v3.5c0,0.276-0.224,0.5-0.5,0.5H16v3.5c0,0.276-0.224,0.5-0.5,0.5H12v3.5
		C12,23.776,11.776,24,11.5,24z"/>
	<path d="M17.5,24c-0.134,0-0.259-0.052-0.354-0.146S17,23.634,17,23.5s0.052-0.259,0.146-0.354L22.293,18H20.5
		c-0.276,0-0.5-0.224-0.5-0.5s0.224-0.5,0.5-0.5h3c0.066,0,0.13,0.013,0.191,0.039c0.123,0.051,0.219,0.147,0.27,0.27
		C23.987,17.37,24,17.434,24,17.5v3c0,0.276-0.224,0.5-0.5,0.5S23,20.776,23,20.5v-1.793l-5.146,5.146
		C17.759,23.948,17.634,24,17.5,24z"/>
	<path d="M3.593,22c-0.057,0-0.114-0.005-0.171-0.015c-0.263-0.045-0.493-0.19-0.647-0.409c-0.154-0.218-0.214-0.483-0.168-0.746
		L4,12.757v-2.724l-1,0.792V12.5C3,13.327,2.327,14,1.5,14S0,13.327,0,12.5V9.707C0,9.444,0.106,9.186,0.292,9l2.271-2.267
		C3.034,6.26,3.662,6,4.33,6h4.6c0.837,0,1.615,0.416,2.08,1.112l1.161,1.743l0.874-0.438c0.198-0.096,0.406-0.144,0.624-0.144
		c0.506,0,0.978,0.269,1.231,0.701c0.193,0.328,0.246,0.711,0.15,1.079c-0.096,0.368-0.329,0.676-0.657,0.869l-2.315,1.323
		c-0.15,0.086-0.321,0.131-0.494,0.131c-0.267,0-0.518-0.103-0.706-0.291L10,11.207v1.642l1.916,2.874
		C11.971,15.805,12,15.901,12,16v2c0,0.276-0.224,0.5-0.5,0.5S11,18.276,11,18v-1.849l-1.916-2.874C9.029,13.195,9,13.099,9,13v-3
		c0-0.203,0.121-0.384,0.309-0.462C9.369,9.513,9.434,9.5,9.5,9.5c0.133,0,0.259,0.052,0.354,0.146l1.73,1.73l2.308-1.321
		c0.093-0.055,0.162-0.146,0.19-0.255c0.029-0.109,0.013-0.223-0.044-0.321c-0.075-0.129-0.216-0.208-0.367-0.208
		c-0.064,0-0.125,0.014-0.182,0.042l-1.264,0.633C12.155,9.982,12.077,10,12,10c-0.168,0-0.323-0.083-0.416-0.223l-1.406-2.11
		C9.899,7.25,9.433,7,8.93,7h-4.6c-0.4,0-0.777,0.156-1.06,0.44l-2.27,2.267L1,12.5C1,12.776,1.224,13,1.5,13S2,12.776,2,12.5
		v-1.917c0-0.154,0.069-0.297,0.19-0.392l2-1.583C4.278,8.538,4.388,8.5,4.5,8.5c0.075,0,0.15,0.017,0.217,0.049
		C4.889,8.633,5,8.809,5,9v3.8c0,0.029-0.002,0.058-0.007,0.086L3.593,21h1.03l1.896-6.637c0.055-0.192,0.218-0.333,0.416-0.358
		C6.956,14.001,6.979,14,7.002,14c0.174,0,0.337,0.093,0.427,0.243l1.5,2.5C8.975,16.82,9,16.909,9,17v1.5C9,18.776,8.776,19,8.5,19
		S8,18.776,8,18.5v-1.361l-0.836-1.393l-1.579,5.529C5.463,21.701,5.067,22,4.623,22H3.593z"/>
	<path d="M7,5C5.621,5,4.5,3.879,4.5,2.5S5.621,0,7,0s2.5,1.121,2.5,2.5S8.379,5,7,5z M7,1C6.173,1,5.5,1.673,5.5,2.5S6.173,4,7,4
		s1.5-0.673,1.5-1.5S7.827,1,7,1z"/>
</g>
</svg>
