<?xml version="1.0" encoding="utf-8"?>
<!-- Generator: Adobe Illustrator 22.1.0, SVG Export Plug-In . SVG Version: 6.00 Build 0)  -->
<svg version="1.1" id="Light" xmlns="http://www.w3.org/2000/svg" xmlns:xlink="http://www.w3.org/1999/xlink" x="0px" y="0px"
	 viewBox="0 0 24 24" style="enable-background:new 0 0 24 24;" xml:space="preserve">
<g>
	<title>stairs-person-ascend-1</title>
	<path d="M0.5,16.5c-0.2,0-0.38-0.118-0.459-0.302c-0.053-0.123-0.055-0.259-0.006-0.383c0.049-0.124,0.144-0.222,0.267-0.275
		l2.28-0.985c0.062-0.027,0.129-0.041,0.198-0.041c0.2,0,0.38,0.119,0.459,0.302c0.053,0.123,0.055,0.259,0.006,0.383
		c-0.049,0.124-0.144,0.222-0.267,0.275l-2.28,0.985C0.635,16.486,0.568,16.5,0.5,16.5z"/>
	<path d="M10.5,24c-0.276,0-0.5-0.224-0.5-0.5V22c0-0.552,0.449-1,1-1h3.983v-2c0-0.552,0.448-1,1-1h3v-2c0-0.552,0.448-1,1-1H23.5
		c0.276,0,0.5,0.224,0.5,0.5S23.775,16,23.5,16h-3.517v2.5c0,0.276-0.224,0.5-0.5,0.5h-3.5v2.5c0,0.276-0.224,0.5-0.5,0.5H11v1.5
		C11,23.776,10.775,24,10.5,24z"/>
	<path d="M15.929,9.837c-0.2,0-0.38-0.119-0.459-0.302c-0.109-0.253,0.008-0.548,0.261-0.657l6.571-2.837
		C22.365,6.014,22.431,6,22.499,6c0.2,0,0.38,0.119,0.459,0.302c0.109,0.253-0.008,0.548-0.261,0.657l-6.571,2.837
		C16.064,9.823,15.997,9.837,15.929,9.837z"/>
	<path d="M7.804,5c-1.379,0-2.5-1.121-2.5-2.5S6.425,0,7.804,0s2.5,1.121,2.5,2.5S9.182,5,7.804,5z M7.804,1
		c-0.827,0-1.5,0.673-1.5,1.5S6.976,4,7.804,4s1.5-0.673,1.5-1.5S8.631,1,7.804,1z"/>
	<path d="M4.887,22.065c-0.298,0-0.594-0.078-0.857-0.226c-0.841-0.474-1.14-1.543-0.667-2.384l1.33-2.354
		c0.123-0.216,0.178-0.46,0.16-0.706l-0.153-2.087c-0.006-0.083-0.006-0.162,0-0.242l0.29-4.413L4.737,9.823
		c-0.503,0.339-0.788,0.926-0.744,1.531c0.034,0.466-0.116,0.917-0.421,1.271c-0.306,0.354-0.731,0.567-1.197,0.601
		c-0.043,0.003-0.086,0.005-0.129,0.005c-0.911,0-1.677-0.713-1.744-1.623C0.365,9.754,1.238,7.956,2.779,6.916l0.693-0.467
		C4.259,5.919,5.173,5.64,6.116,5.64c0.265,0,0.533,0.023,0.797,0.067l1.886,0.32c1.472,0.2,2.682,1.265,3.073,2.712
		c0.039,0.143,0.153,0.258,0.296,0.299l1.527,0.449c0.016,0.003,0.032,0.007,0.047,0.011c0.449,0.132,0.819,0.431,1.043,0.841
		c0.224,0.411,0.275,0.884,0.143,1.333c-0.132,0.449-0.43,0.819-0.841,1.043c-0.257,0.141-0.546,0.215-0.836,0.215
		c-0.167,0-0.334-0.024-0.496-0.072l-1.571-0.462C9.886,12.019,8.857,10.974,8.5,9.669C8.499,9.664,8.497,9.658,8.495,9.653
		L8.357,11.83c0.543,0.204,1.239,0.491,2.118,0.873c1.241,0.54,2.195,1.587,2.617,2.873l0.87,2.643
		c0.147,0.451,0.111,0.926-0.101,1.343c-0.212,0.417-0.573,0.727-1.017,0.872c-0.134,0.045-0.276,0.073-0.421,0.083
		c-0.041,0.002-0.08,0.004-0.119,0.004c0,0,0,0,0,0c-0.76,0-1.431-0.483-1.668-1.201l-0.872-2.651
		c-0.111-0.339-0.361-0.614-0.686-0.756c-0.272-0.118-0.528-0.228-0.773-0.33l0.041,0.561c0.068,0.938-0.14,1.865-0.604,2.683
		l-1.329,2.347C6.186,21.58,5.811,21.874,5.361,22C5.206,22.043,5.047,22.065,4.887,22.065z M5.551,8.249
		c0.11,0,0.219,0.037,0.306,0.104C5.988,8.455,6.06,8.615,6.05,8.781l-0.351,5.351c-0.002,0.036-0.002,0.07,0,0.104l0.153,2.084
		c0.032,0.445-0.067,0.885-0.287,1.273l-1.329,2.352c-0.098,0.174-0.122,0.376-0.068,0.57c0.054,0.194,0.18,0.354,0.354,0.452
		c0.112,0.063,0.238,0.096,0.366,0.096c0.272,0,0.524-0.146,0.656-0.382l1.33-2.348c0.366-0.645,0.531-1.377,0.476-2.117l-0.1-1.366
		c-0.012-0.173,0.064-0.338,0.203-0.44c0.086-0.063,0.188-0.096,0.295-0.096c0.064,0,0.126,0.012,0.186,0.036
		c0.472,0.188,0.976,0.4,1.544,0.646c0.588,0.256,1.039,0.752,1.237,1.361l0.872,2.649c0.102,0.308,0.389,0.514,0.714,0.514
		c0.018,0,0.036,0,0.054-0.002c0.062-0.004,0.122-0.016,0.178-0.035c0.192-0.063,0.348-0.196,0.439-0.375
		c0.09-0.178,0.106-0.38,0.045-0.569l-0.873-2.652c-0.333-1.015-1.086-1.841-2.066-2.268c-1.058-0.459-1.846-0.779-2.408-0.977
		c-0.21-0.074-0.347-0.281-0.333-0.503l0.205-3.231c0.009-0.141,0.078-0.272,0.188-0.36c0.088-0.07,0.198-0.108,0.31-0.108
		c0.029,0,0.058,0.003,0.086,0.008L8.437,8.5C8.922,8.56,9.33,8.916,9.465,9.404c0.266,0.973,1.033,1.752,2,2.033l1.573,0.462
		c0.07,0.021,0.142,0.031,0.213,0.031c0.124,0,0.248-0.032,0.358-0.092c0.176-0.096,0.304-0.255,0.36-0.447
		c0.057-0.193,0.035-0.395-0.061-0.572c-0.09-0.165-0.236-0.288-0.412-0.349c-0.012-0.003-0.025-0.006-0.037-0.009l-1.57-0.462
		c-0.474-0.137-0.85-0.519-0.981-0.996c-0.286-1.06-1.173-1.839-2.259-1.987L6.746,6.693C6.538,6.658,6.327,6.64,6.117,6.64
		c-0.744,0-1.466,0.221-2.087,0.638L3.338,7.745c-1.244,0.84-1.949,2.293-1.839,3.791c0.015,0.2,0.106,0.382,0.258,0.513
		c0.138,0.119,0.308,0.182,0.491,0.182c0.018,0,0.036-0.001,0.055-0.002c0.199-0.015,0.381-0.106,0.512-0.258
		c0.131-0.152,0.195-0.345,0.181-0.545c-0.069-0.962,0.384-1.894,1.183-2.433l0.694-0.466C5.036,8.42,5.211,8.335,5.392,8.275
		C5.444,8.258,5.497,8.249,5.551,8.249z"/>
</g>
</svg>
