<?xml version="1.0" encoding="utf-8"?>
<!-- Generator: Adobe Illustrator 22.1.0, SVG Export Plug-In . SVG Version: 6.00 Build 0)  -->
<svg version="1.1" id="Light" xmlns="http://www.w3.org/2000/svg" xmlns:xlink="http://www.w3.org/1999/xlink" x="0px" y="0px"
	 viewBox="0 0 24 24" style="enable-background:new 0 0 24 24;" xml:space="preserve">
<g>
	<title>real-estate-action-house-remove</title>
	<path d="M4,23.269c-0.551,0-1-0.448-1-1v-10.5c0-0.276,0.224-0.5,0.5-0.5s0.5,0.224,0.5,0.5v10.5h7.5c0.276,0,0.5,0.224,0.5,0.5
		s-0.224,0.5-0.5,0.5H4z"/>
	<path d="M0.5,11.769c-0.14,0-0.275-0.059-0.369-0.163c-0.09-0.099-0.136-0.226-0.13-0.36c0.006-0.133,0.064-0.256,0.162-0.347
		l10.826-9.884C11.267,0.761,11.626,0.621,12,0.621s0.733,0.14,1.011,0.394l10.826,9.884c0.099,0.09,0.156,0.213,0.163,0.347
		s-0.04,0.261-0.131,0.36c-0.094,0.103-0.229,0.163-0.369,0.163c-0.125,0-0.245-0.047-0.337-0.131L12.337,1.754
		C12.244,1.669,12.124,1.622,12,1.622c-0.124,0-0.243,0.047-0.337,0.132L0.837,11.638C0.745,11.722,0.625,11.769,0.5,11.769z"/>
	<path d="M11,9.269c-0.551,0-1-0.449-1-1v-2c0-0.551,0.449-1,1-1h2c0.552,0,1,0.449,1,1v2c0,0.551-0.448,1-1,1H11z M11,8.269h2v-2
		h-2L11,8.269z"/>
	<path d="M17.5,23.27c-3.584,0-6.5-2.916-6.5-6.5s2.916-6.5,6.5-6.5s6.5,2.916,6.5,6.5S21.084,23.27,17.5,23.27z M17.5,11.27
		c-3.033,0-5.5,2.467-5.5,5.5s2.467,5.5,5.5,5.5s5.5-2.467,5.5-5.5S20.533,11.27,17.5,11.27z"/>
	<path d="M19.621,19.391c-0.134,0-0.259-0.052-0.354-0.146L17.5,17.476l-1.768,1.768c-0.094,0.094-0.22,0.146-0.354,0.146
		s-0.259-0.052-0.354-0.146c-0.195-0.195-0.195-0.512,0-0.707l1.768-1.768l-1.768-1.768c-0.195-0.195-0.195-0.512,0-0.707
		c0.094-0.094,0.22-0.146,0.354-0.146s0.259,0.052,0.354,0.146l1.768,1.768l1.768-1.768c0.094-0.094,0.22-0.146,0.354-0.146
		s0.259,0.052,0.354,0.146c0.195,0.195,0.195,0.512,0,0.707l-1.768,1.768l1.768,1.768c0.195,0.195,0.195,0.512,0,0.707
		C19.88,19.339,19.755,19.391,19.621,19.391z"/>
</g>
</svg>
