<?xml version="1.0" encoding="utf-8"?>
<!-- Generator: Adobe Illustrator 22.1.0, SVG Export Plug-In . SVG Version: 6.00 Build 0)  -->
<svg version="1.1" id="Light" xmlns="http://www.w3.org/2000/svg" xmlns:xlink="http://www.w3.org/1999/xlink" x="0px" y="0px"
	 viewBox="0 0 24 24" style="enable-background:new 0 0 24 24;" xml:space="preserve">
<g>
	<title>real-estate-action-house-star</title>
	<path d="M4,23.411c-0.551,0-1-0.448-1-1v-10.5c0-0.276,0.224-0.5,0.5-0.5s0.5,0.224,0.5,0.5v10.5h7c0.276,0,0.5,0.224,0.5,0.5
		s-0.224,0.5-0.5,0.5H4z"/>
	<path d="M0.5,11.911c-0.14,0-0.275-0.059-0.369-0.163c-0.09-0.099-0.136-0.226-0.13-0.36c0.006-0.133,0.064-0.256,0.162-0.347
		l10.826-9.884C11.267,0.903,11.627,0.763,12,0.763c0.374,0,0.733,0.14,1.012,0.395l10.825,9.884
		c0.099,0.09,0.156,0.213,0.163,0.347s-0.04,0.261-0.131,0.36c-0.094,0.103-0.229,0.163-0.369,0.163
		c-0.125,0-0.245-0.047-0.337-0.131L12.338,1.896c-0.094-0.085-0.213-0.132-0.338-0.132s-0.244,0.047-0.337,0.132L0.837,11.78
		C0.745,11.864,0.625,11.911,0.5,11.911z"/>
	<path d="M11.001,9.411c-0.551,0-1-0.449-1-1v-2c0-0.551,0.449-1,1-1h2c0.552,0,1,0.449,1,1v2c0,0.551-0.448,1-1,1H11.001z
		 M11.001,8.411h2v-2h-2L11.001,8.411z"/>
	<path d="M13.63,23.41c-0.459,0-0.886-0.246-1.115-0.643c-0.199-0.345-0.226-0.77-0.073-1.137l1.298-2.989l-2.329-2.074
		c-0.509-0.451-0.556-1.232-0.105-1.741c0.238-0.268,0.564-0.416,0.919-0.416l0.052,0.001l2.651,0l1.411-3.268
		c0.178-0.339,0.446-0.564,0.782-0.666c0.124-0.038,0.251-0.057,0.38-0.057c0.209,0,0.419,0.053,0.606,0.152
		c0.228,0.121,0.413,0.306,0.535,0.535c0.003,0.006,0.015,0.03,0.018,0.037l1.409,3.268l2.706-0.001
		c0.659,0,1.196,0.521,1.222,1.186c0.014,0.37-0.136,0.724-0.412,0.97l-2.33,2.075l1.296,2.982c0.275,0.659-0.035,1.415-0.688,1.688
		c-0.157,0.065-0.323,0.098-0.494,0.098l0,0c-0.227,0-0.449-0.059-0.643-0.171l-3.224-1.82l-3.234,1.823
		C14.074,23.351,13.853,23.41,13.63,23.41z M12.237,15.41c-0.074,0-0.137,0.027-0.182,0.079c-0.041,0.047-0.062,0.107-0.058,0.169
		c0.004,0.062,0.032,0.12,0.078,0.161l2.601,2.316c0.162,0.144,0.212,0.374,0.126,0.573l-1.44,3.314
		c-0.031,0.075-0.024,0.17,0.019,0.245c0.051,0.088,0.146,0.142,0.248,0.142c0.05,0,0.099-0.013,0.142-0.038l3.484-1.963
		c0.074-0.042,0.159-0.064,0.245-0.064s0.171,0.022,0.246,0.064l3.474,1.961c0.046,0.027,0.096,0.04,0.148,0.04
		c0.038,0,0.075-0.007,0.11-0.022c0.144-0.06,0.213-0.227,0.152-0.373l-1.437-3.307c-0.086-0.199-0.036-0.429,0.126-0.573l2.6-2.315
		c0.052-0.047,0.081-0.114,0.078-0.184c-0.005-0.126-0.112-0.225-0.243-0.225l-3.014,0c-0.2,0-0.38-0.119-0.459-0.302l-1.535-3.56
		c-0.017-0.028-0.058-0.068-0.108-0.095c-0.043-0.023-0.09-0.035-0.137-0.035c-0.029,0-0.058,0.004-0.086,0.013
		c-0.076,0.023-0.137,0.074-0.174,0.143l-1.523,3.534c-0.079,0.183-0.259,0.302-0.459,0.302L12.237,15.41z"/>
</g>
</svg>
