<?xml version="1.0" encoding="utf-8"?>
<!-- Generator: Adobe Illustrator 22.1.0, SVG Export Plug-In . SVG Version: 6.00 Build 0)  -->
<svg version="1.1" id="Light" xmlns="http://www.w3.org/2000/svg" xmlns:xlink="http://www.w3.org/1999/xlink" x="0px" y="0px"
	 viewBox="0 0 24 24" style="enable-background:new 0 0 24 24;" xml:space="preserve">
<g>
	<title>real-estate-action-house-like</title>
	<path d="M4,23.347c-0.551,0-1-0.448-1-1v-10.5c0-0.276,0.224-0.5,0.5-0.5s0.5,0.224,0.5,0.5v10.5h4.5c0.276,0,0.5,0.224,0.5,0.5
		s-0.224,0.5-0.5,0.5H4z"/>
	<path d="M0.5,11.847c-0.14,0-0.275-0.059-0.369-0.163c-0.09-0.099-0.136-0.226-0.13-0.36c0.006-0.133,0.064-0.256,0.162-0.347
		l10.93-9.98c0.25-0.228,0.572-0.354,0.907-0.354s0.657,0.126,0.907,0.354l10.93,9.98c0.099,0.09,0.156,0.213,0.163,0.347
		s-0.04,0.261-0.131,0.36c-0.094,0.103-0.229,0.163-0.369,0.163c-0.125,0-0.245-0.047-0.337-0.131l-10.93-9.98
		C12.168,1.677,12.086,1.644,12,1.644s-0.168,0.032-0.233,0.091l-10.93,9.98C0.745,11.8,0.625,11.847,0.5,11.847z"/>
	<path d="M11,9.347c-0.551,0-1-0.449-1-1v-2c0-0.551,0.449-1,1-1h2c0.552,0,1,0.449,1,1v2c0,0.551-0.448,1-1,1H11z M11,8.347h2v-2
		h-2L11,8.347z"/>
	<path d="M18.28,23.347c-1.269,0-1.838-0.242-4.28-1.491v0.491c0,0.552-0.448,1-1,1h-2c-0.551,0-1-0.448-1-1v-6c0-0.552,0.449-1,1-1
		h2c0.551,0,0.999,0.448,1,0.998h0.807c0.16,0,0.311-0.077,0.403-0.207l2.411-3.705c0.08-0.112,0.161-0.2,0.254-0.276
		c0.241-0.198,0.546-0.307,0.858-0.307c0.407,0,0.789,0.18,1.046,0.494c0.271,0.333,0.368,0.778,0.258,1.191l-0.431,2.03
		c-0.049,0.213-0.013,0.435,0.098,0.616c0.085,0.101,0.227,0.164,0.372,0.164h2.428c0.149,0,0.293,0.021,0.433,0.064
		c0.38,0.115,0.693,0.371,0.881,0.722c0.183,0.342,0.226,0.736,0.12,1.109c0,0.006-0.007,0.032-0.016,0.056l-0.931,2.562
		c-0.003,0.01-0.006,0.021-0.007,0.026c-0.5,1.615-1.45,2.435-2.822,2.435c-0.483,0-0.874,0.01-1.205,0.018
		C18.695,23.342,18.478,23.347,18.28,23.347z M14,20.732c2.832,1.453,3.2,1.615,4.293,1.615c0.185,0,0.39-0.005,0.625-0.011
		c0.341-0.009,0.744-0.019,1.244-0.019c0.925,0,1.48-0.508,1.857-1.699c0.005-0.023,0.011-0.045,0.018-0.065l0.932-2.565
		c0.002-0.008,0.005-0.017,0.006-0.02c0.035-0.118,0.022-0.25-0.039-0.365c-0.062-0.115-0.164-0.199-0.289-0.237
		c-0.042-0.013-0.096-0.021-0.144-0.021h-2.43c-0.464-0.001-0.894-0.211-1.179-0.576c-0.286-0.445-0.376-0.942-0.266-1.42
		l0.435-2.046c0.033-0.126,0.01-0.241-0.059-0.326c-0.066-0.081-0.166-0.127-0.272-0.127c-0.083,0-0.16,0.028-0.223,0.08
		c-0.024,0.02-0.045,0.042-0.064,0.068l-2.41,3.704c-0.289,0.406-0.746,0.644-1.228,0.644H14V20.732z M11,22.347h2v-5.459
		c-0.002-0.015-0.004-0.03-0.004-0.043c0-0.019,0.002-0.036,0.005-0.05L13,16.347l-2,0L11,22.347z"/>
</g>
</svg>
