<?xml version="1.0" encoding="utf-8"?>
<!-- Generator: Adobe Illustrator 22.1.0, SVG Export Plug-In . SVG Version: 6.00 Build 0)  -->
<svg version="1.1" id="Light" xmlns="http://www.w3.org/2000/svg" xmlns:xlink="http://www.w3.org/1999/xlink" x="0px" y="0px"
	 viewBox="0 0 24 24" style="enable-background:new 0 0 24 24;" xml:space="preserve">
<g>
	<title>real-estate-action-house-warning</title>
	<path d="M4.001,23.411c-0.551,0-1-0.448-1-1v-10.5c0-0.276,0.224-0.5,0.5-0.5s0.5,0.224,0.5,0.5v10.5h5c0.276,0,0.5,0.224,0.5,0.5
		s-0.224,0.5-0.5,0.5H4.001z"/>
	<path d="M0.501,11.911c-0.14,0-0.275-0.059-0.369-0.163c-0.186-0.204-0.172-0.521,0.032-0.707L10.99,1.158
		c0.279-0.254,0.638-0.394,1.011-0.394c0.373,0,0.732,0.14,1.011,0.394l10.825,9.884c0.099,0.09,0.156,0.213,0.163,0.347
		s-0.04,0.261-0.131,0.36c-0.094,0.103-0.229,0.163-0.369,0.163c-0.125,0-0.245-0.047-0.337-0.131L12.339,1.896
		c-0.093-0.085-0.213-0.132-0.337-0.132c-0.124,0-0.244,0.047-0.337,0.132L0.838,11.78C0.745,11.865,0.626,11.911,0.501,11.911
		L0.501,11.911z"/>
	<path d="M11.002,9.411c-0.551,0-1-0.449-1-1v-2c0-0.551,0.449-1,1-1h2c0.552,0,1,0.449,1,1v2c0,0.551-0.448,1-1,1H11.002z
		 M11.002,8.411h2v-2h-2L11.002,8.411z"/>
	<circle cx="17.501" cy="20.161" r="0.75"/>
	<path d="M17.5,18.411c-0.276,0-0.5-0.224-0.5-0.5v-3c0-0.276,0.224-0.5,0.5-0.5s0.5,0.224,0.5,0.5v3
		C18,18.187,17.775,18.411,17.5,18.411z"/>
	<path d="M12.44,23.411c-0.507,0-0.967-0.256-1.232-0.685c-0.262-0.427-0.281-0.966-0.05-1.409l5.06-9.636
		c0.138-0.258,0.345-0.465,0.6-0.601c0.209-0.112,0.445-0.171,0.68-0.171c0.143,0,0.286,0.021,0.425,0.064
		c0.37,0.113,0.675,0.364,0.857,0.706l5.058,9.637c0.231,0.444,0.213,0.983-0.049,1.409c-0.266,0.43-0.726,0.686-1.231,0.686H12.44z
		 M17.498,11.91c-0.074,0-0.145,0.018-0.21,0.053c-0.079,0.042-0.144,0.106-0.186,0.186l-5.059,9.632
		c-0.069,0.132-0.063,0.292,0.015,0.42c0.081,0.131,0.223,0.21,0.379,0.21h10.117c0.158,0,0.3-0.079,0.382-0.211
		c0.077-0.126,0.083-0.287,0.013-0.419l-5.055-9.633c-0.056-0.104-0.15-0.182-0.265-0.217C17.587,11.917,17.543,11.91,17.498,11.91z
		"/>
</g>
</svg>
