<?xml version="1.0" encoding="utf-8"?>
<!-- Generator: Adobe Illustrator 22.1.0, SVG Export Plug-In . SVG Version: 6.00 Build 0)  -->
<svg version="1.1" id="Light" xmlns="http://www.w3.org/2000/svg" xmlns:xlink="http://www.w3.org/1999/xlink" x="0px" y="0px"
	 viewBox="0 0 24 24" style="enable-background:new 0 0 24 24;" xml:space="preserve">
<g>
	<title>real-estate-action-house-pin</title>
	<path d="M4,22.82c-0.551,0-1-0.448-1-1v-10.5c0-0.276,0.224-0.5,0.5-0.5S4,11.044,4,11.32v10.5h8.5c0.276,0,0.5,0.224,0.5,0.5
		s-0.224,0.5-0.5,0.5H4z"/>
	<path d="M0.5,11.32c-0.14,0-0.275-0.059-0.369-0.163c-0.09-0.099-0.136-0.226-0.13-0.36c0.006-0.133,0.064-0.256,0.162-0.347
		l10.826-9.885C11.267,0.311,11.626,0.171,12,0.171s0.733,0.14,1.011,0.394l10.826,9.885c0.099,0.09,0.156,0.213,0.163,0.347
		s-0.04,0.261-0.131,0.36C23.775,11.26,23.64,11.32,23.5,11.32c-0.125,0-0.245-0.047-0.337-0.131L12.337,1.304
		C12.244,1.219,12.124,1.172,12,1.172c-0.124,0-0.243,0.047-0.337,0.132L0.837,11.189C0.745,11.273,0.625,11.32,0.5,11.32z"/>
	<path d="M11,8.82c-0.551,0-1-0.449-1-1v-2c0-0.551,0.449-1,1-1h2c0.552,0,1,0.449,1,1v2c0,0.551-0.448,1-1,1H11z M11,7.82h2v-2h-2
		L11,7.82z"/>
	<path d="M19,17.82c-1.103,0-2-0.897-2-2s0.897-2,2-2s2,0.897,2,2S20.103,17.82,19,17.82z M19,14.82c-0.552,0-1,0.448-1,1
		s0.448,1,1,1s1-0.448,1-1S19.552,14.82,19,14.82z"/>
	<path d="M19,23.82c-0.134,0-0.259-0.052-0.354-0.146C18.457,23.483,14,18.99,14,15.82c0-2.757,2.243-5,5-5s5,2.243,5,5
		c0,3.171-4.457,7.664-4.646,7.854C19.259,23.768,19.134,23.82,19,23.82z M19,11.82c-2.206,0-4,1.794-4,4
		c0,2.291,3.021,5.724,4,6.776c0.979-1.052,4-4.486,4-6.776C23,13.614,21.206,11.82,19,11.82z"/>
</g>
</svg>
