<?xml version="1.0" encoding="utf-8"?>
<!-- Generator: Adobe Illustrator 22.1.0, SVG Export Plug-In . SVG Version: 6.00 Build 0)  -->
<svg version="1.1" id="Light" xmlns="http://www.w3.org/2000/svg" xmlns:xlink="http://www.w3.org/1999/xlink" x="0px" y="0px"
	 viewBox="0 0 24 24" style="enable-background:new 0 0 24 24;" xml:space="preserve">
<g>
	<title>real-estate-action-house-percent</title>
	<path d="M4,22.82c-0.551,0-1-0.448-1-1v-10.5c0-0.276,0.224-0.5,0.5-0.5S4,11.044,4,11.32v10.5h7c0.276,0,0.5,0.224,0.5,0.5
		s-0.224,0.5-0.5,0.5H4z"/>
	<path d="M0.5,11.32c-0.14,0-0.275-0.059-0.37-0.163c-0.09-0.098-0.136-0.226-0.13-0.36c0.006-0.133,0.064-0.256,0.162-0.347
		l10.826-9.884C11.267,0.312,11.626,0.172,12,0.172s0.733,0.14,1.011,0.394l10.826,9.884c0.099,0.09,0.156,0.213,0.163,0.347
		s-0.04,0.261-0.131,0.36C23.775,11.26,23.64,11.32,23.5,11.32c-0.125,0-0.245-0.047-0.337-0.131L12.337,1.305
		C12.244,1.22,12.124,1.173,12,1.173c-0.124,0-0.243,0.047-0.337,0.132L0.837,11.189C0.745,11.273,0.625,11.32,0.5,11.32L0.5,11.32z
		"/>
	<path d="M11,8.82c-0.551,0-1-0.449-1-1v-2c0-0.551,0.449-1,1-1h2c0.552,0,1,0.449,1,1v2c0,0.551-0.448,1-1,1H11z M11,7.82h2v-2h-2
		L11,7.82z"/>
	<path d="M17.5,23.82c-3.584,0-6.5-2.916-6.5-6.5s2.916-6.5,6.5-6.5s6.5,2.916,6.5,6.5S21.084,23.82,17.5,23.82z M17.5,11.82
		c-3.033,0-5.5,2.467-5.5,5.5s2.467,5.5,5.5,5.5s5.5-2.467,5.5-5.5S20.533,11.82,17.5,11.82z"/>
	<path d="M15,20.32c-0.134,0-0.259-0.052-0.354-0.146S14.5,19.953,14.5,19.82s0.052-0.259,0.146-0.354l5-5
		c0.094-0.094,0.22-0.146,0.354-0.146s0.259,0.052,0.354,0.146s0.146,0.22,0.146,0.354s-0.052,0.259-0.146,0.354l-5,5
		C15.259,20.268,15.134,20.32,15,20.32z"/>
	<circle cx="16" cy="15.32" r="1"/>
	<circle cx="19" cy="19.32" r="1"/>
</g>
</svg>
