<?xml version="1.0" encoding="utf-8"?>
<!-- Generator: Adobe Illustrator 22.1.0, SVG Export Plug-In . SVG Version: 6.00 Build 0)  -->
<svg version="1.1" id="Light" xmlns="http://www.w3.org/2000/svg" xmlns:xlink="http://www.w3.org/1999/xlink" x="0px" y="0px"
	 viewBox="0 0 24 24" style="enable-background:new 0 0 24 24;" xml:space="preserve">
<g>
	<title>real-estate-action-house-download</title>
	<path d="M4,23.377c-0.551,0-1-0.448-1-1v-10.5c0-0.276,0.224-0.5,0.5-0.5s0.5,0.224,0.5,0.5v10.5h7.5c0.276,0,0.5,0.224,0.5,0.5
		s-0.224,0.5-0.5,0.5H4z"/>
	<path d="M0.5,11.877c-0.14,0-0.275-0.059-0.369-0.163c-0.09-0.099-0.136-0.226-0.13-0.36c0.006-0.133,0.064-0.256,0.162-0.347
		l10.93-9.98C11.343,0.8,11.665,0.674,12,0.674s0.657,0.126,0.907,0.354l10.93,9.98c0.099,0.09,0.156,0.213,0.163,0.347
		s-0.04,0.261-0.131,0.36c-0.094,0.103-0.229,0.163-0.369,0.163c-0.125,0-0.245-0.047-0.337-0.131l-10.93-9.98
		C12.168,1.707,12.086,1.675,12,1.675s-0.168,0.032-0.233,0.091l-10.93,9.98C0.745,11.831,0.625,11.877,0.5,11.877z"/>
	<path d="M11,9.377c-0.551,0-1-0.449-1-1v-2c0-0.551,0.449-1,1-1h2c0.552,0,1,0.449,1,1v2c0,0.551-0.448,1-1,1H11z M11,8.377h2v-2
		h-2L11,8.377z"/>
	<path d="M17.5,23.377c-3.584,0-6.5-2.916-6.5-6.5s2.916-6.5,6.5-6.5s6.5,2.916,6.5,6.5S21.084,23.377,17.5,23.377z M17.5,11.377
		c-3.033,0-5.5,2.467-5.5,5.5s2.467,5.5,5.5,5.5s5.5-2.467,5.5-5.5S20.533,11.377,17.5,11.377z"/>
	<path d="M17.5,20.377c-0.066,0-0.13-0.013-0.191-0.039c-0.062-0.025-0.117-0.062-0.163-0.109l-2.249-2.249
		c-0.094-0.094-0.146-0.22-0.146-0.354s0.052-0.259,0.146-0.354s0.22-0.146,0.354-0.146s0.259,0.052,0.354,0.146L17,18.67v-4.793
		c0-0.276,0.224-0.5,0.5-0.5s0.5,0.224,0.5,0.5v4.793l1.396-1.396c0.094-0.094,0.22-0.146,0.354-0.146s0.259,0.052,0.354,0.146
		s0.146,0.22,0.146,0.354s-0.052,0.259-0.146,0.354l-2.25,2.25c-0.045,0.046-0.101,0.083-0.163,0.109
		C17.63,20.364,17.566,20.377,17.5,20.377z"/>
</g>
</svg>
