<?xml version="1.0" encoding="utf-8"?>
<!-- Generator: Adobe Illustrator 22.1.0, SVG Export Plug-In . SVG Version: 6.00 Build 0)  -->
<svg version="1.1" id="Light" xmlns="http://www.w3.org/2000/svg" xmlns:xlink="http://www.w3.org/1999/xlink" x="0px" y="0px"
	 viewBox="0 0 24 24" style="enable-background:new 0 0 24 24;" xml:space="preserve">
<g>
	<title>real-estate-action-house-upload</title>
	<path d="M4,23.341c-0.551,0-1-0.448-1-1v-10.5c0-0.276,0.224-0.5,0.5-0.5s0.5,0.224,0.5,0.5v10.5h7.5c0.276,0,0.5,0.224,0.5,0.5
		s-0.224,0.5-0.5,0.5H4z"/>
	<path d="M0.5,11.841c-0.14,0-0.275-0.059-0.369-0.163c-0.09-0.099-0.136-0.226-0.13-0.36c0.006-0.133,0.064-0.256,0.162-0.347
		l10.931-9.98c0.25-0.228,0.572-0.354,0.907-0.354s0.657,0.126,0.907,0.354l10.929,9.98c0.099,0.09,0.156,0.213,0.163,0.347
		s-0.04,0.261-0.131,0.36c-0.094,0.103-0.229,0.163-0.369,0.163c-0.125,0-0.245-0.047-0.337-0.131l-10.93-9.98
		c-0.064-0.059-0.147-0.091-0.232-0.091s-0.168,0.032-0.232,0.091L0.837,11.71C0.745,11.794,0.625,11.841,0.5,11.841L0.5,11.841z"/>
	<path d="M11.003,9.341c-0.551,0-1-0.449-1-1v-2c0-0.551,0.449-1,1-1h2c0.552,0,1,0.449,1,1v2c0,0.551-0.448,1-1,1H11.003z
		 M11.003,8.341h2v-2h-2L11.003,8.341z"/>
	<path d="M17.503,23.341c-3.584,0-6.5-2.916-6.5-6.5s2.916-6.5,6.5-6.5s6.5,2.916,6.5,6.5S21.087,23.341,17.503,23.341z
		 M17.503,11.341c-3.033,0-5.5,2.467-5.5,5.5s2.467,5.5,5.5,5.5s5.5-2.467,5.5-5.5S20.536,11.341,17.503,11.341z"/>
	<path d="M17.503,20.341c-0.276,0-0.5-0.224-0.5-0.5v-4.793l-1.396,1.396c-0.094,0.094-0.22,0.146-0.354,0.146
		s-0.259-0.052-0.354-0.146c-0.195-0.195-0.195-0.512,0-0.707l2.25-2.25c0.045-0.046,0.101-0.083,0.163-0.109
		c0.06-0.025,0.125-0.038,0.191-0.038s0.131,0.013,0.191,0.038c0.062,0.025,0.117,0.062,0.163,0.109l2.249,2.249
		c0.195,0.195,0.195,0.512,0,0.707c-0.094,0.094-0.22,0.146-0.354,0.146s-0.259-0.052-0.354-0.146l-1.396-1.396v4.793
		C18.003,20.116,17.779,20.341,17.503,20.341z"/>
</g>
</svg>
