<?xml version="1.0" encoding="utf-8"?>
<!-- Generator: Adobe Illustrator 22.1.0, SVG Export Plug-In . SVG Version: 6.00 Build 0)  -->
<svg version="1.1" id="Light" xmlns="http://www.w3.org/2000/svg" xmlns:xlink="http://www.w3.org/1999/xlink" x="0px" y="0px"
	 viewBox="0 0 24 24" style="enable-background:new 0 0 24 24;" xml:space="preserve">
<g>
	<title>real-estate-action-house-heart</title>
	<path d="M4.017,22.828c-0.551,0-1-0.448-1-1v-10.5c0-0.276,0.224-0.5,0.5-0.5s0.5,0.224,0.5,0.5v10.5h8.5
		c0.276,0,0.5,0.224,0.5,0.5s-0.224,0.5-0.5,0.5H4.017z"/>
	<path d="M0.517,11.328c-0.14,0-0.275-0.059-0.369-0.163c-0.09-0.099-0.136-0.226-0.13-0.36c0.006-0.133,0.064-0.256,0.162-0.347
		l10.826-9.885c0.279-0.254,0.638-0.394,1.011-0.394c0.373,0,0.732,0.14,1.011,0.394l10.826,9.885
		c0.099,0.09,0.156,0.213,0.163,0.347s-0.04,0.261-0.131,0.36c-0.094,0.103-0.229,0.163-0.369,0.163
		c-0.125,0-0.245-0.047-0.337-0.131L12.354,1.312c-0.093-0.085-0.213-0.132-0.337-0.132c-0.124,0-0.244,0.047-0.337,0.132
		L0.854,11.197C0.762,11.282,0.642,11.328,0.517,11.328L0.517,11.328z"/>
	<path d="M11.017,8.828c-0.551,0-1-0.449-1-1v-2c0-0.551,0.449-1,1-1h2c0.552,0,1,0.449,1,1v2c0,0.551-0.448,1-1,1H11.017z
		 M11.017,7.828h2v-2h-2L11.017,7.828z"/>
	<path d="M17.517,23.828c-0.135,0-0.267-0.056-0.361-0.154l-5.115-5.331c-1.069-1.069-1.333-2.702-0.654-4.062
		c0.601-1.202,1.812-1.948,3.159-1.948c0.55,0,1.078,0.125,1.572,0.372c0.339,0.17,0.647,0.392,0.916,0.66l0.481,0.481l0.482-0.481
		c0.663-0.667,1.547-1.036,2.489-1.039c0.948,0,1.831,0.364,2.496,1.026c0.271,0.27,0.495,0.58,0.666,0.92
		c0.683,1.364,0.416,3.003-0.665,4.079l-5.106,5.323C17.784,23.772,17.652,23.828,17.517,23.828z M14.544,13.331
		c-0.271,0-0.541,0.044-0.801,0.131c-0.64,0.213-1.159,0.663-1.461,1.267c-0.487,0.974-0.297,2.145,0.473,2.915l4.761,4.962
		l4.753-4.955c0.781-0.777,0.974-1.953,0.485-2.93c-0.123-0.245-0.283-0.467-0.477-0.66c-0.477-0.474-1.109-0.735-1.781-0.735
		c-0.682,0.002-1.316,0.267-1.791,0.745l-0.836,0.836c-0.094,0.094-0.22,0.146-0.354,0.146s-0.259-0.052-0.354-0.146l-0.835-0.835
		c-0.192-0.192-0.413-0.352-0.656-0.473C15.315,13.422,14.936,13.331,14.544,13.331z"/>
</g>
</svg>
