<?xml version="1.0" encoding="utf-8"?>
<!-- Generator: Adobe Illustrator 22.1.0, SVG Export Plug-In . SVG Version: 6.00 Build 0)  -->
<svg version="1.1" id="Layer_1" xmlns="http://www.w3.org/2000/svg" xmlns:xlink="http://www.w3.org/1999/xlink" x="0px" y="0px"
	 viewBox="0 0 24 24" style="enable-background:new 0 0 24 24;" xml:space="preserve">
<g>
	<title>bridge-1</title>
	<path d="M23.5,18.002c-0.276,0-0.5-0.224-0.5-0.5v-7c0-0.276-0.224-0.5-0.5-0.5h-4.08c1.581,1.136,3.58,3.387,3.58,7.5
		c0,0.276-0.224,0.5-0.5,0.5s-0.5-0.224-0.5-0.5c0-4.973-3.18-6.892-4.602-7.5H7.602C6.181,10.61,3,12.529,3,17.502
		c0,0.276-0.224,0.5-0.5,0.5S2,17.777,2,17.502c0-4.113,1.998-6.364,3.579-7.5H1.5c-0.276,0-0.5,0.224-0.5,0.5v7
		c0,0.276-0.224,0.5-0.5,0.5S0,17.777,0,17.502v-7c0-0.827,0.673-1.5,1.5-1.5h3.501V4.56C4.568,5.138,4.172,5.744,3.786,6.336
		C3.351,7.003,2.939,7.633,2.478,8.227C2.383,8.35,2.239,8.42,2.083,8.42c-0.111,0-0.22-0.037-0.307-0.105
		C1.671,8.234,1.604,8.116,1.587,7.983C1.571,7.85,1.607,7.719,1.689,7.614c0.434-0.559,0.835-1.173,1.259-1.822
		c0.65-0.995,1.32-2.022,2.185-2.948c0.009-0.01,0.02-0.022,0.033-0.034C6.96,0.898,9.137,0.001,12,0.001
		c2.863,0,5.039,0.896,6.848,2.821c0.003,0.002,0.018,0.018,0.032,0.036c0.855,0.916,1.524,1.94,2.171,2.931
		c0.426,0.652,0.826,1.266,1.261,1.825c0.082,0.106,0.118,0.237,0.101,0.369c-0.017,0.133-0.084,0.251-0.19,0.333
		c-0.087,0.068-0.196,0.105-0.306,0.105c-0.156,0-0.3-0.07-0.395-0.193c-0.46-0.592-0.871-1.222-1.306-1.889
		c-0.387-0.593-0.782-1.199-1.215-1.776v4.439H22.5c0.827,0,1.5,0.673,1.5,1.5v7C24,17.777,23.776,18.002,23.5,18.002z
		 M18.001,9.001V3.376c-0.9-0.928-1.862-1.547-3-1.927v7.553H18.001z M14.001,9.001V1.187C13.379,1.064,12.707,1.001,12,1.001
		c-0.706,0-1.377,0.062-1.999,0.185v7.815H14.001z M9.001,9.001V1.448c-1.138,0.38-2.1,0.999-3,1.926v5.627H9.001z"/>
	<path d="M1.19,20.412c-0.262,0-0.525-0.028-0.783-0.082c-0.27-0.058-0.443-0.323-0.385-0.593c0.048-0.23,0.254-0.396,0.489-0.396
		c0.035,0,0.07,0.004,0.104,0.011c0.185,0.039,0.375,0.059,0.565,0.059c0,0,0,0,0,0c1.863,0,3.378-1.881,3.393-1.9
		c0.093-0.119,0.24-0.19,0.391-0.19c0.181,0.007,0.33,0.09,0.418,0.224c0.718,1.085,1.922,1.77,3.222,1.833
		c1.282-0.032,2.475-0.713,3.172-1.823c0.091-0.145,0.247-0.232,0.417-0.234c0.001,0,0.001,0,0.002,0
		c0.175,0,0.329,0.086,0.421,0.224c0.719,1.086,1.925,1.772,3.226,1.834c1.282-0.031,2.476-0.713,3.174-1.823
		c0.092-0.146,0.25-0.234,0.423-0.234c0.174,0,0.332,0.088,0.424,0.235c0.011,0.017,1.177,1.814,2.963,1.814c0,0,0,0,0,0
		c0.189,0,0.381-0.02,0.571-0.06c0.033-0.007,0.068-0.011,0.103-0.011c0.235,0,0.44,0.167,0.488,0.398
		c0.027,0.13,0.002,0.264-0.071,0.376c-0.073,0.112-0.186,0.188-0.316,0.216c-0.266,0.055-0.534,0.084-0.797,0.084c0,0,0,0,0,0
		c-1.619,0-2.788-1.06-3.358-1.718c-0.903,1.065-2.204,1.688-3.616,1.722c-1.411-0.067-2.709-0.692-3.622-1.726
		c-0.903,1.066-2.204,1.69-3.617,1.724c-1.434-0.068-2.747-0.71-3.661-1.774C4.265,19.274,2.886,20.412,1.19,20.412L1.19,20.412z"/>
	<path d="M1.191,24.002c-0.263,0-0.527-0.028-0.784-0.082c-0.27-0.058-0.442-0.324-0.385-0.593C0.07,23.097,0.276,22.93,0.51,22.93
		c0.034,0,0.069,0.004,0.103,0.011c0.187,0.04,0.377,0.06,0.568,0.06c1.864,0,3.376-1.881,3.391-1.9
		c0.094-0.119,0.24-0.191,0.391-0.191c0.005,0,0.022,0,0.027,0.001c0.156,0.006,0.304,0.09,0.392,0.223
		c0.718,1.085,1.923,1.77,3.222,1.833c1.282-0.031,2.475-0.713,3.173-1.823c0.091-0.145,0.247-0.232,0.417-0.234
		c0.001,0,0.001,0,0.002,0c0.181,0,0.327,0.082,0.421,0.224c0.719,1.085,1.926,1.77,3.226,1.833
		c1.282-0.031,2.476-0.713,3.174-1.823c0.092-0.146,0.25-0.234,0.423-0.234c0.174,0,0.332,0.088,0.424,0.235
		c0.011,0.017,1.178,1.814,2.964,1.814h0c0.188,0,0.38-0.02,0.57-0.06c0.033-0.007,0.068-0.011,0.104-0.011
		c0.235,0,0.44,0.167,0.488,0.398c0.027,0.13,0.002,0.264-0.071,0.376c-0.073,0.112-0.186,0.188-0.316,0.216
		c-0.266,0.056-0.534,0.084-0.797,0.084c0,0,0,0,0,0c-1.619,0-2.788-1.06-3.357-1.718c-0.903,1.065-2.204,1.688-3.616,1.721
		c-1.411-0.067-2.709-0.691-3.622-1.725c-0.903,1.067-2.205,1.691-3.617,1.725c-1.434-0.068-2.747-0.71-3.661-1.773
		C4.265,22.865,2.887,24.002,1.191,24.002z"/>
</g>
</svg>
