<?xml version="1.0" encoding="utf-8"?>
<!-- Generator: Adobe Illustrator 22.1.0, SVG Export Plug-In . SVG Version: 6.00 Build 0)  -->
<svg version="1.1" id="Layer_1" xmlns="http://www.w3.org/2000/svg" xmlns:xlink="http://www.w3.org/1999/xlink" x="0px" y="0px"
	 viewBox="0 0 24 24" style="enable-background:new 0 0 24 24;" xml:space="preserve">
<g>
	<title>bridge-golden-gate</title>
	<path d="M1.191,24.002c-0.263,0-0.527-0.028-0.784-0.082c-0.27-0.058-0.442-0.324-0.385-0.593C0.07,23.097,0.276,22.93,0.51,22.93
		c0.034,0,0.069,0.004,0.103,0.011c0.187,0.04,0.377,0.06,0.568,0.06c1.864,0,3.376-1.881,3.391-1.9
		c0.094-0.119,0.24-0.191,0.391-0.191c0.005,0,0.022,0,0.027,0.001c0.156,0.006,0.304,0.09,0.392,0.223
		c0.718,1.085,1.923,1.77,3.222,1.833c1.282-0.031,2.475-0.713,3.173-1.823c0.091-0.145,0.247-0.232,0.417-0.234
		c0.001,0,0.001,0,0.002,0c0.181,0,0.327,0.082,0.421,0.224c0.719,1.085,1.926,1.77,3.226,1.833
		c1.282-0.031,2.476-0.713,3.174-1.823c0.092-0.146,0.25-0.234,0.423-0.234c0.174,0,0.332,0.088,0.424,0.235
		c0.011,0.017,1.178,1.814,2.964,1.814h0c0.188,0,0.38-0.02,0.57-0.06c0.033-0.007,0.068-0.011,0.104-0.011
		c0.235,0,0.44,0.167,0.488,0.398c0.027,0.13,0.002,0.264-0.071,0.376c-0.073,0.112-0.186,0.188-0.316,0.216
		c-0.266,0.056-0.534,0.084-0.797,0.084c0,0,0,0,0,0c-1.619,0-2.788-1.06-3.357-1.718c-0.903,1.065-2.204,1.688-3.616,1.721
		c-1.411-0.067-2.709-0.691-3.622-1.725c-0.903,1.067-2.205,1.691-3.617,1.725c-1.434-0.068-2.747-0.71-3.661-1.773
		C4.265,22.865,2.887,24.002,1.191,24.002z"/>
	<path d="M1.191,20.002c-0.263,0-0.527-0.028-0.784-0.082c-0.27-0.058-0.442-0.324-0.385-0.593c0.049-0.229,0.255-0.396,0.49-0.396
		c0.034,0,0.068,0.003,0.102,0.01c0.188,0.04,0.378,0.06,0.569,0.06c1.863,0,3.375-1.881,3.39-1.9
		c0.094-0.119,0.24-0.191,0.39-0.191c0.005,0,0.023,0.001,0.028,0.001c0.155,0.006,0.303,0.09,0.392,0.223
		c0.177,0.267,0.384,0.511,0.618,0.73v-4.863H0.5c-0.276,0-0.5-0.224-0.5-0.5c0-0.276,0.224-0.5,0.5-0.5h0.875
		C5.933,9.621,6,2.572,6,2.501v-2c0-0.276,0.224-0.5,0.5-0.5S7,0.226,7,0.501v2c0,0.071,0.067,7.12,4.625,9.5h0.751
		C16.933,9.621,17,2.572,17,2.501v-2c0-0.276,0.224-0.5,0.5-0.5s0.5,0.224,0.5,0.5v2c0,0.071,0.067,7.12,4.625,9.5H23.5
		c0.276,0,0.5,0.224,0.5,0.5c0,0.276-0.224,0.5-0.5,0.5H18v5.229c0.403-0.293,0.75-0.662,1.017-1.086
		c0.092-0.146,0.25-0.234,0.423-0.234c0.174,0,0.332,0.088,0.424,0.235c0.011,0.017,1.177,1.814,2.963,1.814h0
		c0.189,0,0.381-0.02,0.571-0.06c0.033-0.007,0.068-0.011,0.103-0.011c0.235,0,0.44,0.167,0.488,0.398
		c0.027,0.13,0.002,0.264-0.071,0.376c-0.073,0.112-0.186,0.188-0.316,0.216c-0.266,0.056-0.534,0.084-0.797,0.084c0,0,0,0,0,0
		c-1.619,0-2.789-1.061-3.358-1.718c-0.457,0.537-1.028,0.971-1.668,1.268c-0.049,0.033-0.103,0.057-0.162,0.071
		c-0.57,0.239-1.17,0.368-1.785,0.383c-1.411-0.067-2.709-0.691-3.622-1.725c-0.903,1.067-2.205,1.691-3.617,1.725
		c-0.78-0.037-1.539-0.248-2.215-0.613c-0.087-0.022-0.165-0.066-0.228-0.129c-0.461-0.281-0.87-0.626-1.218-1.031
		C4.265,18.865,2.887,20.002,1.191,20.002z M12.2,16.91c0.172,0.002,0.324,0.083,0.417,0.224c0.719,1.085,1.926,1.77,3.226,1.833
		c0.384-0.01,0.776-0.082,1.157-0.215v-5.75H7v5.55c0.503,0.246,1.054,0.389,1.604,0.416c1.282-0.031,2.475-0.713,3.173-1.823
		c0.091-0.145,0.247-0.232,0.417-0.234c0.001,0,0.002,0,0.003,0C12.198,16.91,12.199,16.91,12.2,16.91z M20.837,12.002
		C19.629,10.991,18.664,9.556,18,7.784v4.218H20.837z M17,12.002V7.784c-0.664,1.772-1.628,3.207-2.837,4.218H17z M9.837,12.002
		C8.629,10.991,7.664,9.556,7,7.784v4.218H9.837z M6,12.002V7.784c-0.664,1.772-1.628,3.207-2.837,4.218H6z"/>
</g>
</svg>
