<?xml version="1.0" encoding="utf-8"?>
<!-- Generator: Adobe Illustrator 22.1.0, SVG Export Plug-In . SVG Version: 6.00 Build 0)  -->
<svg version="1.1" id="Light" xmlns="http://www.w3.org/2000/svg" xmlns:xlink="http://www.w3.org/1999/xlink" x="0px" y="0px"
	 viewBox="0 0 24 24" style="enable-background:new 0 0 24 24;" xml:space="preserve">
<g>
	<title>koala-head</title>
	<path d="M13.507,17.798c-0.681,0-1.17-0.44-1.5-0.912c-0.33,0.472-0.819,0.912-1.5,0.912c-0.276,0-0.5-0.224-0.5-0.5
		s0.224-0.5,0.5-0.5c0.315,0,0.583-0.323,0.755-0.603c-0.754-0.219-1.255-0.761-1.255-1.397v-2.5c0-0.841,0.879-1.5,2-1.5
		s2,0.659,2,1.5v2.5c0,0.637-0.502,1.179-1.256,1.397c0.169,0.27,0.44,0.603,0.756,0.603c0.276,0,0.5,0.224,0.5,0.5
		S13.783,17.798,13.507,17.798z M12.007,11.798c-0.563,0-1,0.269-1,0.5v2.5c0,0.231,0.437,0.5,1,0.5c0.563,0,1-0.269,1-0.5v-2.5
		C13.007,12.067,12.571,11.798,12.007,11.798z"/>
	<path d="M15.76,12.801c-0.015,0-0.031-0.001-0.045-0.004c-0.393-0.022-0.706-0.348-0.708-0.744c0-0.388,0.297-0.71,0.68-0.746
		c0.017-0.004,0.041-0.008,0.07-0.008c0.414,0,0.75,0.336,0.75,0.75c0,0,0,0.002,0,0.002c0.001,0.199-0.076,0.387-0.217,0.529
		C16.149,12.722,15.961,12.8,15.76,12.801C15.761,12.801,15.761,12.801,15.76,12.801z"/>
	<path d="M8.26,12.801c-0.015,0-0.031-0.001-0.045-0.004c-0.393-0.022-0.706-0.348-0.708-0.745c0-0.387,0.297-0.71,0.68-0.746
		c0.017-0.004,0.041-0.008,0.07-0.008c0.414,0,0.75,0.336,0.75,0.75c0,0,0,0.002,0,0.002c0.001,0.199-0.076,0.387-0.217,0.53
		C8.649,12.722,8.461,12.8,8.26,12.801C8.261,12.801,8.26,12.801,8.26,12.801z"/>
	<path d="M12.007,19.798c-3.094,0-6.422-0.343-6.932-4.365c-0.277,0.058-0.629,0.109-1.019,0.109c-1.23,0-2.254-0.499-2.963-1.444
		c-0.981-1.307-1.349-3.712-0.876-5.717c0.389-1.648,1.295-2.901,2.552-3.53c0.699-0.42,1.519-0.646,2.353-0.646
		c0.385,0,0.772,0.048,1.15,0.143c1.21,0.304,2.228,1.061,2.869,2.132c0.062,0.103,0.12,0.21,0.174,0.318h5.369
		c0.498-1.004,1.336-1.792,2.376-2.228c0.579-0.243,1.186-0.366,1.806-0.366c0.606,0,1.201,0.118,1.769,0.35
		c0.217,0.089,0.428,0.195,0.629,0.314c1.229,0.613,2.13,1.863,2.519,3.512c0.473,2.005,0.105,4.41-0.876,5.717
		c-0.708,0.944-1.733,1.444-2.963,1.444c-0.385,0-0.732-0.049-1.005-0.106C18.426,19.455,15.1,19.798,12.007,19.798z M5.017,6.733
		c1.575,0,2.495,1.514,2.791,2.408C7.862,9.304,7.83,9.48,7.722,9.612c-1.07,1.325-1.679,2.993-1.715,4.697
		c0,3.794,2.021,4.489,6,4.489c3.98,0,6-0.696,6-4.5c-0.036-1.695-0.646-3.361-1.716-4.686c-0.107-0.134-0.139-0.31-0.085-0.472
		c0.296-0.894,1.217-2.408,2.792-2.408c0.206,0,0.418,0.027,0.631,0.08c0.13,0.032,0.239,0.113,0.308,0.228
		c0.069,0.115,0.089,0.249,0.056,0.379c-0.056,0.223-0.255,0.378-0.485,0.378c-0.041,0-0.081-0.005-0.121-0.015
		c-0.135-0.034-0.268-0.051-0.394-0.051c-0.97,0-1.533,1.011-1.742,1.484c1.095,1.456,1.719,3.251,1.757,5.071
		c0,0.05-0.001,0.097-0.002,0.144c0.228,0.059,0.561,0.122,0.939,0.122c0.91,0,1.637-0.355,2.163-1.055
		c0.818-1.091,1.113-3.146,0.702-4.888c-0.226-0.958-0.761-2.233-2.026-2.865c-0.188-0.111-0.355-0.195-0.527-0.265
		c-0.447-0.183-0.915-0.276-1.39-0.276c-0.486,0-0.964,0.097-1.418,0.288c-0.904,0.379-1.606,1.088-1.977,1.995
		c-0.078,0.189-0.259,0.311-0.463,0.311H8.993c-0.204,0-0.386-0.122-0.463-0.311c-0.069-0.17-0.153-0.336-0.247-0.494
		C7.625,5.892,6.415,5.208,5.127,5.208c-0.66,0-1.309,0.18-1.877,0.52C1.955,6.376,1.417,7.652,1.191,8.61
		c-0.411,1.741-0.116,3.797,0.702,4.888c0.525,0.7,1.253,1.055,2.163,1.055c0.386,0,0.723-0.065,0.953-0.126
		c-0.001-0.043-0.001-0.086-0.001-0.13c0.038-1.829,0.661-3.626,1.756-5.082C6.554,8.744,5.993,7.733,5.021,7.733
		c-0.126,0-0.258,0.017-0.392,0.051C4.59,7.793,4.548,7.798,4.507,7.798c-0.229,0-0.429-0.156-0.485-0.379
		C3.955,7.152,4.119,6.88,4.386,6.813C4.599,6.76,4.811,6.733,5.017,6.733z"/>
</g>
</svg>
