<?xml version="1.0" encoding="utf-8"?>
<!-- Generator: Adobe Illustrator 22.1.0, SVG Export Plug-In . SVG Version: 6.00 Build 0)  -->
<svg version="1.1" id="Layer_1" xmlns="http://www.w3.org/2000/svg" xmlns:xlink="http://www.w3.org/1999/xlink" x="0px" y="0px"
	 viewBox="0 0 24 24" style="enable-background:new 0 0 24 24;" xml:space="preserve">
<g>
	<title>professions-woman-telecommunicator</title>
	<path d="M23.5,24c-0.276,0-0.5-0.224-0.5-0.5v-1c-0.001-1.452-0.915-2.769-2.275-3.277L17,17.941v2.365c0,0.551-0.449,1-1,1
		c0,0,0,0,0,0c-0.103,0-0.218-0.019-0.314-0.051L12.5,20.194v3.305c0,0.276-0.224,0.5-0.5,0.5c-0.276,0-0.5-0.224-0.5-0.5v-3.305
		l-3.183,1.065C8.216,21.293,8.109,21.311,8,21.311c-0.551,0-1-0.448-1-0.999v-2.31l-3.744,1.228C1.911,19.732,1,21.048,1,22.5v1
		C1,23.776,0.776,24,0.5,24S0,23.776,0,23.5v-1c0-1.867,1.176-3.561,2.925-4.214l5.414-1.776c0.05-0.017,0.103-0.025,0.156-0.025
		c0.136,0,0.265,0.056,0.359,0.154L12,18.886l3.31-2.362c0.013-0.009,0.031-0.019,0.047-0.027c0.027-0.015,0.056-0.028,0.09-0.039
		c0.028-0.009,0.05-0.015,0.073-0.019c0.024-0.004,0.048-0.006,0.073-0.006c0.014,0,0.029,0,0.044,0.002
		c0.021,0.001,0.042,0.004,0.062,0.008c0.021,0.003,0.045,0.008,0.062,0.013l5.302,1.826c1.759,0.657,2.937,2.351,2.938,4.218v1
		C24,23.776,23.776,24,23.5,24z M8,20.311l2.911-0.974L8.4,17.542L8,17.674V20.311z M16,20.305l0-2.709l-0.318-0.109l-2.592,1.849
		L16,20.305z"/>
	<path d="M8.98,10c-0.095,0-0.188-0.027-0.268-0.078C8.599,9.85,8.521,9.739,8.492,9.608c-0.029-0.13-0.005-0.264,0.067-0.377
		c0.293-0.46,0.793-0.734,1.339-0.734c0.028,0,0.056,0.001,0.083,0.002c0.027-0.001,0.055-0.002,0.082-0.002
		c0.546,0,1.046,0.274,1.339,0.734c0.072,0.113,0.096,0.246,0.067,0.377c-0.029,0.13-0.107,0.242-0.219,0.314
		C11.169,9.973,11.076,10,10.98,10c-0.172,0-0.33-0.086-0.422-0.231c-0.109-0.17-0.295-0.272-0.497-0.272
		C10.047,9.497,9.986,9.5,9.98,9.5c-0.013,0-0.069-0.003-0.084-0.003c-0.201,0-0.385,0.102-0.494,0.272
		C9.309,9.914,9.152,10,8.98,10z"/>
	<path d="M12.98,10c-0.095,0-0.188-0.027-0.269-0.079c-0.112-0.071-0.19-0.182-0.219-0.313c-0.029-0.13-0.006-0.264,0.066-0.377
		c0.293-0.46,0.795-0.734,1.343-0.734c0.026,0,0.052,0.001,0.079,0.002c0.028-0.001,0.055-0.002,0.083-0.002
		c0.545,0,1.046,0.275,1.339,0.734c0.072,0.113,0.095,0.246,0.067,0.377c-0.029,0.131-0.107,0.242-0.219,0.314
		C15.168,9.973,15.075,10,14.98,10c-0.172,0-0.33-0.086-0.422-0.231c-0.108-0.17-0.294-0.272-0.497-0.272
		c-0.015,0-0.075,0.003-0.081,0.003c-0.013,0-0.067-0.003-0.082-0.003c-0.202,0-0.387,0.102-0.496,0.272
		C13.31,9.913,13.152,10,12.98,10L12.98,10z"/>
	<path d="M12.023,16.999c-1.639,0-4.953-1.815-5.448-4.78c-0.027-0.166-0.134-0.305-0.286-0.374
		c-0.113-0.051-0.223-0.117-0.327-0.195c-0.363,1.176-1.06,2.197-2.032,2.973c-0.019,0.016-0.041,0.03-0.064,0.043
		c0.696,0.543,1.557,0.839,2.431,0.839c0.054,0,0.108-0.001,0.162-0.003c0.003,0,0.027-0.001,0.031-0.001
		c0.263,0,0.478,0.211,0.49,0.479c0.006,0.133-0.041,0.261-0.131,0.359S6.635,16.494,6.501,16.5
		c-0.069,0.003-0.139,0.004-0.209,0.004c-1.092,0-2.168-0.369-3.029-1.04c-0.103-0.075-0.197-0.182-0.266-0.303
		c-0.263-0.46-0.113-1.057,0.333-1.34c1.009-0.815,1.666-1.967,1.855-3.252C5.07,10.26,5.006,9.939,5,9.634
		C4.99,9.074,5.162,8.59,5.478,8.28C5.07,5.536,5.473,3.423,6.678,2C7.801,0.673,9.592,0,12,0c2.406,0,4.196,0.672,5.318,1.997
		c1.162,1.37,1.578,3.389,1.24,6.003H19.5c1.103,0,2,0.897,2,2s-0.897,2-2,2h-1.387c-1.049,1.273-2.587,2-4.242,2H12.5
		c-0.276,0-0.5-0.224-0.5-0.5s0.224-0.5,0.5-0.5h1.371c1.433,0,2.783-0.687,3.629-1.842v-2.54c-0.019-0.067-0.023-0.134-0.012-0.2
		c0.082-0.49,0.136-0.968,0.164-1.424l-0.017,0C17.487,6.997,17.328,7,17.161,7C15.628,7,13.672,6.774,12,5.061
		c-1.664,1.706-3.594,1.93-5.106,1.93c-0.175,0-0.342-0.003-0.497-0.005c-0.017,0-0.034,0-0.051-0.001
		c0.028,0.459,0.084,0.94,0.166,1.432c0.036,0.218-0.072,0.431-0.269,0.53C6.089,9.024,5.994,9.286,6,9.615
		c0.009,0.489,0.259,1.117,0.702,1.318c0.456,0.208,0.777,0.626,0.859,1.121c0.402,2.406,3.296,3.935,4.426,3.946
		c0.787-0.082,1.546-0.377,2.197-0.853c0.086-0.063,0.188-0.096,0.295-0.096c0.159,0,0.31,0.077,0.404,0.205
		c0.163,0.223,0.114,0.536-0.109,0.699c-0.798,0.584-1.74,0.944-2.725,1.043c-0.008,0.001-0.017,0.001-0.025,0.001H12.023z M19.5,11
		c0.552,0,1-0.449,1-1s-0.448-1-1-1h-1v2H19.5z M12,3.814c0.149,0,0.289,0.066,0.385,0.18C13.854,5.762,15.611,6,17.136,6
		c0.169,0,0.331-0.003,0.484-0.005c0.016,0,0.031,0,0.047-0.001c-0.05-1.413-0.424-2.539-1.112-3.351C15.631,1.553,14.099,1,12,1
		C9.899,1,8.365,1.554,7.441,2.646c-0.686,0.811-1.059,1.933-1.11,3.339c0.027,0,0.055,0.001,0.083,0.001
		C6.569,5.989,6.73,5.991,6.898,5.991c1.512,0,3.255-0.237,4.718-1.997C11.711,3.88,11.851,3.814,12,3.814z"/>
	<path d="M17.692,16.504c-0.071,0-0.142-0.001-0.214-0.005c-0.276-0.012-0.49-0.246-0.478-0.521
		c0.012-0.273,0.225-0.478,0.496-0.478c0.004,0,0.023,0,0.027,0.001c0.054,0.002,0.11,0.004,0.166,0.004
		c0.873,0,1.731-0.295,2.417-0.831c-0.367-0.246-0.693-0.54-0.964-0.883c-0.171-0.217-0.133-0.532,0.083-0.702
		c0.088-0.069,0.198-0.107,0.31-0.107c0.154,0,0.297,0.069,0.393,0.19c0.2,0.254,0.44,0.47,0.713,0.643
		c0.22,0.131,0.381,0.348,0.446,0.607c0.065,0.259,0.026,0.528-0.111,0.757c-0.068,0.114-0.157,0.212-0.264,0.291
		C19.86,16.135,18.786,16.504,17.692,16.504z"/>
</g>
</svg>
