<?xml version="1.0" encoding="utf-8"?>
<!-- Generator: Adobe Illustrator 22.1.0, SVG Export Plug-In . SVG Version: 6.00 Build 0)  -->
<svg version="1.1" id="Layer_1" xmlns="http://www.w3.org/2000/svg" xmlns:xlink="http://www.w3.org/1999/xlink" x="0px" y="0px"
	 viewBox="0 0 24 24" style="enable-background:new 0 0 24 24;" xml:space="preserve">
<g>
	<title>professions-woman-construction-1</title>
	<path d="M23.5,24c-0.276,0-0.5-0.224-0.5-0.5c-0.001-1.452-0.915-2.769-2.275-3.277L20,19.979v3.52c0,0.276-0.224,0.5-0.5,0.5
		s-0.5-0.224-0.5-0.5v-3.855l-1-0.336v4.192c0,0.276-0.224,0.5-0.5,0.5h-11c-0.276,0-0.5-0.224-0.5-0.5v-4.192l-1,0.336v3.856
		c0,0.276-0.224,0.5-0.5,0.5S4,23.775,4,23.499v-3.52l-0.741,0.249C1.911,20.732,1,22.048,1,23.5C1,23.776,0.776,24,0.5,24
		S0,23.776,0,23.5c0-1.867,1.176-3.561,2.925-4.214l4.916-1.652C7.893,17.617,7.946,17.608,8,17.608
		c0.215,0,0.406,0.137,0.474,0.341c0.043,0.126,0.033,0.262-0.026,0.382s-0.162,0.209-0.289,0.251L7,18.971v2.028h4.5v-1.5
		c0-0.276,0.224-0.5,0.5-0.5c0.276,0,0.5,0.224,0.5,0.5v1.5H17v-2.028l-1.159-0.389c-0.261-0.088-0.403-0.372-0.315-0.633
		c0.069-0.204,0.26-0.341,0.475-0.341c0.053,0,0.106,0.009,0.157,0.025l3.514,1.181c0.008,0.003,0.022,0.008,0.029,0.011
		l1.358,0.455c1.761,0.658,2.94,2.352,2.941,4.219C24,23.776,23.776,24,23.5,24z M17,22.999v-1H7v1H17z"/>
	<path d="M11.784,14.75c-0.603,0-1.185-0.223-1.637-0.628c-0.099-0.089-0.158-0.211-0.166-0.345
		c-0.007-0.133,0.038-0.262,0.127-0.361c0.094-0.106,0.23-0.167,0.373-0.167c0.123,0,0.242,0.046,0.334,0.128
		c0.269,0.24,0.611,0.373,0.964,0.373l0.378-0.001c0.375,0,0.718-0.129,0.991-0.373c0.092-0.082,0.21-0.127,0.334-0.127
		c0.142,0,0.278,0.061,0.373,0.167c0.183,0.205,0.166,0.522-0.04,0.706c-0.453,0.405-1.034,0.628-1.636,0.628L11.784,14.75z"/>
	<path d="M9,11c-0.095,0-0.188-0.027-0.269-0.078c-0.113-0.072-0.191-0.183-0.219-0.314c-0.029-0.13-0.005-0.264,0.067-0.377
		c0.293-0.46,0.794-0.734,1.339-0.734c0.027,0,0.055,0.001,0.083,0.002c0.028-0.001,0.055-0.002,0.083-0.002
		c0.545,0,1.045,0.274,1.338,0.734c0.072,0.113,0.096,0.246,0.067,0.377c-0.029,0.13-0.107,0.242-0.219,0.314
		C11.189,10.973,11.096,11,11,11c-0.172,0-0.33-0.086-0.422-0.231c-0.107-0.168-0.297-0.272-0.497-0.272
		c-0.015,0-0.075,0.003-0.082,0.003c-0.013,0-0.068-0.003-0.083-0.003c-0.201,0-0.386,0.102-0.495,0.272C9.329,10.914,9.172,11,9,11
		L9,11z"/>
	<path d="M15,11c-0.172,0-0.33-0.086-0.422-0.231c-0.109-0.17-0.294-0.272-0.496-0.272c-0.015,0-0.076,0.003-0.083,0.003
		c-0.013,0-0.065-0.003-0.079-0.003c-0.204,0-0.391,0.102-0.499,0.272C13.329,10.914,13.172,11,13,11l0,0
		c-0.095,0-0.188-0.027-0.269-0.079c-0.113-0.072-0.19-0.183-0.219-0.314c-0.029-0.13-0.005-0.264,0.067-0.377
		c0.293-0.46,0.794-0.734,1.341-0.734c0.027,0,0.054,0.001,0.081,0.002c0.027-0.001,0.053-0.002,0.08-0.002
		c0.547,0,1.049,0.274,1.342,0.734c0.072,0.113,0.095,0.246,0.067,0.377c-0.029,0.131-0.107,0.242-0.219,0.314
		C15.188,10.973,15.095,11,15,11z"/>
	<path d="M12,5.999c-0.276,0-0.5-0.224-0.5-0.5v-2c0-0.276,0.224-0.5,0.5-0.5c0.276,0,0.5,0.224,0.5,0.5v2
		C12.5,5.775,12.276,5.999,12,5.999z"/>
	<path d="M11.98,18c-1.593,0-4.951-1.862-5.44-4.781c-0.027-0.165-0.135-0.305-0.287-0.374c-0.112-0.051-0.22-0.115-0.323-0.191
		c-0.376,0.982-1.013,1.828-1.858,2.463c-0.013,0.01-0.028,0.02-0.043,0.029c0.695,0.543,1.553,0.84,2.422,0.84
		c0.058,0,0.115-0.001,0.173-0.004c0,0,0.001,0,0.001,0c0.29,0,0.509,0.21,0.52,0.478c0.006,0.133-0.041,0.261-0.131,0.359
		c-0.09,0.098-0.214,0.156-0.347,0.161c-0.071,0.003-0.141,0.005-0.212,0.005c-1.093,0-2.17-0.37-3.032-1.043
		c-0.097-0.072-0.187-0.171-0.253-0.283c-0.137-0.229-0.177-0.498-0.111-0.757c0.063-0.252,0.22-0.467,0.44-0.604
		c0.844-0.639,1.448-1.575,1.689-2.63c-0.14-0.335-0.22-0.699-0.226-1.035c-0.011-0.56,0.163-1.044,0.48-1.354
		C5.38,8.85,5.345,8.421,5.334,8L4.5,8C4.224,8,4,7.776,4,7.5S4.224,7,4.5,7l0.858,0C5.655,2.925,8.24,1.64,9.89,1.236
		C10.017,0.528,10.643,0,11.367,0h1.266c0.725,0,1.351,0.529,1.477,1.238c1.64,0.402,4.205,1.685,4.494,5.761l0.896,0
		c0.276,0,0.5,0.224,0.5,0.5s-0.224,0.5-0.5,0.5l-0.873,0c-0.011,0.421-0.047,0.85-0.107,1.28c0.317,0.31,0.491,0.795,0.48,1.356
		c-0.006,0.3-0.068,0.616-0.18,0.919c0.233,1.099,0.85,2.076,1.742,2.756c0.201,0.125,0.357,0.339,0.42,0.591
		c0.065,0.259,0.025,0.528-0.113,0.757c-0.068,0.114-0.157,0.212-0.263,0.29c-0.852,0.666-1.927,1.035-3.021,1.035
		c-0.071,0-0.142-0.001-0.213-0.005c-0.134-0.006-0.257-0.063-0.347-0.162c-0.09-0.098-0.137-0.226-0.131-0.36
		c0.012-0.264,0.234-0.479,0.496-0.479c0.005,0,0.024,0.001,0.029,0.001c0.055,0.002,0.114,0.004,0.173,0.004
		c0.866,0,1.722-0.295,2.409-0.832c-0.003-0.016-0.018-0.026-0.031-0.036c-0.858-0.651-1.502-1.512-1.879-2.51
		c-0.121,0.098-0.249,0.178-0.383,0.239c-0.152,0.069-0.26,0.209-0.287,0.374C16.927,16.138,13.57,18,11.98,18z M6.348,8
		C6.36,8.644,6.429,9.155,6.473,9.418c0.036,0.218-0.072,0.431-0.27,0.53c-0.154,0.077-0.249,0.339-0.243,0.667
		c0.009,0.489,0.259,1.118,0.705,1.32c0.457,0.207,0.779,0.626,0.861,1.12C7.931,15.469,10.854,17,11.98,17
		c1.124,0,4.045-1.532,4.454-3.948c0.082-0.493,0.404-0.912,0.861-1.119c0.446-0.202,0.696-0.83,0.705-1.318
		c0.006-0.329-0.089-0.591-0.243-0.668c-0.197-0.099-0.306-0.311-0.269-0.529c0.081-0.486,0.132-0.962,0.151-1.419L6.348,8z
		 M9.735,2.317C7.269,3.101,6.535,5.223,6.381,7l2.685,0L9.735,2.317z M11.367,1c-0.247,0-0.46,0.185-0.495,0.429L10.076,7l3.847,0
		l-0.795-5.57C13.093,1.185,12.88,1,12.633,1H11.367z M14.934,6.999l2.694,0c-0.208-3.063-2.047-4.229-3.362-4.672L14.934,6.999z"/>
</g>
</svg>
