<?xml version="1.0" encoding="utf-8"?>
<!-- Generator: Adobe Illustrator 22.1.0, SVG Export Plug-In . SVG Version: 6.00 Build 0)  -->
<svg version="1.1" id="Layer_1" xmlns="http://www.w3.org/2000/svg" xmlns:xlink="http://www.w3.org/1999/xlink" x="0px" y="0px"
	 viewBox="0 0 24 24" style="enable-background:new 0 0 24 24;" xml:space="preserve">
<g>
	<title>professions-woman-construction-2</title>
	<path d="M23.5,24c-0.276,0-0.5-0.224-0.5-0.5c-0.001-1.452-0.915-2.769-2.275-3.277L20,19.979v3.52c0,0.276-0.224,0.5-0.5,0.5
		s-0.5-0.224-0.5-0.5v-3.855l-1.866-0.627L12.5,22.259v1.24c0,0.276-0.224,0.5-0.5,0.5c-0.276,0-0.5-0.224-0.5-0.5v-1.24
		l-4.634-3.243L5,19.643v3.856c0,0.276-0.224,0.5-0.5,0.5S4,23.775,4,23.499v-3.52l-0.741,0.249C1.911,20.732,1,22.048,1,23.5
		C1,23.776,0.776,24,0.5,24S0,23.776,0,23.5c0-1.867,1.176-3.561,2.925-4.214l4.916-1.652C7.893,17.617,7.946,17.608,8,17.608
		c0.215,0,0.406,0.137,0.474,0.341c0.043,0.126,0.033,0.262-0.026,0.382s-0.162,0.209-0.289,0.251L8.045,18.62L12,21.389
		l3.955-2.768l-0.115-0.038c-0.261-0.088-0.403-0.372-0.315-0.633c0.069-0.204,0.26-0.341,0.475-0.341
		c0.053,0,0.106,0.009,0.157,0.025l3.514,1.181c0.008,0.003,0.022,0.008,0.029,0.011l1.358,0.455
		c1.761,0.658,2.94,2.352,2.941,4.219C24,23.776,23.776,24,23.5,24z"/>
	<path d="M11.805,15.001c-0.604,0-1.186-0.223-1.638-0.628c-0.205-0.184-0.223-0.5-0.039-0.706c0.095-0.106,0.231-0.167,0.373-0.167
		c0.123,0,0.242,0.045,0.333,0.128c0.269,0.24,0.612,0.373,0.965,0.373l0.383,0c0.366,0,0.716-0.133,0.985-0.373
		c0.092-0.082,0.21-0.127,0.333-0.127c0.142,0,0.278,0.061,0.373,0.167c0.184,0.205,0.166,0.522-0.039,0.706
		c-0.453,0.405-1.034,0.628-1.635,0.628L11.805,15.001z"/>
	<path d="M9,10.5c-0.095,0-0.188-0.027-0.269-0.079c-0.112-0.072-0.19-0.183-0.219-0.313c-0.029-0.13-0.005-0.264,0.067-0.377
		c0.293-0.46,0.794-0.734,1.34-0.734c0.027,0,0.054,0.001,0.082,0.002c0.028-0.001,0.055-0.002,0.083-0.002
		c0.545,0,1.046,0.275,1.339,0.734c0.072,0.113,0.096,0.246,0.067,0.377c-0.029,0.13-0.107,0.242-0.219,0.314
		C11.189,10.473,11.096,10.5,11,10.5c-0.172,0-0.33-0.086-0.422-0.231c-0.107-0.168-0.297-0.272-0.497-0.272
		C10.067,9.997,10.006,10,10,10c-0.013,0-0.067-0.003-0.081-0.003c-0.203,0-0.388,0.102-0.497,0.272C9.329,10.414,9.172,10.5,9,10.5
		L9,10.5z"/>
	<path d="M15,10.5c-0.172,0-0.33-0.086-0.422-0.231c-0.109-0.17-0.294-0.272-0.496-0.272C14.067,9.997,14.006,10,14,10
		c-0.013,0-0.064-0.003-0.079-0.003c-0.205,0-0.391,0.102-0.5,0.272C13.329,10.414,13.171,10.5,13,10.5h0
		c-0.095,0-0.188-0.027-0.269-0.078c-0.232-0.148-0.301-0.458-0.153-0.69c0.293-0.46,0.793-0.734,1.337-0.734
		c0.028,0,0.056,0.001,0.084,0.002c0.028-0.001,0.056-0.002,0.084-0.002c0.544,0,1.045,0.274,1.338,0.734
		c0.148,0.233,0.08,0.542-0.153,0.69C15.188,10.473,15.095,10.5,15,10.5z"/>
	<path d="M12,18c-1.59,0-4.946-1.862-5.44-4.781c-0.028-0.166-0.135-0.306-0.287-0.375c-0.117-0.053-0.23-0.121-0.338-0.203
		c-0.377,0.986-1.016,1.836-1.863,2.476c-0.015,0.011-0.029,0.02-0.044,0.029c0.695,0.543,1.554,0.839,2.425,0.839
		c0.057,0,0.114-0.001,0.171-0.004c0,0,0.001,0,0.001,0c0.291,0,0.509,0.21,0.52,0.478c0.006,0.133-0.041,0.261-0.131,0.359
		c-0.09,0.098-0.214,0.156-0.347,0.161c-0.071,0.003-0.141,0.005-0.212,0.005c-1.093,0-2.17-0.37-3.032-1.043
		c-0.097-0.072-0.187-0.171-0.253-0.283c-0.137-0.229-0.177-0.498-0.111-0.757c0.064-0.252,0.22-0.467,0.44-0.604
		c0.851-0.646,1.458-1.592,1.698-2.659c-0.133-0.327-0.209-0.682-0.215-1.007c-0.011-0.561,0.162-1.045,0.48-1.355
		C5.402,8.852,5.368,8.423,5.36,8L4.52,8c-0.276,0-0.5-0.224-0.5-0.5S4.244,7,4.52,7l0.869,0c0.197-2.488,1.314-4.349,3.17-5.28
		L8.535,1.621C8.483,1.414,8.569,1.196,8.749,1.08c0.968-0.626,2.087-0.999,3.237-1.079C11.991,0.001,12.014,0,12.02,0l0.033,0.001
		c1.151,0.08,2.27,0.453,3.238,1.079c0.18,0.116,0.266,0.334,0.213,0.542l-0.025,0.101c1.012,0.529,2.941,1.964,3.161,5.276l0.879,0
		c0.276,0,0.5,0.224,0.5,0.5s-0.224,0.5-0.5,0.5l-0.865,0c-0.014,0.417-0.053,0.846-0.115,1.28c0.316,0.31,0.49,0.793,0.479,1.353
		c-0.006,0.305-0.073,0.638-0.191,0.948c0.234,1.09,0.848,2.058,1.734,2.732c0.201,0.125,0.357,0.339,0.42,0.592
		c0.065,0.259,0.025,0.528-0.113,0.757c-0.068,0.114-0.157,0.211-0.263,0.29c-0.853,0.666-1.928,1.035-3.021,1.035
		c-0.071,0-0.142-0.001-0.213-0.005c-0.134-0.006-0.257-0.063-0.347-0.162c-0.09-0.098-0.137-0.226-0.131-0.36
		c0.012-0.268,0.231-0.478,0.5-0.478c0.081,0.003,0.139,0.004,0.198,0.004c0.866,0,1.722-0.295,2.409-0.831
		c-0.001-0.015-0.018-0.026-0.034-0.038c-0.854-0.646-1.496-1.503-1.873-2.498c-0.117,0.093-0.24,0.169-0.368,0.227
		c-0.152,0.069-0.26,0.209-0.287,0.374C16.947,16.138,13.59,18,12,18z M6.347,8c0.016,0.455,0.065,0.931,0.146,1.418
		c0.036,0.217-0.072,0.43-0.269,0.529c-0.154,0.077-0.249,0.339-0.243,0.667c0.009,0.489,0.26,1.118,0.704,1.319
		c0.457,0.207,0.779,0.626,0.861,1.12C7.955,15.468,10.876,17,12,17c1.124,0,4.045-1.532,4.454-3.948
		c0.082-0.493,0.404-0.912,0.861-1.119c0.445-0.202,0.695-0.831,0.705-1.32c0.006-0.328-0.089-0.589-0.243-0.666
		c-0.198-0.099-0.306-0.311-0.27-0.529c0.054-0.329,0.118-0.828,0.134-1.419L6.347,8z M8.811,2.724C7.871,3.272,6.562,4.479,6.365,7
		L9.88,7L8.811,2.724z M10.91,7l2.219,0l1.316-5.262c-0.742-0.418-1.577-0.671-2.425-0.736c-0.849,0.064-1.683,0.318-2.425,0.736
		L10.91,7z M14.161,6.999l3.455,0c-0.117-1.476-0.647-3.297-2.385-4.279L14.161,6.999z"/>
</g>
</svg>
