<?xml version="1.0" encoding="utf-8"?>
<!-- Generator: Adobe Illustrator 22.1.0, SVG Export Plug-In . SVG Version: 6.00 Build 0)  -->
<svg version="1.1" id="Layer_1" xmlns="http://www.w3.org/2000/svg" xmlns:xlink="http://www.w3.org/1999/xlink" x="0px" y="0px"
	 viewBox="0 0 24 24" style="enable-background:new 0 0 24 24;" xml:space="preserve">
<g>
	<title>heater-1</title>
	<path d="M17.5,24.008c-0.276,0-0.5-0.224-0.5-0.5v-0.516H7v0.516c0,0.276-0.224,0.5-0.5,0.5S6,23.784,6,23.508v-0.516H5.5
		c-1.379,0-2.5-1.122-2.5-2.5v-11c0-0.344-0.003-0.688-0.006-1.031C2.969,5.623,2.946,2.943,4.537,1.338
		c0.18-0.181,0.385-0.348,0.627-0.508c0.037-0.034,0.078-0.062,0.122-0.083C6.116,0.239,7.168-0.008,8.5-0.008h7
		c1.772,0,3.071,0.44,3.968,1.345c1.585,1.599,1.562,4.279,1.538,7.116C21.003,8.798,21,9.145,21,9.492v11
		c0,1.378-1.122,2.5-2.5,2.5H18v0.516C18,23.784,17.775,24.008,17.5,24.008z M18.5,21.992c0.827,0,1.5-0.673,1.5-1.5v-11
		c0-0.35,0.003-0.699,0.006-1.047C20.027,5.997,20.047,3.677,19,2.318v4.174c0,1.379-1.122,2.5-2.5,2.5h-9
		c-1.379,0-2.5-1.121-2.5-2.5V2.326C3.953,3.689,3.973,6.007,3.994,8.452l0,0.036C3.997,8.821,4,9.157,4,9.492v11
		c0,0.827,0.673,1.5,1.5,1.5H7v-6c0-2.757,2.243-5,5-5c2.757,0,5,2.243,5,5v6H18.5z M16,21.992v-6c0-2.206-1.794-4-4-4s-4,1.794-4,4
		v6H16z M6,6.492c0,0.827,0.673,1.5,1.5,1.5h9c0.827,0,1.5-0.673,1.5-1.5v-5c-0.646-0.336-1.466-0.5-2.5-0.5h-7
		c-1.034,0-1.854,0.165-2.5,0.503V6.492z"/>
	<path d="M7.52,2.992c-0.276,0-0.5-0.224-0.5-0.5s0.224-0.5,0.5-0.5h9c0.276,0,0.5,0.224,0.5,0.5s-0.224,0.5-0.5,0.5H7.52z"/>
	<path d="M7.52,4.992c-0.276,0-0.5-0.224-0.5-0.5s0.224-0.5,0.5-0.5h9c0.276,0,0.5,0.224,0.5,0.5s-0.224,0.5-0.5,0.5H7.52z"/>
</g>
</svg>
