<?xml version="1.0" encoding="utf-8"?>
<!-- Generator: Adobe Illustrator 22.1.0, SVG Export Plug-In . SVG Version: 6.00 Build 0)  -->
<svg version="1.1" id="Layer_1" xmlns="http://www.w3.org/2000/svg" xmlns:xlink="http://www.w3.org/1999/xlink" x="0px" y="0px"
	 viewBox="0 0 24 24" style="enable-background:new 0 0 24 24;" xml:space="preserve">
<g>
	<title>data-file-bars-cash</title>
	<path d="M1.49,24.014c-0.827,0-1.5-0.673-1.5-1.5v-21c0-0.827,0.673-1.5,1.5-1.5h13.293c0.401,0,0.777,0.156,1.061,0.439
		l3.71,3.707c0.283,0.284,0.439,0.66,0.439,1.061v3.293c0,0.276-0.224,0.5-0.5,0.5s-0.5-0.224-0.5-0.5V5.221
		c0-0.133-0.052-0.259-0.146-0.353l-3.71-3.707c-0.093-0.093-0.222-0.147-0.354-0.147H1.49c-0.276,0-0.5,0.224-0.5,0.5v21
		c0,0.276,0.224,0.5,0.5,0.5h9c0.276,0,0.5,0.224,0.5,0.5s-0.224,0.5-0.5,0.5H1.49z"/>
	<path d="M3.49,16.014c-0.276,0-0.5-0.224-0.5-0.5s0.224-0.5,0.5-0.5h0.5v-4c0-0.551,0.449-1,1-1h1c0.551,0,1,0.449,1,1v4h1v-7
		c0-0.551,0.449-1,1-1h1c0.551,0,1,0.449,1,1v4.5c0,0.276-0.224,0.5-0.5,0.5s-0.5-0.224-0.5-0.5v-4.5h-1v7h0.5
		c0.276,0,0.5,0.224,0.5,0.5s-0.224,0.5-0.5,0.5H3.49z M5.99,15.014v-4h-1l0,4H5.99z"/>
	<path d="M17.49,22.014c-0.276,0-0.5-0.224-0.5-0.5v-0.5h-1c-0.276,0-0.5-0.224-0.5-0.5s0.224-0.5,0.5-0.5h2.03
		c0.345,0,0.651-0.207,0.78-0.528c0.084-0.209,0.082-0.438-0.006-0.645c-0.088-0.207-0.252-0.367-0.46-0.451l-2.062-0.824
		c-0.704-0.282-1.159-0.954-1.158-1.712c0.001-1.015,0.828-1.84,1.842-1.84h0.034v-0.5c0-0.276,0.224-0.5,0.5-0.5s0.5,0.224,0.5,0.5
		v0.5h1c0.276,0,0.5,0.224,0.5,0.5s-0.224,0.5-0.5,0.5h-2.033c-0.465,0-0.843,0.377-0.844,0.841c0,0.347,0.208,0.654,0.529,0.783
		l2.063,0.825c0.457,0.184,0.815,0.534,1.008,0.987c0.193,0.453,0.198,0.954,0.014,1.41c-0.282,0.701-0.953,1.154-1.708,1.154h-0.03
		v0.5C17.99,21.789,17.766,22.014,17.49,22.014z"/>
	<path d="M17.49,24.014c-3.584,0-6.5-2.916-6.5-6.5c0-3.584,2.916-6.5,6.5-6.5s6.5,2.916,6.5,6.5
		C23.99,21.098,21.074,24.014,17.49,24.014z M17.49,12.014c-3.033,0-5.5,2.467-5.5,5.5s2.467,5.5,5.5,5.5s5.5-2.467,5.5-5.5
		S20.523,12.014,17.49,12.014z"/>
</g>
</svg>
