<?xml version="1.0" encoding="utf-8"?>
<!-- Generator: Adobe Illustrator 22.1.0, SVG Export Plug-In . SVG Version: 6.00 Build 0)  -->
<svg version="1.1" id="Layer_1" xmlns="http://www.w3.org/2000/svg" xmlns:xlink="http://www.w3.org/1999/xlink" x="0px" y="0px"
	 viewBox="0 0 24 24" style="enable-background:new 0 0 24 24;" xml:space="preserve">
<g>
	<title>data-file-bars-settings</title>
	<path d="M1.49,24.014c-0.827,0-1.5-0.673-1.5-1.5v-21c0-0.827,0.673-1.5,1.5-1.5h13.293c0.401,0,0.777,0.156,1.061,0.439
		l3.71,3.707c0.283,0.284,0.439,0.66,0.439,1.061v3.293c0,0.276-0.224,0.5-0.5,0.5s-0.5-0.224-0.5-0.5V5.221
		c0-0.133-0.052-0.259-0.146-0.353l-3.71-3.707c-0.093-0.093-0.222-0.147-0.354-0.147H1.49c-0.276,0-0.5,0.224-0.5,0.5v21
		c0,0.276,0.224,0.5,0.5,0.5h9c0.276,0,0.5,0.224,0.5,0.5s-0.224,0.5-0.5,0.5H1.49z"/>
	<path d="M3.49,16.014c-0.276,0-0.5-0.224-0.5-0.5s0.224-0.5,0.5-0.5h0.5v-4c0-0.551,0.449-1,1-1h1c0.551,0,1,0.449,1,1v4h1v-7
		c0-0.551,0.449-1,1-1h1c0.551,0,1,0.449,1,1v4.5c0,0.276-0.224,0.5-0.5,0.5s-0.5-0.224-0.5-0.5v-4.5h-1v7h0.5
		c0.276,0,0.5,0.224,0.5,0.5s-0.224,0.5-0.5,0.5H3.49z M5.99,15.014v-4h-1l0,4H5.99z"/>
	<path d="M17.74,18.983c-1.068,0-1.937-0.869-1.937-1.937s0.869-1.937,1.937-1.937s1.937,0.869,1.937,1.937
		S18.808,18.983,17.74,18.983z M17.74,16.109c-0.517,0-0.937,0.42-0.937,0.937s0.42,0.937,0.937,0.937s0.937-0.42,0.937-0.937
		S18.257,16.109,17.74,16.109z"/>
	<path d="M17.742,24.009c-0.173,0-0.346-0.025-0.513-0.076c-0.572-0.172-1.017-0.617-1.189-1.189l-0.418-1.386
		c-0.057-0.189-0.235-0.321-0.432-0.321c-0.034,0-0.068,0.004-0.101,0.012l-1.411,0.327c-0.133,0.03-0.266,0.044-0.398,0.044
		c-0.335,0-0.664-0.095-0.949-0.276c-0.403-0.255-0.682-0.651-0.787-1.115c-0.13-0.575,0.033-1.176,0.435-1.607l0.986-1.064
		c0.16-0.174,0.159-0.447-0.001-0.622l-0.986-1.063c-0.324-0.343-0.497-0.795-0.484-1.271c0.013-0.476,0.211-0.919,0.557-1.246
		c0.333-0.315,0.767-0.488,1.224-0.488c0.133,0,0.266,0.015,0.396,0.044l1.413,0.328c0.033,0.008,0.067,0.012,0.101,0.012
		c0.197,0,0.375-0.132,0.432-0.321l0.424-1.393c0.224-0.743,0.923-1.261,1.699-1.261c0.173,0,0.345,0.025,0.512,0.076
		c0.572,0.173,1.016,0.617,1.188,1.19l0.424,1.39c0.057,0.19,0.235,0.322,0.432,0.322c0.034,0,0.068-0.004,0.102-0.012l1.411-0.327
		c0.131-0.029,0.262-0.044,0.393-0.044c0.827,0,1.559,0.585,1.741,1.391c0.13,0.575-0.033,1.176-0.435,1.607l-0.986,1.064
		c-0.16,0.174-0.159,0.447,0.001,0.622l0.986,1.063c0.669,0.719,0.629,1.849-0.09,2.519c-0.331,0.309-0.762,0.479-1.215,0.479l0,0
		c-0.132,0-0.264-0.015-0.393-0.044l-1.414-0.328c-0.033-0.008-0.067-0.012-0.101-0.012c-0.198,0-0.375,0.132-0.433,0.321
		l-0.424,1.393c-0.136,0.453-0.441,0.826-0.859,1.051C18.323,23.936,18.033,24.009,17.742,24.009z M15.189,20.038
		c0.635,0,1.207,0.424,1.39,1.032l0.419,1.387c0.075,0.25,0.27,0.444,0.52,0.519c0.073,0.022,0.149,0.033,0.224,0.033
		c0.128,0,0.251-0.031,0.366-0.093c0.182-0.098,0.315-0.261,0.375-0.459l0.425-1.394c0.184-0.606,0.756-1.03,1.392-1.03
		c0.108,0,0.217,0.012,0.323,0.036l1.412,0.327c0.055,0.013,0.113,0.019,0.17,0.019c0.198,0,0.387-0.075,0.532-0.21
		c0.153-0.142,0.241-0.336,0.249-0.545c0.007-0.209-0.067-0.409-0.209-0.561l-0.988-1.066c-0.511-0.555-0.511-1.424-0.001-1.979
		l0.988-1.066c0.177-0.19,0.249-0.454,0.192-0.707c-0.08-0.354-0.401-0.611-0.764-0.611c-0.058,0-0.115,0.007-0.172,0.019
		l-1.408,0.327c-0.107,0.024-0.215,0.036-0.323,0.036c-0.637,0-1.21-0.424-1.393-1.031c0,0-0.425-1.394-0.426-1.396
		c-0.076-0.249-0.269-0.441-0.518-0.516c-0.073-0.022-0.148-0.033-0.223-0.033c-0.339,0-0.645,0.227-0.743,0.552l-0.424,1.393
		c-0.183,0.606-0.756,1.031-1.392,1.031c-0.108,0-0.217-0.012-0.323-0.037l-1.412-0.327c-0.056-0.013-0.115-0.02-0.173-0.02
		c-0.199,0-0.39,0.076-0.536,0.215c-0.152,0.144-0.239,0.338-0.245,0.547c-0.006,0.209,0.07,0.408,0.214,0.56l0.99,1.069
		c0.511,0.555,0.511,1.424,0.001,1.979l-0.988,1.066c-0.177,0.19-0.249,0.454-0.192,0.707c0.046,0.204,0.168,0.378,0.345,0.49
		c0.126,0.079,0.27,0.121,0.416,0.121c0.058,0,0.117-0.007,0.174-0.02l1.408-0.326C14.971,20.05,15.08,20.038,15.189,20.038z"/>
</g>
</svg>
