<?xml version="1.0" encoding="utf-8"?>
<!-- Generator: Adobe Illustrator 22.1.0, SVG Export Plug-In . SVG Version: 6.00 Build 0)  -->
<svg version="1.1" id="Layer_1" xmlns="http://www.w3.org/2000/svg" xmlns:xlink="http://www.w3.org/1999/xlink" x="0px" y="0px"
	 viewBox="0 0 24 24" style="enable-background:new 0 0 24 24;" xml:space="preserve">
<g>
	<title>data-file-bars-upload</title>
	<path d="M1.49,24.014c-0.827,0-1.5-0.673-1.5-1.5v-21c0-0.827,0.673-1.5,1.5-1.5h13.293c0.401,0,0.777,0.156,1.061,0.439
		l3.71,3.707c0.283,0.284,0.439,0.66,0.439,1.061v3.293c0,0.276-0.224,0.5-0.5,0.5s-0.5-0.224-0.5-0.5V5.221
		c0-0.133-0.052-0.259-0.146-0.353l-3.71-3.707c-0.093-0.093-0.222-0.147-0.354-0.147H1.49c-0.276,0-0.5,0.224-0.5,0.5v21
		c0,0.276,0.224,0.5,0.5,0.5h8c0.276,0,0.5,0.224,0.5,0.5s-0.224,0.5-0.5,0.5H1.49z"/>
	<path d="M3.49,16.014c-0.276,0-0.5-0.224-0.5-0.5s0.224-0.5,0.5-0.5h0.5v-4c0-0.551,0.449-1,1-1h1c0.551,0,1,0.449,1,1v4h1v-7
		c0-0.551,0.449-1,1-1h1c0.551,0,1,0.449,1,1v4.5c0,0.276-0.224,0.5-0.5,0.5s-0.5-0.224-0.5-0.5v-4.5h-1v7h0.5
		c0.276,0,0.5,0.224,0.5,0.5s-0.224,0.5-0.5,0.5H3.49z M5.99,15.014v-4h-1l0,4H5.99z"/>
	<path d="M17.49,24.014c-3.584,0-6.5-2.916-6.5-6.5c0-3.584,2.916-6.5,6.5-6.5s6.5,2.916,6.5,6.5
		C23.99,21.098,21.074,24.014,17.49,24.014z M17.49,12.014c-3.033,0-5.5,2.467-5.5,5.5s2.467,5.5,5.5,5.5s5.5-2.467,5.5-5.5
		S20.523,12.014,17.49,12.014z"/>
	<path d="M17.49,21.014c-0.276,0-0.5-0.224-0.5-0.5v-4.793l-1.396,1.396c-0.094,0.094-0.22,0.146-0.354,0.146
		s-0.259-0.052-0.354-0.146s-0.146-0.22-0.146-0.354s0.052-0.259,0.146-0.354l2.25-2.25c0.045-0.046,0.101-0.083,0.163-0.109
		c0.06-0.025,0.125-0.038,0.191-0.038s0.131,0.013,0.191,0.038c0.062,0.025,0.117,0.062,0.163,0.109l2.249,2.249
		c0.094,0.094,0.146,0.22,0.146,0.354s-0.052,0.259-0.146,0.354s-0.22,0.146-0.354,0.146s-0.259-0.052-0.354-0.146l-1.396-1.396
		v4.793C17.99,20.789,17.766,21.014,17.49,21.014z"/>
</g>
</svg>
