<?xml version="1.0" encoding="utf-8"?>
<!-- Generator: Adobe Illustrator 22.1.0, SVG Export Plug-In . SVG Version: 6.00 Build 0)  -->
<svg version="1.1" id="Layer_1" xmlns="http://www.w3.org/2000/svg" xmlns:xlink="http://www.w3.org/1999/xlink" x="0px" y="0px"
	 viewBox="0 0 24 24" style="enable-background:new 0 0 24 24;" xml:space="preserve">
<g>
	<title>data-file-bars-star</title>
	<path d="M13.63,24c-0.112,0-0.225-0.015-0.335-0.044c-0.332-0.089-0.609-0.302-0.78-0.599c-0.199-0.344-0.227-0.77-0.073-1.137
		l1.296-2.987l-2.33-2.075c-0.509-0.451-0.556-1.232-0.105-1.741c0.238-0.268,0.566-0.416,0.925-0.416l2.694,0l1.411-3.268
		c0.181-0.342,0.451-0.566,0.789-0.668c0.123-0.037,0.25-0.056,0.377-0.056c0.212,0,0.424,0.054,0.613,0.155
		c0.225,0.121,0.408,0.304,0.53,0.529c0.004,0.008,0.017,0.035,0.021,0.044L20.068,15h2.665l0.042-0.001
		c0.658,0,1.195,0.521,1.221,1.187c0.014,0.371-0.136,0.724-0.412,0.971l-2.33,2.076l1.296,2.981
		c0.275,0.659-0.035,1.415-0.688,1.687c-0.156,0.065-0.322,0.099-0.493,0.099l0,0c-0.227,0-0.449-0.059-0.644-0.172l-3.224-1.82
		l-3.234,1.822C14.073,23.94,13.853,24,13.63,24z M12.234,16.001c-0.074,0-0.137,0.027-0.183,0.079
		c-0.041,0.046-0.062,0.106-0.058,0.169s0.031,0.12,0.078,0.161l2.601,2.317c0.162,0.144,0.212,0.374,0.126,0.573l-1.437,3.312
		c-0.031,0.075-0.024,0.17,0.019,0.245c0.038,0.066,0.1,0.113,0.173,0.133c0.025,0.007,0.05,0.01,0.074,0.01
		c0.05,0,0.098-0.013,0.143-0.039l3.484-1.963c0.074-0.042,0.159-0.064,0.245-0.064s0.171,0.022,0.246,0.064l3.474,1.961
		c0.047,0.027,0.097,0.041,0.148,0.041c0.038,0,0.074-0.007,0.109-0.022c0.145-0.061,0.214-0.228,0.154-0.373l-1.437-3.306
		c-0.086-0.198-0.036-0.428,0.126-0.572l2.6-2.317c0.052-0.047,0.081-0.114,0.078-0.184C22.992,16.099,22.887,16,22.757,16l-3.018,0
		c-0.2,0-0.38-0.119-0.459-0.302l-1.529-3.545c-0.028-0.045-0.067-0.082-0.114-0.107c-0.044-0.024-0.092-0.036-0.141-0.036
		c-0.029,0-0.059,0.004-0.087,0.013c-0.077,0.023-0.14,0.075-0.178,0.145l-1.522,3.531c-0.079,0.183-0.259,0.302-0.459,0.302
		L12.234,16.001z"/>
	<path d="M1.5,24C0.673,24,0,23.327,0,22.5v-21C0,0.673,0.673,0,1.5,0h13.29c0.415,0.01,0.79,0.166,1.063,0.439l3.7,3.707
		c0.283,0.283,0.439,0.66,0.439,1.06V9.5c0,0.276-0.224,0.5-0.5,0.5s-0.5-0.224-0.5-0.5V5.207c0-0.133-0.052-0.259-0.146-0.354
		l-3.7-3.707C15.055,1.055,14.924,1.001,14.789,1H1.5C1.224,1,1,1.224,1,1.5v21C1,22.776,1.224,23,1.5,23h9
		c0.276,0,0.5,0.224,0.5,0.5S10.776,24,10.5,24H1.5z"/>
	<path d="M3.497,16c-0.276,0-0.5-0.224-0.5-0.5s0.224-0.5,0.5-0.5H4v-4c0-0.551,0.449-1,1-1h1c0.551,0,1,0.449,1,1v4h1V8
		c0-0.551,0.449-1,1-1h1c0.551,0,1,0.449,1,1v5.5c0,0.276-0.224,0.5-0.5,0.5S10,13.776,10,13.5V8H9v7.5C9,15.776,8.776,16,8.5,16
		C8.5,16,3.497,16,3.497,16z M6,15v-4H5l0,4H6z"/>
</g>
</svg>
