<?xml version="1.0" encoding="utf-8"?>
<!-- Generator: Adobe Illustrator 22.1.0, SVG Export Plug-In . SVG Version: 6.00 Build 0)  -->
<svg version="1.1" id="Layer_1" xmlns="http://www.w3.org/2000/svg" xmlns:xlink="http://www.w3.org/1999/xlink" x="0px" y="0px"
	 viewBox="0 0 24 24" style="enable-background:new 0 0 24 24;" xml:space="preserve">
<g>
	<title>data-file-clock</title>
	<path d="M1.5,24.016c-0.827,0-1.5-0.673-1.5-1.5v-21c0-0.827,0.673-1.5,1.5-1.5h13.3c0.399,0.002,0.772,0.158,1.053,0.438
		l3.708,3.708C19.844,4.446,20,4.822,20,5.223v3.293c0,0.276-0.224,0.5-0.5,0.5S19,8.792,19,8.516V5.223
		c0-0.133-0.052-0.259-0.146-0.354l-3.707-3.708c-0.093-0.093-0.217-0.145-0.349-0.146H1.5c-0.276,0-0.5,0.224-0.5,0.5v21
		c0,0.276,0.224,0.5,0.5,0.5h9c0.276,0,0.5,0.224,0.5,0.5s-0.224,0.5-0.5,0.5H1.5z"/>
	<path d="M4.504,17.016c-0.276,0-0.5-0.224-0.5-0.5v-2.571c-0.001-0.007-0.001-0.033,0.001-0.06L4.004,6.516
		c0-0.276,0.224-0.5,0.5-0.5s0.5,0.224,0.5,0.5v6.198L7.1,10.617c0.258-0.257,0.601-0.398,0.966-0.398
		c0.27,0,0.531,0.079,0.755,0.228l1.393,0.929c0.06,0.04,0.13,0.062,0.202,0.062c0.101,0,0.195-0.041,0.265-0.116l2.738-2.921
		c0.094-0.1,0.227-0.158,0.365-0.158c0.128,0,0.249,0.048,0.342,0.136c0.097,0.091,0.153,0.215,0.157,0.348
		s-0.044,0.261-0.135,0.358l-2.738,2.921c-0.258,0.275-0.62,0.432-0.994,0.432l0,0c-0.269,0-0.531-0.079-0.756-0.229l-1.393-0.929
		c-0.059-0.039-0.129-0.06-0.201-0.06c-0.098,0-0.19,0.038-0.258,0.106l-2.803,2.803v1.888h3.5c0.276,0,0.5,0.224,0.5,0.5
		s-0.224,0.5-0.5,0.5H4.504z"/>
	<path d="M17.504,24.016c-3.584,0-6.5-2.916-6.5-6.5c0-3.584,2.916-6.5,6.5-6.5s6.5,2.916,6.5,6.5
		C24.004,21.1,21.088,24.016,17.504,24.016z M17.504,12.016c-3.033,0-5.5,2.467-5.5,5.5s2.467,5.5,5.5,5.5s5.5-2.467,5.5-5.5
		S20.537,12.016,17.504,12.016z"/>
	<path d="M17.504,18.016c-0.276,0-0.5-0.224-0.5-0.5v-3c0-0.276,0.224-0.5,0.5-0.5s0.5,0.224,0.5,0.5v2.5h1.5
		c0.276,0,0.5,0.224,0.5,0.5s-0.224,0.5-0.5,0.5H17.504z"/>
</g>
</svg>
