<?xml version="1.0" encoding="utf-8"?>
<!-- Generator: Adobe Illustrator 22.1.0, SVG Export Plug-In . SVG Version: 6.00 Build 0)  -->
<svg version="1.1" id="Layer_1" xmlns="http://www.w3.org/2000/svg" xmlns:xlink="http://www.w3.org/1999/xlink" x="0px" y="0px"
	 viewBox="0 0 24 24" style="enable-background:new 0 0 24 24;" xml:space="preserve">
<g>
	<title>data-file-bars-warning</title>
	<circle cx="17.488" cy="20.743" r="0.75"/>
	<path d="M17.488,18.993c-0.276,0-0.5-0.224-0.5-0.5v-3c0-0.276,0.224-0.5,0.5-0.5s0.5,0.224,0.5,0.5v3
		C17.988,18.769,17.764,18.993,17.488,18.993z"/>
	<path d="M12.436,23.993c-0.5,0-0.97-0.263-1.231-0.685c-0.264-0.426-0.282-0.966-0.049-1.41l5.052-9.63
		c0.138-0.258,0.345-0.466,0.601-0.602c0.208-0.111,0.443-0.169,0.678-0.169c0.538,0,1.029,0.295,1.281,0.769l5.057,9.634
		c0.233,0.443,0.214,0.982-0.048,1.409c-0.266,0.43-0.723,0.686-1.223,0.686H12.436z M17.488,12.497
		c-0.073,0-0.144,0.018-0.21,0.052c-0.08,0.042-0.144,0.106-0.186,0.186l-5.051,9.629c-0.07,0.132-0.064,0.292,0.014,0.418
		c0.08,0.13,0.225,0.211,0.378,0.211h10.111c0.158,0,0.3-0.079,0.382-0.211c0.078-0.126,0.083-0.287,0.014-0.418l-5.056-9.631
		C17.807,12.588,17.655,12.497,17.488,12.497z"/>
	<path d="M1.489,24.035c-0.827,0-1.5-0.673-1.5-1.5v-21c0-0.827,0.673-1.5,1.5-1.5h13.293c0.395,0,0.781,0.16,1.061,0.44l3.71,3.707
		c0.283,0.284,0.439,0.66,0.439,1.061v4.293c0,0.276-0.224,0.5-0.5,0.5s-0.5-0.224-0.5-0.5V5.242c0-0.133-0.052-0.259-0.146-0.353
		l-3.71-3.707c-0.093-0.093-0.222-0.147-0.353-0.147H1.489c-0.276,0-0.5,0.224-0.5,0.5v21c0,0.276,0.224,0.5,0.5,0.5h7
		c0.276,0,0.5,0.224,0.5,0.5s-0.224,0.5-0.5,0.5H1.489z"/>
	<path d="M3.489,16.035c-0.276,0-0.5-0.224-0.5-0.5s0.224-0.5,0.5-0.5h0.5v-4c0-0.551,0.449-1,1-1h1c0.551,0,1,0.449,1,1v4h1v-7
		c0-0.551,0.449-1,1-1h1c0.551,0,1,0.449,1,1v7h1v-5c0-0.551,0.448-1,1-1h1c0.552,0,1,0.449,1,1v1.5c0,0.276-0.224,0.5-0.5,0.5
		s-0.5-0.224-0.5-0.5v-1.5h-1v5.5c0,0.276-0.224,0.5-0.5,0.5H3.489z M9.989,15.035v-7h-1l0,7H9.989z M5.989,15.035v-4h-1l0,4H5.989z
		"/>
</g>
</svg>
