<?xml version="1.0" encoding="utf-8"?>
<!-- Generator: Adobe Illustrator 22.1.0, SVG Export Plug-In . SVG Version: 6.00 Build 0)  -->
<svg version="1.1" id="Layer_1" xmlns="http://www.w3.org/2000/svg" xmlns:xlink="http://www.w3.org/1999/xlink" x="0px" y="0px"
	 viewBox="0 0 24 24" style="enable-background:new 0 0 24 24;" xml:space="preserve">
<g>
	<title>data-file-bars-share</title>
	<path d="M1.5,24C0.673,24,0,23.327,0,22.5v-21C0,0.673,0.673,0,1.5,0h13.29c0.398,0,0.784,0.16,1.064,0.439l3.7,3.707
		c0.283,0.283,0.439,0.66,0.439,1.06V9.5c0,0.276-0.224,0.5-0.5,0.5s-0.5-0.224-0.5-0.5V5.207c0-0.133-0.052-0.259-0.146-0.354
		l-3.7-3.707C15.053,1.053,14.924,1,14.792,1H1.5C1.224,1,1,1.224,1,1.5v21C1,22.776,1.224,23,1.5,23h11c0.276,0,0.5,0.224,0.5,0.5
		S12.776,24,12.5,24H1.5z"/>
	<path d="M3.497,16c-0.276,0-0.5-0.224-0.5-0.5s0.224-0.5,0.5-0.5H4v-4c0-0.551,0.449-1,1-1h1c0.551,0,1,0.449,1,1v4h1V8
		c0-0.551,0.449-1,1-1h1c0.551,0,1,0.449,1,1v4.5c0,0.276-0.224,0.5-0.5,0.5S10,12.776,10,12.5V8H9v7h0.497
		c0.276,0,0.5,0.224,0.5,0.5S9.773,16,9.497,16H3.497z M6,15v-4H5l0,4H6z"/>
	<path d="M21.247,24c-1.516,0-2.75-1.234-2.75-2.75c0-0.18,0.018-0.36,0.055-0.54l-2.482-0.993C15.567,20.514,14.696,21,13.747,21
		c-1.516,0-2.75-1.234-2.75-2.75s1.234-2.75,2.75-2.75c0.797,0,1.535,0.337,2.058,0.932l2.868-1.72
		c-0.117-0.309-0.176-0.632-0.176-0.961c0-1.516,1.234-2.75,2.75-2.75s2.75,1.234,2.75,2.75s-1.234,2.75-2.75,2.75
		c-0.797,0-1.535-0.337-2.058-0.932l-2.868,1.721c0.117,0.309,0.176,0.632,0.176,0.961c0,0.179-0.018,0.36-0.055,0.539l2.482,0.993
		c0.503-0.796,1.374-1.282,2.323-1.282c1.516,0,2.75,1.234,2.75,2.75S22.763,24,21.247,24z M21.247,19.5
		c-0.965,0-1.75,0.785-1.75,1.75S20.282,23,21.247,23s1.75-0.785,1.75-1.75S22.212,19.5,21.247,19.5z M13.747,16.5
		c-0.965,0-1.75,0.785-1.75,1.75S12.782,20,13.747,20s1.75-0.785,1.75-1.75c0-0.304-0.081-0.605-0.235-0.871
		c-0.008-0.01-0.015-0.02-0.02-0.028c-0.006-0.01-0.011-0.021-0.016-0.032C14.914,16.813,14.357,16.5,13.747,16.5z M19.766,14.679
		c0.316,0.51,0.871,0.821,1.48,0.821c0.965,0,1.75-0.785,1.75-1.75S22.212,12,21.247,12s-1.75,0.785-1.75,1.75
		c0,0.304,0.081,0.604,0.235,0.871c0.009,0.011,0.017,0.022,0.023,0.033C19.758,14.661,19.763,14.67,19.766,14.679z"/>
</g>
</svg>
