<?xml version="1.0" encoding="utf-8"?>
<!-- Generator: Adobe Illustrator 22.1.0, SVG Export Plug-In . SVG Version: 6.00 Build 0)  -->
<svg version="1.1" id="Layer_1" xmlns="http://www.w3.org/2000/svg" xmlns:xlink="http://www.w3.org/1999/xlink" x="0px" y="0px"
	 viewBox="0 0 24 24" style="enable-background:new 0 0 24 24;" xml:space="preserve">
<g>
	<title>data-file-check</title>
	<path d="M1.5,24C0.673,24,0,23.327,0,22.5v-21C0,0.673,0.673,0,1.5,0h13.293c0.401,0,0.777,0.156,1.061,0.439l3.707,3.707
		C19.844,4.43,20,4.807,20,5.207V8.5C20,8.776,19.776,9,19.5,9S19,8.776,19,8.5V5.207c0-0.133-0.052-0.259-0.146-0.354l-3.707-3.707
		C15.053,1.053,14.925,1,14.793,1H1.5C1.224,1,1,1.224,1,1.5v21C1,22.776,1.224,23,1.5,23h8c0.276,0,0.5,0.224,0.5,0.5
		S9.776,24,9.5,24H1.5z"/>
	<path d="M4.5,17C4.224,17,4,16.776,4,16.5v-10C4,6.224,4.224,6,4.5,6S5,6.224,5,6.5v6.202l2.1-2.1
		c0.257-0.257,0.6-0.398,0.966-0.398c0.27,0,0.531,0.079,0.755,0.228l1.393,0.929c0.06,0.04,0.13,0.062,0.202,0.062
		c0.101,0,0.195-0.041,0.265-0.115l2.738-2.921c0.094-0.1,0.227-0.158,0.365-0.158c0.128,0,0.249,0.048,0.342,0.136
		c0.097,0.091,0.153,0.215,0.157,0.348s-0.044,0.261-0.135,0.358l-2.738,2.921c-0.258,0.274-0.62,0.432-0.994,0.432c0,0,0,0,0,0
		c-0.269,0-0.531-0.079-0.756-0.229l-1.393-0.929c-0.059-0.039-0.129-0.06-0.201-0.06c-0.098,0-0.19,0.038-0.258,0.106L5,14.116V16
		h3.5C8.776,16,9,16.224,9,16.5S8.776,17,8.5,17H4.5z"/>
	<path d="M17.5,24c-3.584,0-6.5-2.916-6.5-6.5s2.916-6.5,6.5-6.5s6.5,2.916,6.5,6.5S21.084,24,17.5,24z M17.5,12
		c-3.033,0-5.5,2.467-5.5,5.5s2.467,5.5,5.5,5.5s5.5-2.467,5.5-5.5S20.533,12,17.5,12z"/>
	<path d="M16.667,20.428c-0.273,0-0.533-0.087-0.751-0.251c-0.047-0.035-0.09-0.073-0.131-0.114l-1.5-1.5
		c-0.195-0.195-0.195-0.512,0-0.707c0.094-0.094,0.22-0.146,0.354-0.146s0.259,0.052,0.354,0.146l1.5,1.5
		c0.008,0.008,0.017,0.016,0.027,0.023c0.042,0.032,0.094,0.049,0.149,0.049c0.081,0,0.154-0.037,0.202-0.1l2.905-3.872
		c0.093-0.125,0.243-0.2,0.4-0.2c0.109,0,0.213,0.035,0.3,0.1c0.107,0.08,0.176,0.197,0.195,0.329
		c0.019,0.132-0.015,0.264-0.095,0.371l-2.905,3.872C17.434,20.242,17.059,20.428,16.667,20.428z"/>
</g>
</svg>
