<?xml version="1.0" encoding="utf-8"?>
<!-- Generator: Adobe Illustrator 22.1.0, SVG Export Plug-In . SVG Version: 6.00 Build 0)  -->
<svg version="1.1" id="Layer_1" xmlns="http://www.w3.org/2000/svg" xmlns:xlink="http://www.w3.org/1999/xlink" x="0px" y="0px"
	 viewBox="0 0 24 24" style="enable-background:new 0 0 24 24;" xml:space="preserve">
<g>
	<title>data-file-bars-add</title>
	<path d="M1.5,24C0.673,24,0,23.327,0,22.5v-21C0,0.673,0.673,0,1.5,0h13.29c0.398,0,0.784,0.16,1.064,0.439l3.7,3.707
		c0.283,0.283,0.439,0.66,0.439,1.06V9.5c0,0.276-0.224,0.5-0.5,0.5s-0.5-0.224-0.5-0.5V5.207c0-0.133-0.052-0.259-0.146-0.354
		l-3.7-3.707C15.053,1.053,14.924,1,14.792,1H1.5C1.224,1,1,1.224,1,1.5v21C1,22.776,1.224,23,1.5,23h9c0.276,0,0.5,0.224,0.5,0.5
		S10.776,24,10.5,24H1.5z"/>
	<path d="M3.497,16c-0.276,0-0.5-0.224-0.5-0.5s0.224-0.5,0.5-0.5H4v-4c0-0.551,0.449-1,1-1h1c0.551,0,1,0.449,1,1v4h1V8
		c0-0.551,0.449-1,1-1h1c0.551,0,1,0.449,1,1v4.5c0,0.276-0.224,0.5-0.5,0.5S10,12.776,10,12.5V8H9v7h0.497
		c0.276,0,0.5,0.224,0.5,0.5S9.773,16,9.497,16H3.497z M6,15v-4H5l0,4H6z"/>
	<path d="M17.497,24c-3.584,0-6.5-2.916-6.5-6.5s2.916-6.5,6.5-6.5c3.584,0,6.5,2.916,6.5,6.5S21.081,24,17.497,24z M17.497,12
		c-3.033,0-5.5,2.467-5.5,5.5s2.467,5.5,5.5,5.5s5.5-2.467,5.5-5.5S20.529,12,17.497,12z"/>
	<path d="M17.497,21c-0.276,0-0.5-0.224-0.5-0.5V18h-2.5c-0.276,0-0.5-0.224-0.5-0.5s0.224-0.5,0.5-0.5h2.5v-2.5
		c0-0.276,0.224-0.5,0.5-0.5s0.5,0.224,0.5,0.5V17h2.5c0.276,0,0.5,0.224,0.5,0.5s-0.224,0.5-0.5,0.5h-2.5v2.5
		C17.997,20.776,17.772,21,17.497,21z"/>
</g>
</svg>
