<?xml version="1.0" encoding="utf-8"?>
<!-- Generator: Adobe Illustrator 22.1.0, SVG Export Plug-In . SVG Version: 6.00 Build 0)  -->
<svg version="1.1" id="Light" xmlns="http://www.w3.org/2000/svg" xmlns:xlink="http://www.w3.org/1999/xlink" x="0px" y="0px"
	 viewBox="0 0 24 24" style="enable-background:new 0 0 24 24;" xml:space="preserve">
<g>
	<title>ceiling-lamp-2</title>
	<path d="M12,24c-0.276,0-0.5-0.224-0.5-0.5V22c0-0.276,0.224-0.5,0.5-0.5c0.276,0,0.5,0.224,0.5,0.5v1.5
		C12.5,23.776,12.276,24,12,24z"/>
	<path d="M8.675,23.964c-0.035,0-0.071-0.004-0.107-0.011c-0.271-0.06-0.441-0.328-0.382-0.597l0.325-1.464
		c0.051-0.23,0.252-0.391,0.489-0.391c0.035,0,0.071,0.004,0.105,0.011c0.271,0.061,0.442,0.328,0.382,0.597l-0.325,1.464
		C9.113,23.799,8.908,23.964,8.675,23.964z"/>
	<path d="M5.5,23.859c-0.073,0-0.144-0.016-0.211-0.047c-0.25-0.117-0.359-0.415-0.242-0.665l0.634-1.359
		c0.082-0.175,0.26-0.289,0.453-0.289c0.073,0,0.144,0.016,0.211,0.047c0.25,0.117,0.359,0.415,0.242,0.665L5.953,23.57
		C5.871,23.746,5.693,23.859,5.5,23.859z"/>
	<path d="M15.325,23.964c-0.232,0-0.438-0.165-0.488-0.392l-0.325-1.464c-0.059-0.269,0.111-0.537,0.38-0.596
		c0.037-0.008,0.073-0.012,0.108-0.012c0.237,0,0.438,0.161,0.489,0.392l0.325,1.464c0.059,0.269-0.111,0.537-0.38,0.596
		C15.396,23.96,15.36,23.964,15.325,23.964z"/>
	<path d="M18.5,23.859c-0.193,0-0.371-0.113-0.453-0.288l-0.634-1.359c-0.116-0.25-0.008-0.548,0.242-0.665
		c0.067-0.031,0.138-0.047,0.211-0.047c0.194,0,0.372,0.113,0.453,0.289l0.634,1.359c0.116,0.25,0.008,0.548-0.242,0.665
		C18.644,23.843,18.573,23.859,18.5,23.859z"/>
	<path d="M4,20c-0.534,0-1.037-0.208-1.414-0.586C2.208,19.037,2,18.535,2,18l0-0.032c0.067-4.114,2.672-7.834,6.5-9.315V7.5
		c0-1.738,1.3-3.216,3-3.461V1h-11C0.224,1,0,0.776,0,0.5S0.224,0,0.5,0h23C23.776,0,24,0.224,24,0.5S23.776,1,23.5,1h-11v3.039
		c1.7,0.245,3,1.723,3,3.461v1.155c3.827,1.48,6.431,5.2,6.499,9.311c0.009,0.534-0.19,1.04-0.562,1.424
		c-0.371,0.384-0.87,0.601-1.404,0.61c0,0-0.033,0-0.034,0H4z M9.086,9.5C5.506,10.776,3.062,14.178,3,17.981
		c0,0.282,0.101,0.534,0.293,0.726C3.482,18.896,3.733,19,4,19h16c0.28-0.005,0.53-0.11,0.719-0.305
		c0.185-0.192,0.285-0.445,0.28-0.712c-0.063-3.84-2.538-7.254-6.165-8.509L9.086,9.5z M12,5c-1.379,0-2.5,1.121-2.5,2.5v0.998
		l5-0.022V7.5C14.5,6.121,13.378,5,12,5z"/>
</g>
</svg>
