<?xml version="1.0" encoding="utf-8"?>
<!-- Generator: Adobe Illustrator 22.1.0, SVG Export Plug-In . SVG Version: 6.00 Build 0)  -->
<svg version="1.1" id="Light" xmlns="http://www.w3.org/2000/svg" xmlns:xlink="http://www.w3.org/1999/xlink" x="0px" y="0px"
	 viewBox="0 0 24 24" style="enable-background:new 0 0 24 24;" xml:space="preserve">
<g>
	<title>ceiling-lamp-chandelier</title>
	<path d="M13.5,7C13.224,7,13,6.776,13,6.5v-1c0-0.551-0.448-1-1-1c-0.551,0-1,0.449-1,1v1C11,6.776,10.776,7,10.5,7
		S10,6.776,10,6.5v-1c0-0.913,0.631-1.709,1.5-1.934V1.5C11.5,1.224,11.724,1,12,1c0.276,0,0.5,0.224,0.5,0.5v2.066
		C13.369,3.791,14,4.587,14,5.5v1C14,6.776,13.776,7,13.5,7z"/>
	<path d="M5.611,22.361c-0.98,0-1.778-0.798-1.778-1.778s0.798-1.778,1.778-1.778c0.33,0,0.656,0.094,0.936,0.268
		c1.355-1.215,2.415-2.742,3.07-4.425c0.076-0.194,0.258-0.319,0.466-0.319c0.063,0,0.124,0.012,0.183,0.035
		c0.123,0.048,0.221,0.142,0.275,0.264c0.054,0.122,0.057,0.258,0.008,0.383c-0.712,1.83-1.863,3.488-3.335,4.807
		c0.115,0.239,0.175,0.5,0.175,0.765C7.389,21.563,6.591,22.361,5.611,22.361z M5.611,19.805c-0.429,0-0.778,0.349-0.778,0.778
		s0.349,0.778,0.778,0.778c0.429,0,0.778-0.349,0.778-0.778S6.04,19.805,5.611,19.805z"/>
	<path d="M1.778,19.167C0.798,19.167,0,18.369,0,17.389c0-0.98,0.798-1.778,1.778-1.778c0.73,0,1.368,0.437,1.64,1.093
		c0.803-0.344,2.124-0.996,3.368-2c1.602-1.294,2.546-2.736,2.804-4.286C9.63,10.176,9.837,10,10.082,10
		c0.028,0,0.056,0.002,0.084,0.007c0.271,0.045,0.456,0.303,0.41,0.575c-0.3,1.799-1.364,3.448-3.162,4.9
		c-1.472,1.188-3.023,1.912-3.895,2.263C3.353,18.566,2.629,19.167,1.778,19.167z M1.778,16.611C1.349,16.611,1,16.96,1,17.389
		s0.349,0.778,0.778,0.778c0.429,0,0.778-0.349,0.778-0.778S2.207,16.611,1.778,16.611z"/>
	<path d="M12,23c-0.98,0-1.778-0.798-1.778-1.778c0-0.8,0.526-1.486,1.278-1.705V10.5c0-0.276,0.224-0.5,0.5-0.5
		c0.276,0,0.5,0.224,0.5,0.5v9.017c0.752,0.218,1.278,0.905,1.278,1.705C13.778,22.202,12.98,23,12,23z M12,20.444
		c-0.429,0-0.778,0.349-0.778,0.778S11.571,22,12,22s0.778-0.349,0.778-0.778S12.429,20.444,12,20.444z"/>
	<path d="M22.222,19.167c-0.851,0-1.575-0.601-1.741-1.422c-0.872-0.351-2.424-1.075-3.895-2.263
		c-1.799-1.452-2.863-3.101-3.162-4.9c-0.045-0.272,0.139-0.53,0.411-0.575C13.863,10.002,13.89,10,13.917,10
		c0.246,0,0.454,0.176,0.493,0.418c0.259,1.55,1.202,2.992,2.804,4.286c1.245,1.005,2.564,1.657,3.368,2
		c0.272-0.656,0.91-1.093,1.64-1.093c0.98,0,1.778,0.798,1.778,1.778C24,18.369,23.202,19.167,22.222,19.167z M22.222,16.611
		c-0.429,0-0.778,0.349-0.778,0.778s0.349,0.778,0.778,0.778S23,17.818,23,17.389S22.651,16.611,22.222,16.611z"/>
	<path d="M18.389,22.361c-0.98,0-1.778-0.798-1.778-1.778c0-0.265,0.06-0.526,0.175-0.765c-1.472-1.32-2.623-2.978-3.334-4.808
		c-0.1-0.257,0.028-0.547,0.285-0.647c0.058-0.023,0.119-0.034,0.181-0.034c0.205,0,0.392,0.128,0.466,0.319
		c0.655,1.683,1.714,3.209,3.069,4.425c0.281-0.174,0.606-0.268,0.937-0.268c0.98,0,1.778,0.798,1.778,1.778
		S19.369,22.361,18.389,22.361z M18.389,19.805c-0.429,0-0.778,0.349-0.778,0.778s0.349,0.778,0.778,0.778s0.778-0.349,0.778-0.778
		S18.818,19.805,18.389,19.805z"/>
	<path d="M4.5,10.5c-0.202,0-0.383-0.121-0.461-0.308C3.932,9.938,4.053,9.645,4.308,9.539C6.741,8.525,9.329,8.011,12,8.011
		s5.259,0.514,7.693,1.528c0.123,0.051,0.219,0.148,0.27,0.271s0.051,0.26-0.001,0.383C19.884,10.379,19.702,10.5,19.5,10.5
		c-0.066,0-0.131-0.013-0.193-0.039C16.997,9.499,14.538,9.01,12,9.01s-4.997,0.488-7.308,1.451C4.632,10.487,4.566,10.5,4.5,10.5z"
		/>
</g>
</svg>
