<?xml version="1.0" encoding="utf-8"?>
<!-- Generator: Adobe Illustrator 22.1.0, SVG Export Plug-In . SVG Version: 6.00 Build 0)  -->
<svg version="1.1" id="Light" xmlns="http://www.w3.org/2000/svg" xmlns:xlink="http://www.w3.org/1999/xlink" x="0px" y="0px"
	 viewBox="0 0 24 24" style="enable-background:new 0 0 24 24;" xml:space="preserve">
<g>
	<title>ceiling-lamp-ball-chandelier</title>
	<path d="M17.499,20c-0.275,0-0.5-0.224-0.5-0.499c0-0.134,0.052-0.259,0.146-0.354C17.239,19.052,17.364,19,17.498,19
		c0.623-0.001,1.236-0.106,1.823-0.313c0.918-0.323,1.716-0.872,2.339-1.602c-1.249,0.278-2.527,0.418-3.808,0.418
		c-0.121,0-0.242-0.001-0.363-0.004l-0.215-0.003c-0.254-0.003-0.521-0.007-0.795-0.018c-0.276-0.011-0.49-0.244-0.479-0.52
		c0.011-0.269,0.23-0.479,0.499-0.479c0.006,0,0.021,0,0.027,0.001c0.335,0.013,0.656,0.02,0.973,0.02
		c0.121,0.002,0.237,0.004,0.352,0.004c1.559,0,3.112-0.222,4.617-0.66c0.242-0.514,0.402-1.055,0.476-1.613
		c-1.546,0.521-3.147,0.785-4.766,0.785c-0.233,0-0.468-0.005-0.702-0.016L17.351,15c-0.281,0-0.552-0.009-0.873-0.022
		c-0.275-0.011-0.49-0.244-0.479-0.52c0.011-0.269,0.23-0.479,0.499-0.479c0.006,0,0.021,0,0.027,0.001
		c0.335,0.013,0.656,0.02,0.973,0.02c0.229,0.01,0.446,0.015,0.662,0.015c1.648,0,3.269-0.288,4.82-0.857
		c-0.029-0.462-0.115-0.916-0.257-1.353c-1.571,0.464-3.19,0.7-4.816,0.7c-0.141,0-0.281-0.002-0.423-0.005
		c-0.002,0-0.004,0-0.006,0c-0.325,0-0.654-0.007-1.002-0.021c-0.275-0.011-0.49-0.244-0.479-0.52c0.01-0.273,0.223-0.48,0.494-0.48
		c0.005,0,0.025,0.001,0.03,0.001c0.338,0.014,0.658,0.02,0.976,0.02c0.134,0.003,0.262,0.005,0.391,0.005
		c1.502,0,2.994-0.21,4.438-0.626c-0.245-0.452-0.553-0.867-0.92-1.238c-1.238,0.239-2.494,0.36-3.737,0.36L17.494,10
		c-0.376,0-0.752-0.009-1.113-0.026c-0.275-0.014-0.488-0.249-0.475-0.524c0.013-0.267,0.233-0.476,0.501-0.476
		C16.774,8.991,17.133,9,17.499,9l0.124,0c0.902,0,1.816-0.067,2.727-0.199c-0.157-0.096-0.318-0.183-0.481-0.262
		c-0.752-0.36-1.549-0.542-2.371-0.542c-0.621,0-1.238,0.106-1.832,0.316c-0.053,0.019-0.109,0.028-0.166,0.028
		c-0.212,0-0.402-0.134-0.472-0.334c-0.044-0.126-0.037-0.262,0.021-0.382c0.058-0.12,0.159-0.211,0.285-0.256
		c0.541-0.19,1.1-0.309,1.666-0.353V0.5c0-0.276,0.224-0.5,0.5-0.5s0.5,0.224,0.5,0.5v6.518c0.798,0.062,1.571,0.27,2.302,0.62
		c1.402,0.672,2.516,1.827,3.14,3.255c0.031,0.042,0.055,0.089,0.072,0.139c0.009,0.026,0.012,0.05,0.015,0.069l0.023,0.055
		c0.026,0.06,0.052,0.121,0.074,0.183c0.244,0.693,0.369,1.414,0.372,2.143c0.001,0.013,0.002,0.035,0,0.057
		c-0.002,0.947-0.217,1.885-0.64,2.767c-0.013,0.028-0.028,0.053-0.042,0.079l-0.014,0.026c-0.019,0.058-0.048,0.113-0.086,0.16
		c-0.769,1.434-2.032,2.519-3.56,3.057C18.959,19.875,18.235,19.999,17.499,20L17.499,20z"/>
	<path d="M5.257,19.633c-0.055,0-0.109-0.009-0.161-0.026c-1.809-0.614-3.3-1.884-4.2-3.575C0.85,15.975,0.818,15.913,0.8,15.848
		c-0.501-1.007-0.773-2.129-0.787-3.25c-0.016-0.075-0.016-0.148,0-0.217c0.013-0.777,0.146-1.544,0.396-2.28
		c0.053-0.155,0.115-0.318,0.191-0.497c0.001-0.017,0.004-0.036,0.01-0.058c0.017-0.065,0.047-0.124,0.093-0.18
		c0.454-0.984,1.102-1.84,1.929-2.545c0.057-0.084,0.136-0.149,0.229-0.186c1.183-0.933,2.643-1.496,4.139-1.6V0.5
		c0-0.276,0.224-0.5,0.5-0.5s0.5,0.224,0.5,0.5v4.533c0.652,0.043,1.295,0.171,1.915,0.381c0.831,0.282,1.599,0.703,2.283,1.252
		c0.057,0.031,0.105,0.07,0.144,0.116c0.848,0.716,1.537,1.63,1.996,2.644c0.018,0.029,0.04,0.069,0.053,0.12
		c0,0.001,0.001,0.003,0.001,0.004c0.62,1.441,0.771,3.013,0.439,4.547c-0.05,0.229-0.255,0.394-0.488,0.394
		c-0.036,0-0.073-0.004-0.108-0.012c-0.269-0.058-0.44-0.325-0.382-0.594c0.051-0.235,0.089-0.477,0.114-0.722
		C11.875,13.719,9.729,14,7.582,14H7.414c-2.142,0-4.282-0.28-6.368-0.832c0.076,0.739,0.276,1.453,0.596,2.127
		c1.55,0.376,3.139,0.604,4.724,0.678c0.275,0.013,0.489,0.247,0.476,0.523c-0.012,0.267-0.232,0.477-0.499,0.477
		c-0.005,0-0.022,0-0.027-0.001c-1.317-0.062-2.642-0.226-3.944-0.49c0.777,1.004,1.839,1.767,3.045,2.177
		c0.127,0.043,0.229,0.133,0.288,0.252c0.059,0.12,0.068,0.256,0.025,0.382C5.662,19.497,5.471,19.633,5.257,19.633z M1.022,12.127
		C3.108,12.705,5.286,12.998,7.498,13l0.082,0c2.16,0,4.315-0.295,6.407-0.876c-0.038-0.638-0.168-1.262-0.389-1.861
		C11.596,10.75,9.546,10.998,7.499,11c-2.043-0.002-4.09-0.249-6.088-0.734c-0.019,0.052-0.038,0.104-0.056,0.157
		C1.168,10.975,1.056,11.548,1.022,12.127z M1.837,9.339C3.699,9.776,5.602,9.998,7.499,10c1.9-0.002,3.807-0.225,5.672-0.663
		c-0.36-0.645-0.822-1.216-1.377-1.704C10.369,7.873,8.925,7.997,7.5,8C6.076,7.997,4.635,7.874,3.211,7.634
		C2.658,8.12,2.197,8.692,1.837,9.339z M4.416,6.798C5.457,6.93,6.492,6.998,7.5,7c1.011-0.002,2.048-0.071,3.092-0.204
		c-0.32-0.173-0.654-0.318-1-0.436C8.912,6.13,8.207,6.013,7.499,6.013c-0.996,0-1.96,0.227-2.866,0.673
		C4.56,6.722,4.488,6.759,4.416,6.798z"/>
	<path d="M11.499,24c-1.988,0-3.764-1.336-4.319-3.249c-0.006-0.013-0.012-0.04-0.017-0.064c-0.109-0.396-0.164-0.795-0.164-1.187
		c0-0.671,0.149-1.322,0.443-1.935c0.004-0.014,0.009-0.03,0.016-0.047c0.008-0.016,0.023-0.04,0.036-0.058
		C8.256,15.95,9.794,15,11.499,15c1.699,0,3.232,0.943,4.007,2.463c0.011,0.015,0.023,0.033,0.033,0.056
		c0.005,0.011,0.01,0.026,0.014,0.042c0.295,0.615,0.445,1.267,0.445,1.939c0,0.392-0.055,0.792-0.164,1.187
		c-0.004,0.021-0.01,0.047-0.02,0.074C15.257,22.669,13.483,24,11.499,24z M8.678,21.563c0.653,0.889,1.7,1.437,2.82,1.437
		c1.121,0,2.168-0.547,2.821-1.437c-0.869,0.288-1.786,0.438-2.689,0.438L11.491,22l-0.126,0.001
		C10.463,22.001,9.547,21.851,8.678,21.563z M11.632,21.001c1.128,0,2.26-0.261,3.282-0.755c0.056-0.253,0.084-0.503,0.084-0.746
		c0-0.383-0.062-0.758-0.183-1.117C13.789,18.788,12.68,19,11.59,19h-0.188c-1.086,0-2.194-0.213-3.22-0.617
		C8.06,18.742,7.999,19.117,7.999,19.5c0,0.242,0.028,0.493,0.084,0.746c1.022,0.494,2.153,0.755,3.278,0.755
		c0,0,0.131-0.001,0.133-0.001S11.632,21.001,11.632,21.001z M8.641,17.489C9.527,17.824,10.488,18,11.437,18h0.112
		c0.955,0,1.92-0.177,2.807-0.512C13.703,16.563,12.633,16,11.499,16S9.294,16.564,8.641,17.489z"/>
</g>
</svg>
