<?xml version="1.0" encoding="utf-8"?>
<!-- Generator: Adobe Illustrator 22.1.0, SVG Export Plug-In . SVG Version: 6.00 Build 0)  -->
<svg version="1.1" id="Layer_1" xmlns="http://www.w3.org/2000/svg" xmlns:xlink="http://www.w3.org/1999/xlink" x="0px" y="0px"
	 viewBox="0 0 24 24" style="enable-background:new 0 0 24 24;" xml:space="preserve">
<g>
	<title>landmark-sydney-opera-house-1</title>
	<path d="M23.473,23.999c-1.439-0.069-2.812-0.698-3.806-1.734c-0.995,1.036-2.368,1.665-3.81,1.734
		c-1.5-0.07-2.852-0.683-3.857-1.734C11.005,23.302,9.632,23.93,8.191,24c-1.501-0.07-2.853-0.684-3.858-1.734
		C3.338,23.302,1.965,23.93,0.524,24c0,0-0.001,0-0.001,0c-0.29,0-0.51-0.209-0.522-0.476c-0.013-0.275,0.2-0.51,0.476-0.523
		c1.365-0.065,2.626-0.724,3.461-1.806c0.093-0.121,0.237-0.189,0.396-0.189s0.303,0.069,0.396,0.189
		c0.835,1.082,2.097,1.74,3.462,1.806c1.326-0.066,2.579-0.724,3.413-1.806c0.093-0.121,0.237-0.19,0.396-0.19
		s0.303,0.069,0.396,0.19c0.834,1.082,2.096,1.74,3.461,1.806c1.326-0.066,2.579-0.724,3.414-1.806
		C19.365,21.073,19.513,21,19.667,21c0.156,0,0.301,0.071,0.396,0.195c0.834,1.082,2.096,1.74,3.461,1.806
		c0.275,0.013,0.489,0.248,0.476,0.523C23.986,23.791,23.767,24,23.5,24C23.495,24,23.478,24,23.473,23.999z"/>
	<path d="M17.5,6c-0.516,0-0.999-0.189-1.369-0.533c-0.392-0.363-0.619-0.857-0.639-1.391c-0.021-0.534,0.168-1.044,0.532-1.435
		c0.377-0.406,0.912-0.639,1.468-0.639c0.222,0,0.442,0.037,0.651,0.108C18.524,0.871,19.684,0,21.007,0
		c0.811,0.003,1.563,0.317,2.128,0.885c0.565,0.568,0.875,1.323,0.872,2.124c-0.005,1.649-1.351,2.99-3,2.99H17.5z M21.016,5
		c0.524,0,1.024-0.207,1.402-0.581c0.379-0.376,0.589-0.878,0.59-1.412c0.002-0.534-0.205-1.037-0.581-1.416
		C22.05,1.211,21.548,1.002,21.014,1c-1.084,0-1.962,0.843-2.005,1.92c-0.008,0.194-0.129,0.368-0.309,0.442
		C18.639,3.387,18.575,3.4,18.51,3.4c-0.127,0-0.248-0.047-0.34-0.133c-0.185-0.172-0.427-0.266-0.68-0.266
		c-0.278,0-0.545,0.116-0.734,0.319c-0.182,0.196-0.276,0.451-0.266,0.718c0.01,0.267,0.124,0.514,0.32,0.695
		C16.994,4.904,17.239,4.999,17.499,5c0,0,3.5,0,3.503,0C21.006,5,21.012,5,21.016,5z"/>
	<path d="M21.5,20c-0.012,0-0.026-0.001-0.039-0.003l-7.924,0C13.524,19.999,13.511,20,13.5,20c-0.014,0-0.027-0.001-0.041-0.003
		H7.536C7.524,19.999,7.511,20,7.5,20c-0.016,0-0.033-0.001-0.049-0.003H3.536C3.524,19.999,3.511,20,3.5,20
		c-0.018,0-0.035-0.001-0.053-0.003H0.5c-0.276,0-0.5-0.224-0.5-0.5s0.224-0.5,0.5-0.5h2.115L0.386,15.28
		c-0.137-0.229-0.177-0.498-0.112-0.757s0.227-0.478,0.456-0.615c0.079-0.048,0.166-0.084,0.256-0.108
		c0.378-0.102,0.759-0.153,1.134-0.153c0.825,0,1.649,0.254,2.423,0.742l-1.203-2.558c-0.235-0.499-0.02-1.096,0.479-1.331
		c0.107-0.05,0.22-0.081,0.337-0.091C4.38,10.39,4.607,10.38,4.831,10.38c1.702,0,3.324,0.537,4.67,1.531l-1.168-2.57
		C8.283,9.229,8.253,9.11,8.246,8.987c-0.033-0.55,0.387-1.025,0.938-1.058c0.193-0.012,0.387-0.018,0.576-0.018
		c5.379,0,7.402,4.702,8.01,6.661c0.628-0.474,1.715-1.055,3.262-1.055c0.671,0,1.377,0.111,2.097,0.329
		c0.256,0.078,0.466,0.25,0.592,0.485c0.126,0.235,0.153,0.506,0.075,0.762c-0.01,0.032-0.019,0.057-0.029,0.081l-1.529,3.823h1.26
		c0.276,0,0.5,0.224,0.5,0.5s-0.224,0.5-0.5,0.5h-1.962C21.524,19.999,21.51,20,21.5,20z M20.293,18.997L17.5,16.204l-2.793,2.793
		H20.293z M12.722,18.997l-1.254-2.76l-2.758,2.76H12.722z M6.71,18.997L6.07,17.635l-1.361,1.362H6.71z M2.116,14.648
		c-0.287,0-0.58,0.04-0.871,0.118l2.354,3.927l1.975-1.977C5.093,16.066,3.846,14.648,2.116,14.648z M4.834,11.38
		c-0.197,0-0.396,0.008-0.591,0.025l3.407,7.238l3.375-3.378C9.881,12.903,7.461,11.38,4.834,11.38z M13.655,18.634l3.295-3.295
		c-0.139-0.556-0.548-1.938-1.436-3.268c-1.4-2.097-3.332-3.161-5.742-3.161c-0.173,0-0.349,0.005-0.527,0.016
		c0,0,2.844,6.258,2.846,6.263L13.655,18.634z M21.318,18.608l1.521-3.804c-0.623-0.189-1.229-0.285-1.801-0.285
		c-1.434,0-2.371,0.594-2.828,0.981L21.318,18.608z"/>
</g>
</svg>
