<?xml version="1.0" encoding="utf-8"?>
<!-- Generator: Adobe Illustrator 22.1.0, SVG Export Plug-In . SVG Version: 6.00 Build 0)  -->
<svg version="1.1" id="Layer_1" xmlns="http://www.w3.org/2000/svg" xmlns:xlink="http://www.w3.org/1999/xlink" x="0px" y="0px"
	 viewBox="0 0 24 24" style="enable-background:new 0 0 24 24;" xml:space="preserve">
<g>
	<title>landmark-shrine-of-itsukushima</title>
	<path d="M0.5,23.652c-0.276,0-0.5-0.224-0.5-0.5s0.224-0.5,0.5-0.5h1.109l0.306-1.24c0.111-0.447,0.509-0.76,0.97-0.76H3v-9H1
		c-0.276,0-0.5-0.224-0.5-0.5s0.224-0.5,0.5-0.5h2v-4H1.924c-0.491,0-0.906-0.351-0.987-0.834L0.22,1.512
		C0.178,1.244,0.242,0.979,0.399,0.763c0.158-0.216,0.39-0.357,0.654-0.399c0.051-0.008,0.103-0.012,0.155-0.012
		c0.189,0,0.374,0.053,0.534,0.154C3.012,1.308,6.035,2.652,12,2.652c5.973,0,8.992-1.347,10.26-2.149
		c0.161-0.101,0.345-0.154,0.532-0.154c0.075,0,0.15,0.009,0.224,0.025c0.261,0.06,0.482,0.217,0.625,0.443
		c0.128,0.204,0.178,0.447,0.141,0.684c0,0-0.718,4.315-0.718,4.317c-0.082,0.483-0.497,0.834-0.986,0.834H21v4h2
		c0.276,0,0.5,0.224,0.5,0.5s-0.224,0.5-0.5,0.5h-2v9h0.11c0.46,0,0.859,0.312,0.97,0.758l0.31,1.242h1.11
		c0.276,0,0.5,0.224,0.5,0.5s-0.224,0.5-0.5,0.5H0.5z M21.36,22.652l-0.25-1h-4.225l-0.247,1H21.36z M15.608,22.652l0.306-1.24
		c0.111-0.447,0.509-0.76,0.97-0.76H17v-9H7v9h0.11c0.46,0,0.859,0.312,0.97,0.758l0.31,1.242H15.608z M7.36,22.652l-0.25-1H2.885
		l-0.247,1H7.36z M20,20.652v-9h-2v9H20z M6,20.652v-9H4v9H6z M20,10.652v-4h-2v4H20z M17,10.652v-4h-3v4H17z M13,10.652v-4h-2v4H13
		z M10,10.652v-4H7v4H10z M6,10.652v-4H4v4H6z M1.205,1.353l0.718,4.3l20.153-0.001l0.718-4.309C21.435,2.208,18.226,3.652,12,3.652
		c-6.216,0-9.43-1.44-10.793-2.299l-0.001,0L1.205,1.353z"/>
</g>
</svg>
