<?xml version="1.0" encoding="utf-8"?>
<!-- Generator: Adobe Illustrator 22.1.0, SVG Export Plug-In . SVG Version: 6.00 Build 0)  -->
<svg version="1.1" id="Layer_1" xmlns="http://www.w3.org/2000/svg" xmlns:xlink="http://www.w3.org/1999/xlink" x="0px" y="0px"
	 viewBox="0 0 24 24" style="enable-background:new 0 0 24 24;" xml:space="preserve">
<g>
	<title>landmark-mountain</title>
	<path d="M19,24c-0.276,0-0.5-0.224-0.5-0.5S18.724,23,19,23h3.994c-0.031-1.544-0.191-5.534-0.991-9.211
		c-0.191-0.881-0.412-1.694-0.657-2.425l-1.49,1.49C19.762,12.948,19.636,13,19.503,13s-0.259-0.052-0.354-0.146l-1.646-1.646
		l-1.646,1.646C15.762,12.948,15.636,13,15.503,13s-0.259-0.052-0.354-0.146l-1.493-1.493c-0.222,0.666-0.427,1.411-0.609,2.221
		c1.319,0.803,2.346,2.409,3.056,4.775c0.764,2.548,0.894,5.094,0.896,5.119c0.007,0.135-0.043,0.27-0.137,0.369
		C16.768,23.943,16.636,24,16.5,24H6.045c-0.034,0-0.063-0.001-0.093-0.004c-0.266-0.024-0.506-0.15-0.677-0.355
		s-0.252-0.465-0.228-0.73C5.258,20.585,6.313,13,11,13c0.379,0,0.753,0.055,1.117,0.165C13.218,8.41,15.028,6,17.5,6
		c2.544,0,4.388,2.549,5.481,7.577c0.818,3.764,0.981,7.83,1.013,9.403c0.005,0.268-0.094,0.521-0.279,0.713
		c-0.185,0.192-0.434,0.302-0.701,0.307c-0.002,0-0.003,0-0.005,0H19z M11,14c-1.6,0-2.878,1.219-3.797,3.623
		C6.408,19.701,6.127,22.076,6.043,23l9.916,0c-0.086-0.918-0.348-3.053-1.026-5.002C14.009,15.345,12.685,14,11,14z M17.503,10
		c0.134,0,0.259,0.052,0.354,0.146l1.646,1.646l1.459-1.459C20.039,8.122,18.875,7,17.5,7c-1.355,0-2.549,1.151-3.46,3.33
		l1.463,1.463l1.646-1.646C17.244,10.052,17.369,10,17.503,10z"/>
	<path d="M2.133,7.003c-1.163,0-2.12-0.946-2.133-2.11c0-0.151,0.016-0.3,0.046-0.444c0.117-0.553,0.443-1.026,0.916-1.334
		c0.322-0.209,0.69-0.326,1.068-0.341C2.406,1.154,3.844,0,5.527,0c0,0,0.034,0,0.034,0C6.814,0,7.95,0.651,8.577,1.708
		c0.624,0.052,1.205,0.322,1.65,0.769C10.727,2.978,11.001,3.643,11,4.35c-0.023,1.345-1.042,2.481-2.371,2.646
		C8.609,6.999,8.588,7,8.567,7H2.224C2.221,7.001,2.175,7.002,2.133,7.003C2.134,7.003,2.133,7.003,2.133,7.003z M2.114,3.773
		c-0.523,0-0.981,0.371-1.089,0.883C1.008,4.732,1,4.81,1,4.887c0.007,0.614,0.508,1.116,1.117,1.116l0.082-0.002L8.534,6
		C9.356,5.883,9.986,5.172,10,4.341c0.001-0.434-0.17-0.846-0.48-1.158C9.209,2.871,8.796,2.699,8.356,2.699
		c0,0-0.065,0.001-0.065,0.001c-0.212,0-0.384-0.109-0.468-0.284C7.412,1.556,6.535,1,5.588,1L5.561,1
		C4.205,1,3.067,2.034,2.947,3.353C2.934,3.496,2.861,3.626,2.746,3.711C2.66,3.774,2.557,3.808,2.449,3.808
		c-0.035,0-0.07-0.004-0.105-0.011C2.269,3.781,2.191,3.773,2.114,3.773z"/>
</g>
</svg>
