<?xml version="1.0" encoding="utf-8"?>
<!-- Generator: Adobe Illustrator 22.1.0, SVG Export Plug-In . SVG Version: 6.00 Build 0)  -->
<svg version="1.1" id="Layer_1" xmlns="http://www.w3.org/2000/svg" xmlns:xlink="http://www.w3.org/1999/xlink" x="0px" y="0px"
	 viewBox="0 0 24 24" style="enable-background:new 0 0 24 24;" xml:space="preserve">
<g>
	<title>landmark-sydney-opera-house</title>
	<path d="M1,20.667c-0.551,0-1-0.448-1-1v-2c0-0.552,0.449-1,1-1h0.5v-3c0-0.425,0.266-0.788,0.64-0.933L0.381,9.92
		c-0.16-0.256-0.196-0.567-0.098-0.852c0.097-0.286,0.316-0.51,0.6-0.615C1.474,8.222,2.1,8.105,2.741,8.105
		c0.281,0,0.564,0.023,0.841,0.069c0.358,0.047,0.716,0.15,1.058,0.302L4.208,6.968c-0.073-0.257-0.042-0.527,0.087-0.76
		c0.13-0.234,0.343-0.403,0.599-0.476c0.089-0.026,0.181-0.039,0.273-0.039c0.033,0,0.067,0.002,0.101,0.005
		c1.21,0.134,2.372,0.478,3.455,1.023C9.26,6.97,9.76,7.312,10.199,7.727l-0.56-3.222C9.592,4.242,9.652,3.977,9.805,3.758
		c0.153-0.219,0.383-0.364,0.646-0.41c0.057-0.01,0.114-0.015,0.172-0.015c0.093,0,0.186,0.013,0.275,0.038
		c2.361,0.637,4.492,2.054,5.996,3.989c0.795,1.052,1.317,2.286,1.522,3.59c0.962-0.365,1.967-0.55,2.992-0.55
		c0.456,0,0.917,0.038,1.369,0.112c0.158,0.023,0.314,0.088,0.448,0.189c0.213,0.16,0.352,0.394,0.389,0.659
		c0.037,0.265-0.03,0.528-0.19,0.741L21.5,14.667h0c0.552,0,1,0.448,1,1v1H23c0.552,0,1,0.448,1,1v2c0,0.552-0.448,1-1,1H1z
		 M1,19.667h22v-2H1h0L1,19.667z M21.5,16.667v-1H12c-0.053,0-0.102-0.009-0.155-0.026c-0.008-0.003-0.033-0.012-0.041-0.016
		c-0.008-0.004-0.047-0.021-0.055-0.025l-3.383-1.933H2.5l0,3H21.5z M20.25,14.667l2.374-3.167
		c-0.409-0.068-0.821-0.101-1.227-0.101c-1.1,0-2.166,0.239-3.168,0.71c-0.005,0.002-0.031,0.014-0.035,0.016
		c-1.121,0.52-1.995,1.416-2.487,2.542H20.25z M14.633,14.667c0.5-1.403,1.52-2.589,2.833-3.294
		c-0.146-1.24-0.616-2.413-1.365-3.405c-1.369-1.76-3.312-3.052-5.47-3.634l-0.008-0.002l1.798,10.334H14.633z M8.5,12.667
		c0.087,0,0.172,0.023,0.248,0.066l2.577,1.473l-0.741-4.264c-0.013-0.018-0.026-0.04-0.037-0.064
		C10.084,8.885,9.282,8.083,8.289,7.62C7.303,7.125,6.256,6.814,5.172,6.693l1.705,5.974H8.5z M5.837,12.667L5.056,9.935
		C4.611,9.516,4.037,9.242,3.435,9.163C3.2,9.124,2.97,9.105,2.741,9.105c-0.517,0-1.023,0.095-1.504,0.282l2.04,3.28H5.837z"/>
</g>
</svg>
