<?xml version="1.0" encoding="utf-8"?>
<!-- Generator: Adobe Illustrator 22.1.0, SVG Export Plug-In . SVG Version: 6.00 Build 0)  -->
<svg version="1.1" id="Layer_1" xmlns="http://www.w3.org/2000/svg" xmlns:xlink="http://www.w3.org/1999/xlink" x="0px" y="0px"
	 viewBox="0 0 24 24" style="enable-background:new 0 0 24 24;" xml:space="preserve">
<g>
	<title>landmark-buddha-statue</title>
	<path d="M5,24c-1.379,0-2.5-1.122-2.5-2.5S3.621,19,5,19h1.066l-0.84-1.261c-0.494-0.744-0.554-1.702-0.156-2.5l0.875-1.748
		c0.766-1.535,2.308-2.49,4.024-2.49H14c0.505,0,1.009,0.088,1.498,0.262c0.01,0.002,0.036,0.01,0.067,0.025
		c1.756,0.654,2.935,2.346,2.935,4.214V19H19c1.378,0,2.5,1.122,2.5,2.5S20.378,24,19,24H5z M19,23c0.827,0,1.5-0.673,1.5-1.5
		S19.827,20,19,20h-1.368c-0.566,0.318-3.477,1.926-6.356,3H19z M5,20c-0.827,0-1.5,0.673-1.5,1.5S4.173,23,5,23h2
		c2.281,0,6.229-1.835,8.504-3H5z M17.5,19v-2.462L10.506,19H17.5z M8.5,19v-5c0-0.211,0.133-0.4,0.332-0.471L13.113,12H9.97
		c-1.335,0.001-2.534,0.743-3.13,1.937l-0.875,1.748c-0.239,0.479-0.203,1.054,0.093,1.5L7.268,19H8.5z M9.5,18.294l8-2.816
		c-0.003-0.472-0.1-0.929-0.289-1.363L9.5,16.853V18.294z M9.5,15.792l7.173-2.546c-0.361-0.428-0.817-0.761-1.339-0.977L9.5,14.353
		V15.792z"/>
	<path d="M12,11c-1.654,0-3-1.346-3-3c0-0.961,0.45-1.843,1.218-2.408c-0.157-0.259-0.233-0.56-0.217-0.87
		c0.098-0.973,0.928-1.726,1.891-1.726c0.036,0,0.072,0.001,0.108,0.003c0.037-0.002,0.074-0.003,0.111-0.003
		c0.963,0,1.792,0.749,1.887,1.705c0.01,0.324-0.068,0.627-0.224,0.885C14.546,6.15,15,7.035,15,8C15,9.654,13.654,11,12,11z M12,6
		c-1.103,0-2,0.897-2,2s0.897,2,2,2s2-0.897,2-2S13.103,6,12,6z M11.887,3.995c-0.453,0-0.844,0.353-0.889,0.803
		c-0.006,0.116,0.038,0.238,0.121,0.337C11.408,5.045,11.704,5,12,5c0.292,0,0.584,0.044,0.87,0.132
		C12.958,5.03,13.004,4.901,13,4.765c-0.043-0.424-0.432-0.77-0.885-0.77c-0.025,0-0.049,0.001-0.074,0.003
		C12.034,3.999,12.007,4,12,4c-0.014,0-0.028-0.001-0.043-0.002C11.935,3.996,11.911,3.995,11.887,3.995z"/>
	<path d="M12,2c-0.276,0-0.5-0.224-0.5-0.5v-1C11.5,0.224,11.724,0,12,0c0.276,0,0.5,0.224,0.5,0.5v1C12.5,1.776,12.276,2,12,2z"/>
	<path d="M16.242,3.757c-0.134,0-0.259-0.052-0.354-0.146s-0.146-0.22-0.146-0.354c0-0.134,0.052-0.259,0.146-0.354l0.707-0.707
		c0.094-0.094,0.22-0.146,0.354-0.146s0.259,0.052,0.354,0.146s0.146,0.22,0.146,0.354c0,0.134-0.052,0.259-0.146,0.354L16.595,3.61
		C16.501,3.705,16.375,3.757,16.242,3.757z"/>
	<path d="M18,8c-0.276,0-0.5-0.224-0.5-0.5S17.724,7,18,7h1c0.276,0,0.5,0.224,0.5,0.5S19.276,8,19,8H18z"/>
	<path d="M7.758,3.757c-0.134,0-0.259-0.052-0.354-0.146L6.698,2.904C6.603,2.809,6.551,2.684,6.551,2.55
		c0-0.134,0.052-0.259,0.146-0.354S6.917,2.05,7.051,2.05S7.31,2.102,7.405,2.197l0.707,0.707c0.094,0.094,0.146,0.22,0.146,0.354
		c0,0.134-0.052,0.259-0.146,0.354S7.892,3.757,7.758,3.757z"/>
	<path d="M5,8C4.724,8,4.5,7.776,4.5,7.5S4.724,7,5,7h1c0.276,0,0.5,0.224,0.5,0.5S6.276,8,6,8H5z"/>
</g>
</svg>
