<?xml version="1.0" encoding="utf-8"?>
<!-- Generator: Adobe Illustrator 22.1.0, SVG Export Plug-In . SVG Version: 6.00 Build 0)  -->
<svg version="1.1" id="Layer_1" xmlns="http://www.w3.org/2000/svg" xmlns:xlink="http://www.w3.org/1999/xlink" x="0px" y="0px"
	 viewBox="0 0 24 24" style="enable-background:new 0 0 24 24;" xml:space="preserve">
<g>
	<title>landmark-chinese-wall</title>
	<path d="M19,22.5c-0.092,0-0.182-0.025-0.261-0.074c-0.113-0.069-0.193-0.179-0.225-0.308c-0.031-0.13-0.01-0.264,0.059-0.378
		c0.691-1.133,1.507-2.196,2.427-3.163V13.25c0-1.241-1.009-2.25-2.25-2.25C17.234,11,16,12.234,16,13.75V20
		c0,0.276-0.224,0.5-0.5,0.5h-1.958l-0.083,0.014c-1.847,0.307-3.597,0.951-5.202,1.915C8.18,22.475,8.091,22.5,8,22.5
		c-0.175,0-0.339-0.093-0.429-0.243c-0.069-0.115-0.089-0.249-0.056-0.378c0.032-0.13,0.113-0.239,0.228-0.308
		c1.624-0.975,3.392-1.644,5.257-1.99V17.6l-0.128,0.023c-2.812,0.505-7.062,1.269-11.565,4.772C1.22,22.462,1.111,22.5,1,22.5
		c-0.155,0-0.299-0.07-0.395-0.193c-0.169-0.218-0.13-0.533,0.088-0.702c2.445-1.902,5.087-3.245,8.067-4.1
		c-1.801-3.11-4.831-5.295-8.36-6.016C0.168,11.443,0,11.236,0,11V2c0-0.276,0.224-0.5,0.5-0.5S1,1.724,1,2v0.5h2V2
		c0-0.276,0.224-0.5,0.5-0.5S4,1.724,4,2v0.5h2V2c0-0.276,0.224-0.5,0.5-0.5S7,1.724,7,2v4.632c2.069,0.643,4.085,1.49,6,2.522V6.5
		c0-0.551,0.448-1,1-1h1c0.552,0,1,0.449,1,1v1h1v-1c0-0.551,0.448-1,1-1h1c0.552,0,1,0.449,1,1v1h1v-1c0-0.551,0.448-1,1-1h1
		c0.552,0,1,0.449,1,1V17c0,0.155-0.073,0.303-0.196,0.397c-1.755,1.341-3.227,2.977-4.377,4.863C19.335,22.41,19.176,22.5,19,22.5z
		 M15,19.5v-5.75c0-2.068,1.682-3.75,3.75-3.75c1.792,0,3.25,1.458,3.25,3.25v4.353c0.331-0.301,0.666-0.584,1-0.848V6.5h-1V8
		c0,0.276-0.224,0.5-0.5,0.5h-2C19.224,8.5,19,8.276,19,8V6.5h-1V8c0,0.276-0.224,0.5-0.5,0.5h-2C15.224,8.5,15,8.276,15,8V6.5h-1
		l0,13H15z M1,10.598c3.728,0.878,6.902,3.285,8.759,6.641c1.091-0.269,2.068-0.445,2.937-0.601L13,16.583v-1.389
		c-3.861-4.23-5.623-5.343-12-7.499V10.598z M7,8.975c2.103,1.063,3.734,2.349,6,4.748v-3.43c-1.901-1.065-3.917-1.943-6-2.612
		V8.975z M5,8.078c0.356,0.143,0.687,0.283,1,0.423V3.5H1v3.14c0.346,0.116,0.679,0.229,1,0.338V6c0-0.827,0.673-1.5,1.5-1.5
		S5,5.173,5,6V8.078z M3,7.327c0.357,0.127,0.688,0.247,1,0.364V6c0-0.276-0.224-0.5-0.5-0.5S3,5.724,3,6V7.327z"/>
</g>
</svg>
