<?xml version="1.0" encoding="utf-8"?>
<!-- Generator: Adobe Illustrator 22.1.0, SVG Export Plug-In . SVG Version: 6.00 Build 0)  -->
<svg version="1.1" id="Layer_1" xmlns="http://www.w3.org/2000/svg" xmlns:xlink="http://www.w3.org/1999/xlink" x="0px" y="0px"
	 viewBox="0 0 24 24" style="enable-background:new 0 0 24 24;" xml:space="preserve">
<g>
	<title>landmark-pagoda</title>
	<path d="M4.5,24c-0.551,0-1-0.448-1-1v-2H3c-0.276,0-0.5-0.224-0.5-0.5S2.724,20,3,20h0.849L6.5,18.232V16H4
		c-0.276,0-0.5-0.224-0.5-0.5S3.724,15,4,15h0.793L6.5,13.293V11H4c-0.276,0-0.5-0.224-0.5-0.5S3.724,10,4,10h0.793L6.5,8.293V6H4
		C3.724,6,3.5,5.776,3.5,5.5S3.724,5,4,5h0.833l3.734-2.8C8.739,2.071,8.952,2,9.167,2H11.5V0.5C11.5,0.224,11.724,0,12,0
		c0.276,0,0.5,0.224,0.5,0.5V2h2.333c0.215,0,0.428,0.071,0.6,0.2L19.167,5H20c0.276,0,0.5,0.224,0.5,0.5S20.276,6,20,6h-2.5v2.293
		L19.207,10H20c0.276,0,0.5,0.224,0.5,0.5S20.276,11,20,11h-2.5v2.293L19.207,15H20c0.276,0,0.5,0.224,0.5,0.5S20.276,16,20,16h-2.5
		v2.232L20.151,20H21c0.276,0,0.5,0.224,0.5,0.5S21.276,21,21,21h-0.5v2c0,0.552-0.448,1-1,1H4.5z M19.5,23v-2h-15v2h3v-0.5
		C7.5,22.224,7.724,22,8,22s0.5,0.224,0.5,0.5V23h3v-0.5c0-0.276,0.224-0.5,0.5-0.5c0.276,0,0.5,0.224,0.5,0.5V23h3v-0.5
		c0-0.276,0.224-0.5,0.5-0.5s0.5,0.224,0.5,0.5V23H19.5z M18.349,20l-1.5-1H7.151l-1.5,1H18.349z M16.5,18v-2h-9v2h4v-0.5
		c0-0.276,0.224-0.5,0.5-0.5c0.276,0,0.5,0.224,0.5,0.5V18H16.5z M17.793,15l-1-1H7.207l-1,1H17.793z M16.5,13v-2h-9v2h4v-0.5
		c0-0.276,0.224-0.5,0.5-0.5c0.276,0,0.5,0.224,0.5,0.5V13H16.5z M17.793,10l-1-1H7.207l-1,1H17.793z M16.5,8V6h-9v2h4V7.5
		C11.5,7.224,11.724,7,12,7c0.276,0,0.5,0.224,0.5,0.5V8H16.5z M17.5,5l-2.667-2c0,0-5.667,0-5.667,0L6.5,5H17.5z"/>
</g>
</svg>
