<?xml version="1.0" encoding="utf-8"?>
<!-- Generator: Adobe Illustrator 22.1.0, SVG Export Plug-In . SVG Version: 6.00 Build 0)  -->
<svg version="1.1" id="Layer_1" xmlns="http://www.w3.org/2000/svg" xmlns:xlink="http://www.w3.org/1999/xlink" x="0px" y="0px"
	 viewBox="0 0 24 24" style="enable-background:new 0 0 24 24;" xml:space="preserve">
<g>
	<title>landmark-bagan</title>
	<path d="M8.5,23.541c-0.276,0-0.5-0.224-0.5-0.5s-0.224-0.5-0.5-0.5S7,22.316,7,22.041v-3.568c0-0.384-0.214-0.729-0.557-0.901
		c-0.115-0.058-0.202-0.156-0.246-0.276L5,14.003l-1.197,3.292c-0.044,0.121-0.132,0.219-0.247,0.276
		C3.213,17.743,3,18.088,3,18.472v3.568c0,0.276-0.224,0.5-0.5,0.5S2,22.765,2,23.041s-0.224,0.5-0.5,0.5h-1
		c-0.276,0-0.5-0.224-0.5-0.5s0.224-0.5,0.5-0.5h0.585C1.236,22.113,1.572,21.777,2,21.626v-3.153c0-0.697,0.344-1.322,0.926-1.691
		L4.53,12.37c0.072-0.197,0.261-0.329,0.47-0.329s0.398,0.132,0.47,0.329l1.604,4.412C7.655,17.151,8,17.777,8,18.473v3.153
		c0.428,0.151,0.764,0.487,0.915,0.915H11.5c0.276,0,0.5,0.224,0.5,0.5s-0.224,0.5-0.5,0.5H8.5z"/>
	<path d="M23.5,15.541c-0.276,0-0.5-0.224-0.5-0.5s-0.224-0.5-0.5-0.5s-0.5-0.224-0.5-0.5v-2.068c0-0.384-0.213-0.729-0.557-0.901
		c-0.115-0.058-0.203-0.156-0.246-0.277L20,7.504l-1.197,3.292c-0.043,0.12-0.131,0.219-0.246,0.276
		C18.213,11.244,18,11.589,18,11.972v2.068c0,0.276-0.224,0.5-0.5,0.5s-0.5,0.224-0.5,0.5s-0.224,0.5-0.5,0.5h-1
		c-0.276,0-0.5-0.224-0.5-0.5s0.224-0.5,0.5-0.5h0.585c0.151-0.428,0.487-0.764,0.915-0.915v-1.653c0-0.697,0.344-1.322,0.926-1.691
		L19.53,5.87c0.072-0.197,0.26-0.329,0.47-0.329s0.398,0.132,0.47,0.329l1.604,4.412C22.656,10.651,23,11.276,23,11.972v1.654
		c0.59,0.209,1,0.774,1,1.414C24,15.316,23.776,15.541,23.5,15.541z"/>
	<path d="M14,19.546c-0.552,0-1-0.448-1-1v-1.5c0-0.384-0.213-0.729-0.557-0.9c-0.102-0.051-0.185-0.137-0.232-0.242L11.5,14.325
		l-0.711,1.574c-0.047,0.104-0.13,0.19-0.233,0.242C10.213,16.312,10,16.657,10,17.041v2c0,0.276-0.224,0.5-0.5,0.5
		S9,19.316,9,19.041v-2c0-0.694,0.36-1.339,0.945-1.702l1.1-2.434c0.081-0.179,0.259-0.294,0.456-0.294
		c0.196,0,0.375,0.115,0.456,0.294l1.1,2.439C13.64,15.708,14,16.352,14,17.046v1.5h1.5c0.276,0,0.5,0.224,0.5,0.5
		s-0.224,0.5-0.5,0.5H14z"/>
	<path d="M15.5,22.546c-0.276,0-0.5-0.224-0.5-0.5s0.224-0.5,0.5-0.5H19v-1.5c0-0.694,0.36-1.338,0.945-1.702l1.099-2.439
		c0.081-0.179,0.26-0.294,0.456-0.294c0.196,0,0.375,0.116,0.456,0.295l1.099,2.434C23.64,18.702,24,19.347,24,20.041v2
		c0,0.276-0.224,0.5-0.5,0.5s-0.5-0.224-0.5-0.5v-2c0-0.384-0.213-0.728-0.557-0.9c-0.103-0.051-0.185-0.137-0.232-0.242
		L21.5,17.325l-0.711,1.579c-0.047,0.105-0.13,0.191-0.233,0.242C20.213,19.317,20,19.662,20,20.045v1.5c0,0.552-0.448,1-1,1H15.5z"
		/>
	<path d="M10.5,7.401c-0.225,0-0.447-0.078-0.624-0.22l-1.25-1C7.911,5.609,7.5,4.756,7.5,3.84V3.457
		c0-1.048,0.558-2.034,1.457-2.573c0.467-0.28,1-0.428,1.543-0.428c0.543,0,1.076,0.148,1.543,0.428
		C12.942,1.423,13.5,2.409,13.5,3.457V3.84c0,0.916-0.41,1.77-1.125,2.342l-1.25,0.999C10.947,7.323,10.725,7.401,10.5,7.401z
		 M10.5,1.456c-0.362,0-0.717,0.099-1.029,0.286C8.872,2.101,8.5,2.758,8.5,3.457V3.84c0,0.61,0.274,1.179,0.75,1.561l1.25,1
		l1.25-0.999C12.227,5.02,12.5,4.45,12.5,3.84V3.457c0-0.699-0.372-1.356-0.971-1.715C11.217,1.555,10.862,1.456,10.5,1.456z"/>
	<path d="M3.25,9.901c-0.225,0-0.447-0.078-0.624-0.22l-0.625-0.5C1.524,8.8,1.25,8.231,1.25,7.62V7.391
		c0-0.699,0.372-1.356,0.971-1.716C2.532,5.488,2.888,5.389,3.25,5.389s0.718,0.099,1.029,0.286C4.878,6.034,5.25,6.692,5.25,7.391
		V7.62c0,0.611-0.273,1.181-0.751,1.562L3.874,9.681C3.697,9.823,3.475,9.901,3.25,9.901z M3.25,6.389
		c-0.181,0-0.359,0.049-0.515,0.143C2.436,6.712,2.25,7.041,2.25,7.39V7.62c0,0.305,0.137,0.59,0.375,0.781L3.25,8.9l0.625-0.499
		C4.113,8.21,4.25,7.925,4.25,7.62V7.391c0-0.35-0.186-0.678-0.485-0.858C3.609,6.439,3.431,6.389,3.25,6.389z"/>
	<circle cx="3.25" cy="10.791" r="0.75"/>
	<path d="M10.5,10.541c-0.827,0-1.5-0.673-1.5-1.5s0.673-1.5,1.5-1.5s1.5,0.673,1.5,1.5S11.327,10.541,10.5,10.541z M10.5,8.541
		c-0.276,0-0.5,0.224-0.5,0.5s0.224,0.5,0.5,0.5s0.5-0.224,0.5-0.5S10.776,8.541,10.5,8.541z"/>
</g>
</svg>
