<?xml version="1.0" encoding="utf-8"?>
<!-- Generator: Adobe Illustrator 22.1.0, SVG Export Plug-In . SVG Version: 6.00 Build 0)  -->
<svg version="1.1" id="Layer_1" xmlns="http://www.w3.org/2000/svg" xmlns:xlink="http://www.w3.org/1999/xlink" x="0px" y="0px"
	 viewBox="0 0 24 24" style="enable-background:new 0 0 24 24;" xml:space="preserve">
<g>
	<title>landmark-chinese-pagoda-2</title>
	<path d="M22,24c-0.276,0-0.5-0.224-0.5-0.5S21.276,23,21,23H3c-0.276,0-0.5,0.224-0.5,0.5S2.276,24,2,24s-0.5-0.224-0.5-0.5
		c0-0.64,0.41-1.205,1-1.414v-3.172c-0.59-0.209-1-0.774-1-1.414V17H1c-0.276,0-0.5-0.224-0.5-0.5S0.724,16,1,16h0.5v-0.5
		C1.5,15.224,1.724,15,2,15s0.5,0.224,0.5,0.5V16h2v-2.055c-0.897-0.085-1.786-0.262-2.648-0.529
		c-0.288-0.095-0.49-0.345-0.519-0.638c-0.021-0.199,0.038-0.394,0.164-0.55c0.126-0.156,0.306-0.253,0.505-0.273
		c1.635-0.087,3.224-0.688,4.498-1.697V9c0-0.551,0.449-1,1-1V6.008C6.707,5.982,5.922,5.768,5.218,5.385
		C4.986,5.238,4.854,5.018,4.842,4.773c-0.01-0.2,0.059-0.392,0.193-0.541C5.17,4.083,5.354,3.996,5.554,3.986
		C7.633,3.871,9.686,3.258,11.5,2.211V1.809L9.776,0.947c-0.12-0.06-0.208-0.162-0.251-0.289S9.493,0.396,9.553,0.276
		C9.638,0.106,9.81,0,10,0c0.077,0,0.154,0.018,0.223,0.053L11.5,0.691V0.5C11.5,0.224,11.724,0,12,0c0.276,0,0.5,0.224,0.5,0.5
		v0.191l1.276-0.638C13.845,0.018,13.923,0,14,0c0.19,0,0.362,0.106,0.447,0.276c0.06,0.12,0.07,0.255,0.027,0.382
		s-0.131,0.229-0.251,0.289L12.5,1.809v0.402c1.814,1.047,3.867,1.661,5.949,1.776c0.239,0.012,0.46,0.14,0.591,0.343
		c0.108,0.169,0.145,0.37,0.102,0.565c-0.043,0.196-0.159,0.363-0.327,0.472C18.092,5.76,17.3,5.977,16.5,6.005V8
		c0.552,0,1,0.449,1,1v1.258c1.273,1.008,2.856,1.609,4.469,1.695c0.312,0.028,0.568,0.228,0.662,0.51
		c0.064,0.189,0.05,0.393-0.04,0.572c-0.09,0.179-0.243,0.313-0.433,0.377c-0.865,0.268-1.757,0.446-2.659,0.531V16h2v-0.5
		c0-0.276,0.224-0.5,0.5-0.5s0.5,0.224,0.5,0.5V16H23c0.276,0,0.5,0.224,0.5,0.5S23.276,17,23,17h-0.5v0.5
		c0,0.64-0.41,1.205-1,1.414v3.172c0.59,0.209,1,0.774,1,1.414C22.5,23.775,22.276,24,22,24z M20.5,22v-3h-1v3H20.5z M18.5,22v-3
		h-13v3H18.5z M4.5,22v-3h-1v3H4.5z M2.5,17.5C2.5,17.775,2.724,18,3,18h18c0.276,0,0.5-0.224,0.5-0.5V17h-19V17.5z M18.5,16v-2.001
		c-0.095,0.002-0.19,0.003-0.285,0.003c-0.075,0-0.15-0.001-0.226-0.002H6c-0.087,0.002-0.179,0.003-0.272,0.003
		c-0.076,0-0.152-0.001-0.228-0.002V16H18.5z M18,13c0.097,0.002,0.189,0.003,0.281,0.003c0.776,0,1.55-0.075,2.313-0.225
		c-1.372-0.285-2.677-0.896-3.772-1.778H7.179c-1.095,0.882-2.4,1.493-3.774,1.779c0.766,0.149,1.539,0.224,2.311,0.224
		c0.091,0,0.181-0.001,0.272-0.003c0.002,0,0.004,0,0.006,0H18z M16.5,10V9h-9l0,1H16.5z M15.5,8V6h-7v2H15.5z M16.033,5.001
		c0.098,0.007,0.194,0.01,0.29,0.01c0.346,0,0.691-0.044,1.026-0.13C15.472,4.642,13.643,4.028,12,3.081
		c-1.637,0.945-3.461,1.56-5.334,1.806c0.329,0.082,0.669,0.125,1.011,0.125c0.096,0,0.192-0.003,0.288-0.01
		C7.968,5.001,7.994,5,8,5c0.006,0,8,0,8,0S16.028,5.001,16.033,5.001z"/>
</g>
</svg>
