<?xml version="1.0" encoding="utf-8"?>
<!-- Generator: Adobe Illustrator 22.1.0, SVG Export Plug-In . SVG Version: 6.00 Build 0)  -->
<svg version="1.1" id="Layer_1" xmlns="http://www.w3.org/2000/svg" xmlns:xlink="http://www.w3.org/1999/xlink" x="0px" y="0px"
	 viewBox="0 0 24 24" style="enable-background:new 0 0 24 24;" xml:space="preserve">
<g>
	<title>landmark-wat-phra-kaew</title>
	<path d="M0.5,22.913c-0.276,0-0.5-0.224-0.5-0.5s0.224-0.5,0.5-0.5H2v-2.274c0-0.048,0.004-0.097,0.011-0.147
		c-0.005-0.023-0.008-0.05-0.008-0.079c0-0.178,0.094-0.34,0.244-0.429c0.02-0.024,0.041-0.048,0.063-0.069
		c0.624-0.594,1.018-1.71,1.475-3.001c0.758-2.142,1.7-4.805,4.252-6.138c0.42-0.34,1.075-1.227,1.84-3.514
		c0.004-0.015,0.009-0.03,0.015-0.045c0.405-1.219,0.789-2.679,1.141-4.34c0.082-0.386,0.384-0.688,0.77-0.77
		c0.069-0.015,0.139-0.022,0.208-0.022c0.469,0,0.881,0.333,0.979,0.791c0.909,4.235,2.015,7.116,3.037,7.915
		c2.55,1.34,3.473,3.999,4.215,6.136c0.447,1.287,0.833,2.398,1.45,2.989c0.021,0.02,0.041,0.042,0.059,0.065
		c0.154,0.088,0.25,0.25,0.25,0.432c0,0.033-0.004,0.062-0.01,0.089c0.007,0.045,0.01,0.091,0.01,0.136v2.274h1.5
		c0.276,0,0.5,0.224,0.5,0.5s-0.224,0.5-0.5,0.5H0.5z M21,21.913v-2H3v2H21z M20.419,18.913c-0.45-0.715-0.766-1.627-1.124-2.657
		c-0.713-2.055-1.45-4.179-3.391-5.383c-0.128-0.052-0.261-0.126-0.4-0.226C14.536,10.153,13.39,9.913,12,9.913
		c-1.36,0-2.487,0.235-3.442,0.719c-0.146,0.107-0.286,0.187-0.427,0.244c-0.002,0.001-0.004,0.002-0.006,0.002
		c-1.923,1.203-2.673,3.322-3.397,5.37c-0.365,1.032-0.689,1.948-1.144,2.665H20.419z M12,8.913c0.825,0,1.596,0.083,2.3,0.247
		c-0.335-0.601-0.663-1.353-0.978-2.247h-2.61c-0.312,0.892-0.638,1.642-0.97,2.242C10.434,8.995,11.191,8.913,12,8.913z
		 M12.991,5.913c-0.344-1.112-0.673-2.397-0.98-3.827c-0.304,1.43-0.63,2.715-0.971,3.827H12.991z"/>
</g>
</svg>
