<?xml version="1.0" encoding="utf-8"?>
<!-- Generator: Adobe Illustrator 22.1.0, SVG Export Plug-In . SVG Version: 6.00 Build 0)  -->
<svg version="1.1" id="Light" xmlns="http://www.w3.org/2000/svg" xmlns:xlink="http://www.w3.org/1999/xlink" x="0px" y="0px"
	 viewBox="0 0 24 24" style="enable-background:new 0 0 24 24;" xml:space="preserve">
<g>
	<title>elephant-head</title>
	<circle cx="8.752" cy="7.063" r="0.75"/>
	<circle cx="15.252" cy="7.063" r="0.75"/>
	<path d="M14.398,23.564c-1.13,0-2.205-0.429-3.026-1.209c-0.852-0.809-1.339-1.902-1.369-3.077c-0.002-0.076-0.002-0.153,0-0.229
		l0-3.487c0-1.665-1.644-2.861-3.231-2.985c-0.475,0.787-0.741,1.681-0.769,2.595c0,0.685,0.451,1.177,0.879,1.489
		c-0.031-0.756,0.084-1.768,0.768-2.452c0.094-0.094,0.22-0.146,0.354-0.146c0.134,0,0.259,0.052,0.354,0.146
		c0.195,0.195,0.195,0.512,0,0.707c-0.781,0.781-0.372,2.509-0.368,2.527c0.044,0.177-0.012,0.364-0.147,0.488
		c-0.093,0.085-0.213,0.132-0.338,0.132c-0.056,0-0.111-0.009-0.164-0.028c-0.094-0.032-2.336-0.822-2.336-2.878
		c0.035-1.156,0.381-2.271,1-3.238v-1.601C5.513,10.498,4.824,10.7,4.195,10.7c-0.355,0-0.664-0.064-0.916-0.19
		c-0.249-0.124-1.007-0.502-2.907-4.959C0.068,4.842,0.107,4.047,0.477,3.37c0.849-1.725,2.584-2.804,4.524-2.807
		c1.315,0.054,2.6,0.423,3.738,1.071c0.968-0.659,2.086-1.028,3.245-1.071c1.179,0.042,2.3,0.41,3.269,1.064
		c1.142-0.643,2.428-1.01,3.729-1.064c1.957,0.003,3.698,1.085,4.555,2.826c0.362,0.661,0.399,1.452,0.096,2.162
		c-1.26,2.957-2.238,4.625-2.908,4.959c-0.252,0.126-0.56,0.19-0.916,0.19c-0.63,0-1.318-0.202-1.808-0.383v1.601
		c0.619,0.967,0.964,2.079,1,3.223c0,2.07-2.242,2.862-2.338,2.895c-0.051,0.018-0.106,0.027-0.162,0.027
		c-0.125,0-0.245-0.046-0.338-0.131c-0.135-0.125-0.192-0.312-0.148-0.49c0.004-0.017,0.413-1.745-0.368-2.526
		c-0.195-0.195-0.195-0.512,0-0.707c0.094-0.094,0.22-0.146,0.354-0.146s0.259,0.052,0.354,0.146
		c0.684,0.684,0.799,1.695,0.768,2.451c0.428-0.314,0.879-0.809,0.879-1.503c-0.028-0.902-0.293-1.793-0.769-2.58
		c-1.587,0.125-3.231,1.321-3.231,2.986v3c0,1.369,0.417,1.494,0.966,1.5c0.633-0.095,1.229-0.397,1.679-0.852
		c0.094-0.095,0.22-0.148,0.355-0.148c0.065,0,0.128,0.012,0.189,0.037c0.189,0.077,0.311,0.258,0.312,0.462
		c0,0.061,0.016,1.501,1,1.501c0.222,0,0.414,0.143,0.479,0.355s-0.016,0.438-0.201,0.561c-0.157,0.105-0.303,0.204-0.441,0.298
		c-1.18,0.802-1.893,1.286-3.833,1.286C14.474,23.564,14.436,23.564,14.398,23.564z M7.002,11.587c2.478,0.24,4,2.214,4,3.976v3.5
		c-0.002,0.072-0.002,0.131,0,0.19c0.024,0.908,0.399,1.752,1.058,2.377c0.635,0.603,1.46,0.935,2.323,0.935
		c0.035,0,0.07,0,0.105-0.001c1.477,0,2.031-0.271,2.914-0.861c-0.35-0.272-0.615-0.691-0.766-1.213
		c-0.477,0.297-1.011,0.492-1.566,0.568c-0.02,0.003-0.044,0.005-0.068,0.005c-1.346,0-2-0.818-2-2.5v-3
		c0-1.761,1.522-3.735,4-3.976V6.563c-0.099-2.697-2.299-4.896-5.009-5c-2.7,0.105-4.892,2.307-4.991,5.018L7.002,11.587z
		 M4.987,1.563C3.439,1.568,2.052,2.436,1.365,3.831c-0.23,0.422-0.255,0.902-0.073,1.328c1.206,2.83,2.107,4.294,2.434,4.457
		C3.842,9.674,4,9.704,4.196,9.704c0.546,0,1.264-0.227,1.806-0.461v-2.68C6.061,4.96,6.747,3.435,7.899,2.318
		C6.991,1.865,5.992,1.605,4.987,1.563z M18.002,9.242c0.526,0.225,1.263,0.461,1.807,0.461c0.196,0,0.353-0.029,0.469-0.087
		c0.327-0.163,1.229-1.628,2.435-4.457c0.182-0.426,0.159-0.903-0.063-1.309c-0.695-1.41-2.089-2.282-3.643-2.287
		c-1,0.042-1.998,0.3-2.909,0.748c1.156,1.116,1.845,2.639,1.904,4.233L18.002,9.242z"/>
</g>
</svg>
