<?xml version="1.0" encoding="utf-8"?>
<!-- Generator: Adobe Illustrator 22.1.0, SVG Export Plug-In . SVG Version: 6.00 Build 0)  -->
<svg version="1.1" id="Light" xmlns="http://www.w3.org/2000/svg" xmlns:xlink="http://www.w3.org/1999/xlink" x="0px" y="0px"
	 viewBox="0 0 24 24" style="enable-background:new 0 0 24 24;" xml:space="preserve">
<g>
	<title>elephant-draw</title>
	<path d="M7.218,24.002c-0.935,0-1.829-0.277-2.655-0.823c-0.197-0.13-0.277-0.384-0.188-0.603c0.076-0.191,0.259-0.314,0.465-0.314
		c0.029,0,0.058,0.003,0.087,0.008c0.108,0.019,0.218,0.029,0.328,0.029c0.391,0,0.805-0.121,1.235-0.361
		c-1.454-0.146-3.462-0.537-4.504-1.579c-1.695-1.695-2.154-3.364-1.637-5.952c0.418-2.09,2.249-3.611,3.062-4.195l-0.393-0.58
		c-0.02,0.001-0.04,0.002-0.059,0.002c-0.449,0-0.862-0.137-1.229-0.408c-0.442-0.327-0.81-0.862-1.063-1.547
		c0,0-0.001-0.002-0.001-0.002C0.533,7.316,0.436,6.93,0.387,6.559C0.308,5.661,0.35,4.771,0.509,3.902
		C0.543,3.72,0.674,3.572,0.85,3.516C0.9,3.5,0.951,3.493,1.001,3.493c0.132,0,0.256,0.051,0.35,0.143
		c0.476,0.468,1.07,0.799,1.718,0.957c0.456,0.088,0.919,0.318,1.327,0.662C4.4,5.257,4.41,5.266,4.41,5.266
		c0.333,0.283,0.6,0.614,0.794,0.983c0.295,0.56,0.386,1.14,0.261,1.649l3.233,4.766c0.464,0.684,0.285,1.619-0.399,2.083
		c-0.249,0.169-0.54,0.259-0.84,0.259c-0.499,0-0.964-0.246-1.243-0.657l-0.488-0.72c-0.341,0.198-0.855,0.565-1.046,1.069
		c-0.125,0.331-0.09,0.695,0.104,1.084c0.266,0.532,0.676,0.875,1.218,1.019c0.201,0.053,0.42,0.081,0.65,0.081
		c0.899,0,1.833-0.409,2.407-0.792c0.474-0.316,0.92-0.844,1.391-1.403c0.938-1.113,2.002-2.374,3.804-2.674
		c0.539-0.09,1.06-0.135,1.549-0.135c1.504,0,2.41,0.43,2.813,0.683c0.897-0.368,1.644-0.555,2.22-0.555c1.861,0,3,2.266,3,3.5
		c0,0.906-1.952,6.5-3.5,6.5c-0.183,0.013-0.387,0.02-0.589,0.02c-1.049,0-2.086-0.185-3.083-0.55
		c-0.259-0.095-0.392-0.383-0.298-0.641c0.072-0.197,0.261-0.328,0.47-0.328c0.058,0,0.115,0.01,0.17,0.03
		c0.888,0.325,1.811,0.49,2.745,0.49c0.182,0,0.367-0.006,0.55-0.019c0.57-0.167,2.534-4.434,2.534-5.501c0-0.834-0.865-2.5-2-2.5
		c-1.114,0-3.079,1.031-3.743,1.429c-0.078,0.047-0.167,0.072-0.257,0.072c-0.175,0-0.339-0.093-0.429-0.243
		c-0.069-0.115-0.089-0.249-0.056-0.378c0.032-0.13,0.113-0.239,0.228-0.308c0.004-0.002,0.343-0.206,0.847-0.464
		c-0.395-0.129-0.934-0.234-1.638-0.234c-0.431,0-0.891,0.04-1.37,0.12c-1.439,0.24-2.336,1.303-3.203,2.332
		c-0.521,0.617-1.01,1.197-1.601,1.591c-0.337,0.225-1.548,0.958-2.971,0.958c-0.314,0-0.616-0.038-0.897-0.112
		c-0.832-0.221-1.456-0.739-1.856-1.539c-0.325-0.65-0.373-1.285-0.144-1.888c0.284-0.747,0.935-1.254,1.417-1.543l-1.191-1.756
		c-0.726,0.53-2.303,1.852-2.645,3.562c-0.448,2.239-0.078,3.607,1.363,5.048c1.163,1.163,4.282,1.338,4.982,1.363
		c0.826-0.821,1.375-1.728,1.38-1.737c0.089-0.15,0.254-0.244,0.43-0.244c0.09,0,0.178,0.024,0.256,0.07
		c0.237,0.142,0.315,0.449,0.173,0.686c-0.064,0.107-1.401,2.322-3.24,3.177c0.186,0.029,0.374,0.044,0.563,0.044
		c0.551,0,1.13-0.124,1.718-0.368c1.049-0.436,1.767-1.115,1.797-1.144c0.092-0.09,0.216-0.141,0.347-0.141
		c0.136,0,0.263,0.054,0.358,0.151c0.192,0.197,0.188,0.514-0.009,0.707c-0.019,0.018-1.862,1.788-4.227,1.788H7.218z M7.043,13.787
		c0.093,0.137,0.248,0.219,0.415,0.219c0.1,0,0.197-0.03,0.28-0.086c0.228-0.155,0.288-0.467,0.133-0.695L4.923,8.88
		c-0.23,0.247-0.512,0.44-0.826,0.564L7.043,13.787z M1.904,7.952c0.127,0.2,0.268,0.357,0.42,0.47
		c0.191,0.141,0.398,0.21,0.631,0.21c0.061,0,0.124-0.005,0.189-0.014c0.041-0.01,0.081-0.015,0.121-0.015
		c0.015,0,0.03,0.001,0.045,0.002C3.813,8.588,4.269,8.265,4.45,7.798C4.579,7.5,4.528,7.112,4.319,6.715
		c-0.042-0.08-0.091-0.159-0.145-0.236C3.644,7.258,2.83,7.786,1.904,7.952z M1.379,4.934C1.336,5.438,1.337,5.946,1.38,6.449
		C1.403,6.62,1.443,6.809,1.495,6.998C2.301,6.93,3.016,6.483,3.43,5.79C3.242,5.682,3.047,5.606,2.856,5.569
		C2.319,5.438,1.826,5.226,1.379,4.934z"/>
	<circle cx="13.588" cy="16.255" r="0.75"/>
	<path d="M21.338,10.505c-0.276,0-0.5-0.224-0.5-0.5v-8.5c0-0.276-0.224-0.5-0.5-0.5h-10c-0.276,0-0.5,0.224-0.5,0.5v8.5
		c0,0.276-0.224,0.5-0.5,0.5s-0.5-0.224-0.5-0.5v-8.5c0-0.827,0.673-1.5,1.5-1.5h10c0.827,0,1.5,0.673,1.5,1.5v8.5
		C21.838,10.281,21.614,10.505,21.338,10.505z"/>
	<path d="M11.338,8.005c-0.195,0-0.373-0.114-0.454-0.291c-0.081-0.177-0.052-0.387,0.075-0.534l2.24-2.613
		c0.285-0.333,0.7-0.524,1.14-0.524c0.357,0,0.704,0.128,0.975,0.36c0.058,0.05,0.113,0.105,0.164,0.164l2.24,2.613
		c0.127,0.147,0.156,0.357,0.075,0.534c-0.081,0.177-0.26,0.291-0.454,0.291L11.338,8.005z M16.251,7.006l-1.533-1.788
		c-0.017-0.02-0.035-0.038-0.054-0.054c-0.091-0.078-0.206-0.12-0.325-0.12c-0.147,0-0.285,0.064-0.381,0.174l-1.532,1.788
		L16.251,7.006z"/>
	<circle cx="17.588" cy="3.255" r="0.75"/>
</g>
</svg>
