<?xml version="1.0" encoding="utf-8"?>
<!-- Generator: Adobe Illustrator 22.1.0, SVG Export Plug-In . SVG Version: 6.00 Build 0)  -->
<svg version="1.1" id="Light" xmlns="http://www.w3.org/2000/svg" xmlns:xlink="http://www.w3.org/1999/xlink" x="0px" y="0px"
	 viewBox="0 0 24 24" style="enable-background:new 0 0 24 24;" xml:space="preserve">
<g>
	<title>elephant-water</title>
	<path d="M23.472,19.877c-0.125-0.005-0.249-0.062-0.339-0.16c-0.091-0.098-0.138-0.225-0.133-0.359c0.004-0.1,0.004-0.2,0-0.3
		c-0.081-2.066-1.767-3.684-3.838-3.684c-0.048,0-0.095,0.001-0.144,0.002l-2.269,0c0.003,0.008,0.007,0.016,0.01,0.024
		c0.266,0.642,0.514,1.544,0.187,2.199c-0.016,0.031-0.033,0.058-0.053,0.084c-0.606,0.777-1.309,1.479-2.087,2.087
		c-0.088,0.068-0.197,0.106-0.308,0.106c-0.155,0-0.299-0.07-0.394-0.192c-0.082-0.105-0.118-0.236-0.102-0.369
		c0.016-0.133,0.083-0.251,0.189-0.333c0.697-0.544,1.328-1.172,1.875-1.865c0.071-0.198,0.051-0.653-0.231-1.334
		c-0.413-0.998-1.077-1.767-1.467-1.923c-0.286-0.051-0.58-0.077-0.873-0.077c-0.788,0-1.573,0.186-2.271,0.539
		c-0.07,0.035-0.148,0.053-0.225,0.053c-0.125,0-0.245-0.046-0.337-0.131c-0.595-0.544-1.367-0.852-2.173-0.869
		c-1.323,0-3.709,1.415-3.733,1.429c-0.078,0.046-0.167,0.071-0.257,0.071c-0.043,0-0.085-0.005-0.127-0.016
		c-0.132-0.035-0.244-0.123-0.31-0.24c-0.694-1.248-0.694-2.738,0-3.986C4.907,9.28,6.079,8.164,7.456,7.396L6.423,6.899
		c-3.27,0.636-5.603,3.624-5.425,6.952c0.001,4.09,2.167,5.054,2.189,5.063c0.121,0.049,0.219,0.144,0.271,0.266
		s0.054,0.259,0.005,0.383c-0.077,0.191-0.259,0.314-0.464,0.314c-0.064,0-0.126-0.012-0.186-0.036
		c-0.115-0.046-2.814-1.183-2.814-5.964c-0.204-3.802,2.477-7.23,6.236-7.96C6.297,5.906,6.361,5.9,6.424,5.9
		c0.154,0,0.308,0.036,0.445,0.104l1.015,0.507c0.239,0.119,0.417,0.324,0.502,0.577c0.085,0.253,0.066,0.524-0.053,0.763
		C8.249,8.021,8.12,8.162,7.96,8.259c-1.244,0.694-2.291,1.689-3.037,2.883c-0.433,0.78-0.503,1.692-0.197,2.532
		c0.876-0.476,2.565-1.297,3.773-1.297c0.938,0.02,1.845,0.342,2.577,0.911c0.757-0.33,1.59-0.503,2.42-0.503
		c0.367,0,0.736,0.034,1.094,0.1c0.024,0.005,0.045,0.01,0.067,0.018c0.687,0.229,1.281,1.033,1.564,1.474h2.778
		c0.055-0.002,0.12-0.004,0.185-0.004c2.598,0,4.713,2.041,4.815,4.646c0.005,0.126,0.005,0.252,0,0.378
		c-0.01,0.269-0.229,0.48-0.499,0.48C23.494,19.878,23.477,19.877,23.472,19.877z"/>
	<circle cx="7.749" cy="15.628" r="0.75"/>
	<path d="M8.999,5.003c-0.154,0-0.301-0.072-0.395-0.194C8.492,4.665,8.468,4.47,8.541,4.302c0.571-1.307,1.592-2.372,2.873-2.999
		c0.65-0.277,1.281-0.42,1.835-0.42c0.52,0,0.975,0.127,1.315,0.368c0.456,0.322,0.687,0.818,0.651,1.396
		c-0.085,1.37-1.546,2.109-2.877,2.109c-0.073,0-0.146-0.002-0.218-0.007c-1.002,0.001-2.031,0.084-3.042,0.248
		C9.051,5.001,9.025,5.003,8.999,5.003z M13.251,1.882c-0.42,0-0.912,0.114-1.421,0.331c-0.756,0.37-1.424,0.952-1.911,1.66
		c0.739-0.082,1.486-0.123,2.226-0.123c0.067,0.003,0.114,0.004,0.161,0.004c0.764,0,1.863-0.363,1.913-1.169
		c0.014-0.225-0.064-0.399-0.23-0.517C13.816,1.946,13.561,1.882,13.251,1.882z"/>
	<path d="M15.897,8.924c-0.541,0-1.044-0.242-1.381-0.663c-0.059-0.074-0.112-0.153-0.158-0.234
		c-0.402-0.503-0.853-0.971-1.34-1.391c-0.127-0.109-0.19-0.273-0.17-0.439c0.02-0.166,0.121-0.31,0.27-0.386
		c0.54-0.274,1.116-0.413,1.713-0.413c0.4,0,0.799,0.064,1.184,0.19c0.817,0.355,1.341,0.922,1.459,1.565
		c0.093,0.502-0.064,0.982-0.44,1.352c-0.014,0.014-0.027,0.025-0.04,0.035C16.684,8.788,16.294,8.924,15.897,8.924z M14.289,6.452
		c0.312,0.312,0.607,0.642,0.879,0.986c0.02,0.025,0.036,0.05,0.05,0.077c0.023,0.044,0.049,0.084,0.079,0.121
		c0.146,0.183,0.364,0.287,0.598,0.287c0.166,0,0.323-0.052,0.455-0.15c0.123-0.129,0.169-0.277,0.14-0.439
		c-0.056-0.306-0.367-0.61-0.832-0.813c-0.25-0.08-0.533-0.125-0.821-0.125C14.653,6.397,14.47,6.415,14.289,6.452z"/>
	<path d="M12.134,23.253c-0.447,0-0.867-0.196-1.153-0.539l-0.964-1.156c-0.02-0.024-0.042-0.046-0.065-0.065
		c-0.088-0.073-0.202-0.114-0.318-0.114c-0.149,0-0.29,0.065-0.385,0.18l-0.964,1.156c-0.058,0.069-0.122,0.134-0.192,0.191
		c-0.268,0.224-0.609,0.347-0.959,0.347c-0.447,0-0.867-0.196-1.153-0.539l-0.964-1.156c-0.02-0.024-0.042-0.046-0.065-0.065
		c-0.088-0.073-0.202-0.114-0.318-0.114c-0.15,0-0.29,0.065-0.385,0.179l-0.964,1.156c-0.058,0.069-0.122,0.134-0.192,0.191
		c-0.268,0.224-0.609,0.347-0.959,0.347c-0.447,0-0.867-0.196-1.153-0.539l-0.866-1.039c-0.177-0.212-0.148-0.528,0.064-0.705
		c0.09-0.075,0.203-0.116,0.32-0.116c0.149,0,0.289,0.065,0.384,0.18l0.866,1.039c0.095,0.114,0.235,0.18,0.385,0.18
		c0.117,0,0.23-0.041,0.319-0.116c0.023-0.02,0.045-0.041,0.065-0.065l0.963-1.155c0.286-0.342,0.706-0.539,1.153-0.539
		c0.35,0,0.691,0.123,0.959,0.347c0.071,0.06,0.135,0.124,0.192,0.192l0.964,1.156c0.095,0.114,0.235,0.179,0.385,0.179
		c0.117,0,0.23-0.041,0.319-0.115c0.023-0.02,0.045-0.041,0.064-0.065l0.963-1.155c0.286-0.342,0.706-0.539,1.153-0.539
		c0.35,0,0.691,0.123,0.959,0.347c0.071,0.06,0.135,0.124,0.192,0.192l0.964,1.156c0.095,0.114,0.235,0.179,0.385,0.179
		c0.117,0,0.23-0.041,0.32-0.115c0.024-0.02,0.046-0.042,0.065-0.065l0.963-1.155c0.285-0.342,0.706-0.539,1.153-0.539
		c0.35,0,0.691,0.123,0.959,0.347c0.07,0.059,0.134,0.123,0.191,0.191l0.964,1.157c0.095,0.114,0.235,0.179,0.385,0.179
		c0.117,0,0.23-0.041,0.32-0.115c0.024-0.02,0.046-0.042,0.065-0.065l0.963-1.155c0.285-0.342,0.706-0.539,1.153-0.539
		c0.35,0,0.691,0.123,0.959,0.347c0.07,0.059,0.134,0.123,0.191,0.191l0.964,1.157c0.086,0.103,0.206,0.166,0.339,0.178
		c0.014,0.001,0.028,0.002,0.043,0.002c0.118,0,0.233-0.041,0.322-0.116c0.024-0.02,0.046-0.042,0.065-0.065l0.6-0.716
		c0.095-0.114,0.235-0.179,0.383-0.179c0.117,0,0.231,0.042,0.321,0.117c0.102,0.085,0.165,0.205,0.177,0.338
		c0.012,0.133-0.029,0.263-0.115,0.366l-0.6,0.717c-0.059,0.07-0.123,0.134-0.191,0.191c-0.268,0.224-0.609,0.347-0.959,0.347
		c-0.448,0-0.868-0.196-1.153-0.539l-0.964-1.156c-0.02-0.023-0.041-0.045-0.065-0.065c-0.089-0.074-0.202-0.115-0.318-0.115
		c-0.149,0-0.29,0.066-0.385,0.18l-0.964,1.156c-0.059,0.071-0.124,0.135-0.192,0.191c-0.268,0.224-0.609,0.347-0.959,0.347
		c-0.447,0-0.867-0.196-1.153-0.539l-0.964-1.156c-0.02-0.023-0.041-0.045-0.065-0.065c-0.089-0.074-0.202-0.115-0.318-0.115
		c-0.149,0-0.29,0.066-0.385,0.18l-0.964,1.156c-0.059,0.071-0.124,0.135-0.192,0.191C12.825,23.13,12.484,23.253,12.134,23.253z"/>
</g>
</svg>
