<?xml version="1.0" encoding="utf-8"?>
<!-- Generator: Adobe Illustrator 22.1.0, SVG Export Plug-In . SVG Version: 6.00 Build 0)  -->
<svg version="1.1" id="Light" xmlns="http://www.w3.org/2000/svg" xmlns:xlink="http://www.w3.org/1999/xlink" x="0px" y="0px"
	 viewBox="0 0 24 24" style="enable-background:new 0 0 24 24;" xml:space="preserve">
<g>
	<title>hippo-body</title>
	<path d="M4.5,6.064c-0.13,0-0.253-0.049-0.346-0.139C3.955,5.734,3.948,5.417,4.139,5.218c0.221-0.23,0.518-0.36,0.836-0.367
		l0.036,0c0.307,0,0.588,0.115,0.815,0.332l0.031,0.031c0.195,0.202,0.189,0.519-0.01,0.71C5.753,6.014,5.63,6.064,5.5,6.064
		c-0.135,0-0.266-0.056-0.36-0.153C5.103,5.876,5.049,5.853,4.995,5.853c-0.051,0-0.099,0.02-0.134,0.057
		C4.766,6.008,4.635,6.064,4.5,6.064z"/>
	<circle cx="9.75" cy="9.314" r="0.75"/>
	<path d="M17.5,21.064c-0.276,0-0.5-0.224-0.5-0.5v-1.801c-0.684,0.199-1.382,0.298-2.124,0.301
		c-1.013-0.088-1.973-0.326-2.876-0.708v2.208c0,0.276-0.224,0.5-0.5,0.5s-0.5-0.224-0.5-0.5v-3c0-0.174,0.093-0.338,0.242-0.428
		c0.077-0.047,0.166-0.072,0.257-0.072c0.081,0,0.162,0.02,0.234,0.058c0.994,0.528,2.066,0.845,3.186,0.944
		c0.803-0.001,1.617-0.158,2.397-0.467c0.058-0.023,0.12-0.035,0.184-0.035c0.101,0,0.198,0.03,0.282,0.087
		C17.918,17.744,18,17.898,18,18.064v2.5C18,20.84,17.776,21.064,17.5,21.064z"/>
	<path d="M20.5,21.064c-0.276,0-0.5-0.224-0.5-0.5v-3c0-0.22,0.147-0.417,0.358-0.479c1.35-0.4,2.337-1.522,2.58-2.878
		c-0.219,0.113-0.458,0.192-0.707,0.232c-0.122,0.02-0.248,0.03-0.374,0.03c-0.874,0-1.576-0.478-1.833-1.247
		c-0.042-0.127-0.032-0.263,0.027-0.382s0.162-0.208,0.289-0.25c0.051-0.017,0.104-0.026,0.159-0.026
		c0.215,0,0.405,0.137,0.473,0.342c0.163,0.49,0.622,0.563,0.881,0.563c0.073,0,0.146-0.006,0.217-0.017
		c0.406-0.066,0.863-0.344,0.916-0.799c-0.056-1.533-0.434-2.573-2.246-3.66c-0.601-0.361-1.351-0.543-2.229-0.543
		c-1.195,0-2.306,0.341-2.75,0.496c-0.26,0.67-0.915,1.123-1.656,1.123c-0.05,0-0.1-0.002-0.15-0.006
		c-0.134-0.011-0.254-0.074-0.341-0.176c-0.086-0.102-0.127-0.232-0.116-0.365C13.524,9.265,13.743,9.064,14,9.064
		c0.007,0,0.035,0.001,0.042,0.002c0.024,0.002,0.047,0.003,0.071,0.003c0.338,0,0.636-0.219,0.74-0.544
		c0.064-0.199,0.047-0.411-0.049-0.597c-0.095-0.186-0.258-0.324-0.457-0.388c-0.114-0.026-0.251-0.043-0.389-0.043
		c-0.614,0-1.203,0.321-1.539,0.839C12.327,8.479,12.17,8.564,12,8.564c-0.048,0-0.095-0.007-0.141-0.02
		c-0.198-0.059-0.339-0.235-0.357-0.438c-0.021-0.053-0.148-0.306-0.725-0.595c-0.234-0.106-0.505-0.165-0.774-0.165
		c-0.272,0-0.547,0.06-0.795,0.172C9.141,7.549,9.072,7.564,9,7.564c-0.083,0-0.166-0.021-0.24-0.061
		C8.622,7.427,8.527,7.29,8.505,7.135C8.254,5.37,6.778,4.079,4.996,4.064l-0.11,0C4.234,4.078,3.628,4.345,3.177,4.815
		C2.782,5.227,2.546,5.759,2.505,6.324L5.57,8.706c0.661,0.512,1.055,1.318,1.052,2.155c-0.003,0.724-0.287,1.405-0.802,1.915
		c-0.512,0.508-1.19,0.787-1.911,0.787H1.114c0.189,0.462,0.67,1,1.886,1h4c1.346,0,2,0.818,2,2.5v3.5c0,0.276-0.224,0.5-0.5,0.5
		S8,20.84,8,20.564v-3.5c0-1.39-0.433-1.5-1-1.5H3c-2.966,0-3-2.475-3-2.5v-1c0-0.276,0.224-0.5,0.5-0.5s0.5,0.224,0.5,0.5v0.5h1
		v-0.5c0-0.276,0.224-0.5,0.5-0.5s0.5,0.224,0.5,0.5v0.5c0,0,0.9,0,0.9,0c0.465,0,0.892-0.177,1.215-0.497
		c0.325-0.322,0.505-0.752,0.506-1.209c0.002-0.529-0.246-1.037-0.664-1.361L4.155,8.873L3.947,9.288
		C3.862,9.458,3.691,9.564,3.5,9.564c-0.077,0-0.154-0.018-0.223-0.053c-0.12-0.06-0.208-0.162-0.251-0.289S2.993,8.96,3.053,8.841
		L3.35,8.247L2.175,7.333L1.947,7.788C1.862,7.958,1.691,8.064,1.5,8.064c-0.077,0-0.154-0.018-0.223-0.053
		c-0.12-0.06-0.208-0.162-0.251-0.289S0.993,7.46,1.053,7.341l0.45-0.899c0.014-0.87,0.351-1.691,0.953-2.318
		C3.09,3.46,3.946,3.084,4.864,3.064h0.145c2.067,0.018,3.827,1.382,4.366,3.351C9.58,6.37,9.789,6.347,10,6.347
		c0.419,0,0.825,0.088,1.207,0.262c0.365,0.182,0.655,0.385,0.87,0.606c0.516-0.457,1.189-0.714,1.884-0.714
		c0.22,0,0.44,0.026,0.655,0.077c0.483,0.154,0.86,0.469,1.078,0.893c0.065,0.126,0.114,0.259,0.147,0.396
		c0.616-0.188,1.599-0.422,2.663-0.422s1.99,0.232,2.754,0.691c2.147,1.289,2.639,2.604,2.724,4.303
		C23.991,12.473,24,12.516,24,12.564c0,0.054-0.003,0.106-0.008,0.157C24,12.995,24,13.275,24,13.564
		c-0.008,1.939-1.206,3.667-3,4.358v2.642C21,20.84,20.776,21.064,20.5,21.064z"/>
</g>
</svg>
