<?xml version="1.0" encoding="utf-8"?>
<!-- Generator: Adobe Illustrator 22.1.0, SVG Export Plug-In . SVG Version: 6.00 Build 0)  -->
<svg version="1.1" id="Light" xmlns="http://www.w3.org/2000/svg" xmlns:xlink="http://www.w3.org/1999/xlink" x="0px" y="0px"
	 viewBox="0 0 24 24" style="enable-background:new 0 0 24 24;" xml:space="preserve">
<g>
	<title>rhino-body</title>
	<path d="M12,20.313c-0.252,0-0.465-0.188-0.496-0.438l-0.426-3.41c-1.078,0.301-2.196,0.453-3.328,0.453
		c-1.155,0-2.295-0.158-3.392-0.471l-0.872,3.488C3.429,20.158,3.23,20.313,3,20.313H0.5c-0.276,0-0.5-0.224-0.5-0.5v-9
		c0-3.033,2.467-5.5,5.5-5.5H12c0.153-0.006,0.316-0.009,0.478-0.009c1.093,0,2.186,0.141,3.253,0.419l1.378-1.722
		c0.089-0.111,0.221-0.179,0.363-0.187c0.004,0,0.021-0.001,0.025-0.001c0.135,0,0.262,0.052,0.356,0.147
		c0.478,0.478,1.18,1.573,0.93,2.757c0.562,0.316,1.103,0.663,1.611,1.037c0.663-0.486,1.233-1.067,1.695-1.727
		c0.094-0.134,0.247-0.213,0.41-0.213c0.094,0,0.187,0.027,0.267,0.078c0.827,0.524,1.299,1.454,1.233,2.43
		c0.03,0.838-0.32,1.649-0.946,2.208c0.799,1.886,0.307,4.629-0.701,5.638c-0.094,0.094-0.22,0.146-0.354,0.146
		c-0.074,0-0.146-0.016-0.214-0.048c-0.091-0.043-0.18-0.088-0.269-0.135c-0.597,0.37-1.28,0.565-1.984,0.565
		c-0.617,0-1.228-0.153-1.769-0.441c-1.109-0.571-2.151-1.28-3.094-2.104c-0.208-0.182-0.229-0.498-0.047-0.706
		c0.095-0.109,0.232-0.171,0.376-0.171c0.121,0,0.238,0.044,0.329,0.124c0.882,0.772,1.857,1.435,2.9,1.972
		c0.401,0.214,0.851,0.326,1.303,0.326c0.349,0,0.693-0.065,1.015-0.191c-0.133-0.103-0.261-0.209-0.382-0.319
		c-0.099-0.089-0.157-0.212-0.164-0.345c-0.007-0.134,0.039-0.262,0.128-0.361c0.095-0.105,0.23-0.165,0.371-0.165
		c0.124,0,0.243,0.046,0.335,0.129c0.269,0.242,0.563,0.46,0.875,0.649c0.025,0.012,0.048,0.025,0.071,0.041
		c0.026,0.015,0.052,0.03,0.078,0.045c0.656-1.094,0.964-3.833-0.213-5.01c-0.964-0.993-2.061-1.842-3.266-2.529
		C18.287,7.749,18.148,7.813,18,7.813c-0.099,0-0.195-0.029-0.277-0.084c-0.111-0.074-0.187-0.187-0.213-0.318
		c-0.026-0.131,0-0.264,0.074-0.376c0.469-0.704,0.208-1.429-0.092-1.913l-1.602,2.002c-0.096,0.119-0.238,0.188-0.391,0.188
		c-0.113,0-0.224-0.039-0.312-0.109C15,7.053,14.949,6.794,15.054,6.588c-0.849-0.188-1.714-0.284-2.578-0.284
		c-0.152,0-0.304,0.003-0.457,0.009l-6.519,0c-2.481,0-4.5,2.019-4.5,4.5v8.5h1.61l0.905-3.621c0.034-0.135,0.123-0.25,0.244-0.317
		C3.834,15.334,3.917,15.313,4,15.313c0.055,0,0.109,0.009,0.16,0.027c1.15,0.384,2.359,0.578,3.59,0.578s2.439-0.195,3.592-0.579
		c0.05-0.017,0.104-0.026,0.158-0.026c0.095,0,0.187,0.027,0.267,0.078c0.126,0.08,0.21,0.211,0.229,0.361l0.445,3.562h1.641
		l0.516-2.842c0.043-0.238,0.25-0.411,0.493-0.411c0.029,0,0.059,0.002,0.088,0.008c0.272,0.05,0.453,0.311,0.404,0.582
		l-0.591,3.252c-0.044,0.238-0.25,0.411-0.492,0.411H12z M21.206,8.392c0.404,0.34,0.79,0.7,1.153,1.073
		c0.057,0.057,0.113,0.119,0.168,0.185c0.322-0.356,0.496-0.831,0.473-1.313c-0.001-0.02,0-0.04,0.001-0.061
		c0.036-0.459-0.117-0.906-0.417-1.242C22.185,7.532,21.723,7.987,21.206,8.392z"/>
	<circle cx="18.75" cy="10.063" r="0.75"/>
</g>
</svg>
